<?xml version="1.0" encoding="utf-8"?>
<!-- Generator: Adobe Illustrator 20.1.0, SVG Export Plug-In . SVG Version: 6.00 Build 0)  -->
<svg version="1.1" id="Layer_1" xmlns="http://www.w3.org/2000/svg" xmlns:xlink="http://www.w3.org/1999/xlink" x="0px" y="0px"
	 viewBox="0 0 100 100" style="enable-background:new 0 0 100 100;" xml:space="preserve">
<style type="text/css">
	.st0{fill:#3E3E3E;}
</style>
<g id="Layer_1_1_">
	<g id="Azure">
		<g>
			<path class="st0" d="M59.5,54.2c-2.6,0-4.8,1.6-5.8,3.8H16.5l0,0c-6.2,0-11.4-5.1-11.4-11.4s5.1-11.4,11.4-11.4l0,0h0.1l0,0h5.1
				c0.3-1.3,0.6-2.6,1.2-3.8c0.3-0.4,0.4-0.9,0.6-1.3c2.6-4.5,7.5-7.5,13.1-7.5c5.1,0,9.5,2.5,12.2,6.1c1.6-0.8,3.2-1.3,4.9-1.7
				c-3.6-5.7-9.9-9.5-17.1-9.5c-8.4,0-15.7,5.2-18.7,12.6c0,0,0,0,0,0.1l0,0c0,0,0,0,0-0.1h-1.4C7.4,30.2,0,37.6,0,46.7
				s7.4,16.5,16.5,16.5h37.3c1,2.2,3.2,3.8,5.8,3.8c3.5,0,6.4-2.9,6.4-6.4C65.8,57.1,63,54.2,59.5,54.2z"/>
			<path class="st0" d="M79.2,82.5c11.2,0,20.8-9.5,20.8-20.6s-9-20.1-20.1-20.3C76.1,34.1,68.4,29,59.5,29
				c-10.9,0-20,7.7-22.2,17.8c-5.3,0.5-9.9,3.4-12.7,7.4h27.1c1.8-2.3,4.7-3.8,7.9-3.8c5.6,0,10.1,4.5,10.1,10.1
				s-4.5,10.1-10.1,10.1c-3.2,0-6-1.4-7.9-3.8H21.4c1.2,8.6,8.1,15.6,17,15.6H79.2z"/>
		</g>
	</g>
</g>
<g id="paths">
	<g id="Access_control">
	</g>
	<g id="Azure_active_directory">
	</g>
	<g id="API_Management">
	</g>
	<g id="Azure_automation">
	</g>
</g>
</svg>
