<?xml version="1.0" encoding="utf-8"?>
<!-- Generator: Adobe Illustrator 21.1.0, SVG Export Plug-In . SVG Version: 6.00 Build 0)  -->
<svg version="1.1" id="Layer_1" xmlns="http://www.w3.org/2000/svg" xmlns:xlink="http://www.w3.org/1999/xlink" x="0px" y="0px"
	 width="92px" height="92px" viewBox="0 0 92 92" style="enable-background:new 0 0 92 92;" xml:space="preserve">
<style type="text/css">
	.st0{fill:#7FBB42;}
	.st1{fill:#393939;}
</style>
<path class="st0" d="M18,68.8c-3.1,0-5.6-0.4-7.3-1c-1.9-0.6-3.1-1.7-3.9-2.9c-0.8-1.5-1.2-3.5-1.2-6.2v-4.6c0-2.9-1.2-4.6-3.7-4.6
	v-5.6c2.5,0,3.7-1.5,3.7-4.6v-4.2c0-2.9,0.4-5.2,1.2-6.4c0.8-1.5,2.1-2.3,3.7-3.1c1.9-0.6,4.2-1,7.3-1v5.6c-1.5,0-2.3,0.2-3.1,0.8
	c-0.6,0.6-1,1.7-1,3.1v3.5c0,2.3-0.2,4.2-0.8,5.6c-0.6,1.5-1.7,2.5-3.1,3.1l0,0c1.5,0.6,2.5,1.7,3.1,3.3c0.6,1.5,1,3.5,1,5.8v3.1
	c0,1.5,0.2,2.5,0.8,3.1s1.7,1,3.1,1v6H18V68.8z"/>
<path class="st0" d="M89.4,50c-2.5,0-3.8,1.5-3.8,4.6v4.2c0,2.9-0.4,5.2-1.3,6.5c-0.8,1.5-2.1,2.3-3.8,3.1c-1.9,0.6-4.2,1-7.3,1
	v-5.7c1.5,0,2.5-0.2,3.1-0.8s1-1.7,1-3.1v-3.6c0-2.3,0.2-4.2,0.8-5.7s1.7-2.5,3.1-3.1l0,0c-1.5-0.6-2.5-1.9-3.1-3.4s-1-3.6-1-5.9V35
	c0-1.5-0.2-2.5-0.8-3.1s-1.7-1-3.1-1v-5.7c3.1,0,5.7,0.4,7.3,1c1.9,0.6,3.1,1.7,4,2.9c0.8,1.5,1.3,3.6,1.3,6.3V40
	c0,2.9,1.3,4.6,3.8,4.6V50H89.4z"/>
<g>
	<path class="st1" d="M29.8,54.9h-9.9V38.4h3.7v13.5h6.1L29.8,54.9L29.8,54.9z"/>
	<path class="st1" d="M41.9,54.9H32V38.4h9.6v3h-5.8v3.7h5.4v3h-5.4v3.8H42L41.9,54.9L41.9,54.9z"/>
	<path class="st1" d="M59.5,54.9h-4.1l-1.2-3.7h-5.9l-1.2,3.7h-4l6-16.6h4.4L59.5,54.9z M53.4,48.4l-1.8-5.6
		c-0.1-0.4-0.2-0.9-0.3-1.5h-0.1c0,0.5-0.1,1-0.3,1.4l-1.8,5.6L53.4,48.4L53.4,48.4z"/>
	<path class="st1" d="M71.2,41.4h-5.8v4.1h5.4v3h-5.4v6.4h-3.7V38.4h9.6L71.2,41.4L71.2,41.4z"/>
</g>
</svg>
