<svg xmlns="http://www.w3.org/2000/svg" width="18" height="18" viewBox="0 0 18 18">
  <defs>
    <linearGradient id="abec547c-abe6-40ff-94bb-c8ae4936d3ba" x1="10.084" y1="1.309" x2="10.084" y2="17.627" gradientUnits="userSpaceOnUse">
      <stop offset="0" stop-color="#5ea0ef" />
      <stop offset="1" stop-color="#0078d4" />
    </linearGradient>
  </defs>
  <g id="a853f1a1-a621-4c91-8bb0-49672e020d5c">
    <path d="M17.8,16.141l-2.928-2.929a7.281,7.281,0,1,0-1.3,1.193l2.981,2.981a.824.824,0,0,0,1.164,0l.08-.081A.822.822,0,0,0,17.8,16.141Z" fill="url(#abec547c-abe6-40ff-94bb-c8ae4936d3ba)" />
    <circle cx="9.358" cy="8.54" r="5.665" fill="#fff" />
    <path d="M12.189,9.018l-1.63,3.78L8.918,7.928,7.463,10.7,5.774,7.844H3.242A5.712,5.712,0,0,1,3.464,6.9H6.315l1.1,1.858L9.108,5.526l1.56,4.627.883-2.367h1.042l1.259,2.288h.935a5.836,5.836,0,0,1-.3.947H13.291Z" fill="#50e6ff" />
    <path d="M13.549,7.16H11.373a4.159,4.159,0,0,0-.788-2.026A4.222,4.222,0,0,0,7.992,3.526V1.311a.6.6,0,0,0-1.207,0v2.17A4.146,4.146,0,0,0,3.056,7.16H.644a.6.6,0,0,0,0,1.207H3.1a4.126,4.126,0,0,0,.755,1.8A4.222,4.222,0,0,0,6.614,11.8v2.236a.6.6,0,1,0,1.207,0V11.8a4.164,4.164,0,0,0,3.526-3.436h2.2a.6.6,0,0,0,0-1.207ZM9.073,10.132A3.1,3.1,0,1,1,9.7,5.793,3.082,3.082,0,0,1,9.073,10.132Z" fill="#faa21d" />
  </g>
</svg>