<svg xmlns="http://www.w3.org/2000/svg" width="18" height="18" viewBox="0 0 18 18">
  <defs>
    <linearGradient id="b55bf212-bc71-43ae-b42d-19ef7a91c1d8" x1="9" y1="13.245" x2="9" y2="1.245" gradientUnits="userSpaceOnUse">
      <stop offset="0" stop-color="#0078d4" />
      <stop offset="0.817" stop-color="#5ea0ef" />
    </linearGradient>
    <linearGradient id="a85d3222-1189-4832-8004-7d458f964bb9" x1="9.003" y1="17.88" x2="9.003" y2="13.245" gradientUnits="userSpaceOnUse">
      <stop offset="0.149" stop-color="#ccc" />
      <stop offset="1" stop-color="#707070" />
    </linearGradient>
  </defs>
  <g id="f74aae7b-dc5d-4533-b326-64474c4e1586">
    <g>
      <rect y="1.245" width="18" height="12" rx="0.601" fill="url(#b55bf212-bc71-43ae-b42d-19ef7a91c1d8)" />
      <path d="M12.61,16.875c-1.78-.279-1.85-1.563-1.845-3.63H7.235c0,2.067-.065,3.351-1.845,3.63a1.046,1.046,0,0,0-.887,1h9A1.052,1.052,0,0,0,12.61,16.875Z" fill="url(#a85d3222-1189-4832-8004-7d458f964bb9)" />
    </g>
    <path d="M5.354,11.505H1.782a.3.3,0,0,1-.3-.3V3.284a.3.3,0,0,1,.3-.3H5.354a.3.3,0,0,1,.3.3v7.921A.3.3,0,0,1,5.354,11.505Zm5.732-.3V3.284a.3.3,0,0,0-.3-.3H7.214a.3.3,0,0,0-.3.3v7.921a.3.3,0,0,0,.3.3h3.572A.3.3,0,0,0,11.086,11.205Z" fill="#fff" opacity="0.3" />
    <rect x="12.346" y="2.984" width="4.173" height="8.521" rx="0.3" fill="#faa21d" />
    <path d="M14.8,8.5h-.73a.165.165,0,0,1-.171-.152l-.078-3.326a.163.163,0,0,1,.171-.159h.887a.164.164,0,0,1,.171.159l-.079,3.326A.165.165,0,0,1,14.8,8.5Zm-.365.411a.583.583,0,1,0,.583.583A.583.583,0,0,0,14.432,8.915ZM10.37,6.4a.094.094,0,0,0-.133,0l-1.7,1.7-.647-.646a.094.094,0,0,0-.133,0l-.15.15a.094.094,0,0,0,0,.133l.86.86h0a.1.1,0,0,0,.134,0L10.52,6.678a.094.094,0,0,0,0-.133Zm-5.5,0a.094.094,0,0,0-.133,0l-1.7,1.7L2.4,7.445a.1.1,0,0,0-.134,0l-.15.15a.1.1,0,0,0,0,.133l.86.86h.005a.094.094,0,0,0,.133,0L5.022,6.678a.094.094,0,0,0,0-.133Zm11.346,5.3H12.646a.489.489,0,0,1-.488-.488V3.284a.489.489,0,0,1,.488-.488h3.572a.489.489,0,0,1,.488.488v7.921A.489.489,0,0,1,16.218,11.693ZM12.646,3.171a.114.114,0,0,0-.113.113v7.921a.114.114,0,0,0,.113.113h3.572a.114.114,0,0,0,.113-.113V3.284a.114.114,0,0,0-.113-.113Z" fill="#fff" />
  </g>
</svg>