<svg width="166" height="162" xmlns="http://www.w3.org/2000/svg" xmlns:xlink="http://www.w3.org/1999/xlink" xml:space="preserve" overflow="hidden"><defs><clipPath id="clip0"><rect x="2811" y="1371" width="166" height="162"/></clipPath></defs><g clip-path="url(#clip0)" transform="translate(-2811 -1371)"><path d="M2903 1451.5C2903 1429.68 2919.57 1412 2940 1412 2960.43 1412 2977 1429.68 2977 1451.5 2977 1473.32 2960.43 1491 2940 1491 2919.57 1491 2903 1473.32 2903 1451.5ZM2908.73 1451.5C2908.73 1470.15 2922.73 1485.27 2940 1485.27 2957.27 1485.27 2971.27 1470.15 2971.27 1451.5 2971.27 1432.85 2957.27 1417.73 2940 1417.73 2922.73 1417.73 2908.73 1432.85 2908.73 1451.5Z" fill="#0078D4" fill-rule="evenodd"/><path d="M0 3.99996C-4.45595e-16 1.79084 1.79085 -4.45594e-16 3.99997 -8.91188e-16L3.99997 0C6.20909 -8.91188e-16 7.99993 1.79084 7.99993 3.99996L7.9999 23.9999C7.9999 26.209 6.20906 27.9999 3.99994 27.9999L3.99997 27.9998C1.79085 27.9998 0 26.209 0 23.9999Z" fill="#0078D4" fill-rule="evenodd" transform="matrix(-1 0 0 1 2946 1488)"/><path d="M2956.5 1511C2958.43 1511 2960 1512.57 2960 1514.5L2960 1514.5C2960 1516.43 2958.43 1518 2956.5 1518L2926.5 1518C2924.57 1518 2923 1516.43 2923 1514.5L2923 1514.5C2923 1512.57 2924.57 1511 2926.5 1511Z" fill="#0078D4" fill-rule="evenodd"/><path d="M0 3.49992C0 1.56697 1.56697 -5.88826e-16 3.49993-1.17765e-15L3.49993 0C5.43289 -5.88826e-16 6.99987 1.56697 6.99987 3.49992L6.99987 33.5002C6.99987 35.4332 5.43289 37.0001 3.49993 37.0001L3.49993 37.0001C1.56697 37.0001 0 35.4332 0 33.5002Z" fill="#0078D4" fill-rule="evenodd" transform="matrix(1.83697e-16 1 1 -1.83697e-16 2923 1526)"/><path d="M2948.84 1437.45C2949.95 1436.34 2951.75 1436.34 2952.86 1437.45L2952.86 1437.45C2953.97 1438.56 2953.97 1440.36 2952.86 1441.46L2933.96 1460.36C2932.85 1461.47 2931.06 1461.47 2929.95 1460.36L2929.95 1460.36C2928.84 1459.25 2928.84 1457.45 2929.95 1456.34Z" fill="#0078D4" fill-rule="evenodd"/><path d="M2953.53 1457.24C2954.58 1458.29 2954.58 1459.98 2953.53 1461.03L2953.53 1461.03C2952.48 1462.08 2950.78 1462.08 2949.74 1461.03L2929.28 1440.57C2928.23 1439.52 2928.23 1437.82 2929.28 1436.78L2929.28 1436.78C2930.32 1435.73 2932.02 1435.73 2933.07 1436.78Z" fill="#0078D4" fill-rule="evenodd"/><path d="M2858.76 1371 2932.24 1371C2939.84 1371 2946 1377.55 2946 1385.62L2946 1414 2939.77 1414 2939.77 1384.66C2939.77 1380.84 2936.85 1377.73 2933.25 1377.73L2857.75 1377.73C2854.15 1377.73 2851.23 1380.84 2851.23 1384.66L2851.23 1414 2845 1414 2845 1385.62C2845 1377.55 2851.16 1371 2858.76 1371Z" fill="#0078D4" fill-rule="evenodd"/><path d="M2859.9 1439.3C2858.36 1439.02 2856.75 1439.73 2855.86 1441.22L2844.89 1459.61 2839.57 1455.37C2837.8 1453.97 2835.3 1454.36 2833.98 1456.24 2832.66 1458.13 2833.03 1460.8 2834.8 1462.21L2843.25 1468.94C2844.13 1469.64 2845.2 1469.9 2846.21 1469.74L2847.01 1469.44 2847.12 1469.44 2847.54 1469.24 2847.66 1469.2 2847.68 1469.18 2848.52 1468.79C2848.95 1468.47 2849.32 1468.06 2849.62 1467.57 2853.95 1460.31 2858.28 1453.05 2862.6 1445.8 2863.79 1443.81 2863.24 1441.17 2861.38 1439.91 2860.91 1439.59 2860.41 1439.39 2859.9 1439.3ZM2848 1412C2868.43 1412 2885 1429.68 2885 1451.5 2885 1473.32 2868.43 1491 2848 1491 2827.57 1491 2811 1473.32 2811 1451.5 2811 1429.68 2827.57 1412 2848 1412Z" fill="#50E6FF" fill-rule="evenodd"/><path d="M0 3.99999C-7.00223e-16 1.79086 1.79086 0 3.99999 0L3.99999 0C6.20912 -7.00223e-16 7.99997 1.79086 7.99997 3.99999L7.99997 40C7.99997 42.2091 6.20912 44 3.99999 44L3.99999 44C1.79086 44 0 42.2091 0 40Z" fill="#50E6FF" fill-rule="evenodd" transform="matrix(-1 0 0 1 2852 1488)"/><path d="M2865.17 1509.67C2867.06 1508.26 2869.73 1508.65 2871.14 1510.54L2871.14 1510.54C2872.54 1512.42 2872.15 1515.09 2870.27 1516.5L2851.12 1530.77C2849.23 1532.18 2846.56 1531.79 2845.16 1529.9L2845.16 1529.9C2843.75 1528.02 2844.14 1525.35 2846.03 1523.94Z" fill="#50E6FF" fill-rule="evenodd"/><path d="M0 4.26015C-1.03135e-15 1.90733 1.90734-1.03135e-15 4.26015-1.03135e-15L4.26015 0C6.61297 -5.15674e-16 8.52031 1.90733 8.52031 4.26015L8.52031 28.1433C8.52031 30.4961 6.61297 32.4034 4.26015 32.4034L4.26015 32.4034C1.90734 32.4034 -5.15675e-16 30.4961 -5.15675e-16 28.1433Z" fill="#50E6FF" fill-rule="evenodd" transform="matrix(-0.597698 0.801721 0.801721 0.597698 2826.96 1506.62)"/></g></svg>