<svg xmlns="http://www.w3.org/2000/svg" xmlns:xlink="http://www.w3.org/1999/xlink" viewBox="0 0 375 245">
  <defs>
    <linearGradient id="linear-gradient" x1="241.43" y1="617.59" x2="241.43" y2="585.59" gradientTransform="matrix(1, 0, 0, -1, 0, 664)" gradientUnits="userSpaceOnUse">
      <stop offset="0" stop-color="#b3b2b3"/>
      <stop offset="0.38" stop-color="#afaeaf"/>
      <stop offset="0.76" stop-color="#a2a2a2"/>
      <stop offset="1" stop-color="#979797"/>
    </linearGradient>
    <linearGradient id="linear-gradient-2" x1="241.43" y1="539.09" x2="241.43" y2="507.09" xlink:href="#linear-gradient"/>
    <linearGradient id="linear-gradient-3" x1="241.43" y1="458.92" x2="241.43" y2="426.92" xlink:href="#linear-gradient"/>
    <linearGradient id="linear-gradient-4" x1="145.38" y1="504.69" x2="145.38" y2="539.46" gradientTransform="matrix(1, 0, 0, -1, 0, 664)" gradientUnits="userSpaceOnUse">
      <stop offset="0" stop-color="#5e9624"/>
      <stop offset="0.02" stop-color="#5f9724"/>
      <stop offset="1" stop-color="#76bc2d"/>
    </linearGradient>
  </defs>
  <g id="Shapes">
    <g>
      <rect y="35" width="375" height="210" fill="#fff"/>
      <rect y="35" width="375" height="210" fill="#3c3c41" opacity="0.05"/>
    </g>
    <g>
      <rect width="375" height="35" fill="#fff"/>
      <rect width="375" height="35" fill="#3c3c41" opacity="0.18"/>
    </g>
    <g>
      <path d="M251.82,77.32a1.14,1.14,0,0,1-1.19,1.08H232.24a1.15,1.15,0,0,1-1.2-1.08V47.49a1.15,1.15,0,0,1,1.2-1.08h18.39a1.15,1.15,0,0,1,1.19,1.08Z" fill="url(#linear-gradient)"/>
      <path d="M234.1,60.09a2.41,2.41,0,0,1,2.22-2.51H246.7a2.4,2.4,0,0,1,2.22,2.51h0a2.38,2.38,0,0,1-2.14,2.59H236.37a2.37,2.37,0,0,1-2.22-2.48Z" fill="#003067"/>
      <path d="M234.1,52.68a2.38,2.38,0,0,1,2.22-2.48H246.7a2.38,2.38,0,0,1,2.22,2.48h0a2.4,2.4,0,0,1-2.22,2.51H236.37a2.4,2.4,0,0,1-2.22-2.51Z" fill="#003067"/>
      <circle cx="237.01" cy="52.68" r="1.66" fill="#50e6ff"/>
      <circle cx="237.01" cy="60.09" r="1.66" fill="#50e6ff"/>
    </g>
    <g>
      <path d="M251.82,155.82a1.14,1.14,0,0,1-1.19,1.08H232.24a1.15,1.15,0,0,1-1.2-1.08V126a1.15,1.15,0,0,1,1.2-1.08h18.39a1.15,1.15,0,0,1,1.19,1.08Z" fill="url(#linear-gradient-2)"/>
      <path d="M234.1,138.59a2.41,2.41,0,0,1,2.22-2.51H246.7a2.4,2.4,0,0,1,2.22,2.51h0a2.38,2.38,0,0,1-2.14,2.59H236.37a2.37,2.37,0,0,1-2.22-2.48Z" fill="#003067"/>
      <path d="M234.1,131.18a2.38,2.38,0,0,1,2.22-2.48H246.7a2.38,2.38,0,0,1,2.22,2.48h0a2.4,2.4,0,0,1-2.22,2.51H236.37a2.4,2.4,0,0,1-2.22-2.51Z" fill="#003067"/>
      <circle cx="237.01" cy="131.18" r="1.66" fill="#50e6ff"/>
      <circle cx="237.01" cy="138.59" r="1.66" fill="#50e6ff"/>
    </g>
    <g>
      <path d="M251.82,236a1.15,1.15,0,0,1-1.19,1.08H232.24A1.15,1.15,0,0,1,231,236V206.17a1.16,1.16,0,0,1,1.2-1.09h18.39a1.15,1.15,0,0,1,1.19,1.09Z" fill="url(#linear-gradient-3)"/>
      <path d="M234.1,218.77a2.41,2.41,0,0,1,2.22-2.51H246.7a2.4,2.4,0,0,1,2.22,2.51h0a2.37,2.37,0,0,1-2.14,2.58H236.37a2.37,2.37,0,0,1-2.22-2.48Z" fill="#003067"/>
      <path d="M234.1,211.36a2.38,2.38,0,0,1,2.22-2.48H246.7a2.38,2.38,0,0,1,2.22,2.48h0a2.4,2.4,0,0,1-2.22,2.51H236.37a2.4,2.4,0,0,1-2.22-2.51Z" fill="#003067"/>
      <circle cx="237.01" cy="211.36" r="1.66" fill="#50e6ff"/>
      <circle cx="237.01" cy="218.77" r="1.66" fill="#50e6ff"/>
    </g>
    <g>
      <rect x="144.88" y="160.98" width="1" height="0.75" fill="#3c3c41"/>
      <path d="M145.88,158.48h-1V157h1Zm0-4h-1V153h1Zm0-4h-1V149h1Zm0-4h-1v-1.51h1Zm0-4h-1v-1.5h1Zm0-4h-1v-1.5h1Zm0-4h-1v-1.5h1Zm0-4h-1v-1.5h1Zm0-4h-1v-1.5h1Zm0-4h-1v-1.5h1Zm0-4h-1v-1.5h1Zm0-4h-1v-1.5h1Zm0-4h-1v-1.5h1Zm0-4h-1v-1.51h1Zm0-4h-1v-1.51h1Zm0-4h-1V96.81h1Zm0-4h-1V92.8h1Zm0-4h-1V88.79h1Zm0-4h-1V84.78h1Zm0-4h-1v-1.5h1Zm0-4h-1v-1.5h1Zm0-4h-1v-1.5h1Zm0-4h-1v-1.5h1Zm.09-3.9-1-.2a5.46,5.46,0,0,1,.57-1.55l.88.48A4.53,4.53,0,0,0,146,66.34Zm2-2.9-.54-.84a5.66,5.66,0,0,1,1.51-.67l.27,1A4.74,4.74,0,0,0,148,63.44Zm69.27-.71h-1.51v-1h1.51Zm-4,0h-1.51v-1h1.51Zm-4,0H207.7v-1h1.51Zm-4,0h-1.51v-1h1.51Zm-4,0h-1.51v-1h1.51Zm-4,0h-1.5v-1h1.5Zm-4,0h-1.5v-1h1.5Zm-4,0h-1.5v-1h1.5Zm-4,0h-1.5v-1h1.5Zm-4,0h-1.5v-1h1.5Zm-4,0h-1.5v-1h1.5Zm-4,0h-1.5v-1h1.5Zm-4,0h-1.5v-1h1.5Zm-4,0h-1.5v-1h1.5Zm-4,0h-1.51v-1h1.51Zm-4,0h-1.51v-1h1.51Zm-4,0h-1.51v-1h1.51Z" fill="#3c3c41"/>
      <rect x="219.75" y="61.73" width="0.75" height="1" fill="#3c3c41"/>
      <polygon points="219.41 65.97 225.88 62.23 219.41 58.49 219.41 65.97" fill="#3c3c41"/>
    </g>
    <g>
      <rect x="219.75" y="220.73" width="0.75" height="1" fill="#3c3c41"/>
      <path d="M217.21,221.73h-1.52v-1h1.52Zm-4.06,0h-1.52v-1h1.52Zm-4.06,0h-1.52v-1h1.52Zm-4.06,0h-1.52v-1H205Zm-4.05,0h-1.53v-1H201Zm-4.06,0H195.4v-1h1.52Zm-4.06,0h-1.52v-1h1.52Zm-4.06,0h-1.52v-1h1.52Zm-4.06,0h-1.52v-1h1.52Zm-4.06,0h-1.52v-1h1.52Zm-4.06,0H175.1v-1h1.52Zm-4.06,0H171v-1h1.52Zm-4.06,0H167v-1h1.52Zm-4.06,0h-1.52v-1h1.52Zm-4.05,0h-1.53v-1h1.53Zm-4.06,0H154.8v-1h1.53Zm-4.06,0h-1.53v-1h1.53Zm-4.2-.51a5.45,5.45,0,0,1-1.39-.93l.67-.73a4.33,4.33,0,0,0,1.14.75Zm-2.9-3.24a5.39,5.39,0,0,1-.29-1.64l1,0a4.34,4.34,0,0,0,.24,1.34Zm.71-4.19h-1v-1.52h1Zm0-4h-1v-1.53h1Zm0-4.06h-1v-1.53h1Zm0-4.06h-1v-1.53h1Zm0-4.06h-1V196h1Z" fill="#3c3c41"/>
      <rect x="144.88" y="192.73" width="1" height="0.75" fill="#3c3c41"/>
      <polygon points="219.41 217.5 225.88 221.24 219.41 224.97 219.41 217.5" fill="#3c3c41"/>
    </g>
    <g>
      <rect x="145.88" y="140.73" width="0.75" height="1" fill="#3c3c41"/>
      <path d="M217.3,141.73h-1.48v-1h1.48Zm-3.93,0H211.9v-1h1.47Zm-3.93,0H208v-1h1.47Zm-3.92,0h-1.47v-1h1.47Zm-3.93,0h-1.47v-1h1.47Zm-3.92,0h-1.48v-1h1.48Zm-3.93,0h-1.47v-1h1.47Zm-3.92,0h-1.48v-1h1.48Zm-3.93,0h-1.47v-1h1.47Zm-3.93,0h-1.47v-1H182Zm-3.92,0h-1.47v-1H178Zm-3.93,0h-1.47v-1h1.47Zm-3.92,0h-1.48v-1h1.48Zm-3.93,0h-1.47v-1h1.47Zm-3.93,0h-1.47v-1h1.47Zm-3.92,0h-1.47v-1h1.47Zm-3.93,0H153v-1h1.47Zm-3.92,0h-1.47v-1h1.47Z" fill="#3c3c41"/>
      <rect x="219.75" y="140.73" width="0.75" height="1" fill="#3c3c41"/>
      <polygon points="219.41 144.97 225.88 141.24 219.41 137.5 219.41 144.97" fill="#3c3c41"/>
    </g>
    <g>
      <path d="M130.68,140.52l14-14a1,1,0,0,1,1.42,0l0,0,14,14a1,1,0,0,1,0,1.41l0,0-14,14a1,1,0,0,1-1.4,0l-14-14a1,1,0,0,1,0-1.41Z" fill="url(#linear-gradient-4)"/>
      <path d="M149.05,132.9l-3.54-3.51a.19.19,0,0,0-.26,0l-3.53,3.51a.17.17,0,0,0-.05.23.16.16,0,0,0,.18.07h2.07a.18.18,0,0,1,.18.19v3.33a.18.18,0,0,0,.18.18h2.2a.18.18,0,0,0,.18-.18v-3.33a.19.19,0,0,1,.19-.19h2.06a.17.17,0,0,0,.14-.3Z" fill="#b4ec36"/>
      <path d="M137.05,137.25l-3.5,3.55a.18.18,0,0,0,0,.25l3.5,3.52a.2.2,0,0,0,.26,0,.2.2,0,0,0,.06-.15v-2.05a.18.18,0,0,1,.18-.18h3.33a.17.17,0,0,0,.17-.16v-2.22a.17.17,0,0,0-.06-.23l-.06,0H137.6a.17.17,0,0,1-.18-.15v-2a.2.2,0,0,0-.12-.25A.19.19,0,0,0,137.05,137.25Z" fill="#b4ec36"/>
      <path d="M153.85,144.57,157.4,141a.2.2,0,0,0,0-.25l-3.55-3.53a.19.19,0,0,0-.26,0,.15.15,0,0,0,0,.11v2.08a.18.18,0,0,1-.17.17H150a.18.18,0,0,0-.17.17V142a.17.17,0,0,0,.15.18h3.35a.19.19,0,0,1,.19.18v2.07a.18.18,0,0,0,.2.16Z" fill="#b4ec36"/>
      <path d="M150,141.23a4.65,4.65,0,1,0-5.9,4.45v1.59a2.85,2.85,0,1,0,2.62,0V145.6A4.61,4.61,0,0,0,150,141.23Z" fill="#fff"/>
      <circle id="e99c3387-15c3-4f28-bd4b-cb209b430e06" cx="145.4" cy="141.22" r="2.7" fill="#5ea0ef"/>
    </g>
  </g>
  <g id="Text">
    <g>
      <path d="M156.4,13.88h-1.9V10.46H151v3.42h-1.89V5.48H151V8.83h3.48V5.48h1.9Z" fill="#1e1e1e"/>
      <path d="M165.71,13.88h-2.06l-.6-1.87h-3l-.59,1.87h-2.05l3.06-8.4h2.24Zm-3.09-3.32-.91-2.82a4.51,4.51,0,0,1-.14-.76h0a3.06,3.06,0,0,1-.15.73l-.92,2.85Z" fill="#1e1e1e"/>
      <path d="M172,11v2.89h-1.89V5.48h3c2.12,0,3.18.89,3.18,2.68a2.58,2.58,0,0,1-.91,2.05,3.63,3.63,0,0,1-2.44.78Zm0-4.06V9.55h.75c1,0,1.51-.44,1.51-1.32s-.51-1.3-1.51-1.3Z" fill="#1e1e1e"/>
      <path d="M179.76,14a3.23,3.23,0,0,1-2.36-.84,3.05,3.05,0,0,1-.86-2.28,3.05,3.05,0,0,1,.89-2.33,3.38,3.38,0,0,1,2.41-.84,3.2,3.2,0,0,1,2.35.84A3,3,0,0,1,183,10.8a3.18,3.18,0,0,1-.88,2.36A3.24,3.24,0,0,1,179.76,14Zm.05-4.88a1.21,1.21,0,0,0-1,.46,2,2,0,0,0-.37,1.27c0,1.16.47,1.73,1.4,1.73s1.33-.59,1.33-1.77S180.7,9.15,179.81,9.15Z" fill="#1e1e1e"/>
      <path d="M188.15,9.55a1.61,1.61,0,0,0-.78-.18,1.12,1.12,0,0,0-.94.44,1.93,1.93,0,0,0-.34,1.21v2.86h-1.85v-6h1.85V9h0a1.59,1.59,0,0,1,1.58-1.22,1.14,1.14,0,0,1,.46.07Z" fill="#1e1e1e"/>
      <path d="M193,13.81a2.62,2.62,0,0,1-1.23.22,1.76,1.76,0,0,1-2-2V9.25h-1V7.88h1V6.59l1.85-.53V7.88H193V9.25h-1.34v2.42c0,.63.24.94.74.94a1.24,1.24,0,0,0,.6-.17Z" fill="#1e1e1e"/>
      <path d="M193.63,13.72v-1.5a3.72,3.72,0,0,0,.92.41,3,3,0,0,0,.85.14,1.84,1.84,0,0,0,.78-.14.42.42,0,0,0,.28-.41.4.4,0,0,0-.12-.29,1.32,1.32,0,0,0-.33-.2,4.72,4.72,0,0,0-.45-.16l-.46-.16a4.68,4.68,0,0,1-.63-.29,1.84,1.84,0,0,1-.46-.36,1.72,1.72,0,0,1-.28-.47,2,2,0,0,1-.1-.64,1.7,1.7,0,0,1,.22-.87,2,2,0,0,1,.59-.6,2.9,2.9,0,0,1,.84-.34,4.46,4.46,0,0,1,1-.1,5.52,5.52,0,0,1,.81.06,5.88,5.88,0,0,1,.81.18V9.41a3,3,0,0,0-.76-.31,3,3,0,0,0-.78-.1A1.9,1.9,0,0,0,196,9a1.15,1.15,0,0,0-.28.09.51.51,0,0,0-.19.16.34.34,0,0,0-.07.22.4.4,0,0,0,.1.28.75.75,0,0,0,.28.2,3.17,3.17,0,0,0,.37.16l.42.13a7.13,7.13,0,0,1,.67.28,2.88,2.88,0,0,1,.51.36,1.58,1.58,0,0,1,.33.48,1.86,1.86,0,0,1,.11.66A1.76,1.76,0,0,1,198,13a1.93,1.93,0,0,1-.62.62,2.88,2.88,0,0,1-.88.34,5.1,5.1,0,0,1-1,.11A5.27,5.27,0,0,1,193.63,13.72Z" fill="#1e1e1e"/>
      <path d="M209.85,13.88h-2.18l-1.3-2.16c-.1-.16-.19-.31-.28-.44a1.87,1.87,0,0,0-.28-.33,1.08,1.08,0,0,0-.28-.21.72.72,0,0,0-.33-.07h-.51v3.21H202.8V5.48h3c2,0,3.06.76,3.06,2.29a2.38,2.38,0,0,1-.14.81,2.12,2.12,0,0,1-.38.67,2.24,2.24,0,0,1-.59.51,2.88,2.88,0,0,1-.78.34v0a1,1,0,0,1,.36.19,2.45,2.45,0,0,1,.34.31A3.87,3.87,0,0,1,208,11c.1.14.19.27.27.4Zm-5.16-7V9.24h.82a1.35,1.35,0,0,0,1-.36,1.16,1.16,0,0,0,.38-.88c0-.73-.44-1.1-1.32-1.1Z" fill="#1e1e1e"/>
      <path d="M216.15,13.88h-1.84V13h0A2.09,2.09,0,0,1,212.44,14c-1.39,0-2.08-.84-2.08-2.53V7.88h1.84v3.46c0,.85.34,1.27,1,1.27a1,1,0,0,0,.8-.35,1.4,1.4,0,0,0,.3-.94V7.88h1.84Z" fill="#1e1e1e"/>
      <path d="M219.56,13.88h-1.85V5h1.85Z" fill="#1e1e1e"/>
      <path d="M226.51,11.41H222.6c.06.87.61,1.31,1.64,1.31a3.24,3.24,0,0,0,1.74-.47v1.33a4.5,4.5,0,0,1-2.16.45,3,3,0,0,1-2.25-.81,3,3,0,0,1-.81-2.24,3.2,3.2,0,0,1,.87-2.37,2.9,2.9,0,0,1,2.13-.87,2.6,2.6,0,0,1,2,.78,3,3,0,0,1,.72,2.11Zm-1.71-1.14Q224.8,9,223.75,9a1,1,0,0,0-.77.37,1.63,1.63,0,0,0-.39.92Z" fill="#1e1e1e"/>
      <path d="M113.46,29h-.85a7.47,7.47,0,0,1-1.82-5.12,7.75,7.75,0,0,1,1.82-5.2h.86a8,8,0,0,0-1.84,5.19A7.75,7.75,0,0,0,113.46,29Z" fill="#1e1e1e"/>
      <path d="M114.3,26.74V25.58a2.21,2.21,0,0,0,.48.31,3,3,0,0,0,.58.24,3.5,3.5,0,0,0,.62.15,3,3,0,0,0,.57,0,2.29,2.29,0,0,0,1.36-.33,1.15,1.15,0,0,0,.45-1,1.16,1.16,0,0,0-.15-.6,1.94,1.94,0,0,0-.41-.46,4.56,4.56,0,0,0-.63-.39l-.77-.41a7,7,0,0,1-.82-.45,3.54,3.54,0,0,1-.67-.5,2.26,2.26,0,0,1-.44-.62,1.94,1.94,0,0,1-.16-.82,1.9,1.9,0,0,1,.25-1,2.21,2.21,0,0,1,.66-.7,3.19,3.19,0,0,1,.94-.41,4.3,4.3,0,0,1,1.07-.14,4.08,4.08,0,0,1,1.81.3v1.11a3.31,3.31,0,0,0-1.91-.52,3.59,3.59,0,0,0-.65.07,2,2,0,0,0-.57.22,1.27,1.27,0,0,0-.41.39,1,1,0,0,0-.16.59,1.22,1.22,0,0,0,.12.56,1.28,1.28,0,0,0,.36.42,3,3,0,0,0,.57.38l.77.4c.3.15.59.3.86.47a3.59,3.59,0,0,1,.71.54,2.53,2.53,0,0,1,.48.66,1.89,1.89,0,0,1,.18.84,2.14,2.14,0,0,1-.24,1.05,2,2,0,0,1-.66.7,2.8,2.8,0,0,1-.95.39,5.24,5.24,0,0,1-1.14.12l-.49,0-.6-.1a4.74,4.74,0,0,1-.57-.15A1.83,1.83,0,0,1,114.3,26.74Z" fill="#1e1e1e"/>
      <path d="M123.33,27a1.87,1.87,0,0,1-.89.19c-1,0-1.58-.59-1.58-1.76V21.9h-1v-.82h1V19.61l1-.31v1.78h1.51v.82h-1.51v3.38a1.37,1.37,0,0,0,.21.86.81.81,0,0,0,.68.26,1,1,0,0,0,.62-.2Z" fill="#1e1e1e"/>
      <path d="M128.91,27.08h-1v-.94h0a2,2,0,0,1-1.85,1.08,2,2,0,0,1-1.4-.48,1.62,1.62,0,0,1-.51-1.26q0-1.68,2-1.95l1.8-.26c0-1-.41-1.52-1.24-1.52a2.94,2.94,0,0,0-1.95.73v-1a3.68,3.68,0,0,1,2-.56c1.41,0,2.11.74,2.11,2.23Zm-1-3-1.45.2a2.25,2.25,0,0,0-1,.33,1,1,0,0,0-.34.84.9.9,0,0,0,.31.72,1.19,1.19,0,0,0,.83.28,1.58,1.58,0,0,0,1.19-.5,1.8,1.8,0,0,0,.46-1.27Z" fill="#1e1e1e"/>
      <path d="M135.7,27.08h-1V23.66c0-1.28-.46-1.91-1.39-1.91a1.5,1.5,0,0,0-1.19.54,2,2,0,0,0-.48,1.37v3.42h-1v-6h1v1h0a2.17,2.17,0,0,1,2-1.13,1.84,1.84,0,0,1,1.5.63,2.84,2.84,0,0,1,.52,1.84Z" fill="#1e1e1e"/>
      <path d="M142.63,27.08h-1v-1h0a2.42,2.42,0,0,1-3.87.35,3.3,3.3,0,0,1-.68-2.19,3.62,3.62,0,0,1,.75-2.39,2.5,2.5,0,0,1,2-.89,1.91,1.91,0,0,1,1.8,1h0V18.19h1Zm-1-2.72v-.88a1.71,1.71,0,0,0-.48-1.23,1.58,1.58,0,0,0-1.22-.5,1.66,1.66,0,0,0-1.38.64,2.85,2.85,0,0,0-.5,1.78,2.56,2.56,0,0,0,.48,1.64,1.59,1.59,0,0,0,1.3.6,1.63,1.63,0,0,0,1.3-.58A2.15,2.15,0,0,0,141.67,24.36Z" fill="#1e1e1e"/>
      <path d="M148.88,27.08h-1v-.94h0a2,2,0,0,1-1.84,1.08,2,2,0,0,1-1.41-.48,1.62,1.62,0,0,1-.51-1.26c0-1.12.67-1.77,2-1.95l1.79-.26c0-1-.41-1.52-1.23-1.52a3,3,0,0,0-2,.73v-1a3.68,3.68,0,0,1,2-.56c1.41,0,2.12.74,2.12,2.23Zm-1-3-1.44.2a2.3,2.3,0,0,0-1,.33,1,1,0,0,0-.34.84.9.9,0,0,0,.31.72,1.2,1.2,0,0,0,.84.28,1.56,1.56,0,0,0,1.18-.5,1.8,1.8,0,0,0,.46-1.27Z" fill="#1e1e1e"/>
      <path d="M153.81,22.05a1.14,1.14,0,0,0-.72-.19,1.23,1.23,0,0,0-1,.58,2.62,2.62,0,0,0-.41,1.58v3.06h-1v-6h1v1.23h0a2.09,2.09,0,0,1,.63-1,1.4,1.4,0,0,1,.94-.36,1.65,1.65,0,0,1,.57.08Z" fill="#1e1e1e"/>
      <path d="M160,27.08h-1v-1h0a2.21,2.21,0,0,1-2.06,1.16,2.26,2.26,0,0,1-1.81-.81,3.29,3.29,0,0,1-.67-2.19,3.62,3.62,0,0,1,.75-2.39,2.48,2.48,0,0,1,2-.89,1.9,1.9,0,0,1,1.79,1h0V18.19h1Zm-1-2.72v-.88a1.71,1.71,0,0,0-.48-1.23,1.6,1.6,0,0,0-1.22-.5,1.64,1.64,0,0,0-1.38.64,2.79,2.79,0,0,0-.51,1.78,2.51,2.51,0,0,0,.49,1.64,1.57,1.57,0,0,0,1.29.6,1.65,1.65,0,0,0,1.31-.58A2.2,2.2,0,0,0,159,24.36Z" fill="#1e1e1e"/>
      <path d="M166.17,27.08h-1V18.19h1Z" fill="#1e1e1e"/>
      <path d="M170.63,27.22a2.79,2.79,0,0,1-2.13-.84,3.12,3.12,0,0,1-.79-2.23,3.23,3.23,0,0,1,.82-2.36,3,3,0,0,1,2.24-.85,2.68,2.68,0,0,1,2.09.82,3.29,3.29,0,0,1,.75,2.29,3.21,3.21,0,0,1-.81,2.3A2.82,2.82,0,0,1,170.63,27.22Zm.07-5.47a1.84,1.84,0,0,0-1.47.63,2.54,2.54,0,0,0-.54,1.73,2.41,2.41,0,0,0,.55,1.68,1.85,1.85,0,0,0,1.46.62,1.77,1.77,0,0,0,1.43-.6,2.67,2.67,0,0,0,.5-1.72,2.71,2.71,0,0,0-.5-1.74A1.77,1.77,0,0,0,170.7,21.75Z" fill="#1e1e1e"/>
      <path d="M179.44,27.08h-1v-.94h0a2,2,0,0,1-1.85,1.08,2,2,0,0,1-1.4-.48,1.62,1.62,0,0,1-.51-1.26q0-1.68,2-1.95l1.8-.26c0-1-.41-1.52-1.23-1.52a3,3,0,0,0-2,.73v-1a3.68,3.68,0,0,1,2-.56c1.41,0,2.11.74,2.11,2.23Zm-1-3-1.44.2a2.25,2.25,0,0,0-1,.33,1,1,0,0,0-.34.84.9.9,0,0,0,.31.72,1.2,1.2,0,0,0,.84.28,1.56,1.56,0,0,0,1.18-.5,1.8,1.8,0,0,0,.46-1.27Z" fill="#1e1e1e"/>
      <path d="M186.38,27.08h-1v-1h0a2.42,2.42,0,0,1-3.87.35,3.3,3.3,0,0,1-.68-2.19,3.62,3.62,0,0,1,.75-2.39,2.5,2.5,0,0,1,2-.89,1.91,1.91,0,0,1,1.8,1h0V18.19h1Zm-1-2.72v-.88a1.71,1.71,0,0,0-.48-1.23,1.58,1.58,0,0,0-1.22-.5,1.66,1.66,0,0,0-1.38.64,2.85,2.85,0,0,0-.5,1.78,2.56,2.56,0,0,0,.48,1.64,1.59,1.59,0,0,0,1.3.6,1.63,1.63,0,0,0,1.3-.58A2.15,2.15,0,0,0,185.41,24.36Z" fill="#1e1e1e"/>
      <path d="M192.59,26.21h0v.87h-1V18.19h1v3.94h0a2.27,2.27,0,0,1,2.08-1.19,2.19,2.19,0,0,1,1.8.8,3.32,3.32,0,0,1,.66,2.16,3.69,3.69,0,0,1-.74,2.41,2.4,2.4,0,0,1-2,.91A2,2,0,0,1,192.59,26.21Zm0-2.42v.84a1.8,1.8,0,0,0,.48,1.26,1.59,1.59,0,0,0,1.23.52,1.6,1.6,0,0,0,1.37-.67,3,3,0,0,0,.49-1.86,2.43,2.43,0,0,0-.46-1.57,1.53,1.53,0,0,0-1.25-.56,1.7,1.7,0,0,0-1.35.58A2.13,2.13,0,0,0,192.57,23.79Z" fill="#1e1e1e"/>
      <path d="M203,27.08h-1v-.94h0a2,2,0,0,1-1.84,1.08,2,2,0,0,1-1.41-.48,1.65,1.65,0,0,1-.5-1.26q0-1.68,2-1.95l1.8-.26c0-1-.42-1.52-1.24-1.52a3,3,0,0,0-2,.73v-1a3.68,3.68,0,0,1,2-.56c1.41,0,2.12.74,2.12,2.23Zm-1-3-1.45.2a2.3,2.3,0,0,0-1,.33,1,1,0,0,0-.34.84.93.93,0,0,0,.31.72,1.2,1.2,0,0,0,.84.28,1.55,1.55,0,0,0,1.18-.5,1.81,1.81,0,0,0,.47-1.27Z" fill="#1e1e1e"/>
      <path d="M205.73,27.08h-1V18.19h1Z" fill="#1e1e1e"/>
      <path d="M212,27.08h-1v-.94h0a2,2,0,0,1-1.84,1.08,1.93,1.93,0,0,1-1.4-.48,1.62,1.62,0,0,1-.51-1.26q0-1.68,2-1.95l1.8-.26c0-1-.41-1.52-1.24-1.52a3,3,0,0,0-2,.73v-1a3.68,3.68,0,0,1,2-.56c1.41,0,2.12.74,2.12,2.23Zm-1-3-1.45.2a2.35,2.35,0,0,0-1,.33,1,1,0,0,0-.34.84.9.9,0,0,0,.32.72,1.18,1.18,0,0,0,.83.28,1.55,1.55,0,0,0,1.18-.5,1.81,1.81,0,0,0,.47-1.27Z" fill="#1e1e1e"/>
      <path d="M218.76,27.08h-1V23.66c0-1.28-.47-1.91-1.4-1.91a1.52,1.52,0,0,0-1.19.54,2,2,0,0,0-.47,1.37v3.42h-1v-6h1v1h0a2.18,2.18,0,0,1,2-1.13,1.85,1.85,0,0,1,1.51.63,2.84,2.84,0,0,1,.52,1.84Z" fill="#1e1e1e"/>
      <path d="M224.66,26.8a3.1,3.1,0,0,1-1.64.42,2.69,2.69,0,0,1-2.07-.84,3,3,0,0,1-.79-2.16,3.3,3.3,0,0,1,.85-2.38,3,3,0,0,1,2.27-.9,3.09,3.09,0,0,1,1.39.29v1a2.44,2.44,0,0,0-1.43-.46,1.94,1.94,0,0,0-1.51.65,2.53,2.53,0,0,0-.59,1.74,2.38,2.38,0,0,0,.56,1.66,1.89,1.89,0,0,0,1.48.61,2.39,2.39,0,0,0,1.48-.52Z" fill="#1e1e1e"/>
      <path d="M230.94,24.32H226.7a2.16,2.16,0,0,0,.54,1.54,1.82,1.82,0,0,0,1.42.55,2.93,2.93,0,0,0,1.86-.67v.9a3.43,3.43,0,0,1-2.09.58,2.52,2.52,0,0,1-2-.82,3.36,3.36,0,0,1-.73-2.3,3.29,3.29,0,0,1,.8-2.28,2.53,2.53,0,0,1,2-.88,2.25,2.25,0,0,1,1.82.76,3.17,3.17,0,0,1,.65,2.11Zm-1-.82a2,2,0,0,0-.4-1.29,1.36,1.36,0,0,0-1.1-.46,1.55,1.55,0,0,0-1.15.48,2.25,2.25,0,0,0-.59,1.27Z" fill="#1e1e1e"/>
      <path d="M235.52,22.05a1.18,1.18,0,0,0-.73-.19,1.23,1.23,0,0,0-1,.58,2.7,2.7,0,0,0-.41,1.58v3.06h-1v-6h1v1.23h0a2.09,2.09,0,0,1,.63-1,1.42,1.42,0,0,1,.94-.36,1.75,1.75,0,0,1,.58.08Z" fill="#1e1e1e"/>
      <path d="M242.36,27.22a2.79,2.79,0,0,1-2.13-.84,3.12,3.12,0,0,1-.79-2.23,3.23,3.23,0,0,1,.82-2.36,3,3,0,0,1,2.24-.85,2.68,2.68,0,0,1,2.09.82,3.29,3.29,0,0,1,.75,2.29,3.21,3.21,0,0,1-.81,2.3A2.82,2.82,0,0,1,242.36,27.22Zm.07-5.47a1.84,1.84,0,0,0-1.47.63,2.54,2.54,0,0,0-.54,1.73,2.41,2.41,0,0,0,.55,1.68,1.85,1.85,0,0,0,1.46.62,1.77,1.77,0,0,0,1.43-.6,2.67,2.67,0,0,0,.5-1.72,2.71,2.71,0,0,0-.5-1.74A1.77,1.77,0,0,0,242.43,21.75Z" fill="#1e1e1e"/>
      <path d="M251.86,27.08h-1V23.66c0-1.28-.47-1.91-1.4-1.91a1.52,1.52,0,0,0-1.19.54,2,2,0,0,0-.47,1.37v3.42h-1v-6h1v1h0a2.18,2.18,0,0,1,2-1.13,1.85,1.85,0,0,1,1.51.63,2.84,2.84,0,0,1,.52,1.84Z" fill="#1e1e1e"/>
      <path d="M254.63,27.08h-1V18.19h1Z" fill="#1e1e1e"/>
      <path d="M261.35,21.08l-2.76,7q-.73,1.86-2.07,1.86a2.28,2.28,0,0,1-.63-.07V29a1.84,1.84,0,0,0,.57.11,1.18,1.18,0,0,0,1.09-.87l.48-1.13-2.34-6h1.06l1.63,4.61c0,.06.06.22.12.46h0c0-.09.06-.24.12-.44l1.71-4.63Z" fill="#1e1e1e"/>
      <path d="M262.41,29h-.86a7.75,7.75,0,0,0,1.83-5.13,7.91,7.91,0,0,0-1.84-5.19h.87a7.75,7.75,0,0,1,1.82,5.2A7.47,7.47,0,0,1,262.41,29Z" fill="#1e1e1e"/>
    </g>
    <g>
      <path d="M33,136.49H29.75v2.9h3v.89h-3V144h-1v-8.4H33Z" fill="#1e1e1e"/>
      <path d="M37.62,139a1.14,1.14,0,0,0-.72-.19,1.21,1.21,0,0,0-1,.58,2.64,2.64,0,0,0-.41,1.58V144h-1v-6h1v1.24h0a2.12,2.12,0,0,1,.63-1,1.54,1.54,0,0,1,1.51-.27Z" fill="#1e1e1e"/>
      <path d="M41.17,144.14a2.79,2.79,0,0,1-2.12-.84,3.1,3.1,0,0,1-.79-2.23,3.24,3.24,0,0,1,.82-2.36,3,3,0,0,1,2.24-.85,2.66,2.66,0,0,1,2.09.83,3.77,3.77,0,0,1-.06,4.59A2.85,2.85,0,0,1,41.17,144.14Zm.08-5.47a1.84,1.84,0,0,0-1.47.63,2.59,2.59,0,0,0-.54,1.74,2.41,2.41,0,0,0,.55,1.68,1.85,1.85,0,0,0,1.46.61,1.77,1.77,0,0,0,1.43-.6,3.23,3.23,0,0,0,0-3.45A1.74,1.74,0,0,0,41.25,138.67Z" fill="#1e1e1e"/>
      <path d="M50.68,144h-1v-3.42c0-1.28-.47-1.91-1.4-1.91a1.52,1.52,0,0,0-1.19.54,2,2,0,0,0-.47,1.37V144h-1v-6h1v1h0a2.17,2.17,0,0,1,2-1.14,1.83,1.83,0,0,1,1.51.64,2.79,2.79,0,0,1,.52,1.83Z" fill="#1e1e1e"/>
      <path d="M55.27,143.94a1.76,1.76,0,0,1-.89.19c-1.05,0-1.58-.59-1.58-1.76v-3.55h-1V138h1v-1.46l1-.32V138h1.51v.82H53.76v3.38a1.37,1.37,0,0,0,.21.86.81.81,0,0,0,.68.26,1,1,0,0,0,.62-.2Z" fill="#1e1e1e"/>
      <path d="M61.38,141.24H57.14a2.3,2.3,0,0,0,.54,1.55,1.87,1.87,0,0,0,1.42.54,2.91,2.91,0,0,0,1.86-.67v.91a3.5,3.5,0,0,1-2.09.57,2.53,2.53,0,0,1-2-.82,3.35,3.35,0,0,1-.72-2.3,3.28,3.28,0,0,1,.79-2.28,2.54,2.54,0,0,1,2-.88,2.24,2.24,0,0,1,1.82.76,3.18,3.18,0,0,1,.65,2.12Zm-1-.81a1.91,1.91,0,0,0-.4-1.3,1.36,1.36,0,0,0-1.1-.46,1.56,1.56,0,0,0-1.15.48,2.25,2.25,0,0,0-.59,1.28Z" fill="#1e1e1e"/>
      <path d="M67.81,144h-1v-3.42c0-1.28-.46-1.91-1.39-1.91a1.54,1.54,0,0,0-1.2.54,2,2,0,0,0-.47,1.37V144h-1v-6h1v1h0a2.15,2.15,0,0,1,2-1.14,1.83,1.83,0,0,1,1.51.64,2.79,2.79,0,0,1,.52,1.83Z" fill="#1e1e1e"/>
      <path d="M74.74,144h-1v-1h0a2.42,2.42,0,0,1-3.87.35,3.28,3.28,0,0,1-.68-2.19,3.57,3.57,0,0,1,.75-2.38,2.48,2.48,0,0,1,2-.9,1.93,1.93,0,0,1,1.8,1h0v-3.71h1Zm-1-2.71v-.89a1.73,1.73,0,0,0-.48-1.23,1.62,1.62,0,0,0-1.22-.5,1.66,1.66,0,0,0-1.38.64,2.81,2.81,0,0,0-.5,1.78,2.54,2.54,0,0,0,.48,1.64,1.57,1.57,0,0,0,1.3.6,1.63,1.63,0,0,0,1.3-.58A2.11,2.11,0,0,0,73.78,141.29Z" fill="#1e1e1e"/>
      <path d="M77,139.17a.62.62,0,0,1-.46-.19.66.66,0,0,1-.19-.46.64.64,0,0,1,.19-.46.62.62,0,0,1,.46-.19.63.63,0,0,1,.47.19.6.6,0,0,1,.19.46.62.62,0,0,1-.19.46A.63.63,0,0,1,77,139.17Zm0,5a.66.66,0,0,1-.46-.19.68.68,0,0,1-.19-.47.66.66,0,0,1,.19-.46.64.64,0,0,1,.93,0,.62.62,0,0,1,.19.46.64.64,0,0,1-.19.47A.67.67,0,0,1,77,144.13Z" fill="#1e1e1e"/>
      <path d="M83.69,140.82V144h-1v-8.4H85a3.08,3.08,0,0,1,2.09.65,2.34,2.34,0,0,1,.74,1.86,2.54,2.54,0,0,1-.82,1.95,3.13,3.13,0,0,1-2.22.76Zm0-4.33v3.44h1a2.32,2.32,0,0,0,1.56-.46,1.67,1.67,0,0,0,.53-1.32c0-1.11-.65-1.66-2-1.66Z" fill="#1e1e1e"/>
      <path d="M91.36,144.14a2.77,2.77,0,0,1-2.12-.84,3.11,3.11,0,0,1-.8-2.23,3.25,3.25,0,0,1,.83-2.36,3,3,0,0,1,2.23-.85,2.68,2.68,0,0,1,2.1.83,3.77,3.77,0,0,1-.06,4.59A2.87,2.87,0,0,1,91.36,144.14Zm.07-5.47a1.81,1.81,0,0,0-1.46.63,2.59,2.59,0,0,0-.54,1.74,2.46,2.46,0,0,0,.54,1.68,1.86,1.86,0,0,0,1.46.61,1.75,1.75,0,0,0,1.43-.6,3.23,3.23,0,0,0,0-3.45A1.73,1.73,0,0,0,91.43,138.67Z" fill="#1e1e1e"/>
      <path d="M99,139a1.16,1.16,0,0,0-.72-.19,1.21,1.21,0,0,0-1,.58,2.64,2.64,0,0,0-.42,1.58V144h-1v-6h1v1.24h0a2,2,0,0,1,.63-1A1.54,1.54,0,0,1,99,138Z" fill="#1e1e1e"/>
      <path d="M102.84,143.94a1.82,1.82,0,0,1-.9.19c-1,0-1.57-.59-1.57-1.76v-3.55h-1V138h1v-1.46l1-.32V138h1.51v.82h-1.51v3.38a1.45,1.45,0,0,0,.2.86.84.84,0,0,0,.68.26,1.05,1.05,0,0,0,.63-.2Z" fill="#1e1e1e"/>
      <path d="M114,144H113l-.89-2.36H108.5l-.84,2.36h-1.09l3.22-8.4h1Zm-2.3-3.24-1.32-3.58a4.87,4.87,0,0,1-.13-.56h0a3.23,3.23,0,0,1-.14.56l-1.3,3.58Z" fill="#1e1e1e"/>
      <path d="M116.11,144h-1v-8.88h1Z" fill="#1e1e1e"/>
      <path d="M119,144h-1v-8.88h1Z" fill="#1e1e1e"/>
    </g>
    <g>
      <path d="M258.65,144v-8.4h2.4a2.62,2.62,0,0,1,1.72.53,1.72,1.72,0,0,1,.64,1.39,2.07,2.07,0,0,1-.38,1.24,2.14,2.14,0,0,1-1.07.75v0a2.1,2.1,0,0,1,1.36.64,2,2,0,0,1,.51,1.41,2.18,2.18,0,0,1-.78,1.74,2.84,2.84,0,0,1-1.95.67Zm1-7.51v2.71h1a1.91,1.91,0,0,0,1.27-.39,1.34,1.34,0,0,0,.46-1.1c0-.81-.54-1.22-1.61-1.22Zm0,3.6v3H261a2,2,0,0,0,1.35-.41,1.4,1.4,0,0,0,.48-1.13c0-1-.68-1.48-2-1.48Z" fill="#1e1e1e"/>
      <path d="M269.7,144h-1v-.94h0a2,2,0,0,1-1.84,1.08,2,2,0,0,1-1.4-.47,1.65,1.65,0,0,1-.51-1.26c0-1.12.66-1.78,2-2l1.8-.25c0-1-.41-1.53-1.24-1.53a2.9,2.9,0,0,0-1.95.74v-1a3.7,3.7,0,0,1,2-.56c1.41,0,2.12.75,2.12,2.24Zm-1-3-1.45.2a2.48,2.48,0,0,0-1,.34,1,1,0,0,0-.34.84.9.9,0,0,0,.32.71,1.18,1.18,0,0,0,.83.28,1.51,1.51,0,0,0,1.18-.5,1.8,1.8,0,0,0,.47-1.27Z" fill="#1e1e1e"/>
      <path d="M275.6,143.72a3.1,3.1,0,0,1-1.64.42,2.72,2.72,0,0,1-2.07-.83,3,3,0,0,1-.79-2.17,3.3,3.3,0,0,1,.85-2.38,3,3,0,0,1,2.27-.9,3.23,3.23,0,0,1,1.39.29v1a2.38,2.38,0,0,0-1.43-.47,2,2,0,0,0-1.51.66,2.5,2.5,0,0,0-.59,1.73,2.36,2.36,0,0,0,.56,1.66,1.89,1.89,0,0,0,1.48.61,2.39,2.39,0,0,0,1.48-.52Z" fill="#1e1e1e"/>
      <path d="M282,144h-1.34L278,141.12h0V144h-1v-8.88h1v5.63h0l2.52-2.75h1.26L279,140.89Z" fill="#1e1e1e"/>
      <path d="M287.84,141.24H283.6a2.3,2.3,0,0,0,.54,1.55,1.88,1.88,0,0,0,1.42.54,2.89,2.89,0,0,0,1.86-.67v.91a3.47,3.47,0,0,1-2.09.57,2.53,2.53,0,0,1-2-.82,3.35,3.35,0,0,1-.72-2.3,3.28,3.28,0,0,1,.79-2.28,2.54,2.54,0,0,1,2-.88,2.26,2.26,0,0,1,1.83.76,3.18,3.18,0,0,1,.64,2.12Zm-1-.81a2,2,0,0,0-.41-1.3,1.35,1.35,0,0,0-1.09-.46,1.57,1.57,0,0,0-1.16.48,2.18,2.18,0,0,0-.58,1.28Z" fill="#1e1e1e"/>
      <path d="M294.27,144h-1v-3.42c0-1.28-.46-1.91-1.39-1.91a1.5,1.5,0,0,0-1.19.54,2,2,0,0,0-.48,1.37V144h-1v-6h1v1h0a2.16,2.16,0,0,1,2-1.14,1.82,1.82,0,0,1,1.5.64,2.79,2.79,0,0,1,.52,1.83Z" fill="#1e1e1e"/>
      <path d="M301.21,144h-1v-1h0a2.42,2.42,0,0,1-3.87.35,3.28,3.28,0,0,1-.68-2.19,3.57,3.57,0,0,1,.75-2.38,2.48,2.48,0,0,1,2-.9,1.91,1.91,0,0,1,1.8,1h0v-3.71h1Zm-1-2.71v-.89a1.73,1.73,0,0,0-.48-1.23,1.61,1.61,0,0,0-1.21-.5,1.67,1.67,0,0,0-1.39.64,2.87,2.87,0,0,0-.5,1.78,2.54,2.54,0,0,0,.48,1.64,1.59,1.59,0,0,0,1.3.6,1.63,1.63,0,0,0,1.3-.58A2.11,2.11,0,0,0,300.24,141.29Z" fill="#1e1e1e"/>
      <path d="M303.48,139.17A.62.62,0,0,1,303,139a.66.66,0,0,1-.19-.46.64.64,0,0,1,.19-.46.62.62,0,0,1,.46-.19.63.63,0,0,1,.47.19.61.61,0,0,1,.2.46.67.67,0,0,1-.67.65Zm0,5a.66.66,0,0,1-.46-.19.68.68,0,0,1-.19-.47A.66.66,0,0,1,303,143a.67.67,0,0,1,1.13.46.65.65,0,0,1-.2.47A.67.67,0,0,1,303.48,144.13Z" fill="#1e1e1e"/>
      <path d="M310.15,140.82V144h-1v-8.4h2.31a3.09,3.09,0,0,1,2.09.65,2.37,2.37,0,0,1,.74,1.86,2.55,2.55,0,0,1-.83,1.95,3.13,3.13,0,0,1-2.22.76Zm0-4.33v3.44h1a2.32,2.32,0,0,0,1.56-.46,1.65,1.65,0,0,0,.54-1.32c0-1.11-.66-1.66-2-1.66Z" fill="#1e1e1e"/>
      <path d="M317.82,144.14a2.79,2.79,0,0,1-2.12-.84,3.11,3.11,0,0,1-.8-2.23,3.25,3.25,0,0,1,.83-2.36,3,3,0,0,1,2.23-.85,2.66,2.66,0,0,1,2.1.83,3.77,3.77,0,0,1-.06,4.59A2.87,2.87,0,0,1,317.82,144.14Zm.07-5.47a1.83,1.83,0,0,0-1.46.63,2.59,2.59,0,0,0-.54,1.74,2.46,2.46,0,0,0,.54,1.68,1.86,1.86,0,0,0,1.46.61,1.79,1.79,0,0,0,1.44-.6,3.23,3.23,0,0,0,0-3.45A1.76,1.76,0,0,0,317.89,138.67Z" fill="#1e1e1e"/>
      <path d="M325.47,139a1.14,1.14,0,0,0-.72-.19,1.23,1.23,0,0,0-1,.58,2.64,2.64,0,0,0-.41,1.58V144h-1v-6h1v1.24h0a2.12,2.12,0,0,1,.63-1,1.54,1.54,0,0,1,1.51-.27Z" fill="#1e1e1e"/>
      <path d="M329.3,143.94a1.8,1.8,0,0,1-.9.19c-1,0-1.57-.59-1.57-1.76v-3.55h-1V138h1v-1.46l1-.32V138h1.51v.82h-1.51v3.38a1.45,1.45,0,0,0,.2.86.84.84,0,0,0,.68.26,1,1,0,0,0,.63-.2Z" fill="#1e1e1e"/>
      <path d="M340.5,144h-1.09l-.89-2.36H335l-.84,2.36H333l3.22-8.4h1Zm-2.3-3.24-1.32-3.58a4.87,4.87,0,0,1-.13-.56h0a3.36,3.36,0,0,1-.13.56l-1.31,3.58Z" fill="#1e1e1e"/>
      <path d="M342.57,144h-1v-8.88h1Z" fill="#1e1e1e"/>
      <path d="M345.48,144h-1v-8.88h1Z" fill="#1e1e1e"/>
    </g>
    <g>
      <path d="M258.65,224.71v-8.4h2.4a2.57,2.57,0,0,1,1.72.53,1.71,1.71,0,0,1,.64,1.39,2.1,2.1,0,0,1-.38,1.24,2.14,2.14,0,0,1-1.07.75v0a2.15,2.15,0,0,1,1.36.64,2,2,0,0,1,.51,1.41,2.2,2.2,0,0,1-.78,1.75,2.88,2.88,0,0,1-1.95.67Zm1-7.51v2.71h1a1.91,1.91,0,0,0,1.27-.39,1.36,1.36,0,0,0,.46-1.1c0-.82-.54-1.22-1.61-1.22Zm0,3.59v3H261a2,2,0,0,0,1.35-.41,1.42,1.42,0,0,0,.48-1.13c0-1-.68-1.49-2-1.49Z" fill="#1e1e1e"/>
      <path d="M269.7,224.71h-1v-.94h0a2,2,0,0,1-1.84,1.08,1.93,1.93,0,0,1-1.4-.48,1.62,1.62,0,0,1-.51-1.26q0-1.68,2-2l1.8-.26c0-1-.41-1.52-1.24-1.52a2.94,2.94,0,0,0-1.95.73v-1a3.62,3.62,0,0,1,2-.56c1.41,0,2.12.74,2.12,2.24Zm-1-3-1.45.2a2.35,2.35,0,0,0-1,.33,1,1,0,0,0-.34.84.9.9,0,0,0,.32.72,1.18,1.18,0,0,0,.83.28,1.55,1.55,0,0,0,1.18-.5,1.81,1.81,0,0,0,.47-1.27Z" fill="#1e1e1e"/>
      <path d="M275.6,224.43a3.1,3.1,0,0,1-1.64.42,2.69,2.69,0,0,1-2.07-.84,3,3,0,0,1-.79-2.16,3.3,3.3,0,0,1,.85-2.38,3,3,0,0,1,2.27-.9,3.09,3.09,0,0,1,1.39.29v1a2.44,2.44,0,0,0-1.43-.46,2,2,0,0,0-1.51.65,2.53,2.53,0,0,0-.59,1.74,2.38,2.38,0,0,0,.56,1.66,1.89,1.89,0,0,0,1.48.61,2.39,2.39,0,0,0,1.48-.52Z" fill="#1e1e1e"/>
      <path d="M282,224.71h-1.34L278,221.82h0v2.89h-1v-8.89h1v5.64h0l2.52-2.75h1.26L279,221.6Z" fill="#1e1e1e"/>
      <path d="M287.84,222H283.6a2.26,2.26,0,0,0,.54,1.54,1.85,1.85,0,0,0,1.42.55,2.89,2.89,0,0,0,1.86-.67v.9a3.41,3.41,0,0,1-2.09.58,2.53,2.53,0,0,1-2-.82,3.35,3.35,0,0,1-.72-2.3,3.28,3.28,0,0,1,.79-2.28,2.54,2.54,0,0,1,2-.88,2.26,2.26,0,0,1,1.83.76,3.17,3.17,0,0,1,.64,2.11Zm-1-.82a2,2,0,0,0-.41-1.29,1.35,1.35,0,0,0-1.09-.46,1.57,1.57,0,0,0-1.16.48,2.18,2.18,0,0,0-.58,1.27Z" fill="#1e1e1e"/>
      <path d="M294.27,224.71h-1v-3.42c0-1.28-.46-1.91-1.39-1.91a1.5,1.5,0,0,0-1.19.54,2,2,0,0,0-.48,1.37v3.42h-1v-6h1v1h0a2.17,2.17,0,0,1,2-1.13,1.84,1.84,0,0,1,1.5.63,2.84,2.84,0,0,1,.52,1.84Z" fill="#1e1e1e"/>
      <path d="M301.21,224.71h-1v-1h0a2.42,2.42,0,0,1-3.87.35,3.3,3.3,0,0,1-.68-2.19,3.62,3.62,0,0,1,.75-2.39,2.5,2.5,0,0,1,2-.89,1.91,1.91,0,0,1,1.8,1h0v-3.72h1Zm-1-2.72v-.88a1.73,1.73,0,0,0-.48-1.23,1.58,1.58,0,0,0-1.21-.5,1.67,1.67,0,0,0-1.39.64,2.85,2.85,0,0,0-.5,1.78,2.56,2.56,0,0,0,.48,1.64,1.59,1.59,0,0,0,1.3.6,1.63,1.63,0,0,0,1.3-.58A2.15,2.15,0,0,0,300.24,222Z" fill="#1e1e1e"/>
      <path d="M303.48,219.88a.66.66,0,0,1-.46-.19.68.68,0,0,1-.19-.47.65.65,0,0,1,.65-.64.63.63,0,0,1,.47.19.59.59,0,0,1,.2.45.65.65,0,0,1-.2.47A.67.67,0,0,1,303.48,219.88Zm0,5a.63.63,0,0,1-.46-.2.66.66,0,0,1-.19-.46.7.7,0,0,1,.19-.47.62.62,0,0,1,.46-.19.63.63,0,0,1,.47.19.67.67,0,0,1,.2.47.68.68,0,0,1-.67.66Z" fill="#1e1e1e"/>
      <path d="M310.15,221.53v3.18h-1v-8.4h2.31a3,3,0,0,1,2.09.65,2.37,2.37,0,0,1,.74,1.85,2.55,2.55,0,0,1-.83,2,3.13,3.13,0,0,1-2.22.76Zm0-4.33v3.44h1a2.32,2.32,0,0,0,1.56-.46,1.66,1.66,0,0,0,.54-1.32c0-1.11-.66-1.66-2-1.66Z" fill="#1e1e1e"/>
      <path d="M317.82,224.85a2.79,2.79,0,0,1-2.12-.84,3.12,3.12,0,0,1-.8-2.23,3.23,3.23,0,0,1,.83-2.36,3,3,0,0,1,2.23-.85,2.69,2.69,0,0,1,2.1.82,3.29,3.29,0,0,1,.75,2.29A3.21,3.21,0,0,1,320,224,2.84,2.84,0,0,1,317.82,224.85Zm.07-5.47a1.83,1.83,0,0,0-1.46.63,2.56,2.56,0,0,0-.54,1.73,2.46,2.46,0,0,0,.54,1.68,1.87,1.87,0,0,0,1.46.62,1.79,1.79,0,0,0,1.44-.6,2.67,2.67,0,0,0,.5-1.72,2.71,2.71,0,0,0-.5-1.74A1.79,1.79,0,0,0,317.89,219.38Z" fill="#1e1e1e"/>
      <path d="M325.47,219.68a1.14,1.14,0,0,0-.72-.19,1.23,1.23,0,0,0-1,.58,2.62,2.62,0,0,0-.41,1.58v3.06h-1v-6h1v1.23h0a2.09,2.09,0,0,1,.63-1,1.4,1.4,0,0,1,.94-.36,1.65,1.65,0,0,1,.57.08Z" fill="#1e1e1e"/>
      <path d="M329.3,224.65a1.91,1.91,0,0,1-.9.19c-1,0-1.57-.59-1.57-1.76v-3.55h-1v-.82h1v-1.47l1-.31v1.78h1.51v.82h-1.51v3.38a1.45,1.45,0,0,0,.2.86.84.84,0,0,0,.68.26,1,1,0,0,0,.63-.2Z" fill="#1e1e1e"/>
      <path d="M340.5,224.71h-1.09l-.89-2.36H335l-.84,2.36H333l3.22-8.4h1Zm-2.3-3.24-1.32-3.58a5.16,5.16,0,0,1-.13-.57h0a3.51,3.51,0,0,1-.13.57l-1.31,3.58Z" fill="#1e1e1e"/>
      <path d="M342.57,224.71h-1v-8.89h1Z" fill="#1e1e1e"/>
      <path d="M345.48,224.71h-1v-8.89h1Z" fill="#1e1e1e"/>
    </g>
    <g>
      <path d="M258.65,67.33v-8.4h2.4a2.62,2.62,0,0,1,1.72.53,1.72,1.72,0,0,1,.64,1.39,2.07,2.07,0,0,1-.38,1.24,2,2,0,0,1-1.07.75v0a2.1,2.1,0,0,1,1.36.64,2,2,0,0,1,.51,1.41,2.17,2.17,0,0,1-.78,1.74,2.84,2.84,0,0,1-1.95.67Zm1-7.51v2.71h1a1.91,1.91,0,0,0,1.27-.39,1.34,1.34,0,0,0,.46-1.09c0-.82-.54-1.23-1.61-1.23Zm0,3.6v3H261a2,2,0,0,0,1.35-.41,1.4,1.4,0,0,0,.48-1.12c0-1-.68-1.49-2-1.49Z" fill="#1e1e1e"/>
      <path d="M269.7,67.33h-1V66.4h0a2,2,0,0,1-1.84,1.07,2,2,0,0,1-1.4-.47,1.65,1.65,0,0,1-.51-1.26c0-1.12.66-1.77,2-2l1.8-.25c0-1-.41-1.53-1.24-1.53a3,3,0,0,0-1.95.74v-1a3.7,3.7,0,0,1,2-.56c1.41,0,2.12.75,2.12,2.24Zm-1-3-1.45.2a2.35,2.35,0,0,0-1,.33,1,1,0,0,0-.34.84.93.93,0,0,0,.32.72,1.22,1.22,0,0,0,.83.27,1.51,1.51,0,0,0,1.18-.5,1.77,1.77,0,0,0,.47-1.26Z" fill="#1e1e1e"/>
      <path d="M275.6,67.06a3.19,3.19,0,0,1-1.64.41,2.72,2.72,0,0,1-2.07-.83,3,3,0,0,1-.79-2.17,3.3,3.3,0,0,1,.85-2.38,3,3,0,0,1,2.27-.9,3.23,3.23,0,0,1,1.39.29v1a2.45,2.45,0,0,0-1.43-.47,2,2,0,0,0-1.51.66,2.52,2.52,0,0,0-.59,1.73,2.41,2.41,0,0,0,.56,1.67,1.91,1.91,0,0,0,1.48.6,2.39,2.39,0,0,0,1.48-.52Z" fill="#1e1e1e"/>
      <path d="M282,67.33h-1.34L278,64.45h0v2.88h-1V58.45h1v5.63h0l2.52-2.75h1.26L279,64.23Z" fill="#1e1e1e"/>
      <path d="M287.84,64.57H283.6a2.28,2.28,0,0,0,.54,1.55,1.88,1.88,0,0,0,1.42.54,2.94,2.94,0,0,0,1.86-.66v.9a3.47,3.47,0,0,1-2.09.57,2.56,2.56,0,0,1-2-.81,3.39,3.39,0,0,1-.72-2.3,3.29,3.29,0,0,1,.79-2.29,2.58,2.58,0,0,1,2-.88,2.29,2.29,0,0,1,1.83.76,3.19,3.19,0,0,1,.64,2.12Zm-1-.81a2,2,0,0,0-.41-1.3,1.35,1.35,0,0,0-1.09-.46,1.54,1.54,0,0,0-1.16.49,2.12,2.12,0,0,0-.58,1.27Z" fill="#1e1e1e"/>
      <path d="M294.27,67.33h-1V63.91c0-1.27-.46-1.91-1.39-1.91a1.5,1.5,0,0,0-1.19.54,2,2,0,0,0-.48,1.37v3.42h-1v-6h1v1h0a2.16,2.16,0,0,1,2-1.14,1.82,1.82,0,0,1,1.5.64,2.79,2.79,0,0,1,.52,1.83Z" fill="#1e1e1e"/>
      <path d="M301.21,67.33h-1v-1h0a2.2,2.2,0,0,1-2.06,1.16,2.25,2.25,0,0,1-1.81-.8,3.33,3.33,0,0,1-.68-2.2,3.59,3.59,0,0,1,.75-2.38,2.48,2.48,0,0,1,2-.9,1.93,1.93,0,0,1,1.8,1h0V58.45h1Zm-1-2.71v-.89a1.73,1.73,0,0,0-.48-1.23,1.61,1.61,0,0,0-1.21-.5,1.68,1.68,0,0,0-1.39.65,2.83,2.83,0,0,0-.5,1.78,2.53,2.53,0,0,0,.48,1.63,1.59,1.59,0,0,0,1.3.6,1.63,1.63,0,0,0,1.3-.58A2.11,2.11,0,0,0,300.24,64.62Z" fill="#1e1e1e"/>
      <path d="M303.48,62.5a.62.62,0,0,1-.46-.19.65.65,0,0,1,.93-.92.65.65,0,0,1-.47,1.11Zm0,5a.62.62,0,0,1-.46-.19.66.66,0,0,1,0-.93.64.64,0,0,1,.93,0,.64.64,0,0,1,0,.93A.63.63,0,0,1,303.48,67.46Z" fill="#1e1e1e"/>
      <path d="M310.15,64.16v3.17h-1v-8.4h2.31a3,3,0,0,1,2.09.66,2.34,2.34,0,0,1,.74,1.85,2.57,2.57,0,0,1-.83,2,3.18,3.18,0,0,1-2.22.76Zm0-4.34v3.45h1a2.33,2.33,0,0,0,1.56-.47,1.65,1.65,0,0,0,.54-1.32c0-1.1-.66-1.66-2-1.66Z" fill="#1e1e1e"/>
      <path d="M317.82,67.47a2.79,2.79,0,0,1-2.12-.84,3.11,3.11,0,0,1-.8-2.23,3.26,3.26,0,0,1,.83-2.36,3,3,0,0,1,2.23-.85,2.7,2.7,0,0,1,2.1.83,3.27,3.27,0,0,1,.75,2.29,3.23,3.23,0,0,1-.81,2.3A2.83,2.83,0,0,1,317.82,67.47Zm.07-5.47a1.83,1.83,0,0,0-1.46.63,2.59,2.59,0,0,0-.54,1.74,2.46,2.46,0,0,0,.54,1.68,1.86,1.86,0,0,0,1.46.61,1.79,1.79,0,0,0,1.44-.6,2.63,2.63,0,0,0,.5-1.72,2.68,2.68,0,0,0-.5-1.73A1.76,1.76,0,0,0,317.89,62Z" fill="#1e1e1e"/>
      <path d="M325.47,62.31a1.14,1.14,0,0,0-.72-.2,1.25,1.25,0,0,0-1,.58,2.67,2.67,0,0,0-.41,1.58v3.06h-1v-6h1v1.24h0a2.17,2.17,0,0,1,.63-1,1.61,1.61,0,0,1,1.51-.27Z" fill="#1e1e1e"/>
      <path d="M329.3,67.27a1.8,1.8,0,0,1-.9.19c-1,0-1.57-.58-1.57-1.76V62.15h-1v-.82h1V59.87l1-.31v1.77h1.51v.82h-1.51v3.38a1.49,1.49,0,0,0,.2.87.83.83,0,0,0,.68.25,1,1,0,0,0,.63-.2Z" fill="#1e1e1e"/>
      <path d="M340.5,67.33h-1.09L338.52,65H335l-.84,2.35H333l3.22-8.4h1Zm-2.3-3.24-1.32-3.58a4.39,4.39,0,0,1-.13-.56h0a3.13,3.13,0,0,1-.13.56l-1.31,3.58Z" fill="#1e1e1e"/>
      <path d="M342.57,67.33h-1V58.45h1Z" fill="#1e1e1e"/>
      <path d="M345.48,67.33h-1V58.45h1Z" fill="#1e1e1e"/>
    </g>
    <g>
      <path d="M122.12,172.62h-2.06l-.6-1.87h-3l-.59,1.87h-2l3.06-8.41h2.24ZM119,169.29l-.9-2.82a3,3,0,0,1-.14-.76h0a3.14,3.14,0,0,1-.15.74l-.91,2.84Z" fill="#1e1e1e"/>
      <path d="M127.74,172.62h-5.38v-.77l3-3.87h-2.71v-1.36h5.06v.91l-2.86,3.72h2.88Z" fill="#1e1e1e"/>
      <path d="M134.44,172.62h-1.85v-.92h0a2.07,2.07,0,0,1-1.83,1.06c-1.39,0-2.09-.84-2.09-2.52v-3.62h1.85v3.45c0,.85.34,1.28,1,1.28a1,1,0,0,0,.79-.35,1.42,1.42,0,0,0,.3-.95v-3.43h1.85Z" fill="#1e1e1e"/>
      <path d="M139.91,168.29a1.61,1.61,0,0,0-.78-.18,1.11,1.11,0,0,0-.94.44,1.88,1.88,0,0,0-.34,1.2v2.87H136v-6h1.85v1.11h0a1.61,1.61,0,0,1,1.58-1.22,1.35,1.35,0,0,1,.46.07Z" fill="#1e1e1e"/>
      <path d="M146.12,170.14H142.2c.07.88.61,1.31,1.65,1.31a3.24,3.24,0,0,0,1.74-.47v1.34a4.56,4.56,0,0,1-2.16.44,3,3,0,0,1-2.26-.8,3.08,3.08,0,0,1-.8-2.25,3.22,3.22,0,0,1,.87-2.37,2.88,2.88,0,0,1,2.13-.87,2.63,2.63,0,0,1,2,.78,3,3,0,0,1,.72,2.12ZM144.4,169c0-.86-.35-1.29-1-1.29a1,1,0,0,0-.77.37,1.65,1.65,0,0,0-.4.92Z" fill="#1e1e1e"/>
      <path d="M155.71,172.62h-5v-8.41h1.89v6.87h3.11Z" fill="#1e1e1e"/>
      <path d="M159.52,172.76a3.24,3.24,0,0,1-2.36-.84,3.49,3.49,0,0,1,0-4.61,3.35,3.35,0,0,1,2.41-.84,3.19,3.19,0,0,1,2.34.84,3,3,0,0,1,.85,2.23,3.16,3.16,0,0,1-.88,2.36A3.28,3.28,0,0,1,159.52,172.76Zm0-4.87a1.23,1.23,0,0,0-1,.45,2,2,0,0,0-.36,1.28c0,1.15.46,1.73,1.39,1.73s1.33-.6,1.33-1.78S160.46,167.89,159.57,167.89Z" fill="#1e1e1e"/>
      <path d="M168.87,172.62h-1.75v-.86h0a2,2,0,0,1-1.79,1,1.85,1.85,0,0,1-1.37-.49,1.75,1.75,0,0,1-.5-1.32c0-1.17.69-1.84,2.07-2l1.62-.22c0-.65-.35-1-1.06-1a3.59,3.59,0,0,0-2,.64V167a4.67,4.67,0,0,1,1.06-.35,5.56,5.56,0,0,1,1.22-.15,2.26,2.26,0,0,1,2.56,2.56Zm-1.74-2.44v-.4l-1.09.14c-.6.07-.9.35-.9.81a.71.71,0,0,0,.22.52.89.89,0,0,0,.6.2,1.11,1.11,0,0,0,.85-.36A1.28,1.28,0,0,0,167.13,170.18Z" fill="#1e1e1e"/>
      <path d="M176.21,172.62h-1.85v-.83h0a2.09,2.09,0,0,1-1.86,1,2.26,2.26,0,0,1-1.81-.79,3.28,3.28,0,0,1-.69-2.22,3.52,3.52,0,0,1,.76-2.38,2.45,2.45,0,0,1,2-.9,1.7,1.7,0,0,1,1.62.83h0v-3.57h1.85Zm-1.82-2.92v-.45a1.38,1.38,0,0,0-.34-1,1.1,1.1,0,0,0-.88-.39,1.12,1.12,0,0,0-1,.48,2.26,2.26,0,0,0-.35,1.33,1.91,1.91,0,0,0,.34,1.22,1.12,1.12,0,0,0,.92.43,1.1,1.1,0,0,0,.92-.46A1.83,1.83,0,0,0,174.39,169.7Z" fill="#1e1e1e"/>
      <path d="M122.19,185.82v-8.4h3.06a3.83,3.83,0,0,1,2.16.51,1.67,1.67,0,0,1,.76,1.45,1.74,1.74,0,0,1-.46,1.19,2.41,2.41,0,0,1-1.18.71v0A2.26,2.26,0,0,1,128,182a1.82,1.82,0,0,1,.54,1.34,2.22,2.22,0,0,1-.83,1.83,3.45,3.45,0,0,1-2.25.68Zm1.89-7v2h.83a1.4,1.4,0,0,0,.93-.28,1,1,0,0,0,.33-.78q0-.93-1.38-.93Zm0,3.4v2.21h1a1.6,1.6,0,0,0,1-.3,1,1,0,0,0,.37-.83.93.93,0,0,0-.37-.79,1.55,1.55,0,0,0-1-.29Z" fill="#1e1e1e"/>
      <path d="M134.69,185.82h-1.75V185h0a2,2,0,0,1-1.79,1,1.85,1.85,0,0,1-1.37-.49,1.75,1.75,0,0,1-.5-1.32c0-1.17.69-1.84,2.06-2l1.63-.21c0-.66-.35-1-1.06-1a3.59,3.59,0,0,0-2,.64v-1.4a4.67,4.67,0,0,1,1.06-.35,5.56,5.56,0,0,1,1.22-.15,2.26,2.26,0,0,1,2.56,2.56ZM133,183.38V183l-1.09.14c-.6.07-.9.35-.9.81a.67.67,0,0,0,.22.52.89.89,0,0,0,.6.2,1.11,1.11,0,0,0,.85-.36A1.33,1.33,0,0,0,133,183.38Z" fill="#1e1e1e"/>
      <path d="M138,185.82h-1.85v-8.89H138Z" fill="#1e1e1e"/>
      <path d="M144.56,185.82h-1.75V185h0a2,2,0,0,1-1.79,1,1.89,1.89,0,0,1-1.38-.49,1.79,1.79,0,0,1-.5-1.32c0-1.17.69-1.84,2.07-2l1.63-.21c0-.66-.35-1-1.07-1a3.58,3.58,0,0,0-2,.64v-1.4a4.57,4.57,0,0,1,1.05-.35,5.7,5.7,0,0,1,1.22-.15,2.26,2.26,0,0,1,2.57,2.56Zm-1.74-2.44V183l-1.09.14c-.6.07-.9.35-.9.81a.67.67,0,0,0,.22.52.84.84,0,0,0,.59.2,1.1,1.1,0,0,0,.85-.36A1.29,1.29,0,0,0,142.82,183.38Z" fill="#1e1e1e"/>
      <path d="M151.82,185.82H150v-3.34c0-.93-.34-1.39-1-1.39a1,1,0,0,0-.79.37,1.38,1.38,0,0,0-.31.94v3.42H146v-6h1.85v1h0a2.13,2.13,0,0,1,1.93-1.1c1.33,0,2,.83,2,2.47Z" fill="#1e1e1e"/>
      <path d="M157.83,185.6A3.69,3.69,0,0,1,156,186a3.1,3.1,0,0,1-2.24-.83,2.9,2.9,0,0,1-.85-2.17,3.16,3.16,0,0,1,.92-2.41,3.36,3.36,0,0,1,2.45-.88,3.1,3.1,0,0,1,1.53.28v1.57a2.09,2.09,0,0,0-1.29-.43,1.7,1.7,0,0,0-1.26.46,2,2,0,0,0,0,2.54,1.67,1.67,0,0,0,1.23.46,2.43,2.43,0,0,0,1.35-.44Z" fill="#1e1e1e"/>
      <path d="M164.44,183.34h-3.92c.06.88.61,1.31,1.65,1.31a3.15,3.15,0,0,0,1.74-.47v1.34a4.56,4.56,0,0,1-2.16.44,3,3,0,0,1-2.26-.8,3.08,3.08,0,0,1-.8-2.25,3.23,3.23,0,0,1,.87-2.37,2.87,2.87,0,0,1,2.13-.87,2.63,2.63,0,0,1,2,.78,3,3,0,0,1,.72,2.12Zm-1.72-1.13c0-.86-.35-1.29-1-1.29a1,1,0,0,0-.77.37,1.65,1.65,0,0,0-.4.92Z" fill="#1e1e1e"/>
      <path d="M169.45,181.49a1.61,1.61,0,0,0-.78-.18,1.11,1.11,0,0,0-.94.44,1.88,1.88,0,0,0-.34,1.2v2.87h-1.85v-6h1.85v1.11h0a1.61,1.61,0,0,1,1.58-1.22,1.35,1.35,0,0,1,.46.07Z" fill="#1e1e1e"/>
    </g>
  </g>
</svg>
