<svg id="Logos" xmlns="http://www.w3.org/2000/svg" viewBox="0 0 64 64">
  <defs>
    <style>
      .cls-1 {
        fill: #00599c;
      }

      .cls-2 {
        fill: #004482;
      }

      .cls-3 {
        fill: #659ad2;
      }

      .cls-4 {
        fill: #fff;
      }
    </style>
  </defs>
  <title>logo_Cplusplus</title>
  <path class="cls-1" d="M59.29,47.75A5,5,0,0,0,60,45.37V18.63a5,5,0,0,0-.71-2.39L56,16,31,30l-2,7L56.2,49.92Z"/>
  <path class="cls-2" d="M34.42,62.93,57.58,49.57a5,5,0,0,0,1.71-1.81L32,32,4.71,47.75a5,5,0,0,0,1.71,1.81L29.58,62.93A5.38,5.38,0,0,0,34.42,62.93Z"/>
  <path class="cls-3" d="M59.29,16.25a5,5,0,0,0-1.71-1.81L34.42,1.07a5.38,5.38,0,0,0-4.85,0L6.42,14.43A5.38,5.38,0,0,0,4,18.63V45.37a5,5,0,0,0,.71,2.39L32,32Z"/>
  <path class="cls-4" d="M32,50.67a18.67,18.67,0,1,1,16.17-28l-8.08,4.67a9.33,9.33,0,1,0,0,9.33l8.08,4.67A18.73,18.73,0,0,1,32,50.67Z"/>
  <polygon class="cls-4" points="50.5 30.93 48 30.93 48 28.43 46 28.43 46 30.93 43.5 30.93 43.5 32.93 46 32.93 46 35.43 48 35.43 48 32.93 50.5 32.93 50.5 30.93"/>
  <polygon class="cls-4" points="58.5 30.93 56 30.93 56 28.43 54 28.43 54 30.93 51.5 30.93 51.5 32.93 54 32.93 54 35.43 56 35.43 56 32.93 58.5 32.93 58.5 30.93"/>
</svg>
