<?xml version="1.0" encoding="utf-8"?>
<!-- Generator: Adobe Illustrator 27.4.0, SVG Export Plug-In . SVG Version: 6.00 Build 0)  -->
<svg version="1.1" xmlns="http://www.w3.org/2000/svg" xmlns:xlink="http://www.w3.org/1999/xlink" x="0px" y="0px"
	 viewBox="0 0 818.4 299.2" enable-background="new 0 0 818.4 299.2" xml:space="preserve">
<symbol  id="PIPELINE" viewBox="-32 -12.266 64 24.531">
	<linearGradient id="SVGID_1_" gradientUnits="userSpaceOnUse" x1="0" y1="-12.2655" x2="1.502093e-15" y2="12.2655">
		<stop  offset="0" style="stop-color:#1B89B2"/>
		<stop  offset="1" style="stop-color:#51C8E8"/>
	</linearGradient>
	<path fill="url(#SVGID_1_)" d="M26.096,12.266h-51.448v0h0C-29.08,12.265-32,6.878-32,0s2.92-12.265,6.648-12.265h0v0h51.448
		C29.356-12.266,32-6.363,32,0S29.356,12.266,26.096,12.266z"/>
	<g>
		
			<linearGradient id="SVGID_00000155840996847850128880000002481691679026035383_" gradientUnits="userSpaceOnUse" x1="-31.461" y1="-6.1136" x2="-19.2338" y2="6.1136">
			<stop  offset="0" style="stop-color:#B3B4B4"/>
			<stop  offset="1" style="stop-color:#4F4F4F"/>
		</linearGradient>
		<ellipse fill="url(#SVGID_00000155840996847850128880000002481691679026035383_)" cx="-25.347" cy="0" rx="5.575" ry="10.879"/>
	</g>
</symbol>
<g id="Shapes">
	<rect fill="#FFFFFF" width="818.4" height="299.2"/>
	<g>
		<g opacity="0.25">
			<rect x="389.974" y="37.327" width="412.326" height="246.4"/>
			<rect x="389.974" y="37.327" opacity="0.15" width="412.326" height="246.4"/>
		</g>
		<g>
			<rect x="388.474" y="35.827" fill="#FFFFFF" width="412.326" height="246.4"/>
			<rect x="388.474" y="35.827" opacity="0.15" fill="#A5DEF3" width="412.326" height="246.4"/>
		</g>
	</g>
	<g id="Wrench_tool_x28_s_x29_">
	</g>
	<g id="user2">
	</g>
	<g id="user2_1_">
	</g>
	<g id="user2_4_">
	</g>
	<g id="user2_3_">
	</g>
	<g id="user2_2_">
	</g>
	<g id="Internet_2">
	</g>
	<g id="Enterprise">
	</g>
	<g id="Tunnel__x28_stackable_x29_">
	</g>
	<g id="New_Symbol">
	</g>
	<g id="New_Symbol_1">
	</g>
	<g id="Files">
	</g>
	<g id="BlobBlock">
	</g>
	<g id="E_x5F_Enterprise">
	</g>
	<g id="E_x5F_AD_FS">
	</g>
	<g id="C_x5F_Azure_Active_Directory">
	</g>
	<g>
		
			<linearGradient id="SVGID_00000066516603601628253100000010984638341186000817_" gradientUnits="userSpaceOnUse" x1="-464.676" y1="-745.8461" x2="-464.676" y2="-717.8461" gradientTransform="matrix(1 0 0 -1 564 -635.2)">
			<stop  offset="0" style="stop-color:#0078D4"/>
			<stop  offset="0.16" style="stop-color:#1380DA"/>
			<stop  offset="0.53" style="stop-color:#3C91E5"/>
			<stop  offset="0.82" style="stop-color:#559CEC"/>
			<stop  offset="1" style="stop-color:#5EA0EF"/>
		</linearGradient>
		<path fill="url(#SVGID_00000066516603601628253100000010984638341186000817_)" d="M95.124,102.246h8.4v8.4h-8.4V102.246z
			 M85.324,91.046h8.4v-8.4h-7.228c-0.648,0-1.173,0.525-1.173,1.173V91.046z M86.496,110.646h7.228v-8.4h-8.4v7.228
			C85.324,110.121,85.849,110.646,86.496,110.646L86.496,110.646z M85.324,100.846h8.4v-8.4h-8.4V100.846z M104.924,110.646h7.228
			c0.648,0,1.173-0.525,1.173-1.173l0,0v-7.228h-8.4V110.646z M95.124,100.846h8.4v-8.4h-8.4V100.846z M104.924,100.846h8.4v-8.4
			h-8.4V100.846z M104.924,82.646v8.4h8.4v-7.228c0-0.648-0.525-1.173-1.173-1.173l0,0H104.924z M95.124,91.046h8.4v-8.4h-8.4
			V91.046z"/>
	</g>
	<g>
		
			<linearGradient id="SVGID_00000106134830526259320530000010204730125244444845_" gradientUnits="userSpaceOnUse" x1="-464.676" y1="-806.5447" x2="-464.676" y2="-778.5447" gradientTransform="matrix(1 0 0 -1 564 -635.2)">
			<stop  offset="0" style="stop-color:#5E9624"/>
			<stop  offset="0.01" style="stop-color:#5E9724"/>
			<stop  offset="0.35" style="stop-color:#6CAB29"/>
			<stop  offset="0.68" style="stop-color:#73B82C"/>
			<stop  offset="1" style="stop-color:#76BC2D"/>
		</linearGradient>
		<path fill="url(#SVGID_00000106134830526259320530000010204730125244444845_)" d="M95.124,162.945h8.4v8.4h-8.4V162.945z
			 M85.324,151.745h8.4v-8.4h-7.228c-0.648,0-1.173,0.525-1.173,1.173V151.745z M86.496,171.345h7.228v-8.4h-8.4v7.228
			C85.324,170.82,85.849,171.345,86.496,171.345L86.496,171.345z M85.324,161.545h8.4v-8.4h-8.4V161.545z M104.924,171.345h7.245
			c0.641-0.01,1.155-0.532,1.155-1.173v-7.228h-8.4V171.345z M95.124,161.545h8.4v-8.4h-8.4V161.545z M104.924,161.545h8.4v-8.4
			h-8.4V161.545z M104.924,143.345v8.4h8.4v-7.227c0-0.641-0.514-1.163-1.155-1.173H104.924z M95.124,151.745h8.4v-8.4h-8.4V151.745
			z"/>
	</g>
	<g>
		<g>
			<line fill="none" stroke="#3C3C41" stroke-miterlimit="10" x1="386.767" y1="152.651" x2="326.526" y2="152.651"/>
			<g>
				<g>
					<path fill="#FFFFFF" d="M326.686,149.831c-1.557,0-2.82,1.263-2.82,2.82s1.263,2.82,2.82,2.82c1.557,0,2.82-1.263,2.82-2.82
						S328.243,149.831,326.686,149.831z"/>
					<path fill="#3C3C41" d="M326.686,149.456c1.761,0,3.195,1.433,3.195,3.195s-1.433,3.195-3.195,3.195
						c-1.762,0-3.195-1.433-3.195-3.195S324.925,149.456,326.686,149.456C328.448,149.456,324.925,149.456,326.686,149.456z
						 M326.686,155.096c1.348,0,2.445-1.096,2.445-2.445s-1.096-2.445-2.445-2.445c-1.348,0-2.445,1.096-2.445,2.445
						S325.338,155.096,326.686,155.096C328.034,155.096,325.338,155.096,326.686,155.096z"/>
				</g>
			</g>
		</g>
	</g>
	<path d="M143.058,74.764h24.047v12.023l-1.503-1.503V77.1l-10.521,5.272L144.561,77.1v11.19h12.023v1.503h-13.526V74.764z
		 M155.081,80.682l8.841-4.415H146.24L155.081,80.682z M162.255,86.376l1.057-1.057l3.722,3.722l-3.722,3.722l-1.057-1.057
		l1.914-1.914h-6.082V88.29h6.082L162.255,86.376z"/>
	<g>
		<g>
			<line fill="none" stroke="#3C3C41" stroke-miterlimit="10" x1="509.2" y1="100.551" x2="510.7" y2="100.551"/>
			
				<line fill="none" stroke="#3C3C41" stroke-miterlimit="10" stroke-dasharray="3.0427,3.0427" x1="513.743" y1="100.551" x2="694.781" y2="100.551"/>
			<line fill="none" stroke="#3C3C41" stroke-miterlimit="10" x1="696.302" y1="100.551" x2="697.802" y2="100.551"/>
		</g>
	</g>
	<g>
		
			<radialGradient id="e3d1e58c-f78e-4fb5-9857-0c9331da9979_00000084512901920992528950000013389389151375424172_" cx="783.8369" cy="-1111.7671" r="17.2728" gradientTransform="matrix(0.8773 0 0 -0.8773 26.6688 -875.425)" gradientUnits="userSpaceOnUse">
			<stop  offset="0.27" style="stop-color:#FFD70F"/>
			<stop  offset="0.49" style="stop-color:#FFCB12"/>
			<stop  offset="0.88" style="stop-color:#FEAC19"/>
			<stop  offset="1" style="stop-color:#FEA11B"/>
		</radialGradient>
		
			<path id="e3d1e58c-f78e-4fb5-9857-0c9331da9979_00000052069743920376340780000017988724292953727399_" fill="url(#e3d1e58c-f78e-4fb5-9857-0c9331da9979_00000084512901920992528950000013389389151375424172_)" d="
			M723.169,97.798c1.167-1.165,1.168-3.055,0.004-4.221c-0.001-0.001-0.003-0.002-0.004-0.004l0,0l-5.133-5.148
			c-1.157-1.163-3.038-1.167-4.201-0.01c-0.003,0.003-0.006,0.006-0.01,0.01l0,0l-5.133,5.148c-1.152,1.173-1.152,3.052,0,4.225
			l4.326,4.326c0.153,0.159,0.241,0.37,0.245,0.591v7.96c-0.004,0.269,0.1,0.529,0.288,0.721l1.947,1.947
			c0.244,0.263,0.654,0.278,0.917,0.035c0.012-0.011,0.024-0.023,0.035-0.035l1.889-1.889l0,0l1.11-1.11
			c0.151-0.141,0.159-0.379,0.018-0.53c-0.006-0.006-0.012-0.012-0.018-0.018l-0.793-0.808c-0.167-0.159-0.174-0.424-0.014-0.591
			c0.005-0.005,0.01-0.01,0.014-0.014l0.793-0.808c0.151-0.141,0.159-0.379,0.018-0.53c-0.006-0.006-0.012-0.012-0.018-0.018
			l-0.836-0.851c-0.163-0.152-0.172-0.407-0.021-0.571c0.007-0.007,0.013-0.014,0.021-0.021l0.865-0.851
			c0.151-0.141,0.159-0.379,0.018-0.53c-0.006-0.006-0.012-0.012-0.018-0.018l-1.11-1.125v-0.404L723.169,97.798z M715.959,89.666
			c0.94,0.008,1.695,0.776,1.687,1.716c-0.008,0.94-0.776,1.695-1.716,1.687c-0.934-0.008-1.687-0.767-1.687-1.701
			c-0.008-0.932,0.741-1.694,1.673-1.701c0.005,0,0.01,0,0.015,0H715.959z"/>
		
			<path id="a21a8f7a-61cc-4035-8449-e5c8fe4d4d5e_00000134240322781285225180000000014989036622850968_" opacity="0.75" fill="#FF9300" enable-background="new    " d="
			M714.603,110.805L714.603,110.805c0.17,0.104,0.392,0.05,0.495-0.12c0.034-0.055,0.052-0.118,0.053-0.182v-6.417
			c0.001-0.125-0.058-0.243-0.159-0.317l0,0c-0.165-0.112-0.389-0.069-0.501,0.096c-0.044,0.065-0.066,0.143-0.062,0.221v6.417
			C714.437,110.625,714.501,110.737,714.603,110.805z"/>
		
			<path id="ecd3189c-fb1e-4a0e-a2b6-ba2f11dda484_00000046331010139961172480000003704696286470537611_" opacity="0.75" fill="#FF9300" enable-background="new    " d="
			M712.282,95.289h7.527c0.255,0,0.461,0.207,0.461,0.461v0.072c0,0.255-0.207,0.461-0.461,0.461h-7.527
			c-0.255,0-0.461-0.207-0.461-0.461v-0.072C711.82,95.496,712.027,95.289,712.282,95.289z"/>
		
			<path id="a1949a3c-4818-4bd1-b236-0d970b92fc62_00000033361238265790191740000001995404203758529156_" opacity="0.75" fill="#FF9300" enable-background="new    " d="
			M712.282,96.904h7.527c0.255,0,0.461,0.207,0.461,0.461v0.072c0,0.255-0.207,0.461-0.461,0.461h-7.527
			c-0.255,0-0.461-0.207-0.461-0.461v-0.072C711.82,97.111,712.027,96.904,712.282,96.904z"/>
	</g>
	<path d="M647.6,57.702v1.487l-5.25,5.25v5.512h-3.5V64.44l-5.25-5.25v-1.487H647.6z M646.725,58.577h-12.25v0.263l5.25,5.25v4.988
		h1.75V64.09l5.25-5.25V58.577z"/>
	<path d="M658.497,220.987v1.488l-5.25,5.25v5.512h-3.5v-5.512l-5.25-5.25v-1.488H658.497z M657.622,221.862h-12.25v0.262l5.25,5.25
		v4.988h1.75v-4.988l5.25-5.25V221.862z"/>
	<g id="e8071740-76d7-444d-a08a-6a2072be1ccd_00000047748695618296726540000008830855877030657164_">
		
			<linearGradient id="SVGID_00000039838050722775980470000014297259434917767612_" gradientUnits="userSpaceOnUse" x1="493.0053" y1="-951.6734" x2="493.0053" y2="-981.4063" gradientTransform="matrix(1 0 0 -1 0 -869.2)">
			<stop  offset="0" style="stop-color:#32BEDD"/>
			<stop  offset="0.067" style="stop-color:#3DCCE9"/>
			<stop  offset="0.171" style="stop-color:#48DBF5"/>
			<stop  offset="0.295" style="stop-color:#4EE3FD"/>
			<stop  offset="0.489" style="stop-color:#50E6FF"/>
			<stop  offset="0.703" style="stop-color:#4EE4FD"/>
			<stop  offset="0.828" style="stop-color:#48DBF6"/>
			<stop  offset="0.929" style="stop-color:#3DCDEA"/>
			<stop  offset="1" style="stop-color:#32BEDD"/>
		</linearGradient>
		<path fill="url(#SVGID_00000039838050722775980470000014297259434917767612_)" d="M500.608,87.551h4.886
			c2.602,0,4.706,5.826,4.706,12.992l0,0v0.178l0,0c-0.037,7.114-2.13,12.812-4.706,12.812h-4.886c2.606,0,4.706-5.813,4.706-12.992
			C505.314,93.362,503.209,87.551,500.608,87.551z M484.041,91.353c-0.065-0.195-0.152-0.391-0.239-0.586
			c-0.825-1.998-1.911-3.214-3.105-3.214h-4.886c1.194,0,2.28,1.216,3.105,3.214c1.133,3.132,1.678,6.446,1.607,9.776
			c0.081,3.329-0.464,6.644-1.607,9.772c-0.825,2.02-1.911,3.236-3.105,3.236h4.886c1.194,0,2.258-1.194,3.084-3.192
			c1.134-3.086,1.686-6.355,1.629-9.642v-0.174C485.463,97.425,485.001,94.32,484.041,91.353z"/>
		<path fill="#9CEBFF" d="M505.322,100.543c0,7.188-2.106,13.008-4.712,13.008c-1.194,0-2.28-1.216-3.105-3.236h3.105
			c1.629,0,2.932-4.365,2.932-9.772s-1.303-9.772-2.932-9.772h-3.105c0.825-1.998,1.911-3.214,3.105-3.214
			C503.216,87.553,505.322,93.377,505.322,100.543z M475.82,87.551c-2.604,0-4.708,5.813-4.708,12.992s2.109,12.992,4.708,12.992
			c2.599,0,4.701-5.826,4.701-12.992S478.417,87.551,475.82,87.551z"/>
		<path fill="#32BEDD" d="M475.82,90.771c1.629,0,2.934,4.378,2.934,9.772s-1.303,9.772-2.934,9.772s-2.936-4.374-2.936-9.772
			S474.197,90.771,475.82,90.771z"/>
		
			<linearGradient id="SVGID_00000146495457368660520230000009640731420632556940_" gradientUnits="userSpaceOnUse" x1="493.6611" y1="-956.8917" x2="493.6611" y2="-983.7343" gradientTransform="matrix(1 0 0 -1 0 -869.2)">
			<stop  offset="0" style="stop-color:#198AB3"/>
			<stop  offset="0.025" style="stop-color:#1D92B9"/>
			<stop  offset="0.102" style="stop-color:#26A5C9"/>
			<stop  offset="0.192" style="stop-color:#2CB2D4"/>
			<stop  offset="0.307" style="stop-color:#30BADA"/>
			<stop  offset="0.531" style="stop-color:#31BCDC"/>
			<stop  offset="0.656" style="stop-color:#2EB5D6"/>
			<stop  offset="0.84" style="stop-color:#24A1C6"/>
			<stop  offset="1" style="stop-color:#198AB3"/>
		</linearGradient>
		<path fill="url(#SVGID_00000146495457368660520230000009640731420632556940_)" d="M503.542,100.543
			c0,5.407-1.303,9.772-2.932,9.772h-5.537v0.043h-11.292c1.134-3.086,1.686-6.355,1.629-9.642v-0.174
			c0.054-3.116-0.409-6.22-1.368-9.186c-0.065-0.195-0.152-0.391-0.239-0.586h16.808C502.239,90.771,503.542,95.153,503.542,100.543
			z"/>
	</g>
	<g>
		<g>
			<line fill="none" stroke="#3C3C41" stroke-miterlimit="10" x1="509.2" y1="152.292" x2="510.7" y2="152.292"/>
			
				<line fill="none" stroke="#3C3C41" stroke-miterlimit="10" stroke-dasharray="3.0427,3.0427" x1="513.743" y1="152.292" x2="694.781" y2="152.292"/>
			<line fill="none" stroke="#3C3C41" stroke-miterlimit="10" x1="696.302" y1="152.292" x2="697.802" y2="152.292"/>
		</g>
	</g>
	<g>
		<g>
			<line fill="none" stroke="#3C3C41" stroke-miterlimit="10" x1="388.474" y1="152.549" x2="389.974" y2="152.549"/>
			
				<line fill="none" stroke="#3C3C41" stroke-miterlimit="10" stroke-dasharray="3.101,3.101" x1="393.075" y1="152.549" x2="472.15" y2="152.549"/>
			<line fill="none" stroke="#3C3C41" stroke-miterlimit="10" x1="473.7" y1="152.549" x2="475.2" y2="152.549"/>
		</g>
	</g>
	<g>
		<g>
			<line fill="none" stroke="#3C3C41" stroke-miterlimit="10" x1="569.069" y1="253.552" x2="570.569" y2="253.552"/>
			
				<line fill="none" stroke="#3C3C41" stroke-miterlimit="10" stroke-dasharray="3.0666,3.0666" x1="573.636" y1="253.552" x2="694.769" y2="253.552"/>
			<line fill="none" stroke="#3C3C41" stroke-miterlimit="10" x1="696.302" y1="253.552" x2="697.802" y2="253.552"/>
		</g>
	</g>
	<g>
		
			<radialGradient id="e3d1e58c-f78e-4fb5-9857-0c9331da9979_00000003798358450446077310000014680097918282587020_" cx="783.8369" cy="-1170.743" r="17.2728" gradientTransform="matrix(0.8773 0 0 -0.8773 26.6688 -875.425)" gradientUnits="userSpaceOnUse">
			<stop  offset="0.27" style="stop-color:#FFD70F"/>
			<stop  offset="0.49" style="stop-color:#FFCB12"/>
			<stop  offset="0.88" style="stop-color:#FEAC19"/>
			<stop  offset="1" style="stop-color:#FEA11B"/>
		</radialGradient>
		
			<path id="e3d1e58c-f78e-4fb5-9857-0c9331da9979_00000055706014364622996380000001607203475482252708_" fill="url(#e3d1e58c-f78e-4fb5-9857-0c9331da9979_00000003798358450446077310000014680097918282587020_)" d="
			M723.169,149.54c1.167-1.165,1.168-3.055,0.004-4.221c-0.001-0.001-0.003-0.002-0.004-0.004l0,0l-5.133-5.148
			c-1.157-1.163-3.038-1.167-4.201-0.01c-0.003,0.003-0.006,0.006-0.01,0.01l0,0l-5.133,5.148c-1.152,1.173-1.152,3.052,0,4.225
			l4.326,4.326c0.153,0.159,0.241,0.37,0.245,0.591v7.96c-0.004,0.269,0.1,0.529,0.288,0.721l1.947,1.947
			c0.244,0.263,0.654,0.278,0.917,0.035c0.012-0.011,0.024-0.023,0.035-0.035l1.889-1.889l0,0l1.11-1.11
			c0.151-0.141,0.159-0.379,0.018-0.53c-0.006-0.006-0.012-0.012-0.018-0.018l-0.793-0.808c-0.167-0.159-0.174-0.424-0.014-0.591
			c0.005-0.005,0.01-0.01,0.014-0.014l0.793-0.808c0.151-0.141,0.159-0.379,0.018-0.53c-0.006-0.006-0.012-0.012-0.018-0.018
			l-0.836-0.851c-0.163-0.152-0.172-0.407-0.021-0.571c0.007-0.007,0.013-0.014,0.021-0.021l0.865-0.851
			c0.151-0.141,0.159-0.379,0.018-0.53c-0.006-0.006-0.012-0.012-0.018-0.018l-1.11-1.125v-0.404L723.169,149.54z M715.959,141.407
			c0.94,0.008,1.695,0.776,1.687,1.716c-0.008,0.94-0.776,1.695-1.716,1.687c-0.934-0.008-1.687-0.767-1.687-1.701
			c-0.008-0.932,0.741-1.694,1.673-1.701c0.005,0,0.01,0,0.015,0H715.959z"/>
		
			<path id="a21a8f7a-61cc-4035-8449-e5c8fe4d4d5e_00000026875493905678944070000002490363809577821850_" opacity="0.75" fill="#FF9300" enable-background="new    " d="
			M714.603,162.546L714.603,162.546c0.17,0.104,0.392,0.05,0.495-0.12c0.034-0.055,0.052-0.118,0.053-0.182v-6.417
			c0.001-0.125-0.058-0.243-0.159-0.317l0,0c-0.165-0.112-0.389-0.069-0.501,0.096c-0.044,0.065-0.066,0.143-0.062,0.221v6.417
			C714.437,162.366,714.501,162.478,714.603,162.546z"/>
		
			<path id="ecd3189c-fb1e-4a0e-a2b6-ba2f11dda484_00000003089665553832994230000008489074055756084358_" opacity="0.75" fill="#FF9300" enable-background="new    " d="
			M712.282,147.031h7.527c0.255,0,0.461,0.207,0.461,0.461v0.072c0,0.255-0.207,0.461-0.461,0.461h-7.527
			c-0.255,0-0.461-0.207-0.461-0.461v-0.072C711.82,147.237,712.027,147.031,712.282,147.031z"/>
		
			<path id="a1949a3c-4818-4bd1-b236-0d970b92fc62_00000183948128818552389060000010726998841882804869_" opacity="0.75" fill="#FF9300" enable-background="new    " d="
			M712.282,148.646h7.527c0.255,0,0.461,0.207,0.461,0.461v0.072c0,0.255-0.207,0.461-0.461,0.461h-7.527
			c-0.255,0-0.461-0.207-0.461-0.461v-0.072C711.82,148.852,712.027,148.646,712.282,148.646z"/>
	</g>
	<g>
		
			<radialGradient id="e3d1e58c-f78e-4fb5-9857-0c9331da9979_00000104691798870776403020000007554934657202351491_" cx="783.8369" cy="-1286.1611" r="17.2728" gradientTransform="matrix(0.8773 0 0 -0.8773 26.6688 -875.425)" gradientUnits="userSpaceOnUse">
			<stop  offset="0.27" style="stop-color:#FFD70F"/>
			<stop  offset="0.49" style="stop-color:#FFCB12"/>
			<stop  offset="0.88" style="stop-color:#FEAC19"/>
			<stop  offset="1" style="stop-color:#FEA11B"/>
		</radialGradient>
		
			<path id="e3d1e58c-f78e-4fb5-9857-0c9331da9979_00000138534847504356643550000017550621107775577750_" fill="url(#e3d1e58c-f78e-4fb5-9857-0c9331da9979_00000104691798870776403020000007554934657202351491_)" d="
			M723.169,250.8c1.167-1.165,1.168-3.055,0.004-4.221c-0.001-0.001-0.003-0.002-0.004-0.004l0,0l-5.133-5.148
			c-1.157-1.163-3.038-1.167-4.201-0.01c-0.003,0.003-0.006,0.006-0.01,0.01l0,0l-5.133,5.148c-1.152,1.173-1.152,3.052,0,4.225
			l4.326,4.326c0.153,0.159,0.241,0.37,0.245,0.591v7.96c-0.004,0.269,0.1,0.529,0.288,0.721l1.947,1.947
			c0.244,0.263,0.654,0.278,0.917,0.035c0.012-0.011,0.024-0.023,0.035-0.035l1.889-1.889l0,0l1.11-1.11
			c0.151-0.141,0.159-0.379,0.018-0.53c-0.006-0.006-0.012-0.012-0.018-0.018l-0.793-0.808c-0.167-0.159-0.174-0.424-0.014-0.591
			c0.005-0.005,0.01-0.01,0.014-0.014l0.793-0.808c0.151-0.141,0.159-0.379,0.018-0.53c-0.006-0.006-0.012-0.012-0.018-0.018
			l-0.836-0.851c-0.163-0.152-0.172-0.407-0.021-0.571c0.007-0.007,0.013-0.014,0.021-0.021l0.865-0.851
			c0.151-0.141,0.159-0.379,0.018-0.53c-0.006-0.006-0.012-0.012-0.018-0.018l-1.11-1.125v-0.404L723.169,250.8z M715.959,242.667
			c0.94,0.008,1.695,0.776,1.687,1.716c-0.008,0.94-0.776,1.695-1.716,1.687c-0.934-0.008-1.687-0.767-1.687-1.701
			c-0.008-0.932,0.741-1.694,1.673-1.701c0.005,0,0.01,0,0.015,0H715.959z"/>
		
			<path id="a21a8f7a-61cc-4035-8449-e5c8fe4d4d5e_00000044136653195017975120000008902440087939743624_" opacity="0.75" fill="#FF9300" enable-background="new    " d="
			M714.603,263.807L714.603,263.807c0.17,0.104,0.392,0.05,0.495-0.12c0.034-0.055,0.052-0.118,0.053-0.182v-6.417
			c0.001-0.125-0.058-0.243-0.159-0.317l0,0c-0.165-0.112-0.389-0.069-0.501,0.096c-0.044,0.065-0.066,0.143-0.062,0.221v6.417
			C714.437,263.626,714.501,263.739,714.603,263.807z"/>
		
			<path id="ecd3189c-fb1e-4a0e-a2b6-ba2f11dda484_00000101794459979674737790000010693666929973446569_" opacity="0.75" fill="#FF9300" enable-background="new    " d="
			M712.282,248.291h7.527c0.255,0,0.461,0.207,0.461,0.461v0.072c0,0.255-0.207,0.461-0.461,0.461h-7.527
			c-0.255,0-0.461-0.207-0.461-0.461v-0.072C711.82,248.498,712.027,248.291,712.282,248.291z"/>
		
			<path id="a1949a3c-4818-4bd1-b236-0d970b92fc62_00000151538226199431406580000014304587890517904554_" opacity="0.75" fill="#FF9300" enable-background="new    " d="
			M712.282,249.906h7.527c0.255,0,0.461,0.207,0.461,0.461v0.072c0,0.255-0.207,0.461-0.461,0.461h-7.527
			c-0.255,0-0.461-0.207-0.461-0.461v-0.072C711.82,250.113,712.027,249.906,712.282,249.906z"/>
	</g>
	<g id="e8071740-76d7-444d-a08a-6a2072be1ccd_00000177463332437246615140000013522848681848159907_">
		
			<linearGradient id="SVGID_00000122704222518543285220000017486977610764529798_" gradientUnits="userSpaceOnUse" x1="493.0053" y1="-1003.415" x2="493.0053" y2="-1033.1478" gradientTransform="matrix(1 0 0 -1 0 -869.2)">
			<stop  offset="0" style="stop-color:#32BEDD"/>
			<stop  offset="0.067" style="stop-color:#3DCCE9"/>
			<stop  offset="0.171" style="stop-color:#48DBF5"/>
			<stop  offset="0.295" style="stop-color:#4EE3FD"/>
			<stop  offset="0.489" style="stop-color:#50E6FF"/>
			<stop  offset="0.703" style="stop-color:#4EE4FD"/>
			<stop  offset="0.828" style="stop-color:#48DBF6"/>
			<stop  offset="0.929" style="stop-color:#3DCDEA"/>
			<stop  offset="1" style="stop-color:#32BEDD"/>
		</linearGradient>
		<path fill="url(#SVGID_00000122704222518543285220000017486977610764529798_)" d="M500.608,139.292h4.886
			c2.602,0,4.706,5.826,4.706,12.992l0,0v0.178l0,0c-0.037,7.114-2.13,12.812-4.706,12.812h-4.886c2.606,0,4.706-5.813,4.706-12.992
			S503.209,139.292,500.608,139.292z M484.041,143.094c-0.065-0.195-0.152-0.391-0.239-0.586c-0.825-1.998-1.911-3.214-3.105-3.214
			h-4.886c1.194,0,2.28,1.216,3.105,3.214c1.133,3.132,1.678,6.446,1.607,9.776c0.081,3.329-0.464,6.644-1.607,9.772
			c-0.825,2.02-1.911,3.236-3.105,3.236h4.886c1.194,0,2.258-1.194,3.084-3.192c1.134-3.086,1.686-6.355,1.629-9.642v-0.174
			C485.463,149.167,485.001,146.061,484.041,143.094z"/>
		<path fill="#9CEBFF" d="M505.322,152.284c0,7.188-2.106,13.008-4.712,13.008c-1.194,0-2.28-1.216-3.105-3.236h3.105
			c1.629,0,2.932-4.365,2.932-9.772s-1.303-9.772-2.932-9.772h-3.105c0.825-1.998,1.911-3.214,3.105-3.214
			C503.216,139.294,505.322,145.118,505.322,152.284z M475.82,139.292c-2.604,0-4.708,5.813-4.708,12.992s2.109,12.992,4.708,12.992
			c2.599,0,4.701-5.826,4.701-12.992S478.417,139.292,475.82,139.292z"/>
		<path fill="#32BEDD" d="M475.82,142.512c1.629,0,2.934,4.378,2.934,9.772s-1.303,9.772-2.934,9.772s-2.936-4.374-2.936-9.772
			S474.197,142.512,475.82,142.512z"/>
		
			<linearGradient id="SVGID_00000053508070838447615130000006887263990708272055_" gradientUnits="userSpaceOnUse" x1="493.6611" y1="-1008.6332" x2="493.6611" y2="-1035.4758" gradientTransform="matrix(1 0 0 -1 0 -869.2)">
			<stop  offset="0" style="stop-color:#198AB3"/>
			<stop  offset="0.025" style="stop-color:#1D92B9"/>
			<stop  offset="0.102" style="stop-color:#26A5C9"/>
			<stop  offset="0.192" style="stop-color:#2CB2D4"/>
			<stop  offset="0.307" style="stop-color:#30BADA"/>
			<stop  offset="0.531" style="stop-color:#31BCDC"/>
			<stop  offset="0.656" style="stop-color:#2EB5D6"/>
			<stop  offset="0.84" style="stop-color:#24A1C6"/>
			<stop  offset="1" style="stop-color:#198AB3"/>
		</linearGradient>
		<path fill="url(#SVGID_00000053508070838447615130000006887263990708272055_)" d="M503.542,152.284
			c0,5.407-1.303,9.772-2.932,9.772h-5.537v0.043h-11.292c1.134-3.086,1.686-6.355,1.629-9.642v-0.174
			c0.054-3.116-0.409-6.22-1.368-9.186c-0.065-0.195-0.152-0.391-0.239-0.586h16.808
			C502.239,142.512,503.542,146.895,503.542,152.284z"/>
	</g>
	<g>
		<g>
			<path fill="none" stroke="#3C3C41" stroke-miterlimit="10" d="M121.848,145.555h182.362c5.5,0,10,2.97,10,6.6s-4.5,6.6-10,6.6
				h-135.83"/>
			<g>
				<polygon fill="#3C3C41" points="169.475,155.015 162.999,158.755 169.475,162.495 				"/>
			</g>
		</g>
	</g>
	<g>
		<path d="M428.223,245.552h21.375v10.688l-1.336-1.336v-7.275l-9.352,4.686l-9.352-4.686v9.947h10.688v1.336h-12.023V245.552z
			 M438.911,250.813l7.859-3.924h-15.718L438.911,250.813z M445.288,255.874l0.939-0.939l3.309,3.309l-3.309,3.309l-0.939-0.939
			l1.701-1.701h-5.406v-1.336h5.406L445.288,255.874z"/>
		<path d="M531.713,245.552h21.375v10.688l-1.336-1.336v-7.275l-9.352,4.686l-9.352-4.686v9.947h10.688v1.336h-12.023V245.552z
			 M542.401,250.813l7.859-3.924h-15.718L542.401,250.813z M548.778,255.874l0.939-0.939l3.309,3.309l-3.309,3.309l-0.939-0.939
			l1.701-1.701h-5.406v-1.336h5.406L548.778,255.874z"/>
		<path d="M479.968,245.552h21.375v10.688l-1.336-1.336v-7.275l-9.352,4.686l-9.352-4.686v9.947h10.688v1.336h-12.023V245.552z
			 M490.656,250.813l7.859-3.924h-15.718L490.656,250.813z M497.033,255.874l0.939-0.939l3.309,3.309l-3.309,3.309l-0.939-0.939
			l1.701-1.701h-5.406v-1.336h5.406L497.033,255.874z"/>
		<path d="M505.841,245.552h21.375v10.688l-1.336-1.336v-7.275l-9.352,4.686l-9.352-4.686v9.947h10.688v1.336h-12.023V245.552z
			 M516.528,250.813l7.859-3.924h-15.718L516.528,250.813z M522.905,255.874l0.939-0.939l3.309,3.309l-3.309,3.309l-0.939-0.939
			l1.701-1.701H519.2v-1.336h5.406L522.905,255.874z"/>
		<g>
			<path fill="#2F2F2F" d="M460.947,254.68c-0.355,0-0.651-0.109-0.889-0.328s-0.355-0.488-0.355-0.807
				c0-0.328,0.122-0.597,0.365-0.807c0.244-0.209,0.549-0.314,0.913-0.314c0.369,0,0.671,0.106,0.905,0.318
				c0.235,0.212,0.353,0.479,0.353,0.803c0,0.333-0.12,0.605-0.358,0.817C461.641,254.574,461.33,254.68,460.947,254.68z"/>
			<path fill="#2F2F2F" d="M464.76,254.68c-0.355,0-0.651-0.109-0.889-0.328s-0.355-0.488-0.355-0.807
				c0-0.328,0.122-0.597,0.365-0.807c0.244-0.209,0.549-0.314,0.913-0.314c0.369,0,0.671,0.106,0.905,0.318
				c0.235,0.212,0.353,0.479,0.353,0.803c0,0.333-0.12,0.605-0.358,0.817C465.453,254.574,465.143,254.68,464.76,254.68z"/>
			<path fill="#2F2F2F" d="M468.571,254.68c-0.355,0-0.651-0.109-0.889-0.328s-0.355-0.488-0.355-0.807
				c0-0.328,0.122-0.597,0.365-0.807c0.244-0.209,0.549-0.314,0.913-0.314c0.369,0,0.671,0.106,0.905,0.318
				c0.235,0.212,0.353,0.479,0.353,0.803c0,0.333-0.12,0.605-0.358,0.817C469.265,254.574,468.954,254.68,468.571,254.68z"/>
		</g>
	</g>
	<path d="M490.656,200.318c0.221,0,0.426,0.041,0.614,0.123c0.188,0.082,0.352,0.192,0.491,0.331s0.254,0.307,0.344,0.503
		c0.09,0.196,0.131,0.401,0.123,0.614c0,0.221-0.041,0.426-0.123,0.614c-0.082,0.188-0.192,0.352-0.331,0.491
		s-0.307,0.254-0.503,0.344s-0.401,0.131-0.614,0.123c-0.221,0-0.426-0.041-0.614-0.123s-0.352-0.192-0.491-0.331
		c-0.139-0.139-0.254-0.307-0.344-0.503s-0.131-0.401-0.123-0.614c0-0.221,0.041-0.426,0.123-0.614
		c0.082-0.188,0.192-0.352,0.331-0.491c0.139-0.139,0.307-0.254,0.503-0.344C490.238,200.351,490.443,200.31,490.656,200.318z
		 M490.656,190.89c0.221,0,0.426,0.041,0.614,0.123c0.188,0.082,0.352,0.192,0.491,0.331c0.139,0.139,0.254,0.307,0.344,0.503
		s0.131,0.401,0.123,0.614c0,0.221-0.041,0.426-0.123,0.614c-0.082,0.188-0.192,0.352-0.331,0.491
		c-0.139,0.139-0.307,0.254-0.503,0.344c-0.196,0.09-0.401,0.131-0.614,0.123c-0.221,0-0.426-0.041-0.614-0.123
		c-0.188-0.082-0.352-0.192-0.491-0.331s-0.254-0.307-0.344-0.503s-0.131-0.401-0.123-0.614c0-0.221,0.041-0.426,0.123-0.614
		s0.192-0.352,0.331-0.491c0.139-0.139,0.307-0.254,0.503-0.344C490.238,190.923,490.443,190.882,490.656,190.89z M490.656,184.605
		c-0.221,0-0.426-0.041-0.614-0.123s-0.352-0.192-0.491-0.331c-0.139-0.139-0.254-0.307-0.344-0.503s-0.131-0.401-0.123-0.614
		c0-0.221,0.041-0.426,0.123-0.614c0.082-0.188,0.192-0.352,0.331-0.491c0.139-0.139,0.307-0.254,0.503-0.344
		s0.401-0.131,0.614-0.123c0.221,0,0.426,0.041,0.614,0.123s0.352,0.192,0.491,0.331c0.139,0.139,0.254,0.307,0.344,0.503
		s0.131,0.401,0.123,0.614c0,0.221-0.041,0.426-0.123,0.614c-0.082,0.188-0.192,0.352-0.331,0.491
		c-0.139,0.139-0.307,0.254-0.503,0.344S490.868,184.613,490.656,184.605z"/>
	<g>
		<g>
			<line fill="none" stroke="#3C3C41" stroke-miterlimit="10" x1="475.2" y1="100.413" x2="473.7" y2="100.413"/>
			<path fill="none" stroke="#3C3C41" stroke-miterlimit="10" stroke-dasharray="3.0098,3.0098" d="M470.69,100.413h-60.78
				c-2.2,0-4,1.8-4,4v146.052c0,2.2,1.8,4,4,4h13.884"/>
			<line fill="none" stroke="#3C3C41" stroke-miterlimit="10" x1="425.3" y1="254.466" x2="426.8" y2="254.466"/>
		</g>
	</g>
	<g>
		<g>
			<path fill="none" stroke="#3C3C41" stroke-miterlimit="10" d="M121.848,97.771h200.018c2.75,0,5,2.25,5,5v38.126"/>
			<g>
				<polygon fill="#3C3C41" points="323.126,139.802 326.866,146.279 330.606,139.802 				"/>
			</g>
		</g>
	</g>
</g>
<g id="Text">
	<g>
		<path fill="#2F2F2F" d="M398.414,27.027h-2.229l-4.039-6.159c-0.237-0.359-0.401-0.631-0.492-0.813h-0.027
			c0.036,0.347,0.055,0.875,0.055,1.586v5.387h-2.086v-9.803h2.379l3.891,5.968c0.178,0.27,0.342,0.536,0.492,0.8h0.027
			c-0.037-0.228-0.055-0.677-0.055-1.347v-5.421h2.084V27.027z"/>
		<path fill="#2F2F2F" d="M406.241,27.027h-2.044v-1.005h-0.027c-0.469,0.784-1.164,1.176-2.085,1.176
			c-0.679,0-1.214-0.192-1.603-0.577c-0.391-0.386-0.585-0.899-0.585-1.542c0-1.357,0.804-2.142,2.413-2.352l1.9-0.253
			c0-0.766-0.414-1.148-1.244-1.148c-0.834,0-1.627,0.249-2.379,0.745v-1.627c0.301-0.154,0.712-0.291,1.234-0.41
			c0.521-0.118,0.996-0.178,1.425-0.178c1.996,0,2.994,0.996,2.994,2.987V27.027z M404.211,24.183v-0.472l-1.271,0.164
			c-0.701,0.092-1.053,0.408-1.053,0.95c0,0.246,0.086,0.448,0.256,0.605c0.172,0.157,0.402,0.235,0.694,0.235
			c0.405,0,0.735-0.14,0.991-0.42S404.211,24.612,404.211,24.183z"/>
		<path fill="#2F2F2F" d="M419.052,27.027h-2.153v-3.992c0-1.016-0.374-1.524-1.121-1.524c-0.355,0-0.646,0.153-0.868,0.458
			c-0.223,0.306-0.335,0.687-0.335,1.142v3.917h-2.16v-4.033c0-0.988-0.366-1.483-1.101-1.483c-0.369,0-0.664,0.146-0.885,0.438
			c-0.222,0.292-0.332,0.688-0.332,1.189v3.89h-2.16v-7h2.16v1.094h0.027c0.223-0.373,0.537-0.678,0.939-0.912
			c0.404-0.235,0.845-0.353,1.323-0.353c0.989,0,1.665,0.436,2.03,1.306c0.533-0.87,1.316-1.306,2.352-1.306
			c1.521,0,2.283,0.939,2.283,2.816V27.027z"/>
		<path fill="#2F2F2F" d="M427.073,24.142h-4.566c0.073,1.017,0.714,1.524,1.921,1.524c0.77,0,1.447-0.182,2.03-0.547v1.559
			c-0.647,0.347-1.487,0.52-2.522,0.52c-1.131,0-2.008-0.313-2.632-0.939c-0.624-0.627-0.937-1.501-0.937-2.622
			c0-1.162,0.338-2.082,1.012-2.762c0.674-0.679,1.504-1.019,2.488-1.019c1.021,0,1.811,0.304,2.369,0.909
			c0.558,0.606,0.837,1.429,0.837,2.468V24.142z M425.07,22.816c0-1.002-0.406-1.504-1.217-1.504c-0.346,0-0.646,0.144-0.898,0.431
			c-0.254,0.287-0.407,0.646-0.462,1.073H425.07z"/>
		<path fill="#2F2F2F" d="M428.06,26.842v-1.75c0.355,0.215,0.711,0.374,1.063,0.479c0.353,0.105,0.687,0.157,1.001,0.157
			c0.383,0,0.686-0.052,0.906-0.157c0.221-0.104,0.332-0.264,0.332-0.479c0-0.137-0.051-0.25-0.15-0.342
			c-0.101-0.091-0.229-0.171-0.387-0.239s-0.329-0.13-0.516-0.185c-0.188-0.055-0.367-0.116-0.541-0.185
			c-0.277-0.104-0.522-0.218-0.734-0.338c-0.212-0.121-0.39-0.261-0.533-0.421c-0.144-0.159-0.253-0.344-0.328-0.554
			c-0.075-0.209-0.113-0.458-0.113-0.745c0-0.392,0.086-0.729,0.257-1.012c0.171-0.282,0.399-0.514,0.684-0.693
			c0.284-0.181,0.61-0.312,0.978-0.396c0.367-0.085,0.748-0.127,1.145-0.127c0.311,0,0.625,0.024,0.943,0.072
			c0.319,0.048,0.634,0.117,0.943,0.208v1.668c-0.273-0.159-0.566-0.279-0.878-0.358c-0.312-0.08-0.618-0.12-0.919-0.12
			c-0.142,0-0.275,0.013-0.4,0.038c-0.125,0.024-0.236,0.062-0.332,0.109s-0.17,0.109-0.225,0.185s-0.082,0.16-0.082,0.256
			c0,0.128,0.041,0.237,0.123,0.328c0.082,0.092,0.188,0.17,0.32,0.236c0.133,0.065,0.279,0.125,0.441,0.178
			c0.162,0.052,0.322,0.105,0.482,0.16c0.287,0.101,0.547,0.21,0.779,0.328c0.232,0.119,0.432,0.258,0.598,0.417
			c0.166,0.16,0.294,0.347,0.383,0.561c0.089,0.215,0.133,0.47,0.133,0.766c0,0.415-0.09,0.77-0.27,1.063s-0.42,0.533-0.718,0.718
			s-0.643,0.318-1.032,0.403c-0.39,0.084-0.794,0.126-1.213,0.126C429.43,27.198,428.716,27.08,428.06,26.842z"/>
		<path fill="#2F2F2F" d="M436.924,26.213h-0.027v4.033h-2.16v-10.22h2.16v1.053h0.027c0.533-0.815,1.282-1.224,2.249-1.224
			c0.906,0,1.607,0.312,2.102,0.934c0.495,0.622,0.742,1.469,0.742,2.539c0,1.167-0.288,2.104-0.865,2.81
			c-0.576,0.707-1.343,1.06-2.3,1.06C438.009,27.198,437.367,26.87,436.924,26.213z M436.863,23.342v0.561
			c0,0.483,0.127,0.878,0.383,1.183c0.256,0.306,0.59,0.458,1.005,0.458c0.492,0,0.874-0.19,1.146-0.57
			c0.271-0.381,0.406-0.92,0.406-1.617c0-1.23-0.479-1.846-1.436-1.846c-0.441,0-0.803,0.168-1.084,0.503
			C437.004,22.348,436.863,22.792,436.863,23.342z"/>
		<path fill="#2F2F2F" d="M449.25,27.027h-2.044v-1.005h-0.027c-0.47,0.784-1.165,1.176-2.085,1.176
			c-0.68,0-1.213-0.192-1.604-0.577c-0.389-0.386-0.584-0.899-0.584-1.542c0-1.357,0.805-2.142,2.413-2.352l1.9-0.253
			c0-0.766-0.415-1.148-1.244-1.148c-0.834,0-1.627,0.249-2.379,0.745v-1.627c0.301-0.154,0.712-0.291,1.233-0.41
			c0.522-0.118,0.998-0.178,1.426-0.178c1.996,0,2.994,0.996,2.994,2.987V27.027z M447.219,24.183v-0.472l-1.271,0.164
			c-0.702,0.092-1.053,0.408-1.053,0.95c0,0.246,0.085,0.448,0.257,0.605c0.17,0.157,0.402,0.235,0.693,0.235
			c0.406,0,0.736-0.14,0.991-0.42S447.219,24.612,447.219,24.183z"/>
		<path fill="#2F2F2F" d="M456.263,26.774c-0.488,0.283-1.191,0.424-2.112,0.424c-1.075,0-1.946-0.325-2.611-0.978
			c-0.665-0.651-0.998-1.492-0.998-2.522c0-1.189,0.356-2.127,1.069-2.812c0.714-0.687,1.668-1.029,2.861-1.029
			c0.824,0,1.422,0.109,1.791,0.328v1.832c-0.451-0.337-0.955-0.506-1.511-0.506c-0.62,0-1.11,0.182-1.474,0.544
			c-0.361,0.362-0.543,0.862-0.543,1.5c0,0.62,0.174,1.106,0.52,1.46c0.346,0.353,0.822,0.529,1.429,0.529
			c0.538,0,1.063-0.168,1.579-0.506V26.774z"/>
		<path fill="#2F2F2F" d="M463.978,24.142h-4.566c0.073,1.017,0.714,1.524,1.922,1.524c0.77,0,1.446-0.182,2.029-0.547v1.559
			c-0.646,0.347-1.487,0.52-2.521,0.52c-1.131,0-2.008-0.313-2.633-0.939c-0.624-0.627-0.936-1.501-0.936-2.622
			c0-1.162,0.337-2.082,1.012-2.762c0.674-0.679,1.504-1.019,2.488-1.019c1.021,0,1.811,0.304,2.368,0.909
			c0.558,0.606,0.837,1.429,0.837,2.468V24.142z M461.976,22.816c0-1.002-0.406-1.504-1.217-1.504c-0.347,0-0.646,0.144-0.899,0.431
			s-0.407,0.646-0.462,1.073H461.976z"/>
	</g>
	<g>
		<path fill="#2F2F2F" d="M128.659,179.329v3.705h-1.148v-9.803h2.693c1.049,0,1.86,0.256,2.438,0.766
			c0.576,0.511,0.864,1.23,0.864,2.16s-0.32,1.691-0.96,2.283c-0.641,0.593-1.505,0.889-2.595,0.889H128.659z M128.659,174.27v4.02
			h1.203c0.793,0,1.398-0.181,1.815-0.543s0.625-0.874,0.625-1.535c0-1.294-0.766-1.941-2.297-1.941H128.659z"/>
		<path fill="#2F2F2F" d="M140.722,183.034h-1.121v-1.107h-0.027c-0.465,0.848-1.185,1.271-2.16,1.271
			c-1.668,0-2.502-0.993-2.502-2.98v-4.184h1.114v4.006c0,1.477,0.565,2.215,1.695,2.215c0.547,0,0.997-0.201,1.351-0.604
			c0.353-0.403,0.529-0.931,0.529-1.583v-4.033h1.121V183.034z"/>
		<path fill="#2F2F2F" d="M143.95,183.034h-1.121v-10.363h1.121V183.034z"/>
		<path fill="#2F2F2F" d="M147.183,183.034h-1.121v-10.363h1.121V183.034z"/>
		<path fill="#2F2F2F" d="M156.747,173.655c-0.219-0.123-0.467-0.185-0.745-0.185c-0.783,0-1.176,0.495-1.176,1.483v1.08h1.641
			v0.957h-1.641v6.043h-1.114v-6.043h-1.196v-0.957h1.196v-1.135c0-0.733,0.212-1.313,0.636-1.739
			c0.424-0.427,0.953-0.64,1.586-0.64c0.342,0,0.613,0.041,0.813,0.123V173.655z"/>
		<path fill="#2F2F2F" d="M161.358,177.169c-0.196-0.15-0.479-0.226-0.848-0.226c-0.479,0-0.879,0.226-1.2,0.677
			s-0.481,1.066-0.481,1.846v3.568h-1.121v-7h1.121v1.442h0.027c0.159-0.492,0.403-0.876,0.731-1.151
			c0.328-0.276,0.694-0.414,1.101-0.414c0.291,0,0.515,0.032,0.67,0.096V177.169z"/>
		<path fill="#2F2F2F" d="M165.501,183.198c-1.035,0-1.86-0.327-2.479-0.98c-0.617-0.654-0.926-1.521-0.926-2.602
			c0-1.176,0.321-2.094,0.964-2.755c0.643-0.66,1.511-0.991,2.604-0.991c1.043,0,1.858,0.321,2.443,0.964
			c0.586,0.643,0.879,1.534,0.879,2.673c0,1.117-0.315,2.011-0.947,2.684C167.409,182.862,166.562,183.198,165.501,183.198z
			 M165.583,176.813c-0.721,0-1.29,0.245-1.709,0.735c-0.42,0.489-0.629,1.165-0.629,2.026c0,0.83,0.212,1.483,0.636,1.962
			s0.991,0.718,1.702,0.718c0.725,0,1.281-0.234,1.671-0.704c0.39-0.469,0.585-1.137,0.585-2.003c0-0.875-0.195-1.549-0.585-2.023
			C166.864,177.05,166.307,176.813,165.583,176.813z"/>
		<path fill="#2F2F2F" d="M180.641,183.034h-1.121v-4.02c0-0.774-0.119-1.335-0.358-1.682c-0.239-0.346-0.642-0.52-1.207-0.52
			c-0.479,0-0.885,0.219-1.22,0.656s-0.503,0.962-0.503,1.572v3.992h-1.121v-4.156c0-1.376-0.53-2.064-1.593-2.064
			c-0.492,0-0.897,0.206-1.217,0.619c-0.318,0.412-0.479,0.949-0.479,1.609v3.992h-1.121v-7h1.121v1.107h0.027
			c0.497-0.848,1.222-1.271,2.174-1.271c0.479,0,0.896,0.134,1.251,0.4s0.6,0.616,0.731,1.049c0.52-0.966,1.295-1.449,2.324-1.449
			c1.541,0,2.311,0.95,2.311,2.851V183.034z"/>
		<path fill="#2F2F2F" d="M138.25,199.834h-2.153v-3.992c0-1.016-0.373-1.524-1.121-1.524c-0.355,0-0.645,0.153-0.868,0.458
			c-0.223,0.306-0.335,0.687-0.335,1.142v3.917h-2.16V195.8c0-0.988-0.366-1.483-1.101-1.483c-0.369,0-0.664,0.146-0.885,0.438
			c-0.222,0.292-0.332,0.688-0.332,1.189v3.89h-2.16v-7h2.16v1.094h0.027c0.224-0.373,0.537-0.678,0.94-0.912
			c0.403-0.235,0.844-0.353,1.322-0.353c0.989,0,1.666,0.436,2.03,1.306c0.533-0.87,1.317-1.306,2.352-1.306
			c1.522,0,2.283,0.939,2.283,2.816V199.834z"/>
		<path fill="#2F2F2F" d="M146.426,192.834l-2.844,7.561c-0.684,1.818-1.713,2.728-3.09,2.728c-0.523,0-0.954-0.059-1.292-0.178
			v-1.723c0.287,0.169,0.6,0.253,0.937,0.253c0.557,0,0.943-0.262,1.162-0.786l0.369-0.868l-2.844-6.986h2.393l1.306,4.259
			c0.082,0.265,0.146,0.577,0.191,0.937h0.027c0.041-0.264,0.116-0.571,0.226-0.923l1.319-4.272H146.426z"/>
		<path fill="#2F2F2F" d="M151.891,199.752c-0.318,0.169-0.8,0.253-1.442,0.253c-1.521,0-2.283-0.79-2.283-2.372v-3.206h-1.135
			v-1.593h1.135v-1.511l2.153-0.615v2.126h1.572v1.593h-1.572v2.83c0,0.729,0.29,1.094,0.868,1.094c0.229,0,0.463-0.065,0.704-0.198
			V199.752z"/>
		<path fill="#2F2F2F" d="M156.424,200.004c-1.166,0-2.084-0.327-2.751-0.98c-0.668-0.654-1.002-1.542-1.002-2.663
			c0-1.157,0.347-2.063,1.039-2.717c0.693-0.654,1.63-0.981,2.81-0.981c1.162,0,2.074,0.327,2.734,0.981
			c0.661,0.653,0.991,1.519,0.991,2.594c0,1.162-0.341,2.081-1.021,2.755C158.543,199.668,157.61,200.004,156.424,200.004z
			 M156.479,194.317c-0.51,0-0.906,0.176-1.189,0.526c-0.282,0.352-0.424,0.848-0.424,1.49c0,1.345,0.543,2.017,1.627,2.017
			c1.035,0,1.552-0.69,1.552-2.071C158.045,194.971,157.523,194.317,156.479,194.317z"/>
		<path fill="#2F2F2F" d="M163.815,199.02h-0.027v4.033h-2.16v-10.22h2.16v1.053h0.027c0.533-0.815,1.283-1.224,2.249-1.224
			c0.907,0,1.607,0.312,2.103,0.934c0.494,0.622,0.741,1.469,0.741,2.539c0,1.167-0.288,2.104-0.864,2.81
			c-0.577,0.707-1.344,1.06-2.301,1.06C164.9,200.004,164.257,199.676,163.815,199.02z M163.754,196.149v0.561
			c0,0.483,0.128,0.878,0.383,1.183c0.256,0.306,0.591,0.458,1.005,0.458c0.492,0,0.874-0.19,1.146-0.57
			c0.271-0.381,0.406-0.92,0.406-1.617c0-1.23-0.479-1.846-1.436-1.846c-0.441,0-0.803,0.168-1.083,0.503
			S163.754,195.598,163.754,196.149z"/>
		<path fill="#2F2F2F" d="M171.403,191.726c-0.364,0-0.663-0.108-0.896-0.324c-0.232-0.217-0.349-0.482-0.349-0.797
			c0-0.323,0.116-0.588,0.349-0.793s0.531-0.308,0.896-0.308c0.369,0,0.669,0.103,0.899,0.308c0.229,0.205,0.345,0.47,0.345,0.793
			c0,0.328-0.115,0.598-0.345,0.807C172.072,191.622,171.772,191.726,171.403,191.726z M172.469,199.834h-2.16v-7h2.16V199.834z"/>
		<path fill="#2F2F2F" d="M179.549,199.581c-0.488,0.283-1.192,0.424-2.112,0.424c-1.076,0-1.946-0.325-2.611-0.978
			c-0.666-0.651-0.998-1.492-0.998-2.522c0-1.189,0.356-2.127,1.069-2.812c0.714-0.687,1.667-1.029,2.861-1.029
			c0.824,0,1.422,0.109,1.791,0.328v1.832c-0.451-0.337-0.955-0.506-1.511-0.506c-0.62,0-1.111,0.182-1.474,0.544
			s-0.543,0.862-0.543,1.5c0,0.62,0.173,1.106,0.52,1.46c0.346,0.353,0.822,0.529,1.429,0.529c0.537,0,1.063-0.168,1.579-0.506
			V199.581z"/>
		<path fill="#2F2F2F" d="M186.489,190.031l-4.778,11.43h-1.928l4.758-11.43H186.489z"/>
		<path fill="#2F2F2F" d="M194.079,199.834h-2.153v-3.979c0-1.025-0.374-1.538-1.121-1.538c-0.383,0-0.693,0.144-0.93,0.431
			c-0.237,0.287-0.355,0.652-0.355,1.094v3.992h-2.16V189.47h2.16v4.402h0.027c0.528-0.807,1.246-1.21,2.153-1.21
			c1.586,0,2.379,0.957,2.379,2.871V199.834z"/>
		<path fill="#2F2F2F" d="M196.849,191.726c-0.365,0-0.663-0.108-0.896-0.324c-0.232-0.217-0.349-0.482-0.349-0.797
			c0-0.323,0.116-0.588,0.349-0.793s0.53-0.308,0.896-0.308c0.369,0,0.669,0.103,0.898,0.308c0.23,0.205,0.346,0.47,0.346,0.793
			c0,0.328-0.115,0.598-0.346,0.807C197.518,191.622,197.218,191.726,196.849,191.726z M197.916,199.834h-2.16v-7h2.16V199.834z"/>
		<path fill="#2F2F2F" d="M206.581,199.034c0,1.299-0.376,2.305-1.128,3.019c-0.752,0.713-1.842,1.069-3.268,1.069
			c-0.943,0-1.691-0.134-2.242-0.403V200.9c0.72,0.42,1.446,0.629,2.181,0.629c0.729,0,1.294-0.192,1.695-0.577
			c0.4-0.386,0.602-0.908,0.602-1.569v-0.554h-0.027c-0.492,0.784-1.22,1.176-2.181,1.176c-0.894,0-1.603-0.314-2.126-0.943
			c-0.524-0.629-0.786-1.472-0.786-2.529c0-1.185,0.291-2.126,0.875-2.823c0.583-0.697,1.351-1.046,2.304-1.046
			c0.852,0,1.49,0.328,1.914,0.984h0.027v-0.813h2.16V199.034z M204.448,196.47v-0.554c0-0.441-0.131-0.819-0.394-1.131
			c-0.262-0.312-0.603-0.469-1.021-0.469c-0.479,0-0.854,0.188-1.128,0.561c-0.273,0.374-0.41,0.9-0.41,1.579
			c0,0.584,0.13,1.045,0.39,1.385c0.26,0.339,0.615,0.509,1.066,0.509c0.446,0,0.808-0.172,1.083-0.516
			C204.31,197.49,204.448,197.036,204.448,196.47z"/>
		<path fill="#2F2F2F" d="M215.06,199.834h-2.153v-3.979c0-1.025-0.374-1.538-1.121-1.538c-0.383,0-0.693,0.144-0.93,0.431
			c-0.237,0.287-0.355,0.652-0.355,1.094v3.992h-2.16V189.47h2.16v4.402h0.027c0.528-0.807,1.246-1.21,2.153-1.21
			c1.586,0,2.379,0.957,2.379,2.871V199.834z"/>
		<path fill="#2F2F2F" d="M220.47,196.853h-3.739v-1.511h3.739V196.853z"/>
		<path fill="#2F2F2F" d="M224.368,199.02h-0.027v4.033h-2.16v-10.22h2.16v1.053h0.027c0.533-0.815,1.282-1.224,2.249-1.224
			c0.906,0,1.607,0.312,2.102,0.934c0.495,0.622,0.742,1.469,0.742,2.539c0,1.167-0.288,2.104-0.865,2.81
			c-0.576,0.707-1.343,1.06-2.3,1.06C225.452,200.004,224.809,199.676,224.368,199.02z M224.306,196.149v0.561
			c0,0.483,0.127,0.878,0.383,1.183c0.255,0.306,0.59,0.458,1.005,0.458c0.492,0,0.874-0.19,1.145-0.57
			c0.271-0.381,0.407-0.92,0.407-1.617c0-1.23-0.479-1.846-1.436-1.846c-0.442,0-0.804,0.168-1.084,0.503
			S224.306,195.598,224.306,196.149z"/>
		<path fill="#2F2F2F" d="M235.443,194.782c-0.26-0.141-0.562-0.212-0.909-0.212c-0.469,0-0.836,0.172-1.101,0.517
			c-0.264,0.344-0.396,0.812-0.396,1.404v3.343h-2.16v-7h2.16v1.299h0.027c0.342-0.947,0.957-1.422,1.846-1.422
			c0.229,0,0.406,0.027,0.533,0.082V194.782z"/>
		<path fill="#2F2F2F" d="M237.529,191.726c-0.364,0-0.663-0.108-0.896-0.324c-0.232-0.217-0.349-0.482-0.349-0.797
			c0-0.323,0.116-0.588,0.349-0.793s0.531-0.308,0.896-0.308c0.369,0,0.669,0.103,0.899,0.308c0.229,0.205,0.345,0.47,0.345,0.793
			c0,0.328-0.115,0.598-0.345,0.807C238.198,191.622,237.898,191.726,237.529,191.726z M238.595,199.834h-2.16v-7h2.16V199.834z"/>
		<path fill="#2F2F2F" d="M243.992,196.853h-3.739v-1.511h3.739V196.853z"/>
		<path fill="#2F2F2F" d="M249.21,200.004c-1.166,0-2.084-0.327-2.751-0.98c-0.668-0.654-1.002-1.542-1.002-2.663
			c0-1.157,0.347-2.063,1.039-2.717c0.693-0.654,1.63-0.981,2.81-0.981c1.162,0,2.074,0.327,2.734,0.981
			c0.661,0.653,0.991,1.519,0.991,2.594c0,1.162-0.341,2.081-1.021,2.755C251.328,199.668,250.395,200.004,249.21,200.004z
			 M249.264,194.317c-0.51,0-0.906,0.176-1.189,0.526c-0.282,0.352-0.424,0.848-0.424,1.49c0,1.345,0.543,2.017,1.627,2.017
			c1.035,0,1.552-0.69,1.552-2.071C250.83,194.971,250.308,194.317,249.264,194.317z"/>
		<path fill="#2F2F2F" d="M258.978,194.782c-0.26-0.141-0.563-0.212-0.909-0.212c-0.47,0-0.837,0.172-1.101,0.517
			c-0.265,0.344-0.396,0.812-0.396,1.404v3.343h-2.16v-7h2.16v1.299h0.027c0.342-0.947,0.957-1.422,1.846-1.422
			c0.228,0,0.405,0.027,0.533,0.082V194.782z"/>
		<path fill="#2F2F2F" d="M266.918,199.834h-2.16v-0.964h-0.027c-0.492,0.757-1.214,1.135-2.167,1.135
			c-0.875,0-1.579-0.309-2.112-0.926c-0.533-0.618-0.8-1.48-0.8-2.588c0-1.157,0.294-2.085,0.882-2.782s1.358-1.046,2.311-1.046
			c0.902,0,1.531,0.324,1.887,0.971h0.027v-4.163h2.16V199.834z M264.798,196.429v-0.526c0-0.455-0.132-0.834-0.396-1.135
			c-0.264-0.301-0.608-0.451-1.032-0.451c-0.479,0-0.852,0.188-1.121,0.564c-0.269,0.376-0.403,0.892-0.403,1.548
			c0,0.615,0.13,1.09,0.39,1.422c0.26,0.333,0.62,0.499,1.08,0.499c0.438,0,0.794-0.175,1.07-0.526
			C264.661,197.473,264.798,197.008,264.798,196.429z"/>
		<path fill="#2F2F2F" d="M275.025,196.949h-4.566c0.073,1.017,0.714,1.524,1.921,1.524c0.771,0,1.447-0.182,2.03-0.547v1.559
			c-0.646,0.347-1.487,0.52-2.522,0.52c-1.13,0-2.007-0.313-2.632-0.939c-0.624-0.627-0.937-1.501-0.937-2.622
			c0-1.162,0.338-2.082,1.012-2.762c0.675-0.679,1.504-1.019,2.488-1.019c1.021,0,1.811,0.304,2.369,0.909
			c0.558,0.606,0.837,1.429,0.837,2.468V196.949z M273.022,195.623c0-1.002-0.405-1.504-1.217-1.504
			c-0.346,0-0.646,0.144-0.898,0.431s-0.407,0.646-0.462,1.073H273.022z"/>
		<path fill="#2F2F2F" d="M280.957,194.782c-0.26-0.141-0.562-0.212-0.909-0.212c-0.469,0-0.836,0.172-1.101,0.517
			c-0.264,0.344-0.396,0.812-0.396,1.404v3.343h-2.16v-7h2.16v1.299h0.027c0.342-0.947,0.957-1.422,1.846-1.422
			c0.229,0,0.406,0.027,0.533,0.082V194.782z"/>
	</g>
	<g>
		<path fill="#2F2F2F" d="M659.238,68.582h-5.879v-9.803h5.653v1.798h-3.445v2.181h3.206v1.791h-3.206v2.242h3.671V68.582z"/>
		<path fill="#2F2F2F" d="M667.143,61.582l-2.604,7h-2.461l-2.481-7h2.311l1.217,4.313c0.137,0.488,0.216,0.902,0.239,1.244h0.027
			c0.031-0.323,0.116-0.725,0.253-1.203l1.244-4.354H667.143z"/>
		<path fill="#2F2F2F" d="M674.131,65.697h-4.566c0.072,1.017,0.713,1.524,1.921,1.524c0.77,0,1.446-0.182,2.03-0.547v1.559
			c-0.647,0.347-1.488,0.52-2.522,0.52c-1.131,0-2.008-0.313-2.632-0.939c-0.625-0.627-0.937-1.501-0.937-2.622
			c0-1.162,0.337-2.082,1.012-2.762c0.674-0.679,1.504-1.019,2.488-1.019c1.021,0,1.811,0.304,2.368,0.909
			c0.559,0.606,0.838,1.429,0.838,2.468V65.697z M672.129,64.371c0-1.002-0.406-1.504-1.217-1.504c-0.347,0-0.646,0.144-0.899,0.431
			s-0.406,0.646-0.461,1.073H672.129z"/>
		<path fill="#2F2F2F" d="M682.256,68.582h-2.153v-3.89c0-1.084-0.387-1.627-1.162-1.627c-0.373,0-0.681,0.144-0.923,0.431
			c-0.241,0.287-0.362,0.652-0.362,1.094v3.992h-2.16v-7h2.16v1.107h0.027c0.516-0.852,1.265-1.278,2.249-1.278
			c1.55,0,2.324,0.962,2.324,2.885V68.582z"/>
		<path fill="#2F2F2F" d="M688.106,68.5c-0.318,0.169-0.8,0.253-1.442,0.253c-1.521,0-2.283-0.79-2.283-2.372v-3.206h-1.135v-1.593
			h1.135v-1.511l2.153-0.615v2.126h1.572v1.593h-1.572v2.83c0,0.729,0.29,1.094,0.868,1.094c0.229,0,0.463-0.065,0.704-0.198V68.5z"
			/>
		<path fill="#2F2F2F" d="M692.727,68.397v-1.75c0.355,0.215,0.71,0.374,1.063,0.479c0.353,0.105,0.687,0.157,1.001,0.157
			c0.383,0,0.685-0.052,0.906-0.157c0.221-0.104,0.331-0.264,0.331-0.479c0-0.137-0.05-0.25-0.15-0.342
			c-0.1-0.091-0.229-0.171-0.386-0.239s-0.329-0.13-0.517-0.185c-0.187-0.055-0.366-0.116-0.54-0.185
			c-0.277-0.104-0.522-0.218-0.734-0.338c-0.212-0.121-0.39-0.261-0.533-0.421c-0.144-0.159-0.253-0.344-0.328-0.554
			c-0.075-0.209-0.113-0.458-0.113-0.745c0-0.392,0.086-0.729,0.257-1.012c0.171-0.282,0.398-0.514,0.684-0.693
			c0.284-0.181,0.61-0.312,0.978-0.396c0.366-0.085,0.748-0.127,1.145-0.127c0.311,0,0.625,0.024,0.943,0.072
			c0.319,0.048,0.634,0.117,0.943,0.208v1.668c-0.273-0.159-0.566-0.279-0.878-0.358c-0.312-0.08-0.619-0.12-0.92-0.12
			c-0.141,0-0.274,0.013-0.399,0.038c-0.126,0.024-0.236,0.062-0.332,0.109s-0.171,0.109-0.226,0.185s-0.082,0.16-0.082,0.256
			c0,0.128,0.041,0.237,0.123,0.328c0.082,0.092,0.189,0.17,0.321,0.236c0.133,0.065,0.279,0.125,0.441,0.178
			c0.161,0.052,0.322,0.105,0.481,0.16c0.287,0.101,0.547,0.21,0.779,0.328c0.232,0.119,0.432,0.258,0.599,0.417
			c0.166,0.16,0.294,0.347,0.383,0.561c0.089,0.215,0.133,0.47,0.133,0.766c0,0.415-0.09,0.77-0.27,1.063
			c-0.181,0.294-0.42,0.533-0.718,0.718c-0.299,0.185-0.643,0.318-1.032,0.403c-0.39,0.084-0.794,0.126-1.214,0.126
			C694.097,68.753,693.383,68.634,692.727,68.397z"/>
		<path fill="#2F2F2F" d="M706.056,68.582h-2.153v-1.066h-0.034c-0.533,0.825-1.247,1.237-2.14,1.237
			c-1.623,0-2.434-0.981-2.434-2.946v-4.225h2.153v4.033c0,0.989,0.392,1.483,1.176,1.483c0.387,0,0.697-0.136,0.93-0.406
			c0.232-0.271,0.349-0.64,0.349-1.104v-4.006h2.153V68.582z"/>
		<path fill="#2F2F2F" d="M710.011,67.768h-0.027v0.813h-2.16V58.218h2.16v4.416h0.027c0.533-0.815,1.292-1.224,2.276-1.224
			c0.902,0,1.598,0.311,2.085,0.93c0.488,0.62,0.731,1.468,0.731,2.543c0,1.167-0.284,2.104-0.854,2.81
			c-0.569,0.707-1.33,1.06-2.283,1.06C711.105,68.753,710.454,68.424,710.011,67.768z M709.95,64.815v0.718
			c0,0.451,0.13,0.825,0.39,1.121c0.26,0.297,0.593,0.444,0.998,0.444c0.492,0,0.874-0.19,1.146-0.57
			c0.271-0.381,0.406-0.92,0.406-1.617c0-0.578-0.124-1.031-0.372-1.356c-0.249-0.326-0.603-0.489-1.063-0.489
			c-0.433,0-0.792,0.162-1.076,0.485C710.092,63.875,709.95,64.296,709.95,64.815z"/>
		<path fill="#2F2F2F" d="M716.144,68.397v-1.75c0.355,0.215,0.71,0.374,1.063,0.479c0.353,0.105,0.687,0.157,1.001,0.157
			c0.383,0,0.685-0.052,0.906-0.157c0.221-0.104,0.331-0.264,0.331-0.479c0-0.137-0.05-0.25-0.15-0.342
			c-0.1-0.091-0.229-0.171-0.386-0.239s-0.329-0.13-0.517-0.185c-0.187-0.055-0.366-0.116-0.54-0.185
			c-0.277-0.104-0.522-0.218-0.734-0.338c-0.212-0.121-0.39-0.261-0.533-0.421c-0.144-0.159-0.253-0.344-0.328-0.554
			c-0.075-0.209-0.113-0.458-0.113-0.745c0-0.392,0.086-0.729,0.257-1.012c0.171-0.282,0.398-0.514,0.684-0.693
			c0.284-0.181,0.61-0.312,0.978-0.396c0.366-0.085,0.748-0.127,1.145-0.127c0.311,0,0.625,0.024,0.943,0.072
			c0.319,0.048,0.634,0.117,0.943,0.208v1.668c-0.273-0.159-0.566-0.279-0.878-0.358c-0.312-0.08-0.619-0.12-0.92-0.12
			c-0.141,0-0.274,0.013-0.399,0.038c-0.126,0.024-0.236,0.062-0.332,0.109s-0.171,0.109-0.226,0.185s-0.082,0.16-0.082,0.256
			c0,0.128,0.041,0.237,0.123,0.328c0.082,0.092,0.189,0.17,0.321,0.236c0.133,0.065,0.279,0.125,0.441,0.178
			c0.161,0.052,0.322,0.105,0.481,0.16c0.287,0.101,0.547,0.21,0.779,0.328c0.232,0.119,0.432,0.258,0.599,0.417
			c0.166,0.16,0.294,0.347,0.383,0.561c0.089,0.215,0.133,0.47,0.133,0.766c0,0.415-0.09,0.77-0.27,1.063
			c-0.181,0.294-0.42,0.533-0.718,0.718c-0.299,0.185-0.643,0.318-1.032,0.403c-0.39,0.084-0.794,0.126-1.214,0.126
			C717.514,68.753,716.8,68.634,716.144,68.397z"/>
		<path fill="#2F2F2F" d="M728.11,68.329c-0.488,0.283-1.192,0.424-2.112,0.424c-1.076,0-1.946-0.325-2.611-0.978
			c-0.666-0.651-0.998-1.492-0.998-2.522c0-1.189,0.356-2.127,1.069-2.812c0.714-0.687,1.667-1.029,2.861-1.029
			c0.824,0,1.422,0.109,1.791,0.328v1.832c-0.451-0.337-0.955-0.506-1.511-0.506c-0.62,0-1.111,0.182-1.474,0.544
			s-0.543,0.862-0.543,1.5c0,0.62,0.173,1.106,0.52,1.46c0.346,0.353,0.822,0.529,1.429,0.529c0.537,0,1.063-0.168,1.579-0.506
			V68.329z"/>
		<path fill="#2F2F2F" d="M734.193,63.53c-0.26-0.141-0.562-0.212-0.909-0.212c-0.469,0-0.836,0.172-1.101,0.517
			c-0.264,0.344-0.396,0.812-0.396,1.404v3.343h-2.16v-7h2.16v1.299h0.027c0.342-0.947,0.957-1.422,1.846-1.422
			c0.229,0,0.406,0.027,0.533,0.082V63.53z"/>
		<path fill="#2F2F2F" d="M736.279,60.474c-0.364,0-0.663-0.108-0.896-0.324c-0.232-0.217-0.349-0.482-0.349-0.797
			c0-0.323,0.116-0.588,0.349-0.793s0.531-0.308,0.896-0.308c0.369,0,0.669,0.103,0.899,0.308c0.229,0.205,0.345,0.47,0.345,0.793
			c0,0.328-0.115,0.598-0.345,0.807C736.948,60.37,736.648,60.474,736.279,60.474z M737.345,68.582h-2.16v-7h2.16V68.582z"/>
		<path fill="#2F2F2F" d="M741.315,67.768h-0.027v4.033h-2.16v-10.22h2.16v1.053h0.027c0.533-0.815,1.282-1.224,2.249-1.224
			c0.906,0,1.607,0.312,2.102,0.934c0.495,0.622,0.742,1.469,0.742,2.539c0,1.167-0.288,2.104-0.865,2.81
			c-0.576,0.707-1.343,1.06-2.3,1.06C742.399,68.753,741.756,68.424,741.315,67.768z M741.254,64.897v0.561
			c0,0.483,0.127,0.878,0.383,1.183c0.255,0.306,0.59,0.458,1.005,0.458c0.492,0,0.874-0.19,1.145-0.57
			c0.271-0.381,0.407-0.92,0.407-1.617c0-1.23-0.479-1.846-1.436-1.846c-0.442,0-0.804,0.168-1.084,0.503
			S741.254,64.346,741.254,64.897z"/>
		<path fill="#2F2F2F" d="M752.034,68.5c-0.319,0.169-0.8,0.253-1.442,0.253c-1.522,0-2.283-0.79-2.283-2.372v-3.206h-1.135v-1.593
			h1.135v-1.511l2.153-0.615v2.126h1.572v1.593h-1.572v2.83c0,0.729,0.289,1.094,0.868,1.094c0.228,0,0.462-0.065,0.704-0.198V68.5z
			"/>
		<path fill="#2F2F2F" d="M754.412,60.474c-0.365,0-0.663-0.108-0.896-0.324c-0.232-0.217-0.349-0.482-0.349-0.797
			c0-0.323,0.116-0.588,0.349-0.793s0.53-0.308,0.896-0.308c0.369,0,0.669,0.103,0.898,0.308c0.23,0.205,0.346,0.47,0.346,0.793
			c0,0.328-0.115,0.598-0.346,0.807C755.081,60.37,754.781,60.474,754.412,60.474z M755.478,68.582h-2.16v-7h2.16V68.582z"/>
		<path fill="#2F2F2F" d="M760.589,68.753c-1.166,0-2.084-0.327-2.751-0.98c-0.668-0.654-1.002-1.542-1.002-2.663
			c0-1.157,0.347-2.063,1.039-2.717c0.693-0.654,1.63-0.981,2.81-0.981c1.162,0,2.074,0.327,2.734,0.981
			c0.661,0.653,0.991,1.519,0.991,2.594c0,1.162-0.341,2.081-1.021,2.755C762.707,68.416,761.774,68.753,760.589,68.753z
			 M760.643,63.065c-0.51,0-0.906,0.176-1.189,0.526c-0.282,0.352-0.424,0.848-0.424,1.49c0,1.345,0.543,2.017,1.627,2.017
			c1.035,0,1.552-0.69,1.552-2.071C762.209,63.719,761.687,63.065,760.643,63.065z"/>
		<path fill="#2F2F2F" d="M772.551,68.582h-2.153v-3.89c0-1.084-0.388-1.627-1.162-1.627c-0.374,0-0.682,0.144-0.923,0.431
			c-0.242,0.287-0.362,0.652-0.362,1.094v3.992h-2.16v-7h2.16v1.107h0.027c0.515-0.852,1.265-1.278,2.249-1.278
			c1.549,0,2.324,0.962,2.324,2.885V68.582z"/>
		<path fill="#2F2F2F" d="M773.925,68.397v-1.75c0.355,0.215,0.71,0.374,1.062,0.479c0.354,0.105,0.688,0.157,1.002,0.157
			c0.383,0,0.685-0.052,0.905-0.157c0.222-0.104,0.332-0.264,0.332-0.479c0-0.137-0.051-0.25-0.15-0.342
			c-0.101-0.091-0.229-0.171-0.387-0.239s-0.329-0.13-0.516-0.185c-0.188-0.055-0.367-0.116-0.54-0.185
			c-0.278-0.104-0.523-0.218-0.735-0.338c-0.212-0.121-0.39-0.261-0.533-0.421c-0.144-0.159-0.253-0.344-0.328-0.554
			c-0.075-0.209-0.112-0.458-0.112-0.745c0-0.392,0.085-0.729,0.256-1.012c0.171-0.282,0.399-0.514,0.684-0.693
			c0.285-0.181,0.611-0.312,0.978-0.396c0.367-0.085,0.749-0.127,1.146-0.127c0.31,0,0.624,0.024,0.943,0.072
			c0.318,0.048,0.633,0.117,0.943,0.208v1.668c-0.273-0.159-0.566-0.279-0.879-0.358c-0.312-0.08-0.618-0.12-0.919-0.12
			c-0.142,0-0.274,0.013-0.4,0.038c-0.125,0.024-0.235,0.062-0.331,0.109s-0.171,0.109-0.226,0.185s-0.082,0.16-0.082,0.256
			c0,0.128,0.041,0.237,0.123,0.328c0.082,0.092,0.188,0.17,0.321,0.236c0.132,0.065,0.279,0.125,0.44,0.178
			c0.162,0.052,0.322,0.105,0.482,0.16c0.287,0.101,0.547,0.21,0.779,0.328c0.232,0.119,0.432,0.258,0.598,0.417
			c0.167,0.16,0.294,0.347,0.383,0.561c0.089,0.215,0.134,0.47,0.134,0.766c0,0.415-0.09,0.77-0.271,1.063
			c-0.18,0.294-0.419,0.533-0.718,0.718c-0.298,0.185-0.643,0.318-1.032,0.403c-0.39,0.084-0.794,0.126-1.213,0.126
			C775.295,68.753,774.582,68.634,773.925,68.397z"/>
	</g>
	<g>
		<path fill="#2F2F2F" d="M477.954,60.577h-2.796v8.005h-2.215v-8.005h-2.782v-1.798h7.793V60.577z"/>
		<path fill="#2F2F2F" d="M481.361,68.753c-1.167,0-2.084-0.327-2.752-0.98c-0.667-0.654-1.001-1.542-1.001-2.663
			c0-1.157,0.346-2.063,1.039-2.717c0.692-0.654,1.629-0.981,2.81-0.981c1.162,0,2.073,0.327,2.734,0.981
			c0.66,0.653,0.991,1.519,0.991,2.594c0,1.162-0.341,2.081-1.022,2.755C483.479,68.416,482.546,68.753,481.361,68.753z
			 M481.416,63.065c-0.511,0-0.907,0.176-1.189,0.526c-0.283,0.352-0.424,0.848-0.424,1.49c0,1.345,0.542,2.017,1.627,2.017
			c1.034,0,1.552-0.69,1.552-2.071C482.981,63.719,482.459,63.065,481.416,63.065z"/>
		<path fill="#2F2F2F" d="M488.75,67.768h-0.027v4.033h-2.16v-10.22h2.16v1.053h0.027c0.533-0.815,1.283-1.224,2.249-1.224
			c0.907,0,1.607,0.312,2.103,0.934c0.494,0.622,0.741,1.469,0.741,2.539c0,1.167-0.288,2.104-0.864,2.81
			c-0.577,0.707-1.344,1.06-2.301,1.06C489.835,68.753,489.192,68.424,488.75,67.768z M488.688,64.897v0.561
			c0,0.483,0.128,0.878,0.383,1.183c0.256,0.306,0.591,0.458,1.005,0.458c0.492,0,0.874-0.19,1.146-0.57
			c0.271-0.381,0.406-0.92,0.406-1.617c0-1.23-0.479-1.846-1.436-1.846c-0.441,0-0.803,0.168-1.083,0.503
			S488.688,64.346,488.688,64.897z"/>
		<path fill="#2F2F2F" d="M496.337,60.474c-0.364,0-0.663-0.108-0.896-0.324c-0.232-0.217-0.349-0.482-0.349-0.797
			c0-0.323,0.116-0.588,0.349-0.793s0.531-0.308,0.896-0.308c0.369,0,0.669,0.103,0.899,0.308c0.229,0.205,0.345,0.47,0.345,0.793
			c0,0.328-0.115,0.598-0.345,0.807C497.006,60.37,496.707,60.474,496.337,60.474z M497.404,68.582h-2.16v-7h2.16V68.582z"/>
		<path fill="#2F2F2F" d="M504.484,68.329c-0.488,0.283-1.192,0.424-2.112,0.424c-1.076,0-1.946-0.325-2.611-0.978
			c-0.666-0.651-0.998-1.492-0.998-2.522c0-1.189,0.356-2.127,1.069-2.812c0.714-0.687,1.667-1.029,2.861-1.029
			c0.824,0,1.422,0.109,1.791,0.328v1.832c-0.451-0.337-0.955-0.506-1.511-0.506c-0.62,0-1.111,0.182-1.474,0.544
			s-0.543,0.862-0.543,1.5c0,0.62,0.173,1.106,0.52,1.46c0.346,0.353,0.822,0.529,1.429,0.529c0.537,0,1.063-0.168,1.579-0.506
			V68.329z"/>
		<path fill="#2F2F2F" d="M505.655,68.397v-1.75c0.355,0.215,0.71,0.374,1.063,0.479c0.353,0.105,0.687,0.157,1.001,0.157
			c0.383,0,0.685-0.052,0.906-0.157c0.221-0.104,0.331-0.264,0.331-0.479c0-0.137-0.05-0.25-0.15-0.342
			c-0.1-0.091-0.229-0.171-0.386-0.239s-0.329-0.13-0.517-0.185c-0.187-0.055-0.366-0.116-0.54-0.185
			c-0.277-0.104-0.522-0.218-0.734-0.338c-0.212-0.121-0.39-0.261-0.533-0.421c-0.144-0.159-0.253-0.344-0.328-0.554
			c-0.075-0.209-0.113-0.458-0.113-0.745c0-0.392,0.086-0.729,0.257-1.012c0.171-0.282,0.398-0.514,0.684-0.693
			c0.284-0.181,0.61-0.312,0.978-0.396c0.366-0.085,0.748-0.127,1.145-0.127c0.311,0,0.625,0.024,0.943,0.072
			c0.319,0.048,0.634,0.117,0.943,0.208v1.668c-0.273-0.159-0.566-0.279-0.878-0.358c-0.312-0.08-0.619-0.12-0.92-0.12
			c-0.141,0-0.274,0.013-0.399,0.038c-0.126,0.024-0.236,0.062-0.332,0.109s-0.171,0.109-0.226,0.185s-0.082,0.16-0.082,0.256
			c0,0.128,0.041,0.237,0.123,0.328c0.082,0.092,0.189,0.17,0.321,0.236c0.133,0.065,0.279,0.125,0.441,0.178
			c0.161,0.052,0.322,0.105,0.481,0.16c0.287,0.101,0.547,0.21,0.779,0.328c0.232,0.119,0.432,0.258,0.599,0.417
			c0.166,0.16,0.294,0.347,0.383,0.561c0.089,0.215,0.133,0.47,0.133,0.766c0,0.415-0.09,0.77-0.27,1.063
			c-0.181,0.294-0.42,0.533-0.718,0.718c-0.299,0.185-0.643,0.318-1.032,0.403c-0.39,0.084-0.794,0.126-1.214,0.126
			C507.025,68.753,506.311,68.634,505.655,68.397z"/>
	</g>
	<g>
		<path fill="#2F2F2F" d="M21.896,98.541v3.705h-1.148v-9.803h2.693c1.048,0,1.86,0.256,2.437,0.766
			c0.577,0.511,0.865,1.23,0.865,2.16s-0.32,1.691-0.961,2.283c-0.64,0.593-1.505,0.889-2.594,0.889H21.896z M21.896,93.482v4.02
			h1.203c0.793,0,1.397-0.181,1.814-0.543s0.626-0.874,0.626-1.535c0-1.294-0.766-1.941-2.297-1.941H21.896z"/>
		<path fill="#2F2F2F" d="M33.96,102.246h-1.121v-1.107h-0.027c-0.465,0.848-1.186,1.271-2.16,1.271
			c-1.668,0-2.502-0.993-2.502-2.98v-4.184h1.114v4.006c0,1.477,0.564,2.215,1.695,2.215c0.547,0,0.997-0.201,1.35-0.604
			c0.354-0.403,0.53-0.931,0.53-1.583v-4.033h1.121V102.246z"/>
		<path fill="#2F2F2F" d="M37.215,101.234h-0.027v1.012h-1.121V91.882h1.121v4.594h0.027c0.551-0.93,1.357-1.395,2.42-1.395
			c0.897,0,1.601,0.313,2.108,0.94c0.509,0.626,0.763,1.466,0.763,2.519c0,1.172-0.285,2.109-0.854,2.813
			c-0.57,0.704-1.35,1.056-2.338,1.056C38.388,102.41,37.689,102.018,37.215,101.234z M37.188,98.411v0.978
			c0,0.579,0.188,1.07,0.563,1.474s0.854,0.604,1.433,0.604c0.679,0,1.211-0.26,1.596-0.779c0.386-0.52,0.578-1.241,0.578-2.167
			c0-0.779-0.181-1.39-0.54-1.832c-0.36-0.441-0.848-0.663-1.463-0.663c-0.652,0-1.176,0.227-1.572,0.681
			C37.386,97.159,37.188,97.727,37.188,98.411z"/>
		<path fill="#2F2F2F" d="M45.357,102.246h-1.121V91.882h1.121V102.246z"/>
		<path fill="#2F2F2F" d="M48.044,93.468c-0.2,0-0.371-0.068-0.513-0.205c-0.141-0.137-0.212-0.31-0.212-0.52
			c0-0.209,0.071-0.384,0.212-0.522c0.142-0.14,0.312-0.209,0.513-0.209c0.205,0,0.38,0.069,0.523,0.209
			c0.144,0.139,0.215,0.313,0.215,0.522c0,0.201-0.071,0.372-0.215,0.513C48.423,93.398,48.249,93.468,48.044,93.468z
			 M48.59,102.246h-1.121v-7h1.121V102.246z"/>
		<path fill="#2F2F2F" d="M50.307,101.993v-1.203c0.611,0.451,1.283,0.677,2.017,0.677c0.984,0,1.477-0.328,1.477-0.984
			c0-0.187-0.042-0.345-0.126-0.475c-0.085-0.13-0.198-0.245-0.342-0.346c-0.144-0.1-0.312-0.19-0.506-0.27
			c-0.194-0.08-0.402-0.163-0.626-0.25c-0.31-0.123-0.582-0.247-0.816-0.372c-0.235-0.126-0.431-0.267-0.588-0.424
			s-0.276-0.336-0.355-0.537c-0.08-0.2-0.12-0.435-0.12-0.704c0-0.328,0.075-0.618,0.226-0.871s0.352-0.465,0.602-0.636
			c0.251-0.171,0.537-0.3,0.858-0.387c0.321-0.086,0.652-0.13,0.994-0.13c0.606,0,1.148,0.105,1.627,0.314v1.135
			c-0.515-0.337-1.107-0.506-1.777-0.506c-0.209,0-0.398,0.024-0.567,0.072c-0.168,0.048-0.313,0.115-0.434,0.201
			c-0.121,0.087-0.215,0.19-0.28,0.312c-0.066,0.12-0.1,0.254-0.1,0.399c0,0.183,0.033,0.335,0.1,0.458
			c0.065,0.123,0.163,0.232,0.29,0.328c0.128,0.096,0.283,0.183,0.465,0.26c0.183,0.078,0.39,0.162,0.622,0.253
			c0.311,0.119,0.588,0.24,0.834,0.366c0.246,0.125,0.456,0.267,0.629,0.424c0.174,0.157,0.307,0.338,0.4,0.543
			c0.093,0.205,0.14,0.449,0.14,0.731c0,0.347-0.076,0.647-0.229,0.902c-0.153,0.256-0.356,0.468-0.612,0.636
			c-0.255,0.169-0.549,0.294-0.882,0.376c-0.332,0.082-0.681,0.123-1.046,0.123C51.461,102.41,50.837,102.271,50.307,101.993z"/>
		<path fill="#2F2F2F" d="M62.343,102.246h-1.121v-4.033c0-1.458-0.542-2.188-1.627-2.188c-0.547,0-1.007,0.211-1.381,0.633
			c-0.373,0.421-0.561,0.963-0.561,1.623v3.965h-1.121V91.882h1.121v4.525h0.027c0.538-0.884,1.304-1.326,2.297-1.326
			c1.577,0,2.365,0.95,2.365,2.851V102.246z"/>
		<path fill="#2F2F2F" d="M70.046,99.026h-4.942c0.019,0.779,0.229,1.381,0.629,1.805c0.401,0.424,0.953,0.636,1.654,0.636
			c0.789,0,1.514-0.26,2.174-0.779v1.053c-0.615,0.447-1.429,0.67-2.44,0.67c-0.988,0-1.766-0.317-2.331-0.953
			c-0.564-0.636-0.848-1.53-0.848-2.684c0-1.089,0.309-1.977,0.927-2.662c0.617-0.687,1.384-1.029,2.3-1.029
			s1.625,0.297,2.126,0.889c0.502,0.593,0.752,1.415,0.752,2.468V99.026z M68.898,98.076c-0.004-0.646-0.16-1.15-0.468-1.511
			c-0.308-0.359-0.735-0.54-1.282-0.54c-0.528,0-0.978,0.189-1.347,0.567c-0.369,0.379-0.597,0.873-0.684,1.483H68.898z"/>
		<path fill="#2F2F2F" d="M75.379,96.38c-0.195-0.15-0.479-0.226-0.848-0.226c-0.479,0-0.878,0.226-1.199,0.677
			s-0.482,1.066-0.482,1.846v3.568h-1.121v-7h1.121v1.442h0.027c0.16-0.492,0.403-0.876,0.731-1.151
			c0.328-0.276,0.695-0.414,1.101-0.414c0.292,0,0.516,0.032,0.67,0.096V96.38z"/>
	</g>
	<g>
		<path fill="#2F2F2F" d="M21.175,162.535c-0.725,0.383-1.627,0.574-2.707,0.574c-1.395,0-2.512-0.449-3.35-1.347
			c-0.839-0.898-1.258-2.076-1.258-3.534c0-1.568,0.472-2.835,1.415-3.801c0.943-0.967,2.14-1.449,3.589-1.449
			c0.93,0,1.699,0.134,2.311,0.403v1.224c-0.702-0.393-1.477-0.588-2.324-0.588c-1.126,0-2.038,0.376-2.738,1.128
			c-0.699,0.752-1.049,1.757-1.049,3.015c0,1.193,0.327,2.146,0.98,2.854c0.654,0.709,1.512,1.063,2.574,1.063
			c0.984,0,1.836-0.219,2.557-0.656V162.535z"/>
		<path fill="#2F2F2F" d="M25.724,163.109c-1.035,0-1.86-0.327-2.479-0.981c-0.617-0.653-0.926-1.521-0.926-2.601
			c0-1.176,0.321-2.095,0.964-2.755c0.643-0.661,1.511-0.991,2.604-0.991c1.043,0,1.858,0.321,2.443,0.964
			c0.586,0.643,0.879,1.533,0.879,2.673c0,1.116-0.315,2.011-0.947,2.683C27.632,162.773,26.786,163.109,25.724,163.109z
			 M25.806,156.724c-0.721,0-1.29,0.245-1.709,0.734c-0.42,0.49-0.629,1.166-0.629,2.027c0,0.829,0.212,1.483,0.636,1.962
			s0.991,0.718,1.702,0.718c0.725,0,1.281-0.235,1.671-0.704c0.39-0.47,0.585-1.138,0.585-2.003c0-0.875-0.195-1.55-0.585-2.023
			C27.087,156.961,26.531,156.724,25.806,156.724z"/>
		<path fill="#2F2F2F" d="M36.736,162.945h-1.121v-3.992c0-1.486-0.542-2.229-1.627-2.229c-0.561,0-1.024,0.211-1.391,0.632
			c-0.367,0.422-0.551,0.954-0.551,1.597v3.992h-1.121v-7h1.121v1.162h0.027c0.529-0.885,1.295-1.326,2.297-1.326
			c0.766,0,1.352,0.247,1.757,0.741c0.406,0.495,0.608,1.209,0.608,2.144V162.945z"/>
		<path fill="#2F2F2F" d="M38.384,162.692v-1.203c0.61,0.451,1.282,0.677,2.017,0.677c0.984,0,1.477-0.328,1.477-0.984
			c0-0.188-0.042-0.346-0.127-0.476c-0.084-0.13-0.198-0.245-0.342-0.345c-0.144-0.101-0.312-0.19-0.506-0.271
			c-0.193-0.079-0.402-0.163-0.625-0.249c-0.311-0.123-0.582-0.247-0.817-0.373c-0.234-0.125-0.431-0.267-0.588-0.424
			s-0.275-0.336-0.355-0.536c-0.079-0.201-0.119-0.436-0.119-0.704c0-0.328,0.075-0.619,0.226-0.872s0.351-0.465,0.602-0.636
			c0.25-0.171,0.536-0.3,0.857-0.386c0.321-0.087,0.653-0.13,0.995-0.13c0.605,0,1.148,0.104,1.627,0.314v1.135
			c-0.516-0.338-1.107-0.506-1.777-0.506c-0.21,0-0.399,0.023-0.567,0.071c-0.169,0.048-0.313,0.115-0.435,0.202
			c-0.12,0.086-0.214,0.19-0.28,0.311c-0.065,0.121-0.099,0.254-0.099,0.4c0,0.182,0.033,0.335,0.099,0.458
			c0.066,0.123,0.163,0.232,0.291,0.328c0.127,0.096,0.282,0.182,0.465,0.26c0.182,0.077,0.39,0.161,0.622,0.253
			c0.31,0.118,0.588,0.24,0.834,0.365c0.246,0.126,0.455,0.267,0.629,0.424c0.173,0.157,0.307,0.339,0.399,0.544
			c0.094,0.205,0.141,0.448,0.141,0.731c0,0.346-0.076,0.646-0.229,0.902c-0.152,0.255-0.356,0.467-0.611,0.636
			c-0.256,0.168-0.55,0.294-0.882,0.376c-0.333,0.082-0.682,0.123-1.046,0.123C39.537,163.109,38.913,162.969,38.384,162.692z"/>
		<path fill="#2F2F2F" d="M50.293,162.945h-1.121v-1.107h-0.027c-0.465,0.848-1.186,1.271-2.16,1.271
			c-1.668,0-2.502-0.994-2.502-2.98v-4.184h1.114v4.006c0,1.477,0.564,2.215,1.695,2.215c0.547,0,0.997-0.202,1.35-0.605
			c0.354-0.403,0.53-0.931,0.53-1.582v-4.033h1.121V162.945z"/>
		<path fill="#2F2F2F" d="M62.339,162.945h-1.121v-4.02c0-0.775-0.12-1.336-0.359-1.682c-0.239-0.347-0.642-0.52-1.206-0.52
			c-0.479,0-0.886,0.219-1.221,0.656s-0.502,0.961-0.502,1.572v3.992h-1.121v-4.156c0-1.377-0.531-2.064-1.593-2.064
			c-0.492,0-0.898,0.206-1.217,0.618c-0.319,0.413-0.479,0.949-0.479,1.61v3.992H52.4v-7h1.121v1.107h0.027
			c0.496-0.848,1.221-1.271,2.174-1.271c0.479,0,0.896,0.133,1.251,0.399s0.599,0.616,0.731,1.05
			c0.52-0.967,1.294-1.449,2.324-1.449c1.54,0,2.311,0.95,2.311,2.851V162.945z"/>
		<path fill="#2F2F2F" d="M70.046,159.725h-4.942c0.018,0.779,0.228,1.381,0.629,1.805c0.4,0.424,0.952,0.636,1.654,0.636
			c0.788,0,1.513-0.26,2.174-0.779v1.053c-0.615,0.446-1.429,0.67-2.44,0.67c-0.989,0-1.767-0.318-2.331-0.954
			c-0.565-0.636-0.848-1.53-0.848-2.683c0-1.09,0.309-1.977,0.926-2.663c0.618-0.686,1.385-1.028,2.301-1.028
			s1.624,0.296,2.126,0.889c0.501,0.592,0.752,1.415,0.752,2.468V159.725z M68.898,158.775c-0.005-0.647-0.161-1.151-0.469-1.511
			c-0.308-0.36-0.734-0.54-1.281-0.54c-0.529,0-0.978,0.188-1.347,0.567c-0.369,0.378-0.598,0.872-0.684,1.483H68.898z"/>
		<path fill="#2F2F2F" d="M75.379,157.08c-0.195-0.15-0.479-0.226-0.848-0.226c-0.479,0-0.878,0.226-1.199,0.677
			s-0.482,1.066-0.482,1.846v3.568h-1.121v-7h1.121v1.442h0.027c0.16-0.492,0.403-0.876,0.731-1.152
			c0.328-0.275,0.695-0.413,1.101-0.413c0.292,0,0.516,0.031,0.67,0.096V157.08z"/>
	</g>
	<g>
		<path fill="#737474" d="M352.401,145.555h-0.984v-3.832h-4.348v3.832h-0.984v-8.402h0.984v3.686h4.348v-3.686h0.984V145.555z"/>
		<path fill="#737474" d="M359.447,138.044h-2.426v7.512h-0.984v-7.512h-2.42v-0.891h5.83V138.044z"/>
		<path fill="#737474" d="M366.046,138.044h-2.426v7.512h-0.984v-7.512h-2.42v-0.891h5.83V138.044z"/>
		<path fill="#737474" d="M368.235,142.379v3.176h-0.984v-8.402h2.309c0.898,0,1.595,0.219,2.089,0.656s0.741,1.055,0.741,1.852
			s-0.274,1.449-0.823,1.957s-1.29,0.762-2.224,0.762H368.235z M368.235,138.044v3.445h1.031c0.68,0,1.198-0.155,1.556-0.466
			s0.536-0.749,0.536-1.315c0-1.109-0.656-1.664-1.969-1.664H368.235z"/>
	</g>
	<g>
		<g>
			<path fill="#2F2F2F" d="M475.765,231.597h-2.153v-3.992c0-1.016-0.373-1.524-1.121-1.524c-0.355,0-0.645,0.153-0.868,0.458
				c-0.223,0.306-0.335,0.687-0.335,1.142v3.917h-2.16v-4.033c0-0.988-0.366-1.483-1.101-1.483c-0.369,0-0.664,0.146-0.885,0.438
				c-0.222,0.292-0.332,0.688-0.332,1.189v3.89h-2.16v-7h2.16v1.094h0.027c0.224-0.373,0.537-0.678,0.94-0.912
				c0.403-0.235,0.844-0.353,1.322-0.353c0.989,0,1.666,0.436,2.03,1.306c0.533-0.87,1.317-1.306,2.352-1.306
				c1.522,0,2.283,0.939,2.283,2.816V231.597z"/>
			<path fill="#2F2F2F" d="M483.942,224.597l-2.844,7.561c-0.684,1.818-1.713,2.728-3.09,2.728c-0.523,0-0.954-0.059-1.292-0.178
				v-1.723c0.287,0.169,0.6,0.253,0.937,0.253c0.557,0,0.943-0.262,1.162-0.786l0.369-0.868l-2.844-6.986h2.393l1.306,4.259
				c0.082,0.265,0.146,0.577,0.191,0.937h0.027c0.041-0.264,0.116-0.571,0.226-0.923l1.319-4.272H483.942z"/>
			<path fill="#2F2F2F" d="M489.407,231.515c-0.318,0.169-0.8,0.253-1.442,0.253c-1.521,0-2.283-0.79-2.283-2.372v-3.206h-1.135
				v-1.593h1.135v-1.511l2.153-0.615v2.126h1.572v1.593h-1.572v2.83c0,0.729,0.29,1.094,0.868,1.094
				c0.229,0,0.463-0.065,0.704-0.198V231.515z"/>
			<path fill="#2F2F2F" d="M493.94,231.768c-1.166,0-2.084-0.327-2.751-0.98c-0.668-0.654-1.002-1.542-1.002-2.663
				c0-1.157,0.347-2.063,1.039-2.717c0.693-0.654,1.63-0.981,2.81-0.981c1.162,0,2.074,0.327,2.734,0.981
				c0.661,0.653,0.991,1.519,0.991,2.594c0,1.162-0.341,2.081-1.021,2.755C496.058,231.431,495.126,231.768,493.94,231.768z
				 M493.995,226.081c-0.51,0-0.906,0.176-1.189,0.526c-0.282,0.352-0.424,0.848-0.424,1.49c0,1.345,0.543,2.017,1.627,2.017
				c1.035,0,1.552-0.69,1.552-2.071C495.56,226.735,495.039,226.081,493.995,226.081z"/>
			<path fill="#2F2F2F" d="M501.331,230.784h-0.027v4.033h-2.16v-10.22h2.16v1.053h0.027c0.533-0.815,1.283-1.224,2.249-1.224
				c0.907,0,1.607,0.312,2.103,0.934c0.494,0.622,0.741,1.469,0.741,2.539c0,1.167-0.288,2.104-0.864,2.81
				c-0.577,0.707-1.344,1.06-2.301,1.06C502.416,231.768,501.773,231.44,501.331,230.784z M501.269,227.913v0.561
				c0,0.483,0.128,0.878,0.383,1.183c0.256,0.306,0.591,0.458,1.005,0.458c0.492,0,0.874-0.19,1.146-0.57
				c0.271-0.381,0.406-0.92,0.406-1.617c0-1.23-0.479-1.846-1.436-1.846c-0.441,0-0.803,0.168-1.083,0.503
				S501.269,227.362,501.269,227.913z"/>
			<path fill="#2F2F2F" d="M508.919,223.49c-0.364,0-0.663-0.108-0.896-0.324c-0.232-0.217-0.349-0.482-0.349-0.797
				c0-0.323,0.116-0.588,0.349-0.793s0.531-0.308,0.896-0.308c0.369,0,0.669,0.103,0.899,0.308c0.229,0.205,0.345,0.47,0.345,0.793
				c0,0.328-0.115,0.598-0.345,0.807C509.587,223.385,509.288,223.49,508.919,223.49z M509.985,231.597h-2.16v-7h2.16V231.597z"/>
			<path fill="#2F2F2F" d="M517.065,231.344c-0.488,0.283-1.192,0.424-2.112,0.424c-1.076,0-1.946-0.325-2.611-0.978
				c-0.666-0.651-0.998-1.492-0.998-2.522c0-1.189,0.356-2.127,1.069-2.812c0.714-0.687,1.667-1.029,2.861-1.029
				c0.824,0,1.422,0.109,1.791,0.328v1.832c-0.451-0.337-0.955-0.506-1.511-0.506c-0.62,0-1.111,0.182-1.474,0.544
				s-0.543,0.862-0.543,1.5c0,0.62,0.173,1.106,0.52,1.46c0.346,0.353,0.822,0.529,1.429,0.529c0.537,0,1.063-0.168,1.579-0.506
				V231.344z"/>
		</g>
	</g>
	<g>
		<g>
			<path fill="#2F2F2F" d="M673.078,231.597h-2.153v-3.979c0-1.025-0.373-1.538-1.121-1.538c-0.383,0-0.692,0.144-0.93,0.431
				c-0.236,0.287-0.355,0.652-0.355,1.094v3.992h-2.16v-10.363h2.16v4.402h0.027c0.529-0.807,1.247-1.21,2.153-1.21
				c1.586,0,2.379,0.957,2.379,2.871V231.597z"/>
			<path fill="#2F2F2F" d="M675.848,223.49c-0.364,0-0.663-0.108-0.896-0.324c-0.232-0.217-0.349-0.482-0.349-0.797
				c0-0.323,0.116-0.588,0.349-0.793s0.531-0.308,0.896-0.308c0.369,0,0.669,0.103,0.899,0.308c0.229,0.205,0.345,0.47,0.345,0.793
				c0,0.328-0.115,0.598-0.345,0.807C676.517,223.385,676.217,223.49,675.848,223.49z M676.915,231.597h-2.16v-7h2.16V231.597z"/>
			<path fill="#2F2F2F" d="M685.58,230.797c0,1.299-0.376,2.305-1.128,3.019c-0.752,0.713-1.841,1.069-3.268,1.069
				c-0.943,0-1.69-0.134-2.242-0.403v-1.818c0.721,0.42,1.447,0.629,2.181,0.629c0.729,0,1.295-0.192,1.695-0.577
				c0.401-0.386,0.602-0.908,0.602-1.569v-0.554h-0.027c-0.492,0.784-1.219,1.176-2.181,1.176c-0.893,0-1.602-0.314-2.126-0.943
				c-0.523-0.629-0.786-1.472-0.786-2.529c0-1.185,0.292-2.126,0.875-2.823c0.584-0.697,1.352-1.046,2.304-1.046
				c0.853,0,1.49,0.328,1.914,0.984h0.027v-0.813h2.16V230.797z M683.447,228.234v-0.554c0-0.441-0.131-0.819-0.393-1.131
				c-0.263-0.312-0.603-0.469-1.022-0.469c-0.479,0-0.854,0.188-1.128,0.561c-0.273,0.374-0.41,0.9-0.41,1.579
				c0,0.584,0.13,1.045,0.39,1.385c0.26,0.339,0.615,0.509,1.066,0.509c0.447,0,0.808-0.172,1.084-0.516
				C683.309,229.254,683.447,228.799,683.447,228.234z"/>
			<path fill="#2F2F2F" d="M694.059,231.597h-2.153v-3.979c0-1.025-0.373-1.538-1.121-1.538c-0.383,0-0.692,0.144-0.93,0.431
				c-0.236,0.287-0.355,0.652-0.355,1.094v3.992h-2.16v-10.363h2.16v4.402h0.027c0.529-0.807,1.247-1.21,2.153-1.21
				c1.586,0,2.379,0.957,2.379,2.871V231.597z"/>
			<path fill="#2F2F2F" d="M699.469,228.617h-3.739v-1.511h3.739V228.617z"/>
			<path fill="#2F2F2F" d="M703.367,230.784h-0.027v4.033h-2.16v-10.22h2.16v1.053h0.027c0.533-0.815,1.283-1.224,2.249-1.224
				c0.907,0,1.607,0.312,2.103,0.934c0.494,0.622,0.741,1.469,0.741,2.539c0,1.167-0.288,2.104-0.864,2.81
				c-0.577,0.707-1.344,1.06-2.301,1.06C704.452,231.768,703.809,231.44,703.367,230.784z M703.305,227.913v0.561
				c0,0.483,0.128,0.878,0.383,1.183c0.256,0.306,0.591,0.458,1.005,0.458c0.492,0,0.874-0.19,1.146-0.57
				c0.271-0.381,0.406-0.92,0.406-1.617c0-1.23-0.479-1.846-1.436-1.846c-0.441,0-0.803,0.168-1.083,0.503
				S703.305,227.362,703.305,227.913z"/>
			<path fill="#2F2F2F" d="M714.443,226.546c-0.26-0.141-0.563-0.212-0.909-0.212c-0.47,0-0.837,0.172-1.101,0.517
				c-0.265,0.344-0.396,0.812-0.396,1.404v3.343h-2.16v-7h2.16v1.299h0.027c0.342-0.947,0.957-1.422,1.846-1.422
				c0.228,0,0.405,0.027,0.533,0.082V226.546z"/>
			<path fill="#2F2F2F" d="M716.529,223.49c-0.365,0-0.663-0.108-0.896-0.324c-0.232-0.217-0.349-0.482-0.349-0.797
				c0-0.323,0.116-0.588,0.349-0.793s0.53-0.308,0.896-0.308c0.369,0,0.669,0.103,0.898,0.308c0.23,0.205,0.346,0.47,0.346,0.793
				c0,0.328-0.115,0.598-0.346,0.807C717.198,223.385,716.898,223.49,716.529,223.49z M717.595,231.597h-2.16v-7h2.16V231.597z"/>
			<path fill="#2F2F2F" d="M722.992,228.617h-3.739v-1.511h3.739V228.617z"/>
			<path fill="#2F2F2F" d="M728.21,231.768c-1.167,0-2.084-0.327-2.752-0.98c-0.667-0.654-1.001-1.542-1.001-2.663
				c0-1.157,0.346-2.063,1.039-2.717c0.692-0.654,1.629-0.981,2.81-0.981c1.162,0,2.073,0.327,2.734,0.981
				c0.66,0.653,0.991,1.519,0.991,2.594c0,1.162-0.341,2.081-1.022,2.755C730.328,231.431,729.394,231.768,728.21,231.768z
				 M728.264,226.081c-0.511,0-0.907,0.176-1.189,0.526c-0.283,0.352-0.424,0.848-0.424,1.49c0,1.345,0.542,2.017,1.627,2.017
				c1.034,0,1.552-0.69,1.552-2.071C729.83,226.735,729.307,226.081,728.264,226.081z"/>
			<path fill="#2F2F2F" d="M737.977,226.546c-0.26-0.141-0.562-0.212-0.909-0.212c-0.469,0-0.836,0.172-1.101,0.517
				c-0.264,0.344-0.396,0.812-0.396,1.404v3.343h-2.16v-7h2.16v1.299h0.027c0.342-0.947,0.957-1.422,1.846-1.422
				c0.229,0,0.406,0.027,0.533,0.082V226.546z"/>
			<path fill="#2F2F2F" d="M745.918,231.597h-2.16v-0.964h-0.027c-0.492,0.757-1.215,1.135-2.167,1.135
				c-0.875,0-1.579-0.309-2.112-0.926c-0.533-0.618-0.8-1.48-0.8-2.588c0-1.157,0.294-2.085,0.882-2.782s1.357-1.046,2.311-1.046
				c0.902,0,1.531,0.324,1.887,0.971h0.027v-4.163h2.16V231.597z M743.798,228.193v-0.526c0-0.455-0.133-0.834-0.396-1.135
				c-0.265-0.301-0.608-0.451-1.032-0.451c-0.479,0-0.853,0.188-1.121,0.564c-0.27,0.376-0.403,0.892-0.403,1.548
				c0,0.615,0.13,1.09,0.39,1.422c0.26,0.333,0.619,0.499,1.08,0.499c0.438,0,0.794-0.175,1.069-0.526
				C743.661,229.237,743.798,228.772,743.798,228.193z"/>
			<path fill="#2F2F2F" d="M754.025,228.712h-4.566c0.072,1.017,0.713,1.524,1.921,1.524c0.77,0,1.446-0.182,2.03-0.547v1.559
				c-0.647,0.347-1.488,0.52-2.522,0.52c-1.131,0-2.008-0.313-2.632-0.939c-0.625-0.627-0.937-1.501-0.937-2.622
				c0-1.162,0.337-2.082,1.012-2.762c0.674-0.679,1.504-1.019,2.488-1.019c1.021,0,1.811,0.304,2.368,0.909
				c0.559,0.606,0.838,1.429,0.838,2.468V228.712z M752.022,227.386c0-1.002-0.406-1.504-1.217-1.504
				c-0.347,0-0.646,0.144-0.899,0.431s-0.406,0.646-0.461,1.073H752.022z"/>
			<path fill="#2F2F2F" d="M759.957,226.546c-0.26-0.141-0.563-0.212-0.909-0.212c-0.47,0-0.837,0.172-1.101,0.517
				c-0.265,0.344-0.396,0.812-0.396,1.404v3.343h-2.16v-7h2.16v1.299h0.027c0.342-0.947,0.957-1.422,1.846-1.422
				c0.228,0,0.405,0.027,0.533,0.082V226.546z"/>
			<path fill="#2F2F2F" d="M760.714,231.413v-1.75c0.355,0.215,0.71,0.374,1.063,0.479c0.353,0.105,0.687,0.157,1.001,0.157
				c0.383,0,0.685-0.052,0.906-0.157c0.221-0.104,0.331-0.264,0.331-0.479c0-0.137-0.05-0.25-0.15-0.342
				c-0.1-0.091-0.229-0.171-0.386-0.239s-0.329-0.13-0.517-0.185c-0.187-0.055-0.366-0.116-0.54-0.185
				c-0.277-0.104-0.522-0.218-0.734-0.338c-0.212-0.121-0.39-0.261-0.533-0.421c-0.144-0.159-0.253-0.344-0.328-0.554
				c-0.075-0.209-0.113-0.458-0.113-0.745c0-0.392,0.086-0.729,0.257-1.012c0.171-0.282,0.398-0.514,0.684-0.693
				c0.284-0.181,0.61-0.312,0.978-0.396c0.366-0.085,0.748-0.127,1.145-0.127c0.311,0,0.625,0.024,0.943,0.072
				c0.319,0.048,0.634,0.117,0.943,0.208v1.668c-0.273-0.159-0.566-0.279-0.878-0.358c-0.312-0.08-0.619-0.12-0.92-0.12
				c-0.141,0-0.274,0.013-0.399,0.038c-0.126,0.024-0.236,0.062-0.332,0.109s-0.171,0.109-0.226,0.185s-0.082,0.16-0.082,0.256
				c0,0.128,0.041,0.237,0.123,0.328c0.082,0.092,0.189,0.17,0.321,0.236c0.133,0.065,0.279,0.125,0.441,0.178
				c0.161,0.052,0.322,0.105,0.481,0.16c0.287,0.101,0.547,0.21,0.779,0.328c0.232,0.119,0.432,0.258,0.599,0.417
				c0.166,0.16,0.294,0.347,0.383,0.561c0.089,0.215,0.133,0.47,0.133,0.766c0,0.415-0.09,0.77-0.27,1.063
				c-0.181,0.294-0.42,0.533-0.718,0.718c-0.299,0.185-0.643,0.318-1.032,0.403c-0.39,0.084-0.794,0.126-1.214,0.126
				C762.085,231.768,761.371,231.65,760.714,231.413z"/>
		</g>
	</g>
</g>
<g id="Layer_1">
</g>
<g id="_x3C_Layer_x3E_">
</g>
<g id="bc18bade-5481-447e-a959-659d72346474">
</g>
<g id="af6a2c42-bd48-4857-a479-aecf8b3de4f6">
</g>
</svg>
