<?xml version="1.0" encoding="utf-8"?>
<!-- Generator: Adobe Illustrator 27.4.0, SVG Export Plug-In . SVG Version: 6.00 Build 0)  -->
<svg version="1.1" xmlns="http://www.w3.org/2000/svg" xmlns:xlink="http://www.w3.org/1999/xlink" x="0px" y="0px"
	 viewBox="0 0 506 140.8" enable-background="new 0 0 506 140.8" xml:space="preserve">
<symbol  id="PIPELINE" viewBox="-32 -12.266 64 24.531">
	<linearGradient id="SVGID_1_" gradientUnits="userSpaceOnUse" x1="0" y1="-12.2655" x2="1.502093e-15" y2="12.2655">
		<stop  offset="0" style="stop-color:#1B89B2"/>
		<stop  offset="1" style="stop-color:#51C8E8"/>
	</linearGradient>
	<path fill="url(#SVGID_1_)" d="M26.096,12.266h-51.448v0h0C-29.08,12.265-32,6.878-32,0s2.92-12.265,6.648-12.265h0v0h51.448
		C29.356-12.266,32-6.363,32,0S29.356,12.266,26.096,12.266z"/>
	<g>
		
			<linearGradient id="SVGID_00000065060397248509361560000010589608788901732007_" gradientUnits="userSpaceOnUse" x1="-31.461" y1="-6.1136" x2="-19.2338" y2="6.1136">
			<stop  offset="0" style="stop-color:#B3B4B4"/>
			<stop  offset="1" style="stop-color:#4F4F4F"/>
		</linearGradient>
		<ellipse fill="url(#SVGID_00000065060397248509361560000010589608788901732007_)" cx="-25.347" cy="0" rx="5.575" ry="10.879"/>
	</g>
</symbol>
<g id="Shapes">
	<rect fill="#FFFFFF" width="506" height="140.8"/>
	<g>
		<g opacity="0.25">
			<rect x="13.58" y="49.9" width="177.12" height="79.2"/>
			<rect x="13.58" y="49.9" opacity="0.1" width="177.12" height="79.2"/>
		</g>
		<g>
			<rect x="12.08" y="48.4" fill="#FFFFFF" width="177.12" height="79.2"/>
			<rect x="12.08" y="48.4" opacity="0.1" fill="#699CD3" width="177.12" height="79.2"/>
		</g>
	</g>
	<g id="Wrench_tool_x28_s_x29_">
	</g>
	<g id="user2">
	</g>
	<g id="user2_1_">
	</g>
	<g id="user2_4_">
	</g>
	<g id="user2_3_">
	</g>
	<g id="user2_2_">
	</g>
	<g id="Internet_2">
	</g>
	<g id="Enterprise">
	</g>
	<g id="Tunnel__x28_stackable_x29_">
	</g>
	<g id="New_Symbol">
	</g>
	<g id="New_Symbol_1">
	</g>
	<g id="Files">
	</g>
	<g id="BlobBlock">
	</g>
	<g id="E_x5F_Enterprise">
	</g>
	<g id="E_x5F_AD_FS">
	</g>
	<g id="C_x5F_Azure_Active_Directory">
	</g>
	<g>
		<g>
			
				<radialGradient id="e3d1e58c-f78e-4fb5-9857-0c9331da9979_00000174590081342949073820000009737029181849057467_" cx="308.6094" cy="1473.66" r="17.2728" gradientTransform="matrix(0.8773 0 0 -0.8773 24.5099 1321.8059)" gradientUnits="userSpaceOnUse">
				<stop  offset="0.27" style="stop-color:#FFD70F"/>
				<stop  offset="0.49" style="stop-color:#FFCB12"/>
				<stop  offset="0.88" style="stop-color:#FEAC19"/>
				<stop  offset="1" style="stop-color:#FEA11B"/>
			</radialGradient>
			
				<path id="e3d1e58c-f78e-4fb5-9857-0c9331da9979_00000070077576774121659580000003722485803570157742_" fill="url(#e3d1e58c-f78e-4fb5-9857-0c9331da9979_00000174590081342949073820000009737029181849057467_)" d="
				M304.077,26.748c1.167-1.165,1.168-3.055,0.004-4.221c-0.001-0.001-0.002-0.002-0.004-0.004l0,0l-5.133-5.148
				c-1.157-1.163-3.038-1.167-4.201-0.01c-0.003,0.003-0.006,0.006-0.01,0.01l0,0l-5.133,5.148c-1.152,1.173-1.152,3.052,0,4.225
				l4.326,4.326c0.153,0.159,0.241,0.37,0.245,0.591v7.96c-0.004,0.269,0.1,0.529,0.288,0.721l1.947,1.947
				c0.244,0.263,0.654,0.278,0.917,0.035c0.012-0.011,0.024-0.023,0.035-0.035l1.889-1.889l0,0l1.11-1.11
				c0.151-0.141,0.159-0.379,0.018-0.53c-0.006-0.006-0.012-0.012-0.018-0.018l-0.793-0.808c-0.167-0.159-0.174-0.424-0.014-0.591
				c0.005-0.005,0.009-0.01,0.014-0.014l0.793-0.808c0.151-0.141,0.159-0.379,0.018-0.53c-0.006-0.006-0.012-0.012-0.018-0.018
				l-0.836-0.851c-0.163-0.152-0.172-0.407-0.021-0.571c0.007-0.007,0.013-0.014,0.021-0.021l0.865-0.851
				c0.151-0.141,0.159-0.379,0.018-0.53c-0.006-0.006-0.012-0.012-0.018-0.018l-1.11-1.125v-0.404L304.077,26.748z M296.867,18.615
				c0.94,0.008,1.695,0.776,1.687,1.716s-0.776,1.695-1.716,1.687c-0.934-0.008-1.687-0.767-1.687-1.701
				c-0.008-0.932,0.741-1.694,1.673-1.701c0.005,0,0.01,0,0.014,0L296.867,18.615z"/>
			
				<path id="a21a8f7a-61cc-4035-8449-e5c8fe4d4d5e_00000149355838312749695720000004745682288040413840_" opacity="0.75" fill="#FF9300" enable-background="new    " d="
				M295.512,39.754L295.512,39.754c0.17,0.104,0.392,0.05,0.495-0.12c0.033-0.055,0.052-0.118,0.053-0.182v-6.417
				c0.001-0.125-0.058-0.243-0.159-0.317l0,0c-0.165-0.112-0.389-0.069-0.501,0.096c-0.044,0.065-0.066,0.143-0.062,0.221v6.417
				C295.345,39.574,295.409,39.686,295.512,39.754z"/>
			
				<path id="ecd3189c-fb1e-4a0e-a2b6-ba2f11dda484_00000005267073250980692460000003232405826431692197_" opacity="0.75" fill="#FF9300" enable-background="new    " d="
				M293.19,24.239h7.527c0.255,0,0.461,0.207,0.461,0.461v0.072c0,0.255-0.207,0.461-0.461,0.461h-7.527
				c-0.255,0-0.461-0.207-0.461-0.461V24.7C292.729,24.445,292.935,24.239,293.19,24.239z"/>
			
				<path id="a1949a3c-4818-4bd1-b236-0d970b92fc62_00000034811682239365689560000015039267832719825814_" opacity="0.75" fill="#FF9300" enable-background="new    " d="
				M293.19,25.854h7.527c0.255,0,0.461,0.207,0.461,0.461v0.072c0,0.255-0.207,0.461-0.461,0.461h-7.527
				c-0.255,0-0.461-0.207-0.461-0.461v-0.072C292.729,26.06,292.935,25.854,293.19,25.854z"/>
		</g>
		<path d="M328.095,22.5v1.7l-6,6v6.3h-4v-6.3l-6-6v-1.7H328.095z M327.095,23.5h-14v0.3l6,6v5.7h2v-5.7l6-6V23.5z"/>
	</g>
	<g>
		<path d="M39.352,70.149h21.375v10.688l-1.336-1.336v-7.275l-9.352,4.686l-9.352-4.686v9.947h10.688v1.336H39.352V70.149z
			 M50.04,75.41l7.859-3.924H42.181L50.04,75.41z M56.417,80.472l0.939-0.939l3.309,3.309l-3.309,3.309l-0.939-0.939l1.701-1.701
			h-5.406v-1.336h5.406L56.417,80.472z"/>
		<path d="M65.752,70.149h21.375v10.688l-1.336-1.336v-7.275l-9.352,4.686l-9.352-4.686v9.947h10.688v1.336H65.752V70.149z
			 M76.44,75.41l7.859-3.924H68.581L76.44,75.41z M82.817,80.472l0.939-0.939l3.309,3.309l-3.309,3.309l-0.939-0.939l1.701-1.701
			h-5.406v-1.336h5.406L82.817,80.472z"/>
		<path d="M114.152,70.149h21.375v10.688l-1.336-1.336v-7.275l-9.352,4.686l-9.352-4.686v9.947h10.688v1.336h-12.023V70.149z
			 M124.84,75.41l7.859-3.924h-15.718L124.84,75.41z M131.217,80.472l0.939-0.939l3.309,3.309l-3.309,3.309l-0.939-0.939
			l1.701-1.701h-5.406v-1.336h5.406L131.217,80.472z"/>
		<path d="M140.552,70.149h21.375v10.688l-1.336-1.336v-7.275l-9.352,4.686l-9.352-4.686v9.947h10.688v1.336h-12.023V70.149z
			 M151.24,75.41l7.859-3.924h-15.718L151.24,75.41z M157.617,80.472l0.939-0.939l3.309,3.309l-3.309,3.309l-0.939-0.939
			l1.701-1.701h-5.406v-1.336h5.406L157.617,80.472z"/>
		<g>
			<path fill="#2F2F2F" d="M97.327,79.467c-0.355,0-0.651-0.109-0.889-0.328s-0.355-0.488-0.355-0.807
				c0-0.328,0.122-0.597,0.365-0.807c0.244-0.209,0.549-0.314,0.913-0.314c0.369,0,0.671,0.106,0.905,0.318
				c0.235,0.212,0.353,0.479,0.353,0.803c0,0.333-0.12,0.605-0.358,0.817C98.021,79.361,97.71,79.467,97.327,79.467z"/>
			<path fill="#2F2F2F" d="M101.14,79.467c-0.355,0-0.651-0.109-0.889-0.328s-0.355-0.488-0.355-0.807
				c0-0.328,0.122-0.597,0.365-0.807c0.244-0.209,0.549-0.314,0.913-0.314c0.369,0,0.671,0.106,0.905,0.318
				c0.235,0.212,0.353,0.479,0.353,0.803c0,0.333-0.12,0.605-0.358,0.817C101.833,79.361,101.523,79.467,101.14,79.467z"/>
			<path fill="#2F2F2F" d="M104.951,79.467c-0.355,0-0.651-0.109-0.889-0.328s-0.355-0.488-0.355-0.807
				c0-0.328,0.122-0.597,0.365-0.807c0.244-0.209,0.549-0.314,0.913-0.314c0.369,0,0.671,0.106,0.905,0.318
				c0.235,0.212,0.353,0.479,0.353,0.803c0,0.333-0.12,0.605-0.358,0.817C105.645,79.361,105.334,79.467,104.951,79.467z"/>
		</g>
	</g>
	<g>
		<g>
			<line fill="none" stroke="#3C3C41" stroke-miterlimit="10" x1="189.2" y1="74.8" x2="190.7" y2="74.8"/>
			
				<line fill="none" stroke="#3C3C41" stroke-miterlimit="10" stroke-dasharray="2.9006,2.9006" x1="193.601" y1="74.8" x2="273.368" y2="74.8"/>
			<line fill="none" stroke="#3C3C41" stroke-miterlimit="10" x1="274.818" y1="74.8" x2="276.318" y2="74.8"/>
		</g>
	</g>
	<g>
		<g>
			<line fill="none" stroke="#3C3C41" stroke-miterlimit="10" x1="189.2" y1="105.6" x2="190.7" y2="105.6"/>
			
				<line fill="none" stroke="#3C3C41" stroke-miterlimit="10" stroke-dasharray="2.9006,2.9006" x1="193.601" y1="105.6" x2="273.368" y2="105.6"/>
			<line fill="none" stroke="#3C3C41" stroke-miterlimit="10" x1="274.818" y1="105.6" x2="276.318" y2="105.6"/>
		</g>
	</g>
	<g id="e8071740-76d7-444d-a08a-6a2072be1ccd">
		
			<linearGradient id="SVGID_00000181782054972017266990000005296345969676096408_" gradientUnits="userSpaceOnUse" x1="76.8673" y1="1456.0055" x2="76.8673" y2="1433.134" gradientTransform="matrix(1 0 0 -1 0 1471.6)">
			<stop  offset="0" style="stop-color:#32BEDD"/>
			<stop  offset="0.067" style="stop-color:#3DCCE9"/>
			<stop  offset="0.171" style="stop-color:#48DBF5"/>
			<stop  offset="0.295" style="stop-color:#4EE3FD"/>
			<stop  offset="0.489" style="stop-color:#50E6FF"/>
			<stop  offset="0.703" style="stop-color:#4EE4FD"/>
			<stop  offset="0.828" style="stop-color:#48DBF6"/>
			<stop  offset="0.929" style="stop-color:#3DCDEA"/>
			<stop  offset="1" style="stop-color:#32BEDD"/>
		</linearGradient>
		<path fill="url(#SVGID_00000181782054972017266990000005296345969676096408_)" d="M82.715,19.5h3.758
			c2.001,0,3.62,4.482,3.62,9.994l0,0v0.137l0,0c-0.028,5.472-1.639,9.856-3.62,9.856h-3.758c2.005,0,3.62-4.472,3.62-9.994
			S84.717,19.5,82.715,19.5z M69.972,22.425c-0.05-0.15-0.117-0.301-0.184-0.451c-0.635-1.537-1.47-2.472-2.389-2.472h-3.758
			c0.919,0,1.754,0.935,2.389,2.472c0.872,2.409,1.291,4.959,1.236,7.52c0.063,2.561-0.357,5.111-1.236,7.517
			c-0.635,1.553-1.47,2.489-2.389,2.489h3.758c0.919,0,1.737-0.919,2.372-2.456c0.872-2.374,1.297-4.888,1.253-7.417v-0.134
			C71.066,27.096,70.71,24.707,69.972,22.425z"/>
		<path fill="#9CEBFF" d="M86.342,29.494c0,5.529-1.62,10.006-3.625,10.006c-0.919,0-1.754-0.935-2.389-2.489h2.389
			c1.253,0,2.255-3.358,2.255-7.517s-1.002-7.517-2.255-7.517h-2.389c0.635-1.537,1.47-2.472,2.389-2.472
			C84.722,19.502,86.342,23.982,86.342,29.494z M63.648,19.5c-2.003,0-3.621,4.472-3.621,9.994s1.622,9.994,3.621,9.994
			s3.616-4.482,3.616-9.994S65.645,19.5,63.648,19.5z"/>
		<path fill="#32BEDD" d="M63.648,21.977c1.253,0,2.257,3.368,2.257,7.517s-1.002,7.517-2.257,7.517
			c-1.254,0-2.258-3.364-2.258-7.517S62.4,21.977,63.648,21.977z"/>
		
			<linearGradient id="SVGID_00000027571481899072893470000002458331891332323751_" gradientUnits="userSpaceOnUse" x1="77.3718" y1="1451.9915" x2="77.3718" y2="1431.3433" gradientTransform="matrix(1 0 0 -1 0 1471.6)">
			<stop  offset="0" style="stop-color:#198AB3"/>
			<stop  offset="0.025" style="stop-color:#1D92B9"/>
			<stop  offset="0.102" style="stop-color:#26A5C9"/>
			<stop  offset="0.192" style="stop-color:#2CB2D4"/>
			<stop  offset="0.307" style="stop-color:#30BADA"/>
			<stop  offset="0.531" style="stop-color:#31BCDC"/>
			<stop  offset="0.656" style="stop-color:#2EB5D6"/>
			<stop  offset="0.84" style="stop-color:#24A1C6"/>
			<stop  offset="1" style="stop-color:#198AB3"/>
		</linearGradient>
		<path fill="url(#SVGID_00000027571481899072893470000002458331891332323751_)" d="M84.972,29.494c0,4.159-1.002,7.517-2.255,7.517
			h-4.26v0.033h-8.686c0.872-2.374,1.297-4.888,1.253-7.417v-0.134c0.041-2.397-0.314-4.785-1.052-7.066
			c-0.05-0.15-0.117-0.301-0.184-0.451h12.929C83.97,21.977,84.972,25.348,84.972,29.494z"/>
	</g>
</g>
<g id="Text">
	<g>
		<path fill="#2F2F2F" d="M102.806,26.77h-2.797v8.005h-2.215V26.77h-2.781v-1.798h7.793V26.77z"/>
		<path fill="#2F2F2F" d="M106.212,34.946c-1.166,0-2.084-0.327-2.751-0.981s-1.001-1.542-1.001-2.663
			c0-1.158,0.346-2.063,1.039-2.717c0.692-0.654,1.629-0.981,2.809-0.981c1.162,0,2.074,0.327,2.734,0.981
			c0.661,0.654,0.992,1.519,0.992,2.594c0,1.162-0.342,2.081-1.022,2.755S107.398,34.946,106.212,34.946z M106.267,29.258
			c-0.51,0-0.906,0.175-1.189,0.526c-0.282,0.351-0.424,0.848-0.424,1.49c0,1.344,0.543,2.017,1.627,2.017
			c1.035,0,1.553-0.69,1.553-2.071C107.833,29.912,107.311,29.258,106.267,29.258z"/>
		<path fill="#2F2F2F" d="M113.602,33.962h-0.027v4.033h-2.16v-10.22h2.16v1.053h0.027c0.533-0.816,1.282-1.224,2.249-1.224
			c0.906,0,1.607,0.311,2.102,0.933c0.495,0.622,0.742,1.469,0.742,2.54c0,1.167-0.288,2.103-0.865,2.81
			c-0.576,0.707-1.343,1.06-2.3,1.06C114.687,34.946,114.044,34.618,113.602,33.962z M113.54,31.091v0.561
			c0,0.483,0.127,0.877,0.383,1.183s0.59,0.458,1.005,0.458c0.492,0,0.874-0.19,1.146-0.571c0.271-0.38,0.406-0.919,0.406-1.617
			c0-1.23-0.479-1.846-1.436-1.846c-0.441,0-0.803,0.167-1.084,0.502C113.681,30.096,113.54,30.539,113.54,31.091z"/>
		<path fill="#2F2F2F" d="M121.19,26.668c-0.364,0-0.663-0.108-0.896-0.325s-0.349-0.482-0.349-0.796
			c0-0.324,0.116-0.588,0.349-0.793s0.531-0.308,0.896-0.308c0.369,0,0.669,0.103,0.899,0.308c0.229,0.205,0.345,0.469,0.345,0.793
			c0,0.328-0.115,0.597-0.345,0.807C121.859,26.563,121.559,26.668,121.19,26.668z M122.256,34.775h-2.16v-7h2.16V34.775z"/>
		<path fill="#2F2F2F" d="M129.335,34.522c-0.487,0.283-1.191,0.424-2.111,0.424c-1.076,0-1.946-0.326-2.611-0.978
			c-0.666-0.652-0.998-1.493-0.998-2.522c0-1.189,0.355-2.127,1.069-2.813s1.667-1.029,2.86-1.029c0.825,0,1.422,0.109,1.791,0.328
			v1.832c-0.451-0.337-0.954-0.506-1.51-0.506c-0.62,0-1.111,0.181-1.474,0.543s-0.544,0.862-0.544,1.5
			c0,0.62,0.174,1.106,0.52,1.459c0.347,0.353,0.823,0.53,1.43,0.53c0.537,0,1.063-0.168,1.578-0.506V34.522z"/>
	</g>
	<g>
		<path fill="#2F2F2F" d="M341.589,34.775h-5.879v-9.803h5.652v1.798h-3.445v2.181h3.207v1.791h-3.207v2.242h3.672V34.775z"/>
		<path fill="#2F2F2F" d="M349.493,27.775l-2.604,7h-2.461l-2.481-7h2.311l1.217,4.313c0.137,0.488,0.217,0.902,0.239,1.244h0.027
			c0.032-0.324,0.116-0.725,0.253-1.203l1.244-4.354H349.493z"/>
		<path fill="#2F2F2F" d="M356.482,31.89h-4.566c0.072,1.016,0.713,1.524,1.921,1.524c0.771,0,1.446-0.182,2.03-0.547v1.559
			c-0.646,0.346-1.488,0.52-2.522,0.52c-1.13,0-2.007-0.313-2.632-0.94s-0.937-1.5-0.937-2.622c0-1.162,0.337-2.083,1.012-2.762
			s1.504-1.019,2.488-1.019c1.021,0,1.811,0.303,2.368,0.909c0.559,0.606,0.838,1.429,0.838,2.468V31.89z M354.479,30.564
			c0-1.002-0.405-1.504-1.217-1.504c-0.347,0-0.646,0.144-0.899,0.431c-0.252,0.287-0.406,0.645-0.461,1.073H354.479z"/>
		<path fill="#2F2F2F" d="M364.607,34.775h-2.152v-3.89c0-1.084-0.388-1.627-1.162-1.627c-0.374,0-0.682,0.144-0.924,0.431
			c-0.241,0.287-0.361,0.652-0.361,1.094v3.992h-2.16v-7h2.16v1.107h0.027c0.515-0.852,1.264-1.278,2.248-1.278
			c1.55,0,2.324,0.961,2.324,2.885V34.775z"/>
		<path fill="#2F2F2F" d="M370.456,34.693c-0.318,0.168-0.799,0.253-1.441,0.253c-1.522,0-2.283-0.791-2.283-2.372v-3.206h-1.135
			v-1.593h1.135v-1.511l2.152-0.615v2.126h1.572v1.593h-1.572v2.83c0,0.729,0.29,1.094,0.869,1.094c0.228,0,0.462-0.066,0.703-0.198
			V34.693z"/>
		<path fill="#2F2F2F" d="M375.077,34.591v-1.75c0.355,0.214,0.711,0.374,1.063,0.479s0.687,0.157,1.001,0.157
			c0.383,0,0.686-0.052,0.906-0.157s0.332-0.264,0.332-0.479c0-0.137-0.051-0.25-0.15-0.342c-0.101-0.091-0.229-0.171-0.387-0.239
			s-0.329-0.13-0.516-0.185c-0.188-0.055-0.367-0.116-0.541-0.185c-0.277-0.105-0.522-0.218-0.734-0.338s-0.39-0.261-0.533-0.42
			s-0.253-0.344-0.328-0.554s-0.113-0.458-0.113-0.745c0-0.392,0.086-0.729,0.257-1.012s0.399-0.514,0.684-0.694
			s0.61-0.312,0.978-0.396s0.748-0.126,1.145-0.126c0.311,0,0.625,0.024,0.943,0.072c0.319,0.048,0.634,0.117,0.943,0.208v1.668
			c-0.273-0.16-0.566-0.279-0.878-0.359s-0.618-0.12-0.919-0.12c-0.142,0-0.275,0.013-0.4,0.038s-0.236,0.062-0.332,0.109
			s-0.17,0.109-0.225,0.185s-0.082,0.161-0.082,0.256c0,0.127,0.041,0.237,0.123,0.328s0.188,0.17,0.32,0.236
			c0.133,0.066,0.279,0.125,0.441,0.178s0.322,0.106,0.482,0.161c0.287,0.1,0.547,0.209,0.779,0.328s0.432,0.257,0.598,0.417
			s0.294,0.346,0.383,0.561s0.133,0.469,0.133,0.766c0,0.415-0.09,0.769-0.27,1.063s-0.42,0.533-0.718,0.718
			s-0.643,0.319-1.032,0.403s-0.794,0.126-1.213,0.126C376.447,34.946,375.734,34.827,375.077,34.591z"/>
		<path fill="#2F2F2F" d="M388.406,34.775h-2.153v-1.066h-0.034c-0.533,0.825-1.247,1.237-2.14,1.237
			c-1.623,0-2.434-0.982-2.434-2.946v-4.225h2.153v4.033c0,0.989,0.392,1.483,1.176,1.483c0.388,0,0.697-0.136,0.93-0.407
			s0.349-0.639,0.349-1.104v-4.006h2.153V34.775z"/>
		<path fill="#2F2F2F" d="M392.362,33.962h-0.027v0.813h-2.16V24.412h2.16v4.416h0.027c0.533-0.816,1.291-1.224,2.275-1.224
			c0.902,0,1.598,0.31,2.086,0.93c0.487,0.62,0.73,1.467,0.73,2.543c0,1.167-0.284,2.103-0.854,2.81
			c-0.57,0.707-1.331,1.06-2.283,1.06C393.456,34.946,392.804,34.618,392.362,33.962z M392.3,31.008v0.718
			c0,0.451,0.131,0.825,0.391,1.121s0.592,0.444,0.998,0.444c0.492,0,0.873-0.19,1.145-0.571s0.406-0.919,0.406-1.617
			c0-0.579-0.123-1.031-0.372-1.357s-0.603-0.489-1.063-0.489c-0.433,0-0.791,0.162-1.076,0.485S392.3,30.489,392.3,31.008z"/>
		<path fill="#2F2F2F" d="M398.495,34.591v-1.75c0.355,0.214,0.709,0.374,1.062,0.479s0.688,0.157,1.002,0.157
			c0.383,0,0.684-0.052,0.905-0.157s0.331-0.264,0.331-0.479c0-0.137-0.05-0.25-0.15-0.342c-0.1-0.091-0.229-0.171-0.386-0.239
			s-0.329-0.13-0.517-0.185c-0.187-0.055-0.366-0.116-0.539-0.185c-0.278-0.105-0.523-0.218-0.735-0.338s-0.39-0.261-0.533-0.42
			s-0.253-0.344-0.328-0.554s-0.112-0.458-0.112-0.745c0-0.392,0.085-0.729,0.256-1.012s0.398-0.514,0.684-0.694
			s0.611-0.312,0.978-0.396s0.749-0.126,1.146-0.126c0.31,0,0.624,0.024,0.943,0.072c0.318,0.048,0.633,0.117,0.943,0.208v1.668
			c-0.273-0.16-0.566-0.279-0.879-0.359s-0.619-0.12-0.92-0.12c-0.141,0-0.273,0.013-0.399,0.038s-0.235,0.062-0.331,0.109
			s-0.172,0.109-0.227,0.185s-0.082,0.161-0.082,0.256c0,0.127,0.041,0.237,0.123,0.328s0.189,0.17,0.322,0.236
			c0.132,0.066,0.279,0.125,0.44,0.178s0.322,0.106,0.481,0.161c0.287,0.1,0.547,0.209,0.779,0.328s0.432,0.257,0.599,0.417
			s0.294,0.346,0.383,0.561s0.134,0.469,0.134,0.766c0,0.415-0.09,0.769-0.271,1.063s-0.419,0.533-0.718,0.718
			s-0.643,0.319-1.032,0.403s-0.794,0.126-1.214,0.126C399.864,34.946,399.152,34.827,398.495,34.591z"/>
		<path fill="#2F2F2F" d="M410.46,34.522c-0.488,0.283-1.191,0.424-2.112,0.424c-1.075,0-1.946-0.326-2.611-0.978
			s-0.998-1.493-0.998-2.522c0-1.189,0.356-2.127,1.069-2.813c0.714-0.686,1.668-1.029,2.861-1.029c0.824,0,1.422,0.109,1.791,0.328
			v1.832c-0.451-0.337-0.955-0.506-1.511-0.506c-0.62,0-1.11,0.181-1.474,0.543c-0.361,0.362-0.543,0.862-0.543,1.5
			c0,0.62,0.174,1.106,0.52,1.459s0.822,0.53,1.429,0.53c0.538,0,1.063-0.168,1.579-0.506V34.522z"/>
		<path fill="#2F2F2F" d="M416.544,29.723c-0.26-0.141-0.563-0.212-0.91-0.212c-0.469,0-0.836,0.172-1.1,0.516
			c-0.265,0.344-0.396,0.812-0.396,1.405v3.343h-2.16v-7h2.16v1.299h0.027c0.342-0.948,0.957-1.422,1.846-1.422
			c0.228,0,0.405,0.027,0.533,0.082V29.723z"/>
		<path fill="#2F2F2F" d="M418.63,26.668c-0.365,0-0.664-0.108-0.896-0.325s-0.348-0.482-0.348-0.796
			c0-0.324,0.115-0.588,0.348-0.793s0.531-0.308,0.896-0.308c0.369,0,0.668,0.103,0.898,0.308s0.346,0.469,0.346,0.793
			c0,0.328-0.115,0.597-0.346,0.807S418.999,26.668,418.63,26.668z M419.696,34.775h-2.16v-7h2.16V34.775z"/>
		<path fill="#2F2F2F" d="M423.665,33.962h-0.027v4.033h-2.16v-10.22h2.16v1.053h0.027c0.533-0.816,1.283-1.224,2.249-1.224
			c0.907,0,1.607,0.311,2.103,0.933c0.494,0.622,0.741,1.469,0.741,2.54c0,1.167-0.288,2.103-0.864,2.81
			c-0.577,0.707-1.344,1.06-2.301,1.06C424.749,34.946,424.107,34.618,423.665,33.962z M423.604,31.091v0.561
			c0,0.483,0.128,0.877,0.383,1.183s0.591,0.458,1.005,0.458c0.492,0,0.874-0.19,1.145-0.571c0.271-0.38,0.407-0.919,0.407-1.617
			c0-1.23-0.479-1.846-1.436-1.846c-0.442,0-0.804,0.167-1.083,0.502C423.743,30.096,423.604,30.539,423.604,31.091z"/>
		<path fill="#2F2F2F" d="M434.384,34.693c-0.318,0.168-0.8,0.253-1.442,0.253c-1.522,0-2.283-0.791-2.283-2.372v-3.206h-1.135
			v-1.593h1.135v-1.511l2.153-0.615v2.126h1.572v1.593h-1.572v2.83c0,0.729,0.289,1.094,0.868,1.094
			c0.228,0,0.462-0.066,0.704-0.198V34.693z"/>
		<path fill="#2F2F2F" d="M436.762,26.668c-0.364,0-0.663-0.108-0.896-0.325s-0.349-0.482-0.349-0.796
			c0-0.324,0.116-0.588,0.349-0.793s0.531-0.308,0.896-0.308c0.369,0,0.669,0.103,0.899,0.308c0.229,0.205,0.345,0.469,0.345,0.793
			c0,0.328-0.115,0.597-0.345,0.807C437.431,26.563,437.131,26.668,436.762,26.668z M437.828,34.775h-2.16v-7h2.16V34.775z"/>
		<path fill="#2F2F2F" d="M442.939,34.946c-1.166,0-2.084-0.327-2.751-0.981s-1.001-1.542-1.001-2.663
			c0-1.158,0.346-2.063,1.039-2.717c0.692-0.654,1.629-0.981,2.809-0.981c1.162,0,2.074,0.327,2.734,0.981
			c0.661,0.654,0.992,1.519,0.992,2.594c0,1.162-0.342,2.081-1.022,2.755S444.124,34.946,442.939,34.946z M442.993,29.258
			c-0.51,0-0.906,0.175-1.189,0.526c-0.282,0.351-0.424,0.848-0.424,1.49c0,1.344,0.543,2.017,1.627,2.017
			c1.035,0,1.553-0.69,1.553-2.071C444.56,29.912,444.037,29.258,442.993,29.258z"/>
		<path fill="#2F2F2F" d="M454.902,34.775h-2.153v-3.89c0-1.084-0.388-1.627-1.162-1.627c-0.374,0-0.681,0.144-0.923,0.431
			s-0.362,0.652-0.362,1.094v3.992h-2.16v-7h2.16v1.107h0.027c0.515-0.852,1.265-1.278,2.249-1.278c1.549,0,2.324,0.961,2.324,2.885
			V34.775z"/>
		<path fill="#2F2F2F" d="M456.276,34.591v-1.75c0.355,0.214,0.71,0.374,1.063,0.479c0.353,0.105,0.687,0.157,1.001,0.157
			c0.383,0,0.685-0.052,0.905-0.157c0.222-0.105,0.332-0.264,0.332-0.479c0-0.137-0.051-0.25-0.15-0.342s-0.229-0.171-0.387-0.239
			c-0.156-0.068-0.328-0.13-0.516-0.185s-0.367-0.116-0.54-0.185c-0.278-0.105-0.522-0.218-0.735-0.338
			c-0.211-0.121-0.389-0.261-0.533-0.42c-0.143-0.16-0.252-0.344-0.328-0.554c-0.074-0.209-0.112-0.458-0.112-0.745
			c0-0.392,0.085-0.729,0.257-1.012c0.17-0.283,0.398-0.514,0.684-0.694c0.284-0.18,0.61-0.312,0.977-0.396
			c0.367-0.084,0.749-0.126,1.146-0.126c0.31,0,0.624,0.024,0.943,0.072s0.634,0.117,0.943,0.208v1.668
			c-0.273-0.16-0.566-0.279-0.878-0.359c-0.312-0.08-0.619-0.12-0.92-0.12c-0.141,0-0.274,0.013-0.4,0.038
			c-0.125,0.025-0.235,0.062-0.331,0.109s-0.171,0.109-0.226,0.185s-0.082,0.161-0.082,0.256c0,0.127,0.041,0.237,0.123,0.328
			s0.189,0.17,0.321,0.236s0.279,0.125,0.44,0.178c0.162,0.052,0.322,0.106,0.482,0.161c0.287,0.1,0.547,0.209,0.779,0.328
			s0.432,0.257,0.598,0.417c0.167,0.16,0.295,0.346,0.383,0.561c0.09,0.214,0.134,0.469,0.134,0.766c0,0.415-0.09,0.769-0.271,1.063
			c-0.18,0.294-0.419,0.533-0.717,0.718c-0.299,0.185-0.643,0.319-1.033,0.403c-0.389,0.084-0.793,0.126-1.213,0.126
			C457.646,34.946,456.932,34.827,456.276,34.591z"/>
	</g>
	<g>
		<path fill="#2F2F2F" d="M58.339,105.85h-5.195v-9.803h4.977v1.039h-3.828v3.261h3.541v1.032h-3.541v3.432h4.047V105.85z"/>
		<path fill="#2F2F2F" d="M65.664,105.85h-1.121v-3.992c0-1.486-0.542-2.229-1.627-2.229c-0.561,0-1.024,0.211-1.391,0.632
			c-0.367,0.421-0.551,0.954-0.551,1.596v3.992h-1.121v-7h1.121v1.162h0.027c0.528-0.884,1.294-1.326,2.297-1.326
			c0.766,0,1.352,0.247,1.757,0.742s0.608,1.209,0.608,2.143V105.85z"/>
		<path fill="#2F2F2F" d="M68.843,104.292l-1.094,3.363h-0.8l0.8-3.363H68.843z"/>
		<path fill="#2F2F2F" d="M80.033,105.85h-5.195v-9.803h4.977v1.039h-3.828v3.261h3.541v1.032h-3.541v3.432h4.047V105.85z"/>
		<path fill="#2F2F2F" d="M87.36,105.85h-1.121v-3.992c0-1.486-0.542-2.229-1.627-2.229c-0.561,0-1.024,0.211-1.391,0.632
			c-0.367,0.421-0.551,0.954-0.551,1.596v3.992h-1.121v-7h1.121v1.162h0.027c0.528-0.884,1.294-1.326,2.297-1.326
			c0.766,0,1.352,0.247,1.757,0.742s0.608,1.209,0.608,2.143V105.85z"/>
		<path fill="#2F2F2F" d="M92.968,102.391h-3.732v-0.882h3.732V102.391z"/>
		<path fill="#2F2F2F" d="M97.523,105.85h-1.121v-8.47c-0.087,0.086-0.213,0.186-0.379,0.297c-0.167,0.112-0.354,0.222-0.561,0.332
			c-0.208,0.109-0.427,0.212-0.656,0.308c-0.23,0.096-0.455,0.171-0.674,0.226v-1.135c0.246-0.068,0.507-0.161,0.783-0.277
			c0.275-0.116,0.547-0.246,0.812-0.39c0.268-0.144,0.519-0.294,0.756-0.451s0.442-0.311,0.615-0.461h0.424V105.85z"/>
		<path fill="#2F2F2F" d="M101.67,104.292l-1.094,3.363h-0.8l0.8-3.363H101.67z"/>
		<path fill="#2F2F2F" d="M103.793,106.001c-0.21,0-0.389-0.075-0.536-0.226c-0.148-0.15-0.223-0.331-0.223-0.54
			s0.074-0.391,0.223-0.543c0.147-0.153,0.326-0.229,0.536-0.229c0.214,0,0.396,0.076,0.547,0.229s0.226,0.334,0.226,0.543
			s-0.075,0.39-0.226,0.54S104.007,106.001,103.793,106.001z"/>
		<path fill="#2F2F2F" d="M106.706,106.001c-0.21,0-0.389-0.075-0.536-0.226c-0.148-0.15-0.223-0.331-0.223-0.54
			s0.074-0.391,0.223-0.543c0.147-0.153,0.326-0.229,0.536-0.229c0.214,0,0.396,0.076,0.547,0.229s0.226,0.334,0.226,0.543
			s-0.075,0.39-0.226,0.54S106.92,106.001,106.706,106.001z"/>
		<path fill="#2F2F2F" d="M109.62,106.001c-0.21,0-0.389-0.075-0.536-0.226c-0.148-0.15-0.223-0.331-0.223-0.54
			s0.074-0.391,0.223-0.543c0.147-0.153,0.326-0.229,0.536-0.229c0.214,0,0.396,0.076,0.547,0.229s0.226,0.334,0.226,0.543
			s-0.075,0.39-0.226,0.54S109.834,106.001,109.62,106.001z"/>
		<path fill="#2F2F2F" d="M113.169,104.292l-1.094,3.363h-0.8l0.8-3.363H113.169z"/>
		<path fill="#2F2F2F" d="M120.515,105.85h-5.195v-9.803h4.977v1.039h-3.828v3.261h3.541v1.032h-3.541v3.432h4.047V105.85z"/>
		<path fill="#2F2F2F" d="M126.341,98.618c0-0.301-0.047-0.563-0.141-0.786c-0.093-0.223-0.221-0.409-0.383-0.557
			c-0.161-0.148-0.352-0.259-0.57-0.332s-0.456-0.109-0.711-0.109c-0.219,0-0.433,0.03-0.643,0.089s-0.414,0.141-0.611,0.246
			c-0.199,0.105-0.391,0.23-0.574,0.376c-0.186,0.146-0.357,0.308-0.517,0.485v-1.203c0.314-0.305,0.667-0.539,1.056-0.701
			c0.391-0.162,0.865-0.243,1.426-0.243c0.401,0,0.772,0.058,1.114,0.174s0.638,0.286,0.889,0.509s0.448,0.499,0.591,0.827
			c0.145,0.328,0.216,0.704,0.216,1.128c0,0.387-0.044,0.738-0.134,1.053c-0.088,0.314-0.223,0.611-0.402,0.889
			c-0.181,0.278-0.407,0.544-0.681,0.8s-0.595,0.515-0.964,0.779c-0.46,0.328-0.84,0.608-1.139,0.841
			c-0.298,0.232-0.535,0.45-0.711,0.653c-0.175,0.203-0.298,0.406-0.369,0.608c-0.07,0.203-0.105,0.437-0.105,0.701h4.881v1.005
			h-6.05v-0.485c0-0.419,0.046-0.789,0.137-1.107s0.241-0.622,0.451-0.909s0.484-0.574,0.823-0.861
			c0.34-0.287,0.756-0.611,1.248-0.971c0.355-0.255,0.652-0.499,0.893-0.731c0.238-0.232,0.432-0.465,0.577-0.697
			s0.249-0.468,0.312-0.708C126.31,99.141,126.341,98.887,126.341,98.618z"/>
		<path fill="#2F2F2F" d="M130.71,104.292l-1.094,3.363h-0.8l0.8-3.363H130.71z"/>
		<path fill="#2F2F2F" d="M141.901,105.85h-5.195v-9.803h4.977v1.039h-3.828v3.261h3.541v1.032h-3.541v3.432h4.047V105.85z"/>
		<path fill="#2F2F2F" d="M146.822,105.85h-1.121v-8.47c-0.087,0.086-0.213,0.186-0.379,0.297c-0.167,0.112-0.354,0.222-0.561,0.332
			c-0.208,0.109-0.427,0.212-0.656,0.308c-0.23,0.096-0.455,0.171-0.674,0.226v-1.135c0.246-0.068,0.507-0.161,0.783-0.277
			c0.275-0.116,0.547-0.246,0.812-0.39c0.268-0.144,0.519-0.294,0.756-0.451s0.442-0.311,0.615-0.461h0.424V105.85z"/>
	</g>
	<g>
		<path fill="#2F2F2F" d="M293.207,78.803V77.45c0.155,0.137,0.341,0.26,0.558,0.369c0.216,0.109,0.443,0.202,0.684,0.277
			c0.238,0.075,0.479,0.133,0.721,0.174s0.465,0.062,0.67,0.062c0.706,0,1.234-0.131,1.582-0.393
			c0.35-0.262,0.523-0.639,0.523-1.131c0-0.264-0.059-0.495-0.174-0.69c-0.117-0.196-0.277-0.375-0.482-0.537
			s-0.447-0.317-0.729-0.465c-0.279-0.148-0.582-0.304-0.905-0.468c-0.342-0.173-0.661-0.349-0.957-0.526s-0.554-0.374-0.772-0.588
			s-0.391-0.457-0.516-0.728c-0.126-0.271-0.188-0.589-0.188-0.954c0-0.447,0.098-0.835,0.294-1.166s0.453-0.603,0.772-0.817
			s0.683-0.374,1.091-0.479c0.407-0.105,0.823-0.157,1.247-0.157c0.966,0,1.67,0.116,2.112,0.349v1.292
			c-0.579-0.401-1.321-0.602-2.229-0.602c-0.251,0-0.501,0.026-0.752,0.079s-0.474,0.138-0.67,0.256s-0.355,0.271-0.479,0.458
			s-0.185,0.415-0.185,0.684c0,0.25,0.047,0.467,0.14,0.649c0.094,0.182,0.231,0.349,0.414,0.499s0.404,0.296,0.666,0.438
			c0.263,0.141,0.564,0.296,0.906,0.465c0.351,0.173,0.684,0.355,0.998,0.547s0.59,0.403,0.827,0.636s0.425,0.49,0.563,0.772
			c0.14,0.283,0.209,0.606,0.209,0.971c0,0.483-0.095,0.892-0.283,1.227c-0.189,0.335-0.445,0.607-0.766,0.817
			c-0.322,0.209-0.692,0.361-1.111,0.455s-0.861,0.14-1.326,0.14c-0.155,0-0.347-0.013-0.574-0.038s-0.46-0.062-0.697-0.109
			s-0.461-0.107-0.674-0.178C293.505,78.968,293.335,78.89,293.207,78.803z"/>
		<path fill="#2F2F2F" d="M306.438,79.2h-1.121v-1.107h-0.027c-0.465,0.848-1.185,1.271-2.16,1.271c-1.668,0-2.502-0.994-2.502-2.98
			V72.2h1.114v4.006c0,1.477,0.565,2.215,1.695,2.215c0.547,0,0.997-0.202,1.351-0.605c0.353-0.403,0.529-0.931,0.529-1.583V72.2
			h1.121V79.2z"/>
		<path fill="#2F2F2F" d="M309.694,78.188h-0.027V79.2h-1.121V68.837h1.121v4.594h0.027c0.552-0.93,1.358-1.395,2.42-1.395
			c0.897,0,1.601,0.313,2.109,0.94c0.508,0.626,0.762,1.466,0.762,2.519c0,1.171-0.285,2.109-0.854,2.813s-1.349,1.056-2.338,1.056
			C310.867,79.364,310.167,78.972,309.694,78.188z M309.666,75.365v0.978c0,0.579,0.188,1.07,0.564,1.473
			c0.375,0.403,0.853,0.605,1.432,0.605c0.679,0,1.211-0.26,1.596-0.779c0.386-0.52,0.578-1.242,0.578-2.167
			c0-0.779-0.18-1.39-0.54-1.832s-0.848-0.663-1.463-0.663c-0.651,0-1.176,0.227-1.572,0.68S309.666,74.681,309.666,75.365z"/>
		<path fill="#2F2F2F" d="M316.263,78.947v-1.203c0.61,0.451,1.283,0.677,2.017,0.677c0.984,0,1.477-0.328,1.477-0.984
			c0-0.187-0.042-0.345-0.126-0.475c-0.085-0.13-0.199-0.245-0.342-0.345c-0.145-0.1-0.312-0.19-0.506-0.27
			c-0.194-0.08-0.402-0.163-0.626-0.25c-0.31-0.123-0.582-0.247-0.817-0.373c-0.234-0.125-0.43-0.267-0.588-0.424
			c-0.156-0.157-0.275-0.336-0.355-0.537c-0.079-0.201-0.119-0.435-0.119-0.704c0-0.328,0.075-0.619,0.226-0.872
			s0.351-0.465,0.602-0.636s0.536-0.3,0.858-0.386c0.32-0.086,0.652-0.13,0.994-0.13c0.606,0,1.148,0.105,1.627,0.314v1.135
			c-0.515-0.337-1.107-0.506-1.777-0.506c-0.21,0-0.398,0.024-0.567,0.072s-0.313,0.115-0.435,0.202
			c-0.12,0.086-0.214,0.19-0.279,0.311c-0.066,0.121-0.1,0.254-0.1,0.4c0,0.182,0.033,0.335,0.1,0.458
			c0.065,0.123,0.162,0.232,0.29,0.328s0.282,0.182,0.465,0.26s0.39,0.162,0.622,0.253c0.31,0.119,0.588,0.24,0.834,0.366
			s0.456,0.267,0.629,0.424s0.307,0.338,0.4,0.543c0.093,0.205,0.14,0.449,0.14,0.731c0,0.346-0.076,0.647-0.229,0.902
			c-0.152,0.255-0.356,0.467-0.611,0.636s-0.549,0.294-0.882,0.376s-0.682,0.123-1.046,0.123
			C317.416,79.364,316.791,79.225,316.263,78.947z"/>
		<path fill="#2F2F2F" d="M328.219,75.98h-4.942c0.019,0.779,0.228,1.381,0.629,1.805s0.952,0.636,1.654,0.636
			c0.788,0,1.513-0.26,2.174-0.779v1.053c-0.615,0.447-1.429,0.67-2.44,0.67c-0.989,0-1.766-0.318-2.331-0.954
			s-0.848-1.53-0.848-2.683c0-1.089,0.309-1.977,0.926-2.663c0.618-0.686,1.385-1.029,2.301-1.029s1.625,0.296,2.126,0.889
			s0.752,1.415,0.752,2.468V75.98z M327.07,75.03c-0.005-0.647-0.161-1.151-0.468-1.511c-0.309-0.36-0.735-0.54-1.282-0.54
			c-0.528,0-0.978,0.189-1.347,0.567s-0.597,0.873-0.684,1.483H327.07z"/>
		<path fill="#2F2F2F" d="M333.143,79.132c-0.265,0.146-0.613,0.219-1.046,0.219c-1.226,0-1.839-0.684-1.839-2.051v-4.143h-1.203
			V72.2h1.203v-1.709l1.121-0.362V72.2h1.764v0.957h-1.764v3.944c0,0.469,0.08,0.804,0.239,1.005s0.424,0.301,0.793,0.301
			c0.282,0,0.526-0.078,0.731-0.232V79.132z"/>
		<path fill="#2F2F2F" d="M338.051,78.947v-1.203c0.61,0.451,1.283,0.677,2.017,0.677c0.984,0,1.477-0.328,1.477-0.984
			c0-0.187-0.042-0.345-0.126-0.475c-0.085-0.13-0.199-0.245-0.342-0.345c-0.145-0.1-0.312-0.19-0.506-0.27
			c-0.194-0.08-0.402-0.163-0.626-0.25c-0.31-0.123-0.582-0.247-0.817-0.373c-0.234-0.125-0.43-0.267-0.588-0.424
			c-0.156-0.157-0.275-0.336-0.355-0.537c-0.079-0.201-0.119-0.435-0.119-0.704c0-0.328,0.075-0.619,0.226-0.872
			s0.351-0.465,0.602-0.636s0.536-0.3,0.858-0.386c0.32-0.086,0.652-0.13,0.994-0.13c0.606,0,1.148,0.105,1.627,0.314v1.135
			c-0.515-0.337-1.107-0.506-1.777-0.506c-0.21,0-0.398,0.024-0.567,0.072s-0.313,0.115-0.435,0.202
			c-0.12,0.086-0.214,0.19-0.279,0.311c-0.066,0.121-0.1,0.254-0.1,0.4c0,0.182,0.033,0.335,0.1,0.458
			c0.065,0.123,0.162,0.232,0.29,0.328s0.282,0.182,0.465,0.26s0.39,0.162,0.622,0.253c0.31,0.119,0.588,0.24,0.834,0.366
			s0.456,0.267,0.629,0.424s0.307,0.338,0.4,0.543c0.093,0.205,0.14,0.449,0.14,0.731c0,0.346-0.076,0.647-0.229,0.902
			c-0.152,0.255-0.356,0.467-0.611,0.636s-0.549,0.294-0.882,0.376s-0.682,0.123-1.046,0.123
			C339.204,79.364,338.579,79.225,338.051,78.947z"/>
		<path fill="#2F2F2F" d="M350.006,75.98h-4.942c0.019,0.779,0.228,1.381,0.629,1.805s0.952,0.636,1.654,0.636
			c0.788,0,1.513-0.26,2.174-0.779v1.053c-0.615,0.447-1.429,0.67-2.44,0.67c-0.989,0-1.766-0.318-2.331-0.954
			s-0.848-1.53-0.848-2.683c0-1.089,0.309-1.977,0.926-2.663c0.618-0.686,1.385-1.029,2.301-1.029s1.625,0.296,2.126,0.889
			s0.752,1.415,0.752,2.468V75.98z M348.858,75.03c-0.005-0.647-0.161-1.151-0.468-1.511c-0.309-0.36-0.735-0.54-1.282-0.54
			c-0.528,0-0.978,0.189-1.347,0.567s-0.597,0.873-0.684,1.483H348.858z"/>
		<path fill="#2F2F2F" d="M352.802,79.2h-1.121V68.837h1.121V79.2z"/>
		<path fill="#2F2F2F" d="M360.64,75.98h-4.942c0.019,0.779,0.228,1.381,0.629,1.805s0.952,0.636,1.654,0.636
			c0.788,0,1.513-0.26,2.174-0.779v1.053c-0.615,0.447-1.429,0.67-2.44,0.67c-0.989,0-1.766-0.318-2.331-0.954
			s-0.848-1.53-0.848-2.683c0-1.089,0.309-1.977,0.926-2.663c0.618-0.686,1.385-1.029,2.301-1.029s1.625,0.296,2.126,0.889
			s0.752,1.415,0.752,2.468V75.98z M359.491,75.03c-0.005-0.647-0.161-1.151-0.468-1.511c-0.309-0.36-0.735-0.54-1.282-0.54
			c-0.528,0-0.978,0.189-1.347,0.567s-0.597,0.873-0.684,1.483H359.491z"/>
		<path fill="#2F2F2F" d="M367.137,78.879c-0.538,0.324-1.176,0.485-1.914,0.485c-0.998,0-1.804-0.325-2.416-0.974
			c-0.613-0.649-0.92-1.491-0.92-2.526c0-1.153,0.33-2.079,0.991-2.779s1.543-1.049,2.646-1.049c0.615,0,1.157,0.114,1.627,0.342
			v1.148c-0.52-0.365-1.075-0.547-1.668-0.547c-0.716,0-1.303,0.256-1.76,0.769c-0.459,0.513-0.688,1.186-0.688,2.02
			c0,0.82,0.215,1.467,0.646,1.941c0.43,0.474,1.008,0.711,1.732,0.711c0.61,0,1.185-0.203,1.723-0.608V78.879z"/>
		<path fill="#2F2F2F" d="M372.301,79.132c-0.265,0.146-0.613,0.219-1.046,0.219c-1.226,0-1.839-0.684-1.839-2.051v-4.143h-1.203
			V72.2h1.203v-1.709l1.121-0.362V72.2h1.764v0.957h-1.764v3.944c0,0.469,0.08,0.804,0.239,1.005s0.424,0.301,0.793,0.301
			c0.282,0,0.526-0.078,0.731-0.232V79.132z"/>
		<path fill="#2F2F2F" d="M379.293,75.98h-4.942c0.019,0.779,0.228,1.381,0.629,1.805s0.952,0.636,1.654,0.636
			c0.788,0,1.513-0.26,2.174-0.779v1.053c-0.615,0.447-1.429,0.67-2.44,0.67c-0.989,0-1.766-0.318-2.331-0.954
			s-0.848-1.53-0.848-2.683c0-1.089,0.309-1.977,0.926-2.663c0.618-0.686,1.385-1.029,2.301-1.029s1.625,0.296,2.126,0.889
			s0.752,1.415,0.752,2.468V75.98z M378.145,75.03c-0.005-0.647-0.161-1.151-0.468-1.511c-0.309-0.36-0.735-0.54-1.282-0.54
			c-0.528,0-0.978,0.189-1.347,0.567s-0.597,0.873-0.684,1.483H378.145z"/>
		<path fill="#2F2F2F" d="M387.026,79.2h-1.121V78.01h-0.027c-0.52,0.902-1.321,1.354-2.406,1.354c-0.88,0-1.582-0.313-2.109-0.94
			c-0.525-0.626-0.789-1.48-0.789-2.56c0-1.158,0.292-2.085,0.875-2.782s1.36-1.046,2.331-1.046c0.962,0,1.661,0.378,2.099,1.135
			h0.027v-4.334h1.121V79.2z M385.904,76.035v-1.032c0-0.565-0.187-1.043-0.561-1.436s-0.848-0.588-1.422-0.588
			c-0.684,0-1.222,0.25-1.613,0.752s-0.588,1.194-0.588,2.078c0,0.807,0.188,1.443,0.564,1.911c0.375,0.467,0.88,0.701,1.514,0.701
			c0.624,0,1.131-0.226,1.521-0.677C385.709,77.293,385.904,76.723,385.904,76.035z"/>
		<path fill="#2F2F2F" d="M389.365,73.567c-0.21,0-0.389-0.075-0.536-0.226c-0.148-0.15-0.223-0.331-0.223-0.54
			s0.074-0.387,0.223-0.533c0.147-0.146,0.326-0.219,0.536-0.219c0.214,0,0.396,0.073,0.547,0.219s0.226,0.324,0.226,0.533
			s-0.075,0.39-0.226,0.54S389.579,73.567,389.365,73.567z M389.365,79.35c-0.21,0-0.389-0.075-0.536-0.226
			c-0.148-0.15-0.223-0.331-0.223-0.54s0.074-0.391,0.223-0.543c0.147-0.153,0.326-0.229,0.536-0.229
			c0.214,0,0.396,0.076,0.547,0.229s0.226,0.334,0.226,0.543s-0.075,0.39-0.226,0.54S389.579,79.35,389.365,79.35z"/>
		<path fill="#2F2F2F" d="M396.236,79.35c-0.21,0-0.389-0.075-0.536-0.226c-0.148-0.15-0.223-0.331-0.223-0.54
			s0.074-0.391,0.223-0.543c0.147-0.153,0.326-0.229,0.536-0.229c0.214,0,0.396,0.076,0.547,0.229s0.226,0.334,0.226,0.543
			s-0.075,0.39-0.226,0.54S396.449,79.35,396.236,79.35z"/>
		<path fill="#2F2F2F" d="M399.149,79.35c-0.21,0-0.389-0.075-0.536-0.226c-0.148-0.15-0.223-0.331-0.223-0.54
			s0.074-0.391,0.223-0.543c0.147-0.153,0.326-0.229,0.536-0.229c0.214,0,0.396,0.076,0.547,0.229s0.226,0.334,0.226,0.543
			s-0.075,0.39-0.226,0.54S399.362,79.35,399.149,79.35z"/>
		<path fill="#2F2F2F" d="M402.062,79.35c-0.21,0-0.389-0.075-0.536-0.226c-0.148-0.15-0.223-0.331-0.223-0.54
			s0.074-0.391,0.223-0.543c0.147-0.153,0.326-0.229,0.536-0.229c0.214,0,0.396,0.076,0.547,0.229s0.226,0.334,0.226,0.543
			s-0.075,0.39-0.226,0.54S402.276,79.35,402.062,79.35z"/>
		<path fill="#2F2F2F" d="M405.612,77.641l-1.094,3.363h-0.8l0.8-3.363H405.612z"/>
		<path fill="#2F2F2F" d="M416.802,79.2h-5.195v-9.803h4.977v1.039h-3.828v3.261h3.541v1.032h-3.541v3.432h4.047V79.2z"/>
		<path fill="#2F2F2F" d="M423.816,76.425c0,0.442-0.083,0.844-0.249,1.207c-0.167,0.362-0.401,0.672-0.705,0.93
			c-0.303,0.257-0.666,0.457-1.09,0.598s-0.891,0.212-1.401,0.212c-0.935,0-1.677-0.178-2.229-0.533v-1.203
			c0.661,0.52,1.417,0.779,2.27,0.779c0.342,0,0.65-0.043,0.927-0.13c0.275-0.086,0.512-0.212,0.711-0.376
			c0.197-0.164,0.351-0.362,0.457-0.595c0.107-0.232,0.161-0.495,0.161-0.786c0-1.281-0.911-1.921-2.734-1.921h-0.813v-0.95h0.772
			c1.613,0,2.42-0.602,2.42-1.805c0-1.112-0.615-1.668-1.846-1.668c-0.692,0-1.342,0.232-1.948,0.697v-1.087
			c0.624-0.374,1.367-0.561,2.229-0.561c0.41,0,0.781,0.057,1.114,0.171s0.617,0.273,0.854,0.479s0.42,0.451,0.551,0.738
			c0.129,0.287,0.194,0.604,0.194,0.95c0,1.29-0.651,2.119-1.955,2.488v0.027c0.333,0.037,0.641,0.117,0.923,0.243
			s0.526,0.288,0.731,0.489s0.366,0.437,0.481,0.708C423.758,75.797,423.816,76.096,423.816,76.425z"/>
		<path fill="#2F2F2F" d="M426.905,77.641l-1.094,3.363h-0.8l0.8-3.363H426.905z"/>
		<path fill="#2F2F2F" d="M438.096,79.2h-5.195v-9.803h4.977v1.039h-3.828v3.261h3.541v1.032h-3.541v3.432h4.047V79.2z"/>
		<path fill="#2F2F2F" d="M443.922,71.967c0-0.301-0.047-0.563-0.141-0.786c-0.093-0.223-0.221-0.409-0.383-0.557
			c-0.161-0.148-0.352-0.259-0.57-0.332s-0.456-0.109-0.711-0.109c-0.219,0-0.433,0.03-0.643,0.089s-0.414,0.141-0.611,0.246
			c-0.199,0.105-0.391,0.23-0.574,0.376c-0.186,0.146-0.357,0.308-0.517,0.485v-1.203c0.314-0.305,0.667-0.539,1.056-0.701
			c0.391-0.162,0.865-0.243,1.426-0.243c0.401,0,0.772,0.058,1.114,0.174s0.638,0.286,0.889,0.509s0.448,0.499,0.591,0.827
			c0.145,0.328,0.216,0.704,0.216,1.128c0,0.387-0.044,0.738-0.134,1.053c-0.088,0.314-0.223,0.611-0.402,0.889
			c-0.181,0.278-0.407,0.544-0.681,0.8s-0.595,0.515-0.964,0.779c-0.46,0.328-0.84,0.608-1.139,0.841
			c-0.298,0.232-0.535,0.45-0.711,0.653c-0.175,0.203-0.298,0.406-0.369,0.608c-0.07,0.203-0.105,0.437-0.105,0.701h4.881V79.2
			h-6.05v-0.485c0-0.419,0.046-0.789,0.137-1.107s0.241-0.622,0.451-0.909s0.484-0.574,0.823-0.861
			c0.34-0.287,0.756-0.611,1.248-0.971c0.355-0.255,0.652-0.499,0.893-0.731c0.238-0.232,0.432-0.465,0.577-0.697
			s0.249-0.468,0.312-0.708C443.891,72.49,443.922,72.237,443.922,71.967z"/>
		<path fill="#2F2F2F" d="M448.291,77.641l-1.094,3.363h-0.8l0.8-3.363H448.291z"/>
		<path fill="#2F2F2F" d="M459.482,79.2h-5.195v-9.803h4.977v1.039h-3.828v3.261h3.541v1.032h-3.541v3.432h4.047V79.2z"/>
		<path fill="#2F2F2F" d="M464.404,79.2h-1.121v-8.47c-0.087,0.086-0.213,0.186-0.379,0.297c-0.167,0.112-0.354,0.222-0.561,0.332
			c-0.208,0.109-0.427,0.212-0.656,0.308c-0.23,0.096-0.455,0.171-0.674,0.226v-1.135c0.246-0.068,0.507-0.161,0.783-0.277
			c0.275-0.116,0.547-0.246,0.812-0.39c0.268-0.144,0.519-0.294,0.756-0.451s0.442-0.311,0.615-0.461h0.424V79.2z"/>
	</g>
	<g>
		<path fill="#2F2F2F" d="M293.207,109.604v-1.354c0.155,0.137,0.341,0.26,0.558,0.369c0.216,0.109,0.443,0.202,0.684,0.277
			c0.238,0.075,0.479,0.133,0.721,0.174s0.465,0.062,0.67,0.062c0.706,0,1.234-0.131,1.582-0.393
			c0.35-0.262,0.523-0.639,0.523-1.131c0-0.264-0.059-0.495-0.174-0.69c-0.117-0.196-0.277-0.375-0.482-0.537
			s-0.447-0.317-0.729-0.465c-0.279-0.148-0.582-0.304-0.905-0.468c-0.342-0.173-0.661-0.349-0.957-0.526s-0.554-0.374-0.772-0.588
			s-0.391-0.457-0.516-0.728c-0.126-0.271-0.188-0.589-0.188-0.954c0-0.447,0.098-0.835,0.294-1.166s0.453-0.603,0.772-0.817
			s0.683-0.374,1.091-0.479c0.407-0.105,0.823-0.157,1.247-0.157c0.966,0,1.67,0.116,2.112,0.349v1.292
			c-0.579-0.401-1.321-0.602-2.229-0.602c-0.251,0-0.501,0.026-0.752,0.079s-0.474,0.138-0.67,0.256s-0.355,0.271-0.479,0.458
			s-0.185,0.415-0.185,0.684c0,0.25,0.047,0.467,0.14,0.649c0.094,0.182,0.231,0.349,0.414,0.499s0.404,0.296,0.666,0.438
			c0.263,0.141,0.564,0.296,0.906,0.465c0.351,0.173,0.684,0.355,0.998,0.547s0.59,0.403,0.827,0.636s0.425,0.49,0.563,0.772
			c0.14,0.283,0.209,0.606,0.209,0.971c0,0.483-0.095,0.892-0.283,1.227c-0.189,0.335-0.445,0.607-0.766,0.817
			c-0.322,0.209-0.692,0.361-1.111,0.455s-0.861,0.14-1.326,0.14c-0.155,0-0.347-0.013-0.574-0.038s-0.46-0.062-0.697-0.109
			s-0.461-0.107-0.674-0.178C293.505,109.769,293.335,109.69,293.207,109.604z"/>
		<path fill="#2F2F2F" d="M306.438,110h-1.121v-1.107h-0.027c-0.465,0.848-1.185,1.271-2.16,1.271c-1.668,0-2.502-0.994-2.502-2.98
			V103h1.114v4.006c0,1.477,0.565,2.215,1.695,2.215c0.547,0,0.997-0.202,1.351-0.605c0.353-0.403,0.529-0.931,0.529-1.583V103
			h1.121V110z"/>
		<path fill="#2F2F2F" d="M309.694,108.988h-0.027V110h-1.121V99.637h1.121v4.594h0.027c0.552-0.93,1.358-1.395,2.42-1.395
			c0.897,0,1.601,0.313,2.109,0.94c0.508,0.626,0.762,1.466,0.762,2.519c0,1.171-0.285,2.109-0.854,2.813s-1.349,1.056-2.338,1.056
			C310.867,110.164,310.167,109.772,309.694,108.988z M309.666,106.165v0.978c0,0.579,0.188,1.07,0.564,1.473
			c0.375,0.403,0.853,0.605,1.432,0.605c0.679,0,1.211-0.26,1.596-0.779c0.386-0.52,0.578-1.242,0.578-2.167
			c0-0.779-0.18-1.39-0.54-1.832s-0.848-0.663-1.463-0.663c-0.651,0-1.176,0.227-1.572,0.68S309.666,105.482,309.666,106.165z"/>
		<path fill="#2F2F2F" d="M316.263,109.747v-1.203c0.61,0.451,1.283,0.677,2.017,0.677c0.984,0,1.477-0.328,1.477-0.984
			c0-0.187-0.042-0.345-0.126-0.475c-0.085-0.13-0.199-0.245-0.342-0.345c-0.145-0.1-0.312-0.19-0.506-0.27
			c-0.194-0.08-0.402-0.163-0.626-0.25c-0.31-0.123-0.582-0.247-0.817-0.373c-0.234-0.125-0.43-0.267-0.588-0.424
			c-0.156-0.157-0.275-0.336-0.355-0.537c-0.079-0.201-0.119-0.435-0.119-0.704c0-0.328,0.075-0.619,0.226-0.872
			s0.351-0.465,0.602-0.636s0.536-0.3,0.858-0.386c0.32-0.086,0.652-0.13,0.994-0.13c0.606,0,1.148,0.105,1.627,0.314v1.135
			c-0.515-0.337-1.107-0.506-1.777-0.506c-0.21,0-0.398,0.024-0.567,0.072s-0.313,0.115-0.435,0.202
			c-0.12,0.086-0.214,0.19-0.279,0.311c-0.066,0.121-0.1,0.254-0.1,0.4c0,0.182,0.033,0.335,0.1,0.458
			c0.065,0.123,0.162,0.232,0.29,0.328s0.282,0.182,0.465,0.26s0.39,0.162,0.622,0.253c0.31,0.119,0.588,0.24,0.834,0.366
			s0.456,0.267,0.629,0.424s0.307,0.338,0.4,0.543c0.093,0.205,0.14,0.449,0.14,0.731c0,0.346-0.076,0.647-0.229,0.902
			c-0.152,0.255-0.356,0.467-0.611,0.636s-0.549,0.294-0.882,0.376s-0.682,0.123-1.046,0.123
			C317.416,110.164,316.791,110.025,316.263,109.747z"/>
		<path fill="#2F2F2F" d="M328.219,106.78h-4.942c0.019,0.779,0.228,1.381,0.629,1.805s0.952,0.636,1.654,0.636
			c0.788,0,1.513-0.26,2.174-0.779v1.053c-0.615,0.447-1.429,0.67-2.44,0.67c-0.989,0-1.766-0.318-2.331-0.954
			s-0.848-1.53-0.848-2.683c0-1.089,0.309-1.977,0.926-2.663c0.618-0.686,1.385-1.029,2.301-1.029s1.625,0.296,2.126,0.889
			s0.752,1.415,0.752,2.468V106.78z M327.07,105.83c-0.005-0.647-0.161-1.151-0.468-1.511c-0.309-0.36-0.735-0.54-1.282-0.54
			c-0.528,0-0.978,0.189-1.347,0.567s-0.597,0.873-0.684,1.483H327.07z"/>
		<path fill="#2F2F2F" d="M333.143,109.932c-0.265,0.146-0.613,0.219-1.046,0.219c-1.226,0-1.839-0.684-1.839-2.051v-4.143h-1.203
			V103h1.203v-1.709l1.121-0.362V103h1.764v0.957h-1.764v3.944c0,0.469,0.08,0.804,0.239,1.005s0.424,0.301,0.793,0.301
			c0.282,0,0.526-0.078,0.731-0.232V109.932z"/>
		<path fill="#2F2F2F" d="M338.051,109.747v-1.203c0.61,0.451,1.283,0.677,2.017,0.677c0.984,0,1.477-0.328,1.477-0.984
			c0-0.187-0.042-0.345-0.126-0.475c-0.085-0.13-0.199-0.245-0.342-0.345c-0.145-0.1-0.312-0.19-0.506-0.27
			c-0.194-0.08-0.402-0.163-0.626-0.25c-0.31-0.123-0.582-0.247-0.817-0.373c-0.234-0.125-0.43-0.267-0.588-0.424
			c-0.156-0.157-0.275-0.336-0.355-0.537c-0.079-0.201-0.119-0.435-0.119-0.704c0-0.328,0.075-0.619,0.226-0.872
			s0.351-0.465,0.602-0.636s0.536-0.3,0.858-0.386c0.32-0.086,0.652-0.13,0.994-0.13c0.606,0,1.148,0.105,1.627,0.314v1.135
			c-0.515-0.337-1.107-0.506-1.777-0.506c-0.21,0-0.398,0.024-0.567,0.072s-0.313,0.115-0.435,0.202
			c-0.12,0.086-0.214,0.19-0.279,0.311c-0.066,0.121-0.1,0.254-0.1,0.4c0,0.182,0.033,0.335,0.1,0.458
			c0.065,0.123,0.162,0.232,0.29,0.328s0.282,0.182,0.465,0.26s0.39,0.162,0.622,0.253c0.31,0.119,0.588,0.24,0.834,0.366
			s0.456,0.267,0.629,0.424s0.307,0.338,0.4,0.543c0.093,0.205,0.14,0.449,0.14,0.731c0,0.346-0.076,0.647-0.229,0.902
			c-0.152,0.255-0.356,0.467-0.611,0.636s-0.549,0.294-0.882,0.376s-0.682,0.123-1.046,0.123
			C339.204,110.164,338.579,110.025,338.051,109.747z"/>
		<path fill="#2F2F2F" d="M350.006,106.78h-4.942c0.019,0.779,0.228,1.381,0.629,1.805s0.952,0.636,1.654,0.636
			c0.788,0,1.513-0.26,2.174-0.779v1.053c-0.615,0.447-1.429,0.67-2.44,0.67c-0.989,0-1.766-0.318-2.331-0.954
			s-0.848-1.53-0.848-2.683c0-1.089,0.309-1.977,0.926-2.663c0.618-0.686,1.385-1.029,2.301-1.029s1.625,0.296,2.126,0.889
			s0.752,1.415,0.752,2.468V106.78z M348.858,105.83c-0.005-0.647-0.161-1.151-0.468-1.511c-0.309-0.36-0.735-0.54-1.282-0.54
			c-0.528,0-0.978,0.189-1.347,0.567s-0.597,0.873-0.684,1.483H348.858z"/>
		<path fill="#2F2F2F" d="M352.802,110h-1.121V99.637h1.121V110z"/>
		<path fill="#2F2F2F" d="M360.64,106.78h-4.942c0.019,0.779,0.228,1.381,0.629,1.805s0.952,0.636,1.654,0.636
			c0.788,0,1.513-0.26,2.174-0.779v1.053c-0.615,0.447-1.429,0.67-2.44,0.67c-0.989,0-1.766-0.318-2.331-0.954
			s-0.848-1.53-0.848-2.683c0-1.089,0.309-1.977,0.926-2.663c0.618-0.686,1.385-1.029,2.301-1.029s1.625,0.296,2.126,0.889
			s0.752,1.415,0.752,2.468V106.78z M359.491,105.83c-0.005-0.647-0.161-1.151-0.468-1.511c-0.309-0.36-0.735-0.54-1.282-0.54
			c-0.528,0-0.978,0.189-1.347,0.567s-0.597,0.873-0.684,1.483H359.491z"/>
		<path fill="#2F2F2F" d="M367.137,109.679c-0.538,0.324-1.176,0.485-1.914,0.485c-0.998,0-1.804-0.325-2.416-0.974
			c-0.613-0.649-0.92-1.491-0.92-2.526c0-1.153,0.33-2.079,0.991-2.779s1.543-1.049,2.646-1.049c0.615,0,1.157,0.114,1.627,0.342
			v1.148c-0.52-0.365-1.075-0.547-1.668-0.547c-0.716,0-1.303,0.256-1.76,0.769c-0.459,0.513-0.688,1.186-0.688,2.02
			c0,0.82,0.215,1.467,0.646,1.941c0.43,0.474,1.008,0.711,1.732,0.711c0.61,0,1.185-0.203,1.723-0.608V109.679z"/>
		<path fill="#2F2F2F" d="M372.301,109.932c-0.265,0.146-0.613,0.219-1.046,0.219c-1.226,0-1.839-0.684-1.839-2.051v-4.143h-1.203
			V103h1.203v-1.709l1.121-0.362V103h1.764v0.957h-1.764v3.944c0,0.469,0.08,0.804,0.239,1.005s0.424,0.301,0.793,0.301
			c0.282,0,0.526-0.078,0.731-0.232V109.932z"/>
		<path fill="#2F2F2F" d="M379.293,106.78h-4.942c0.019,0.779,0.228,1.381,0.629,1.805s0.952,0.636,1.654,0.636
			c0.788,0,1.513-0.26,2.174-0.779v1.053c-0.615,0.447-1.429,0.67-2.44,0.67c-0.989,0-1.766-0.318-2.331-0.954
			s-0.848-1.53-0.848-2.683c0-1.089,0.309-1.977,0.926-2.663c0.618-0.686,1.385-1.029,2.301-1.029s1.625,0.296,2.126,0.889
			s0.752,1.415,0.752,2.468V106.78z M378.145,105.83c-0.005-0.647-0.161-1.151-0.468-1.511c-0.309-0.36-0.735-0.54-1.282-0.54
			c-0.528,0-0.978,0.189-1.347,0.567s-0.597,0.873-0.684,1.483H378.145z"/>
		<path fill="#2F2F2F" d="M387.026,110h-1.121v-1.189h-0.027c-0.52,0.902-1.321,1.354-2.406,1.354c-0.88,0-1.582-0.313-2.109-0.94
			c-0.525-0.626-0.789-1.48-0.789-2.56c0-1.158,0.292-2.085,0.875-2.782s1.36-1.046,2.331-1.046c0.962,0,1.661,0.378,2.099,1.135
			h0.027v-4.334h1.121V110z M385.904,106.835v-1.032c0-0.565-0.187-1.043-0.561-1.436s-0.848-0.588-1.422-0.588
			c-0.684,0-1.222,0.25-1.613,0.752s-0.588,1.194-0.588,2.078c0,0.807,0.188,1.443,0.564,1.911c0.375,0.467,0.88,0.701,1.514,0.701
			c0.624,0,1.131-0.226,1.521-0.677C385.709,108.093,385.904,107.523,385.904,106.835z"/>
		<path fill="#2F2F2F" d="M389.365,104.367c-0.21,0-0.389-0.075-0.536-0.226c-0.148-0.15-0.223-0.331-0.223-0.54
			s0.074-0.387,0.223-0.533c0.147-0.146,0.326-0.219,0.536-0.219c0.214,0,0.396,0.073,0.547,0.219s0.226,0.324,0.226,0.533
			s-0.075,0.39-0.226,0.54S389.579,104.367,389.365,104.367z M389.365,110.151c-0.21,0-0.389-0.075-0.536-0.226
			c-0.148-0.15-0.223-0.331-0.223-0.54s0.074-0.391,0.223-0.543c0.147-0.153,0.326-0.229,0.536-0.229
			c0.214,0,0.396,0.076,0.547,0.229s0.226,0.334,0.226,0.543s-0.075,0.39-0.226,0.54S389.579,110.151,389.365,110.151z"/>
		<path fill="#2F2F2F" d="M396.236,110.151c-0.21,0-0.389-0.075-0.536-0.226c-0.148-0.15-0.223-0.331-0.223-0.54
			s0.074-0.391,0.223-0.543c0.147-0.153,0.326-0.229,0.536-0.229c0.214,0,0.396,0.076,0.547,0.229s0.226,0.334,0.226,0.543
			s-0.075,0.39-0.226,0.54S396.449,110.151,396.236,110.151z"/>
		<path fill="#2F2F2F" d="M399.149,110.151c-0.21,0-0.389-0.075-0.536-0.226c-0.148-0.15-0.223-0.331-0.223-0.54
			s0.074-0.391,0.223-0.543c0.147-0.153,0.326-0.229,0.536-0.229c0.214,0,0.396,0.076,0.547,0.229s0.226,0.334,0.226,0.543
			s-0.075,0.39-0.226,0.54S399.362,110.151,399.149,110.151z"/>
		<path fill="#2F2F2F" d="M402.062,110.151c-0.21,0-0.389-0.075-0.536-0.226c-0.148-0.15-0.223-0.331-0.223-0.54
			s0.074-0.391,0.223-0.543c0.147-0.153,0.326-0.229,0.536-0.229c0.214,0,0.396,0.076,0.547,0.229s0.226,0.334,0.226,0.543
			s-0.075,0.39-0.226,0.54S402.276,110.151,402.062,110.151z"/>
		<path fill="#2F2F2F" d="M405.612,108.442l-1.094,3.363h-0.8l0.8-3.363H405.612z"/>
		<path fill="#2F2F2F" d="M416.802,110h-5.195v-9.803h4.977v1.039h-3.828v3.261h3.541v1.032h-3.541v3.432h4.047V110z"/>
		<path fill="#2F2F2F" d="M421.724,110h-1.121v-8.47c-0.087,0.086-0.213,0.186-0.379,0.297c-0.167,0.112-0.354,0.222-0.561,0.332
			c-0.208,0.109-0.427,0.212-0.656,0.308c-0.23,0.096-0.455,0.171-0.674,0.226v-1.135c0.246-0.068,0.507-0.161,0.783-0.277
			c0.275-0.116,0.547-0.246,0.812-0.39c0.268-0.144,0.519-0.294,0.756-0.451s0.442-0.311,0.615-0.461h0.424V110z"/>
		<path fill="#2F2F2F" d="M430.581,106.89c0,0.479-0.077,0.918-0.232,1.319s-0.369,0.748-0.643,1.039s-0.6,0.519-0.978,0.68
			s-0.788,0.243-1.23,0.243c-0.492,0-0.933-0.103-1.323-0.308c-0.389-0.205-0.72-0.5-0.99-0.885
			c-0.271-0.385-0.478-0.855-0.619-1.412s-0.212-1.183-0.212-1.88c0-0.852,0.095-1.626,0.284-2.321
			c0.188-0.695,0.457-1.29,0.807-1.784c0.348-0.495,0.769-0.876,1.261-1.145s1.041-0.403,1.647-0.403
			c0.675,0,1.217,0.093,1.627,0.28v1.06c-0.506-0.26-1.039-0.39-1.6-0.39c-0.438,0-0.832,0.098-1.183,0.294
			s-0.651,0.473-0.902,0.831s-0.443,0.79-0.577,1.295c-0.135,0.506-0.202,1.069-0.202,1.688h0.027
			c0.451-0.816,1.196-1.224,2.235-1.224c0.429,0,0.814,0.073,1.158,0.219c0.345,0.146,0.639,0.352,0.883,0.619
			c0.243,0.267,0.432,0.584,0.563,0.954S430.581,106.439,430.581,106.89z M429.433,107.033c0-0.342-0.043-0.649-0.13-0.923
			s-0.211-0.506-0.372-0.697c-0.162-0.191-0.361-0.338-0.599-0.441s-0.506-0.154-0.807-0.154c-0.278,0-0.535,0.052-0.772,0.157
			s-0.442,0.247-0.615,0.427s-0.309,0.39-0.406,0.629c-0.099,0.239-0.147,0.493-0.147,0.762c0,0.337,0.048,0.653,0.144,0.947
			s0.23,0.55,0.403,0.769s0.38,0.391,0.618,0.516c0.24,0.125,0.505,0.188,0.797,0.188c0.282,0,0.54-0.054,0.772-0.161
			s0.431-0.256,0.595-0.448s0.292-0.42,0.383-0.687S429.433,107.357,429.433,107.033z"/>
		<path fill="#2F2F2F" d="M433.394,108.442l-1.094,3.363h-0.8l0.8-3.363H433.394z"/>
		<path fill="#2F2F2F" d="M444.584,110h-5.195v-9.803h4.977v1.039h-3.828v3.261h3.541v1.032h-3.541v3.432h4.047V110z"/>
		<path fill="#2F2F2F" d="M449.507,110h-1.121v-8.47c-0.087,0.086-0.213,0.186-0.379,0.297c-0.167,0.112-0.354,0.222-0.561,0.332
			c-0.208,0.109-0.427,0.212-0.656,0.308c-0.23,0.096-0.455,0.171-0.674,0.226v-1.135c0.246-0.068,0.507-0.161,0.783-0.277
			c0.275-0.116,0.547-0.246,0.812-0.39c0.268-0.144,0.519-0.294,0.756-0.451s0.442-0.311,0.615-0.461h0.424V110z"/>
		<path fill="#2F2F2F" d="M457.194,100.197v6.474h1.258v1.025h-1.258V110h-1.107v-2.304h-4.607v-0.971
			c0.429-0.483,0.861-0.999,1.299-1.548s0.855-1.106,1.254-1.671c0.399-0.565,0.769-1.129,1.107-1.692
			c0.34-0.563,0.626-1.102,0.858-1.617H457.194z M452.743,106.671h3.343v-4.799c-0.342,0.597-0.665,1.13-0.971,1.6
			s-0.596,0.896-0.871,1.278c-0.276,0.383-0.539,0.729-0.79,1.039S452.967,106.393,452.743,106.671z"/>
		<path fill="#2F2F2F" d="M461.131,108.442l-1.094,3.363h-0.8l0.8-3.363H461.131z"/>
		<path fill="#2F2F2F" d="M472.321,110h-5.195v-9.803h4.977v1.039h-3.828v3.261h3.541v1.032h-3.541v3.432h4.047V110z"/>
		<path fill="#2F2F2F" d="M477.243,110h-1.121v-8.47c-0.087,0.086-0.213,0.186-0.379,0.297c-0.167,0.112-0.354,0.222-0.561,0.332
			c-0.208,0.109-0.427,0.212-0.656,0.308c-0.23,0.096-0.455,0.171-0.674,0.226v-1.135c0.246-0.068,0.507-0.161,0.783-0.277
			c0.275-0.116,0.547-0.246,0.812-0.39c0.268-0.144,0.519-0.294,0.756-0.451s0.442-0.311,0.615-0.461h0.424V110z"/>
		<path fill="#2F2F2F" d="M484.207,102.768c0-0.301-0.047-0.563-0.141-0.786c-0.093-0.223-0.221-0.409-0.383-0.557
			c-0.161-0.148-0.352-0.259-0.57-0.332s-0.456-0.109-0.711-0.109c-0.219,0-0.433,0.03-0.643,0.089s-0.414,0.141-0.611,0.246
			c-0.199,0.105-0.391,0.23-0.574,0.376c-0.186,0.146-0.357,0.308-0.517,0.485v-1.203c0.314-0.305,0.667-0.539,1.056-0.701
			c0.391-0.162,0.865-0.243,1.426-0.243c0.401,0,0.772,0.058,1.114,0.174s0.638,0.286,0.889,0.509s0.448,0.499,0.591,0.827
			c0.145,0.328,0.216,0.704,0.216,1.128c0,0.387-0.044,0.738-0.134,1.053c-0.088,0.314-0.223,0.611-0.402,0.889
			c-0.181,0.278-0.407,0.544-0.681,0.8s-0.595,0.515-0.964,0.779c-0.46,0.328-0.84,0.608-1.139,0.841
			c-0.298,0.232-0.535,0.45-0.711,0.653c-0.175,0.203-0.298,0.406-0.369,0.608c-0.07,0.203-0.105,0.437-0.105,0.701h4.881V110h-6.05
			v-0.485c0-0.419,0.046-0.789,0.137-1.107s0.241-0.622,0.451-0.909s0.484-0.574,0.823-0.861c0.34-0.287,0.756-0.611,1.248-0.971
			c0.355-0.255,0.652-0.499,0.893-0.731c0.238-0.232,0.432-0.465,0.577-0.697s0.249-0.468,0.312-0.708
			C484.176,103.291,484.207,103.037,484.207,102.768z"/>
	</g>
</g>
<g id="Layer_1">
</g>
<g id="_x3C_Layer_x3E_">
</g>
<g id="bc18bade-5481-447e-a959-659d72346474">
</g>
<g id="af6a2c42-bd48-4857-a479-aecf8b3de4f6">
</g>
</svg>
