<svg id="ICONS-64x" xmlns="http://www.w3.org/2000/svg" viewBox="0 0 64 64">
  <defs>
    <style>
      .cls-1 {
        fill: #2bc7f4;
      }

      .cls-2 {
        fill: #556a8a;
      }
    </style>
  </defs>
  <title>i_code-samples</title>
  <rect class="cls-1" x="21" y="12" width="22" height="10"/>
  <rect class="cls-1" x="21" y="26" width="22" height="10"/>
  <rect class="cls-1" x="21" y="40" width="22" height="10"/>
  <path class="cls-2" d="M48,58l.52,0a6,6,0,0,0,4.09-1.79c1-1,1.38-2.74,1.38-5.85v-9.6a11.68,11.68,0,0,1,2.1-6.56,5.9,5.9,0,0,1,3.2-2.51c-3.52-1.19-5.3-4.16-5.3-8.82V13.07c0-3.13-.42-4.9-1.4-5.91a6.24,6.24,0,0,0-4.17-1.8l-.49,0,.15-2,.51,0A8.26,8.26,0,0,1,54,5.77c1.37,1.41,2,3.59,2,7.3v9.76c0,4.21,1.7,6.58,5.19,7.24l.81.15V33.1l-.78.15a4.63,4.63,0,0,0-3.38,2A9.82,9.82,0,0,0,56,40.72v9.6c0,3.69-.58,5.85-2,7.25A7.86,7.86,0,0,1,48.76,60l-.48,0Z"/>
  <path class="cls-2" d="M16,58l-.52,0a6,6,0,0,1-4.09-1.79c-1-1-1.38-2.74-1.38-5.85v-9.6a11.68,11.68,0,0,0-2.1-6.56,5.9,5.9,0,0,0-3.2-2.51c3.52-1.19,5.3-4.16,5.3-8.82V13.07c0-3.13.42-4.9,1.4-5.91a6.24,6.24,0,0,1,4.17-1.8l.49,0-.15-2-.51,0A8.26,8.26,0,0,0,10,5.77c-1.37,1.41-2,3.59-2,7.3v9.76C8,27,6.3,29.42,2.81,30.07L2,30.23V33.1l.78.15a4.63,4.63,0,0,1,3.38,2A9.82,9.82,0,0,1,8,40.72v9.6c0,3.69.58,5.85,2,7.25A7.86,7.86,0,0,0,15.24,60l.48,0Z"/>
</svg>
