<svg id="Icons" xmlns="http://www.w3.org/2000/svg" viewBox="0 0 64 64">
  <defs>
    <style>
      .cls-1 {
        fill: #e4cb58;
      }

      .cls-2 {
        fill: #444;
      }
    </style>
  </defs>
  <title>logo_js</title>
  <g>
    <rect class="cls-1" x="1" y="1" width="62" height="62"/>
    <g>
      <path class="cls-2" d="M29,29.8h5.63V50.06c0,5.06-3.39,8.17-7.88,8.17-7.09,0-8.78-5.19-8.78-5.19l4.66-2.85s1.27,3,3.57,3S29,51.58,29,49,29,29.74,29,29.8Z"/>
      <path class="cls-2" d="M51,36.77,55.2,34a8.08,8.08,0,0,0-7.51-4.62c-5.63,0-8.42,3.55-8.42,8.17s4.39,7.11,7.33,8.36c3.15,1.33,4.73,2.47,4.73,4.37,0,1.39-1.15,2.77-3.63,2.85-3.94.13-5.63-3.61-5.63-3.61l-4.42,3s2.42,5.76,10.18,5.76,9.09-5.44,9.09-8-.91-6.14-6.42-8.61S44.66,38,44.66,36.7s1.15-2.34,3-2.34S51,36.7,51,36.7"/>
    </g>
  </g>
</svg>
