<svg xmlns="http://www.w3.org/2000/svg" xmlns:xlink="http://www.w3.org/1999/xlink" viewBox="0 0 414.1 230.18">
  <defs>
    <linearGradient id="linear-gradient" x1="237.46" y1="30.23" x2="237.46" y2="96.91" gradientUnits="userSpaceOnUse">
      <stop offset="0" stop-color="#76bc2d"/>
      <stop offset="0.98" stop-color="#5f9724"/>
      <stop offset="1" stop-color="#5e9624"/>
    </linearGradient>
    <linearGradient id="linear-gradient-2" x1="237.46" y1="123.76" x2="237.46" y2="190.43" xlink:href="#linear-gradient"/>
    <linearGradient id="linear-gradient-3" x1="393.28" y1="608.19" x2="393.28" y2="580.68" gradientTransform="matrix(1, 0, 0, -1, 0, 671.27)" gradientUnits="userSpaceOnUse">
      <stop offset="0.18" stop-color="#5ea0ef"/>
      <stop offset="1" stop-color="#0078d4"/>
    </linearGradient>
    <linearGradient id="linear-gradient-4" x1="24.53" y1="469.26" x2="26.9" y2="466.89" gradientTransform="matrix(1, 0, 0, -1, 3.05, 670.75)" gradientUnits="userSpaceOnUse">
      <stop offset="0" stop-color="#86d633"/>
      <stop offset="0.24" stop-color="#83d232"/>
      <stop offset="0.5" stop-color="#7cc52f"/>
      <stop offset="0.76" stop-color="#6fb02a"/>
      <stop offset="1" stop-color="#5e9624"/>
    </linearGradient>
    <linearGradient id="linear-gradient-5" x1="19.19" y1="469.26" x2="21.54" y2="466.89" xlink:href="#linear-gradient-4"/>
    <linearGradient id="linear-gradient-6" x1="13.85" y1="469.26" x2="16.2" y2="466.89" xlink:href="#linear-gradient-4"/>
    <linearGradient id="linear-gradient-7" x1="68.02" y1="561.39" x2="68.02" y2="583.03" gradientTransform="matrix(1, 0, 0, -1, 0, 671.27)" gradientUnits="userSpaceOnUse">
      <stop offset="0" stop-color="#0078d4"/>
      <stop offset="0.82" stop-color="#5ea0ef"/>
    </linearGradient>
    <linearGradient id="linear-gradient-8" x1="68.02" y1="553.03" x2="68.02" y2="561.39" gradientTransform="matrix(1, 0, 0, -1, 0, 671.27)" gradientUnits="userSpaceOnUse">
      <stop offset="0.15" stop-color="#ccc"/>
      <stop offset="1" stop-color="#707070"/>
    </linearGradient>
    <linearGradient id="Green_Gradient_" data-name="Green Gradient " x1="237.46" y1="578.65" x2="237.46" y2="606.47" gradientTransform="matrix(1, 0, 0, -1, 0, 671.27)" gradientUnits="userSpaceOnUse">
      <stop offset="0" stop-color="#5e9624"/>
      <stop offset="0.02" stop-color="#5f9724"/>
      <stop offset="1" stop-color="#76bc2d"/>
    </linearGradient>
    <linearGradient id="Green_Gradient_2" x1="237.46" y1="517.73" x2="237.46" y2="545.55" xlink:href="#Green_Gradient_"/>
  </defs>
  <g id="Shapes">
    <g>
      <path d="M7.92,202.63H4.82c-1.71,0-3.1-1.8-3.1-4V22.36a4,4,0,0,1,4-4h278a4,4,0,0,1,4,4V198.63a4,4,0,0,1-4,4H37.46" fill="#fff"/>
      <path d="M7.92,202.63H4.82c-1.71,0-3.1-1.8-3.1-4V22.36a4,4,0,0,1,4-4h278a4,4,0,0,1,4,4V198.63a4,4,0,0,1-4,4H37.46" fill="#505050" opacity="0.07"/>
      <path d="M7.92,202.63H4.82c-1.71,0-3.1-1.8-3.1-4V22.36a4,4,0,0,1,4-4h278a4,4,0,0,1,4,4V198.63a4,4,0,0,1-4,4H37.46" fill="none" stroke="#505050" stroke-width="0.8" opacity="0.15"/>
      <g opacity="0.65">
        <path d="M7.92,202.63h-.4" fill="none" stroke="#505050" stroke-width="0.8"/>
        <path d="M5.52,202.63h-.7c-1.71,0-3.1-1.8-3.1-4V22.36a4,4,0,0,1,4-4h278a4,4,0,0,1,4,4V198.63a4,4,0,0,1-4,4H38.87" fill="none" stroke="#505050" stroke-width="0.8" stroke-dasharray="0.8 2"/>
        <line x1="37.86" y1="202.63" x2="37.46" y2="202.63" fill="none" stroke="#505050" stroke-width="0.8"/>
      </g>
    </g>
    <g>
      <rect x="231.54" y="30.23" width="11.83" height="66.68" fill="#fff"/>
      <rect x="231.54" y="30.23" width="11.83" height="66.68" opacity="0.25" fill="url(#linear-gradient)"/>
    </g>
    <g>
      <rect x="231.54" y="123.76" width="11.83" height="66.68" fill="#fff"/>
      <rect x="231.54" y="123.76" width="11.83" height="66.68" opacity="0.25" fill="url(#linear-gradient-2)"/>
    </g>
    <path d="M407.05,80a6.29,6.29,0,0,0-5.38-6.08,7.88,7.88,0,0,0-8-7.64A8.08,8.08,0,0,0,386,71.59a7.42,7.42,0,0,0-6.46,7.26,7.63,7.63,0,0,0,7.76,7.38h13.59A6.35,6.35,0,0,0,407.05,80Z" fill="url(#linear-gradient-3)"/>
    <g>
      <circle cx="28.11" cy="202.64" r="1.67" fill="url(#linear-gradient-4)"/>
      <circle cx="22.76" cy="202.65" r="1.67" fill="url(#linear-gradient-5)"/>
      <circle cx="17.42" cy="202.65" r="1.67" fill="url(#linear-gradient-6)"/>
      <path d="M18.64,209.35l-1,1a.43.43,0,0,1-.61,0h0L10,203.23A.86.86,0,0,1,10,202h0l1-1h0l7.71,7.68a.44.44,0,0,1,0,.62Z" fill="#50e6ff"/>
      <path d="M17.53,195l1,1a.44.44,0,0,1,0,.61l-7.58,7.6h0l-1-1A.87.87,0,0,1,10,202h0l7-7A.43.43,0,0,1,17.53,195Z" fill="#1490df"/>
      <path d="M34.48,201l1,1a.87.87,0,0,1,0,1.23h0l-7.1,7.08a.44.44,0,0,1-.61,0h0l-1-1a.43.43,0,0,1,0-.61h0L34.48,201Z" fill="#50e6ff"/>
      <path d="M35.44,203.21l-1,1h0l-7.58-7.6a.43.43,0,0,1,0-.61h0l1-1a.44.44,0,0,1,.62,0h0l7,7a.87.87,0,0,1,0,1.23h0Z" fill="#1490df"/>
    </g>
    <g>
      <rect x="14.92" y="48.63" width="106.2" height="123.2" fill="#fff"/>
      <rect x="14.92" y="48.63" width="106.2" height="123.2" fill="#3c3c41" opacity="0.2"/>
    </g>
    <g>
      <rect x="51.78" y="88.23" width="32.47" height="21.65" rx="1.08" fill="url(#linear-gradient-7)"/>
      <polygon points="73.43 95.9 73.43 102.2 68.02 105.37 68.02 99.06 73.43 95.9" fill="#50e6ff"/>
      <polygon points="73.43 95.9 68.02 99.08 62.6 95.9 68.02 92.74 73.43 95.9" fill="#c3f1ff"/>
      <polygon points="68.02 99.08 68.02 105.37 62.6 102.2 62.6 95.9 68.02 99.08" fill="#9cebff"/>
      <polygon points="62.6 102.2 68.02 99.06 68.02 105.37 62.6 102.2" fill="#c3f1ff"/>
      <polygon points="73.43 102.2 68.02 99.06 68.02 105.37 73.43 102.2" fill="#9cebff"/>
      <path d="M74.53,116.43c-3.21-.5-3.34-2.81-3.34-6.55H64.82c0,3.74-.11,6.05-3.32,6.55a1.8,1.8,0,0,0-1.6,1.8H76.13A1.79,1.79,0,0,0,74.53,116.43Z" fill="url(#linear-gradient-8)"/>
    </g>
    <g>
      <path d="M225.7,77.58,236.88,66.4a.8.8,0,0,1,1.13,0l0,0,11.18,11.18a.79.79,0,0,1,0,1.13l0,0L238,89.93a.81.81,0,0,1-1.12,0l-11.2-11.2a.79.79,0,0,1,0-1.13Z" fill="url(#Green_Gradient_)"/>
      <path d="M240.39,71.49l-2.83-2.81a.15.15,0,0,0-.21,0l-2.83,2.81a.14.14,0,0,0,0,.19.12.12,0,0,0,.14,0h1.65a.15.15,0,0,1,.15.15v2.66a.14.14,0,0,0,.15.15h1.75a.14.14,0,0,0,.15-.15V71.88a.15.15,0,0,1,.15-.15h1.65a.12.12,0,0,0,.16-.1A.13.13,0,0,0,240.39,71.49Z" fill="#b4ec36"/>
      <path d="M230.79,75,228,77.81a.15.15,0,0,0,0,.2l2.8,2.81a.15.15,0,0,0,.21,0,.15.15,0,0,0,0-.11V79.08a.15.15,0,0,1,.15-.15h2.67a.13.13,0,0,0,.13-.13V77a.13.13,0,0,0-.05-.18l0,0h-2.67a.13.13,0,0,1-.15-.12h0V75.08a.16.16,0,0,0-.29-.11Z" fill="#b4ec36"/>
      <path d="M244.23,80.82,247.07,78a.15.15,0,0,0,0-.2L244.23,75a.15.15,0,0,0-.21,0,.16.16,0,0,0,0,.09v1.66a.14.14,0,0,1-.14.14h-2.68A.13.13,0,0,0,241,77h0v1.76a.14.14,0,0,0,.12.15h2.68a.15.15,0,0,1,.15.15v1.65a.15.15,0,0,0,.16.13A.2.2,0,0,0,244.23,80.82Z" fill="#b4ec36"/>
      <path d="M241.17,78.16a3.72,3.72,0,1,0-4.71,3.56V83a2.28,2.28,0,1,0,3.07,1,2.32,2.32,0,0,0-1-1V81.65A3.68,3.68,0,0,0,241.17,78.16Z" fill="#fff"/>
      <circle id="e99c3387-15c3-4f28-bd4b-cb209b430e06" cx="237.47" cy="78.14" r="2.16" fill="#5ea0ef"/>
    </g>
    <g>
      <line x1="198.72" y1="78.16" x2="218.81" y2="78.16" fill="none" stroke="#3c3c41" stroke-miterlimit="10"/>
      <polygon points="217.72 81.9 224.19 78.16 217.72 74.42 217.72 81.9" fill="#3c3c41"/>
    </g>
    <g>
      <line x1="126.5" y1="139.37" x2="145.84" y2="139.37" fill="none" stroke="#3c3c41" stroke-miterlimit="10"/>
      <polygon points="127.59 143.11 121.12 139.37 127.59 135.63 127.59 143.11" fill="#3c3c41"/>
    </g>
    <g>
      <path d="M225.7,138.51l11.18-11.19a.8.8,0,0,1,1.13,0h0l11.18,11.19a.79.79,0,0,1,0,1.13h0L238,150.85a.79.79,0,0,1-1.12,0l-11.2-11.2a.79.79,0,0,1,0-1.13Z" fill="url(#Green_Gradient_2)"/>
      <path d="M240.39,132.41l-2.83-2.81a.17.17,0,0,0-.21,0l-2.83,2.81a.14.14,0,0,0,0,.19.11.11,0,0,0,.14.05h1.65a.15.15,0,0,1,.15.15v2.67a.14.14,0,0,0,.15.14h1.75a.14.14,0,0,0,.15-.14V132.8a.15.15,0,0,1,.15-.15h1.65a.12.12,0,0,0,.16-.09A.14.14,0,0,0,240.39,132.41Z" fill="#b4ec36"/>
      <path d="M230.79,135.89l-2.8,2.84a.15.15,0,0,0,0,.2l2.8,2.82a.15.15,0,0,0,.21,0,.15.15,0,0,0,0-.11V140a.15.15,0,0,1,.15-.15h2.67a.13.13,0,0,0,.13-.13h0V138a.13.13,0,0,0-.05-.19h-2.71a.15.15,0,0,1-.15-.12V136a.16.16,0,1,0-.29-.11Z" fill="#b4ec36"/>
      <path d="M244.23,141.75l2.84-2.83a.15.15,0,0,0,0-.2l-2.84-2.83a.15.15,0,0,0-.21,0,.16.16,0,0,0,0,.09v1.67a.13.13,0,0,1-.14.13h-2.68a.13.13,0,0,0-.13.13v1.78a.13.13,0,0,0,.12.14h2.68a.15.15,0,0,1,.15.15v1.65a.15.15,0,0,0,.16.13A.19.19,0,0,0,244.23,141.75Z" fill="#b4ec36"/>
      <path d="M241.17,139.08a3.72,3.72,0,1,0-4.71,3.56v1.27a2.28,2.28,0,0,0,2.09,4.05,2.3,2.3,0,0,0,1-3.08,2.24,2.24,0,0,0-1-1v-1.34A3.68,3.68,0,0,0,241.17,139.08Z" fill="#fff"/>
      <circle id="e99c3387-15c3-4f28-bd4b-cb209b430e06-2" data-name="e99c3387-15c3-4f28-bd4b-cb209b430e06" cx="237.47" cy="139.07" r="2.16" fill="#5ea0ef"/>
    </g>
    <line x1="121.08" y1="78.16" x2="134.6" y2="78.16" fill="none" stroke="#3c3c41" stroke-miterlimit="10"/>
    <g>
      <line x1="356.04" y1="78.16" x2="373.13" y2="78.16" fill="none" stroke="#3c3c41" stroke-miterlimit="10"/>
      <polygon points="372.04 81.9 378.52 78.16 372.04 74.42 372.04 81.9" fill="#3c3c41"/>
    </g>
    <line x1="250.52" y1="78.16" x2="297.92" y2="78.16" fill="none" stroke="#3c3c41" stroke-miterlimit="10"/>
    <line x1="185.97" y1="139.37" x2="224.19" y2="139.37" fill="none" stroke="#3c3c41" stroke-miterlimit="10"/>
  </g>
  <g id="Text">
    <g>
      <path d="M17.05,216.84l-3.11,8.4H12.86l-3-8.4h1.1l2.32,6.66a3.77,3.77,0,0,1,.17.75h0a4.09,4.09,0,0,1,.2-.76L16,216.84Z" fill="#1e1e1e"/>
      <path d="M18.7,217.72a.64.64,0,0,1-.44-.17.65.65,0,0,1,0-.9.6.6,0,0,1,.44-.18.64.64,0,0,1,.45.18.61.61,0,0,1,.18.45.6.6,0,0,1-.18.44A.64.64,0,0,1,18.7,217.72Zm.47,7.52h-1v-6h1Z" fill="#1e1e1e"/>
      <path d="M24.12,220.22a1.16,1.16,0,0,0-.72-.2,1.24,1.24,0,0,0-1,.58,2.68,2.68,0,0,0-.42,1.59v3.05H21v-6h1v1.24h0a2.09,2.09,0,0,1,.63-1,1.44,1.44,0,0,1,.94-.35,1.65,1.65,0,0,1,.57.08Z" fill="#1e1e1e"/>
      <path d="M28.35,225.19a2,2,0,0,1-.9.18c-1.05,0-1.58-.58-1.58-1.75v-3.56h-1v-.82h1v-1.46l1-.31v1.77h1.52v.82H26.83v3.39a1.37,1.37,0,0,0,.21.86.82.82,0,0,0,.68.25,1,1,0,0,0,.63-.19Z" fill="#1e1e1e"/>
      <path d="M34.46,225.24h-1v-.94h0a2,2,0,0,1-1.85,1.09c-1.43,0-2.14-.86-2.14-2.56v-3.59h.95v3.44c0,1.26.49,1.9,1.45,1.9a1.49,1.49,0,0,0,1.16-.52,2,2,0,0,0,.46-1.36v-3.46h1Z" fill="#1e1e1e"/>
      <path d="M40.6,225.24h-1v-.93h0a2,2,0,0,1-1.85,1.08,2,2,0,0,1-1.4-.48,1.65,1.65,0,0,1-.51-1.26c0-1.12.66-1.77,2-2l1.8-.25c0-1-.41-1.53-1.24-1.53a3,3,0,0,0-1.95.74v-1a3.68,3.68,0,0,1,2-.57c1.41,0,2.11.75,2.11,2.24Zm-1-3-1.45.2a2.25,2.25,0,0,0-1,.33,1,1,0,0,0-.34.84.92.92,0,0,0,.31.72,1.24,1.24,0,0,0,.83.28,1.55,1.55,0,0,0,1.18-.5,1.77,1.77,0,0,0,.47-1.27Z" fill="#1e1e1e"/>
      <path d="M43.3,225.24h-1v-8.88h1Z" fill="#1e1e1e"/>
      <path d="M55.44,225.24H54.23l-4.32-6.69a2.94,2.94,0,0,1-.27-.53h0a8.6,8.6,0,0,1,0,1.15v6.07h-1v-8.4h1.27l4.21,6.59c.18.28.29.47.34.57h0a8.84,8.84,0,0,1-.06-1.24v-5.92h1Z" fill="#1e1e1e"/>
      <path d="M62.29,222.48H58.05a2.28,2.28,0,0,0,.54,1.55,1.84,1.84,0,0,0,1.42.55,3,3,0,0,0,1.86-.67v.9a3.5,3.5,0,0,1-2.09.58,2.56,2.56,0,0,1-2-.82,3.37,3.37,0,0,1-.72-2.3,3.25,3.25,0,0,1,.79-2.28,2.55,2.55,0,0,1,2-.89,2.24,2.24,0,0,1,1.82.77,3.15,3.15,0,0,1,.65,2.11Zm-1-.81a1.88,1.88,0,0,0-.4-1.29,1.36,1.36,0,0,0-1.1-.47,1.54,1.54,0,0,0-1.15.49,2.22,2.22,0,0,0-.59,1.27Z" fill="#1e1e1e"/>
      <path d="M66.52,225.19a2,2,0,0,1-.9.18c-1.05,0-1.57-.58-1.57-1.75v-3.56H63v-.82h1v-1.46l1-.31v1.77h1.51v.82H65v3.39a1.38,1.38,0,0,0,.2.86.82.82,0,0,0,.68.25,1,1,0,0,0,.63-.19Z" fill="#1e1e1e"/>
      <path d="M75.69,219.24l-1.8,6h-1L71.66,221a2.81,2.81,0,0,1-.1-.56h0a2.51,2.51,0,0,1-.12.55l-1.34,4.3h-1l-1.82-6h1l1.24,4.52a2.21,2.21,0,0,1,.08.54h.05a2.37,2.37,0,0,1,.1-.56l1.39-4.5h.88l1.24,4.53a3,3,0,0,1,.09.54h0a2.5,2.5,0,0,1,.1-.54l1.22-4.53Z" fill="#1e1e1e"/>
      <path d="M79.19,225.39a2.79,2.79,0,0,1-2.12-.85,3.11,3.11,0,0,1-.8-2.23A3.26,3.26,0,0,1,77.1,220a3,3,0,0,1,2.23-.85,2.7,2.7,0,0,1,2.1.83,3.27,3.27,0,0,1,.75,2.29,3.23,3.23,0,0,1-.81,2.3A2.84,2.84,0,0,1,79.19,225.39Zm.07-5.48a1.83,1.83,0,0,0-1.46.63,2.59,2.59,0,0,0-.54,1.74A2.46,2.46,0,0,0,77.8,224a1.87,1.87,0,0,0,1.46.62A1.76,1.76,0,0,0,80.7,224a2.62,2.62,0,0,0,.5-1.71,2.71,2.71,0,0,0-.5-1.74A1.79,1.79,0,0,0,79.26,219.91Z" fill="#1e1e1e"/>
      <path d="M86.79,220.22a1.18,1.18,0,0,0-.73-.2,1.22,1.22,0,0,0-1,.58,2.68,2.68,0,0,0-.42,1.59v3.05h-1v-6h1v1.24h0a2.08,2.08,0,0,1,.62-1,1.47,1.47,0,0,1,1-.35,1.65,1.65,0,0,1,.57.08Z" fill="#1e1e1e"/>
      <path d="M92.85,225.24H91.5l-2.65-2.88h0v2.88h-1v-8.88h1V222h0l2.52-2.75h1.26l-2.78,2.9Z" fill="#1e1e1e"/>
    </g>
    <g>
      <path d="M33.43,66.23v-8.4h2.4a2.57,2.57,0,0,1,1.72.54,1.69,1.69,0,0,1,.64,1.38A2.1,2.1,0,0,1,37.81,61a2.14,2.14,0,0,1-1.07.75v0a2.15,2.15,0,0,1,1.36.64,2,2,0,0,1,.51,1.41,2.22,2.22,0,0,1-.77,1.75,2.92,2.92,0,0,1-2,.66Zm1-7.51v2.72h1a1.91,1.91,0,0,0,1.27-.39,1.36,1.36,0,0,0,.46-1.1c0-.82-.54-1.23-1.61-1.23Zm0,3.6v3h1.34a2,2,0,0,0,1.34-.41,1.38,1.38,0,0,0,.48-1.12c0-1-.68-1.49-2-1.49Z" fill="#1e1e1e"/>
      <path d="M44.45,66.23h-1V65.3h0a2,2,0,0,1-1.85,1.08,2,2,0,0,1-1.4-.48,1.65,1.65,0,0,1-.51-1.26c0-1.12.66-1.77,2-2l1.8-.25q0-1.53-1.23-1.53a3,3,0,0,0-2,.74v-1a3.68,3.68,0,0,1,2-.57c1.41,0,2.11.75,2.11,2.24Zm-1-3-1.44.2a2.25,2.25,0,0,0-1,.33,1,1,0,0,0-.34.84.92.92,0,0,0,.31.72,1.25,1.25,0,0,0,.84.28,1.56,1.56,0,0,0,1.18-.5,1.8,1.8,0,0,0,.46-1.27Z" fill="#1e1e1e"/>
      <path d="M50.33,66a3.1,3.1,0,0,1-1.64.42,2.69,2.69,0,0,1-2.07-.84,3,3,0,0,1-.79-2.16A3.33,3.33,0,0,1,46.68,61a3,3,0,0,1,2.26-.9,3.1,3.1,0,0,1,1.4.3v1a2.47,2.47,0,0,0-1.43-.47,1.93,1.93,0,0,0-1.51.66,2.52,2.52,0,0,0-.59,1.73A2.39,2.39,0,0,0,47.37,65a1.91,1.91,0,0,0,1.48.61,2.47,2.47,0,0,0,1.48-.52Z" fill="#1e1e1e"/>
      <path d="M56.59,66.23H55.25L52.6,63.35h0v2.88h-1V57.35h1V63h0l2.52-2.75h1.26l-2.79,2.9Z" fill="#1e1e1e"/>
      <path d="M62.11,63.48H57.87A2.27,2.27,0,0,0,58.41,65a1.85,1.85,0,0,0,1.42.55,3,3,0,0,0,1.86-.67v.9a3.48,3.48,0,0,1-2.09.58,2.58,2.58,0,0,1-2-.82,3.37,3.37,0,0,1-.72-2.3A3.25,3.25,0,0,1,57.67,61a2.55,2.55,0,0,1,2-.89,2.26,2.26,0,0,1,1.83.77A3.15,3.15,0,0,1,62.11,63Zm-1-.82a1.93,1.93,0,0,0-.41-1.29,1.34,1.34,0,0,0-1.09-.47,1.54,1.54,0,0,0-1.16.49,2.21,2.21,0,0,0-.58,1.27Z" fill="#1e1e1e"/>
      <path d="M68.54,66.23h-1V62.81c0-1.27-.46-1.91-1.39-1.91a1.5,1.5,0,0,0-1.19.54,2,2,0,0,0-.48,1.37v3.42h-1v-6h1v1h0a2.16,2.16,0,0,1,2-1.14,1.84,1.84,0,0,1,1.5.64,2.82,2.82,0,0,1,.52,1.84Z" fill="#1e1e1e"/>
      <path d="M75.48,66.23h-1v-1h0a2.21,2.21,0,0,1-2.06,1.16,2.24,2.24,0,0,1-1.81-.81,3.32,3.32,0,0,1-.68-2.19A3.6,3.6,0,0,1,70.69,61a2.48,2.48,0,0,1,2-.9,1.92,1.92,0,0,1,1.8,1h0V57.35h1Zm-1-2.71v-.88A1.7,1.7,0,0,0,74,61.41a1.59,1.59,0,0,0-1.21-.51,1.68,1.68,0,0,0-1.39.65,2.85,2.85,0,0,0-.5,1.78A2.56,2.56,0,0,0,71.41,65a1.59,1.59,0,0,0,1.3.6A1.64,1.64,0,0,0,74,65,2.15,2.15,0,0,0,74.51,63.52Z" fill="#1e1e1e"/>
      <path d="M81.69,65.37h0V69h-1V60.23h1v1.06h0a2.29,2.29,0,0,1,2.08-1.2,2.2,2.2,0,0,1,1.81.81,3.37,3.37,0,0,1,.65,2.16,3.76,3.76,0,0,1-.73,2.41,2.46,2.46,0,0,1-2,.91A2,2,0,0,1,81.69,65.37Zm0-2.42v.84a1.8,1.8,0,0,0,.48,1.26,1.73,1.73,0,0,0,2.6-.15A3.09,3.09,0,0,0,85.24,63a2.41,2.41,0,0,0-.46-1.57,1.53,1.53,0,0,0-1.25-.57,1.71,1.71,0,0,0-1.35.59A2.11,2.11,0,0,0,81.67,63Z" fill="#1e1e1e"/>
      <path d="M90.27,66.38a2.74,2.74,0,0,1-2.12-.85,3.1,3.1,0,0,1-.8-2.22,3.27,3.27,0,0,1,.83-2.37,3,3,0,0,1,2.23-.85,2.71,2.71,0,0,1,2.1.83,3.27,3.27,0,0,1,.75,2.29,3.21,3.21,0,0,1-.81,2.3A2.84,2.84,0,0,1,90.27,66.38Zm.07-5.48a1.81,1.81,0,0,0-1.46.63,2.59,2.59,0,0,0-.54,1.74A2.46,2.46,0,0,0,88.88,65a1.87,1.87,0,0,0,1.46.62A1.73,1.73,0,0,0,91.77,65a2.57,2.57,0,0,0,.5-1.71,2.65,2.65,0,0,0-.5-1.74A1.76,1.76,0,0,0,90.34,60.9Z" fill="#1e1e1e"/>
      <path d="M97.3,66.38a2.76,2.76,0,0,1-2.12-.85,3.1,3.1,0,0,1-.8-2.22,3.27,3.27,0,0,1,.83-2.37,3,3,0,0,1,2.23-.85,2.7,2.7,0,0,1,2.1.83,3.27,3.27,0,0,1,.75,2.29,3.21,3.21,0,0,1-.81,2.3A2.84,2.84,0,0,1,97.3,66.38Zm.07-5.48a1.83,1.83,0,0,0-1.46.63,2.59,2.59,0,0,0-.54,1.74A2.46,2.46,0,0,0,95.91,65a1.87,1.87,0,0,0,1.46.62A1.76,1.76,0,0,0,98.81,65a2.62,2.62,0,0,0,.5-1.71,2.71,2.71,0,0,0-.5-1.74A1.79,1.79,0,0,0,97.37,60.9Z" fill="#1e1e1e"/>
      <path d="M102.73,66.23h-1V57.35h1Z" fill="#1e1e1e"/>
    </g>
    <g>
      <path d="M58.08,123.83,55,132.23H53.88l-3.05-8.4h1.1l2.33,6.66a4.63,4.63,0,0,1,.17.75h0a4,4,0,0,1,.19-.76L57,123.83Z" fill="#1e1e1e"/>
      <path d="M59.72,124.71a.66.66,0,0,1-.44-.17.65.65,0,0,1,0-.9.62.62,0,0,1,.44-.18.61.61,0,0,1,.45.18.58.58,0,0,1,.19.45.58.58,0,0,1-.19.44A.61.61,0,0,1,59.72,124.71Zm.47,7.52h-1v-6h1Z" fill="#1e1e1e"/>
      <path d="M65.15,127.21a1.18,1.18,0,0,0-.73-.2,1.25,1.25,0,0,0-1,.58,2.75,2.75,0,0,0-.41,1.59v3H62v-6h1v1.24h0a2.17,2.17,0,0,1,.63-1,1.46,1.46,0,0,1,.94-.35,1.71,1.71,0,0,1,.58.08Z" fill="#1e1e1e"/>
      <path d="M69.37,132.18a1.92,1.92,0,0,1-.9.18c-1,0-1.57-.58-1.57-1.75v-3.55h-1v-.83h1v-1.46l1-.31v1.77h1.51v.83H67.86v3.38a1.45,1.45,0,0,0,.2.86.84.84,0,0,0,.68.26,1,1,0,0,0,.63-.2Z" fill="#1e1e1e"/>
      <path d="M75.48,132.23h-1v-.94h0a2,2,0,0,1-1.85,1.09c-1.43,0-2.15-.86-2.15-2.56v-3.59h1v3.44c0,1.26.48,1.9,1.45,1.9a1.5,1.5,0,0,0,1.16-.52,2,2,0,0,0,.45-1.36v-3.46h1Z" fill="#1e1e1e"/>
      <path d="M81.63,132.23h-1v-.93h0a2,2,0,0,1-1.84,1.08,2,2,0,0,1-1.41-.48,1.68,1.68,0,0,1-.5-1.26c0-1.12.66-1.77,2-2l1.8-.25c0-1-.42-1.53-1.24-1.53a3,3,0,0,0-2,.74v-1a3.68,3.68,0,0,1,2-.57c1.41,0,2.12.75,2.12,2.24Zm-1-3-1.45.2a2.3,2.3,0,0,0-1,.33,1,1,0,0,0-.34.84,1,1,0,0,0,.31.72,1.25,1.25,0,0,0,.84.28,1.55,1.55,0,0,0,1.18-.5,1.81,1.81,0,0,0,.47-1.27Z" fill="#1e1e1e"/>
      <path d="M84.33,132.23h-1v-8.88h1Z" fill="#1e1e1e"/>
      <path d="M55.38,146.63h-1v-3.44a2.64,2.64,0,0,0-.3-1.44,1.17,1.17,0,0,0-1-.45,1.26,1.26,0,0,0-1,.57,2.11,2.11,0,0,0-.43,1.34v3.42h-1v-3.56c0-1.18-.46-1.77-1.37-1.77a1.27,1.27,0,0,0-1,.53,2.18,2.18,0,0,0-.41,1.38v3.42h-1v-6h1v1h0a2.06,2.06,0,0,1,1.86-1.09,1.77,1.77,0,0,1,1.08.35,1.73,1.73,0,0,1,.62.9,2.15,2.15,0,0,1,2-1.25c1.33,0,2,.82,2,2.45Z" fill="#1e1e1e"/>
      <path d="M61.41,146.63h-1v-.93h0a2,2,0,0,1-1.85,1.08,2,2,0,0,1-1.4-.48,1.65,1.65,0,0,1-.51-1.26c0-1.12.66-1.77,2-2l1.79-.25q0-1.53-1.23-1.53a3,3,0,0,0-2,.74v-1a3.68,3.68,0,0,1,2-.57c1.41,0,2.11.75,2.11,2.24Zm-1-3-1.44.2a2.3,2.3,0,0,0-1,.33,1,1,0,0,0-.34.84.92.92,0,0,0,.31.72,1.25,1.25,0,0,0,.84.28,1.56,1.56,0,0,0,1.18-.5,1.8,1.8,0,0,0,.46-1.27Z" fill="#1e1e1e"/>
      <path d="M67.29,146.36a3.1,3.1,0,0,1-1.64.42,2.69,2.69,0,0,1-2.07-.84,3,3,0,0,1-.79-2.16,3.33,3.33,0,0,1,.85-2.39,3,3,0,0,1,2.27-.9,3.09,3.09,0,0,1,1.39.3v1a2.45,2.45,0,0,0-1.43-.47,2,2,0,0,0-1.51.66,2.52,2.52,0,0,0-.59,1.73,2.39,2.39,0,0,0,.56,1.67,1.92,1.92,0,0,0,1.48.61,2.45,2.45,0,0,0,1.48-.52Z" fill="#1e1e1e"/>
      <path d="M73.56,146.63h-1v-3.45c0-1.25-.46-1.88-1.39-1.88a1.51,1.51,0,0,0-1.18.54,2.05,2.05,0,0,0-.48,1.4v3.39h-1v-8.88h1v3.88h0a2.18,2.18,0,0,1,2-1.14c1.35,0,2,.82,2,2.45Z" fill="#1e1e1e"/>
      <path d="M75.78,139.11a.64.64,0,0,1-.44-.17.65.65,0,0,1,0-.9.6.6,0,0,1,.44-.18.62.62,0,0,1,.63.63.6.6,0,0,1-.18.44A.61.61,0,0,1,75.78,139.11Zm.47,7.52h-1v-6h1Z" fill="#1e1e1e"/>
      <path d="M83.06,146.63h-1v-3.42c0-1.27-.47-1.91-1.4-1.91a1.5,1.5,0,0,0-1.19.54,2,2,0,0,0-.47,1.37v3.42h-1v-6h1v1h0a2.16,2.16,0,0,1,2-1.14,1.84,1.84,0,0,1,1.5.64,2.82,2.82,0,0,1,.53,1.84Z" fill="#1e1e1e"/>
      <path d="M89.67,143.88H85.43a2.27,2.27,0,0,0,.54,1.54,1.84,1.84,0,0,0,1.42.55,3,3,0,0,0,1.86-.67v.9a3.5,3.5,0,0,1-2.09.58,2.56,2.56,0,0,1-2-.82,3.37,3.37,0,0,1-.72-2.3,3.25,3.25,0,0,1,.79-2.28,2.55,2.55,0,0,1,2-.89,2.24,2.24,0,0,1,1.82.77,3.15,3.15,0,0,1,.65,2.11Zm-1-.82a1.88,1.88,0,0,0-.4-1.29,1.36,1.36,0,0,0-1.1-.47,1.54,1.54,0,0,0-1.15.49,2.22,2.22,0,0,0-.59,1.27Z" fill="#1e1e1e"/>
    </g>
    <g>
      <path d="M223.83,41.32v3.17h-1v-8.4h2.3a3,3,0,0,1,2.09.66A2.31,2.31,0,0,1,228,38.6a2.52,2.52,0,0,1-.82,1.95,3.14,3.14,0,0,1-2.22.77Zm0-4.34v3.44h1a2.32,2.32,0,0,0,1.56-.46,1.67,1.67,0,0,0,.53-1.32c0-1.11-.65-1.66-2-1.66Z" fill="#1e1e1e"/>
      <path d="M234.18,44.49h-1v-1h0a2,2,0,0,1-1.86,1.09c-1.43,0-2.14-.85-2.14-2.55V38.49h1v3.43c0,1.27.49,1.9,1.46,1.9a1.44,1.44,0,0,0,1.15-.52,1.92,1.92,0,0,0,.46-1.35V38.49h1Z" fill="#1e1e1e"/>
      <path d="M237,43.62h0v.87h-1V35.61h1v3.94h0a2.27,2.27,0,0,1,2.08-1.2,2.18,2.18,0,0,1,1.8.81,3.28,3.28,0,0,1,.66,2.16,3.73,3.73,0,0,1-.74,2.41,2.42,2.42,0,0,1-2,.9A2,2,0,0,1,237,43.62Zm0-2.42V42a1.77,1.77,0,0,0,.48,1.26,1.59,1.59,0,0,0,1.23.52,1.62,1.62,0,0,0,1.37-.66,3.09,3.09,0,0,0,.49-1.86,2.41,2.41,0,0,0-.46-1.57,1.54,1.54,0,0,0-1.26-.57,1.69,1.69,0,0,0-1.34.58A2.15,2.15,0,0,0,237,41.2Z" fill="#1e1e1e"/>
      <path d="M244,44.49h-1V35.61h1Z" fill="#1e1e1e"/>
      <path d="M246.28,37a.6.6,0,0,1-.44-.18.59.59,0,0,1-.18-.44.61.61,0,0,1,.18-.45.6.6,0,0,1,.44-.18.62.62,0,0,1,.63.63.6.6,0,0,1-.18.44A.61.61,0,0,1,246.28,37Zm.47,7.52h-1v-6h1Z" fill="#1e1e1e"/>
      <path d="M252.68,44.22a3.17,3.17,0,0,1-1.64.41A2.75,2.75,0,0,1,249,43.8a3.06,3.06,0,0,1-.79-2.17,3.35,3.35,0,0,1,.85-2.38,3,3,0,0,1,2.27-.9,3.27,3.27,0,0,1,1.4.29v1a2.49,2.49,0,0,0-1.43-.47,1.92,1.92,0,0,0-1.51.66,2.5,2.5,0,0,0-.59,1.73,2.36,2.36,0,0,0,.55,1.66,1.91,1.91,0,0,0,1.49.61,2.38,2.38,0,0,0,1.47-.52Z" fill="#1e1e1e"/>
      <path d="M206.21,58.89h-4.36v-8.4h1V58h3.37Z" fill="#1e1e1e"/>
      <path d="M209.81,59a2.77,2.77,0,0,1-2.12-.84,3.11,3.11,0,0,1-.8-2.23,3.25,3.25,0,0,1,.83-2.36,3,3,0,0,1,2.23-.85,2.71,2.71,0,0,1,2.1.83,3.77,3.77,0,0,1-.06,4.59A2.87,2.87,0,0,1,209.81,59Zm.07-5.47a1.81,1.81,0,0,0-1.46.63,2.59,2.59,0,0,0-.54,1.74,2.46,2.46,0,0,0,.54,1.68,1.86,1.86,0,0,0,1.46.61,1.75,1.75,0,0,0,1.43-.6,2.58,2.58,0,0,0,.51-1.72,2.61,2.61,0,0,0-.51-1.73A1.73,1.73,0,0,0,209.88,53.56Z" fill="#1e1e1e"/>
      <path d="M218.59,58.89h-1V58h0a2.2,2.2,0,0,1-3.25.61,1.65,1.65,0,0,1-.51-1.26c0-1.12.66-1.78,2-2l1.8-.25q0-1.53-1.23-1.53a3,3,0,0,0-2,.74v-1a3.76,3.76,0,0,1,2-.56c1.41,0,2.11.75,2.11,2.24Zm-1-3-1.44.2a2.25,2.25,0,0,0-1,.33.93.93,0,0,0-.34.84.89.89,0,0,0,.31.71,1.2,1.2,0,0,0,.84.28,1.53,1.53,0,0,0,1.18-.5,1.77,1.77,0,0,0,.46-1.27Z" fill="#1e1e1e"/>
      <path d="M225.52,58.89h-1v-1h0A2.2,2.2,0,0,1,222.47,59a2.28,2.28,0,0,1-1.81-.8A3.32,3.32,0,0,1,220,56a3.57,3.57,0,0,1,.75-2.38,2.46,2.46,0,0,1,2-.9,1.9,1.9,0,0,1,1.79,1h0V50h1Zm-1-2.71v-.89a1.73,1.73,0,0,0-.48-1.23,1.78,1.78,0,0,0-2.6.14A2.81,2.81,0,0,0,221,56a2.49,2.49,0,0,0,.49,1.64,1.57,1.57,0,0,0,1.29.6,1.65,1.65,0,0,0,1.31-.58A2.16,2.16,0,0,0,224.56,56.18Z" fill="#1e1e1e"/>
      <path d="M230.88,58.89v-8.4h2.39A2.65,2.65,0,0,1,235,51a1.72,1.72,0,0,1,.64,1.39,2,2,0,0,1-.39,1.24,2.09,2.09,0,0,1-1.07.75v0a2.1,2.1,0,0,1,1.36.64,2,2,0,0,1,.51,1.41,2.16,2.16,0,0,1-.77,1.74,2.87,2.87,0,0,1-1.95.67Zm1-7.51v2.71h1a1.89,1.89,0,0,0,1.27-.39,1.35,1.35,0,0,0,.47-1.1c0-.81-.54-1.22-1.61-1.22Zm0,3.6v3h1.34a2,2,0,0,0,1.35-.41,1.42,1.42,0,0,0,.47-1.12c0-1-.67-1.49-2-1.49Z" fill="#1e1e1e"/>
      <path d="M241.9,58.89h-1V58h0A2,2,0,0,1,239.07,59a2,2,0,0,1-1.4-.47,1.65,1.65,0,0,1-.51-1.26c0-1.12.66-1.78,2-2l1.8-.25c0-1-.41-1.53-1.24-1.53a3,3,0,0,0-2,.74v-1a3.76,3.76,0,0,1,2-.56c1.41,0,2.12.75,2.12,2.24Zm-1-3-1.45.2a2.35,2.35,0,0,0-1,.33,1,1,0,0,0-.34.84.9.9,0,0,0,.32.71,1.18,1.18,0,0,0,.83.28,1.51,1.51,0,0,0,1.18-.5,1.78,1.78,0,0,0,.47-1.27Z" fill="#1e1e1e"/>
      <path d="M244.6,58.89h-1V50h1Z" fill="#1e1e1e"/>
      <path d="M250.75,58.89h-1V58h0a2.2,2.2,0,0,1-3.25.61,1.64,1.64,0,0,1-.5-1.26c0-1.12.66-1.78,2-2l1.79-.25q0-1.53-1.23-1.53a3,3,0,0,0-2,.74v-1a3.76,3.76,0,0,1,2-.56c1.41,0,2.12.75,2.12,2.24Zm-1-3-1.44.2a2.3,2.3,0,0,0-1,.33.93.93,0,0,0-.34.84.89.89,0,0,0,.31.71,1.2,1.2,0,0,0,.84.28,1.53,1.53,0,0,0,1.18-.5,1.77,1.77,0,0,0,.46-1.27Z" fill="#1e1e1e"/>
      <path d="M257.47,58.89h-1V55.47c0-1.27-.47-1.91-1.4-1.91a1.52,1.52,0,0,0-1.19.54,2,2,0,0,0-.47,1.37v3.42h-1v-6h1v1h0a2.17,2.17,0,0,1,2-1.14,1.83,1.83,0,0,1,1.51.64,2.79,2.79,0,0,1,.52,1.83Z" fill="#1e1e1e"/>
      <path d="M263.35,58.62a3.19,3.19,0,0,1-1.64.41,2.72,2.72,0,0,1-2.07-.83,3,3,0,0,1-.79-2.17,3.3,3.3,0,0,1,.85-2.38,3,3,0,0,1,2.27-.9,3.23,3.23,0,0,1,1.39.29v1a2.45,2.45,0,0,0-1.43-.47,1.93,1.93,0,0,0-1.51.66,2.5,2.5,0,0,0-.59,1.73,2.36,2.36,0,0,0,.56,1.66,1.89,1.89,0,0,0,1.48.61,2.39,2.39,0,0,0,1.48-.52Z" fill="#1e1e1e"/>
      <path d="M269.5,56.13h-4.23a2.21,2.21,0,0,0,.54,1.55,1.85,1.85,0,0,0,1.41.54,3,3,0,0,0,1.87-.66v.9A3.52,3.52,0,0,1,267,59a2.52,2.52,0,0,1-2-.82,3.81,3.81,0,0,1,.07-4.58,2.53,2.53,0,0,1,2-.88,2.25,2.25,0,0,1,1.82.76,3.19,3.19,0,0,1,.64,2.12Zm-1-.81a2,2,0,0,0-.4-1.3,1.37,1.37,0,0,0-1.1-.46,1.52,1.52,0,0,0-1.15.49,2.13,2.13,0,0,0-.59,1.27Z" fill="#1e1e1e"/>
      <path d="M274.09,53.86a1.18,1.18,0,0,0-.73-.19,1.23,1.23,0,0,0-1,.58,2.72,2.72,0,0,0-.41,1.58v3.06h-1v-6h1v1.24h0a2.17,2.17,0,0,1,.63-1,1.39,1.39,0,0,1,.94-.35,1.52,1.52,0,0,1,.58.08Z" fill="#1e1e1e"/>
    </g>
    <g>
      <path d="M219.61,164.16h-1v-8.41h1Z" fill="#1e1e1e"/>
      <path d="M226.54,164.16h-1v-3.43c0-1.27-.46-1.91-1.39-1.91a1.55,1.55,0,0,0-1.2.55,2,2,0,0,0-.47,1.36v3.43h-1v-6h1v1h0a2.17,2.17,0,0,1,2-1.13,1.85,1.85,0,0,1,1.51.63,2.84,2.84,0,0,1,.52,1.84Z" fill="#1e1e1e"/>
      <path d="M231,164.1a1.87,1.87,0,0,1-.89.19c-1,0-1.58-.59-1.58-1.76V159h-1v-.82h1v-1.47l1-.31v1.78H231V159h-1.51v3.38a1.37,1.37,0,0,0,.21.86.81.81,0,0,0,.68.26,1,1,0,0,0,.62-.2Z" fill="#1e1e1e"/>
      <path d="M237,161.4H232.8a2.27,2.27,0,0,0,.54,1.54,1.84,1.84,0,0,0,1.42.55,2.91,2.91,0,0,0,1.86-.67v.9a3.43,3.43,0,0,1-2.09.58,2.56,2.56,0,0,1-2-.82,3.35,3.35,0,0,1-.72-2.3,3.28,3.28,0,0,1,.79-2.28,2.54,2.54,0,0,1,2-.88,2.24,2.24,0,0,1,1.82.76,3.17,3.17,0,0,1,.65,2.11Zm-1-.82a1.9,1.9,0,0,0-.4-1.29,1.36,1.36,0,0,0-1.1-.47,1.57,1.57,0,0,0-1.15.49,2.25,2.25,0,0,0-.59,1.27Z" fill="#1e1e1e"/>
      <path d="M241.62,159.13a1.18,1.18,0,0,0-.73-.19,1.23,1.23,0,0,0-1,.58,2.7,2.7,0,0,0-.41,1.58v3.06h-1v-6h1v1.23h0a2.09,2.09,0,0,1,.63-1,1.43,1.43,0,0,1,1-.36,1.65,1.65,0,0,1,.57.08Z" fill="#1e1e1e"/>
      <path d="M247.67,164.16h-1v-3.43c0-1.27-.46-1.91-1.39-1.91a1.51,1.51,0,0,0-1.19.55,2,2,0,0,0-.48,1.36v3.43h-1v-6h1v1h0a2.17,2.17,0,0,1,2-1.13,1.83,1.83,0,0,1,1.5.63,2.84,2.84,0,0,1,.52,1.84Z" fill="#1e1e1e"/>
      <path d="M253.71,164.16h-1v-.94h0a2,2,0,0,1-1.84,1.08,1.93,1.93,0,0,1-1.4-.48,1.62,1.62,0,0,1-.51-1.26q0-1.68,2-1.95l1.8-.26c0-1-.41-1.53-1.24-1.53a3,3,0,0,0-1.95.74v-1a3.62,3.62,0,0,1,2-.56c1.41,0,2.12.74,2.12,2.23Zm-1-3-1.45.2a2.35,2.35,0,0,0-1,.33,1,1,0,0,0-.34.84.92.92,0,0,0,.32.72,1.18,1.18,0,0,0,.83.28,1.55,1.55,0,0,0,1.18-.5,1.81,1.81,0,0,0,.47-1.27Z" fill="#1e1e1e"/>
      <path d="M256.41,164.16h-1v-8.89h1Z" fill="#1e1e1e"/>
      <path d="M206.21,178.56h-4.36v-8.41h1v7.52h3.37Z" fill="#1e1e1e"/>
      <path d="M209.81,178.7a2.77,2.77,0,0,1-2.12-.84,3.12,3.12,0,0,1-.8-2.23,3.23,3.23,0,0,1,.83-2.36,3,3,0,0,1,2.23-.85,2.71,2.71,0,0,1,2.1.82,3.29,3.29,0,0,1,.75,2.29,3.21,3.21,0,0,1-.81,2.3A2.84,2.84,0,0,1,209.81,178.7Zm.07-5.48a1.81,1.81,0,0,0-1.46.63,2.59,2.59,0,0,0-.54,1.74,2.46,2.46,0,0,0,.54,1.68,1.87,1.87,0,0,0,1.46.62,1.75,1.75,0,0,0,1.43-.6,2.61,2.61,0,0,0,.51-1.72,2.65,2.65,0,0,0-.51-1.74A1.76,1.76,0,0,0,209.88,173.22Z" fill="#1e1e1e"/>
      <path d="M218.59,178.56h-1v-.94h0a2,2,0,0,1-1.85,1.08,2,2,0,0,1-1.4-.48,1.62,1.62,0,0,1-.51-1.26q0-1.68,2-2l1.8-.26q0-1.53-1.23-1.53a3,3,0,0,0-2,.74v-1a3.68,3.68,0,0,1,2-.56c1.41,0,2.11.74,2.11,2.23Zm-1-3-1.44.2a2.25,2.25,0,0,0-1,.33,1,1,0,0,0-.34.84.91.91,0,0,0,.31.72,1.2,1.2,0,0,0,.84.28,1.56,1.56,0,0,0,1.18-.5,1.8,1.8,0,0,0,.46-1.27Z" fill="#1e1e1e"/>
      <path d="M225.52,178.56h-1v-1h0a2.21,2.21,0,0,1-2.06,1.16,2.26,2.26,0,0,1-1.81-.81,3.31,3.31,0,0,1-.67-2.19,3.62,3.62,0,0,1,.75-2.39,2.45,2.45,0,0,1,2-.89,1.9,1.9,0,0,1,1.79,1h0v-3.72h1Zm-1-2.72V175a1.7,1.7,0,0,0-.48-1.23,1.61,1.61,0,0,0-1.22-.51,1.64,1.64,0,0,0-1.38.65,2.79,2.79,0,0,0-.51,1.78,2.51,2.51,0,0,0,.49,1.64,1.57,1.57,0,0,0,1.29.6,1.65,1.65,0,0,0,1.31-.58A2.2,2.2,0,0,0,224.56,175.84Z" fill="#1e1e1e"/>
      <path d="M230.88,178.56v-8.41h2.39a2.6,2.6,0,0,1,1.73.54,1.71,1.71,0,0,1,.64,1.39,2,2,0,0,1-.39,1.24,2.09,2.09,0,0,1-1.07.75v0a2.15,2.15,0,0,1,1.36.64,2,2,0,0,1,.51,1.41,2.19,2.19,0,0,1-.77,1.75,2.92,2.92,0,0,1-1.95.67Zm1-7.52v2.72h1a1.89,1.89,0,0,0,1.27-.39,1.36,1.36,0,0,0,.47-1.1c0-.82-.54-1.23-1.61-1.23Zm0,3.6v3h1.34a2,2,0,0,0,1.35-.41,1.44,1.44,0,0,0,.47-1.13c0-1-.67-1.49-2-1.49Z" fill="#1e1e1e"/>
      <path d="M241.9,178.56h-1v-.94h0a2,2,0,0,1-1.84,1.08,1.93,1.93,0,0,1-1.4-.48,1.62,1.62,0,0,1-.51-1.26q0-1.68,2-2l1.8-.26c0-1-.41-1.53-1.24-1.53a3,3,0,0,0-2,.74v-1a3.68,3.68,0,0,1,2-.56c1.41,0,2.12.74,2.12,2.23Zm-1-3-1.45.2a2.35,2.35,0,0,0-1,.33,1,1,0,0,0-.34.84.92.92,0,0,0,.32.72,1.18,1.18,0,0,0,.83.28,1.55,1.55,0,0,0,1.18-.5,1.81,1.81,0,0,0,.47-1.27Z" fill="#1e1e1e"/>
      <path d="M244.6,178.56h-1v-8.89h1Z" fill="#1e1e1e"/>
      <path d="M250.75,178.56h-1v-.94h0a2,2,0,0,1-1.84,1.08,2,2,0,0,1-1.41-.48A1.61,1.61,0,0,1,246,177q0-1.68,2-2l1.79-.26q0-1.53-1.23-1.53a3,3,0,0,0-2,.74v-1a3.68,3.68,0,0,1,2-.56c1.41,0,2.12.74,2.12,2.23Zm-1-3-1.44.2a2.3,2.3,0,0,0-1,.33,1,1,0,0,0-.34.84.91.91,0,0,0,.31.72,1.2,1.2,0,0,0,.84.28,1.56,1.56,0,0,0,1.18-.5,1.8,1.8,0,0,0,.46-1.27Z" fill="#1e1e1e"/>
      <path d="M257.47,178.56h-1v-3.43c0-1.27-.47-1.91-1.4-1.91a1.53,1.53,0,0,0-1.19.55,2,2,0,0,0-.47,1.36v3.43h-1v-6h1v1h0a2.16,2.16,0,0,1,2-1.13,1.85,1.85,0,0,1,1.51.63,2.84,2.84,0,0,1,.52,1.84Z" fill="#1e1e1e"/>
      <path d="M263.35,178.28a3.1,3.1,0,0,1-1.64.42,2.69,2.69,0,0,1-2.07-.84,3,3,0,0,1-.79-2.16,3.3,3.3,0,0,1,.85-2.38,3,3,0,0,1,2.27-.9,3.09,3.09,0,0,1,1.39.29v1a2.45,2.45,0,0,0-1.43-.47,1.93,1.93,0,0,0-1.51.66,2.53,2.53,0,0,0-.59,1.74,2.38,2.38,0,0,0,.56,1.66,1.89,1.89,0,0,0,1.48.61,2.45,2.45,0,0,0,1.48-.52Z" fill="#1e1e1e"/>
      <path d="M269.5,175.8h-4.23a2.18,2.18,0,0,0,.54,1.54,1.82,1.82,0,0,0,1.41.55,2.94,2.94,0,0,0,1.87-.67v.9a3.45,3.45,0,0,1-2.09.58,2.55,2.55,0,0,1-2-.82,3.33,3.33,0,0,1-.73-2.3,3.29,3.29,0,0,1,.8-2.28,2.53,2.53,0,0,1,2-.88,2.25,2.25,0,0,1,1.82.76,3.17,3.17,0,0,1,.64,2.11Zm-1-.82a2,2,0,0,0-.4-1.29,1.38,1.38,0,0,0-1.1-.47,1.56,1.56,0,0,0-1.15.49,2.19,2.19,0,0,0-.59,1.27Z" fill="#1e1e1e"/>
      <path d="M274.09,173.53a1.18,1.18,0,0,0-.73-.19,1.23,1.23,0,0,0-1,.58,2.7,2.7,0,0,0-.41,1.58v3.06h-1v-6h1v1.23h0a2.09,2.09,0,0,1,.63-1,1.4,1.4,0,0,1,.94-.36,1.75,1.75,0,0,1,.58.08Z" fill="#1e1e1e"/>
    </g>
    <g>
      <path d="M143.7,83.32a3.68,3.68,0,0,1-2.86-1.18,4.33,4.33,0,0,1-1.07-3.06,4.65,4.65,0,0,1,1.09-3.24,3.84,3.84,0,0,1,3-1.2,3.62,3.62,0,0,1,2.81,1.17,4.37,4.37,0,0,1,1.06,3.06,4.64,4.64,0,0,1-1.09,3.26A3.78,3.78,0,0,1,143.7,83.32Zm.07-7.79a2.73,2.73,0,0,0-2.15,1,4.28,4.28,0,0,0,0,5,2.64,2.64,0,0,0,2.1,1,2.74,2.74,0,0,0,2.18-.91,3.68,3.68,0,0,0,.8-2.52,3.87,3.87,0,0,0-.77-2.57A2.66,2.66,0,0,0,143.77,75.53Z" fill="#1e1e1e"/>
      <path d="M154.09,83.18h-1v-1h0a2,2,0,0,1-1.85,1.09c-1.43,0-2.14-.85-2.14-2.55V77.18h.95v3.43c0,1.27.48,1.9,1.45,1.9a1.46,1.46,0,0,0,1.16-.52,2,2,0,0,0,.45-1.35V77.18h1Z" fill="#1e1e1e"/>
      <path d="M158.81,83.12a1.82,1.82,0,0,1-.9.19c-1,0-1.57-.59-1.57-1.76V78h-1v-.82h1V75.72l1-.31v1.77h1.51V78H157.3v3.38a1.45,1.45,0,0,0,.2.86.81.81,0,0,0,.68.26,1.05,1.05,0,0,0,.63-.2Z" fill="#1e1e1e"/>
      <path d="M161.08,82.31h0v.87h-1V74.3h1v3.94h0a2.26,2.26,0,0,1,2.07-1.2,2.2,2.2,0,0,1,1.81.81,3.32,3.32,0,0,1,.65,2.15,3.73,3.73,0,0,1-.73,2.42,2.46,2.46,0,0,1-2,.9A1.94,1.94,0,0,1,161.08,82.31Zm0-2.42v.84a1.73,1.73,0,0,0,.49,1.26,1.71,1.71,0,0,0,2.59-.15,3,3,0,0,0,.5-1.85,2.41,2.41,0,0,0-.47-1.57,1.51,1.51,0,0,0-1.25-.57,1.7,1.7,0,0,0-1.35.58A2.15,2.15,0,0,0,161.05,79.89Z" fill="#1e1e1e"/>
      <path d="M169.65,83.32a2.79,2.79,0,0,1-2.12-.84,3.1,3.1,0,0,1-.79-2.23,3.24,3.24,0,0,1,.82-2.36,3,3,0,0,1,2.23-.85,2.7,2.7,0,0,1,2.1.83,3.77,3.77,0,0,1-.06,4.59A2.87,2.87,0,0,1,169.65,83.32Zm.07-5.47a1.83,1.83,0,0,0-1.46.63,2.59,2.59,0,0,0-.54,1.74,2.41,2.41,0,0,0,.55,1.68,1.84,1.84,0,0,0,1.45.61,1.77,1.77,0,0,0,1.44-.6,3.23,3.23,0,0,0,0-3.45A1.75,1.75,0,0,0,169.72,77.85Z" fill="#1e1e1e"/>
      <path d="M179,83.18h-1v-1h0a2,2,0,0,1-1.85,1.09c-1.43,0-2.14-.85-2.14-2.55V77.18H175v3.43c0,1.27.49,1.9,1.46,1.9a1.44,1.44,0,0,0,1.15-.52,1.92,1.92,0,0,0,.46-1.35V77.18h1Z" fill="#1e1e1e"/>
      <path d="M186,83.18h-1V79.76c0-1.27-.47-1.91-1.4-1.91a1.52,1.52,0,0,0-1.19.54,2,2,0,0,0-.47,1.37v3.42h-1v-6h1v1h0a2.17,2.17,0,0,1,2-1.14,1.83,1.83,0,0,1,1.51.64,2.79,2.79,0,0,1,.52,1.83Z" fill="#1e1e1e"/>
      <path d="M192.88,83.18h-1v-1h0a2.43,2.43,0,0,1-3.87.36,3.33,3.33,0,0,1-.68-2.2,3.57,3.57,0,0,1,.75-2.38,2.48,2.48,0,0,1,2-.9,1.93,1.93,0,0,1,1.8,1h0V74.3h1Zm-1-2.71v-.89a1.73,1.73,0,0,0-.48-1.23,1.78,1.78,0,0,0-2.6.14,2.81,2.81,0,0,0-.51,1.78,2.49,2.49,0,0,0,.49,1.64,1.57,1.57,0,0,0,1.3.6,1.64,1.64,0,0,0,1.3-.58A2.16,2.16,0,0,0,191.92,80.47Z" fill="#1e1e1e"/>
      <path d="M160.56,91.35a1.14,1.14,0,0,0-.72-.19,1.21,1.21,0,0,0-1,.58,2.64,2.64,0,0,0-.41,1.58v3.06h-1v-6h1v1.24h0a2.09,2.09,0,0,1,.63-1,1.39,1.39,0,0,1,.94-.35,1.44,1.44,0,0,1,.57.08Z" fill="#1e1e1e"/>
      <path d="M166.46,96.38h-1v-.95h0a2,2,0,0,1-1.85,1.09c-1.43,0-2.14-.85-2.14-2.55V90.38h1v3.43c0,1.27.49,1.9,1.46,1.9a1.45,1.45,0,0,0,1.15-.52,1.92,1.92,0,0,0,.46-1.35V90.38h1Z" fill="#1e1e1e"/>
      <path d="M169.36,96.38h-1V87.5h1Z" fill="#1e1e1e"/>
      <path d="M176.13,93.62h-4.24a2.25,2.25,0,0,0,.54,1.55,1.85,1.85,0,0,0,1.42.54,2.93,2.93,0,0,0,1.86-.67V96a3.5,3.5,0,0,1-2.09.57,2.52,2.52,0,0,1-2-.82,3.36,3.36,0,0,1-.73-2.3,3.29,3.29,0,0,1,.8-2.28,2.53,2.53,0,0,1,2-.88,2.25,2.25,0,0,1,1.82.76,3.18,3.18,0,0,1,.65,2.12Zm-1-.81a2,2,0,0,0-.4-1.3,1.36,1.36,0,0,0-1.1-.46,1.52,1.52,0,0,0-1.15.49,2.19,2.19,0,0,0-.59,1.27Z" fill="#1e1e1e"/>
    </g>
    <g>
      <path d="M308.2,75.67h-3.28v2.91h3v.88h-3v3.72h-1v-8.4h4.27Z" fill="#1e1e1e"/>
      <path d="M312.79,78.15a1.16,1.16,0,0,0-.72-.19,1.21,1.21,0,0,0-1,.58,2.64,2.64,0,0,0-.42,1.58v3.06h-1v-6h1v1.24h0a2.08,2.08,0,0,1,.62-1,1.63,1.63,0,0,1,1.52-.27Z" fill="#1e1e1e"/>
      <path d="M316.34,83.32a2.79,2.79,0,0,1-2.12-.84,3.1,3.1,0,0,1-.79-2.23,3.24,3.24,0,0,1,.82-2.36,3,3,0,0,1,2.23-.85,2.7,2.7,0,0,1,2.1.83,3.77,3.77,0,0,1-.06,4.59A2.87,2.87,0,0,1,316.34,83.32Zm.07-5.47a1.83,1.83,0,0,0-1.46.63,2.59,2.59,0,0,0-.54,1.74A2.46,2.46,0,0,0,315,81.9a1.86,1.86,0,0,0,1.46.61,1.79,1.79,0,0,0,1.44-.6,3.23,3.23,0,0,0,0-3.45A1.76,1.76,0,0,0,316.41,77.85Z" fill="#1e1e1e"/>
      <path d="M325.85,83.18h-1V79.76c0-1.27-.47-1.91-1.4-1.91a1.5,1.5,0,0,0-1.19.54,2,2,0,0,0-.47,1.37v3.42h-1v-6h1v1h0a2.16,2.16,0,0,1,2-1.14,1.83,1.83,0,0,1,1.51.64,2.85,2.85,0,0,1,.52,1.83Z" fill="#1e1e1e"/>
      <path d="M330.44,83.12a1.8,1.8,0,0,1-.9.19c-1.05,0-1.57-.59-1.57-1.76V78h-1v-.82h1V75.72l1-.31v1.77h1.51V78h-1.51v3.38a1.45,1.45,0,0,0,.2.86.81.81,0,0,0,.68.26,1,1,0,0,0,.63-.2Z" fill="#1e1e1e"/>
      <path d="M336.55,80.42h-4.24a2.3,2.3,0,0,0,.54,1.55,1.87,1.87,0,0,0,1.42.54,2.93,2.93,0,0,0,1.86-.67v.91a3.5,3.5,0,0,1-2.09.57,2.52,2.52,0,0,1-2-.82,3.36,3.36,0,0,1-.73-2.3,3.29,3.29,0,0,1,.8-2.28,2.53,2.53,0,0,1,2-.88,2.25,2.25,0,0,1,1.82.76,3.18,3.18,0,0,1,.65,2.12Zm-1-.81a2,2,0,0,0-.4-1.3,1.36,1.36,0,0,0-1.1-.46,1.55,1.55,0,0,0-1.15.48,2.25,2.25,0,0,0-.59,1.28Z" fill="#1e1e1e"/>
      <path d="M343,83.18h-1V79.76c0-1.27-.47-1.91-1.4-1.91a1.52,1.52,0,0,0-1.19.54,2,2,0,0,0-.47,1.37v3.42h-1v-6h1v1h0A2.17,2.17,0,0,1,341,77a1.83,1.83,0,0,1,1.51.64,2.79,2.79,0,0,1,.52,1.83Z" fill="#1e1e1e"/>
      <path d="M349.91,83.18h-1v-1h0a2.43,2.43,0,0,1-3.87.36,3.33,3.33,0,0,1-.68-2.2,3.57,3.57,0,0,1,.75-2.38,2.48,2.48,0,0,1,2-.9,1.93,1.93,0,0,1,1.8,1h0V74.3h1Zm-1-2.71v-.89a1.73,1.73,0,0,0-.48-1.23,1.78,1.78,0,0,0-2.6.14,2.81,2.81,0,0,0-.51,1.78,2.54,2.54,0,0,0,.49,1.64,1.57,1.57,0,0,0,1.3.6,1.63,1.63,0,0,0,1.3-.58A2.16,2.16,0,0,0,349,80.47Z" fill="#1e1e1e"/>
      <path d="M301.91,96.38h-1V88h1Z" fill="#1e1e1e"/>
      <path d="M305.1,93.21v3.17h-1V88h2.31a3.07,3.07,0,0,1,2.08.65,2.35,2.35,0,0,1,.75,1.86,2.53,2.53,0,0,1-.83,2,3.14,3.14,0,0,1-2.22.77Zm0-4.34v3.44h1a2.32,2.32,0,0,0,1.56-.46,1.64,1.64,0,0,0,.53-1.32c0-1.11-.65-1.66-2-1.66Z" fill="#1e1e1e"/>
      <path d="M318.29,96.38h-1v-.94h0a2,2,0,0,1-1.85,1.08,2,2,0,0,1-1.4-.47,1.65,1.65,0,0,1-.51-1.26c0-1.12.66-1.78,2-2l1.8-.25c0-1-.41-1.53-1.24-1.53a2.9,2.9,0,0,0-1.95.74v-1a3.76,3.76,0,0,1,2-.56c1.41,0,2.11.75,2.11,2.24Zm-1-3-1.45.19a2.37,2.37,0,0,0-1,.34.93.93,0,0,0-.34.84.89.89,0,0,0,.31.71,1.19,1.19,0,0,0,.83.28,1.51,1.51,0,0,0,1.18-.5,1.74,1.74,0,0,0,.47-1.27Z" fill="#1e1e1e"/>
      <path d="M325.22,96.38h-1v-1h0a2.23,2.23,0,0,1-2.06,1.16,2.25,2.25,0,0,1-1.81-.8,3.33,3.33,0,0,1-.68-2.2,3.57,3.57,0,0,1,.75-2.38,2.48,2.48,0,0,1,2-.9,1.93,1.93,0,0,1,1.8,1h0V87.5h1Zm-1-2.71v-.89a1.73,1.73,0,0,0-.48-1.23,1.62,1.62,0,0,0-1.22-.5,1.66,1.66,0,0,0-1.38.64,2.81,2.81,0,0,0-.5,1.78,2.54,2.54,0,0,0,.48,1.64,1.57,1.57,0,0,0,1.3.6,1.63,1.63,0,0,0,1.3-.58A2.11,2.11,0,0,0,324.26,93.67Z" fill="#1e1e1e"/>
      <path d="M332.29,96.38h-1v-1h0a2.24,2.24,0,0,1-2.07,1.16,2.28,2.28,0,0,1-1.81-.8,3.32,3.32,0,0,1-.67-2.2,3.57,3.57,0,0,1,.75-2.38,2.46,2.46,0,0,1,2-.9,1.93,1.93,0,0,1,1.8,1h0V87.5h1Zm-1-2.71v-.89a1.73,1.73,0,0,0-.48-1.23,1.78,1.78,0,0,0-2.6.14,2.81,2.81,0,0,0-.51,1.78,2.49,2.49,0,0,0,.49,1.64,1.57,1.57,0,0,0,1.29.6,1.65,1.65,0,0,0,1.31-.58A2.16,2.16,0,0,0,331.33,93.67Z" fill="#1e1e1e"/>
      <path d="M337.36,91.35a1.14,1.14,0,0,0-.72-.19,1.21,1.21,0,0,0-1,.58,2.64,2.64,0,0,0-.41,1.58v3.06h-1v-6h1v1.24h0a2.09,2.09,0,0,1,.63-1,1.39,1.39,0,0,1,.94-.35,1.44,1.44,0,0,1,.57.08Z" fill="#1e1e1e"/>
      <path d="M343.23,93.62H339a2.3,2.3,0,0,0,.54,1.55,1.88,1.88,0,0,0,1.42.54,2.89,2.89,0,0,0,1.86-.67V96a3.47,3.47,0,0,1-2.09.57,2.53,2.53,0,0,1-2-.82,3.35,3.35,0,0,1-.72-2.3,3.28,3.28,0,0,1,.79-2.28,2.54,2.54,0,0,1,2-.88,2.24,2.24,0,0,1,1.82.76,3.18,3.18,0,0,1,.65,2.12Zm-1-.81a1.91,1.91,0,0,0-.4-1.3,1.36,1.36,0,0,0-1.1-.46,1.54,1.54,0,0,0-1.15.49,2.19,2.19,0,0,0-.59,1.27Z" fill="#1e1e1e"/>
      <path d="M344.32,96.16v-1a2.82,2.82,0,0,0,1.73.58q1.26,0,1.26-.84a.68.68,0,0,0-.11-.41,1,1,0,0,0-.29-.29,2.19,2.19,0,0,0-.43-.24l-.54-.21a5.79,5.79,0,0,1-.7-.32,2.22,2.22,0,0,1-.5-.36,1.38,1.38,0,0,1-.31-.46,1.59,1.59,0,0,1-.1-.61,1.38,1.38,0,0,1,.19-.74,1.7,1.7,0,0,1,.52-.55,2.71,2.71,0,0,1,.73-.33,3.49,3.49,0,0,1,.86-.11,3.41,3.41,0,0,1,1.39.27v1a2.7,2.7,0,0,0-1.52-.43,1.88,1.88,0,0,0-.49.06,1.26,1.26,0,0,0-.37.17,1,1,0,0,0-.24.27.67.67,0,0,0-.09.34.82.82,0,0,0,.09.4,1.07,1.07,0,0,0,.25.28,2.11,2.11,0,0,0,.4.22l.53.22a7.07,7.07,0,0,1,.72.31,2.45,2.45,0,0,1,.53.36,1.45,1.45,0,0,1,.35.47,1.48,1.48,0,0,1,.12.63,1.5,1.5,0,0,1-.2.77,1.58,1.58,0,0,1-.52.54,2.28,2.28,0,0,1-.76.33,3.71,3.71,0,0,1-.9.1A3.37,3.37,0,0,1,344.32,96.16Z" fill="#1e1e1e"/>
      <path d="M349.41,96.16v-1a2.82,2.82,0,0,0,1.73.58q1.26,0,1.26-.84a.76.76,0,0,0-.1-.41,1,1,0,0,0-.3-.29,1.94,1.94,0,0,0-.43-.24l-.54-.21a5.79,5.79,0,0,1-.7-.32,2.22,2.22,0,0,1-.5-.36,1.38,1.38,0,0,1-.31-.46,1.81,1.81,0,0,1-.1-.61,1.39,1.39,0,0,1,.2-.74,1.67,1.67,0,0,1,.51-.55,2.77,2.77,0,0,1,.74-.33,3.56,3.56,0,0,1,2.24.16v1a2.7,2.7,0,0,0-1.52-.43,1.88,1.88,0,0,0-.49.06,1.4,1.4,0,0,0-.37.17,1,1,0,0,0-.24.27.66.66,0,0,0-.08.34.82.82,0,0,0,.08.4,1.07,1.07,0,0,0,.25.28,2.11,2.11,0,0,0,.4.22l.53.22a6.21,6.21,0,0,1,.72.31,2.82,2.82,0,0,1,.54.36,1.57,1.57,0,0,1,.34.47,1.48,1.48,0,0,1,.12.63,1.5,1.5,0,0,1-.2.77,1.58,1.58,0,0,1-.52.54,2.28,2.28,0,0,1-.76.33,3.68,3.68,0,0,1-.89.1A3.39,3.39,0,0,1,349.41,96.16Z" fill="#1e1e1e"/>
    </g>
    <g>
      <path d="M159.07,141.47h-4.36v-8.4h1v7.51h3.38Z" fill="#1e1e1e"/>
      <path d="M162.74,141.61a2.79,2.79,0,0,1-2.13-.84,3.1,3.1,0,0,1-.79-2.23,3.24,3.24,0,0,1,.82-2.36,3,3,0,0,1,2.24-.85,2.66,2.66,0,0,1,2.09.83,3.77,3.77,0,0,1-.06,4.59A2.85,2.85,0,0,1,162.74,141.61Zm.07-5.47a1.84,1.84,0,0,0-1.47.63,2.58,2.58,0,0,0-.54,1.73,2.42,2.42,0,0,0,.55,1.69,1.85,1.85,0,0,0,1.46.61,1.75,1.75,0,0,0,1.43-.6,3.23,3.23,0,0,0,0-3.45A1.73,1.73,0,0,0,162.81,136.14Z" fill="#1e1e1e"/>
      <path d="M171.56,141.47h-1v-.94h0a2.2,2.2,0,0,1-3.25.61,1.65,1.65,0,0,1-.51-1.26c0-1.13.66-1.78,2-2l1.79-.25q0-1.53-1.23-1.53a2.92,2.92,0,0,0-2,.74v-1a3.76,3.76,0,0,1,2-.56c1.41,0,2.12.75,2.12,2.24Zm-1-3-1.44.2a2.59,2.59,0,0,0-1,.33,1,1,0,0,0-.34.85.89.89,0,0,0,.31.71,1.2,1.2,0,0,0,.84.28,1.56,1.56,0,0,0,1.18-.5,1.79,1.79,0,0,0,.46-1.27Z" fill="#1e1e1e"/>
      <path d="M178.49,141.47h-1v-1h0a2.21,2.21,0,0,1-2.06,1.16,2.24,2.24,0,0,1-1.81-.81,3.28,3.28,0,0,1-.67-2.19,3.57,3.57,0,0,1,.75-2.38,2.46,2.46,0,0,1,2-.9,1.91,1.91,0,0,1,1.8,1h0v-3.71h1Zm-1-2.71v-.89a1.73,1.73,0,0,0-.48-1.23,1.65,1.65,0,0,0-1.22-.5,1.67,1.67,0,0,0-1.39.64,2.87,2.87,0,0,0-.5,1.78,2.56,2.56,0,0,0,.48,1.64,1.73,1.73,0,0,0,2.6,0A2.13,2.13,0,0,0,177.53,138.76Z" fill="#1e1e1e"/>
      <path d="M142.86,153.8h0v.87h-1v-8.88h1v3.93h0a2.27,2.27,0,0,1,2.07-1.19,2.23,2.23,0,0,1,1.81.8,3.37,3.37,0,0,1,.65,2.16,3.73,3.73,0,0,1-.73,2.42,2.46,2.46,0,0,1-2,.9A2,2,0,0,1,142.86,153.8Zm0-2.42v.84a1.73,1.73,0,0,0,.49,1.26,1.71,1.71,0,0,0,2.59-.15,3,3,0,0,0,.5-1.85,2.41,2.41,0,0,0-.47-1.57,1.51,1.51,0,0,0-1.25-.57,1.7,1.7,0,0,0-1.35.58A2.15,2.15,0,0,0,142.83,151.38Z" fill="#1e1e1e"/>
      <path d="M153.22,154.67h-1v-.94h0a2,2,0,0,1-1.85,1.08,2,2,0,0,1-1.4-.47,1.65,1.65,0,0,1-.51-1.26c0-1.12.66-1.78,2-2l1.8-.25c0-1-.41-1.53-1.24-1.53a2.9,2.9,0,0,0-2,.74v-1a3.76,3.76,0,0,1,2-.56c1.41,0,2.11.75,2.11,2.24Zm-1-3-1.45.2a2.37,2.37,0,0,0-1,.34.93.93,0,0,0-.34.84.89.89,0,0,0,.31.71,1.19,1.19,0,0,0,.83.28,1.55,1.55,0,0,0,1.18-.5,1.8,1.8,0,0,0,.47-1.27Z" fill="#1e1e1e"/>
      <path d="M156,154.67h-1v-8.88h1Z" fill="#1e1e1e"/>
      <path d="M162.23,154.67h-1v-.94h0a2.2,2.2,0,0,1-3.25.61,1.65,1.65,0,0,1-.51-1.26c0-1.12.66-1.78,2-2l1.8-.25q0-1.53-1.23-1.53a2.91,2.91,0,0,0-2,.74v-1a3.76,3.76,0,0,1,2-.56c1.41,0,2.11.75,2.11,2.24Zm-1-3-1.45.2a2.37,2.37,0,0,0-1,.34.93.93,0,0,0-.34.84.89.89,0,0,0,.31.71,1.2,1.2,0,0,0,.84.28,1.56,1.56,0,0,0,1.18-.5,1.79,1.79,0,0,0,.46-1.27Z" fill="#1e1e1e"/>
      <path d="M169,154.67h-1v-3.42c0-1.28-.46-1.91-1.39-1.91a1.5,1.5,0,0,0-1.19.54,2,2,0,0,0-.48,1.37v3.42h-1v-6h1v1h0a2.16,2.16,0,0,1,2-1.14,1.82,1.82,0,0,1,1.5.64A2.79,2.79,0,0,1,169,151Z" fill="#1e1e1e"/>
      <path d="M174.92,154.39a3.08,3.08,0,0,1-1.64.42,2.75,2.75,0,0,1-2.07-.83,3.06,3.06,0,0,1-.79-2.17,3.35,3.35,0,0,1,.85-2.38,3,3,0,0,1,2.27-.9,3.27,3.27,0,0,1,1.4.29v1a2.42,2.42,0,0,0-1.43-.47A1.92,1.92,0,0,0,172,150a2.46,2.46,0,0,0-.59,1.73,2.36,2.36,0,0,0,.55,1.66,1.91,1.91,0,0,0,1.49.61,2.38,2.38,0,0,0,1.47-.52Z" fill="#1e1e1e"/>
      <path d="M176.87,147.15a.6.6,0,0,1-.44-.18.59.59,0,0,1-.18-.44.61.61,0,0,1,.18-.45.6.6,0,0,1,.44-.18.63.63,0,0,1,.45.18.61.61,0,0,1,.18.45.58.58,0,0,1-.18.43A.6.6,0,0,1,176.87,147.15Zm.47,7.52h-1v-6h1Z" fill="#1e1e1e"/>
      <path d="M184.26,154.67h-1v-3.42c0-1.28-.46-1.91-1.39-1.91a1.5,1.5,0,0,0-1.19.54,2,2,0,0,0-.48,1.37v3.42h-1v-6h1v1h0a2.16,2.16,0,0,1,2-1.14,1.82,1.82,0,0,1,1.5.64,2.79,2.79,0,0,1,.52,1.83Z" fill="#1e1e1e"/>
      <path d="M191.2,154.19q0,3.3-3.17,3.3a4.23,4.23,0,0,1-1.94-.42v-1a3.92,3.92,0,0,0,1.93.56c1.48,0,2.21-.78,2.21-2.35v-.66h0a2.42,2.42,0,0,1-3.86.35,3.17,3.17,0,0,1-.69-2.15,3.73,3.73,0,0,1,.74-2.43,2.46,2.46,0,0,1,2-.9,2,2,0,0,1,1.8,1h0v-.83h1Zm-1-2.23v-.89a1.72,1.72,0,0,0-.48-1.22,1.58,1.58,0,0,0-1.2-.51,1.66,1.66,0,0,0-1.4.65,2.91,2.91,0,0,0-.5,1.81,2.48,2.48,0,0,0,.48,1.6,1.56,1.56,0,0,0,1.28.6,1.69,1.69,0,0,0,1.32-.57A2.15,2.15,0,0,0,190.23,152Z" fill="#1e1e1e"/>
      <path d="M160.56,162.84a1.16,1.16,0,0,0-.72-.19,1.21,1.21,0,0,0-1,.58,2.64,2.64,0,0,0-.42,1.58v3.06h-1v-6h1v1.24h0a2,2,0,0,1,.63-1,1.54,1.54,0,0,1,1.51-.27Z" fill="#1e1e1e"/>
      <path d="M166.46,167.87h-1v-1h0a2,2,0,0,1-1.85,1.09c-1.43,0-2.14-.85-2.14-2.55v-3.59h1v3.43c0,1.27.49,1.9,1.46,1.9a1.45,1.45,0,0,0,1.15-.52,1.92,1.92,0,0,0,.46-1.35v-3.46h1Z" fill="#1e1e1e"/>
      <path d="M169.36,167.87h-1V159h1Z" fill="#1e1e1e"/>
      <path d="M176.13,165.11h-4.24a2.21,2.21,0,0,0,.54,1.55,1.85,1.85,0,0,0,1.42.54,2.93,2.93,0,0,0,1.86-.67v.91a3.52,3.52,0,0,1-2.09.57,2.52,2.52,0,0,1-2-.82,3.36,3.36,0,0,1-.73-2.3,3.29,3.29,0,0,1,.8-2.28,2.53,2.53,0,0,1,2-.88,2.25,2.25,0,0,1,1.82.76,3.18,3.18,0,0,1,.65,2.12Zm-1-.81a2,2,0,0,0-.4-1.3,1.36,1.36,0,0,0-1.1-.46,1.55,1.55,0,0,0-1.15.48,2.19,2.19,0,0,0-.59,1.28Z" fill="#1e1e1e"/>
    </g>
    <g>
      <path d="M374.55,59.58h-1v-8.4h1Z" fill="#1e1e1e"/>
      <path d="M381.61,59.58h-1V56.16c0-1.27-.46-1.91-1.39-1.91a1.54,1.54,0,0,0-1.2.54,2.05,2.05,0,0,0-.47,1.37v3.42h-1v-6h1v1h0a2.16,2.16,0,0,1,2-1.14,1.85,1.85,0,0,1,1.5.64,2.82,2.82,0,0,1,.52,1.84Z" fill="#1e1e1e"/>
      <path d="M386.21,59.53a2,2,0,0,1-.9.18c-1.05,0-1.58-.58-1.58-1.75V54.4h-1v-.82h1V52.12l1-.31v1.77h1.52v.82h-1.52v3.39a1.37,1.37,0,0,0,.21.86.82.82,0,0,0,.68.25,1,1,0,0,0,.63-.19Z" fill="#1e1e1e"/>
      <path d="M392.31,56.82h-4.23a2.23,2.23,0,0,0,.53,1.55,1.89,1.89,0,0,0,1.42.55,3,3,0,0,0,1.87-.67v.9a3.53,3.53,0,0,1-2.1.58,2.54,2.54,0,0,1-2-.82,3.33,3.33,0,0,1-.73-2.3,3.25,3.25,0,0,1,.79-2.28,2.56,2.56,0,0,1,2-.89,2.26,2.26,0,0,1,1.82.77,3.15,3.15,0,0,1,.64,2.11Zm-1-.81a2,2,0,0,0-.4-1.29,1.38,1.38,0,0,0-1.1-.47,1.54,1.54,0,0,0-1.16.49,2.21,2.21,0,0,0-.58,1.27Z" fill="#1e1e1e"/>
      <path d="M396.89,54.56a1.14,1.14,0,0,0-.72-.2,1.24,1.24,0,0,0-1,.58,2.68,2.68,0,0,0-.41,1.59v3h-1v-6h1v1.24h0a2.17,2.17,0,0,1,.63-1,1.44,1.44,0,0,1,.94-.35,1.65,1.65,0,0,1,.57.08Z" fill="#1e1e1e"/>
      <path d="M402.92,59.58h-1V56.16c0-1.27-.47-1.91-1.4-1.91a1.5,1.5,0,0,0-1.19.54,2.05,2.05,0,0,0-.47,1.37v3.42h-1v-6h1v1h0a2.16,2.16,0,0,1,2-1.14,1.86,1.86,0,0,1,1.51.64,2.88,2.88,0,0,1,.52,1.84Z" fill="#1e1e1e"/>
      <path d="M409.55,56.82h-4.24a2.28,2.28,0,0,0,.54,1.55,1.89,1.89,0,0,0,1.42.55,3,3,0,0,0,1.86-.67v.9a3.48,3.48,0,0,1-2.09.58,2.56,2.56,0,0,1-2-.82,3.37,3.37,0,0,1-.72-2.3,3.25,3.25,0,0,1,.79-2.28,2.55,2.55,0,0,1,2-.89,2.26,2.26,0,0,1,1.83.77,3.15,3.15,0,0,1,.64,2.11Zm-1-.81a1.93,1.93,0,0,0-.41-1.29,1.36,1.36,0,0,0-1.09-.47,1.54,1.54,0,0,0-1.16.49,2.21,2.21,0,0,0-.58,1.27Z" fill="#1e1e1e"/>
      <path d="M413.79,59.53a2,2,0,0,1-.9.18c-1.05,0-1.58-.58-1.58-1.75V54.4h-1v-.82h1V52.12l1-.31v1.77h1.52v.82h-1.52v3.39a1.37,1.37,0,0,0,.21.86.82.82,0,0,0,.68.25,1,1,0,0,0,.63-.19Z" fill="#1e1e1e"/>
    </g>
    <g>
      <path d="M82.24,12.2H77.88V3.8h1v7.51h3.38Z" fill="#1e1e1e"/>
      <path d="M85.84,12.34a2.79,2.79,0,0,1-2.13-.84,3.1,3.1,0,0,1-.79-2.23,3.24,3.24,0,0,1,.82-2.36A3,3,0,0,1,86,6.06a2.69,2.69,0,0,1,2.09.83,3.27,3.27,0,0,1,.75,2.29,3.25,3.25,0,0,1-.81,2.3A2.85,2.85,0,0,1,85.84,12.34Zm.07-5.47a1.84,1.84,0,0,0-1.47.63,2.59,2.59,0,0,0-.54,1.74,2.41,2.41,0,0,0,.55,1.68,1.85,1.85,0,0,0,1.46.61,1.75,1.75,0,0,0,1.43-.6,2.63,2.63,0,0,0,.5-1.72,2.66,2.66,0,0,0-.5-1.73A1.73,1.73,0,0,0,85.91,6.87Z" fill="#1e1e1e"/>
      <path d="M94.62,12.2h-1v-.94h0a2,2,0,0,1-1.84,1.08,2,2,0,0,1-1.4-.47,1.65,1.65,0,0,1-.51-1.26c0-1.12.66-1.78,2-2l1.8-.25c0-1-.41-1.53-1.24-1.53a3,3,0,0,0-2,.74v-1a3.76,3.76,0,0,1,2-.56c1.41,0,2.12.75,2.12,2.24Zm-1-3-1.45.2a2.3,2.3,0,0,0-1,.33,1,1,0,0,0-.34.84.9.9,0,0,0,.32.71,1.18,1.18,0,0,0,.83.28,1.51,1.51,0,0,0,1.18-.5,1.78,1.78,0,0,0,.47-1.27Z" fill="#1e1e1e"/>
      <path d="M101.54,12.2h-1v-1h0a2.21,2.21,0,0,1-2.06,1.16,2.25,2.25,0,0,1-1.81-.8A3.33,3.33,0,0,1,96,9.34,3.57,3.57,0,0,1,96.76,7a2.48,2.48,0,0,1,2-.9,1.93,1.93,0,0,1,1.8,1h0V3.32h1Zm-1-2.71V8.6a1.73,1.73,0,0,0-.48-1.23,1.62,1.62,0,0,0-1.22-.5,1.66,1.66,0,0,0-1.38.64A2.81,2.81,0,0,0,97,9.29a2.54,2.54,0,0,0,.48,1.64,1.57,1.57,0,0,0,1.3.6,1.63,1.63,0,0,0,1.3-.58A2.11,2.11,0,0,0,100.58,9.49Z" fill="#1e1e1e"/>
      <path d="M106.9,12.2V3.8h2.4a2.62,2.62,0,0,1,1.72.53,1.72,1.72,0,0,1,.64,1.39A2.07,2.07,0,0,1,111.28,7a2.14,2.14,0,0,1-1.07.75v0a2.1,2.1,0,0,1,1.36.64,2,2,0,0,1,.51,1.41,2.19,2.19,0,0,1-.77,1.74,2.88,2.88,0,0,1-2,.67Zm1-7.51V7.4h1A1.91,1.91,0,0,0,110.17,7a1.34,1.34,0,0,0,.46-1.1c0-.81-.54-1.22-1.61-1.22Zm0,3.6v3h1.33a2,2,0,0,0,1.35-.41,1.4,1.4,0,0,0,.48-1.12c0-1-.68-1.49-2-1.49Z" fill="#1e1e1e"/>
      <path d="M117.92,12.2h-1v-.94h0a2.2,2.2,0,0,1-3.25.61,1.65,1.65,0,0,1-.51-1.26c0-1.12.66-1.78,2-2L117,8.4q0-1.53-1.23-1.53a3,3,0,0,0-2,.74v-1a3.76,3.76,0,0,1,2-.56c1.41,0,2.11.75,2.11,2.24Zm-1-3-1.45.2a2.25,2.25,0,0,0-1,.33.93.93,0,0,0-.34.84.89.89,0,0,0,.31.71,1.2,1.2,0,0,0,.84.28,1.53,1.53,0,0,0,1.18-.5A1.77,1.77,0,0,0,117,9.76Z" fill="#1e1e1e"/>
      <path d="M120.63,12.2h-1V3.32h1Z" fill="#1e1e1e"/>
      <path d="M126.77,12.2h-1v-.94h0a2,2,0,0,1-1.85,1.08,2,2,0,0,1-1.4-.47,1.65,1.65,0,0,1-.51-1.26c0-1.12.66-1.78,2-2l1.8-.25c0-1-.41-1.53-1.24-1.53a3,3,0,0,0-1.95.74v-1a3.75,3.75,0,0,1,2-.56c1.41,0,2.12.75,2.12,2.24Zm-1-3-1.45.2a2.35,2.35,0,0,0-1,.33,1,1,0,0,0-.34.84.9.9,0,0,0,.32.71,1.18,1.18,0,0,0,.83.28,1.51,1.51,0,0,0,1.18-.5,1.78,1.78,0,0,0,.47-1.27Z" fill="#1e1e1e"/>
      <path d="M133.49,12.2h-1V8.78c0-1.27-.46-1.91-1.39-1.91a1.5,1.5,0,0,0-1.19.54,2,2,0,0,0-.48,1.37V12.2h-1v-6h1v1h0a2.16,2.16,0,0,1,2-1.14,1.82,1.82,0,0,1,1.5.64,2.79,2.79,0,0,1,.52,1.83Z" fill="#1e1e1e"/>
      <path d="M139.37,11.93a3.17,3.17,0,0,1-1.64.41,2.75,2.75,0,0,1-2.07-.83,3.06,3.06,0,0,1-.79-2.17A3.35,3.35,0,0,1,135.72,7a3,3,0,0,1,2.27-.9,3.27,3.27,0,0,1,1.4.29v1A2.49,2.49,0,0,0,138,6.87a1.92,1.92,0,0,0-1.51.66,2.46,2.46,0,0,0-.59,1.73,2.36,2.36,0,0,0,.55,1.66,1.91,1.91,0,0,0,1.49.61,2.38,2.38,0,0,0,1.47-.52Z" fill="#1e1e1e"/>
      <path d="M145.53,9.44h-4.24a2.28,2.28,0,0,0,.54,1.55,1.88,1.88,0,0,0,1.42.54,2.94,2.94,0,0,0,1.86-.66v.9a3.47,3.47,0,0,1-2.09.57,2.53,2.53,0,0,1-2-.82,3.35,3.35,0,0,1-.72-2.3,3.28,3.28,0,0,1,.79-2.28,2.54,2.54,0,0,1,2-.88,2.24,2.24,0,0,1,1.82.76,3.2,3.2,0,0,1,.65,2.12Zm-1-.81a1.91,1.91,0,0,0-.4-1.3,1.36,1.36,0,0,0-1.1-.46,1.54,1.54,0,0,0-1.15.49,2.19,2.19,0,0,0-.59,1.27Z" fill="#1e1e1e"/>
      <path d="M150.11,7.17a1.18,1.18,0,0,0-.73-.19,1.2,1.2,0,0,0-1,.58,2.64,2.64,0,0,0-.42,1.58V12.2h-1v-6h1V7.44h0a2.08,2.08,0,0,1,.62-1,1.42,1.42,0,0,1,.95-.35,1.44,1.44,0,0,1,.57.08Z" fill="#1e1e1e"/>
      <path d="M159,12.2h-4.45V3.8h4.27v.89h-3.29V7.48h3v.89h-3v2.94H159Z" fill="#1e1e1e"/>
      <path d="M165.45,11.72c0,2.2-1.06,3.31-3.17,3.31a4.24,4.24,0,0,1-1.94-.43v-1a3.94,3.94,0,0,0,1.93.57c1.48,0,2.22-.79,2.22-2.36v-.66h0a2.42,2.42,0,0,1-3.86.35,3.17,3.17,0,0,1-.68-2.15A3.75,3.75,0,0,1,160.65,7a2.46,2.46,0,0,1,2-.9,2,2,0,0,1,1.8,1h0V6.2h1Zm-1-2.23V8.6A1.73,1.73,0,0,0,164,7.38a1.58,1.58,0,0,0-1.2-.51,1.66,1.66,0,0,0-1.4.65,2.91,2.91,0,0,0-.5,1.81,2.48,2.48,0,0,0,.48,1.6,1.57,1.57,0,0,0,1.28.6A1.69,1.69,0,0,0,164,11,2.12,2.12,0,0,0,164.49,9.49Z" fill="#1e1e1e"/>
      <path d="M170.39,7.17a1.18,1.18,0,0,0-.73-.19,1.2,1.2,0,0,0-1,.58,2.64,2.64,0,0,0-.42,1.58V12.2h-1v-6h1V7.44h0a2.08,2.08,0,0,1,.62-1,1.42,1.42,0,0,1,.95-.35,1.44,1.44,0,0,1,.57.08Z" fill="#1e1e1e"/>
      <path d="M176.27,9.44H172a2.28,2.28,0,0,0,.54,1.55,1.88,1.88,0,0,0,1.42.54,2.94,2.94,0,0,0,1.86-.66v.9a3.47,3.47,0,0,1-2.09.57,2.53,2.53,0,0,1-2-.82,3.35,3.35,0,0,1-.72-2.3,3.28,3.28,0,0,1,.79-2.28,2.54,2.54,0,0,1,2-.88,2.26,2.26,0,0,1,1.83.76,3.19,3.19,0,0,1,.64,2.12Zm-1-.81a2,2,0,0,0-.41-1.3,1.35,1.35,0,0,0-1.09-.46,1.54,1.54,0,0,0-1.16.49,2.12,2.12,0,0,0-.58,1.27Z" fill="#1e1e1e"/>
      <path d="M177.34,12V11a2.84,2.84,0,0,0,1.73.58c.85,0,1.27-.28,1.27-.84a.76.76,0,0,0-.11-.41,1,1,0,0,0-.29-.29,2.28,2.28,0,0,0-.44-.24L179,9.54a5.16,5.16,0,0,1-.7-.32,2.55,2.55,0,0,1-.51-.36,1.52,1.52,0,0,1-.3-.46,1.59,1.59,0,0,1-.1-.61,1.38,1.38,0,0,1,.19-.74,1.78,1.78,0,0,1,.51-.55,2.77,2.77,0,0,1,.74-.33,3.59,3.59,0,0,1,2.25.16v1a2.71,2.71,0,0,0-1.53-.43,1.75,1.75,0,0,0-.48.06,1.15,1.15,0,0,0-.37.17.76.76,0,0,0-.24.27.67.67,0,0,0-.09.34.82.82,0,0,0,.09.4.88.88,0,0,0,.24.28,2.48,2.48,0,0,0,.4.22l.54.22a6.85,6.85,0,0,1,.71.31,2.82,2.82,0,0,1,.54.36,1.41,1.41,0,0,1,.34.47,1.48,1.48,0,0,1,.12.63,1.49,1.49,0,0,1-.19.77,1.61,1.61,0,0,1-.53.54,2.32,2.32,0,0,1-.75.33,3.82,3.82,0,0,1-.9.1A3.41,3.41,0,0,1,177.34,12Z" fill="#1e1e1e"/>
      <path d="M182.44,12V11a2.81,2.81,0,0,0,1.72.58c.85,0,1.27-.28,1.27-.84a.76.76,0,0,0-.11-.41A1,1,0,0,0,185,10a2.19,2.19,0,0,0-.43-.24l-.54-.21a5.16,5.16,0,0,1-.7-.32,2.55,2.55,0,0,1-.51-.36,1.52,1.52,0,0,1-.3-.46,1.59,1.59,0,0,1-.1-.61,1.38,1.38,0,0,1,.19-.74,1.7,1.7,0,0,1,.52-.55,2.71,2.71,0,0,1,.73-.33,3.59,3.59,0,0,1,2.25.16v1a2.7,2.7,0,0,0-1.52-.43,1.83,1.83,0,0,0-.49.06,1.15,1.15,0,0,0-.37.17.76.76,0,0,0-.24.27.67.67,0,0,0-.09.34.82.82,0,0,0,.09.4.92.92,0,0,0,.25.28,2.36,2.36,0,0,0,.39.22l.54.22a6.85,6.85,0,0,1,.71.31,2.82,2.82,0,0,1,.54.36,1.41,1.41,0,0,1,.34.47,1.48,1.48,0,0,1,.12.63,1.49,1.49,0,0,1-.19.77,1.61,1.61,0,0,1-.53.54,2.32,2.32,0,0,1-.75.33,3.82,3.82,0,0,1-.9.1A3.34,3.34,0,0,1,182.44,12Z" fill="#1e1e1e"/>
      <path d="M193.69,12.34a2.79,2.79,0,0,1-2.13-.84,3.1,3.1,0,0,1-.79-2.23,3.24,3.24,0,0,1,.82-2.36,3,3,0,0,1,2.24-.85,2.69,2.69,0,0,1,2.09.83,3.27,3.27,0,0,1,.75,2.29,3.25,3.25,0,0,1-.81,2.3A2.85,2.85,0,0,1,193.69,12.34Zm.07-5.47a1.84,1.84,0,0,0-1.47.63,2.59,2.59,0,0,0-.54,1.74,2.41,2.41,0,0,0,.55,1.68,1.85,1.85,0,0,0,1.46.61,1.77,1.77,0,0,0,1.43-.6,2.63,2.63,0,0,0,.5-1.72,2.66,2.66,0,0,0-.5-1.73A1.74,1.74,0,0,0,193.76,6.87Z" fill="#1e1e1e"/>
      <path d="M203.14,12.2h-1V8.78c0-1.27-.46-1.91-1.39-1.91a1.5,1.5,0,0,0-1.19.54,2,2,0,0,0-.47,1.37V12.2h-1v-6h1v1h0a2.16,2.16,0,0,1,2-1.14,1.81,1.81,0,0,1,1.5.64,2.79,2.79,0,0,1,.53,1.83Z" fill="#1e1e1e"/>
      <path d="M205.84,12.2h-1V3.32h1Z" fill="#1e1e1e"/>
      <path d="M212.6,6.2l-2.76,7c-.5,1.24-1.19,1.87-2.08,1.87a2.12,2.12,0,0,1-.62-.08v-.86a1.7,1.7,0,0,0,.56.1,1.17,1.17,0,0,0,1.09-.86l.48-1.14-2.34-6H208l1.62,4.62c0,.06.06.21.12.46h0c0-.1.06-.25.11-.45L211.6,6.2Z" fill="#1e1e1e"/>
    </g>
  </g>
</svg>
