<?xml version="1.0" encoding="utf-8"?>
<!-- Generator: Adobe Illustrator 27.4.0, SVG Export Plug-In . SVG Version: 6.00 Build 0)  -->
<svg version="1.1" xmlns="http://www.w3.org/2000/svg" xmlns:xlink="http://www.w3.org/1999/xlink" x="0px" y="0px"
	 viewBox="0 0 742.356 154.079" enable-background="new 0 0 742.356 154.079" xml:space="preserve">
<symbol  id="PIPELINE" viewBox="-32 -12.266 64 24.531">
	<linearGradient id="SVGID_1_" gradientUnits="userSpaceOnUse" x1="0" y1="-12.2655" x2="1.502093e-15" y2="12.2655">
		<stop  offset="0" style="stop-color:#1B89B2"/>
		<stop  offset="1" style="stop-color:#51C8E8"/>
	</linearGradient>
	<path fill="url(#SVGID_1_)" d="M26.096,12.266h-51.448v0h0C-29.08,12.265-32,6.878-32,0s2.92-12.265,6.648-12.265h0v0h51.448
		C29.356-12.266,32-6.363,32,0S29.356,12.266,26.096,12.266z"/>
	<g>
		
			<linearGradient id="SVGID_00000026844554001253381980000007697310782738731427_" gradientUnits="userSpaceOnUse" x1="-31.461" y1="-6.1136" x2="-19.2338" y2="6.1136">
			<stop  offset="0" style="stop-color:#B3B4B4"/>
			<stop  offset="1" style="stop-color:#4F4F4F"/>
		</linearGradient>
		<ellipse fill="url(#SVGID_00000026844554001253381980000007697310782738731427_)" cx="-25.347" cy="0" rx="5.575" ry="10.879"/>
	</g>
</symbol>
<g id="Shapes">
	<rect fill="#FFFFFF" width="742.356" height="154.079"/>
	<g id="Wrench_tool_x28_s_x29_">
	</g>
	<g id="user2">
	</g>
	<g id="user2_1_">
	</g>
	<g id="user2_4_">
	</g>
	<g id="user2_3_">
	</g>
	<g id="user2_2_">
	</g>
	<g id="Internet_2">
	</g>
	<g id="Enterprise">
	</g>
	<g id="Tunnel__x28_stackable_x29_">
	</g>
	<g id="New_Symbol">
	</g>
	<g id="New_Symbol_1">
	</g>
	<g id="Files">
	</g>
	<g id="BlobBlock">
	</g>
	<g id="E_x5F_Enterprise">
	</g>
	<g id="E_x5F_AD_FS">
	</g>
	<g id="C_x5F_Azure_Active_Directory">
	</g>
	<g>
		
			<linearGradient id="SVGID_00000098906496604476487360000018062890052296940444_" gradientUnits="userSpaceOnUse" x1="-509.433" y1="-3384.5332" x2="-509.433" y2="-3346.5332" gradientTransform="matrix(1 0 0 -1 564 -3284)">
			<stop  offset="0" style="stop-color:#0078D4"/>
			<stop  offset="0.16" style="stop-color:#1380DA"/>
			<stop  offset="0.53" style="stop-color:#3C91E5"/>
			<stop  offset="0.82" style="stop-color:#559CEC"/>
			<stop  offset="1" style="stop-color:#5EA0EF"/>
		</linearGradient>
		<path fill="url(#SVGID_00000098906496604476487360000018062890052296940444_)" d="M48.867,89.133h11.4v11.4h-11.4V89.133z
			 M35.567,73.933h11.4v-11.4h-9.809c-0.879,0-1.591,0.712-1.591,1.591V73.933z M37.158,100.533h9.809v-11.4h-11.4v9.809
			C35.567,99.821,36.279,100.533,37.158,100.533L37.158,100.533z M35.567,87.233h11.4v-11.4h-11.4V87.233z M62.167,100.533h9.809
			c0.879,0,1.591-0.712,1.591-1.591l0,0v-9.809h-11.4V100.533z M48.867,87.233h11.4v-11.4h-11.4V87.233z M62.167,87.233h11.4v-11.4
			h-11.4V87.233z M62.167,62.533v11.4h11.4v-9.809c0-0.879-0.712-1.591-1.591-1.591l0,0H62.167z M48.867,73.933h11.4v-11.4h-11.4
			V73.933z"/>
	</g>
	<g>
		<g id="b30b0bd5-e4d2-456b-8d49-c2df20200912_00000153693045785618072860000013613941150681152680_">
			<path id="b51878b5-8d50-4b8b-bc48-74f5f7315a99_00000092457511818901870530000014287616936744343188_" fill="#33BEDD" d="
				M380.348,78.726v-1.982h-14.927l-7.001,6.968h-5.152l11.955-12.087h8.157v-1.882h-8.983l-13.937,13.97h-1.982v1.982h5.978
				l7.067,6.968h16.843v-1.982H362.25l-4.987-4.987h12.12v-1.982h-8.124l4.954-4.987H380.348z"/>
			
				<circle id="ad0ed4eb-cd5f-4cc0-bd19-2830d27ec806_00000170989978349224662900000015356232591706245765_" fill="#FFFFFF" cx="371.365" cy="84.703" r="2.873"/>
			
				<circle id="a2746b4a-0ae4-4308-876e-5b82657e1872_00000163756800292155674680000016941907953399637919_" fill="#FFFFFF" cx="374.37" cy="70.767" r="2.873"/>
			
				<circle id="fc3316e0-7094-4ce0-99ed-43f1e6e4350c_00000098940242238655969710000009507366618671594923_" fill="#FFFFFF" cx="381.339" cy="77.735" r="2.873"/>
			
				<circle id="b5d18443-d50e-4590-8e8f-80b6a7f6d348_00000042736188285557456900000014940343621109893043_" fill="#FFFFFF" cx="378.366" cy="91.672" r="2.873"/>
			<circle fill="#50E6FF" cx="374.271" cy="70.767" r="3.468"/>
			
				<linearGradient id="SVGID_00000146491278053667427120000017725221403502759561_" gradientUnits="userSpaceOnUse" x1="4835.9429" y1="8233.8184" x2="4835.9429" y2="8247.6553" gradientTransform="matrix(0.5 0 0 0.5 -2036.7318 -4062.8201)">
				<stop  offset="0" style="stop-color:#C69AEB"/>
				<stop  offset="1" style="stop-color:#6F4BB2"/>
			</linearGradient>
			<circle fill="url(#SVGID_00000146491278053667427120000017725221403502759561_)" cx="381.24" cy="77.735" r="3.468"/>
			
				<linearGradient id="SVGID_00000160885861202491988630000006114704441047901105_" gradientUnits="userSpaceOnUse" x1="4830.1963" y1="8261.7246" x2="4830.1963" y2="8275.5283" gradientTransform="matrix(0.5 0 0 0.5 -2036.7318 -4062.8201)">
				<stop  offset="0" style="stop-color:#C69AEB"/>
				<stop  offset="1" style="stop-color:#6F4BB2"/>
			</linearGradient>
			<circle fill="url(#SVGID_00000160885861202491988630000006114704441047901105_)" cx="378.366" cy="91.672" r="3.468"/>
			<circle fill="#50E6FF" cx="371.365" cy="84.703" r="3.468"/>
			<g>
				<path fill="#999999" d="M341.94,56.533h4.26l0,0v11.79c0,0.529-0.429,0.958-0.958,0.958h-4.227
					c-0.529,0-0.958-0.429-0.958-0.958l0,0v-9.908C340.057,57.376,340.9,56.533,341.94,56.533L341.94,56.533z"/>
				<path opacity="0.5" fill="#999999" enable-background="new    " d="M341.94,56.533h4.26l0,0v11.79
					c0,0.529-0.429,0.958-0.958,0.958h-4.227c-0.529,0-0.958-0.429-0.958-0.958l0,0v-9.908
					C340.057,57.376,340.9,56.533,341.94,56.533L341.94,56.533z"/>
			</g>
			<g>
				<path fill="#999999" d="M390.057,56.533h4.26c1.04,0,1.882,0.843,1.882,1.882v9.908c0,0.529-0.429,0.958-0.958,0.958l0,0h-4.26
					c-0.516-0.018-0.925-0.441-0.925-0.958V56.533L390.057,56.533z"/>
				<path opacity="0.5" fill="#999999" enable-background="new    " d="M390.057,56.533h4.26c1.04,0,1.882,0.843,1.882,1.882v9.908
					c0,0.529-0.429,0.958-0.958,0.958l0,0h-4.26c-0.516-0.018-0.925-0.441-0.925-0.958V56.533L390.057,56.533z"/>
			</g>
			<path fill="#949494" d="M396.2,58.416v4.128l0,0h-56.143l0,0v-4.128c0-1.04,0.843-1.882,1.882-1.882h52.411
				C395.377,56.551,396.2,57.389,396.2,58.416z"/>
			<g>
				<path fill="#999999" d="M341.015,93.686h4.26c0.529,0,0.958,0.429,0.958,0.958v11.889l0,0h-4.293
					c-1.04,0-1.882-0.843-1.882-1.882v-9.908c-0.055-0.526,0.327-0.997,0.854-1.052C340.945,93.688,340.98,93.686,341.015,93.686z"
					/>
				<path opacity="0.5" fill="#999999" enable-background="new    " d="M341.015,93.686h4.26c0.529,0,0.958,0.429,0.958,0.958
					v11.889l0,0h-4.293c-1.04,0-1.882-0.843-1.882-1.882v-9.908c-0.055-0.526,0.327-0.997,0.854-1.052
					C340.945,93.688,340.98,93.686,341.015,93.686z"/>
			</g>
			<g>
				<path fill="#999999" d="M390.982,93.686h4.26c0.529,0,0.958,0.429,0.958,0.958l0,0v9.908c0,1.04-0.843,1.882-1.882,1.882l0,0
					h-4.26l0,0V94.743c-0.055-0.526,0.327-0.997,0.853-1.052C390.934,93.689,390.958,93.687,390.982,93.686z"/>
				<path opacity="0.5" fill="#999999" enable-background="new    " d="M390.982,93.686h4.26c0.529,0,0.958,0.429,0.958,0.958l0,0
					v9.908c0,1.04-0.843,1.882-1.882,1.882l0,0h-4.26l0,0V94.743c-0.055-0.526,0.327-0.997,0.853-1.052
					C390.934,93.689,390.958,93.687,390.982,93.686z"/>
			</g>
			<path fill="#949494" d="M340.057,104.651v-4.128l0,0H396.2l0,0v4.128c0,1.04-0.843,1.882-1.882,1.882H341.94
				C340.9,106.533,340.057,105.69,340.057,104.651z"/>
		</g>
	</g>
	<g>
		<g>
			
				<line fill="none" stroke="#258378" stroke-width="1.5" stroke-miterlimit="10" x1="539.604" y1="33.247" x2="631.619" y2="33.247"/>
			<g>
				<polygon fill="#258378" points="620.092,39.449 619.426,37.615 631.429,33.247 619.426,28.878 620.092,27.046 637.129,33.247 
									"/>
			</g>
		</g>
	</g>
	<g>
		<path fill="none" stroke="#258378" stroke-width="1.5" stroke-miterlimit="10" d="M409.389,59.521l33.23-25.07
			c0.878-0.662,2.497-1.205,3.597-1.205h28.497"/>
	</g>
	<g>
		<g>
			
				<line fill="none" stroke="#258378" stroke-width="1.5" stroke-miterlimit="10" x1="539.604" y1="128.598" x2="631.619" y2="128.598"/>
			<g>
				<polygon fill="#258378" points="620.092,134.8 619.426,132.967 631.429,128.598 619.426,124.229 620.092,122.398 
					637.129,128.598 				"/>
			</g>
		</g>
	</g>
	<g>
		<path fill="none" stroke="#258378" stroke-width="1.5" stroke-miterlimit="10" d="M409.389,102.323l33.23,25.07
			c0.878,0.663,2.497,1.205,3.597,1.205h28.497"/>
	</g>
	<g>
		<g>
			
				<line fill="none" stroke="#258378" stroke-width="1.5" stroke-miterlimit="10" x1="541.608" y1="81.533" x2="631.619" y2="81.533"/>
			<g>
				<polygon fill="#258378" points="620.092,87.735 619.426,85.902 631.429,81.533 619.426,77.165 620.092,75.333 637.129,81.533 
									"/>
			</g>
		</g>
	</g>
	<g>
		
			<line fill="none" stroke="#258378" stroke-width="1.5" stroke-miterlimit="10" x1="409.389" y1="81.533" x2="474.712" y2="81.533"/>
	</g>
	<g>
		<path fill="#212121" d="M657.81,20.247c0.494,0,0.902,0.367,0.966,0.843l0.009,0.132l0.001,3.023
			c1.91,0.388,3.414,1.893,3.802,3.803l3.023,0c0.538,0,0.975,0.437,0.975,0.975c0,0.494-0.367,0.902-0.843,0.966l-0.132,0.009
			h-2.925v2.275h2.925c0.494,0,0.902,0.367,0.966,0.843l0.009,0.132c0,0.494-0.367,0.902-0.843,0.966l-0.132,0.009h-2.925v2.275
			h2.925c0.494,0,0.902,0.367,0.966,0.843l0.009,0.132c0,0.494-0.367,0.902-0.843,0.966l-0.132,0.009l-3.023,0.001
			c-0.388,1.909-1.892,3.413-3.802,3.801l-0.001,3.023c0,0.538-0.437,0.975-0.975,0.975c-0.494,0-0.902-0.367-0.966-0.843
			l-0.009-0.132v-2.926h-2.276l0.001,2.926c0,0.494-0.367,0.902-0.843,0.966l-0.132,0.009c-0.494,0-0.902-0.367-0.966-0.843
			l-0.009-0.132l-0.001-2.926h-2.274v2.926c0,0.494-0.367,0.902-0.843,0.966l-0.132,0.009c-0.494,0-0.902-0.367-0.966-0.843
			l-0.009-0.132l0.001-3.022c-1.91-0.388-3.415-1.892-3.803-3.803h-3.023c-0.538,0-0.975-0.437-0.975-0.975
			c0-0.494,0.367-0.902,0.843-0.966l0.132-0.009l2.925-0.001V34.22l-2.925,0.001c-0.494,0-0.901-0.367-0.966-0.843l-0.009-0.132
			c0-0.494,0.367-0.902,0.843-0.966l0.132-0.009l2.925-0.001v-2.275l-2.925,0.001c-0.494,0-0.901-0.367-0.966-0.843l-0.009-0.132
			c0-0.494,0.367-0.902,0.843-0.966l0.132-0.009l3.023-0.001c0.388-1.91,1.893-3.414,3.803-3.801l-0.001-3.022
			c0-0.538,0.437-0.975,0.975-0.975c0.494,0,0.901,0.367,0.966,0.843l0.009,0.132v2.924h2.274l0.001-2.924
			c0-0.494,0.367-0.902,0.843-0.966l0.132-0.009c0.494,0,0.902,0.367,0.966,0.843l0.009,0.132l-0.001,2.924h2.276v-2.924
			c0-0.449,0.303-0.827,0.716-0.94l0.127-0.026L657.81,20.247z M657.81,26.097h-8.45c-1.615,0-2.925,1.31-2.925,2.925v8.45
			c0,1.615,1.31,2.925,2.925,2.925h8.45c1.615,0,2.925-1.31,2.925-2.925v-8.45C660.735,27.406,659.426,26.097,657.81,26.097z
			 M653.591,29.353c2.154,0,3.9,1.746,3.9,3.9c0,2.154-1.746,3.9-3.9,3.9c-2.154,0-3.9-1.746-3.9-3.9
			C649.692,31.099,651.438,29.353,653.591,29.353z M653.591,31.303c-1.077,0-1.95,0.873-1.95,1.95c0,1.077,0.873,1.95,1.95,1.95
			c1.077,0,1.95-0.873,1.95-1.95C655.542,32.176,654.669,31.303,653.591,31.303z"/>
	</g>
	<g>
		<path fill="#212121" d="M657.81,68.533c0.494,0,0.902,0.367,0.966,0.843l0.009,0.132l0.001,3.023
			c1.91,0.388,3.414,1.893,3.802,3.803l3.023,0c0.538,0,0.975,0.437,0.975,0.975c0,0.494-0.367,0.902-0.843,0.966l-0.132,0.009
			h-2.925v2.275h2.925c0.494,0,0.902,0.367,0.966,0.843l0.009,0.132c0,0.494-0.367,0.902-0.843,0.966l-0.132,0.009h-2.925v2.275
			h2.925c0.494,0,0.902,0.367,0.966,0.843l0.009,0.132c0,0.494-0.367,0.902-0.843,0.966l-0.132,0.009l-3.023,0.001
			c-0.388,1.909-1.892,3.413-3.802,3.801l-0.001,3.023c0,0.538-0.437,0.975-0.975,0.975c-0.494,0-0.902-0.367-0.966-0.843
			l-0.009-0.132v-2.926h-2.276l0.001,2.926c0,0.494-0.367,0.902-0.843,0.966l-0.132,0.009c-0.494,0-0.902-0.367-0.966-0.843
			l-0.009-0.132l-0.001-2.926h-2.274v2.926c0,0.494-0.367,0.902-0.843,0.966l-0.132,0.009c-0.494,0-0.902-0.367-0.966-0.843
			l-0.009-0.132l0.001-3.022c-1.91-0.388-3.415-1.892-3.803-3.803h-3.023c-0.538,0-0.975-0.437-0.975-0.975
			c0-0.494,0.367-0.902,0.843-0.966l0.132-0.009l2.925-0.001v-2.275l-2.925,0.001c-0.494,0-0.901-0.367-0.966-0.843l-0.009-0.132
			c0-0.494,0.367-0.902,0.843-0.966l0.132-0.009l2.925-0.001v-2.275l-2.925,0.001c-0.494,0-0.901-0.367-0.966-0.843l-0.009-0.132
			c0-0.494,0.367-0.902,0.843-0.966l0.132-0.009l3.023-0.001c0.388-1.91,1.893-3.414,3.803-3.801l-0.001-3.022
			c0-0.538,0.437-0.975,0.975-0.975c0.494,0,0.901,0.367,0.966,0.843l0.009,0.132v2.924h2.274l0.001-2.924
			c0-0.494,0.367-0.902,0.843-0.966l0.132-0.009c0.494,0,0.902,0.367,0.966,0.843l0.009,0.132l-0.001,2.924h2.276v-2.924
			c0-0.449,0.303-0.827,0.716-0.94l0.127-0.026L657.81,68.533z M657.81,74.383h-8.45c-1.615,0-2.925,1.31-2.925,2.925v8.45
			c0,1.615,1.31,2.925,2.925,2.925h8.45c1.615,0,2.925-1.31,2.925-2.925v-8.45C660.735,75.693,659.426,74.383,657.81,74.383z
			 M653.591,77.639c2.154,0,3.9,1.746,3.9,3.9c0,2.154-1.746,3.9-3.9,3.9c-2.154,0-3.9-1.746-3.9-3.9
			C649.692,79.386,651.438,77.639,653.591,77.639z M653.591,79.589c-1.077,0-1.95,0.873-1.95,1.95c0,1.077,0.873,1.95,1.95,1.95
			c1.077,0,1.95-0.873,1.95-1.95C655.542,80.463,654.669,79.589,653.591,79.589z"/>
	</g>
	<g>
		<path fill="#212121" d="M657.81,115.735c0.494,0,0.902,0.367,0.966,0.843l0.009,0.132l0.001,3.023
			c1.91,0.388,3.414,1.893,3.802,3.803l3.023,0c0.538,0,0.975,0.437,0.975,0.975c0,0.494-0.367,0.902-0.843,0.966l-0.132,0.009
			h-2.925v2.275h2.925c0.494,0,0.902,0.367,0.966,0.843l0.009,0.132c0,0.494-0.367,0.902-0.843,0.966l-0.132,0.009h-2.925v2.275
			h2.925c0.494,0,0.902,0.367,0.966,0.843l0.009,0.132c0,0.494-0.367,0.902-0.843,0.966l-0.132,0.009l-3.023,0.001
			c-0.388,1.909-1.892,3.413-3.802,3.801l-0.001,3.023c0,0.538-0.437,0.975-0.975,0.975c-0.494,0-0.902-0.367-0.966-0.843
			l-0.009-0.132v-2.926h-2.276l0.001,2.926c0,0.494-0.367,0.902-0.843,0.966l-0.132,0.009c-0.494,0-0.902-0.367-0.966-0.843
			l-0.009-0.132l-0.001-2.926h-2.274v2.926c0,0.494-0.367,0.902-0.843,0.966l-0.132,0.009c-0.494,0-0.902-0.367-0.966-0.843
			l-0.009-0.132l0.001-3.022c-1.91-0.388-3.415-1.892-3.803-3.803h-3.023c-0.538,0-0.975-0.437-0.975-0.975
			c0-0.494,0.367-0.902,0.843-0.966l0.132-0.009l2.925-0.001v-2.275l-2.925,0.001c-0.494,0-0.901-0.367-0.966-0.843l-0.009-0.132
			c0-0.494,0.367-0.902,0.843-0.966l0.132-0.009l2.925-0.001v-2.275l-2.925,0.001c-0.494,0-0.901-0.367-0.966-0.843l-0.009-0.132
			c0-0.494,0.367-0.902,0.843-0.966l0.132-0.009l3.023-0.001c0.388-1.91,1.893-3.414,3.803-3.801l-0.001-3.022
			c0-0.538,0.437-0.975,0.975-0.975c0.494,0,0.901,0.367,0.966,0.843l0.009,0.132v2.924h2.274l0.001-2.924
			c0-0.494,0.367-0.902,0.843-0.966l0.132-0.009c0.494,0,0.902,0.367,0.966,0.843l0.009,0.132l-0.001,2.924h2.276v-2.924
			c0-0.449,0.303-0.827,0.716-0.94l0.127-0.026L657.81,115.735z M657.81,121.585h-8.45c-1.615,0-2.925,1.31-2.925,2.925v8.45
			c0,1.615,1.31,2.925,2.925,2.925h8.45c1.615,0,2.925-1.31,2.925-2.925v-8.45C660.735,122.895,659.426,121.585,657.81,121.585z
			 M653.591,124.842c2.154,0,3.9,1.746,3.9,3.9c0,2.154-1.746,3.9-3.9,3.9c-2.154,0-3.9-1.746-3.9-3.9
			C649.692,126.588,651.438,124.842,653.591,124.842z M653.591,126.792c-1.077,0-1.95,0.873-1.95,1.95c0,1.077,0.873,1.95,1.95,1.95
			c1.077,0,1.95-0.873,1.95-1.95C655.542,127.665,654.669,126.792,653.591,126.792z"/>
	</g>
	<g>
		<g>
			
				<line fill="none" stroke="#258378" stroke-width="1.5" stroke-miterlimit="10" x1="259.47" y1="81.533" x2="327.005" y2="81.533"/>
			<g>
				<polygon fill="#258378" points="315.478,87.735 314.812,85.902 326.814,81.533 314.812,77.165 315.478,75.333 332.515,81.533 
									"/>
			</g>
		</g>
	</g>
	<line fill="none" stroke="#258378" stroke-width="1.5" stroke-miterlimit="10" x1="115.307" y1="81.533" x2="78.603" y2="81.533"/>
</g>
<g id="Text">
	<g>
		<rect x="333.196" y="14.162" fill="none" width="69.861" height="38.301"/>
		<path fill="#2F2F2F" d="M358.561,26.063h-2.406l-0.697-2.181h-3.486l-0.69,2.181h-2.393l3.568-9.803h2.618L358.561,26.063z
			 M354.952,22.188l-1.053-3.295c-0.078-0.246-0.132-0.54-0.164-0.882h-0.055c-0.023,0.287-0.08,0.571-0.171,0.854l-1.066,3.322
			H354.952z"/>
		<path fill="#2F2F2F" d="M365.467,26.063h-6.282v-0.896l3.514-4.512h-3.165v-1.593h5.906v1.066l-3.329,4.341h3.356V26.063z"/>
		<path fill="#2F2F2F" d="M373.349,26.063h-2.153v-1.066h-0.034c-0.533,0.825-1.247,1.237-2.14,1.237
			c-1.623,0-2.434-0.982-2.434-2.946v-4.225h2.153v4.033c0,0.989,0.392,1.483,1.176,1.483c0.387,0,0.697-0.136,0.93-0.406
			c0.232-0.271,0.349-0.64,0.349-1.104v-4.006h2.153V26.063z"/>
		<path fill="#2F2F2F" d="M379.683,21.012c-0.26-0.141-0.563-0.212-0.909-0.212c-0.469,0-0.836,0.172-1.101,0.517
			c-0.264,0.344-0.396,0.812-0.396,1.404v3.343h-2.16v-7h2.16v1.299h0.027c0.342-0.948,0.957-1.422,1.846-1.422
			c0.228,0,0.406,0.027,0.533,0.082V21.012z"/>
		<path fill="#2F2F2F" d="M387.056,23.179h-4.566c0.073,1.017,0.713,1.524,1.921,1.524c0.77,0,1.447-0.182,2.03-0.547v1.559
			c-0.647,0.346-1.488,0.52-2.522,0.52c-1.13,0-2.007-0.313-2.632-0.939c-0.625-0.627-0.937-1.501-0.937-2.622
			c0-1.162,0.337-2.083,1.012-2.762s1.504-1.019,2.488-1.019c1.021,0,1.811,0.303,2.369,0.909s0.837,1.429,0.837,2.468V23.179z
			 M385.053,21.853c0-1.003-0.406-1.504-1.217-1.504c-0.346,0-0.646,0.144-0.899,0.431s-0.407,0.645-0.461,1.073H385.053z"/>
		<path fill="#2F2F2F" d="M341.001,42.863h-5.879v-9.803h5.653v1.798h-3.445v2.181h3.206v1.791h-3.206v2.242h3.671V42.863z"/>
		<path fill="#2F2F2F" d="M348.906,35.863l-2.604,7h-2.461l-2.481-7h2.311l1.217,4.313c0.137,0.487,0.216,0.902,0.239,1.244h0.027
			c0.032-0.323,0.116-0.725,0.253-1.203l1.244-4.354H348.906z"/>
		<path fill="#2F2F2F" d="M355.894,39.979h-4.566c0.073,1.016,0.713,1.524,1.921,1.524c0.77,0,1.447-0.183,2.03-0.547v1.559
			c-0.647,0.347-1.488,0.52-2.522,0.52c-1.13,0-2.007-0.313-2.632-0.94c-0.625-0.626-0.937-1.5-0.937-2.621
			c0-1.162,0.337-2.082,1.012-2.762s1.504-1.019,2.488-1.019c1.021,0,1.811,0.304,2.369,0.909s0.837,1.429,0.837,2.468V39.979z
			 M353.891,38.652c0-1.002-0.406-1.504-1.217-1.504c-0.346,0-0.646,0.144-0.899,0.431s-0.407,0.646-0.461,1.073H353.891z"/>
		<path fill="#2F2F2F" d="M364.019,42.863h-2.153v-3.89c0-1.085-0.387-1.627-1.162-1.627c-0.374,0-0.681,0.144-0.923,0.431
			s-0.362,0.652-0.362,1.094v3.992h-2.16v-7h2.16v1.107h0.027c0.515-0.852,1.265-1.278,2.249-1.278c1.549,0,2.324,0.962,2.324,2.885
			V42.863z"/>
		<path fill="#2F2F2F" d="M369.869,42.781c-0.319,0.168-0.8,0.253-1.442,0.253c-1.522,0-2.283-0.79-2.283-2.372v-3.206h-1.135
			v-1.593h1.135v-1.511l2.153-0.615v2.126h1.572v1.593h-1.572v2.83c0,0.729,0.29,1.094,0.868,1.094c0.228,0,0.462-0.065,0.704-0.198
			V42.781z"/>
		<path fill="#2F2F2F" d="M383.206,42.207c-0.957,0.551-2.146,0.827-3.568,0.827c-1.577,0-2.82-0.437-3.729-1.31
			c-0.909-0.872-1.364-2.074-1.364-3.605c0-1.541,0.497-2.796,1.49-3.767s2.315-1.456,3.965-1.456c1.039,0,1.955,0.144,2.748,0.431
			v2.071c-0.756-0.438-1.682-0.656-2.775-0.656c-0.916,0-1.662,0.297-2.239,0.893c-0.577,0.594-0.865,1.389-0.865,2.382
			c0,1.007,0.259,1.786,0.776,2.338s1.216,0.827,2.095,0.827c0.529,0,0.948-0.075,1.258-0.226v-1.914h-1.962v-1.764h4.17V42.207z"/>
		<path fill="#2F2F2F" d="M389.534,37.812c-0.26-0.142-0.563-0.212-0.909-0.212c-0.469,0-0.836,0.172-1.101,0.516
			c-0.264,0.345-0.396,0.812-0.396,1.405v3.343h-2.16v-7h2.16v1.299h0.027c0.342-0.947,0.957-1.422,1.846-1.422
			c0.228,0,0.406,0.027,0.533,0.082V37.812z"/>
		<path fill="#2F2F2F" d="M391.621,34.756c-0.365,0-0.663-0.108-0.896-0.324c-0.232-0.217-0.349-0.482-0.349-0.797
			c0-0.324,0.116-0.588,0.349-0.793s0.531-0.308,0.896-0.308c0.369,0,0.669,0.103,0.899,0.308s0.345,0.469,0.345,0.793
			c0,0.328-0.115,0.598-0.345,0.807S391.99,34.756,391.621,34.756z M392.687,42.863h-2.16v-7h2.16V42.863z"/>
		<path fill="#2F2F2F" d="M401.343,42.863h-2.16v-0.964h-0.027c-0.492,0.757-1.214,1.135-2.167,1.135
			c-0.875,0-1.579-0.309-2.112-0.927c-0.533-0.617-0.8-1.479-0.8-2.587c0-1.157,0.294-2.085,0.882-2.782s1.358-1.046,2.311-1.046
			c0.902,0,1.531,0.323,1.887,0.971h0.027V32.5h2.16V42.863z M399.223,39.459v-0.526c0-0.456-0.132-0.834-0.396-1.135
			s-0.608-0.451-1.032-0.451c-0.479,0-0.852,0.188-1.121,0.563c-0.269,0.377-0.403,0.893-0.403,1.549c0,0.615,0.13,1.09,0.39,1.422
			s0.62,0.499,1.08,0.499c0.438,0,0.794-0.175,1.07-0.526S399.223,40.037,399.223,39.459z"/>
	</g>
	<g>
		<rect x="6.564" y="21.306" fill="none" width="96.006" height="38.301"/>
		<path fill="#2F2F2F" d="M43.54,32.858c-0.715,0.346-1.65,0.52-2.803,0.52c-1.504,0-2.687-0.442-3.548-1.326
			c-0.861-0.885-1.292-2.062-1.292-3.534c0-1.568,0.484-2.84,1.453-3.814c0.968-0.976,2.225-1.463,3.77-1.463
			c0.957,0,1.764,0.12,2.42,0.362v2.126c-0.656-0.393-1.404-0.588-2.242-0.588c-0.92,0-1.664,0.289-2.229,0.868
			c-0.565,0.578-0.848,1.362-0.848,2.352c0,0.947,0.267,1.703,0.8,2.266c0.533,0.563,1.251,0.845,2.153,0.845
			c0.861,0,1.65-0.21,2.365-0.629V32.858z"/>
		<path fill="#2F2F2F" d="M47.151,33.207h-2.16V22.844h2.16V33.207z"/>
		<path fill="#2F2F2F" d="M52.294,33.378c-1.167,0-2.084-0.327-2.751-0.981c-0.667-0.653-1.001-1.541-1.001-2.662
			c0-1.158,0.346-2.063,1.039-2.718c0.693-0.653,1.629-0.98,2.81-0.98c1.162,0,2.074,0.327,2.734,0.98
			c0.661,0.654,0.991,1.519,0.991,2.595c0,1.162-0.341,2.08-1.022,2.755C54.412,33.04,53.479,33.378,52.294,33.378z M52.348,27.69
			c-0.51,0-0.907,0.175-1.189,0.526c-0.283,0.351-0.424,0.848-0.424,1.49c0,1.344,0.542,2.017,1.627,2.017
			c1.035,0,1.552-0.69,1.552-2.071C53.914,28.344,53.392,27.69,52.348,27.69z"/>
		<path fill="#2F2F2F" d="M64.148,33.207h-2.153v-1.066h-0.034c-0.533,0.824-1.247,1.237-2.14,1.237
			c-1.623,0-2.434-0.982-2.434-2.946v-4.225h2.153v4.033c0,0.988,0.392,1.483,1.176,1.483c0.387,0,0.697-0.136,0.93-0.407
			c0.232-0.271,0.349-0.639,0.349-1.104v-4.006h2.153V33.207z"/>
		<path fill="#2F2F2F" d="M72.833,33.207h-2.16v-0.964h-0.027c-0.492,0.756-1.214,1.135-2.167,1.135
			c-0.875,0-1.579-0.309-2.112-0.927c-0.533-0.617-0.8-1.479-0.8-2.587c0-1.158,0.294-2.085,0.882-2.782s1.358-1.046,2.311-1.046
			c0.902,0,1.531,0.323,1.887,0.971h0.027v-4.163h2.16V33.207z M70.714,29.803v-0.526c0-0.456-0.132-0.834-0.396-1.135
			s-0.608-0.451-1.032-0.451c-0.479,0-0.852,0.188-1.121,0.563s-0.403,0.893-0.403,1.549c0,0.615,0.13,1.089,0.39,1.422
			c0.26,0.332,0.62,0.499,1.08,0.499c0.438,0,0.794-0.176,1.07-0.526C70.576,30.846,70.714,30.381,70.714,29.803z"/>
		<path fill="#2F2F2F" d="M24.554,50.007H22.51v-1.005h-0.027c-0.469,0.783-1.165,1.176-2.085,1.176
			c-0.679,0-1.213-0.192-1.603-0.578c-0.39-0.385-0.584-0.898-0.584-1.541c0-1.358,0.804-2.143,2.413-2.352l1.9-0.253
			c0-0.766-0.415-1.148-1.244-1.148c-0.834,0-1.627,0.248-2.379,0.745v-1.627c0.301-0.155,0.712-0.292,1.234-0.41
			c0.522-0.119,0.997-0.178,1.425-0.178c1.996,0,2.994,0.995,2.994,2.987V50.007z M22.523,47.163v-0.472l-1.271,0.164
			c-0.702,0.091-1.053,0.407-1.053,0.95c0,0.246,0.085,0.447,0.256,0.604s0.402,0.236,0.694,0.236c0.406,0,0.736-0.141,0.991-0.421
			S22.523,47.591,22.523,47.163z"/>
		<path fill="#2F2F2F" d="M28.437,49.193H28.41v4.033h-2.16v-10.22h2.16v1.053h0.027c0.533-0.816,1.283-1.224,2.249-1.224
			c0.907,0,1.607,0.311,2.102,0.933s0.742,1.469,0.742,2.54c0,1.166-0.288,2.103-0.865,2.81c-0.577,0.706-1.343,1.06-2.3,1.06
			C29.522,50.178,28.879,49.85,28.437,49.193z M28.376,46.322v0.561c0,0.482,0.127,0.877,0.383,1.183
			c0.255,0.305,0.59,0.458,1.005,0.458c0.492,0,0.874-0.19,1.145-0.571c0.271-0.38,0.407-0.919,0.407-1.616
			c0-1.23-0.479-1.846-1.436-1.846c-0.442,0-0.803,0.167-1.083,0.502S28.376,45.771,28.376,46.322z"/>
		<path fill="#2F2F2F" d="M37.135,49.193h-0.027v4.033h-2.16v-10.22h2.16v1.053h0.027c0.533-0.816,1.283-1.224,2.249-1.224
			c0.907,0,1.607,0.311,2.102,0.933s0.742,1.469,0.742,2.54c0,1.166-0.288,2.103-0.865,2.81c-0.577,0.706-1.343,1.06-2.3,1.06
			C38.219,50.178,37.576,49.85,37.135,49.193z M37.073,46.322v0.561c0,0.482,0.127,0.877,0.383,1.183
			c0.255,0.305,0.59,0.458,1.005,0.458c0.492,0,0.874-0.19,1.145-0.571c0.271-0.38,0.407-0.919,0.407-1.616
			c0-1.23-0.479-1.846-1.436-1.846c-0.442,0-0.803,0.167-1.083,0.502S37.073,45.771,37.073,46.322z"/>
		<path fill="#2F2F2F" d="M45.817,50.007h-2.16V39.644h2.16V50.007z"/>
		<path fill="#2F2F2F" d="M48.685,41.899c-0.365,0-0.663-0.108-0.896-0.325c-0.232-0.216-0.349-0.481-0.349-0.796
			c0-0.324,0.116-0.588,0.349-0.793s0.531-0.308,0.896-0.308c0.369,0,0.669,0.103,0.899,0.308s0.345,0.469,0.345,0.793
			c0,0.328-0.115,0.597-0.345,0.807C49.354,41.794,49.055,41.899,48.685,41.899z M49.752,50.007h-2.16v-7h2.16V50.007z"/>
		<path fill="#2F2F2F" d="M56.831,49.754c-0.488,0.282-1.192,0.424-2.112,0.424c-1.076,0-1.946-0.326-2.611-0.978
			c-0.666-0.652-0.998-1.493-0.998-2.522c0-1.189,0.356-2.127,1.07-2.813c0.713-0.686,1.667-1.028,2.861-1.028
			c0.825,0,1.422,0.109,1.791,0.328v1.832c-0.451-0.338-0.955-0.506-1.511-0.506c-0.62,0-1.111,0.181-1.473,0.543
			s-0.543,0.862-0.543,1.501c0,0.619,0.173,1.106,0.52,1.459c0.346,0.354,0.823,0.53,1.429,0.53c0.538,0,1.064-0.169,1.579-0.506
			V49.754z"/>
		<path fill="#2F2F2F" d="M64.167,50.007h-2.044v-1.005h-0.027c-0.469,0.783-1.165,1.176-2.085,1.176
			c-0.679,0-1.213-0.192-1.603-0.578c-0.39-0.385-0.584-0.898-0.584-1.541c0-1.358,0.804-2.143,2.413-2.352l1.9-0.253
			c0-0.766-0.415-1.148-1.244-1.148c-0.834,0-1.627,0.248-2.379,0.745v-1.627c0.301-0.155,0.712-0.292,1.234-0.41
			c0.522-0.119,0.997-0.178,1.425-0.178c1.996,0,2.994,0.995,2.994,2.987V50.007z M62.137,47.163v-0.472l-1.271,0.164
			c-0.702,0.091-1.053,0.407-1.053,0.95c0,0.246,0.085,0.447,0.256,0.604s0.402,0.236,0.694,0.236c0.406,0,0.736-0.141,0.991-0.421
			S62.137,47.591,62.137,47.163z"/>
		<path fill="#2F2F2F" d="M69.996,49.925c-0.319,0.168-0.8,0.253-1.442,0.253c-1.522,0-2.283-0.791-2.283-2.372V44.6h-1.135v-1.593
			h1.135v-1.511l2.153-0.615v2.126h1.572V44.6h-1.572v2.83c0,0.729,0.29,1.094,0.868,1.094c0.228,0,0.462-0.066,0.704-0.198V49.925z
			"/>
		<path fill="#2F2F2F" d="M72.373,41.899c-0.365,0-0.663-0.108-0.896-0.325c-0.232-0.216-0.349-0.481-0.349-0.796
			c0-0.324,0.116-0.588,0.349-0.793s0.531-0.308,0.896-0.308c0.369,0,0.669,0.103,0.899,0.308s0.345,0.469,0.345,0.793
			c0,0.328-0.115,0.597-0.345,0.807C73.042,41.794,72.742,41.899,72.373,41.899z M73.44,50.007h-2.16v-7h2.16V50.007z"/>
		<path fill="#2F2F2F" d="M78.551,50.178c-1.167,0-2.084-0.327-2.751-0.981c-0.667-0.653-1.001-1.541-1.001-2.662
			c0-1.158,0.346-2.063,1.039-2.718c0.693-0.653,1.629-0.98,2.81-0.98c1.162,0,2.074,0.327,2.734,0.98
			c0.661,0.654,0.991,1.519,0.991,2.595c0,1.162-0.341,2.08-1.022,2.755C80.669,49.84,79.736,50.178,78.551,50.178z M78.606,44.49
			c-0.51,0-0.907,0.175-1.189,0.526c-0.283,0.351-0.424,0.848-0.424,1.49c0,1.344,0.542,2.017,1.627,2.017
			c1.035,0,1.552-0.69,1.552-2.071C80.171,45.144,79.649,44.49,78.606,44.49z"/>
		<path fill="#2F2F2F" d="M90.513,50.007H88.36v-3.89c0-1.085-0.387-1.627-1.162-1.627c-0.374,0-0.681,0.144-0.923,0.431
			s-0.362,0.651-0.362,1.094v3.992h-2.16v-7h2.16v1.107h0.027c0.515-0.853,1.265-1.278,2.249-1.278c1.549,0,2.324,0.961,2.324,2.885
			V50.007z"/>
	</g>
	<g>
		<path fill="#2F2F2F" d="M130.051,85.306h-1.121v-1.094h-0.027c-0.488,0.839-1.206,1.258-2.153,1.258
			c-0.697,0-1.243-0.185-1.637-0.554s-0.591-0.859-0.591-1.47c0-1.308,0.77-2.069,2.311-2.283l2.099-0.294
			c0-1.189-0.481-1.784-1.442-1.784c-0.843,0-1.604,0.287-2.283,0.861v-1.148c0.688-0.438,1.481-0.656,2.379-0.656
			c1.645,0,2.468,0.87,2.468,2.611V85.306z M128.93,81.765l-1.688,0.232c-0.52,0.073-0.912,0.201-1.176,0.387
			c-0.264,0.184-0.396,0.511-0.396,0.98c0,0.342,0.122,0.621,0.366,0.838c0.244,0.216,0.568,0.324,0.974,0.324
			c0.556,0,1.015-0.195,1.377-0.584c0.362-0.391,0.543-0.884,0.543-1.48V81.765z"/>
		<path fill="#2F2F2F" d="M133.192,85.306h-1.121V74.942h1.121V85.306z"/>
		<path fill="#2F2F2F" d="M141.03,82.086h-4.942c0.018,0.779,0.228,1.381,0.629,1.805s0.953,0.636,1.654,0.636
			c0.789,0,1.513-0.26,2.174-0.779V84.8c-0.615,0.446-1.429,0.67-2.44,0.67c-0.989,0-1.766-0.318-2.331-0.953
			c-0.565-0.637-0.848-1.53-0.848-2.684c0-1.089,0.309-1.977,0.926-2.662c0.618-0.687,1.384-1.029,2.3-1.029
			s1.625,0.296,2.126,0.889s0.752,1.415,0.752,2.468V82.086z M139.881,81.136c-0.004-0.647-0.161-1.15-0.468-1.511
			s-0.735-0.54-1.282-0.54c-0.529,0-0.978,0.189-1.347,0.567s-0.597,0.873-0.684,1.483H139.881z"/>
		<path fill="#2F2F2F" d="M146.363,79.44c-0.196-0.15-0.479-0.226-0.848-0.226c-0.479,0-0.878,0.226-1.2,0.677
			s-0.482,1.066-0.482,1.846v3.568h-1.121v-7h1.121v1.442h0.027c0.16-0.492,0.403-0.876,0.731-1.151
			c0.328-0.276,0.695-0.414,1.101-0.414c0.292,0,0.515,0.032,0.67,0.096V79.44z"/>
		<path fill="#2F2F2F" d="M151.282,85.237c-0.264,0.146-0.613,0.219-1.046,0.219c-1.226,0-1.839-0.684-1.839-2.051v-4.143h-1.203
			v-0.957h1.203v-1.709l1.121-0.362v2.071h1.764v0.957h-1.764v3.944c0,0.47,0.08,0.805,0.239,1.005s0.424,0.301,0.793,0.301
			c0.283,0,0.526-0.077,0.731-0.232V85.237z"/>
		<path fill="#2F2F2F" d="M152.457,85.053V83.85c0.611,0.451,1.283,0.677,2.017,0.677c0.984,0,1.477-0.328,1.477-0.984
			c0-0.187-0.042-0.346-0.126-0.475c-0.084-0.131-0.198-0.245-0.342-0.346s-0.312-0.19-0.506-0.27
			c-0.194-0.08-0.402-0.163-0.625-0.25c-0.31-0.123-0.582-0.247-0.817-0.373c-0.235-0.125-0.431-0.266-0.588-0.424
			c-0.157-0.156-0.276-0.336-0.355-0.536s-0.12-0.436-0.12-0.704c0-0.328,0.075-0.619,0.226-0.871
			c0.15-0.254,0.351-0.465,0.602-0.637c0.25-0.17,0.537-0.299,0.858-0.386s0.653-0.13,0.995-0.13c0.606,0,1.148,0.104,1.627,0.314
			v1.135c-0.515-0.337-1.107-0.506-1.777-0.506c-0.209,0-0.399,0.023-0.567,0.072c-0.168,0.047-0.313,0.114-0.434,0.201
			s-0.214,0.19-0.28,0.311c-0.066,0.121-0.099,0.255-0.099,0.4c0,0.183,0.033,0.335,0.099,0.458s0.163,0.232,0.291,0.328
			s0.283,0.183,0.465,0.26s0.39,0.162,0.622,0.253c0.31,0.118,0.588,0.24,0.834,0.365c0.246,0.126,0.456,0.268,0.629,0.424
			c0.173,0.158,0.307,0.339,0.4,0.544s0.14,0.449,0.14,0.731c0,0.347-0.076,0.647-0.229,0.902s-0.356,0.467-0.612,0.636
			s-0.549,0.294-0.882,0.376s-0.681,0.123-1.046,0.123C153.61,85.47,152.986,85.331,152.457,85.053z"/>
		<path fill="#2F2F2F" d="M167.079,75.503l-4.703,11.43h-1.046l4.689-11.43H167.079z"/>
		<path fill="#2F2F2F" d="M175.406,75.927c-0.219-0.123-0.467-0.185-0.745-0.185c-0.784,0-1.176,0.494-1.176,1.483v1.08h1.641v0.957
			h-1.641v6.043h-1.114v-6.043h-1.196v-0.957h1.196v-1.135c0-0.733,0.212-1.313,0.636-1.74c0.424-0.426,0.953-0.639,1.586-0.639
			c0.342,0,0.613,0.041,0.813,0.123V75.927z"/>
		<path fill="#2F2F2F" d="M181.3,85.306h-1.121v-1.094h-0.027c-0.488,0.839-1.206,1.258-2.153,1.258
			c-0.697,0-1.243-0.185-1.637-0.554s-0.591-0.859-0.591-1.47c0-1.308,0.77-2.069,2.311-2.283l2.099-0.294
			c0-1.189-0.481-1.784-1.442-1.784c-0.843,0-1.604,0.287-2.283,0.861v-1.148c0.688-0.438,1.481-0.656,2.379-0.656
			c1.645,0,2.468,0.87,2.468,2.611V85.306z M180.179,81.765l-1.688,0.232c-0.52,0.073-0.912,0.201-1.176,0.387
			c-0.264,0.184-0.396,0.511-0.396,0.98c0,0.342,0.122,0.621,0.366,0.838c0.244,0.216,0.568,0.324,0.974,0.324
			c0.556,0,1.015-0.195,1.377-0.584c0.362-0.391,0.543-0.884,0.543-1.48V81.765z"/>
		<path fill="#2F2F2F" d="M183.878,76.528c-0.201,0-0.372-0.068-0.513-0.205s-0.212-0.31-0.212-0.52s0.071-0.384,0.212-0.523
			c0.141-0.139,0.312-0.208,0.513-0.208c0.205,0,0.379,0.069,0.523,0.208c0.144,0.14,0.215,0.313,0.215,0.523
			c0,0.2-0.072,0.371-0.215,0.513S184.083,76.528,183.878,76.528z M184.425,85.306h-1.121v-7h1.121V85.306z"/>
		<path fill="#2F2F2F" d="M187.673,85.306h-1.121V74.942h1.121V85.306z"/>
		<path fill="#2F2F2F" d="M195.513,85.306h-1.121v-1.107h-0.027c-0.465,0.848-1.185,1.271-2.16,1.271
			c-1.668,0-2.502-0.993-2.502-2.98v-4.184h1.114v4.006c0,1.477,0.565,2.215,1.695,2.215c0.547,0,0.997-0.201,1.35-0.605
			c0.353-0.402,0.53-0.931,0.53-1.582v-4.033h1.121V85.306z"/>
		<path fill="#2F2F2F" d="M201.271,79.44c-0.196-0.15-0.479-0.226-0.848-0.226c-0.479,0-0.878,0.226-1.2,0.677
			s-0.482,1.066-0.482,1.846v3.568h-1.121v-7h1.121v1.442h0.027c0.16-0.492,0.403-0.876,0.731-1.151
			c0.328-0.276,0.695-0.414,1.101-0.414c0.292,0,0.515,0.032,0.67,0.096V79.44z"/>
		<path fill="#2F2F2F" d="M208.114,82.086h-4.942c0.018,0.779,0.228,1.381,0.629,1.805s0.953,0.636,1.654,0.636
			c0.789,0,1.513-0.26,2.174-0.779V84.8c-0.615,0.446-1.429,0.67-2.44,0.67c-0.989,0-1.766-0.318-2.331-0.953
			c-0.565-0.637-0.848-1.53-0.848-2.684c0-1.089,0.309-1.977,0.926-2.662c0.618-0.687,1.384-1.029,2.3-1.029
			s1.625,0.296,2.126,0.889s0.752,1.415,0.752,2.468V82.086z M206.965,81.136c-0.004-0.647-0.161-1.15-0.468-1.511
			s-0.735-0.54-1.282-0.54c-0.529,0-0.978,0.189-1.347,0.567s-0.597,0.873-0.684,1.483H206.965z"/>
		<path fill="#2F2F2F" d="M218.067,75.503l-4.703,11.43h-1.046l4.689-11.43H218.067z"/>
		<path fill="#2F2F2F" d="M227.945,85.306h-1.121v-1.094h-0.027c-0.488,0.839-1.206,1.258-2.153,1.258
			c-0.697,0-1.243-0.185-1.637-0.554s-0.591-0.859-0.591-1.47c0-1.308,0.77-2.069,2.311-2.283l2.099-0.294
			c0-1.189-0.481-1.784-1.442-1.784c-0.843,0-1.604,0.287-2.283,0.861v-1.148c0.688-0.438,1.481-0.656,2.379-0.656
			c1.645,0,2.468,0.87,2.468,2.611V85.306z M226.824,81.765l-1.688,0.232c-0.52,0.073-0.912,0.201-1.176,0.387
			c-0.264,0.184-0.396,0.511-0.396,0.98c0,0.342,0.122,0.621,0.366,0.838c0.244,0.216,0.568,0.324,0.974,0.324
			c0.556,0,1.015-0.195,1.377-0.584c0.362-0.391,0.543-0.884,0.543-1.48V81.765z"/>
		<path fill="#2F2F2F" d="M233.617,79.44c-0.196-0.15-0.479-0.226-0.848-0.226c-0.479,0-0.878,0.226-1.2,0.677
			s-0.482,1.066-0.482,1.846v3.568h-1.121v-7h1.121v1.442h0.027c0.16-0.492,0.403-0.876,0.731-1.151
			c0.328-0.276,0.695-0.414,1.101-0.414c0.292,0,0.515,0.032,0.67,0.096V79.44z"/>
		<path fill="#2F2F2F" d="M240.459,82.086h-4.942c0.018,0.779,0.228,1.381,0.629,1.805s0.953,0.636,1.654,0.636
			c0.789,0,1.513-0.26,2.174-0.779V84.8c-0.615,0.446-1.429,0.67-2.44,0.67c-0.989,0-1.766-0.318-2.331-0.953
			c-0.565-0.637-0.848-1.53-0.848-2.684c0-1.089,0.309-1.977,0.926-2.662c0.618-0.687,1.384-1.029,2.3-1.029
			s1.625,0.296,2.126,0.889s0.752,1.415,0.752,2.468V82.086z M239.311,81.136c-0.004-0.647-0.161-1.15-0.468-1.511
			s-0.735-0.54-1.282-0.54c-0.529,0-0.978,0.189-1.347,0.567s-0.597,0.873-0.684,1.483H239.311z"/>
		<path fill="#2F2F2F" d="M247.098,85.306h-1.121v-1.094h-0.027c-0.488,0.839-1.206,1.258-2.153,1.258
			c-0.697,0-1.243-0.185-1.637-0.554s-0.591-0.859-0.591-1.47c0-1.308,0.77-2.069,2.311-2.283l2.099-0.294
			c0-1.189-0.481-1.784-1.442-1.784c-0.843,0-1.604,0.287-2.283,0.861v-1.148c0.688-0.438,1.481-0.656,2.379-0.656
			c1.645,0,2.468,0.87,2.468,2.611V85.306z M245.977,81.765l-1.688,0.232c-0.52,0.073-0.912,0.201-1.176,0.387
			c-0.264,0.184-0.396,0.511-0.396,0.98c0,0.342,0.122,0.621,0.366,0.838c0.244,0.216,0.568,0.324,0.974,0.324
			c0.556,0,1.015-0.195,1.377-0.584c0.362-0.391,0.543-0.884,0.543-1.48V81.765z"/>
		<path fill="#2F2F2F" d="M251.794,85.306h-1.121v-8.47c-0.086,0.087-0.213,0.186-0.379,0.298c-0.167,0.111-0.353,0.222-0.561,0.331
			s-0.426,0.212-0.656,0.308s-0.455,0.171-0.673,0.226v-1.135c0.246-0.068,0.507-0.161,0.783-0.276
			c0.276-0.117,0.547-0.246,0.813-0.391c0.267-0.143,0.519-0.293,0.755-0.451c0.237-0.156,0.442-0.311,0.615-0.461h0.424V85.306z"/>
	</g>
	<g>
		<path fill="#2F2F2F" d="M486.736,37.152h-1.121v-1.094h-0.027c-0.488,0.839-1.206,1.258-2.153,1.258
			c-0.697,0-1.243-0.185-1.637-0.554s-0.591-0.859-0.591-1.47c0-1.308,0.77-2.069,2.311-2.283l2.099-0.294
			c0-1.189-0.481-1.784-1.442-1.784c-0.843,0-1.604,0.287-2.283,0.861v-1.148c0.688-0.438,1.481-0.656,2.379-0.656
			c1.645,0,2.468,0.87,2.468,2.611V37.152z M485.615,33.611l-1.688,0.232c-0.52,0.073-0.912,0.201-1.176,0.387
			c-0.264,0.184-0.396,0.511-0.396,0.98c0,0.342,0.122,0.621,0.366,0.838c0.244,0.216,0.568,0.324,0.974,0.324
			c0.556,0,1.015-0.195,1.377-0.584c0.362-0.391,0.543-0.884,0.543-1.48V33.611z"/>
		<path fill="#2F2F2F" d="M489.877,37.152h-1.121V26.789h1.121V37.152z"/>
		<path fill="#2F2F2F" d="M497.715,33.933h-4.942c0.018,0.779,0.228,1.381,0.629,1.805s0.953,0.636,1.654,0.636
			c0.789,0,1.513-0.26,2.174-0.779v1.053c-0.615,0.446-1.429,0.67-2.44,0.67c-0.989,0-1.766-0.318-2.331-0.953
			c-0.565-0.637-0.848-1.53-0.848-2.684c0-1.089,0.309-1.977,0.926-2.662c0.618-0.687,1.384-1.029,2.3-1.029
			s1.625,0.296,2.126,0.889s0.752,1.415,0.752,2.468V33.933z M496.566,32.982c-0.004-0.647-0.161-1.15-0.468-1.511
			s-0.735-0.54-1.282-0.54c-0.529,0-0.978,0.189-1.347,0.567s-0.597,0.873-0.684,1.483H496.566z"/>
		<path fill="#2F2F2F" d="M503.048,31.287c-0.196-0.15-0.479-0.226-0.848-0.226c-0.479,0-0.878,0.226-1.2,0.677
			s-0.482,1.066-0.482,1.846v3.568h-1.121v-7h1.121v1.442h0.027c0.16-0.492,0.403-0.876,0.731-1.151
			c0.328-0.276,0.695-0.414,1.101-0.414c0.292,0,0.515,0.032,0.67,0.096V31.287z"/>
		<path fill="#2F2F2F" d="M507.967,37.084c-0.264,0.146-0.613,0.219-1.046,0.219c-1.226,0-1.839-0.684-1.839-2.051v-4.143h-1.203
			v-0.957h1.203v-1.709l1.121-0.362v2.071h1.764v0.957h-1.764v3.944c0,0.47,0.08,0.805,0.239,1.005s0.424,0.301,0.793,0.301
			c0.283,0,0.526-0.077,0.731-0.232V37.084z"/>
		<path fill="#2F2F2F" d="M509.142,36.899v-1.203c0.611,0.451,1.283,0.677,2.017,0.677c0.984,0,1.477-0.328,1.477-0.984
			c0-0.187-0.042-0.346-0.126-0.475c-0.084-0.131-0.198-0.245-0.342-0.346s-0.312-0.19-0.506-0.27
			c-0.194-0.08-0.402-0.163-0.625-0.25c-0.31-0.123-0.582-0.247-0.817-0.373c-0.235-0.125-0.431-0.266-0.588-0.424
			c-0.157-0.156-0.276-0.336-0.355-0.536s-0.12-0.436-0.12-0.704c0-0.328,0.075-0.619,0.226-0.871
			c0.15-0.254,0.351-0.465,0.602-0.637c0.25-0.17,0.537-0.299,0.858-0.386s0.653-0.13,0.995-0.13c0.606,0,1.148,0.104,1.627,0.314
			v1.135c-0.515-0.337-1.107-0.506-1.777-0.506c-0.209,0-0.399,0.023-0.567,0.072c-0.168,0.047-0.313,0.114-0.434,0.201
			s-0.214,0.19-0.28,0.311c-0.066,0.121-0.099,0.255-0.099,0.4c0,0.183,0.033,0.335,0.099,0.458s0.163,0.232,0.291,0.328
			s0.283,0.183,0.465,0.26s0.39,0.162,0.622,0.253c0.31,0.118,0.588,0.24,0.834,0.365c0.246,0.126,0.456,0.268,0.629,0.424
			c0.173,0.158,0.307,0.339,0.4,0.544s0.14,0.449,0.14,0.731c0,0.347-0.076,0.647-0.229,0.902s-0.356,0.467-0.612,0.636
			s-0.549,0.294-0.882,0.376s-0.681,0.123-1.046,0.123C510.295,37.316,509.671,37.178,509.142,36.899z"/>
		<path fill="#2F2F2F" d="M523.764,27.35l-4.703,11.43h-1.046l4.689-11.43H523.764z"/>
		<path fill="#2F2F2F" d="M535.468,30.098l-0.157,0.725h-1.784l-0.431,2.051h1.921l-0.185,0.725h-1.88l-0.602,2.714h-0.861
			l0.588-2.714h-1.709l-0.574,2.714h-0.854l0.574-2.714h-1.791l0.137-0.725h1.812l0.417-2.051h-1.894l0.144-0.725h1.894l0.574-2.748
			h0.861l-0.574,2.748h1.723l0.588-2.748h0.841l-0.574,2.748H535.468z M532.679,30.822h-1.723l-0.451,2.051h1.736L532.679,30.822z"
			/>
	</g>
	<g>
		<path fill="#2F2F2F" d="M486.736,82.947h-1.121v-1.094h-0.027c-0.488,0.839-1.206,1.258-2.153,1.258
			c-0.697,0-1.243-0.185-1.637-0.554s-0.591-0.859-0.591-1.47c0-1.308,0.77-2.069,2.311-2.283l2.099-0.294
			c0-1.189-0.481-1.784-1.442-1.784c-0.843,0-1.604,0.287-2.283,0.861v-1.148c0.688-0.438,1.481-0.656,2.379-0.656
			c1.645,0,2.468,0.87,2.468,2.611V82.947z M485.615,79.406l-1.688,0.232c-0.52,0.073-0.912,0.201-1.176,0.387
			c-0.264,0.184-0.396,0.511-0.396,0.98c0,0.342,0.122,0.621,0.366,0.838c0.244,0.216,0.568,0.324,0.974,0.324
			c0.556,0,1.015-0.195,1.377-0.584c0.362-0.391,0.543-0.884,0.543-1.48V79.406z"/>
		<path fill="#2F2F2F" d="M489.877,82.947h-1.121V72.584h1.121V82.947z"/>
		<path fill="#2F2F2F" d="M497.715,79.728h-4.942c0.018,0.779,0.228,1.381,0.629,1.805s0.953,0.636,1.654,0.636
			c0.789,0,1.513-0.26,2.174-0.779v1.053c-0.615,0.446-1.429,0.67-2.44,0.67c-0.989,0-1.766-0.318-2.331-0.953
			c-0.565-0.637-0.848-1.53-0.848-2.684c0-1.089,0.309-1.977,0.926-2.662c0.618-0.687,1.384-1.029,2.3-1.029
			s1.625,0.296,2.126,0.889s0.752,1.415,0.752,2.468V79.728z M496.566,78.777c-0.004-0.647-0.161-1.15-0.468-1.511
			s-0.735-0.54-1.282-0.54c-0.529,0-0.978,0.189-1.347,0.567s-0.597,0.873-0.684,1.483H496.566z"/>
		<path fill="#2F2F2F" d="M503.048,77.082c-0.196-0.15-0.479-0.226-0.848-0.226c-0.479,0-0.878,0.226-1.2,0.677
			s-0.482,1.066-0.482,1.846v3.568h-1.121v-7h1.121v1.442h0.027c0.16-0.492,0.403-0.876,0.731-1.151
			c0.328-0.276,0.695-0.414,1.101-0.414c0.292,0,0.515,0.032,0.67,0.096V77.082z"/>
		<path fill="#2F2F2F" d="M507.967,82.879c-0.264,0.146-0.613,0.219-1.046,0.219c-1.226,0-1.839-0.684-1.839-2.051v-4.143h-1.203
			v-0.957h1.203v-1.709l1.121-0.362v2.071h1.764v0.957h-1.764v3.944c0,0.47,0.08,0.805,0.239,1.005s0.424,0.301,0.793,0.301
			c0.283,0,0.526-0.077,0.731-0.232V82.879z"/>
		<path fill="#2F2F2F" d="M509.142,82.694v-1.203c0.611,0.451,1.283,0.677,2.017,0.677c0.984,0,1.477-0.328,1.477-0.984
			c0-0.187-0.042-0.346-0.126-0.475c-0.084-0.131-0.198-0.245-0.342-0.346s-0.312-0.19-0.506-0.27
			c-0.194-0.08-0.402-0.163-0.625-0.25c-0.31-0.123-0.582-0.247-0.817-0.373c-0.235-0.125-0.431-0.266-0.588-0.424
			c-0.157-0.156-0.276-0.336-0.355-0.536s-0.12-0.436-0.12-0.704c0-0.328,0.075-0.619,0.226-0.871
			c0.15-0.254,0.351-0.465,0.602-0.637c0.25-0.17,0.537-0.299,0.858-0.386s0.653-0.13,0.995-0.13c0.606,0,1.148,0.104,1.627,0.314
			v1.135c-0.515-0.337-1.107-0.506-1.777-0.506c-0.209,0-0.399,0.023-0.567,0.072c-0.168,0.047-0.313,0.114-0.434,0.201
			s-0.214,0.19-0.28,0.311c-0.066,0.121-0.099,0.255-0.099,0.4c0,0.183,0.033,0.335,0.099,0.458s0.163,0.232,0.291,0.328
			s0.283,0.183,0.465,0.26s0.39,0.162,0.622,0.253c0.31,0.118,0.588,0.24,0.834,0.365c0.246,0.126,0.456,0.268,0.629,0.424
			c0.173,0.158,0.307,0.339,0.4,0.544s0.14,0.449,0.14,0.731c0,0.347-0.076,0.647-0.229,0.902s-0.356,0.467-0.612,0.636
			s-0.549,0.294-0.882,0.376s-0.681,0.123-1.046,0.123C510.295,83.111,509.671,82.973,509.142,82.694z"/>
		<path fill="#2F2F2F" d="M523.764,73.145l-4.703,11.43h-1.046l4.689-11.43H523.764z"/>
		<path fill="#2F2F2F" d="M535.468,75.893l-0.157,0.725h-1.784l-0.431,2.051h1.921l-0.185,0.725h-1.88l-0.602,2.714h-0.861
			l0.588-2.714h-1.709l-0.574,2.714h-0.854l0.574-2.714h-1.791l0.137-0.725h1.812l0.417-2.051h-1.894l0.144-0.725h1.894l0.574-2.748
			h0.861l-0.574,2.748h1.723l0.588-2.748h0.841l-0.574,2.748H535.468z M532.679,76.617h-1.723l-0.451,2.051h1.736L532.679,76.617z"
			/>
	</g>
	<g>
		<path fill="#2F2F2F" d="M486.736,130.692h-1.121v-1.094h-0.027c-0.488,0.839-1.206,1.258-2.153,1.258
			c-0.697,0-1.243-0.185-1.637-0.554s-0.591-0.859-0.591-1.47c0-1.308,0.77-2.069,2.311-2.283l2.099-0.294
			c0-1.189-0.481-1.784-1.442-1.784c-0.843,0-1.604,0.287-2.283,0.861v-1.148c0.688-0.438,1.481-0.656,2.379-0.656
			c1.645,0,2.468,0.87,2.468,2.611V130.692z M485.615,127.151l-1.688,0.232c-0.52,0.073-0.912,0.201-1.176,0.387
			c-0.264,0.184-0.396,0.511-0.396,0.98c0,0.342,0.122,0.621,0.366,0.838c0.244,0.216,0.568,0.324,0.974,0.324
			c0.556,0,1.015-0.195,1.377-0.584c0.362-0.391,0.543-0.884,0.543-1.48V127.151z"/>
		<path fill="#2F2F2F" d="M489.877,130.692h-1.121v-10.363h1.121V130.692z"/>
		<path fill="#2F2F2F" d="M497.715,127.473h-4.942c0.018,0.779,0.228,1.381,0.629,1.805s0.953,0.636,1.654,0.636
			c0.789,0,1.513-0.26,2.174-0.779v1.053c-0.615,0.446-1.429,0.67-2.44,0.67c-0.989,0-1.766-0.318-2.331-0.953
			c-0.565-0.637-0.848-1.53-0.848-2.684c0-1.089,0.309-1.977,0.926-2.662c0.618-0.687,1.384-1.029,2.3-1.029
			s1.625,0.296,2.126,0.889s0.752,1.415,0.752,2.468V127.473z M496.566,126.522c-0.004-0.647-0.161-1.15-0.468-1.511
			s-0.735-0.54-1.282-0.54c-0.529,0-0.978,0.189-1.347,0.567s-0.597,0.873-0.684,1.483H496.566z"/>
		<path fill="#2F2F2F" d="M503.048,124.827c-0.196-0.15-0.479-0.226-0.848-0.226c-0.479,0-0.878,0.226-1.2,0.677
			s-0.482,1.066-0.482,1.846v3.568h-1.121v-7h1.121v1.442h0.027c0.16-0.492,0.403-0.876,0.731-1.151
			c0.328-0.276,0.695-0.414,1.101-0.414c0.292,0,0.515,0.032,0.67,0.096V124.827z"/>
		<path fill="#2F2F2F" d="M507.967,130.624c-0.264,0.146-0.613,0.219-1.046,0.219c-1.226,0-1.839-0.684-1.839-2.051v-4.143h-1.203
			v-0.957h1.203v-1.709l1.121-0.362v2.071h1.764v0.957h-1.764v3.944c0,0.47,0.08,0.805,0.239,1.005s0.424,0.301,0.793,0.301
			c0.283,0,0.526-0.077,0.731-0.232V130.624z"/>
		<path fill="#2F2F2F" d="M509.142,130.439v-1.203c0.611,0.451,1.283,0.677,2.017,0.677c0.984,0,1.477-0.328,1.477-0.984
			c0-0.187-0.042-0.346-0.126-0.475c-0.084-0.131-0.198-0.245-0.342-0.346s-0.312-0.19-0.506-0.27
			c-0.194-0.08-0.402-0.163-0.625-0.25c-0.31-0.123-0.582-0.247-0.817-0.373c-0.235-0.125-0.431-0.266-0.588-0.424
			c-0.157-0.156-0.276-0.336-0.355-0.536s-0.12-0.436-0.12-0.704c0-0.328,0.075-0.619,0.226-0.871
			c0.15-0.254,0.351-0.465,0.602-0.637c0.25-0.17,0.537-0.299,0.858-0.386s0.653-0.13,0.995-0.13c0.606,0,1.148,0.104,1.627,0.314
			v1.135c-0.515-0.337-1.107-0.506-1.777-0.506c-0.209,0-0.399,0.023-0.567,0.072c-0.168,0.047-0.313,0.114-0.434,0.201
			s-0.214,0.19-0.28,0.311c-0.066,0.121-0.099,0.255-0.099,0.4c0,0.183,0.033,0.335,0.099,0.458s0.163,0.232,0.291,0.328
			s0.283,0.183,0.465,0.26s0.39,0.162,0.622,0.253c0.31,0.118,0.588,0.24,0.834,0.365c0.246,0.126,0.456,0.268,0.629,0.424
			c0.173,0.158,0.307,0.339,0.4,0.544s0.14,0.449,0.14,0.731c0,0.347-0.076,0.647-0.229,0.902s-0.356,0.467-0.612,0.636
			s-0.549,0.294-0.882,0.376s-0.681,0.123-1.046,0.123C510.295,130.856,509.671,130.718,509.142,130.439z"/>
		<path fill="#2F2F2F" d="M523.764,120.89l-4.703,11.43h-1.046l4.689-11.43H523.764z"/>
		<path fill="#2F2F2F" d="M535.468,123.638l-0.157,0.725h-1.784l-0.431,2.051h1.921l-0.185,0.725h-1.88l-0.602,2.714h-0.861
			l0.588-2.714h-1.709l-0.574,2.714h-0.854l0.574-2.714h-1.791l0.137-0.725h1.812l0.417-2.051h-1.894l0.144-0.725h1.894l0.574-2.748
			h0.861l-0.574,2.748h1.723l0.588-2.748h0.841l-0.574,2.748H535.468z M532.679,124.362h-1.723l-0.451,2.051h1.736L532.679,124.362z
			"/>
	</g>
	<g>
		<path fill="#258378" d="M284.362,100.5h-0.979v-5.637c0-0.445,0.027-0.99,0.082-1.635h-0.023c-0.094,0.379-0.178,0.65-0.252,0.814
			l-2.871,6.457h-0.48l-2.865-6.41c-0.082-0.188-0.166-0.475-0.252-0.861h-0.023c0.031,0.336,0.047,0.885,0.047,1.646v5.625h-0.949
			v-8.402h1.301l2.578,5.859c0.199,0.449,0.328,0.785,0.387,1.008h0.035c0.168-0.461,0.303-0.805,0.404-1.031l2.631-5.836h1.23
			V100.5z"/>
		<path fill="#258378" d="M289.896,100.641c-1.188,0-2.143-0.393-2.865-1.178c-0.715-0.785-1.072-1.807-1.072-3.064
			c0-1.355,0.365-2.434,1.096-3.234c0.734-0.805,1.729-1.207,2.982-1.207c1.156,0,2.09,0.391,2.801,1.172s1.066,1.803,1.066,3.064
			c0,1.371-0.363,2.455-1.09,3.252c-0.172,0.191-0.355,0.355-0.551,0.492l2.361,1.693h-1.787l-1.582-1.184
			C290.842,100.576,290.388,100.641,289.896,100.641z M289.967,92.848c-0.883,0-1.6,0.318-2.15,0.955s-0.826,1.473-0.826,2.508
			c0,1.031,0.268,1.865,0.803,2.502c0.539,0.629,1.24,0.943,2.104,0.943c0.922,0,1.648-0.301,2.18-0.902s0.797-1.443,0.797-2.525
			c0-1.113-0.258-1.971-0.773-2.572C291.584,93.15,290.873,92.848,289.967,92.848z"/>
		<path fill="#258378" d="M300.165,92.988h-2.426v7.512h-0.984v-7.512h-2.42v-0.891h5.83V92.988z"/>
		<path fill="#258378" d="M306.764,92.988h-2.426v7.512h-0.984v-7.512h-2.42v-0.891h5.83V92.988z"/>
	</g>
	<g>
		<path fill="#2F2F2F" d="M676.348,37.152V27.35h2.707c3.455,0,5.182,1.593,5.182,4.778c0,1.513-0.479,2.729-1.439,3.647
			c-0.959,0.918-2.243,1.377-3.852,1.377H676.348z M677.496,28.389v7.725h1.463c1.285,0,2.286-0.344,3.001-1.032
			s1.073-1.663,1.073-2.926c0-2.511-1.335-3.767-4.006-3.767H677.496z"/>
		<path fill="#2F2F2F" d="M691.614,33.933h-4.942c0.018,0.779,0.228,1.381,0.629,1.805s0.953,0.636,1.654,0.636
			c0.789,0,1.513-0.26,2.174-0.779v1.053c-0.615,0.446-1.429,0.67-2.44,0.67c-0.989,0-1.766-0.318-2.331-0.953
			c-0.565-0.637-0.848-1.53-0.848-2.684c0-1.089,0.309-1.977,0.926-2.662c0.618-0.687,1.384-1.029,2.3-1.029
			s1.625,0.296,2.126,0.889s0.752,1.415,0.752,2.468V33.933z M690.465,32.982c-0.004-0.647-0.161-1.15-0.468-1.511
			s-0.735-0.54-1.282-0.54c-0.529,0-0.978,0.189-1.347,0.567s-0.597,0.873-0.684,1.483H690.465z"/>
		<path fill="#2F2F2F" d="M698.751,30.152l-2.789,7h-1.101l-2.652-7h1.23l1.777,5.086c0.132,0.374,0.214,0.699,0.246,0.978h0.027
			c0.045-0.351,0.119-0.668,0.219-0.95l1.859-5.113H698.751z"/>
		<path fill="#2F2F2F" d="M700.567,28.375c-0.201,0-0.372-0.068-0.513-0.205s-0.212-0.31-0.212-0.52s0.071-0.384,0.212-0.523
			c0.141-0.139,0.312-0.208,0.513-0.208c0.205,0,0.379,0.069,0.523,0.208c0.144,0.14,0.215,0.313,0.215,0.523
			c0,0.2-0.072,0.371-0.215,0.513S700.772,28.375,700.567,28.375z M701.114,37.152h-1.121v-7h1.121V37.152z"/>
		<path fill="#2F2F2F" d="M708.026,36.831c-0.538,0.323-1.176,0.485-1.914,0.485c-0.998,0-1.804-0.324-2.417-0.975
			c-0.613-0.648-0.919-1.491-0.919-2.525c0-1.153,0.331-2.079,0.991-2.779c0.661-0.699,1.542-1.049,2.646-1.049
			c0.615,0,1.158,0.114,1.627,0.342v1.148c-0.52-0.364-1.076-0.547-1.668-0.547c-0.715,0-1.302,0.256-1.76,0.77
			c-0.458,0.512-0.687,1.186-0.687,2.02c0,0.82,0.215,1.468,0.646,1.941s1.008,0.711,1.733,0.711c0.611,0,1.185-0.203,1.723-0.608
			V36.831z"/>
		<path fill="#2F2F2F" d="M715.196,33.933h-4.942c0.018,0.779,0.228,1.381,0.629,1.805s0.953,0.636,1.654,0.636
			c0.789,0,1.513-0.26,2.174-0.779v1.053c-0.615,0.446-1.429,0.67-2.44,0.67c-0.989,0-1.766-0.318-2.331-0.953
			c-0.565-0.637-0.848-1.53-0.848-2.684c0-1.089,0.309-1.977,0.926-2.662c0.618-0.687,1.384-1.029,2.3-1.029
			s1.625,0.296,2.126,0.889s0.752,1.415,0.752,2.468V33.933z M714.047,32.982c-0.004-0.647-0.161-1.15-0.468-1.511
			s-0.735-0.54-1.282-0.54c-0.529,0-0.978,0.189-1.347,0.567s-0.597,0.873-0.684,1.483H714.047z"/>
	</g>
	<g>
		<path fill="#2F2F2F" d="M676.348,85.246v-9.803h2.707c3.455,0,5.182,1.593,5.182,4.778c0,1.513-0.479,2.729-1.439,3.647
			c-0.959,0.918-2.243,1.377-3.852,1.377H676.348z M677.496,76.482v7.725h1.463c1.285,0,2.286-0.344,3.001-1.032
			s1.073-1.663,1.073-2.926c0-2.511-1.335-3.767-4.006-3.767H677.496z"/>
		<path fill="#2F2F2F" d="M691.614,82.026h-4.942c0.018,0.779,0.228,1.381,0.629,1.805s0.953,0.636,1.654,0.636
			c0.789,0,1.513-0.26,2.174-0.779v1.053c-0.615,0.446-1.429,0.67-2.44,0.67c-0.989,0-1.766-0.318-2.331-0.953
			c-0.565-0.637-0.848-1.53-0.848-2.684c0-1.089,0.309-1.977,0.926-2.662c0.618-0.687,1.384-1.029,2.3-1.029
			s1.625,0.296,2.126,0.889s0.752,1.415,0.752,2.468V82.026z M690.465,81.076c-0.004-0.647-0.161-1.15-0.468-1.511
			s-0.735-0.54-1.282-0.54c-0.529,0-0.978,0.189-1.347,0.567s-0.597,0.873-0.684,1.483H690.465z"/>
		<path fill="#2F2F2F" d="M698.751,78.246l-2.789,7h-1.101l-2.652-7h1.23l1.777,5.086c0.132,0.374,0.214,0.699,0.246,0.978h0.027
			c0.045-0.351,0.119-0.668,0.219-0.95l1.859-5.113H698.751z"/>
		<path fill="#2F2F2F" d="M700.567,76.469c-0.201,0-0.372-0.068-0.513-0.205s-0.212-0.31-0.212-0.52s0.071-0.384,0.212-0.523
			c0.141-0.139,0.312-0.208,0.513-0.208c0.205,0,0.379,0.069,0.523,0.208c0.144,0.14,0.215,0.313,0.215,0.523
			c0,0.2-0.072,0.371-0.215,0.513S700.772,76.469,700.567,76.469z M701.114,85.246h-1.121v-7h1.121V85.246z"/>
		<path fill="#2F2F2F" d="M708.026,84.925c-0.538,0.323-1.176,0.485-1.914,0.485c-0.998,0-1.804-0.324-2.417-0.975
			c-0.613-0.648-0.919-1.491-0.919-2.525c0-1.153,0.331-2.079,0.991-2.779c0.661-0.699,1.542-1.049,2.646-1.049
			c0.615,0,1.158,0.114,1.627,0.342v1.148c-0.52-0.364-1.076-0.547-1.668-0.547c-0.715,0-1.302,0.256-1.76,0.77
			c-0.458,0.512-0.687,1.186-0.687,2.02c0,0.82,0.215,1.468,0.646,1.941s1.008,0.711,1.733,0.711c0.611,0,1.185-0.203,1.723-0.608
			V84.925z"/>
		<path fill="#2F2F2F" d="M715.196,82.026h-4.942c0.018,0.779,0.228,1.381,0.629,1.805s0.953,0.636,1.654,0.636
			c0.789,0,1.513-0.26,2.174-0.779v1.053c-0.615,0.446-1.429,0.67-2.44,0.67c-0.989,0-1.766-0.318-2.331-0.953
			c-0.565-0.637-0.848-1.53-0.848-2.684c0-1.089,0.309-1.977,0.926-2.662c0.618-0.687,1.384-1.029,2.3-1.029
			s1.625,0.296,2.126,0.889s0.752,1.415,0.752,2.468V82.026z M714.047,81.076c-0.004-0.647-0.161-1.15-0.468-1.511
			s-0.735-0.54-1.282-0.54c-0.529,0-0.978,0.189-1.347,0.567s-0.597,0.873-0.684,1.483H714.047z"/>
	</g>
	<g>
		<path fill="#2F2F2F" d="M676.348,131.908v-9.803h2.707c3.455,0,5.182,1.593,5.182,4.778c0,1.513-0.479,2.729-1.439,3.647
			c-0.959,0.918-2.243,1.377-3.852,1.377H676.348z M677.496,123.145v7.725h1.463c1.285,0,2.286-0.344,3.001-1.032
			s1.073-1.663,1.073-2.926c0-2.511-1.335-3.767-4.006-3.767H677.496z"/>
		<path fill="#2F2F2F" d="M691.614,128.688h-4.942c0.018,0.779,0.228,1.381,0.629,1.805s0.953,0.636,1.654,0.636
			c0.789,0,1.513-0.26,2.174-0.779v1.053c-0.615,0.446-1.429,0.67-2.44,0.67c-0.989,0-1.766-0.318-2.331-0.953
			c-0.565-0.637-0.848-1.53-0.848-2.684c0-1.089,0.309-1.977,0.926-2.662c0.618-0.687,1.384-1.029,2.3-1.029
			s1.625,0.296,2.126,0.889s0.752,1.415,0.752,2.468V128.688z M690.465,127.738c-0.004-0.647-0.161-1.15-0.468-1.511
			s-0.735-0.54-1.282-0.54c-0.529,0-0.978,0.189-1.347,0.567s-0.597,0.873-0.684,1.483H690.465z"/>
		<path fill="#2F2F2F" d="M698.751,124.908l-2.789,7h-1.101l-2.652-7h1.23l1.777,5.086c0.132,0.374,0.214,0.699,0.246,0.978h0.027
			c0.045-0.351,0.119-0.668,0.219-0.95l1.859-5.113H698.751z"/>
		<path fill="#2F2F2F" d="M700.567,123.131c-0.201,0-0.372-0.068-0.513-0.205s-0.212-0.31-0.212-0.52s0.071-0.384,0.212-0.523
			c0.141-0.139,0.312-0.208,0.513-0.208c0.205,0,0.379,0.069,0.523,0.208c0.144,0.14,0.215,0.313,0.215,0.523
			c0,0.2-0.072,0.371-0.215,0.513S700.772,123.131,700.567,123.131z M701.114,131.908h-1.121v-7h1.121V131.908z"/>
		<path fill="#2F2F2F" d="M708.026,131.587c-0.538,0.323-1.176,0.485-1.914,0.485c-0.998,0-1.804-0.324-2.417-0.975
			c-0.613-0.648-0.919-1.491-0.919-2.525c0-1.153,0.331-2.079,0.991-2.779c0.661-0.699,1.542-1.049,2.646-1.049
			c0.615,0,1.158,0.114,1.627,0.342v1.148c-0.52-0.364-1.076-0.547-1.668-0.547c-0.715,0-1.302,0.256-1.76,0.77
			c-0.458,0.512-0.687,1.186-0.687,2.02c0,0.82,0.215,1.468,0.646,1.941s1.008,0.711,1.733,0.711c0.611,0,1.185-0.203,1.723-0.608
			V131.587z"/>
		<path fill="#2F2F2F" d="M715.196,128.688h-4.942c0.018,0.779,0.228,1.381,0.629,1.805s0.953,0.636,1.654,0.636
			c0.789,0,1.513-0.26,2.174-0.779v1.053c-0.615,0.446-1.429,0.67-2.44,0.67c-0.989,0-1.766-0.318-2.331-0.953
			c-0.565-0.637-0.848-1.53-0.848-2.684c0-1.089,0.309-1.977,0.926-2.662c0.618-0.687,1.384-1.029,2.3-1.029
			s1.625,0.296,2.126,0.889s0.752,1.415,0.752,2.468V128.688z M714.047,127.738c-0.004-0.647-0.161-1.15-0.468-1.511
			s-0.735-0.54-1.282-0.54c-0.529,0-0.978,0.189-1.347,0.567s-0.597,0.873-0.684,1.483H714.047z"/>
	</g>
	<g>
		<path fill="#258378" d="M589.567,49.889h-0.979v-5.637c0-0.445,0.027-0.99,0.082-1.635h-0.023
			c-0.094,0.379-0.178,0.65-0.252,0.814l-2.871,6.457h-0.48l-2.865-6.41c-0.082-0.188-0.166-0.475-0.252-0.861h-0.023
			c0.031,0.336,0.047,0.885,0.047,1.646v5.625H581v-8.402h1.301l2.578,5.859c0.199,0.449,0.328,0.785,0.387,1.008h0.035
			c0.168-0.461,0.303-0.805,0.404-1.031l2.631-5.836h1.23V49.889z"/>
		<path fill="#258378" d="M595.101,50.029c-1.188,0-2.143-0.393-2.865-1.178c-0.715-0.785-1.072-1.807-1.072-3.064
			c0-1.355,0.365-2.434,1.096-3.234c0.734-0.805,1.729-1.207,2.982-1.207c1.156,0,2.09,0.391,2.801,1.172s1.066,1.803,1.066,3.064
			c0,1.371-0.363,2.455-1.09,3.252c-0.172,0.191-0.355,0.355-0.551,0.492l2.361,1.693h-1.787l-1.582-1.184
			C596.047,49.965,595.594,50.029,595.101,50.029z M595.172,42.236c-0.883,0-1.6,0.318-2.15,0.955s-0.826,1.473-0.826,2.508
			c0,1.031,0.268,1.865,0.803,2.502c0.539,0.629,1.24,0.943,2.104,0.943c0.922,0,1.648-0.301,2.18-0.902s0.797-1.443,0.797-2.525
			c0-1.113-0.258-1.971-0.773-2.572C596.789,42.539,596.078,42.236,595.172,42.236z"/>
		<path fill="#258378" d="M605.37,42.377h-2.426v7.512h-0.984v-7.512h-2.42v-0.891h5.83V42.377z"/>
		<path fill="#258378" d="M611.969,42.377h-2.426v7.512h-0.984v-7.512h-2.42v-0.891h5.83V42.377z"/>
	</g>
	<g>
		<path fill="#258378" d="M589.567,97.4h-0.979v-5.637c0-0.445,0.027-0.99,0.082-1.635h-0.023c-0.094,0.379-0.178,0.65-0.252,0.814
			l-2.871,6.457h-0.48l-2.865-6.41c-0.082-0.188-0.166-0.475-0.252-0.861h-0.023c0.031,0.336,0.047,0.885,0.047,1.646V97.4H581
			v-8.402h1.301l2.578,5.859c0.199,0.449,0.328,0.785,0.387,1.008h0.035c0.168-0.461,0.303-0.805,0.404-1.031l2.631-5.836h1.23V97.4
			z"/>
		<path fill="#258378" d="M595.101,97.541c-1.188,0-2.143-0.393-2.865-1.178c-0.715-0.785-1.072-1.807-1.072-3.064
			c0-1.355,0.365-2.434,1.096-3.234c0.734-0.805,1.729-1.207,2.982-1.207c1.156,0,2.09,0.391,2.801,1.172s1.066,1.803,1.066,3.064
			c0,1.371-0.363,2.455-1.09,3.252c-0.172,0.191-0.355,0.355-0.551,0.492l2.361,1.693h-1.787l-1.582-1.184
			C596.047,97.477,595.594,97.541,595.101,97.541z M595.172,89.748c-0.883,0-1.6,0.318-2.15,0.955s-0.826,1.473-0.826,2.508
			c0,1.031,0.268,1.865,0.803,2.502c0.539,0.629,1.24,0.943,2.104,0.943c0.922,0,1.648-0.301,2.18-0.902s0.797-1.443,0.797-2.525
			c0-1.113-0.258-1.971-0.773-2.572C596.789,90.051,596.078,89.748,595.172,89.748z"/>
		<path fill="#258378" d="M605.37,89.889h-2.426V97.4h-0.984v-7.512h-2.42v-0.891h5.83V89.889z"/>
		<path fill="#258378" d="M611.969,89.889h-2.426V97.4h-0.984v-7.512h-2.42v-0.891h5.83V89.889z"/>
	</g>
	<g>
		<path fill="#258378" d="M589.567,144.215h-0.979v-5.637c0-0.445,0.027-0.99,0.082-1.635h-0.023
			c-0.094,0.379-0.178,0.65-0.252,0.814l-2.871,6.457h-0.48l-2.865-6.41c-0.082-0.188-0.166-0.475-0.252-0.861h-0.023
			c0.031,0.336,0.047,0.885,0.047,1.646v5.625H581v-8.402h1.301l2.578,5.859c0.199,0.449,0.328,0.785,0.387,1.008h0.035
			c0.168-0.461,0.303-0.805,0.404-1.031l2.631-5.836h1.23V144.215z"/>
		<path fill="#258378" d="M595.101,144.355c-1.188,0-2.143-0.393-2.865-1.178c-0.715-0.785-1.072-1.807-1.072-3.064
			c0-1.355,0.365-2.434,1.096-3.234c0.734-0.805,1.729-1.207,2.982-1.207c1.156,0,2.09,0.391,2.801,1.172s1.066,1.803,1.066,3.064
			c0,1.371-0.363,2.455-1.09,3.252c-0.172,0.191-0.355,0.355-0.551,0.492l2.361,1.693h-1.787l-1.582-1.184
			C596.047,144.291,595.594,144.355,595.101,144.355z M595.172,136.562c-0.883,0-1.6,0.318-2.15,0.955s-0.826,1.473-0.826,2.508
			c0,1.031,0.268,1.865,0.803,2.502c0.539,0.629,1.24,0.943,2.104,0.943c0.922,0,1.648-0.301,2.18-0.902s0.797-1.443,0.797-2.525
			c0-1.113-0.258-1.971-0.773-2.572C596.789,136.865,596.078,136.562,595.172,136.562z"/>
		<path fill="#258378" d="M605.37,136.703h-2.426v7.512h-0.984v-7.512h-2.42v-0.891h5.83V136.703z"/>
		<path fill="#258378" d="M611.969,136.703h-2.426v7.512h-0.984v-7.512h-2.42v-0.891h5.83V136.703z"/>
	</g>
</g>
<g id="Layer_1">
</g>
<g id="_x3C_Layer_x3E_">
</g>
</svg>
