<?xml version="1.0" encoding="utf-8"?>
<!-- Generator: Adobe Illustrator 27.4.0, SVG Export Plug-In . SVG Version: 6.00 Build 0)  -->
<svg version="1.1" xmlns="http://www.w3.org/2000/svg" xmlns:xlink="http://www.w3.org/1999/xlink" x="0px" y="0px"
	 viewBox="0 0 883.533 131.282" enable-background="new 0 0 883.533 131.282" xml:space="preserve">
<symbol  id="PIPELINE" viewBox="-32 -12.266 64 24.531">
	<linearGradient id="SVGID_1_" gradientUnits="userSpaceOnUse" x1="0" y1="-12.2655" x2="1.502093e-15" y2="12.2655">
		<stop  offset="0" style="stop-color:#1B89B2"/>
		<stop  offset="1" style="stop-color:#51C8E8"/>
	</linearGradient>
	<path fill="url(#SVGID_1_)" d="M26.096,12.266h-51.448v0h0C-29.08,12.265-32,6.878-32,0s2.92-12.265,6.648-12.265h0v0h51.448
		C29.356-12.266,32-6.363,32,0S29.356,12.266,26.096,12.266z"/>
	<g>
		
			<linearGradient id="SVGID_00000162350677206760589160000007924324463214656677_" gradientUnits="userSpaceOnUse" x1="-31.461" y1="-6.1136" x2="-19.2338" y2="6.1136">
			<stop  offset="0" style="stop-color:#B3B4B4"/>
			<stop  offset="1" style="stop-color:#4F4F4F"/>
		</linearGradient>
		<ellipse fill="url(#SVGID_00000162350677206760589160000007924324463214656677_)" cx="-25.347" cy="0" rx="5.575" ry="10.879"/>
	</g>
</symbol>
<g id="Shapes">
	<rect fill="#FFFFFF" width="883.533" height="131.282"/>
	<g id="Wrench_tool_x28_s_x29_">
	</g>
	<g id="user2">
	</g>
	<g id="user2_1_">
	</g>
	<g id="user2_4_">
	</g>
	<g id="user2_3_">
	</g>
	<g id="user2_2_">
	</g>
	<g id="Internet_2">
	</g>
	<g id="Enterprise">
	</g>
	<g id="Tunnel__x28_stackable_x29_">
	</g>
	<g id="New_Symbol">
	</g>
	<g id="New_Symbol_1">
	</g>
	<g id="Files">
	</g>
	<g id="BlobBlock">
	</g>
	<g id="E_x5F_Enterprise">
	</g>
	<g id="E_x5F_AD_FS">
	</g>
	<g id="C_x5F_Azure_Active_Directory">
	</g>
	<g>
		
			<linearGradient id="SVGID_00000049919122170966792730000007793506713841760958_" gradientUnits="userSpaceOnUse" x1="-508.8028" y1="-2790.7751" x2="-508.8028" y2="-2752.7751" gradientTransform="matrix(1 0 0 -1 564 -2689.8362)">
			<stop  offset="0" style="stop-color:#0078D4"/>
			<stop  offset="0.16" style="stop-color:#1380DA"/>
			<stop  offset="0.53" style="stop-color:#3C91E5"/>
			<stop  offset="0.82" style="stop-color:#559CEC"/>
			<stop  offset="1" style="stop-color:#5EA0EF"/>
		</linearGradient>
		<path fill="url(#SVGID_00000049919122170966792730000007793506713841760958_)" d="M49.497,89.539h11.4v11.4h-11.4V89.539z
			 M36.197,74.339h11.4v-11.4h-9.809c-0.879,0-1.591,0.712-1.591,1.591V74.339z M37.788,100.939h9.809v-11.4h-11.4v9.809
			C36.197,100.226,36.91,100.939,37.788,100.939L37.788,100.939z M36.197,87.639h11.4v-11.4h-11.4V87.639z M62.797,100.939h9.809
			c0.879,0,1.591-0.712,1.591-1.591l0,0v-9.809h-11.4V100.939z M49.497,87.639h11.4v-11.4h-11.4V87.639z M62.797,87.639h11.4v-11.4
			h-11.4V87.639z M62.797,62.939v11.4h11.4V64.53c0-0.879-0.712-1.591-1.591-1.591l0,0H62.797z M49.497,74.339h11.4v-11.4h-11.4
			V74.339z"/>
	</g>
	<g>
		<g id="b30b0bd5-e4d2-456b-8d49-c2df20200912_00000044886243653511776890000012358715227345666953_">
			<path id="b51878b5-8d50-4b8b-bc48-74f5f7315a99_00000124152254284413907960000014702468424986838454_" fill="#33BEDD" d="
				M466.259,79.132V77.15h-14.927l-7.001,6.968h-5.152l11.955-12.087h8.157v-1.882h-8.983l-13.937,13.97h-1.982V86.1h5.978
				l7.067,6.968h16.843v-1.982h-16.116l-4.987-4.987h12.12v-1.982h-8.124l4.954-4.987H466.259z"/>
			
				<circle id="ad0ed4eb-cd5f-4cc0-bd19-2830d27ec806_00000164481677690079570260000006649672717596929675_" fill="#FFFFFF" cx="457.277" cy="85.109" r="2.873"/>
			
				<circle id="a2746b4a-0ae4-4308-876e-5b82657e1872_00000104703750932118981080000004796674299218763648_" fill="#FFFFFF" cx="460.282" cy="71.173" r="2.873"/>
			
				<circle id="fc3316e0-7094-4ce0-99ed-43f1e6e4350c_00000181056255319818144610000012065549865978846393_" fill="#FFFFFF" cx="467.25" cy="78.141" r="2.873"/>
			
				<circle id="b5d18443-d50e-4590-8e8f-80b6a7f6d348_00000111876839822312402140000011822571737129099906_" fill="#FFFFFF" cx="464.278" cy="92.077" r="2.873"/>
			<circle fill="#50E6FF" cx="460.183" cy="71.173" r="3.468"/>
			
				<linearGradient id="SVGID_00000170280736443654777860000017401777152805570482_" gradientUnits="userSpaceOnUse" x1="5000.4224" y1="7937.5479" x2="5000.4224" y2="7951.3848" gradientTransform="matrix(0.5 0 0 0.5 -2033.0601 -3914.2791)">
				<stop  offset="0" style="stop-color:#C69AEB"/>
				<stop  offset="1" style="stop-color:#6F4BB2"/>
			</linearGradient>
			<circle fill="url(#SVGID_00000170280736443654777860000017401777152805570482_)" cx="467.151" cy="78.141" r="3.468"/>
			
				<linearGradient id="SVGID_00000085209652210699439440000002319312239438389684_" gradientUnits="userSpaceOnUse" x1="4994.6758" y1="7965.4546" x2="4994.6758" y2="7979.2578" gradientTransform="matrix(0.5 0 0 0.5 -2033.0601 -3914.2791)">
				<stop  offset="0" style="stop-color:#C69AEB"/>
				<stop  offset="1" style="stop-color:#6F4BB2"/>
			</linearGradient>
			<circle fill="url(#SVGID_00000085209652210699439440000002319312239438389684_)" cx="464.278" cy="92.077" r="3.468"/>
			<circle fill="#50E6FF" cx="457.277" cy="85.109" r="3.468"/>
			<g>
				<path fill="#999999" d="M427.851,56.939h4.26l0,0v11.79c0,0.529-0.429,0.958-0.958,0.958h-4.227
					c-0.529,0-0.958-0.429-0.958-0.958l0,0v-9.908C425.969,57.782,426.812,56.939,427.851,56.939L427.851,56.939z"/>
				<path opacity="0.5" fill="#999999" enable-background="new    " d="M427.851,56.939h4.26l0,0v11.79
					c0,0.529-0.429,0.958-0.958,0.958h-4.227c-0.529,0-0.958-0.429-0.958-0.958l0,0v-9.908
					C425.969,57.782,426.812,56.939,427.851,56.939L427.851,56.939z"/>
			</g>
			<g>
				<path fill="#999999" d="M475.969,56.939h4.26c1.04,0,1.882,0.843,1.882,1.882v9.908c0,0.529-0.429,0.958-0.958,0.958l0,0h-4.26
					c-0.516-0.018-0.925-0.441-0.925-0.958V56.939L475.969,56.939z"/>
				<path opacity="0.5" fill="#999999" enable-background="new    " d="M475.969,56.939h4.26c1.04,0,1.882,0.843,1.882,1.882v9.908
					c0,0.529-0.429,0.958-0.958,0.958l0,0h-4.26c-0.516-0.018-0.925-0.441-0.925-0.958V56.939L475.969,56.939z"/>
			</g>
			<path fill="#949494" d="M482.111,58.821v4.128l0,0h-56.143l0,0v-4.128c0-1.04,0.843-1.882,1.882-1.882h52.411
				C481.289,56.957,482.112,57.794,482.111,58.821z"/>
			<g>
				<path fill="#999999" d="M426.927,94.092h4.26c0.529,0,0.958,0.429,0.958,0.958v11.889l0,0h-4.293
					c-1.04,0-1.882-0.843-1.882-1.882v-9.908c-0.055-0.526,0.327-0.997,0.854-1.052C426.857,94.094,426.892,94.092,426.927,94.092z"
					/>
				<path opacity="0.5" fill="#999999" enable-background="new    " d="M426.927,94.092h4.26c0.529,0,0.958,0.429,0.958,0.958
					v11.889l0,0h-4.293c-1.04,0-1.882-0.843-1.882-1.882v-9.908c-0.055-0.526,0.327-0.997,0.854-1.052
					C426.857,94.094,426.892,94.092,426.927,94.092z"/>
			</g>
			<g>
				<path fill="#999999" d="M476.894,94.092h4.26c0.529,0,0.958,0.429,0.958,0.958v0v9.908c0,1.04-0.843,1.882-1.882,1.882l0,0
					h-4.26l0,0V95.149c-0.055-0.526,0.327-0.997,0.853-1.052C476.846,94.094,476.87,94.093,476.894,94.092z"/>
				<path opacity="0.5" fill="#999999" enable-background="new    " d="M476.894,94.092h4.26c0.529,0,0.958,0.429,0.958,0.958v0
					v9.908c0,1.04-0.843,1.882-1.882,1.882l0,0h-4.26l0,0V95.149c-0.055-0.526,0.327-0.997,0.853-1.052
					C476.846,94.094,476.87,94.093,476.894,94.092z"/>
			</g>
			<path fill="#949494" d="M425.969,105.056v-4.128l0,0h56.143l0,0v4.128c0,1.04-0.843,1.882-1.882,1.882h-52.378
				C426.812,106.939,425.969,106.096,425.969,105.056z"/>
		</g>
	</g>
	<g>
		<g>
			
				<line fill="none" stroke="#258378" stroke-width="1.5" stroke-miterlimit="10" x1="743.7" y1="68.193" x2="818.727" y2="68.193"/>
			<g>
				<polygon fill="#258378" points="807.2,74.395 806.534,72.562 818.536,68.193 806.534,63.825 807.2,61.993 824.237,68.193 				
					"/>
			</g>
		</g>
	</g>
	<g>
		<g>
			<circle fill="#505150" cx="566.59" cy="67.413" r="10"/>
			<g>
				<path fill="#FFFFFF" d="M569.525,71.841h-6.152v-0.759c0-0.31,0.043-0.601,0.13-0.871c0.086-0.271,0.203-0.526,0.349-0.766
					s0.317-0.465,0.513-0.677s0.406-0.417,0.629-0.615s0.451-0.39,0.684-0.574s0.46-0.37,0.684-0.558
					c0.209-0.178,0.401-0.352,0.574-0.522s0.321-0.348,0.444-0.53c0.123-0.182,0.219-0.375,0.287-0.577
					c0.068-0.203,0.103-0.423,0.103-0.66c0-0.26-0.04-0.486-0.12-0.68c-0.08-0.194-0.191-0.355-0.335-0.485
					s-0.313-0.229-0.509-0.294c-0.196-0.066-0.41-0.1-0.643-0.1c-0.401,0-0.809,0.094-1.224,0.28
					c-0.415,0.188-0.813,0.468-1.196,0.841v-1.524c0.201-0.15,0.403-0.281,0.608-0.393c0.205-0.112,0.417-0.205,0.636-0.28
					s0.449-0.131,0.69-0.168c0.242-0.036,0.499-0.055,0.772-0.055c0.442,0,0.843,0.059,1.203,0.175s0.667,0.287,0.923,0.513
					s0.452,0.507,0.591,0.844c0.139,0.338,0.208,0.725,0.208,1.162c0,0.396-0.049,0.753-0.147,1.07
					c-0.098,0.316-0.237,0.611-0.417,0.885s-0.397,0.533-0.653,0.779s-0.54,0.499-0.854,0.759c-0.264,0.215-0.527,0.423-0.79,0.626
					c-0.262,0.202-0.498,0.4-0.708,0.595c-0.209,0.193-0.379,0.387-0.509,0.581c-0.13,0.193-0.195,0.389-0.195,0.584v0.034h4.423
					V71.841z"/>
			</g>
		</g>
	</g>
	<g>
		<g>
			<circle fill="#505150" cx="566.59" cy="99.139" r="10"/>
			<g>
				<path fill="#FFFFFF" d="M563.543,103.205v-1.49c0.638,0.506,1.358,0.759,2.16,0.759c0.652,0,1.172-0.148,1.562-0.444
					c0.39-0.297,0.584-0.697,0.584-1.203c0-1.112-0.85-1.668-2.55-1.668h-0.759v-1.271h0.725c1.508,0,2.263-0.524,2.263-1.572
					c0-0.967-0.588-1.449-1.764-1.449c-0.656,0-1.274,0.234-1.853,0.704v-1.408c0.666-0.374,1.452-0.561,2.358-0.561
					c0.871,0,1.568,0.219,2.092,0.656s0.786,0.998,0.786,1.682c0,1.289-0.656,2.119-1.969,2.488v0.027
					c0.707,0.068,1.265,0.315,1.675,0.741c0.41,0.427,0.615,0.958,0.615,1.597c0,0.879-0.331,1.589-0.991,2.129
					s-1.531,0.811-2.611,0.811C564.897,103.731,564.122,103.555,563.543,103.205z"/>
			</g>
		</g>
	</g>
	<g>
		<g>
			<circle fill="#505150" cx="161.071" cy="67.412" r="10"/>
			<g>
				<path fill="#FFFFFF" d="M162.458,61.819v10.021h-1.586v-8.08c-0.287,0.205-0.596,0.379-0.926,0.522s-0.708,0.271-1.131,0.38
					v-1.354c0.264-0.087,0.52-0.178,0.766-0.273s0.489-0.203,0.728-0.321c0.239-0.119,0.481-0.251,0.725-0.396
					c0.244-0.146,0.496-0.312,0.755-0.499H162.458z"/>
			</g>
		</g>
	</g>
	<g>
		<g>
			<circle fill="#505150" cx="161.071" cy="99.139" r="10"/>
			<g>
				<path fill="#FFFFFF" d="M163.367,93.764v6.33h1.456v1.319h-1.456v2.153h-1.538v-2.153h-4.437v-1.333
					c0.401-0.451,0.812-0.94,1.234-1.466c0.421-0.527,0.827-1.064,1.217-1.613c0.39-0.55,0.751-1.1,1.083-1.651
					s0.613-1.08,0.841-1.586H163.367z M161.829,100.095v-4.115c-0.497,0.894-0.988,1.673-1.473,2.338s-0.94,1.258-1.364,1.777
					H161.829z"/>
			</g>
		</g>
	</g>
	<g>
		<path fill="#212121" d="M853.344,64.939c0.646,0,1.179,0.48,1.263,1.102l0.012,0.173l0.001,3.953
			c2.498,0.507,4.465,2.475,4.972,4.973l3.953,0c0.704,0,1.275,0.571,1.275,1.275c0,0.645-0.48,1.179-1.102,1.263l-0.173,0.012
			h-3.825v2.975h3.825c0.645,0,1.179,0.48,1.263,1.102l0.012,0.173c0,0.645-0.48,1.179-1.102,1.263l-0.173,0.012h-3.825v2.975h3.825
			c0.645,0,1.179,0.48,1.263,1.102l0.012,0.173c0,0.645-0.48,1.179-1.102,1.263l-0.173,0.012l-3.953,0.001
			c-0.507,2.497-2.474,4.464-4.971,4.971l-0.001,3.953c0,0.704-0.571,1.275-1.275,1.275c-0.646,0-1.179-0.48-1.263-1.102
			l-0.012-0.173v-3.827h-2.977l0.002,3.827c0,0.645-0.48,1.179-1.102,1.263l-0.173,0.012c-0.645,0-1.179-0.48-1.263-1.102
			l-0.012-0.173l-0.002-3.827h-2.973v3.827c0,0.645-0.48,1.179-1.102,1.263l-0.173,0.012c-0.646,0-1.179-0.48-1.263-1.102
			l-0.012-0.173l0.001-3.952c-2.498-0.507-4.466-2.475-4.973-4.973h-3.953c-0.704,0-1.275-0.571-1.275-1.275
			c0-0.645,0.48-1.179,1.102-1.263l0.173-0.012l3.825-0.002v-2.975l-3.825,0.002c-0.646,0-1.179-0.48-1.263-1.102l-0.012-0.173
			c0-0.645,0.48-1.179,1.102-1.263l0.173-0.012l3.825-0.002v-2.975l-3.825,0.002c-0.646,0-1.179-0.48-1.263-1.102l-0.012-0.173
			c0-0.645,0.48-1.179,1.102-1.263l0.173-0.012l3.953-0.002c0.508-2.497,2.475-4.464,4.973-4.971l-0.001-3.952
			c0-0.704,0.571-1.275,1.275-1.275c0.645,0,1.179,0.48,1.263,1.102l0.012,0.173v3.823h2.973l0.002-3.823
			c0-0.645,0.48-1.179,1.102-1.263l0.173-0.012c0.646,0,1.179,0.48,1.263,1.102l0.012,0.173l-0.002,3.823h2.977v-3.823
			c0-0.587,0.396-1.081,0.936-1.229l0.166-0.034L853.344,64.939z M853.344,72.589h-11.05c-2.112,0-3.825,1.713-3.825,3.825v11.05
			c0,2.112,1.713,3.825,3.825,3.825h11.05c2.112,0,3.825-1.713,3.825-3.825v-11.05C857.169,74.301,855.456,72.589,853.344,72.589z
			 M847.827,76.847c2.817,0,5.1,2.283,5.1,5.1c0,2.817-2.283,5.1-5.1,5.1c-2.817,0-5.1-2.283-5.1-5.1
			C842.727,79.131,845.011,76.847,847.827,76.847z M847.827,79.397c-1.408,0-2.55,1.142-2.55,2.55c0,1.408,1.142,2.55,2.55,2.55
			c1.408,0,2.55-1.142,2.55-2.55C850.377,80.539,849.236,79.397,847.827,79.397z"/>
	</g>
	
		<line fill="none" stroke="#258378" stroke-width="1.5" stroke-miterlimit="10" x1="552.006" y1="68.193" x2="491.957" y2="68.193"/>
	<g>
		<line fill="none" stroke="#258378" stroke-width="1.5" stroke-miterlimit="10" x1="749.7" y1="99.34" x2="824.237" y2="99.34"/>
	</g>
	<g>
		<g>
			
				<line fill="none" stroke="#258378" stroke-width="1.5" stroke-miterlimit="10" x1="552.006" y1="99.34" x2="497.467" y2="99.34"/>
			<g>
				<polygon fill="#258378" points="508.994,93.138 509.66,94.972 497.658,99.34 509.66,103.709 508.994,105.541 491.957,99.34 				
					"/>
			</g>
		</g>
	</g>
	<g>
		<g>
			
				<line fill="none" stroke="#258378" stroke-width="1.5" stroke-miterlimit="10" x1="337.689" y1="68.193" x2="412.716" y2="68.193"/>
			<g>
				<polygon fill="#258378" points="401.189,74.395 400.523,72.562 412.526,68.193 400.523,63.825 401.189,61.993 418.226,68.193 
									"/>
			</g>
		</g>
	</g>
	<line fill="none" stroke="#258378" stroke-width="1.5" stroke-miterlimit="10" x1="145.996" y1="68.193" x2="85.946" y2="68.193"/>
	<g>
		<line fill="none" stroke="#258378" stroke-width="1.5" stroke-miterlimit="10" x1="343.689" y1="99.34" x2="418.226" y2="99.34"/>
	</g>
	<g>
		<g>
			<line fill="none" stroke="#258378" stroke-width="1.5" stroke-miterlimit="10" x1="145.996" y1="99.34" x2="91.457" y2="99.34"/>
			<g>
				<polygon fill="#258378" points="102.983,93.138 103.65,94.972 91.647,99.34 103.65,103.709 102.983,105.541 85.947,99.34 				
					"/>
			</g>
		</g>
	</g>
</g>
<g id="Text">
	<g>
		<rect x="6.194" y="15.746" fill="none" width="96.006" height="38.301"/>
		<path fill="#2F2F2F" d="M43.17,27.299c-0.715,0.347-1.65,0.52-2.803,0.52c-1.504,0-2.687-0.441-3.548-1.326
			c-0.861-0.884-1.292-2.062-1.292-3.533c0-1.568,0.484-2.84,1.453-3.814c0.968-0.976,2.225-1.463,3.77-1.463
			c0.957,0,1.764,0.12,2.42,0.361v2.127c-0.656-0.393-1.404-0.588-2.242-0.588c-0.92,0-1.664,0.289-2.229,0.867
			c-0.565,0.579-0.848,1.363-0.848,2.352c0,0.948,0.267,1.703,0.8,2.267s1.251,0.845,2.153,0.845c0.861,0,1.65-0.21,2.365-0.629
			V27.299z"/>
		<path fill="#2F2F2F" d="M46.781,27.648h-2.16V17.285h2.16V27.648z"/>
		<path fill="#2F2F2F" d="M51.924,27.818c-1.167,0-2.084-0.326-2.751-0.98s-1.001-1.541-1.001-2.662
			c0-1.158,0.346-2.064,1.039-2.718s1.629-0.981,2.81-0.981c1.162,0,2.074,0.328,2.734,0.981s0.991,1.519,0.991,2.595
			c0,1.162-0.341,2.08-1.022,2.754C54.042,27.481,53.109,27.818,51.924,27.818z M51.979,22.131c-0.51,0-0.907,0.176-1.189,0.527
			c-0.283,0.351-0.424,0.848-0.424,1.49c0,1.344,0.542,2.016,1.627,2.016c1.035,0,1.552-0.689,1.552-2.07
			C53.544,22.785,53.022,22.131,51.979,22.131z"/>
		<path fill="#2F2F2F" d="M63.778,27.648h-2.153v-1.066h-0.034c-0.533,0.824-1.247,1.236-2.14,1.236
			c-1.623,0-2.434-0.981-2.434-2.945v-4.225h2.153v4.033c0,0.988,0.392,1.482,1.176,1.482c0.387,0,0.697-0.135,0.93-0.406
			s0.349-0.639,0.349-1.104v-4.006h2.153V27.648z"/>
		<path fill="#2F2F2F" d="M72.463,27.648h-2.16v-0.965h-0.027c-0.492,0.757-1.214,1.135-2.167,1.135
			c-0.875,0-1.579-0.309-2.112-0.926s-0.8-1.48-0.8-2.588c0-1.157,0.294-2.084,0.882-2.781s1.358-1.047,2.311-1.047
			c0.902,0,1.531,0.324,1.887,0.971h0.027v-4.162h2.16V27.648z M70.344,24.244v-0.527c0-0.455-0.132-0.834-0.396-1.135
			s-0.608-0.451-1.032-0.451c-0.479,0-0.852,0.188-1.121,0.564s-0.403,0.893-0.403,1.549c0,0.615,0.13,1.089,0.39,1.422
			c0.26,0.332,0.62,0.498,1.08,0.498c0.438,0,0.794-0.175,1.07-0.525C70.207,25.287,70.344,24.822,70.344,24.244z"/>
		<path fill="#2F2F2F" d="M24.184,44.447H22.14v-1.004h-0.027c-0.469,0.783-1.165,1.176-2.085,1.176
			c-0.679,0-1.213-0.193-1.603-0.578S17.84,43.142,17.84,42.5c0-1.358,0.804-2.143,2.413-2.352l1.9-0.254
			c0-0.766-0.415-1.148-1.244-1.148c-0.834,0-1.627,0.249-2.379,0.746v-1.627c0.301-0.155,0.712-0.292,1.234-0.41
			c0.522-0.119,0.997-0.178,1.425-0.178c1.996,0,2.994,0.995,2.994,2.986V44.447z M22.153,41.603v-0.471l-1.271,0.164
			c-0.702,0.091-1.053,0.407-1.053,0.949c0,0.246,0.085,0.448,0.256,0.605s0.402,0.236,0.694,0.236c0.406,0,0.736-0.141,0.991-0.421
			S22.153,42.032,22.153,41.603z"/>
		<path fill="#2F2F2F" d="M28.067,43.635H28.04v4.033h-2.16V37.447h2.16V38.5h0.027c0.533-0.815,1.283-1.223,2.249-1.223
			c0.907,0,1.607,0.311,2.102,0.933s0.742,1.469,0.742,2.54c0,1.166-0.288,2.103-0.865,2.809c-0.577,0.707-1.343,1.061-2.3,1.061
			C29.152,44.619,28.509,44.291,28.067,43.635z M28.006,40.763v0.561c0,0.482,0.127,0.877,0.383,1.182
			c0.255,0.306,0.59,0.459,1.005,0.459c0.492,0,0.874-0.191,1.145-0.571s0.407-0.919,0.407-1.616c0-1.23-0.479-1.846-1.436-1.846
			c-0.442,0-0.803,0.167-1.083,0.502S28.006,40.212,28.006,40.763z"/>
		<path fill="#2F2F2F" d="M36.765,43.635h-0.027v4.033h-2.16V37.447h2.16V38.5h0.027c0.533-0.815,1.283-1.223,2.249-1.223
			c0.907,0,1.607,0.311,2.102,0.933s0.742,1.469,0.742,2.54c0,1.166-0.288,2.103-0.865,2.809c-0.577,0.707-1.343,1.061-2.3,1.061
			C37.849,44.619,37.207,44.291,36.765,43.635z M36.703,40.763v0.561c0,0.482,0.127,0.877,0.383,1.182
			c0.255,0.306,0.59,0.459,1.005,0.459c0.492,0,0.874-0.191,1.145-0.571s0.407-0.919,0.407-1.616c0-1.23-0.479-1.846-1.436-1.846
			c-0.442,0-0.803,0.167-1.083,0.502S36.703,40.212,36.703,40.763z"/>
		<path fill="#2F2F2F" d="M45.447,44.447h-2.16V34.084h2.16V44.447z"/>
		<path fill="#2F2F2F" d="M48.315,36.34c-0.365,0-0.663-0.107-0.896-0.324s-0.349-0.482-0.349-0.797
			c0-0.323,0.116-0.588,0.349-0.793s0.531-0.307,0.896-0.307c0.369,0,0.669,0.102,0.899,0.307s0.345,0.47,0.345,0.793
			c0,0.328-0.115,0.598-0.345,0.807C48.984,36.235,48.685,36.34,48.315,36.34z M49.382,44.447h-2.16v-7h2.16V44.447z"/>
		<path fill="#2F2F2F" d="M56.461,44.195c-0.488,0.282-1.192,0.424-2.112,0.424c-1.076,0-1.946-0.326-2.611-0.979
			c-0.666-0.651-0.998-1.492-0.998-2.521c0-1.189,0.356-2.127,1.07-2.813s1.667-1.028,2.861-1.028c0.825,0,1.422,0.109,1.791,0.328
			v1.832c-0.451-0.338-0.955-0.506-1.511-0.506c-0.62,0-1.111,0.181-1.473,0.543s-0.543,0.862-0.543,1.5
			c0,0.62,0.173,1.107,0.52,1.46s0.823,0.53,1.429,0.53c0.538,0,1.064-0.169,1.579-0.506V44.195z"/>
		<path fill="#2F2F2F" d="M63.797,44.447h-2.044v-1.004h-0.027c-0.469,0.783-1.165,1.176-2.085,1.176
			c-0.679,0-1.213-0.193-1.603-0.578s-0.584-0.898-0.584-1.541c0-1.358,0.804-2.143,2.413-2.352l1.9-0.254
			c0-0.766-0.415-1.148-1.244-1.148c-0.834,0-1.627,0.249-2.379,0.746v-1.627c0.301-0.155,0.712-0.292,1.234-0.41
			c0.522-0.119,0.997-0.178,1.425-0.178c1.996,0,2.994,0.995,2.994,2.986V44.447z M61.767,41.603v-0.471l-1.271,0.164
			c-0.702,0.091-1.053,0.407-1.053,0.949c0,0.246,0.085,0.448,0.256,0.605s0.402,0.236,0.694,0.236c0.406,0,0.736-0.141,0.991-0.421
			S61.767,42.032,61.767,41.603z"/>
		<path fill="#2F2F2F" d="M69.626,44.365c-0.319,0.169-0.8,0.254-1.442,0.254c-1.522,0-2.283-0.791-2.283-2.373v-3.205h-1.135
			v-1.594H65.9v-1.51l2.153-0.615v2.125h1.572v1.594h-1.572v2.83c0,0.729,0.29,1.094,0.868,1.094c0.228,0,0.462-0.066,0.704-0.199
			V44.365z"/>
		<path fill="#2F2F2F" d="M72.003,36.34c-0.365,0-0.663-0.107-0.896-0.324s-0.349-0.482-0.349-0.797
			c0-0.323,0.116-0.588,0.349-0.793s0.531-0.307,0.896-0.307c0.369,0,0.669,0.102,0.899,0.307s0.345,0.47,0.345,0.793
			c0,0.328-0.115,0.598-0.345,0.807C72.672,36.235,72.373,36.34,72.003,36.34z M73.07,44.447h-2.16v-7h2.16V44.447z"/>
		<path fill="#2F2F2F" d="M78.181,44.619c-1.167,0-2.084-0.328-2.751-0.981s-1.001-1.542-1.001-2.663
			c0-1.157,0.346-2.062,1.039-2.717s1.629-0.98,2.81-0.98c1.162,0,2.074,0.326,2.734,0.98s0.991,1.519,0.991,2.594
			c0,1.162-0.341,2.081-1.022,2.756C80.299,44.281,79.366,44.619,78.181,44.619z M78.236,38.931c-0.51,0-0.907,0.175-1.189,0.525
			c-0.283,0.352-0.424,0.848-0.424,1.49c0,1.345,0.542,2.018,1.627,2.018c1.035,0,1.552-0.691,1.552-2.072
			C79.801,39.585,79.279,38.931,78.236,38.931z"/>
		<path fill="#2F2F2F" d="M90.144,44.447H87.99v-3.889c0-1.085-0.387-1.627-1.162-1.627c-0.374,0-0.681,0.143-0.923,0.43
			s-0.362,0.652-0.362,1.094v3.992h-2.16v-7h2.16v1.107h0.027c0.515-0.852,1.265-1.277,2.249-1.277c1.549,0,2.324,0.961,2.324,2.885
			V44.447z"/>
	</g>
	<g>
		<rect x="391.906" y="30.657" fill="none" width="122.264" height="17.334"/>
		<path fill="#2F2F2F" d="M407.417,42.557h-2.406l-0.697-2.181h-3.486l-0.69,2.181h-2.393l3.568-9.803h2.618L407.417,42.557z
			 M403.807,38.681l-1.053-3.295c-0.078-0.246-0.132-0.54-0.164-0.882h-0.055c-0.023,0.287-0.08,0.572-0.171,0.854l-1.066,3.322
			H403.807z"/>
		<path fill="#2F2F2F" d="M414.322,42.557h-6.282v-0.896l3.514-4.512h-3.165v-1.593h5.906v1.066l-3.329,4.341h3.356V42.557z"/>
		<path fill="#2F2F2F" d="M422.204,42.557h-2.153v-1.066h-0.034c-0.533,0.825-1.247,1.237-2.14,1.237
			c-1.623,0-2.434-0.981-2.434-2.946v-4.225h2.153v4.033c0,0.989,0.392,1.483,1.176,1.483c0.387,0,0.697-0.136,0.93-0.406
			c0.232-0.271,0.349-0.64,0.349-1.104v-4.006h2.153V42.557z"/>
		<path fill="#2F2F2F" d="M428.539,37.506c-0.26-0.141-0.563-0.212-0.909-0.212c-0.469,0-0.836,0.172-1.101,0.517
			c-0.264,0.344-0.396,0.812-0.396,1.404v3.343h-2.16v-7h2.16v1.299h0.027c0.342-0.947,0.957-1.422,1.846-1.422
			c0.228,0,0.406,0.027,0.533,0.082V37.506z"/>
		<path fill="#2F2F2F" d="M435.911,39.673h-4.566c0.073,1.017,0.713,1.524,1.921,1.524c0.77,0,1.447-0.182,2.03-0.547v1.559
			c-0.647,0.347-1.488,0.52-2.522,0.52c-1.13,0-2.007-0.313-2.632-0.939c-0.625-0.627-0.937-1.501-0.937-2.622
			c0-1.162,0.337-2.082,1.012-2.762c0.674-0.679,1.504-1.019,2.488-1.019c1.021,0,1.811,0.304,2.369,0.909
			c0.558,0.606,0.837,1.429,0.837,2.468V39.673z M433.908,38.346c0-1.002-0.406-1.504-1.217-1.504c-0.346,0-0.646,0.144-0.899,0.431
			s-0.407,0.646-0.461,1.073H433.908z"/>
		<path fill="#2F2F2F" d="M447.149,42.557h-5.879v-9.803h5.653v1.798h-3.445v2.181h3.206v1.791h-3.206v2.242h3.671V42.557z"/>
		<path fill="#2F2F2F" d="M455.054,35.557l-2.604,7h-2.461l-2.481-7h2.311l1.217,4.313c0.137,0.488,0.216,0.902,0.239,1.244h0.027
			c0.032-0.323,0.116-0.725,0.253-1.203l1.244-4.354H455.054z"/>
		<path fill="#2F2F2F" d="M462.042,39.673h-4.566c0.073,1.017,0.713,1.524,1.921,1.524c0.77,0,1.447-0.182,2.03-0.547v1.559
			c-0.647,0.347-1.488,0.52-2.522,0.52c-1.13,0-2.007-0.313-2.632-0.939c-0.625-0.627-0.937-1.501-0.937-2.622
			c0-1.162,0.337-2.082,1.012-2.762c0.674-0.679,1.504-1.019,2.488-1.019c1.021,0,1.811,0.304,2.369,0.909
			c0.558,0.606,0.837,1.429,0.837,2.468V39.673z M460.039,38.346c0-1.002-0.406-1.504-1.217-1.504c-0.346,0-0.646,0.144-0.899,0.431
			s-0.407,0.646-0.461,1.073H460.039z"/>
		<path fill="#2F2F2F" d="M470.168,42.557h-2.153v-3.89c0-1.084-0.387-1.627-1.162-1.627c-0.374,0-0.681,0.144-0.923,0.431
			s-0.362,0.652-0.362,1.094v3.992h-2.16v-7h2.16v1.107h0.027c0.515-0.852,1.265-1.278,2.249-1.278c1.549,0,2.324,0.962,2.324,2.885
			V42.557z"/>
		<path fill="#2F2F2F" d="M476.017,42.475c-0.319,0.169-0.8,0.253-1.442,0.253c-1.522,0-2.283-0.79-2.283-2.372V37.15h-1.135v-1.593
			h1.135v-1.511l2.153-0.615v2.126h1.572v1.593h-1.572v2.83c0,0.729,0.29,1.094,0.868,1.094c0.228,0,0.462-0.065,0.704-0.198V42.475
			z"/>
		<path fill="#2F2F2F" d="M489.354,41.901c-0.957,0.552-2.146,0.827-3.568,0.827c-1.577,0-2.82-0.437-3.729-1.309
			c-0.909-0.873-1.364-2.075-1.364-3.606c0-1.54,0.497-2.796,1.49-3.767s2.315-1.456,3.965-1.456c1.039,0,1.955,0.144,2.748,0.431
			v2.071c-0.756-0.438-1.682-0.656-2.775-0.656c-0.916,0-1.662,0.298-2.239,0.893s-0.865,1.389-0.865,2.382
			c0,1.008,0.259,1.787,0.776,2.338c0.517,0.552,1.216,0.827,2.095,0.827c0.529,0,0.948-0.075,1.258-0.226v-1.914h-1.962v-1.764
			h4.17V41.901z"/>
		<path fill="#2F2F2F" d="M495.683,37.506c-0.26-0.141-0.563-0.212-0.909-0.212c-0.469,0-0.836,0.172-1.101,0.517
			c-0.264,0.344-0.396,0.812-0.396,1.404v3.343h-2.16v-7h2.16v1.299h0.027c0.342-0.947,0.957-1.422,1.846-1.422
			c0.228,0,0.406,0.027,0.533,0.082V37.506z"/>
		<path fill="#2F2F2F" d="M497.769,34.45c-0.365,0-0.663-0.108-0.896-0.324c-0.232-0.217-0.349-0.482-0.349-0.797
			c0-0.323,0.116-0.588,0.349-0.793s0.531-0.308,0.896-0.308c0.369,0,0.669,0.103,0.899,0.308s0.345,0.47,0.345,0.793
			c0,0.328-0.115,0.598-0.345,0.807C498.438,34.346,498.138,34.45,497.769,34.45z M498.835,42.557h-2.16v-7h2.16V42.557z"/>
		<path fill="#2F2F2F" d="M507.491,42.557h-2.16v-0.964h-0.027c-0.492,0.757-1.214,1.135-2.167,1.135
			c-0.875,0-1.579-0.309-2.112-0.926c-0.533-0.618-0.8-1.48-0.8-2.588c0-1.157,0.294-2.085,0.882-2.782s1.358-1.046,2.311-1.046
			c0.902,0,1.531,0.324,1.887,0.971h0.027v-4.163h2.16V42.557z M505.372,39.153v-0.526c0-0.455-0.132-0.834-0.396-1.135
			s-0.608-0.451-1.032-0.451c-0.479,0-0.852,0.188-1.121,0.564s-0.403,0.892-0.403,1.548c0,0.615,0.13,1.09,0.39,1.422
			c0.26,0.333,0.62,0.499,1.08,0.499c0.438,0,0.794-0.175,1.07-0.526C505.234,40.197,505.372,39.732,505.372,39.153z"/>
	</g>
	<g>
		<path fill="#258378" d="M772.814,87.498h-0.979v-5.637c0-0.445,0.027-0.99,0.082-1.635h-0.023
			c-0.094,0.379-0.178,0.65-0.252,0.814l-2.871,6.457h-0.48l-2.865-6.41c-0.082-0.188-0.166-0.475-0.252-0.861h-0.023
			c0.031,0.336,0.047,0.885,0.047,1.646v5.625h-0.949v-8.402h1.301l2.578,5.859c0.199,0.449,0.328,0.785,0.387,1.008h0.035
			c0.168-0.461,0.303-0.805,0.404-1.031l2.631-5.836h1.23V87.498z"/>
		<path fill="#258378" d="M778.349,87.638c-1.188,0-2.143-0.393-2.865-1.178c-0.715-0.785-1.072-1.807-1.072-3.064
			c0-1.355,0.365-2.434,1.096-3.234c0.734-0.805,1.729-1.207,2.982-1.207c1.156,0,2.09,0.391,2.801,1.172s1.066,1.803,1.066,3.064
			c0,1.371-0.363,2.455-1.09,3.252c-0.172,0.191-0.355,0.355-0.551,0.492l2.361,1.693h-1.787l-1.582-1.184
			C779.294,87.574,778.841,87.638,778.349,87.638z M778.419,79.846c-0.883,0-1.6,0.318-2.15,0.955s-0.826,1.473-0.826,2.508
			c0,1.031,0.268,1.865,0.803,2.502c0.539,0.629,1.24,0.943,2.104,0.943c0.922,0,1.648-0.301,2.18-0.902s0.797-1.443,0.797-2.525
			c0-1.113-0.258-1.971-0.773-2.572C780.037,80.148,779.326,79.846,778.419,79.846z"/>
		<path fill="#258378" d="M788.618,79.986h-2.426v7.512h-0.984v-7.512h-2.42v-0.891h5.83V79.986z"/>
		<path fill="#258378" d="M795.217,79.986h-2.426v7.512h-0.984v-7.512h-2.42v-0.891h5.83V79.986z"/>
	</g>
	<g>
		<path fill="#2F2F2F" d="M590.756,70.351c-0.538,0.323-1.176,0.485-1.914,0.485c-0.998,0-1.804-0.324-2.417-0.975
			c-0.613-0.648-0.919-1.491-0.919-2.525c0-1.153,0.331-2.079,0.991-2.779c0.661-0.699,1.542-1.049,2.646-1.049
			c0.615,0,1.158,0.114,1.627,0.342v1.148c-0.52-0.364-1.076-0.547-1.668-0.547c-0.715,0-1.302,0.256-1.76,0.77
			c-0.458,0.512-0.687,1.186-0.687,2.02c0,0.82,0.215,1.468,0.646,1.941s1.008,0.711,1.733,0.711c0.611,0,1.185-0.203,1.723-0.608
			V70.351z"/>
		<path fill="#2F2F2F" d="M595.196,70.837c-1.035,0-1.86-0.327-2.478-0.98c-0.618-0.654-0.926-1.521-0.926-2.602
			c0-1.176,0.321-2.094,0.964-2.755s1.511-0.991,2.604-0.991c1.043,0,1.858,0.321,2.444,0.964s0.878,1.533,0.878,2.673
			c0,1.116-0.315,2.011-0.947,2.684C597.104,70.501,596.258,70.837,595.196,70.837z M595.278,64.452c-0.72,0-1.29,0.245-1.709,0.734
			c-0.419,0.49-0.629,1.166-0.629,2.027c0,0.829,0.212,1.483,0.636,1.962s0.991,0.718,1.702,0.718c0.725,0,1.282-0.234,1.671-0.704
			s0.584-1.137,0.584-2.003c0-0.875-0.195-1.55-0.584-2.023S596.003,64.452,595.278,64.452z"/>
		<path fill="#2F2F2F" d="M610.337,70.673h-1.121v-4.02c0-0.774-0.12-1.335-0.359-1.682s-0.642-0.52-1.207-0.52
			c-0.479,0-0.885,0.219-1.22,0.656s-0.502,0.962-0.502,1.572v3.992h-1.121v-4.156c0-1.376-0.531-2.064-1.593-2.064
			c-0.492,0-0.898,0.206-1.217,0.619c-0.319,0.412-0.479,0.948-0.479,1.609v3.992h-1.121v-7h1.121v1.107h0.027
			c0.497-0.848,1.221-1.271,2.174-1.271c0.479,0,0.896,0.133,1.251,0.4c0.355,0.266,0.599,0.616,0.731,1.049
			c0.52-0.966,1.294-1.449,2.324-1.449c1.541,0,2.311,0.95,2.311,2.851V70.673z"/>
		<path fill="#2F2F2F" d="M622.304,70.673h-1.121v-4.02c0-0.774-0.12-1.335-0.359-1.682s-0.642-0.52-1.207-0.52
			c-0.479,0-0.885,0.219-1.22,0.656s-0.502,0.962-0.502,1.572v3.992h-1.121v-4.156c0-1.376-0.531-2.064-1.593-2.064
			c-0.492,0-0.898,0.206-1.217,0.619c-0.319,0.412-0.479,0.948-0.479,1.609v3.992h-1.121v-7h1.121v1.107h0.027
			c0.497-0.848,1.221-1.271,2.174-1.271c0.479,0,0.896,0.133,1.251,0.4c0.355,0.266,0.599,0.616,0.731,1.049
			c0.52-0.966,1.294-1.449,2.324-1.449c1.541,0,2.311,0.95,2.311,2.851V70.673z"/>
		<path fill="#2F2F2F" d="M629.341,70.673h-1.121v-1.094h-0.027c-0.488,0.839-1.206,1.258-2.153,1.258
			c-0.697,0-1.243-0.185-1.637-0.554s-0.591-0.859-0.591-1.47c0-1.308,0.77-2.069,2.311-2.283l2.099-0.294
			c0-1.189-0.481-1.784-1.442-1.784c-0.843,0-1.604,0.287-2.283,0.861v-1.148c0.688-0.438,1.481-0.656,2.379-0.656
			c1.645,0,2.468,0.87,2.468,2.611V70.673z M628.22,67.132l-1.688,0.232c-0.52,0.073-0.912,0.201-1.176,0.387
			c-0.264,0.184-0.396,0.511-0.396,0.98c0,0.342,0.122,0.621,0.366,0.838c0.244,0.216,0.568,0.324,0.974,0.324
			c0.556,0,1.015-0.195,1.377-0.584c0.362-0.391,0.543-0.884,0.543-1.48V67.132z"/>
		<path fill="#2F2F2F" d="M637.172,70.673h-1.121V66.68c0-1.485-0.542-2.229-1.627-2.229c-0.561,0-1.024,0.211-1.391,0.633
			c-0.367,0.421-0.55,0.953-0.55,1.596v3.992h-1.121v-7h1.121v1.162h0.027c0.529-0.884,1.294-1.326,2.297-1.326
			c0.766,0,1.351,0.247,1.757,0.742c0.406,0.494,0.608,1.208,0.608,2.143V70.673z"/>
		<path fill="#2F2F2F" d="M645.246,70.673h-1.121v-1.189h-0.027c-0.52,0.902-1.322,1.354-2.406,1.354
			c-0.879,0-1.583-0.313-2.109-0.939c-0.526-0.627-0.79-1.48-0.79-2.561c0-1.157,0.292-2.085,0.875-2.782s1.36-1.046,2.331-1.046
			c0.961,0,1.661,0.378,2.099,1.135h0.027v-4.334h1.121V70.673z M644.125,67.508v-1.032c0-0.565-0.187-1.044-0.561-1.436
			s-0.848-0.588-1.422-0.588c-0.684,0-1.221,0.251-1.613,0.752s-0.588,1.194-0.588,2.078c0,0.807,0.188,1.443,0.564,1.91
			c0.376,0.468,0.881,0.701,1.514,0.701c0.625,0,1.131-0.226,1.521-0.677S644.125,68.196,644.125,67.508z"/>
		<path fill="#2F2F2F" d="M655.773,60.87L651.07,72.3h-1.046l4.689-11.43H655.773z"/>
		<path fill="#2F2F2F" d="M666.615,70.673h-1.121v-1.189h-0.027c-0.52,0.902-1.322,1.354-2.406,1.354
			c-0.879,0-1.583-0.313-2.109-0.939c-0.526-0.627-0.79-1.48-0.79-2.561c0-1.157,0.292-2.085,0.875-2.782s1.36-1.046,2.331-1.046
			c0.961,0,1.661,0.378,2.099,1.135h0.027v-4.334h1.121V70.673z M665.494,67.508v-1.032c0-0.565-0.187-1.044-0.561-1.436
			s-0.848-0.588-1.422-0.588c-0.684,0-1.221,0.251-1.613,0.752s-0.588,1.194-0.588,2.078c0,0.807,0.188,1.443,0.564,1.91
			c0.376,0.468,0.881,0.701,1.514,0.701c0.625,0,1.131-0.226,1.521-0.677S665.494,68.196,665.494,67.508z"/>
		<path fill="#2F2F2F" d="M671.979,70.673h-1.121v-8.47c-0.086,0.087-0.213,0.186-0.379,0.298c-0.167,0.111-0.353,0.222-0.561,0.331
			s-0.426,0.212-0.656,0.308s-0.455,0.171-0.673,0.226V62.23c0.246-0.068,0.507-0.161,0.783-0.276
			c0.276-0.117,0.547-0.246,0.813-0.391c0.267-0.143,0.519-0.293,0.755-0.451c0.237-0.156,0.442-0.311,0.615-0.461h0.424V70.673z"/>
		<path fill="#2F2F2F" d="M683.97,60.87l-4.703,11.43h-1.046l4.689-11.43H683.97z"/>
		<path fill="#2F2F2F" d="M692.487,64.807c-0.196-0.15-0.479-0.226-0.848-0.226c-0.479,0-0.878,0.226-1.2,0.677
			s-0.482,1.066-0.482,1.846v3.568h-1.121v-7h1.121v1.442h0.027c0.16-0.492,0.403-0.876,0.731-1.151
			c0.328-0.276,0.695-0.414,1.101-0.414c0.292,0,0.515,0.032,0.67,0.096V64.807z"/>
		<path fill="#2F2F2F" d="M699.33,67.453h-4.942c0.018,0.779,0.228,1.381,0.629,1.805s0.953,0.636,1.654,0.636
			c0.789,0,1.513-0.26,2.174-0.779v1.053c-0.615,0.446-1.429,0.67-2.44,0.67c-0.989,0-1.766-0.318-2.331-0.953
			c-0.565-0.637-0.848-1.53-0.848-2.684c0-1.089,0.309-1.977,0.926-2.662c0.618-0.687,1.384-1.029,2.3-1.029
			s1.625,0.296,2.126,0.889s0.752,1.415,0.752,2.468V67.453z M698.182,66.503c-0.004-0.647-0.161-1.15-0.468-1.511
			s-0.735-0.54-1.282-0.54c-0.529,0-0.978,0.189-1.347,0.567s-0.597,0.873-0.684,1.483H698.182z"/>
		<path fill="#2F2F2F" d="M707.031,73.892h-1.121V69.47h-0.027c-0.488,0.911-1.285,1.367-2.393,1.367
			c-0.879,0-1.585-0.313-2.116-0.939c-0.531-0.627-0.796-1.48-0.796-2.561c0-1.162,0.292-2.091,0.875-2.785
			c0.583-0.695,1.367-1.043,2.352-1.043c0.957,0,1.65,0.378,2.078,1.135h0.027v-0.971h1.121V73.892z M705.91,67.521v-1.019
			c0-0.574-0.188-1.06-0.564-1.456s-0.854-0.595-1.432-0.595c-0.674,0-1.208,0.25-1.6,0.748c-0.392,0.5-0.588,1.202-0.588,2.109
			c0,0.807,0.189,1.439,0.567,1.896c0.378,0.459,0.866,0.688,1.463,0.688c0.656,0,1.179-0.225,1.569-0.674
			C705.715,68.771,705.91,68.205,705.91,67.521z"/>
		<path fill="#2F2F2F" d="M714.858,70.673h-1.121v-1.107h-0.027c-0.465,0.848-1.185,1.271-2.16,1.271
			c-1.668,0-2.502-0.993-2.502-2.98v-4.184h1.114v4.006c0,1.477,0.565,2.215,1.695,2.215c0.547,0,0.997-0.201,1.35-0.605
			c0.353-0.402,0.53-0.931,0.53-1.582v-4.033h1.121V70.673z"/>
		<path fill="#2F2F2F" d="M722.678,67.453h-4.942c0.018,0.779,0.228,1.381,0.629,1.805s0.953,0.636,1.654,0.636
			c0.789,0,1.513-0.26,2.174-0.779v1.053c-0.615,0.446-1.429,0.67-2.44,0.67c-0.989,0-1.766-0.318-2.331-0.953
			c-0.565-0.637-0.848-1.53-0.848-2.684c0-1.089,0.309-1.977,0.926-2.662c0.618-0.687,1.384-1.029,2.3-1.029
			s1.625,0.296,2.126,0.889s0.752,1.415,0.752,2.468V67.453z M721.53,66.503c-0.004-0.647-0.161-1.15-0.468-1.511
			s-0.735-0.54-1.282-0.54c-0.529,0-0.978,0.189-1.347,0.567s-0.597,0.873-0.684,1.483H721.53z"/>
		<path fill="#2F2F2F" d="M723.92,70.42v-1.203c0.611,0.451,1.283,0.677,2.017,0.677c0.984,0,1.477-0.328,1.477-0.984
			c0-0.187-0.042-0.346-0.126-0.475c-0.084-0.131-0.198-0.245-0.342-0.346s-0.312-0.19-0.506-0.27
			c-0.194-0.08-0.402-0.163-0.625-0.25c-0.31-0.123-0.582-0.247-0.817-0.373c-0.235-0.125-0.431-0.266-0.588-0.424
			c-0.157-0.156-0.276-0.336-0.355-0.536s-0.12-0.436-0.12-0.704c0-0.328,0.075-0.619,0.226-0.871
			c0.15-0.254,0.351-0.465,0.602-0.637c0.25-0.17,0.537-0.299,0.858-0.386s0.653-0.13,0.995-0.13c0.606,0,1.148,0.104,1.627,0.314
			v1.135c-0.515-0.337-1.107-0.506-1.777-0.506c-0.209,0-0.399,0.023-0.567,0.072c-0.168,0.047-0.313,0.114-0.434,0.201
			s-0.214,0.19-0.28,0.311c-0.066,0.121-0.099,0.255-0.099,0.4c0,0.183,0.033,0.335,0.099,0.458s0.163,0.232,0.291,0.328
			s0.283,0.183,0.465,0.26s0.39,0.162,0.622,0.253c0.31,0.118,0.588,0.24,0.834,0.365c0.246,0.126,0.456,0.268,0.629,0.424
			c0.173,0.158,0.307,0.339,0.4,0.544s0.14,0.449,0.14,0.731c0,0.347-0.076,0.647-0.229,0.902s-0.356,0.467-0.612,0.636
			s-0.549,0.294-0.882,0.376s-0.681,0.123-1.046,0.123C725.073,70.837,724.449,70.698,723.92,70.42z"/>
		<path fill="#2F2F2F" d="M733.574,70.604c-0.264,0.146-0.613,0.219-1.046,0.219c-1.226,0-1.839-0.684-1.839-2.051V64.63h-1.203
			v-0.957h1.203v-1.709l1.121-0.362v2.071h1.764v0.957h-1.764v3.944c0,0.47,0.08,0.805,0.239,1.005s0.424,0.301,0.793,0.301
			c0.283,0,0.526-0.077,0.731-0.232V70.604z"/>
	</g>
	<g>
		<path fill="#2F2F2F" d="M590.756,102.011c-0.538,0.323-1.176,0.485-1.914,0.485c-0.998,0-1.804-0.324-2.417-0.975
			c-0.613-0.648-0.919-1.491-0.919-2.525c0-1.153,0.331-2.079,0.991-2.779c0.661-0.699,1.542-1.049,2.646-1.049
			c0.615,0,1.158,0.114,1.627,0.342v1.148c-0.52-0.364-1.076-0.547-1.668-0.547c-0.715,0-1.302,0.256-1.76,0.77
			c-0.458,0.512-0.687,1.186-0.687,2.02c0,0.82,0.215,1.468,0.646,1.941s1.008,0.711,1.733,0.711c0.611,0,1.185-0.203,1.723-0.608
			V102.011z"/>
		<path fill="#2F2F2F" d="M595.196,102.496c-1.035,0-1.86-0.327-2.478-0.98c-0.618-0.654-0.926-1.521-0.926-2.602
			c0-1.176,0.321-2.094,0.964-2.755s1.511-0.991,2.604-0.991c1.043,0,1.858,0.321,2.444,0.964s0.878,1.533,0.878,2.673
			c0,1.116-0.315,2.011-0.947,2.684C597.104,102.16,596.258,102.496,595.196,102.496z M595.278,96.111
			c-0.72,0-1.29,0.245-1.709,0.734c-0.419,0.49-0.629,1.166-0.629,2.027c0,0.829,0.212,1.483,0.636,1.962s0.991,0.718,1.702,0.718
			c0.725,0,1.282-0.234,1.671-0.704s0.584-1.137,0.584-2.003c0-0.875-0.195-1.55-0.584-2.023S596.003,96.111,595.278,96.111z"/>
		<path fill="#2F2F2F" d="M610.337,102.332h-1.121v-4.02c0-0.774-0.12-1.335-0.359-1.682s-0.642-0.52-1.207-0.52
			c-0.479,0-0.885,0.219-1.22,0.656s-0.502,0.962-0.502,1.572v3.992h-1.121v-4.156c0-1.376-0.531-2.064-1.593-2.064
			c-0.492,0-0.898,0.206-1.217,0.619c-0.319,0.412-0.479,0.948-0.479,1.609v3.992h-1.121v-7h1.121v1.107h0.027
			c0.497-0.848,1.221-1.271,2.174-1.271c0.479,0,0.896,0.133,1.251,0.4c0.355,0.266,0.599,0.616,0.731,1.049
			c0.52-0.966,1.294-1.449,2.324-1.449c1.541,0,2.311,0.95,2.311,2.851V102.332z"/>
		<path fill="#2F2F2F" d="M622.304,102.332h-1.121v-4.02c0-0.774-0.12-1.335-0.359-1.682s-0.642-0.52-1.207-0.52
			c-0.479,0-0.885,0.219-1.22,0.656s-0.502,0.962-0.502,1.572v3.992h-1.121v-4.156c0-1.376-0.531-2.064-1.593-2.064
			c-0.492,0-0.898,0.206-1.217,0.619c-0.319,0.412-0.479,0.948-0.479,1.609v3.992h-1.121v-7h1.121v1.107h0.027
			c0.497-0.848,1.221-1.271,2.174-1.271c0.479,0,0.896,0.133,1.251,0.4c0.355,0.266,0.599,0.616,0.731,1.049
			c0.52-0.966,1.294-1.449,2.324-1.449c1.541,0,2.311,0.95,2.311,2.851V102.332z"/>
		<path fill="#2F2F2F" d="M629.341,102.332h-1.121v-1.094h-0.027c-0.488,0.839-1.206,1.258-2.153,1.258
			c-0.697,0-1.243-0.185-1.637-0.554s-0.591-0.859-0.591-1.47c0-1.308,0.77-2.069,2.311-2.283l2.099-0.294
			c0-1.189-0.481-1.784-1.442-1.784c-0.843,0-1.604,0.287-2.283,0.861v-1.148c0.688-0.438,1.481-0.656,2.379-0.656
			c1.645,0,2.468,0.87,2.468,2.611V102.332z M628.22,98.791l-1.688,0.232c-0.52,0.073-0.912,0.201-1.176,0.387
			c-0.264,0.184-0.396,0.511-0.396,0.98c0,0.342,0.122,0.621,0.366,0.838c0.244,0.216,0.568,0.324,0.974,0.324
			c0.556,0,1.015-0.195,1.377-0.584c0.362-0.391,0.543-0.884,0.543-1.48V98.791z"/>
		<path fill="#2F2F2F" d="M637.172,102.332h-1.121V98.34c0-1.485-0.542-2.229-1.627-2.229c-0.561,0-1.024,0.211-1.391,0.633
			c-0.367,0.421-0.55,0.953-0.55,1.596v3.992h-1.121v-7h1.121v1.162h0.027c0.529-0.884,1.294-1.326,2.297-1.326
			c0.766,0,1.351,0.247,1.757,0.742c0.406,0.494,0.608,1.208,0.608,2.143V102.332z"/>
		<path fill="#2F2F2F" d="M645.246,102.332h-1.121v-1.189h-0.027c-0.52,0.902-1.322,1.354-2.406,1.354
			c-0.879,0-1.583-0.313-2.109-0.939c-0.526-0.627-0.79-1.48-0.79-2.561c0-1.157,0.292-2.085,0.875-2.782s1.36-1.046,2.331-1.046
			c0.961,0,1.661,0.378,2.099,1.135h0.027v-4.334h1.121V102.332z M644.125,99.167v-1.032c0-0.565-0.187-1.044-0.561-1.436
			s-0.848-0.588-1.422-0.588c-0.684,0-1.221,0.251-1.613,0.752s-0.588,1.194-0.588,2.078c0,0.807,0.188,1.443,0.564,1.91
			c0.376,0.468,0.881,0.701,1.514,0.701c0.625,0,1.131-0.226,1.521-0.677S644.125,99.855,644.125,99.167z"/>
		<path fill="#2F2F2F" d="M655.773,92.529l-4.703,11.43h-1.046l4.689-11.43H655.773z"/>
		<path fill="#2F2F2F" d="M666.615,102.332h-1.121v-1.189h-0.027c-0.52,0.902-1.322,1.354-2.406,1.354
			c-0.879,0-1.583-0.313-2.109-0.939c-0.526-0.627-0.79-1.48-0.79-2.561c0-1.157,0.292-2.085,0.875-2.782s1.36-1.046,2.331-1.046
			c0.961,0,1.661,0.378,2.099,1.135h0.027v-4.334h1.121V102.332z M665.494,99.167v-1.032c0-0.565-0.187-1.044-0.561-1.436
			s-0.848-0.588-1.422-0.588c-0.684,0-1.221,0.251-1.613,0.752s-0.588,1.194-0.588,2.078c0,0.807,0.188,1.443,0.564,1.91
			c0.376,0.468,0.881,0.701,1.514,0.701c0.625,0,1.131-0.226,1.521-0.677S665.494,99.855,665.494,99.167z"/>
		<path fill="#2F2F2F" d="M671.979,102.332h-1.121v-8.47c-0.086,0.087-0.213,0.186-0.379,0.298
			c-0.167,0.111-0.353,0.222-0.561,0.331s-0.426,0.212-0.656,0.308s-0.455,0.171-0.673,0.226v-1.135
			c0.246-0.068,0.507-0.161,0.783-0.276c0.276-0.117,0.547-0.246,0.813-0.391c0.267-0.143,0.519-0.293,0.755-0.451
			c0.237-0.156,0.442-0.311,0.615-0.461h0.424V102.332z"/>
		<path fill="#2F2F2F" d="M683.97,92.529l-4.703,11.43h-1.046l4.689-11.43H683.97z"/>
		<path fill="#2F2F2F" d="M692.487,96.467c-0.196-0.15-0.479-0.226-0.848-0.226c-0.479,0-0.878,0.226-1.2,0.677
			s-0.482,1.066-0.482,1.846v3.568h-1.121v-7h1.121v1.442h0.027c0.16-0.492,0.403-0.876,0.731-1.151
			c0.328-0.276,0.695-0.414,1.101-0.414c0.292,0,0.515,0.032,0.67,0.096V96.467z"/>
		<path fill="#2F2F2F" d="M699.33,99.112h-4.942c0.018,0.779,0.228,1.381,0.629,1.805s0.953,0.636,1.654,0.636
			c0.789,0,1.513-0.26,2.174-0.779v1.053c-0.615,0.446-1.429,0.67-2.44,0.67c-0.989,0-1.766-0.318-2.331-0.953
			c-0.565-0.637-0.848-1.53-0.848-2.684c0-1.089,0.309-1.977,0.926-2.662c0.618-0.687,1.384-1.029,2.3-1.029
			s1.625,0.296,2.126,0.889s0.752,1.415,0.752,2.468V99.112z M698.182,98.162c-0.004-0.647-0.161-1.15-0.468-1.511
			s-0.735-0.54-1.282-0.54c-0.529,0-0.978,0.189-1.347,0.567s-0.597,0.873-0.684,1.483H698.182z"/>
		<path fill="#2F2F2F" d="M700.572,102.079v-1.203c0.611,0.451,1.283,0.677,2.017,0.677c0.984,0,1.477-0.328,1.477-0.984
			c0-0.187-0.042-0.346-0.126-0.475c-0.084-0.131-0.198-0.245-0.342-0.346s-0.312-0.19-0.506-0.27
			c-0.194-0.08-0.402-0.163-0.625-0.25c-0.31-0.123-0.582-0.247-0.817-0.373c-0.235-0.125-0.431-0.266-0.588-0.424
			c-0.157-0.156-0.276-0.336-0.355-0.536s-0.12-0.436-0.12-0.704c0-0.328,0.075-0.619,0.226-0.871
			c0.15-0.254,0.351-0.465,0.602-0.637c0.25-0.17,0.537-0.299,0.858-0.386s0.653-0.13,0.995-0.13c0.606,0,1.148,0.104,1.627,0.314
			v1.135c-0.515-0.337-1.107-0.506-1.777-0.506c-0.209,0-0.399,0.023-0.567,0.072c-0.168,0.047-0.313,0.114-0.434,0.201
			s-0.214,0.19-0.28,0.311c-0.066,0.121-0.099,0.255-0.099,0.4c0,0.183,0.033,0.335,0.099,0.458s0.163,0.232,0.291,0.328
			s0.283,0.183,0.465,0.26s0.39,0.162,0.622,0.253c0.31,0.118,0.588,0.24,0.834,0.365c0.246,0.126,0.456,0.268,0.629,0.424
			c0.173,0.158,0.307,0.339,0.4,0.544s0.14,0.449,0.14,0.731c0,0.347-0.076,0.647-0.229,0.902s-0.356,0.467-0.612,0.636
			s-0.549,0.294-0.882,0.376s-0.681,0.123-1.046,0.123C701.725,102.496,701.101,102.357,700.572,102.079z"/>
		<path fill="#2F2F2F" d="M707.946,101.32h-0.027v4.231h-1.121v-10.22h1.121v1.23h0.027c0.551-0.93,1.358-1.395,2.42-1.395
			c0.902,0,1.606,0.313,2.112,0.939c0.506,0.627,0.759,1.467,0.759,2.52c0,1.171-0.285,2.109-0.854,2.812
			c-0.57,0.705-1.349,1.057-2.338,1.057C709.138,102.496,708.438,102.104,707.946,101.32z M707.919,98.497v0.978
			c0,0.579,0.188,1.07,0.564,1.473c0.376,0.404,0.854,0.605,1.432,0.605c0.679,0,1.211-0.26,1.596-0.779s0.578-1.242,0.578-2.167
			c0-0.779-0.18-1.39-0.54-1.832s-0.848-0.663-1.463-0.663c-0.652,0-1.176,0.227-1.572,0.68
			C708.117,97.245,707.919,97.813,707.919,98.497z"/>
		<path fill="#2F2F2F" d="M717.943,102.496c-1.035,0-1.86-0.327-2.478-0.98c-0.618-0.654-0.926-1.521-0.926-2.602
			c0-1.176,0.321-2.094,0.964-2.755s1.511-0.991,2.604-0.991c1.043,0,1.858,0.321,2.444,0.964s0.878,1.533,0.878,2.673
			c0,1.116-0.315,2.011-0.947,2.684C719.851,102.16,719.005,102.496,717.943,102.496z M718.025,96.111
			c-0.72,0-1.29,0.245-1.709,0.734c-0.419,0.49-0.629,1.166-0.629,2.027c0,0.829,0.212,1.483,0.636,1.962s0.991,0.718,1.702,0.718
			c0.725,0,1.282-0.234,1.671-0.704s0.584-1.137,0.584-2.003c0-0.875-0.195-1.55-0.584-2.023S718.75,96.111,718.025,96.111z"/>
		<path fill="#2F2F2F" d="M728.955,102.332h-1.121V98.34c0-1.485-0.542-2.229-1.627-2.229c-0.561,0-1.024,0.211-1.391,0.633
			c-0.367,0.421-0.55,0.953-0.55,1.596v3.992h-1.121v-7h1.121v1.162h0.027c0.529-0.884,1.294-1.326,2.297-1.326
			c0.766,0,1.351,0.247,1.757,0.742c0.406,0.494,0.608,1.208,0.608,2.143V102.332z"/>
		<path fill="#2F2F2F" d="M730.603,102.079v-1.203c0.611,0.451,1.283,0.677,2.017,0.677c0.984,0,1.477-0.328,1.477-0.984
			c0-0.187-0.042-0.346-0.126-0.475c-0.084-0.131-0.198-0.245-0.342-0.346s-0.312-0.19-0.506-0.27
			c-0.194-0.08-0.402-0.163-0.625-0.25c-0.31-0.123-0.582-0.247-0.817-0.373c-0.235-0.125-0.431-0.266-0.588-0.424
			c-0.157-0.156-0.276-0.336-0.355-0.536s-0.12-0.436-0.12-0.704c0-0.328,0.075-0.619,0.226-0.871
			c0.15-0.254,0.351-0.465,0.602-0.637c0.25-0.17,0.537-0.299,0.858-0.386s0.653-0.13,0.995-0.13c0.606,0,1.148,0.104,1.627,0.314
			v1.135c-0.515-0.337-1.107-0.506-1.777-0.506c-0.209,0-0.399,0.023-0.567,0.072c-0.168,0.047-0.313,0.114-0.434,0.201
			s-0.214,0.19-0.28,0.311c-0.066,0.121-0.099,0.255-0.099,0.4c0,0.183,0.033,0.335,0.099,0.458s0.163,0.232,0.291,0.328
			s0.283,0.183,0.465,0.26s0.39,0.162,0.622,0.253c0.31,0.118,0.588,0.24,0.834,0.365c0.246,0.126,0.456,0.268,0.629,0.424
			c0.173,0.158,0.307,0.339,0.4,0.544s0.14,0.449,0.14,0.731c0,0.347-0.076,0.647-0.229,0.902s-0.356,0.467-0.612,0.636
			s-0.549,0.294-0.882,0.376s-0.681,0.123-1.046,0.123C731.756,102.496,731.132,102.357,730.603,102.079z"/>
		<path fill="#2F2F2F" d="M742.558,99.112h-4.942c0.018,0.779,0.228,1.381,0.629,1.805s0.953,0.636,1.654,0.636
			c0.789,0,1.513-0.26,2.174-0.779v1.053c-0.615,0.446-1.429,0.67-2.44,0.67c-0.989,0-1.766-0.318-2.331-0.953
			c-0.565-0.637-0.848-1.53-0.848-2.684c0-1.089,0.309-1.977,0.926-2.662c0.618-0.687,1.384-1.029,2.3-1.029
			s1.625,0.296,2.126,0.889s0.752,1.415,0.752,2.468V99.112z M741.41,98.162c-0.004-0.647-0.161-1.15-0.468-1.511
			s-0.735-0.54-1.282-0.54c-0.529,0-0.978,0.189-1.347,0.567s-0.597,0.873-0.684,1.483H741.41z"/>
	</g>
	<g>
		<path fill="#258378" d="M366.804,87.498h-0.979v-5.637c0-0.445,0.027-0.99,0.082-1.635h-0.023
			c-0.094,0.379-0.178,0.65-0.252,0.814l-2.871,6.457h-0.48l-2.865-6.41c-0.082-0.188-0.166-0.475-0.252-0.861h-0.023
			c0.031,0.336,0.047,0.885,0.047,1.646v5.625h-0.949v-8.402h1.301l2.578,5.859c0.199,0.449,0.328,0.785,0.387,1.008h0.035
			c0.168-0.461,0.303-0.805,0.404-1.031l2.631-5.836h1.23V87.498z"/>
		<path fill="#258378" d="M372.338,87.638c-1.188,0-2.143-0.393-2.865-1.178c-0.715-0.785-1.072-1.807-1.072-3.064
			c0-1.355,0.365-2.434,1.096-3.234c0.734-0.805,1.729-1.207,2.982-1.207c1.156,0,2.09,0.391,2.801,1.172s1.066,1.803,1.066,3.064
			c0,1.371-0.363,2.455-1.09,3.252c-0.172,0.191-0.355,0.355-0.551,0.492l2.361,1.693h-1.787l-1.582-1.184
			C373.284,87.574,372.831,87.638,372.338,87.638z M372.409,79.846c-0.883,0-1.6,0.318-2.15,0.955s-0.826,1.473-0.826,2.508
			c0,1.031,0.268,1.865,0.803,2.502c0.539,0.629,1.24,0.943,2.104,0.943c0.922,0,1.648-0.301,2.18-0.902s0.797-1.443,0.797-2.525
			c0-1.113-0.258-1.971-0.773-2.572C374.026,80.148,373.315,79.846,372.409,79.846z"/>
		<path fill="#258378" d="M382.607,79.986h-2.426v7.512h-0.984v-7.512h-2.42v-0.891h5.83V79.986z"/>
		<path fill="#258378" d="M389.206,79.986h-2.426v7.512h-0.984v-7.512h-2.42v-0.891h5.83V79.986z"/>
	</g>
	<g>
		<path fill="#2F2F2F" d="M184.745,70.351c-0.538,0.323-1.176,0.485-1.914,0.485c-0.998,0-1.804-0.324-2.417-0.975
			c-0.613-0.648-0.919-1.491-0.919-2.525c0-1.153,0.331-2.079,0.991-2.779c0.661-0.699,1.542-1.049,2.646-1.049
			c0.615,0,1.158,0.114,1.627,0.342v1.148c-0.52-0.364-1.076-0.547-1.668-0.547c-0.715,0-1.302,0.256-1.76,0.77
			c-0.458,0.512-0.687,1.186-0.687,2.02c0,0.82,0.215,1.468,0.646,1.941s1.008,0.711,1.733,0.711c0.611,0,1.185-0.203,1.723-0.608
			V70.351z"/>
		<path fill="#2F2F2F" d="M189.186,70.837c-1.035,0-1.86-0.327-2.478-0.98c-0.618-0.654-0.926-1.521-0.926-2.602
			c0-1.176,0.321-2.094,0.964-2.755s1.511-0.991,2.604-0.991c1.043,0,1.858,0.321,2.444,0.964s0.878,1.533,0.878,2.673
			c0,1.116-0.315,2.011-0.947,2.684C191.094,70.501,190.248,70.837,189.186,70.837z M189.268,64.452c-0.72,0-1.29,0.245-1.709,0.734
			c-0.419,0.49-0.629,1.166-0.629,2.027c0,0.829,0.212,1.483,0.636,1.962s0.991,0.718,1.702,0.718c0.725,0,1.282-0.234,1.671-0.704
			s0.584-1.137,0.584-2.003c0-0.875-0.195-1.55-0.584-2.023S189.992,64.452,189.268,64.452z"/>
		<path fill="#2F2F2F" d="M204.327,70.673h-1.121v-4.02c0-0.774-0.12-1.335-0.359-1.682s-0.642-0.52-1.207-0.52
			c-0.479,0-0.885,0.219-1.22,0.656s-0.502,0.962-0.502,1.572v3.992h-1.121v-4.156c0-1.376-0.531-2.064-1.593-2.064
			c-0.492,0-0.898,0.206-1.217,0.619c-0.319,0.412-0.479,0.948-0.479,1.609v3.992h-1.121v-7h1.121v1.107h0.027
			c0.497-0.848,1.221-1.271,2.174-1.271c0.479,0,0.896,0.133,1.251,0.4c0.355,0.266,0.599,0.616,0.731,1.049
			c0.52-0.966,1.294-1.449,2.324-1.449c1.541,0,2.311,0.95,2.311,2.851V70.673z"/>
		<path fill="#2F2F2F" d="M216.293,70.673h-1.121v-4.02c0-0.774-0.12-1.335-0.359-1.682s-0.642-0.52-1.207-0.52
			c-0.479,0-0.885,0.219-1.22,0.656s-0.502,0.962-0.502,1.572v3.992h-1.121v-4.156c0-1.376-0.531-2.064-1.593-2.064
			c-0.492,0-0.898,0.206-1.217,0.619c-0.319,0.412-0.479,0.948-0.479,1.609v3.992h-1.121v-7h1.121v1.107h0.027
			c0.497-0.848,1.221-1.271,2.174-1.271c0.479,0,0.896,0.133,1.251,0.4c0.355,0.266,0.599,0.616,0.731,1.049
			c0.52-0.966,1.294-1.449,2.324-1.449c1.541,0,2.311,0.95,2.311,2.851V70.673z"/>
		<path fill="#2F2F2F" d="M223.331,70.673h-1.121v-1.094h-0.027c-0.488,0.839-1.206,1.258-2.153,1.258
			c-0.697,0-1.243-0.185-1.637-0.554s-0.591-0.859-0.591-1.47c0-1.308,0.77-2.069,2.311-2.283l2.099-0.294
			c0-1.189-0.481-1.784-1.442-1.784c-0.843,0-1.604,0.287-2.283,0.861v-1.148c0.688-0.438,1.481-0.656,2.379-0.656
			c1.645,0,2.468,0.87,2.468,2.611V70.673z M222.209,67.132l-1.688,0.232c-0.52,0.073-0.912,0.201-1.176,0.387
			c-0.264,0.184-0.396,0.511-0.396,0.98c0,0.342,0.122,0.621,0.366,0.838c0.244,0.216,0.568,0.324,0.974,0.324
			c0.556,0,1.015-0.195,1.377-0.584c0.362-0.391,0.543-0.884,0.543-1.48V67.132z"/>
		<path fill="#2F2F2F" d="M231.161,70.673h-1.121V66.68c0-1.485-0.542-2.229-1.627-2.229c-0.561,0-1.024,0.211-1.391,0.633
			c-0.367,0.421-0.55,0.953-0.55,1.596v3.992h-1.121v-7h1.121v1.162h0.027c0.529-0.884,1.294-1.326,2.297-1.326
			c0.766,0,1.351,0.247,1.757,0.742c0.406,0.494,0.608,1.208,0.608,2.143V70.673z"/>
		<path fill="#2F2F2F" d="M239.235,70.673h-1.121v-1.189h-0.027c-0.52,0.902-1.322,1.354-2.406,1.354
			c-0.879,0-1.583-0.313-2.109-0.939c-0.526-0.627-0.79-1.48-0.79-2.561c0-1.157,0.292-2.085,0.875-2.782s1.36-1.046,2.331-1.046
			c0.961,0,1.661,0.378,2.099,1.135h0.027v-4.334h1.121V70.673z M238.114,67.508v-1.032c0-0.565-0.187-1.044-0.561-1.436
			s-0.848-0.588-1.422-0.588c-0.684,0-1.221,0.251-1.613,0.752s-0.588,1.194-0.588,2.078c0,0.807,0.188,1.443,0.564,1.91
			c0.376,0.468,0.881,0.701,1.514,0.701c0.625,0,1.131-0.226,1.521-0.677S238.114,68.196,238.114,67.508z"/>
		<path fill="#2F2F2F" d="M249.763,60.87L245.06,72.3h-1.046l4.689-11.43H249.763z"/>
		<path fill="#2F2F2F" d="M260.604,70.673h-1.121v-1.189h-0.027c-0.52,0.902-1.322,1.354-2.406,1.354
			c-0.879,0-1.583-0.313-2.109-0.939c-0.526-0.627-0.79-1.48-0.79-2.561c0-1.157,0.292-2.085,0.875-2.782s1.36-1.046,2.331-1.046
			c0.961,0,1.661,0.378,2.099,1.135h0.027v-4.334h1.121V70.673z M259.483,67.508v-1.032c0-0.565-0.187-1.044-0.561-1.436
			s-0.848-0.588-1.422-0.588c-0.684,0-1.221,0.251-1.613,0.752s-0.588,1.194-0.588,2.078c0,0.807,0.188,1.443,0.564,1.91
			c0.376,0.468,0.881,0.701,1.514,0.701c0.625,0,1.131-0.226,1.521-0.677S259.483,68.196,259.483,67.508z"/>
		<path fill="#2F2F2F" d="M265.969,70.673h-1.121v-8.47c-0.086,0.087-0.213,0.186-0.379,0.298c-0.167,0.111-0.353,0.222-0.561,0.331
			s-0.426,0.212-0.656,0.308s-0.455,0.171-0.673,0.226V62.23c0.246-0.068,0.507-0.161,0.783-0.276
			c0.276-0.117,0.547-0.246,0.813-0.391c0.267-0.143,0.519-0.293,0.755-0.451c0.237-0.156,0.442-0.311,0.615-0.461h0.424V70.673z"/>
		<path fill="#2F2F2F" d="M277.959,60.87l-4.703,11.43h-1.046l4.689-11.43H277.959z"/>
		<path fill="#2F2F2F" d="M286.477,64.807c-0.196-0.15-0.479-0.226-0.848-0.226c-0.479,0-0.878,0.226-1.2,0.677
			s-0.482,1.066-0.482,1.846v3.568h-1.121v-7h1.121v1.442h0.027c0.16-0.492,0.403-0.876,0.731-1.151
			c0.328-0.276,0.695-0.414,1.101-0.414c0.292,0,0.515,0.032,0.67,0.096V64.807z"/>
		<path fill="#2F2F2F" d="M293.319,67.453h-4.942c0.018,0.779,0.228,1.381,0.629,1.805s0.953,0.636,1.654,0.636
			c0.789,0,1.513-0.26,2.174-0.779v1.053c-0.615,0.446-1.429,0.67-2.44,0.67c-0.989,0-1.766-0.318-2.331-0.953
			c-0.565-0.637-0.848-1.53-0.848-2.684c0-1.089,0.309-1.977,0.926-2.662c0.618-0.687,1.384-1.029,2.3-1.029
			s1.625,0.296,2.126,0.889s0.752,1.415,0.752,2.468V67.453z M292.171,66.503c-0.004-0.647-0.161-1.15-0.468-1.511
			s-0.735-0.54-1.282-0.54c-0.529,0-0.978,0.189-1.347,0.567s-0.597,0.873-0.684,1.483H292.171z"/>
		<path fill="#2F2F2F" d="M301.02,73.892h-1.121V69.47h-0.027c-0.488,0.911-1.285,1.367-2.393,1.367
			c-0.879,0-1.585-0.313-2.116-0.939c-0.531-0.627-0.796-1.48-0.796-2.561c0-1.162,0.292-2.091,0.875-2.785
			c0.583-0.695,1.367-1.043,2.352-1.043c0.957,0,1.65,0.378,2.078,1.135h0.027v-0.971h1.121V73.892z M299.899,67.521v-1.019
			c0-0.574-0.188-1.06-0.564-1.456s-0.854-0.595-1.432-0.595c-0.674,0-1.208,0.25-1.6,0.748c-0.392,0.5-0.588,1.202-0.588,2.109
			c0,0.807,0.189,1.439,0.567,1.896c0.378,0.459,0.866,0.688,1.463,0.688c0.656,0,1.179-0.225,1.569-0.674
			C299.704,68.771,299.899,68.205,299.899,67.521z"/>
		<path fill="#2F2F2F" d="M308.848,70.673h-1.121v-1.107h-0.027c-0.465,0.848-1.185,1.271-2.16,1.271
			c-1.668,0-2.502-0.993-2.502-2.98v-4.184h1.114v4.006c0,1.477,0.565,2.215,1.695,2.215c0.547,0,0.997-0.201,1.35-0.605
			c0.353-0.402,0.53-0.931,0.53-1.582v-4.033h1.121V70.673z"/>
		<path fill="#2F2F2F" d="M316.667,67.453h-4.942c0.018,0.779,0.228,1.381,0.629,1.805s0.953,0.636,1.654,0.636
			c0.789,0,1.513-0.26,2.174-0.779v1.053c-0.615,0.446-1.429,0.67-2.44,0.67c-0.989,0-1.766-0.318-2.331-0.953
			c-0.565-0.637-0.848-1.53-0.848-2.684c0-1.089,0.309-1.977,0.926-2.662c0.618-0.687,1.384-1.029,2.3-1.029
			s1.625,0.296,2.126,0.889s0.752,1.415,0.752,2.468V67.453z M315.519,66.503c-0.004-0.647-0.161-1.15-0.468-1.511
			s-0.735-0.54-1.282-0.54c-0.529,0-0.978,0.189-1.347,0.567s-0.597,0.873-0.684,1.483H315.519z"/>
		<path fill="#2F2F2F" d="M317.91,70.42v-1.203c0.611,0.451,1.283,0.677,2.017,0.677c0.984,0,1.477-0.328,1.477-0.984
			c0-0.187-0.042-0.346-0.126-0.475c-0.084-0.131-0.198-0.245-0.342-0.346s-0.312-0.19-0.506-0.27
			c-0.194-0.08-0.402-0.163-0.625-0.25c-0.31-0.123-0.582-0.247-0.817-0.373c-0.235-0.125-0.431-0.266-0.588-0.424
			c-0.157-0.156-0.276-0.336-0.355-0.536s-0.12-0.436-0.12-0.704c0-0.328,0.075-0.619,0.226-0.871
			c0.15-0.254,0.351-0.465,0.602-0.637c0.25-0.17,0.537-0.299,0.858-0.386s0.653-0.13,0.995-0.13c0.606,0,1.148,0.104,1.627,0.314
			v1.135c-0.515-0.337-1.107-0.506-1.777-0.506c-0.209,0-0.399,0.023-0.567,0.072c-0.168,0.047-0.313,0.114-0.434,0.201
			s-0.214,0.19-0.28,0.311c-0.066,0.121-0.099,0.255-0.099,0.4c0,0.183,0.033,0.335,0.099,0.458s0.163,0.232,0.291,0.328
			s0.283,0.183,0.465,0.26s0.39,0.162,0.622,0.253c0.31,0.118,0.588,0.24,0.834,0.365c0.246,0.126,0.456,0.268,0.629,0.424
			c0.173,0.158,0.307,0.339,0.4,0.544s0.14,0.449,0.14,0.731c0,0.347-0.076,0.647-0.229,0.902s-0.356,0.467-0.612,0.636
			s-0.549,0.294-0.882,0.376s-0.681,0.123-1.046,0.123C319.062,70.837,318.438,70.698,317.91,70.42z"/>
		<path fill="#2F2F2F" d="M327.563,70.604c-0.264,0.146-0.613,0.219-1.046,0.219c-1.226,0-1.839-0.684-1.839-2.051V64.63h-1.203
			v-0.957h1.203v-1.709l1.121-0.362v2.071h1.764v0.957h-1.764v3.944c0,0.47,0.08,0.805,0.239,1.005s0.424,0.301,0.793,0.301
			c0.283,0,0.526-0.077,0.731-0.232V70.604z"/>
	</g>
	<g>
		<path fill="#2F2F2F" d="M184.745,102.011c-0.538,0.323-1.176,0.485-1.914,0.485c-0.998,0-1.804-0.324-2.417-0.975
			c-0.613-0.648-0.919-1.491-0.919-2.525c0-1.153,0.331-2.079,0.991-2.779c0.661-0.699,1.542-1.049,2.646-1.049
			c0.615,0,1.158,0.114,1.627,0.342v1.148c-0.52-0.364-1.076-0.547-1.668-0.547c-0.715,0-1.302,0.256-1.76,0.77
			c-0.458,0.512-0.687,1.186-0.687,2.02c0,0.82,0.215,1.468,0.646,1.941s1.008,0.711,1.733,0.711c0.611,0,1.185-0.203,1.723-0.608
			V102.011z"/>
		<path fill="#2F2F2F" d="M189.186,102.496c-1.035,0-1.86-0.327-2.478-0.98c-0.618-0.654-0.926-1.521-0.926-2.602
			c0-1.176,0.321-2.094,0.964-2.755s1.511-0.991,2.604-0.991c1.043,0,1.858,0.321,2.444,0.964s0.878,1.533,0.878,2.673
			c0,1.116-0.315,2.011-0.947,2.684C191.094,102.16,190.248,102.496,189.186,102.496z M189.268,96.111
			c-0.72,0-1.29,0.245-1.709,0.734c-0.419,0.49-0.629,1.166-0.629,2.027c0,0.829,0.212,1.483,0.636,1.962s0.991,0.718,1.702,0.718
			c0.725,0,1.282-0.234,1.671-0.704s0.584-1.137,0.584-2.003c0-0.875-0.195-1.55-0.584-2.023S189.992,96.111,189.268,96.111z"/>
		<path fill="#2F2F2F" d="M204.327,102.332h-1.121v-4.02c0-0.774-0.12-1.335-0.359-1.682s-0.642-0.52-1.207-0.52
			c-0.479,0-0.885,0.219-1.22,0.656s-0.502,0.962-0.502,1.572v3.992h-1.121v-4.156c0-1.376-0.531-2.064-1.593-2.064
			c-0.492,0-0.898,0.206-1.217,0.619c-0.319,0.412-0.479,0.948-0.479,1.609v3.992h-1.121v-7h1.121v1.107h0.027
			c0.497-0.848,1.221-1.271,2.174-1.271c0.479,0,0.896,0.133,1.251,0.4c0.355,0.266,0.599,0.616,0.731,1.049
			c0.52-0.966,1.294-1.449,2.324-1.449c1.541,0,2.311,0.95,2.311,2.851V102.332z"/>
		<path fill="#2F2F2F" d="M216.293,102.332h-1.121v-4.02c0-0.774-0.12-1.335-0.359-1.682s-0.642-0.52-1.207-0.52
			c-0.479,0-0.885,0.219-1.22,0.656s-0.502,0.962-0.502,1.572v3.992h-1.121v-4.156c0-1.376-0.531-2.064-1.593-2.064
			c-0.492,0-0.898,0.206-1.217,0.619c-0.319,0.412-0.479,0.948-0.479,1.609v3.992h-1.121v-7h1.121v1.107h0.027
			c0.497-0.848,1.221-1.271,2.174-1.271c0.479,0,0.896,0.133,1.251,0.4c0.355,0.266,0.599,0.616,0.731,1.049
			c0.52-0.966,1.294-1.449,2.324-1.449c1.541,0,2.311,0.95,2.311,2.851V102.332z"/>
		<path fill="#2F2F2F" d="M223.331,102.332h-1.121v-1.094h-0.027c-0.488,0.839-1.206,1.258-2.153,1.258
			c-0.697,0-1.243-0.185-1.637-0.554s-0.591-0.859-0.591-1.47c0-1.308,0.77-2.069,2.311-2.283l2.099-0.294
			c0-1.189-0.481-1.784-1.442-1.784c-0.843,0-1.604,0.287-2.283,0.861v-1.148c0.688-0.438,1.481-0.656,2.379-0.656
			c1.645,0,2.468,0.87,2.468,2.611V102.332z M222.209,98.791l-1.688,0.232c-0.52,0.073-0.912,0.201-1.176,0.387
			c-0.264,0.184-0.396,0.511-0.396,0.98c0,0.342,0.122,0.621,0.366,0.838c0.244,0.216,0.568,0.324,0.974,0.324
			c0.556,0,1.015-0.195,1.377-0.584c0.362-0.391,0.543-0.884,0.543-1.48V98.791z"/>
		<path fill="#2F2F2F" d="M231.161,102.332h-1.121V98.34c0-1.485-0.542-2.229-1.627-2.229c-0.561,0-1.024,0.211-1.391,0.633
			c-0.367,0.421-0.55,0.953-0.55,1.596v3.992h-1.121v-7h1.121v1.162h0.027c0.529-0.884,1.294-1.326,2.297-1.326
			c0.766,0,1.351,0.247,1.757,0.742c0.406,0.494,0.608,1.208,0.608,2.143V102.332z"/>
		<path fill="#2F2F2F" d="M239.235,102.332h-1.121v-1.189h-0.027c-0.52,0.902-1.322,1.354-2.406,1.354
			c-0.879,0-1.583-0.313-2.109-0.939c-0.526-0.627-0.79-1.48-0.79-2.561c0-1.157,0.292-2.085,0.875-2.782s1.36-1.046,2.331-1.046
			c0.961,0,1.661,0.378,2.099,1.135h0.027v-4.334h1.121V102.332z M238.114,99.167v-1.032c0-0.565-0.187-1.044-0.561-1.436
			s-0.848-0.588-1.422-0.588c-0.684,0-1.221,0.251-1.613,0.752s-0.588,1.194-0.588,2.078c0,0.807,0.188,1.443,0.564,1.91
			c0.376,0.468,0.881,0.701,1.514,0.701c0.625,0,1.131-0.226,1.521-0.677S238.114,99.855,238.114,99.167z"/>
		<path fill="#2F2F2F" d="M249.763,92.529l-4.703,11.43h-1.046l4.689-11.43H249.763z"/>
		<path fill="#2F2F2F" d="M260.604,102.332h-1.121v-1.189h-0.027c-0.52,0.902-1.322,1.354-2.406,1.354
			c-0.879,0-1.583-0.313-2.109-0.939c-0.526-0.627-0.79-1.48-0.79-2.561c0-1.157,0.292-2.085,0.875-2.782s1.36-1.046,2.331-1.046
			c0.961,0,1.661,0.378,2.099,1.135h0.027v-4.334h1.121V102.332z M259.483,99.167v-1.032c0-0.565-0.187-1.044-0.561-1.436
			s-0.848-0.588-1.422-0.588c-0.684,0-1.221,0.251-1.613,0.752s-0.588,1.194-0.588,2.078c0,0.807,0.188,1.443,0.564,1.91
			c0.376,0.468,0.881,0.701,1.514,0.701c0.625,0,1.131-0.226,1.521-0.677S259.483,99.855,259.483,99.167z"/>
		<path fill="#2F2F2F" d="M265.969,102.332h-1.121v-8.47c-0.086,0.087-0.213,0.186-0.379,0.298
			c-0.167,0.111-0.353,0.222-0.561,0.331s-0.426,0.212-0.656,0.308s-0.455,0.171-0.673,0.226v-1.135
			c0.246-0.068,0.507-0.161,0.783-0.276c0.276-0.117,0.547-0.246,0.813-0.391c0.267-0.143,0.519-0.293,0.755-0.451
			c0.237-0.156,0.442-0.311,0.615-0.461h0.424V102.332z"/>
		<path fill="#2F2F2F" d="M277.959,92.529l-4.703,11.43h-1.046l4.689-11.43H277.959z"/>
		<path fill="#2F2F2F" d="M286.477,96.467c-0.196-0.15-0.479-0.226-0.848-0.226c-0.479,0-0.878,0.226-1.2,0.677
			s-0.482,1.066-0.482,1.846v3.568h-1.121v-7h1.121v1.442h0.027c0.16-0.492,0.403-0.876,0.731-1.151
			c0.328-0.276,0.695-0.414,1.101-0.414c0.292,0,0.515,0.032,0.67,0.096V96.467z"/>
		<path fill="#2F2F2F" d="M293.319,99.112h-4.942c0.018,0.779,0.228,1.381,0.629,1.805s0.953,0.636,1.654,0.636
			c0.789,0,1.513-0.26,2.174-0.779v1.053c-0.615,0.446-1.429,0.67-2.44,0.67c-0.989,0-1.766-0.318-2.331-0.953
			c-0.565-0.637-0.848-1.53-0.848-2.684c0-1.089,0.309-1.977,0.926-2.662c0.618-0.687,1.384-1.029,2.3-1.029
			s1.625,0.296,2.126,0.889s0.752,1.415,0.752,2.468V99.112z M292.171,98.162c-0.004-0.647-0.161-1.15-0.468-1.511
			s-0.735-0.54-1.282-0.54c-0.529,0-0.978,0.189-1.347,0.567s-0.597,0.873-0.684,1.483H292.171z"/>
		<path fill="#2F2F2F" d="M294.562,102.079v-1.203c0.611,0.451,1.283,0.677,2.017,0.677c0.984,0,1.477-0.328,1.477-0.984
			c0-0.187-0.042-0.346-0.126-0.475c-0.084-0.131-0.198-0.245-0.342-0.346s-0.312-0.19-0.506-0.27
			c-0.194-0.08-0.402-0.163-0.625-0.25c-0.31-0.123-0.582-0.247-0.817-0.373c-0.235-0.125-0.431-0.266-0.588-0.424
			c-0.157-0.156-0.276-0.336-0.355-0.536s-0.12-0.436-0.12-0.704c0-0.328,0.075-0.619,0.226-0.871
			c0.15-0.254,0.351-0.465,0.602-0.637c0.25-0.17,0.537-0.299,0.858-0.386s0.653-0.13,0.995-0.13c0.606,0,1.148,0.104,1.627,0.314
			v1.135c-0.515-0.337-1.107-0.506-1.777-0.506c-0.209,0-0.399,0.023-0.567,0.072c-0.168,0.047-0.313,0.114-0.434,0.201
			s-0.214,0.19-0.28,0.311c-0.066,0.121-0.099,0.255-0.099,0.4c0,0.183,0.033,0.335,0.099,0.458s0.163,0.232,0.291,0.328
			s0.283,0.183,0.465,0.26s0.39,0.162,0.622,0.253c0.31,0.118,0.588,0.24,0.834,0.365c0.246,0.126,0.456,0.268,0.629,0.424
			c0.173,0.158,0.307,0.339,0.4,0.544s0.14,0.449,0.14,0.731c0,0.347-0.076,0.647-0.229,0.902s-0.356,0.467-0.612,0.636
			s-0.549,0.294-0.882,0.376s-0.681,0.123-1.046,0.123C295.714,102.496,295.09,102.357,294.562,102.079z"/>
		<path fill="#2F2F2F" d="M301.936,101.32h-0.027v4.231h-1.121v-10.22h1.121v1.23h0.027c0.551-0.93,1.358-1.395,2.42-1.395
			c0.902,0,1.606,0.313,2.112,0.939c0.506,0.627,0.759,1.467,0.759,2.52c0,1.171-0.285,2.109-0.854,2.812
			c-0.57,0.705-1.349,1.057-2.338,1.057C303.127,102.496,302.428,102.104,301.936,101.32z M301.908,98.497v0.978
			c0,0.579,0.188,1.07,0.564,1.473c0.376,0.404,0.854,0.605,1.432,0.605c0.679,0,1.211-0.26,1.596-0.779s0.578-1.242,0.578-2.167
			c0-0.779-0.18-1.39-0.54-1.832s-0.848-0.663-1.463-0.663c-0.652,0-1.176,0.227-1.572,0.68
			C302.106,97.245,301.908,97.813,301.908,98.497z"/>
		<path fill="#2F2F2F" d="M311.932,102.496c-1.035,0-1.86-0.327-2.478-0.98c-0.618-0.654-0.926-1.521-0.926-2.602
			c0-1.176,0.321-2.094,0.964-2.755s1.511-0.991,2.604-0.991c1.043,0,1.858,0.321,2.444,0.964s0.878,1.533,0.878,2.673
			c0,1.116-0.315,2.011-0.947,2.684C313.84,102.16,312.994,102.496,311.932,102.496z M312.014,96.111
			c-0.72,0-1.29,0.245-1.709,0.734c-0.419,0.49-0.629,1.166-0.629,2.027c0,0.829,0.212,1.483,0.636,1.962s0.991,0.718,1.702,0.718
			c0.725,0,1.282-0.234,1.671-0.704s0.584-1.137,0.584-2.003c0-0.875-0.195-1.55-0.584-2.023S312.739,96.111,312.014,96.111z"/>
		<path fill="#2F2F2F" d="M322.944,102.332h-1.121V98.34c0-1.485-0.542-2.229-1.627-2.229c-0.561,0-1.024,0.211-1.391,0.633
			c-0.367,0.421-0.55,0.953-0.55,1.596v3.992h-1.121v-7h1.121v1.162h0.027c0.529-0.884,1.294-1.326,2.297-1.326
			c0.766,0,1.351,0.247,1.757,0.742c0.406,0.494,0.608,1.208,0.608,2.143V102.332z"/>
		<path fill="#2F2F2F" d="M324.592,102.079v-1.203c0.611,0.451,1.283,0.677,2.017,0.677c0.984,0,1.477-0.328,1.477-0.984
			c0-0.187-0.042-0.346-0.126-0.475c-0.084-0.131-0.198-0.245-0.342-0.346s-0.312-0.19-0.506-0.27
			c-0.194-0.08-0.402-0.163-0.625-0.25c-0.31-0.123-0.582-0.247-0.817-0.373c-0.235-0.125-0.431-0.266-0.588-0.424
			c-0.157-0.156-0.276-0.336-0.355-0.536s-0.12-0.436-0.12-0.704c0-0.328,0.075-0.619,0.226-0.871
			c0.15-0.254,0.351-0.465,0.602-0.637c0.25-0.17,0.537-0.299,0.858-0.386s0.653-0.13,0.995-0.13c0.606,0,1.148,0.104,1.627,0.314
			v1.135c-0.515-0.337-1.107-0.506-1.777-0.506c-0.209,0-0.399,0.023-0.567,0.072c-0.168,0.047-0.313,0.114-0.434,0.201
			s-0.214,0.19-0.28,0.311c-0.066,0.121-0.099,0.255-0.099,0.4c0,0.183,0.033,0.335,0.099,0.458s0.163,0.232,0.291,0.328
			s0.283,0.183,0.465,0.26s0.39,0.162,0.622,0.253c0.31,0.118,0.588,0.24,0.834,0.365c0.246,0.126,0.456,0.268,0.629,0.424
			c0.173,0.158,0.307,0.339,0.4,0.544s0.14,0.449,0.14,0.731c0,0.347-0.076,0.647-0.229,0.902s-0.356,0.467-0.612,0.636
			s-0.549,0.294-0.882,0.376s-0.681,0.123-1.046,0.123C325.745,102.496,325.121,102.357,324.592,102.079z"/>
		<path fill="#2F2F2F" d="M336.547,99.112h-4.942c0.018,0.779,0.228,1.381,0.629,1.805s0.953,0.636,1.654,0.636
			c0.789,0,1.513-0.26,2.174-0.779v1.053c-0.615,0.446-1.429,0.67-2.44,0.67c-0.989,0-1.766-0.318-2.331-0.953
			c-0.565-0.637-0.848-1.53-0.848-2.684c0-1.089,0.309-1.977,0.926-2.662c0.618-0.687,1.384-1.029,2.3-1.029
			s1.625,0.296,2.126,0.889s0.752,1.415,0.752,2.468V99.112z M335.399,98.162c-0.004-0.647-0.161-1.15-0.468-1.511
			s-0.735-0.54-1.282-0.54c-0.529,0-0.978,0.189-1.347,0.567s-0.597,0.873-0.684,1.483H335.399z"/>
	</g>
	<g>
		<path fill="#2F2F2F" d="M828.757,49.809v-9.803h2.707c3.455,0,5.182,1.593,5.182,4.778c0,1.513-0.479,2.729-1.438,3.647
			c-0.96,0.918-2.243,1.377-3.853,1.377H828.757z M829.905,41.046v7.725h1.463c1.285,0,2.286-0.344,3.001-1.032
			c0.716-0.688,1.073-1.663,1.073-2.926c0-2.511-1.335-3.767-4.006-3.767H829.905z"/>
		<path fill="#2F2F2F" d="M844.022,46.59h-4.942c0.019,0.779,0.229,1.381,0.629,1.805c0.401,0.424,0.953,0.636,1.654,0.636
			c0.789,0,1.514-0.26,2.174-0.779v1.053c-0.615,0.446-1.429,0.67-2.44,0.67c-0.988,0-1.766-0.318-2.331-0.953
			c-0.564-0.637-0.848-1.53-0.848-2.684c0-1.089,0.309-1.977,0.927-2.662c0.617-0.687,1.384-1.029,2.3-1.029
			s1.625,0.296,2.126,0.889c0.502,0.593,0.752,1.415,0.752,2.468V46.59z M842.874,45.639c-0.004-0.647-0.16-1.15-0.468-1.511
			s-0.735-0.54-1.282-0.54c-0.528,0-0.978,0.189-1.347,0.567s-0.597,0.873-0.684,1.483H842.874z"/>
		<path fill="#2F2F2F" d="M851.16,42.809l-2.789,7h-1.101l-2.652-7h1.23l1.777,5.086c0.133,0.374,0.215,0.699,0.246,0.978h0.027
			c0.046-0.351,0.119-0.668,0.219-0.95l1.859-5.113H851.16z"/>
		<path fill="#2F2F2F" d="M852.976,41.032c-0.2,0-0.371-0.068-0.513-0.205c-0.141-0.137-0.212-0.31-0.212-0.52
			s0.071-0.384,0.212-0.523c0.142-0.139,0.312-0.208,0.513-0.208c0.205,0,0.38,0.069,0.523,0.208
			c0.144,0.14,0.215,0.313,0.215,0.523c0,0.2-0.071,0.371-0.215,0.513S853.181,41.032,852.976,41.032z M853.522,49.809h-1.121v-7
			h1.121V49.809z"/>
		<path fill="#2F2F2F" d="M860.435,49.488c-0.537,0.323-1.176,0.485-1.914,0.485c-0.998,0-1.804-0.324-2.416-0.975
			c-0.613-0.648-0.92-1.491-0.92-2.525c0-1.153,0.331-2.079,0.991-2.779c0.661-0.699,1.543-1.049,2.646-1.049
			c0.615,0,1.158,0.114,1.627,0.342v1.148c-0.52-0.364-1.075-0.547-1.668-0.547c-0.715,0-1.302,0.256-1.76,0.77
			c-0.458,0.512-0.688,1.186-0.688,2.02c0,0.82,0.216,1.468,0.646,1.941s1.008,0.711,1.732,0.711c0.611,0,1.186-0.203,1.723-0.608
			V49.488z"/>
		<path fill="#2F2F2F" d="M867.604,46.59h-4.942c0.019,0.779,0.229,1.381,0.629,1.805c0.401,0.424,0.953,0.636,1.654,0.636
			c0.789,0,1.514-0.26,2.174-0.779v1.053c-0.615,0.446-1.429,0.67-2.44,0.67c-0.988,0-1.766-0.318-2.331-0.953
			c-0.564-0.637-0.848-1.53-0.848-2.684c0-1.089,0.309-1.977,0.927-2.662c0.617-0.687,1.384-1.029,2.3-1.029
			s1.625,0.296,2.126,0.889c0.502,0.593,0.752,1.415,0.752,2.468V46.59z M866.456,45.639c-0.004-0.647-0.16-1.15-0.468-1.511
			s-0.735-0.54-1.282-0.54c-0.528,0-0.978,0.189-1.347,0.567s-0.597,0.873-0.684,1.483H866.456z"/>
	</g>
</g>
<g id="Layer_1">
</g>
<g id="_x3C_Layer_x3E_">
</g>
</svg>
