<?xml version="1.0" encoding="utf-8"?>
<!-- Generator: Adobe Illustrator 27.4.0, SVG Export Plug-In . SVG Version: 6.00 Build 0)  -->
<svg version="1.1" xmlns="http://www.w3.org/2000/svg" xmlns:xlink="http://www.w3.org/1999/xlink" x="0px" y="0px"
	 viewBox="0 0 457.6 220.8" enable-background="new 0 0 457.6 220.8" xml:space="preserve">
<symbol  id="PIPELINE" viewBox="-32 -12.266 64 24.531">
	<linearGradient id="SVGID_1_" gradientUnits="userSpaceOnUse" x1="0" y1="-12.2655" x2="1.502093e-15" y2="12.2655">
		<stop  offset="0" style="stop-color:#1B89B2"/>
		<stop  offset="1" style="stop-color:#51C8E8"/>
	</linearGradient>
	<path fill="url(#SVGID_1_)" d="M26.096,12.266h-51.448v0h0C-29.08,12.265-32,6.878-32,0s2.92-12.265,6.648-12.265h0v0h51.448
		C29.356-12.266,32-6.363,32,0S29.356,12.266,26.096,12.266z"/>
	<g>
		
			<linearGradient id="SVGID_00000098184250817360428650000009150245958099255429_" gradientUnits="userSpaceOnUse" x1="-31.461" y1="-6.1136" x2="-19.2338" y2="6.1136">
			<stop  offset="0" style="stop-color:#B3B4B4"/>
			<stop  offset="1" style="stop-color:#4F4F4F"/>
		</linearGradient>
		<ellipse fill="url(#SVGID_00000098184250817360428650000009150245958099255429_)" cx="-25.347" cy="0" rx="5.575" ry="10.879"/>
	</g>
</symbol>
<g id="Shapes">
	<rect fill="#FFFFFF" width="457.6" height="220.8"/>
	<g>
		<rect x="13.2" y="30.8" fill="#FFFFFF" width="435.6" height="181.2"/>
		<rect x="13.2" y="30.8" opacity="0.15" fill="#1B93EB" width="435.6" height="181.2"/>
	</g>
	<g>
		<path fill="#FFFFFF" d="M431.2,163.6c0,4.4-3.6,8-8,8H273.738c-4.4,0-8-3.6-8-8V56.4c0-4.4,3.6-8,8-8H423.2c4.4,0,8,3.6,8,8V163.6
			z"/>
		<path opacity="0.15" fill="#949494" d="M431.2,163.6c0,4.4-3.6,8-8,8H273.738c-4.4,0-8-3.6-8-8V56.4c0-4.4,3.6-8,8-8H423.2
			c4.4,0,8,3.6,8,8V163.6z"/>
		<path opacity="0.4" fill="none" stroke="#767676" stroke-linejoin="round" d="M431.2,163.6c0,4.4-3.6,8-8,8H273.738
			c-4.4,0-8-3.6-8-8V56.4c0-4.4,3.6-8,8-8H423.2c4.4,0,8,3.6,8,8V163.6z"/>
		<path fill="none" stroke="#767676" stroke-linejoin="bevel" stroke-dasharray="1.9983,1.9983" d="M431.2,163.6c0,4.4-3.6,8-8,8
			H273.738c-4.4,0-8-3.6-8-8V56.4c0-4.4,3.6-8,8-8H423.2c4.4,0,8,3.6,8,8V163.6z"/>
	</g>
	<g>
		<path fill="#FFFFFF" stroke="#767676" stroke-width="0.25" d="M290.9,159.4h-22.162c-1.657,0-3,1.343-3,3v15c0,1.657,1.343,3,3,3
			H290.9c1.657,0,3-1.343,3-3v-15C293.9,160.743,292.557,159.4,290.9,159.4z"/>
		<g>
			
				<linearGradient id="SVGID_00000095311280897279121120000007412929615790074249_" gradientUnits="userSpaceOnUse" x1="-283.5791" y1="-425.9218" x2="-281.5381" y2="-427.9627" gradientTransform="matrix(1 -0.0014 -0.0014 -1 566.4413 -257.4428)">
				<stop  offset="0" style="stop-color:#86D633"/>
				<stop  offset="1" style="stop-color:#5E9624"/>
			</linearGradient>
			<circle fill="url(#SVGID_00000095311280897279121120000007412929615790074249_)" cx="284.473" cy="169.889" r="1.443"/>
			
				<linearGradient id="SVGID_00000111149298339374014930000008402867742412171422_" gradientUnits="userSpaceOnUse" x1="-286.1531" y1="-424.6653" x2="-284.1252" y2="-426.7057" gradientTransform="matrix(1 0 0 -1 564 -256.8)">
				<stop  offset="0" style="stop-color:#86D633"/>
				<stop  offset="1" style="stop-color:#5E9624"/>
			</linearGradient>
			<circle fill="url(#SVGID_00000111149298339374014930000008402867742412171422_)" cx="279.87" cy="169.901" r="1.443"/>
			
				<linearGradient id="SVGID_00000176021916275144457270000001351835463792263560_" gradientUnits="userSpaceOnUse" x1="-290.7564" y1="-424.6653" x2="-288.7285" y2="-426.7057" gradientTransform="matrix(1 0 0 -1 564 -256.8)">
				<stop  offset="0" style="stop-color:#86D633"/>
				<stop  offset="1" style="stop-color:#5E9624"/>
			</linearGradient>
			<circle fill="url(#SVGID_00000176021916275144457270000001351835463792263560_)" cx="275.267" cy="169.901" r="1.443"/>
			<path fill="#50E6FF" d="M276.315,175.671l-0.826,0.828c-0.146,0.146-0.382,0.146-0.528,0.001l0,0l-6.114-6.097
				c-0.292-0.291-0.293-0.764-0.001-1.056l0,0l0.826-0.828l0,0l6.642,6.624C276.46,175.288,276.46,175.525,276.315,175.671
				L276.315,175.671z"/>
			<path fill="#1490DF" d="M275.364,163.317l0.828,0.826c0.146,0.146,0.146,0.382,0.001,0.528l-6.527,6.546l0,0l-0.828-0.826
				c-0.292-0.291-0.293-0.764-0.001-1.056l0,0l6-6.017C274.982,163.172,275.218,163.172,275.364,163.317z"/>
			<path fill="#50E6FF" d="M289.968,168.508l0.826,0.828c0.291,0.292,0.29,0.765-0.001,1.056l0,0l-6.114,6.097
				c-0.146,0.146-0.382,0.145-0.528-0.001l0,0l-0.826-0.828c-0.146-0.146-0.145-0.382,0.001-0.528l0,0L289.968,168.508
				L289.968,168.508z"/>
			<path fill="#1490DF" d="M290.792,170.383l-0.828,0.826l0,0l-6.527-6.546c-0.146-0.146-0.145-0.382,0.001-0.528l0,0l0.837-0.835
				c0.146-0.146,0.382-0.145,0.528,0.001l0,0l6,6.017c0.291,0.292,0.29,0.765-0.001,1.056l0,0L290.792,170.383z"/>
		</g>
	</g>
	<g>
		
			<linearGradient id="SVGID_00000094610495751589862860000003255744268887561128_" gradientUnits="userSpaceOnUse" x1="26.2256" y1="-502.6232" x2="16.4412" y2="-531.5286" gradientTransform="matrix(1 0 0 -1 0 -490.8)">
			<stop  offset="0" style="stop-color:#114A8B"/>
			<stop  offset="1" style="stop-color:#0669BC"/>
		</linearGradient>
		<path fill="url(#SVGID_00000094610495751589862860000003255744268887561128_)" d="M21.369,10.62c0.206-0.61,0.778-1.02,1.421-1.02
			h9.423l-9.781,28.98c-0.206,0.61-0.778,1.02-1.421,1.02h-7.334c-1.026,0-1.749-1.007-1.421-1.98L21.369,10.62z"/>
		<path fill="#0078D4" d="M36.433,29.1H21.583c-0.624,0-0.925,0.764-0.469,1.19l9.543,8.906C30.934,39.456,31.3,39.6,31.68,39.6
			h8.409L36.433,29.1z"/>
		
			<linearGradient id="SVGID_00000086693594387016508190000006904101782084156071_" gradientUnits="userSpaceOnUse" x1="29.211" y1="-515.9764" x2="26.8911" y2="-516.7678" gradientTransform="matrix(1 0 0 -1 0 -490.8)">
			<stop  offset="0" style="stop-color:#000000;stop-opacity:0.3"/>
			<stop  offset="0.0712" style="stop-color:#000000;stop-opacity:0.2"/>
			<stop  offset="0.321" style="stop-color:#000000;stop-opacity:0.1"/>
			<stop  offset="0.6231" style="stop-color:#000000;stop-opacity:0.05"/>
			<stop  offset="1" style="stop-color:#000000;stop-opacity:0"/>
		</linearGradient>
		<path fill="url(#SVGID_00000086693594387016508190000006904101782084156071_)" d="M32.213,9.6h-10.5l-10.125,30h10.5l2.156-6.388
			l6.844,6.388h9l-3.655-10.5H25.632L32.213,9.6z"/>
		
			<linearGradient id="SVGID_00000026148805108087600190000016193419297503294379_" gradientUnits="userSpaceOnUse" x1="28.0197" y1="-501.7798" x2="38.7598" y2="-530.3942" gradientTransform="matrix(1 0 0 -1 0 -490.8)">
			<stop  offset="0" style="stop-color:#3CCBF4"/>
			<stop  offset="1" style="stop-color:#2892DF"/>
		</linearGradient>
		<path fill="url(#SVGID_00000026148805108087600190000016193419297503294379_)" d="M34.808,10.62
			c-0.206-0.61-0.778-1.02-1.421-1.02H22.838h0.048c0.644,0,1.215,0.411,1.421,1.02l9.112,27c0.328,0.972-0.395,1.98-1.421,1.98
			h-0.161h10.661c1.026,0,1.749-1.007,1.421-1.98L34.808,10.62z"/>
	</g>
	<g id="Wrench_tool_x28_s_x29_">
	</g>
	<g id="user2">
	</g>
	<g id="user2_1_">
	</g>
	<g id="user2_4_">
	</g>
	<g id="user2_3_">
	</g>
	<g id="user2_2_">
	</g>
	<g id="Internet_2">
	</g>
	<g id="Enterprise">
	</g>
	<g id="Tunnel__x28_stackable_x29_">
	</g>
	<g id="New_Symbol">
	</g>
	<g id="New_Symbol_1">
	</g>
	<g id="Files">
	</g>
	<g id="BlobBlock">
	</g>
	<g id="E_x5F_Enterprise">
	</g>
	<g id="E_x5F_AD_FS">
	</g>
	<g id="C_x5F_Azure_Active_Directory">
	</g>
	<g>
		<g>
			<line fill="none" stroke="#0078D4" stroke-miterlimit="10" x1="105.6" y1="125.566" x2="296.635" y2="125.566"/>
			<g>
				<g>
					<path fill="#FFFFFF" d="M296.475,128.385c1.557,0,2.82-1.263,2.82-2.82s-1.263-2.82-2.82-2.82c-1.557,0-2.82,1.263-2.82,2.82
						S294.918,128.385,296.475,128.385z"/>
					<path fill="#0078D4" d="M296.475,128.76c-1.761,0-3.195-1.433-3.195-3.195s1.433-3.195,3.195-3.195
						c1.762,0,3.195,1.433,3.195,3.195S298.237,128.76,296.475,128.76C294.714,128.76,298.237,128.76,296.475,128.76z
						 M296.475,123.121c-1.348,0-2.445,1.096-2.445,2.445s1.096,2.445,2.445,2.445c1.348,0,2.445-1.096,2.445-2.445
						S297.823,123.121,296.475,123.121C295.127,123.121,297.823,123.121,296.475,123.121z"/>
				</g>
			</g>
		</g>
	</g>
	<g>
		<g id="b30b0bd5-e4d2-456b-8d49-c2df20200912_00000106139936340497900690000000664867450536703625_">
			<path id="b51878b5-8d50-4b8b-bc48-74f5f7315a99_00000016757204574649801090000001766528112607797674_" fill="#33BEDD" d="
				M80.464,122.886v-1.982H65.537l-7.001,6.968h-5.152l11.955-12.087h8.157v-1.882h-8.983l-13.937,13.97h-1.982v1.982h5.978
				l7.067,6.968h16.843v-1.982H62.367l-4.987-4.987H69.5v-1.982h-8.124l4.954-4.987H80.464z"/>
			
				<circle id="ad0ed4eb-cd5f-4cc0-bd19-2830d27ec806_00000115503283699127253620000007913908978276200616_" fill="#FFFFFF" cx="71.481" cy="128.864" r="2.873"/>
			
				<circle id="a2746b4a-0ae4-4308-876e-5b82657e1872_00000085246488760872665990000003322374165460294289_" fill="#FFFFFF" cx="74.487" cy="114.927" r="2.873"/>
			
				<circle id="fc3316e0-7094-4ce0-99ed-43f1e6e4350c_00000104683259808703204040000009599633447759815824_" fill="#FFFFFF" cx="81.455" cy="121.896" r="2.873"/>
			
				<circle id="b5d18443-d50e-4590-8e8f-80b6a7f6d348_00000145752786249412992870000003308452857489291941_" fill="#FFFFFF" cx="78.483" cy="135.832" r="2.873"/>
			<circle fill="#50E6FF" cx="74.388" cy="114.927" r="3.468"/>
			
				<linearGradient id="SVGID_00000093158091950042930160000012951150686597292676_" gradientUnits="userSpaceOnUse" x1="4233.2319" y1="6808.5391" x2="4233.2319" y2="6822.3765" gradientTransform="matrix(0.5 0 0 0.5 -2035.26 -3306.02)">
				<stop  offset="0" style="stop-color:#C69AEB"/>
				<stop  offset="1" style="stop-color:#6F4BB2"/>
			</linearGradient>
			<circle fill="url(#SVGID_00000093158091950042930160000012951150686597292676_)" cx="81.356" cy="121.896" r="3.468"/>
			
				<linearGradient id="SVGID_00000124858580528544906220000016671144686986266267_" gradientUnits="userSpaceOnUse" x1="4227.4858" y1="6836.4458" x2="4227.4858" y2="6850.2495" gradientTransform="matrix(0.5 0 0 0.5 -2035.26 -3306.02)">
				<stop  offset="0" style="stop-color:#C69AEB"/>
				<stop  offset="1" style="stop-color:#6F4BB2"/>
			</linearGradient>
			<circle fill="url(#SVGID_00000124858580528544906220000016671144686986266267_)" cx="78.483" cy="135.832" r="3.468"/>
			<circle fill="#50E6FF" cx="71.481" cy="128.864" r="3.468"/>
			<g>
				<path fill="#999999" d="M42.056,100.694h4.26l0,0v11.79c0,0.529-0.429,0.958-0.958,0.958h-4.227
					c-0.529,0-0.958-0.429-0.958-0.958l0,0v-9.908C40.174,101.536,41.016,100.694,42.056,100.694L42.056,100.694z"/>
				<path opacity="0.5" fill="#999999" enable-background="new    " d="M42.056,100.694h4.26l0,0v11.79
					c0,0.529-0.429,0.958-0.958,0.958h-4.227c-0.529,0-0.958-0.429-0.958-0.958l0,0v-9.908
					C40.174,101.536,41.016,100.694,42.056,100.694L42.056,100.694z"/>
			</g>
			<g>
				<path fill="#999999" d="M90.174,100.694h4.26c1.04,0,1.882,0.843,1.882,1.882v9.908c0,0.529-0.429,0.958-0.958,0.958l0,0h-4.26
					c-0.516-0.018-0.925-0.441-0.925-0.958V100.694L90.174,100.694z"/>
				<path opacity="0.5" fill="#999999" enable-background="new    " d="M90.174,100.694h4.26c1.04,0,1.882,0.843,1.882,1.882v9.908
					c0,0.529-0.429,0.958-0.958,0.958l0,0h-4.26c-0.516-0.018-0.925-0.441-0.925-0.958V100.694L90.174,100.694z"/>
			</g>
			<path fill="#949494" d="M96.316,102.576v4.128l0,0H40.174l0,0v-4.128c0-1.04,0.843-1.882,1.882-1.882h52.411
				C95.494,100.712,96.317,101.549,96.316,102.576z"/>
			<g>
				<path fill="#999999" d="M41.131,137.847h4.26c0.529,0,0.958,0.429,0.958,0.958v11.889l0,0h-4.293
					c-1.04,0-1.882-0.843-1.882-1.882v-9.908c-0.055-0.526,0.327-0.997,0.854-1.052C41.062,137.848,41.097,137.847,41.131,137.847z"
					/>
				<path opacity="0.5" fill="#999999" enable-background="new    " d="M41.131,137.847h4.26c0.529,0,0.958,0.429,0.958,0.958
					v11.889l0,0h-4.293c-1.04,0-1.882-0.843-1.882-1.882v-9.908c-0.055-0.526,0.327-0.997,0.854-1.052
					C41.062,137.848,41.097,137.847,41.131,137.847z"/>
			</g>
			<g>
				<path fill="#999999" d="M91.098,137.847h4.26c0.529,0,0.958,0.429,0.958,0.958l0,0v9.908c0,1.04-0.843,1.882-1.882,1.882l0,0
					h-4.26l0,0v-11.691c-0.055-0.526,0.327-0.997,0.853-1.052C91.051,137.849,91.074,137.847,91.098,137.847z"/>
				<path opacity="0.5" fill="#999999" enable-background="new    " d="M91.098,137.847h4.26c0.529,0,0.958,0.429,0.958,0.958l0,0
					v9.908c0,1.04-0.843,1.882-1.882,1.882l0,0h-4.26l0,0v-11.691c-0.055-0.526,0.327-0.997,0.853-1.052
					C91.051,137.849,91.074,137.847,91.098,137.847z"/>
			</g>
			<path fill="#949494" d="M40.174,148.811v-4.128l0,0h56.143l0,0v4.128c0,1.04-0.843,1.882-1.882,1.882H42.056
				C41.016,150.694,40.174,149.851,40.174,148.811z"/>
		</g>
	</g>
	<g>
		<g>
			<line fill="none" stroke="#3C3C41" stroke-miterlimit="10" x1="303.138" y1="125.566" x2="346.155" y2="125.566"/>
			<g>
				<polygon fill="#3C3C41" points="345.061,129.305 351.538,125.566 345.061,121.826 				"/>
			</g>
		</g>
	</g>
	<g>
		
			<linearGradient id="SVGID_00000022524866251113779330000014696980907033853313_" gradientUnits="userSpaceOnUse" x1="-187.8679" y1="-399.0353" x2="-187.8679" y2="-365.0353" gradientTransform="matrix(1 0 0 -1 564 -256.8)">
			<stop  offset="0" style="stop-color:#5E9624"/>
			<stop  offset="0.01" style="stop-color:#5E9724"/>
			<stop  offset="0.35" style="stop-color:#6CAB29"/>
			<stop  offset="0.68" style="stop-color:#73B82C"/>
			<stop  offset="1" style="stop-color:#76BC2D"/>
		</linearGradient>
		<path fill="url(#SVGID_00000022524866251113779330000014696980907033853313_)" d="M371.032,132.035h10.2v10.2h-10.2V132.035z
			 M359.132,118.435h10.2v-10.2h-8.776c-0.786,0-1.424,0.637-1.424,1.424V118.435z M360.556,142.235h8.776v-10.2h-10.2v8.776
			C359.132,141.598,359.77,142.235,360.556,142.235L360.556,142.235z M359.132,130.335h10.2v-10.2h-10.2V130.335z M382.932,142.235
			h8.798c0.778-0.012,1.403-0.646,1.402-1.424v-8.776h-10.2V142.235z M371.032,130.335h10.2v-10.2h-10.2V130.335z M382.932,130.335
			h10.2v-10.2h-10.2L382.932,130.335z M382.932,108.235v10.2h10.2v-8.776c0-0.778-0.624-1.412-1.402-1.424H382.932z
			 M371.032,118.435h10.2v-10.2h-10.2V118.435z"/>
	</g>
	<g>
		<path fill="#FFFFFF" stroke="#767676" stroke-width="0.25" d="M160.218,112.442h-29.2c-1.657,0-3,1.343-3,3v20.248
			c0,1.657,1.343,3,3,3h29.2c1.657,0,3-1.343,3-3v-20.248C163.218,113.785,161.875,112.442,160.218,112.442z"/>
		<g id="a5229e7a-2c78-4db9-99cc-ca7fbe64368b">
			<g>
				
					<linearGradient id="SVGID_00000031186649812238340770000003621295892316416671_" gradientUnits="userSpaceOnUse" x1="-420.3628" y1="-1327.8092" x2="-420.3628" y2="-1334.7964" gradientTransform="matrix(1 0 0 -1 564 -1206.8)">
					<stop  offset="0.23" style="stop-color:#5EA0EF"/>
					<stop  offset="0.93" style="stop-color:#127FD9"/>
				</linearGradient>
				<path fill="url(#SVGID_00000031186649812238340770000003621295892316416671_)" d="M144.979,121.01h-2.8
					c-1.929,0.02-3.477,1.6-3.457,3.529c0.017,1.693,1.246,3.13,2.916,3.41c-0.063-0.433-0.049-0.874,0.04-1.302
					c-1.187-0.273-1.929-1.456-1.656-2.643c0.231-1.007,1.13-1.718,2.163-1.712h2.8c1.222,0.001,2.211,0.991,2.211,2.213
					c-0.001,1.221-0.99,2.21-2.211,2.211h-0.775c-0.102,0.219-0.155,0.457-0.156,0.698c0,0.199,0.037,0.397,0.11,0.582h0.82
					c1.929,0.041,3.526-1.49,3.567-3.419s-1.49-3.526-3.419-3.567c-0.049-0.001-0.098-0.001-0.147,0H144.979z"/>
				
					<linearGradient id="SVGID_00000029010356477255340320000016435949710975964800_" gradientUnits="userSpaceOnUse" x1="-416.9037" y1="-1330.7156" x2="-416.9037" y2="-1337.7013" gradientTransform="matrix(1 0 0 -1 564 -1206.8)">
					<stop  offset="0.02" style="stop-color:#5EA0EF"/>
					<stop  offset="0.93" style="stop-color:#127FD9"/>
				</linearGradient>
				<path fill="url(#SVGID_00000029010356477255340320000016435949710975964800_)" d="M149.014,123.967
					c0.025,0.178,0.039,0.357,0.04,0.537c0.002,0.256-0.024,0.512-0.076,0.762c1.187,0.273,1.929,1.456,1.656,2.643
					c-0.231,1.006-1.129,1.717-2.162,1.712h-2.8c-1.222-0.001-2.211-0.991-2.211-2.213c0.001-1.221,0.99-2.21,2.211-2.211h0.768
					c0.103-0.218,0.156-0.457,0.156-0.698c0-0.2-0.038-0.397-0.11-0.583h-0.809c-1.929,0.041-3.46,1.638-3.419,3.567
					c0.039,1.872,1.547,3.38,3.419,3.419h2.8c1.929-0.02,3.477-1.6,3.457-3.529c-0.017-1.693-1.246-3.13-2.916-3.41L149.014,123.967
					z"/>
				<path fill="#50E6FF" d="M140.3,132.373l-0.641,0.647c-0.171,0.172-0.449,0.173-0.62,0.002c-0.001-0.001-0.001-0.001-0.002-0.002
					l-7.161-7.151c-0.343-0.344-0.343-0.901,0-1.244l0.647-0.635l7.777,7.767c0.168,0.167,0.168,0.439,0.001,0.607
					c0,0-0.001,0.001-0.001,0.001l0,0V132.373z"/>
				<path fill="#1490DF" d="M139.526,117.588l0.716,0.716c0.172,0.171,0.173,0.449,0.002,0.62c-0.001,0.001-0.001,0.001-0.002,0.002
					l-7.648,7.667l-0.717-0.709c-0.343-0.344-0.343-0.901,0-1.244l7.032-7.051C139.079,117.418,139.355,117.418,139.526,117.588z"/>
				<path fill="#50E6FF" d="M150.935,132.88c-0.171-0.165-0.175-0.437-0.01-0.607c0,0,0.001-0.001,0.001-0.001l0,0h0.009
					l7.777-7.759l0.647,0.646c0.343,0.344,0.343,0.901,0,1.244l-7.172,7.137c-0.165,0.171-0.437,0.175-0.607,0.01
					c0,0-0.001-0.001-0.001-0.001l0,0l-0.009-0.008L150.935,132.88z"/>
				<path fill="#1490DF" d="M152.326,118.1l7.039,7.056c0.339,0.341,0.339,0.892,0,1.233l-0.717,0.716l-7.655-7.672
					c-0.168-0.173-0.168-0.449,0-0.622l0.716-0.711C151.879,117.93,152.155,117.93,152.326,118.1z"/>
			</g>
		</g>
	</g>
</g>
<g id="Text">
	<g>
		<path fill="#2F2F2F" d="M308.242,179.397l-3.63,9.803h-1.265l-3.555-9.803h1.278l2.714,7.772c0.086,0.251,0.153,0.54,0.198,0.868
			h0.027c0.037-0.273,0.112-0.567,0.226-0.882l2.769-7.759H308.242z"/>
		<path fill="#2F2F2F" d="M310.154,180.422c-0.201,0-0.372-0.068-0.513-0.205s-0.212-0.31-0.212-0.52
			c0-0.209,0.071-0.384,0.212-0.522c0.141-0.14,0.312-0.209,0.513-0.209c0.205,0,0.379,0.069,0.523,0.209
			c0.144,0.139,0.215,0.313,0.215,0.522c0,0.201-0.072,0.372-0.215,0.513C310.533,180.352,310.359,180.422,310.154,180.422z
			 M310.701,189.2h-1.121v-7h1.121V189.2z"/>
		<path fill="#2F2F2F" d="M316.47,183.334c-0.196-0.15-0.479-0.226-0.848-0.226c-0.479,0-0.878,0.226-1.2,0.677
			s-0.482,1.066-0.482,1.846v3.568h-1.121v-7h1.121v1.442h0.027c0.16-0.492,0.403-0.876,0.731-1.151
			c0.328-0.276,0.695-0.414,1.101-0.414c0.292,0,0.515,0.032,0.67,0.096V183.334z"/>
		<path fill="#2F2F2F" d="M321.389,189.131c-0.264,0.146-0.613,0.219-1.046,0.219c-1.226,0-1.839-0.684-1.839-2.051v-4.143h-1.203
			V182.2h1.203v-1.709l1.121-0.362v2.071h1.764v0.957h-1.764v3.944c0,0.47,0.08,0.805,0.239,1.005
			c0.16,0.201,0.424,0.301,0.793,0.301c0.283,0,0.526-0.077,0.731-0.232V189.131z"/>
		<path fill="#2F2F2F" d="M328.506,189.2h-1.121v-1.107h-0.027c-0.465,0.848-1.185,1.271-2.16,1.271
			c-1.668,0-2.502-0.993-2.502-2.98V182.2h1.114v4.006c0,1.477,0.565,2.215,1.695,2.215c0.547,0,0.997-0.201,1.35-0.604
			s0.53-0.931,0.53-1.583V182.2h1.121V189.2z"/>
		<path fill="#2F2F2F" d="M335.662,189.2h-1.121v-1.094h-0.027c-0.488,0.839-1.206,1.258-2.153,1.258
			c-0.697,0-1.243-0.185-1.637-0.554s-0.591-0.858-0.591-1.47c0-1.308,0.77-2.068,2.311-2.283l2.099-0.294
			c0-1.189-0.481-1.784-1.442-1.784c-0.843,0-1.604,0.287-2.283,0.861v-1.148c0.688-0.438,1.481-0.656,2.379-0.656
			c1.645,0,2.468,0.871,2.468,2.611V189.2z M334.541,185.659l-1.688,0.232c-0.52,0.073-0.912,0.202-1.176,0.387
			s-0.396,0.512-0.396,0.98c0,0.342,0.122,0.621,0.366,0.838c0.244,0.216,0.568,0.324,0.974,0.324c0.556,0,1.015-0.194,1.377-0.584
			s0.543-0.883,0.543-1.48V185.659z"/>
		<path fill="#2F2F2F" d="M338.803,189.2h-1.121v-10.363h1.121V189.2z"/>
		<path fill="#2F2F2F" d="M350.718,189.2h-1.121v-3.992c0-1.485-0.542-2.229-1.627-2.229c-0.561,0-1.024,0.211-1.391,0.633
			c-0.367,0.421-0.55,0.953-0.55,1.596v3.992h-1.121v-7h1.121v1.162h0.027c0.529-0.884,1.294-1.326,2.297-1.326
			c0.766,0,1.351,0.247,1.757,0.742c0.406,0.494,0.608,1.209,0.608,2.143V189.2z"/>
		<path fill="#2F2F2F" d="M358.422,185.98h-4.942c0.018,0.779,0.228,1.381,0.629,1.805s0.953,0.636,1.654,0.636
			c0.789,0,1.513-0.26,2.174-0.779v1.053c-0.615,0.447-1.429,0.67-2.44,0.67c-0.989,0-1.766-0.317-2.331-0.953
			s-0.848-1.53-0.848-2.684c0-1.089,0.309-1.977,0.926-2.662c0.618-0.687,1.384-1.029,2.3-1.029s1.625,0.297,2.126,0.889
			c0.501,0.593,0.752,1.415,0.752,2.468V185.98z M357.273,185.03c-0.004-0.646-0.161-1.15-0.468-1.511
			c-0.308-0.359-0.735-0.54-1.282-0.54c-0.529,0-0.978,0.189-1.347,0.567c-0.369,0.379-0.597,0.873-0.684,1.483H357.273z"/>
		<path fill="#2F2F2F" d="M363.346,189.131c-0.264,0.146-0.613,0.219-1.046,0.219c-1.226,0-1.839-0.684-1.839-2.051v-4.143h-1.203
			V182.2h1.203v-1.709l1.121-0.362v2.071h1.764v0.957h-1.764v3.944c0,0.47,0.08,0.805,0.239,1.005
			c0.16,0.201,0.424,0.301,0.793,0.301c0.283,0,0.526-0.077,0.731-0.232V189.131z"/>
		<path fill="#2F2F2F" d="M374.037,182.2l-2.099,7h-1.162l-1.442-5.011c-0.055-0.191-0.091-0.407-0.109-0.649h-0.027
			c-0.014,0.164-0.062,0.376-0.144,0.636l-1.565,5.024h-1.121l-2.119-7h1.176l1.449,5.264c0.045,0.16,0.078,0.369,0.096,0.629h0.055
			c0.014-0.2,0.055-0.414,0.123-0.643l1.613-5.25h1.025l1.449,5.277c0.045,0.169,0.08,0.379,0.103,0.629h0.055
			c0.009-0.178,0.048-0.387,0.116-0.629l1.422-5.277H374.037z"/>
		<path fill="#2F2F2F" d="M378.111,189.364c-1.035,0-1.86-0.327-2.478-0.98c-0.618-0.654-0.926-1.521-0.926-2.602
			c0-1.176,0.321-2.094,0.964-2.755c0.643-0.66,1.511-0.991,2.604-0.991c1.043,0,1.858,0.321,2.444,0.964s0.878,1.534,0.878,2.673
			c0,1.117-0.315,2.011-0.947,2.684C380.019,189.028,379.173,189.364,378.111,189.364z M378.193,182.979
			c-0.72,0-1.29,0.245-1.709,0.735c-0.419,0.489-0.629,1.165-0.629,2.026c0,0.83,0.212,1.483,0.636,1.962s0.991,0.718,1.702,0.718
			c0.725,0,1.282-0.234,1.671-0.704c0.39-0.469,0.584-1.137,0.584-2.003c0-0.875-0.195-1.549-0.584-2.023
			C379.475,183.216,378.918,182.979,378.193,182.979z"/>
		<path fill="#2F2F2F" d="M386.963,183.334c-0.196-0.15-0.479-0.226-0.848-0.226c-0.479,0-0.878,0.226-1.2,0.677
			s-0.482,1.066-0.482,1.846v3.568h-1.121v-7h1.121v1.442h0.027c0.16-0.492,0.403-0.876,0.731-1.151
			c0.328-0.276,0.695-0.414,1.101-0.414c0.292,0,0.515,0.032,0.67,0.096V183.334z"/>
		<path fill="#2F2F2F" d="M394.017,189.2h-1.572l-3.09-3.363h-0.027v3.363h-1.121v-10.363h1.121v6.569h0.027l2.939-3.206h1.47
			l-3.247,3.377L394.017,189.2z"/>
	</g>
	<g>
		<path fill="#2F2F2F" d="M56.435,22h-2.406l-0.697-2.181h-3.486L49.155,22h-2.393l3.568-9.803h2.618L56.435,22z M52.826,18.124
			l-1.053-3.295c-0.078-0.246-0.132-0.54-0.164-0.882h-0.055c-0.023,0.287-0.08,0.572-0.171,0.854l-1.066,3.322H52.826z"/>
		<path fill="#2F2F2F" d="M63.341,22h-6.282v-0.896l3.514-4.512h-3.165V15h5.906v1.066l-3.329,4.341h3.356V22z"/>
		<path fill="#2F2F2F" d="M71.223,22H69.07v-1.066h-0.034c-0.533,0.825-1.247,1.237-2.14,1.237c-1.623,0-2.434-0.981-2.434-2.946V15
			h2.153v4.033c0,0.989,0.392,1.483,1.176,1.483c0.387,0,0.697-0.136,0.93-0.406c0.232-0.271,0.349-0.64,0.349-1.104V15h2.153V22z"
			/>
		<path fill="#2F2F2F" d="M77.558,16.949c-0.26-0.141-0.563-0.212-0.909-0.212c-0.469,0-0.836,0.172-1.101,0.517
			c-0.264,0.344-0.396,0.812-0.396,1.404V22h-2.16v-7h2.16v1.299h0.027c0.342-0.947,0.957-1.422,1.846-1.422
			c0.228,0,0.406,0.027,0.533,0.082V16.949z"/>
		<path fill="#2F2F2F" d="M84.93,19.116h-4.566c0.073,1.017,0.713,1.524,1.921,1.524c0.77,0,1.447-0.182,2.03-0.547v1.559
			c-0.647,0.347-1.488,0.52-2.522,0.52c-1.13,0-2.007-0.313-2.632-0.939c-0.625-0.627-0.937-1.501-0.937-2.622
			c0-1.162,0.337-2.082,1.012-2.762c0.674-0.679,1.504-1.019,2.488-1.019c1.021,0,1.811,0.304,2.369,0.909
			c0.558,0.606,0.837,1.429,0.837,2.468V19.116z M82.927,17.789c0-1.002-0.406-1.504-1.217-1.504c-0.346,0-0.646,0.144-0.899,0.431
			s-0.407,0.646-0.461,1.073H82.927z"/>
	</g>
	<g>
		<rect x="33.312" y="57.294" fill="none" width="69.861" height="38.301"/>
		<path fill="#2F2F2F" d="M58.678,69.196h-2.406l-0.697-2.182h-3.486l-0.69,2.182h-2.393l3.568-9.803h2.618L58.678,69.196z
			 M55.068,65.319l-1.053-3.295c-0.078-0.246-0.132-0.539-0.164-0.881h-0.055c-0.023,0.287-0.08,0.571-0.171,0.854l-1.066,3.322
			H55.068z"/>
		<path fill="#2F2F2F" d="M65.583,69.196h-6.282v-0.896l3.514-4.512H59.65v-1.592h5.906v1.066l-3.329,4.34h3.356V69.196z"/>
		<path fill="#2F2F2F" d="M73.465,69.196h-2.153v-1.066h-0.034c-0.533,0.824-1.247,1.236-2.14,1.236
			c-1.623,0-2.434-0.981-2.434-2.945v-4.225h2.153v4.033c0,0.988,0.392,1.482,1.176,1.482c0.387,0,0.697-0.135,0.93-0.406
			s0.349-0.639,0.349-1.104v-4.006h2.153V69.196z"/>
		<path fill="#2F2F2F" d="M79.8,64.143c-0.26-0.141-0.563-0.211-0.909-0.211c-0.469,0-0.836,0.172-1.101,0.516
			s-0.396,0.812-0.396,1.404v3.344h-2.16v-7h2.16v1.299h0.027c0.342-0.948,0.957-1.422,1.846-1.422c0.228,0,0.406,0.027,0.533,0.082
			V64.143z"/>
		<path fill="#2F2F2F" d="M87.172,66.311h-4.566c0.073,1.016,0.713,1.523,1.921,1.523c0.77,0,1.447-0.182,2.03-0.547v1.559
			c-0.647,0.347-1.488,0.52-2.522,0.52c-1.13,0-2.007-0.312-2.632-0.939s-0.937-1.5-0.937-2.621c0-1.162,0.337-2.083,1.012-2.762
			c0.674-0.68,1.504-1.02,2.488-1.02c1.021,0,1.811,0.304,2.369,0.91c0.558,0.605,0.837,1.428,0.837,2.467V66.311z M85.169,64.985
			c0-1.003-0.406-1.504-1.217-1.504c-0.346,0-0.646,0.143-0.899,0.43s-0.407,0.646-0.461,1.074H85.169z"/>
		<path fill="#2F2F2F" d="M41.117,85.995h-5.879v-9.803h5.653v1.799h-3.445v2.18h3.206v1.791h-3.206v2.242h3.671V85.995z"/>
		<path fill="#2F2F2F" d="M49.022,78.995l-2.604,7h-2.461l-2.481-7h2.311l1.217,4.314c0.137,0.487,0.216,0.902,0.239,1.244h0.027
			c0.032-0.324,0.116-0.725,0.253-1.203l1.244-4.355H49.022z"/>
		<path fill="#2F2F2F" d="M56.01,83.11h-4.566c0.073,1.017,0.713,1.525,1.921,1.525c0.77,0,1.447-0.183,2.03-0.547v1.559
			c-0.647,0.346-1.488,0.52-2.522,0.52c-1.13,0-2.007-0.314-2.632-0.94s-0.937-1.501-0.937-2.622c0-1.162,0.337-2.082,1.012-2.762
			c0.674-0.679,1.504-1.018,2.488-1.018c1.021,0,1.811,0.303,2.369,0.908c0.558,0.606,0.837,1.43,0.837,2.469V83.11z M54.007,81.784
			c0-1.002-0.406-1.504-1.217-1.504c-0.346,0-0.646,0.145-0.899,0.432s-0.407,0.645-0.461,1.072H54.007z"/>
		<path fill="#2F2F2F" d="M64.136,85.995h-2.153v-3.889c0-1.085-0.387-1.627-1.162-1.627c-0.374,0-0.681,0.143-0.923,0.43
			s-0.362,0.652-0.362,1.094v3.992h-2.16v-7h2.16v1.107h0.027c0.515-0.852,1.265-1.277,2.249-1.277c1.549,0,2.324,0.961,2.324,2.885
			V85.995z"/>
		<path fill="#2F2F2F" d="M69.985,85.912c-0.319,0.169-0.8,0.254-1.442,0.254c-1.522,0-2.283-0.791-2.283-2.373v-3.205h-1.135
			v-1.594h1.135v-1.51l2.153-0.615v2.125h1.572v1.594h-1.572v2.83c0,0.729,0.29,1.094,0.868,1.094c0.228,0,0.462-0.066,0.704-0.199
			V85.912z"/>
		<path fill="#2F2F2F" d="M83.322,85.338c-0.957,0.552-2.146,0.828-3.568,0.828c-1.577,0-2.82-0.438-3.729-1.31
			s-1.364-2.075-1.364-3.606c0-1.54,0.497-2.795,1.49-3.766s2.315-1.457,3.965-1.457c1.039,0,1.955,0.145,2.748,0.432v2.07
			c-0.756-0.438-1.682-0.656-2.775-0.656c-0.916,0-1.662,0.298-2.239,0.893s-0.865,1.389-0.865,2.383
			c0,1.007,0.259,1.786,0.776,2.338c0.517,0.551,1.216,0.826,2.095,0.826c0.529,0,0.948-0.074,1.258-0.225v-1.914h-1.962v-1.764
			h4.17V85.338z"/>
		<path fill="#2F2F2F" d="M89.651,80.944c-0.26-0.142-0.563-0.213-0.909-0.213c-0.469,0-0.836,0.172-1.101,0.517
			s-0.396,0.812-0.396,1.405v3.342h-2.16v-7h2.16v1.299h0.027c0.342-0.947,0.957-1.422,1.846-1.422c0.228,0,0.406,0.027,0.533,0.082
			V80.944z"/>
		<path fill="#2F2F2F" d="M91.737,77.887c-0.365,0-0.663-0.107-0.896-0.324s-0.349-0.482-0.349-0.797
			c0-0.323,0.116-0.588,0.349-0.793s0.531-0.307,0.896-0.307c0.369,0,0.669,0.102,0.899,0.307s0.345,0.47,0.345,0.793
			c0,0.328-0.115,0.598-0.345,0.807C92.406,77.783,92.106,77.887,91.737,77.887z M92.804,85.995h-2.16v-7h2.16V85.995z"/>
		<path fill="#2F2F2F" d="M101.459,85.995h-2.16v-0.963h-0.027c-0.492,0.756-1.214,1.135-2.167,1.135
			c-0.875,0-1.579-0.309-2.112-0.927s-0.8-1.479-0.8-2.587c0-1.158,0.294-2.086,0.882-2.783s1.358-1.045,2.311-1.045
			c0.902,0,1.531,0.323,1.887,0.971h0.027v-4.164h2.16V85.995z M99.34,82.59v-0.525c0-0.456-0.132-0.834-0.396-1.135
			s-0.608-0.451-1.032-0.451c-0.479,0-0.852,0.188-1.121,0.563s-0.403,0.892-0.403,1.548c0,0.615,0.13,1.09,0.39,1.422
			c0.26,0.333,0.62,0.5,1.08,0.5c0.438,0,0.794-0.176,1.07-0.527C99.202,83.634,99.34,83.169,99.34,82.59z"/>
	</g>
	<g>
		<rect x="335.53" y="64.449" fill="none" width="81.204" height="38.301"/>
		<path fill="#2F2F2F" d="M342.04,75.975v-2.188c0.396,0.333,0.827,0.582,1.292,0.749c0.465,0.166,0.934,0.249,1.408,0.249
			c0.277,0,0.521-0.024,0.728-0.075c0.208-0.05,0.381-0.119,0.52-0.208c0.14-0.089,0.243-0.194,0.312-0.314
			c0.068-0.121,0.103-0.252,0.103-0.394c0-0.191-0.055-0.362-0.164-0.513s-0.259-0.289-0.448-0.417
			c-0.188-0.127-0.413-0.25-0.673-0.369c-0.26-0.118-0.54-0.239-0.841-0.362c-0.766-0.318-1.337-0.708-1.713-1.169
			c-0.376-0.46-0.563-1.016-0.563-1.668c0-0.51,0.103-0.949,0.308-1.315c0.205-0.367,0.484-0.669,0.837-0.906
			c0.354-0.236,0.763-0.411,1.228-0.522c0.465-0.112,0.957-0.168,1.477-0.168c0.51,0,0.963,0.031,1.356,0.093
			c0.395,0.062,0.758,0.156,1.091,0.283v2.044c-0.164-0.113-0.343-0.214-0.537-0.301c-0.193-0.086-0.393-0.158-0.598-0.215
			c-0.205-0.058-0.409-0.1-0.612-0.127c-0.202-0.027-0.396-0.041-0.577-0.041c-0.251,0-0.479,0.024-0.684,0.072
			s-0.379,0.115-0.52,0.201c-0.142,0.087-0.251,0.19-0.328,0.312c-0.078,0.12-0.116,0.256-0.116,0.406
			c0,0.164,0.043,0.312,0.13,0.441c0.086,0.13,0.209,0.253,0.369,0.369c0.159,0.116,0.353,0.229,0.581,0.342
			c0.228,0.111,0.485,0.227,0.772,0.345c0.392,0.164,0.744,0.339,1.056,0.523c0.312,0.185,0.58,0.393,0.804,0.625
			c0.223,0.232,0.394,0.498,0.513,0.797c0.118,0.298,0.178,0.646,0.178,1.042c0,0.547-0.104,1.006-0.312,1.378
			c-0.207,0.371-0.488,0.672-0.844,0.902c-0.355,0.229-0.77,0.396-1.241,0.495c-0.472,0.101-0.97,0.15-1.493,0.15
			c-0.538,0-1.05-0.045-1.535-0.137C342.816,76.294,342.396,76.158,342.04,75.975z"/>
		<path fill="#2F2F2F" d="M356.779,76.351h-2.153v-1.066h-0.034c-0.533,0.825-1.247,1.237-2.14,1.237
			c-1.623,0-2.434-0.981-2.434-2.946v-4.225h2.153v4.033c0,0.989,0.392,1.483,1.176,1.483c0.387,0,0.697-0.136,0.93-0.406
			c0.232-0.271,0.349-0.64,0.349-1.104v-4.006h2.153V76.351z"/>
		<path fill="#2F2F2F" d="M360.734,75.537h-0.027v0.813h-2.16V65.988h2.16v4.416h0.027c0.533-0.815,1.292-1.224,2.276-1.224
			c0.902,0,1.598,0.311,2.085,0.93c0.488,0.62,0.731,1.468,0.731,2.543c0,1.167-0.284,2.104-0.854,2.81
			c-0.569,0.707-1.33,1.06-2.283,1.06C361.828,76.522,361.176,76.194,360.734,75.537z M360.672,72.584v0.718
			c0,0.451,0.13,0.825,0.39,1.121c0.26,0.297,0.593,0.444,0.998,0.444c0.492,0,0.874-0.19,1.146-0.57
			c0.271-0.381,0.406-0.92,0.406-1.617c0-0.578-0.124-1.031-0.372-1.356c-0.249-0.326-0.603-0.489-1.063-0.489
			c-0.433,0-0.792,0.162-1.076,0.485C360.815,71.644,360.672,72.065,360.672,72.584z"/>
		<path fill="#2F2F2F" d="M366.867,76.166v-1.75c0.355,0.215,0.71,0.374,1.063,0.479c0.353,0.105,0.687,0.157,1.001,0.157
			c0.383,0,0.685-0.052,0.906-0.157c0.221-0.104,0.331-0.264,0.331-0.479c0-0.137-0.05-0.25-0.15-0.342
			c-0.1-0.091-0.229-0.171-0.386-0.239s-0.329-0.13-0.517-0.185c-0.187-0.055-0.366-0.116-0.54-0.185
			c-0.277-0.104-0.522-0.218-0.734-0.338c-0.212-0.121-0.39-0.261-0.533-0.421c-0.144-0.159-0.253-0.344-0.328-0.554
			c-0.075-0.209-0.113-0.458-0.113-0.745c0-0.392,0.086-0.729,0.257-1.012c0.171-0.282,0.398-0.514,0.684-0.693
			c0.284-0.181,0.61-0.312,0.978-0.396c0.366-0.085,0.748-0.127,1.145-0.127c0.311,0,0.625,0.024,0.943,0.072
			c0.319,0.048,0.634,0.117,0.943,0.208v1.668c-0.273-0.159-0.566-0.279-0.878-0.358c-0.312-0.08-0.619-0.12-0.92-0.12
			c-0.141,0-0.274,0.013-0.399,0.038c-0.126,0.024-0.236,0.062-0.332,0.109s-0.171,0.109-0.226,0.185s-0.082,0.16-0.082,0.256
			c0,0.128,0.041,0.237,0.123,0.328c0.082,0.092,0.189,0.17,0.321,0.236c0.133,0.065,0.279,0.125,0.441,0.178
			c0.161,0.052,0.322,0.105,0.481,0.16c0.287,0.101,0.547,0.21,0.779,0.328c0.232,0.119,0.432,0.258,0.599,0.417
			c0.166,0.16,0.294,0.347,0.383,0.561c0.089,0.215,0.133,0.47,0.133,0.766c0,0.415-0.09,0.77-0.27,1.063
			c-0.181,0.294-0.42,0.533-0.718,0.718c-0.299,0.185-0.643,0.318-1.032,0.403c-0.39,0.084-0.794,0.126-1.214,0.126
			C368.237,76.522,367.523,76.404,366.867,76.166z"/>
		<path fill="#2F2F2F" d="M378.832,76.098c-0.488,0.283-1.192,0.424-2.112,0.424c-1.076,0-1.946-0.325-2.611-0.978
			c-0.666-0.651-0.998-1.492-0.998-2.522c0-1.189,0.356-2.127,1.069-2.812c0.714-0.687,1.667-1.029,2.861-1.029
			c0.824,0,1.422,0.109,1.791,0.328v1.832c-0.451-0.337-0.955-0.506-1.511-0.506c-0.62,0-1.111,0.182-1.474,0.544
			s-0.543,0.862-0.543,1.5c0,0.62,0.173,1.106,0.52,1.46c0.346,0.353,0.822,0.529,1.429,0.529c0.537,0,1.063-0.168,1.579-0.506
			V76.098z"/>
		<path fill="#2F2F2F" d="M384.915,71.299c-0.26-0.141-0.562-0.212-0.909-0.212c-0.469,0-0.836,0.172-1.101,0.517
			c-0.264,0.344-0.396,0.812-0.396,1.404v3.343h-2.16v-7h2.16v1.299h0.027c0.342-0.947,0.957-1.422,1.846-1.422
			c0.229,0,0.406,0.027,0.533,0.082V71.299z"/>
		<path fill="#2F2F2F" d="M387.001,68.244c-0.364,0-0.663-0.108-0.896-0.324c-0.232-0.217-0.349-0.482-0.349-0.797
			c0-0.323,0.116-0.588,0.349-0.793s0.531-0.308,0.896-0.308c0.369,0,0.669,0.103,0.899,0.308c0.229,0.205,0.345,0.47,0.345,0.793
			c0,0.328-0.115,0.598-0.345,0.807C387.67,68.139,387.371,68.244,387.001,68.244z M388.068,76.351h-2.16v-7h2.16V76.351z"/>
		<path fill="#2F2F2F" d="M392.038,75.537h-0.027v0.813h-2.16V65.988h2.16v4.416h0.027c0.533-0.815,1.292-1.224,2.276-1.224
			c0.902,0,1.597,0.311,2.085,0.93c0.487,0.62,0.731,1.468,0.731,2.543c0,1.167-0.285,2.104-0.854,2.81
			c-0.57,0.707-1.331,1.06-2.283,1.06C393.131,76.522,392.479,76.194,392.038,75.537z M391.976,72.584v0.718
			c0,0.451,0.13,0.825,0.39,1.121c0.26,0.297,0.592,0.444,0.998,0.444c0.492,0,0.874-0.19,1.145-0.57
			c0.271-0.381,0.407-0.92,0.407-1.617c0-0.578-0.124-1.031-0.373-1.356c-0.248-0.326-0.603-0.489-1.062-0.489
			c-0.434,0-0.792,0.162-1.077,0.485C392.119,71.644,391.976,72.065,391.976,72.584z"/>
		<path fill="#2F2F2F" d="M404.867,73.466H400.3c0.073,1.017,0.714,1.524,1.921,1.524c0.771,0,1.447-0.182,2.03-0.547v1.559
			c-0.646,0.347-1.487,0.52-2.522,0.52c-1.13,0-2.007-0.313-2.632-0.939c-0.624-0.627-0.937-1.501-0.937-2.622
			c0-1.162,0.338-2.082,1.012-2.762c0.675-0.679,1.504-1.019,2.488-1.019c1.021,0,1.811,0.304,2.369,0.909
			c0.558,0.606,0.837,1.429,0.837,2.468V73.466z M402.864,72.14c0-1.002-0.405-1.504-1.217-1.504c-0.346,0-0.646,0.144-0.898,0.431
			s-0.407,0.646-0.462,1.073H402.864z"/>
		<path fill="#2F2F2F" d="M410.798,71.299c-0.26-0.141-0.562-0.212-0.909-0.212c-0.469,0-0.836,0.172-1.101,0.517
			c-0.264,0.344-0.396,0.812-0.396,1.404v3.343h-2.16v-7h2.16v1.299h0.027c0.342-0.947,0.957-1.422,1.846-1.422
			c0.229,0,0.406,0.027,0.533,0.082V71.299z"/>
		<path fill="#2F2F2F" d="M370.416,93.151h-2.044v-1.005h-0.027c-0.47,0.784-1.165,1.176-2.085,1.176
			c-0.68,0-1.214-0.192-1.604-0.577c-0.39-0.386-0.584-0.899-0.584-1.542c0-1.357,0.804-2.142,2.413-2.352l1.9-0.253
			c0-0.766-0.415-1.148-1.244-1.148c-0.834,0-1.627,0.249-2.379,0.745v-1.627c0.301-0.154,0.712-0.291,1.233-0.41
			c0.522-0.118,0.997-0.178,1.426-0.178c1.996,0,2.994,0.996,2.994,2.987V93.151z M368.386,90.307v-0.472l-1.271,0.164
			c-0.702,0.092-1.053,0.408-1.053,0.95c0,0.246,0.085,0.448,0.256,0.605s0.402,0.235,0.694,0.235c0.405,0,0.735-0.14,0.991-0.42
			C368.258,91.09,368.386,90.736,368.386,90.307z"/>
		<path fill="#2F2F2F" d="M374.3,92.337h-0.027v4.033h-2.16v-10.22h2.16v1.053h0.027c0.533-0.815,1.282-1.224,2.249-1.224
			c0.906,0,1.607,0.312,2.102,0.934c0.495,0.622,0.742,1.469,0.742,2.539c0,1.167-0.288,2.104-0.865,2.81
			c-0.576,0.707-1.343,1.06-2.3,1.06C375.384,93.322,374.742,92.994,374.3,92.337z M374.239,89.466v0.561
			c0,0.483,0.127,0.878,0.383,1.183c0.255,0.306,0.59,0.458,1.005,0.458c0.492,0,0.874-0.19,1.145-0.57
			c0.271-0.381,0.407-0.92,0.407-1.617c0-1.23-0.479-1.846-1.436-1.846c-0.442,0-0.804,0.168-1.084,0.503
			S374.239,88.915,374.239,89.466z"/>
		<path fill="#2F2F2F" d="M382.997,92.337h-0.027v4.033h-2.16v-10.22h2.16v1.053h0.027c0.533-0.815,1.282-1.224,2.249-1.224
			c0.906,0,1.607,0.312,2.102,0.934c0.495,0.622,0.742,1.469,0.742,2.539c0,1.167-0.288,2.104-0.865,2.81
			c-0.576,0.707-1.343,1.06-2.3,1.06C384.081,93.322,383.439,92.994,382.997,92.337z M382.936,89.466v0.561
			c0,0.483,0.127,0.878,0.383,1.183c0.255,0.306,0.59,0.458,1.005,0.458c0.492,0,0.874-0.19,1.145-0.57
			c0.271-0.381,0.407-0.92,0.407-1.617c0-1.23-0.479-1.846-1.436-1.846c-0.442,0-0.804,0.168-1.084,0.503
			S382.936,88.915,382.936,89.466z"/>
	</g>
	<g>
		<rect x="127.061" y="145.107" fill="none" width="113.733" height="36.202"/>
		<path fill="#2F2F2F" d="M134.186,155.309h-1.172l-1.406-2.355c-0.129-0.219-0.254-0.405-0.375-0.56s-0.245-0.28-0.372-0.378
			s-0.264-0.169-0.41-0.214s-0.312-0.067-0.495-0.067h-0.809v3.574h-0.984v-8.402h2.508c0.367,0,0.706,0.046,1.017,0.138
			s0.58,0.231,0.809,0.419s0.407,0.421,0.536,0.7s0.193,0.606,0.193,0.981c0,0.293-0.044,0.562-0.132,0.806
			s-0.213,0.462-0.375,0.653s-0.357,0.354-0.586,0.489s-0.485,0.239-0.771,0.313v0.023c0.141,0.062,0.263,0.134,0.366,0.214
			s0.202,0.175,0.296,0.284s0.187,0.233,0.278,0.372s0.194,0.3,0.308,0.483L134.186,155.309z M129.147,147.797v3.047h1.336
			c0.246,0,0.474-0.037,0.683-0.111s0.39-0.181,0.542-0.319s0.271-0.309,0.357-0.51s0.129-0.427,0.129-0.677
			c0-0.449-0.146-0.8-0.437-1.052s-0.712-0.378-1.263-0.378H129.147z"/>
		<path fill="#2F2F2F" d="M139.863,152.549h-4.236c0.016,0.668,0.195,1.184,0.539,1.547s0.816,0.545,1.418,0.545
			c0.676,0,1.297-0.223,1.863-0.668v0.902c-0.527,0.383-1.225,0.574-2.092,0.574c-0.848,0-1.514-0.272-1.998-0.817
			s-0.727-1.312-0.727-2.3c0-0.934,0.265-1.694,0.794-2.282s1.187-0.882,1.972-0.882s1.393,0.254,1.822,0.762
			s0.645,1.213,0.645,2.115V152.549z M138.879,151.735c-0.004-0.555-0.138-0.986-0.401-1.295s-0.63-0.463-1.099-0.463
			c-0.453,0-0.838,0.162-1.154,0.486s-0.512,0.748-0.586,1.271H138.879z"/>
		<path fill="#2F2F2F" d="M145.442,155.034c-0.461,0.277-1.008,0.416-1.641,0.416c-0.855,0-1.546-0.278-2.071-0.835
			s-0.788-1.278-0.788-2.165c0-0.988,0.283-1.782,0.85-2.382s1.322-0.899,2.268-0.899c0.527,0,0.992,0.098,1.395,0.293v0.984
			c-0.445-0.312-0.922-0.469-1.43-0.469c-0.613,0-1.116,0.22-1.509,0.659s-0.589,1.017-0.589,1.731c0,0.703,0.185,1.258,0.554,1.664
			s0.864,0.609,1.485,0.609c0.523,0,1.016-0.174,1.477-0.521V155.034z"/>
		<path fill="#2F2F2F" d="M151.598,152.549h-4.236c0.016,0.668,0.195,1.184,0.539,1.547s0.816,0.545,1.418,0.545
			c0.676,0,1.297-0.223,1.863-0.668v0.902c-0.527,0.383-1.225,0.574-2.092,0.574c-0.848,0-1.514-0.272-1.998-0.817
			s-0.727-1.312-0.727-2.3c0-0.934,0.265-1.694,0.794-2.282s1.187-0.882,1.972-0.882s1.393,0.254,1.822,0.762
			s0.645,1.213,0.645,2.115V152.549z M150.613,151.735c-0.004-0.555-0.138-0.986-0.401-1.295s-0.63-0.463-1.099-0.463
			c-0.453,0-0.838,0.162-1.154,0.486s-0.512,0.748-0.586,1.271H150.613z"/>
		<path fill="#2F2F2F" d="M153.509,147.786c-0.172,0-0.318-0.059-0.439-0.176s-0.182-0.266-0.182-0.445s0.061-0.329,0.182-0.448
			s0.268-0.179,0.439-0.179c0.176,0,0.325,0.06,0.448,0.179s0.185,0.269,0.185,0.448c0,0.172-0.062,0.318-0.185,0.439
			S153.685,147.786,153.509,147.786z M153.978,155.309h-0.961v-6h0.961V155.309z"/>
		<path fill="#2F2F2F" d="M160.675,149.309l-2.391,6h-0.943l-2.273-6h1.055l1.523,4.359c0.113,0.32,0.184,0.6,0.211,0.838h0.023
			c0.039-0.301,0.102-0.572,0.188-0.814l1.594-4.383H160.675z"/>
		<path fill="#2F2F2F" d="M166.377,152.549h-4.236c0.016,0.668,0.195,1.184,0.539,1.547s0.816,0.545,1.418,0.545
			c0.676,0,1.297-0.223,1.863-0.668v0.902c-0.527,0.383-1.225,0.574-2.092,0.574c-0.848,0-1.514-0.272-1.998-0.817
			s-0.727-1.312-0.727-2.3c0-0.934,0.265-1.694,0.794-2.282s1.187-0.882,1.972-0.882s1.393,0.254,1.822,0.762
			s0.645,1.213,0.645,2.115V152.549z M165.393,151.735c-0.004-0.555-0.138-0.986-0.401-1.295s-0.63-0.463-1.099-0.463
			c-0.453,0-0.838,0.162-1.154,0.486s-0.512,0.748-0.586,1.271H165.393z"/>
		<path fill="#2F2F2F" d="M179.637,155.309h-0.961v-3.445c0-0.664-0.103-1.145-0.308-1.441s-0.55-0.445-1.034-0.445
			c-0.41,0-0.759,0.188-1.046,0.562s-0.431,0.824-0.431,1.348v3.422h-0.961v-3.562c0-1.18-0.455-1.77-1.365-1.77
			c-0.422,0-0.77,0.177-1.043,0.53s-0.41,0.813-0.41,1.38v3.422h-0.961v-6h0.961v0.949h0.023c0.426-0.727,1.047-1.09,1.863-1.09
			c0.41,0,0.768,0.114,1.072,0.343s0.514,0.528,0.627,0.899c0.445-0.828,1.109-1.242,1.992-1.242c1.32,0,1.98,0.814,1.98,2.443
			V155.309z"/>
		<path fill="#2F2F2F" d="M186.253,152.549h-4.236c0.016,0.668,0.195,1.184,0.539,1.547s0.816,0.545,1.418,0.545
			c0.676,0,1.297-0.223,1.863-0.668v0.902c-0.527,0.383-1.225,0.574-2.092,0.574c-0.848,0-1.514-0.272-1.998-0.817
			s-0.727-1.312-0.727-2.3c0-0.934,0.265-1.694,0.794-2.282s1.187-0.882,1.972-0.882s1.393,0.254,1.822,0.762
			s0.645,1.213,0.645,2.115V152.549z M185.268,151.735c-0.004-0.555-0.138-0.986-0.401-1.295s-0.63-0.463-1.099-0.463
			c-0.453,0-0.838,0.162-1.154,0.486s-0.512,0.748-0.586,1.271H185.268z"/>
		<path fill="#2F2F2F" d="M187.327,155.092v-1.031c0.523,0.387,1.1,0.58,1.729,0.58c0.844,0,1.266-0.281,1.266-0.844
			c0-0.16-0.036-0.296-0.108-0.407s-0.17-0.21-0.293-0.296s-0.268-0.163-0.434-0.231s-0.345-0.14-0.536-0.214
			c-0.266-0.105-0.499-0.212-0.7-0.319s-0.369-0.229-0.504-0.363s-0.236-0.288-0.305-0.46s-0.103-0.373-0.103-0.604
			c0-0.281,0.064-0.53,0.193-0.747s0.301-0.398,0.516-0.545s0.46-0.257,0.735-0.331s0.56-0.111,0.853-0.111
			c0.52,0,0.984,0.09,1.395,0.27v0.973c-0.441-0.289-0.949-0.434-1.523-0.434c-0.18,0-0.342,0.021-0.486,0.062
			s-0.269,0.099-0.372,0.173s-0.184,0.163-0.24,0.267s-0.085,0.218-0.085,0.343c0,0.156,0.028,0.287,0.085,0.393
			s0.14,0.199,0.249,0.281s0.242,0.156,0.398,0.223s0.334,0.139,0.533,0.217c0.266,0.102,0.504,0.206,0.715,0.313
			s0.391,0.229,0.539,0.363s0.263,0.29,0.343,0.466s0.12,0.385,0.12,0.627c0,0.297-0.065,0.555-0.196,0.773s-0.306,0.4-0.524,0.545
			s-0.471,0.252-0.756,0.322s-0.584,0.105-0.896,0.105C188.315,155.45,187.78,155.33,187.327,155.092z"/>
		<path fill="#2F2F2F" d="M192.419,155.092v-1.031c0.523,0.387,1.1,0.58,1.729,0.58c0.844,0,1.266-0.281,1.266-0.844
			c0-0.16-0.036-0.296-0.108-0.407s-0.17-0.21-0.293-0.296s-0.268-0.163-0.434-0.231s-0.345-0.14-0.536-0.214
			c-0.266-0.105-0.499-0.212-0.7-0.319s-0.369-0.229-0.504-0.363s-0.236-0.288-0.305-0.46s-0.103-0.373-0.103-0.604
			c0-0.281,0.064-0.53,0.193-0.747s0.301-0.398,0.516-0.545s0.46-0.257,0.735-0.331s0.56-0.111,0.853-0.111
			c0.52,0,0.984,0.09,1.395,0.27v0.973c-0.441-0.289-0.949-0.434-1.523-0.434c-0.18,0-0.342,0.021-0.486,0.062
			s-0.269,0.099-0.372,0.173s-0.184,0.163-0.24,0.267s-0.085,0.218-0.085,0.343c0,0.156,0.028,0.287,0.085,0.393
			s0.14,0.199,0.249,0.281s0.242,0.156,0.398,0.223s0.334,0.139,0.533,0.217c0.266,0.102,0.504,0.206,0.715,0.313
			s0.391,0.229,0.539,0.363s0.263,0.29,0.343,0.466s0.12,0.385,0.12,0.627c0,0.297-0.065,0.555-0.196,0.773s-0.306,0.4-0.524,0.545
			s-0.471,0.252-0.756,0.322s-0.584,0.105-0.896,0.105C193.407,155.45,192.872,155.33,192.419,155.092z"/>
		<path fill="#2F2F2F" d="M202.215,155.309h-0.961v-0.938h-0.023c-0.418,0.719-1.033,1.078-1.846,1.078
			c-0.598,0-1.065-0.158-1.403-0.475s-0.507-0.736-0.507-1.26c0-1.121,0.66-1.773,1.98-1.957l1.799-0.252
			c0-1.02-0.412-1.529-1.236-1.529c-0.723,0-1.375,0.246-1.957,0.738v-0.984c0.59-0.375,1.27-0.562,2.039-0.562
			c1.41,0,2.115,0.746,2.115,2.238V155.309z M201.254,152.274l-1.447,0.199c-0.445,0.062-0.781,0.173-1.008,0.331
			s-0.34,0.438-0.34,0.841c0,0.293,0.104,0.532,0.313,0.718s0.487,0.278,0.835,0.278c0.477,0,0.87-0.167,1.181-0.501
			s0.466-0.757,0.466-1.269V152.274z"/>
		<path fill="#2F2F2F" d="M209.14,154.829c0,2.203-1.055,3.305-3.164,3.305c-0.742,0-1.391-0.141-1.945-0.422v-0.961
			c0.676,0.375,1.32,0.562,1.934,0.562c1.477,0,2.215-0.785,2.215-2.355v-0.656h-0.023c-0.457,0.766-1.145,1.148-2.062,1.148
			c-0.746,0-1.347-0.267-1.802-0.8s-0.683-1.249-0.683-2.147c0-1.02,0.245-1.83,0.735-2.432s1.161-0.902,2.013-0.902
			c0.809,0,1.408,0.324,1.799,0.973h0.023v-0.832h0.961V154.829z M208.179,152.596v-0.885c0-0.477-0.161-0.885-0.483-1.225
			s-0.724-0.51-1.204-0.51c-0.594,0-1.059,0.216-1.395,0.647s-0.504,1.036-0.504,1.813c0,0.668,0.161,1.202,0.483,1.603
			s0.749,0.601,1.28,0.601c0.539,0,0.978-0.191,1.315-0.574S208.179,153.194,208.179,152.596z"/>
		<path fill="#2F2F2F" d="M215.854,152.549h-4.236c0.016,0.668,0.195,1.184,0.539,1.547s0.816,0.545,1.418,0.545
			c0.676,0,1.297-0.223,1.863-0.668v0.902c-0.527,0.383-1.225,0.574-2.092,0.574c-0.848,0-1.514-0.272-1.998-0.817
			s-0.727-1.312-0.727-2.3c0-0.934,0.265-1.694,0.794-2.282s1.187-0.882,1.972-0.882s1.393,0.254,1.822,0.762
			s0.645,1.213,0.645,2.115V152.549z M214.87,151.735c-0.004-0.555-0.138-0.986-0.401-1.295s-0.63-0.463-1.099-0.463
			c-0.453,0-0.838,0.162-1.154,0.486s-0.512,0.748-0.586,1.271H214.87z"/>
		<path fill="#2F2F2F" d="M216.928,155.092v-1.031c0.523,0.387,1.1,0.58,1.729,0.58c0.844,0,1.266-0.281,1.266-0.844
			c0-0.16-0.036-0.296-0.108-0.407s-0.17-0.21-0.293-0.296s-0.268-0.163-0.434-0.231s-0.345-0.14-0.536-0.214
			c-0.266-0.105-0.499-0.212-0.7-0.319s-0.369-0.229-0.504-0.363s-0.236-0.288-0.305-0.46s-0.103-0.373-0.103-0.604
			c0-0.281,0.064-0.53,0.193-0.747s0.301-0.398,0.516-0.545s0.46-0.257,0.735-0.331s0.56-0.111,0.853-0.111
			c0.52,0,0.984,0.09,1.395,0.27v0.973c-0.441-0.289-0.949-0.434-1.523-0.434c-0.18,0-0.342,0.021-0.486,0.062
			s-0.269,0.099-0.372,0.173s-0.184,0.163-0.24,0.267s-0.085,0.218-0.085,0.343c0,0.156,0.028,0.287,0.085,0.393
			s0.14,0.199,0.249,0.281s0.242,0.156,0.398,0.223s0.334,0.139,0.533,0.217c0.266,0.102,0.504,0.206,0.715,0.313
			s0.391,0.229,0.539,0.363s0.263,0.29,0.343,0.466s0.12,0.385,0.12,0.627c0,0.297-0.065,0.555-0.196,0.773s-0.306,0.4-0.524,0.545
			s-0.471,0.252-0.756,0.322s-0.584,0.105-0.896,0.105C217.916,155.45,217.381,155.33,216.928,155.092z"/>
		<path fill="#2F2F2F" d="M130.541,169.85c-0.887,0-1.595-0.281-2.124-0.842c-0.529-0.561-0.794-1.303-0.794-2.229
			c0-1.008,0.275-1.795,0.826-2.361c0.551-0.566,1.295-0.85,2.232-0.85c0.895,0,1.593,0.275,2.095,0.826s0.753,1.314,0.753,2.291
			c0,0.957-0.271,1.723-0.812,2.299S131.452,169.85,130.541,169.85z M130.612,164.377c-0.617,0-1.105,0.209-1.465,0.629
			s-0.539,1-0.539,1.738c0,0.711,0.182,1.271,0.545,1.682s0.85,0.615,1.459,0.615c0.621,0,1.099-0.201,1.433-0.604
			s0.501-0.975,0.501-1.717c0-0.75-0.167-1.328-0.501-1.734S131.233,164.377,130.612,164.377z"/>
		<path fill="#2F2F2F" d="M139.656,163.709l-2.391,6h-0.943l-2.273-6h1.055l1.523,4.359c0.113,0.32,0.184,0.6,0.211,0.838h0.023
			c0.039-0.301,0.102-0.572,0.188-0.814l1.594-4.383H139.656z"/>
		<path fill="#2F2F2F" d="M145.358,166.95h-4.236c0.016,0.668,0.195,1.184,0.539,1.547s0.816,0.545,1.418,0.545
			c0.676,0,1.297-0.223,1.863-0.668v0.902c-0.527,0.383-1.225,0.574-2.092,0.574c-0.848,0-1.514-0.273-1.998-0.818
			s-0.727-1.311-0.727-2.299c0-0.934,0.265-1.695,0.794-2.283s1.187-0.881,1.972-0.881s1.393,0.254,1.822,0.762
			s0.645,1.213,0.645,2.115V166.95z M144.373,166.135c-0.004-0.555-0.138-0.986-0.401-1.295s-0.63-0.463-1.099-0.463
			c-0.453,0-0.838,0.162-1.154,0.486s-0.512,0.748-0.586,1.271H144.373z"/>
		<path fill="#2F2F2F" d="M149.94,164.682c-0.168-0.129-0.41-0.193-0.727-0.193c-0.41,0-0.753,0.193-1.028,0.58
			s-0.413,0.914-0.413,1.582v3.059h-0.961v-6h0.961v1.236h0.023c0.137-0.422,0.346-0.752,0.627-0.988s0.596-0.354,0.943-0.354
			c0.25,0,0.441,0.027,0.574,0.082V164.682z"/>
		<path fill="#2F2F2F" d="M158.565,169.709h-0.961v-0.938h-0.023c-0.418,0.719-1.033,1.078-1.846,1.078
			c-0.598,0-1.065-0.158-1.403-0.475s-0.507-0.736-0.507-1.26c0-1.121,0.66-1.773,1.98-1.957l1.799-0.252
			c0-1.02-0.412-1.529-1.236-1.529c-0.723,0-1.375,0.246-1.957,0.738v-0.984c0.59-0.375,1.27-0.562,2.039-0.562
			c1.41,0,2.115,0.746,2.115,2.238V169.709z M157.604,166.674l-1.447,0.199c-0.445,0.062-0.781,0.172-1.008,0.33
			s-0.34,0.439-0.34,0.842c0,0.293,0.104,0.531,0.313,0.717s0.487,0.279,0.835,0.279c0.477,0,0.87-0.168,1.181-0.502
			s0.466-0.756,0.466-1.268V166.674z"/>
		<path fill="#2F2F2F" d="M164.647,168.842h-0.023v3.627h-0.961v-8.76h0.961v1.055h0.023c0.473-0.797,1.164-1.195,2.074-1.195
			c0.773,0,1.377,0.268,1.811,0.805s0.65,1.258,0.65,2.16c0,1.004-0.244,1.807-0.732,2.41s-1.156,0.906-2.004,0.906
			C165.668,169.85,165.069,169.514,164.647,168.842z M164.623,166.422v0.838c0,0.496,0.161,0.916,0.483,1.262s0.731,0.52,1.228,0.52
			c0.582,0,1.038-0.223,1.368-0.668s0.495-1.064,0.495-1.857c0-0.668-0.154-1.191-0.463-1.57s-0.727-0.568-1.254-0.568
			c-0.559,0-1.008,0.193-1.348,0.582S164.623,165.836,164.623,166.422z"/>
		<path fill="#2F2F2F" d="M173.792,164.682c-0.168-0.129-0.41-0.193-0.727-0.193c-0.41,0-0.753,0.193-1.028,0.58
			s-0.413,0.914-0.413,1.582v3.059h-0.961v-6h0.961v1.236h0.023c0.137-0.422,0.346-0.752,0.627-0.988s0.596-0.354,0.943-0.354
			c0.25,0,0.441,0.027,0.574,0.082V164.682z"/>
		<path fill="#2F2F2F" d="M175.359,162.186c-0.172,0-0.318-0.059-0.439-0.176s-0.182-0.266-0.182-0.445s0.061-0.33,0.182-0.449
			s0.268-0.178,0.439-0.178c0.176,0,0.325,0.059,0.448,0.178s0.185,0.27,0.185,0.449c0,0.172-0.062,0.318-0.185,0.439
			S175.535,162.186,175.359,162.186z M175.828,169.709h-0.961v-6h0.961V169.709z"/>
		<path fill="#2F2F2F" d="M182.52,163.709l-2.391,6h-0.943l-2.273-6h1.055l1.523,4.359c0.113,0.32,0.184,0.6,0.211,0.838h0.023
			c0.039-0.301,0.102-0.572,0.188-0.814l1.594-4.383H182.52z"/>
		<path fill="#2F2F2F" d="M187.774,169.709h-0.961v-0.938h-0.023c-0.418,0.719-1.033,1.078-1.846,1.078
			c-0.598,0-1.065-0.158-1.403-0.475s-0.507-0.736-0.507-1.26c0-1.121,0.66-1.773,1.98-1.957l1.799-0.252
			c0-1.02-0.412-1.529-1.236-1.529c-0.723,0-1.375,0.246-1.957,0.738v-0.984c0.59-0.375,1.27-0.562,2.039-0.562
			c1.41,0,2.115,0.746,2.115,2.238V169.709z M186.813,166.674l-1.447,0.199c-0.445,0.062-0.781,0.172-1.008,0.33
			s-0.34,0.439-0.34,0.842c0,0.293,0.104,0.531,0.313,0.717s0.487,0.279,0.835,0.279c0.477,0,0.87-0.168,1.181-0.502
			s0.466-0.756,0.466-1.268V166.674z"/>
		<path fill="#2F2F2F" d="M192.294,169.651c-0.227,0.125-0.525,0.188-0.896,0.188c-1.051,0-1.576-0.586-1.576-1.758v-3.551h-1.031
			v-0.82h1.031v-1.465l0.961-0.311v1.775h1.512v0.82h-1.512v3.381c0,0.402,0.068,0.689,0.205,0.861s0.363,0.258,0.68,0.258
			c0.242,0,0.451-0.066,0.627-0.199V169.651z"/>
		<path fill="#2F2F2F" d="M198.298,166.95h-4.236c0.016,0.668,0.195,1.184,0.539,1.547s0.816,0.545,1.418,0.545
			c0.676,0,1.297-0.223,1.863-0.668v0.902c-0.527,0.383-1.225,0.574-2.092,0.574c-0.848,0-1.514-0.273-1.998-0.818
			s-0.727-1.311-0.727-2.299c0-0.934,0.265-1.695,0.794-2.283s1.187-0.881,1.972-0.881s1.393,0.254,1.822,0.762
			s0.645,1.213,0.645,2.115V166.95z M197.313,166.135c-0.004-0.555-0.138-0.986-0.401-1.295s-0.63-0.463-1.099-0.463
			c-0.453,0-0.838,0.162-1.154,0.486s-0.512,0.748-0.586,1.271H197.313z"/>
		<path fill="#2F2F2F" d="M203.999,169.709h-0.961v-8.883h0.961V169.709z"/>
		<path fill="#2F2F2F" d="M206.311,162.186c-0.172,0-0.318-0.059-0.439-0.176s-0.182-0.266-0.182-0.445s0.061-0.33,0.182-0.449
			s0.268-0.178,0.439-0.178c0.176,0,0.325,0.059,0.448,0.178s0.185,0.27,0.185,0.449c0,0.172-0.062,0.318-0.185,0.439
			S206.487,162.186,206.311,162.186z M206.78,169.709h-0.961v-6h0.961V169.709z"/>
		<path fill="#2F2F2F" d="M213.587,169.709h-0.961v-3.422c0-1.273-0.465-1.91-1.395-1.91c-0.48,0-0.878,0.18-1.192,0.541
			s-0.472,0.818-0.472,1.369v3.422h-0.961v-6h0.961v0.996h0.023c0.453-0.758,1.109-1.137,1.969-1.137
			c0.656,0,1.158,0.211,1.506,0.635s0.521,1.037,0.521,1.838V169.709z"/>
		<path fill="#2F2F2F" d="M220.311,169.709h-1.348l-2.648-2.883h-0.023v2.883h-0.961v-8.883h0.961v5.631h0.023l2.52-2.748h1.26
			l-2.783,2.895L220.311,169.709z"/>
	</g>
	<g>
		<path fill="#737474" d="M289.417,117.461h-0.984v-3.832h-4.348v3.832h-0.984v-8.402h0.984v3.686h4.348v-3.686h0.984V117.461z"/>
		<path fill="#737474" d="M296.463,109.95h-2.426v7.512h-0.984v-7.512h-2.42v-0.891h5.83V109.95z"/>
		<path fill="#737474" d="M303.062,109.95h-2.426v7.512h-0.984v-7.512h-2.42v-0.891h5.83V109.95z"/>
		<path fill="#737474" d="M305.251,114.286v3.176h-0.984v-8.402h2.309c0.898,0,1.595,0.219,2.089,0.656s0.741,1.055,0.741,1.852
			s-0.274,1.449-0.823,1.957s-1.29,0.762-2.224,0.762H305.251z M305.251,109.95v3.445h1.031c0.68,0,1.198-0.155,1.556-0.466
			s0.536-0.749,0.536-1.315c0-1.109-0.656-1.664-1.969-1.664H305.251z"/>
	</g>
</g>
<g id="Layer_1">
</g>
<g id="_x3C_Layer_x3E_">
</g>
</svg>
