<?xml version="1.0" encoding="utf-8"?>
<!-- Generator: Adobe Illustrator 27.4.0, SVG Export Plug-In . SVG Version: 6.00 Build 0)  -->
<svg version="1.1" xmlns="http://www.w3.org/2000/svg" xmlns:xlink="http://www.w3.org/1999/xlink" x="0px" y="0px"
	 viewBox="0 0 719.721 162.029" enable-background="new 0 0 719.721 162.029" xml:space="preserve">
<symbol  id="PIPELINE" viewBox="-32 -12.266 64 24.531">
	<linearGradient id="SVGID_1_" gradientUnits="userSpaceOnUse" x1="0" y1="-12.2655" x2="1.502093e-15" y2="12.2655">
		<stop  offset="0" style="stop-color:#1B89B2"/>
		<stop  offset="1" style="stop-color:#51C8E8"/>
	</linearGradient>
	<path fill="url(#SVGID_1_)" d="M26.096,12.266h-51.448v0h0C-29.08,12.265-32,6.878-32,0s2.92-12.265,6.648-12.265h0v0h51.448
		C29.356-12.266,32-6.363,32,0S29.356,12.266,26.096,12.266z"/>
	<g>
		
			<linearGradient id="SVGID_00000157992446161693046110000000695652952549374363_" gradientUnits="userSpaceOnUse" x1="-31.461" y1="-6.1136" x2="-19.2338" y2="6.1136">
			<stop  offset="0" style="stop-color:#B3B4B4"/>
			<stop  offset="1" style="stop-color:#4F4F4F"/>
		</linearGradient>
		<ellipse fill="url(#SVGID_00000157992446161693046110000000695652952549374363_)" cx="-25.347" cy="0" rx="5.575" ry="10.879"/>
	</g>
</symbol>
<g id="Shapes">
	<rect fill="#FFFFFF" width="719.721" height="162.029"/>
	<g id="Wrench_tool_x28_s_x29_">
	</g>
	<g id="user2">
	</g>
	<g id="user2_1_">
	</g>
	<g id="user2_4_">
	</g>
	<g id="user2_3_">
	</g>
	<g id="user2_2_">
	</g>
	<g id="Internet_2">
	</g>
	<g id="Enterprise">
	</g>
	<g id="Tunnel__x28_stackable_x29_">
	</g>
	<g id="New_Symbol">
	</g>
	<g id="New_Symbol_1">
	</g>
	<g id="Files">
	</g>
	<g id="BlobBlock">
	</g>
	<g id="E_x5F_Enterprise">
	</g>
	<g id="E_x5F_AD_FS">
	</g>
	<g id="C_x5F_Azure_Active_Directory">
	</g>
	<g>
		<g>
			<path fill="none" stroke="#258378" stroke-width="1.5" stroke-miterlimit="10" d="M340.698,107.379l-46.676,21.823
				c-2.491,1.165-6.779,2.118-9.529,2.118h-31.604"/>
			<g>
				<polygon fill="#258378" points="327.629,106.643 327.802,108.586 340.526,107.46 331.503,116.501 332.883,117.878 
					345.69,105.045 				"/>
			</g>
		</g>
	</g>
	<g>
		<g>
			<path fill="none" stroke="#258378" stroke-width="1.5" stroke-miterlimit="10" d="M340.698,59.635l-46.676-21.823
				c-2.491-1.165-6.779-2.118-9.529-2.118h-31.604"/>
			<g>
				<polygon fill="#258378" points="332.883,49.134 331.503,50.513 340.526,59.554 327.802,58.428 327.63,60.37 345.69,61.969 				
					"/>
			</g>
		</g>
	</g>
	<g>
		<g>
			
				<line fill="none" stroke="#258378" stroke-width="1.5" stroke-miterlimit="10" x1="339.651" y1="84.753" x2="252.888" y2="84.753"/>
			<g>
				<polygon fill="#258378" points="328.124,78.55 327.458,80.384 339.461,84.753 327.458,89.121 328.124,90.953 345.161,84.753 
									"/>
			</g>
		</g>
	</g>
	<g>
		<g id="b30b0bd5-e4d2-456b-8d49-c2df20200912_00000163056847971760403450000004539638127391157656_">
			<path id="b51878b5-8d50-4b8b-bc48-74f5f7315a99_00000083806351058202908270000006801557792671388324_" fill="#33BEDD" d="
				M399.477,81.946v-1.982H384.55l-7.001,6.968h-5.152l11.955-12.087h8.157v-1.882h-8.983l-13.937,13.97h-1.982v1.982h5.978
				l7.067,6.968h16.843v-1.982h-16.116l-4.987-4.987h12.12v-1.982h-8.124l4.954-4.987H399.477z"/>
			
				<circle id="ad0ed4eb-cd5f-4cc0-bd19-2830d27ec806_00000062885795899189504460000005584275849366476957_" fill="#FFFFFF" cx="390.494" cy="87.923" r="2.873"/>
			
				<circle id="a2746b4a-0ae4-4308-876e-5b82657e1872_00000018938468106536502130000008636708260051779721_" fill="#FFFFFF" cx="393.499" cy="73.986" r="2.873"/>
			
				<circle id="fc3316e0-7094-4ce0-99ed-43f1e6e4350c_00000040556433256037793600000011366101375538523274_" fill="#FFFFFF" cx="400.468" cy="80.955" r="2.873"/>
			
				<circle id="b5d18443-d50e-4590-8e8f-80b6a7f6d348_00000009557553766047189330000004600244910493318817_" fill="#FFFFFF" cx="397.495" cy="94.891" r="2.873"/>
			<circle fill="#50E6FF" cx="393.4" cy="73.986" r="3.468"/>
			
				<linearGradient id="SVGID_00000132049050946623425790000011526228785733978288_" gradientUnits="userSpaceOnUse" x1="4866.8574" y1="8504.2812" x2="4866.8574" y2="8518.1191" gradientTransform="matrix(0.5 0 0 0.5 -2033.0601 -4194.832)">
				<stop  offset="0" style="stop-color:#C69AEB"/>
				<stop  offset="1" style="stop-color:#6F4BB2"/>
			</linearGradient>
			<circle fill="url(#SVGID_00000132049050946623425790000011526228785733978288_)" cx="400.369" cy="80.955" r="3.468"/>
			
				<linearGradient id="SVGID_00000000215821904152167660000000897170293821480371_" gradientUnits="userSpaceOnUse" x1="4861.1108" y1="8532.1885" x2="4861.1108" y2="8545.9922" gradientTransform="matrix(0.5 0 0 0.5 -2033.0601 -4194.832)">
				<stop  offset="0" style="stop-color:#C69AEB"/>
				<stop  offset="1" style="stop-color:#6F4BB2"/>
			</linearGradient>
			<circle fill="url(#SVGID_00000000215821904152167660000000897170293821480371_)" cx="397.495" cy="94.891" r="3.468"/>
			<circle fill="#50E6FF" cx="390.494" cy="87.923" r="3.468"/>
			<g>
				<path fill="#999999" d="M361.069,59.753h4.26l0,0v11.79c0,0.529-0.429,0.958-0.958,0.958h-4.227
					c-0.529,0-0.958-0.429-0.958-0.958l0,0v-9.908C359.186,60.595,360.029,59.753,361.069,59.753L361.069,59.753z"/>
				<path opacity="0.5" fill="#999999" enable-background="new    " d="M361.069,59.753h4.26l0,0v11.79
					c0,0.529-0.429,0.958-0.958,0.958h-4.227c-0.529,0-0.958-0.429-0.958-0.958l0,0v-9.908
					C359.186,60.595,360.029,59.753,361.069,59.753L361.069,59.753z"/>
			</g>
			<g>
				<path fill="#999999" d="M409.186,59.753h4.26c1.04,0,1.882,0.843,1.882,1.882v9.908c0,0.529-0.429,0.958-0.958,0.958l0,0h-4.26
					c-0.516-0.018-0.925-0.441-0.925-0.958V59.753L409.186,59.753z"/>
				<path opacity="0.5" fill="#999999" enable-background="new    " d="M409.186,59.753h4.26c1.04,0,1.882,0.843,1.882,1.882v9.908
					c0,0.529-0.429,0.958-0.958,0.958l0,0h-4.26c-0.516-0.018-0.925-0.441-0.925-0.958V59.753L409.186,59.753z"/>
			</g>
			<path fill="#949494" d="M415.329,61.635v4.128l0,0h-56.143l0,0v-4.128c0-1.04,0.843-1.882,1.882-1.882h52.411
				C414.506,59.771,415.329,60.608,415.329,61.635z"/>
			<g>
				<path fill="#999999" d="M360.144,96.906h4.26c0.529,0,0.958,0.429,0.958,0.958v11.889l0,0h-4.293
					c-1.04,0-1.882-0.843-1.882-1.882v-9.908c-0.055-0.526,0.327-0.997,0.854-1.052C360.074,96.907,360.109,96.906,360.144,96.906z"
					/>
				<path opacity="0.5" fill="#999999" enable-background="new    " d="M360.144,96.906h4.26c0.529,0,0.958,0.429,0.958,0.958
					v11.889l0,0h-4.293c-1.04,0-1.882-0.843-1.882-1.882v-9.908c-0.055-0.526,0.327-0.997,0.854-1.052
					C360.074,96.907,360.109,96.906,360.144,96.906z"/>
			</g>
			<g>
				<path fill="#999999" d="M410.111,96.906h4.26c0.529,0,0.958,0.429,0.958,0.958l0,0v9.908c0,1.04-0.843,1.882-1.882,1.882l0,0
					h-4.26l0,0V97.963c-0.055-0.526,0.327-0.997,0.853-1.052C410.063,96.908,410.087,96.907,410.111,96.906z"/>
				<path opacity="0.5" fill="#999999" enable-background="new    " d="M410.111,96.906h4.26c0.529,0,0.958,0.429,0.958,0.958l0,0
					v9.908c0,1.04-0.843,1.882-1.882,1.882l0,0h-4.26l0,0V97.963c-0.055-0.526,0.327-0.997,0.853-1.052
					C410.063,96.908,410.087,96.907,410.111,96.906z"/>
			</g>
			<path fill="#949494" d="M359.186,107.87v-4.128l0,0h56.143l0,0v4.128c0,1.04-0.843,1.882-1.882,1.882h-52.378
				C360.029,109.753,359.186,108.91,359.186,107.87z"/>
		</g>
	</g>
	<g>
		<g>
			<line fill="none" stroke="#3C3C41" stroke-miterlimit="10" x1="422.185" y1="84.753" x2="483.012" y2="84.753"/>
			<g>
				<polygon fill="#3C3C41" points="481.918,88.493 488.395,84.753 481.918,81.013 				"/>
			</g>
		</g>
	</g>
	<g>
		<g>
			<line fill="none" stroke="#3C3C41" stroke-miterlimit="10" x1="553.185" y1="84.753" x2="614.012" y2="84.753"/>
			<g>
				<polygon fill="#3C3C41" points="612.918,88.493 619.395,84.753 612.918,81.013 				"/>
			</g>
		</g>
	</g>
	<g>
		<g id="a53a4de8-371c-49da-a662-c4631299fc03_00000137101918822222963430000008116000490887731903_">
			<path fill="#76BC2D" d="M527.391,83.183c0.014,0.333-0.239,0.617-0.571,0.642h-4.97c-0.333,0.014-0.617-0.239-0.642-0.571v-3.709
				c-0.014-0.333,0.239-0.617,0.571-0.642h4.97c0.333-0.014,0.617,0.239,0.642,0.571V83.183z"/>
			<path fill="#76BC2D" d="M536.213,86.94c0.014,0.333-0.239,0.617-0.571,0.642h-4.97c-0.333,0.014-0.617-0.239-0.642-0.571v-3.686
				c-0.014-0.333,0.239-0.617,0.571-0.642h4.97c0.333-0.014,0.617,0.239,0.642,0.571V86.94z"/>
			<path fill="#76BC2D" d="M527.391,90.745c0.014,0.333-0.239,0.617-0.571,0.642h-4.97c-0.333,0.014-0.617-0.239-0.642-0.571v-3.709
				c-0.014-0.333,0.239-0.617,0.571-0.642h4.97c0.333-0.014,0.617,0.239,0.642,0.571V90.745z"/>
			<path fill="#86D633" d="M518.57,79.426c0.014,0.32-0.228,0.593-0.547,0.618h-5.112c-0.324,0.015-0.605-0.224-0.642-0.547v-3.852
				c0.011-0.315,0.257-0.57,0.571-0.594h4.97c0.523,0,0.761,0.262,0.761,0.642V79.426z"/>
			<path fill="#76BC2D" d="M518.57,86.94c0.027,0.327-0.216,0.614-0.543,0.642c-0.001,0-0.003,0-0.004,0h-5.112
				c-0.341,0.013-0.629-0.252-0.642-0.593c-0.001-0.016-0.001-0.032,0-0.049v-3.757c-0.001-0.324,0.248-0.593,0.571-0.618h4.97
				c0.523,0,0.761,0.262,0.761,0.618V86.94z"/>
			<path fill="#76BC2D" d="M518.57,94.525c0.027,0.327-0.216,0.614-0.543,0.642c-0.001,0-0.003,0-0.004,0h-5.112
				c-0.333,0.014-0.617-0.239-0.642-0.571v-3.852c-0.013-0.328,0.242-0.605,0.57-0.618c0,0,0.001,0,0.001,0h4.97
				c0.523,0,0.761,0.238,0.761,0.618V94.525z"/>
			<g>
				<path fill="#999999" d="M504.184,66.753h3.067l0,0v8.56c0,0.381-0.309,0.69-0.69,0.69h-3.044c-0.381,0-0.69-0.309-0.69-0.69
					v-7.133c-0.039-0.747,0.535-1.385,1.282-1.425C504.135,66.753,504.16,66.753,504.184,66.753z"/>
				<path opacity="0.5" fill="#999999" enable-background="new    " d="M504.184,66.753h3.067l0,0v8.56
					c0,0.381-0.309,0.69-0.69,0.69h-3.044c-0.381,0-0.69-0.309-0.69-0.69v-7.133c-0.039-0.747,0.535-1.385,1.282-1.425
					C504.135,66.753,504.16,66.753,504.184,66.753z"/>
			</g>
			<g>
				<path fill="#999999" d="M538.829,66.753h3.067c0.749,0,1.355,0.607,1.355,1.355v7.133c0,0.381-0.309,0.69-0.69,0.69l0,0h-3.067
					c-0.381,0-0.69-0.309-0.69-0.69v-8.489H538.829z"/>
				<path opacity="0.5" fill="#999999" enable-background="new    " d="M538.829,66.753h3.067c0.749,0,1.355,0.607,1.355,1.355
					v7.133c0,0.381-0.309,0.69-0.69,0.69l0,0h-3.067c-0.381,0-0.69-0.309-0.69-0.69v-8.489H538.829z"/>
			</g>
			<path fill="#949494" d="M543.251,68.108v2.972l0,0h-40.423l0,0v-2.972c0-0.749,0.607-1.355,1.355-1.355h37.736
				C542.659,66.766,543.252,67.369,543.251,68.108z"/>
			<g>
				<path fill="#999999" d="M503.518,93.503h3.067c0.381,0,0.69,0.309,0.69,0.69v8.56l0,0h-3.091c-0.749,0-1.355-0.607-1.355-1.355
					v-7.324C502.887,93.74,503.179,93.498,503.518,93.503z"/>
				<path opacity="0.5" fill="#999999" enable-background="new    " d="M503.518,93.503h3.067c0.381,0,0.69,0.309,0.69,0.69v8.56
					l0,0h-3.091c-0.749,0-1.355-0.607-1.355-1.355v-7.324C502.887,93.74,503.179,93.498,503.518,93.503z"/>
			</g>
			<g>
				<path fill="#999999" d="M539.495,93.503h3.067c0.381,0,0.69,0.309,0.69,0.69v0v7.133c0,0.749-0.607,1.355-1.355,1.355h-3.067
					l0,0v-8.608C538.886,93.749,539.165,93.509,539.495,93.503z"/>
				<path opacity="0.5" fill="#999999" enable-background="new    " d="M539.495,93.503h3.067c0.381,0,0.69,0.309,0.69,0.69v0v7.133
					c0,0.749-0.607,1.355-1.355,1.355h-3.067l0,0v-8.608C538.886,93.749,539.165,93.509,539.495,93.503z"/>
			</g>
			<path fill="#949494" d="M502.829,101.397v-2.972l0,0h40.423l0,0v2.972c0,0.749-0.607,1.355-1.355,1.355h-37.712
				C503.436,102.753,502.829,102.146,502.829,101.397z"/>
		</g>
	</g>
	<g>
		
			<linearGradient id="SVGID_00000089575612901502935820000007291957031512934803_" gradientUnits="userSpaceOnUse" x1="93.7694" y1="-3953.5881" x2="93.7694" y2="-3917.3069" gradientTransform="matrix(1 0 0 -0.99 564 -3811.5383)">
			<stop  offset="0" style="stop-color:#949494"/>
			<stop  offset="0.33" style="stop-color:#9B9B9B"/>
			<stop  offset="0.82" style="stop-color:#AEAFB0"/>
			<stop  offset="1" style="stop-color:#B6B8B9"/>
		</linearGradient>
		<path fill="url(#SVGID_00000089575612901502935820000007291957031512934803_)" d="M673.989,86.404v-4.193l-0.234-0.211
			l-4.31-1.452l-1.101-2.787l2.131-4.403l0.234-0.492l-1.405-1.429l-1.64-1.616l-0.562,0.281l-4.216,2.131l-2.834-0.796
			l-1.827-4.684h-4.193l-0.211,0.211l-1.452,4.286l-2.951,1.101l-4.872-2.342l-2.998,2.928l0.281,0.562l2.249,4.263
			c2.26-1.362,4.857-2.06,7.495-2.014c2.995,0.015,5.913,0.947,8.362,2.67c0.294,0.184,0.576,0.387,0.843,0.609l0,0
			c0.984,0.851,1.734,1.939,2.178,3.162l0,0c0.327,0.828,0.494,1.71,0.492,2.6c0,4.178-3.387,7.565-7.565,7.566
			c-0.016,0-0.031,0-0.047,0c-1.567-0.002-3.096-0.484-4.38-1.382c-2.536,2.438-5.858,3.891-9.369,4.099l-0.445,0.913l2.998,3.021
			l0.609-0.164l4.216-2.342l2.904,1.195l1.85,5.059h4.216l0.164-0.586l1.499-4.474l2.857-1.195l4.942,2.342l2.975-2.951
			l-0.281-0.562l-2.178-4.193l0.89-2.928L673.989,86.404z"/>
		<path fill="#50E6FF" d="M641.198,88.652L641.198,88.652c-2.247,0.012-4.405-0.874-5.996-2.459c-0.508-0.31-0.669-0.972-0.36-1.481
			c0.31-0.508,0.972-0.669,1.481-0.36c0.172,0.105,0.311,0.255,0.402,0.435c1.202,1.145,2.814,1.761,4.474,1.71l0,0
			c1.637,0.04,3.223-0.575,4.403-1.71c1.597-1.548,3.749-2.392,5.973-2.342c2.236-0.039,4.398,0.802,6.019,2.342
			c0.438,0.403,0.465,1.085,0.062,1.522s-1.085,0.465-1.522,0.062c-0.021-0.02-0.042-0.04-0.062-0.062
			c-1.178-1.168-2.768-1.824-4.427-1.827l0,0c-1.655-0.012-3.243,0.647-4.403,1.827C645.618,87.863,643.444,88.705,641.198,88.652z"
			/>
		<path fill="#50E6FF" d="M641.198,84.366L641.198,84.366c-1.106-0.001-2.167-0.439-2.951-1.218
			c-0.403-0.438-0.376-1.119,0.062-1.522c0.413-0.38,1.048-0.38,1.46,0c0.377,0.382,0.893,0.593,1.429,0.586l0,0
			c0.517-0.046,1.008-0.251,1.405-0.586c4.98-4.914,12.985-4.914,17.965,0c0.403,0.438,0.376,1.119-0.062,1.522
			c-0.413,0.38-1.048,0.38-1.46,0c-4.155-4.123-10.859-4.123-15.014,0C643.258,83.872,642.256,84.303,641.198,84.366z"/>
		<path fill="#32BEDD" d="M641.198,92.939c-3.399,0.024-6.665-1.317-9.064-3.724c-0.393-0.423-0.393-1.077,0-1.499
			c0.429-0.423,1.117-0.423,1.546,0c1.987,2.001,4.698,3.116,7.519,3.092c2.814,0.004,5.513-1.118,7.495-3.115
			c0.784-0.698,1.785-1.104,2.834-1.148c1.096,0.017,2.143,0.453,2.928,1.218c0.42,0.421,0.42,1.102,0,1.522
			c-0.429,0.423-1.117,0.423-1.546,0c-0.364-0.372-0.861-0.583-1.382-0.586l0,0c-0.523,0.04-1.018,0.254-1.405,0.609
			C647.741,91.646,644.535,92.951,641.198,92.939z"/>
	</g>
	<g>
		<path fill="#212121" d="M81.602,22.831c0.494,0,0.902,0.367,0.966,0.843l0.009,0.132l0.001,3.023
			c1.91,0.388,3.414,1.893,3.802,3.803l3.022,0c0.538,0,0.975,0.437,0.975,0.975c0,0.494-0.367,0.902-0.843,0.966l-0.132,0.009
			h-2.925v2.275h2.925c0.494,0,0.902,0.367,0.966,0.843l0.009,0.132c0,0.494-0.367,0.902-0.843,0.966l-0.132,0.009h-2.925v2.275
			h2.925c0.494,0,0.902,0.367,0.966,0.843l0.009,0.132c0,0.494-0.367,0.902-0.843,0.966l-0.132,0.009l-3.023,0.001
			c-0.388,1.909-1.892,3.413-3.802,3.801l-0.001,3.023c0,0.538-0.437,0.975-0.975,0.975c-0.494,0-0.902-0.367-0.966-0.843
			l-0.009-0.132V44.93H78.35l0.001,2.926c0,0.494-0.367,0.902-0.843,0.966l-0.132,0.009c-0.494,0-0.902-0.367-0.966-0.843
			l-0.009-0.132L76.4,44.93h-2.274v2.926c0,0.494-0.367,0.902-0.843,0.966l-0.132,0.009c-0.494,0-0.902-0.367-0.966-0.843
			l-0.009-0.132l0.001-3.022c-1.91-0.388-3.415-1.892-3.803-3.803h-3.023c-0.538,0-0.975-0.437-0.975-0.975
			c0-0.494,0.367-0.902,0.843-0.966l0.132-0.009l2.925-0.001v-2.275l-2.925,0.001c-0.494,0-0.902-0.367-0.966-0.843l-0.009-0.132
			c0-0.494,0.367-0.902,0.843-0.966l0.132-0.009l2.925-0.001V32.58l-2.925,0.001c-0.494,0-0.902-0.367-0.966-0.843l-0.009-0.132
			c0-0.494,0.367-0.902,0.843-0.966l0.132-0.009l3.023-0.001c0.388-1.91,1.893-3.414,3.803-3.801l-0.001-3.022
			c0-0.538,0.437-0.975,0.975-0.975c0.494,0,0.902,0.367,0.966,0.843l0.009,0.132v2.924H76.4l0.001-2.924
			c0-0.494,0.367-0.902,0.843-0.966l0.132-0.009c0.494,0,0.902,0.367,0.966,0.843l0.009,0.132L78.35,26.73h2.276v-2.924
			c0-0.449,0.303-0.827,0.716-0.94l0.127-0.026L81.602,22.831z M81.602,28.681h-8.45c-1.615,0-2.925,1.31-2.925,2.925v8.45
			c0,1.615,1.31,2.925,2.925,2.925h8.45c1.615,0,2.925-1.31,2.925-2.925v-8.45C84.527,29.991,83.217,28.681,81.602,28.681z
			 M77.383,31.938c2.154,0,3.9,1.746,3.9,3.9c0,2.154-1.746,3.9-3.9,3.9c-2.154,0-3.9-1.746-3.9-3.9
			C73.483,33.684,75.229,31.938,77.383,31.938z M77.383,33.888c-1.077,0-1.95,0.873-1.95,1.95c0,1.077,0.873,1.95,1.95,1.95
			c1.077,0,1.95-0.873,1.95-1.95C79.333,34.761,78.46,33.888,77.383,33.888z"/>
	</g>
	<g>
		<path fill="#212121" d="M81.602,72.611c0.494,0,0.902,0.367,0.966,0.843l0.009,0.132l0.001,3.023
			c1.91,0.388,3.414,1.893,3.802,3.803l3.022,0c0.538,0,0.975,0.437,0.975,0.975c0,0.494-0.367,0.902-0.843,0.966l-0.132,0.009
			h-2.925v2.275h2.925c0.494,0,0.902,0.367,0.966,0.843l0.009,0.132c0,0.494-0.367,0.902-0.843,0.966l-0.132,0.009h-2.925v2.275
			h2.925c0.494,0,0.902,0.367,0.966,0.843l0.009,0.132c0,0.494-0.367,0.902-0.843,0.966l-0.132,0.009l-3.023,0.001
			c-0.388,1.909-1.892,3.413-3.802,3.801l-0.001,3.023c0,0.538-0.437,0.975-0.975,0.975c-0.494,0-0.902-0.367-0.966-0.843
			l-0.009-0.132V94.71H78.35l0.001,2.926c0,0.494-0.367,0.902-0.843,0.966l-0.132,0.009c-0.494,0-0.902-0.367-0.966-0.843
			l-0.009-0.132L76.4,94.71h-2.274v2.926c0,0.494-0.367,0.902-0.843,0.966l-0.132,0.009c-0.494,0-0.902-0.367-0.966-0.843
			l-0.009-0.132l0.001-3.022c-1.91-0.388-3.415-1.892-3.803-3.803h-3.023c-0.538,0-0.975-0.437-0.975-0.975
			c0-0.494,0.367-0.902,0.843-0.966l0.132-0.009l2.925-0.001v-2.275l-2.925,0.001c-0.494,0-0.902-0.367-0.966-0.843l-0.009-0.132
			c0-0.494,0.367-0.902,0.843-0.966l0.132-0.009l2.925-0.001V82.36l-2.925,0.001c-0.494,0-0.902-0.367-0.966-0.843l-0.009-0.132
			c0-0.494,0.367-0.902,0.843-0.966l0.132-0.009l3.023-0.001c0.388-1.91,1.893-3.414,3.803-3.801l-0.001-3.022
			c0-0.538,0.437-0.975,0.975-0.975c0.494,0,0.902,0.367,0.966,0.843l0.009,0.132v2.924H76.4l0.001-2.924
			c0-0.494,0.367-0.902,0.843-0.966l0.132-0.009c0.494,0,0.902,0.367,0.966,0.843l0.009,0.132L78.35,76.51h2.276v-2.924
			c0-0.449,0.303-0.827,0.716-0.94l0.127-0.026L81.602,72.611z M81.602,78.461h-8.45c-1.615,0-2.925,1.31-2.925,2.925v8.45
			c0,1.615,1.31,2.925,2.925,2.925h8.45c1.615,0,2.925-1.31,2.925-2.925v-8.45C84.527,79.771,83.217,78.461,81.602,78.461z
			 M77.383,81.718c2.154,0,3.9,1.746,3.9,3.9c0,2.154-1.746,3.9-3.9,3.9c-2.154,0-3.9-1.746-3.9-3.9
			C73.483,83.464,75.229,81.718,77.383,81.718z M77.383,83.668c-1.077,0-1.95,0.873-1.95,1.95c0,1.077,0.873,1.95,1.95,1.95
			c1.077,0,1.95-0.873,1.95-1.95C79.333,84.541,78.46,83.668,77.383,83.668z"/>
	</g>
	<g>
		<path fill="#212121" d="M81.602,118.32c0.494,0,0.902,0.367,0.966,0.843l0.009,0.132l0.001,3.023
			c1.91,0.388,3.414,1.893,3.802,3.803l3.022,0c0.538,0,0.975,0.437,0.975,0.975c0,0.494-0.367,0.902-0.843,0.966l-0.132,0.009
			h-2.925v2.275h2.925c0.494,0,0.902,0.367,0.966,0.843l0.009,0.132c0,0.494-0.367,0.902-0.843,0.966l-0.132,0.009h-2.925v2.275
			h2.925c0.494,0,0.902,0.367,0.966,0.843l0.009,0.132c0,0.494-0.367,0.902-0.843,0.966l-0.132,0.009l-3.023,0.001
			c-0.388,1.909-1.892,3.413-3.802,3.801l-0.001,3.023c0,0.538-0.437,0.975-0.975,0.975c-0.494,0-0.902-0.367-0.966-0.843
			l-0.009-0.132v-2.926H78.35l0.001,2.926c0,0.494-0.367,0.902-0.843,0.966l-0.132,0.009c-0.494,0-0.902-0.367-0.966-0.843
			l-0.009-0.132l-0.001-2.926h-2.274v2.926c0,0.494-0.367,0.902-0.843,0.966l-0.132,0.009c-0.494,0-0.902-0.367-0.966-0.843
			l-0.009-0.132l0.001-3.022c-1.91-0.388-3.415-1.892-3.803-3.803h-3.023c-0.538,0-0.975-0.437-0.975-0.975
			c0-0.494,0.367-0.902,0.843-0.966l0.132-0.009l2.925-0.001v-2.275l-2.925,0.001c-0.494,0-0.902-0.367-0.966-0.843l-0.009-0.132
			c0-0.494,0.367-0.902,0.843-0.966l0.132-0.009l2.925-0.001v-2.275l-2.925,0.001c-0.494,0-0.902-0.367-0.966-0.843l-0.009-0.132
			c0-0.494,0.367-0.902,0.843-0.966l0.132-0.009l3.023-0.001c0.388-1.91,1.893-3.414,3.803-3.801l-0.001-3.022
			c0-0.538,0.437-0.975,0.975-0.975c0.494,0,0.902,0.367,0.966,0.843l0.009,0.132v2.924H76.4l0.001-2.924
			c0-0.494,0.367-0.902,0.843-0.966l0.132-0.009c0.494,0,0.902,0.367,0.966,0.843l0.009,0.132l-0.001,2.924h2.276v-2.924
			c0-0.449,0.303-0.827,0.716-0.94l0.127-0.026L81.602,118.32z M81.602,124.17h-8.45c-1.615,0-2.925,1.31-2.925,2.925v8.45
			c0,1.615,1.31,2.925,2.925,2.925h8.45c1.615,0,2.925-1.31,2.925-2.925v-8.45C84.527,125.48,83.217,124.17,81.602,124.17z
			 M77.383,127.426c2.154,0,3.9,1.746,3.9,3.9c0,2.154-1.746,3.9-3.9,3.9c-2.154,0-3.9-1.746-3.9-3.9
			C73.483,129.173,75.229,127.426,77.383,127.426z M77.383,129.376c-1.077,0-1.95,0.873-1.95,1.95c0,1.077,0.873,1.95,1.95,1.95
			c1.077,0,1.95-0.873,1.95-1.95C79.333,130.249,78.46,129.376,77.383,129.376z"/>
	</g>
	<line fill="none" stroke="#258378" stroke-width="1.5" stroke-miterlimit="10" x1="114.798" y1="35.694" x2="93.798" y2="35.694"/>
	<line fill="none" stroke="#258378" stroke-width="1.5" stroke-miterlimit="10" x1="114.798" y1="84.753" x2="93.798" y2="84.753"/>
	<line fill="none" stroke="#258378" stroke-width="1.5" stroke-miterlimit="10" x1="114.798" y1="131.32" x2="93.798" y2="131.32"/>
</g>
<g id="Text">
	<g>
		<path fill="#737474" d="M448.765,103.575h-0.984v-3.832h-4.348v3.832h-0.984v-8.402h0.984v3.686h4.348v-3.686h0.984V103.575z"/>
		<path fill="#737474" d="M455.811,96.064h-2.426v7.512H452.4v-7.512h-2.42v-0.891h5.83V96.064z"/>
		<path fill="#737474" d="M462.41,96.064h-2.426v7.512H459v-7.512h-2.42v-0.891h5.83V96.064z"/>
		<path fill="#737474" d="M464.598,100.4v3.176h-0.984v-8.402h2.309c0.898,0,1.595,0.219,2.089,0.656s0.741,1.055,0.741,1.852
			s-0.274,1.449-0.823,1.957s-1.29,0.762-2.224,0.762H464.598z M464.598,96.064v3.445h1.031c0.68,0,1.198-0.155,1.556-0.466
			s0.536-0.749,0.536-1.315c0-1.109-0.656-1.664-1.969-1.664H464.598z"/>
	</g>
	<g>
		<path fill="#258378" d="M265.596,56.939h-0.979v-5.637c0-0.445,0.027-0.99,0.082-1.635h-0.023
			c-0.094,0.379-0.178,0.65-0.252,0.814l-2.871,6.457h-0.48l-2.865-6.41c-0.082-0.188-0.166-0.475-0.252-0.861h-0.023
			c0.031,0.336,0.047,0.885,0.047,1.646v5.625h-0.949v-8.402h1.301l2.578,5.859c0.199,0.449,0.328,0.785,0.387,1.008h0.035
			c0.168-0.461,0.303-0.805,0.404-1.031l2.631-5.836h1.23V56.939z"/>
		<path fill="#258378" d="M271.131,57.079c-1.188,0-2.143-0.393-2.865-1.178c-0.715-0.785-1.072-1.807-1.072-3.064
			c0-1.355,0.365-2.434,1.096-3.234c0.734-0.805,1.729-1.207,2.982-1.207c1.156,0,2.09,0.391,2.801,1.172s1.066,1.803,1.066,3.064
			c0,1.371-0.363,2.455-1.09,3.252c-0.172,0.191-0.355,0.355-0.551,0.492l2.361,1.693h-1.787l-1.582-1.184
			C272.076,57.015,271.623,57.079,271.131,57.079z M271.201,49.286c-0.883,0-1.6,0.318-2.15,0.955s-0.826,1.473-0.826,2.508
			c0,1.031,0.268,1.865,0.803,2.502c0.539,0.629,1.24,0.943,2.104,0.943c0.922,0,1.648-0.301,2.18-0.902s0.797-1.443,0.797-2.525
			c0-1.113-0.258-1.971-0.773-2.572C272.818,49.589,272.107,49.286,271.201,49.286z"/>
		<path fill="#258378" d="M281.399,49.427h-2.426v7.512h-0.984v-7.512h-2.42v-0.891h5.83V49.427z"/>
		<path fill="#258378" d="M287.999,49.427h-2.426v7.512h-0.984v-7.512h-2.42v-0.891h5.83V49.427z"/>
	</g>
	<g>
		<path fill="#258378" d="M265.596,102.548h-0.979v-5.637c0-0.445,0.027-0.99,0.082-1.635h-0.023
			c-0.094,0.379-0.178,0.65-0.252,0.814l-2.871,6.457h-0.48l-2.865-6.41c-0.082-0.188-0.166-0.475-0.252-0.861h-0.023
			c0.031,0.336,0.047,0.885,0.047,1.646v5.625h-0.949v-8.402h1.301l2.578,5.859c0.199,0.449,0.328,0.785,0.387,1.008h0.035
			c0.168-0.461,0.303-0.805,0.404-1.031l2.631-5.836h1.23V102.548z"/>
		<path fill="#258378" d="M271.131,102.689c-1.188,0-2.143-0.393-2.865-1.178c-0.715-0.785-1.072-1.807-1.072-3.064
			c0-1.355,0.365-2.434,1.096-3.234c0.734-0.805,1.729-1.207,2.982-1.207c1.156,0,2.09,0.391,2.801,1.172s1.066,1.803,1.066,3.064
			c0,1.371-0.363,2.455-1.09,3.252c-0.172,0.191-0.355,0.355-0.551,0.492l2.361,1.693h-1.787l-1.582-1.184
			C272.076,102.624,271.623,102.689,271.131,102.689z M271.201,94.896c-0.883,0-1.6,0.318-2.15,0.955s-0.826,1.473-0.826,2.508
			c0,1.031,0.268,1.865,0.803,2.502c0.539,0.629,1.24,0.943,2.104,0.943c0.922,0,1.648-0.301,2.18-0.902s0.797-1.443,0.797-2.525
			c0-1.113-0.258-1.971-0.773-2.572C272.818,95.198,272.107,94.896,271.201,94.896z"/>
		<path fill="#258378" d="M281.399,95.036h-2.426v7.512h-0.984v-7.512h-2.42v-0.891h5.83V95.036z"/>
		<path fill="#258378" d="M287.999,95.036h-2.426v7.512h-0.984v-7.512h-2.42v-0.891h5.83V95.036z"/>
	</g>
	<g>
		<path fill="#258378" d="M267.053,148.157h-0.979v-5.637c0-0.445,0.027-0.99,0.082-1.635h-0.023
			c-0.094,0.379-0.178,0.65-0.252,0.814l-2.871,6.457h-0.48l-2.865-6.41c-0.082-0.188-0.166-0.475-0.252-0.861h-0.023
			c0.031,0.336,0.047,0.885,0.047,1.646v5.625h-0.949v-8.402h1.301l2.578,5.859c0.199,0.449,0.328,0.785,0.387,1.008h0.035
			c0.168-0.461,0.303-0.805,0.404-1.031l2.631-5.836h1.23V148.157z"/>
		<path fill="#258378" d="M272.587,148.298c-1.188,0-2.143-0.393-2.865-1.178c-0.715-0.785-1.072-1.807-1.072-3.064
			c0-1.355,0.365-2.434,1.096-3.234c0.734-0.805,1.729-1.207,2.982-1.207c1.156,0,2.09,0.391,2.801,1.172s1.066,1.803,1.066,3.064
			c0,1.371-0.363,2.455-1.09,3.252c-0.172,0.191-0.355,0.355-0.551,0.492l2.361,1.693h-1.787l-1.582-1.184
			C273.533,148.233,273.08,148.298,272.587,148.298z M272.658,140.505c-0.883,0-1.6,0.318-2.15,0.955s-0.826,1.473-0.826,2.508
			c0,1.031,0.268,1.865,0.803,2.502c0.539,0.629,1.24,0.943,2.104,0.943c0.922,0,1.648-0.301,2.18-0.902s0.797-1.443,0.797-2.525
			c0-1.113-0.258-1.971-0.773-2.572C274.275,140.808,273.564,140.505,272.658,140.505z"/>
		<path fill="#258378" d="M282.856,140.646h-2.426v7.512h-0.984v-7.512h-2.42v-0.891h5.83V140.646z"/>
		<path fill="#258378" d="M289.455,140.646h-2.426v7.512h-0.984v-7.512h-2.42v-0.891h5.83V140.646z"/>
	</g>
	<g>
		<path fill="#2F2F2F" d="M14.251,39.737v-9.803h2.707c3.455,0,5.182,1.593,5.182,4.778c0,1.513-0.479,2.729-1.439,3.647
			c-0.959,0.918-2.243,1.377-3.852,1.377H14.251z M15.4,30.974v7.725h1.463c1.285,0,2.286-0.344,3.001-1.032
			s1.073-1.663,1.073-2.926c0-2.511-1.335-3.767-4.006-3.767H15.4z"/>
		<path fill="#2F2F2F" d="M29.517,36.518h-4.942c0.018,0.779,0.228,1.381,0.629,1.805s0.953,0.636,1.654,0.636
			c0.789,0,1.513-0.26,2.174-0.779v1.053c-0.615,0.446-1.429,0.67-2.44,0.67c-0.989,0-1.766-0.318-2.331-0.953
			c-0.565-0.637-0.848-1.53-0.848-2.684c0-1.089,0.309-1.977,0.926-2.662c0.618-0.687,1.384-1.029,2.3-1.029
			s1.625,0.296,2.126,0.889s0.752,1.415,0.752,2.468V36.518z M28.369,35.567c-0.004-0.647-0.161-1.15-0.468-1.511
			s-0.735-0.54-1.282-0.54c-0.529,0-0.978,0.189-1.347,0.567s-0.597,0.873-0.684,1.483H28.369z"/>
		<path fill="#2F2F2F" d="M36.655,32.737l-2.789,7h-1.101l-2.652-7h1.23l1.777,5.086c0.132,0.374,0.214,0.699,0.246,0.978h0.027
			c0.045-0.351,0.119-0.668,0.219-0.95l1.859-5.113H36.655z"/>
		<path fill="#2F2F2F" d="M38.47,30.96c-0.201,0-0.372-0.068-0.513-0.205s-0.212-0.31-0.212-0.52s0.071-0.384,0.212-0.523
			c0.141-0.139,0.312-0.208,0.513-0.208c0.205,0,0.379,0.069,0.523,0.208c0.144,0.14,0.215,0.313,0.215,0.523
			c0,0.2-0.072,0.371-0.215,0.513S38.675,30.96,38.47,30.96z M39.017,39.737h-1.121v-7h1.121V39.737z"/>
		<path fill="#2F2F2F" d="M45.929,39.416c-0.538,0.323-1.176,0.485-1.914,0.485c-0.998,0-1.804-0.324-2.417-0.975
			c-0.613-0.648-0.919-1.491-0.919-2.525c0-1.153,0.331-2.079,0.991-2.779c0.661-0.699,1.542-1.049,2.646-1.049
			c0.615,0,1.158,0.114,1.627,0.342v1.148c-0.52-0.364-1.076-0.547-1.668-0.547c-0.715,0-1.302,0.256-1.76,0.77
			c-0.458,0.512-0.687,1.186-0.687,2.02c0,0.82,0.215,1.468,0.646,1.941s1.008,0.711,1.733,0.711c0.611,0,1.185-0.203,1.723-0.608
			V39.416z"/>
		<path fill="#2F2F2F" d="M53.099,36.518h-4.942c0.018,0.779,0.228,1.381,0.629,1.805s0.953,0.636,1.654,0.636
			c0.789,0,1.513-0.26,2.174-0.779v1.053c-0.615,0.446-1.429,0.67-2.44,0.67c-0.989,0-1.766-0.318-2.331-0.953
			c-0.565-0.637-0.848-1.53-0.848-2.684c0-1.089,0.309-1.977,0.926-2.662c0.618-0.687,1.384-1.029,2.3-1.029
			s1.625,0.296,2.126,0.889s0.752,1.415,0.752,2.468V36.518z M51.951,35.567c-0.004-0.647-0.161-1.15-0.468-1.511
			s-0.735-0.54-1.282-0.54c-0.529,0-0.978,0.189-1.347,0.567s-0.597,0.873-0.684,1.483H51.951z"/>
	</g>
	<g>
		<path fill="#2F2F2F" d="M14.251,87.831v-9.803h2.707c3.455,0,5.182,1.593,5.182,4.778c0,1.513-0.479,2.729-1.439,3.647
			c-0.959,0.918-2.243,1.377-3.852,1.377H14.251z M15.4,79.067v7.725h1.463c1.285,0,2.286-0.344,3.001-1.032
			s1.073-1.663,1.073-2.926c0-2.511-1.335-3.767-4.006-3.767H15.4z"/>
		<path fill="#2F2F2F" d="M29.517,84.611h-4.942c0.018,0.779,0.228,1.381,0.629,1.805s0.953,0.636,1.654,0.636
			c0.789,0,1.513-0.26,2.174-0.779v1.053c-0.615,0.446-1.429,0.67-2.44,0.67c-0.989,0-1.766-0.318-2.331-0.953
			c-0.565-0.637-0.848-1.53-0.848-2.684c0-1.089,0.309-1.977,0.926-2.662c0.618-0.687,1.384-1.029,2.3-1.029
			s1.625,0.296,2.126,0.889s0.752,1.415,0.752,2.468V84.611z M28.369,83.661c-0.004-0.647-0.161-1.15-0.468-1.511
			s-0.735-0.54-1.282-0.54c-0.529,0-0.978,0.189-1.347,0.567s-0.597,0.873-0.684,1.483H28.369z"/>
		<path fill="#2F2F2F" d="M36.655,80.831l-2.789,7h-1.101l-2.652-7h1.23l1.777,5.086c0.132,0.374,0.214,0.699,0.246,0.978h0.027
			c0.045-0.351,0.119-0.668,0.219-0.95l1.859-5.113H36.655z"/>
		<path fill="#2F2F2F" d="M38.47,79.054c-0.201,0-0.372-0.068-0.513-0.205s-0.212-0.31-0.212-0.52s0.071-0.384,0.212-0.523
			c0.141-0.139,0.312-0.208,0.513-0.208c0.205,0,0.379,0.069,0.523,0.208c0.144,0.14,0.215,0.313,0.215,0.523
			c0,0.2-0.072,0.371-0.215,0.513S38.675,79.054,38.47,79.054z M39.017,87.831h-1.121v-7h1.121V87.831z"/>
		<path fill="#2F2F2F" d="M45.929,87.51c-0.538,0.323-1.176,0.485-1.914,0.485c-0.998,0-1.804-0.324-2.417-0.975
			c-0.613-0.648-0.919-1.491-0.919-2.525c0-1.153,0.331-2.079,0.991-2.779c0.661-0.699,1.542-1.049,2.646-1.049
			c0.615,0,1.158,0.114,1.627,0.342v1.148c-0.52-0.364-1.076-0.547-1.668-0.547c-0.715,0-1.302,0.256-1.76,0.77
			c-0.458,0.512-0.687,1.186-0.687,2.02c0,0.82,0.215,1.468,0.646,1.941s1.008,0.711,1.733,0.711c0.611,0,1.185-0.203,1.723-0.608
			V87.51z"/>
		<path fill="#2F2F2F" d="M53.099,84.611h-4.942c0.018,0.779,0.228,1.381,0.629,1.805s0.953,0.636,1.654,0.636
			c0.789,0,1.513-0.26,2.174-0.779v1.053c-0.615,0.446-1.429,0.67-2.44,0.67c-0.989,0-1.766-0.318-2.331-0.953
			c-0.565-0.637-0.848-1.53-0.848-2.684c0-1.089,0.309-1.977,0.926-2.662c0.618-0.687,1.384-1.029,2.3-1.029
			s1.625,0.296,2.126,0.889s0.752,1.415,0.752,2.468V84.611z M51.951,83.661c-0.004-0.647-0.161-1.15-0.468-1.511
			s-0.735-0.54-1.282-0.54c-0.529,0-0.978,0.189-1.347,0.567s-0.597,0.873-0.684,1.483H51.951z"/>
	</g>
	<g>
		<path fill="#2F2F2F" d="M14.251,134.493v-9.803h2.707c3.455,0,5.182,1.592,5.182,4.777c0,1.514-0.479,2.729-1.439,3.648
			c-0.959,0.918-2.243,1.377-3.852,1.377H14.251z M15.4,125.73v7.725h1.463c1.285,0,2.286-0.344,3.001-1.033
			c0.715-0.688,1.073-1.662,1.073-2.926c0-2.51-1.335-3.766-4.006-3.766H15.4z"/>
		<path fill="#2F2F2F" d="M29.517,131.273h-4.942c0.018,0.779,0.228,1.381,0.629,1.805s0.953,0.637,1.654,0.637
			c0.789,0,1.513-0.26,2.174-0.779v1.053c-0.615,0.445-1.429,0.67-2.44,0.67c-0.989,0-1.766-0.318-2.331-0.953
			c-0.565-0.637-0.848-1.531-0.848-2.684c0-1.09,0.309-1.977,0.926-2.662c0.618-0.688,1.384-1.029,2.3-1.029
			s1.625,0.295,2.126,0.889c0.501,0.592,0.752,1.414,0.752,2.467V131.273z M28.369,130.323c-0.004-0.648-0.161-1.15-0.468-1.512
			c-0.308-0.359-0.735-0.539-1.282-0.539c-0.529,0-0.978,0.189-1.347,0.566c-0.369,0.379-0.597,0.873-0.684,1.484H28.369z"/>
		<path fill="#2F2F2F" d="M36.655,127.493l-2.789,7h-1.101l-2.652-7h1.23l1.777,5.086c0.132,0.373,0.214,0.699,0.246,0.977h0.027
			c0.045-0.35,0.119-0.668,0.219-0.949l1.859-5.113H36.655z"/>
		<path fill="#2F2F2F" d="M38.47,125.716c-0.201,0-0.372-0.068-0.513-0.205s-0.212-0.311-0.212-0.52
			c0-0.211,0.071-0.385,0.212-0.523s0.312-0.209,0.513-0.209c0.205,0,0.379,0.07,0.523,0.209s0.215,0.312,0.215,0.523
			c0,0.199-0.072,0.371-0.215,0.512C38.85,125.646,38.675,125.716,38.47,125.716z M39.017,134.493h-1.121v-7h1.121V134.493z"/>
		<path fill="#2F2F2F" d="M45.929,134.171c-0.538,0.324-1.176,0.486-1.914,0.486c-0.998,0-1.804-0.324-2.417-0.975
			c-0.613-0.648-0.919-1.492-0.919-2.525c0-1.154,0.331-2.08,0.991-2.779s1.542-1.049,2.646-1.049c0.615,0,1.158,0.113,1.627,0.342
			v1.148c-0.52-0.365-1.076-0.547-1.668-0.547c-0.715,0-1.302,0.256-1.76,0.77c-0.458,0.512-0.687,1.186-0.687,2.02
			c0,0.82,0.215,1.467,0.646,1.941c0.431,0.473,1.008,0.711,1.733,0.711c0.611,0,1.185-0.203,1.723-0.609V134.171z"/>
		<path fill="#2F2F2F" d="M53.099,131.273h-4.942c0.018,0.779,0.228,1.381,0.629,1.805s0.953,0.637,1.654,0.637
			c0.789,0,1.513-0.26,2.174-0.779v1.053c-0.615,0.445-1.429,0.67-2.44,0.67c-0.989,0-1.766-0.318-2.331-0.953
			c-0.565-0.637-0.848-1.531-0.848-2.684c0-1.09,0.309-1.977,0.926-2.662c0.618-0.688,1.384-1.029,2.3-1.029
			s1.625,0.295,2.126,0.889c0.501,0.592,0.752,1.414,0.752,2.467V131.273z M51.951,130.323c-0.004-0.648-0.161-1.15-0.468-1.512
			c-0.308-0.359-0.735-0.539-1.282-0.539c-0.529,0-0.978,0.189-1.347,0.566c-0.369,0.379-0.597,0.873-0.684,1.484H51.951z"/>
	</g>
	<g>
		<rect x="352.324" y="18.637" fill="none" width="69.861" height="38.301"/>
		<path fill="#2F2F2F" d="M377.69,30.538h-2.406l-0.697-2.18H371.1l-0.69,2.18h-2.393l3.568-9.803h2.618L377.69,30.538z
			 M374.081,26.663l-1.053-3.295c-0.078-0.246-0.132-0.541-0.164-0.883h-0.055c-0.023,0.287-0.08,0.572-0.171,0.855l-1.066,3.322
			H374.081z"/>
		<path fill="#2F2F2F" d="M384.596,30.538h-6.282v-0.895l3.514-4.512h-3.165v-1.594h5.906v1.066l-3.329,4.342h3.356V30.538z"/>
		<path fill="#2F2F2F" d="M392.478,30.538h-2.153v-1.066h-0.034c-0.533,0.825-1.247,1.238-2.14,1.238
			c-1.623,0-2.434-0.982-2.434-2.947v-4.225h2.153v4.033c0,0.989,0.392,1.484,1.176,1.484c0.387,0,0.697-0.137,0.93-0.407
			s0.349-0.64,0.349-1.104v-4.006h2.153V30.538z"/>
		<path fill="#2F2F2F" d="M398.812,25.487c-0.26-0.142-0.563-0.213-0.909-0.213c-0.469,0-0.836,0.172-1.101,0.517
			s-0.396,0.812-0.396,1.405v3.342h-2.16v-7h2.16v1.299h0.027c0.342-0.947,0.957-1.422,1.846-1.422c0.228,0,0.406,0.027,0.533,0.082
			V25.487z"/>
		<path fill="#2F2F2F" d="M406.185,27.653h-4.566c0.073,1.017,0.713,1.525,1.921,1.525c0.77,0,1.447-0.183,2.03-0.547v1.559
			c-0.647,0.346-1.488,0.52-2.522,0.52c-1.13,0-2.007-0.314-2.632-0.94s-0.937-1.501-0.937-2.622c0-1.162,0.337-2.082,1.012-2.762
			c0.674-0.679,1.504-1.018,2.488-1.018c1.021,0,1.811,0.303,2.369,0.908c0.558,0.606,0.837,1.43,0.837,2.469V27.653z
			 M404.182,26.327c0-1.002-0.406-1.504-1.217-1.504c-0.346,0-0.646,0.145-0.899,0.432s-0.407,0.645-0.461,1.072H404.182z"/>
		<path fill="#2F2F2F" d="M360.129,47.339h-5.879v-9.803h5.653v1.797h-3.445v2.182h3.206v1.791h-3.206v2.242h3.671V47.339z"/>
		<path fill="#2F2F2F" d="M368.034,40.339l-2.604,7h-2.461l-2.481-7h2.311l1.217,4.312c0.137,0.488,0.216,0.902,0.239,1.244h0.027
			c0.032-0.323,0.116-0.725,0.253-1.203l1.244-4.354H368.034z"/>
		<path fill="#2F2F2F" d="M375.022,44.454h-4.566c0.073,1.016,0.713,1.523,1.921,1.523c0.77,0,1.447-0.182,2.03-0.547v1.559
			c-0.647,0.347-1.488,0.52-2.522,0.52c-1.13,0-2.007-0.312-2.632-0.939s-0.937-1.5-0.937-2.621c0-1.162,0.337-2.083,1.012-2.762
			c0.674-0.68,1.504-1.02,2.488-1.02c1.021,0,1.811,0.304,2.369,0.91c0.558,0.605,0.837,1.428,0.837,2.467V44.454z M373.02,43.128
			c0-1.003-0.406-1.504-1.217-1.504c-0.346,0-0.646,0.143-0.899,0.43s-0.407,0.646-0.461,1.074H373.02z"/>
		<path fill="#2F2F2F" d="M383.148,47.339h-2.153v-3.891c0-1.084-0.387-1.627-1.162-1.627c-0.374,0-0.681,0.145-0.923,0.432
			s-0.362,0.651-0.362,1.094v3.992h-2.16v-7h2.16v1.107h0.027c0.515-0.853,1.265-1.279,2.249-1.279c1.549,0,2.324,0.962,2.324,2.885
			V47.339z"/>
		<path fill="#2F2F2F" d="M388.998,47.257c-0.319,0.168-0.8,0.252-1.442,0.252c-1.522,0-2.283-0.79-2.283-2.371v-3.207h-1.135
			v-1.592h1.135v-1.512l2.153-0.615v2.127h1.572v1.592h-1.572v2.83c0,0.729,0.29,1.094,0.868,1.094c0.228,0,0.462-0.065,0.704-0.197
			V47.257z"/>
		<path fill="#2F2F2F" d="M402.334,46.683c-0.957,0.551-2.146,0.826-3.568,0.826c-1.577,0-2.82-0.436-3.729-1.309
			s-1.364-2.074-1.364-3.605c0-1.541,0.497-2.797,1.49-3.768s2.315-1.455,3.965-1.455c1.039,0,1.955,0.143,2.748,0.43v2.072
			c-0.756-0.438-1.682-0.656-2.775-0.656c-0.916,0-1.662,0.297-2.239,0.892s-0.865,1.389-0.865,2.382
			c0,1.008,0.259,1.787,0.776,2.338c0.517,0.552,1.216,0.828,2.095,0.828c0.529,0,0.948-0.076,1.258-0.227v-1.914h-1.962v-1.764
			h4.17V46.683z"/>
		<path fill="#2F2F2F" d="M408.663,42.286c-0.26-0.141-0.563-0.211-0.909-0.211c-0.469,0-0.836,0.172-1.101,0.516
			s-0.396,0.812-0.396,1.404v3.344h-2.16v-7h2.16v1.299h0.027c0.342-0.948,0.957-1.422,1.846-1.422c0.228,0,0.406,0.027,0.533,0.082
			V42.286z"/>
		<path fill="#2F2F2F" d="M410.75,39.232c-0.365,0-0.663-0.109-0.896-0.325s-0.349-0.481-0.349-0.796
			c0-0.324,0.116-0.588,0.349-0.793s0.531-0.309,0.896-0.309c0.369,0,0.669,0.104,0.899,0.309s0.345,0.469,0.345,0.793
			c0,0.328-0.115,0.597-0.345,0.807C411.418,39.126,411.119,39.232,410.75,39.232z M411.816,47.339h-2.16v-7h2.16V47.339z"/>
		<path fill="#2F2F2F" d="M420.471,47.339h-2.16v-0.965h-0.027c-0.492,0.757-1.214,1.135-2.167,1.135
			c-0.875,0-1.579-0.309-2.112-0.926s-0.8-1.48-0.8-2.588c0-1.157,0.294-2.084,0.882-2.781s1.358-1.047,2.311-1.047
			c0.902,0,1.531,0.324,1.887,0.971h0.027v-4.162h2.16V47.339z M418.352,43.935v-0.527c0-0.455-0.132-0.834-0.396-1.135
			s-0.608-0.451-1.032-0.451c-0.479,0-0.852,0.188-1.121,0.564s-0.403,0.893-0.403,1.549c0,0.615,0.13,1.089,0.39,1.422
			c0.26,0.332,0.62,0.498,1.08,0.498c0.438,0,0.794-0.175,1.07-0.525C418.214,44.978,418.352,44.513,418.352,43.935z"/>
	</g>
	<g>
		<rect x="473.002" y="25.925" fill="none" width="96.006" height="38.301"/>
		<path fill="#2F2F2F" d="M491.421,37.826h-2.406l-0.697-2.181h-3.486l-0.69,2.181h-2.393l3.568-9.803h2.618L491.421,37.826z
			 M487.812,33.95l-1.053-3.295c-0.078-0.246-0.132-0.54-0.164-0.882h-0.055c-0.023,0.287-0.08,0.572-0.171,0.854l-1.066,3.322
			H487.812z"/>
		<path fill="#2F2F2F" d="M498.327,37.826h-6.282v-0.896l3.514-4.512h-3.165v-1.593h5.906v1.066l-3.329,4.341h3.356V37.826z"/>
		<path fill="#2F2F2F" d="M506.209,37.826h-2.153V36.76h-0.034c-0.533,0.825-1.247,1.237-2.14,1.237
			c-1.623,0-2.434-0.981-2.434-2.946v-4.225h2.153v4.033c0,0.989,0.392,1.483,1.176,1.483c0.387,0,0.697-0.136,0.93-0.406
			c0.232-0.271,0.349-0.64,0.349-1.104v-4.006h2.153V37.826z"/>
		<path fill="#2F2F2F" d="M512.543,32.775c-0.26-0.141-0.563-0.212-0.909-0.212c-0.469,0-0.836,0.172-1.101,0.517
			c-0.264,0.344-0.396,0.812-0.396,1.404v3.343h-2.16v-7h2.16v1.299h0.027c0.342-0.947,0.957-1.422,1.846-1.422
			c0.228,0,0.406,0.027,0.533,0.082V32.775z"/>
		<path fill="#2F2F2F" d="M519.916,34.942h-4.566c0.073,1.017,0.713,1.524,1.921,1.524c0.77,0,1.447-0.182,2.03-0.547v1.559
			c-0.647,0.347-1.488,0.52-2.522,0.52c-1.13,0-2.007-0.313-2.632-0.939c-0.625-0.627-0.937-1.501-0.937-2.622
			c0-1.162,0.337-2.082,1.012-2.762c0.674-0.679,1.504-1.019,2.488-1.019c1.021,0,1.811,0.304,2.369,0.909
			c0.558,0.606,0.837,1.429,0.837,2.468V34.942z M517.913,33.615c0-1.002-0.406-1.504-1.217-1.504c-0.346,0-0.646,0.144-0.899,0.431
			s-0.407,0.646-0.461,1.073H517.913z"/>
		<path fill="#2F2F2F" d="M531.154,37.826h-5.879v-9.803h5.653v1.798h-3.445v2.181h3.206v1.791h-3.206v2.242h3.671V37.826z"/>
		<path fill="#2F2F2F" d="M539.059,30.826l-2.604,7h-2.461l-2.481-7h2.311l1.217,4.313c0.137,0.488,0.216,0.902,0.239,1.244h0.027
			c0.032-0.323,0.116-0.725,0.253-1.203l1.244-4.354H539.059z"/>
		<path fill="#2F2F2F" d="M546.047,34.942h-4.566c0.073,1.017,0.713,1.524,1.921,1.524c0.77,0,1.447-0.182,2.03-0.547v1.559
			c-0.647,0.347-1.488,0.52-2.522,0.52c-1.13,0-2.007-0.313-2.632-0.939c-0.625-0.627-0.937-1.501-0.937-2.622
			c0-1.162,0.337-2.082,1.012-2.762c0.674-0.679,1.504-1.019,2.488-1.019c1.021,0,1.811,0.304,2.369,0.909
			c0.558,0.606,0.837,1.429,0.837,2.468V34.942z M544.044,33.615c0-1.002-0.406-1.504-1.217-1.504c-0.346,0-0.646,0.144-0.899,0.431
			s-0.407,0.646-0.461,1.073H544.044z"/>
		<path fill="#2F2F2F" d="M554.173,37.826h-2.153v-3.89c0-1.084-0.387-1.627-1.162-1.627c-0.374,0-0.681,0.144-0.923,0.431
			s-0.362,0.652-0.362,1.094v3.992h-2.16v-7h2.16v1.107h0.027c0.515-0.852,1.265-1.278,2.249-1.278c1.549,0,2.324,0.962,2.324,2.885
			V37.826z"/>
		<path fill="#2F2F2F" d="M560.022,37.744c-0.319,0.169-0.8,0.253-1.442,0.253c-1.522,0-2.283-0.79-2.283-2.372v-3.206h-1.135
			v-1.593h1.135v-1.511l2.153-0.615v2.126h1.572v1.593h-1.572v2.83c0,0.729,0.29,1.094,0.868,1.094c0.228,0,0.462-0.065,0.704-0.198
			V37.744z"/>
		<path fill="#2F2F2F" d="M513.588,54.626h-2.215v-3.992h-4.061v3.992h-2.208v-9.803h2.208v3.91h4.061v-3.91h2.215V54.626z"/>
		<path fill="#2F2F2F" d="M522.229,54.626h-2.153V53.56h-0.034c-0.533,0.825-1.247,1.237-2.14,1.237
			c-1.623,0-2.434-0.981-2.434-2.946v-4.225h2.153v4.033c0,0.989,0.392,1.483,1.176,1.483c0.387,0,0.697-0.136,0.93-0.406
			c0.232-0.271,0.349-0.64,0.349-1.104v-4.006h2.153V54.626z"/>
		<path fill="#2F2F2F" d="M526.185,53.813h-0.027v0.813h-2.16V44.263h2.16v4.416h0.027c0.533-0.815,1.292-1.224,2.276-1.224
			c0.902,0,1.597,0.311,2.085,0.93c0.488,0.62,0.731,1.468,0.731,2.543c0,1.167-0.285,2.104-0.854,2.81
			c-0.57,0.707-1.331,1.06-2.283,1.06C527.279,54.797,526.627,54.469,526.185,53.813z M526.124,50.859v0.718
			c0,0.451,0.13,0.825,0.39,1.121c0.26,0.297,0.592,0.444,0.998,0.444c0.492,0,0.874-0.19,1.145-0.57
			c0.271-0.381,0.407-0.92,0.407-1.617c0-0.578-0.124-1.031-0.373-1.356c-0.249-0.326-0.603-0.489-1.063-0.489
			c-0.433,0-0.792,0.162-1.077,0.485C526.266,49.919,526.124,50.34,526.124,50.859z"/>
		<path fill="#2F2F2F" d="M532.317,54.442v-1.75c0.355,0.215,0.71,0.374,1.063,0.479c0.353,0.105,0.687,0.157,1.001,0.157
			c0.383,0,0.685-0.052,0.906-0.157c0.221-0.104,0.332-0.264,0.332-0.479c0-0.137-0.05-0.25-0.15-0.342
			c-0.1-0.091-0.229-0.171-0.386-0.239s-0.329-0.13-0.516-0.185s-0.367-0.116-0.54-0.185c-0.278-0.104-0.523-0.218-0.735-0.338
			c-0.212-0.121-0.39-0.261-0.533-0.421c-0.144-0.159-0.253-0.344-0.328-0.554c-0.075-0.209-0.113-0.458-0.113-0.745
			c0-0.392,0.085-0.729,0.256-1.012c0.171-0.282,0.399-0.514,0.684-0.693c0.285-0.181,0.611-0.312,0.978-0.396
			c0.367-0.085,0.749-0.127,1.145-0.127c0.31,0,0.625,0.024,0.943,0.072s0.633,0.117,0.943,0.208v1.668
			c-0.273-0.159-0.566-0.279-0.878-0.358c-0.312-0.08-0.619-0.12-0.919-0.12c-0.141,0-0.274,0.013-0.4,0.038
			c-0.125,0.024-0.236,0.062-0.332,0.109s-0.171,0.109-0.226,0.185s-0.082,0.16-0.082,0.256c0,0.128,0.041,0.237,0.123,0.328
			c0.082,0.092,0.189,0.17,0.321,0.236c0.132,0.065,0.279,0.125,0.441,0.178c0.162,0.052,0.322,0.105,0.482,0.16
			c0.287,0.101,0.547,0.21,0.779,0.328c0.232,0.119,0.432,0.258,0.598,0.417c0.167,0.16,0.294,0.347,0.383,0.561
			c0.089,0.215,0.133,0.47,0.133,0.766c0,0.415-0.09,0.77-0.27,1.063s-0.419,0.533-0.718,0.718s-0.643,0.318-1.032,0.403
			c-0.39,0.084-0.794,0.126-1.213,0.126C533.687,54.797,532.974,54.679,532.317,54.442z"/>
	</g>
	<g>
		<rect x="609.767" y="23.831" fill="none" width="96.006" height="38.301"/>
		<path fill="#2F2F2F" d="M622.857,35.732h-2.406l-0.697-2.18h-3.486l-0.69,2.18h-2.393l3.568-9.803h2.618L622.857,35.732z
			 M619.248,31.857l-1.053-3.295c-0.078-0.246-0.132-0.541-0.164-0.883h-0.055c-0.023,0.287-0.08,0.572-0.171,0.855l-1.066,3.322
			H619.248z"/>
		<path fill="#2F2F2F" d="M629.763,35.732h-6.282v-0.895l3.514-4.512h-3.165v-1.594h5.906v1.066l-3.329,4.342h3.356V35.732z"/>
		<path fill="#2F2F2F" d="M637.645,35.732h-2.153v-1.066h-0.034c-0.533,0.825-1.247,1.238-2.14,1.238
			c-1.623,0-2.434-0.982-2.434-2.947v-4.225h2.153v4.033c0,0.989,0.392,1.484,1.176,1.484c0.387,0,0.697-0.137,0.93-0.407
			s0.349-0.64,0.349-1.104v-4.006h2.153V35.732z"/>
		<path fill="#2F2F2F" d="M643.979,30.681c-0.26-0.142-0.563-0.213-0.909-0.213c-0.469,0-0.836,0.172-1.101,0.517
			s-0.396,0.812-0.396,1.405v3.342h-2.16v-7h2.16v1.299h0.027c0.342-0.947,0.957-1.422,1.846-1.422c0.228,0,0.406,0.027,0.533,0.082
			V30.681z"/>
		<path fill="#2F2F2F" d="M651.352,32.847h-4.566c0.073,1.017,0.713,1.525,1.921,1.525c0.77,0,1.447-0.183,2.03-0.547v1.559
			c-0.647,0.346-1.488,0.52-2.522,0.52c-1.13,0-2.007-0.314-2.632-0.94s-0.937-1.501-0.937-2.622c0-1.162,0.337-2.082,1.012-2.762
			c0.674-0.679,1.504-1.018,2.488-1.018c1.021,0,1.811,0.303,2.369,0.908c0.558,0.606,0.837,1.43,0.837,2.469V32.847z
			 M649.349,31.521c0-1.002-0.406-1.504-1.217-1.504c-0.346,0-0.646,0.145-0.899,0.432s-0.407,0.645-0.461,1.072H649.349z"/>
		<path fill="#2F2F2F" d="M656.26,35.357v-2.188c0.396,0.332,0.827,0.582,1.292,0.748s0.934,0.25,1.408,0.25
			c0.278,0,0.521-0.025,0.728-0.076c0.208-0.05,0.38-0.119,0.52-0.208s0.243-0.194,0.311-0.314s0.103-0.252,0.103-0.394
			c0-0.191-0.055-0.361-0.164-0.512s-0.259-0.29-0.448-0.418c-0.189-0.127-0.414-0.25-0.673-0.369
			c-0.26-0.118-0.54-0.238-0.841-0.361c-0.766-0.319-1.336-0.709-1.712-1.17c-0.376-0.46-0.564-1.016-0.564-1.668
			c0-0.51,0.103-0.949,0.308-1.315s0.484-0.669,0.837-0.905c0.353-0.237,0.762-0.412,1.227-0.523s0.957-0.168,1.477-0.168
			c0.51,0,0.963,0.031,1.357,0.093s0.758,0.156,1.09,0.284v2.043c-0.164-0.113-0.343-0.214-0.537-0.301
			c-0.194-0.086-0.393-0.158-0.598-0.215s-0.409-0.1-0.612-0.127s-0.396-0.041-0.578-0.041c-0.25,0-0.479,0.024-0.684,0.072
			s-0.378,0.115-0.52,0.201c-0.141,0.087-0.25,0.191-0.328,0.312s-0.116,0.257-0.116,0.407c0,0.164,0.043,0.311,0.13,0.44
			s0.209,0.253,0.369,0.369s0.353,0.229,0.581,0.342s0.485,0.227,0.772,0.345c0.392,0.164,0.744,0.339,1.056,0.523
			s0.58,0.393,0.803,0.625s0.394,0.498,0.513,0.797c0.119,0.299,0.178,0.646,0.178,1.043c0,0.547-0.104,1.006-0.311,1.377
			s-0.489,0.672-0.844,0.902s-0.769,0.396-1.241,0.496c-0.472,0.1-0.97,0.15-1.494,0.15c-0.538,0-1.049-0.046-1.535-0.137
			C657.036,35.675,656.615,35.538,656.26,35.357z"/>
		<path fill="#2F2F2F" d="M668.357,35.65c-0.319,0.169-0.8,0.254-1.442,0.254c-1.522,0-2.283-0.791-2.283-2.373v-3.205h-1.135
			v-1.594h1.135v-1.51l2.153-0.615v2.125h1.572v1.594h-1.572v2.83c0,0.729,0.29,1.094,0.868,1.094c0.228,0,0.462-0.066,0.704-0.199
			V35.65z"/>
		<path fill="#2F2F2F" d="M674.273,30.681c-0.26-0.142-0.563-0.213-0.909-0.213c-0.469,0-0.836,0.172-1.101,0.517
			s-0.396,0.812-0.396,1.405v3.342h-2.16v-7h2.16v1.299h0.027c0.342-0.947,0.957-1.422,1.846-1.422c0.228,0,0.406,0.027,0.533,0.082
			V30.681z"/>
		<path fill="#2F2F2F" d="M681.646,32.847h-4.566c0.073,1.017,0.713,1.525,1.921,1.525c0.77,0,1.447-0.183,2.03-0.547v1.559
			c-0.647,0.346-1.488,0.52-2.522,0.52c-1.13,0-2.007-0.314-2.632-0.94s-0.937-1.501-0.937-2.622c0-1.162,0.337-2.082,1.012-2.762
			c0.674-0.679,1.504-1.018,2.488-1.018c1.021,0,1.811,0.303,2.369,0.908c0.558,0.606,0.837,1.43,0.837,2.469V32.847z
			 M679.643,31.521c0-1.002-0.406-1.504-1.217-1.504c-0.346,0-0.646,0.145-0.899,0.432s-0.407,0.645-0.461,1.072H679.643z"/>
		<path fill="#2F2F2F" d="M688.811,35.732h-2.044v-1.004h-0.027c-0.469,0.783-1.165,1.176-2.085,1.176
			c-0.679,0-1.213-0.193-1.603-0.578s-0.584-0.898-0.584-1.541c0-1.358,0.804-2.143,2.413-2.352l1.9-0.254
			c0-0.766-0.415-1.148-1.244-1.148c-0.834,0-1.627,0.249-2.379,0.746V29.15c0.301-0.155,0.712-0.292,1.234-0.41
			c0.522-0.119,0.997-0.178,1.425-0.178c1.996,0,2.994,0.995,2.994,2.986V35.732z M686.78,32.888v-0.471l-1.271,0.164
			c-0.702,0.091-1.053,0.407-1.053,0.949c0,0.246,0.085,0.448,0.256,0.605s0.402,0.236,0.694,0.236c0.406,0,0.736-0.141,0.991-0.421
			S686.78,33.317,686.78,32.888z"/>
		<path fill="#2F2F2F" d="M701.622,35.732h-2.153v-3.992c0-1.016-0.374-1.523-1.121-1.523c-0.355,0-0.645,0.152-0.868,0.457
			c-0.223,0.306-0.335,0.687-0.335,1.143v3.916h-2.16v-4.033c0-0.988-0.367-1.482-1.101-1.482c-0.369,0-0.664,0.146-0.885,0.438
			c-0.221,0.291-0.332,0.688-0.332,1.189v3.889h-2.16v-7h2.16v1.094h0.027c0.223-0.373,0.537-0.678,0.94-0.912
			s0.844-0.352,1.323-0.352c0.989,0,1.666,0.435,2.03,1.305c0.533-0.87,1.317-1.305,2.352-1.305c1.522,0,2.283,0.938,2.283,2.816
			V35.732z"/>
		<path fill="#2F2F2F" d="M637.354,52.532h-2.406l-0.697-2.182h-3.486l-0.69,2.182h-2.393l3.568-9.803h2.618L637.354,52.532z
			 M633.744,48.655l-1.053-3.295c-0.078-0.246-0.132-0.539-0.164-0.881h-0.055c-0.023,0.287-0.08,0.571-0.171,0.854l-1.066,3.322
			H633.744z"/>
		<path fill="#2F2F2F" d="M645.11,52.532h-2.153v-3.891c0-1.084-0.387-1.627-1.162-1.627c-0.374,0-0.681,0.145-0.923,0.432
			s-0.362,0.651-0.362,1.094v3.992h-2.16v-7h2.16v1.107h0.027c0.515-0.853,1.265-1.279,2.249-1.279c1.549,0,2.324,0.962,2.324,2.885
			V52.532z"/>
		<path fill="#2F2F2F" d="M652.676,52.532h-2.044v-1.006h-0.027c-0.469,0.784-1.165,1.176-2.085,1.176
			c-0.679,0-1.213-0.191-1.603-0.577s-0.584-0.899-0.584-1.542c0-1.357,0.804-2.142,2.413-2.352l1.9-0.252
			c0-0.766-0.415-1.148-1.244-1.148c-0.834,0-1.627,0.248-2.379,0.744v-1.627c0.301-0.154,0.712-0.291,1.234-0.41
			c0.522-0.118,0.997-0.178,1.425-0.178c1.996,0,2.994,0.996,2.994,2.988V52.532z M650.646,49.689v-0.473l-1.271,0.164
			c-0.702,0.092-1.053,0.408-1.053,0.951c0,0.246,0.085,0.447,0.256,0.604s0.402,0.235,0.694,0.235c0.406,0,0.736-0.14,0.991-0.42
			S650.646,50.116,650.646,49.689z"/>
		<path fill="#2F2F2F" d="M656.534,52.532h-2.16V42.169h2.16V52.532z"/>
		<path fill="#2F2F2F" d="M665.058,45.532l-2.844,7.561c-0.684,1.818-1.713,2.727-3.09,2.727c-0.524,0-0.955-0.059-1.292-0.178
			v-1.723c0.287,0.169,0.599,0.254,0.937,0.254c0.556,0,0.943-0.263,1.162-0.787l0.369-0.867l-2.844-6.986h2.393l1.306,4.258
			c0.082,0.265,0.146,0.577,0.191,0.938h0.027c0.041-0.265,0.116-0.572,0.226-0.924l1.319-4.271H665.058z"/>
		<path fill="#2F2F2F" d="M670.523,52.45c-0.319,0.168-0.8,0.252-1.442,0.252c-1.522,0-2.283-0.79-2.283-2.371v-3.207h-1.135v-1.592
			h1.135v-1.512l2.153-0.615v2.127h1.572v1.592h-1.572v2.83c0,0.729,0.29,1.094,0.868,1.094c0.228,0,0.462-0.065,0.704-0.197V52.45z
			"/>
		<path fill="#2F2F2F" d="M672.901,44.425c-0.365,0-0.663-0.109-0.896-0.325s-0.349-0.481-0.349-0.796
			c0-0.324,0.116-0.588,0.349-0.793s0.531-0.309,0.896-0.309c0.369,0,0.669,0.104,0.899,0.309s0.345,0.469,0.345,0.793
			c0,0.328-0.115,0.597-0.345,0.807C673.57,44.319,673.27,44.425,672.901,44.425z M673.967,52.532h-2.16v-7h2.16V52.532z"/>
		<path fill="#2F2F2F" d="M681.047,52.278c-0.488,0.283-1.192,0.424-2.112,0.424c-1.076,0-1.946-0.325-2.611-0.977
			c-0.666-0.652-0.998-1.493-0.998-2.523c0-1.189,0.356-2.127,1.07-2.812s1.667-1.029,2.861-1.029c0.825,0,1.422,0.109,1.791,0.328
			v1.832c-0.451-0.337-0.955-0.506-1.511-0.506c-0.62,0-1.111,0.182-1.473,0.544s-0.543,0.862-0.543,1.501
			c0,0.619,0.173,1.105,0.52,1.459s0.823,0.529,1.429,0.529c0.538,0,1.064-0.168,1.579-0.506V52.278z"/>
		<path fill="#2F2F2F" d="M682.218,52.347v-1.75c0.355,0.215,0.71,0.374,1.063,0.479c0.353,0.105,0.687,0.158,1.001,0.158
			c0.383,0,0.685-0.053,0.906-0.158c0.221-0.104,0.332-0.264,0.332-0.479c0-0.137-0.05-0.25-0.15-0.342
			c-0.1-0.091-0.229-0.17-0.386-0.238s-0.329-0.131-0.516-0.186s-0.367-0.115-0.54-0.184c-0.278-0.105-0.523-0.219-0.735-0.339
			s-0.39-0.261-0.533-0.421c-0.144-0.159-0.253-0.344-0.328-0.553c-0.075-0.21-0.113-0.459-0.113-0.746
			c0-0.392,0.085-0.729,0.256-1.012c0.171-0.282,0.399-0.514,0.684-0.693s0.611-0.312,0.978-0.396s0.749-0.127,1.145-0.127
			c0.31,0,0.625,0.024,0.943,0.072s0.633,0.117,0.943,0.209v1.668c-0.273-0.16-0.566-0.279-0.878-0.359s-0.619-0.119-0.919-0.119
			c-0.141,0-0.274,0.012-0.4,0.037s-0.236,0.062-0.332,0.109s-0.171,0.109-0.226,0.185s-0.082,0.161-0.082,0.257
			c0,0.127,0.041,0.236,0.123,0.328c0.082,0.091,0.189,0.17,0.321,0.235s0.279,0.126,0.441,0.178s0.322,0.106,0.482,0.161
			c0.287,0.1,0.547,0.209,0.779,0.328c0.232,0.118,0.432,0.257,0.598,0.416c0.167,0.16,0.294,0.347,0.383,0.561
			c0.089,0.215,0.133,0.47,0.133,0.766c0,0.415-0.09,0.77-0.27,1.063s-0.419,0.533-0.718,0.718s-0.643,0.318-1.032,0.403
			s-0.794,0.126-1.213,0.126C683.587,52.702,682.874,52.584,682.218,52.347z"/>
	</g>
	<g>
		<path fill="#2F2F2F" d="M127.288,32.737l-2.789,7h-1.101l-2.652-7h1.23l1.777,5.086c0.132,0.374,0.214,0.699,0.246,0.978h0.027
			c0.045-0.351,0.119-0.668,0.219-0.95l1.859-5.113H127.288z"/>
		<path fill="#2F2F2F" d="M133.93,36.518h-4.942c0.018,0.779,0.228,1.381,0.629,1.805s0.953,0.636,1.654,0.636
			c0.789,0,1.513-0.26,2.174-0.779v1.053c-0.615,0.446-1.429,0.67-2.44,0.67c-0.989,0-1.766-0.318-2.331-0.953
			c-0.565-0.637-0.848-1.53-0.848-2.684c0-1.089,0.309-1.977,0.926-2.662c0.618-0.687,1.384-1.029,2.3-1.029
			s1.625,0.296,2.126,0.889s0.752,1.415,0.752,2.468V36.518z M132.781,35.567c-0.004-0.647-0.161-1.15-0.468-1.511
			s-0.735-0.54-1.282-0.54c-0.529,0-0.978,0.189-1.347,0.567s-0.597,0.873-0.684,1.483H132.781z"/>
		<path fill="#2F2F2F" d="M141.423,39.737h-1.121v-4.033c0-1.458-0.542-2.188-1.627-2.188c-0.547,0-1.007,0.211-1.381,0.633
			c-0.374,0.421-0.561,0.962-0.561,1.623v3.965h-1.121V29.374h1.121V33.9h0.027c0.538-0.884,1.303-1.326,2.297-1.326
			c1.577,0,2.365,0.95,2.365,2.851V39.737z"/>
		<path fill="#2F2F2F" d="M144.007,30.96c-0.201,0-0.372-0.068-0.513-0.205s-0.212-0.31-0.212-0.52s0.071-0.384,0.212-0.523
			c0.141-0.139,0.312-0.208,0.513-0.208c0.205,0,0.379,0.069,0.523,0.208c0.144,0.14,0.215,0.313,0.215,0.523
			c0,0.2-0.072,0.371-0.215,0.513S144.212,30.96,144.007,30.96z M144.554,39.737h-1.121v-7h1.121V39.737z"/>
		<path fill="#2F2F2F" d="M151.466,39.416c-0.538,0.323-1.176,0.485-1.914,0.485c-0.998,0-1.804-0.324-2.417-0.975
			c-0.613-0.648-0.919-1.491-0.919-2.525c0-1.153,0.331-2.079,0.991-2.779c0.661-0.699,1.542-1.049,2.646-1.049
			c0.615,0,1.158,0.114,1.627,0.342v1.148c-0.52-0.364-1.076-0.547-1.668-0.547c-0.715,0-1.302,0.256-1.76,0.77
			c-0.458,0.512-0.687,1.186-0.687,2.02c0,0.82,0.215,1.468,0.646,1.941s1.008,0.711,1.733,0.711c0.611,0,1.185-0.203,1.723-0.608
			V39.416z"/>
		<path fill="#2F2F2F" d="M154.076,39.737h-1.121V29.374h1.121V39.737z"/>
		<path fill="#2F2F2F" d="M161.914,36.518h-4.942c0.018,0.779,0.228,1.381,0.629,1.805s0.953,0.636,1.654,0.636
			c0.789,0,1.513-0.26,2.174-0.779v1.053c-0.615,0.446-1.429,0.67-2.44,0.67c-0.989,0-1.766-0.318-2.331-0.953
			c-0.565-0.637-0.848-1.53-0.848-2.684c0-1.089,0.309-1.977,0.926-2.662c0.618-0.687,1.384-1.029,2.3-1.029
			s1.625,0.296,2.126,0.889s0.752,1.415,0.752,2.468V36.518z M160.765,35.567c-0.004-0.647-0.161-1.15-0.468-1.511
			s-0.735-0.54-1.282-0.54c-0.529,0-0.978,0.189-1.347,0.567s-0.597,0.873-0.684,1.483H160.765z"/>
		<path fill="#2F2F2F" d="M163.156,39.484v-1.203c0.611,0.451,1.283,0.677,2.017,0.677c0.984,0,1.477-0.328,1.477-0.984
			c0-0.187-0.042-0.346-0.126-0.475c-0.084-0.131-0.198-0.245-0.342-0.346s-0.312-0.19-0.506-0.27
			c-0.194-0.08-0.402-0.163-0.625-0.25c-0.31-0.123-0.582-0.247-0.817-0.373c-0.235-0.125-0.431-0.266-0.588-0.424
			c-0.157-0.156-0.276-0.336-0.355-0.536s-0.12-0.436-0.12-0.704c0-0.328,0.075-0.619,0.226-0.871
			c0.15-0.254,0.351-0.465,0.602-0.637c0.25-0.17,0.537-0.299,0.858-0.386s0.653-0.13,0.995-0.13c0.606,0,1.148,0.104,1.627,0.314
			v1.135c-0.515-0.337-1.107-0.506-1.777-0.506c-0.209,0-0.399,0.023-0.567,0.072c-0.168,0.047-0.313,0.114-0.434,0.201
			s-0.214,0.19-0.28,0.311c-0.066,0.121-0.099,0.255-0.099,0.4c0,0.183,0.033,0.335,0.099,0.458s0.163,0.232,0.291,0.328
			s0.283,0.183,0.465,0.26s0.39,0.162,0.622,0.253c0.31,0.118,0.588,0.24,0.834,0.365c0.246,0.126,0.456,0.268,0.629,0.424
			c0.173,0.158,0.307,0.339,0.4,0.544s0.14,0.449,0.14,0.731c0,0.347-0.076,0.647-0.229,0.902s-0.356,0.467-0.612,0.636
			s-0.549,0.294-0.882,0.376s-0.681,0.123-1.046,0.123C164.309,39.901,163.685,39.763,163.156,39.484z"/>
		<path fill="#2F2F2F" d="M177.778,29.935l-4.703,11.43h-1.046l4.689-11.43H177.778z"/>
		<path fill="#2F2F2F" d="M188.62,39.737h-1.121v-1.189h-0.027c-0.52,0.902-1.322,1.354-2.406,1.354
			c-0.879,0-1.583-0.313-2.109-0.939c-0.526-0.627-0.79-1.48-0.79-2.561c0-1.157,0.292-2.085,0.875-2.782s1.36-1.046,2.331-1.046
			c0.961,0,1.661,0.378,2.099,1.135h0.027v-4.334h1.121V39.737z M187.499,36.572V35.54c0-0.565-0.187-1.044-0.561-1.436
			s-0.848-0.588-1.422-0.588c-0.684,0-1.221,0.251-1.613,0.752s-0.588,1.194-0.588,2.078c0,0.807,0.188,1.443,0.564,1.91
			c0.376,0.468,0.881,0.701,1.514,0.701c0.625,0,1.131-0.226,1.521-0.677S187.499,37.261,187.499,36.572z"/>
		<path fill="#2F2F2F" d="M193.984,39.737h-1.121v-8.47c-0.086,0.087-0.213,0.186-0.379,0.298c-0.167,0.111-0.353,0.222-0.561,0.331
			c-0.208,0.109-0.426,0.212-0.656,0.308s-0.455,0.171-0.673,0.226v-1.135c0.246-0.068,0.507-0.161,0.783-0.276
			c0.276-0.117,0.547-0.246,0.813-0.391c0.267-0.143,0.519-0.293,0.755-0.451c0.237-0.156,0.442-0.311,0.615-0.461h0.424V39.737z"/>
		<path fill="#2F2F2F" d="M205.974,29.935l-4.703,11.43h-1.046l4.689-11.43H205.974z"/>
		<path fill="#2F2F2F" d="M216.652,39.737h-1.121v-4.033c0-1.458-0.542-2.188-1.627-2.188c-0.547,0-1.007,0.211-1.381,0.633
			c-0.374,0.421-0.561,0.962-0.561,1.623v3.965h-1.121V29.374h1.121V33.9h0.027c0.538-0.884,1.303-1.326,2.297-1.326
			c1.577,0,2.365,0.95,2.365,2.851V39.737z"/>
		<path fill="#2F2F2F" d="M224.355,36.518h-4.942c0.018,0.779,0.228,1.381,0.629,1.805s0.953,0.636,1.654,0.636
			c0.789,0,1.513-0.26,2.174-0.779v1.053c-0.615,0.446-1.429,0.67-2.44,0.67c-0.989,0-1.766-0.318-2.331-0.953
			c-0.565-0.637-0.848-1.53-0.848-2.684c0-1.089,0.309-1.977,0.926-2.662c0.618-0.687,1.384-1.029,2.3-1.029
			s1.625,0.296,2.126,0.889s0.752,1.415,0.752,2.468V36.518z M223.207,35.567c-0.004-0.647-0.161-1.15-0.468-1.511
			s-0.735-0.54-1.282-0.54c-0.529,0-0.978,0.189-1.347,0.567s-0.597,0.873-0.684,1.483H223.207z"/>
		<path fill="#2F2F2F" d="M230.994,39.737h-1.121v-1.094h-0.027c-0.488,0.839-1.206,1.258-2.153,1.258
			c-0.697,0-1.243-0.185-1.637-0.554s-0.591-0.859-0.591-1.47c0-1.308,0.77-2.069,2.311-2.283l2.099-0.294
			c0-1.189-0.481-1.784-1.442-1.784c-0.843,0-1.604,0.287-2.283,0.861V33.23c0.688-0.438,1.481-0.656,2.379-0.656
			c1.645,0,2.468,0.87,2.468,2.611V39.737z M229.873,36.196l-1.688,0.232c-0.52,0.073-0.912,0.201-1.176,0.387
			c-0.264,0.184-0.396,0.511-0.396,0.98c0,0.342,0.122,0.621,0.366,0.838c0.244,0.216,0.568,0.324,0.974,0.324
			c0.556,0,1.015-0.195,1.377-0.584c0.362-0.391,0.543-0.884,0.543-1.48V36.196z"/>
		<path fill="#2F2F2F" d="M234.135,39.737h-1.121V29.374h1.121V39.737z"/>
		<path fill="#2F2F2F" d="M239.583,39.669c-0.264,0.146-0.613,0.219-1.046,0.219c-1.226,0-1.839-0.684-1.839-2.051v-4.143h-1.203
			v-0.957h1.203v-1.709l1.121-0.362v2.071h1.764v0.957h-1.764v3.944c0,0.47,0.08,0.805,0.239,1.005s0.424,0.301,0.793,0.301
			c0.283,0,0.526-0.077,0.731-0.232V39.669z"/>
		<path fill="#2F2F2F" d="M246.774,39.737h-1.121v-4.033c0-1.458-0.542-2.188-1.627-2.188c-0.547,0-1.007,0.211-1.381,0.633
			c-0.374,0.421-0.561,0.962-0.561,1.623v3.965h-1.121V29.374h1.121V33.9h0.027c0.538-0.884,1.303-1.326,2.297-1.326
			c1.577,0,2.365,0.95,2.365,2.851V39.737z"/>
	</g>
	<g>
		<path fill="#2F2F2F" d="M126.86,80.483l-2.789,7h-1.101l-2.652-7h1.23l1.777,5.086c0.132,0.374,0.214,0.699,0.246,0.978h0.027
			c0.045-0.351,0.119-0.668,0.219-0.95l1.859-5.113H126.86z"/>
		<path fill="#2F2F2F" d="M133.501,84.263h-4.942c0.018,0.779,0.228,1.381,0.629,1.805s0.953,0.636,1.654,0.636
			c0.789,0,1.513-0.26,2.174-0.779v1.053c-0.615,0.446-1.429,0.67-2.44,0.67c-0.989,0-1.766-0.318-2.331-0.953
			c-0.565-0.637-0.848-1.53-0.848-2.684c0-1.089,0.309-1.977,0.926-2.662c0.618-0.687,1.384-1.029,2.3-1.029
			s1.625,0.296,2.126,0.889s0.752,1.415,0.752,2.468V84.263z M132.353,83.313c-0.004-0.647-0.161-1.15-0.468-1.511
			s-0.735-0.54-1.282-0.54c-0.529,0-0.978,0.189-1.347,0.567s-0.597,0.873-0.684,1.483H132.353z"/>
		<path fill="#2F2F2F" d="M140.995,87.483h-1.121v-4.033c0-1.458-0.542-2.188-1.627-2.188c-0.547,0-1.007,0.211-1.381,0.633
			c-0.374,0.421-0.561,0.962-0.561,1.623v3.965h-1.121V77.119h1.121v4.525h0.027c0.538-0.884,1.303-1.326,2.297-1.326
			c1.577,0,2.365,0.95,2.365,2.851V87.483z"/>
		<path fill="#2F2F2F" d="M143.579,78.705c-0.201,0-0.372-0.068-0.513-0.205s-0.212-0.31-0.212-0.52s0.071-0.384,0.212-0.523
			c0.141-0.139,0.312-0.208,0.513-0.208c0.205,0,0.379,0.069,0.523,0.208c0.144,0.14,0.215,0.313,0.215,0.523
			c0,0.2-0.072,0.371-0.215,0.513S143.784,78.705,143.579,78.705z M144.126,87.483h-1.121v-7h1.121V87.483z"/>
		<path fill="#2F2F2F" d="M151.038,87.161c-0.538,0.323-1.176,0.485-1.914,0.485c-0.998,0-1.804-0.324-2.417-0.975
			c-0.613-0.648-0.919-1.491-0.919-2.525c0-1.153,0.331-2.079,0.991-2.779c0.661-0.699,1.542-1.049,2.646-1.049
			c0.615,0,1.158,0.114,1.627,0.342v1.148c-0.52-0.364-1.076-0.547-1.668-0.547c-0.715,0-1.302,0.256-1.76,0.77
			c-0.458,0.512-0.687,1.186-0.687,2.02c0,0.82,0.215,1.468,0.646,1.941s1.008,0.711,1.733,0.711c0.611,0,1.185-0.203,1.723-0.608
			V87.161z"/>
		<path fill="#2F2F2F" d="M153.647,87.483h-1.121V77.119h1.121V87.483z"/>
		<path fill="#2F2F2F" d="M161.485,84.263h-4.942c0.018,0.779,0.228,1.381,0.629,1.805s0.953,0.636,1.654,0.636
			c0.789,0,1.513-0.26,2.174-0.779v1.053c-0.615,0.446-1.429,0.67-2.44,0.67c-0.989,0-1.766-0.318-2.331-0.953
			c-0.565-0.637-0.848-1.53-0.848-2.684c0-1.089,0.309-1.977,0.926-2.662c0.618-0.687,1.384-1.029,2.3-1.029
			s1.625,0.296,2.126,0.889s0.752,1.415,0.752,2.468V84.263z M160.337,83.313c-0.004-0.647-0.161-1.15-0.468-1.511
			s-0.735-0.54-1.282-0.54c-0.529,0-0.978,0.189-1.347,0.567s-0.597,0.873-0.684,1.483H160.337z"/>
		<path fill="#2F2F2F" d="M162.728,87.23v-1.203c0.611,0.451,1.283,0.677,2.017,0.677c0.984,0,1.477-0.328,1.477-0.984
			c0-0.187-0.042-0.346-0.126-0.475c-0.084-0.131-0.198-0.245-0.342-0.346s-0.312-0.19-0.506-0.27
			c-0.194-0.08-0.402-0.163-0.625-0.25c-0.31-0.123-0.582-0.247-0.817-0.373c-0.235-0.125-0.431-0.266-0.588-0.424
			c-0.157-0.156-0.276-0.336-0.355-0.536s-0.12-0.436-0.12-0.704c0-0.328,0.075-0.619,0.226-0.871
			c0.15-0.254,0.351-0.465,0.602-0.637c0.25-0.17,0.537-0.299,0.858-0.386s0.653-0.13,0.995-0.13c0.606,0,1.148,0.104,1.627,0.314
			v1.135c-0.515-0.337-1.107-0.506-1.777-0.506c-0.209,0-0.399,0.023-0.567,0.072c-0.168,0.047-0.313,0.114-0.434,0.201
			s-0.214,0.19-0.28,0.311c-0.066,0.121-0.099,0.255-0.099,0.4c0,0.183,0.033,0.335,0.099,0.458s0.163,0.232,0.291,0.328
			s0.283,0.183,0.465,0.26s0.39,0.162,0.622,0.253c0.31,0.118,0.588,0.24,0.834,0.365c0.246,0.126,0.456,0.268,0.629,0.424
			c0.173,0.158,0.307,0.339,0.4,0.544s0.14,0.449,0.14,0.731c0,0.347-0.076,0.647-0.229,0.902s-0.356,0.467-0.612,0.636
			s-0.549,0.294-0.882,0.376s-0.681,0.123-1.046,0.123C163.88,87.647,163.256,87.508,162.728,87.23z"/>
		<path fill="#2F2F2F" d="M177.35,77.68l-4.703,11.43h-1.046l4.689-11.43H177.35z"/>
		<path fill="#2F2F2F" d="M188.191,87.483h-1.121v-1.189h-0.027c-0.52,0.902-1.322,1.354-2.406,1.354
			c-0.879,0-1.583-0.313-2.109-0.939c-0.526-0.627-0.79-1.48-0.79-2.561c0-1.157,0.292-2.085,0.875-2.782s1.36-1.046,2.331-1.046
			c0.961,0,1.661,0.378,2.099,1.135h0.027v-4.334h1.121V87.483z M187.07,84.317v-1.032c0-0.565-0.187-1.044-0.561-1.436
			s-0.848-0.588-1.422-0.588c-0.684,0-1.221,0.251-1.613,0.752s-0.588,1.194-0.588,2.078c0,0.807,0.188,1.443,0.564,1.91
			c0.376,0.468,0.881,0.701,1.514,0.701c0.625,0,1.131-0.226,1.521-0.677S187.07,85.006,187.07,84.317z"/>
		<path fill="#2F2F2F" d="M194.312,80.25c0-0.301-0.047-0.562-0.14-0.786s-0.221-0.409-0.383-0.558
			c-0.162-0.147-0.352-0.258-0.571-0.331s-0.456-0.109-0.711-0.109c-0.219,0-0.433,0.029-0.643,0.089s-0.414,0.142-0.612,0.246
			s-0.39,0.23-0.574,0.376s-0.356,0.308-0.516,0.485v-1.203c0.314-0.306,0.667-0.539,1.056-0.701
			c0.39-0.161,0.865-0.242,1.425-0.242c0.401,0,0.772,0.059,1.114,0.174c0.342,0.117,0.638,0.286,0.889,0.51
			s0.448,0.499,0.591,0.827s0.215,0.704,0.215,1.128c0,0.388-0.044,0.738-0.133,1.053s-0.223,0.61-0.403,0.889
			s-0.407,0.545-0.68,0.8s-0.595,0.515-0.964,0.779c-0.46,0.328-0.84,0.608-1.138,0.841s-0.536,0.45-0.711,0.652
			c-0.175,0.203-0.298,0.406-0.369,0.609c-0.071,0.202-0.106,0.436-0.106,0.7h4.881v1.005h-6.05v-0.485
			c0-0.419,0.045-0.788,0.137-1.107s0.242-0.622,0.451-0.909s0.484-0.574,0.824-0.861s0.755-0.61,1.248-0.971
			c0.355-0.255,0.653-0.499,0.892-0.731s0.432-0.465,0.578-0.697s0.25-0.468,0.311-0.708
			C194.281,80.774,194.312,80.519,194.312,80.25z"/>
		<path fill="#2F2F2F" d="M205.974,77.68l-4.703,11.43h-1.046l4.689-11.43H205.974z"/>
		<path fill="#2F2F2F" d="M216.652,87.483h-1.121v-4.033c0-1.458-0.542-2.188-1.627-2.188c-0.547,0-1.007,0.211-1.381,0.633
			c-0.374,0.421-0.561,0.962-0.561,1.623v3.965h-1.121V77.119h1.121v4.525h0.027c0.538-0.884,1.303-1.326,2.297-1.326
			c1.577,0,2.365,0.95,2.365,2.851V87.483z"/>
		<path fill="#2F2F2F" d="M224.355,84.263h-4.942c0.018,0.779,0.228,1.381,0.629,1.805s0.953,0.636,1.654,0.636
			c0.789,0,1.513-0.26,2.174-0.779v1.053c-0.615,0.446-1.429,0.67-2.44,0.67c-0.989,0-1.766-0.318-2.331-0.953
			c-0.565-0.637-0.848-1.53-0.848-2.684c0-1.089,0.309-1.977,0.926-2.662c0.618-0.687,1.384-1.029,2.3-1.029
			s1.625,0.296,2.126,0.889s0.752,1.415,0.752,2.468V84.263z M223.207,83.313c-0.004-0.647-0.161-1.15-0.468-1.511
			s-0.735-0.54-1.282-0.54c-0.529,0-0.978,0.189-1.347,0.567s-0.597,0.873-0.684,1.483H223.207z"/>
		<path fill="#2F2F2F" d="M230.994,87.483h-1.121v-1.094h-0.027c-0.488,0.839-1.206,1.258-2.153,1.258
			c-0.697,0-1.243-0.185-1.637-0.554s-0.591-0.859-0.591-1.47c0-1.308,0.77-2.069,2.311-2.283l2.099-0.294
			c0-1.189-0.481-1.784-1.442-1.784c-0.843,0-1.604,0.287-2.283,0.861v-1.148c0.688-0.438,1.481-0.656,2.379-0.656
			c1.645,0,2.468,0.87,2.468,2.611V87.483z M229.873,83.941l-1.688,0.232c-0.52,0.073-0.912,0.201-1.176,0.387
			c-0.264,0.184-0.396,0.511-0.396,0.98c0,0.342,0.122,0.621,0.366,0.838c0.244,0.216,0.568,0.324,0.974,0.324
			c0.556,0,1.015-0.195,1.377-0.584c0.362-0.391,0.543-0.884,0.543-1.48V83.941z"/>
		<path fill="#2F2F2F" d="M234.135,87.483h-1.121V77.119h1.121V87.483z"/>
		<path fill="#2F2F2F" d="M239.583,87.414c-0.264,0.146-0.613,0.219-1.046,0.219c-1.226,0-1.839-0.684-1.839-2.051V81.44h-1.203
			v-0.957h1.203v-1.709l1.121-0.362v2.071h1.764v0.957h-1.764v3.944c0,0.47,0.08,0.805,0.239,1.005s0.424,0.301,0.793,0.301
			c0.283,0,0.526-0.077,0.731-0.232V87.414z"/>
		<path fill="#2F2F2F" d="M246.774,87.483h-1.121v-4.033c0-1.458-0.542-2.188-1.627-2.188c-0.547,0-1.007,0.211-1.381,0.633
			c-0.374,0.421-0.561,0.962-0.561,1.623v3.965h-1.121V77.119h1.121v4.525h0.027c0.538-0.884,1.303-1.326,2.297-1.326
			c1.577,0,2.365,0.95,2.365,2.851V87.483z"/>
	</g>
	<g>
		<path fill="#2F2F2F" d="M126.844,128.227l-2.789,7h-1.101l-2.652-7h1.23l1.777,5.086c0.132,0.374,0.214,0.699,0.246,0.978h0.027
			c0.045-0.351,0.119-0.668,0.219-0.95l1.859-5.113H126.844z"/>
		<path fill="#2F2F2F" d="M133.486,132.007h-4.942c0.018,0.779,0.228,1.381,0.629,1.805s0.953,0.636,1.654,0.636
			c0.789,0,1.513-0.26,2.174-0.779v1.053c-0.615,0.446-1.429,0.67-2.44,0.67c-0.989,0-1.766-0.318-2.331-0.953
			c-0.565-0.637-0.848-1.53-0.848-2.684c0-1.089,0.309-1.977,0.926-2.662c0.618-0.687,1.384-1.029,2.3-1.029
			s1.625,0.296,2.126,0.889s0.752,1.415,0.752,2.468V132.007z M132.337,131.057c-0.004-0.647-0.161-1.15-0.468-1.511
			s-0.735-0.54-1.282-0.54c-0.529,0-0.978,0.189-1.347,0.567s-0.597,0.873-0.684,1.483H132.337z"/>
		<path fill="#2F2F2F" d="M140.979,135.227h-1.121v-4.033c0-1.458-0.542-2.188-1.627-2.188c-0.547,0-1.007,0.211-1.381,0.633
			c-0.374,0.421-0.561,0.962-0.561,1.623v3.965h-1.121v-10.363h1.121v4.525h0.027c0.538-0.884,1.303-1.326,2.297-1.326
			c1.577,0,2.365,0.95,2.365,2.851V135.227z"/>
		<path fill="#2F2F2F" d="M143.563,126.449c-0.201,0-0.372-0.068-0.513-0.205s-0.212-0.31-0.212-0.52s0.071-0.384,0.212-0.523
			c0.141-0.139,0.312-0.208,0.513-0.208c0.205,0,0.379,0.069,0.523,0.208c0.144,0.14,0.215,0.313,0.215,0.523
			c0,0.2-0.072,0.371-0.215,0.513S143.769,126.449,143.563,126.449z M144.11,135.227h-1.121v-7h1.121V135.227z"/>
		<path fill="#2F2F2F" d="M151.022,134.905c-0.538,0.323-1.176,0.485-1.914,0.485c-0.998,0-1.804-0.324-2.417-0.975
			c-0.613-0.648-0.919-1.491-0.919-2.525c0-1.153,0.331-2.079,0.991-2.779c0.661-0.699,1.542-1.049,2.646-1.049
			c0.615,0,1.158,0.114,1.627,0.342v1.148c-0.52-0.364-1.076-0.547-1.668-0.547c-0.715,0-1.302,0.256-1.76,0.77
			c-0.458,0.512-0.687,1.186-0.687,2.02c0,0.82,0.215,1.468,0.646,1.941s1.008,0.711,1.733,0.711c0.611,0,1.185-0.203,1.723-0.608
			V134.905z"/>
		<path fill="#2F2F2F" d="M153.632,135.227h-1.121v-10.363h1.121V135.227z"/>
		<path fill="#2F2F2F" d="M161.47,132.007h-4.942c0.018,0.779,0.228,1.381,0.629,1.805s0.953,0.636,1.654,0.636
			c0.789,0,1.513-0.26,2.174-0.779v1.053c-0.615,0.446-1.429,0.67-2.44,0.67c-0.989,0-1.766-0.318-2.331-0.953
			c-0.565-0.637-0.848-1.53-0.848-2.684c0-1.089,0.309-1.977,0.926-2.662c0.618-0.687,1.384-1.029,2.3-1.029
			s1.625,0.296,2.126,0.889s0.752,1.415,0.752,2.468V132.007z M160.321,131.057c-0.004-0.647-0.161-1.15-0.468-1.511
			s-0.735-0.54-1.282-0.54c-0.529,0-0.978,0.189-1.347,0.567s-0.597,0.873-0.684,1.483H160.321z"/>
		<path fill="#2F2F2F" d="M162.712,134.974v-1.203c0.611,0.451,1.283,0.677,2.017,0.677c0.984,0,1.477-0.328,1.477-0.984
			c0-0.187-0.042-0.346-0.126-0.475c-0.084-0.131-0.198-0.245-0.342-0.346s-0.312-0.19-0.506-0.27
			c-0.194-0.08-0.402-0.163-0.625-0.25c-0.31-0.123-0.582-0.247-0.817-0.373c-0.235-0.125-0.431-0.266-0.588-0.424
			c-0.157-0.156-0.276-0.336-0.355-0.536s-0.12-0.436-0.12-0.704c0-0.328,0.075-0.619,0.226-0.871
			c0.15-0.254,0.351-0.465,0.602-0.637c0.25-0.17,0.537-0.299,0.858-0.386s0.653-0.13,0.995-0.13c0.606,0,1.148,0.104,1.627,0.314
			v1.135c-0.515-0.337-1.107-0.506-1.777-0.506c-0.209,0-0.399,0.023-0.567,0.072c-0.168,0.047-0.313,0.114-0.434,0.201
			s-0.214,0.19-0.28,0.311c-0.066,0.121-0.099,0.255-0.099,0.4c0,0.183,0.033,0.335,0.099,0.458s0.163,0.232,0.291,0.328
			s0.283,0.183,0.465,0.26s0.39,0.162,0.622,0.253c0.31,0.118,0.588,0.24,0.834,0.365c0.246,0.126,0.456,0.268,0.629,0.424
			c0.173,0.158,0.307,0.339,0.4,0.544s0.14,0.449,0.14,0.731c0,0.347-0.076,0.647-0.229,0.902s-0.356,0.467-0.612,0.636
			s-0.549,0.294-0.882,0.376s-0.681,0.123-1.046,0.123C163.865,135.391,163.241,135.252,162.712,134.974z"/>
		<path fill="#2F2F2F" d="M177.334,125.424l-4.703,11.43h-1.046l4.689-11.43H177.334z"/>
		<path fill="#2F2F2F" d="M188.176,135.227h-1.121v-1.189h-0.027c-0.52,0.902-1.322,1.354-2.406,1.354
			c-0.879,0-1.583-0.313-2.109-0.939c-0.526-0.627-0.79-1.48-0.79-2.561c0-1.157,0.292-2.085,0.875-2.782s1.36-1.046,2.331-1.046
			c0.961,0,1.661,0.378,2.099,1.135h0.027v-4.334h1.121V135.227z M187.055,132.062v-1.032c0-0.565-0.187-1.044-0.561-1.436
			s-0.848-0.588-1.422-0.588c-0.684,0-1.221,0.251-1.613,0.752s-0.588,1.194-0.588,2.078c0,0.807,0.188,1.443,0.564,1.91
			c0.376,0.468,0.881,0.701,1.514,0.701c0.625,0,1.131-0.226,1.521-0.677S187.055,132.75,187.055,132.062z"/>
		<path fill="#2F2F2F" d="M195.549,132.451c0,0.442-0.083,0.844-0.25,1.207c-0.167,0.361-0.401,0.672-0.704,0.93
			c-0.303,0.257-0.667,0.456-1.09,0.598s-0.891,0.212-1.401,0.212c-0.934,0-1.677-0.178-2.229-0.533v-1.203
			c0.661,0.52,1.417,0.779,2.27,0.779c0.342,0,0.65-0.043,0.926-0.13s0.513-0.212,0.711-0.376s0.351-0.362,0.458-0.595
			s0.161-0.494,0.161-0.786c0-1.28-0.912-1.921-2.734-1.921h-0.813v-0.95h0.772c1.613,0,2.42-0.602,2.42-1.805
			c0-1.112-0.615-1.668-1.846-1.668c-0.693,0-1.342,0.232-1.948,0.697v-1.087c0.625-0.374,1.367-0.561,2.229-0.561
			c0.41,0,0.782,0.057,1.114,0.171s0.618,0.273,0.854,0.479s0.42,0.451,0.55,0.738s0.195,0.604,0.195,0.95
			c0,1.29-0.652,2.119-1.955,2.488v0.027c0.333,0.036,0.64,0.117,0.923,0.242c0.283,0.126,0.526,0.289,0.731,0.489
			s0.366,0.437,0.482,0.708C195.491,131.823,195.549,132.123,195.549,132.451z"/>
		<path fill="#2F2F2F" d="M205.974,125.424l-4.703,11.43h-1.046l4.689-11.43H205.974z"/>
		<path fill="#2F2F2F" d="M216.652,135.227h-1.121v-4.033c0-1.458-0.542-2.188-1.627-2.188c-0.547,0-1.007,0.211-1.381,0.633
			c-0.374,0.421-0.561,0.962-0.561,1.623v3.965h-1.121v-10.363h1.121v4.525h0.027c0.538-0.884,1.303-1.326,2.297-1.326
			c1.577,0,2.365,0.95,2.365,2.851V135.227z"/>
		<path fill="#2F2F2F" d="M224.355,132.007h-4.942c0.018,0.779,0.228,1.381,0.629,1.805s0.953,0.636,1.654,0.636
			c0.789,0,1.513-0.26,2.174-0.779v1.053c-0.615,0.446-1.429,0.67-2.44,0.67c-0.989,0-1.766-0.318-2.331-0.953
			c-0.565-0.637-0.848-1.53-0.848-2.684c0-1.089,0.309-1.977,0.926-2.662c0.618-0.687,1.384-1.029,2.3-1.029
			s1.625,0.296,2.126,0.889s0.752,1.415,0.752,2.468V132.007z M223.207,131.057c-0.004-0.647-0.161-1.15-0.468-1.511
			s-0.735-0.54-1.282-0.54c-0.529,0-0.978,0.189-1.347,0.567s-0.597,0.873-0.684,1.483H223.207z"/>
		<path fill="#2F2F2F" d="M230.994,135.227h-1.121v-1.094h-0.027c-0.488,0.839-1.206,1.258-2.153,1.258
			c-0.697,0-1.243-0.185-1.637-0.554s-0.591-0.859-0.591-1.47c0-1.308,0.77-2.069,2.311-2.283l2.099-0.294
			c0-1.189-0.481-1.784-1.442-1.784c-0.843,0-1.604,0.287-2.283,0.861v-1.148c0.688-0.438,1.481-0.656,2.379-0.656
			c1.645,0,2.468,0.87,2.468,2.611V135.227z M229.873,131.686l-1.688,0.232c-0.52,0.073-0.912,0.201-1.176,0.387
			c-0.264,0.184-0.396,0.511-0.396,0.98c0,0.342,0.122,0.621,0.366,0.838c0.244,0.216,0.568,0.324,0.974,0.324
			c0.556,0,1.015-0.195,1.377-0.584c0.362-0.391,0.543-0.884,0.543-1.48V131.686z"/>
		<path fill="#2F2F2F" d="M234.135,135.227h-1.121v-10.363h1.121V135.227z"/>
		<path fill="#2F2F2F" d="M239.583,135.158c-0.264,0.146-0.613,0.219-1.046,0.219c-1.226,0-1.839-0.684-1.839-2.051v-4.143h-1.203
			v-0.957h1.203v-1.709l1.121-0.362v2.071h1.764v0.957h-1.764v3.944c0,0.47,0.08,0.805,0.239,1.005s0.424,0.301,0.793,0.301
			c0.283,0,0.526-0.077,0.731-0.232V135.158z"/>
		<path fill="#2F2F2F" d="M246.774,135.227h-1.121v-4.033c0-1.458-0.542-2.188-1.627-2.188c-0.547,0-1.007,0.211-1.381,0.633
			c-0.374,0.421-0.561,0.962-0.561,1.623v3.965h-1.121v-10.363h1.121v4.525h0.027c0.538-0.884,1.303-1.326,2.297-1.326
			c1.577,0,2.365,0.95,2.365,2.851V135.227z"/>
	</g>
</g>
<g id="Layer_1">
</g>
<g id="_x3C_Layer_x3E_">
</g>
</svg>
