<?xml version="1.0" encoding="utf-8"?>
<!-- Generator: Adobe Illustrator 27.4.0, SVG Export Plug-In . SVG Version: 6.00 Build 0)  -->
<svg version="1.1" xmlns="http://www.w3.org/2000/svg" xmlns:xlink="http://www.w3.org/1999/xlink" x="0px" y="0px"
	 viewBox="0 0 708.4 202.4" enable-background="new 0 0 708.4 202.4" xml:space="preserve">
<symbol  id="PIPELINE" viewBox="-32 -12.266 64 24.531">
	<linearGradient id="SVGID_1_" gradientUnits="userSpaceOnUse" x1="0" y1="-12.2655" x2="1.502093e-15" y2="12.2655">
		<stop  offset="0" style="stop-color:#1B89B2"/>
		<stop  offset="1" style="stop-color:#51C8E8"/>
	</linearGradient>
	<path fill="url(#SVGID_1_)" d="M26.096,12.266h-51.448v0h0C-29.08,12.265-32,6.878-32,0s2.92-12.265,6.648-12.265h0v0h51.448
		C29.356-12.266,32-6.363,32,0S29.356,12.266,26.096,12.266z"/>
	<g>
		
			<linearGradient id="SVGID_00000118393376907258869460000008515037518787926448_" gradientUnits="userSpaceOnUse" x1="-31.461" y1="-6.1136" x2="-19.2338" y2="6.1136">
			<stop  offset="0" style="stop-color:#B3B4B4"/>
			<stop  offset="1" style="stop-color:#4F4F4F"/>
		</linearGradient>
		<ellipse fill="url(#SVGID_00000118393376907258869460000008515037518787926448_)" cx="-25.347" cy="0" rx="5.575" ry="10.879"/>
	</g>
</symbol>
<g id="Shapes">
	<rect fill="#FFFFFF" width="708.4" height="202.4"/>
	<g id="Wrench_tool_x28_s_x29_">
	</g>
	<g id="user2">
	</g>
	<g id="user2_1_">
	</g>
	<g id="user2_4_">
	</g>
	<g id="user2_3_">
	</g>
	<g id="user2_2_">
	</g>
	<g id="Internet_2">
	</g>
	<g id="Enterprise">
	</g>
	<g id="Tunnel__x28_stackable_x29_">
	</g>
	<g id="New_Symbol">
	</g>
	<g id="New_Symbol_1">
	</g>
	<g id="Files">
	</g>
	<g id="BlobBlock">
	</g>
	<g id="E_x5F_Enterprise">
	</g>
	<g id="E_x5F_AD_FS">
	</g>
	<g id="C_x5F_Azure_Active_Directory">
	</g>
	<g>
		<g id="b30b0bd5-e4d2-456b-8d49-c2df20200912_00000054233538580120028530000010940821672284189074_">
			<path id="b51878b5-8d50-4b8b-bc48-74f5f7315a99_00000038415126545307975530000006201653600025696935_" fill="#33BEDD" d="
				M351.291,98.065v-1.982h-14.927l-7.001,6.968h-5.152l11.955-12.087h8.157v-1.882h-8.983l-13.937,13.97h-1.982v1.982h5.978
				l7.067,6.968h16.843v-1.982h-16.116l-4.987-4.987h12.12v-1.982h-8.124l4.954-4.987H351.291z"/>
			
				<circle id="ad0ed4eb-cd5f-4cc0-bd19-2830d27ec806_00000005948188434595022070000004750524098437719960_" fill="#FFFFFF" cx="342.309" cy="104.043" r="2.873"/>
			
				<circle id="a2746b4a-0ae4-4308-876e-5b82657e1872_00000179613441342600902280000000815561961803466143_" fill="#FFFFFF" cx="345.314" cy="90.106" r="2.873"/>
			
				<circle id="fc3316e0-7094-4ce0-99ed-43f1e6e4350c_00000086655699262597483250000013338639524562261384_" fill="#FFFFFF" cx="352.282" cy="97.074" r="2.873"/>
			
				<circle id="b5d18443-d50e-4590-8e8f-80b6a7f6d348_00000101066743526006043400000015093324822057127308_" fill="#FFFFFF" cx="349.31" cy="111.011" r="2.873"/>
			<circle fill="#50E6FF" cx="345.215" cy="90.106" r="3.468"/>
			
				<linearGradient id="SVGID_00000037672898482524008340000016823039286751389874_" gradientUnits="userSpaceOnUse" x1="4770.4863" y1="5562.0967" x2="4770.4863" y2="5575.9341" gradientTransform="matrix(0.5 0 0 0.5 -2033.0601 -2707.6201)">
				<stop  offset="0" style="stop-color:#C69AEB"/>
				<stop  offset="1" style="stop-color:#6F4BB2"/>
			</linearGradient>
			<circle fill="url(#SVGID_00000037672898482524008340000016823039286751389874_)" cx="352.183" cy="97.074" r="3.468"/>
			
				<linearGradient id="SVGID_00000144334467495703619060000004738779112781964172_" gradientUnits="userSpaceOnUse" x1="4764.7397" y1="5590.0034" x2="4764.7397" y2="5603.8071" gradientTransform="matrix(0.5 0 0 0.5 -2033.0601 -2707.6201)">
				<stop  offset="0" style="stop-color:#C69AEB"/>
				<stop  offset="1" style="stop-color:#6F4BB2"/>
			</linearGradient>
			<circle fill="url(#SVGID_00000144334467495703619060000004738779112781964172_)" cx="349.31" cy="111.011" r="3.468"/>
			<circle fill="#50E6FF" cx="342.309" cy="104.043" r="3.468"/>
			<g>
				<path fill="#999999" d="M312.883,75.872h4.26l0,0v11.79c0,0.529-0.429,0.958-0.958,0.958h-4.227
					c-0.529,0-0.958-0.429-0.958-0.958l0,0v-9.908C311.001,76.715,311.844,75.872,312.883,75.872L312.883,75.872z"/>
				<path opacity="0.5" fill="#999999" enable-background="new    " d="M312.883,75.872h4.26l0,0v11.79
					c0,0.529-0.429,0.958-0.958,0.958h-4.227c-0.529,0-0.958-0.429-0.958-0.958l0,0v-9.908
					C311.001,76.715,311.844,75.872,312.883,75.872L312.883,75.872z"/>
			</g>
			<g>
				<path fill="#999999" d="M361.001,75.872h4.26c1.04,0,1.882,0.843,1.882,1.882v9.908c0,0.529-0.429,0.958-0.958,0.958l0,0h-4.26
					c-0.516-0.018-0.925-0.441-0.925-0.958V75.872L361.001,75.872z"/>
				<path opacity="0.5" fill="#999999" enable-background="new    " d="M361.001,75.872h4.26c1.04,0,1.882,0.843,1.882,1.882v9.908
					c0,0.529-0.429,0.958-0.958,0.958l0,0h-4.26c-0.516-0.018-0.925-0.441-0.925-0.958V75.872L361.001,75.872z"/>
			</g>
			<path fill="#949494" d="M367.143,77.755v4.128l0,0h-56.143l0,0v-4.128c0-1.04,0.843-1.882,1.882-1.882h52.411
				C366.321,75.89,367.144,76.728,367.143,77.755z"/>
			<g>
				<path fill="#999999" d="M311.959,113.026h4.26c0.529,0,0.958,0.429,0.958,0.958v11.889l0,0h-4.293
					c-1.04,0-1.882-0.843-1.882-1.882v-9.908c-0.055-0.526,0.327-0.997,0.854-1.052
					C311.889,113.027,311.924,113.025,311.959,113.026z"/>
				<path opacity="0.5" fill="#999999" enable-background="new    " d="M311.959,113.026h4.26c0.529,0,0.958,0.429,0.958,0.958
					v11.889l0,0h-4.293c-1.04,0-1.882-0.843-1.882-1.882v-9.908c-0.055-0.526,0.327-0.997,0.854-1.052
					C311.889,113.027,311.924,113.025,311.959,113.026z"/>
			</g>
			<g>
				<path fill="#999999" d="M361.926,113.026h4.26c0.529,0,0.958,0.429,0.958,0.958l0,0v9.908c0,1.04-0.843,1.882-1.882,1.882l0,0
					h-4.26l0,0v-11.691c-0.055-0.526,0.327-0.997,0.853-1.052C361.878,113.028,361.902,113.026,361.926,113.026z"/>
				<path opacity="0.5" fill="#999999" enable-background="new    " d="M361.926,113.026h4.26c0.529,0,0.958,0.429,0.958,0.958l0,0
					v9.908c0,1.04-0.843,1.882-1.882,1.882l0,0h-4.26l0,0v-11.691c-0.055-0.526,0.327-0.997,0.853-1.052
					C361.878,113.028,361.902,113.026,361.926,113.026z"/>
			</g>
			<path fill="#949494" d="M311.001,123.99v-4.128l0,0h56.143l0,0v4.128c0,1.04-0.843,1.882-1.882,1.882h-52.378
				C311.844,125.872,311.001,125.03,311.001,123.99z"/>
		</g>
	</g>
	<g id="a9342976-9512-4674-89f1-52a588cf420b">
		<g>
			
				<linearGradient id="SVGID_00000071529697899768703050000001366481620243552678_" gradientUnits="userSpaceOnUse" x1="71.5127" y1="1784.2374" x2="71.5127" y2="1811.5111" gradientTransform="matrix(1 0 0 -1 0 1902.8)">
				<stop  offset="0" style="stop-color:#32BEDD"/>
				<stop  offset="0.775" style="stop-color:#32D4F5"/>
			</linearGradient>
			<path fill="url(#SVGID_00000071529697899768703050000001366481620243552678_)" d="M49.513,91.289h44l0,0v25.804
				c0,0.812-0.658,1.47-1.47,1.47l0,0h-41.06c-0.812,0-1.47-0.658-1.47-1.47V91.289z"/>
			<path fill="#0078D4" d="M50.99,83.182h41.044c0.812,0,1.47,0.658,1.47,1.47v0v6.634l0,0H49.521l0,0v-6.632
				c-0.001-0.812,0.656-1.471,1.467-1.473C50.989,83.182,50.99,83.182,50.99,83.182z"/>
			<path fill="#F78D1E" d="M83.293,96.573H72.512c-0.115,0-0.227-0.034-0.323-0.096l-3.078-2.048
				c-0.094-0.064-0.206-0.099-0.32-0.099h-9.059c-0.319,0-0.578,0.259-0.578,0.578c0,0,0,0,0,0v19.031
				c-0.001,0.318,0.255,0.576,0.572,0.578c0.002,0,0.003,0,0.005,0h23.561c0.318,0.001,0.576-0.255,0.578-0.572
				c0-0.002,0-0.003,0-0.005V97.151C83.871,96.832,83.612,96.573,83.293,96.573z"/>
			<path fill="#FFFFFF" d="M61.639,95.436h5.144c0.131,0,0.237,0.106,0.237,0.237v0.65c0,0.131-0.106,0.237-0.237,0.237h-5.144
				c-0.131,0-0.237-0.106-0.237-0.237v-0.65C61.403,95.542,61.509,95.436,61.639,95.436z"/>
			<path fill="#D15900" d="M61.564,95.436h0.801c0.089,0,0.161,0.072,0.161,0.161v0.801c0,0.089-0.072,0.161-0.161,0.161h-0.801
				c-0.089,0-0.161-0.072-0.161-0.161v-0.801C61.403,95.508,61.475,95.436,61.564,95.436z"/>
			<path fill="#FFFFFF" d="M83.293,96.547h-11.84c-0.153-0.002-0.3,0.057-0.408,0.164l-1.904,1.902
				c-0.108,0.11-0.255,0.172-0.408,0.172h-8.999c-0.318-0.001-0.576,0.255-0.578,0.572c0,0.001,0,0.002,0,0.003v14.546
				c-0.001,0.318,0.255,0.576,0.572,0.578c0.002,0,0.003,0,0.005,0h23.561c0.318,0.001,0.576-0.255,0.578-0.572
				c0-0.002,0-0.003,0-0.005V97.122c0-0.318-0.257-0.575-0.575-0.575C83.295,96.547,83.294,96.547,83.293,96.547z"/>
		</g>
	</g>
	<g>
		<g>
			<line fill="none" stroke="#3C3C41" stroke-miterlimit="10" x1="224.4" y1="100.872" x2="293.818" y2="100.872"/>
			<g>
				<polygon fill="#3C3C41" points="292.724,104.612 299.2,100.872 292.724,97.133 				"/>
			</g>
		</g>
	</g>
	<g>
		<g>
			<line fill="none" stroke="#3C3C41" stroke-miterlimit="10" x1="378.4" y1="100.872" x2="478.618" y2="100.872"/>
			<g>
				<polygon fill="#3C3C41" points="477.524,104.612 484,100.872 477.524,97.133 				"/>
			</g>
		</g>
	</g>
	<line fill="none" stroke="#3C3C41" stroke-miterlimit="10" x1="101.2" y1="100.872" x2="92.4" y2="100.872"/>
	<g>
		
			<linearGradient id="SVGID_00000105385032269483968910000008081350215774669718_" gradientUnits="userSpaceOnUse" x1="-67.3207" y1="2045.3438" x2="-67.3207" y2="2026.8081" gradientTransform="matrix(1 0 0 -1 564 2136.8)">
			<stop  offset="0" style="stop-color:#86D633"/>
			<stop  offset="1" style="stop-color:#5E9624"/>
		</linearGradient>
		<path fill="url(#SVGID_00000105385032269483968910000008081350215774669718_)" d="M493.8,100.361l-1.819,3.552
			c-0.212,0.392-0.067,0.882,0.325,1.095c0.392,0.213,0.882,0.067,1.095-0.325c0.006-0.011,0.011-0.022,0.017-0.033l2.148-4.195
			c0.197-0.389,0.05-0.865-0.333-1.074c-1.519-0.825-2.082-2.726-1.257-4.245c0.825-1.519,2.726-2.082,4.245-1.257
			c1.341,0.728,1.962,2.318,1.469,3.762c-0.133,0.426,0.105,0.879,0.53,1.012c0.409,0.128,0.846-0.086,0.997-0.487
			c0.852-2.48-0.468-5.181-2.948-6.033c-2.48-0.852-5.181,0.468-6.033,2.948C491.578,96.993,492.206,99.113,493.8,100.361z"/>
		
			<linearGradient id="SVGID_00000113320943419510422170000005578679399242080906_" gradientUnits="userSpaceOnUse" x1="-62.3954" y1="2045.3438" x2="-62.3954" y2="2026.8081" gradientTransform="matrix(1 0 0 -1 564 2136.8)">
			<stop  offset="0" style="stop-color:#86D633"/>
			<stop  offset="1" style="stop-color:#5E9624"/>
		</linearGradient>
		<path fill="url(#SVGID_00000113320943419510422170000005578679399242080906_)" d="M506.254,103.665
			c-0.807-2.496-3.485-3.865-5.981-3.058c-0.075,0.024-0.149,0.05-0.222,0.078l-1.818-2.974c-0.223-0.386-0.718-0.518-1.104-0.294
			c-0.386,0.223-0.518,0.718-0.294,1.104c0.006,0.011,0.013,0.022,0.02,0.033l2.197,3.595c0.229,0.376,0.717,0.499,1.097,0.276
			c1.491-0.876,3.41-0.377,4.286,1.114c0.876,1.491,0.377,3.41-1.114,4.286c-1.318,0.774-3.001,0.484-3.984-0.686
			c-0.286-0.342-0.796-0.387-1.138-0.1c-0.342,0.286-0.387,0.796-0.1,1.138c1.685,2.009,4.68,2.271,6.689,0.586
			C506.268,107.52,506.848,105.504,506.254,103.665z"/>
		
			<linearGradient id="SVGID_00000013173968837758226670000005125242577012214963_" gradientUnits="userSpaceOnUse" x1="-69.9903" y1="2045.3438" x2="-69.9903" y2="2026.8081" gradientTransform="matrix(1 0 0 -1 564 2136.8)">
			<stop  offset="0" style="stop-color:#86D633"/>
			<stop  offset="1" style="stop-color:#5E9624"/>
		</linearGradient>
		<path fill="url(#SVGID_00000013173968837758226670000005125242577012214963_)" d="M500.862,104.969
			c-0.011-0.444-0.377-0.796-0.821-0.788l-4.212,0.099c-0.44,0.011-0.791,0.372-0.788,0.812c0.009,1.729-1.386,3.138-3.115,3.147
			c-1.729,0.009-3.138-1.386-3.147-3.115c-0.008-1.526,1.085-2.835,2.588-3.099c0.442-0.063,0.748-0.472,0.685-0.914
			c-0.063-0.442-0.472-0.748-0.914-0.685c-0.016,0.002-0.032,0.005-0.048,0.008c-2.583,0.449-4.313,2.907-3.864,5.49
			s2.907,4.313,5.49,3.864c1.991-0.346,3.545-1.915,3.871-3.91l3.485-0.082C500.52,105.785,500.873,105.415,500.862,104.969
			C500.862,104.969,500.862,104.969,500.862,104.969z"/>
		<circle fill="#0078D4" cx="491.947" cy="105.135" r="1.716"/>
		<circle fill="#0078D4" cx="501.769" cy="105.135" r="1.716"/>
		<circle fill="#0078D4" cx="496.781" cy="96.653" r="1.716"/>
	</g>
	<g>
		<g>
			<path fill="#50E6FF" d="M555.669,44.707l-1.029,1.032c-0.183,0.183-0.479,0.184-0.663,0.001l0,0l-7.641-7.619
				c-0.366-0.365-0.367-0.957-0.002-1.323l1.034-1.037l0,0l8.304,8.281c0.183,0.183,0.184,0.479,0.001,0.663l0,0L555.669,44.707z"/>
			<path fill="#1490DF" d="M554.481,29.261l1.035,1.032c0.183,0.183,0.184,0.479,0.001,0.663l-8.158,8.181l0,0l-1.036-1.034
				c-0.366-0.365-0.367-0.957-0.002-1.323l7.5-7.521C554.004,29.079,554.299,29.079,554.481,29.261z"/>
		</g>
		<g>
			<path fill="#50E6FF" d="M576.115,35.767l1.032,1.035c0.365,0.366,0.364,0.958-0.002,1.323l-7.641,7.619
				c-0.183,0.183-0.48,0.182-0.663-0.001l0,0l-1.027-1.03c-0.183-0.183-0.182-0.48,0.001-0.663l0,0l8.303-8.28l0,0L576.115,35.767z"
				/>
			<path fill="#1490DF" d="M577.155,38.1l-1.035,1.032l0,0l-8.158-8.181c-0.183-0.183-0.182-0.48,0.001-0.663l0,0l1.035-1.032
				c0.183-0.183,0.48-0.182,0.663,0.001l0,0l7.5,7.521c0.365,0.366,0.364,0.958-0.002,1.323L577.155,38.1z"/>
		</g>
		
			<linearGradient id="SVGID_00000111151859185859156780000003993429104967702965_" gradientUnits="userSpaceOnUse" x1="-208.4622" y1="2428.8696" x2="-208.4622" y2="2456.0806" gradientTransform="matrix(1.156 0 0 -1.029 803.015 2550.5986)">
			<stop  offset="0" style="stop-color:#FEA11B"/>
			<stop  offset="0.284" style="stop-color:#FEA51A"/>
			<stop  offset="0.547" style="stop-color:#FEB018"/>
			<stop  offset="0.8" style="stop-color:#FFC314"/>
			<stop  offset="1" style="stop-color:#FFD70F"/>
		</linearGradient>
		<path fill="url(#SVGID_00000111151859185859156780000003993429104967702965_)" d="M560.792,39.081h-6.299
			c-0.184,0.007-0.34-0.134-0.351-0.318c0-0.046,0.011-0.091,0.032-0.132l7.552-14.943c0.066-0.118,0.191-0.19,0.326-0.186h7.451
			c0.184-0.007,0.34,0.134,0.351,0.318c-0.001,0.064-0.022,0.125-0.061,0.176l-8.869,11.691h8.649
			c0.184-0.007,0.34,0.134,0.351,0.318c-0.001,0.081-0.034,0.157-0.091,0.214L555.46,51.171c-0.135,0.081-1.095,0.878-0.625-0.332
			l0,0L560.792,39.081z"/>
	</g>
	<g>
		<path fill="#476CB4" d="M556.544,114.426c-0.669,0-1.301-0.297-1.729-0.837l-6.507-8.088c-0.428-0.539-0.595-1.227-0.428-1.896
			l2.324-10.096c0.149-0.669,0.595-1.209,1.208-1.506l9.408-4.499c0.297-0.149,0.632-0.223,0.967-0.223s0.669,0.074,0.967,0.223
			l9.408,4.481c0.614,0.297,1.06,0.837,1.208,1.506l2.324,10.096c0.149,0.669,0,1.357-0.428,1.896l-6.507,8.088
			c-0.428,0.521-1.06,0.837-1.729,0.837L556.544,114.426L556.544,114.426z"/>
		<path fill="#FFFFFF" d="M561.768,87.746c0.26,0,0.521,0.056,0.762,0.167l9.408,4.481c0.483,0.242,0.855,0.688,0.967,1.208
			l2.324,10.096c0.13,0.539,0,1.097-0.353,1.525l-6.507,8.088c-0.335,0.428-0.855,0.669-1.394,0.669h-10.43
			c-0.539,0-1.06-0.242-1.394-0.669l-6.507-8.088c-0.335-0.428-0.465-0.985-0.353-1.525l2.324-10.096
			c0.13-0.539,0.483-0.985,0.967-1.208l9.408-4.499C561.229,87.802,561.508,87.746,561.768,87.746L561.768,87.746z M561.768,86.872
			L561.768,86.872c-0.39,0-0.781,0.093-1.153,0.26l-9.408,4.499c-0.744,0.353-1.264,1.004-1.45,1.803l-2.324,10.096
			c-0.186,0.799,0,1.618,0.521,2.268l6.507,8.088c0.502,0.632,1.264,0.985,2.064,0.985h10.43c0.799,0,1.562-0.353,2.064-0.985
			l6.507-8.088c0.521-0.632,0.707-1.469,0.521-2.268l-2.324-10.096c-0.186-0.799-0.707-1.45-1.45-1.803l-9.371-4.499
			C562.549,86.965,562.159,86.872,561.768,86.872L561.768,86.872L561.768,86.872z"/>
		<path fill="#FFFFFF" d="M571.195,102.899L571.195,102.899L571.195,102.899C571.176,102.899,571.176,102.899,571.195,102.899
			h-0.019c-0.019,0-0.037,0-0.037-0.019c-0.037,0-0.074-0.019-0.112-0.019c-0.13-0.019-0.242-0.037-0.353-0.037
			c-0.056,0-0.112,0-0.186-0.019h-0.019c-0.39-0.037-0.707-0.074-1.004-0.167c-0.13-0.056-0.167-0.13-0.204-0.205
			c0-0.019-0.019-0.019-0.019-0.037l0,0l-0.242-0.074c0.112-0.855,0.074-1.748-0.13-2.622c-0.205-0.874-0.558-1.692-1.041-2.436
			l0.186-0.167v-0.037c0-0.093,0.019-0.186,0.093-0.279c0.223-0.205,0.502-0.372,0.837-0.576l0,0
			c0.056-0.037,0.112-0.056,0.167-0.093c0.112-0.056,0.205-0.112,0.316-0.186c0.019-0.019,0.056-0.037,0.093-0.074
			c0.019-0.019,0.037-0.019,0.037-0.037l0,0c0.26-0.223,0.316-0.595,0.13-0.837c-0.093-0.13-0.26-0.205-0.428-0.205
			c-0.149,0-0.279,0.056-0.409,0.149l0,0l0,0c-0.019,0.019-0.019,0.019-0.037,0.037c-0.037,0.019-0.056,0.056-0.093,0.074
			c-0.093,0.093-0.167,0.167-0.242,0.26c-0.037,0.037-0.074,0.093-0.13,0.13l0,0c-0.26,0.279-0.502,0.502-0.744,0.669
			c-0.056,0.037-0.112,0.056-0.167,0.056c-0.037,0-0.074,0-0.112-0.019h-0.037l0,0l-0.223,0.149
			c-0.242-0.26-0.502-0.483-0.762-0.707c-1.116-0.874-2.473-1.413-3.886-1.543l-0.019-0.242c-0.019-0.019-0.019-0.019-0.037-0.037
			c-0.056-0.056-0.13-0.112-0.149-0.242c-0.019-0.297,0.019-0.632,0.056-1.004v-0.019c0-0.056,0.019-0.13,0.037-0.186
			c0.019-0.112,0.037-0.223,0.056-0.353v-0.112v-0.056l0,0l0,0c0-0.335-0.26-0.614-0.576-0.614c-0.149,0-0.297,0.074-0.409,0.186
			c-0.112,0.112-0.167,0.26-0.167,0.428l0,0l0,0v0.037v0.112c0,0.13,0.019,0.242,0.056,0.353c0.019,0.056,0.019,0.112,0.037,0.186
			v0.019c0.037,0.372,0.093,0.707,0.056,1.004c-0.019,0.13-0.093,0.186-0.149,0.242c-0.019,0.019-0.019,0.019-0.037,0.037l0,0
			l-0.019,0.242c-0.335,0.037-0.669,0.074-1.004,0.149c-1.432,0.316-2.696,1.041-3.681,2.082l-0.186-0.13h-0.037
			c-0.037,0-0.074,0.019-0.112,0.019c-0.056,0-0.112-0.019-0.167-0.056c-0.242-0.167-0.483-0.409-0.744-0.688l0,0
			c-0.037-0.037-0.074-0.093-0.13-0.13c-0.074-0.093-0.149-0.167-0.242-0.26c-0.019-0.019-0.056-0.037-0.093-0.074
			c-0.019-0.019-0.037-0.019-0.037-0.037l0,0c-0.112-0.093-0.26-0.149-0.409-0.149c-0.167,0-0.335,0.074-0.428,0.205
			c-0.186,0.242-0.13,0.614,0.13,0.837l0,0l0,0c0.019,0,0.019,0.019,0.037,0.019c0.037,0.019,0.056,0.056,0.093,0.074
			c0.112,0.074,0.205,0.13,0.316,0.186c0.056,0.019,0.112,0.056,0.167,0.093l0,0c0.335,0.205,0.614,0.372,0.837,0.576
			c0.093,0.093,0.093,0.186,0.093,0.279v0.037l0,0l0.186,0.167c-0.037,0.056-0.074,0.093-0.093,0.149
			c-0.93,1.469-1.283,3.198-1.041,4.908l-0.242,0.074c0,0.019-0.019,0.019-0.019,0.037c-0.037,0.074-0.093,0.149-0.205,0.205
			c-0.279,0.093-0.614,0.13-1.004,0.167h-0.019c-0.056,0-0.13,0-0.186,0.019c-0.112,0-0.223,0.019-0.353,0.037
			c-0.037,0-0.074,0.019-0.112,0.019c-0.019,0-0.037,0-0.056,0.019l0,0l0,0c-0.335,0.074-0.539,0.39-0.483,0.688
			c0.056,0.26,0.297,0.428,0.595,0.428c0.056,0,0.093,0,0.149-0.019l0,0l0,0c0.019,0,0.037,0,0.037-0.019
			c0.037,0,0.074-0.019,0.112-0.019c0.13-0.037,0.223-0.074,0.335-0.13c0.056-0.019,0.112-0.056,0.167-0.074h0.019
			c0.353-0.13,0.669-0.242,0.967-0.279h0.037c0.112,0,0.186,0.056,0.242,0.093c0.019,0,0.019,0.019,0.037,0.019l0,0l0.26-0.037
			c0.446,1.376,1.302,2.603,2.436,3.495c0.26,0.205,0.521,0.372,0.799,0.539l-0.112,0.242c0,0.019,0.019,0.019,0.019,0.037
			c0.037,0.074,0.074,0.167,0.037,0.297c-0.112,0.279-0.279,0.558-0.483,0.874v0.019c-0.037,0.056-0.074,0.093-0.112,0.149
			c-0.074,0.093-0.13,0.186-0.205,0.297c-0.019,0.019-0.037,0.056-0.056,0.093c0,0.019-0.019,0.037-0.019,0.037l0,0l0,0
			c-0.149,0.316-0.037,0.669,0.242,0.799c0.074,0.037,0.149,0.056,0.223,0.056c0.223,0,0.446-0.149,0.558-0.353l0,0l0,0
			c0-0.019,0.019-0.037,0.019-0.037c0.019-0.037,0.037-0.074,0.056-0.093c0.056-0.13,0.074-0.223,0.112-0.335
			c0.019-0.056,0.037-0.112,0.056-0.167l0,0c0.13-0.372,0.223-0.669,0.39-0.93c0.074-0.112,0.167-0.13,0.242-0.167
			c0.019,0,0.019,0,0.037-0.019l0,0l0.13-0.242c0.818,0.316,1.711,0.483,2.603,0.483c0.539,0,1.097-0.056,1.618-0.186
			c0.335-0.074,0.651-0.167,0.967-0.279l0.112,0.205c0.019,0,0.019,0,0.037,0.019c0.093,0.019,0.167,0.056,0.242,0.167
			c0.149,0.26,0.26,0.576,0.39,0.93v0.019c0.019,0.056,0.037,0.112,0.056,0.167c0.037,0.112,0.056,0.223,0.112,0.335
			c0.019,0.037,0.037,0.056,0.056,0.093c0,0.019,0.019,0.037,0.019,0.037l0,0l0,0c0.112,0.223,0.335,0.353,0.558,0.353
			c0.074,0,0.149-0.019,0.223-0.056c0.13-0.074,0.242-0.186,0.279-0.335c0.037-0.149,0.037-0.316-0.037-0.465l0,0l0,0
			c0-0.019-0.019-0.019-0.019-0.037c-0.019-0.037-0.037-0.074-0.056-0.093c-0.056-0.112-0.13-0.205-0.204-0.297
			c-0.037-0.056-0.074-0.093-0.112-0.149v-0.019c-0.205-0.316-0.39-0.595-0.483-0.874c-0.037-0.13,0-0.205,0.019-0.297
			c0-0.019,0.019-0.019,0.019-0.037l0,0l-0.093-0.223c0.985-0.576,1.822-1.394,2.454-2.398c0.335-0.521,0.595-1.097,0.781-1.673
			l0.223,0.037c0.019,0,0.019-0.019,0.037-0.019c0.074-0.037,0.13-0.093,0.242-0.093h0.037c0.297,0.037,0.614,0.149,0.967,0.279
			h0.019c0.056,0.019,0.112,0.056,0.167,0.074c0.112,0.056,0.205,0.093,0.335,0.13c0.037,0,0.074,0.019,0.112,0.019
			c0.019,0,0.037,0,0.056,0.019l0,0c0.056,0.019,0.093,0.019,0.149,0.019c0.279,0,0.521-0.186,0.595-0.428
			C571.734,103.289,571.529,102.992,571.195,102.899L571.195,102.899z M562.586,101.988l-0.818,0.39l-0.818-0.39l-0.205-0.874
			l0.558-0.707h0.911l0.558,0.707L562.586,101.988L562.586,101.988z M567.439,100.054c0.149,0.632,0.186,1.264,0.13,1.878
			l-2.845-0.818c-0.26-0.074-0.409-0.335-0.353-0.595c0.019-0.074,0.056-0.149,0.112-0.205l2.25-2.027
			C567.049,98.809,567.29,99.404,567.439,100.054L567.439,100.054z M565.84,97.172l-2.436,1.729
			c-0.205,0.13-0.483,0.093-0.651-0.112c-0.056-0.056-0.074-0.13-0.093-0.205l-0.167-3.031
			C563.776,95.704,564.948,96.28,565.84,97.172L565.84,97.172z M560.448,95.648c0.204-0.037,0.39-0.074,0.595-0.112l-0.167,2.975
			c-0.019,0.26-0.223,0.483-0.502,0.483c-0.074,0-0.167-0.019-0.223-0.056l-2.473-1.766C558.44,96.41,559.388,95.89,560.448,95.648
			L560.448,95.648z M556.786,98.288l2.213,1.971c0.204,0.167,0.223,0.483,0.056,0.688c-0.056,0.074-0.13,0.13-0.223,0.149
			l-2.882,0.837C555.837,100.668,556.116,99.385,556.786,98.288L556.786,98.288z M556.284,103.326l2.956-0.502
			c0.242-0.019,0.465,0.149,0.521,0.39c0.019,0.112,0.019,0.205-0.019,0.297l0,0l-1.134,2.733
			C557.566,105.576,556.73,104.554,556.284,103.326L556.284,103.326z M563.07,107.026c-0.428,0.093-0.855,0.149-1.302,0.149
			c-0.651,0-1.283-0.112-1.878-0.297l1.469-2.659c0.149-0.167,0.39-0.242,0.595-0.13c0.093,0.056,0.167,0.13,0.223,0.205l0,0
			l1.432,2.584C563.442,106.933,563.256,106.971,563.07,107.026L563.07,107.026z M566.695,104.442
			c-0.465,0.744-1.078,1.339-1.785,1.803l-1.171-2.807c-0.056-0.223,0.037-0.465,0.26-0.576c0.074-0.037,0.167-0.056,0.26-0.056
			l2.975,0.502C567.123,103.717,566.937,104.089,566.695,104.442L566.695,104.442z"/>
	</g>
	<g>
		<g>
			<line fill="none" stroke="#3C3C41" stroke-miterlimit="10" x1="541.2" y1="100.872" x2="512.768" y2="100.872"/>
			<g>
				<g>
					<path fill="#FFFFFF" d="M512.928,98.052c-1.557,0-2.82,1.263-2.82,2.82s1.263,2.82,2.82,2.82s2.82-1.263,2.82-2.82
						S514.485,98.052,512.928,98.052z"/>
					<path fill="#3C3C41" d="M512.928,97.677c1.761,0,3.195,1.433,3.195,3.195s-1.433,3.195-3.195,3.195
						c-1.762,0-3.195-1.433-3.195-3.195S511.167,97.677,512.928,97.677C514.69,97.677,511.167,97.677,512.928,97.677z
						 M512.928,103.317c1.348,0,2.445-1.096,2.445-2.445s-1.096-2.445-2.445-2.445c-1.348,0-2.445,1.096-2.445,2.445
						S511.58,103.317,512.928,103.317C514.276,103.317,511.58,103.317,512.928,103.317z"/>
				</g>
			</g>
		</g>
	</g>
	<g>
		<g>
			<path fill="none" stroke="#3C3C41" stroke-miterlimit="10" d="M527.018,167.2H458.2c-2.75,0-5-2.25-5-5v-122c0-2.75,2.25-5,5-5
				h68.818"/>
			<g>
				<polygon fill="#3C3C41" points="525.924,163.46 532.4,167.2 525.924,170.94 				"/>
			</g>
			<g>
				<polygon fill="#3C3C41" points="525.924,38.94 532.4,35.2 525.924,31.46 				"/>
			</g>
		</g>
	</g>
	<path d="M105.6,92.4h24.047v12.023l-1.503-1.503v-8.184l-10.521,5.272l-10.521-5.272v11.19h12.023v1.503H105.6V92.4z
		 M117.623,98.318l8.841-4.415h-17.683L117.623,98.318z M124.798,104.013l1.057-1.057l3.722,3.722l-3.722,3.722l-1.057-1.057
		l1.914-1.914h-6.082v-1.503h6.082L124.798,104.013z"/>
	<g>
		<g id="a53a4de8-371c-49da-a662-c4631299fc03">
			<path fill="#76BC2D" d="M565.126,165.979c0.011,0.259-0.186,0.48-0.444,0.499h-3.865c-0.259,0.011-0.48-0.186-0.499-0.444v-2.885
				c-0.011-0.259,0.186-0.48,0.444-0.499h3.865c0.259-0.011,0.48,0.186,0.499,0.444V165.979z"/>
			<path fill="#76BC2D" d="M571.988,168.901c0.011,0.259-0.186,0.48-0.444,0.499h-3.865c-0.259,0.011-0.48-0.186-0.499-0.444v-2.867
				c-0.011-0.259,0.186-0.48,0.444-0.499h3.865c0.259-0.011,0.48,0.186,0.499,0.444V168.901z"/>
			<path fill="#76BC2D" d="M565.126,171.861c0.011,0.259-0.186,0.48-0.444,0.499h-3.865c-0.259,0.011-0.48-0.186-0.499-0.444v-2.885
				c-0.011-0.259,0.186-0.48,0.444-0.499h3.865c0.259-0.011,0.48,0.186,0.499,0.444V171.861z"/>
			<path fill="#86D633" d="M558.265,163.057c0.011,0.249-0.177,0.461-0.425,0.481h-3.976c-0.252,0.011-0.47-0.174-0.499-0.425
				v-2.996c0.009-0.245,0.2-0.444,0.444-0.462h3.865c0.407,0,0.592,0.203,0.592,0.499V163.057z"/>
			<path fill="#76BC2D" d="M558.265,168.901c0.021,0.254-0.168,0.478-0.422,0.499c-0.001,0-0.002,0-0.003,0h-3.976
				c-0.265,0.01-0.489-0.196-0.499-0.462c0-0.013,0-0.025,0-0.038v-2.922c-0.001-0.252,0.193-0.461,0.444-0.481h3.865
				c0.407,0,0.592,0.203,0.592,0.481V168.901z"/>
			<path fill="#76BC2D" d="M558.265,174.801c0.021,0.254-0.168,0.478-0.422,0.499c-0.001,0-0.002,0-0.003,0h-3.976
				c-0.259,0.011-0.48-0.186-0.499-0.444v-2.996c-0.01-0.255,0.188-0.47,0.443-0.481c0,0,0,0,0.001,0h3.865
				c0.407,0,0.592,0.185,0.592,0.481V174.801z"/>
			<g>
				<path fill="#999999" d="M547.076,153.2h2.386l0,0v6.658c0,0.296-0.24,0.536-0.536,0.536h-2.367c-0.296,0-0.536-0.24-0.536-0.536
					v-5.548c-0.031-0.581,0.416-1.078,0.997-1.108C547.038,153.2,547.057,153.2,547.076,153.2z"/>
				<path opacity="0.5" fill="#999999" enable-background="new    " d="M547.076,153.2h2.386l0,0v6.658
					c0,0.296-0.24,0.536-0.536,0.536h-2.367c-0.296,0-0.536-0.24-0.536-0.536v-5.548c-0.031-0.581,0.416-1.078,0.997-1.108
					C547.038,153.2,547.057,153.2,547.076,153.2z"/>
			</g>
			<g>
				<path fill="#999999" d="M574.022,153.2h2.386c0.582,0,1.054,0.472,1.054,1.054v5.548c0,0.296-0.24,0.536-0.536,0.536l0,0h-2.386
					c-0.296,0-0.536-0.24-0.536-0.536V153.2H574.022z"/>
				<path opacity="0.5" fill="#999999" enable-background="new    " d="M574.022,153.2h2.386c0.582,0,1.054,0.472,1.054,1.054v5.548
					c0,0.296-0.24,0.536-0.536,0.536l0,0h-2.386c-0.296,0-0.536-0.24-0.536-0.536V153.2H574.022z"/>
			</g>
			<path fill="#949494" d="M577.462,154.254v2.312l0,0h-31.44l0,0v-2.312c0-0.582,0.472-1.054,1.054-1.054h29.35
				C577.001,153.21,577.462,153.679,577.462,154.254z"/>
			<g>
				<path fill="#999999" d="M546.558,174.006h2.386c0.296,0,0.536,0.24,0.536,0.536v6.658l0,0h-2.404
					c-0.582,0-1.054-0.472-1.054-1.054v-5.696C546.067,174.19,546.295,174.002,546.558,174.006z"/>
				<path opacity="0.5" fill="#999999" enable-background="new    " d="M546.558,174.006h2.386c0.296,0,0.536,0.24,0.536,0.536
					v6.658l0,0h-2.404c-0.582,0-1.054-0.472-1.054-1.054v-5.696C546.067,174.19,546.295,174.002,546.558,174.006z"/>
			</g>
			<g>
				<path fill="#999999" d="M574.54,174.006h2.386c0.296,0,0.536,0.24,0.536,0.536l0,0v5.548c0,0.582-0.472,1.054-1.054,1.054
					h-2.386l0,0v-6.695C574.066,174.197,574.283,174.011,574.54,174.006z"/>
				<path opacity="0.5" fill="#999999" enable-background="new    " d="M574.54,174.006h2.386c0.296,0,0.536,0.24,0.536,0.536l0,0
					v5.548c0,0.582-0.472,1.054-1.054,1.054h-2.386l0,0v-6.695C574.066,174.197,574.283,174.011,574.54,174.006z"/>
			</g>
			<path fill="#949494" d="M546.022,180.146v-2.312l0,0h31.44l0,0v2.312c0,0.582-0.472,1.054-1.054,1.054h-29.332
				C546.494,181.2,546.022,180.728,546.022,180.146z"/>
		</g>
	</g>
</g>
<g id="Text">
	<g>
		<rect x="303.6" y="36.499" fill="none" width="69.861" height="38.301"/>
		<path fill="#2F2F2F" d="M328.965,48.4h-2.406l-0.697-2.181h-3.486l-0.69,2.181h-2.393l3.568-9.803h2.618L328.965,48.4z
			 M325.356,44.524l-1.053-3.295c-0.078-0.246-0.132-0.54-0.164-0.882h-0.055c-0.023,0.287-0.08,0.572-0.171,0.854l-1.066,3.322
			H325.356z"/>
		<path fill="#2F2F2F" d="M335.871,48.4h-6.282v-0.896l3.514-4.512h-3.165V41.4h5.906v1.066l-3.329,4.341h3.356V48.4z"/>
		<path fill="#2F2F2F" d="M343.753,48.4H341.6v-1.066h-0.034c-0.533,0.825-1.247,1.237-2.14,1.237c-1.623,0-2.434-0.982-2.434-2.946
			V41.4h2.153v4.033c0,0.989,0.392,1.483,1.176,1.483c0.387,0,0.697-0.136,0.93-0.407s0.349-0.639,0.349-1.104V41.4h2.153V48.4z"/>
		<path fill="#2F2F2F" d="M350.087,43.348c-0.26-0.141-0.563-0.212-0.909-0.212c-0.469,0-0.836,0.172-1.101,0.516
			s-0.396,0.812-0.396,1.405V48.4h-2.16v-7h2.16v1.299h0.027c0.342-0.948,0.957-1.422,1.846-1.422c0.228,0,0.406,0.027,0.533,0.082
			V43.348z"/>
		<path fill="#2F2F2F" d="M357.46,45.515h-4.566c0.073,1.016,0.713,1.524,1.921,1.524c0.77,0,1.447-0.182,2.03-0.547v1.559
			c-0.647,0.346-1.488,0.52-2.522,0.52c-1.13,0-2.007-0.313-2.632-0.94s-0.937-1.5-0.937-2.622c0-1.162,0.337-2.083,1.012-2.762
			s1.504-1.019,2.488-1.019c1.021,0,1.811,0.303,2.369,0.909s0.837,1.429,0.837,2.468V45.515z M355.457,44.189
			c0-1.002-0.406-1.504-1.217-1.504c-0.346,0-0.646,0.144-0.899,0.431s-0.407,0.645-0.461,1.073H355.457z"/>
		<path fill="#2F2F2F" d="M311.405,65.2h-5.879v-9.803h5.653v1.798h-3.445v2.181h3.206v1.791h-3.206v2.242h3.671V65.2z"/>
		<path fill="#2F2F2F" d="M319.31,58.2l-2.604,7h-2.461l-2.481-7h2.311l1.217,4.313c0.137,0.488,0.216,0.902,0.239,1.244h0.027
			c0.032-0.324,0.116-0.725,0.253-1.203l1.244-4.354H319.31z"/>
		<path fill="#2F2F2F" d="M326.298,62.315h-4.566c0.073,1.016,0.713,1.524,1.921,1.524c0.77,0,1.447-0.182,2.03-0.547v1.559
			c-0.647,0.346-1.488,0.52-2.522,0.52c-1.13,0-2.007-0.313-2.632-0.94s-0.937-1.5-0.937-2.622c0-1.162,0.337-2.083,1.012-2.762
			s1.504-1.019,2.488-1.019c1.021,0,1.811,0.303,2.369,0.909s0.837,1.429,0.837,2.468V62.315z M324.295,60.989
			c0-1.002-0.406-1.504-1.217-1.504c-0.346,0-0.646,0.144-0.899,0.431s-0.407,0.645-0.461,1.073H324.295z"/>
		<path fill="#2F2F2F" d="M334.423,65.2h-2.153v-3.89c0-1.084-0.387-1.627-1.162-1.627c-0.374,0-0.681,0.144-0.923,0.431
			s-0.362,0.652-0.362,1.094V65.2h-2.16v-7h2.16v1.107h0.027c0.515-0.852,1.265-1.278,2.249-1.278c1.549,0,2.324,0.961,2.324,2.885
			V65.2z"/>
		<path fill="#2F2F2F" d="M340.273,65.118c-0.319,0.168-0.8,0.253-1.442,0.253c-1.522,0-2.283-0.791-2.283-2.372v-3.206h-1.135V58.2
			h1.135v-1.511l2.153-0.615V58.2h1.572v1.593h-1.572v2.83c0,0.729,0.29,1.094,0.868,1.094c0.228,0,0.462-0.066,0.704-0.198V65.118z
			"/>
		<path fill="#2F2F2F" d="M353.61,64.544c-0.957,0.551-2.146,0.827-3.568,0.827c-1.577,0-2.82-0.437-3.729-1.309
			s-1.364-2.075-1.364-3.606c0-1.541,0.497-2.796,1.49-3.767s2.315-1.456,3.965-1.456c1.039,0,1.955,0.144,2.748,0.431v2.071
			c-0.756-0.438-1.682-0.656-2.775-0.656c-0.916,0-1.662,0.297-2.239,0.892s-0.865,1.389-0.865,2.382
			c0,1.007,0.259,1.787,0.776,2.338s1.216,0.827,2.095,0.827c0.529,0,0.948-0.075,1.258-0.226v-1.914h-1.962v-1.764h4.17V64.544z"/>
		<path fill="#2F2F2F" d="M359.938,60.148c-0.26-0.141-0.563-0.212-0.909-0.212c-0.469,0-0.836,0.172-1.101,0.516
			s-0.396,0.812-0.396,1.405V65.2h-2.16v-7h2.16v1.299h0.027c0.342-0.948,0.957-1.422,1.846-1.422c0.228,0,0.406,0.027,0.533,0.082
			V60.148z"/>
		<path fill="#2F2F2F" d="M362.025,57.092c-0.365,0-0.663-0.108-0.896-0.325s-0.349-0.482-0.349-0.796
			c0-0.324,0.116-0.588,0.349-0.793s0.531-0.308,0.896-0.308c0.369,0,0.669,0.103,0.899,0.308s0.345,0.469,0.345,0.793
			c0,0.328-0.115,0.597-0.345,0.807S362.394,57.092,362.025,57.092z M363.091,65.2h-2.16v-7h2.16V65.2z"/>
		<path fill="#2F2F2F" d="M371.747,65.2h-2.16v-0.964h-0.027c-0.492,0.756-1.214,1.135-2.167,1.135
			c-0.875,0-1.579-0.309-2.112-0.926s-0.8-1.48-0.8-2.587c0-1.158,0.294-2.085,0.882-2.782s1.358-1.046,2.311-1.046
			c0.902,0,1.531,0.324,1.887,0.971h0.027v-4.163h2.16V65.2z M369.627,61.796v-0.526c0-0.456-0.132-0.834-0.396-1.135
			s-0.608-0.451-1.032-0.451c-0.479,0-0.852,0.188-1.121,0.564s-0.403,0.892-0.403,1.548c0,0.615,0.13,1.089,0.39,1.422
			s0.62,0.499,1.08,0.499c0.438,0,0.794-0.175,1.07-0.526S369.627,62.374,369.627,61.796z"/>
	</g>
	<g>
		<rect x="21.62" y="39.6" fill="none" width="99.785" height="38.301"/>
		<path fill="#2F2F2F" d="M44.926,51.502H42.52l-0.697-2.181h-3.486l-0.69,2.181h-2.393l3.568-9.803h2.618L44.926,51.502z
			 M41.316,47.626l-1.053-3.295c-0.078-0.246-0.132-0.54-0.164-0.882h-0.055c-0.023,0.287-0.08,0.572-0.171,0.854l-1.066,3.322
			H41.316z"/>
		<path fill="#2F2F2F" d="M51.832,51.502h-6.282v-0.896l3.514-4.512h-3.165v-1.593h5.906v1.066l-3.329,4.341h3.356V51.502z"/>
		<path fill="#2F2F2F" d="M59.713,51.502H57.56v-1.066h-0.034c-0.533,0.825-1.247,1.237-2.14,1.237
			c-1.623,0-2.434-0.982-2.434-2.946v-4.225h2.153v4.033c0,0.989,0.392,1.483,1.176,1.483c0.387,0,0.697-0.136,0.93-0.407
			s0.349-0.639,0.349-1.104v-4.006h2.153V51.502z"/>
		<path fill="#2F2F2F" d="M66.048,46.45c-0.26-0.141-0.563-0.212-0.909-0.212c-0.469,0-0.836,0.172-1.101,0.516
			s-0.396,0.812-0.396,1.405v3.343h-2.16v-7h2.16V45.8h0.027c0.342-0.948,0.957-1.422,1.846-1.422c0.228,0,0.406,0.027,0.533,0.082
			V46.45z"/>
		<path fill="#2F2F2F" d="M73.42,48.617h-4.566c0.073,1.016,0.713,1.524,1.921,1.524c0.77,0,1.447-0.182,2.03-0.547v1.559
			c-0.647,0.346-1.488,0.52-2.522,0.52c-1.13,0-2.007-0.313-2.632-0.94s-0.937-1.5-0.937-2.622c0-1.162,0.337-2.083,1.012-2.762
			s1.504-1.019,2.488-1.019c1.021,0,1.811,0.303,2.369,0.909s0.837,1.429,0.837,2.468V48.617z M71.417,47.291
			c0-1.002-0.406-1.504-1.217-1.504c-0.346,0-0.646,0.144-0.899,0.431s-0.407,0.645-0.461,1.073H71.417z"/>
		<path fill="#2F2F2F" d="M78.78,51.502v-9.803h3.568c1.094,0,1.935,0.201,2.522,0.602s0.882,0.966,0.882,1.695
			c0,0.529-0.179,0.991-0.537,1.388s-0.814,0.672-1.371,0.827v0.027c0.697,0.086,1.254,0.344,1.671,0.772s0.625,0.95,0.625,1.565
			c0,0.898-0.321,1.61-0.964,2.136s-1.52,0.79-2.632,0.79H78.78z M80.988,43.326v2.324h0.971c0.456,0,0.814-0.11,1.077-0.332
			s0.393-0.525,0.393-0.913c0-0.72-0.538-1.08-1.613-1.08H80.988z M80.988,47.291v2.584h1.196c0.51,0,0.91-0.119,1.2-0.355
			s0.434-0.561,0.434-0.971c0-0.392-0.143-0.7-0.427-0.923s-0.683-0.335-1.193-0.335H80.988z"/>
		<path fill="#2F2F2F" d="M89.725,51.502h-2.16V41.138h2.16V51.502z"/>
		<path fill="#2F2F2F" d="M94.868,51.672c-1.167,0-2.084-0.327-2.751-0.981s-1.001-1.542-1.001-2.663
			c0-1.158,0.346-2.063,1.039-2.717s1.629-0.981,2.81-0.981c1.162,0,2.074,0.327,2.734,0.981s0.991,1.519,0.991,2.594
			c0,1.162-0.341,2.081-1.022,2.755S96.053,51.672,94.868,51.672z M94.922,45.985c-0.51,0-0.907,0.175-1.189,0.526
			s-0.424,0.848-0.424,1.49c0,1.344,0.542,2.017,1.627,2.017c1.035,0,1.552-0.69,1.552-2.071
			C96.488,46.639,95.966,45.985,94.922,45.985z"/>
		<path fill="#2F2F2F" d="M102.257,50.688h-0.027v0.813h-2.16V41.138h2.16v4.416h0.027c0.533-0.816,1.292-1.224,2.276-1.224
			c0.902,0,1.597,0.31,2.085,0.93s0.731,1.467,0.731,2.543c0,1.167-0.285,2.103-0.854,2.81s-1.331,1.06-2.283,1.06
			C103.351,51.672,102.699,51.344,102.257,50.688z M102.195,47.735v0.718c0,0.451,0.13,0.825,0.39,1.121s0.592,0.444,0.998,0.444
			c0.492,0,0.874-0.19,1.145-0.571s0.407-0.919,0.407-1.617c0-0.579-0.124-1.031-0.373-1.357s-0.603-0.489-1.063-0.489
			c-0.433,0-0.792,0.162-1.077,0.485S102.195,47.215,102.195,47.735z"/>
		<path fill="#2F2F2F" d="M46.754,67.925v-2.188c0.396,0.333,0.827,0.582,1.292,0.749s0.934,0.25,1.408,0.25
			c0.278,0,0.521-0.025,0.728-0.075s0.38-0.12,0.52-0.208s0.243-0.194,0.311-0.314s0.103-0.252,0.103-0.393
			c0-0.191-0.055-0.362-0.164-0.513s-0.259-0.29-0.448-0.417s-0.414-0.25-0.673-0.369s-0.54-0.239-0.841-0.362
			c-0.766-0.319-1.336-0.708-1.712-1.169s-0.564-1.016-0.564-1.668c0-0.51,0.103-0.949,0.308-1.316s0.484-0.669,0.837-0.906
			s0.762-0.411,1.227-0.523s0.957-0.167,1.477-0.167c0.51,0,0.963,0.031,1.357,0.092s0.758,0.156,1.09,0.284v2.044
			c-0.164-0.114-0.343-0.214-0.537-0.301s-0.393-0.158-0.598-0.215s-0.409-0.099-0.612-0.126s-0.396-0.041-0.578-0.041
			c-0.25,0-0.479,0.024-0.684,0.072s-0.378,0.115-0.52,0.202s-0.25,0.19-0.328,0.311s-0.116,0.256-0.116,0.407
			c0,0.164,0.043,0.311,0.13,0.441s0.209,0.253,0.369,0.369s0.353,0.23,0.581,0.342s0.485,0.227,0.772,0.345
			c0.392,0.164,0.744,0.338,1.056,0.523s0.58,0.393,0.803,0.625s0.394,0.498,0.513,0.796s0.178,0.646,0.178,1.042
			c0,0.547-0.104,1.006-0.311,1.377s-0.489,0.672-0.844,0.902s-0.769,0.396-1.241,0.496s-0.97,0.15-1.494,0.15
			c-0.538,0-1.049-0.045-1.535-0.137S47.109,68.108,46.754,67.925z"/>
		<path fill="#2F2F2F" d="M58.851,68.219c-0.319,0.168-0.8,0.253-1.442,0.253c-1.522,0-2.283-0.791-2.283-2.372v-3.206h-1.135
			v-1.593h1.135v-1.511l2.153-0.615v2.126h1.572v1.593h-1.572v2.83c0,0.729,0.29,1.094,0.868,1.094c0.228,0,0.462-0.066,0.704-0.198
			V68.219z"/>
		<path fill="#2F2F2F" d="M63.384,68.472c-1.167,0-2.084-0.327-2.751-0.981s-1.001-1.542-1.001-2.663
			c0-1.158,0.346-2.063,1.039-2.717s1.629-0.981,2.81-0.981c1.162,0,2.074,0.327,2.734,0.981s0.991,1.519,0.991,2.594
			c0,1.162-0.341,2.081-1.022,2.755S64.569,68.472,63.384,68.472z M63.439,62.785c-0.51,0-0.907,0.175-1.189,0.526
			s-0.424,0.848-0.424,1.49c0,1.344,0.542,2.017,1.627,2.017c1.035,0,1.552-0.69,1.552-2.071
			C65.004,63.439,64.482,62.785,63.439,62.785z"/>
		<path fill="#2F2F2F" d="M73.154,63.25c-0.26-0.141-0.563-0.212-0.909-0.212c-0.469,0-0.836,0.172-1.101,0.516
			s-0.396,0.812-0.396,1.405v3.343h-2.16v-7h2.16V62.6h0.027c0.342-0.948,0.957-1.422,1.846-1.422c0.228,0,0.406,0.027,0.533,0.082
			V63.25z"/>
		<path fill="#2F2F2F" d="M79.878,68.301h-2.044v-1.005h-0.027c-0.469,0.784-1.165,1.176-2.085,1.176
			c-0.679,0-1.213-0.192-1.603-0.578s-0.584-0.899-0.584-1.542c0-1.358,0.804-2.142,2.413-2.352l1.9-0.253
			c0-0.766-0.415-1.148-1.244-1.148c-0.834,0-1.627,0.249-2.379,0.745v-1.627c0.301-0.155,0.712-0.292,1.234-0.41
			s0.997-0.178,1.425-0.178c1.996,0,2.994,0.996,2.994,2.987V68.301z M77.848,65.458v-0.472l-1.271,0.164
			c-0.702,0.091-1.053,0.408-1.053,0.95c0,0.246,0.085,0.448,0.256,0.605s0.402,0.236,0.694,0.236c0.406,0,0.736-0.14,0.991-0.42
			S77.848,65.886,77.848,65.458z"/>
		<path fill="#2F2F2F" d="M88.473,67.502c0,1.299-0.376,2.305-1.128,3.018s-1.841,1.07-3.268,1.07c-0.943,0-1.691-0.134-2.242-0.403
			v-1.818c0.72,0.419,1.447,0.629,2.181,0.629c0.729,0,1.294-0.192,1.695-0.578s0.602-0.908,0.602-1.569v-0.554h-0.027
			c-0.492,0.784-1.219,1.176-2.181,1.176c-0.893,0-1.602-0.314-2.126-0.943S81.192,66.057,81.192,65
			c0-1.185,0.292-2.126,0.875-2.823s1.351-1.046,2.304-1.046c0.852,0,1.49,0.328,1.914,0.984h0.027v-0.813h2.16V67.502z
			 M86.34,64.938v-0.554c0-0.442-0.131-0.819-0.393-1.131s-0.603-0.468-1.022-0.468c-0.479,0-0.854,0.187-1.128,0.561
			s-0.41,0.9-0.41,1.579c0,0.583,0.13,1.045,0.39,1.384s0.615,0.509,1.066,0.509c0.447,0,0.808-0.172,1.083-0.516
			S86.34,65.503,86.34,64.938z"/>
		<path fill="#2F2F2F" d="M96.566,65.417H92c0.073,1.016,0.713,1.524,1.921,1.524c0.77,0,1.447-0.182,2.03-0.547v1.559
			c-0.647,0.346-1.488,0.52-2.522,0.52c-1.13,0-2.007-0.313-2.632-0.94s-0.937-1.5-0.937-2.622c0-1.162,0.337-2.083,1.012-2.762
			s1.504-1.019,2.488-1.019c1.021,0,1.811,0.303,2.369,0.909s0.837,1.429,0.837,2.468V65.417z M94.563,64.09
			c0-1.002-0.406-1.504-1.217-1.504c-0.346,0-0.646,0.144-0.899,0.431s-0.407,0.645-0.461,1.073H94.563z"/>
	</g>
	<g>
		<path fill="#2F2F2F" d="M138.725,105.6v-9.803h2.789c0.848,0,1.52,0.208,2.017,0.622s0.745,0.955,0.745,1.62
			c0,0.556-0.15,1.039-0.451,1.449s-0.715,0.702-1.244,0.875v0.027c0.661,0.078,1.189,0.327,1.586,0.749s0.595,0.97,0.595,1.644
			c0,0.838-0.301,1.518-0.902,2.037s-1.36,0.779-2.276,0.779H138.725z M139.874,96.837v3.165h1.176c0.629,0,1.124-0.151,1.483-0.455
			s0.54-0.73,0.54-1.282c0-0.953-0.626-1.429-1.88-1.429H139.874z M139.874,101.034v3.527h1.559c0.674,0,1.197-0.16,1.569-0.479
			s0.557-0.756,0.557-1.312c0-1.158-0.789-1.736-2.365-1.736H139.874z"/>
		<path fill="#2F2F2F" d="M147.667,105.6h-1.121V95.237h1.121V105.6z"/>
		<path fill="#2F2F2F" d="M152.785,105.764c-1.035,0-1.86-0.327-2.478-0.981s-0.926-1.521-0.926-2.601
			c0-1.176,0.321-2.094,0.964-2.755s1.511-0.991,2.604-0.991c1.043,0,1.858,0.321,2.444,0.964s0.878,1.534,0.878,2.673
			c0,1.117-0.315,2.011-0.947,2.683S153.847,105.764,152.785,105.764z M152.867,99.379c-0.72,0-1.29,0.245-1.709,0.735
			s-0.629,1.166-0.629,2.027c0,0.83,0.212,1.483,0.636,1.962s0.991,0.718,1.702,0.718c0.725,0,1.282-0.235,1.671-0.704
			s0.584-1.137,0.584-2.003c0-0.875-0.195-1.549-0.584-2.023S153.591,99.379,152.867,99.379z"/>
		<path fill="#2F2F2F" d="M159.134,104.588h-0.027v1.012h-1.121V95.237h1.121v4.594h0.027c0.551-0.93,1.358-1.395,2.42-1.395
			c0.898,0,1.601,0.313,2.109,0.94s0.762,1.466,0.762,2.519c0,1.171-0.285,2.109-0.854,2.813s-1.349,1.056-2.338,1.056
			C160.307,105.764,159.608,105.372,159.134,104.588z M159.106,101.765v0.978c0,0.579,0.188,1.07,0.564,1.473
			s0.854,0.605,1.432,0.605c0.679,0,1.211-0.26,1.596-0.779s0.578-1.242,0.578-2.167c0-0.779-0.18-1.39-0.54-1.832
			s-0.848-0.663-1.463-0.663c-0.652,0-1.176,0.227-1.572,0.68S159.106,101.082,159.106,101.765z"/>
		<path fill="#2F2F2F" d="M174.822,105.279c-0.538,0.324-1.176,0.485-1.914,0.485c-0.998,0-1.804-0.325-2.417-0.974
			s-0.919-1.491-0.919-2.526c0-1.153,0.331-2.079,0.991-2.779s1.542-1.049,2.646-1.049c0.615,0,1.158,0.114,1.627,0.342v1.148
			c-0.52-0.365-1.076-0.547-1.668-0.547c-0.715,0-1.302,0.256-1.76,0.769s-0.687,1.186-0.687,2.02c0,0.82,0.215,1.467,0.646,1.941
			s1.008,0.711,1.733,0.711c0.611,0,1.185-0.203,1.723-0.608V105.279z"/>
		<path fill="#2F2F2F" d="M179.96,99.735c-0.196-0.15-0.479-0.226-0.848-0.226c-0.479,0-0.878,0.226-1.2,0.677
			s-0.482,1.066-0.482,1.846v3.568h-1.121v-7h1.121v1.442h0.027c0.16-0.492,0.403-0.876,0.731-1.152s0.695-0.414,1.101-0.414
			c0.292,0,0.515,0.032,0.67,0.096V99.735z"/>
		<path fill="#2F2F2F" d="M186.803,102.38h-4.942c0.018,0.779,0.228,1.381,0.629,1.805s0.953,0.636,1.654,0.636
			c0.789,0,1.513-0.26,2.174-0.779v1.053c-0.615,0.447-1.429,0.67-2.44,0.67c-0.989,0-1.766-0.318-2.331-0.954
			s-0.848-1.53-0.848-2.683c0-1.089,0.309-1.977,0.926-2.663s1.384-1.029,2.3-1.029s1.625,0.296,2.126,0.889
			s0.752,1.415,0.752,2.468V102.38z M185.655,101.43c-0.004-0.647-0.161-1.151-0.468-1.511s-0.735-0.54-1.282-0.54
			c-0.529,0-0.978,0.189-1.347,0.567s-0.597,0.873-0.684,1.483H185.655z"/>
		<path fill="#2F2F2F" d="M193.442,105.6h-1.121v-1.094h-0.027c-0.488,0.838-1.206,1.258-2.153,1.258
			c-0.697,0-1.243-0.185-1.637-0.554s-0.591-0.859-0.591-1.47c0-1.308,0.77-2.069,2.311-2.283l2.099-0.294
			c0-1.189-0.481-1.784-1.442-1.784c-0.843,0-1.604,0.287-2.283,0.861v-1.148c0.688-0.438,1.481-0.656,2.379-0.656
			c1.645,0,2.468,0.871,2.468,2.611V105.6z M192.321,102.059l-1.688,0.232c-0.52,0.073-0.912,0.202-1.176,0.386
			s-0.396,0.512-0.396,0.981c0,0.342,0.122,0.621,0.366,0.837s0.568,0.325,0.974,0.325c0.556,0,1.015-0.195,1.377-0.584
			s0.543-0.883,0.543-1.48V102.059z"/>
		<path fill="#2F2F2F" d="M198.701,105.532c-0.264,0.146-0.613,0.219-1.046,0.219c-1.226,0-1.839-0.684-1.839-2.051v-4.143h-1.203
			V98.6h1.203v-1.709l1.121-0.362V98.6h1.764v0.957h-1.764v3.944c0,0.469,0.08,0.804,0.239,1.005s0.424,0.301,0.793,0.301
			c0.283,0,0.526-0.078,0.731-0.232V105.532z"/>
		<path fill="#2F2F2F" d="M205.694,102.38h-4.942c0.018,0.779,0.228,1.381,0.629,1.805s0.953,0.636,1.654,0.636
			c0.789,0,1.513-0.26,2.174-0.779v1.053c-0.615,0.447-1.429,0.67-2.44,0.67c-0.989,0-1.766-0.318-2.331-0.954
			s-0.848-1.53-0.848-2.683c0-1.089,0.309-1.977,0.926-2.663s1.384-1.029,2.3-1.029s1.625,0.296,2.126,0.889
			s0.752,1.415,0.752,2.468V102.38z M204.545,101.43c-0.004-0.647-0.161-1.151-0.468-1.511s-0.735-0.54-1.282-0.54
			c-0.529,0-0.978,0.189-1.347,0.567s-0.597,0.873-0.684,1.483H204.545z"/>
		<path fill="#2F2F2F" d="M213.425,105.6h-1.121v-1.189h-0.027c-0.52,0.902-1.322,1.354-2.406,1.354
			c-0.879,0-1.583-0.313-2.109-0.94s-0.79-1.48-0.79-2.56c0-1.158,0.292-2.085,0.875-2.782s1.36-1.046,2.331-1.046
			c0.961,0,1.661,0.378,2.099,1.135h0.027v-4.334h1.121V105.6z M212.304,102.435v-1.032c0-0.565-0.187-1.043-0.561-1.436
			s-0.848-0.588-1.422-0.588c-0.684,0-1.221,0.25-1.613,0.752s-0.588,1.194-0.588,2.078c0,0.807,0.188,1.443,0.564,1.911
			s0.881,0.701,1.514,0.701c0.625,0,1.131-0.226,1.521-0.677S212.304,103.123,212.304,102.435z"/>
	</g>
	<g>
		<path fill="#737474" d="M266.274,116.84h-0.984v-3.832h-4.348v3.832h-0.984v-8.402h0.984v3.686h4.348v-3.686h0.984V116.84z"/>
		<path fill="#737474" d="M273.32,109.328h-2.426v7.512h-0.984v-7.512h-2.42v-0.891h5.83V109.328z"/>
		<path fill="#737474" d="M279.919,109.328h-2.426v7.512h-0.984v-7.512h-2.42v-0.891h5.83V109.328z"/>
		<path fill="#737474" d="M282.108,113.664v3.176h-0.984v-8.402h2.309c0.898,0,1.595,0.219,2.089,0.656s0.741,1.055,0.741,1.852
			s-0.274,1.449-0.823,1.957s-1.29,0.762-2.224,0.762H282.108z M282.108,109.328v3.445h1.031c0.68,0,1.198-0.155,1.556-0.466
			s0.536-0.749,0.536-1.315c0-1.109-0.656-1.664-1.969-1.664H282.108z"/>
	</g>
	<g>
		<path fill="#737474" d="M411.475,116.84h-0.984v-3.832h-4.348v3.832h-0.984v-8.402h0.984v3.686h4.348v-3.686h0.984V116.84z"/>
		<path fill="#737474" d="M418.521,109.328h-2.426v7.512h-0.984v-7.512h-2.42v-0.891h5.83V109.328z"/>
		<path fill="#737474" d="M425.12,109.328h-2.426v7.512h-0.984v-7.512h-2.42v-0.891h5.83V109.328z"/>
		<path fill="#737474" d="M427.308,113.664v3.176h-0.984v-8.402h2.309c0.898,0,1.595,0.219,2.089,0.656s0.741,1.055,0.741,1.852
			s-0.274,1.449-0.823,1.957s-1.29,0.762-2.224,0.762H427.308z M427.308,109.328v3.445h1.031c0.68,0,1.198-0.155,1.556-0.466
			s0.536-0.749,0.536-1.315c0-1.109-0.656-1.664-1.969-1.664H427.308z"/>
	</g>
	<g>
		<path fill="#2F2F2F" d="M593.041,33.288h-3.828v3.391h3.541v1.032h-3.541v4.341h-1.148v-9.803h4.977V33.288z"/>
		<path fill="#2F2F2F" d="M600.116,42.052h-1.121v-1.107h-0.027c-0.465,0.848-1.185,1.271-2.16,1.271
			c-1.668,0-2.502-0.994-2.502-2.98v-4.184h1.114v4.006c0,1.477,0.565,2.215,1.695,2.215c0.547,0,0.997-0.202,1.35-0.605
			s0.53-0.931,0.53-1.583v-4.033h1.121V42.052z"/>
		<path fill="#2F2F2F" d="M608.034,42.052h-1.121V38.06c0-1.486-0.542-2.229-1.627-2.229c-0.561,0-1.024,0.211-1.391,0.632
			s-0.55,0.954-0.55,1.596v3.992h-1.121v-7h1.121v1.162h0.027c0.529-0.884,1.294-1.326,2.297-1.326c0.766,0,1.351,0.247,1.757,0.742
			s0.608,1.209,0.608,2.143V42.052z"/>
		<path fill="#2F2F2F" d="M614.882,41.731c-0.538,0.324-1.176,0.485-1.914,0.485c-0.998,0-1.804-0.325-2.417-0.974
			s-0.919-1.491-0.919-2.526c0-1.153,0.331-2.079,0.991-2.779s1.542-1.049,2.646-1.049c0.615,0,1.158,0.114,1.627,0.342v1.148
			c-0.52-0.365-1.076-0.547-1.668-0.547c-0.715,0-1.302,0.256-1.76,0.769s-0.687,1.186-0.687,2.02c0,0.82,0.215,1.467,0.646,1.941
			s1.008,0.711,1.733,0.711c0.611,0,1.185-0.203,1.723-0.608V41.731z"/>
		<path fill="#2F2F2F" d="M620.046,41.983c-0.264,0.146-0.613,0.219-1.046,0.219c-1.226,0-1.839-0.684-1.839-2.051v-4.143h-1.203
			v-0.957h1.203v-1.709l1.121-0.362v2.071h1.764v0.957h-1.764v3.944c0,0.469,0.08,0.804,0.239,1.005s0.424,0.301,0.793,0.301
			c0.283,0,0.526-0.078,0.731-0.232V41.983z"/>
		<path fill="#2F2F2F" d="M622.001,33.275c-0.201,0-0.372-0.068-0.513-0.205s-0.212-0.31-0.212-0.52s0.071-0.384,0.212-0.523
			c0.141-0.139,0.312-0.208,0.513-0.208c0.205,0,0.379,0.069,0.523,0.208c0.144,0.139,0.215,0.313,0.215,0.523
			c0,0.201-0.072,0.372-0.215,0.513S622.206,33.275,622.001,33.275z M622.548,42.052h-1.121v-7h1.121V42.052z"/>
		<path fill="#2F2F2F" d="M627.643,42.216c-1.035,0-1.86-0.327-2.478-0.981s-0.926-1.521-0.926-2.601
			c0-1.176,0.321-2.094,0.964-2.755s1.511-0.991,2.604-0.991c1.043,0,1.858,0.321,2.444,0.964s0.878,1.534,0.878,2.673
			c0,1.117-0.315,2.011-0.947,2.683S628.705,42.216,627.643,42.216z M627.725,35.831c-0.72,0-1.29,0.245-1.709,0.735
			s-0.629,1.166-0.629,2.027c0,0.83,0.212,1.483,0.636,1.962s0.991,0.718,1.702,0.718c0.725,0,1.282-0.235,1.671-0.704
			s0.584-1.137,0.584-2.003c0-0.875-0.195-1.549-0.584-2.023S628.449,35.831,627.725,35.831z"/>
		<path fill="#2F2F2F" d="M638.655,42.052h-1.121V38.06c0-1.486-0.542-2.229-1.627-2.229c-0.561,0-1.024,0.211-1.391,0.632
			s-0.55,0.954-0.55,1.596v3.992h-1.121v-7h1.121v1.162h0.027c0.529-0.884,1.294-1.326,2.297-1.326c0.766,0,1.351,0.247,1.757,0.742
			s0.608,1.209,0.608,2.143V42.052z"/>
		<path fill="#2F2F2F" d="M652.34,42.052h-1.271l-1.039-2.748h-4.156l-0.978,2.748h-1.278l3.76-9.803h1.189L652.34,42.052z
			 M649.654,38.272l-1.538-4.177c-0.05-0.137-0.1-0.355-0.15-0.656h-0.027c-0.045,0.278-0.098,0.497-0.157,0.656l-1.524,4.177
			H649.654z"/>
		<path fill="#2F2F2F" d="M654.761,41.04h-0.027v4.231h-1.121v-10.22h1.121v1.23h0.027c0.551-0.93,1.358-1.395,2.42-1.395
			c0.902,0,1.606,0.313,2.112,0.94s0.759,1.466,0.759,2.519c0,1.171-0.285,2.109-0.854,2.813s-1.349,1.056-2.338,1.056
			C655.953,42.216,655.253,41.824,654.761,41.04z M654.734,38.217v0.978c0,0.579,0.188,1.07,0.564,1.473s0.854,0.605,1.432,0.605
			c0.679,0,1.211-0.26,1.596-0.779s0.578-1.242,0.578-2.167c0-0.779-0.18-1.39-0.54-1.832s-0.848-0.663-1.463-0.663
			c-0.652,0-1.176,0.227-1.572,0.68S654.734,37.533,654.734,38.217z"/>
		<path fill="#2F2F2F" d="M662.917,41.04h-0.027v4.231h-1.121v-10.22h1.121v1.23h0.027c0.551-0.93,1.358-1.395,2.42-1.395
			c0.902,0,1.606,0.313,2.112,0.94s0.759,1.466,0.759,2.519c0,1.171-0.285,2.109-0.854,2.813s-1.349,1.056-2.338,1.056
			C664.109,42.216,663.41,41.824,662.917,41.04z M662.89,38.217v0.978c0,0.579,0.188,1.07,0.564,1.473s0.854,0.605,1.432,0.605
			c0.679,0,1.211-0.26,1.596-0.779s0.578-1.242,0.578-2.167c0-0.779-0.18-1.39-0.54-1.832s-0.848-0.663-1.463-0.663
			c-0.652,0-1.176,0.227-1.572,0.68S662.89,37.533,662.89,38.217z"/>
		<path fill="#2F2F2F" d="M669.487,41.799v-1.203c0.611,0.451,1.283,0.677,2.017,0.677c0.984,0,1.477-0.328,1.477-0.984
			c0-0.187-0.042-0.345-0.126-0.475s-0.198-0.245-0.342-0.345s-0.312-0.19-0.506-0.27s-0.402-0.163-0.625-0.25
			c-0.31-0.123-0.582-0.247-0.817-0.373s-0.431-0.267-0.588-0.424s-0.276-0.336-0.355-0.537s-0.12-0.435-0.12-0.704
			c0-0.328,0.075-0.619,0.226-0.872s0.351-0.465,0.602-0.636s0.537-0.3,0.858-0.386s0.653-0.13,0.995-0.13
			c0.606,0,1.148,0.105,1.627,0.314v1.135c-0.515-0.337-1.107-0.506-1.777-0.506c-0.209,0-0.399,0.024-0.567,0.072
			s-0.313,0.115-0.434,0.202s-0.214,0.19-0.28,0.311s-0.099,0.254-0.099,0.4c0,0.182,0.033,0.335,0.099,0.458
			s0.163,0.232,0.291,0.328s0.283,0.182,0.465,0.26s0.39,0.162,0.622,0.253c0.31,0.119,0.588,0.24,0.834,0.366
			s0.456,0.267,0.629,0.424s0.307,0.338,0.4,0.543s0.14,0.449,0.14,0.731c0,0.346-0.076,0.647-0.229,0.902s-0.356,0.467-0.612,0.636
			s-0.549,0.294-0.882,0.376s-0.681,0.123-1.046,0.123C670.64,42.216,670.016,42.077,669.487,41.799z"/>
	</g>
	<g>
		<path fill="#2F2F2F" d="M595.652,172.16h-1.271l-1.039-2.748h-4.156l-0.978,2.748h-1.278l3.76-9.803h1.189L595.652,172.16z
			 M592.965,168.38l-1.538-4.177c-0.05-0.137-0.1-0.355-0.15-0.656h-0.027c-0.045,0.278-0.098,0.497-0.157,0.656l-1.524,4.177
			H592.965z"/>
		<path fill="#2F2F2F" d="M602.263,165.482l-4.143,5.722h4.102v0.957h-5.749v-0.349l4.143-5.694h-3.753v-0.957h5.4V165.482z"/>
		<path fill="#2F2F2F" d="M609.36,172.16h-1.121v-1.107h-0.027c-0.465,0.848-1.185,1.271-2.16,1.271
			c-1.668,0-2.502-0.994-2.502-2.98v-4.184h1.114v4.006c0,1.477,0.565,2.215,1.695,2.215c0.547,0,0.997-0.202,1.35-0.605
			s0.53-0.931,0.53-1.583v-4.033h1.121V172.16z"/>
		<path fill="#2F2F2F" d="M615.117,166.295c-0.196-0.15-0.479-0.226-0.848-0.226c-0.479,0-0.878,0.226-1.2,0.677
			s-0.482,1.066-0.482,1.846v3.568h-1.121v-7h1.121v1.442h0.027c0.16-0.492,0.403-0.876,0.731-1.152s0.695-0.414,1.101-0.414
			c0.292,0,0.515,0.032,0.67,0.096V166.295z"/>
		<path fill="#2F2F2F" d="M621.96,168.941h-4.942c0.018,0.779,0.228,1.381,0.629,1.805s0.953,0.636,1.654,0.636
			c0.789,0,1.513-0.26,2.174-0.779v1.053c-0.615,0.447-1.429,0.67-2.44,0.67c-0.989,0-1.766-0.318-2.331-0.954
			s-0.848-1.53-0.848-2.683c0-1.089,0.309-1.977,0.926-2.663s1.384-1.029,2.3-1.029s1.625,0.296,2.126,0.889
			s0.752,1.415,0.752,2.468V168.941z M620.812,167.99c-0.004-0.647-0.161-1.151-0.468-1.511s-0.735-0.54-1.282-0.54
			c-0.529,0-0.978,0.189-1.347,0.567s-0.597,0.873-0.684,1.483H620.812z"/>
		<path fill="#2F2F2F" d="M632.836,172.16h-5.195v-9.803h4.977v1.039h-3.828v3.261h3.541v1.032h-3.541v3.432h4.047V172.16z"/>
		<path fill="#2F2F2F" d="M639.868,165.16l-2.789,7h-1.101l-2.652-7h1.23l1.777,5.086c0.132,0.374,0.214,0.7,0.246,0.978h0.027
			c0.045-0.351,0.119-0.667,0.219-0.95l1.859-5.113H639.868z"/>
		<path fill="#2F2F2F" d="M646.51,168.941h-4.942c0.018,0.779,0.228,1.381,0.629,1.805s0.953,0.636,1.654,0.636
			c0.789,0,1.513-0.26,2.174-0.779v1.053c-0.615,0.447-1.429,0.67-2.44,0.67c-0.989,0-1.766-0.318-2.331-0.954
			s-0.848-1.53-0.848-2.683c0-1.089,0.309-1.977,0.926-2.663s1.384-1.029,2.3-1.029s1.625,0.296,2.126,0.889
			s0.752,1.415,0.752,2.468V168.941z M645.361,167.99c-0.004-0.647-0.161-1.151-0.468-1.511s-0.735-0.54-1.282-0.54
			c-0.529,0-0.978,0.189-1.347,0.567s-0.597,0.873-0.684,1.483H645.361z"/>
		<path fill="#2F2F2F" d="M654.003,172.16h-1.121v-3.992c0-1.486-0.542-2.229-1.627-2.229c-0.561,0-1.024,0.211-1.391,0.632
			s-0.55,0.954-0.55,1.596v3.992h-1.121v-7h1.121v1.162h0.027c0.529-0.884,1.294-1.326,2.297-1.326c0.766,0,1.351,0.247,1.757,0.742
			s0.608,1.209,0.608,2.143V172.16z"/>
		<path fill="#2F2F2F" d="M659.232,172.092c-0.264,0.146-0.613,0.219-1.046,0.219c-1.226,0-1.839-0.684-1.839-2.051v-4.143h-1.203
			v-0.957h1.203v-1.709l1.121-0.362v2.071h1.764v0.957h-1.764v3.944c0,0.469,0.08,0.804,0.239,1.005s0.424,0.301,0.793,0.301
			c0.283,0,0.526-0.078,0.731-0.232V172.092z"/>
		<path fill="#2F2F2F" d="M672.083,172.16h-1.148v-4.471h-5.072v4.471h-1.148v-9.803h1.148v4.3h5.072v-4.3h1.148V172.16z"/>
		<path fill="#2F2F2F" d="M680.068,172.16h-1.121v-1.107h-0.027c-0.465,0.848-1.185,1.271-2.16,1.271
			c-1.668,0-2.502-0.994-2.502-2.98v-4.184h1.114v4.006c0,1.477,0.565,2.215,1.695,2.215c0.547,0,0.997-0.202,1.35-0.605
			s0.53-0.931,0.53-1.583v-4.033h1.121V172.16z"/>
		<path fill="#2F2F2F" d="M683.324,171.149h-0.027v1.012h-1.121v-10.363h1.121v4.594h0.027c0.551-0.93,1.358-1.395,2.42-1.395
			c0.898,0,1.601,0.313,2.109,0.94s0.762,1.466,0.762,2.519c0,1.171-0.285,2.109-0.854,2.813s-1.349,1.056-2.338,1.056
			C684.498,172.324,683.798,171.932,683.324,171.149z M683.297,168.325v0.978c0,0.579,0.188,1.07,0.564,1.473
			s0.854,0.605,1.432,0.605c0.679,0,1.211-0.26,1.596-0.779s0.578-1.242,0.578-2.167c0-0.779-0.18-1.39-0.54-1.832
			s-0.848-0.663-1.463-0.663c-0.652,0-1.176,0.227-1.572,0.68S683.297,167.642,683.297,168.325z"/>
		<path fill="#2F2F2F" d="M689.895,171.907v-1.203c0.611,0.451,1.283,0.677,2.017,0.677c0.984,0,1.477-0.328,1.477-0.984
			c0-0.187-0.042-0.345-0.126-0.475s-0.198-0.245-0.342-0.345s-0.312-0.19-0.506-0.27s-0.402-0.163-0.625-0.25
			c-0.31-0.123-0.582-0.247-0.817-0.373s-0.431-0.267-0.588-0.424s-0.276-0.336-0.355-0.537s-0.12-0.435-0.12-0.704
			c0-0.328,0.075-0.619,0.226-0.872s0.351-0.465,0.602-0.636s0.537-0.3,0.858-0.386s0.653-0.13,0.995-0.13
			c0.606,0,1.148,0.105,1.627,0.314v1.135c-0.515-0.337-1.107-0.506-1.777-0.506c-0.209,0-0.399,0.024-0.567,0.072
			s-0.313,0.115-0.434,0.202s-0.214,0.19-0.28,0.311s-0.099,0.254-0.099,0.4c0,0.182,0.033,0.335,0.099,0.458
			s0.163,0.232,0.291,0.328s0.283,0.182,0.465,0.26s0.39,0.162,0.622,0.253c0.31,0.119,0.588,0.24,0.834,0.366
			s0.456,0.267,0.629,0.424s0.307,0.338,0.4,0.543s0.14,0.449,0.14,0.731c0,0.346-0.076,0.647-0.229,0.902s-0.356,0.467-0.612,0.636
			s-0.549,0.294-0.882,0.376s-0.681,0.123-1.046,0.123C691.047,172.324,690.423,172.185,689.895,171.907z"/>
	</g>
	<g>
		<g>
			<path fill="#737474" d="M482.444,118.822l-2.373,8.402h-1.154l-1.729-6.141c-0.074-0.262-0.119-0.547-0.135-0.855h-0.023
				c-0.023,0.289-0.074,0.57-0.152,0.844l-1.74,6.152h-1.143l-2.461-8.402h1.084l1.787,6.445c0.074,0.27,0.121,0.551,0.141,0.844
				h0.029c0.02-0.207,0.08-0.488,0.182-0.844l1.857-6.445h0.943l1.781,6.492c0.062,0.223,0.109,0.484,0.141,0.785h0.023
				c0.016-0.203,0.068-0.473,0.158-0.809l1.717-6.469H482.444z"/>
			<path fill="#737474" d="M488.033,124.465h-4.236c0.016,0.668,0.195,1.184,0.539,1.547s0.816,0.545,1.418,0.545
				c0.676,0,1.297-0.223,1.863-0.668v0.902c-0.527,0.383-1.225,0.574-2.092,0.574c-0.848,0-1.514-0.272-1.998-0.817
				s-0.727-1.312-0.727-2.3c0-0.934,0.265-1.694,0.794-2.282s1.187-0.882,1.972-0.882s1.393,0.254,1.822,0.762
				s0.645,1.213,0.645,2.115V124.465z M487.048,123.65c-0.004-0.555-0.138-0.986-0.401-1.295s-0.63-0.463-1.099-0.463
				c-0.453,0-0.838,0.162-1.154,0.486s-0.512,0.748-0.586,1.271H487.048z"/>
			<path fill="#737474" d="M490.47,126.358h-0.023v0.867h-0.961v-8.883h0.961v3.938h0.023c0.473-0.797,1.164-1.195,2.074-1.195
				c0.77,0,1.372,0.269,1.808,0.806s0.653,1.257,0.653,2.159c0,1.004-0.244,1.808-0.732,2.411s-1.156,0.905-2.004,0.905
				C491.476,127.365,490.876,127.029,490.47,126.358z M490.447,123.938v0.838c0,0.496,0.161,0.917,0.483,1.263
				s0.731,0.519,1.228,0.519c0.582,0,1.038-0.223,1.368-0.668s0.495-1.064,0.495-1.857c0-0.668-0.154-1.191-0.463-1.57
				s-0.727-0.568-1.254-0.568c-0.559,0-1.008,0.194-1.348,0.583S490.447,123.352,490.447,123.938z"/>
			<path fill="#737474" d="M501.467,127.225h-0.961v-3.457c0-1.25-0.465-1.875-1.395-1.875c-0.469,0-0.863,0.181-1.184,0.542
				s-0.48,0.825-0.48,1.392v3.398h-0.961v-8.883h0.961v3.879h0.023c0.461-0.758,1.117-1.137,1.969-1.137
				c1.352,0,2.027,0.814,2.027,2.443V127.225z"/>
			<path fill="#737474" d="M505.765,127.365c-0.887,0-1.595-0.28-2.124-0.841s-0.794-1.304-0.794-2.229
				c0-1.008,0.275-1.795,0.826-2.361s1.295-0.85,2.232-0.85c0.895,0,1.593,0.275,2.095,0.826s0.753,1.314,0.753,2.291
				c0,0.957-0.271,1.724-0.812,2.3S506.675,127.365,505.765,127.365z M505.835,121.893c-0.617,0-1.105,0.21-1.465,0.63
				s-0.539,0.999-0.539,1.737c0,0.711,0.182,1.271,0.545,1.682s0.85,0.615,1.459,0.615c0.621,0,1.099-0.201,1.433-0.604
				s0.501-0.975,0.501-1.717c0-0.75-0.167-1.328-0.501-1.734S506.457,121.893,505.835,121.893z"/>
			<path fill="#737474" d="M512.796,127.365c-0.887,0-1.595-0.28-2.124-0.841s-0.794-1.304-0.794-2.229
				c0-1.008,0.275-1.795,0.826-2.361s1.295-0.85,2.232-0.85c0.895,0,1.593,0.275,2.095,0.826s0.753,1.314,0.753,2.291
				c0,0.957-0.271,1.724-0.812,2.3S513.707,127.365,512.796,127.365z M512.867,121.893c-0.617,0-1.105,0.21-1.465,0.63
				s-0.539,0.999-0.539,1.737c0,0.711,0.182,1.271,0.545,1.682s0.85,0.615,1.459,0.615c0.621,0,1.099-0.201,1.433-0.604
				s0.501-0.975,0.501-1.717c0-0.75-0.167-1.328-0.501-1.734S513.488,121.893,512.867,121.893z"/>
			<path fill="#737474" d="M522.247,127.225h-1.348l-2.648-2.883h-0.023v2.883h-0.961v-8.883h0.961v5.631h0.023l2.52-2.748h1.26
				l-2.783,2.895L522.247,127.225z"/>
		</g>
	</g>
	<g>
		<rect x="586.779" y="85.586" fill="none" width="99.621" height="36.121"/>
		<path fill="#2F2F2F" d="M595.652,97.487h-1.271l-1.039-2.748h-4.156l-0.978,2.748h-1.278l3.76-9.803h1.189L595.652,97.487z
			 M592.966,93.707l-1.538-4.177c-0.05-0.137-0.1-0.355-0.15-0.656h-0.027c-0.045,0.278-0.098,0.497-0.157,0.656l-1.524,4.177
			H592.966z"/>
		<path fill="#2F2F2F" d="M598.146,93.782v3.705h-1.148v-9.803h2.693c1.048,0,1.86,0.255,2.437,0.766s0.865,1.23,0.865,2.16
			s-0.32,1.691-0.96,2.283s-1.505,0.889-2.594,0.889H598.146z M598.146,88.723v4.02h1.203c0.793,0,1.398-0.181,1.815-0.543
			s0.625-0.874,0.625-1.535c0-1.294-0.766-1.941-2.297-1.941H598.146z"/>
		<path fill="#2F2F2F" d="M605.695,97.487h-1.148v-9.803h1.148V97.487z"/>
		<path fill="#2F2F2F" d="M617.931,97.487h-1.121v-1.189h-0.027c-0.52,0.902-1.322,1.354-2.406,1.354
			c-0.879,0-1.583-0.313-2.109-0.94s-0.79-1.48-0.79-2.56c0-1.158,0.292-2.085,0.875-2.782s1.36-1.046,2.331-1.046
			c0.961,0,1.661,0.378,2.099,1.135h0.027v-4.334h1.121V97.487z M616.81,94.322V93.29c0-0.565-0.187-1.043-0.561-1.436
			s-0.848-0.588-1.422-0.588c-0.684,0-1.221,0.25-1.613,0.752s-0.588,1.194-0.588,2.078c0,0.807,0.188,1.443,0.564,1.911
			s0.881,0.701,1.514,0.701c0.625,0,1.131-0.226,1.521-0.677S616.81,95.01,616.81,94.322z"/>
		<path fill="#2F2F2F" d="M625.752,94.267h-4.942c0.018,0.779,0.228,1.381,0.629,1.805s0.953,0.636,1.654,0.636
			c0.789,0,1.513-0.26,2.174-0.779v1.053c-0.615,0.447-1.429,0.67-2.44,0.67c-0.989,0-1.766-0.318-2.331-0.954
			s-0.848-1.53-0.848-2.683c0-1.089,0.309-1.977,0.926-2.663s1.384-1.029,2.3-1.029s1.625,0.296,2.126,0.889
			s0.752,1.415,0.752,2.468V94.267z M624.604,93.317c-0.004-0.647-0.161-1.151-0.468-1.511s-0.735-0.54-1.282-0.54
			c-0.529,0-0.978,0.189-1.347,0.567s-0.597,0.873-0.684,1.483H624.604z"/>
		<path fill="#2F2F2F" d="M628.583,96.475h-0.027v4.231h-1.121v-10.22h1.121v1.23h0.027c0.551-0.93,1.358-1.395,2.42-1.395
			c0.902,0,1.606,0.313,2.112,0.94s0.759,1.466,0.759,2.519c0,1.171-0.285,2.109-0.854,2.813s-1.349,1.056-2.338,1.056
			C629.775,97.651,629.076,97.259,628.583,96.475z M628.556,93.652v0.978c0,0.579,0.188,1.07,0.564,1.473s0.854,0.605,1.432,0.605
			c0.679,0,1.211-0.26,1.596-0.779s0.578-1.242,0.578-2.167c0-0.779-0.18-1.39-0.54-1.832s-0.848-0.663-1.463-0.663
			c-0.652,0-1.176,0.227-1.572,0.68S628.556,92.968,628.556,93.652z"/>
		<path fill="#2F2F2F" d="M636.725,97.487h-1.121V87.124h1.121V97.487z"/>
		<path fill="#2F2F2F" d="M641.843,97.651c-1.035,0-1.86-0.327-2.478-0.981s-0.926-1.521-0.926-2.601
			c0-1.176,0.321-2.094,0.964-2.755s1.511-0.991,2.604-0.991c1.043,0,1.858,0.321,2.444,0.964s0.878,1.534,0.878,2.673
			c0,1.117-0.315,2.011-0.947,2.683S642.905,97.651,641.843,97.651z M641.925,91.266c-0.72,0-1.29,0.245-1.709,0.735
			s-0.629,1.166-0.629,2.027c0,0.83,0.212,1.483,0.636,1.962s0.991,0.718,1.702,0.718c0.725,0,1.282-0.235,1.671-0.704
			s0.584-1.137,0.584-2.003c0-0.875-0.195-1.549-0.584-2.023S642.65,91.266,641.925,91.266z"/>
		<path fill="#2F2F2F" d="M652.527,90.487l-3.22,8.121c-0.574,1.449-1.381,2.174-2.42,2.174c-0.292,0-0.536-0.03-0.731-0.089v-1.005
			c0.242,0.082,0.462,0.123,0.663,0.123c0.565,0,0.989-0.337,1.271-1.012l0.561-1.326l-2.734-6.986h1.244l1.894,5.387
			c0.023,0.068,0.071,0.246,0.144,0.533h0.041c0.023-0.109,0.068-0.283,0.137-0.52l1.989-5.4H652.527z"/>
		<path fill="#2F2F2F" d="M659.17,94.267h-4.942c0.018,0.779,0.228,1.381,0.629,1.805s0.953,0.636,1.654,0.636
			c0.789,0,1.513-0.26,2.174-0.779v1.053c-0.615,0.447-1.429,0.67-2.44,0.67c-0.989,0-1.766-0.318-2.331-0.954
			s-0.848-1.53-0.848-2.683c0-1.089,0.309-1.977,0.926-2.663s1.384-1.029,2.3-1.029s1.625,0.296,2.126,0.889
			s0.752,1.415,0.752,2.468V94.267z M658.021,93.317c-0.004-0.647-0.161-1.151-0.468-1.511s-0.735-0.54-1.282-0.54
			c-0.529,0-0.978,0.189-1.347,0.567s-0.597,0.873-0.684,1.483H658.021z"/>
		<path fill="#2F2F2F" d="M666.901,97.487h-1.121v-1.189h-0.027c-0.52,0.902-1.322,1.354-2.406,1.354
			c-0.879,0-1.583-0.313-2.109-0.94s-0.79-1.48-0.79-2.56c0-1.158,0.292-2.085,0.875-2.782s1.36-1.046,2.331-1.046
			c0.961,0,1.661,0.378,2.099,1.135h0.027v-4.334h1.121V97.487z M665.78,94.322V93.29c0-0.565-0.187-1.043-0.561-1.436
			s-0.848-0.588-1.422-0.588c-0.684,0-1.221,0.25-1.613,0.752s-0.588,1.194-0.588,2.078c0,0.807,0.188,1.443,0.564,1.911
			s0.881,0.701,1.514,0.701c0.625,0,1.131-0.226,1.521-0.677S665.78,95.01,665.78,94.322z"/>
		<path fill="#2F2F2F" d="M590.84,114.451c-1.035,0-1.86-0.327-2.478-0.981s-0.926-1.521-0.926-2.601
			c0-1.176,0.321-2.094,0.964-2.755s1.511-0.991,2.604-0.991c1.043,0,1.858,0.321,2.444,0.964s0.878,1.534,0.878,2.673
			c0,1.117-0.315,2.011-0.947,2.683S591.902,114.451,590.84,114.451z M590.922,108.066c-0.72,0-1.29,0.245-1.709,0.735
			s-0.629,1.166-0.629,2.027c0,0.83,0.212,1.483,0.636,1.962s0.991,0.718,1.702,0.718c0.725,0,1.282-0.235,1.671-0.704
			s0.584-1.137,0.584-2.003c0-0.875-0.195-1.549-0.584-2.023S591.646,108.066,590.922,108.066z"/>
		<path fill="#2F2F2F" d="M601.852,114.287h-1.121v-3.992c0-1.486-0.542-2.229-1.627-2.229c-0.561,0-1.024,0.211-1.391,0.632
			s-0.55,0.954-0.55,1.596v3.992h-1.121v-7h1.121v1.162h0.027c0.529-0.884,1.294-1.326,2.297-1.326c0.766,0,1.351,0.247,1.757,0.742
			s0.608,1.209,0.608,2.143V114.287z"/>
		<path fill="#2F2F2F" d="M614.772,114.287h-1.6l-3.787-4.484c-0.141-0.168-0.228-0.283-0.26-0.342h-0.027v4.826h-1.148v-9.803
			h1.148v4.607h0.027c0.064-0.1,0.15-0.212,0.26-0.335l3.664-4.272h1.429l-4.204,4.703L614.772,114.287z"/>
		<path fill="#2F2F2F" d="M621.267,114.287h-1.121v-1.107h-0.027c-0.465,0.848-1.185,1.271-2.16,1.271
			c-1.668,0-2.502-0.994-2.502-2.98v-4.184h1.114v4.006c0,1.477,0.565,2.215,1.695,2.215c0.547,0,0.997-0.202,1.35-0.605
			s0.53-0.931,0.53-1.583v-4.033h1.121V114.287z"/>
		<path fill="#2F2F2F" d="M624.523,113.275h-0.027v1.012h-1.121v-10.363h1.121v4.594h0.027c0.551-0.93,1.358-1.395,2.42-1.395
			c0.898,0,1.601,0.313,2.109,0.94s0.762,1.466,0.762,2.519c0,1.171-0.285,2.109-0.854,2.813s-1.349,1.056-2.338,1.056
			C625.696,114.451,624.997,114.059,624.523,113.275z M624.496,110.452v0.978c0,0.579,0.188,1.07,0.564,1.473
			s0.854,0.605,1.432,0.605c0.679,0,1.211-0.26,1.596-0.779s0.578-1.242,0.578-2.167c0-0.779-0.18-1.39-0.54-1.832
			s-0.848-0.663-1.463-0.663c-0.652,0-1.176,0.227-1.572,0.68S624.496,109.768,624.496,110.452z"/>
		<path fill="#2F2F2F" d="M637.22,111.067h-4.942c0.018,0.779,0.228,1.381,0.629,1.805s0.953,0.636,1.654,0.636
			c0.789,0,1.513-0.26,2.174-0.779v1.053c-0.615,0.447-1.429,0.67-2.44,0.67c-0.989,0-1.766-0.318-2.331-0.954
			s-0.848-1.53-0.848-2.683c0-1.089,0.309-1.977,0.926-2.663s1.384-1.029,2.3-1.029s1.625,0.296,2.126,0.889
			s0.752,1.415,0.752,2.468V111.067z M636.071,110.117c-0.004-0.647-0.161-1.151-0.468-1.511s-0.735-0.54-1.282-0.54
			c-0.529,0-0.978,0.189-1.347,0.567s-0.597,0.873-0.684,1.483H636.071z"/>
		<path fill="#2F2F2F" d="M642.554,108.421c-0.196-0.15-0.479-0.226-0.848-0.226c-0.479,0-0.878,0.226-1.2,0.677
			s-0.482,1.066-0.482,1.846v3.568h-1.121v-7h1.121v1.442h0.027c0.16-0.492,0.403-0.876,0.731-1.152s0.695-0.414,1.101-0.414
			c0.292,0,0.515,0.032,0.67,0.096V108.421z"/>
		<path fill="#2F2F2F" d="M649.608,114.287h-1.121v-3.992c0-1.486-0.542-2.229-1.627-2.229c-0.561,0-1.024,0.211-1.391,0.632
			s-0.55,0.954-0.55,1.596v3.992h-1.121v-7h1.121v1.162h0.027c0.529-0.884,1.294-1.326,2.297-1.326c0.766,0,1.351,0.247,1.757,0.742
			s0.608,1.209,0.608,2.143V114.287z"/>
		<path fill="#2F2F2F" d="M657.312,111.067h-4.942c0.018,0.779,0.228,1.381,0.629,1.805s0.953,0.636,1.654,0.636
			c0.789,0,1.513-0.26,2.174-0.779v1.053c-0.615,0.447-1.429,0.67-2.44,0.67c-0.989,0-1.766-0.318-2.331-0.954
			s-0.848-1.53-0.848-2.683c0-1.089,0.309-1.977,0.926-2.663s1.384-1.029,2.3-1.029s1.625,0.296,2.126,0.889
			s0.752,1.415,0.752,2.468V111.067z M656.163,110.117c-0.004-0.647-0.161-1.151-0.468-1.511s-0.735-0.54-1.282-0.54
			c-0.529,0-0.978,0.189-1.347,0.567s-0.597,0.873-0.684,1.483H656.163z"/>
		<path fill="#2F2F2F" d="M662.235,114.218c-0.264,0.146-0.613,0.219-1.046,0.219c-1.226,0-1.839-0.684-1.839-2.051v-4.143h-1.203
			v-0.957h1.203v-1.709l1.121-0.362v2.071h1.764v0.957h-1.764v3.944c0,0.469,0.08,0.804,0.239,1.005s0.424,0.301,0.793,0.301
			c0.283,0,0.526-0.078,0.731-0.232V114.218z"/>
		<path fill="#2F2F2F" d="M669.229,111.067h-4.942c0.018,0.779,0.228,1.381,0.629,1.805s0.953,0.636,1.654,0.636
			c0.789,0,1.513-0.26,2.174-0.779v1.053c-0.615,0.447-1.429,0.67-2.44,0.67c-0.989,0-1.766-0.318-2.331-0.954
			s-0.848-1.53-0.848-2.683c0-1.089,0.309-1.977,0.926-2.663s1.384-1.029,2.3-1.029s1.625,0.296,2.126,0.889
			s0.752,1.415,0.752,2.468V111.067z M668.08,110.117c-0.004-0.647-0.161-1.151-0.468-1.511s-0.735-0.54-1.282-0.54
			c-0.529,0-0.978,0.189-1.347,0.567s-0.597,0.873-0.684,1.483H668.08z"/>
		<path fill="#2F2F2F" d="M670.47,114.034v-1.203c0.611,0.451,1.283,0.677,2.017,0.677c0.984,0,1.477-0.328,1.477-0.984
			c0-0.187-0.042-0.345-0.126-0.475s-0.198-0.245-0.342-0.345s-0.312-0.19-0.506-0.27s-0.402-0.163-0.625-0.25
			c-0.31-0.123-0.582-0.247-0.817-0.373s-0.431-0.267-0.588-0.424s-0.276-0.336-0.355-0.537s-0.12-0.435-0.12-0.704
			c0-0.328,0.075-0.619,0.226-0.872s0.351-0.465,0.602-0.636s0.537-0.3,0.858-0.386s0.653-0.13,0.995-0.13
			c0.606,0,1.148,0.105,1.627,0.314v1.135c-0.515-0.337-1.107-0.506-1.777-0.506c-0.209,0-0.399,0.024-0.567,0.072
			s-0.313,0.115-0.434,0.202s-0.214,0.19-0.28,0.311s-0.099,0.254-0.099,0.4c0,0.182,0.033,0.335,0.099,0.458
			s0.163,0.232,0.291,0.328s0.283,0.182,0.465,0.26s0.39,0.162,0.622,0.253c0.31,0.119,0.588,0.24,0.834,0.366
			s0.456,0.267,0.629,0.424s0.307,0.338,0.4,0.543s0.14,0.449,0.14,0.731c0,0.346-0.076,0.647-0.229,0.902s-0.356,0.467-0.612,0.636
			s-0.549,0.294-0.882,0.376s-0.681,0.123-1.046,0.123C671.623,114.451,670.999,114.312,670.47,114.034z"/>
	</g>
</g>
<g id="Layer_1">
</g>
<g id="_x3C_Layer_x3E_">
</g>
</svg>
