<svg width="34" height="29" viewBox="0 0 34 29" fill="none" xmlns="http://www.w3.org/2000/svg">
<path d="M24.1986 0H24.1003H1.48278H1.38833C1.03987 0.000965876 0.704333 0.132056 0.447504 0.367569C0.190676 0.603083 0.0310779 0.926035 0 1.27311L0 16.7412C0.0288698 17.0893 0.187364 17.4139 0.444114 17.6507C0.700864 17.8875 1.03716 18.0193 1.38644 18.02H8.92311C8.98127 18.0203 9.0372 18.0424 9.07987 18.0819C9.12253 18.1214 9.14883 18.1755 9.15356 18.2334V20.859C9.1632 20.9462 9.19587 21.0293 9.24821 21.0998C9.30055 21.1702 9.37068 21.2255 9.45142 21.2599C9.53215 21.2943 9.62059 21.3066 9.70765 21.2956C9.79472 21.2846 9.87729 21.2506 9.94689 21.1971L14.6956 18.0616C14.7401 18.0331 14.7919 18.018 14.8448 18.0181H24.1967C24.5462 18.0175 24.8827 17.8857 25.1397 17.6489C25.3968 17.4122 25.5557 17.0876 25.585 16.7393V1.27311C25.5548 0.926036 25.3957 0.602854 25.1391 0.367219C24.8825 0.131583 24.5469 0.000575822 24.1986 0V0Z" fill="url(#paint0_linear_810_19152)"/>
<path d="M18.1796 6.89453C18.5141 6.89416 18.8412 6.99304 19.1195 7.17865C19.3978 7.36427 19.6148 7.62828 19.743 7.93727C19.8712 8.24625 19.9048 8.58632 19.8396 8.91444C19.7745 9.24255 19.6134 9.54395 19.3769 9.78049C19.1403 10.017 18.8389 10.1781 18.5108 10.2433C18.1827 10.3084 17.8426 10.2748 17.5337 10.1466C17.2247 10.0184 16.9607 9.80143 16.775 9.52313C16.5894 9.24483 16.4905 8.91772 16.4909 8.5832V8.5832C16.4909 8.13534 16.6688 7.70582 16.9855 7.38913C17.3022 7.07244 17.7317 6.89453 18.1796 6.89453V6.89453ZM11.1019 8.60587C11.1038 8.93982 11.2045 9.26574 11.3914 9.5425C11.5783 9.81927 11.843 10.0345 12.152 10.161C12.4611 10.2875 12.8007 10.3196 13.128 10.2533C13.4553 10.187 13.7557 10.0253 13.9912 9.78849C14.2267 9.55169 14.3867 9.25045 14.4512 8.92277C14.5157 8.5951 14.4816 8.25567 14.3534 7.94731C14.2252 7.63895 14.0085 7.37548 13.7307 7.19013C13.4529 7.00479 13.1264 6.90587 12.7925 6.90587C12.5697 6.90586 12.3491 6.9499 12.1433 7.03545C11.9376 7.121 11.7508 7.24637 11.5937 7.40435C11.4366 7.56234 11.3123 7.74982 11.2279 7.95602C11.1435 8.16222 11.1007 8.38306 11.1019 8.60587V8.60587ZM5.71292 8.60587C5.71478 8.9399 5.81556 9.26589 6.00254 9.5427C6.18951 9.8195 6.4543 10.0347 6.76348 10.1612C7.07266 10.2876 7.41237 10.3196 7.73973 10.2532C8.06709 10.1867 8.36743 10.0248 8.60284 9.78782C8.83825 9.55083 8.99817 9.24941 9.06243 8.92161C9.12669 8.59381 9.09239 8.25433 8.96387 7.946C8.83536 7.63768 8.61838 7.37433 8.34033 7.18921C8.06228 7.0041 7.73562 6.9055 7.40158 6.90587C7.17894 6.90611 6.95853 6.95033 6.75303 7.03599C6.54752 7.12165 6.36096 7.24706 6.20405 7.40502C6.04715 7.56298 5.92299 7.75038 5.8387 7.95645C5.75442 8.16253 5.71167 8.38322 5.71292 8.60587V8.60587Z" fill="white"/>
<path d="M32.7515 10.7888H26.9073V16.7955V16.8503C26.8475 17.5287 26.5363 18.1604 26.0349 18.6213C25.5334 19.0822 24.8778 19.3392 24.1967 19.3417H15.1584L12.4648 21.1173V24.8856C12.4904 25.1927 12.6356 25.4775 12.8692 25.6785C13.1027 25.8795 13.4059 25.9808 13.7134 25.9604H21.9811C22.026 25.9604 22.07 25.9735 22.1076 25.9982L26.1045 28.6332C26.1921 28.7002 26.3026 28.7299 26.4119 28.7157C26.5213 28.7016 26.6206 28.6447 26.6882 28.5576C26.735 28.4969 26.7638 28.4243 26.7713 28.3479V26.1379C26.7727 26.1123 26.7793 26.0871 26.7907 26.0641C26.8022 26.041 26.8182 26.0206 26.8378 26.004C26.8575 25.9873 26.8803 25.9749 26.9049 25.9674C26.9295 25.9599 26.9554 25.9575 26.981 25.9604H32.7515C33.0594 25.9812 33.3631 25.8799 33.5968 25.6784C33.8306 25.4769 33.9754 25.1913 34.0001 24.8837V11.8636C33.975 11.5563 33.8299 11.2713 33.5962 11.0701C33.3626 10.869 33.0591 10.7679 32.7515 10.7888V10.7888Z" fill="url(#paint1_linear_810_19152)"/>
<defs>
<linearGradient id="paint0_linear_810_19152" x1="12.7916" y1="21.2953" x2="12.7916" y2="-0.00755502" gradientUnits="userSpaceOnUse">
<stop stop-color="#32BEDD"/>
<stop offset="1" stop-color="#50E6FF"/>
</linearGradient>
<linearGradient id="paint1_linear_810_19152" x1="23.2334" y1="28.7182" x2="23.2334" y2="5.43572" gradientUnits="userSpaceOnUse">
<stop stop-color="#773ADC"/>
<stop offset="1" stop-color="#A67AF4"/>
</linearGradient>
</defs>
</svg>
