<svg xmlns="http://www.w3.org/2000/svg" viewBox="0 0 24 24"><title>Teams_24x</title><path d="M8,10.12V17.5A5.474,5.474,0,0,0,8.605,20h5A1.5,1.5,0,0,0,15,18.646V9.021L14.719,9H9.12A1.12,1.12,0,0,0,8,10.12Z" opacity="0.1"/><path d="M13.833,6H10.857A3.242,3.242,0,0,0,15,8.143V7.167A1.17,1.17,0,0,0,13.833,6Z" opacity="0.1"/><rect width="24" height="24" fill="none"/><path d="M22.873,9H17.88l-1.394,1.127v5.589a3.757,3.757,0,0,0,7.514,0V10.127A1.128,1.128,0,0,0,22.873,9Z" fill="#5059c9"/><circle cx="20.5" cy="5.5" r="2.5" fill="#5059c9"/><path d="M9.12,9h8.76A1.12,1.12,0,0,1,19,10.12V17.5A5.5,5.5,0,0,1,13.5,23h0A5.5,5.5,0,0,1,8,17.5V10.12A1.12,1.12,0,0,1,9.12,9Z" fill="#7b83eb"/><circle cx="14" cy="5" r="3.313" fill="#7b83eb"/><path d="M8,10.12V17.5A5.474,5.474,0,0,0,8.605,20h5A1.5,1.5,0,0,0,15,18.646V9.021L14.719,9H9.12A1.12,1.12,0,0,0,8,10.12Z" opacity="0.5"/><path d="M13.833,6H10.857A3.242,3.242,0,0,0,15,8.143V7.167A1.17,1.17,0,0,0,13.833,6Z" opacity="0.5"/><rect y="5" width="14" height="14" rx="1.167" fill="#4b53bc"/><path d="M10.181,9.578H7.792V16H6.222V9.578h-2.4V8h6.362Z" fill="#fff"/></svg>