<svg width="50" height="50" viewBox="0 0 50 50" fill="none" xmlns="http://www.w3.org/2000/svg">
<path d="M27.7714 9.25204C27.7711 11.7056 26.7962 14.0585 25.0611 15.7932C23.326 17.5279 20.9729 18.5023 18.5193 18.502C16.0658 18.5018 13.7129 17.5269 11.9782 15.7918C10.2435 14.0567 9.26907 11.7035 9.26934 9.25C9.26961 6.79648 10.2445 4.44355 11.9796 2.70884C12.8388 1.8499 13.8587 1.16858 14.9811 0.703801C16.1035 0.239018 17.3065 -0.000133946 18.5214 5.62818e-08C19.7362 0.000134058 20.9392 0.239551 22.0615 0.704582C23.1839 1.16961 24.2036 1.85115 25.0625 2.71028C25.9215 3.56941 26.6028 4.58931 27.0676 5.71175C27.5324 6.83419 27.7715 8.03718 27.7714 9.25204ZM25.2836 21.6724L18.5204 31.149L11.7571 21.6724H2.00098V45.0398H35.0408V21.6724H25.2836Z" fill="#59B4D9"/>
<path opacity="0.2" d="M9.27143 9.25199C9.27143 14.2836 13.2908 18.3693 18.2949 18.4908L20.6184 0.250965C19.9312 0.0882316 19.2276 0.00503241 18.5214 0.00300621C17.3067 0.00273814 16.1038 0.24178 14.9815 0.706477C13.8592 1.17117 12.8394 1.85242 11.9805 2.71131C11.1215 3.5702 10.4401 4.58989 9.97529 5.71216C9.51047 6.83442 9.27129 8.03727 9.27143 9.25199ZM11.7592 21.6724H2V45.0397H14.9551L16.998 29.0163L11.7592 21.6724Z" fill="white"/>
<path d="M46.7291 26.7583C47.132 26.3555 47.4516 25.8772 47.6697 25.3509C47.8878 24.8245 48 24.2604 48 23.6906C48 23.1209 47.8878 22.5567 47.6697 22.0304C47.4516 21.504 47.132 21.0258 46.7291 20.623L39.2463 13.1394C38.4325 12.3258 37.3289 11.8687 36.1782 11.8687C35.0275 11.8687 33.9239 12.3258 33.1102 13.1394L25.6266 20.623C24.8132 21.4367 24.3563 22.5401 24.3563 23.6906C24.3563 24.8411 24.8132 25.9446 25.6266 26.7583L32.2103 33.342V46.0328L36.1775 50L39.6238 46.5537V46.5285L41.6462 44.5053L39.6413 42.5004L41.6462 40.4954L39.6413 38.4905L41.6462 36.4855L39.6238 34.4623V33.8644L46.7291 26.7583ZM36.1782 14.9483C36.5053 14.9425 36.8303 15.002 37.1341 15.1232C37.438 15.2444 37.7146 15.4249 37.948 15.6541C38.1813 15.8834 38.3667 16.1569 38.4932 16.4585C38.6197 16.7602 38.6848 17.0841 38.6848 17.4112C38.6848 17.7383 38.6197 18.0622 38.4932 18.3638C38.3667 18.6655 38.1813 18.939 37.948 19.1682C37.7146 19.3975 37.438 19.578 37.1341 19.6992C36.8303 19.8204 36.5053 19.8798 36.1782 19.8741C35.5325 19.8627 34.9171 19.5982 34.4645 19.1376C34.0119 18.677 33.7583 18.057 33.7583 17.4112C33.7583 16.7654 34.0119 16.1454 34.4645 15.6848C34.9171 15.2241 35.5325 14.9597 36.1782 14.9483Z" fill="#FCD116"/>
<path opacity="0.4" d="M34.0636 45.3936L35.6117 46.9189V34.7527L34.0636 33.9901V45.3936Z" fill="white"/>
<path opacity="0.5" d="M28.8318 22.2527H43.0471V24.2958H28.8318V22.2527ZM28.8318 25.577H43.0471V27.6201H28.8318V25.577Z" fill="white"/>
</svg>
