<?xml version="1.0" encoding="UTF-8" standalone="no"?>
<!DOCTYPE svg PUBLIC "-//W3C//DTD SVG 1.1//EN" "http://www.w3.org/Graphics/SVG/1.1/DTD/svg11.dtd">
<!-- Generated by Microsoft Visio, SVG Export scenario-webapp-signs-in-users.svg Page-1 -->
<svg xmlns="http://www.w3.org/2000/svg" xmlns:xlink="http://www.w3.org/1999/xlink" xmlns:ev="http://www.w3.org/2001/xml-events"
		xmlns:v="http://schemas.microsoft.com/visio/2003/SVGExtensions/" width="1.23343in" height="0.677639in"
		viewBox="0 0 88.8071 48.79" xml:space="preserve" color-interpolation-filters="sRGB" class="st5">
	<v:documentProperties v:langID="1036" v:metric="true" v:viewMarkup="false">
		<v:userDefs>
			<v:ud v:nameU="msvConvertTheme"/>
		</v:userDefs>
	</v:documentProperties>

	<style type="text/css">
	<![CDATA[
		.st1 {fill:#008bfd;stroke:none;stroke-linecap:round;stroke-linejoin:round;stroke-width:0.75}
		.st2 {fill:#008bfd;stroke:#808080;stroke-linecap:round;stroke-linejoin:round;stroke-width:0.75}
		.st3 {fill:#ffffff;stroke:none;stroke-linecap:round;stroke-linejoin:round;stroke-width:0.75}
		.st4 {fill:#000000;font-family:Segoe UI;font-size:0.833336em}
		.st5 {fill:none;fill-rule:evenodd;font-size:12px;overflow:visible;stroke-linecap:square;stroke-miterlimit:3}
	]]>
	</style>

	<g v:mID="0" v:index="1" v:groupContext="foregroundPage">
		<title>Page-1</title>
		<v:pageProperties v:drawingScale="0.0393701" v:pageScale="0.0393701" v:drawingUnits="24" v:shadowOffsetX="8.50394"
				v:shadowOffsetY="-8.50394"/>
		<v:layer v:name="Azure" v:index="0"/>
		<g id="group1800-1" transform="translate(0.375,-25.6729)" v:mID="1800" v:groupContext="group" v:layerMember="0">
			<title>User Permissions.1800</title>
			<g id="group1801-2" v:mID="1801" v:groupContext="group" v:layerMember="0">
				<title>Sheet.1801</title>
				<g id="group1802-3" v:mID="1802" v:groupContext="group" v:layerMember="0">
					<title>Sheet.1802</title>
					<g id="group1803-4" transform="translate(3.8518,-6.4617)" v:mID="1803" v:groupContext="group" v:layerMember="0">
						<title>Sheet.1803</title>
						<g id="shape1804-5" v:mID="1804" v:groupContext="shape" v:layerMember="0">
							<title>Sheet.1804</title>
							<path d="M3.62 38.91 C1.32 39.46 0 42.02 0.66 44.57 C1.32 47.12 3.62 48.79 5.93 48.23 C8.23 47.68 9.55
										 45.13 8.89 42.57 C8.34 39.91 5.93 38.24 3.62 38.91 Z" class="st1"/>
						</g>
					</g>
					<g id="group1805-7" v:mID="1805" v:groupContext="group" v:layerMember="0">
						<title>Sheet.1805</title>
						<g id="shape1806-8" v:mID="1806" v:groupContext="shape" v:layerMember="0">
							<title>Sheet.1806</title>
							<path d="M12.41 42.46 C11.97 42.46 11.53 43.24 10.87 43.57 C10.21 43.91 9.55 44.46 7.69 43.57 C5.82 42.68
										 5.6 41.91 4.06 41.91 C2.53 41.91 0 44.68 0 48.79 L15.59 48.79 C15.59 48.79 15.37 46.01 14.49
										 44.57 C13.39 42.46 12.85 42.46 12.41 42.46 Z" class="st1"/>
						</g>
					</g>
				</g>
			</g>
			<g id="group1807-10" transform="translate(9.0485,-0.85947)" v:mID="1807" v:groupContext="group" v:layerMember="0">
				<title>Sheet.1807</title>
				<g id="shape1808-11" v:mID="1808" v:groupContext="shape" v:layerMember="0">
					<title>Sheet.1808</title>
					<path d="M4.77 38.38 L0.65 38.38 C0.33 38.38 0 38.71 0 39.04 L0 41.89 C0 42.22 0.33 42.54 0.76 42.54 L1.52 42.54
								 L1.52 47.69 C1.52 48.35 1.95 48.79 2.49 48.79 C3.03 48.79 3.47 48.35 3.47 47.8 C3.58 47.8 3.68 47.8
								 3.68 47.8 C3.68 47.8 3.68 47.26 3.68 47.15 C3.68 46.93 4.01 46.82 4.01 46.82 C4.01 46.82 4.01 46.49
								 4.01 46.49 C3.68 46.38 3.47 46.16 3.47 46.05 L3.47 45.72 C3.58 45.61 3.68 45.5 3.68 45.5 C3.79 45.39
								 4.01 44.96 4.01 44.96 C4.01 44.96 3.68 44.52 3.68 44.41 C3.58 44.3 3.58 44.08 3.47 43.97 L3.47 43.75
								 C3.58 43.2 4.23 42.65 4.23 42.65 L4.77 42.65 C5.09 42.65 5.42 42.33 5.42 42 L5.42 39.04 C5.42 38.71
								 5.2 38.38 4.77 38.38 ZM2.38 47.91 C2.38 48.13 2.38 48.24 2.17 48.24 C1.95 48.24 1.95 48.02 1.95
								 47.91 L1.95 43.09 C1.95 42.87 2.06 42.76 2.17 42.76 C2.38 42.76 2.38 42.98 2.38 43.09 L2.38 47.91
								 ZM2.71 40.13 C2.38 40.13 2.06 39.81 2.06 39.48 C2.06 39.15 2.38 38.82 2.71 38.82 C3.03 38.82 3.36
								 39.15 3.36 39.48 C3.36 39.81 3.14 40.13 2.71 40.13 Z" class="st2"/>
				</g>
				<g id="shape1809-13" v:mID="1809" v:groupContext="shape" v:layerMember="0" transform="translate(1.92482,-0.570755)">
					<title>Sheet.1809</title>
					<path d="M0.22 48.79 C0.11 48.79 0 48.68 0 48.57 L0 43.57 C0 43.46 0.11 43.35 0.22 43.35 C0.33 43.35 0.44 43.46
								 0.44 43.57 L0.44 48.68 C0.44 48.79 0.33 48.79 0.22 48.79 Z" class="st3"/>
				</g>
				<g id="shape1810-15" v:mID="1810" v:groupContext="shape" v:layerMember="0" transform="translate(2.05993,-8.66317)">
					<title>Sheet.1810</title>
					<ellipse cx="0.658756" cy="48.1239" rx="0.658756" ry="0.666074" class="st3"/>
				</g>
			</g>
		</g>
		<g id="group1872-17" transform="translate(47.1467,-20.0036)" v:mID="1872" v:groupContext="group" v:layerMember="0">
			<title>Web App (Was Websites).1872</title>
			<desc>Web App</desc>
			<g id="group1873-18" v:mID="1873" v:groupContext="group" v:layerMember="0">
				<title>Sheet.1873</title>
				<g id="shape1874-19" v:mID="1874" v:groupContext="shape" v:layerMember="0">
					<title>Sheet.1874</title>
					<path d="M22.89 44.41 C20.71 46.11 18.14 46.95 15.6 46.95 C11.99 46.95 8.42 45.29 6.05 42.12 C2.02 36.7 3.02
								 28.98 8.29 24.83 C10.47 23.11 13.04 22.29 15.58 22.29 C19.2 22.29 22.76 23.96 25.13 27.13 C29.16
								 32.53 28.16 40.27 22.89 44.41 ZM26.55 26 C23.83 22.35 19.73 20.44 15.58 20.44 C12.66 20.44 9.7 21.4
								 7.19 23.36 C1.15 28.13 0 37.02 4.64 43.24 C7.35 46.88 11.46 48.79 15.6 48.79 C18.53 48.79 21.49
								 47.85 23.99 45.87 C30.03 41.11 31.18 32.21 26.55 26 Z" class="st1"/>
				</g>
			</g>
			<g id="group1875-21" transform="translate(4.95554,-4.39536)" v:mID="1875" v:groupContext="group" v:layerMember="0">
				<title>Sheet.1875</title>
				<g id="group1876-22" transform="translate(0.341805,-0.176482)" v:mID="1876" v:groupContext="group"
						v:layerMember="0">
					<title>Sheet.1876</title>
					<g id="group1877-23" transform="translate(0.437248,3.19744E-13)" v:mID="1877" v:groupContext="group"
							v:layerMember="0">
						<title>Sheet.1877</title>
						<g id="shape1878-24" v:mID="1878" v:groupContext="shape" v:layerMember="0">
							<title>Sheet.1878</title>
							<path d="M3.62 41.76 C2.82 40.95 2.18 40.17 1.66 39.41 C0.51 41.83 0.1 44.32 0 46.3 C0.11 46.46 0.11
										 46.58 0.23 46.74 C0.81 47.49 1.53 48.21 2.23 48.79 C2.13 47.17 2.27 44.52 3.62 41.76 Z"
									class="st1"/>
						</g>
					</g>
					<g id="shape1879-26" v:mID="1879" v:groupContext="shape" v:layerMember="0"
							transform="translate(3.29213,-8.97695)">
						<title>Sheet.1879</title>
						<path d="M4.94 41.29 C3.85 42.06 2.74 43.04 1.61 44.27 C0.99 44.94 0.46 45.63 0 46.32 C0.48 47.12 1.11 47.94
									 1.9 48.79 C2.49 47.93 3.22 47.07 4.1 46.22 C5.21 45.16 6.25 44.31 7.23 43.62 C6.43 42.86 5.65
									 42.09 4.94 41.29 Z" class="st1"/>
					</g>
					<g id="group1880-28" transform="translate(9.93516,-15.1958)" v:mID="1880" v:groupContext="group"
							v:layerMember="0">
						<title>Sheet.1880</title>
						<g id="shape1881-29" v:mID="1881" v:groupContext="shape" v:layerMember="0">
							<title>Sheet.1881</title>
							<path d="M9.77 46.72 C9.25 46.03 8.66 45.44 8.04 44.89 C6.18 44.6 3.3 44.63 0 46.43 C0.76 47.27 1.51
										 48.05 2.24 48.79 C6.64 46.36 9.77 46.72 9.77 46.72 Z" class="st1"/>
						</g>
					</g>
					<g id="group1882-31" transform="translate(1.10162E-13,-9.38012)" v:mID="1882" v:groupContext="group"
							v:layerMember="0">
						<title>Sheet.1882</title>
						<g id="shape1883-32" v:mID="1883" v:groupContext="shape" v:layerMember="0">
							<title>Sheet.1883</title>
							<path d="M2.1 48.79 C2.44 48.1 2.84 47.41 3.29 46.72 C1.4 43.65 1.49 41.12 1.69 39.93 C1.22 40.44 0.78
										 40.97 0.4 41.54 C0.02 43.14 -0 45.7 2.1 48.79 Z" class="st1"/>
						</g>
					</g>
					<g id="group1884-34" transform="translate(4.05148,-0.740211)" v:mID="1884" v:groupContext="group"
							v:layerMember="0">
						<title>Sheet.1884</title>
						<g id="shape1885-35" v:mID="1885" v:groupContext="shape" v:layerMember="0">
							<title>Sheet.1885</title>
							<path d="M3.41 42.68 C2.53 41.96 1.78 41.24 1.14 40.55 C0.68 41.2 0.31 41.86 0 42.5 C0.6 43.13 1.3 43.75
										 2.09 44.41 C7.01 48.41 11.9 48.79 14.65 48.79 C14.83 48.79 15.69 47.59 16.19 46.85 C14.96
										 47.11 9.7 47.79 3.41 42.68 Z" class="st1"/>
						</g>
					</g>
					<g id="group1886-37" transform="translate(2.10339,-7.03041)" v:mID="1886" v:groupContext="group"
							v:layerMember="0">
						<title>Sheet.1886</title>
						<g id="shape1887-38" v:mID="1887" v:groupContext="shape" v:layerMember="0">
							<title>Sheet.1887</title>
							<path d="M0 46.44 C0.51 47.2 1.15 47.98 1.95 48.79 C2.26 48.15 2.64 47.49 3.09 46.84 C2.3 45.99 1.67
										 45.17 1.19 44.37 C0.72 45.06 0.33 45.75 0 46.44 Z" class="st1"/>
						</g>
					</g>
					<g id="group1888-40" transform="translate(10.5195,-5.3233)" v:mID="1888" v:groupContext="group"
							v:layerMember="0">
						<title>Sheet.1888</title>
						<g id="shape1889-41" v:mID="1889" v:groupContext="shape" v:layerMember="0">
							<title>Sheet.1889</title>
							<path d="M0 39.97 C4.49 44.22 9.8 47.84 11.15 48.79 C11.29 48.44 11.38 48.1 11.48 47.74 C10.03 46.63
										 6.22 43.58 1.65 38.92 C1.12 39.21 0.57 39.56 0 39.97 Z" class="st1"/>
						</g>
					</g>
					<g id="group1890-43" transform="translate(4.98729,-16.4714)" v:mID="1890" v:groupContext="group"
							v:layerMember="0">
						<title>Sheet.1890</title>
						<g id="shape1891-44" v:mID="1891" v:groupContext="shape" v:layerMember="0">
							<title>Sheet.1891</title>
							<path d="M4.95 47.7 C3.85 46.52 2.73 45.26 1.59 43.9 C1.04 44.08 0.51 44.31 0 44.57 C0.84 45.98 1.97
										 47.4 3.24 48.79 C3.82 48.37 4.38 48.01 4.95 47.7 Z" class="st1"/>
						</g>
					</g>
					<g id="shape1892-46" v:mID="1892" v:groupContext="shape" v:layerMember="0"
							transform="translate(8.13763,-14.0503)">
						<title>Sheet.1892</title>
						<path d="M1.87 45.25 C1.31 45.56 0.57 46.02 0 46.43 C0.72 47.22 1.45 48.03 2.25 48.79 C2.82 48.39 3.59 47.9
									 4.12 47.6 C3.38 46.87 2.63 46.08 1.87 45.25 Z" class="st1"/>
					</g>
					<g id="shape1893-48" v:mID="1893" v:groupContext="shape" v:layerMember="0"
							transform="translate(8.1369,-14.0039)">
						<title>Sheet.1893</title>
						<path d="M1.67 45.09 C1.1 45.4 0.57 45.8 0 46.22 C0.72 47.01 1.74 48.03 2.54 48.79 C3.11 48.39 3.59 47.98
									 4.12 47.68 C3.38 46.95 2.42 45.93 1.67 45.09 Z" class="st1"/>
					</g>
				</g>
				<g id="group1894-50" transform="translate(14.8617,-6.23662)" v:mID="1894" v:groupContext="group" v:layerMember="0">
					<title>Sheet.1894</title>
					<g id="shape1895-51" v:mID="1895" v:groupContext="shape" v:layerMember="0">
						<title>Sheet.1895</title>
						<path d="M1.34 43.7 C0.22 44.59 0 46.25 0.86 47.41 C1.74 48.58 3.36 48.79 4.49 47.91 C5.61 47.03 5.83 45.36
									 4.97 44.2 C4.1 43.04 2.49 42.81 1.34 43.7 Z" class="st1"/>
					</g>
				</g>
				<g id="group1896-53" transform="translate(9.65099,-2.13163E-13)" v:mID="1896" v:groupContext="group"
						v:layerMember="0">
					<title>Sheet.1896</title>
					<g id="shape1897-54" v:mID="1897" v:groupContext="shape" v:layerMember="0">
						<title>Sheet.1897</title>
						<path d="M1.24 44.08 C0.2 44.9 -0 46.45 0.79 47.52 C1.6 48.59 3.1 48.79 4.15 47.97 C5.19 47.15 5.39 45.61
									 4.59 44.54 C3.79 43.46 2.29 43.26 1.24 44.08 Z" class="st1"/>
					</g>
				</g>
				<g id="group1898-56" transform="translate(0,-5.36433)" v:mID="1898" v:groupContext="group" v:layerMember="0">
					<title>Sheet.1898</title>
					<g id="shape1899-57" v:mID="1899" v:groupContext="shape" v:layerMember="0">
						<title>Sheet.1899</title>
						<path d="M1.89 41.63 C0.3 42.88 -0 45.21 1.21 46.84 C2.44 48.48 4.72 48.79 6.31 47.54 C7.9 46.29 8.2 43.96
									 6.98 42.31 C5.76 40.69 3.48 40.38 1.89 41.63 Z" class="st1"/>
					</g>
				</g>
			</g>
			<g id="shape1872-59" v:mID="1872" v:groupContext="groupContent" v:layerMember="0">
				<v:textBlock v:margins="rect(4,4,4,4)" v:tabSpace="42.5197"/>
				<v:textRect cx="15.5906" cy="58.7918" width="52.14" height="20.0036"/>
				<text x="-5.11" y="61.79" class="st4" v:langID="1033"><v:paragraph v:horizAlign="1"/><v:tabList/>Web App</text>			</g>
		</g>
	</g>
</svg>
