<?xml version="1.0" encoding="UTF-8"?>
<svg xmlns="http://www.w3.org/2000/svg" xmlns:xlink="http://www.w3.org/1999/xlink" viewBox="0 0 338.8 149.6" width="338.8" height="149.6">
  <defs>
    <linearGradient id="linear-gradient" x1="-436.6746" y1="1260.1823" x2="-436.6746" y2="1280.3868" gradientTransform="translate(564 1362.4) scale(1 -1)" gradientUnits="userSpaceOnUse">
      <stop offset="0" stop-color="#0078d4"/>
      <stop offset=".82" stop-color="#5ea0ef"/>
    </linearGradient>
    <linearGradient id="linear-gradient-2" x1="-436.6746" y1="1252.3868" x2="-436.6746" y2="1260.1823" gradientTransform="translate(564 1362.4) scale(1 -1)" gradientUnits="userSpaceOnUse">
      <stop offset=".15" stop-color="#ccc"/>
      <stop offset="1" stop-color="#707070"/>
    </linearGradient>
    <linearGradient id="linear-gradient-3" x1="-353.0746" x2="-353.0746" xlink:href="#linear-gradient"/>
    <linearGradient id="linear-gradient-4" x1="-353.0746" x2="-353.0746" xlink:href="#linear-gradient-2"/>
    <linearGradient id="linear-gradient-5" x1="-542" y1="1324.8528" x2="-542" y2="1346.6581" gradientTransform="translate(564 1362.4) scale(1 -1)" gradientUnits="userSpaceOnUse">
      <stop offset="0" stop-color="#0078d4"/>
      <stop offset=".82" stop-color="#5ea0ef"/>
    </linearGradient>
  </defs>
  <g id="Shapes">
    <rect width="338.8" height="149.6" fill="#fff"/>
    <g>
      <rect x="12.1003" y="29.79" width="315.6718" height="108.7518" fill="#fff"/>
      <rect x="12.1003" y="29.79" width="315.6718" height="108.7518" fill="#b2aaa1" opacity=".2"/>
      <rect x="12.1003" y="29.79" width="315.6718" height="108.7518" fill="none" stroke="#8e8278" stroke-width=".25"/>
    </g>
    <g>
      <rect x="112.1721" y="82.0132" width="30.3067" height="20.2044" rx="1.0102" ry="1.0102" fill="url(#linear-gradient)"/>
      <polygon points="132.3765 89.169 132.3765 95.0451 127.3254 98.0084 127.3254 92.1155 132.3765 89.169" fill="#50e6ff"/>
      <polygon points="132.3765 89.169 127.3254 92.1323 122.2743 89.169 127.3254 86.2225 132.3765 89.169" fill="#c3f1ff"/>
      <polygon points="127.3254 92.1323 127.3254 98.0084 122.2743 95.0451 122.2743 89.169 127.3254 92.1323" fill="#9cebff"/>
      <polygon points="122.2743 95.0451 127.3254 92.1155 127.3254 98.0084 122.2743 95.0451" fill="#c3f1ff"/>
      <polygon points="132.3765 95.0451 127.3254 92.1155 127.3254 98.0084 132.3765 95.0451" fill="#9cebff"/>
      <path d="M133.4036,108.3295c-2.997-.4714-3.1149-2.6266-3.1149-6.1118h-5.9435c0,3.4853-.101,5.6404-3.098,6.1118-.8569.0948-1.5037.8216-1.4985,1.6837h15.1533c.0052-.8621-.6416-1.5889-1.4985-1.6837Z" fill="url(#linear-gradient-2)"/>
    </g>
    <g>
      <rect x="195.7721" y="82.0132" width="30.3067" height="20.2044" rx="1.0102" ry="1.0102" fill="url(#linear-gradient-3)"/>
      <polygon points="215.9765 89.169 215.9765 95.0451 210.9254 98.0084 210.9254 92.1155 215.9765 89.169" fill="#50e6ff"/>
      <polygon points="215.9765 89.169 210.9254 92.1323 205.8743 89.169 210.9254 86.2225 215.9765 89.169" fill="#c3f1ff"/>
      <polygon points="210.9254 92.1323 210.9254 98.0084 205.8743 95.0451 205.8743 89.169 210.9254 92.1323" fill="#9cebff"/>
      <polygon points="205.8743 95.0451 210.9254 92.1155 210.9254 98.0084 205.8743 95.0451" fill="#c3f1ff"/>
      <polygon points="215.9765 95.0451 210.9254 92.1155 210.9254 98.0084 215.9765 95.0451" fill="#9cebff"/>
      <path d="M217.0036,108.3295c-2.997-.4714-3.1149-2.6266-3.1149-6.1118h-5.9435c0,3.4853-.101,5.6404-3.098,6.1118-.8569.0948-1.5037.8216-1.4985,1.6837h15.1533c.0052-.8621-.6416-1.5889-1.4985-1.6837Z" fill="url(#linear-gradient-4)"/>
    </g>
    <g>
      <path d="M37.3721,30.7081c-.1107-3.3804-2.6439-6.1878-5.9951-6.6442-.2126-4.7578-4.2067-8.4628-8.967-8.318-3.795-.0701-7.2198,2.2657-8.54,5.8243-4.0413.488-7.1193,3.8563-7.242,7.9252.176,4.6099,4.0492,8.2081,8.6596,8.0447h14.7743c.1251.0095.2507.0095.3758,0,3.7753-.0357,6.8426-3.0577,6.9345-6.832Z" fill="url(#linear-gradient-5)"/>
      <path d="M31.0354,32.5015c-.0093-.3895-.3278-.7004-.7174-.7003H13.682c-.3896-.0001-.7081.3108-.7174.7003v8.54c.0093.3895.3278.7004.7174.7003h16.636c.3896.0001.7081-.3108.7174-.7003v-8.54Z" fill="#821010"/>
      <rect x="13.9724" y="32.7919" width="4.902" height="2.1692" fill="#e62323"/>
      <rect x="19.6088" y="32.7919" width="4.902" height="2.1692" fill="#ff7381"/>
      <rect x="25.2452" y="32.7919" width="4.902" height="2.1692" fill="#e62323"/>
      <rect x="13.9724" y="35.6955" width="2.0325" height="2.1692" fill="#e62323"/>
      <rect x="28.1147" y="35.6955" width="2.0325" height="2.1692" fill="#ff7381"/>
      <rect x="16.7393" y="35.6955" width="4.902" height="2.1692" fill="#ff7381"/>
      <rect x="22.3928" y="35.6955" width="4.902" height="2.1692" fill="#e62323"/>
      <rect x="13.9724" y="38.5991" width="4.902" height="2.1692" fill="#e62323"/>
      <rect x="19.6088" y="38.5991" width="4.902" height="2.1692" fill="#ff7381"/>
      <rect x="25.2452" y="38.5991" width="4.902" height="2.1692" fill="#e62323"/>
    </g>
  </g>
  <g id="Text">
    <g>
      <path d="M47.2262,16.3074h-3.459v2.4062h3.1787v1.791h-3.1787v3.8076h-2.208v-9.8027h5.667v1.7979Z" fill="#2f2f2f"/>
      <path d="M49.5816,16.2049c-.3643,0-.6631-.1084-.8955-.3247s-.3486-.4819-.3486-.7964c0-.3237.1162-.5879.3486-.793s.5312-.3076.8955-.3076c.3691,0,.6689.1025.8994.3076.2295.2051.3447.4692.3447.793,0,.3281-.1152.5972-.3447.8066-.2305.2095-.5303.3145-.8994.3145ZM50.648,24.3123h-2.1602v-7h2.1602v7Z" fill="#2f2f2f"/>
      <path d="M56.9957,19.2605c-.2598-.1411-.5625-.2119-.9092-.2119-.4697,0-.8359.1719-1.1006.5161s-.3965.8125-.3965,1.4048v3.3428h-2.1602v-7h2.1602v1.2988h.0273c.3418-.9478.957-1.4219,1.8457-1.4219.2275,0,.4053.0273.5332.082v1.9893Z" fill="#2f2f2f"/>
      <path d="M64.3687,21.4275h-4.5664c.0732,1.0161.7129,1.5244,1.9209,1.5244.7705,0,1.4473-.1821,2.0303-.5469v1.5586c-.6475.3462-1.4883.5195-2.5225.5195-1.1299,0-2.0078-.3135-2.6318-.9399s-.9365-1.5005-.9365-2.6216c0-1.1621.3369-2.0825,1.0117-2.7617s1.5039-1.0186,2.4883-1.0186c1.0205,0,1.8105.3032,2.3691.9092.5576.606.8369,1.4287.8369,2.4678v.9092ZM62.3658,20.1014c0-1.0024-.4053-1.5039-1.2168-1.5039-.3467,0-.6465.1436-.8984.4307-.2539.2871-.4072.645-.4619,1.0732h2.5771Z" fill="#2f2f2f"/>
      <path d="M75.732,17.3123l-2.0166,7h-2.2695l-1.0322-4.1016c-.0684-.2734-.1074-.5718-.1162-.8955h-.041c-.0322.3555-.0771.645-.1367.8682l-1.1074,4.1289h-2.2422l-1.9756-7h2.2012l.9639,4.5664c.0459.2144.0801.4741.1025.7793h.041c.0225-.3188.0635-.5879.123-.8066l1.2031-4.5391h2.0576l1.0801,4.5664c.0273.1138.0596.3784.0957.793h.0479c.0225-.2642.0596-.5288.1094-.793l.9092-4.5664h2.0029Z" fill="#2f2f2f"/>
      <path d="M82.4703,24.3123h-2.0439v-1.0049h-.0273c-.4697.7837-1.1641,1.1758-2.085,1.1758-.6787,0-1.2139-.1924-1.6025-.5776-.3906-.3853-.585-.8989-.585-1.5415,0-1.3579.8047-2.1421,2.4131-2.3516l1.9004-.2529c0-.7656-.415-1.1484-1.2441-1.1484-.834,0-1.627.2485-2.3789.7451v-1.627c.3008-.1548.7119-.2915,1.2344-.4102.5215-.1187.9961-.1777,1.4248-.1777,1.9961,0,2.9941.9956,2.9941,2.9873v4.1836ZM80.44,21.4686v-.4717l-1.2715.1641c-.7021.0913-1.0527.4077-1.0527.9502,0,.2461.0859.4478.2559.605.1719.1572.4023.2358.6943.2358.4053,0,.7363-.1401.9912-.4204s.3828-.6348.3828-1.063Z" fill="#2f2f2f"/>
      <path d="M86.3277,24.3123h-2.1602v-10.3633h2.1602v10.3633Z" fill="#2f2f2f"/>
      <path d="M90.2516,24.3123h-2.1602v-10.3633h2.1602v10.3633Z" fill="#2f2f2f"/>
    </g>
    <g>
      <path d="M104.3404,69.9764h-1.1484v-9.8027h1.1484v9.8027Z" fill="#2f2f2f"/>
      <path d="M112.4156,69.9764h-1.1211v-3.9922c0-1.4858-.542-2.2285-1.627-2.2285-.5605,0-1.0244.2109-1.3906.6323-.3672.4214-.5508.9536-.5508,1.5962v3.9922h-1.1211v-7h1.1211v1.1621h.0273c.5283-.8843,1.2939-1.3262,2.2969-1.3262.7656,0,1.3516.2471,1.7568.7417s.6084,1.209.6084,2.1431v4.2793Z" fill="#2f2f2f"/>
      <path d="M114.0631,69.7234v-1.2031c.6104.4512,1.2832.6768,2.0166.6768.9844,0,1.4766-.3281,1.4766-.9844,0-.187-.042-.3452-.126-.4751-.085-.1299-.1992-.2451-.3418-.3452-.1445-.1001-.3125-.1904-.5059-.27-.1943-.0796-.4023-.1631-.626-.2495-.3096-.123-.582-.2471-.8174-.3726-.2344-.1255-.4297-.2666-.5879-.4238-.1562-.1572-.2754-.3359-.3555-.5366-.0791-.2007-.1191-.4351-.1191-.7041,0-.3281.0752-.6187.2256-.8716s.3506-.4648.6016-.6357.5361-.2998.8584-.3862c.3203-.0864.6523-.1299.9941-.1299.6064,0,1.1484.105,1.627.3145v1.1348c-.5146-.3374-1.1074-.5059-1.7773-.5059-.21,0-.3984.0239-.5674.0718s-.3135.1152-.4346.2017c-.1201.0864-.2139.1904-.2793.311-.0664.1206-.0996.2539-.0996.3999,0,.1821.0332.335.0996.458.0654.123.1621.2324.29.3281s.2822.1821.4648.2598.3896.1616.6221.2529c.3096.1187.5879.2402.834.3657s.4561.2666.6289.4238.3066.3384.4004.5435c.0928.2051.1396.4487.1396.7314,0,.3462-.0762.647-.2295.9023-.1523.2554-.3564.4673-.6113.6357s-.5488.2939-.8818.376-.6816.123-1.0459.123c-.7197,0-1.3447-.1392-1.873-.417Z" fill="#2f2f2f"/>
      <path d="M123.7164,69.908c-.2646.146-.6133.2188-1.0459.2188-1.2256,0-1.8389-.6836-1.8389-2.0508v-4.1426h-1.2031v-.957h1.2031v-1.709l1.1211-.3623v2.0713h1.7637v.957h-1.7637v3.9443c0,.4692.0801.8042.2393,1.0049s.4238.3008.793.3008c.2822,0,.5264-.0776.7314-.2324v.957Z" fill="#2f2f2f"/>
      <path d="M130.3336,69.9764h-1.1211v-1.0938h-.0273c-.4873.8384-1.2051,1.2578-2.1533,1.2578-.6973,0-1.2432-.1846-1.6367-.5537-.3945-.3691-.5918-.8589-.5918-1.4697,0-1.3081.7705-2.0688,2.3105-2.2832l2.0986-.2939c0-1.1895-.4805-1.7842-1.4424-1.7842-.8428,0-1.6045.2871-2.2832.8613v-1.1484c.6885-.4375,1.4814-.6562,2.3789-.6562,1.6455,0,2.4678.8706,2.4678,2.6113v4.5527ZM129.2125,66.4354l-1.6885.2324c-.5195.0728-.9111.2017-1.1758.3862s-.3965.5117-.3965.981c0,.3418.1221.6211.3652.8374.2441.2163.5693.3247.9746.3247.5557,0,1.0156-.1948,1.377-.5845.3633-.3896.5439-.8828.5439-1.48v-.6973Z" fill="#2f2f2f"/>
      <path d="M138.1656,69.9764h-1.1211v-3.9922c0-1.4858-.542-2.2285-1.627-2.2285-.5605,0-1.0244.2109-1.3906.6323-.3672.4214-.5508.9536-.5508,1.5962v3.9922h-1.1211v-7h1.1211v1.1621h.0273c.5283-.8843,1.2939-1.3262,2.2969-1.3262.7656,0,1.3516.2471,1.7568.7417s.6084,1.209.6084,2.1431v4.2793Z" fill="#2f2f2f"/>
      <path d="M145.0143,69.6551c-.5381.3237-1.1758.4854-1.9141.4854-.998,0-1.8037-.3247-2.416-.9741-.6133-.6494-.9199-1.4912-.9199-2.5259,0-1.1528.3301-2.0791.9912-2.7788s1.543-1.0493,2.6455-1.0493c.6152,0,1.1572.1138,1.627.3418v1.1484c-.5195-.3647-1.0752-.5469-1.668-.5469-.7158,0-1.3027.2563-1.7598.769-.459.5127-.6875,1.186-.6875,2.02,0,.8203.2148,1.4673.6465,1.9414.4297.4741,1.0078.7109,1.7324.7109.6104,0,1.1846-.2026,1.7227-.6084v1.0664Z" fill="#2f2f2f"/>
      <path d="M152.1842,66.7566h-4.9424c.0186.7793.2275,1.3809.6289,1.8047s.9521.6357,1.6543.6357c.7881,0,1.5127-.2598,2.1738-.7793v1.0527c-.6152.4468-1.4287.6699-2.4404.6699-.9893,0-1.7656-.3179-2.3311-.9536s-.8477-1.5303-.8477-2.6831c0-1.0894.3086-1.9766.9258-2.6626.6182-.686,1.3848-1.0288,2.3008-1.0288s1.625.2964,2.126.8887.752,1.415.752,2.4678v.5879ZM151.0357,65.8064c-.0049-.647-.1611-1.1509-.4678-1.5107-.3086-.3599-.7354-.54-1.2822-.54-.5283,0-.9775.189-1.3467.5674s-.5967.8726-.6836,1.4834h3.7803Z" fill="#2f2f2f"/>
    </g>
    <g>
      <path d="M187.941,69.9764h-1.1484v-9.8027h1.1484v9.8027Z" fill="#2f2f2f"/>
      <path d="M196.0152,69.9764h-1.1211v-3.9922c0-1.4858-.541-2.2285-1.627-2.2285-.5605,0-1.0234.2109-1.3906.6323s-.5508.9536-.5508,1.5962v3.9922h-1.1211v-7h1.1211v1.1621h.0273c.5293-.8843,1.2949-1.3262,2.2969-1.3262.7656,0,1.3516.2471,1.7578.7417.4043.4946.6074,1.209.6074,2.1431v4.2793Z" fill="#2f2f2f"/>
      <path d="M197.6637,69.7234v-1.2031c.6094.4512,1.2832.6768,2.0156.6768.9844,0,1.4766-.3281,1.4766-.9844,0-.187-.041-.3452-.125-.4751-.0859-.1299-.1992-.2451-.3418-.3452-.1445-.1001-.3125-.1904-.5059-.27-.1953-.0796-.4023-.1631-.627-.2495-.3086-.123-.582-.2471-.8164-.3726s-.4297-.2666-.5879-.4238c-.1562-.1572-.2754-.3359-.3555-.5366s-.1191-.4351-.1191-.7041c0-.3281.0742-.6187.2246-.8716s.3516-.4648.6016-.6357c.252-.1709.5371-.2998.8594-.3862.3203-.0864.6523-.1299.9941-.1299.6055,0,1.1484.105,1.627.3145v1.1348c-.5156-.3374-1.1074-.5059-1.7773-.5059-.2109,0-.3984.0239-.5684.0718-.168.0479-.3125.1152-.4336.2017s-.2148.1904-.2793.311c-.0664.1206-.0996.2539-.0996.3999,0,.1821.0332.335.0996.458.0645.123.1621.2324.2891.3281.1289.0957.2832.1821.4648.2598.1836.0776.3906.1616.623.2529.3086.1187.5879.2402.834.3657s.4551.2666.6289.4238c.1719.1572.3066.3384.4004.5435.0918.2051.1387.4487.1387.7314,0,.3462-.0762.647-.2285.9023s-.3574.4673-.6113.6357c-.2559.1685-.5488.2939-.8828.376-.332.082-.6816.123-1.0449.123-.7207,0-1.3457-.1392-1.873-.417Z" fill="#2f2f2f"/>
      <path d="M207.316,69.908c-.2637.146-.6133.2188-1.0449.2188-1.2266,0-1.8398-.6836-1.8398-2.0508v-4.1426h-1.2031v-.957h1.2031v-1.709l1.1211-.3623v2.0713h1.7637v.957h-1.7637v3.9443c0,.4692.0801.8042.2402,1.0049.1582.2007.4238.3008.793.3008.2812,0,.5254-.0776.7305-.2324v.957Z" fill="#2f2f2f"/>
      <path d="M213.9332,69.9764h-1.1211v-1.0938h-.0273c-.4863.8384-1.2051,1.2578-2.1523,1.2578-.6973,0-1.2441-.1846-1.6367-.5537-.3945-.3691-.5918-.8589-.5918-1.4697,0-1.3081.7695-2.0688,2.3105-2.2832l2.0977-.2939c0-1.1895-.4805-1.7842-1.4414-1.7842-.8438,0-1.6055.2871-2.2832.8613v-1.1484c.6875-.4375,1.4805-.6562,2.3789-.6562,1.6445,0,2.4668.8706,2.4668,2.6113v4.5527ZM212.8121,66.4354l-1.6875.2324c-.5195.0728-.9121.2017-1.1758.3862-.2656.1846-.3965.5117-.3965.981,0,.3418.1211.6211.3652.8374s.5684.3247.9746.3247c.5547,0,1.0156-.1948,1.377-.5845.3633-.3896.543-.8828.543-1.48v-.6973Z" fill="#2f2f2f"/>
      <path d="M221.7652,69.9764h-1.1211v-3.9922c0-1.4858-.541-2.2285-1.627-2.2285-.5605,0-1.0234.2109-1.3906.6323s-.5508.9536-.5508,1.5962v3.9922h-1.1211v-7h1.1211v1.1621h.0273c.5293-.8843,1.2949-1.3262,2.2969-1.3262.7656,0,1.3516.2471,1.7578.7417.4043.4946.6074,1.209.6074,2.1431v4.2793Z" fill="#2f2f2f"/>
      <path d="M228.6148,69.6551c-.5391.3237-1.1758.4854-1.9141.4854-.998,0-1.8047-.3247-2.416-.9741-.6133-.6494-.9199-1.4912-.9199-2.5259,0-1.1528.3301-2.0791.9902-2.7788.6621-.6997,1.543-1.0493,2.6465-1.0493.6152,0,1.1562.1138,1.627.3418v1.1484c-.5195-.3647-1.0762-.5469-1.668-.5469-.7168,0-1.3027.2563-1.7598.769-.459.5127-.6875,1.186-.6875,2.02,0,.8203.2148,1.4673.6465,1.9414.4297.4741,1.0078.7109,1.7324.7109.6094,0,1.1836-.2026,1.7227-.6084v1.0664Z" fill="#2f2f2f"/>
      <path d="M235.7848,66.7566h-4.9434c.0195.7793.2285,1.3809.6289,1.8047.4023.4238.9531.6357,1.6543.6357.7891,0,1.5137-.2598,2.1738-.7793v1.0527c-.6152.4468-1.4277.6699-2.4395.6699-.9902,0-1.7656-.3179-2.332-.9536-.5645-.6357-.8477-1.5303-.8477-2.6831,0-1.0894.3086-1.9766.9258-2.6626.6191-.686,1.3848-1.0288,2.3008-1.0288s1.625.2964,2.127.8887c.5.5923.752,1.415.752,2.4678v.5879ZM234.6363,65.8064c-.0059-.647-.1621-1.1509-.4688-1.5107-.3086-.3599-.7344-.54-1.2812-.54-.5293,0-.9785.189-1.3477.5674s-.5957.8726-.6836,1.4834h3.7812Z" fill="#2f2f2f"/>
    </g>
  </g>
</svg>