<?xml version="1.0" encoding="UTF-8" standalone="no"?>
<!DOCTYPE svg PUBLIC "-//W3C//DTD SVG 1.1//EN" "http://www.w3.org/Graphics/SVG/1.1/DTD/svg11.dtd">
<!-- Generated by Microsoft Visio, SVG Export azure-enclave-resource-groups-one-subscription.svg Azure Enclave RGs1 -->
<svg xmlns="http://www.w3.org/2000/svg" xmlns:xlink="http://www.w3.org/1999/xlink" xmlns:ev="http://www.w3.org/2001/xml-events"
		xmlns:v="http://schemas.microsoft.com/visio/2003/SVGExtensions/" width="32in" height="16.5in" viewBox="0 0 2304 1188"
		xml:space="preserve" color-interpolation-filters="sRGB" class="st31">
	<v:documentProperties v:langID="1033" v:viewMarkup="false">
		<v:userDefs>
			<v:ud v:nameU="msvNoAutoConnect" v:val="VT0(1):26"/>
			<v:ud v:nameU="msvWarnOnPersonalInfo" v:val="VT0(0):5"/>
		</v:userDefs>
	</v:documentProperties>

	<style type="text/css">
	<![CDATA[
		.st1 {fill:#ffffff;stroke:#00b0f0;stroke-linecap:round;stroke-linejoin:round;stroke-width:1.5}
		.st2 {fill:#7f7f7f;stroke:none;stroke-linecap:butt;stroke-width:6.375}
		.st3 {fill:#eeeaf2;stroke:#000000;stroke-linecap:round;stroke-linejoin:round;stroke-width:0.75}
		.st4 {fill:#ebf1df;stroke:#000000;stroke-linecap:round;stroke-linejoin:round;stroke-width:0.75}
		.st5 {fill:#949494;stroke:none;stroke-linecap:butt;stroke-width:0.75}
		.st6 {fill:#a3a3a3;stroke:none;stroke-linecap:butt;stroke-width:0.75}
		.st7 {fill:#32bedd;stroke:none;stroke-linecap:butt;stroke-width:0.75}
		.st8 {fill:#9cebff;stroke:none;stroke-linecap:butt;stroke-width:0.75}
		.st9 {fill:#50e6ff;stroke:none;stroke-linecap:butt;stroke-width:0.75}
		.st10 {fill:#000000;font-family:Calibri;font-size:1.16666em}
		.st11 {font-size:1em}
		.st12 {fill:#000000;font-family:Calibri;font-size:0.833336em}
		.st13 {fill:none;stroke:none;stroke-linecap:round;stroke-linejoin:round;stroke-width:0.75}
		.st14 {fill:#000000;font-family:Calibri;font-size:3em;font-stretch:semi-expanded}
		.st15 {fill:#bfbfbf;stroke:#000000;stroke-linecap:round;stroke-linejoin:round;stroke-width:0.75}
		.st16 {fill:#000000;font-family:Calibri;font-size:2.50001em;font-stretch:semi-expanded}
		.st17 {fill:#000000;font-family:Calibri;font-size:1.00001em;font-stretch:semi-expanded}
		.st18 {fill:#f2dcda;stroke:#000000;stroke-linecap:round;stroke-linejoin:round;stroke-width:0.75}
		.st19 {fill:url(#grad0-166);stroke:none;stroke-linecap:butt;stroke-width:0.75}
		.st20 {fill:url(#grad0-173);stroke:none;stroke-linecap:butt;stroke-width:0.75}
		.st21 {fill:#198ab3;stroke:none;stroke-linecap:butt;stroke-width:0.75}
		.st22 {fill:url(#grad0-179);stroke:none;stroke-linecap:butt;stroke-width:0.75}
		.st23 {fill:url(#grad0-185);stroke:none;stroke-linecap:butt;stroke-width:0.75}
		.st24 {fill:#005ba1;stroke:none;stroke-linecap:butt;stroke-width:0.75}
		.st25 {fill:url(#grad0-198);stroke:none;stroke-linecap:butt;stroke-width:0.75}
		.st26 {fill:url(#grad0-204);stroke:none;stroke-linecap:butt;stroke-width:0.75}
		.st27 {fill:#000000;font-family:Calibri;font-size:1.00001em}
		.st28 {fill:#ee0000;font-family:Calibri;font-size:3em}
		.st29 {fill:url(#grad6-355);stroke:none;stroke-linecap:butt;stroke-width:0.75}
		.st30 {fill:#ff9300;fill-opacity:0.75;stroke:none;stroke-linecap:butt;stroke-width:0.75}
		.st31 {fill:none;fill-rule:evenodd;font-size:12px;overflow:visible;stroke-linecap:square;stroke-miterlimit:3}
	]]>
	</style>

	<defs id="Patterns_And_Gradients">
		<linearGradient id="grad0-166" x1="0" y1="0" x2="1" y2="0" gradientTransform="rotate(-90 0.5 0.5)">
			<stop offset="0.245" stop-color="#32bedd" stop-opacity="1"/>
			<stop offset="0.315" stop-color="#37c5e3" stop-opacity="1"/>
			<stop offset="0.525" stop-color="#45d7f2" stop-opacity="1"/>
			<stop offset="0.75" stop-color="#4de2fc" stop-opacity="1"/>
			<stop offset="1" stop-color="#50e6ff" stop-opacity="1"/>
		</linearGradient>
		<linearGradient id="grad0-173" x1="0" y1="0" x2="1" y2="0" gradientTransform="rotate(-58.540412810574 0.5 0.5)">
			<stop offset="0.34" stop-color="#32bedd" stop-opacity="1"/>
			<stop offset="0.475" stop-color="#3dcde9" stop-opacity="1"/>
			<stop offset="0.695" stop-color="#4bdff9" stop-opacity="1"/>
			<stop offset="0.855" stop-color="#50e6ff" stop-opacity="1"/>
		</linearGradient>
		<linearGradient id="grad0-179" x1="0" y1="0" x2="1" y2="0" gradientTransform="rotate(41.908329031747 0.5 0.5)">
			<stop offset="0.01" stop-color="#198ab3" stop-opacity="1"/>
			<stop offset="0.235" stop-color="#1b8fb7" stop-opacity="1"/>
			<stop offset="0.515" stop-color="#239fc4" stop-opacity="1"/>
			<stop offset="0.83" stop-color="#2fb9d9" stop-opacity="1"/>
			<stop offset="0.88" stop-color="#32bedd" stop-opacity="1"/>
		</linearGradient>
		<linearGradient id="grad0-185" x1="0" y1="0" x2="1" y2="0" gradientTransform="rotate(-90 0.5 0.5)">
			<stop offset="0" stop-color="#50e6ff" stop-opacity="1"/>
			<stop offset="1" stop-color="#9cebff" stop-opacity="1"/>
		</linearGradient>
		<linearGradient id="grad0-198" x1="0" y1="0" x2="1" y2="0" gradientTransform="rotate(-58.539779498925 0.5 0.5)">
			<stop offset="0.34" stop-color="#32bedd" stop-opacity="1"/>
			<stop offset="0.86" stop-color="#50e6ff" stop-opacity="1"/>
		</linearGradient>
		<linearGradient id="grad0-204" x1="0" y1="0" x2="1" y2="0" gradientTransform="rotate(41.902728583134 0.5 0.5)">
			<stop offset="0.01" stop-color="#198ab3" stop-opacity="1"/>
			<stop offset="0.88" stop-color="#32bedd" stop-opacity="1"/>
		</linearGradient>
		<radialGradient id="grad6-355" cx="1" cy="0" r="1.4">
			<stop offset="0.27" stop-color="#ffd70f" stop-opacity="1"/>
			<stop offset="0.49" stop-color="#ffcb12" stop-opacity="1"/>
			<stop offset="0.88" stop-color="#feac19" stop-opacity="1"/>
			<stop offset="1" stop-color="#fea11b" stop-opacity="1"/>
		</radialGradient>
	</defs>
	<g v:mID="28" v:index="2" v:groupContext="foregroundPage">
		<v:userDefs>
			<v:ud v:nameU="msvThemeOrder" v:val="VT0(0):26"/>
			<v:ud v:nameU="visNavType" v:val="VT0(1):26"/>
		</v:userDefs>
		<title>AE RGs1</title>
		<v:pageProperties v:drawingScale="1" v:pageScale="1" v:drawingUnits="19" v:shadowOffsetX="9" v:shadowOffsetY="-9"/>
		<v:layer v:name="Container" v:index="0"/>
		<v:layer v:name="Connector" v:index="1"/>
		<g id="shape1962-1" v:mID="1962" v:groupContext="shape" transform="translate(727.312,-270)">
			<title>Rectangle.1962</title>
			<v:userDefs>
				<v:ud v:nameU="visVersion" v:val="VT0(15):26"/>
				<v:ud v:nameU="visNavOrder" v:val="VT0(266000):26"/>
			</v:userDefs>
			<rect x="0" y="371.775" width="1007.44" height="816.225" class="st1"/>
		</g>
		<g id="group2247-3" transform="translate(2038.91,307.321) rotate(90)" v:mID="2247" v:groupContext="group">
			<v:userDefs>
				<v:ud v:nameU="visNavOrder" v:val="VT0(140000):26"/>
			</v:userDefs>
			<title>Sheet.2247</title>
			<g id="shape2248-4" v:mID="2248" v:groupContext="shape">
				<title>Sheet.2248</title>
				<path d="M4.47 1166.75 L115.9 1166.75 L102.64 1180.01 C100.91 1181.74 100.91 1184.54 102.64 1186.27 C104.37 1188
							 107.18 1188 108.9 1186.27 L129.76 1165.41 C131.48 1163.77 131.55 1161.03 129.91 1159.3 C129.86 1159.25
							 129.81 1159.2 129.76 1159.15 L108.9 1138.3 C107.25 1136.57 104.52 1136.5 102.79 1138.15 C102.74 1138.2
							 102.69 1138.25 102.64 1138.3 C100.91 1139.95 100.84 1142.68 102.49 1144.41 C102.54 1144.46 102.59 1144.51
							 102.64 1144.56 L115.9 1157.83 L4.47 1157.83 C2 1157.83 0 1159.83 0 1162.3 C0 1164.77 2 1166.77 4.47
							 1166.77 L4.47 1166.75 Z" class="st2"/>
			</g>
		</g>
		<g id="group2251-6" transform="translate(2599.16,307.321) rotate(90)" v:mID="2251" v:groupContext="group">
			<v:userDefs>
				<v:ud v:nameU="visNavOrder" v:val="VT0(142000):26"/>
			</v:userDefs>
			<title>Sheet.2251</title>
			<g id="shape2252-7" v:mID="2252" v:groupContext="shape">
				<title>Sheet.2252</title>
				<path d="M4.47 1166.75 L115.9 1166.75 L102.64 1180.01 C100.91 1181.74 100.91 1184.54 102.64 1186.27 C104.37 1188
							 107.18 1188 108.9 1186.27 L129.76 1165.41 C131.48 1163.77 131.55 1161.03 129.91 1159.3 C129.86 1159.25
							 129.81 1159.2 129.76 1159.15 L108.9 1138.3 C107.25 1136.57 104.52 1136.5 102.79 1138.15 C102.74 1138.2
							 102.69 1138.25 102.64 1138.3 C100.91 1139.95 100.84 1142.68 102.49 1144.41 C102.54 1144.46 102.59 1144.51
							 102.64 1144.56 L115.9 1157.83 L4.47 1157.83 C2 1157.83 0 1159.83 0 1162.3 C0 1164.77 2 1166.77 4.47
							 1166.77 L4.47 1166.75 Z" class="st2"/>
			</g>
		</g>
		<g id="group2257-9" transform="translate(448.748,697.685) rotate(-90)" v:mID="2257" v:groupContext="group">
			<v:userDefs>
				<v:ud v:nameU="visNavOrder" v:val="VT0(145000):26"/>
			</v:userDefs>
			<title>Sheet.2257</title>
			<g id="shape2258-10" v:mID="2258" v:groupContext="shape">
				<title>Sheet.2258</title>
				<path d="M16.84 1166.75 L436.44 1166.75 L386.51 1180.01 C380 1181.74 380 1184.54 386.51 1186.27 C393.02 1188 403.58
							 1188 410.09 1186.27 L488.61 1165.41 C495.12 1163.77 495.37 1161.03 489.17 1159.3 C488.99 1159.25 488.8
							 1159.2 488.61 1159.15 L410.07 1138.3 C403.87 1136.57 393.57 1136.5 387.06 1138.15 C386.87 1138.2 386.68
							 1138.25 386.5 1138.3 C379.99 1139.95 379.74 1142.68 385.94 1144.41 C386.12 1144.46 386.31 1144.51 386.5
							 1144.56 L436.42 1157.83 L16.84 1157.83 C7.54 1157.83 0 1159.83 0 1162.3 C0 1164.77 7.54 1166.77 16.84
							 1166.77 L16.84 1166.75 Z" class="st2"/>
			</g>
		</g>
		<g id="group2255-12" transform="translate(99,612) rotate(-90)" v:mID="2255" v:groupContext="group">
			<v:userDefs>
				<v:ud v:nameU="visNavOrder" v:val="VT0(144000):26"/>
			</v:userDefs>
			<title>Sheet.2255</title>
			<g id="shape2256-13" v:mID="2256" v:groupContext="shape">
				<title>Sheet.2256</title>
				<path d="M14.07 1166.75 L364.75 1166.75 L323.02 1180.01 C317.58 1181.74 317.58 1184.54 323.02 1186.27 C328.46 1188
							 337.29 1188 342.73 1186.27 L408.35 1165.41 C413.79 1163.77 414 1161.03 408.82 1159.3 C408.67 1159.25
							 408.51 1159.2 408.35 1159.15 L342.71 1138.3 C337.53 1136.57 328.92 1136.5 323.48 1138.15 C323.32 1138.2
							 323.16 1138.25 323.01 1138.3 C317.57 1139.95 317.36 1142.68 322.54 1144.41 C322.69 1144.46 322.85 1144.51
							 323.01 1144.56 L364.73 1157.83 L14.07 1157.83 C6.3 1157.83 0 1159.83 0 1162.3 C0 1164.77 6.3 1166.77
							 14.07 1166.77 L14.07 1166.75 Z" class="st2"/>
			</g>
		</g>
		<g id="shape2028-15" v:mID="2028" v:groupContext="shape" transform="translate(1278,-519.75)">
			<title>Rectangle.2028</title>
			<v:userDefs>
				<v:ud v:nameU="visVersion" v:val="VT0(15):26"/>
				<v:ud v:nameU="visNavOrder" v:val="VT0(122000):26"/>
			</v:userDefs>
			<rect x="0" y="1044.65" width="310.5" height="143.354" class="st3"/>
		</g>
		<g id="shape2029-17" v:mID="2029" v:groupContext="shape" transform="translate(737.155,-507.531)">
			<title>Rectangle.2029</title>
			<v:userDefs>
				<v:ud v:nameU="visVersion" v:val="VT0(15):26"/>
				<v:ud v:nameU="visNavOrder" v:val="VT0(120000):26"/>
			</v:userDefs>
			<rect x="0" y="1032.59" width="279" height="155.406" class="st4"/>
		</g>
		<g id="group2030-19" transform="translate(857.418,-710.721)" v:mID="2030" v:groupContext="group">
			<v:userDefs>
				<v:ud v:nameU="msvDisableCustomConnectionPoints" v:prompt="" v:val="VT0(1):5"/>
				<v:ud v:nameU="visNavOrder" v:prompt="" v:val="VT0(91000):26"/>
			</v:userDefs>
			<title>Resource Groups.2030</title>
			<desc>Resource Group</desc>
			<g id="group2031-20" v:mID="2031" v:groupContext="group">
				<v:userDefs>
					<v:ud v:nameU="msvDisableCustomConnectionPoints" v:prompt="" v:val="VT0(1):5"/>
				</v:userDefs>
				<title>Sheet.2031</title>
				<g id="group2032-21" v:mID="2032" v:groupContext="group">
					<v:userDefs>
						<v:ud v:nameU="msvDisableCustomConnectionPoints" v:prompt="" v:val="VT0(1):5"/>
					</v:userDefs>
					<title>Sheet.2032</title>
					<g id="shape2033-22" v:mID="2033" v:groupContext="shape">
						<title>Sheet.2033</title>
						<v:userDefs>
							<v:ud v:nameU="msvDisableCustomConnectionPoints" v:prompt="" v:val="VT0(1):5"/>
						</v:userDefs>
						<path d="M0 1183.62 a0.36212 0.36212 -180 0 0 0.18106 0.316855 L2.81 1185.4 L7.24 1187.96 a0.384752 0.384752
									 -180 0 0 0.520547 -0.135795 L9.26 1185.29 a0.36212 0.36212 -180 0 0 -0.135795 -0.475282 L3.92
									 1181.87 a0.384752 0.384752 0 0 1 -0.18106 -0.316855 L3.73 1158.2 a0.36212 0.36212 0 0 1 0.18106
									 -0.316855 L9.12 1154.94 a0.36212 0.36212 -180 0 0 0.135795 -0.475282 L7.76 1151.93 a0.384752
									 0.384752 -180 0 0 -0.520547 -0.18106 L2.9 1154.26 L0.18 1155.78 a0.36212 0.36212 -180 0 0 -0.18106
									 0.316855 L0 1183.62 Z" class="st5"/>
					</g>
					<g id="shape2034-24" v:mID="2034" v:groupContext="shape" transform="translate(0,-29.981)">
						<title>Sheet.2034</title>
						<v:userDefs>
							<v:ud v:nameU="msvDisableCustomConnectionPoints" v:prompt="" v:val="VT0(1):5"/>
						</v:userDefs>
						<path d="M3.71 1188 L3.85 1187.86 L9.05 1184.92 a0.316855 0.316855 -180 0 0 0.135795 -0.475282 L7.7 1181.91
									 a0.339487 0.339487 -180 0 0 -0.497915 -0.18106 L2.83 1184.24 L0.14 1185.76 C0.14 1185.76 0.02
									 1185.76 0 1185.9 L2.04 1187.05 L3.71 1188 Z" class="st6"/>
					</g>
					<g id="shape2035-26" v:mID="2035" v:groupContext="shape" transform="translate(0.0226325,-0.0819243)">
						<title>Sheet.2035</title>
						<v:userDefs>
							<v:ud v:nameU="msvDisableCustomConnectionPoints" v:prompt="" v:val="VT0(1):5"/>
						</v:userDefs>
						<path d="M9.03 1184.85 L3.82 1181.91 a0.497915 0.497915 0 0 1 -0.158427 -0.203692 L0 1183.97 L0.11 1183.97
									 L2.72 1185.44 L7.24 1187.95 a0.339487 0.339487 -180 0 0 0.497915 -0.135795 L9.23 1185.28 a0.316855
									 0.316855 -180 0 0 -0.203692 -0.430017 Z" class="st6"/>
					</g>
				</g>
				<g id="shape2036-28" v:mID="2036" v:groupContext="shape" transform="translate(29.1927,0)">
					<title>Sheet.2036</title>
					<v:userDefs>
						<v:ud v:nameU="msvDisableCustomConnectionPoints" v:prompt="" v:val="VT0(1):5"/>
					</v:userDefs>
					<path d="M9.28 1183.62 a0.36212 0.36212 0 0 1 -0.18106 0.316855 L6.48 1185.4 L2.04 1187.96 a0.384752 0.384752
								 0 0 1 -0.520547 -0.135795 L0.03 1185.29 a0.36212 0.36212 0 0 1 0.135795 -0.475282 L5.37 1181.87
								 a0.384752 0.384752 -180 0 0 0.18106 -0.316855 L5.55 1158.2 a0.36212 0.36212 -180 0 0 -0.18106 -0.316855
								 L0.16 1154.94 a0.36212 0.36212 0 0 1 -0.135795 -0.475282 L1.52 1151.93 a0.384752 0.384752 0 0 1
								 0.520547 -0.18106 L6.39 1154.22 L9.1 1155.73 a0.36212 0.36212 0 0 1 0.18106 0.316855 L9.28 1183.62
								 Z" class="st5"/>
				</g>
				<g id="shape2037-30" v:mID="2037" v:groupContext="shape" transform="translate(29.2403,-29.981)">
					<title>Sheet.2037</title>
					<v:userDefs>
						<v:ud v:nameU="msvDisableCustomConnectionPoints" v:prompt="" v:val="VT0(1):5"/>
					</v:userDefs>
					<path d="M5.52 1188 L5.39 1187.86 L0.18 1184.92 a0.316855 0.316855 0 0 1 -0.135795 -0.475282 L1.54 1181.91 a0.339487
								 0.339487 0 0 1 0.497915 -0.18106 L6.41 1184.2 L9.1 1185.71 C9.1 1185.71 9.1 1185.71 9.23 1185.85
								 L7.2 1187 L5.52 1188 Z" class="st6"/>
				</g>
				<g id="shape2038-32" v:mID="2038" v:groupContext="shape" transform="translate(29.2903,-0.0819243)">
					<title>Sheet.2038</title>
					<v:userDefs>
						<v:ud v:nameU="msvDisableCustomConnectionPoints" v:prompt="" v:val="VT0(1):5"/>
					</v:userDefs>
					<path d="M0.13 1184.85 L5.34 1181.91 a0.497915 0.497915 -180 0 0 0.158427 -0.203692 L9.16 1183.97 L6.56 1185.44
								 L2.03 1187.95 a0.339487 0.339487 0 0 1 -0.497915 -0.135795 L0.04 1185.28 a0.316855 0.316855 0 0
								 1 0.0905299 -0.430017 Z" class="st6"/>
				</g>
				<g id="shape2039-34" v:mID="2039" v:groupContext="shape" transform="translate(19.215,-4.20258)">
					<title>Sheet.2039</title>
					<v:userDefs>
						<v:ud v:nameU="msvDisableCustomConnectionPoints" v:prompt="" v:val="VT0(1):5"/>
					</v:userDefs>
					<path d="M12.04 1167.11 L12.04 1181.01 L0 1188 L0 1174.08 L12.04 1167.11 Z" class="st7"/>
				</g>
				<g id="shape2040-36" v:mID="2040" v:groupContext="shape" transform="translate(7.19713,-18.0989)">
					<title>Sheet.2040</title>
					<v:userDefs>
						<v:ud v:nameU="msvDisableCustomConnectionPoints" v:prompt="" v:val="VT0(1):5"/>
					</v:userDefs>
					<path d="M24.06 1181.01 L12.04 1188 L0 1181.01 L12.04 1174.01 L24.06 1181.01 Z" class="st8"/>
				</g>
				<g id="shape2041-38" v:mID="2041" v:groupContext="shape" transform="translate(7.19713,-4.20258)">
					<title>Sheet.2041</title>
					<v:userDefs>
						<v:ud v:nameU="msvDisableCustomConnectionPoints" v:prompt="" v:val="VT0(1):5"/>
					</v:userDefs>
					<path d="M12.02 1174.1 L12.02 1188 L0 1181.01 L0 1167.11 L12.02 1174.1 Z" class="st9"/>
				</g>
				<g id="shape2042-40" v:mID="2042" v:groupContext="shape" transform="translate(7.19713,-4.20258)">
					<title>Sheet.2042</title>
					<v:userDefs>
						<v:ud v:nameU="msvDisableCustomConnectionPoints" v:prompt="" v:val="VT0(1):5"/>
					</v:userDefs>
					<path d="M0 1181.01 L12.02 1174.08 L12.02 1188 L0 1181.01 Z" class="st8"/>
				</g>
				<g id="shape2043-42" v:mID="2043" v:groupContext="shape" transform="translate(19.215,-4.20258)">
					<title>Sheet.2043</title>
					<v:userDefs>
						<v:ud v:nameU="msvDisableCustomConnectionPoints" v:prompt="" v:val="VT0(1):5"/>
					</v:userDefs>
					<path d="M12.04 1181.01 L0 1174.08 L0 1188 L12.04 1181.01 Z" class="st9"/>
				</g>
			</g>
			<g id="shape2030-44" v:mID="2030" v:groupContext="groupContent">
				<v:textBlock v:margins="rect(0,0,0,0)"/>
				<v:textRect cx="19.2376" cy="1208.16" width="72" height="33.6033"/>
				<text x="-7.04" y="1203.96" class="st10" v:langID="1033"><v:paragraph v:horizAlign="1"/><v:tabList/>Resource <tspan
							x="1.33" dy="1.2em" class="st11">Group</tspan></text>			</g>
		</g>
		<g id="group2048-47" transform="translate(1417.67,-708.75)" v:mID="2048" v:groupContext="group">
			<v:userDefs>
				<v:ud v:nameU="msvDisableCustomConnectionPoints" v:prompt="" v:val="VT0(1):5"/>
				<v:ud v:nameU="visNavOrder" v:prompt="" v:val="VT0(96000):26"/>
			</v:userDefs>
			<title>Resource Groups.2048</title>
			<desc>Resource Group</desc>
			<g id="group2049-48" v:mID="2049" v:groupContext="group">
				<v:userDefs>
					<v:ud v:nameU="msvDisableCustomConnectionPoints" v:prompt="" v:val="VT0(1):5"/>
				</v:userDefs>
				<title>Sheet.2049</title>
				<g id="group2050-49" v:mID="2050" v:groupContext="group">
					<v:userDefs>
						<v:ud v:nameU="msvDisableCustomConnectionPoints" v:prompt="" v:val="VT0(1):5"/>
					</v:userDefs>
					<title>Sheet.2050</title>
					<g id="shape2051-50" v:mID="2051" v:groupContext="shape">
						<title>Sheet.2051</title>
						<v:userDefs>
							<v:ud v:nameU="msvDisableCustomConnectionPoints" v:prompt="" v:val="VT0(1):5"/>
						</v:userDefs>
						<path d="M0 1183.62 a0.36212 0.36212 -180 0 0 0.18106 0.316855 L2.81 1185.4 L7.24 1187.96 a0.384752 0.384752
									 -180 0 0 0.520547 -0.135795 L9.26 1185.29 a0.36212 0.36212 -180 0 0 -0.135795 -0.475282 L3.92
									 1181.87 a0.384752 0.384752 0 0 1 -0.18106 -0.316855 L3.73 1158.2 a0.36212 0.36212 0 0 1 0.18106
									 -0.316855 L9.12 1154.94 a0.36212 0.36212 -180 0 0 0.135795 -0.475282 L7.76 1151.93 a0.384752
									 0.384752 -180 0 0 -0.520547 -0.18106 L2.9 1154.26 L0.18 1155.78 a0.36212 0.36212 -180 0 0 -0.18106
									 0.316855 L0 1183.62 Z" class="st5"/>
					</g>
					<g id="shape2052-52" v:mID="2052" v:groupContext="shape" transform="translate(0,-29.981)">
						<title>Sheet.2052</title>
						<v:userDefs>
							<v:ud v:nameU="msvDisableCustomConnectionPoints" v:prompt="" v:val="VT0(1):5"/>
						</v:userDefs>
						<path d="M3.71 1188 L3.85 1187.86 L9.05 1184.92 a0.316855 0.316855 -180 0 0 0.135795 -0.475282 L7.7 1181.91
									 a0.339487 0.339487 -180 0 0 -0.497915 -0.18106 L2.83 1184.24 L0.14 1185.76 C0.14 1185.76 0.02
									 1185.76 0 1185.9 L2.04 1187.05 L3.71 1188 Z" class="st6"/>
					</g>
					<g id="shape2053-54" v:mID="2053" v:groupContext="shape" transform="translate(0.0226325,-0.0819243)">
						<title>Sheet.2053</title>
						<v:userDefs>
							<v:ud v:nameU="msvDisableCustomConnectionPoints" v:prompt="" v:val="VT0(1):5"/>
						</v:userDefs>
						<path d="M9.03 1184.85 L3.82 1181.91 a0.497915 0.497915 0 0 1 -0.158427 -0.203692 L0 1183.97 L0.11 1183.97
									 L2.72 1185.44 L7.24 1187.95 a0.339487 0.339487 -180 0 0 0.497915 -0.135795 L9.23 1185.28 a0.316855
									 0.316855 -180 0 0 -0.203692 -0.430017 Z" class="st6"/>
					</g>
				</g>
				<g id="shape2054-56" v:mID="2054" v:groupContext="shape" transform="translate(29.1927,0)">
					<title>Sheet.2054</title>
					<v:userDefs>
						<v:ud v:nameU="msvDisableCustomConnectionPoints" v:prompt="" v:val="VT0(1):5"/>
					</v:userDefs>
					<path d="M9.28 1183.62 a0.36212 0.36212 0 0 1 -0.18106 0.316855 L6.48 1185.4 L2.04 1187.96 a0.384752 0.384752
								 0 0 1 -0.520547 -0.135795 L0.03 1185.29 a0.36212 0.36212 0 0 1 0.135795 -0.475282 L5.37 1181.87
								 a0.384752 0.384752 -180 0 0 0.18106 -0.316855 L5.55 1158.2 a0.36212 0.36212 -180 0 0 -0.18106 -0.316855
								 L0.16 1154.94 a0.36212 0.36212 0 0 1 -0.135795 -0.475282 L1.52 1151.93 a0.384752 0.384752 0 0 1
								 0.520547 -0.18106 L6.39 1154.22 L9.1 1155.73 a0.36212 0.36212 0 0 1 0.18106 0.316855 L9.28 1183.62
								 Z" class="st5"/>
				</g>
				<g id="shape2055-58" v:mID="2055" v:groupContext="shape" transform="translate(29.2403,-29.981)">
					<title>Sheet.2055</title>
					<v:userDefs>
						<v:ud v:nameU="msvDisableCustomConnectionPoints" v:prompt="" v:val="VT0(1):5"/>
					</v:userDefs>
					<path d="M5.52 1188 L5.39 1187.86 L0.18 1184.92 a0.316855 0.316855 0 0 1 -0.135795 -0.475282 L1.54 1181.91 a0.339487
								 0.339487 0 0 1 0.497915 -0.18106 L6.41 1184.2 L9.1 1185.71 C9.1 1185.71 9.1 1185.71 9.23 1185.85
								 L7.2 1187 L5.52 1188 Z" class="st6"/>
				</g>
				<g id="shape2056-60" v:mID="2056" v:groupContext="shape" transform="translate(29.2903,-0.0819243)">
					<title>Sheet.2056</title>
					<v:userDefs>
						<v:ud v:nameU="msvDisableCustomConnectionPoints" v:prompt="" v:val="VT0(1):5"/>
					</v:userDefs>
					<path d="M0.13 1184.85 L5.34 1181.91 a0.497915 0.497915 -180 0 0 0.158427 -0.203692 L9.16 1183.97 L6.56 1185.44
								 L2.03 1187.95 a0.339487 0.339487 0 0 1 -0.497915 -0.135795 L0.04 1185.28 a0.316855 0.316855 0 0
								 1 0.0905299 -0.430017 Z" class="st6"/>
				</g>
				<g id="shape2057-62" v:mID="2057" v:groupContext="shape" transform="translate(19.215,-4.20258)">
					<title>Sheet.2057</title>
					<v:userDefs>
						<v:ud v:nameU="msvDisableCustomConnectionPoints" v:prompt="" v:val="VT0(1):5"/>
					</v:userDefs>
					<path d="M12.04 1167.11 L12.04 1181.01 L0 1188 L0 1174.08 L12.04 1167.11 Z" class="st7"/>
				</g>
				<g id="shape2058-64" v:mID="2058" v:groupContext="shape" transform="translate(7.19713,-18.0989)">
					<title>Sheet.2058</title>
					<v:userDefs>
						<v:ud v:nameU="msvDisableCustomConnectionPoints" v:prompt="" v:val="VT0(1):5"/>
					</v:userDefs>
					<path d="M24.06 1181.01 L12.04 1188 L0 1181.01 L12.04 1174.01 L24.06 1181.01 Z" class="st8"/>
				</g>
				<g id="shape2059-66" v:mID="2059" v:groupContext="shape" transform="translate(7.19713,-4.20258)">
					<title>Sheet.2059</title>
					<v:userDefs>
						<v:ud v:nameU="msvDisableCustomConnectionPoints" v:prompt="" v:val="VT0(1):5"/>
					</v:userDefs>
					<path d="M12.02 1174.1 L12.02 1188 L0 1181.01 L0 1167.11 L12.02 1174.1 Z" class="st9"/>
				</g>
				<g id="shape2060-68" v:mID="2060" v:groupContext="shape" transform="translate(7.19713,-4.20258)">
					<title>Sheet.2060</title>
					<v:userDefs>
						<v:ud v:nameU="msvDisableCustomConnectionPoints" v:prompt="" v:val="VT0(1):5"/>
					</v:userDefs>
					<path d="M0 1181.01 L12.02 1174.08 L12.02 1188 L0 1181.01 Z" class="st8"/>
				</g>
				<g id="shape2061-70" v:mID="2061" v:groupContext="shape" transform="translate(19.215,-4.20258)">
					<title>Sheet.2061</title>
					<v:userDefs>
						<v:ud v:nameU="msvDisableCustomConnectionPoints" v:prompt="" v:val="VT0(1):5"/>
					</v:userDefs>
					<path d="M12.04 1181.01 L0 1174.08 L0 1188 L12.04 1181.01 Z" class="st9"/>
				</g>
			</g>
			<g id="shape2048-72" v:mID="2048" v:groupContext="groupContent">
				<v:textBlock v:margins="rect(0,0,0,0)"/>
				<v:textRect cx="19.2376" cy="1208.16" width="72" height="33.6033"/>
				<text x="-7.04" y="1203.96" class="st10" v:langID="1033"><v:paragraph v:horizAlign="1"/><v:tabList/>Resource <tspan
							x="1.33" dy="1.2em" class="st11">Group</tspan></text>			</g>
		</g>
		<g id="group2062-75" transform="translate(1469.02,-408.095)" v:mID="2062" v:groupContext="group">
			<v:userDefs>
				<v:ud v:nameU="msvDisableCustomConnectionPoints" v:prompt="" v:val="VT0(1):5"/>
				<v:ud v:nameU="visNavOrder" v:prompt="" v:val="VT0(97000):26"/>
			</v:userDefs>
			<title>Resource Groups.2062</title>
			<desc>Resource Group</desc>
			<g id="group2063-76" v:mID="2063" v:groupContext="group">
				<v:userDefs>
					<v:ud v:nameU="msvDisableCustomConnectionPoints" v:prompt="" v:val="VT0(1):5"/>
				</v:userDefs>
				<title>Sheet.2063</title>
				<g id="group2064-77" v:mID="2064" v:groupContext="group">
					<v:userDefs>
						<v:ud v:nameU="msvDisableCustomConnectionPoints" v:prompt="" v:val="VT0(1):5"/>
					</v:userDefs>
					<title>Sheet.2064</title>
					<g id="shape2065-78" v:mID="2065" v:groupContext="shape">
						<title>Sheet.2065</title>
						<v:userDefs>
							<v:ud v:nameU="msvDisableCustomConnectionPoints" v:prompt="" v:val="VT0(1):5"/>
						</v:userDefs>
						<path d="M0 1183.62 a0.36212 0.36212 -180 0 0 0.18106 0.316855 L2.81 1185.4 L7.24 1187.96 a0.384752 0.384752
									 -180 0 0 0.520547 -0.135795 L9.26 1185.29 a0.36212 0.36212 -180 0 0 -0.135795 -0.475282 L3.92
									 1181.87 a0.384752 0.384752 0 0 1 -0.18106 -0.316855 L3.73 1158.2 a0.36212 0.36212 0 0 1 0.18106
									 -0.316855 L9.12 1154.94 a0.36212 0.36212 -180 0 0 0.135795 -0.475282 L7.76 1151.93 a0.384752
									 0.384752 -180 0 0 -0.520547 -0.18106 L2.9 1154.26 L0.18 1155.78 a0.36212 0.36212 -180 0 0 -0.18106
									 0.316855 L0 1183.62 Z" class="st5"/>
					</g>
					<g id="shape2066-80" v:mID="2066" v:groupContext="shape" transform="translate(0,-29.981)">
						<title>Sheet.2066</title>
						<v:userDefs>
							<v:ud v:nameU="msvDisableCustomConnectionPoints" v:prompt="" v:val="VT0(1):5"/>
						</v:userDefs>
						<path d="M3.71 1188 L3.85 1187.86 L9.05 1184.92 a0.316855 0.316855 -180 0 0 0.135795 -0.475282 L7.7 1181.91
									 a0.339487 0.339487 -180 0 0 -0.497915 -0.18106 L2.83 1184.24 L0.14 1185.76 C0.14 1185.76 0.02
									 1185.76 0 1185.9 L2.04 1187.05 L3.71 1188 Z" class="st6"/>
					</g>
					<g id="shape2067-82" v:mID="2067" v:groupContext="shape" transform="translate(0.0226325,-0.0819243)">
						<title>Sheet.2067</title>
						<v:userDefs>
							<v:ud v:nameU="msvDisableCustomConnectionPoints" v:prompt="" v:val="VT0(1):5"/>
						</v:userDefs>
						<path d="M9.03 1184.85 L3.82 1181.91 a0.497915 0.497915 0 0 1 -0.158427 -0.203692 L0 1183.97 L0.11 1183.97
									 L2.72 1185.44 L7.24 1187.95 a0.339487 0.339487 -180 0 0 0.497915 -0.135795 L9.23 1185.28 a0.316855
									 0.316855 -180 0 0 -0.203692 -0.430017 Z" class="st6"/>
					</g>
				</g>
				<g id="shape2068-84" v:mID="2068" v:groupContext="shape" transform="translate(29.1927,0)">
					<title>Sheet.2068</title>
					<v:userDefs>
						<v:ud v:nameU="msvDisableCustomConnectionPoints" v:prompt="" v:val="VT0(1):5"/>
					</v:userDefs>
					<path d="M9.28 1183.62 a0.36212 0.36212 0 0 1 -0.18106 0.316855 L6.48 1185.4 L2.04 1187.96 a0.384752 0.384752
								 0 0 1 -0.520547 -0.135795 L0.03 1185.29 a0.36212 0.36212 0 0 1 0.135795 -0.475282 L5.37 1181.87
								 a0.384752 0.384752 -180 0 0 0.18106 -0.316855 L5.55 1158.2 a0.36212 0.36212 -180 0 0 -0.18106 -0.316855
								 L0.16 1154.94 a0.36212 0.36212 0 0 1 -0.135795 -0.475282 L1.52 1151.93 a0.384752 0.384752 0 0 1
								 0.520547 -0.18106 L6.39 1154.22 L9.1 1155.73 a0.36212 0.36212 0 0 1 0.18106 0.316855 L9.28 1183.62
								 Z" class="st5"/>
				</g>
				<g id="shape2069-86" v:mID="2069" v:groupContext="shape" transform="translate(29.2403,-29.981)">
					<title>Sheet.2069</title>
					<v:userDefs>
						<v:ud v:nameU="msvDisableCustomConnectionPoints" v:prompt="" v:val="VT0(1):5"/>
					</v:userDefs>
					<path d="M5.52 1188 L5.39 1187.86 L0.18 1184.92 a0.316855 0.316855 0 0 1 -0.135795 -0.475282 L1.54 1181.91 a0.339487
								 0.339487 0 0 1 0.497915 -0.18106 L6.41 1184.2 L9.1 1185.71 C9.1 1185.71 9.1 1185.71 9.23 1185.85
								 L7.2 1187 L5.52 1188 Z" class="st6"/>
				</g>
				<g id="shape2070-88" v:mID="2070" v:groupContext="shape" transform="translate(29.2903,-0.0819243)">
					<title>Sheet.2070</title>
					<v:userDefs>
						<v:ud v:nameU="msvDisableCustomConnectionPoints" v:prompt="" v:val="VT0(1):5"/>
					</v:userDefs>
					<path d="M0.13 1184.85 L5.34 1181.91 a0.497915 0.497915 -180 0 0 0.158427 -0.203692 L9.16 1183.97 L6.56 1185.44
								 L2.03 1187.95 a0.339487 0.339487 0 0 1 -0.497915 -0.135795 L0.04 1185.28 a0.316855 0.316855 0 0
								 1 0.0905299 -0.430017 Z" class="st6"/>
				</g>
				<g id="shape2071-90" v:mID="2071" v:groupContext="shape" transform="translate(19.215,-4.20258)">
					<title>Sheet.2071</title>
					<v:userDefs>
						<v:ud v:nameU="msvDisableCustomConnectionPoints" v:prompt="" v:val="VT0(1):5"/>
					</v:userDefs>
					<path d="M12.04 1167.11 L12.04 1181.01 L0 1188 L0 1174.08 L12.04 1167.11 Z" class="st7"/>
				</g>
				<g id="shape2072-92" v:mID="2072" v:groupContext="shape" transform="translate(7.19713,-18.0989)">
					<title>Sheet.2072</title>
					<v:userDefs>
						<v:ud v:nameU="msvDisableCustomConnectionPoints" v:prompt="" v:val="VT0(1):5"/>
					</v:userDefs>
					<path d="M24.06 1181.01 L12.04 1188 L0 1181.01 L12.04 1174.01 L24.06 1181.01 Z" class="st8"/>
				</g>
				<g id="shape2073-94" v:mID="2073" v:groupContext="shape" transform="translate(7.19713,-4.20258)">
					<title>Sheet.2073</title>
					<v:userDefs>
						<v:ud v:nameU="msvDisableCustomConnectionPoints" v:prompt="" v:val="VT0(1):5"/>
					</v:userDefs>
					<path d="M12.02 1174.1 L12.02 1188 L0 1181.01 L0 1167.11 L12.02 1174.1 Z" class="st9"/>
				</g>
				<g id="shape2074-96" v:mID="2074" v:groupContext="shape" transform="translate(7.19713,-4.20258)">
					<title>Sheet.2074</title>
					<v:userDefs>
						<v:ud v:nameU="msvDisableCustomConnectionPoints" v:prompt="" v:val="VT0(1):5"/>
					</v:userDefs>
					<path d="M0 1181.01 L12.02 1174.08 L12.02 1188 L0 1181.01 Z" class="st8"/>
				</g>
				<g id="shape2075-98" v:mID="2075" v:groupContext="shape" transform="translate(19.215,-4.20258)">
					<title>Sheet.2075</title>
					<v:userDefs>
						<v:ud v:nameU="msvDisableCustomConnectionPoints" v:prompt="" v:val="VT0(1):5"/>
					</v:userDefs>
					<path d="M12.04 1181.01 L0 1174.08 L0 1188 L12.04 1181.01 Z" class="st9"/>
				</g>
			</g>
			<g id="shape2062-100" v:mID="2062" v:groupContext="groupContent">
				<v:textBlock v:margins="rect(0,0,0,0)"/>
				<v:textRect cx="19.2376" cy="1195.2" width="72" height="12.0036"/>
				<text x="-13.45" y="1198.2" class="st12" v:langID="1033"><v:paragraph v:horizAlign="1"/><v:tabList/>Resource Group</text>			</g>
		</g>
		<g id="group2076-102" transform="translate(1118.84,-390.374)" v:mID="2076" v:groupContext="group">
			<v:userDefs>
				<v:ud v:nameU="msvDisableCustomConnectionPoints" v:prompt="" v:val="VT0(1):5"/>
				<v:ud v:nameU="visNavOrder" v:prompt="" v:val="VT0(98000):26"/>
			</v:userDefs>
			<title>Resource Groups.2076</title>
			<desc>Resource Group</desc>
			<g id="group2077-103" v:mID="2077" v:groupContext="group">
				<v:userDefs>
					<v:ud v:nameU="msvDisableCustomConnectionPoints" v:prompt="" v:val="VT0(1):5"/>
				</v:userDefs>
				<title>Sheet.2077</title>
				<g id="group2078-104" v:mID="2078" v:groupContext="group">
					<v:userDefs>
						<v:ud v:nameU="msvDisableCustomConnectionPoints" v:prompt="" v:val="VT0(1):5"/>
					</v:userDefs>
					<title>Sheet.2078</title>
					<g id="shape2079-105" v:mID="2079" v:groupContext="shape">
						<title>Sheet.2079</title>
						<v:userDefs>
							<v:ud v:nameU="msvDisableCustomConnectionPoints" v:prompt="" v:val="VT0(1):5"/>
						</v:userDefs>
						<path d="M0 1183.62 a0.36212 0.36212 -180 0 0 0.18106 0.316855 L2.81 1185.4 L7.24 1187.96 a0.384752 0.384752
									 -180 0 0 0.520547 -0.135795 L9.26 1185.29 a0.36212 0.36212 -180 0 0 -0.135795 -0.475282 L3.92
									 1181.87 a0.384752 0.384752 0 0 1 -0.18106 -0.316855 L3.73 1158.2 a0.36212 0.36212 0 0 1 0.18106
									 -0.316855 L9.12 1154.94 a0.36212 0.36212 -180 0 0 0.135795 -0.475282 L7.76 1151.93 a0.384752
									 0.384752 -180 0 0 -0.520547 -0.18106 L2.9 1154.26 L0.18 1155.78 a0.36212 0.36212 -180 0 0 -0.18106
									 0.316855 L0 1183.62 Z" class="st5"/>
					</g>
					<g id="shape2080-107" v:mID="2080" v:groupContext="shape" transform="translate(0,-29.981)">
						<title>Sheet.2080</title>
						<v:userDefs>
							<v:ud v:nameU="msvDisableCustomConnectionPoints" v:prompt="" v:val="VT0(1):5"/>
						</v:userDefs>
						<path d="M3.71 1188 L3.85 1187.86 L9.05 1184.92 a0.316855 0.316855 -180 0 0 0.135795 -0.475282 L7.7 1181.91
									 a0.339487 0.339487 -180 0 0 -0.497915 -0.18106 L2.83 1184.24 L0.14 1185.76 C0.14 1185.76 0.02
									 1185.76 0 1185.9 L2.04 1187.05 L3.71 1188 Z" class="st6"/>
					</g>
					<g id="shape2081-109" v:mID="2081" v:groupContext="shape" transform="translate(0.0226325,-0.0819243)">
						<title>Sheet.2081</title>
						<v:userDefs>
							<v:ud v:nameU="msvDisableCustomConnectionPoints" v:prompt="" v:val="VT0(1):5"/>
						</v:userDefs>
						<path d="M9.03 1184.85 L3.82 1181.91 a0.497915 0.497915 0 0 1 -0.158427 -0.203692 L0 1183.97 L0.11 1183.97
									 L2.72 1185.44 L7.24 1187.95 a0.339487 0.339487 -180 0 0 0.497915 -0.135795 L9.23 1185.28 a0.316855
									 0.316855 -180 0 0 -0.203692 -0.430017 Z" class="st6"/>
					</g>
				</g>
				<g id="shape2082-111" v:mID="2082" v:groupContext="shape" transform="translate(29.1927,0)">
					<title>Sheet.2082</title>
					<v:userDefs>
						<v:ud v:nameU="msvDisableCustomConnectionPoints" v:prompt="" v:val="VT0(1):5"/>
					</v:userDefs>
					<path d="M9.28 1183.62 a0.36212 0.36212 0 0 1 -0.18106 0.316855 L6.48 1185.4 L2.04 1187.96 a0.384752 0.384752
								 0 0 1 -0.520547 -0.135795 L0.03 1185.29 a0.36212 0.36212 0 0 1 0.135795 -0.475282 L5.37 1181.87
								 a0.384752 0.384752 -180 0 0 0.18106 -0.316855 L5.55 1158.2 a0.36212 0.36212 -180 0 0 -0.18106 -0.316855
								 L0.16 1154.94 a0.36212 0.36212 0 0 1 -0.135795 -0.475282 L1.52 1151.93 a0.384752 0.384752 0 0 1
								 0.520547 -0.18106 L6.39 1154.22 L9.1 1155.73 a0.36212 0.36212 0 0 1 0.18106 0.316855 L9.28 1183.62
								 Z" class="st5"/>
				</g>
				<g id="shape2083-113" v:mID="2083" v:groupContext="shape" transform="translate(29.2403,-29.981)">
					<title>Sheet.2083</title>
					<v:userDefs>
						<v:ud v:nameU="msvDisableCustomConnectionPoints" v:prompt="" v:val="VT0(1):5"/>
					</v:userDefs>
					<path d="M5.52 1188 L5.39 1187.86 L0.18 1184.92 a0.316855 0.316855 0 0 1 -0.135795 -0.475282 L1.54 1181.91 a0.339487
								 0.339487 0 0 1 0.497915 -0.18106 L6.41 1184.2 L9.1 1185.71 C9.1 1185.71 9.1 1185.71 9.23 1185.85
								 L7.2 1187 L5.52 1188 Z" class="st6"/>
				</g>
				<g id="shape2084-115" v:mID="2084" v:groupContext="shape" transform="translate(29.2903,-0.0819243)">
					<title>Sheet.2084</title>
					<v:userDefs>
						<v:ud v:nameU="msvDisableCustomConnectionPoints" v:prompt="" v:val="VT0(1):5"/>
					</v:userDefs>
					<path d="M0.13 1184.85 L5.34 1181.91 a0.497915 0.497915 -180 0 0 0.158427 -0.203692 L9.16 1183.97 L6.56 1185.44
								 L2.03 1187.95 a0.339487 0.339487 0 0 1 -0.497915 -0.135795 L0.04 1185.28 a0.316855 0.316855 0 0
								 1 0.0905299 -0.430017 Z" class="st6"/>
				</g>
				<g id="shape2085-117" v:mID="2085" v:groupContext="shape" transform="translate(19.215,-4.20258)">
					<title>Sheet.2085</title>
					<v:userDefs>
						<v:ud v:nameU="msvDisableCustomConnectionPoints" v:prompt="" v:val="VT0(1):5"/>
					</v:userDefs>
					<path d="M12.04 1167.11 L12.04 1181.01 L0 1188 L0 1174.08 L12.04 1167.11 Z" class="st7"/>
				</g>
				<g id="shape2086-119" v:mID="2086" v:groupContext="shape" transform="translate(7.19713,-18.0989)">
					<title>Sheet.2086</title>
					<v:userDefs>
						<v:ud v:nameU="msvDisableCustomConnectionPoints" v:prompt="" v:val="VT0(1):5"/>
					</v:userDefs>
					<path d="M24.06 1181.01 L12.04 1188 L0 1181.01 L12.04 1174.01 L24.06 1181.01 Z" class="st8"/>
				</g>
				<g id="shape2087-121" v:mID="2087" v:groupContext="shape" transform="translate(7.19713,-4.20258)">
					<title>Sheet.2087</title>
					<v:userDefs>
						<v:ud v:nameU="msvDisableCustomConnectionPoints" v:prompt="" v:val="VT0(1):5"/>
					</v:userDefs>
					<path d="M12.02 1174.1 L12.02 1188 L0 1181.01 L0 1167.11 L12.02 1174.1 Z" class="st9"/>
				</g>
				<g id="shape2088-123" v:mID="2088" v:groupContext="shape" transform="translate(7.19713,-4.20258)">
					<title>Sheet.2088</title>
					<v:userDefs>
						<v:ud v:nameU="msvDisableCustomConnectionPoints" v:prompt="" v:val="VT0(1):5"/>
					</v:userDefs>
					<path d="M0 1181.01 L12.02 1174.08 L12.02 1188 L0 1181.01 Z" class="st8"/>
				</g>
				<g id="shape2089-125" v:mID="2089" v:groupContext="shape" transform="translate(19.215,-4.20258)">
					<title>Sheet.2089</title>
					<v:userDefs>
						<v:ud v:nameU="msvDisableCustomConnectionPoints" v:prompt="" v:val="VT0(1):5"/>
					</v:userDefs>
					<path d="M12.04 1181.01 L0 1174.08 L0 1188 L12.04 1181.01 Z" class="st9"/>
				</g>
			</g>
			<g id="shape2076-127" v:mID="2076" v:groupContext="groupContent">
				<v:textBlock v:margins="rect(0,0,0,0)"/>
				<v:textRect cx="19.2376" cy="1208.16" width="72" height="33.6033"/>
				<text x="-7.04" y="1203.96" class="st10" v:langID="1033"><v:paragraph v:horizAlign="1"/><v:tabList/>Resource <tspan
							x="1.33" dy="1.2em" class="st11">Group</tspan></text>			</g>
		</g>
		<g id="shape2191-130" v:mID="2191" v:groupContext="shape" transform="translate(737.155,-516.531)">
			<title>Sheet.2191</title>
			<desc>Community managed resource group</desc>
			<v:userDefs>
				<v:ud v:nameU="visNavOrder" v:val="VT0(121000):26"/>
			</v:userDefs>
			<v:textBlock v:margins="rect(4,4,4,4)"/>
			<v:textRect cx="139.5" cy="1116.32" width="279.01" height="143.354"/>
			<rect x="0" y="1044.65" width="279" height="143.354" class="st13"/>
			<text x="4" y="1083.92" class="st14" v:langID="1033"><v:paragraph/><v:tabList/>Community <tspan x="4" dy="1.2em"
						class="st11">managed </tspan><tspan x="4" dy="1.2em" class="st11">resource group</tspan></text>		</g>
		<g id="shape2192-135" v:mID="2192" v:groupContext="shape" transform="translate(1281.66,-540.254)">
			<title>Sheet.2192</title>
			<desc>Enclave managed resource group</desc>
			<v:userDefs>
				<v:ud v:nameU="visNavOrder" v:val="VT0(123000):26"/>
			</v:userDefs>
			<v:textBlock v:margins="rect(4,4,4,4)"/>
			<v:textRect cx="190.125" cy="1138.75" width="380.26" height="98.4909"/>
			<rect x="0" y="1089.51" width="380.25" height="98.4909" class="st13"/>
			<text x="4" y="1127.95" class="st14" v:langID="1033"><v:paragraph/><v:tabList/>Enclave managed <tspan x="4" dy="1.2em"
						class="st11">resource group</tspan></text>		</g>
		<g id="shape2193-139" v:mID="2193" v:groupContext="shape" transform="translate(1178.16,-327.297)">
			<title>Rectangle.2193</title>
			<v:userDefs>
				<v:ud v:nameU="visVersion" v:val="VT0(15):26"/>
				<v:ud v:nameU="visNavOrder" v:val="VT0(124000):26"/>
			</v:userDefs>
			<rect x="0" y="1072.55" width="170.719" height="115.451" class="st15"/>
		</g>
		<g id="shape2194-141" v:mID="2194" v:groupContext="shape" transform="translate(1183.5,-350.689)">
			<title>Sheet.2194</title>
			<desc>Workload resource group</desc>
			<v:userDefs>
				<v:ud v:nameU="visNavOrder" v:val="VT0(125000):26"/>
			</v:userDefs>
			<v:textBlock v:margins="rect(4,4,4,4)"/>
			<v:textRect cx="75.2319" cy="1153.67" width="150.47" height="68.6674"/>
			<rect x="0" y="1119.33" width="150.464" height="68.6674" class="st13"/>
			<text x="4" y="1126.67" class="st16" v:langID="1033"><v:paragraph/><v:tabList/>Workload <tspan x="4" dy="1.2em"
						class="st11">resource </tspan><tspan x="4" dy="1.2em" class="st11">group</tspan></text>		</g>
		<g id="shape2195-146" v:mID="2195" v:groupContext="shape" transform="translate(1525.73,-399.063)">
			<title>Rectangle.2195</title>
			<v:userDefs>
				<v:ud v:nameU="visVersion" v:val="VT0(15):26"/>
				<v:ud v:nameU="visNavOrder" v:val="VT0(126000):26"/>
			</v:userDefs>
			<rect x="0" y="1142.53" width="170.719" height="45.4675" class="st15"/>
		</g>
		<g id="shape2196-148" v:mID="2196" v:groupContext="shape" transform="translate(1527.71,-403.05)">
			<title>Sheet.2196</title>
			<desc>Workload resource group</desc>
			<v:userDefs>
				<v:ud v:nameU="visNavOrder" v:val="VT0(127000):26"/>
			</v:userDefs>
			<v:textBlock v:margins="rect(4,4,4,4)"/>
			<v:textRect cx="75.2319" cy="1167.26" width="150.47" height="41.4803"/>
			<rect x="0" y="1146.52" width="150.464" height="41.4803" class="st13"/>
			<text x="4" y="1170.86" class="st17" v:langID="1033"><v:paragraph/><v:tabList/>Workload resource group</text>		</g>
		<g id="shape2197-151" v:mID="2197" v:groupContext="shape" transform="translate(1525.73,-345.063)">
			<title>Rectangle.2197</title>
			<v:userDefs>
				<v:ud v:nameU="visVersion" v:val="VT0(15):26"/>
				<v:ud v:nameU="visNavOrder" v:val="VT0(128000):26"/>
			</v:userDefs>
			<rect x="0" y="1142.53" width="170.719" height="45.4675" class="st15"/>
		</g>
		<g id="shape2198-153" v:mID="2198" v:groupContext="shape" transform="translate(1527.71,-349.05)">
			<title>Sheet.2198</title>
			<desc>Workload resource group</desc>
			<v:userDefs>
				<v:ud v:nameU="visNavOrder" v:val="VT0(129000):26"/>
			</v:userDefs>
			<v:textBlock v:margins="rect(4,4,4,4)"/>
			<v:textRect cx="75.2319" cy="1167.26" width="150.47" height="41.4803"/>
			<rect x="0" y="1146.52" width="150.464" height="41.4803" class="st13"/>
			<text x="4" y="1170.86" class="st17" v:langID="1033"><v:paragraph/><v:tabList/>Workload resource group</text>		</g>
		<g id="shape2199-156" v:mID="2199" v:groupContext="shape" transform="translate(1525.73,-291.063)">
			<title>Rectangle.2199</title>
			<v:userDefs>
				<v:ud v:nameU="visVersion" v:val="VT0(15):26"/>
				<v:ud v:nameU="visNavOrder" v:val="VT0(130000):26"/>
			</v:userDefs>
			<rect x="0" y="1142.53" width="170.719" height="45.4675" class="st15"/>
		</g>
		<g id="shape2200-158" v:mID="2200" v:groupContext="shape" transform="translate(1527.71,-295.05)">
			<title>Sheet.2200</title>
			<desc>Workload resource group</desc>
			<v:userDefs>
				<v:ud v:nameU="visNavOrder" v:val="VT0(131000):26"/>
			</v:userDefs>
			<v:textBlock v:margins="rect(4,4,4,4)"/>
			<v:textRect cx="75.2319" cy="1167.26" width="150.47" height="41.4803"/>
			<rect x="0" y="1146.52" width="150.464" height="41.4803" class="st13"/>
			<text x="4" y="1170.86" class="st17" v:langID="1033"><v:paragraph/><v:tabList/>Workload resource group</text>		</g>
		<g id="shape2201-161" v:mID="2201" v:groupContext="shape" transform="translate(738,-867.455)">
			<title>Rectangle.2201</title>
			<v:userDefs>
				<v:ud v:nameU="visVersion" v:val="VT0(15):26"/>
				<v:ud v:nameU="visNavOrder" v:val="VT0(132000):26"/>
			</v:userDefs>
			<rect x="0" y="1058.55" width="984.655" height="129.451" class="st18"/>
		</g>
		<g id="shape2202-163" v:mID="2202" v:groupContext="shape" transform="translate(847.855,-901.448)">
			<title>Sheet.2202</title>
			<v:userDefs>
				<v:ud v:nameU="visNavOrder" v:val="VT0(133000):26"/>
			</v:userDefs>
			<path d="M57.28 1167.93 L53.78 1161.06 C53.46 1160.42 52.86 1160.03 52.21 1160.03 L45.22 1160.03 C44.57 1160.03 43.97
						 1160.42 43.64 1161.06 L40.15 1167.93 C39.83 1168.56 39.83 1169.35 40.15 1169.99 L43.64 1176.85 C43.97 1177.49
						 44.57 1177.89 45.22 1177.89 L52.21 1177.89 C52.86 1177.89 53.46 1177.49 53.78 1176.85 L57.28 1169.99 C57.6
						 1169.35 57.6 1168.56 57.28 1167.93 ZM13.96 1176.85 L17.45 1169.99 C17.77 1169.35 17.77 1168.56 17.45 1167.93
						 L13.96 1161.06 C13.63 1160.42 13.03 1160.03 12.38 1160.03 L5.39 1160.03 C4.74 1160.03 4.14 1160.42 3.82
						 1161.06 L0.32 1167.93 C0 1168.56 0 1169.35 0.32 1169.99 L3.82 1176.85 C4.14 1177.49 4.74 1177.89 5.39 1177.89
						 L12.38 1177.89 C13.03 1177.89 13.63 1177.49 13.96 1176.85 ZM23.72 1143.36 C24.05 1144 24.65 1144.39 25.3
						 1144.39 L32.28 1144.39 C32.93 1144.39 33.53 1143.99 33.86 1143.36 L37.35 1136.49 C37.68 1135.85 37.68 1135.07
						 37.35 1134.43 L33.86 1127.56 C33.53 1126.92 32.93 1126.53 32.28 1126.53 L25.3 1126.53 C24.65 1126.53 24.05
						 1126.93 23.72 1127.56 L20.23 1134.43 C19.91 1135.07 19.91 1135.85 20.23 1136.49 L23.72 1143.36 ZM36.8 1141.58
						 C42.3 1144.66 46.24 1150.8 46.86 1158.03 L52.21 1158.03 C52.6 1158.03 52.97 1158.12 53.33 1158.26 C52.75
						 1147.86 47.17 1139.03 39.27 1134.8 C39.41 1135.71 39.29 1136.67 38.87 1137.49 L36.79 1141.58 L36.8 1141.58
						 ZM10.71 1158.03 C11.33 1150.78 15.27 1144.65 20.78 1141.57 L18.71 1137.49 C18.29 1136.66 18.17 1135.71 18.3
						 1134.79 C10.4 1139.02 4.82 1147.86 4.24 1158.27 C4.61 1158.12 4.99 1158.02 5.4 1158.02 L10.71 1158.02 L10.71
						 1158.03 ZM42.12 1177.85 L40.87 1175.4 C37.66 1178.67 33.43 1180.67 28.78 1180.67 C24.14 1180.67 19.92 1178.68
						 16.71 1175.43 L15.48 1177.86 C14.84 1179.11 13.65 1179.89 12.38 1179.89 L11.43 1179.89 C15.88 1184.9 22.01
						 1188 28.78 1188 C35.55 1188 41.68 1184.9 46.13 1179.89 L45.22 1179.89 C43.95 1179.89 42.76 1179.11 42.12
						 1177.86 L42.12 1177.85 Z" class="st19"/>
		</g>
		<g id="group2203-167" transform="translate(1417.15,-909.476)" v:mID="2203" v:groupContext="group">
			<v:userDefs>
				<v:ud v:nameU="visNavOrder" v:val="VT0(134000):26"/>
			</v:userDefs>
			<title>Sheet.2203</title>
			<g id="shape2204-168" v:mID="2204" v:groupContext="shape" transform="translate(20.6075,-23.7861)">
				<title>Sheet.2204</title>
				<path d="M21.48 1176.83 C21.74 1176.55 18.15 1167.01 18.02 1166.48 C17.79 1165.86 17.41 1165.3 16.9 1164.97 C16.34
							 1164.69 9.38 1162.41 8.78 1162.45 C8.51 1162.36 5.12 1164.54 4.81 1164.68 C4.76 1164.63 4.38 1165.03
							 4.24 1165.28 C4.24 1165.28 0.39 1172.25 0.39 1172.25 C0.03 1172.9 0 1173.82 0.3 1174.68 L3.56 1183.89
							 C3.86 1184.75 4.46 1185.4 5.12 1185.61 L12.22 1187.85 C12.59 1188 13.08 1187.87 13.31 1187.74 C13.8
							 1187.36 17.12 1185.73 17.34 1185.08 C17.34 1185.08 21.18 1178.11 21.18 1178.11 C21.39 1177.74 21.48
							 1177.28 21.48 1176.82 L21.48 1176.83 Z" class="st7"/>
			</g>
			<g id="shape2205-170" v:mID="2205" v:groupContext="shape" transform="translate(20.6101,-23.729)">
				<title>Sheet.2205</title>
				<path d="M14.54 1168.47 L17.8 1177.68 C18.1 1178.54 18.07 1179.47 17.71 1180.11 L13.87 1187.08 C13.51 1187.74 12.88
							 1188 12.22 1187.79 L5.12 1185.55 C4.46 1185.35 3.86 1184.69 3.56 1183.83 L0.3 1174.62 C0 1173.77 0.03
							 1172.84 0.39 1172.19 L4.24 1165.22 C4.6 1164.58 5.22 1164.3 5.88 1164.51 L12.99 1166.75 C13.65 1166.96
							 14.24 1167.62 14.54 1168.47 L14.54 1168.47 Z" class="st20"/>
			</g>
			<g id="shape2206-174" v:mID="2206" v:groupContext="shape" transform="translate(23.95,-4.08311)">
				<title>Sheet.2206</title>
				<path d="M21.48 1176.83 C21.74 1176.55 18.15 1167.01 18.02 1166.48 C17.79 1165.86 17.41 1165.3 16.9 1164.97 C16.34
							 1164.69 9.38 1162.41 8.78 1162.45 C8.51 1162.36 5.12 1164.54 4.81 1164.68 C4.76 1164.63 4.38 1165.03
							 4.24 1165.28 C4.24 1165.28 0.39 1172.25 0.39 1172.25 C0.03 1172.9 0 1173.82 0.3 1174.68 L3.56 1183.89
							 C3.86 1184.75 4.46 1185.4 5.12 1185.61 L12.22 1187.85 C12.59 1188 13.08 1187.87 13.31 1187.74 C13.8
							 1187.36 17.12 1185.73 17.34 1185.08 C17.34 1185.08 21.18 1178.11 21.18 1178.11 C21.39 1177.74 21.48
							 1177.28 21.48 1176.82 L21.48 1176.83 Z" class="st21"/>
			</g>
			<g id="shape2207-176" v:mID="2207" v:groupContext="shape" transform="translate(23.9526,-4.02599)">
				<title>Sheet.2207</title>
				<path d="M14.54 1168.47 L17.8 1177.68 C18.1 1178.54 18.07 1179.47 17.71 1180.11 L13.87 1187.08 C13.51 1187.74 12.88
							 1188 12.22 1187.79 L5.12 1185.55 C4.46 1185.35 3.86 1184.69 3.56 1183.83 L0.3 1174.62 C0 1173.77 0.03
							 1172.84 0.39 1172.19 L4.24 1165.22 C4.6 1164.58 5.22 1164.3 5.88 1164.51 L12.99 1166.75 C13.65 1166.96
							 14.24 1167.62 14.54 1168.47 L14.54 1168.47 Z" class="st22"/>
			</g>
			<g id="shape2208-180" v:mID="2208" v:groupContext="shape" transform="translate(10.0146,-14.0744)">
				<title>Sheet.2208</title>
				<path d="M21.48 1176.83 C21.74 1176.55 18.15 1167.01 18.02 1166.48 C17.79 1165.86 17.41 1165.3 16.9 1164.97 C16.34
							 1164.69 9.38 1162.41 8.78 1162.45 C8.51 1162.36 5.12 1164.54 4.81 1164.68 C4.76 1164.63 4.38 1165.03
							 4.24 1165.28 C4.24 1165.28 0.39 1172.25 0.39 1172.25 C0.03 1172.9 0 1173.82 0.3 1174.68 L3.56 1183.89
							 C3.86 1184.75 4.46 1185.4 5.12 1185.61 L12.22 1187.85 C12.59 1188 13.08 1187.87 13.31 1187.74 C13.8
							 1187.36 17.12 1185.73 17.34 1185.08 C17.34 1185.08 21.18 1178.11 21.18 1178.11 C21.39 1177.74 21.48
							 1177.28 21.48 1176.82 L21.48 1176.83 Z" class="st9"/>
			</g>
			<g id="shape2209-182" v:mID="2209" v:groupContext="shape" transform="translate(10.0171,-14.0173)">
				<title>Sheet.2209</title>
				<path d="M14.54 1168.47 L17.8 1177.68 C18.1 1178.54 18.07 1179.47 17.71 1180.11 L13.87 1187.08 C13.51 1187.74 12.88
							 1188 12.22 1187.79 L5.12 1185.55 C4.46 1185.35 3.86 1184.69 3.56 1183.83 L0.3 1174.62 C0 1173.77 0.03
							 1172.84 0.39 1172.19 L4.24 1165.22 C4.6 1164.58 5.22 1164.3 5.88 1164.51 L12.99 1166.75 C13.65 1166.96
							 14.24 1167.62 14.54 1168.47 L14.54 1168.47 Z" class="st23"/>
			</g>
			<g id="shape2210-186" v:mID="2210" v:groupContext="shape">
				<title>Sheet.2210</title>
				<path d="M25.61 1178.63 C22.8 1181.63 20.09 1183.84 18.55 1185.01 C16.63 1183.56 12.88 1180.47 9.4 1176.24 C4.67
							 1170.48 2.28 1164.84 2.28 1159.48 L2.28 1143.48 C8.26 1143.09 10.64 1141.09 12.58 1139.47 C14.13 1138.18
							 15.25 1137.24 18.55 1137.24 C21.85 1137.24 22.97 1138.18 24.52 1139.47 C24.56 1139.5 24.59 1139.53 24.63
							 1139.56 C25.47 1138.88 26.94 1138.18 26.94 1138.18 C24.68 1136.46 23.41 1134.56 18.55 1134.56 C9.96
							 1134.56 12.6 1140.49 1.14 1140.85 C0.51 1140.87 0 1141.47 0 1142.22 L0 1159.48 C0 1173.83 14.73 1185.38
							 17.94 1187.73 C18.31 1188 18.79 1188 19.16 1187.73 C20.41 1186.82 23.4 1184.51 26.59 1181.19 C25.97
							 1180.31 25.61 1178.63 25.61 1178.63 L25.61 1178.63 Z" class="st24"/>
			</g>
		</g>
		<g id="group2211-188" transform="translate(1237.5,-909.476)" v:mID="2211" v:groupContext="group">
			<v:userDefs>
				<v:ud v:nameU="visNavOrder" v:val="VT0(135000):26"/>
			</v:userDefs>
			<title>Sheet.2211</title>
			<g id="shape2212-189" v:mID="2212" v:groupContext="shape">
				<title>Sheet.2212</title>
				<path d="M10.58 1183.5 L8.98 1182.41 L4.54 1179.39 C4.41 1179.3 4.33 1179.14 4.33 1178.96 L4.32 1178.96 L4.32 1146.34
							 C4.32 1146.34 4.32 1146.34 4.32 1146.34 L4.33 1146.34 C4.33 1146.16 4.41 1146 4.54 1145.91 L10.58 1141.79
							 C10.78 1141.65 10.85 1141.34 10.73 1141.1 L9 1137.55 C8.96 1137.47 8.9 1137.42 8.83 1137.37 C8.81 1137.36
							 8.8 1137.35 8.79 1137.35 C8.72 1137.31 8.64 1137.29 8.56 1137.31 C8.49 1137.31 8.41 1137.33 8.35 1137.37
							 L3.29 1140.82 L0.15 1142.96 C0.09 1143 0.04 1143.06 0 1143.13 L0.05 1143.17 C0.02 1143.24 0 1143.32
							 0 1143.4 L0 1181.91 C0 1181.91 0 1181.91 0 1181.91 C0 1181.98 0.02 1182.06 0.05 1182.13 L0 1182.17 C0.04
							 1182.24 0.09 1182.3 0.15 1182.34 L3.29 1184.49 L8.34 1187.93 C8.41 1187.98 8.48 1188 8.56 1187.99 C8.59
							 1188 8.62 1187.98 8.66 1187.98 C8.69 1187.98 8.72 1187.97 8.76 1187.96 C8.79 1187.95 8.82 1187.93 8.85
							 1187.91 C8.89 1187.88 8.92 1187.84 8.95 1187.79 C8.96 1187.77 8.98 1187.77 8.99 1187.75 L10.73 1184.2
							 C10.79 1184.08 10.8 1183.94 10.77 1183.81 C10.74 1183.69 10.68 1183.57 10.58 1183.5 L10.58 1183.5 Z"
						class="st6"/>
			</g>
			<g id="shape2213-191" v:mID="2213" v:groupContext="shape" transform="translate(33.939,-0.00300671)">
				<title>Sheet.2213</title>
				<path d="M10.85 1143.4 C10.85 1143.4 10.85 1143.4 10.85 1143.4 C10.85 1143.32 10.83 1143.24 10.8 1143.17 L10.85 1143.13
							 C10.81 1143.06 10.76 1143 10.7 1142.96 L7.56 1140.82 L2.5 1137.37 C2.44 1137.32 2.36 1137.3 2.29 1137.31
							 C2.29 1137.31 2.28 1137.31 2.28 1137.31 C2.2 1137.29 2.13 1137.31 2.06 1137.35 C2.05 1137.35 2.04 1137.36
							 2.02 1137.37 C1.96 1137.41 1.9 1137.46 1.86 1137.54 L1.38 1138.52 L0.12 1141.1 C0 1141.34 0.07 1141.65
							 0.27 1141.79 L6.31 1145.91 C6.44 1145.99 6.52 1146.16 6.52 1146.34 C6.52 1146.34 6.52 1178.95 6.52 1178.95
							 C6.52 1179.13 6.44 1179.3 6.31 1179.39 L0.27 1183.51 C0.23 1183.54 0.2 1183.58 0.17 1183.62 C0.16 1183.63
							 0.15 1183.63 0.15 1183.64 C0.14 1183.65 0.14 1183.66 0.14 1183.66 C0.05 1183.81 0.03 1184.02 0.11 1184.19
							 L1.85 1187.74 C1.85 1187.74 1.86 1187.75 1.87 1187.76 C1.9 1187.83 1.96 1187.88 2.01 1187.92 C2.03 1187.93
							 2.04 1187.94 2.06 1187.95 C2.14 1187.98 2.22 1188 2.3 1187.98 C2.37 1187.98 2.44 1187.97 2.5 1187.93
							 L7.56 1184.48 L10.7 1182.34 C10.76 1182.29 10.81 1182.24 10.85 1182.16 L10.8 1182.13 C10.83 1182.06
							 10.85 1181.99 10.85 1181.91 L10.85 1143.4 Z" class="st6"/>
			</g>
			<g id="shape2214-193" v:mID="2214" v:groupContext="shape" transform="translate(16.4743,-23.3411)">
				<title>Sheet.2214</title>
				<path d="M16.56 1179.39 C16.77 1179.17 14 1171.82 13.89 1171.4 C13.72 1170.92 13.42 1170.49 13.03 1170.24 C12.6 1170.02
							 7.23 1168.26 6.77 1168.3 C6.57 1168.22 3.95 1169.91 3.71 1170.01 C3.67 1169.98 3.38 1170.29 3.27 1170.48
							 L0.3 1175.85 C0.03 1176.36 0 1177.07 0.23 1177.73 L2.75 1184.83 C2.98 1185.49 3.44 1185.99 3.95 1186.15
							 L9.43 1187.88 C9.72 1188 10.09 1187.9 10.26 1187.8 C10.65 1187.5 13.21 1186.25 13.37 1185.75 L16.34
							 1180.37 C16.5 1180.08 16.57 1179.73 16.56 1179.38 L16.56 1179.39 Z" class="st7"/>
			</g>
			<g id="shape2215-195" v:mID="2215" v:groupContext="shape" transform="translate(16.4768,-23.296)">
				<title>Sheet.2215</title>
				<path d="M11.21 1172.94 L13.73 1180.04 C13.96 1180.71 13.93 1181.42 13.66 1181.92 L10.7 1187.29 C10.42 1187.8 9.94
							 1188 9.43 1187.84 L3.95 1186.11 C3.44 1185.95 2.98 1185.45 2.75 1184.79 L0.23 1177.68 C0 1177.03 0.03
							 1176.31 0.3 1175.81 L3.27 1170.43 C3.54 1169.94 4.03 1169.73 4.54 1169.89 L10.01 1171.62 C10.52 1171.78
							 10.98 1172.28 11.22 1172.94 L11.21 1172.94 Z" class="st25"/>
			</g>
			<g id="shape2216-199" v:mID="2216" v:groupContext="shape" transform="translate(19.0515,-8.14518)">
				<title>Sheet.2216</title>
				<path d="M16.56 1179.39 C16.77 1179.17 14 1171.82 13.89 1171.4 C13.72 1170.92 13.42 1170.49 13.03 1170.24 C12.6 1170.02
							 7.23 1168.26 6.77 1168.3 C6.57 1168.22 3.95 1169.91 3.71 1170.01 C3.67 1169.98 3.38 1170.29 3.27 1170.48
							 L0.3 1175.85 C0.03 1176.36 0 1177.07 0.23 1177.73 L2.75 1184.83 C2.98 1185.49 3.44 1185.99 3.95 1186.15
							 L9.43 1187.88 C9.72 1188 10.09 1187.9 10.26 1187.8 C10.65 1187.5 13.21 1186.25 13.37 1185.75 L16.34
							 1180.37 C16.5 1180.08 16.57 1179.73 16.56 1179.38 L16.56 1179.39 Z" class="st21"/>
			</g>
			<g id="shape2217-201" v:mID="2217" v:groupContext="shape" transform="translate(19.054,-8.10008)">
				<title>Sheet.2217</title>
				<path d="M11.21 1172.94 L13.73 1180.04 C13.96 1180.71 13.93 1181.42 13.66 1181.92 L10.7 1187.29 C10.42 1187.8 9.94
							 1188 9.43 1187.84 L3.95 1186.11 C3.44 1185.95 2.98 1185.45 2.75 1184.79 L0.23 1177.68 C0 1177.03 0.03
							 1176.31 0.3 1175.81 L3.27 1170.43 C3.54 1169.94 4.03 1169.73 4.54 1169.89 L10.01 1171.62 C10.52 1171.78
							 10.98 1172.28 11.22 1172.94 L11.21 1172.94 Z" class="st26"/>
			</g>
			<g id="shape2218-205" v:mID="2218" v:groupContext="shape" transform="translate(8.30495,-15.8514)">
				<title>Sheet.2218</title>
				<path d="M16.56 1179.39 C16.77 1179.17 14 1171.82 13.89 1171.4 C13.72 1170.92 13.42 1170.49 13.03 1170.24 C12.6 1170.02
							 7.23 1168.26 6.77 1168.3 C6.57 1168.22 3.95 1169.91 3.71 1170.01 C3.67 1169.98 3.38 1170.29 3.27 1170.48
							 L0.3 1175.85 C0.03 1176.36 0 1177.07 0.23 1177.73 L2.75 1184.83 C2.98 1185.49 3.44 1185.99 3.95 1186.15
							 L9.43 1187.88 C9.72 1188 10.09 1187.9 10.26 1187.8 C10.65 1187.5 13.21 1186.25 13.37 1185.75 L16.34
							 1180.37 C16.5 1180.08 16.57 1179.73 16.56 1179.38 L16.56 1179.39 Z" class="st9"/>
			</g>
			<g id="shape2219-207" v:mID="2219" v:groupContext="shape" transform="translate(8.30751,-15.8063)">
				<title>Sheet.2219</title>
				<path d="M11.21 1172.94 L13.73 1180.04 C13.96 1180.71 13.93 1181.42 13.66 1181.92 L10.7 1187.29 C10.42 1187.8 9.94
							 1188 9.43 1187.84 L3.95 1186.11 C3.44 1185.95 2.98 1185.45 2.75 1184.79 L0.23 1177.68 C0 1177.03 0.03
							 1176.31 0.3 1175.81 L3.27 1170.43 C3.54 1169.94 4.03 1169.73 4.54 1169.89 L10.01 1171.62 C10.52 1171.78
							 10.98 1172.28 11.22 1172.94 L11.21 1172.94 Z" class="st23"/>
			</g>
		</g>
		<g id="group2220-210" transform="translate(1588.71,-909.476)" v:mID="2220" v:groupContext="group">
			<v:userDefs>
				<v:ud v:nameU="visNavOrder" v:val="VT0(136000):26"/>
			</v:userDefs>
			<title>Sheet.2220</title>
			<g id="shape2221-211" v:mID="2221" v:groupContext="shape">
				<title>Sheet.2221</title>
				<path d="M10.58 1183.5 L8.98 1182.41 L4.54 1179.39 C4.41 1179.3 4.33 1179.14 4.33 1178.96 L4.32 1178.96 L4.32 1146.34
							 C4.32 1146.34 4.32 1146.34 4.32 1146.34 L4.33 1146.34 C4.33 1146.16 4.41 1146 4.54 1145.91 L10.58 1141.79
							 C10.78 1141.65 10.85 1141.34 10.73 1141.1 L9 1137.55 C8.96 1137.47 8.9 1137.42 8.83 1137.37 C8.81 1137.36
							 8.8 1137.35 8.79 1137.35 C8.72 1137.31 8.64 1137.29 8.56 1137.31 C8.49 1137.31 8.41 1137.33 8.35 1137.37
							 L3.29 1140.82 L0.15 1142.96 C0.09 1143 0.04 1143.06 0 1143.13 L0.05 1143.17 C0.02 1143.24 0 1143.32
							 0 1143.4 L0 1181.91 C0 1181.91 0 1181.91 0 1181.91 C0 1181.98 0.02 1182.06 0.05 1182.13 L0 1182.17 C0.04
							 1182.24 0.09 1182.3 0.15 1182.34 L3.29 1184.49 L8.34 1187.93 C8.41 1187.98 8.48 1188 8.56 1187.99 C8.59
							 1188 8.62 1187.98 8.66 1187.98 C8.69 1187.98 8.72 1187.97 8.76 1187.96 C8.79 1187.95 8.82 1187.93 8.85
							 1187.91 C8.89 1187.88 8.92 1187.84 8.95 1187.79 C8.96 1187.77 8.98 1187.77 8.99 1187.75 L10.73 1184.2
							 C10.79 1184.08 10.8 1183.94 10.77 1183.81 C10.74 1183.69 10.68 1183.57 10.58 1183.5 L10.58 1183.5 Z"
						class="st6"/>
			</g>
			<g id="shape2222-213" v:mID="2222" v:groupContext="shape" transform="translate(33.939,-0.00300671)">
				<title>Sheet.2222</title>
				<path d="M10.85 1143.4 C10.85 1143.4 10.85 1143.4 10.85 1143.4 C10.85 1143.32 10.83 1143.24 10.8 1143.17 L10.85 1143.13
							 C10.81 1143.06 10.76 1143 10.7 1142.96 L7.56 1140.82 L2.5 1137.37 C2.44 1137.32 2.36 1137.3 2.29 1137.31
							 C2.29 1137.31 2.28 1137.31 2.28 1137.31 C2.2 1137.29 2.13 1137.31 2.06 1137.35 C2.05 1137.35 2.04 1137.36
							 2.02 1137.37 C1.96 1137.41 1.9 1137.46 1.86 1137.54 L1.38 1138.52 L0.12 1141.1 C0 1141.34 0.07 1141.65
							 0.27 1141.79 L6.31 1145.91 C6.44 1145.99 6.52 1146.16 6.52 1146.34 C6.52 1146.34 6.52 1178.95 6.52 1178.95
							 C6.52 1179.13 6.44 1179.3 6.31 1179.39 L0.27 1183.51 C0.23 1183.54 0.2 1183.58 0.17 1183.62 C0.16 1183.63
							 0.15 1183.63 0.15 1183.64 C0.14 1183.65 0.14 1183.66 0.14 1183.66 C0.05 1183.81 0.03 1184.02 0.11 1184.19
							 L1.85 1187.74 C1.85 1187.74 1.86 1187.75 1.87 1187.76 C1.9 1187.83 1.96 1187.88 2.01 1187.92 C2.03 1187.93
							 2.04 1187.94 2.06 1187.95 C2.14 1187.98 2.22 1188 2.3 1187.98 C2.37 1187.98 2.44 1187.97 2.5 1187.93
							 L7.56 1184.48 L10.7 1182.34 C10.76 1182.29 10.81 1182.24 10.85 1182.16 L10.8 1182.13 C10.83 1182.06
							 10.85 1181.99 10.85 1181.91 L10.85 1143.4 Z" class="st6"/>
			</g>
			<g id="shape2223-215" v:mID="2223" v:groupContext="shape" transform="translate(16.4743,-23.3411)">
				<title>Sheet.2223</title>
				<path d="M16.56 1179.39 C16.77 1179.17 14 1171.82 13.89 1171.4 C13.72 1170.92 13.42 1170.49 13.03 1170.24 C12.6 1170.02
							 7.23 1168.26 6.77 1168.3 C6.57 1168.22 3.95 1169.91 3.71 1170.01 C3.67 1169.98 3.38 1170.29 3.27 1170.48
							 L0.3 1175.85 C0.03 1176.36 0 1177.07 0.23 1177.73 L2.75 1184.83 C2.98 1185.49 3.44 1185.99 3.95 1186.15
							 L9.43 1187.88 C9.72 1188 10.09 1187.9 10.26 1187.8 C10.65 1187.5 13.21 1186.25 13.37 1185.75 L16.34
							 1180.37 C16.5 1180.08 16.57 1179.73 16.56 1179.38 L16.56 1179.39 Z" class="st7"/>
			</g>
			<g id="shape2224-217" v:mID="2224" v:groupContext="shape" transform="translate(16.4768,-23.296)">
				<title>Sheet.2224</title>
				<path d="M11.21 1172.94 L13.73 1180.04 C13.96 1180.71 13.93 1181.42 13.66 1181.92 L10.7 1187.29 C10.42 1187.8 9.94
							 1188 9.43 1187.84 L3.95 1186.11 C3.44 1185.95 2.98 1185.45 2.75 1184.79 L0.23 1177.68 C0 1177.03 0.03
							 1176.31 0.3 1175.81 L3.27 1170.43 C3.54 1169.94 4.03 1169.73 4.54 1169.89 L10.01 1171.62 C10.52 1171.78
							 10.98 1172.28 11.22 1172.94 L11.21 1172.94 Z" class="st25"/>
			</g>
			<g id="shape2225-220" v:mID="2225" v:groupContext="shape" transform="translate(19.0515,-8.14518)">
				<title>Sheet.2225</title>
				<path d="M16.56 1179.39 C16.77 1179.17 14 1171.82 13.89 1171.4 C13.72 1170.92 13.42 1170.49 13.03 1170.24 C12.6 1170.02
							 7.23 1168.26 6.77 1168.3 C6.57 1168.22 3.95 1169.91 3.71 1170.01 C3.67 1169.98 3.38 1170.29 3.27 1170.48
							 L0.3 1175.85 C0.03 1176.36 0 1177.07 0.23 1177.73 L2.75 1184.83 C2.98 1185.49 3.44 1185.99 3.95 1186.15
							 L9.43 1187.88 C9.72 1188 10.09 1187.9 10.26 1187.8 C10.65 1187.5 13.21 1186.25 13.37 1185.75 L16.34
							 1180.37 C16.5 1180.08 16.57 1179.73 16.56 1179.38 L16.56 1179.39 Z" class="st21"/>
			</g>
			<g id="shape2226-222" v:mID="2226" v:groupContext="shape" transform="translate(19.054,-8.10008)">
				<title>Sheet.2226</title>
				<path d="M11.21 1172.94 L13.73 1180.04 C13.96 1180.71 13.93 1181.42 13.66 1181.92 L10.7 1187.29 C10.42 1187.8 9.94
							 1188 9.43 1187.84 L3.95 1186.11 C3.44 1185.95 2.98 1185.45 2.75 1184.79 L0.23 1177.68 C0 1177.03 0.03
							 1176.31 0.3 1175.81 L3.27 1170.43 C3.54 1169.94 4.03 1169.73 4.54 1169.89 L10.01 1171.62 C10.52 1171.78
							 10.98 1172.28 11.22 1172.94 L11.21 1172.94 Z" class="st26"/>
			</g>
			<g id="shape2227-225" v:mID="2227" v:groupContext="shape" transform="translate(8.30495,-15.8514)">
				<title>Sheet.2227</title>
				<path d="M16.56 1179.39 C16.77 1179.17 14 1171.82 13.89 1171.4 C13.72 1170.92 13.42 1170.49 13.03 1170.24 C12.6 1170.02
							 7.23 1168.26 6.77 1168.3 C6.57 1168.22 3.95 1169.91 3.71 1170.01 C3.67 1169.98 3.38 1170.29 3.27 1170.48
							 L0.3 1175.85 C0.03 1176.36 0 1177.07 0.23 1177.73 L2.75 1184.83 C2.98 1185.49 3.44 1185.99 3.95 1186.15
							 L9.43 1187.88 C9.72 1188 10.09 1187.9 10.26 1187.8 C10.65 1187.5 13.21 1186.25 13.37 1185.75 L16.34
							 1180.37 C16.5 1180.08 16.57 1179.73 16.56 1179.38 L16.56 1179.39 Z" class="st9"/>
			</g>
			<g id="shape2228-227" v:mID="2228" v:groupContext="shape" transform="translate(8.30751,-15.8063)">
				<title>Sheet.2228</title>
				<path d="M11.21 1172.94 L13.73 1180.04 C13.96 1180.71 13.93 1181.42 13.66 1181.92 L10.7 1187.29 C10.42 1187.8 9.94
							 1188 9.43 1187.84 L3.95 1186.11 C3.44 1185.95 2.98 1185.45 2.75 1184.79 L0.23 1177.68 C0 1177.03 0.03
							 1176.31 0.3 1175.81 L3.27 1170.43 C3.54 1169.94 4.03 1169.73 4.54 1169.89 L10.01 1171.62 C10.52 1171.78
							 10.98 1172.28 11.22 1172.94 L11.21 1172.94 Z" class="st23"/>
			</g>
		</g>
		<g id="group2233-230" transform="translate(756,-1034.72)" v:mID="2233" v:groupContext="group">
			<v:userDefs>
				<v:ud v:nameU="msvDisableCustomConnectionPoints" v:prompt="" v:val="VT0(1):5"/>
				<v:ud v:nameU="visNavOrder" v:prompt="" v:val="VT0(139000):26"/>
			</v:userDefs>
			<title>Resource Groups.2233</title>
			<desc>Resource Group</desc>
			<g id="group2234-231" v:mID="2234" v:groupContext="group">
				<v:userDefs>
					<v:ud v:nameU="msvDisableCustomConnectionPoints" v:prompt="" v:val="VT0(1):5"/>
				</v:userDefs>
				<title>Sheet.2234</title>
				<g id="group2235-232" v:mID="2235" v:groupContext="group">
					<v:userDefs>
						<v:ud v:nameU="msvDisableCustomConnectionPoints" v:prompt="" v:val="VT0(1):5"/>
					</v:userDefs>
					<title>Sheet.2235</title>
					<g id="shape2236-233" v:mID="2236" v:groupContext="shape">
						<title>Sheet.2236</title>
						<v:userDefs>
							<v:ud v:nameU="msvDisableCustomConnectionPoints" v:prompt="" v:val="VT0(1):5"/>
						</v:userDefs>
						<path d="M0 1183.62 a0.36212 0.36212 -180 0 0 0.18106 0.316855 L2.81 1185.4 L7.24 1187.96 a0.384752 0.384752
									 -180 0 0 0.520547 -0.135795 L9.26 1185.29 a0.36212 0.36212 -180 0 0 -0.135795 -0.475282 L3.92
									 1181.87 a0.384752 0.384752 0 0 1 -0.18106 -0.316855 L3.73 1158.2 a0.36212 0.36212 0 0 1 0.18106
									 -0.316855 L9.12 1154.94 a0.36212 0.36212 -180 0 0 0.135795 -0.475282 L7.76 1151.93 a0.384752
									 0.384752 -180 0 0 -0.520547 -0.18106 L2.9 1154.26 L0.18 1155.78 a0.36212 0.36212 -180 0 0 -0.18106
									 0.316855 L0 1183.62 Z" class="st5"/>
					</g>
					<g id="shape2237-235" v:mID="2237" v:groupContext="shape" transform="translate(0,-29.981)">
						<title>Sheet.2237</title>
						<v:userDefs>
							<v:ud v:nameU="msvDisableCustomConnectionPoints" v:prompt="" v:val="VT0(1):5"/>
						</v:userDefs>
						<path d="M3.71 1188 L3.85 1187.86 L9.05 1184.92 a0.316855 0.316855 -180 0 0 0.135795 -0.475282 L7.7 1181.91
									 a0.339487 0.339487 -180 0 0 -0.497915 -0.18106 L2.83 1184.24 L0.14 1185.76 C0.14 1185.76 0.02
									 1185.76 0 1185.9 L2.04 1187.05 L3.71 1188 Z" class="st6"/>
					</g>
					<g id="shape2238-237" v:mID="2238" v:groupContext="shape" transform="translate(0.0226325,-0.0819243)">
						<title>Sheet.2238</title>
						<v:userDefs>
							<v:ud v:nameU="msvDisableCustomConnectionPoints" v:prompt="" v:val="VT0(1):5"/>
						</v:userDefs>
						<path d="M9.03 1184.85 L3.82 1181.91 a0.497915 0.497915 0 0 1 -0.158427 -0.203692 L0 1183.97 L0.11 1183.97
									 L2.72 1185.44 L7.24 1187.95 a0.339487 0.339487 -180 0 0 0.497915 -0.135795 L9.23 1185.28 a0.316855
									 0.316855 -180 0 0 -0.203692 -0.430017 Z" class="st6"/>
					</g>
				</g>
				<g id="shape2239-239" v:mID="2239" v:groupContext="shape" transform="translate(29.1927,0)">
					<title>Sheet.2239</title>
					<v:userDefs>
						<v:ud v:nameU="msvDisableCustomConnectionPoints" v:prompt="" v:val="VT0(1):5"/>
					</v:userDefs>
					<path d="M9.28 1183.62 a0.36212 0.36212 0 0 1 -0.18106 0.316855 L6.48 1185.4 L2.04 1187.96 a0.384752 0.384752
								 0 0 1 -0.520547 -0.135795 L0.03 1185.29 a0.36212 0.36212 0 0 1 0.135795 -0.475282 L5.37 1181.87
								 a0.384752 0.384752 -180 0 0 0.18106 -0.316855 L5.55 1158.2 a0.36212 0.36212 -180 0 0 -0.18106 -0.316855
								 L0.16 1154.94 a0.36212 0.36212 0 0 1 -0.135795 -0.475282 L1.52 1151.93 a0.384752 0.384752 0 0 1
								 0.520547 -0.18106 L6.39 1154.22 L9.1 1155.73 a0.36212 0.36212 0 0 1 0.18106 0.316855 L9.28 1183.62
								 Z" class="st5"/>
				</g>
				<g id="shape2240-241" v:mID="2240" v:groupContext="shape" transform="translate(29.2403,-29.981)">
					<title>Sheet.2240</title>
					<v:userDefs>
						<v:ud v:nameU="msvDisableCustomConnectionPoints" v:prompt="" v:val="VT0(1):5"/>
					</v:userDefs>
					<path d="M5.52 1188 L5.39 1187.86 L0.18 1184.92 a0.316855 0.316855 0 0 1 -0.135795 -0.475282 L1.54 1181.91 a0.339487
								 0.339487 0 0 1 0.497915 -0.18106 L6.41 1184.2 L9.1 1185.71 C9.1 1185.71 9.1 1185.71 9.23 1185.85
								 L7.2 1187 L5.52 1188 Z" class="st6"/>
				</g>
				<g id="shape2241-243" v:mID="2241" v:groupContext="shape" transform="translate(29.2903,-0.0819243)">
					<title>Sheet.2241</title>
					<v:userDefs>
						<v:ud v:nameU="msvDisableCustomConnectionPoints" v:prompt="" v:val="VT0(1):5"/>
					</v:userDefs>
					<path d="M0.13 1184.85 L5.34 1181.91 a0.497915 0.497915 -180 0 0 0.158427 -0.203692 L9.16 1183.97 L6.56 1185.44
								 L2.03 1187.95 a0.339487 0.339487 0 0 1 -0.497915 -0.135795 L0.04 1185.28 a0.316855 0.316855 0 0
								 1 0.0905299 -0.430017 Z" class="st6"/>
				</g>
				<g id="shape2242-245" v:mID="2242" v:groupContext="shape" transform="translate(19.215,-4.20258)">
					<title>Sheet.2242</title>
					<v:userDefs>
						<v:ud v:nameU="msvDisableCustomConnectionPoints" v:prompt="" v:val="VT0(1):5"/>
					</v:userDefs>
					<path d="M12.04 1167.11 L12.04 1181.01 L0 1188 L0 1174.08 L12.04 1167.11 Z" class="st7"/>
				</g>
				<g id="shape2243-247" v:mID="2243" v:groupContext="shape" transform="translate(7.19713,-18.0989)">
					<title>Sheet.2243</title>
					<v:userDefs>
						<v:ud v:nameU="msvDisableCustomConnectionPoints" v:prompt="" v:val="VT0(1):5"/>
					</v:userDefs>
					<path d="M24.06 1181.01 L12.04 1188 L0 1181.01 L12.04 1174.01 L24.06 1181.01 Z" class="st8"/>
				</g>
				<g id="shape2244-249" v:mID="2244" v:groupContext="shape" transform="translate(7.19713,-4.20258)">
					<title>Sheet.2244</title>
					<v:userDefs>
						<v:ud v:nameU="msvDisableCustomConnectionPoints" v:prompt="" v:val="VT0(1):5"/>
					</v:userDefs>
					<path d="M12.02 1174.1 L12.02 1188 L0 1181.01 L0 1167.11 L12.02 1174.1 Z" class="st9"/>
				</g>
				<g id="shape2245-251" v:mID="2245" v:groupContext="shape" transform="translate(7.19713,-4.20258)">
					<title>Sheet.2245</title>
					<v:userDefs>
						<v:ud v:nameU="msvDisableCustomConnectionPoints" v:prompt="" v:val="VT0(1):5"/>
					</v:userDefs>
					<path d="M0 1181.01 L12.02 1174.08 L12.02 1188 L0 1181.01 Z" class="st8"/>
				</g>
				<g id="shape2246-253" v:mID="2246" v:groupContext="shape" transform="translate(19.215,-4.20258)">
					<title>Sheet.2246</title>
					<v:userDefs>
						<v:ud v:nameU="msvDisableCustomConnectionPoints" v:prompt="" v:val="VT0(1):5"/>
					</v:userDefs>
					<path d="M12.04 1181.01 L0 1174.08 L0 1188 L12.04 1181.01 Z" class="st9"/>
				</g>
			</g>
			<g id="shape2233-255" v:mID="2233" v:groupContext="groupContent">
				<v:textBlock v:margins="rect(0,0,0,0)"/>
				<v:textRect cx="19.2376" cy="1208.16" width="72" height="33.6033"/>
				<text x="-7.04" y="1203.96" class="st10" v:langID="1033"><v:paragraph v:horizAlign="1"/><v:tabList/>Resource <tspan
							x="1.33" dy="1.2em" class="st11">Group</tspan></text>			</g>
		</g>
		<g id="group2249-258" transform="translate(2423.5,605.694) rotate(90)" v:mID="2249" v:groupContext="group">
			<v:userDefs>
				<v:ud v:nameU="visNavOrder" v:val="VT0(141000):26"/>
			</v:userDefs>
			<title>Sheet.2249</title>
			<g id="shape2250-259" v:mID="2250" v:groupContext="shape">
				<title>Sheet.2250</title>
				<path d="M4.47 1166.75 L115.9 1166.75 L102.64 1180.01 C100.91 1181.74 100.91 1184.54 102.64 1186.27 C104.37 1188
							 107.18 1188 108.9 1186.27 L129.76 1165.41 C131.48 1163.77 131.55 1161.03 129.91 1159.3 C129.86 1159.25
							 129.81 1159.2 129.76 1159.15 L108.9 1138.3 C107.25 1136.57 104.52 1136.5 102.79 1138.15 C102.74 1138.2
							 102.69 1138.25 102.64 1138.3 C100.91 1139.95 100.84 1142.68 102.49 1144.41 C102.54 1144.46 102.59 1144.51
							 102.64 1144.56 L115.9 1157.83 L4.47 1157.83 C2 1157.83 0 1159.83 0 1162.3 C0 1164.77 2 1166.77 4.47
							 1166.77 L4.47 1166.75 Z" class="st2"/>
			</g>
		</g>
		<g id="group2253-261" transform="translate(2773.25,605.694) rotate(90)" v:mID="2253" v:groupContext="group">
			<v:userDefs>
				<v:ud v:nameU="visNavOrder" v:val="VT0(143000):26"/>
			</v:userDefs>
			<title>Sheet.2253</title>
			<g id="shape2254-262" v:mID="2254" v:groupContext="shape">
				<title>Sheet.2254</title>
				<path d="M4.47 1166.75 L115.9 1166.75 L102.64 1180.01 C100.91 1181.74 100.91 1184.54 102.64 1186.27 C104.37 1188
							 107.18 1188 108.9 1186.27 L129.76 1165.41 C131.48 1163.77 131.55 1161.03 129.91 1159.3 C129.86 1159.25
							 129.81 1159.2 129.76 1159.15 L108.9 1138.3 C107.25 1136.57 104.52 1136.5 102.79 1138.15 C102.74 1138.2
							 102.69 1138.25 102.64 1138.3 C100.91 1139.95 100.84 1142.68 102.49 1144.41 C102.54 1144.46 102.59 1144.51
							 102.64 1144.56 L115.9 1157.83 L4.47 1157.83 C2 1157.83 0 1159.83 0 1162.3 C0 1164.77 2 1166.77 4.47
							 1166.77 L4.47 1166.75 Z" class="st2"/>
			</g>
		</g>
		<g id="shape2259-264" v:mID="2259" v:groupContext="shape" transform="translate(825.905,-880)">
			<title>Sheet.2259</title>
			<desc>Community</desc>
			<v:userDefs>
				<v:ud v:nameU="visNavOrder" v:val="VT0(146000):26"/>
			</v:userDefs>
			<v:textBlock v:margins="rect(4,4,4,4)"/>
			<v:textRect cx="50.75" cy="1178" width="101.5" height="20"/>
			<rect x="0" y="1168" width="101.5" height="20" class="st13"/>
			<text x="22.39" y="1181.6" class="st27" v:langID="1033"><v:paragraph v:horizAlign="1"/><v:tabList/>Community</text>		</g>
		<g id="shape2260-267" v:mID="2260" v:groupContext="shape" transform="translate(1386.16,-882)">
			<title>Sheet.2260</title>
			<desc>Enclave</desc>
			<v:userDefs>
				<v:ud v:nameU="visNavOrder" v:val="VT0(147000):26"/>
			</v:userDefs>
			<v:textBlock v:margins="rect(4,4,4,4)"/>
			<v:textRect cx="50.75" cy="1178" width="101.5" height="20"/>
			<rect x="0" y="1168" width="101.5" height="20" class="st13"/>
			<text x="32.18" y="1181.6" class="st27" v:langID="1033"><v:paragraph v:horizAlign="1"/><v:tabList/>Enclave</text>		</g>
		<g id="shape2262-270" v:mID="2262" v:groupContext="shape" transform="translate(1210.5,-882)">
			<title>Sheet.2262</title>
			<desc>Workload</desc>
			<v:userDefs>
				<v:ud v:nameU="visNavOrder" v:val="VT0(149000):26"/>
			</v:userDefs>
			<v:textBlock v:margins="rect(4,4,4,4)"/>
			<v:textRect cx="50.75" cy="1178" width="101.5" height="20"/>
			<rect x="0" y="1168" width="101.5" height="20" class="st13"/>
			<text x="26.86" y="1181.6" class="st27" v:langID="1033"><v:paragraph v:horizAlign="1"/><v:tabList/>Workload</text>		</g>
		<g id="shape2263-273" v:mID="2263" v:groupContext="shape" transform="translate(1560.25,-882)">
			<title>Sheet.2263</title>
			<desc>Workload</desc>
			<v:userDefs>
				<v:ud v:nameU="visNavOrder" v:val="VT0(150000):26"/>
			</v:userDefs>
			<v:textBlock v:margins="rect(4,4,4,4)"/>
			<v:textRect cx="50.75" cy="1178" width="101.5" height="20"/>
			<rect x="0" y="1168" width="101.5" height="20" class="st13"/>
			<text x="26.86" y="1181.6" class="st27" v:langID="1033"><v:paragraph v:horizAlign="1"/><v:tabList/>Workload</text>		</g>
		<g id="shape2264-276" v:mID="2264" v:groupContext="shape" transform="translate(806.975,-1042.86)">
			<title>Sheet.2264</title>
			<desc>1</desc>
			<v:userDefs>
				<v:ud v:nameU="visNavOrder" v:val="VT0(151000):26"/>
			</v:userDefs>
			<v:textBlock v:margins="rect(4,4,4,4)"/>
			<v:textRect cx="14" cy="1178" width="28.01" height="20"/>
			<rect x="0" y="1168" width="28" height="20" class="st13"/>
			<text x="4.88" y="1188.8" class="st28" v:langID="1033"><v:paragraph v:horizAlign="1"/><v:tabList/>1</text>		</g>
		<g id="shape2265-279" v:mID="2265" v:groupContext="shape" transform="translate(908,-718.86)">
			<title>Sheet.2265</title>
			<desc>2</desc>
			<v:userDefs>
				<v:ud v:nameU="visNavOrder" v:val="VT0(152000):26"/>
			</v:userDefs>
			<v:textBlock v:margins="rect(4,4,4,4)"/>
			<v:textRect cx="14" cy="1178" width="28.01" height="20"/>
			<rect x="0" y="1168" width="28" height="20" class="st13"/>
			<text x="4.88" y="1188.8" class="st28" v:langID="1033"><v:paragraph v:horizAlign="1"/><v:tabList/>2</text>		</g>
		<g id="shape2266-282" v:mID="2266" v:groupContext="shape" transform="translate(1469.25,-716.89)">
			<title>Sheet.2266</title>
			<desc>3</desc>
			<v:userDefs>
				<v:ud v:nameU="visNavOrder" v:val="VT0(153000):26"/>
			</v:userDefs>
			<v:textBlock v:margins="rect(4,4,4,4)"/>
			<v:textRect cx="14" cy="1178" width="28.01" height="20"/>
			<rect x="0" y="1168" width="28" height="20" class="st13"/>
			<text x="4.88" y="1188.8" class="st28" v:langID="1033"><v:paragraph v:horizAlign="1"/><v:tabList/>3</text>		</g>
		<g id="shape2267-285" v:mID="2267" v:groupContext="shape" transform="translate(1084,-398.374)">
			<title>Sheet.2267</title>
			<desc>4</desc>
			<v:userDefs>
				<v:ud v:nameU="visNavOrder" v:val="VT0(154000):26"/>
			</v:userDefs>
			<v:textBlock v:margins="rect(4,4,4,4)"/>
			<v:textRect cx="14" cy="1178" width="28.01" height="20"/>
			<rect x="0" y="1168" width="28" height="20" class="st13"/>
			<text x="4.88" y="1188.8" class="st28" v:langID="1033"><v:paragraph v:horizAlign="1"/><v:tabList/>4</text>		</g>
		<g id="shape2269-288" v:mID="2269" v:groupContext="shape" transform="translate(1420.82,-416.235)">
			<title>Sheet.2269</title>
			<desc>5</desc>
			<v:userDefs>
				<v:ud v:nameU="visNavOrder" v:val="VT0(156000):26"/>
			</v:userDefs>
			<v:textBlock v:margins="rect(4,4,4,4)"/>
			<v:textRect cx="14" cy="1178" width="28.01" height="20"/>
			<rect x="0" y="1168" width="28" height="20" class="st13"/>
			<text x="4.88" y="1188.8" class="st28" v:langID="1033"><v:paragraph v:horizAlign="1"/><v:tabList/>5</text>		</g>
		<g id="group2270-291" transform="translate(1469.02,-349.874)" v:mID="2270" v:groupContext="group">
			<v:userDefs>
				<v:ud v:nameU="msvDisableCustomConnectionPoints" v:prompt="" v:val="VT0(1):5"/>
				<v:ud v:nameU="visNavOrder" v:prompt="" v:val="VT0(157000):26"/>
			</v:userDefs>
			<title>Resource Groups.2270</title>
			<desc>Resource Group</desc>
			<g id="group2271-292" v:mID="2271" v:groupContext="group">
				<v:userDefs>
					<v:ud v:nameU="msvDisableCustomConnectionPoints" v:prompt="" v:val="VT0(1):5"/>
				</v:userDefs>
				<title>Sheet.2271</title>
				<g id="group2272-293" v:mID="2272" v:groupContext="group">
					<v:userDefs>
						<v:ud v:nameU="msvDisableCustomConnectionPoints" v:prompt="" v:val="VT0(1):5"/>
					</v:userDefs>
					<title>Sheet.2272</title>
					<g id="shape2273-294" v:mID="2273" v:groupContext="shape">
						<title>Sheet.2273</title>
						<v:userDefs>
							<v:ud v:nameU="msvDisableCustomConnectionPoints" v:prompt="" v:val="VT0(1):5"/>
						</v:userDefs>
						<path d="M0 1183.62 a0.36212 0.36212 -180 0 0 0.18106 0.316855 L2.81 1185.4 L7.24 1187.96 a0.384752 0.384752
									 -180 0 0 0.520547 -0.135795 L9.26 1185.29 a0.36212 0.36212 -180 0 0 -0.135795 -0.475282 L3.92
									 1181.87 a0.384752 0.384752 0 0 1 -0.18106 -0.316855 L3.73 1158.2 a0.36212 0.36212 0 0 1 0.18106
									 -0.316855 L9.12 1154.94 a0.36212 0.36212 -180 0 0 0.135795 -0.475282 L7.76 1151.93 a0.384752
									 0.384752 -180 0 0 -0.520547 -0.18106 L2.9 1154.26 L0.18 1155.78 a0.36212 0.36212 -180 0 0 -0.18106
									 0.316855 L0 1183.62 Z" class="st5"/>
					</g>
					<g id="shape2274-296" v:mID="2274" v:groupContext="shape" transform="translate(0,-29.981)">
						<title>Sheet.2274</title>
						<v:userDefs>
							<v:ud v:nameU="msvDisableCustomConnectionPoints" v:prompt="" v:val="VT0(1):5"/>
						</v:userDefs>
						<path d="M3.71 1188 L3.85 1187.86 L9.05 1184.92 a0.316855 0.316855 -180 0 0 0.135795 -0.475282 L7.7 1181.91
									 a0.339487 0.339487 -180 0 0 -0.497915 -0.18106 L2.83 1184.24 L0.14 1185.76 C0.14 1185.76 0.02
									 1185.76 0 1185.9 L2.04 1187.05 L3.71 1188 Z" class="st6"/>
					</g>
					<g id="shape2275-298" v:mID="2275" v:groupContext="shape" transform="translate(0.0226325,-0.0819243)">
						<title>Sheet.2275</title>
						<v:userDefs>
							<v:ud v:nameU="msvDisableCustomConnectionPoints" v:prompt="" v:val="VT0(1):5"/>
						</v:userDefs>
						<path d="M9.03 1184.85 L3.82 1181.91 a0.497915 0.497915 0 0 1 -0.158427 -0.203692 L0 1183.97 L0.11 1183.97
									 L2.72 1185.44 L7.24 1187.95 a0.339487 0.339487 -180 0 0 0.497915 -0.135795 L9.23 1185.28 a0.316855
									 0.316855 -180 0 0 -0.203692 -0.430017 Z" class="st6"/>
					</g>
				</g>
				<g id="shape2276-300" v:mID="2276" v:groupContext="shape" transform="translate(29.1927,0)">
					<title>Sheet.2276</title>
					<v:userDefs>
						<v:ud v:nameU="msvDisableCustomConnectionPoints" v:prompt="" v:val="VT0(1):5"/>
					</v:userDefs>
					<path d="M9.28 1183.62 a0.36212 0.36212 0 0 1 -0.18106 0.316855 L6.48 1185.4 L2.04 1187.96 a0.384752 0.384752
								 0 0 1 -0.520547 -0.135795 L0.03 1185.29 a0.36212 0.36212 0 0 1 0.135795 -0.475282 L5.37 1181.87
								 a0.384752 0.384752 -180 0 0 0.18106 -0.316855 L5.55 1158.2 a0.36212 0.36212 -180 0 0 -0.18106 -0.316855
								 L0.16 1154.94 a0.36212 0.36212 0 0 1 -0.135795 -0.475282 L1.52 1151.93 a0.384752 0.384752 0 0 1
								 0.520547 -0.18106 L6.39 1154.22 L9.1 1155.73 a0.36212 0.36212 0 0 1 0.18106 0.316855 L9.28 1183.62
								 Z" class="st5"/>
				</g>
				<g id="shape2277-302" v:mID="2277" v:groupContext="shape" transform="translate(29.2403,-29.981)">
					<title>Sheet.2277</title>
					<v:userDefs>
						<v:ud v:nameU="msvDisableCustomConnectionPoints" v:prompt="" v:val="VT0(1):5"/>
					</v:userDefs>
					<path d="M5.52 1188 L5.39 1187.86 L0.18 1184.92 a0.316855 0.316855 0 0 1 -0.135795 -0.475282 L1.54 1181.91 a0.339487
								 0.339487 0 0 1 0.497915 -0.18106 L6.41 1184.2 L9.1 1185.71 C9.1 1185.71 9.1 1185.71 9.23 1185.85
								 L7.2 1187 L5.52 1188 Z" class="st6"/>
				</g>
				<g id="shape2278-304" v:mID="2278" v:groupContext="shape" transform="translate(29.2903,-0.0819243)">
					<title>Sheet.2278</title>
					<v:userDefs>
						<v:ud v:nameU="msvDisableCustomConnectionPoints" v:prompt="" v:val="VT0(1):5"/>
					</v:userDefs>
					<path d="M0.13 1184.85 L5.34 1181.91 a0.497915 0.497915 -180 0 0 0.158427 -0.203692 L9.16 1183.97 L6.56 1185.44
								 L2.03 1187.95 a0.339487 0.339487 0 0 1 -0.497915 -0.135795 L0.04 1185.28 a0.316855 0.316855 0 0
								 1 0.0905299 -0.430017 Z" class="st6"/>
				</g>
				<g id="shape2279-306" v:mID="2279" v:groupContext="shape" transform="translate(19.215,-4.20258)">
					<title>Sheet.2279</title>
					<v:userDefs>
						<v:ud v:nameU="msvDisableCustomConnectionPoints" v:prompt="" v:val="VT0(1):5"/>
					</v:userDefs>
					<path d="M12.04 1167.11 L12.04 1181.01 L0 1188 L0 1174.08 L12.04 1167.11 Z" class="st7"/>
				</g>
				<g id="shape2280-308" v:mID="2280" v:groupContext="shape" transform="translate(7.19713,-18.0989)">
					<title>Sheet.2280</title>
					<v:userDefs>
						<v:ud v:nameU="msvDisableCustomConnectionPoints" v:prompt="" v:val="VT0(1):5"/>
					</v:userDefs>
					<path d="M24.06 1181.01 L12.04 1188 L0 1181.01 L12.04 1174.01 L24.06 1181.01 Z" class="st8"/>
				</g>
				<g id="shape2281-310" v:mID="2281" v:groupContext="shape" transform="translate(7.19713,-4.20258)">
					<title>Sheet.2281</title>
					<v:userDefs>
						<v:ud v:nameU="msvDisableCustomConnectionPoints" v:prompt="" v:val="VT0(1):5"/>
					</v:userDefs>
					<path d="M12.02 1174.1 L12.02 1188 L0 1181.01 L0 1167.11 L12.02 1174.1 Z" class="st9"/>
				</g>
				<g id="shape2282-312" v:mID="2282" v:groupContext="shape" transform="translate(7.19713,-4.20258)">
					<title>Sheet.2282</title>
					<v:userDefs>
						<v:ud v:nameU="msvDisableCustomConnectionPoints" v:prompt="" v:val="VT0(1):5"/>
					</v:userDefs>
					<path d="M0 1181.01 L12.02 1174.08 L12.02 1188 L0 1181.01 Z" class="st8"/>
				</g>
				<g id="shape2283-314" v:mID="2283" v:groupContext="shape" transform="translate(19.215,-4.20258)">
					<title>Sheet.2283</title>
					<v:userDefs>
						<v:ud v:nameU="msvDisableCustomConnectionPoints" v:prompt="" v:val="VT0(1):5"/>
					</v:userDefs>
					<path d="M12.04 1181.01 L0 1174.08 L0 1188 L12.04 1181.01 Z" class="st9"/>
				</g>
			</g>
			<g id="shape2270-316" v:mID="2270" v:groupContext="groupContent">
				<v:textBlock v:margins="rect(0,0,0,0)"/>
				<v:textRect cx="19.2376" cy="1195.2" width="72" height="12.0036"/>
				<text x="-13.45" y="1198.2" class="st12" v:langID="1033"><v:paragraph v:horizAlign="1"/><v:tabList/>Resource Group</text>			</g>
		</g>
		<g id="group2284-318" transform="translate(1469.02,-295.874)" v:mID="2284" v:groupContext="group">
			<v:userDefs>
				<v:ud v:nameU="msvDisableCustomConnectionPoints" v:prompt="" v:val="VT0(1):5"/>
				<v:ud v:nameU="visNavOrder" v:prompt="" v:val="VT0(158000):26"/>
			</v:userDefs>
			<title>Resource Groups.2284</title>
			<desc>Resource Group</desc>
			<g id="group2285-319" v:mID="2285" v:groupContext="group">
				<v:userDefs>
					<v:ud v:nameU="msvDisableCustomConnectionPoints" v:prompt="" v:val="VT0(1):5"/>
				</v:userDefs>
				<title>Sheet.2285</title>
				<g id="group2286-320" v:mID="2286" v:groupContext="group">
					<v:userDefs>
						<v:ud v:nameU="msvDisableCustomConnectionPoints" v:prompt="" v:val="VT0(1):5"/>
					</v:userDefs>
					<title>Sheet.2286</title>
					<g id="shape2287-321" v:mID="2287" v:groupContext="shape">
						<title>Sheet.2287</title>
						<v:userDefs>
							<v:ud v:nameU="msvDisableCustomConnectionPoints" v:prompt="" v:val="VT0(1):5"/>
						</v:userDefs>
						<path d="M0 1183.62 a0.36212 0.36212 -180 0 0 0.18106 0.316855 L2.81 1185.4 L7.24 1187.96 a0.384752 0.384752
									 -180 0 0 0.520547 -0.135795 L9.26 1185.29 a0.36212 0.36212 -180 0 0 -0.135795 -0.475282 L3.92
									 1181.87 a0.384752 0.384752 0 0 1 -0.18106 -0.316855 L3.73 1158.2 a0.36212 0.36212 0 0 1 0.18106
									 -0.316855 L9.12 1154.94 a0.36212 0.36212 -180 0 0 0.135795 -0.475282 L7.76 1151.93 a0.384752
									 0.384752 -180 0 0 -0.520547 -0.18106 L2.9 1154.26 L0.18 1155.78 a0.36212 0.36212 -180 0 0 -0.18106
									 0.316855 L0 1183.62 Z" class="st5"/>
					</g>
					<g id="shape2288-323" v:mID="2288" v:groupContext="shape" transform="translate(0,-29.981)">
						<title>Sheet.2288</title>
						<v:userDefs>
							<v:ud v:nameU="msvDisableCustomConnectionPoints" v:prompt="" v:val="VT0(1):5"/>
						</v:userDefs>
						<path d="M3.71 1188 L3.85 1187.86 L9.05 1184.92 a0.316855 0.316855 -180 0 0 0.135795 -0.475282 L7.7 1181.91
									 a0.339487 0.339487 -180 0 0 -0.497915 -0.18106 L2.83 1184.24 L0.14 1185.76 C0.14 1185.76 0.02
									 1185.76 0 1185.9 L2.04 1187.05 L3.71 1188 Z" class="st6"/>
					</g>
					<g id="shape2289-325" v:mID="2289" v:groupContext="shape" transform="translate(0.0226325,-0.0819243)">
						<title>Sheet.2289</title>
						<v:userDefs>
							<v:ud v:nameU="msvDisableCustomConnectionPoints" v:prompt="" v:val="VT0(1):5"/>
						</v:userDefs>
						<path d="M9.03 1184.85 L3.82 1181.91 a0.497915 0.497915 0 0 1 -0.158427 -0.203692 L0 1183.97 L0.11 1183.97
									 L2.72 1185.44 L7.24 1187.95 a0.339487 0.339487 -180 0 0 0.497915 -0.135795 L9.23 1185.28 a0.316855
									 0.316855 -180 0 0 -0.203692 -0.430017 Z" class="st6"/>
					</g>
				</g>
				<g id="shape2290-327" v:mID="2290" v:groupContext="shape" transform="translate(29.1927,0)">
					<title>Sheet.2290</title>
					<v:userDefs>
						<v:ud v:nameU="msvDisableCustomConnectionPoints" v:prompt="" v:val="VT0(1):5"/>
					</v:userDefs>
					<path d="M9.28 1183.62 a0.36212 0.36212 0 0 1 -0.18106 0.316855 L6.48 1185.4 L2.04 1187.96 a0.384752 0.384752
								 0 0 1 -0.520547 -0.135795 L0.03 1185.29 a0.36212 0.36212 0 0 1 0.135795 -0.475282 L5.37 1181.87
								 a0.384752 0.384752 -180 0 0 0.18106 -0.316855 L5.55 1158.2 a0.36212 0.36212 -180 0 0 -0.18106 -0.316855
								 L0.16 1154.94 a0.36212 0.36212 0 0 1 -0.135795 -0.475282 L1.52 1151.93 a0.384752 0.384752 0 0 1
								 0.520547 -0.18106 L6.39 1154.22 L9.1 1155.73 a0.36212 0.36212 0 0 1 0.18106 0.316855 L9.28 1183.62
								 Z" class="st5"/>
				</g>
				<g id="shape2291-329" v:mID="2291" v:groupContext="shape" transform="translate(29.2403,-29.981)">
					<title>Sheet.2291</title>
					<v:userDefs>
						<v:ud v:nameU="msvDisableCustomConnectionPoints" v:prompt="" v:val="VT0(1):5"/>
					</v:userDefs>
					<path d="M5.52 1188 L5.39 1187.86 L0.18 1184.92 a0.316855 0.316855 0 0 1 -0.135795 -0.475282 L1.54 1181.91 a0.339487
								 0.339487 0 0 1 0.497915 -0.18106 L6.41 1184.2 L9.1 1185.71 C9.1 1185.71 9.1 1185.71 9.23 1185.85
								 L7.2 1187 L5.52 1188 Z" class="st6"/>
				</g>
				<g id="shape2292-331" v:mID="2292" v:groupContext="shape" transform="translate(29.2903,-0.0819243)">
					<title>Sheet.2292</title>
					<v:userDefs>
						<v:ud v:nameU="msvDisableCustomConnectionPoints" v:prompt="" v:val="VT0(1):5"/>
					</v:userDefs>
					<path d="M0.13 1184.85 L5.34 1181.91 a0.497915 0.497915 -180 0 0 0.158427 -0.203692 L9.16 1183.97 L6.56 1185.44
								 L2.03 1187.95 a0.339487 0.339487 0 0 1 -0.497915 -0.135795 L0.04 1185.28 a0.316855 0.316855 0 0
								 1 0.0905299 -0.430017 Z" class="st6"/>
				</g>
				<g id="shape2293-333" v:mID="2293" v:groupContext="shape" transform="translate(19.215,-4.20258)">
					<title>Sheet.2293</title>
					<v:userDefs>
						<v:ud v:nameU="msvDisableCustomConnectionPoints" v:prompt="" v:val="VT0(1):5"/>
					</v:userDefs>
					<path d="M12.04 1167.11 L12.04 1181.01 L0 1188 L0 1174.08 L12.04 1167.11 Z" class="st7"/>
				</g>
				<g id="shape2294-335" v:mID="2294" v:groupContext="shape" transform="translate(7.19713,-18.0989)">
					<title>Sheet.2294</title>
					<v:userDefs>
						<v:ud v:nameU="msvDisableCustomConnectionPoints" v:prompt="" v:val="VT0(1):5"/>
					</v:userDefs>
					<path d="M24.06 1181.01 L12.04 1188 L0 1181.01 L12.04 1174.01 L24.06 1181.01 Z" class="st8"/>
				</g>
				<g id="shape2295-337" v:mID="2295" v:groupContext="shape" transform="translate(7.19713,-4.20258)">
					<title>Sheet.2295</title>
					<v:userDefs>
						<v:ud v:nameU="msvDisableCustomConnectionPoints" v:prompt="" v:val="VT0(1):5"/>
					</v:userDefs>
					<path d="M12.02 1174.1 L12.02 1188 L0 1181.01 L0 1167.11 L12.02 1174.1 Z" class="st9"/>
				</g>
				<g id="shape2296-339" v:mID="2296" v:groupContext="shape" transform="translate(7.19713,-4.20258)">
					<title>Sheet.2296</title>
					<v:userDefs>
						<v:ud v:nameU="msvDisableCustomConnectionPoints" v:prompt="" v:val="VT0(1):5"/>
					</v:userDefs>
					<path d="M0 1181.01 L12.02 1174.08 L12.02 1188 L0 1181.01 Z" class="st8"/>
				</g>
				<g id="shape2297-341" v:mID="2297" v:groupContext="shape" transform="translate(19.215,-4.20258)">
					<title>Sheet.2297</title>
					<v:userDefs>
						<v:ud v:nameU="msvDisableCustomConnectionPoints" v:prompt="" v:val="VT0(1):5"/>
					</v:userDefs>
					<path d="M12.04 1181.01 L0 1174.08 L0 1188 L12.04 1181.01 Z" class="st9"/>
				</g>
			</g>
			<g id="shape2284-343" v:mID="2284" v:groupContext="groupContent">
				<v:textBlock v:margins="rect(0,0,0,0)"/>
				<v:textRect cx="19.2376" cy="1195.2" width="72" height="12.0036"/>
				<text x="-13.45" y="1198.2" class="st12" v:langID="1033"><v:paragraph v:horizAlign="1"/><v:tabList/>Resource Group</text>			</g>
		</g>
		<g id="shape2298-345" v:mID="2298" v:groupContext="shape" transform="translate(1420.82,-359.956)">
			<title>Sheet.2298</title>
			<desc>5</desc>
			<v:userDefs>
				<v:ud v:nameU="visNavOrder" v:val="VT0(159000):26"/>
			</v:userDefs>
			<v:textBlock v:margins="rect(4,4,4,4)"/>
			<v:textRect cx="14" cy="1178" width="28.01" height="20"/>
			<rect x="0" y="1168" width="28" height="20" class="st13"/>
			<text x="4.88" y="1188.8" class="st28" v:langID="1033"><v:paragraph v:horizAlign="1"/><v:tabList/>5</text>		</g>
		<g id="shape2299-348" v:mID="2299" v:groupContext="shape" transform="translate(1420.82,-304.014)">
			<title>Sheet.2299</title>
			<desc>5</desc>
			<v:userDefs>
				<v:ud v:nameU="visNavOrder" v:val="VT0(160000):26"/>
			</v:userDefs>
			<v:textBlock v:margins="rect(4,4,4,4)"/>
			<v:textRect cx="14" cy="1178" width="28.01" height="20"/>
			<rect x="0" y="1168" width="28" height="20" class="st13"/>
			<text x="4.88" y="1188.8" class="st28" v:langID="1033"><v:paragraph v:horizAlign="1"/><v:tabList/>5</text>		</g>
		<g id="group1957-351" transform="translate(1213.37,-1125.11)" v:mID="1957" v:groupContext="group">
			<v:userDefs>
				<v:ud v:nameU="msvDisableCustomConnectionPoints" v:prompt="" v:val="VT0(1):5"/>
				<v:ud v:nameU="visNavOrder" v:val="VT0(265000):26"/>
			</v:userDefs>
			<title>Subscriptions.1957</title>
			<desc>Subscription A</desc>
			<g id="shape1958-352" v:mID="1958" v:groupContext="shape">
				<title>e3d1e58c-f78e-4fb5-9857-0c9331d</title>
				<v:userDefs>
					<v:ud v:nameU="msvDisableCustomConnectionPoints" v:prompt="" v:val="VT0(1):5"/>
				</v:userDefs>
				<path d="M26.49 1160.8 A5.15338 5.15338 -180 0 0 26.49 1153.51 L17.62 1144.62 A5.12849 5.12849 -180 0 0 10.36 1144.62
							 L1.49 1153.51 A5.20317 5.20317 -180 0 0 1.49 1160.8 L8.96 1168.27 A1.51863 1.51863 0 0 1 9.38 1169.29
							 L9.38 1183.04 A1.74269 1.74269 -180 0 0 9.88 1184.28 L13.24 1187.64 A1.1203 1.1203 -180 0 0 14.89 1187.64
							 L18.15 1184.38 L20.06 1182.46 a0.647285 0.647285 -180 0 0 -1.42109E-14 -0.946031 L18.7 1180.12 a0.721971
							 0.721971 0 0 1 -7.10543E-15 -1.04561 L20.06 1177.68 a0.647285 0.647285 -180 0 0 7.10543E-15 -0.946031
							 L18.62 1175.27 a0.697076 0.697076 0 0 1 -1.06581E-14 -1.02072 L20.11 1172.78 a0.647285 0.647285 -180
							 0 0 -4.26326E-14 -0.946031 L18.2 1169.89 L18.2 1169.19 L26.49 1160.8 ZM14.04 1146.76 A2.93768 2.93768
							 0 1 1 11.08 1149.7 A2.91278 2.91278 0 0 1 13.99 1146.76 L14.04 1146.76 Z" class="st29"/>
			</g>
			<g id="shape1959-356" v:mID="1959" v:groupContext="shape" transform="translate(11.4007,-4.72711)">
				<title>a21a8f7a-61cc-4035-8449-e5c8fe4</title>
				<v:userDefs>
					<v:ud v:nameU="msvDisableCustomConnectionPoints" v:prompt="" v:val="VT0(1):5"/>
				</v:userDefs>
				<path d="M0.3 1187.99 a0.622389 0.622389 -180 0 0 0.946031 -0.522807 L1.24 1176.39 a0.67218 0.67218 -180 0 0 -0.273851
							 -0.547702 a0.622389 0.622389 -180 0 0 -0.970927 0.547702 L0 1187.46 a0.67218 0.67218 -180 0 0 0.298747
							 0.522807 Z" class="st30"/>
			</g>
			<g id="shape1960-358" v:mID="1960" v:groupContext="shape" transform="translate(6.89459,-29.8101)">
				<title>ecd3189c-fb1e-4a0e-a2b6-ba2f11d</title>
				<v:userDefs>
					<v:ud v:nameU="msvDisableCustomConnectionPoints" v:prompt="" v:val="VT0(1):5"/>
				</v:userDefs>
				<path d="M-0 1187.2 a0.796676 0.796676 -180 0 0 0.796658 0.796658 L13.79 1188 a0.796676 0.796676 -180 0 0 0.796658
							 -0.796658 L14.59 1187.08 a0.796676 0.796676 -180 0 0 -0.796658 -0.796658 L0.8 1186.28 a0.796676 0.796676
							 -180 0 0 -0.796658 0.796658 L0 1187.2 Z" class="st30"/>
			</g>
			<g id="shape1961-360" v:mID="1961" v:groupContext="shape" transform="translate(6.89459,-27.0218)">
				<title>a1949a3c-4818-4bd1-b236-0d970b9</title>
				<v:userDefs>
					<v:ud v:nameU="msvDisableCustomConnectionPoints" v:prompt="" v:val="VT0(1):5"/>
				</v:userDefs>
				<path d="M-0 1187.2 a0.796676 0.796676 -180 0 0 0.796658 0.796658 L13.79 1188 a0.796676 0.796676 -180 0 0 0.796658
							 -0.796658 L14.59 1187.08 a0.796676 0.796676 -180 0 0 -0.796658 -0.796658 L0.8 1186.28 a0.796676 0.796676
							 -180 0 0 -0.796658 0.796658 L0 1187.2 Z" class="st30"/>
			</g>
			<g id="shape1957-362" v:mID="1957" v:groupContext="groupContent">
				<v:textBlock v:margins="rect(0,0,0,0)"/>
				<v:textRect cx="14" cy="1208.16" width="72" height="33.6033"/>
				<text x="-21.31" y="1203.96" class="st10" v:langID="1033"><v:paragraph v:horizAlign="1"/><v:tabList/>Subscription<v:lf/><tspan
							x="9.95" dy="1.2em" class="st11">A</tspan></text>			</g>
		</g>
	</g>
</svg>
