<svg id="Layer_1" data-name="Layer 1" xmlns="http://www.w3.org/2000/svg" viewBox="0 0 64 64"><defs><style>.cls-1{fill:#333;fill-rule:evenodd;}</style></defs><title>logo_octokitty</title><path class="cls-1" d="M32,0C14.33,0,0,14.69,0,32.81A32.75,32.75,0,0,0,21.89,63.94c1.6.3,2.18-.71,2.18-1.58s0-2.84,0-5.58c-8.9,2-10.78-4.4-10.78-4.4-1.46-3.79-3.55-4.8-3.55-4.8-2.91-2,.22-2,.22-2,3.21.23,4.9,3.38,4.9,3.38,2.85,5,7.49,3.57,9.31,2.73a7.08,7.08,0,0,1,2-4.39c-7.11-.83-14.58-3.64-14.58-16.22a12.86,12.86,0,0,1,3.29-8.8,12.08,12.08,0,0,1,.31-8.68S17.88,12.73,24,17a29.61,29.61,0,0,1,16,0c6.11-4.25,8.79-3.36,8.79-3.36a12.06,12.06,0,0,1,.32,8.68,12.84,12.84,0,0,1,3.29,8.8c0,12.6-7.48,15.38-14.61,16.19,1.15,1,2.17,3,2.17,6.08,0,4.39,0,7.93,0,9,0,.88.58,1.9,2.2,1.58A32.76,32.76,0,0,0,64,32.81C64,14.69,49.67,0,32,0Z"/></svg>