<svg id="Icons" xmlns="http://www.w3.org/2000/svg" viewBox="0 0 48 48"><defs><style>.cls-1{fill:#ffb900;}.cls-2{fill:#a0a1a2;}.cls-3{fill:#7a7a7a;}.cls-4{fill:#0072c6;}.cls-5,.cls-6{fill:#fff;}.cls-6{opacity:0.2;isolation:isolate;}</style></defs><title>logo_blob</title><path class="cls-1" d="M18.94,16,30.43,0H17.37L3.43,22H13L3,45,30,16Z"/><path class="cls-2" d="M16,46.78A1.2,1.2,0,0,0,17.15,48H46.78A1.22,1.22,0,0,0,48,46.78V26H16Z"/><path class="cls-3" d="M47,21H17.15c-.64,0-1.15.25-1.15.89V26H48V21.89c0-.64-.51-.89-1.22-.89"/><rect class="cls-4" x="18" y="28" width="13" height="8"/><rect class="cls-4" x="18" y="37" width="13" height="9"/><rect class="cls-5" x="33" y="28" width="13" height="8"/><rect class="cls-4" x="33" y="37" width="13" height="9"/><path class="cls-6" d="M17.28,21c-.7,0-1.28.25-1.28,1v24.7A1.34,1.34,0,0,0,17.28,48h1.41L43.9,21Z"/></svg>