<svg width="16" height="16" viewBox="0 0 16 16" fill="none" xmlns="http://www.w3.org/2000/svg">
<path d="M8.01782 11.0824C9.73003 11.0824 11.118 9.69439 11.118 7.98218C11.118 6.26998 9.73003 4.88196 8.01782 4.88196C6.30562 4.88196 4.9176 6.26998 4.9176 7.98218C4.9176 9.69439 6.30562 11.0824 8.01782 11.0824Z" fill="#D83B01"/>
<path d="M8.01782 3.70601C7.51894 3.70601 7.12695 3.31403 7.12695 2.81515V0.890869C7.12695 0.391982 7.51894 0 8.01782 0C8.51671 0 8.90869 0.391982 8.90869 0.890869V2.81515C8.90869 3.31403 8.51671 3.70601 8.01782 3.70601Z" fill="#D83B01"/>
<path d="M6.8775 7.73273C6.66369 7.73273 6.41424 7.66146 6.23607 7.48329L2.35189 3.5991C1.99554 3.24275 1.99554 2.6726 2.35189 2.35189C2.70823 1.99554 3.27839 1.99554 3.5991 2.35189L7.48329 6.20044C7.83963 6.55679 7.83963 7.12694 7.48329 7.44766C7.30511 7.66146 7.09131 7.73273 6.8775 7.73273Z" fill="#D83B01"/>
<path d="M2.81514 8.87305H0.890869C0.391982 8.87305 0 8.48106 0 7.98218C0 7.48329 0.391982 7.09131 0.890869 7.09131H2.81514C3.31403 7.09131 3.70601 7.48329 3.70601 7.98218C3.70601 8.48106 3.31403 8.87305 2.81514 8.87305Z" fill="#D83B01"/>
<path d="M2.99331 13.8976C2.7795 13.8976 2.53006 13.8263 2.35189 13.6481C1.99554 13.2918 1.99554 12.7216 2.35189 12.4009L6.23607 8.51671C6.59242 8.16036 7.16257 8.16036 7.48329 8.51671C7.83963 8.87306 7.83963 9.44321 7.48329 9.76393L3.5991 13.6481C3.42093 13.8263 3.20712 13.8976 2.99331 13.8976Z" fill="#D83B01"/>
<path d="M8.01782 16C7.51894 16 7.12695 15.608 7.12695 15.1091V13.1848C7.12695 12.686 7.51894 12.294 8.01782 12.294C8.51671 12.294 8.90869 12.686 8.90869 13.1848V15.1091C8.90869 15.608 8.51671 16 8.01782 16Z" fill="#D83B01"/>
<path d="M13.0423 13.8976C12.8285 13.8976 12.5791 13.8263 12.4009 13.6481L8.51671 9.76393C8.16036 9.40758 8.16036 8.83742 8.51671 8.51671C8.87306 8.16036 9.44321 8.16036 9.76393 8.51671L13.6481 12.4009C14.0045 12.7572 14.0045 13.3274 13.6481 13.6481C13.5056 13.8263 13.2561 13.8976 13.0423 13.8976Z" fill="#D83B01"/>
<path d="M15.1091 8.87305H13.1848C12.686 8.87305 12.294 8.48106 12.294 7.98218C12.294 7.48329 12.686 7.09131 13.1848 7.09131H15.1091C15.608 7.09131 16 7.48329 16 7.98218C16 8.48106 15.608 8.87305 15.1091 8.87305Z" fill="#D83B01"/>
<path d="M9.15814 7.73273C8.94433 7.73273 8.69489 7.66146 8.51671 7.48329C8.16036 7.12694 8.16036 6.55679 8.51671 6.23607L12.4009 2.35189C12.7572 1.99554 13.3274 1.99554 13.6481 2.35189C14.0045 2.70823 14.0045 3.27839 13.6481 3.5991L9.76393 7.48329C9.62139 7.66146 9.37195 7.73273 9.15814 7.73273Z" fill="#D83B01"/>
</svg>
