<svg xmlns="http://www.w3.org/2000/svg" width="50" height="50" viewBox="0 0 50 50">
    <path fill="#0F0F0F" d="M28.431 27.562c0 .811-.254 1.462-.764 1.955-.512.493-1.254.796-2.23.908v1.59h-1.07v-1.546c-1.006-.01-1.928-.234-2.768-.674v-2.028c.264.215.684.423 1.264.626.578.202 1.08.318 1.504.348v-2.666c-1.078-.4-1.844-.839-2.293-1.314-.449-.477-.674-1.103-.674-1.879s.277-1.432.828-1.967c.553-.534 1.266-.846 2.139-.934v-1.362h1.07v1.333c1.029.049 1.799.215 2.307.498v1.978a5.642 5.642 0 00-2.307-.762v2.775c1.078.392 1.848.831 2.307 1.318.459.49.687 1.09.687 1.803zm-4.064-3.545v-2.322c-.678.122-1.018.477-1.018 1.063 0 .511.34.932 1.018 1.259zm2.117 3.647c0-.473-.35-.863-1.047-1.172v2.22c.697-.113 1.047-.462 1.047-1.048z"/>
    <path fill="#7FBA00" d="M25 38.81c-7.627 0-13.811-6.183-13.811-13.809s6.183-13.809 13.81-13.81c7.627 0 13.81 6.182 13.81 13.809h11.19c0-13.807-11.192-25-25-25v.001C11.191.002 0 11.194 0 25.001s11.192 25 25 25a24.898 24.898 0 0016.641-6.35l-7.457-8.358A13.742 13.742 0 0125 38.81z"/>
    <path fill="#FFF" d="M25 38.81c-7.627 0-13.811-6.183-13.811-13.809s6.183-13.809 13.81-13.81c7.627 0 13.81 6.182 13.81 13.809h11.19c0-13.807-11.192-25-25-25v.001C11.191.002 0 11.194 0 25.001s11.192 25 25 25a24.898 24.898 0 0016.641-6.35l-7.457-8.358A13.742 13.742 0 0125 38.81z" opacity=".1"/>
    <path fill="#FCD116" d="M50 25H38.809c0 4.096-1.793 7.764-4.625 10.292l7.457 8.359C46.768 39.072 50 32.415 50 25"/>
    <path fill="#B8D432" d="M38.809 25h11.19c0-13.807-11.192-25-25-25v11.191c7.626 0 13.81 6.182 13.81 13.809" opacity=".9"/>
</svg>
