<svg xmlns="http://www.w3.org/2000/svg" width="18" height="18" viewBox="0 0 18 18">
    <defs>
        <linearGradient id="b1a97c07-b126-40c1-af5c-44a3b300d0ee" x1="-655.644" x2="-655.644" y1="751.401" y2="763.239" gradientTransform="translate(667.725 -742.844)" gradientUnits="userSpaceOnUse">
            <stop offset="0" stop-color="#76bc2d"/>
            <stop offset=".312" stop-color="#72b62c"/>
            <stop offset="1" stop-color="#5e9624"/>
        </linearGradient>
        <linearGradient id="a3877e25-982a-4897-8137-8a5dd1ced9f3" x1="-650.227" x2="-650.227" y1="759.495" y2="763.239" gradientTransform="translate(666.355 -752.308)" gradientUnits="userSpaceOnUse">
            <stop offset="0" stop-color="#76bc2d"/>
            <stop offset=".312" stop-color="#72b62c"/>
            <stop offset="1" stop-color="#5e9624"/>
        </linearGradient>
        <linearGradient id="a0958e5a-331e-4c24-9b86-75ae08b642f3" x1="-644.724" x2="-644.724" y1="751.401" y2="763.239" gradientTransform="translate(656.805 -753.765)" gradientUnits="userSpaceOnUse">
            <stop offset="0" stop-color="#76bc2d"/>
            <stop offset=".312" stop-color="#72b62c"/>
            <stop offset="1" stop-color="#5e9624"/>
        </linearGradient>
    </defs>
    <title>
        MsPortalFx.base.images-30
    </title>
    <rect width="2.494" height="18" x="7.753" y="5.476" fill="#5e9624" rx=".596" transform="rotate(-90 9 14.476)"/>
    <rect width="2.494" height="18" x="7.753" y=".059" fill="#5e9624" rx=".596" transform="rotate(-90 9 9.059)"/>
    <rect width="2.494" height="18" x="7.753" y="-5.444" fill="#5e9624" rx=".596" transform="rotate(-90 9 3.556)"/>
    <rect width="2.494" height="11.838" x="10.834" y="8.557" fill="url(#b1a97c07-b126-40c1-af5c-44a3b300d0ee)" rx=".596" transform="rotate(-90 12.081 14.476)"/>
    <rect width="2.494" height="3.744" x="14.881" y="7.187" fill="url(#a3877e25-982a-4897-8137-8a5dd1ced9f3)" rx=".596" transform="rotate(-90 16.128 9.06)"/>
    <rect width="2.494" height="11.838" x="10.834" y="-2.363" fill="url(#a0958e5a-331e-4c24-9b86-75ae08b642f3)" rx=".596" transform="rotate(-90 12.081 3.556)"/>
    <rect width="3.766" height="1.178" x="4.74" y="13.855" fill="#e6e6e6" rx=".589" transform="rotate(-90 6.623 14.444)"/>
    <rect width="3.766" height="1.178" x="12.671" y="8.419" fill="#e6e6e6" rx=".589" transform="rotate(-90 14.554 9.008)"/>
    <rect width="3.766" height="1.178" x="4.74" y="2.967" fill="#e6e6e6" rx=".589" transform="rotate(-90 6.623 3.556)"/>
</svg>
