<svg xmlns="http://www.w3.org/2000/svg" width="18" height="18" viewBox="0 0 18 18">
    <defs>
        <linearGradient id="b3088683-8265-4928-ad86-999607a53d8b" x1="54.259" x2="54.259" y1="17.732" y2="12.155" gradientTransform="translate(-48.199 .923)" gradientUnits="userSpaceOnUse">
            <stop offset="0" stop-color="#76bc2d"/>
            <stop offset=".192" stop-color="#7fcb30"/>
            <stop offset=".42" stop-color="#84d332"/>
            <stop offset=".775" stop-color="#86d633"/>
        </linearGradient>
        <linearGradient id="b6572822-9d06-40d7-9f8a-609e85cc5056" x1="8.267" x2="8.267" y1="14.714" y2="1.379" gradientUnits="userSpaceOnUse">
            <stop offset="0" stop-color="#1988d9"/>
            <stop offset=".9" stop-color="#54aef0"/>
        </linearGradient>
    </defs>
    <title>
        MsPortalFx.base.images-47
    </title>
    <path fill="#005ba1" d="M2.881 1.393L3.93.175A.51.51 0 014.314 0h10.052a.7.7 0 01.768.719v12.546a.508.508 0 01-.166.377l-1.132 1.031H3.561l-.695-.292z"/>
    <path fill="#fff" d="M3.725 1.387l.642-.732A.453.453 0 014.707.5H14.1a.451.451 0 01.451.452v11.93a.45.45 0 01-.147.334l-1 .914z"/>
    <path fill="url(#b3088683-8265-4928-ad86-999607a53d8b)" d="M7.654 12.9h-3.19a.172.172 0 00-.171.172V17.9a.086.086 0 00.139.067l1.574-1.234a.082.082 0 01.036-.015h-.006l1.79-1.4V13.07a.172.172 0 00-.172-.17z"/>
    <path fill="#76bc2d" d="M6.036 16.712l1.79-1.4v2.6a.086.086 0 01-.138.068z"/>
    <path fill="url(#b6572822-9d06-40d7-9f8a-609e85cc5056)" d="M13.334 1.379H2.914a.048.048 0 00-.048.048v12.954a.333.333 0 00.333.333h10.135a.334.334 0 00.334-.333V1.712a.334.334 0 00-.334-.333z"/>
    <path fill="#fff" d="M6.059 6.142v3.544H5.3V7a.931.931 0 01-.149.1 1.463 1.463 0 01-.182.089 1.7 1.7 0 01-.2.068 1.386 1.386 0 01-.206.04v-.635a3.08 3.08 0 00.561-.223 3.169 3.169 0 00.477-.3zM8.3 9.747q-1.239 0-1.238-1.739A2.358 2.358 0 017.4 6.634a1.115 1.115 0 01.97-.473q1.209 0 1.209 1.768a2.331 2.331 0 01-.33 1.349 1.085 1.085 0 01-.949.469zm.034-3q-.5 0-.5 1.245 0 1.173.486 1.173t.48-1.212q0-1.209-.465-1.209zm3.422-.605v3.544h-.762V7a.888.888 0 01-.149.1 1.463 1.463 0 01-.182.089 1.636 1.636 0 01-.2.068 1.4 1.4 0 01-.205.04v-.635a3.139 3.139 0 00.561-.223 3.209 3.209 0 00.476-.3z"/>
</svg>
