<?xml version="1.0" encoding="UTF-8" standalone="no"?>
<!DOCTYPE svg PUBLIC "-//W3C//DTD SVG 1.1//EN" "http://www.w3.org/Graphics/SVG/1.1/DTD/svg11.dtd">
<!-- 由 Microsoft Visio, SVG Export 生成 Azure Functions-1.svg Page-1 -->
<svg xmlns="http://www.w3.org/2000/svg" xmlns:xlink="http://www.w3.org/1999/xlink" xmlns:ev="http://www.w3.org/2001/xml-events"
		xmlns:v="http://schemas.microsoft.com/visio/2003/SVGExtensions/" width="5.11811in" height="3.14961in"
		viewBox="0 0 368.504 226.772" xml:space="preserve" color-interpolation-filters="sRGB" class="st18">
	<v:documentProperties v:langID="2052" v:metric="true" v:viewMarkup="false">
		<v:userDefs>
			<v:ud v:nameU="msvNoAutoConnect" v:val="VT0(1):26"/>
		</v:userDefs>
	</v:documentProperties>

	<style type="text/css">
	<![CDATA[
		.st1 {fill:#0078d7;stroke:none;stroke-linecap:round;stroke-linejoin:round;stroke-width:0.75}
		.st2 {fill:#50e6ff;stroke:none;stroke-linecap:round;stroke-linejoin:round;stroke-width:0.75}
		.st3 {stroke:none;stroke-linecap:round;stroke-linejoin:round;stroke-width:0.75}
		.st4 {fill:#a6a6a6;font-family:Segoe UI;font-size:1.16666em}
		.st5 {font-size:1em}
		.st6 {fill:url(#grad0-29);stroke:none;stroke-linecap:butt;stroke-width:0.75}
		.st7 {fill:#37c2b1;stroke:none;stroke-linecap:butt;stroke-width:0.75}
		.st8 {fill:#ffffff;stroke:none;stroke-linecap:butt;stroke-width:0.75}
		.st9 {fill:#258277;stroke:none;stroke-linecap:butt;stroke-width:0.75}
		.st10 {marker-end:url(#mrkr4-55);stroke:#a6a6a6;stroke-linecap:round;stroke-linejoin:round;stroke-width:1.5}
		.st11 {fill:#a6a6a6;fill-opacity:1;stroke:#a6a6a6;stroke-opacity:1;stroke-width:0.37313432835821}
		.st12 {stroke:#a6a6a6;stroke-linecap:round;stroke-linejoin:round;stroke-width:1.5}
		.st13 {fill:none;stroke:url(#grad0-89);stroke-linecap:round;stroke-linejoin:round;stroke-width:1.5}
		.st14 {fill:url(#grad1-95);stroke:none;stroke-linecap:butt;stroke-width:0.75}
		.st15 {fill:#50e6ff;stroke:none;stroke-linecap:butt;stroke-width:0.561468}
		.st16 {fill:#1490df;stroke:none;stroke-linecap:butt;stroke-width:0.561468}
		.st17 {fill:none;stroke:#f2f2f2;stroke-linecap:round;stroke-linejoin:round;stroke-width:0.75}
		.st18 {fill:none;fill-rule:evenodd;font-size:12px;overflow:visible;stroke-linecap:square;stroke-miterlimit:3}
	]]>
	</style>

	<defs id="Patterns_And_Gradients">
		<linearGradient id="grad0-29" x1="0" y1="0" x2="1" y2="0" gradientTransform="rotate(-90 0.5 0.5)">
			<stop offset="0" stop-color="#b3b3b3" stop-opacity="1"/>
			<stop offset="0.26" stop-color="#c1c1c1" stop-opacity="1"/>
			<stop offset="1" stop-color="#e6e6e6" stop-opacity="1"/>
		</linearGradient>
		<linearGradient id="grad0-89" x1="0" y1="0" x2="1" y2="0" gradientTransform="rotate(90 0.5 0.5)">
			<stop offset="0" stop-color="#0070c0" stop-opacity="1"/>
			<stop offset="1" stop-color="#1ad6df" stop-opacity="1"/>
		</linearGradient>
		<radialGradient id="grad1-95" cx="1" cy="1" r="1.4">
			<stop offset="0.195" stop-color="#ffd70f" stop-opacity="1"/>
			<stop offset="0.44" stop-color="#ffcb12" stop-opacity="1"/>
			<stop offset="0.875" stop-color="#feac19" stop-opacity="1"/>
			<stop offset="1" stop-color="#fea11b" stop-opacity="1"/>
		</radialGradient>
	</defs>
	<defs id="Markers">
		<g id="lend4">
			<path d="M 2 1 L 0 0 L 2 -1 L 2 1 " style="stroke:none"/>
		</g>
		<marker id="mrkr4-55" class="st11" v:arrowType="4" v:arrowSize="2" v:setback="5.36" refX="-5.36" orient="auto"
				markerUnits="strokeWidth" overflow="visible">
			<use xlink:href="#lend4" transform="scale(-2.68,-2.68) "/>
		</marker>
	</defs>
	<g v:mID="0" v:index="1" v:groupContext="foregroundPage">
		<title>页-1</title>
		<v:pageProperties v:drawingScale="0.0393701" v:pageScale="0.0393701" v:drawingUnits="24" v:shadowOffsetX="8.50394"
				v:shadowOffsetY="-8.50394"/>
		<v:layer v:name="连接线" v:index="0"/>
		<g id="group82-1" transform="translate(-95.6274,-1644.09)" v:mID="82" v:groupContext="group">
			<title>工作表.82</title>
		</g>
		<g id="group413-2" transform="translate(18,-24.5902)" v:mID="413" v:groupContext="group">
			<title>工作表.413</title>
			<g id="shape243-3" v:mID="243" v:groupContext="shape" transform="translate(280.29,-25.1831)">
				<title>工作表.243</title>
				<path d="M50.95 226.76 L53.87 226.76 L53.87 212.66 L0 212.66 L0 226.77 L31.2 226.77 C33.74 224.27 37.23 222.73 41.07
							 222.73 C44.91 222.73 48.41 224.27 50.95 226.76 Z" class="st1"/>
			</g>
			<g id="shape244-5" v:mID="244" v:groupContext="shape" transform="translate(280.29,-8.31323)">
				<title>工作表.244</title>
				<path d="M28.79 212.66 L0 212.66 L0 226.77 L28.61 226.77 C27.48 224.73 26.83 222.38 26.83 219.86 C26.83 217.24 27.54
							 214.78 28.79 212.66 Z" class="st1"/>
			</g>
			<g id="shape245-7" v:mID="245" v:groupContext="shape" transform="translate(280.29,-42.2287)">
				<title>工作表.245</title>
				<path d="M0 212.66 L0 226.77 L53.87 226.77 L53.87 212.66 L0 212.66 L0 212.66 Z" class="st1"/>
			</g>
			<g id="shape246-9" v:mID="246" v:groupContext="shape" transform="translate(286.1,-46.2485)">
				<title>工作表.246</title>
				<path d="M2.95 226.77 C4.57 226.77 5.89 225.46 5.89 223.84 C5.89 222.21 4.57 220.9 2.95 220.9 C1.32 220.9 0 222.21
							 0 223.84 C-0 225.46 1.32 226.77 2.95 226.77 Z" class="st2"/>
			</g>
			<g id="shape247-11" v:mID="247" v:groupContext="shape" transform="translate(286.1,-12.333)">
				<title>工作表.247</title>
				<path d="M2.95 226.77 C4.57 226.77 5.89 225.46 5.89 223.84 C5.89 222.21 4.57 220.9 2.95 220.9 C1.32 220.9 0 222.21
							 0 223.84 C-0 225.46 1.32 226.77 2.95 226.77 Z" class="st2"/>
			</g>
			<g id="shape248-13" v:mID="248" v:groupContext="shape" transform="translate(286.1,-29.2029)">
				<title>工作表.248</title>
				<path d="M2.95 226.77 C4.57 226.77 5.89 225.46 5.89 223.84 C5.89 222.21 4.57 220.9 2.95 220.9 C1.32 220.9 0 222.21
							 0 223.84 C-0 225.46 1.32 226.77 2.95 226.77 Z" class="st2"/>
			</g>
			<g id="shape249-15" v:mID="249" v:groupContext="shape" transform="translate(311.101,-6.98429)">
				<title>工作表.249</title>
				<path d="M2.63 221.2 C1.87 219.22 1.94 217.04 2.83 215.1 C3.71 213.15 5.29 211.67 7.28 210.91 C8.46 210.46 9.66 210.31
							 10.89 210.44 L10.54 212.39 L14.89 210.03 L11.64 206.23 L11.27 208.38 C9.66 208.18 8.05 208.38 6.55 208.95
							 C4.03 209.9 2.02 211.78 0.9 214.24 C-0.21 216.69 -0.3 219.44 0.66 221.96 C1.34 223.77 2.52 225.34 4.07
							 226.49 L4.44 226.77 L5.7 225.07 L5.31 224.78 C4.1 223.87 3.17 222.63 2.63 221.2 Z" class="st1"/>
			</g>
			<g id="shape250-17" v:mID="250" v:groupContext="shape" transform="translate(317.791,-2.98648)">
				<title>工作表.250</title>
				<path d="M12.86 210.77 C12.26 209.15 11.25 207.74 9.94 206.63 L8.55 208.22 C9.58 209.1 10.39 210.22 10.87 211.51
							 C12.45 215.63 10.34 220.26 6.18 221.83 C5.48 222.09 4.73 222.25 3.97 222.3 L4.09 220.16 L0 222.98 L3.7
							 226.77 L3.84 224.43 C4.9 224.38 5.93 224.17 6.92 223.81 C12.18 221.83 14.84 215.99 12.86 210.77 Z"
						class="st1"/>
			</g>
			<g id="shape251-19" v:mID="251" v:groupContext="shape" transform="translate(200.059,-93.6854)">
				<title>工作表.251</title>
				<desc>Process file uploads</desc>
				<v:textBlock v:margins="rect(0,0,0,0)" v:tabSpace="42.5197"/>
				<v:textRect cx="47.2911" cy="210.791" width="94.59" height="31.9605"/>
				<path d="M94.58 194.81 L0 194.81 L0 226.77 L94.58 226.77 L94.58 194.81" class="st3"/>
				<text x="12.84" y="206.59" class="st4" v:langID="2052"><v:paragraph v:horizAlign="1"/><v:tabList/>Process file<tspan
							class="st5" v:langID="1033"> </tspan><tspan x="22.76" dy="1.2em" class="st5">uploads </tspan> </text>			</g>
			<g id="group253-25" transform="translate(0.00893951,-2.68023)" v:mID="253" v:groupContext="group">
				<title>存储帐户</title>
				<g id="shape254-26" v:mID="254" v:groupContext="shape">
					<title>工作表.254</title>
					<v:userDefs>
						<v:ud v:nameU="msvDisableCustomConnectionPoints" v:prompt="" v:val="VT0(1):5"/>
					</v:userDefs>
					<path d="M0 189.51 L50.68 189.51 L50.68 224.66 A1.69935 2.1133 0 0 1 48.98 226.77 L1.7 226.77 A1.69935 2.1133
								 0 0 1 0 224.66 L0 189.51 Z" class="st6"/>
				</g>
				<g id="shape255-30" v:mID="255" v:groupContext="shape" transform="translate(0,-37.2609)">
					<title>工作表.255</title>
					<v:userDefs>
						<v:ud v:nameU="msvDisableCustomConnectionPoints" v:prompt="" v:val="VT0(1):5"/>
					</v:userDefs>
					<path d="M1.7 213.35 L48.98 213.35 A1.69935 2.1133 0 0 1 50.68 215.46 L50.68 226.77 L0 226.77 L0 215.43 A1.69935
								 2.1133 0 0 1 1.7 213.35 Z" class="st7"/>
				</g>
				<g id="shape256-32" v:mID="256" v:groupContext="shape" transform="translate(6.11168,-25.9899)">
					<title>工作表.256</title>
					<v:userDefs>
						<v:ud v:nameU="msvDisableCustomConnectionPoints" v:prompt="" v:val="VT0(1):5"/>
					</v:userDefs>
					<path d="M0.78 219.58 L37.65 219.58 a0.804953 1.00104 0 0 1 0.77514 1.00104 L38.43 225.77 a0.804953 1.00104 0
								 0 1 -0.77514 1.00104 L0.78 226.77 a0.804953 1.00104 0 0 1 -0.77514 -1.00104 L0 220.58 a0.804953
								 1.00104 0 0 1 0.77514 -1.00104 Z" class="st8"/>
				</g>
				<g id="shape257-34" v:mID="257" v:groupContext="shape" transform="translate(6.14149,-15.6088)">
					<title>工作表.257</title>
					<v:userDefs>
						<v:ud v:nameU="msvDisableCustomConnectionPoints" v:prompt="" v:val="VT0(1):5"/>
					</v:userDefs>
					<path d="M0.78 219.54 L37.65 219.54 a0.804953 1.00104 0 0 1 0.77514 1.00104 L38.43 225.77 a0.804953 1.00104 0
								 0 1 -0.77514 1.00104 L0.78 226.77 a0.804953 1.00104 0 0 1 -0.77514 -1.00104 L0 220.73 a0.804953
								 1.00104 0 0 1 0.77514 -1.18642 Z" class="st7"/>
				</g>
				<g id="shape258-36" v:mID="258" v:groupContext="shape" transform="translate(6.14149,-5.1535)">
					<title>工作表.258</title>
					<v:userDefs>
						<v:ud v:nameU="msvDisableCustomConnectionPoints" v:prompt="" v:val="VT0(1):5"/>
					</v:userDefs>
					<path d="M0.78 219.54 L37.65 219.54 a0.804953 1.00104 0 0 1 0.77514 1.00104 L38.43 225.77 a0.804953 1.00104 0
								 0 1 -0.77514 1.00104 L0.78 226.77 a0.804953 1.00104 0 0 1 -0.77514 -1.00104 L0 220.54 a0.804953
								 1.00104 0 0 1 0.77514 -1.00104 Z" class="st9"/>
				</g>
			</g>
			<g id="group259-38" transform="translate(165.58,-12.6295)" v:mID="259" v:groupContext="group">
				<title>存储帐户.259</title>
				<g id="shape260-39" v:mID="260" v:groupContext="shape">
					<title>工作表.260</title>
					<v:userDefs>
						<v:ud v:nameU="msvDisableCustomConnectionPoints" v:prompt="" v:val="VT0(1):5"/>
					</v:userDefs>
					<path d="M0 206.12 L28.1 206.12 L28.1 225.6 a0.942054 1.17154 0 0 1 -0.942054 1.17154 L0.94 226.77 a0.942054
								 1.17154 0 0 1 -0.942054 -1.17154 L0 206.12 Z" class="st6"/>
				</g>
				<g id="shape261-42" v:mID="261" v:groupContext="shape" transform="translate(0,-20.6561)">
					<title>工作表.261</title>
					<v:userDefs>
						<v:ud v:nameU="msvDisableCustomConnectionPoints" v:prompt="" v:val="VT0(1):5"/>
					</v:userDefs>
					<path d="M0.94 219.33 L27.15 219.33 a0.942054 1.17154 0 0 1 0.942054 1.17154 L28.1 226.77 L0 226.77 L0 220.48
								 a0.942054 1.17154 0 0 1 0.942054 -1.15098 Z" class="st7"/>
				</g>
				<g id="shape262-44" v:mID="262" v:groupContext="shape" transform="translate(3.38809,-14.4079)">
					<title>工作表.262</title>
					<v:userDefs>
						<v:ud v:nameU="msvDisableCustomConnectionPoints" v:prompt="" v:val="VT0(1):5"/>
					</v:userDefs>
					<path d="M0.43 222.78 L20.87 222.78 a0.446236 0.554939 0 0 1 0.429709 0.554939 L21.3 226.22 a0.446236 0.554939
								 0 0 1 -0.429709 0.554939 L0.43 226.77 a0.446236 0.554939 0 0 1 -0.429709 -0.554939 L0 223.34 a0.446236
								 0.554939 0 0 1 0.429709 -0.554939 Z" class="st8"/>
				</g>
				<g id="shape263-46" v:mID="263" v:groupContext="shape" transform="translate(3.40462,-8.65294)">
					<title>工作表.263</title>
					<v:userDefs>
						<v:ud v:nameU="msvDisableCustomConnectionPoints" v:prompt="" v:val="VT0(1):5"/>
					</v:userDefs>
					<path d="M0.43 222.76 L20.87 222.76 a0.446236 0.554939 0 0 1 0.429709 0.554939 L21.3 226.22 a0.446236 0.554939
								 0 0 1 -0.429709 0.554939 L0.43 226.77 a0.446236 0.554939 0 0 1 -0.429709 -0.554939 L0 223.42 a0.446236
								 0.554939 0 0 1 0.429709 -0.657706 Z" class="st7"/>
				</g>
				<g id="shape264-48" v:mID="264" v:groupContext="shape" transform="translate(3.40462,-2.85691)">
					<title>工作表.264</title>
					<v:userDefs>
						<v:ud v:nameU="msvDisableCustomConnectionPoints" v:prompt="" v:val="VT0(1):5"/>
					</v:userDefs>
					<path d="M0.43 222.76 L20.87 222.76 a0.446236 0.554939 0 0 1 0.429709 0.554939 L21.3 226.22 a0.446236 0.554939
								 0 0 1 -0.429709 0.554939 L0.43 226.77 a0.446236 0.554939 0 0 1 -0.429709 -0.554939 L0 223.32 a0.446236
								 0.554939 0 0 1 0.429709 -0.554939 Z" class="st9"/>
				</g>
			</g>
			<g id="shape339-50" v:mID="339" v:groupContext="shape" transform="translate(257.791,96.8148) rotate(90)">
				<title>直线</title>
				<v:userDefs>
					<v:ud v:nameU="visVersion" v:prompt="" v:val="VT0(17):26"/>
				</v:userDefs>
				<path d="M0 226.77 L68.5 226.77" class="st10"/>
			</g>
			<g id="shape407-56" v:mID="407" v:groupContext="shape" transform="translate(51.1098,-28.021) rotate(0.105777)">
				<title>直线.407</title>
				<v:userDefs>
					<v:ud v:nameU="visVersion" v:prompt="" v:val="VT0(17):26"/>
				</v:userDefs>
				<path d="M0 226.77 L84.42 226.77" class="st10"/>
			</g>
			<g id="group410-61" transform="translate(0,-128.983)" v:mID="410" v:groupContext="group">
				<title>工作表.410</title>
				<g id="shape235-62" v:mID="235" v:groupContext="shape" transform="translate(7.99361E-15,-22.1966)">
					<title>工作表.235</title>
					<path d="M50.95 226.76 L53.87 226.76 L53.87 212.66 L0 212.66 L0 226.77 L31.2 226.77 C33.74 224.27 37.23 222.73
								 41.07 222.73 C44.91 222.73 48.41 224.27 50.95 226.76 Z" class="st1"/>
				</g>
				<g id="shape236-64" v:mID="236" v:groupContext="shape" transform="translate(6.39488E-14,-5.32676)">
					<title>工作表.236</title>
					<path d="M28.95 212.66 L0 212.66 L0 226.77 L28.79 226.77 C27.64 224.73 26.98 222.38 26.98 219.86 C26.98 217.24
								 27.71 214.78 28.95 212.66 Z" class="st1"/>
				</g>
				<g id="shape237-66" v:mID="237" v:groupContext="shape" transform="translate(7.99361E-15,-39.418)">
					<title>工作表.237</title>
					<path d="M0 212.83 L0 226.77 L53.87 226.77 L53.87 212.83 L0 212.83 L0 212.83 Z" class="st1"/>
				</g>
				<g id="shape238-68" v:mID="238" v:groupContext="shape" transform="translate(5.81003,-43.4488)">
					<title>工作表.238</title>
					<path d="M2.95 226.77 C4.57 226.77 5.89 225.5 5.89 223.93 C5.89 222.36 4.57 221.08 2.95 221.08 C1.32 221.08 -0
								 222.36 0 223.93 C-0 225.5 1.32 226.77 2.95 226.77 Z" class="st2"/>
				</g>
				<g id="shape239-70" v:mID="239" v:groupContext="shape" transform="translate(5.81003,-9.34653)">
					<title>工作表.239</title>
					<path d="M2.95 226.77 C4.57 226.77 5.89 225.46 5.89 223.84 C5.89 222.21 4.57 220.9 2.95 220.9 C1.32 220.9 -0
								 222.21 0 223.84 C-0 225.46 1.32 226.77 2.95 226.77 Z" class="st2"/>
				</g>
				<g id="shape240-72" v:mID="240" v:groupContext="shape" transform="translate(5.81003,-26.2164)">
					<title>工作表.240</title>
					<path d="M2.95 226.77 C4.57 226.77 5.89 225.46 5.89 223.84 C5.89 222.21 4.57 220.9 2.95 220.9 C1.32 220.9 -0
								 222.21 0 223.84 C-0 225.46 1.32 226.77 2.95 226.77 Z" class="st2"/>
				</g>
				<g id="shape241-74" v:mID="241" v:groupContext="shape" transform="translate(30.8113,-3.99781)">
					<title>工作表.241</title>
					<path d="M2.63 221.2 C1.87 219.22 1.94 217.04 2.83 215.1 C3.71 213.15 5.29 211.67 7.28 210.91 C8.46 210.46 9.66
								 210.31 10.89 210.44 L10.54 212.39 L14.89 210.03 L11.64 206.23 L11.27 208.38 C9.66 208.18 8.05 208.38
								 6.55 208.95 C4.03 209.9 2.02 211.78 0.9 214.24 C-0.21 216.69 -0.3 219.44 0.66 221.96 C1.34 223.77
								 2.52 225.34 4.07 226.49 L4.44 226.77 L5.7 225.07 L5.31 224.78 C4.1 223.87 3.17 222.63 2.63 221.2
								 Z" class="st1"/>
				</g>
				<g id="shape242-76" v:mID="242" v:groupContext="shape" transform="translate(37.5011,-8.52651E-14)">
					<title>工作表.242</title>
					<path d="M12.86 210.77 C12.26 209.15 11.25 207.74 9.94 206.63 L8.55 208.22 C9.58 209.1 10.39 210.22 10.87 211.51
								 C12.45 215.63 10.34 220.26 6.18 221.83 C5.48 222.09 4.73 222.25 3.97 222.3 L4.09 220.16 L0 222.98
								 L3.7 226.77 L3.84 224.43 C4.9 224.38 5.93 224.17 6.92 223.81 C12.18 221.83 14.84 215.99 12.86 210.77
								 Z" class="st1"/>
				</g>
			</g>
			<g id="shape412-78" v:mID="412" v:groupContext="shape" v:layerMember="0" transform="translate(179.628,-53.3554)">
				<title>动态连接线</title>
				<path d="M0 226.77 L0 194.02 L129.19 194.02" class="st12"/>
			</g>
			<g id="shape411-81" v:mID="411" v:groupContext="shape" transform="translate(535.586,140.662) rotate(90)">
				<title>直线.411</title>
				<v:userDefs>
					<v:ud v:nameU="visVersion" v:prompt="" v:val="VT0(17):26"/>
				</v:userDefs>
				<path d="M0 226.77 L21.36 226.77" class="st10"/>
			</g>
			<g id="shape265-86" v:mID="265" v:groupContext="shape" transform="translate(143.15,0)">
				<title>工作表.265</title>
				<rect x="0" y="173.416" width="72.9555" height="53.3554" class="st13"/>
			</g>
			<g id="group299-90" transform="translate(203.403,-45.1276)" v:mID="299" v:groupContext="group">
				<title>工作表.299</title>
				<g id="group300-91" transform="translate(5.74727,0)" v:mID="300" v:groupContext="group">
					<title>MsPortalFx.base.images-37.291</title>
					<g id="shape301-92" v:mID="301" v:groupContext="shape" transform="translate(0,2.44502)">
						<title>工作表.301</title>
						<path d="M4.39 217.44 L0.24 217.44 a0.214512 0.267324 0 0 1 -0.235156 -0.223702 a0.15707 0.195739 0 0 1 0.0206435
									 -0.0950735 L5 206.38 a0.245926 0.306472 0 0 1 0.214512 -0.134221 L10.13 206.25 a0.213615 0.266206
									 0 0 1 0.235156 0.223702 a0.158865 0.197977 0 0 1 -0.0412869 0.133103 L4.47 215.01 L10.17 215.01
									 a0.214512 0.267324 0 0 1 0.235156 0.223702 a0.166045 0.206925 0 0 1 -0.0601353 0.153236 L0.87
									 226.14 C0.78 226.2 0.16 226.77 0.46 225.9 L4.39 217.44 Z" class="st14"/>
					</g>
				</g>
				<g id="group302-96" transform="translate(1.39888E-14,-2.14148)" v:mID="302" v:groupContext="group">
					<title>工作表.302</title>
					<g id="shape303-97" v:mID="303" v:groupContext="shape" transform="translate(0.00839192,-5.68434E-14)">
						<title>工作表.303</title>
						<path d="M7.01 225.89 L6.27 226.64 C6.13 226.77 5.92 226.77 5.79 226.64 L0.26 221.13 C0 220.87 0 220.44 0.26
									 220.18 L1.01 219.43 L7.01 225.41 C7.14 225.55 7.14 225.76 7.01 225.89 Z" class="st15"/>
					</g>
					<g id="shape304-99" v:mID="304" v:groupContext="shape" transform="translate(0,-4.90461)">
						<title>工作表.304</title>
						<path d="M6.16 219.64 L6.91 220.38 C7.04 220.51 7.04 220.73 6.91 220.86 L1.01 226.77 L0.26 226.03 C0 225.76
									 0 225.34 0.26 225.07 L5.68 219.64 C5.81 219.5 6.03 219.5 6.16 219.64 Z" class="st16"/>
					</g>
					<g id="shape305-101" v:mID="305" v:groupContext="shape" transform="translate(15.4177,-0.139503)">
						<title>工作表.305</title>
						<path d="M6.13 219.43 L6.88 220.18 C7.14 220.44 7.14 220.87 6.88 221.13 L1.35 226.64 C1.22 226.77 1.01 226.77
									 0.88 226.64 L0.13 225.89 C0 225.76 0 225.55 0.13 225.41 L6.13 219.43 Z" class="st15"/>
					</g>
					<g id="shape306-103" v:mID="306" v:groupContext="shape" transform="translate(15.5184,-5.04039)">
						<title>工作表.306</title>
						<path d="M6.78 226.03 L6.03 226.77 L0.13 220.86 C0 220.73 0 220.51 0.13 220.38 L0.89 219.63 C1.02 219.5 1.23
									 219.5 1.37 219.63 L6.79 225.06 C7.05 225.33 7.05 225.76 6.79 226.02 L6.78 226.03 Z"
								class="st16"/>
					</g>
				</g>
			</g>
		</g>
		<g id="shape414-105" v:mID="414" v:groupContext="shape" transform="translate(0.283465,1.41732)">
			<title>工作表.414</title>
			<rect x="0" y="-1.04665" width="367.937" height="227.818" class="st17"/>
		</g>
	</g>
</svg>
