<?xml version="1.0" encoding="UTF-8" standalone="no"?>
<!DOCTYPE svg PUBLIC "-//W3C//DTD SVG 1.1//EN" "http://www.w3.org/Graphics/SVG/1.1/DTD/svg11.dtd">
<!-- 由 Microsoft Visio, SVG Export 生成 Azure Functions-2.svg Page-1 -->
<svg xmlns="http://www.w3.org/2000/svg" xmlns:xlink="http://www.w3.org/1999/xlink" xmlns:ev="http://www.w3.org/2001/xml-events"
		xmlns:v="http://schemas.microsoft.com/visio/2003/SVGExtensions/" width="5.11811in" height="3.14961in"
		viewBox="0 0 368.504 226.772" xml:space="preserve" color-interpolation-filters="sRGB" class="st16">
	<v:documentProperties v:langID="2052" v:metric="true" v:viewMarkup="false">
		<v:userDefs>
			<v:ud v:nameU="msvNoAutoConnect" v:val="VT0(1):26"/>
		</v:userDefs>
	</v:documentProperties>

	<style type="text/css">
	<![CDATA[
		.st1 {fill:none;stroke:#f2f2f2;stroke-linecap:round;stroke-linejoin:round;stroke-width:0.75}
		.st2 {fill:#0078d4;stroke:none;stroke-linecap:round;stroke-linejoin:round;stroke-width:0.75}
		.st3 {fill:#50e6ff;stroke:none;stroke-linecap:round;stroke-linejoin:round;stroke-width:0.75}
		.st4 {fill:url(#grad1-13);stroke:none;stroke-linecap:butt;stroke-width:0.75}
		.st5 {fill:#50e6ff;stroke:none;stroke-linecap:butt;stroke-width:0.561468}
		.st6 {fill:#1490df;stroke:none;stroke-linecap:butt;stroke-width:0.561468}
		.st7 {stroke:none;stroke-linecap:round;stroke-linejoin:round;stroke-width:0.75}
		.st8 {fill:#a6a6a6;font-family:Segoe UI;font-size:1.16666em}
		.st9 {font-size:1em}
		.st10 {fill:#999999;stroke:none;stroke-linecap:butt;stroke-width:0.75}
		.st11 {fill:#999999;fill-opacity:0.5;stroke:none;stroke-linecap:butt;stroke-width:0.75}
		.st12 {fill:#949494;stroke:none;stroke-linecap:butt;stroke-width:0.75}
		.st13 {fill:url(#grad0-55);stroke:none;stroke-linecap:butt;stroke-width:0.75}
		.st14 {marker-end:url(#mrkr4-65);stroke:#a6a6a6;stroke-linecap:round;stroke-linejoin:round;stroke-width:1.5}
		.st15 {fill:#a6a6a6;fill-opacity:1;stroke:#a6a6a6;stroke-opacity:1;stroke-width:0.37313432835821}
		.st16 {fill:none;fill-rule:evenodd;font-size:12px;overflow:visible;stroke-linecap:square;stroke-miterlimit:3}
	]]>
	</style>

	<defs id="Patterns_And_Gradients">
		<radialGradient id="grad1-13" cx="1" cy="1" r="1.4">
			<stop offset="0.195" stop-color="#ffd70f" stop-opacity="1"/>
			<stop offset="0.44" stop-color="#ffcb12" stop-opacity="1"/>
			<stop offset="0.875" stop-color="#feac19" stop-opacity="1"/>
			<stop offset="1" stop-color="#fea11b" stop-opacity="1"/>
		</radialGradient>
		<linearGradient id="grad0-55" x1="0" y1="0" x2="1" y2="0" gradientTransform="rotate(-90 0.5 0.5)">
			<stop offset="0" stop-color="#1b93eb" stop-opacity="1"/>
			<stop offset="1" stop-color="#6bb9f2" stop-opacity="1"/>
		</linearGradient>
	</defs>
	<defs id="Markers">
		<g id="lend4">
			<path d="M 2 1 L 0 0 L 2 -1 L 2 1 " style="stroke:none"/>
		</g>
		<marker id="mrkr4-65" class="st15" v:arrowType="4" v:arrowSize="2" v:setback="5.36" refX="-5.36" orient="auto"
				markerUnits="strokeWidth" overflow="visible">
			<use xlink:href="#lend4" transform="scale(-2.68,-2.68) "/>
		</marker>
	</defs>
	<g v:mID="0" v:index="1" v:groupContext="foregroundPage">
		<title>页-1</title>
		<v:pageProperties v:drawingScale="0.0393701" v:pageScale="0.0393701" v:drawingUnits="24" v:shadowOffsetX="8.50394"
				v:shadowOffsetY="-8.50394"/>
		<v:layer v:name="连接线" v:index="0"/>
		<g id="shape444-1" v:mID="444" v:groupContext="shape" transform="translate(0.283414,0)">
			<title>工作表.444</title>
			<rect x="0" y="-6.81154E-06" width="368.504" height="226.772" class="st1"/>
		</g>
		<g id="group82-3" transform="translate(-95.6274,-1644.09)" v:mID="82" v:groupContext="group">
			<title>工作表.82</title>
		</g>
		<g id="shape414-4" v:mID="414" v:groupContext="shape" transform="translate(16.7244,-72.8818)">
			<title>工作表.414</title>
			<path d="M33.13 161.59 L11.59 161.59 L0 194.29 L14.14 194.39 L3.1 226.77 L33.59 183.57 L18.77 183.57 L33.13 161.59 Z"
					class="st2"/>
		</g>
		<g id="shape415-6" v:mID="415" v:groupContext="shape" transform="translate(19.7011,-72.8818)">
			<title>工作表.415</title>
			<path d="M15.78 183.57 L30.25 161.59 L18.91 161.59 L6.89 188.76 L21.13 188.88 L0 226.77 L30.71 183.57 L15.78 183.57 Z"
					class="st3"/>
		</g>
		<g id="group416-8" transform="translate(133.221,-77.054)" v:mID="416" v:groupContext="group">
			<title>工作表.416</title>
			<g id="group417-9" transform="translate(19.1099,0)" v:mID="417" v:groupContext="group">
				<title>MsPortalFx.base.images-37.291</title>
				<g id="shape418-10" v:mID="418" v:groupContext="shape" transform="translate(0,8.1298)">
					<title>工作表.418</title>
					<path d="M14.59 195.75 L0.78 195.75 a0.713264 0.888866 0 0 1 -0.781905 -0.743821 a0.522265 0.650843 0 0 1 0.0686405
								 -0.316124 L16.63 158.97 a0.817717 1.01903 0 0 1 0.713264 -0.446292 L33.67 158.53 a0.71028 0.885147
								 0 0 1 0.781905 0.743821 a0.528233 0.658281 0 0 1 -0.137281 0.442573 L14.87 187.66 L33.82 187.66
								 a0.713264 0.888866 0 0 1 0.781905 0.743821 a0.552108 0.688034 0 0 1 -0.199953 0.509517 L2.9 224.68
								 C2.61 224.87 0.52 226.77 1.54 223.89 L14.59 195.75 Z" class="st4"/>
				</g>
			</g>
			<g id="group419-14" transform="translate(0,-7.12051)" v:mID="419" v:groupContext="group">
				<title>工作表.419</title>
				<g id="shape420-15" v:mID="420" v:groupContext="shape" transform="translate(0.0279035,-1.7053E-13)">
					<title>工作表.420</title>
					<path d="M23.31 223.84 L20.83 226.33 C20.39 226.77 19.68 226.77 19.25 226.33 L0.88 208.02 C0 207.15 0 205.73
								 0.88 204.85 L3.36 202.36 L23.31 222.26 C23.75 222.7 23.75 223.41 23.31 223.84 Z" class="st5"/>
				</g>
				<g id="shape421-17" v:mID="421" v:groupContext="shape" transform="translate(0,-16.3081)">
					<title>工作表.421</title>
					<path d="M20.48 203.04 L22.97 205.52 C23.4 205.96 23.41 206.67 22.97 207.11 L3.36 226.77 L0.88 224.29 C0 223.42
								 0 222 0.87 221.12 L18.9 203.04 C19.33 202.61 20.04 202.61 20.48 203.04 Z" class="st6"/>
				</g>
				<g id="shape422-19" v:mID="422" v:groupContext="shape" transform="translate(51.2647,-0.463856)">
					<title>工作表.422</title>
					<path d="M20.39 202.36 L22.87 204.85 C23.75 205.73 23.74 207.15 22.87 208.02 L4.5 226.33 C4.06 226.77 3.35 226.77
								 2.92 226.33 L0.44 223.84 C0 223.41 0 222.7 0.44 222.26 L20.39 202.36 Z" class="st5"/>
				</g>
				<g id="shape423-21" v:mID="423" v:groupContext="shape" transform="translate(51.5995,-16.7595)">
					<title>工作表.423</title>
					<path d="M22.53 224.29 L20.04 226.77 L0.44 207.11 C0 206.67 0 205.96 0.44 205.52 L2.95 203.02 C3.39 202.58 4.1
								 202.58 4.54 203.02 L22.56 221.09 C23.44 221.97 23.44 223.39 22.56 224.27 L22.53 224.29 Z"
							class="st6"/>
				</g>
			</g>
		</g>
		<g id="shape424-23" v:mID="424" v:groupContext="shape" transform="translate(203.73,-140.723)">
			<title>工作表.424</title>
			<desc>Scalable web APIs</desc>
			<v:textBlock v:margins="rect(0,0,0,0)" v:tabSpace="42.5197"/>
			<v:textRect cx="45.9712" cy="211.684" width="91.95" height="30.1752"/>
			<path d="M91.94 196.6 L0 196.6 L0 226.77 L91.94 226.77 L91.94 196.6" class="st7"/>
			<text x="5.98" y="207.48" class="st8" v:langID="2052"><v:paragraph v:horizAlign="1"/><v:tabList/>Scalable web <tspan
						x="32.7" dy="1.2em" class="st9">APIs</tspan> </text>		</g>
		<g id="group425-28" transform="translate(289.5,-119.827)" v:mID="425" v:groupContext="group">
			<v:userDefs>
				<v:ud v:nameU="msvDisableCustomConnectionPoints" v:prompt="" v:val="VT0(1):5"/>
			</v:userDefs>
			<title>工作表.425</title>
			<g id="shape426-29" v:mID="426" v:groupContext="shape">
				<title>工作表.426</title>
				<v:userDefs>
					<v:ud v:nameU="msvDisableCustomConnectionPoints" v:prompt="" v:val="VT0(1):5"/>
				</v:userDefs>
				<path d="M1.9 211.66 L6.17 211.66 L6.17 225.66 a0.948054 1.1108 0 0 1 -0.948054 1.1108 L0.95 226.77 a0.948054 1.1108
							 0 0 1 -0.948054 -1.1108 L0 213.88 A1.89611 2.22159 0 0 1 1.9 211.66 Z" class="st10"/>
			</g>
			<g id="shape427-31" v:mID="427" v:groupContext="shape">
				<title>工作表.427</title>
				<v:userDefs>
					<v:ud v:nameU="msvDisableCustomConnectionPoints" v:prompt="" v:val="VT0(1):5"/>
				</v:userDefs>
				<path d="M1.9 211.66 L6.17 211.66 L6.17 225.66 a0.948054 1.1108 0 0 1 -0.948054 1.1108 L0.95 226.77 a0.948054 1.1108
							 0 0 1 -0.948054 -1.1108 L0 213.88 A1.89611 2.22159 0 0 1 1.9 211.66 Z" class="st11"/>
			</g>
		</g>
		<g id="group428-33" transform="translate(339.691,-119.827)" v:mID="428" v:groupContext="group">
			<v:userDefs>
				<v:ud v:nameU="msvDisableCustomConnectionPoints" v:prompt="" v:val="VT0(1):5"/>
			</v:userDefs>
			<title>工作表.428</title>
			<g id="shape429-34" v:mID="429" v:groupContext="shape">
				<title>工作表.429</title>
				<v:userDefs>
					<v:ud v:nameU="msvDisableCustomConnectionPoints" v:prompt="" v:val="VT0(1):5"/>
				</v:userDefs>
				<path d="M0 211.66 L4.28 211.66 A1.89611 2.22159 0 0 1 6.17 213.88 L6.17 225.66 a0.948054 1.1108 0 0 1 -0.948054
							 1.1108 L0.95 226.77 a0.948054 1.1108 0 0 1 -0.948054 -1.1108 L0 211.66 Z" class="st10"/>
			</g>
			<g id="shape430-36" v:mID="430" v:groupContext="shape">
				<title>工作表.430</title>
				<v:userDefs>
					<v:ud v:nameU="msvDisableCustomConnectionPoints" v:prompt="" v:val="VT0(1):5"/>
				</v:userDefs>
				<path d="M0 211.66 L4.28 211.66 A1.89611 2.22159 0 0 1 6.17 213.88 L6.17 225.66 a0.948054 1.1108 0 0 1 -0.948054
							 1.1108 L0.95 226.77 a0.948054 1.1108 0 0 1 -0.948054 -1.1108 L0 211.66 Z" class="st11"/>
			</g>
		</g>
		<g id="shape431-38" v:mID="431" v:groupContext="shape" transform="translate(289.5,-127.874)">
			<title>工作表.431</title>
			<v:userDefs>
				<v:ud v:nameU="msvDisableCustomConnectionPoints" v:prompt="" v:val="VT0(1):5"/>
			</v:userDefs>
			<path d="M56.36 221.91 L56.36 226.77 L0 226.77 L0 221.91 A1.87881 2.20132 0 0 1 1.88 219.71 L54.47 219.71 A1.87881 2.20132
						 0 0 1 56.36 221.91 Z" class="st12"/>
		</g>
		<g id="group432-40" transform="translate(289.5,-76.1246)" v:mID="432" v:groupContext="group">
			<v:userDefs>
				<v:ud v:nameU="msvDisableCustomConnectionPoints" v:prompt="" v:val="VT0(1):5"/>
			</v:userDefs>
			<title>工作表.432</title>
			<g id="shape433-41" v:mID="433" v:groupContext="shape">
				<title>工作表.433</title>
				<v:userDefs>
					<v:ud v:nameU="msvDisableCustomConnectionPoints" v:prompt="" v:val="VT0(1):5"/>
				</v:userDefs>
				<path d="M0.95 211.66 L5.23 211.66 a0.948054 1.1108 0 0 1 0.948054 1.1108 L6.18 226.77 L1.9 226.77 A1.89611 2.22159
							 0 0 1 -0 224.55 L0 212.77 a0.948054 1.1108 0 0 1 0.948054 -1.1108 Z" class="st10"/>
			</g>
			<g id="shape434-43" v:mID="434" v:groupContext="shape">
				<title>工作表.434</title>
				<v:userDefs>
					<v:ud v:nameU="msvDisableCustomConnectionPoints" v:prompt="" v:val="VT0(1):5"/>
				</v:userDefs>
				<path d="M0.95 211.66 L5.23 211.66 a0.948054 1.1108 0 0 1 0.948054 1.1108 L6.18 226.77 L1.9 226.77 A1.89611 2.22159
							 0 0 1 -0 224.55 L0 212.77 a0.948054 1.1108 0 0 1 0.948054 -1.1108 Z" class="st11"/>
			</g>
		</g>
		<g id="group435-45" transform="translate(339.691,-76.1205)" v:mID="435" v:groupContext="group">
			<v:userDefs>
				<v:ud v:nameU="msvDisableCustomConnectionPoints" v:prompt="" v:val="VT0(1):5"/>
			</v:userDefs>
			<title>工作表.435</title>
			<g id="shape436-46" v:mID="436" v:groupContext="shape">
				<title>工作表.436</title>
				<v:userDefs>
					<v:ud v:nameU="msvDisableCustomConnectionPoints" v:prompt="" v:val="VT0(1):5"/>
				</v:userDefs>
				<path d="M0.95 211.65 L5.22 211.65 a0.948054 1.1108 0 0 1 0.948054 1.1108 L6.17 224.55 A1.89611 2.22159 0 0 1 4.28
							 226.77 L0 226.77 L0 212.77 a0.948054 1.1108 0 0 1 0.948054 -1.1108 Z" class="st10"/>
			</g>
			<g id="shape437-48" v:mID="437" v:groupContext="shape">
				<title>工作表.437</title>
				<v:userDefs>
					<v:ud v:nameU="msvDisableCustomConnectionPoints" v:prompt="" v:val="VT0(1):5"/>
				</v:userDefs>
				<path d="M0.95 211.65 L5.22 211.65 a0.948054 1.1108 0 0 1 0.948054 1.1108 L6.17 224.55 A1.89611 2.22159 0 0 1 4.28
							 226.77 L0 226.77 L0 212.77 a0.948054 1.1108 0 0 1 0.948054 -1.1108 Z" class="st11"/>
			</g>
		</g>
		<g id="shape438-50" v:mID="438" v:groupContext="shape" transform="translate(289.5,-76.1246)">
			<title>工作表.438</title>
			<v:userDefs>
				<v:ud v:nameU="msvDisableCustomConnectionPoints" v:prompt="" v:val="VT0(1):5"/>
			</v:userDefs>
			<path d="M0 224.57 L0 219.71 L56.36 219.71 L56.36 224.57 A1.87881 2.20132 0 0 1 54.49 226.77 L1.88 226.77 A1.87881 2.20132
						 0 0 1 0 224.57 Z" class="st12"/>
		</g>
		<g id="shape439-52" v:mID="439" v:groupContext="shape" transform="translate(288.583,-92.164)">
			<title>工作表.439</title>
			<v:userDefs>
				<v:ud v:nameU="msvDisableCustomConnectionPoints" v:prompt="" v:val="VT0(1):5"/>
			</v:userDefs>
			<path d="M15.53 199.15 L26.34 211.82 A1.28714 1.50809 0 0 1 26.34 213.95 L15.53 226.62 a0.574369 0.672964 0 0 1 -0.982655
						 -0.478372 L14.55 218.36 a0.574369 0.672964 -180 0 0 -0.574369 -0.677018 L0.46 217.68 a0.456727 0.535128
						 0 0 1 -0.460187 -0.539182 L0 208.63 a0.456727 0.535128 0 0 1 0.460187 -0.535128 L13.98 208.09 a0.574369
						 0.672964 -180 0 0 0.574369 -0.677018 L14.55 199.62 a0.574369 0.672964 0 0 1 0.982655 -0.470264 Z"
					class="st13"/>
		</g>
		<g id="shape440-56" v:mID="440" v:groupContext="shape" transform="translate(320.682,-92.164)">
			<title>工作表.440</title>
			<v:userDefs>
				<v:ud v:nameU="msvDisableCustomConnectionPoints" v:prompt="" v:val="VT0(1):5"/>
			</v:userDefs>
			<path d="M15.53 199.15 L26.34 211.82 A1.29406 1.5162 0 0 1 26.34 213.95 L15.53 226.62 a0.574369 0.672964 0 0 1 -0.982655
						 -0.478372 L14.55 218.36 a0.577829 0.677018 -180 0 0 -0.577829 -0.677018 L0.46 217.68 a0.456727 0.535128
						 0 0 1 -0.456727 -0.539182 L0 208.63 a0.456727 0.535128 0 0 1 0.456727 -0.539182 L13.97 208.09 a0.577829
						 0.677018 -180 0 0 0.577829 -0.677018 L14.55 199.62 a0.574369 0.672964 0 0 1 0.982655 -0.470264 Z"
					class="st13"/>
		</g>
		<g id="shape441-59" v:mID="441" v:groupContext="shape" transform="translate(288.583,-76.1205)">
			<title>输入输出</title>
			<v:textBlock v:margins="rect(0,0,0,0)" v:tabSpace="42.5197"/>
		</g>
		<g id="shape442-60" v:mID="442" v:groupContext="shape" transform="translate(54.8975,-103.374)">
			<title>直线.413</title>
			<v:userDefs>
				<v:ud v:nameU="visVersion" v:prompt="" v:val="VT0(17):26"/>
			</v:userDefs>
			<path d="M0 226.77 L69.38 226.77" class="st14"/>
		</g>
		<g id="shape443-66" v:mID="443" v:groupContext="shape" transform="translate(218.69,-103.374)">
			<title>直线.414</title>
			<v:userDefs>
				<v:ud v:nameU="visVersion" v:prompt="" v:val="VT0(17):26"/>
			</v:userDefs>
			<path d="M0 226.77 L61.25 226.77" class="st14"/>
		</g>
	</g>
</svg>
