<svg id="Layer_1" data-name="Layer 1" xmlns="http://www.w3.org/2000/svg" width="24.18" height="16" viewBox="0 0 24.18 16"><defs><style>.cls-1{fill:#f2c811;fill-rule:evenodd;}.cls-2{fill:none;}</style></defs><g id="group1031-1"><g id="group1032-2"><g id="shape1033-3"><path class="cls-1" d="M20.78,15.72V14.59h.54a1.75,1.75,0,0,0,1.73-1.87V2.86a1.64,1.64,0,0,0-1.53-1.74H2.85A1.65,1.65,0,0,0,1.13,2.67V12.72a1.75,1.75,0,0,0,1.72,1.87H3.4v1.13H2.85a3,3,0,0,1-2.85-3V2.86A2.87,2.87,0,0,1,2.85,0H21.32a2.88,2.88,0,0,1,2.86,2.86v9.86a3,3,0,0,1-2.86,3Z"/></g><g id="shape1034-5"><path class="cls-1" d="M6,16a1.36,1.36,0,0,1-1.32-1.39h0V11.4A1.36,1.36,0,0,1,6,10,1.36,1.36,0,0,1,7.34,11.4v3.21A1.36,1.36,0,0,1,6,16Zm4.16-.12a1.34,1.34,0,0,1-1.33-1.33V6.72a1.33,1.33,0,0,1,1.31-1.33,1.32,1.32,0,0,1,1.34,1.29v7.87a1.32,1.32,0,0,1-1.31,1.33Zm8.32,0a1.32,1.32,0,0,1-1.33-1.32V3.4a1.32,1.32,0,0,1,2.64,0V14.57a1.33,1.33,0,0,1-1.3,1.34Zm-4.16,0A1.34,1.34,0,0,1,13,14.6h0V8.68a1.33,1.33,0,0,1,2.65,0v5.95a1.34,1.34,0,0,1-1.32,1.35Z"/><path class="cls-2" d="M6,16a1.36,1.36,0,0,1-1.32-1.39h0V11.4A1.36,1.36,0,0,1,6,10,1.36,1.36,0,0,1,7.34,11.4v3.21A1.36,1.36,0,0,1,6,16H6m4.16-.12a1.34,1.34,0,0,1-1.33-1.33V6.72a1.33,1.33,0,0,1,1.31-1.33,1.32,1.32,0,0,1,1.34,1.29v7.87a1.32,1.32,0,0,1-1.31,1.33h0m8.32,0a1.32,1.32,0,0,1-1.33-1.32V3.4a1.32,1.32,0,0,1,2.64,0V14.57a1.33,1.33,0,0,1-1.3,1.34h0m-4.16,0A1.34,1.34,0,0,1,13,14.6h0V8.68a1.33,1.33,0,0,1,2.65,0v5.95a1.34,1.34,0,0,1-1.32,1.35"/></g></g></g></svg>