<svg xmlns="http://www.w3.org/2000/svg" xmlns:xlink="http://www.w3.org/1999/xlink" viewBox="0 0 668.8 198">
  <defs>
    <linearGradient id="linear-gradient" x1="329.43" y1="52.8" x2="329.43" y2="132" gradientUnits="userSpaceOnUse">
      <stop offset="0" stop-color="#5ea0ef"/>
      <stop offset="0.18" stop-color="#559cec"/>
      <stop offset="0.47" stop-color="#3c91e5"/>
      <stop offset="0.84" stop-color="#1380da"/>
      <stop offset="1" stop-color="#0078d4"/>
    </linearGradient>
    <linearGradient id="linear-gradient-2" x1="623.99" y1="1460.786" x2="623.99" y2="1476.549" gradientTransform="matrix(1, 0, 0, -1, 0, 1559.6)" gradientUnits="userSpaceOnUse">
      <stop offset="0" stop-color="#198ab3"/>
      <stop offset="0.44" stop-color="#28b7db"/>
      <stop offset="0.78" stop-color="#32d4f5"/>
    </linearGradient>
    <linearGradient id="linear-gradient-3" x1="623.953" y1="1454.549" x2="623.953" y2="1459.215" xlink:href="#linear-gradient-2"/>
    <linearGradient id="linear-gradient-4" x1="57.114" y1="7.2" x2="57.114" y2="35.2" gradientUnits="userSpaceOnUse">
      <stop offset="0.131" stop-color="#32d4f5"/>
      <stop offset="0.404" stop-color="#28b7db"/>
      <stop offset="1" stop-color="#198ab3"/>
    </linearGradient>
    <linearGradient id="linear-gradient-5" x1="66.417" y1="29.341" x2="66.417" y2="30.596" xlink:href="#linear-gradient-4"/>
    <linearGradient id="linear-gradient-6" x1="66.417" y1="31.507" x2="66.417" y2="32.763" xlink:href="#linear-gradient-4"/>
    <linearGradient id="linear-gradient-7" x1="85.754" y1="1522.403" x2="85.754" y2="1495.787" gradientTransform="matrix(1, 0, 0, -1, 0, 1559.6)" gradientUnits="userSpaceOnUse">
      <stop offset="0.117" stop-color="#5ea0ef"/>
      <stop offset="0.271" stop-color="#4595e8"/>
      <stop offset="0.531" stop-color="#1f85dd"/>
      <stop offset="0.741" stop-color="#087cd6"/>
      <stop offset="0.873" stop-color="#0078d4"/>
    </linearGradient>
  </defs>
  <g id="Shapes">
    <rect width="668.8" height="198" fill="#fff"/>
    <g>
      <rect x="57.2" y="26.4" width="605.694" height="167.2" fill="#fff"/>
      <rect x="57.2" y="26.4" width="605.694" height="167.2" fill="#198ab3" opacity="0.12"/>
    </g>
    <g>
      <rect x="70.766" y="52.8" width="517.328" height="79.2" fill="#fff"/>
      <rect x="70.766" y="52.8" width="517.328" height="79.2" opacity="0.4" fill="url(#linear-gradient)"/>
    </g>
    <g>
      <rect x="337.011" y="74.903" width="110" height="35.097" fill="#fff"/>
      <g opacity="0.65">
        <path d="M446.861,75.053v34.8h-109.7v-34.8h109.7m.15-.15h-110V110h110V74.9Z" fill="#505150"/>
      </g>
    </g>
    <g>
      <line x1="392.011" y1="115.382" x2="392.011" y2="139.818" fill="none" stroke="#3c3c41" stroke-miterlimit="10"/>
      <polygon points="388.272 116.476 392.011 110 395.751 116.476 388.272 116.476" fill="#3c3c41"/>
      <polygon points="388.272 138.724 392.011 145.2 395.751 138.724 388.272 138.724" fill="#3c3c41"/>
    </g>
    <g>
      <line x1="45.446" y1="92.452" x2="76.518" y2="92.452" fill="none" stroke="#3c3c41" stroke-miterlimit="10"/>
      <polygon points="75.424 96.191 81.9 92.452 75.424 88.712 75.424 96.191" fill="#3c3c41"/>
    </g>
    <g>
      <line x1="183.1" y1="92.452" x2="204.312" y2="92.452" fill="none" stroke="#3c3c41" stroke-miterlimit="10"/>
      <polygon points="203.218 96.191 209.694 92.452 203.218 88.712 203.218 96.191" fill="#3c3c41"/>
    </g>
    <g>
      <line x1="310.894" y1="92.452" x2="332.106" y2="92.452" fill="none" stroke="#3c3c41" stroke-miterlimit="10"/>
      <polygon points="331.011 96.191 337.488 92.452 331.011 88.712 331.011 96.191" fill="#3c3c41"/>
    </g>
    <g>
      <line x1="447.294" y1="92.452" x2="468.506" y2="92.452" fill="none" stroke="#3c3c41" stroke-miterlimit="10"/>
      <polygon points="467.411 96.191 473.888 92.452 467.411 88.712 467.411 96.191" fill="#3c3c41"/>
    </g>
    <g>
      <rect x="474.26" y="74.903" width="101.2" height="35.097" fill="#fff"/>
      <g opacity="0.65">
        <path d="M575.31,75.053v34.8H474.41v-34.8h100.9m.15-.15H474.26V110h101.2V74.9Z" fill="#505150"/>
      </g>
    </g>
    <g>
      <line x1="575.46" y1="92.452" x2="604.814" y2="92.452" fill="none" stroke="#3c3c41" stroke-miterlimit="10"/>
      <polygon points="603.72 96.191 610.196 92.452 603.72 88.712 603.72 96.191" fill="#3c3c41"/>
    </g>
    <g>
      <path d="M635.1,93.867a5.012,5.012,0,0,0-4.333-4.752,6.294,6.294,0,0,0-6.481-6.061,6.456,6.456,0,0,0-6.172,4.209,5.949,5.949,0,0,0-5.233,5.728,6.049,6.049,0,0,0,6.258,5.814h10.678a1.025,1.025,0,0,0,.271,0A5.05,5.05,0,0,0,635.1,93.867Z" fill="url(#linear-gradient-2)"/>
      <rect x="623.472" y="93.386" width="0.963" height="7.641" fill="#b3b3b3"/>
      <circle cx="623.953" cy="91.077" r="2.568" fill="#f2f2f2"/>
      <rect x="621.62" y="100.385" width="4.666" height="4.666" rx="0.901" fill="url(#linear-gradient-3)"/>
    </g>
    <g>
      <path d="M68.827,26.964H56.848l.281-1.128H64.6a5.616,5.616,0,0,0,2.469-10.665,6.54,6.54,0,0,0,.146-1.372A6.65,6.65,0,0,0,54.9,10.366,5.05,5.05,0,0,0,47,14.473a5.138,5.138,0,0,0,.058.763,5.607,5.607,0,0,0,2.57,10.6H56.5l-.281,1.128H45.4a.908.908,0,0,0-.905.91V34.29a.908.908,0,0,0,.905.91H68.827a.908.908,0,0,0,.9-.91V27.873A.907.907,0,0,0,68.827,26.964Zm-19.2-2.674a4.061,4.061,0,0,1-1.415-7.877l.674-.253-.207-.7a3.529,3.529,0,0,1-.142-.992,3.508,3.508,0,0,1,6.05-2.355l.813.863.455-1.1A5.112,5.112,0,0,1,65.679,13.8a5.021,5.021,0,0,1-.26,1.584l-.245.736.734.244a4.043,4.043,0,0,1,2.782,3.849A4.086,4.086,0,0,1,64.6,24.288H57.514l1.063-4.264.051-.3.3-.067a2.363,2.363,0,0,0,.835-.368l.308-.215,2.376,2.3-.062.256a1.473,1.473,0,0,0,1.427,1.819,1.411,1.411,0,0,0,.533-.1,1.481,1.481,0,0,0,.834-1.913,1.463,1.463,0,0,0-1.9-.838.631.631,0,0,0-.06.032c-.023.014-.048.027-.071.039l-.291.151-2.365-2.289.121-.29a2.4,2.4,0,0,0-2.2-3.316,2.365,2.365,0,0,0-1.642.663l-.257.249-1.572-.985.025-.281a1.461,1.461,0,0,0-1.457-1.6,1.448,1.448,0,0,0-.534.1,1.482,1.482,0,0,0-.833,1.914,1.458,1.458,0,0,0,1.368.938,1.436,1.436,0,0,0,.534-.1,1.453,1.453,0,0,0,.322-.184l.249-.181,1.561.979-.078.323a2.334,2.334,0,0,0,.048,1.314l.112.341L53.725,20l-.239-.14a1.169,1.169,0,0,0-1.029-.083,1.2,1.2,0,0,0-.673,1.547A1.183,1.183,0,0,0,53.321,22a1.2,1.2,0,0,0,.748-1.143l-.007-.261,2.584-1.634.254.21a2.371,2.371,0,0,0,.735.408l.366.127-.062.377-1.049,4.2Zm18.57,9.365H46.034V28.511h9.8l-.156.623a1.951,1.951,0,1,0,.6.087l.177-.71H68.194Z" fill="url(#linear-gradient-4)"/>
      <path d="M67.042,29.341H65.793V30.6h1.249Z" fill="url(#linear-gradient-5)"/>
      <path d="M67.042,31.507H65.793v1.256h1.249Z" fill="url(#linear-gradient-6)"/>
    </g>
    <g id="a3857c27-3253-4155-b620-22ae9cf301a7">
      <g>
        <path d="M95.2,49.666a8.852,8.852,0,0,0-9.086-8.36,9.109,9.109,0,0,0-8.541,5.815,8.529,8.529,0,0,0-7.269,8A8.382,8.382,0,0,0,78.884,63.3H94.3a6.907,6.907,0,0,0,6.9-6.912A7,7,0,0,0,95.2,49.666Z" fill="url(#linear-gradient-7)"/>
        <g>
          <polygon points="93.968 54.358 86.267 51.497 86.068 51.991 86.193 51.538 79.355 50.033 79.027 51.18 84.798 52.431 77.394 55.491 77.963 56.507 85.608 53.332 86.976 59.356 88.158 59.21 86.764 52.992 93.515 55.46 93.968 54.358" fill="#83b9f9"/>
          <path d="M78.169,51.615a1.512,1.512,0,1,0,.268-2.121h0l-.034.028A1.5,1.5,0,0,0,78.169,51.615Zm-1.716,5.35a1.521,1.521,0,1,0,.258-2.137,1.521,1.521,0,0,0-.258,2.137Zm15.9-1.321a1.505,1.505,0,1,0,.276-2.111l-.006,0h0a1.486,1.486,0,0,0-.278,2.083Z" fill="#9cebff"/>
          <path d="M86.373,60.288a1.505,1.505,0,1,0,.269-2.112h0a1.487,1.487,0,0,0-.29,2.084l0,0Z" fill="#9cebff"/>
        </g>
        <path d="M90.449,52.367a.453.453,0,0,0,0-.786l-3.322-1.922-3.333-1.921a.454.454,0,0,0-.687.393v7.686a.453.453,0,0,0,.687.393l3.333-1.921Z" fill="#c3f1ff"/>
      </g>
    </g>
    <g>
      <g>
        <polygon points="4.4 101.414 13.288 96.94 13.288 87.881 4.4 84.003 4.4 101.414" fill="#fff"/>
        <polygon points="4.4 101.414 13.288 96.94 13.288 87.881 4.4 84.003 4.4 101.414" fill="#3c3c41" opacity="0.85"/>
      </g>
      <g>
        <rect x="15.495" y="83.452" width="31.205" height="18" fill="#fff"/>
        <rect x="15.495" y="83.452" width="31.205" height="18" fill="#3c3c41" opacity="0.85"/>
      </g>
    </g>
    <g>
      <rect x="209.694" y="74.903" width="101.2" height="35.097" fill="#fff"/>
      <g opacity="0.65">
        <path d="M310.744,75.053v34.8h-100.9v-34.8h100.9m.15-.15h-101.2V110h101.2V74.9Z" fill="#505150"/>
      </g>
    </g>
    <g>
      <rect x="83.6" y="74.903" width="101.2" height="35.097" fill="#fff"/>
      <g opacity="0.65">
        <path d="M184.65,75.053v34.8H83.75v-34.8h100.9m.15-.15H83.6V110H184.8V74.9Z" fill="#505150"/>
      </g>
    </g>
    <g>
      <rect x="312.364" y="145.343" width="158.363" height="35.2" fill="#fff"/>
      <rect x="312.364" y="145.343" width="158.363" height="35.2" fill="#cccccb"/>
    </g>
    <g>
      <path d="M310.207,167.169a1.716,1.716,0,0,0-.315.03,3.93,3.93,0,0,0,.026-.437,3.771,3.771,0,0,0-7.324-1.261,2.566,2.566,0,1,0-.863,4.982h8.476a1.657,1.657,0,1,0,0-3.314Z" fill="#999" fill-rule="evenodd"/>
      <path d="M325.564,161.3a1.633,1.633,0,0,0-.315.031,3.733,3.733,0,0,0,.026-.438,3.771,3.771,0,0,0-7.324-1.261,2.566,2.566,0,1,0-.862,4.982h8.475a1.657,1.657,0,0,0,0-3.314Z" fill="#999" fill-rule="evenodd"/>
      <path d="M307.181,156.636l4.14-2.428,1.9,1.205,2.014-1.261,4.046,2.541-.037,2.879,2.465,1.412v4.366l-2.447,1.317v2.409l-4.347,2.5-1.713-1.242-1.6,1.242L307.237,169l-.037-2.315-2.334-1.43-.094-4.2,2.428-1.506Z" fill="#fff" fill-rule="evenodd"/>
      <path d="M311.29,168.6a.425.425,0,1,1-.373-.692l.044,0a.426.426,0,0,1,.329.694ZM311,157.781a.427.427,0,0,1-.466-.38.426.426,0,0,1,.38-.466l.044,0a.425.425,0,0,1,.042.848Zm.349,9.944h.077v-2.178a.115.115,0,0,0-.049-.094l-1.557-1.062V162l1.556-1.036a.114.114,0,0,0,.05-.094v-2.96a.725.725,0,0,0-.542-1.276.726.726,0,0,0,.072,1.448.6.6,0,0,0,.074,0,.727.727,0,0,0,.17-.04v2.772l-1.556,1.036a.112.112,0,0,0-.05.094v2.508a.113.113,0,0,0,.049.094l1.557,1.062v2.044a.725.725,0,1,0-.243,1.408c.024,0,.049,0,.073,0a.723.723,0,0,0,.319-1.33Z" fill="#2f2f2f" fill-rule="evenodd"/>
      <path d="M315.49,167.907l.043,0a.425.425,0,1,1-.372.692.42.42,0,0,1-.093-.312A.426.426,0,0,1,315.49,167.907Zm-.422-10.592a.425.425,0,0,1,.422-.382l.043,0a.424.424,0,0,1,.38.466.426.426,0,0,1-.465.38A.425.425,0,0,1,315.068,157.315Zm.537,3.705v-2.946a.714.714,0,0,0,.345-.153.726.726,0,0,0,.263-.49.726.726,0,0,0-.649-.8.725.725,0,0,0-.184,1.437v3.006a.114.114,0,0,0,.048.093l1.2.829v2.39l-1.557,1.062a.112.112,0,0,0-.049.093v2.166h.1a.725.725,0,0,0-.349.547.728.728,0,0,0,.649.8l.074,0a.726.726,0,0,0,.073-1.448.71.71,0,0,0-.316.04v-2.044l1.556-1.062a.114.114,0,0,0,.05-.094v-2.508a.112.112,0,0,0-.049-.093Z" fill="#2f2f2f" fill-rule="evenodd"/>
      <path d="M319.713,163.043a.425.425,0,1,1-.425-.424A.425.425,0,0,1,319.713,163.043Zm-1.727-2.488a.425.425,0,1,1-.424-.425A.425.425,0,0,1,317.986,160.555Zm-3.364,2.488a.425.425,0,1,1,.425.425A.425.425,0,0,1,314.622,163.043Zm2.94,3.023a.425.425,0,1,1,.424-.425A.425.425,0,0,1,317.562,166.066Zm1.576.462-.944-.537a.715.715,0,0,0,.094-.35.731.731,0,1,0-.234.531l.973.554v2.146l-4.139,2.5-1.425-1.017v-7.236h.866a.714.714,0,1,0,.009-.226h-.875v-7.416l1.723-1.038,3.841,2.306v2.729l-.334.2-.609.386a.756.756,0,1,0,.128.186l.6-.379.319-.186,2.307,1.359V162.9H320a.738.738,0,1,0,.006.226h1.43v2Zm-7.309-3.485a.425.425,0,1,1-.425-.424A.425.425,0,0,1,311.829,163.043Zm-2.94-2.913a.425.425,0,1,1-.425.425A.425.425,0,0,1,308.889,160.13Zm-2.151,2.913a.425.425,0,1,1,.425.425A.424.424,0,0,1,306.738,163.043Zm1.726,2.6a.425.425,0,1,1,.425.425A.426.426,0,0,1,308.464,165.641Zm3.1,5.728-4.139-2.5v-2.156l.945-.57a.725.725,0,1,0-.206-.5.707.707,0,0,0,.077.318l-.935.565-2.291-1.4v-2h1.431a.714.714,0,1,0,.006-.226h-1.437v-1.866l2.3-1.357.923.558a.716.716,0,1,0,.129-.186l-.946-.571v-2.735l3.841-2.306,1.723,1.038v7.416h-.875a.737.737,0,1,0,.009.226h.866v7.236Zm7.916-12.013v-2.87l-4.293-2.577-1.961,1.181-1.96-1.181-4.293,2.577v2.87l-2.409,1.418v4.608l2.409,1.468v2.277l4.612,2.782,1.641-1.172,1.642,1.172,4.612-2.782V166.85l2.409-1.468v-4.608Z" fill="#2f2f2f" fill-rule="evenodd"/>
    </g>
  </g>
  <g id="Text">
    <g>
      <path d="M602.235,63.3h-1.892V54.9h1.892Z" fill="#1e1e1e"/>
      <path d="M606.823,63.448a3.226,3.226,0,0,1-2.358-.84A3.476,3.476,0,0,1,604.5,58a3.369,3.369,0,0,1,2.408-.841,3.189,3.189,0,0,1,2.344.841,2.992,2.992,0,0,1,.85,2.224,3.172,3.172,0,0,1-.876,2.361A3.262,3.262,0,0,1,606.823,63.448Zm.047-4.875a1.234,1.234,0,0,0-1.019.452,1.982,1.982,0,0,0-.364,1.277q0,1.728,1.395,1.728,1.331,0,1.33-1.775Q608.212,58.573,606.87,58.573Z" fill="#1e1e1e"/>
      <path d="M617.382,56.441h-2.4V63.3h-1.9V56.441H610.7V54.9h6.68Z" fill="#1e1e1e"/>
      <path d="M626.862,63.3h-5.039V54.9h4.846v1.541h-2.953V58.31h2.748v1.535h-2.748v1.922h3.146Z" fill="#1e1e1e"/>
      <path d="M633.9,63.3h-1.851v-.826h-.024a2.075,2.075,0,0,1-1.857.972,2.274,2.274,0,0,1-1.811-.794,3.284,3.284,0,0,1-.685-2.217,3.578,3.578,0,0,1,.756-2.385,2.465,2.465,0,0,1,1.98-.9,1.683,1.683,0,0,1,1.617.833h.024V54.419H633.9Zm-1.816-2.918v-.451a1.418,1.418,0,0,0-.34-.973,1.2,1.2,0,0,0-1.846.1,2.246,2.246,0,0,0-.345,1.327,1.941,1.941,0,0,0,.334,1.219,1.187,1.187,0,0,0,1.843-.024A1.88,1.88,0,0,0,632.083,60.384Z" fill="#1e1e1e"/>
      <path d="M641.341,62.616a3.392,3.392,0,0,1-.967,2.587,3.916,3.916,0,0,1-2.8.917,4.451,4.451,0,0,1-1.922-.345V64.216a3.689,3.689,0,0,0,1.87.539,2.014,2.014,0,0,0,1.453-.495,1.779,1.779,0,0,0,.515-1.345v-.474h-.023a2.067,2.067,0,0,1-1.869,1.007,2.25,2.25,0,0,1-1.823-.808,3.28,3.28,0,0,1-.673-2.168,3.652,3.652,0,0,1,.75-2.42,2.447,2.447,0,0,1,1.974-.9,1.823,1.823,0,0,1,1.641.844h.023v-.7h1.852Zm-1.828-2.2v-.474a1.461,1.461,0,0,0-.337-.97,1.09,1.09,0,0,0-.876-.4,1.134,1.134,0,0,0-.967.481,2.26,2.26,0,0,0-.352,1.353,1.913,1.913,0,0,0,.334,1.187,1.089,1.089,0,0,0,.914.436,1.132,1.132,0,0,0,.929-.442A1.809,1.809,0,0,0,639.513,60.419Z" fill="#1e1e1e"/>
      <path d="M648.278,60.829h-3.914q.094,1.307,1.647,1.307a3.21,3.21,0,0,0,1.74-.469V63a4.57,4.57,0,0,1-2.162.445A2.792,2.792,0,0,1,642.53,60.4a3.211,3.211,0,0,1,.867-2.367,2.889,2.889,0,0,1,2.133-.874,2.623,2.623,0,0,1,2.031.78,3,3,0,0,1,.717,2.115Zm-1.716-1.136q0-1.29-1.043-1.289a1,1,0,0,0-.771.369,1.665,1.665,0,0,0-.4.92Z" fill="#1e1e1e"/>
      <path d="M620.276,76.5h-1.9V73.08H614.9V76.5h-1.892V68.1H614.9v3.351h3.481V68.1h1.9Z" fill="#1e1e1e"/>
      <path d="M627.718,76.5h-1.846v-.914h-.029a2.1,2.1,0,0,1-1.834,1.061q-2.086,0-2.086-2.526V70.5h1.846v3.457q0,1.272,1.007,1.272a1,1,0,0,0,.8-.349,1.406,1.406,0,0,0,.3-.946V70.5h1.846Z" fill="#1e1e1e"/>
      <path d="M631.151,75.805h-.023v.7h-1.852V67.619h1.852V71.4h.023a2.2,2.2,0,0,1,1.952-1.048,2.139,2.139,0,0,1,1.787.8,3.433,3.433,0,0,1,.627,2.179,3.722,3.722,0,0,1-.733,2.408,2.384,2.384,0,0,1-1.957.909A1.893,1.893,0,0,1,631.151,75.805Zm-.052-2.531v.615a1.4,1.4,0,0,0,.334.961,1.084,1.084,0,0,0,.855.381,1.135,1.135,0,0,0,.982-.49,2.364,2.364,0,0,0,.348-1.385,1.878,1.878,0,0,0-.319-1.163,1.076,1.076,0,0,0-.911-.419,1.175,1.175,0,0,0-.923.416A1.579,1.579,0,0,0,631.1,73.274Z" fill="#1e1e1e"/>
    </g>
    <g>
      <path d="M358.4,96.869h-.985V93.037h-4.347v3.832h-.985v-8.4h.985v3.686h4.347V88.467h.985Z" fill="#1e1e1e"/>
      <path d="M365.566,89.358h-2.425v7.511h-.985V89.358h-2.42v-.891h5.83Z" fill="#1e1e1e"/>
      <path d="M372.088,89.358h-2.426v7.511h-.984V89.358h-2.42v-.891h5.83Z" fill="#1e1e1e"/>
      <path d="M374.391,93.694v3.175h-.985v-8.4h2.309a3.05,3.05,0,0,1,2.089.656,2.345,2.345,0,0,1,.741,1.852,2.546,2.546,0,0,1-.823,1.957,3.145,3.145,0,0,1-2.224.762Zm0-4.336V92.8h1.031a2.3,2.3,0,0,0,1.556-.466,1.649,1.649,0,0,0,.536-1.315q0-1.665-1.969-1.664Z" fill="#1e1e1e"/>
      <path d="M388.107,94.11h-4.236a2.242,2.242,0,0,0,.539,1.546,1.857,1.857,0,0,0,1.418.545,2.942,2.942,0,0,0,1.863-.668v.9a3.478,3.478,0,0,1-2.091.574,2.534,2.534,0,0,1-2-.817,3.344,3.344,0,0,1-.727-2.3,3.279,3.279,0,0,1,.794-2.282,2.544,2.544,0,0,1,1.972-.882,2.258,2.258,0,0,1,1.822.761,3.175,3.175,0,0,1,.644,2.116Zm-.984-.815a1.96,1.96,0,0,0-.4-1.3,1.37,1.37,0,0,0-1.1-.463,1.549,1.549,0,0,0-1.154.487,2.2,2.2,0,0,0-.586,1.271Z" fill="#1e1e1e"/>
      <path d="M393.943,90.869,391.928,93.9l1.98,2.965h-1.119l-1.178-1.945q-.111-.182-.263-.457h-.024q-.029.052-.275.457l-1.2,1.945H388.74l2.045-2.941-1.957-3.059h1.119l1.16,2.051c.086.152.17.309.252.469h.024l1.5-2.52Z" fill="#1e1e1e"/>
      <path d="M397.852,96.811a1.857,1.857,0,0,1-.9.187q-1.576,0-1.576-1.758V91.69h-1.031v-.821h1.031V89.4l.961-.31v1.775h1.512v.821H396.34v3.381a1.4,1.4,0,0,0,.205.861.818.818,0,0,0,.68.258,1.011,1.011,0,0,0,.627-.2Z" fill="#1e1e1e"/>
      <path d="M403.957,94.11h-4.236a2.237,2.237,0,0,0,.539,1.546,1.856,1.856,0,0,0,1.418.545,2.942,2.942,0,0,0,1.863-.668v.9a3.481,3.481,0,0,1-2.092.574,2.537,2.537,0,0,1-2-.817,3.348,3.348,0,0,1-.726-2.3,3.275,3.275,0,0,1,.794-2.282,2.544,2.544,0,0,1,1.971-.882,2.26,2.26,0,0,1,1.823.761,3.181,3.181,0,0,1,.644,2.116Zm-.984-.815a1.954,1.954,0,0,0-.4-1.3,1.368,1.368,0,0,0-1.1-.463,1.553,1.553,0,0,0-1.155.487,2.214,2.214,0,0,0-.586,1.271Z" fill="#1e1e1e"/>
      <path d="M410.391,96.869h-.961V93.447q0-1.909-1.395-1.91a1.513,1.513,0,0,0-1.192.542,2.009,2.009,0,0,0-.472,1.368v3.422h-.961v-6h.961v1h.024a2.166,2.166,0,0,1,1.968-1.136,1.837,1.837,0,0,1,1.506.635,2.832,2.832,0,0,1,.522,1.837Z" fill="#1e1e1e"/>
      <path d="M411.838,96.653V95.621a2.841,2.841,0,0,0,1.728.58q1.266,0,1.266-.843a.736.736,0,0,0-.108-.408,1.1,1.1,0,0,0-.293-.3,2.29,2.29,0,0,0-.434-.231c-.166-.068-.345-.14-.536-.214a6.838,6.838,0,0,1-.7-.319,2.162,2.162,0,0,1-.5-.363,1.37,1.37,0,0,1-.305-.46,1.636,1.636,0,0,1-.1-.6,1.433,1.433,0,0,1,.193-.747,1.719,1.719,0,0,1,.516-.545,2.4,2.4,0,0,1,.735-.331,3.27,3.27,0,0,1,.852-.111,3.454,3.454,0,0,1,1.395.269v.973a2.717,2.717,0,0,0-1.523-.434,1.787,1.787,0,0,0-.487.062,1.183,1.183,0,0,0-.372.173.808.808,0,0,0-.24.266.7.7,0,0,0-.085.343.822.822,0,0,0,.085.393.877.877,0,0,0,.249.281,1.925,1.925,0,0,0,.4.223c.157.066.334.138.534.216a7.328,7.328,0,0,1,.714.314,2.447,2.447,0,0,1,.54.363,1.423,1.423,0,0,1,.342.466,1.505,1.505,0,0,1,.12.627,1.473,1.473,0,0,1-.2.773,1.683,1.683,0,0,1-.524.545,2.388,2.388,0,0,1-.756.322,3.7,3.7,0,0,1-.9.106A3.406,3.406,0,0,1,411.838,96.653Z" fill="#1e1e1e"/>
      <path d="M417.785,89.346a.608.608,0,0,1-.439-.176.594.594,0,0,1-.182-.445.616.616,0,0,1,.621-.627.616.616,0,0,1,.448.179.624.624,0,0,1,0,.887A.615.615,0,0,1,417.785,89.346Zm.469,7.523h-.961v-6h.961Z" fill="#1e1e1e"/>
      <path d="M422.707,97.01a2.781,2.781,0,0,1-2.124-.841,3.115,3.115,0,0,1-.794-2.229,3.246,3.246,0,0,1,.826-2.362,2.972,2.972,0,0,1,2.233-.849,2.689,2.689,0,0,1,2.094.826,3.275,3.275,0,0,1,.753,2.291,3.223,3.223,0,0,1-.811,2.3A2.845,2.845,0,0,1,422.707,97.01Zm.07-5.473a1.826,1.826,0,0,0-1.464.63,2.584,2.584,0,0,0-.54,1.737,2.449,2.449,0,0,0,.545,1.682,1.854,1.854,0,0,0,1.459.615,1.758,1.758,0,0,0,1.433-.6,2.619,2.619,0,0,0,.5-1.717,2.662,2.662,0,0,0-.5-1.734A1.748,1.748,0,0,0,422.777,91.537Z" fill="#1e1e1e"/>
      <path d="M432.211,96.869h-.961V93.447q0-1.909-1.395-1.91a1.514,1.514,0,0,0-1.192.542,2.013,2.013,0,0,0-.472,1.368v3.422h-.961v-6h.961v1h.024a2.166,2.166,0,0,1,1.969-1.136,1.835,1.835,0,0,1,1.5.635,2.832,2.832,0,0,1,.522,1.837Z" fill="#1e1e1e"/>
    </g>
    <g>
      <path d="M506.041,90h-.984V81.6h.984Z" fill="#1e1e1e"/>
      <path d="M510.629,90.14a2.784,2.784,0,0,1-2.124-.84,3.117,3.117,0,0,1-.794-2.23,3.242,3.242,0,0,1,.826-2.361,2.969,2.969,0,0,1,2.233-.85,2.689,2.689,0,0,1,2.094.826,3.277,3.277,0,0,1,.753,2.291,3.223,3.223,0,0,1-.811,2.3A2.845,2.845,0,0,1,510.629,90.14Zm.07-5.472a1.829,1.829,0,0,0-1.465.63,2.587,2.587,0,0,0-.539,1.737,2.45,2.45,0,0,0,.545,1.682,1.854,1.854,0,0,0,1.459.615,1.756,1.756,0,0,0,1.433-.6,2.617,2.617,0,0,0,.5-1.717,2.662,2.662,0,0,0-.5-1.734A1.75,1.75,0,0,0,510.7,84.668Z" fill="#1e1e1e"/>
      <path d="M520.25,82.488h-2.426V90h-.984V82.488h-2.42V81.6h5.83Z" fill="#1e1e1e"/>
      <path d="M531.172,90h-.984V86.168H525.84V90h-.985V81.6h.985v3.686h4.348V81.6h.984Z" fill="#1e1e1e"/>
      <path d="M538.1,90h-.961v-.95h-.024a1.971,1.971,0,0,1-1.851,1.09q-2.145,0-2.145-2.554V84h.955v3.433q0,1.9,1.453,1.9a1.471,1.471,0,0,0,1.158-.519,1.988,1.988,0,0,0,.454-1.356V84h.961Z" fill="#1e1e1e"/>
      <path d="M541.021,89.133H541V90h-.961V81.117H541v3.937h.023a2.275,2.275,0,0,1,2.075-1.2,2.2,2.2,0,0,1,1.807.806,3.324,3.324,0,0,1,.654,2.159,3.713,3.713,0,0,1-.733,2.411,2.436,2.436,0,0,1-2,.905A1.976,1.976,0,0,1,541.021,89.133ZM541,86.713v.837a1.785,1.785,0,0,0,.483,1.263,1.724,1.724,0,0,0,2.6-.149,3.068,3.068,0,0,0,.5-1.858,2.416,2.416,0,0,0-.463-1.57,1.53,1.53,0,0,0-1.254-.568,1.7,1.7,0,0,0-1.347.583A2.139,2.139,0,0,0,541,86.713Z" fill="#1e1e1e"/>
      <path d="M499.388,103.2h-.961V99.755a2.6,2.6,0,0,0-.308-1.442,1.166,1.166,0,0,0-1.034-.445,1.28,1.28,0,0,0-1.046.562,2.155,2.155,0,0,0-.431,1.348V103.2h-.961V99.637q0-1.769-1.365-1.769a1.266,1.266,0,0,0-1.043.53,2.2,2.2,0,0,0-.41,1.38V103.2h-.961v-6h.961v.949h.024a2.038,2.038,0,0,1,1.863-1.09,1.741,1.741,0,0,1,1.072.343,1.722,1.722,0,0,1,.627.9,2.14,2.14,0,0,1,1.992-1.242q1.982,0,1.981,2.444Z" fill="#1e1e1e"/>
      <path d="M506.026,100.44H501.79a2.245,2.245,0,0,0,.539,1.547,1.861,1.861,0,0,0,1.418.545,2.948,2.948,0,0,0,1.863-.668v.9a3.478,3.478,0,0,1-2.091.575,2.535,2.535,0,0,1-2-.818,3.342,3.342,0,0,1-.727-2.3,3.283,3.283,0,0,1,.794-2.282,2.544,2.544,0,0,1,1.972-.882,2.255,2.255,0,0,1,1.822.762,3.174,3.174,0,0,1,.644,2.115Zm-.984-.814a1.958,1.958,0,0,0-.4-1.3,1.367,1.367,0,0,0-1.1-.463,1.552,1.552,0,0,0-1.154.486,2.2,2.2,0,0,0-.586,1.272Z" fill="#1e1e1e"/>
      <path d="M507.116,102.983v-1.031a2.844,2.844,0,0,0,1.729.58q1.264,0,1.265-.844a.733.733,0,0,0-.108-.407,1.083,1.083,0,0,0-.293-.3,2.235,2.235,0,0,0-.434-.231c-.166-.069-.344-.14-.536-.214a6.93,6.93,0,0,1-.7-.32,2.105,2.105,0,0,1-.5-.363,1.36,1.36,0,0,1-.305-.46,1.634,1.634,0,0,1-.1-.6,1.428,1.428,0,0,1,.193-.747,1.708,1.708,0,0,1,.516-.545,2.391,2.391,0,0,1,.735-.331,3.236,3.236,0,0,1,.853-.112,3.436,3.436,0,0,1,1.394.27V98.3a2.716,2.716,0,0,0-1.523-.433,1.775,1.775,0,0,0-.486.061,1.185,1.185,0,0,0-.372.173.794.794,0,0,0-.241.267.709.709,0,0,0-.085.343.827.827,0,0,0,.085.392.866.866,0,0,0,.249.281,1.889,1.889,0,0,0,.4.223q.234.1.533.217a7.36,7.36,0,0,1,.715.313,2.477,2.477,0,0,1,.539.364,1.422,1.422,0,0,1,.343.465,1.505,1.505,0,0,1,.12.627,1.48,1.48,0,0,1-.2.774,1.672,1.672,0,0,1-.524.545,2.411,2.411,0,0,1-.756.322,3.746,3.746,0,0,1-.9.106A3.407,3.407,0,0,1,507.116,102.983Z" fill="#1e1e1e"/>
      <path d="M512.208,102.983v-1.031a2.842,2.842,0,0,0,1.729.58q1.264,0,1.265-.844a.733.733,0,0,0-.108-.407,1.1,1.1,0,0,0-.293-.3,2.235,2.235,0,0,0-.434-.231q-.249-.1-.536-.214a6.83,6.83,0,0,1-.7-.32,2.105,2.105,0,0,1-.5-.363,1.36,1.36,0,0,1-.3-.46,1.634,1.634,0,0,1-.1-.6,1.428,1.428,0,0,1,.193-.747,1.708,1.708,0,0,1,.516-.545,2.391,2.391,0,0,1,.735-.331,3.231,3.231,0,0,1,.853-.112,3.436,3.436,0,0,1,1.394.27V98.3a2.716,2.716,0,0,0-1.523-.433,1.788,1.788,0,0,0-.487.061,1.206,1.206,0,0,0-.372.173.8.8,0,0,0-.24.267.7.7,0,0,0-.085.343.815.815,0,0,0,.085.392.866.866,0,0,0,.249.281,1.864,1.864,0,0,0,.4.223q.234.1.533.217a7.469,7.469,0,0,1,.715.313,2.477,2.477,0,0,1,.539.364,1.419,1.419,0,0,1,.342.465,1.5,1.5,0,0,1,.121.627,1.48,1.48,0,0,1-.2.774,1.682,1.682,0,0,1-.524.545,2.411,2.411,0,0,1-.756.322,3.748,3.748,0,0,1-.9.106A3.406,3.406,0,0,1,512.208,102.983Z" fill="#1e1e1e"/>
      <path d="M521.958,103.2H521v-.938h-.023a2.013,2.013,0,0,1-1.846,1.079,1.973,1.973,0,0,1-1.4-.475,1.643,1.643,0,0,1-.507-1.26q0-1.681,1.98-1.957L521,99.4q0-1.529-1.236-1.529a2.954,2.954,0,0,0-1.957.738v-.984a3.718,3.718,0,0,1,2.039-.563q2.115,0,2.115,2.239ZM521,100.165l-1.447.2a2.345,2.345,0,0,0-1.008.331.953.953,0,0,0-.34.841.917.917,0,0,0,.314.718,1.213,1.213,0,0,0,.835.278,1.541,1.541,0,0,0,1.18-.5,1.789,1.789,0,0,0,.466-1.269Z" fill="#1e1e1e"/>
      <path d="M528.89,102.719q0,3.306-3.164,3.305a4.253,4.253,0,0,1-1.946-.422v-.961a4,4,0,0,0,1.934.563q2.214,0,2.215-2.356v-.656h-.024a2.427,2.427,0,0,1-3.864.349,3.2,3.2,0,0,1-.683-2.148,3.735,3.735,0,0,1,.736-2.431,2.455,2.455,0,0,1,2.012-.9,1.954,1.954,0,0,1,1.8.973h.024V97.2h.961Zm-.961-2.232V99.6a1.712,1.712,0,0,0-.484-1.224,1.59,1.59,0,0,0-1.2-.51,1.669,1.669,0,0,0-1.394.647,2.891,2.891,0,0,0-.5,1.814,2.48,2.48,0,0,0,.483,1.6,1.56,1.56,0,0,0,1.28.6,1.672,1.672,0,0,0,1.316-.574A2.14,2.14,0,0,0,527.929,100.487Z" fill="#1e1e1e"/>
      <path d="M535.657,100.44h-4.236a2.245,2.245,0,0,0,.539,1.547,1.859,1.859,0,0,0,1.418.545,2.948,2.948,0,0,0,1.863-.668v.9a3.479,3.479,0,0,1-2.092.575,2.538,2.538,0,0,1-2-.818,3.347,3.347,0,0,1-.726-2.3,3.278,3.278,0,0,1,.794-2.282,2.544,2.544,0,0,1,1.971-.882,2.256,2.256,0,0,1,1.823.762,3.18,3.18,0,0,1,.644,2.115Zm-.984-.814a1.953,1.953,0,0,0-.4-1.3,1.364,1.364,0,0,0-1.1-.463,1.552,1.552,0,0,0-1.154.486,2.2,2.2,0,0,0-.586,1.272Z" fill="#1e1e1e"/>
      <path d="M540.034,102.983v-1.031a2.844,2.844,0,0,0,1.729.58q1.264,0,1.265-.844a.733.733,0,0,0-.108-.407,1.083,1.083,0,0,0-.293-.3,2.235,2.235,0,0,0-.434-.231c-.166-.069-.344-.14-.536-.214a6.93,6.93,0,0,1-.7-.32,2.105,2.105,0,0,1-.5-.363,1.36,1.36,0,0,1-.3-.46,1.634,1.634,0,0,1-.1-.6,1.428,1.428,0,0,1,.193-.747,1.708,1.708,0,0,1,.516-.545,2.391,2.391,0,0,1,.735-.331,3.236,3.236,0,0,1,.853-.112,3.436,3.436,0,0,1,1.394.27V98.3a2.716,2.716,0,0,0-1.523-.433,1.775,1.775,0,0,0-.486.061,1.2,1.2,0,0,0-.373.173.8.8,0,0,0-.24.267.709.709,0,0,0-.085.343.827.827,0,0,0,.085.392.866.866,0,0,0,.249.281,1.889,1.889,0,0,0,.4.223q.234.1.533.217a7.36,7.36,0,0,1,.715.313,2.477,2.477,0,0,1,.539.364,1.422,1.422,0,0,1,.343.465,1.505,1.505,0,0,1,.12.627,1.48,1.48,0,0,1-.2.774,1.672,1.672,0,0,1-.524.545,2.411,2.411,0,0,1-.756.322,3.746,3.746,0,0,1-.9.106A3.407,3.407,0,0,1,540.034,102.983Z" fill="#1e1e1e"/>
      <path d="M545.981,95.676a.609.609,0,0,1-.439-.175.6.6,0,0,1-.182-.446.616.616,0,0,1,.621-.627.623.623,0,0,1,.449.179.628.628,0,0,1,0,.888A.616.616,0,0,1,545.981,95.676Zm.469,7.524h-.961v-6h.961Z" fill="#1e1e1e"/>
      <path d="M553.376,103.2h-.961V99.778q0-1.91-1.394-1.91a1.515,1.515,0,0,0-1.193.542,2.01,2.01,0,0,0-.472,1.368V103.2h-.96v-6h.96v1h.024a2.165,2.165,0,0,1,1.969-1.137,1.833,1.833,0,0,1,1.5.636,2.83,2.83,0,0,1,.522,1.837Z" fill="#1e1e1e"/>
      <path d="M560.167,103.2h-1.348l-2.648-2.883h-.024V103.2h-.96V94.317h.96v5.631h.024L558.69,97.2h1.26l-2.783,2.894Z" fill="#1e1e1e"/>
    </g>
    <g>
      <path d="M77.654,22H75.761V13.6h1.893Z" fill="#1e1e1e"/>
      <path d="M82.242,22.147a3.23,3.23,0,0,1-2.359-.841,3.049,3.049,0,0,1-.858-2.282,3.045,3.045,0,0,1,.891-2.329,3.361,3.361,0,0,1,2.408-.841,3.182,3.182,0,0,1,2.343.841,2.984,2.984,0,0,1,.85,2.223,3.172,3.172,0,0,1-.876,2.361A3.258,3.258,0,0,1,82.242,22.147Zm.047-4.875a1.234,1.234,0,0,0-1.02.451A1.99,1.99,0,0,0,80.906,19q0,1.729,1.394,1.729,1.331,0,1.33-1.776Q83.63,17.272,82.289,17.272Z" fill="#1e1e1e"/>
      <path d="M92.8,15.139H90.4V22h-1.9V15.139H86.121V13.6H92.8Z" fill="#1e1e1e"/>
      <path d="M102.281,22H97.242V13.6h4.845v1.541H99.134v1.869h2.748v1.535H99.134v1.922h3.147Z" fill="#1e1e1e"/>
      <path d="M109.318,22h-1.852v-.826h-.023a2.078,2.078,0,0,1-1.858.973,2.275,2.275,0,0,1-1.81-.794,3.289,3.289,0,0,1-.686-2.218,3.578,3.578,0,0,1,.756-2.385,2.467,2.467,0,0,1,1.981-.9,1.685,1.685,0,0,1,1.617.832h.023V13.117h1.852ZM107.5,19.082v-.451a1.422,1.422,0,0,0-.339-.973,1.2,1.2,0,0,0-1.846.1,2.241,2.241,0,0,0-.346,1.327A1.946,1.946,0,0,0,105.3,20.3a1.186,1.186,0,0,0,1.843-.023A1.885,1.885,0,0,0,107.5,19.082Z" fill="#1e1e1e"/>
      <path d="M116.759,21.315a3.4,3.4,0,0,1-.967,2.587,3.918,3.918,0,0,1-2.8.917,4.443,4.443,0,0,1-1.922-.346V22.914a3.673,3.673,0,0,0,1.869.539,2.014,2.014,0,0,0,1.453-.5,1.776,1.776,0,0,0,.516-1.345v-.474h-.024a2.068,2.068,0,0,1-1.869,1.008,2.249,2.249,0,0,1-1.822-.809,3.281,3.281,0,0,1-.674-2.168,3.652,3.652,0,0,1,.75-2.42,2.45,2.45,0,0,1,1.975-.9,1.822,1.822,0,0,1,1.64.843h.024V16h1.851Zm-1.828-2.2v-.474a1.458,1.458,0,0,0-.337-.97,1.087,1.087,0,0,0-.876-.4,1.134,1.134,0,0,0-.967.48,2.263,2.263,0,0,0-.351,1.354,1.9,1.9,0,0,0,.334,1.186,1.089,1.089,0,0,0,.914.437,1.135,1.135,0,0,0,.929-.443A1.815,1.815,0,0,0,114.931,19.117Z" fill="#1e1e1e"/>
      <path d="M123.7,19.528h-3.914q.093,1.307,1.646,1.306a3.21,3.21,0,0,0,1.74-.469V21.7a4.567,4.567,0,0,1-2.162.446,2.792,2.792,0,0,1-3.058-3.053,3.211,3.211,0,0,1,.867-2.367,2.889,2.889,0,0,1,2.133-.873,2.62,2.62,0,0,1,2.03.779,3,3,0,0,1,.718,2.115Zm-1.717-1.137q0-1.29-1.043-1.289a.994.994,0,0,0-.77.369,1.676,1.676,0,0,0-.4.92Z" fill="#1e1e1e"/>
      <path d="M133.98,22h-1.852v-.826H132.1a2.077,2.077,0,0,1-1.857.973,2.277,2.277,0,0,1-1.811-.794,3.289,3.289,0,0,1-.686-2.218,3.578,3.578,0,0,1,.756-2.385,2.467,2.467,0,0,1,1.981-.9,1.685,1.685,0,0,1,1.617.832h.023V13.117h1.852Zm-1.816-2.918v-.451a1.423,1.423,0,0,0-.34-.973,1.2,1.2,0,0,0-1.846.1,2.248,2.248,0,0,0-.346,1.327,1.946,1.946,0,0,0,.334,1.219,1.186,1.186,0,0,0,1.843-.023A1.885,1.885,0,0,0,132.164,19.082Z" fill="#1e1e1e"/>
      <path d="M140.929,19.528h-3.914q.095,1.307,1.647,1.306a3.21,3.21,0,0,0,1.74-.469V21.7a4.572,4.572,0,0,1-2.162.446,2.793,2.793,0,0,1-3.059-3.053,3.211,3.211,0,0,1,.867-2.367,2.889,2.889,0,0,1,2.133-.873,2.619,2.619,0,0,1,2.03.779,3,3,0,0,1,.718,2.115Zm-1.717-1.137q0-1.29-1.043-1.289a1,1,0,0,0-.77.369,1.676,1.676,0,0,0-.4.92Z" fill="#1e1e1e"/>
      <path d="M147.744,16l-2.233,6H143.4l-2.127-6h1.98l1.043,3.7a5.307,5.307,0,0,1,.2,1.067h.024a5.946,5.946,0,0,1,.217-1.031L145.81,16Z" fill="#1e1e1e"/>
      <path d="M149.472,15.051a1.083,1.083,0,0,1-.767-.278.9.9,0,0,1-.3-.683.864.864,0,0,1,.3-.68,1.256,1.256,0,0,1,1.538,0,.871.871,0,0,1,.3.68.893.893,0,0,1-.3.691A1.1,1.1,0,0,1,149.472,15.051ZM150.386,22h-1.851V16h1.851Z" fill="#1e1e1e"/>
      <path d="M156.492,21.783a3.653,3.653,0,0,1-1.811.364,3.063,3.063,0,0,1-2.238-.838,2.9,2.9,0,0,1-.856-2.162,3.187,3.187,0,0,1,.917-2.411,3.391,3.391,0,0,1,2.453-.882,3.142,3.142,0,0,1,1.535.281V17.7a2.113,2.113,0,0,0-1.295-.433,1.706,1.706,0,0,0-1.263.466,1.739,1.739,0,0,0-.466,1.286,1.711,1.711,0,0,0,.446,1.251,1.637,1.637,0,0,0,1.224.454,2.448,2.448,0,0,0,1.354-.434Z" fill="#1e1e1e"/>
      <path d="M163.1,19.528h-3.914q.094,1.307,1.647,1.306a3.21,3.21,0,0,0,1.74-.469V21.7a4.572,4.572,0,0,1-2.162.446,2.793,2.793,0,0,1-3.059-3.053,3.211,3.211,0,0,1,.867-2.367,2.889,2.889,0,0,1,2.133-.873,2.619,2.619,0,0,1,2.03.779,3,3,0,0,1,.718,2.115Zm-1.717-1.137q0-1.29-1.043-1.289a1,1,0,0,0-.77.369,1.676,1.676,0,0,0-.4.92Z" fill="#1e1e1e"/>
    </g>
    <g>
      <path d="M106.454,44.505V47.4h-1.893V39h2.965q3.176,0,3.176,2.678a2.571,2.571,0,0,1-.911,2.048,3.614,3.614,0,0,1-2.435.782Zm0-4.055v2.62h.744q1.512,0,1.511-1.325,0-1.294-1.511-1.295Z" fill="#1e1e1e"/>
      <path d="M112.688,40.45a1.081,1.081,0,0,1-.768-.278.9.9,0,0,1-.3-.683.864.864,0,0,1,.3-.679,1.252,1.252,0,0,1,1.538,0,.866.866,0,0,1,.3.679.891.891,0,0,1-.3.692A1.1,1.1,0,0,1,112.688,40.45Zm.914,6.95H111.75v-6H113.6Z" fill="#1e1e1e"/>
      <path d="M117.036,46.7h-.024v3.457h-1.851V41.4h1.851v.9h.024a2.355,2.355,0,0,1,3.729-.249,3.4,3.4,0,0,1,.636,2.177,3.692,3.692,0,0,1-.741,2.408,2.419,2.419,0,0,1-1.972.908A1.866,1.866,0,0,1,117.036,46.7Zm-.053-2.461v.481a1.528,1.528,0,0,0,.328,1.014,1.07,1.07,0,0,0,.861.392,1.137,1.137,0,0,0,.982-.489,2.365,2.365,0,0,0,.348-1.386q0-1.582-1.23-1.582a1.156,1.156,0,0,0-.929.431A1.718,1.718,0,0,0,116.983,44.241Z" fill="#1e1e1e"/>
      <path d="M127.993,44.927h-3.914q.093,1.307,1.646,1.307a3.219,3.219,0,0,0,1.74-.469V47.1a4.567,4.567,0,0,1-2.162.445,2.792,2.792,0,0,1-3.058-3.053,3.211,3.211,0,0,1,.867-2.367,2.889,2.889,0,0,1,2.133-.873,2.624,2.624,0,0,1,2.03.779,3.006,3.006,0,0,1,.718,2.116Zm-1.717-1.137q0-1.289-1.043-1.289a1,1,0,0,0-.771.369,1.682,1.682,0,0,0-.4.92Z" fill="#1e1e1e"/>
      <path d="M130.946,47.4h-1.852V38.517h1.852Z" fill="#1e1e1e"/>
      <path d="M133.442,40.45a1.081,1.081,0,0,1-.768-.278.9.9,0,0,1-.3-.683.865.865,0,0,1,.3-.679,1.252,1.252,0,0,1,1.538,0,.866.866,0,0,1,.3.679.891.891,0,0,1-.3.692A1.1,1.1,0,0,1,133.442,40.45Zm.914,6.95H132.5v-6h1.852Z" fill="#1e1e1e"/>
      <path d="M141.709,47.4h-1.845V44.066q0-1.395-1-1.4a.987.987,0,0,0-.791.369,1.408,1.408,0,0,0-.311.938V47.4h-1.851v-6h1.851v.949h.024a2.12,2.12,0,0,1,1.927-1.1q1.992,0,1.992,2.473Z" fill="#1e1e1e"/>
      <path d="M148.565,44.927h-3.914q.093,1.307,1.646,1.307a3.22,3.22,0,0,0,1.741-.469V47.1a4.574,4.574,0,0,1-2.163.445,2.793,2.793,0,0,1-3.058-3.053,3.211,3.211,0,0,1,.867-2.367,2.889,2.889,0,0,1,2.133-.873,2.623,2.623,0,0,1,2.03.779,3,3,0,0,1,.718,2.116Zm-1.717-1.137q0-1.289-1.043-1.289a.994.994,0,0,0-.77.369,1.676,1.676,0,0,0-.4.92Z" fill="#1e1e1e"/>
    </g>
    <g>
      <path d="M109.335,96.87h-1.171l-1.407-2.356a5.19,5.19,0,0,0-.375-.559,2.121,2.121,0,0,0-.372-.378,1.278,1.278,0,0,0-.41-.214,1.679,1.679,0,0,0-.495-.067H104.3V96.87h-.984v-8.4h2.508a3.561,3.561,0,0,1,1.016.138,2.28,2.28,0,0,1,.809.419,1.948,1.948,0,0,1,.536.7,2.325,2.325,0,0,1,.194.982,2.356,2.356,0,0,1-.132.8,2.109,2.109,0,0,1-.375.654,2.292,2.292,0,0,1-.586.489,2.987,2.987,0,0,1-.771.313v.024a1.729,1.729,0,0,1,.366.214,1.97,1.97,0,0,1,.3.284,3.676,3.676,0,0,1,.279.372c.091.139.194.3.307.483ZM104.3,89.358v3.047h1.336a2.034,2.034,0,0,0,.683-.111,1.586,1.586,0,0,0,.542-.32,1.445,1.445,0,0,0,.357-.509,1.71,1.71,0,0,0,.129-.677,1.318,1.318,0,0,0-.436-1.052,1.875,1.875,0,0,0-1.263-.378Z" fill="#1e1e1e"/>
      <path d="M114.919,89.358h-2.425V96.87h-.985V89.358h-2.42v-.891h5.83Z" fill="#1e1e1e"/>
      <path d="M115.611,96.53V95.37a2.284,2.284,0,0,0,.477.316,3.926,3.926,0,0,0,.586.238,4.705,4.705,0,0,0,.618.149,3.481,3.481,0,0,0,.575.053,2.253,2.253,0,0,0,1.356-.337,1.266,1.266,0,0,0,.3-1.562,1.69,1.69,0,0,0-.413-.46,4.178,4.178,0,0,0-.624-.4q-.36-.19-.777-.4-.438-.222-.82-.451a3.535,3.535,0,0,1-.662-.5,2.087,2.087,0,0,1-.442-.624,2.127,2.127,0,0,1,.091-1.816,2.14,2.14,0,0,1,.662-.7,2.971,2.971,0,0,1,.934-.41,4.276,4.276,0,0,1,1.07-.135,4.084,4.084,0,0,1,1.81.3v1.107a3.28,3.28,0,0,0-1.91-.516,3.141,3.141,0,0,0-.645.068,1.819,1.819,0,0,0-.574.22,1.261,1.261,0,0,0-.41.392,1.047,1.047,0,0,0-.158.586,1.211,1.211,0,0,0,.12.557,1.355,1.355,0,0,0,.354.427,3.543,3.543,0,0,0,.572.375c.224.122.483.254.776.4s.586.305.856.469a3.922,3.922,0,0,1,.709.545,2.419,2.419,0,0,1,.483.662,1.861,1.861,0,0,1,.179.832,2.1,2.1,0,0,1-.244,1.051,1.986,1.986,0,0,1-.656.7,2.877,2.877,0,0,1-.952.389,5.216,5.216,0,0,1-1.137.12,4.5,4.5,0,0,1-.492-.032c-.195-.021-.394-.053-.6-.094a4.777,4.777,0,0,1-.578-.152A1.784,1.784,0,0,1,115.611,96.53Z" fill="#1e1e1e"/>
      <path d="M123.363,93.694V96.87h-.985v-8.4h2.309a3.046,3.046,0,0,1,2.089.657,2.341,2.341,0,0,1,.741,1.851,2.544,2.544,0,0,1-.823,1.957,3.145,3.145,0,0,1-2.224.762Zm0-4.336V92.8h1.031a2.31,2.31,0,0,0,1.556-.465,1.651,1.651,0,0,0,.536-1.316q0-1.664-1.969-1.664Z" fill="#1e1e1e"/>
      <path d="M131.894,96.653V95.622a2.849,2.849,0,0,0,1.729.58q1.265,0,1.265-.844a.733.733,0,0,0-.108-.407,1.083,1.083,0,0,0-.293-.3,2.235,2.235,0,0,0-.434-.231q-.249-.1-.536-.214a6.83,6.83,0,0,1-.7-.32,2.105,2.105,0,0,1-.5-.363,1.36,1.36,0,0,1-.3-.46,1.634,1.634,0,0,1-.1-.6,1.428,1.428,0,0,1,.193-.747,1.708,1.708,0,0,1,.516-.545,2.391,2.391,0,0,1,.735-.331,3.231,3.231,0,0,1,.853-.112A3.436,3.436,0,0,1,135.6,91v.972a2.716,2.716,0,0,0-1.523-.433,1.788,1.788,0,0,0-.487.061,1.206,1.206,0,0,0-.372.173.8.8,0,0,0-.24.267.7.7,0,0,0-.085.343.815.815,0,0,0,.085.392.866.866,0,0,0,.249.281,1.864,1.864,0,0,0,.4.223c.156.066.334.139.533.217a7.469,7.469,0,0,1,.715.313,2.477,2.477,0,0,1,.539.364,1.419,1.419,0,0,1,.342.465,1.647,1.647,0,0,1-.076,1.4,1.682,1.682,0,0,1-.524.545,2.411,2.411,0,0,1-.756.322,3.746,3.746,0,0,1-.9.105A3.407,3.407,0,0,1,131.894,96.653Z" fill="#1e1e1e"/>
      <path d="M139.857,97.01a2.784,2.784,0,0,1-2.124-.84,3.117,3.117,0,0,1-.794-2.23,3.242,3.242,0,0,1,.826-2.361,2.969,2.969,0,0,1,2.233-.85,2.693,2.693,0,0,1,2.094.826,3.277,3.277,0,0,1,.753,2.291,3.223,3.223,0,0,1-.811,2.3A2.845,2.845,0,0,1,139.857,97.01Zm.07-5.472a1.829,1.829,0,0,0-1.465.63,2.589,2.589,0,0,0-.539,1.737,2.45,2.45,0,0,0,.545,1.682,1.854,1.854,0,0,0,1.459.615,1.756,1.756,0,0,0,1.433-.6,2.616,2.616,0,0,0,.5-1.716,2.665,2.665,0,0,0-.5-1.735A1.75,1.75,0,0,0,139.927,91.538Z" fill="#1e1e1e"/>
      <path d="M149.232,96.87h-.961v-.949h-.023A1.975,1.975,0,0,1,146.4,97.01q-2.145,0-2.145-2.554V90.87h.956V94.3q0,1.9,1.453,1.9a1.47,1.47,0,0,0,1.157-.519,1.981,1.981,0,0,0,.454-1.356V90.87h.961Z" fill="#1e1e1e"/>
      <path d="M154.3,91.842a1.18,1.18,0,0,0-.726-.193,1.228,1.228,0,0,0-1.029.58,2.685,2.685,0,0,0-.413,1.582V96.87h-.961v-6h.961v1.236h.024a2.081,2.081,0,0,1,.627-.987,1.43,1.43,0,0,1,.943-.355,1.583,1.583,0,0,1,.574.082Z" fill="#1e1e1e"/>
      <path d="M159.433,96.594a3.117,3.117,0,0,1-1.641.416,2.716,2.716,0,0,1-2.071-.835,3.026,3.026,0,0,1-.788-2.165,3.321,3.321,0,0,1,.85-2.381,2.97,2.97,0,0,1,2.267-.9,3.163,3.163,0,0,1,1.395.293v.985a2.44,2.44,0,0,0-1.43-.469,1.935,1.935,0,0,0-1.509.659,2.5,2.5,0,0,0-.589,1.731,2.38,2.38,0,0,0,.554,1.664,1.906,1.906,0,0,0,1.486.61,2.406,2.406,0,0,0,1.476-.522Z" fill="#1e1e1e"/>
      <path d="M165.708,94.11h-4.236a2.245,2.245,0,0,0,.539,1.547,1.861,1.861,0,0,0,1.418.545,2.948,2.948,0,0,0,1.863-.668v.9a3.478,3.478,0,0,1-2.091.574,2.534,2.534,0,0,1-2-.817,3.342,3.342,0,0,1-.727-2.3,3.283,3.283,0,0,1,.794-2.282,2.546,2.546,0,0,1,1.972-.882,2.255,2.255,0,0,1,1.822.762,3.174,3.174,0,0,1,.644,2.115Zm-.984-.814a1.958,1.958,0,0,0-.4-1.3,1.367,1.367,0,0,0-1.1-.463,1.552,1.552,0,0,0-1.154.486,2.2,2.2,0,0,0-.586,1.272Z" fill="#1e1e1e"/>
    </g>
    <g>
      <path d="M250.662,90h-.979V84.363q0-.667.082-1.635h-.023a5.283,5.283,0,0,1-.252.815L246.619,90h-.481l-2.865-6.41a5.047,5.047,0,0,1-.252-.862H243q.047.5.046,1.647V90H242.1V81.6h1.3l2.578,5.86a7.572,7.572,0,0,1,.387,1.008h.035q.252-.691.4-1.032l2.631-5.836h1.231Z" fill="#1e1e1e"/>
      <path d="M255.25,90.14a2.787,2.787,0,0,1-2.125-.84,3.117,3.117,0,0,1-.793-2.23,3.242,3.242,0,0,1,.826-2.361,2.967,2.967,0,0,1,2.232-.85,2.69,2.69,0,0,1,2.1.826,3.277,3.277,0,0,1,.753,2.291,3.224,3.224,0,0,1-.812,2.3A2.843,2.843,0,0,1,255.25,90.14Zm.07-5.472a1.828,1.828,0,0,0-1.465.63,2.587,2.587,0,0,0-.539,1.737,2.45,2.45,0,0,0,.545,1.682,1.851,1.851,0,0,0,1.459.615,1.754,1.754,0,0,0,1.432-.6,2.617,2.617,0,0,0,.5-1.717,2.662,2.662,0,0,0-.5-1.734A1.748,1.748,0,0,0,255.32,84.668Z" fill="#1e1e1e"/>
      <path d="M262.556,89.941a1.849,1.849,0,0,1-.9.188q-1.577,0-1.577-1.758V84.82h-1.031V84h1.031V82.535l.961-.311V84h1.512v.82h-1.512V88.2a1.4,1.4,0,0,0,.206.861.816.816,0,0,0,.679.258,1.01,1.01,0,0,0,.627-.2Z" fill="#1e1e1e"/>
      <path d="M264.332,82.476a.607.607,0,0,1-.44-.176.592.592,0,0,1-.182-.445.616.616,0,0,1,.622-.627.622.622,0,0,1,.448.179.628.628,0,0,1,0,.888A.616.616,0,0,1,264.332,82.476ZM264.8,90h-.961V84h.961Z" fill="#1e1e1e"/>
      <path d="M269.253,90.14a2.787,2.787,0,0,1-2.124-.84,3.117,3.117,0,0,1-.794-2.23,3.242,3.242,0,0,1,.827-2.361,2.967,2.967,0,0,1,2.232-.85,2.69,2.69,0,0,1,2.095.826,3.277,3.277,0,0,1,.753,2.291,3.224,3.224,0,0,1-.812,2.3A2.843,2.843,0,0,1,269.253,90.14Zm.071-5.472a1.828,1.828,0,0,0-1.465.63,2.587,2.587,0,0,0-.539,1.737,2.445,2.445,0,0,0,.545,1.682,1.851,1.851,0,0,0,1.459.615,1.754,1.754,0,0,0,1.432-.6,2.617,2.617,0,0,0,.5-1.717,2.662,2.662,0,0,0-.5-1.734A1.748,1.748,0,0,0,269.324,84.668Z" fill="#1e1e1e"/>
      <path d="M278.757,90H277.8V86.578q0-1.911-1.394-1.91a1.512,1.512,0,0,0-1.193.542,2.009,2.009,0,0,0-.471,1.368V90h-.961V84h.961v1h.023a2.166,2.166,0,0,1,1.969-1.137,1.836,1.836,0,0,1,1.506.636,2.836,2.836,0,0,1,.521,1.837Z" fill="#1e1e1e"/>
      <path d="M241.377,103.2h-.96v-1.02h-.024a2.218,2.218,0,0,1-2.062,1.161,2.242,2.242,0,0,1-1.808-.806,3.306,3.306,0,0,1-.677-2.194,3.594,3.594,0,0,1,.75-2.385,2.473,2.473,0,0,1,2-.9,1.923,1.923,0,0,1,1.8.973h.024V94.317h.96Zm-.96-2.713V99.6a1.718,1.718,0,0,0-.481-1.23,1.612,1.612,0,0,0-1.219-.5,1.661,1.661,0,0,0-1.383.644,2.833,2.833,0,0,0-.5,1.782,2.54,2.54,0,0,0,.483,1.637,1.578,1.578,0,0,0,1.3.6,1.641,1.641,0,0,0,1.3-.58A2.162,2.162,0,0,0,240.417,100.487Z" fill="#1e1e1e"/>
      <path d="M248.145,100.44h-4.236a2.24,2.24,0,0,0,.539,1.547,1.859,1.859,0,0,0,1.418.545,2.948,2.948,0,0,0,1.863-.668v.9a3.482,3.482,0,0,1-2.092.575,2.538,2.538,0,0,1-2-.818,3.347,3.347,0,0,1-.726-2.3,3.278,3.278,0,0,1,.794-2.282,2.544,2.544,0,0,1,1.971-.882,2.254,2.254,0,0,1,1.822.762,3.175,3.175,0,0,1,.645,2.115Zm-.984-.814a1.953,1.953,0,0,0-.4-1.3,1.365,1.365,0,0,0-1.1-.463,1.555,1.555,0,0,0-1.155.486,2.214,2.214,0,0,0-.586,1.272Z" fill="#1e1e1e"/>
      <path d="M252.381,103.141a1.849,1.849,0,0,1-.9.188q-1.577,0-1.576-1.758V98.02h-1.032V97.2h1.032V95.735l.961-.31V97.2h1.511v.82H250.87V101.4a1.4,1.4,0,0,0,.2.861.816.816,0,0,0,.679.258,1.006,1.006,0,0,0,.627-.2Z" fill="#1e1e1e"/>
      <path d="M258.487,100.44H254.25a2.245,2.245,0,0,0,.54,1.547,1.858,1.858,0,0,0,1.418.545,2.952,2.952,0,0,0,1.863-.668v.9a3.484,3.484,0,0,1-2.092.575,2.535,2.535,0,0,1-2-.818,3.347,3.347,0,0,1-.727-2.3,3.283,3.283,0,0,1,.794-2.282,2.547,2.547,0,0,1,1.972-.882,2.254,2.254,0,0,1,1.822.762,3.175,3.175,0,0,1,.645,2.115Zm-.985-.814a1.947,1.947,0,0,0-.4-1.3,1.367,1.367,0,0,0-1.1-.463,1.553,1.553,0,0,0-1.154.486,2.207,2.207,0,0,0-.586,1.272Z" fill="#1e1e1e"/>
      <path d="M264.03,102.925a3.127,3.127,0,0,1-1.641.416,2.718,2.718,0,0,1-2.071-.835,3.025,3.025,0,0,1-.788-2.165,3.326,3.326,0,0,1,.849-2.382,2.973,2.973,0,0,1,2.268-.9,3.166,3.166,0,0,1,1.395.293v.985a2.442,2.442,0,0,0-1.43-.469,1.935,1.935,0,0,0-1.509.659,2.5,2.5,0,0,0-.589,1.731,2.385,2.385,0,0,0,.554,1.665,1.908,1.908,0,0,0,1.485.609,2.407,2.407,0,0,0,1.477-.522Z" fill="#1e1e1e"/>
      <path d="M268.266,103.141a1.849,1.849,0,0,1-.9.188q-1.577,0-1.577-1.758V98.02h-1.031V97.2h1.031V95.735l.961-.31V97.2h1.512v.82h-1.512V101.4a1.4,1.4,0,0,0,.2.861.82.82,0,0,0,.68.258,1.01,1.01,0,0,0,.627-.2Z" fill="#1e1e1e"/>
      <path d="M270.042,95.676a.61.61,0,0,1-.44-.175.6.6,0,0,1-.182-.446.616.616,0,0,1,.622-.627.622.622,0,0,1,.448.179.628.628,0,0,1,0,.888A.616.616,0,0,1,270.042,95.676Zm.468,7.524h-.961v-6h.961Z" fill="#1e1e1e"/>
      <path d="M274.963,103.341a2.787,2.787,0,0,1-2.124-.841,3.117,3.117,0,0,1-.794-2.23,3.242,3.242,0,0,1,.827-2.361,2.967,2.967,0,0,1,2.232-.85,2.694,2.694,0,0,1,2.1.826,3.277,3.277,0,0,1,.753,2.291,3.224,3.224,0,0,1-.812,2.3A2.844,2.844,0,0,1,274.963,103.341Zm.071-5.473a1.828,1.828,0,0,0-1.465.63,2.583,2.583,0,0,0-.539,1.737,2.444,2.444,0,0,0,.545,1.682,1.851,1.851,0,0,0,1.459.615,1.754,1.754,0,0,0,1.432-.6,2.616,2.616,0,0,0,.5-1.716,2.665,2.665,0,0,0-.5-1.735A1.748,1.748,0,0,0,275.034,97.868Z" fill="#1e1e1e"/>
      <path d="M284.467,103.2h-.961V99.778q0-1.91-1.394-1.91a1.515,1.515,0,0,0-1.193.542,2.009,2.009,0,0,0-.471,1.368V103.2h-.961v-6h.961v1h.023a2.166,2.166,0,0,1,1.969-1.137,1.836,1.836,0,0,1,1.506.636,2.836,2.836,0,0,1,.521,1.837Z" fill="#1e1e1e"/>
    </g>
    <g>
      <path d="M344.091,166.9h-2.077l-.6-1.883H338.4l-.595,1.883h-2.066l3.08-8.462h2.26Zm-3.116-3.346-.909-2.844a3.684,3.684,0,0,1-.141-.761h-.047a3.236,3.236,0,0,1-.149.737l-.919,2.868Z" fill="#1e1e1e"/>
      <path d="M347.053,166.9h-1.906v-8.462h1.906Z" fill="#1e1e1e"/>
      <path d="M354.217,166.9h-1.906v-8.462h1.906Z" fill="#1e1e1e"/>
      <path d="M361.794,166.9h-1.859v-3.358q0-1.4-1-1.405a1,1,0,0,0-.8.373,1.415,1.415,0,0,0-.313.943V166.9h-1.865v-6.043h1.865v.956h.024a2.135,2.135,0,0,1,1.941-1.1q2.007,0,2.007,2.49Z" fill="#1e1e1e"/>
      <path d="M367.211,159.378a1.874,1.874,0,0,0-.69-.141q-.9,0-.9.973v.643H367v1.375h-1.381V166.9h-1.858v-4.668H362.75v-1.375h1.015V160.1a2.173,2.173,0,0,1,.673-1.664,2.563,2.563,0,0,1,1.829-.632,3.234,3.234,0,0,1,.944.118Z" fill="#1e1e1e"/>
      <path d="M373.33,164.405h-3.942q.095,1.317,1.658,1.316a3.237,3.237,0,0,0,1.753-.472V166.6a4.608,4.608,0,0,1-2.178.448,2.813,2.813,0,0,1-3.08-3.074,3.234,3.234,0,0,1,.873-2.384,2.91,2.91,0,0,1,2.149-.879,2.638,2.638,0,0,1,2.043.784,3.021,3.021,0,0,1,.724,2.131Zm-1.729-1.144q0-1.3-1.05-1.3a1.006,1.006,0,0,0-.777.371,1.689,1.689,0,0,0-.4.927Z" fill="#1e1e1e"/>
      <path d="M378.381,162.535a1.613,1.613,0,0,0-.784-.183,1.132,1.132,0,0,0-.951.446,1.941,1.941,0,0,0-.342,1.212V166.9h-1.865v-6.043H376.3v1.121h.024a1.612,1.612,0,0,1,1.593-1.227,1.2,1.2,0,0,1,.46.071Z" fill="#1e1e1e"/>
      <path d="M384.63,164.405h-3.942q.094,1.317,1.659,1.316a3.233,3.233,0,0,0,1.752-.472V166.6a4.606,4.606,0,0,1-2.177.448,2.812,2.812,0,0,1-3.081-3.074,3.231,3.231,0,0,1,.874-2.384,2.909,2.909,0,0,1,2.147-.879,2.642,2.642,0,0,1,2.045.784,3.025,3.025,0,0,1,.723,2.131Zm-1.729-1.144q0-1.3-1.05-1.3a1.008,1.008,0,0,0-.777.371,1.689,1.689,0,0,0-.4.927Z" fill="#1e1e1e"/>
      <path d="M391.576,166.9h-1.859v-3.358q0-1.4-1-1.405a1,1,0,0,0-.8.373,1.415,1.415,0,0,0-.313.943V166.9h-1.865v-6.043H387.6v.956h.024a2.135,2.135,0,0,1,1.941-1.1q2.007,0,2.007,2.49Z" fill="#1e1e1e"/>
      <path d="M397.63,166.677a3.686,3.686,0,0,1-1.823.366,3.08,3.08,0,0,1-2.254-.844,2.911,2.911,0,0,1-.863-2.177,3.209,3.209,0,0,1,.924-2.428,3.413,3.413,0,0,1,2.47-.888,3.165,3.165,0,0,1,1.546.283v1.582a2.122,2.122,0,0,0-1.3-.438,1.719,1.719,0,0,0-1.272.47,1.749,1.749,0,0,0-.469,1.295,1.722,1.722,0,0,0,.448,1.26,1.648,1.648,0,0,0,1.234.457,2.456,2.456,0,0,0,1.363-.437Z" fill="#1e1e1e"/>
      <path d="M404.28,164.405h-3.941q.093,1.317,1.658,1.316a3.233,3.233,0,0,0,1.752-.472V166.6a4.6,4.6,0,0,1-2.177.448,2.813,2.813,0,0,1-3.081-3.074,3.231,3.231,0,0,1,.874-2.384,2.909,2.909,0,0,1,2.148-.879,2.644,2.644,0,0,1,2.045.784,3.029,3.029,0,0,1,.722,2.131Zm-1.728-1.144q0-1.3-1.051-1.3a1,1,0,0,0-.776.371,1.689,1.689,0,0,0-.4.927Z" fill="#1e1e1e"/>
      <path d="M408.328,166.737v-1.511a3.93,3.93,0,0,0,.918.413,3.06,3.06,0,0,0,.864.136,1.872,1.872,0,0,0,.783-.136.439.439,0,0,0,.286-.413.383.383,0,0,0-.13-.295,1.206,1.206,0,0,0-.334-.207,3.776,3.776,0,0,0-.445-.159,4.9,4.9,0,0,1-.466-.16,4.4,4.4,0,0,1-.635-.292,1.839,1.839,0,0,1-.46-.362,1.422,1.422,0,0,1-.283-.478,1.884,1.884,0,0,1-.1-.644,1.651,1.651,0,0,1,.222-.873,1.806,1.806,0,0,1,.59-.6,2.69,2.69,0,0,1,.843-.342,4.4,4.4,0,0,1,.989-.109,5.39,5.39,0,0,1,.814.062,6.138,6.138,0,0,1,.815.179v1.44a3.037,3.037,0,0,0-.759-.31,3.234,3.234,0,0,0-.793-.1,1.744,1.744,0,0,0-.346.033,1.171,1.171,0,0,0-.286.094.531.531,0,0,0-.194.159.364.364,0,0,0-.072.222.409.409,0,0,0,.107.283.889.889,0,0,0,.277.2,2.584,2.584,0,0,0,.381.154c.14.045.278.092.416.139a5.388,5.388,0,0,1,.673.283,2.153,2.153,0,0,1,.516.36,1.444,1.444,0,0,1,.331.484,1.934,1.934,0,0,1-.119,1.579,1.872,1.872,0,0,1-.62.619,2.8,2.8,0,0,1-.89.348,4.928,4.928,0,0,1-1.048.109A5.419,5.419,0,0,1,408.328,166.737Z" fill="#1e1e1e"/>
      <path d="M419.47,164.405h-3.943q.1,1.317,1.659,1.316a3.231,3.231,0,0,0,1.752-.472V166.6a4.6,4.6,0,0,1-2.177.448,2.811,2.811,0,0,1-3.08-3.074,3.234,3.234,0,0,1,.873-2.384,2.909,2.909,0,0,1,2.148-.879,2.639,2.639,0,0,1,2.044.784,3.021,3.021,0,0,1,.724,2.131Zm-1.73-1.144q0-1.3-1.05-1.3a1.006,1.006,0,0,0-.776.371,1.682,1.682,0,0,0-.4.927Z" fill="#1e1e1e"/>
      <path d="M424.521,162.535a1.624,1.624,0,0,0-.786-.183,1.132,1.132,0,0,0-.95.446,1.948,1.948,0,0,0-.342,1.212V166.9h-1.865v-6.043h1.865v1.121h.024a1.613,1.613,0,0,1,1.594-1.227,1.208,1.208,0,0,1,.46.071Z" fill="#1e1e1e"/>
      <path d="M431.625,160.853l-2.248,6.043h-2.124l-2.143-6.043h2l1.05,3.724a5.4,5.4,0,0,1,.207,1.074h.024a6.028,6.028,0,0,1,.218-1.039l1.074-3.759Z" fill="#1e1e1e"/>
      <path d="M433.366,159.9a1.088,1.088,0,0,1-.773-.28.906.906,0,0,1-.3-.688.872.872,0,0,1,.3-.684,1.261,1.261,0,0,1,1.549,0,.872.872,0,0,1,.3.684.9.9,0,0,1-.3.7A1.107,1.107,0,0,1,433.366,159.9Zm.92,7h-1.864v-6.043h1.864Z" fill="#1e1e1e"/>
      <path d="M440.436,166.677a3.69,3.69,0,0,1-1.824.366,3.083,3.083,0,0,1-2.254-.844,2.911,2.911,0,0,1-.862-2.177,3.209,3.209,0,0,1,.924-2.428,3.411,3.411,0,0,1,2.47-.888,3.168,3.168,0,0,1,1.546.283v1.582a2.124,2.124,0,0,0-1.3-.438,1.723,1.723,0,0,0-1.273.47,1.752,1.752,0,0,0-.468,1.295,1.722,1.722,0,0,0,.448,1.26,1.647,1.647,0,0,0,1.233.457,2.459,2.459,0,0,0,1.364-.437Z" fill="#1e1e1e"/>
      <path d="M447.086,164.405h-3.942q.094,1.317,1.658,1.316a3.237,3.237,0,0,0,1.753-.472V166.6a4.608,4.608,0,0,1-2.178.448,2.811,2.811,0,0,1-3.08-3.074,3.234,3.234,0,0,1,.873-2.384,2.909,2.909,0,0,1,2.148-.879,2.639,2.639,0,0,1,2.044.784,3.021,3.021,0,0,1,.724,2.131Zm-1.73-1.144q0-1.3-1.049-1.3a1.006,1.006,0,0,0-.777.371,1.689,1.689,0,0,0-.4.927Z" fill="#1e1e1e"/>
    </g>
  </g>
</svg>
