<svg id="uuid-a3db861f-14ee-4644-b635-1859b256802b" xmlns="http://www.w3.org/2000/svg" width="18" height="18" viewBox="0 0 18 18">
  <defs>
    <linearGradient id="uuid-5164aee9-f3c2-40cf-93c1-ac4198b3a6f1" x1="10.603" y1="2.24" x2="10.603" y2="17.216" gradientUnits="userSpaceOnUse">
      <stop offset=".268" stop-color="#32bedd"/>
      <stop offset="1" stop-color="#198ab3"/>
    </linearGradient>
  </defs>
  <g>
    <path d="m2.334,10.817v-5.411c0-.379.202-.73.531-.92L7.552,1.781c.329-.19.733-.19,1.062,0l.431.249L6.482.472c-.327-.189-.73-.189-1.057,0L.528,3.165c-.327.189-.528.538-.528.915v5.385c0,.378.201.727.528.915l2.271,1.311c-.289-.197-.465-.523-.465-.876Z" fill="#198ab3" stroke-width="0"/>
    <path d="m2.865,11.737l1.751,1.011s-.002-.005-.003-.007l-1.814-1.048c.022.015.043.031.066.044Z" fill="#32bedd" stroke-width="0"/>
    <path d="m10.331,2.772l-1.287-.743,1.241.754c.015-.004.031-.008.046-.011Z" fill="#32bedd" stroke-width="0"/>
    <path d="m4.523,6.842c0-.496.267-.959.697-1.207l4.686-2.706c.12-.069.248-.116.379-.146l-1.241-.754-.431-.249c-.329-.19-.733-.19-1.062,0l-4.686,2.706c-.329.19-.531.54-.531.92v5.411c0,.353.177.679.465.876l1.814,1.048c-.058-.154-.091-.318-.091-.487v-5.411Z" fill="#32bedd" stroke-width="0"/>
  </g>
  <path d="m15.986,5.635l-4.686-2.706c-.296-.171-.641-.221-.968-.157-.148.029-.292.079-.425.157l-4.686,2.706c-.43.248-.697.711-.697,1.207v5.411c0,.172.034.339.094.495.113.295.324.551.609.716l4.914,2.702c.214.124.454.186.695.186.243,0,.486-.063.705-.189l4.446-2.702c.43-.248.697-.711.697-1.207v-5.411c0-.496-.267-.959-.697-1.207Zm-10.434.575l4.686-2.706c.113-.065.239-.098.365-.098s.252.033.365.098l2.827,1.632,1.859,1.073c.007.004.01.013.017.017l-5.034,2.87-5.315-2.658c.061-.09.132-.174.229-.229Zm2.94,8.292l-2.94-1.617c-.225-.13-.365-.372-.365-.632v-4.992l5.065,2.533v5.675l-1.76-.968Zm7.527-2.249c0,.26-.14.502-.371.636l-4.446,2.702c-.047.027-.102.025-.154.041v-5.852l4.971-2.834v5.307Z" fill="#9cebff" stroke-width="0"/>
  <path d="m10.603,8.145c-.754,0-1.365.611-1.365,1.365s.611,1.365,1.365,1.365,1.365-.611,1.365-1.365-.611-1.365-1.365-1.365Zm0-3.668c.691,0,1.251-.56,1.251-1.251s-.56-1.251-1.251-1.251-1.251.56-1.251,1.251.56,1.251,1.251,1.251Zm-5.748,7.217c-.691,0-1.251.56-1.251,1.251s.56,1.251,1.251,1.251,1.251-.56,1.251-1.251-.56-1.251-1.251-1.251Zm11.496-4.145c.691,0,1.251-.56,1.251-1.251s-.56-1.251-1.251-1.251-1.251.56-1.251,1.251.56,1.251,1.251,1.251Zm0,4.055c-.691,0-1.251.56-1.251,1.251s.56,1.251,1.251,1.251,1.251-.56,1.251-1.251-.56-1.251-1.251-1.251Zm-5.748,3.166c-.691,0-1.251.56-1.251,1.251s.56,1.251,1.251,1.251,1.251-.56,1.251-1.251-.56-1.251-1.251-1.251ZM4.855,5.288c-.691,0-1.251.56-1.251,1.251s.56,1.251,1.251,1.251,1.251-.56,1.251-1.251-.56-1.251-1.251-1.251Z" fill="url(#uuid-5164aee9-f3c2-40cf-93c1-ac4198b3a6f1)" stroke-width="0"/>
  <path d="m10.603,1.577c-.909,0-1.649.74-1.649,1.649s.74,1.649,1.649,1.649,1.649-.74,1.649-1.649-.74-1.649-1.649-1.649Zm0,2.9c-.691,0-1.251-.56-1.251-1.251s.56-1.251,1.251-1.251,1.251.56,1.251,1.251-.56,1.251-1.251,1.251Zm-5.748,6.818c-.909,0-1.649.74-1.649,1.649s.74,1.649,1.649,1.649,1.649-.74,1.649-1.649-.74-1.649-1.649-1.649Zm0,2.9c-.691,0-1.251-.56-1.251-1.251s.56-1.251,1.251-1.251,1.251.56,1.251,1.251-.56,1.251-1.251,1.251Zm11.496-2.991c-.909,0-1.649.74-1.649,1.649s.74,1.649,1.649,1.649,1.649-.74,1.649-1.649-.74-1.649-1.649-1.649Zm0,2.9c-.691,0-1.251-.56-1.251-1.251s.56-1.251,1.251-1.251,1.251.56,1.251,1.251-.56,1.251-1.251,1.251ZM4.855,4.89c-.909,0-1.649.74-1.649,1.649s.74,1.649,1.649,1.649,1.649-.74,1.649-1.649-.74-1.649-1.649-1.649Zm0,2.9c-.691,0-1.251-.56-1.251-1.251s.56-1.251,1.251-1.251,1.251.56,1.251,1.251-.56,1.251-1.251,1.251Zm5.748,6.581c-.909,0-1.649.74-1.649,1.649s.74,1.649,1.649,1.649,1.649-.74,1.649-1.649-.74-1.649-1.649-1.649Zm0,2.9c-.691,0-1.251-.56-1.251-1.251s.56-1.251,1.251-1.251,1.251.56,1.251,1.251-.56,1.251-1.251,1.251Zm5.748-9.324c.909,0,1.649-.74,1.649-1.649s-.74-1.649-1.649-1.649-1.649.74-1.649,1.649.74,1.649,1.649,1.649Zm0-2.9c.691,0,1.251.56,1.251,1.251s-.56,1.251-1.251,1.251-1.251-.56-1.251-1.251.56-1.251,1.251-1.251Z" fill="#fff" stroke-width="0"/>
</svg>