<?xml version="1.0" encoding="UTF-8" standalone="no"?>
<!DOCTYPE svg PUBLIC "-//W3C//DTD SVG 1.1//EN" "http://www.w3.org/Graphics/SVG/1.1/DTD/svg11.dtd">
<!-- Generated by Microsoft Visio, SVG Export Service architecture and resilience.svg Page-1 -->
<svg xmlns="http://www.w3.org/2000/svg" xmlns:xlink="http://www.w3.org/1999/xlink" xmlns:ev="http://www.w3.org/2001/xml-events"
		width="5.2742in" height="3.73876in" viewBox="0 0 379.742 269.191" xml:space="preserve" color-interpolation-filters="sRGB"
		class="st8" style="background-color: white">
	<style type="text/css">
	<![CDATA[
		.st1 {fill:#31859b;stroke:#000000;stroke-linecap:round;stroke-linejoin:round;stroke-width:0.75}
		.st2 {fill:#ffffff;font-family:Segoe UI Light;font-size:1.00001em;font-weight:bold}
		.st3 {fill:#dbeef3;stroke:#000000;stroke-linecap:round;stroke-linejoin:round;stroke-width:0.75}
		.st4 {fill:#000000;font-family:Segoe UI Light;font-size:1.00001em;font-weight:bold}
		.st5 {stroke:#b7dde8;stroke-linecap:round;stroke-linejoin:round;stroke-width:6}
		.st6 {fill:none;stroke:none;stroke-linecap:round;stroke-linejoin:round;stroke-width:0.75}
		.st7 {stroke:#31859b;stroke-linecap:round;stroke-linejoin:round;stroke-width:6}
		.st8 {fill:none;fill-rule:evenodd;font-size:12px;overflow:visible;stroke-linecap:square;stroke-miterlimit:3}
	]]>
	</style>

	<g>
		<title>Page-1</title>
		<g id="shape1-1" transform="translate(18.375,-222.469)">
			<title>Sheet.1</title>
			<desc>Web service</desc>
			<rect x="0" y="240.844" width="170.079" height="28.3465" class="st1"/>
			<text x="54.62" y="258.62" class="st2">Web service</text>		</g>
		<g id="shape2-4" transform="translate(18.375,-188.454)">
			<title>Sheet.2</title>
			<desc>Broker service</desc>
			<rect x="0" y="240.844" width="170.079" height="28.3465" class="st1"/>
			<text x="50.09" y="258.62" class="st2">Broker service</text>		</g>
		<g id="shape3-7" transform="translate(18.375,-154.438)">
			<title>Sheet.3</title>
			<desc>Gateway service</desc>
			<rect x="0" y="240.844" width="170.079" height="28.3465" class="st1"/>
			<text x="44.84" y="258.62" class="st2">Gateway service</text>		</g>
		<g id="shape4-10" transform="translate(18.375,-120.422)">
			<title>Sheet.4</title>
			<desc>Resource directory</desc>
			<rect x="0" y="240.844" width="170.079" height="28.3465" class="st1"/>
			<text x="38.29" y="258.62" class="st2">Resource directory</text>		</g>
		<g id="shape5-13" transform="translate(18.375,-86.4065)">
			<title>Sheet.5</title>
			<desc>Geographical database</desc>
			<rect x="0" y="240.844" width="170.079" height="28.3465" class="st1"/>
			<text x="27.21" y="258.62" class="st2">Geographical database</text>		</g>
		<g id="shape6-16" transform="translate(18.375,-52.3907)">
			<title>Sheet.6</title>
			<desc>Session hosts</desc>
			<rect x="0" y="240.844" width="170.079" height="28.3465" class="st3"/>
			<text x="51.86" y="258.62" class="st4">Session hosts</text>		</g>
		<g id="shape7-19" transform="translate(18.375,-18.375)">
			<title>Sheet.7</title>
			<desc>User identities</desc>
			<rect x="0" y="240.844" width="170.079" height="28.3465" class="st3"/>
			<text x="49.91" y="258.62" class="st4">User identities</text>		</g>
		<g id="shape15-22" transform="translate(-43.8868,191.288) rotate(-90) scale(-1,1)">
			<title>Side brace.15</title>
			<path d="M0 255.02 L0 255.02 A14.173 14.173 -180 0 0 14.17 269.19 A14.173 14.173 0 0 1 28.35 283.36 A14.173 14.173 0
						 0 1 42.52 269.19 L42.52 269.19 A14.173 14.173 -180 0 0 56.69 255.02 L56.69 255.02" class="st5"/>
		</g>
		<g id="shape16-25" transform="translate(247.981,-39.5561)">
			<title>Sheet.16</title>
			<desc>Customer-managed</desc>
			<rect x="0" y="249.191" width="113.386" height="20" class="st6"/>
			<text x="6.08" y="262.79" class="st4">Customer-managed</text>		</g>
		<g id="shape10-28" transform="translate(-43.8868,21.2096) rotate(-90) scale(-1,1)">
			<title>Side brace</title>
			<path d="M0 255.02 L0 255.02 A14.173 14.173 -180 0 0 14.17 269.19 L65.2 269.19 A14.173 14.173 0 0 1 79.37 283.36 A14.173
						 14.173 0 0 1 93.54 269.19 L144.57 269.19 A14.173 14.173 -180 0 0 158.74 255.02 L158.74 255.02" class="st7"/>
		</g>
		<g id="shape11-31" transform="translate(247.981,-158.611)">
			<title>Sheet.11</title>
			<desc>Microsoft-managed</desc>
			<rect x="0" y="249.191" width="113.386" height="20" class="st6"/>
			<text x="7.06" y="262.79" class="st4">Microsoft-managed</text>		</g>
	</g>
</svg>
