<svg xmlns="http://www.w3.org/2000/svg" viewBox="0 0 48 48">			<g data-name="Layer 1">				<path fill="none" d="M0 0h48v48H0z"></path>				<path d="M44.8 11.17v28.7a1.12 1.12 0 0 1-1 1.21h-36a1.12 1.12 0 0 1-1-1.21v-28a1.12 1.12 0 0 1 1-1.21h36.58a.46.46 0 0 1 .42.51z" fill="#e2e2e2" fill-opacity=".5"></path>				<path d="M41.61 8v2.6H7.75a1.12 1.12 0 0 0-1 1.2v25.68H4.1A1.11 1.11 0 0 1 3 36.37V8a1.11 1.11 0 0 1 1.1-1.08h36.4A1.1 1.1 0 0 1 41.61 8z" fill="#acacac"></path>				<path fill="#c8c8c8" d="M7.1 33.63h37.55A.36.36 0 0 1 45 34v5.72A1.33 1.33 0 0 1 43.68 41H8.07a1.33 1.33 0 0 1-1.33-1.33V34a.36.36 0 0 1 .36-.37z"></path>				<circle class="has-fill-current-color" cx="25.68" cy="22.67" r="5.25" fill="#0079d6"></circle>				<path d="M24.55 24v-2.85a.21.21 0 0 1 .31-.17l2.67 1.41a.21.21 0 0 1 0 .34l-2.67 1.41a.21.21 0 0 1-.31-.14z" fill="#fff"></path>				<path stroke="#acacac" stroke-miterlimit="10" stroke-width=".94" fill="none" d="M9.93 37.1h31.68"></path>				<path fill="#c8c8c8" d="M44 11.63v28.2a.35.35 0 0 1 0 .2H7.8a.35.35 0 0 1 0-.2v-28a.38.38 0 0 1 0-.2H44m.59-1H7.75a1.12 1.12 0 0 0-1 1.2v28a1.12 1.12 0 0 0 1 1.21H44a1.12 1.12 0 0 0 1-1.21v-28.7a.46.46 0 0 0-.42-.5z"></path>			</g>		</svg>
