<?xml version="1.0" encoding="utf-8"?>
<!-- Generator: Adobe Illustrator 21.1.0, SVG Export Plug-In . SVG Version: 6.00 Build 0)  -->
<svg version="1.1" id="Layer_1" xmlns="http://www.w3.org/2000/svg" xmlns:xlink="http://www.w3.org/1999/xlink" x="0px" y="0px"
	 width="48px" height="48px" viewBox="0 0 48 48" style="enable-background:new 0 0 48 48;" xml:space="preserve">
<style type="text/css">
	.st0{fill:#21BBEE;}
	.st1{opacity:0.8;fill:#FFFFFF;enable-background:new    ;}
</style>
<g>
	<g>
		<polygon class="st0" points="43.9,5.9 39.8,1.9 38.1,0.1 37.9,0.1 8,0.1 8,42.8 45.6,42.8 45.6,7.8 45.6,7.6 		"/>
		<polygon class="st1" points="37.9,1.9 9.7,1.9 9.7,41.1 43.9,41.1 43.9,7.8 41.7,7.8 37.9,7.8 		"/>
	</g>
	<polygon class="st0" points="38.7,11.3 34.6,7.2 32.9,5.5 32.8,5.5 2.8,5.5 2.8,48.1 40.5,48.1 40.5,13.1 40.5,13 	"/>
	<polygon class="st1" points="32.7,7.1 4.5,7.1 4.5,46.4 38.7,46.4 38.7,13.1 36.4,13.1 32.7,13.1 	"/>
	<path class="st0" d="M33,28.7c-1.4,0-2.1,0.8-2.1,2.3v2.7c0,1.7-0.2,2.7-1,3.5c-0.8,0.8-2.3,1-3.9,1V36c0.8,0,1.3-0.2,1.4-0.4
		c0.2-0.2,0.4-1,0.4-1.7v-2.7c0-2.1,0.8-3.3,2.1-3.7l0,0c-1.3-0.4-2.1-1.7-2.1-3.9V21c0-1.4-0.8-2.3-2.1-2.3v-2.2c0.2,0,0.8,0,1,0
		c1.3,0,2.3,0.4,2.9,1c0.8,0.8,1,2.1,1,3.7v2.7c0,1.4,0.8,2.3,2.1,2.3v2.5H33z M17,38.1c-1.7,0-3.3-0.2-3.9-1c-0.8-0.8-1-1.7-1-3.5
		v-2.9c-0.2-1.4-0.8-2.3-2.1-2.3v-2.3c1.3,0,1.7-0.8,1.7-2.5v-2.5c0-1.7,0.2-2.7,1.3-3.5c0.8-1,2.3-1.3,3.9-1.3V19
		c-1.3,0-2.1,0.8-2.1,2.3v2.5c0,2.1-0.8,3.3-2.1,3.7l0,0c1.3,0.4,2.1,1.7,2.1,3.7v2.5c0,0.8,0.2,1.4,0.4,1.7
		c0.2,0.8,0.8,0.8,1.4,0.8v2.1L17,38.1L17,38.1z"/>
</g>
</svg>
