<?xml version="1.0" encoding="UTF-8" standalone="no"?>
<!DOCTYPE svg PUBLIC "-//W3C//DTD SVG 1.1//EN" "http://www.w3.org/Graphics/SVG/1.1/DTD/svg11.dtd">
<!-- Generated by Microsoft Visio, SVG Export asom overview1.svg Page-1 -->
<svg xmlns="http://www.w3.org/2000/svg" xmlns:xlink="http://www.w3.org/1999/xlink" xmlns:ev="http://www.w3.org/2001/xml-events"
		xmlns:v="http://schemas.microsoft.com/visio/2003/SVGExtensions/" width="9.40104in" height="7.66667in"
		viewBox="0 0 676.875 552" xml:space="preserve" color-interpolation-filters="sRGB" class="st21">
	<v:documentProperties v:langID="1033" v:viewMarkup="false"/>

	<style type="text/css">
	<![CDATA[
		.st1 {fill:#ffffff;stroke:none;stroke-linecap:round;stroke-linejoin:round;stroke-width:0.75}
		.st2 {fill:#0070c0;font-family:Segoe UI;font-size:1.16666em}
		.st3 {fill:#ffffff;stroke:#0070c0;stroke-linecap:round;stroke-linejoin:round;stroke-width:0.75}
		.st4 {font-size:1em}
		.st5 {fill:#0078d7;stroke:none;stroke-linecap:butt;stroke-width:0.75}
		.st6 {fill:#0070c0;stroke:none;stroke-linecap:butt;stroke-width:0.75}
		.st7 {fill:#0070c0;stroke:none;stroke-width:0.25}
		.st8 {fill:#ffffff}
		.st9 {fill:#0070c0}
		.st10 {fill:#0070c0;stroke:none;stroke-linecap:round;stroke-linejoin:round;stroke-width:0.75}
		.st11 {fill:none;stroke:#0070c0;stroke-width:1.5}
		.st12 {stroke:#0070c0;stroke-linecap:round;stroke-linejoin:round;stroke-width:1.5}
		.st13 {fill:#ffffff;stroke:#ffffff;stroke-linecap:round;stroke-linejoin:round;stroke-width:0.75}
		.st14 {fill:none;stroke:#0070c0;stroke-linecap:round;stroke-linejoin:round;stroke-width:1.5}
		.st15 {fill:#ffffff;stroke:#0070c0;stroke-linecap:round;stroke-linejoin:round;stroke-width:0.5}
		.st16 {fill:#0070c0;stroke:none;stroke-linecap:round;stroke-linejoin:round;stroke-width:2}
		.st17 {fill:#ffffff;stroke:none;stroke-linecap:round;stroke-linejoin:round;stroke-width:2}
		.st18 {stroke:#0070c0;stroke-width:4}
		.st19 {stroke:#0070c0;stroke-width:0.5}
		.st20 {fill:#ffffff;stroke:none;stroke-linecap:butt;stroke-width:0.772727}
		.st21 {fill:none;fill-rule:evenodd;font-size:12px;overflow:visible;stroke-linecap:square;stroke-miterlimit:3}
	]]>
	</style>

	<g v:mID="0" v:index="1" v:groupContext="foregroundPage">
		<title>Page-1</title>
		<v:pageProperties v:drawingScale="1" v:pageScale="1" v:drawingUnits="19" v:shadowOffsetX="9" v:shadowOffsetY="-9"/>
		<g id="shape1235-1" v:mID="1235" v:groupContext="shape" transform="translate(0.375,-0.375)">
			<title>Sheet.1235</title>
			<rect x="0" y="0.750016" width="676.125" height="551.25" class="st1"/>
		</g>
		<g id="shape1140-3" v:mID="1140" v:groupContext="shape" transform="translate(18.375,-281.048)">
			<title>Sheet.1140</title>
			<desc>Core Monitoring</desc>
			<v:textBlock v:margins="rect(4,4,4,4)"/>
			<v:textRect cx="83.25" cy="539.337" width="166.51" height="25.327"/>
			<rect x="0" y="526.673" width="166.5" height="25.327" rx="4.5" ry="4.5" class="st1"/>
			<text x="4" y="543.54" class="st2" v:langID="1033"><v:paragraph/><v:tabList/>Core Monitoring</text>		</g>
		<g id="shape1175-6" v:mID="1175" v:groupContext="shape" transform="translate(18.375,-126.375)">
			<title>Sheet.1175</title>
			<desc>Shared Capabilities</desc>
			<v:textBlock v:margins="rect(4,4,4,4)"/>
			<v:textRect cx="83.25" cy="539.337" width="166.51" height="25.327"/>
			<rect x="0" y="526.673" width="166.5" height="25.327" rx="4.5" ry="4.5" class="st1"/>
			<text x="4" y="543.54" class="st2" v:langID="1033"><v:paragraph/><v:tabList/>Shared Capabilities</text>		</g>
		<g id="shape1071-9" v:mID="1071" v:groupContext="shape" transform="translate(18.375,-522.375)">
			<title>Sheet.1071</title>
			<desc>Deep Application Monitoring</desc>
			<v:textBlock v:margins="rect(4,4,4,4)"/>
			<v:textRect cx="117" cy="539.337" width="234" height="25.327"/>
			<rect x="0" y="526.673" width="234" height="25.327" rx="4.5" ry="4.5" class="st1"/>
			<text x="27.03" y="543.54" class="st2" v:langID="1033"><v:paragraph v:horizAlign="1"/><v:tabList/>Deep Application Monitoring</text>		</g>
		<g id="shape1176-12" v:mID="1176" v:groupContext="shape" transform="translate(342.375,-522.375)">
			<title>Sheet.1176</title>
			<desc>Deep Infrastructure Monitoring</desc>
			<v:textBlock v:margins="rect(4,4,4,4)"/>
			<v:textRect cx="153" cy="539.337" width="306" height="25.327"/>
			<rect x="0" y="526.673" width="306" height="25.327" rx="4.5" ry="4.5" class="st1"/>
			<text x="56.68" y="543.54" class="st2" v:langID="1033"><v:paragraph v:horizAlign="1"/><v:tabList/>Deep Infrastructure Monitoring</text>		</g>
		<g id="shape1000-15" v:mID="1000" v:groupContext="shape" transform="translate(75.9673,-449.324)">
			<title>Sheet.1000</title>
			<desc>Application Insights</desc>
			<v:textBlock v:margins="rect(4,4,4,4)"/>
			<v:textRect cx="54" cy="525" width="108.01" height="54"/>
			<rect x="0" y="498" width="108" height="54" rx="4.5" ry="4.5" class="st3"/>
			<text x="18.94" y="520.8" class="st2" v:langID="1033"><v:paragraph v:horizAlign="1"/><v:tabList/>Application<v:newlineChar/><tspan
						x="30.08" dy="1.2em" class="st4">Insights</tspan></text>		</g>
		<g id="group1001-19" transform="translate(173.152,-433.426)" v:mID="1001" v:groupContext="group">
			<title>Application Insights.1048</title>
			<g id="shape1002-20" v:mID="1002" v:groupContext="shape" transform="translate(7.60983,-4.58674)">
				<title>Sheet.1002</title>
				<path d="M0 549.86 L6.72 549.86 L6.72 552 L0 552 L0 549.86 Z" class="st5"/>
			</g>
			<g id="shape1003-22" v:mID="1003" v:groupContext="shape" transform="translate(7.60983,0)">
				<title>Sheet.1003</title>
				<path d="M2.08 552 L4.59 552 L6.67 549.76 L0 549.76 L2.08 552 Z" class="st5"/>
			</g>
			<g id="group1004-24" transform="translate(0,-9.06925)" v:mID="1004" v:groupContext="group">
				<title>Sheet.1004</title>
				<g id="shape1005-25" v:mID="1005" v:groupContext="shape" transform="translate(6.828,-9.53834)">
					<title>Sheet.1005</title>
					<path d="M1.09 549.81 C0.52 549.81 0 550.28 0 550.91 C0 551.48 0.52 552 1.09 552 L2.19 552 L2.19 550.91 C2.08
								 550.28 1.67 549.81 1.09 549.81 Z" class="st5"/>
				</g>
				<g id="shape1006-27" v:mID="1006" v:groupContext="shape" transform="translate(12.6135,-9.53834)">
					<title>Sheet.1006</title>
					<path d="M1.09 549.81 C0.52 549.81 0 550.33 0 550.91 L0 552 L1.09 552 C1.67 552 2.19 551.48 2.19 550.91 C2.19
								 550.33 1.72 549.81 1.09 549.81 Z" class="st5"/>
				</g>
				<g id="shape1007-29" v:mID="1007" v:groupContext="shape">
					<title>Sheet.1007</title>
					<path d="M21.21 538.66 L21.21 538.5 C21.21 533.6 17.04 529.59 11.88 529.48 C11.78 529.27 8.81 529.54 8.81 529.54
								 C4.17 530.11 0.52 533.97 0.52 538.45 C0.52 538.55 -0 542.15 3.65 545.12 C5.32 546.58 7.04 550.49
								 7.24 551.64 L7.45 552 L14.18 552 L14.39 551.64 C14.65 550.49 16.42 546.58 17.98 545.17 C21.63 542.15
								 21.21 538.81 21.21 538.66 ZM13.71 543.66 L12.61 543.66 L12.61 551.69 L11.36 551.69 L11.36 543.66
								 L10.27 543.66 L10.27 551.64 L9.02 551.64 L9.02 543.66 L7.92 543.66 C6.67 543.66 5.58 542.57 5.58
								 541.31 C5.58 540.06 6.62 538.97 7.92 538.97 C9.23 538.97 10.27 540.06 10.27 541.31 L10.27 542.41
								 L11.36 542.41 L11.36 541.31 C11.36 540.06 12.46 538.97 13.71 538.97 C14.96 538.97 16.05 540.06 16.05
								 541.31 C16.05 542.62 14.96 543.66 13.71 543.66 Z" class="st5"/>
				</g>
			</g>
		</g>
		<g id="shape1008-31" v:mID="1008" v:groupContext="shape" transform="translate(121.372,-199.207)">
			<title>Sheet.1008</title>
			<desc>Azure Monitor</desc>
			<v:textBlock v:margins="rect(4,4,4,4)"/>
			<v:textRect cx="54" cy="525" width="108.01" height="54"/>
			<rect x="0" y="498" width="108" height="54" rx="4.5" ry="4.5" class="st3"/>
			<text x="36.26" y="520.8" class="st2" v:langID="1033"><v:paragraph v:horizAlign="1"/><v:tabList/>Azure<v:lf/><tspan
						x="29.05" dy="1.2em" class="st4">Monitor</tspan></text>		</g>
		<g id="shape1016-35" v:mID="1016" v:groupContext="shape" transform="translate(341.25,-449.96)">
			<title>Sheet.1016</title>
			<desc>Log Analytics</desc>
			<v:textBlock v:margins="rect(4,4,4,4)"/>
			<v:textRect cx="54" cy="525" width="108.01" height="54"/>
			<rect x="0" y="498" width="108" height="54" rx="4.5" ry="4.5" class="st3"/>
			<text x="42.48" y="520.8" class="st2" v:langID="1033"><v:paragraph v:horizAlign="1"/><v:tabList/>Log<v:lf/><tspan
						x="26.61" dy="1.2em" class="st4">Analytics</tspan></text>		</g>
		<g id="shape1025-39" v:mID="1025" v:groupContext="shape" transform="translate(216.456,-179.861)">
			<title>Sheet.1025</title>
			<v:textBlock v:margins="rect(4,4,4,4)"/>
		</g>
		<g id="shape1028-40" v:mID="1028" v:groupContext="shape" transform="translate(218.713,-186.174)">
			<title>Sheet.1028</title>
			<ellipse cx="12.6635" cy="539.337" rx="12.6635" ry="12.6635" class="st1"/>
		</g>
		<g id="shape1026-42" v:mID="1026" v:groupContext="shape" transform="translate(216.456,-183.916)">
			<title>Sheet.1026</title>
			<path d="M5.08 537.7 C5.24 539.81 6.06 541.9 7.55 543.58 L10.28 540.84 C9.53 539.91 9.09 538.82 8.96 537.7 L5.08 537.7
						 ZM21.42 529.58 C19.73 528.09 17.66 527.26 15.55 527.11 L15.55 530.98 C16.66 531.12 17.75 531.56 18.67 532.31
						 L21.42 529.58 ZM20.38 534.58 L24.46 534.58 C24.09 533.14 23.4 531.76 22.37 530.56 L19.62 533.3 C19.93 533.7
						 20.18 534.13 20.38 534.58 ZM10.22 533.3 L7.48 530.56 C6.01 532.26 5.2 534.34 5.07 536.45 L8.95 536.45 C9.06
						 535.33 9.49 534.23 10.22 533.3 ZM14.92 522.16 C6.68 522.16 0 528.84 0 537.08 C0 545.32 6.68 552 14.92 552
						 C23.16 552 29.84 545.32 29.84 537.08 C29.84 528.84 23.16 522.16 14.92 522.16 ZM14.92 549.49 C8.08 549.49
						 2.51 543.92 2.51 537.08 C2.51 530.23 8.08 524.67 14.92 524.67 C21.77 524.67 27.33 530.23 27.33 537.08 C27.33
						 543.92 21.77 549.49 14.92 549.49 ZM26.42 537.06 C26.41 536.36 25.84 535.8 25.14 535.8 L25.14 535.8 L24.77
						 535.8 L16.24 535.8 C16.24 535.8 16.24 535.8 16.23 535.8 C15.89 535.46 15.45 535.31 15.01 535.31 C14.56 535.31
						 14.11 535.49 13.77 535.83 C13.09 536.52 13.09 537.62 13.78 538.3 C14.12 538.63 14.56 538.8 15 538.8 C15.41
						 538.8 15.82 538.62 16.15 538.34 L25.15 538.34 C25.85 538.33 26.41 537.77 26.42 537.07 L26.42 537.07 C26.42
						 537.07 26.42 537.07 26.42 537.07 C26.42 537.06 26.42 537.06 26.42 537.06 ZM14.3 527.11 C12.19 527.26 10.11
						 528.09 8.42 529.58 L11.17 532.31 C12.09 531.56 13.18 531.12 14.3 530.98 L14.3 527.11 L14.3 527.11 Z"
					class="st6"/>
		</g>
		<g id="shape1029-44" v:mID="1029" v:groupContext="shape" transform="translate(442.5,-445.949)">
			<title>Sheet.1029</title>
			<ellipse cx="10.9688" cy="541.031" rx="10.9688" ry="10.9688" class="st1"/>
		</g>
		<g id="shape1030-46" v:mID="1030" v:groupContext="shape" transform="translate(430.301,-434.136)">
			<title>Sheet.1030</title>
			<ellipse cx="12.0938" cy="539.906" rx="12.0938" ry="12.0938" class="st1"/>
		</g>
		<g id="shape1024-48" v:mID="1024" v:groupContext="shape" transform="translate(430.301,-434.136)">
			<title>Operational Insights.1120</title>
			<path d="M3.69 537.22 L6.16 537.22 L6.16 534.76 L3.69 534.76 L3.69 537.22 ZM3.69 529.83 L6.16 529.83 L6.16 527.61 C5.3
						 528.11 4.43 528.6 3.69 529.21 L3.69 529.83 ZM7.39 544.61 L9.85 544.61 L9.85 542.15 L7.39 542.15 L7.39 544.61
						 ZM7.39 552 L9.85 552 L9.85 549.54 L7.39 549.54 L7.39 552 ZM7.39 540.92 L9.85 540.92 L9.85 538.45 L7.39 538.45
						 L7.39 540.92 ZM7.39 548.31 L9.85 548.31 L9.85 545.84 L7.39 545.84 L7.39 548.31 ZM3.69 544.61 L6.16 544.61
						 L6.16 542.15 L3.69 542.15 L3.69 544.61 ZM3.69 548.31 L6.16 548.31 L6.16 545.84 L3.69 545.84 L3.69 548.31
						 ZM0 540.92 L2.46 540.92 L2.46 538.45 L0 538.45 L0 540.92 ZM0 544.61 L2.46 544.61 L2.46 542.15 L0 542.15
						 L0 544.61 ZM0 537.22 L2.46 537.22 L2.46 534.76 L0 534.76 L0 537.22 ZM0.25 533.53 L2.46 533.53 L2.46 531.06
						 L1.85 531.06 C1.23 531.8 0.74 532.66 0.25 533.53 ZM3.69 550.15 C4.43 550.77 5.3 551.26 6.16 551.75 L6.16
						 549.54 L3.69 549.54 L3.69 550.15 ZM3.69 533.53 L6.16 533.53 L6.16 531.06 L3.69 531.06 L3.69 533.53 ZM22.17
						 548.31 L22.79 548.31 C23.4 547.57 23.89 546.7 24.39 545.84 L22.17 545.84 L22.17 548.31 ZM18.47 544.61 L20.94
						 544.61 L20.94 542.15 L18.47 542.15 L18.47 544.61 ZM18.47 551.75 C19.34 551.26 20.2 550.77 20.94 550.15 L20.94
						 549.54 L18.47 549.54 L18.47 551.75 ZM18.47 548.31 L20.94 548.31 L20.94 545.84 L18.47 545.84 L18.47 548.31
						 ZM7.39 537.22 L9.85 537.22 L9.85 534.76 L7.39 534.76 L7.39 537.22 ZM24.02 515.05 C16.87 515.05 11.08 520.84
						 11.08 527.98 C11.08 531.8 11.08 540.92 11.08 540.92 C11.08 540.92 20.69 540.92 24.02 540.92 C31.16 540.92
						 36.95 535.13 36.95 527.98 C36.95 520.84 31.16 515.05 24.02 515.05 ZM19.71 533.53 L17.24 533.53 L17.24 526.14
						 L19.71 526.14 L19.71 533.53 ZM24.63 533.53 L22.17 533.53 L22.17 528.6 L24.63 528.6 L24.63 533.53 ZM29.56
						 533.53 L27.1 533.53 L27.1 523.67 L29.56 523.67 L29.56 533.53 ZM22.17 544.61 L24.63 544.61 L24.63 542.15
						 L22.17 542.15 L22.17 544.61 ZM7.39 529.83 L9.85 529.83 L9.85 527.37 L7.39 527.37 L7.39 529.83 ZM14.78 548.31
						 L17.24 548.31 L17.24 545.84 L14.78 545.84 L14.78 548.31 ZM11.08 548.31 L13.55 548.31 L13.55 545.84 L11.08
						 545.84 L11.08 548.31 ZM11.08 544.61 L13.55 544.61 L13.55 542.15 L11.08 542.15 L11.08 544.61 ZM14.78 552
						 L17.24 552 L17.24 549.54 L14.78 549.54 L14.78 552 Z" class="st7"/>
		</g>
		<g id="shape1031-50" v:mID="1031" v:groupContext="shape" transform="translate(485.25,-360.633)">
			<title>Sheet.1031</title>
			<desc>Service Map</desc>
			<v:textBlock v:margins="rect(4,4,4,4)"/>
			<v:textRect cx="54" cy="525" width="108.01" height="54"/>
			<rect x="0" y="498" width="108" height="54" rx="4.5" ry="4.5" class="st3"/>
			<text x="32.24" y="520.8" class="st2" v:langID="1033"><v:paragraph v:horizAlign="1"/><v:tabList/>Service<v:lf/><tspan
						x="40.04" dy="1.2em" class="st4">Map</tspan></text>		</g>
		<g id="group1032-54" transform="translate(580.875,-344.496)" v:mID="1032" v:groupContext="group">
			<title>Dependency Monitor</title>
			<g id="group1033-55" v:mID="1033" v:groupContext="group">
				<title>Sheet.1033</title>
				<g id="group1034-56" v:mID="1034" v:groupContext="group">
					<title>Sheet.1034</title>
					<g id="shape1035-57" v:mID="1035" v:groupContext="shape">
						<title>Sheet.1035</title>
						<path d="M38.69 526.92 L31.8 526.92 C30.85 526.92 30.16 527.96 30.16 528.91 L30.16 530.37 L16.54 530.37 L24.3
									 522.62 L30.94 522.62 C31.88 522.62 32.74 522.1 32.74 521.15 L32.74 514.26 C32.74 513.31 31.88
									 512.28 30.94 512.28 L24.04 512.28 C23.09 512.28 22.4 513.31 22.4 514.26 L22.4 520.03 L14.65
									 527.87 L14.65 520.98 C14.65 519.51 13.61 518.31 12.15 518.31 L2.33 518.31 C0.95 518.31 0 519.6
									 0 520.98 L0 547.61 L14.65 547.61 L14.65 536.92 L22.4 544.76 L22.4 550.54 C22.4 551.48 23.09
									 552 24.04 552 L30.94 552 C31.88 552 32.74 551.48 32.74 550.54 L32.74 543.64 C32.74 542.69 31.88
									 541.66 30.94 541.66 L24.3 541.66 L16.54 533.9 L30.16 533.9 L30.16 535.89 C30.16 536.83 30.85
									 537.35 31.8 537.35 L38.69 537.35 C39.64 537.35 40.5 536.83 40.5 535.89 L40.5 528.99 C40.5 527.96
									 39.64 526.92 38.69 526.92 Z" class="st8"/>
					</g>
					<g id="group1036-60" transform="translate(0.861702,-0.947872)" v:mID="1036" v:groupContext="group">
						<title>Sheet.1036</title>
					</g>
				</g>
			</g>
			<g id="shape1037-61" v:mID="1037" v:groupContext="shape" transform="translate(0.861702,-0.947872)">
				<title>Sheet.1037</title>
				<path d="M37.91 537.35 C38.43 537.35 38.78 537.01 38.78 536.49 L38.78 529.6 C38.78 529.08 38.43 528.73 37.91 528.73
							 L31.02 528.73 C30.5 528.73 30.16 529.08 30.16 529.6 L30.16 532.18 L13.7 532.18 L23.29 522.7 L30.16 522.7
							 C30.68 522.7 31.02 522.36 31.02 521.84 L31.02 514.95 C31.02 514.43 30.68 514.09 30.16 514.09 L23.27
							 514.09 C22.75 514.09 22.4 514.43 22.4 514.95 L22.4 521.24 L12.93 530.72 L12.93 521.67 C12.93 520.89
							 12.49 520.12 11.37 520.12 L1.55 520.12 C0.78 520.12 0 520.55 0 521.67 L0 547.69 L12.93 547.69 L12.93
							 535.54 L22.4 545.02 L22.4 551.14 C22.4 551.66 22.75 552 23.27 552 L30.16 552 C30.68 552 31.02 551.66
							 31.02 551.14 L31.02 544.24 C31.02 543.73 30.68 543.38 30.16 543.38 L23.27 543.38 C23.24 543.38 23.21
							 543.38 23.18 543.39 L13.7 533.9 L30.16 533.9 L30.16 536.49 C30.16 537.01 30.5 537.35 31.02 537.35 L37.91
							 537.35 ZM11.2 542.52 L11.2 544.24 L2.59 544.24 L2.59 542.52 L11.2 542.52 ZM11.2 538.21 L11.2 539.94
							 L2.59 539.94 L2.59 538.21 L11.2 538.21 ZM10.34 523.56 L10.34 525.29 L2.59 525.29 L2.59 523.56 L10.34
							 523.56 Z" class="st9"/>
			</g>
		</g>
		<g id="shape1038-64" v:mID="1038" v:groupContext="shape" transform="translate(341.25,-361.721)">
			<title>Sheet.1038</title>
			<desc>Network Monitoring</desc>
			<v:textBlock v:margins="rect(4,4,4,4)"/>
			<v:textRect cx="54" cy="525" width="108.01" height="54"/>
			<rect x="0" y="498" width="108" height="54" rx="4.5" ry="4.5" class="st3"/>
			<text x="27.66" y="520.8" class="st2" v:langID="1033"><v:paragraph v:horizAlign="1"/><v:tabList/>Network<v:lf/><tspan
						x="19.27" dy="1.2em" class="st4">Monitoring</tspan></text>		</g>
		<g id="shape1039-68" v:mID="1039" v:groupContext="shape" transform="translate(485.25,-451.048)">
			<title>Sheet.1039</title>
			<desc>Management Solutions</desc>
			<v:textBlock v:margins="rect(4,4,4,4)"/>
			<v:textRect cx="54" cy="525" width="108.01" height="54"/>
			<rect x="0" y="498" width="108" height="54" rx="4.5" ry="4.5" class="st3"/>
			<text x="12.82" y="520.8" class="st2" v:langID="1033"><v:paragraph v:horizAlign="1"/><v:tabList/>Management<v:lf/><tspan
						x="25.42" dy="1.2em" class="st4">Solutions</tspan></text>		</g>
		<g id="shape1041-72" v:mID="1041" v:groupContext="shape" transform="translate(436.334,-342.375)">
			<title>Sheet.1041</title>
			<v:textBlock v:margins="rect(4,4,4,4)"/>
		</g>
		<g id="group1044-73" transform="translate(581.525,-439.235)" v:mID="1044" v:groupContext="group">
			<title>Sheet.1044</title>
			<g id="shape1045-74" v:mID="1045" v:groupContext="shape" transform="translate(1.8785E-13,-0.063662)">
				<title>Sheet.1045</title>
				<rect x="0" y="526.02" width="26.1725" height="25.98" class="st1"/>
			</g>
			<g id="group1046-76" v:mID="1046" v:groupContext="group">
				<title>Sheet.1046</title>
				<g id="shape1047-77" v:mID="1047" v:groupContext="shape">
					<title>Sheet.1047</title>
					<rect x="0" y="539.828" width="12.1716" height="12.1716" class="st10"/>
				</g>
				<g id="shape1048-79" v:mID="1048" v:groupContext="shape" transform="translate(13.9104,0)">
					<title>Sheet.1048</title>
					<rect x="0" y="539.828" width="12.1716" height="12.1716" class="st10"/>
				</g>
				<g id="shape1049-81" v:mID="1049" v:groupContext="shape" transform="translate(0,-13.9104)">
					<title>Sheet.1049</title>
					<rect x="0" y="539.828" width="12.1716" height="12.1716" class="st10"/>
				</g>
				<g id="shape1050-83" v:mID="1050" v:groupContext="shape" transform="translate(13.9104,-13.9104)">
					<title>Sheet.1050</title>
					<rect x="0" y="539.828" width="12.1716" height="12.1716" class="st10"/>
				</g>
				<g id="shape1051-85" v:mID="1051" v:groupContext="shape" transform="translate(13.9104,-13.9104)">
					<title>Sheet.1051</title>
					<ellipse cx="11.5195" cy="540.48" rx="11.5195" ry="11.5195" class="st10"/>
				</g>
				<g id="shape1052-87" v:mID="1052" v:groupContext="shape" transform="translate(15.7578,-15.6492)">
					<title>Sheet.1052</title>
					<ellipse cx="1.68446" cy="550.316" rx="1.68446" ry="1.68446" class="st1"/>
				</g>
				<g id="shape1053-89" v:mID="1053" v:groupContext="shape" transform="translate(29.5595,-29.6682)">
					<title>Sheet.1053</title>
					<ellipse cx="1.68446" cy="550.316" rx="1.68446" ry="1.68446" class="st1"/>
				</g>
				<g id="shape1054-91" v:mID="1054" v:groupContext="shape" transform="translate(26.1906,-19.9961)">
					<title>Sheet.1054</title>
					<ellipse cx="1.68446" cy="550.316" rx="1.68446" ry="1.68446" class="st1"/>
				</g>
				<g id="shape1055-93" v:mID="1055" v:groupContext="shape" transform="translate(19.3984,-25.4438)">
					<title>Sheet.1055</title>
					<ellipse cx="1.68446" cy="550.316" rx="1.68446" ry="1.68446" class="st1"/>
				</g>
				<g id="shape1056-95" v:mID="1056" v:groupContext="shape" transform="translate(205.776,16.2101) rotate(20)">
					<title>Sheet.1056</title>
					<rect x="0" y="540.569" width="0.869398" height="11.4305" class="st1"/>
				</g>
				<g id="shape1057-97" v:mID="1057" v:groupContext="shape" transform="translate(-395.062,176.211) rotate(-50)">
					<title>Sheet.1057</title>
					<rect x="0" y="543.393" width="0.869398" height="8.6066" class="st1"/>
				</g>
				<g id="shape1058-99" v:mID="1058" v:groupContext="shape" transform="translate(215.991,12.0219) rotate(20)">
					<title>Sheet.1058</title>
					<rect x="0" y="540.569" width="0.869398" height="11.4305" class="st1"/>
				</g>
			</g>
		</g>
		<g id="shape1069-101" v:mID="1069" v:groupContext="shape" transform="translate(439.588,-359.272)">
			<title>Sheet.1069</title>
			<ellipse cx="10.2247" cy="541.775" rx="10.2247" ry="10.2247" class="st1"/>
		</g>
		<g id="group1059-103" transform="translate(429.463,-348.806)" v:mID="1059" v:groupContext="group">
			<title>Sheet.1059</title>
			<g id="shape1060-104" v:mID="1060" v:groupContext="shape">
				<title>Log Search.1021</title>
				<path d="M16.64 539.27 L17.72 539.27 L17.72 534.54 L16.64 534.54 L16.64 539.27 ZM14.35 539.31 L15.42 539.31 L15.42
							 536.91 L14.35 536.91 L14.35 539.31 ZM12.05 539.31 L13.13 539.31 L13.13 535.69 L12.05 535.69 L12.05 539.31
							 ZM14.96 542.79 C11.8 542.82 9.26 540.28 9.26 537.09 C9.26 533.82 11.66 531.42 14.92 531.42 C18.11 531.46
							 20.48 533.75 20.51 536.98 C20.59 540.2 18.15 542.75 14.96 542.79 ZM22.16 533.93 C20.84 530.78 18.29
							 529.31 14.85 529.06 C14.35 529.13 13.74 529.16 13.13 529.31 C8.18 530.42 5.71 535.4 7.57 540.31 C7.9
							 541.17 8.68 542.07 7.32 542.75 C4.56 544.11 2.84 546.66 0.73 548.77 C-0.06 549.56 -0.35 550.6 0.58 551.5
							 C1.44 552.32 2.41 552.03 3.16 551.35 C5.03 549.6 7.21 547.95 8.54 545.8 C9.72 543.9 10.55 543.93 12.38
							 544.61 C15.53 545.8 18.47 545.01 20.76 542.53 C22.99 539.99 23.49 537.01 22.16 533.93 Z" class="st9"/>
			</g>
			<g id="group1061-107" transform="translate(10.5549,-10.896)" v:mID="1061" v:groupContext="group">
				<title>Sheet.1061</title>
				<g id="shape1062-108" v:mID="1062" v:groupContext="shape">
					<title>Sheet.1062</title>
					<ellipse cx="10.0093" cy="541.991" rx="10.0093" ry="10.0093" class="st11"/>
				</g>
				<g id="shape1063-110" v:mID="1063" v:groupContext="shape" transform="translate(0.000781888,-9.88424)">
					<title>Sheet.1063</title>
					<path d="M0 552 L20.02 552" class="st12"/>
				</g>
				<g id="shape1064-113" v:mID="1064" v:groupContext="shape"
						transform="translate(-0.893594,-15.6211) rotate(-0.413242)">
					<title>Sheet.1064</title>
					<path d="M-0 550.41 A12.8469 10.2433 -180 0 0 13.76 550.41" class="st12"/>
				</g>
				<g id="shape1065-116" v:mID="1065" v:groupContext="shape"
						transform="translate(-0.483322,1099.2) rotate(0.413242) scale(1,-1)">
					<title>Sheet.1065</title>
					<path d="M-0 550.41 A12.8469 10.2433 -180 0 0 13.76 550.41" class="st12"/>
				</g>
				<g id="shape1066-119" v:mID="1066" v:groupContext="shape" transform="translate(-537.462,546.264) rotate(-89.4056)">
					<title>Sheet.1066</title>
					<path d="M0 548.46 A18.5825 22.7726 -180 0 0 19.91 548.46" class="st12"/>
				</g>
				<g id="shape1067-122" v:mID="1067" v:groupContext="shape"
						transform="translate(557.518,546.268) rotate(89.4056) scale(-1,1)">
					<title>Sheet.1067</title>
					<path d="M0 548.46 A18.5825 22.7726 -180 0 0 19.91 548.46" class="st12"/>
				</g>
			</g>
			<g id="shape1068-125" v:mID="1068" v:groupContext="shape" transform="translate(9.3365,-9.43761)">
				<title>Sheet.1068</title>
				<ellipse cx="5.56455" cy="546.435" rx="5.56455" ry="5.56455" class="st13"/>
			</g>
		</g>
		<g id="shape1070-127" v:mID="1070" v:groupContext="shape" transform="translate(297.375,-324.375)">
			<title>Sheet.1070</title>
			<rect x="0" y="354" width="351" height="198" rx="4.5" ry="4.5" class="st14"/>
		</g>
		<g id="shape1072-129" v:mID="1072" v:groupContext="shape" transform="translate(18.375,-173.048)">
			<title>Sheet.1072</title>
			<rect x="0" y="444" width="630" height="108" rx="4.5" ry="4.5" class="st14"/>
		</g>
		<g id="shape1141-131" v:mID="1141" v:groupContext="shape" transform="translate(18.375,-18.375)">
			<title>Sheet.1141</title>
			<rect x="0" y="444" width="630" height="108" rx="4.5" ry="4.5" class="st14"/>
		</g>
		<g id="shape1142-133" v:mID="1142" v:groupContext="shape" transform="translate(54.375,-54.375)">
			<title>Sheet.1142</title>
			<desc>Alerts</desc>
			<v:textBlock v:margins="rect(4,4,4,4)"/>
			<v:textRect cx="54" cy="525" width="108.01" height="54"/>
			<rect x="0" y="498" width="108" height="54" rx="4.5" ry="4.5" class="st3"/>
			<text x="36.35" y="529.2" class="st2" v:langID="1033"><v:paragraph v:horizAlign="1"/><v:tabList/>Alerts</text>		</g>
		<g id="shape1150-136" v:mID="1150" v:groupContext="shape" transform="translate(198.375,-53.3236)">
			<title>Sheet.1150</title>
			<desc>Dashboards</desc>
			<v:textBlock v:margins="rect(4,4,4,4)"/>
			<v:textRect cx="54" cy="525" width="108.01" height="54"/>
			<rect x="0" y="498" width="108" height="54" rx="4.5" ry="4.5" class="st3"/>
			<text x="17.29" y="529.2" class="st2" v:langID="1033"><v:paragraph v:horizAlign="1"/><v:tabList/>Dashboards</text>		</g>
		<g id="shape1151-139" v:mID="1151" v:groupContext="shape" transform="translate(342.375,-53.3236)">
			<title>Sheet.1151</title>
			<desc>Metrics Explorer</desc>
			<v:textBlock v:margins="rect(4,4,4,4)"/>
			<v:textRect cx="54" cy="525" width="108.01" height="54"/>
			<rect x="0" y="498" width="108" height="54" rx="4.5" ry="4.5" class="st3"/>
			<text x="31.35" y="520.8" class="st2" v:langID="1033"><v:paragraph v:horizAlign="1"/><v:tabList/>Metrics <v:lf/><tspan
						x="28.81" dy="1.2em" class="st4">Explorer</tspan></text>		</g>
		<g id="shape1153-143" v:mID="1153" v:groupContext="shape" transform="translate(293.459,-33.9777)">
			<title>Sheet.1153</title>
			<v:textBlock v:margins="rect(4,4,4,4)"/>
		</g>
		<g id="shape1177-144" v:mID="1177" v:groupContext="shape" transform="translate(18.375,-324.375)">
			<title>Sheet.1177</title>
			<rect x="0" y="354" width="234" height="198" rx="4.5" ry="4.5" class="st14"/>
		</g>
		<g id="shape1178-146" v:mID="1178" v:groupContext="shape" transform="translate(283.372,-199.207)">
			<title>Sheet.1178</title>
			<desc>Advisor</desc>
			<v:textBlock v:margins="rect(4,4,4,4)"/>
			<v:textRect cx="54" cy="525" width="108.01" height="54"/>
			<rect x="0" y="498" width="108" height="54" rx="4.5" ry="4.5" class="st3"/>
			<text x="30.81" y="529.2" class="st2" v:langID="1033"><v:paragraph v:horizAlign="1"/><v:tabList/>Advisor</text>		</g>
		<g id="shape1179-149" v:mID="1179" v:groupContext="shape" transform="translate(445.372,-199.207)">
			<title>Sheet.1179</title>
			<desc>Service Health</desc>
			<v:textBlock v:margins="rect(4,4,4,4)"/>
			<v:textRect cx="54" cy="525" width="108.01" height="54"/>
			<rect x="0" y="498" width="108" height="54" rx="4.5" ry="4.5" class="st3"/>
			<text x="32.24" y="520.8" class="st2" v:langID="1033"><v:paragraph v:horizAlign="1"/><v:tabList/>Service<v:lf/><tspan
						x="33.78" dy="1.2em" class="st4">Health</tspan></text>		</g>
		<g id="shape1180-153" v:mID="1180" v:groupContext="shape" transform="translate(486.375,-53.3236)">
			<title>Sheet.1180</title>
			<desc>Activity Log</desc>
			<v:textBlock v:margins="rect(4,4,4,4)"/>
			<v:textRect cx="54" cy="525" width="108.01" height="54"/>
			<rect x="0" y="498" width="108" height="54" rx="4.5" ry="4.5" class="st3"/>
			<text x="31.38" y="520.8" class="st2" v:langID="1033"><v:paragraph v:horizAlign="1"/><v:tabList/>Activity<v:lf/><tspan
						x="42.48" dy="1.2em" class="st4">Log</tspan></text>		</g>
		<g id="group1200-157" transform="translate(579.707,-38.0335)" v:mID="1200" v:groupContext="group">
			<title>Sheet.1200</title>
			<g id="shape1201-158" v:mID="1201" v:groupContext="shape">
				<title>Sheet.1201</title>
				<rect x="0" y="516.478" width="29.9664" height="35.5219" class="st15"/>
			</g>
			<g id="shape1202-160" v:mID="1202" v:groupContext="shape" transform="translate(0,-0.256328)">
				<title>Sheet.1202</title>
				<rect x="0" y="518.037" width="28.6878" height="33.9628" class="st16"/>
			</g>
			<g id="shape1203-162" v:mID="1203" v:groupContext="shape" transform="translate(7.17196,-19.9313)">
				<title>Sheet.1203</title>
				<rect x="0" y="543.099" width="14.3439" height="8.90058" class="st17"/>
			</g>
		</g>
		<g id="group1204-164" transform="translate(435.088,-39.4912)" v:mID="1204" v:groupContext="group">
			<title>Sheet.1204</title>
			<g id="shape1205-165" v:mID="1205" v:groupContext="shape">
				<title>Sheet.1205</title>
				<rect x="0" y="525.078" width="30.5744" height="26.9224" class="st13"/>
			</g>
			<g id="group1206-167" transform="translate(0.849293,-2.84512)" v:mID="1206" v:groupContext="group">
				<title>Sheet.1206</title>
				<g id="shape1207-168" v:mID="1207" v:groupContext="shape" transform="translate(554.251,540.845) rotate(90)">
					<title>Sheet.1207</title>
					<path d="M0 552 L11.1 552" class="st18"/>
				</g>
				<g id="shape1208-171" v:mID="1208" v:groupContext="shape" transform="translate(562.404,535.354) rotate(90)">
					<title>Sheet.1208</title>
					<path d="M0 552 L16.65 552" class="st18"/>
				</g>
				<g id="shape1209-174" v:mID="1209" v:groupContext="shape" transform="translate(570.557,543.677) rotate(90)">
					<title>Sheet.1209</title>
					<path d="M0 552 L8.32 552" class="st18"/>
				</g>
				<g id="shape1210-177" v:mID="1210" v:groupContext="shape" transform="translate(578.71,538.013) rotate(90)">
					<title>Sheet.1210</title>
					<path d="M0 552 L13.87 552" class="st18"/>
				</g>
				<g id="shape1211-180" v:mID="1211" v:groupContext="shape" transform="translate(2.89768E-14,-16.638)">
					<title>Sheet.1211</title>
					<ellipse cx="2.25061" cy="549.749" rx="2.25061" ry="2.25061" class="st10"/>
				</g>
				<g id="shape1212-182" v:mID="1212" v:groupContext="shape" transform="translate(421.058,158.093) rotate(48.0397)">
					<title>Sheet.1212</title>
					<path d="M0 552 L11.92 552" class="st19"/>
				</g>
				<g id="shape1213-185" v:mID="1213" v:groupContext="shape" transform="translate(-331.52,93.3561) rotate(-37.2694)">
					<title>Sheet.1213</title>
					<path d="M0 552 L8.98 552" class="st19"/>
				</g>
				<g id="shape1214-188" v:mID="1214" v:groupContext="shape" transform="translate(-300.509,85.5879) rotate(-35.3112)">
					<title>Sheet.1214</title>
					<path d="M0 552 L9.99 552" class="st19"/>
				</g>
				<g id="shape1215-191" v:mID="1215" v:groupContext="shape" transform="translate(8.15317,-22.4212)">
					<title>Sheet.1215</title>
					<ellipse cx="2.25061" cy="549.749" rx="2.25061" ry="2.25061" class="st10"/>
				</g>
				<g id="shape1216-193" v:mID="1216" v:groupContext="shape" transform="translate(16.3063,-13.9283)">
					<title>Sheet.1216</title>
					<ellipse cx="2.25061" cy="549.749" rx="2.25061" ry="2.25061" class="st10"/>
				</g>
				<g id="shape1217-195" v:mID="1217" v:groupContext="shape" transform="translate(24.4595,-19.3638)">
					<title>Sheet.1217</title>
					<ellipse cx="2.25061" cy="549.749" rx="2.25061" ry="2.25061" class="st10"/>
				</g>
			</g>
		</g>
		<g id="shape1223-197" v:mID="1223" v:groupContext="shape" transform="translate(382.372,-191.111)">
			<title>Sheet.1223</title>
			<ellipse cx="7.875" cy="544.125" rx="7.875" ry="7.875" class="st1"/>
		</g>
		<g id="group1218-199" transform="translate(373.372,-182.574)" v:mID="1218" v:groupContext="group">
			<title>Azure Advisor.1218</title>
			<g id="shape1219-200" v:mID="1219" v:groupContext="shape">
				<title>Sheet.1219</title>
				<path d="M27.03 533.41 L26.54 533.41 C26.72 532.62 26.91 531.76 26.91 530.9 C26.91 525.64 22.69 521.43 17.43 521.43
							 C13.33 521.43 9.78 524.12 8.56 527.97 C7.89 527.79 7.22 527.6 6.48 527.6 C2.87 527.54 0 530.41 0 534.08
							 C0 537.75 2.87 540.63 6.42 540.63 L11.07 540.63 C10.58 539.59 10.27 538.42 10.27 537.2 C10.27 532.92
							 13.76 529.5 17.98 529.5 C22.2 529.5 25.68 532.92 25.68 537.14 C25.68 538.36 25.38 539.53 24.89 540.57
							 L27.33 540.57 C29.17 540.38 30.57 538.85 30.57 536.9 C30.57 534.94 28.92 533.41 27.03 533.41 ZM17.98
							 544.91 C16.63 544.91 15.29 544.54 14.19 543.93 L13.76 552 L17.92 547.78 L22.07 552 L21.71 543.87 C20.61
							 544.54 19.32 544.91 17.98 544.91 ZM17.98 530.66 C14.37 530.66 11.5 533.59 11.5 537.14 C11.5 540.75 14.43
							 543.62 17.98 543.62 C21.52 543.62 24.46 540.75 24.46 537.14 C24.46 533.53 21.52 530.66 17.98 530.66
							 Z" class="st6"/>
			</g>
		</g>
		<g id="shape1225-202" v:mID="1225" v:groupContext="shape" transform="translate(539.872,-188.861)">
			<title>Sheet.1225</title>
			<rect x="0" y="535.125" width="16.875" height="16.875" class="st1"/>
		</g>
		<g id="shape1224-204" v:mID="1224" v:groupContext="shape" transform="translate(537.622,-184.361)">
			<title>Health monitoring.1224</title>
			<path d="M30.63 525.94 C27.31 522.35 20.53 523.87 16.57 529.46 C11.58 523.47 5.62 522.34 2.31 525.94 C-1.06 529.58 -0.28
						 533.86 1.72 537.38 L7.14 537.38 L10.51 530.91 C10.83 530.3 11.52 529.97 12.19 530.1 C12.87 530.23 13.38
						 530.79 13.45 531.48 L14.28 540.03 L15.16 538.33 C15.43 537.81 15.96 537.48 16.55 537.48 L26.87 537.48 C27.73
						 537.48 28.43 538.18 28.43 539.04 C28.43 539.9 27.73 540.6 26.87 540.6 L17.5 540.6 L14.64 546.17 C14.37 546.7
						 13.83 547.02 13.25 547.02 C13.15 547.02 13.06 547.01 12.96 546.99 C12.28 546.86 11.77 546.3 11.7 545.61
						 L10.85 537 L9.47 539.66 C9.2 540.17 8.66 540.5 8.08 540.5 L3.71 540.5 C8.22 546.43 13.79 551.1 16.39 552
						 C20.33 550.39 39.9 535.97 30.63 525.94 Z" class="st6"/>
		</g>
		<g id="group1226-206" transform="translate(284.513,-38.625)" v:mID="1226" v:groupContext="group">
			<title>Dashboard.1151</title>
			<g id="group1227-207" v:mID="1227" v:groupContext="group">
				<title>Sheet.1227</title>
				<g id="shape1228-208" v:mID="1228" v:groupContext="shape">
					<title>Sheet.1228</title>
					<path d="M31.58 552 L2.11 552 C0.91 552 0 551.09 0 549.89 L0 526.03 C0 524.84 0.91 523.93 2.11 523.93 L31.58
								 523.93 C32.77 523.93 33.68 524.84 33.68 526.03 L33.68 549.89 C33.68 551.09 32.77 552 31.58 552 Z"
							class="st20"/>
				</g>
				<g id="shape1229-210" v:mID="1229" v:groupContext="shape" transform="translate(0.701762,-0.701762)">
					<title>Sheet.1229</title>
					<path d="M30.88 552 L1.4 552 C0.63 552 0 551.37 0 550.6 L0 526.74 C0 525.96 0.63 525.33 1.4 525.33 L30.88 525.33
								 C31.65 525.33 32.28 525.96 32.28 526.74 L32.28 550.6 C32.28 551.37 31.65 552 30.88 552 ZM30.18 529.54
								 L2.11 529.54 L2.11 549.89 L30.18 549.89 L30.18 529.54 ZM15.44 544.98 L4.21 544.98 L4.21 533.75 L15.44
								 533.75 L15.44 544.98 ZM21.75 538.67 L16.84 538.67 L16.84 533.75 L21.75 533.75 L21.75 538.67 ZM21.75
								 544.98 L16.84 544.98 L16.84 540.07 L21.75 540.07 L21.75 544.98 ZM28.07 538.67 L23.16 538.67 L23.16
								 533.75 L28.07 533.75 L28.07 538.67 ZM28.07 544.98 L23.16 544.98 L23.16 540.07 L28.07 540.07 L28.07
								 544.98 Z" class="st9"/>
				</g>
			</g>
		</g>
		<g id="group1230-213" transform="translate(148,-39.1477)" v:mID="1230" v:groupContext="group">
			<title>Alerts.1230</title>
			<g id="group1231-214" v:mID="1231" v:groupContext="group">
				<title>Sheet.1231</title>
				<g id="shape1232-215" v:mID="1232" v:groupContext="shape">
					<title>Sheet.1232</title>
					<path d="M26.81 542.11 L26.66 541.95 C26.66 541.95 24.96 540.8 24.19 538.01 C23.72 536.24 23.57 535.62 23.49
								 535.46 C23.1 527.12 20.86 522.4 17 521.32 C17 521.25 17 521.25 17 521.17 C17 520.01 16.15 518.77
								 14.22 518.77 C12.6 518.77 11.44 519.78 11.44 521.17 C11.44 521.25 11.44 521.25 11.44 521.32 C7.57
								 522.4 5.41 527.2 4.95 535.46 C4.87 535.62 4.71 536.16 4.25 538.01 C3.48 540.8 1.78 541.95 1.78 541.95
								 L1.62 542.11 C0.46 543.42 0 544.58 0.39 545.51 C0.54 545.9 1 546.36 2.24 546.36 L8.65 546.36 L8.81
								 547.44 C9.35 549.99 11.67 552 14.22 552 C16.77 552 19.09 549.99 19.63 547.44 L19.78 546.36 L26.2
								 546.36 C27.43 546.36 27.82 545.9 28.05 545.51 C28.51 544.58 28.05 543.42 26.81 542.11 Z"
							class="st20"/>
				</g>
				<g id="group1233-217" transform="translate(0.618182,-0.772727)" v:mID="1233" v:groupContext="group">
					<title>Sheet.1233</title>
				</g>
			</g>
			<g id="shape1234-218" v:mID="1234" v:groupContext="shape" transform="translate(1.17566,-0.772727)">
				<title>Sheet.1234</title>
				<path d="M13.2 552 C15.44 552 17.37 550.15 17.83 548.14 L8.56 548.14 C8.95 550.22 10.88 552 13.2 552 ZM25.1 546.51
							 C26.87 546.51 26.57 544.97 25.17 543.27 C25.17 543.27 23.24 542.03 22.39 538.86 C21.7 536.31 21.7 536.24
							 21.7 536.24 C21.31 529.05 19.69 523.18 15.05 522.56 C15.13 522.33 15.21 522.02 15.21 521.79 C15.21 520.86
							 14.51 520.16 13.2 520.16 C11.96 520.16 11.19 520.94 11.19 521.79 C11.19 522.1 11.27 522.33 11.34 522.56
							 C6.71 523.18 5.08 529.05 4.7 536.24 C4.7 536.24 4.7 536.31 4 538.86 C3.15 541.95 1.22 543.27 1.22 543.27
							 C-0.25 544.89 -0.56 546.51 1.22 546.51 L25.1 546.51 Z" class="st9"/>
			</g>
		</g>
	</g>
</svg>
