<svg width="64" height="64" xmlns="http://www.w3.org/2000/svg">
 <style type="text/css">.st0{fill:#FFFFFF;}
	.st1{fill:#4C4C4C;}
	.st2{fill:#CC0000;}</style>

 <g>
  <title>background</title>
  <rect height="66" width="66" y="-1" x="-1" fill="none" id="canvas_background"/>
 </g>
 <g>
  <title>Layer 1</title>
  <path d="m61.899963,32.799999c0,16.897388 -13.254814,30.599995 -29.599998,30.599995c-16.345194,0 -29.600014,-13.702606 -29.600014,-30.599995c0,-16.89739 13.25482,-30.599998 29.600014,-30.599998c16.345184,0 29.599998,13.702609 29.599998,30.599998" id="svg_23" class="st2"/>
  <path d="m47.352619,45.109631l-13.41383,-33.045929c-0.384819,-0.957039 -1.154469,-1.463703 -2.089039,-1.463703c-0.934566,0 -1.759193,0.506664 -2.144012,1.463703l-14.705739,36.254822l5.03019,0l5.82732,-14.946671l17.399494,14.383701c0.687183,0.59111 1.209446,0.844444 1.869141,0.844444c1.319393,0 2.473862,-1.013329 2.473862,-2.477039c0,-0.225182 -0.082462,-0.591106 -0.247387,-1.013329m-15.47538,-27.106668l8.713493,22.040003l-13.166447,-10.639999l4.452951,-11.400003l0,0l0.000002,0z" id="svg_24" class="st0"/>
 </g>
</svg>