<?xml version="1.0" encoding="UTF-8"?>
<svg width="512px" height="512px" viewBox="0 0 512 512" version="1.1" xmlns="http://www.w3.org/2000/svg" xmlns:xlink="http://www.w3.org/1999/xlink">
    <!-- Generator: Sketch 46.2 (44496) - http://www.bohemiancoding.com/sketch -->
    <title>linguisticAnalysis-wht-bluBG-512p</title>
    <desc>Created with Sketch.</desc>
    <defs></defs>
    <g id="PRODUCTION-ICONS" stroke="none" stroke-width="1" fill="none" fill-rule="evenodd">
        <g id="linguisticAnalysis-wht-bluBG-512p">
            <g id="Linguistic-Analysis-API">
                <rect id="Rectangle-3-Copy-16" fill="#0063B1" x="0" y="0" width="512" height="512"></rect>
                <path d="M256.160996,227.555556 C264.449707,227.555556 271.236551,230.223644 276.521529,235.565511 C281.806507,240.913067 284.446151,247.665778 284.446151,255.829333 C284.446151,264.106667 281.834951,270.939022 276.595484,276.337778 C271.361707,281.736533 264.552107,284.444444 256.160996,284.444444 C247.866596,284.444444 241.028551,281.656889 235.635484,276.076089 C230.248107,270.512356 227.557262,263.759644 227.557262,255.829333 C227.557262,247.546311 230.270862,240.770844 235.720818,235.491556 C241.159396,230.200889 247.974684,227.555556 256.160996,227.555556 Z" id="Fill-1" fill="#FFFFFF"></path>
                <path d="M415.449884,227.555556 C407.263573,227.555556 400.448284,230.200889 395.009707,235.491556 C389.559751,240.770844 386.846151,247.546311 386.846151,255.829333 C386.846151,263.759644 389.536996,270.512356 394.924373,276.076089 C400.31744,281.656889 407.155484,284.444444 415.449884,284.444444 C423.840996,284.444444 430.650596,281.736533 435.884373,276.337778 C441.12384,270.939022 443.73504,264.106667 443.73504,255.829333 C443.73504,247.665778 441.095396,240.913067 435.810418,235.565511 C430.52544,230.223644 423.738596,227.555556 415.449884,227.555556" id="Fill-3" fill="#FFFFFF"></path>
                <path d="M96.8721067,227.555556 C88.6857956,227.555556 81.8705067,230.200889 76.4319289,235.491556 C70.9819733,240.770844 68.2683733,247.546311 68.2683733,255.829333 C68.2683733,263.759644 70.9592178,270.512356 76.3465956,276.076089 C81.7396622,281.656889 88.5777067,284.444444 96.8721067,284.444444 C105.263218,284.444444 112.072818,281.736533 117.306596,276.337778 C122.546062,270.939022 125.157262,264.106667 125.157262,255.829333 C125.157262,247.665778 122.517618,240.913067 117.23264,235.565511 C111.947662,230.223644 105.160818,227.555556 96.8721067,227.555556" id="Fill-6" fill="#FFFFFF"></path>
                <path d="M182.044444,329.955556 L329.955556,329.955556 L329.955556,182.044444 L182.044444,182.044444 L182.044444,329.955556 Z M159.288889,352.711111 L352.711111,352.711111 L352.711111,159.288889 L159.288889,159.288889 L159.288889,352.711111 Z" id="Fill-8" fill="#FFFFFF"></path>
            </g>
        </g>
    </g>
</svg>