<?xml version="1.0" encoding="utf-8"?>
<!-- Generator: Adobe Illustrator 19.0.1, SVG Export Plug-In . SVG Version: 6.00 Build 0)  -->
<svg version="1.1" xmlns="http://www.w3.org/2000/svg" xmlns:xlink="http://www.w3.org/1999/xlink" x="0px" y="0px"
	 viewBox="-169 13 300 300" style="enable-background:new -169 13 300 300;" xml:space="preserve">
<style type="text/css">
	.st0{fill:#0078D7;}
	.st1{fill:#FFFFFF;}
</style>
<g id="BG">
	<rect x="-169" y="13" class="st0" width="300" height="300"/>
</g>
<g id="ICON">
	<path class="st1" d="M-18.8,59.1c-57-0.2-103.9,46.4-104.1,103.7c-0.2,57,46.4,103.9,103.7,104.1c57,0.2,103.9-46.4,104.1-103.7
		C85.1,106.2,38.3,59.1-18.8,59.1z M-60.6,123.3c9.2,0,16.4,7.4,16.4,16.6c0,8.8-7.4,16.2-16.4,16.2S-77,148.7-77,139.7
		C-77,130.4-69.8,123.3-60.6,123.3z M-17.8,236c-28.4,0.2-54.7-19.6-59.3-45.3c21.7,16.4,38.8,20.5,58.2,20.5s40.9-6.5,58.2-20.5
		C35.3,214.9,9.2,235.7-17.8,236z M23.3,156.1c-9,0-16.4-7.6-16.4-16.6c0.2-9,7.4-16.2,16.4-16.2s16.4,7.4,16.4,16.4
		C39.6,148.9,32.3,156.1,23.3,156.1z"/>
</g>
</svg>
