<?xml version="1.0" encoding="utf-8"?>
<!-- Generator: Adobe Illustrator 19.0.1, SVG Export Plug-In . SVG Version: 6.00 Build 0)  -->
<svg version="1.1" xmlns="http://www.w3.org/2000/svg" xmlns:xlink="http://www.w3.org/1999/xlink" x="0px" y="0px"
	 viewBox="-169 13 300 300" style="enable-background:new -169 13 300 300;" xml:space="preserve">
<style type="text/css">
	.st0{fill:#0078D7;}
	.st1{fill:#FFFFFF;}
</style>
<g id="BG">
	<rect x="-169" y="13" class="st0" width="300" height="300"/>
</g>
<g id="ICON">
	<path id="_x3C_Path_x3E_" class="st1" d="M27.6,122.5h-7.1v-3.2c0-21.4-17.3-38.7-38.9-38.7h-45.9c-21.5,0-38.9,17.2-38.9,38.7V165
		c0,21.4,17.3,38.7,38.9,38.7h7.1v3.2c0,21.4,17.3,38.7,38.9,38.7h45.9c21.5,0,38.9-17.2,38.9-38.7v-45.7
		C66.5,139.8,49.1,122.5,27.6,122.5z M-39.8,203.7h21.5c21.5,0,38.9-17.2,38.9-38.7v-25.3h7.1c11.9,0,21.5,9.6,21.5,21.4v45.7
		c0,11.8-9.6,21.4-21.5,21.4h-45.9c-11.9,0-21.5-9.6-21.5-21.4L-39.8,203.7L-39.8,203.7z M3.2,122.5h-21.5
		c-21.5,0-38.9,17.2-38.9,38.7v25.3h-7.1c-11.9,0-21.5-9.6-21.5-21.4v-45.7c0-11.8,9.6-21.4,21.5-21.4h45.9
		c11.9,0,21.5,9.6,21.5,21.4L3.2,122.5L3.2,122.5z M-39.8,161.2c0-11.8,9.6-21.4,21.5-21.4H3.2V165c0,11.8-9.6,21.4-21.5,21.4h-21.5
		V161.2z"/>
</g>
</svg>
