<svg xmlns="http://www.w3.org/2000/svg" viewBox="0 0 30 30"><defs><style>.cls-1{fill:#0063b1;}</style></defs><title>project_visual_search_blue_outline</title><g id="Layer_2" data-name="Layer 2"><g id="Layer_1-2" data-name="Layer 1"><path class="cls-1" d="M28.16,6.36A13,13,0,0,0,7,4.67,13.12,13.12,0,0,0,5.84,6.36,12.9,12.9,0,0,0,4,13c0,.32,0,.63,0,.95a8.17,8.17,0,0,1,2-1.46A10.92,10.92,0,0,1,7.35,7.73a15.25,15.25,0,0,0,3,1.87,15,15,0,0,0-.3,1.9,8.08,8.08,0,0,1,2,.25c.05-.47.12-.93.21-1.39a15.73,15.73,0,0,0,4.78.75,15.73,15.73,0,0,0,4.78-.75A13.59,13.59,0,0,1,22.06,13a13.59,13.59,0,0,1-.28,2.64A15.73,15.73,0,0,0,17,14.89h-.21a8.73,8.73,0,0,1,1.13,2,13.83,13.83,0,0,1,3.33.65,13.42,13.42,0,0,1-3.13,4.93A8.54,8.54,0,0,1,16.07,26c.31,0,.61.05.93.05A13,13,0,0,0,28.16,6.36ZM10.9,7.65A13.87,13.87,0,0,1,8.47,6.07a11,11,0,0,1,5.68-3.68A15.49,15.49,0,0,0,10.9,7.65ZM17,9.11a13.71,13.71,0,0,1-4.25-.69A13.4,13.4,0,0,1,17,2.47a13.4,13.4,0,0,1,4.25,5.95A13.71,13.71,0,0,1,17,9.11Zm2.85-6.72a11,11,0,0,1,5.68,3.68A13.87,13.87,0,0,1,23.1,7.65,15.49,15.49,0,0,0,19.85,2.39Zm0,21.22a15.49,15.49,0,0,0,3.25-5.26,13.87,13.87,0,0,1,2.43,1.58A11,11,0,0,1,19.85,23.61Zm6.8-5.34a15.25,15.25,0,0,0-3-1.87,15,15,0,0,0,0-6.8,15.25,15.25,0,0,0,3-1.87,11,11,0,0,1,0,10.54Z"/><path class="cls-1" d="M10,13.5A6.49,6.49,0,0,0,4.76,23.83L0,28.59,1.41,30l4.76-4.76A6.5,6.5,0,1,0,10,13.5Zm0,11A4.5,4.5,0,1,1,14.5,20,4.51,4.51,0,0,1,10,24.5Z"/></g></g></svg>