<?xml version="1.0" encoding="utf-8"?>
<!-- Generator: Adobe Illustrator 19.0.1, SVG Export Plug-In . SVG Version: 6.00 Build 0)  -->
<svg version="1.1" id="Layer_1" xmlns="http://www.w3.org/2000/svg" xmlns:xlink="http://www.w3.org/1999/xlink" x="0px" y="0px"
	 viewBox="-169 13 300 300" style="enable-background:new -169 13 300 300;" xml:space="preserve">
<style type="text/css">
	.st0{fill:#0078D7;}
	.st1{fill:#FFFFFF;}
</style>
<g id="BG">
	<rect x="-169" y="13" class="st0" width="300" height="300"/>
</g>
<g id="ICON">
	<g>
		<path class="st1" d="M44.7,184.4c-2.6-8.3-7.2-15.8-13.1-22c-12.5,22.8-36.7,38.4-64.5,38.4c-11.5,0-22.5-2.7-32.3-7.4
			c-0.4,2.7-0.7,5.4-0.7,8.2c0,31.3,25.3,56.6,56.6,56.6c25.3,0,46.7-16.6,54-39.5l25.8-17.1L44.7,184.4z"/>
		<path class="st1" d="M-32.8,70.7c-25.3,0-46.7,16.6-54,39.5l-25.8,17.1l25.8,17.1c7.2,22.9,28.7,39.5,54,39.5
			c31.3,0,56.6-25.3,56.6-56.6S-1.6,70.7-32.8,70.7z"/>
	</g>
</g>
</svg>
