<?xml version="1.0" encoding="utf-8"?>
<!-- Generator: Adobe Illustrator 19.0.1, SVG Export Plug-In . SVG Version: 6.00 Build 0)  -->
<svg version="1.1" xmlns="http://www.w3.org/2000/svg" xmlns:xlink="http://www.w3.org/1999/xlink" x="0px" y="0px"
	 viewBox="-169 13 300 300" style="enable-background:new -169 13 300 300;" xml:space="preserve">
<style type="text/css">
	.st0{fill:#0078D7;}
	.st1{fill:#FFFFFF;}
</style>
<g id="BG">
	<rect x="-169" y="13" class="st0" width="300" height="300"/>
</g>
<g id="ICON">
	<path class="st1" d="M-18.8,59.1c-57-0.2-103.9,46.4-104.1,103.7c-0.2,57,46.4,103.9,103.7,104.1c57,0.2,103.9-46.4,104.1-103.7
		C85.1,106.2,38.3,59.1-18.8,59.1z M-60.6,156.1c-9,0-16.4-7.4-16.4-16.4c0-9.2,7.2-16.4,16.4-16.4s16.4,7.4,16.4,16.6
		C-44.2,148.7-51.6,156.1-60.6,156.1z M-18.9,239.9c-15.2,0-28.6-14.8-28.6-31.9c0-13.9,12.7-25.2,28.4-25.2s28.6,11.3,28.6,24.9
		C9.7,224.9-3.4,239.9-18.9,239.9z M23.3,156.1c-9,0-16.4-7.6-16.4-16.6c0.2-9,7.4-16.2,16.4-16.2s16.4,7.4,16.4,16.4
		C39.6,148.9,32.3,156.1,23.3,156.1z"/>
</g>
</svg>
