<svg xmlns="http://www.w3.org/2000/svg" viewBox="0 0 48 48"><defs><style>.cls-1{fill:#0063b1;}.cls-2{fill:#fff;}</style></defs><title>project_answer_search</title><g id="Layer_2" data-name="Layer 2"><g id="Layer_1-2" data-name="Layer 1"><rect class="cls-1" width="48" height="48"/><g id="Layer_2-2" data-name="Layer 2"><g id="Layer_1-2-2" data-name="Layer 1-2"><path class="cls-2" d="M37.16,15.36a13,13,0,0,0-17.82-4.54A13.2,13.2,0,0,0,16,13.67,13.61,13.61,0,0,0,13,22V23a8,8,0,0,1,2-1.46,10.88,10.88,0,0,1,1.35-4.76,14.77,14.77,0,0,0,3,1.87,15.32,15.32,0,0,0-.3,1.9,7.94,7.94,0,0,1,2,.25c.05-.47.12-.93.21-1.39a15.61,15.61,0,0,0,9.56,0A13,13,0,0,1,31.06,22a13.76,13.76,0,0,1-.28,2.64A15.55,15.55,0,0,0,26,23.89h-.21a9,9,0,0,1,1.13,2,14,14,0,0,1,3.33.65,13.46,13.46,0,0,1-3.13,4.93A8.49,8.49,0,0,1,25.07,35c.31,0,.61,0,.93,0a13,13,0,0,0,13-13A12.86,12.86,0,0,0,37.16,15.36ZM19.9,16.65a13.87,13.87,0,0,1-2.43-1.58,11,11,0,0,1,5.68-3.68A15.51,15.51,0,0,0,19.9,16.65ZM26,18.11a13.65,13.65,0,0,1-4.25-.69,13.41,13.41,0,0,1,4.25-6,13.41,13.41,0,0,1,4.25,6A13.65,13.65,0,0,1,26,18.11Zm2.85-6.72a11,11,0,0,1,5.68,3.68,13.87,13.87,0,0,1-2.43,1.58A15.51,15.51,0,0,0,28.85,11.39Zm0,21.22a15.51,15.51,0,0,0,3.25-5.26,13.87,13.87,0,0,1,2.43,1.58A11,11,0,0,1,28.85,32.61Zm6.8-5.34a14.77,14.77,0,0,0-3-1.87,15,15,0,0,0,0-6.8,14.77,14.77,0,0,0,3-1.87A11,11,0,0,1,35.65,27.27Z"/><path class="cls-2" d="M19,22.5a6.49,6.49,0,0,0-5.24,10.33L9,37.59,10.41,39l4.76-4.76A6.5,6.5,0,1,0,19,22.5Zm0,11A4.5,4.5,0,1,1,23.5,29,4.49,4.49,0,0,1,19,33.5Z"/></g></g></g></g></svg>