<?xml version="1.0" encoding="utf-8"?>
<!-- Generator: Adobe Illustrator 19.0.1, SVG Export Plug-In . SVG Version: 6.00 Build 0)  -->
<svg version="1.1" xmlns="http://www.w3.org/2000/svg" xmlns:xlink="http://www.w3.org/1999/xlink" x="0px" y="0px"
	 viewBox="-169 13 300 300" style="enable-background:new -169 13 300 300;" xml:space="preserve">
<style type="text/css">
	.st0{fill:#0078D7;}
	.st1{fill:#FFFFFF;}
</style>
<g id="BG">
	<rect x="-169" y="13" class="st0" width="300" height="300"/>
</g>
<g id="ICON">
	<g>
		<path class="st1" d="M65.8,83.5h-169.5c-2.9,0-5.3,2.4-5.3,5.3v124.5c0,2.9,2.4,5.3,5.3,5.3h67.5l18.3,27.8l15.8-27.8h67.9
			c2.9,0,5.3-2.4,5.3-5.3V88.8C71,85.9,68.7,83.5,65.8,83.5z M6.5,186.8L-19.1,175l-25.6,11.8l3.3-28L-60.5,138l27.6-5.6l13.8-24.5
			l13.8,24.5l27.6,5.6l-19,20.8L6.5,186.8z"/>
	</g>
</g>
</svg>
