<?xml version="1.0" encoding="UTF-8"?>
<svg width="512px" height="512px" viewBox="0 0 512 512" version="1.1" xmlns="http://www.w3.org/2000/svg" xmlns:xlink="http://www.w3.org/1999/xlink">
    <!-- Generator: Sketch 46.2 (44496) - http://www.bohemiancoding.com/sketch -->
    <title>entityLinkingIntelligence-wht-bluBG-512p</title>
    <desc>Created with Sketch.</desc>
    <defs></defs>
    <g id="PRODUCTION-ICONS" stroke="none" stroke-width="1" fill="none" fill-rule="evenodd">
        <g id="entityLinkingIntelligence-wht-bluBG-512p">
            <g id="Entity-Linking-Intelligence-Service-API">
                <rect id="Rectangle-3-Copy-24" fill="#0063B1" x="0" y="0" width="512" height="512"></rect>
                <path d="M375.466667,349.805796 C375.466667,363.976818 363.975111,375.468373 349.804089,375.468373 L258.907022,375.468373 C244.736,375.468373 233.244444,363.976818 233.244444,349.805796 L233.244444,301.512818 L253.092978,301.512818 C279.830756,301.512818 301.511111,279.832462 301.511111,253.094684 L301.511111,233.246151 L349.804089,233.246151 C363.975111,233.246151 375.466667,244.732018 375.466667,258.90304 L375.466667,349.805796 Z M278.755556,233.246151 L278.755556,253.094684 C278.755556,267.265707 267.264,278.757262 253.092978,278.757262 L233.244444,278.757262 L233.244444,258.90304 C233.244444,244.732018 244.736,233.246151 258.907022,233.246151 L278.755556,233.246151 Z M162.195911,278.757262 C148.024889,278.757262 136.533333,267.265707 136.533333,253.094684 L136.533333,162.191929 C136.533333,148.020907 148.024889,136.53504 162.195911,136.53504 L253.092978,136.53504 C267.264,136.53504 278.755556,148.020907 278.755556,162.191929 L278.755556,210.490596 L258.907022,210.490596 C232.169244,210.490596 210.488889,232.165262 210.488889,258.90304 L210.488889,278.757262 L162.195911,278.757262 Z M349.804089,210.490596 L301.511111,210.490596 L301.511111,162.191929 C301.511111,135.454151 279.830756,113.779484 253.092978,113.779484 L162.195911,113.779484 C135.458133,113.779484 113.777778,135.454151 113.777778,162.191929 L113.777778,253.094684 C113.777778,279.832462 135.458133,301.512818 162.195911,301.512818 L210.488889,301.512818 L210.488889,349.805796 C210.488889,376.543573 232.169244,398.223929 258.907022,398.223929 L349.804089,398.223929 C376.541867,398.223929 398.222222,376.543573 398.222222,349.805796 L398.222222,258.90304 C398.222222,232.165262 376.541867,210.490596 349.804089,210.490596 L349.804089,210.490596 Z" id="Fill-1" fill="#FFFFFF"></path>
            </g>
        </g>
    </g>
</svg>