<?xml version="1.0" encoding="UTF-8"?>
<svg width="512px" height="512px" viewBox="0 0 512 512" version="1.1" xmlns="http://www.w3.org/2000/svg" xmlns:xlink="http://www.w3.org/1999/xlink">
    <!-- Generator: Sketch 46.2 (44496) - http://www.bohemiancoding.com/sketch -->
    <title>bingSpeech-wht-bluBG-512p</title>
    <desc>Created with Sketch.</desc>
    <defs></defs>
    <g id="PRODUCTION-ICONS" stroke="none" stroke-width="1" fill="none" fill-rule="evenodd">
        <g id="bingSpeech-wht-bluBG-512p">
            <g id="Bing-Speech-API">
                <rect id="Rectangle-3-Copy-8" fill="#0063B1" x="0" y="0" width="512" height="512"></rect>
                <path d="M190.688711,218.098347 C196.491378,218.098347 201.2416,219.964302 204.939378,223.701902 C208.642844,227.445191 210.486044,232.172658 210.486044,237.889991 C210.486044,243.686969 208.6656,248.465636 204.996267,252.248747 C201.332622,256.026169 196.565333,257.920569 190.688711,257.920569 C184.886044,257.920569 180.096,255.963591 176.324267,252.066702 C172.552533,248.169813 170.663822,243.442347 170.663822,237.889991 C170.663822,232.087324 172.563911,227.34848 176.381156,223.650702 C180.187022,219.952924 184.96,218.098347 190.688711,218.098347 Z M258.955378,218.098347 C264.758044,218.098347 269.508267,219.964302 273.206044,223.701902 C276.909511,227.445191 278.752711,232.172658 278.752711,237.889991 C278.752711,243.686969 276.932267,248.465636 273.262933,252.248747 C269.599289,256.026169 264.832,257.920569 258.955378,257.920569 C253.152711,257.920569 248.362667,255.963591 244.590933,252.066702 C240.8192,248.169813 238.930489,243.442347 238.930489,237.889991 C238.930489,232.087324 240.830578,227.34848 244.647822,223.650702 C248.453689,219.952924 253.226667,218.098347 258.955378,218.098347 Z M327.222044,218.098347 C333.024711,218.098347 337.774933,219.964302 341.472711,223.701902 C345.176178,227.445191 347.019378,232.172658 347.019378,237.889991 C347.019378,243.686969 345.198933,248.465636 341.5296,252.248747 C337.865956,256.026169 333.098667,257.920569 327.222044,257.920569 C321.419378,257.920569 316.629333,255.963591 312.8576,252.066702 C309.085867,248.169813 307.197156,243.442347 307.197156,237.889991 C307.197156,232.087324 309.097244,227.34848 312.914489,223.650702 C316.720356,219.952924 321.493333,218.098347 327.222044,218.098347 Z" id="Combined-Shape" fill="#FFFFFF"></path>
                <path d="M398.294471,241.309582 C398.294471,290.842738 358.625849,331.370382 310.150827,331.370382 L207.546027,331.370382 C205.452516,331.370382 203.38176,331.285049 201.322382,331.137138 L143.915804,355.775716 L159.520427,316.721493 C135.416604,300.604871 119.396693,272.774827 119.396693,241.303893 L119.396693,234.124516 C119.396693,184.597049 159.065316,144.069404 207.540338,144.069404 L310.145138,144.069404 C358.62016,144.069404 398.288782,184.597049 398.294471,234.124516 L398.294471,241.309582 Z M310.145138,121.387804 L207.540338,121.387804 C146.424604,121.387804 96.7094044,172.178204 96.7094044,234.124516 L96.7094044,241.303893 C96.7094044,273.133227 109.94176,302.834916 132.230827,323.878116 L102.523449,398.226204 L205.486649,354.029227 C206.175004,354.046293 206.86336,354.051982 207.546027,354.051982 L310.150827,354.051982 C371.26656,354.051982 420.976071,303.261582 420.976071,241.309582 L420.976071,234.124516 C420.970382,172.172516 371.260871,121.387804 310.145138,121.387804 L310.145138,121.387804 Z" id="Fill-7" fill="#FFFFFF"></path>
            </g>
        </g>
    </g>
</svg>