<?xml version="1.0" encoding="UTF-8"?>
<svg width="512px" height="512px" viewBox="0 0 512 512" version="1.1" xmlns="http://www.w3.org/2000/svg" xmlns:xlink="http://www.w3.org/1999/xlink">
    <!-- Generator: Sketch 46.2 (44496) - http://www.bohemiancoding.com/sketch -->
    <title>bingImageSearch-wht-bluBG-512p</title>
    <desc>Created with Sketch.</desc>
    <defs></defs>
    <g id="PRODUCTION-ICONS" stroke="none" stroke-width="1" fill="none" fill-rule="evenodd">
        <g id="bingImageSearch-wht-bluBG-512p">
            <g id="Bing-Image-Search-API">
                <rect id="Rectangle-3-Copy-28" fill="#0063B1" x="0" y="0" width="512" height="512"></rect>
                <polygon id="Fill-1" fill="#FFFFFF" points="284.444444 364.086613 364.0832 364.086613 364.0832 284.442169 284.444444 284.442169"></polygon>
                <polygon id="Fill-2" fill="#FFFFFF" points="284.444444 227.55328 364.0832 227.55328 364.0832 147.914524 284.444444 147.914524"></polygon>
                <polygon id="Fill-3" fill="#FFFFFF" points="147.911111 227.55328 227.555556 227.55328 227.555556 147.914524 147.911111 147.914524"></polygon>
                <path d="M211.205689,347.900018 C197.967644,361.138062 176.702578,361.263218 163.709156,348.269796 C150.721422,335.276373 150.846578,314.011307 164.084622,300.773262 C177.322667,287.535218 198.587733,287.410062 211.581156,300.397796 C224.574578,313.396907 224.449422,334.656284 211.205689,347.900018 M147.666489,284.360818 C128.250311,303.776996 125.622044,333.615218 139.9296,355.591396 L96.7111111,398.809884 L112.804978,414.898062 L155.943822,371.753529 C177.959822,386.396729 208.071111,383.865173 227.623822,364.312462 C249.884444,342.05184 250.094933,306.086684 227.9936,283.985351 C205.892267,261.884018 169.9328,262.094507 147.666489,284.360818" id="Fill-4" fill="#FFFFFF"></path>
            </g>
        </g>
    </g>
</svg>