<svg xmlns="http://www.w3.org/2000/svg" viewBox="0 0 48 48"><defs><style>.cls-1{fill:#0063b1;}.cls-2{fill:#fff;}</style></defs><title>bing_visual_search</title><g id="Layer_2" data-name="Layer 2"><g id="Layer_1-2" data-name="Layer 1"><rect class="cls-1" width="48" height="48"/><g id="Layer_2-2" data-name="Layer 2"><g id="Layer_1-2-2" data-name="Layer 1-2"><polygon class="cls-2" points="40.47 5 35.4 5 35.4 7.53 40.47 7.53 40.47 12.6 43 12.6 43 7.53 43 5.17 43 5 40.47 5"/><polygon class="cls-2" points="5 7.53 5 12.6 7.53 12.6 7.53 7.53 12.6 7.53 12.6 5 7.53 5 5.17 5 5 5 5 7.53"/><polygon class="cls-2" points="7.53 43 12.6 43 12.6 40.47 7.53 40.47 7.53 35.4 5 35.4 5 40.47 5 42.85 5 43 7.53 43"/><polygon class="cls-2" points="43 40.47 43 35.4 40.47 35.4 40.47 40.47 35.4 40.47 35.4 43 40.47 43 42.85 43 43 43 43 40.47"/><path class="cls-2" d="M26.13,16.4A5.47,5.47,0,0,1,30,25.74a5.43,5.43,0,0,1-7,.59l-.74-.54L21.73,25a5.48,5.48,0,0,1,4.4-8.64m0-2.53a8,8,0,0,0-6.51,12.66h0l-5.75,5.72,1.88,1.88,5.72-5.75h0a8,8,0,1,0,4.66-14.51Z"/></g></g></g></g></svg>