<?xml version="1.0" encoding="utf-8"?>
<!-- Generator: Adobe Illustrator 19.2.1, SVG Export Plug-In . SVG Version: 6.00 Build 0)  -->
<svg version="1.1" id="Layer_1" xmlns="http://www.w3.org/2000/svg" xmlns:xlink="http://www.w3.org/1999/xlink" x="0px" y="0px"
	 viewBox="0 0 50 50" enable-background="new 0 0 50 50" xml:space="preserve">
<rect fill="#009480" width="50" height="50"/>
<path fill="#FFFFFF" d="M27.518,26.204L15.324,38.171c-1.088,1.012-2.629,0.997-3.703-0.036l-0.032-0.034
	c-1.013-1.033-0.998-2.69,0.034-3.704L23.817,22.43c1.088-1.011,2.627-0.997,3.701,0.034l0.038,0.038
	C28.572,23.534,28.556,25.192,27.518,26.204z"/>
<path fill="#FFFFFF" d="M27.824,34.224c-4.173,0-8.063-2.25-10.153-5.872c-1.493-2.586-1.953-5.617-1.297-8.535
	c0.719-3.208,2.763-5.984,5.597-7.622c1.817-1.035,3.811-1.57,5.831-1.564c4.171,0,8.063,2.25,10.153,5.872
	c1.493,2.586,1.953,5.617,1.297,8.535c-0.719,3.208-2.763,5.984-5.597,7.622c-1.817,1.037-3.811,1.573-5.831,1.568l0,0
	L27.824,34.224z"/>
<path fill="#019480" d="M27.802,11.079c3.921,0,7.734,2.035,9.836,5.676c3.133,5.426,1.273,12.366-4.153,15.5
	c-1.764,1.008-3.7,1.529-5.662,1.521c-3.921,0-7.734-2.035-9.836-5.676c-3.135-5.424-1.275-12.366,4.151-15.5
	c1.764-1.008,3.7-1.529,5.662-1.521 M27.8,10.181c-2.078-0.005-4.13,0.547-6,1.614c-2.933,1.69-5.047,4.577-5.799,7.909
	c-0.687,3.045-0.207,6.204,1.349,8.9c2.158,3.744,6.173,6.069,10.469,6.069c2.078,0.005,4.13-0.547,6-1.614
	c2.933-1.69,5.047-4.577,5.799-7.909c0.687-3.045,0.207-6.204-1.349-8.9C36.112,12.505,32.097,10.181,27.8,10.181L27.8,10.181
	L27.8,10.181z"/>
<path fill="#414142" d="M27.892,14.986c-4.099-0.03-7.469,3.248-7.518,7.309c-0.05,4.142,3.25,7.537,7.358,7.571
	c4.108,0.034,7.509-3.294,7.52-7.402C35.263,18.356,31.96,15.016,27.892,14.986z"/>
<g>
	<path fill="#FFFFFF" d="M32.569,24.855h-9.513v-1.78c0-0.162,0.131-0.292,0.292-0.292s0.292,0.131,0.292,0.292v1.195h8.344v-1.195
		c0-0.162,0.131-0.292,0.292-0.292s0.292,0.131,0.292,0.292V24.855z"/>
</g>
</svg>
