<svg xmlns="http://www.w3.org/2000/svg" viewBox="0 0 400 140"><defs><style>.cls-1{isolation:isolate;}.cls-10,.cls-2{fill:none;stroke-width:2px;}.cls-2{stroke:#a7a9ac;stroke-miterlimit:10;stroke-dasharray:3 3;}.cls-3{fill:#a7a9ac;}.cls-4{fill:#fff;}.cls-5{fill:#aad2f1;}.cls-6{fill:#7750a3;}.cls-7{fill:#4d4e4e;}.cls-8{fill:#ffc52b;}.cls-9{fill:#d4e2f5;}.cls-10{stroke:#4d4e4e;stroke-linejoin:bevel;}.cls-11{fill:#58595b;}.cls-12{fill:#2a6dcf;}.cls-13{fill:#2b8fde;}.cls-14,.cls-16{fill:#543b76;}.cls-15{fill:#ae96c8;}.cls-16{mix-blend-mode:multiply;}</style></defs><title>azure-architecture-scenario</title><g class="cls-1"><g id="ICONS"><path class="cls-2" d="M380,93.64l0-12.52v-2.6l0-24.84c0-17.61-16.17-31.94-36-31.94s-36,14.33-36,31.94l0,42.13c0,17.61-16.17,31.94-36,31.94s-36-14.33-36-31.94l.91-42.13c0-17.61-17.12-31.94-37-31.94s-37,14.33-37,31.94V95.37c0,17.61-15.17,32.37-35,32.37s-35-13.87-35-31.48l-.13-42.14c0-17.61-17.17-32.38-37-32.38s-36,14.33-36,31.94V77.05"/><polygon class="cls-3" points="388.19 87 386.72 85.64 380.02 92.87 373.29 85.66 371.83 87.03 380.03 95.81 388.19 87"/><circle class="cls-4" cx="19.52" cy="76.79" r="4.66"/><path class="cls-3" d="M14.24,76.79a5.28,5.28,0,1,1,5.28,5.28,5.29,5.29,0,0,1-5.28-5.28Zm9.32,0a4,4,0,1,0-4,4,4,4,0,0,0,4-4Z"/><circle class="cls-5" cx="57" cy="56" r="24"/><circle class="cls-5" cx="200.32" cy="56" r="24"/><path class="cls-6" d="M53,38v7l-2.5,1.5L48,45V38c-2.38,1-5,3.67-5,6.52,0,3.26,2.63,5.53,5,6.48V73c0,1.35,1.15,3,2.5,3s2.59-1.59,2.5-3.12V51a7.05,7.05,0,0,0,5-6.48C58,41.67,55.38,39,53,38Z"/><circle class="cls-4" cx="50.5" cy="72.5" r="1.5"/><rect class="cls-7" x="61" y="55" width="7" height="21" rx="3.5" ry="3.5"/><polygon class="cls-7" points="63 57 66 57 66 46 67 43 65.5 37 63.5 37 62 43 63 46 63 57"/><rect class="cls-8" x="66" y="58" width="1" height="16"/><rect class="cls-8" x="62" y="58" width="1" height="16"/><path class="cls-4" d="M367.5,56A23.5,23.5,0,1,1,344,32.5,23.52,23.52,0,0,1,367.5,56Z"/><path class="cls-9" d="M367.5,56a23.5,23.5,0,0,1-47,0Z"/><path class="cls-7" d="M344,34a22,22,0,1,1-22,22,22,22,0,0,1,22-22m0-2a24,24,0,1,0,24,24,24,24,0,0,0-24-24Z"/><path class="cls-7" d="M343.5,34.27c4,0,8.5,9.35,8.5,21.86S347.51,78,343.5,78,335,68.65,335,56.14s4.49-21.86,8.5-21.86m0-2C337.7,32.27,333,43,333,56.14S337.7,80,343.5,80,354,69.32,354,56.14s-4.7-23.86-10.5-23.86Z"/><line class="cls-10" x1="320.21" y1="56" x2="367" y2="56"/><path class="cls-10" d="M326,41.29C330.4,43,336.84,44,344,44s13.6-1,18-2.71"/><path class="cls-10" d="M326,70.71C330.4,69,336.84,68,344,68s13.6,1,18,2.71"/><path class="cls-4" d="M204.45,40h-8a.48.48,0,0,1-.5-.45h0a.48.48,0,0,1,.5-.45h8a.48.48,0,0,1,.5.45h0A.48.48,0,0,1,204.45,40Z"/><path class="cls-11" d="M214.44,69.3a4.92,4.92,0,0,1-3.89,2.7H190.19a4.92,4.92,0,0,1-3.9-2.7,4.47,4.47,0,0,1,.13-4.53c.18-.32,1.85-2.71,3.72-5.37.33-.47.68-.94,1-1.4h18.41c.34.46.69.93,1,1.4,1.87,2.66,3.55,5.05,3.73,5.37A4.46,4.46,0,0,1,214.44,69.3Z"/><path class="cls-12" d="M149,82.7c0,26.37-16.41,36.36-21,38.3-4.59-1.94-21-11.93-21-38.3,0-2.6,2-1.52,2-1.52,2.23,1,4.88,2.22,8,1.82,6.89-.9,7.5-6.87,11-7,3.5.13,4.11,6.1,11,7,3.07.4,5.72-.8,8-1.82C147,81.18,149,80.1,149,82.7Z"/><path class="cls-13" d="M149,82.7c0,26.37-16.41,36.36-21,38.3V76c3.5.13,4.11,6.1,11,7,3.07.4,5.72-.8,8-1.82C147,81.18,149,80.1,149,82.7Z"/><path class="cls-14" d="M292,78.73v33.65c0,1.81-2.07,3.43-5.42,4.61a40.25,40.25,0,0,1-12.58,1.9h-.5v.1h-.32c-10.09-.11-18.18-3.07-18.18-6.61V78.73Z"/><path class="cls-6" d="M292,78.73v33.65c0,1.81-2.07,3.43-5.42,4.61a40.25,40.25,0,0,1-12.58,1.9V78.73Z"/><path class="cls-15" d="M292,78.48c0,3.58-8.28,6.48-18.5,6.48S255,82.06,255,78.48,263.53,72,273.75,72,292,74.9,292,78.48"/><path class="cls-6" d="M286.56,78.44c0,.56-.47,1.09-1.3,1.56a7.22,7.22,0,0,1-1.11.5,38.13,38.13,0,0,1-21.18,0,7.22,7.22,0,0,1-1.11-.5c-.83-.47-1.3-1-1.3-1.56,0-2,5.82-3.56,13-3.56S286.56,76.47,286.56,78.44Z"/><path class="cls-16" d="M284.15,80.5a38.13,38.13,0,0,1-21.18,0,38.13,38.13,0,0,1,21.18,0Z"/><path class="cls-8" d="M191.16,58h18.41c-2.12-2.84-4.32-5.42-4.7-6V42s2-1.31,2-2c0-1-.23-2-1.29-2H195.16c-1.07,0-1.29,1-1.29,2,0,.69,2.13,2,2.13,2V52C195.62,52.58,193.31,55.16,191.16,58Z"/></g></g></svg>