<?xml version="1.0" encoding="utf-8"?>
<!-- Generator: Adobe Illustrator 20.1.0, SVG Export Plug-In . SVG Version: 6.00 Build 0)  -->
<svg version="1.1" xmlns="http://www.w3.org/2000/svg" xmlns:xlink="http://www.w3.org/1999/xlink" x="0px" y="0px"
	 viewBox="0 0 407 140" style="enable-background:new 0 0 407 140;" xml:space="preserve">
<style type="text/css">
	.st0{fill:none;stroke:#D6D6D6;stroke-miterlimit:10;}
	.st1{fill:#3999C6;}
	.st2{fill:#59B4D9;}
	.st3{fill:#FFFFFF;}
	.st4{fill:#7FBA00;}
	.st5{fill:#B8D432;}
	.st6{fill:#0072C6;}
	.st7{opacity:0.15;fill:#FFFFFF;enable-background:new    ;}
	.st8{opacity:0.7;fill:#0072C6;enable-background:new    ;}
	.st9{opacity:0.4;fill:#0072C6;enable-background:new    ;}
	.st10{fill:#0078D7;}
	.st11{fill:#478AA9;}
	.st12{clip-path:url(#SVGID_2_);fill:#478AA9;}
	.st13{fill:#FCD116;}
	.st14{opacity:0.6;fill:#FF8C00;enable-background:new    ;}
	.st15{fill:#231F20;}
	.st16{clip-path:url(#SVGID_4_);}
	.st17{fill:#25BBED;}
	.st18{fill:#60D1EF;}
	.st19{fill:#464646;}
	.st20{fill:#B8D71C;}
	.st21{fill:#2E2E2E;}
	.st22{fill:#757575;}
	.st23{fill-rule:evenodd;clip-rule:evenodd;fill:#96BCCE;}
	.st24{fill:#181717;}
	.st25{fill:#395B71;}
	.st26{fill:#CBE4F7;}
	.st27{fill:none;stroke:#000000;stroke-width:2.6811;stroke-miterlimit:10;stroke-dasharray:4.0217,4.0217;}
	.st28{fill:#BAD80B;}
	.st29{fill:#E3F2F9;}
	.st30{fill:#A5A7AA;}
	.st31{fill:none;stroke:#395B71;stroke-width:0.1468;stroke-miterlimit:10;}
	.st32{fill:#5C2D91;}
	.st33{fill:#D9CFFF;}
	.st34{fill:#7851A4;}
	.st35{fill:#5C2D91;stroke:#5C2D91;stroke-width:2;stroke-miterlimit:10;}
	.st36{fill:#CBE7F3;}
	.st37{fill:#59B4D9;enable-background:new    ;}
	.st38{fill:#86C8E3;}
	.st39{opacity:0.65;}
	.st40{fill:#D83B01;}
	.st41{opacity:0.15;enable-background:new    ;}
	.st42{fill-rule:evenodd;clip-rule:evenodd;fill:#A5D6EA;stroke:#A5D6EA;stroke-miterlimit:10;}
	.st43{fill:none;stroke:#000000;stroke-width:2.681;stroke-miterlimit:10;stroke-dasharray:4.0217,4.0217;}
	.st44{fill:#FFB900;}
	.st45{opacity:0.4;fill:#B8D432;enable-background:new    ;}
	.st46{fill:#AEE7DD;}
	.st47{clip-path:url(#SVGID_6_);}
	.st48{fill:none;}
	.st49{fill:#6BD8F7;}
	.st50{fill:#6BD2C1;}
	.st51{fill:#D7E871;}
	.st52{fill:#C8E6F2;}
	.st53{clip-path:url(#SVGID_8_);}
	.st54{clip-path:url(#SVGID_10_);fill:#57A5C4;}
	.st55{clip-path:url(#SVGID_10_);fill:#B4A0FF;}
	.st56{clip-path:url(#SVGID_10_);fill:#6BD8F7;}
	.st57{clip-path:url(#SVGID_10_);fill:#51CBB6;}
	.st58{clip-path:url(#SVGID_10_);fill:none;}
	.st59{clip-path:url(#SVGID_12_);fill:#57A5C4;}
	.st60{clip-path:url(#SVGID_12_);fill:#B4A0FF;}
	.st61{clip-path:url(#SVGID_12_);fill:#6BD8F7;}
	.st62{clip-path:url(#SVGID_12_);fill:#51CBB6;}
	.st63{clip-path:url(#SVGID_12_);fill:none;}
	.st64{fill:#94B3B5;stroke:#59B4D9;stroke-width:2;stroke-miterlimit:10;}
	.st65{clip-path:url(#SVGID_14_);}
	.st66{fill:#8DC2ED;}
	.st67{clip-path:url(#SVGID_16_);}
	.st68{clip-path:url(#SVGID_18_);}
	.st69{fill:#BAD80A;}
	.st70{fill:#A5D6EA;}
	.st71{clip-path:url(#SVGID_18_);fill:none;}
	.st72{clip-path:url(#SVGID_20_);}
	.st73{clip-path:url(#SVGID_20_);fill:none;}
	.st74{clip-path:url(#SVGID_22_);}
	.st75{clip-path:url(#SVGID_22_);fill:none;}
	.st76{clip-path:url(#SVGID_24_);}
	.st77{clip-path:url(#SVGID_24_);fill:none;}
	.st78{fill:#95B1C3;}
	.st79{fill:#427A57;}
	.st80{fill:#FFDD8B;}
	.st81{fill:#FAB05D;}
	.st82{fill:#FFC988;}
	.st83{fill:#00B294;}
	.st84{fill:#E6835F;}
	.st85{fill:#6FD9F8;}
	.st86{fill:#8A68B0;}
	.st87{fill:#B4A0FF;}
	.st88{fill:#489EE2;}
</style>
<g id="frames">
</g>
<g id="Layer_1">
	<path class="st1" d="M263.8,74h-3.3c1.6-4.1,3.3-9,3.3-13c0-17.1-13.9-30.2-30.2-30.2c-15.5,0-27.8,11.4-29.4,26.1
		c-5.7-5.7-13.9-9.8-22.9-9.8c-15.5,0-29.4,13-30.2,28.5c-3.3-0.8-6.5-1.6-9.8-1.6c-17.1,0-30.2,13-30.2,30.2
		c0,16.3,13.1,29.4,30.2,29.4h122.5c16.3,0,30.2-13,30.2-29.4C294,87,280.1,74,263.8,74"/>
	<polyline class="st27" points="139,41.5 206.9,96.4 275,33.5 340,76.8 	"/>
	<line class="st27" x1="54.1" y1="75.9" x2="131" y2="41.5"/>
	<circle class="st28" cx="355.3" cy="77.4" r="23.8"/>
	<g>
		<g>
			<g>
				<ellipse class="st15" cx="344.9" cy="65.5" rx="2.2" ry="2.7"/>
			</g>
			<g>
				<g>
					<ellipse class="st15" cx="364.9" cy="84.4" rx="2.3" ry="2.5"/>
				</g>
				<g>
					<path class="st15" d="M367.2,86.5c-0.6,0.7-1.4,1.2-2.3,1.2c-0.9,0-1.8-0.5-2.3-1.2c-2.1,0.5-1.9,2.7-1.8,4.5
						c0,0.4,0.3,0.6,0.6,0.6h7.1c0.3,0,0.6-0.3,0.6-0.6C369.2,89.2,369.4,87,367.2,86.5z"/>
				</g>
			</g>
			<g>
				<g>
					<ellipse class="st15" cx="354.6" cy="84.4" rx="2.3" ry="2.5"/>
				</g>
				<g>
					<path class="st15" d="M357,86.5c-0.6,0.7-1.4,1.2-2.3,1.2c-0.9,0-1.8-0.5-2.3-1.2c-2.1,0.5-1.9,2.7-1.8,4.5
						c0,0.4,0.3,0.6,0.6,0.6h7.1c0.3,0,0.6-0.3,0.6-0.6C359,89.2,359.2,87,357,86.5z"/>
				</g>
			</g>
			<g>
				<path class="st15" d="M340,79.5c0.6,0.8,1,1.3,1.2,1.5l0,10.6h2.2c0.3-2.3,1-8.7,1.1-9.4c0.1-0.6,1-0.6,1.1,0
					c0.1,0.6,0.9,7.1,1.1,9.4h2.2l0-11.1h1v-8l1.8,0.5c0.1,0,0.3,0.1,0.4,0.1c0.1,0,0.2,0,0.3-0.1l4.1-2c0.5-0.2,0.7-0.8,0.5-1.3
					c-0.2-0.5-0.8-0.7-1.3-0.5l-3.5,1.5l-3.4-1c-0.2-0.1-0.4-0.1-0.6-0.2l0,0l0,0c-0.9-0.2-1.8-0.5-1.8-0.5l-1.3,2.7h0l-1.3-2.7
					c0,0-1.6,0.4-2.5,0.6c-0.8,0.2-1.4,0.9-1.5,1.9c-0.1,1.4-0.1,4.4-0.2,5.6C339.5,77.5,339.5,78.9,340,79.5z"/>
			</g>
			<g>
				<rect x="350.3" y="66.5" class="st3" width="13.9" height="1"/>
			</g>
			<g>
				<rect x="358.1" y="68.5" class="st3" width="6.1" height="1"/>
			</g>
			<g>
				<rect x="358.1" y="70.4" class="st3" width="6.1" height="1"/>
			</g>
			<g>
				<polygon class="st3" points="357.3,63.1 357.3,62 355.4,62 355.4,63.1 348.6,63.1 348.6,65 366.7,65 366.7,78.5 351.4,78.5 
					351.4,80.5 368.7,80.5 368.7,63.1 				"/>
			</g>
		</g>
	</g>
	<g>
		<path class="st15" d="M263.6,120.2V80.8c0-0.9-0.7-1.6-1.6-1.6h-57.3c-0.9,0-1.6,0.7-1.6,1.6v39.4H263.6z"/>
		<rect x="205.2" y="81.8" class="st26" width="56.4" height="35.1"/>
		<path class="st15" d="M268.6,122c-1.8,0-67.8,0-70.2,0s-2.7-3.2-2.7-3.2h75.6C271.3,118.8,270.4,122,268.6,122z"/>
		<rect x="233.1" y="80.6" class="st25" width="1" height="0.9"/>
		<polygon class="st29" points="261.6,81.8 236.3,81.8 261.6,105.5 		"/>
	</g>
	<g>
		<path class="st15" d="M208.8,98.5h-37.7c-0.7,0-1.3-0.6-1.3-1.3V72c0-0.7,0.6-1.3,1.3-1.3h37.7c0.7,0,1.3,0.6,1.3,1.3v25.2
			C210.1,97.9,209.5,98.5,208.8,98.5z"/>
		<rect x="172.2" y="72.7" class="st30" width="35.6" height="23.7"/>
		<rect x="172.2" y="72.7" class="st26" width="35.6" height="23.7"/>
		<polygon class="st25" points="208.5,85 209.5,85.1 209.5,84.2 208.5,84.3 		"/>
		<polygon class="st29" points="207.8,90.3 207.8,72.7 188.6,72.7 		"/>
	</g>
	<g>
		<path class="st15" d="M186.9,126.1h-9.2c-0.5,0-0.9-0.4-0.9-0.9v-19.4c0-0.5,0.4-0.9,0.9-0.9h9.2c0.5,0,0.9,0.4,0.9,0.9v19.4
			C187.8,125.7,187.4,126.1,186.9,126.1z"/>
		<path class="st15" d="M176.8,123.3v2.3c0,0.3,0.2,0.5,0.5,0.5h9.9c0.3,0,0.5-0.2,0.5-0.5v-2.3H176.8z"/>
		<rect x="177.6" y="107.5" class="st26" width="9.3" height="15.4"/>
		<g>
			<path class="st31" d="M183.6,106.2h-2.8c-0.1,0-0.3-0.1-0.3-0.3s0.1-0.3,0.3-0.3h2.8c0.1,0,0.3,0.1,0.3,0.3
				S183.8,106.2,183.6,106.2z"/>
		</g>
		<circle class="st25" cx="178.9" cy="124.5" r="0.3"/>
		<circle class="st25" cx="185.5" cy="124.5" r="0.3"/>
		<polygon class="st25" points="182.6,124.8 182,124.7 182,124.2 182.6,124.2 		"/>
		<polygon class="st29" points="186.9,115.2 186.9,107.5 178.5,107.5 		"/>
	</g>
	<path class="st32" d="M158.8,23.3c0.1,0.3,0.3,0.4,0.5,0.4l1.1,0c0.3-0.1,0.4-0.2,0.4-0.6l0.1-1.3c0-0.5,0.2-0.7,0.5-0.8
		c0.2-0.2,0.4-0.2,0.6-0.4c0.3-0.1,0.5-0.1,0.9,0.1l1.2,0.8c0.2,0.1,0.5,0,0.6-0.1l0.8-0.9c0.1-0.1,0.1-0.4-0.1-0.7l-1-1
		c-0.3-0.4-0.2-0.6-0.1-0.8l-0.1-0.1c0.2-0.2,0.3-0.4,0.3-0.6c0-0.3,0.2-0.7,0.8-0.7l1.3-0.2c0.3-0.2,0.4-0.4,0.4-0.6l-0.1-1.2
		c0-0.2-0.2-0.4-0.5-0.4l-1.3-0.1c-0.5,0-0.7-0.3-0.8-0.5c-0.2-0.2-0.2-0.4-0.4-0.6c-0.1-0.3-0.1-0.5,0-1l0.8-1.1
		c0.2-0.3,0.1-0.6,0-0.8l-0.9-0.6c-0.2-0.2-0.5-0.2-0.7,0l-1,1c-0.4,0.3-0.7,0.3-0.9,0.2c-0.2-0.1-0.5-0.2-0.7-0.2l-0.1-0.1
		c-0.2-0.1-0.5-0.2-0.6-0.7l-0.2-1.4c-0.1-0.3-0.3-0.4-0.5-0.4L158,8.1c-0.2,0-0.4,0.2-0.4,0.5l-0.2,1.4c0,0.5-0.2,0.7-0.5,0.7
		c-0.2,0.2-0.4,0.2-0.6,0.4c-0.3,0.2-0.6,0.2-1,0l-1.1-0.9c-0.2-0.1-0.5,0-0.7,0.1l-0.8,0.9c0,0.2-0.1,0.4,0.1,0.7l1,1
		c0.3,0.4,0.4,0.6,0.1,0.8c0,0.2-0.1,0.4-0.1,0.8c-0.1,0.2-0.2,0.5-0.8,0.6l-1.4,0.3c-0.3,0.1-0.4,0.3-0.4,0.5l0.1,1.2
		c0,0.2,0.2,0.4,0.4,0.4l1.4,0c0.5,0,0.7,0.2,0.7,0.5c0.2,0.3,0.3,0.5,0.4,0.8c0.2,0.3,0.2,0.6,0,0.9l-0.9,1.1
		c-0.1,0.2,0,0.5,0.1,0.7l0.8,0.7c0.2,0.2,0.5,0.2,0.7,0l1-1c0.4-0.3,0.7-0.3,0.9-0.2c0.2,0.1,0.5,0.2,0.7,0.3
		c0.3,0,0.5,0.2,0.6,0.7L158.8,23.3 M162.1,15.6c0.1,1.5-1.1,2.9-2.7,3.1c-1.6,0.2-3-1-3.1-2.7c-0.1-1.5,1.1-2.9,2.6-3
		C160.5,12.8,161.9,14,162.1,15.6"/>
	<path class="st32" d="M153,22.9c0.4-0.3,0.3-0.9,0.1-1.1l-1.5-1.7c-0.2-0.2-0.7-0.3-1.1-0.1l-2.6,1.7c-0.5-0.4-1.2-0.8-1.8-1.2
		l0.8-3.1c0.1-0.3-0.1-0.8-0.4-0.9l-1.9-0.9c-0.4-0.2-0.9,0-1,0.3l-1.8,2.7c-0.7-0.3-1.3-0.5-2-0.5l-0.3-3.2c0-0.5-0.3-0.8-0.8-0.8
		l-2.2,0c-0.3-0.1-0.7,0.2-0.8,0.5l-0.7,3.3c-0.7,0-1.4,0.2-2.1,0.4l-1.6-2.9c-0.2-0.2-0.7-0.5-1-0.4l-2.1,0.8
		c-0.3,0.1-0.6,0.5-0.5,0.9l0.7,3.1c-0.6,0.3-1.2,0.9-1.8,1.2l-2.5-2c-0.2-0.2-0.7-0.3-1,0.1l-1.5,1.4c-0.4,0.3-0.4,0.8-0.2,1
		l1.8,2.7c-0.5,0.7-1.1,1.2-1.3,1.9l-3.1-1c-0.5,0-0.8,0.1-1,0.5l-0.9,1.9c-0.1,0.3,0,0.9,0.4,1.1l2.6,1.7c-0.3,0.7-0.3,1.3-0.5,2
		l-3.2,0.3c-0.3,0.1-0.7,0.4-0.7,0.9l-0.1,2c0,0.5,0.3,0.8,0.6,0.9l3.3,0.5c0.1,0.8,0.2,1.6,0.3,2.3l-2.9,1.6
		c-0.3,0.1-0.6,0.5-0.4,1l0.7,2c0.1,0.3,0.5,0.6,1,0.6l3.2-0.8c0.3,0.6,0.6,1.2,0.9,1.7l-2,2.5c-0.1,0.3-0.1,0.8,0.1,1l1.5,1.7
		c0.2,0.2,0.8,0.4,1,0.2l2.7-1.8c0.5,0.4,1.2,0.8,1.8,1.2l-0.8,3.1c-0.1,0.3,0.1,0.8,0.4,0.9l2,1c0.3,0.1,0.7,0,1-0.3l1.7-2.6
		c0.7,0,1.3,0.3,2,0.3l0.2,3.3c0.1,0.3,0.4,0.7,0.9,0.7l2.1,0.2c0.3-0.1,0.7-0.4,0.8-0.8l0.6-3.1c0.8-0.1,1.5-0.3,2.3-0.3l1.5,2.8
		c0.2,0.5,0.7,0.5,1,0.4l2-0.7c0.5-0.2,0.7-0.6,0.6-1l-0.7-3.1c0.6-0.3,1.2-0.6,1.8-1.2l2.5,2c0.3,0.4,0.8,0.4,1.1,0.1l1.5-1.4
		c0.4-0.3,0.4-0.8,0.1-1.1l-1.8-2.7c0.6-0.5,1-1.1,1.3-1.9l3.1,1c0.3,0.1,0.8-0.1,0.9-0.4l1-2c0.1-0.3-0.1-0.8-0.3-1l-2.7-1.8
		c0.3-0.7,0.4-1.2,0.4-1.9l3.3-0.4c0.3-0.1,0.7-0.4,0.7-0.6l0.1-2.3c0-0.5-0.3-0.8-0.8-0.8l-3.1-0.6c-0.1-0.8,0-1.5-0.2-2.2l2.7-1.6
		c0.5-0.2,0.7-0.6,0.5-1.1l-0.7-2c-0.1-0.3-0.5-0.6-1-0.4L152,27c-0.3-0.6-0.6-1.2-0.9-1.7L153,22.9 M139.1,33
		c1.3,1.4,1.2,3.5-0.2,4.7c-1.3,1.2-3.3,1.1-4.6-0.3c-1.2-1.3-1.2-3.5,0.1-4.6C135.8,31.5,137.9,31.7,139.1,33"/>
	<circle class="st3" cx="279" cy="32.9" r="19.1"/>
	<circle class="st33" cx="47.9" cy="77.8" r="23.8"/>
	<circle class="st28" cx="276.6" cy="32.1" r="23.8"/>
	<g>
		<path class="st34" d="M60.3,82.2c0,2.7-5.1,4.8-11.4,4.8s-11.4-2.2-11.4-4.8v-8.9h22.8V82.2z"/>
		<polygon class="st32" points="68.3,71.7 48.9,78 29.5,71.7 48.9,65.4 		"/>
		<line class="st35" x1="33.6" y1="72.6" x2="33.6" y2="86.1"/>
		<path class="st35" d="M35.9,88.2c0-1.4-1.3-2.5-2.8-2.2c-1.1,0.2-1.8,1.2-1.8,2.3l0,4.4h4.6V88.2z"/>
	</g>
	<g>
		<path class="st3" d="M273.2,17.3l0,5.7l-2.4,1.2l-2.4-1.2l0.2-5.5c-2,0.8-3.5,2.6-3.5,5.1c0.2,2.2,1.4,4.3,3.5,5.1l0,18.3
			c0,1.2,0.8,2,2,2l0.4,0c1.2,0,2.2-1,2.2-2.2L273,27.7c2-0.8,3.5-2.6,3.5-5.1C276.5,20.2,275,18.4,273.2,17.3 M270.7,47
			c-0.8,0-1.2-0.4-1.2-1.2c0-0.8,0.6-1.4,1.2-1.2c0.8,0,1.2,0.4,1.2,1.2C272.2,46.4,271.6,47,270.7,47"/>
		<path d="M282.2,48.2l1.7,0c1.3,0,2.1-0.8,2.1-2.1l-0.2-12.5c0.2-1.1-0.6-1.9-1.5-1.9l0-8.1l1.3-2.1l-1.5-5.3l-1.7,0l-1.5,5.3
			l1.3,2.1l0,8.1c-1.1,0.2-1.9,1.1-1.9,1.9l0,12.7C280.3,47.1,281.2,47.9,282.2,48.2"/>
	</g>
</g>
</svg>
