<?xml version="1.0" encoding="utf-8"?>
<!-- Generator: Adobe Illustrator 21.1.0, SVG Export Plug-In . SVG Version: 6.00 Build 0)  -->
<svg version="1.1" id="图层_1" xmlns="http://www.w3.org/2000/svg" xmlns:xlink="http://www.w3.org/1999/xlink" x="0px" y="0px"
	 viewBox="0 0 115 115" style="enable-background:new 0 0 115 115;" xml:space="preserve">
<style type="text/css">
	.st0{fill:#00ABEC;}
</style>
<path class="st0" d="M51.5,72.5l3.7-9h8.3c3.3,0,6-2.7,6-6s-2.7-6-6-6h-27l15-15v6h12c8.3,0,15,6.7,15,15c0,8.1-6.4,14.6-14.3,14.9
	l12.2,12.2c8.6-6,14.2-15.9,14.2-27.1c0-18.2-14.8-33-33-33s-33,14.8-33,33s14.8,33,33,33c3.6,0,7.1-0.6,10.3-1.7L51.5,72.5z"/>
</svg>