<svg xmlns="http://www.w3.org/2000/svg" width="72" height="85" fill="none"><rect id="backgroundrect" width="100%" height="100%" x="0" y="0" fill="none" stroke="none" class="" style=""/>

<g class="currentLayer" style=""><title>Layer 1</title><g class="" id="svg_11"><path d="M62.18937692182344,14.516806080478432 C62.101747237004645,14.516806080478432 62.01411755218584,14.516806080478432 61.926487867367044,14.516806080478432 C61.25549485218309,6.381010652393101 55.013256846747936,0 47.37109707075328,0 C42.178913059975415,0 37.628528860810434,2.96716858410597 35.032436855421494,7.4338596096992475 C34.15734178576814,7.242437505668406 33.253103586649345,7.114822769647837 32.31967218395951,7.114822769647837 C25.14400277583453,7.114822769647837 19.339312305226052,13.46390235289931 19.339312305226052,21.312537239801884 C19.339312305226052,29.161226896977425 25.14400277583453,35.510306480228905 32.31967218395951,35.510306480228905 C36.14087725722088,35.510306480228905 58.659653217322216,35.510306480228905 62.18937692182344,35.510306480228905 C67.468689876364,35.510306480228905 71.7860792621222,30.820273235517746 71.7860792621222,25.013528895217178 C71.7860792621222,19.20683932518959 67.468689876364,14.516806080478432 62.18937692182344,14.516806080478432 z" fill="#6BBCDA" id="svg_1" class=""/><path d="M39.0286509277924,11.485819174307586 C40.04956179298421,11.485819174307586 41.070472658176016,11.613433910328148 42.03309726443693,11.836787083500624 C44.51246652964721,6.923400665616988 49.296246135063896,3.5733659653401375 54.809455236912214,3.5733659653401375 C55.479947511040066,3.5733659653401375 56.150940526224005,3.6371733333504217 56.79289056015372,3.7328898623931437 C54.22609190654707,1.4038223435264818 50.95875651544614,0 47.37109707075328,0 C42.178913059975415,0 37.628528860810434,2.96716858410597 35.032436855421494,7.4338596096992475 C34.15734178576814,7.242437505668406 33.253103586649345,7.114822769647837 32.31967218395951,7.114822769647837 C25.14400277583453,7.114822769647837 19.339312305226052,13.46390235289931 19.339312305226052,21.31259201007485 C19.339312305226052,26.959735774940256 22.372901771336046,31.841245893955232 26.748327045497092,34.138365912598374 C25.639886643697707,31.968860629975794 25.0273301097615,29.448332667887215 25.0273301097615,26.800244740051028 C25.056473239226946,18.313481402772666 31.29876131876769,11.485819174307586 39.0286509277924,11.485819174307586 z" fill="#8ACAE1" id="svg_2" class=""/><path d="M0.0000016956999289163832,30.75641109723449 V72.32852707898617 V72.61607101207971 C0.0000016956999289163832,79.6666482515335 10.180107425648337,85.37809231686592 22.752112973126202,85.40985907518863 V59.85404970729351 V40.32789969068766 L0.0000016956999289163832,30.75641109723449 z" fill="#50A7E1" id="svg_3" class=""/><path d="M16.159856969471967,21.31259201007485 C16.159856969471967,20.706394628840684 16.18900009893742,20.13207354647517 16.247336431973935,19.525876165241 C6.8548362943557635,21.057307767760747 0.0000016956999289163832,25.811148380482194 0.0000016956999289163832,31.458346915620567 C0.0000016956999289163832,38.349871282368895 10.180107425648337,43.93326244949699 22.752112973126202,43.93326244949699 V35.57411384823918 C18.755948974860907,32.31982853916883 16.159856969471967,27.151212649244073 16.159856969471967,21.31259201007485 z" fill="#C0D557" id="svg_4" class=""/><path d="M40.95390014031419,38.987944962471715 H32.31972225806513 C28.731912591055448,38.987944962471715 25.435784589228312,37.71174283199309 22.75216304723181,35.54218277909755 V43.90127661008239 H22.781356250802872 C30.219564194644988,43.93320767922401 36.811820198299216,41.98700079950095 40.95390014031419,38.987944962471715 z" fill="#C0D557" id="svg_5" class=""/><path d="M39.3287379345246,63.523110293567186 L39.44541060059764,63.235566360473626 L40.52470787293157,60.39627540969849 L40.6413805390046,60.109279179334635 L41.77896407026945,57.17359254813195 L44.46253553816035,58.41797315001487 L44.72507407387748,58.545587886035435 L45.30848747834824,58.80081735807657 V39.051752330482 H40.69971687204111 C36.52849380056067,42.05086293778419 29.965380926371893,43.99706981750727 22.527172982529777,43.99706981750727 H22.497979778958715 V64.06533599597216 H39.12453573184399 L39.3287379345246,63.523110293567186 z" fill="#1E80C6" id="svg_6" class=""/><path d="M40.749697937633584,78.39050089132786 L39.67045073940527,75.51944318222999 L39.55377807333224,75.23189924913645 L38.44533767153284,72.26499356234073 L41.15805226888921,71.05237971878053 L41.42059080460632,70.92476498275995 L42.52903120640572,70.41430603867768 C42.49988807694025,70.06322858893871 42.499838002834636,69.74446560025216 42.499838002834636,69.39338815051318 C42.499838002834636,69.01054394245148 42.49988807694025,68.6594664927125 42.52903120640572,68.2766222846508 L41.42059080460632,67.76616334056854 L41.216388601925715,67.6703153628707 H22.75216304723181 V85.31401109749079 H22.781356250802872 C30.423716323219963,85.31401109749079 37.19103140008937,83.20809410178661 41.333111342104345,79.95419218462705 L40.83722747424119,78.61396360504627 L40.749697937633584,78.39050089132786 z" fill="#1E80C6" id="svg_7" class=""/><path d="M41.15805226888921,67.7026298239231 L38.47443072689269,66.45824922204018 L39.407862129582526,64.00125477659702 H22.752112973126202 H20.768627575779085 L18.143392440924693,70.98884620213508 L10.209300629219399,47.05993302254677 L4.404580114147564,64.28879870969057 H0.0000016956999289163832 V67.31978561586142 H6.679777221140611 L10.355116424757881,56.18498912101984 L18.376737773070758,80.65579938137532 L22.60629717758772,67.73439658224582 H22.752112973126202 H41.216388601925715 L41.15805226888921,67.7026298239231 z" fill="white" id="svg_8" class=""/><path d="M68.16872587280217,72.55198979270459 C68.40207120494823,71.56283866286277 68.51874387102126,70.51015401637554 68.51874387102126,69.4574693698883 C68.51874387102126,68.40423702067137 68.40207120494823,67.41508589082956 68.19826959511252,66.42648246371746 L71.40651754159276,64.99040590643882 L71.66940659604919,64.86279117041826 L71.55273392997614,64.57579494005442 L70.47313621300853,61.70418952822685 L70.3564635469355,61.41719329786301 L70.09407523353521,61.54480803388357 L66.88532654599886,62.980336888432504 C65.9229022361604,61.19373058414459 64.55187322453826,59.72643497127295 62.947498880770056,58.64143586373329 L64.28948491113796,55.1317567718029 L64.406157577211,54.84476054143906 L64.14376926381071,54.71709103514553 L61.54742688789371,53.536627341818814 L61.28503857449343,53.40895783552527 L61.1683659084204,53.69611837670803 L59.82637987805252,57.20590700918436 C58.922041530722495,56.950677537143235 57.95961722088403,56.82306280112266 56.99719291104556,56.82306280112266 C56.03426786015099,56.82306280112266 55.130430253877094,56.950677537143235 54.22609190654707,57.17359254813195 L52.91314885743341,53.664242077839376 L52.796476191360384,53.37708153665662 L52.53408787796009,53.504696272677194 L49.90890281721131,54.685159966003894 L49.646364281494186,54.81299378311634 L49.763036947567215,55.09999001348018 L51.07542918151918,58.609669105410575 C49.442162078813595,59.66235375189781 48.10037634486814,61.161963825821886 47.108608609141754,62.91680337178707 L45.591813876086775,62.21464847230911 L43.90001014392223,61.448960056185726 L43.637471608205104,61.321345320165165 L43.520798942132075,61.608341550529005 L42.44150166979814,64.44818020403385 L42.324829003725114,64.7351764343977 L42.58736753944224,64.86279117041826 L45.796016078767394,66.3306344860196 C45.70848654215982,66.6817119357586 45.65015020912328,67.00047492444516 45.591813876086775,67.35155237418414 C45.53347754305027,67.73439658224582 45.504284339479184,68.11724079030752 45.475141210013746,68.50008499836922 V68.53185175669194 C45.44594800644269,68.81884798705578 45.44594800644269,69.10639192014932 45.44594800644269,69.39338815051318 C45.44594800644269,69.61685086423158 45.44594800644269,69.84031357795 45.475141210013746,70.031461830616 C45.475141210013746,70.12730980831384 45.475141210013746,70.2231577860117 45.5043344135848,70.31845806097985 C45.5043344135848,70.41430603867768 45.53347754305027,70.51015401637554 45.53347754305027,70.63776875239611 C45.56267074662132,71.05237971878053 45.62100707965784,71.46699068516493 45.70848654215982,71.84983489322663 C45.73767974573087,72.04153084862232 45.76682287519631,72.23322680401802 45.82515920823283,72.39260829836131 L45.65015020912328,72.45614181500673 L42.616560743013295,73.82813715291023 L42.35402220729617,73.95575188893079 L42.47069487336921,74.24274811929465 L43.54994207159753,77.1143535311222 L43.66661473767056,77.40134976148605 L43.9291532733877,77.27373502546548 L47.13780181271284,75.83820617091656 C48.10037634486814,77.62481247520448 49.471355282384636,79.09265579080581 51.07542918151918,80.17710719561578 L49.73389381810178,83.68678628754616 L49.61722115202873,83.97378251791 L49.87970961364026,84.10139725393057 L52.47600191545163,85.28224433916807 L52.73839022885193,85.40985907518863 L52.85506289492494,85.12231514209509 L54.19654818423673,81.6131837528944 C55.10088653156674,81.86841322493554 56.06381158246131,81.9960279609561 57.026235892299795,81.9960279609561 C57.98866020213826,81.9960279609561 58.89299854946826,81.86841322493554 59.79733689679827,81.64495051121712 L61.109779204855826,85.15462960314751 L61.22645187092887,85.44162583351135 L61.489340925385264,85.31401109749079 L64.11422554150036,84.13371171498298 L64.37711459595677,84.00609697896242 L64.26044192988374,83.71855304586889 L62.947498880770056,80.20942165666818 C64.58091620579249,79.15618930745124 65.9229022361604,77.65657923352718 66.91487026830917,75.90228739029169 L70.12311821478944,77.36958300316334 L70.38600726924585,77.4971977391839 L70.50267993531888,77.21020150882006 L71.58177691123035,74.37036285531521 L71.6984495773034,74.08336662495137 L71.43606126390311,73.95575188893079 L68.16872587280217,72.55198979270459 zM56.96764918873522,78.23111939698458 C52.53408787796009,78.23111939698458 48.91713508148494,74.30682933866977 48.91713508148494,69.42515490883589 C48.91713508148494,67.38331913250684 49.55883474488661,65.5326316088438 50.60873851722705,64.03356923764944 L50.63828223953739,64.00125477659702 C52.096440194922195,61.959419000267985 54.40085053512857,60.65150488173961 56.96764918873522,60.65150488173961 C61.40171124056647,60.65150488173961 65.01856388883039,64.57579494005442 65.01856388883039,69.4574693698883 C64.98952090757614,74.30682933866977 61.40171124056647,78.23111939698458 56.96764918873522,78.23111939698458 z" fill="#0E4DA7" id="svg_9" class=""/><path d="M50.66732522079161,64.00125477659702 H50.63828223953739 L50.60873851722705,64.03356923764944 C50.60873851722705,64.03356923764944 50.60873851722705,64.06533599597216 50.57969553597282,64.06533599597216 L50.66732522079161,64.00125477659702 z" fill="white" id="svg_10" class=""/></g></g></svg>