<?xml version="1.0" encoding="utf-8"?>
<!-- Generator: Adobe Illustrator 20.1.0, SVG Export Plug-In . SVG Version: 6.00 Build 0)  -->
<svg version="1.1" xmlns="http://www.w3.org/2000/svg" xmlns:xlink="http://www.w3.org/1999/xlink" x="0px" y="0px"
	 viewBox="0 0 407 140" style="enable-background:new 0 0 407 140;" xml:space="preserve">
<style type="text/css">
	.st0{fill:none;stroke:#D6D6D6;stroke-miterlimit:10;}
	.st1{fill:#3999C6;}
	.st2{fill:#59B4D9;}
	.st3{fill:#FFFFFF;}
	.st4{fill:#7FBA00;}
	.st5{fill:#B8D432;}
	.st6{fill:#0072C6;}
	.st7{opacity:0.15;fill:#FFFFFF;enable-background:new    ;}
	.st8{opacity:0.7;fill:#0072C6;enable-background:new    ;}
	.st9{opacity:0.4;fill:#0072C6;enable-background:new    ;}
	.st10{fill:#0078D7;}
	.st11{fill:#478AA9;}
	.st12{clip-path:url(#SVGID_2_);fill:#478AA9;}
	.st13{fill:#FCD116;}
	.st14{opacity:0.6;fill:#FF8C00;enable-background:new    ;}
	.st15{fill:#231F20;}
	.st16{clip-path:url(#SVGID_4_);}
	.st17{fill:#25BBED;}
	.st18{fill:#60D1EF;}
	.st19{fill:#464646;}
	.st20{fill:#B8D71C;}
	.st21{fill:#2E2E2E;}
	.st22{fill:#757575;}
	.st23{fill-rule:evenodd;clip-rule:evenodd;fill:#96BCCE;}
	.st24{fill:#181717;}
	.st25{fill:#395B71;}
	.st26{fill:#CBE4F7;}
	.st27{fill:none;stroke:#000000;stroke-width:2.6811;stroke-miterlimit:10;stroke-dasharray:4.0217,4.0217;}
	.st28{fill:#BAD80B;}
	.st29{fill:#E3F2F9;}
	.st30{fill:#A5A7AA;}
	.st31{fill:none;stroke:#395B71;stroke-width:0.1468;stroke-miterlimit:10;}
	.st32{fill:#5C2D91;}
	.st33{fill:#D9CFFF;}
	.st34{fill:#7851A4;}
	.st35{fill:#5C2D91;stroke:#5C2D91;stroke-width:2;stroke-miterlimit:10;}
	.st36{fill:#CBE7F3;}
	.st37{fill:#59B4D9;enable-background:new    ;}
	.st38{fill:#86C8E3;}
	.st39{opacity:0.65;}
	.st40{fill:#D83B01;}
	.st41{opacity:0.15;enable-background:new    ;}
	.st42{fill-rule:evenodd;clip-rule:evenodd;fill:#A5D6EA;stroke:#A5D6EA;stroke-miterlimit:10;}
	.st43{fill:none;stroke:#000000;stroke-width:2.681;stroke-miterlimit:10;stroke-dasharray:4.0217,4.0217;}
	.st44{fill:#FFB900;}
	.st45{opacity:0.4;fill:#B8D432;enable-background:new    ;}
	.st46{fill:#AEE7DD;}
	.st47{clip-path:url(#SVGID_6_);}
	.st48{fill:none;}
	.st49{fill:#6BD8F7;}
	.st50{fill:#6BD2C1;}
	.st51{fill:#D7E871;}
	.st52{fill:#C8E6F2;}
	.st53{clip-path:url(#SVGID_8_);}
	.st54{clip-path:url(#SVGID_10_);fill:#57A5C4;}
	.st55{clip-path:url(#SVGID_10_);fill:#B4A0FF;}
	.st56{clip-path:url(#SVGID_10_);fill:#6BD8F7;}
	.st57{clip-path:url(#SVGID_10_);fill:#51CBB6;}
	.st58{clip-path:url(#SVGID_10_);fill:none;}
	.st59{clip-path:url(#SVGID_12_);fill:#57A5C4;}
	.st60{clip-path:url(#SVGID_12_);fill:#B4A0FF;}
	.st61{clip-path:url(#SVGID_12_);fill:#6BD8F7;}
	.st62{clip-path:url(#SVGID_12_);fill:#51CBB6;}
	.st63{clip-path:url(#SVGID_12_);fill:none;}
	.st64{fill:#94B3B5;stroke:#59B4D9;stroke-width:2;stroke-miterlimit:10;}
	.st65{clip-path:url(#SVGID_14_);}
	.st66{fill:#8DC2ED;}
	.st67{clip-path:url(#SVGID_16_);}
	.st68{clip-path:url(#SVGID_18_);}
	.st69{fill:#BAD80A;}
	.st70{fill:#A5D6EA;}
	.st71{clip-path:url(#SVGID_18_);fill:none;}
	.st72{clip-path:url(#SVGID_20_);}
	.st73{clip-path:url(#SVGID_20_);fill:none;}
	.st74{clip-path:url(#SVGID_22_);}
	.st75{clip-path:url(#SVGID_22_);fill:none;}
	.st76{clip-path:url(#SVGID_24_);}
	.st77{clip-path:url(#SVGID_24_);fill:none;}
	.st78{fill:#95B1C3;}
	.st79{fill:#427A57;}
	.st80{fill:#FFDD8B;}
	.st81{fill:#FAB05D;}
	.st82{fill:#FFC988;}
	.st83{fill:#00B294;}
	.st84{fill:#E6835F;}
	.st85{fill:#6FD9F8;}
	.st86{fill:#8A68B0;}
	.st87{fill:#B4A0FF;}
	.st88{fill:#489EE2;}
</style>
<g id="frames">
</g>
<g id="Layer_1">
	<path class="st1" d="M351.7,72.6c13.2,0,24-10.8,24-24s-10.8-24-24-24c-13.2,0-24,10.8-24,24S338.4,72.6,351.7,72.6z M347.5,27.3
		c0.4-0.1,0.8-0.1,1.2-0.2c-1.4,1.9-2.5,4.4-3.4,7.4h-5.2C342,31.4,344.6,28.9,347.5,27.3z M363.2,34.6h-4.4c-0.9-2.9-2-5.4-3.3-7.3
		c0.1,0,0.1,0,0.2,0C358.6,28.9,361.2,31.4,363.2,34.6z M368.7,46.9c-0.2-3.8-1.1-7.4-2.6-10.6h3.4c2.1,3.1,3.4,6.7,3.7,10.6H368.7z
		 M373.3,48.7c0,3.1-0.7,6-1.9,8.7h-4c0.8-2.7,1.3-5.6,1.3-8.7H373.3z M355.6,69.8c-0.3,0.1-0.6,0.1-0.9,0.1
		c2.2-2.4,3.9-6.1,4.9-10.8h5.3C362.9,63.9,359.6,67.7,355.6,69.8z M338.4,59.1h6c1,4.7,2.7,8.5,4.9,10.9c-0.5-0.1-1.1-0.1-1.6-0.2
		C343.7,67.7,340.4,63.9,338.4,59.1z M337.7,57.4c-0.9-2.7-1.4-5.6-1.4-8.7h7.1c0,3.1,0.3,6,0.7,8.7H337.7z M359,48.7
		c0,3.1-0.3,6-0.7,8.7h-12.3c-0.5-2.7-0.8-5.6-0.8-8.7H359z M345.1,46.9c0.1-3.8,0.6-7.5,1.5-10.6h10.9c0.8,3.1,1.3,6.8,1.5,10.6
		H345.1z M357.9,59.1c-1.2,5.3-3.3,9.3-5.9,11c-2.5-1.8-4.5-5.8-5.7-11H357.9z M360,57.4c0.5-2.7,0.7-5.6,0.7-8.7h6.2
		c0,3.1-0.5,6-1.4,8.7H360z M366.9,46.9h-6.3c-0.1-3.8-0.6-7.4-1.4-10.6h4.8C365.7,39.4,366.7,43,366.9,46.9z M351.7,26.9
		c0.5,0,0.9,0,1.4,0.1c1.6,1.7,2.9,4.3,3.9,7.5h-9.9c1-3.3,2.4-5.9,4-7.6C351.3,27,351.5,26.9,351.7,26.9z M344.8,36.3
		c-0.8,3.2-1.3,6.7-1.4,10.6h-7.1c0.2-3.9,1.2-7.5,2.8-10.6H344.8z M334.6,46.9h-4.5c0.3-3.9,1.6-7.5,3.7-10.6h3.3
		C335.7,39.5,334.8,43.1,334.6,46.9z M334.5,48.7c0,3.1,0.5,6,1.3,8.7h-3.9c-1.2-2.7-1.9-5.6-1.9-8.7H334.5z M332.8,59.1h3.7
		c1.4,3.5,3.4,6.5,5.8,8.9C338.3,66.1,335,63,332.8,59.1z M360.9,68.1c2.5-2.4,4.5-5.4,5.9-9h3.7C368.3,63,364.9,66.2,360.9,68.1z
		 M368.1,34.6h-2.9c-1.2-2.1-2.6-3.9-4.3-5.5C363.7,30.4,366.1,32.2,368.1,34.6z M342.3,29.1c-1.6,1.6-3,3.4-4.2,5.5h-2.9
		C337.1,32.3,339.6,30.4,342.3,29.1z"/>
	<g>
		<g>
			<circle class="st42" cx="202.7" cy="51.9" r="24"/>
		</g>
	</g>
	<g>
		<circle class="st42" cx="55" cy="51.9" r="24"/>
	</g>
	<g>
		<path class="st3" d="M51.7,36.7l0,5.7l-2.4,1.2l-2.4-1.2l0.2-5.5c-2,0.8-3.5,2.6-3.5,5.1c0.2,2.2,1.4,4.3,3.5,5.1l0,18.3
			c0,1.2,0.8,2,2,2l0.4,0c1.2,0,2.2-1,2.2-2.2l-0.2-18.1c2-0.8,3.5-2.6,3.5-5.1C55,39.6,53.6,37.7,51.7,36.7 M49.3,66.4
			c-0.8,0-1.2-0.4-1.2-1.2c0-0.8,0.6-1.4,1.2-1.2c0.8,0,1.2,0.4,1.2,1.2C50.7,65.8,50.1,66.4,49.3,66.4"/>
		<path d="M60.8,67.6l1.7,0c1.3,0,2.1-0.8,2.1-2.1l-0.2-12.5c0.2-1.1-0.6-1.9-1.5-1.9l0-8.1l1.3-2.1l-1.5-5.3l-1.7,0l-1.5,5.3
			l1.3,2.1l0,8.1c-1.1,0.2-1.9,1.1-1.9,1.9l0,12.7C58.9,66.5,59.7,67.3,60.8,67.6"/>
	</g>
	<g>
		<g>
			<path class="st43" d="M387.8,86.1L387.5,51c0-20.3-16.5-36.8-36.8-36.8S313.8,30.7,313.8,51l-0.3,38c0,20.3-16.5,36.8-36.8,36.8
				s-36.8-16.5-36.8-36.8l-0.3-38c0-20.3-16.5-36.8-36.8-36.8S165.8,30.7,165.8,51l-0.3,38c0,20.3-16.5,36.8-36.8,36.8
				S91.8,109.3,91.8,89l-0.3-38c0-20.3-16.7-36.8-37-36.8c-18.7,0-34.3,14-36.7,32.1"/>
			<g>
				<polygon points="398.7,77.2 396.7,75.3 387.8,85.1 378.7,75.5 376.8,77.3 387.8,89 				"/>
			</g>
			<g>
				<ellipse transform="matrix(7.693710e-02 -0.997 0.997 7.693710e-02 -29.3592 60.3023)" cx="17.9" cy="46" rx="5" ry="5"/>
			</g>
		</g>
	</g>
	<g>
		<path class="st44" d="M214.8,59.1c-1.2-2-8.3-12.5-8.3-12.5v-8.8l1.3-1.7c0.1-0.2,0-0.5-0.2-0.5h-9.3c-0.2,0-0.4,0.3-0.2,0.5
			l1.3,1.7v8.8c0,0-7.1,10.4-8.3,12.5c-1.7,2.8,0.7,5.2,3.1,5.2c1.2,0,3.8,0,6.3,0c2.6,0,5,0,5,0c2.5,0,5.1,0,6.3,0
			C214.2,64.3,216.5,61.9,214.8,59.1z"/>
		<path d="M210.4,52.3h-14.9c-1.9,2.8-3.9,5.8-4.4,6.8c-1.7,2.8,0.7,5.2,3.1,5.2c1.2,0,3.8,0,6.3,0c2.6,0,5,0,5,0c2.5,0,5.1,0,6.3,0
			c2.4,0,4.7-2.4,3.1-5.2C214.3,58.1,212.3,55.1,210.4,52.3z"/>
		<circle class="st3" cx="198.7" cy="55.5" r="1.9"/>
		<circle cx="201.2" cy="50" r="1.1"/>
	</g>
	<path class="st4" d="M141.7,72.3L141.7,72.3c-11-1.2-12.9-6-12.9-6s-2.5,6.2-18.3,6.2v25.6c0,3.1,1.7,6,4.1,8.5l0,0
		c5.4,5.7,14.2,9.6,14.2,9.6s18.3-8,18.3-18.1V72.5C145.1,72.5,143.3,72.4,141.7,72.3z"/>
	<path class="st45" d="M133.4,82.8l8.3-10.5c-11-1.2-12.9-6-12.9-6s-2.5,6.2-18.3,6.2v25.6c0,3.1,1.7,6,4.1,8.5l6.2-7.8L133.4,82.8z
		"/>
	<path class="st3" d="M136.1,90.8H135v-3.6c0-1.7-0.6-3.3-1.7-4.4l0,0l-0.1-0.1c-1.1-1.2-2.7-1.9-4.4-1.9s-3.3,0.8-4.4,1.9
		c-1.1,1.2-1.8,2.8-1.8,4.6v3.6h-1.1c-0.4,0-0.8,0.4-0.8,0.8v7.2l0,0v2.2c0,0.4,0.4,0.8,0.8,0.8H136c0.4,0,0.8-0.4,0.8-0.8v-9.4
		C136.9,91.1,136.5,90.8,136.1,90.8z M132.1,90.8h-5l0,0h-1.5v-3.6c0-1,0.4-1.9,1-2.6c0.6-0.6,1.4-1,2.3-1s1.7,0.4,2.3,1
		c0.1,0.2,0.3,0.3,0.4,0.5l0,0c0.4,0.6,0.6,1.3,0.6,2.1C132.1,87.2,132.1,90.8,132.1,90.8z"/>
	<path class="st6" d="M259.1,73.9v34.9c0,3.6,8.1,6.6,18.1,6.6V73.9H259.1z"/>
	<path class="st6" d="M276.9,115.3h0.2c10,0,18.1-2.9,18.1-6.6V73.9h-18.4V115.3z"/>
	<path class="st7" d="M276.9,115.3h0.2c10,0,18.1-2.9,18.1-6.6V73.9h-18.4V115.3z"/>
	<path class="st3" d="M295.3,73.9c0,3.6-8.1,6.6-18.1,6.6s-18.1-2.9-18.1-6.6c0-3.6,8.1-6.6,18.1-6.6S295.3,70.3,295.3,73.9"/>
	<path class="st4" d="M291.6,73.5c0,2.4-6.4,4.3-14.4,4.3s-14.4-1.9-14.4-4.3c0-2.4,6.5-4.3,14.4-4.3S291.6,71.1,291.6,73.5"/>
	<path class="st5" d="M288.5,76.1c1.9-0.7,3-1.6,3-2.6c0-2.4-6.4-4.3-14.4-4.3c-8,0-14.4,1.9-14.4,4.3c0,1,1.1,1.9,3,2.6
		c2.6-1,6.7-1.7,11.4-1.7C281.8,74.5,285.9,75.1,288.5,76.1"/>
</g>
</svg>
