<svg xmlns="http://www.w3.org/2000/svg" viewBox="0 0 18 18">
    <defs>
        <linearGradient id="a8cd3805-4e73-426a-be19-20610e2ec6df" x1="9" y1="5.38" x2="9" gradientUnits="userSpaceOnUse">
            <stop offset="0.2" stop-color="#005ba1"/>
            <stop offset="1" stop-color="#0078d4"/>
        </linearGradient>
        <linearGradient id="0f74f62c-414c-4894-a357-f473e68a6c3b" x1="12.09" y1="493.3" x2="12.09" y2="496.99" gradientTransform="matrix(1, 0, 0, -1, 0, 506)" gradientUnits="userSpaceOnUse">
            <stop offset="0" stop-color="#198ab3"/>
            <stop offset="0.35" stop-color="#32bedd"/>
            <stop offset="0.8" stop-color="#50e6ff"/>
        </linearGradient>
        <linearGradient id="a111a63e-07fb-488f-a9ae-b9b740b253a6" x1="5.91" y1="497" x2="5.91" y2="500.69" href="#0f74f62c-414c-4894-a357-f473e68a6c3b"/>
    </defs>
    <title>arcadia_icon_1</title>
    <path d="M9,0,1.15,4.49v9L9,18l7.85-4.49v-9Zm6.4,12.57L9,16.27,2.6,12.61V5.38L9,1.68l6.4,3.71Z" fill="#0078d4"/>
    <polygon points="9 0 9 0 1.15 4.49 2.6 5.38 9 1.68 9 1.68 15.4 5.38 16.85 4.49 9 0" fill="url(#a8cd3805-4e73-426a-be19-20610e2ec6df)"/>
    <path d="M11.32,11.59A4.32,4.32,0,0,0,6.12,8.4L5.77,6.94a5.82,5.82,0,0,1,7,4.31Z" fill="#50e6ff"/>
    <path d="M12.74,10.47a.74.74,0,0,0-1-.27L3.61,14.88l1.5.87,7.36-4.25A.76.76,0,0,0,12.74,10.47Z" fill="#50e6ff"/>
    <path d="M12.91,2.24,5.53,6.5a.76.76,0,0,0-.27,1,.75.75,0,0,0,.65.37.69.69,0,0,0,.37-.1l8.14-4.7Z" fill="#50e6ff"/>
    <circle cx="12.09" cy="10.85" r="1.85" fill="url(#0f74f62c-414c-4894-a357-f473e68a6c3b)"/>
    <circle cx="5.91" cy="7.15" r="1.85" fill="url(#a111a63e-07fb-488f-a9ae-b9b740b253a6)"/>
</svg>