<?xml version="1.0" encoding="utf-8"?>
<!-- Generator: Adobe Illustrator 21.0.0, SVG Export Plug-In . SVG Version: 6.00 Build 0)  -->
<svg version="1.1" id="Layer_1" xmlns="http://www.w3.org/2000/svg" xmlns:xlink="http://www.w3.org/1999/xlink" x="0px" y="0px"
	 viewBox="0 0 68 68" style="enable-background:new 0 0 68 68;" xml:space="preserve">
<style type="text/css">
	.st0{fill:#0072C6;}
</style>
<g id="Layer_1_1_">
	<g id="Azure">
		<g>
			<path class="st0" d="M29.8,27.1c-1.3,0-2.4,0.8-2.9,1.9H8.3l0,0c-3.1,0-5.7-2.5-5.7-5.7s2.6-5.7,5.7-5.7l0,0h0.1l0,0h2.6
				c0.1-0.6,0.3-1.3,0.6-1.9c0.1-0.2,0.2-0.4,0.3-0.6c1.3-2.3,3.8-3.8,6.6-3.8c2.5,0,4.8,1.3,6.1,3.1c0.8-0.4,1.6-0.6,2.5-0.9
				c-1.8-2.9-5-4.8-8.5-4.8c-4.2,0-7.9,2.6-9.4,6.3c0,0,0,0,0,0.1l0,0c0,0,0,0,0-0.1H8.3C3.7,15.1,0,18.8,0,23.4s3.7,8.3,8.3,8.3
				h18.6c0.5,1.1,1.6,1.9,2.9,1.9c1.8,0,3.2-1.5,3.2-3.2C32.9,28.5,31.5,27.1,29.8,27.1z"/>
			<path class="st0" d="M39.6,41.3C45.2,41.3,50,36.5,50,31s-4.5-10-10-10.1c-1.9-3.8-5.8-6.3-10.2-6.3c-5.5,0-10,3.9-11.1,8.9
				c-2.6,0.3-4.9,1.7-6.4,3.7h13.5c0.9-1.1,2.4-1.9,4-1.9c2.8,0,5,2.3,5,5s-2.3,5-5,5c-1.6,0-3-0.7-4-1.9H10.7
				c0.6,4.3,4.1,7.8,8.5,7.8L39.6,41.3L39.6,41.3z"/>
		</g>
	</g>
</g>
</svg>
