<svg id="Layer_1" data-name="Layer 1" xmlns="http://www.w3.org/2000/svg" viewBox="0 0 50 50"><defs><style>.cls-1,.cls-7{fill:#fff;}.cls-2,.cls-3,.cls-4,.cls-5,.cls-8{fill:#7fba00;}.cls-2{opacity:0.4;}.cls-2,.cls-3,.cls-4,.cls-5,.cls-7{isolation:isolate;}.cls-3{opacity:0.8;}.cls-4{opacity:0.6;}.cls-5{opacity:0.25;}.cls-6{fill:#a0a1a2;}.cls-7{opacity:0.2;}.cls-9{fill:#dd5900;}.cls-10{fill:#ff8c00;}</style></defs><title>Monitoring</title><path class="cls-1" d="M22.83,4.37A20.75,20.75,0,1,0,37.91,8.76,20.38,20.38,0,0,0,25.05,4.25a21.42,21.42,0,0,0-2.22.12"/><path class="cls-2" d="M16.46,19.47l-5-4.09a16.63,16.63,0,0,0-3,10.23l6.45-.68a10.2,10.2,0,0,1,1.59-5.47"/><path class="cls-3" d="M30.58,16.28l4.09-5a16.64,16.64,0,0,0-10.24-3l.68,6.45a10.21,10.21,0,0,1,5.47,1.58"/><path class="cls-4" d="M22.85,15,22.17,8.5a16.65,16.65,0,0,0-9.35,5.12l5,4.08a10.19,10.19,0,0,1,5-2.75"/><path class="cls-5" d="M15.12,27.19l-6.46.68a16.64,16.64,0,0,0,5.12,9.36l4.08-5a10.19,10.19,0,0,1-2.74-5"/><path class="cls-6" d="M49.86,22.38A25.13,25.13,0,0,0,40.59,5.45a24.24,24.24,0,0,0-3.1-2.1l-2,3.78a19.82,19.82,0,0,1,2.38,1.63A20.74,20.74,0,0,1,27.17,45.63a20.62,20.62,0,0,1-10.74-1.76l-2,3.77A25,25,0,0,0,49.86,22.38"/><path class="cls-6" d="M12,41.13a20.74,20.74,0,0,1,23.57-34l2-3.78A25,25,0,0,0,5.57,9.27h0a24.91,24.91,0,0,0,8.91,38.36l2-3.77A20.81,20.81,0,0,1,12,41.13"/><path class="cls-7" d="M12,41.13a20.74,20.74,0,0,1,23.57-34l2-3.78A25,25,0,0,0,5.57,9.27h0a24.91,24.91,0,0,0,8.91,38.36l2-3.77A20.81,20.81,0,0,1,12,41.13"/><path class="cls-8" d="M36.43,12.65l-4.08,5a10.16,10.16,0,0,1,2.26,3.44h6.78A16.62,16.62,0,0,0,36.43,12.65Z"/><path class="cls-9" d="M23.08,27a2.92,2.92,0,0,1,2.06-5,2.88,2.88,0,0,1,2.06.81H42.13a2.13,2.13,0,1,1,0,4.25H27.06a3,3,0,0,1-1.92.78A2.9,2.9,0,0,1,23.08,27"/><path class="cls-10" d="M42.13,22.88H27.2a2.88,2.88,0,0,0-2.06-.81A2.92,2.92,0,0,0,22.22,25h22A2.13,2.13,0,0,0,42.13,22.88Z"/></svg>