<svg xmlns="http://www.w3.org/2000/svg" id="Layer_1" enable-background="new 0 0 50 50" viewBox="0 0 50 50" x="0px" y="0px" width="100%" height="100%" xmlns:xml="http://www.w3.org/XML/1998/namespace" xml:space="preserve" xmlns:xlink="http://www.w3.org/1999/xlink" version="1.1">
<path fill="#0f0f0f" d="M 28.431 27.562 c 0 0.811 -0.254 1.462 -0.764 1.955 c -0.512 0.493 -1.254 0.796 -2.23 0.908 v 1.59 h -1.07 v -1.546 c -1.006 -0.01 -1.928 -0.234 -2.768 -0.674 v -2.028 c 0.264 0.215 0.684 0.423 1.264 0.626 c 0.578 0.202 1.08 0.318 1.504 0.348 v -2.666 c -1.078 -0.4 -1.844 -0.839 -2.293 -1.314 c -0.449 -0.477 -0.674 -1.103 -0.674 -1.879 s 0.277 -1.432 0.828 -1.967 c 0.553 -0.534 1.266 -0.846 2.139 -0.934 v -1.362 h 1.07 v 1.333 c 1.029 0.049 1.799 0.215 2.307 0.498 v 1.978 c -0.68 -0.41 -1.447 -0.664 -2.307 -0.762 v 2.775 c 1.078 0.392 1.848 0.831 2.307 1.318 C 28.203 26.249 28.431 26.849 28.431 27.562 Z M 24.367 24.017 v -2.322 c -0.678 0.122 -1.018 0.477 -1.018 1.063 C 23.349 23.269 23.689 23.69 24.367 24.017 Z M 26.484 27.664 c 0 -0.473 -0.35 -0.863 -1.047 -1.172 v 2.22 C 26.134 28.599 26.484 28.25 26.484 27.664 Z" />
<path fill="#7fba00" d="M 25 38.81 c -7.627 0 -13.811 -6.183 -13.811 -13.809 s 6.183 -13.809 13.81 -13.81 l 0 0 c 7.627 0 13.81 6.182 13.81 13.809 h 11.19 c 0 -13.807 -11.192 -25 -25 -25 v 0.001 C 11.191 0.002 0 11.194 0 25.001 s 11.192 25 25 25 c 6.393 0 12.221 -2.403 16.641 -6.35 l -7.457 -8.358 C 31.741 37.474 28.53 38.81 25 38.81 Z" />
<path opacity="0.1" fill="#ffffff" enable-background="new" d="M 25 38.81 c -7.627 0 -13.811 -6.183 -13.811 -13.809 s 6.183 -13.809 13.81 -13.81 l 0 0 c 7.627 0 13.81 6.182 13.81 13.809 h 11.19 c 0 -13.807 -11.192 -25 -25 -25 v 0.001 C 11.191 0.002 0 11.194 0 25.001 s 11.192 25 25 25 c 6.393 0 12.221 -2.403 16.641 -6.35 l -7.457 -8.358 C 31.741 37.474 28.53 38.81 25 38.81 Z" />
<path fill="#fcd116" d="M 50 25 H 38.809 c 0 4.096 -1.793 7.764 -4.625 10.292 l 7.457 8.359 C 46.768 39.072 50 32.415 50 25" />
<path opacity="0.9" fill="#b8d432" enable-background="new" d="M 38.809 25 h 11.19 c 0 -13.807 -11.192 -25 -25 -25 v 11.191 C 32.625 11.191 38.809 17.373 38.809 25" />
</svg>