<svg width="49" height="49" viewBox="0 0 49 49" fill="none" xmlns="http://www.w3.org/2000/svg">
<path d="M34.3039 20.8461C37.8601 20.8461 41.096 22.1831 43.5554 24.3796V2.80342C43.5554 1.712 42.6765 0.832031 41.5865 0.832031H2.46883C1.37882 0.832031 0.5 1.712 0.5 2.80342V34.8778C0.5 35.9692 1.37882 36.8492 2.46883 36.8492H20.5834C20.4812 36.167 20.4267 35.4644 20.4267 34.7482C20.4199 27.0741 26.6398 20.8461 34.3039 20.8461Z" fill="#00947D"/>
<path d="M13.6214 4.44531H4.04297V10.5164H13.6214V4.44531Z" fill="#1FC1A7"/>
<path d="M26.7894 4.44531H17.2109V10.5164H26.7894V4.44531Z" fill="#61DDC9"/>
<path d="M13.6214 14.0645H4.04297V20.1355H13.6214V14.0645Z" fill="#9BFDEC"/>
<path d="M13.6214 23.6836H4.04297V29.666H13.6214V23.6836Z" fill="#00B99D"/>
<path d="M26.7894 14.0645H17.2109V20.1355H26.7894V14.0645Z" fill="#04BCA1"/>
<path d="M39.9847 4.44531H30.4062V10.5164H39.9847V4.44531Z" fill="#1DC0A7"/>
<path d="M43.5534 34.8764V24.3851C41.1009 22.1886 37.8581 20.8516 34.302 20.8516C26.6378 20.8516 20.418 27.0727 20.418 34.7536C20.418 35.4699 20.4725 36.1657 20.5747 36.8546H41.5846C42.6746 36.8478 43.5534 35.9679 43.5534 34.8764Z" fill="#00BA9D"/>
<path d="M43.5569 24.3848V34.8829C43.5569 35.9676 42.6781 36.8543 41.5881 36.8543H20.5781C21.5864 43.5325 27.3498 48.6554 34.3054 48.6554C41.9764 48.6486 48.1894 42.4274 48.1894 34.7465C48.1894 30.6264 46.3977 26.9292 43.5569 24.3848Z" fill="#27CFB2"/>
<path d="M41.4369 27.9062L32.7372 36.6104L28.2682 32.1355L25.5977 34.8164L30.0667 39.2912L32.9075 42.1358L35.5781 39.4549L44.2777 30.7508L41.4369 27.9062Z" fill="#C5FDF4"/>
</svg>
