<?xml version="1.0" encoding="utf-8"?>
<!-- Generator: Adobe Illustrator 19.0.1, SVG Export Plug-In . SVG Version: 6.00 Build 0)  -->
<svg version="1.1" id="Layer_1" xmlns="http://www.w3.org/2000/svg" xmlns:xlink="http://www.w3.org/1999/xlink" x="0px" y="0px"
	 viewBox="-563 145 792 792" style="enable-background:new -563 145 792 792;" xml:space="preserve">
<style type="text/css">
	.st0{fill:#0078D7;}
	.st1{fill:#FFFFFF;}
</style>
<rect x="-563" y="145" class="st0" width="792" height="792"/>
<g id="ICON">
	<path class="st1" d="M-81,371.5c-9.2-4.8-19-8.7-29-11.9c-2.9-28.8-27.5-51.2-56.8-51.2c-29.6,0-53.9,22.4-56.8,51.2
		c-0.3,1.8-0.3,4-0.3,5.8c0,8.2,1.8,16.1,5,23.2c9,19.8,28.8,33.8,52,33.8s43.3-14,52-33.8c9.2,3.2,18.2,7.1,26.7,11.9
		c45.1,25.3,76.8,71.8,81.8,125.9h-320.5c4.8-54.1,36.4-100.6,81.6-125.9c-4-9-6.6-18.7-7.4-29c-61.8,31.4-104,95.6-104,169.5h-0.3
		c0,73.9,42.5,138.1,104.3,169.5c9.2,4.8,19,8.7,29,11.9c2.9,28.8,27.2,51.2,56.8,51.2c29.3,0,53.9-22.4,56.8-51.2
		c0.3-1.8,0.3-4,0.3-5.8c0-8.2-1.8-16.1-5-23.2c-9-19.8-28.8-33.8-52-33.8s-43,14-52,33.8c-9.2-3.2-18.2-7.1-26.4-11.9
		c-45.1-25.3-76.8-71.8-81.8-125.9H-6.5c-4.8,54.1-36.7,100.6-81.8,125.9c4,9,6.6,18.7,7.1,29C-19.5,679.1,23,614.9,23,541
		S-19.2,402.9-81,371.5z"/>
</g>
</svg>
