<svg id="add29400-9646-4000-ac0c-cc35fabc534c" data-name="fluent_icons" xmlns="http://www.w3.org/2000/svg" xmlns:xlink="http://www.w3.org/1999/xlink" width="18" height="18" viewBox="0 0 18 18"><defs><linearGradient id="b4ac57b2-df3a-4076-ac00-a5de8399c8cc" x1="1.24" y1="8.65" x2="17.44" y2="8.65" gradientUnits="userSpaceOnUse"><stop offset="0.1" stop-color="#54aef0"/><stop offset="1" stop-color="#1988d9"/></linearGradient></defs><title>Icon-analytics-145</title><path d="M1.41,1.52,16.47,16.58a.57.57,0,0,0,1-.4V1.12a.56.56,0,0,0-.57-.57H1.81A.57.57,0,0,0,1.41,1.52Z" fill="url(#b4ac57b2-df3a-4076-ac00-a5de8399c8cc)"/><path id="b27185b0-e310-437f-9bb6-c6c02affc739" data-name="Path 2" d="M5.47,5.58l6.94,6.94,5-5V1.12a.56.56,0,0,0-.57-.57H10.5Z" fill="#50e6ff"/><rect id="a520972d-0536-44c0-9419-7e1a94d4148d" data-name="Rectangle 1" x="-0.44" y="12.9" width="9.37" height="1.7" rx="0.27" transform="translate(-8.48 7.03) rotate(-45)" fill="#86d633"/><rect id="b0f65d4c-137e-411d-bc65-24715c60cc75" data-name="Rectangle 2" x="0.06" y="9.28" width="5.99" height="1.7" rx="0.27" transform="translate(-6.27 5.12) rotate(-45)" fill="#86d633"/><rect id="fdae2a78-1d10-4855-a6fd-2a48524d6a9a" data-name="Rectangle 3" x="4.83" y="14.09" width="5.99" height="1.7" rx="0.27" transform="translate(-8.27 9.91) rotate(-45)" fill="#86d633"/><rect id="ab542f88-2d5b-4132-99c3-fc872b8763db" data-name="Rectangle 4" x="9.13" y="4.8" width="1.7" height="1.7" rx="0.38" transform="translate(-1.07 8.71) rotate(-45)" fill="#fff"/><rect id="bf569532-ad52-4c34-ae98-0bcda2203439" data-name="Rectangle 5" x="11.53" y="2.4" width="1.7" height="1.7" rx="0.38" transform="translate(1.33 9.71) rotate(-45)" fill="#fff"/><rect id="a8494a55-edcf-43d9-afbe-9d11b803f096" data-name="Rectangle 6" x="11.53" y="7.2" width="1.7" height="1.7" rx="0.38" transform="translate(-2.07 11.11) rotate(-45)" fill="#fff"/><path id="b5642632-9956-4880-90ac-2bbacd77be90" data-name="Rectangle 7" d="M13.85,5.38l.66-.66a.38.38,0,0,1,.54,0l.66.66a.38.38,0,0,1,0,.54l-.66.66a.38.38,0,0,1-.54,0l-.66-.66a.38.38,0,0,1,0-.54" fill="#fff"/></svg>