<svg id="b35aec91-cf66-4194-9850-06d7828e4b62" data-name="fluent_icons" xmlns="http://www.w3.org/2000/svg" xmlns:xlink="http://www.w3.org/1999/xlink" width="18" height="18" viewBox="0 0 18 18"><defs><linearGradient id="a716d404-82ec-4ce2-a276-01c50f6eecd7" x1="9" y1="11.69" x2="9" y2="0.5" gradientUnits="userSpaceOnUse"><stop offset="0" stop-color="#0078d4"/><stop offset="0.16" stop-color="#1380da"/><stop offset="0.53" stop-color="#3c91e5"/><stop offset="0.82" stop-color="#559cec"/><stop offset="1" stop-color="#5ea0ef"/></linearGradient><linearGradient id="e9bc0394-f43c-4f24-871d-a181b13e0a2d" x1="4.86" y1="13.29" x2="13.22" y2="13.29" gradientUnits="userSpaceOnUse"><stop offset="0" stop-color="#32bedd"/><stop offset="0.06" stop-color="#37c5e3"/><stop offset="0.3" stop-color="#49ddf7"/><stop offset="0.45" stop-color="#50e6ff"/><stop offset="0.55" stop-color="#50e6ff"/><stop offset="0.7" stop-color="#49ddf7"/><stop offset="0.94" stop-color="#37c5e3"/><stop offset="1" stop-color="#32bedd"/></linearGradient></defs><title>Icon-migrate-283</title><path d="M16.89,8.18a3.56,3.56,0,0,0-3.08-3.41A4.46,4.46,0,0,0,9.21.5a4.58,4.58,0,0,0-4.38,3A4.23,4.23,0,0,0,1.11,7.56a4.3,4.3,0,0,0,4.44,4.13l.39,0h7.2a.58.58,0,0,0,.19,0A3.59,3.59,0,0,0,16.89,8.18Z" fill="url(#a716d404-82ec-4ce2-a276-01c50f6eecd7)"/><path d="M9,10.41c-2.3,0-4.18-.6-4.18-1.33v7.09c0,.73,1.85,1.32,4.13,1.33H9c2.31,0,4.18-.6,4.18-1.33V9.08C13.22,9.81,11.35,10.41,9,10.41Z" fill="url(#e9bc0394-f43c-4f24-871d-a181b13e0a2d)"/><path d="M13.22,9.08c0,.73-1.87,1.33-4.18,1.33s-4.18-.6-4.18-1.33S6.74,7.75,9,7.75s4.18.59,4.18,1.33" fill="#e8e8e8"/><path d="M12.25,9c0,.47-1.44.85-3.21.85S5.84,9.44,5.84,9,7.28,8.12,9,8.12s3.21.38,3.21.85" fill="#50e6ff"/><path d="M9,9.17a8.57,8.57,0,0,0-2.53.32A8.38,8.38,0,0,0,9,9.82a8.4,8.4,0,0,0,2.54-.33A8.59,8.59,0,0,0,9,9.17Z" fill="#32bedd"/><path d="M6.28,5,8.87,2.4a.31.31,0,0,1,.44,0L11.9,5a.14.14,0,0,1-.1.23H10.21a.14.14,0,0,0-.14.14V8.59A.1.1,0,0,1,10,8.7H8.22a.1.1,0,0,1-.11-.11V5.36A.14.14,0,0,0,8,5.22H6.38A.14.14,0,0,1,6.28,5Z" fill="#f2f2f2"/></svg>