<svg xmlns="http://www.w3.org/2000/svg" width="18" height="18" viewBox="0 0 18 18">
	<linearGradient id="a" x1="2.59" x2="15.41" y1="9.84" y2="9.84"
		gradientTransform="matrix(1 0 0 -1 0 20)" gradientUnits="userSpaceOnUse">
		<stop offset="0" style="stop-color:#005ba1" />
		<stop offset=".07" style="stop-color:#0060a9" />
		<stop offset=".36" style="stop-color:#0071c8" />
		<stop offset=".52" style="stop-color:#0078d4" />
		<stop offset=".64" style="stop-color:#0074cd" />
		<stop offset=".82" style="stop-color:#006abb" />
		<stop offset="1" style="stop-color:#005ba1" />
	</linearGradient>
	<path
		d="M9 5.1c-3.5 0-6.4-1-6.4-2.3v12.4c0 1.3 2.8 2.3 6.3 2.3H9c3.5 0 6.4-1 6.4-2.3V2.8c0 1.3-2.9 2.3-6.4 2.3z"
		style="fill:url(#a)" />
	<path d="M15.4 2.8c0 1.3-2.9 2.3-6.4 2.3s-6.4-1-6.4-2.3S5.5.5 9 .5s6.4 1 6.4 2.3"
		style="fill:#e8e8e8" />
	<path d="M13.9 2.6c0 .8-2.2 1.5-4.9 1.5s-4.9-.6-4.9-1.5S6.3 1.2 9 1.2s4.9.6 4.9 1.4"
		style="fill:#50e6ff" />
	<path d="M9 3c-1.3 0-2.6.2-3.9.6 1.3.4 2.6.6 3.9.5 1.3 0 2.6-.2 3.9-.6C11.6 3.1 10.3 3 9 3z"
		style="fill:#198ab3" />
</svg>