<svg id="Layer_1" data-name="Layer 1" xmlns="http://www.w3.org/2000/svg" viewBox="0 0 64 64"><defs><style>.cls-1{fill:#7fba00;}.cls-2{fill:#96c514;}.cls-3{fill:#3e3e3e;}.cls-4{fill:none;}.cls-5{fill:#1e1e1e;}.cls-6{fill:#b8d432;}.cls-7{fill:#515151;}.cls-8{fill:#fff;opacity:0.1;}</style></defs><title>Artboard 1</title><path id="svg_1" data-name="svg 1" class="cls-1" d="M47.89,7.66h0C33.81,6.09,31.45,0,31.45,0S28.28,8,8,8V40.78c0,4,2.2,7.67,5.25,10.92h0C20.16,59.05,31.45,64,31.45,64S54.9,53.73,54.9,40.78V8a63.59,63.59,0,0,1-7-.36Z"/><path id="svg_2" data-name="svg 2" class="cls-2" d="M37.25,21.2,47.91,7.66C33.81,6.09,31.45,0,31.45,0S28.28,8,8,8V40.78c0,4,2.2,7.67,5.25,10.92l7.87-10Z"/><path id="svg_3" data-name="svg 3" class="cls-3" d="M40.94,47.3A1.69,1.69,0,0,1,39.27,49H22.7A1.69,1.69,0,0,1,21,47.33s0,0,0,0V16.7A1.69,1.69,0,0,1,22.67,15H39.24a1.69,1.69,0,0,1,1.7,1.67s0,0,0,0Z"/><polygon id="canvas_background" data-name="canvas background" class="cls-4" points="8 0 54.9 -3.07 54.9 60.88 8 63.95 8 0"/><path id="svg_4" data-name="svg 4" class="cls-5" d="M23.88,33.4A2.17,2.17,0,0,1,26,31.2h10.1a2.17,2.17,0,0,1,2.2,2.15s0,0,0,.06h0a2.17,2.17,0,0,1-2.15,2.2H26.09a2.22,2.22,0,0,1-2.21-2.2Z"/><path id="svg_6" data-name="svg 6" class="cls-5" d="M23.88,26.86A2.17,2.17,0,0,1,26,24.67H36.14a2.17,2.17,0,0,1,2.2,2.15s0,0,0,.06h0a2.17,2.17,0,0,1-2.15,2.2H26.09a2.21,2.21,0,0,1-2.21-2.2Z"/><path id="svg_8" data-name="svg 8" class="cls-5" d="M23.88,20.38A2.17,2.17,0,0,1,26,18.18h10.1a2.17,2.17,0,0,1,2.2,2.15s0,0,0,.06h0a2.17,2.17,0,0,1-2.15,2.2H26.09a2.26,2.26,0,0,1-2.21-2.2Z"/><circle id="svg_5" data-name="svg 5" class="cls-6" cx="26.23" cy="33.4" r="1.45"/><circle id="svg_7" data-name="svg 7" class="cls-6" cx="26.23" cy="26.86" r="1.45"/><circle id="svg_9" data-name="svg 9" class="cls-6" cx="26.23" cy="20.38" r="1.45"/><line id="svg_10" data-name="svg 10" class="cls-7" x1="21.13" y1="41.69" x2="41.18" y2="16.53"/><path id="svg_11" data-name="svg 11" class="cls-8" d="M21.13,41.7l16-20.36L41,16.42A1.69,1.69,0,0,0,39.32,15H22.71A1.7,1.7,0,0,0,21,16.68s0,0,0,0V41.87Z"/></svg>