<svg fill="none" xmlns="http://www.w3.org/2000/svg" viewBox="0 0 220 270">
    <path d="M220 126.035c0 72.62-87.37 131.077-106.385 142.93-1.086.677-2.338 1.035-3.615 1.035-1.277 0-2.529-.358-3.615-1.035C87.3696 257.112 0 198.655 0 126.035V38.7408c.00338637-1.8116.711171-3.5502 1.97245-4.8451 1.26128-1.295 2.97627-2.0438 4.77932-2.0868C74.7175 30.0084 59.063 0 110 0c50.937 0 35.282 30.0084 103.248 31.8089 1.803.043 3.518.7918 4.78 2.0868 1.261 1.2949 1.969 3.0335 1.972 4.8451v87.2942Z" fill="url(#a)"/>
    <path d="M210.887 126.846c0 66.588-80.14 120.198-97.572 131.076-.994.626-2.143.958-3.316.958s-2.322-.332-3.316-.958C89.2509 247.044 9.11108 193.404 9.11108 126.846V46.7235c.00733-1.6603.65908-3.2523 1.81672-4.4375 1.1576-1.1853 2.7298-1.8702 4.3824-1.9092 62.3343-1.6955 47.9793-29.1682 94.6888-29.1682 46.71 0 32.355 27.4727 94.689 29.1682 1.653.039 3.225.7239 4.383 1.9092 1.157 1.1852 1.809 2.7772 1.816 4.4375v80.1225Z" fill="url(#b)"/>
    <path d="m96 94.9787.0204-27.9743c.0024-3.3154-2.6846-6.0044-6-6.0044H58c-3.3137 0-6 2.6863-6 6v30.3114c0 3.3136 2.6863 5.9996 6 5.9996h29.6459c2.4109 0 4.3541 1.947 4.3541 4.333v40.488c0 1.154-.4463 1.972-1.1335 2.539-.7258.598-1.8372 1.002-3.2206 1.002H58c-3.3137 0-6 2.686-6 6V190c0 3.314 2.6863 6 6 6h32c3.3137 0 6-2.686 6-6v-29.975c0-2.386 1.9432-4.332 4.354-4.332h42.979c3.314 0 6-2.687 6-6v-42.049c0-2.386 1.944-4.333 4.354-4.333H170c3.314 0 6-2.686 6-5.9996V79.7707c0-3.3137-2.686-6-6-6h-18.667c-3.313 0-6 2.6863-6 6v15.208c0 2.3865-1.943 4.3327-4.354 4.3327h-40.625c-2.4103 0-4.3532-1.9455-4.354-4.3312V94.9787Z" fill="#fff" stroke="#5191FB" stroke-width="4"/>
    <defs>
        <linearGradient id="a" x1="20.3732" y1="35.0098" x2="170.569" y2="224.412" gradientUnits="userSpaceOnUse">
            <stop stop-color="#59B8FF"/>
            <stop offset="1" stop-color="#508DFA"/>
        </linearGradient>
        <linearGradient id="b" x1="214.561" y1="260.073" x2="4.34319" y2="10.9247" gradientUnits="userSpaceOnUse">
            <stop stop-color="#79CFFF"/>
            <stop offset="1" stop-color="#648EFA"/>
        </linearGradient>
    </defs>
</svg>