<?xml version="1.0" encoding="UTF-8"?>
<svg width="95" height="126" viewBox="0 0 95 126" xmlns="http://www.w3.org/2000/svg">
    <linearGradient id="linearGradient1" x1="-0" y1="71.59" x2="95.02" y2="71.59" gradientUnits="userSpaceOnUse">
        <stop offset="1e-05" stop-color="#005da1" stop-opacity="1"/>
        <stop offset="0.07" stop-color="#0562aa" stop-opacity="1"/>
        <stop offset="0.36" stop-color="#2772b9" stop-opacity="1"/>
        <stop offset="0.52" stop-color="#3077bb" stop-opacity="1"/>
        <stop offset="0.64" stop-color="#2c74b9" stop-opacity="1"/>
        <stop offset="0.82" stop-color="#186cb5" stop-opacity="1"/>
        <stop offset="1" stop-color="#005da1" stop-opacity="1"/>
    </linearGradient>
    <path id="Path" fill="url(#linearGradient1)" stroke="none" d="M 47.509998 34.389999 C 21.280001 34.389999 -0 26.979996 -0 17.190002 L -0 108.800003 C -0 118.209999 20.889999 125.849998 46.84 125.989998 L 47.509998 125.989998 C 73.739998 125.989998 95.019997 118.580002 95.019997 108.800003 L 95.019997 17.190002 C 95.019997 26.75 73.739998 34.380005 47.509998 34.380005 Z"/>
    <path id="path1" fill="#e2e2e2" stroke="none" d="M 95.019997 17.190002 C 95.019997 26.75 73.739998 34.380005 47.509998 34.380005 C 21.280001 34.380005 -0 26.979996 -0 17.190002 C -0 7.400002 21.280001 0 47.509998 0 C 73.739998 0 95.019997 7.410004 95.019997 17.190002"/>
    <path id="path2" fill="#8ec8e7" stroke="none" d="M 83.980003 15.790001 C 83.980003 21.870003 67.580002 26.760002 47.509998 26.760002 C 27.440001 26.760002 11.04 21.860001 11.04 15.790001 C 11.04 9.720001 27.440001 4.889999 47.509998 4.889999 C 67.580002 4.889999 83.980003 9.779999 83.980003 15.779999"/>
    <path id="path3" fill="#1e89b2" stroke="none" d="M 76.349998 22.459999 C 67.024651 19.559326 57.281494 18.231178 47.52 18.529999 C 37.869331 18.283463 28.246607 19.673111 19.059999 22.639999 C 25.76 25.150002 36.029999 26.75 47.52 26.75 C 53.349998 26.75 58.860001 26.339996 63.75 25.599998 C 68.019997 24.879997 72.230003 23.839996 76.349998 22.449997 Z"/>
    <path id="path4" fill="#f3f3f3" stroke="none" d="M 37.290001 101.529999 C 33.240002 101.529999 30.299999 100.790001 28.469999 99.300003 C 26.629999 97.82 25.709999 95.169998 25.709999 91.370003 L 25.709999 84.690002 C 25.709999 81.279999 24.299999 79.57 21.48 79.57 L 21.48 74.449997 C 24.299999 74.449997 25.709999 72.68 25.709999 69.129997 L 25.709999 62.919998 C 25.709999 59.099998 26.620001 56.410004 28.440001 54.860001 C 30.26 53.309998 33.209999 52.540001 37.290001 52.540001 L 37.290001 57.75 C 34.32 57.75 32.84 59.360001 32.84 62.59 L 32.84 68.519997 C 32.84 72.970001 31.41 75.790001 28.549999 76.949997 L 28.549999 77.059998 C 31.41 78.210002 32.84 81.060003 32.84 85.610001 L 32.84 91.32 C 32.84 93.139999 33.189999 94.43 33.880001 95.190002 C 34.580002 95.949997 35.709999 96.330002 37.290001 96.330002 L 37.290001 101.540001 Z M 73.540001 79.57 C 70.699997 79.57 69.279999 81.309998 69.279999 84.779999 L 69.279999 91.209999 C 69.279999 95.129997 68.379997 97.830002 66.57 99.309998 C 64.760002 100.790001 61.82 101.540001 57.759998 101.540001 L 57.759998 96.330002 C 59.32 96.330002 60.450001 95.949997 61.16 95.199997 C 61.869999 94.449997 62.220001 93.169998 62.220001 91.370003 L 62.220001 85.440002 C 62.220001 81 63.639999 78.230003 66.480003 77.120003 L 66.480003 77.010002 C 63.639999 75.839996 62.220001 72.940002 62.220001 68.300003 L 62.220001 62.59 C 62.220001 59.360001 60.740002 57.75 57.77 57.75 L 57.77 52.540001 C 61.82 52.540001 64.75 53.32 66.57 54.860001 C 68.390002 56.409999 69.300003 59.059999 69.300003 62.810001 L 69.300003 69.18 C 69.300003 72.690002 70.720001 74.440002 73.559998 74.440002 L 73.559998 79.559998 Z"/>
</svg>
