<?xml version="1.0" encoding="utf-8"?>
<!-- Generator: Adobe Illustrator 19.1.0, SVG Export Plug-In . SVG Version: 6.00 Build 0)  -->
<svg version="1.1" id="Layer_1" xmlns="http://www.w3.org/2000/svg" xmlns:xlink="http://www.w3.org/1999/xlink" x="0px" y="0px"
	 viewBox="0 0 50 50" enable-background="new 0 0 50 50" xml:space="preserve">
<path id="bottom_1_" fill="#009EE1" d="M45.405,31.138c0.159-0.113,0.377-0.017,0.408,0.175c0.018,0.115,0.027,0.231,0.027,0.348
	c0,3.241-6.945,7.662-20.836,7.662S4.167,34.902,4.167,31.661c0-0.116,0.009-0.231,0.027-0.344c0.03-0.192,0.249-0.288,0.408-0.175
	c3.442,2.449,10.242,4.535,20.399,4.535C35.164,35.677,41.965,33.589,45.405,31.138z"/>
<path id="mid_1_" fill="#009EE1" d="M25.001,29.427c-11.266,0-18.724-2.514-22.375-5.42c-0.126-0.1-0.316-0.063-0.389,0.08
	c-0.189,0.369-0.284,0.753-0.284,1.151c0,3.584,7.683,8.356,23.048,8.356s23.046-4.772,23.046-8.356
	c0-0.397-0.095-0.782-0.284-1.151c-0.073-0.143-0.263-0.18-0.389-0.08C43.723,26.913,36.266,29.427,25.001,29.427z"/>
<path fill="#009EE1" d="M25.001,10.677C8.334,10.677,0,13.575,0,17.708c0,4.133,8.334,9.636,25.001,9.636S50,21.841,50,17.708
	C50,13.575,41.667,10.677,25.001,10.677z M25,22.135c-11.806,0-17.708-3.012-17.708-5.078S13.194,13.802,25,13.802
	s17.708,1.189,17.708,3.255S36.806,22.135,25,22.135z"/>
</svg>
