<?xml version="1.0" encoding="utf-8"?>
<!-- Generator: Adobe Illustrator 22.1.0, SVG Export Plug-In . SVG Version: 6.00 Build 0)  -->
<svg version="1.1" id="Layer_1" xmlns="http://www.w3.org/2000/svg" xmlns:xlink="http://www.w3.org/1999/xlink" x="0px" y="0px"
	 width="50px" height="50px" viewBox="0 0 50 50" enable-background="new 0 0 50 50" xml:space="preserve">
<path fill="#59B4D9" d="M42.798,15.286c0.009-0.189,0.029-0.375,0.029-0.566c0-6.848-5.559-12.4-12.416-12.4
	c-4.815,0-8.98,2.742-11.04,6.744c-1.019-0.282-2.087-0.444-3.196-0.444C9.561,8.619,4.2,13.985,4.2,21
	c0,6.555,5.126,11.539,11.45,11.539h25.444c4.918,0,8.906-3.899,8.906-8.708C50,19.592,46.901,16.064,42.798,15.286z"/>
<path opacity="0.4" fill="#FFFFFF" d="M15,32.507c0.216,0.012,0.431,0.032,0.65,0.032h25.444c1.019,0,1.994-0.176,2.906-0.484V22H15
	V32.507z"/>
<path fill="#894998" d="M16,22h27v24c0,1.105-0.895,2-2,2H18c-1.105,0-2-0.895-2-2V22z"/>
<rect x="27" y="16" transform="matrix(6.123234e-17 -1 1 6.123234e-17 3 56)" opacity="0.8" fill="#FFFFFF" width="5" height="21"/>
<rect x="27" y="24" transform="matrix(6.123234e-17 -1 1 6.123234e-17 -5 64)" opacity="0.7" fill="#FFFFFF" width="5" height="21"/>
<rect x="27" y="32" transform="matrix(6.123234e-17 -1 1 6.123234e-17 -13 72)" opacity="0.6" fill="#FFFFFF" width="5" height="21"/>
<rect x="29" y="14" transform="matrix(-1.836970e-16 1 -1 -1.836970e-16 54 -5)" opacity="0.2" fill="#FFFFFF" width="1" height="21"/>
<rect x="29" y="22" transform="matrix(-1.836970e-16 1 -1 -1.836970e-16 62 3)" opacity="0.2" fill="#FFFFFF" width="1" height="21"/>
<rect x="29" y="30" transform="matrix(-1.836970e-16 1 -1 -1.836970e-16 70 11)" opacity="0.2" fill="#FFFFFF" width="1" height="21"/>
<path opacity="0.4" fill="#FFFFFF" d="M12.5,25h-7c-0.2,0-0.392,0.03-0.578,0.074C5.637,27.038,6.849,28.73,8.417,30H12.5
	c1.379,0,2.5-1.121,2.5-2.5S13.879,25,12.5,25z"/>
<path fill="#A0A1A2" d="M5.5,29h7c0.828,0,1.5-0.672,1.5-1.5v0c0-0.828-0.672-1.5-1.5-1.5h-7C4.672,26,4,26.672,4,27.5v0
	C4,28.328,4.672,29,5.5,29z"/>
<path fill="#A0A1A2" d="M3.6,37h8.9c0.828,0,1.5-0.672,1.5-1.5l0,0c0-0.828-0.672-1.5-1.5-1.5H3.6c-0.828,0-1.5,0.672-1.5,1.5l0,0
	C2.1,36.328,2.772,37,3.6,37z"/>
<path fill="#A0A1A2" d="M1.6,45h10.9c0.828,0,1.5-0.672,1.5-1.5l0,0c0-0.828-0.672-1.5-1.5-1.5H1.6c-0.828,0-1.5,0.672-1.5,1.5l0,0
	C0.1,44.328,0.772,45,1.6,45z"/>
<path fill="#7A7A7A" d="M12.5,43.44H1.6c-0.542,0-1.012-0.29-1.276-0.72C0.185,42.948,0.1,43.213,0.1,43.5
	c0,0.828,0.672,1.5,1.5,1.5h10.9c0.828,0,1.5-0.672,1.5-1.5c0-0.287-0.085-0.552-0.224-0.78C13.512,43.15,13.042,43.44,12.5,43.44z"
	/>
<path fill="#7A7A7A" d="M12.5,35.434H3.6c-0.542,0-1.012-0.29-1.276-0.72c-0.14,0.228-0.224,0.493-0.224,0.78
	c0,0.828,0.672,1.5,1.5,1.5h8.9c0.828,0,1.5-0.672,1.5-1.5c0-0.287-0.085-0.552-0.224-0.78C13.512,35.144,13.042,35.434,12.5,35.434
	z"/>
<path fill="#7A7A7A" d="M12.5,27.401h-7c-0.542,0-1.012-0.29-1.276-0.72C4.085,26.909,4,27.174,4,27.461c0,0.828,0.672,1.5,1.5,1.5
	h7c0.828,0,1.5-0.672,1.5-1.5c0-0.287-0.085-0.552-0.224-0.78C13.512,27.112,13.042,27.401,12.5,27.401z"/>
</svg>
