<?xml version="1.0" encoding="utf-8"?>
<!-- Generator: Adobe Illustrator 18.1.1, SVG Export Plug-In . SVG Version: 6.00 Build 0)  -->
<svg version="1.0" id="Layer_1" xmlns="http://www.w3.org/2000/svg" xmlns:xlink="http://www.w3.org/1999/xlink" x="0px" y="0px"
	 width="50px" height="50px" viewBox="0 0 50 50" enable-background="new 0 0 50 50" xml:space="preserve">
<g>
	<g>
		<path fill="#FFFFFF" d="M27.8,25c0-1.5-1.3-2.7-2.8-2.7c-1.6,0-2.8,1.2-2.8,2.7s1.3,2.7,2.8,2.7C26.6,27.7,27.8,26.5,27.8,25z"/>
		<path fill-rule="evenodd" clip-rule="evenodd" fill="#0072C6" d="M13.1,33.2c0-0.2,0-0.4-0.1-0.6l11.1-6.2l0,12.3
			c-0.4,0.1-0.8,0.3-1.1,0.6L13,33.8C13.1,33.5,13.1,33.4,13.1,33.2z M12.2,18.8L23.3,25l-11.1,6.2c-0.3-0.3-0.7-0.5-1.1-0.6V19.4
			C11.5,19.3,11.9,19.1,12.2,18.8z M24.1,11.2l0,12.4L13,17.4c0-0.2,0.1-0.4,0.1-0.6c0-0.2,0-0.4-0.1-0.6l10.1-5.6
			C23.4,10.9,23.8,11.1,24.1,11.2z M36.9,16.9c0,0.2,0,0.4,0.1,0.6l-11.1,6.2l0-12.3c0.4-0.1,0.7-0.3,1-0.6L37,16.3
			C36.9,16.5,36.9,16.6,36.9,16.9z M37.8,31.2L26.7,25l11.1-6.2c0.3,0.3,0.6,0.5,1,0.6v11.2C38.5,30.7,38.1,30.9,37.8,31.2z
			 M25.9,38.8l0-12.3L37,32.6c0,0.2-0.1,0.4-0.1,0.6c0,0.2,0,0.4,0.1,0.6l-10.1,5.6C26.6,39.1,26.2,38.9,25.9,38.8z M27.8,41.3
			c0-0.2,0-0.4-0.1-0.6l10.1-5.6c0.5,0.4,1.2,0.7,1.9,0.7c1.5,0,2.8-1.2,2.8-2.7c0-1.2-0.8-2.2-2-2.6V19.4c1.1-0.4,2-1.4,2-2.5
			c0-1.5-1.3-2.7-2.8-2.7c-0.7,0-1.4,0.3-1.9,0.7L27.7,9.3c0-0.2,0.1-0.4,0.1-0.6C27.8,7.2,26.6,6,25,6c-1.6,0-2.8,1.2-2.8,2.7
			c0,0.2,0,0.4,0.1,0.6l-10.1,5.6c-0.5-0.4-1.1-0.7-1.9-0.7c-1.5,0-2.8,1.2-2.8,2.7c0,1.2,0.8,2.2,1.9,2.5v11.2
			C8.3,31,7.5,32,7.5,33.2c0,1.5,1.3,2.7,2.8,2.7c0.7,0,1.4-0.3,1.9-0.7l10.1,5.6c0,0.2-0.1,0.4-0.1,0.6c0,1.5,1.3,2.7,2.8,2.7
			C26.6,44,27.8,42.8,27.8,41.3z"/>
	</g>
</g>
<path fill="#0072C6" d="M25,17.1c4.3,0,7.9,3.5,7.9,7.9s-3.5,7.9-7.9,7.9s-7.9-3.5-7.9-7.9S20.7,17.1,25,17.1 M25,15.6
	c-5.2,0-9.4,4.2-9.4,9.4s4.2,9.4,9.4,9.4s9.4-4.2,9.4-9.4S30.2,15.6,25,15.6L25,15.6z"/>
<g>
	<path fill="#FFFFFF" d="M25,17.1c-4.3,0-7.9,3.5-7.9,7.9s3.5,7.9,7.9,7.9s7.9-3.5,7.9-7.9S29.3,17.1,25,17.1z"/>
</g>
<g>
	<g>
		<path opacity="0.4" fill="#0072C6" enable-background="new    " d="M22.1,23.2l-1.8-1.5c-0.8,1.1-1.1,2.4-1.1,3.6l2.3-0.2
			C21.5,24.5,21.7,23.8,22.1,23.2"/>
		<path opacity="0.8" fill="#0072C6" enable-background="new    " d="M27.1,22.1l1.5-1.8c-1.1-0.8-2.4-1.1-3.6-1.1l0.2,2.3
			C25.8,21.5,26.5,21.7,27.1,22.1"/>
		<path opacity="0.6" fill="#0072C6" enable-background="new    " d="M24.3,21.6l-0.2-2.3c-1.2,0.2-2.4,0.8-3.3,1.8l1.8,1.5
			C23.1,22.1,23.7,21.8,24.3,21.6"/>
		<path opacity="0.25" fill="#0072C6" enable-background="new    " d="M21.6,26l-2.3,0.2c0.2,1.2,0.8,2.4,1.8,3.3l1.5-1.8
			C22.1,27.2,21.7,26.6,21.6,26"/>
		<path fill="#0072C6" d="M29.2,20.8l-1.5,1.8c0.4,0.4,0.6,0.8,0.8,1.2h2.4C30.7,22.7,30.1,21.6,29.2,20.8z"/>
		<path fill="#0072C6" d="M31.9,25.2C31.9,25.2,31.9,25.2,31.9,25.2c0-0.4-0.3-0.8-0.8-0.8l0,0l-0.2,0h-2.4h-2.7c0,0,0,0,0,0
			c-0.2-0.2-0.5-0.3-0.7-0.3c-0.3,0-0.5,0.1-0.7,0.3c-0.4,0.4-0.4,1.1,0,1.5c0.2,0.2,0.5,0.3,0.7,0.3c0.2,0,0.5-0.1,0.7-0.3h5.4
			C31.6,25.9,31.9,25.6,31.9,25.2L31.9,25.2C31.9,25.2,31.9,25.2,31.9,25.2z"/>
	</g>
</g>
</svg>
