<?xml version="1.0" encoding="utf-8"?>
<!-- Generator: Adobe Illustrator 21.0.0, SVG Export Plug-In . SVG Version: 6.00 Build 0)  -->
<svg version="1.1" id="Layer_1" xmlns="http://www.w3.org/2000/svg" xmlns:xlink="http://www.w3.org/1999/xlink" x="0px" y="0px"
	 width="50px" height="50px" viewBox="0 0 50 50" enable-background="new 0 0 50 50" xml:space="preserve">
<path fill="#7A7A7A" d="M47.677,35H2.323C1.592,35,1,35.592,1,36.323v12.354C1,49.408,1.592,50,2.323,50h45.354
	C48.408,50,49,49.408,49,48.677V36.323C49,35.595,48.405,35,47.677,35z"/>
<rect x="42" y="38" fill="#B8D432" width="3" height="3"/>
<rect x="42" y="44" fill="#B8D432" width="3" height="3"/>
<path fill="#59B4D9" d="M42.492,14.837c0.372-1.109,0.581-2.291,0.581-3.522C43.073,5.121,37.98,0.1,31.697,0.1
	c-4.75,0-8.808,2.876-10.511,6.954c-1.51-1.595-3.659-2.563-6.047-2.563c-4.567,0-8.238,3.619-8.238,8.123
	c0,0.8,0.119,1.604,0.337,2.335c-3.56,1.33-6.138,4.714-6.138,8.713C1.1,28.812,5.305,33,10.499,33h29
	c5.208,0,9.402-4.182,9.402-9.338C48.912,19.551,46.227,16.072,42.492,14.837z"/>
<path opacity="0.2" fill="#FFFFFF" enable-background="new    " d="M4.325,28.892c0-4.066,2.703-7.507,6.436-8.859
	c-0.229-0.743-0.353-1.56-0.353-2.374c0-4.579,3.849-8.259,8.639-8.259c2.503,0,4.758,0.984,6.341,2.606
	c1.785-4.146,6.04-7.07,11.022-7.07c1.996,0,3.876,0.471,5.529,1.299C40.095,2.604,36.202,0.1,31.697,0.1
	c-4.75,0-8.808,2.789-10.511,6.742c-1.51-1.547-3.659-2.485-6.047-2.485c-4.567,0-8.238,3.509-8.238,7.876
	c0,0.776,0.119,1.555,0.337,2.264C3.677,15.787,1.1,19.068,1.1,22.946c0,2.741,1.269,5.199,3.271,6.861
	C4.341,29.506,4.325,29.201,4.325,28.892z"/>
<path opacity="0.2" fill="#00188F" enable-background="new    " d="M41.433,25.096c-0.563-1.439-1.927-2.37-3.473-2.37
	c-0.465,0-0.922,0.086-1.357,0.257c-0.12,0.047-0.224,0.115-0.337,0.173l-3.688-3.548C32.849,18.958,33,18.247,33,17.5
	c0-3.033-2.468-5.5-5.5-5.5c-1.467,0-2.799,0.581-3.787,1.521l-2.002-1.247c0.049-0.564-0.016-1.135-0.229-1.677
	c-0.563-1.439-1.926-2.37-3.472-2.37c-0.465,0-0.922,0.086-1.357,0.257c-1.914,0.749-2.861,2.916-2.113,4.829
	c0.563,1.439,1.927,2.37,3.472,2.37c0.001,0,0.001,0,0.001,0c0.465,0,0.922-0.086,1.357-0.257c0.298-0.117,0.566-0.279,0.818-0.461
	l1.975,1.23C22.06,16.614,22,17.049,22,17.5c0,0.597,0.099,1.171,0.276,1.71l-3.855,2.424c-0.475-0.277-1.021-0.438-1.601-0.438
	c-0.397,0-0.787,0.074-1.159,0.22c-1.634,0.64-2.442,2.489-1.804,4.123c0.481,1.229,1.645,2.022,2.963,2.022c0,0,0,0,0.001,0
	c0.396,0,0.787-0.074,1.159-0.22c1.279-0.501,2.04-1.744,2.009-3.044l4.038-2.539c0.499,0.408,1.073,0.726,1.695,0.939
	l-2.606,15.542C21.314,38.829,20,40.505,20,42.5c0,2.481,2.019,4.5,4.5,4.5s4.5-2.019,4.5-4.5c0-1.913-1.205-3.54-2.892-4.19
	l2.596-15.447c0.702-0.158,1.353-0.448,1.926-0.846l3.712,3.572c-0.172,0.716-0.14,1.488,0.148,2.224
	c0.563,1.439,1.927,2.369,3.472,2.37c0.465,0,0.922-0.086,1.357-0.257C41.233,29.176,42.181,27.01,41.433,25.096z"/>
<path fill="#FFFFFF" d="M40.501,25.46c-0.549-1.403-2.131-2.095-3.534-1.546c-0.315,0.123-0.588,0.305-0.825,0.518l-4.796-4.628
	C31.752,19.128,32,18.346,32,17.5c0-2.485-2.015-4.5-4.5-4.5c-1.476,0-2.775,0.721-3.595,1.819l-3.301-2.055
	c0.179-0.571,0.183-1.201-0.052-1.802c-0.549-1.403-2.131-2.095-3.534-1.546c-1.403,0.549-2.095,2.131-1.546,3.534
	c0.549,1.403,2.131,2.095,3.534,1.546c0.434-0.17,0.789-0.446,1.072-0.777l3.274,2.039C23.125,16.293,23,16.882,23,17.5
	c0,0.761,0.207,1.468,0.541,2.096l-5.169,3.25c-0.594-0.601-1.51-0.827-2.347-0.499c-1.123,0.439-1.676,1.704-1.237,2.827
	s1.704,1.676,2.827,1.237c1.053-0.412,1.594-1.55,1.296-2.616l5.252-3.302c0.688,0.767,1.629,1.289,2.698,1.443L24.297,39.02
	C22.46,39.128,21,40.637,21,42.5c0,1.933,1.567,3.5,3.5,3.5s3.5-1.567,3.5-3.5c0-1.662-1.161-3.046-2.714-3.404l2.57-17.132
	c1.101-0.088,2.096-0.55,2.831-1.288l4.803,4.635c-0.301,0.651-0.35,1.416-0.068,2.137c0.549,1.403,2.131,2.095,3.534,1.546
	S41.05,26.863,40.501,25.46z"/>
</svg>
