<svg id="Layer_1" data-name="Layer 1" xmlns="http://www.w3.org/2000/svg" viewBox="0 0 23.77 26"><defs><style>.cls-1{fill:#136bfb;}</style></defs><title>IoT Central Blue</title><path class="cls-1" d="M5,19.58,11.11,23a1.4,1.4,0,0,0,1.5,0c2.7-1.51,5.41-3,8.13-4.5a1,1,0,0,0,.55-.58c0-3,0-6,0-9a1.52,1.52,0,0,0-.89-1.55C17.87,6,15.28,4.6,12.73,3.17a1.58,1.58,0,0,0-1.7,0C8.44,4.6,5.85,6,3.25,7.44A1.48,1.48,0,0,0,2.46,9c0,.67.42.89.9,1.13C5,10.93,5.14,11.16,4.94,13c-.05.48-.24.65-.67.43A34.63,34.63,0,0,1,.4,11.28a.94.94,0,0,1-.39-.9c0-1.1,0-2.2,0-3.3A1.21,1.21,0,0,1,.8,5.87C1.93,5.29,3,4.65,4.14,4,6.55,2.86,8.85,1.48,11.2.21a1.21,1.21,0,0,1,1.35,0Q17.63,3,22.73,5.81a1.72,1.72,0,0,1,1,1.72c-.05,3.67,0,7.34,0,11a1.52,1.52,0,0,1-.86,1.5Q17.64,23,12.36,25.86a.9.9,0,0,1-1,0C7.87,23.92,4.35,22,.85,20a2.47,2.47,0,0,1-.76-2.72c.29-.44.64-.19.92,0C2.34,18.07,3.75,18.73,5,19.58Z"/><path class="cls-1" d="M7.58,8.8C8.72,8.17,9.86,7.55,11,6.91a1.6,1.6,0,0,1,1.7,0c1.32.75,2.65,1.47,4,2.19a1.35,1.35,0,0,1,.77,1.34c0,1.54-.08,3.09,0,4.62a2,2,0,0,1-1.41,2.23,10.38,10.38,0,0,0-.94.48.47.47,0,0,1-.47,0c-.23-.77.47-1,.9-1.18a1.94,1.94,0,0,0,1.19-2.08c0-1.12,0-2.25,0-3.38a1.59,1.59,0,0,0-.92-1.59c-.86-.47-1.75-.9-2.57-1.44a2.31,2.31,0,0,0-2.76,0,13.08,13.08,0,0,1-1.85,1c-.37.16-.73.31-1.08,0A.28.28,0,0,1,7.58,8.8Z"/><path class="cls-1" d="M14.65,17.72h.46c-3.89,2.14-2.6,2.15-6.29.09-3.07-1.71-2.42-.72-2.49-4.26,0-.93.06-1.86,0-2.78a1.72,1.72,0,0,1,1.27-2l0,.27c0,.06.09.15.06.19-1.14,1.8-.45,3.79-.62,5.68a1.42,1.42,0,0,0,.77,1.36c.68.44,1.44.74,2.09,1.21,1.14.8,2.3,1.18,3.59.24A.82.82,0,0,1,14.65,17.72Z"/><path class="cls-1" d="M14.65,17.72a2.44,2.44,0,0,0-.57.24,3.2,3.2,0,0,1-4.46-.05,2.43,2.43,0,0,0-.73-.42c-2-.63-2.63-2-2.32-3.94a11,11,0,0,0,0-2.36c-.07-.91,0-1.7,1-2.12A23.28,23.28,0,0,0,11,7.3a1.62,1.62,0,0,1,1.78,0C14,8,15.25,8.71,16.53,9.39a1.05,1.05,0,0,1,.65,1.07q0,2.52,0,5a1.07,1.07,0,0,1-.64,1.08C15.89,16.93,15.28,17.34,14.65,17.72Z"/></svg>
