<svg id="uuid-b4ee143d-e43b-4317-83b8-2013ecc53270" xmlns="http://www.w3.org/2000/svg" width="18" height="18" viewBox="0 0 18 18">
  <defs>
    <linearGradient id="uuid-8d4768f5-ca79-4952-89f5-5a068b91f4ab" x1="6.328" y1="777.235" x2="6.328" y2="790.163" gradientTransform="translate(0 791.516) scale(1 -1)" gradientUnits="userSpaceOnUse">
      <stop offset=".261" stop-color="#76bc2d" />
      <stop offset=".683" stop-color="#81ce31" />
      <stop offset="1" stop-color="#86d633" />
    </linearGradient>
    <linearGradient id="uuid-6eb2c9f3-e035-4f56-b082-b8e7a9e7e826" x1="9" y1="9.887" x2="9" y2="16.647" gradientTransform="matrix(1, 0, 0, 1, 0, 0)" gradientUnits="userSpaceOnUse">
      <stop offset="0" stop-color="#5ea0ef" />
      <stop offset="1" stop-color="#0078d4" />
    </linearGradient>
  </defs>
  <path d="M11.718,7.39c0,3.475-4.279,6.274-5.209,6.841-.109,.066-.246,.066-.355,0-.934-.567-5.216-3.366-5.216-6.841V3.207c0-.183,.149-.332,.332-.332h0c3.33-.088,2.564-1.522,5.058-1.522s1.728,1.435,5.058,1.523c.183,0,.332,.149,.332,.332V7.39Z" fill="url(#uuid-8d4768f5-ca79-4952-89f5-5a068b91f4ab)" />
  <path d="M17.565,9.887h-6.072c-.396,.771-.972,1.543-1.729,2.312-1.209,1.229-2.525,2.084-3.035,2.395-.12,.073-.258,.111-.398,.111s-.278-.039-.398-.111c-.69-.419-3.477-2.223-4.763-4.707H.435c-.24,0-.435,.195-.435,.435v5.891c0,.24,.195,.435,.435,.435H17.565c.24,0,.435-.195,.435-.435v-5.891c0-.24-.195-.435-.435-.435Z" fill="url(#uuid-6eb2c9f3-e035-4f56-b082-b8e7a9e7e826)" />
  <path d="M16.104,11.209h.78c.083,0,.15,.067,.15,.15v.78c0,.083-.067,.15-.15,.15h-.78c-.083,0-.15-.067-.15-.15v-.782c.001-.082,.068-.148,.15-.148Zm-2.16,0h.78c.083,0,.15,.067,.15,.15v.78c0,.083-.067,.15-.15,.15h-.78c-.083,0-.15-.067-.15-.15v-.782c.001-.082,.068-.148,.15-.148Zm-2.16,0h.78c.083,0,.15,.067,.15,.15v.78c0,.083-.067,.15-.15,.15h-.78c-.083,0-.15-.067-.15-.15v-.782c.001-.082,.068-.148,.15-.148Z" fill="#c3f1ff" />
  <path d="M8.343,5.455c.002-1.113-.899-2.016-2.012-2.018-1.113-.002-2.016,.899-2.018,2.012-.002,.927,.63,1.736,1.531,1.959v2.324c0,.045-.036,.081-.081,.081h-.807c-.045,0-.081,.036-.081,.081v.807c0,.045,.036,.081,.081,.081h.807c.045,0,.081,.036,.081,.081v.614c0,.045,.036,.081,.081,.081h.807c.045,0,.081-.036,.081-.081V7.407c.898-.222,1.529-1.027,1.531-1.952Zm-1.877,1.047c-.578,.076-1.109-.331-1.185-.909s.331-1.109,.909-1.185c.578-.076,1.109,.331,1.185,.909,.012,.092,.012,.184,0,.276-.063,.474-.435,.846-.909,.909Z" fill="#fff" />
</svg>