<svg xmlns="http://www.w3.org/2000/svg" viewBox="0 0 36 36">
  <defs>
    <style>
      .cls-1 {
        fill: #0063b1;
      }

      .cls-2 {
        fill: #fff;
      }
    </style>
  </defs>
  <title>labs-local-insight-wht-bluBG</title>
  <g id="Layer_3" data-name="Layer 3">
    <rect id="Rectangle-3-Copy-3" class="cls-1" width="36" height="36"/>
    <path class="cls-2" d="M19,7H17a6.94,6.94,0,0,0-7,7,7.71,7.71,0,0,0,.61,3,7.67,7.67,0,0,0,1.66,2.3c.05.05.18.11.23.16A5.12,5.12,0,0,1,14,22.75V26a3,3,0,0,0,3,3h2a3,3,0,0,0,3-3V22.75a5.12,5.12,0,0,1,1.5-3.34c0-.05.18-.11.23-.16A7.67,7.67,0,0,0,25.39,17,7.71,7.71,0,0,0,26,14,7,7,0,0,0,19,7Zm2,19a2,2,0,0,1-2,2H17a2,2,0,0,1-2-2V24h6Zm-5.48-9.1a.53.53,0,0,1-.53-.45.41.41,0,0,1,.4-.45h5.23a.41.41,0,0,1,.4.45.53.53,0,0,1-.53.45A1.47,1.47,0,0,0,19,18.25V23H17V18.25A1.47,1.47,0,0,0,15.52,16.9Zm9-.35a6.63,6.63,0,0,1-1.38,1.93,1.34,1.34,0,0,0-.36.29,6.07,6.07,0,0,0-1.74,4V23H20V18.25c0-.15.25-.35.48-.35A1.51,1.51,0,0,0,22,16.45,1.4,1.4,0,0,0,20.61,15H15.38A1.4,1.4,0,0,0,14,16.45a1.51,1.51,0,0,0,1.52,1.45c.23,0,.48.2.48.35V23H15v-.25a6.11,6.11,0,0,0-1.77-4,1.26,1.26,0,0,0-.33-.26,6.6,6.6,0,0,1-1.38-1.93A6.69,6.69,0,0,1,11,14a5.91,5.91,0,0,1,6-6H19a6,6,0,0,1,6,6A6.7,6.7,0,0,1,24.47,16.55Z"/>
  </g>
</svg>
