<svg id="e0602f29-cc90-4f14-b27c-9adc34e96a27" data-name="Layer 1" xmlns="http://www.w3.org/2000/svg" xmlns:xlink="http://www.w3.org/1999/xlink" width="815" height="290" viewBox="0 0 815 290">
  <defs>
    <linearGradient id="adf569ca-e6f5-4256-9d29-4dfccca2cbc8" x1="407.493" y1="43.753" x2="407.493" y2="251.652" gradientUnits="userSpaceOnUse">
      <stop offset="0.18" stop-color="#5ea0ef"/>
      <stop offset="1" stop-color="#0078d4"/>
    </linearGradient>
  </defs>
  <path d="M397.354,67.233s-.071.294-.162.789c-.84.243-1.679.476-2.519.749-1.164.354-2.307.779-3.471,1.194-1.143.445-2.307.89-3.44,1.4a71.354,71.354,0,0,0-6.769,3.329c-2.145,1.2-4.259,2.53-6.313,3.966-.294-.141-.526-.242-.526-.242-20.975-8.014-39.6,1.629-39.6,1.629-1.7,22.31,8.377,36.374,10.371,38.923-.5,1.376-.962,2.773-1.386,4.179a97.31,97.31,0,0,0-3.43,15.612c-.1.769-.193,1.548-.284,2.327-19.376,9.572-25.123,29.191-25.123,29.191,16.179,18.607,35.039,19.76,35.039,19.76.02-.01.03-.03.05-.04a82.61,82.61,0,0,0,8.3,12.151c1.305,1.589,2.681,3.127,4.108,4.614a43.565,43.565,0,0,0,.83,30.9,50.256,50.256,0,0,0,32.327-9.855c1.791.608,3.612,1.144,5.443,1.619a81.652,81.652,0,0,0,16.867,2.51c1.416.06,2.833.091,4.239.081h.688l.445-.011.891-.03.88-.04.02.03c8.479,12.1,23.4,13.811,23.4,13.811,10.614-11.19,11.221-22.29,11.221-24.688h0v-.162c0-.2-.01-.334-.01-.334h0c-.01-.172-.01-.334-.03-.516a68.237,68.237,0,0,0,6.364-5.038A66.132,66.132,0,0,0,476.81,202.1c.294-.445.577-.891.85-1.346,12.01.688,20.479-7.437,20.479-7.437-1.993-12.516-9.126-18.617-10.614-19.77h0a1.829,1.829,0,0,0-.151-.112c-.081-.06-.142-.1-.142-.1h0c-.071-.05-.162-.111-.263-.172.071-.759.142-1.507.182-2.256.091-1.346.121-2.7.132-4.037l-.011-1-.01-.506V165.1c0-.344-.01-.212-.01-.344l-.04-.839-.061-1.134c-.02-.394-.051-.728-.081-1.082s-.061-.7-.1-1.042l-.122-1.043-.141-1.032c-.2-1.376-.466-2.742-.779-4.087a51.83,51.83,0,0,0-16.28-27.228,51.144,51.144,0,0,0-12.85-8.266,50.38,50.38,0,0,0-21.349-4.4l-.88.02-.223.01c-.06,0-.334.01-.3.01l-.364.02-.881.061c-.334.02-.678.051-.971.081-1.214.121-2.418.283-3.612.506a40.046,40.046,0,0,0-23.4,13.669,39.441,39.441,0,0,0-6.465,10.907,38.629,38.629,0,0,0-2.57,11.666c-.061.962-.081,1.923-.061,2.874,0,.233.01.475.02.708l.031.769c.03.466.07.921.111,1.376a31,31,0,0,0,1.072,5.636,30.118,30.118,0,0,0,11.94,16.523,29.315,29.315,0,0,0,8.195,3.895,28.485,28.485,0,0,0,8.145,1.164c.324,0,.648-.011.971-.021.172,0,.344-.02.516-.02l.516-.03c.274-.031.557-.051.83-.081a2.219,2.219,0,0,0,.233-.031l.253-.03c.172-.02.334-.051.506-.071.344-.04.637-.111.941-.162s.607-.121.91-.2c.6-.132,1.174-.314,1.751-.486a22.609,22.609,0,0,0,3.187-1.335,22.95,22.95,0,0,0,2.752-1.68c.243-.172.475-.354.708-.536a2.065,2.065,0,0,0-2.276-3.43c-.213.121-.435.233-.658.344a19.345,19.345,0,0,1-2.388.981,21.16,21.16,0,0,1-2.62.648c-.456.061-.911.131-1.376.172a5.514,5.514,0,0,1-.709.04c-.232.011-.485.031-.7.021s-.445-.01-.678-.01c-.283-.011-.566-.031-.85-.041,0,0-.141,0-.03-.01l-.091-.01-.192-.02c-.132-.011-.253-.021-.385-.041-.253-.03-.506-.061-.759-.1a22.163,22.163,0,0,1-6.081-1.781A21.86,21.86,0,0,1,413.9,172.9a21.3,21.3,0,0,1-4.391-5.5,20.644,20.644,0,0,1-2.378-6.88,20.93,20.93,0,0,1-.243-3.724c.02-.344.031-.678.051-1.022,0,.092.01-.05.01-.06l.01-.122.02-.253c.01-.172.031-.333.051-.505.071-.668.172-1.346.293-2a26.467,26.467,0,0,1,11.069-17.2,25.98,25.98,0,0,1,3.764-2.145,26.512,26.512,0,0,1,4.1-1.488,25.811,25.811,0,0,1,4.32-.759c.729-.06,1.467-.091,2.206-.091.192,0,.344.01.5.01l.6.021.374.01c.152,0,0,0,.071.01l.152.01.6.041a33.758,33.758,0,0,1,13.73,4.118,33.064,33.064,0,0,1,13.457,13.962,31.92,31.92,0,0,1,3.055,9.4c.122.819.223,1.649.294,2.479l.05.627.031.627c.01.213.01.415.02.628s.01.435.01.587v.536l-.01.607c-.02.405-.051,1.062-.071,1.467-.071.9-.142,1.811-.263,2.712s-.263,1.78-.425,2.671c-.182.88-.364,1.76-.6,2.63a41.709,41.709,0,0,1-1.659,5.14,43.222,43.222,0,0,1-5.231,9.491,42.787,42.787,0,0,1-16.756,13.7,42.145,42.145,0,0,1-10.421,3.2,40.794,40.794,0,0,1-5.444.546l-.333.011h-.294l-.587.01h-1.345c.253,0-.041,0-.031-.01l-.182-.011c-.981-.02-1.953-.07-2.924-.141a55.926,55.926,0,0,1-11.484-2.074,56.612,56.612,0,0,1-38.924-39.379,55.882,55.882,0,0,1-1.872-11.161l-.04-.708-.01-.172v-.152l-.01-.313-.02-.618-.011-.151v-.648l-.01-.88v-.577c0-.455.021-.921.031-1.376.07-1.862.222-3.774.465-5.686s.557-3.835.951-5.747.86-3.794,1.386-5.646a74.805,74.805,0,0,1,3.956-10.715,59.3,59.3,0,0,1,12.233-17.646,51.293,51.293,0,0,1,3.855-3.43c1.336-1.072,2.722-2.064,4.148-2.995a49.093,49.093,0,0,1,4.392-2.58c.748-.4,1.517-.759,2.286-1.133.385-.172.779-.344,1.164-.516s.779-.344,1.173-.5c1.569-.667,3.188-1.224,4.807-1.75.414-.121.819-.253,1.224-.374s.829-.223,1.234-.344c.82-.233,1.66-.425,2.489-.638.415-.111.84-.182,1.255-.273s.84-.182,1.265-.263.849-.152,1.264-.233l.638-.111.637-.1c.425-.061.85-.132,1.275-.193.476-.081.961-.121,1.437-.192.394-.05,1.032-.121,1.426-.172l.9-.091.6-.061.3-.03.355-.02,1.446-.091.719-.051s.263-.01.03-.01l.152-.01.3-.01,1.235-.061c1.639-.05,3.268-.05,4.877,0a67.627,67.627,0,0,1,9.47,1.052,66.162,66.162,0,0,1,17.2,5.717,69.3,69.3,0,0,1,14.043,9.157c.253.212.506.435.759.647s.5.435.739.658c.5.435.971.89,1.447,1.325s.931.9,1.4,1.346c.445.455.9.9,1.336,1.366,1.73,1.831,3.339,3.693,4.785,5.565a72.415,72.415,0,0,1,7.073,11.059c.121.223.233.445.344.668s.223.445.324.667c.212.436.435.871.627,1.306s.405.86.6,1.285.364.85.546,1.254c.688,1.67,1.316,3.248,1.832,4.756.85,2.418,1.467,4.6,1.952,6.5a1.593,1.593,0,0,0,3.137-.355,68.272,68.272,0,0,0-2.266-18.758,72.4,72.4,0,0,0-5.221-13.892,76.01,76.01,0,0,0-15.015-20.54c2.833-11.271-3.451-21.045-3.451-21.045-10.846-.678-17.747,3.369-20.306,5.221-.425-.182-.86-.365-1.295-.547-1.852-.748-3.744-1.447-5.7-2.064s-3.946-1.184-5.98-1.659-4.118-.88-6.232-1.2c-.375-.051-.739-.1-1.113-.162-4.715-15.116-18.3-21.44-18.3-21.44-15.156,9.561-18.04,23.008-18.04,23.008" fill="url(#adf569ca-e6f5-4256-9d29-4dfccca2cbc8)"/>
</svg>
