<svg width="290" height="290" xmlns="http://www.w3.org/2000/svg" xmlns:xlink="http://www.w3.org/1999/xlink" xml:space="preserve" overflow="hidden"><defs><clipPath id="clip0"><rect x="495" y="215" width="290" height="290"/></clipPath><linearGradient x1="407.434" y1="43.7466" x2="407.434" y2="251.615" gradientUnits="userSpaceOnUse" spreadMethod="pad" id="fill1"><stop offset="0" stop-color="#5EA0EF"/><stop offset="0.18" stop-color="#5EA0EF"/><stop offset="1" stop-color="#0078D4"/></linearGradient></defs><g clip-path="url(#clip0)" transform="translate(-495 -215)"><path d="M397.296 67.2232C397.296 67.2232 397.225 67.5172 397.134 68.0121 396.294 68.2551 395.455 68.488 394.616 68.761 393.452 69.1149 392.309 69.5399 391.145 69.9548 390.002 70.3998 388.838 70.8447 387.706 71.3546 385.392 72.344 383.133 73.4551 380.938 74.6831 378.793 75.883 376.679 77.2128 374.625 78.6486 374.332 78.5076 374.1 78.4066 374.1 78.4066 353.128 70.3938 334.505 80.0353 334.505 80.0353 332.806 102.342 342.881 116.404 344.875 118.953 344.375 120.328 343.913 121.725 343.489 123.131 341.92 128.231 340.773 133.452 340.06 138.741 339.96 139.51 339.867 140.289 339.776 141.067 320.402 150.638 314.656 170.254 314.656 170.254 330.833 188.859 349.69 190.011 349.69 190.011 349.71 190.001 349.72 189.981 349.74 189.971 352.139 194.26 354.917 198.326 358.039 202.121 359.344 203.709 360.72 205.247 362.146 206.734 358.637 216.788 358.932 227.779 362.976 237.629 374.565 238.175 385.985 234.693 395.298 227.776 397.089 228.384 398.91 228.92 400.741 229.395 406.259 230.817 411.912 231.659 417.605 231.904 419.021 231.964 420.438 231.995 421.844 231.985L422.531 231.985 422.976 231.974 423.867 231.944 424.747 231.904 424.767 231.934C433.245 244.032 448.164 245.743 448.164 245.743 458.776 234.555 459.383 223.456 459.383 221.059L459.383 221.059 459.383 220.897C459.383 220.697 459.373 220.563 459.373 220.563L459.373 220.563C459.363 220.391 459.363 220.229 459.343 220.047 461.562 218.496 463.687 216.814 465.706 215.01 469.926 211.19 473.635 206.841 476.741 202.071 477.035 201.626 477.318 201.18 477.591 200.725 489.599 201.413 498.067 193.289 498.067 193.289 496.074 180.775 488.942 174.675 487.454 173.522L487.454 173.522C487.406 173.482 487.355 173.444 487.303 173.41 487.222 173.35 487.161 173.31 487.161 173.31L487.161 173.31C487.09 173.26 486.999 173.199 486.898 173.138 486.969 172.379 487.04 171.631 487.08 170.882 487.171 169.536 487.201 168.183 487.212 166.846L487.201 165.846 487.191 165.34 487.191 165.076C487.191 164.732 487.181 164.864 487.181 164.732L487.141 163.893 487.08 162.759C487.06 162.365 487.029 162.031 486.999 161.677 486.969 161.324 486.938 160.978 486.899 160.636L486.777 159.593 486.636 158.561C486.436 157.185 486.17 155.819 485.857 154.475 483.41 143.922 477.718 134.401 469.58 127.25 465.735 123.868 461.404 121.082 456.732 118.986 450.023 115.979 442.737 114.477 435.386 114.586L434.506 114.606 434.283 114.616C434.223 114.616 433.949 114.626 433.983 114.626L433.619 114.646 432.738 114.707C432.404 114.727 432.06 114.758 431.767 114.788 430.553 114.909 429.35 115.071 428.156 115.294 419.006 116.992 410.733 121.825 404.759 128.961 402.03 132.224 399.848 135.907 398.295 139.867 396.839 143.598 395.972 147.533 395.725 151.531 395.664 152.493 395.644 153.454 395.664 154.405 395.664 154.637 395.674 154.879 395.684 155.112L395.715 155.881C395.745 156.347 395.785 156.802 395.826 157.257 396.009 159.165 396.368 161.051 396.898 162.892 398.836 169.619 403.058 175.461 408.837 179.413 411.349 181.128 414.113 182.442 417.03 183.307 419.674 184.087 422.418 184.479 425.174 184.471 425.498 184.471 425.822 184.46 426.145 184.45 426.317 184.45 426.489 184.43 426.661 184.43L427.177 184.4C427.451 184.369 427.734 184.349 428.007 184.319 428.085 184.313 428.163 184.303 428.24 184.288L428.493 184.258C428.665 184.238 428.827 184.207 428.999 184.187 429.343 184.147 429.635 184.076 429.939 184.025 430.243 183.974 430.546 183.904 430.849 183.825 431.449 183.693 432.023 183.511 432.6 183.339 433.695 182.976 434.76 182.53 435.787 182.005 436.742 181.51 437.661 180.948 438.538 180.325 438.781 180.153 439.013 179.971 439.246 179.789 440.142 179.083 440.297 177.785 439.591 176.889 438.966 176.094 437.856 175.87 436.97 176.359 436.757 176.48 436.535 176.592 436.313 176.703 435.539 177.083 434.742 177.411 433.925 177.684 433.066 177.956 432.191 178.172 431.305 178.332 430.849 178.393 430.394 178.463 429.929 178.504 429.694 178.533 429.457 178.546 429.221 178.544 428.989 178.555 428.736 178.575 428.521 178.565 428.306 178.555 428.076 178.555 427.843 178.555 427.56 178.544 427.277 178.524 426.993 178.514 426.993 178.514 426.852 178.514 426.963 178.504L426.872 178.494 426.68 178.474C426.548 178.463 426.427 178.453 426.295 178.433 426.042 178.403 425.789 178.372 425.536 178.333 423.435 178.034 421.387 177.434 419.456 176.552 417.406 175.623 415.511 174.383 413.84 172.875 412.082 171.298 410.598 169.439 409.449 167.376 408.256 165.242 407.451 162.912 407.072 160.497 406.88 159.265 406.799 158.019 406.829 156.773 406.849 156.429 406.86 156.095 406.88 155.751 406.88 155.843 406.89 155.701 406.89 155.691L406.9 155.569 406.92 155.316C406.93 155.144 406.951 154.983 406.971 154.811 407.042 154.144 407.143 153.466 407.264 152.812 408.499 145.828 412.486 139.632 418.331 135.614 419.524 134.796 420.783 134.078 422.095 133.47 423.418 132.862 424.789 132.364 426.194 131.982 427.61 131.607 429.055 131.353 430.513 131.223 431.242 131.163 431.98 131.132 432.719 131.132 432.911 131.132 433.063 131.142 433.219 131.142L433.819 131.163 434.193 131.173C434.345 131.173 434.193 131.173 434.264 131.183L434.416 131.193 435.016 131.234C439.834 131.608 444.515 133.012 448.744 135.351 454.523 138.555 459.21 143.418 462.199 149.311 463.699 152.267 464.729 155.437 465.253 158.71 465.375 159.529 465.476 160.359 465.547 161.189L465.597 161.815 465.628 162.442C465.638 162.655 465.638 162.857 465.648 163.07 465.658 163.283 465.658 163.505 465.658 163.657L465.658 164.193 465.648 164.8C465.628 165.205 465.597 165.862 465.577 166.267 465.506 167.167 465.435 168.078 465.314 168.978 465.193 169.879 465.051 170.758 464.889 171.649 464.707 172.529 464.525 173.409 464.289 174.279 463.848 176.026 463.294 177.742 462.631 179.418 461.292 182.788 459.535 185.976 457.4 188.908 453.082 194.834 447.313 199.551 440.647 202.606 437.327 204.119 433.824 205.194 430.227 205.805 428.427 206.109 426.609 206.291 424.784 206.351L424.451 206.362 424.157 206.362 423.57 206.372 422.226 206.372C422.479 206.372 422.185 206.372 422.195 206.362L422.013 206.351C421.032 206.331 420.06 206.281 419.089 206.21 415.2 205.921 411.351 205.226 407.607 204.136 388.663 198.684 373.92 183.769 368.688 164.763 367.688 161.116 367.061 157.377 366.817 153.604L366.777 152.896 366.767 152.724 366.767 152.572 366.757 152.259 366.737 151.641 366.726 151.49 366.726 150.842 366.716 149.962 366.716 149.385C366.716 148.93 366.737 148.464 366.747 148.009 366.817 146.148 366.969 144.236 367.212 142.324 367.455 140.413 367.768 138.49 368.162 136.578 368.556 134.666 369.022 132.785 369.548 130.933 370.592 127.266 371.914 123.685 373.504 120.22 376.473 113.643 380.618 107.664 385.735 102.576 386.961 101.369 388.248 100.224 389.589 99.1466 390.925 98.0747 392.311 97.0829 393.737 96.152 395.155 95.2167 396.621 94.3557 398.128 93.5724 398.876 93.1724 399.645 92.8135 400.414 92.4396 400.799 92.2676 401.193 92.0956 401.578 91.9236 401.962 91.7516 402.356 91.5797 402.75 91.4237 404.319 90.7568 405.938 90.1999 407.557 89.674 407.971 89.553 408.376 89.421 408.781 89.3 409.185 89.179 409.609 89.077 410.014 88.9561 410.834 88.7231 411.674 88.5311 412.503 88.3182 412.918 88.2072 413.343 88.1362 413.758 88.0452 414.173 87.9542 414.598 87.8632 415.023 87.7822 415.448 87.7012 415.871 87.6302 416.286 87.5493L416.924 87.4383 417.561 87.3383C417.986 87.2773 418.411 87.2063 418.836 87.1453 419.312 87.0643 419.797 87.0243 420.273 86.9534 420.667 86.9034 421.305 86.8324 421.699 86.7814L422.599 86.6904 423.198 86.6294 423.498 86.5994 423.853 86.5794 425.299 86.4884 426.018 86.4374C426.018 86.4374 426.281 86.4274 426.048 86.4274L426.2 86.4174 426.5 86.4074 427.735 86.3464C429.374 86.2964 431.002 86.2964 432.611 86.3464 435.788 86.474 438.952 86.8255 442.08 87.3983 448.047 88.5057 453.834 90.4292 459.277 93.1145 464.311 95.5869 469.026 98.6613 473.318 102.27 473.571 102.482 473.824 102.705 474.077 102.917 474.33 103.129 474.577 103.352 474.816 103.575 475.316 104.01 475.787 104.465 476.263 104.9 476.739 105.335 477.194 105.8 477.662 106.246 478.107 106.7 478.562 107.145 478.998 107.611 480.728 109.442 482.337 111.304 483.783 113.176 486.47 116.64 488.837 120.341 490.855 124.233 490.976 124.456 491.088 124.678 491.199 124.901 491.31 125.124 491.422 125.346 491.522 125.568 491.734 126.004 491.957 126.439 492.149 126.874 492.341 127.308 492.554 127.733 492.749 128.158 492.944 128.583 493.113 129.008 493.295 129.412 493.983 131.082 494.611 132.66 495.127 134.167 495.977 136.585 496.594 138.767 497.079 140.667 497.294 141.519 498.16 142.036 499.013 141.82 499.708 141.645 500.199 141.027 500.215 140.312 500.333 133.985 499.57 127.673 497.95 121.556 496.69 116.76 494.941 112.105 492.729 107.666 488.914 100.026 483.839 93.0829 477.716 87.1293 480.549 75.86 474.266 66.0874 474.266 66.0874 463.422 65.4095 456.522 69.4559 453.963 71.3076 453.538 71.1256 453.103 70.9427 452.668 70.7607 450.816 70.0128 448.925 69.3139 446.969 68.697 445.013 68.0801 443.024 67.5132 440.99 67.0382 438.956 66.5633 436.872 66.1584 434.759 65.8384 434.384 65.7874 434.02 65.7384 433.646 65.6764 428.932 50.5626 415.349 44.2396 415.349 44.2396 400.195 53.7992 397.311 67.2442 397.311 67.2442" fill="url(#fill1)" transform="matrix(1 0 0 1.00015 232.559 215)"/></g></svg>