<svg xmlns="http://www.w3.org/2000/svg" id="media-protection" viewBox="0 0 50 50">
    <path fill="#3E3E3E" d="M42.1,18.5L42.1,18.5v-2.2c0-4.4-1.6-8.5-4.4-11.4C35.1,1.9,29.3,0,25,0S14.9,1.9,12.3,4.9 c-2.7,2.9-4.4,7-4.4,11.4v2.2l0,0l7.9,0.9v-2c0-2.6,0.9-5.9,2.4-7.6s4.7-2.5,6.8-2.6c2.1,0,5.3,0.9,6.8,2.6c1.5,1.7,2.4,3.9,2.4,6.4 v3.2L42.1,18.5z"/>
    <path fill="#59B4D9" d="M7.9,18.5L7.9,18.5c-3.9,0-5.3,2.3-5.3,5.3v20.9c0,2.6,1.6,5.3,4.6,5.3h35.6c3.4,0,4.6-2.7,4.6-5.3V23.8 c0-2.7-1.1-5.3-5.3-5.3l0,0H7.9z"/>
    <polygon fill="#FFFFFF" points="21.371,26 32.371,33.316 21.371,40.631 "/>
    <path opacity="0.15" fill="#FFFFFF" d="M34.1,18.5L34.1,18.5H7.9l0,0c-3.9,0-5.3,2.3-5.3,5.3v20.9 c0,2.6,1.6,5.3,4.6,5.3h6.7L34.1,18.5z"/>
</svg>
