<svg id="Layer_1" data-name="Layer 1" xmlns="http://www.w3.org/2000/svg" viewBox="0 0 80 80"><defs><style>.cls-1{fill:#005f87;}.cls-2{fill:#0f80b0;}.cls-3{fill:#fff;}.cls-4{fill:#7fb900;}.cls-5{fill:#b7d332;}</style></defs><title>MySQL SVG</title><path class="cls-1" d="M18,19.25v80.94c0,8.52,18.83,15.25,41.93,15.25V19.25Z" transform="translate(-18 -4)"/><path class="cls-2" d="M59.48,115.43h.67c23.32,0,41.85-6.91,41.85-15.43V19l-42.52.25Z" transform="translate(-18 -4)"/><path class="cls-3" d="M102.08,19.25c0,8.3-18.83,15.25-41.93,15.25S18,27.54,18,19.25,36.83,4,59.93,4s42.15,7,42.15,15.25" transform="translate(-18 -4)"/><path class="cls-4" d="M93.56,18.35c0,5.61-15,10.09-33.41,10.09S26.52,24,26.52,18.35s15-10.09,33.41-10.09,33.63,4.48,33.63,10.09" transform="translate(-18 -4)"/><path class="cls-5" d="M86.38,24.4c4.48-1.79,7-3.81,7-6.05C93.34,12.74,78.39,8,60,8S26.52,12.74,26.52,18.35c0,2.24,2.69,4.48,7,6.05C39.53,21.94,49.24,21,60,21s20.33,1.16,26.39,3.4" transform="translate(-18 -4)"/><path class="cls-3" d="M93,77.05c0,4.78-3.26,8.87-8,8.95H67V79H83c1-.08,1.83-2.9,1.83-2.9L83,77H73c-4,0-7-2.35-7-6V70c0-6.14,0-8.93,0-10l-3-1V78H55l0-14.52L50.42,73.61C49.26,76.3,48.06,78,45,78a7.16,7.16,0,0,1-6.74-4.39L34,63V78H26l0-22.24c0-2.58.5-4.16,2.86-4.9a11.71,11.71,0,0,1,3.4-.58,6.3,6.3,0,0,1,6.11,3.91L45,67l5.34-12.81a6.32,6.32,0,0,1,6.1-3.91,12.7,12.7,0,0,1,3.36.54c2.37.75,3.2,2.6,3.2,5.18v2.77c0,.13-.13.23,0,.23H75V69a3,3,0,0,0,2,1h7V59h9V77.05Z" transform="translate(-18 -4)"/></svg>