<svg id="Layer_1" data-name="Layer 1" xmlns="http://www.w3.org/2000/svg" viewBox="0 0 80 80"><defs><style>.cls-1{fill:#0078d7;}</style></defs><title>logo_azure</title><g id="Layer_1-2" data-name="Layer 1"><g id="Azure"><path class="cls-1" d="M47.53,41A5,5,0,0,0,43,43.9H14.43a8.8,8.8,0,1,1,0-17.6h4a14,14,0,0,1,.9-2.9c.2-.3.3-.7.5-1a11.6,11.6,0,0,1,10.1-5.8,11.74,11.74,0,0,1,9.4,4.7,17.06,17.06,0,0,1,3.8-1.3,15.56,15.56,0,0,0-27.6,2.4v.1h0v-.1h-1.1A12.87,12.87,0,0,0,1.73,35.2a12.72,12.72,0,0,0,12.7,12.7h28.7a5,5,0,0,0,4.5,2.9,4.91,4.91,0,0,0,4.9-4.9A5.06,5.06,0,0,0,47.53,41Z"/><path class="cls-1" d="M62.73,62.8a16.23,16.23,0,0,0,16-15.9,15.6,15.6,0,0,0-15.5-15.6,17.54,17.54,0,0,0-32.8,4,13.64,13.64,0,0,0-9.8,5.7h20.9a7.64,7.64,0,0,1,6.1-2.9,7.8,7.8,0,1,1-6.1,12.7H18.23c.9,6.6,6.2,12,13.1,12Z"/></g></g></svg>