<svg id="b03d4b63-3848-4cdd-a0cf-736b5318b740" data-name="fluent_icons" xmlns="http://www.w3.org/2000/svg" xmlns:xlink="http://www.w3.org/1999/xlink" width="18" height="18" viewBox="0 0 18 18">
  <defs>
    <linearGradient id="b4ef3007-6543-4703-9c9c-06ed0de624cf" x1="9" y1="0.81" x2="9" y2="21.28" gradientUnits="userSpaceOnUse">
      <stop offset="0" stop-color="#ffd70f"/>
      <stop offset="0.34" stop-color="#eeb309"/>
      <stop offset="0.77" stop-color="#dc8c03"/>
      <stop offset="1" stop-color="#d57d01"/>
    </linearGradient>
  </defs>
  <title>Icon-web-45</title>
  <g>
    <g>
      <path d="M17.5,2.5V13.33a.58.58,0,0,1-.59.58H12.39a.14.14,0,0,0-.14.14V15.8a.28.28,0,0,1-.45.22L9.08,13.94l-.09,0H1.09a.58.58,0,0,1-.59-.58V2.5a.58.58,0,0,1,.59-.58H16.91A.58.58,0,0,1,17.5,2.5Z" fill="url(#b4ef3007-6543-4703-9c9c-06ed0de624cf)"/>
      <path d="M2.05,9l3,2.52a.29.29,0,0,0,.47-.22v-1.1H17.48V8.5H2.23A.29.29,0,0,0,2.05,9Z" fill="#ffe452"/>
      <path d="M16.24,6.46,13.13,3.94a.29.29,0,0,0-.47.22v1.1H.5V7H16.06A.29.29,0,0,0,16.24,6.46Z" fill="#fff"/>
    </g>
    <rect width="18" height="18" fill="none"/>
  </g>
</svg>
