<svg width="49" height="49" viewBox="0 0 49 49" fill="none" xmlns="http://www.w3.org/2000/svg">
<path d="M17.1671 41.9588L23.6591 48.4508H34.1951C35.4791 48.4508 36.5111 47.4068 36.5111 46.1348V21.7988L17.1671 41.1548C16.9391 41.3708 16.9391 41.7308 17.1671 41.9588Z" fill="#235DC1"/>
<path d="M0.644531 14.9022V25.4382L7.13652 31.9302C7.36452 32.1582 7.72452 32.1582 7.94052 31.9302L27.2965 12.5742H2.96053C1.68853 12.5742 0.644531 13.6182 0.644531 14.9022Z" fill="#3B6EC6"/>
<path d="M25.004 3.10425L9.38005 27.0082C8.85205 27.8242 8.96005 28.8922 9.64405 29.5762L19.652 39.5842C20.336 40.2682 21.416 40.3762 22.22 39.8482L46.124 24.2122C47.648 23.2162 48.56 21.5122 48.56 19.7002V3.03225C48.56 1.72425 47.492 0.65625 46.184 0.65625H29.528C27.704 0.65625 26.012 1.58025 25.004 3.10425Z" fill="#5D8DE4"/>
<path d="M4.16052 45.1648V36.7168H0.644531V48.5008H12.6085V45.1648H4.16052Z" fill="#9FBBF0"/>
<path d="M36.5692 18.3669C39.8564 18.3669 42.5212 15.7021 42.5212 12.4149C42.5212 9.12769 39.8564 6.46289 36.5692 6.46289C33.282 6.46289 30.6172 9.12769 30.6172 12.4149C30.6172 15.7021 33.282 18.3669 36.5692 18.3669Z" fill="#ADC5F2"/>
<path d="M25.9153 20.3894L13.1875 33.1172L16.1234 36.0531L28.8511 23.3253L25.9153 20.3894Z" fill="#6C9AEE"/>
<path d="M13.5886 38.5852L16.1172 36.0566L13.1813 33.1208L10.6527 35.6494L13.5886 38.5852Z" fill="#88ACEF"/>
</svg>
