<svg xmlns="http://www.w3.org/2000/svg" viewBox="0 0 180 134.73"><defs><style>.cls-1{fill:#020202;}</style></defs><title>Asset 1</title><g id="Layer_2" data-name="Layer 2"><g id="Layer_1-2" data-name="Layer 1"><path class="cls-1" d="M158.77,116.62h-3.63v-7.26h3.63a14,14,0,0,0,14-14V21.23a14,14,0,0,0-14-14H21.23a14,14,0,0,0-14,14V95.39a14,14,0,0,0,14,14h3.63v7.26H21.23A21.25,21.25,0,0,1,0,95.39V21.23A21.25,21.25,0,0,1,21.23,0H158.77A21.25,21.25,0,0,1,180,21.23V95.39a21.25,21.25,0,0,1-21.23,21.23"/><path class="cls-1" d="M43.53,134.73a9.85,9.85,0,0,1-9.85-9.85V102.17a9.85,9.85,0,0,1,9.85-9.86h0a9.85,9.85,0,0,1,9.85,9.85v22.71a9.85,9.85,0,0,1-9.85,9.86Z"/><path class="cls-1" d="M74.51,134.73a9.85,9.85,0,0,1-9.85-9.85V66.57a9.85,9.85,0,0,1,19.71,0v58.31a9.85,9.85,0,0,1-9.85,9.85"/><path class="cls-1" d="M136.48,134.45a9.85,9.85,0,0,1-9.85-9.85V42a9.85,9.85,0,0,1,19.71,0v82.59a9.85,9.85,0,0,1-9.85,9.85"/><path class="cls-1" d="M105.49,134.73a9.85,9.85,0,0,1-9.85-9.85V81.56a9.85,9.85,0,1,1,19.71,0v43.32a9.85,9.85,0,0,1-9.85,9.85"/></g></g></svg>