<svg xmlns="http://www.w3.org/2000/svg" id="b90f7485-edb8-49cc-9118-bc054cf5c18e" width="18" height="18" viewBox="0 0 18 18"><defs><linearGradient id="ad52e31e-75de-46af-9bdc-bea038ab4209" x1="9" x2="9" y1="15.83" y2="5.79" gradientUnits="userSpaceOnUse"><stop offset="0" stop-color="#32bedd"/><stop offset=".18" stop-color="#32caea"/><stop offset=".41" stop-color="#32d2f2"/><stop offset=".78" stop-color="#32d4f5"/></linearGradient></defs><path fill="url(#ad52e31e-75de-46af-9bdc-bea038ab4209)" d="M.5,5.79h17a0,0,0,0,1,0,0v9.48a.57.57,0,0,1-.57.57H1.07a.57.57,0,0,1-.57-.57V5.79A0,0,0,0,1,.5,5.79Z"/><path fill="#767676" d="M1.07,2.17H16.93a.57.57,0,0,1,.57.57V5.79a0,0,0,0,1,0,0H.5a0,0,0,0,1,0,0V2.73A.57.57,0,0,1,1.07,2.17Z"/><circle cx="12.82" cy="10.19" r="1.38" fill="#f2f2f2"/><circle cx="9.06" cy="10.19" r="1.38" fill="#f2f2f2"/><circle cx="5.18" cy="10.19" r="1.38" fill="#f2f2f2"/><rect width="12.43" height="1.46" x="2.79" y="3.25" fill="#f2f2f2" rx=".28"/></svg>