<svg xmlns="http://www.w3.org/2000/svg" xmlns:svg="http://www.w3.org/2000/svg" width="245" height="245">
 <defs>
  <style>.a{fill:#77bc1f;}</style>
 </defs>
 <title>Asset 1</title>
 <g class="layer">
  <title>Layer 1</title>
  <path class="a" d="m209.36,99c-2.28,-15.29 -7,-32.54 -13.39,-51.64a75.79,75.79 0 0 1 -8.78,15.64a82.37,82.37 0 0 0 -129.77,15.1a54.57,54.57 0 0 1 33.67,14.15a56.91,56.91 0 0 0 -31.81,-9.38a58.28,58.28 0 0 0 0,116.57l134.4,0a51.42,51.42 0 0 0 15.68,-100.44zm-125.57,82.47a7,7 0 1 1 -1,-9.91a7,7 0 0 1 1,9.91zm111.83,-24.68c-20.34,27.09 -63.76,18 -91.61,19.26c0,0 -4.93,0.28 -9.9,1.1c0,0 1.88,-0.8 4.28,-1.63c19.55,-6.76 28.8,-8.12 40.69,-14.23c22.32,-11.44 44.55,-36.35 49.06,-62.23c-8.5,24.9 -34.35,46.32 -57.88,55c-16.12,5.94 -45.26,11.74 -45.26,11.75l-1.18,-0.63c-19.82,-9.64 -20.37,-52.55 15.61,-66.38c15.78,-6.07 30.87,-2.73 47.92,-6.8c18.19,-4.32 39.25,-18 47.81,-35.79c9.61,28.48 21.14,73.03 0.46,100.58z" fill="black" id="svg_1"/>
 </g>
</svg>