<svg id="b6ccb8a9-c4a8-466a-8b08-f11e0c599479" data-name="fluent_icons" xmlns="http://www.w3.org/2000/svg" xmlns:xlink="http://www.w3.org/1999/xlink" width="18" height="18" viewBox="0 0 18 18">
  <defs>
    <linearGradient id="a1032dd5-d581-429c-a0fe-6d848ae13f58" x1="9" y1="12.67" x2="9" y2="0.59" gradientUnits="userSpaceOnUse">
      <stop offset="0" stop-color="#198ab3"/>
      <stop offset="0" stop-color="#198ab3"/>
      <stop offset="0.11" stop-color="#22a5cb"/>
      <stop offset="0.23" stop-color="#29bade"/>
      <stop offset="0.37" stop-color="#2ec9eb"/>
      <stop offset="0.53" stop-color="#31d1f3"/>
      <stop offset="0.78" stop-color="#32d4f5"/>
    </linearGradient>
  </defs>
  <title>Icon-other-353</title>
  <g>
    <path d="M17.52,8.88A3.83,3.83,0,0,0,14.2,5.2a4.83,4.83,0,0,0-5-4.61A4.93,4.93,0,0,0,4.5,3.81a4.58,4.58,0,0,0-4,4.4,4.64,4.64,0,0,0,4.8,4.46l.42,0h7.77a.76.76,0,0,0,.21,0A3.87,3.87,0,0,0,17.52,8.88Z" fill="url(#a1032dd5-d581-429c-a0fe-6d848ae13f58)"/>
    <circle cx="9.02" cy="12.85" r="4.42" fill="#f2f2f2"/>
    <path d="M12.7,10.1a4.58,4.58,0,0,0-6.39-.89l0,0a4.56,4.56,0,0,0,5.59,7.21h0A4.58,4.58,0,0,0,12.7,10.1ZM5.1,12.56A3.69,3.69,0,0,1,5.54,11h1.1a7.53,7.53,0,0,0-.21,1.55ZM7.25,11H8.77v1.55H7A7.4,7.4,0,0,1,7.25,11Zm2.1,0h1.51a6.29,6.29,0,0,1,.24,1.55H9.35Zm-.58,2.13v1.55H7.25A7.3,7.3,0,0,1,7,13.14Zm.58,0H11.1a6.21,6.21,0,0,1-.24,1.55H9.35Zm2.34,0H13a4,4,0,0,1-.44,1.55h-1.1A7.35,7.35,0,0,0,11.69,13.14Zm0-.58A7.53,7.53,0,0,0,11.48,11h1.1A3.93,3.93,0,0,1,13,12.56Zm.52-2.13H11.3a4.27,4.27,0,0,0-.65-1.22A3.92,3.92,0,0,1,12.21,10.43Zm-1.55,0H9.35V8.94A2.34,2.34,0,0,1,10.66,10.43ZM8.77,8.94v1.49H7.45A2.35,2.35,0,0,1,8.77,8.94Zm-2.15.77,0,0a4.4,4.4,0,0,1,.8-.47,4.52,4.52,0,0,0-.64,1.22H5.91A3.72,3.72,0,0,1,6.62,9.71ZM5.09,13.14H6.43a7.35,7.35,0,0,0,.21,1.55H5.53A4.05,4.05,0,0,1,5.09,13.14Zm.83,2.15h.9a4.6,4.6,0,0,0,.64,1.21A3.87,3.87,0,0,1,5.92,15.29Zm1.53,0H8.77v1.49A2.37,2.37,0,0,1,7.45,15.28Zm1.9,1.49V15.28h1.31A2.36,2.36,0,0,1,9.35,16.77ZM11.5,16h0a3.91,3.91,0,0,1-.85.51,4.55,4.55,0,0,0,.65-1.22h.91A4,4,0,0,1,11.5,16Z" fill="#0078d4"/>
    <path d="M5.07,11.36A3.84,3.84,0,0,1,2.91,8.42,3.39,3.39,0,0,1,4.45,5.55L5,5.11l.47.61-.59.44A2.67,2.67,0,0,0,3.67,8.37,3.11,3.11,0,0,0,5.46,10.7Z" fill="#e6e6e6"/>
    <g>
      <circle cx="5.26" cy="11.03" r="1.08" fill="#ce74b6"/>
      <path d="M5.26,10A1.08,1.08,0,1,1,4.19,11,1.07,1.07,0,0,1,5.26,10m0-.26A1.34,1.34,0,1,0,6.6,11,1.34,1.34,0,0,0,5.26,9.7Z" fill="#a33a85"/>
    </g>
    <circle cx="5.26" cy="5.41" r="1.08" fill="#f2f2f2"/>
    <path d="M12.75,11.36l-.38-.66a3.07,3.07,0,0,0,1.78-2.33,2.65,2.65,0,0,0-1.24-2.21l-.58-.44.46-.61.58.44a3.37,3.37,0,0,1,1.54,2.87A3.81,3.81,0,0,1,12.75,11.36Z" fill="#e6e6e6"/>
    <g>
      <circle cx="12.56" cy="11.03" r="1.08" fill="#ce74b6"/>
      <path d="M12.56,10A1.08,1.08,0,1,1,11.48,11,1.08,1.08,0,0,1,12.56,10m0-.26A1.34,1.34,0,1,0,13.89,11,1.34,1.34,0,0,0,12.56,9.7Z" fill="#a33a85"/>
    </g>
    <circle cx="12.56" cy="5.41" r="1.08" fill="#f2f2f2"/>
  </g>
</svg>
