<svg data-slug-id="app-service-containers" xmlns="http://www.w3.org/2000/svg" viewBox="0 0 18 18"><defs><linearGradient id="app-service-containers:f7543904-4a89-435e-96cd-11521c829faa-de9a3561" x1="9" y1="11.95" x2="9" gradientUnits="userSpaceOnUse"><stop offset="0" stop-color="#0078d4"></stop><stop offset="0.16" stop-color="#1380da"></stop><stop offset="0.53" stop-color="#3c91e5"></stop><stop offset="0.82" stop-color="#559cec"></stop><stop offset="1" stop-color="#5ea0ef"></stop></linearGradient></defs> <path d="M17.43,8.21a3.78,3.78,0,0,0-3.29-3.64A4.77,4.77,0,0,0,9.22,0,4.91,4.91,0,0,0,4.54,3.19a4.52,4.52,0,0,0-4,4.35A4.6,4.6,0,0,0,5.32,12l.42,0h7.68l.21,0A3.84,3.84,0,0,0,17.43,8.21Z" fill="url(#app-service-containers:f7543904-4a89-435e-96cd-11521c829faa-de9a3561)"></path><path d="M6.36,6.46,9,3.87a.3.3,0,0,1,.43,0L12,6.46a.13.13,0,0,1-.1.23H10.28a.15.15,0,0,0-.14.14v3.24a.11.11,0,0,1-.11.11H8.29a.11.11,0,0,1-.11-.11V6.83a.14.14,0,0,0-.13-.14H6.45A.13.13,0,0,1,6.36,6.46Z" fill="#f2f2f2"></path><path d="M14,11.37a.13.13,0,0,0-.09-.13L9.16,9.65H9V18h.13l4.71-1.88A.13.13,0,0,0,14,16Z" fill="#a67af4"></path><path d="M9,9.68l-4.51.83a.14.14,0,0,0-.12.13v6.23a.15.15,0,0,0,.11.14L9,18a.13.13,0,0,0,.16-.13v-8A.14.14,0,0,0,9,9.68Z" fill="#552f99"></path><polygon points="6.92 10.92 6.92 16.73 8.49 16.98 8.49 10.65 6.92 10.92" fill="#b77af4" opacity="0.75"></polygon><polygon points="4.98 11.24 4.98 16.32 6.35 16.6 6.35 11.01 4.98 11.24" fill="#b77af4" opacity="0.75"></polygon></svg>