<?xml version="1.0" encoding="UTF-8" standalone="no"?>
<!-- Generator: Adobe Illustrator 21.0.0, SVG Export Plug-In . SVG Version: 6.00 Build 0)  -->

<svg
   xmlns:osb="http://www.openswatchbook.org/uri/2009/osb"
   xmlns:dc="http://purl.org/dc/elements/1.1/"
   xmlns:cc="http://creativecommons.org/ns#"
   xmlns:rdf="http://www.w3.org/1999/02/22-rdf-syntax-ns#"
   xmlns:svg="http://www.w3.org/2000/svg"
   xmlns="http://www.w3.org/2000/svg"
   xmlns:sodipodi="http://sodipodi.sourceforge.net/DTD/sodipodi-0.dtd"
   xmlns:inkscape="http://www.inkscape.org/namespaces/inkscape"
   version="1.1"
   id="Layer_1"
   x="0px"
   y="0px"
   viewBox="0 0 595.3 595.3"
   style="enable-background:new 0 0 595.3 595.3;"
   xml:space="preserve"
   sodipodi:docname="RD Shield Icon.svg"
   inkscape:version="0.92.2 (5c3e80d, 2017-08-06)"
   inkscape:export-filename="C:\Users\eltons\OneDrive - Microsoft\App Assets\Apple\RD Icon Assets for iOS\Icon-76.png"
   inkscape:export-xdpi="12.51"
   inkscape:export-ydpi="12.51"><metadata
     id="metadata1640"><rdf:RDF><cc:Work
         rdf:about=""><dc:format>image/svg+xml</dc:format><dc:type
           rdf:resource="http://purl.org/dc/dcmitype/StillImage" /><dc:title></dc:title></cc:Work></rdf:RDF></metadata><defs
     id="defs1638"><linearGradient
       id="linearGradient983"
       osb:paint="solid"><stop
         style="stop-color:#000000;stop-opacity:1;"
         offset="0"
         id="stop981" /></linearGradient><linearGradient
       id="SVGID_ORANGE-BACKGROUND"
       gradientUnits="userSpaceOnUse"
       x1="291.00003"
       y1="309.832"
       x2="287.49741"
       y2="773.90515"
       gradientTransform="matrix(1.011747,0,0,1.011747,2.1646114,-249.3784)"><stop
         offset="0.02352918"
         style="stop-color:#E95D21"
         id="stop1601-1" /><stop
         offset="0.8189"
         style="stop-color:#C6422E"
         id="stop1603-3" /></linearGradient><linearGradient
       id="SVGID_GREY-BORDER"
       gradientUnits="userSpaceOnUse"
       x1="291.61731"
       y1="532.8208"
       x2="291.61731"
       y2="57.284901"
       gradientTransform="matrix(1.0736467,0,0,1.0736467,-16.49237,-18.148149)"><stop
         offset="0"
         style="stop-color:#D6D6D6"
         id="stop1628-1" /><stop
         offset="0.95799828"
         style="stop-color:#FFFFFF"
         id="stop1630-0" /></linearGradient><filter
       style="color-interpolation-filters:sRGB;"
       inkscape:label="Drop Shadow"
       id="filter1001"><feFlood
         flood-opacity="0.498039"
         flood-color="rgb(128,128,128)"
         result="flood"
         id="feFlood991" /><feComposite
         in="flood"
         in2="SourceGraphic"
         operator="in"
         result="composite1"
         id="feComposite993" /><feGaussianBlur
         in="composite1"
         stdDeviation="2"
         result="blur"
         id="feGaussianBlur995" /><feOffset
         dx="0"
         dy="5"
         result="offset"
         id="feOffset997" /><feComposite
         in="SourceGraphic"
         in2="offset"
         operator="over"
         result="composite2"
         id="feComposite999" /></filter></defs><sodipodi:namedview
     pagecolor="#ffffff"
     bordercolor="#666666"
     borderopacity="1"
     objecttolerance="10"
     gridtolerance="10"
     guidetolerance="10"
     inkscape:pageopacity="0"
     inkscape:pageshadow="2"
     inkscape:window-width="1920"
     inkscape:window-height="1137"
     id="namedview1636"
     showgrid="false"
     inkscape:zoom="0.53740115"
     inkscape:cx="-295.16588"
     inkscape:cy="-53.933351"
     inkscape:window-x="1912"
     inkscape:window-y="-8"
     inkscape:window-maximized="1"
     inkscape:current-layer="Layer_1" /><style
     type="text/css"
     id="style1597">
	.st0{fill:url(#SVGID_ORANGE-BACKGROUND);}
	.st1{fill:#FFFFFF;}
	.st2{fill:#FDFDFD;}
	.st3{fill:url(#SVGID_GREY-BORDER);}
</style><rect
     style="opacity:1;fill:#1fffff;fill-opacity:1;stroke:none;stroke-width:1.5;stroke-miterlimit:4;stroke-dasharray:none;stroke-opacity:1"
     id="rect4574-7-8"
     width="385.57397"
     height="385.57391"
     x="119.24306"
     y="107.74986"
     ry="0" /><path
     inkscape:connector-curvature="0"
     style="opacity:1;fill:#d24726;fill-opacity:1;fill-rule:nonzero;stroke:none;stroke-width:30.92279816;stroke-miterlimit:4;stroke-dasharray:none;stroke-opacity:1;paint-order:fill markers stroke"
     d="M 312.02753,131.35602 A 169.17846,169.17846 0 0 0 142.85173,300.5368 169.17846,169.17846 0 0 0 312.02753,469.71763 169.17846,169.17846 0 0 0 481.20833,300.5368 169.17846,169.17846 0 0 0 312.02753,131.35602 Z m 57.70201,62.42532 c 2.57582,0.0255 5.14214,1.03493 7.09744,3.02748 l 11.74589,11.97035 c 3.91059,3.98523 3.85563,10.3441 -0.12971,14.25468 l -33.43713,32.8087 c -5.96851,5.28106 -6.78363,10.3868 -1.44645,15.82583 l 34.09053,34.73889 c 3.91058,3.98521 3.85565,10.3391 -0.12973,14.24968 l -11.97529,11.74596 c -3.98521,3.9106 -10.34412,3.8505 -14.25467,-0.13458 L 312.9402,282.99546 301.19431,271.02511 c -3.91058,-3.98521 -3.85066,-10.3441 0.13449,-14.25468 l 11.97033,-11.75088 49.27291,-48.35018 c 1.99263,-1.95527 4.58147,-2.91307 7.15726,-2.88784 z m -115.39903,71.99161 c 2.57579,-0.0255 5.15967,0.93755 7.15226,2.89282 l 49.27291,48.3502 11.97534,11.75095 c 3.98533,3.91049 4.04524,10.26939 0.13466,14.2546 l -11.75089,11.97031 -48.35016,49.27296 c -3.91058,3.98531 -10.2695,4.0453 -14.25472,0.13445 l -11.97032,-11.74583 c -3.98532,-3.91061 -4.04024,-10.26452 -0.12971,-14.24973 l 34.08554,-34.74397 c 5.33717,-5.43894 4.52704,-10.53973 -1.4414,-15.8207 l -33.43725,-32.80865 c -3.9853,-3.91059 -4.04031,-10.26944 -0.12971,-14.25469 l 11.74587,-11.97033 c 1.95527,-1.99256 4.52161,-3.00728 7.09742,-3.03249 z"
     id="path835-9-8-9" /></svg>