<svg xmlns="http://www.w3.org/2000/svg" height="50" width="50" viewBox="0 0 50 50"><path d="M23 7.1h3V26h-3z" class="msportalfx-svg-c04" fill="#7a7a7a"/><path d="M28.9 6.5a4.4 4.4 0 0 1-8.8 0 4.4 4.4 0 0 1 8.8 0z" fill="#1490df"/><path d="M23.9 25h-4.8a6 6 0 0 0-.93 11.92 6.41 6.41 0 0 1 .06-2.23 3.79 3.79 0 0 1 .87-7.49h4.8a3.8 3.8 0 1 1 0 7.6h-1.32a2.86 2.86 0 0 0-.28 1.2 2.78 2.78 0 0 0 .19 1h1.41a6 6 0 0 0 0-12z" fill="url(#a)"/><path d="M30.83 30.08a7 7 0 0 1 .07.92 6.26 6.26 0 0 1-.13 1.31 3.79 3.79 0 0 1-.87 7.49h-4.8a3.8 3.8 0 0 1 0-7.6h1.32a2.82 2.82 0 0 0 .28-1.2 2.78 2.78 0 0 0-.19-1H25.1a6 6 0 0 0 0 12h4.8a6 6 0 0 0 .93-11.92z" fill="url(#b)"/><path d="m15.86 44.52-1.1 1.11a.75.75 0 0 1-1.06 0L1.39 33.35a1.51 1.51 0 0 1 0-2.13l1.11-1.1 13.36 13.34a.74.74 0 0 1 0 1.06z" fill="#50e6ff"/><path d="m14.53 19.12 1.23 1.23a.75.75 0 0 1 0 1.06L2.62 34.59l-1.23-1.22a1.51 1.51 0 0 1 0-2.13l12.08-12.12a.75.75 0 0 1 1.06 0z" fill="#1490df"/><path d="M34.13 45.39a.74.74 0 0 1 0-1.06L47.5 31l1.11 1.11a1.51 1.51 0 0 1 0 2.13L36.29 46.5a.74.74 0 0 1-1.06 0l-1.1-1.11z" fill="#50e6ff"/><path d="m36.52 20 12.09 12.12a1.5 1.5 0 0 1 0 2.12l-1.23 1.23-13.15-13.18a.77.77 0 0 1 0-1.07L35.46 20a.75.75 0 0 1 1.06 0z" fill="#1490df"/><defs><linearGradient id="a" x1="21.5" y1="25" x2="21.5" y2="37" gradientUnits="userSpaceOnUse"><stop offset=".23" stop-color="#5ea0ef"/><stop offset=".32" stop-color="#5b9fee"/><stop offset=".48" stop-color="#509aeb"/><stop offset=".57" stop-color="#3f92e6"/><stop offset=".75" stop-color="#2688df"/><stop offset=".93" stop-color="#127fd9"/></linearGradient><linearGradient id="b" x1="27.5" y1="30" x2="27.5" y2="42" gradientUnits="userSpaceOnUse"><stop offset=".02" stop-color="#5ea0ef"/><stop offset=".14" stop-color="#5b9fee"/><stop offset=".23" stop-color="#5b9fee"/><stop offset=".34" stop-color="#509aeb"/><stop offset=".44" stop-color="#3f92e6"/><stop offset=".63" stop-color="#2688df"/><stop offset=".93" stop-color="#127fd9"/></linearGradient></defs></svg>