<svg xmlns="http://www.w3.org/2000/svg" xmlns:xlink="http://www.w3.org/1999/xlink" viewBox="0 0 625 363.27">
  <defs>
    <linearGradient id="linear-gradient" x1="25.08" y1="547.29" x2="25.08" y2="563.25" gradientTransform="matrix(1, 0, 0, -1, 0, 604)" gradientUnits="userSpaceOnUse">
      <stop offset="0" stop-color="#b3b3b3"/>
      <stop offset="0.26" stop-color="#c1c1c1"/>
      <stop offset="1" stop-color="#e6e6e6"/>
    </linearGradient>
    <linearGradient id="linear-gradient-2" x1="590.86" y1="598" x2="598.86" y2="598" gradientTransform="matrix(1, 0, 0, -1, 0, 604)" gradientUnits="userSpaceOnUse">
      <stop offset="0" stop-color="#50c7e8"/>
      <stop offset="0.25" stop-color="#4cc3e4"/>
      <stop offset="0.51" stop-color="#41b6da"/>
      <stop offset="0.77" stop-color="#2fa2c8"/>
      <stop offset="1" stop-color="#1989b2"/>
    </linearGradient>
    <linearGradient id="linear-gradient-3" x1="580" y1="582" x2="598.86" y2="582" xlink:href="#linear-gradient-2"/>
    <linearGradient id="linear-gradient-4" x1="295.99" y1="389.73" x2="295.99" y2="411.73" gradientTransform="matrix(1, 0, 0, -1, 0, 604)" gradientUnits="userSpaceOnUse">
      <stop offset="0" stop-color="#0078d4"/>
      <stop offset="0.82" stop-color="#5ea0ef"/>
    </linearGradient>
  </defs>
  <title>AML-model1</title>
  <g id="Shapes">
    <rect width="625" height="363.27" fill="#fff"/>
    <g>
      <rect y="20" width="625" height="343.27" fill="#fff"/>
      <rect y="20" width="625" height="343.27" fill="#3c3c41" opacity="0.05"/>
    </g>
    <g>
      <rect x="230" y="98.27" width="110.22" height="30" fill="#fff"/>
      <rect x="230" y="98.27" width="110.22" height="30" fill="#0072c6" opacity="0.2"/>
    </g>
    <g>
      <rect x="275" y="183.27" width="215" height="147" fill="#fff"/>
      <rect x="275" y="183.27" width="215" height="147" fill="#50e6ff" opacity="0.05"/>
      <rect x="275" y="183.27" width="215" height="147" fill="none" stroke="#0072c6" stroke-miterlimit="10" stroke-width="0.5" opacity="0.3"/>
    </g>
    <g>
      <path d="M11.58,40.75h27V55.81a.9.9,0,0,1-.91.9H12.48a.9.9,0,0,1-.9-.9Z" fill="url(#linear-gradient)"/>
      <path d="M12.48,35H37.67a.91.91,0,0,1,.91.91v4.84h-27V35.89A.91.91,0,0,1,12.48,35Z" fill="#37c2b1"/>
      <path d="M15.25,42.5H34.89a.43.43,0,0,1,.42.43v2.22a.44.44,0,0,1-.42.43H15.25a.44.44,0,0,1-.42-.43V42.93A.43.43,0,0,1,15.25,42.5Z" fill="#fff"/>
      <path d="M15.26,46.93H34.91a.43.43,0,0,1,.41.43V49.6a.41.41,0,0,1-.41.42H15.26a.41.41,0,0,1-.41-.42V47.44a.43.43,0,0,1,.34-.51Z" fill="#37c2b1"/>
      <path d="M15.26,51.41H34.91a.42.42,0,0,1,.41.43v2.23a.42.42,0,0,1-.41.43H15.26a.42.42,0,0,1-.41-.43V51.84A.42.42,0,0,1,15.26,51.41Z" fill="#258277"/>
    </g>
    <g>
      <path d="M285.5,80.51h-.39a5.26,5.26,0,0,0-5.25,5.25v5.47h-2.25V85.74a7.51,7.51,0,0,1,6.85-7.47h1.21a7.6,7.6,0,0,1,6.94,7.62v5.32h-2.26V85.89A5.34,5.34,0,0,0,285.5,80.51Z" fill="#0078d4" fill-rule="evenodd"/>
      <path d="M294.86,102.27h-19.5V88h19.5Z" fill="#0078d4"/>
      <path d="M282.86,94v0a2.22,2.22,0,0,0,2.23,2.22h0A2.22,2.22,0,0,0,287.36,94v0a2.23,2.23,0,0,0-2.23-2.23h0A2.23,2.23,0,0,0,282.86,94Z" fill="#50e6ff"/>
      <path d="M285.12,94h0A1.12,1.12,0,0,0,284,95.13v3a1.12,1.12,0,0,0,1.12,1.12h0a1.11,1.11,0,0,0,1.11-1.12v-3A1.11,1.11,0,0,0,285.12,94Z" fill="#50e6ff"/>
    </g>
    <g>
      <line x1="190" y1="113.27" x2="224.62" y2="113.27" fill="none" stroke="#3c3c41" stroke-miterlimit="10"/>
      <polygon points="223.52 117.01 230 113.27 223.52 109.53 223.52 117.01" fill="#3c3c41"/>
    </g>
    <g>
      <rect x="379.93" y="98.27" width="110.22" height="30" fill="#fff"/>
      <rect x="379.93" y="98.27" width="110.22" height="30" fill="#0072c6" opacity="0.2"/>
    </g>
    <g>
      <rect x="504.78" y="188.27" width="110.22" height="30" fill="#fff"/>
      <rect x="504.78" y="188.27" width="110.22" height="30" fill="#0072c6" opacity="0.2"/>
    </g>
    <g>
      <rect x="280" y="188.27" width="205" height="30" fill="#fff"/>
      <rect x="280" y="188.27" width="205" height="30" fill="#0072c6" opacity="0.2"/>
    </g>
    <g>
      <rect x="280" y="223.27" width="205" height="30" fill="#fff"/>
      <rect x="280" y="223.27" width="205" height="30" fill="#0072c6" opacity="0.2"/>
    </g>
    <g>
      <rect x="280" y="258.27" width="205" height="30" fill="#fff"/>
      <rect x="280" y="258.27" width="205" height="30" fill="#0072c6" opacity="0.2"/>
    </g>
    <g>
      <rect x="10" y="63" width="180" height="112" fill="#fff"/>
      <rect x="10" y="63" width="180" height="112" fill="#50e6ff" opacity="0.05"/>
      <rect x="10" y="63" width="180" height="112" fill="none" stroke="#0072c6" stroke-miterlimit="10" stroke-width="0.5" opacity="0.3"/>
    </g>
    <g>
      <rect x="15" y="68" width="170" height="30" fill="#fff"/>
      <rect x="15" y="68" width="170" height="30" fill="#0072c6" opacity="0.2"/>
    </g>
    <g>
      <rect x="15" y="103" width="170" height="30" fill="#fff"/>
      <rect x="15" y="103" width="170" height="30" fill="#0072c6" opacity="0.2"/>
    </g>
    <g>
      <rect x="15" y="138" width="170" height="30" fill="#fff"/>
      <rect x="15" y="138" width="170" height="30" fill="#0072c6" opacity="0.2"/>
    </g>
    <g>
      <rect x="280" y="293.27" width="205" height="30" fill="#fff"/>
      <rect x="280" y="293.27" width="205" height="30" fill="#0072c6" opacity="0.2"/>
    </g>
    <g>
      <line x1="339.78" y1="113.27" x2="374.4" y2="113.27" fill="none" stroke="#3c3c41" stroke-miterlimit="10"/>
      <polygon points="373.3 117.01 379.78 113.27 373.3 109.53 373.3 117.01" fill="#3c3c41"/>
    </g>
    <g>
      <line x1="435" y1="128.27" x2="435" y2="177.89" fill="none" stroke="#3c3c41" stroke-miterlimit="10"/>
      <polygon points="431.26 176.79 435 183.27 438.74 176.79 431.26 176.79" fill="#3c3c41"/>
    </g>
    <g>
      <path d="M435,330.77v17.5a5,5,0,0,0,5,5H555a5,5,0,0,0,5-5V223.65" fill="none" stroke="#3c3c41" stroke-miterlimit="10"/>
      <polygon points="563.74 224.75 560 218.27 556.26 224.75 563.74 224.75" fill="#3c3c41"/>
    </g>
    <path d="M420.27,78.27h5.54v1.84h-5.54V78.27m0,5.54h5.54v1.84h-5.54V83.81m0,5.53h5.54v1.85h-5.54V89.34m0,5.54h5.54v1.85h-5.54V94.88m0,5.54h5.54v1.85h-5.54v-1.85m7.38-22.15h11.08v1.84H427.65V78.27m0,5.54h11.08v1.84H427.65V83.81m0,5.53h11.08v1.85H427.65V89.34m0,5.54h11.08v1.85H427.65V94.88m0,5.54h11.08v1.85H427.65v-1.85m12.93-22.15h9.23v1.84h-9.23V78.27m0,5.54h9.23v1.84h-9.23V83.81m0,5.53h9.23v1.85h-9.23V89.34m0,5.54h9.23v1.85h-9.23V94.88m0,5.54h9.23v1.85h-9.23Z" fill="#505050"/>
    <g>
      <path id="a3de4f28-202d-4df2-8141-42aae2c83a8a" d="M590.86,0h8V12h-8Z" fill="url(#linear-gradient-2)"/>
      <path id="a47d1612-6047-4374-996f-618ec22169c6" d="M607.71,32H582l-2-7.72h29.7Z" fill="#198ab3"/>
      <path id="b1af43ed-f497-4ba7-8647-9d4a9f3389e8" d="M582,32l-2-7.72L590.86,12h8Z" fill="url(#linear-gradient-3)"/>
      <path id="b4f52e1c-411c-4bbb-ae4e-9be6fa9ad3cc" d="M607.71,32,596,20l4.86-5.65,8.84,10Z" fill="#32bedd"/>
    </g>
    <g>
      <path d="M560,188.27v-70a5,5,0,0,0-5-5H495.38" fill="none" stroke="#3c3c41" stroke-miterlimit="10"/>
      <polygon points="496.48 109.53 490 113.27 496.48 117.01 496.48 109.53" fill="#3c3c41"/>
    </g>
    <g id="fd3ce364-0de3-4a49-9ae3-702f411d286b">
      <g>
        <g>
          <path d="M297.3,192.43h-9.42a.75.75,0,0,0-.75.74v20.19a.75.75,0,0,0,.75.75h16.23a.75.75,0,0,0,.75-.75V200a.75.75,0,0,0-.75-.74h-5.39a.74.74,0,0,1-.73-.74h0v-5.35A.74.74,0,0,0,297.3,192.43Z" fill="#fff"/>
          <path d="M296.9,193.37v5.07a1.87,1.87,0,0,0,1.86,1.87h5.1v12.86H288.13v-19.8h8.78m.39-1.1h-9.54a.75.75,0,0,0-.76.73v20.52a.75.75,0,0,0,.75.75h16.48a.75.75,0,0,0,.76-.74h0V200a.76.76,0,0,0-.75-.75h-5.48a.75.75,0,0,1-.75-.74V193A.75.75,0,0,0,297.3,192.27Z" fill="url(#linear-gradient-4)"/>
          <path d="M304.7,199.34l-6.95-6.91V198a1.32,1.32,0,0,0,1.31,1.32Z" fill="#0078d4"/>
        </g>
        <path d="M301.58,202.6h-8.21a.54.54,0,1,0,0,1.07h8.26a.54.54,0,1,0,0-1.07Zm0,3.2h-8.21a.54.54,0,0,0-.17,1.06h8.43a.54.54,0,1,0,.17-1.06.49.49,0,0,0-.17,0Zm0,3.21h-8.21a.54.54,0,1,0,0,1.08h8.26a.54.54,0,0,0,0-1.08h-.05Z" fill="#83b9f9"/>
        <path d="M290.47,204.21v-1.73a.54.54,0,0,1-.25.09l-.28.08v-.54a2.74,2.74,0,0,0,.4-.15,1.92,1.92,0,0,0,.41-.19h.42v2.44Zm-.51,3.41v-.2a1.93,1.93,0,0,1,0-.34,2.49,2.49,0,0,1,.15-.28,2.38,2.38,0,0,1,.36-.35,1,1,0,0,0,.28-.22.13.13,0,0,1,.09-.12.17.17,0,0,0,0-.14c0-.17-.09-.25-.29-.25a.82.82,0,0,0-.56.22v-.59a1.49,1.49,0,0,1,.37-.14,1.09,1.09,0,0,1,.36,0,.92.92,0,0,1,.61.2.69.69,0,0,1,.22.51.86.86,0,0,1-.12.44,1.49,1.49,0,0,1-.42.37l-.26.16a.22.22,0,0,0-.08.13h1v.55Zm1.63,2.73a.61.61,0,0,1-.25.54,1.23,1.23,0,0,1-.7.19,1,1,0,0,1-.34,0L290,211v-.56a.75.75,0,0,0,.25.09h.56a.25.25,0,0,0,.1-.17.2.2,0,0,0-.16-.2,1.13,1.13,0,0,0-.32-.06h-.18v-.52h.2a.41.41,0,0,0,.3-.07.15.15,0,0,0,.09-.17v-.15s-.12,0-.22,0a1.06,1.06,0,0,0-.46.13v-.54a1.74,1.74,0,0,1,.6-.13,1.1,1.1,0,0,1,.64.17.48.48,0,0,1,.21.45.56.56,0,0,1-.11.37.58.58,0,0,1-.34.19.55.55,0,0,1,.39.2A.75.75,0,0,1,291.59,210.35Z" fill="#0078d4"/>
      </g>
    </g>
    <g>
      <path d="M285,284.27h7v-7h-7Z" fill="#0078d4"/>
      <path d="M293,271.41v3.74a1.63,1.63,0,0,0,1.63,1.63h3.74a1.64,1.64,0,0,0,1.63-1.63v-3.74a1.64,1.64,0,0,0-1.63-1.63h-3.72A1.62,1.62,0,0,0,293,271.41Z" fill="#0078d4"/>
      <path d="M300.05,265.71a3.44,3.44,0,0,0,3.44,3.44h.05a3.44,3.44,0,0,0,0-6.88h-.05A3.44,3.44,0,0,0,300.05,265.71Z" fill="#50e6ff"/>
    </g>
    <path d="M307,239.47V237l-.35-.11L304,236l-.71-1.72,1.37-2.91-1.77-1.77-.33.17L300,231l-1.72-.72-1.09-3h-2.5l-.12.35-.87,2.68L292,231l-2.91-1.38-1.77,1.77.17.34,1.28,2.51L288,236l-3,1.09v2.5l.36.12,2.68.87.71,1.73-1.37,2.91,1.77,1.77.33-.17,2.52-1.27,1.72.71,1.08,3h2.51l.11-.36.88-2.67,1.72-.72,2.91,1.38,1.77-1.77-.17-.34-1.27-2.51.71-1.73Zm-11,5.33a6.53,6.53,0,0,1-1.25-12.94l1.25,4.69h-2.75l3.78,7.22v-5.16h1.72v-6.26A6.53,6.53,0,0,1,296,244.8Z" fill="#0078d4"/>
    <path d="M298.62,174.6,291,160.72v-6.45h2v-1H281v1h2v6.45l-7.63,13.88c-.87,1.44-.15,2.67,1.51,2.67h20.23C298.83,177.27,299.48,176.12,298.62,174.6ZM276,176c-.1-.18,0-.51.2-.89l7.64-13.89L284,161v-6.71h6V161l.12.22,2.78,5.07H285l-5.45,10h-2.67A1,1,0,0,1,276,176ZM298,176c-.07.13-.36.26-.85.26H280.69l4.9-9h7.86l4.3,7.83C298,175.55,298,175.88,298,176Z"/>
    <g>
      <path d="M44.6,73.06H30.41l-1.24-1.32H22.54V88.45H44.6Z" fill="#50e6ff"/>
      <path d="M45.85,75.68H21.23V93.74H45.85Z" fill="#0078d7"/>
    </g>
    <path d="M42.27,145.8a11,11,0,0,0-8.73-4.3,11.1,11.1,0,0,0-6.7,2.27,11,11,0,0,0-2,15.43,10.86,10.86,0,0,0,8.73,4.3,11.12,11.12,0,0,0,6.7-2.27A11,11,0,0,0,42.27,145.8Zm.51,9.18c-.39-.29-1-.72-1.67-1.3a2.16,2.16,0,0,0-.23-2,2.1,2.1,0,0,0-2.69-.48c-1-.86-2-1.86-3.14-3a11.16,11.16,0,0,1,6-1.61l.11.13A9.48,9.48,0,0,1,42.78,155Zm-6,2.6a1.9,1.9,0,0,0-.35-.75,1.86,1.86,0,0,0-2.52-.44,18.62,18.62,0,0,1-2.57-1.7l-.23-.2a2.89,2.89,0,0,0-.4-2.82l-.06-.06q.28-.3.6-.6a18.44,18.44,0,0,1,2.5-2h0l0,0,0,0c1.2,1.1,2.47,2.15,3.67,3.08a2.06,2.06,0,0,0,.18,2.11,2.1,2.1,0,0,0,2.9.4l.13-.12,1.93,1.33a9.9,9.9,0,0,1-1.07,2.1A10,10,0,0,1,36.75,157.58Zm2.94-12.38a10.41,10.41,0,0,0-6.38,1.19h0c-.86-.92-1.77-1.95-2.7-3a9.75,9.75,0,0,1,2.93-.46A9.47,9.47,0,0,1,39.69,145.2Zm-12-.28a9.61,9.61,0,0,1,1.6-1,19.15,19.15,0,0,0,2.6,3.26,16.48,16.48,0,0,0-2.65,2.3c-.31.35-.61.7-.89,1a2.7,2.7,0,0,0-1.48.42,7.87,7.87,0,0,1-1.16-4A9.59,9.59,0,0,1,27.7,144.92ZM24.63,149a7.27,7.27,0,0,0,1.09,3.27,2.89,2.89,0,0,0,.35,2.94h0a17,17,0,0,0-.43,2.71A9.51,9.51,0,0,1,24.63,149Zm14.72,11.11a9.54,9.54,0,0,1-12-.26,12.65,12.65,0,0,1,.48-3.55,2.93,2.93,0,0,0,2.15-.48l.25.19A16.53,16.53,0,0,0,33,157.76a1.86,1.86,0,0,0,.37,1.41,1.94,1.94,0,0,0,2.69.34,2,2,0,0,0,.45-.51,17,17,0,0,0,3.69.39A9.9,9.9,0,0,1,39.35,160.12Z"/>
    <g>
      <path d="M38.42,107.35l-4.15-4.2v3.1c-.24,0-.49,0-.73,0a11.17,11.17,0,0,0-7.79,19l2.07-2.1a8.25,8.25,0,0,1,0-11.54,8,8,0,0,1,5.71-2.39c.24,0,.49,0,.73,0v2.32Z" fill="#0078d4"/>
      <path d="M41.31,109.48l-2.08,2.1h0a8.26,8.26,0,0,1,0,11.56,8,8,0,0,1-5.7,2.39v-2.6l-4.15,4.2,4.15,4.2v-2.83a11.07,11.07,0,0,0,11-11.14A11.2,11.2,0,0,0,41.31,109.48Z" fill="#0078d4"/>
      <path d="M37.2,118.09v-1.48h-.82a3,3,0,0,0-.33-.76l.6-.6-1-1-.62.63a3.74,3.74,0,0,0-.72-.29v-.9H32.8v.92a2.87,2.87,0,0,0-.7.29l-.64-.65-1,1,.63.64a2.9,2.9,0,0,0-.31.72h-.88v1.49h.83a3,3,0,0,0,.3.77l-.58.58,1,1L32,120a3.12,3.12,0,0,0,.79.35v.76h1.47v-.75a3.39,3.39,0,0,0,.81-.34l.53.53,1-1-.54-.55a2.72,2.72,0,0,0,.31-.81Zm-3.66,0a.74.74,0,1,1,.73-.74A.74.74,0,0,1,33.54,118.09Z" fill="#50e6ff"/>
    </g>
    <g>
      <path d="M301.49,304.88a1.38,1.38,0,1,1-1.37-1.37,1.37,1.37,0,0,1,1.37,1.37" fill="#0078d4" fill-rule="evenodd"/>
      <path d="M301.49,313.13a1.38,1.38,0,0,1-2.75,0,1.38,1.38,0,1,1,2.75,0" fill="#0078d4" fill-rule="evenodd"/>
      <path d="M293.24,304.88a1.38,1.38,0,1,1-1.37-1.37,1.37,1.37,0,0,1,1.37,1.37" fill="#0078d4" fill-rule="evenodd"/>
      <path d="M293.24,313.13a1.38,1.38,0,0,1-2.75,0,1.38,1.38,0,1,1,2.75,0" fill="#0078d4" fill-rule="evenodd"/>
      <path d="M298.06,303.5a2.07,2.07,0,1,1-2.07-2.06,2.07,2.07,0,0,1,2.07,2.06" fill="#0078d4" fill-rule="evenodd"/>
      <path d="M298.06,314.5a2.07,2.07,0,1,1-2.07-2.06,2.07,2.07,0,0,1,2.07,2.06" fill="#0078d4" fill-rule="evenodd"/>
      <path d="M297,299a1,1,0,1,1-1-1,1,1,0,0,1,1,1" fill="#50e6ff" fill-rule="evenodd"/>
      <path d="M297,319a1,1,0,1,1-1-1,1,1,0,0,1,1,1" fill="#0078d4" fill-rule="evenodd"/>
      <path d="M297,299a1,1,0,1,1-1-1,1,1,0,0,1,1,1" fill="#50e6ff" fill-rule="evenodd"/>
      <path d="M297,319a1,1,0,1,1-1-1,1,1,0,0,1,1,1" fill="#50e6ff" fill-rule="evenodd"/>
      <path d="M292.56,309a2.07,2.07,0,1,1-2.07-2.06,2.07,2.07,0,0,1,2.07,2.06" fill="#0078d4" fill-rule="evenodd"/>
      <path d="M303.56,309a2.07,2.07,0,1,1-2.07-2.06,2.07,2.07,0,0,1,2.07,2.06" fill="#0078d4" fill-rule="evenodd"/>
      <path d="M286,308a1,1,0,1,1-1,1,1,1,0,0,1,1-1" fill="#50e6ff" fill-rule="evenodd"/>
      <path d="M306,308a1,1,0,1,1-1,1,1,1,0,0,1,1-1" fill="#0078d4" fill-rule="evenodd"/>
      <path d="M298.06,309a2.07,2.07,0,1,1-2.07-2.06,2.07,2.07,0,0,1,2.07,2.06" fill="#0078d4" fill-rule="evenodd"/>
      <path d="M286,308a1,1,0,1,1-1,1,1,1,0,0,1,1-1" fill="#50e6ff" fill-rule="evenodd"/>
      <path d="M306,308a1,1,0,1,1-1,1,1,1,0,0,1,1-1" fill="#50e6ff" fill-rule="evenodd"/>
      <path d="M303.94,302.51a1,1,0,1,1,0-1.46,1,1,0,0,1,0,1.46" fill="#50e6ff" fill-rule="evenodd"/>
      <path d="M289.51,317a1,1,0,1,1,0-1.46,1,1,0,0,1,0,1.46" fill="#50e6ff" fill-rule="evenodd"/>
      <path d="M289.51,301.05a1,1,0,1,1-1.46,0,1,1,0,0,1,1.46,0" fill="#50e6ff" fill-rule="evenodd"/>
      <path d="M303.94,315.49a1,1,0,1,1-1.46,0,1,1,0,0,1,1.46,0" fill="#50e6ff" fill-rule="evenodd"/>
    </g>
  </g>
  <g id="Text">
    <g>
      <path d="M54.85,40.65H52.79l-.6-1.87h-3l-.59,1.87h-2l3.06-8.4h2.24Zm-3.09-3.32-.91-2.83a4.38,4.38,0,0,1-.14-.75h0a3.16,3.16,0,0,1-.15.73l-.91,2.85Z" fill="#1e1e1e"/>
      <path d="M60.78,40.65H55.39v-.77l3-3.86H55.69V34.65h5.06v.91L57.9,39.29h2.88Z" fill="#1e1e1e"/>
      <path d="M67.54,40.65H65.7v-.91h0a2.12,2.12,0,0,1-1.84,1.06c-1.39,0-2.08-.84-2.08-2.53V34.65h1.84v3.46c0,.85.34,1.27,1,1.27a1,1,0,0,0,.8-.35,1.41,1.41,0,0,0,.3-1V34.65h1.84Z" fill="#1e1e1e"/>
      <path d="M73,36.32a1.61,1.61,0,0,0-.78-.18,1.14,1.14,0,0,0-.94.44,1.93,1.93,0,0,0-.34,1.21v2.86H69.07v-6h1.85v1.11h0a1.6,1.6,0,0,1,1.58-1.21,1.14,1.14,0,0,1,.46.07Z" fill="#1e1e1e"/>
      <path d="M79.31,38.18H75.4c.06.87.61,1.3,1.64,1.3A3.23,3.23,0,0,0,78.78,39v1.33a4.5,4.5,0,0,1-2.16.45,2.8,2.8,0,0,1-3.06-3.06,3.19,3.19,0,0,1,.87-2.36,2.91,2.91,0,0,1,2.13-.88,2.62,2.62,0,0,1,2,.78,3,3,0,0,1,.72,2.12ZM77.59,37c0-.86-.34-1.29-1-1.29a1,1,0,0,0-.77.37,1.68,1.68,0,0,0-.4.92Z" fill="#1e1e1e"/>
      <path d="M46.89,54.89v-1.5a3.66,3.66,0,0,0,.91.41,3,3,0,0,0,.86.14,1.83,1.83,0,0,0,.77-.14.43.43,0,0,0,.29-.41.41.41,0,0,0-.13-.29,1.33,1.33,0,0,0-.33-.21c-.14,0-.29-.11-.45-.15l-.46-.16a4.68,4.68,0,0,1-.63-.29,2.45,2.45,0,0,1-.46-.36,1.64,1.64,0,0,1-.28-.48,2,2,0,0,1-.09-.64,1.6,1.6,0,0,1,.22-.86,1.84,1.84,0,0,1,.58-.6,2.85,2.85,0,0,1,.84-.34,4.55,4.55,0,0,1,1.79,0,7.78,7.78,0,0,1,.81.17v1.43a3,3,0,0,0-.75-.3,3.13,3.13,0,0,0-.79-.11,1.22,1.22,0,0,0-.34,0,1.1,1.1,0,0,0-.29.09.43.43,0,0,0-.19.16.34.34,0,0,0-.07.22.4.4,0,0,0,.1.28.88.88,0,0,0,.28.2,1.88,1.88,0,0,0,.38.15l.41.14a6.16,6.16,0,0,1,.67.28,1.94,1.94,0,0,1,.51.36,1.58,1.58,0,0,1,.33.48,1.82,1.82,0,0,1,.11.66,1.67,1.67,0,0,1-.23.91,1.87,1.87,0,0,1-.61.61,2.81,2.81,0,0,1-.89.35,5,5,0,0,1-1,.11A5.17,5.17,0,0,1,46.89,54.89Z" fill="#1e1e1e"/>
      <path d="M56.16,55a2.67,2.67,0,0,1-1.24.22q-2,0-2-2V50.42H52V49.05h1V47.76l1.84-.53v1.82h1.35v1.37H54.81v2.42c0,.63.25.94.75.94a1.31,1.31,0,0,0,.6-.17Z" fill="#1e1e1e"/>
      <path d="M60.05,55.2a3.24,3.24,0,0,1-2.36-.84,3.06,3.06,0,0,1-.85-2.29,3,3,0,0,1,.89-2.32,3.31,3.31,0,0,1,2.41-.85,3.16,3.16,0,0,1,2.34.85A3,3,0,0,1,63.33,52a3.16,3.16,0,0,1-.88,2.36A3.24,3.24,0,0,1,60.05,55.2Zm.05-4.88a1.23,1.23,0,0,0-1,.45,2,2,0,0,0-.36,1.28c0,1.15.46,1.73,1.39,1.73s1.33-.59,1.33-1.78S61,50.32,60.1,50.32Z" fill="#1e1e1e"/>
      <path d="M68.44,50.72a1.66,1.66,0,0,0-.78-.18,1.14,1.14,0,0,0-1,.44,2,2,0,0,0-.34,1.21v2.86H64.52v-6h1.85v1.11h0A1.59,1.59,0,0,1,68,49a1.17,1.17,0,0,1,.46.07Z" fill="#1e1e1e"/>
      <path d="M74.21,55.05H72.46v-.86h0a2,2,0,0,1-1.78,1,1.88,1.88,0,0,1-1.38-.5,1.79,1.79,0,0,1-.5-1.32c0-1.16.69-1.84,2.07-2l1.63-.22c0-.66-.36-1-1.07-1a3.72,3.72,0,0,0-2,.64V49.41a4.67,4.67,0,0,1,1.06-.35,5.69,5.69,0,0,1,1.22-.16,2.27,2.27,0,0,1,2.57,2.56Zm-1.74-2.44v-.4l-1.09.14q-.9.12-.9.81a.65.65,0,0,0,.22.52.8.8,0,0,0,.59.2,1.1,1.1,0,0,0,.85-.36A1.29,1.29,0,0,0,72.47,52.61Z" fill="#1e1e1e"/>
      <path d="M81.58,54.37a3.39,3.39,0,0,1-1,2.58,3.94,3.94,0,0,1-2.8.92,4.42,4.42,0,0,1-1.92-.35V56a3.65,3.65,0,0,0,1.86.54A2,2,0,0,0,79.22,56a1.79,1.79,0,0,0,.51-1.35v-.47h0a2.07,2.07,0,0,1-1.87,1A2.25,2.25,0,0,1,76,54.39a3.28,3.28,0,0,1-.68-2.17,3.67,3.67,0,0,1,.75-2.42,2.45,2.45,0,0,1,2-.9,1.83,1.83,0,0,1,1.64.85h0v-.7h1.85Zm-1.82-2.2v-.48a1.49,1.49,0,0,0-.34-1,1.18,1.18,0,0,0-1.84.08,2.23,2.23,0,0,0-.35,1.36,1.9,1.9,0,0,0,.33,1.18,1.09,1.09,0,0,0,.91.44,1.13,1.13,0,0,0,.93-.44A1.82,1.82,0,0,0,79.76,52.17Z" fill="#1e1e1e"/>
      <path d="M88.53,52.58H84.62c.06.87.61,1.3,1.65,1.3A3.23,3.23,0,0,0,88,53.42v1.33a4.57,4.57,0,0,1-2.17.45,2.79,2.79,0,0,1-3-3.06,3.19,3.19,0,0,1,.86-2.36,2.91,2.91,0,0,1,2.14-.88,2.63,2.63,0,0,1,2,.78,3.05,3.05,0,0,1,.71,2.12Zm-1.71-1.14q0-1.29-1-1.29a1,1,0,0,0-.77.37,1.67,1.67,0,0,0-.39.92Z" fill="#1e1e1e"/>
      <path d="M92.55,54.89v-1.5a3.82,3.82,0,0,0,.91.41,3.08,3.08,0,0,0,.86.14,1.84,1.84,0,0,0,.78-.14.42.42,0,0,0,.28-.41.37.37,0,0,0-.13-.29,1,1,0,0,0-.33-.21,3.76,3.76,0,0,0-.44-.15L94,52.58a4.68,4.68,0,0,1-.63-.29,2.16,2.16,0,0,1-.46-.36,1.44,1.44,0,0,1-.28-.48,1.76,1.76,0,0,1-.1-.64,1.69,1.69,0,0,1,.22-.86,1.88,1.88,0,0,1,.59-.6A2.64,2.64,0,0,1,94.2,49a4.46,4.46,0,0,1,1-.11A4.59,4.59,0,0,1,96,49a7.1,7.1,0,0,1,.8.17v1.43a2.74,2.74,0,0,0-.75-.3,3.13,3.13,0,0,0-.79-.11,1.27,1.27,0,0,0-.34,0,1,1,0,0,0-.28.09.46.46,0,0,0-.2.16.4.4,0,0,0,0,.5,1,1,0,0,0,.27.2,2.15,2.15,0,0,0,.38.15l.42.14a6.9,6.9,0,0,1,.66.28,2.18,2.18,0,0,1,.52.36,1.39,1.39,0,0,1,.32.48,1.62,1.62,0,0,1,.12.66,1.76,1.76,0,0,1-.23.91,1.9,1.9,0,0,1-.62.61,2.66,2.66,0,0,1-.88.35,5.1,5.1,0,0,1-1,.11A5.27,5.27,0,0,1,92.55,54.89Z" fill="#1e1e1e"/>
      <path d="M103.66,52.58H99.75c.06.87.61,1.3,1.64,1.3a3.23,3.23,0,0,0,1.74-.46v1.33a4.5,4.5,0,0,1-2.16.45,2.81,2.81,0,0,1-3.06-3.06,3.19,3.19,0,0,1,.87-2.36,2.91,2.91,0,0,1,2.13-.88,2.62,2.62,0,0,1,2,.78,3,3,0,0,1,.72,2.12Zm-1.72-1.14c0-.86-.34-1.29-1-1.29a1,1,0,0,0-.77.37,1.68,1.68,0,0,0-.4.92Z" fill="#1e1e1e"/>
      <path d="M108.75,50.72a1.61,1.61,0,0,0-.78-.18A1.14,1.14,0,0,0,107,51a1.93,1.93,0,0,0-.34,1.21v2.86h-1.85v-6h1.85v1.11h0A1.6,1.6,0,0,1,108.3,49a1.12,1.12,0,0,1,.45.07Z" fill="#1e1e1e"/>
      <path d="M115.7,49.05l-2.23,6h-2.11l-2.13-6h2l1.05,3.7a5.19,5.19,0,0,1,.2,1.06h0a6.05,6.05,0,0,1,.21-1l1.07-3.73Z" fill="#1e1e1e"/>
      <path d="M117.47,48.1a1.06,1.06,0,0,1-.77-.28.88.88,0,0,1-.3-.68.87.87,0,0,1,.3-.68,1.14,1.14,0,0,1,.77-.26,1.16,1.16,0,0,1,.77.26.89.89,0,0,1,.29.68.91.91,0,0,1-.29.69A1.11,1.11,0,0,1,117.47,48.1Zm.91,6.95h-1.85v-6h1.85Z" fill="#1e1e1e"/>
      <path d="M124.46,54.83a3.57,3.57,0,0,1-1.81.37,3,3,0,0,1-2.24-.84,2.9,2.9,0,0,1-.86-2.16,3.18,3.18,0,0,1,.92-2.41,3.38,3.38,0,0,1,2.45-.89,3.13,3.13,0,0,1,1.54.29v1.57a2.13,2.13,0,0,0-1.3-.44,1.71,1.71,0,0,0-1.26.47,1.74,1.74,0,0,0-.47,1.28,1.72,1.72,0,0,0,.45,1.26,1.64,1.64,0,0,0,1.22.45,2.53,2.53,0,0,0,1.36-.43Z" fill="#1e1e1e"/>
      <path d="M131.08,52.58h-3.91c.06.87.61,1.3,1.64,1.3a3.23,3.23,0,0,0,1.74-.46v1.33a4.5,4.5,0,0,1-2.16.45,2.8,2.8,0,0,1-3.06-3.06,3.19,3.19,0,0,1,.87-2.36,2.91,2.91,0,0,1,2.13-.88,2.62,2.62,0,0,1,2,.78,3,3,0,0,1,.72,2.12Zm-1.72-1.14c0-.86-.34-1.29-1-1.29a1,1,0,0,0-.77.37,1.68,1.68,0,0,0-.4.92Z" fill="#1e1e1e"/>
    </g>
    <g>
      <path d="M479.72,50h-2.06l-.6-1.87h-3L473.48,50h-2.05l3.06-8.4h2.24Zm-3.1-3.32-.9-2.83a4.38,4.38,0,0,1-.14-.75h-.05a3.14,3.14,0,0,1-.14.73l-.92,2.85Z" fill="#1e1e1e"/>
      <path d="M485.65,50h-5.39v-.77l3-3.86h-2.71V44h5.06v.91l-2.85,3.72h2.88Z" fill="#1e1e1e"/>
      <path d="M492.41,50h-1.85v-.91h0a2.12,2.12,0,0,1-1.84,1.06c-1.39,0-2.08-.85-2.08-2.53V44h1.84v3.46c0,.84.34,1.27,1,1.27a1,1,0,0,0,.8-.35,1.46,1.46,0,0,0,.29-1V44h1.85Z" fill="#1e1e1e"/>
      <path d="M497.85,45.67a1.61,1.61,0,0,0-.78-.18,1.12,1.12,0,0,0-.94.44,1.92,1.92,0,0,0-.34,1.2V50h-1.85V44h1.85v1.11h0a1.6,1.6,0,0,1,1.58-1.22,1.35,1.35,0,0,1,.46.07Z" fill="#1e1e1e"/>
      <path d="M504.18,47.53h-3.92c.07.87.62,1.3,1.65,1.3a3.23,3.23,0,0,0,1.74-.46V49.7a4.5,4.5,0,0,1-2.16.45,2.8,2.8,0,0,1-3.06-3.06,3.19,3.19,0,0,1,.87-2.36,2.87,2.87,0,0,1,2.13-.88,2.63,2.63,0,0,1,2,.78,3,3,0,0,1,.72,2.12Zm-1.72-1.14c0-.86-.35-1.29-1-1.29a1,1,0,0,0-.77.37,1.68,1.68,0,0,0-.4.92Z" fill="#1e1e1e"/>
      <path d="M518.35,50h-1.87V45c0-.54,0-1.14.07-1.8h0c-.1.52-.19.89-.26,1.12l-2,5.71h-1.55l-2-5.65a9.65,9.65,0,0,1-.27-1.18h-.05c.05.83.08,1.56.08,2.18V50h-1.71V41.6h2.77l1.72,5a6.58,6.58,0,0,1,.3,1.2h0a11.7,11.7,0,0,1,.34-1.21l1.71-5h2.71Z" fill="#1e1e1e"/>
      <path d="M525.06,50H523.3v-.86h0a2,2,0,0,1-1.79,1,1.86,1.86,0,0,1-1.37-.5,1.79,1.79,0,0,1-.5-1.32c0-1.16.69-1.84,2.07-2l1.63-.21c0-.66-.36-1-1.07-1a3.72,3.72,0,0,0-2,.64V44.36a4.22,4.22,0,0,1,1.06-.35,5.12,5.12,0,0,1,1.22-.16,2.27,2.27,0,0,1,2.57,2.56Zm-1.74-2.44v-.4l-1.09.14c-.6.08-.91.35-.91.81a.69.69,0,0,0,.22.52.84.84,0,0,0,.6.2,1.1,1.1,0,0,0,.85-.36A1.29,1.29,0,0,0,523.32,47.56Z" fill="#1e1e1e"/>
      <path d="M531.08,49.78a3.6,3.6,0,0,1-1.81.37,3,3,0,0,1-2.24-.84,2.9,2.9,0,0,1-.86-2.16,3.18,3.18,0,0,1,.92-2.41,3.38,3.38,0,0,1,2.45-.89,3.26,3.26,0,0,1,1.54.28v1.58a2.13,2.13,0,0,0-1.3-.44,1.71,1.71,0,0,0-1.26.47,1.74,1.74,0,0,0-.47,1.28,1.69,1.69,0,0,0,.45,1.25,1.59,1.59,0,0,0,1.22.46,2.49,2.49,0,0,0,1.36-.44Z" fill="#1e1e1e"/>
      <path d="M538.15,50H536.3V46.59q0-1.32-1-1.32a1,1,0,0,0-.8.37,1.45,1.45,0,0,0-.3.94V50h-1.85V41.12h1.85v3.77h0a2.11,2.11,0,0,1,1.85-1q2,0,2,2.46Z" fill="#1e1e1e"/>
      <path d="M540.53,43.05a1.07,1.07,0,0,1-.77-.28.88.88,0,0,1-.3-.68.87.87,0,0,1,.3-.68,1.11,1.11,0,0,1,.77-.26,1.09,1.09,0,0,1,.77.26.87.87,0,0,1,.3.68.89.89,0,0,1-.3.69A1.1,1.1,0,0,1,540.53,43.05Zm.92,7h-1.86V44h1.86Z" fill="#1e1e1e"/>
      <path d="M548.78,50h-1.85V46.67c0-.93-.33-1.4-1-1.4a1,1,0,0,0-.79.37,1.4,1.4,0,0,0-.31.94V50H543V44h1.85v1h0a2.12,2.12,0,0,1,1.93-1.1c1.33,0,2,.83,2,2.48Z" fill="#1e1e1e"/>
      <path d="M555.67,47.53h-3.92c.06.87.61,1.3,1.65,1.3a3.23,3.23,0,0,0,1.74-.46V49.7a4.56,4.56,0,0,1-2.16.45,2.8,2.8,0,0,1-3.06-3.06,3.19,3.19,0,0,1,.87-2.36,2.84,2.84,0,0,1,2.13-.88,2.63,2.63,0,0,1,2,.78,3,3,0,0,1,.72,2.12ZM554,46.39c0-.86-.35-1.29-1-1.29a1,1,0,0,0-.77.37,1.68,1.68,0,0,0-.4.92Z" fill="#1e1e1e"/>
      <path d="M565.26,50h-5V41.6h1.89v6.86h3.11Z" fill="#1e1e1e"/>
      <path d="M571.65,47.53h-3.92c.06.87.61,1.3,1.65,1.3a3.23,3.23,0,0,0,1.74-.46V49.7a4.56,4.56,0,0,1-2.16.45,2.8,2.8,0,0,1-3.06-3.06,3.19,3.19,0,0,1,.87-2.36,2.84,2.84,0,0,1,2.13-.88,2.63,2.63,0,0,1,2,.78,3,3,0,0,1,.72,2.12Zm-1.72-1.14c0-.86-.35-1.29-1-1.29a1,1,0,0,0-.77.37,1.68,1.68,0,0,0-.4.92Z" fill="#1e1e1e"/>
      <path d="M577.8,50H576v-.86h0a2,2,0,0,1-1.79,1,1.86,1.86,0,0,1-1.37-.5,1.79,1.79,0,0,1-.5-1.32c0-1.16.69-1.84,2.07-2l1.63-.21c0-.66-.36-1-1.07-1a3.72,3.72,0,0,0-2,.64V44.36A4.22,4.22,0,0,1,574,44a5.12,5.12,0,0,1,1.22-.16,2.27,2.27,0,0,1,2.57,2.56Zm-1.74-2.44v-.4L575,47.3c-.6.08-.91.35-.91.81a.69.69,0,0,0,.22.52.84.84,0,0,0,.6.2,1.1,1.1,0,0,0,.85-.36A1.29,1.29,0,0,0,576.06,47.56Z" fill="#1e1e1e"/>
      <path d="M583.18,45.67a1.66,1.66,0,0,0-.78-.18,1.14,1.14,0,0,0-.95.44,2,2,0,0,0-.34,1.2V50h-1.85V44h1.85v1.11h0a1.6,1.6,0,0,1,1.58-1.22,1.39,1.39,0,0,1,.46.07Z" fill="#1e1e1e"/>
      <path d="M589.83,50H588V46.67c0-.93-.34-1.4-1-1.4a1,1,0,0,0-.79.37,1.4,1.4,0,0,0-.31.94V50H584V44h1.85v1h0a2.13,2.13,0,0,1,1.93-1.1c1.33,0,2,.83,2,2.48Z" fill="#1e1e1e"/>
      <path d="M592.22,43.05a1.07,1.07,0,0,1-.77-.28.88.88,0,0,1-.3-.68.87.87,0,0,1,.3-.68,1.27,1.27,0,0,1,1.54,0,.86.86,0,0,1,.29.68.88.88,0,0,1-.29.69A1.11,1.11,0,0,1,592.22,43.05Zm.91,7h-1.85V44h1.85Z" fill="#1e1e1e"/>
      <path d="M600.47,50h-1.85V46.67c0-.93-.33-1.4-1-1.4a1,1,0,0,0-.79.37,1.4,1.4,0,0,0-.31.94V50h-1.86V44h1.86v1h0a2.12,2.12,0,0,1,1.93-1.1c1.32,0,2,.83,2,2.48Z" fill="#1e1e1e"/>
      <path d="M607.86,49.31a3.4,3.4,0,0,1-1,2.59,3.94,3.94,0,0,1-2.8.92,4.5,4.5,0,0,1-1.93-.35V50.91a3.71,3.71,0,0,0,1.87.54A2,2,0,0,0,605.5,51a1.79,1.79,0,0,0,.51-1.35v-.47h0a2.08,2.08,0,0,1-1.87,1,2.24,2.24,0,0,1-1.82-.81,3.28,3.28,0,0,1-.68-2.17,3.65,3.65,0,0,1,.75-2.42,2.45,2.45,0,0,1,2-.9,1.81,1.81,0,0,1,1.64.85h0V44h1.85ZM606,47.12v-.48a1.49,1.49,0,0,0-.34-1,1.18,1.18,0,0,0-1.84.08,2.22,2.22,0,0,0-.36,1.36,1.9,1.9,0,0,0,.34,1.18,1.09,1.09,0,0,0,.91.44,1.13,1.13,0,0,0,.93-.44A1.82,1.82,0,0,0,606,47.12Z" fill="#1e1e1e"/>
    </g>
    <g>
      <path d="M258.38,117.15v-8.4h3q4.47,0,4.47,4.09a4.13,4.13,0,0,1-1.22,3.14,4.5,4.5,0,0,1-3.25,1.17Zm1.89-6.86v5.33h.94a2.53,2.53,0,0,0,1.93-.74,2.78,2.78,0,0,0,.7-2,2.55,2.55,0,0,0-.69-1.89,2.64,2.64,0,0,0-1.95-.69Z" fill="#1e1e1e"/>
      <path d="M272,117.15h-1.75v-.86h0a2,2,0,0,1-1.79,1,1.86,1.86,0,0,1-1.37-.5,1.79,1.79,0,0,1-.5-1.32q0-1.74,2.07-2l1.63-.22c0-.66-.36-1-1.07-1a3.72,3.72,0,0,0-2,.64v-1.39a4.67,4.67,0,0,1,1.06-.35,5.69,5.69,0,0,1,1.22-.16,2.27,2.27,0,0,1,2.57,2.56Zm-1.74-2.44v-.4l-1.09.14c-.6.08-.91.35-.91.81a.68.68,0,0,0,.22.52.84.84,0,0,0,.6.2,1.1,1.1,0,0,0,.85-.36A1.29,1.29,0,0,0,270.29,114.71Z" fill="#1e1e1e"/>
      <path d="M277,117.08a2.62,2.62,0,0,1-1.23.22c-1.31,0-2-.68-2-2v-2.74h-1v-1.37h1v-1.29l1.84-.53v1.82H277v1.37h-1.35v2.42c0,.63.25.94.75.94a1.31,1.31,0,0,0,.6-.17Z" fill="#1e1e1e"/>
      <path d="M283.2,117.15h-1.76v-.86h0a2,2,0,0,1-1.79,1,1.86,1.86,0,0,1-1.37-.5,1.75,1.75,0,0,1-.5-1.32q0-1.74,2.07-2l1.63-.22c0-.66-.36-1-1.07-1a3.67,3.67,0,0,0-2,.64v-1.39a4.67,4.67,0,0,1,1.06-.35,5.61,5.61,0,0,1,1.22-.16,2.27,2.27,0,0,1,2.57,2.56Zm-1.74-2.44v-.4l-1.09.14c-.61.08-.91.35-.91.81a.68.68,0,0,0,.22.52.84.84,0,0,0,.6.2,1.1,1.1,0,0,0,.85-.36A1.29,1.29,0,0,0,281.46,114.71Z" fill="#1e1e1e"/>
      <path d="M284.38,117v-1.5a3.82,3.82,0,0,0,.91.41,3.08,3.08,0,0,0,.86.14,1.84,1.84,0,0,0,.78-.14.42.42,0,0,0,.28-.41.37.37,0,0,0-.13-.29,1,1,0,0,0-.33-.21,3.76,3.76,0,0,0-.44-.15c-.16,0-.32-.1-.46-.16a4.68,4.68,0,0,1-.63-.29,1.94,1.94,0,0,1-.46-.36,1.44,1.44,0,0,1-.28-.48,1.76,1.76,0,0,1-.1-.64,1.6,1.6,0,0,1,.22-.86,1.88,1.88,0,0,1,.59-.6,3,3,0,0,1,.83-.34,4.62,4.62,0,0,1,1-.11,4.4,4.4,0,0,1,.8.07,6.83,6.83,0,0,1,.81.17v1.43a3.09,3.09,0,0,0-.75-.3,3.13,3.13,0,0,0-.79-.11,1.27,1.27,0,0,0-.34,0,1,1,0,0,0-.28.09.46.46,0,0,0-.2.16.4.4,0,0,0,0,.5,1,1,0,0,0,.27.2,2.15,2.15,0,0,0,.38.15l.41.14a6.16,6.16,0,0,1,.67.28,1.94,1.94,0,0,1,.51.36,1.29,1.29,0,0,1,.33.48,1.62,1.62,0,0,1,.12.66,1.76,1.76,0,0,1-.23.91,1.81,1.81,0,0,1-.62.61,2.75,2.75,0,0,1-.88.35,5.17,5.17,0,0,1-1,.11A5.23,5.23,0,0,1,284.38,117Z" fill="#1e1e1e"/>
      <path d="M293.65,117.08a2.62,2.62,0,0,1-1.23.22c-1.31,0-2-.68-2-2v-2.74h-1v-1.37h1v-1.29l1.85-.53v1.82h1.34v1.37h-1.34v2.42c0,.63.24.94.74.94a1.24,1.24,0,0,0,.6-.17Z" fill="#1e1e1e"/>
      <path d="M297.55,117.3a3.23,3.23,0,0,1-2.36-.84,3.47,3.47,0,0,1,0-4.61,3.35,3.35,0,0,1,2.41-.85,3.13,3.13,0,0,1,2.34.85,3,3,0,0,1,.85,2.22,3.19,3.19,0,0,1-.87,2.36A3.27,3.27,0,0,1,297.55,117.3Zm0-4.88a1.22,1.22,0,0,0-1,.45,2,2,0,0,0-.37,1.28c0,1.15.47,1.73,1.4,1.73s1.33-.59,1.33-1.78S298.49,112.42,297.59,112.42Z" fill="#1e1e1e"/>
      <path d="M305.93,112.82a1.61,1.61,0,0,0-.78-.18,1.12,1.12,0,0,0-.94.44,1.93,1.93,0,0,0-.34,1.21v2.86H302v-6h1.85v1.11h0a1.59,1.59,0,0,1,1.58-1.21,1.14,1.14,0,0,1,.46.07Z" fill="#1e1e1e"/>
      <path d="M312.26,114.68h-3.92c.07.87.62,1.3,1.65,1.3a3.23,3.23,0,0,0,1.74-.46v1.33a4.5,4.5,0,0,1-2.16.45,2.8,2.8,0,0,1-3.06-3.06,3.19,3.19,0,0,1,.87-2.36,2.91,2.91,0,0,1,2.13-.88,2.63,2.63,0,0,1,2,.78,3,3,0,0,1,.72,2.12Zm-1.72-1.14c0-.86-.35-1.29-1-1.29a1,1,0,0,0-.77.37,1.68,1.68,0,0,0-.4.92Z" fill="#1e1e1e"/>
    </g>
    <g>
      <path d="M414.45,117.15v-8.4h3q4.49,0,4.48,4.09a4.16,4.16,0,0,1-1.22,3.14,4.52,4.52,0,0,1-3.26,1.17Zm1.89-6.86v5.33h.94a2.55,2.55,0,0,0,1.93-.74,2.82,2.82,0,0,0,.7-2,2.52,2.52,0,0,0-.7-1.89,2.63,2.63,0,0,0-1.94-.69Z" fill="#1e1e1e"/>
      <path d="M428.09,117.15h-1.75v-.86h0a2,2,0,0,1-1.79,1,1.86,1.86,0,0,1-1.37-.5,1.75,1.75,0,0,1-.5-1.32c0-1.16.68-1.83,2.06-2l1.63-.22c0-.66-.35-1-1.06-1a3.67,3.67,0,0,0-2,.64v-1.39a4.57,4.57,0,0,1,1.05-.35,5.77,5.77,0,0,1,1.23-.16,2.26,2.26,0,0,1,2.56,2.56Zm-1.74-2.44v-.4l-1.09.14q-.9.12-.9.81a.65.65,0,0,0,.22.52.81.81,0,0,0,.59.2,1.08,1.08,0,0,0,.85-.36A1.29,1.29,0,0,0,426.35,114.71Z" fill="#1e1e1e"/>
      <path d="M433.1,117.08a2.7,2.7,0,0,1-1.24.22c-1.3,0-2-.68-2-2v-2.74h-1v-1.37h1v-1.29l1.85-.53v1.82h1.35v1.37h-1.35v2.42c0,.63.25.94.74.94a1.31,1.31,0,0,0,.61-.17Z" fill="#1e1e1e"/>
      <path d="M439.26,117.15h-1.75v-.86h0a2,2,0,0,1-1.79,1,1.9,1.9,0,0,1-1.38-.5,1.79,1.79,0,0,1-.5-1.32q0-1.74,2.07-2l1.63-.22c0-.66-.35-1-1.07-1a3.66,3.66,0,0,0-2,.64v-1.39a4.57,4.57,0,0,1,1.05-.35,5.77,5.77,0,0,1,1.22-.16,2.27,2.27,0,0,1,2.57,2.56Zm-1.74-2.44v-.4l-1.09.14q-.9.12-.9.81a.65.65,0,0,0,.22.52.8.8,0,0,0,.59.2,1.1,1.1,0,0,0,.85-.36A1.29,1.29,0,0,0,437.52,114.71Z" fill="#1e1e1e"/>
      <path d="M440.45,117v-1.5a3.66,3.66,0,0,0,.91.41,3,3,0,0,0,.86.14,1.83,1.83,0,0,0,.77-.14.43.43,0,0,0,.29-.41.41.41,0,0,0-.13-.29,1.33,1.33,0,0,0-.33-.21,4.53,4.53,0,0,0-.44-.15l-.47-.16a4.68,4.68,0,0,1-.63-.29,2.09,2.09,0,0,1-.45-.36,1.47,1.47,0,0,1-.29-.48,2,2,0,0,1-.09-.64,1.6,1.6,0,0,1,.22-.86,1.84,1.84,0,0,1,.58-.6,3.15,3.15,0,0,1,.84-.34,4.53,4.53,0,0,1,1-.11,4.43,4.43,0,0,1,.81.07,7.78,7.78,0,0,1,.81.17v1.43a3.27,3.27,0,0,0-.75-.3,3.13,3.13,0,0,0-.79-.11,1.22,1.22,0,0,0-.34,0,1.1,1.1,0,0,0-.29.09.49.49,0,0,0-.19.16.34.34,0,0,0-.07.22.4.4,0,0,0,.1.28,1,1,0,0,0,.28.2,1.88,1.88,0,0,0,.38.15l.41.14a6.16,6.16,0,0,1,.67.28,1.94,1.94,0,0,1,.51.36,1.58,1.58,0,0,1,.33.48,1.82,1.82,0,0,1,.11.66,1.67,1.67,0,0,1-.23.91,1.78,1.78,0,0,1-.61.61,2.72,2.72,0,0,1-.89.35,5,5,0,0,1-1,.11A5.17,5.17,0,0,1,440.45,117Z" fill="#1e1e1e"/>
      <path d="M451.56,114.68h-3.92c.06.87.61,1.3,1.65,1.3a3.23,3.23,0,0,0,1.74-.46v1.33a4.56,4.56,0,0,1-2.16.45,2.8,2.8,0,0,1-3.06-3.06,3.23,3.23,0,0,1,.86-2.36,2.91,2.91,0,0,1,2.14-.88,2.63,2.63,0,0,1,2,.78,3,3,0,0,1,.72,2.12Zm-1.72-1.14c0-.86-.35-1.29-1-1.29a1,1,0,0,0-.77.37,1.68,1.68,0,0,0-.4.92Z" fill="#1e1e1e"/>
      <path d="M456.33,117.08a2.67,2.67,0,0,1-1.24.22q-1.95,0-1.95-2v-2.74h-1v-1.37h1v-1.29l1.84-.53v1.82h1.35v1.37H455v2.42c0,.63.25.94.75.94a1.31,1.31,0,0,0,.6-.17Z" fill="#1e1e1e"/>
    </g>
    <g>
      <path d="M533.46,207.15v-8.4h3q4.49,0,4.48,4.09a4.16,4.16,0,0,1-1.22,3.14,4.52,4.52,0,0,1-3.26,1.17Zm1.89-6.86v5.33h.94a2.55,2.55,0,0,0,1.93-.74,2.82,2.82,0,0,0,.7-2,2.52,2.52,0,0,0-.7-1.89,2.63,2.63,0,0,0-1.94-.69Z" fill="#1e1e1e"/>
      <path d="M547.1,207.15h-1.75v-.86h0a2,2,0,0,1-1.79,1,1.86,1.86,0,0,1-1.37-.5,1.75,1.75,0,0,1-.5-1.32c0-1.16.68-1.83,2.06-2l1.63-.22c0-.66-.35-1-1.06-1a3.67,3.67,0,0,0-2,.64v-1.39a4.57,4.57,0,0,1,1-.35,5.77,5.77,0,0,1,1.23-.16,2.26,2.26,0,0,1,2.56,2.56Zm-1.74-2.44v-.4l-1.09.14q-.9.12-.9.81a.65.65,0,0,0,.22.52.81.81,0,0,0,.59.2,1.08,1.08,0,0,0,.85-.36A1.29,1.29,0,0,0,545.36,204.71Z" fill="#1e1e1e"/>
      <path d="M552.11,207.08a2.7,2.7,0,0,1-1.24.22c-1.3,0-2-.68-2-2v-2.74h-1v-1.37h1v-1.29l1.85-.53v1.82h1.35v1.37h-1.35v2.42c0,.63.25.94.74.94a1.31,1.31,0,0,0,.61-.17Z" fill="#1e1e1e"/>
      <path d="M558.27,207.15h-1.75v-.86h0a2,2,0,0,1-1.79,1,1.9,1.9,0,0,1-1.38-.5,1.79,1.79,0,0,1-.5-1.32q0-1.74,2.07-2l1.63-.22c0-.66-.36-1-1.07-1a3.72,3.72,0,0,0-2,.64v-1.39a4.85,4.85,0,0,1,1.06-.35,5.77,5.77,0,0,1,1.22-.16,2.27,2.27,0,0,1,2.57,2.56Zm-1.74-2.44v-.4l-1.09.14q-.9.12-.9.81a.65.65,0,0,0,.22.52.8.8,0,0,0,.59.2,1.1,1.1,0,0,0,.85-.36A1.29,1.29,0,0,0,556.53,204.71Z" fill="#1e1e1e"/>
      <path d="M568.92,207.15h-1.85v-.83h0a2.08,2.08,0,0,1-1.86,1,2.28,2.28,0,0,1-1.81-.8,3.32,3.32,0,0,1-.68-2.21,3.6,3.6,0,0,1,.75-2.39,2.48,2.48,0,0,1,2-.9,1.67,1.67,0,0,1,1.62.84h0v-3.57h1.85Zm-1.82-2.92v-.45a1.4,1.4,0,0,0-.34-1,1.12,1.12,0,0,0-.88-.39,1.1,1.1,0,0,0-1,.49,2.16,2.16,0,0,0-.35,1.32,2,2,0,0,0,.33,1.22,1.11,1.11,0,0,0,.93.43,1.13,1.13,0,0,0,.92-.45A1.92,1.92,0,0,0,567.1,204.23Z" fill="#1e1e1e"/>
      <path d="M574.36,202.82a1.66,1.66,0,0,0-.78-.18,1.14,1.14,0,0,0-1,.44,2,2,0,0,0-.34,1.21v2.86h-1.85v-6h1.85v1.11h0a1.59,1.59,0,0,1,1.58-1.21,1.17,1.17,0,0,1,.46.07Z" fill="#1e1e1e"/>
      <path d="M576.16,200.2a1.06,1.06,0,0,1-.77-.28.88.88,0,0,1-.3-.68.87.87,0,0,1,.3-.68,1.14,1.14,0,0,1,.77-.26,1.16,1.16,0,0,1,.77.26.89.89,0,0,1,.29.68.91.91,0,0,1-.29.69A1.11,1.11,0,0,1,576.16,200.2Zm.91,7h-1.85v-6h1.85Z" fill="#1e1e1e"/>
      <path d="M582.46,199.69a1.73,1.73,0,0,0-.68-.14c-.6,0-.89.32-.89,1v.64h1.37v1.37h-1.37v4.63H579v-4.63h-1v-1.37h1v-.74a2.16,2.16,0,0,1,.67-1.66,2.56,2.56,0,0,1,1.81-.62,3.51,3.51,0,0,1,.94.11Z" fill="#1e1e1e"/>
      <path d="M587,207.08a2.62,2.62,0,0,1-1.23.22c-1.31,0-2-.68-2-2v-2.74h-1v-1.37h1v-1.29l1.84-.53v1.82H587v1.37h-1.35v2.42c0,.63.25.94.75.94a1.31,1.31,0,0,0,.6-.17Z" fill="#1e1e1e"/>
    </g>
    <g>
      <path d="M58,88.88H53.6v-8.4h1V88H58Z" fill="#1e1e1e"/>
      <path d="M61.56,89a2.79,2.79,0,0,1-2.13-.84A3.1,3.1,0,0,1,58.64,86a3.26,3.26,0,0,1,.83-2.36,3,3,0,0,1,2.23-.85,2.69,2.69,0,0,1,2.09.83,3.23,3.23,0,0,1,.76,2.29,3.19,3.19,0,0,1-.82,2.3A2.81,2.81,0,0,1,61.56,89Zm.07-5.47a1.84,1.84,0,0,0-1.47.63,2.59,2.59,0,0,0-.54,1.74,2.46,2.46,0,0,0,.55,1.68,1.85,1.85,0,0,0,1.46.61,1.75,1.75,0,0,0,1.43-.6,2.58,2.58,0,0,0,.5-1.72,2.62,2.62,0,0,0-.5-1.73A1.73,1.73,0,0,0,61.63,83.55Z" fill="#1e1e1e"/>
      <path d="M70.17,88.61a3.19,3.19,0,0,1-1.64.41,2.7,2.7,0,0,1-2.07-.83A3,3,0,0,1,65.67,86a3.32,3.32,0,0,1,.85-2.38,3,3,0,0,1,2.27-.9,3.06,3.06,0,0,1,1.39.3v1a2.45,2.45,0,0,0-1.43-.47,2,2,0,0,0-1.51.66,2.51,2.51,0,0,0-.58,1.73,2.4,2.4,0,0,0,.55,1.67,1.91,1.91,0,0,0,1.48.6,2.39,2.39,0,0,0,1.48-.52Z" fill="#1e1e1e"/>
      <path d="M76,88.88H75V88h0A2,2,0,0,1,73.13,89a2,2,0,0,1-1.4-.47,1.65,1.65,0,0,1-.51-1.26c0-1.12.66-1.77,2-2l1.8-.25c0-1-.41-1.53-1.24-1.53a3,3,0,0,0-2,.74v-1a3.76,3.76,0,0,1,2-.56c1.41,0,2.11.75,2.11,2.24Zm-1-3-1.45.2a2.25,2.25,0,0,0-1,.33,1,1,0,0,0-.34.84.92.92,0,0,0,.31.72,1.24,1.24,0,0,0,.83.27,1.51,1.51,0,0,0,1.18-.5A1.73,1.73,0,0,0,75,86.45Z" fill="#1e1e1e"/>
      <path d="M78.66,88.88h-1V80h1Z" fill="#1e1e1e"/>
      <path d="M89,88.88h-1v-1h0A2.2,2.2,0,0,1,86,89a2.27,2.27,0,0,1-1.81-.8,3.32,3.32,0,0,1-.67-2.2,3.59,3.59,0,0,1,.75-2.38,2.46,2.46,0,0,1,2-.9,1.93,1.93,0,0,1,1.8,1h0V80h1Zm-1-2.71v-.88a1.74,1.74,0,0,0-.48-1.24,1.77,1.77,0,0,0-2.6.15A2.79,2.79,0,0,0,84.47,86,2.53,2.53,0,0,0,85,87.61a1.6,1.6,0,0,0,1.3.6,1.65,1.65,0,0,0,1.31-.58A2.16,2.16,0,0,0,88.06,86.17Z" fill="#1e1e1e"/>
      <path d="M95.16,88.88h-1V88h0A2,2,0,0,1,92.33,89a2,2,0,0,1-1.4-.47,1.65,1.65,0,0,1-.51-1.26c0-1.12.66-1.77,2-2l1.8-.25c0-1-.41-1.53-1.24-1.53a3,3,0,0,0-1.95.74v-1a3.76,3.76,0,0,1,2-.56c1.41,0,2.11.75,2.11,2.24Zm-1-3-1.45.2a2.25,2.25,0,0,0-1,.33,1,1,0,0,0-.34.84.92.92,0,0,0,.31.72,1.24,1.24,0,0,0,.83.27,1.55,1.55,0,0,0,1.19-.5,1.76,1.76,0,0,0,.46-1.26Z" fill="#1e1e1e"/>
      <path d="M99.68,88.82a1.82,1.82,0,0,1-.9.19c-1,0-1.57-.58-1.57-1.76V83.7h-1v-.82h1V81.42l1-.31v1.77h1.51v.82H98.17v3.38a1.49,1.49,0,0,0,.2.87.83.83,0,0,0,.68.25,1,1,0,0,0,.63-.2Z" fill="#1e1e1e"/>
      <path d="M105.36,88.88h-1V88h0A2,2,0,0,1,102.53,89a1.93,1.93,0,0,1-1.4-.47,1.65,1.65,0,0,1-.51-1.26c0-1.12.66-1.77,2-2l1.8-.25c0-1-.41-1.53-1.24-1.53a3,3,0,0,0-2,.74v-1a3.7,3.7,0,0,1,2-.56c1.41,0,2.12.75,2.12,2.24Zm-1-3-1.45.2a2.35,2.35,0,0,0-1,.33,1,1,0,0,0-.34.84.93.93,0,0,0,.32.72,1.22,1.22,0,0,0,.83.27,1.51,1.51,0,0,0,1.18-.5,1.77,1.77,0,0,0,.47-1.26Z" fill="#1e1e1e"/>
      <path d="M113.42,80.84a1.34,1.34,0,0,0-.64-.15c-.67,0-1,.42-1,1.27v.92h1.4v.82h-1.4v5.18h-1V83.7h-1v-.82h1v-1a2,2,0,0,1,.55-1.49,1.8,1.8,0,0,1,1.35-.55,1.86,1.86,0,0,1,.7.11Z" fill="#1e1e1e"/>
      <path d="M114.93,81.36a.6.6,0,0,1-.44-.18.57.57,0,0,1-.18-.44.61.61,0,0,1,.18-.45.6.6,0,0,1,.44-.18.61.61,0,0,1,.45.18.62.62,0,0,1,0,.89A.61.61,0,0,1,114.93,81.36Zm.47,7.52h-1v-6h1Z" fill="#1e1e1e"/>
      <path d="M118.2,88.88h-1V80h1Z" fill="#1e1e1e"/>
      <path d="M124.92,86.12h-4.23a2.19,2.19,0,0,0,.54,1.55,1.85,1.85,0,0,0,1.42.54,3,3,0,0,0,1.86-.66v.9a3.52,3.52,0,0,1-2.09.57,2.54,2.54,0,0,1-2-.81,3.34,3.34,0,0,1-.73-2.3,3.29,3.29,0,0,1,.8-2.29,2.56,2.56,0,0,1,2-.88,2.28,2.28,0,0,1,1.82.76,3.19,3.19,0,0,1,.64,2.12Zm-1-.81a2,2,0,0,0-.4-1.3,1.39,1.39,0,0,0-1.1-.46,1.52,1.52,0,0,0-1.15.49,2.16,2.16,0,0,0-.59,1.27Z" fill="#1e1e1e"/>
      <path d="M60.11,122.88H59l-.89-2.35H54.56l-.84,2.35H52.63l3.22-8.4h1Zm-2.31-3.24-1.32-3.58a3.36,3.36,0,0,1-.12-.56h0a3.13,3.13,0,0,1-.13.56l-1.31,3.58Z" fill="#1e1e1e"/>
      <path d="M65.78,117.16l-3.55,4.9h3.51v.82H60.82v-.3l3.55-4.88H61.15v-.82h4.63Z" fill="#1e1e1e"/>
      <path d="M71.87,122.88h-1v-.95h0A2,2,0,0,1,69,123c-1.43,0-2.15-.85-2.15-2.55v-3.59h1v3.44c0,1.26.48,1.89,1.45,1.89a1.48,1.48,0,0,0,1.16-.51,2,2,0,0,0,.45-1.36v-3.46h1Z" fill="#1e1e1e"/>
      <path d="M76.82,117.86a1.18,1.18,0,0,0-.73-.2,1.25,1.25,0,0,0-1,.58,2.74,2.74,0,0,0-.41,1.58v3.06h-1v-6h1v1.24h0a2.17,2.17,0,0,1,.63-1,1.46,1.46,0,0,1,.94-.35,1.49,1.49,0,0,1,.58.08Z" fill="#1e1e1e"/>
      <path d="M82.7,120.12H78.46a2.28,2.28,0,0,0,.54,1.55,1.87,1.87,0,0,0,1.42.54,3,3,0,0,0,1.86-.66v.9a3.5,3.5,0,0,1-2.09.57,2.54,2.54,0,0,1-2-.81,3.39,3.39,0,0,1-.73-2.3,3.29,3.29,0,0,1,.8-2.29,2.56,2.56,0,0,1,2-.88,2.28,2.28,0,0,1,1.82.76,3.2,3.2,0,0,1,.65,2.12Zm-1-.81a2,2,0,0,0-.4-1.3,1.39,1.39,0,0,0-1.1-.46,1.52,1.52,0,0,0-1.15.49,2.22,2.22,0,0,0-.59,1.27Z" fill="#1e1e1e"/>
      <path d="M91,123a3.7,3.7,0,0,1-2.86-1.17A4.38,4.38,0,0,1,87,118.78a4.62,4.62,0,0,1,1.1-3.23,3.8,3.8,0,0,1,3-1.21,3.62,3.62,0,0,1,2.81,1.17A4.38,4.38,0,0,1,95,118.58a4.63,4.63,0,0,1-1.09,3.25A3.75,3.75,0,0,1,91,123Zm.07-7.79a2.7,2.7,0,0,0-2.15,1,4.26,4.26,0,0,0,0,5,2.64,2.64,0,0,0,2.1,1,2.76,2.76,0,0,0,2.18-.9,3.73,3.73,0,0,0,.8-2.53,3.87,3.87,0,0,0-.77-2.57A2.66,2.66,0,0,0,91,115.23Z" fill="#1e1e1e"/>
      <path d="M97.47,122h0v3.62h-1v-8.76h1v1.06h0a2.26,2.26,0,0,1,2.07-1.2,2.18,2.18,0,0,1,1.81.81,3.28,3.28,0,0,1,.65,2.16,3.72,3.72,0,0,1-.73,2.41,2.45,2.45,0,0,1-2,.9A2,2,0,0,1,97.47,122Zm0-2.42v.83a1.82,1.82,0,0,0,.49,1.27,1.73,1.73,0,0,0,2.59-.15,3.09,3.09,0,0,0,.5-1.86,2.47,2.47,0,0,0-.46-1.57,1.54,1.54,0,0,0-1.26-.57,1.73,1.73,0,0,0-1.35.58A2.16,2.16,0,0,0,97.44,119.6Z" fill="#1e1e1e"/>
      <path d="M108.36,120.12h-4.24a2.28,2.28,0,0,0,.54,1.55,1.88,1.88,0,0,0,1.42.54,2.94,2.94,0,0,0,1.86-.66v.9a3.47,3.47,0,0,1-2.09.57,2.56,2.56,0,0,1-2-.81,3.39,3.39,0,0,1-.72-2.3,3.29,3.29,0,0,1,.79-2.29,2.58,2.58,0,0,1,2-.88,2.29,2.29,0,0,1,1.83.76,3.19,3.19,0,0,1,.64,2.12Zm-1-.81A2,2,0,0,0,107,118a1.38,1.38,0,0,0-1.09-.46,1.54,1.54,0,0,0-1.16.49,2.21,2.21,0,0,0-.58,1.27Z" fill="#1e1e1e"/>
      <path d="M114.79,122.88h-1v-3.42c0-1.27-.46-1.91-1.39-1.91a1.5,1.5,0,0,0-1.19.54,2,2,0,0,0-.48,1.37v3.42h-1v-6h1v1h0a2.16,2.16,0,0,1,2-1.14,1.82,1.82,0,0,1,1.5.64,2.79,2.79,0,0,1,.52,1.83Z" fill="#1e1e1e"/>
      <path d="M120,122.88v-8.4h2.32q4.44,0,4.44,4.1a4.12,4.12,0,0,1-1.23,3.12,4.55,4.55,0,0,1-3.3,1.18Zm1-7.51V122h1.26a3.55,3.55,0,0,0,2.57-.88,3.34,3.34,0,0,0,.92-2.51q0-3.22-3.43-3.23Z" fill="#1e1e1e"/>
      <path d="M132.48,122.88h-1V122h0a2,2,0,0,1-1.84,1.07,2,2,0,0,1-1.41-.47,1.64,1.64,0,0,1-.5-1.26c0-1.12.66-1.77,2-2l1.79-.25q0-1.53-1.23-1.53a3,3,0,0,0-2,.74v-1a3.76,3.76,0,0,1,2-.56c1.41,0,2.12.75,2.12,2.24Zm-1-3-1.44.2a2.3,2.3,0,0,0-1,.33,1,1,0,0,0-.34.84.92.92,0,0,0,.31.72,1.25,1.25,0,0,0,.84.27,1.53,1.53,0,0,0,1.18-.5,1.76,1.76,0,0,0,.46-1.26Z" fill="#1e1e1e"/>
      <path d="M137,122.82a1.76,1.76,0,0,1-.89.19c-1.06,0-1.58-.58-1.58-1.76V117.7h-1v-.82h1v-1.46l1-.31v1.77H137v.82h-1.51v3.38a1.41,1.41,0,0,0,.21.87.81.81,0,0,0,.68.25.94.94,0,0,0,.62-.2Z" fill="#1e1e1e"/>
      <path d="M142.67,122.88h-1V122h0a2,2,0,0,1-1.85,1.07,2,2,0,0,1-1.4-.47,1.65,1.65,0,0,1-.51-1.26c0-1.12.66-1.77,2-2l1.8-.25q0-1.53-1.23-1.53a3,3,0,0,0-2,.74v-1a3.76,3.76,0,0,1,2-.56c1.41,0,2.11.75,2.11,2.24Zm-1-3-1.45.2a2.25,2.25,0,0,0-1,.33,1,1,0,0,0-.34.84.92.92,0,0,0,.31.72,1.25,1.25,0,0,0,.84.27,1.53,1.53,0,0,0,1.18-.5,1.76,1.76,0,0,0,.46-1.26Z" fill="#1e1e1e"/>
      <path d="M144.09,122.67v-1a2.82,2.82,0,0,0,1.73.58q1.26,0,1.26-.84a.78.78,0,0,0-.1-.41,1,1,0,0,0-.3-.29,1.59,1.59,0,0,0-.43-.23l-.54-.22a5.79,5.79,0,0,1-.7-.32,2,2,0,0,1-.5-.36,1.29,1.29,0,0,1-.31-.46,1.79,1.79,0,0,1-.1-.6,1.55,1.55,0,0,1,.19-.75,1.82,1.82,0,0,1,.52-.55,2.77,2.77,0,0,1,.74-.33,3.56,3.56,0,0,1,2.24.16v1a2.78,2.78,0,0,0-1.52-.43,1.88,1.88,0,0,0-.49.06,1.06,1.06,0,0,0-.37.18.85.85,0,0,0-.24.26.68.68,0,0,0-.08.34.82.82,0,0,0,.08.4.94.94,0,0,0,.25.28,2.11,2.11,0,0,0,.4.22l.53.22a6.21,6.21,0,0,1,.72.31,2.82,2.82,0,0,1,.54.36,1.57,1.57,0,0,1,.34.47,1.54,1.54,0,0,1,.12.63,1.5,1.5,0,0,1-.2.77,1.7,1.7,0,0,1-.52.55,2.49,2.49,0,0,1-.76.32,3.68,3.68,0,0,1-.89.1A3.51,3.51,0,0,1,144.09,122.67Z" fill="#1e1e1e"/>
      <path d="M154.35,120.12h-4.24a2.28,2.28,0,0,0,.54,1.55,1.87,1.87,0,0,0,1.42.54,3,3,0,0,0,1.86-.66v.9a3.5,3.5,0,0,1-2.09.57,2.56,2.56,0,0,1-2-.81,3.39,3.39,0,0,1-.73-2.3,3.29,3.29,0,0,1,.8-2.29,2.56,2.56,0,0,1,2-.88,2.27,2.27,0,0,1,1.82.76,3.2,3.2,0,0,1,.65,2.12Zm-1-.81a2,2,0,0,0-.4-1.3,1.39,1.39,0,0,0-1.1-.46,1.52,1.52,0,0,0-1.15.49,2.22,2.22,0,0,0-.59,1.27Z" fill="#1e1e1e"/>
      <path d="M158.58,122.82a1.82,1.82,0,0,1-.9.19c-1.05,0-1.58-.58-1.58-1.76V117.7h-1v-.82h1v-1.46l1-.31v1.77h1.51v.82h-1.51v3.38a1.41,1.41,0,0,0,.2.87.82.82,0,0,0,.68.25,1,1,0,0,0,.63-.2Z" fill="#1e1e1e"/>
      <path d="M54.59,153.71v3.17h-1v-8.4h2.31a3,3,0,0,1,2.09.66,2.34,2.34,0,0,1,.74,1.85,2.54,2.54,0,0,1-.82,2,3.19,3.19,0,0,1-2.23.76Zm0-4.34v3.45h1a2.28,2.28,0,0,0,1.55-.47,1.64,1.64,0,0,0,.54-1.31c0-1.11-.66-1.67-2-1.67Z" fill="#1e1e1e"/>
      <path d="M64.94,156.88H64v-.95h0A2,2,0,0,1,62.1,157c-1.43,0-2.14-.85-2.14-2.55v-3.59h.95v3.44c0,1.26.48,1.89,1.45,1.89a1.48,1.48,0,0,0,1.16-.51,2,2,0,0,0,.45-1.36v-3.46h1Z" fill="#1e1e1e"/>
      <path d="M67.74,156h0v.86h-1V148h1v3.94h0a2.26,2.26,0,0,1,2.07-1.2,2.2,2.2,0,0,1,1.81.81,3.33,3.33,0,0,1,.65,2.16,3.72,3.72,0,0,1-.73,2.41,2.46,2.46,0,0,1-2,.9A2,2,0,0,1,67.74,156Zm0-2.42v.83a1.77,1.77,0,0,0,.49,1.27,1.73,1.73,0,0,0,2.59-.15,3.09,3.09,0,0,0,.5-1.86,2.41,2.41,0,0,0-.47-1.57,1.51,1.51,0,0,0-1.25-.57,1.73,1.73,0,0,0-1.35.58A2.16,2.16,0,0,0,67.71,153.6Z" fill="#1e1e1e"/>
      <path d="M74.72,156.88h-1V148h1Z" fill="#1e1e1e"/>
      <path d="M77,149.36a.59.59,0,0,1-.44-.18.57.57,0,0,1-.18-.44.61.61,0,0,1,.18-.45.59.59,0,0,1,.44-.18.6.6,0,0,1,.44.18.58.58,0,0,1,.19.45.58.58,0,0,1-.19.44A.6.6,0,0,1,77,149.36Zm.47,7.52h-1v-6h1Z" fill="#1e1e1e"/>
      <path d="M83.44,156.61a3.19,3.19,0,0,1-1.64.41,2.68,2.68,0,0,1-2.07-.83,3,3,0,0,1-.79-2.17,3.32,3.32,0,0,1,.85-2.38,3,3,0,0,1,2.27-.9,3.09,3.09,0,0,1,1.39.3v1a2.45,2.45,0,0,0-1.43-.47,2,2,0,0,0-1.51.66,2.52,2.52,0,0,0-.59,1.73,2.41,2.41,0,0,0,.56,1.67,1.91,1.91,0,0,0,1.48.6,2.39,2.39,0,0,0,1.48-.52Z" fill="#1e1e1e"/>
      <path d="M94.46,153.48q0,3.54-3.2,3.54t-3.06-3.4v-5.14h1v5.07c0,1.73.72,2.59,2.18,2.59s2.1-.83,2.1-2.5v-5.16h1Z" fill="#1e1e1e"/>
      <path d="M102.49,156.88h-1.17l-1.4-2.35a4.9,4.9,0,0,0-.38-.56,1.92,1.92,0,0,0-.37-.38,1.14,1.14,0,0,0-.41-.21,1.55,1.55,0,0,0-.5-.07h-.8v3.57h-1v-8.4H99a3.7,3.7,0,0,1,1,.14,2.11,2.11,0,0,1,.8.42,1.88,1.88,0,0,1,.54.7,2.58,2.58,0,0,1,.06,1.78,2.13,2.13,0,0,1-.37.66,2.57,2.57,0,0,1-.59.49,3,3,0,0,1-.77.31v0a2.58,2.58,0,0,1,.37.22,1.9,1.9,0,0,1,.29.28,3.58,3.58,0,0,1,.28.37l.31.49Zm-5-7.51v3h1.33a2.11,2.11,0,0,0,.68-.11A1.77,1.77,0,0,0,100,152a1.41,1.41,0,0,0,.35-.51,1.65,1.65,0,0,0,.13-.68,1.31,1.31,0,0,0-.43-1.05,1.92,1.92,0,0,0-1.27-.38Z" fill="#1e1e1e"/>
      <path d="M108,156.88h-4.36v-8.4h1V156H108Z" fill="#1e1e1e"/>
    </g>
    <g>
      <path d="M315.54,162.15h-1.87v-5c0-.54,0-1.14.07-1.8h-.05c-.1.52-.19.89-.26,1.12l-2,5.71h-1.55l-2-5.65a9.65,9.65,0,0,1-.27-1.18h-.05c.05.83.08,1.56.08,2.18v4.65H306v-8.4h2.77l1.72,5a6.58,6.58,0,0,1,.3,1.2h0a12.46,12.46,0,0,1,.34-1.21l1.71-5h2.71Z" fill="#1e1e1e"/>
      <path d="M320.09,162.3a3.23,3.23,0,0,1-2.36-.84,3.47,3.47,0,0,1,0-4.61,3.33,3.33,0,0,1,2.41-.85,3.14,3.14,0,0,1,2.34.85,3,3,0,0,1,.85,2.22,3.19,3.19,0,0,1-.87,2.36A3.27,3.27,0,0,1,320.09,162.3Zm0-4.88a1.26,1.26,0,0,0-1,.45,2,2,0,0,0-.36,1.28c0,1.15.46,1.73,1.39,1.73s1.33-.59,1.33-1.78S321,157.42,320.13,157.42Z" fill="#1e1e1e"/>
      <path d="M330.46,162.15h-1.85v-.83h0a2.08,2.08,0,0,1-1.86,1,2.28,2.28,0,0,1-1.81-.8,3.27,3.27,0,0,1-.69-2.21,3.6,3.6,0,0,1,.76-2.39,2.45,2.45,0,0,1,2-.9,1.69,1.69,0,0,1,1.62.84h0v-3.57h1.85Zm-1.81-2.92v-.45a1.45,1.45,0,0,0-.34-1,1.12,1.12,0,0,0-.89-.39,1.1,1.1,0,0,0-1,.49,2.23,2.23,0,0,0-.34,1.32,2,2,0,0,0,.33,1.22,1.1,1.1,0,0,0,.93.43,1.11,1.11,0,0,0,.91-.45A1.87,1.87,0,0,0,328.65,159.23Z" fill="#1e1e1e"/>
      <path d="M337.41,159.68H333.5c.06.87.61,1.3,1.64,1.3a3.23,3.23,0,0,0,1.74-.46v1.33a4.5,4.5,0,0,1-2.16.45,2.81,2.81,0,0,1-3.06-3.06,3.19,3.19,0,0,1,.87-2.36,2.91,2.91,0,0,1,2.13-.88,2.62,2.62,0,0,1,2,.78,3,3,0,0,1,.72,2.12Zm-1.71-1.14q0-1.29-1.05-1.29a1,1,0,0,0-.77.37,1.6,1.6,0,0,0-.39.92Z" fill="#1e1e1e"/>
      <path d="M340.44,162.15h-1.86v-8.88h1.86Z" fill="#1e1e1e"/>
      <path d="M309.41,176.48a2.7,2.7,0,0,1-1.24.22c-1.3,0-2-.68-2-2v-2.74h-1v-1.37h1v-1.29l1.85-.53v1.82h1.35v1.37h-1.35v2.42c0,.63.25.94.74.94a1.31,1.31,0,0,0,.61-.17Z" fill="#1e1e1e"/>
      <path d="M314.49,172.22a1.66,1.66,0,0,0-.78-.18,1.14,1.14,0,0,0-.95.44,2,2,0,0,0-.34,1.21v2.86h-1.85v-6h1.85v1.11h0a1.59,1.59,0,0,1,1.58-1.21,1.17,1.17,0,0,1,.46.07Z" fill="#1e1e1e"/>
      <path d="M320.26,176.55h-1.75v-.86h0a2,2,0,0,1-1.78,1,1.88,1.88,0,0,1-1.38-.5,1.79,1.79,0,0,1-.5-1.32c0-1.16.69-1.84,2.07-2l1.63-.22c0-.66-.36-1-1.07-1a3.72,3.72,0,0,0-2,.64v-1.39a4.67,4.67,0,0,1,1.06-.35,5.77,5.77,0,0,1,1.22-.16,2.27,2.27,0,0,1,2.57,2.56Zm-1.74-2.44v-.4l-1.09.14q-.9.12-.9.81a.65.65,0,0,0,.22.52.8.8,0,0,0,.59.2,1.1,1.1,0,0,0,.85-.36A1.29,1.29,0,0,0,318.52,174.11Z" fill="#1e1e1e"/>
      <path d="M322.64,169.6a1,1,0,0,1-.76-.28.88.88,0,0,1-.3-.68.87.87,0,0,1,.3-.68,1.26,1.26,0,0,1,1.53,0,.87.87,0,0,1,.3.68.89.89,0,0,1-.3.69A1.08,1.08,0,0,1,322.64,169.6Zm.92,7h-1.85v-6h1.85Z" fill="#1e1e1e"/>
      <path d="M330.89,176.55h-1.84v-3.33c0-.93-.34-1.4-1-1.4a1,1,0,0,0-.79.37,1.4,1.4,0,0,0-.31.94v3.42H325.1v-6H327v.95h0a2.13,2.13,0,0,1,1.93-1.1c1.33,0,2,.83,2,2.48Z" fill="#1e1e1e"/>
      <path d="M333.28,169.6a1.06,1.06,0,0,1-.77-.28.88.88,0,0,1-.3-.68.87.87,0,0,1,.3-.68,1.14,1.14,0,0,1,.77-.26,1.16,1.16,0,0,1,.77.26.89.89,0,0,1,.29.68.91.91,0,0,1-.29.69A1.11,1.11,0,0,1,333.28,169.6Zm.91,7h-1.85v-6h1.85Z" fill="#1e1e1e"/>
      <path d="M341.53,176.55h-1.85v-3.33c0-.93-.33-1.4-1-1.4a1,1,0,0,0-.8.37,1.46,1.46,0,0,0-.31.94v3.42h-1.85v-6h1.85v.95h0a2.12,2.12,0,0,1,1.93-1.1c1.32,0,2,.83,2,2.48Z" fill="#1e1e1e"/>
      <path d="M348.92,175.87a3.39,3.39,0,0,1-1,2.58,4,4,0,0,1-2.81.92,4.48,4.48,0,0,1-1.92-.35v-1.56a3.68,3.68,0,0,0,1.87.54,2,2,0,0,0,1.45-.49,1.76,1.76,0,0,0,.52-1.35v-.47h0a2.08,2.08,0,0,1-1.87,1,2.22,2.22,0,0,1-1.82-.81,3.28,3.28,0,0,1-.68-2.17,3.67,3.67,0,0,1,.75-2.42,2.45,2.45,0,0,1,2-.9,1.84,1.84,0,0,1,1.64.85h0v-.7h1.85Zm-1.83-2.2v-.48a1.48,1.48,0,0,0-.33-1,1.13,1.13,0,0,0-.88-.4,1.15,1.15,0,0,0-1,.48,2.3,2.3,0,0,0-.35,1.36,1.84,1.84,0,0,0,.34,1.18,1.08,1.08,0,0,0,.91.44,1.16,1.16,0,0,0,.93-.44A1.81,1.81,0,0,0,347.09,173.67Z" fill="#1e1e1e"/>
    </g>
    <g>
      <path d="M321.07,199.64h-2.43v7.51h-1v-7.51h-2.42v-.89h5.83Z" fill="#1e1e1e"/>
      <path d="M324.54,202.12a1.18,1.18,0,0,0-.73-.19,1.2,1.2,0,0,0-1,.58,2.64,2.64,0,0,0-.42,1.58v3.06h-1v-6h1v1.24h0a2.08,2.08,0,0,1,.62-1,1.42,1.42,0,0,1,1-.35,1.44,1.44,0,0,1,.57.08Z" fill="#1e1e1e"/>
      <path d="M329.84,207.15h-1v-.94h0a2.2,2.2,0,0,1-3.25.61,1.65,1.65,0,0,1-.51-1.26c0-1.12.66-1.78,2-2l1.8-.25q0-1.53-1.23-1.53a2.91,2.91,0,0,0-2,.74v-1a3.76,3.76,0,0,1,2-.56c1.41,0,2.11.75,2.11,2.24Zm-1-3-1.44.19a2.43,2.43,0,0,0-1,.34.93.93,0,0,0-.34.84.89.89,0,0,0,.31.71,1.2,1.2,0,0,0,.84.28,1.53,1.53,0,0,0,1.18-.5,1.77,1.77,0,0,0,.46-1.27Z" fill="#1e1e1e"/>
      <path d="M332.06,199.63a.58.58,0,0,1-.43-.18.56.56,0,0,1-.19-.44.63.63,0,0,1,.62-.63.61.61,0,0,1,.45.18.58.58,0,0,1,.19.45.59.59,0,0,1-.19.44A.61.61,0,0,1,332.06,199.63Zm.47,7.52h-1v-6h1Z" fill="#1e1e1e"/>
      <path d="M339.34,207.15h-1v-3.42c0-1.27-.47-1.91-1.4-1.91a1.52,1.52,0,0,0-1.19.54,2,2,0,0,0-.47,1.37v3.42h-1v-6h1v1h0a2.17,2.17,0,0,1,2-1.14,1.83,1.83,0,0,1,1.51.64,2.79,2.79,0,0,1,.52,1.83Z" fill="#1e1e1e"/>
      <path d="M341.56,199.63a.58.58,0,0,1-.43-.18.56.56,0,0,1-.19-.44.63.63,0,0,1,.62-.63.61.61,0,0,1,.45.18.58.58,0,0,1,.19.45.59.59,0,0,1-.19.44A.61.61,0,0,1,341.56,199.63Zm.47,7.52h-1v-6h1Z" fill="#1e1e1e"/>
      <path d="M348.84,207.15h-1v-3.42c0-1.27-.46-1.91-1.39-1.91a1.52,1.52,0,0,0-1.2.54,2,2,0,0,0-.47,1.37v3.42h-1v-6h1v1h0a2.17,2.17,0,0,1,2-1.14,1.83,1.83,0,0,1,1.51.64,2.79,2.79,0,0,1,.52,1.83Z" fill="#1e1e1e"/>
      <path d="M355.77,206.67c0,2.2-1,3.31-3.16,3.31a4.31,4.31,0,0,1-1.95-.43v-1a4,4,0,0,0,1.94.56c1.47,0,2.21-.78,2.21-2.35v-.66h0a2.25,2.25,0,0,1-2.06,1.15,2.28,2.28,0,0,1-1.81-.8,3.22,3.22,0,0,1-.68-2.15,3.73,3.73,0,0,1,.74-2.43,2.46,2.46,0,0,1,2-.9,2,2,0,0,1,1.8,1h0v-.83h1Zm-1-2.23v-.89a1.72,1.72,0,0,0-.48-1.22,1.6,1.6,0,0,0-1.21-.51,1.65,1.65,0,0,0-1.39.65,2.85,2.85,0,0,0-.5,1.81,2.48,2.48,0,0,0,.48,1.6,1.56,1.56,0,0,0,1.28.6,1.65,1.65,0,0,0,1.31-.57A2.12,2.12,0,0,0,354.81,204.44Z" fill="#1e1e1e"/>
      <path d="M360.64,206.93v-1a2.84,2.84,0,0,0,1.73.58c.84,0,1.27-.28,1.27-.84a.76.76,0,0,0-.11-.41.93.93,0,0,0-.3-.29,1.94,1.94,0,0,0-.43-.24l-.54-.21a6.6,6.6,0,0,1-.7-.32,2.47,2.47,0,0,1-.5-.36,1.35,1.35,0,0,1-.3-.46,1.58,1.58,0,0,1-.11-.61,1.39,1.39,0,0,1,.2-.74,1.78,1.78,0,0,1,.51-.55,2.77,2.77,0,0,1,.74-.33,3.56,3.56,0,0,1,2.24.16v1a2.68,2.68,0,0,0-1.52-.43,1.88,1.88,0,0,0-.49.06,1.4,1.4,0,0,0-.37.17,1,1,0,0,0-.24.27.77.77,0,0,0-.08.34,1,1,0,0,0,.08.4,1.07,1.07,0,0,0,.25.28,2.11,2.11,0,0,0,.4.22l.53.22a6.21,6.21,0,0,1,.72.31,2.82,2.82,0,0,1,.54.36,1.41,1.41,0,0,1,.34.47,1.48,1.48,0,0,1,.12.63,1.5,1.5,0,0,1-.2.77,1.58,1.58,0,0,1-.52.54,2.28,2.28,0,0,1-.76.33,3.68,3.68,0,0,1-.89.1A3.39,3.39,0,0,1,360.64,206.93Z" fill="#1e1e1e"/>
      <path d="M370.17,206.88a3.19,3.19,0,0,1-1.64.41,2.75,2.75,0,0,1-2.07-.83,3,3,0,0,1-.79-2.17,3.35,3.35,0,0,1,.85-2.38,3,3,0,0,1,2.27-.9,3.2,3.2,0,0,1,1.39.29v1a2.45,2.45,0,0,0-1.43-.47,1.91,1.91,0,0,0-1.5.66,2.46,2.46,0,0,0-.59,1.73,2.36,2.36,0,0,0,.55,1.66,1.89,1.89,0,0,0,1.49.61,2.38,2.38,0,0,0,1.47-.52Z" fill="#1e1e1e"/>
      <path d="M374.59,202.12a1.18,1.18,0,0,0-.73-.19,1.23,1.23,0,0,0-1,.58,2.72,2.72,0,0,0-.41,1.58v3.06h-1v-6h1v1.24h0a2.17,2.17,0,0,1,.63-1,1.39,1.39,0,0,1,.94-.35,1.52,1.52,0,0,1,.58.08Z" fill="#1e1e1e"/>
      <path d="M376.15,199.63a.6.6,0,0,1-.44-.18.59.59,0,0,1-.18-.44.61.61,0,0,1,.18-.45.6.6,0,0,1,.44-.18.61.61,0,0,1,.45.18.62.62,0,0,1,.19.45.63.63,0,0,1-.19.44A.61.61,0,0,1,376.15,199.63Zm.47,7.52h-1v-6h1Z" fill="#1e1e1e"/>
      <path d="M379.43,206.28h0v3.63h-1v-8.76h1v1.06h0a2.28,2.28,0,0,1,2.08-1.2,2.2,2.2,0,0,1,1.81.81A3.33,3.33,0,0,1,384,204a3.73,3.73,0,0,1-.74,2.41,2.42,2.42,0,0,1-2,.9A2,2,0,0,1,379.43,206.28Zm0-2.42v.84a1.77,1.77,0,0,0,.48,1.26,1.59,1.59,0,0,0,1.23.52,1.6,1.6,0,0,0,1.37-.67A3,3,0,0,0,383,204a2.41,2.41,0,0,0-.46-1.57,1.53,1.53,0,0,0-1.25-.57,1.7,1.7,0,0,0-1.35.58A2.15,2.15,0,0,0,379.41,203.86Z" fill="#1e1e1e"/>
      <path d="M388.21,207.09a1.76,1.76,0,0,1-.89.19c-1.05,0-1.58-.59-1.58-1.76V202h-1v-.82h1v-1.46l1-.31v1.77h1.51V202H386.7v3.38a1.37,1.37,0,0,0,.21.86.78.78,0,0,0,.68.26,1,1,0,0,0,.62-.2Z" fill="#1e1e1e"/>
      <path d="M389.23,206.93v-1a2.82,2.82,0,0,0,1.73.58q1.26,0,1.26-.84a.76.76,0,0,0-.1-.41,1,1,0,0,0-.3-.29,2.19,2.19,0,0,0-.43-.24l-.54-.21a5.79,5.79,0,0,1-.7-.32,2.22,2.22,0,0,1-.5-.36,1.38,1.38,0,0,1-.31-.46,1.81,1.81,0,0,1-.1-.61,1.48,1.48,0,0,1,.19-.74,1.82,1.82,0,0,1,.52-.55,2.77,2.77,0,0,1,.74-.33,3.56,3.56,0,0,1,2.24.16v1a2.7,2.7,0,0,0-1.52-.43,1.88,1.88,0,0,0-.49.06,1.26,1.26,0,0,0-.37.17,1,1,0,0,0-.24.27.66.66,0,0,0-.08.34.82.82,0,0,0,.08.4,1.07,1.07,0,0,0,.25.28,2.11,2.11,0,0,0,.4.22l.53.22a6.21,6.21,0,0,1,.72.31,2.82,2.82,0,0,1,.54.36,1.57,1.57,0,0,1,.34.47,1.48,1.48,0,0,1,.12.63,1.5,1.5,0,0,1-.2.77,1.58,1.58,0,0,1-.52.54,2.28,2.28,0,0,1-.76.33,3.71,3.71,0,0,1-.9.1A3.37,3.37,0,0,1,389.23,206.93Z" fill="#1e1e1e"/>
      <path d="M322.61,242.15h-1.09l-.89-2.35h-3.57l-.84,2.35h-1.09l3.22-8.4h1Zm-2.31-3.24L319,235.33a3.61,3.61,0,0,1-.12-.56h0a3.36,3.36,0,0,1-.13.56l-1.31,3.58Z" fill="#1e1e1e"/>
      <path d="M328.41,242.15h-1v-1h0a2,2,0,0,1-1.86,1.09c-1.43,0-2.14-.85-2.14-2.55v-3.59h.95v3.43c0,1.27.49,1.9,1.46,1.9A1.44,1.44,0,0,0,327,241a1.92,1.92,0,0,0,.46-1.35v-3.46h1Z" fill="#1e1e1e"/>
      <path d="M333.08,242.09a1.76,1.76,0,0,1-.89.19c-1.05,0-1.58-.59-1.58-1.76V237h-1v-.82h1v-1.46l1-.31v1.77h1.51V237h-1.51v3.38a1.37,1.37,0,0,0,.21.86.78.78,0,0,0,.68.26,1,1,0,0,0,.62-.2Z" fill="#1e1e1e"/>
      <path d="M336.74,242.29a2.79,2.79,0,0,1-2.12-.84,3.1,3.1,0,0,1-.79-2.23,3.24,3.24,0,0,1,.82-2.36,3,3,0,0,1,2.23-.85,2.7,2.7,0,0,1,2.1.83,3.77,3.77,0,0,1-.06,4.59A2.87,2.87,0,0,1,336.74,242.29Zm.07-5.47a1.83,1.83,0,0,0-1.46.63,2.59,2.59,0,0,0-.54,1.74,2.46,2.46,0,0,0,.54,1.68,1.86,1.86,0,0,0,1.46.61,1.79,1.79,0,0,0,1.44-.6,3.23,3.23,0,0,0,0-3.45A1.76,1.76,0,0,0,336.81,236.82Z" fill="#1e1e1e"/>
      <path d="M349.73,242.15h-1v-3.44a2.58,2.58,0,0,0-.31-1.45,1.17,1.17,0,0,0-1-.44,1.3,1.3,0,0,0-1.05.56,2.22,2.22,0,0,0-.43,1.35v3.42h-1v-3.56c0-1.18-.45-1.77-1.36-1.77a1.3,1.3,0,0,0-1.05.53,2.2,2.2,0,0,0-.41,1.38v3.42h-1v-6h1v.95h0a2,2,0,0,1,1.86-1.09,1.73,1.73,0,0,1,1.7,1.24,2.14,2.14,0,0,1,2-1.24c1.32,0,2,.81,2,2.44Z" fill="#1e1e1e"/>
      <path d="M355.77,242.15h-1v-.94h0a2,2,0,0,1-1.85,1.08,2,2,0,0,1-1.4-.47,1.65,1.65,0,0,1-.51-1.26c0-1.12.66-1.78,2-2l1.8-.25c0-1-.41-1.53-1.24-1.53a2.9,2.9,0,0,0-1.95.74v-1a3.76,3.76,0,0,1,2-.56c1.41,0,2.11.75,2.11,2.24Zm-1-3-1.45.19a2.37,2.37,0,0,0-1,.34.93.93,0,0,0-.34.84.89.89,0,0,0,.31.71,1.19,1.19,0,0,0,.83.28,1.51,1.51,0,0,0,1.18-.5,1.74,1.74,0,0,0,.47-1.27Z" fill="#1e1e1e"/>
      <path d="M360.29,242.09a1.76,1.76,0,0,1-.89.19c-1,0-1.58-.59-1.58-1.76V237h-1v-.82h1v-1.46l1-.31v1.77h1.51V237h-1.51v3.38a1.37,1.37,0,0,0,.21.86.78.78,0,0,0,.68.26,1,1,0,0,0,.62-.2Z" fill="#1e1e1e"/>
      <path d="M366.3,239.39h-4.24a2.3,2.3,0,0,0,.54,1.55,1.87,1.87,0,0,0,1.42.54,2.93,2.93,0,0,0,1.86-.67v.91a3.5,3.5,0,0,1-2.09.57,2.53,2.53,0,0,1-2-.82,3.36,3.36,0,0,1-.73-2.3,3.29,3.29,0,0,1,.8-2.28,2.53,2.53,0,0,1,2-.88,2.24,2.24,0,0,1,1.82.76,3.18,3.18,0,0,1,.65,2.12Zm-1-.81a2,2,0,0,0-.4-1.3,1.36,1.36,0,0,0-1.1-.46,1.52,1.52,0,0,0-1.15.49,2.19,2.19,0,0,0-.59,1.27Z" fill="#1e1e1e"/>
      <path d="M372.93,242.15h-1v-1h0a2.23,2.23,0,0,1-2.06,1.16,2.25,2.25,0,0,1-1.81-.8,3.33,3.33,0,0,1-.68-2.2,3.57,3.57,0,0,1,.75-2.38,2.48,2.48,0,0,1,2-.9,1.93,1.93,0,0,1,1.8,1h0v-3.71h1Zm-1-2.71v-.89a1.73,1.73,0,0,0-.48-1.23,1.62,1.62,0,0,0-1.22-.5,1.66,1.66,0,0,0-1.38.64,2.81,2.81,0,0,0-.5,1.78,2.54,2.54,0,0,0,.48,1.64,1.59,1.59,0,0,0,1.3.6,1.63,1.63,0,0,0,1.3-.58A2.11,2.11,0,0,0,372,239.44Z" fill="#1e1e1e"/>
      <path d="M386.86,242.15h-1v-5.64c0-.44,0-1,.08-1.63h0a5.05,5.05,0,0,1-.25.81l-2.87,6.46h-.48l-2.87-6.41a5.64,5.64,0,0,1-.25-.86h0c0,.34,0,.88,0,1.65v5.62h-.95v-8.4h1.31l2.57,5.86a7.38,7.38,0,0,1,.39,1h0c.16-.47.3-.81.4-1l2.63-5.83h1.23Z" fill="#1e1e1e"/>
      <path d="M393.14,242.15h-1v-.94h0a2,2,0,0,1-1.85,1.08,2,2,0,0,1-1.4-.47,1.65,1.65,0,0,1-.51-1.26c0-1.12.66-1.78,2-2l1.8-.25c0-1-.41-1.53-1.24-1.53a2.9,2.9,0,0,0-1.95.74v-1a3.76,3.76,0,0,1,2-.56c1.41,0,2.11.75,2.11,2.24Zm-1-3-1.45.19a2.37,2.37,0,0,0-1,.34.93.93,0,0,0-.34.84.89.89,0,0,0,.31.71,1.19,1.19,0,0,0,.83.28,1.51,1.51,0,0,0,1.18-.5,1.74,1.74,0,0,0,.47-1.27Z" fill="#1e1e1e"/>
      <path d="M399,241.88a3.19,3.19,0,0,1-1.64.41,2.76,2.76,0,0,1-2.08-.83,3.06,3.06,0,0,1-.78-2.17,3.3,3.3,0,0,1,.85-2.38,3,3,0,0,1,2.26-.9,3.24,3.24,0,0,1,1.4.29v1a2.47,2.47,0,0,0-1.43-.47,1.93,1.93,0,0,0-1.51.66,2.5,2.5,0,0,0-.59,1.73,2.41,2.41,0,0,0,.55,1.66,1.91,1.91,0,0,0,1.49.61A2.41,2.41,0,0,0,399,241Z" fill="#1e1e1e"/>
      <path d="M405.28,242.15h-1v-3.46c0-1.25-.46-1.87-1.39-1.87a1.53,1.53,0,0,0-1.19.54,2,2,0,0,0-.48,1.39v3.4h-1v-8.88h1v3.88h0a2.17,2.17,0,0,1,2-1.14c1.36,0,2,.81,2,2.44Z" fill="#1e1e1e"/>
      <path d="M407.51,234.63a.61.61,0,0,1-.62-.62.61.61,0,0,1,.18-.45.59.59,0,0,1,.44-.18.64.64,0,0,1,.45.18.61.61,0,0,1,.18.45.62.62,0,0,1-.18.44A.64.64,0,0,1,407.51,234.63Zm.47,7.52h-1v-6h1Z" fill="#1e1e1e"/>
      <path d="M414.78,242.15h-1v-3.42c0-1.27-.46-1.91-1.39-1.91a1.54,1.54,0,0,0-1.2.54,2,2,0,0,0-.47,1.37v3.42h-1v-6h1v1h0a2.16,2.16,0,0,1,2-1.14,1.83,1.83,0,0,1,1.51.64,2.79,2.79,0,0,1,.52,1.83Z" fill="#1e1e1e"/>
      <path d="M421.4,239.39h-4.24a2.21,2.21,0,0,0,.54,1.55,1.85,1.85,0,0,0,1.42.54,2.93,2.93,0,0,0,1.86-.67v.91a3.52,3.52,0,0,1-2.09.57,2.52,2.52,0,0,1-2-.82,3.36,3.36,0,0,1-.73-2.3,3.29,3.29,0,0,1,.8-2.28,2.53,2.53,0,0,1,2-.88,2.25,2.25,0,0,1,1.82.76,3.18,3.18,0,0,1,.65,2.12Zm-1-.81a2,2,0,0,0-.4-1.3,1.36,1.36,0,0,0-1.1-.46,1.52,1.52,0,0,0-1.15.49,2.19,2.19,0,0,0-.59,1.27Z" fill="#1e1e1e"/>
      <path d="M430.62,242.15h-4.36v-8.4h1v7.51h3.37Z" fill="#1e1e1e"/>
      <path d="M436.57,239.39h-4.24a2.21,2.21,0,0,0,.54,1.55,1.85,1.85,0,0,0,1.42.54,2.93,2.93,0,0,0,1.86-.67v.91a3.52,3.52,0,0,1-2.09.57,2.52,2.52,0,0,1-2-.82,3.36,3.36,0,0,1-.73-2.3,3.29,3.29,0,0,1,.8-2.28,2.53,2.53,0,0,1,2-.88,2.25,2.25,0,0,1,1.82.76,3.18,3.18,0,0,1,.65,2.12Zm-1-.81a2,2,0,0,0-.4-1.3,1.36,1.36,0,0,0-1.1-.46,1.52,1.52,0,0,0-1.15.49,2.19,2.19,0,0,0-.59,1.27Z" fill="#1e1e1e"/>
      <path d="M442.27,242.15h-1v-.94h0a2.2,2.2,0,0,1-3.25.61,1.64,1.64,0,0,1-.5-1.26c0-1.12.66-1.78,2-2l1.79-.25q0-1.53-1.23-1.53a2.92,2.92,0,0,0-2,.74v-1a3.76,3.76,0,0,1,2-.56c1.41,0,2.12.75,2.12,2.24Zm-1-3-1.44.19a2.43,2.43,0,0,0-1,.34.93.93,0,0,0-.34.84.89.89,0,0,0,.31.71,1.2,1.2,0,0,0,.84.28,1.53,1.53,0,0,0,1.18-.5,1.77,1.77,0,0,0,.46-1.27Z" fill="#1e1e1e"/>
      <path d="M447.14,237.12a1.18,1.18,0,0,0-.73-.19,1.23,1.23,0,0,0-1,.58,2.72,2.72,0,0,0-.41,1.58v3.06h-1v-6h1v1.24h0a2.17,2.17,0,0,1,.63-1,1.41,1.41,0,0,1,.94-.35,1.52,1.52,0,0,1,.58.08Z" fill="#1e1e1e"/>
      <path d="M453.19,242.15h-1v-3.42c0-1.27-.46-1.91-1.39-1.91a1.54,1.54,0,0,0-1.2.54,2,2,0,0,0-.47,1.37v3.42h-1v-6h1v1h0a2.16,2.16,0,0,1,2-1.14,1.82,1.82,0,0,1,1.5.64,2.79,2.79,0,0,1,.52,1.83Z" fill="#1e1e1e"/>
      <path d="M455.42,234.63a.6.6,0,0,1-.44-.18.59.59,0,0,1-.18-.44.61.61,0,0,1,.18-.45.6.6,0,0,1,.44-.18.64.64,0,0,1,.45.18.61.61,0,0,1,.18.45.62.62,0,0,1-.18.44A.64.64,0,0,1,455.42,234.63Zm.47,7.52h-1v-6h1Z" fill="#1e1e1e"/>
      <path d="M462.69,242.15h-1v-3.42c0-1.27-.46-1.91-1.39-1.91a1.54,1.54,0,0,0-1.2.54,2,2,0,0,0-.47,1.37v3.42h-1v-6h1v1h0a2.16,2.16,0,0,1,2-1.14,1.82,1.82,0,0,1,1.5.64,2.79,2.79,0,0,1,.52,1.83Z" fill="#1e1e1e"/>
      <path d="M469.62,241.67c0,2.2-1.05,3.31-3.16,3.31a4.31,4.31,0,0,1-1.95-.43v-1a4,4,0,0,0,1.94.56c1.47,0,2.21-.78,2.21-2.35v-.66h0a2.42,2.42,0,0,1-3.86.35,3.17,3.17,0,0,1-.69-2.15,3.73,3.73,0,0,1,.74-2.43,2.46,2.46,0,0,1,2-.9,2,2,0,0,1,1.8,1h0v-.83h1Zm-1-2.23v-.89a1.72,1.72,0,0,0-.48-1.22,1.58,1.58,0,0,0-1.2-.51,1.66,1.66,0,0,0-1.4.65,2.91,2.91,0,0,0-.5,1.81,2.48,2.48,0,0,0,.48,1.6,1.56,1.56,0,0,0,1.28.6,1.69,1.69,0,0,0,1.32-.57A2.16,2.16,0,0,0,468.66,239.44Z" fill="#1e1e1e"/>
      <path d="M317.09,274v3.17h-1v-8.4h2.31a3.09,3.09,0,0,1,2.09.65,2.37,2.37,0,0,1,.74,1.86,2.52,2.52,0,0,1-.82,1.95,3.15,3.15,0,0,1-2.23.77Zm0-4.34v3.44h1a2.28,2.28,0,0,0,1.55-.46,1.65,1.65,0,0,0,.54-1.32c0-1.11-.66-1.66-2-1.66Z" fill="#1e1e1e"/>
      <path d="M323,269.63a.6.6,0,0,1-.44-.18.59.59,0,0,1-.18-.44.61.61,0,0,1,.18-.45.6.6,0,0,1,.44-.18.62.62,0,0,1,.63.63.62.62,0,0,1-.18.44A.61.61,0,0,1,323,269.63Zm.47,7.52h-1v-6h1Z" fill="#1e1e1e"/>
      <path d="M326.29,276.28h0v3.63h-1v-8.76h1v1.06h0a2.26,2.26,0,0,1,2.07-1.2,2.18,2.18,0,0,1,1.81.81,3.28,3.28,0,0,1,.66,2.16,3.73,3.73,0,0,1-.74,2.41,2.44,2.44,0,0,1-2,.9A2,2,0,0,1,326.29,276.28Zm0-2.42v.84a1.77,1.77,0,0,0,.48,1.26,1.59,1.59,0,0,0,1.23.52,1.6,1.6,0,0,0,1.37-.67,3,3,0,0,0,.49-1.85,2.41,2.41,0,0,0-.46-1.57,1.54,1.54,0,0,0-1.26-.57,1.69,1.69,0,0,0-1.34.58A2.15,2.15,0,0,0,326.27,273.86Z" fill="#1e1e1e"/>
      <path d="M337.18,274.39H333a2.21,2.21,0,0,0,.54,1.55,1.85,1.85,0,0,0,1.41.54,2.94,2.94,0,0,0,1.87-.67v.91a3.53,3.53,0,0,1-2.1.57,2.51,2.51,0,0,1-2-.82,3.83,3.83,0,0,1,.06-4.58,2.55,2.55,0,0,1,2-.88,2.25,2.25,0,0,1,1.82.76,3.18,3.18,0,0,1,.64,2.12Zm-1-.81a2,2,0,0,0-.4-1.3,1.37,1.37,0,0,0-1.1-.46,1.56,1.56,0,0,0-1.16.49,2.18,2.18,0,0,0-.58,1.27Z" fill="#1e1e1e"/>
      <path d="M339.59,277.15h-1v-8.88h1Z" fill="#1e1e1e"/>
      <path d="M341.9,269.63a.6.6,0,0,1-.44-.18.59.59,0,0,1-.18-.44.61.61,0,0,1,.18-.45.6.6,0,0,1,.44-.18.61.61,0,0,1,.45.18.62.62,0,0,1,.19.45.63.63,0,0,1-.19.44A.61.61,0,0,1,341.9,269.63Zm.47,7.52h-1v-6h1Z" fill="#1e1e1e"/>
      <path d="M349.18,277.15h-1v-3.42c0-1.27-.47-1.91-1.4-1.91a1.5,1.5,0,0,0-1.19.54,2,2,0,0,0-.47,1.37v3.42h-1v-6h1v1h0a2.16,2.16,0,0,1,2-1.14,1.83,1.83,0,0,1,1.51.64,2.85,2.85,0,0,1,.52,1.83Z" fill="#1e1e1e"/>
      <path d="M355.79,274.39h-4.24a2.3,2.3,0,0,0,.54,1.55,1.88,1.88,0,0,0,1.42.54,2.89,2.89,0,0,0,1.86-.67v.91a3.47,3.47,0,0,1-2.09.57,2.53,2.53,0,0,1-2-.82,3.35,3.35,0,0,1-.72-2.3,3.28,3.28,0,0,1,.79-2.28,2.54,2.54,0,0,1,2-.88,2.26,2.26,0,0,1,1.83.76,3.18,3.18,0,0,1,.64,2.12Zm-1-.81a2,2,0,0,0-.41-1.3,1.35,1.35,0,0,0-1.09-.46,1.54,1.54,0,0,0-1.16.49,2.12,2.12,0,0,0-.58,1.27Z" fill="#1e1e1e"/>
      <path d="M316.1,312.15v-8.4h2.32q4.44,0,4.44,4.09a4.14,4.14,0,0,1-1.23,3.13,4.55,4.55,0,0,1-3.3,1.18Zm1-7.51v6.62h1.25a3.55,3.55,0,0,0,2.57-.88,3.3,3.3,0,0,0,.92-2.51q0-3.22-3.43-3.23Z" fill="#1e1e1e"/>
      <path d="M329.2,309.39H325a2.19,2.19,0,0,0,.54,1.55,1.85,1.85,0,0,0,1.42.54,3,3,0,0,0,1.86-.66v.9a3.52,3.52,0,0,1-2.09.57,2.52,2.52,0,0,1-2-.82,3.36,3.36,0,0,1-.73-2.3,3.29,3.29,0,0,1,.8-2.28,2.53,2.53,0,0,1,2-.88,2.25,2.25,0,0,1,1.82.76,3.2,3.2,0,0,1,.65,2.12Zm-1-.81a2,2,0,0,0-.4-1.3,1.36,1.36,0,0,0-1.1-.46,1.52,1.52,0,0,0-1.15.49,2.13,2.13,0,0,0-.59,1.27Z" fill="#1e1e1e"/>
      <path d="M330.27,311.93v-1a2.84,2.84,0,0,0,1.73.58c.84,0,1.27-.28,1.27-.84a.76.76,0,0,0-.11-.41,1,1,0,0,0-.29-.29,1.83,1.83,0,0,0-.44-.23l-.53-.22a5.16,5.16,0,0,1-.7-.32,2.29,2.29,0,0,1-.51-.36,1.52,1.52,0,0,1-.3-.46,1.57,1.57,0,0,1-.11-.6,1.4,1.4,0,0,1,.2-.75,1.78,1.78,0,0,1,.51-.55,2.77,2.77,0,0,1,.74-.33,3.41,3.41,0,0,1,.85-.11,3.46,3.46,0,0,1,1.4.27v1a2.74,2.74,0,0,0-1.53-.43,1.75,1.75,0,0,0-.48.06,1.33,1.33,0,0,0-.38.17,1,1,0,0,0-.24.27.77.77,0,0,0-.08.34,1,1,0,0,0,.08.4,1.07,1.07,0,0,0,.25.28,2.11,2.11,0,0,0,.4.22l.53.22a6.21,6.21,0,0,1,.72.31,2.82,2.82,0,0,1,.54.36,1.41,1.41,0,0,1,.34.47,1.48,1.48,0,0,1,.12.63,1.41,1.41,0,0,1-.2.77,1.58,1.58,0,0,1-.52.54,2.28,2.28,0,0,1-.76.33,3.68,3.68,0,0,1-.89.1A3.41,3.41,0,0,1,330.27,311.93Z" fill="#1e1e1e"/>
      <path d="M336.1,304.63a.62.62,0,0,1-.44-.18.59.59,0,0,1-.18-.44.61.61,0,0,1,.18-.45.62.62,0,0,1,.44-.18.61.61,0,0,1,.45.18.62.62,0,0,1,0,.89A.61.61,0,0,1,336.1,304.63Zm.47,7.52h-1v-6h1Z" fill="#1e1e1e"/>
      <path d="M343.56,311.67c0,2.2-1.05,3.31-3.16,3.31a4.31,4.31,0,0,1-1.95-.43v-1a4,4,0,0,0,1.94.57c1.47,0,2.21-.79,2.21-2.36v-.66h0a2.43,2.43,0,0,1-3.87.35,3.22,3.22,0,0,1-.68-2.15,3.75,3.75,0,0,1,.74-2.43,2.46,2.46,0,0,1,2-.9,2,2,0,0,1,1.8,1h0v-.83h1Zm-1-2.23v-.89a1.72,1.72,0,0,0-.48-1.22,1.62,1.62,0,0,0-1.21-.51,1.66,1.66,0,0,0-1.39.65,2.85,2.85,0,0,0-.51,1.81,2.48,2.48,0,0,0,.49,1.6,1.56,1.56,0,0,0,1.28.6,1.65,1.65,0,0,0,1.31-.57A2.12,2.12,0,0,0,342.6,309.44Z" fill="#1e1e1e"/>
      <path d="M350.36,312.15h-1v-3.42c0-1.27-.47-1.91-1.4-1.91a1.52,1.52,0,0,0-1.19.54,2,2,0,0,0-.47,1.37v3.42h-1v-6h1v1h0a2.16,2.16,0,0,1,2-1.14,1.83,1.83,0,0,1,1.51.64,2.85,2.85,0,0,1,.52,1.83Z" fill="#1e1e1e"/>
      <path d="M357,309.39h-4.24a2.28,2.28,0,0,0,.54,1.55,1.88,1.88,0,0,0,1.42.54,2.94,2.94,0,0,0,1.86-.66v.9a3.47,3.47,0,0,1-2.09.57,2.54,2.54,0,0,1-2-.82,3.35,3.35,0,0,1-.72-2.3,3.28,3.28,0,0,1,.79-2.28,2.54,2.54,0,0,1,2-.88,2.26,2.26,0,0,1,1.83.76,3.19,3.19,0,0,1,.64,2.12Zm-1-.81a2,2,0,0,0-.41-1.3,1.34,1.34,0,0,0-1.09-.46,1.54,1.54,0,0,0-1.16.49,2.18,2.18,0,0,0-.58,1.27Z" fill="#1e1e1e"/>
      <path d="M361.55,307.12a1.23,1.23,0,0,0-.72-.19,1.21,1.21,0,0,0-1,.58,2.64,2.64,0,0,0-.42,1.58v3.06h-1v-6h1v1.24h0a2,2,0,0,1,.63-1,1.39,1.39,0,0,1,.94-.35,1.44,1.44,0,0,1,.57.08Z" fill="#1e1e1e"/>
    </g>
  </g>
</svg>
