<?xml version="1.0" encoding="UTF-8" standalone="no"?>
<!DOCTYPE svg PUBLIC "-//W3C//DTD SVG 1.1//EN" "http://www.w3.org/Graphics/SVG/1.1/DTD/svg11.dtd">
<!-- Generated by Microsoft Visio, SVG Export data-platform-blowup-type2.svg Page-1 -->
<svg xmlns="http://www.w3.org/2000/svg" xmlns:xlink="http://www.w3.org/1999/xlink" xmlns:ev="http://www.w3.org/2001/xml-events"
		xmlns:v="http://schemas.microsoft.com/visio/2003/SVGExtensions/" width="16.4444in" height="9.05749in"
		viewBox="0 0 1184 652.139" xml:space="preserve" color-interpolation-filters="sRGB" class="st31">
	<v:documentProperties v:langID="1033" v:viewMarkup="false">
		<v:userDefs>
			<v:ud v:nameU="Ifc__CustomPropsLevel" v:val="VT0(0):26"/>
			<v:ud v:nameU="visTLShowProps" v:prompt="" v:val="VT0(1):26"/>
		</v:userDefs>
	</v:documentProperties>

	<style type="text/css">
	<![CDATA[
		.st1 {fill:#ffffff;stroke:#ffffff;stroke-linecap:round;stroke-linejoin:round;stroke-width:0.5}
		.st2 {fill:none;stroke:none;stroke-linecap:round;stroke-linejoin:round;stroke-width:0.75}
		.st3 {fill:#000000;font-family:Segoe UI Semibold;font-size:2.50001em;font-weight:bold}
		.st4 {fill:#e6e6e6;stroke:#d8d8d8;stroke-linecap:round;stroke-linejoin:round;stroke-width:2.25}
		.st5 {fill:#d8d8d8;stroke:#d8d8d8;stroke-linecap:round;stroke-linejoin:round;stroke-width:2.25}
		.st6 {fill:#000000;font-family:Segoe UI Semibold;font-size:1.5em}
		.st7 {fill:url(#grad0-18);stroke:none;stroke-linecap:butt;stroke-width:0.75}
		.st8 {fill:#e6e6e6}
		.st9 {stroke:none;stroke-linecap:butt;stroke-width:0.75}
		.st10 {fill:#50e6ff;stroke:none;stroke-linecap:butt;stroke-width:0.75}
		.st11 {fill:#198ab3;stroke:none;stroke-linecap:butt;stroke-width:0.75}
		.st12 {fill:url(#grad0-31);stroke:none;stroke-linecap:butt;stroke-width:0.75}
		.st13 {fill:url(#grad0-35);stroke:none;stroke-linecap:butt;stroke-width:0.75}
		.st14 {fill:#ffffff;stroke:none;stroke-linecap:butt;stroke-width:0.75}
		.st15 {fill:#00b0f0;stroke:none;stroke-linecap:butt;stroke-width:34}
		.st16 {fill:#0078d4;stroke:none;stroke-linecap:butt;stroke-width:34}
		.st17 {fill:#76bc2d;stroke:none;stroke-linecap:butt;stroke-width:34}
		.st18 {fill:url(#grad0-67);stroke:none;stroke-linecap:butt;stroke-width:34}
		.st19 {fill:url(#grad0-71);stroke:none;stroke-linecap:butt;stroke-width:34}
		.st20 {fill:url(#grad0-75);stroke:none;stroke-linecap:butt;stroke-width:34}
		.st21 {fill:url(#grad0-79);stroke:none;stroke-linecap:butt;stroke-width:34}
		.st22 {fill:#ffffff;stroke:none;stroke-linecap:butt;stroke-width:34}
		.st23 {fill:#b796f9;stroke:none;stroke-linecap:butt;stroke-width:0.75}
		.st24 {fill:url(#grad0-104);stroke:none;stroke-linecap:butt;stroke-width:0.75}
		.st25 {fill:#5ea0ef;stroke:none;stroke-linecap:butt;stroke-width:0.75}
		.st26 {fill:#ffffff;stroke:none;stroke-linecap:round;stroke-linejoin:round;stroke-width:0.75}
		.st27 {fill:#da4e31;stroke:none;stroke-linecap:butt;stroke-width:0.75}
		.st28 {marker-end:url(#mrkr3-174);stroke:#a5a5a5;stroke-linecap:round;stroke-linejoin:round;stroke-width:2}
		.st29 {fill:#a5a5a5;fill-opacity:1;stroke:#a5a5a5;stroke-opacity:1;stroke-width:0.44247787610619}
		.st30 {font-size:1em}
		.st31 {fill:none;fill-rule:evenodd;font-size:12px;overflow:visible;stroke-linecap:square;stroke-miterlimit:3}
	]]>
	</style>

	<defs id="Patterns_And_Gradients">
		<linearGradient id="grad0-18" x1="0" y1="0" x2="1" y2="0" gradientTransform="rotate(0.12781289921392 0.5 0.5)">
			<stop offset="0" stop-color="#005ba1" stop-opacity="1"/>
			<stop offset="0.07" stop-color="#0060a9" stop-opacity="1"/>
			<stop offset="0.355" stop-color="#0071c8" stop-opacity="1"/>
			<stop offset="0.515" stop-color="#0078d4" stop-opacity="1"/>
			<stop offset="0.64" stop-color="#0074cd" stop-opacity="1"/>
			<stop offset="0.82" stop-color="#006abb" stop-opacity="1"/>
			<stop offset="1" stop-color="#005ba1" stop-opacity="1"/>
		</linearGradient>
		<linearGradient id="grad0-31" x1="0" y1="0" x2="1" y2="0" gradientTransform="rotate(-90 0.5 0.5)">
			<stop offset="0" stop-color="#1988d9" stop-opacity="1"/>
			<stop offset="0.9" stop-color="#54aef0" stop-opacity="1"/>
		</linearGradient>
		<linearGradient id="grad0-35" x1="0" y1="0" x2="1" y2="0" gradientTransform="rotate(-90 0.5 0.5)">
			<stop offset="0" stop-color="#198ab3" stop-opacity="1"/>
			<stop offset="0.01" stop-color="#198bb4" stop-opacity="1"/>
			<stop offset="0.44" stop-color="#27b2d7" stop-opacity="1"/>
			<stop offset="0.79" stop-color="#2fcbed" stop-opacity="1"/>
			<stop offset="1" stop-color="#32d4f5" stop-opacity="1"/>
		</linearGradient>
		<linearGradient id="grad0-67" x1="0" y1="0" x2="1" y2="0" gradientTransform="rotate(-84.6 0.5 0.5)">
			<stop offset="0" stop-color="#5e9624" stop-opacity="1"/>
			<stop offset="0.82" stop-color="#86d633" stop-opacity="1"/>
		</linearGradient>
		<linearGradient id="grad0-71" x1="0" y1="0" x2="1" y2="0" gradientTransform="rotate(-89.369771843738 0.5 0.5)">
			<stop offset="0" stop-color="#5e9624" stop-opacity="1"/>
			<stop offset="0.82" stop-color="#86d633" stop-opacity="1"/>
		</linearGradient>
		<linearGradient id="grad0-75" x1="0" y1="0" x2="1" y2="0" gradientTransform="rotate(-84.784845544421 0.5 0.5)">
			<stop offset="0" stop-color="#5e9624" stop-opacity="1"/>
			<stop offset="0.82" stop-color="#86d633" stop-opacity="1"/>
		</linearGradient>
		<linearGradient id="grad0-79" x1="0" y1="0" x2="1" y2="0" gradientTransform="rotate(-84.784845544421 0.5 0.5)">
			<stop offset="0" stop-color="#5e9624" stop-opacity="1"/>
			<stop offset="0.82" stop-color="#86d633" stop-opacity="1"/>
		</linearGradient>
		<linearGradient id="grad0-104" x1="0" y1="0" x2="1" y2="0" gradientTransform="rotate(-90 0.5 0.5)">
			<stop offset="0" stop-color="#773adc" stop-opacity="1"/>
			<stop offset="1" stop-color="#b77af4" stop-opacity="1"/>
		</linearGradient>
	</defs>
	<defs id="Markers">
		<g id="lend3">
			<path d="M 2 1 L 0 0 L 2 -1 " style="stroke-linecap:round;stroke-linejoin:round;fill:none"/>
		</g>
		<marker id="mrkr3-174" class="st29" v:arrowType="3" v:arrowSize="2" orient="auto" markerUnits="strokeWidth"
				overflow="visible">
			<use xlink:href="#lend3" transform="scale(-2.26,-2.26) "/>
		</marker>
	</defs>
	<g v:mID="0" v:index="1" v:groupContext="foregroundPage">
		<v:userDefs>
			<v:ud v:nameU="visNavType" v:val="VT0(1):26"/>
		</v:userDefs>
		<title>Page-1</title>
		<v:pageProperties v:drawingScale="1" v:pageScale="1" v:drawingUnits="19" v:shadowOffsetX="9" v:shadowOffsetY="-9"/>
		<v:layer v:name="Azure" v:index="0"/>
		<g id="shape10996-1" v:mID="10996" v:groupContext="shape" v:layerMember="0" transform="translate(0.25,-0.25)">
			<title>Sheet.10996</title>
			<v:userDefs>
				<v:ud v:nameU="visNavOrder" v:prompt="" v:val="VT0(5382000):26"/>
			</v:userDefs>
			<rect x="0" y="0.500017" width="1183.5" height="651.639" class="st1"/>
		</g>
		<g id="shape11946-3" v:mID="11946" v:groupContext="shape" transform="translate(616.478,-575.96)">
			<title>Sheet.11946</title>
			<desc>Data Platform</desc>
			<v:userDefs>
				<v:ud v:nameU="visNavOrder" v:prompt="" v:val="VT0(4774000):26"/>
			</v:userDefs>
			<v:textBlock v:margins="rect(4,4,4,4)" v:verticalAlign="0"/>
			<v:textRect cx="105.598" cy="626.543" width="211.2" height="51.1931"/>
			<rect x="0" y="600.946" width="211.196" height="51.1931" class="st2"/>
			<text x="10.73" y="631.95" class="st3" v:langID="1033"><v:paragraph v:horizAlign="1"/><v:tabList/>Data Platform</text>		</g>
		<g id="group11947-6" transform="translate(650.639,-71.1196)" v:mID="11947" v:groupContext="group">
			<v:userDefs>
				<v:ud v:nameU="visNavOrder" v:val="VT0(4775000):26"/>
			</v:userDefs>
			<title>Sheet.11947</title>
			<g id="shape11948-7" v:mID="11948" v:groupContext="shape">
				<title>Sheet.11948</title>
				<v:userDefs>
					<v:ud v:nameU="visNavOrder" v:prompt="" v:val="VT0(1212000):26"/>
				</v:userDefs>
				<rect x="0" y="158.264" width="142.875" height="493.875" rx="9" ry="9" class="st4"/>
			</g>
			<g id="group11949-9" transform="translate(27.2756,-130.827)" v:mID="11949" v:groupContext="group">
				<v:userDefs>
					<v:ud v:nameU="visNavOrder" v:val="VT0(1244000):26"/>
				</v:userDefs>
				<title>Sheet.11949</title>
				<g id="shape11950-10" v:mID="11950" v:groupContext="shape">
					<title>Sheet.11950</title>
					<desc>Traces</desc>
					<v:userDefs>
						<v:ud v:nameU="visNavOrder" v:prompt="" v:val="VT0(1205000):26"/>
					</v:userDefs>
					<v:textBlock v:margins="rect(4,4,4,4)" v:verticalAlign="0"/>
					<v:textRect cx="41.9733" cy="611.597" width="83.95" height="81.0836"/>
					<path d="M0 647.27 A4.86503 4.86503 -180 0 0 4.86 652.14 L79.08 652.14 A4.86503 4.86503 -180 0 0 83.95 647.27
								 L83.95 575.92 A4.86503 4.86503 -180 0 0 79.08 571.06 L4.86 571.06 A4.86503 4.86503 -180 0 0 0 575.92
								 L0 647.27 Z" class="st5"/>
					<text x="16.09" y="591.26" class="st6" v:langID="1033"><v:paragraph v:horizAlign="1"/><v:tabList/>Traces</text>				</g>
				<g id="group11951-13" transform="translate(26.9489,-11.2007)" v:mID="11951" v:groupContext="group">
					<v:userDefs>
						<v:ud v:nameU="visNavOrder" v:prompt="" v:val="VT0(1109000):26"/>
					</v:userDefs>
					<title>Sheet.11951</title>
					<g id="group11952-14" v:mID="11952" v:groupContext="group">
						<title>Sheet.11952</title>
						<g id="shape11953-15" v:mID="11953" v:groupContext="shape">
							<title>Sheet.11953</title>
							<path d="M16.13 620.98 C7.25 620.96 0.07 618.32 0.08 615.09 L0 646.22 C0 649.43 7.06 652.05 15.83 652.12
										 L16.05 652.12 C24.92 652.14 32.12 649.54 32.13 646.3 L32.21 615.17 C32.2 618.41 25 621.01
										 16.13 620.98 Z" class="st7"/>
						</g>
						<g id="shape11954-19" v:mID="11954" v:groupContext="shape" transform="translate(0.0715424,-31.1368)">
							<title>Sheet.11954</title>
							<path d="M32.14 646.31 C32.14 649.54 24.93 652.14 16.06 652.12 C7.19 652.1 0 649.46 0.01 646.23 C0.02
										 642.99 7.22 640.39 16.09 640.42 C24.96 640.44 32.14 643.07 32.13 646.31 L32.14 646.31 Z"
									class="st8"/>
							<path d="M32.14 646.31 C32.14 649.54 24.93 652.14 16.06 652.12 C7.19 652.1 0 649.46 0.01 646.23 C0.02
										 642.99 7.22 640.39 16.09 640.42 C24.96 640.44 32.14 643.07 32.13 646.31" class="st9"/>
						</g>
						<g id="shape11955-22" v:mID="11955" v:groupContext="shape" transform="translate(3.82354,-33.7389)">
							<title>Sheet.11955</title>
							<path d="M24.63 648.43 C24.63 650.48 19.11 652.14 12.31 652.12 C5.51 652.1 0 650.42 0.01 648.37 C0.01
										 646.31 5.53 644.66 12.33 644.67 C19.13 644.69 24.64 646.37 24.63 648.43 Z" class="st10"/>
						</g>
						<g id="shape11956-24" v:mID="11956" v:groupContext="shape" transform="translate(6.38317,-33.7601)">
							<title>Sheet.11956</title>
							<path d="M9.76 649.27 A29.6265 29.6265 -180 0 0 0 650.66 A28.617 28.617 -180 0 0 9.75 652.14 A28.6541
										 28.6541 -180 0 0 19.51 650.72 A29.6133 29.6133 -180 0 0 9.76 649.27 Z" class="st11"/>
						</g>
					</g>
					<g id="group11957-26" transform="translate(2.99782,-1.43783)" v:mID="11957" v:groupContext="group">
						<title>Sheet.11957</title>
						<g id="group11958-27" transform="translate(0,-1.83573)" v:mID="11958" v:groupContext="group">
							<title>Icon-manage-307.6608</title>
							<g id="shape11959-28" v:mID="11959" v:groupContext="shape">
								<title>Sheet.11959</title>
								<path d="M8.09 645.2 L15.03 645.2 L15.03 652.14 L8.09 652.14 L8.09 645.2 ZM0.96 652.14 L6.94 652.14
											 L6.94 645.2 L0 645.2 L0 651.18 a0.963517 0.963517 -180 0 0 0.963517 0.963517 ZM0 644.11
											 L6.94 644.11 L6.94 637.11 L0 637.11 L0 644.11 Z" class="st12"/>
							</g>
							<g id="shape11960-32" v:mID="11960" v:groupContext="shape" transform="translate(8.02931,-7.94901)">
								<title>Sheet.11960</title>
								<path d="M9.55 632.95 A9.45852 9.45852 0 0 1 19.11 642.58 A9.45852 9.45852 0 0 1 9.55 652.14 L0 652.14
											 L0 642.5 A9.45852 9.45852 0 0 1 9.55 632.95 Z" class="st13"/>
							</g>
							<g id="shape11961-36" v:mID="11961" v:groupContext="shape" transform="translate(11.3053,-12.3972)">
								<title>Sheet.11961</title>
								<rect x="0" y="645.587" width="2.18397" height="6.55191" class="st14"/>
							</g>
							<g id="shape11962-38" v:mID="11962" v:groupContext="shape" transform="translate(15.6732,-12.3972)">
								<title>Sheet.11962</title>
								<rect x="0" y="647.771" width="2.18397" height="4.36794" class="st14"/>
							</g>
							<g id="shape11963-40" v:mID="11963" v:groupContext="shape" transform="translate(20.0411,-12.3972)">
								<title>Sheet.11963</title>
								<rect x="0" y="643.403" width="2.18397" height="8.73588" class="st14"/>
							</g>
						</g>
					</g>
				</g>
			</g>
			<g id="group11964-42" transform="translate(27.2756,-31.4163)" v:mID="11964" v:groupContext="group">
				<v:userDefs>
					<v:ud v:nameU="visNavOrder" v:val="VT0(1255000):26"/>
				</v:userDefs>
				<title>Sheet.11964</title>
				<g id="shape11965-43" v:mID="11965" v:groupContext="shape">
					<title>Sheet.11965</title>
					<desc>Changes</desc>
					<v:userDefs>
						<v:ud v:nameU="visNavOrder" v:prompt="" v:val="VT0(1176000):26"/>
					</v:userDefs>
					<v:textBlock v:margins="rect(4,4,4,4)" v:verticalAlign="0"/>
					<v:textRect cx="41.9733" cy="611.597" width="83.95" height="81.0837"/>
					<path d="M0 647.27 A4.86504 4.86504 -180 0 0 4.86 652.14 L79.08 652.14 A4.86504 4.86504 -180 0 0 83.95 647.27
								 L83.95 575.92 A4.86504 4.86504 -180 0 0 79.08 571.06 L4.86 571.06 A4.86504 4.86504 -180 0 0 0 575.92
								 L0 647.27 Z" class="st5"/>
					<text x="7.11" y="591.26" class="st6" v:langID="1033"><v:paragraph v:horizAlign="1"/><v:tabList/>Changes</text>				</g>
				<g id="group11966-46" transform="translate(26.6776,-10.6283)" v:mID="11966" v:groupContext="group">
					<v:userDefs>
						<v:ud v:nameU="visNavOrder" v:prompt="" v:val="VT0(1178000):26"/>
					</v:userDefs>
					<title>Sheet.11966</title>
					<g id="shape11967-47" v:mID="11967" v:groupContext="shape">
						<title>Sheet.11967</title>
						<path d="M16.13 620.98 C7.25 620.96 0.07 618.32 0.08 615.09 L0 646.22 C0 649.43 7.06 652.05 15.83 652.12
									 L16.05 652.12 C24.92 652.14 32.12 649.54 32.13 646.3 L32.21 615.17 C32.2 618.41 25 621.01 16.13
									 620.98 Z" class="st7"/>
					</g>
					<g id="shape11968-50" v:mID="11968" v:groupContext="shape" transform="translate(0.0715424,-31.1368)">
						<title>Sheet.11968</title>
						<path d="M32.14 646.31 C32.14 649.54 24.93 652.14 16.06 652.12 C7.19 652.1 0 649.46 0.01 646.23 C0.02 642.99
									 7.22 640.39 16.09 640.42 C24.96 640.44 32.14 643.07 32.13 646.31 L32.14 646.31 Z" class="st8"/>
						<path d="M32.14 646.31 C32.14 649.54 24.93 652.14 16.06 652.12 C7.19 652.1 0 649.46 0.01 646.23 C0.02 642.99
									 7.22 640.39 16.09 640.42 C24.96 640.44 32.14 643.07 32.13 646.31" class="st9"/>
					</g>
					<g id="shape11969-53" v:mID="11969" v:groupContext="shape" transform="translate(3.82354,-33.7389)">
						<title>Sheet.11969</title>
						<path d="M24.63 648.43 C24.63 650.48 19.11 652.14 12.31 652.12 C5.51 652.1 0 650.42 0.01 648.37 C0.01 646.31
									 5.53 644.66 12.33 644.67 C19.13 644.69 24.64 646.37 24.63 648.43 Z" class="st10"/>
					</g>
					<g id="shape11970-55" v:mID="11970" v:groupContext="shape" transform="translate(6.38317,-33.7601)">
						<title>Sheet.11970</title>
						<path d="M9.76 649.27 A29.6265 29.6265 -180 0 0 -0 650.66 A28.617 28.617 -180 0 0 9.75 652.14 A28.6541 28.6541
									 -180 0 0 19.51 650.72 A29.6133 29.6133 -180 0 0 9.76 649.27 Z" class="st11"/>
					</g>
				</g>
				<g id="group11971-57" transform="translate(29.8637,-14.1186)" v:mID="11971" v:groupContext="group">
					<v:userDefs>
						<v:ud v:nameU="visNavOrder" v:val="VT0(1198000):26"/>
					</v:userDefs>
					<title>Sheet.11971</title>
					<g id="shape11972-58" v:mID="11972" v:groupContext="shape" transform="translate(8.60396,-8.39329)">
						<title>Sheet.11972</title>
						<v:userDefs>
							<v:ud v:nameU="visNavOrder" v:prompt="" v:val="VT0(1191000):26"/>
						</v:userDefs>
						<path d="M12.5 646.94 L7.36 652.14 L2.18 646.94 A7.18902 7.18902 0 0 1 2.04 636.77 L2.18 636.63 A7.22133
									 7.22133 0 0 1 12.39 636.53 L12.5 636.63 A7.22295 7.22295 0 0 1 12.59 646.85 L12.5 646.94 Z"
								class="st15"/>
					</g>
					<g id="shape11973-60" v:mID="11973" v:groupContext="shape" transform="translate(9.00774,-8.88028)">
						<title>Sheet.11973</title>
						<v:userDefs>
							<v:ud v:nameU="visNavOrder" v:prompt="" v:val="VT0(1192000):26"/>
						</v:userDefs>
						<path d="M11.81 647.22 L6.95 652.14 L2.06 647.22 A6.79292 6.79292 0 0 1 1.92 637.62 L2.06 637.49 A6.82345
									 6.82345 0 0 1 11.71 637.39 L11.81 637.49 A6.82497 6.82497 0 0 1 11.89 647.14 L11.81 647.22 Z"
								class="st16"/>
					</g>
					<g id="shape11974-62" v:mID="11974" v:groupContext="shape" transform="translate(1.56771,-1.45017)">
						<title>Sheet.11974</title>
						<v:userDefs>
							<v:ud v:nameU="visNavOrder" v:prompt="" v:val="VT0(1184000):26"/>
						</v:userDefs>
						<path d="M1.62 652.14 L0 650.7 L7.91 641.85 L14.64 648.78 L20.99 642.05 L22.56 643.53 L14.65 651.91 L7.98
									 645.01 L1.62 652.14 Z" class="st17"/>
					</g>
					<g id="shape11975-64" v:mID="11975" v:groupContext="shape" transform="translate(6.91351,-7.54548)">
						<title>Sheet.11975</title>
						<v:userDefs>
							<v:ud v:nameU="visNavOrder" v:prompt="" v:val="VT0(1185000):26"/>
						</v:userDefs>
						<ellipse cx="2.59505" cy="649.544" rx="2.59505" ry="2.59505" class="st18"/>
					</g>
					<g id="shape11976-68" v:mID="11976" v:groupContext="shape" transform="translate(13.6148,-0.860945)">
						<title>Sheet.11976</title>
						<v:userDefs>
							<v:ud v:nameU="visNavOrder" v:prompt="" v:val="VT0(1186000):26"/>
						</v:userDefs>
						<ellipse cx="2.59505" cy="649.544" rx="2.59505" ry="2.59505" class="st19"/>
					</g>
					<g id="shape11977-72" v:mID="11977" v:groupContext="shape" transform="translate(20.7543,-8.43085)">
						<title>Sheet.11977</title>
						<v:userDefs>
							<v:ud v:nameU="visNavOrder" v:prompt="" v:val="VT0(1187000):26"/>
						</v:userDefs>
						<ellipse cx="2.59505" cy="649.544" rx="2.59505" ry="2.59505" class="st20"/>
					</g>
					<g id="shape11978-76" v:mID="11978" v:groupContext="shape">
						<title>Sheet.11978</title>
						<v:userDefs>
							<v:ud v:nameU="visNavOrder" v:prompt="" v:val="VT0(1188000):26"/>
						</v:userDefs>
						<ellipse cx="2.59505" cy="649.544" rx="2.59505" ry="2.59505" class="st21"/>
					</g>
					<g id="shape11979-80" v:mID="11979" v:groupContext="shape" transform="translate(10.45,-14.6994)">
						<title>Sheet.11979</title>
						<v:userDefs>
							<v:ud v:nameU="visNavOrder" v:prompt="" v:val="VT0(1190000):26"/>
						</v:userDefs>
						<path d="M1.39 646.59 A4.39326 4.39326 -180 0 0 1.84 650.01 A4.24061 4.24061 -180 0 0 2.63 650.98 A4.45585
									 4.45585 -180 0 0 3.63 651.69 A5.0466 5.0466 -180 0 0 4.8 652.09 A4.12155 4.12155 -180 0 0 6.05
									 652.09 L5.94 650.9 a0.254925 0.254925 -180 0 0 -0.23966 -0.222869 A2.95835 2.95835 0 0 1 5.07
									 650.68 A3.51095 3.51095 0 0 1 4.29 650.41 A2.96751 2.96751 0 0 1 3.6 649.93 A2.78739 2.78739
									 0 0 1 3.06 649.26 A2.65916 2.65916 0 0 1 2.68 648.18 A3.13695 3.13695 0 0 1 2.68 647.03 L3.09
									 647.72 a0.253399 0.253399 -180 0 0 0.334303 0 L3.98 647.57 a0.254925 0.254925 -180 0 0 0.0793779
									 -0.334303 L2.69 645 a0.251872 0.251872 -180 0 0 -0.3053 -0.15265 L0.06 646.22 a0.253399 0.253399
									 -180 0 0 -8.32667E-16 0.334303 L0.35 647.04 a0.254925 0.254925 -180 0 0 0.334303 0.0946429 L1.39
									 646.59 ZM6.21 644.88 A2.66527 2.66527 0 0 1 6.99 645.15 A2.8744 2.8744 0 0 1 8.21 646.28 A2.84692
									 2.84692 0 0 1 8.59 647.38 A3.16138 3.16138 0 0 1 8.59 648.54 L8.2 647.86 a0.254925 0.254925
									 -180 0 0 -0.332777 -0.102275 L7.37 648.06 a0.23966 0.23966 -180 0 0 -0.103802 0.322091 L7.27
									 648.4 L8.65 650.7 a0.23966 0.23966 -180 0 0 0.320565 0.102275 L8.99 650.81 L11.29 649.42 a0.238134
									 0.238134 -180 0 0 2.13163E-14 -0.334303 L11 648.6 a0.256452 0.256452 -180 0 0 -0.334303 0 L9.88
									 649.07 A4.31083 4.31083 -180 0 0 10 647.32 A4.10017 4.10017 -180 0 0 9.43 645.64 A4.23298 4.23298
									 -180 0 0 8.65 644.65 A4.96723 4.96723 -180 0 0 7.63 643.95 A4.20092 4.20092 -180 0 0 6.47 643.56
									 A4.22229 4.22229 -180 0 0 5.48 643.4 a0.253399 0.253399 -180 0 0 -0.222869 0.27019 L5.26 644.61
									 a0.256452 0.256452 -180 0 0 0.23966 0.222869 A2.7477 2.7477 0 0 1 6.21 644.88 Z" class="st22"/>
					</g>
				</g>
			</g>
			<g id="group11980-82" transform="translate(27.2756,-329.831)" v:mID="11980" v:groupContext="group">
				<v:userDefs>
					<v:ud v:nameU="visNavOrder" v:val="VT0(1256000):26"/>
				</v:userDefs>
				<title>Sheet.11980</title>
				<g id="shape11981-83" v:mID="11981" v:groupContext="shape">
					<title>Sheet.11981</title>
					<desc>Metrics</desc>
					<v:userDefs>
						<v:ud v:nameU="visNavOrder" v:prompt="" v:val="VT0(1249000):26"/>
					</v:userDefs>
					<v:textBlock v:margins="rect(4,4,4,4)" v:verticalAlign="0"/>
					<v:textRect cx="41.9733" cy="586.941" width="83.95" height="130.395"/>
					<path d="M0 644.32 A4.86503 7.82374 -180 0 0 1.76 650.34 A4.5 4.5 -180 0 0 5.36 652.14 L78.59 652.14 A4.5 4.5
								 -180 0 0 82.18 650.34 A4.86503 7.82374 -180 0 0 83.95 644.32 L83.95 529.57 A4.86503 7.82374 -180
								 0 0 82.18 523.54 A4.5 4.5 -180 0 0 78.59 521.74 L5.36 521.74 A4.5 4.5 -180 0 0 1.76 523.54 A4.86503
								 7.82374 -180 0 0 -0 529.57 L0 644.32 Z" class="st5"/>
					<text x="11.83" y="541.94" class="st6" v:langID="1033"><v:paragraph v:horizAlign="1"/><v:tabList/>Metrics</text>				</g>
				<g id="group11982-86" transform="translate(26.6776,-60.5123)" v:mID="11982" v:groupContext="group">
					<v:userDefs>
						<v:ud v:nameU="visNavOrder" v:prompt="" v:val="VT0(1250000):26"/>
					</v:userDefs>
					<title>Sheet.11982</title>
					<g id="group11983-87" v:mID="11983" v:groupContext="group">
						<title>Sheet.11983</title>
						<g id="shape11984-88" v:mID="11984" v:groupContext="shape">
							<title>Sheet.11984</title>
							<path d="M16.13 620.98 C7.25 620.96 0.07 618.32 0.08 615.09 L0 646.22 C0 649.43 7.06 652.05 15.83 652.12
										 L16.05 652.12 C24.92 652.14 32.12 649.54 32.13 646.3 L32.21 615.17 C32.2 618.41 25 621.01
										 16.13 620.98 Z" class="st7"/>
						</g>
						<g id="shape11985-91" v:mID="11985" v:groupContext="shape" transform="translate(0.0715424,-31.1368)">
							<title>Sheet.11985</title>
							<path d="M32.14 646.31 C32.14 649.54 24.93 652.14 16.06 652.12 C7.19 652.1 0 649.46 0.01 646.23 C0.02
										 642.99 7.22 640.39 16.09 640.42 C24.96 640.44 32.14 643.07 32.13 646.31 L32.14 646.31 Z"
									class="st8"/>
							<path d="M32.14 646.31 C32.14 649.54 24.93 652.14 16.06 652.12 C7.19 652.1 0 649.46 0.01 646.23 C0.02
										 642.99 7.22 640.39 16.09 640.42 C24.96 640.44 32.14 643.07 32.13 646.31" class="st9"/>
						</g>
						<g id="shape11986-94" v:mID="11986" v:groupContext="shape" transform="translate(3.82354,-33.7389)">
							<title>Sheet.11986</title>
							<path d="M24.63 648.43 C24.63 650.48 19.11 652.14 12.31 652.12 C5.51 652.1 0 650.42 0.01 648.37 C0.01
										 646.31 5.53 644.66 12.33 644.67 C19.13 644.69 24.64 646.37 24.63 648.43 Z" class="st10"/>
						</g>
						<g id="shape11987-96" v:mID="11987" v:groupContext="shape" transform="translate(6.38317,-33.7601)">
							<title>Sheet.11987</title>
							<path d="M9.76 649.27 A29.6265 29.6265 -180 0 0 0 650.66 A28.617 28.617 -180 0 0 9.75 652.14 A28.6541
										 28.6541 -180 0 0 19.51 650.72 A29.6133 29.6133 -180 0 0 9.76 649.27 Z" class="st11"/>
						</g>
					</g>
					<g id="group11988-98" transform="translate(5.71561,-5.47175)" v:mID="11988" v:groupContext="group">
						<title>Icon-manage-319.9754</title>
						<g id="shape11989-99" v:mID="11989" v:groupContext="shape" transform="translate(1.28066,-8.83122)">
							<title>Sheet.11989</title>
							<path d="M16.76 639.79 L11.43 649.26 L5.8 643.52 L0 651.05 L1.36 652.11 L5.96 646.18 L11.81 652.14 L18.26
										 640.65 L16.76 639.79 Z" class="st23"/>
						</g>
						<g id="shape11990-101" v:mID="11990" v:groupContext="shape" transform="translate(4.96256,-13.9272)">
							<title>Sheet.11990</title>
							<ellipse cx="2.18779" cy="649.938" rx="2.18779" ry="2.20113" class="st24"/>
						</g>
						<g id="shape11991-105" v:mID="11991" v:groupContext="shape" transform="translate(10.899,-8.47103)">
							<title>Sheet.11991</title>
							<ellipse cx="2.18779" cy="649.938" rx="2.18779" ry="2.20113" class="st24"/>
						</g>
						<g id="shape11992-108" v:mID="11992" v:groupContext="shape" transform="translate(16.4085,-18.2761)">
							<title>Sheet.11992</title>
							<ellipse cx="2.18779" cy="649.938" rx="2.18779" ry="2.20113" class="st24"/>
						</g>
						<g id="shape11993-111" v:mID="11993" v:groupContext="shape" transform="translate(1.03667E-13,-7.51054)">
							<title>Sheet.11993</title>
							<ellipse cx="2.18779" cy="649.938" rx="2.18779" ry="2.20113" class="st24"/>
						</g>
						<g id="shape11994-114" v:mID="11994" v:groupContext="shape" transform="translate(5.94973,0)">
							<title>Sheet.11994</title>
							<path d="M0 651.77 a0.373535 0.373535 -180 0 0 0.373526 0.373526 L3.07 652.14 a0.373535 0.373535 -180
										 0 0 0.373526 -0.373526 L3.44 642.4 a0.373535 0.373535 -180 0 0 -0.373526 -0.373526 L0.37
										 642.03 a0.373535 0.373535 -180 0 0 -0.373526 0.373526 L0 651.77 Z" class="st25"/>
						</g>
						<g id="shape11995-116" v:mID="11995" v:groupContext="shape" transform="translate(11.4326,-1.13687E-13)">
							<title>Sheet.11995</title>
							<path d="M0 651.77 a0.373535 0.373535 -180 0 0 0.373526 0.373526 L3.07 652.14 a0.373535 0.373535 -180
										 0 0 0.373526 -0.373526 L3.44 645.9 a0.373535 0.373535 -180 0 0 -0.373526 -0.373526 L0.37
										 645.52 a0.373535 0.373535 -180 0 0 -0.373526 0.373526 L0 651.77 Z" class="st25"/>
						</g>
						<g id="shape11996-118" v:mID="11996" v:groupContext="shape" transform="translate(16.9154,0)">
							<title>Sheet.11996</title>
							<path d="M0 651.77 a0.373535 0.373535 -180 0 0 0.373526 0.373526 L3.07 652.14 a0.373535 0.373535 -180
										 0 0 0.373526 -0.373526 L3.44 639.01 a0.373535 0.373535 -180 0 0 -0.373526 -0.373526 L0.37
										 638.64 a0.373535 0.373535 -180 0 0 -0.373526 0.373526 L0 651.77 Z" class="st25"/>
						</g>
						<g id="shape11997-120" v:mID="11997" v:groupContext="shape" transform="translate(0.466907,-1.13687E-13)">
							<title>Sheet.11997</title>
							<path d="M0 651.77 a0.373535 0.373535 -180 0 0 0.373526 0.373526 L3.07 652.14 a0.373535 0.373535 -180
										 0 0 0.373526 -0.373526 L3.44 645.9 a0.373535 0.373535 -180 0 0 -0.373526 -0.373526 L0.37
										 645.52 a0.373535 0.373535 -180 0 0 -0.373526 0.373526 L0 651.77 Z" class="st25"/>
						</g>
					</g>
				</g>
				<g id="group11998-122" transform="translate(26.6776,-8.3555)" v:mID="11998" v:groupContext="group">
					<v:userDefs>
						<v:ud v:nameU="visNavOrder" v:val="VT0(1251000):26"/>
					</v:userDefs>
					<title>Sheet.11998</title>
					<g id="group11999-123" v:mID="11999" v:groupContext="group">
						<v:userDefs>
							<v:ud v:nameU="visNavOrder" v:prompt="" v:val="VT0(1145000):26"/>
						</v:userDefs>
						<title>Sheet.11999</title>
						<g id="shape29000-124" v:mID="29000" v:groupContext="shape">
							<title>Sheet.29000</title>
							<path d="M16.13 620.98 C7.25 620.96 0.07 618.32 0.08 615.09 L0 646.22 C0 649.43 7.06 652.05 15.83 652.12
										 L16.05 652.12 C24.92 652.14 32.12 649.54 32.13 646.3 L32.21 615.17 C32.2 618.41 25 621.01
										 16.13 620.98 Z" class="st7"/>
						</g>
						<g id="shape29001-127" v:mID="29001" v:groupContext="shape" transform="translate(0.0715424,-31.1368)">
							<title>Sheet.29001</title>
							<path d="M32.14 646.31 C32.14 649.54 24.93 652.14 16.06 652.12 C7.19 652.1 0 649.46 0.01 646.23 C0.02
										 642.99 7.22 640.39 16.09 640.42 C24.96 640.44 32.14 643.07 32.13 646.31 L32.14 646.31 Z"
									class="st8"/>
							<path d="M32.14 646.31 C32.14 649.54 24.93 652.14 16.06 652.12 C7.19 652.1 0 649.46 0.01 646.23 C0.02
										 642.99 7.22 640.39 16.09 640.42 C24.96 640.44 32.14 643.07 32.13 646.31" class="st9"/>
						</g>
						<g id="shape29002-130" v:mID="29002" v:groupContext="shape" transform="translate(3.82354,-33.7389)">
							<title>Sheet.29002</title>
							<path d="M24.63 648.43 C24.63 650.48 19.11 652.14 12.31 652.12 C5.51 652.1 0 650.42 0.01 648.37 C0.01
										 646.31 5.53 644.66 12.33 644.67 C19.13 644.69 24.64 646.37 24.63 648.43 Z" class="st10"/>
						</g>
						<g id="shape29003-132" v:mID="29003" v:groupContext="shape" transform="translate(6.38317,-33.7601)">
							<title>Sheet.29003</title>
							<path d="M9.76 649.27 A29.6265 29.6265 -180 0 0 0 650.66 A28.617 28.617 -180 0 0 9.75 652.14 A28.6541
										 28.6541 -180 0 0 19.51 650.72 A29.6133 29.6133 -180 0 0 9.76 649.27 Z" class="st11"/>
						</g>
					</g>
					<g id="group29004-134" transform="translate(5.71561,-4.79566)" v:mID="29004" v:groupContext="group">
						<v:userDefs>
							<v:ud v:nameU="visNavOrder" v:val="VT0(1150000):26"/>
						</v:userDefs>
						<title>Sheet.29004</title>
						<g id="shape29005-135" v:mID="29005" v:groupContext="shape" transform="translate(0.779007,-0.829408)">
							<title>Sheet.29005</title>
							<v:userDefs>
								<v:ud v:nameU="visNavOrder" v:val="VT0(1149000):26"/>
							</v:userDefs>
							<ellipse cx="9.5625" cy="642.577" rx="9.5625" ry="9.5625" class="st26"/>
						</g>
						<g id="shape29006-137" v:mID="29006" v:groupContext="shape">
							<title>Sheet.29006</title>
							<v:userDefs>
								<v:ud v:nameU="visNavOrder" v:val="VT0(1146000):26"/>
							</v:userDefs>
							<path d="M10.39 631.36 C4.65 631.36 0 636.01 0 641.75 C0 647.49 4.65 652.14 10.39 652.14 C16.13 652.14
										 20.78 647.49 20.78 641.75 C20.78 636.01 16.13 631.36 10.39 631.36 ZM10.39 650.8 C8.76 650.8
										 7.44 649.71 7.44 648.37 L13.35 648.37 C13.35 649.71 12.03 650.8 10.39 650.8 ZM15.28 647.56
										 L5.51 647.56 L5.51 645.79 L15.28 645.79 L15.28 647.56 L15.28 647.56 ZM15.24 644.88 L5.54
										 644.88 C5.5 644.84 5.47 644.81 5.44 644.77 C4.44 643.55 4.2 642.92 3.98 642.27 C3.97 642.25
										 5.19 642.52 6.05 642.72 C6.05 642.72 6.49 642.82 7.14 642.94 C6.52 642.21 6.15 641.28 6.15
										 640.33 C6.15 638.25 7.75 636.43 7.17 634.96 C7.73 635 8.33 636.14 8.37 637.92 C8.97 637.09
										 9.22 635.59 9.22 634.67 C9.22 633.71 9.85 632.6 10.48 632.56 C9.92 633.49 10.62 634.28 11.25
										 636.25 C11.49 636.99 11.46 638.23 11.64 639.02 C11.7 637.38 11.98 634.99 13.02 634.17 C12.56
										 635.21 13.09 636.51 13.45 637.13 C14.03 638.14 14.38 638.9 14.38 640.35 C14.38 641.32 14.02
										 642.23 13.42 642.94 C14.11 642.82 14.58 642.7 14.58 642.7 L16.81 642.27 C16.81 642.27 16.49
										 643.6 15.24 644.88 Z" class="st27"/>
						</g>
					</g>
				</g>
			</g>
			<g id="group29007-139" transform="translate(27.2756,-230.238)" v:mID="29007" v:groupContext="group">
				<v:userDefs>
					<v:ud v:nameU="visNavOrder" v:val="VT0(4461000):26"/>
				</v:userDefs>
				<title>Sheet.29007</title>
				<g id="shape29008-140" v:mID="29008" v:groupContext="shape">
					<title>Sheet.29008</title>
					<desc>Logs</desc>
					<v:userDefs>
						<v:ud v:nameU="visNavOrder" v:prompt="" v:val="VT0(1253000):26"/>
					</v:userDefs>
					<v:textBlock v:margins="rect(4,4,4,4)" v:verticalAlign="0"/>
					<v:textRect cx="41.9733" cy="611.506" width="83.95" height="81.2658"/>
					<path d="M0 647.26 A4.86504 4.87596 -180 0 0 4.86 652.14 L79.08 652.14 A4.86504 4.87596 -180 0 0 83.95 647.26
								 L83.95 575.75 A4.86504 4.87596 -180 0 0 79.08 570.87 L4.86 570.87 A4.86504 4.87596 -180 0 0 0 575.75
								 L0 647.26 Z" class="st5"/>
					<text x="22.9" y="591.07" class="st6" v:langID="1033"><v:paragraph v:horizAlign="1"/><v:tabList/>Logs</text>				</g>
				<g id="group29009-143" transform="translate(26.6776,-10.8104)" v:mID="29009" v:groupContext="group">
					<v:userDefs>
						<v:ud v:nameU="visNavOrder" v:prompt="" v:val="VT0(1254000):26"/>
					</v:userDefs>
					<title>Sheet.29009</title>
					<g id="group29010-144" v:mID="29010" v:groupContext="group">
						<title>Sheet.29010</title>
						<g id="shape29011-145" v:mID="29011" v:groupContext="shape">
							<title>Sheet.29011</title>
							<path d="M16.13 620.98 C7.25 620.96 0.07 618.32 0.08 615.09 L0 646.22 C0 649.43 7.06 652.05 15.83 652.12
										 L16.05 652.12 C24.92 652.14 32.12 649.54 32.13 646.3 L32.21 615.17 C32.2 618.41 25 621.01
										 16.13 620.98 Z" class="st7"/>
						</g>
						<g id="shape29012-148" v:mID="29012" v:groupContext="shape" transform="translate(0.0715424,-31.1368)">
							<title>Sheet.29012</title>
							<path d="M32.14 646.31 C32.14 649.54 24.93 652.14 16.06 652.12 C7.19 652.1 0 649.46 0.01 646.23 C0.02
										 642.99 7.22 640.39 16.09 640.42 C24.96 640.44 32.14 643.07 32.13 646.31 L32.14 646.31 Z"
									class="st8"/>
							<path d="M32.14 646.31 C32.14 649.54 24.93 652.14 16.06 652.12 C7.19 652.1 0 649.46 0.01 646.23 C0.02
										 642.99 7.22 640.39 16.09 640.42 C24.96 640.44 32.14 643.07 32.13 646.31" class="st9"/>
						</g>
						<g id="shape29013-151" v:mID="29013" v:groupContext="shape" transform="translate(3.82354,-33.7389)">
							<title>Sheet.29013</title>
							<path d="M24.63 648.43 C24.63 650.48 19.11 652.14 12.31 652.12 C5.51 652.1 0 650.42 0.01 648.37 C0.01
										 646.31 5.53 644.66 12.33 644.67 C19.13 644.69 24.64 646.37 24.63 648.43 Z" class="st10"/>
						</g>
						<g id="shape29014-153" v:mID="29014" v:groupContext="shape" transform="translate(6.38317,-33.7601)">
							<title>Sheet.29014</title>
							<path d="M9.76 649.27 A29.6265 29.6265 -180 0 0 -0 650.66 A28.617 28.617 -180 0 0 9.75 652.14 A28.6541
										 28.6541 -180 0 0 19.51 650.72 A29.6133 29.6133 -180 0 0 9.76 649.27 Z" class="st11"/>
						</g>
					</g>
					<g id="group29015-155" transform="translate(2.99782,-1.43783)" v:mID="29015" v:groupContext="group">
						<title>Sheet.29015</title>
						<g id="group29016-156" transform="translate(0,-1.83573)" v:mID="29016" v:groupContext="group">
							<title>Icon-manage-307.6608</title>
							<g id="shape29017-157" v:mID="29017" v:groupContext="shape">
								<title>Sheet.29017</title>
								<path d="M8.09 645.2 L15.03 645.2 L15.03 652.14 L8.09 652.14 L8.09 645.2 ZM0.96 652.14 L6.94 652.14
											 L6.94 645.2 L0 645.2 L0 651.18 a0.963517 0.963517 -180 0 0 0.963517 0.963517 ZM0 644.11
											 L6.94 644.11 L6.94 637.11 L0 637.11 L0 644.11 Z" class="st12"/>
							</g>
							<g id="shape29018-160" v:mID="29018" v:groupContext="shape" transform="translate(8.02931,-7.94901)">
								<title>Sheet.29018</title>
								<path d="M9.55 632.95 A9.45852 9.45852 0 0 1 19.11 642.58 A9.45852 9.45852 0 0 1 9.55 652.14 L0 652.14
											 L0 642.5 A9.45852 9.45852 0 0 1 9.55 632.95 Z" class="st13"/>
							</g>
							<g id="shape29019-163" v:mID="29019" v:groupContext="shape" transform="translate(11.3053,-12.3972)">
								<title>Sheet.29019</title>
								<rect x="0" y="645.587" width="2.18397" height="6.55191" class="st14"/>
							</g>
							<g id="shape29020-165" v:mID="29020" v:groupContext="shape" transform="translate(15.6732,-12.3972)">
								<title>Sheet.29020</title>
								<rect x="0" y="647.771" width="2.18397" height="4.36794" class="st14"/>
							</g>
							<g id="shape29021-167" v:mID="29021" v:groupContext="shape" transform="translate(20.0411,-12.3972)">
								<title>Sheet.29021</title>
								<rect x="0" y="643.403" width="2.18397" height="8.73588" class="st14"/>
							</g>
						</g>
					</g>
				</g>
			</g>
		</g>
		<g id="shape15996-169" v:mID="15996" v:groupContext="shape" transform="translate(214.418,-318.057)">
			<title>Sheet.15996</title>
			<v:userDefs>
				<v:ud v:nameU="visNavOrder" v:prompt="" v:val="VT0(4811000):26"/>
			</v:userDefs>
			<path d="M0 652.14 L422.2 652.14" class="st28"/>
		</g>
		<g id="shape15997-175" v:mID="15997" v:groupContext="shape" transform="translate(261.904,-304.557)">
			<title>Sheet.15997</title>
			<desc>Data Collection &#38; Routing</desc>
			<v:userDefs>
				<v:ud v:nameU="visNavOrder" v:prompt="" v:val="VT0(4812000):26"/>
			</v:userDefs>
			<v:textBlock v:margins="rect(4,4,4,4)" v:verticalAlign="0"/>
			<v:textRect cx="141.75" cy="626.543" width="283.5" height="51.1931"/>
			<rect x="0" y="600.946" width="283.5" height="51.1931" class="st2"/>
			<text x="37.61" y="631.95" class="st3" v:langID="1033"><v:paragraph v:horizAlign="1"/><v:tabList/>Data Collection<v:newlineChar/><tspan
						x="72.72" dy="1.2em" class="st30">&#38; Routing</tspan></text>		</g>
		<g id="shape15999-179" v:mID="15999" v:groupContext="shape" transform="translate(796.477,-318.057)">
			<title>Sheet.15999</title>
			<v:userDefs>
				<v:ud v:nameU="visNavOrder" v:prompt="" v:val="VT0(4814000):26"/>
			</v:userDefs>
			<path d="M0 652.14 L119.06 652.14" class="st28"/>
		</g>
		<g id="shape16000-184" v:mID="16000" v:groupContext="shape" transform="translate(940.478,-292.46)">
			<title>Sheet.16000</title>
			<desc>Consumption</desc>
			<v:userDefs>
				<v:ud v:nameU="visNavOrder" v:prompt="" v:val="VT0(4815000):26"/>
			</v:userDefs>
			<v:textBlock v:margins="rect(4,4,4,4)" v:verticalAlign="0"/>
			<v:textRect cx="105.598" cy="626.543" width="211.2" height="51.1931"/>
			<rect x="0" y="600.946" width="211.196" height="51.1931" class="st2"/>
			<text x="13.98" y="631.95" class="st3" v:langID="1033"><v:paragraph v:horizAlign="1"/><v:tabList/>Consumption</text>		</g>
		<g id="shape17118-187" v:mID="17118" v:groupContext="shape" transform="translate(14.5944,-292.75)">
			<title>Sheet.17118</title>
			<desc>Data Sources</desc>
			<v:userDefs>
				<v:ud v:nameU="visNavOrder" v:prompt="" v:val="VT0(5225000):26"/>
			</v:userDefs>
			<v:textBlock v:margins="rect(4,4,4,4)" v:verticalAlign="0"/>
			<v:textRect cx="96.5597" cy="626.543" width="193.12" height="51.1931"/>
			<rect x="0" y="600.946" width="193.119" height="51.1931" class="st2"/>
			<text x="7.68" y="631.95" class="st3" v:langID="1033"><v:paragraph v:horizAlign="1"/><v:tabList/>Data Sources</text>		</g>
	</g>
</svg>
