<svg xmlns="http://www.w3.org/2000/svg" xmlns:xlink="http://www.w3.org/1999/xlink" width="1242.624" height="701.952" viewBox="0 0 932 526.437" color-interpolation-filters="sRGB" fill="none" fill-rule="evenodd" font-size="12" overflow="visible" stroke-linecap="square" stroke-miterlimit="3" xmlns:v="https://vecta.io/nano"><style><![CDATA[.a{fill:#e6e6e6}.b{stroke-linejoin:round}.c{stroke:#d8d8d8}.d{stroke-width:2.25}.e{fill:url(#A)}.f{fill:#50e6ff}.g{fill:#198ab3}.h{fill:#d8d8d8}.i{font-family:Segoe UI Semibold}.j{font-size:1.5em}]]></style><defs><linearGradient id="A" x1=".001" y1="-.001" x2="1.001" y2=".001"><stop offset="0" stop-color="#005ba1"/><stop offset=".07" stop-color="#0060a9"/><stop offset=".355" stop-color="#0071c8"/><stop offset=".515" stop-color="#0078d4"/><stop offset=".64" stop-color="#0074cd"/><stop offset=".82" stop-color="#006abb"/><stop offset="1" stop-color="#005ba1"/></linearGradient><linearGradient id="B" x1="0" y1="1" x2="0" y2="0"><stop offset="0" stop-color="#1988d9"/><stop offset=".9" stop-color="#54aef0"/></linearGradient><linearGradient id="C" x1="0" y1="1" x2="0" y2="0"><stop offset="0" stop-color="#198ab3"/><stop offset=".01" stop-color="#198bb4"/><stop offset=".44" stop-color="#27b2d7"/><stop offset=".79" stop-color="#2fcbed"/><stop offset="1" stop-color="#32d4f5"/></linearGradient><linearGradient id="D" x1="-.045" y1=".951" x2=".049" y2="-.045"><stop offset="0" stop-color="#5e9624"/><stop offset=".82" stop-color="#86d633"/></linearGradient><linearGradient id="E" x1="-.005" y1=".994" x2=".006" y2="-.005"><stop offset="0" stop-color="#5e9624"/><stop offset=".82" stop-color="#86d633"/></linearGradient><linearGradient id="F" x1="-.043" y1=".952" x2=".048" y2="-.043"><stop offset="0" stop-color="#5e9624"/><stop offset=".82" stop-color="#86d633"/></linearGradient><linearGradient id="G" x1="0" y1="1" x2="0" y2="0"><stop offset="0" stop-color="#773adc"/><stop offset="1" stop-color="#b77af4"/></linearGradient><path id="H" d="M0 521.57a4.865 4.865-180 0 0 4.86 4.87h74.22a4.865 4.865-180 0 0 4.87-4.87v-71.35a4.865 4.865-180 0 0-4.87-4.87H4.86A4.865 4.865-180 0 0 0 450.22v71.35z"/><path id="I" d="M32.212 489.473c0 3.23-7.21 5.83-16.08 5.81s-16.06-2.66-16.05-5.89c.01-3.24 7.21-5.84 16.08-5.81 8.87.02 16.05 2.64 16.04 5.89h.01z"/><path id="J" d="M28.454 488.991c0 2.05-5.52 3.71-12.32 3.69s-12.31-1.7-12.3-3.76c0-2.05 5.52-3.71 12.32-3.69s12.31 1.7 12.3 3.76z"/><path id="K" d="M16.143 489.81c-3.308-.085-6.607.385-9.76 1.39 3.14 1.054 6.439 1.555 9.75 1.48 3.311.094 6.613-.386 9.76-1.42-3.146-1.025-6.442-1.515-9.75-1.45z"/><path id="L" d="M17.149 520.588c0 .206.167.374.374.374l2.696.006c.206 0 .374-.167.374-.374l-.004-5.876c0-.206-.167-.374-.374-.374l-2.696.004c-.206 0-.374.167-.374.374l.004 5.866z"/></defs><g transform="translate(13.75 -18.917)"><rect y="32.563" width="142.875" height="493.875" rx="9" class="a b c d"/><g transform="translate(27.276 -130.827)"><use xlink:href="#H" class="b c d h"/><text x="16.09" y="465.55" fill="#000" class="i j">Traces</text><g transform="translate(26.949 -11.201)"><path d="M16.13 495.28c-8.88-.02-16.06-2.66-16.05-5.89L0 520.52c0 3.21 7.06 5.83 15.83 5.89h.22c8.87.03 16.07-2.57 16.08-5.81l.08-31.13c-.01 3.23-7.21 5.84-16.08 5.81z" class="e"/><use xlink:href="#I" class="a"/><use xlink:href="#J" class="f"/><use xlink:href="#K" class="g"/><path d="M8.09 519.5h6.94v6.94H8.09v-6.94zm-7.13 6.94h5.98v-6.94H0v5.97c0 .256.102.501.282.681s.426.282.681.282zM0 518.41h6.94v-7H0v7z" fill="url(#B)" transform="translate(2.998 -3.274)"/><path d="M20.577 496.027a9.46 9.46 0 0 1 9.56 9.63 9.46 9.46 0 0 1-9.56 9.56h-9.55v-9.64a9.46 9.46 0 0 1 9.55-9.55z" fill="url(#C)"/><path d="M14.303 504.215h2.184v6.552h-2.184zm4.368 2.184h2.184v4.368h-2.184zm4.368-4.368h2.184v8.736h-2.184z" fill="#fff"/></g></g><g transform="translate(27.276 -31.416)"><use xlink:href="#H" class="b c d h"/><text x="7.11" y="465.55" fill="#000" class="i j">Changes</text><path d="M16.13 495.28c-8.88-.02-16.06-2.66-16.05-5.89L0 520.52c0 3.21 7.06 5.83 15.83 5.89h.22c8.87.03 16.07-2.57 16.08-5.81l.08-31.13c-.01 3.23-7.21 5.84-16.08 5.81z" transform="translate(26.678 -10.628)" class="e"/><use xlink:href="#I" x="26.678" y="-10.628" class="a"/><use xlink:href="#J" x="26.678" y="-10.628" class="f"/><use xlink:href="#K" x="26.678" y="-10.628" class="g"/><g transform="translate(29.864 -14.119)"><path d="M21.104 512.837l-5.14 5.21-5.18-5.21a7.19 7.19 0 0 1-.14-10.16l.14-.14c2.789-2.849 7.36-2.898 10.21-.11l.11.11c1.368 1.343 2.146 3.174 2.163 5.091s-.729 3.762-2.073 5.129l-.09.08z" fill="#00b0f0"/><path d="M20.818 512.64l-4.86 4.92-4.89-4.92c-1.294-1.255-2.035-2.974-2.062-4.776s.665-3.541 1.922-4.834l.14-.13c1.266-1.293 2.995-2.03 4.804-2.049s3.553.682 4.846 1.949l.1.1c1.293 1.27 2.028 3.001 2.043 4.813s-.691 3.556-1.963 4.847l-.08.08z" fill="#0078d4"/><path d="M3.188 524.99l-1.62-1.44 7.91-8.85 6.73 6.93 6.35-6.73 1.57 1.48-7.91 8.38-6.67-6.9-6.36 7.13z" fill="#76bc2d"/><circle cx="9.509" cy="516.297" r="2.595" fill="url(#D)"/><circle cx="16.21" cy="522.981" r="2.595" fill="url(#E)"/><circle cx="23.349" cy="515.411" r="2.595" fill="url(#F)"/><circle cx="2.595" cy="523.842" r="2.595" fill="url(#F)"/><path d="M11.84 506.181c-.325 1.157-.163 2.396.45 3.43a4.24 4.24 0 0 0 .79.97c.299.282.636.521 1 .71.372.181.765.315 1.17.4a4.12 4.12 0 0 0 1.25 0l-.11-1.19c-.015-.123-.116-.216-.24-.223a2.96 2.96 0 0 1-.63-.007 3.51 3.51 0 0 1-.78-.27 2.97 2.97 0 0 1-.69-.47c-.214-.194-.396-.42-.54-.67a2.66 2.66 0 0 1-.38-1.08c-.071-.38-.071-.77 0-1.15l.41.68c.096.084.239.084.334 0l.556-.14c.109-.074.143-.219.079-.334l-1.369-2.246c-.047-.123-.179-.189-.305-.153l-2.325 1.383c-.084.096-.084.239 0 .334l.29.486c.069.114.215.156.334.095l.706-.555zm4.82-1.7c.272.049.536.14.78.27.509.248.934.641 1.22 1.13.201.337.33.711.38 1.1a3.16 3.16 0 0 1 0 1.16l-.39-.68c-.067-.116-.212-.161-.333-.102l-.497.302a.24.24 0 0 0-.104.322l.004.018 1.38 2.3a.24.24 0 0 0 .321.102l.019.008 2.3-1.39c.091-.093.091-.242 0-.334l-.29-.496c-.096-.083-.238-.083-.334 0l-.786.48a4.31 4.31 0 0 0 .12-1.75 4.1 4.1 0 0 0-.57-1.68c-.209-.367-.472-.701-.78-.99-.31-.275-.652-.51-1.02-.7a4.2 4.2 0 0 0-1.16-.4 4.22 4.22 0 0 0-.99-.15c-.135.016-.233.135-.223.27l.003.94c.016.122.117.216.24.223a2.75 2.75 0 0 1 .71.047z" fill="#fff"/></g></g><g transform="translate(27.276 -329.831)"><path d="M0 518.61a4.865 7.824-180 0 0 1.76 6.03 4.5 4.5-180 0 0 3.6 1.8h73.23a4.5 4.5-180 0 0 3.59-1.8 4.865 7.824-180 0 0 1.77-6.03V403.87a4.865 7.824-180 0 0-1.77-6.03 4.5 4.5-180 0 0-3.59-1.8H5.36a4.5 4.5-180 0 0-3.6 1.8A4.865 7.824-180 0 0 0 403.87v114.74z" class="b c d h"/><text x="11.83" y="416.24" fill="#000" class="i j">Metrics</text><g transform="translate(26.678 -60.512)"><path d="M16.13 495.28c-8.88-.02-16.06-2.66-16.05-5.89L0 520.52c0 3.21 7.06 5.83 15.83 5.89h.22c8.87.03 16.07-2.57 16.08-5.81l.08-31.13c-.01 3.23-7.21 5.84-16.08 5.81z" class="e"/><use xlink:href="#I" class="a"/><use xlink:href="#J" class="f"/><use xlink:href="#K" class="g"/><path d="M23.757 499.777l-5.33 9.48-5.63-5.74-5.8 7.52 1.36 1.07 4.6-5.94 5.85 5.97 6.45-11.49-1.5-.87z" fill="#b796f9"/><g fill="url(#G)"><ellipse cx="12.867" cy="504.837" rx="2.188" ry="2.201"/><ellipse cx="18.803" cy="510.293" rx="2.188" ry="2.201"/><ellipse cx="24.313" cy="500.488" rx="2.188" ry="2.201"/><ellipse cx="7.904" cy="511.253" rx="2.188" ry="2.201"/></g><g fill="#5ea0ef"><path d="M11.666 520.588c0 .206.167.374.374.374l2.696.006c.206 0 .374-.167.374-.374l-.004-9.366c0-.206-.167-.374-.374-.374l-2.696.004c-.206 0-.374.167-.374.374l.004 9.356z"/><use xlink:href="#L"/><path d="M22.631 520.588c0 .206.167.374.374.374l2.696.006c.206 0 .374-.167.374-.374l-.004-12.756c0-.206-.167-.374-.374-.374l-2.696.004c-.206 0-.374.167-.374.374l.004 12.746z"/><use xlink:href="#L" x="-10.966"/></g></g><g transform="translate(26.678 -8.355)"><path d="M16.13 495.28c-8.88-.02-16.06-2.66-16.05-5.89L0 520.52c0 3.21 7.06 5.83 15.83 5.89h.22c8.87.03 16.07-2.57 16.08-5.81l.08-31.13c-.01 3.23-7.21 5.84-16.08 5.81z" class="e"/><use xlink:href="#I" class="a"/><use xlink:href="#J" class="f"/><use xlink:href="#K" class="g"/><circle cx="16.058" cy="511.25" r="9.563" fill="#fff"/><path d="M16.106 500.854a10.4 10.4 0 0 0-10.39 10.4c0 5.73 4.65 10.39 10.39 10.39s10.39-4.66 10.39-10.39a10.4 10.4 0 0 0-10.39-10.4zm0 19.45c-1.63 0-2.95-1.09-2.95-2.43h5.91c0 1.34-1.32 2.43-2.96 2.43zm4.89-3.24h-9.77v-1.77h9.77v1.77h0zm-.04-2.68h-9.7c-.04-.04-.07-.08-.1-.11-1-1.22-1.24-1.85-1.46-2.5-.01-.02 1.21.25 2.07.44a19.77 19.77 0 0 0 1.09.23c-.62-.73-.99-1.66-.99-2.61 0-2.08 1.6-3.91 1.02-5.38.56.05 1.16 1.19 1.2 2.97.6-.83.85-2.33.85-3.25 0-.96.63-2.07 1.26-2.11-.56.93.14 1.72.77 3.69.24.74.21 1.98.39 2.77.06-1.64.34-4.03 1.38-4.85-.46 1.03.07 2.34.43 2.96.58 1.01.93 1.77.93 3.22 0 .97-.36 1.88-.96 2.59.69-.13 1.16-.24 1.16-.24l2.23-.44s-.32 1.34-1.57 2.62z" fill="#da4e31"/></g></g><g transform="translate(27.276 -230.238)"><path d="M0 521.56a4.865 4.876-180 0 0 4.86 4.88h74.22a4.865 4.876-180 0 0 4.87-4.88v-71.51a4.865 4.876-180 0 0-4.87-4.88H4.86A4.865 4.876-180 0 0 0 450.05v71.51z" class="b c d h"/><text x="22.9" y="465.37" fill="#000" class="i j">Logs</text><g transform="translate(26.678 -10.81)"><path d="M16.13 495.28c-8.88-.02-16.06-2.66-16.05-5.89L0 520.52c0 3.21 7.06 5.83 15.83 5.89h.22c8.87.03 16.07-2.57 16.08-5.81l.08-31.13c-.01 3.23-7.21 5.84-16.08 5.81z" class="e"/><use xlink:href="#I" class="a"/><use xlink:href="#J" class="f"/><use xlink:href="#K" class="g"/><path d="M8.09 519.5h6.94v6.94H8.09v-6.94zm-7.13 6.94h5.98v-6.94H0v5.97c0 .256.102.501.282.681s.426.282.681.282zM0 518.41h6.94v-7H0v7z" fill="url(#B)" transform="translate(2.998 -3.274)"/><path d="M20.577 496.027a9.46 9.46 0 0 1 9.56 9.63 9.46 9.46 0 0 1-9.56 9.56h-9.55v-9.64a9.46 9.46 0 0 1 9.55-9.55z" fill="url(#C)"/><path d="M14.303 504.215h2.184v6.552h-2.184zm4.368 2.184h2.184v4.368h-2.184zm4.368-4.368h2.184v8.736h-2.184z" fill="#fff"/></g></g></g><path d="M.25.25h931.5v525.937H.25z" stroke="#fff" stroke-width=".5" class="b"/></svg>