<?xml version="1.0" encoding="UTF-8" standalone="no"?>
<!DOCTYPE svg PUBLIC "-//W3C//DTD SVG 1.1//EN" "http://www.w3.org/Graphics/SVG/1.1/DTD/svg11.dtd">
<!-- Generated by Microsoft Visio, SVG Export visualize.svg Page-1 -->
<svg xmlns="http://www.w3.org/2000/svg" xmlns:xlink="http://www.w3.org/1999/xlink" xmlns:ev="http://www.w3.org/2001/xml-events"
		xmlns:v="http://schemas.microsoft.com/visio/2003/SVGExtensions/" width="13.6771in" height="2.32335in"
		viewBox="0 0 984.754 167.281" xml:space="preserve" color-interpolation-filters="sRGB" class="st18">
	<v:documentProperties v:langID="1033" v:viewMarkup="false">
		<v:userDefs>
			<v:ud v:nameU="Ifc__CustomPropsLevel" v:val="VT0(0):26"/>
			<v:ud v:nameU="visTLShowProps" v:prompt="" v:val="VT0(1):26"/>
		</v:userDefs>
	</v:documentProperties>

	<style type="text/css">
	<![CDATA[
		.st1 {fill:none;stroke:none;stroke-linecap:round;stroke-linejoin:round;stroke-width:0.5}
		.st2 {fill:#e6e6e6;stroke:#d8d8d8;stroke-linecap:round;stroke-linejoin:round;stroke-width:2.25}
		.st3 {fill:#000000;font-family:Segoe UI Semibold;font-size:1.75001em}
		.st4 {fill:url(#grad0-13);stroke:none;stroke-linecap:butt;stroke-width:34}
		.st5 {fill:url(#grad0-17);stroke:none;stroke-linecap:butt;stroke-width:34}
		.st6 {fill:url(#grad0-21);stroke:none;stroke-linecap:butt;stroke-width:34}
		.st7 {fill:none;stroke:none;stroke-linecap:round;stroke-linejoin:round;stroke-width:0.75}
		.st8 {fill:#000000;font-family:Segoe UI Semibold;font-size:1.5em;font-weight:bold}
		.st9 {fill:url(#grad0-30);stroke:none;stroke-linecap:butt;stroke-width:34}
		.st10 {fill:#ffffff;fill-opacity:0.9;stroke:none;stroke-linecap:butt;stroke-width:34}
		.st11 {fill:#ffffff;fill-opacity:0.6;stroke:none;stroke-linecap:butt;stroke-width:34}
		.st12 {fill:#ffffff;stroke:none;stroke-linecap:butt;stroke-width:34}
		.st13 {fill:#7f7f7f;font-size:1em}
		.st14 {fill:url(#grad0-59);stroke:none;stroke-linecap:butt;stroke-width:5.04864}
		.st15 {fill:url(#grad0-66);stroke:none;stroke-linecap:butt;stroke-width:0.75}
		.st16 {fill:url(#grad0-70);stroke:none;stroke-linecap:butt;stroke-width:0.75}
		.st17 {fill:url(#grad0-74);stroke:none;stroke-linecap:butt;stroke-width:0.75}
		.st18 {fill:none;fill-rule:evenodd;font-size:12px;overflow:visible;stroke-linecap:square;stroke-miterlimit:3}
	]]>
	</style>

	<defs id="Patterns_And_Gradients">
		<linearGradient id="grad0-13" x1="0" y1="0" x2="1" y2="0" gradientTransform="rotate(-121.48146355827 0.5 0.5)">
			<stop offset="0" stop-color="#0078d4" stop-opacity="1"/>
			<stop offset="1" stop-color="#289bf2" stop-opacity="1"/>
		</linearGradient>
		<linearGradient id="grad0-17" x1="0" y1="0" x2="1" y2="0" gradientTransform="rotate(65.416554844273 0.5 0.5)">
			<stop offset="0" stop-color="#00ccf9" stop-opacity="1"/>
			<stop offset="1" stop-color="#0095e6" stop-opacity="1"/>
		</linearGradient>
		<linearGradient id="grad0-21" x1="0" y1="0" x2="1" y2="0" gradientTransform="rotate(75.680747519145 0.5 0.5)">
			<stop offset="0" stop-color="#7cecff" stop-opacity="1"/>
			<stop offset="1" stop-color="#50e6ff" stop-opacity="1"/>
		</linearGradient>
		<linearGradient id="grad0-30" x1="0" y1="0" x2="1" y2="0" gradientTransform="rotate(90 0.5 0.5)">
			<stop offset="0" stop-color="#6cc6b9" stop-opacity="1"/>
			<stop offset="0.46" stop-color="#6ac4b7" stop-opacity="1"/>
			<stop offset="0.64" stop-color="#62bdb0" stop-opacity="1"/>
			<stop offset="0.77" stop-color="#56b1a4" stop-opacity="1"/>
			<stop offset="1" stop-color="#258277" stop-opacity="1"/>
		</linearGradient>
		<linearGradient id="grad0-59" x1="0" y1="0" x2="1" y2="0" gradientTransform="rotate(90 0.5 0.5)">
			<stop offset="0" stop-color="#f05a28" stop-opacity="1"/>
			<stop offset="1" stop-color="#fbca0a" stop-opacity="1"/>
		</linearGradient>
		<linearGradient id="grad0-66" x1="0" y1="0" x2="1" y2="0" gradientTransform="rotate(36.921321580807 0.5 0.5)">
			<stop offset="0" stop-color="#e6ad10" stop-opacity="1"/>
			<stop offset="1" stop-color="#c87e0e" stop-opacity="1"/>
		</linearGradient>
		<linearGradient id="grad0-70" x1="0" y1="0" x2="1" y2="0" gradientTransform="rotate(42.510447078001 0.5 0.5)">
			<stop offset="0" stop-color="#f6d751" stop-opacity="1"/>
			<stop offset="1" stop-color="#e6ad10" stop-opacity="1"/>
		</linearGradient>
		<linearGradient id="grad0-74" x1="0" y1="0" x2="1" y2="0" gradientTransform="rotate(59.241604819117 0.5 0.5)">
			<stop offset="0" stop-color="#f9e589" stop-opacity="1"/>
			<stop offset="1" stop-color="#f6d751" stop-opacity="1"/>
		</linearGradient>
	</defs>
	<g v:mID="0" v:index="1" v:groupContext="foregroundPage">
		<v:userDefs>
			<v:ud v:nameU="visNavType" v:val="VT0(1):26"/>
		</v:userDefs>
		<title>Page-1</title>
		<v:pageProperties v:drawingScale="1" v:pageScale="1" v:drawingUnits="19" v:shadowOffsetX="9" v:shadowOffsetY="-9"/>
		<v:layer v:name="Azure" v:index="0"/>
		<g id="shape10989-1" v:mID="10989" v:groupContext="shape" v:layerMember="0" transform="translate(0.25,-0.25)">
			<title>Sheet.10989</title>
			<v:userDefs>
				<v:ud v:nameU="visNavOrder" v:prompt="" v:val="VT0(5234000):26"/>
			</v:userDefs>
			<rect x="0" y="0.500008" width="984.254" height="166.781" class="st1"/>
		</g>
		<g id="group10993-3" transform="translate(17.0036,-18.443)" v:mID="10993" v:groupContext="group">
			<v:userDefs>
				<v:ud v:nameU="visNavOrder" v:val="VT0(5238000):26"/>
			</v:userDefs>
			<title>Sheet.10993</title>
			<g id="shape10994-4" v:mID="10994" v:groupContext="shape">
				<title>Sheet.10994</title>
				<desc>Visualize</desc>
				<v:userDefs>
					<v:ud v:nameU="visNavOrder" v:prompt="" v:val="VT0(4501000):26"/>
				</v:userDefs>
				<v:textBlock v:margins="rect(4,4,4,4)" v:verticalAlign="0"/>
				<v:textRect cx="240.75" cy="102.084" width="481.5" height="130.395"/>
				<rect x="0" y="36.886" width="481.5" height="130.395" rx="9" ry="9" class="st2"/>
				<text x="15.55" y="60.27" class="st3" v:langID="1033"><v:paragraph/><v:tabList/>Visualize</text>			</g>
			<g id="group10995-7" transform="translate(15.9033,-11.7947)" v:mID="10995" v:groupContext="group">
				<v:userDefs>
					<v:ud v:nameU="visNavOrder" v:prompt="" v:val="VT0(4515000):26"/>
				</v:userDefs>
				<title>Sheet.10995</title>
				<g id="group10996-8" transform="translate(27.3562,-37.7865)" v:mID="10996" v:groupContext="group">
					<title>Azure Workbooks.10676</title>
					<g id="group10997-9" v:mID="10997" v:groupContext="group">
						<title>Sheet.10997</title>
						<g id="shape10998-10" v:mID="10998" v:groupContext="shape">
							<title>Sheet.10998</title>
							<path d="M16.96 136.04 L0 153 L0 163.71 A3.5724 3.5724 -180 0 0 3.57 167.28 L35.71 167.28 A3.5724 3.5724
										 -180 0 0 39.28 163.71 L39.28 131.57 A3.5724 3.5724 -180 0 0 35.71 128 L33.92 128 L21.43
										 140.5 L16.96 136.04 Z" class="st4"/>
						</g>
						<g id="shape10999-14" v:mID="10999" v:groupContext="shape" transform="translate(0.362466,-1.98952E-13)">
							<title>Sheet.10999</title>
							<path d="M16.6 146.75 L0.92 162.43 A2.60565 2.60565 -180 0 0 0.08 165.44 A3.56804 3.56804 -180 0 0 3.21
										 167.28 L35.35 167.28 A3.5724 3.5724 -180 0 0 38.92 163.71 L38.92 133.36 L21.06 151.21 L16.6
										 146.75 Z" class="st5"/>
						</g>
						<g id="shape13000-18" v:mID="13000" v:groupContext="shape" transform="translate(1.93845E-13,-14.2831)">
							<title>Sheet.13000</title>
							<path d="M21.43 154.78 L33.92 142.28 L3.57 142.28 A3.5724 3.5724 -180 0 0 0 145.85 L0 167.28 L16.96 150.32
										 L21.43 154.78 Z" class="st6"/>
						</g>
					</g>
				</g>
				<g id="shape13001-22" v:mID="13001" v:groupContext="shape" transform="translate(-3.97081,7.10543E-13)">
					<title>Sheet.13001</title>
					<desc>Workbooks</desc>
					<v:textBlock v:margins="rect(4,4,4,4)"/>
					<v:textRect cx="54" cy="152.991" width="108" height="28.5811"/>
					<rect x="0" y="138.7" width="108" height="28.5811" class="st7"/>
					<text x="7.1" y="158.39" class="st8" v:langID="1033"><v:paragraph v:horizAlign="1"/><v:tabList/>Workbooks</text>				</g>
			</g>
			<g id="group13002-25" transform="translate(138.499,-11.7947)" v:mID="13002" v:groupContext="group">
				<v:userDefs>
					<v:ud v:nameU="visNavOrder" v:prompt="" v:val="VT0(4516000):26"/>
				</v:userDefs>
				<title>Sheet.13002</title>
				<g id="group13003-26" transform="translate(20.5592,-36)" v:mID="13003" v:groupContext="group">
					<title>Sheet.13003</title>
					<g id="shape13004-27" v:mID="13004" v:groupContext="shape">
						<title>Sheet.13004</title>
						<path d="M1.61 129.89 L51.29 129.89 A1.52162 1.52162 0 0 1 52.87 131.33 L52.87 165.84 A1.52162 1.52162 0
									 0 1 51.29 167.28 L1.61 167.28 A1.551 1.551 0 0 1 0 165.84 L0 131.39 A1.55394 1.55394 0 0 1 1.61
									 129.89 L1.61 129.89 Z" class="st9"/>
					</g>
					<g id="shape13005-31" v:mID="13005" v:groupContext="shape" transform="translate(36.5983,-5.31394)">
						<title>Sheet.13005</title>
						<path d="M0 166.85 a0.431822 0.431822 -180 0 0 0.431812 0.431812 L4.07 167.28 a0.431822 0.431822 -180 0 0
									 0.431812 -0.431812 L4.5 140.25 a0.431822 0.431822 -180 0 0 -0.431812 -0.431812 L0.43 139.82
									 a0.431822 0.431822 -180 0 0 -0.431812 0.431812 L0 166.85 Z" class="st10"/>
					</g>
					<g id="shape13006-33" v:mID="13006" v:groupContext="shape" transform="translate(4.78225,-5.28162)">
						<title>Sheet.13006</title>
						<path d="M-0 166.81 a0.467073 0.467073 -180 0 0 0.467062 0.467062 L24.71 167.28 a0.467073 0.467073 -180 0
									 0 0.467062 -0.467062 L25.18 162.06 a0.467073 0.467073 -180 0 0 -0.467062 -0.467062 L0.47 161.59
									 a0.467073 0.467073 -180 0 0 -0.467062 0.467062 L0 166.81 Z" class="st11"/>
					</g>
					<g id="shape13007-35" v:mID="13007" v:groupContext="shape" transform="translate(43.4985,-5.31394)">
						<title>Sheet.13007</title>
						<path d="M-0 166.95 a0.331945 0.331945 -180 0 0 0.331937 0.331937 L4.17 167.28 a0.331945 0.331945 -180 0
									 0 0.331937 -0.331937 L4.5 151.39 a0.331945 0.331945 -180 0 0 -0.331937 -0.331937 L0.33 151.05
									 a0.331945 0.331945 -180 0 0 -0.331937 0.331937 L0 166.95 Z" class="st10"/>
					</g>
					<g id="shape13008-37" v:mID="13008" v:groupContext="shape" transform="translate(7.08525,-16.5939)">
						<title>Sheet.13008</title>
						<path d="M19.7 152.76 L13.44 163.89 L6.82 157.15 L0 166 L1.6 167.25 L7.01 160.27 L13.88 167.28 L21.47 153.78
									 L19.7 152.76 Z" class="st12"/>
					</g>
					<g id="shape13009-39" v:mID="13009" v:groupContext="shape" transform="translate(11.4122,-22.5835)">
						<title>Sheet.13009</title>
						<ellipse cx="2.57325" cy="164.693" rx="2.57325" ry="2.58794" class="st12"/>
					</g>
					<g id="shape13010-41" v:mID="13010" v:groupContext="shape" transform="translate(18.3887,-16.168)">
						<title>Sheet.13010</title>
						<ellipse cx="2.57325" cy="164.693" rx="2.57325" ry="2.58794" class="st12"/>
					</g>
					<g id="shape13011-43" v:mID="13011" v:groupContext="shape" transform="translate(24.8659,-27.6947)">
						<title>Sheet.13011</title>
						<ellipse cx="2.57325" cy="164.693" rx="2.57325" ry="2.58794" class="st12"/>
					</g>
					<g id="shape13012-45" v:mID="13012" v:groupContext="shape" transform="translate(5.57831,-15.04)">
						<title>Sheet.13012</title>
						<ellipse cx="2.57325" cy="164.693" rx="2.57325" ry="2.58794" class="st12"/>
					</g>
				</g>
				<g id="shape13013-47" v:mID="13013" v:groupContext="shape" transform="translate(-11.7434,1.98952E-13)">
					<title>Sheet.13013</title>
					<desc>Dashboards</desc>
					<v:textBlock v:margins="rect(4,4,4,4)"/>
					<v:textRect cx="58.7401" cy="152.991" width="117.49" height="28.5811"/>
					<rect x="0" y="138.7" width="117.48" height="28.5811" class="st7"/>
					<text x="10.34" y="158.39" class="st8" v:langID="1033"><v:paragraph v:horizAlign="1"/><v:tabList/>Dashboards</text>				</g>
			</g>
			<g id="group13014-50" transform="translate(358.658,-11.7947)" v:mID="13014" v:groupContext="group">
				<v:userDefs>
					<v:ud v:nameU="visNavOrder" v:prompt="" v:val="VT0(4523000):26"/>
				</v:userDefs>
				<title>Sheet.13014</title>
				<g id="shape13015-51" v:mID="13015" v:groupContext="shape">
					<title>Sheet.13015</title>
					<desc>Grafana*</desc>
					<v:textBlock v:margins="rect(4,4,4,4)"/>
					<v:textRect cx="46.9967" cy="152.991" width="94" height="28.5811"/>
					<rect x="0" y="138.7" width="93.9935" height="28.5811" class="st7"/>
					<text x="11.04" y="158.39" class="st8" v:langID="1033"><v:paragraph v:horizAlign="1"/><v:tabList/>Grafana<tspan
								class="st13">*</tspan></text>				</g>
				<g id="group13016-55" transform="translate(24.356,-31.8016)" v:mID="13016" v:groupContext="group">
					<title>Sheet.13016</title>
					<g id="shape13017-56" v:mID="13017" v:groupContext="shape">
						<title>Sheet.13017</title>
						<path d="M45.2 139.8 C45.12 138.97 44.98 138.02 44.71 136.96 C44.44 135.92 44.03 134.77 43.44 133.57 C42.84
									 132.38 42.07 131.15 41.07 129.94 C40.67 129.47 40.24 129.01 39.78 128.56 C40.47 125.81 38.94
									 123.42 38.94 123.42 C36.3 123.26 34.61 124.25 33.99 124.7 C33.88 124.66 33.79 124.6 33.68 124.56
									 C33.23 124.39 32.77 124.21 32.28 124.06 C31.81 123.91 31.32 123.78 30.82 123.65 C30.32 123.53
									 29.82 123.44 29.3 123.36 C29.21 123.34 29.13 123.33 29.03 123.31 C27.88 119.63 24.57 118.08
									 24.57 118.08 C20.87 120.43 20.18 123.71 20.18 123.71 C20.18 123.71 20.17 123.78 20.14 123.9
									 C19.94 123.95 19.73 124.02 19.53 124.07 C19.25 124.15 18.96 124.26 18.69 124.37 C18.41 124.48
									 18.13 124.59 17.85 124.71 C17.29 124.95 16.74 125.23 16.2 125.52 C15.67 125.82 15.15 126.15
									 14.65 126.49 L14.52 126.43 C9.39 124.48 4.85 126.82 4.85 126.82 C4.43 132.27 6.9 135.7 7.39
									 136.33 C7.26 136.66 7.16 137 7.05 137.34 C6.67 138.58 6.38 139.84 6.21 141.15 C6.18 141.34 6.15
									 141.53 6.14 141.72 C1.4 144.06 0 148.85 0 148.85 C3.94 153.39 8.55 153.67 8.55 153.67 L8.57
									 153.66 C9.15 154.7 9.83 155.69 10.59 156.63 C10.91 157.02 11.24 157.39 11.59 157.75 C10.15 161.87
									 11.79 165.29 11.79 165.29 C16.18 165.45 19.07 163.36 19.68 162.89 C20.11 163.04 20.56 163.17
									 21.01 163.28 C22.36 163.64 23.75 163.84 25.13 163.89 C25.47 163.91 25.82 163.92 26.16 163.91
									 L26.65 163.91 L26.86 163.89 L26.86 163.91 C28.94 166.86 32.57 167.28 32.57 167.28 C35.16 164.56
									 35.31 161.85 35.31 161.26 L35.31 161.22 L35.31 161.14 L35.31 161.02 C35.85 160.64 36.36 160.23
									 36.85 159.79 C37.88 158.85 38.79 157.78 39.55 156.63 L39.75 156.3 C42.68 156.47 44.75 154.49
									 44.75 154.49 C44.26 151.44 42.53 149.95 42.16 149.66 C41.8 149.38 42.15 149.65 42.12 149.63
									 C42.1 149.62 42.1 149.61 42.1 149.61 C42.08 149.59 42.06 149.58 42.03 149.57 C42.04 149.38 42.06
									 149.2 42.07 149.01 C42.1 148.69 42.1 148.35 42.1 148.02 L42.1 147.59 L42.1 147.51 L42.08 147.3
									 L42.07 147.03 C42.07 146.94 42.06 146.86 42.04 146.78 C42.03 146.69 42.03 146.6 42.02 146.52
									 L41.99 146.26 L41.95 146 C41.89 145.66 41.84 145.34 41.76 145 C41.45 143.69 40.93 142.44 40.27
									 141.31 C39.59 140.19 38.75 139.2 37.79 138.36 C36.84 137.52 35.77 136.84 34.66 136.34 C33.53
									 135.84 32.37 135.51 31.2 135.36 C30.62 135.28 30.03 135.25 29.45 135.27 L29.02 135.27 L28.8
									 135.28 C28.72 135.28 28.64 135.3 28.57 135.3 C28.27 135.32 27.97 135.36 27.69 135.42 C26.52
									 135.63 25.43 136.05 24.46 136.64 C23.5 137.22 22.66 137.94 21.98 138.75 C21.31 139.56 20.78
									 140.47 20.41 141.41 C20.05 142.34 19.84 143.32 19.79 144.25 C19.77 144.48 19.77 144.73 19.77
									 144.96 L19.77 145.14 L19.79 145.33 C19.8 145.43 19.8 145.56 19.81 145.66 C19.86 146.14 19.95
									 146.6 20.07 147.03 C20.33 147.91 20.74 148.71 21.24 149.39 C21.74 150.07 22.35 150.62 22.99
									 151.07 C23.62 151.51 24.31 151.82 24.99 152.02 C25.67 152.22 26.35 152.3 26.98 152.3 L27.34
									 152.3 C27.38 152.3 27.42 152.3 27.46 152.29 C27.53 152.29 27.59 152.28 27.66 152.28 C27.68 152.28
									 27.7 152.28 27.72 152.26 L27.78 152.25 C27.82 152.25 27.87 152.24 27.91 152.24 C27.99 152.22
									 28.06 152.21 28.14 152.2 C28.22 152.18 28.29 152.17 28.35 152.14 C28.5 152.12 28.64 152.06 28.77
									 152.02 C29.04 151.93 29.32 151.82 29.55 151.7 C29.79 151.57 30.01 151.42 30.22 151.29 C30.28
									 151.25 30.35 151.21 30.4 151.15 C30.62 150.98 30.66 150.65 30.48 150.43 C30.33 150.24 30.06
									 150.19 29.84 150.31 L29.68 150.39 C29.49 150.49 29.3 150.57 29.1 150.64 C28.9 150.71 28.68 150.76
									 28.46 150.8 C28.35 150.81 28.24 150.83 28.12 150.84 C28.07 150.84 28.01 150.85 27.95 150.85
									 L27.62 150.85 C27.55 150.85 27.49 150.85 27.42 150.84 L27.34 150.84 C27.31 150.84 27.27 150.84
									 27.24 150.83 C27.17 150.81 27.12 150.81 27.05 150.8 C26.55 150.73 26.05 150.58 25.57 150.37
									 C25.09 150.15 24.63 149.85 24.21 149.47 C23.79 149.09 23.42 148.65 23.14 148.13 C22.85 147.62
									 22.65 147.05 22.55 146.45 C22.51 146.15 22.48 145.84 22.5 145.54 C22.5 145.46 22.51 145.38 22.51
									 145.3 L22.51 145.19 C22.51 145.15 22.53 145.11 22.53 145.07 C22.54 144.9 22.57 144.74 22.59
									 144.58 C22.82 143.28 23.47 142 24.48 141.04 C24.73 140.8 25.01 140.58 25.29 140.38 C25.57 140.17
									 25.89 140 26.21 139.85 C26.54 139.7 26.86 139.58 27.21 139.48 C27.55 139.39 27.91 139.33 28.27
									 139.29 C28.45 139.28 28.62 139.27 28.81 139.27 L29.23 139.27 L29.38 139.28 C29.78 139.31 30.16
									 139.36 30.54 139.46 C31.29 139.62 32.04 139.9 32.73 140.28 C34.11 141.06 35.29 142.25 36.01
									 143.69 C36.38 144.4 36.63 145.18 36.76 145.98 C36.78 146.18 36.81 146.38 36.82 146.59 L36.84
									 146.73 L36.85 146.88 L36.85 147.47 C36.85 147.56 36.84 147.72 36.84 147.82 C36.82 148.04 36.8
									 148.27 36.77 148.48 C36.74 148.7 36.7 148.92 36.66 149.13 C36.62 149.35 36.57 149.57 36.51 149.77
									 C36.4 150.19 36.27 150.61 36.11 151.03 C35.78 151.84 35.35 152.63 34.83 153.35 C33.79 154.79
									 32.37 155.95 30.74 156.7 C29.93 157.06 29.07 157.33 28.19 157.47 C27.76 157.55 27.31 157.59
									 26.86 157.6 L26.18 157.6 C25.94 157.6 25.71 157.59 25.47 157.56 C24.52 157.5 23.58 157.32 22.66
									 157.06 C21.75 156.8 20.87 156.44 20.03 156 C18.36 155.11 16.86 153.89 15.69 152.41 C15.11 151.68
									 14.6 150.88 14.18 150.06 C13.76 149.23 13.42 148.35 13.17 147.47 C12.93 146.57 12.78 145.66
									 12.71 144.74 L12.7 144.57 L12.7 143.79 L12.7 143.7 L12.7 143.36 C12.71 142.91 12.75 142.44 12.81
									 141.98 C12.86 141.52 12.94 141.04 13.04 140.58 C13.13 140.12 13.24 139.66 13.38 139.2 C13.63
									 138.29 13.96 137.41 14.34 136.58 C15.11 134.93 16.11 133.45 17.32 132.27 C17.62 131.98 17.93
									 131.7 18.26 131.43 C18.58 131.18 18.92 130.93 19.27 130.7 C19.61 130.47 19.98 130.27 20.34 130.08
									 C20.52 129.98 20.71 129.89 20.9 129.81 L21.18 129.68 L21.47 129.56 C21.85 129.4 22.24 129.26
									 22.65 129.14 C22.74 129.12 22.85 129.09 22.95 129.05 C23.04 129.02 23.15 128.99 23.24 128.97
									 C23.45 128.91 23.65 128.86 23.85 128.82 C23.95 128.79 24.06 128.78 24.17 128.75 C24.27 128.72
									 24.37 128.71 24.48 128.68 C24.59 128.67 24.68 128.64 24.79 128.63 L24.94 128.6 L25.1 128.57
									 C25.21 128.56 25.3 128.55 25.41 128.53 C25.53 128.52 25.64 128.51 25.76 128.49 C25.86 128.48
									 26.02 128.46 26.12 128.45 C26.18 128.44 26.27 128.44 26.33 128.42 L26.48 128.41 L26.55 128.4
									 L26.63 128.4 C26.75 128.38 26.86 128.38 26.98 128.37 L27.16 128.36 L27.3 128.36 C27.39 128.36
									 27.5 128.34 27.59 128.34 C27.99 128.33 28.39 128.33 28.79 128.34 C29.57 128.37 30.35 128.46
									 31.09 128.6 C32.6 128.88 34.01 129.36 35.29 130 C36.58 130.62 37.72 131.39 38.72 132.23 C38.79
									 132.29 38.84 132.34 38.91 132.4 C38.97 132.45 39.03 132.5 39.09 132.56 C39.21 132.67 39.32 132.77
									 39.44 132.88 C39.56 132.99 39.67 133.1 39.78 133.21 C39.89 133.32 40 133.43 40.1 133.55 C40.52
									 133.99 40.92 134.44 41.27 134.9 C41.97 135.81 42.54 136.73 42.99 137.6 L43.07 137.76 L43.15
									 137.92 C43.21 138.03 43.26 138.14 43.3 138.25 C43.36 138.36 43.4 138.45 43.45 138.56 C43.49
									 138.67 43.55 138.77 43.59 138.87 C43.75 139.28 43.91 139.67 44.03 140.04 C44.24 140.64 44.39
									 141.16 44.51 141.62 C44.55 141.81 44.73 141.94 44.92 141.91 C45.12 141.9 45.27 141.73 45.27
									 141.53 C45.28 141.04 45.27 140.46 45.2 139.8 Z" class="st14"/>
					</g>
				</g>
			</g>
			<g id="group13018-60" transform="translate(250.432,-11.7947)" v:mID="13018" v:groupContext="group">
				<v:userDefs>
					<v:ud v:nameU="visNavOrder" v:prompt="" v:val="VT0(4524000):26"/>
				</v:userDefs>
				<title>Sheet.13018</title>
				<g id="group13019-61" transform="translate(28.7155,-32.25)" v:mID="13019" v:groupContext="group">
					<title>Sheet.13019</title>
					<g id="group13020-62" v:mID="13020" v:groupContext="group">
						<title>Sheet.13020</title>
						<g id="shape13021-63" v:mID="13021" v:groupContext="shape" transform="translate(19.8047,0)">
							<title>Sheet.13021</title>
							<path d="M16.76 120.57 L16.76 165.25 C16.76 166.37 15.85 167.28 14.72 167.28 L2.03 167.28 C0.91 167.28
										 0 166.37 0 165.25 L0 120.57 C0 119.44 0.91 118.53 2.03 118.53 L14.72 118.53 C15.85 118.53
										 16.76 119.44 16.76 120.57 Z" class="st15"/>
						</g>
						<g id="shape13022-67" v:mID="13022" v:groupContext="shape" transform="translate(9.90233,0)">
							<title>Sheet.13022</title>
							<path d="M16.76 132.75 L16.76 167.28 L0 167.28 L0 132.75 C0 131.63 0.91 130.72 2.03 130.72 L14.73 130.72
										 C15.85 130.72 16.76 131.63 16.76 132.75 Z" class="st16"/>
						</g>
						<g id="shape13023-71" v:mID="13023" v:groupContext="shape">
							<title>Sheet.13023</title>
							<path d="M0 144.94 L0 165.25 C0 166.37 0.91 167.28 2.03 167.28 L16.76 167.28 L16.76 144.94 C16.76 143.82
										 15.85 142.91 14.73 142.91 L2.03 142.91 C0.91 142.91 0 143.82 0 144.94 Z" class="st17"/>
						</g>
					</g>
				</g>
				<g id="shape13024-75" v:mID="13024" v:groupContext="shape">
					<title>Sheet.13024</title>
					<desc>Power BI*</desc>
					<v:textBlock v:margins="rect(4,4,4,4)"/>
					<v:textRect cx="46.9967" cy="152.991" width="94" height="28.5811"/>
					<rect x="0" y="138.7" width="93.9935" height="28.5811" class="st7"/>
					<text x="7" y="158.39" class="st8" v:langID="1033"><v:paragraph v:horizAlign="1"/><v:tabList/>Power BI<tspan
								class="st13">*</tspan></text>				</g>
			</g>
		</g>
	</g>
</svg>
