<svg xmlns="http://www.w3.org/2000/svg" xmlns:xlink="http://www.w3.org/1999/xlink" width="2142.624" height="1061.664" viewBox="0 0 1607 796.264" color-interpolation-filters="sRGB" fill="none" fill-rule="evenodd" font-size="12" overflow="visible" stroke-linecap="square" stroke-miterlimit="3" xmlns:v="https://vecta.io/nano"><style><![CDATA[.AI{fill:#000}.AJ{font-family:Segoe UI Semibold}.AK{font-weight:bold}.AL{font-size:1.5em}.AM{stroke-linejoin:round}.AN{fill:#fff}.AO{font-size:1em}.AP{fill:url(#G)}.AQ{fill:#341a6e}.AR{fill:#c3f1ff}.AS{fill:#9cebff}.AT{stroke-width:2.25}.AU{fill:#50e6ff}.AV{stroke:#a5a5a5}.AW{font-size:2.50001em}.AX{fill:#e6e6e6}.AY{stroke:#d8d8d8}.AZ{font-size:1.75001em}.Aa{stroke-linecap:round}.Ab{fill:#0078d4}.Ac{marker-end:url(#Y)}]]></style><defs><linearGradient id="A" x1="0" y1="1" x2="0" y2="0"><stop offset="0" stop-color="#0078d4"/><stop offset=".82" stop-color="#5ea0ef"/></linearGradient><linearGradient id="B" x1="0" y1="1" x2="0" y2="0"><stop offset=".15" stop-color="#ccc"/><stop offset="1" stop-color="#707070"/></linearGradient><linearGradient id="C" x1="0" y1="1" x2="0" y2="0"><stop offset="0" stop-color="#5e9624"/><stop offset=".18" stop-color="#629c25"/><stop offset=".44" stop-color="#6dae2a"/><stop offset=".73" stop-color="#7fcb30"/><stop offset=".82" stop-color="#86d633"/></linearGradient><radialGradient id="D" cx=".5" cy=".5" r=".73"><stop offset="0" stop-color="#b77af4"/><stop offset=".21" stop-color="#b378f2"/><stop offset=".43" stop-color="#a672ed"/><stop offset=".65" stop-color="#9267e4"/><stop offset=".88" stop-color="#7559d8"/><stop offset="1" stop-color="#624fd0"/></radialGradient><linearGradient id="E" x1=".995" y1="-.005" x2="1.005" y2=".995"><stop offset="0" stop-color="#f2f2f2"/><stop offset=".23" stop-color="#f1f1f2"/><stop offset=".37" stop-color="#ededf1"/><stop offset=".48" stop-color="#e7e5f0"/><stop offset=".58" stop-color="#dedbee"/><stop offset=".67" stop-color="#d3ceeb"/><stop offset=".76" stop-color="#c4bee8"/><stop offset=".84" stop-color="#b4abe5"/><stop offset=".92" stop-color="#a095e1"/><stop offset=".99" stop-color="#8b7ddc"/><stop offset="1" stop-color="#897bdc"/></linearGradient><radialGradient id="F" cx="1" cy="0" r="1.4"><stop offset="0" stop-color="#5ea0ef"/><stop offset=".28" stop-color="#5b9fee"/><stop offset=".47" stop-color="#529bec"/><stop offset=".64" stop-color="#4394e7"/><stop offset=".79" stop-color="#2d8be1"/><stop offset=".93" stop-color="#117fd9"/><stop offset="1" stop-color="#0078d4"/></radialGradient><linearGradient id="G" x1="0" y1="0" x2="1" y2="0"><stop offset="0" stop-color="#b77af4"/><stop offset="1" stop-color="#773adc"/></linearGradient><linearGradient id="H" x1="0" y1="1" x2="0" y2="0"><stop offset="0" stop-color="#773adc"/><stop offset="1" stop-color="#b77af4"/></linearGradient><linearGradient id="I" x1="-.045" y1=".951" x2=".049" y2="-.045"><stop offset="0" stop-color="#5e9624"/><stop offset=".82" stop-color="#86d633"/></linearGradient><linearGradient id="J" x1="-.005" y1=".994" x2=".006" y2="-.005"><stop offset="0" stop-color="#5e9624"/><stop offset=".82" stop-color="#86d633"/></linearGradient><linearGradient id="K" x1="-.043" y1=".952" x2=".048" y2="-.043"><stop offset="0" stop-color="#5e9624"/><stop offset=".82" stop-color="#86d633"/></linearGradient><linearGradient id="L" x1="0" y1="1" x2="0" y2="0"><stop offset="0" stop-color="#1988d9"/><stop offset=".9" stop-color="#54aef0"/></linearGradient><linearGradient id="M" x1="0" y1="1" x2="0" y2="0"><stop offset="0" stop-color="#198ab3"/><stop offset=".01" stop-color="#198bb4"/><stop offset=".44" stop-color="#27b2d7"/><stop offset=".79" stop-color="#2fcbed"/><stop offset="1" stop-color="#32d4f5"/></linearGradient><linearGradient id="N" x1=".335" y1="1.188" x2="-.188" y2=".335"><stop offset="0" stop-color="#0078d4"/><stop offset="1" stop-color="#289bf2"/></linearGradient><linearGradient id="O" x1=".747" y1="-.163" x2="1.163" y2=".747"><stop offset="0" stop-color="#00ccf9"/><stop offset="1" stop-color="#0095e6"/></linearGradient><linearGradient id="P" x1=".861" y1="-.108" x2="1.108" y2=".861"><stop offset="0" stop-color="#7cecff"/><stop offset="1" stop-color="#50e6ff"/></linearGradient><linearGradient id="Q" x1="1" y1="0" x2="1" y2="1"><stop offset="0" stop-color="#6cc6b9"/><stop offset=".46" stop-color="#6ac4b7"/><stop offset=".64" stop-color="#62bdb0"/><stop offset=".77" stop-color="#56b1a4"/><stop offset="1" stop-color="#258277"/></linearGradient><linearGradient id="R" x1="1" y1="0" x2="1" y2="1"><stop offset="0" stop-color="#f05a28"/><stop offset="1" stop-color="#fbca0a"/></linearGradient><linearGradient id="S" x1=".401" y1="-.2" x2="1.2" y2=".401"><stop offset="0" stop-color="#e6ad10"/><stop offset="1" stop-color="#c87e0e"/></linearGradient><linearGradient id="T" x1=".469" y1="-.206" x2="1.206" y2=".469"><stop offset="0" stop-color="#f6d751"/><stop offset="1" stop-color="#e6ad10"/></linearGradient><linearGradient id="U" x1=".674" y1="-.185" x2="1.185" y2=".674"><stop offset="0" stop-color="#f9e589"/><stop offset="1" stop-color="#f6d751"/></linearGradient><path id="V" d="M297.8 716.747c0 .493.4.892.893.893l24.757-.003c.493 0 .892-.4.893-.893l-.003-15.927c0-.493-.4-.892-.893-.893l-24.757.003c-.493 0-.892.4-.893.893l.003 15.927z"/><path id="W" d="M99.897 731.616c0 .357.29.647.647.647l4.663-.007c.357 0 .647-.29.647-.647l.003-10.163c0-.357-.29-.647-.647-.647l-4.663-.003c-.357 0-.647.29-.647.647l-.003 10.173z"/><path d="M2 1L0 0l2-1" fill="none" id="X" class="AM Aa"/><marker id="Y" orient="auto" markerUnits="strokeWidth" overflow="visible" fill="#a5a5a5" fill-opacity="1" class="AV"><use xlink:href="#X" transform="scale(-2.26)" stroke-opacity="1" stroke-width=".442"/></marker></defs><path d="M.25.375h1606.5v795.639H.25z" stroke="#fff" stroke-width=".5" class="AM AN"/><text x="627.208" y="392.287" class="AI AJ AK AW">Data Platform</text><path d="M214.418 387.17h403.33" stroke-width="2" class="AM AV Aa Ac"/><text x="37.61" y="776.07" transform="translate(261.904 -395.589)" class="AI AJ AK AW">Data Collection<tspan x="72.72" dy="1.2em" class="AO">&amp; Routing</tspan></text><path d="M830.75 387.17h106" stroke-width="2" class="AM AV Aa Ac"/><text x="22.274" y="392.287" class="AI AJ AK AW">Data Sources</text><text x="1131.34" y="38.564" class="AI AJ AK AW">Consumption</text><g transform="translate(978.49 -91.796)"><rect y="665.869" width="481.5" height="130.395" rx="9" class="AM AT AX AY"/><text x="15.55" y="689.26" class="AI AJ AZ">Respond</text><text x="291.057" y="764.037" class="AI AJ AK AL">Autoscale</text><use xlink:href="#V" fill="#005ba1"/><path d="M315.493 706.195v5.17l-4.41 2.57v-5.14l4.41-2.6z" class="AU"/><path d="M315.496 706.2l-4.41 2.59-4.44-2.59 4.44-2.6 4.41 2.6z" class="AR"/><path d="M311.086 708.795v5.14l-4.44-2.57v-5.17l4.44 2.6z" class="AS"/><use xlink:href="#V" x="10.421" y="10.158" class="Ab"/><path d="M325.914 716.38v5.15l-4.41 2.59v-5.17l4.41-2.57z" class="AU"/><path d="M325.918 716.379l-4.41 2.57-4.44-2.57 4.44-2.6 4.41 2.6z" class="AR"/><path d="M321.508 718.95v5.17l-4.44-2.59v-5.15l4.44 2.57z" class="AS"/><path d="M315.886 736.775c0 .493.4.892.893.893l24.757-.003c.493 0 .892-.4.893-.893l-.003-15.927c0-.493-.4-.892-.893-.893l-24.757.003c-.493 0-.892.4-.893.893l.003 15.927z" fill="url(#A)"/><path d="M333.579 726.251v5.15l-4.41 2.59v-5.17l4.41-2.57z" class="AU"/><path d="M333.583 726.255l-4.41 2.59-4.44-2.59 4.44-2.6 4.41 2.6z" class="AR"/><path d="M329.173 728.851v5.14l-4.44-2.59v-5.15l4.44 2.6z" class="AS"/><path d="M324.733 731.401l4.44-2.58v5.17l-4.44-2.59z" class="AR"/><path d="M333.579 731.401l-4.41-2.58v5.17l4.41-2.59z" class="AS"/><path d="M334.469 743.053c-2.62-.42-2.62-2.31-2.62-5.25h-5.25c0 3.04 0 4.93-2.63 5.25a1.55 1.55 0 0 0-1.31 1.49h13.13a1.55 1.55 0 0 0-1.32-1.49z" fill="url(#B)"/><g transform="translate(128.493 -23.57)"><text x="10.27" y="788.5" transform="translate(-7.29 -3.319)" class="AI AJ AK AL">Alerts and<tspan x="21.37" dy="1.2em" class="AO">Actions</tspan></text><path d="M36 767.56v22.93a1.23 1.23 0 0 1-1.23 1.23H25.2c-.167 0-.306.129-.318.296l-.002 3.704c.006.228-.119.44-.323.544s-.449.082-.63-.057l-5.757-4.427h-.19H1.23A1.23 1.23 0 0 1 0 790.55v-22.99a1.23 1.23 0 0 1 1.23-1.25h33.54a1.23 1.23 0 0 1 1.23 1.25z" fill="url(#C)" transform="translate(23.39 -39.902)"/><path d="M42.529 742.748h-2.45a.76.76 0 0 1-.805-.72l-.425-12.41a.74.74 0 0 1 .741-.762l3.599.002a.74.74 0 0 1 .741.784l-.651 12.416a.74.74 0 0 1-.741.699zm-2.981 4.385a1.29 1.29 0 0 0 1.29 1.29h1a1.29 1.29 0 0 0 1.29-1.29v-.99a1.29 1.29 0 0 0-1.29-1.29h-1a1.29 1.29 0 0 0-1.29 1.29v.99z" class="AN"/></g></g><rect x="978.49" y="120.664" width="481.5" height="130.395" rx="9" class="AM AT AX AY"/><text x="994.04" y="144.055" class="AI AJ AZ">Insights</text><path d="M1045.657 201.348l2.01-2.32v-6.18h-10.05v6.18l2.02 2.32c.12.154.288.258.473.293l4.967-.003c.22-.009.428-.115.572-.293z" fill="#cecece"/><path d="M1042.59 156.357c-4.206-.045-8.226 1.848-11.039 5.197s-4.146 7.83-3.661 12.303c.67 6.58 6.52 9.64 8.18 17.98.127.585.61 1.001 1.17 1.01h10.7c.56-.009 1.043-.425 1.17-1.01 1.67-8.34 7.46-11.4 8.18-17.98.485-4.474-.848-8.955-3.661-12.303s-6.833-5.241-11.039-5.197z" fill="url(#D)"/><path d="M1048.709 165.117c-1.912.077-3.408 1.792-3.35 3.84v2.05h-5.25v-2.05c.021-1.011-.339-1.989-1-2.711s-1.565-1.13-2.51-1.129c-1.916.071-3.418 1.788-3.36 3.84-.055 2.054 1.442 3.774 3.36 3.86h1.59v15.99c.001.529.402.957.896.957s.895-.428.896-.957l-.001-15.99h5.38v15.99c-.001.343.17.66.447.832s.619.172.897 0 .448-.489.447-.832l-.001-15.99h1.56c.924-.034 1.797-.46 2.427-1.184s.966-1.687.933-2.676c.058-2.052-1.444-3.769-3.36-3.84zm-10.52 5.89h-1.69c-.986-.086-1.733-.991-1.69-2.05-.043-1.059.704-1.964 1.69-2.05.986.086 1.733.991 1.69 2.05v2.05zm10.65 0h-1.69v-2.16c-.093-.701.205-1.396.762-1.778a1.6 1.6 0 0 1 1.827 0c.557.382.854 1.077.762 1.778a2.04 2.04 0 0 1-.402 1.457c-.313.407-.767.661-1.258.703z" fill="url(#E)"/><path d="M1037.517 197.109l10.15-2.1v-1.2l-10.15 2.13v1.17zm10.15.834v-1.18l-10.15 2.16v.11l.77.9 9.38-1.99z" fill="#999"/><text x="995.422" y="222.735" class="AI AJ AK AL">Application</text><text x="1284.106" y="224.092" class="AI AJ AK AL">Network</text><path d="M1300.491 199.018c.615.612 1.577.644 2.15.071l7.637-7.637c.573-.573.541-1.534-.071-2.15l-.141-.141c-.615-.612-1.577-.644-2.15-.071l-7.637 7.637c-.573.573-.541 1.534.071 2.15l.141.141z" fill="#198ab3"/><path d="M1338.433 166.971c-.454-1.198-1.042-2.333-1.75-3.38-2.321-3.308-5.776-5.493-9.602-6.072s-7.711.493-10.798 2.982l-.14.12c-2.533 2.085-4.348 5.011-5.16 8.32 0 .55-.23 1.1-.3 1.65-.701 5.048.946 10.145 4.41 13.65a5.02 5.02 0 0 0 .51.5l.52.45c.683.571 1.417 1.07 2.19 1.49l.23.15.4.18.33.17.35.15.37.15.33.13.46.15h.26l.68.2.74.17h.19a4.14 4.14 0 0 0 .58 0h3.55c.601-.075 1.196-.198 1.78-.37 1.871-.538 3.623-1.473 5.15-2.75a15.41 15.41 0 0 0 2.64-2.82c3.127-4.337 3.915-10.106 2.08-15.22zm-3.39-2.33h-2.84c-.477-1.489-1.172-2.886-2.06-4.14 1.96.902 3.672 2.327 4.97 4.14h-.07zm-9.12-4.99c2.003.942 3.533 2.759 4.2 4.99h-4.2v-4.99zm0 7.09h4.83c.447 1.722.705 3.494.77 5.28h-5.6v-5.28zm0 7.27h5.6c-.063 1.793-.322 3.571-.77 5.3h-4.76v-5.4l-.07.1zm-7.28-3.57a23.21 23.21 0 0 1 .65-3.8h4.83v5.28h-5.58c.03-.5.05-1 .1-1.48zm5.48-10.89v4.99h-4.18c.652-2.234 2.177-4.054 4.18-4.99zm-6.84 2.64c.8-.629 1.662-1.162 2.57-1.59-.88 1.268-1.572 2.675-2.05 4.17h-2.71a13.9 13.9 0 0 1 2.19-2.58zm-3.47 4.45h3.61a24.23 24.23 0 0 0-.56 3.35c0 .63-.11 1.28-.11 1.93h-4.34a17.16 17.16 0 0 1 .35-1.88c.222-1.174.574-2.316 1.05-3.4zm-1.4 7.27h4.27c.056 1.791.304 3.57.74 5.3h-3.61c-.804-1.644-1.281-3.449-1.4-5.3zm2.68 7.35h2.82a15.17 15.17 0 0 0 2.06 4.15c-1.93-.916-3.61-2.344-4.88-4.15zm9.08 5c-2.005-.938-3.53-2.763-4.18-5h4.18v5zm0-7.1h-4.88a24.61 24.61 0 0 1-.75-5.3h5.58v5.35l.05-.05zm3.57 6.05a4.6 4.6 0 0 1-1.71 1.05v-5h4.21c-.565 1.518-1.435 2.884-2.55 4l.05-.05zm5.09-1.62c-.825.685-1.729 1.253-2.69 1.69.888-1.254 1.583-2.651 2.06-4.14h2.91a12.97 12.97 0 0 1-2.28 2.45zm3.45-4.45h-3.5c.392-1.738.62-3.513.68-5.3h4.22a13.89 13.89 0 0 1-1.4 5.37v-.07zm-2.82-7.22a28.36 28.36 0 0 0-.68-5.28h3.52c.791 1.642 1.267 3.438 1.4 5.28h-4.24z" fill="url(#F)"/><ellipse cx="1313.601" cy="183.436" rx="9.428" ry="10.096" class="AU"/><ellipse cx="1313.576" cy="183.261" rx="7.397" ry="7.922" class="AN"/><path d="M1309.77 183.441l1.87 4.64 1.89-5.97 1.56 3.4 1.94-3.5h3.01a9.44 9.44 0 0 0-.28-1.17h-3.24l-1.26 2.27-1.94-3.95-1.8 5.68-1.63-4.03-2.01 3.93h-1.07c.081.401.199.793.35 1.17h1.35l1.26-2.47z" fill="#76bc2d"/><text x="1210.579" y="223.637" class="AI AJ AK AL">VM</text><path d="M1204.707 186.33c.003.785.597 1.419 1.33 1.42h37.28c.733-.001 1.327-.635 1.33-1.42v-25.66a1.48 1.48 0 0 0-.388-1.01 1.29 1.29 0 0 0-.942-.42h-37.28a1.29 1.29 0 0 0-.942.42 1.48 1.48 0 0 0-.388 1.01v25.66z" fill="url(#A)"/><path d="M1231.336 169.34v8.29l-6.66 4.18v-8.31l6.66-4.16z" class="AU"/><path d="M1231.33 169.338l-6.65 4.18-6.66-4.18 6.66-4.16 6.65 4.16z" class="AR"/><path d="M1224.68 173.52v8.29l-6.66-4.18v-8.29l6.66 4.18z" class="AS"/><path d="M1218.02 177.63l6.66-4.13v8.31l-6.66-4.18z" class="AR"/><path d="M1231.336 177.63l-6.66-4.13v8.31l6.66-4.18z" class="AS"/><path d="M1232.681 196.381c-3.95-.67-4.1-3.71-4.1-8.63h-7.83c0 4.92-.14 7.96-4.09 8.63-1.125.136-1.974 1.157-1.97 2.37h19.97c.004-1.216-.851-2.239-1.98-2.37z" fill="url(#B)"/><g class="AI"><ellipse cx="1374.55" cy="188.541" rx="3.85" ry="4.123"/><ellipse cx="1388.866" cy="188.541" rx="3.85" ry="4.123"/><ellipse cx="1402.796" cy="188.541" rx="3.85" ry="4.123"/><text x="1100.902" y="223.582" class="AJ AK AL">Container</text></g><path d="M1131.004 157.793l-7.12 1.42v10.4l7.12 1.62 7.15-3.06v-7.76l-7.15-2.62z" class="AP"/><path d="M1123.884 159.213v10.4l7.2 1.62v-13.33l-7.2 1.31zm3.04 9.6l-2.02-.43v-8l2.02-.35v8.78zm3.14.61l-2.32-.4v-9.15l2.32-.42v9.97z" class="AQ"/><path d="M1146.421 157.926l-7.12 1.42v10.4l7.12 1.62 7.13-3.09v-7.73l-7.13-2.62z" class="AP"/><path d="M1139.301 159.346v10.4l7.15 1.62v-13.33l-7.15 1.31zm3.01 9.6l-2.01-.43v-8l2.01-.35v8.78zm3.14.61l-2.31-.4v-9.15l2.31-.45v10z" class="AQ"/><path d="M1123.707 172.141l-7.12 1.42v10.4l7.12 1.62 7.15-3.06v-7.76l-7.15-2.62z" class="AP"/><path d="M1116.562 173.561v10.32l7.2 1.62v-13.33l-7.2 1.39zm3.01 9.62l-2.01-.45v-8l2.01-.37v8.82zm3.17.7l-2.32-.4v-9.26l2.32-.42v10.08z" class="AQ"/><path d="M1139.074 172.041l-7.12 1.41v10.4l7.12 1.65 7.13-3.09v-7.76l-7.13-2.61z" class="AP"/><path d="M1131.954 173.451v10.43l7.17 1.62v-13.33l-7.17 1.28zm3.01 9.63l-2.01-.46v-8l2.01-.37v8.83zm3.14.58l-2.31-.4v-9.14l2.31-.43v9.97z" class="AQ"/><path d="M1154.441 172.168l-7.12 1.42v10.4l7.12 1.62 7.15-3.06v-7.76l-7.15-2.62z" class="AP"/><path d="M1147.321 173.581v10.3l7.2 1.62v-13.33l-7.2 1.41zm3.04 9.63l-2.02-.45v-8l2.02-.38v8.83zm3.14.59l-2.32-.4v-9.15l2.32-.43v9.98z" class="AQ"/><path d="M1130.83 186.65l-7.12 1.39v10.4l7.12 1.65 7.15-3.09v-7.73l-7.15-2.62z" class="AP"/><path d="M1123.71 188.04v10.4l7.2 1.65v-13.54l-7.2 1.49zm3.04 9.63l-2.02-.46v-8l2.02-.37v8.83zm3.14.61l-2.32-.4v-9.17l2.32-.43v10z" class="AQ"/><path d="M1146.222 186.757l-7.12 1.42v10.4l7.12 1.62 7.15-3.06v-7.76l-7.15-2.62z" class="AP"/><path d="M1139.102 188.177v10.4l7.2 1.62v-13.33l-7.2 1.31zm3.04 9.62l-2.02-.45v-8l2.02-.37v8.82zm3.14.59l-2.32-.4v-9.15l2.32-.42v9.97z" class="AQ"/><g transform="translate(978.49 -242.407)"><rect y="665.869" width="481.5" height="130.395" rx="9" class="AM AT AX AY"/><text x="15.55" y="689.26" class="AI AJ AZ">Analyze</text><text x="39.55" y="791.05" transform="translate(33.188 -31.253)" class="AI AJ AK AL">Metric <tspan x="32.05" dy="1.2em" class="AO">Explorer</tspan></text><path d="M111.333 695.57l-9.22 16.4-9.75-9.93-10.05 13.03 2.36 1.85 7.97-10.28 10.12 10.32 11.18-19.89-2.61-1.5z" fill="#b796f9"/><g fill="url(#H)"><ellipse cx="92.48" cy="704.324" rx="3.789" ry="3.813"/><ellipse cx="102.762" cy="713.774" rx="3.789" ry="3.813"/><ellipse cx="112.305" cy="696.791" rx="3.789" ry="3.813"/><ellipse cx="83.884" cy="715.438" rx="3.789" ry="3.813"/></g><path d="M90.401 731.616c0 .357.29.647.647.647l4.663-.007c.357 0 .647-.29.647-.647l.003-16.213c0-.357-.29-.647-.647-.647l-4.663-.003c-.357 0-.647.29-.647.647l-.003 16.223z" class="Ab"/><g fill="#005ba1"><use xlink:href="#W"/><path d="M109.394 731.616c0 .357.29.647.647.647l4.663-.007c.357 0 .647-.29.647-.647l.003-22.083c0-.357-.29-.647-.647-.647l-4.663-.003c-.357 0-.647.29-.647.647l-.003 22.093z"/></g><use xlink:href="#W" x="-18.993" fill="#5ea0ef"/><g transform="translate(321.674 -30.634)"><text x="45.28" y="791.05" class="AI AJ AK AL">Change <tspan x="43.23" dy="1.2em" class="AO">Analysis</tspan></text><g transform="translate(52.046 -29.061)"><path d="M5.946 793.553l-3.02-2.67 14.76-16.53 12.56 12.94 11.85-12.57 2.94 2.77-14.76 15.64-12.45-12.88-11.88 13.3z" fill="#76bc2d"/><circle cx="17.746" cy="777.339" r="4.843" fill="url(#I)"/><circle cx="30.253" cy="789.814" r="4.843" fill="url(#J)"/><circle cx="43.577" cy="775.686" r="4.843" fill="url(#K)"/><circle cx="4.843" cy="791.421" r="4.843" fill="url(#K)"/><path d="M38.967 770.079l-9.06 9.17-9.14-9.17a12.68 12.68 0 0 1-.25-17.93l.25-.24c2.363-2.414 5.588-3.79 8.966-3.825s6.631 1.272 9.044 3.635l.19.19a12.74 12.74 0 0 1 .15 18.01l-.15.16z" class="Ab"/><path d="M22.103 758.466a8.2 8.2 0 0 0 .83 6.39c.401.673.9 1.283 1.48 1.81.559.528 1.188.975 1.87 1.33a9.42 9.42 0 0 0 2.17.74 7.69 7.69 0 0 0 2.34 0l-.2-2.22c-.029-.229-.217-.404-.447-.416a5.52 5.52 0 0 1-1.193-.004c-.501-.109-.988-.277-1.45-.5a5.54 5.54 0 0 1-1.28-.89 5.2 5.2 0 0 1-1.01-1.25c-.381-.614-.623-1.303-.71-2.02-.131-.707-.131-1.433 0-2.14l.77 1.28c.178.157.445.157.624 0l1.046-.27c.203-.138.267-.409.148-.624l-2.568-4.186a.47.47 0 0 0-.57-.285l-4.33 2.565c-.157.178-.157.445 0 .624l.53.926c.129.213.402.291.624.177l1.326-1.037zm8.99-3.18c.51.093 1.003.265 1.46.51.951.463 1.745 1.197 2.28 2.11.375.627.617 1.325.71 2.05a5.9 5.9 0 0 1 0 2.16l-.74-1.27c-.125-.217-.396-.301-.621-.191l-.919.571c-.219.113-.306.382-.194.601l-.006.019 2.59 4.31c.114.216.38.301.598.191l.022-.001 4.3-2.59c.171-.173.171-.451 0-.624l-.53-.916a.48.48 0 0 0-.624 0l-1.486.89c.3-1.063.379-2.176.23-3.27a7.65 7.65 0 0 0-1.06-3.14 7.9 7.9 0 0 0-1.46-1.84 9.27 9.27 0 0 0-1.9-1.3 7.84 7.84 0 0 0-2.17-.74 7.88 7.88 0 0 0-1.84-.29c-.251.03-.434.252-.416.504l.006 1.756a.48.48 0 0 0 .447.416 5.13 5.13 0 0 1 1.323.084z" class="AN"/></g></g><g transform="translate(169.916 -31.64)"><text x="61.06" y="791.05" class="AI AJ AK AL">Log <tspan x="39.62" dy="1.2em" class="AO">Analytics</tspan></text><path d="M14.44 783.89h12.38v12.37H14.44v-12.37zM1.72 796.26h10.66v-12.37H0v10.65a1.72 1.72 0 0 0 1.72 1.72zM0 781.94h12.38v-12.49H0v12.49z" fill="url(#L)" transform="translate(63.907 -28.943)"/><path d="M95.283 718.905c4.561-.048 8.947 1.752 12.159 4.991s4.976 7.639 4.891 12.199c.044 4.534-1.738 8.896-4.945 12.102s-7.57 4.985-12.105 4.938h-17.05v-17.19c-.044-4.534 1.738-8.896 4.945-12.102s7.57-4.985 12.105-4.938z" fill="url(#M)"/><path d="M84.078 733.512h3.897v11.69h-3.897zm7.793 3.897h3.897v7.793h-3.897zm7.793-7.793h3.897v15.586h-3.897z" class="AN"/></g></g><g transform="translate(978.49 -393.806)"><rect y="665.869" width="481.5" height="130.395" rx="9" class="AM AT AX AY"/><text x="15.55" y="689.26" class="AI AJ AZ">Visualize</text><g transform="translate(15.903 -11.795)"><path d="M16.96 765.02L0 781.98v10.71c.001 1.971 1.599 3.569 3.57 3.57h32.14c1.971-.001 3.569-1.599 3.57-3.57v-32.14c-.001-1.971-1.599-3.569-3.57-3.57h-1.79l-12.49 12.5-4.47-4.46z" fill="url(#N)" transform="translate(27.356 -37.786)"/><path d="M44.318 737.944l-15.68 15.69c-.913.704-1.254 1.924-.84 3a3.57 3.57 0 0 0 3.13 1.84h32.14c1.971-.001 3.569-1.599 3.57-3.57v-30.35l-17.86 17.85-4.46-4.46z" fill="url(#O)"/><path d="M48.786 731.691l12.49-12.49h-30.35c-1.971.001-3.569 1.599-3.57 3.57v21.42l16.96-16.96 4.47 4.46z" fill="url(#P)"/><text x="3.129" y="787.37" class="AI AJ AK AL">Workbooks</text></g><g transform="translate(138.499 -11.795)"><g transform="translate(20.559 -36)"><path d="M1.61 758.88h49.68a1.522 1.522 0 0 1 1.58 1.43v34.52a1.522 1.522 0 0 1-1.58 1.43H1.61A1.551 1.551 0 0 1 0 794.83v-34.46a1.554 1.554 0 0 1 1.61-1.49h0z" fill="url(#Q)"/><g class="AN"><path d="M36.598 790.516a.43.43 0 0 0 .432.432l3.638-.002a.43.43 0 0 0 .432-.432l-.002-26.598a.43.43 0 0 0-.432-.432l-3.638.002a.43.43 0 0 0-.432.432l.002 26.598z" fill-opacity=".9"/><path d="M4.782 790.518c0 .258.209.467.467.467l24.243-.007c.258 0 .467-.209.467-.467l.003-4.753c0-.258-.209-.467-.467-.467l-24.243-.003c-.258 0-.467.209-.467.467l-.003 4.763z" fill-opacity=".6"/><path d="M43.499 790.616c0 .183.149.332.332.332l3.838-.002c.183 0 .332-.149.332-.332l-.002-15.558c0-.183-.149-.332-.332-.332l-3.838.002c-.183 0-.332.149-.332.332l.002 15.558z" fill-opacity=".9"/><path d="M26.785 765.146l-6.26 11.14-6.62-6.74-6.82 8.84 1.6 1.25 5.41-6.97 6.87 7 7.59-13.5-1.77-1.02z"/><ellipse cx="13.985" cy="771.093" rx="2.573" ry="2.588"/><ellipse cx="20.962" cy="777.508" rx="2.573" ry="2.588"/><ellipse cx="27.439" cy="765.981" rx="2.573" ry="2.588"/><ellipse cx="8.151" cy="778.636" rx="2.573" ry="2.588"/></g></g><text x="-1.403" y="787.37" class="AI AJ AK AL">Dashboards</text></g><text x="11.04" y="787.37" transform="translate(358.658 -11.795)" class="AI AJ AK AL">Grafana<tspan fill="#7f7f7f" class="AO">*</tspan></text><path d="M428.214 725.183a18.32 18.32 0 0 0-.49-2.83c-.27-1.05-.68-2.2-1.27-3.39-.6-1.2-1.37-2.43-2.37-3.64l-1.29-1.38c.69-2.75-.84-5.13-.84-5.13-2.64-.17-4.33.82-4.95 1.27-.11-.04-.2-.1-.31-.14l-1.4-.5-1.46-.4c-.5-.13-1-.22-1.52-.3-.09-.02-.17-.03-.27-.04-1.15-3.69-4.46-5.23-4.46-5.23-3.7 2.34-4.39 5.62-4.39 5.62s-.01.07-.04.19l-.61.18c-.28.08-.57.19-.84.29l-.84.34-1.65.82c-.53.29-1.05.62-1.55.96l-.13-.06c-5.13-1.95-9.67.4-9.67.4-.42 5.45 2.05 8.88 2.54 9.5l-.34 1.01c-.38 1.24-.67 2.5-.84 3.81l-.07.57c-4.74 2.35-6.14 7.13-6.14 7.13 3.94 4.54 8.55 4.83 8.55 4.83l.02-.02a19.92 19.92 0 0 0 2.02 2.97l1 1.13c-1.44 4.12.2 7.53.2 7.53 4.39.16 7.28-1.92 7.89-2.4l1.33.4c1.35.35 2.74.55 4.12.61l1.03.01h.49l.21-.01v.01c2.08 2.95 5.71 3.37 5.71 3.37 2.59-2.72 2.74-5.43 2.74-6.01v-.04-.09-.12a15.09 15.09 0 0 0 1.54-1.23c1.03-.94 1.94-2.01 2.7-3.16l.2-.32c2.93.16 5-1.82 5-1.82-.49-3.05-2.22-4.54-2.59-4.83-.36-.28-.01-.01-.04-.02-.02-.02-.02-.03-.02-.03-.02-.01-.04-.03-.07-.04l.04-.56c.03-.32.03-.66.03-.99v-.43-.08l-.02-.2-.01-.27a1.03 1.03 0 0 0-.03-.26l-.02-.26-.03-.26-.04-.25-.19-1.01a13.35 13.35 0 0 0-1.49-3.68c-.68-1.13-1.52-2.12-2.48-2.96a12.49 12.49 0 0 0-3.13-2.02 12.44 12.44 0 0 0-3.46-.97c-.58-.09-1.17-.11-1.75-.1h-.43l-.22.01c-.08 0-.16.02-.23.02l-.88.12c-1.17.22-2.26.64-3.23 1.22-.96.58-1.8 1.3-2.48 2.11-.67.82-1.2 1.73-1.57 2.66-.36.94-.57 1.91-.62 2.85-.02.23-.02.47-.02.7v.18l.02.19.02.34a8.73 8.73 0 0 0 .26 1.37 7.5 7.5 0 0 0 1.17 2.35 7.31 7.31 0 0 0 1.75 1.68 6.9 6.9 0 0 0 2 .95c.68.21 1.36.29 1.99.29h.36c.04 0 .08 0 .12-.02.07 0 .13-.01.2-.01.02 0 .04 0 .06-.01l.06-.02c.04 0 .09-.01.13-.01l.23-.04a1.08 1.08 0 0 0 .21-.05c.15-.03.29-.09.42-.13.27-.09.55-.2.78-.32.24-.12.46-.27.67-.41.06-.04.13-.08.18-.13.22-.18.26-.51.08-.72-.15-.19-.42-.25-.64-.12l-.16.08c-.19.09-.38.17-.58.24s-.42.12-.64.16a3.52 3.52 0 0 1-.34.04c-.05 0-.11.02-.17.02h-.33c-.07 0-.13 0-.2-.02h-.08c-.03 0-.07 0-.1-.01-.07-.01-.12-.01-.19-.03-.5-.06-1-.21-1.48-.43a5.59 5.59 0 0 1-1.36-.89c-.42-.38-.79-.83-1.07-1.35-.29-.51-.49-1.08-.59-1.68-.04-.3-.07-.61-.05-.91l.01-.24v-.11c0-.04.02-.08.02-.12.01-.16.04-.32.06-.49a6.52 6.52 0 0 1 1.89-3.54c.25-.24.53-.46.81-.66a5.95 5.95 0 0 1 .92-.53c.33-.15.65-.27 1-.36.34-.1.7-.15 1.06-.19.18-.02.35-.03.54-.03h.42l.15.01c.4.03.78.08 1.16.18.75.16 1.5.45 2.19.83 1.38.77 2.56 1.96 3.28 3.4a7.7 7.7 0 0 1 .75 2.29l.06.61.02.15.01.15v.58l-.01.35-.07.67-.11.65-.15.63a12.23 12.23 0 0 1-.4 1.26 10.94 10.94 0 0 1-1.28 2.32c-1.04 1.44-2.46 2.6-4.09 3.35-.81.36-1.67.64-2.55.77-.43.08-.88.12-1.33.14h-.68c-.24 0-.47-.02-.71-.04-.95-.07-1.89-.25-2.81-.51-.91-.25-1.79-.62-2.63-1.05-1.67-.9-3.17-2.12-4.34-3.59a14.74 14.74 0 0 1-1.51-2.36c-.42-.83-.76-1.71-1.01-2.59a14.87 14.87 0 0 1-.46-2.72l-.01-.18v-.77-.1-.34c.01-.44.05-.92.11-1.38a13.61 13.61 0 0 1 .23-1.4l.34-1.38c.25-.91.58-1.79.96-2.61.77-1.66 1.77-3.13 2.98-4.31.3-.3.61-.57.94-.84a12.47 12.47 0 0 1 1.01-.74c.34-.23.71-.43 1.07-.62l.56-.27.28-.12.29-.12c.38-.17.77-.3 1.18-.42l.3-.1c.09-.03.2-.05.29-.08l.61-.15c.1-.03.21-.04.32-.07l.31-.07c.11-.01.2-.04.31-.05l.15-.03.16-.02c.11-.02.2-.03.31-.04l.35-.05.36-.04c.06-.01.15-.01.21-.02l.15-.02.07-.01h.08l.35-.03.18-.01h.14l.29-.01c.4-.02.8-.02 1.2 0 .78.02 1.56.12 2.3.25 1.51.29 2.92.76 4.2 1.4 1.29.62 2.43 1.4 3.43 2.24.07.05.12.1.19.16l.18.16.35.33c.12.1.23.21.34.32l.32.34 1.17 1.36a17.98 17.98 0 0 1 1.72 2.69l.08.17.08.16a2.3 2.3 0 0 1 .15.32l.15.31c.04.11.1.21.14.32l.44 1.16.48 1.59c.04.19.22.31.41.28.2-.01.35-.17.35-.38.01-.49 0-1.07-.07-1.73z" fill="url(#R)"/><g transform="translate(250.432 -11.795)"><path d="M65.281 717.3v44.68c0 1.12-.91 2.03-2.04 2.03h-12.69a2.03 2.03 0 0 1-2.03-2.03V717.3c0-1.13.91-2.04 2.03-2.04h12.69c1.13 0 2.04.91 2.04 2.04z" fill="url(#S)"/><path d="M55.378 729.48v34.53h-16.76v-34.53a2.03 2.03 0 0 1 2.03-2.03h12.7a2.03 2.03 0 0 1 2.03 2.03z" fill="url(#T)"/><path d="M0 773.92v20.31a2.03 2.03 0 0 0 2.03 2.03h14.73v-22.34a2.03 2.03 0 0 0-2.03-2.03H2.03A2.03 2.03 0 0 0 0 773.92z" fill="url(#U)" transform="translate(28.716 -32.25)"/><text x="7" y="787.37" class="AI AJ AK AL">Power BI<tspan fill="#7f7f7f" class="AO">*</tspan></text></g></g><path d="M0 191.83c8.47 0 15.33 8.29 15.33 18.51v567.42c0 10.22-6.86 18.5-15.33 18.5" stroke-linecap="butt" transform="matrix(-1 0 0 -1 960.315 907.928)" class="AT AV"/><g class="AN"><path d="M961.51 100.848h515.007v160.031H961.51zm0 306h515.007v156.937H961.51z" fill-opacity=".78"/><path d="M961.51 563.786h515.007v151.031H961.51z" fill-opacity=".78"/></g></svg>