<?xml version="1.0" encoding="utf-8"?>
<!-- Generator: Adobe Illustrator 27.5.0, SVG Export Plug-In . SVG Version: 6.00 Build 0)  -->
<svg version="1.1" xmlns="http://www.w3.org/2000/svg" xmlns:xlink="http://www.w3.org/1999/xlink" x="0px" y="0px"
	 viewBox="0 0 646.701 373.799" enable-background="new 0 0 646.701 373.799" xml:space="preserve">
<symbol  id="PIPELINE" viewBox="-32 -12.266 64 24.531">
	<linearGradient id="SVGID_1_" gradientUnits="userSpaceOnUse" x1="0" y1="-12.2655" x2="1.502093e-15" y2="12.2655">
		<stop  offset="0" style="stop-color:#1B89B2"/>
		<stop  offset="1" style="stop-color:#51C8E8"/>
	</linearGradient>
	<path fill="url(#SVGID_1_)" d="M26.096,12.266h-51.448v0h0C-29.08,12.265-32,6.878-32,0s2.92-12.265,6.648-12.265h0v0h51.448
		C29.356-12.266,32-6.363,32,0S29.356,12.266,26.096,12.266z"/>
	<g>
		
			<linearGradient id="SVGID_00000127765951710954199800000013475266018620069310_" gradientUnits="userSpaceOnUse" x1="-31.461" y1="-6.1136" x2="-19.2338" y2="6.1136">
			<stop  offset="0" style="stop-color:#B3B4B4"/>
			<stop  offset="1" style="stop-color:#4F4F4F"/>
		</linearGradient>
		<ellipse fill="url(#SVGID_00000127765951710954199800000013475266018620069310_)" cx="-25.347" cy="0" rx="5.575" ry="10.879"/>
	</g>
</symbol>
<g id="Shapes">
	<rect fill="#FFFFFF" width="646.701" height="373.799"/>
	<g id="Wrench_tool_x28_s_x29_">
	</g>
	<g id="user2">
	</g>
	<g id="user2_1_">
	</g>
	<g id="user2_4_">
	</g>
	<g id="user2_3_">
	</g>
	<g id="user2_2_">
	</g>
	<g id="Internet_2">
	</g>
	<g id="Enterprise">
	</g>
	<g id="Tunnel__x28_stackable_x29_">
	</g>
	<g id="New_Symbol">
	</g>
	<g id="New_Symbol_1">
	</g>
	<g id="Files">
	</g>
	<g id="BlobBlock">
	</g>
	<g id="E_x5F_Enterprise">
	</g>
	<g id="E_x5F_AD_FS">
	</g>
	<g id="C_x5F_Azure_Active_Directory">
	</g>
	<g>
		<g>
			
				<linearGradient id="SVGID_00000177459290882714461810000017734949044747484803_" gradientUnits="userSpaceOnUse" x1="-489.2686" y1="1806.2942" x2="-489.2686" y2="1849.5894" gradientTransform="matrix(1 0 0 -1 564 2109.9978)">
				<stop  offset="0" style="stop-color:#0078D4"/>
				<stop  offset="0.82" style="stop-color:#5EA0EF"/>
			</linearGradient>
			<path fill="url(#SVGID_00000177459290882714461810000017734949044747484803_)" d="M44.425,260.408h60.613
				c1.196,0,2.165,0.969,2.165,2.165v38.966c0,1.196-0.969,2.165-2.165,2.165H44.425c-1.196,0-2.165-0.969-2.165-2.165v-38.966
				C42.26,261.378,43.229,260.408,44.425,260.408z"/>
			
				<linearGradient id="SVGID_00000085944443482764664140000003268007824413918856_" gradientUnits="userSpaceOnUse" x1="-489.2686" y1="1789.5894" x2="-489.2686" y2="1806.2942" gradientTransform="matrix(1 0 0 -1 564 2109.9978)">
				<stop  offset="0.15" style="stop-color:#CCCCCC"/>
				<stop  offset="1" style="stop-color:#707070"/>
			</linearGradient>
			<path fill="url(#SVGID_00000085944443482764664140000003268007824413918856_)" d="M87.756,316.8
				c-6.422-1.01-6.675-5.628-6.675-13.097H68.345c0,7.468-0.216,12.087-6.639,13.097c-1.836,0.203-3.222,1.761-3.211,3.608h32.471
				C90.978,318.561,89.592,317.004,87.756,316.8z"/>
		</g>
		<g>
			
				<linearGradient id="SVGID_00000135651704535751306430000017008840992203310732_" gradientUnits="userSpaceOnUse" x1="-461.5865" y1="1814.3005" x2="-461.5865" y2="1784.1449" gradientTransform="matrix(1 0 0 -1 564 2109.9978)">
				<stop  offset="0.22" style="stop-color:#32D4F5"/>
				<stop  offset="1" style="stop-color:#198AB3"/>
			</linearGradient>
			<path fill="url(#SVGID_00000135651704535751306430000017008840992203310732_)" d="M117.348,320.408
				c1.78,0,3.222-1.443,3.222-3.222l0,0c0.023-0.125,0.023-0.253,0-0.378c-1.289-10.156-7.044-18.422-18.156-18.422
				s-17.022,7-18.156,18.444c-0.193,1.781,1.096,3.382,2.877,3.574c0.011,0.001,0.023,0.002,0.034,0.004H117.348z"/>
			<path opacity="0.8" fill="#FFFFFF" enable-background="new    " d="M102.414,300.786c-1.955-0.002-3.867-0.565-5.511-1.622
				l5.511,14.267l5.422-14.178C106.212,300.27,104.331,300.802,102.414,300.786z"/>
			
				<linearGradient id="SVGID_00000029746405073253996730000000403096895082031746_" gradientUnits="userSpaceOnUse" x1="-462.4527" y1="1830.4783" x2="-460.2527" y2="1803.1005" gradientTransform="matrix(1 0 0 -1 564 2109.9978)">
				<stop  offset="0.22" style="stop-color:#32D4F5"/>
				<stop  offset="1" style="stop-color:#198AB3"/>
			</linearGradient>
			<circle fill="url(#SVGID_00000029746405073253996730000000403096895082031746_)" cx="102.437" cy="290.586" r="10.178"/>
		</g>
	</g>
	<g>
		<g>
			<g opacity="0.3">
				<rect x="402.196" y="255.545" fill="#212121" width="31.958" height="30"/>
				<rect x="402.196" y="255.545" opacity="0.6" fill="#212121" width="31.958" height="30"/>
			</g>
			<g>
				<rect x="401.196" y="254.545" fill="#FFFFFF" width="31.958" height="30"/>
				<rect x="401.196" y="254.545" opacity="0.6" fill="#CCCCCB" width="31.958" height="30"/>
			</g>
		</g>
		<g>
			<path fill="#212121" d="M422.29,279.004l0.001-6.138c-1.401,1.124-3.18,1.796-5.116,1.796c-1.935,0-3.713-0.672-5.114-1.794
				l0.002,6.137c0,0.622,0.701,0.985,1.209,0.627l3.904-2.749l3.906,2.749C421.59,279.989,422.29,279.626,422.29,279.004z
				 M424.335,266.478c0-3.955-3.206-7.16-7.16-7.16s-7.16,3.206-7.16,7.16s3.206,7.16,7.16,7.16S424.335,270.433,424.335,266.478z
				 M417.409,263.044l0.934,1.895l2.091,0.302c0.214,0.031,0.3,0.294,0.145,0.445l-1.512,1.473l0.357,2.082
				c0.037,0.213-0.187,0.376-0.379,0.275l-1.869-0.984l-1.869,0.984c-0.191,0.101-0.415-0.062-0.379-0.275l0.359-2.082l-1.514-1.473
				c-0.155-0.151-0.07-0.414,0.145-0.445l2.091-0.302l0.934-1.895C417.037,262.85,417.313,262.85,417.409,263.044z"/>
		</g>
	</g>
	<g>
		<g>
			<g opacity="0.3">
				<rect x="514.023" y="170.129" fill="#212121" width="31.958" height="30"/>
				<rect x="514.023" y="170.129" opacity="0.6" fill="#212121" width="31.958" height="30"/>
			</g>
			<g>
				<rect x="513.023" y="169.129" fill="#FFFFFF" width="31.958" height="30"/>
				<rect x="513.023" y="169.129" opacity="0.6" fill="#CCCCCB" width="31.958" height="30"/>
			</g>
		</g>
		<g>
			<path fill="#212121" d="M534.117,193.588l0.001-6.138c-1.401,1.124-3.18,1.796-5.116,1.796c-1.935,0-3.713-0.672-5.114-1.794
				l0.002,6.137c0,0.622,0.701,0.985,1.209,0.627l3.904-2.749l3.906,2.749C533.417,194.573,534.117,194.21,534.117,193.588z
				 M536.162,181.062c0-3.955-3.206-7.16-7.16-7.16s-7.16,3.206-7.16,7.16c0,3.955,3.206,7.16,7.16,7.16
				S536.162,185.017,536.162,181.062z M529.236,177.628l0.933,1.895l2.091,0.302c0.214,0.031,0.3,0.294,0.145,0.445l-1.512,1.473
				l0.357,2.082c0.036,0.213-0.187,0.376-0.379,0.275l-1.869-0.984l-1.869,0.984c-0.191,0.101-0.415-0.062-0.379-0.275l0.359-2.082
				l-1.514-1.473c-0.155-0.151-0.07-0.414,0.145-0.445l2.091-0.302l0.933-1.895C528.864,177.434,529.14,177.434,529.236,177.628z"/>
		</g>
	</g>
	<g>
		
			<linearGradient id="SVGID_00000010994517173699826120000013415872706465188776_" gradientUnits="userSpaceOnUse" x1="-32.9801" y1="2094.3943" x2="-32.9801" y2="2034.3943" gradientTransform="matrix(1 0 0 -1 564 2109.9978)">
			<stop  offset="0" style="stop-color:#B3B2B3"/>
			<stop  offset="0.375" style="stop-color:#AFAEAF"/>
			<stop  offset="0.763" style="stop-color:#A2A2A2"/>
			<stop  offset="1" style="stop-color:#979797"/>
		</linearGradient>
		<path fill="url(#SVGID_00000010994517173699826120000013415872706465188776_)" d="M550.49,73.568
			c-0.063,1.18-1.066,2.088-2.247,2.033h-34.448c-1.18,0.055-2.184-0.853-2.247-2.033V17.639c0.063-1.177,1.061-2.084,2.239-2.033
			h34.448c1.18-0.055,2.184,0.853,2.247,2.033L550.49,73.568z"/>
		<path fill="#003067" d="M517.263,41.254c-0.121-2.461,1.774-4.555,4.235-4.68h19.384c2.461,0.125,4.356,2.219,4.235,4.68l0,0
			c0.121,2.461-1.774,4.555-4.235,4.68h-19.384C519.037,45.81,517.142,43.715,517.263,41.254z"/>
		<path fill="#003067" d="M517.263,27.397c-0.119-2.46,1.775-4.552,4.235-4.677h19.384c2.459,0.125,4.354,2.217,4.235,4.677l0,0
			c0.112,2.455-1.78,4.54-4.235,4.665h-19.384C519.043,31.937,517.151,29.852,517.263,27.397z"/>
		<circle fill="#50E6FF" cx="522.715" cy="27.397" r="3.13"/>
		<circle fill="#50E6FF" cx="522.715" cy="41.254" r="3.13"/>
	</g>
	<g>
		
			<linearGradient id="SVGID_00000152960409727427123310000013922440017867757460_" gradientUnits="userSpaceOnUse" x1="-32.1021" y1="1854.6412" x2="-32.1021" y2="1794.6412" gradientTransform="matrix(1 0 0 -1 564 2109.9978)">
			<stop  offset="0" style="stop-color:#B3B2B3"/>
			<stop  offset="0.375" style="stop-color:#AFAEAF"/>
			<stop  offset="0.763" style="stop-color:#A2A2A2"/>
			<stop  offset="1" style="stop-color:#979797"/>
		</linearGradient>
		<path fill="url(#SVGID_00000152960409727427123310000013922440017867757460_)" d="M551.368,313.321
			c-0.063,1.18-1.066,2.088-2.247,2.033h-34.448c-1.18,0.055-2.184-0.853-2.247-2.033v-55.929c0.063-1.177,1.062-2.084,2.239-2.033
			h34.448c1.18-0.055,2.184,0.853,2.247,2.033L551.368,313.321z"/>
		<path fill="#003067" d="M518.141,281.007c-0.121-2.461,1.774-4.555,4.235-4.68h19.384c2.461,0.125,4.356,2.219,4.235,4.68l0,0
			c0.121,2.461-1.774,4.555-4.235,4.68h-19.384C519.915,285.563,518.02,283.469,518.141,281.007z"/>
		<path fill="#003067" d="M518.141,267.15c-0.119-2.46,1.775-4.552,4.235-4.677h19.384c2.459,0.125,4.354,2.217,4.235,4.677l0,0
			c0.112,2.455-1.78,4.54-4.235,4.665h-19.384C519.921,271.69,518.029,269.605,518.141,267.15z"/>
		<circle fill="#50E6FF" cx="523.593" cy="267.15" r="3.13"/>
		<circle fill="#50E6FF" cx="523.593" cy="281.007" r="3.13"/>
	</g>
	<g>
		<path fill="#212121" d="M554.723,12.924c2.209,0,4,1.791,4,4v2h2.5c0.828,0,1.5,0.672,1.5,1.5v11c0,0.828-0.672,1.5-1.5,1.5h-13
			c-0.828,0-1.5-0.672-1.5-1.5v-11c0-0.828,0.672-1.5,1.5-1.5h2.5v-2C550.723,14.715,552.514,12.924,554.723,12.924z
			 M554.723,24.424c-0.828,0-1.5,0.672-1.5,1.5s0.672,1.5,1.5,1.5c0.828,0,1.5-0.672,1.5-1.5S555.551,24.424,554.723,24.424z
			 M554.723,14.924c-1.105,0-2,0.895-2,2v2h4v-2C556.723,15.82,555.827,14.924,554.723,14.924z"/>
	</g>
	<g>
		<path fill="#212121" d="M401.196,243.799c1.988,0,3.6,1.612,3.6,3.6v1.8h2.25c0.746,0,1.35,0.604,1.35,1.35v9.9
			c0,0.746-0.604,1.35-1.35,1.35h-11.7c-0.746,0-1.35-0.604-1.35-1.35v-9.9c0-0.746,0.604-1.35,1.35-1.35h2.25v-1.8
			C397.596,245.411,399.208,243.799,401.196,243.799z M401.196,254.149c-0.746,0-1.35,0.604-1.35,1.35c0,0.746,0.604,1.35,1.35,1.35
			c0.746,0,1.35-0.604,1.35-1.35C402.546,254.753,401.942,254.149,401.196,254.149z M401.196,245.599c-0.994,0-1.8,0.806-1.8,1.8
			v1.8h3.6v-1.8C402.996,246.405,402.19,245.599,401.196,245.599z"/>
	</g>
	<g>
		<path fill="#212121" d="M558.926,293.331c0-0.621,0.502-1.125,1.12-1.125h9.009c0.619,0,1.12,0.504,1.12,1.125
			c0,0.621-0.502,1.125-1.12,1.125h-9.009C559.428,294.456,558.926,293.953,558.926,293.331z M560.046,305.706
			c-0.619,0-1.12,0.504-1.12,1.125c0,0.621,0.502,1.125,1.12,1.125h9.009c0.619,0,1.12-0.504,1.12-1.125
			c0-0.621-0.502-1.125-1.12-1.125H560.046z M558.926,300.081c0-0.621,0.502-1.125,1.12-1.125h9.009c0.619,0,1.12,0.504,1.12,1.125
			c0,0.621-0.502,1.125-1.12,1.125h-9.009C559.428,301.206,558.926,300.703,558.926,300.081z M554.426,290.331
			c0-1.864,1.511-3.375,3.375-3.375h13.5c1.864,0,3.375,1.511,3.375,3.375v19.5c0,1.864-1.511,3.375-3.375,3.375h-13.5
			c-1.864,0-3.375-1.511-3.375-3.375V290.331z M556.682,290.216c-0.004,0.038-0.006,0.076-0.006,0.115v19.5
			c0,0.621,0.504,1.125,1.125,1.125h13.5c0.621,0,1.125-0.504,1.125-1.125v-19.5c0-0.621-0.504-1.125-1.125-1.125h-13.5
			C557.219,289.206,556.739,289.649,556.682,290.216z M561.552,316.956c-1.469,0-2.72-0.939-3.183-2.25h12.933
			c2.692,0,4.875-2.183,4.875-4.875v-12.47l1.262,1.261c0.633,0.633,0.988,1.491,0.988,2.387v8.822c0,3.935-3.19,7.125-7.125,7.125
			H561.552z"/>
	</g>
	<line fill="none" stroke="#212121" stroke-miterlimit="10" x1="112.453" y1="269.545" x2="397.972" y2="269.545"/>
	<line fill="none" stroke="#212121" stroke-miterlimit="10" x1="240.155" y1="306.987" x2="508.027" y2="306.987"/>
	<g>
		<g>
			<line fill="none" stroke="#3C3C41" stroke-miterlimit="10" x1="436.972" y1="269.545" x2="502.645" y2="269.545"/>
			<g>
				<polygon fill="#3C3C41" points="501.551,273.285 508.027,269.545 501.551,265.806 				"/>
			</g>
		</g>
	</g>
	<g>
		<g>
			<line fill="none" stroke="#3C3C41" stroke-miterlimit="10" x1="288.253" y1="31.603" x2="502.645" y2="31.603"/>
			<g>
				<polygon fill="#3C3C41" points="501.551,35.343 508.027,31.603 501.551,27.864 				"/>
			</g>
		</g>
	</g>
	<g>
		<g>
			<line fill="none" stroke="#3C3C41" stroke-miterlimit="10" x1="129.635" y1="305.625" x2="166.913" y2="305.625"/>
			<g>
				<polygon fill="#3C3C41" points="130.729,309.365 124.253,305.625 130.729,301.885 				"/>
			</g>
		</g>
	</g>
	<line fill="none" stroke="#212121" stroke-miterlimit="10" x1="530" y1="253.102" x2="530" y2="201.828"/>
	<g>
		<g>
			<line fill="none" stroke="#3C3C41" stroke-miterlimit="10" x1="530" y1="167.054" x2="530" y2="118.844"/>
			<g>
				<polygon fill="#3C3C41" points="533.74,119.938 530,113.462 526.26,119.938 				"/>
			</g>
		</g>
	</g>
	<g>
		<path fill="none" stroke="#3C3C41" stroke-miterlimit="10" d="M43.253,256.545V35.603c0-2.2,1.8-4,4-4h72.4"/>
	</g>
	<g>
		<path fill="none" stroke="#3C3C41" stroke-miterlimit="10" d="M71.845,150.288V54.496c0-2.2,1.8-4,4-4h432.182"/>
	</g>
	<g>
		<g>
			<line fill="none" stroke="#3C3C41" stroke-miterlimit="10" x1="71.845" y1="251.163" x2="71.845" y2="220.566"/>
			<g>
				<polygon fill="#3C3C41" points="75.585,250.069 71.845,256.545 68.105,250.069 				"/>
			</g>
		</g>
	</g>
	<g>
		<g>
			<g opacity="0.3">
				<rect x="57.695" y="154.765" fill="#212121" width="31.958" height="30"/>
				<rect x="57.695" y="154.765" opacity="0.6" fill="#212121" width="31.958" height="30"/>
			</g>
			<g>
				<rect x="56.695" y="153.765" fill="#FFFFFF" width="31.958" height="30"/>
				<rect x="56.695" y="153.765" opacity="0.6" fill="#CCCCCB" width="31.958" height="30"/>
			</g>
		</g>
		<g>
			<path fill="#212121" d="M77.79,178.224l0.001-6.138c-1.401,1.124-3.18,1.796-5.116,1.796c-1.935,0-3.713-0.672-5.114-1.794
				l0.002,6.137c0,0.622,0.701,0.985,1.209,0.627l3.904-2.749l3.906,2.749C77.089,179.209,77.79,178.846,77.79,178.224z
				 M79.835,165.698c0-3.955-3.206-7.16-7.16-7.16c-3.955,0-7.16,3.206-7.16,7.16s3.206,7.16,7.16,7.16
				C76.629,172.859,79.835,169.653,79.835,165.698z M72.908,162.264l0.934,1.895l2.091,0.302c0.214,0.031,0.3,0.294,0.145,0.445
				l-1.512,1.473l0.357,2.082c0.037,0.213-0.187,0.376-0.379,0.275l-1.869-0.984l-1.869,0.984c-0.191,0.101-0.415-0.062-0.379-0.275
				l0.359-2.082l-1.514-1.473c-0.155-0.151-0.07-0.414,0.145-0.445l2.091-0.302l0.934-1.895
				C72.536,162.07,72.813,162.07,72.908,162.264z"/>
		</g>
	</g>
	<g>
		<path fill="none" stroke="#3C3C41" stroke-miterlimit="10" d="M104.9,93.581V71.515c0-2.2,1.8-4,4-4h399.128"/>
	</g>
	<g>
		<g>
			<line fill="none" stroke="#3C3C41" stroke-miterlimit="10" x1="104.9" y1="251.163" x2="104.9" y2="132.896"/>
			<g>
				<polygon fill="#3C3C41" points="108.64,250.069 104.9,256.545 101.16,250.069 				"/>
			</g>
		</g>
	</g>
	<g>
		<g>
			<g opacity="0.3">
				<rect x="90.75" y="98.219" fill="#212121" width="31.958" height="30"/>
				<rect x="90.75" y="98.219" opacity="0.6" fill="#212121" width="31.958" height="30"/>
			</g>
			<g>
				<rect x="89.75" y="97.219" fill="#FFFFFF" width="31.958" height="30"/>
				<rect x="89.75" y="97.219" opacity="0.6" fill="#CCCCCB" width="31.958" height="30"/>
			</g>
		</g>
		<g>
			<path fill="#212121" d="M110.844,121.678l0.001-6.138c-1.401,1.124-3.18,1.796-5.116,1.796c-1.935,0-3.713-0.672-5.114-1.794
				l0.002,6.137c0,0.622,0.701,0.985,1.209,0.627l3.904-2.749l3.906,2.749C110.144,122.663,110.844,122.3,110.844,121.678z
				 M112.889,109.152c0-3.955-3.206-7.16-7.16-7.16c-3.955,0-7.16,3.206-7.16,7.16c0,3.955,3.206,7.16,7.16,7.16
				C109.683,116.313,112.889,113.107,112.889,109.152z M105.963,105.718l0.934,1.895l2.091,0.302c0.214,0.031,0.3,0.294,0.145,0.445
				l-1.512,1.473l0.357,2.082c0.037,0.213-0.187,0.376-0.379,0.275l-1.869-0.984l-1.869,0.984c-0.191,0.101-0.415-0.062-0.379-0.275
				l0.359-2.082l-1.514-1.473c-0.155-0.151-0.07-0.414,0.145-0.445l2.091-0.302l0.934-1.895
				C105.591,105.524,105.867,105.524,105.963,105.718z"/>
		</g>
	</g>
	<g>
		<circle fill="#0078D4" cx="512.015" cy="168.482" r="9"/>
		<path fill="#FFFFFF" d="M507.012,168.809c-0.083-0.089-0.126-0.206-0.121-0.327c0.004-0.123,0.056-0.235,0.146-0.32l0.939-0.868
			c0.085-0.078,0.195-0.12,0.308-0.12c0.126,0,0.247,0.053,0.333,0.145l2.403,2.579l4.283-5.484
			c0.087-0.111,0.217-0.177,0.359-0.177c0.101,0,0.197,0.033,0.278,0.095l1.019,0.786c0.195,0.144,0.236,0.424,0.09,0.623
			l-5.477,7.012c-0.213,0.272-0.619,0.29-0.855,0.037L507.012,168.809z"/>
	</g>
</g>
<g id="Text">
	<g>
		<path fill="#2F2F2F" d="M29.424,342.999h-2.406l-0.697-2.181h-3.486l-0.69,2.181h-2.393l3.568-9.803h2.618L29.424,342.999z
			 M25.815,339.123l-1.053-3.295c-0.078-0.246-0.132-0.54-0.164-0.882h-0.055c-0.023,0.287-0.08,0.572-0.171,0.854l-1.066,3.322
			H25.815z"/>
		<path fill="#2F2F2F" d="M32.608,342.185H32.58v4.033h-2.16v-10.22h2.16v1.053h0.027c0.533-0.816,1.283-1.224,2.249-1.224
			c0.907,0,1.607,0.311,2.102,0.933s0.742,1.469,0.742,2.54c0,1.167-0.288,2.103-0.865,2.81s-1.343,1.06-2.3,1.06
			C33.692,343.17,33.05,342.842,32.608,342.185z M32.546,339.314v0.561c0,0.483,0.127,0.877,0.383,1.183s0.59,0.458,1.005,0.458
			c0.492,0,0.874-0.19,1.145-0.571s0.407-0.919,0.407-1.617c0-1.23-0.479-1.846-1.436-1.846c-0.442,0-0.803,0.167-1.083,0.502
			S32.546,338.763,32.546,339.314z"/>
		<path fill="#2F2F2F" d="M41.305,342.185h-0.027v4.033h-2.16v-10.22h2.16v1.053h0.027c0.533-0.816,1.283-1.224,2.249-1.224
			c0.907,0,1.607,0.311,2.102,0.933s0.742,1.469,0.742,2.54c0,1.167-0.288,2.103-0.865,2.81s-1.343,1.06-2.3,1.06
			C42.389,343.17,41.747,342.842,41.305,342.185z M41.243,339.314v0.561c0,0.483,0.127,0.877,0.383,1.183s0.59,0.458,1.005,0.458
			c0.492,0,0.874-0.19,1.145-0.571s0.407-0.919,0.407-1.617c0-1.23-0.479-1.846-1.436-1.846c-0.442,0-0.803,0.167-1.083,0.502
			S41.243,338.763,41.243,339.314z"/>
		<path fill="#2F2F2F" d="M49.987,342.999h-2.16v-10.363h2.16V342.999z"/>
		<path fill="#2F2F2F" d="M52.856,334.891c-0.365,0-0.663-0.108-0.896-0.325s-0.349-0.482-0.349-0.796
			c0-0.324,0.116-0.588,0.349-0.793s0.531-0.308,0.896-0.308c0.369,0,0.669,0.103,0.899,0.308s0.345,0.469,0.345,0.793
			c0,0.328-0.115,0.597-0.345,0.807S53.225,334.891,52.856,334.891z M53.922,342.999h-2.16v-7h2.16V342.999z"/>
		<path fill="#2F2F2F" d="M61.002,342.746c-0.488,0.283-1.192,0.424-2.112,0.424c-1.076,0-1.946-0.326-2.611-0.978
			s-0.998-1.493-0.998-2.522c0-1.189,0.356-2.127,1.07-2.813s1.667-1.029,2.861-1.029c0.825,0,1.422,0.109,1.791,0.328v1.832
			c-0.451-0.337-0.955-0.506-1.511-0.506c-0.62,0-1.111,0.181-1.473,0.543s-0.543,0.862-0.543,1.5c0,0.62,0.173,1.106,0.52,1.459
			s0.823,0.53,1.429,0.53c0.538,0,1.064-0.168,1.579-0.506V342.746z"/>
		<path fill="#2F2F2F" d="M68.338,342.999h-2.044v-1.005h-0.027c-0.469,0.784-1.165,1.176-2.085,1.176
			c-0.679,0-1.213-0.192-1.603-0.578s-0.584-0.899-0.584-1.542c0-1.358,0.804-2.142,2.413-2.352l1.9-0.253
			c0-0.766-0.415-1.148-1.244-1.148c-0.834,0-1.627,0.249-2.379,0.745v-1.627c0.301-0.155,0.712-0.292,1.234-0.41
			c0.522-0.119,0.997-0.178,1.425-0.178c1.996,0,2.994,0.996,2.994,2.987V342.999z M66.307,340.155v-0.472l-1.271,0.164
			c-0.702,0.091-1.053,0.408-1.053,0.95c0,0.246,0.085,0.448,0.256,0.605s0.402,0.236,0.694,0.236c0.406,0,0.736-0.14,0.991-0.42
			S66.307,340.583,66.307,340.155z"/>
		<path fill="#2F2F2F" d="M74.166,342.917c-0.319,0.168-0.8,0.253-1.442,0.253c-1.522,0-2.283-0.791-2.283-2.372v-3.206h-1.135
			v-1.593h1.135v-1.511l2.153-0.615v2.126h1.572v1.593h-1.572v2.83c0,0.729,0.29,1.094,0.868,1.094c0.228,0,0.462-0.066,0.704-0.198
			V342.917z"/>
		<path fill="#2F2F2F" d="M76.544,334.891c-0.365,0-0.663-0.108-0.896-0.325s-0.349-0.482-0.349-0.796
			c0-0.324,0.116-0.588,0.349-0.793s0.531-0.308,0.896-0.308c0.369,0,0.669,0.103,0.899,0.308s0.345,0.469,0.345,0.793
			c0,0.328-0.115,0.597-0.345,0.807S76.913,334.891,76.544,334.891z M77.611,342.999h-2.16v-7h2.16V342.999z"/>
		<path fill="#2F2F2F" d="M82.721,343.17c-1.167,0-2.084-0.327-2.751-0.981s-1.001-1.542-1.001-2.663
			c0-1.158,0.346-2.063,1.039-2.717s1.629-0.981,2.81-0.981c1.162,0,2.074,0.327,2.734,0.981s0.991,1.519,0.991,2.594
			c0,1.162-0.341,2.081-1.022,2.755S83.906,343.17,82.721,343.17z M82.776,337.482c-0.51,0-0.907,0.175-1.189,0.526
			s-0.424,0.848-0.424,1.49c0,1.344,0.542,2.017,1.627,2.017c1.035,0,1.552-0.69,1.552-2.071
			C84.342,338.136,83.82,337.482,82.776,337.482z"/>
		<path fill="#2F2F2F" d="M94.684,342.999h-2.153v-3.89c0-1.084-0.387-1.627-1.162-1.627c-0.374,0-0.681,0.144-0.923,0.431
			s-0.362,0.652-0.362,1.094v3.992h-2.16v-7h2.16v1.107h0.027c0.515-0.852,1.265-1.278,2.249-1.278c1.549,0,2.324,0.961,2.324,2.885
			V342.999z"/>
		<path fill="#2F2F2F" d="M103.393,345.227h-0.998c-1.413-1.613-2.119-3.603-2.119-5.968c0-2.375,0.707-4.396,2.119-6.063h1.012
			c-1.431,1.732-2.146,3.749-2.146,6.05C101.26,341.529,101.971,343.523,103.393,345.227z"/>
		<path fill="#2F2F2F" d="M108.844,342.678c-0.538,0.324-1.176,0.485-1.914,0.485c-0.998,0-1.804-0.325-2.417-0.974
			s-0.919-1.491-0.919-2.526c0-1.153,0.331-2.079,0.991-2.779s1.542-1.049,2.646-1.049c0.615,0,1.158,0.114,1.627,0.342v1.148
			c-0.52-0.365-1.076-0.547-1.668-0.547c-0.715,0-1.302,0.256-1.76,0.769s-0.687,1.186-0.687,2.02c0,0.82,0.215,1.467,0.646,1.941
			s1.008,0.711,1.733,0.711c0.611,0,1.185-0.203,1.723-0.608V342.678z"/>
		<path fill="#2F2F2F" d="M111.454,342.999h-1.121v-10.363h1.121V342.999z"/>
		<path fill="#2F2F2F" d="M114.141,334.221c-0.201,0-0.372-0.068-0.513-0.205s-0.212-0.31-0.212-0.52s0.071-0.384,0.212-0.523
			s0.312-0.208,0.513-0.208c0.205,0,0.379,0.069,0.523,0.208s0.215,0.313,0.215,0.523c0,0.201-0.072,0.372-0.215,0.513
			S114.346,334.221,114.141,334.221z M114.688,342.999h-1.121v-7h1.121V342.999z"/>
		<path fill="#2F2F2F" d="M122.482,339.779h-4.942c0.018,0.779,0.228,1.381,0.629,1.805s0.953,0.636,1.654,0.636
			c0.789,0,1.513-0.26,2.174-0.779v1.053c-0.615,0.447-1.429,0.67-2.44,0.67c-0.989,0-1.766-0.318-2.331-0.954
			s-0.848-1.53-0.848-2.683c0-1.089,0.309-1.977,0.926-2.663s1.384-1.029,2.3-1.029s1.625,0.296,2.126,0.889
			s0.752,1.415,0.752,2.468V339.779z M121.334,338.829c-0.004-0.647-0.161-1.151-0.468-1.511s-0.735-0.54-1.282-0.54
			c-0.529,0-0.978,0.189-1.347,0.567s-0.597,0.873-0.684,1.483H121.334z"/>
		<path fill="#2F2F2F" d="M129.975,342.999h-1.121v-3.992c0-1.486-0.542-2.229-1.627-2.229c-0.561,0-1.024,0.211-1.391,0.632
			s-0.55,0.954-0.55,1.596v3.992h-1.121v-7h1.121v1.162h0.027c0.529-0.884,1.294-1.326,2.297-1.326c0.766,0,1.351,0.247,1.757,0.742
			s0.608,1.209,0.608,2.143V342.999z"/>
		<path fill="#2F2F2F" d="M135.205,342.93c-0.264,0.146-0.613,0.219-1.046,0.219c-1.226,0-1.839-0.684-1.839-2.051v-4.143h-1.203
			v-0.957h1.203v-1.709l1.121-0.362v2.071h1.764v0.957h-1.764v3.944c0,0.469,0.08,0.804,0.239,1.005s0.424,0.301,0.793,0.301
			c0.283,0,0.526-0.078,0.731-0.232V342.93z"/>
		<path fill="#2F2F2F" d="M136.429,345.227h-0.998c1.422-1.705,2.133-3.698,2.133-5.981c0-2.301-0.715-4.318-2.146-6.05h1.012
			c1.422,1.668,2.133,3.689,2.133,6.063C138.562,341.625,137.851,343.614,136.429,345.227z"/>
		<path fill="#2F2F2F" d="M20.954,355.554c0,2.944-1.372,4.416-4.115,4.416c-2.662,0-3.992-1.438-3.992-4.313v-5.66h2.215v5.688
			c0,1.586,0.62,2.379,1.859,2.379c1.217,0,1.825-0.766,1.825-2.297v-5.77h2.208V355.554z"/>
		<path fill="#2F2F2F" d="M22.385,359.614v-1.75c0.355,0.214,0.71,0.374,1.063,0.479s0.687,0.157,1.001,0.157
			c0.383,0,0.685-0.052,0.906-0.157s0.332-0.264,0.332-0.479c0-0.137-0.05-0.25-0.15-0.342s-0.229-0.171-0.386-0.239
			s-0.329-0.13-0.516-0.185s-0.367-0.116-0.54-0.185c-0.278-0.105-0.523-0.218-0.735-0.338s-0.39-0.261-0.533-0.42
			s-0.253-0.344-0.328-0.554s-0.113-0.458-0.113-0.745c0-0.392,0.085-0.729,0.256-1.012s0.399-0.514,0.684-0.694
			s0.611-0.312,0.978-0.396s0.749-0.126,1.145-0.126c0.31,0,0.625,0.024,0.943,0.072s0.633,0.117,0.943,0.208v1.668
			c-0.273-0.16-0.566-0.279-0.878-0.359s-0.619-0.12-0.919-0.12c-0.141,0-0.274,0.013-0.4,0.038s-0.236,0.062-0.332,0.109
			s-0.171,0.109-0.226,0.185s-0.082,0.161-0.082,0.256c0,0.127,0.041,0.237,0.123,0.328s0.189,0.17,0.321,0.236
			s0.279,0.125,0.441,0.178s0.322,0.106,0.482,0.161c0.287,0.1,0.547,0.209,0.779,0.328s0.432,0.257,0.598,0.417
			s0.294,0.346,0.383,0.561s0.133,0.469,0.133,0.766c0,0.415-0.09,0.769-0.27,1.063s-0.419,0.533-0.718,0.718
			s-0.643,0.319-1.032,0.403s-0.794,0.126-1.213,0.126C23.754,359.97,23.041,359.851,22.385,359.614z"/>
		<path fill="#2F2F2F" d="M35.334,356.914h-4.566c0.073,1.016,0.713,1.524,1.921,1.524c0.77,0,1.447-0.182,2.03-0.547v1.559
			c-0.647,0.346-1.488,0.52-2.522,0.52c-1.13,0-2.007-0.313-2.632-0.94s-0.937-1.5-0.937-2.622c0-1.162,0.337-2.083,1.012-2.762
			s1.504-1.019,2.488-1.019c1.021,0,1.811,0.303,2.369,0.909s0.837,1.429,0.837,2.468V356.914z M33.331,355.588
			c0-1.002-0.406-1.504-1.217-1.504c-0.346,0-0.646,0.144-0.899,0.431s-0.407,0.645-0.461,1.073H33.331z"/>
		<path fill="#2F2F2F" d="M41.265,354.747c-0.26-0.141-0.563-0.212-0.909-0.212c-0.469,0-0.836,0.172-1.101,0.516
			s-0.396,0.812-0.396,1.405v3.343h-2.16v-7h2.16v1.299h0.027c0.342-0.948,0.957-1.422,1.846-1.422c0.228,0,0.406,0.027,0.533,0.082
			V354.747z"/>
		<path fill="#2F2F2F" d="M49.27,362.027h-0.998c-1.413-1.613-2.119-3.603-2.119-5.968c0-2.375,0.707-4.396,2.119-6.063h1.012
			c-1.431,1.732-2.146,3.749-2.146,6.05C47.137,358.329,47.848,360.323,49.27,362.027z"/>
		<path fill="#2F2F2F" d="M53.625,353.933c-0.196-0.15-0.479-0.226-0.848-0.226c-0.479,0-0.878,0.226-1.2,0.677
			s-0.482,1.066-0.482,1.846v3.568h-1.121v-7h1.121v1.442h0.027c0.16-0.492,0.403-0.876,0.731-1.152s0.695-0.414,1.101-0.414
			c0.292,0,0.515,0.032,0.67,0.096V353.933z"/>
		<path fill="#2F2F2F" d="M60.468,356.579h-4.942c0.018,0.779,0.228,1.381,0.629,1.805s0.953,0.636,1.654,0.636
			c0.789,0,1.513-0.26,2.174-0.779v1.053c-0.615,0.447-1.429,0.67-2.44,0.67c-0.989,0-1.766-0.318-2.331-0.954
			s-0.848-1.53-0.848-2.683c0-1.089,0.309-1.977,0.926-2.663s1.384-1.029,2.3-1.029s1.625,0.296,2.126,0.889
			s0.752,1.415,0.752,2.468V356.579z M59.319,355.629c-0.004-0.647-0.161-1.151-0.468-1.511s-0.735-0.54-1.282-0.54
			c-0.529,0-0.978,0.189-1.347,0.567s-0.597,0.873-0.684,1.483H59.319z"/>
		<path fill="#2F2F2F" d="M61.71,359.546v-1.203c0.611,0.451,1.283,0.677,2.017,0.677c0.984,0,1.477-0.328,1.477-0.984
			c0-0.187-0.042-0.345-0.126-0.475s-0.198-0.245-0.342-0.345s-0.312-0.19-0.506-0.27s-0.402-0.163-0.625-0.25
			c-0.31-0.123-0.582-0.247-0.817-0.373s-0.431-0.267-0.588-0.424s-0.276-0.336-0.355-0.537s-0.12-0.435-0.12-0.704
			c0-0.328,0.075-0.619,0.226-0.872s0.351-0.465,0.602-0.636s0.537-0.3,0.858-0.386s0.653-0.13,0.995-0.13
			c0.606,0,1.148,0.105,1.627,0.314v1.135c-0.515-0.337-1.107-0.506-1.777-0.506c-0.209,0-0.399,0.024-0.567,0.072
			s-0.313,0.115-0.434,0.202s-0.214,0.19-0.28,0.311s-0.099,0.254-0.099,0.4c0,0.182,0.033,0.335,0.099,0.458
			s0.163,0.232,0.291,0.328s0.283,0.182,0.465,0.26s0.39,0.162,0.622,0.253c0.31,0.119,0.588,0.24,0.834,0.366
			s0.456,0.267,0.629,0.424s0.307,0.338,0.4,0.543s0.14,0.449,0.14,0.731c0,0.346-0.076,0.647-0.229,0.902s-0.356,0.467-0.612,0.636
			s-0.549,0.294-0.882,0.376s-0.681,0.123-1.046,0.123C62.863,359.963,62.239,359.824,61.71,359.546z"/>
		<path fill="#2F2F2F" d="M70.965,359.963c-1.035,0-1.86-0.327-2.478-0.981s-0.926-1.521-0.926-2.601
			c0-1.176,0.321-2.094,0.964-2.755s1.511-0.991,2.604-0.991c1.043,0,1.858,0.321,2.444,0.964s0.878,1.534,0.878,2.673
			c0,1.117-0.315,2.011-0.947,2.683S72.027,359.963,70.965,359.963z M71.047,353.578c-0.72,0-1.29,0.245-1.709,0.735
			s-0.629,1.166-0.629,2.027c0,0.83,0.212,1.483,0.636,1.962s0.991,0.718,1.702,0.718c0.725,0,1.282-0.235,1.671-0.704
			s0.584-1.137,0.584-2.003c0-0.875-0.195-1.549-0.584-2.023S71.772,353.578,71.047,353.578z"/>
		<path fill="#2F2F2F" d="M81.861,359.799h-1.121v-1.107h-0.027c-0.465,0.848-1.185,1.271-2.16,1.271
			c-1.668,0-2.502-0.994-2.502-2.98v-4.184h1.114v4.006c0,1.477,0.565,2.215,1.695,2.215c0.547,0,0.997-0.202,1.35-0.605
			s0.53-0.931,0.53-1.583v-4.033h1.121V359.799z"/>
		<path fill="#2F2F2F" d="M87.618,353.933c-0.196-0.15-0.479-0.226-0.848-0.226c-0.479,0-0.878,0.226-1.2,0.677
			s-0.482,1.066-0.482,1.846v3.568h-1.121v-7h1.121v1.442h0.027c0.16-0.492,0.403-0.876,0.731-1.152s0.695-0.414,1.101-0.414
			c0.292,0,0.515,0.032,0.67,0.096V353.933z"/>
		<path fill="#2F2F2F" d="M93.575,359.477c-0.538,0.324-1.176,0.485-1.914,0.485c-0.998,0-1.804-0.325-2.417-0.974
			s-0.919-1.491-0.919-2.526c0-1.153,0.331-2.079,0.991-2.779s1.542-1.049,2.646-1.049c0.615,0,1.158,0.114,1.627,0.342v1.148
			c-0.52-0.365-1.076-0.547-1.668-0.547c-0.715,0-1.302,0.256-1.76,0.769s-0.687,1.186-0.687,2.02c0,0.82,0.215,1.467,0.646,1.941
			s1.008,0.711,1.733,0.711c0.611,0,1.185-0.203,1.723-0.608V359.477z"/>
		<path fill="#2F2F2F" d="M100.746,356.579h-4.942c0.018,0.779,0.228,1.381,0.629,1.805s0.953,0.636,1.654,0.636
			c0.789,0,1.513-0.26,2.174-0.779v1.053c-0.615,0.447-1.429,0.67-2.44,0.67c-0.989,0-1.766-0.318-2.331-0.954
			s-0.848-1.53-0.848-2.683c0-1.089,0.309-1.977,0.926-2.663s1.384-1.029,2.3-1.029s1.625,0.296,2.126,0.889
			s0.752,1.415,0.752,2.468V356.579z M99.597,355.629c-0.004-0.647-0.161-1.151-0.468-1.511s-0.735-0.54-1.282-0.54
			c-0.529,0-0.978,0.189-1.347,0.567s-0.597,0.873-0.684,1.483H99.597z"/>
		<path fill="#2F2F2F" d="M109.202,359.963c-1.035,0-1.86-0.327-2.478-0.981s-0.926-1.521-0.926-2.601
			c0-1.176,0.321-2.094,0.964-2.755s1.511-0.991,2.604-0.991c1.043,0,1.858,0.321,2.444,0.964s0.878,1.534,0.878,2.673
			c0,1.117-0.315,2.011-0.947,2.683S110.264,359.963,109.202,359.963z M109.284,353.578c-0.72,0-1.29,0.245-1.709,0.735
			s-0.629,1.166-0.629,2.027c0,0.83,0.212,1.483,0.636,1.962s0.991,0.718,1.702,0.718c0.725,0,1.282-0.235,1.671-0.704
			s0.584-1.137,0.584-2.003c0-0.875-0.195-1.549-0.584-2.023S110.009,353.578,109.284,353.578z"/>
		<path fill="#2F2F2F" d="M123.16,352.799l-2.099,7H119.9l-1.442-5.011c-0.055-0.191-0.091-0.408-0.109-0.649h-0.027
			c-0.014,0.164-0.062,0.376-0.144,0.636l-1.565,5.024h-1.121l-2.119-7h1.176l1.449,5.264c0.045,0.16,0.078,0.369,0.096,0.629h0.055
			c0.014-0.201,0.055-0.415,0.123-0.643l1.613-5.25h1.025l1.449,5.277c0.045,0.168,0.08,0.378,0.103,0.629h0.055
			c0.009-0.178,0.048-0.387,0.116-0.629l1.422-5.277H123.16z"/>
		<path fill="#2F2F2F" d="M130.253,359.799h-1.121v-3.992c0-1.486-0.542-2.229-1.627-2.229c-0.561,0-1.024,0.211-1.391,0.632
			s-0.55,0.954-0.55,1.596v3.992h-1.121v-7h1.121v1.162h0.027c0.529-0.884,1.294-1.326,2.297-1.326c0.766,0,1.351,0.247,1.757,0.742
			s0.608,1.209,0.608,2.143V359.799z"/>
		<path fill="#2F2F2F" d="M137.956,356.579h-4.942c0.018,0.779,0.228,1.381,0.629,1.805s0.953,0.636,1.654,0.636
			c0.789,0,1.513-0.26,2.174-0.779v1.053c-0.615,0.447-1.429,0.67-2.44,0.67c-0.989,0-1.766-0.318-2.331-0.954
			s-0.848-1.53-0.848-2.683c0-1.089,0.309-1.977,0.926-2.663s1.384-1.029,2.3-1.029s1.625,0.296,2.126,0.889
			s0.752,1.415,0.752,2.468V356.579z M136.808,355.629c-0.004-0.647-0.161-1.151-0.468-1.511s-0.735-0.54-1.282-0.54
			c-0.529,0-0.978,0.189-1.347,0.567s-0.597,0.873-0.684,1.483H136.808z"/>
		<path fill="#2F2F2F" d="M143.289,353.933c-0.196-0.15-0.479-0.226-0.848-0.226c-0.479,0-0.878,0.226-1.2,0.677
			s-0.482,1.066-0.482,1.846v3.568h-1.121v-7h1.121v1.442h0.027c0.16-0.492,0.403-0.876,0.731-1.152s0.695-0.414,1.101-0.414
			c0.292,0,0.515,0.032,0.67,0.096V353.933z"/>
		<path fill="#2F2F2F" d="M144.272,362.027h-0.998c1.422-1.705,2.133-3.698,2.133-5.981c0-2.301-0.715-4.318-2.146-6.05h1.012
			c1.422,1.668,2.133,3.689,2.133,6.063C146.405,358.425,145.694,360.414,144.272,362.027z"/>
	</g>
	<g>
		<path fill="#2F2F2F" d="M491.72,338.599h-2.536l-1.524-2.522c-0.114-0.191-0.223-0.362-0.328-0.513s-0.211-0.279-0.318-0.386
			s-0.219-0.189-0.335-0.246s-0.243-0.085-0.379-0.085h-0.595v3.753h-2.208v-9.803h3.5c2.379,0,3.568,0.889,3.568,2.666
			c0,0.342-0.052,0.657-0.157,0.947s-0.253,0.55-0.444,0.783s-0.423,0.433-0.694,0.602s-0.573,0.301-0.906,0.396v0.027
			c0.146,0.045,0.287,0.12,0.424,0.222s0.269,0.222,0.396,0.359s0.25,0.284,0.366,0.441s0.222,0.311,0.318,0.461L491.72,338.599z
			 M485.705,330.451v2.728h0.957c0.474,0,0.854-0.137,1.142-0.41c0.292-0.278,0.438-0.622,0.438-1.032
			c0-0.857-0.513-1.285-1.538-1.285H485.705z"/>
		<path fill="#2F2F2F" d="M498.539,335.714h-4.566c0.073,1.016,0.713,1.524,1.921,1.524c0.77,0,1.447-0.182,2.03-0.547v1.559
			c-0.647,0.346-1.488,0.52-2.522,0.52c-1.13,0-2.007-0.313-2.632-0.94s-0.937-1.5-0.937-2.622c0-1.162,0.337-2.083,1.012-2.762
			s1.504-1.019,2.488-1.019c1.021,0,1.811,0.303,2.369,0.909s0.837,1.429,0.837,2.468V335.714z M496.536,334.388
			c0-1.002-0.406-1.504-1.217-1.504c-0.346,0-0.646,0.144-0.899,0.431s-0.407,0.645-0.461,1.073H496.536z"/>
		<path fill="#2F2F2F" d="M499.527,338.414v-1.75c0.355,0.214,0.71,0.374,1.063,0.479s0.687,0.157,1.001,0.157
			c0.383,0,0.685-0.052,0.906-0.157s0.332-0.264,0.332-0.479c0-0.137-0.05-0.25-0.15-0.342s-0.229-0.171-0.386-0.239
			s-0.329-0.13-0.516-0.185s-0.367-0.116-0.54-0.185c-0.278-0.105-0.523-0.218-0.735-0.338s-0.39-0.261-0.533-0.42
			s-0.253-0.344-0.328-0.554s-0.113-0.458-0.113-0.745c0-0.392,0.085-0.729,0.256-1.012s0.399-0.514,0.684-0.694
			s0.611-0.312,0.978-0.396s0.749-0.126,1.145-0.126c0.31,0,0.625,0.024,0.943,0.072s0.633,0.117,0.943,0.208v1.668
			c-0.273-0.16-0.566-0.279-0.878-0.359s-0.619-0.12-0.919-0.12c-0.141,0-0.274,0.013-0.4,0.038s-0.236,0.062-0.332,0.109
			s-0.171,0.109-0.226,0.185s-0.082,0.161-0.082,0.256c0,0.127,0.041,0.237,0.123,0.328s0.189,0.17,0.321,0.236
			s0.279,0.125,0.441,0.178s0.322,0.106,0.482,0.161c0.287,0.1,0.547,0.209,0.779,0.328s0.432,0.257,0.598,0.417
			s0.294,0.346,0.383,0.561s0.133,0.469,0.133,0.766c0,0.415-0.09,0.769-0.27,1.063s-0.419,0.533-0.718,0.718
			s-0.643,0.319-1.032,0.403s-0.794,0.126-1.213,0.126C500.896,338.77,500.183,338.651,499.527,338.414z"/>
		<path fill="#2F2F2F" d="M509.518,338.77c-1.167,0-2.084-0.327-2.751-0.981s-1.001-1.542-1.001-2.663
			c0-1.158,0.346-2.063,1.039-2.717s1.629-0.981,2.81-0.981c1.162,0,2.074,0.327,2.734,0.981s0.991,1.519,0.991,2.594
			c0,1.162-0.341,2.081-1.022,2.755S510.703,338.77,509.518,338.77z M509.573,333.082c-0.51,0-0.907,0.175-1.189,0.526
			s-0.424,0.848-0.424,1.49c0,1.344,0.542,2.017,1.627,2.017c1.035,0,1.552-0.69,1.552-2.071
			C511.138,333.736,510.616,333.082,509.573,333.082z"/>
		<path fill="#2F2F2F" d="M521.372,338.599h-2.153v-1.066h-0.034c-0.533,0.825-1.247,1.237-2.14,1.237
			c-1.623,0-2.434-0.982-2.434-2.946v-4.225h2.153v4.033c0,0.989,0.392,1.483,1.176,1.483c0.387,0,0.697-0.136,0.93-0.407
			s0.349-0.639,0.349-1.104v-4.006h2.153V338.599z"/>
		<path fill="#2F2F2F" d="M527.706,333.547c-0.26-0.141-0.563-0.212-0.909-0.212c-0.469,0-0.836,0.172-1.101,0.516
			s-0.396,0.812-0.396,1.405v3.343h-2.16v-7h2.16v1.299h0.027c0.342-0.948,0.957-1.422,1.846-1.422c0.228,0,0.406,0.027,0.533,0.082
			V333.547z"/>
		<path fill="#2F2F2F" d="M534.08,338.346c-0.488,0.283-1.192,0.424-2.112,0.424c-1.076,0-1.946-0.326-2.611-0.978
			s-0.998-1.493-0.998-2.522c0-1.189,0.356-2.127,1.07-2.813s1.667-1.029,2.861-1.029c0.825,0,1.422,0.109,1.791,0.328v1.832
			c-0.451-0.337-0.955-0.506-1.511-0.506c-0.62,0-1.111,0.181-1.473,0.543s-0.543,0.862-0.543,1.5c0,0.62,0.173,1.106,0.52,1.459
			s0.823,0.53,1.429,0.53c0.538,0,1.064-0.168,1.579-0.506V338.346z"/>
		<path fill="#2F2F2F" d="M541.796,335.714h-4.566c0.073,1.016,0.713,1.524,1.921,1.524c0.77,0,1.447-0.182,2.03-0.547v1.559
			c-0.647,0.346-1.488,0.52-2.522,0.52c-1.13,0-2.007-0.313-2.632-0.94s-0.937-1.5-0.937-2.622c0-1.162,0.337-2.083,1.012-2.762
			s1.504-1.019,2.488-1.019c1.021,0,1.811,0.303,2.369,0.909s0.837,1.429,0.837,2.468V335.714z M539.793,334.388
			c0-1.002-0.406-1.504-1.217-1.504c-0.346,0-0.646,0.144-0.899,0.431s-0.407,0.645-0.461,1.073H539.793z"/>
		<path fill="#2F2F2F" d="M546.485,338.414v-1.75c0.355,0.214,0.71,0.374,1.063,0.479s0.687,0.157,1.001,0.157
			c0.383,0,0.685-0.052,0.906-0.157s0.332-0.264,0.332-0.479c0-0.137-0.05-0.25-0.15-0.342s-0.229-0.171-0.386-0.239
			s-0.329-0.13-0.516-0.185s-0.367-0.116-0.54-0.185c-0.278-0.105-0.523-0.218-0.735-0.338s-0.39-0.261-0.533-0.42
			s-0.253-0.344-0.328-0.554s-0.113-0.458-0.113-0.745c0-0.392,0.085-0.729,0.256-1.012s0.399-0.514,0.684-0.694
			s0.611-0.312,0.978-0.396s0.749-0.126,1.145-0.126c0.31,0,0.625,0.024,0.943,0.072s0.633,0.117,0.943,0.208v1.668
			c-0.273-0.16-0.566-0.279-0.878-0.359s-0.619-0.12-0.919-0.12c-0.141,0-0.274,0.013-0.4,0.038s-0.236,0.062-0.332,0.109
			s-0.171,0.109-0.226,0.185s-0.082,0.161-0.082,0.256c0,0.127,0.041,0.237,0.123,0.328s0.189,0.17,0.321,0.236
			s0.279,0.125,0.441,0.178s0.322,0.106,0.482,0.161c0.287,0.1,0.547,0.209,0.779,0.328s0.432,0.257,0.598,0.417
			s0.294,0.346,0.383,0.561s0.133,0.469,0.133,0.766c0,0.415-0.09,0.769-0.27,1.063s-0.419,0.533-0.718,0.718
			s-0.643,0.319-1.032,0.403s-0.794,0.126-1.213,0.126C547.855,338.77,547.141,338.651,546.485,338.414z"/>
		<path fill="#2F2F2F" d="M559.435,335.714h-4.566c0.073,1.016,0.713,1.524,1.921,1.524c0.77,0,1.447-0.182,2.03-0.547v1.559
			c-0.647,0.346-1.488,0.52-2.522,0.52c-1.13,0-2.007-0.313-2.632-0.94s-0.937-1.5-0.937-2.622c0-1.162,0.337-2.083,1.012-2.762
			s1.504-1.019,2.488-1.019c1.021,0,1.811,0.303,2.369,0.909s0.837,1.429,0.837,2.468V335.714z M557.432,334.388
			c0-1.002-0.406-1.504-1.217-1.504c-0.346,0-0.646,0.144-0.899,0.431s-0.407,0.645-0.461,1.073H557.432z"/>
		<path fill="#2F2F2F" d="M565.366,333.547c-0.26-0.141-0.563-0.212-0.909-0.212c-0.469,0-0.836,0.172-1.101,0.516
			s-0.396,0.812-0.396,1.405v3.343h-2.16v-7h2.16v1.299h0.027c0.342-0.948,0.957-1.422,1.846-1.422c0.228,0,0.406,0.027,0.533,0.082
			V333.547z"/>
		<path fill="#2F2F2F" d="M573.465,331.599l-2.604,7h-2.461l-2.481-7h2.311l1.217,4.313c0.137,0.488,0.216,0.902,0.239,1.244h0.027
			c0.032-0.324,0.116-0.725,0.253-1.203l1.244-4.354H573.465z"/>
		<path fill="#2F2F2F" d="M580.452,335.714h-4.566c0.073,1.016,0.713,1.524,1.921,1.524c0.77,0,1.447-0.182,2.03-0.547v1.559
			c-0.647,0.346-1.488,0.52-2.522,0.52c-1.13,0-2.007-0.313-2.632-0.94s-0.937-1.5-0.937-2.622c0-1.162,0.337-2.083,1.012-2.762
			s1.504-1.019,2.488-1.019c1.021,0,1.811,0.303,2.369,0.909s0.837,1.429,0.837,2.468V335.714z M578.449,334.388
			c0-1.002-0.406-1.504-1.217-1.504c-0.346,0-0.646,0.144-0.899,0.431s-0.407,0.645-0.461,1.073H578.449z"/>
		<path fill="#2F2F2F" d="M586.384,333.547c-0.26-0.141-0.563-0.212-0.909-0.212c-0.469,0-0.836,0.172-1.101,0.516
			s-0.396,0.812-0.396,1.405v3.343h-2.16v-7h2.16v1.299h0.027c0.342-0.948,0.957-1.422,1.846-1.422c0.228,0,0.406,0.027,0.533,0.082
			V333.547z"/>
	</g>
	<g>
		<path fill="#2F2F2F" d="M506.801,92.199h-2.208v-9.803h2.208V92.199z"/>
		<path fill="#2F2F2F" d="M515.667,92.199h-2.16v-0.964h-0.027c-0.492,0.756-1.214,1.135-2.167,1.135
			c-0.875,0-1.579-0.309-2.112-0.926s-0.8-1.48-0.8-2.587c0-1.158,0.294-2.085,0.882-2.782s1.358-1.046,2.311-1.046
			c0.902,0,1.531,0.324,1.887,0.971h0.027v-4.163h2.16V92.199z M513.548,88.794v-0.526c0-0.456-0.132-0.834-0.396-1.135
			s-0.608-0.451-1.032-0.451c-0.479,0-0.852,0.188-1.121,0.564s-0.403,0.892-0.403,1.548c0,0.615,0.13,1.089,0.39,1.422
			s0.62,0.499,1.08,0.499c0.438,0,0.794-0.175,1.07-0.526S513.548,89.373,513.548,88.794z"/>
		<path fill="#2F2F2F" d="M523.775,89.314h-4.566c0.073,1.016,0.713,1.524,1.921,1.524c0.77,0,1.447-0.182,2.03-0.547v1.559
			c-0.647,0.346-1.488,0.52-2.522,0.52c-1.13,0-2.007-0.313-2.632-0.94s-0.937-1.5-0.937-2.622c0-1.162,0.337-2.083,1.012-2.762
			s1.504-1.019,2.488-1.019c1.021,0,1.811,0.303,2.369,0.909s0.837,1.429,0.837,2.468V89.314z M521.772,87.988
			c0-1.002-0.406-1.504-1.217-1.504c-0.346,0-0.646,0.144-0.899,0.431s-0.407,0.645-0.461,1.073H521.772z"/>
		<path fill="#2F2F2F" d="M531.9,92.199h-2.153v-3.89c0-1.084-0.387-1.627-1.162-1.627c-0.374,0-0.681,0.144-0.923,0.431
			s-0.362,0.652-0.362,1.094v3.992h-2.16v-7h2.16v1.107h0.027c0.515-0.852,1.265-1.278,2.249-1.278c1.549,0,2.324,0.961,2.324,2.885
			V92.199z"/>
		<path fill="#2F2F2F" d="M537.75,92.117c-0.319,0.168-0.8,0.253-1.442,0.253c-1.522,0-2.283-0.791-2.283-2.372v-3.206h-1.135
			v-1.593h1.135v-1.511l2.153-0.615v2.126h1.572v1.593h-1.572v2.83c0,0.729,0.29,1.094,0.868,1.094c0.228,0,0.462-0.066,0.704-0.198
			V92.117z"/>
		<path fill="#2F2F2F" d="M540.128,84.091c-0.365,0-0.663-0.108-0.896-0.325s-0.349-0.482-0.349-0.796
			c0-0.324,0.116-0.588,0.349-0.793s0.531-0.308,0.896-0.308c0.369,0,0.669,0.103,0.899,0.308s0.345,0.469,0.345,0.793
			c0,0.328-0.115,0.597-0.345,0.807S540.497,84.091,540.128,84.091z M541.194,92.199h-2.16v-7h2.16V92.199z"/>
		<path fill="#2F2F2F" d="M547.13,92.117c-0.319,0.168-0.8,0.253-1.442,0.253c-1.522,0-2.283-0.791-2.283-2.372v-3.206h-1.135
			v-1.593h1.135v-1.511l2.153-0.615v2.126h1.572v1.593h-1.572v2.83c0,0.729,0.29,1.094,0.868,1.094c0.228,0,0.462-0.066,0.704-0.198
			V92.117z"/>
		<path fill="#2F2F2F" d="M555.355,85.199l-2.844,7.561c-0.684,1.818-1.713,2.728-3.09,2.728c-0.524,0-0.955-0.059-1.292-0.178
			v-1.723c0.287,0.168,0.599,0.253,0.937,0.253c0.556,0,0.943-0.262,1.162-0.786l0.369-0.868l-2.844-6.986h2.393l1.306,4.259
			c0.082,0.264,0.146,0.577,0.191,0.937h0.027c0.041-0.264,0.116-0.572,0.226-0.923l1.319-4.272H555.355z"/>
		<path fill="#2F2F2F" d="M565.548,82.396l-4.778,11.43h-1.928l4.758-11.43H565.548z"/>
		<path fill="#2F2F2F" d="M474.658,108.998h-2.044v-1.005h-0.027c-0.469,0.784-1.165,1.176-2.085,1.176
			c-0.679,0-1.213-0.192-1.603-0.578s-0.584-0.899-0.584-1.542c0-1.358,0.804-2.142,2.413-2.352l1.9-0.253
			c0-0.766-0.415-1.148-1.244-1.148c-0.834,0-1.627,0.249-2.379,0.745v-1.627c0.301-0.155,0.712-0.292,1.234-0.41
			s0.997-0.178,1.425-0.178c1.996,0,2.994,0.996,2.994,2.987V108.998z M472.628,106.155v-0.472l-1.271,0.164
			c-0.702,0.091-1.053,0.408-1.053,0.95c0,0.246,0.085,0.448,0.256,0.605s0.402,0.236,0.694,0.236c0.406,0,0.736-0.14,0.991-0.42
			S472.628,106.583,472.628,106.155z"/>
		<path fill="#2F2F2F" d="M483.01,108.998h-2.153v-1.066h-0.034c-0.533,0.825-1.247,1.237-2.14,1.237
			c-1.623,0-2.434-0.982-2.434-2.946v-4.225h2.153v4.033c0,0.989,0.392,1.483,1.176,1.483c0.387,0,0.697-0.136,0.93-0.407
			s0.349-0.639,0.349-1.104v-4.006h2.153V108.998z"/>
		<path fill="#2F2F2F" d="M488.98,108.916c-0.319,0.168-0.8,0.253-1.442,0.253c-1.522,0-2.283-0.791-2.283-2.372v-3.206h-1.135
			v-1.593h1.135v-1.511l2.153-0.615v2.126h1.572v1.593h-1.572v2.83c0,0.729,0.29,1.094,0.868,1.094c0.228,0,0.462-0.066,0.704-0.198
			V108.916z"/>
		<path fill="#2F2F2F" d="M497.05,108.998h-2.153v-3.979c0-1.025-0.374-1.538-1.121-1.538c-0.383,0-0.693,0.144-0.93,0.431
			s-0.355,0.652-0.355,1.094v3.992h-2.16V98.635h2.16v4.402h0.027c0.529-0.807,1.247-1.21,2.153-1.21
			c1.586,0,2.379,0.957,2.379,2.871V108.998z"/>
		<path fill="#2F2F2F" d="M502.095,109.169c-1.167,0-2.084-0.327-2.751-0.981s-1.001-1.542-1.001-2.663
			c0-1.158,0.346-2.063,1.039-2.717s1.629-0.981,2.81-0.981c1.162,0,2.074,0.327,2.734,0.981s0.991,1.519,0.991,2.594
			c0,1.162-0.341,2.081-1.022,2.755S503.28,109.169,502.095,109.169z M502.15,103.482c-0.51,0-0.907,0.175-1.189,0.526
			s-0.424,0.848-0.424,1.49c0,1.344,0.542,2.017,1.627,2.017c1.035,0,1.552-0.69,1.552-2.071
			C503.715,104.136,503.193,103.482,502.15,103.482z"/>
		<path fill="#2F2F2F" d="M511.863,103.947c-0.26-0.141-0.563-0.212-0.909-0.212c-0.469,0-0.836,0.172-1.101,0.516
			s-0.396,0.812-0.396,1.405v3.343h-2.16v-7h2.16v1.299h0.027c0.342-0.948,0.957-1.422,1.846-1.422c0.228,0,0.406,0.027,0.533,0.082
			V103.947z"/>
		<path fill="#2F2F2F" d="M513.949,100.891c-0.365,0-0.663-0.108-0.896-0.325s-0.349-0.482-0.349-0.796
			c0-0.324,0.116-0.588,0.349-0.793s0.531-0.308,0.896-0.308c0.369,0,0.669,0.103,0.899,0.308s0.345,0.469,0.345,0.793
			c0,0.328-0.115,0.597-0.345,0.807S514.318,100.891,513.949,100.891z M515.015,108.998h-2.16v-7h2.16V108.998z"/>
		<path fill="#2F2F2F" d="M522.336,108.998h-6.282v-0.896l3.514-4.512h-3.165v-1.593h5.906v1.066l-3.329,4.341h3.356V108.998z"/>
		<path fill="#2F2F2F" d="M529.476,108.998h-2.044v-1.005h-0.027c-0.469,0.784-1.165,1.176-2.085,1.176
			c-0.679,0-1.213-0.192-1.603-0.578s-0.584-0.899-0.584-1.542c0-1.358,0.804-2.142,2.413-2.352l1.9-0.253
			c0-0.766-0.415-1.148-1.244-1.148c-0.834,0-1.627,0.249-2.379,0.745v-1.627c0.301-0.155,0.712-0.292,1.234-0.41
			s0.997-0.178,1.425-0.178c1.996,0,2.994,0.996,2.994,2.987V108.998z M527.446,106.155v-0.472l-1.271,0.164
			c-0.702,0.091-1.053,0.408-1.053,0.95c0,0.246,0.085,0.448,0.256,0.605s0.402,0.236,0.694,0.236c0.406,0,0.736-0.14,0.991-0.42
			S527.446,106.583,527.446,106.155z"/>
		<path fill="#2F2F2F" d="M535.304,108.916c-0.319,0.168-0.8,0.253-1.442,0.253c-1.522,0-2.283-0.791-2.283-2.372v-3.206h-1.135
			v-1.593h1.135v-1.511l2.153-0.615v2.126h1.572v1.593h-1.572v2.83c0,0.729,0.29,1.094,0.868,1.094c0.228,0,0.462-0.066,0.704-0.198
			V108.916z"/>
		<path fill="#2F2F2F" d="M537.682,100.891c-0.365,0-0.663-0.108-0.896-0.325s-0.349-0.482-0.349-0.796
			c0-0.324,0.116-0.588,0.349-0.793s0.531-0.308,0.896-0.308c0.369,0,0.669,0.103,0.899,0.308s0.345,0.469,0.345,0.793
			c0,0.328-0.115,0.597-0.345,0.807S538.052,100.891,537.682,100.891z M538.749,108.998h-2.16v-7h2.16V108.998z"/>
		<path fill="#2F2F2F" d="M543.86,109.169c-1.167,0-2.084-0.327-2.751-0.981s-1.001-1.542-1.001-2.663
			c0-1.158,0.346-2.063,1.039-2.717s1.629-0.981,2.81-0.981c1.162,0,2.074,0.327,2.734,0.981s0.991,1.519,0.991,2.594
			c0,1.162-0.341,2.081-1.022,2.755S545.045,109.169,543.86,109.169z M543.914,103.482c-0.51,0-0.907,0.175-1.189,0.526
			s-0.424,0.848-0.424,1.49c0,1.344,0.542,2.017,1.627,2.017c1.035,0,1.552-0.69,1.552-2.071
			C545.48,104.136,544.958,103.482,543.914,103.482z"/>
		<path fill="#2F2F2F" d="M555.822,108.998h-2.153v-3.89c0-1.084-0.387-1.627-1.162-1.627c-0.374,0-0.681,0.144-0.923,0.431
			s-0.362,0.652-0.362,1.094v3.992h-2.16v-7h2.16v1.107h0.027c0.515-0.852,1.265-1.278,2.249-1.278c1.549,0,2.324,0.961,2.324,2.885
			V108.998z"/>
		<path fill="#2F2F2F" d="M560.935,108.814v-1.75c0.355,0.214,0.71,0.374,1.063,0.479s0.687,0.157,1.001,0.157
			c0.383,0,0.685-0.052,0.906-0.157s0.332-0.264,0.332-0.479c0-0.137-0.05-0.25-0.15-0.342s-0.229-0.171-0.386-0.239
			s-0.329-0.13-0.516-0.185s-0.367-0.116-0.54-0.185c-0.278-0.105-0.523-0.218-0.735-0.338s-0.39-0.261-0.533-0.42
			s-0.253-0.344-0.328-0.554s-0.113-0.458-0.113-0.745c0-0.392,0.085-0.729,0.256-1.012s0.399-0.514,0.684-0.694
			s0.611-0.312,0.978-0.396s0.749-0.126,1.145-0.126c0.31,0,0.625,0.024,0.943,0.072s0.633,0.117,0.943,0.208v1.668
			c-0.273-0.16-0.566-0.279-0.878-0.359s-0.619-0.12-0.919-0.12c-0.141,0-0.274,0.013-0.4,0.038s-0.236,0.062-0.332,0.109
			s-0.171,0.109-0.226,0.185s-0.082,0.161-0.082,0.256c0,0.127,0.041,0.237,0.123,0.328s0.189,0.17,0.321,0.236
			s0.279,0.125,0.441,0.178s0.322,0.106,0.482,0.161c0.287,0.1,0.547,0.209,0.779,0.328s0.432,0.257,0.598,0.417
			s0.294,0.346,0.383,0.561s0.133,0.469,0.133,0.766c0,0.415-0.09,0.769-0.27,1.063s-0.419,0.533-0.718,0.718
			s-0.643,0.319-1.032,0.403s-0.794,0.126-1.213,0.126C562.305,109.169,561.592,109.051,560.935,108.814z"/>
		<path fill="#2F2F2F" d="M573.885,106.114h-4.566c0.073,1.016,0.713,1.524,1.921,1.524c0.77,0,1.447-0.182,2.03-0.547v1.559
			c-0.647,0.346-1.488,0.52-2.522,0.52c-1.13,0-2.007-0.313-2.632-0.94s-0.937-1.5-0.937-2.622c0-1.162,0.337-2.083,1.012-2.762
			s1.504-1.019,2.488-1.019c1.021,0,1.811,0.303,2.369,0.909s0.837,1.429,0.837,2.468V106.114z M571.882,104.787
			c0-1.002-0.406-1.504-1.217-1.504c-0.346,0-0.646,0.144-0.899,0.431s-0.407,0.645-0.461,1.073H571.882z"/>
		<path fill="#2F2F2F" d="M579.816,103.947c-0.26-0.141-0.563-0.212-0.909-0.212c-0.469,0-0.836,0.172-1.101,0.516
			s-0.396,0.812-0.396,1.405v3.343h-2.16v-7h2.16v1.299h0.027c0.342-0.948,0.957-1.422,1.846-1.422c0.228,0,0.406,0.027,0.533,0.082
			V103.947z"/>
		<path fill="#2F2F2F" d="M587.914,101.998l-2.604,7h-2.461l-2.481-7h2.311l1.217,4.313c0.137,0.488,0.216,0.902,0.239,1.244h0.027
			c0.032-0.324,0.116-0.725,0.253-1.203l1.244-4.354H587.914z"/>
		<path fill="#2F2F2F" d="M594.903,106.114h-4.566c0.073,1.016,0.713,1.524,1.921,1.524c0.77,0,1.447-0.182,2.03-0.547v1.559
			c-0.647,0.346-1.488,0.52-2.522,0.52c-1.13,0-2.007-0.313-2.632-0.94s-0.937-1.5-0.937-2.622c0-1.162,0.337-2.083,1.012-2.762
			s1.504-1.019,2.488-1.019c1.021,0,1.811,0.303,2.369,0.909s0.837,1.429,0.837,2.468V106.114z M592.9,104.787
			c0-1.002-0.406-1.504-1.217-1.504c-0.346,0-0.646,0.144-0.899,0.431s-0.407,0.645-0.461,1.073H592.9z"/>
		<path fill="#2F2F2F" d="M600.834,103.947c-0.26-0.141-0.563-0.212-0.909-0.212c-0.469,0-0.836,0.172-1.101,0.516
			s-0.396,0.812-0.396,1.405v3.343h-2.16v-7h2.16v1.299h0.027c0.342-0.948,0.957-1.422,1.846-1.422c0.228,0,0.406,0.027,0.533,0.082
			V103.947z"/>
	</g>
	<g>
		<rect x="554.301" y="170.513" fill="none" width="92.4" height="35.2"/>
		<path fill="#2F2F2F" d="M563.174,180.877h-1.271l-1.039-2.748h-4.156l-0.978,2.748h-1.278l3.76-9.803h1.189L563.174,180.877z
			 M560.488,177.096l-1.538-4.177c-0.05-0.137-0.1-0.355-0.15-0.656h-0.027c-0.045,0.278-0.098,0.497-0.157,0.656l-1.524,4.177
			H560.488z"/>
		<path fill="#2F2F2F" d="M569.078,180.555c-0.538,0.324-1.176,0.485-1.914,0.485c-0.998,0-1.804-0.325-2.417-0.974
			s-0.919-1.491-0.919-2.526c0-1.153,0.331-2.079,0.991-2.779s1.542-1.049,2.646-1.049c0.615,0,1.158,0.114,1.627,0.342v1.148
			c-0.52-0.365-1.076-0.547-1.668-0.547c-0.715,0-1.302,0.256-1.76,0.769s-0.687,1.186-0.687,2.02c0,0.82,0.215,1.467,0.646,1.941
			s1.008,0.711,1.733,0.711c0.611,0,1.185-0.203,1.723-0.608V180.555z"/>
		<path fill="#2F2F2F" d="M575.372,180.555c-0.538,0.324-1.176,0.485-1.914,0.485c-0.998,0-1.804-0.325-2.417-0.974
			s-0.919-1.491-0.919-2.526c0-1.153,0.331-2.079,0.991-2.779s1.542-1.049,2.646-1.049c0.615,0,1.158,0.114,1.627,0.342v1.148
			c-0.52-0.365-1.076-0.547-1.668-0.547c-0.715,0-1.302,0.256-1.76,0.769s-0.687,1.186-0.687,2.02c0,0.82,0.215,1.467,0.646,1.941
			s1.008,0.711,1.733,0.711c0.611,0,1.185-0.203,1.723-0.608V180.555z"/>
		<path fill="#2F2F2F" d="M582.543,177.657H577.6c0.018,0.779,0.228,1.381,0.629,1.805s0.953,0.636,1.654,0.636
			c0.789,0,1.513-0.26,2.174-0.779v1.053c-0.615,0.447-1.429,0.67-2.44,0.67c-0.989,0-1.766-0.318-2.331-0.954
			s-0.848-1.53-0.848-2.683c0-1.089,0.309-1.977,0.926-2.663s1.384-1.029,2.3-1.029s1.625,0.296,2.126,0.889
			s0.752,1.415,0.752,2.468V177.657z M581.394,176.707c-0.004-0.647-0.161-1.151-0.468-1.511s-0.735-0.54-1.282-0.54
			c-0.529,0-0.978,0.189-1.347,0.567s-0.597,0.873-0.684,1.483H581.394z"/>
		<path fill="#2F2F2F" d="M583.785,180.624v-1.203c0.611,0.451,1.283,0.677,2.017,0.677c0.984,0,1.477-0.328,1.477-0.984
			c0-0.187-0.042-0.345-0.126-0.475s-0.198-0.245-0.342-0.345s-0.312-0.19-0.506-0.27s-0.402-0.163-0.625-0.25
			c-0.31-0.123-0.582-0.247-0.817-0.373s-0.431-0.267-0.588-0.424s-0.276-0.336-0.355-0.537s-0.12-0.435-0.12-0.704
			c0-0.328,0.075-0.619,0.226-0.872s0.351-0.465,0.602-0.636s0.537-0.3,0.858-0.386s0.653-0.13,0.995-0.13
			c0.606,0,1.148,0.105,1.627,0.314v1.135c-0.515-0.337-1.107-0.506-1.777-0.506c-0.209,0-0.399,0.024-0.567,0.072
			s-0.313,0.115-0.434,0.202s-0.214,0.19-0.28,0.311s-0.099,0.254-0.099,0.4c0,0.182,0.033,0.335,0.099,0.458
			s0.163,0.232,0.291,0.328s0.283,0.182,0.465,0.26s0.39,0.162,0.622,0.253c0.31,0.119,0.588,0.24,0.834,0.366
			s0.456,0.267,0.629,0.424s0.307,0.338,0.4,0.543s0.14,0.449,0.14,0.731c0,0.346-0.076,0.647-0.229,0.902s-0.356,0.467-0.612,0.636
			s-0.549,0.294-0.882,0.376s-0.681,0.123-1.046,0.123C584.938,181.041,584.314,180.902,583.785,180.624z"/>
		<path fill="#2F2F2F" d="M589.711,180.624v-1.203c0.611,0.451,1.283,0.677,2.017,0.677c0.984,0,1.477-0.328,1.477-0.984
			c0-0.187-0.042-0.345-0.126-0.475s-0.198-0.245-0.342-0.345s-0.312-0.19-0.506-0.27s-0.402-0.163-0.625-0.25
			c-0.31-0.123-0.582-0.247-0.817-0.373s-0.431-0.267-0.588-0.424s-0.276-0.336-0.355-0.537s-0.12-0.435-0.12-0.704
			c0-0.328,0.075-0.619,0.226-0.872s0.351-0.465,0.602-0.636s0.537-0.3,0.858-0.386s0.653-0.13,0.995-0.13
			c0.606,0,1.148,0.105,1.627,0.314v1.135c-0.515-0.337-1.107-0.506-1.777-0.506c-0.209,0-0.399,0.024-0.567,0.072
			s-0.313,0.115-0.434,0.202s-0.214,0.19-0.28,0.311s-0.099,0.254-0.099,0.4c0,0.182,0.033,0.335,0.099,0.458
			s0.163,0.232,0.291,0.328s0.283,0.182,0.465,0.26s0.39,0.162,0.622,0.253c0.31,0.119,0.588,0.24,0.834,0.366
			s0.456,0.267,0.629,0.424s0.307,0.338,0.4,0.543s0.14,0.449,0.14,0.731c0,0.346-0.076,0.647-0.229,0.902s-0.356,0.467-0.612,0.636
			s-0.549,0.294-0.882,0.376s-0.681,0.123-1.046,0.123C590.864,181.041,590.24,180.902,589.711,180.624z"/>
		<path fill="#2F2F2F" d="M603.157,180.808c-0.264,0.146-0.613,0.219-1.046,0.219c-1.226,0-1.839-0.684-1.839-2.051v-4.143h-1.203
			v-0.957h1.203v-1.709l1.121-0.362v2.071h1.764v0.957h-1.764v3.944c0,0.469,0.08,0.804,0.239,1.005s0.424,0.301,0.793,0.301
			c0.283,0,0.526-0.078,0.731-0.232V180.808z"/>
		<path fill="#2F2F2F" d="M607.415,181.041c-1.035,0-1.86-0.327-2.478-0.981s-0.926-1.521-0.926-2.601
			c0-1.176,0.321-2.094,0.964-2.755s1.511-0.991,2.604-0.991c1.043,0,1.858,0.321,2.444,0.964s0.878,1.534,0.878,2.673
			c0,1.117-0.315,2.011-0.947,2.683S608.477,181.041,607.415,181.041z M607.497,174.656c-0.72,0-1.29,0.245-1.709,0.735
			s-0.629,1.166-0.629,2.027c0,0.83,0.212,1.483,0.636,1.962s0.991,0.718,1.702,0.718c0.725,0,1.282-0.235,1.671-0.704
			s0.584-1.137,0.584-2.003c0-0.875-0.195-1.549-0.584-2.023S608.222,174.656,607.497,174.656z"/>
		<path fill="#2F2F2F" d="M618.427,180.877h-1.572l-3.09-3.363h-0.027v3.363h-1.121v-10.363h1.121v6.569h0.027l2.939-3.206h1.47
			l-3.247,3.377L618.427,180.877z"/>
		<path fill="#2F2F2F" d="M624.852,177.657h-4.942c0.018,0.779,0.228,1.381,0.629,1.805s0.953,0.636,1.654,0.636
			c0.789,0,1.513-0.26,2.174-0.779v1.053c-0.615,0.447-1.429,0.67-2.44,0.67c-0.989,0-1.766-0.318-2.331-0.954
			s-0.848-1.53-0.848-2.683c0-1.089,0.309-1.977,0.926-2.663s1.384-1.029,2.3-1.029s1.625,0.296,2.126,0.889
			s0.752,1.415,0.752,2.468V177.657z M623.703,176.707c-0.004-0.647-0.161-1.151-0.468-1.511s-0.735-0.54-1.282-0.54
			c-0.529,0-0.978,0.189-1.347,0.567s-0.597,0.873-0.684,1.483H623.703z"/>
		<path fill="#2F2F2F" d="M632.345,180.877h-1.121v-3.992c0-1.486-0.542-2.229-1.627-2.229c-0.561,0-1.024,0.211-1.391,0.632
			s-0.55,0.954-0.55,1.596v3.992h-1.121v-7h1.121v1.162h0.027c0.529-0.884,1.294-1.326,2.297-1.326c0.766,0,1.351,0.247,1.757,0.742
			s0.608,1.209,0.608,2.143V180.877z"/>
		<path fill="#2F2F2F" d="M560.939,190.677l-2.789,7h-1.101l-2.652-7h1.23l1.777,5.086c0.132,0.374,0.214,0.7,0.246,0.978h0.027
			c0.045-0.351,0.119-0.667,0.219-0.95l1.859-5.113H560.939z"/>
		<path fill="#2F2F2F" d="M567.056,197.677h-1.121v-1.094h-0.027c-0.488,0.838-1.206,1.258-2.153,1.258
			c-0.697,0-1.243-0.185-1.637-0.554s-0.591-0.859-0.591-1.47c0-1.308,0.77-2.069,2.311-2.283l2.099-0.294
			c0-1.189-0.481-1.784-1.442-1.784c-0.843,0-1.604,0.287-2.283,0.861v-1.148c0.688-0.438,1.481-0.656,2.379-0.656
			c1.645,0,2.468,0.871,2.468,2.611V197.677z M565.935,194.136l-1.688,0.232c-0.52,0.073-0.912,0.202-1.176,0.386
			s-0.396,0.512-0.396,0.981c0,0.342,0.122,0.621,0.366,0.837s0.568,0.325,0.974,0.325c0.556,0,1.015-0.195,1.377-0.584
			s0.543-0.883,0.543-1.48V194.136z"/>
		<path fill="#2F2F2F" d="M570.193,197.677h-1.121v-10.363h1.121V197.677z"/>
		<path fill="#2F2F2F" d="M572.88,188.899c-0.201,0-0.372-0.068-0.513-0.205s-0.212-0.31-0.212-0.52s0.071-0.384,0.212-0.523
			s0.312-0.208,0.513-0.208c0.205,0,0.379,0.069,0.523,0.208s0.215,0.313,0.215,0.523c0,0.201-0.072,0.372-0.215,0.513
			S573.085,188.899,572.88,188.899z M573.427,197.677h-1.121v-7h1.121V197.677z"/>
		<path fill="#2F2F2F" d="M581.57,197.677h-1.121v-1.189h-0.027c-0.52,0.902-1.322,1.354-2.406,1.354
			c-0.879,0-1.583-0.313-2.109-0.94s-0.79-1.48-0.79-2.56c0-1.158,0.292-2.085,0.875-2.782s1.36-1.046,2.331-1.046
			c0.961,0,1.661,0.378,2.099,1.135h0.027v-4.334h1.121V197.677z M580.449,194.512v-1.032c0-0.565-0.187-1.043-0.561-1.436
			s-0.848-0.588-1.422-0.588c-0.684,0-1.221,0.25-1.613,0.752s-0.588,1.194-0.588,2.078c0,0.807,0.188,1.443,0.564,1.911
			s0.881,0.701,1.514,0.701c0.625,0,1.131-0.226,1.521-0.677S580.449,195.2,580.449,194.512z"/>
		<path fill="#2F2F2F" d="M588.727,197.677h-1.121v-1.094h-0.027c-0.488,0.838-1.206,1.258-2.153,1.258
			c-0.697,0-1.243-0.185-1.637-0.554s-0.591-0.859-0.591-1.47c0-1.308,0.77-2.069,2.311-2.283l2.099-0.294
			c0-1.189-0.481-1.784-1.442-1.784c-0.843,0-1.604,0.287-2.283,0.861v-1.148c0.688-0.438,1.481-0.656,2.379-0.656
			c1.645,0,2.468,0.871,2.468,2.611V197.677z M587.606,194.136l-1.688,0.232c-0.52,0.073-0.912,0.202-1.176,0.386
			s-0.396,0.512-0.396,0.981c0,0.342,0.122,0.621,0.366,0.837s0.568,0.325,0.974,0.325c0.556,0,1.015-0.195,1.377-0.584
			s0.543-0.883,0.543-1.48V194.136z"/>
		<path fill="#2F2F2F" d="M593.986,197.608c-0.264,0.146-0.613,0.219-1.046,0.219c-1.226,0-1.839-0.684-1.839-2.051v-4.143h-1.203
			v-0.957h1.203v-1.709l1.121-0.362v2.071h1.764v0.957h-1.764v3.944c0,0.469,0.08,0.804,0.239,1.005s0.424,0.301,0.793,0.301
			c0.283,0,0.526-0.078,0.731-0.232V197.608z"/>
		<path fill="#2F2F2F" d="M595.941,188.899c-0.201,0-0.372-0.068-0.513-0.205s-0.212-0.31-0.212-0.52s0.071-0.384,0.212-0.523
			s0.312-0.208,0.513-0.208c0.205,0,0.379,0.069,0.523,0.208s0.215,0.313,0.215,0.523c0,0.201-0.072,0.372-0.215,0.513
			S596.146,188.899,595.941,188.899z M596.488,197.677h-1.121v-7h1.121V197.677z"/>
		<path fill="#2F2F2F" d="M601.582,197.841c-1.035,0-1.86-0.327-2.478-0.981s-0.926-1.521-0.926-2.601
			c0-1.176,0.321-2.094,0.964-2.755s1.511-0.991,2.604-0.991c1.043,0,1.858,0.321,2.444,0.964s0.878,1.534,0.878,2.673
			c0,1.117-0.315,2.011-0.947,2.683S602.644,197.841,601.582,197.841z M601.664,191.456c-0.72,0-1.29,0.245-1.709,0.735
			s-0.629,1.166-0.629,2.027c0,0.83,0.212,1.483,0.636,1.962s0.991,0.718,1.702,0.718c0.725,0,1.282-0.235,1.671-0.704
			s0.584-1.137,0.584-2.003c0-0.875-0.195-1.549-0.584-2.023S602.389,191.456,601.664,191.456z"/>
		<path fill="#2F2F2F" d="M612.594,197.677h-1.121v-3.992c0-1.486-0.542-2.229-1.627-2.229c-0.561,0-1.024,0.211-1.391,0.632
			s-0.55,0.954-0.55,1.596v3.992h-1.121v-7h1.121v1.162h0.027c0.529-0.884,1.294-1.326,2.297-1.326c0.766,0,1.351,0.247,1.757,0.742
			s0.608,1.209,0.608,2.143V197.677z"/>
	</g>
	<g>
		<rect x="227.904" y="234.475" fill="none" width="159.318" height="33.011"/>
		<path fill="#2F2F2F" d="M273.909,241.133v3.705h-1.148v-9.803h2.693c1.048,0,1.86,0.255,2.437,0.766s0.865,1.23,0.865,2.16
			s-0.32,1.691-0.96,2.283s-1.505,0.889-2.594,0.889H273.909z M273.909,236.075v4.02h1.203c0.793,0,1.398-0.181,1.815-0.543
			s0.625-0.874,0.625-1.535c0-1.294-0.766-1.941-2.297-1.941H273.909z"/>
		<path fill="#2F2F2F" d="M283.886,238.973c-0.196-0.15-0.479-0.226-0.848-0.226c-0.479,0-0.878,0.226-1.2,0.677
			s-0.482,1.066-0.482,1.846v3.568h-1.121v-7h1.121v1.442h0.027c0.16-0.492,0.403-0.876,0.731-1.152s0.695-0.414,1.101-0.414
			c0.292,0,0.515,0.032,0.67,0.096V238.973z"/>
		<path fill="#2F2F2F" d="M288.029,245.002c-1.035,0-1.86-0.327-2.478-0.981s-0.926-1.521-0.926-2.601
			c0-1.176,0.321-2.094,0.964-2.755s1.511-0.991,2.604-0.991c1.043,0,1.858,0.321,2.444,0.964s0.878,1.534,0.878,2.673
			c0,1.117-0.315,2.011-0.947,2.683S289.091,245.002,288.029,245.002z M288.111,238.617c-0.72,0-1.29,0.245-1.709,0.735
			s-0.629,1.166-0.629,2.027c0,0.83,0.212,1.483,0.636,1.962s0.991,0.718,1.702,0.718c0.725,0,1.282-0.235,1.671-0.704
			s0.584-1.137,0.584-2.003c0-0.875-0.195-1.549-0.584-2.023S288.835,238.617,288.111,238.617z"/>
		<path fill="#2F2F2F" d="M296.407,244.77c-0.264,0.146-0.613,0.219-1.046,0.219c-1.226,0-1.839-0.684-1.839-2.051v-4.143h-1.203
			v-0.957h1.203v-1.709l1.121-0.362v2.071h1.764v0.957h-1.764v3.944c0,0.469,0.08,0.804,0.239,1.005s0.424,0.301,0.793,0.301
			c0.283,0,0.526-0.078,0.731-0.232V244.77z"/>
		<path fill="#2F2F2F" d="M303.401,241.618h-4.942c0.018,0.779,0.228,1.381,0.629,1.805s0.953,0.636,1.654,0.636
			c0.789,0,1.513-0.26,2.174-0.779v1.053c-0.615,0.447-1.429,0.67-2.44,0.67c-0.989,0-1.766-0.318-2.331-0.954
			s-0.848-1.53-0.848-2.683c0-1.089,0.309-1.977,0.926-2.663s1.384-1.029,2.3-1.029s1.625,0.296,2.126,0.889
			s0.752,1.415,0.752,2.468V241.618z M302.252,240.668c-0.004-0.647-0.161-1.151-0.468-1.511s-0.735-0.54-1.282-0.54
			c-0.529,0-0.978,0.189-1.347,0.567s-0.597,0.873-0.684,1.483H302.252z"/>
		<path fill="#2F2F2F" d="M309.898,244.517c-0.538,0.324-1.176,0.485-1.914,0.485c-0.998,0-1.804-0.325-2.417-0.974
			s-0.919-1.491-0.919-2.526c0-1.153,0.331-2.079,0.991-2.779s1.542-1.049,2.646-1.049c0.615,0,1.158,0.114,1.627,0.342v1.148
			c-0.52-0.365-1.076-0.547-1.668-0.547c-0.715,0-1.302,0.256-1.76,0.769s-0.687,1.186-0.687,2.02c0,0.82,0.215,1.467,0.646,1.941
			s1.008,0.711,1.733,0.711c0.611,0,1.185-0.203,1.723-0.608V244.517z"/>
		<path fill="#2F2F2F" d="M315.062,244.77c-0.264,0.146-0.613,0.219-1.046,0.219c-1.226,0-1.839-0.684-1.839-2.051v-4.143h-1.203
			v-0.957h1.203v-1.709l1.121-0.362v2.071h1.764v0.957h-1.764v3.944c0,0.469,0.08,0.804,0.239,1.005s0.424,0.301,0.793,0.301
			c0.283,0,0.526-0.078,0.731-0.232V244.77z"/>
		<path fill="#2F2F2F" d="M322.054,241.618h-4.942c0.018,0.779,0.228,1.381,0.629,1.805s0.953,0.636,1.654,0.636
			c0.789,0,1.513-0.26,2.174-0.779v1.053c-0.615,0.447-1.429,0.67-2.44,0.67c-0.989,0-1.766-0.318-2.331-0.954
			s-0.848-1.53-0.848-2.683c0-1.089,0.309-1.977,0.926-2.663s1.384-1.029,2.3-1.029s1.625,0.296,2.126,0.889
			s0.752,1.415,0.752,2.468V241.618z M320.906,240.668c-0.004-0.647-0.161-1.151-0.468-1.511s-0.735-0.54-1.282-0.54
			c-0.529,0-0.978,0.189-1.347,0.567s-0.597,0.873-0.684,1.483H320.906z"/>
		<path fill="#2F2F2F" d="M329.786,244.838h-1.121v-1.189h-0.027c-0.52,0.902-1.322,1.354-2.406,1.354
			c-0.879,0-1.583-0.313-2.109-0.94s-0.79-1.48-0.79-2.56c0-1.158,0.292-2.085,0.875-2.782s1.36-1.046,2.331-1.046
			c0.961,0,1.661,0.378,2.099,1.135h0.027v-4.334h1.121V244.838z M328.665,241.673v-1.032c0-0.565-0.187-1.043-0.561-1.436
			s-0.848-0.588-1.422-0.588c-0.684,0-1.221,0.25-1.613,0.752s-0.588,1.194-0.588,2.078c0,0.807,0.188,1.443,0.564,1.911
			s0.881,0.701,1.514,0.701c0.625,0,1.131-0.226,1.521-0.677S328.665,242.361,328.665,241.673z"/>
		<path fill="#2F2F2F" d="M339.541,238.973c-0.196-0.15-0.479-0.226-0.848-0.226c-0.479,0-0.878,0.226-1.2,0.677
			s-0.482,1.066-0.482,1.846v3.568h-1.121v-7h1.121v1.442h0.027c0.16-0.492,0.403-0.876,0.731-1.152s0.695-0.414,1.101-0.414
			c0.292,0,0.515,0.032,0.67,0.096V238.973z"/>
		<path fill="#2F2F2F" d="M346.384,241.618h-4.942c0.018,0.779,0.228,1.381,0.629,1.805s0.953,0.636,1.654,0.636
			c0.789,0,1.513-0.26,2.174-0.779v1.053c-0.615,0.447-1.429,0.67-2.44,0.67c-0.989,0-1.766-0.318-2.331-0.954
			s-0.848-1.53-0.848-2.683c0-1.089,0.309-1.977,0.926-2.663s1.384-1.029,2.3-1.029s1.625,0.296,2.126,0.889
			s0.752,1.415,0.752,2.468V241.618z M345.235,240.668c-0.004-0.647-0.161-1.151-0.468-1.511s-0.735-0.54-1.282-0.54
			c-0.529,0-0.978,0.189-1.347,0.567s-0.597,0.873-0.684,1.483H345.235z"/>
		<path fill="#2F2F2F" d="M347.626,244.585v-1.203c0.611,0.451,1.283,0.677,2.017,0.677c0.984,0,1.477-0.328,1.477-0.984
			c0-0.187-0.042-0.345-0.126-0.475s-0.198-0.245-0.342-0.345s-0.312-0.19-0.506-0.27s-0.402-0.163-0.625-0.25
			c-0.31-0.123-0.582-0.247-0.817-0.373s-0.431-0.267-0.588-0.424s-0.276-0.336-0.355-0.537s-0.12-0.435-0.12-0.704
			c0-0.328,0.075-0.619,0.226-0.872s0.351-0.465,0.602-0.636s0.537-0.3,0.858-0.386s0.653-0.13,0.995-0.13
			c0.606,0,1.148,0.105,1.627,0.314v1.135c-0.515-0.337-1.107-0.506-1.777-0.506c-0.209,0-0.399,0.024-0.567,0.072
			s-0.313,0.115-0.434,0.202s-0.214,0.19-0.28,0.311s-0.099,0.254-0.099,0.4c0,0.182,0.033,0.335,0.099,0.458
			s0.163,0.232,0.291,0.328s0.283,0.182,0.465,0.26s0.39,0.162,0.622,0.253c0.31,0.119,0.588,0.24,0.834,0.366
			s0.456,0.267,0.629,0.424s0.307,0.338,0.4,0.543s0.14,0.449,0.14,0.731c0,0.346-0.076,0.647-0.229,0.902s-0.356,0.467-0.612,0.636
			s-0.549,0.294-0.882,0.376s-0.681,0.123-1.046,0.123C348.779,245.002,348.155,244.863,347.626,244.585z"/>
		<path fill="#2F2F2F" d="M356.881,245.002c-1.035,0-1.86-0.327-2.478-0.981s-0.926-1.521-0.926-2.601
			c0-1.176,0.321-2.094,0.964-2.755s1.511-0.991,2.604-0.991c1.043,0,1.858,0.321,2.444,0.964s0.878,1.534,0.878,2.673
			c0,1.117-0.315,2.011-0.947,2.683S357.943,245.002,356.881,245.002z M356.963,238.617c-0.72,0-1.29,0.245-1.709,0.735
			s-0.629,1.166-0.629,2.027c0,0.83,0.212,1.483,0.636,1.962s0.991,0.718,1.702,0.718c0.725,0,1.282-0.235,1.671-0.704
			s0.584-1.137,0.584-2.003c0-0.875-0.195-1.549-0.584-2.023S357.687,238.617,356.963,238.617z"/>
		<path fill="#2F2F2F" d="M367.776,244.838h-1.121v-1.107h-0.027c-0.465,0.848-1.185,1.271-2.16,1.271
			c-1.668,0-2.502-0.994-2.502-2.98v-4.184h1.114v4.006c0,1.477,0.565,2.215,1.695,2.215c0.547,0,0.997-0.202,1.35-0.605
			s0.53-0.931,0.53-1.583v-4.033h1.121V244.838z"/>
		<path fill="#2F2F2F" d="M373.534,238.973c-0.196-0.15-0.479-0.226-0.848-0.226c-0.479,0-0.878,0.226-1.2,0.677
			s-0.482,1.066-0.482,1.846v3.568h-1.121v-7h1.121v1.442h0.027c0.16-0.492,0.403-0.876,0.731-1.152s0.695-0.414,1.101-0.414
			c0.292,0,0.515,0.032,0.67,0.096V238.973z"/>
		<path fill="#2F2F2F" d="M379.491,244.517c-0.538,0.324-1.176,0.485-1.914,0.485c-0.998,0-1.804-0.325-2.417-0.974
			s-0.919-1.491-0.919-2.526c0-1.153,0.331-2.079,0.991-2.779s1.542-1.049,2.646-1.049c0.615,0,1.158,0.114,1.627,0.342v1.148
			c-0.52-0.365-1.076-0.547-1.668-0.547c-0.715,0-1.302,0.256-1.76,0.769s-0.687,1.186-0.687,2.02c0,0.82,0.215,1.467,0.646,1.941
			s1.008,0.711,1.733,0.711c0.611,0,1.185-0.203,1.723-0.608V244.517z"/>
		<path fill="#2F2F2F" d="M386.661,241.618h-4.942c0.018,0.779,0.228,1.381,0.629,1.805s0.953,0.636,1.654,0.636
			c0.789,0,1.513-0.26,2.174-0.779v1.053c-0.615,0.447-1.429,0.67-2.44,0.67c-0.989,0-1.766-0.318-2.331-0.954
			s-0.848-1.53-0.848-2.683c0-1.089,0.309-1.977,0.926-2.663s1.384-1.029,2.3-1.029s1.625,0.296,2.126,0.889
			s0.752,1.415,0.752,2.468V241.618z M385.513,240.668c-0.004-0.647-0.161-1.151-0.468-1.511s-0.735-0.54-1.282-0.54
			c-0.529,0-0.978,0.189-1.347,0.567s-0.597,0.873-0.684,1.483H385.513z"/>
		<path fill="#2F2F2F" d="M234.895,255.773c-0.196-0.15-0.479-0.226-0.848-0.226c-0.479,0-0.878,0.226-1.2,0.677
			s-0.482,1.066-0.482,1.846v3.568h-1.121v-7h1.121v1.442h0.027c0.16-0.492,0.403-0.876,0.731-1.152s0.695-0.414,1.101-0.414
			c0.292,0,0.515,0.032,0.67,0.096V255.773z"/>
		<path fill="#2F2F2F" d="M241.738,258.418h-4.942c0.018,0.779,0.228,1.381,0.629,1.805s0.953,0.636,1.654,0.636
			c0.789,0,1.513-0.26,2.174-0.779v1.053c-0.615,0.447-1.429,0.67-2.44,0.67c-0.989,0-1.766-0.318-2.331-0.954
			s-0.848-1.53-0.848-2.683c0-1.089,0.309-1.977,0.926-2.663s1.384-1.029,2.3-1.029s1.625,0.296,2.126,0.889
			s0.752,1.415,0.752,2.468V258.418z M240.59,257.468c-0.004-0.647-0.161-1.151-0.468-1.511s-0.735-0.54-1.282-0.54
			c-0.529,0-0.978,0.189-1.347,0.567s-0.597,0.873-0.684,1.483H240.59z"/>
		<path fill="#2F2F2F" d="M249.439,264.858h-1.121v-4.423h-0.027c-0.488,0.912-1.285,1.367-2.393,1.367
			c-0.879,0-1.585-0.313-2.116-0.94s-0.796-1.48-0.796-2.56c0-1.162,0.292-2.091,0.875-2.786s1.367-1.042,2.352-1.042
			c0.957,0,1.65,0.378,2.078,1.135h0.027v-0.971h1.121V264.858z M248.318,258.487v-1.019c0-0.574-0.188-1.06-0.564-1.456
			s-0.854-0.595-1.432-0.595c-0.674,0-1.208,0.25-1.6,0.749s-0.588,1.202-0.588,2.109c0,0.807,0.189,1.439,0.567,1.897
			s0.866,0.687,1.463,0.687c0.656,0,1.179-0.225,1.569-0.673S248.318,259.17,248.318,258.487z"/>
		<path fill="#2F2F2F" d="M257.266,261.638h-1.121v-1.107h-0.027c-0.465,0.848-1.185,1.271-2.16,1.271
			c-1.668,0-2.502-0.994-2.502-2.98v-4.184h1.114v4.006c0,1.477,0.565,2.215,1.695,2.215c0.547,0,0.997-0.202,1.35-0.605
			s0.53-0.931,0.53-1.583v-4.033h1.121V261.638z"/>
		<path fill="#2F2F2F" d="M265.086,258.418h-4.942c0.018,0.779,0.228,1.381,0.629,1.805s0.953,0.636,1.654,0.636
			c0.789,0,1.513-0.26,2.174-0.779v1.053c-0.615,0.447-1.429,0.67-2.44,0.67c-0.989,0-1.766-0.318-2.331-0.954
			s-0.848-1.53-0.848-2.683c0-1.089,0.309-1.977,0.926-2.663s1.384-1.029,2.3-1.029s1.625,0.296,2.126,0.889
			s0.752,1.415,0.752,2.468V258.418z M263.938,257.468c-0.004-0.647-0.161-1.151-0.468-1.511s-0.735-0.54-1.282-0.54
			c-0.529,0-0.978,0.189-1.347,0.567s-0.597,0.873-0.684,1.483H263.938z"/>
		<path fill="#2F2F2F" d="M266.328,261.385v-1.203c0.611,0.451,1.283,0.677,2.017,0.677c0.984,0,1.477-0.328,1.477-0.984
			c0-0.187-0.042-0.345-0.126-0.475s-0.198-0.245-0.342-0.345s-0.312-0.19-0.506-0.27s-0.402-0.163-0.625-0.25
			c-0.31-0.123-0.582-0.247-0.817-0.373s-0.431-0.267-0.588-0.424s-0.276-0.336-0.355-0.537s-0.12-0.435-0.12-0.704
			c0-0.328,0.075-0.619,0.226-0.872s0.351-0.465,0.602-0.636s0.537-0.3,0.858-0.386s0.653-0.13,0.995-0.13
			c0.606,0,1.148,0.105,1.627,0.314v1.135c-0.515-0.337-1.107-0.506-1.777-0.506c-0.209,0-0.399,0.024-0.567,0.072
			s-0.313,0.115-0.434,0.202s-0.214,0.19-0.28,0.311s-0.099,0.254-0.099,0.4c0,0.182,0.033,0.335,0.099,0.458
			s0.163,0.232,0.291,0.328s0.283,0.182,0.465,0.26s0.39,0.162,0.622,0.253c0.31,0.119,0.588,0.24,0.834,0.366
			s0.456,0.267,0.629,0.424s0.307,0.338,0.4,0.543s0.14,0.449,0.14,0.731c0,0.346-0.076,0.647-0.229,0.902s-0.356,0.467-0.612,0.636
			s-0.549,0.294-0.882,0.376s-0.681,0.123-1.046,0.123C267.481,261.802,266.857,261.663,266.328,261.385z"/>
		<path fill="#2F2F2F" d="M275.982,261.57c-0.264,0.146-0.613,0.219-1.046,0.219c-1.226,0-1.839-0.684-1.839-2.051v-4.143h-1.203
			v-0.957h1.203v-1.709l1.121-0.362v2.071h1.764v0.957h-1.764v3.944c0,0.469,0.08,0.804,0.239,1.005s0.424,0.301,0.793,0.301
			c0.283,0,0.526-0.078,0.731-0.232V261.57z"/>
		<path fill="#2F2F2F" d="M290.132,254.638l-2.099,7h-1.162l-1.442-5.011c-0.055-0.191-0.091-0.408-0.109-0.649h-0.027
			c-0.014,0.164-0.062,0.376-0.144,0.636l-1.565,5.024h-1.121l-2.119-7h1.176l1.449,5.264c0.045,0.16,0.078,0.369,0.096,0.629h0.055
			c0.014-0.201,0.055-0.415,0.123-0.643l1.613-5.25h1.025l1.449,5.277c0.045,0.168,0.08,0.378,0.103,0.629h0.055
			c0.009-0.178,0.048-0.387,0.116-0.629l1.422-5.277H290.132z"/>
		<path fill="#2F2F2F" d="M291.99,252.861c-0.201,0-0.372-0.068-0.513-0.205s-0.212-0.31-0.212-0.52s0.071-0.384,0.212-0.523
			s0.312-0.208,0.513-0.208c0.205,0,0.379,0.069,0.523,0.208s0.215,0.313,0.215,0.523c0,0.201-0.072,0.372-0.215,0.513
			S292.195,252.861,291.99,252.861z M292.537,261.638h-1.121v-7h1.121V261.638z"/>
		<path fill="#2F2F2F" d="M297.985,261.57c-0.264,0.146-0.613,0.219-1.046,0.219c-1.226,0-1.839-0.684-1.839-2.051v-4.143h-1.203
			v-0.957h1.203v-1.709l1.121-0.362v2.071h1.764v0.957h-1.764v3.944c0,0.469,0.08,0.804,0.239,1.005s0.424,0.301,0.793,0.301
			c0.283,0,0.526-0.078,0.731-0.232V261.57z"/>
		<path fill="#2F2F2F" d="M305.176,261.638h-1.121v-4.033c0-1.458-0.542-2.188-1.627-2.188c-0.547,0-1.007,0.211-1.381,0.632
			s-0.561,0.963-0.561,1.624v3.965h-1.121v-10.363h1.121v4.525h0.027c0.538-0.884,1.303-1.326,2.297-1.326
			c1.577,0,2.365,0.95,2.365,2.851V261.638z"/>
		<path fill="#2F2F2F" d="M316.134,261.638h-1.121v-1.094h-0.027c-0.488,0.838-1.206,1.258-2.153,1.258
			c-0.697,0-1.243-0.185-1.637-0.554s-0.591-0.859-0.591-1.47c0-1.308,0.77-2.069,2.311-2.283l2.099-0.294
			c0-1.189-0.481-1.784-1.442-1.784c-0.843,0-1.604,0.287-2.283,0.861v-1.148c0.688-0.438,1.481-0.656,2.379-0.656
			c1.645,0,2.468,0.871,2.468,2.611V261.638z M315.013,258.097l-1.688,0.232c-0.52,0.073-0.912,0.202-1.176,0.386
			s-0.396,0.512-0.396,0.981c0,0.342,0.122,0.621,0.366,0.837s0.568,0.325,0.974,0.325c0.556,0,1.015-0.195,1.377-0.584
			s0.543-0.883,0.543-1.48V258.097z"/>
		<path fill="#2F2F2F" d="M322.977,261.317c-0.538,0.324-1.176,0.485-1.914,0.485c-0.998,0-1.804-0.325-2.417-0.974
			s-0.919-1.491-0.919-2.526c0-1.153,0.331-2.079,0.991-2.779s1.542-1.049,2.646-1.049c0.615,0,1.158,0.114,1.627,0.342v1.148
			c-0.52-0.365-1.076-0.547-1.668-0.547c-0.715,0-1.302,0.256-1.76,0.769s-0.687,1.186-0.687,2.02c0,0.82,0.215,1.467,0.646,1.941
			s1.008,0.711,1.733,0.711c0.611,0,1.185-0.203,1.723-0.608V261.317z"/>
		<path fill="#2F2F2F" d="M329.272,261.317c-0.538,0.324-1.176,0.485-1.914,0.485c-0.998,0-1.804-0.325-2.417-0.974
			s-0.919-1.491-0.919-2.526c0-1.153,0.331-2.079,0.991-2.779s1.542-1.049,2.646-1.049c0.615,0,1.158,0.114,1.627,0.342v1.148
			c-0.52-0.365-1.076-0.547-1.668-0.547c-0.715,0-1.302,0.256-1.76,0.769s-0.687,1.186-0.687,2.02c0,0.82,0.215,1.467,0.646,1.941
			s1.008,0.711,1.733,0.711c0.611,0,1.185-0.203,1.723-0.608V261.317z"/>
		<path fill="#2F2F2F" d="M336.442,258.418H331.5c0.018,0.779,0.228,1.381,0.629,1.805s0.953,0.636,1.654,0.636
			c0.789,0,1.513-0.26,2.174-0.779v1.053c-0.615,0.447-1.429,0.67-2.44,0.67c-0.989,0-1.766-0.318-2.331-0.954
			s-0.848-1.53-0.848-2.683c0-1.089,0.309-1.977,0.926-2.663s1.384-1.029,2.3-1.029s1.625,0.296,2.126,0.889
			s0.752,1.415,0.752,2.468V258.418z M335.294,257.468c-0.004-0.647-0.161-1.151-0.468-1.511s-0.735-0.54-1.282-0.54
			c-0.529,0-0.978,0.189-1.347,0.567s-0.597,0.873-0.684,1.483H335.294z"/>
		<path fill="#2F2F2F" d="M337.684,261.385v-1.203c0.611,0.451,1.283,0.677,2.017,0.677c0.984,0,1.477-0.328,1.477-0.984
			c0-0.187-0.042-0.345-0.126-0.475s-0.198-0.245-0.342-0.345s-0.312-0.19-0.506-0.27s-0.402-0.163-0.625-0.25
			c-0.31-0.123-0.582-0.247-0.817-0.373s-0.431-0.267-0.588-0.424s-0.276-0.336-0.355-0.537s-0.12-0.435-0.12-0.704
			c0-0.328,0.075-0.619,0.226-0.872s0.351-0.465,0.602-0.636s0.537-0.3,0.858-0.386s0.653-0.13,0.995-0.13
			c0.606,0,1.148,0.105,1.627,0.314v1.135c-0.515-0.337-1.107-0.506-1.777-0.506c-0.209,0-0.399,0.024-0.567,0.072
			s-0.313,0.115-0.434,0.202s-0.214,0.19-0.28,0.311s-0.099,0.254-0.099,0.4c0,0.182,0.033,0.335,0.099,0.458
			s0.163,0.232,0.291,0.328s0.283,0.182,0.465,0.26s0.39,0.162,0.622,0.253c0.31,0.119,0.588,0.24,0.834,0.366
			s0.456,0.267,0.629,0.424s0.307,0.338,0.4,0.543s0.14,0.449,0.14,0.731c0,0.346-0.076,0.647-0.229,0.902s-0.356,0.467-0.612,0.636
			s-0.549,0.294-0.882,0.376s-0.681,0.123-1.046,0.123C338.837,261.802,338.213,261.663,337.684,261.385z"/>
		<path fill="#2F2F2F" d="M343.611,261.385v-1.203c0.611,0.451,1.283,0.677,2.017,0.677c0.984,0,1.477-0.328,1.477-0.984
			c0-0.187-0.042-0.345-0.126-0.475s-0.198-0.245-0.342-0.345s-0.312-0.19-0.506-0.27s-0.402-0.163-0.625-0.25
			c-0.31-0.123-0.582-0.247-0.817-0.373s-0.431-0.267-0.588-0.424s-0.276-0.336-0.355-0.537s-0.12-0.435-0.12-0.704
			c0-0.328,0.075-0.619,0.226-0.872s0.351-0.465,0.602-0.636s0.537-0.3,0.858-0.386s0.653-0.13,0.995-0.13
			c0.606,0,1.148,0.105,1.627,0.314v1.135c-0.515-0.337-1.107-0.506-1.777-0.506c-0.209,0-0.399,0.024-0.567,0.072
			s-0.313,0.115-0.434,0.202s-0.214,0.19-0.28,0.311s-0.099,0.254-0.099,0.4c0,0.182,0.033,0.335,0.099,0.458
			s0.163,0.232,0.291,0.328s0.283,0.182,0.465,0.26s0.39,0.162,0.622,0.253c0.31,0.119,0.588,0.24,0.834,0.366
			s0.456,0.267,0.629,0.424s0.307,0.338,0.4,0.543s0.14,0.449,0.14,0.731c0,0.346-0.076,0.647-0.229,0.902s-0.356,0.467-0.612,0.636
			s-0.549,0.294-0.882,0.376s-0.681,0.123-1.046,0.123C344.763,261.802,344.139,261.663,343.611,261.385z"/>
		<path fill="#2F2F2F" d="M357.057,261.57c-0.264,0.146-0.613,0.219-1.046,0.219c-1.226,0-1.839-0.684-1.839-2.051v-4.143h-1.203
			v-0.957h1.203v-1.709l1.121-0.362v2.071h1.764v0.957h-1.764v3.944c0,0.469,0.08,0.804,0.239,1.005s0.424,0.301,0.793,0.301
			c0.283,0,0.526-0.078,0.731-0.232V261.57z"/>
		<path fill="#2F2F2F" d="M361.314,261.802c-1.035,0-1.86-0.327-2.478-0.981s-0.926-1.521-0.926-2.601
			c0-1.176,0.321-2.094,0.964-2.755s1.511-0.991,2.604-0.991c1.043,0,1.858,0.321,2.444,0.964s0.878,1.534,0.878,2.673
			c0,1.117-0.315,2.011-0.947,2.683S362.376,261.802,361.314,261.802z M361.396,255.417c-0.72,0-1.29,0.245-1.709,0.735
			s-0.629,1.166-0.629,2.027c0,0.83,0.212,1.483,0.636,1.962s0.991,0.718,1.702,0.718c0.725,0,1.282-0.235,1.671-0.704
			s0.584-1.137,0.584-2.003c0-0.875-0.195-1.549-0.584-2.023S362.121,255.417,361.396,255.417z"/>
		<path fill="#2F2F2F" d="M372.327,261.638h-1.572l-3.09-3.363h-0.027v3.363h-1.121v-10.363h1.121v6.569h0.027l2.939-3.206h1.47
			l-3.247,3.377L372.327,261.638z"/>
		<path fill="#2F2F2F" d="M378.751,258.418h-4.942c0.018,0.779,0.228,1.381,0.629,1.805s0.953,0.636,1.654,0.636
			c0.789,0,1.513-0.26,2.174-0.779v1.053c-0.615,0.447-1.429,0.67-2.44,0.67c-0.989,0-1.766-0.318-2.331-0.954
			s-0.848-1.53-0.848-2.683c0-1.089,0.309-1.977,0.926-2.663s1.384-1.029,2.3-1.029s1.625,0.296,2.126,0.889
			s0.752,1.415,0.752,2.468V258.418z M377.603,257.468c-0.004-0.647-0.161-1.151-0.468-1.511s-0.735-0.54-1.282-0.54
			c-0.529,0-0.978,0.189-1.347,0.567s-0.597,0.873-0.684,1.483H377.603z"/>
		<path fill="#2F2F2F" d="M386.244,261.638h-1.121v-3.992c0-1.486-0.542-2.229-1.627-2.229c-0.561,0-1.024,0.211-1.391,0.632
			s-0.55,0.954-0.55,1.596v3.992h-1.121v-7h1.121v1.162h0.027c0.529-0.884,1.294-1.326,2.297-1.326c0.766,0,1.351,0.247,1.757,0.742
			s0.608,1.209,0.608,2.143V261.638z"/>
	</g>
	<g>
		<path fill="#2F2F2F" d="M133.745,36.003h-1.271l-1.039-2.748h-4.156l-0.978,2.748h-1.278l3.76-9.803h1.189L133.745,36.003z
			 M131.059,32.223l-1.538-4.177c-0.05-0.137-0.1-0.355-0.15-0.656h-0.027c-0.045,0.278-0.098,0.497-0.157,0.656l-1.524,4.177
			H131.059z"/>
		<path fill="#2F2F2F" d="M140.506,36.003h-1.121v-1.107h-0.027c-0.465,0.848-1.185,1.271-2.16,1.271
			c-1.668,0-2.502-0.994-2.502-2.98v-4.184h1.114v4.006c0,1.477,0.565,2.215,1.695,2.215c0.547,0,0.997-0.202,1.35-0.605
			s0.53-0.931,0.53-1.583v-4.033h1.121V36.003z"/>
		<path fill="#2F2F2F" d="M145.948,35.935c-0.264,0.146-0.613,0.219-1.046,0.219c-1.226,0-1.839-0.684-1.839-2.051V29.96h-1.203
			v-0.957h1.203v-1.709l1.121-0.362v2.071h1.764v0.957h-1.764v3.944c0,0.469,0.08,0.804,0.239,1.005s0.424,0.301,0.793,0.301
			c0.283,0,0.526-0.078,0.731-0.232V35.935z"/>
		<path fill="#2F2F2F" d="M153.14,36.003h-1.121V31.97c0-1.458-0.542-2.188-1.627-2.188c-0.547,0-1.007,0.211-1.381,0.632
			s-0.561,0.963-0.561,1.624v3.965h-1.121V25.64h1.121v4.525h0.027c0.538-0.884,1.303-1.326,2.297-1.326
			c1.577,0,2.365,0.95,2.365,2.851V36.003z"/>
		<path fill="#2F2F2F" d="M160.843,32.784h-4.942c0.018,0.779,0.228,1.381,0.629,1.805s0.953,0.636,1.654,0.636
			c0.789,0,1.513-0.26,2.174-0.779v1.053c-0.615,0.447-1.429,0.67-2.44,0.67c-0.989,0-1.766-0.318-2.331-0.954
			s-0.848-1.53-0.848-2.683c0-1.089,0.309-1.977,0.926-2.663s1.384-1.029,2.3-1.029s1.625,0.296,2.126,0.889
			s0.752,1.415,0.752,2.468V32.784z M159.695,31.833c-0.004-0.647-0.161-1.151-0.468-1.511s-0.735-0.54-1.282-0.54
			c-0.529,0-0.978,0.189-1.347,0.567s-0.597,0.873-0.684,1.483H159.695z"/>
		<path fill="#2F2F2F" d="M168.336,36.003h-1.121v-3.992c0-1.486-0.542-2.229-1.627-2.229c-0.561,0-1.024,0.211-1.391,0.632
			s-0.55,0.954-0.55,1.596v3.992h-1.121v-7h1.121v1.162h0.027c0.529-0.884,1.294-1.326,2.297-1.326c0.766,0,1.351,0.247,1.757,0.742
			s0.608,1.209,0.608,2.143V36.003z"/>
		<path fill="#2F2F2F" d="M173.565,35.935c-0.264,0.146-0.613,0.219-1.046,0.219c-1.226,0-1.839-0.684-1.839-2.051V29.96h-1.203
			v-0.957h1.203v-1.709l1.121-0.362v2.071h1.764v0.957h-1.764v3.944c0,0.469,0.08,0.804,0.239,1.005s0.424,0.301,0.793,0.301
			c0.283,0,0.526-0.078,0.731-0.232V35.935z"/>
		<path fill="#2F2F2F" d="M175.52,27.226c-0.201,0-0.372-0.068-0.513-0.205s-0.212-0.31-0.212-0.52s0.071-0.384,0.212-0.523
			s0.312-0.208,0.513-0.208c0.205,0,0.379,0.069,0.523,0.208s0.215,0.313,0.215,0.523c0,0.201-0.072,0.372-0.215,0.513
			S175.725,27.226,175.52,27.226z M176.067,36.003h-1.121v-7h1.121V36.003z"/>
		<path fill="#2F2F2F" d="M182.98,35.682c-0.538,0.324-1.176,0.485-1.914,0.485c-0.998,0-1.804-0.325-2.417-0.974
			s-0.919-1.491-0.919-2.526c0-1.153,0.331-2.079,0.991-2.779s1.542-1.049,2.646-1.049c0.615,0,1.158,0.114,1.627,0.342v1.148
			c-0.52-0.365-1.076-0.547-1.668-0.547c-0.715,0-1.302,0.256-1.76,0.769s-0.687,1.186-0.687,2.02c0,0.82,0.215,1.467,0.646,1.941
			s1.008,0.711,1.733,0.711c0.611,0,1.185-0.203,1.723-0.608V35.682z"/>
		<path fill="#2F2F2F" d="M189.723,36.003h-1.121v-1.094h-0.027c-0.488,0.838-1.206,1.258-2.153,1.258
			c-0.697,0-1.243-0.185-1.637-0.554s-0.591-0.859-0.591-1.47c0-1.308,0.77-2.069,2.311-2.283l2.099-0.294
			c0-1.189-0.481-1.784-1.442-1.784c-0.843,0-1.604,0.287-2.283,0.861v-1.148c0.688-0.438,1.481-0.656,2.379-0.656
			c1.645,0,2.468,0.871,2.468,2.611V36.003z M188.602,32.462l-1.688,0.232c-0.52,0.073-0.912,0.202-1.176,0.386
			s-0.396,0.512-0.396,0.981c0,0.342,0.122,0.621,0.366,0.837s0.568,0.325,0.974,0.325c0.556,0,1.015-0.195,1.377-0.584
			s0.543-0.883,0.543-1.48V32.462z"/>
		<path fill="#2F2F2F" d="M194.982,35.935c-0.264,0.146-0.613,0.219-1.046,0.219c-1.226,0-1.839-0.684-1.839-2.051V29.96h-1.203
			v-0.957h1.203v-1.709l1.121-0.362v2.071h1.764v0.957h-1.764v3.944c0,0.469,0.08,0.804,0.239,1.005s0.424,0.301,0.793,0.301
			c0.283,0,0.526-0.078,0.731-0.232V35.935z"/>
		<path fill="#2F2F2F" d="M196.937,27.226c-0.201,0-0.372-0.068-0.513-0.205s-0.212-0.31-0.212-0.52s0.071-0.384,0.212-0.523
			s0.312-0.208,0.513-0.208c0.205,0,0.379,0.069,0.523,0.208s0.215,0.313,0.215,0.523c0,0.201-0.072,0.372-0.215,0.513
			S197.142,27.226,196.937,27.226z M197.484,36.003h-1.121v-7h1.121V36.003z"/>
		<path fill="#2F2F2F" d="M202.578,36.167c-1.035,0-1.86-0.327-2.478-0.981s-0.926-1.521-0.926-2.601
			c0-1.176,0.321-2.094,0.964-2.755s1.511-0.991,2.604-0.991c1.043,0,1.858,0.321,2.444,0.964s0.878,1.534,0.878,2.673
			c0,1.117-0.315,2.011-0.947,2.683S203.64,36.167,202.578,36.167z M202.66,29.783c-0.72,0-1.29,0.245-1.709,0.735
			s-0.629,1.166-0.629,2.027c0,0.83,0.212,1.483,0.636,1.962s0.991,0.718,1.702,0.718c0.725,0,1.282-0.235,1.671-0.704
			s0.584-1.137,0.584-2.003c0-0.875-0.195-1.549-0.584-2.023S203.385,29.783,202.66,29.783z"/>
		<path fill="#2F2F2F" d="M213.591,36.003h-1.121v-3.992c0-1.486-0.542-2.229-1.627-2.229c-0.561,0-1.024,0.211-1.391,0.632
			s-0.55,0.954-0.55,1.596v3.992h-1.121v-7h1.121v1.162h0.027c0.529-0.884,1.294-1.326,2.297-1.326c0.766,0,1.351,0.247,1.757,0.742
			s0.608,1.209,0.608,2.143V36.003z"/>
		<path fill="#2F2F2F" d="M225.512,36.003h-1.121v-1.189h-0.027c-0.52,0.902-1.322,1.354-2.406,1.354
			c-0.879,0-1.583-0.313-2.109-0.94s-0.79-1.48-0.79-2.56c0-1.158,0.292-2.085,0.875-2.782s1.36-1.046,2.331-1.046
			c0.961,0,1.661,0.378,2.099,1.135h0.027V25.64h1.121V36.003z M224.391,32.838v-1.032c0-0.565-0.187-1.043-0.561-1.436
			s-0.848-0.588-1.422-0.588c-0.684,0-1.221,0.25-1.613,0.752s-0.588,1.194-0.588,2.078c0,0.807,0.188,1.443,0.564,1.911
			s0.881,0.701,1.514,0.701c0.625,0,1.131-0.226,1.521-0.677S224.391,33.526,224.391,32.838z"/>
		<path fill="#2F2F2F" d="M233.334,32.784h-4.942c0.018,0.779,0.228,1.381,0.629,1.805s0.953,0.636,1.654,0.636
			c0.789,0,1.513-0.26,2.174-0.779v1.053c-0.615,0.447-1.429,0.67-2.44,0.67c-0.989,0-1.766-0.318-2.331-0.954
			s-0.848-1.53-0.848-2.683c0-1.089,0.309-1.977,0.926-2.663s1.384-1.029,2.3-1.029s1.625,0.296,2.126,0.889
			s0.752,1.415,0.752,2.468V32.784z M232.185,31.833c-0.004-0.647-0.161-1.151-0.468-1.511s-0.735-0.54-1.282-0.54
			c-0.529,0-0.978,0.189-1.347,0.567s-0.597,0.873-0.684,1.483H232.185z"/>
		<path fill="#2F2F2F" d="M236.129,36.003h-1.121V25.64h1.121V36.003z"/>
		<path fill="#2F2F2F" d="M243.968,32.784h-4.942c0.018,0.779,0.228,1.381,0.629,1.805s0.953,0.636,1.654,0.636
			c0.789,0,1.513-0.26,2.174-0.779v1.053c-0.615,0.447-1.429,0.67-2.44,0.67c-0.989,0-1.766-0.318-2.331-0.954
			s-0.848-1.53-0.848-2.683c0-1.089,0.309-1.977,0.926-2.663s1.384-1.029,2.3-1.029s1.625,0.296,2.126,0.889
			s0.752,1.415,0.752,2.468V32.784z M242.819,31.833c-0.004-0.647-0.161-1.151-0.468-1.511s-0.735-0.54-1.282-0.54
			c-0.529,0-0.978,0.189-1.347,0.567s-0.597,0.873-0.684,1.483H242.819z"/>
		<path fill="#2F2F2F" d="M251.668,35.443c0,2.57-1.23,3.855-3.691,3.855c-0.866,0-1.623-0.164-2.27-0.492v-1.121
			c0.789,0.438,1.541,0.656,2.256,0.656c1.723,0,2.584-0.916,2.584-2.748v-0.766h-0.027c-0.533,0.893-1.335,1.34-2.406,1.34
			c-0.871,0-1.571-0.311-2.102-0.933s-0.796-1.457-0.796-2.505c0-1.189,0.286-2.135,0.858-2.837s1.354-1.053,2.348-1.053
			c0.943,0,1.643,0.378,2.099,1.135h0.027v-0.971h1.121V35.443z M250.547,32.838v-1.032c0-0.556-0.188-1.032-0.564-1.429
			s-0.844-0.595-1.405-0.595c-0.693,0-1.235,0.252-1.627,0.755s-0.588,1.209-0.588,2.116c0,0.779,0.188,1.402,0.564,1.87
			s0.874,0.701,1.494,0.701c0.629,0,1.141-0.223,1.535-0.67S250.547,33.535,250.547,32.838z"/>
		<path fill="#2F2F2F" d="M258.825,36.003h-1.121v-1.094h-0.027c-0.488,0.838-1.206,1.258-2.153,1.258
			c-0.697,0-1.243-0.185-1.637-0.554s-0.591-0.859-0.591-1.47c0-1.308,0.77-2.069,2.311-2.283l2.099-0.294
			c0-1.189-0.481-1.784-1.442-1.784c-0.843,0-1.604,0.287-2.283,0.861v-1.148c0.688-0.438,1.481-0.656,2.379-0.656
			c1.645,0,2.468,0.871,2.468,2.611V36.003z M257.704,32.462l-1.688,0.232c-0.52,0.073-0.912,0.202-1.176,0.386
			s-0.396,0.512-0.396,0.981c0,0.342,0.122,0.621,0.366,0.837s0.568,0.325,0.974,0.325c0.556,0,1.015-0.195,1.377-0.584
			s0.543-0.883,0.543-1.48V32.462z"/>
		<path fill="#2F2F2F" d="M264.084,35.935c-0.264,0.146-0.613,0.219-1.046,0.219c-1.226,0-1.839-0.684-1.839-2.051V29.96h-1.203
			v-0.957h1.203v-1.709l1.121-0.362v2.071h1.764v0.957h-1.764v3.944c0,0.469,0.08,0.804,0.239,1.005s0.424,0.301,0.793,0.301
			c0.283,0,0.526-0.078,0.731-0.232V35.935z"/>
		<path fill="#2F2F2F" d="M266.039,27.226c-0.201,0-0.372-0.068-0.513-0.205s-0.212-0.31-0.212-0.52s0.071-0.384,0.212-0.523
			s0.312-0.208,0.513-0.208c0.205,0,0.379,0.069,0.523,0.208s0.215,0.313,0.215,0.523c0,0.201-0.072,0.372-0.215,0.513
			S266.244,27.226,266.039,27.226z M266.586,36.003h-1.121v-7h1.121V36.003z"/>
		<path fill="#2F2F2F" d="M271.68,36.167c-1.035,0-1.86-0.327-2.478-0.981s-0.926-1.521-0.926-2.601
			c0-1.176,0.321-2.094,0.964-2.755s1.511-0.991,2.604-0.991c1.043,0,1.858,0.321,2.444,0.964s0.878,1.534,0.878,2.673
			c0,1.117-0.315,2.011-0.947,2.683S272.742,36.167,271.68,36.167z M271.762,29.783c-0.72,0-1.29,0.245-1.709,0.735
			s-0.629,1.166-0.629,2.027c0,0.83,0.212,1.483,0.636,1.962s0.991,0.718,1.702,0.718c0.725,0,1.282-0.235,1.671-0.704
			s0.584-1.137,0.584-2.003c0-0.875-0.195-1.549-0.584-2.023S272.487,29.783,271.762,29.783z"/>
		<path fill="#2F2F2F" d="M282.693,36.003h-1.121v-3.992c0-1.486-0.542-2.229-1.627-2.229c-0.561,0-1.024,0.211-1.391,0.632
			s-0.55,0.954-0.55,1.596v3.992h-1.121v-7h1.121v1.162h0.027c0.529-0.884,1.294-1.326,2.297-1.326c0.766,0,1.351,0.247,1.757,0.742
			s0.608,1.209,0.608,2.143V36.003z"/>
	</g>
	<g>
		<path fill="#2F2F2F" d="M183.248,310.288h-1.367l-1.641-2.748c-0.15-0.255-0.296-0.473-0.438-0.653s-0.286-0.327-0.434-0.441
			s-0.308-0.197-0.479-0.25s-0.363-0.079-0.578-0.079h-0.943v4.17h-1.148v-9.803h2.926c0.428,0,0.824,0.054,1.186,0.161
			s0.677,0.27,0.943,0.489s0.475,0.491,0.625,0.817s0.226,0.708,0.226,1.145c0,0.342-0.051,0.655-0.154,0.94
			s-0.249,0.539-0.438,0.762s-0.417,0.414-0.684,0.571s-0.566,0.279-0.899,0.366v0.027c0.164,0.073,0.307,0.156,0.427,0.25
			s0.236,0.204,0.345,0.332s0.218,0.272,0.325,0.434s0.227,0.35,0.359,0.564L183.248,310.288z M177.369,301.524v3.555h1.559
			c0.287,0,0.553-0.043,0.796-0.13s0.455-0.211,0.632-0.373s0.317-0.36,0.417-0.595s0.15-0.498,0.15-0.79
			c0-0.524-0.17-0.933-0.509-1.227s-0.831-0.441-1.473-0.441H177.369z"/>
		<path fill="#2F2F2F" d="M189.861,307.068h-4.942c0.018,0.779,0.228,1.381,0.629,1.805s0.953,0.636,1.654,0.636
			c0.789,0,1.513-0.26,2.174-0.779v1.053c-0.615,0.447-1.429,0.67-2.44,0.67c-0.989,0-1.766-0.318-2.331-0.954
			s-0.848-1.53-0.848-2.683c0-1.089,0.309-1.977,0.926-2.663s1.384-1.029,2.3-1.029s1.625,0.296,2.126,0.889
			s0.752,1.415,0.752,2.468V307.068z M188.712,306.118c-0.004-0.647-0.161-1.151-0.468-1.511s-0.735-0.54-1.282-0.54
			c-0.529,0-0.978,0.189-1.347,0.567s-0.597,0.873-0.684,1.483H188.712z"/>
		<path fill="#2F2F2F" d="M191.103,310.035v-1.203c0.611,0.451,1.283,0.677,2.017,0.677c0.984,0,1.477-0.328,1.477-0.984
			c0-0.187-0.042-0.345-0.126-0.475s-0.198-0.245-0.342-0.345s-0.312-0.19-0.506-0.27s-0.402-0.163-0.625-0.25
			c-0.31-0.123-0.582-0.247-0.817-0.373s-0.431-0.267-0.588-0.424s-0.276-0.336-0.355-0.537s-0.12-0.435-0.12-0.704
			c0-0.328,0.075-0.619,0.226-0.872s0.351-0.465,0.602-0.636s0.537-0.3,0.858-0.386s0.653-0.13,0.995-0.13
			c0.606,0,1.148,0.105,1.627,0.314v1.135c-0.515-0.337-1.107-0.506-1.777-0.506c-0.209,0-0.399,0.024-0.567,0.072
			s-0.313,0.115-0.434,0.202s-0.214,0.19-0.28,0.311s-0.099,0.254-0.099,0.4c0,0.182,0.033,0.335,0.099,0.458
			s0.163,0.232,0.291,0.328s0.283,0.182,0.465,0.26s0.39,0.162,0.622,0.253c0.31,0.119,0.588,0.24,0.834,0.366
			s0.456,0.267,0.629,0.424s0.307,0.338,0.4,0.543s0.14,0.449,0.14,0.731c0,0.346-0.076,0.647-0.229,0.902s-0.356,0.467-0.612,0.636
			s-0.549,0.294-0.882,0.376s-0.681,0.123-1.046,0.123C192.256,310.452,191.632,310.313,191.103,310.035z"/>
		<path fill="#2F2F2F" d="M198.477,309.276h-0.027v4.231h-1.121v-10.22h1.121v1.23h0.027c0.551-0.93,1.358-1.395,2.42-1.395
			c0.902,0,1.606,0.313,2.112,0.94s0.759,1.466,0.759,2.519c0,1.171-0.285,2.109-0.854,2.813s-1.349,1.056-2.338,1.056
			C199.669,310.452,198.969,310.06,198.477,309.276z M198.449,306.453v0.978c0,0.579,0.188,1.07,0.564,1.473
			s0.854,0.605,1.432,0.605c0.679,0,1.211-0.26,1.596-0.779s0.578-1.242,0.578-2.167c0-0.779-0.18-1.39-0.54-1.832
			s-0.848-0.663-1.463-0.663c-0.652,0-1.176,0.227-1.572,0.68S198.449,305.769,198.449,306.453z"/>
		<path fill="#2F2F2F" d="M208.473,310.452c-1.035,0-1.86-0.327-2.478-0.981s-0.926-1.521-0.926-2.601
			c0-1.176,0.321-2.094,0.964-2.755s1.511-0.991,2.604-0.991c1.043,0,1.858,0.321,2.444,0.964s0.878,1.534,0.878,2.673
			c0,1.117-0.315,2.011-0.947,2.683S209.535,310.452,208.473,310.452z M208.555,304.067c-0.72,0-1.29,0.245-1.709,0.735
			s-0.629,1.166-0.629,2.027c0,0.83,0.212,1.483,0.636,1.962s0.991,0.718,1.702,0.718c0.725,0,1.282-0.235,1.671-0.704
			s0.584-1.137,0.584-2.003c0-0.875-0.195-1.549-0.584-2.023S209.28,304.067,208.555,304.067z"/>
		<path fill="#2F2F2F" d="M219.486,310.288h-1.121v-3.992c0-1.486-0.542-2.229-1.627-2.229c-0.561,0-1.024,0.211-1.391,0.632
			s-0.55,0.954-0.55,1.596v3.992h-1.121v-7h1.121v1.162h0.027c0.529-0.884,1.294-1.326,2.297-1.326c0.766,0,1.351,0.247,1.757,0.742
			s0.608,1.209,0.608,2.143V310.288z"/>
		<path fill="#2F2F2F" d="M221.134,310.035v-1.203c0.611,0.451,1.283,0.677,2.017,0.677c0.984,0,1.477-0.328,1.477-0.984
			c0-0.187-0.042-0.345-0.126-0.475s-0.198-0.245-0.342-0.345s-0.312-0.19-0.506-0.27s-0.402-0.163-0.625-0.25
			c-0.31-0.123-0.582-0.247-0.817-0.373s-0.431-0.267-0.588-0.424s-0.276-0.336-0.355-0.537s-0.12-0.435-0.12-0.704
			c0-0.328,0.075-0.619,0.226-0.872s0.351-0.465,0.602-0.636s0.537-0.3,0.858-0.386s0.653-0.13,0.995-0.13
			c0.606,0,1.148,0.105,1.627,0.314v1.135c-0.515-0.337-1.107-0.506-1.777-0.506c-0.209,0-0.399,0.024-0.567,0.072
			s-0.313,0.115-0.434,0.202s-0.214,0.19-0.28,0.311s-0.099,0.254-0.099,0.4c0,0.182,0.033,0.335,0.099,0.458
			s0.163,0.232,0.291,0.328s0.283,0.182,0.465,0.26s0.39,0.162,0.622,0.253c0.31,0.119,0.588,0.24,0.834,0.366
			s0.456,0.267,0.629,0.424s0.307,0.338,0.4,0.543s0.14,0.449,0.14,0.731c0,0.346-0.076,0.647-0.229,0.902s-0.356,0.467-0.612,0.636
			s-0.549,0.294-0.882,0.376s-0.681,0.123-1.046,0.123C222.286,310.452,221.662,310.313,221.134,310.035z"/>
		<path fill="#2F2F2F" d="M233.089,307.068h-4.942c0.018,0.779,0.228,1.381,0.629,1.805s0.953,0.636,1.654,0.636
			c0.789,0,1.513-0.26,2.174-0.779v1.053c-0.615,0.447-1.429,0.67-2.44,0.67c-0.989,0-1.766-0.318-2.331-0.954
			s-0.848-1.53-0.848-2.683c0-1.089,0.309-1.977,0.926-2.663s1.384-1.029,2.3-1.029s1.625,0.296,2.126,0.889
			s0.752,1.415,0.752,2.468V307.068z M231.94,306.118c-0.004-0.647-0.161-1.151-0.468-1.511s-0.735-0.54-1.282-0.54
			c-0.529,0-0.978,0.189-1.347,0.567s-0.597,0.873-0.684,1.483H231.94z"/>
	</g>
	<g>
		<rect x="47.543" y="188.027" fill="none" width="50.264" height="33.608"/>
		<path fill="#2F2F2F" d="M61.229,199.929h-1.271l-1.039-2.748h-4.156l-0.978,2.748h-1.278l3.76-9.803h1.189L61.229,199.929z
			 M58.542,196.148l-1.538-4.177c-0.05-0.137-0.1-0.355-0.15-0.656h-0.027c-0.045,0.278-0.098,0.497-0.157,0.656l-1.524,4.177
			H58.542z"/>
		<path fill="#2F2F2F" d="M67.133,199.607c-0.538,0.324-1.176,0.485-1.914,0.485c-0.998,0-1.804-0.325-2.417-0.974
			s-0.919-1.491-0.919-2.526c0-1.153,0.331-2.079,0.991-2.779s1.542-1.049,2.646-1.049c0.615,0,1.158,0.114,1.627,0.342v1.148
			c-0.52-0.365-1.076-0.547-1.668-0.547c-0.715,0-1.302,0.256-1.76,0.769c-0.458,0.513-0.687,1.186-0.687,2.02
			c0,0.82,0.215,1.467,0.646,1.941c0.431,0.474,1.008,0.711,1.733,0.711c0.611,0,1.185-0.203,1.723-0.608V199.607z"/>
		<path fill="#2F2F2F" d="M73.427,199.607c-0.538,0.324-1.176,0.485-1.914,0.485c-0.998,0-1.804-0.325-2.417-0.974
			s-0.919-1.491-0.919-2.526c0-1.153,0.331-2.079,0.991-2.779s1.542-1.049,2.646-1.049c0.615,0,1.158,0.114,1.627,0.342v1.148
			c-0.52-0.365-1.076-0.547-1.668-0.547c-0.715,0-1.302,0.256-1.76,0.769s-0.687,1.186-0.687,2.02c0,0.82,0.215,1.467,0.646,1.941
			s1.008,0.711,1.733,0.711c0.611,0,1.185-0.203,1.723-0.608V199.607z"/>
		<path fill="#2F2F2F" d="M80.597,196.709h-4.942c0.018,0.779,0.228,1.381,0.629,1.805s0.953,0.636,1.654,0.636
			c0.789,0,1.513-0.26,2.174-0.779v1.053c-0.615,0.447-1.429,0.67-2.44,0.67c-0.989,0-1.766-0.318-2.331-0.954
			s-0.848-1.53-0.848-2.683c0-1.089,0.309-1.977,0.926-2.663s1.384-1.029,2.3-1.029s1.625,0.296,2.126,0.889
			s0.752,1.415,0.752,2.468V196.709z M79.449,195.759c-0.004-0.647-0.161-1.151-0.468-1.511s-0.735-0.54-1.282-0.54
			c-0.529,0-0.978,0.189-1.347,0.567s-0.597,0.873-0.684,1.483H79.449z"/>
		<path fill="#2F2F2F" d="M81.84,199.676v-1.203c0.611,0.451,1.283,0.677,2.017,0.677c0.984,0,1.477-0.328,1.477-0.984
			c0-0.187-0.042-0.345-0.126-0.475s-0.198-0.245-0.342-0.345s-0.312-0.19-0.506-0.27s-0.402-0.163-0.625-0.25
			c-0.31-0.123-0.582-0.247-0.817-0.373s-0.431-0.267-0.588-0.424s-0.276-0.336-0.355-0.537s-0.12-0.435-0.12-0.704
			c0-0.328,0.075-0.619,0.226-0.872s0.351-0.465,0.602-0.636s0.537-0.3,0.858-0.386s0.653-0.13,0.995-0.13
			c0.606,0,1.148,0.105,1.627,0.314v1.135c-0.515-0.337-1.107-0.506-1.777-0.506c-0.209,0-0.399,0.024-0.567,0.072
			s-0.313,0.115-0.434,0.202s-0.214,0.19-0.28,0.311s-0.099,0.254-0.099,0.4c0,0.182,0.033,0.335,0.099,0.458
			s0.163,0.232,0.291,0.328s0.283,0.182,0.465,0.26s0.39,0.162,0.622,0.253c0.31,0.119,0.588,0.24,0.834,0.366
			s0.456,0.267,0.629,0.424s0.307,0.338,0.4,0.543s0.14,0.449,0.14,0.731c0,0.346-0.076,0.647-0.229,0.902s-0.356,0.467-0.612,0.636
			s-0.549,0.294-0.882,0.376s-0.681,0.123-1.046,0.123C82.992,200.093,82.368,199.953,81.84,199.676z"/>
		<path fill="#2F2F2F" d="M87.766,199.676v-1.203c0.611,0.451,1.283,0.677,2.017,0.677c0.984,0,1.477-0.328,1.477-0.984
			c0-0.187-0.042-0.345-0.126-0.475s-0.198-0.245-0.342-0.345s-0.312-0.19-0.506-0.27s-0.402-0.163-0.625-0.25
			c-0.31-0.123-0.582-0.247-0.817-0.373s-0.431-0.267-0.588-0.424s-0.276-0.336-0.355-0.537s-0.12-0.435-0.12-0.704
			c0-0.328,0.075-0.619,0.226-0.872s0.351-0.465,0.602-0.636s0.537-0.3,0.858-0.386s0.653-0.13,0.995-0.13
			c0.606,0,1.148,0.105,1.627,0.314v1.135c-0.515-0.337-1.107-0.506-1.777-0.506c-0.209,0-0.399,0.024-0.567,0.072
			s-0.313,0.115-0.434,0.202s-0.214,0.19-0.28,0.311s-0.099,0.254-0.099,0.4c0,0.182,0.033,0.335,0.099,0.458
			s0.163,0.232,0.291,0.328s0.283,0.182,0.465,0.26s0.39,0.162,0.622,0.253c0.31,0.119,0.588,0.24,0.834,0.366
			s0.456,0.267,0.629,0.424s0.307,0.338,0.4,0.543s0.14,0.449,0.14,0.731c0,0.346-0.076,0.647-0.229,0.902s-0.356,0.467-0.612,0.636
			s-0.549,0.294-0.882,0.376s-0.681,0.123-1.046,0.123C88.919,200.093,88.295,199.953,87.766,199.676z"/>
		<path fill="#2F2F2F" d="M59.783,216.66c-0.264,0.146-0.613,0.219-1.046,0.219c-1.226,0-1.839-0.684-1.839-2.051v-4.143h-1.203
			v-0.957h1.203v-1.709l1.121-0.362v2.071h1.764v0.957H58.02v3.944c0,0.469,0.08,0.804,0.239,1.005s0.424,0.301,0.793,0.301
			c0.283,0,0.526-0.078,0.731-0.232V216.66z"/>
		<path fill="#2F2F2F" d="M64.041,216.892c-1.035,0-1.86-0.327-2.478-0.981s-0.926-1.521-0.926-2.601
			c0-1.176,0.321-2.094,0.964-2.755s1.511-0.991,2.604-0.991c1.043,0,1.858,0.321,2.444,0.964s0.878,1.534,0.878,2.673
			c0,1.117-0.315,2.011-0.947,2.683S65.103,216.892,64.041,216.892z M64.123,210.508c-0.72,0-1.29,0.245-1.709,0.735
			s-0.629,1.166-0.629,2.027c0,0.83,0.212,1.483,0.636,1.962s0.991,0.718,1.702,0.718c0.725,0,1.282-0.235,1.671-0.704
			s0.584-1.137,0.584-2.003c0-0.875-0.195-1.549-0.584-2.023S64.848,210.508,64.123,210.508z"/>
		<path fill="#2F2F2F" d="M75.053,216.728h-1.572l-3.09-3.363h-0.027v3.363h-1.121v-10.363h1.121v6.569h0.027l2.939-3.206h1.47
			l-3.247,3.377L75.053,216.728z"/>
		<path fill="#2F2F2F" d="M81.478,213.509h-4.942c0.018,0.779,0.228,1.381,0.629,1.805s0.953,0.636,1.654,0.636
			c0.789,0,1.513-0.26,2.174-0.779v1.053c-0.615,0.447-1.429,0.67-2.44,0.67c-0.989,0-1.766-0.318-2.331-0.954
			s-0.848-1.53-0.848-2.683c0-1.089,0.309-1.977,0.926-2.663s1.384-1.029,2.3-1.029s1.625,0.296,2.126,0.889
			s0.752,1.415,0.752,2.468V213.509z M80.329,212.558c-0.004-0.647-0.161-1.151-0.468-1.511s-0.735-0.54-1.282-0.54
			c-0.529,0-0.978,0.189-1.347,0.567s-0.597,0.873-0.684,1.483H80.329z"/>
		<path fill="#2F2F2F" d="M88.971,216.728H87.85v-3.992c0-1.486-0.542-2.229-1.627-2.229c-0.561,0-1.024,0.211-1.391,0.632
			s-0.55,0.954-0.55,1.596v3.992H83.16v-7h1.121v1.162h0.027c0.529-0.884,1.294-1.326,2.297-1.326c0.766,0,1.351,0.247,1.757,0.742
			s0.608,1.209,0.608,2.143V216.728z"/>
	</g>
	<g>
		<rect x="127.957" y="97.219" fill="none" width="50.264" height="33.608"/>
		<path fill="#2F2F2F" d="M130.391,109.12h-1.148v-9.803h1.148V109.12z"/>
		<path fill="#2F2F2F" d="M132.813,109.12v-9.803h2.707c3.455,0,5.182,1.593,5.182,4.778c0,1.513-0.479,2.729-1.439,3.647
			s-2.243,1.377-3.852,1.377H132.813z M133.961,100.357v7.725h1.463c1.285,0,2.286-0.344,3.001-1.032s1.073-1.664,1.073-2.926
			c0-2.511-1.335-3.767-4.006-3.767H133.961z"/>
		<path fill="#2F2F2F" d="M132.339,125.852c-0.264,0.146-0.613,0.219-1.046,0.219c-1.226,0-1.839-0.684-1.839-2.051v-4.143h-1.203
			v-0.957h1.203v-1.709l1.121-0.362v2.071h1.764v0.957h-1.764v3.944c0,0.469,0.08,0.804,0.239,1.005s0.424,0.301,0.793,0.301
			c0.283,0,0.526-0.078,0.731-0.232V125.852z"/>
		<path fill="#2F2F2F" d="M136.597,126.084c-1.035,0-1.86-0.327-2.478-0.981s-0.926-1.521-0.926-2.601
			c0-1.176,0.321-2.094,0.964-2.755s1.511-0.991,2.604-0.991c1.043,0,1.858,0.321,2.444,0.964s0.878,1.534,0.878,2.673
			c0,1.117-0.315,2.011-0.947,2.683S137.659,126.084,136.597,126.084z M136.679,119.7c-0.72,0-1.29,0.245-1.709,0.735
			s-0.629,1.166-0.629,2.027c0,0.83,0.212,1.483,0.636,1.962s0.991,0.718,1.702,0.718c0.725,0,1.282-0.235,1.671-0.704
			s0.584-1.137,0.584-2.003c0-0.875-0.195-1.549-0.584-2.023S137.404,119.7,136.679,119.7z"/>
		<path fill="#2F2F2F" d="M147.609,125.92h-1.572l-3.09-3.363h-0.027v3.363h-1.121v-10.363h1.121v6.569h0.027l2.939-3.206h1.47
			l-3.247,3.377L147.609,125.92z"/>
		<path fill="#2F2F2F" d="M154.033,122.701h-4.942c0.018,0.779,0.228,1.381,0.629,1.805s0.953,0.636,1.654,0.636
			c0.789,0,1.513-0.26,2.174-0.779v1.053c-0.615,0.447-1.429,0.67-2.44,0.67c-0.989,0-1.766-0.318-2.331-0.954
			s-0.848-1.53-0.848-2.683c0-1.089,0.309-1.977,0.926-2.663s1.384-1.029,2.3-1.029s1.625,0.296,2.126,0.889
			s0.752,1.415,0.752,2.468V122.701z M152.885,121.75c-0.004-0.647-0.161-1.151-0.468-1.511s-0.735-0.54-1.282-0.54
			c-0.529,0-0.978,0.189-1.347,0.567s-0.597,0.873-0.684,1.483H152.885z"/>
		<path fill="#2F2F2F" d="M161.527,125.92h-1.121v-3.992c0-1.486-0.542-2.229-1.627-2.229c-0.561,0-1.024,0.211-1.391,0.632
			s-0.55,0.954-0.55,1.596v3.992h-1.121v-7h1.121v1.162h0.027c0.529-0.884,1.294-1.326,2.297-1.326c0.766,0,1.351,0.247,1.757,0.742
			s0.608,1.209,0.608,2.143V125.92z"/>
	</g>
	<g>
	</g>
	<g>
	</g>
	<g>
	</g>
	<g>
	</g>
	<g>
	</g>
	<g>
	</g>
	<g>
	</g>
	<g>
	</g>
	<g>
	</g>
	<g>
	</g>
	<g>
	</g>
	<g>
	</g>
	<g>
	</g>
	<g>
	</g>
	<g>
	</g>
	<g>
	</g>
	<g>
	</g>
	<g>
	</g>
	<g>
	</g>
	<g>
	</g>
	<g>
	</g>
	<g>
	</g>
	<g>
	</g>
	<g>
	</g>
	<g>
	</g>
	<g>
	</g>
	<g>
	</g>
	<g>
	</g>
	<g>
	</g>
	<g>
	</g>
	<g>
	</g>
	<g>
	</g>
	<g>
	</g>
	<g>
	</g>
	<g>
	</g>
	<g>
	</g>
	<g>
	</g>
</g>
</svg>
