<?xml version="1.0" encoding="UTF-8"?>
<svg id="Layer_1" xmlns="http://www.w3.org/2000/svg" version="1.1" viewBox="0 0 705.6 108">
  <!-- Generator: Adobe Illustrator 29.2.1, SVG Export Plug-In . SVG Version: 2.1.0 Build 116)  -->
  <defs>
    <style>
      .st0 {
        fill: #00a323;
      }
    </style>
  </defs>
  <path class="st0" d="M466.9639,5.1216h-38.4739c-20.834,0-37.6568,17.0657-35.9926,37.8326,1.4397,17.9916,16.5451,32.185,34.9001,32.185h13.3347c3.5228,0,6.7564-2.3749,7.4276-5.8305.905-4.6524-2.6502-8.7402-7.1428-8.7402h-12.8115c-10.9229,0-20.5148-8.2194-21.1998-19.1212-.7454-11.8603,8.6867-21.7554,20.3918-21.7554l36.4788-.0739c1.2544-.0022,2.3585-.8311,2.715-2.0346l2.7428-9.2909c.4677-1.5832-.7174-3.171-2.3701-3.171Z"/>
  <path class="st0" d="M441.3706,32.7228h-13.411c-3.4766,0-6.6407,2.3494-7.3375,5.7566-.9583,4.6824,2.6109,8.8141,7.1291,8.8141h12.8996c10.8718,0,20.3803,8.1868,21.107,19.0331.7962,11.8998-8.6545,21.8433-20.3872,21.8433h-36.8977c-1.0371,0-1.949.6828-2.2429,1.6781l-2.8864,9.8279c-.4491,1.5301.699,3.0646,2.2939,3.0646h38.8047c19.5865,0,36.2657-16.0264,35.9371-35.6106-.3219-19.0311-15.9039-34.407-35.0088-34.407Z"/>
  <path d="M93.8202,81.1207l-9.8211-5.3953c-1.2152-.6689-2.7336-.2984-3.5068.8471-2.4279,3.5993-5.7262,6.5759-9.8047,8.8443-4.0506,2.2544-8.5249,3.3979-13.2929,3.3979-4.6896,0-9.0849-.8588-13.064-2.5532-3.9787-1.6917-7.4739-4.0944-10.3904-7.1381-2.9233-3.0484-5.2472-6.7566-6.9091-11.0177-1.6665-4.2751-2.5138-9.0225-2.5138-14.1054,0-5.1731.8449-9.939,2.5114-14.1678,1.6621-4.2195,3.9882-7.9067,6.9115-10.955,2.9142-3.0415,6.4093-5.4418,10.3904-7.1384,3.9838-1.6944,8.379-2.5532,13.064-2.5532,4.7589,0,9.2261,1.1645,13.2745,3.4559,4.0969,2.3261,7.4089,5.289,9.8419,8.8095.7822,1.1342,2.2958,1.4883,3.5019.8145l9.6821-5.3953c.6643-.3703,1.141-1.0069,1.3077-1.75.1669-.7428.0095-1.5229-.4349-2.1408-1.9421-2.7175-4.1757-5.2704-6.6339-7.5853-2.4881-2.3423-5.3096-4.4231-8.393-6.1868-3.0946-1.7661-6.5226-3.157-10.1843-4.1341-3.6686-.9768-7.6937-1.4719-11.9619-1.4719-6.9509,0-13.5454,1.2267-19.5981,3.6478-6.0644,2.4233-11.432,5.8999-15.9572,10.3255-4.5274,4.4302-8.1265,9.8-10.6958,15.9572-2.5716,6.1591-3.8722,13.0454-3.8722,20.4682s1.3006,14.3115,3.8722,20.466c2.5694,6.1618,6.1684,11.5316,10.6958,15.9594,4.5252,4.428,9.8928,7.9047,15.955,10.3233,6.0549,2.4211,12.6494,3.6502,19.6003,3.6502,8.6681,0,16.1422-1.8748,22.2135-5.5761,5.944-3.627,11.0152-8.2584,15.0773-13.7719.4562-.6202.6251-1.4073.4584-2.1597-.1667-.7546-.6481-1.398-1.3239-1.7708Z"/>
  <path d="M187.0558,18.0735c-4.245-4.5391-9.4114-8.1242-15.36-10.6635-5.9347-2.5275-12.5706-3.81-19.7251-3.81s-13.7907,1.2825-19.7232,3.8124c-5.9462,2.5344-11.1124,6.1197-15.3598,10.6589-4.2312,4.5227-7.5574,9.9136-9.8835,16.0243-2.3217,6.0896-3.4975,12.786-3.4975,19.9035s1.1758,13.8159,3.4975,19.9058c2.3261,6.1107,5.6523,11.5013,9.8835,16.024,4.2496,4.5438,9.4182,8.1291,15.3598,10.6613,5.9325,2.5253,12.5686,3.8098,19.7232,3.8098s13.7904-1.2823,19.7251-3.812c5.944-2.5322,11.1126-6.12,15.36-10.6591,4.2312-4.5227,7.5549-9.9134,9.8835-16.024,2.3193-6.0899,3.495-12.786,3.495-19.9058s-1.1758-13.8163-3.495-19.9035c-2.3285-6.1107-5.6523-11.5015-9.8835-16.022ZM180.9221,67.9795c-1.4954,4.2241-3.6272,7.9343-6.3375,11.0245-2.6849,3.0645-5.9672,5.4927-9.7516,7.2147-3.7775,1.7221-8.1059,2.597-12.8623,2.597-4.7613,0-9.1152-.8774-12.9411-2.5995-3.8284-1.7245-7.1291-4.15-9.8096-7.2123-2.7079-3.0831-4.812-6.7842-6.2587-11.0015-1.4651-4.2611-2.2081-8.9715-2.2081-14.0034s.7431-9.7702,2.2106-14.0778c1.4443-4.2496,3.5459-7.9461,6.2448-10.9807,2.6827-3.018,5.9856-5.4254,9.8186-7.1567,3.833-1.7221,8.1869-2.5993,12.9436-2.5993,4.7518,0,9.0802.8748,12.8623,2.597,3.7914,1.7265,7.0757,4.136,9.7631,7.159,2.7013,3.0415,4.8306,6.7448,6.3214,11.0017,1.5067,4.3098,2.2706,9.0408,2.2706,14.0567s-.7614,9.719-2.2659,13.9804Z"/>
  <path d="M215.5479,102.7392h11.4829c1.4768,0,2.6756-1.1966,2.6756-2.6734v-39.6566h48.6005v39.6566c0,1.4768,1.1966,2.6734,2.6756,2.6734h11.4807c1.4766,0,2.6758-1.1966,2.6758-2.6734V7.7976c0-1.479-1.1992-2.6756-2.6758-2.6756h-11.4807c-1.479,0-2.6756,1.1966-2.6756,2.6756v37.0248h-48.6005V7.7976c0-1.479-1.1988-2.6756-2.6756-2.6756h-11.4829c-1.4766,0-2.6734,1.1966-2.6734,2.6756v92.2683c0,1.4768,1.1968,2.6734,2.6734,2.6734Z"/>
  <path d="M313.4021,102.7415h64.7334c1.4766,0,2.6756-1.199,2.6756-2.6758v-10.2376c0-1.4766-1.199-2.6734-2.6756-2.6734h-50.5773v-26.4678h47.4687c1.4766,0,2.6756-1.199,2.6756-2.6758v-10.2374c0-1.4768-1.199-2.6736-2.6756-2.6736h-47.4687v-24.3915h50.5773c1.4766,0,2.6756-1.1966,2.6756-2.6756V7.7976c0-1.4792-1.199-2.6758-2.6756-2.6758h-64.7334c-1.4768,0-2.6734,1.1966-2.6734,2.6758v92.268c0,1.4768,1.1966,2.6758,2.6734,2.6758Z"/>
  <path d="M493.6454,5.1215h11.4809c1.4766,0,2.6754,1.1988,2.6754,2.6754v92.2683c0,1.4768-1.199,2.6758-2.6758,2.6758h-11.4803c-1.4768,0-2.6758-1.199-2.6758-2.6758V7.7971c0-1.4767,1.1989-2.6756,2.6756-2.6756Z"/>
  <path d="M523.5792,20.7086h28.6367v79.3585c0,1.4764,1.1968,2.6732,2.673,2.6732h11.502c1.4764,0,2.6732-1.1968,2.6732-2.6732V20.7086h28.6367c1.4766,0,2.6758-1.1966,2.6758-2.6758V7.7976c0-1.4777-1.1979-2.6756-2.6758-2.6756h-74.1217c-1.4761,0-2.6732,1.1966-2.6732,2.673v10.2379c0,1.4792,1.1968,2.6758,2.6734,2.6758Z"/>
  <path d="M645.1238,61.8785v38.1869c0,1.4768,1.1968,2.6758,2.6758,2.6758h11.61c1.4768,0,2.6736-1.199,2.6736-2.6758v-38.1869l35.7819-52.5767c.5578-.8196.6158-1.8794.1527-2.7571-.4628-.8748-1.375-1.4232-2.3655-1.4232h-13.4181c-.8933,0-1.7289.4467-2.2243,1.1897l-26.4053,39.5455-26.4075-39.5455c-.4954-.7431-1.3309-1.1897-2.2245-1.1897h-13.4179c-.9905,0-1.9002.5485-2.3631,1.4232-.4631.8776-.4051,1.9374.1527,2.7571l35.7795,52.5767Z"/>
</svg>