<?xml version="1.0" encoding="UTF-8" standalone="no"?>
<svg
   xmlns:dc="http://purl.org/dc/elements/1.1/"
   xmlns:cc="http://creativecommons.org/ns#"
   xmlns:rdf="http://www.w3.org/1999/02/22-rdf-syntax-ns#"
   xmlns:svg="http://www.w3.org/2000/svg"
   xmlns="http://www.w3.org/2000/svg"
   xmlns:xlink="http://www.w3.org/1999/xlink"
   xmlns:sodipodi="http://sodipodi.sourceforge.net/DTD/sodipodi-0.dtd"
   xmlns:inkscape="http://www.inkscape.org/namespaces/inkscape"
   viewBox="0 0 474.66 206.72"
   version="1.1"
   id="svg396"
   sodipodi:docname="diagram-auth-flow-spa-angular.svg"
   inkscape:version="0.92.5 (2060ec1f9f, 2020-04-08)">
  <metadata
     id="metadata400">
    <rdf:RDF>
      <cc:Work
         rdf:about="">
        <dc:format>image/svg+xml</dc:format>
        <dc:type
           rdf:resource="http://purl.org/dc/dcmitype/StillImage" />
      </cc:Work>
    </rdf:RDF>
  </metadata>
  <sodipodi:namedview
     pagecolor="#ffffff"
     bordercolor="#666666"
     borderopacity="1"
     objecttolerance="10"
     gridtolerance="10"
     guidetolerance="10"
     inkscape:pageopacity="0"
     inkscape:pageshadow="2"
     inkscape:window-width="1864"
     inkscape:window-height="1136"
     id="namedview398"
     showgrid="false"
     inkscape:zoom="2.0677205"
     inkscape:cx="285.41409"
     inkscape:cy="82.189269"
     inkscape:window-x="0"
     inkscape:window-y="27"
     inkscape:window-maximized="1"
     inkscape:current-layer="svg396" />
  <defs
     id="defs32">
    <symbol
       id="New_Symbol_46"
       data-name="New Symbol 46"
       viewBox="0 0 21 20">
      <circle
         cx="10.5"
         cy="10"
         r="10"
         fill="#505050"
         id="circle2" />
      <path
         d="M13.39,11.73a3.06,3.06,0,0,1-.21,1.15,2.77,2.77,0,0,1-.57.9,2.67,2.67,0,0,1-.88.59,2.83,2.83,0,0,1-1.1.2,2.77,2.77,0,0,1-1.16-.24,2.59,2.59,0,0,1-.92-.73A3.69,3.69,0,0,1,8,12.39a6.13,6.13,0,0,1-.21-1.68A6.87,6.87,0,0,1,8,8.64a4.46,4.46,0,0,1,.76-1.51A3.35,3.35,0,0,1,9.93,6.2a3.24,3.24,0,0,1,1.42-.31,5.75,5.75,0,0,1,.87.06,2.09,2.09,0,0,1,.62.18V7.35a4.08,4.08,0,0,0-.64-.26,2.59,2.59,0,0,0-.78-.1,2,2,0,0,0-.91.2,2,2,0,0,0-.71.58,2.92,2.92,0,0,0-.48,1A5,5,0,0,0,9.14,10h0a1.84,1.84,0,0,1,.73-.65A2.27,2.27,0,0,1,11,9.13a2.78,2.78,0,0,1,1,.17,2.14,2.14,0,0,1,.76.52,2.22,2.22,0,0,1,.48.82A3.33,3.33,0,0,1,13.39,11.73ZM12,11.84a2.71,2.71,0,0,0-.08-.66,1.69,1.69,0,0,0-.26-.52,1.22,1.22,0,0,0-.44-.33,1.42,1.42,0,0,0-.61-.11,1.52,1.52,0,0,0-.62.12,1.87,1.87,0,0,0-.45.33,1.47,1.47,0,0,0-.27.47,1.7,1.7,0,0,0-.09.54,2.2,2.2,0,0,0,.09.61,1.64,1.64,0,0,0,.26.57,1.24,1.24,0,0,0,.45.43,1.2,1.2,0,0,0,.64.17,1.35,1.35,0,0,0,.59-.13,1.14,1.14,0,0,0,.44-.34,1.53,1.53,0,0,0,.26-.51A2.2,2.2,0,0,0,12,11.84Z"
         fill="#fff"
         id="path4" />
    </symbol>
    <symbol
       id="New_Symbol_41"
       data-name="New Symbol 41"
       viewBox="0 0 21 20">
      <circle
         cx="10.5"
         cy="10"
         r="10"
         fill="#505050"
         id="circle7" />
      <path
         d="M11.69,5.84v8.59H10.33V7.5A4.13,4.13,0,0,1,9.54,8a8.43,8.43,0,0,1-1,.33V7.12l.65-.24.63-.27.62-.34c.21-.13.42-.27.64-.43Z"
         fill="#fff"
         id="path9" />
    </symbol>
    <symbol
       id="New_Symbol_42"
       data-name="New Symbol 42"
       viewBox="0 0 21 20">
      <circle
         cx="10.5"
         cy="10"
         r="10"
         fill="#505050"
         id="circle12" />
      <path
         d="M13,14.43H7.74v-.65A2.56,2.56,0,0,1,7.85,13a3.93,3.93,0,0,1,.3-.66,4.67,4.67,0,0,1,.44-.58c.17-.18.35-.35.54-.52l.59-.5c.2-.15.39-.31.58-.47s.35-.3.5-.45a5,5,0,0,0,.38-.45,2.55,2.55,0,0,0,.24-.5,1.7,1.7,0,0,0,.09-.57,1.5,1.5,0,0,0-.1-.58,1.22,1.22,0,0,0-.29-.41,1.14,1.14,0,0,0-.44-.26A1.87,1.87,0,0,0,10.13,7a2.58,2.58,0,0,0-1.05.24,3.67,3.67,0,0,0-1,.72V6.65a3.24,3.24,0,0,1,.52-.33,3,3,0,0,1,.55-.24,2.68,2.68,0,0,1,.59-.15,4.59,4.59,0,0,1,.66,0,3.66,3.66,0,0,1,1,.14,2.25,2.25,0,0,1,.79.44,2,2,0,0,1,.51.73,2.57,2.57,0,0,1,.18,1,2.92,2.92,0,0,1-.13.92,2.65,2.65,0,0,1-.36.76,3.83,3.83,0,0,1-.56.67c-.21.21-.46.43-.73.65l-.67.53c-.23.18-.43.35-.61.51a3.22,3.22,0,0,0-.44.5.89.89,0,0,0-.16.5v0H13Z"
         fill="#fff"
         id="path14" />
    </symbol>
    <symbol
       id="New_Symbol_45"
       data-name="New Symbol 45"
       viewBox="0 0 21 20">
      <circle
         cx="10.5"
         cy="10"
         r="10"
         fill="#505050"
         id="circle17" />
      <path
         d="M8.08,14.23v-1.3a3,3,0,0,0,1.67.55,2.09,2.09,0,0,0,1.38-.43,1.43,1.43,0,0,0,.52-1.16,1.34,1.34,0,0,0-.53-1.12,2.53,2.53,0,0,0-1.52-.4c-.23,0-.69,0-1.38.07L8.52,6h4.14V7.19h-3l-.14,2.1c.27,0,.52,0,.73,0a2.89,2.89,0,0,1,2.07.68A2.44,2.44,0,0,1,13,11.83a2.55,2.55,0,0,1-.84,2,3.29,3.29,0,0,1-2.29.75A3.66,3.66,0,0,1,8.08,14.23Z"
         fill="#fff"
         id="path19" />
    </symbol>
    <symbol
       id="New_Symbol_44"
       data-name="New Symbol 44"
       viewBox="0 0 21 20">
      <circle
         cx="10.5"
         cy="10"
         r="10"
         fill="#505050"
         id="circle22" />
      <path
         d="M12.47,6v5.42h1.25v1.13H12.47v1.85H11.15V12.58H7.35V11.44q.51-.58,1.05-1.26c.37-.45.71-.91,1-1.38s.64-.94.93-1.41.52-.93.72-1.36Zm-1.32,5.42V7.92a21,21,0,0,1-1.26,2c-.42.57-.81,1.08-1.17,1.52Z"
         fill="#fff"
         id="path24" />
    </symbol>
    <symbol
       id="New_Symbol_43"
       data-name="New Symbol 43"
       viewBox="0 0 21 20">
      <circle
         cx="10.5"
         cy="10"
         r="10"
         fill="#505050"
         id="circle27" />
      <path
         d="M7.89,14.12V12.84a2.92,2.92,0,0,0,1.85.65,2.18,2.18,0,0,0,1.34-.38,1.23,1.23,0,0,0,.5-1c0-.95-.73-1.43-2.18-1.43H8.74V9.56h.63c1.29,0,1.94-.45,1.94-1.35S10.8,7,9.79,7a2.46,2.46,0,0,0-1.58.6V6.37a4.05,4.05,0,0,1,2-.48A2.68,2.68,0,0,1,12,6.45a1.77,1.77,0,0,1,.67,1.44A2,2,0,0,1,11,10v0a2.18,2.18,0,0,1,1.43.63A1.91,1.91,0,0,1,13,12.05a2.22,2.22,0,0,1-.85,1.82,3.39,3.39,0,0,1-2.24.7A3.83,3.83,0,0,1,7.89,14.12Z"
         fill="#fff"
         id="path29" />
    </symbol>
  </defs>
  <title
     id="title34">javascriptspa-intro</title>
  <g
     id="Shapes">
    <rect
       width="474.66"
       height="206.72"
       id="rect36"
       fill="#fff" />
    <rect
       y="10.41"
       width="105"
       height="155"
       id="rect38"
       fill="#ebebeb" />
    <rect
       x="369.66"
       y="10.41"
       width="105"
       height="115"
       id="rect40"
       fill="#0072c6" />
    <rect
       x="369.66"
       y="130.41"
       width="105"
       height="70"
       id="rect42"
       fill="#d2d2d2" />
    <g
       id="g48">
      <line
         x1="105"
         y1="15.41"
         x2="364.17"
         y2="15.41"
         stroke-miterlimit="10"
         id="line44"
         stroke="#000"
         fill="none" />
      <polygon
         points="363.07 19.15 369.55 15.41 363.07 11.67 363.07 19.15"
         id="polygon46" />
    </g>
    <g
       id="g54">
      <line
         x1="110.38"
         y1="45.29"
         x2="369.55"
         y2="45.29"
         stroke-miterlimit="10"
         id="line50"
         stroke="#000"
         fill="none" />
      <polygon
         points="111.48 49.03 105 45.29 111.48 41.55 111.48 49.03"
         id="polygon52" />
    </g>
    <g
       id="g60">
      <line
         x1="105"
         y1="74.93"
         x2="364.17"
         y2="74.93"
         stroke-miterlimit="10"
         id="line56"
         stroke="#000"
         fill="none" />
      <polygon
         points="363.07 78.67 369.55 74.93 363.07 71.19 363.07 78.67"
         id="polygon58" />
    </g>
    <g
       id="g66">
      <line
         x1="110.38"
         y1="105.18"
         x2="369.55"
         y2="105.18"
         stroke-miterlimit="10"
         id="line62"
         stroke="#000"
         fill="none" />
      <polygon
         points="111.48 108.92 105 105.18 111.48 101.44 111.48 108.92"
         id="polygon64" />
    </g>
    <g
       id="g72">
      <line
         x1="105"
         y1="154.48"
         x2="364.17"
         y2="154.48"
         stroke-miterlimit="10"
         id="line68"
         stroke="#000"
         fill="none" />
      <polygon
         points="363.07 158.22 369.55 154.48 363.07 150.74 363.07 158.22"
         id="polygon70" />
    </g>
    <g
       id="g78">
      <path
         d="M369.55,195.41,61.1,194.64a10.05,10.05,0,0,1-10-10V170.79"
         stroke-miterlimit="10"
         id="path74"
         stroke="#000"
         fill="none" />
      <polygon
         points="54.84 171.88 51.1 165.41 47.36 171.88 54.84 171.88"
         id="polygon76" />
    </g>
    <polygon
       points="192.56 25.82 185 31.27 187.89 40.08 197.23 40.08 200.12 31.27 192.56 25.82"
       stroke-miterlimit="10"
       id="polygon80"
       stroke-width="0.75"
       stroke="#000"
       fill="#ebebeb" />
    <polygon
       points="192.56 85.96 185 91.4 187.89 100.21 197.23 100.21 200.12 91.4 192.56 85.96"
       stroke-miterlimit="10"
       id="polygon82"
       stroke-width="0.75"
       stroke="#000"
       fill="#ebebeb" />
    <use
       width="21"
       height="20"
       transform="translate(158.41 185.41)"
       xlink:href="#New_Symbol_46"
       id="use84" />
    <g
       id="g112">
      <g
         transform="matrix(0.42598827,0,0,0.42598827,-0.62943968,2.0109499)"
         id="g6595">
        <polygon
           points="125,94.5 108,135.4 125,135.4 142,135.4 "
           id="polygon6591" />
        <path
           inkscape:connector-curvature="0"
           d="m 125,30 v 0 0 L 31.9,63.2 46.1,186.3 125,230 v 0 0 l 78.9,-43.7 14.2,-123.1 z m 58.1,152.6 h -21.7 v 0 L 149.7,153.4 H 125 v 0 0 h -24.7 l -11.7,29.2 v 0 H 66.9 v 0 L 125,52.1 v 0 0 0 0 z"
           id="path6593" />
      </g>
    </g>
  </g>
  <g
     id="Text">
    <g
       id="g155">
      <path
         d="M185.08,10.07V8.91a2.23,2.23,0,0,0,.48.32,4.51,4.51,0,0,0,1.2.38,3,3,0,0,0,.58.05,2.28,2.28,0,0,0,1.35-.33,1.15,1.15,0,0,0,.45-1,1.1,1.1,0,0,0-.15-.59,1.48,1.48,0,0,0-.41-.46,3.68,3.68,0,0,0-.62-.4l-.78-.4c-.29-.15-.57-.3-.82-.45a3.59,3.59,0,0,1-.66-.51,2.1,2.1,0,0,1-.45-.62,2.1,2.1,0,0,1-.16-.82,1.91,1.91,0,0,1,.26-1,2,2,0,0,1,.66-.7,3,3,0,0,1,.93-.41,5.22,5.22,0,0,1,2.88.16V3.27a3.29,3.29,0,0,0-1.91-.51,3.47,3.47,0,0,0-.64.06,2,2,0,0,0-.58.22,1.3,1.3,0,0,0-.41.4,1.07,1.07,0,0,0-.16.58,1.22,1.22,0,0,0,.12.56,1.42,1.42,0,0,0,.36.43,3.75,3.75,0,0,0,.57.37c.22.12.48.26.78.4s.58.3.85.47a3.59,3.59,0,0,1,.71.54,2.23,2.23,0,0,1,.48.67,1.84,1.84,0,0,1,.18.83,2.14,2.14,0,0,1-.24,1.05,1.93,1.93,0,0,1-.66.7,2.8,2.8,0,0,1-1,.39,5.24,5.24,0,0,1-1.14.12l-.49,0c-.19,0-.39-.06-.59-.1a4.45,4.45,0,0,1-.58-.15A2,2,0,0,1,185.08,10.07Z"
         id="path143"
         fill="#1e1e1e" />
      <path
         d="M192,2.89a.6.6,0,0,1-.44-.18.61.61,0,0,1-.18-.45.59.59,0,0,1,.18-.44.6.6,0,0,1,.44-.18.61.61,0,0,1,.45.18.59.59,0,0,1,.18.44.59.59,0,0,1-.18.44A.62.62,0,0,1,192,2.89Zm.47,7.52h-1v-6h1Z"
         id="path145"
         fill="#1e1e1e" />
      <path
         d="M199.5,9.93q0,3.3-3.16,3.3a4.28,4.28,0,0,1-2-.42v-1a4,4,0,0,0,1.93.56c1.48,0,2.22-.78,2.22-2.35V9.4h0a2.43,2.43,0,0,1-3.87.35A3.22,3.22,0,0,1,194,7.6a3.73,3.73,0,0,1,.73-2.43,2.48,2.48,0,0,1,2-.9,2,2,0,0,1,1.8,1h0V4.41h1Zm-1-2.23V6.81a1.71,1.71,0,0,0-.48-1.22,1.62,1.62,0,0,0-1.21-.51,1.66,1.66,0,0,0-1.39.64A2.9,2.9,0,0,0,195,7.54a2.43,2.43,0,0,0,.49,1.6,1.56,1.56,0,0,0,1.28.6A1.67,1.67,0,0,0,198,9.17,2.16,2.16,0,0,0,198.54,7.7Z"
         id="path147"
         fill="#1e1e1e" />
      <path
         d="M206.3,10.41h-1V7c0-1.28-.47-1.91-1.4-1.91a1.5,1.5,0,0,0-1.19.54A2,2,0,0,0,202.28,7v3.42h-1v-6h1v1h0a2.17,2.17,0,0,1,2-1.13,1.82,1.82,0,0,1,1.5.63,2.84,2.84,0,0,1,.53,1.84Z"
         id="path149"
         fill="#1e1e1e" />
      <path
         d="M211.89,2.89a.59.59,0,0,1-.44-.18.62.62,0,0,1-.19-.45.6.6,0,0,1,.19-.44.59.59,0,0,1,.44-.18.6.6,0,0,1,.44.18.56.56,0,0,1,.19.44.56.56,0,0,1-.19.44A.61.61,0,0,1,211.89,2.89Zm.46,7.52h-1v-6h1Z"
         id="path151"
         fill="#1e1e1e" />
      <path
         d="M219.16,10.41h-1V7c0-1.28-.46-1.91-1.39-1.91a1.54,1.54,0,0,0-1.2.54A2,2,0,0,0,215.14,7v3.42h-1v-6h1v1h0a2.17,2.17,0,0,1,2-1.13,1.85,1.85,0,0,1,1.51.63,2.84,2.84,0,0,1,.52,1.84Z"
         id="path153"
         fill="#1e1e1e" />
    </g>
    <g
       id="g171">
      <path
         d="M207.09,38.15h-1V29.74h1Z"
         id="path157"
         fill="#1e1e1e" />
      <path
         d="M209.17,38.15V29.74h2.32q4.44,0,4.44,4.1A4.14,4.14,0,0,1,214.7,37a4.6,4.6,0,0,1-3.3,1.18Zm1-7.51v6.62h1.25a3.55,3.55,0,0,0,2.57-.89,3.29,3.29,0,0,0,.92-2.51q0-3.22-3.43-3.22Z"
         id="path159"
         fill="#1e1e1e" />
      <path
         d="M225.84,30.64h-2.42v7.51h-1V30.64H220v-.9h5.83Z"
         id="path161"
         fill="#1e1e1e" />
      <path
         d="M228.68,38.29a2.77,2.77,0,0,1-2.12-.84,3.12,3.12,0,0,1-.8-2.23,3.23,3.23,0,0,1,.83-2.36,3,3,0,0,1,2.23-.85,2.71,2.71,0,0,1,2.1.82,3.29,3.29,0,0,1,.75,2.29,3.21,3.21,0,0,1-.81,2.3A2.84,2.84,0,0,1,228.68,38.29Zm.07-5.48a1.81,1.81,0,0,0-1.46.63,2.59,2.59,0,0,0-.54,1.74,2.46,2.46,0,0,0,.54,1.68,1.87,1.87,0,0,0,1.46.62,1.75,1.75,0,0,0,1.43-.6,2.61,2.61,0,0,0,.51-1.72,2.65,2.65,0,0,0-.51-1.74A1.76,1.76,0,0,0,228.75,32.81Z"
         id="path163"
         fill="#1e1e1e" />
      <path
         d="M238.13,38.15h-1.35l-2.64-2.89h0v2.89h-1V29.26h1v5.63h0l2.52-2.74h1.25L235.13,35Z"
         id="path165"
         fill="#1e1e1e" />
      <path
         d="M243.65,35.39h-4.24a2.26,2.26,0,0,0,.54,1.54,1.85,1.85,0,0,0,1.42.55,2.89,2.89,0,0,0,1.86-.67v.9a3.41,3.41,0,0,1-2.09.58,2.53,2.53,0,0,1-2-.82,3.35,3.35,0,0,1-.72-2.3,3.28,3.28,0,0,1,.79-2.28,2.54,2.54,0,0,1,2-.88,2.24,2.24,0,0,1,1.82.76,3.17,3.17,0,0,1,.65,2.11Zm-1-.82a1.9,1.9,0,0,0-.4-1.29,1.36,1.36,0,0,0-1.1-.47,1.57,1.57,0,0,0-1.15.49,2.25,2.25,0,0,0-.59,1.27Z"
         id="path167"
         fill="#1e1e1e" />
      <path
         d="M250.08,38.15h-1V34.73c0-1.28-.46-1.92-1.39-1.92a1.55,1.55,0,0,0-1.2.55,2,2,0,0,0-.47,1.37v3.42h-1v-6h1v1h0a2.17,2.17,0,0,1,2-1.13,1.84,1.84,0,0,1,1.5.63,2.84,2.84,0,0,1,.52,1.84Z"
         id="path169"
         fill="#1e1e1e" />
    </g>
    <g
       id="g223">
      <path
         d="M405.18,56.69h-1.87v-5c0-.54,0-1.14.07-1.8h-.05a9.23,9.23,0,0,1-.26,1.12l-2,5.71h-1.55l-2-5.66a11,11,0,0,1-.27-1.17h0c0,.83.08,1.56.08,2.18v4.65H395.6v-8.4h2.77l1.72,5a6.58,6.58,0,0,1,.3,1.2h0a9.76,9.76,0,0,1,.33-1.21l1.72-5h2.7Z"
         id="path173"
         fill="#fff" />
      <path
         d="M407.79,49.74a1.06,1.06,0,0,1-.77-.28.88.88,0,0,1-.3-.68.85.85,0,0,1,.3-.68,1.09,1.09,0,0,1,.77-.26,1.11,1.11,0,0,1,.77.26.88.88,0,0,1,.29.68.91.91,0,0,1-.29.69A1.11,1.11,0,0,1,407.79,49.74Zm.91,6.95h-1.85v-6h1.85Z"
         id="path175"
         fill="#fff" />
      <path
         d="M414.78,56.47a3.68,3.68,0,0,1-1.81.37,3.06,3.06,0,0,1-2.24-.84,2.9,2.9,0,0,1-.86-2.16,3.22,3.22,0,0,1,.92-2.42,3.42,3.42,0,0,1,2.45-.88,3.26,3.26,0,0,1,1.54.28v1.57a2.12,2.12,0,0,0-1.3-.43,1.71,1.71,0,0,0-1.26.47,1.74,1.74,0,0,0-.47,1.28A1.69,1.69,0,0,0,412.2,55a1.62,1.62,0,0,0,1.22.46,2.44,2.44,0,0,0,1.36-.44Z"
         id="path177"
         fill="#fff" />
      <path
         d="M420,52.36a1.61,1.61,0,0,0-.78-.18,1.11,1.11,0,0,0-.94.44,1.9,1.9,0,0,0-.34,1.2v2.87h-1.85v-6h1.85V51.8h0a1.61,1.61,0,0,1,1.58-1.22,1.35,1.35,0,0,1,.46.07Z"
         id="path179"
         fill="#fff" />
      <path
         d="M423.8,56.84a3.17,3.17,0,0,1-2.35-.85,3.47,3.47,0,0,1,0-4.61,3.35,3.35,0,0,1,2.41-.84,3.19,3.19,0,0,1,2.34.84,3,3,0,0,1,.85,2.23A3.16,3.16,0,0,1,426.2,56,3.24,3.24,0,0,1,423.8,56.84Zm.05-4.88a1.23,1.23,0,0,0-1,.45,2,2,0,0,0-.36,1.28c0,1.15.46,1.73,1.39,1.73s1.33-.59,1.33-1.78S424.75,52,423.85,52Z"
         id="path181"
         fill="#fff" />
      <path
         d="M427.94,56.53V55a3.87,3.87,0,0,0,.91.41,3,3,0,0,0,.85.14,1.84,1.84,0,0,0,.78-.14.44.44,0,0,0,.29-.41.39.39,0,0,0-.13-.29,1.33,1.33,0,0,0-.33-.21,4.72,4.72,0,0,0-.45-.16c-.16,0-.31-.1-.46-.15a4.68,4.68,0,0,1-.63-.29,2.45,2.45,0,0,1-.46-.36,1.64,1.64,0,0,1-.28-.48,2,2,0,0,1-.09-.64,1.6,1.6,0,0,1,.22-.86,1.67,1.67,0,0,1,.58-.6,2.74,2.74,0,0,1,.84-.34,4.46,4.46,0,0,1,1-.11,5.52,5.52,0,0,1,.81.06,5.88,5.88,0,0,1,.81.18v1.43a3.37,3.37,0,0,0-.76-.31,3.55,3.55,0,0,0-.78-.1,2,2,0,0,0-.35,0,1.83,1.83,0,0,0-.28.1.43.43,0,0,0-.19.16.32.32,0,0,0-.07.22.4.4,0,0,0,.1.28.88.88,0,0,0,.28.2,2,2,0,0,0,.37.15l.42.14a7.13,7.13,0,0,1,.67.28,2.12,2.12,0,0,1,.51.36,1.47,1.47,0,0,1,.33.48,1.75,1.75,0,0,1-.74,2.18,2.89,2.89,0,0,1-.88.35,5,5,0,0,1-1,.11A5.41,5.41,0,0,1,427.94,56.53Z"
         id="path183"
         fill="#fff" />
      <path
         d="M436.51,56.84a3.19,3.19,0,0,1-2.36-.85,3.47,3.47,0,0,1,0-4.61,3.38,3.38,0,0,1,2.41-.84,3.16,3.16,0,0,1,2.34.84,3,3,0,0,1,.85,2.23,3.19,3.19,0,0,1-.87,2.36A3.27,3.27,0,0,1,436.51,56.84Zm0-4.88a1.26,1.26,0,0,0-1,.45,2,2,0,0,0-.36,1.28c0,1.15.47,1.73,1.4,1.73s1.33-.59,1.33-1.78S437.45,52,436.55,52Z"
         id="path185"
         fill="#fff" />
      <path
         d="M444.85,49.22a2,2,0,0,0-.68-.14c-.6,0-.89.33-.89,1v.64h1.37v1.36h-1.37v4.64h-1.85V52.05h-1V50.69h1v-.75a2.15,2.15,0,0,1,.67-1.65,2.52,2.52,0,0,1,1.81-.62,3.15,3.15,0,0,1,.94.11Z"
         id="path187"
         fill="#fff" />
      <path
         d="M449.41,56.62a2.77,2.77,0,0,1-1.24.22q-1.95,0-1.95-2V52.05h-1V50.69h1v-1.3l1.84-.52v1.82h1.35v1.36h-1.35v2.43c0,.62.25.94.75.94a1.31,1.31,0,0,0,.6-.17Z"
         id="path189"
         fill="#fff" />
      <path
         d="M401.83,64.14a1.07,1.07,0,0,1-.77-.28.88.88,0,0,1-.3-.68.85.85,0,0,1,.3-.68,1.11,1.11,0,0,1,.77-.26,1.09,1.09,0,0,1,.77.26.85.85,0,0,1,.3.68.89.89,0,0,1-.3.69A1.1,1.1,0,0,1,401.83,64.14Zm.91,7h-1.85v-6h1.85Z"
         id="path191"
         fill="#fff" />
      <path
         d="M410.17,71.09h-1.85v-.83h0a2.08,2.08,0,0,1-1.86,1,2.28,2.28,0,0,1-1.81-.8,3.28,3.28,0,0,1-.68-2.22,3.59,3.59,0,0,1,.75-2.38,2.48,2.48,0,0,1,2-.9,1.69,1.69,0,0,1,1.62.83h0V62.21h1.85Zm-1.81-2.92v-.45a1.43,1.43,0,0,0-.34-1,1.2,1.2,0,0,0-1.85.09,2.28,2.28,0,0,0-.34,1.33,2,2,0,0,0,.33,1.22,1.12,1.12,0,0,0,.93.43,1.1,1.1,0,0,0,.91-.45A1.87,1.87,0,0,0,408.36,68.17Z"
         id="path193"
         fill="#fff" />
      <path
         d="M417.12,68.62h-3.91c.06.87.61,1.3,1.65,1.3a3.15,3.15,0,0,0,1.74-.47v1.34a4.57,4.57,0,0,1-2.17.45,2.79,2.79,0,0,1-3.05-3.06,3.19,3.19,0,0,1,.86-2.36,2.87,2.87,0,0,1,2.14-.88,2.63,2.63,0,0,1,2,.78,3.05,3.05,0,0,1,.71,2.12Zm-1.71-1.14q0-1.29-1.05-1.29a1,1,0,0,0-.77.37,1.67,1.67,0,0,0-.39.92Z"
         id="path195"
         fill="#fff" />
      <path
         d="M424.1,71.09h-1.85V67.75c0-.92-.33-1.39-1-1.39a1,1,0,0,0-.8.37,1.46,1.46,0,0,0-.31.94v3.42H418.3v-6h1.85v1h0a2.12,2.12,0,0,1,1.93-1.1c1.32,0,2,.83,2,2.47Z"
         id="path197"
         fill="#fff" />
      <path
         d="M429.12,71a2.77,2.77,0,0,1-1.24.22q-2,0-1.95-2V66.45h-1V65.09h1v-1.3l1.84-.52v1.82h1.35v1.36h-1.35v2.43c0,.62.25.94.75.94a1.31,1.31,0,0,0,.6-.17Z"
         id="path199"
         fill="#fff" />
      <path
         d="M431.17,64.14a1.07,1.07,0,0,1-.77-.28.88.88,0,0,1-.3-.68.85.85,0,0,1,.3-.68,1.27,1.27,0,0,1,1.54,0,.84.84,0,0,1,.29.68.88.88,0,0,1-.29.69A1.11,1.11,0,0,1,431.17,64.14Zm.91,7h-1.85v-6h1.85Z"
         id="path201"
         fill="#fff" />
      <path
         d="M437.18,71a2.8,2.8,0,0,1-1.24.22q-1.95,0-1.95-2V66.45h-1V65.09h1v-1.3l1.84-.52v1.82h1.35v1.36h-1.35v2.43c0,.62.25.94.75.94a1.31,1.31,0,0,0,.6-.17Z"
         id="path203"
         fill="#fff" />
      <path
         d="M444.24,65.09l-2.44,6.48c-.59,1.56-1.47,2.34-2.65,2.34a3.18,3.18,0,0,1-1.11-.16V72.28a1.64,1.64,0,0,0,.81.22,1,1,0,0,0,1-.68l.32-.74-2.44-6h2l1.12,3.65a4.84,4.84,0,0,1,.17.8h0a7.31,7.31,0,0,1,.19-.79l1.13-3.66Z"
         id="path205"
         fill="#fff" />
      <path
         d="M399.9,84.79h0v3.46H398V79.49h1.85v.9h0a2.35,2.35,0,0,1,3.72-.25,3.39,3.39,0,0,1,.64,2.18,3.73,3.73,0,0,1-.74,2.41,2.43,2.43,0,0,1-2,.91A1.87,1.87,0,0,1,399.9,84.79Zm-.06-2.46v.48a1.5,1.5,0,0,0,.33,1,1.06,1.06,0,0,0,.86.4,1.15,1.15,0,0,0,1-.49,2.32,2.32,0,0,0,.35-1.39c0-1-.41-1.58-1.23-1.58a1.15,1.15,0,0,0-.93.43A1.73,1.73,0,0,0,399.84,82.33Z"
         id="path207"
         fill="#fff" />
      <path
         d="M407.35,85.49h-1.86V76.61h1.86Z"
         id="path209"
         fill="#fff" />
      <path
         d="M413.93,85.49h-1.75v-.86h0a2,2,0,0,1-1.78,1,1.88,1.88,0,0,1-1.38-.5,1.79,1.79,0,0,1-.5-1.32c0-1.17.69-1.84,2.07-2l1.63-.21c0-.66-.36-1-1.07-1a3.64,3.64,0,0,0-2,.64V79.85a4.62,4.62,0,0,1,1.06-.36,5.63,5.63,0,0,1,1.22-.15,2.27,2.27,0,0,1,2.57,2.56Zm-1.74-2.44v-.4l-1.09.14q-.9.12-.9.81a.66.66,0,0,0,.22.52.8.8,0,0,0,.59.2,1.1,1.1,0,0,0,.85-.36A1.29,1.29,0,0,0,412.19,83.05Z"
         id="path211"
         fill="#fff" />
      <path
         d="M418.93,85.42a2.75,2.75,0,0,1-1.23.22c-1.31,0-2-.68-2-2V80.85h-1V79.49h1v-1.3l1.85-.52v1.82h1.34v1.36h-1.34v2.43c0,.62.24.94.74.94a1.24,1.24,0,0,0,.6-.17Z"
         id="path213"
         fill="#fff" />
      <path
         d="M424.05,78a1.88,1.88,0,0,0-.68-.14c-.59,0-.89.33-.89,1v.64h1.37v1.36h-1.37v4.64h-1.85V80.85h-1V79.49h1v-.75a2.18,2.18,0,0,1,.67-1.65,2.54,2.54,0,0,1,1.82-.62,3.12,3.12,0,0,1,.93.11Z"
         id="path215"
         fill="#fff" />
      <path
         d="M427.62,85.64a3.23,3.23,0,0,1-2.36-.85,3.47,3.47,0,0,1,0-4.61,3.38,3.38,0,0,1,2.41-.84,3.16,3.16,0,0,1,2.34.84,3,3,0,0,1,.85,2.23,3.19,3.19,0,0,1-.87,2.36A3.27,3.27,0,0,1,427.62,85.64Zm.05-4.88a1.23,1.23,0,0,0-1,.45,2,2,0,0,0-.37,1.28c0,1.15.47,1.73,1.4,1.73s1.33-.59,1.33-1.78S428.56,80.76,427.67,80.76Z"
         id="path217"
         fill="#fff" />
      <path
         d="M436,81.16a1.61,1.61,0,0,0-.78-.18,1.1,1.1,0,0,0-.94.44,1.9,1.9,0,0,0-.34,1.2v2.87h-1.85v-6h1.85V80.6h0a1.6,1.6,0,0,1,1.58-1.22,1.35,1.35,0,0,1,.46.07Z"
         id="path219"
         fill="#fff" />
      <path
         d="M446.39,85.49h-1.85V82.07c0-.87-.32-1.31-1-1.31a.88.88,0,0,0-.74.39,1.63,1.63,0,0,0-.29,1v3.36H440.7V82c0-.85-.31-1.27-.94-1.27a.91.91,0,0,0-.76.38,1.64,1.64,0,0,0-.29,1v3.34h-1.85v-6h1.85v.94h0a2.33,2.33,0,0,1,.8-.79,2.26,2.26,0,0,1,1.14-.3,1.75,1.75,0,0,1,1.74,1.12,2.22,2.22,0,0,1,2-1.12c1.31,0,2,.81,2,2.42Z"
         id="path221"
         fill="#fff" />
    </g>
    <g
       id="g259">
      <path
         d="M405.18,161.6h-1.87v-5c0-.54,0-1.14.07-1.79h-.05a9.45,9.45,0,0,1-.26,1.11l-2,5.71h-1.55l-2-5.65c-.06-.16-.14-.55-.27-1.17h0c0,.82.08,1.55.08,2.18v4.64H395.6v-8.4h2.77l1.72,5a6.58,6.58,0,0,1,.3,1.2h0a10.27,10.27,0,0,1,.33-1.21l1.72-5h2.7Z"
         id="path225"
         fill="#0072c6" />
      <path
         d="M407.79,154.65a1.06,1.06,0,0,1-.77-.28.88.88,0,0,1-.3-.68.87.87,0,0,1,.3-.68,1.14,1.14,0,0,1,.77-.26,1.16,1.16,0,0,1,.77.26.89.89,0,0,1,.29.68.91.91,0,0,1-.29.69A1.11,1.11,0,0,1,407.79,154.65Zm.91,6.95h-1.85v-6h1.85Z"
         id="path227"
         fill="#0072c6" />
      <path
         d="M414.78,161.38a3.57,3.57,0,0,1-1.81.37,3.06,3.06,0,0,1-2.24-.84,2.9,2.9,0,0,1-.86-2.16,3.18,3.18,0,0,1,.92-2.41,3.38,3.38,0,0,1,2.45-.88,3.14,3.14,0,0,1,1.54.28v1.57a2.13,2.13,0,0,0-1.3-.44,1.71,1.71,0,0,0-1.26.47,1.74,1.74,0,0,0-.47,1.28,1.72,1.72,0,0,0,.45,1.26,1.65,1.65,0,0,0,1.22.45,2.43,2.43,0,0,0,1.36-.43Z"
         id="path229"
         fill="#0072c6" />
      <path
         d="M420,157.27a1.61,1.61,0,0,0-.78-.18,1.14,1.14,0,0,0-.94.44,1.93,1.93,0,0,0-.34,1.21v2.86h-1.85v-6h1.85v1.11h0a1.6,1.6,0,0,1,1.58-1.21,1.14,1.14,0,0,1,.46.07Z"
         id="path231"
         fill="#0072c6" />
      <path
         d="M423.8,161.75a3.2,3.2,0,0,1-2.35-.84,3.47,3.47,0,0,1,0-4.61,3.35,3.35,0,0,1,2.41-.84,3.19,3.19,0,0,1,2.34.84,3,3,0,0,1,.85,2.22,3.15,3.15,0,0,1-.88,2.36A3.24,3.24,0,0,1,423.8,161.75Zm.05-4.88a1.23,1.23,0,0,0-1,.45,2,2,0,0,0-.36,1.28c0,1.15.46,1.73,1.39,1.73s1.33-.59,1.33-1.78S424.75,156.87,423.85,156.87Z"
         id="path233"
         fill="#0072c6" />
      <path
         d="M427.94,161.44v-1.5a3.5,3.5,0,0,0,.91.41,3,3,0,0,0,.85.14,1.84,1.84,0,0,0,.78-.14.43.43,0,0,0,.29-.41.41.41,0,0,0-.13-.29,1.08,1.08,0,0,0-.33-.2,3,3,0,0,0-.45-.16l-.46-.16a4.68,4.68,0,0,1-.63-.29,1.84,1.84,0,0,1-.46-.36A1.64,1.64,0,0,1,428,158a2,2,0,0,1-.09-.63,1.61,1.61,0,0,1,.22-.87,1.84,1.84,0,0,1,.58-.6,3,3,0,0,1,.84-.34,4.46,4.46,0,0,1,1-.1,5.52,5.52,0,0,1,.81.06,5.88,5.88,0,0,1,.81.18v1.42a3.34,3.34,0,0,0-.76-.3,3.06,3.06,0,0,0-.78-.11,2,2,0,0,0-.35,0,1.15,1.15,0,0,0-.28.09.43.43,0,0,0-.19.16.34.34,0,0,0-.07.22.4.4,0,0,0,.1.28.75.75,0,0,0,.28.2,2,2,0,0,0,.37.15l.42.14a7.13,7.13,0,0,1,.67.28,2.12,2.12,0,0,1,.51.36,1.58,1.58,0,0,1,.33.48,1.82,1.82,0,0,1,.11.66,1.76,1.76,0,0,1-.23.91,1.73,1.73,0,0,1-.62.61,2.66,2.66,0,0,1-.88.35,5,5,0,0,1-1,.11A5.17,5.17,0,0,1,427.94,161.44Z"
         id="path235"
         fill="#0072c6" />
      <path
         d="M436.51,161.75a3.23,3.23,0,0,1-2.36-.84,3.47,3.47,0,0,1,0-4.61,3.38,3.38,0,0,1,2.41-.84,3.16,3.16,0,0,1,2.34.84,3,3,0,0,1,.85,2.22,3.18,3.18,0,0,1-.87,2.36A3.27,3.27,0,0,1,436.51,161.75Zm0-4.88a1.26,1.26,0,0,0-1,.45,2,2,0,0,0-.36,1.28c0,1.15.47,1.73,1.4,1.73s1.33-.59,1.33-1.78S437.45,156.87,436.55,156.87Z"
         id="path237"
         fill="#0072c6" />
      <path
         d="M444.85,154.14a1.76,1.76,0,0,0-.68-.14c-.6,0-.89.32-.89,1v.64h1.37V157h-1.37v4.63h-1.85V157h-1V155.6h1v-.74a2.12,2.12,0,0,1,.67-1.65,2.52,2.52,0,0,1,1.81-.63,3.11,3.11,0,0,1,.94.12Z"
         id="path239"
         fill="#0072c6" />
      <path
         d="M449.41,161.53a2.64,2.64,0,0,1-1.24.22q-1.95,0-1.95-2V157h-1V155.6h1v-1.29l1.84-.53v1.82h1.35V157h-1.35v2.42c0,.63.25.94.75.94a1.31,1.31,0,0,0,.6-.17Z"
         id="path241"
         fill="#0072c6" />
      <path
         d="M401.46,175.44a6.08,6.08,0,0,1-3.06.71,4.44,4.44,0,0,1-3.19-1.12,4.08,4.08,0,0,1-1.17-3.09,4.29,4.29,0,0,1,1.28-3.23,4.61,4.61,0,0,1,3.39-1.25,6.84,6.84,0,0,1,2.36.37v1.77a4.73,4.73,0,0,0-2.38-.56,2.58,2.58,0,0,0-1.92.77,2.82,2.82,0,0,0-.74,2,2.78,2.78,0,0,0,.67,2,2.34,2.34,0,0,0,1.79.71,2.52,2.52,0,0,0,1.08-.19v-1.64h-1.68v-1.52h3.57Z"
         id="path243"
         fill="#0072c6" />
      <path
         d="M406.9,171.67a1.66,1.66,0,0,0-.78-.18,1.14,1.14,0,0,0-.95.44,2,2,0,0,0-.34,1.21V176H403v-6h1.85v1.12h0a1.59,1.59,0,0,1,1.58-1.22,1.17,1.17,0,0,1,.46.07Z"
         id="path245"
         fill="#0072c6" />
      <path
         d="M412.67,176h-1.75v-.86h0a2,2,0,0,1-1.78,1,1.88,1.88,0,0,1-1.38-.5,1.79,1.79,0,0,1-.5-1.32q0-1.74,2.07-2l1.63-.22c0-.66-.36-1-1.07-1a3.7,3.7,0,0,0-2,.63v-1.39a4.67,4.67,0,0,1,1.06-.35,5.63,5.63,0,0,1,1.22-.15,2.27,2.27,0,0,1,2.57,2.56Zm-1.74-2.44v-.4l-1.09.14c-.6.08-.9.35-.9.82a.64.64,0,0,0,.22.51.8.8,0,0,0,.59.21,1.1,1.1,0,0,0,.85-.36A1.31,1.31,0,0,0,410.93,173.56Z"
         id="path247"
         fill="#0072c6" />
      <path
         d="M416,175.3h0v3.46h-1.85V170H416v.9h0a2.36,2.36,0,0,1,3.73-.24,3.4,3.4,0,0,1,.63,2.17,3.67,3.67,0,0,1-.74,2.41,2.4,2.4,0,0,1-2,.91A1.86,1.86,0,0,1,416,175.3Zm-.06-2.46v.48a1.53,1.53,0,0,0,.33,1,1.08,1.08,0,0,0,.86.39,1.14,1.14,0,0,0,1-.49,2.39,2.39,0,0,0,.34-1.38q0-1.59-1.23-1.59a1.17,1.17,0,0,0-.92.43A1.73,1.73,0,0,0,416,172.84Z"
         id="path249"
         fill="#0072c6" />
      <path
         d="M427.36,176h-1.85v-3.41q0-1.32-1-1.32a1,1,0,0,0-.8.37,1.45,1.45,0,0,0-.3.94V176H421.6v-8.88h1.85v3.77h0a2.11,2.11,0,0,1,1.85-1q2,0,2,2.46Z"
         id="path251"
         fill="#0072c6" />
      <path
         d="M439.7,176h-2.06l-.6-1.87h-3l-.59,1.87h-2l3.06-8.4h2.24Zm-3.09-3.32-.9-2.82a3.22,3.22,0,0,1-.14-.76h-.05a3.06,3.06,0,0,1-.15.73l-.91,2.85Z"
         id="path253"
         fill="#0072c6" />
      <path
         d="M442.55,173.11V176h-1.89v-8.4h3c2.12,0,3.18.89,3.18,2.68a2.61,2.61,0,0,1-.91,2.05,3.63,3.63,0,0,1-2.44.78Zm0-4.06v2.62h.74c1,0,1.52-.44,1.52-1.32s-.51-1.3-1.52-1.3Z"
         id="path255"
         fill="#0072c6" />
      <path
         d="M449.76,176h-1.89v-8.4h1.89Z"
         id="path257"
         fill="#0072c6" />
    </g>
    <use
       width="21"
       height="20"
       transform="translate(158.41 5.41)"
       xlink:href="#New_Symbol_41"
       id="use261" />
    <use
       width="21"
       height="20"
       transform="translate(158.41 35.29)"
       xlink:href="#New_Symbol_42"
       id="use263" />
    <g
       id="g289">
      <path
         d="M192,69.32h-1.09L190,67h-3.57l-.83,2.36h-1.1l3.22-8.41h1Zm-2.3-3.24-1.32-3.58a2.71,2.71,0,0,1-.13-.57h0a2.7,2.7,0,0,1-.13.57l-1.31,3.58Z"
         id="path265"
         fill="#1e1e1e" />
      <path
         d="M197.05,69a3.1,3.1,0,0,1-1.64.42,2.73,2.73,0,0,1-2.08-.84,3,3,0,0,1-.78-2.16,3.29,3.29,0,0,1,.85-2.38,3,3,0,0,1,2.26-.9,3.1,3.1,0,0,1,1.4.29v1a2.47,2.47,0,0,0-1.43-.47,1.93,1.93,0,0,0-1.51.66,2.52,2.52,0,0,0-.59,1.73,2.43,2.43,0,0,0,.55,1.67,1.91,1.91,0,0,0,1.49.61,2.47,2.47,0,0,0,1.48-.52Z"
         id="path267"
         fill="#1e1e1e" />
      <path
         d="M203.51,72.08h-1V68.29h0a2.15,2.15,0,0,1-2.05,1.17,2.26,2.26,0,0,1-1.82-.81,3.32,3.32,0,0,1-.68-2.19,3.58,3.58,0,0,1,.75-2.39,2.48,2.48,0,0,1,2-.89,1.89,1.89,0,0,1,1.78,1h0v-.83h1Zm-1-5.46v-.88a1.76,1.76,0,0,0-.48-1.25,1.61,1.61,0,0,0-1.23-.51,1.65,1.65,0,0,0-1.37.65,2.81,2.81,0,0,0-.5,1.8,2.51,2.51,0,0,0,.48,1.63,1.57,1.57,0,0,0,1.26.59,1.66,1.66,0,0,0,1.34-.58A2.1,2.1,0,0,0,202.55,66.62Z"
         id="path269"
         fill="#1e1e1e" />
      <path
         d="M210.23,69.32h-1v-.95h0a2,2,0,0,1-1.85,1.09c-1.43,0-2.15-.85-2.15-2.56V63.32h1v3.43c0,1.27.48,1.9,1.45,1.9a1.47,1.47,0,0,0,1.16-.52,2,2,0,0,0,.45-1.36V63.32h1Z"
         id="path271"
         fill="#1e1e1e" />
      <path
         d="M212.55,61.79a.62.62,0,0,1-.44-1.07.59.59,0,0,1,.44-.18.6.6,0,0,1,.44.18.58.58,0,0,1,.19.45.58.58,0,0,1-.19.44A.6.6,0,0,1,212.55,61.79Zm.46,7.53h-1v-6h1Z"
         id="path273"
         fill="#1e1e1e" />
      <path
         d="M218,64.29a1.18,1.18,0,0,0-.73-.19,1.2,1.2,0,0,0-1,.58,2.62,2.62,0,0,0-.42,1.58v3.06h-1v-6h1v1.23h0a2,2,0,0,1,.62-1,1.43,1.43,0,0,1,1-.36,1.65,1.65,0,0,1,.57.08Z"
         id="path275"
         fill="#1e1e1e" />
      <path
         d="M223.85,66.56h-4.24a2.27,2.27,0,0,0,.54,1.54,1.85,1.85,0,0,0,1.42.55,2.89,2.89,0,0,0,1.86-.67v.9a3.41,3.41,0,0,1-2.09.58,2.56,2.56,0,0,1-2-.82,3.37,3.37,0,0,1-.72-2.3,3.28,3.28,0,0,1,.79-2.28,2.54,2.54,0,0,1,2-.88,2.22,2.22,0,0,1,1.82.76,3.17,3.17,0,0,1,.65,2.11Zm-1-.82a2,2,0,0,0-.41-1.29,1.36,1.36,0,0,0-1.09-.47,1.58,1.58,0,0,0-1.16.49,2.22,2.22,0,0,0-.59,1.27Z"
         id="path277"
         fill="#1e1e1e" />
      <path
         d="M231.37,69.26a1.87,1.87,0,0,1-.89.19c-1,0-1.58-.59-1.58-1.76V64.14h-1v-.82h1V61.85l1-.31v1.78h1.51v.82h-1.51v3.38a1.37,1.37,0,0,0,.21.86.81.81,0,0,0,.68.26,1,1,0,0,0,.62-.2Z"
         id="path279"
         fill="#1e1e1e" />
      <path
         d="M235,69.46a2.79,2.79,0,0,1-2.12-.84,3.12,3.12,0,0,1-.8-2.23,3.23,3.23,0,0,1,.83-2.36,3,3,0,0,1,2.23-.85,2.69,2.69,0,0,1,2.1.82,3.29,3.29,0,0,1,.75,2.29,3.21,3.21,0,0,1-.81,2.3A2.84,2.84,0,0,1,235,69.46ZM235.1,64a1.83,1.83,0,0,0-1.46.63,2.59,2.59,0,0,0-.54,1.74,2.46,2.46,0,0,0,.54,1.68,1.87,1.87,0,0,0,1.46.62,1.73,1.73,0,0,0,1.43-.61,2.57,2.57,0,0,0,.51-1.71,2.65,2.65,0,0,0-.51-1.74A1.76,1.76,0,0,0,235.1,64Z"
         id="path281"
         fill="#1e1e1e" />
      <path
         d="M244.48,69.32h-1.35l-2.64-2.89h0v2.89h-1V60.43h1v5.63h0L243,63.32h1.26l-2.79,2.89Z"
         id="path283"
         fill="#1e1e1e" />
      <path
         d="M250,66.56h-4.24a2.27,2.27,0,0,0,.54,1.54,1.85,1.85,0,0,0,1.42.55,2.89,2.89,0,0,0,1.86-.67v.9a3.41,3.41,0,0,1-2.09.58,2.56,2.56,0,0,1-2-.82,3.37,3.37,0,0,1-.72-2.3,3.28,3.28,0,0,1,.79-2.28,2.54,2.54,0,0,1,2-.88,2.26,2.26,0,0,1,1.83.76,3.22,3.22,0,0,1,.64,2.11Zm-1-.82a2,2,0,0,0-.41-1.29,1.36,1.36,0,0,0-1.09-.47,1.58,1.58,0,0,0-1.16.49,2.15,2.15,0,0,0-.58,1.27Z"
         id="path285"
         fill="#1e1e1e" />
      <path
         d="M256.43,69.32h-1V65.89c0-1.27-.46-1.91-1.39-1.91a1.48,1.48,0,0,0-1.19.55,2,2,0,0,0-.48,1.36v3.43h-1v-6h1v1h0a2.15,2.15,0,0,1,2-1.13,1.84,1.84,0,0,1,1.5.63,2.84,2.84,0,0,1,.52,1.84Z"
         id="path287"
         fill="#1e1e1e" />
    </g>
    <g
       id="g313">
      <path
         d="M212.61,98.21h-1.09l-.9-2.36h-3.56l-.84,2.36h-1.09l3.22-8.4h1ZM210.3,95,209,91.39a3.81,3.81,0,0,1-.12-.57h0a3.51,3.51,0,0,1-.13.57L207.39,95Z"
         id="path291"
         fill="#1e1e1e" />
      <path
         d="M217.67,97.93a3.08,3.08,0,0,1-1.64.42,2.72,2.72,0,0,1-2.07-.84,3,3,0,0,1-.79-2.16A3.35,3.35,0,0,1,214,93a3,3,0,0,1,2.27-.9,3.13,3.13,0,0,1,1.4.29v1a2.48,2.48,0,0,0-1.43-.46,1.94,1.94,0,0,0-1.51.65,2.48,2.48,0,0,0-.59,1.74,2.38,2.38,0,0,0,.55,1.66,1.91,1.91,0,0,0,1.49.61,2.38,2.38,0,0,0,1.47-.52Z"
         id="path293"
         fill="#1e1e1e" />
      <path
         d="M223.08,97.93a3.1,3.1,0,0,1-1.64.42,2.69,2.69,0,0,1-2.07-.84,3,3,0,0,1-.79-2.16,3.3,3.3,0,0,1,.85-2.38,3,3,0,0,1,2.27-.9,3.09,3.09,0,0,1,1.39.29v1a2.44,2.44,0,0,0-1.43-.46,2,2,0,0,0-1.51.65,2.53,2.53,0,0,0-.59,1.74,2.38,2.38,0,0,0,.56,1.66,1.89,1.89,0,0,0,1.48.61,2.39,2.39,0,0,0,1.48-.52Z"
         id="path295"
         fill="#1e1e1e" />
      <path
         d="M229.23,95.45H225a2.16,2.16,0,0,0,.54,1.54,1.82,1.82,0,0,0,1.42.55,2.93,2.93,0,0,0,1.86-.67v.9a3.45,3.45,0,0,1-2.09.58,2.52,2.52,0,0,1-2-.82A3.81,3.81,0,0,1,224.8,93a2.53,2.53,0,0,1,2-.88,2.25,2.25,0,0,1,1.82.76,3.17,3.17,0,0,1,.64,2.11Zm-1-.82a2,2,0,0,0-.4-1.29,1.36,1.36,0,0,0-1.1-.46,1.55,1.55,0,0,0-1.15.48,2.19,2.19,0,0,0-.59,1.27Z"
         id="path297"
         fill="#1e1e1e" />
      <path
         d="M230.31,98V97a2.82,2.82,0,0,0,1.73.58q1.26,0,1.26-.84a.68.68,0,0,0-.11-.41,1.17,1.17,0,0,0-.29-.3,2.86,2.86,0,0,0-.43-.23l-.54-.21c-.26-.11-.5-.21-.7-.32a2,2,0,0,1-.5-.37,1.21,1.21,0,0,1-.31-.46,1.57,1.57,0,0,1-.1-.6,1.55,1.55,0,0,1,.19-.75,1.78,1.78,0,0,1,.52-.54,2.21,2.21,0,0,1,.73-.33,3.07,3.07,0,0,1,.86-.11,3.41,3.41,0,0,1,1.39.27v1a2.7,2.7,0,0,0-1.52-.43,1.88,1.88,0,0,0-.49.06,1.26,1.26,0,0,0-.37.17.78.78,0,0,0-.24.27.63.63,0,0,0-.08.34.75.75,0,0,0,.08.39.83.83,0,0,0,.25.28,1.68,1.68,0,0,0,.4.23l.53.21a7,7,0,0,1,.72.32,1.9,1.9,0,0,1,.53.36,1.35,1.35,0,0,1,.35.47,1.46,1.46,0,0,1,.12.62,1.51,1.51,0,0,1-.2.78,1.67,1.67,0,0,1-.52.54,2.49,2.49,0,0,1-.76.32,3.7,3.7,0,0,1-.9.11A3.37,3.37,0,0,1,230.31,98Z"
         id="path299"
         fill="#1e1e1e" />
      <path
         d="M235.4,98V97a2.82,2.82,0,0,0,1.73.58q1.26,0,1.26-.84a.76.76,0,0,0-.1-.41,1.22,1.22,0,0,0-.3-.3,2.44,2.44,0,0,0-.43-.23l-.54-.21c-.26-.11-.5-.21-.7-.32a2,2,0,0,1-.5-.37,1.21,1.21,0,0,1-.31-.46,1.79,1.79,0,0,1-.1-.6,1.45,1.45,0,0,1,.2-.75,1.74,1.74,0,0,1,.51-.54,2.26,2.26,0,0,1,.74-.33,3,3,0,0,1,.85-.11,3.41,3.41,0,0,1,1.39.27v1a2.7,2.7,0,0,0-1.52-.43,1.88,1.88,0,0,0-.49.06,1.4,1.4,0,0,0-.37.17.78.78,0,0,0-.24.27.74.74,0,0,0-.08.34.87.87,0,0,0,.08.39.83.83,0,0,0,.25.28,1.68,1.68,0,0,0,.4.23l.53.21a6.17,6.17,0,0,1,.72.32,2.12,2.12,0,0,1,.54.36,1.4,1.4,0,0,1,.46,1.09,1.51,1.51,0,0,1-.2.78,1.67,1.67,0,0,1-.52.54,2.49,2.49,0,0,1-.76.32,3.68,3.68,0,0,1-.89.11A3.39,3.39,0,0,1,235.4,98Z"
         id="path301"
         fill="#1e1e1e" />
      <path
         d="M246.93,98.15a1.94,1.94,0,0,1-.9.19c-1.05,0-1.58-.59-1.58-1.76V93h-1v-.82h1V90.74l1-.31v1.78h1.52V93h-1.52v3.38a1.37,1.37,0,0,0,.21.86.83.83,0,0,0,.68.26,1.05,1.05,0,0,0,.63-.2Z"
         id="path303"
         fill="#1e1e1e" />
      <path
         d="M250.59,98.35a2.79,2.79,0,0,1-2.13-.84,3.12,3.12,0,0,1-.79-2.23,3.23,3.23,0,0,1,.82-2.36,3,3,0,0,1,2.24-.85,2.68,2.68,0,0,1,2.09.82,3.29,3.29,0,0,1,.75,2.29,3.21,3.21,0,0,1-.81,2.3A2.82,2.82,0,0,1,250.59,98.35Zm.07-5.47a1.84,1.84,0,0,0-1.47.63,2.56,2.56,0,0,0-.54,1.73,2.41,2.41,0,0,0,.55,1.68,1.85,1.85,0,0,0,1.46.62,1.77,1.77,0,0,0,1.43-.6,2.67,2.67,0,0,0,.5-1.72,2.71,2.71,0,0,0-.5-1.74A1.77,1.77,0,0,0,250.66,92.88Z"
         id="path305"
         fill="#1e1e1e" />
      <path
         d="M260,98.21h-1.34L256,95.32h0v2.89h-1V89.32h1V95h0l2.52-2.75h1.26L257,95.1Z"
         id="path307"
         fill="#1e1e1e" />
      <path
         d="M265.55,95.45h-4.23a2.16,2.16,0,0,0,.54,1.54,1.82,1.82,0,0,0,1.41.55,2.94,2.94,0,0,0,1.87-.67v.9a3.46,3.46,0,0,1-2.1.58,2.51,2.51,0,0,1-2-.82,3.83,3.83,0,0,1,.06-4.58,2.55,2.55,0,0,1,2-.88,2.25,2.25,0,0,1,1.82.76,3.17,3.17,0,0,1,.64,2.11Zm-1-.82a2,2,0,0,0-.4-1.29,1.37,1.37,0,0,0-1.1-.46,1.59,1.59,0,0,0-1.16.48,2.24,2.24,0,0,0-.58,1.27Z"
         id="path309"
         fill="#1e1e1e" />
      <path
         d="M272,98.21h-1V94.79c0-1.28-.47-1.91-1.4-1.91a1.5,1.5,0,0,0-1.19.54,2,2,0,0,0-.47,1.37v3.42h-1v-6h1v1h0a2.17,2.17,0,0,1,2-1.13,1.82,1.82,0,0,1,1.5.63,2.84,2.84,0,0,1,.53,1.84Z"
         id="path311"
         fill="#1e1e1e" />
    </g>
    <g
       id="g361">
      <polygon
         points="192.56 133.78 185 139.22 187.89 148.03 197.23 148.03 200.12 139.22 192.56 133.78"
         stroke-miterlimit="10"
         id="polygon315"
         stroke-width="0.75"
         stroke="#000"
         fill="#ebebeb" />
      <g
         id="g359">
        <g
           id="g339">
          <path
             d="M213,147.22h-1.09l-.89-2.35h-3.56l-.84,2.35h-1.1l3.22-8.4h1Zm-2.3-3.24-1.32-3.58a2.59,2.59,0,0,1-.13-.56h0a3.23,3.23,0,0,1-.14.56L207.73,144Z"
             id="path317"
             fill="#1e1e1e" />
          <path
             d="M218,147a3.19,3.19,0,0,1-1.64.41,2.72,2.72,0,0,1-2.07-.83,3,3,0,0,1-.79-2.17,3.3,3.3,0,0,1,.85-2.38,3,3,0,0,1,2.26-.9,3.24,3.24,0,0,1,1.4.29v1a2.4,2.4,0,0,0-1.43-.47,1.93,1.93,0,0,0-1.51.66,2.5,2.5,0,0,0-.59,1.73,2.36,2.36,0,0,0,.56,1.66,1.87,1.87,0,0,0,1.48.61A2.41,2.41,0,0,0,218,146Z"
             id="path319"
             fill="#1e1e1e" />
          <path
             d="M223.42,147a3.19,3.19,0,0,1-1.64.41,2.75,2.75,0,0,1-2.07-.83,3,3,0,0,1-.79-2.17,3.35,3.35,0,0,1,.85-2.38,3,3,0,0,1,2.27-.9,3.2,3.2,0,0,1,1.39.29v1a2.38,2.38,0,0,0-1.43-.47,1.91,1.91,0,0,0-1.5.66,2.46,2.46,0,0,0-.59,1.73,2.36,2.36,0,0,0,.55,1.66,1.89,1.89,0,0,0,1.49.61,2.38,2.38,0,0,0,1.47-.52Z"
             id="path321"
             fill="#1e1e1e" />
          <path
             d="M229.58,144.46h-4.24a2.3,2.3,0,0,0,.54,1.55,1.87,1.87,0,0,0,1.42.54,2.91,2.91,0,0,0,1.86-.67v.91a3.5,3.5,0,0,1-2.09.57,2.53,2.53,0,0,1-2-.82,3.35,3.35,0,0,1-.72-2.3,3.28,3.28,0,0,1,.79-2.28,2.54,2.54,0,0,1,2-.88,2.24,2.24,0,0,1,1.82.76,3.18,3.18,0,0,1,.65,2.12Zm-1-.81a1.91,1.91,0,0,0-.4-1.3,1.36,1.36,0,0,0-1.1-.46,1.56,1.56,0,0,0-1.15.48,2.25,2.25,0,0,0-.59,1.28Z"
             id="path323"
             fill="#1e1e1e" />
          <path
             d="M230.65,147v-1a2.84,2.84,0,0,0,1.73.58c.84,0,1.27-.28,1.27-.84a.76.76,0,0,0-.11-.41.93.93,0,0,0-.3-.29,1.94,1.94,0,0,0-.43-.24l-.53-.21a5.16,5.16,0,0,1-.7-.32,2.29,2.29,0,0,1-.51-.36,1.35,1.35,0,0,1-.3-.46,1.62,1.62,0,0,1-.11-.61,1.39,1.39,0,0,1,.2-.74,1.78,1.78,0,0,1,.51-.55,2.77,2.77,0,0,1,.74-.33,3.41,3.41,0,0,1,.85-.11,3.46,3.46,0,0,1,1.4.27v1a2.74,2.74,0,0,0-1.53-.43,1.75,1.75,0,0,0-.48.06,1.33,1.33,0,0,0-.38.17,1,1,0,0,0-.24.27.77.77,0,0,0-.08.34.87.87,0,0,0,.08.39,1,1,0,0,0,.25.29,2.11,2.11,0,0,0,.4.22l.53.22a6.21,6.21,0,0,1,.72.31,2.82,2.82,0,0,1,.54.36,1.41,1.41,0,0,1,.34.47,1.48,1.48,0,0,1,.12.63,1.41,1.41,0,0,1-.2.77,1.58,1.58,0,0,1-.52.54,2.28,2.28,0,0,1-.76.33,3.68,3.68,0,0,1-.89.1A3.41,3.41,0,0,1,230.65,147Z"
             id="path325"
             fill="#1e1e1e" />
          <path
             d="M235.74,147v-1a2.84,2.84,0,0,0,1.73.58c.85,0,1.27-.28,1.27-.84a.76.76,0,0,0-.11-.41,1,1,0,0,0-.29-.29,2.28,2.28,0,0,0-.44-.24l-.53-.21a5.16,5.16,0,0,1-.7-.32,2.55,2.55,0,0,1-.51-.36,1.52,1.52,0,0,1-.3-.46,1.63,1.63,0,0,1-.1-.61,1.38,1.38,0,0,1,.19-.74,1.78,1.78,0,0,1,.51-.55,2.77,2.77,0,0,1,.74-.33,3.59,3.59,0,0,1,2.25.16v1a2.71,2.71,0,0,0-1.53-.43,1.75,1.75,0,0,0-.48.06,1.15,1.15,0,0,0-.37.17.76.76,0,0,0-.24.27.67.67,0,0,0-.09.34.75.75,0,0,0,.09.39.81.81,0,0,0,.24.29,2.48,2.48,0,0,0,.4.22l.54.22a6.85,6.85,0,0,1,.71.31,2.82,2.82,0,0,1,.54.36,1.41,1.41,0,0,1,.34.47,1.48,1.48,0,0,1,.12.63,1.49,1.49,0,0,1-.19.77,1.61,1.61,0,0,1-.53.54,2.32,2.32,0,0,1-.75.33,3.82,3.82,0,0,1-.9.1A3.41,3.41,0,0,1,235.74,147Z"
             id="path327"
             fill="#1e1e1e" />
          <path
             d="M247.27,147.16a1.82,1.82,0,0,1-.9.19c-1.05,0-1.57-.59-1.57-1.76V142h-1v-.82h1v-1.46l1-.31v1.77h1.51V142h-1.51v3.38a1.45,1.45,0,0,0,.2.86.81.81,0,0,0,.68.26,1.05,1.05,0,0,0,.63-.2Z"
             id="path329"
             fill="#1e1e1e" />
          <path
             d="M250.93,147.36a2.79,2.79,0,0,1-2.13-.84,3.1,3.1,0,0,1-.79-2.23,3.25,3.25,0,0,1,.83-2.36,3,3,0,0,1,2.23-.85,2.69,2.69,0,0,1,2.09.83,3.28,3.28,0,0,1,.76,2.29,3.21,3.21,0,0,1-.82,2.3A2.85,2.85,0,0,1,250.93,147.36Zm.07-5.47a1.84,1.84,0,0,0-1.47.63,2.59,2.59,0,0,0-.54,1.74,2.46,2.46,0,0,0,.55,1.68,1.85,1.85,0,0,0,1.46.61,1.75,1.75,0,0,0,1.43-.6,3.23,3.23,0,0,0,0-3.45A1.73,1.73,0,0,0,251,141.89Z"
             id="path331"
             fill="#1e1e1e" />
          <path
             d="M260.38,147.22H259l-2.65-2.88h0v2.88h-1v-8.88h1V144h0l2.52-2.75h1.26l-2.78,2.9Z"
             id="path333"
             fill="#1e1e1e" />
          <path
             d="M265.9,144.46h-4.24a2.21,2.21,0,0,0,.54,1.55,1.85,1.85,0,0,0,1.42.54,2.93,2.93,0,0,0,1.86-.67v.91a3.52,3.52,0,0,1-2.09.57,2.52,2.52,0,0,1-2-.82,3.36,3.36,0,0,1-.73-2.3,3.29,3.29,0,0,1,.8-2.28,2.53,2.53,0,0,1,2-.88,2.25,2.25,0,0,1,1.82.76,3.18,3.18,0,0,1,.65,2.12Zm-1-.81a2,2,0,0,0-.4-1.3,1.36,1.36,0,0,0-1.1-.46,1.55,1.55,0,0,0-1.15.48,2.19,2.19,0,0,0-.59,1.28Z"
             id="path335"
             fill="#1e1e1e" />
          <path
             d="M272.33,147.22h-1V143.8c0-1.27-.47-1.91-1.4-1.91a1.52,1.52,0,0,0-1.19.54,2,2,0,0,0-.47,1.37v3.42h-1v-6h1v1h0a2.17,2.17,0,0,1,2-1.14,1.83,1.83,0,0,1,1.51.64,2.79,2.79,0,0,1,.52,1.83Z"
             id="path337"
             fill="#1e1e1e" />
        </g>
        <g
           id="g357">
          <path
             d="M212.76,133h-1v-3.83h-4.35V133h-1v-8.4h1v3.69h4.35v-3.69h1Z"
             id="path341"
             fill="#1e1e1e" />
          <path
             d="M219.81,125.5h-2.43V133h-1V125.5H214v-.89h5.83Z"
             id="path343"
             fill="#1e1e1e" />
          <path
             d="M226.41,125.5H224V133h-1V125.5h-2.42v-.89h5.83Z"
             id="path345"
             fill="#1e1e1e" />
          <path
             d="M228.6,129.84V133h-1v-8.4h2.31a3,3,0,0,1,2.09.66,2.35,2.35,0,0,1,.74,1.85,2.58,2.58,0,0,1-.82,2,3.19,3.19,0,0,1-2.23.76Zm0-4.34V129h1a2.3,2.3,0,0,0,1.55-.47,1.64,1.64,0,0,0,.54-1.31c0-1.11-.66-1.67-2-1.67Z"
             id="path347"
             fill="#1e1e1e" />
          <path
             d="M243.9,132.44a5.57,5.57,0,0,1-2.81.72,3.86,3.86,0,0,1-2.91-1.16,4.28,4.28,0,0,1-1.11-3.08,4.38,4.38,0,0,1,1.23-3.2,4.23,4.23,0,0,1,3.13-1.25,5.27,5.27,0,0,1,2.3.45V126a4.41,4.41,0,0,0-2.41-.65,3,3,0,0,0-2.32,1,4.07,4.07,0,0,0-.06,5,2.92,2.92,0,0,0,2.27.91,3.57,3.57,0,0,0,1.71-.39v-2.36h-1.84v-.89h2.82Z"
             id="path349"
             fill="#1e1e1e" />
          <path
             d="M250.24,133h-4.45v-8.4h4.26v.89h-3.28v2.8h3v.88h-3v2.94h3.47Z"
             id="path351"
             fill="#1e1e1e" />
          <path
             d="M256.9,125.5h-2.43V133h-1V125.5h-2.42v-.89h5.83Z"
             id="path353"
             fill="#1e1e1e" />
          <path
             d="M267.27,129.91H264.9v2.36h-.78v-2.36h-2.36v-.79h2.36v-2.36h.78v2.36h2.37Z"
             id="path355"
             fill="#1e1e1e" />
        </g>
      </g>
    </g>
    <use
       width="21"
       height="20"
       transform="translate(158.41 145.21)"
       xlink:href="#New_Symbol_45"
       id="use363" />
    <use
       width="21"
       height="20"
       transform="translate(158.41 95.67)"
       xlink:href="#New_Symbol_44"
       id="use365" />
    <use
       width="21"
       height="20"
       transform="translate(158.41 64.93)"
       xlink:href="#New_Symbol_43"
       id="use367" />
    <g
       id="g393">
      <path
         d="M191.79,190.21h-1v-3.84h-4.35v3.84h-1V181.8h1v3.69h4.35V181.8h1Z"
         id="path369"
         fill="#1e1e1e" />
      <path
         d="M198.84,182.7h-2.43v7.51h-1V182.7H193v-.9h5.83Z"
         id="path371"
         fill="#1e1e1e" />
      <path
         d="M205.44,182.7H203v7.51h-1V182.7h-2.42v-.9h5.83Z"
         id="path373"
         fill="#1e1e1e" />
      <path
         d="M207.62,187v3.18h-1V181.8H209a3,3,0,0,1,2.09.66,2.37,2.37,0,0,1,.74,1.85,2.55,2.55,0,0,1-.83,2,3.12,3.12,0,0,1-2.22.76Zm0-4.33v3.44h1a2.26,2.26,0,0,0,1.55-.47,1.63,1.63,0,0,0,.54-1.31c0-1.11-.66-1.66-2-1.66Z"
         id="path375"
         fill="#1e1e1e" />
      <path
         d="M219.65,185.18a1.18,1.18,0,0,0-.73-.19,1.23,1.23,0,0,0-1,.58,2.7,2.7,0,0,0-.41,1.58v3.06h-1v-6h1v1.23h0a2.09,2.09,0,0,1,.63-1,1.42,1.42,0,0,1,.94-.36,1.75,1.75,0,0,1,.58.08Z"
         id="path377"
         fill="#1e1e1e" />
      <path
         d="M225.53,187.45h-4.24a2.21,2.21,0,0,0,.54,1.54,1.82,1.82,0,0,0,1.42.55,2.93,2.93,0,0,0,1.86-.67v.9a3.43,3.43,0,0,1-2.09.58,2.52,2.52,0,0,1-2-.82,3.36,3.36,0,0,1-.73-2.3,3.29,3.29,0,0,1,.8-2.28,2.53,2.53,0,0,1,2-.88,2.25,2.25,0,0,1,1.82.76,3.17,3.17,0,0,1,.65,2.11Zm-1-.82a2,2,0,0,0-.4-1.29,1.36,1.36,0,0,0-1.1-.47,1.56,1.56,0,0,0-1.15.49,2.25,2.25,0,0,0-.59,1.27Z"
         id="path379"
         fill="#1e1e1e" />
      <path
         d="M226.6,190v-1a2.82,2.82,0,0,0,1.73.58q1.26,0,1.26-.84a.76.76,0,0,0-.1-.41,1.22,1.22,0,0,0-.3-.3,2.44,2.44,0,0,0-.43-.23l-.54-.21-.7-.32a2,2,0,0,1-.5-.37,1.21,1.21,0,0,1-.31-.46,1.79,1.79,0,0,1-.1-.6,1.45,1.45,0,0,1,.2-.75,1.74,1.74,0,0,1,.51-.54,2.26,2.26,0,0,1,.74-.33,3,3,0,0,1,.85-.11,3.41,3.41,0,0,1,1.39.27v1a2.71,2.71,0,0,0-1.52-.44,1.87,1.87,0,0,0-.49.07,1.4,1.4,0,0,0-.37.17.78.78,0,0,0-.24.27.63.63,0,0,0-.08.34.78.78,0,0,0,.08.39.83.83,0,0,0,.25.28,2.11,2.11,0,0,0,.4.23l.53.21a6.17,6.17,0,0,1,.72.32,2.12,2.12,0,0,1,.54.36,1.36,1.36,0,0,1,.46,1.09,1.45,1.45,0,0,1-.2.77,1.61,1.61,0,0,1-.52.55,2.49,2.49,0,0,1-.76.32,3.68,3.68,0,0,1-.89.11A3.39,3.39,0,0,1,226.6,190Z"
         id="path381"
         fill="#1e1e1e" />
      <path
         d="M232.93,189.34h0V193h-1v-8.76h1v1h0a2.27,2.27,0,0,1,2.08-1.19,2.2,2.2,0,0,1,1.81.8,3.37,3.37,0,0,1,.65,2.16,3.69,3.69,0,0,1-.74,2.41,2.4,2.4,0,0,1-2,.91A2,2,0,0,1,232.93,189.34Zm0-2.42v.84a1.8,1.8,0,0,0,.48,1.26,1.59,1.59,0,0,0,1.23.52,1.6,1.6,0,0,0,1.37-.67,3,3,0,0,0,.49-1.86,2.43,2.43,0,0,0-.46-1.57,1.53,1.53,0,0,0-1.25-.57,1.71,1.71,0,0,0-1.35.59A2.13,2.13,0,0,0,232.91,186.92Z"
         id="path383"
         fill="#1e1e1e" />
      <path
         d="M241.51,190.35a2.76,2.76,0,0,1-2.12-.84,3.12,3.12,0,0,1-.8-2.23,3.23,3.23,0,0,1,.83-2.36,3,3,0,0,1,2.23-.85,2.68,2.68,0,0,1,2.09.82,3.25,3.25,0,0,1,.76,2.29,3.21,3.21,0,0,1-.81,2.3A2.84,2.84,0,0,1,241.51,190.35Zm.07-5.48a1.8,1.8,0,0,0-1.46.63,2.59,2.59,0,0,0-.54,1.74,2.46,2.46,0,0,0,.54,1.68,1.85,1.85,0,0,0,1.46.62,1.75,1.75,0,0,0,1.43-.6,2.61,2.61,0,0,0,.5-1.72,2.65,2.65,0,0,0-.5-1.74A1.76,1.76,0,0,0,241.58,184.87Z"
         id="path385"
         fill="#1e1e1e" />
      <path
         d="M251,190.21h-1v-3.42c0-1.28-.47-1.92-1.4-1.92a1.53,1.53,0,0,0-1.19.55,2,2,0,0,0-.47,1.37v3.42h-1v-6h1v1h0a2.18,2.18,0,0,1,2-1.13,1.85,1.85,0,0,1,1.51.63,2.84,2.84,0,0,1,.52,1.84Z"
         id="path387"
         fill="#1e1e1e" />
      <path
         d="M252.38,190v-1a2.84,2.84,0,0,0,1.73.58c.84,0,1.27-.28,1.27-.84a.76.76,0,0,0-.11-.41,1.07,1.07,0,0,0-.3-.3,2.44,2.44,0,0,0-.43-.23l-.54-.21-.7-.32a2.16,2.16,0,0,1-.5-.37,1.19,1.19,0,0,1-.3-.46,1.57,1.57,0,0,1-.11-.6,1.45,1.45,0,0,1,.2-.75,1.87,1.87,0,0,1,.51-.54,2.26,2.26,0,0,1,.74-.33,3,3,0,0,1,.85-.11,3.41,3.41,0,0,1,1.39.27v1a2.69,2.69,0,0,0-1.52-.44,1.73,1.73,0,0,0-.48.07,1.33,1.33,0,0,0-.38.17.78.78,0,0,0-.24.27.74.74,0,0,0-.08.34.9.9,0,0,0,.08.39.83.83,0,0,0,.25.28,2.11,2.11,0,0,0,.4.23l.53.21a6.17,6.17,0,0,1,.72.32,2.12,2.12,0,0,1,.54.36,1.38,1.38,0,0,1,.34.46,1.54,1.54,0,0,1,.12.63,1.45,1.45,0,0,1-.2.77,1.61,1.61,0,0,1-.52.55,2.49,2.49,0,0,1-.76.32,3.68,3.68,0,0,1-.89.11A3.39,3.39,0,0,1,252.38,190Z"
         id="path389"
         fill="#1e1e1e" />
      <path
         d="M262.63,187.45H258.4a2.16,2.16,0,0,0,.54,1.54,1.82,1.82,0,0,0,1.41.55,2.94,2.94,0,0,0,1.87-.67v.9a3.45,3.45,0,0,1-2.09.58,2.52,2.52,0,0,1-2-.82,3.81,3.81,0,0,1,.07-4.58,2.51,2.51,0,0,1,2-.88,2.25,2.25,0,0,1,1.82.76,3.17,3.17,0,0,1,.64,2.11Zm-1-.82a2,2,0,0,0-.4-1.29,1.38,1.38,0,0,0-1.1-.47,1.6,1.6,0,0,0-1.16.49,2.24,2.24,0,0,0-.58,1.27Z"
         id="path391"
         fill="#1e1e1e" />
    </g>
    <text
       xml:space="preserve"
       style="font-style:normal;font-weight:normal;font-size:17.66120529px;line-height:1.25;font-family:sans-serif;letter-spacing:0px;word-spacing:0px;fill:#000000;fill-opacity:1;stroke:none;stroke-width:0.44153017"
       x="51.596443"
       y="124.70028"
       id="text4126"><tspan
         sodipodi:role="line"
         id="tspan4124"
         x="51.596439"
         y="124.70028"
         style="font-weight:bold;text-align:center;text-anchor:middle;stroke-width:0.44153017">Angular</tspan><tspan
         sodipodi:role="line"
         x="51.596443"
         y="146.77678"
         id="tspan4128"
         style="font-weight:bold;text-align:center;text-anchor:middle;stroke-width:0.44153017">SPA</tspan></text>
  </g>
</svg>
