<?xml version="1.0" encoding="UTF-8" standalone="no"?>
<!DOCTYPE svg PUBLIC "-//W3C//DTD SVG 1.1//EN" "http://www.w3.org/Graphics/SVG/1.1/DTD/svg11.dtd">
<!-- Generated by Microsoft Visio, SVG Export Consistency.svg Page-1 -->
<svg xmlns="http://www.w3.org/2000/svg" xmlns:xlink="http://www.w3.org/1999/xlink" xmlns:ev="http://www.w3.org/2001/xml-events"
		xmlns:v="http://schemas.microsoft.com/visio/2003/SVGExtensions/" width="6.51042in" height="1.98956in"
		viewBox="0 0 468.75 143.249" xml:space="preserve" color-interpolation-filters="sRGB" class="st8">
	<v:documentProperties v:langID="1033" v:viewMarkup="false"/>

	<style type="text/css">
	<![CDATA[
		.st1 {fill:#00bcf2;stroke:none;stroke-linecap:round;stroke-linejoin:round;stroke-width:0.24}
		.st2 {fill:#92d050;stroke:none;stroke-linecap:butt;stroke-width:0.177083}
		.st3 {fill:none;stroke:none;stroke-linecap:round;stroke-linejoin:round;stroke-width:0.75}
		.st4 {fill:#000000;font-family:Segoe UI;font-size:1.00001em}
		.st5 {font-size:1em}
		.st6 {marker-end:url(#mrkr1-35);stroke:#000000;stroke-linecap:round;stroke-linejoin:round;stroke-width:0.75}
		.st7 {fill:#000000;fill-opacity:1;stroke:#000000;stroke-opacity:1;stroke-width:0.22935779816514}
		.st8 {fill:none;fill-rule:evenodd;font-size:12px;overflow:visible;stroke-linecap:square;stroke-miterlimit:3}
	]]>
	</style>

	<defs id="Markers">
		<g id="lend1">
			<path d="M 1 -1 L 0 0 L 1 1 " style="stroke-linecap:round;stroke-linejoin:round;fill:none"/>
		</g>
		<marker id="mrkr1-35" class="st7" v:arrowType="1" v:arrowSize="2" orient="auto" markerUnits="strokeWidth"
				overflow="visible">
			<use xlink:href="#lend1" transform="scale(-4.36,-4.36) "/>
		</marker>
	</defs>
	<g v:mID="0" v:index="1" v:groupContext="foregroundPage">
		<title>Page-1</title>
		<v:pageProperties v:drawingScale="1" v:pageScale="1" v:drawingUnits="19" v:shadowOffsetX="9" v:shadowOffsetY="-9"/>
		<g id="shape2-1" v:mID="2" v:groupContext="shape" transform="translate(18.375,-95.7264)">
			<title>box 2</title>
			<rect x="0" y="129.749" width="436.5" height="13.5" class="st1"/>
		</g>
		<g id="shape4-3" v:mID="4" v:groupContext="shape" transform="translate(127.145,-84.585) rotate(45)">
			<title>num label rotate ptr</title>
			<path d="M11.81 119.62 C5.3 119.62 0 124.92 0 131.43 C0 137.95 5.3 143.25 11.81 143.25 L23.63 143.25 L23.63 131.43 C23.63
						 124.89 18.33 119.62 11.81 119.62 Z" class="st2"/>
		</g>
		<g id="shape9-5" v:mID="9" v:groupContext="shape" transform="translate(226.145,-84.585) rotate(45)">
			<title>num label rotate ptr.9</title>
			<path d="M11.81 119.62 C5.3 119.62 0 124.92 0 131.43 C0 137.95 5.3 143.25 11.81 143.25 L23.63 143.25 L23.63 131.43 C23.63
						 124.89 18.33 119.62 11.81 119.62 Z" class="st2"/>
		</g>
		<g id="shape10-7" v:mID="10" v:groupContext="shape" transform="translate(321.767,-84.585) rotate(45)">
			<title>num label rotate ptr.10</title>
			<path d="M11.81 119.62 C5.3 119.62 0 124.92 0 131.43 C0 137.95 5.3 143.25 11.81 143.25 L23.63 143.25 L23.63 131.43 C23.63
						 124.89 18.33 119.62 11.81 119.62 Z" class="st2"/>
		</g>
		<g id="shape11-9" v:mID="11" v:groupContext="shape" transform="translate(415.145,-84.585) rotate(45)">
			<title>num label rotate ptr.11</title>
			<path d="M11.81 119.62 C5.3 119.62 0 124.92 0 131.43 C0 137.95 5.3 143.25 11.81 143.25 L23.63 143.25 L23.63 131.43 C23.63
						 124.89 18.33 119.62 11.81 119.62 Z" class="st2"/>
		</g>
		<g id="shape12-11" v:mID="12" v:groupContext="shape" transform="translate(510.767,-84.585) rotate(45)">
			<title>num label rotate ptr.12</title>
			<path d="M11.81 119.62 C5.3 119.62 0 124.92 0 131.43 C0 137.95 5.3 143.25 11.81 143.25 L23.63 143.25 L23.63 131.43 C23.63
						 124.89 18.33 119.62 11.81 119.62 Z" class="st2"/>
		</g>
		<g id="shape13-13" v:mID="13" v:groupContext="shape" transform="translate(0.375,-72.375)">
			<title>Sheet.13</title>
			<desc>Strong</desc>
			<v:textBlock v:margins="rect(4,4,4,4)"/>
			<v:textRect cx="41.3243" cy="133.249" width="82.65" height="20"/>
			<rect x="0" y="123.249" width="82.6486" height="20" class="st3"/>
			<text x="23.57" y="136.85" class="st4" v:langID="1033"><v:paragraph v:horizAlign="1"/><v:tabList/>Strong</text>		</g>
		<g id="shape14-16" v:mID="14" v:groupContext="shape" transform="translate(99.375,-63.1318)">
			<title>Sheet.14</title>
			<desc>Bounded-staleness</desc>
			<v:textBlock v:margins="rect(4,4,4,4)"/>
			<v:textRect cx="41.3243" cy="133.249" width="82.65" height="20"/>
			<rect x="0" y="123.249" width="82.6486" height="20" class="st3"/>
			<text x="14.97" y="129.65" class="st4" v:langID="1033"><v:paragraph v:horizAlign="1"/><v:tabList/>Bounded-<tspan
						x="17.48" dy="1.2em" class="st5">staleness</tspan></text>		</g>
		<g id="shape15-20" v:mID="15" v:groupContext="shape" transform="translate(198.375,-72.1318)">
			<title>Sheet.15</title>
			<desc>Session</desc>
			<v:textBlock v:margins="rect(4,4,4,4)"/>
			<v:textRect cx="41.3243" cy="133.249" width="82.65" height="20"/>
			<rect x="0" y="123.249" width="82.6486" height="20" class="st3"/>
			<text x="21.54" y="136.85" class="st4" v:langID="1033"><v:paragraph v:horizAlign="1"/><v:tabList/>Session</text>		</g>
		<g id="shape16-23" v:mID="16" v:groupContext="shape" transform="translate(292.051,-63.1318)">
			<title>Sheet.16</title>
			<desc>Consistent Prefix</desc>
			<v:textBlock v:margins="rect(4,4,4,4)"/>
			<v:textRect cx="41.3243" cy="133.249" width="82.65" height="20"/>
			<rect x="0" y="123.249" width="82.6486" height="20" class="st3"/>
			<text x="13.55" y="129.65" class="st4" v:langID="1033"><v:paragraph v:horizAlign="1"/><v:tabList/>Consistent <tspan
						x="26.66" dy="1.2em" class="st5">Prefix</tspan></text>		</g>
		<g id="shape17-27" v:mID="17" v:groupContext="shape" transform="translate(385.726,-72.1318)">
			<title>Sheet.17</title>
			<desc>Eventual</desc>
			<v:textBlock v:margins="rect(4,4,4,4)"/>
			<v:textRect cx="41.3243" cy="133.249" width="82.65" height="20"/>
			<rect x="0" y="123.249" width="82.6486" height="20" class="st3"/>
			<text x="18.95" y="136.85" class="st4" v:langID="1033"><v:paragraph v:horizAlign="1"/><v:tabList/>Eventual</text>		</g>
		<g id="shape23-30" v:mID="23" v:groupContext="shape" transform="translate(18.375,-26.6453)">
			<title>Sheet.23</title>
			<path d="M0 143.25 L445.5 143.25" class="st6"/>
		</g>
		<g id="shape24-36" v:mID="24" v:groupContext="shape" transform="translate(198.375,-32.375)">
			<title>Sheet.24</title>
			<desc>Left to right</desc>
			<v:textBlock v:margins="rect(4,4,4,4)"/>
			<v:textRect cx="41.3243" cy="133.249" width="82.65" height="20"/>
			<rect x="0" y="123.249" width="82.6486" height="20" class="st3"/>
			<text x="10.11" y="136.85" class="st4" v:langID="1033"><v:paragraph v:horizAlign="1"/><v:tabList/>Left to right</text>		</g>
		<g id="shape25-39" v:mID="25" v:groupContext="shape" transform="translate(18.375,-0.375)">
			<title>Sheet.25</title>
			<desc>Lower latency, higher availability, better read scalability</desc>
			<v:textBlock v:margins="rect(4,4,4,4)"/>
			<v:textRect cx="222.187" cy="133.249" width="444.38" height="20"/>
			<rect x="0" y="123.249" width="444.375" height="20" class="st3"/>
			<text x="76.85" y="136.85" class="st4" v:langID="1033"><v:paragraph v:horizAlign="1"/><v:tabList/>Lower latency, higher availability, better read scalability</text>		</g>
	</g>
</svg>
