<?xml version="1.0" encoding="utf-8"?>
<!-- Generator: Adobe Illustrator 19.1.0, SVG Export Plug-In . SVG Version: 6.00 Build 0)  -->
<svg version="1.1" id="Layer_1" xmlns="http://www.w3.org/2000/svg" xmlns:xlink="http://www.w3.org/1999/xlink" x="0px" y="0px"
	 viewBox="0 0 50 50" enable-background="new 0 0 50 50" xml:space="preserve">
<path fill="#009580" d="M49.383,24.873c-0.907-2.15-2.785-3.97-5.214-5.083c-1.12-3.765-4.254-7.53-8.928-7.53
	c-0.149,0-0.299,0.004-0.451,0.011c-1.949-1.398-3.843-2.079-5.771-2.079c-1.162,0-2.35,0.257-3.541,0.764
	c-0.882-0.462-1.893-0.703-2.975-0.703c-2.392,0-4.661,1.105-6.061,2.399c-0.441-0.104-0.9-0.156-1.374-0.156
	c-3.568,0-7.104,2.948-8.06,6.522c-3.076,1.116-5.322,3.143-6.377,5.781c-1.023,2.559-0.798,5.42,0.617,7.85
	c1.406,2.413,3.866,3.854,6.58,3.854c1.041,0,2.045-0.213,2.96-0.622c1.65,1.5,3.773,2.397,5.784,2.397
	c0.701,0,1.372-0.104,2.007-0.309c1.628,1.339,4.123,1.841,6.148,1.841c2.389,0,4.465-0.631,5.841-1.733
	c0.892,0.413,1.874,0.627,2.899,0.627h0.001c2.563,0,5.212-1.366,6.659-3.265c0.807,0.331,1.656,0.502,2.515,0.502
	c0,0,0.001,0,0.001,0c2.801-0.001,5.402-1.829,6.626-4.658C50.203,29.124,50.243,26.908,49.383,24.873z"/>
<path fill="#FFFFFF" d="M16.07,38.256v-8.804c0-1.093-0.889-1.981-1.981-1.981H10.79v1.4h3.299c0.32,0,0.581,0.261,0.581,0.581
	v8.569C15.134,38.144,15.604,38.222,16.07,38.256z"/>
<path fill="#FFFFFF" d="M22.158,23.196h-4.432c-0.32,0-0.581-0.261-0.581-0.581V12.076c-0.252,0.186-0.488,0.378-0.702,0.576
	c-0.228-0.054-0.461-0.093-0.698-0.119v10.082c0,1.093,0.889,1.981,1.981,1.981h4.432c0.32,0,0.58,0.26,0.58,0.58v3.282h1.4v-3.282
	C24.139,24.084,23.25,23.196,22.158,23.196z"/>
<path fill="#FFFFFF" d="M40.803,28.794v-1.256h-1.401v1.256c0,0.32-0.26,0.581-0.58,0.581H33.21V19.334
	c0-1.092-0.888-1.981-1.981-1.981h-3.817v1.4h3.817c0.32,0,0.58,0.26,0.58,0.581v19.171c0.453,0.11,0.922,0.174,1.4,0.191v-7.92
	h5.611C39.914,30.775,40.803,29.887,40.803,28.794z"/>
<path fill="#FFFFFF" d="M23.439,34.25c-1.72,0-3.12-1.4-3.12-3.12c0-1.721,1.4-3.121,3.12-3.121c1.721,0,3.12,1.4,3.12,3.121
	C26.559,32.85,25.159,34.25,23.439,34.25z M23.439,29.304c-1.006,0-1.825,0.819-1.825,1.826c0,1.007,0.819,1.826,1.825,1.826
	c1.007,0,1.825-0.819,1.825-1.826C25.264,30.123,24.445,29.304,23.439,29.304z"/>
<path fill="#FFFFFF" d="M8.525,31.28c-1.721,0-3.12-1.4-3.12-3.121c0-1.721,1.4-3.12,3.12-3.12s3.12,1.4,3.12,3.12
	C11.645,29.88,10.246,31.28,8.525,31.28z M8.525,26.333c-1.007,0-1.825,0.819-1.825,1.826c0,1.007,0.819,1.826,1.825,1.826
	s1.825-0.819,1.825-1.826C10.351,27.152,9.532,26.333,8.525,26.333z"/>
<path fill="#FFFFFF" d="M40.114,28.301c-1.721,0-3.12-1.4-3.12-3.12c0-1.721,1.4-3.12,3.12-3.12c1.72,0,3.12,1.4,3.12,3.12
	C43.234,26.902,41.834,28.301,40.114,28.301z M40.114,23.356c-1.007,0-1.825,0.819-1.825,1.825s0.819,1.826,1.825,1.826
	c1.006,0,1.825-0.819,1.825-1.826S41.12,23.356,40.114,23.356z"/>
<path fill="#FFFFFF" d="M25.147,21.161c-1.721,0-3.12-1.4-3.12-3.12c0-1.721,1.4-3.12,3.12-3.12s3.12,1.4,3.12,3.12
	C28.268,19.761,26.868,21.161,25.147,21.161z M25.147,16.215c-1.007,0-1.825,0.819-1.825,1.826c0,1.006,0.819,1.825,1.825,1.825
	s1.825-0.819,1.825-1.825C26.973,17.034,26.154,16.215,25.147,16.215z"/>
</svg>
