<svg xmlns="http://www.w3.org/2000/svg" xmlns:xlink="http://www.w3.org/1999/xlink" viewBox="0 0 546.404 189.962">
  <defs>
    <linearGradient id="linear-gradient" x1="269.104" y1="49.811" x2="269.104" y2="129.011" gradientUnits="userSpaceOnUse">
      <stop offset="0" stop-color="#5ea0ef"/>
      <stop offset="0.18" stop-color="#559cec"/>
      <stop offset="0.47" stop-color="#3c91e5"/>
      <stop offset="0.84" stop-color="#1380da"/>
      <stop offset="1" stop-color="#0078d4"/>
    </linearGradient>
    <linearGradient id="linear-gradient-2" x1="507.118" y1="355.65" x2="507.118" y2="371.413" gradientTransform="matrix(1, 0, 0, -1, 0, 449.773)" gradientUnits="userSpaceOnUse">
      <stop offset="0" stop-color="#198ab3"/>
      <stop offset="0.44" stop-color="#28b7db"/>
      <stop offset="0.78" stop-color="#32d4f5"/>
    </linearGradient>
    <linearGradient id="linear-gradient-3" x1="507.081" y1="349.413" x2="507.081" y2="354.079" xlink:href="#linear-gradient-2"/>
    <linearGradient id="linear-gradient-4" x1="53.335" y1="4.232" x2="53.335" y2="32.232" gradientUnits="userSpaceOnUse">
      <stop offset="0.131" stop-color="#32d4f5"/>
      <stop offset="0.404" stop-color="#28b7db"/>
      <stop offset="1" stop-color="#198ab3"/>
    </linearGradient>
    <linearGradient id="linear-gradient-5" x1="62.638" y1="26.373" x2="62.638" y2="27.628" xlink:href="#linear-gradient-4"/>
    <linearGradient id="linear-gradient-6" x1="62.638" y1="28.539" x2="62.638" y2="29.795" xlink:href="#linear-gradient-4"/>
    <linearGradient id="linear-gradient-7" x1="81.975" y1="417.267" x2="81.975" y2="390.651" gradientTransform="matrix(1, 0, 0, -1, 0, 449.773)" gradientUnits="userSpaceOnUse">
      <stop offset="0.117" stop-color="#5ea0ef"/>
      <stop offset="0.271" stop-color="#4595e8"/>
      <stop offset="0.531" stop-color="#1f85dd"/>
      <stop offset="0.741" stop-color="#087cd6"/>
      <stop offset="0.873" stop-color="#0078d4"/>
    </linearGradient>
  </defs>
  <g id="Shapes">
    <rect width="546.404" height="189.962" fill="#fff"/>
    <g>
      <rect x="53.421" y="23.411" width="492.6" height="167.2" fill="#fff"/>
      <rect x="53.421" y="23.411" width="492.6" height="167.2" fill="#198ab3" opacity="0.12"/>
    </g>
    <g>
      <rect x="66.987" y="49.811" width="404.234" height="79.2" fill="#fff"/>
      <rect x="66.987" y="49.811" width="404.234" height="79.2" opacity="0.4" fill="url(#linear-gradient)"/>
    </g>
    <g>
      <rect x="203.387" y="71.811" width="110" height="35.097" fill="#fff"/>
      <g opacity="0.65">
        <path d="M313.237,71.961v34.8h-109.7v-34.8h109.7m.15-.15h-110v35.1h110v-35.1Z" fill="#505050"/>
      </g>
    </g>
    <g>
      <line x1="257.822" y1="112.393" x2="257.822" y2="136.829" fill="none" stroke="#3c3c41" stroke-miterlimit="10"/>
      <polygon points="254.082 113.487 257.822 107.011 261.561 113.487 254.082 113.487" fill="#3c3c41"/>
      <polygon points="254.082 135.735 257.822 142.211 261.561 135.735 254.082 135.735" fill="#3c3c41"/>
    </g>
    <g>
      <line x1="43.733" y1="89.359" x2="74.805" y2="89.359" fill="none" stroke="#3c3c41" stroke-miterlimit="10"/>
      <polygon points="73.711 93.099 80.187 89.359 73.711 85.62 73.711 93.099" fill="#3c3c41"/>
    </g>
    <g>
      <line x1="159.387" y1="89.359" x2="198.005" y2="89.359" fill="none" stroke="#3c3c41" stroke-miterlimit="10"/>
      <polygon points="196.911 93.099 203.387 89.359 196.911 85.62 196.911 93.099" fill="#3c3c41"/>
    </g>
    <g>
      <line x1="313.387" y1="89.359" x2="352.005" y2="89.359" fill="none" stroke="#3c3c41" stroke-miterlimit="10"/>
      <polygon points="350.911 93.099 357.387 89.359 350.911 85.62 350.911 93.099" fill="#3c3c41"/>
    </g>
    <g>
      <rect x="357.387" y="71.811" width="101.2" height="35.097" fill="#fff"/>
      <g opacity="0.65">
        <path d="M458.437,71.961v34.8h-100.9v-34.8h100.9m.15-.15h-101.2v35.1h101.2v-35.1Z" fill="#505050"/>
      </g>
    </g>
    <g>
      <line x1="458.587" y1="89.359" x2="487.941" y2="89.359" fill="none" stroke="#3c3c41" stroke-miterlimit="10"/>
      <polygon points="486.847 93.099 493.324 89.359 486.847 85.62 486.847 93.099" fill="#3c3c41"/>
    </g>
    <g>
      <path d="M518.227,89.176a5.011,5.011,0,0,0-4.332-4.753,6.3,6.3,0,0,0-6.481-6.061,6.457,6.457,0,0,0-6.172,4.21,5.949,5.949,0,0,0-5.234,5.727,6.048,6.048,0,0,0,6.258,5.814h10.678a.953.953,0,0,0,.272,0A5.048,5.048,0,0,0,518.227,89.176Z" fill="url(#linear-gradient-2)"/>
      <rect x="506.599" y="88.694" width="0.963" height="7.641" fill="#b3b3b3"/>
      <circle cx="507.081" cy="86.386" r="2.568" fill="#f2f2f2"/>
      <rect x="504.748" y="95.693" width="4.666" height="4.666" rx="0.901" fill="url(#linear-gradient-3)"/>
    </g>
    <g>
      <path d="M65.048,24H53.069l.281-1.128h7.473A5.617,5.617,0,0,0,63.292,12.2a6.458,6.458,0,0,0,.146-1.371A6.65,6.65,0,0,0,51.124,7.4a5.05,5.05,0,0,0-7.907,4.107,5.138,5.138,0,0,0,.058.763,5.607,5.607,0,0,0,2.57,10.6h6.881L52.444,24H41.622a.907.907,0,0,0-.905.91v6.417a.908.908,0,0,0,.905.91H65.048a.908.908,0,0,0,.9-.91V24.905A.907.907,0,0,0,65.048,24Zm-19.2-2.674a4.061,4.061,0,0,1-1.415-7.877l.674-.253-.207-.7a3.529,3.529,0,0,1-.142-.992,3.509,3.509,0,0,1,6.05-2.356l.813.864.455-1.1A5.112,5.112,0,0,1,61.9,10.831a5.01,5.01,0,0,1-.26,1.583l-.245.737.734.243a4.067,4.067,0,0,1-1.306,7.926H53.735L54.8,17.056l.051-.3.3-.067a2.363,2.363,0,0,0,.835-.368l.308-.215,2.376,2.3-.061.256a1.471,1.471,0,0,0,1.426,1.819,1.431,1.431,0,0,0,.533-.1,1.481,1.481,0,0,0,.834-1.913,1.463,1.463,0,0,0-1.9-.838.631.631,0,0,0-.06.032c-.023.014-.048.027-.071.039l-.291.15-2.365-2.288.121-.29a2.4,2.4,0,0,0-2.2-3.316,2.365,2.365,0,0,0-1.642.663l-.257.248-1.572-.984.025-.281a1.461,1.461,0,0,0-1.457-1.6,1.448,1.448,0,0,0-.534.1,1.482,1.482,0,0,0-.833,1.914,1.442,1.442,0,0,0,2.224.652l.249-.181,1.562.978-.079.324a2.33,2.33,0,0,0,.048,1.313l.112.342-2.528,1.6-.239-.141a1.172,1.172,0,0,0-1.029-.082,1.2,1.2,0,0,0-.673,1.547,1.183,1.183,0,0,0,1.537.676,1.2,1.2,0,0,0,.748-1.143l-.007-.261L52.867,16l.254.21a2.371,2.371,0,0,0,.735.408l.366.127-.062.377-1.049,4.2Zm18.57,9.365H42.255V25.543h9.8l-.156.623a1.951,1.951,0,1,0,.6.087l.177-.71H64.415Z" fill="url(#linear-gradient-4)"/>
      <path d="M63.263,26.373H62.014v1.255h1.249Z" fill="url(#linear-gradient-5)"/>
      <path d="M63.263,28.539H62.014V29.8h1.249Z" fill="url(#linear-gradient-6)"/>
    </g>
    <g id="a3857c27-3253-4155-b620-22ae9cf301a7">
      <g>
        <path d="M91.424,44.974a8.853,8.853,0,0,0-9.086-8.36A9.109,9.109,0,0,0,73.8,42.429a8.529,8.529,0,0,0-7.269,8,8.384,8.384,0,0,0,8.577,8.184H90.522a6.907,6.907,0,0,0,6.9-6.912A7,7,0,0,0,91.424,44.974Z" fill="url(#linear-gradient-7)"/>
        <g>
          <polygon points="90.189 49.667 82.488 46.806 82.289 47.3 82.414 46.847 75.576 45.342 75.249 46.488 81.019 47.739 73.615 50.799 74.184 51.815 81.829 48.64 83.197 54.665 84.379 54.519 82.986 48.301 89.736 50.769 90.189 49.667" fill="#83b9f9"/>
          <path d="M74.39,46.924a1.512,1.512,0,1,0,.268-2.121h0l-.034.027A1.5,1.5,0,0,0,74.39,46.924Zm-1.716,5.35a1.521,1.521,0,1,0,.258-2.137,1.52,1.52,0,0,0-.258,2.137Zm15.9-1.322a1.505,1.505,0,1,0,.276-2.11l-.006,0h0a1.488,1.488,0,0,0-.278,2.084Z" fill="#9cebff"/>
          <path d="M82.594,55.6a1.505,1.505,0,1,0,.269-2.111h0a1.488,1.488,0,0,0-.29,2.085l0,0Z" fill="#9cebff"/>
        </g>
        <path d="M86.67,47.676a.452.452,0,0,0,0-.786l-3.322-1.922-3.333-1.921a.454.454,0,0,0-.687.393v7.686a.454.454,0,0,0,.687.393L83.348,49.6Z" fill="#c3f1ff"/>
      </g>
    </g>
    <g>
      <g>
        <polygon points="2.687 98.322 11.575 93.848 11.575 84.788 2.687 80.911 2.687 98.322" fill="#fff"/>
        <polygon points="2.687 98.322 11.575 93.848 11.575 84.788 2.687 80.911 2.687 98.322" fill="#3c3c41" opacity="0.85"/>
      </g>
      <g>
        <rect x="13.782" y="80.359" width="31.205" height="18" fill="#fff"/>
        <rect x="13.782" y="80.359" width="31.205" height="18" fill="#3c3c41" opacity="0.85"/>
      </g>
    </g>
    <g>
      <rect x="80.187" y="71.811" width="79.2" height="35.097" fill="#fff"/>
      <g opacity="0.65">
        <path d="M159.237,71.961v34.8h-78.9v-34.8h78.9m.15-.15h-79.2v35.1h79.2v-35.1Z" fill="#505050"/>
      </g>
    </g>
    <g>
      <rect x="178.373" y="142.211" width="158.363" height="35.2" fill="#fff"/>
      <rect x="178.373" y="142.211" width="158.363" height="35.2" fill="#ccc"/>
    </g>
    <g>
      <path d="M176.215,164.037a1.633,1.633,0,0,0-.315.031,3.716,3.716,0,0,0,.026-.437,3.771,3.771,0,0,0-7.324-1.262,2.566,2.566,0,1,0-.862,4.982h8.475a1.657,1.657,0,1,0,0-3.314Z" fill="#999" fill-rule="evenodd"/>
      <path d="M191.572,158.165a1.631,1.631,0,0,0-.314.031,3.944,3.944,0,0,0,.026-.437,3.771,3.771,0,0,0-7.325-1.262,2.566,2.566,0,1,0-.862,4.982h8.475a1.657,1.657,0,1,0,0-3.314Z" fill="#999" fill-rule="evenodd"/>
      <path d="M173.189,153.505l4.141-2.428,1.9,1.2,2.013-1.261,4.047,2.541-.038,2.879,2.466,1.412v4.366l-2.447,1.318v2.409l-4.348,2.5-1.712-1.242-1.6,1.242-4.366-2.579-.038-2.314-2.334-1.431-.094-4.2,2.428-1.5Z" fill="#fff" fill-rule="evenodd"/>
      <path d="M177.3,165.469a.42.42,0,0,1-.286.154.425.425,0,1,1-.086-.845.317.317,0,0,1,.043,0,.426.426,0,0,1,.423.382A.422.422,0,0,1,177.3,165.469Zm-.286-10.82a.424.424,0,0,1-.372-.691.417.417,0,0,1,.286-.154l.043,0a.425.425,0,0,1,.043.848Zm.349,9.945h.076v-2.179a.112.112,0,0,0-.049-.093l-1.557-1.063V158.87l1.556-1.036a.111.111,0,0,0,.05-.094v-2.96a.725.725,0,1,0-.47.172q.037,0,.075,0a.7.7,0,0,0,.17-.041v2.772l-1.556,1.036a.111.111,0,0,0-.05.094v2.509a.112.112,0,0,0,.049.093l1.557,1.063v2.044a.725.725,0,1,0-.244,1.408c.025,0,.049,0,.074,0a.723.723,0,0,0,.319-1.329Z" fill="#2f2f2f" fill-rule="evenodd"/>
      <path d="M181.5,164.776a.317.317,0,0,1,.043,0,.425.425,0,1,1-.086.845.426.426,0,0,1-.38-.465A.425.425,0,0,1,181.5,164.776Zm-.423-10.593a.426.426,0,0,1,.423-.382l.043,0a.417.417,0,0,1,.286.154.425.425,0,1,1-.752.225Zm.538,3.705v-2.945a.733.733,0,1,0-.226,0v3.006a.111.111,0,0,0,.049.093l1.2.829v2.39l-1.556,1.063a.112.112,0,0,0-.049.093v2.166h.094a.724.724,0,0,0,.3,1.342.612.612,0,0,0,.074,0,.726.726,0,1,0-.244-1.409v-2.043l1.557-1.063a.112.112,0,0,0,.049-.093V158.81a.114.114,0,0,0-.048-.093Z" fill="#2f2f2f" fill-rule="evenodd"/>
      <path d="M185.722,159.912a.425.425,0,1,1-.425-.425A.426.426,0,0,1,185.722,159.912ZM184,157.423a.425.425,0,1,1-.425-.425A.425.425,0,0,1,184,157.423Zm-3.364,2.489a.425.425,0,1,1,.425.425A.425.425,0,0,1,180.631,159.912Zm2.939,3.022a.425.425,0,1,1,.425-.425A.425.425,0,0,1,183.57,162.934Zm1.576.463-.944-.537a.727.727,0,1,0-.14.18l.974.554v2.146l-4.14,2.5-1.424-1.017v-7.235h.865a.717.717,0,1,0,.01-.226h-.875v-7.417l1.722-1.038,3.842,2.306v2.73l-.335.195-.608.386a.725.725,0,1,0,.2.5.714.714,0,0,0-.075-.316l.6-.379.318-.186,2.308,1.359v1.867h-1.437a.735.735,0,1,0,.007.226h1.43v2Zm-7.309-3.485a.425.425,0,1,1-.425-.425A.425.425,0,0,1,177.837,159.912ZM174.9,157a.425.425,0,1,1-.425.425A.426.426,0,0,1,174.9,157Zm-2.152,2.914a.425.425,0,1,1,.425.425A.425.425,0,0,1,172.746,159.912Zm1.727,2.6a.425.425,0,1,1,.425.425A.425.425,0,0,1,174.473,162.509Zm3.1,5.728-4.139-2.5v-2.155l.946-.571a.725.725,0,1,0-.206-.505.715.715,0,0,0,.077.319l-.935.564-2.291-1.4v-2h1.43a.717.717,0,1,0,.007-.226h-1.437V157.9l2.3-1.356.924.558a.7.7,0,0,0-.078.32.729.729,0,1,0,.207-.506l-.947-.572V153.61l3.842-2.306L179,152.342v7.417h-.875a.734.734,0,1,0,.01.226H179v7.235Zm7.916-12.013v-2.869l-4.293-2.578-1.96,1.181-1.96-1.181-4.293,2.578v2.869l-2.41,1.419v4.607l2.41,1.468V166l4.611,2.782,1.642-1.171,1.642,1.171L185.487,166v-2.277l2.41-1.468v-4.607Z" fill="#2f2f2f" fill-rule="evenodd"/>
    </g>
  </g>
  <g id="Text">
    <g>
      <path d="M485.362,58.61H483.47v-8.4h1.892Z" fill="#1e1e1e"/>
      <path d="M489.95,58.757a3.222,3.222,0,0,1-2.358-.841,3.475,3.475,0,0,1,.032-4.611,3.364,3.364,0,0,1,2.408-.841,3.185,3.185,0,0,1,2.344.841,2.99,2.99,0,0,1,.85,2.223,3.173,3.173,0,0,1-.876,2.362A3.262,3.262,0,0,1,489.95,58.757ZM490,53.882a1.234,1.234,0,0,0-1.019.451,1.986,1.986,0,0,0-.364,1.277q0,1.73,1.4,1.729,1.331,0,1.33-1.775Q491.339,53.881,490,53.882Z" fill="#1e1e1e"/>
      <path d="M500.509,51.749h-2.4V58.61h-1.9V51.749h-2.385V50.208h6.68Z" fill="#1e1e1e"/>
      <path d="M509.989,58.61H504.95v-8.4H509.8v1.541h-2.953v1.869h2.748v1.535h-2.748v1.922h3.146Z" fill="#1e1e1e"/>
      <path d="M517.026,58.61h-1.851v-.826h-.024a2.074,2.074,0,0,1-1.857.973,2.277,2.277,0,0,1-1.811-.794,3.287,3.287,0,0,1-.685-2.218,3.578,3.578,0,0,1,.756-2.385,2.467,2.467,0,0,1,1.98-.9,1.683,1.683,0,0,1,1.617.832h.024V49.728h1.851Zm-1.816-2.918v-.451a1.416,1.416,0,0,0-.34-.972,1.2,1.2,0,0,0-1.846.1,2.25,2.25,0,0,0-.345,1.327,1.939,1.939,0,0,0,.334,1.219,1.185,1.185,0,0,0,1.842-.023A1.877,1.877,0,0,0,515.21,55.692Z" fill="#1e1e1e"/>
      <path d="M524.468,57.925a3.393,3.393,0,0,1-.967,2.587,3.92,3.92,0,0,1-2.8.917,4.435,4.435,0,0,1-1.922-.346V59.525a3.688,3.688,0,0,0,1.869.539,2.012,2.012,0,0,0,1.454-.5,1.778,1.778,0,0,0,.515-1.344v-.475h-.023a2.068,2.068,0,0,1-1.869,1.008,2.251,2.251,0,0,1-1.823-.809,3.279,3.279,0,0,1-.673-2.168,3.654,3.654,0,0,1,.75-2.42,2.449,2.449,0,0,1,1.974-.9,1.821,1.821,0,0,1,1.641.844h.023v-.7h1.852Zm-1.828-2.2v-.475a1.463,1.463,0,0,0-.337-.97,1.092,1.092,0,0,0-.876-.4,1.133,1.133,0,0,0-.967.48,2.265,2.265,0,0,0-.352,1.354,1.91,1.91,0,0,0,.334,1.186,1.09,1.09,0,0,0,.914.437,1.132,1.132,0,0,0,.929-.442A1.811,1.811,0,0,0,522.64,55.728Z" fill="#1e1e1e"/>
      <path d="M531.405,56.138h-3.914q.094,1.307,1.647,1.306a3.218,3.218,0,0,0,1.74-.468v1.336a4.57,4.57,0,0,1-2.162.445,2.793,2.793,0,0,1-3.059-3.053,3.211,3.211,0,0,1,.867-2.367,2.892,2.892,0,0,1,2.133-.873,2.626,2.626,0,0,1,2.031.779,3.005,3.005,0,0,1,.717,2.116ZM529.689,55q0-1.288-1.043-1.289a1,1,0,0,0-.771.369,1.668,1.668,0,0,0-.395.92Z" fill="#1e1e1e"/>
      <path d="M503.4,71.811h-1.9V68.389h-3.481v3.422h-1.892v-8.4h1.892V66.76h3.481V63.408h1.9Z" fill="#1e1e1e"/>
      <path d="M510.845,71.811H509V70.9h-.029a2.094,2.094,0,0,1-1.834,1.06q-2.087,0-2.086-2.525V65.811H506.9v3.457q0,1.27,1.007,1.271a1,1,0,0,0,.8-.348,1.409,1.409,0,0,0,.3-.947V65.811h1.846Z" fill="#1e1e1e"/>
      <path d="M514.278,71.113h-.023v.7H512.4V62.928h1.852v3.785h.023a2.2,2.2,0,0,1,1.952-1.049,2.142,2.142,0,0,1,1.787.8,3.437,3.437,0,0,1,.627,2.18,3.724,3.724,0,0,1-.733,2.408,2.386,2.386,0,0,1-1.957.908A1.89,1.89,0,0,1,514.278,71.113Zm-.052-2.531V69.2a1.4,1.4,0,0,0,.334.961,1.084,1.084,0,0,0,.855.381,1.137,1.137,0,0,0,.982-.489,2.365,2.365,0,0,0,.348-1.386,1.878,1.878,0,0,0-.319-1.163,1.079,1.079,0,0,0-.911-.419,1.178,1.178,0,0,0-.923.416A1.583,1.583,0,0,0,514.226,68.582Z" fill="#1e1e1e"/>
    </g>
    <g>
      <path d="M224.2,93.178h-.984V89.346h-4.348v3.832h-.984v-8.4h.984v3.685h4.348V84.776h.984Z" fill="#1e1e1e"/>
      <path d="M231.376,85.666H228.95v7.512h-.984V85.666h-2.42v-.89h5.83Z" fill="#1e1e1e"/>
      <path d="M237.9,85.666h-2.425v7.512h-.985V85.666h-2.42v-.89h5.83Z" fill="#1e1e1e"/>
      <path d="M240.2,90v3.176h-.984v-8.4h2.308a3.044,3.044,0,0,1,2.089.656,2.342,2.342,0,0,1,.742,1.851,2.545,2.545,0,0,1-.824,1.957,3.144,3.144,0,0,1-2.223.762Zm0-4.336v3.445h1.031a2.308,2.308,0,0,0,1.556-.465,1.648,1.648,0,0,0,.536-1.316q0-1.663-1.968-1.664Z" fill="#1e1e1e"/>
      <path d="M253.917,90.418h-4.236a2.24,2.24,0,0,0,.539,1.547,1.859,1.859,0,0,0,1.418.545,2.948,2.948,0,0,0,1.863-.668v.9a3.481,3.481,0,0,1-2.092.574,2.537,2.537,0,0,1-2-.817,3.347,3.347,0,0,1-.726-2.3,3.278,3.278,0,0,1,.794-2.282,2.544,2.544,0,0,1,1.971-.882,2.254,2.254,0,0,1,1.822.762,3.175,3.175,0,0,1,.645,2.115Zm-.984-.814a1.953,1.953,0,0,0-.4-1.3,1.365,1.365,0,0,0-1.1-.463,1.555,1.555,0,0,0-1.155.486,2.214,2.214,0,0,0-.586,1.272Z" fill="#1e1e1e"/>
      <path d="M259.753,87.178l-2.016,3.035,1.981,2.965H258.6l-1.178-1.945q-.111-.183-.264-.457h-.023q-.03.053-.276.457l-1.2,1.945H254.55l2.045-2.942-1.957-3.058h1.119l1.16,2.051q.129.228.252.468h.023l1.5-2.519Z" fill="#1e1e1e"/>
      <path d="M263.661,93.119a1.849,1.849,0,0,1-.9.188q-1.577,0-1.576-1.758V88h-1.032v-.82h1.032V85.713l.96-.311v1.776h1.512V88h-1.512v3.381a1.4,1.4,0,0,0,.206.861.816.816,0,0,0,.679.258,1.01,1.01,0,0,0,.627-.2Z" fill="#1e1e1e"/>
      <path d="M269.767,90.418H265.53a2.249,2.249,0,0,0,.539,1.547,1.861,1.861,0,0,0,1.418.545,2.953,2.953,0,0,0,1.864-.668v.9a3.483,3.483,0,0,1-2.092.574,2.534,2.534,0,0,1-2-.817,3.342,3.342,0,0,1-.727-2.3,3.283,3.283,0,0,1,.794-2.282,2.546,2.546,0,0,1,1.972-.882,2.255,2.255,0,0,1,1.822.762,3.175,3.175,0,0,1,.645,2.115Zm-.985-.814a1.952,1.952,0,0,0-.4-1.3,1.367,1.367,0,0,0-1.1-.463,1.552,1.552,0,0,0-1.154.486,2.207,2.207,0,0,0-.586,1.272Z" fill="#1e1e1e"/>
      <path d="M276.2,93.178h-.961V89.756q0-1.909-1.394-1.91a1.512,1.512,0,0,0-1.193.542,2.009,2.009,0,0,0-.471,1.368v3.422h-.961v-6h.961v1h.023a2.166,2.166,0,0,1,1.969-1.137,1.836,1.836,0,0,1,1.506.636,2.836,2.836,0,0,1,.521,1.837Z" fill="#1e1e1e"/>
      <path d="M277.647,92.961V91.93a2.844,2.844,0,0,0,1.729.58q1.266,0,1.266-.844a.733.733,0,0,0-.109-.407,1.083,1.083,0,0,0-.293-.3,2.225,2.225,0,0,0-.433-.231q-.249-.1-.536-.214a6.954,6.954,0,0,1-.7-.32,2.105,2.105,0,0,1-.5-.363,1.357,1.357,0,0,1-.3-.46,1.613,1.613,0,0,1-.1-.6,1.429,1.429,0,0,1,.194-.747,1.694,1.694,0,0,1,.515-.545,2.386,2.386,0,0,1,.736-.331,3.223,3.223,0,0,1,.852-.112,3.441,3.441,0,0,1,1.395.27v.972a2.722,2.722,0,0,0-1.524-.433,1.775,1.775,0,0,0-.486.061,1.185,1.185,0,0,0-.372.173.781.781,0,0,0-.24.267.7.7,0,0,0-.085.343.815.815,0,0,0,.085.392.844.844,0,0,0,.249.281,1.88,1.88,0,0,0,.4.223c.156.066.334.139.533.217a7.36,7.36,0,0,1,.715.313,2.453,2.453,0,0,1,.539.364,1.408,1.408,0,0,1,.343.465,1.505,1.505,0,0,1,.12.627,1.479,1.479,0,0,1-.2.774,1.685,1.685,0,0,1-.525.545,2.392,2.392,0,0,1-.756.322,3.746,3.746,0,0,1-.9.105A3.413,3.413,0,0,1,277.647,92.961Z" fill="#1e1e1e"/>
      <path d="M283.6,85.654a.61.61,0,0,1-.44-.175.6.6,0,0,1-.181-.446.615.615,0,0,1,.621-.627.62.62,0,0,1,.448.179.625.625,0,0,1,0,.888A.614.614,0,0,1,283.6,85.654Zm.469,7.524H283.1v-6h.961Z" fill="#1e1e1e"/>
      <path d="M288.517,93.318a2.784,2.784,0,0,1-2.124-.84,3.113,3.113,0,0,1-.794-2.23,3.242,3.242,0,0,1,.826-2.361,2.968,2.968,0,0,1,2.232-.85,2.694,2.694,0,0,1,2.1.826,3.277,3.277,0,0,1,.753,2.291,3.224,3.224,0,0,1-.812,2.3A2.843,2.843,0,0,1,288.517,93.318Zm.07-5.472a1.828,1.828,0,0,0-1.465.63,2.589,2.589,0,0,0-.539,1.737,2.45,2.45,0,0,0,.545,1.682,1.852,1.852,0,0,0,1.459.615,1.756,1.756,0,0,0,1.433-.6,2.616,2.616,0,0,0,.5-1.716,2.665,2.665,0,0,0-.5-1.735A1.75,1.75,0,0,0,288.587,87.846Z" fill="#1e1e1e"/>
      <path d="M298.021,93.178h-.961V89.756q0-1.909-1.395-1.91a1.51,1.51,0,0,0-1.192.542A2.005,2.005,0,0,0,294,89.756v3.422h-.961v-6H294v1h.023a2.167,2.167,0,0,1,1.969-1.137,1.836,1.836,0,0,1,1.506.636,2.83,2.83,0,0,1,.522,1.837Z" fill="#1e1e1e"/>
    </g>
    <g>
      <path d="M389.168,87.278h-.984v-8.4h.984Z" fill="#1e1e1e"/>
      <path d="M393.756,87.419a2.784,2.784,0,0,1-2.124-.841,3.117,3.117,0,0,1-.794-2.23,3.242,3.242,0,0,1,.826-2.361,2.973,2.973,0,0,1,2.233-.85,2.693,2.693,0,0,1,2.094.826,3.278,3.278,0,0,1,.753,2.292,3.221,3.221,0,0,1-.811,2.3A2.845,2.845,0,0,1,393.756,87.419Zm.07-5.473a1.829,1.829,0,0,0-1.465.63,2.589,2.589,0,0,0-.539,1.737A2.449,2.449,0,0,0,392.367,86a1.852,1.852,0,0,0,1.459.615,1.756,1.756,0,0,0,1.433-.6,2.616,2.616,0,0,0,.5-1.716,2.667,2.667,0,0,0-.5-1.735A1.75,1.75,0,0,0,393.826,81.946Z" fill="#1e1e1e"/>
      <path d="M403.377,79.766h-2.426v7.512h-.984V79.766h-2.42v-.89h5.83Z" fill="#1e1e1e"/>
      <path d="M414.3,87.278h-.985V83.446h-4.347v3.832h-.985v-8.4h.985v3.685h4.347V78.876h.985Z" fill="#1e1e1e"/>
      <path d="M421.225,87.278h-.961v-.949h-.024a1.973,1.973,0,0,1-1.851,1.09q-2.145,0-2.145-2.555V81.278h.955v3.434q0,1.9,1.453,1.9a1.471,1.471,0,0,0,1.158-.519,1.985,1.985,0,0,0,.454-1.356V81.278h.961Z" fill="#1e1e1e"/>
      <path d="M424.148,86.411h-.023v.867h-.961V78.4h.961v3.938h.023a2.274,2.274,0,0,1,2.075-1.2,2.2,2.2,0,0,1,1.807.806,3.324,3.324,0,0,1,.654,2.159,3.719,3.719,0,0,1-.733,2.411,2.437,2.437,0,0,1-2,.906A1.974,1.974,0,0,1,424.148,86.411Zm-.023-2.42v.838a1.782,1.782,0,0,0,.483,1.262,1.724,1.724,0,0,0,2.6-.149,3.063,3.063,0,0,0,.5-1.857,2.419,2.419,0,0,0-.463-1.571,1.53,1.53,0,0,0-1.254-.568,1.7,1.7,0,0,0-1.347.583A2.141,2.141,0,0,0,424.125,83.991Z" fill="#1e1e1e"/>
      <path d="M382.515,100.478h-.961V97.033a2.6,2.6,0,0,0-.308-1.442,1.169,1.169,0,0,0-1.034-.445,1.281,1.281,0,0,0-1.046.563,2.152,2.152,0,0,0-.431,1.347v3.422h-.961V96.916q0-1.77-1.365-1.77a1.266,1.266,0,0,0-1.043.53,2.2,2.2,0,0,0-.41,1.38v3.422H374v-6h.961v.949h.024a2.037,2.037,0,0,1,1.863-1.089,1.731,1.731,0,0,1,1.7,1.242,2.14,2.14,0,0,1,1.992-1.242q1.982,0,1.981,2.443Z" fill="#1e1e1e"/>
      <path d="M389.153,97.718h-4.236a2.245,2.245,0,0,0,.539,1.547,1.856,1.856,0,0,0,1.418.545,2.942,2.942,0,0,0,1.863-.668v.9a3.485,3.485,0,0,1-2.091.574,2.539,2.539,0,0,1-2-.818,3.346,3.346,0,0,1-.726-2.3,3.284,3.284,0,0,1,.794-2.283,2.544,2.544,0,0,1,1.972-.881,2.255,2.255,0,0,1,1.822.761,3.174,3.174,0,0,1,.644,2.115Zm-.984-.814a1.96,1.96,0,0,0-.4-1.3,1.367,1.367,0,0,0-1.1-.463,1.552,1.552,0,0,0-1.154.486,2.2,2.2,0,0,0-.586,1.272Z" fill="#1e1e1e"/>
      <path d="M390.243,100.261V99.23a2.844,2.844,0,0,0,1.729.58q1.264,0,1.265-.844a.735.735,0,0,0-.108-.407,1.083,1.083,0,0,0-.293-.3,2.235,2.235,0,0,0-.434-.231c-.166-.069-.344-.14-.536-.214a6.939,6.939,0,0,1-.7-.319,2.135,2.135,0,0,1-.5-.364,1.35,1.35,0,0,1-.3-.46,1.631,1.631,0,0,1-.1-.6,1.433,1.433,0,0,1,.193-.747,1.708,1.708,0,0,1,.516-.545,2.391,2.391,0,0,1,.735-.331,3.278,3.278,0,0,1,.853-.111,3.436,3.436,0,0,1,1.394.269v.973a2.717,2.717,0,0,0-1.523-.434,1.774,1.774,0,0,0-.486.062,1.2,1.2,0,0,0-.373.172.821.821,0,0,0-.24.267.712.712,0,0,0-.085.343.827.827,0,0,0,.085.392.869.869,0,0,0,.249.282,1.888,1.888,0,0,0,.4.222q.234.1.533.217a7.352,7.352,0,0,1,.715.314,2.44,2.44,0,0,1,.539.363,1.426,1.426,0,0,1,.343.466,1.5,1.5,0,0,1,.12.627,1.476,1.476,0,0,1-.2.773,1.672,1.672,0,0,1-.524.545,2.388,2.388,0,0,1-.756.322,3.7,3.7,0,0,1-.9.106A3.4,3.4,0,0,1,390.243,100.261Z" fill="#1e1e1e"/>
      <path d="M395.335,100.261V99.23a2.842,2.842,0,0,0,1.729.58q1.264,0,1.265-.844a.735.735,0,0,0-.108-.407,1.1,1.1,0,0,0-.293-.3,2.235,2.235,0,0,0-.434-.231q-.249-.1-.536-.214a6.838,6.838,0,0,1-.7-.319,2.135,2.135,0,0,1-.5-.364,1.35,1.35,0,0,1-.305-.46,1.631,1.631,0,0,1-.1-.6,1.433,1.433,0,0,1,.193-.747,1.708,1.708,0,0,1,.516-.545,2.391,2.391,0,0,1,.735-.331,3.272,3.272,0,0,1,.853-.111,3.436,3.436,0,0,1,1.394.269v.973a2.717,2.717,0,0,0-1.523-.434,1.787,1.787,0,0,0-.487.062,1.2,1.2,0,0,0-.372.172.821.821,0,0,0-.24.267.7.7,0,0,0-.085.343.815.815,0,0,0,.085.392.869.869,0,0,0,.249.282,1.863,1.863,0,0,0,.4.222c.156.067.333.139.533.217a7.461,7.461,0,0,1,.715.314,2.463,2.463,0,0,1,.539.363,1.423,1.423,0,0,1,.342.466,1.5,1.5,0,0,1,.121.627,1.476,1.476,0,0,1-.2.773,1.682,1.682,0,0,1-.524.545,2.388,2.388,0,0,1-.756.322,3.7,3.7,0,0,1-.9.106A3.394,3.394,0,0,1,395.335,100.261Z" fill="#1e1e1e"/>
      <path d="M405.085,100.478h-.961v-.937H404.1a2.014,2.014,0,0,1-1.846,1.078,1.967,1.967,0,0,1-1.4-.475,1.643,1.643,0,0,1-.507-1.26q0-1.681,1.98-1.957l1.8-.252q0-1.528-1.236-1.529a2.954,2.954,0,0,0-1.957.738V94.9a3.717,3.717,0,0,1,2.039-.562q2.115,0,2.115,2.238Zm-.961-3.035-1.447.2a2.359,2.359,0,0,0-1.008.331.954.954,0,0,0-.34.841.917.917,0,0,0,.314.718,1.213,1.213,0,0,0,.835.278,1.541,1.541,0,0,0,1.18-.5,1.788,1.788,0,0,0,.466-1.268Z" fill="#1e1e1e"/>
      <path d="M412.017,100q0,3.3-3.164,3.3a4.24,4.24,0,0,1-1.946-.422v-.96a4,4,0,0,0,1.934.562q2.214,0,2.215-2.355V99.47h-.024a2.427,2.427,0,0,1-3.864.349,3.2,3.2,0,0,1-.683-2.148,3.729,3.729,0,0,1,.736-2.431,2.454,2.454,0,0,1,2.012-.9,1.955,1.955,0,0,1,1.8.972h.024v-.832h.961Zm-.961-2.233V96.88a1.714,1.714,0,0,0-.484-1.224,1.59,1.59,0,0,0-1.2-.51,1.667,1.667,0,0,0-1.394.648,2.887,2.887,0,0,0-.5,1.813,2.485,2.485,0,0,0,.483,1.6,1.562,1.562,0,0,0,1.28.6,1.673,1.673,0,0,0,1.316-.574A2.14,2.14,0,0,0,411.056,97.765Z" fill="#1e1e1e"/>
      <path d="M418.784,97.718h-4.236a2.245,2.245,0,0,0,.539,1.547,1.856,1.856,0,0,0,1.418.545,2.942,2.942,0,0,0,1.863-.668v.9a3.486,3.486,0,0,1-2.092.574,2.538,2.538,0,0,1-2-.818,3.346,3.346,0,0,1-.726-2.3,3.279,3.279,0,0,1,.794-2.283,2.543,2.543,0,0,1,1.971-.881,2.255,2.255,0,0,1,1.823.761,3.18,3.18,0,0,1,.644,2.115ZM417.8,96.9a1.954,1.954,0,0,0-.4-1.3,1.364,1.364,0,0,0-1.1-.463,1.552,1.552,0,0,0-1.154.486,2.2,2.2,0,0,0-.586,1.272Z" fill="#1e1e1e"/>
      <path d="M423.161,100.261V99.23a2.844,2.844,0,0,0,1.729.58q1.264,0,1.265-.844a.735.735,0,0,0-.108-.407,1.083,1.083,0,0,0-.293-.3,2.235,2.235,0,0,0-.434-.231c-.166-.069-.344-.14-.536-.214a6.939,6.939,0,0,1-.7-.319,2.135,2.135,0,0,1-.5-.364,1.35,1.35,0,0,1-.305-.46,1.631,1.631,0,0,1-.1-.6,1.433,1.433,0,0,1,.193-.747,1.708,1.708,0,0,1,.516-.545,2.391,2.391,0,0,1,.735-.331,3.278,3.278,0,0,1,.853-.111,3.436,3.436,0,0,1,1.394.269v.973a2.717,2.717,0,0,0-1.523-.434,1.774,1.774,0,0,0-.486.062,1.2,1.2,0,0,0-.373.172.821.821,0,0,0-.24.267.712.712,0,0,0-.085.343.827.827,0,0,0,.085.392.869.869,0,0,0,.249.282,1.888,1.888,0,0,0,.4.222q.234.1.533.217a7.352,7.352,0,0,1,.715.314,2.44,2.44,0,0,1,.539.363,1.441,1.441,0,0,1,.343.466,1.5,1.5,0,0,1,.12.627,1.476,1.476,0,0,1-.2.773,1.672,1.672,0,0,1-.524.545,2.388,2.388,0,0,1-.756.322,3.7,3.7,0,0,1-.9.106A3.4,3.4,0,0,1,423.161,100.261Z" fill="#1e1e1e"/>
      <path d="M429.108,92.955a.61.61,0,0,1-.439-.176.594.594,0,0,1-.182-.445.615.615,0,0,1,.621-.627.622.622,0,0,1,.449.178.6.6,0,0,1,.184.449.594.594,0,0,1-.184.439A.617.617,0,0,1,429.108,92.955Zm.469,7.523h-.961v-6h.961Z" fill="#1e1e1e"/>
      <path d="M436.5,100.478h-.961V97.056q0-1.909-1.395-1.91a1.514,1.514,0,0,0-1.192.542,2.01,2.01,0,0,0-.472,1.368v3.422h-.961v-6h.961v1h.024a2.164,2.164,0,0,1,1.969-1.136,1.832,1.832,0,0,1,1.5.635,2.83,2.83,0,0,1,.522,1.837Z" fill="#1e1e1e"/>
      <path d="M443.294,100.478h-1.348L439.3,97.6h-.024v2.883h-.96V91.6h.96v5.631h.024l2.519-2.748h1.26l-2.783,2.9Z" fill="#1e1e1e"/>
    </g>
    <g>
      <path d="M73.875,17.579H71.982v-8.4h1.893Z" fill="#1e1e1e"/>
      <path d="M78.463,17.726a3.226,3.226,0,0,1-2.358-.841,3.046,3.046,0,0,1-.859-2.282,3.045,3.045,0,0,1,.891-2.329,3.361,3.361,0,0,1,2.408-.841,3.186,3.186,0,0,1,2.344.841,2.987,2.987,0,0,1,.849,2.223,3.176,3.176,0,0,1-.876,2.362A3.26,3.26,0,0,1,78.463,17.726Zm.047-4.875a1.234,1.234,0,0,0-1.02.451,1.99,1.99,0,0,0-.363,1.277q0,1.729,1.4,1.729,1.329,0,1.33-1.776Q79.852,12.851,78.51,12.851Z" fill="#1e1e1e"/>
      <path d="M89.022,10.718h-2.4v6.861h-1.9V10.718H82.342V9.177h6.68Z" fill="#1e1e1e"/>
      <path d="M98.5,17.579H93.463v-8.4h4.846v1.541H95.355v1.869H98.1v1.535H95.355v1.922H98.5Z" fill="#1e1e1e"/>
      <path d="M105.539,17.579h-1.851v-.826h-.024a2.077,2.077,0,0,1-1.857.973A2.277,2.277,0,0,1,100,16.932a3.289,3.289,0,0,1-.685-2.218,3.583,3.583,0,0,1,.755-2.385,2.467,2.467,0,0,1,1.981-.9,1.685,1.685,0,0,1,1.617.832h.024V8.7h1.851Zm-1.816-2.918V14.21a1.423,1.423,0,0,0-.34-.973,1.2,1.2,0,0,0-1.846.1,2.248,2.248,0,0,0-.346,1.327,1.946,1.946,0,0,0,.334,1.219,1.186,1.186,0,0,0,1.843-.023A1.879,1.879,0,0,0,103.723,14.661Z" fill="#1e1e1e"/>
      <path d="M112.98,16.894a3.4,3.4,0,0,1-.966,2.587,3.92,3.92,0,0,1-2.8.917,4.446,4.446,0,0,1-1.922-.346V18.493a3.673,3.673,0,0,0,1.869.539,2.012,2.012,0,0,0,1.453-.5,1.776,1.776,0,0,0,.516-1.345v-.474h-.024a2.066,2.066,0,0,1-1.869,1.008,2.249,2.249,0,0,1-1.822-.809,3.281,3.281,0,0,1-.674-2.168,3.654,3.654,0,0,1,.75-2.42,2.45,2.45,0,0,1,1.975-.9,1.822,1.822,0,0,1,1.64.843h.024v-.7h1.851Zm-1.828-2.2v-.474a1.458,1.458,0,0,0-.337-.97,1.087,1.087,0,0,0-.876-.4,1.131,1.131,0,0,0-.966.48,2.256,2.256,0,0,0-.352,1.354,1.9,1.9,0,0,0,.334,1.186,1.089,1.089,0,0,0,.914.437,1.133,1.133,0,0,0,.929-.443A1.815,1.815,0,0,0,111.152,14.7Z" fill="#1e1e1e"/>
      <path d="M119.918,15.107H116q.093,1.306,1.646,1.306a3.211,3.211,0,0,0,1.741-.469V17.28a4.572,4.572,0,0,1-2.162.446,3.044,3.044,0,0,1-2.256-.806,3.044,3.044,0,0,1-.8-2.247,3.211,3.211,0,0,1,.867-2.367,2.889,2.889,0,0,1,2.133-.873,2.619,2.619,0,0,1,2.03.779,3,3,0,0,1,.718,2.115ZM118.2,13.97q0-1.29-1.043-1.289a1,1,0,0,0-.77.369,1.676,1.676,0,0,0-.4.92Z" fill="#1e1e1e"/>
      <path d="M130.2,17.579H128.35v-.826h-.024a2.077,2.077,0,0,1-1.857.973,2.277,2.277,0,0,1-1.811-.794,3.289,3.289,0,0,1-.685-2.218,3.578,3.578,0,0,1,.756-2.385,2.465,2.465,0,0,1,1.98-.9,1.684,1.684,0,0,1,1.617.832h.024V8.7H130.2Zm-1.816-2.918V14.21a1.418,1.418,0,0,0-.34-.973,1.2,1.2,0,0,0-1.846.1,2.248,2.248,0,0,0-.345,1.327,1.939,1.939,0,0,0,.334,1.219,1.185,1.185,0,0,0,1.842-.023A1.879,1.879,0,0,0,128.385,14.661Z" fill="#1e1e1e"/>
      <path d="M137.15,15.107h-3.914q.095,1.306,1.647,1.306a3.21,3.21,0,0,0,1.74-.469V17.28a4.569,4.569,0,0,1-2.162.446,3.044,3.044,0,0,1-2.256-.806,3.044,3.044,0,0,1-.8-2.247,3.208,3.208,0,0,1,.868-2.367,2.888,2.888,0,0,1,2.132-.873,2.623,2.623,0,0,1,2.031.779,3,3,0,0,1,.717,2.115Zm-1.716-1.137q0-1.29-1.043-1.289a1,1,0,0,0-.771.369,1.675,1.675,0,0,0-.4.92Z" fill="#1e1e1e"/>
      <path d="M143.965,11.579l-2.233,6h-2.109l-2.127-6h1.981l1.043,3.7a5.452,5.452,0,0,1,.2,1.067h.023a6.041,6.041,0,0,1,.217-1.031l1.066-3.733Z" fill="#1e1e1e"/>
      <path d="M145.693,10.63a1.083,1.083,0,0,1-.767-.278.9.9,0,0,1-.3-.683.867.867,0,0,1,.3-.68,1.256,1.256,0,0,1,1.538,0,.871.871,0,0,1,.3.68.893.893,0,0,1-.3.691A1.1,1.1,0,0,1,145.693,10.63Zm.914,6.949h-1.851v-6h1.851Z" fill="#1e1e1e"/>
      <path d="M152.713,17.362a3.653,3.653,0,0,1-1.811.364,3.063,3.063,0,0,1-2.238-.838,2.9,2.9,0,0,1-.855-2.162,3.183,3.183,0,0,1,.917-2.411,3.387,3.387,0,0,1,2.452-.882,3.139,3.139,0,0,1,1.535.281v1.57a2.11,2.11,0,0,0-1.295-.433,1.706,1.706,0,0,0-1.263.466,1.739,1.739,0,0,0-.466,1.286,1.711,1.711,0,0,0,.446,1.251,1.639,1.639,0,0,0,1.224.454,2.445,2.445,0,0,0,1.354-.434Z" fill="#1e1e1e"/>
      <path d="M159.316,15.107H155.4q.095,1.306,1.647,1.306a3.21,3.21,0,0,0,1.74-.469V17.28a4.569,4.569,0,0,1-2.162.446,3.044,3.044,0,0,1-2.256-.806,3.044,3.044,0,0,1-.8-2.247,3.208,3.208,0,0,1,.868-2.367,2.888,2.888,0,0,1,2.132-.873,2.623,2.623,0,0,1,2.031.779,3,3,0,0,1,.717,2.115ZM157.6,13.97q0-1.29-1.043-1.289a1,1,0,0,0-.771.369,1.675,1.675,0,0,0-.4.92Z" fill="#1e1e1e"/>
    </g>
    <g>
      <path d="M112.356,45.411h-1.869V40.383q0-.815.071-1.8h-.047a8.964,8.964,0,0,1-.264,1.113l-1.969,5.713h-1.547l-2-5.655a10.86,10.86,0,0,1-.264-1.171h-.053q.077,1.242.076,2.179v4.647h-1.7v-8.4h2.772l1.717,4.981a7.026,7.026,0,0,1,.3,1.2h.036a11.77,11.77,0,0,1,.334-1.213l1.716-4.969h2.7Z" fill="#1e1e1e"/>
      <path d="M119.476,42.938h-3.914q.093,1.306,1.646,1.307a3.219,3.219,0,0,0,1.74-.469v1.336a4.567,4.567,0,0,1-2.162.445,2.791,2.791,0,0,1-3.058-3.052,3.212,3.212,0,0,1,.867-2.368,2.889,2.889,0,0,1,2.133-.873,2.621,2.621,0,0,1,2.03.78,3,3,0,0,1,.718,2.115ZM117.759,41.8q0-1.288-1.043-1.289a1,1,0,0,0-.771.369,1.685,1.685,0,0,0-.395.92Z" fill="#1e1e1e"/>
      <path d="M126.448,45.411H124.6v-.826h-.024a2.076,2.076,0,0,1-1.857.972,2.274,2.274,0,0,1-1.811-.794,3.284,3.284,0,0,1-.685-2.217,3.575,3.575,0,0,1,.756-2.385,2.465,2.465,0,0,1,1.98-.9,1.684,1.684,0,0,1,1.617.832h.024V36.528h1.851Zm-1.816-2.918v-.451a1.418,1.418,0,0,0-.34-.973,1.2,1.2,0,0,0-1.846.1,2.246,2.246,0,0,0-.345,1.327,1.943,1.943,0,0,0,.334,1.219,1.186,1.186,0,0,0,1.842-.024A1.876,1.876,0,0,0,124.632,42.493Z" fill="#1e1e1e"/>
      <path d="M128.944,38.462a1.079,1.079,0,0,1-.767-.279.9.9,0,0,1-.3-.682.866.866,0,0,1,.3-.68,1.252,1.252,0,0,1,1.538,0,.87.87,0,0,1,.3.68.894.894,0,0,1-.3.691A1.1,1.1,0,0,1,128.944,38.462Zm.914,6.949h-1.851v-6h1.851Z" fill="#1e1e1e"/>
      <path d="M136.409,45.411h-1.752v-.862h-.023a1.956,1.956,0,0,1-1.787,1.008,1.87,1.87,0,0,1-1.374-.5,1.773,1.773,0,0,1-.5-1.321q0-1.746,2.068-2.016l1.629-.217q0-.984-1.066-.984a3.637,3.637,0,0,0-2.039.639V39.768a4.539,4.539,0,0,1,1.057-.351,5.539,5.539,0,0,1,1.222-.153,2.266,2.266,0,0,1,2.566,2.561Zm-1.74-2.438v-.4l-1.09.141q-.9.117-.9.814a.673.673,0,0,0,.22.519.845.845,0,0,0,.594.2,1.1,1.1,0,0,0,.85-.361A1.3,1.3,0,0,0,134.669,42.973Z" fill="#1e1e1e"/>
      <path d="M148.263,44.848a6.046,6.046,0,0,1-3.059.709,4.423,4.423,0,0,1-3.2-1.122,4.083,4.083,0,0,1-1.169-3.091,4.316,4.316,0,0,1,1.277-3.228,4.656,4.656,0,0,1,3.4-1.248,6.906,6.906,0,0,1,2.355.369v1.775a4.68,4.68,0,0,0-2.379-.562,2.556,2.556,0,0,0-1.919.764,3.264,3.264,0,0,0-.076,4.046,2.342,2.342,0,0,0,1.8.709,2.5,2.5,0,0,0,1.078-.193V42.135h-1.681V40.624h3.574Z" fill="#1e1e1e"/>
      <path d="M153.63,41.081a1.609,1.609,0,0,0-.779-.182,1.123,1.123,0,0,0-.944.442,1.936,1.936,0,0,0-.34,1.2v2.865h-1.851v-6h1.851v1.113h.024a1.6,1.6,0,0,1,1.582-1.219,1.188,1.188,0,0,1,.457.071Z" fill="#1e1e1e"/>
      <path d="M159.483,45.411h-1.752v-.862h-.023a1.955,1.955,0,0,1-1.787,1.008,1.87,1.87,0,0,1-1.374-.5,1.773,1.773,0,0,1-.5-1.321q0-1.746,2.068-2.016l1.629-.217q0-.984-1.066-.984a3.637,3.637,0,0,0-2.039.639V39.768a4.555,4.555,0,0,1,1.057-.351,5.546,5.546,0,0,1,1.222-.153,2.266,2.266,0,0,1,2.566,2.561Zm-1.74-2.438v-.4l-1.09.141q-.9.117-.9.814a.673.673,0,0,0,.22.519.845.845,0,0,0,.594.2,1.1,1.1,0,0,0,.85-.361A1.3,1.3,0,0,0,157.743,42.973Z" fill="#1e1e1e"/>
      <path d="M162.823,44.713H162.8v3.458h-1.852v-8.76H162.8v.9h.023a2.356,2.356,0,0,1,3.73-.249,3.4,3.4,0,0,1,.636,2.177,3.691,3.691,0,0,1-.742,2.408,2.414,2.414,0,0,1-1.971.908A1.868,1.868,0,0,1,162.823,44.713Zm-.052-2.46v.48a1.528,1.528,0,0,0,.328,1.014,1.069,1.069,0,0,0,.861.392,1.134,1.134,0,0,0,.981-.489,2.358,2.358,0,0,0,.349-1.386q0-1.581-1.23-1.582a1.156,1.156,0,0,0-.929.431A1.719,1.719,0,0,0,162.771,42.253Z" fill="#1e1e1e"/>
      <path d="M174.149,45.411H172.3V42q0-1.318-.961-1.319a.984.984,0,0,0-.8.369,1.426,1.426,0,0,0-.3.938v3.422H168.39V36.528h1.851V40.3h.024a2.1,2.1,0,0,1,1.845-1.037q2.04,0,2.039,2.461Z" fill="#1e1e1e"/>
    </g>
    <g>
      <path d="M94.357,93.178H93.186l-1.407-2.356a5.19,5.19,0,0,0-.375-.559,2.155,2.155,0,0,0-.372-.378,1.278,1.278,0,0,0-.41-.214,1.679,1.679,0,0,0-.5-.067h-.809v3.574h-.984v-8.4h2.508a3.561,3.561,0,0,1,1.016.137,2.28,2.28,0,0,1,.809.419,1.948,1.948,0,0,1,.536.7,2.325,2.325,0,0,1,.194.982,2.356,2.356,0,0,1-.132.805,2.109,2.109,0,0,1-.375.654,2.292,2.292,0,0,1-.586.489,3.025,3.025,0,0,1-.771.314V89.3a1.729,1.729,0,0,1,.366.214,1.97,1.97,0,0,1,.3.284,3.676,3.676,0,0,1,.279.372c.091.139.194.3.307.483Zm-5.039-7.512v3.047h1.336a2.034,2.034,0,0,0,.683-.111,1.586,1.586,0,0,0,.542-.32,1.445,1.445,0,0,0,.357-.509,1.71,1.71,0,0,0,.129-.677,1.318,1.318,0,0,0-.436-1.052,1.875,1.875,0,0,0-1.263-.378Z" fill="#1e1e1e"/>
      <path d="M99.941,85.666H97.516v7.512h-.985V85.666h-2.42v-.89h5.83Z" fill="#1e1e1e"/>
      <path d="M100.633,92.838v-1.16a2.245,2.245,0,0,0,.477.316,3.926,3.926,0,0,0,.586.238,4.705,4.705,0,0,0,.618.149,3.481,3.481,0,0,0,.575.053,2.253,2.253,0,0,0,1.356-.337,1.266,1.266,0,0,0,.3-1.562,1.69,1.69,0,0,0-.413-.46,4.178,4.178,0,0,0-.624-.4q-.36-.191-.777-.4-.438-.224-.82-.452a3.535,3.535,0,0,1-.662-.5,2.087,2.087,0,0,1-.442-.624,2.127,2.127,0,0,1,.091-1.816,2.14,2.14,0,0,1,.662-.7,2.971,2.971,0,0,1,.934-.41,4.276,4.276,0,0,1,1.07-.135,4.084,4.084,0,0,1,1.81.3v1.107a3.28,3.28,0,0,0-1.91-.515,3.14,3.14,0,0,0-.645.067,1.819,1.819,0,0,0-.574.22,1.261,1.261,0,0,0-.41.392,1.047,1.047,0,0,0-.158.586,1.208,1.208,0,0,0,.12.557,1.369,1.369,0,0,0,.354.428,3.682,3.682,0,0,0,.572.375c.224.121.483.253.776.4s.586.3.856.469a3.922,3.922,0,0,1,.709.545,2.419,2.419,0,0,1,.483.662,1.861,1.861,0,0,1,.179.832,2.1,2.1,0,0,1-.244,1.052,1.991,1.991,0,0,1-.656.7,2.877,2.877,0,0,1-.952.389,5.216,5.216,0,0,1-1.137.12,4.5,4.5,0,0,1-.492-.032q-.292-.031-.6-.094a4.777,4.777,0,0,1-.578-.152A1.784,1.784,0,0,1,100.633,92.838Z" fill="#1e1e1e"/>
      <path d="M108.385,90v3.176H107.4v-8.4h2.309a3.045,3.045,0,0,1,2.089.656,2.341,2.341,0,0,1,.741,1.851,2.544,2.544,0,0,1-.823,1.957,3.145,3.145,0,0,1-2.224.762Zm0-4.336v3.445h1.031a2.31,2.31,0,0,0,1.556-.465,1.651,1.651,0,0,0,.536-1.316q0-1.663-1.969-1.664Z" fill="#1e1e1e"/>
      <path d="M116.916,92.961V91.93a2.842,2.842,0,0,0,1.729.58q1.265,0,1.265-.844a.733.733,0,0,0-.108-.407,1.083,1.083,0,0,0-.293-.3,2.235,2.235,0,0,0-.434-.231q-.249-.1-.536-.214a6.83,6.83,0,0,1-.7-.32,2.105,2.105,0,0,1-.5-.363,1.36,1.36,0,0,1-.3-.46,1.634,1.634,0,0,1-.1-.6,1.428,1.428,0,0,1,.193-.747,1.708,1.708,0,0,1,.516-.545,2.391,2.391,0,0,1,.735-.331,3.231,3.231,0,0,1,.853-.112,3.436,3.436,0,0,1,1.394.27v.972a2.716,2.716,0,0,0-1.523-.433,1.788,1.788,0,0,0-.487.061,1.206,1.206,0,0,0-.372.173.8.8,0,0,0-.24.267.7.7,0,0,0-.085.343.815.815,0,0,0,.085.392.866.866,0,0,0,.249.281,1.864,1.864,0,0,0,.4.223c.156.066.334.139.533.217a7.469,7.469,0,0,1,.715.313,2.477,2.477,0,0,1,.539.364,1.419,1.419,0,0,1,.342.465,1.647,1.647,0,0,1-.076,1.4,1.682,1.682,0,0,1-.524.545,2.411,2.411,0,0,1-.756.322,3.746,3.746,0,0,1-.9.105A3.407,3.407,0,0,1,116.916,92.961Z" fill="#1e1e1e"/>
      <path d="M124.879,93.318a2.784,2.784,0,0,1-2.124-.84,3.117,3.117,0,0,1-.794-2.23,3.242,3.242,0,0,1,.826-2.361,2.969,2.969,0,0,1,2.233-.85,2.693,2.693,0,0,1,2.094.826,3.277,3.277,0,0,1,.753,2.291,3.223,3.223,0,0,1-.811,2.3A2.845,2.845,0,0,1,124.879,93.318Zm.07-5.472a1.829,1.829,0,0,0-1.465.63,2.589,2.589,0,0,0-.539,1.737,2.45,2.45,0,0,0,.545,1.682,1.854,1.854,0,0,0,1.459.615,1.756,1.756,0,0,0,1.433-.6,2.616,2.616,0,0,0,.5-1.716,2.665,2.665,0,0,0-.5-1.735A1.75,1.75,0,0,0,124.949,87.846Z" fill="#1e1e1e"/>
      <path d="M134.254,93.178h-.961v-.949h-.023a1.975,1.975,0,0,1-1.852,1.089q-2.145,0-2.145-2.554V87.178h.956v3.433q0,1.9,1.453,1.9a1.47,1.47,0,0,0,1.157-.519,1.981,1.981,0,0,0,.454-1.356V87.178h.961Z" fill="#1e1e1e"/>
      <path d="M139.322,88.151a1.173,1.173,0,0,0-.726-.194,1.23,1.23,0,0,0-1.029.58,2.685,2.685,0,0,0-.413,1.582v3.059h-.961v-6h.961v1.236h.024a2.081,2.081,0,0,1,.627-.987,1.43,1.43,0,0,1,.943-.355,1.583,1.583,0,0,1,.574.082Z" fill="#1e1e1e"/>
      <path d="M144.455,92.9a3.117,3.117,0,0,1-1.641.416,2.719,2.719,0,0,1-2.071-.834,3.03,3.03,0,0,1-.788-2.166,3.321,3.321,0,0,1,.85-2.381,2.97,2.97,0,0,1,2.267-.9,3.163,3.163,0,0,1,1.4.293v.985a2.44,2.44,0,0,0-1.43-.469,1.935,1.935,0,0,0-1.509.659,2.5,2.5,0,0,0-.589,1.731,2.385,2.385,0,0,0,.554,1.665,1.909,1.909,0,0,0,1.486.609,2.406,2.406,0,0,0,1.476-.522Z" fill="#1e1e1e"/>
      <path d="M150.73,90.418h-4.236a2.245,2.245,0,0,0,.539,1.547,1.861,1.861,0,0,0,1.418.545,2.948,2.948,0,0,0,1.863-.668v.9a3.478,3.478,0,0,1-2.091.574,2.534,2.534,0,0,1-2-.817,3.342,3.342,0,0,1-.727-2.3,3.283,3.283,0,0,1,.794-2.282,2.546,2.546,0,0,1,1.972-.882,2.255,2.255,0,0,1,1.822.762,3.174,3.174,0,0,1,.644,2.115Zm-.984-.814a1.958,1.958,0,0,0-.4-1.3,1.367,1.367,0,0,0-1.1-.463,1.552,1.552,0,0,0-1.154.486,2.2,2.2,0,0,0-.586,1.272Z" fill="#1e1e1e"/>
    </g>
    <g>
      <path d="M210.1,163.764h-2.078l-.6-1.882h-3.01l-.6,1.882H201.75l3.08-8.462h2.26Zm-3.117-3.345-.908-2.845a3.658,3.658,0,0,1-.141-.761h-.047a3.269,3.269,0,0,1-.149.737l-.92,2.869Z" fill="#1e1e1e"/>
      <path d="M213.062,163.764h-1.906V155.3h1.906Z" fill="#1e1e1e"/>
      <path d="M220.226,163.764h-1.907V155.3h1.907Z" fill="#1e1e1e"/>
      <path d="M227.8,163.764h-1.86v-3.357q0-1.406-1-1.405a1,1,0,0,0-.8.372,1.42,1.42,0,0,0-.313.944v3.446h-1.865v-6.042h1.865v.956h.024a2.135,2.135,0,0,1,1.941-1.1q2.007,0,2.007,2.491Z" fill="#1e1e1e"/>
      <path d="M233.22,156.247a1.877,1.877,0,0,0-.691-.142q-.9,0-.9.974v.643h1.381V159.1h-1.381v4.667h-1.859V159.1h-1.014v-1.375h1.014v-.75a2.178,2.178,0,0,1,.673-1.664,2.565,2.565,0,0,1,1.829-.631,3.207,3.207,0,0,1,.945.118Z" fill="#1e1e1e"/>
      <path d="M239.339,161.274H235.4q.095,1.316,1.658,1.316a3.237,3.237,0,0,0,1.753-.472v1.345a4.61,4.61,0,0,1-2.178.449,2.813,2.813,0,0,1-3.08-3.074,3.237,3.237,0,0,1,.873-2.385,2.909,2.909,0,0,1,2.148-.879,2.639,2.639,0,0,1,2.044.785,3.017,3.017,0,0,1,.724,2.13Zm-1.73-1.144q0-1.3-1.049-1.3a1,1,0,0,0-.777.372,1.679,1.679,0,0,0-.4.927Z" fill="#1e1e1e"/>
      <path d="M244.39,159.4a1.617,1.617,0,0,0-.785-.183,1.131,1.131,0,0,0-.95.446,1.945,1.945,0,0,0-.342,1.213v2.885h-1.865v-6.042h1.865v1.121h.024a1.613,1.613,0,0,1,1.593-1.228,1.2,1.2,0,0,1,.46.071Z" fill="#1e1e1e"/>
      <path d="M250.639,161.274H246.7q.094,1.316,1.658,1.316a3.229,3.229,0,0,0,1.752-.472v1.345a4.6,4.6,0,0,1-2.176.449,2.813,2.813,0,0,1-3.081-3.074,3.233,3.233,0,0,1,.874-2.385,2.909,2.909,0,0,1,2.147-.879,2.643,2.643,0,0,1,2.045.785,3.026,3.026,0,0,1,.723,2.13Zm-1.729-1.144q0-1.3-1.051-1.3a1,1,0,0,0-.776.372,1.678,1.678,0,0,0-.4.927Z" fill="#1e1e1e"/>
      <path d="M257.585,163.764h-1.859v-3.357q0-1.406-1-1.405a1,1,0,0,0-.8.372,1.42,1.42,0,0,0-.313.944v3.446h-1.865v-6.042h1.865v.956h.024a2.136,2.136,0,0,1,1.941-1.1q2.007,0,2.007,2.491Z" fill="#1e1e1e"/>
      <path d="M263.639,163.546a3.69,3.69,0,0,1-1.824.366,3.083,3.083,0,0,1-2.253-.844,2.911,2.911,0,0,1-.863-2.177,3.207,3.207,0,0,1,.924-2.428,3.409,3.409,0,0,1,2.47-.889,3.166,3.166,0,0,1,1.546.284v1.581a2.13,2.13,0,0,0-1.3-.437,1.722,1.722,0,0,0-1.272.469,1.751,1.751,0,0,0-.469,1.3,1.718,1.718,0,0,0,.448,1.259,1.648,1.648,0,0,0,1.233.458,2.467,2.467,0,0,0,1.364-.437Z" fill="#1e1e1e"/>
      <path d="M270.289,161.274h-3.941q.093,1.316,1.658,1.316a3.233,3.233,0,0,0,1.752-.472v1.345a4.6,4.6,0,0,1-2.177.449,2.814,2.814,0,0,1-3.081-3.074,3.233,3.233,0,0,1,.874-2.385,2.909,2.909,0,0,1,2.148-.879,2.642,2.642,0,0,1,2.044.785,3.021,3.021,0,0,1,.723,2.13Zm-1.728-1.144q0-1.3-1.051-1.3a1.006,1.006,0,0,0-.777.372,1.693,1.693,0,0,0-.4.927Z" fill="#1e1e1e"/>
      <path d="M274.337,163.6v-1.511a3.93,3.93,0,0,0,.918.413,3.025,3.025,0,0,0,.864.136,1.848,1.848,0,0,0,.782-.136.438.438,0,0,0,.287-.413.385.385,0,0,0-.13-.295,1.244,1.244,0,0,0-.334-.206,3.981,3.981,0,0,0-.446-.16q-.241-.07-.465-.159a4.353,4.353,0,0,1-.635-.292,1.82,1.82,0,0,1-.46-.363,1.4,1.4,0,0,1-.283-.478,1.878,1.878,0,0,1-.1-.643,1.649,1.649,0,0,1,.222-.873,1.785,1.785,0,0,1,.589-.6,2.707,2.707,0,0,1,.844-.343,4.394,4.394,0,0,1,.988-.109,5.526,5.526,0,0,1,.815.062,5.973,5.973,0,0,1,.814.18v1.44a2.942,2.942,0,0,0-.758-.31,3.24,3.24,0,0,0-.793-.1,1.816,1.816,0,0,0-.346.032,1.13,1.13,0,0,0-.286.095.525.525,0,0,0-.195.159.369.369,0,0,0-.071.221.4.4,0,0,0,.107.283.891.891,0,0,0,.277.2,2.823,2.823,0,0,0,.381.154c.139.045.278.091.416.139a5.242,5.242,0,0,1,.673.283,2.127,2.127,0,0,1,.515.36,1.4,1.4,0,0,1,.331.483,1.927,1.927,0,0,1-.118,1.579,1.875,1.875,0,0,1-.62.62,2.829,2.829,0,0,1-.891.348,4.912,4.912,0,0,1-1.047.109A5.391,5.391,0,0,1,274.337,163.6Z" fill="#1e1e1e"/>
      <path d="M285.479,161.274h-3.943q.1,1.316,1.658,1.316a3.237,3.237,0,0,0,1.753-.472v1.345a4.6,4.6,0,0,1-2.177.449,2.814,2.814,0,0,1-3.081-3.074,3.233,3.233,0,0,1,.874-2.385,2.908,2.908,0,0,1,2.148-.879,2.641,2.641,0,0,1,2.044.785,3.021,3.021,0,0,1,.724,2.13Zm-1.73-1.144q0-1.3-1.05-1.3a1,1,0,0,0-.776.372,1.68,1.68,0,0,0-.4.927Z" fill="#1e1e1e"/>
      <path d="M290.529,159.4a1.617,1.617,0,0,0-.785-.183,1.131,1.131,0,0,0-.95.446,1.945,1.945,0,0,0-.342,1.213v2.885h-1.865v-6.042h1.865v1.121h.024a1.614,1.614,0,0,1,1.593-1.228,1.2,1.2,0,0,1,.46.071Z" fill="#1e1e1e"/>
      <path d="M297.634,157.722l-2.248,6.042h-2.124l-2.143-6.042h1.995l1.05,3.723a5.4,5.4,0,0,1,.207,1.074h.024a6.039,6.039,0,0,1,.218-1.038l1.074-3.759Z" fill="#1e1e1e"/>
      <path d="M299.375,156.766a1.089,1.089,0,0,1-.773-.281.9.9,0,0,1-.3-.687.873.873,0,0,1,.3-.685,1.263,1.263,0,0,1,1.548,0,.873.873,0,0,1,.3.685.893.893,0,0,1-.3.7A1.105,1.105,0,0,1,299.375,156.766Zm.92,7h-1.864v-6.042H300.3Z" fill="#1e1e1e"/>
      <path d="M306.444,163.546a3.686,3.686,0,0,1-1.823.366,3.084,3.084,0,0,1-2.254-.844,2.914,2.914,0,0,1-.862-2.177,3.207,3.207,0,0,1,.924-2.428,3.407,3.407,0,0,1,2.469-.889,3.164,3.164,0,0,1,1.546.284v1.581a2.125,2.125,0,0,0-1.3-.437,1.725,1.725,0,0,0-1.273.469,1.755,1.755,0,0,0-.469,1.3,1.719,1.719,0,0,0,.449,1.259,1.648,1.648,0,0,0,1.233.458,2.461,2.461,0,0,0,1.363-.437Z" fill="#1e1e1e"/>
      <path d="M313.1,161.274h-3.943q.1,1.316,1.659,1.316a3.237,3.237,0,0,0,1.753-.472v1.345a4.61,4.61,0,0,1-2.178.449,2.813,2.813,0,0,1-3.08-3.074,3.237,3.237,0,0,1,.873-2.385,2.909,2.909,0,0,1,2.148-.879,2.639,2.639,0,0,1,2.044.785,3.017,3.017,0,0,1,.724,2.13Zm-1.73-1.144q0-1.3-1.05-1.3a1,1,0,0,0-.776.372,1.679,1.679,0,0,0-.4.927Z" fill="#1e1e1e"/>
    </g>
  </g>
</svg>
