<svg xmlns="http://www.w3.org/2000/svg" xmlns:xlink="http://www.w3.org/1999/xlink" viewBox="0 0 548.169 194.544">
  <defs>
    <linearGradient id="linear-gradient" x1="268.704" y1="46.703" x2="268.704" y2="130.302" gradientUnits="userSpaceOnUse">
      <stop offset="0" stop-color="#5ea0ef"/>
      <stop offset="0.18" stop-color="#559cec"/>
      <stop offset="0.47" stop-color="#3c91e5"/>
      <stop offset="0.84" stop-color="#1380da"/>
      <stop offset="1" stop-color="#0078d4"/>
    </linearGradient>
    <linearGradient id="linear-gradient-2" x1="508.07" y1="354.29" x2="508.07" y2="370.054" gradientTransform="matrix(1, 0, 0, -1, 0, 449.773)" gradientUnits="userSpaceOnUse">
      <stop offset="0" stop-color="#198ab3"/>
      <stop offset="0.44" stop-color="#28b7db"/>
      <stop offset="0.78" stop-color="#32d4f5"/>
    </linearGradient>
    <linearGradient id="linear-gradient-3" x1="508.033" y1="348.054" x2="508.033" y2="352.72" xlink:href="#linear-gradient-2"/>
    <linearGradient id="linear-gradient-4" x1="57.918" y1="1.123" x2="57.918" y2="29.123" gradientUnits="userSpaceOnUse">
      <stop offset="0.131" stop-color="#32d4f5"/>
      <stop offset="0.404" stop-color="#28b7db"/>
      <stop offset="1" stop-color="#198ab3"/>
    </linearGradient>
    <linearGradient id="linear-gradient-5" x1="67.221" y1="23.264" x2="67.221" y2="24.52" xlink:href="#linear-gradient-4"/>
    <linearGradient id="linear-gradient-6" x1="67.221" y1="25.431" x2="67.221" y2="26.686" xlink:href="#linear-gradient-4"/>
    <linearGradient id="linear-gradient-7" x1="82.078" y1="420.376" x2="82.078" y2="393.76" gradientTransform="matrix(1, 0, 0, -1, 0, 449.773)" gradientUnits="userSpaceOnUse">
      <stop offset="0.117" stop-color="#5ea0ef"/>
      <stop offset="0.271" stop-color="#4595e8"/>
      <stop offset="0.531" stop-color="#1f85dd"/>
      <stop offset="0.741" stop-color="#087cd6"/>
      <stop offset="0.873" stop-color="#0078d4"/>
    </linearGradient>
  </defs>
  <g id="Shapes">
    <rect width="548.169" height="194.544" fill="#fff"/>
    <g>
      <rect x="54.789" y="20.302" width="491.615" height="172.094" fill="#fff"/>
      <rect x="54.789" y="20.302" width="491.615" height="172.094" fill="#198ab3" opacity="0.12"/>
    </g>
    <g>
      <rect x="66.804" y="46.703" width="403.8" height="83.6" fill="#fff"/>
      <rect x="66.804" y="46.703" width="403.8" height="83.6" opacity="0.4" fill="url(#linear-gradient)"/>
    </g>
    <g>
      <rect x="227.238" y="143.502" width="158.4" height="40.094" fill="#fff"/>
      <rect x="227.238" y="143.502" width="158.4" height="40.094" fill="#ccc"/>
    </g>
    <g>
      <g>
        <polygon points="2.504 99.682 11.392 95.208 11.392 86.148 2.504 82.271 2.504 99.682" fill="#fff"/>
        <polygon points="2.504 99.682 11.392 95.208 11.392 86.148 2.504 82.271 2.504 99.682" fill="#3c3c41" opacity="0.85"/>
      </g>
      <g>
        <rect x="13.599" y="81.719" width="31.205" height="18" fill="#fff"/>
        <rect x="13.599" y="81.719" width="31.205" height="18" fill="#3c3c41" opacity="0.85"/>
      </g>
    </g>
    <g>
      <rect x="77.979" y="73.24" width="70.059" height="34.959" fill="#fff"/>
      <g opacity="0.65">
        <path d="M147.888,73.39v34.659H78.129V73.39h69.759m.15-.15H77.979V108.2h70.059V73.24Z" fill="#505050"/>
      </g>
    </g>
    <g>
      <rect x="174.438" y="73.24" width="70.059" height="34.959" fill="#fff"/>
      <g opacity="0.65">
        <path d="M244.347,73.39v34.659H174.588V73.39h69.759m.15-.15H174.438V108.2H244.5V73.24Z" fill="#505050"/>
      </g>
    </g>
    <g>
      <line x1="306.438" y1="113.684" x2="306.438" y2="138.614" fill="none" stroke="#3c3c41" stroke-miterlimit="10"/>
      <polygon points="302.698 114.778 306.438 108.302 310.178 114.778 302.698 114.778" fill="#3c3c41"/>
      <polygon points="302.698 137.52 306.438 143.997 310.178 137.52 302.698 137.52" fill="#3c3c41"/>
    </g>
    <g>
      <line x1="44.274" y1="90.719" x2="72.256" y2="90.719" fill="none" stroke="#3c3c41" stroke-miterlimit="10"/>
      <polygon points="71.162 94.459 77.638 90.719 71.162 86.979 71.162 94.459" fill="#3c3c41"/>
    </g>
    <g>
      <line x1="148.038" y1="90.719" x2="169.056" y2="90.719" fill="none" stroke="#3c3c41" stroke-miterlimit="10"/>
      <polygon points="167.962 94.459 174.438 90.719 167.962 86.979 167.962 94.459" fill="#3c3c41"/>
    </g>
    <g>
      <line x1="244.838" y1="90.719" x2="265.856" y2="90.719" fill="none" stroke="#3c3c41" stroke-miterlimit="10"/>
      <polygon points="264.762 94.459 271.238 90.719 264.762 86.979 264.762 94.459" fill="#3c3c41"/>
    </g>
    <g>
      <rect x="367.833" y="73.24" width="91.141" height="34.959" fill="#fff"/>
      <g opacity="0.65">
        <path d="M458.824,73.39v34.659H367.983V73.39h90.841m.15-.15H367.833V108.2h91.141V73.24Z" fill="#505050"/>
      </g>
    </g>
    <g>
      <line x1="340.838" y1="90.719" x2="361.856" y2="90.719" fill="none" stroke="#3c3c41" stroke-miterlimit="10"/>
      <polygon points="360.762 94.459 367.238 90.719 360.762 86.979 360.762 94.459" fill="#3c3c41"/>
    </g>
    <g>
      <line x1="458.974" y1="90.719" x2="488.329" y2="90.719" fill="none" stroke="#3c3c41" stroke-miterlimit="10"/>
      <polygon points="487.234 94.459 493.711 90.719 487.234 86.979 487.234 94.459" fill="#3c3c41"/>
    </g>
    <g>
      <path d="M519.18,90.535a5.011,5.011,0,0,0-4.333-4.752,6.3,6.3,0,0,0-6.48-6.061,6.455,6.455,0,0,0-6.172,4.209,5.949,5.949,0,0,0-5.234,5.728,6.048,6.048,0,0,0,6.258,5.814H513.9a.946.946,0,0,0,.271,0A5.049,5.049,0,0,0,519.18,90.535Z" fill="url(#linear-gradient-2)"/>
      <rect x="507.552" y="90.054" width="0.963" height="7.641" fill="#b3b3b3"/>
      <circle cx="508.033" cy="87.746" r="2.568" fill="#f2f2f2"/>
      <rect x="505.7" y="97.053" width="4.666" height="4.666" rx="0.901" fill="url(#linear-gradient-3)"/>
    </g>
    <g>
      <path d="M224.518,169.229a2.232,2.232,0,0,0-.42.041,5.085,5.085,0,0,0,.035-.583,5.028,5.028,0,0,0-9.766-1.682,3.421,3.421,0,1,0-1.149,6.643h11.3a2.21,2.21,0,1,0,0-4.419Z" fill="#999" fill-rule="evenodd"/>
      <path d="M245,161.4a2.152,2.152,0,0,0-.42.041,5.112,5.112,0,0,0,.034-.583,5.027,5.027,0,0,0-9.765-1.682,3.421,3.421,0,1,0-1.15,6.642H245a2.209,2.209,0,0,0,0-4.418Z" fill="#999" fill-rule="evenodd"/>
      <path d="M220.484,155.186l5.52-3.238,2.535,1.606,2.685-1.681,5.4,3.388-.05,3.839,3.287,1.882V166.8l-3.262,1.757v3.212l-5.8,3.337-2.283-1.656-2.133,1.656-5.822-3.438-.05-3.086-3.112-1.908-.125-5.595,3.237-2.008Z" fill="#fff" fill-rule="evenodd"/>
      <path d="M225.962,171.138a.56.56,0,0,1-.382.206.567.567,0,0,1-.114-1.128.552.552,0,0,1,.057,0,.568.568,0,0,1,.564.509A.561.561,0,0,1,225.962,171.138Zm-.382-14.426a.566.566,0,0,1-.5-.922.568.568,0,0,1,.382-.206.559.559,0,0,1,.057,0,.567.567,0,0,1,.057,1.131Zm.466,13.259h.1v-2.905a.15.15,0,0,0-.066-.124l-2.075-1.417V162.34l2.074-1.381a.151.151,0,0,0,.067-.126v-3.947a.966.966,0,1,0-.627.23.837.837,0,0,0,.1-.005.993.993,0,0,0,.226-.053v3.695l-2.074,1.381a.152.152,0,0,0-.068.126v3.345a.151.151,0,0,0,.066.124l2.076,1.417v2.725a.967.967,0,1,0-.325,1.877c.033,0,.066,0,.1,0a.965.965,0,0,0,.425-1.773Z" fill="#2f2f2f" fill-rule="evenodd"/>
      <path d="M231.563,170.214a.544.544,0,0,1,.057,0,.566.566,0,1,1-.5.921.56.56,0,0,1-.124-.415A.567.567,0,0,1,231.563,170.214ZM231,156.091a.567.567,0,0,1,.563-.51.544.544,0,0,1,.057,0,.567.567,0,1,1-.62.507Zm.717,4.939V157.1a.976.976,0,1,0-.3,0v4.008a.152.152,0,0,0,.065.124l1.6,1.1v3.187L231,166.942a.149.149,0,0,0-.065.124v2.888h.126a.966.966,0,0,0,.4,1.789.815.815,0,0,0,.1,0,.968.968,0,0,0,.1-1.931.955.955,0,0,0-.421.054v-2.725l2.075-1.417a.149.149,0,0,0,.066-.124v-3.346a.149.149,0,0,0-.065-.123Z" fill="#2f2f2f" fill-rule="evenodd"/>
      <path d="M237.194,163.729a.567.567,0,1,1-.567-.567A.568.568,0,0,1,237.194,163.729Zm-2.3-3.319a.567.567,0,1,1-.566-.567A.567.567,0,0,1,234.891,160.41Zm-4.485,3.319a.567.567,0,1,1,.566.566A.567.567,0,0,1,230.406,163.729Zm3.919,4.03a.567.567,0,1,1,.566-.567A.567.567,0,0,1,234.325,167.759Zm2.1.616-1.258-.716a.958.958,0,0,0,.125-.467.975.975,0,1,0-.312.708l1.3.738V171.5l-5.519,3.329-1.9-1.356v-9.647h1.154a.955.955,0,1,0,.013-.3H228.86v-9.888l2.3-1.384,5.122,3.075v3.639l-.446.261-.812.514a.965.965,0,1,0,.272.669.95.95,0,0,0-.1-.421l.8-.5.425-.248,3.077,1.812v2.488h-1.915a.984.984,0,1,0,.008.3h1.907v2.67Zm-9.745-4.646a.567.567,0,1,1-.567-.567A.567.567,0,0,1,226.681,163.729Zm-3.919-3.886a.567.567,0,1,1-.567.567A.568.568,0,0,1,222.762,159.843Zm-2.869,3.886a.567.567,0,1,1,.567.566A.567.567,0,0,1,219.893,163.729Zm2.3,3.463a.567.567,0,1,1,.567.567A.567.567,0,0,1,222.2,167.192Zm4.132,7.637-5.519-3.329v-2.874l1.26-.761a1,1,0,1,0-.172-.248l-1.246.752-3.055-1.861v-2.67H219.5a.954.954,0,1,0,.009-.3H217.6v-2.488l3.071-1.809,1.231.744a.957.957,0,0,0-.1.427.971.971,0,1,0,.276-.675l-1.262-.762v-3.646l5.121-3.075,2.3,1.384v9.888H227.06a.98.98,0,1,0,.013.3h1.153v9.647Zm10.554-16.017v-3.826l-5.724-3.436-2.614,1.574-2.613-1.574-5.724,3.436v3.826l-3.213,1.891v6.143l3.213,1.958v3.036l6.148,3.71,2.189-1.563,2.189,1.563,6.149-3.71V168.8l3.212-1.958V160.7Z" fill="#2f2f2f" fill-rule="evenodd"/>
    </g>
    <g>
      <rect x="271.238" y="73.24" width="70.059" height="34.959" fill="#fff"/>
      <g opacity="0.65">
        <path d="M341.147,73.39v34.659H271.388V73.39h69.759m.15-.15H271.238V108.2H341.3V73.24Z" fill="#505050"/>
      </g>
    </g>
    <g>
      <path d="M69.631,20.887H57.652l.281-1.127h7.473A5.617,5.617,0,0,0,67.875,9.094a6.53,6.53,0,0,0,.146-1.371A6.65,6.65,0,0,0,55.707,4.289,5.051,5.051,0,0,0,47.8,8.4a5.124,5.124,0,0,0,.058.762,5.608,5.608,0,0,0,2.57,10.6h6.88l-.281,1.127H46.205a.908.908,0,0,0-.905.91v6.417a.908.908,0,0,0,.905.91H69.631a.907.907,0,0,0,.9-.91V21.8A.907.907,0,0,0,69.631,20.887Zm-19.2-2.673a4.062,4.062,0,0,1-1.415-7.878l.674-.253-.207-.694a3.529,3.529,0,0,1-.142-.992,3.509,3.509,0,0,1,6.05-2.356L56.2,6.9l.455-1.1a5.112,5.112,0,0,1,9.827,1.916,5.015,5.015,0,0,1-.26,1.583l-.245.736.734.244a4.043,4.043,0,0,1,2.782,3.849,4.087,4.087,0,0,1-4.088,4.077H58.318l1.063-4.264.051-.3.3-.067a2.365,2.365,0,0,0,.835-.369l.308-.215,2.376,2.3-.062.256a1.474,1.474,0,0,0,1.427,1.819,1.431,1.431,0,0,0,.533-.1,1.483,1.483,0,0,0,.834-1.914,1.461,1.461,0,0,0-1.368-.939,1.437,1.437,0,0,0-.535.1.462.462,0,0,0-.06.032l-.071.039-.291.15-2.365-2.289.121-.29A2.383,2.383,0,0,0,57.569,9.5l-.257.249L55.74,8.766l.025-.281a1.461,1.461,0,0,0-1.457-1.6,1.428,1.428,0,0,0-.534.1A1.481,1.481,0,0,0,52.941,8.9a1.466,1.466,0,0,0,1.9.837,1.494,1.494,0,0,0,.322-.184l.249-.181,1.561.978-.078.324a2.354,2.354,0,0,0-.072.569,2.379,2.379,0,0,0,.12.744l.112.341-2.528,1.6-.239-.14a1.169,1.169,0,0,0-1.029-.083,1.2,1.2,0,0,0-.673,1.547,1.183,1.183,0,0,0,1.537.676,1.2,1.2,0,0,0,.748-1.143l-.007-.261,2.584-1.633.254.209a2.374,2.374,0,0,0,.735.409l.366.126-.062.378-1.049,4.2ZM69,27.578H46.838V22.434h9.8l-.156.623a1.954,1.954,0,1,0,.6.088l.177-.711H69Z" fill="url(#linear-gradient-4)"/>
      <path d="M67.846,23.264H66.6V24.52h1.249Z" fill="url(#linear-gradient-5)"/>
      <path d="M67.846,25.431H66.6v1.255h1.249Z" fill="url(#linear-gradient-6)"/>
    </g>
    <g id="a3857c27-3253-4155-b620-22ae9cf301a7">
      <g>
        <path d="M91.528,41.866a8.852,8.852,0,0,0-9.086-8.36A9.111,9.111,0,0,0,73.9,39.321a8.529,8.529,0,0,0-7.268,8A8.381,8.381,0,0,0,75.208,55.5H90.625a6.907,6.907,0,0,0,6.9-6.911A7.005,7.005,0,0,0,91.528,41.866Z" fill="url(#linear-gradient-7)"/>
        <g>
          <polygon points="90.292 46.558 82.591 43.697 82.392 44.191 82.518 43.738 75.68 42.233 75.352 43.38 81.122 44.631 73.718 47.691 74.288 48.707 81.932 45.532 83.3 51.556 84.483 51.41 83.089 45.192 89.839 47.66 90.292 46.558" fill="#83b9f9"/>
          <path d="M74.494,43.816a1.512,1.512,0,1,0,.268-2.122h0l-.034.028A1.5,1.5,0,0,0,74.494,43.816Zm-1.716,5.349a1.521,1.521,0,1,0,.257-2.137,1.521,1.521,0,0,0-.257,2.137Zm15.9-1.321a1.505,1.505,0,1,0,.276-2.111l-.007.005h0a1.488,1.488,0,0,0-.278,2.083Z" fill="#9cebff"/>
          <path d="M82.7,52.488a1.505,1.505,0,1,0,.268-2.112h0a1.487,1.487,0,0,0-.29,2.084l0,.005Z" fill="#9cebff"/>
        </g>
        <path d="M86.774,44.567a.453.453,0,0,0,0-.786l-3.323-1.922-3.333-1.92a.453.453,0,0,0-.686.393v7.685a.452.452,0,0,0,.686.393l3.333-1.92Z" fill="#c3f1ff"/>
      </g>
    </g>
  </g>
  <g id="Text">
    <g>
      <path d="M261.683,168.253H259.62l-.6-1.87h-2.988l-.592,1.87h-2.05l3.058-8.4h2.244Zm-3.094-3.323-.9-2.824a3.619,3.619,0,0,1-.141-.756H257.5a3.2,3.2,0,0,1-.146.733l-.914,2.847Z" fill="#1e1e1e"/>
      <path d="M264.624,168.253h-1.893v-8.4h1.893Z" fill="#1e1e1e"/>
      <path d="M271.737,168.253h-1.892v-8.4h1.892Z" fill="#1e1e1e"/>
      <path d="M279.261,168.253h-1.846v-3.334q0-1.4-1-1.4a.989.989,0,0,0-.791.369,1.408,1.408,0,0,0-.311.938v3.422h-1.851v-6h1.851v.949h.024a2.121,2.121,0,0,1,1.928-1.1q1.992,0,1.992,2.473Z" fill="#1e1e1e"/>
      <path d="M284.64,160.788a1.87,1.87,0,0,0-.686-.141q-.891,0-.89.967v.639h1.371v1.365h-1.371v4.635h-1.846v-4.635H280.21v-1.365h1.008v-.745a2.158,2.158,0,0,1,.668-1.652,2.547,2.547,0,0,1,1.816-.627,3.2,3.2,0,0,1,.938.117Z" fill="#1e1e1e"/>
      <path d="M290.716,165.78H286.8q.093,1.306,1.646,1.307a3.222,3.222,0,0,0,1.741-.469v1.336a4.574,4.574,0,0,1-2.163.445,2.793,2.793,0,0,1-3.058-3.053,3.211,3.211,0,0,1,.867-2.367,2.889,2.889,0,0,1,2.133-.873,2.623,2.623,0,0,1,2.03.779,3,3,0,0,1,.718,2.116ZM289,164.643q0-1.289-1.043-1.289a.994.994,0,0,0-.77.369,1.676,1.676,0,0,0-.4.92Z" fill="#1e1e1e"/>
      <path d="M295.731,163.922a1.6,1.6,0,0,0-.779-.181,1.121,1.121,0,0,0-.943.442,1.929,1.929,0,0,0-.34,1.2v2.866h-1.852v-6h1.852v1.113h.023a1.6,1.6,0,0,1,1.582-1.219,1.206,1.206,0,0,1,.457.07Z" fill="#1e1e1e"/>
      <path d="M301.937,165.78h-3.915q.094,1.306,1.647,1.307a3.219,3.219,0,0,0,1.74-.469v1.336a4.567,4.567,0,0,1-2.162.445,2.792,2.792,0,0,1-3.058-3.053,3.211,3.211,0,0,1,.867-2.367,2.889,2.889,0,0,1,2.133-.873,2.624,2.624,0,0,1,2.03.779,3.006,3.006,0,0,1,.718,2.116Zm-1.717-1.137q0-1.289-1.043-1.289a1,1,0,0,0-.771.369,1.675,1.675,0,0,0-.395.92Z" fill="#1e1e1e"/>
      <path d="M308.833,168.253h-1.846v-3.334q0-1.4-1-1.4a.989.989,0,0,0-.791.369,1.407,1.407,0,0,0-.31.938v3.422h-1.852v-6h1.852v.949h.023a2.122,2.122,0,0,1,1.928-1.1q1.992,0,1.992,2.473Z" fill="#1e1e1e"/>
      <path d="M314.845,168.036a3.666,3.666,0,0,1-1.811.363,3.059,3.059,0,0,1-2.238-.838,2.894,2.894,0,0,1-.856-2.162,3.19,3.19,0,0,1,.917-2.411,3.391,3.391,0,0,1,2.453-.882,3.154,3.154,0,0,1,1.535.281v1.571a2.114,2.114,0,0,0-1.3-.434,1.706,1.706,0,0,0-1.263.466,1.739,1.739,0,0,0-.466,1.286,1.711,1.711,0,0,0,.446,1.251,1.635,1.635,0,0,0,1.224.454,2.44,2.44,0,0,0,1.354-.434Z" fill="#1e1e1e"/>
      <path d="M321.448,165.78h-3.914q.094,1.306,1.647,1.307a3.219,3.219,0,0,0,1.74-.469v1.336a4.57,4.57,0,0,1-2.162.445,2.793,2.793,0,0,1-3.059-3.053,3.211,3.211,0,0,1,.867-2.367,2.891,2.891,0,0,1,2.133-.873,2.623,2.623,0,0,1,2.03.779,3,3,0,0,1,.718,2.116Zm-1.717-1.137q0-1.289-1.042-1.289a1,1,0,0,0-.771.369,1.676,1.676,0,0,0-.4.92Z" fill="#1e1e1e"/>
      <path d="M325.468,168.094v-1.5a3.917,3.917,0,0,0,.911.411,3.051,3.051,0,0,0,.858.134,1.861,1.861,0,0,0,.777-.134.437.437,0,0,0,.284-.411.381.381,0,0,0-.129-.293,1.208,1.208,0,0,0-.331-.2,3.912,3.912,0,0,0-.442-.158q-.242-.07-.463-.158a4.441,4.441,0,0,1-.63-.29,1.839,1.839,0,0,1-.457-.36,1.43,1.43,0,0,1-.282-.475,1.91,1.91,0,0,1-.1-.639,1.638,1.638,0,0,1,.22-.867,1.8,1.8,0,0,1,.585-.595,2.716,2.716,0,0,1,.838-.34,4.392,4.392,0,0,1,.982-.108,5.443,5.443,0,0,1,.808.062,6.049,6.049,0,0,1,.809.178v1.43a2.924,2.924,0,0,0-.753-.308,3.193,3.193,0,0,0-.788-.1,1.792,1.792,0,0,0-.343.032,1.155,1.155,0,0,0-.284.094.526.526,0,0,0-.193.158.364.364,0,0,0-.071.22.408.408,0,0,0,.106.281.922.922,0,0,0,.275.2,2.543,2.543,0,0,0,.378.152c.139.045.277.091.413.138a5.46,5.46,0,0,1,.668.281,2.157,2.157,0,0,1,.513.358,1.416,1.416,0,0,1,.328.48,1.927,1.927,0,0,1-.117,1.568,1.855,1.855,0,0,1-.615.615,2.815,2.815,0,0,1-.885.346,4.925,4.925,0,0,1-1.04.108A5.363,5.363,0,0,1,325.468,168.094Z" fill="#1e1e1e"/>
      <path d="M336.53,165.78h-3.914q.094,1.306,1.647,1.307a3.219,3.219,0,0,0,1.74-.469v1.336a4.57,4.57,0,0,1-2.162.445,2.793,2.793,0,0,1-3.059-3.053,3.211,3.211,0,0,1,.867-2.367,2.892,2.892,0,0,1,2.133-.873,2.626,2.626,0,0,1,2.031.779A3.005,3.005,0,0,1,336.53,165Zm-1.716-1.137q0-1.289-1.043-1.289a1,1,0,0,0-.771.369,1.668,1.668,0,0,0-.395.92Z" fill="#1e1e1e"/>
      <path d="M341.546,163.922a1.606,1.606,0,0,0-.779-.181,1.123,1.123,0,0,0-.944.442,1.935,1.935,0,0,0-.34,1.2v2.866h-1.851v-6h1.851v1.113h.024a1.6,1.6,0,0,1,1.582-1.219,1.21,1.21,0,0,1,.457.07Z" fill="#1e1e1e"/>
      <path d="M348.6,162.253l-2.233,6h-2.109l-2.127-6h1.98l1.043,3.7a5.37,5.37,0,0,1,.205,1.066h.024a5.946,5.946,0,0,1,.217-1.031l1.066-3.732Z" fill="#1e1e1e"/>
      <path d="M350.329,161.3a1.078,1.078,0,0,1-.767-.278.9.9,0,0,1-.3-.683.86.86,0,0,1,.3-.679,1.252,1.252,0,0,1,1.538,0,.868.868,0,0,1,.3.679.9.9,0,0,1-.3.692A1.1,1.1,0,0,1,350.329,161.3Zm.914,6.95h-1.851v-6h1.851Z" fill="#1e1e1e"/>
      <path d="M357.349,168.036a3.666,3.666,0,0,1-1.811.363,3.059,3.059,0,0,1-2.238-.838,2.894,2.894,0,0,1-.856-2.162,3.19,3.19,0,0,1,.917-2.411,3.391,3.391,0,0,1,2.453-.882,3.154,3.154,0,0,1,1.535.281v1.571a2.114,2.114,0,0,0-1.3-.434,1.7,1.7,0,0,0-1.263.466,1.735,1.735,0,0,0-.466,1.286,1.711,1.711,0,0,0,.446,1.251,1.634,1.634,0,0,0,1.224.454,2.44,2.44,0,0,0,1.354-.434Z" fill="#1e1e1e"/>
      <path d="M363.952,165.78h-3.914q.094,1.306,1.647,1.307a3.219,3.219,0,0,0,1.74-.469v1.336a4.573,4.573,0,0,1-2.162.445,2.793,2.793,0,0,1-3.059-3.053,3.211,3.211,0,0,1,.867-2.367,2.889,2.889,0,0,1,2.133-.873,2.623,2.623,0,0,1,2.03.779,3,3,0,0,1,.718,2.116Zm-1.717-1.137q0-1.289-1.043-1.289a1,1,0,0,0-.77.369,1.676,1.676,0,0,0-.4.92Z" fill="#1e1e1e"/>
    </g>
    <g>
      <path d="M486.314,59.9h-1.892V51.5h1.892Z" fill="#1e1e1e"/>
      <path d="M490.9,60.049a3.222,3.222,0,0,1-2.358-.841,3.478,3.478,0,0,1,.032-4.611,3.364,3.364,0,0,1,2.408-.841,3.185,3.185,0,0,1,2.344.841,2.986,2.986,0,0,1,.85,2.223,3.173,3.173,0,0,1-.876,2.362A3.262,3.262,0,0,1,490.9,60.049Zm.047-4.875a1.234,1.234,0,0,0-1.019.451,1.992,1.992,0,0,0-.364,1.277q0,1.73,1.4,1.729,1.331,0,1.33-1.775Q492.291,55.173,490.949,55.174Z" fill="#1e1e1e"/>
      <path d="M501.461,53.041h-2.4V59.9h-1.9V53.041h-2.385V51.5h6.68Z" fill="#1e1e1e"/>
      <path d="M510.941,59.9H505.9V51.5h4.846v1.541H507.8V54.91h2.748v1.535H507.8v1.922h3.146Z" fill="#1e1e1e"/>
      <path d="M517.979,59.9h-1.852v-.826H516.1a2.076,2.076,0,0,1-1.858.973,2.275,2.275,0,0,1-1.81-.794,3.287,3.287,0,0,1-.686-2.218,3.578,3.578,0,0,1,.756-2.385,2.467,2.467,0,0,1,1.98-.9,1.685,1.685,0,0,1,1.618.832h.023V51.02h1.852Zm-1.817-2.918v-.451a1.416,1.416,0,0,0-.34-.972,1.2,1.2,0,0,0-1.845.1,2.243,2.243,0,0,0-.346,1.327,1.939,1.939,0,0,0,.334,1.219,1.186,1.186,0,0,0,1.843-.023A1.883,1.883,0,0,0,516.162,56.984Z" fill="#1e1e1e"/>
      <path d="M525.42,59.217a3.4,3.4,0,0,1-.967,2.587,3.919,3.919,0,0,1-2.8.917,4.435,4.435,0,0,1-1.922-.346V60.817a3.689,3.689,0,0,0,1.87.539,2.01,2.01,0,0,0,1.453-.5,1.774,1.774,0,0,0,.515-1.344v-.475h-.023a2.068,2.068,0,0,1-1.869,1.008,2.247,2.247,0,0,1-1.822-.809,3.273,3.273,0,0,1-.674-2.168,3.654,3.654,0,0,1,.75-2.42,2.449,2.449,0,0,1,1.974-.9,1.821,1.821,0,0,1,1.641.844h.023v-.7h1.852Zm-1.828-2.2v-.475a1.458,1.458,0,0,0-.337-.97,1.092,1.092,0,0,0-.876-.4,1.134,1.134,0,0,0-.967.48,2.265,2.265,0,0,0-.351,1.354,1.9,1.9,0,0,0,.334,1.186,1.088,1.088,0,0,0,.914.437,1.132,1.132,0,0,0,.928-.442A1.811,1.811,0,0,0,523.592,57.02Z" fill="#1e1e1e"/>
      <path d="M532.357,57.43h-3.914q.094,1.307,1.647,1.306a3.218,3.218,0,0,0,1.74-.468V59.6a4.57,4.57,0,0,1-2.162.445A2.793,2.793,0,0,1,526.609,57a3.208,3.208,0,0,1,.868-2.367,2.888,2.888,0,0,1,2.132-.873,2.626,2.626,0,0,1,2.031.779,3.005,3.005,0,0,1,.717,2.116Zm-1.716-1.137Q530.641,55,529.6,55a1,1,0,0,0-.771.369,1.675,1.675,0,0,0-.395.92Z" fill="#1e1e1e"/>
      <path d="M504.355,73.1h-1.9V69.681h-3.48V73.1h-1.893V64.7h1.893v3.352h3.48V64.7h1.9Z" fill="#1e1e1e"/>
      <path d="M511.8,73.1h-1.846v-.914h-.029a2.093,2.093,0,0,1-1.834,1.06q-2.087,0-2.086-2.525V67.1h1.846V70.56q0,1.27,1.007,1.271a1,1,0,0,0,.8-.348,1.4,1.4,0,0,0,.3-.947V67.1H511.8Z" fill="#1e1e1e"/>
      <path d="M515.23,72.405h-.023v.7h-1.852V64.22h1.852v3.785h.023a2.2,2.2,0,0,1,1.952-1.049,2.142,2.142,0,0,1,1.787.8,3.437,3.437,0,0,1,.627,2.18,3.718,3.718,0,0,1-.733,2.408,2.386,2.386,0,0,1-1.957.908A1.89,1.89,0,0,1,515.23,72.405Zm-.052-2.531v.615a1.4,1.4,0,0,0,.334.961,1.085,1.085,0,0,0,.855.381,1.137,1.137,0,0,0,.982-.489,2.365,2.365,0,0,0,.348-1.386,1.878,1.878,0,0,0-.319-1.163,1.079,1.079,0,0,0-.911-.419,1.178,1.178,0,0,0-.923.416A1.581,1.581,0,0,0,515.178,69.874Z" fill="#1e1e1e"/>
    </g>
    <g>
      <path d="M105.6,88.615h-1.172l-1.406-2.356a5.19,5.19,0,0,0-.375-.559,2.227,2.227,0,0,0-.372-.378,1.283,1.283,0,0,0-.411-.214,1.679,1.679,0,0,0-.5-.067h-.808v3.574h-.985v-8.4h2.508a3.573,3.573,0,0,1,1.017.137,2.284,2.284,0,0,1,.808.419,1.937,1.937,0,0,1,.536.7,2.325,2.325,0,0,1,.194.982,2.356,2.356,0,0,1-.132.805,2.109,2.109,0,0,1-.375.654,2.275,2.275,0,0,1-.586.489,3.01,3.01,0,0,1-.771.314v.023a1.763,1.763,0,0,1,.367.214,2.069,2.069,0,0,1,.3.284,3.83,3.83,0,0,1,.278.372c.092.139.194.3.308.483ZM100.558,81.1V84.15h1.336a2.028,2.028,0,0,0,.682-.111,1.586,1.586,0,0,0,.542-.32,1.434,1.434,0,0,0,.358-.509,1.71,1.71,0,0,0,.129-.677,1.318,1.318,0,0,0-.437-1.052,1.875,1.875,0,0,0-1.263-.378Z" fill="#1e1e1e"/>
      <path d="M111.181,81.1h-2.426v7.512h-.984V81.1h-2.42v-.89h5.83Z" fill="#1e1e1e"/>
      <path d="M111.872,88.275v-1.16a2.228,2.228,0,0,0,.478.316,3.841,3.841,0,0,0,.586.238,4.705,4.705,0,0,0,.618.149,3.46,3.46,0,0,0,.574.053,2.251,2.251,0,0,0,1.356-.337,1.262,1.262,0,0,0,.3-1.562,1.674,1.674,0,0,0-.413-.46,4.178,4.178,0,0,0-.624-.4q-.36-.191-.776-.4-.439-.224-.821-.452a3.568,3.568,0,0,1-.662-.5,2.087,2.087,0,0,1-.442-.624,2.127,2.127,0,0,1,.091-1.816,2.151,2.151,0,0,1,.662-.7,2.971,2.971,0,0,1,.934-.41,4.281,4.281,0,0,1,1.07-.135,4.084,4.084,0,0,1,1.81.3v1.107a3.278,3.278,0,0,0-1.91-.515,3.123,3.123,0,0,0-.644.067,1.816,1.816,0,0,0-.575.22,1.271,1.271,0,0,0-.41.392,1.047,1.047,0,0,0-.158.586,1.208,1.208,0,0,0,.12.557,1.36,1.36,0,0,0,.355.428,3.622,3.622,0,0,0,.571.375c.225.121.483.253.776.4s.586.3.856.469A3.887,3.887,0,0,1,116.3,85a2.419,2.419,0,0,1,.483.662,1.861,1.861,0,0,1,.179.832,2.115,2.115,0,0,1-.243,1.052,1.994,1.994,0,0,1-.657.7,2.868,2.868,0,0,1-.952.389,5.213,5.213,0,0,1-1.136.12,4.512,4.512,0,0,1-.493-.032q-.293-.032-.6-.093a4.951,4.951,0,0,1-.577-.153A1.775,1.775,0,0,1,111.872,88.275Z" fill="#1e1e1e"/>
      <path d="M119.624,85.439v3.176h-.984v-8.4h2.308a3.044,3.044,0,0,1,2.089.656,2.341,2.341,0,0,1,.741,1.851,2.544,2.544,0,0,1-.823,1.957,3.145,3.145,0,0,1-2.224.762Zm0-4.336v3.445h1.031a2.308,2.308,0,0,0,1.556-.465,1.651,1.651,0,0,0,.536-1.316q0-1.663-1.969-1.664Z" fill="#1e1e1e"/>
      <path d="M96.166,101.6v-1.031a2.842,2.842,0,0,0,1.729.58q1.265,0,1.265-.844a.733.733,0,0,0-.108-.407,1.083,1.083,0,0,0-.293-.3,2.235,2.235,0,0,0-.434-.231q-.249-.1-.536-.214a7.061,7.061,0,0,1-.7-.319,2.135,2.135,0,0,1-.5-.364,1.35,1.35,0,0,1-.3-.46,1.634,1.634,0,0,1-.1-.6,1.433,1.433,0,0,1,.193-.747,1.708,1.708,0,0,1,.516-.545,2.391,2.391,0,0,1,.735-.331,3.273,3.273,0,0,1,.853-.112,3.436,3.436,0,0,1,1.394.27v.973a2.717,2.717,0,0,0-1.523-.434,1.787,1.787,0,0,0-.487.062,1.2,1.2,0,0,0-.372.172.811.811,0,0,0-.24.267.7.7,0,0,0-.085.343.815.815,0,0,0,.085.392A.869.869,0,0,0,97.5,98a1.863,1.863,0,0,0,.4.222q.234.1.533.217a7.461,7.461,0,0,1,.715.314,2.44,2.44,0,0,1,.539.363,1.423,1.423,0,0,1,.342.466,1.645,1.645,0,0,1-.076,1.4,1.682,1.682,0,0,1-.524.545,2.411,2.411,0,0,1-.756.322,3.7,3.7,0,0,1-.9.106A3.4,3.4,0,0,1,96.166,101.6Z" fill="#1e1e1e"/>
      <path d="M104.129,101.956a2.784,2.784,0,0,1-2.124-.841,3.117,3.117,0,0,1-.794-2.23,3.243,3.243,0,0,1,.826-2.361,2.973,2.973,0,0,1,2.233-.85,2.69,2.69,0,0,1,2.094.827,3.273,3.273,0,0,1,.753,2.291,3.221,3.221,0,0,1-.811,2.3A2.842,2.842,0,0,1,104.129,101.956Zm.07-5.473a1.829,1.829,0,0,0-1.465.63,2.589,2.589,0,0,0-.539,1.737,2.449,2.449,0,0,0,.545,1.682,1.854,1.854,0,0,0,1.459.615,1.758,1.758,0,0,0,1.433-.6,2.621,2.621,0,0,0,.5-1.717,2.667,2.667,0,0,0-.5-1.735A1.75,1.75,0,0,0,104.2,96.483Z" fill="#1e1e1e"/>
      <path d="M113.5,101.815h-.961v-.949h-.023a1.976,1.976,0,0,1-1.852,1.09q-2.145,0-2.145-2.555V95.815h.956v3.434q0,1.9,1.453,1.9a1.473,1.473,0,0,0,1.157-.518,1.984,1.984,0,0,0,.454-1.357V95.815h.961Z" fill="#1e1e1e"/>
      <path d="M118.572,96.788a1.173,1.173,0,0,0-.726-.194,1.23,1.23,0,0,0-1.029.58,2.685,2.685,0,0,0-.413,1.582v3.059h-.961v-6h.961v1.236h.024a2.086,2.086,0,0,1,.627-.987A1.429,1.429,0,0,1,118,95.71a1.562,1.562,0,0,1,.574.082Z" fill="#1e1e1e"/>
      <path d="M123.705,101.54a3.127,3.127,0,0,1-1.641.416,2.72,2.72,0,0,1-2.071-.835,3.029,3.029,0,0,1-.788-2.165,3.322,3.322,0,0,1,.85-2.382,2.97,2.97,0,0,1,2.267-.9,3.163,3.163,0,0,1,1.395.293v.985a2.44,2.44,0,0,0-1.43-.469,1.935,1.935,0,0,0-1.509.659,2.506,2.506,0,0,0-.589,1.732,2.384,2.384,0,0,0,.554,1.664,1.909,1.909,0,0,0,1.486.609,2.411,2.411,0,0,0,1.476-.521Z" fill="#1e1e1e"/>
      <path d="M129.98,99.055h-4.236a2.245,2.245,0,0,0,.539,1.547,1.861,1.861,0,0,0,1.418.545,2.948,2.948,0,0,0,1.863-.668v.9a3.478,3.478,0,0,1-2.091.575,2.535,2.535,0,0,1-2-.818,3.342,3.342,0,0,1-.727-2.3,3.283,3.283,0,0,1,.794-2.282,2.546,2.546,0,0,1,1.972-.882,2.255,2.255,0,0,1,1.822.762,3.174,3.174,0,0,1,.644,2.115ZM129,98.241a1.96,1.96,0,0,0-.4-1.3,1.367,1.367,0,0,0-1.1-.463,1.552,1.552,0,0,0-1.154.486,2.2,2.2,0,0,0-.586,1.272Z" fill="#1e1e1e"/>
    </g>
    <g>
      <path d="M186.508,81.1h-3.281v2.906h3.035v.885h-3.035v3.721h-.985v-8.4h4.266Z" fill="#1e1e1e"/>
      <path d="M191.1,83.588a1.177,1.177,0,0,0-.727-.194,1.227,1.227,0,0,0-1.028.58,2.678,2.678,0,0,0-.413,1.582v3.059h-.961v-6h.961v1.236h.023a2.1,2.1,0,0,1,.627-.987,1.432,1.432,0,0,1,.943-.355,1.589,1.589,0,0,1,.575.082Z" fill="#1e1e1e"/>
      <path d="M196.439,88.615h-.96v-.938h-.024a2.011,2.011,0,0,1-1.846,1.078,1.975,1.975,0,0,1-1.4-.474,1.645,1.645,0,0,1-.507-1.26q0-1.681,1.981-1.957l1.8-.252q0-1.528-1.237-1.529a2.955,2.955,0,0,0-1.957.738v-.984a3.72,3.72,0,0,1,2.039-.563q2.115,0,2.115,2.239Zm-.96-3.035-1.448.2a2.35,2.35,0,0,0-1.008.331.955.955,0,0,0-.339.841.916.916,0,0,0,.313.718,1.213,1.213,0,0,0,.835.278,1.543,1.543,0,0,0,1.181-.5,1.793,1.793,0,0,0,.466-1.269Z" fill="#1e1e1e"/>
      <path d="M206.77,88.615h-.961V85.17a2.6,2.6,0,0,0-.308-1.442,1.166,1.166,0,0,0-1.034-.445,1.28,1.28,0,0,0-1.046.562,2.155,2.155,0,0,0-.431,1.348v3.422h-.961V85.052q0-1.769-1.365-1.769a1.266,1.266,0,0,0-1.043.53,2.2,2.2,0,0,0-.41,1.38v3.422h-.961v-6h.961v.949h.023a2.04,2.04,0,0,1,1.864-1.09,1.734,1.734,0,0,1,1.7,1.242,2.14,2.14,0,0,1,1.992-1.242q1.98,0,1.981,2.444Z" fill="#1e1e1e"/>
      <path d="M213.408,85.855h-4.236a2.245,2.245,0,0,0,.539,1.547,1.859,1.859,0,0,0,1.418.545,2.948,2.948,0,0,0,1.863-.668v.9a3.479,3.479,0,0,1-2.092.574,2.537,2.537,0,0,1-2-.817,3.347,3.347,0,0,1-.726-2.3,3.278,3.278,0,0,1,.794-2.282,2.544,2.544,0,0,1,1.971-.882,2.256,2.256,0,0,1,1.823.762,3.18,3.18,0,0,1,.644,2.115Zm-.984-.814a1.953,1.953,0,0,0-.4-1.3,1.364,1.364,0,0,0-1.1-.463,1.552,1.552,0,0,0-1.154.486,2.2,2.2,0,0,0-.586,1.272Z" fill="#1e1e1e"/>
      <path d="M221.277,83.588a1.173,1.173,0,0,0-.726-.194,1.23,1.23,0,0,0-1.029.58,2.685,2.685,0,0,0-.413,1.582v3.059h-.961v-6h.961v1.236h.024a2.1,2.1,0,0,1,.627-.987,1.43,1.43,0,0,1,.943-.355,1.579,1.579,0,0,1,.574.082Z" fill="#1e1e1e"/>
      <path d="M226.615,88.615h-.961v-.938h-.023a2.011,2.011,0,0,1-1.846,1.078,1.975,1.975,0,0,1-1.4-.474,1.645,1.645,0,0,1-.507-1.26q0-1.681,1.98-1.957l1.8-.252q0-1.528-1.236-1.529a2.954,2.954,0,0,0-1.957.738v-.984a3.718,3.718,0,0,1,2.039-.563q2.115,0,2.115,2.239Zm-.961-3.035-1.447.2a2.35,2.35,0,0,0-1.008.331.956.956,0,0,0-.34.841.917.917,0,0,0,.314.718,1.213,1.213,0,0,0,.835.278,1.545,1.545,0,0,0,1.181-.5,1.792,1.792,0,0,0,.465-1.269Z" fill="#1e1e1e"/>
      <path d="M231.209,88.556a1.852,1.852,0,0,1-.9.188q-1.576,0-1.577-1.758V83.435h-1.031v-.82h1.031V81.15l.961-.311v1.776h1.512v.82H229.7v3.381a1.406,1.406,0,0,0,.2.861.82.82,0,0,0,.68.258,1.01,1.01,0,0,0,.627-.2Z" fill="#1e1e1e"/>
      <path d="M237.314,85.855h-4.236a2.245,2.245,0,0,0,.539,1.547,1.861,1.861,0,0,0,1.418.545,2.948,2.948,0,0,0,1.863-.668v.9a3.478,3.478,0,0,1-2.091.574,2.534,2.534,0,0,1-2-.817,3.342,3.342,0,0,1-.727-2.3,3.283,3.283,0,0,1,.794-2.282,2.546,2.546,0,0,1,1.972-.882,2.255,2.255,0,0,1,1.822.762,3.174,3.174,0,0,1,.644,2.115Zm-.984-.814a1.958,1.958,0,0,0-.4-1.3,1.367,1.367,0,0,0-1.1-.463,1.552,1.552,0,0,0-1.154.486,2.2,2.2,0,0,0-.586,1.272Z" fill="#1e1e1e"/>
      <path d="M201.364,93.776a1.282,1.282,0,0,0-.638-.158q-1.008,0-1.008,1.271v.926h1.406v.82h-1.406v5.18h-.955v-5.18h-1.026v-.82h1.026v-.973a2.017,2.017,0,0,1,.545-1.491,1.839,1.839,0,0,1,1.359-.548,1.866,1.866,0,0,1,.7.106Z" fill="#1e1e1e"/>
      <path d="M202.647,94.292a.61.61,0,0,1-.439-.176.594.594,0,0,1-.182-.445.615.615,0,0,1,.621-.627.622.622,0,0,1,.449.178.628.628,0,0,1,0,.888A.617.617,0,0,1,202.647,94.292Zm.469,7.523h-.961v-6h.961Z" fill="#1e1e1e"/>
      <path d="M206.022,101.815h-.96V92.932h.96Z" fill="#1e1e1e"/>
      <path d="M210.751,101.756a1.852,1.852,0,0,1-.9.188q-1.576,0-1.577-1.758V96.635h-1.031v-.82h1.031V94.35l.961-.31v1.775h1.512v.82h-1.512v3.381a1.408,1.408,0,0,0,.2.862.822.822,0,0,0,.68.257,1.01,1.01,0,0,0,.627-.2Z" fill="#1e1e1e"/>
      <path d="M216.856,99.055H212.62a2.245,2.245,0,0,0,.539,1.547,1.861,1.861,0,0,0,1.418.545,2.948,2.948,0,0,0,1.863-.668v.9a3.478,3.478,0,0,1-2.091.575,2.535,2.535,0,0,1-2-.818,3.342,3.342,0,0,1-.727-2.3,3.283,3.283,0,0,1,.794-2.282,2.546,2.546,0,0,1,1.972-.882,2.255,2.255,0,0,1,1.822.762,3.174,3.174,0,0,1,.644,2.115Zm-.984-.814a1.96,1.96,0,0,0-.4-1.3,1.367,1.367,0,0,0-1.1-.463,1.552,1.552,0,0,0-1.154.486,2.2,2.2,0,0,0-.586,1.272Z" fill="#1e1e1e"/>
      <path d="M221.439,96.788a1.177,1.177,0,0,0-.727-.194,1.227,1.227,0,0,0-1.028.58,2.678,2.678,0,0,0-.413,1.582v3.059h-.961v-6h.961v1.236h.023a2.1,2.1,0,0,1,.627-.987,1.431,1.431,0,0,1,.943-.354,1.568,1.568,0,0,1,.575.082Z" fill="#1e1e1e"/>
    </g>
    <g>
      <path d="M299.661,88.615h-.984V84.783h-4.348v3.832h-.984v-8.4h.984V83.9h4.348V80.213h.984Z" fill="#1e1e1e"/>
      <path d="M306.833,81.1h-2.426v7.512h-.984V81.1H301v-.89h5.83Z" fill="#1e1e1e"/>
      <path d="M313.355,81.1h-2.426v7.512h-.985V81.1h-2.42v-.89h5.831Z" fill="#1e1e1e"/>
      <path d="M315.657,85.439v3.176h-.984v-8.4h2.308a3.044,3.044,0,0,1,2.089.656,2.342,2.342,0,0,1,.742,1.851,2.545,2.545,0,0,1-.824,1.957,3.144,3.144,0,0,1-2.223.762Zm0-4.336v3.445h1.032a2.307,2.307,0,0,0,1.555-.465,1.648,1.648,0,0,0,.536-1.316q0-1.663-1.968-1.664Z" fill="#1e1e1e"/>
      <path d="M286.694,99.055h-4.236A2.245,2.245,0,0,0,283,100.6a1.861,1.861,0,0,0,1.418.545,2.948,2.948,0,0,0,1.863-.668v.9a3.478,3.478,0,0,1-2.091.575,2.535,2.535,0,0,1-2-.818,3.342,3.342,0,0,1-.727-2.3,3.283,3.283,0,0,1,.794-2.282,2.544,2.544,0,0,1,1.972-.882,2.255,2.255,0,0,1,1.822.762,3.174,3.174,0,0,1,.644,2.115Zm-.984-.814a1.96,1.96,0,0,0-.4-1.3,1.367,1.367,0,0,0-1.1-.463,1.552,1.552,0,0,0-1.154.486,2.2,2.2,0,0,0-.586,1.272Z" fill="#1e1e1e"/>
      <path d="M292.53,95.815l-2.015,3.035,1.98,2.965h-1.119L290.2,99.87c-.074-.121-.162-.274-.263-.457h-.024q-.029.052-.275.457l-1.2,1.945h-1.108l2.045-2.941-1.957-3.059h1.119l1.16,2.051q.129.228.252.469h.024l1.5-2.52Z" fill="#1e1e1e"/>
      <path d="M296.439,101.756a1.856,1.856,0,0,1-.9.188q-1.576,0-1.576-1.758V96.635h-1.031v-.82h1.031V94.35l.961-.31v1.775h1.512v.82h-1.512v3.381a1.4,1.4,0,0,0,.2.862.821.821,0,0,0,.68.257,1.01,1.01,0,0,0,.627-.2Z" fill="#1e1e1e"/>
      <path d="M302.544,99.055h-4.236a2.24,2.24,0,0,0,.539,1.547,1.858,1.858,0,0,0,1.418.545,2.95,2.95,0,0,0,1.863-.668v.9a3.482,3.482,0,0,1-2.092.575,2.536,2.536,0,0,1-2-.818,3.347,3.347,0,0,1-.726-2.3,3.282,3.282,0,0,1,.793-2.282,2.547,2.547,0,0,1,1.972-.882,2.254,2.254,0,0,1,1.822.762,3.175,3.175,0,0,1,.645,2.115Zm-.984-.814a1.954,1.954,0,0,0-.4-1.3,1.365,1.365,0,0,0-1.1-.463,1.554,1.554,0,0,0-1.155.486,2.217,2.217,0,0,0-.586,1.272Z" fill="#1e1e1e"/>
      <path d="M308.978,101.815h-.961V98.393q0-1.909-1.395-1.91a1.513,1.513,0,0,0-1.192.542,2.005,2.005,0,0,0-.472,1.368v3.422H304v-6h.961v1h.023a2.167,2.167,0,0,1,1.969-1.137,1.836,1.836,0,0,1,1.506.636,2.83,2.83,0,0,1,.522,1.837Z" fill="#1e1e1e"/>
      <path d="M310.425,101.6v-1.031a2.839,2.839,0,0,0,1.728.58q1.266,0,1.266-.844a.733.733,0,0,0-.108-.407,1.1,1.1,0,0,0-.293-.3,2.235,2.235,0,0,0-.434-.231q-.249-.1-.536-.214a7.061,7.061,0,0,1-.7-.319,2.135,2.135,0,0,1-.5-.364,1.336,1.336,0,0,1-.305-.46,1.634,1.634,0,0,1-.1-.6,1.433,1.433,0,0,1,.193-.747,1.708,1.708,0,0,1,.516-.545,2.37,2.37,0,0,1,.735-.331,3.265,3.265,0,0,1,.852-.112,3.437,3.437,0,0,1,1.395.27v.973a2.717,2.717,0,0,0-1.523-.434,1.787,1.787,0,0,0-.487.062,1.2,1.2,0,0,0-.372.172.811.811,0,0,0-.24.267.7.7,0,0,0-.085.343.815.815,0,0,0,.085.392.869.869,0,0,0,.249.282,1.879,1.879,0,0,0,.4.222c.157.067.334.139.534.217a7.437,7.437,0,0,1,.714.314,2.416,2.416,0,0,1,.539.363,1.412,1.412,0,0,1,.343.466,1.5,1.5,0,0,1,.12.627,1.478,1.478,0,0,1-.2.773,1.693,1.693,0,0,1-.524.545,2.411,2.411,0,0,1-.756.322,3.7,3.7,0,0,1-.9.106A3.394,3.394,0,0,1,310.425,101.6Z" fill="#1e1e1e"/>
      <path d="M316.372,94.292a.608.608,0,0,1-.439-.176.594.594,0,0,1-.182-.445.615.615,0,0,1,.621-.627.619.619,0,0,1,.448.178.625.625,0,0,1,0,.888A.615.615,0,0,1,316.372,94.292Zm.469,7.523h-.961v-6h.961Z" fill="#1e1e1e"/>
      <path d="M321.294,101.956a2.784,2.784,0,0,1-2.124-.841,3.117,3.117,0,0,1-.794-2.23,3.243,3.243,0,0,1,.826-2.361,2.973,2.973,0,0,1,2.233-.85,2.69,2.69,0,0,1,2.094.827,3.273,3.273,0,0,1,.753,2.291,3.221,3.221,0,0,1-.811,2.3A2.842,2.842,0,0,1,321.294,101.956Zm.07-5.473a1.829,1.829,0,0,0-1.465.63,2.589,2.589,0,0,0-.539,1.737,2.449,2.449,0,0,0,.545,1.682,1.854,1.854,0,0,0,1.459.615,1.758,1.758,0,0,0,1.433-.6,2.621,2.621,0,0,0,.5-1.717,2.667,2.667,0,0,0-.5-1.735A1.75,1.75,0,0,0,321.364,96.483Z" fill="#1e1e1e"/>
      <path d="M330.8,101.815h-.961V98.393q0-1.909-1.395-1.91a1.513,1.513,0,0,0-1.192.542,2.01,2.01,0,0,0-.472,1.368v3.422h-.961v-6h.961v1h.024a2.165,2.165,0,0,1,1.969-1.137,1.833,1.833,0,0,1,1.5.636,2.83,2.83,0,0,1,.522,1.837Z" fill="#1e1e1e"/>
    </g>
    <g>
      <path d="M394.978,88.615h-.985v-8.4h.985Z" fill="#1e1e1e"/>
      <path d="M399.565,88.755a2.787,2.787,0,0,1-2.124-.84,3.117,3.117,0,0,1-.794-2.23,3.242,3.242,0,0,1,.827-2.361,2.967,2.967,0,0,1,2.232-.85,2.694,2.694,0,0,1,2.095.826,3.277,3.277,0,0,1,.753,2.291,3.224,3.224,0,0,1-.812,2.3A2.843,2.843,0,0,1,399.565,88.755Zm.071-5.472a1.828,1.828,0,0,0-1.465.63,2.589,2.589,0,0,0-.539,1.737,2.45,2.45,0,0,0,.545,1.682,1.851,1.851,0,0,0,1.459.615,1.754,1.754,0,0,0,1.432-.6,2.616,2.616,0,0,0,.5-1.716,2.665,2.665,0,0,0-.5-1.735A1.748,1.748,0,0,0,399.636,83.283Z" fill="#1e1e1e"/>
      <path d="M409.187,81.1h-2.426v7.512h-.985V81.1h-2.42v-.89h5.831Z" fill="#1e1e1e"/>
      <path d="M420.108,88.615h-.984V84.783h-4.348v3.832h-.984v-8.4h.984V83.9h4.348V80.213h.984Z" fill="#1e1e1e"/>
      <path d="M427.034,88.615h-.961v-.949h-.023a1.975,1.975,0,0,1-1.852,1.089q-2.143,0-2.144-2.554V82.615h.955v3.433q0,1.9,1.453,1.9a1.469,1.469,0,0,0,1.157-.519,1.981,1.981,0,0,0,.454-1.356V82.615h.961Z" fill="#1e1e1e"/>
      <path d="M429.958,87.748h-.023v.867h-.961V79.732h.961V83.67h.023a2.273,2.273,0,0,1,2.074-1.2,2.2,2.2,0,0,1,1.808.806,3.33,3.33,0,0,1,.653,2.159,3.719,3.719,0,0,1-.732,2.411,2.438,2.438,0,0,1-2,.905A1.973,1.973,0,0,1,429.958,87.748Zm-.023-2.42v.838a1.782,1.782,0,0,0,.483,1.262,1.724,1.724,0,0,0,2.6-.149,3.066,3.066,0,0,0,.5-1.858,2.418,2.418,0,0,0-.463-1.57,1.533,1.533,0,0,0-1.254-.568,1.7,1.7,0,0,0-1.348.583A2.145,2.145,0,0,0,429.935,85.328Z" fill="#1e1e1e"/>
      <path d="M388.324,101.815h-.961V98.37a2.6,2.6,0,0,0-.307-1.442,1.166,1.166,0,0,0-1.034-.445,1.28,1.28,0,0,0-1.046.563,2.152,2.152,0,0,0-.431,1.347v3.422h-.961V98.253q0-1.77-1.365-1.77a1.265,1.265,0,0,0-1.043.53,2.191,2.191,0,0,0-.41,1.38v3.422h-.961v-6h.961v.949h.023a2.04,2.04,0,0,1,1.863-1.09,1.733,1.733,0,0,1,1.7,1.243,2.14,2.14,0,0,1,1.992-1.243q1.98,0,1.98,2.444Z" fill="#1e1e1e"/>
      <path d="M394.963,99.055h-4.236a2.24,2.24,0,0,0,.539,1.547,1.858,1.858,0,0,0,1.418.545,2.952,2.952,0,0,0,1.863-.668v.9a3.482,3.482,0,0,1-2.092.575,2.535,2.535,0,0,1-2-.818,3.347,3.347,0,0,1-.727-2.3,3.283,3.283,0,0,1,.794-2.282,2.547,2.547,0,0,1,1.972-.882,2.254,2.254,0,0,1,1.822.762,3.175,3.175,0,0,1,.645,2.115Zm-.984-.814a1.954,1.954,0,0,0-.4-1.3,1.365,1.365,0,0,0-1.1-.463,1.554,1.554,0,0,0-1.155.486,2.217,2.217,0,0,0-.586,1.272Z" fill="#1e1e1e"/>
      <path d="M396.053,101.6v-1.031a2.839,2.839,0,0,0,1.728.58q1.266,0,1.266-.844a.733.733,0,0,0-.108-.407,1.1,1.1,0,0,0-.293-.3,2.264,2.264,0,0,0-.434-.231q-.249-.1-.536-.214a7.061,7.061,0,0,1-.7-.319,2.1,2.1,0,0,1-.5-.364,1.336,1.336,0,0,1-.305-.46,1.634,1.634,0,0,1-.1-.6,1.434,1.434,0,0,1,.194-.747,1.716,1.716,0,0,1,.515-.545,2.386,2.386,0,0,1,.736-.331,3.265,3.265,0,0,1,.852-.112,3.437,3.437,0,0,1,1.395.27v.973a2.72,2.72,0,0,0-1.524-.434,1.784,1.784,0,0,0-.486.062,1.2,1.2,0,0,0-.372.172.8.8,0,0,0-.24.267.7.7,0,0,0-.085.343.815.815,0,0,0,.085.392.847.847,0,0,0,.249.282,1.879,1.879,0,0,0,.4.222c.157.067.334.139.533.217a7.352,7.352,0,0,1,.715.314,2.416,2.416,0,0,1,.539.363,1.412,1.412,0,0,1,.343.466,1.5,1.5,0,0,1,.12.627,1.478,1.478,0,0,1-.2.773,1.693,1.693,0,0,1-.524.545,2.411,2.411,0,0,1-.756.322,3.7,3.7,0,0,1-.9.106A3.394,3.394,0,0,1,396.053,101.6Z" fill="#1e1e1e"/>
      <path d="M401.145,101.6v-1.031a2.839,2.839,0,0,0,1.728.58q1.266,0,1.266-.844a.725.725,0,0,0-.109-.407,1.083,1.083,0,0,0-.293-.3,2.225,2.225,0,0,0-.433-.231q-.249-.1-.536-.214a7.193,7.193,0,0,1-.7-.319,2.108,2.108,0,0,1-.5-.364,1.336,1.336,0,0,1-.305-.46,1.613,1.613,0,0,1-.1-.6,1.434,1.434,0,0,1,.194-.747,1.705,1.705,0,0,1,.515-.545,2.386,2.386,0,0,1,.736-.331,3.265,3.265,0,0,1,.852-.112,3.437,3.437,0,0,1,1.4.27v.973a2.722,2.722,0,0,0-1.524-.434,1.779,1.779,0,0,0-.486.062,1.183,1.183,0,0,0-.372.172.79.79,0,0,0-.24.267.7.7,0,0,0-.085.343.815.815,0,0,0,.085.392.847.847,0,0,0,.249.282,1.879,1.879,0,0,0,.4.222q.234.1.533.217a7.352,7.352,0,0,1,.715.314,2.416,2.416,0,0,1,.539.363,1.412,1.412,0,0,1,.343.466,1.5,1.5,0,0,1,.12.627,1.478,1.478,0,0,1-.2.773,1.685,1.685,0,0,1-.525.545,2.4,2.4,0,0,1-.755.322,3.7,3.7,0,0,1-.9.106A3.394,3.394,0,0,1,401.145,101.6Z" fill="#1e1e1e"/>
      <path d="M410.9,101.815h-.961v-.937h-.024a2.013,2.013,0,0,1-1.846,1.078,1.975,1.975,0,0,1-1.4-.475,1.643,1.643,0,0,1-.507-1.26q0-1.682,1.981-1.957l1.8-.252q0-1.529-1.237-1.529a2.955,2.955,0,0,0-1.957.738v-.984a3.72,3.72,0,0,1,2.039-.563q2.115,0,2.116,2.239Zm-.961-3.035-1.448.2a2.354,2.354,0,0,0-1.007.331.954.954,0,0,0-.34.841.916.916,0,0,0,.313.718,1.213,1.213,0,0,0,.835.278,1.543,1.543,0,0,0,1.181-.5,1.792,1.792,0,0,0,.466-1.268Z" fill="#1e1e1e"/>
      <path d="M417.826,101.335q0,3.3-3.164,3.3a4.239,4.239,0,0,1-1.945-.422v-.961a4,4,0,0,0,1.933.563q2.216,0,2.215-2.356v-.656h-.023a2.427,2.427,0,0,1-3.864.349,3.193,3.193,0,0,1-.683-2.148,3.735,3.735,0,0,1,.735-2.431,2.457,2.457,0,0,1,2.013-.9,1.957,1.957,0,0,1,1.8.973h.023v-.832h.961Zm-.961-2.233v-.885a1.717,1.717,0,0,0-.483-1.224,1.591,1.591,0,0,0-1.2-.51,1.671,1.671,0,0,0-1.395.647,2.893,2.893,0,0,0-.5,1.814,2.474,2.474,0,0,0,.484,1.6,1.56,1.56,0,0,0,1.28.6,1.67,1.67,0,0,0,1.315-.574A2.14,2.14,0,0,0,416.865,99.1Z" fill="#1e1e1e"/>
      <path d="M424.594,99.055h-4.237a2.245,2.245,0,0,0,.54,1.547,1.857,1.857,0,0,0,1.417.545,2.953,2.953,0,0,0,1.864-.668v.9a3.484,3.484,0,0,1-2.092.575,2.535,2.535,0,0,1-2-.818,3.347,3.347,0,0,1-.727-2.3,3.283,3.283,0,0,1,.794-2.282,2.547,2.547,0,0,1,1.972-.882,2.254,2.254,0,0,1,1.822.762,3.175,3.175,0,0,1,.645,2.115Zm-.985-.814a1.954,1.954,0,0,0-.4-1.3,1.367,1.367,0,0,0-1.1-.463,1.553,1.553,0,0,0-1.154.486,2.21,2.21,0,0,0-.586,1.272Z" fill="#1e1e1e"/>
      <path d="M428.971,101.6v-1.031a2.839,2.839,0,0,0,1.728.58q1.266,0,1.266-.844a.725.725,0,0,0-.109-.407,1.079,1.079,0,0,0-.292-.3,2.264,2.264,0,0,0-.434-.231q-.249-.1-.536-.214a7.061,7.061,0,0,1-.7-.319,2.1,2.1,0,0,1-.5-.364,1.336,1.336,0,0,1-.305-.46,1.634,1.634,0,0,1-.1-.6,1.434,1.434,0,0,1,.194-.747,1.716,1.716,0,0,1,.515-.545,2.386,2.386,0,0,1,.736-.331,3.265,3.265,0,0,1,.852-.112,3.437,3.437,0,0,1,1.395.27v.973a2.72,2.72,0,0,0-1.524-.434,1.784,1.784,0,0,0-.486.062,1.2,1.2,0,0,0-.372.172.8.8,0,0,0-.24.267.7.7,0,0,0-.085.343.815.815,0,0,0,.085.392A.847.847,0,0,0,430.3,98a1.879,1.879,0,0,0,.4.222q.234.1.533.217a7.352,7.352,0,0,1,.715.314,2.416,2.416,0,0,1,.539.363,1.412,1.412,0,0,1,.343.466,1.5,1.5,0,0,1,.12.627,1.478,1.478,0,0,1-.2.773,1.693,1.693,0,0,1-.524.545,2.411,2.411,0,0,1-.756.322,3.7,3.7,0,0,1-.9.106A3.394,3.394,0,0,1,428.971,101.6Z" fill="#1e1e1e"/>
      <path d="M434.918,94.292a.608.608,0,0,1-.439-.176.59.59,0,0,1-.182-.445.615.615,0,0,1,.621-.627.619.619,0,0,1,.448.178.625.625,0,0,1,0,.888A.615.615,0,0,1,434.918,94.292Zm.469,7.523h-.961v-6h.961Z" fill="#1e1e1e"/>
      <path d="M442.313,101.815h-.961V98.393q0-1.909-1.395-1.91a1.513,1.513,0,0,0-1.192.542,2.005,2.005,0,0,0-.472,1.368v3.422h-.961v-6h.961v1h.023a2.167,2.167,0,0,1,1.969-1.137,1.836,1.836,0,0,1,1.506.636,2.83,2.83,0,0,1,.522,1.837Z" fill="#1e1e1e"/>
      <path d="M449.1,101.815h-1.348l-2.649-2.883h-.023v2.883h-.961V92.932h.961v5.631h.023l2.52-2.748h1.26L446.1,98.71Z" fill="#1e1e1e"/>
    </g>
    <g>
      <path d="M79.285,14.471H77.393v-8.4h1.892Z" fill="#1e1e1e"/>
      <path d="M83.873,14.617a3.222,3.222,0,0,1-2.358-.841,3.044,3.044,0,0,1-.859-2.282,3.048,3.048,0,0,1,.891-2.329,3.367,3.367,0,0,1,2.408-.841,3.19,3.19,0,0,1,2.344.841,2.991,2.991,0,0,1,.849,2.224,3.172,3.172,0,0,1-.876,2.361A3.258,3.258,0,0,1,83.873,14.617Zm.047-4.875a1.238,1.238,0,0,0-1.02.451,1.993,1.993,0,0,0-.363,1.278q0,1.728,1.395,1.728,1.329,0,1.33-1.775Q85.262,9.743,83.92,9.742Z" fill="#1e1e1e"/>
      <path d="M94.432,7.609h-2.4v6.862h-1.9V7.609H87.752V6.068h6.68Z" fill="#1e1e1e"/>
      <path d="M103.912,14.471H98.873v-8.4h4.846V7.609h-2.953v1.87h2.748v1.535h-2.748v1.922h3.146Z" fill="#1e1e1e"/>
      <path d="M110.949,14.471H109.1v-.826h-.024a2.076,2.076,0,0,1-1.857.972,2.274,2.274,0,0,1-1.811-.794,3.284,3.284,0,0,1-.685-2.217,3.575,3.575,0,0,1,.756-2.385,2.463,2.463,0,0,1,1.98-.9,1.685,1.685,0,0,1,1.617.832h.024V5.588h1.851Zm-1.816-2.918V11.1a1.418,1.418,0,0,0-.34-.973,1.2,1.2,0,0,0-1.846.1,2.246,2.246,0,0,0-.345,1.327,1.943,1.943,0,0,0,.334,1.219,1.186,1.186,0,0,0,1.842-.024A1.876,1.876,0,0,0,109.133,11.553Z" fill="#1e1e1e"/>
      <path d="M118.391,13.785a3.4,3.4,0,0,1-.967,2.587,3.916,3.916,0,0,1-2.8.917,4.432,4.432,0,0,1-1.922-.346V15.385a3.683,3.683,0,0,0,1.869.539,2.012,2.012,0,0,0,1.453-.495,1.776,1.776,0,0,0,.516-1.345v-.475h-.023a2.068,2.068,0,0,1-1.869,1.008,2.249,2.249,0,0,1-1.823-.808,3.281,3.281,0,0,1-.674-2.168,3.651,3.651,0,0,1,.75-2.42,2.449,2.449,0,0,1,1.975-.9,1.825,1.825,0,0,1,1.641.844h.023v-.7h1.852Zm-1.828-2.2v-.475a1.458,1.458,0,0,0-.337-.969,1.09,1.09,0,0,0-.876-.4,1.13,1.13,0,0,0-.967.481,2.253,2.253,0,0,0-.352,1.353,1.913,1.913,0,0,0,.334,1.187,1.089,1.089,0,0,0,.914.436,1.132,1.132,0,0,0,.929-.442A1.817,1.817,0,0,0,116.563,11.588Z" fill="#1e1e1e"/>
      <path d="M125.328,12h-3.914q.094,1.307,1.647,1.307a3.21,3.21,0,0,0,1.74-.469v1.336a4.573,4.573,0,0,1-2.162.445,3.043,3.043,0,0,1-2.256-.805,3.044,3.044,0,0,1-.8-2.247,3.212,3.212,0,0,1,.867-2.368,2.889,2.889,0,0,1,2.133-.873,2.62,2.62,0,0,1,2.03.78,3,3,0,0,1,.718,2.115Zm-1.717-1.137q0-1.288-1.043-1.289a.994.994,0,0,0-.77.37,1.673,1.673,0,0,0-.4.919Z" fill="#1e1e1e"/>
      <path d="M135.611,14.471H133.76v-.826h-.024a2.076,2.076,0,0,1-1.857.972,2.274,2.274,0,0,1-1.811-.794,3.284,3.284,0,0,1-.685-2.217,3.575,3.575,0,0,1,.756-2.385,2.465,2.465,0,0,1,1.98-.9,1.684,1.684,0,0,1,1.617.832h.024V5.588h1.851Zm-1.816-2.918V11.1a1.418,1.418,0,0,0-.34-.973,1.2,1.2,0,0,0-1.846.1,2.246,2.246,0,0,0-.345,1.327,1.943,1.943,0,0,0,.334,1.219,1.186,1.186,0,0,0,1.842-.024A1.876,1.876,0,0,0,133.795,11.553Z" fill="#1e1e1e"/>
      <path d="M142.561,12h-3.914q.093,1.307,1.646,1.307a3.21,3.21,0,0,0,1.74-.469v1.336a4.567,4.567,0,0,1-2.162.445,3.043,3.043,0,0,1-2.256-.805,3.044,3.044,0,0,1-.8-2.247A3.212,3.212,0,0,1,137.68,9.2a2.889,2.889,0,0,1,2.133-.873,2.621,2.621,0,0,1,2.03.78,3,3,0,0,1,.718,2.115Zm-1.717-1.137q0-1.288-1.043-1.289a1,1,0,0,0-.771.37,1.679,1.679,0,0,0-.4.919Z" fill="#1e1e1e"/>
      <path d="M149.375,8.471l-2.232,6h-2.11l-2.127-6h1.981l1.043,3.7a5.457,5.457,0,0,1,.2,1.066h.023a6.14,6.14,0,0,1,.217-1.031l1.066-3.732Z" fill="#1e1e1e"/>
      <path d="M151.1,7.522a1.08,1.08,0,0,1-.768-.279.9.9,0,0,1-.3-.682.866.866,0,0,1,.3-.68,1.252,1.252,0,0,1,1.538,0,.87.87,0,0,1,.3.68.894.894,0,0,1-.3.691A1.1,1.1,0,0,1,151.1,7.522Zm.914,6.949h-1.852v-6h1.852Z" fill="#1e1e1e"/>
      <path d="M158.123,14.254a3.661,3.661,0,0,1-1.81.363,3.063,3.063,0,0,1-2.239-.838,2.893,2.893,0,0,1-.855-2.162,3.186,3.186,0,0,1,.917-2.411,3.387,3.387,0,0,1,2.452-.882,3.138,3.138,0,0,1,1.535.282v1.57a2.111,2.111,0,0,0-1.295-.434,1.71,1.71,0,0,0-1.263.466,1.74,1.74,0,0,0-.465,1.286,1.708,1.708,0,0,0,.445,1.251,1.636,1.636,0,0,0,1.225.454,2.443,2.443,0,0,0,1.353-.433Z" fill="#1e1e1e"/>
      <path d="M164.727,12h-3.914q.093,1.307,1.646,1.307a3.21,3.21,0,0,0,1.74-.469v1.336a4.567,4.567,0,0,1-2.162.445,3.043,3.043,0,0,1-2.256-.805,3.044,3.044,0,0,1-.8-2.247,3.212,3.212,0,0,1,.867-2.368,2.889,2.889,0,0,1,2.133-.873,2.621,2.621,0,0,1,2.03.78,3,3,0,0,1,.718,2.115Zm-1.717-1.137q0-1.288-1.043-1.289a1,1,0,0,0-.771.37,1.679,1.679,0,0,0-.4.919Z" fill="#1e1e1e"/>
    </g>
    <g>
      <path d="M110.053,41.377h-1.869V36.349q0-.815.07-1.8h-.047a8.765,8.765,0,0,1-.264,1.114l-1.968,5.713h-1.547l-2-5.655a10.84,10.84,0,0,1-.264-1.172h-.053q.077,1.243.077,2.18v4.647h-1.7v-8.4h2.771l1.717,4.981a7.029,7.029,0,0,1,.3,1.2h.035a12.03,12.03,0,0,1,.334-1.213l1.717-4.969h2.7Z" fill="#1e1e1e"/>
      <path d="M117.172,38.9h-3.914q.093,1.306,1.646,1.307a3.222,3.222,0,0,0,1.741-.469v1.336a4.574,4.574,0,0,1-2.163.445,2.793,2.793,0,0,1-3.058-3.053,3.211,3.211,0,0,1,.867-2.367,2.889,2.889,0,0,1,2.133-.873,2.623,2.623,0,0,1,2.03.779,3,3,0,0,1,.718,2.116Zm-1.717-1.137q0-1.289-1.043-1.289a.994.994,0,0,0-.77.369,1.676,1.676,0,0,0-.4.92Z" fill="#1e1e1e"/>
      <path d="M124.145,41.377h-1.852V40.55h-.023a2.076,2.076,0,0,1-1.858.973,2.275,2.275,0,0,1-1.81-.794,3.286,3.286,0,0,1-.686-2.218,3.574,3.574,0,0,1,.756-2.384,2.465,2.465,0,0,1,1.98-.9,1.685,1.685,0,0,1,1.618.832h.023V32.494h1.852Zm-1.817-2.918v-.452a1.417,1.417,0,0,0-.34-.972,1.2,1.2,0,0,0-1.845.1,2.244,2.244,0,0,0-.346,1.328,1.938,1.938,0,0,0,.334,1.218,1.186,1.186,0,0,0,1.843-.023A1.882,1.882,0,0,0,122.328,38.459Z" fill="#1e1e1e"/>
      <path d="M126.641,34.427a1.079,1.079,0,0,1-.768-.278.9.9,0,0,1-.3-.683.865.865,0,0,1,.3-.679,1.252,1.252,0,0,1,1.538,0,.869.869,0,0,1,.3.679.9.9,0,0,1-.3.692A1.1,1.1,0,0,1,126.641,34.427Zm.914,6.95H125.7v-6h1.852Z" fill="#1e1e1e"/>
      <path d="M134.1,41.377h-1.751v-.862h-.024a1.955,1.955,0,0,1-1.787,1.008,1.87,1.87,0,0,1-1.374-.5,1.774,1.774,0,0,1-.5-1.321q0-1.746,2.068-2.016l1.629-.217q0-.984-1.066-.984a3.637,3.637,0,0,0-2.039.639V35.734a4.6,4.6,0,0,1,1.057-.352,5.6,5.6,0,0,1,1.222-.152,2.266,2.266,0,0,1,2.566,2.561Zm-1.74-2.438v-.4l-1.09.14q-.9.118-.9.815a.669.669,0,0,0,.22.518.844.844,0,0,0,.595.2,1.1,1.1,0,0,0,.849-.361A1.3,1.3,0,0,0,132.365,38.939Z" fill="#1e1e1e"/>
      <path d="M145.959,40.814a6.044,6.044,0,0,1-3.059.709,4.423,4.423,0,0,1-3.2-1.122,4.083,4.083,0,0,1-1.169-3.091,4.313,4.313,0,0,1,1.278-3.228,4.652,4.652,0,0,1,3.4-1.248,6.9,6.9,0,0,1,2.355.369v1.775a4.678,4.678,0,0,0-2.378-.562,2.555,2.555,0,0,0-1.919.764,3.263,3.263,0,0,0-.077,4.046,2.344,2.344,0,0,0,1.8.709,2.5,2.5,0,0,0,1.078-.193V38.1h-1.681V36.589h3.574Z" fill="#1e1e1e"/>
      <path d="M151.326,37.046a1.6,1.6,0,0,0-.779-.181,1.121,1.121,0,0,0-.943.442,1.929,1.929,0,0,0-.34,1.2v2.866h-1.852v-6h1.852V36.49h.023a1.6,1.6,0,0,1,1.582-1.219,1.21,1.21,0,0,1,.457.07Z" fill="#1e1e1e"/>
      <path d="M157.18,41.377h-1.752v-.862H155.4a1.955,1.955,0,0,1-1.787,1.008,1.87,1.87,0,0,1-1.374-.5,1.774,1.774,0,0,1-.5-1.321q0-1.746,2.069-2.016l1.628-.217q0-.984-1.066-.984a3.639,3.639,0,0,0-2.039.639V35.734a4.592,4.592,0,0,1,1.058-.352,5.585,5.585,0,0,1,1.221-.152,2.267,2.267,0,0,1,2.567,2.561Zm-1.741-2.438v-.4l-1.089.14q-.9.118-.9.815a.673.673,0,0,0,.22.518.845.845,0,0,0,.595.2,1.1,1.1,0,0,0,.849-.361A1.3,1.3,0,0,0,155.439,38.939Z" fill="#1e1e1e"/>
      <path d="M160.52,40.679H160.5v3.457h-1.851V35.377H160.5v.9h.024a2.355,2.355,0,0,1,3.729-.249,3.4,3.4,0,0,1,.636,2.177,3.692,3.692,0,0,1-.741,2.408,2.42,2.42,0,0,1-1.972.908A1.865,1.865,0,0,1,160.52,40.679Zm-.053-2.461V38.7a1.528,1.528,0,0,0,.328,1.014,1.07,1.07,0,0,0,.861.392,1.137,1.137,0,0,0,.982-.489,2.365,2.365,0,0,0,.348-1.386q0-1.583-1.23-1.582a1.156,1.156,0,0,0-.929.431A1.718,1.718,0,0,0,160.467,38.218Z" fill="#1e1e1e"/>
      <path d="M171.846,41.377H170V37.966q0-1.317-.961-1.318a.984.984,0,0,0-.8.369,1.425,1.425,0,0,0-.3.938v3.422h-1.852V32.494h1.852v3.773h.023a2.1,2.1,0,0,1,1.846-1.037q2.039,0,2.039,2.461Z" fill="#1e1e1e"/>
    </g>
  </g>
</svg>
