<svg id="ICONS-64x" xmlns="http://www.w3.org/2000/svg" viewBox="0 0 64 64">
  <defs>
    <style>
      .cls-1 {
        fill: #fff;
      }

      .cls-2 {
        fill: none;
        stroke: #556a8a;
        stroke-miterlimit: 10;
        stroke-width: 2px;
      }

      .cls-3 {
        fill: #2bc7f4;
      }

      .cls-4 {
        fill: #e5e5e5;
      }

      .cls-5 {
        fill: #556a8a;
      }
    </style>
  </defs>
  <title>i_CLIgeneric</title>
  <path class="cls-1" d="M63,11.84V56H1V11.84A3.87,3.87,0,0,1,4.88,8H59.13A3.87,3.87,0,0,1,63,11.84Z"/>
  <path class="cls-2" d="M63,11.84V56H1V11.84A3.87,3.87,0,0,1,4.88,8H59.13A3.87,3.87,0,0,1,63,11.84Z"/>
  <circle class="cls-3" cx="6" cy="12" r="1.5"/>
  <circle class="cls-3" cx="11" cy="12" r="1.5"/>
  <circle class="cls-3" cx="16" cy="12" r="1.5"/>
  <polygon class="cls-4" points="62 17 62 48 31 17 62 17"/>
  <line class="cls-2" x1="2" y1="17" x2="62" y2="17"/>
  <g>
    <path class="cls-5" d="M9.65,31.78v1.59h-.9V31.84a5,5,0,0,1-2.64-.63V29.57a3.63,3.63,0,0,0,1.21.65,4.41,4.41,0,0,0,1.43.26V27.23a6.14,6.14,0,0,1-2.24-1.47A2.57,2.57,0,0,1,6,24.16a2.61,2.61,0,0,1,.78-1.89,3.28,3.28,0,0,1,2-1V20h.9v1.29a4.58,4.58,0,0,1,2.12.41v1.57a3.73,3.73,0,0,0-2.12-.63V26a6.55,6.55,0,0,1,2.2,1.45,2.5,2.5,0,0,1-.15,3.39A3.62,3.62,0,0,1,9.65,31.78Zm-.9-6.18V22.67a1.53,1.53,0,0,0-.87.47,1.26,1.26,0,0,0-.32.87,1.42,1.42,0,0,0,.26.89A2.84,2.84,0,0,0,8.75,25.6Zm.9,2v2.82q1.25-.26,1.25-1.3Q10.89,28.28,9.65,27.63Z"/>
    <path class="cls-5" d="M19.5,33H13.27v-.87H19.5Z"/>
  </g>
</svg>
