<svg xmlns="http://www.w3.org/2000/svg" viewBox="0 0 257.03 223.19"><title>ruby icon final</title><g id="Layer_2" data-name="Layer 2"><g id="Layer_1-2" data-name="Layer 1"><path d="M147.93,0h.8a2,2,0,0,0,1.61,0h8c.22.22.5.11.75.14s.43,0,.59-.14h1.07c.27.25.63.06.92.21a15.48,15.48,0,0,0,1.8.07c5.71.68,11.13,2.22,15.86,5.62,6.29,4.51,8.71,10.76,7.88,18.33s-4.33,13.82-8.41,19.91a88,88,0,0,1-11,13.12,149.26,149.26,0,0,1-19.67,16.52,196.67,196.67,0,0,1-28.27,16.6,168.23,168.23,0,0,1-45.68,14.9,91.51,91.51,0,0,1-19.48,1.16C47.8,106.1,41,104.82,35.08,101a18.5,18.5,0,0,1-8.94-14.35c-.51-5.25.93-10.06,2.93-14.79.75-1.77,1.7-3.44,2.58-5.14A85.14,85.14,0,0,1,41.3,53.56,120.53,120.53,0,0,1,52.14,42.84,165.54,165.54,0,0,1,71.68,28.1,194.07,194.07,0,0,1,99.35,13.17a181.2,181.2,0,0,1,19.78-7.46,149.19,149.19,0,0,1,17.8-4.4C140.56.59,144.26.37,147.93,0Z" fill="#eb1622"/><path d="M.53,142.84a133.29,133.29,0,0,1,2.7-13.27c.13-.51.32-1,.48-1.51a12.37,12.37,0,0,1,1.46-1.7c3.84-3.83,7.63-7.72,11.53-11.49,2.1-2,4.28-4,6.34-6.1.34-.33.67-.75,1.26-.58.49.45.17.92,0,1.35-2.8,7-5.5,14-8.26,21-2.59,6.55-5.14,13.12-7.7,19.69-1.55,3.94-3,7.91-4.69,11.81-.19.46-.25,1.09-1,1.11a17.92,17.92,0,0,1-2.2-6.39c-.08-.39.1-.93-.49-1.11v-2.14a2.76,2.76,0,0,0,0-1.88v-1.34a3.4,3.4,0,0,0,0-2.14V145a.22.22,0,0,0,.29-.23C.6,144.14.21,143.44.53,142.84Z" fill="#920f17"/><path d="M0,151.68a1.53,1.53,0,0,1,0,1.88Z" fill="#a02c33"/><path d="M187.8,221.92c-5.7-1.29-11.4-2.57-17.09-3.89L40.21,187.77c-2.61-.6-5.25-1.05-7.82-1.82-.63-.14-.8-.48-.48-1.06a8.19,8.19,0,0,0,.77-1.39,10.58,10.58,0,0,1,1.88-2.8,4.26,4.26,0,0,0,1.12-1.59,86.63,86.63,0,0,1,5.09-7.64c2.09-3.08,4.08-6.24,6.37-9.19a1.77,1.77,0,0,0,.61-.86,31.08,31.08,0,0,1,2.92-4.28A5.69,5.69,0,0,0,52,155.25a19.63,19.63,0,0,1,2.4-3.51A9.45,9.45,0,0,0,56,149.4a24.34,24.34,0,0,1,2.69-4.05,4.06,4.06,0,0,0,1.34-1.87A120.91,120.91,0,0,1,67,133.3a3.56,3.56,0,0,0,1.1-1.62,64.91,64.91,0,0,1,4.16-6.23c2.06-3,4-6.13,6.25-9a3.57,3.57,0,0,0,1.11-1.6,11.58,11.58,0,0,1,2-2.78,1.46,1.46,0,0,1,1-.35,1,1,0,0,1,.32.3,57.18,57.18,0,0,1,1.59,8c1.5,8.67,3.21,17.29,4.73,26,2.06,11.78,4.27,23.54,6.37,35.32.19,1.06.08,2.3,1.32,2.9-.08.85.64.82,1.14,1,6.2,2.52,12.45,4.94,18.67,7.41,19.45,7.74,38.94,15.39,58.38,23.14,4.11,1.63,8.21,3.29,12.33,4.88.61.24,1.27.44,1.58,1.13C188.64,222.21,188.21,222,187.8,221.92Z" fill="#980e16"/><path d="M193.26,222.52l-.09.41c-.76.11-1-.52-1.28-1-3.85-6.17-7.74-12.32-11.59-18.49q-8.66-13.86-17.35-27.69c-2.32-3.71-4.62-7.43-7-11.13a2.59,2.59,0,0,1-.47-1.09,1,1,0,0,1,.07-.39c1.65-1.49,3.72-2.27,5.59-3.37,6.35-3.72,12.66-7.5,18.78-11.59,6.46-4.31,12.76-8.82,18.88-13.6q3.74-2.93,7.42-5.92c.38-.3.78-1.09,1.4-.24a7.87,7.87,0,0,1-.23,3.31q-5.91,38.61-11.77,77.21C195,213.49,194.55,218.09,193.26,222.52Z" fill="#980e16"/><path d="M155.66,163.45l16.25,26q10,16,20,32c.34.55.57,1.22,1.24,1.53-.77.63-1.42-.05-2.12-.18,0-.14.17-.16.28-.22a.57.57,0,0,1-.29,0c-.2-.06-.42-.06-.63-.11-.48-.29-1.14-.2-1.5-.72q-9.74-3.9-19.46-7.78l-63.67-25.21c-3.14-1.24-6.28-2.5-9.52-3.79l.77-.5a3.07,3.07,0,0,1,1.71-.66c7.62-1.89,15.19-3.94,22.64-6.44a235.5,235.5,0,0,0,31.84-13.22,7,7,0,0,1,1.84-.8A.82.82,0,0,1,155.66,163.45Z" fill="#f26662"/><path d="M256.76,54.51a55.81,55.81,0,0,1-3.56,15.72c-1.26,3.49-2.9,6.8-4.44,10.17a72.38,72.38,0,0,1-6.31,10.75c-.32.47-.56,1-1.19,1.19a1.65,1.65,0,0,1-1.07-.48,58.07,58.07,0,0,1-3.78-5.35c-11.48-17.26-23.1-34.41-34.58-51.67-1.86-2.78-3.76-5.54-5.62-8.33a3.33,3.33,0,0,1-.79-1.67c.24-.93.81-.45,1.25-.26,2.66,1.15,5.27,2.41,7.89,3.65,4.75,2.25,9.53,4.45,14.29,6.69,10,4.67,20,9.3,29.9,14,2.25,1.07,4.52,2.12,6.79,3.15C256.68,52.63,257.13,53.31,256.76,54.51Z" fill="#920f17"/><path d="M241.2,92.2a78.78,78.78,0,0,0,5.6-8.53,20.82,20.82,0,0,1,2-3.27c-1.74,4.54-3.45,9.08-5.22,13.61q-24.85,63.66-49.72,127.31c-.16.41-.37.8-.56,1.2.48-3.24,1-6.49,1.43-9.74q1.14-7.64,2.29-15.28c.64-4.25,1.32-8.51,2-12.76.78-5.14,1.54-10.28,2.32-15.41q1.09-7.25,2.2-14.49c.77-5,1.56-10.09,2.34-15.13.52-3.33,1.05-6.66,1.55-10,.08-.53,0-1.07.08-1.6l0-.19a13.23,13.23,0,0,1,2.75-2.69c5.38-4.68,10.6-9.53,15.5-14.7a172.26,172.26,0,0,0,14.48-17.3C240.48,92.84,240.7,92.38,241.2,92.2Z" fill="#eb1622"/><path d="M2.69,163.2a67,67,0,0,0,3.14-7.47c1.94-4.76,3.76-9.57,5.62-14.35,1.44-3.69,2.86-7.38,4.31-11.06,2.12-5.35,4.34-10.66,6.34-16,.67-1.78,1.4-3.55,2.09-5.33.1-.27.2-.49-.1-.68.07-.63.38-.81.94-.5a49,49,0,0,1,.6,5.79,2.13,2.13,0,0,1,.1.42c.17,1,0,2,.18,2.91a3.06,3.06,0,0,1,.1.41,16.67,16.67,0,0,0,.23,2.73,3.58,3.58,0,0,1,.09.45c.62,8.91,1.57,17.8,2.31,26.7a3.58,3.58,0,0,1,.09.45,19.74,19.74,0,0,0,.17,2.87,2.05,2.05,0,0,1,.09.43,14.64,14.64,0,0,0,.19,2.56,2.31,2.31,0,0,1,.08.43,11.14,11.14,0,0,0,.23,2.64,2.54,2.54,0,0,1,.07.47c.23,4.08.67,8.13,1,12.19.2,2.26.44,4.51.59,6.77.17,2.66.54,5.3.68,8,0,.72.43,1.77-1,1.57-10-3.08-18.64-8.18-24.89-16.81A25.06,25.06,0,0,1,2.69,163.2Z" fill="#980e16"/><path d="M256.76,54.51c.11-1.06-.31-1.58-1.36-2.07-6.4-2.94-12.72-6-19.1-9C231.16,41,226,38.69,220.81,36.29c-3.94-1.83-7.85-3.75-11.79-5.61-4.28-2-8.57-4-12.85-6-.3-.14-.51-.15-.54.26-.6-.09-.47-.47-.35-.86a2.83,2.83,0,0,1,1.69-.72c11-2.29,21.89-4.77,32.85-7.07a7.13,7.13,0,0,1,2.25-.19,50.58,50.58,0,0,1,16.74,11.06c5.17,5.08,7.16,11.49,7.92,18.44A34.67,34.67,0,0,1,256.76,54.51Z" fill="#980e16"/><path d="M232.07,16.08C228,17,224,17.89,220,18.77l-23.48,5.08c-.39.08-.78.2-1.16.31-.19.15,0,.71-.55.47.28-.71-.2-1.18-.54-1.69l-14-21.21c-.25-.39-.67-.72-.62-1.33a34.74,34.74,0,0,1,6.83,1c5.2,2,10.56,3.49,15.9,5.05,9.18,2.68,18.45,5.11,27.39,8.58C230.57,15.33,231.31,15.73,232.07,16.08Z" fill="#f26662"/><path d="M30.83,185.5c.65,0,.81-.33.75-.94q-1-11.16-2-22.33c-.16-1.82-.23-3.64-.34-5.47.68,0,.6.58.63,1,.39,4.08.72,8.16,1.13,12.23.13,1.36.32,2.72.58,4.07s0,2.72.2,4.08a3.79,3.79,0,0,0,.4,1.66,1.58,1.58,0,0,1,.19,1.41,2,2,0,0,0,.64,2.39,2.4,2.4,0,0,1-.75,1.35c-.41.49-.19.74.18,1A2.55,2.55,0,0,1,30.83,185.5Z" fill="#f26662"/><path d="M188.91,221.66a4.68,4.68,0,0,1,1.63.5c0,.54-.3.39-.59.3a6.13,6.13,0,0,1-2.15-.54C188.16,221.8,188.61,222,188.91,221.66Z" fill="#ab272d"/><path d="M190,222.46c.22-.06.46-.05.59-.3.33.05.67.09.85.42l-.34.17A1.88,1.88,0,0,1,190,222.46Z" fill="#be4346"/><path d="M33,183.57a1.41,1.41,0,0,1-1.14-2.14c.34-.64.51-1.14-.16-1.61a.91.91,0,0,1-.3-.84,23.78,23.78,0,0,1-.19-2.57c.21-2.23-.61-4.31-.63-6.48s-.38-4.51-.59-6.76a30.18,30.18,0,0,0-.76-6.41.26.26,0,0,1,0-.21c-.32-.88.12-1.85-.26-2.73a.28.28,0,0,1,0-.22c-.33-.89.12-1.85-.26-2.73a.28.28,0,0,1,0-.22c-.35-1,.14-2-.27-3a.26.26,0,0,1,0-.21.6.6,0,0,1-.11-.38c.37-1.85-.62-3.69-.05-5.57.18-.61-.62-1.14-.5-1.88.31-2-.41-3.94-.47-5.9-.07-2.16-.42-4.29-.6-6.43-.21-2.41-.42-4.82-.69-7.22v0c-.35-1,.14-2-.27-3v0c-.37-1.06.15-2.19-.28-3.23h0c-.09-1.65-.32-3.3-.4-5,0-.41.24-.88-.23-1.21a.75.75,0,0,0-.73.51c-2.73,2.62-5.47,5.22-8.17,7.86-3.75,3.68-7.47,7.4-11.2,11.1-.31.3-.68.56-1,.84a109.42,109.42,0,0,1,3.57-12c3.25-9.83,7-19.48,10.87-29.09,1.26-3.16,3.26-5.93,4.93-8.88.67,0,.44.57.46.91q.42,9.69.83,19.38c.11,2.68.25,5.35.3,8,0,.86.32,1.09,1.16,1.18,2.83.28,5.69.21,8.51.7-.66.64-1.54.18-2.47.51a2.76,2.76,0,0,0,2.46-.52,14.69,14.69,0,0,1,3.8.26c-.61.63-1.42.26-2.12.44a3,3,0,0,0,2.32-.44,14.85,14.85,0,0,1,3.82.27c-.63.62-1.51-.21-2,.4a2.19,2.19,0,0,1,1.77,0,1.81,1.81,0,0,0,1.3.2c1.1-.35,2.16.07,3.18.07,1.55,0,3,.42,4.5.45,1,0,1.9-.25,2.82.27a1.32,1.32,0,0,0,1.05,0,3.26,3.26,0,0,1,2.58.19.59.59,0,0,0,.25.07c3.24-.4,6.38.92,9.4.6-2.09-.47-4.46-.38-6.79-.66a19,19,0,0,0-5.23-.27,2.73,2.73,0,0,1-1.33-.11,4.08,4.08,0,0,0-2.47-.18c-.41.11-1,.13-1.08-.59,5.12.31,10.25.59,15.36.92s10,.68,15,1c.53,0,1,.14,1.58.21.17.36-.14.56-.27.81L79.88,115a6.72,6.72,0,0,0-1.09,1.61q-5.22,7.64-10.45,15.28a5.65,5.65,0,0,0-1.07,1.58l-7,10.21c-.38.68-1.32,1-1.33,1.88l-2.7,4c-.56.78-1.61,1.22-1.6,2.37l-2.42,3.52c-.86.33-1.08,1.11-1.32,1.87L48,161.6c-.32.17-.66.32-.55.79q-5.76,8.45-11.53,16.9c-.4.49-1,.83-1.06,1.58A17.38,17.38,0,0,0,33,183.57Z" fill="#f26662"/><path d="M155.66,163.45l-.47,0c-4.49-3.08-8.88-6.3-13.33-9.44q-14.33-10.12-28.6-20.3t-28.79-20.5a6.74,6.74,0,0,1-1.93-1.42l0-.13c-.08,0-.12-.07-.1-.13s0-.09.06-.09l77-36.94c.59-.29,1.22-.52,1.83-.78a.54.54,0,0,1,.53.81c-.81,1.58.14,3.16-.11,4.73,0,3.8-.45,7.57-.69,11.35-.2,3.06-.4,6.13-.63,9.2-.35,4.67-.65,9.34-1,14-.3,4.23-.63,8.45-.91,12.67q-.47,6.6-1,13.21c-.23,3.06-.47,6.13-.65,9.2-.24,4.32-.69,8.62-.85,12.94a10.82,10.82,0,0,1-.38,1.41Z" fill="#eb1622"/><path d="M194.78,24.63l.55-.47c0,.28,0,.58.3.76,2.68,4.41,5.73,8.58,8.58,12.88q7.9,11.89,15.86,23.76,8.48,12.64,17,25.28c1.09,1.62,2.22,3.21,3.34,4.82.17.29.55.56.34.94s-.64.21-1,.17a7.53,7.53,0,0,1-1-.22c-12.26-3.06-24.54-6-36.81-9.06-12.61-3.11-25.24-6.15-37.86-9.27a8.42,8.42,0,0,1-2-.64l-.14-.18Z" fill="#eb1622"/><path d="M50.11,109.3c.2.32.52.29.83.31,4.47.26,8.94.48,13.4.84,1.19.09,2.38.22,3.58.24.21,0,.49,0,.53.26s-.23.48-.5.5a14.08,14.08,0,0,1-2.51.06,20.65,20.65,0,0,0-3.84-.3,1.21,1.21,0,0,1-1-.29,1.17,1.17,0,0,0-1.76-.12,1.28,1.28,0,0,1-1.15.11c-1.22-.78-2.58,0-3.68-.34a9.39,9.39,0,0,0-3.9-.19,1.16,1.16,0,0,1-.85-.32,1.15,1.15,0,0,0-1.64-.15,1.35,1.35,0,0,1-1.91-.21,1.08,1.08,0,0,0-1.56-.12,1.59,1.59,0,0,1-1.26.28c-1.14-.27-2.24-.8-3.46-.28a.5.5,0,0,1-.69-.44c0-.44.45-.32.74-.33.89,0,1.78,0,2.67,0A64.1,64.1,0,0,1,50.11,109.3Z" fill="#f26662"/><path d="M38.33,108.5c-.48.73-2.52,1.18-3.15.68a.51.51,0,0,1-.2-.31c0-.29.26-.32.48-.33l2.67,0A.18.18,0,0,1,38.33,108.5Z" fill="#f26662"/><path d="M161.34,79.07c-.16-1.09.34-2.26-.46-3.29-.21-.26.16-.52.39-.73a.85.85,0,0,0,0-1.36l.53-.29.07.07a1.89,1.89,0,0,1,.29,1.39,20.54,20.54,0,0,0-.23,2.93C162,78.28,162.07,78.91,161.34,79.07Z" fill="#eb1622"/><path d="M82.48,111.41a.57.57,0,0,1,0,.22l-.78.64.27-.81Z" fill="#f26662"/><path d="M82.54,111.76c2.16.82,3.82,2.42,5.67,3.71,6.56,4.59,13.06,9.27,19.58,13.91l32.41,23,14.25,10.14c.32.23.71.39.74.87a235.08,235.08,0,0,1-42.39,16.94c-4.82,1.44-9.7,2.67-14.59,3.84-.39.09-.79.12-1.18.18-1,.21-1.41-.35-1.57-1.27q-1.48-8.56-3-17.13c-.47-2.62-1-5.23-1.46-7.84q-1.42-7.23-2.58-14.51c-.49-3.06-1.17-6.09-1.73-9.14-.86-4.7-1.68-9.41-2.53-14.11C83.63,117.5,83.08,114.63,82.54,111.76Z" fill="#920f17"/><path d="M54.66,151.91c-.64-1.58.79-1.76,1.6-2.37A7.51,7.51,0,0,1,54.66,151.91Z" fill="#f26662"/><path d="M50.92,157.3c-.18-1.06-.07-1.92,1.32-1.87A4.22,4.22,0,0,1,50.92,157.3Z" fill="#f26662"/><path d="M59,145.52c-.84-1.53.9-1.24,1.33-1.88A3.39,3.39,0,0,1,59,145.52Z" fill="#f26662"/><path d="M34.84,180.87c-.42-1.05.26-1.35,1.06-1.58A3.27,3.27,0,0,1,34.84,180.87Z" fill="#f26662"/><path d="M67.27,133.43c-.18-.89.48-1.21,1.07-1.58A2.72,2.72,0,0,1,67.27,133.43Z" fill="#f26662"/><path d="M78.79,116.57c-.07-.83.49-1.23,1.09-1.61A2.67,2.67,0,0,1,78.79,116.57Z" fill="#f26662"/><path d="M47.43,162.39c-.1-.46-.2-.92.55-.79A.79.79,0,0,1,47.43,162.39Z" fill="#f26662"/><path d="M161.34,79.07c.6-1.38-.05-2.91.52-4.3.33-.29-.06-.81.43-1.15A8.1,8.1,0,0,1,164,75.34c7.31,8.81,14.69,17.56,22.05,26.33,5.13,6.11,10.21,12.26,15.34,18.36,1.66,2,3.25,4,5,6,.51.58,1.37,1.09,1.05,2.12h0c-5.18,4.38-10.59,8.47-16,12.56-3.39,2.56-7,4.82-10.51,7.25-6.1,4.22-12.47,8-18.87,11.74-2.1,1.23-4.25,2.37-6.37,3.55a22.07,22.07,0,0,1,.08-4.45c.16-3,.53-6,.71-9,.3-4.88.63-9.76,1.06-14.63.26-3,.36-6,.58-9.06.32-4.38.7-8.77,1-13.15.21-2.93.36-5.86.57-8.79.33-4.74.79-9.48,1-14.23C160.9,86.27,161.42,82.69,161.34,79.07Z" fill="#920f17"/><path d="M207.43,128.11c-.53-1.53-1.82-2.49-2.79-3.68-4.82-5.91-9.72-11.76-14.62-17.6-4-4.73-8-9.4-12-14.13s-7.66-9.33-11.59-13.9A43.79,43.79,0,0,0,162.26,74c-.29.15,0,.67-.4.81,0-.43,0-.87,0-1.3a76.18,76.18,0,0,1,8.55,2q20.83,5.08,41.67,10.22Q225.72,89,239.32,92.3c.42.1,1.55.93,1.05-.64l.83.54a85.7,85.7,0,0,1-6.82,9,177,177,0,0,1-15,16C215.5,121,211.43,124.5,207.43,128.11Z" fill="#980e16"/><path d="M26,120.06c.67,1.09.19,2.33.5,3.49s-.14,2.75.42,3.79c.74,1.37-.67,3,.87,4.15.26.18-.05.55-.19.83a1.28,1.28,0,0,0,.21,1.79.77.77,0,0,1,.14,1.17,1.2,1.2,0,0,0,.2,1.85,1,1,0,0,1,.1,1.63,1.09,1.09,0,0,0,.06,1.73c.55.49.74,1,.11,1.57a.92.92,0,0,0-.22,1.11c1.11,1.39-.09,2.87.22,4.27a58.89,58.89,0,0,1-.75-7c-.58-5.85-1.07-11.7-1.58-17.56C26,121.94,26,121,26,120.06Z" fill="#f26662"/><path d="M24.82,107.75c.72,1.27.27,2.71.61,4a9.29,9.29,0,0,1,0,2.11A43.74,43.74,0,0,1,24.82,107.75Z" fill="#f26662"/><path d="M25.44,113.9c.6,1,.15,2.15.28,3.23A9.26,9.26,0,0,1,25.44,113.9Z" fill="#f26662"/><path d="M25.71,117.11c.6.94.15,2,.27,3A7.85,7.85,0,0,1,25.71,117.11Z" fill="#f26662"/><path d="M28.39,147.65c.58,1,.16,2,.27,3A8.36,8.36,0,0,1,28.39,147.65Z" fill="#f26662"/><path d="M28.93,153.82c.58.86.15,1.82.26,2.73A7,7,0,0,1,28.93,153.82Z" fill="#f26662"/><path d="M28.67,150.87c.57.86.15,1.82.26,2.73A6.82,6.82,0,0,1,28.67,150.87Z" fill="#f26662"/><path d="M70.46,112l-.87-.27c-.23-.07-.42-.2-.38-.46s.27-.34.51-.34c.58,0,1.16,0,1.74,0,.28,0,.72-.12.75.32s-.37.43-.68.49S70.84,111.93,70.46,112Z" fill="#f26662"/><path d="M34.33,108.24c-.53,1-2.32,1.41-3,.71a.46.46,0,0,1-.13-.34c0-.26.27-.33.5-.33l2.67,0Z" fill="#f26662"/><path d="M74.19,111.19c.45.14,1.26-.24,1.26.39s-.9.57-1.4.62-1.23-.06-1.18-.57C72.94,110.91,73.74,111.34,74.19,111.19Z" fill="#f26662"/><path d="M28.21,108.11c.58-.09,1-.3,1.39.13,0,.05-.07.34-.18.41C28.85,109,28.59,108.58,28.21,108.11Z" fill="#f26662"/><path d="M78.21,111.76c-.15.09-.24.2-.33.21s-.35-.07-.29-.28.2-.15.3-.15S78.07,111.65,78.21,111.76Z" fill="#f26662"/></g></g></svg>