<svg xmlns="http://www.w3.org/2000/svg" xmlns:xlink="http://www.w3.org/1999/xlink" viewBox="0 0 479.649 121.8">
  <defs>
    <linearGradient id="linear-gradient" x1="15" y1="453.2" x2="15" y2="483.2" gradientTransform="matrix(1, 0, 0, -1, 0, 483.2)" gradientUnits="userSpaceOnUse">
      <stop offset="0" stop-color="#0078d4"/>
      <stop offset="0.16" stop-color="#1380da"/>
      <stop offset="0.53" stop-color="#3c91e5"/>
      <stop offset="0.82" stop-color="#559cec"/>
      <stop offset="1" stop-color="#5ea0ef"/>
    </linearGradient>
    <radialGradient id="radial-gradient" cx="17286.516" cy="-3950.385" r="100.233" gradientTransform="matrix(0.15, 0, 0, -0.15, -2128.325, -577.59)" gradientUnits="userSpaceOnUse">
      <stop offset="0.18" stop-color="#5ea0ef"/>
      <stop offset="1" stop-color="#0078d4"/>
    </radialGradient>
    <linearGradient id="linear-gradient-2" x1="456.558" y1="463.847" x2="456.505" y2="470.829" gradientTransform="matrix(1, 0, 0, -1, 0, 483.2)" gradientUnits="userSpaceOnUse">
      <stop offset="0" stop-color="#ccc"/>
      <stop offset="0.12" stop-color="#d7d7d7"/>
      <stop offset="0.42" stop-color="#ebebeb"/>
      <stop offset="0.72" stop-color="#f8f8f8"/>
      <stop offset="1" stop-color="#fcfcfc"/>
    </linearGradient>
    <linearGradient id="linear-gradient-3" x1="466.684" y1="456.83" x2="466.684" y2="463.105" xlink:href="#linear-gradient-2"/>
    <linearGradient id="linear-gradient-4" x1="473.843" y1="464.43" x2="473.843" y2="471.094" xlink:href="#linear-gradient-2"/>
  </defs>
  <g id="Shapes">
    <rect width="479.649" height="121.8" fill="#fff"/>
    <g>
      <rect x="13.2" y="16.2" width="220" height="105.6" fill="#fff"/>
      <rect x="13.2" y="16.2" width="220" height="105.6" fill="#505050" opacity="0.14"/>
    </g>
    <path d="M10.5,21h9v9h-9ZM0,9H9V0H1.256A1.256,1.256,0,0,0,0,1.256ZM1.256,30H9V21H0v7.744A1.256,1.256,0,0,0,1.256,30ZM0,19.5H9v-9H0ZM21,30h7.744A1.256,1.256,0,0,0,30,28.744h0V21H21ZM10.5,19.5h9v-9h-9Zm10.5,0h9v-9H21ZM21,0V9h9V1.256A1.256,1.256,0,0,0,28.744,0H21ZM10.5,9h9V0h-9Z" fill="url(#linear-gradient)"/>
    <g>
      <rect x="92.4" y="38.2" width="125.6" height="26.4" fill="#fff"/>
      <g opacity="0.65">
        <path d="M217.25,38.95v24.9H93.15V38.95h124.1m.75-.75H92.4V64.6H218V38.2Z" fill="#5e9624"/>
      </g>
    </g>
    <g>
      <rect x="92.4" y="77.8" width="125.6" height="26.4" fill="#fff"/>
      <g opacity="0.65">
        <path d="M217.25,78.55v24.9H93.15V78.55h124.1m.75-.75H92.4v26.4H218V77.8Z" fill="#5e9624"/>
      </g>
    </g>
    <g>
      <rect x="306" y="16.2" width="160.087" height="105.6" fill="#fff"/>
      <rect x="306" y="16.2" width="160.087" height="105.6" fill="#505050" opacity="0.14"/>
    </g>
    <g>
      <rect x="219.8" y="50.6" width="0.5" height="1" fill="#3c3c41"/>
      <path d="M265.414,51.6h-1v-1h1Zm-2.507,0h-1v-1h1Zm-2.5,0h-1v-1h1Zm-2.507,0h-1v-1h1Zm-2.506,0h-1v-1h1Zm-2.507,0h-1v-1h1Zm-2.506,0h-1v-1h1Zm-2.507,0h-1v-1h1Zm-2.506,0h-1v-1h1Zm-2.506,0h-1v-1h1Zm-2.506,0h-1v-1h1Zm-2.506,0h-1v-1h1Zm-2.507,0h-1v-1h1Zm-2.506,0h-1v-1h1Zm-2.507,0h-1v-1h1Zm-2.5,0h-1v-1h1Zm-2.507,0h-1v-1h1Zm-2.506,0h-1v-1h1Z" fill="#3c3c41"/>
      <rect x="266.918" y="50.6" width="0.5" height="1" fill="#3c3c41"/>
      <polygon points="266.324 54.84 272.8 51.1 266.324 47.36 266.324 54.84" fill="#3c3c41"/>
    </g>
    <g>
      <rect x="219.8" y="90.6" width="0.5" height="1" fill="#3c3c41"/>
      <path d="M265.414,91.6h-1v-1h1Zm-2.507,0h-1v-1h1Zm-2.5,0h-1v-1h1Zm-2.507,0h-1v-1h1Zm-2.506,0h-1v-1h1Zm-2.507,0h-1v-1h1Zm-2.506,0h-1v-1h1Zm-2.507,0h-1v-1h1Zm-2.506,0h-1v-1h1Zm-2.506,0h-1v-1h1Zm-2.506,0h-1v-1h1Zm-2.506,0h-1v-1h1Zm-2.507,0h-1v-1h1Zm-2.506,0h-1v-1h1Zm-2.507,0h-1v-1h1Zm-2.5,0h-1v-1h1Zm-2.507,0h-1v-1h1Zm-2.506,0h-1v-1h1Z" fill="#3c3c41"/>
      <rect x="266.918" y="90.6" width="0.5" height="1" fill="#3c3c41"/>
      <polygon points="266.324 94.84 272.8 91.1 266.324 87.36 266.324 94.84" fill="#3c3c41"/>
    </g>
    <g>
      <path id="ee75dd06-1aca-4f76-9d11-d05a284020ad" d="M473.9,26.848A15.03,15.03,0,0,1,455.478,3.091l.159-.106A15.025,15.025,0,0,1,473.9,26.848" fill="url(#radial-gradient)"/>
      <path d="M460.6,11.841a22.975,22.975,0,0,1,15.749-6.328,14.968,14.968,0,0,0-2.634-2.545,25.347,25.347,0,0,0-8.29,1.944A22.153,22.153,0,0,0,458.217,9.9,4.873,4.873,0,0,1,460.6,11.841Z" fill="#fff" opacity="0.6" style="isolation: isolate"/>
      <path d="M453.162,17.886a31.569,31.569,0,0,0-1.467,4.631,13.812,13.812,0,0,0,1.1,1.626c.318.407.619.778.972,1.149a31.705,31.705,0,0,1,1.909-6.133A4.884,4.884,0,0,1,453.162,17.886Z" fill="#fff" opacity="0.6" style="isolation: isolate"/>
      <path d="M454.894,9.861a21.24,21.24,0,0,1-1.219-5.2,14.471,14.471,0,0,0-1.945,2.563,22.418,22.418,0,0,0,1.008,4.207A4.761,4.761,0,0,1,454.894,9.861Z" fill="#f2f2f2" opacity="0.55" style="isolation: isolate"/>
      <circle cx="456.52" cy="14.404" r="4.825" fill="url(#linear-gradient-2)"/>
      <path d="M463.555,23.224a3.132,3.132,0,0,1,.955-2.245,21.02,21.02,0,0,1-4.472-3.287,4.853,4.853,0,0,1-2.634,1.467,23.228,23.228,0,0,0,2.563,2.262,21.432,21.432,0,0,0,3.624,2.21A3.092,3.092,0,0,1,463.555,23.224Z" fill="#f2f2f2" opacity="0.55" style="isolation: isolate"/>
      <path d="M474.691,23.6a21.248,21.248,0,0,1-4.878-.565.787.787,0,0,1,0,.194,3.1,3.1,0,0,1-.9,2.192,24.225,24.225,0,0,0,6.045.424,14.491,14.491,0,0,0,2.1-2.369A20.17,20.17,0,0,1,474.691,23.6Z" fill="#f2f2f2" opacity="0.55" style="isolation: isolate"/>
      <circle cx="466.684" cy="23.224" r="3.146" fill="url(#linear-gradient-3)"/>
      <path d="M470.555,14.846a3.235,3.235,0,0,1,1.078-1.768A45.054,45.054,0,0,1,463.75,5.76,29.847,29.847,0,0,1,460.215.6a13.5,13.5,0,0,0-1.927.742,32.034,32.034,0,0,0,3.8,5.621A46.715,46.715,0,0,0,470.555,14.846Z" fill="#f2f2f2" opacity="0.7" style="isolation: isolate"/>
      <circle cx="473.843" cy="15.447" r="3.341" fill="url(#linear-gradient-4)"/>
      <path d="M479.446,17.692l-.619-.3h0l-.53-.283h-.106l-.46-.371h-.123l-.548-.353a3.114,3.114,0,0,1-1.132,1.626c.213.141.442.265.672.389l.141.088.619.336h0l1.52.795h0a15.251,15.251,0,0,0,.513-1.962Z" fill="#f2f2f2" opacity="0.55" style="isolation: isolate"/>
      <circle cx="456.52" cy="14.404" r="4.825" fill="url(#linear-gradient-2)"/>
      <circle cx="466.684" cy="23.224" r="3.146" fill="url(#linear-gradient-3)"/>
    </g>
    <path d="M254,73.89h-1.86a6.383,6.383,0,0,0-.413-2.208,6.584,6.584,0,0,0-1.077-1.838,8.108,8.108,0,0,0-1.578-1.458,9.618,9.618,0,0,0-1.925-1.055,12.1,12.1,0,0,0-2.122-.653,10.041,10.041,0,0,0-2.164-.218,11.373,11.373,0,0,0-4.287.86,9.806,9.806,0,0,0-1.925,1.066,8.168,8.168,0,0,0-1.577,1.458,6.7,6.7,0,0,0-1.077,1.838,6.114,6.114,0,0,0-.414,2.208h-1.86a7.8,7.8,0,0,1,.457-2.7,8.5,8.5,0,0,1,1.262-2.295,9.192,9.192,0,0,1,1.882-1.828,13.329,13.329,0,0,1,2.317-1.348,11.847,11.847,0,0,1,2.578-.838,13.832,13.832,0,0,1,2.644-.283,12.724,12.724,0,0,1,2.643.283,12.9,12.9,0,0,1,2.568.827,12.137,12.137,0,0,1,2.317,1.349,9.684,9.684,0,0,1,1.893,1.838,8.362,8.362,0,0,1,1.261,2.285A7.827,7.827,0,0,1,254,73.89Zm-11.139-3.72a3.583,3.583,0,0,1,1.447.294,3.712,3.712,0,0,1,1.969,1.98,3.643,3.643,0,0,1,.293,1.446,3.6,3.6,0,0,1-.293,1.447,3.741,3.741,0,0,1-1.969,1.969,3.708,3.708,0,0,1-2.894,0,3.732,3.732,0,0,1-1.969-1.969,3.579,3.579,0,0,1-.294-1.447,3.675,3.675,0,0,1,1.077-2.621,3.8,3.8,0,0,1,1.186-.805A3.579,3.579,0,0,1,242.857,70.17Zm0,6.038a2.165,2.165,0,0,0,.892-.185,2.581,2.581,0,0,0,.739-.5,2.17,2.17,0,0,0,.5-.729,2.437,2.437,0,0,0,.185-.9,2.358,2.358,0,0,0-.174-.9,2.152,2.152,0,0,0-.5-.739,2.561,2.561,0,0,0-.739-.5,2.193,2.193,0,0,0-.9-.185,2.241,2.241,0,0,0-.9.185,2.377,2.377,0,0,0-.74.5,2.241,2.241,0,0,0-.49.739,2.527,2.527,0,0,0-.185.9,2.162,2.162,0,0,0,.185.892,2.572,2.572,0,0,0,.5.74,2.17,2.17,0,0,0,.729.5A2.457,2.457,0,0,0,242.857,76.208Z"/>
    <g>
      <rect x="274.8" y="38.2" width="125.6" height="26.4" fill="#fff"/>
      <g opacity="0.65">
        <path d="M398.4,40.2V62.6H276.8V40.2H398.4m2-2H274.8V64.6H400.4V38.2Z" fill="#5e9624"/>
      </g>
    </g>
    <g>
      <rect x="274.8" y="77.8" width="125.6" height="26.4" fill="#fff"/>
      <g opacity="0.65">
        <path d="M398.4,79.8v22.4H276.8V79.8H398.4m2-2H274.8v26.4H400.4V77.8Z" fill="#5e9624"/>
      </g>
    </g>
  </g>
  <g id="Text">
    <g>
      <path d="M42.585,10.184a5.542,5.542,0,0,1-2.4.445,4.053,4.053,0,0,1-3.041-1.136,4.158,4.158,0,0,1-1.107-3.03,4.44,4.44,0,0,1,1.245-3.269A4.354,4.354,0,0,1,40.51,1.94a6.049,6.049,0,0,1,2.075.31V4.073a3.676,3.676,0,0,0-1.922-.5,2.549,2.549,0,0,0-1.91.744,2.759,2.759,0,0,0-.727,2.016,2.709,2.709,0,0,0,.686,1.942,2.423,2.423,0,0,0,1.845.724,3.934,3.934,0,0,0,2.028-.54Z" fill="#1e1e1e"/>
      <path d="M45.69,10.483H43.838V1.6H45.69Z" fill="#1e1e1e"/>
      <path d="M48.155,3.534a1.079,1.079,0,0,1-.767-.279.9.9,0,0,1-.3-.682.866.866,0,0,1,.3-.68,1.252,1.252,0,0,1,1.538,0,.87.87,0,0,1,.3.68.894.894,0,0,1-.3.691A1.1,1.1,0,0,1,48.155,3.534Zm.915,6.949H47.218v-6H49.07Z" fill="#1e1e1e"/>
      <path d="M55.989,8.01H52.075q.093,1.307,1.646,1.307a3.211,3.211,0,0,0,1.741-.469v1.336a4.573,4.573,0,0,1-2.162.445,3.043,3.043,0,0,1-2.256-.8,3.042,3.042,0,0,1-.8-2.247,3.212,3.212,0,0,1,.867-2.368,2.889,2.889,0,0,1,2.133-.873,2.62,2.62,0,0,1,2.03.78,3,3,0,0,1,.718,2.115ZM54.272,6.873q0-1.288-1.043-1.289a.992.992,0,0,0-.77.37,1.673,1.673,0,0,0-.4.919Z" fill="#1e1e1e"/>
      <path d="M62.962,10.483H61.116V7.149q0-1.395-1-1.4a.989.989,0,0,0-.791.369,1.409,1.409,0,0,0-.31.938v3.422H57.167v-6h1.852v.949h.023a2.124,2.124,0,0,1,1.928-1.1q1.992,0,1.992,2.473Z" fill="#1e1e1e"/>
      <path d="M67.986,10.412a2.734,2.734,0,0,1-1.237.217q-1.956,0-1.957-2.033V5.848H63.82V4.483h.972V3.188l1.846-.527V4.483h1.348V5.848H66.638V8.274q0,.938.744.937a1.249,1.249,0,0,0,.6-.17Z" fill="#1e1e1e"/>
      <path d="M77.331,10.483H75.579V9.621h-.023a1.955,1.955,0,0,1-1.787,1.008,1.87,1.87,0,0,1-1.374-.495,1.773,1.773,0,0,1-.5-1.321q0-1.746,2.068-2.016l1.629-.217q0-.984-1.066-.984a3.637,3.637,0,0,0-2.039.639V4.84a4.539,4.539,0,0,1,1.057-.351,5.539,5.539,0,0,1,1.222-.153A2.266,2.266,0,0,1,77.331,6.9Zm-1.74-2.438v-.4l-1.09.141q-.9.117-.9.814a.673.673,0,0,0,.22.519.845.845,0,0,0,.594.2,1.1,1.1,0,0,0,.85-.361A1.3,1.3,0,0,0,75.591,8.045Z" fill="#1e1e1e"/>
      <path d="M80.671,9.786h-.023v3.457H78.8V4.483h1.852v.9h.023a2.356,2.356,0,0,1,3.73-.249,3.41,3.41,0,0,1,.635,2.177A3.691,3.691,0,0,1,84.3,9.721a2.415,2.415,0,0,1-1.972.908A1.869,1.869,0,0,1,80.671,9.786Zm-.053-2.461v.48a1.533,1.533,0,0,0,.328,1.014,1.071,1.071,0,0,0,.862.392,1.134,1.134,0,0,0,.981-.489,2.358,2.358,0,0,0,.349-1.386q0-1.581-1.231-1.582a1.156,1.156,0,0,0-.928.431A1.714,1.714,0,0,0,80.618,7.325Z" fill="#1e1e1e"/>
      <path d="M88.135,9.786h-.023v3.457H86.26V4.483h1.852v.9h.023a2.356,2.356,0,0,1,3.73-.249A3.4,3.4,0,0,1,92.5,7.313a3.685,3.685,0,0,1-.742,2.408,2.414,2.414,0,0,1-1.971.908A1.87,1.87,0,0,1,88.135,9.786Zm-.052-2.461v.48a1.528,1.528,0,0,0,.328,1.014,1.07,1.07,0,0,0,.861.392,1.137,1.137,0,0,0,.982-.489A2.365,2.365,0,0,0,90.6,7.336q0-1.581-1.23-1.582a1.156,1.156,0,0,0-.929.431A1.719,1.719,0,0,0,88.083,7.325Z" fill="#1e1e1e"/>
      <path d="M100.926,6.153a1.6,1.6,0,0,0-.779-.182,1.124,1.124,0,0,0-.943.442,1.93,1.93,0,0,0-.34,1.205v2.865H97.012v-6h1.852V5.6h.023a1.6,1.6,0,0,1,1.582-1.219,1.184,1.184,0,0,1,.457.071Z" fill="#1e1e1e"/>
      <path d="M107.254,8.01H103.34q.093,1.307,1.646,1.307a3.21,3.21,0,0,0,1.74-.469v1.336a4.567,4.567,0,0,1-2.162.445,3.043,3.043,0,0,1-2.256-.8,3.045,3.045,0,0,1-.8-2.247,3.212,3.212,0,0,1,.867-2.368,2.889,2.889,0,0,1,2.133-.873,2.621,2.621,0,0,1,2.03.78,3,3,0,0,1,.718,2.115Zm-1.717-1.137q0-1.288-1.043-1.289a1,1,0,0,0-.771.37,1.679,1.679,0,0,0-.395.919Z" fill="#1e1e1e"/>
      <path d="M114.342,9.8a3.4,3.4,0,0,1-.967,2.587,3.916,3.916,0,0,1-2.8.917,4.432,4.432,0,0,1-1.922-.346V11.4a3.683,3.683,0,0,0,1.869.539,2.012,2.012,0,0,0,1.453-.495,1.777,1.777,0,0,0,.516-1.345V9.621h-.023a2.068,2.068,0,0,1-1.87,1.008,2.248,2.248,0,0,1-1.822-.808,3.281,3.281,0,0,1-.674-2.168,3.651,3.651,0,0,1,.75-2.42,2.448,2.448,0,0,1,1.975-.9,1.825,1.825,0,0,1,1.641.844h.023v-.7h1.852Zm-1.829-2.2V7.125a1.453,1.453,0,0,0-.337-.969,1.087,1.087,0,0,0-.876-.4,1.13,1.13,0,0,0-.966.481,2.253,2.253,0,0,0-.352,1.353,1.906,1.906,0,0,0,.334,1.187,1.088,1.088,0,0,0,.914.436,1.132,1.132,0,0,0,.929-.442A1.817,1.817,0,0,0,112.513,7.6Z" fill="#1e1e1e"/>
      <path d="M116.8,3.534a1.08,1.08,0,0,1-.768-.279.9.9,0,0,1-.3-.682.866.866,0,0,1,.3-.68,1.252,1.252,0,0,1,1.538,0,.87.87,0,0,1,.3.68.894.894,0,0,1-.3.691A1.1,1.1,0,0,1,116.8,3.534Zm.914,6.949h-1.852v-6h1.852Z" fill="#1e1e1e"/>
      <path d="M118.955,10.325v-1.5a3.954,3.954,0,0,0,.911.41,3.018,3.018,0,0,0,.858.135,1.844,1.844,0,0,0,.777-.135.436.436,0,0,0,.284-.41.378.378,0,0,0-.129-.293,1.184,1.184,0,0,0-.331-.205,3.723,3.723,0,0,0-.442-.159c-.161-.047-.315-.1-.463-.158a4.333,4.333,0,0,1-.63-.29,1.817,1.817,0,0,1-.457-.36,1.43,1.43,0,0,1-.282-.475,1.906,1.906,0,0,1-.1-.639,1.641,1.641,0,0,1,.22-.867,1.786,1.786,0,0,1,.585-.594,2.668,2.668,0,0,1,.838-.34,4.334,4.334,0,0,1,.982-.109,5.443,5.443,0,0,1,.808.062,5.9,5.9,0,0,1,.809.179V6.006a2.922,2.922,0,0,0-.753-.307,3.148,3.148,0,0,0-.788-.1,1.792,1.792,0,0,0-.343.032,1.155,1.155,0,0,0-.284.094.526.526,0,0,0-.193.158.366.366,0,0,0-.071.22.4.4,0,0,0,.106.281.9.9,0,0,0,.275.2,2.655,2.655,0,0,0,.378.153c.139.045.276.091.413.137a5.306,5.306,0,0,1,.668.282,2.126,2.126,0,0,1,.513.357,1.41,1.41,0,0,1,.328.481,1.707,1.707,0,0,1,.114.656,1.715,1.715,0,0,1-.231.911,1.855,1.855,0,0,1-.615.615,2.792,2.792,0,0,1-.885.346,4.925,4.925,0,0,1-1.04.108A5.363,5.363,0,0,1,118.955,10.325Z" fill="#1e1e1e"/>
      <path d="M128.227,10.412a2.727,2.727,0,0,1-1.236.217q-1.957,0-1.957-2.033V5.848h-.973V4.483h.973V3.188l1.846-.527V4.483h1.347V5.848H126.88V8.274q0,.938.744.937a1.246,1.246,0,0,0,.6-.17Z" fill="#1e1e1e"/>
      <path d="M133.307,6.153a1.6,1.6,0,0,0-.779-.182,1.124,1.124,0,0,0-.943.442,1.93,1.93,0,0,0-.34,1.205v2.865h-1.852v-6h1.852V5.6h.023a1.6,1.6,0,0,1,1.582-1.219,1.184,1.184,0,0,1,.457.071Z" fill="#1e1e1e"/>
      <path d="M139.08,10.483h-1.752V9.621H137.3a1.955,1.955,0,0,1-1.787,1.008,1.87,1.87,0,0,1-1.374-.495,1.773,1.773,0,0,1-.5-1.321q0-1.746,2.069-2.016l1.629-.217q0-.984-1.067-.984a3.639,3.639,0,0,0-2.039.639V4.84a4.549,4.549,0,0,1,1.058-.351,5.531,5.531,0,0,1,1.221-.153A2.267,2.267,0,0,1,139.08,6.9Zm-1.74-2.438v-.4l-1.09.141q-.9.117-.9.814a.676.676,0,0,0,.22.519.849.849,0,0,0,.595.2,1.093,1.093,0,0,0,.849-.361A1.3,1.3,0,0,0,137.34,8.045Z" fill="#1e1e1e"/>
      <path d="M144.085,10.412a2.734,2.734,0,0,1-1.237.217q-1.956,0-1.957-2.033V5.848h-.972V4.483h.972V3.188l1.846-.527V4.483h1.348V5.848h-1.348V8.274q0,.938.744.937a1.249,1.249,0,0,0,.6-.17Z" fill="#1e1e1e"/>
      <path d="M146.132,3.534a1.08,1.08,0,0,1-.768-.279.9.9,0,0,1-.3-.682.866.866,0,0,1,.3-.68,1.252,1.252,0,0,1,1.538,0,.87.87,0,0,1,.3.68.894.894,0,0,1-.3.691A1.1,1.1,0,0,1,146.132,3.534Zm.914,6.949h-1.852v-6h1.852Z" fill="#1e1e1e"/>
      <path d="M151.436,10.629a3.222,3.222,0,0,1-2.358-.841,3.048,3.048,0,0,1-.859-2.282,3.048,3.048,0,0,1,.891-2.329,3.369,3.369,0,0,1,2.408-.841,3.189,3.189,0,0,1,2.344.841,2.992,2.992,0,0,1,.85,2.224,3.172,3.172,0,0,1-.876,2.361A3.262,3.262,0,0,1,151.436,10.629Zm.047-4.875a1.236,1.236,0,0,0-1.019.451,1.987,1.987,0,0,0-.364,1.278q0,1.728,1.4,1.728,1.331,0,1.33-1.775Q152.825,5.755,151.483,5.754Z" fill="#1e1e1e"/>
      <path d="M161.7,10.483h-1.845V7.149q0-1.395-1-1.4a.989.989,0,0,0-.791.369,1.409,1.409,0,0,0-.31.938v3.422H155.9v-6h1.852v.949h.023a2.123,2.123,0,0,1,1.928-1.1q1.992,0,1.991,2.473Z" fill="#1e1e1e"/>
    </g>
    <g>
      <path d="M32.886,52.624V55.8H31.9V47.4H34.21a3.049,3.049,0,0,1,2.089.656,2.345,2.345,0,0,1,.741,1.852,2.546,2.546,0,0,1-.823,1.957,3.145,3.145,0,0,1-2.224.761Zm0-4.336v3.446h1.031a2.3,2.3,0,0,0,1.556-.466,1.651,1.651,0,0,0,.536-1.315q0-1.665-1.969-1.665Z" fill="#1e1e1e"/>
      <path d="M43.08,53.04H38.844a2.245,2.245,0,0,0,.539,1.547,1.856,1.856,0,0,0,1.418.545,2.942,2.942,0,0,0,1.863-.668v.9a3.486,3.486,0,0,1-2.092.574,2.538,2.538,0,0,1-2-.818,3.344,3.344,0,0,1-.726-2.3,3.284,3.284,0,0,1,.794-2.283,2.546,2.546,0,0,1,1.971-.881,2.255,2.255,0,0,1,1.823.761,3.181,3.181,0,0,1,.644,2.116Zm-.984-.814a1.96,1.96,0,0,0-.4-1.3,1.367,1.367,0,0,0-1.1-.463,1.552,1.552,0,0,0-1.154.486,2.207,2.207,0,0,0-.586,1.272Z" fill="#1e1e1e"/>
      <path d="M47.662,50.773a1.173,1.173,0,0,0-.726-.194,1.229,1.229,0,0,0-1.029.581,2.683,2.683,0,0,0-.413,1.582V55.8h-.961v-6h.961v1.237h.024a2.089,2.089,0,0,1,.627-.988,1.429,1.429,0,0,1,.943-.354,1.562,1.562,0,0,1,.574.082Z" fill="#1e1e1e"/>
      <path d="M57.256,55.8H56.3V52.355a2.6,2.6,0,0,0-.307-1.442,1.17,1.17,0,0,0-1.035-.445,1.283,1.283,0,0,0-1.046.563,2.151,2.151,0,0,0-.43,1.347V55.8h-.961V52.238q0-1.77-1.365-1.77a1.265,1.265,0,0,0-1.043.53,2.191,2.191,0,0,0-.411,1.38V55.8h-.96v-6h.96v.949h.024a2.039,2.039,0,0,1,1.863-1.089,1.731,1.731,0,0,1,1.7,1.242,2.143,2.143,0,0,1,1.993-1.242q1.98,0,1.98,2.443Z" fill="#1e1e1e"/>
      <path d="M59.485,48.277a.611.611,0,0,1-.44-.176.594.594,0,0,1-.182-.445.615.615,0,0,1,.622-.627.621.621,0,0,1,.448.178.6.6,0,0,1,.184.449.592.592,0,0,1-.184.439A.617.617,0,0,1,59.485,48.277Zm.468,7.523h-.961v-6h.961Z" fill="#1e1e1e"/>
      <path d="M61.435,55.583V54.552a2.839,2.839,0,0,0,1.728.58q1.266,0,1.266-.844a.735.735,0,0,0-.108-.407,1.1,1.1,0,0,0-.293-.3,2.264,2.264,0,0,0-.434-.231c-.166-.068-.345-.14-.536-.214a6.838,6.838,0,0,1-.7-.319,2.1,2.1,0,0,1-.5-.364,1.336,1.336,0,0,1-.3-.46,1.63,1.63,0,0,1-.1-.6,1.434,1.434,0,0,1,.194-.747,1.716,1.716,0,0,1,.515-.545,2.386,2.386,0,0,1,.736-.331,3.264,3.264,0,0,1,.852-.111,3.437,3.437,0,0,1,1.4.269V50.9a2.72,2.72,0,0,0-1.524-.434,1.784,1.784,0,0,0-.486.062,1.183,1.183,0,0,0-.372.173.8.8,0,0,0-.24.266.7.7,0,0,0-.085.343.815.815,0,0,0,.085.392.847.847,0,0,0,.249.282,1.879,1.879,0,0,0,.4.222c.157.067.334.139.533.217a7.352,7.352,0,0,1,.715.314,2.416,2.416,0,0,1,.539.363,1.412,1.412,0,0,1,.343.466,1.505,1.505,0,0,1,.12.627,1.475,1.475,0,0,1-.2.773,1.683,1.683,0,0,1-.524.545,2.388,2.388,0,0,1-.756.322,3.7,3.7,0,0,1-.9.106A3.394,3.394,0,0,1,61.435,55.583Z" fill="#1e1e1e"/>
      <path d="M66.527,55.583V54.552a2.839,2.839,0,0,0,1.728.58q1.266,0,1.266-.844a.727.727,0,0,0-.109-.407,1.083,1.083,0,0,0-.293-.3,2.225,2.225,0,0,0-.433-.231c-.166-.068-.345-.14-.536-.214a6.963,6.963,0,0,1-.7-.319,2.108,2.108,0,0,1-.5-.364,1.336,1.336,0,0,1-.3-.46,1.61,1.61,0,0,1-.1-.6,1.434,1.434,0,0,1,.194-.747,1.705,1.705,0,0,1,.515-.545,2.386,2.386,0,0,1,.736-.331,3.264,3.264,0,0,1,.852-.111,3.437,3.437,0,0,1,1.4.269V50.9a2.722,2.722,0,0,0-1.524-.434,1.779,1.779,0,0,0-.486.062,1.163,1.163,0,0,0-.372.173.787.787,0,0,0-.24.266.7.7,0,0,0-.085.343.815.815,0,0,0,.085.392.847.847,0,0,0,.249.282,1.879,1.879,0,0,0,.4.222q.234.1.533.217a7.352,7.352,0,0,1,.715.314,2.416,2.416,0,0,1,.539.363,1.412,1.412,0,0,1,.343.466,1.505,1.505,0,0,1,.12.627,1.475,1.475,0,0,1-.2.773,1.676,1.676,0,0,1-.525.545,2.373,2.373,0,0,1-.755.322,3.7,3.7,0,0,1-.9.106A3.394,3.394,0,0,1,66.527,55.583Z" fill="#1e1e1e"/>
      <path d="M72.357,48.277a.611.611,0,0,1-.44-.176.593.593,0,0,1-.181-.445.613.613,0,0,1,.621-.627.621.621,0,0,1,.448.178.6.6,0,0,1,.184.449.592.592,0,0,1-.184.439A.617.617,0,0,1,72.357,48.277Zm.468,7.523h-.961v-6h.961Z" fill="#1e1e1e"/>
      <path d="M77.2,55.941a2.784,2.784,0,0,1-2.124-.841,3.117,3.117,0,0,1-.794-2.229,3.246,3.246,0,0,1,.827-2.362,2.968,2.968,0,0,1,2.232-.849,2.69,2.69,0,0,1,2.095.826,3.275,3.275,0,0,1,.753,2.291,3.226,3.226,0,0,1-.812,2.3A2.843,2.843,0,0,1,77.2,55.941Zm.071-5.473a1.826,1.826,0,0,0-1.465.63,2.583,2.583,0,0,0-.539,1.737,2.444,2.444,0,0,0,.545,1.682,1.851,1.851,0,0,0,1.459.615,1.756,1.756,0,0,0,1.432-.6,2.621,2.621,0,0,0,.5-1.717,2.662,2.662,0,0,0-.5-1.734A1.746,1.746,0,0,0,77.273,50.468Z" fill="#1e1e1e"/>
      <path d="M86.652,55.8h-.961V52.378q0-1.91-1.395-1.91a1.513,1.513,0,0,0-1.192.542,2.007,2.007,0,0,0-.472,1.368V55.8h-.961v-6h.961v1h.023a2.166,2.166,0,0,1,1.969-1.136,1.836,1.836,0,0,1,1.506.635,2.83,2.83,0,0,1,.522,1.837Z" fill="#1e1e1e"/>
    </g>
    <g>
      <path d="M112.509,55.8h-4.453V47.4h4.266v.89h-3.281v2.8h3.035v.885h-3.035V54.91h3.468Z" fill="#1e1e1e"/>
      <path d="M122.338,55.8h-.961V52.355a2.6,2.6,0,0,0-.308-1.442,1.169,1.169,0,0,0-1.034-.445,1.281,1.281,0,0,0-1.046.563,2.152,2.152,0,0,0-.431,1.347V55.8H117.6V52.238q0-1.77-1.365-1.77a1.266,1.266,0,0,0-1.043.53,2.2,2.2,0,0,0-.41,1.38V55.8h-.961v-6h.961v.949h.023a2.039,2.039,0,0,1,1.864-1.089,1.731,1.731,0,0,1,1.7,1.242,2.14,2.14,0,0,1,1.992-1.242q1.98,0,1.981,2.443Z" fill="#1e1e1e"/>
      <path d="M125.068,54.933h-.023V58.56h-.961V49.8h.961v1.055h.023a2.272,2.272,0,0,1,2.074-1.2,2.2,2.2,0,0,1,1.811.805,3.34,3.34,0,0,1,.65,2.159,3.724,3.724,0,0,1-.732,2.412,2.439,2.439,0,0,1-2,.905A2.008,2.008,0,0,1,125.068,54.933Zm-.023-2.42v.838a1.786,1.786,0,0,0,.483,1.263,1.725,1.725,0,0,0,2.6-.15,3.063,3.063,0,0,0,.5-1.857,2.414,2.414,0,0,0-.463-1.57,1.533,1.533,0,0,0-1.254-.569,1.7,1.7,0,0,0-1.348.583A2.145,2.145,0,0,0,125.045,52.513Z" fill="#1e1e1e"/>
      <path d="M132.056,55.8H131.1V46.917h.961Z" fill="#1e1e1e"/>
      <path d="M136.455,55.941a2.781,2.781,0,0,1-2.124-.841,3.112,3.112,0,0,1-.794-2.229,3.246,3.246,0,0,1,.826-2.362,2.971,2.971,0,0,1,2.232-.849,2.69,2.69,0,0,1,2.095.826,3.275,3.275,0,0,1,.753,2.291,3.225,3.225,0,0,1-.811,2.3A2.845,2.845,0,0,1,136.455,55.941Zm.07-5.473a1.829,1.829,0,0,0-1.465.63,2.589,2.589,0,0,0-.539,1.737,2.449,2.449,0,0,0,.545,1.682,1.852,1.852,0,0,0,1.459.615,1.758,1.758,0,0,0,1.433-.6,2.621,2.621,0,0,0,.5-1.717,2.662,2.662,0,0,0-.5-1.734A1.748,1.748,0,0,0,136.525,50.468Z" fill="#1e1e1e"/>
      <path d="M145.621,49.8l-2.76,6.961q-.738,1.863-2.074,1.863a2.192,2.192,0,0,1-.627-.076v-.861a1.785,1.785,0,0,0,.568.105,1.177,1.177,0,0,0,1.09-.867l.481-1.137L139.955,49.8h1.066l1.623,4.617c.02.059.061.211.123.457h.035c.02-.093.059-.242.118-.445l1.705-4.629Z" fill="#1e1e1e"/>
      <path d="M151.325,53.04h-4.236a2.24,2.24,0,0,0,.539,1.547,1.854,1.854,0,0,0,1.418.545,2.946,2.946,0,0,0,1.863-.668v.9a3.488,3.488,0,0,1-2.092.574,2.535,2.535,0,0,1-2-.818,3.344,3.344,0,0,1-.727-2.3,3.284,3.284,0,0,1,.794-2.283,2.55,2.55,0,0,1,1.972-.881,2.253,2.253,0,0,1,1.822.761,3.176,3.176,0,0,1,.645,2.116Zm-.984-.814a1.954,1.954,0,0,0-.4-1.3,1.367,1.367,0,0,0-1.1-.463,1.554,1.554,0,0,0-1.155.486,2.22,2.22,0,0,0-.586,1.272Z" fill="#1e1e1e"/>
      <path d="M157.636,53.04H153.4a2.245,2.245,0,0,0,.539,1.547,1.857,1.857,0,0,0,1.418.545,2.942,2.942,0,0,0,1.863-.668v.9a3.485,3.485,0,0,1-2.091.574,2.535,2.535,0,0,1-2-.818,3.339,3.339,0,0,1-.727-2.3,3.284,3.284,0,0,1,.794-2.283,2.547,2.547,0,0,1,1.972-.881,2.255,2.255,0,0,1,1.822.761,3.175,3.175,0,0,1,.644,2.116Zm-.984-.814a1.96,1.96,0,0,0-.4-1.3,1.367,1.367,0,0,0-1.1-.463,1.552,1.552,0,0,0-1.154.486,2.207,2.207,0,0,0-.586,1.272Z" fill="#1e1e1e"/>
      <path d="M159.349,55.929a.623.623,0,0,1-.46-.193.636.636,0,0,1-.19-.463.646.646,0,0,1,.19-.466.618.618,0,0,1,.46-.2.633.633,0,0,1,.469.2.641.641,0,0,1,.193.466.631.631,0,0,1-.193.463A.638.638,0,0,1,159.349,55.929Z" fill="#1e1e1e"/>
      <path d="M167.817,55.8h-1.172l-1.407-2.355a4.842,4.842,0,0,0-.375-.56,2.155,2.155,0,0,0-.372-.378,1.3,1.3,0,0,0-.41-.214,1.679,1.679,0,0,0-.495-.067h-.808V55.8h-.985V47.4H164.3a3.573,3.573,0,0,1,1.017.138,2.266,2.266,0,0,1,.808.418,1.943,1.943,0,0,1,.536.7,2.317,2.317,0,0,1,.194.981,2.362,2.362,0,0,1-.132.806,2.1,2.1,0,0,1-.375.653,2.252,2.252,0,0,1-.586.489,2.974,2.974,0,0,1-.771.314v.023a1.809,1.809,0,0,1,.367.214,2.013,2.013,0,0,1,.295.284,3.916,3.916,0,0,1,.279.372q.138.209.307.484Zm-5.039-7.512v3.047h1.335a2.03,2.03,0,0,0,.683-.111,1.583,1.583,0,0,0,.542-.319,1.46,1.46,0,0,0,.358-.51,1.724,1.724,0,0,0,.128-.677,1.318,1.318,0,0,0-.436-1.052,1.875,1.875,0,0,0-1.263-.378Z" fill="#1e1e1e"/>
      <path d="M173.493,53.04h-4.236a2.245,2.245,0,0,0,.539,1.547,1.857,1.857,0,0,0,1.418.545,2.942,2.942,0,0,0,1.863-.668v.9a3.485,3.485,0,0,1-2.091.574,2.535,2.535,0,0,1-2-.818,3.339,3.339,0,0,1-.727-2.3,3.284,3.284,0,0,1,.794-2.283,2.547,2.547,0,0,1,1.972-.881,2.255,2.255,0,0,1,1.822.761,3.175,3.175,0,0,1,.644,2.116Zm-.984-.814a1.96,1.96,0,0,0-.4-1.3,1.367,1.367,0,0,0-1.1-.463,1.552,1.552,0,0,0-1.154.486,2.207,2.207,0,0,0-.586,1.272Z" fill="#1e1e1e"/>
      <path d="M179.194,55.8h-.961v-.937h-.024a2.013,2.013,0,0,1-1.846,1.078,1.97,1.97,0,0,1-1.4-.475,1.643,1.643,0,0,1-.507-1.26q0-1.681,1.981-1.957l1.8-.252q0-1.528-1.237-1.529a2.955,2.955,0,0,0-1.957.738v-.984a3.719,3.719,0,0,1,2.039-.562q2.115,0,2.116,2.238Zm-.961-3.035-1.448.2a2.354,2.354,0,0,0-1.007.331.955.955,0,0,0-.34.841.916.916,0,0,0,.313.718,1.213,1.213,0,0,0,.835.278,1.543,1.543,0,0,0,1.181-.5,1.792,1.792,0,0,0,.466-1.268Z" fill="#1e1e1e"/>
      <path d="M186.119,55.8h-.961V54.781h-.023a2.219,2.219,0,0,1-2.063,1.16,2.241,2.241,0,0,1-1.807-.806,3.3,3.3,0,0,1-.677-2.194,3.6,3.6,0,0,1,.75-2.385,2.472,2.472,0,0,1,2-.9,1.924,1.924,0,0,1,1.8.972h.023V46.917h.961Zm-.961-2.713V52.2a1.718,1.718,0,0,0-.48-1.231,1.612,1.612,0,0,0-1.219-.5,1.659,1.659,0,0,0-1.383.645,2.822,2.822,0,0,0-.5,1.781,2.545,2.545,0,0,0,.484,1.638,1.58,1.58,0,0,0,1.3.6,1.639,1.639,0,0,0,1.3-.58A2.162,2.162,0,0,0,185.158,53.087Z" fill="#1e1e1e"/>
      <path d="M188.365,55.929a.623.623,0,0,1-.46-.193.64.64,0,0,1-.19-.463.65.65,0,0,1,.19-.466.618.618,0,0,1,.46-.2.633.633,0,0,1,.469.2.642.642,0,0,1,.194.466.661.661,0,0,1-.663.656Z" fill="#1e1e1e"/>
      <path d="M197.633,55.8h-1.09l-.89-2.355H192.09l-.838,2.355h-1.1l3.223-8.4h1.02Zm-2.3-3.24-1.318-3.58a3.425,3.425,0,0,1-.129-.563h-.023a3.109,3.109,0,0,1-.135.563l-1.307,3.58Z" fill="#1e1e1e"/>
      <path d="M199.694,55.8h-.961V46.917h.961Z" fill="#1e1e1e"/>
      <path d="M202.473,55.8h-.961V46.917h.961Z" fill="#1e1e1e"/>
    </g>
    <g>
      <path d="M32.886,92.224V95.4H31.9V87H34.21a3.044,3.044,0,0,1,2.089.657,2.341,2.341,0,0,1,.741,1.851,2.546,2.546,0,0,1-.823,1.957,3.145,3.145,0,0,1-2.224.762Zm0-4.336v3.445h1.031a2.31,2.31,0,0,0,1.556-.465,1.651,1.651,0,0,0,.536-1.316q0-1.664-1.969-1.664Z" fill="#1e1e1e"/>
      <path d="M43.08,92.64H38.844a2.245,2.245,0,0,0,.539,1.547,1.859,1.859,0,0,0,1.418.545,2.948,2.948,0,0,0,1.863-.668v.9a3.479,3.479,0,0,1-2.092.574,2.537,2.537,0,0,1-2-.817,3.347,3.347,0,0,1-.726-2.3,3.283,3.283,0,0,1,.794-2.282,2.544,2.544,0,0,1,1.971-.882,2.256,2.256,0,0,1,1.823.762,3.18,3.18,0,0,1,.644,2.115Zm-.984-.814a1.958,1.958,0,0,0-.4-1.295,1.367,1.367,0,0,0-1.1-.463,1.552,1.552,0,0,0-1.154.486,2.2,2.2,0,0,0-.586,1.272Z" fill="#1e1e1e"/>
      <path d="M47.662,90.372a1.18,1.18,0,0,0-.726-.193,1.228,1.228,0,0,0-1.029.58,2.685,2.685,0,0,0-.413,1.582V95.4h-.961v-6h.961v1.236h.024a2.081,2.081,0,0,1,.627-.987,1.425,1.425,0,0,1,.943-.355,1.583,1.583,0,0,1,.574.082Z" fill="#1e1e1e"/>
      <path d="M57.256,95.4H56.3V91.954a2.6,2.6,0,0,0-.307-1.441,1.168,1.168,0,0,0-1.035-.445,1.282,1.282,0,0,0-1.046.562,2.152,2.152,0,0,0-.43,1.348V95.4h-.961V91.837q0-1.769-1.365-1.769a1.265,1.265,0,0,0-1.043.53,2.191,2.191,0,0,0-.411,1.38V95.4h-.96v-6h.96v.949h.024a2.038,2.038,0,0,1,1.863-1.09,1.734,1.734,0,0,1,1.7,1.242,2.143,2.143,0,0,1,1.993-1.242q1.98,0,1.98,2.444Z" fill="#1e1e1e"/>
      <path d="M59.485,87.876a.61.61,0,0,1-.44-.175.6.6,0,0,1-.182-.446.616.616,0,0,1,.622-.627.622.622,0,0,1,.448.179.628.628,0,0,1,0,.888A.616.616,0,0,1,59.485,87.876Zm.468,7.524h-.961v-6h.961Z" fill="#1e1e1e"/>
      <path d="M61.435,95.183V94.152a2.846,2.846,0,0,0,1.728.58q1.266,0,1.266-.844a.733.733,0,0,0-.108-.407,1.1,1.1,0,0,0-.293-.3,2.264,2.264,0,0,0-.434-.231q-.249-.1-.536-.214a6.83,6.83,0,0,1-.7-.32,2.066,2.066,0,0,1-.5-.363,1.345,1.345,0,0,1-.3-.46,1.634,1.634,0,0,1-.1-.6,1.435,1.435,0,0,1,.194-.748,1.723,1.723,0,0,1,.515-.544,2.386,2.386,0,0,1,.736-.331,3.223,3.223,0,0,1,.852-.112,3.437,3.437,0,0,1,1.4.27V90.5a2.719,2.719,0,0,0-1.524-.433,1.786,1.786,0,0,0-.486.061,1.206,1.206,0,0,0-.372.173.791.791,0,0,0-.24.267.7.7,0,0,0-.085.343.815.815,0,0,0,.085.392.844.844,0,0,0,.249.281,1.88,1.88,0,0,0,.4.223c.157.066.334.139.533.217a7.36,7.36,0,0,1,.715.313,2.453,2.453,0,0,1,.539.364,1.408,1.408,0,0,1,.343.465,1.505,1.505,0,0,1,.12.627,1.479,1.479,0,0,1-.2.774,1.693,1.693,0,0,1-.524.545,2.411,2.411,0,0,1-.756.322,3.748,3.748,0,0,1-.9.105A3.406,3.406,0,0,1,61.435,95.183Z" fill="#1e1e1e"/>
      <path d="M66.527,95.183V94.152a2.846,2.846,0,0,0,1.728.58q1.266,0,1.266-.844a.725.725,0,0,0-.109-.407,1.083,1.083,0,0,0-.293-.3,2.225,2.225,0,0,0-.433-.231q-.249-.1-.536-.214a6.954,6.954,0,0,1-.7-.32,2.079,2.079,0,0,1-.5-.363,1.345,1.345,0,0,1-.3-.46,1.613,1.613,0,0,1-.1-.6,1.435,1.435,0,0,1,.194-.748,1.712,1.712,0,0,1,.515-.544,2.386,2.386,0,0,1,.736-.331,3.223,3.223,0,0,1,.852-.112,3.437,3.437,0,0,1,1.4.27V90.5a2.722,2.722,0,0,0-1.524-.433,1.78,1.78,0,0,0-.486.061,1.185,1.185,0,0,0-.372.173.781.781,0,0,0-.24.267.7.7,0,0,0-.085.343.815.815,0,0,0,.085.392.844.844,0,0,0,.249.281,1.88,1.88,0,0,0,.4.223c.156.066.334.139.533.217a7.36,7.36,0,0,1,.715.313,2.453,2.453,0,0,1,.539.364,1.408,1.408,0,0,1,.343.465,1.505,1.505,0,0,1,.12.627,1.479,1.479,0,0,1-.2.774,1.685,1.685,0,0,1-.525.545,2.4,2.4,0,0,1-.755.322,3.754,3.754,0,0,1-.9.105A3.406,3.406,0,0,1,66.527,95.183Z" fill="#1e1e1e"/>
      <path d="M72.357,87.876a.61.61,0,0,1-.44-.175.6.6,0,0,1-.181-.446.615.615,0,0,1,.621-.627.622.622,0,0,1,.448.179.628.628,0,0,1,0,.888A.616.616,0,0,1,72.357,87.876Zm.468,7.524h-.961v-6h.961Z" fill="#1e1e1e"/>
      <path d="M77.2,95.54a2.787,2.787,0,0,1-2.124-.84,3.117,3.117,0,0,1-.794-2.23,3.242,3.242,0,0,1,.827-2.361,2.965,2.965,0,0,1,2.232-.85,2.694,2.694,0,0,1,2.095.826,3.277,3.277,0,0,1,.753,2.291,3.224,3.224,0,0,1-.812,2.3A2.843,2.843,0,0,1,77.2,95.54Zm.071-5.472a1.826,1.826,0,0,0-1.465.63,2.583,2.583,0,0,0-.539,1.737,2.445,2.445,0,0,0,.545,1.682,1.851,1.851,0,0,0,1.459.615,1.754,1.754,0,0,0,1.432-.6,2.616,2.616,0,0,0,.5-1.716,2.665,2.665,0,0,0-.5-1.735A1.748,1.748,0,0,0,77.273,90.068Z" fill="#1e1e1e"/>
      <path d="M86.652,95.4h-.961V91.978q0-1.911-1.395-1.91a1.51,1.51,0,0,0-1.192.542,2.005,2.005,0,0,0-.472,1.368V95.4h-.961v-6h.961v1h.023a2.167,2.167,0,0,1,1.969-1.137,1.836,1.836,0,0,1,1.506.636,2.83,2.83,0,0,1,.522,1.837Z" fill="#1e1e1e"/>
    </g>
    <g>
      <path d="M111.949,95.4H107.5V87h4.265v.891H108.48v2.8h3.035v.885H108.48v2.941h3.469Z" fill="#1e1e1e"/>
      <path d="M121.777,95.4h-.961V91.954a2.59,2.59,0,0,0-.308-1.441,1.165,1.165,0,0,0-1.034-.445,1.282,1.282,0,0,0-1.046.562,2.152,2.152,0,0,0-.43,1.348V95.4h-.961V91.837q0-1.769-1.365-1.769a1.265,1.265,0,0,0-1.043.53,2.191,2.191,0,0,0-.411,1.38V95.4h-.96v-6h.96v.949h.024a2.038,2.038,0,0,1,1.863-1.09,1.734,1.734,0,0,1,1.7,1.242,2.143,2.143,0,0,1,1.993-1.242q1.98,0,1.98,2.444Z" fill="#1e1e1e"/>
      <path d="M124.508,94.533h-.024V98.16h-.961V89.4h.961v1.054h.024a2.273,2.273,0,0,1,2.074-1.195,2.2,2.2,0,0,1,1.81.806,3.335,3.335,0,0,1,.651,2.159,3.713,3.713,0,0,1-.733,2.411,2.436,2.436,0,0,1-2,.905A2.006,2.006,0,0,1,124.508,94.533Zm-.024-2.42v.838a1.782,1.782,0,0,0,.483,1.262,1.724,1.724,0,0,0,2.6-.149,3.066,3.066,0,0,0,.495-1.858,2.416,2.416,0,0,0-.463-1.57,1.529,1.529,0,0,0-1.253-.568,1.7,1.7,0,0,0-1.348.583A2.139,2.139,0,0,0,124.484,92.113Z" fill="#1e1e1e"/>
      <path d="M131.5,95.4h-.961V86.517h.961Z" fill="#1e1e1e"/>
      <path d="M135.894,95.54a2.787,2.787,0,0,1-2.124-.84,3.117,3.117,0,0,1-.794-2.23,3.246,3.246,0,0,1,.826-2.361,2.969,2.969,0,0,1,2.233-.85,2.7,2.7,0,0,1,2.095.826,3.277,3.277,0,0,1,.753,2.291,3.224,3.224,0,0,1-.812,2.3A2.845,2.845,0,0,1,135.894,95.54Zm.071-5.472a1.826,1.826,0,0,0-1.465.63,2.583,2.583,0,0,0-.539,1.737,2.445,2.445,0,0,0,.545,1.682,1.851,1.851,0,0,0,1.459.615,1.754,1.754,0,0,0,1.432-.6,2.616,2.616,0,0,0,.5-1.716,2.665,2.665,0,0,0-.5-1.735A1.748,1.748,0,0,0,135.965,90.068Z" fill="#1e1e1e"/>
      <path d="M145.06,89.4l-2.76,6.961q-.738,1.863-2.074,1.863a2.192,2.192,0,0,1-.627-.076v-.861a1.791,1.791,0,0,0,.569.1,1.179,1.179,0,0,0,1.09-.867l.48-1.137L139.394,89.4h1.067l1.623,4.617c.019.059.06.211.123.457h.035c.019-.094.058-.242.117-.445l1.7-4.629Z" fill="#1e1e1e"/>
      <path d="M150.764,92.64h-4.236a2.245,2.245,0,0,0,.539,1.547,1.859,1.859,0,0,0,1.418.545,2.948,2.948,0,0,0,1.863-.668v.9a3.478,3.478,0,0,1-2.091.574,2.538,2.538,0,0,1-2-.817,3.347,3.347,0,0,1-.726-2.3,3.283,3.283,0,0,1,.794-2.282,2.544,2.544,0,0,1,1.972-.882,2.255,2.255,0,0,1,1.822.762,3.174,3.174,0,0,1,.644,2.115Zm-.984-.814a1.958,1.958,0,0,0-.4-1.295,1.367,1.367,0,0,0-1.1-.463,1.552,1.552,0,0,0-1.154.486,2.2,2.2,0,0,0-.586,1.272Z" fill="#1e1e1e"/>
      <path d="M157.076,92.64H152.84a2.24,2.24,0,0,0,.539,1.547,1.858,1.858,0,0,0,1.418.545,2.952,2.952,0,0,0,1.863-.668v.9a3.481,3.481,0,0,1-2.092.574,2.534,2.534,0,0,1-2-.817,3.347,3.347,0,0,1-.727-2.3,3.283,3.283,0,0,1,.794-2.282,2.547,2.547,0,0,1,1.972-.882,2.254,2.254,0,0,1,1.822.762,3.175,3.175,0,0,1,.645,2.115Zm-.984-.814a1.953,1.953,0,0,0-.4-1.295,1.367,1.367,0,0,0-1.1-.463,1.554,1.554,0,0,0-1.155.486,2.207,2.207,0,0,0-.586,1.272Z" fill="#1e1e1e"/>
      <path d="M158.789,95.529a.622.622,0,0,1-.46-.194.637.637,0,0,1-.191-.463.644.644,0,0,1,.191-.465.617.617,0,0,1,.46-.2.635.635,0,0,1,.469.2.642.642,0,0,1,.193.465.661.661,0,0,1-.662.657Z" fill="#1e1e1e"/>
      <path d="M170.577,87,168.2,95.4H167.05l-1.729-6.141a3.825,3.825,0,0,1-.134-.855h-.024a4.3,4.3,0,0,1-.152.843l-1.74,6.153h-1.143l-2.46-8.4h1.084l1.786,6.446a4.2,4.2,0,0,1,.141.844h.029a4.964,4.964,0,0,1,.182-.844L164.747,87h.944l1.781,6.493a4.861,4.861,0,0,1,.141.785h.023a4.731,4.731,0,0,1,.158-.809L169.511,87Z" fill="#1e1e1e"/>
      <path d="M174.494,90.372a1.18,1.18,0,0,0-.726-.193,1.228,1.228,0,0,0-1.029.58,2.685,2.685,0,0,0-.413,1.582V95.4h-.961v-6h.961v1.236h.024a2.1,2.1,0,0,1,.627-.987,1.425,1.425,0,0,1,.943-.355,1.579,1.579,0,0,1,.574.082Z" fill="#1e1e1e"/>
      <path d="M176.061,87.876a.61.61,0,0,1-.44-.175.6.6,0,0,1-.181-.446.615.615,0,0,1,.621-.627.62.62,0,0,1,.448.179.625.625,0,0,1,0,.888A.614.614,0,0,1,176.061,87.876Zm.468,7.524h-.96v-6h.96Z" fill="#1e1e1e"/>
      <path d="M181.209,95.341a1.849,1.849,0,0,1-.9.188q-1.576,0-1.576-1.758V90.22h-1.032V89.4h1.032V87.935l.96-.311V89.4h1.512v.82H179.7V93.6a1.4,1.4,0,0,0,.206.861.816.816,0,0,0,.679.258,1.01,1.01,0,0,0,.627-.2Z" fill="#1e1e1e"/>
      <path d="M187.212,92.64h-4.236a2.24,2.24,0,0,0,.539,1.547,1.859,1.859,0,0,0,1.418.545,2.948,2.948,0,0,0,1.863-.668v.9a3.481,3.481,0,0,1-2.092.574,2.537,2.537,0,0,1-2-.817,3.347,3.347,0,0,1-.726-2.3,3.278,3.278,0,0,1,.794-2.282,2.544,2.544,0,0,1,1.971-.882,2.258,2.258,0,0,1,1.823.762,3.18,3.18,0,0,1,.644,2.115Zm-.984-.814a1.953,1.953,0,0,0-.4-1.295,1.365,1.365,0,0,0-1.1-.463,1.555,1.555,0,0,0-1.155.486,2.206,2.206,0,0,0-.585,1.272Z" fill="#1e1e1e"/>
      <path d="M188.925,95.529a.622.622,0,0,1-.46-.194.636.636,0,0,1-.19-.463.644.644,0,0,1,.19-.465.617.617,0,0,1,.46-.2.66.66,0,1,1,0,1.319Z" fill="#1e1e1e"/>
      <path d="M198.193,95.4H197.1l-.891-2.356H192.65l-.838,2.356h-1.1l3.223-8.4h1.019Zm-2.3-3.24-1.319-3.581a3.539,3.539,0,0,1-.128-.562h-.024a3.1,3.1,0,0,1-.135.562l-1.306,3.581Z" fill="#1e1e1e"/>
      <path d="M200.254,95.4h-.961V86.517h.961Z" fill="#1e1e1e"/>
      <path d="M203.033,95.4h-.961V86.517h.961Z" fill="#1e1e1e"/>
    </g>
    <g>
      <path d="M336.53,2.08l-2.22,8.4h-2.1l-1.394-5.391a4.4,4.4,0,0,1-.135-.943h-.024a5.752,5.752,0,0,1-.152.943l-1.43,5.391h-2.185l-2.209-8.4h2.068l1.184,5.6a6.6,6.6,0,0,1,.111.961h.035a4.708,4.708,0,0,1,.17-.984l1.524-5.573H331.8l1.377,5.643a6.86,6.86,0,0,1,.135.9h.023a6.142,6.142,0,0,1,.123-.937l1.16-5.608Z" fill="#1e1e1e"/>
      <path d="M342.481,8.01h-3.914q.093,1.307,1.646,1.307a3.21,3.21,0,0,0,1.74-.469v1.336a4.567,4.567,0,0,1-2.162.445,3.045,3.045,0,0,1-2.256-.8,3.049,3.049,0,0,1-.8-2.247,3.215,3.215,0,0,1,.866-2.368,2.889,2.889,0,0,1,2.133-.873,2.623,2.623,0,0,1,2.031.78,3,3,0,0,1,.717,2.115Zm-1.717-1.137q0-1.288-1.043-1.289a.993.993,0,0,0-.77.37,1.68,1.68,0,0,0-.4.919Z" fill="#1e1e1e"/>
      <path d="M345.534,9.786h-.023v.7h-1.852V1.6h1.852V5.385h.023a2.2,2.2,0,0,1,1.952-1.049,2.142,2.142,0,0,1,1.787.8,3.437,3.437,0,0,1,.627,2.18,3.722,3.722,0,0,1-.733,2.408,2.383,2.383,0,0,1-1.957.908A1.892,1.892,0,0,1,345.534,9.786Zm-.052-2.532V7.87a1.4,1.4,0,0,0,.334.96,1.084,1.084,0,0,0,.855.381,1.137,1.137,0,0,0,.982-.489A2.365,2.365,0,0,0,348,7.336a1.88,1.88,0,0,0-.319-1.163,1.079,1.079,0,0,0-.911-.419,1.178,1.178,0,0,0-.923.416A1.583,1.583,0,0,0,345.482,7.254Z" fill="#1e1e1e"/>
      <path d="M361.982,10.483h-2.063l-.6-1.869h-2.988l-.592,1.869h-2.05l3.058-8.4h2.244Zm-3.094-3.322-.9-2.825a3.619,3.619,0,0,1-.141-.756H357.8a3.175,3.175,0,0,1-.146.733l-.914,2.848Z" fill="#1e1e1e"/>
      <path d="M364.829,7.588v2.9h-1.892V2.08H365.9q3.175,0,3.175,2.678a2.567,2.567,0,0,1-.911,2.048,3.606,3.606,0,0,1-2.434.782Zm0-4.054V6.153h.744q1.512,0,1.512-1.324,0-1.3-1.512-1.295Z" fill="#1e1e1e"/>
      <path d="M372.042,10.483H370.15V2.08h1.892Z" fill="#1e1e1e"/>
      <path d="M381,6.153a1.6,1.6,0,0,0-.779-.182,1.124,1.124,0,0,0-.943.442,1.93,1.93,0,0,0-.34,1.205v2.865h-1.852v-6h1.852V5.6h.023a1.6,1.6,0,0,1,1.582-1.219,1.184,1.184,0,0,1,.457.071Z" fill="#1e1e1e"/>
      <path d="M387.322,8.01h-3.914q.094,1.307,1.647,1.307a3.21,3.21,0,0,0,1.74-.469v1.336a4.57,4.57,0,0,1-2.162.445,3.043,3.043,0,0,1-2.256-.8,3.046,3.046,0,0,1-.8-2.247,3.208,3.208,0,0,1,.868-2.368,2.888,2.888,0,0,1,2.132-.873,2.623,2.623,0,0,1,2.031.78,3,3,0,0,1,.717,2.115Zm-1.716-1.137q0-1.288-1.043-1.289a1,1,0,0,0-.771.37,1.672,1.672,0,0,0-.395.919Z" fill="#1e1e1e"/>
      <path d="M394.41,9.8a3.4,3.4,0,0,1-.966,2.587,3.918,3.918,0,0,1-2.8.917,4.432,4.432,0,0,1-1.922-.346V11.4a3.683,3.683,0,0,0,1.869.539,2.014,2.014,0,0,0,1.453-.495,1.777,1.777,0,0,0,.516-1.345V9.621h-.024a2.068,2.068,0,0,1-1.869,1.008,2.248,2.248,0,0,1-1.822-.808,3.281,3.281,0,0,1-.674-2.168,3.651,3.651,0,0,1,.75-2.42,2.448,2.448,0,0,1,1.975-.9,1.822,1.822,0,0,1,1.64.844h.024v-.7h1.851Zm-1.828-2.2V7.125a1.453,1.453,0,0,0-.337-.969,1.087,1.087,0,0,0-.876-.4,1.13,1.13,0,0,0-.966.481,2.253,2.253,0,0,0-.352,1.353,1.906,1.906,0,0,0,.334,1.187,1.088,1.088,0,0,0,.914.436,1.134,1.134,0,0,0,.929-.442A1.817,1.817,0,0,0,392.582,7.6Z" fill="#1e1e1e"/>
      <path d="M396.867,3.534a1.079,1.079,0,0,1-.767-.279.9.9,0,0,1-.3-.682.866.866,0,0,1,.3-.68,1.252,1.252,0,0,1,1.538,0,.87.87,0,0,1,.3.68.894.894,0,0,1-.3.691A1.1,1.1,0,0,1,396.867,3.534Zm.914,6.949H395.93v-6h1.851Z" fill="#1e1e1e"/>
      <path d="M399.024,10.325v-1.5a3.954,3.954,0,0,0,.911.41,3.018,3.018,0,0,0,.858.135,1.844,1.844,0,0,0,.777-.135.436.436,0,0,0,.284-.41.378.378,0,0,0-.129-.293,1.184,1.184,0,0,0-.331-.205,3.678,3.678,0,0,0-.443-.159c-.16-.047-.314-.1-.463-.158a4.368,4.368,0,0,1-.629-.29,1.817,1.817,0,0,1-.457-.36,1.43,1.43,0,0,1-.282-.475,1.906,1.906,0,0,1-.1-.639,1.65,1.65,0,0,1,.219-.867,1.8,1.8,0,0,1,.586-.594,2.658,2.658,0,0,1,.838-.34,4.334,4.334,0,0,1,.982-.109,5.443,5.443,0,0,1,.808.062,5.9,5.9,0,0,1,.809.179V6.006a2.951,2.951,0,0,0-.753-.307,3.148,3.148,0,0,0-.788-.1,1.784,1.784,0,0,0-.343.032,1.155,1.155,0,0,0-.284.094.529.529,0,0,0-.194.158.372.372,0,0,0-.07.22.4.4,0,0,0,.106.281.9.9,0,0,0,.275.2,2.655,2.655,0,0,0,.378.153c.139.045.276.091.413.137a5.306,5.306,0,0,1,.668.282,2.126,2.126,0,0,1,.513.357,1.41,1.41,0,0,1,.328.481,1.707,1.707,0,0,1,.114.656,1.715,1.715,0,0,1-.231.911,1.858,1.858,0,0,1-.616.615,2.776,2.776,0,0,1-.884.346,4.925,4.925,0,0,1-1.04.108A5.359,5.359,0,0,1,399.024,10.325Z" fill="#1e1e1e"/>
      <path d="M408.3,10.412a2.727,2.727,0,0,1-1.236.217q-1.958,0-1.957-2.033V5.848h-.973V4.483h.973V3.188l1.845-.527V4.483H408.3V5.848h-1.348V8.274q0,.938.745.937a1.246,1.246,0,0,0,.6-.17Z" fill="#1e1e1e"/>
      <path d="M413.376,6.153a1.6,1.6,0,0,0-.779-.182,1.124,1.124,0,0,0-.943.442,1.93,1.93,0,0,0-.34,1.205v2.865h-1.852v-6h1.852V5.6h.023a1.6,1.6,0,0,1,1.582-1.219,1.188,1.188,0,0,1,.457.071Z" fill="#1e1e1e"/>
      <path d="M419.149,10.483H417.4V9.621h-.024a1.955,1.955,0,0,1-1.787,1.008,1.87,1.87,0,0,1-1.374-.495,1.773,1.773,0,0,1-.5-1.321q0-1.746,2.068-2.016l1.629-.217q0-.984-1.066-.984a3.637,3.637,0,0,0-2.039.639V4.84a4.549,4.549,0,0,1,1.058-.351,5.531,5.531,0,0,1,1.221-.153A2.267,2.267,0,0,1,419.149,6.9Zm-1.741-2.438v-.4l-1.089.141q-.9.117-.9.814a.673.673,0,0,0,.22.519.848.848,0,0,0,.595.2,1.093,1.093,0,0,0,.849-.361A1.3,1.3,0,0,0,417.408,8.045Z" fill="#1e1e1e"/>
      <path d="M424.154,10.412a2.734,2.734,0,0,1-1.237.217q-1.956,0-1.957-2.033V5.848h-.972V4.483h.972V3.188l1.846-.527V4.483h1.348V5.848h-1.348V8.274q0,.938.744.937a1.252,1.252,0,0,0,.6-.17Z" fill="#1e1e1e"/>
      <path d="M426.2,3.534a1.079,1.079,0,0,1-.767-.279.9.9,0,0,1-.3-.682.866.866,0,0,1,.3-.68,1.252,1.252,0,0,1,1.538,0,.87.87,0,0,1,.3.68.894.894,0,0,1-.3.691A1.1,1.1,0,0,1,426.2,3.534Zm.914,6.949h-1.851v-6h1.851Z" fill="#1e1e1e"/>
      <path d="M431.505,10.629a3.222,3.222,0,0,1-2.358-.841,3.044,3.044,0,0,1-.859-2.282,3.048,3.048,0,0,1,.891-2.329,3.367,3.367,0,0,1,2.408-.841,3.19,3.19,0,0,1,2.344.841A2.991,2.991,0,0,1,434.78,7.4a3.172,3.172,0,0,1-.876,2.361A3.258,3.258,0,0,1,431.505,10.629Zm.047-4.875a1.238,1.238,0,0,0-1.02.451,1.993,1.993,0,0,0-.363,1.278q0,1.728,1.4,1.728,1.329,0,1.33-1.775Q432.894,5.755,431.552,5.754Z" fill="#1e1e1e"/>
      <path d="M441.769,10.483h-1.846V7.149q0-1.395-1-1.4a.989.989,0,0,0-.791.369,1.41,1.41,0,0,0-.311.938v3.422h-1.851v-6h1.851v.949h.024a2.123,2.123,0,0,1,1.928-1.1q1.992,0,1.992,2.473Z" fill="#1e1e1e"/>
    </g>
    <g>
      <path d="M407.909,55.46V54.3a2.268,2.268,0,0,0,.478.317,3.987,3.987,0,0,0,.586.237,4.705,4.705,0,0,0,.618.149,3.46,3.46,0,0,0,.574.053,2.248,2.248,0,0,0,1.357-.337,1.264,1.264,0,0,0,.3-1.561,1.68,1.68,0,0,0-.414-.46,4,4,0,0,0-.624-.4q-.36-.191-.776-.4-.44-.224-.82-.451a3.589,3.589,0,0,1-.662-.5,2.116,2.116,0,0,1-.443-.624,2.129,2.129,0,0,1,.091-1.817,2.171,2.171,0,0,1,.662-.7,3.023,3.023,0,0,1,.935-.41,4.268,4.268,0,0,1,1.069-.135,4.1,4.1,0,0,1,1.811.3v1.107a3.289,3.289,0,0,0-1.911-.515,3.138,3.138,0,0,0-.644.067,1.81,1.81,0,0,0-.574.22,1.264,1.264,0,0,0-.41.393,1.036,1.036,0,0,0-.159.585,1.208,1.208,0,0,0,.12.557,1.387,1.387,0,0,0,.355.428,3.531,3.531,0,0,0,.571.375q.338.181.777.4c.3.149.586.3.855.469a3.9,3.9,0,0,1,.709.545,2.419,2.419,0,0,1,.483.662,1.851,1.851,0,0,1,.179.832,2.112,2.112,0,0,1-.243,1.052,2,2,0,0,1-.656.7,2.866,2.866,0,0,1-.952.39,5.229,5.229,0,0,1-1.137.12,4.745,4.745,0,0,1-.492-.032q-.294-.033-.6-.094a4.809,4.809,0,0,1-.577-.153A1.756,1.756,0,0,1,407.909,55.46Z" fill="#1e1e1e"/>
      <path d="M418.612,55.525a3.127,3.127,0,0,1-1.641.416,2.717,2.717,0,0,1-2.071-.835,3.023,3.023,0,0,1-.788-2.165,3.329,3.329,0,0,1,.849-2.382,2.971,2.971,0,0,1,2.268-.9,3.145,3.145,0,0,1,1.394.293v.984a2.439,2.439,0,0,0-1.429-.469,1.932,1.932,0,0,0-1.509.659,2.5,2.5,0,0,0-.589,1.732,2.377,2.377,0,0,0,.554,1.664,1.908,1.908,0,0,0,1.485.609,2.414,2.414,0,0,0,1.477-.521Z" fill="#1e1e1e"/>
      <path d="M422.429,55.941a2.781,2.781,0,0,1-2.124-.841,3.117,3.117,0,0,1-.794-2.229,3.246,3.246,0,0,1,.826-2.362,2.972,2.972,0,0,1,2.233-.849,2.689,2.689,0,0,1,2.094.826,3.275,3.275,0,0,1,.753,2.291,3.225,3.225,0,0,1-.811,2.3A2.845,2.845,0,0,1,422.429,55.941Zm.07-5.473a1.829,1.829,0,0,0-1.465.63,2.589,2.589,0,0,0-.539,1.737,2.449,2.449,0,0,0,.545,1.682,1.854,1.854,0,0,0,1.459.615,1.758,1.758,0,0,0,1.433-.6,2.621,2.621,0,0,0,.5-1.717,2.662,2.662,0,0,0-.5-1.734A1.748,1.748,0,0,0,422.5,50.468Z" fill="#1e1e1e"/>
      <path d="M427.882,54.933h-.023V58.56H426.9V49.8h.961v1.055h.023a2.272,2.272,0,0,1,2.074-1.2,2.2,2.2,0,0,1,1.811.805,3.34,3.34,0,0,1,.65,2.159,3.724,3.724,0,0,1-.732,2.412,2.441,2.441,0,0,1-2,.905A2.008,2.008,0,0,1,427.882,54.933Zm-.023-2.42v.838a1.786,1.786,0,0,0,.483,1.263,1.725,1.725,0,0,0,2.6-.15,3.063,3.063,0,0,0,.5-1.857,2.414,2.414,0,0,0-.463-1.57,1.533,1.533,0,0,0-1.254-.569,1.7,1.7,0,0,0-1.348.583A2.145,2.145,0,0,0,427.859,52.513Z" fill="#1e1e1e"/>
      <path d="M438.775,53.04h-4.237a2.249,2.249,0,0,0,.539,1.547,1.857,1.857,0,0,0,1.418.545,2.947,2.947,0,0,0,1.864-.668v.9a3.49,3.49,0,0,1-2.092.574,2.535,2.535,0,0,1-2-.818,3.339,3.339,0,0,1-.727-2.3,3.284,3.284,0,0,1,.794-2.283,2.548,2.548,0,0,1,1.972-.881,2.255,2.255,0,0,1,1.822.761,3.176,3.176,0,0,1,.645,2.116Zm-.985-.814a1.954,1.954,0,0,0-.4-1.3,1.367,1.367,0,0,0-1.1-.463,1.552,1.552,0,0,0-1.154.486,2.213,2.213,0,0,0-.586,1.272Z" fill="#1e1e1e"/>
    </g>
    <g>
      <path d="M407.909,95.06V93.9a2.266,2.266,0,0,0,.478.316,3.883,3.883,0,0,0,.586.238,4.705,4.705,0,0,0,.618.149,3.46,3.46,0,0,0,.574.053,2.255,2.255,0,0,0,1.357-.337,1.266,1.266,0,0,0,.3-1.562,1.694,1.694,0,0,0-.414-.46,4.077,4.077,0,0,0-.624-.4q-.36-.19-.776-.4-.44-.222-.82-.451a3.5,3.5,0,0,1-.662-.5,2.09,2.09,0,0,1-.443-.624,2.127,2.127,0,0,1,.091-1.816,2.161,2.161,0,0,1,.662-.7,2.977,2.977,0,0,1,.935-.41,4.268,4.268,0,0,1,1.069-.135,4.089,4.089,0,0,1,1.811.3v1.107a3.281,3.281,0,0,0-1.911-.516,3.139,3.139,0,0,0-.644.068,1.81,1.81,0,0,0-.574.22,1.261,1.261,0,0,0-.41.392,1.039,1.039,0,0,0-.159.586,1.211,1.211,0,0,0,.12.557,1.373,1.373,0,0,0,.355.427,3.531,3.531,0,0,0,.571.375c.225.122.484.254.777.4s.586.3.855.469a3.853,3.853,0,0,1,.709.545,2.4,2.4,0,0,1,.483.662,1.848,1.848,0,0,1,.179.832,2.108,2.108,0,0,1-.243,1.051,2,2,0,0,1-.656.7,2.886,2.886,0,0,1-.952.389,5.229,5.229,0,0,1-1.137.12,4.481,4.481,0,0,1-.492-.032c-.2-.021-.4-.053-.6-.094a4.81,4.81,0,0,1-.577-.152A1.793,1.793,0,0,1,407.909,95.06Z" fill="#1e1e1e"/>
      <path d="M418.612,95.124a3.117,3.117,0,0,1-1.641.416,2.713,2.713,0,0,1-2.071-.835,3.022,3.022,0,0,1-.788-2.165,3.325,3.325,0,0,1,.849-2.381,2.972,2.972,0,0,1,2.268-.9,3.158,3.158,0,0,1,1.394.293v.985a2.439,2.439,0,0,0-1.429-.469,1.929,1.929,0,0,0-1.509.659,2.5,2.5,0,0,0-.589,1.731,2.376,2.376,0,0,0,.554,1.664,1.906,1.906,0,0,0,1.485.61,2.409,2.409,0,0,0,1.477-.522Z" fill="#1e1e1e"/>
      <path d="M422.429,95.54a2.784,2.784,0,0,1-2.124-.84,3.117,3.117,0,0,1-.794-2.23,3.242,3.242,0,0,1,.826-2.361,2.969,2.969,0,0,1,2.233-.85,2.693,2.693,0,0,1,2.094.826,3.277,3.277,0,0,1,.753,2.291,3.223,3.223,0,0,1-.811,2.3A2.845,2.845,0,0,1,422.429,95.54Zm.07-5.472a1.829,1.829,0,0,0-1.465.63,2.589,2.589,0,0,0-.539,1.737,2.45,2.45,0,0,0,.545,1.682,1.854,1.854,0,0,0,1.459.615,1.756,1.756,0,0,0,1.433-.6,2.616,2.616,0,0,0,.5-1.716,2.665,2.665,0,0,0-.5-1.735A1.75,1.75,0,0,0,422.5,90.068Z" fill="#1e1e1e"/>
      <path d="M427.882,94.533h-.023V98.16H426.9V89.4h.961v1.054h.023a2.274,2.274,0,0,1,2.074-1.195,2.2,2.2,0,0,1,1.811.806,3.34,3.34,0,0,1,.65,2.159,3.719,3.719,0,0,1-.732,2.411,2.438,2.438,0,0,1-2,.905A2.009,2.009,0,0,1,427.882,94.533Zm-.023-2.42v.838a1.782,1.782,0,0,0,.483,1.262,1.724,1.724,0,0,0,2.6-.149,3.066,3.066,0,0,0,.5-1.858,2.416,2.416,0,0,0-.463-1.57,1.533,1.533,0,0,0-1.254-.568,1.7,1.7,0,0,0-1.348.583A2.143,2.143,0,0,0,427.859,92.113Z" fill="#1e1e1e"/>
      <path d="M438.775,92.64h-4.237a2.249,2.249,0,0,0,.539,1.547,1.861,1.861,0,0,0,1.418.545,2.953,2.953,0,0,0,1.864-.668v.9a3.483,3.483,0,0,1-2.092.574,2.534,2.534,0,0,1-2-.817,3.342,3.342,0,0,1-.727-2.3,3.283,3.283,0,0,1,.794-2.282,2.546,2.546,0,0,1,1.972-.882,2.255,2.255,0,0,1,1.822.762,3.175,3.175,0,0,1,.645,2.115Zm-.985-.814a1.952,1.952,0,0,0-.4-1.295,1.367,1.367,0,0,0-1.1-.463,1.552,1.552,0,0,0-1.154.486,2.207,2.207,0,0,0-.586,1.272Z" fill="#1e1e1e"/>
    </g>
    <g>
      <path d="M294.909,55.8h-4.453V47.4h4.266v.89h-3.281v2.8h3.035v.885h-3.035V54.91h3.468Z" fill="#1e1e1e"/>
      <path d="M304.738,55.8h-.961V52.355a2.6,2.6,0,0,0-.308-1.442,1.169,1.169,0,0,0-1.034-.445,1.281,1.281,0,0,0-1.046.563,2.152,2.152,0,0,0-.431,1.347V55.8H300V52.238q0-1.77-1.365-1.77a1.266,1.266,0,0,0-1.043.53,2.2,2.2,0,0,0-.41,1.38V55.8h-.961v-6h.961v.949h.023a2.039,2.039,0,0,1,1.864-1.089,1.731,1.731,0,0,1,1.7,1.242,2.14,2.14,0,0,1,1.992-1.242q1.98,0,1.981,2.443Z" fill="#1e1e1e"/>
      <path d="M307.468,54.933h-.023V58.56h-.961V49.8h.961v1.055h.023a2.272,2.272,0,0,1,2.074-1.2,2.2,2.2,0,0,1,1.811.805,3.34,3.34,0,0,1,.65,2.159,3.724,3.724,0,0,1-.732,2.412,2.442,2.442,0,0,1-2,.905A2.007,2.007,0,0,1,307.468,54.933Zm-.023-2.42v.838a1.786,1.786,0,0,0,.483,1.263,1.725,1.725,0,0,0,2.6-.15,3.063,3.063,0,0,0,.5-1.857,2.42,2.42,0,0,0-.463-1.57,1.533,1.533,0,0,0-1.254-.569,1.7,1.7,0,0,0-1.348.583A2.14,2.14,0,0,0,307.445,52.513Z" fill="#1e1e1e"/>
      <path d="M314.456,55.8H313.5V46.917h.961Z" fill="#1e1e1e"/>
      <path d="M318.855,55.941a2.781,2.781,0,0,1-2.124-.841,3.112,3.112,0,0,1-.794-2.229,3.246,3.246,0,0,1,.826-2.362A2.971,2.971,0,0,1,319,49.66a2.69,2.69,0,0,1,2.095.826,3.275,3.275,0,0,1,.753,2.291,3.226,3.226,0,0,1-.812,2.3A2.843,2.843,0,0,1,318.855,55.941Zm.07-5.473a1.829,1.829,0,0,0-1.465.63,2.589,2.589,0,0,0-.539,1.737,2.449,2.449,0,0,0,.545,1.682,1.852,1.852,0,0,0,1.459.615,1.758,1.758,0,0,0,1.433-.6,2.621,2.621,0,0,0,.5-1.717,2.662,2.662,0,0,0-.5-1.734A1.748,1.748,0,0,0,318.925,50.468Z" fill="#1e1e1e"/>
      <path d="M328.021,49.8l-2.76,6.961q-.738,1.863-2.074,1.863a2.192,2.192,0,0,1-.627-.076v-.861a1.785,1.785,0,0,0,.568.105,1.177,1.177,0,0,0,1.09-.867l.48-1.137L322.355,49.8h1.066l1.623,4.617c.02.059.061.211.123.457h.035c.02-.093.059-.242.118-.445l1.7-4.629Z" fill="#1e1e1e"/>
      <path d="M333.725,53.04h-4.237a2.245,2.245,0,0,0,.54,1.547,1.854,1.854,0,0,0,1.418.545,2.946,2.946,0,0,0,1.863-.668v.9a3.49,3.49,0,0,1-2.092.574,2.535,2.535,0,0,1-2-.818,3.344,3.344,0,0,1-.727-2.3,3.284,3.284,0,0,1,.794-2.283,2.55,2.55,0,0,1,1.972-.881,2.253,2.253,0,0,1,1.822.761,3.176,3.176,0,0,1,.645,2.116Zm-.985-.814a1.949,1.949,0,0,0-.4-1.3,1.367,1.367,0,0,0-1.1-.463,1.553,1.553,0,0,0-1.154.486,2.213,2.213,0,0,0-.586,1.272Z" fill="#1e1e1e"/>
      <path d="M340.036,53.04H335.8a2.245,2.245,0,0,0,.539,1.547,1.856,1.856,0,0,0,1.418.545,2.942,2.942,0,0,0,1.863-.668v.9a3.485,3.485,0,0,1-2.091.574,2.539,2.539,0,0,1-2-.818,3.344,3.344,0,0,1-.726-2.3,3.284,3.284,0,0,1,.794-2.283,2.547,2.547,0,0,1,1.972-.881,2.255,2.255,0,0,1,1.822.761,3.181,3.181,0,0,1,.644,2.116Zm-.984-.814a1.96,1.96,0,0,0-.4-1.3,1.367,1.367,0,0,0-1.1-.463,1.552,1.552,0,0,0-1.154.486,2.207,2.207,0,0,0-.586,1.272Z" fill="#1e1e1e"/>
      <path d="M341.749,55.929a.623.623,0,0,1-.46-.193.636.636,0,0,1-.19-.463.646.646,0,0,1,.19-.466.618.618,0,0,1,.46-.2.633.633,0,0,1,.469.2.641.641,0,0,1,.193.466.631.631,0,0,1-.193.463A.638.638,0,0,1,341.749,55.929Z" fill="#1e1e1e"/>
      <path d="M350.217,55.8h-1.172l-1.406-2.355a5.113,5.113,0,0,0-.375-.56,2.155,2.155,0,0,0-.372-.378,1.309,1.309,0,0,0-.41-.214,1.689,1.689,0,0,0-.5-.067h-.809V55.8h-.984V47.4H346.7a3.568,3.568,0,0,1,1.017.138,2.27,2.27,0,0,1,.809.418,1.954,1.954,0,0,1,.536.7,2.317,2.317,0,0,1,.193.981,2.362,2.362,0,0,1-.132.806,2.1,2.1,0,0,1-.375.653,2.236,2.236,0,0,1-.586.489,2.967,2.967,0,0,1-.77.314v.023a1.827,1.827,0,0,1,.366.214,2.018,2.018,0,0,1,.3.284,3.914,3.914,0,0,1,.278.372q.138.209.308.484Zm-5.039-7.512v3.047h1.336a2.024,2.024,0,0,0,.682-.111,1.583,1.583,0,0,0,.542-.319,1.447,1.447,0,0,0,.358-.51,1.706,1.706,0,0,0,.129-.677,1.318,1.318,0,0,0-.437-1.052,1.874,1.874,0,0,0-1.262-.378Z" fill="#1e1e1e"/>
      <path d="M355.894,53.04h-4.237a2.249,2.249,0,0,0,.539,1.547,1.857,1.857,0,0,0,1.418.545,2.947,2.947,0,0,0,1.864-.668v.9a3.49,3.49,0,0,1-2.092.574,2.535,2.535,0,0,1-2-.818,3.344,3.344,0,0,1-.727-2.3,3.284,3.284,0,0,1,.794-2.283,2.55,2.55,0,0,1,1.972-.881,2.253,2.253,0,0,1,1.822.761,3.176,3.176,0,0,1,.645,2.116Zm-.985-.814a1.954,1.954,0,0,0-.4-1.3,1.367,1.367,0,0,0-1.1-.463,1.552,1.552,0,0,0-1.154.486,2.213,2.213,0,0,0-.586,1.272Z" fill="#1e1e1e"/>
      <path d="M361.594,55.8h-.961v-.937h-.023a2.014,2.014,0,0,1-1.846,1.078,1.967,1.967,0,0,1-1.4-.475,1.643,1.643,0,0,1-.507-1.26q0-1.681,1.98-1.957l1.8-.252q0-1.528-1.236-1.529a2.954,2.954,0,0,0-1.957.738v-.984a3.715,3.715,0,0,1,2.039-.562q2.115,0,2.115,2.238Zm-.961-3.035-1.447.2a2.354,2.354,0,0,0-1.008.331.955.955,0,0,0-.34.841.917.917,0,0,0,.314.718,1.213,1.213,0,0,0,.835.278,1.541,1.541,0,0,0,1.18-.5,1.788,1.788,0,0,0,.466-1.268Z" fill="#1e1e1e"/>
      <path d="M368.52,55.8h-.961V54.781h-.024a2.218,2.218,0,0,1-2.062,1.16,2.242,2.242,0,0,1-1.808-.806,3.3,3.3,0,0,1-.677-2.194,3.6,3.6,0,0,1,.75-2.385,2.473,2.473,0,0,1,2-.9,1.923,1.923,0,0,1,1.8.972h.024V46.917h.961Zm-.961-2.713V52.2a1.714,1.714,0,0,0-.481-1.231,1.61,1.61,0,0,0-1.218-.5,1.659,1.659,0,0,0-1.383.645,2.822,2.822,0,0,0-.5,1.781,2.544,2.544,0,0,0,.483,1.638,1.582,1.582,0,0,0,1.3.6,1.641,1.641,0,0,0,1.3-.58A2.162,2.162,0,0,0,367.559,53.087Z" fill="#1e1e1e"/>
      <path d="M370.766,55.929a.621.621,0,0,1-.46-.193.637.637,0,0,1-.191-.463.647.647,0,0,1,.191-.466.616.616,0,0,1,.46-.2.634.634,0,0,1,.469.2.645.645,0,0,1,.193.466.659.659,0,0,1-.662.656Z" fill="#1e1e1e"/>
      <path d="M380.033,55.8h-1.089l-.891-2.355H374.49l-.837,2.355h-1.1l3.222-8.4h1.02Zm-2.3-3.24-1.319-3.58a3.425,3.425,0,0,1-.129-.563h-.023a3.109,3.109,0,0,1-.135.563l-1.306,3.58Z" fill="#1e1e1e"/>
      <path d="M382.094,55.8h-.961V46.917h.961Z" fill="#1e1e1e"/>
      <path d="M384.873,55.8h-.961V46.917h.961Z" fill="#1e1e1e"/>
    </g>
    <g>
      <path d="M294.349,95.4H289.9V87h4.265v.891H290.88v2.8h3.035v.885H290.88v2.941h3.469Z" fill="#1e1e1e"/>
      <path d="M304.177,95.4h-.961V91.954a2.6,2.6,0,0,0-.308-1.441,1.165,1.165,0,0,0-1.034-.445,1.28,1.28,0,0,0-1.046.562,2.152,2.152,0,0,0-.43,1.348V95.4h-.961V91.837q0-1.769-1.366-1.769a1.265,1.265,0,0,0-1.042.53,2.191,2.191,0,0,0-.411,1.38V95.4h-.961v-6h.961v.949h.024a2.038,2.038,0,0,1,1.863-1.09,1.734,1.734,0,0,1,1.7,1.242,2.142,2.142,0,0,1,1.992-1.242q1.981,0,1.981,2.444Z" fill="#1e1e1e"/>
      <path d="M306.907,94.533h-.023V98.16h-.961V89.4h.961v1.054h.023a2.274,2.274,0,0,1,2.075-1.195,2.2,2.2,0,0,1,1.81.806,3.335,3.335,0,0,1,.651,2.159,3.719,3.719,0,0,1-.733,2.411,2.436,2.436,0,0,1-2,.905A2.009,2.009,0,0,1,306.907,94.533Zm-.023-2.42v.838a1.782,1.782,0,0,0,.483,1.262,1.724,1.724,0,0,0,2.6-.149,3.066,3.066,0,0,0,.5-1.858,2.416,2.416,0,0,0-.463-1.57,1.53,1.53,0,0,0-1.254-.568,1.7,1.7,0,0,0-1.347.583A2.139,2.139,0,0,0,306.884,92.113Z" fill="#1e1e1e"/>
      <path d="M313.9,95.4h-.961V86.517h.961Z" fill="#1e1e1e"/>
      <path d="M318.294,95.54a2.784,2.784,0,0,1-2.124-.84,3.117,3.117,0,0,1-.794-2.23,3.246,3.246,0,0,1,.826-2.361,2.969,2.969,0,0,1,2.233-.85,2.691,2.691,0,0,1,2.094.826,3.277,3.277,0,0,1,.753,2.291,3.223,3.223,0,0,1-.811,2.3A2.845,2.845,0,0,1,318.294,95.54Zm.07-5.472a1.826,1.826,0,0,0-1.464.63,2.583,2.583,0,0,0-.539,1.737,2.45,2.45,0,0,0,.544,1.682,1.854,1.854,0,0,0,1.459.615,1.755,1.755,0,0,0,1.433-.6,2.616,2.616,0,0,0,.5-1.716,2.665,2.665,0,0,0-.5-1.735A1.749,1.749,0,0,0,318.364,90.068Z" fill="#1e1e1e"/>
      <path d="M327.46,89.4l-2.76,6.961q-.738,1.863-2.074,1.863a2.192,2.192,0,0,1-.627-.076v-.861a1.791,1.791,0,0,0,.569.1,1.177,1.177,0,0,0,1.089-.867l.481-1.137L321.794,89.4h1.067l1.623,4.617c.019.059.06.211.123.457h.035c.019-.094.058-.242.117-.445l1.7-4.629Z" fill="#1e1e1e"/>
      <path d="M333.164,92.64h-4.236a2.245,2.245,0,0,0,.539,1.547,1.859,1.859,0,0,0,1.418.545,2.948,2.948,0,0,0,1.863-.668v.9a3.479,3.479,0,0,1-2.092.574,2.537,2.537,0,0,1-2-.817,3.347,3.347,0,0,1-.726-2.3,3.278,3.278,0,0,1,.794-2.282,2.544,2.544,0,0,1,1.971-.882,2.256,2.256,0,0,1,1.823.762,3.18,3.18,0,0,1,.644,2.115Zm-.984-.814a1.958,1.958,0,0,0-.4-1.295,1.367,1.367,0,0,0-1.1-.463,1.552,1.552,0,0,0-1.154.486,2.2,2.2,0,0,0-.586,1.272Z" fill="#1e1e1e"/>
      <path d="M339.476,92.64h-4.237a2.245,2.245,0,0,0,.54,1.547,1.857,1.857,0,0,0,1.417.545,2.953,2.953,0,0,0,1.864-.668v.9a3.483,3.483,0,0,1-2.092.574,2.534,2.534,0,0,1-2-.817,3.347,3.347,0,0,1-.727-2.3,3.283,3.283,0,0,1,.794-2.282,2.547,2.547,0,0,1,1.972-.882,2.254,2.254,0,0,1,1.822.762,3.175,3.175,0,0,1,.645,2.115Zm-.985-.814a1.947,1.947,0,0,0-.4-1.295,1.367,1.367,0,0,0-1.1-.463,1.553,1.553,0,0,0-1.154.486,2.207,2.207,0,0,0-.586,1.272Z" fill="#1e1e1e"/>
      <path d="M341.189,95.529a.622.622,0,0,1-.46-.194.637.637,0,0,1-.191-.463.644.644,0,0,1,.191-.465.617.617,0,0,1,.46-.2.632.632,0,0,1,.468.2.639.639,0,0,1,.194.465.662.662,0,0,1-.662.657Z" fill="#1e1e1e"/>
      <path d="M352.978,87l-2.373,8.4H349.45l-1.728-6.141a3.882,3.882,0,0,1-.135-.855h-.023a4.381,4.381,0,0,1-.153.843l-1.74,6.153h-1.142L342.068,87h1.084l1.787,6.446a4.2,4.2,0,0,1,.14.844h.03a4.944,4.944,0,0,1,.181-.844L347.148,87h.943l1.781,6.493a4.651,4.651,0,0,1,.141.785h.023a4.75,4.75,0,0,1,.159-.809L351.911,87Z" fill="#1e1e1e"/>
      <path d="M356.9,90.372a1.181,1.181,0,0,0-.727-.193,1.225,1.225,0,0,0-1.028.58,2.678,2.678,0,0,0-.413,1.582V95.4h-.961v-6h.961v1.236h.023a2.1,2.1,0,0,1,.627-.987,1.427,1.427,0,0,1,.944-.355,1.583,1.583,0,0,1,.574.082Z" fill="#1e1e1e"/>
      <path d="M358.461,87.876a.607.607,0,0,1-.439-.175.6.6,0,0,1-.182-.446.616.616,0,0,1,.621-.627.62.62,0,0,1,.448.179.625.625,0,0,1,0,.888A.614.614,0,0,1,358.461,87.876Zm.469,7.524h-.961v-6h.961Z" fill="#1e1e1e"/>
      <path d="M363.61,95.341a1.856,1.856,0,0,1-.9.188q-1.577,0-1.576-1.758V90.22h-1.031V89.4h1.031V87.935l.961-.311V89.4h1.512v.82H362.1V93.6a1.4,1.4,0,0,0,.2.861.818.818,0,0,0,.68.258,1.01,1.01,0,0,0,.627-.2Z" fill="#1e1e1e"/>
      <path d="M369.613,92.64h-4.237a2.245,2.245,0,0,0,.539,1.547,1.861,1.861,0,0,0,1.418.545,2.948,2.948,0,0,0,1.863-.668v.9a3.478,3.478,0,0,1-2.091.574,2.534,2.534,0,0,1-2-.817,3.342,3.342,0,0,1-.727-2.3,3.283,3.283,0,0,1,.794-2.282,2.546,2.546,0,0,1,1.972-.882,2.255,2.255,0,0,1,1.822.762,3.175,3.175,0,0,1,.645,2.115Zm-.985-.814a1.958,1.958,0,0,0-.4-1.295,1.367,1.367,0,0,0-1.1-.463,1.552,1.552,0,0,0-1.154.486,2.2,2.2,0,0,0-.586,1.272Z" fill="#1e1e1e"/>
      <path d="M371.325,95.529a.623.623,0,0,1-.46-.194.636.636,0,0,1-.19-.463.644.644,0,0,1,.19-.465.619.619,0,0,1,.46-.2.66.66,0,1,1,0,1.319Z" fill="#1e1e1e"/>
      <path d="M380.593,95.4H379.5l-.89-2.356H375.05l-.838,2.356h-1.1l3.223-8.4h1.02Zm-2.3-3.24-1.318-3.581a3.407,3.407,0,0,1-.129-.562h-.023a3.182,3.182,0,0,1-.135.562l-1.307,3.581Z" fill="#1e1e1e"/>
      <path d="M382.654,95.4h-.96V86.517h.96Z" fill="#1e1e1e"/>
      <path d="M385.434,95.4h-.961V86.517h.961Z" fill="#1e1e1e"/>
    </g>
  </g>
</svg>
