<?xml version="1.0" encoding="utf-8"?>
<!-- Generator: Adobe Illustrator 17.1.0, SVG Export Plug-In . SVG Version: 6.00 Build 0)  -->
<!DOCTYPE svg PUBLIC "-//W3C//DTD SVG 1.1//EN" "http://www.w3.org/Graphics/SVG/1.1/DTD/svg11.dtd">
<svg version="1.1" id="Layer_1" xmlns="http://www.w3.org/2000/svg" xmlns:xlink="http://www.w3.org/1999/xlink" x="0px" y="0px"
	 width="100%" height="100%" viewBox="0 0 50 50" enable-background="new 0 0 50 50" xml:space="preserve">
<path fill="#59B4D9" d="M28.4,16.8c6,0,10.9,4.5,11.6,10.2c1.4,1.1,2.5,2.4,3.3,3.8c3.9-1,6.6-4.4,6.6-8.5c0-3.3-1.8-5.9-4.9-7.4
	c0-0.4,0-0.7,0-1.1c0-5.8-4.8-10.6-10.6-10.6c-3.5,0-6.7,1.7-8.7,4.4c-1.3-0.8-2.7-1.2-4.3-1.2c-4.2,0-7.6,3.2-8,7.2
	c0.6-0.1,1.3-0.1,2-0.1c3.1,0,6.6,0.5,9.5,3.6L28.4,16.8z"/>
<path fill="#0072C6" d="M36.5,29l0-0.6c0-4.4-3.6-8-8-8c-1.4,0-2.7,0.4-3.9,1l0,0.1l0-0.1c-0.1,0.1-0.3,0.1-0.4,0.2c0,0,0,0-0.1-0.1
	c-2.3,1.7-3.3,4.3-3.4,7.1h3.5l-5.3,6.3l-5.4-6.3h3.6c0.1-3.8,1.6-7.4,4.2-9.7c-1.7-1.1-3.7-1.7-5.8-1.7c-5.9,0-10.7,4.7-10.7,10.5
	c0,0.4,0,0.7,0,1.1C1.8,30.3,0,32.9,0,36.2c0,5,4,8.8,9.2,8.8h22.7c5.2,0,9.2-3.9,9.2-8.8C41.1,33,39.5,30.5,36.5,29z"/>
</svg>
