<?xml version="1.0" encoding="utf-8"?>
<!-- Generator: Adobe Illustrator 26.2.1, SVG Export Plug-In . SVG Version: 6.00 Build 0)  -->
<svg version="1.1" xmlns="http://www.w3.org/2000/svg" xmlns:xlink="http://www.w3.org/1999/xlink" x="0px" y="0px"
	 viewBox="0 0 728 376.2" enable-background="new 0 0 728 376.2" xml:space="preserve">
<symbol  id="PIPELINE" viewBox="-32 -12.266 64 24.531">
	<linearGradient id="SVGID_1_" gradientUnits="userSpaceOnUse" x1="0" y1="-12.2655" x2="1.502093e-15" y2="12.2655">
		<stop  offset="0" style="stop-color:#1B89B2"/>
		<stop  offset="1" style="stop-color:#51C8E8"/>
	</linearGradient>
	<path fill="url(#SVGID_1_)" d="M26.096,12.266h-51.448v0h0C-29.08,12.265-32,6.878-32,0s2.92-12.265,6.648-12.265h0v0h51.448
		C29.356-12.266,32-6.363,32,0S29.356,12.266,26.096,12.266z"/>
	<g>
		
			<linearGradient id="SVGID_00000060720856111584240690000012632626503503545767_" gradientUnits="userSpaceOnUse" x1="-31.461" y1="-6.1136" x2="-19.2338" y2="6.1136">
			<stop  offset="0" style="stop-color:#B3B4B4"/>
			<stop  offset="1" style="stop-color:#4F4F4F"/>
		</linearGradient>
		<ellipse fill="url(#SVGID_00000060720856111584240690000012632626503503545767_)" cx="-25.347" cy="0" rx="5.575" ry="10.879"/>
	</g>
</symbol>
<g id="Shapes">
	<rect fill="#FFFFFF" width="728" height="376.2"/>
	<g id="Wrench_tool_x28_s_x29_">
	</g>
	<g id="user2">
	</g>
	<g id="user2_1_">
	</g>
	<g id="user2_4_">
	</g>
	<g id="user2_3_">
	</g>
	<g id="user2_2_">
	</g>
	<g id="Internet_2">
	</g>
	<g id="Enterprise">
	</g>
	<g id="Tunnel__x28_stackable_x29_">
	</g>
	<g id="New_Symbol">
	</g>
	<g id="New_Symbol_1">
	</g>
	<g id="Files">
	</g>
	<g id="BlobBlock">
	</g>
	<g id="E_x5F_Enterprise">
	</g>
	<g id="E_x5F_AD_FS">
	</g>
	<g id="C_x5F_Azure_Active_Directory">
	</g>
	<g>
		<g>
			<line fill="none" stroke="#3C3C41" stroke-miterlimit="10" x1="49.182" y1="337.635" x2="92.2" y2="337.635"/>
			<g>
				<polygon fill="#3C3C41" points="50.276,341.375 43.8,337.635 50.276,333.895 				"/>
			</g>
		</g>
	</g>
	<line fill="none" stroke="#3C3C41" stroke-miterlimit="10" x1="250.6" y1="337.635" x2="202.2" y2="337.635"/>
	<g>
		<g>
			<circle fill="#505150" cx="71.4" cy="337.635" r="10"/>
			<g>
				<path fill="#FFFFFF" d="M74.206,334.34c-0.352,0.645-0.684,1.282-0.996,1.913s-0.596,1.265-0.85,1.901s-0.475,1.278-0.662,1.925
					s-0.332,1.308-0.434,1.983h-1.424c0.094-0.602,0.228-1.202,0.401-1.802s0.378-1.199,0.612-1.799s0.497-1.202,0.788-1.808
					s0.601-1.217,0.929-1.834h-3.979v-1.16h5.613V334.34z"/>
			</g>
		</g>
	</g>
	<g>
		<rect x="470.722" y="37.943" fill="#FFFFFF" width="8.968" height="333.857"/>
		
			<linearGradient id="SVGID_00000114036161380594847930000011066008794392075396_" gradientUnits="userSpaceOnUse" x1="475.2065" y1="371.8" x2="475.2065" y2="37.9429">
			<stop  offset="0" style="stop-color:#007ED8"/>
			<stop  offset="1" style="stop-color:#00ABDE"/>
		</linearGradient>
		
			<rect x="470.722" y="37.943" opacity="0.25" fill="url(#SVGID_00000114036161380594847930000011066008794392075396_)" width="8.968" height="333.857"/>
	</g>
	<rect x="470.722" y="269.778" fill="#FFFFFF" fill-opacity="0.7" width="8.968" height="49.493"/>
	<line fill="none" stroke="#3C3C41" stroke-miterlimit="10" x1="92.2" y1="94.812" x2="43.8" y2="94.812"/>
	<line fill="none" stroke="#3C3C41" stroke-miterlimit="10" x1="470.6" y1="240.861" x2="395.8" y2="240.861"/>
	<g>
		<rect x="34.696" y="37.943" fill="#FFFFFF" width="9.463" height="333.857"/>
		
			<linearGradient id="SVGID_00000032607633541129000480000000806025293861540030_" gradientUnits="userSpaceOnUse" x1="39.4277" y1="371.8" x2="39.4277" y2="37.9429">
			<stop  offset="0" style="stop-color:#007ED8"/>
			<stop  offset="1" style="stop-color:#00ABDE"/>
		</linearGradient>
		
			<rect x="34.696" y="37.943" opacity="0.25" fill="url(#SVGID_00000032607633541129000480000000806025293861540030_)" width="9.463" height="333.857"/>
	</g>
	<g>
		<rect x="251.283" y="37.943" fill="#FFFFFF" width="8.968" height="333.857"/>
		
			<linearGradient id="SVGID_00000145050498197077497400000005947450818802679205_" gradientUnits="userSpaceOnUse" x1="255.7668" y1="371.8" x2="255.7668" y2="37.9429">
			<stop  offset="0" style="stop-color:#007ED8"/>
			<stop  offset="1" style="stop-color:#00ABDE"/>
		</linearGradient>
		
			<rect x="251.283" y="37.943" opacity="0.25" fill="url(#SVGID_00000145050498197077497400000005947450818802679205_)" width="8.968" height="333.857"/>
	</g>
	<g>
		<rect x="690.432" y="37.943" fill="#FFFFFF" width="8.968" height="333.857"/>
		
			<linearGradient id="SVGID_00000169523576559660942470000016768578099857562779_" gradientUnits="userSpaceOnUse" x1="694.916" y1="371.8" x2="694.916" y2="37.9429">
			<stop  offset="0" style="stop-color:#007ED8"/>
			<stop  offset="1" style="stop-color:#00ABDE"/>
		</linearGradient>
		
			<rect x="690.432" y="37.943" opacity="0.25" fill="url(#SVGID_00000169523576559660942470000016768578099857562779_)" width="8.968" height="333.857"/>
	</g>
	<g>
		<g>
			<line fill="none" stroke="#3C3C41" stroke-miterlimit="10" x1="189.084" y1="94.812" x2="245.901" y2="94.812"/>
			<g>
				<polygon fill="#3C3C41" points="244.806,98.552 251.283,94.812 244.806,91.073 				"/>
			</g>
		</g>
	</g>
	<g>
		<g>
			<ellipse fill="#505150" cx="71.461" cy="94.812" rx="10" ry="9.792"/>
			<g>
				<path fill="#FFFFFF" d="M72.649,90.738v8.411H71.29v-6.781c-0.246,0.172-0.511,0.318-0.794,0.439
					c-0.283,0.12-0.606,0.227-0.97,0.318v-1.136c0.227-0.072,0.445-0.149,0.656-0.229c0.211-0.08,0.419-0.17,0.624-0.27
					s0.412-0.21,0.621-0.333c0.209-0.123,0.425-0.262,0.647-0.419H72.649z"/>
			</g>
		</g>
	</g>
	<line fill="none" stroke="#3C3C41" stroke-miterlimit="10" x1="307.787" y1="196.035" x2="260.251" y2="196.035"/>
	<g>
		<g>
			<line fill="none" stroke="#3C3C41" stroke-miterlimit="10" x1="408.401" y1="196.035" x2="465.218" y2="196.035"/>
			<g>
				<polygon fill="#3C3C41" points="464.124,199.775 470.6,196.035 464.124,192.295 				"/>
			</g>
		</g>
	</g>
	<line fill="none" stroke="#3C3C41" stroke-miterlimit="10" x1="309.117" y1="129.8" x2="260.251" y2="129.8"/>
	<g>
		<g>
			<path fill="none" stroke="#3C3C41" stroke-miterlimit="10" d="M404.001,129.304h8.799c2.75,0,5,2.25,5,5V160c0,2.75-2.25,5-5,5
				H265.633"/>
			<g>
				<polygon fill="#3C3C41" points="266.727,161.26 260.251,165 266.727,168.74 				"/>
			</g>
		</g>
	</g>
	<g>
		<g>
			<circle fill="#505150" cx="283.4" cy="196.035" r="10"/>
			<g>
				<path fill="#FFFFFF" d="M280.789,200.152v-1.277c0.547,0.434,1.164,0.65,1.852,0.65c0.559,0,1.005-0.127,1.339-0.381
					s0.501-0.598,0.501-1.031c0-0.953-0.729-1.43-2.186-1.43h-0.65v-1.09h0.621c1.293,0,1.939-0.449,1.939-1.348
					c0-0.828-0.504-1.242-1.512-1.242c-0.562,0-1.092,0.201-1.588,0.604V192.4c0.57-0.32,1.244-0.48,2.021-0.48
					c0.746,0,1.344,0.188,1.793,0.562s0.674,0.855,0.674,1.441c0,1.105-0.562,1.816-1.688,2.133v0.023
					c0.605,0.059,1.084,0.271,1.436,0.636s0.527,0.821,0.527,1.368c0,0.754-0.283,1.362-0.85,1.825s-1.312,0.694-2.238,0.694
					C281.949,200.604,281.285,200.453,280.789,200.152z"/>
			</g>
		</g>
	</g>
	<line fill="none" stroke="#3C3C41" stroke-miterlimit="10" x1="311.197" y1="276.064" x2="260.251" y2="276.064"/>
	<g>
		<g>
			<line fill="none" stroke="#3C3C41" stroke-miterlimit="10" x1="444.676" y1="276.064" x2="685.05" y2="276.064"/>
			<g>
				<polygon fill="#3C3C41" points="683.956,279.804 690.432,276.064 683.956,272.325 				"/>
			</g>
		</g>
	</g>
	<g>
		<g>
			<line fill="none" stroke="#3C3C41" stroke-miterlimit="10" x1="265.633" y1="240.861" x2="312.2" y2="240.861"/>
			<g>
				<polygon fill="#3C3C41" points="266.727,244.601 260.251,240.861 266.727,237.121 				"/>
			</g>
		</g>
	</g>
	<g>
		<g>
			<circle fill="#505150" cx="283.4" cy="240.861" r="10"/>
			<g>
				<path fill="#FFFFFF" d="M285.368,236.887v5.426h1.248v1.131h-1.248v1.846h-1.318v-1.846h-3.803v-1.143
					c0.344-0.387,0.696-0.806,1.058-1.257s0.709-0.912,1.043-1.383s0.644-0.942,0.929-1.415s0.525-0.926,0.721-1.359H285.368z
					 M284.05,242.313v-3.527c-0.426,0.766-0.847,1.434-1.263,2.004s-0.806,1.078-1.169,1.523H284.05z"/>
			</g>
		</g>
	</g>
	<line fill="none" stroke="#3C3C41" stroke-miterlimit="10" x1="690.432" y1="310.316" x2="473.092" y2="310.316"/>
	<g>
		<g>
			<line fill="none" stroke="#3C3C41" stroke-miterlimit="10" x1="265.782" y1="310.316" x2="312.2" y2="310.316"/>
			<g>
				<polygon fill="#3C3C41" points="266.876,314.056 260.4,310.316 266.876,306.576 				"/>
			</g>
		</g>
	</g>
	<g>
		
			<linearGradient id="SVGID_00000067231992267102058140000014537741255457317550_" gradientUnits="userSpaceOnUse" x1="40.4277" y1="1408.9442" x2="40.4277" y2="1436.9442" gradientTransform="matrix(1 0 0 -1 0 1450.4016)">
			<stop  offset="0" style="stop-color:#2E76BC"/>
			<stop  offset="0.16" style="stop-color:#347DC0"/>
			<stop  offset="0.53" style="stop-color:#4C8DCB"/>
			<stop  offset="0.82" style="stop-color:#6198D1"/>
			<stop  offset="1" style="stop-color:#699CD3"/>
		</linearGradient>
		<path fill="url(#SVGID_00000067231992267102058140000014537741255457317550_)" d="M36.228,33.057h8.4v8.4h-8.4V33.057z
			 M26.428,21.857h8.4v-8.4H27.6c-0.648,0-1.173,0.525-1.173,1.172V21.857z M27.6,41.457h7.227v-8.4h-8.4v7.228
			C26.428,40.932,26.953,41.457,27.6,41.457L27.6,41.457z M26.428,31.657h8.4v-8.4h-8.4V31.657z M46.028,41.457h7.228
			c0.648,0,1.173-0.525,1.173-1.173l0,0v-7.228h-8.4V41.457z M36.228,31.657h8.4v-8.4h-8.4V31.657z M46.028,31.657h8.4v-8.4h-8.4
			V31.657z M46.028,13.457v8.4h8.4V14.63c0-0.648-0.525-1.172-1.173-1.172l0,0H46.028z M36.228,21.857h8.4v-8.4h-8.4V21.857z"/>
	</g>
	<g>
		
			<radialGradient id="e3d1e58c-f78e-4fb5-9857-0c9331da9979_00000090989112314880255250000011332285135335349138_" cx="430.0785" cy="1435.0504" r="18.6015" gradientTransform="matrix(0.94 0 0 -0.94 69.09 1375.7295)" gradientUnits="userSpaceOnUse">
			<stop  offset="0.27" style="stop-color:#FED70A"/>
			<stop  offset="0.49" style="stop-color:#FFCC12"/>
			<stop  offset="0.88" style="stop-color:#FBAC1D"/>
			<stop  offset="1" style="stop-color:#F9A120"/>
		</radialGradient>
		
			<path id="e3d1e58c-f78e-4fb5-9857-0c9331da9979_00000062168597350170226000000017772899291865720479_" fill="url(#e3d1e58c-f78e-4fb5-9857-0c9331da9979_00000090989112314880255250000011332285135335349138_)" d="
			M483.533,24.282c1.346-1.344,1.348-3.525,0.004-4.871c-0.001-0.001-0.003-0.003-0.004-0.004l0,0l-5.923-5.94
			c-1.335-1.342-3.506-1.347-4.847-0.011c-0.004,0.004-0.007,0.007-0.011,0.011l0,0l-5.923,5.94c-1.33,1.353-1.33,3.522,0,4.875
			l4.991,4.991c0.177,0.184,0.278,0.427,0.283,0.682v9.184c-0.004,0.311,0.115,0.61,0.333,0.832l2.246,2.246
			c0.281,0.303,0.755,0.321,1.058,0.04c0.014-0.013,0.027-0.026,0.04-0.04l2.18-2.18l0,0l1.281-1.281
			c0.175-0.163,0.184-0.437,0.021-0.611c-0.007-0.007-0.014-0.014-0.021-0.021l-0.915-0.932c-0.193-0.184-0.2-0.489-0.017-0.682
			c0.005-0.006,0.011-0.011,0.017-0.017l0.915-0.932c0.175-0.163,0.184-0.437,0.021-0.611c-0.007-0.007-0.014-0.014-0.021-0.021
			l-0.965-0.982c-0.188-0.175-0.199-0.47-0.024-0.658c0.008-0.008,0.016-0.016,0.024-0.024l0.998-0.982
			c0.175-0.163,0.184-0.437,0.021-0.611c-0.007-0.007-0.014-0.014-0.021-0.021l-1.281-1.298v-0.466L483.533,24.282z M475.214,14.898
			c1.084,0.009,1.956,0.896,1.947,1.98s-0.896,1.956-1.98,1.947c-1.078-0.009-1.947-0.885-1.947-1.963
			c-0.009-1.075,0.855-1.954,1.93-1.963c0.006,0,0.011,0,0.017,0H475.214z"/>
		
			<path id="a21a8f7a-61cc-4035-8449-e5c8fe4d4d5e_00000141442139777744349010000002242874819583934099_" opacity="0.75" fill="#F7921E" enable-background="new    " d="
			M473.65,39.289L473.65,39.289c0.196,0.119,0.452,0.057,0.572-0.139c0.039-0.063,0.06-0.136,0.061-0.21v-7.404
			c0.001-0.144-0.067-0.281-0.183-0.366l0,0c-0.19-0.129-0.449-0.079-0.578,0.111c-0.051,0.075-0.076,0.165-0.071,0.255v7.404
			C473.458,39.081,473.532,39.211,473.65,39.289z"/>
		
			<path id="ecd3189c-fb1e-4a0e-a2b6-ba2f11dda484_00000020391858245969157490000006727336646288323718_" opacity="0.75" fill="#F7921E" enable-background="new    " d="
			M470.972,21.387h8.685c0.294,0,0.532,0.238,0.532,0.532v0.083c0,0.294-0.238,0.532-0.532,0.532h-8.685
			c-0.294,0-0.532-0.238-0.532-0.532v-0.083C470.439,21.625,470.677,21.387,470.972,21.387z"/>
		
			<path id="a1949a3c-4818-4bd1-b236-0d970b92fc62_00000101070257379318270740000018255079752343820692_" opacity="0.75" fill="#F7921E" enable-background="new    " d="
			M470.972,23.25h8.685c0.294,0,0.532,0.238,0.532,0.532v0.083c0,0.294-0.238,0.532-0.532,0.532h-8.685
			c-0.294,0-0.532-0.238-0.532-0.532v-0.083C470.439,23.489,470.677,23.25,470.972,23.25z"/>
	</g>
	<g>
		
			<linearGradient id="SVGID_00000121273130194772851230000006040038248552844181_" gradientUnits="userSpaceOnUse" x1="255.7668" y1="1408.1448" x2="255.7668" y2="1437.687" gradientTransform="matrix(1 0 0 -1 0 1450.4016)">
			<stop  offset="0" style="stop-color:#1B8AB3"/>
			<stop  offset="0.09" style="stop-color:#1F9DC4"/>
			<stop  offset="0.24" style="stop-color:#26B5D8"/>
			<stop  offset="0.4" style="stop-color:#35C4E7"/>
			<stop  offset="0.57" style="stop-color:#4AC7E8"/>
			<stop  offset="0.78" style="stop-color:#50C8E9"/>
		</linearGradient>
		<path fill="url(#SVGID_00000121273130194772851230000006040038248552844181_)" d="M265.551,21.583
			c-0.144-5.03-4.319-9.002-9.35-8.897c-4.006-0.041-7.602,2.45-8.972,6.214c-4.283,0.591-7.483,4.234-7.518,8.557
			c0.174,4.835,4.211,8.627,9.048,8.5c0.264,0.019,0.529,0.019,0.793,0h2.267c-0.138-0.336-0.208-0.695-0.208-1.058l0,0
			c0.007-0.484,0.137-0.959,0.378-1.379h-2.644h-0.586c-3.495,0.119-6.446-2.573-6.649-6.063c0.032-3.143,2.379-5.78,5.497-6.177
			l1.436-0.227l0.472-1.379c1.036-2.788,3.712-4.625,6.687-4.59c3.706-0.086,6.798,2.813,6.951,6.517v2.078l2.059,0.283
			c2.386,0.305,4.195,2.299,4.269,4.703c-0.091,2.67-2.278,4.789-4.949,4.798h-0.283h-0.151h-1.889
			c-0.673-3.501-3.745-6.025-7.31-6.007c-0.662-0.083-1.267,0.386-1.35,1.049c-0.083,0.662,0.386,1.267,1.049,1.35
			c0.1,0.013,0.201,0.013,0.302,0c2.759,0.17,4.859,2.544,4.689,5.303c-0.155,2.522-2.166,4.534-4.689,4.689
			c-0.662-0.083-1.267,0.386-1.35,1.049s0.386,1.267,1.049,1.35c0.1,0.013,0.201,0.013,0.302,0c3.661-0.006,6.768-2.688,7.31-6.309
			h1.983c0.125,0.02,0.253,0.02,0.378,0c3.984-0.071,7.193-3.289,7.253-7.272C271.755,25.085,269.098,22.083,265.551,21.583z"/>
		
			<linearGradient id="SVGID_00000142135294844432531860000007245228936228552880_" gradientUnits="userSpaceOnUse" x1="254.558" y1="1418.5052" x2="254.558" y2="1412.6309" gradientTransform="matrix(1 0 0 -1 0 1450.4016)">
			<stop  offset="0" style="stop-color:#BD9BC8"/>
			<stop  offset="1" style="stop-color:#6E50A1"/>
		</linearGradient>
		<path fill="url(#SVGID_00000142135294844432531860000007245228936228552880_)" d="M254.52,31.896h0.076
			c1.607,0,2.909,1.302,2.909,2.909v0.076c0,1.607-1.302,2.909-2.909,2.909h-0.076c-1.607,0-2.909-1.302-2.909-2.909v-0.076
			C251.611,33.199,252.914,31.896,254.52,31.896z"/>
		<rect x="238.767" y="10.457" fill="none" width="34" height="34"/>
	</g>
	<g>
		<g>
			<circle fill="#505150" cx="283.4" cy="128.6" r="10"/>
			<g>
				<path fill="#FFFFFF" d="M285.916,133.028h-5.273v-0.65c0-0.266,0.037-0.515,0.111-0.747s0.174-0.451,0.299-0.656
					s0.271-0.398,0.439-0.58s0.348-0.357,0.539-0.527s0.387-0.334,0.586-0.492s0.395-0.317,0.586-0.478
					c0.18-0.152,0.344-0.302,0.492-0.448s0.275-0.298,0.381-0.454s0.188-0.321,0.246-0.495s0.088-0.362,0.088-0.565
					c0-0.223-0.034-0.417-0.103-0.583s-0.164-0.305-0.287-0.416s-0.269-0.195-0.437-0.252s-0.352-0.085-0.551-0.085
					c-0.344,0-0.693,0.08-1.049,0.24s-0.697,0.4-1.025,0.721v-1.307c0.172-0.129,0.346-0.241,0.521-0.337s0.357-0.176,0.545-0.24
					s0.385-0.112,0.592-0.144s0.428-0.047,0.662-0.047c0.379,0,0.723,0.05,1.031,0.149s0.572,0.246,0.791,0.439
					s0.388,0.435,0.507,0.724s0.179,0.621,0.179,0.996c0,0.34-0.042,0.646-0.126,0.917s-0.203,0.524-0.357,0.759
					s-0.341,0.457-0.56,0.668s-0.463,0.428-0.732,0.65c-0.227,0.184-0.452,0.362-0.677,0.536s-0.427,0.344-0.606,0.51
					s-0.325,0.332-0.437,0.498s-0.167,0.333-0.167,0.501v0.029h3.791V133.028z"/>
			</g>
		</g>
	</g>
	<g>
		<g>
			<circle fill="#505150" cx="283.4" cy="310.316" r="10"/>
			<g>
				<path fill="#FFFFFF" d="M286.291,312.043c0,0.422-0.069,0.807-0.208,1.154s-0.331,0.647-0.577,0.899s-0.538,0.447-0.876,0.586
					s-0.704,0.208-1.099,0.208c-0.422,0-0.81-0.082-1.163-0.246s-0.658-0.408-0.914-0.732s-0.454-0.728-0.595-1.21
					s-0.211-1.042-0.211-1.679c0-0.777,0.093-1.467,0.278-2.068s0.44-1.105,0.765-1.512s0.705-0.715,1.143-0.926
					s0.91-0.316,1.418-0.316c0.316,0,0.604,0.021,0.864,0.064s0.468,0.102,0.624,0.176v1.225c-0.199-0.102-0.412-0.188-0.639-0.258
					s-0.486-0.105-0.779-0.105c-0.328,0-0.631,0.066-0.908,0.199s-0.517,0.327-0.718,0.583s-0.359,0.572-0.475,0.949
					s-0.175,0.812-0.179,1.304h0.035c0.18-0.277,0.423-0.496,0.729-0.656s0.667-0.24,1.081-0.24c0.367,0,0.698,0.06,0.993,0.179
					s0.547,0.291,0.756,0.516s0.37,0.498,0.483,0.82S286.291,311.641,286.291,312.043z M284.92,312.154
					c0-0.242-0.028-0.463-0.085-0.662s-0.143-0.37-0.258-0.513s-0.26-0.253-0.434-0.331s-0.378-0.117-0.612-0.117
					s-0.44,0.042-0.618,0.126s-0.327,0.194-0.448,0.331s-0.212,0.293-0.272,0.469s-0.091,0.355-0.091,0.539
					c0,0.199,0.028,0.403,0.085,0.612s0.144,0.399,0.261,0.571s0.267,0.313,0.448,0.425s0.397,0.167,0.647,0.167
					c0.223,0,0.42-0.041,0.592-0.123s0.315-0.195,0.431-0.34s0.203-0.315,0.264-0.513S284.92,312.385,284.92,312.154z"/>
			</g>
		</g>
	</g>
	<g>
		<g>
			<circle fill="#505150" cx="283.4" cy="276.064" r="10"/>
			<g>
				<path fill="#FFFFFF" d="M280.977,280.299v-1.307c0.551,0.371,1.109,0.557,1.676,0.557c0.57,0,1.029-0.146,1.377-0.437
					s0.521-0.679,0.521-1.163c0-0.477-0.177-0.848-0.53-1.113s-0.86-0.398-1.521-0.398c-0.227,0-0.686,0.023-1.377,0.07l0.299-4.418
					h4.137v1.16h-3.006l-0.141,2.104c0.27-0.016,0.514-0.023,0.732-0.023c0.891,0,1.579,0.229,2.065,0.686s0.729,1.082,0.729,1.875
					c0,0.832-0.278,1.499-0.835,2.001s-1.321,0.753-2.294,0.753C281.99,280.645,281.379,280.53,280.977,280.299z"/>
			</g>
		</g>
	</g>
	<g>
		<g>
			
				<linearGradient id="SVGID_00000181087863606631606270000016384026175970986390_" gradientUnits="userSpaceOnUse" x1="695.7575" y1="1437.9442" x2="695.7575" y2="1409.9442" gradientTransform="matrix(1 0 0 -1 0 1450.4016)">
				<stop  offset="0" style="stop-color:#B3B2B4"/>
				<stop  offset="0.38" style="stop-color:#B0AEAF"/>
				<stop  offset="0.76" style="stop-color:#A2A1A1"/>
				<stop  offset="1" style="stop-color:#979797"/>
			</linearGradient>
			<path fill="url(#SVGID_00000181087863606631606270000016384026175970986390_)" d="M704.848,39.506
				c-0.031,0.55-0.498,0.973-1.048,0.951h-16.085c-0.55,0.022-1.016-0.401-1.048-0.951V13.409c0.031-0.55,0.498-0.973,1.048-0.951
				H703.8c0.55-0.022,1.016,0.401,1.048,0.951V39.506z"/>
			<path fill="#1E3465" d="M689.345,24.43c-0.056-1.136,0.806-2.11,1.94-2.193h9.081c1.135,0.083,1.996,1.056,1.94,2.193l0,0
				c0.109,1.141-0.727,2.155-1.869,2.265c-0.024,0.002-0.048,0.004-0.072,0.006h-9.042c-1.132-0.073-1.996-1.04-1.94-2.173
				L689.345,24.43z"/>
			<path fill="#1E3465" d="M689.345,17.949c-0.055-1.133,0.809-2.1,1.94-2.173h9.081c1.132,0.073,1.996,1.04,1.94,2.173l0,0
				c0.056,1.136-0.806,2.11-1.94,2.193h-9.042c-1.135-0.083-1.996-1.056-1.94-2.193H689.345z"/>
			<circle fill="#74CFEB" cx="691.887" cy="17.949" r="1.455"/>
			<circle fill="#74CFEB" cx="691.887" cy="24.43" r="1.455"/>
		</g>
	</g>
	<g>
		
			<linearGradient id="SVGID_00000031905817949517243610000006954868691225634717_" gradientUnits="userSpaceOnUse" x1="710.412" y1="1449.1239" x2="710.412" y2="1427.1152" gradientTransform="matrix(1 0 0 -1 0 1450.4016)">
			<stop  offset="0.18" style="stop-color:#699CD3"/>
			<stop  offset="1" style="stop-color:#2E76BC"/>
		</linearGradient>
		<path fill="url(#SVGID_00000031905817949517243610000006954868691225634717_)" d="M721.424,14.783
			c-0.05-2.454-1.868-4.512-4.298-4.864c-0.108-3.459-2.979-6.186-6.439-6.118c-2.74-0.012-5.191,1.703-6.118,4.282
			c-2.926,0.387-5.127,2.86-5.169,5.812c0.116,3.331,2.877,5.956,6.21,5.904h0.551h10.064h0.26
			C719.211,19.725,721.392,17.51,721.424,14.783z"/>
	</g>
</g>
<g id="text">
	<g>
		<rect x="94.2" y="331.001" fill="none" width="105.6" height="31.999"/>
		<path fill="#2F2F2F" d="M105.309,341.365h-1.367l-1.641-2.748c-0.15-0.255-0.296-0.473-0.438-0.653s-0.286-0.327-0.434-0.441
			s-0.308-0.197-0.479-0.25s-0.363-0.079-0.578-0.079H99.43v4.17h-1.148v-9.803h2.926c0.428,0,0.824,0.054,1.186,0.161
			s0.677,0.27,0.943,0.489s0.475,0.491,0.625,0.817s0.226,0.708,0.226,1.145c0,0.342-0.051,0.655-0.154,0.94
			s-0.249,0.539-0.438,0.762s-0.417,0.414-0.684,0.571s-0.566,0.279-0.899,0.366v0.027c0.164,0.073,0.307,0.156,0.427,0.25
			s0.236,0.204,0.345,0.332s0.218,0.272,0.325,0.434s0.227,0.35,0.359,0.564L105.309,341.365z M99.43,332.601v3.555h1.559
			c0.287,0,0.553-0.043,0.796-0.13s0.455-0.211,0.632-0.373s0.317-0.36,0.417-0.595s0.15-0.498,0.15-0.79
			c0-0.524-0.17-0.933-0.509-1.227s-0.831-0.441-1.473-0.441H99.43z"/>
		<path fill="#2F2F2F" d="M111.921,338.145h-4.942c0.018,0.779,0.228,1.381,0.629,1.805s0.953,0.636,1.654,0.636
			c0.789,0,1.513-0.26,2.174-0.779v1.053c-0.615,0.447-1.429,0.67-2.44,0.67c-0.989,0-1.766-0.318-2.331-0.954
			s-0.848-1.53-0.848-2.683c0-1.089,0.309-1.977,0.926-2.663s1.384-1.029,2.3-1.029s1.625,0.296,2.126,0.889
			s0.752,1.415,0.752,2.468V338.145z M110.772,337.195c-0.004-0.647-0.161-1.151-0.468-1.511s-0.735-0.54-1.282-0.54
			c-0.529,0-0.978,0.189-1.347,0.567s-0.597,0.873-0.684,1.483H110.772z"/>
		<path fill="#2F2F2F" d="M116.845,341.296c-0.264,0.146-0.613,0.219-1.046,0.219c-1.226,0-1.839-0.684-1.839-2.051v-4.143h-1.203
			v-0.957h1.203v-1.709l1.121-0.362v2.071h1.764v0.957h-1.764v3.944c0,0.469,0.08,0.804,0.239,1.005s0.424,0.301,0.793,0.301
			c0.283,0,0.526-0.078,0.731-0.232V341.296z"/>
		<path fill="#2F2F2F" d="M123.963,341.365h-1.121v-1.107h-0.027c-0.465,0.848-1.185,1.271-2.16,1.271
			c-1.668,0-2.502-0.994-2.502-2.98v-4.184h1.114v4.006c0,1.477,0.565,2.215,1.695,2.215c0.547,0,0.997-0.202,1.35-0.605
			s0.53-0.931,0.53-1.583v-4.033h1.121V341.365z"/>
		<path fill="#2F2F2F" d="M129.721,335.5c-0.196-0.15-0.479-0.226-0.848-0.226c-0.479,0-0.878,0.226-1.2,0.677
			s-0.482,1.066-0.482,1.846v3.568h-1.121v-7h1.121v1.442h0.027c0.16-0.492,0.403-0.876,0.731-1.152s0.695-0.414,1.101-0.414
			c0.292,0,0.515,0.032,0.67,0.096V335.5z"/>
		<path fill="#2F2F2F" d="M136.775,341.365h-1.121v-3.992c0-1.486-0.542-2.229-1.627-2.229c-0.561,0-1.024,0.211-1.391,0.632
			s-0.55,0.954-0.55,1.596v3.992h-1.121v-7h1.121v1.162h0.027c0.529-0.884,1.294-1.326,2.297-1.326c0.766,0,1.351,0.247,1.757,0.742
			s0.608,1.209,0.608,2.143V341.365z"/>
		<path fill="#2F2F2F" d="M146.373,335.5c-0.196-0.15-0.479-0.226-0.848-0.226c-0.479,0-0.878,0.226-1.2,0.677
			s-0.482,1.066-0.482,1.846v3.568h-1.121v-7h1.121v1.442h0.027c0.16-0.492,0.403-0.876,0.731-1.152s0.695-0.414,1.101-0.414
			c0.292,0,0.515,0.032,0.67,0.096V335.5z"/>
		<path fill="#2F2F2F" d="M153.215,338.145h-4.942c0.018,0.779,0.228,1.381,0.629,1.805s0.953,0.636,1.654,0.636
			c0.789,0,1.513-0.26,2.174-0.779v1.053c-0.615,0.447-1.429,0.67-2.44,0.67c-0.989,0-1.766-0.318-2.331-0.954
			s-0.848-1.53-0.848-2.683c0-1.089,0.309-1.977,0.926-2.663s1.384-1.029,2.3-1.029s1.625,0.296,2.126,0.889
			s0.752,1.415,0.752,2.468V338.145z M152.067,337.195c-0.004-0.647-0.161-1.151-0.468-1.511s-0.735-0.54-1.282-0.54
			c-0.529,0-0.978,0.189-1.347,0.567s-0.597,0.873-0.684,1.483H152.067z"/>
		<path fill="#2F2F2F" d="M154.457,341.112v-1.203c0.611,0.451,1.283,0.677,2.017,0.677c0.984,0,1.477-0.328,1.477-0.984
			c0-0.187-0.042-0.345-0.126-0.475s-0.198-0.245-0.342-0.345s-0.312-0.19-0.506-0.27s-0.402-0.163-0.625-0.25
			c-0.31-0.123-0.582-0.247-0.817-0.373s-0.431-0.267-0.588-0.424s-0.276-0.336-0.355-0.537s-0.12-0.435-0.12-0.704
			c0-0.328,0.075-0.619,0.226-0.872s0.351-0.465,0.602-0.636s0.537-0.3,0.858-0.386s0.653-0.13,0.995-0.13
			c0.606,0,1.148,0.105,1.627,0.314v1.135c-0.515-0.337-1.107-0.506-1.777-0.506c-0.209,0-0.399,0.024-0.567,0.072
			s-0.313,0.115-0.434,0.202s-0.214,0.19-0.28,0.311s-0.099,0.254-0.099,0.4c0,0.182,0.033,0.335,0.099,0.458
			s0.163,0.232,0.291,0.328s0.283,0.182,0.465,0.26s0.39,0.162,0.622,0.253c0.31,0.119,0.588,0.24,0.834,0.366
			s0.456,0.267,0.629,0.424s0.307,0.338,0.4,0.543s0.14,0.449,0.14,0.731c0,0.346-0.076,0.647-0.229,0.902s-0.356,0.467-0.612,0.636
			s-0.549,0.294-0.882,0.376s-0.681,0.123-1.046,0.123C155.61,341.529,154.986,341.39,154.457,341.112z"/>
		<path fill="#2F2F2F" d="M161.832,340.353h-0.027v4.231h-1.121v-10.22h1.121v1.23h0.027c0.551-0.93,1.358-1.395,2.42-1.395
			c0.902,0,1.606,0.313,2.112,0.94s0.759,1.466,0.759,2.519c0,1.171-0.285,2.109-0.854,2.813s-1.349,1.056-2.338,1.056
			C163.023,341.529,162.324,341.137,161.832,340.353z M161.804,337.53v0.978c0,0.579,0.188,1.07,0.564,1.473
			s0.854,0.605,1.432,0.605c0.679,0,1.211-0.26,1.596-0.779s0.578-1.242,0.578-2.167c0-0.779-0.18-1.39-0.54-1.832
			s-0.848-0.663-1.463-0.663c-0.652,0-1.176,0.227-1.572,0.68S161.804,336.846,161.804,337.53z"/>
		<path fill="#2F2F2F" d="M171.828,341.529c-1.035,0-1.86-0.327-2.478-0.981s-0.926-1.521-0.926-2.601
			c0-1.176,0.321-2.094,0.964-2.755s1.511-0.991,2.604-0.991c1.043,0,1.858,0.321,2.444,0.964s0.878,1.534,0.878,2.673
			c0,1.117-0.315,2.011-0.947,2.683S172.89,341.529,171.828,341.529z M171.91,335.144c-0.72,0-1.29,0.245-1.709,0.735
			s-0.629,1.166-0.629,2.027c0,0.83,0.212,1.483,0.636,1.962s0.991,0.718,1.702,0.718c0.725,0,1.282-0.235,1.671-0.704
			s0.584-1.137,0.584-2.003c0-0.875-0.195-1.549-0.584-2.023S172.635,335.144,171.91,335.144z"/>
		<path fill="#2F2F2F" d="M182.84,341.365h-1.121v-3.992c0-1.486-0.542-2.229-1.627-2.229c-0.561,0-1.024,0.211-1.391,0.632
			s-0.55,0.954-0.55,1.596v3.992h-1.121v-7h1.121v1.162h0.027c0.529-0.884,1.294-1.326,2.297-1.326c0.766,0,1.351,0.247,1.757,0.742
			s0.608,1.209,0.608,2.143V341.365z"/>
		<path fill="#2F2F2F" d="M184.488,341.112v-1.203c0.611,0.451,1.283,0.677,2.017,0.677c0.984,0,1.477-0.328,1.477-0.984
			c0-0.187-0.042-0.345-0.126-0.475s-0.198-0.245-0.342-0.345s-0.312-0.19-0.506-0.27s-0.402-0.163-0.625-0.25
			c-0.31-0.123-0.582-0.247-0.817-0.373s-0.431-0.267-0.588-0.424s-0.276-0.336-0.355-0.537s-0.12-0.435-0.12-0.704
			c0-0.328,0.075-0.619,0.226-0.872s0.351-0.465,0.602-0.636s0.537-0.3,0.858-0.386s0.653-0.13,0.995-0.13
			c0.606,0,1.148,0.105,1.627,0.314v1.135c-0.515-0.337-1.107-0.506-1.777-0.506c-0.209,0-0.399,0.024-0.567,0.072
			s-0.313,0.115-0.434,0.202s-0.214,0.19-0.28,0.311s-0.099,0.254-0.099,0.4c0,0.182,0.033,0.335,0.099,0.458
			s0.163,0.232,0.291,0.328s0.283,0.182,0.465,0.26s0.39,0.162,0.622,0.253c0.31,0.119,0.588,0.24,0.834,0.366
			s0.456,0.267,0.629,0.424s0.307,0.338,0.4,0.543s0.14,0.449,0.14,0.731c0,0.346-0.076,0.647-0.229,0.902s-0.356,0.467-0.612,0.636
			s-0.549,0.294-0.882,0.376s-0.681,0.123-1.046,0.123C185.641,341.529,185.017,341.39,184.488,341.112z"/>
		<path fill="#2F2F2F" d="M196.443,338.145h-4.942c0.018,0.779,0.228,1.381,0.629,1.805s0.953,0.636,1.654,0.636
			c0.789,0,1.513-0.26,2.174-0.779v1.053c-0.615,0.447-1.429,0.67-2.44,0.67c-0.989,0-1.766-0.318-2.331-0.954
			s-0.848-1.53-0.848-2.683c0-1.089,0.309-1.977,0.926-2.663s1.384-1.029,2.3-1.029s1.625,0.296,2.126,0.889
			s0.752,1.415,0.752,2.468V338.145z M195.295,337.195c-0.004-0.647-0.161-1.151-0.468-1.511s-0.735-0.54-1.282-0.54
			c-0.529,0-0.978,0.189-1.347,0.567s-0.597,0.873-0.684,1.483H195.295z"/>
		<path fill="#2F2F2F" d="M126.759,358.096c-0.264,0.146-0.613,0.219-1.046,0.219c-1.226,0-1.839-0.684-1.839-2.051v-4.143h-1.203
			v-0.957h1.203v-1.709l1.121-0.362v2.071h1.764v0.957h-1.764v3.944c0,0.469,0.08,0.804,0.239,1.005s0.424,0.301,0.793,0.301
			c0.283,0,0.526-0.078,0.731-0.232V358.096z"/>
		<path fill="#2F2F2F" d="M131.017,358.329c-1.035,0-1.86-0.327-2.478-0.981s-0.926-1.521-0.926-2.601
			c0-1.176,0.321-2.094,0.964-2.755s1.511-0.991,2.604-0.991c1.043,0,1.858,0.321,2.444,0.964s0.878,1.534,0.878,2.673
			c0,1.117-0.315,2.011-0.947,2.683S132.079,358.329,131.017,358.329z M131.099,351.944c-0.72,0-1.29,0.245-1.709,0.735
			s-0.629,1.166-0.629,2.027c0,0.83,0.212,1.483,0.636,1.962s0.991,0.718,1.702,0.718c0.725,0,1.282-0.235,1.671-0.704
			s0.584-1.137,0.584-2.003c0-0.875-0.195-1.549-0.584-2.023S131.823,351.944,131.099,351.944z"/>
		<path fill="#2F2F2F" d="M144.9,357.843c-0.538,0.324-1.176,0.485-1.914,0.485c-0.998,0-1.804-0.325-2.417-0.974
			s-0.919-1.491-0.919-2.526c0-1.153,0.331-2.079,0.991-2.779s1.542-1.049,2.646-1.049c0.615,0,1.158,0.114,1.627,0.342v1.148
			c-0.52-0.365-1.076-0.547-1.668-0.547c-0.715,0-1.302,0.256-1.76,0.769s-0.687,1.186-0.687,2.02c0,0.82,0.215,1.467,0.646,1.941
			s1.008,0.711,1.733,0.711c0.611,0,1.185-0.203,1.723-0.608V357.843z"/>
		<path fill="#2F2F2F" d="M147.509,358.165h-1.121v-10.363h1.121V358.165z"/>
		<path fill="#2F2F2F" d="M150.196,349.387c-0.201,0-0.372-0.068-0.513-0.205s-0.212-0.31-0.212-0.52s0.071-0.384,0.212-0.523
			s0.312-0.208,0.513-0.208c0.205,0,0.379,0.069,0.523,0.208s0.215,0.313,0.215,0.523c0,0.201-0.072,0.372-0.215,0.513
			S150.401,349.387,150.196,349.387z M150.743,358.165h-1.121v-7h1.121V358.165z"/>
		<path fill="#2F2F2F" d="M158.538,354.945h-4.942c0.018,0.779,0.228,1.381,0.629,1.805s0.953,0.636,1.654,0.636
			c0.789,0,1.513-0.26,2.174-0.779v1.053c-0.615,0.447-1.429,0.67-2.44,0.67c-0.989,0-1.766-0.318-2.331-0.954
			s-0.848-1.53-0.848-2.683c0-1.089,0.309-1.977,0.926-2.663s1.384-1.029,2.3-1.029s1.625,0.296,2.126,0.889
			s0.752,1.415,0.752,2.468V354.945z M157.39,353.995c-0.004-0.647-0.161-1.151-0.468-1.511s-0.735-0.54-1.282-0.54
			c-0.529,0-0.978,0.189-1.347,0.567s-0.597,0.873-0.684,1.483H157.39z"/>
		<path fill="#2F2F2F" d="M166.031,358.165h-1.121v-3.992c0-1.486-0.542-2.229-1.627-2.229c-0.561,0-1.024,0.211-1.391,0.632
			s-0.55,0.954-0.55,1.596v3.992h-1.121v-7h1.121v1.162h0.027c0.529-0.884,1.294-1.326,2.297-1.326c0.766,0,1.351,0.247,1.757,0.742
			s0.608,1.209,0.608,2.143V358.165z"/>
		<path fill="#2F2F2F" d="M171.26,358.096c-0.264,0.146-0.613,0.219-1.046,0.219c-1.226,0-1.839-0.684-1.839-2.051v-4.143h-1.203
			v-0.957h1.203v-1.709l1.121-0.362v2.071h1.764v0.957h-1.764v3.944c0,0.469,0.08,0.804,0.239,1.005s0.424,0.301,0.793,0.301
			c0.283,0,0.526-0.078,0.731-0.232V358.096z"/>
	</g>
	<g>
		<path fill="#2F2F2F" d="M11.964,59.612c-0.716,0.346-1.649,0.52-2.803,0.52c-1.504,0-2.687-0.442-3.548-1.326
			s-1.292-2.062-1.292-3.534c0-1.568,0.484-2.839,1.453-3.814c0.968-0.975,2.225-1.463,3.77-1.463c0.957,0,1.764,0.121,2.42,0.362
			v2.126c-0.656-0.392-1.403-0.588-2.242-0.588c-0.921,0-1.663,0.29-2.229,0.868s-0.848,1.363-0.848,2.352
			c0,0.948,0.267,1.703,0.8,2.266s1.251,0.844,2.153,0.844c0.861,0,1.649-0.209,2.365-0.629V59.612z"/>
		<path fill="#2F2F2F" d="M15.576,59.961h-2.16V49.597h2.16V59.961z"/>
		<path fill="#2F2F2F" d="M18.441,51.853c-0.364,0-0.663-0.108-0.896-0.325s-0.349-0.482-0.349-0.796
			c0-0.324,0.116-0.588,0.349-0.793s0.531-0.308,0.896-0.308c0.369,0,0.669,0.103,0.899,0.308c0.229,0.205,0.345,0.469,0.345,0.793
			c0,0.328-0.115,0.597-0.345,0.807C19.11,51.748,18.81,51.853,18.441,51.853z M19.507,59.961h-2.16v-7h2.16V59.961z"/>
		<path fill="#2F2F2F" d="M27.569,57.076h-4.566c0.073,1.016,0.713,1.524,1.921,1.524c0.771,0,1.447-0.182,2.03-0.547v1.559
			c-0.647,0.346-1.488,0.52-2.522,0.52c-1.13,0-2.008-0.313-2.632-0.94s-0.937-1.5-0.937-2.622c0-1.162,0.337-2.083,1.012-2.762
			s1.504-1.019,2.488-1.019c1.021,0,1.811,0.303,2.369,0.909c0.558,0.606,0.837,1.429,0.837,2.468V57.076z M25.566,55.75
			c0-1.002-0.405-1.504-1.217-1.504c-0.347,0-0.646,0.144-0.898,0.431c-0.254,0.287-0.407,0.645-0.462,1.073H25.566z"/>
		<path fill="#2F2F2F" d="M35.695,59.961h-2.153v-3.89c0-1.084-0.388-1.627-1.162-1.627c-0.374,0-0.682,0.144-0.923,0.431
			s-0.362,0.652-0.362,1.094v3.992h-2.16v-7h2.16v1.107h0.027c0.515-0.852,1.265-1.278,2.249-1.278c1.55,0,2.324,0.961,2.324,2.885
			V59.961z"/>
		<path fill="#2F2F2F" d="M41.544,59.879c-0.319,0.168-0.8,0.253-1.442,0.253c-1.522,0-2.283-0.791-2.283-2.372v-3.206h-1.135
			v-1.593h1.135V51.45l2.153-0.615v2.126h1.572v1.593h-1.572v2.83c0,0.729,0.289,1.094,0.868,1.094c0.228,0,0.463-0.066,0.704-0.198
			V59.879z"/>
		<path fill="#2F2F2F" d="M52.448,59.961h-2.044v-1.005h-0.027c-0.47,0.784-1.164,1.176-2.085,1.176
			c-0.679,0-1.214-0.192-1.603-0.578c-0.391-0.385-0.585-0.899-0.585-1.542c0-1.358,0.805-2.142,2.413-2.352l1.9-0.253
			c0-0.766-0.415-1.148-1.244-1.148c-0.834,0-1.627,0.249-2.379,0.745v-1.627c0.301-0.155,0.712-0.292,1.234-0.41
			c0.521-0.119,0.996-0.178,1.425-0.178c1.996,0,2.994,0.996,2.994,2.987V59.961z M50.417,57.117v-0.472l-1.271,0.164
			c-0.702,0.091-1.053,0.408-1.053,0.95c0,0.246,0.086,0.448,0.256,0.605c0.172,0.157,0.402,0.236,0.694,0.236
			c0.405,0,0.736-0.14,0.991-0.42S50.417,57.545,50.417,57.117z"/>
		<path fill="#2F2F2F" d="M56.332,59.147h-0.027v4.033h-2.16v-10.22h2.16v1.053h0.027c0.533-0.816,1.283-1.224,2.249-1.224
			c0.907,0,1.607,0.311,2.102,0.933c0.495,0.622,0.742,1.469,0.742,2.54c0,1.167-0.288,2.103-0.865,2.81
			c-0.576,0.707-1.343,1.06-2.3,1.06C57.417,60.131,56.774,59.803,56.332,59.147z M56.27,56.276v0.561
			c0,0.483,0.128,0.877,0.383,1.183s0.59,0.458,1.005,0.458c0.492,0,0.874-0.19,1.146-0.571c0.271-0.38,0.406-0.919,0.406-1.617
			c0-1.23-0.479-1.846-1.436-1.846c-0.442,0-0.803,0.167-1.084,0.502C56.411,55.281,56.27,55.725,56.27,56.276z"/>
		<path fill="#2F2F2F" d="M65.028,59.147H65v4.033h-2.16v-10.22H65v1.053h0.027c0.533-0.816,1.283-1.224,2.249-1.224
			c0.907,0,1.607,0.311,2.102,0.933c0.495,0.622,0.742,1.469,0.742,2.54c0,1.167-0.288,2.103-0.865,2.81
			c-0.576,0.707-1.343,1.06-2.3,1.06C66.113,60.131,65.47,59.803,65.028,59.147z M64.966,56.276v0.561
			c0,0.483,0.128,0.877,0.383,1.183s0.59,0.458,1.005,0.458c0.492,0,0.874-0.19,1.146-0.571c0.271-0.38,0.406-0.919,0.406-1.617
			c0-1.23-0.479-1.846-1.436-1.846c-0.442,0-0.803,0.167-1.084,0.502C65.107,55.281,64.966,55.725,64.966,56.276z"/>
		<path fill="#2F2F2F" d="M71.161,59.776v-1.75c0.355,0.214,0.71,0.374,1.062,0.479c0.354,0.105,0.688,0.157,1.002,0.157
			c0.383,0,0.685-0.052,0.906-0.157c0.221-0.105,0.331-0.264,0.331-0.479c0-0.137-0.05-0.25-0.15-0.342s-0.229-0.171-0.386-0.239
			c-0.158-0.068-0.33-0.13-0.517-0.185s-0.367-0.116-0.54-0.185c-0.278-0.105-0.523-0.218-0.734-0.338
			c-0.213-0.121-0.391-0.261-0.533-0.42c-0.145-0.16-0.254-0.344-0.328-0.554c-0.076-0.209-0.113-0.458-0.113-0.745
			c0-0.392,0.086-0.729,0.256-1.012c0.172-0.283,0.399-0.514,0.684-0.694c0.285-0.18,0.611-0.312,0.979-0.396
			c0.366-0.084,0.748-0.126,1.145-0.126c0.31,0,0.624,0.024,0.943,0.072s0.634,0.117,0.943,0.208v1.668
			c-0.273-0.16-0.566-0.279-0.879-0.359c-0.312-0.08-0.618-0.12-0.919-0.12c-0.142,0-0.274,0.013-0.399,0.038
			c-0.126,0.025-0.236,0.062-0.332,0.109s-0.171,0.109-0.226,0.185s-0.082,0.161-0.082,0.256c0,0.127,0.041,0.237,0.123,0.328
			s0.189,0.17,0.321,0.236s0.279,0.125,0.441,0.178c0.161,0.052,0.322,0.106,0.481,0.161c0.287,0.1,0.547,0.209,0.779,0.328
			s0.432,0.257,0.599,0.417c0.166,0.16,0.293,0.346,0.383,0.561c0.088,0.214,0.133,0.469,0.133,0.766c0,0.415-0.09,0.769-0.27,1.063
			c-0.181,0.294-0.42,0.533-0.719,0.718c-0.298,0.185-0.643,0.319-1.031,0.403c-0.391,0.084-0.795,0.126-1.214,0.126
			C72.53,60.131,71.817,60.013,71.161,59.776z"/>
	</g>
	<g>
		<path fill="#2F2F2F" d="M252.415,59.4h-2.406l-0.697-2.181h-3.486l-0.69,2.181h-2.393l3.568-9.803h2.618L252.415,59.4z
			 M248.805,55.524l-1.053-3.295c-0.077-0.246-0.132-0.54-0.164-0.882h-0.055c-0.022,0.287-0.08,0.572-0.171,0.854l-1.066,3.322
			H248.805z"/>
		<path fill="#2F2F2F" d="M255.726,56.023V59.4h-2.208v-9.803h3.459c2.47,0,3.705,1.042,3.705,3.124
			c0,0.984-0.354,1.781-1.062,2.389c-0.709,0.608-1.656,0.913-2.841,0.913H255.726z M255.726,51.293v3.056h0.868
			c1.176,0,1.764-0.515,1.764-1.545c0-1.007-0.588-1.511-1.764-1.511H255.726z"/>
		<path fill="#2F2F2F" d="M264.129,59.4h-2.208v-9.803h2.208V59.4z"/>
		<path fill="#2F2F2F" d="M224.375,76.2h-2.181v-5.865c0-0.633,0.027-1.333,0.082-2.099h-0.055
			c-0.114,0.602-0.217,1.035-0.308,1.299l-2.297,6.665h-1.805l-2.338-6.597c-0.063-0.178-0.166-0.633-0.308-1.367h-0.062
			c0.06,0.966,0.089,1.814,0.089,2.543V76.2h-1.989v-9.803h3.233l2.003,5.811c0.159,0.465,0.275,0.932,0.349,1.401h0.041
			c0.123-0.542,0.253-1.014,0.39-1.415l2.003-5.797h3.151V76.2z"/>
		<path fill="#2F2F2F" d="M232.194,76.2h-2.044v-1.005h-0.027c-0.47,0.784-1.164,1.176-2.085,1.176
			c-0.679,0-1.214-0.192-1.603-0.578c-0.391-0.385-0.585-0.899-0.585-1.542c0-1.358,0.805-2.142,2.413-2.352l1.9-0.253
			c0-0.766-0.415-1.148-1.244-1.148c-0.834,0-1.627,0.249-2.379,0.745v-1.627c0.301-0.155,0.712-0.292,1.234-0.41
			c0.521-0.119,0.996-0.178,1.425-0.178c1.996,0,2.994,0.996,2.994,2.987V76.2z M230.164,73.356v-0.472l-1.271,0.164
			c-0.702,0.091-1.053,0.408-1.053,0.95c0,0.246,0.086,0.448,0.256,0.605c0.172,0.157,0.402,0.236,0.694,0.236
			c0.405,0,0.736-0.14,0.991-0.42S230.164,73.784,230.164,73.356z"/>
		<path fill="#2F2F2F" d="M240.652,76.2h-2.153v-3.89c0-1.084-0.388-1.627-1.162-1.627c-0.374,0-0.682,0.144-0.923,0.431
			s-0.362,0.652-0.362,1.094V76.2h-2.16v-7h2.16v1.107h0.027c0.515-0.852,1.265-1.278,2.249-1.278c1.55,0,2.324,0.961,2.324,2.885
			V76.2z"/>
		<path fill="#2F2F2F" d="M248.217,76.2h-2.044v-1.005h-0.027c-0.47,0.784-1.164,1.176-2.085,1.176
			c-0.679,0-1.214-0.192-1.603-0.578c-0.391-0.385-0.585-0.899-0.585-1.542c0-1.358,0.805-2.142,2.413-2.352l1.9-0.253
			c0-0.766-0.415-1.148-1.244-1.148c-0.834,0-1.627,0.249-2.379,0.745v-1.627c0.301-0.155,0.712-0.292,1.234-0.41
			c0.521-0.119,0.996-0.178,1.425-0.178c1.996,0,2.994,0.996,2.994,2.987V76.2z M246.187,73.356v-0.472l-1.271,0.164
			c-0.702,0.091-1.053,0.408-1.053,0.95c0,0.246,0.086,0.448,0.256,0.605c0.172,0.157,0.402,0.236,0.694,0.236
			c0.405,0,0.736-0.14,0.991-0.42S246.187,73.784,246.187,73.356z"/>
		<path fill="#2F2F2F" d="M256.812,75.4c0,1.299-0.376,2.305-1.128,3.018s-1.841,1.07-3.268,1.07c-0.943,0-1.69-0.134-2.242-0.403
			v-1.818c0.72,0.419,1.447,0.629,2.181,0.629c0.729,0,1.294-0.192,1.695-0.578s0.602-0.908,0.602-1.569v-0.554h-0.027
			c-0.492,0.784-1.219,1.176-2.181,1.176c-0.894,0-1.602-0.314-2.126-0.943s-0.786-1.472-0.786-2.529
			c0-1.185,0.292-2.126,0.875-2.823s1.352-1.046,2.304-1.046c0.853,0,1.49,0.328,1.914,0.984h0.027V69.2h2.16V75.4z M254.679,72.837
			v-0.554c0-0.442-0.131-0.819-0.394-1.131c-0.262-0.312-0.603-0.468-1.021-0.468c-0.479,0-0.854,0.187-1.128,0.561
			s-0.41,0.9-0.41,1.579c0,0.583,0.13,1.045,0.39,1.384s0.615,0.509,1.066,0.509c0.446,0,0.808-0.172,1.084-0.516
			C254.542,73.856,254.679,73.401,254.679,72.837z"/>
		<path fill="#2F2F2F" d="M264.906,73.315h-4.566c0.073,1.016,0.713,1.524,1.921,1.524c0.771,0,1.447-0.182,2.03-0.547v1.559
			c-0.647,0.346-1.488,0.52-2.522,0.52c-1.13,0-2.008-0.313-2.632-0.94s-0.937-1.5-0.937-2.622c0-1.162,0.337-2.083,1.012-2.762
			s1.504-1.019,2.488-1.019c1.021,0,1.811,0.303,2.369,0.909c0.558,0.606,0.837,1.429,0.837,2.468V73.315z M262.903,71.989
			c0-1.002-0.405-1.504-1.217-1.504c-0.347,0-0.646,0.144-0.898,0.431c-0.254,0.287-0.407,0.645-0.462,1.073H262.903z"/>
		<path fill="#2F2F2F" d="M277.385,76.2h-2.153v-3.992c0-1.016-0.374-1.524-1.121-1.524c-0.355,0-0.645,0.153-0.868,0.458
			s-0.335,0.686-0.335,1.142V76.2h-2.16v-4.033c0-0.989-0.367-1.483-1.101-1.483c-0.369,0-0.664,0.146-0.886,0.438
			c-0.221,0.292-0.331,0.688-0.331,1.189v3.89h-2.16v-7h2.16v1.094h0.027c0.224-0.374,0.536-0.678,0.94-0.913
			c0.402-0.235,0.844-0.352,1.322-0.352c0.989,0,1.666,0.435,2.03,1.306c0.533-0.871,1.317-1.306,2.352-1.306
			c1.522,0,2.283,0.939,2.283,2.816V76.2z"/>
		<path fill="#2F2F2F" d="M285.406,73.315h-4.566c0.073,1.016,0.713,1.524,1.921,1.524c0.771,0,1.447-0.182,2.03-0.547v1.559
			c-0.647,0.346-1.488,0.52-2.522,0.52c-1.13,0-2.008-0.313-2.632-0.94s-0.937-1.5-0.937-2.622c0-1.162,0.337-2.083,1.012-2.762
			s1.504-1.019,2.488-1.019c1.021,0,1.811,0.303,2.369,0.909c0.558,0.606,0.837,1.429,0.837,2.468V73.315z M283.403,71.989
			c0-1.002-0.405-1.504-1.217-1.504c-0.347,0-0.646,0.144-0.898,0.431c-0.254,0.287-0.407,0.645-0.462,1.073H283.403z"/>
		<path fill="#2F2F2F" d="M293.532,76.2h-2.153v-3.89c0-1.084-0.388-1.627-1.162-1.627c-0.374,0-0.682,0.144-0.923,0.431
			s-0.362,0.652-0.362,1.094V76.2h-2.16v-7h2.16v1.107h0.027c0.515-0.852,1.265-1.278,2.249-1.278c1.55,0,2.324,0.961,2.324,2.885
			V76.2z"/>
		<path fill="#2F2F2F" d="M299.381,76.118c-0.319,0.168-0.8,0.253-1.442,0.253c-1.522,0-2.283-0.791-2.283-2.372v-3.206h-1.135V69.2
			h1.135v-1.511l2.153-0.615V69.2h1.572v1.593h-1.572v2.83c0,0.729,0.289,1.094,0.868,1.094c0.228,0,0.463-0.066,0.704-0.198V76.118
			z"/>
	</g>
	<g>
		<path fill="#2F2F2F" d="M450.665,59.961h-2.208v-9.803h2.208V59.961z"/>
		<path fill="#2F2F2F" d="M459.531,59.961h-2.16v-0.964h-0.027c-0.492,0.756-1.215,1.135-2.167,1.135
			c-0.875,0-1.579-0.309-2.112-0.926s-0.8-1.48-0.8-2.587c0-1.158,0.294-2.085,0.882-2.782s1.358-1.046,2.311-1.046
			c0.902,0,1.531,0.324,1.887,0.971h0.027v-4.163h2.16V59.961z M457.412,56.556V56.03c0-0.456-0.132-0.834-0.396-1.135
			s-0.608-0.451-1.032-0.451c-0.479,0-0.853,0.188-1.121,0.564s-0.403,0.892-0.403,1.548c0,0.615,0.13,1.089,0.39,1.422
			s0.62,0.499,1.08,0.499c0.438,0,0.794-0.175,1.07-0.526C457.274,57.6,457.412,57.135,457.412,56.556z"/>
		<path fill="#2F2F2F" d="M467.638,57.076h-4.566c0.073,1.016,0.713,1.524,1.921,1.524c0.771,0,1.447-0.182,2.03-0.547v1.559
			c-0.647,0.346-1.488,0.52-2.522,0.52c-1.13,0-2.008-0.313-2.632-0.94s-0.937-1.5-0.937-2.622c0-1.162,0.337-2.083,1.012-2.762
			s1.504-1.019,2.488-1.019c1.021,0,1.811,0.303,2.369,0.909c0.558,0.606,0.837,1.429,0.837,2.468V57.076z M465.635,55.75
			c0-1.002-0.405-1.504-1.217-1.504c-0.347,0-0.646,0.144-0.898,0.431c-0.254,0.287-0.407,0.645-0.462,1.073H465.635z"/>
		<path fill="#2F2F2F" d="M475.764,59.961h-2.153v-3.89c0-1.084-0.388-1.627-1.162-1.627c-0.374,0-0.682,0.144-0.923,0.431
			s-0.362,0.652-0.362,1.094v3.992h-2.16v-7h2.16v1.107h0.027c0.515-0.852,1.265-1.278,2.249-1.278c1.55,0,2.324,0.961,2.324,2.885
			V59.961z"/>
		<path fill="#2F2F2F" d="M481.614,59.879c-0.319,0.168-0.8,0.253-1.442,0.253c-1.522,0-2.283-0.791-2.283-2.372v-3.206h-1.135
			v-1.593h1.135V51.45l2.153-0.615v2.126h1.572v1.593h-1.572v2.83c0,0.729,0.289,1.094,0.868,1.094c0.228,0,0.463-0.066,0.704-0.198
			V59.879z"/>
		<path fill="#2F2F2F" d="M483.991,51.853c-0.364,0-0.663-0.108-0.896-0.325s-0.349-0.482-0.349-0.796
			c0-0.324,0.116-0.588,0.349-0.793s0.531-0.308,0.896-0.308c0.369,0,0.669,0.103,0.899,0.308c0.229,0.205,0.345,0.469,0.345,0.793
			c0,0.328-0.115,0.597-0.345,0.807C484.66,51.748,484.36,51.853,483.991,51.853z M485.057,59.961h-2.16v-7h2.16V59.961z"/>
		<path fill="#2F2F2F" d="M490.994,59.879c-0.319,0.168-0.8,0.253-1.442,0.253c-1.522,0-2.283-0.791-2.283-2.372v-3.206h-1.135
			v-1.593h1.135V51.45l2.153-0.615v2.126h1.572v1.593h-1.572v2.83c0,0.729,0.289,1.094,0.868,1.094c0.228,0,0.463-0.066,0.704-0.198
			V59.879z"/>
		<path fill="#2F2F2F" d="M499.218,52.961l-2.844,7.561c-0.684,1.818-1.714,2.728-3.09,2.728c-0.524,0-0.955-0.059-1.292-0.178
			v-1.723c0.287,0.168,0.6,0.253,0.937,0.253c0.556,0,0.943-0.262,1.162-0.786l0.369-0.868l-2.844-6.986h2.393l1.306,4.259
			c0.082,0.264,0.146,0.577,0.191,0.937h0.027c0.041-0.264,0.116-0.572,0.226-0.923l1.319-4.272H499.218z"/>
		<path fill="#2F2F2F" d="M450.192,75.947h-0.027v4.033h-2.16V69.76h2.16v1.053h0.027c0.533-0.816,1.283-1.224,2.249-1.224
			c0.907,0,1.607,0.311,2.102,0.933c0.495,0.622,0.742,1.469,0.742,2.54c0,1.167-0.288,2.103-0.865,2.81
			c-0.576,0.707-1.343,1.06-2.3,1.06C451.277,76.931,450.634,76.603,450.192,75.947z M450.13,73.076v0.561
			c0,0.483,0.128,0.877,0.383,1.183s0.59,0.458,1.005,0.458c0.492,0,0.874-0.19,1.146-0.571c0.271-0.38,0.406-0.919,0.406-1.617
			c0-1.23-0.479-1.846-1.436-1.846c-0.442,0-0.803,0.167-1.084,0.502C450.271,72.081,450.13,72.525,450.13,73.076z"/>
		<path fill="#2F2F2F" d="M461.268,71.709c-0.26-0.141-0.562-0.212-0.909-0.212c-0.47,0-0.836,0.172-1.101,0.516
			s-0.396,0.812-0.396,1.405v3.343h-2.16v-7h2.16v1.299h0.027c0.342-0.948,0.957-1.422,1.846-1.422c0.228,0,0.405,0.027,0.533,0.082
			V71.709z"/>
		<path fill="#2F2F2F" d="M465.694,76.931c-1.167,0-2.084-0.327-2.751-0.981c-0.668-0.654-1.002-1.542-1.002-2.663
			c0-1.158,0.347-2.063,1.039-2.717s1.629-0.981,2.81-0.981c1.162,0,2.073,0.327,2.734,0.981s0.991,1.519,0.991,2.594
			c0,1.162-0.341,2.081-1.021,2.755C467.812,76.594,466.878,76.931,465.694,76.931z M465.749,71.244
			c-0.511,0-0.907,0.175-1.189,0.526s-0.424,0.848-0.424,1.49c0,1.344,0.542,2.017,1.627,2.017c1.034,0,1.552-0.69,1.552-2.071
			C467.314,71.898,466.792,71.244,465.749,71.244z"/>
		<path fill="#2F2F2F" d="M477.383,69.76l-2.604,7h-2.461l-2.481-7h2.311l1.217,4.313c0.137,0.488,0.217,0.902,0.239,1.244h0.027
			c0.032-0.324,0.116-0.725,0.253-1.203l1.244-4.354H477.383z"/>
		<path fill="#2F2F2F" d="M479.429,68.653c-0.364,0-0.663-0.108-0.896-0.325s-0.349-0.482-0.349-0.796
			c0-0.324,0.116-0.588,0.349-0.793s0.531-0.308,0.896-0.308c0.369,0,0.669,0.103,0.899,0.308c0.229,0.205,0.345,0.469,0.345,0.793
			c0,0.328-0.115,0.597-0.345,0.807C480.098,68.548,479.798,68.653,479.429,68.653z M480.496,76.76h-2.16v-7h2.16V76.76z"/>
		<path fill="#2F2F2F" d="M489.147,76.76h-2.16v-0.964h-0.027c-0.492,0.756-1.215,1.135-2.167,1.135
			c-0.875,0-1.579-0.309-2.112-0.926s-0.8-1.48-0.8-2.587c0-1.158,0.294-2.085,0.882-2.782s1.358-1.046,2.311-1.046
			c0.902,0,1.531,0.324,1.887,0.971h0.027v-4.163h2.16V76.76z M487.028,73.356V72.83c0-0.456-0.132-0.834-0.396-1.135
			s-0.608-0.451-1.032-0.451c-0.479,0-0.853,0.188-1.121,0.564s-0.403,0.892-0.403,1.548c0,0.615,0.13,1.089,0.39,1.422
			s0.62,0.499,1.08,0.499c0.438,0,0.794-0.175,1.07-0.526C486.89,74.4,487.028,73.935,487.028,73.356z"/>
		<path fill="#2F2F2F" d="M497.254,73.876h-4.566c0.073,1.016,0.713,1.524,1.921,1.524c0.771,0,1.447-0.182,2.03-0.547v1.559
			c-0.647,0.346-1.488,0.52-2.522,0.52c-1.13,0-2.008-0.313-2.632-0.94s-0.937-1.5-0.937-2.622c0-1.162,0.337-2.083,1.012-2.762
			s1.504-1.019,2.488-1.019c1.021,0,1.811,0.303,2.369,0.909c0.558,0.606,0.837,1.429,0.837,2.468V73.876z M495.251,72.549
			c0-1.002-0.405-1.504-1.217-1.504c-0.347,0-0.646,0.144-0.898,0.431c-0.254,0.287-0.407,0.645-0.462,1.073H495.251z"/>
		<path fill="#2F2F2F" d="M503.185,71.709c-0.26-0.141-0.562-0.212-0.909-0.212c-0.47,0-0.836,0.172-1.101,0.516
			s-0.396,0.812-0.396,1.405v3.343h-2.16v-7h2.16v1.299h0.027c0.342-0.948,0.957-1.422,1.846-1.422c0.228,0,0.405,0.027,0.533,0.082
			V71.709z"/>
	</g>
	<g>
		<path fill="#2F2F2F" d="M669.235,59.961v-9.803h3.568c1.094,0,1.935,0.201,2.522,0.602s0.882,0.966,0.882,1.695
			c0,0.529-0.179,0.991-0.537,1.388c-0.357,0.396-0.814,0.672-1.37,0.827v0.027c0.697,0.086,1.255,0.344,1.671,0.772
			c0.418,0.428,0.626,0.95,0.626,1.565c0,0.898-0.321,1.61-0.964,2.136s-1.52,0.79-2.632,0.79H669.235z M671.443,51.785v2.324h0.971
			c0.456,0,0.814-0.11,1.077-0.332c0.262-0.221,0.393-0.525,0.393-0.913c0-0.72-0.538-1.08-1.613-1.08H671.443z M671.443,55.75
			v2.584h1.196c0.511,0,0.91-0.119,1.199-0.355c0.29-0.237,0.435-0.561,0.435-0.971c0-0.392-0.143-0.7-0.427-0.923
			c-0.285-0.223-0.683-0.335-1.193-0.335H671.443z"/>
		<path fill="#2F2F2F" d="M683.874,59.961h-2.044v-1.005h-0.027c-0.47,0.784-1.164,1.176-2.085,1.176
			c-0.679,0-1.214-0.192-1.603-0.578c-0.391-0.385-0.585-0.899-0.585-1.542c0-1.358,0.805-2.142,2.413-2.352l1.9-0.253
			c0-0.766-0.415-1.148-1.244-1.148c-0.834,0-1.627,0.249-2.379,0.745v-1.627c0.301-0.155,0.712-0.292,1.234-0.41
			c0.521-0.119,0.996-0.178,1.425-0.178c1.996,0,2.994,0.996,2.994,2.987V59.961z M681.843,57.117v-0.472l-1.271,0.164
			c-0.702,0.091-1.053,0.408-1.053,0.95c0,0.246,0.086,0.448,0.256,0.605c0.172,0.157,0.402,0.236,0.694,0.236
			c0.405,0,0.736-0.14,0.991-0.42S681.843,57.545,681.843,57.117z"/>
		<path fill="#2F2F2F" d="M690.887,59.708c-0.487,0.283-1.191,0.424-2.112,0.424c-1.075,0-1.946-0.326-2.611-0.978
			s-0.998-1.493-0.998-2.522c0-1.189,0.356-2.127,1.07-2.813c0.713-0.686,1.666-1.029,2.86-1.029c0.825,0,1.422,0.109,1.791,0.328
			v1.832c-0.451-0.337-0.955-0.506-1.511-0.506c-0.62,0-1.111,0.181-1.473,0.543c-0.363,0.362-0.544,0.862-0.544,1.5
			c0,0.62,0.173,1.106,0.52,1.459s0.822,0.53,1.429,0.53c0.538,0,1.064-0.168,1.579-0.506V59.708z"/>
		<path fill="#2F2F2F" d="M699.417,59.961h-2.591l-2.235-3.473h-0.027v3.473h-2.16V49.597h2.16v6.597h0.027l2.085-3.233h2.563
			l-2.509,3.288L699.417,59.961z"/>
		<path fill="#2F2F2F" d="M706.312,57.076h-4.566c0.073,1.016,0.713,1.524,1.921,1.524c0.771,0,1.447-0.182,2.03-0.547v1.559
			c-0.647,0.346-1.488,0.52-2.522,0.52c-1.13,0-2.008-0.313-2.632-0.94s-0.937-1.5-0.937-2.622c0-1.162,0.337-2.083,1.012-2.762
			s1.504-1.019,2.488-1.019c1.021,0,1.811,0.303,2.369,0.909c0.558,0.606,0.837,1.429,0.837,2.468V57.076z M704.309,55.75
			c0-1.002-0.405-1.504-1.217-1.504c-0.347,0-0.646,0.144-0.898,0.431c-0.254,0.287-0.407,0.645-0.462,1.073H704.309z"/>
		<path fill="#2F2F2F" d="M714.437,59.961h-2.153v-3.89c0-1.084-0.388-1.627-1.162-1.627c-0.374,0-0.682,0.144-0.923,0.431
			s-0.362,0.652-0.362,1.094v3.992h-2.16v-7h2.16v1.107h0.027c0.515-0.852,1.265-1.278,2.249-1.278c1.55,0,2.324,0.961,2.324,2.885
			V59.961z"/>
		<path fill="#2F2F2F" d="M723.02,59.961h-2.16v-0.964h-0.027c-0.492,0.756-1.215,1.135-2.167,1.135
			c-0.875,0-1.579-0.309-2.112-0.926s-0.8-1.48-0.8-2.587c0-1.158,0.294-2.085,0.882-2.782s1.358-1.046,2.311-1.046
			c0.902,0,1.531,0.324,1.887,0.971h0.027v-4.163h2.16V59.961z M720.901,56.556V56.03c0-0.456-0.132-0.834-0.396-1.135
			s-0.608-0.451-1.032-0.451c-0.479,0-0.853,0.188-1.121,0.564s-0.403,0.892-0.403,1.548c0,0.615,0.13,1.089,0.39,1.422
			s0.62,0.499,1.08,0.499c0.438,0,0.794-0.175,1.07-0.526C720.763,57.6,720.901,57.135,720.901,56.556z"/>
		<path fill="#2F2F2F" d="M691.353,76.76h-2.406l-0.697-2.181h-3.486l-0.69,2.181h-2.393l3.568-9.803h2.618L691.353,76.76z
			 M687.744,72.884l-1.053-3.295c-0.077-0.246-0.132-0.54-0.164-0.882h-0.055c-0.022,0.287-0.08,0.572-0.171,0.854l-1.066,3.322
			H687.744z"/>
		<path fill="#2F2F2F" d="M694.665,73.383v3.377h-2.208v-9.803h3.459c2.47,0,3.705,1.042,3.705,3.124
			c0,0.984-0.354,1.781-1.062,2.389c-0.709,0.608-1.656,0.913-2.841,0.913H694.665z M694.665,68.653v3.056h0.868
			c1.176,0,1.764-0.515,1.764-1.545c0-1.007-0.588-1.511-1.764-1.511H694.665z"/>
		<path fill="#2F2F2F" d="M703.068,76.76h-2.208v-9.803h2.208V76.76z"/>
		<path fill="#2F2F2F" d="M704.721,76.576v-1.75c0.355,0.214,0.71,0.374,1.062,0.479c0.354,0.105,0.688,0.157,1.002,0.157
			c0.383,0,0.685-0.052,0.906-0.157c0.221-0.105,0.331-0.264,0.331-0.479c0-0.137-0.05-0.25-0.15-0.342s-0.229-0.171-0.386-0.239
			c-0.158-0.068-0.33-0.13-0.517-0.185s-0.367-0.116-0.54-0.185c-0.278-0.105-0.523-0.218-0.734-0.338
			c-0.213-0.121-0.391-0.261-0.533-0.42c-0.145-0.16-0.254-0.344-0.328-0.554c-0.076-0.209-0.113-0.458-0.113-0.745
			c0-0.392,0.086-0.729,0.256-1.012c0.172-0.283,0.399-0.514,0.684-0.694c0.285-0.18,0.611-0.312,0.979-0.396
			c0.366-0.084,0.748-0.126,1.145-0.126c0.31,0,0.624,0.024,0.943,0.072s0.634,0.117,0.943,0.208v1.668
			c-0.273-0.16-0.566-0.279-0.879-0.359c-0.312-0.08-0.618-0.12-0.919-0.12c-0.142,0-0.274,0.013-0.399,0.038
			c-0.126,0.025-0.236,0.062-0.332,0.109s-0.171,0.109-0.226,0.185s-0.082,0.161-0.082,0.256c0,0.127,0.041,0.237,0.123,0.328
			s0.189,0.17,0.321,0.236s0.279,0.125,0.441,0.178c0.161,0.052,0.322,0.106,0.481,0.161c0.287,0.1,0.547,0.209,0.779,0.328
			s0.432,0.257,0.599,0.417c0.166,0.16,0.293,0.346,0.383,0.561c0.088,0.214,0.133,0.469,0.133,0.766c0,0.415-0.09,0.769-0.27,1.063
			c-0.181,0.294-0.42,0.533-0.719,0.718c-0.298,0.185-0.643,0.319-1.031,0.403c-0.391,0.084-0.795,0.126-1.214,0.126
			C706.09,76.931,705.377,76.813,704.721,76.576z"/>
	</g>
	<g>
		<rect x="96.6" y="88.344" fill="none" width="98.63" height="19.999"/>
		<path fill="#2F2F2F" d="M104.557,98.297c-0.725,0.383-1.627,0.574-2.707,0.574c-1.395,0-2.511-0.449-3.35-1.347
			s-1.258-2.076-1.258-3.534c0-1.568,0.472-2.834,1.415-3.801s2.14-1.449,3.589-1.449c0.93,0,1.7,0.134,2.311,0.403v1.224
			c-0.702-0.392-1.477-0.588-2.324-0.588c-1.125,0-2.038,0.376-2.738,1.128s-1.049,1.757-1.049,3.015
			c0,1.194,0.327,2.146,0.981,2.854s1.512,1.063,2.574,1.063c0.984,0,1.836-0.219,2.557-0.656V98.297z"/>
		<path fill="#2F2F2F" d="M107.23,98.708h-1.121V88.344h1.121V98.708z"/>
		<path fill="#2F2F2F" d="M109.917,89.93c-0.201,0-0.372-0.068-0.513-0.205s-0.212-0.31-0.212-0.52s0.071-0.384,0.212-0.523
			s0.312-0.208,0.513-0.208c0.205,0,0.379,0.069,0.523,0.208s0.215,0.313,0.215,0.523c0,0.201-0.072,0.372-0.215,0.513
			S110.122,89.93,109.917,89.93z M110.464,98.708h-1.121v-7h1.121V98.708z"/>
		<path fill="#2F2F2F" d="M118.258,95.488h-4.942c0.018,0.779,0.228,1.381,0.629,1.805s0.953,0.636,1.654,0.636
			c0.789,0,1.513-0.26,2.174-0.779v1.053c-0.615,0.447-1.429,0.67-2.44,0.67c-0.989,0-1.766-0.318-2.331-0.954
			s-0.848-1.53-0.848-2.683c0-1.089,0.309-1.977,0.926-2.663s1.384-1.029,2.3-1.029s1.625,0.296,2.126,0.889
			s0.752,1.415,0.752,2.468V95.488z M117.11,94.538c-0.004-0.647-0.161-1.151-0.468-1.511s-0.735-0.54-1.282-0.54
			c-0.529,0-0.978,0.189-1.347,0.567s-0.597,0.873-0.684,1.483H117.11z"/>
		<path fill="#2F2F2F" d="M125.752,98.708h-1.121v-3.992c0-1.486-0.542-2.229-1.627-2.229c-0.561,0-1.024,0.211-1.391,0.632
			s-0.55,0.954-0.55,1.596v3.992h-1.121v-7h1.121v1.162h0.027c0.529-0.884,1.294-1.326,2.297-1.326c0.766,0,1.351,0.247,1.757,0.742
			s0.608,1.209,0.608,2.143V98.708z"/>
		<path fill="#2F2F2F" d="M130.981,98.639c-0.264,0.146-0.613,0.219-1.046,0.219c-1.226,0-1.839-0.684-1.839-2.051v-4.143h-1.203
			v-0.957h1.203v-1.709l1.121-0.362v2.071h1.764v0.957h-1.764v3.944c0,0.469,0.08,0.804,0.239,1.005s0.424,0.301,0.793,0.301
			c0.283,0,0.526-0.078,0.731-0.232V98.639z"/>
		<path fill="#2F2F2F" d="M139.963,92.842c-0.196-0.15-0.479-0.226-0.848-0.226c-0.479,0-0.878,0.226-1.2,0.677
			s-0.482,1.066-0.482,1.846v3.568h-1.121v-7h1.121v1.442h0.027c0.16-0.492,0.403-0.876,0.731-1.152s0.695-0.414,1.101-0.414
			c0.292,0,0.515,0.032,0.67,0.096V92.842z"/>
		<path fill="#2F2F2F" d="M146.806,95.488h-4.942c0.018,0.779,0.228,1.381,0.629,1.805s0.953,0.636,1.654,0.636
			c0.789,0,1.513-0.26,2.174-0.779v1.053c-0.615,0.447-1.429,0.67-2.44,0.67c-0.989,0-1.766-0.318-2.331-0.954
			s-0.848-1.53-0.848-2.683c0-1.089,0.309-1.977,0.926-2.663s1.384-1.029,2.3-1.029s1.625,0.296,2.126,0.889
			s0.752,1.415,0.752,2.468V95.488z M145.658,94.538c-0.004-0.647-0.161-1.151-0.468-1.511s-0.735-0.54-1.282-0.54
			c-0.529,0-0.978,0.189-1.347,0.567s-0.597,0.873-0.684,1.483H145.658z"/>
		<path fill="#2F2F2F" d="M154.507,101.927h-1.121v-4.423h-0.027c-0.488,0.912-1.285,1.367-2.393,1.367
			c-0.879,0-1.585-0.313-2.116-0.94s-0.796-1.48-0.796-2.56c0-1.162,0.292-2.091,0.875-2.786s1.367-1.042,2.352-1.042
			c0.957,0,1.65,0.378,2.078,1.135h0.027v-0.971h1.121V101.927z M153.386,95.556v-1.019c0-0.574-0.188-1.06-0.564-1.456
			s-0.854-0.595-1.432-0.595c-0.674,0-1.208,0.25-1.6,0.749s-0.588,1.202-0.588,2.109c0,0.807,0.189,1.439,0.567,1.897
			s0.866,0.687,1.463,0.687c0.656,0,1.179-0.225,1.569-0.673S153.386,96.24,153.386,95.556z"/>
		<path fill="#2F2F2F" d="M162.334,98.708h-1.121V97.6h-0.027c-0.465,0.848-1.185,1.271-2.16,1.271c-1.668,0-2.502-0.994-2.502-2.98
			v-4.184h1.114v4.006c0,1.477,0.565,2.215,1.695,2.215c0.547,0,0.997-0.202,1.35-0.605s0.53-0.931,0.53-1.583v-4.033h1.121V98.708z
			"/>
		<path fill="#2F2F2F" d="M170.154,95.488h-4.942c0.018,0.779,0.228,1.381,0.629,1.805s0.953,0.636,1.654,0.636
			c0.789,0,1.513-0.26,2.174-0.779v1.053c-0.615,0.447-1.429,0.67-2.44,0.67c-0.989,0-1.766-0.318-2.331-0.954
			s-0.848-1.53-0.848-2.683c0-1.089,0.309-1.977,0.926-2.663s1.384-1.029,2.3-1.029s1.625,0.296,2.126,0.889
			s0.752,1.415,0.752,2.468V95.488z M169.006,94.538c-0.004-0.647-0.161-1.151-0.468-1.511s-0.735-0.54-1.282-0.54
			c-0.529,0-0.978,0.189-1.347,0.567s-0.597,0.873-0.684,1.483H169.006z"/>
		<path fill="#2F2F2F" d="M171.396,98.455v-1.203c0.611,0.451,1.283,0.677,2.017,0.677c0.984,0,1.477-0.328,1.477-0.984
			c0-0.187-0.042-0.345-0.126-0.475s-0.198-0.245-0.342-0.345s-0.312-0.19-0.506-0.27s-0.402-0.163-0.625-0.25
			c-0.31-0.123-0.582-0.247-0.817-0.373s-0.431-0.267-0.588-0.424s-0.276-0.336-0.355-0.537s-0.12-0.435-0.12-0.704
			c0-0.328,0.075-0.619,0.226-0.872s0.351-0.465,0.602-0.636s0.537-0.3,0.858-0.386s0.653-0.13,0.995-0.13
			c0.606,0,1.148,0.105,1.627,0.314v1.135c-0.515-0.337-1.107-0.506-1.777-0.506c-0.209,0-0.399,0.024-0.567,0.072
			s-0.313,0.115-0.434,0.202s-0.214,0.19-0.28,0.311s-0.099,0.254-0.099,0.4c0,0.182,0.033,0.335,0.099,0.458
			s0.163,0.232,0.291,0.328s0.283,0.182,0.465,0.26s0.39,0.162,0.622,0.253c0.31,0.119,0.588,0.24,0.834,0.366
			s0.456,0.267,0.629,0.424s0.307,0.338,0.4,0.543s0.14,0.449,0.14,0.731c0,0.346-0.076,0.647-0.229,0.902s-0.356,0.467-0.612,0.636
			s-0.549,0.294-0.882,0.376s-0.681,0.123-1.046,0.123C172.549,98.872,171.925,98.733,171.396,98.455z"/>
		<path fill="#2F2F2F" d="M181.05,98.639c-0.264,0.146-0.613,0.219-1.046,0.219c-1.226,0-1.839-0.684-1.839-2.051v-4.143h-1.203
			v-0.957h1.203v-1.709l1.121-0.362v2.071h1.764v0.957h-1.764v3.944c0,0.469,0.08,0.804,0.239,1.005s0.424,0.301,0.793,0.301
			c0.283,0,0.526-0.078,0.731-0.232V98.639z"/>
	</g>
	<g>
		<rect x="307.076" y="189.001" fill="none" width="98.63" height="37.599"/>
		<path fill="#2F2F2F" d="M319.696,199.364h-1.367l-1.641-2.748c-0.15-0.255-0.296-0.473-0.438-0.653s-0.286-0.327-0.434-0.441
			s-0.308-0.197-0.479-0.25s-0.363-0.079-0.578-0.079h-0.943v4.17h-1.148v-9.803h2.926c0.428,0,0.824,0.054,1.186,0.161
			s0.677,0.27,0.943,0.489s0.475,0.491,0.625,0.817s0.226,0.708,0.226,1.145c0,0.342-0.051,0.655-0.154,0.94
			s-0.249,0.539-0.438,0.762s-0.417,0.414-0.684,0.571s-0.566,0.279-0.899,0.366v0.027c0.164,0.073,0.307,0.156,0.427,0.25
			s0.236,0.204,0.345,0.332s0.218,0.272,0.325,0.434s0.227,0.35,0.359,0.564L319.696,199.364z M313.817,190.601v3.555h1.559
			c0.287,0,0.553-0.043,0.796-0.13s0.455-0.211,0.632-0.373s0.317-0.36,0.417-0.595s0.15-0.498,0.15-0.79
			c0-0.524-0.17-0.933-0.509-1.227s-0.831-0.441-1.473-0.441H313.817z"/>
		<path fill="#2F2F2F" d="M326.308,196.145h-4.942c0.018,0.779,0.228,1.381,0.629,1.805s0.953,0.636,1.654,0.636
			c0.789,0,1.513-0.26,2.174-0.779v1.053c-0.615,0.447-1.429,0.67-2.44,0.67c-0.989,0-1.766-0.318-2.331-0.954
			s-0.848-1.53-0.848-2.683c0-1.089,0.309-1.977,0.926-2.663s1.384-1.029,2.3-1.029s1.625,0.296,2.126,0.889
			s0.752,1.415,0.752,2.468V196.145z M325.16,195.194c-0.004-0.647-0.161-1.151-0.468-1.511s-0.735-0.54-1.282-0.54
			c-0.529,0-0.978,0.189-1.347,0.567s-0.597,0.873-0.684,1.483H325.16z"/>
		<path fill="#2F2F2F" d="M331.408,189.985c-0.219-0.123-0.467-0.185-0.745-0.185c-0.784,0-1.176,0.495-1.176,1.483v1.08h1.641
			v0.957h-1.641v6.043h-1.114v-6.043h-1.196v-0.957h1.196v-1.135c0-0.734,0.212-1.313,0.636-1.74s0.953-0.639,1.586-0.639
			c0.342,0,0.613,0.041,0.813,0.123V189.985z"/>
		<path fill="#2F2F2F" d="M336.019,193.499c-0.196-0.15-0.479-0.226-0.848-0.226c-0.479,0-0.878,0.226-1.2,0.677
			s-0.482,1.066-0.482,1.846v3.568h-1.121v-7h1.121v1.442h0.027c0.16-0.492,0.403-0.876,0.731-1.152s0.695-0.414,1.101-0.414
			c0.292,0,0.515,0.032,0.67,0.096V193.499z"/>
		<path fill="#2F2F2F" d="M342.862,196.145h-4.942c0.018,0.779,0.228,1.381,0.629,1.805s0.953,0.636,1.654,0.636
			c0.789,0,1.513-0.26,2.174-0.779v1.053c-0.615,0.447-1.429,0.67-2.44,0.67c-0.989,0-1.766-0.318-2.331-0.954
			s-0.848-1.53-0.848-2.683c0-1.089,0.309-1.977,0.926-2.663s1.384-1.029,2.3-1.029s1.625,0.296,2.126,0.889
			s0.752,1.415,0.752,2.468V196.145z M341.713,195.194c-0.004-0.647-0.161-1.151-0.468-1.511s-0.735-0.54-1.282-0.54
			c-0.529,0-0.978,0.189-1.347,0.567s-0.597,0.873-0.684,1.483H341.713z"/>
		<path fill="#2F2F2F" d="M344.104,199.111v-1.203c0.611,0.451,1.283,0.677,2.017,0.677c0.984,0,1.477-0.328,1.477-0.984
			c0-0.187-0.042-0.345-0.126-0.475s-0.198-0.245-0.342-0.345s-0.312-0.19-0.506-0.27s-0.402-0.163-0.625-0.25
			c-0.31-0.123-0.582-0.247-0.817-0.373s-0.431-0.267-0.588-0.424s-0.276-0.336-0.355-0.537s-0.12-0.435-0.12-0.704
			c0-0.328,0.075-0.619,0.226-0.872s0.351-0.465,0.602-0.636s0.537-0.3,0.858-0.386s0.653-0.13,0.995-0.13
			c0.606,0,1.148,0.105,1.627,0.314v1.135c-0.515-0.337-1.107-0.506-1.777-0.506c-0.209,0-0.399,0.024-0.567,0.072
			s-0.313,0.115-0.434,0.202s-0.214,0.19-0.28,0.311s-0.099,0.254-0.099,0.4c0,0.182,0.033,0.335,0.099,0.458
			s0.163,0.232,0.291,0.328s0.283,0.182,0.465,0.26s0.39,0.162,0.622,0.253c0.31,0.119,0.588,0.24,0.834,0.366
			s0.456,0.267,0.629,0.424s0.307,0.338,0.4,0.543s0.14,0.449,0.14,0.731c0,0.346-0.076,0.647-0.229,0.902s-0.356,0.467-0.612,0.636
			s-0.549,0.294-0.882,0.376s-0.681,0.123-1.046,0.123C345.256,199.528,344.632,199.389,344.104,199.111z"/>
		<path fill="#2F2F2F" d="M356.14,199.364h-1.121v-4.033c0-1.458-0.542-2.188-1.627-2.188c-0.547,0-1.007,0.211-1.381,0.632
			s-0.561,0.963-0.561,1.624v3.965h-1.121v-10.363h1.121v4.525h0.027c0.538-0.884,1.303-1.326,2.297-1.326
			c1.577,0,2.365,0.95,2.365,2.851V199.364z"/>
		<path fill="#2F2F2F" d="M365.334,199.296c-0.264,0.146-0.613,0.219-1.046,0.219c-1.226,0-1.839-0.684-1.839-2.051v-4.143h-1.203
			v-0.957h1.203v-1.709l1.121-0.362v2.071h1.764v0.957h-1.764v3.944c0,0.469,0.08,0.804,0.239,1.005s0.424,0.301,0.793,0.301
			c0.283,0,0.526-0.078,0.731-0.232V199.296z"/>
		<path fill="#2F2F2F" d="M369.592,199.528c-1.035,0-1.86-0.327-2.478-0.981s-0.926-1.521-0.926-2.601
			c0-1.176,0.321-2.094,0.964-2.755s1.511-0.991,2.604-0.991c1.043,0,1.858,0.321,2.444,0.964s0.878,1.534,0.878,2.673
			c0,1.117-0.315,2.011-0.947,2.683S370.654,199.528,369.592,199.528z M369.674,193.144c-0.72,0-1.29,0.245-1.709,0.735
			s-0.629,1.166-0.629,2.027c0,0.83,0.212,1.483,0.636,1.962s0.991,0.718,1.702,0.718c0.725,0,1.282-0.235,1.671-0.704
			s0.584-1.137,0.584-2.003c0-0.875-0.195-1.549-0.584-2.023S370.398,193.144,369.674,193.144z"/>
		<path fill="#2F2F2F" d="M380.604,199.364h-1.572l-3.09-3.363h-0.027v3.363h-1.121v-10.363h1.121v6.569h0.027l2.939-3.206h1.47
			l-3.247,3.377L380.604,199.364z"/>
		<path fill="#2F2F2F" d="M387.028,196.145h-4.942c0.018,0.779,0.228,1.381,0.629,1.805s0.953,0.636,1.654,0.636
			c0.789,0,1.513-0.26,2.174-0.779v1.053c-0.615,0.447-1.429,0.67-2.44,0.67c-0.989,0-1.766-0.318-2.331-0.954
			s-0.848-1.53-0.848-2.683c0-1.089,0.309-1.977,0.926-2.663s1.384-1.029,2.3-1.029s1.625,0.296,2.126,0.889
			s0.752,1.415,0.752,2.468V196.145z M385.88,195.194c-0.004-0.647-0.161-1.151-0.468-1.511s-0.735-0.54-1.282-0.54
			c-0.529,0-0.978,0.189-1.347,0.567s-0.597,0.873-0.684,1.483H385.88z"/>
		<path fill="#2F2F2F" d="M394.522,199.364h-1.121v-3.992c0-1.486-0.542-2.229-1.627-2.229c-0.561,0-1.024,0.211-1.391,0.632
			s-0.55,0.954-0.55,1.596v3.992h-1.121v-7h1.121v1.162h0.027c0.529-0.884,1.294-1.326,2.297-1.326c0.766,0,1.351,0.247,1.757,0.742
			s0.608,1.209,0.608,2.143V199.364z"/>
		<path fill="#2F2F2F" d="M396.17,199.111v-1.203c0.611,0.451,1.283,0.677,2.017,0.677c0.984,0,1.477-0.328,1.477-0.984
			c0-0.187-0.042-0.345-0.126-0.475s-0.198-0.245-0.342-0.345s-0.312-0.19-0.506-0.27s-0.402-0.163-0.625-0.25
			c-0.31-0.123-0.582-0.247-0.817-0.373s-0.431-0.267-0.588-0.424s-0.276-0.336-0.355-0.537s-0.12-0.435-0.12-0.704
			c0-0.328,0.075-0.619,0.226-0.872s0.351-0.465,0.602-0.636s0.537-0.3,0.858-0.386s0.653-0.13,0.995-0.13
			c0.606,0,1.148,0.105,1.627,0.314v1.135c-0.515-0.337-1.107-0.506-1.777-0.506c-0.209,0-0.399,0.024-0.567,0.072
			s-0.313,0.115-0.434,0.202s-0.214,0.19-0.28,0.311s-0.099,0.254-0.099,0.4c0,0.182,0.033,0.335,0.099,0.458
			s0.163,0.232,0.291,0.328s0.283,0.182,0.465,0.26s0.39,0.162,0.622,0.253c0.31,0.119,0.588,0.24,0.834,0.366
			s0.456,0.267,0.629,0.424s0.307,0.338,0.4,0.543s0.14,0.449,0.14,0.731c0,0.346-0.076,0.647-0.229,0.902s-0.356,0.467-0.612,0.636
			s-0.549,0.294-0.882,0.376s-0.681,0.123-1.046,0.123C397.323,199.528,396.699,199.389,396.17,199.111z"/>
		<path fill="#2F2F2F" d="M329.582,207.387c-0.201,0-0.372-0.068-0.513-0.205s-0.212-0.31-0.212-0.52s0.071-0.384,0.212-0.523
			s0.312-0.208,0.513-0.208c0.205,0,0.379,0.069,0.523,0.208s0.215,0.313,0.215,0.523c0,0.201-0.072,0.372-0.215,0.513
			S329.787,207.387,329.582,207.387z M330.128,216.164h-1.121v-7h1.121V216.164z"/>
		<path fill="#2F2F2F" d="M335.753,206.785c-0.219-0.123-0.467-0.185-0.745-0.185c-0.784,0-1.176,0.495-1.176,1.483v1.08h1.641
			v0.957h-1.641v6.043h-1.114v-6.043h-1.196v-0.957h1.196v-1.135c0-0.734,0.212-1.313,0.636-1.74s0.953-0.639,1.586-0.639
			c0.342,0,0.613,0.041,0.813,0.123V206.785z"/>
		<path fill="#2F2F2F" d="M346.137,212.944h-4.942c0.018,0.779,0.228,1.381,0.629,1.805s0.953,0.636,1.654,0.636
			c0.789,0,1.513-0.26,2.174-0.779v1.053c-0.615,0.447-1.429,0.67-2.44,0.67c-0.989,0-1.766-0.318-2.331-0.954
			s-0.848-1.53-0.848-2.683c0-1.089,0.309-1.977,0.926-2.663s1.384-1.029,2.3-1.029s1.625,0.296,2.126,0.889
			s0.752,1.415,0.752,2.468V212.944z M344.989,211.994c-0.004-0.647-0.161-1.151-0.468-1.511s-0.735-0.54-1.282-0.54
			c-0.529,0-0.978,0.189-1.347,0.567s-0.597,0.873-0.684,1.483H344.989z"/>
		<path fill="#2F2F2F" d="M352.878,209.164l-2.352,3.541l2.311,3.459h-1.306l-1.374-2.27c-0.086-0.141-0.189-0.319-0.308-0.533
			h-0.027c-0.023,0.041-0.13,0.219-0.321,0.533l-1.401,2.27h-1.292l2.386-3.432l-2.283-3.568h1.306l1.354,2.393
			c0.1,0.178,0.198,0.36,0.294,0.547h0.027l1.75-2.939H352.878z"/>
		<path fill="#2F2F2F" d="M355.321,215.152h-0.027v4.231h-1.121v-10.22h1.121v1.23h0.027c0.551-0.93,1.358-1.395,2.42-1.395
			c0.902,0,1.606,0.313,2.112,0.94s0.759,1.466,0.759,2.519c0,1.171-0.285,2.109-0.854,2.813s-1.349,1.056-2.338,1.056
			C356.513,216.328,355.813,215.936,355.321,215.152z M355.294,212.329v0.978c0,0.579,0.188,1.07,0.564,1.473
			s0.854,0.605,1.432,0.605c0.679,0,1.211-0.26,1.596-0.779s0.578-1.242,0.578-2.167c0-0.779-0.18-1.39-0.54-1.832
			s-0.848-0.663-1.463-0.663c-0.652,0-1.176,0.227-1.572,0.68S355.294,211.646,355.294,212.329z"/>
		<path fill="#2F2F2F" d="M362.885,207.387c-0.201,0-0.372-0.068-0.513-0.205s-0.212-0.31-0.212-0.52s0.071-0.384,0.212-0.523
			s0.312-0.208,0.513-0.208c0.205,0,0.379,0.069,0.523,0.208s0.215,0.313,0.215,0.523c0,0.201-0.072,0.372-0.215,0.513
			S363.09,207.387,362.885,207.387z M363.432,216.164h-1.121v-7h1.121V216.164z"/>
		<path fill="#2F2F2F" d="M369.201,210.299c-0.196-0.15-0.479-0.226-0.848-0.226c-0.479,0-0.878,0.226-1.2,0.677
			s-0.482,1.066-0.482,1.846v3.568h-1.121v-7h1.121v1.442h0.027c0.16-0.492,0.403-0.876,0.731-1.152s0.695-0.414,1.101-0.414
			c0.292,0,0.515,0.032,0.67,0.096V210.299z"/>
		<path fill="#2F2F2F" d="M376.043,212.944h-4.942c0.018,0.779,0.228,1.381,0.629,1.805s0.953,0.636,1.654,0.636
			c0.789,0,1.513-0.26,2.174-0.779v1.053c-0.615,0.447-1.429,0.67-2.44,0.67c-0.989,0-1.766-0.318-2.331-0.954
			s-0.848-1.53-0.848-2.683c0-1.089,0.309-1.977,0.926-2.663s1.384-1.029,2.3-1.029s1.625,0.296,2.126,0.889
			s0.752,1.415,0.752,2.468V212.944z M374.895,211.994c-0.004-0.647-0.161-1.151-0.468-1.511s-0.735-0.54-1.282-0.54
			c-0.529,0-0.978,0.189-1.347,0.567s-0.597,0.873-0.684,1.483H374.895z"/>
		<path fill="#2F2F2F" d="M383.775,216.164h-1.121v-1.189h-0.027c-0.52,0.902-1.322,1.354-2.406,1.354
			c-0.879,0-1.583-0.313-2.109-0.94s-0.79-1.48-0.79-2.56c0-1.158,0.292-2.085,0.875-2.782s1.36-1.046,2.331-1.046
			c0.961,0,1.661,0.378,2.099,1.135h0.027v-4.334h1.121V216.164z M382.654,212.999v-1.032c0-0.565-0.187-1.043-0.561-1.436
			s-0.848-0.588-1.422-0.588c-0.684,0-1.221,0.25-1.613,0.752s-0.588,1.194-0.588,2.078c0,0.807,0.188,1.443,0.564,1.911
			s0.881,0.701,1.514,0.701c0.625,0,1.131-0.226,1.521-0.677S382.654,213.687,382.654,212.999z"/>
	</g>
	<g>
		<rect x="315.876" y="269.201" fill="none" width="132.724" height="14.344"/>
		<path fill="#2F2F2F" d="M323.833,279.154c-0.725,0.383-1.627,0.574-2.707,0.574c-1.395,0-2.511-0.449-3.35-1.347
			s-1.258-2.076-1.258-3.534c0-1.568,0.472-2.834,1.415-3.801s2.14-1.449,3.589-1.449c0.93,0,1.7,0.134,2.311,0.403v1.224
			c-0.702-0.392-1.477-0.588-2.324-0.588c-1.125,0-2.038,0.376-2.738,1.128s-1.049,1.757-1.049,3.015
			c0,1.194,0.327,2.146,0.981,2.854s1.512,1.063,2.574,1.063c0.984,0,1.836-0.219,2.557-0.656V279.154z"/>
		<path fill="#2F2F2F" d="M330.656,279.565h-1.121v-1.094h-0.027c-0.488,0.838-1.206,1.258-2.153,1.258
			c-0.697,0-1.243-0.185-1.637-0.554s-0.591-0.859-0.591-1.47c0-1.308,0.77-2.069,2.311-2.283l2.099-0.294
			c0-1.189-0.481-1.784-1.442-1.784c-0.843,0-1.604,0.287-2.283,0.861v-1.148c0.688-0.438,1.481-0.656,2.379-0.656
			c1.645,0,2.468,0.871,2.468,2.611V279.565z M329.535,276.024l-1.688,0.232c-0.52,0.073-0.912,0.202-1.176,0.386
			s-0.396,0.512-0.396,0.981c0,0.342,0.122,0.621,0.366,0.837s0.568,0.325,0.974,0.325c0.556,0,1.015-0.195,1.377-0.584
			s0.543-0.883,0.543-1.48V276.024z"/>
		<path fill="#2F2F2F" d="M333.797,279.565h-1.121v-10.363h1.121V279.565z"/>
		<path fill="#2F2F2F" d="M337.028,279.565h-1.121v-10.363h1.121V279.565z"/>
		<path fill="#2F2F2F" d="M344.281,278.553h-0.027v1.012h-1.121v-10.363h1.121v4.594h0.027c0.551-0.93,1.358-1.395,2.42-1.395
			c0.898,0,1.601,0.313,2.109,0.94s0.762,1.466,0.762,2.519c0,1.171-0.285,2.109-0.854,2.813s-1.349,1.056-2.338,1.056
			C345.454,279.729,344.755,279.337,344.281,278.553z M344.253,275.73v0.978c0,0.579,0.188,1.07,0.564,1.473
			s0.854,0.605,1.432,0.605c0.679,0,1.211-0.26,1.596-0.779s0.578-1.242,0.578-2.167c0-0.779-0.18-1.39-0.54-1.832
			s-0.848-0.663-1.463-0.663c-0.652,0-1.176,0.227-1.572,0.68S344.253,275.046,344.253,275.73z"/>
		<path fill="#2F2F2F" d="M356.308,279.565h-1.121v-1.094h-0.027c-0.488,0.838-1.206,1.258-2.153,1.258
			c-0.697,0-1.243-0.185-1.637-0.554s-0.591-0.859-0.591-1.47c0-1.308,0.77-2.069,2.311-2.283l2.099-0.294
			c0-1.189-0.481-1.784-1.442-1.784c-0.843,0-1.604,0.287-2.283,0.861v-1.148c0.688-0.438,1.481-0.656,2.379-0.656
			c1.645,0,2.468,0.871,2.468,2.611V279.565z M355.187,276.024l-1.688,0.232c-0.52,0.073-0.912,0.202-1.176,0.386
			s-0.396,0.512-0.396,0.981c0,0.342,0.122,0.621,0.366,0.837s0.568,0.325,0.974,0.325c0.556,0,1.015-0.195,1.377-0.584
			s0.543-0.883,0.543-1.48V276.024z"/>
		<path fill="#2F2F2F" d="M363.151,279.243c-0.538,0.324-1.176,0.485-1.914,0.485c-0.998,0-1.804-0.325-2.417-0.974
			s-0.919-1.491-0.919-2.526c0-1.153,0.331-2.079,0.991-2.779s1.542-1.049,2.646-1.049c0.615,0,1.158,0.114,1.627,0.342v1.148
			c-0.52-0.365-1.076-0.547-1.668-0.547c-0.715,0-1.302,0.256-1.76,0.769s-0.687,1.186-0.687,2.02c0,0.82,0.215,1.467,0.646,1.941
			s1.008,0.711,1.733,0.711c0.611,0,1.185-0.203,1.723-0.608V279.243z"/>
		<path fill="#2F2F2F" d="M370.45,279.565h-1.572l-3.09-3.363h-0.027v3.363h-1.121v-10.363h1.121v6.569h0.027l2.939-3.206h1.47
			l-3.247,3.377L370.45,279.565z"/>
		<path fill="#2F2F2F" d="M376.874,276.345h-4.942c0.018,0.779,0.228,1.381,0.629,1.805s0.953,0.636,1.654,0.636
			c0.789,0,1.513-0.26,2.174-0.779v1.053c-0.615,0.447-1.429,0.67-2.44,0.67c-0.989,0-1.766-0.318-2.331-0.954
			s-0.848-1.53-0.848-2.683c0-1.089,0.309-1.977,0.926-2.663s1.384-1.029,2.3-1.029s1.625,0.296,2.126,0.889
			s0.752,1.415,0.752,2.468V276.345z M375.726,275.395c-0.004-0.647-0.161-1.151-0.468-1.511s-0.735-0.54-1.282-0.54
			c-0.529,0-0.978,0.189-1.347,0.567s-0.597,0.873-0.684,1.483H375.726z"/>
		<path fill="#2F2F2F" d="M384.367,279.565h-1.121v-3.992c0-1.486-0.542-2.229-1.627-2.229c-0.561,0-1.024,0.211-1.391,0.632
			s-0.55,0.954-0.55,1.596v3.992h-1.121v-7h1.121v1.162h0.027c0.529-0.884,1.294-1.326,2.297-1.326c0.766,0,1.351,0.247,1.757,0.742
			s0.608,1.209,0.608,2.143V279.565z"/>
		<path fill="#2F2F2F" d="M392.441,279.565h-1.121v-1.189h-0.027c-0.52,0.902-1.322,1.354-2.406,1.354
			c-0.879,0-1.583-0.313-2.109-0.94s-0.79-1.48-0.79-2.56c0-1.158,0.292-2.085,0.875-2.782s1.36-1.046,2.331-1.046
			c0.961,0,1.661,0.378,2.099,1.135h0.027v-4.334h1.121V279.565z M391.32,276.4v-1.032c0-0.565-0.187-1.043-0.561-1.436
			s-0.848-0.588-1.422-0.588c-0.684,0-1.221,0.25-1.613,0.752s-0.588,1.194-0.588,2.078c0,0.807,0.188,1.443,0.564,1.911
			s0.881,0.701,1.514,0.701c0.625,0,1.131-0.226,1.521-0.677S391.32,277.087,391.32,276.4z"/>
		<path fill="#2F2F2F" d="M398.122,279.312v-1.203c0.611,0.451,1.283,0.677,2.017,0.677c0.984,0,1.477-0.328,1.477-0.984
			c0-0.187-0.042-0.345-0.126-0.475s-0.198-0.245-0.342-0.345s-0.312-0.19-0.506-0.27s-0.402-0.163-0.625-0.25
			c-0.31-0.123-0.582-0.247-0.817-0.373s-0.431-0.267-0.588-0.424s-0.276-0.336-0.355-0.537s-0.12-0.435-0.12-0.704
			c0-0.328,0.075-0.619,0.226-0.872s0.351-0.465,0.602-0.636s0.537-0.3,0.858-0.386s0.653-0.13,0.995-0.13
			c0.606,0,1.148,0.105,1.627,0.314v1.135c-0.515-0.337-1.107-0.506-1.777-0.506c-0.209,0-0.399,0.024-0.567,0.072
			s-0.313,0.115-0.434,0.202s-0.214,0.19-0.28,0.311s-0.099,0.254-0.099,0.4c0,0.182,0.033,0.335,0.099,0.458
			s0.163,0.232,0.291,0.328s0.283,0.182,0.465,0.26s0.39,0.162,0.622,0.253c0.31,0.119,0.588,0.24,0.834,0.366
			s0.456,0.267,0.629,0.424s0.307,0.338,0.4,0.543s0.14,0.449,0.14,0.731c0,0.346-0.076,0.647-0.229,0.902s-0.356,0.467-0.612,0.636
			s-0.549,0.294-0.882,0.376s-0.681,0.123-1.046,0.123C399.275,279.729,398.651,279.589,398.122,279.312z"/>
		<path fill="#2F2F2F" d="M410.078,276.345h-4.942c0.018,0.779,0.228,1.381,0.629,1.805s0.953,0.636,1.654,0.636
			c0.789,0,1.513-0.26,2.174-0.779v1.053c-0.615,0.447-1.429,0.67-2.44,0.67c-0.989,0-1.766-0.318-2.331-0.954
			s-0.848-1.53-0.848-2.683c0-1.089,0.309-1.977,0.926-2.663s1.384-1.029,2.3-1.029s1.625,0.296,2.126,0.889
			s0.752,1.415,0.752,2.468V276.345z M408.929,275.395c-0.004-0.647-0.161-1.151-0.468-1.511s-0.735-0.54-1.282-0.54
			c-0.529,0-0.978,0.189-1.347,0.567s-0.597,0.873-0.684,1.483H408.929z"/>
		<path fill="#2F2F2F" d="M415.411,273.699c-0.196-0.15-0.479-0.226-0.848-0.226c-0.479,0-0.878,0.226-1.2,0.677
			s-0.482,1.066-0.482,1.846v3.568h-1.121v-7h1.121v1.442h0.027c0.16-0.492,0.403-0.876,0.731-1.152s0.695-0.414,1.101-0.414
			c0.292,0,0.515,0.032,0.67,0.096V273.699z"/>
		<path fill="#2F2F2F" d="M422.683,272.565l-2.789,7h-1.101l-2.652-7h1.23l1.777,5.086c0.132,0.374,0.214,0.7,0.246,0.978h0.027
			c0.045-0.351,0.119-0.667,0.219-0.95l1.859-5.113H422.683z"/>
		<path fill="#2F2F2F" d="M424.499,270.787c-0.201,0-0.372-0.068-0.513-0.205s-0.212-0.31-0.212-0.52s0.071-0.384,0.212-0.523
			s0.312-0.208,0.513-0.208c0.205,0,0.379,0.069,0.523,0.208s0.215,0.313,0.215,0.523c0,0.201-0.072,0.372-0.215,0.513
			S424.704,270.787,424.499,270.787z M425.045,279.565h-1.121v-7h1.121V279.565z"/>
		<path fill="#2F2F2F" d="M431.958,279.243c-0.538,0.324-1.176,0.485-1.914,0.485c-0.998,0-1.804-0.325-2.417-0.974
			s-0.919-1.491-0.919-2.526c0-1.153,0.331-2.079,0.991-2.779s1.542-1.049,2.646-1.049c0.615,0,1.158,0.114,1.627,0.342v1.148
			c-0.52-0.365-1.076-0.547-1.668-0.547c-0.715,0-1.302,0.256-1.76,0.769s-0.687,1.186-0.687,2.02c0,0.82,0.215,1.467,0.646,1.941
			s1.008,0.711,1.733,0.711c0.611,0,1.185-0.203,1.723-0.608V279.243z"/>
		<path fill="#2F2F2F" d="M439.127,276.345h-4.942c0.018,0.779,0.228,1.381,0.629,1.805s0.953,0.636,1.654,0.636
			c0.789,0,1.513-0.26,2.174-0.779v1.053c-0.615,0.447-1.429,0.67-2.44,0.67c-0.989,0-1.766-0.318-2.331-0.954
			s-0.848-1.53-0.848-2.683c0-1.089,0.309-1.977,0.926-2.663s1.384-1.029,2.3-1.029s1.625,0.296,2.126,0.889
			s0.752,1.415,0.752,2.468V276.345z M437.979,275.395c-0.004-0.647-0.161-1.151-0.468-1.511s-0.735-0.54-1.282-0.54
			c-0.529,0-0.978,0.189-1.347,0.567s-0.597,0.873-0.684,1.483H437.979z"/>
	</g>
	<g>
		<rect x="315.876" y="303.415" fill="none" width="164.313" height="14.344"/>
		<path fill="#2F2F2F" d="M324.188,313.778h-1.367l-1.641-2.748c-0.15-0.255-0.296-0.473-0.438-0.653s-0.286-0.327-0.434-0.441
			s-0.308-0.197-0.479-0.25s-0.363-0.079-0.578-0.079h-0.943v4.17h-1.148v-9.803h2.926c0.428,0,0.824,0.054,1.186,0.161
			s0.677,0.27,0.943,0.489s0.475,0.491,0.625,0.817s0.226,0.708,0.226,1.145c0,0.342-0.051,0.655-0.154,0.94
			s-0.249,0.539-0.438,0.762s-0.417,0.414-0.684,0.571s-0.566,0.279-0.899,0.366v0.027c0.164,0.073,0.307,0.156,0.427,0.25
			s0.236,0.204,0.345,0.332s0.218,0.272,0.325,0.434s0.227,0.35,0.359,0.564L324.188,313.778z M318.31,305.015v3.555h1.559
			c0.287,0,0.553-0.043,0.796-0.13s0.455-0.211,0.632-0.373s0.317-0.36,0.417-0.595s0.15-0.498,0.15-0.79
			c0-0.524-0.17-0.933-0.509-1.227s-0.831-0.441-1.473-0.441H318.31z"/>
		<path fill="#2F2F2F" d="M330.801,310.559h-4.942c0.018,0.779,0.228,1.381,0.629,1.805s0.953,0.636,1.654,0.636
			c0.789,0,1.513-0.26,2.174-0.779v1.053c-0.615,0.447-1.429,0.67-2.44,0.67c-0.989,0-1.766-0.318-2.331-0.954
			s-0.848-1.53-0.848-2.683c0-1.089,0.309-1.977,0.926-2.663s1.384-1.029,2.3-1.029s1.625,0.296,2.126,0.889
			s0.752,1.415,0.752,2.468V310.559z M329.652,309.608c-0.004-0.647-0.161-1.151-0.468-1.511s-0.735-0.54-1.282-0.54
			c-0.529,0-0.978,0.189-1.347,0.567s-0.597,0.873-0.684,1.483H329.652z"/>
		<path fill="#2F2F2F" d="M335.725,313.71c-0.264,0.146-0.613,0.219-1.046,0.219c-1.226,0-1.839-0.684-1.839-2.051v-4.143h-1.203
			v-0.957h1.203v-1.709l1.121-0.362v2.071h1.764v0.957h-1.764v3.944c0,0.469,0.08,0.804,0.239,1.005s0.424,0.301,0.793,0.301
			c0.283,0,0.526-0.078,0.731-0.232V313.71z"/>
		<path fill="#2F2F2F" d="M342.843,313.778h-1.121v-1.107h-0.027c-0.465,0.848-1.185,1.271-2.16,1.271
			c-1.668,0-2.502-0.994-2.502-2.98v-4.184h1.114v4.006c0,1.477,0.565,2.215,1.695,2.215c0.547,0,0.997-0.202,1.35-0.605
			s0.53-0.931,0.53-1.583v-4.033h1.121V313.778z"/>
		<path fill="#2F2F2F" d="M348.601,307.913c-0.196-0.15-0.479-0.226-0.848-0.226c-0.479,0-0.878,0.226-1.2,0.677
			s-0.482,1.066-0.482,1.846v3.568h-1.121v-7h1.121v1.442h0.027c0.16-0.492,0.403-0.876,0.731-1.152s0.695-0.414,1.101-0.414
			c0.292,0,0.515,0.032,0.67,0.096V307.913z"/>
		<path fill="#2F2F2F" d="M355.655,313.778h-1.121v-3.992c0-1.486-0.542-2.229-1.627-2.229c-0.561,0-1.024,0.211-1.391,0.632
			s-0.55,0.954-0.55,1.596v3.992h-1.121v-7h1.121v1.162h0.027c0.529-0.884,1.294-1.326,2.297-1.326c0.766,0,1.351,0.247,1.757,0.742
			s0.608,1.209,0.608,2.143V313.778z"/>
		<path fill="#2F2F2F" d="M365.252,307.913c-0.196-0.15-0.479-0.226-0.848-0.226c-0.479,0-0.878,0.226-1.2,0.677
			s-0.482,1.066-0.482,1.846v3.568h-1.121v-7h1.121v1.442h0.027c0.16-0.492,0.403-0.876,0.731-1.152s0.695-0.414,1.101-0.414
			c0.292,0,0.515,0.032,0.67,0.096V307.913z"/>
		<path fill="#2F2F2F" d="M372.095,310.559h-4.942c0.018,0.779,0.228,1.381,0.629,1.805s0.953,0.636,1.654,0.636
			c0.789,0,1.513-0.26,2.174-0.779v1.053c-0.615,0.447-1.429,0.67-2.44,0.67c-0.989,0-1.766-0.318-2.331-0.954
			s-0.848-1.53-0.848-2.683c0-1.089,0.309-1.977,0.926-2.663s1.384-1.029,2.3-1.029s1.625,0.296,2.126,0.889
			s0.752,1.415,0.752,2.468V310.559z M370.947,309.608c-0.004-0.647-0.161-1.151-0.468-1.511s-0.735-0.54-1.282-0.54
			c-0.529,0-0.978,0.189-1.347,0.567s-0.597,0.873-0.684,1.483H370.947z"/>
		<path fill="#2F2F2F" d="M373.337,313.525v-1.203c0.611,0.451,1.283,0.677,2.017,0.677c0.984,0,1.477-0.328,1.477-0.984
			c0-0.187-0.042-0.345-0.126-0.475s-0.198-0.245-0.342-0.345s-0.312-0.19-0.506-0.27s-0.402-0.163-0.625-0.25
			c-0.31-0.123-0.582-0.247-0.817-0.373s-0.431-0.267-0.588-0.424s-0.276-0.336-0.355-0.537s-0.12-0.435-0.12-0.704
			c0-0.328,0.075-0.619,0.226-0.872s0.351-0.465,0.602-0.636s0.537-0.3,0.858-0.386s0.653-0.13,0.995-0.13
			c0.606,0,1.148,0.105,1.627,0.314v1.135c-0.515-0.337-1.107-0.506-1.777-0.506c-0.209,0-0.399,0.024-0.567,0.072
			s-0.313,0.115-0.434,0.202s-0.214,0.19-0.28,0.311s-0.099,0.254-0.099,0.4c0,0.182,0.033,0.335,0.099,0.458
			s0.163,0.232,0.291,0.328s0.283,0.182,0.465,0.26s0.39,0.162,0.622,0.253c0.31,0.119,0.588,0.24,0.834,0.366
			s0.456,0.267,0.629,0.424s0.307,0.338,0.4,0.543s0.14,0.449,0.14,0.731c0,0.346-0.076,0.647-0.229,0.902s-0.356,0.467-0.612,0.636
			s-0.549,0.294-0.882,0.376s-0.681,0.123-1.046,0.123C374.49,313.942,373.866,313.803,373.337,313.525z"/>
		<path fill="#2F2F2F" d="M380.711,312.767h-0.027v4.231h-1.121v-10.22h1.121v1.23h0.027c0.551-0.93,1.358-1.395,2.42-1.395
			c0.902,0,1.606,0.313,2.112,0.94s0.759,1.466,0.759,2.519c0,1.171-0.285,2.109-0.854,2.813s-1.349,1.056-2.338,1.056
			C381.903,313.942,381.204,313.55,380.711,312.767z M380.684,309.943v0.978c0,0.579,0.188,1.07,0.564,1.473
			s0.854,0.605,1.432,0.605c0.679,0,1.211-0.26,1.596-0.779s0.578-1.242,0.578-2.167c0-0.779-0.18-1.39-0.54-1.832
			s-0.848-0.663-1.463-0.663c-0.652,0-1.176,0.227-1.572,0.68S380.684,309.26,380.684,309.943z"/>
		<path fill="#2F2F2F" d="M390.708,313.942c-1.035,0-1.86-0.327-2.478-0.981s-0.926-1.521-0.926-2.601
			c0-1.176,0.321-2.094,0.964-2.755s1.511-0.991,2.604-0.991c1.043,0,1.858,0.321,2.444,0.964s0.878,1.534,0.878,2.673
			c0,1.117-0.315,2.011-0.947,2.683S391.77,313.942,390.708,313.942z M390.79,307.558c-0.72,0-1.29,0.245-1.709,0.735
			s-0.629,1.166-0.629,2.027c0,0.83,0.212,1.483,0.636,1.962s0.991,0.718,1.702,0.718c0.725,0,1.282-0.235,1.671-0.704
			s0.584-1.137,0.584-2.003c0-0.875-0.195-1.549-0.584-2.023S391.515,307.558,390.79,307.558z"/>
		<path fill="#2F2F2F" d="M401.72,313.778h-1.121v-3.992c0-1.486-0.542-2.229-1.627-2.229c-0.561,0-1.024,0.211-1.391,0.632
			s-0.55,0.954-0.55,1.596v3.992h-1.121v-7h1.121v1.162h0.027c0.529-0.884,1.294-1.326,2.297-1.326c0.766,0,1.351,0.247,1.757,0.742
			s0.608,1.209,0.608,2.143V313.778z"/>
		<path fill="#2F2F2F" d="M403.368,313.525v-1.203c0.611,0.451,1.283,0.677,2.017,0.677c0.984,0,1.477-0.328,1.477-0.984
			c0-0.187-0.042-0.345-0.126-0.475s-0.198-0.245-0.342-0.345s-0.312-0.19-0.506-0.27s-0.402-0.163-0.625-0.25
			c-0.31-0.123-0.582-0.247-0.817-0.373s-0.431-0.267-0.588-0.424s-0.276-0.336-0.355-0.537s-0.12-0.435-0.12-0.704
			c0-0.328,0.075-0.619,0.226-0.872s0.351-0.465,0.602-0.636s0.537-0.3,0.858-0.386s0.653-0.13,0.995-0.13
			c0.606,0,1.148,0.105,1.627,0.314v1.135c-0.515-0.337-1.107-0.506-1.777-0.506c-0.209,0-0.399,0.024-0.567,0.072
			s-0.313,0.115-0.434,0.202s-0.214,0.19-0.28,0.311s-0.099,0.254-0.099,0.4c0,0.182,0.033,0.335,0.099,0.458
			s0.163,0.232,0.291,0.328s0.283,0.182,0.465,0.26s0.39,0.162,0.622,0.253c0.31,0.119,0.588,0.24,0.834,0.366
			s0.456,0.267,0.629,0.424s0.307,0.338,0.4,0.543s0.14,0.449,0.14,0.731c0,0.346-0.076,0.647-0.229,0.902s-0.356,0.467-0.612,0.636
			s-0.549,0.294-0.882,0.376s-0.681,0.123-1.046,0.123C404.521,313.942,403.897,313.803,403.368,313.525z"/>
		<path fill="#2F2F2F" d="M415.323,310.559h-4.942c0.018,0.779,0.228,1.381,0.629,1.805s0.953,0.636,1.654,0.636
			c0.789,0,1.513-0.26,2.174-0.779v1.053c-0.615,0.447-1.429,0.67-2.44,0.67c-0.989,0-1.766-0.318-2.331-0.954
			s-0.848-1.53-0.848-2.683c0-1.089,0.309-1.977,0.926-2.663s1.384-1.029,2.3-1.029s1.625,0.296,2.126,0.889
			s0.752,1.415,0.752,2.468V310.559z M414.175,309.608c-0.004-0.647-0.161-1.151-0.468-1.511s-0.735-0.54-1.282-0.54
			c-0.529,0-0.978,0.189-1.347,0.567s-0.597,0.873-0.684,1.483H414.175z"/>
		<path fill="#2F2F2F" d="M424.101,313.71c-0.264,0.146-0.613,0.219-1.046,0.219c-1.226,0-1.839-0.684-1.839-2.051v-4.143h-1.203
			v-0.957h1.203v-1.709l1.121-0.362v2.071h1.764v0.957h-1.764v3.944c0,0.469,0.08,0.804,0.239,1.005s0.424,0.301,0.793,0.301
			c0.283,0,0.526-0.078,0.731-0.232V313.71z"/>
		<path fill="#2F2F2F" d="M428.358,313.942c-1.035,0-1.86-0.327-2.478-0.981s-0.926-1.521-0.926-2.601
			c0-1.176,0.321-2.094,0.964-2.755s1.511-0.991,2.604-0.991c1.043,0,1.858,0.321,2.444,0.964s0.878,1.534,0.878,2.673
			c0,1.117-0.315,2.011-0.947,2.683S429.42,313.942,428.358,313.942z M428.44,307.558c-0.72,0-1.29,0.245-1.709,0.735
			s-0.629,1.166-0.629,2.027c0,0.83,0.212,1.483,0.636,1.962s0.991,0.718,1.702,0.718c0.725,0,1.282-0.235,1.671-0.704
			s0.584-1.137,0.584-2.003c0-0.875-0.195-1.549-0.584-2.023S429.165,307.558,428.44,307.558z"/>
		<path fill="#2F2F2F" d="M445.209,313.778h-1.271l-1.039-2.748h-4.156l-0.978,2.748h-1.278l3.76-9.803h1.189L445.209,313.778z
			 M442.522,309.998l-1.538-4.177c-0.05-0.137-0.1-0.355-0.15-0.656h-0.027c-0.045,0.278-0.098,0.497-0.157,0.656l-1.524,4.177
			H442.522z"/>
		<path fill="#2F2F2F" d="M447.703,310.073v3.705h-1.148v-9.803h2.693c1.048,0,1.86,0.255,2.437,0.766s0.865,1.23,0.865,2.16
			s-0.32,1.691-0.96,2.283s-1.505,0.889-2.594,0.889H447.703z M447.703,305.015v4.02h1.203c0.793,0,1.398-0.181,1.815-0.543
			s0.625-0.874,0.625-1.535c0-1.294-0.766-1.941-2.297-1.941H447.703z"/>
		<path fill="#2F2F2F" d="M455.251,313.778h-1.148v-9.803h1.148V313.778z"/>
		<path fill="#2F2F2F" d="M467.667,313.778h-1.142v-6.576c0-0.52,0.032-1.155,0.096-1.907h-0.027
			c-0.109,0.442-0.208,0.759-0.294,0.95l-3.35,7.533h-0.561l-3.343-7.479c-0.096-0.219-0.194-0.554-0.294-1.005h-0.027
			c0.037,0.392,0.055,1.032,0.055,1.921v6.562h-1.107v-9.803h1.518l3.008,6.836c0.232,0.524,0.383,0.916,0.451,1.176h0.041
			c0.196-0.538,0.353-0.939,0.472-1.203l3.069-6.809h1.436V313.778z"/>
	</g>
	<g>
		<rect x="312.05" y="123.001" fill="none" width="88.683" height="37.599"/>
		<path fill="#2F2F2F" d="M320.989,132.747c-0.725,0.375-1.627,0.562-2.707,0.562c-1.395,0-2.511-0.439-3.35-1.319
			c-0.838-0.879-1.258-2.032-1.258-3.46c0-1.535,0.472-2.775,1.415-3.721c0.943-0.946,2.14-1.419,3.589-1.419
			c0.93,0,1.7,0.131,2.311,0.395v1.198c-0.702-0.384-1.477-0.576-2.324-0.576c-1.125,0-2.038,0.368-2.738,1.104
			s-1.049,1.72-1.049,2.952c0,1.169,0.327,2.101,0.981,2.794c0.654,0.694,1.512,1.041,2.574,1.041c0.984,0,1.836-0.214,2.557-0.643
			V132.747z"/>
		<path fill="#2F2F2F" d="M328.352,133.149h-1.121v-3.949c0-1.428-0.542-2.142-1.627-2.142c-0.547,0-1.007,0.206-1.381,0.619
			c-0.374,0.413-0.561,0.942-0.561,1.589v3.882h-1.121v-10.147h1.121v4.431h0.027c0.538-0.866,1.303-1.298,2.297-1.298
			c1.577,0,2.365,0.93,2.365,2.791V133.149z"/>
		<path fill="#2F2F2F" d="M336.055,129.996h-4.942c0.018,0.763,0.228,1.353,0.629,1.767c0.401,0.415,0.953,0.623,1.654,0.623
			c0.789,0,1.513-0.254,2.174-0.763v1.031c-0.615,0.437-1.429,0.656-2.44,0.656c-0.989,0-1.766-0.311-2.331-0.934
			s-0.848-1.499-0.848-2.627c0-1.066,0.309-1.936,0.926-2.607s1.384-1.007,2.3-1.007s1.625,0.29,2.126,0.87s0.752,1.386,0.752,2.417
			V129.996z M334.906,129.066c-0.004-0.634-0.161-1.126-0.468-1.479s-0.735-0.529-1.282-0.529c-0.529,0-0.978,0.185-1.347,0.555
			c-0.369,0.371-0.597,0.855-0.684,1.453H334.906z"/>
		<path fill="#2F2F2F" d="M342.552,132.834c-0.538,0.316-1.176,0.475-1.914,0.475c-0.998,0-1.804-0.318-2.417-0.954
			c-0.613-0.636-0.919-1.46-0.919-2.474c0-1.129,0.331-2.036,0.991-2.721s1.542-1.027,2.646-1.027c0.615,0,1.158,0.111,1.627,0.334
			v1.125c-0.52-0.357-1.076-0.535-1.668-0.535c-0.715,0-1.302,0.251-1.76,0.753s-0.687,1.161-0.687,1.978
			c0,0.803,0.215,1.437,0.646,1.901c0.431,0.464,1.008,0.696,1.733,0.696c0.611,0,1.185-0.198,1.723-0.596V132.834z"/>
		<path fill="#2F2F2F" d="M349.851,133.149h-1.572l-3.09-3.293h-0.027v3.293h-1.121v-10.147h1.121v6.433h0.027l2.939-3.139h1.47
			l-3.247,3.307L349.851,133.149z"/>
		<path fill="#2F2F2F" d="M355.409,124.554c-0.201,0-0.372-0.067-0.513-0.201c-0.141-0.134-0.212-0.304-0.212-0.509
			c0-0.206,0.071-0.376,0.212-0.512s0.312-0.204,0.513-0.204c0.205,0,0.379,0.068,0.523,0.204s0.215,0.307,0.215,0.512
			c0,0.196-0.072,0.364-0.215,0.502S355.614,124.554,355.409,124.554z M355.956,133.149h-1.121v-6.854h1.121V133.149z"/>
		<path fill="#2F2F2F" d="M361.581,123.965c-0.219-0.12-0.467-0.181-0.745-0.181c-0.784,0-1.176,0.484-1.176,1.453v1.058h1.641
			v0.937h-1.641v5.917h-1.114v-5.917h-1.196v-0.937h1.196v-1.111c0-0.718,0.212-1.286,0.636-1.703
			c0.424-0.417,0.953-0.626,1.586-0.626c0.342,0,0.613,0.04,0.813,0.121V123.965z"/>
		<path fill="#2F2F2F" d="M369.585,133.082c-0.264,0.143-0.613,0.214-1.046,0.214c-1.226,0-1.839-0.669-1.839-2.008v-4.056h-1.203
			v-0.937h1.203v-1.673l1.121-0.355v2.028h1.764v0.937h-1.764v3.862c0,0.459,0.08,0.788,0.239,0.984s0.424,0.294,0.793,0.294
			c0.283,0,0.526-0.076,0.731-0.228V133.082z"/>
		<path fill="#2F2F2F" d="M373.843,133.309c-1.035,0-1.86-0.32-2.478-0.96s-0.926-1.489-0.926-2.547c0-1.151,0.321-2.05,0.964-2.697
			s1.511-0.971,2.604-0.971c1.043,0,1.858,0.314,2.444,0.944c0.585,0.629,0.878,1.501,0.878,2.617c0,1.093-0.315,1.969-0.947,2.627
			S374.905,133.309,373.843,133.309z M373.925,127.058c-0.72,0-1.29,0.24-1.709,0.719c-0.419,0.48-0.629,1.141-0.629,1.985
			c0,0.812,0.212,1.452,0.636,1.921c0.424,0.468,0.991,0.703,1.702,0.703c0.725,0,1.282-0.229,1.671-0.689
			c0.39-0.459,0.584-1.113,0.584-1.961c0-0.857-0.195-1.517-0.584-1.981C375.207,127.29,374.649,127.058,373.925,127.058z"/>
		<path fill="#2F2F2F" d="M384.855,133.149h-1.572l-3.09-3.293h-0.027v3.293h-1.121v-10.147h1.121v6.433h0.027l2.939-3.139h1.47
			l-3.247,3.307L384.855,133.149z"/>
		<path fill="#2F2F2F" d="M391.28,129.996h-4.942c0.018,0.763,0.228,1.353,0.629,1.767c0.401,0.415,0.953,0.623,1.654,0.623
			c0.789,0,1.513-0.254,2.174-0.763v1.031c-0.615,0.437-1.429,0.656-2.44,0.656c-0.989,0-1.766-0.311-2.331-0.934
			s-0.848-1.499-0.848-2.627c0-1.066,0.309-1.936,0.926-2.607s1.384-1.007,2.3-1.007s1.625,0.29,2.126,0.87s0.752,1.386,0.752,2.417
			V129.996z M390.131,129.066c-0.004-0.634-0.161-1.126-0.468-1.479s-0.735-0.529-1.282-0.529c-0.529,0-0.978,0.185-1.347,0.555
			c-0.369,0.371-0.597,0.855-0.684,1.453H390.131z"/>
		<path fill="#2F2F2F" d="M398.773,133.149h-1.121v-3.909c0-1.455-0.542-2.182-1.627-2.182c-0.561,0-1.024,0.206-1.391,0.619
			c-0.367,0.413-0.55,0.934-0.55,1.562v3.909h-1.121v-6.854h1.121v1.138h0.027c0.529-0.866,1.294-1.298,2.297-1.298
			c0.766,0,1.351,0.242,1.757,0.726c0.406,0.484,0.608,1.184,0.608,2.099V133.149z"/>
		<path fill="#2F2F2F" d="M337.38,141.004c-0.201,0-0.372-0.067-0.513-0.201c-0.141-0.134-0.212-0.304-0.212-0.509
			c0-0.206,0.071-0.376,0.212-0.512s0.312-0.204,0.513-0.204c0.205,0,0.379,0.068,0.523,0.204s0.215,0.307,0.215,0.512
			c0,0.196-0.072,0.364-0.215,0.502S337.585,141.004,337.38,141.004z M337.927,149.598h-1.121v-6.854h1.121V149.598z"/>
		<path fill="#2F2F2F" d="M339.644,149.351v-1.178c0.611,0.442,1.283,0.663,2.017,0.663c0.984,0,1.477-0.321,1.477-0.964
			c0-0.183-0.042-0.338-0.126-0.465c-0.084-0.127-0.198-0.24-0.342-0.338s-0.312-0.186-0.506-0.264s-0.402-0.16-0.625-0.244
			c-0.31-0.121-0.582-0.242-0.817-0.365c-0.235-0.123-0.431-0.261-0.588-0.415c-0.157-0.154-0.276-0.329-0.355-0.526
			c-0.08-0.196-0.12-0.426-0.12-0.689c0-0.321,0.075-0.605,0.226-0.853s0.351-0.455,0.602-0.623s0.537-0.293,0.858-0.378
			c0.321-0.084,0.653-0.127,0.995-0.127c0.606,0,1.148,0.103,1.627,0.308v1.111c-0.515-0.33-1.107-0.495-1.777-0.495
			c-0.209,0-0.399,0.023-0.567,0.07s-0.313,0.112-0.434,0.197s-0.214,0.187-0.28,0.305s-0.099,0.249-0.099,0.392
			c0,0.178,0.033,0.328,0.099,0.448s0.163,0.228,0.291,0.321s0.283,0.179,0.465,0.254s0.39,0.158,0.622,0.248
			c0.31,0.116,0.588,0.235,0.834,0.358c0.246,0.123,0.456,0.261,0.629,0.415c0.173,0.154,0.307,0.332,0.4,0.532
			s0.14,0.439,0.14,0.716c0,0.339-0.076,0.634-0.229,0.883c-0.153,0.25-0.356,0.458-0.612,0.623
			c-0.255,0.166-0.549,0.288-0.882,0.368c-0.333,0.081-0.681,0.121-1.046,0.121C340.796,149.759,340.172,149.623,339.644,149.351z"
			/>
		<path fill="#2F2F2F" d="M355.346,142.744l-2.789,6.854h-1.101l-2.652-6.854h1.23l1.777,4.98c0.132,0.366,0.214,0.685,0.246,0.957
			h0.027c0.045-0.344,0.119-0.654,0.219-0.93l1.859-5.007H355.346z"/>
		<path fill="#2F2F2F" d="M361.463,149.598h-1.121v-1.071h-0.027c-0.488,0.821-1.206,1.231-2.153,1.231
			c-0.697,0-1.243-0.181-1.637-0.542c-0.394-0.362-0.591-0.841-0.591-1.439c0-1.28,0.77-2.025,2.311-2.235l2.099-0.288
			c0-1.165-0.481-1.747-1.442-1.747c-0.843,0-1.604,0.281-2.283,0.843v-1.125c0.688-0.428,1.481-0.643,2.379-0.643
			c1.645,0,2.468,0.853,2.468,2.557V149.598z M360.342,146.131l-1.688,0.228c-0.52,0.072-0.912,0.198-1.176,0.378
			s-0.396,0.501-0.396,0.96c0,0.334,0.122,0.608,0.366,0.82s0.568,0.318,0.974,0.318c0.556,0,1.015-0.19,1.377-0.572
			c0.362-0.381,0.543-0.864,0.543-1.449V146.131z"/>
		<path fill="#2F2F2F" d="M364.6,149.598h-1.121v-10.147h1.121V149.598z"/>
		<path fill="#2F2F2F" d="M367.287,141.004c-0.201,0-0.372-0.067-0.513-0.201c-0.141-0.134-0.212-0.304-0.212-0.509
			c0-0.206,0.071-0.376,0.212-0.512s0.312-0.204,0.513-0.204c0.205,0,0.379,0.068,0.523,0.204s0.215,0.307,0.215,0.512
			c0,0.196-0.072,0.364-0.215,0.502S367.492,141.004,367.287,141.004z M367.833,149.598h-1.121v-6.854h1.121V149.598z"/>
		<path fill="#2F2F2F" d="M375.977,149.598h-1.121v-1.165h-0.027c-0.52,0.883-1.322,1.325-2.406,1.325
			c-0.879,0-1.583-0.307-2.109-0.92c-0.526-0.613-0.79-1.449-0.79-2.507c0-1.133,0.292-2.042,0.875-2.724s1.36-1.024,2.331-1.024
			c0.961,0,1.661,0.371,2.099,1.111h0.027v-4.244h1.121V149.598z M374.856,146.499v-1.011c0-0.553-0.187-1.021-0.561-1.405
			s-0.848-0.576-1.422-0.576c-0.684,0-1.221,0.245-1.613,0.736c-0.392,0.491-0.588,1.169-0.588,2.035
			c0,0.79,0.188,1.414,0.564,1.871c0.376,0.458,0.881,0.686,1.514,0.686c0.625,0,1.131-0.221,1.521-0.663
			S374.856,147.173,374.856,146.499z"/>
	</g>
	<g>
		<rect x="315.876" y="234.489" fill="none" width="79.2" height="19.999"/>
		<path fill="#2F2F2F" d="M316.704,244.455v-1.354c0.155,0.137,0.341,0.26,0.557,0.369s0.444,0.202,0.684,0.277
			s0.479,0.133,0.721,0.174s0.465,0.062,0.67,0.062c0.707,0,1.234-0.131,1.583-0.393s0.523-0.639,0.523-1.131
			c0-0.264-0.058-0.495-0.174-0.69s-0.277-0.375-0.482-0.537s-0.448-0.317-0.728-0.465s-0.582-0.304-0.906-0.468
			c-0.342-0.173-0.661-0.349-0.957-0.526s-0.554-0.374-0.772-0.588s-0.391-0.457-0.516-0.728s-0.188-0.589-0.188-0.954
			c0-0.447,0.098-0.835,0.294-1.166s0.454-0.603,0.772-0.817s0.683-0.374,1.09-0.479s0.824-0.157,1.248-0.157
			c0.966,0,1.67,0.116,2.112,0.349v1.292c-0.579-0.401-1.322-0.602-2.229-0.602c-0.25,0-0.501,0.026-0.752,0.079
			s-0.474,0.138-0.67,0.256s-0.355,0.271-0.479,0.458s-0.185,0.415-0.185,0.684c0,0.25,0.047,0.467,0.14,0.649
			s0.231,0.349,0.414,0.499s0.404,0.296,0.667,0.438s0.564,0.296,0.906,0.465c0.351,0.173,0.684,0.355,0.998,0.547
			s0.59,0.403,0.827,0.636s0.425,0.49,0.564,0.772s0.208,0.606,0.208,0.971c0,0.483-0.095,0.892-0.284,1.227
			s-0.444,0.607-0.766,0.817s-0.691,0.361-1.111,0.455s-0.861,0.14-1.326,0.14c-0.155,0-0.346-0.013-0.574-0.038
			s-0.46-0.062-0.697-0.109s-0.461-0.107-0.673-0.178S316.831,244.542,316.704,244.455z"/>
		<path fill="#2F2F2F" d="M329.447,244.852h-1.121v-1.094h-0.027c-0.488,0.838-1.206,1.258-2.153,1.258
			c-0.697,0-1.243-0.185-1.637-0.554s-0.591-0.859-0.591-1.47c0-1.308,0.77-2.069,2.311-2.283l2.099-0.294
			c0-1.189-0.481-1.784-1.442-1.784c-0.843,0-1.604,0.287-2.283,0.861v-1.148c0.688-0.438,1.481-0.656,2.379-0.656
			c1.645,0,2.468,0.871,2.468,2.611V244.852z M328.326,241.311l-1.688,0.232c-0.52,0.073-0.912,0.202-1.176,0.386
			s-0.396,0.512-0.396,0.981c0,0.342,0.122,0.621,0.366,0.837s0.568,0.325,0.974,0.325c0.556,0,1.015-0.195,1.377-0.584
			s0.543-0.883,0.543-1.48V241.311z"/>
		<path fill="#2F2F2F" d="M336.897,237.852l-2.789,7h-1.101l-2.652-7h1.23l1.777,5.086c0.132,0.374,0.214,0.7,0.246,0.978h0.027
			c0.045-0.351,0.119-0.667,0.219-0.95l1.859-5.113H336.897z"/>
		<path fill="#2F2F2F" d="M343.539,241.632h-4.942c0.018,0.779,0.228,1.381,0.629,1.805s0.953,0.636,1.654,0.636
			c0.789,0,1.513-0.26,2.174-0.779v1.053c-0.615,0.447-1.429,0.67-2.44,0.67c-0.989,0-1.766-0.318-2.331-0.954
			s-0.848-1.53-0.848-2.683c0-1.089,0.309-1.977,0.926-2.663s1.384-1.029,2.3-1.029s1.625,0.296,2.126,0.889
			s0.752,1.415,0.752,2.468V241.632z M342.39,240.682c-0.004-0.647-0.161-1.151-0.468-1.511s-0.735-0.54-1.282-0.54
			c-0.529,0-0.978,0.189-1.347,0.567s-0.597,0.873-0.684,1.483H342.39z"/>
		<path fill="#2F2F2F" d="M352.316,244.783c-0.264,0.146-0.613,0.219-1.046,0.219c-1.226,0-1.839-0.684-1.839-2.051v-4.143h-1.203
			v-0.957h1.203v-1.709l1.121-0.362v2.071h1.764v0.957h-1.764v3.944c0,0.469,0.08,0.804,0.239,1.005s0.424,0.301,0.793,0.301
			c0.283,0,0.526-0.078,0.731-0.232V244.783z"/>
		<path fill="#2F2F2F" d="M356.573,245.016c-1.035,0-1.86-0.327-2.478-0.981s-0.926-1.521-0.926-2.601
			c0-1.176,0.321-2.094,0.964-2.755s1.511-0.991,2.604-0.991c1.043,0,1.858,0.321,2.444,0.964s0.878,1.534,0.878,2.673
			c0,1.117-0.315,2.011-0.947,2.683S357.635,245.016,356.573,245.016z M356.655,238.631c-0.72,0-1.29,0.245-1.709,0.735
			s-0.629,1.166-0.629,2.027c0,0.83,0.212,1.483,0.636,1.962s0.991,0.718,1.702,0.718c0.725,0,1.282-0.235,1.671-0.704
			s0.584-1.137,0.584-2.003c0-0.875-0.195-1.549-0.584-2.023S357.38,238.631,356.655,238.631z"/>
		<path fill="#2F2F2F" d="M367.586,244.852h-1.572l-3.09-3.363h-0.027v3.363h-1.121v-10.363h1.121v6.569h0.027l2.939-3.206h1.47
			l-3.247,3.377L367.586,244.852z"/>
		<path fill="#2F2F2F" d="M374.01,241.632h-4.942c0.018,0.779,0.228,1.381,0.629,1.805s0.953,0.636,1.654,0.636
			c0.789,0,1.513-0.26,2.174-0.779v1.053c-0.615,0.447-1.429,0.67-2.44,0.67c-0.989,0-1.766-0.318-2.331-0.954
			s-0.848-1.53-0.848-2.683c0-1.089,0.309-1.977,0.926-2.663s1.384-1.029,2.3-1.029s1.625,0.296,2.126,0.889
			s0.752,1.415,0.752,2.468V241.632z M372.862,240.682c-0.004-0.647-0.161-1.151-0.468-1.511s-0.735-0.54-1.282-0.54
			c-0.529,0-0.978,0.189-1.347,0.567s-0.597,0.873-0.684,1.483H372.862z"/>
		<path fill="#2F2F2F" d="M381.503,244.852h-1.121v-3.992c0-1.486-0.542-2.229-1.627-2.229c-0.561,0-1.024,0.211-1.391,0.632
			s-0.55,0.954-0.55,1.596v3.992h-1.121v-7h1.121v1.162h0.027c0.529-0.884,1.294-1.326,2.297-1.326c0.766,0,1.351,0.247,1.757,0.742
			s0.608,1.209,0.608,2.143V244.852z"/>
		<path fill="#2F2F2F" d="M383.151,244.599v-1.203c0.611,0.451,1.283,0.677,2.017,0.677c0.984,0,1.477-0.328,1.477-0.984
			c0-0.187-0.042-0.345-0.126-0.475s-0.198-0.245-0.342-0.345s-0.312-0.19-0.506-0.27s-0.402-0.163-0.625-0.25
			c-0.31-0.123-0.582-0.247-0.817-0.373s-0.431-0.267-0.588-0.424s-0.276-0.336-0.355-0.537s-0.12-0.435-0.12-0.704
			c0-0.328,0.075-0.619,0.226-0.872s0.351-0.465,0.602-0.636s0.537-0.3,0.858-0.386s0.653-0.13,0.995-0.13
			c0.606,0,1.148,0.105,1.627,0.314v1.135c-0.515-0.337-1.107-0.506-1.777-0.506c-0.209,0-0.399,0.024-0.567,0.072
			s-0.313,0.115-0.434,0.202s-0.214,0.19-0.28,0.311s-0.099,0.254-0.099,0.4c0,0.182,0.033,0.335,0.099,0.458
			s0.163,0.232,0.291,0.328s0.283,0.182,0.465,0.26s0.39,0.162,0.622,0.253c0.31,0.119,0.588,0.24,0.834,0.366
			s0.456,0.267,0.629,0.424s0.307,0.338,0.4,0.543s0.14,0.449,0.14,0.731c0,0.346-0.076,0.647-0.229,0.902s-0.356,0.467-0.612,0.636
			s-0.549,0.294-0.882,0.376s-0.681,0.123-1.046,0.123C384.304,245.016,383.68,244.877,383.151,244.599z"/>
	</g>
</g>
<g id="Layer_1">
</g>
</svg>
