<?xml version="1.0" encoding="UTF-8" standalone="no"?>
<!-- Generated by Microsoft Visio, SVG Export desktop-app.svg Page-1 -->

<svg
   xmlns:v="http://schemas.microsoft.com/visio/2003/SVGExtensions/"
   xmlns:dc="http://purl.org/dc/elements/1.1/"
   xmlns:cc="http://creativecommons.org/ns#"
   xmlns:rdf="http://www.w3.org/1999/02/22-rdf-syntax-ns#"
   xmlns:svg="http://www.w3.org/2000/svg"
   xmlns="http://www.w3.org/2000/svg"
   xmlns:xlink="http://www.w3.org/1999/xlink"
   xmlns:sodipodi="http://sodipodi.sourceforge.net/DTD/sodipodi-0.dtd"
   xmlns:inkscape="http://www.inkscape.org/namespaces/inkscape"
   width="3.11672in"
   height="1.37257in"
   viewBox="0 0 224.404 98.8248"
   xml:space="preserve"
   color-interpolation-filters="sRGB"
   class="st11"
   version="1.1"
   id="svg133"
   sodipodi:docname="desktop-app.svg"
   inkscape:version="0.92.4 (5da689c313, 2019-01-14)"><metadata
   id="metadata137"><rdf:RDF><cc:Work
       rdf:about=""><dc:format>image/svg+xml</dc:format><dc:type
         rdf:resource="http://purl.org/dc/dcmitype/StillImage" /></cc:Work></rdf:RDF></metadata><sodipodi:namedview
   pagecolor="#ffffff"
   bordercolor="#666666"
   borderopacity="1"
   objecttolerance="10"
   gridtolerance="10"
   guidetolerance="10"
   inkscape:pageopacity="0"
   inkscape:pageshadow="2"
   inkscape:window-width="2880"
   inkscape:window-height="1706"
   id="namedview135"
   showgrid="false"
   inkscape:zoom="1.310138"
   inkscape:cx="149.60256"
   inkscape:cy="65.883362"
   inkscape:window-x="1789"
   inkscape:window-y="19"
   inkscape:window-maximized="1"
   inkscape:current-layer="svg133" />
	<v:documentProperties
   v:langID="1036"
   v:metric="true"
   v:viewMarkup="false">
		<v:userDefs>
			<v:ud
   v:nameU="msvConvertTheme" />
		</v:userDefs>
	</v:documentProperties>

	<style
   type="text/css"
   id="style2">
	<![CDATA[
		.st1 {fill:#0078d7;stroke:none;stroke-linecap:butt;stroke-width:0.6375}
		.st2 {fill:#000000;font-family:Segoe UI;font-size:0.833336em}
		.st3 {fill:#008bfd;stroke:none;stroke-linecap:round;stroke-linejoin:round;stroke-width:0.75}
		.st4 {fill:#008bfd;stroke:#808080;stroke-linecap:round;stroke-linejoin:round;stroke-width:0.75}
		.st5 {fill:#ffffff;stroke:none;stroke-linecap:round;stroke-linejoin:round;stroke-width:0.75}
		.st6 {marker-end:url(#mrkr5-44);stroke:#505050;stroke-linecap:round;stroke-linejoin:round;stroke-width:1.5}
		.st7 {fill:#505050;fill-opacity:1;stroke:#505050;stroke-opacity:1;stroke-width:0.37313432835821}
		.st8 {fill:none;stroke:none;stroke-linecap:round;stroke-linejoin:round;stroke-width:0.75}
		.st9 {fill:#00b0f0;font-family:Segoe UI;font-size:0.833336em}
		.st10 {font-size:1em}
		.st11 {fill:none;fill-rule:evenodd;font-size:12px;overflow:visible;stroke-linecap:square;stroke-miterlimit:3}
	]]>
	</style>

	<defs
   id="Markers">
		<g
   id="lend5">
			<path
   d="M 2 1 L 0 0 L 1.98117 -0.993387 C 1.67173 -0.364515 1.67301 0.372641 1.98465 1.00043 "
   style="stroke:none"
   id="path4" />
		</g>
		<marker
   id="mrkr5-44"
   class="st7"
   v:arrowType="5"
   v:arrowSize="2"
   v:setback="4.69"
   refX="-4.69"
   orient="auto"
   markerUnits="strokeWidth"
   overflow="visible">
			<use
   xlink:href="#lend5"
   transform="scale(-2.68,-2.68) "
   id="use7" />
		</marker>
	</defs>
	<g
   v:mID="0"
   v:index="1"
   v:groupContext="foregroundPage"
   id="g131">
		<title
   id="title11">Page-1</title>
		<v:pageProperties
   v:drawingScale="0.0393701"
   v:pageScale="0.0393701"
   v:drawingUnits="24"
   v:shadowOffsetX="8.50394"
   v:shadowOffsetY="-8.50394" />
		<v:layer
   v:name="Azure"
   v:index="0" />
		<v:layer
   v:name="Connector"
   v:index="1" />
		<g
   id="group1171-1"
   transform="translate(45.265,-31.2669)"
   v:mID="1171"
   v:groupContext="group">
			<title
   id="title13">Microsoft Enterprise desktop virtualization.1612</title>
			<desc
   id="desc15">Desktop App</desc>
			<g
   id="shape1172-2"
   v:mID="1172"
   v:groupContext="shape">
				<title
   id="title17">Sheet.1172</title>
				<path
   d="M14.97 98.06 L0.76 98.06 L0.76 69.68 L14.97 69.68 L14.97 77.36 L15.73 77.36 L15.73 68.92 L0 68.92 L0 98.82         L15.73 98.82 L15.73 96.5 L14.97 96.5 L14.97 98.06 Z"
   class="st1"
   id="path19" />
			</g>
			<g
   id="shape1173-4"
   v:mID="1173"
   v:groupContext="shape"
   transform="translate(1.5606,-23.7593)">
				<title
   id="title22">Sheet.1173</title>
				<path
   d="M12.64 94.24 L0 94.24 L0 98.82 L12.64 98.82 L12.64 94.24 ZM3.06 96.15 L9.59 96.15 L9.59 96.91 L3.06 96.91         L3.06 96.15 ZM9.65 98 L9.55 98 L3.12 98 L3.03 98 L3.03 97.23 L3.12 97.23 L9.55 97.23 L9.65 97.23 L9.65         98 Z"
   class="st1"
   id="path24" />
			</g>
			<g
   id="shape1174-6"
   v:mID="1174"
   v:groupContext="shape"
   transform="translate(1.52875,-19.9374)">
				<title
   id="title27">Sheet.1174</title>
				<path
   d="M0 95.77 L0 98.82 L8.6 98.82 L8.6 97.3 L12.68 97.3 L12.68 95.77 L0 95.77 Z"
   class="st1"
   id="path29" />
			</g>
			<g
   id="shape1175-8"
   v:mID="1175"
   v:groupContext="shape"
   transform="translate(1.52875,-16.4978)">
				<title
   id="title32">Sheet.1175</title>
				<rect
   x="0"
   y="96.1495"
   width="8.59922"
   height="2.67531"
   class="st1"
   id="rect34" />
			</g>
			<g
   id="shape1176-10"
   v:mID="1176"
   v:groupContext="shape"
   transform="translate(1.4969,-1.52875)">
				<title
   id="title37">Sheet.1176</title>
				<path
   d="M0.03 98.82 L12.68 98.82 L12.68 98.03 L8.6 98.03 L8.6 84.65 L0 84.65 L0 98.82 L0.03 98.82 ZM1.56 96.09 L3.85         96.09 L3.85 97.3 L1.56 97.3 L1.56 96.09 Z"
   class="st1"
   id="path39" />
			</g>
			<g
   id="shape1177-12"
   v:mID="1177"
   v:groupContext="shape"
   transform="translate(16.02,-3.43969)">
				<title
   id="title42">Sheet.1177</title>
				<path
   d="M8.73 97.68 L6.27 97.68 L6.27 95.8 L3.76 95.8 L3.76 97.68 L1.31 97.68 C0.64 97.68 0 98.25 0 98.82 L10.03         98.82 C10.06 98.25 9.4 97.68 8.73 97.68 Z"
   class="st1"
   id="path44" />
			</g>
			<g
   id="shape1178-14"
   v:mID="1178"
   v:groupContext="shape"
   transform="translate(11.816,-7.22971)">
				<title
   id="title47">Sheet.1178</title>
				<path
   d="M17.77 87.49 L0.67 87.49 C0.32 87.49 0 87.74 0 88.09 L0 98.22 C0 98.54 0.29 98.82 0.67 98.82 L17.77 98.82         C18.12 98.82 18.44 98.57 18.44 98.22 L18.44 88.09 C18.44 87.74 18.15 87.49 17.77 87.49 ZM16.75 97.33         L1.69 97.33 L1.69 89.02 L16.75 89.02 L16.75 97.33 Z"
   class="st1"
   id="path49" />
			</g>
			<g
   id="shape1179-16"
   v:mID="1179"
   v:groupContext="shape"
   transform="translate(17.931,-9.36359)">
				<title
   id="title52">Sheet.1179</title>
				<path
   d="M7.01 96.98 L7.01 93.54 L3.5 91.69 L0 93.47 L0 97.01 L3.5 98.82 L7.01 96.98 ZM2.61 94.68 L3.5 94.24 L4.36         94.68 L3.5 95.16 L2.61 94.68 ZM2.64 93.54 L3.5 93.09 L4.36 93.54 L3.5 94.02 L2.64 93.54 ZM4.55 98.06         L3.6 98.57 L3.6 97.65 L4.55 97.14 L4.55 98.06 ZM4.55 96.88 L3.6 97.39 L3.6 96.47 L4.55 95.96 L4.55 96.88         ZM4.55 95.77 L3.6 96.28 L3.6 95.35 L4.55 94.84 L4.55 95.77 ZM3.73 94.11 L4.59 93.67 L5.48 94.11 L4.62         94.56 L3.73 94.11 ZM5.73 97.46 L4.78 97.96 L4.78 97.04 L5.73 96.53 L5.73 97.46 ZM5.73 96.28 L4.78 96.79         L4.78 95.86 L5.73 95.35 L5.73 96.28 ZM5.73 95.13 L4.78 95.64 L4.78 94.75 L5.73 94.24 L5.73 95.13 ZM6.78         96.88 L5.92 97.33 L5.92 96.4 L6.78 95.96 L6.78 96.88 ZM6.78 95.74 L5.92 96.18 L5.92 95.26 L6.78 94.81         L6.78 95.74 ZM6.78 94.59 L5.92 95.03 L5.92 94.11 L6.78 93.67 L6.78 94.59 ZM6.59 93.54 L5.7 93.98 L4.81         93.54 L5.67 93.09 L6.59 93.54 ZM5.48 92.96 L4.59 93.41 L3.73 92.96 L4.59 92.52 L5.48 92.96 ZM3.5 91.91         L4.36 92.36 L3.5 92.81 L2.61 92.36 L3.5 91.91 ZM2.39 92.52 L3.25 92.96 L2.39 93.41 L1.53 92.96 L2.39         92.52 ZM1.31 93.09 L2.2 93.54 L1.31 93.98 L0.41 93.54 L1.31 93.09 ZM1.05 97.36 L0.19 96.91 L0.19 95.99         L1.05 96.44 L1.05 97.36 ZM1.05 96.18 L0.19 95.74 L0.19 94.81 L1.05 95.26 L1.05 96.18 ZM1.05 95.03 L0.19         94.59 L0.19 93.7 L1.05 94.14 L1.05 95.03 ZM2.23 97.96 L1.27 97.46 L1.27 96.53 L2.23 97.04 L2.23 97.96         ZM2.23 96.79 L1.27 96.28 L1.27 95.35 L2.23 95.86 L2.23 96.79 ZM2.23 95.64 L1.27 95.13 L1.27 94.24 L2.23         94.75 L2.23 95.64 ZM1.53 94.11 L2.42 93.67 L3.28 94.11 L2.39 94.59 L1.53 94.11 ZM3.41 98.57 L2.45 98.06         L2.45 97.17 L3.41 97.68 L3.41 98.57 ZM3.41 97.42 L2.45 96.91 L2.45 95.99 L3.41 96.5 L3.41 97.42 ZM3.41         96.28 L2.45 95.77 L2.45 94.84 L3.41 95.35 L3.41 96.28 Z"
   class="st1"
   id="path54" />
			</g>
			<g
   id="shape1171-18"
   v:mID="1171"
   v:groupContext="groupContent">
				<v:textBlock
   v:margins="rect(0,0,0,0)"
   v:tabSpace="42.5197"
   v:verticalAlign="0" />
				<v:textRect
   cx="15.1283"
   cy="115.139"
   width="67.07"
   height="29.9062" />
				<text
   x="-13.64"
   y="109.19"
   class="st2"
   v:langID="1033"
   id="text57"
   style="fill:#008bfd;fill-opacity:1;"><v:paragraph
   v:horizAlign="1" /><v:tabList />Desktop App</text>
			</g>
		</g>
		<g
   id="group1180-20"
   transform="translate(0.375,-37.716)"
   v:mID="1180"
   v:groupContext="group"
   v:layerMember="0">
			<title
   id="title61">User Permissions.1621</title>
			<g
   id="group1181-21"
   v:mID="1181"
   v:groupContext="group"
   v:layerMember="0">
				<title
   id="title63">Sheet.1181</title>
				<g
   id="group1182-22"
   v:mID="1182"
   v:groupContext="group"
   v:layerMember="0">
					<title
   id="title65">Sheet.1182</title>
					<g
   id="group1183-23"
   transform="translate(3.8518,-6.4617)"
   v:mID="1183"
   v:groupContext="group"
   v:layerMember="0">
						<title
   id="title67">Sheet.1183</title>
						<g
   id="shape1184-24"
   v:mID="1184"
   v:groupContext="shape"
   v:layerMember="0">
							<title
   id="title69">Sheet.1184</title>
							<path
   d="M3.62 88.94 C1.32 89.5 0 92.05 0.66 94.61 C1.32 97.16 3.62 98.82 5.93 98.27 C8.23 97.71 9.55            95.16 8.89 92.61 C8.34 89.94 5.93 88.28 3.62 88.94 Z"
   class="st3"
   id="path71" />
						</g>
					</g>
					<g
   id="group1185-26"
   v:mID="1185"
   v:groupContext="group"
   v:layerMember="0">
						<title
   id="title75">Sheet.1185</title>
						<g
   id="shape1186-27"
   v:mID="1186"
   v:groupContext="shape"
   v:layerMember="0">
							<title
   id="title77">Sheet.1186</title>
							<path
   d="M12.41 92.5 C11.97 92.5 11.53 93.27 10.87 93.61 C10.21 93.94 9.55 94.5 7.69 93.61 C5.82 92.72            5.6 91.94 4.06 91.94 C2.53 91.94 0 94.72 0 98.82 L15.59 98.82 C15.59 98.82 15.37 96.05 14.49            94.61 C13.39 92.5 12.85 92.5 12.41 92.5 Z"
   class="st3"
   id="path79" />
						</g>
					</g>
				</g>
			</g>
			<g
   id="group1187-29"
   transform="translate(9.0485,-0.85947)"
   v:mID="1187"
   v:groupContext="group"
   v:layerMember="0">
				<title
   id="title85">Sheet.1187</title>
				<g
   id="shape1188-30"
   v:mID="1188"
   v:groupContext="shape"
   v:layerMember="0">
					<title
   id="title87">Sheet.1188</title>
					<path
   d="M4.77 88.42 L0.65 88.42 C0.33 88.42 0 88.74 0 89.07 L0 91.92 C0 92.25 0.33 92.58 0.76 92.58 L1.52 92.58          L1.52 97.73 C1.52 98.39 1.95 98.82 2.49 98.82 C3.03 98.82 3.47 98.39 3.47 97.84 C3.58 97.84 3.68          97.84 3.68 97.84 C3.68 97.84 3.68 97.29 3.68 97.18 C3.68 96.96 4.01 96.85 4.01 96.85 C4.01 96.85          4.01 96.52 4.01 96.52 C3.68 96.41 3.47 96.2 3.47 96.09 L3.47 95.76 C3.58 95.65 3.68 95.54 3.68 95.54          C3.79 95.43 4.01 94.99 4.01 94.99 C4.01 94.99 3.68 94.55 3.68 94.44 C3.58 94.33 3.58 94.11 3.47          94 L3.47 93.78 C3.58 93.24 4.23 92.69 4.23 92.69 L4.77 92.69 C5.09 92.69 5.42 92.36 5.42 92.03 L5.42          89.07 C5.42 88.74 5.2 88.42 4.77 88.42 ZM2.38 97.95 C2.38 98.17 2.38 98.28 2.17 98.28 C1.95 98.28          1.95 98.06 1.95 97.95 L1.95 93.13 C1.95 92.91 2.06 92.8 2.17 92.8 C2.38 92.8 2.38 93.02 2.38 93.13          L2.38 97.95 ZM2.71 90.17 C2.38 90.17 2.06 89.84 2.06 89.51 C2.06 89.18 2.38 88.85 2.71 88.85 C3.03          88.85 3.36 89.18 3.36 89.51 C3.36 89.84 3.14 90.17 2.71 90.17 Z"
   class="st4"
   id="path89" />
				</g>
				<g
   id="shape1189-32"
   v:mID="1189"
   v:groupContext="shape"
   v:layerMember="0"
   transform="translate(1.92482,-0.570755)">
					<title
   id="title92">Sheet.1189</title>
					<path
   d="M0.22 98.82 C0.11 98.82 0 98.71 0 98.6 L0 93.61 C0 93.5 0.11 93.39 0.22 93.39 C0.33 93.39 0.44 93.5          0.44 93.61 L0.44 98.71 C0.44 98.82 0.33 98.82 0.22 98.82 Z"
   class="st5"
   id="path94" />
				</g>
				<g
   id="shape1190-34"
   v:mID="1190"
   v:groupContext="shape"
   v:layerMember="0"
   transform="translate(2.05993,-8.66317)">
					<title
   id="title97">Sheet.1190</title>
					<ellipse
   cx="0.658756"
   cy="98.1587"
   rx="0.658756"
   ry="0.666074"
   class="st5"
   id="ellipse99" />
				</g>
			</g>
		</g>
		<g
   id="shape1191-36"
   v:mID="1191"
   v:groupContext="shape"
   v:layerMember="0"
   transform="translate(170.17,-31.6285)">
			<title
   id="title104">API App.1632</title>
			<desc
   id="desc106">API App</desc>
			<v:textBlock
   v:margins="rect(4,4,4,4)"
   v:tabSpace="42.5197" />
			<v:textRect
   cx="11.3386"
   cy="108.827"
   width="46.41"
   height="20.0036" />
			<path
   d="M21.59 73.31 L1.09 73.31 C0.49 73.31 0 73.8 0 74.42 L0 91.16 C0 91.77 0.49 92.26 1.09 92.26 L6.37 92.26 C6.79        93.61 8.06 94.53 9.58 94.53 C11.4 94.53 12.92 93 12.92 91.16 C12.92 89.32 11.4 87.79 9.58 87.79 C8.06 87.79        6.79 88.71 6.37 90.06 L2.18 90.06 L2.18 78.1 L20.49 78.1 L20.49 90.06 L17.04 90.06 C16.55 86.38 13.34 83.49        9.58 83.49 C8.31 83.49 7.03 83.86 5.94 84.41 L6.97 86.38 C7.7 85.95 8.67 85.7 9.52 85.7 C12.43 85.7 14.92        88.15 14.92 91.16 C14.92 94.16 12.49 96.62 9.52 96.62 C8.61 96.62 7.76 96.37 6.97 95.94 L5.94 97.9 C7.03        98.52 8.31 98.82 9.58 98.82 C13.34 98.82 16.55 95.94 17.04 92.26 L21.59 92.26 C22.19 92.26 22.68 91.77 22.68        91.16 L22.68 74.42 C22.68 73.86 22.19 73.31 21.59 73.31 Z"
   class="st3"
   id="path108" />
			<text
   x="-6.49"
   y="111.83"
   class="st2"
   v:langID="16393"
   id="text110"
   style="fill:#008bfd;fill-opacity:1;"><v:paragraph
   v:horizAlign="1" /><v:tabList />API App</text>
		</g>
		<g
   id="shape1192-39"
   v:mID="1192"
   v:groupContext="shape"
   v:layerMember="1;0"
   transform="translate(75.5215,-37.1982)">
			<title
   id="title113">Arrow (Azure Poster Style).1633</title>
			<path
   d="M0 91.84 L87.18 91.65"
   class="st6"
   id="path115" />
		</g>
		<g
   id="shape1193-45"
   v:mID="1193"
   v:groupContext="shape"
   transform="translate(36.9419,-70.8248)">
			<title
   id="title118">Sheet.1193</title>
			<desc
   id="desc120">- Authorization code flow (with PKCE) - Integrated Windows Au...</desc>
			<v:textBlock
   v:margins="rect(4,4,4,4)"
   v:tabSpace="42.5197" />
			<v:textRect
   cx="93.5433"
   cy="88.8248"
   width="187.09"
   height="20" />
			<rect
   x="0"
   y="78.8248"
   width="187.087"
   height="20"
   class="st8"
   id="rect122" />
			<text
   x="4"
   y="79.82"
   class="st9"
   v:langID="1033"
   id="text128"><v:paragraph /><v:tabList />- Authorization code flow (with PKCE)<v:newlineChar /><tspan
   x="4"
   dy="1.2em"
   class="st10"
   id="tspan124">-</tspan> Integrated Windows Authentication<v:newlineChar /><tspan
   x="4"
   dy="1.2em"
   class="st10"
   id="tspan126">-</tspan> Username/Password</text>
		</g>
	</g>
</svg>