<?xml version="1.0" encoding="utf-8"?>
<!-- Generator: Adobe Illustrator 22.1.0, SVG Export Plug-In . SVG Version: 6.00 Build 0)  -->
<svg version="1.1" xmlns="http://www.w3.org/2000/svg" xmlns:xlink="http://www.w3.org/1999/xlink" x="0px" y="0px"
	 viewBox="0 0 420.2 401.8" enable-background="new 0 0 420.2 401.8" xml:space="preserve">
<g id="Layer_1">
	<g>
		<path fill="#45ADD2" d="M205.3,239.6v-7.6v-29.9c0-3.8-3.2-6.9-7.1-6.9h-30.1c-1.5,0-2.7-0.5-3.6-1.4c-0.9-0.9-1.4-2.1-1.4-3.6
			c0-1.3,0.5-2.5,1.6-3.8l50-49.9c0.9-0.9,2-1.3,3.4-1.4c-11-44.6-49.8-78.6-97.5-80.8c-61.9-2.8-113,48.4-110.2,110.2
			c2.6,56.5,50,100.6,106.6,100.6h88.4v-0.3V239.6z"/>
		<path fill="#2272B9" d="M265.2,287.2v-22.1h40.7c57.3,0,104-44.8,104-99.8c0-52.8-43.5-96-97.9-98.1
			C291.6,31.2,252.4,8.9,208.9,8.9c-28.8,0-55.3,9.9-75.6,26.8c26,4.1,50.1,16.2,69.1,35.3c22.3,22.3,35.2,51.5,36.7,82.6l33,32.9
			c0.9,0.9,1.4,2.1,1.4,3.6c0,1.4-0.5,2.5-1.5,3.5c-1,1-2.2,1.5-3.5,1.5h-29.2v66.5v0.3v32.9v29.7c0,3.9-3.2,7.1-7.2,7.1l0.2,0
			h-30.1c-1.4,0-2.5,0.5-3.5,1.5c-1,1-1.5,2.2-1.5,3.5c0,1.5,0.5,2.7,1.4,3.6l50.2,50c0.9,0.9,2.1,1.4,3.6,1.4
			c1.5,0,2.7-0.5,3.6-1.4l50-49.9c1-1.3,1.6-2.5,1.6-3.8c0-1.5-0.5-2.7-1.4-3.6c-0.9-0.9-2.1-1.4-3.6-1.4h-30.1
			c-3.9,0-7.1-3.1-7.1-6.9v-29.9V287.2z"/>
	</g>
</g>
<g id="Layer_2">
</g>
</svg>