<?xml version="1.0" encoding="utf-8"?>
<!-- Generator: Adobe Illustrator 22.1.0, SVG Export Plug-In . SVG Version: 6.00 Build 0)  -->
<svg version="1.1" xmlns="http://www.w3.org/2000/svg" xmlns:xlink="http://www.w3.org/1999/xlink" x="0px" y="0px"
	 viewBox="0 0 420.2 270.1" enable-background="new 0 0 420.2 270.1" xml:space="preserve">
<g id="Layer_1">
	<g>
		<path fill="#2272B9" d="M312.1,65.2C291.6,29.2,252.4,6.9,208.9,6.9c-28.8,0-55.3,9.9-75.6,26.8c26,4.1,50.1,16.2,69.1,35.3
			c23.7,23.7,36.8,55.2,36.8,88.6v105.5h66.7c57.3,0,104-44.8,104-99.8C409.9,110.6,366.4,67.4,312.1,65.2z"/>
		<g>
			<path fill="#45ADD2" d="M120.6,52.4c-61.9-2.8-113,48.4-110.2,110.2c2.6,56.5,50,100.6,106.6,100.6h104.3V158.9
				C221.2,102.3,177.1,54.9,120.6,52.4z"/>
		</g>
		<g>
			<path fill="#FFFFFF" d="M51.6,141.1h134.6c5.5,0,8.3-6.6,4.4-10.5l-31.8-31.8c-1.8-1.8-4.4-2.3-6.7-1.4l-4.5,1.8
				c-4.1,1.7-5.2,7-2.1,10.1l8.9,8.9c3.9,3.9,1.1,10.5-4.4,10.5H51.6c-3.4,0-6.2,2.8-6.2,6.2C45.4,138.4,48.2,141.1,51.6,141.1z"/>
			<path fill="#FFFFFF" d="M186.2,178.2H51.6c-5.5,0-8.3,6.7-4.4,10.5L79,220.5c1.8,1.7,4.4,2.3,6.7,1.4l4.5-1.8
				c4.1-1.7,5.2-7,2.1-10.1l-8.9-8.9c-3.9-3.9-1.1-10.5,4.4-10.5h98.4c3.4,0,6.2-2.8,6.2-6.2C192.4,181,189.6,178.2,186.2,178.2z"/>
		</g>
	</g>
</g>
<g id="Layer_2">
</g>
</svg>