<?xml version="1.0" encoding="utf-8"?>
<!-- Generator: Adobe Illustrator 22.1.0, SVG Export Plug-In . SVG Version: 6.00 Build 0)  -->
<svg version="1.1" id="Layer_1" xmlns="http://www.w3.org/2000/svg" xmlns:xlink="http://www.w3.org/1999/xlink" x="0px" y="0px"
	 width="340px" height="240px" viewBox="0 0 340 240" enable-background="new 0 0 340 240" xml:space="preserve">
<path fill="#7A7A7A" d="M321.896,76h-2v25.292c0,2.148-1.577,3.708-3.75,3.708h-107.25v2h107.25c3.278,0,5.75-2.454,5.75-5.708V76z"
	/>
<path fill="#7A7A7A" d="M275.896,165h-2v-23.292c0-2.148-1.577-3.708-3.75-3.708h-107.25v-2h107.25c3.278,0,5.75,2.454,5.75,5.708
	V165z"/>
<path fill="#7A7A7A" d="M60.896,62h2v26.292c0,2.148,1.577,3.708,3.75,3.708h107.25v2H66.646c-3.278,0-5.75-2.454-5.75-5.708V62z"/>
<path fill="#7A7A7A" d="M20,151h2v-22.292c0-2.148,1.577-3.708,3.75-3.708H133v-2H25.75c-3.278,0-5.75,2.454-5.75,5.708V151z"/>
<rect x="181.896" y="40" fill="#7A7A7A" width="2" height="40"/>
<rect x="154.896" y="148" fill="#7A7A7A" width="2" height="42"/>
<g id="Group-4-Copy_71_" transform="translate(298.000000, 35.000000)">
	
		<polygon id="Rectangle-2_185_" fill="none" stroke="#A0A1A2" stroke-width="2" stroke-linecap="round" stroke-linejoin="round" points="
		-88.771,30 -90.771,28 -88.771,26 -86.771,28 	"/>
	<path id="Oval-4_185_" fill="none" stroke="#A0A1A2" stroke-width="2" stroke-linecap="round" stroke-linejoin="round" d="
		M-88.771,25c0,1.657,1.343,3,3,3"/>
	<path id="Oval-4-Copy_185_" fill="none" stroke="#A0A1A2" stroke-width="2" stroke-linecap="round" stroke-linejoin="round" d="
		M-91.771,28c1.657,0,3-1.343,3-3"/>
	<path id="Oval-4-Copy-3_185_" fill="none" stroke="#A0A1A2" stroke-width="2" stroke-linecap="round" stroke-linejoin="round" d="
		M-85.771,28c-1.657,0-3,1.343-3,3"/>
	<path id="Line-Copy-2_185_" fill="none" stroke="#A0A1A2" stroke-width="2" stroke-linecap="round" stroke-linejoin="round" d="
		M-84.104,28h-2"/>
	<path id="Line-Copy-21_135_" fill="none" stroke="#A0A1A2" stroke-width="2" stroke-linecap="round" stroke-linejoin="round" d="
		M-92.104,28h-2"/>
	<path id="Line-Copy-22_135_" fill="none" stroke="#A0A1A2" stroke-width="2" stroke-linecap="round" stroke-linejoin="round" d="
		M-89.104,25v-2"/>
	<path id="Line-Copy-28_135_" fill="none" stroke="#A0A1A2" stroke-width="2" stroke-linecap="round" stroke-linejoin="round" d="
		M-89.104,33v-2"/>
	<path id="Oval-4-Copy-2_185_" fill="none" stroke="#A0A1A2" stroke-width="2" stroke-linecap="round" stroke-linejoin="round" d="
		M-88.771,31c0-1.657-1.343-3-3-3"/>
</g>
<circle id="Oval-9-Copy_249_" fill="#A0A1A2" cx="106.562" cy="112" r="2"/>
<circle id="Oval-9-Copy_248_" fill="#A0A1A2" cx="126.896" cy="52" r="2"/>
<path id="Oval-9-Copy_247_" fill="#59B4D9" d="M231.562,162c1.105,0,2-0.895,2-2s-0.895-2-2-2s-2,0.895-2,2S230.458,162,231.562,162
	z"/>
<path id="Oval-9-Copy_246_" fill="#59B4D9" d="M200.896,181.429c1.105,0,2-0.895,2-2s-0.895-2-2-2s-2,0.895-2,2
	S199.791,181.429,200.896,181.429z"/>
<path id="Oval-9-Copy_233_" fill="#59B4D9" d="M239.896,73c-1.105,0-2,0.895-2,2s0.895,2,2,2s2-0.895,2-2S241,73,239.896,73z"/>
<path id="Oval-9-Copy_226_" fill="#59B4D9" d="M158.562,67c1.105,0,2-0.895,2-2s-0.895-2-2-2s-2,0.895-2,2S157.458,67,158.562,67z"
	/>
<path id="Oval-9-Copy_224_" fill="#59B4D9" d="M138.562,172c1.105,0,2-0.895,2-2s-0.895-2-2-2s-2,0.895-2,2S137.458,172,138.562,172
	z"/>
<path id="Oval-9-Copy_223_" fill="#59B4D9" d="M87.562,137c1.105,0,2-0.895,2-2s-0.895-2-2-2s-2,0.895-2,2S86.458,137,87.562,137z"
	/>
<g id="Group-2_26_" transform="translate(459.000000, 139.000000)">
	<polygon id="Rectangle-2_184_" fill="#FFFFFF" stroke="#59B4D9" stroke-miterlimit="10" points="-357.438,-76.571 -352.866,-72 
		-357.438,-67.429 -362.009,-72 	"/>
	<path id="Oval-4_184_" fill="none" stroke="#59B4D9" stroke-width="2" stroke-linecap="round" stroke-linejoin="round" d="
		M-357.438-65.143c0-3.787-3.07-6.857-6.857-6.857"/>
	<path id="Oval-4-Copy_184_" fill="none" stroke="#59B4D9" stroke-width="2" stroke-linecap="round" stroke-linejoin="round" d="
		M-350.581-72c-3.787,0-6.857,3.07-6.857,6.857"/>
	<path id="Oval-4-Copy-3_184_" fill="none" stroke="#59B4D9" stroke-width="2" stroke-linecap="round" stroke-linejoin="round" d="
		M-364.295-72c3.787,0,6.857-3.07,6.857-6.857"/>
	<path id="Oval-4-Copy-2_184_" fill="none" stroke="#59B4D9" stroke-width="2" stroke-linecap="round" stroke-linejoin="round" d="
		M-357.438-78.857c0,3.787,3.07,6.857,6.857,6.857l0,0"/>
	<path id="Line_50_" fill="none" stroke="#59B4D9" stroke-width="2" stroke-linecap="round" stroke-linejoin="round" d="
		M-350.104-72h1"/>
	<path id="Line-Copy-2_184_" fill="none" stroke="#59B4D9" stroke-width="2" stroke-linecap="round" stroke-linejoin="round" d="
		M-365.104-72h1"/>
	<path id="Line-Copy-10_50_" fill="none" stroke="#59B4D9" stroke-width="2" stroke-linecap="round" stroke-linejoin="round" d="
		M-357.104-65v1"/>
	<path id="Line-Copy-3_50_" fill="none" stroke="#59B4D9" stroke-width="2" stroke-linecap="round" stroke-linejoin="round" d="
		M-357.104-79v-1"/>
</g>
<g id="Group-3_19_" transform="translate(161.000000, 45.000000)">
	
		<polygon id="Rectangle-2_183_" fill="none" stroke="#A0A1A2" stroke-width="2" stroke-linecap="round" stroke-linejoin="round" points="
		-55.438,103 -51.438,107 -55.438,111 -59.438,107 	"/>
	<path id="Oval-4_183_" fill="none" stroke="#A0A1A2" stroke-width="2" stroke-linecap="round" stroke-linejoin="round" d="
		M-55.438,113c0-3.314-2.686-6-6-6"/>
	<path id="Oval-4-Copy_183_" fill="none" stroke="#A0A1A2" stroke-width="2" stroke-linecap="round" stroke-linejoin="round" d="
		M-49.438,107c-3.314,0-6,2.686-6,6"/>
	<path id="Oval-4-Copy-3_183_" fill="none" stroke="#A0A1A2" stroke-width="2" stroke-linecap="round" stroke-linejoin="round" d="
		M-61.438,107c3.314,0,6-2.686,6-6"/>
	<path id="Oval-4-Copy-2_183_" fill="none" stroke="#A0A1A2" stroke-width="2" stroke-linecap="round" stroke-linejoin="round" d="
		M-55.438,101c0,3.314,2.686,6,6,6l0,0"/>
	<path id="Line_49_" fill="none" stroke="#A0A1A2" stroke-width="2" stroke-linecap="round" stroke-linejoin="round" d="
		M-49.104,107h3"/>
	<path id="Line-Copy-2_183_" fill="none" stroke="#A0A1A2" stroke-width="2" stroke-linecap="round" stroke-linejoin="round" d="
		M-64.104,107h3"/>
	<path id="Line-Copy-10_49_" fill="none" stroke="#A0A1A2" stroke-width="2" stroke-linecap="round" stroke-linejoin="round" d="
		M-55.104,113v3"/>
	<path id="Line-Copy-3_49_" fill="none" stroke="#A0A1A2" stroke-width="2" stroke-linecap="round" stroke-linejoin="round" d="
		M-55.104,101v-3"/>
</g>
<g id="Group-4-Copy_70_" transform="translate(298.000000, 35.000000)">
	
		<polygon id="Rectangle-2_182_" fill="none" stroke="#A0A1A2" stroke-width="2" stroke-linecap="round" stroke-linejoin="round" points="
		-88.771,30 -90.771,28 -88.771,26 -86.771,28 	"/>
	<path id="Oval-4_182_" fill="none" stroke="#A0A1A2" stroke-width="2" stroke-linecap="round" stroke-linejoin="round" d="
		M-88.771,25c0,1.657,1.343,3,3,3"/>
	<path id="Oval-4-Copy_182_" fill="none" stroke="#A0A1A2" stroke-width="2" stroke-linecap="round" stroke-linejoin="round" d="
		M-91.771,28c1.657,0,3-1.343,3-3"/>
	<path id="Oval-4-Copy-3_182_" fill="none" stroke="#A0A1A2" stroke-width="2" stroke-linecap="round" stroke-linejoin="round" d="
		M-85.771,28c-1.657,0-3,1.343-3,3"/>
	<path id="Line-Copy-2_182_" fill="none" stroke="#A0A1A2" stroke-width="2" stroke-linecap="round" stroke-linejoin="round" d="
		M-84.104,28h-2"/>
	<path id="Line-Copy-21_134_" fill="none" stroke="#A0A1A2" stroke-width="2" stroke-linecap="round" stroke-linejoin="round" d="
		M-92.104,28h-2"/>
	<path id="Line-Copy-22_134_" fill="none" stroke="#A0A1A2" stroke-width="2" stroke-linecap="round" stroke-linejoin="round" d="
		M-89.104,25v-2"/>
	<path id="Line-Copy-28_134_" fill="none" stroke="#A0A1A2" stroke-width="2" stroke-linecap="round" stroke-linejoin="round" d="
		M-89.104,33v-2"/>
	<path id="Oval-4-Copy-2_182_" fill="none" stroke="#A0A1A2" stroke-width="2" stroke-linecap="round" stroke-linejoin="round" d="
		M-88.771,31c0-1.657-1.343-3-3-3"/>
</g>
<g id="Group-4-Copy_69_" transform="translate(298.000000, 35.000000)">
	
		<polygon id="Rectangle-2_123_" fill="none" stroke="#A0A1A2" stroke-width="2" stroke-linecap="round" stroke-linejoin="round" points="
		-64.771,84 -66.771,82 -64.771,80 -62.771,82 	"/>
	<path id="Oval-4_123_" fill="none" stroke="#A0A1A2" stroke-width="2" stroke-linecap="round" stroke-linejoin="round" d="
		M-64.771,79c0,1.657,1.343,3,3,3"/>
	<path id="Oval-4-Copy_123_" fill="none" stroke="#A0A1A2" stroke-width="2" stroke-linecap="round" stroke-linejoin="round" d="
		M-67.771,82c1.657,0,3-1.343,3-3"/>
	<path id="Oval-4-Copy-3_123_" fill="none" stroke="#A0A1A2" stroke-width="2" stroke-linecap="round" stroke-linejoin="round" d="
		M-61.771,82c-1.657,0-3,1.343-3,3"/>
	<path id="Line-Copy-2_123_" fill="none" stroke="#A0A1A2" stroke-width="2" stroke-linecap="round" stroke-linejoin="round" d="
		M-60.104,82h-2"/>
	<path id="Line-Copy-21_75_" fill="none" stroke="#A0A1A2" stroke-width="2" stroke-linecap="round" stroke-linejoin="round" d="
		M-68.104,82h-2"/>
	<path id="Line-Copy-22_75_" fill="none" stroke="#A0A1A2" stroke-width="2" stroke-linecap="round" stroke-linejoin="round" d="
		M-65.104,79v-2"/>
	<path id="Line-Copy-28_75_" fill="none" stroke="#A0A1A2" stroke-width="2" stroke-linecap="round" stroke-linejoin="round" d="
		M-65.104,87v-2"/>
	<path id="Oval-4-Copy-2_123_" fill="none" stroke="#A0A1A2" stroke-width="2" stroke-linecap="round" stroke-linejoin="round" d="
		M-64.771,85c0-1.657-1.343-3-3-3"/>
</g>
<g id="Group-4-Copy_67_" transform="translate(298.000000, 35.000000)">
	
		<polygon id="Rectangle-2_121_" fill="none" stroke="#A0A1A2" stroke-width="2" stroke-linecap="round" stroke-linejoin="round" points="
		-64.771,84 -66.771,82 -64.771,80 -62.771,82 	"/>
	<path id="Oval-4_121_" fill="none" stroke="#A0A1A2" stroke-width="2" stroke-linecap="round" stroke-linejoin="round" d="
		M-64.771,79c0,1.657,1.343,3,3,3"/>
	<path id="Oval-4-Copy_121_" fill="none" stroke="#A0A1A2" stroke-width="2" stroke-linecap="round" stroke-linejoin="round" d="
		M-67.771,82c1.657,0,3-1.343,3-3"/>
	<path id="Oval-4-Copy-3_121_" fill="none" stroke="#A0A1A2" stroke-width="2" stroke-linecap="round" stroke-linejoin="round" d="
		M-61.771,82c-1.657,0-3,1.343-3,3"/>
	<path id="Line-Copy-2_121_" fill="none" stroke="#A0A1A2" stroke-width="2" stroke-linecap="round" stroke-linejoin="round" d="
		M-60.104,82h-2"/>
	<path id="Line-Copy-21_73_" fill="none" stroke="#A0A1A2" stroke-width="2" stroke-linecap="round" stroke-linejoin="round" d="
		M-68.104,82h-2"/>
	<path id="Line-Copy-22_73_" fill="none" stroke="#A0A1A2" stroke-width="2" stroke-linecap="round" stroke-linejoin="round" d="
		M-65.104,79v-2"/>
	<path id="Line-Copy-28_73_" fill="none" stroke="#A0A1A2" stroke-width="2" stroke-linecap="round" stroke-linejoin="round" d="
		M-65.104,87v-2"/>
	<path id="Oval-4-Copy-2_121_" fill="none" stroke="#A0A1A2" stroke-width="2" stroke-linecap="round" stroke-linejoin="round" d="
		M-64.771,85c0-1.657-1.343-3-3-3"/>
</g>
<circle id="Oval-9-Copy_171_" fill="#A0A1A2" cx="106.562" cy="112" r="2"/>
<circle id="Oval-9-Copy_169_" fill="#A0A1A2" cx="126.896" cy="52" r="2"/>
<path id="Oval-9-Copy_162_" fill="#59B4D9" d="M231.562,162c1.105,0,2-0.895,2-2s-0.895-2-2-2s-2,0.895-2,2S230.458,162,231.562,162
	z"/>
<path id="Oval-9-Copy_160_" fill="#A0A1A2" d="M200.896,181.429c1.105,0,2-0.895,2-2s-0.895-2-2-2s-2,0.895-2,2
	S199.791,181.429,200.896,181.429z"/>
<path id="Oval-9-Copy_159_" fill="#59B4D9" d="M239.896,73c-1.105,0-2,0.895-2,2s0.895,2,2,2s2-0.895,2-2S241,73,239.896,73z"/>
<path id="Oval-9-Copy_158_" fill="#59B4D9" d="M158.562,67c1.105,0,2-0.895,2-2s-0.895-2-2-2s-2,0.895-2,2S157.458,67,158.562,67z"
	/>
<path id="Oval-9-Copy_156_" fill="#59B4D9" d="M138.562,172c1.105,0,2-0.895,2-2s-0.895-2-2-2s-2,0.895-2,2S137.458,172,138.562,172
	z"/>
<path id="Oval-9-Copy_149_" fill="#59B4D9" d="M87.562,137c1.105,0,2-0.895,2-2s-0.895-2-2-2s-2,0.895-2,2S86.458,137,87.562,137z"
	/>
<g id="Group-2_24_" transform="translate(459.000000, 139.000000)">
	<polygon id="Rectangle-2_119_" fill="#FFFFFF" stroke="#59B4D9" stroke-miterlimit="10" points="-357.438,-76.571 -352.866,-72 
		-357.438,-67.429 -362.009,-72 	"/>
	<path id="Oval-4_119_" fill="none" stroke="#59B4D9" stroke-width="2" stroke-linecap="round" stroke-linejoin="round" d="
		M-357.438-65.143c0-3.787-3.07-6.857-6.857-6.857"/>
	<path id="Oval-4-Copy_119_" fill="none" stroke="#59B4D9" stroke-width="2" stroke-linecap="round" stroke-linejoin="round" d="
		M-350.581-72c-3.787,0-6.857,3.07-6.857,6.857"/>
	<path id="Oval-4-Copy-3_119_" fill="none" stroke="#59B4D9" stroke-width="2" stroke-linecap="round" stroke-linejoin="round" d="
		M-364.295-72c3.787,0,6.857-3.07,6.857-6.857"/>
	<path id="Oval-4-Copy-2_119_" fill="none" stroke="#59B4D9" stroke-width="2" stroke-linecap="round" stroke-linejoin="round" d="
		M-357.438-78.857c0,3.787,3.07,6.857,6.857,6.857l0,0"/>
	<path id="Line_47_" fill="none" stroke="#59B4D9" stroke-width="2" stroke-linecap="round" stroke-linejoin="round" d="
		M-350.104-72h1"/>
	<path id="Line-Copy-2_119_" fill="none" stroke="#59B4D9" stroke-width="2" stroke-linecap="round" stroke-linejoin="round" d="
		M-365.104-72h1"/>
	<path id="Line-Copy-10_47_" fill="none" stroke="#59B4D9" stroke-width="2" stroke-linecap="round" stroke-linejoin="round" d="
		M-357.104-65v1"/>
	<path id="Line-Copy-3_47_" fill="none" stroke="#59B4D9" stroke-width="2" stroke-linecap="round" stroke-linejoin="round" d="
		M-357.104-79v-1"/>
</g>
<g id="Group-3_18_" transform="translate(161.000000, 45.000000)">
	
		<polygon id="Rectangle-2_118_" fill="#FFFFFF" stroke="#A0A1A2" stroke-width="2" stroke-linecap="round" stroke-linejoin="round" points="
		-55.438,103 -51.438,107 -55.438,111 -59.438,107 	"/>
	<path id="Oval-4_118_" fill="none" stroke="#A0A1A2" stroke-width="2" stroke-linecap="round" stroke-linejoin="round" d="
		M-55.438,113c0-3.314-2.686-6-6-6"/>
	<path id="Oval-4-Copy_118_" fill="none" stroke="#A0A1A2" stroke-width="2" stroke-linecap="round" stroke-linejoin="round" d="
		M-49.438,107c-3.314,0-6,2.686-6,6"/>
	<path id="Oval-4-Copy-3_118_" fill="none" stroke="#A0A1A2" stroke-width="2" stroke-linecap="round" stroke-linejoin="round" d="
		M-61.438,107c3.314,0,6-2.686,6-6"/>
	<path id="Oval-4-Copy-2_118_" fill="none" stroke="#A0A1A2" stroke-width="2" stroke-linecap="round" stroke-linejoin="round" d="
		M-55.438,101c0,3.314,2.686,6,6,6l0,0"/>
	<path id="Line_44_" fill="none" stroke="#A0A1A2" stroke-width="2" stroke-linecap="round" stroke-linejoin="round" d="
		M-49.104,107h3"/>
	<path id="Line-Copy-2_118_" fill="none" stroke="#A0A1A2" stroke-width="2" stroke-linecap="round" stroke-linejoin="round" d="
		M-64.104,107h3"/>
	<path id="Line-Copy-10_44_" fill="none" stroke="#A0A1A2" stroke-width="2" stroke-linecap="round" stroke-linejoin="round" d="
		M-55.104,113v3"/>
	<path id="Line-Copy-3_44_" fill="none" stroke="#A0A1A2" stroke-width="2" stroke-linecap="round" stroke-linejoin="round" d="
		M-55.104,101v-3"/>
</g>
<path fill="#3999C6" d="M174.035,32.109c-0.337,0-0.669-0.132-0.89-0.353l-8.911-8.829l-2.145-2.144
	c-0.531-0.531-0.406-1.333-0.019-1.818l1.999-2l8.913-8.666c0.243-0.243,0.556-0.379,0.875-0.379s0.632,0.136,0.878,0.382
	c0.279,0.28,0.43,0.648,0.413,1.011c-0.016,0.326-0.168,0.625-0.43,0.844l-9.308,9.144c-0.15,0.15-0.234,0.352-0.234,0.564
	s0.084,0.413,0.236,0.565l9.487,9.487c0.506,0.507,0.506,1.332,0,1.839C174.674,31.984,174.366,32.109,174.035,32.109z"/>
<path fill="#3999C6" d="M191.254,32.109c-0.331,0-0.639-0.125-0.866-0.353c-0.506-0.507-0.506-1.332,0-1.839l9.32-9.485
	c0.154-0.154,0.238-0.354,0.238-0.567s-0.084-0.414-0.236-0.566l-9.157-9.157c-0.245-0.203-0.397-0.502-0.413-0.828
	c-0.017-0.362,0.134-0.73,0.413-1.011c0.246-0.246,0.559-0.382,0.878-0.382s0.632,0.136,0.878,0.382l8.907,8.66l1.983,1.982
	c0.405,0.507,0.53,1.309,0,1.839l-1.971,2.217l-9.088,8.759C191.923,31.978,191.591,32.109,191.254,32.109L191.254,32.109z"/>
<path fill="#3999C6" d="M188.255,19.865c0,1.567,1.32,2.722,2.723,2.722c1.402,0,2.887-1.32,2.887-2.722
	c0-1.403-1.155-2.722-2.887-2.722C189.327,17.142,188.255,18.462,188.255,19.865z"/>
<path fill="#3999C6" d="M179.922,19.865c0,1.567,1.32,2.722,2.723,2.722s2.887-1.32,2.887-2.722c0-1.403-1.32-2.722-2.887-2.722
	C181.077,17.142,179.922,18.462,179.922,19.865z"/>
<path fill="#3999C6" d="M171.59,19.865c0,1.567,1.32,2.722,2.723,2.722s2.887-1.32,2.887-2.722c0-1.403-1.32-2.722-2.887-2.722
	S171.59,18.462,171.59,19.865z"/>
<g id="Group-4-Copy_66_" transform="translate(298.000000, 35.000000)">
	<polygon id="Rectangle-2_116_" fill="#FFFFFF" stroke="#59B4D9" stroke-miterlimit="10" points="-118.438,129 -116.438,131 
		-118.438,133 -120.438,131 	"/>
	<path id="Oval-4_116_" fill="none" stroke="#59B4D9" stroke-width="2" stroke-linecap="round" stroke-linejoin="round" d="
		M-118.438,134c0-1.657-1.343-3-3-3"/>
	<path id="Oval-4-Copy_116_" fill="none" stroke="#59B4D9" stroke-width="2" stroke-linecap="round" stroke-linejoin="round" d="
		M-115.438,131c-1.657,0-3,1.343-3,3"/>
	<path id="Oval-4-Copy-3_116_" fill="none" stroke="#59B4D9" stroke-width="2" stroke-linecap="round" stroke-linejoin="round" d="
		M-121.438,131c1.657,0,3-1.343,3-3"/>
	<path id="Line-Copy-2_116_" fill="none" stroke="#59B4D9" stroke-width="2" stroke-linecap="round" stroke-linejoin="round" d="
		M-123.104,131h2"/>
	<path id="Line-Copy-21_72_" fill="none" stroke="#59B4D9" stroke-width="2" stroke-linecap="round" stroke-linejoin="round" d="
		M-115.104,131h2"/>
	<path id="Line-Copy-22_72_" fill="none" stroke="#59B4D9" stroke-width="2" stroke-linecap="round" stroke-linejoin="round" d="
		M-118.104,134v2"/>
	<path id="Line-Copy-28_72_" fill="none" stroke="#59B4D9" stroke-width="2" stroke-linecap="round" stroke-linejoin="round" d="
		M-118.104,126v2"/>
	<path id="Oval-4-Copy-2_116_" fill="none" stroke="#59B4D9" stroke-width="2" stroke-linecap="round" stroke-linejoin="round" d="
		M-118.438,128c0,1.657,1.343,3,3,3"/>
</g>
<g id="Group-4-Copy_65_" transform="translate(298.000000, 35.000000)">
	<polygon id="Rectangle-2_114_" fill="#FFFFFF" stroke="#59B4D9" stroke-miterlimit="10" points="-118.438,129 -116.438,131 
		-118.438,133 -120.438,131 	"/>
	<path id="Oval-4_114_" fill="none" stroke="#59B4D9" stroke-width="2" stroke-linecap="round" stroke-linejoin="round" d="
		M-118.438,134c0-1.657-1.343-3-3-3"/>
	<path id="Oval-4-Copy_114_" fill="none" stroke="#59B4D9" stroke-width="2" stroke-linecap="round" stroke-linejoin="round" d="
		M-115.438,131c-1.657,0-3,1.343-3,3"/>
	<path id="Oval-4-Copy-3_114_" fill="none" stroke="#59B4D9" stroke-width="2" stroke-linecap="round" stroke-linejoin="round" d="
		M-121.438,131c1.657,0,3-1.343,3-3"/>
	<path id="Line-Copy-2_114_" fill="none" stroke="#59B4D9" stroke-width="2" stroke-linecap="round" stroke-linejoin="round" d="
		M-123.104,131h2"/>
	<path id="Line-Copy-21_71_" fill="none" stroke="#59B4D9" stroke-width="2" stroke-linecap="round" stroke-linejoin="round" d="
		M-115.104,131h2"/>
	<path id="Line-Copy-22_71_" fill="none" stroke="#59B4D9" stroke-width="2" stroke-linecap="round" stroke-linejoin="round" d="
		M-118.104,134v2"/>
	<path id="Line-Copy-28_71_" fill="none" stroke="#59B4D9" stroke-width="2" stroke-linecap="round" stroke-linejoin="round" d="
		M-118.104,126v2"/>
	<path id="Oval-4-Copy-2_114_" fill="none" stroke="#59B4D9" stroke-width="2" stroke-linecap="round" stroke-linejoin="round" d="
		M-118.438,128c0,1.657,1.343,3,3,3"/>
</g>
<rect x="232.103" y="116" transform="matrix(0.7071 -0.7071 0.7071 0.7071 -14.4573 199.097)" fill="#E5E5E5" width="2" height="2"/>
<rect x="208.103" y="62" transform="matrix(0.7071 -0.7071 0.7071 0.7071 16.697 166.3102)" fill="#E5E5E5" width="2" height="2"/>
<rect x="178.648" y="165" transform="matrix(0.7071 -0.7071 0.7071 0.7071 -64.762 175.6506)" fill="#E5E5E5" width="2" height="2"/>
<path fill="#FFFFFF" d="M206.396,150.293l0.7,0.305c2.047,0.891,3.124,1.968,3.239,2.088l1.115,1.225l-0.472,0.325
	c-1.02,0.701-2.354,1.25-3.967,1.63l-0.615,0.146V150.293z"/>
<path opacity="0.2" fill="#0072C6" d="M206.396,150.293l0.7,0.305c2.047,0.891,3.124,1.968,3.239,2.088l1.115,1.225l-0.472,0.325
	c-1.02,0.701-2.354,1.25-3.967,1.63l-0.615,0.146V150.293z"/>
<g>
	<polygon fill="#59B4D9" points="77,23.1 73.4,19.5 71.9,18 71.75,18 47,18 47,54 78.5,54 78.5,24.75 78.5,24.6 	"/>
	<polygon opacity="0.8" fill="#FFFFFF" enable-background="new    " points="71.75,19.5 48.5,19.5 48.5,52.5 77,52.5 77,24.75 
		71.75,24.75 	"/>
</g>
<g opacity="0.8">
	<path fill="#3999C6" d="M55.25,33.314v8.372c0,0.089,0.048,0.172,0.125,0.217l7.25,4.186c0.077,0.045,0.173,0.045,0.25,0
		l7.25-4.186c0.077-0.045,0.125-0.127,0.125-0.217v-8.372c0-0.089-0.048-0.172-0.125-0.217l-7.25-4.186
		c-0.077-0.045-0.173-0.045-0.25,0l-7.25,4.186C55.298,33.142,55.25,33.225,55.25,33.314z"/>
</g>
<polygon fill="#7A7A7A" points="138.878,203 141.378,203 141.378,204 137.878,204 "/>
<polygon fill="#7A7A7A" points="138.878,208 141.378,208 141.378,209 137.878,209 "/>
<polygon fill="#7A7A7A" points="138.878,213 141.378,213 141.378,214 137.878,214 "/>
<polygon fill="#7A7A7A" points="138.878,218 141.378,218 141.378,219 137.878,219 "/>
<polygon fill="#7A7A7A" points="138.878,223 141.378,223 141.378,224 137.878,224 "/>
<polygon fill="#7A7A7A" points="138.878,228 141.378,228 141.378,229 137.878,229 "/>
<path fill="#0072C6" d="M142.262,197c-0.761,0.075-2.358,1.938-2.358,2.161c0,0.004-0.007,1.461-0.014,2.839h0.488
	c0.828,0,1.499,0.672,1.499,1.5s-0.671,1.5-1.499,1.5h-0.5v1.6v0.4h0.5c0.828,0,1.499,0.672,1.499,1.5s-0.671,1.5-1.499,1.5h-0.5v1
	v1h0.5c0.828,0,1.499,0.672,1.499,1.5s-0.671,1.5-1.499,1.5h-0.5v0.4v1.6h0.5c0.828,0,1.499,0.672,1.499,1.5s-0.671,1.5-1.499,1.5
	h-0.5v2h0.5c0.828,0,1.499,0.672,1.499,1.5s-0.671,1.5-1.499,1.5h-0.5v1.4v0.6h0.5c0.828,0,1.499,0.672,1.499,1.5
	s-0.671,1.5-1.499,1.5h-0.5v0.8v1.2h1.47h1.527h23.959h0.021v-0.5l1.998-2h1.024V197H142.262z"/>
<path fill="#E5E5E5" d="M143.523,198c-0.685,0-0.914,0.075-1.523,0.596c-1.294,1.118-0.122,1.404,0.878,1.404h24v31l2-2v-31H143.523
	z"/>
<polygon opacity="0.5" fill="#A0A1A2" enable-background="new    " points="166.878,231 168.878,229 168.878,198 166.878,200 "/>
<path fill="#FFFFFF" d="M154.402,214.889c-0.039,0-0.074-0.011-0.109-0.032l-7.277-4.235c-0.069-0.04-0.11-0.114-0.11-0.194
	c0-0.078,0.041-0.152,0.11-0.191l7.23-4.208c0.069-0.038,0.153-0.038,0.219,0l7.278,4.238c0.066,0.039,0.109,0.112,0.109,0.191
	c0,0.081-0.044,0.154-0.109,0.193l-7.231,4.207C154.477,214.877,154.441,214.889,154.402,214.889"/>
<path opacity="0.7" fill="#FFFFFF" d="M153.356,225.184c-0.04,0-0.078-0.009-0.112-0.029l-7.254-4.222
	c-0.07-0.039-0.112-0.112-0.112-0.193v-8.473c0-0.079,0.042-0.152,0.112-0.194c0.066-0.038,0.151-0.038,0.222,0l7.253,4.222
	c0.067,0.041,0.108,0.114,0.108,0.193v8.474c0,0.081-0.041,0.152-0.108,0.193C153.428,225.175,153.392,225.184,153.356,225.184"/>
<path opacity="0.5" fill="#FFFFFF" enable-background="new    " d="M155.408,225.184c-0.037,0-0.075-0.009-0.112-0.029
	c-0.067-0.04-0.109-0.111-0.109-0.193v-8.419c0-0.079,0.042-0.152,0.109-0.193l7.252-4.221c0.07-0.039,0.152-0.039,0.222,0
	c0.066,0.04,0.109,0.113,0.109,0.192v8.419c0,0.081-0.042,0.153-0.109,0.193l-7.254,4.222
	C155.485,225.175,155.446,225.184,155.408,225.184"/>
<path opacity="0.15" fill="#FFFFFF" d="M159.878,200h-19.979c-0.002,0.545-0.006,1.281-0.01,2h0.489c0.828,0,1.5,0.672,1.5,1.5
	s-0.672,1.5-1.5,1.5h-0.5v1.6v0.4h0.5c0.828,0,1.5,0.672,1.5,1.5s-0.672,1.5-1.5,1.5h-0.5v1v1h0.5c0.828,0,1.5,0.672,1.5,1.5
	s-0.672,1.5-1.5,1.5h-0.5v0.4v1.6h0.5c0.828,0,1.5,0.672,1.5,1.5s-0.672,1.5-1.5,1.5h-0.5v2h0.5c0.828,0,1.5,0.672,1.5,1.5
	s-0.672,1.5-1.5,1.5h-0.5v1.4v0.6h0.5c0.828,0,1.5,0.672,1.5,1.5s-0.672,1.5-1.5,1.5h-0.5v0.8v1.2h6L159.878,200z"/>
<path opacity="0.6" fill="#7A7A7A" d="M136.878,202c0-0.552,0.448-1,1-1h1v-1c-0.46,0-0.922,0-1,0c-1.104,0-2,0.895-2,2
	c0,1.105,0.896,2,2,2c0.738,0,1.376-0.405,1.723-1h-1.723C137.327,203,136.878,202.552,136.878,202z"/>
<path opacity="0.6" fill="#7A7A7A" d="M136.878,207c0-0.552,0.448-1,1-1h1v-1c-0.46,0-0.922,0-1,0c-1.104,0-2,0.895-2,2
	c0,1.105,0.896,2,2,2c0.738,0,1.376-0.405,1.723-1h-1.723C137.327,208,136.878,207.552,136.878,207z"/>
<path opacity="0.6" fill="#7A7A7A" d="M136.878,212c0-0.552,0.448-1,1-1h1v-1c-0.46,0-0.922,0-1,0c-1.104,0-2,0.895-2,2
	c0,1.105,0.896,2,2,2c0.738,0,1.376-0.405,1.723-1h-1.723C137.327,213,136.878,212.552,136.878,212z"/>
<path opacity="0.6" fill="#7A7A7A" d="M136.878,217c0-0.552,0.448-1,1-1h1v-1c-0.46,0-0.922,0-1,0c-1.104,0-2,0.895-2,2
	c0,1.105,0.896,2,2,2c0.738,0,1.376-0.405,1.723-1h-1.723C137.327,218,136.878,217.552,136.878,217z"/>
<path opacity="0.6" fill="#7A7A7A" d="M136.878,222c0-0.552,0.448-1,1-1h1v-1c-0.46,0-0.922,0-1,0c-1.104,0-2,0.895-2,2
	c0,1.105,0.896,2,2,2c0.738,0,1.376-0.405,1.723-1h-1.723C137.327,223,136.878,222.552,136.878,222z"/>
<path opacity="0.6" fill="#7A7A7A" d="M136.878,227c0-0.552,0.448-1,1-1h1v-1c-0.46,0-0.922,0-1,0c-1.104,0-2,0.895-2,2
	c0,1.105,0.896,2,2,2c0.738,0,1.376-0.405,1.723-1h-1.723C137.327,228,136.878,227.552,136.878,227z"/>
<g>
	<polygon fill="#59B4D9" points="77,23.1 73.4,19.5 71.9,18 71.75,18 47,18 47,54 78.5,54 78.5,24.75 78.5,24.6 	"/>
	<polygon opacity="0.8" fill="#FFFFFF" enable-background="new    " points="71.75,19.5 48.5,19.5 48.5,52.5 77,52.5 77,24.75 
		71.75,24.75 	"/>
</g>
<g opacity="0.8">
	<path fill="#3999C6" d="M55.25,33.314v8.372c0,0.089,0.048,0.172,0.125,0.217l7.25,4.186c0.077,0.045,0.173,0.045,0.25,0
		l7.25-4.186c0.077-0.045,0.125-0.127,0.125-0.217v-8.372c0-0.089-0.048-0.172-0.125-0.217l-7.25-4.186
		c-0.077-0.045-0.173-0.045-0.25,0l-7.25,4.186C55.298,33.142,55.25,33.225,55.25,33.314z"/>
</g>
<polygon fill="#7A7A7A" points="138.878,203 141.378,203 141.378,204 137.878,204 "/>
<polygon fill="#7A7A7A" points="138.878,208 141.378,208 141.378,209 137.878,209 "/>
<polygon fill="#7A7A7A" points="138.878,213 141.378,213 141.378,214 137.878,214 "/>
<polygon fill="#7A7A7A" points="138.878,218 141.378,218 141.378,219 137.878,219 "/>
<polygon fill="#7A7A7A" points="138.878,223 141.378,223 141.378,224 137.878,224 "/>
<polygon fill="#7A7A7A" points="138.878,228 141.378,228 141.378,229 137.878,229 "/>
<path fill="#3999C6" d="M142.262,197c-0.761,0.075-2.358,1.938-2.358,2.161c0,0.004-0.007,1.461-0.014,2.839h0.488
	c0.828,0,1.499,0.672,1.499,1.5s-0.671,1.5-1.499,1.5h-0.5v1.6v0.4h0.5c0.828,0,1.499,0.672,1.499,1.5s-0.671,1.5-1.499,1.5h-0.5v1
	v1h0.5c0.828,0,1.499,0.672,1.499,1.5s-0.671,1.5-1.499,1.5h-0.5v0.4v1.6h0.5c0.828,0,1.499,0.672,1.499,1.5s-0.671,1.5-1.499,1.5
	h-0.5v2h0.5c0.828,0,1.499,0.672,1.499,1.5s-0.671,1.5-1.499,1.5h-0.5v1.4v0.6h0.5c0.828,0,1.499,0.672,1.499,1.5
	s-0.671,1.5-1.499,1.5h-0.5v0.8v1.2h1.47h1.527h23.959h0.021v-0.5l1.998-2h1.024V197H142.262z"/>
<path fill="#E5E5E5" d="M143.523,198c-0.685,0-0.914,0.075-1.523,0.596c-1.294,1.118-0.122,1.404,0.878,1.404h24v31l2-2v-31H143.523
	z"/>
<polygon opacity="0.5" fill="#A0A1A2" enable-background="new    " points="166.878,231 168.878,229 168.878,198 166.878,200 "/>
<path fill="#FFFFFF" d="M154.402,214.889c-0.039,0-0.074-0.011-0.109-0.032l-7.277-4.235c-0.069-0.04-0.11-0.114-0.11-0.194
	c0-0.078,0.041-0.152,0.11-0.191l7.23-4.208c0.069-0.038,0.153-0.038,0.219,0l7.278,4.238c0.066,0.039,0.109,0.112,0.109,0.191
	c0,0.081-0.044,0.154-0.109,0.193l-7.231,4.207C154.477,214.877,154.441,214.889,154.402,214.889"/>
<path opacity="0.7" fill="#FFFFFF" d="M153.356,225.184c-0.04,0-0.078-0.009-0.112-0.029l-7.254-4.222
	c-0.07-0.039-0.112-0.112-0.112-0.193v-8.473c0-0.079,0.042-0.152,0.112-0.194c0.066-0.038,0.151-0.038,0.222,0l7.253,4.222
	c0.067,0.041,0.108,0.114,0.108,0.193v8.474c0,0.081-0.041,0.152-0.108,0.193C153.428,225.175,153.392,225.184,153.356,225.184"/>
<path opacity="0.5" fill="#FFFFFF" enable-background="new    " d="M155.408,225.184c-0.037,0-0.075-0.009-0.112-0.029
	c-0.067-0.04-0.109-0.111-0.109-0.193v-8.419c0-0.079,0.042-0.152,0.109-0.193l7.252-4.221c0.07-0.039,0.152-0.039,0.222,0
	c0.066,0.04,0.109,0.113,0.109,0.192v8.419c0,0.081-0.042,0.153-0.109,0.193l-7.254,4.222
	C155.485,225.175,155.446,225.184,155.408,225.184"/>
<path opacity="0.15" fill="#FFFFFF" d="M159.878,200h-19.979c-0.002,0.545-0.006,1.281-0.01,2h0.489c0.828,0,1.5,0.672,1.5,1.5
	s-0.672,1.5-1.5,1.5h-0.5v1.6v0.4h0.5c0.828,0,1.5,0.672,1.5,1.5s-0.672,1.5-1.5,1.5h-0.5v1v1h0.5c0.828,0,1.5,0.672,1.5,1.5
	s-0.672,1.5-1.5,1.5h-0.5v0.4v1.6h0.5c0.828,0,1.5,0.672,1.5,1.5s-0.672,1.5-1.5,1.5h-0.5v2h0.5c0.828,0,1.5,0.672,1.5,1.5
	s-0.672,1.5-1.5,1.5h-0.5v1.4v0.6h0.5c0.828,0,1.5,0.672,1.5,1.5s-0.672,1.5-1.5,1.5h-0.5v0.8v1.2h6L159.878,200z"/>
<path opacity="0.6" fill="#7A7A7A" d="M136.878,202c0-0.552,0.448-1,1-1h1v-1c-0.46,0-0.922,0-1,0c-1.104,0-2,0.895-2,2
	c0,1.105,0.896,2,2,2c0.738,0,1.376-0.405,1.723-1h-1.723C137.327,203,136.878,202.552,136.878,202z"/>
<path opacity="0.6" fill="#7A7A7A" d="M136.878,207c0-0.552,0.448-1,1-1h1v-1c-0.46,0-0.922,0-1,0c-1.104,0-2,0.895-2,2
	c0,1.105,0.896,2,2,2c0.738,0,1.376-0.405,1.723-1h-1.723C137.327,208,136.878,207.552,136.878,207z"/>
<path opacity="0.6" fill="#7A7A7A" d="M136.878,212c0-0.552,0.448-1,1-1h1v-1c-0.46,0-0.922,0-1,0c-1.104,0-2,0.895-2,2
	c0,1.105,0.896,2,2,2c0.738,0,1.376-0.405,1.723-1h-1.723C137.327,213,136.878,212.552,136.878,212z"/>
<path opacity="0.6" fill="#7A7A7A" d="M136.878,217c0-0.552,0.448-1,1-1h1v-1c-0.46,0-0.922,0-1,0c-1.104,0-2,0.895-2,2
	c0,1.105,0.896,2,2,2c0.738,0,1.376-0.405,1.723-1h-1.723C137.327,218,136.878,217.552,136.878,217z"/>
<path opacity="0.6" fill="#7A7A7A" d="M136.878,222c0-0.552,0.448-1,1-1h1v-1c-0.46,0-0.922,0-1,0c-1.104,0-2,0.895-2,2
	c0,1.105,0.896,2,2,2c0.738,0,1.376-0.405,1.723-1h-1.723C137.327,223,136.878,222.552,136.878,222z"/>
<path opacity="0.6" fill="#7A7A7A" d="M136.878,227c0-0.552,0.448-1,1-1h1v-1c-0.46,0-0.922,0-1,0c-1.104,0-2,0.895-2,2
	c0,1.105,0.896,2,2,2c0.738,0,1.376-0.405,1.723-1h-1.723C137.327,228,136.878,227.552,136.878,227z"/>
<g>
	<path fill="#59B4D9" d="M20.653,159.938l14.153,8.171v16.343l-14.153,8.171L6.5,184.452v-16.343L20.653,159.938 M20.653,157.175
		c-0.138,0-0.276,0.036-0.4,0.107L4.4,166.435c-0.248,0.143-0.4,0.407-0.4,0.693v18.306c0,0.286,0.152,0.55,0.4,0.693l15.853,9.153
		c0.124,0.071,0.262,0.107,0.4,0.107s0.276-0.036,0.4-0.107l15.853-9.153c0.248-0.143,0.4-0.407,0.4-0.693v-18.306
		c0-0.286-0.152-0.55-0.4-0.693l-15.853-9.153C20.93,157.21,20.791,157.175,20.653,157.175L20.653,157.175z"/>
</g>
<g>
	<g>
		<path fill="#3999C6" d="M27.958,173.789c1.173-1.172,1.173-3.075,0-4.248l-5.181-5.181c-1.173-1.173-3.075-1.173-4.248,0
			l-5.181,5.181c-1.173,1.173-1.173,3.076,0,4.248l4.558,4.558v8.786l2.747,2.747l2.386-2.386v-0.017l1.4-1.401l-1.388-1.388
			l1.388-1.388l-1.388-1.388l1.388-1.388l-1.4-1.401v-0.414L27.958,173.789z M20.653,165.613c0.941,0,1.705,0.763,1.705,1.705
			c0,0.942-0.763,1.705-1.705,1.705s-1.705-0.763-1.705-1.705S19.712,165.613,20.653,165.613z"/>
	</g>
	<polygon opacity="0.4" fill="#FFFFFF" enable-background="new    " points="19.189,186.692 20.261,187.748 20.261,179.324 
		19.189,178.796 	"/>
	<rect x="15.567" y="170.67" opacity="0.4" fill="#FFFFFF" enable-background="new    " width="9.842" height="1.414"/>
	<rect x="15.567" y="172.972" opacity="0.4" fill="#FFFFFF" enable-background="new    " width="9.842" height="1.414"/>
</g>
<g>
	<polygon fill="#59B4D9" points="290.875,178.043 287.275,174.443 285.775,172.943 285.625,172.943 260.875,172.943 
		260.875,208.943 292.375,208.943 292.375,179.693 292.375,179.543 	"/>
	<polygon opacity="0.8" fill="#FFFFFF" enable-background="new    " points="285.625,174.443 262.375,174.443 262.375,207.443 
		290.875,207.443 290.875,179.693 285.625,179.693 	"/>
</g>
<g>
	<polygon fill="#59B4D9" points="290.875,178.043 287.275,174.443 285.775,172.943 285.625,172.943 260.875,172.943 
		260.875,208.943 292.375,208.943 292.375,179.693 292.375,179.543 	"/>
	<polygon opacity="0.8" fill="#FFFFFF" enable-background="new    " points="285.625,174.443 262.375,174.443 262.375,207.443 
		290.875,207.443 290.875,179.693 285.625,179.693 	"/>
</g>
<text transform="matrix(1 0 0 1 264.1741 195.4836)" fill="#59B4D9" font-family="'SegoeUI-Bold'" font-size="11px">ARM</text>
<g>
	<path fill="#3999C6" d="M332.814,38.516c0,4.229-3.428,7.657-7.658,7.657c-4.229,0-7.657-3.428-7.657-7.657
		s3.427-7.657,7.657-7.657S332.814,34.287,332.814,38.516"/>
	<polygon fill="#3999C6" points="330.756,48.798 325.157,56.642 319.558,48.798 313.732,48.798 313.732,68.141 336.582,68.141 
		336.582,48.798 	"/>
	<path fill="#3999C6" d="M309.802,51.368c0,2.376-1.926,4.3-4.302,4.3s-4.302-1.924-4.302-4.3s1.926-4.301,4.302-4.301
		S309.802,48.992,309.802,51.368"/>
	<polygon fill="#3999C6" points="308.645,57.275 305.5,61.682 302.355,57.275 299.082,57.275 299.082,68.141 311.918,68.141 
		311.918,57.275 	"/>
	<path opacity="0.2" fill="#FFFFFF" enable-background="new    " d="M317.5,38.516c0,4.166,3.328,7.547,7.469,7.648l1.923-15.099
		c-0.558-0.131-1.137-0.205-1.736-0.205C320.928,30.859,317.5,34.287,317.5,38.516"/>
	<polygon opacity="0.2" fill="#FFFFFF" enable-background="new    " points="319.56,48.798 313.731,48.798 313.731,68.141 
		322.206,68.141 323.896,54.876 	"/>
	<path opacity="0.2" fill="#FFFFFF" enable-background="new    " d="M301.199,51.368c0,2.375,1.925,4.3,4.301,4.3
		c0.15,0,0.29-0.028,0.436-0.043l1.055-8.278c-0.467-0.173-0.965-0.281-1.492-0.281C303.124,47.067,301.199,48.993,301.199,51.368"
		/>
	<polygon opacity="0.2" fill="#FFFFFF" enable-background="new    " points="302.355,57.275 299.082,57.275 299.082,68.141 
		304.379,68.141 305.247,61.328 	"/>
</g>
<path fill="#FFFFFF" d="M205.396,146.517h-72c-7.009,0-10-2.99-10-10v-60c0-5.359,4.666-7.801,9-7.801s9,2.441,9,7.801v2h56.2
	c13.142,0,17.8,3.716,17.8,14.199v55.801c0,5.889-6.586,7.443-10,7.854V146.517z"/>
<path fill="#7A7A7A" d="M204,148.017h-70.5c-7.846,0-11.5-3.654-11.5-11.5v-60c0-5.39,4.416-9.301,10.5-9.301s10.5,3.911,10.5,9.301
	v0.5h54.7c13.889,0,19.3,4.401,19.3,15.699v55.801c0,8.337-10.555,9.358-13,9.483V148.017z M133.5,130.017
	c-5.58,0-8.5,3.773-8.5,7.5c0,6.723,4.851,7.5,8.5,7.5h68.2c7.492,0,11.391,4.193,11.43,4.235l0.87,0.957V90.716
	c0-9.59-8.161-10.699-14.3-10.699H143v55.239C141.597,133.492,138.23,130.017,133.5,130.017z"/>
<g>
	<g>
		<polygon fill="#3999C6" points="191.396,126.419 194.396,134.419 197.396,126.419 		"/>
		<rect x="191.396" y="98.421" fill="#3999C6" width="6" height="25.048"/>
	</g>
	<path fill="#3999C6" d="M194.396,88.62c1.657,0,3,1.295,3,2.891l-0.053,3.957l-5.947-0.052l0.001-3.905
		C191.396,89.915,192.739,88.62,194.396,88.62z"/>
	<path fill="#3999C6" d="M167.396,86.62c1.104,0,2,1.295,2,2.891l-0.036,2.909l-3.964-0.052l0-2.857
		C165.396,87.915,166.291,86.62,167.396,86.62z"/>
</g>
<path fill="#3999C6" d="M167.396,90.621c-4.308,0-7.8,3.492-7.8,7.8c0,4.308,3.492,7.8,7.8,7.8s7.8-3.492,7.8-7.8
	C175.196,94.113,171.703,90.621,167.396,90.621z M167.396,104.221c-3.198,0-5.8-2.602-5.8-5.8s2.602-5.8,5.8-5.8s5.8,2.602,5.8,5.8
	S170.594,104.221,167.396,104.221z"/>
<polygon fill="#3999C6" points="167.396,104.248 167.396,100.421 163.661,103.035 155.627,127.762 155.627,127.762 155.057,135.987 
	159.43,128.998 159.431,128.998 167.465,104.271 "/>
<polygon fill="#3999C6" points="179.164,127.762 179.164,127.762 171.13,103.035 167.396,100.421 167.396,104.248 167.326,104.271 
	175.36,128.998 175.361,128.998 179.734,135.987 "/>
<path fill="#3999C6" d="M181.896,118.421h-29c-0.276,0-0.5-0.224-0.5-0.5v-1c0-0.276,0.224-0.5,0.5-0.5h29
	c0.276,0,0.5,0.224,0.5,0.5v1C182.396,118.197,182.172,118.421,181.896,118.421z"/>
<path opacity="0.8" fill="#FFFFFF" d="M207,149.031l0.7,0.305c2.047,0.891,3.124,1.968,3.239,2.088l1.115,1.225l-0.472,0.325
	c-1.02,0.701-2.354,1.25-3.967,1.63L207,154.749V149.031z M125,76.638c0-4.329,3.888-6.301,7.5-6.301s7.5,1.972,7.5,6.301v52.245
	l-0.722-0.356c-1.864-0.922-3.809-1.389-5.778-1.389c-2.99,0-5.646,0.879-7.684,2.542L125,130.346V76.638z"/>
</svg>
