<!-- Generator: Adobe Illustrator 22.1.0, SVG Export Plug-In  -->
<svg version="1.1"
	 xmlns="http://www.w3.org/2000/svg" xmlns:xlink="http://www.w3.org/1999/xlink" xmlns:a="http://ns.adobe.com/AdobeSVGViewerExtensions/3.0/"
	 x="0px" y="0px" width="234px" height="140px" viewBox="0 0 234 140" style="enable-background:new 0 0 234 140;"
	 xml:space="preserve">
<defs>
</defs>
<rect style="fill:#FFFFFF;" width="234" height="140"/>
<g>
	<circle style="fill:#3999C6;" cx="75.7" cy="70.7" r="59.3"/>
	<circle style="opacity:0.9;fill:#FFFFFF;stroke:#FFFFFF;stroke-miterlimit:10;" cx="75.7" cy="70.7" r="59.3"/>
</g>
<g>
	<g>
		<title>ManagementGroups</title>
		<path style="fill:#7FBA00;" d="M99.7,62.2L99,64.3L76.6,35.5l-1.4,1.1l-1.4-1.1L51.5,64.3l-0.7-2.1l-12.1,38.4l3.3,1.1l8.8-27.9
			l8.8,27.9l3.3-1.1L52.8,68.3l22.5-28.9l22.5,28.9l-10.2,32.3l3.3,1.1l8.8-27.9l8.8,27.9l3.3-1.1L99.7,62.2z"/>
		<circle style="fill:#3999C6;" cx="110.2" cy="101.1" r="7"/>
		<circle style="fill:#3999C6;" cx="89.2" cy="101.1" r="7"/>
		<circle style="fill:#68217A;" cx="75.3" cy="36.5" r="12.2"/>
		<circle style="fill:#0072C6;" cx="50.8" cy="67.9" r="10.5"/>
		<circle style="fill:#0072C6;" cx="99.7" cy="67.9" r="10.5"/>
		<circle style="fill:#3999C6;" cx="61.3" cy="101.1" r="7"/>
		<circle style="fill:#3999C6;" cx="40.4" cy="101.1" r="7"/>
	</g>
</g>
<g>
	<g>
		<path style="fill:#59B4D9;" d="M160.3,23.5c0.7-0.7,0.7-1.8,0-2.4l-3-3c-0.7-0.7-1.8-0.7-2.4,0l-3,3c-0.7,0.7-0.7,1.8,0,2.4
			l2.6,2.6v5.1l1.6,1.6l1.4-1.4v0l0.8-0.8l-0.8-0.8l0.8-0.8l-0.8-0.8l0.8-0.8l-0.8-0.8v-0.2L160.3,23.5z M156.1,18.8
			c0.5,0,1,0.4,1,1c0,0.5-0.4,1-1,1s-1-0.4-1-1C155.1,19.2,155.6,18.8,156.1,18.8z"/>
		<polygon style="fill:#3999C6;" points="155.3,30.9 155.9,31.5 155.9,26.7 155.3,26.4 		"/>
		<rect x="153.2" y="21.7" style="opacity:0.5;fill:#FFFFFF;enable-background:new    ;" width="5.7" height="0.8"/>
		<rect x="153.2" y="23" style="opacity:0.5;fill:#FFFFFF;enable-background:new    ;" width="5.7" height="0.8"/>
	</g>
	<g>
		<path style="fill:#3999C6;" d="M167.3,10.9C167.3,10.9,167.3,10.9,167.3,10.9L165,9.6c0,0,0,0,0-0.1c0,0,0,0,0-0.1l2.2-1.3
			c0,0,0,0,0.1,0l2.2,1.3c0,0,0,0,0,0.1c0,0,0,0,0,0.1L167.3,10.9C167.3,10.9,167.3,10.9,167.3,10.9"/>
		<path style="fill:#59B4D9;" d="M167,14C167,14,166.9,14,167,14l-2.3-1.3c0,0,0,0,0-0.1v-2.6c0,0,0,0,0-0.1c0,0,0,0,0.1,0l2.2,1.3
			c0,0,0,0,0,0.1L167,14C167,14,167,14,167,14C167,14,167,14,167,14"/>
		<path style="fill:#59B4D9;" d="M167.6,14C167.6,14,167.6,14,167.6,14C167.5,14,167.5,14,167.6,14l-0.1-2.6c0,0,0,0,0-0.1l2.2-1.3
			c0,0,0,0,0.1,0c0,0,0,0,0,0.1v2.6c0,0,0,0,0,0.1L167.6,14C167.6,14,167.6,14,167.6,14"/>
		<path style="opacity:0.5;fill:#FFFFFF;enable-background:new    ;" d="M167.6,14C167.6,14,167.6,14,167.6,14
			C167.5,14,167.5,14,167.6,14l-0.1-2.6c0,0,0,0,0-0.1l2.2-1.3c0,0,0,0,0.1,0c0,0,0,0,0,0.1v2.6c0,0,0,0,0,0.1L167.6,14
			C167.6,14,167.6,14,167.6,14"/>
		<path style="fill:#3999C6;" d="M164.9,14.3c0,0-0.1,0-0.1,0l-1-0.6c-0.2-0.1-0.3-0.3-0.3-0.5V9.3c0-0.2,0.1-0.4,0.3-0.5l1-0.6
			c0.1-0.1,0.2,0,0.3,0.1c0.1,0.1,0,0.2-0.1,0.3l-1,0.6c0,0-0.1,0.1-0.1,0.1v3.8c0,0,0,0.1,0.1,0.1l1,0.6c0.1,0.1,0.1,0.2,0.1,0.3
			C165.1,14.3,165,14.3,164.9,14.3z"/>
		<path style="fill:#3999C6;" d="M169.6,8.2c0,0,0.1,0,0.1,0l1,0.6c0.2,0.1,0.3,0.3,0.3,0.5v3.8c0,0.2-0.1,0.4-0.3,0.5l-1,0.6
			c-0.1,0.1-0.2,0-0.3-0.1c-0.1-0.1,0-0.2,0.1-0.3l1-0.6c0,0,0.1-0.1,0.1-0.1V9.3c0,0,0-0.1-0.1-0.1l-1-0.6
			c-0.1-0.1-0.1-0.2-0.1-0.3C169.5,8.2,169.5,8.2,169.6,8.2z"/>
	</g>
	<g>
		<path style="fill:#3999C6;" d="M177.4,6.6C177.4,6.6,177.4,6.6,177.4,6.6l-1.5-0.8c0,0,0,0,0,0c0,0,0,0,0,0l1.5-0.8c0,0,0,0,0,0
			l1.5,0.8c0,0,0,0,0,0c0,0,0,0,0,0L177.4,6.6C177.4,6.6,177.4,6.6,177.4,6.6"/>
		<path style="fill:#59B4D9;" d="M177.2,8.7C177.2,8.7,177.2,8.7,177.2,8.7l-1.5-0.8c0,0,0,0,0,0V6.1c0,0,0,0,0,0c0,0,0,0,0,0
			l1.5,0.8c0,0,0,0,0,0L177.2,8.7C177.2,8.7,177.2,8.7,177.2,8.7C177.2,8.7,177.2,8.7,177.2,8.7"/>
		<path style="fill:#59B4D9;" d="M177.6,8.7C177.6,8.7,177.6,8.7,177.6,8.7C177.6,8.7,177.6,8.7,177.6,8.7l0-1.7c0,0,0,0,0,0
			l1.5-0.8c0,0,0,0,0,0c0,0,0,0,0,0v1.7c0,0,0,0,0,0L177.6,8.7C177.6,8.7,177.6,8.7,177.6,8.7"/>
		<path style="opacity:0.5;fill:#FFFFFF;enable-background:new    ;" d="M177.6,8.7C177.6,8.7,177.6,8.7,177.6,8.7
			C177.6,8.7,177.6,8.7,177.6,8.7l0-1.7c0,0,0,0,0,0l1.5-0.8c0,0,0,0,0,0c0,0,0,0,0,0v1.7c0,0,0,0,0,0L177.6,8.7
			C177.6,8.7,177.6,8.7,177.6,8.7"/>
	</g>
	<g>
		<path style="fill:#3999C6;" d="M180.6,11.3C180.6,11.3,180.6,11.3,180.6,11.3l-1.5-0.8c0,0,0,0,0,0c0,0,0,0,0,0l1.5-0.8
			c0,0,0,0,0,0l1.5,0.8c0,0,0,0,0,0c0,0,0,0,0,0L180.6,11.3C180.6,11.3,180.6,11.3,180.6,11.3"/>
		<path style="fill:#59B4D9;" d="M180.4,13.3C180.4,13.3,180.3,13.3,180.4,13.3l-1.5-0.8c0,0,0,0,0,0v-1.7c0,0,0,0,0,0c0,0,0,0,0,0
			l1.5,0.8c0,0,0,0,0,0L180.4,13.3C180.4,13.3,180.4,13.3,180.4,13.3C180.4,13.3,180.4,13.3,180.4,13.3"/>
		<path style="fill:#59B4D9;" d="M180.8,13.3C180.8,13.3,180.8,13.3,180.8,13.3C180.7,13.3,180.7,13.3,180.8,13.3l0-1.7c0,0,0,0,0,0
			l1.5-0.8c0,0,0,0,0,0c0,0,0,0,0,0v1.7c0,0,0,0,0,0L180.8,13.3C180.8,13.3,180.8,13.3,180.8,13.3"/>
		<path style="opacity:0.5;fill:#FFFFFF;enable-background:new    ;" d="M180.8,13.3C180.8,13.3,180.8,13.3,180.8,13.3
			C180.7,13.3,180.7,13.3,180.8,13.3l0-1.7c0,0,0,0,0,0l1.5-0.8c0,0,0,0,0,0c0,0,0,0,0,0v1.7c0,0,0,0,0,0L180.8,13.3
			C180.8,13.3,180.8,13.3,180.8,13.3"/>
	</g>
	<g>
		<path style="fill:#3999C6;" d="M183.7,16C183.7,16,183.7,16,183.7,16l-1.5-0.8c0,0,0,0,0,0c0,0,0,0,0,0l1.5-0.8c0,0,0,0,0,0
			l1.5,0.8c0,0,0,0,0,0c0,0,0,0,0,0L183.7,16C183.7,16,183.7,16,183.7,16"/>
		<path style="fill:#59B4D9;" d="M183.5,18C183.5,18,183.5,18,183.5,18l-1.5-0.8c0,0,0,0,0,0v-1.7c0,0,0,0,0,0c0,0,0,0,0,0l1.5,0.8
			c0,0,0,0,0,0L183.5,18C183.6,18,183.6,18,183.5,18C183.5,18,183.5,18,183.5,18"/>
		<path style="fill:#59B4D9;" d="M183.9,18C183.9,18,183.9,18,183.9,18C183.9,18,183.9,18,183.9,18l0-1.7c0,0,0,0,0,0l1.5-0.8
			c0,0,0,0,0,0c0,0,0,0,0,0v1.7c0,0,0,0,0,0L183.9,18C183.9,18,183.9,18,183.9,18"/>
		<path style="opacity:0.5;fill:#FFFFFF;enable-background:new    ;" d="M183.9,18C183.9,18,183.9,18,183.9,18
			C183.9,18,183.9,18,183.9,18l0-1.7c0,0,0,0,0,0l1.5-0.8c0,0,0,0,0,0c0,0,0,0,0,0v1.7c0,0,0,0,0,0L183.9,18
			C183.9,18,183.9,18,183.9,18"/>
	</g>
	<g>
		<path style="fill:#3999C6;" d="M173.6,25.1C173.6,25.1,173.6,25.1,173.6,25.1l-2.3-1.3c0,0,0,0,0-0.1c0,0,0,0,0-0.1l2.2-1.3
			c0,0,0,0,0.1,0l2.2,1.3c0,0,0,0,0,0.1c0,0,0,0,0,0.1L173.6,25.1C173.6,25.1,173.6,25.1,173.6,25.1"/>
		<path style="fill:#59B4D9;" d="M173.3,28.2C173.3,28.2,173.3,28.2,173.3,28.2l-2.3-1.3c0,0,0,0,0-0.1v-2.6c0,0,0,0,0-0.1
			c0,0,0,0,0.1,0l2.2,1.3c0,0,0,0,0,0.1L173.3,28.2C173.4,28.2,173.3,28.2,173.3,28.2C173.3,28.2,173.3,28.2,173.3,28.2"/>
		<path style="fill:#59B4D9;" d="M173.9,28.2C173.9,28.2,173.9,28.2,173.9,28.2C173.9,28.2,173.9,28.2,173.9,28.2l-0.1-2.6
			c0,0,0,0,0-0.1l2.2-1.3c0,0,0,0,0.1,0c0,0,0,0,0,0.1v2.6c0,0,0,0,0,0.1L173.9,28.2C173.9,28.2,173.9,28.2,173.9,28.2"/>
		<path style="opacity:0.5;fill:#FFFFFF;enable-background:new    ;" d="M173.9,28.2C173.9,28.2,173.9,28.2,173.9,28.2
			C173.9,28.2,173.9,28.2,173.9,28.2l-0.1-2.6c0,0,0,0,0-0.1l2.2-1.3c0,0,0,0,0.1,0c0,0,0,0,0,0.1v2.6c0,0,0,0,0,0.1L173.9,28.2
			C173.9,28.2,173.9,28.2,173.9,28.2"/>
		<path style="fill:#3999C6;" d="M171.3,28.5c0,0-0.1,0-0.1,0l-1-0.6c-0.2-0.1-0.3-0.3-0.3-0.5v-3.8c0-0.2,0.1-0.4,0.3-0.5l1-0.6
			c0.1-0.1,0.2,0,0.3,0.1c0.1,0.1,0,0.2-0.1,0.3l-1,0.6c0,0-0.1,0.1-0.1,0.1v3.8c0,0,0,0.1,0.1,0.1l1,0.6c0.1,0.1,0.1,0.2,0.1,0.3
			C171.4,28.5,171.3,28.5,171.3,28.5z"/>
		<path style="fill:#3999C6;" d="M176,22.4c0,0,0.1,0,0.1,0l1,0.6c0.2,0.1,0.3,0.3,0.3,0.5v3.8c0,0.2-0.1,0.4-0.3,0.5l-1,0.6
			c-0.1,0.1-0.2,0-0.3-0.1c-0.1-0.1,0-0.2,0.1-0.3l1-0.6c0,0,0.1-0.1,0.1-0.1v-3.8c0,0,0-0.1-0.1-0.1l-1-0.6
			c-0.1-0.1-0.1-0.2-0.1-0.3C175.8,22.4,175.9,22.4,176,22.4z"/>
	</g>
	<g>
		<path style="fill:#3999C6;" d="M186.9,20.6C186.9,20.6,186.9,20.6,186.9,20.6l-1.5-0.8c0,0,0,0,0,0c0,0,0,0,0,0l1.5-0.8
			c0,0,0,0,0,0l1.5,0.8c0,0,0,0,0,0c0,0,0,0,0,0L186.9,20.6C186.9,20.6,186.9,20.6,186.9,20.6"/>
		<path style="fill:#59B4D9;" d="M186.7,22.7C186.7,22.7,186.7,22.7,186.7,22.7l-1.5-0.8c0,0,0,0,0,0v-1.7c0,0,0,0,0,0c0,0,0,0,0,0
			l1.5,0.8c0,0,0,0,0,0L186.7,22.7C186.7,22.6,186.7,22.7,186.7,22.7C186.7,22.7,186.7,22.7,186.7,22.7"/>
		<path style="fill:#59B4D9;" d="M187.1,22.7C187.1,22.7,187.1,22.7,187.1,22.7C187.1,22.7,187.1,22.6,187.1,22.7l0-1.7c0,0,0,0,0,0
			l1.5-0.8c0,0,0,0,0,0c0,0,0,0,0,0v1.7c0,0,0,0,0,0L187.1,22.7C187.1,22.7,187.1,22.7,187.1,22.7"/>
		<path style="opacity:0.5;fill:#FFFFFF;enable-background:new    ;" d="M187.1,22.7C187.1,22.7,187.1,22.7,187.1,22.7
			C187.1,22.7,187.1,22.6,187.1,22.7l0-1.7c0,0,0,0,0,0l1.5-0.8c0,0,0,0,0,0c0,0,0,0,0,0v1.7c0,0,0,0,0,0L187.1,22.7
			C187.1,22.7,187.1,22.7,187.1,22.7"/>
	</g>
	<g>
		<path style="fill:#3999C6;" d="M190.1,25.3C190,25.3,190,25.3,190.1,25.3l-1.5-0.8c0,0,0,0,0,0c0,0,0,0,0,0l1.5-0.8c0,0,0,0,0,0
			l1.5,0.8c0,0,0,0,0,0c0,0,0,0,0,0L190.1,25.3C190.1,25.3,190.1,25.3,190.1,25.3"/>
		<path style="fill:#59B4D9;" d="M189.8,27.3C189.8,27.3,189.8,27.3,189.8,27.3l-1.5-0.8c0,0,0,0,0,0v-1.7c0,0,0,0,0,0c0,0,0,0,0,0
			l1.5,0.8c0,0,0,0,0,0L189.8,27.3C189.9,27.3,189.9,27.3,189.8,27.3C189.9,27.3,189.9,27.3,189.8,27.3"/>
		<path style="fill:#59B4D9;" d="M190.3,27.3C190.3,27.3,190.2,27.3,190.3,27.3C190.2,27.3,190.2,27.3,190.3,27.3l0-1.7c0,0,0,0,0,0
			l1.5-0.8c0,0,0,0,0,0c0,0,0,0,0,0v1.7c0,0,0,0,0,0L190.3,27.3C190.3,27.3,190.3,27.3,190.3,27.3"/>
		<path style="opacity:0.5;fill:#FFFFFF;enable-background:new    ;" d="M190.3,27.3C190.3,27.3,190.2,27.3,190.3,27.3
			C190.2,27.3,190.2,27.3,190.3,27.3l0-1.7c0,0,0,0,0,0l1.5-0.8c0,0,0,0,0,0c0,0,0,0,0,0v1.7c0,0,0,0,0,0L190.3,27.3
			C190.3,27.3,190.3,27.3,190.3,27.3"/>
	</g>
	<g>
		<path style="fill:#3999C6;" d="M186.9,30C186.9,30,186.9,30,186.9,30l-1.5-0.8c0,0,0,0,0,0c0,0,0,0,0,0l1.5-0.8c0,0,0,0,0,0
			l1.5,0.8c0,0,0,0,0,0c0,0,0,0,0,0L186.9,30C186.9,30,186.9,30,186.9,30"/>
		<path style="fill:#59B4D9;" d="M186.7,32C186.7,32,186.7,32,186.7,32l-1.5-0.8c0,0,0,0,0,0v-1.7c0,0,0,0,0,0c0,0,0,0,0,0l1.5,0.8
			c0,0,0,0,0,0L186.7,32C186.7,32,186.7,32,186.7,32C186.7,32,186.7,32,186.7,32"/>
		<path style="fill:#59B4D9;" d="M187.1,32C187.1,32,187.1,32,187.1,32C187.1,32,187.1,32,187.1,32l0-1.7c0,0,0,0,0,0l1.5-0.8
			c0,0,0,0,0,0c0,0,0,0,0,0v1.7c0,0,0,0,0,0L187.1,32C187.1,32,187.1,32,187.1,32"/>
		<path style="opacity:0.5;fill:#FFFFFF;enable-background:new    ;" d="M187.1,32C187.1,32,187.1,32,187.1,32
			C187.1,32,187.1,32,187.1,32l0-1.7c0,0,0,0,0,0l1.5-0.8c0,0,0,0,0,0c0,0,0,0,0,0v1.7c0,0,0,0,0,0L187.1,32
			C187.1,32,187.1,32,187.1,32"/>
	</g>
	<g>
		<path style="fill:#3999C6;" d="M167.3,39.3C167.3,39.3,167.3,39.3,167.3,39.3L165,38c0,0,0,0,0-0.1c0,0,0,0,0-0.1l2.2-1.3
			c0,0,0,0,0.1,0l2.2,1.3c0,0,0,0,0,0.1c0,0,0,0,0,0.1L167.3,39.3C167.3,39.3,167.3,39.3,167.3,39.3"/>
		<path style="fill:#59B4D9;" d="M167,42.5C167,42.5,166.9,42.5,167,42.5l-2.3-1.3c0,0,0,0,0-0.1v-2.6c0,0,0,0,0-0.1c0,0,0,0,0.1,0
			l2.2,1.3c0,0,0,0,0,0.1L167,42.5C167,42.4,167,42.5,167,42.5C167,42.5,167,42.5,167,42.5"/>
		<path style="fill:#59B4D9;" d="M167.6,42.5C167.6,42.5,167.6,42.5,167.6,42.5C167.5,42.5,167.5,42.4,167.6,42.5l-0.1-2.6
			c0,0,0,0,0-0.1l2.2-1.3c0,0,0,0,0.1,0c0,0,0,0,0,0.1v2.6c0,0,0,0,0,0.1L167.6,42.5C167.6,42.5,167.6,42.5,167.6,42.5"/>
		<path style="opacity:0.5;fill:#FFFFFF;enable-background:new    ;" d="M167.6,42.5C167.6,42.5,167.6,42.5,167.6,42.5
			C167.5,42.5,167.5,42.4,167.6,42.5l-0.1-2.6c0,0,0,0,0-0.1l2.2-1.3c0,0,0,0,0.1,0c0,0,0,0,0,0.1v2.6c0,0,0,0,0,0.1L167.6,42.5
			C167.6,42.5,167.6,42.5,167.6,42.5"/>
		<path style="fill:#3999C6;" d="M164.9,42.8c0,0-0.1,0-0.1,0l-1-0.6c-0.2-0.1-0.3-0.3-0.3-0.5v-3.8c0-0.2,0.1-0.4,0.3-0.5l1-0.6
			c0.1-0.1,0.2,0,0.3,0.1c0.1,0.1,0,0.2-0.1,0.3l-1,0.6c0,0-0.1,0.1-0.1,0.1v3.8c0,0,0,0.1,0.1,0.1l1,0.6c0.1,0.1,0.1,0.2,0.1,0.3
			C165.1,42.7,165,42.8,164.9,42.8z"/>
		<path style="fill:#3999C6;" d="M169.6,36.6c0,0,0.1,0,0.1,0l1,0.6c0.2,0.1,0.3,0.3,0.3,0.5v3.8c0,0.2-0.1,0.4-0.3,0.5l-1,0.6
			c-0.1,0.1-0.2,0-0.3-0.1c-0.1-0.1,0-0.2,0.1-0.3l1-0.6c0,0,0.1-0.1,0.1-0.1v-3.8c0,0,0-0.1-0.1-0.1l-1-0.6
			c-0.1-0.1-0.1-0.2-0.1-0.3C169.5,36.7,169.5,36.6,169.6,36.6z"/>
	</g>
	<g>
		<path style="fill:#3999C6;" d="M183.7,34.6C183.7,34.6,183.7,34.6,183.7,34.6l-1.5-0.8c0,0,0,0,0,0c0,0,0,0,0,0l1.5-0.8
			c0,0,0,0,0,0l1.5,0.8c0,0,0,0,0,0c0,0,0,0,0,0L183.7,34.6C183.7,34.6,183.7,34.6,183.7,34.6"/>
		<path style="fill:#59B4D9;" d="M183.5,36.7C183.5,36.7,183.5,36.7,183.5,36.7l-1.5-0.8c0,0,0,0,0,0v-1.7c0,0,0,0,0,0c0,0,0,0,0,0
			l1.5,0.8c0,0,0,0,0,0L183.5,36.7C183.6,36.6,183.6,36.7,183.5,36.7C183.5,36.7,183.5,36.7,183.5,36.7"/>
		<path style="fill:#59B4D9;" d="M183.9,36.7C183.9,36.7,183.9,36.7,183.9,36.7C183.9,36.7,183.9,36.6,183.9,36.7l0-1.7c0,0,0,0,0,0
			l1.5-0.8c0,0,0,0,0,0c0,0,0,0,0,0v1.7c0,0,0,0,0,0L183.9,36.7C183.9,36.7,183.9,36.7,183.9,36.7"/>
		<path style="opacity:0.5;fill:#FFFFFF;enable-background:new    ;" d="M183.9,36.7C183.9,36.7,183.9,36.7,183.9,36.7
			C183.9,36.7,183.9,36.6,183.9,36.7l0-1.7c0,0,0,0,0,0l1.5-0.8c0,0,0,0,0,0c0,0,0,0,0,0v1.7c0,0,0,0,0,0L183.9,36.7
			C183.9,36.7,183.9,36.7,183.9,36.7"/>
	</g>
	<g>
		<path style="fill:#3999C6;" d="M180.6,39.3C180.6,39.3,180.6,39.3,180.6,39.3l-1.5-0.8c0,0,0,0,0,0c0,0,0,0,0,0l1.5-0.8
			c0,0,0,0,0,0l1.5,0.8c0,0,0,0,0,0c0,0,0,0,0,0L180.6,39.3C180.6,39.3,180.6,39.3,180.6,39.3"/>
		<path style="fill:#59B4D9;" d="M180.4,41.3C180.4,41.3,180.3,41.3,180.4,41.3l-1.5-0.8c0,0,0,0,0,0v-1.7c0,0,0,0,0,0c0,0,0,0,0,0
			l1.5,0.8c0,0,0,0,0,0L180.4,41.3C180.4,41.3,180.4,41.3,180.4,41.3C180.4,41.3,180.4,41.3,180.4,41.3"/>
		<path style="fill:#59B4D9;" d="M180.8,41.3C180.8,41.3,180.8,41.3,180.8,41.3C180.7,41.3,180.7,41.3,180.8,41.3l0-1.7c0,0,0,0,0,0
			l1.5-0.8c0,0,0,0,0,0c0,0,0,0,0,0v1.7c0,0,0,0,0,0L180.8,41.3C180.8,41.3,180.8,41.3,180.8,41.3"/>
		<path style="opacity:0.5;fill:#FFFFFF;enable-background:new    ;" d="M180.8,41.3C180.8,41.3,180.8,41.3,180.8,41.3
			C180.7,41.3,180.7,41.3,180.8,41.3l0-1.7c0,0,0,0,0,0l1.5-0.8c0,0,0,0,0,0c0,0,0,0,0,0v1.7c0,0,0,0,0,0L180.8,41.3
			C180.8,41.3,180.8,41.3,180.8,41.3"/>
	</g>
	<g>
		<path style="fill:#3999C6;" d="M177.4,44C177.4,44,177.4,44,177.4,44l-1.5-0.8c0,0,0,0,0,0c0,0,0,0,0,0l1.5-0.8c0,0,0,0,0,0
			l1.5,0.8c0,0,0,0,0,0c0,0,0,0,0,0L177.4,44C177.4,44,177.4,44,177.4,44"/>
		<path style="fill:#59B4D9;" d="M177.2,46C177.2,46,177.2,46,177.2,46l-1.5-0.8c0,0,0,0,0,0v-1.7c0,0,0,0,0,0c0,0,0,0,0,0l1.5,0.8
			c0,0,0,0,0,0L177.2,46C177.2,46,177.2,46,177.2,46C177.2,46,177.2,46,177.2,46"/>
		<path style="fill:#59B4D9;" d="M177.6,46C177.6,46,177.6,46,177.6,46C177.6,46,177.6,46,177.6,46l0-1.7c0,0,0,0,0,0l1.5-0.8
			c0,0,0,0,0,0c0,0,0,0,0,0v1.7c0,0,0,0,0,0L177.6,46C177.6,46,177.6,46,177.6,46"/>
		<path style="opacity:0.5;fill:#FFFFFF;enable-background:new    ;" d="M177.6,46C177.6,46,177.6,46,177.6,46
			C177.6,46,177.6,46,177.6,46l0-1.7c0,0,0,0,0,0l1.5-0.8c0,0,0,0,0,0c0,0,0,0,0,0v1.7c0,0,0,0,0,0L177.6,46
			C177.6,46,177.6,46,177.6,46"/>
	</g>
</g>
<g>
	<g>
		<path style="fill:#59B4D9;" d="M180.3,68c0.7-0.7,0.7-1.8,0-2.4l-3-3c-0.7-0.7-1.8-0.7-2.4,0l-3,3c-0.7,0.7-0.7,1.8,0,2.4l2.6,2.6
			v5.1l1.6,1.6l1.4-1.4v0l0.8-0.8l-0.8-0.8l0.8-0.8l-0.8-0.8l0.8-0.8l-0.8-0.8v-0.2L180.3,68z M176.1,63.3c0.5,0,1,0.4,1,1
			c0,0.5-0.4,1-1,1s-1-0.4-1-1C175.1,63.7,175.6,63.3,176.1,63.3z"/>
		<polygon style="fill:#3999C6;" points="175.3,75.4 175.9,76 175.9,71.2 175.3,70.9 		"/>
		<rect x="173.2" y="66.2" style="opacity:0.5;fill:#FFFFFF;enable-background:new    ;" width="5.7" height="0.8"/>
		<rect x="173.2" y="67.5" style="opacity:0.5;fill:#FFFFFF;enable-background:new    ;" width="5.7" height="0.8"/>
	</g>
	<g>
		<path style="fill:#3999C6;" d="M187.3,55.4C187.3,55.4,187.3,55.4,187.3,55.4l-2.3-1.3c0,0,0,0,0-0.1c0,0,0,0,0-0.1l2.2-1.3
			c0,0,0,0,0.1,0l2.2,1.3c0,0,0,0,0,0.1c0,0,0,0,0,0.1L187.3,55.4C187.3,55.4,187.3,55.4,187.3,55.4"/>
		<path style="fill:#59B4D9;" d="M187,58.5C187,58.5,186.9,58.5,187,58.5l-2.3-1.3c0,0,0,0,0-0.1v-2.6c0,0,0,0,0-0.1c0,0,0,0,0.1,0
			l2.2,1.3c0,0,0,0,0,0.1L187,58.5C187,58.5,187,58.5,187,58.5C187,58.5,187,58.5,187,58.5"/>
		<path style="fill:#59B4D9;" d="M187.6,58.5C187.6,58.5,187.6,58.5,187.6,58.5C187.5,58.5,187.5,58.5,187.6,58.5l-0.1-2.6
			c0,0,0,0,0-0.1l2.2-1.3c0,0,0,0,0.1,0c0,0,0,0,0,0.1v2.6c0,0,0,0,0,0.1L187.6,58.5C187.6,58.5,187.6,58.5,187.6,58.5"/>
		<path style="opacity:0.5;fill:#FFFFFF;enable-background:new    ;" d="M187.6,58.5C187.6,58.5,187.6,58.5,187.6,58.5
			C187.5,58.5,187.5,58.5,187.6,58.5l-0.1-2.6c0,0,0,0,0-0.1l2.2-1.3c0,0,0,0,0.1,0c0,0,0,0,0,0.1v2.6c0,0,0,0,0,0.1L187.6,58.5
			C187.6,58.5,187.6,58.5,187.6,58.5"/>
		<path style="fill:#3999C6;" d="M184.9,58.8c0,0-0.1,0-0.1,0l-1-0.6c-0.2-0.1-0.3-0.3-0.3-0.5v-3.8c0-0.2,0.1-0.4,0.3-0.5l1-0.6
			c0.1-0.1,0.2,0,0.3,0.1c0.1,0.1,0,0.2-0.1,0.3l-1,0.6c0,0-0.1,0.1-0.1,0.1v3.8c0,0,0,0.1,0.1,0.1l1,0.6c0.1,0.1,0.1,0.2,0.1,0.3
			C185.1,58.8,185,58.8,184.9,58.8z"/>
		<path style="fill:#3999C6;" d="M189.6,52.7c0,0,0.1,0,0.1,0l1,0.6c0.2,0.1,0.3,0.3,0.3,0.5v3.8c0,0.2-0.1,0.4-0.3,0.5l-1,0.6
			c-0.1,0.1-0.2,0-0.3-0.1c-0.1-0.1,0-0.2,0.1-0.3l1-0.6c0,0,0.1-0.1,0.1-0.1v-3.8c0,0,0-0.1-0.1-0.1l-1-0.6
			c-0.1-0.1-0.1-0.2-0.1-0.3C189.5,52.7,189.5,52.7,189.6,52.7z"/>
	</g>
	<g>
		<path style="fill:#3999C6;" d="M197.4,51.1C197.4,51.1,197.4,51.1,197.4,51.1l-1.5-0.8c0,0,0,0,0,0c0,0,0,0,0,0l1.5-0.8
			c0,0,0,0,0,0l1.5,0.8c0,0,0,0,0,0c0,0,0,0,0,0L197.4,51.1C197.4,51.1,197.4,51.1,197.4,51.1"/>
		<path style="fill:#59B4D9;" d="M197.2,53.2C197.2,53.2,197.2,53.2,197.2,53.2l-1.5-0.8c0,0,0,0,0,0v-1.7c0,0,0,0,0,0c0,0,0,0,0,0
			l1.5,0.8c0,0,0,0,0,0L197.2,53.2C197.2,53.2,197.2,53.2,197.2,53.2C197.2,53.2,197.2,53.2,197.2,53.2"/>
		<path style="fill:#59B4D9;" d="M197.6,53.2C197.6,53.2,197.6,53.2,197.6,53.2C197.6,53.2,197.6,53.2,197.6,53.2l0-1.7c0,0,0,0,0,0
			l1.5-0.8c0,0,0,0,0,0c0,0,0,0,0,0v1.7c0,0,0,0,0,0L197.6,53.2C197.6,53.2,197.6,53.2,197.6,53.2"/>
		<path style="opacity:0.5;fill:#FFFFFF;enable-background:new    ;" d="M197.6,53.2C197.6,53.2,197.6,53.2,197.6,53.2
			C197.6,53.2,197.6,53.2,197.6,53.2l0-1.7c0,0,0,0,0,0l1.5-0.8c0,0,0,0,0,0c0,0,0,0,0,0v1.7c0,0,0,0,0,0L197.6,53.2
			C197.6,53.2,197.6,53.2,197.6,53.2"/>
	</g>
	<g>
		<path style="fill:#3999C6;" d="M200.6,55.8C200.6,55.8,200.6,55.8,200.6,55.8l-1.5-0.8c0,0,0,0,0,0c0,0,0,0,0,0l1.5-0.8
			c0,0,0,0,0,0l1.5,0.8c0,0,0,0,0,0c0,0,0,0,0,0L200.6,55.8C200.6,55.8,200.6,55.8,200.6,55.8"/>
		<path style="fill:#59B4D9;" d="M200.4,57.8C200.4,57.8,200.3,57.8,200.4,57.8l-1.5-0.8c0,0,0,0,0,0v-1.7c0,0,0,0,0,0c0,0,0,0,0,0
			l1.5,0.8c0,0,0,0,0,0L200.4,57.8C200.4,57.8,200.4,57.8,200.4,57.8C200.4,57.8,200.4,57.8,200.4,57.8"/>
		<path style="fill:#59B4D9;" d="M200.8,57.8C200.8,57.8,200.8,57.8,200.8,57.8C200.7,57.8,200.7,57.8,200.8,57.8l0-1.7c0,0,0,0,0,0
			l1.5-0.8c0,0,0,0,0,0c0,0,0,0,0,0V57c0,0,0,0,0,0L200.8,57.8C200.8,57.8,200.8,57.8,200.8,57.8"/>
		<path style="opacity:0.5;fill:#FFFFFF;enable-background:new    ;" d="M200.8,57.8C200.8,57.8,200.8,57.8,200.8,57.8
			C200.7,57.8,200.7,57.8,200.8,57.8l0-1.7c0,0,0,0,0,0l1.5-0.8c0,0,0,0,0,0c0,0,0,0,0,0V57c0,0,0,0,0,0L200.8,57.8
			C200.8,57.8,200.8,57.8,200.8,57.8"/>
	</g>
	<g>
		<path style="fill:#3999C6;" d="M203.7,60.5C203.7,60.5,203.7,60.5,203.7,60.5l-1.5-0.8c0,0,0,0,0,0c0,0,0,0,0,0l1.5-0.8
			c0,0,0,0,0,0l1.5,0.8c0,0,0,0,0,0c0,0,0,0,0,0L203.7,60.5C203.7,60.5,203.7,60.5,203.7,60.5"/>
		<path style="fill:#59B4D9;" d="M203.5,62.5C203.5,62.5,203.5,62.5,203.5,62.5l-1.5-0.8c0,0,0,0,0,0V60c0,0,0,0,0,0c0,0,0,0,0,0
			l1.5,0.8c0,0,0,0,0,0L203.5,62.5C203.6,62.5,203.6,62.5,203.5,62.5C203.5,62.5,203.5,62.5,203.5,62.5"/>
		<path style="fill:#59B4D9;" d="M203.9,62.5C203.9,62.5,203.9,62.5,203.9,62.5C203.9,62.5,203.9,62.5,203.9,62.5l0-1.7c0,0,0,0,0,0
			l1.5-0.8c0,0,0,0,0,0c0,0,0,0,0,0v1.7c0,0,0,0,0,0L203.9,62.5C203.9,62.5,203.9,62.5,203.9,62.5"/>
		<path style="opacity:0.5;fill:#FFFFFF;enable-background:new    ;" d="M203.9,62.5C203.9,62.5,203.9,62.5,203.9,62.5
			C203.9,62.5,203.9,62.5,203.9,62.5l0-1.7c0,0,0,0,0,0l1.5-0.8c0,0,0,0,0,0c0,0,0,0,0,0v1.7c0,0,0,0,0,0L203.9,62.5
			C203.9,62.5,203.9,62.5,203.9,62.5"/>
	</g>
	<g>
		<path style="fill:#3999C6;" d="M193.6,69.6C193.6,69.6,193.6,69.6,193.6,69.6l-2.3-1.3c0,0,0,0,0-0.1c0,0,0,0,0-0.1l2.2-1.3
			c0,0,0,0,0.1,0l2.2,1.3c0,0,0,0,0,0.1c0,0,0,0,0,0.1L193.6,69.6C193.6,69.6,193.6,69.6,193.6,69.6"/>
		<path style="fill:#59B4D9;" d="M193.3,72.7C193.3,72.7,193.3,72.7,193.3,72.7l-2.3-1.3c0,0,0,0,0-0.1v-2.6c0,0,0,0,0-0.1
			c0,0,0,0,0.1,0l2.2,1.3c0,0,0,0,0,0.1L193.3,72.7C193.4,72.7,193.3,72.7,193.3,72.7C193.3,72.7,193.3,72.7,193.3,72.7"/>
		<path style="fill:#59B4D9;" d="M193.9,72.7C193.9,72.7,193.9,72.7,193.9,72.7C193.9,72.7,193.9,72.7,193.9,72.7l-0.1-2.6
			c0,0,0,0,0-0.1l2.2-1.3c0,0,0,0,0.1,0c0,0,0,0,0,0.1v2.6c0,0,0,0,0,0.1L193.9,72.7C193.9,72.7,193.9,72.7,193.9,72.7"/>
		<path style="opacity:0.5;fill:#FFFFFF;enable-background:new    ;" d="M193.9,72.7C193.9,72.7,193.9,72.7,193.9,72.7
			C193.9,72.7,193.9,72.7,193.9,72.7l-0.1-2.6c0,0,0,0,0-0.1l2.2-1.3c0,0,0,0,0.1,0c0,0,0,0,0,0.1v2.6c0,0,0,0,0,0.1L193.9,72.7
			C193.9,72.7,193.9,72.7,193.9,72.7"/>
		<path style="fill:#3999C6;" d="M191.3,73c0,0-0.1,0-0.1,0l-1-0.6c-0.2-0.1-0.3-0.3-0.3-0.5v-3.8c0-0.2,0.1-0.4,0.3-0.5l1-0.6
			c0.1-0.1,0.2,0,0.3,0.1c0.1,0.1,0,0.2-0.1,0.3l-1,0.6c0,0-0.1,0.1-0.1,0.1v3.8c0,0,0,0.1,0.1,0.1l1,0.6c0.1,0.1,0.1,0.2,0.1,0.3
			C191.4,73,191.3,73,191.3,73z"/>
		<path style="fill:#3999C6;" d="M196,66.9c0,0,0.1,0,0.1,0l1,0.6c0.2,0.1,0.3,0.3,0.3,0.5v3.8c0,0.2-0.1,0.4-0.3,0.5l-1,0.6
			c-0.1,0.1-0.2,0-0.3-0.1c-0.1-0.1,0-0.2,0.1-0.3l1-0.6c0,0,0.1-0.1,0.1-0.1v-3.8c0,0,0-0.1-0.1-0.1l-1-0.6
			c-0.1-0.1-0.1-0.2-0.1-0.3C195.8,66.9,195.9,66.9,196,66.9z"/>
	</g>
	<g>
		<path style="fill:#3999C6;" d="M206.9,65.1C206.9,65.1,206.9,65.1,206.9,65.1l-1.5-0.8c0,0,0,0,0,0c0,0,0,0,0,0l1.5-0.8
			c0,0,0,0,0,0l1.5,0.8c0,0,0,0,0,0c0,0,0,0,0,0L206.9,65.1C206.9,65.1,206.9,65.1,206.9,65.1"/>
		<path style="fill:#59B4D9;" d="M206.7,67.2C206.7,67.2,206.7,67.2,206.7,67.2l-1.5-0.8c0,0,0,0,0,0v-1.7c0,0,0,0,0,0c0,0,0,0,0,0
			l1.5,0.8c0,0,0,0,0,0L206.7,67.2C206.7,67.1,206.7,67.2,206.7,67.2C206.7,67.2,206.7,67.2,206.7,67.2"/>
		<path style="fill:#59B4D9;" d="M207.1,67.2C207.1,67.2,207.1,67.2,207.1,67.2C207.1,67.2,207.1,67.1,207.1,67.2l0-1.7c0,0,0,0,0,0
			l1.5-0.8c0,0,0,0,0,0c0,0,0,0,0,0v1.7c0,0,0,0,0,0L207.1,67.2C207.1,67.2,207.1,67.2,207.1,67.2"/>
		<path style="opacity:0.5;fill:#FFFFFF;enable-background:new    ;" d="M207.1,67.2C207.1,67.2,207.1,67.2,207.1,67.2
			C207.1,67.2,207.1,67.1,207.1,67.2l0-1.7c0,0,0,0,0,0l1.5-0.8c0,0,0,0,0,0c0,0,0,0,0,0v1.7c0,0,0,0,0,0L207.1,67.2
			C207.1,67.2,207.1,67.2,207.1,67.2"/>
	</g>
	<g>
		<path style="fill:#3999C6;" d="M210.1,69.8C210,69.8,210,69.8,210.1,69.8l-1.5-0.8c0,0,0,0,0,0c0,0,0,0,0,0l1.5-0.8c0,0,0,0,0,0
			l1.5,0.8c0,0,0,0,0,0c0,0,0,0,0,0L210.1,69.8C210.1,69.8,210.1,69.8,210.1,69.8"/>
		<path style="fill:#59B4D9;" d="M209.8,71.8C209.8,71.8,209.8,71.8,209.8,71.8l-1.5-0.8c0,0,0,0,0,0v-1.7c0,0,0,0,0,0c0,0,0,0,0,0
			l1.5,0.8c0,0,0,0,0,0L209.8,71.8C209.9,71.8,209.9,71.8,209.8,71.8C209.9,71.8,209.9,71.8,209.8,71.8"/>
		<path style="fill:#59B4D9;" d="M210.3,71.8C210.3,71.8,210.2,71.8,210.3,71.8C210.2,71.8,210.2,71.8,210.3,71.8l0-1.7c0,0,0,0,0,0
			l1.5-0.8c0,0,0,0,0,0c0,0,0,0,0,0V71c0,0,0,0,0,0L210.3,71.8C210.3,71.8,210.3,71.8,210.3,71.8"/>
		<path style="opacity:0.5;fill:#FFFFFF;enable-background:new    ;" d="M210.3,71.8C210.3,71.8,210.2,71.8,210.3,71.8
			C210.2,71.8,210.2,71.8,210.3,71.8l0-1.7c0,0,0,0,0,0l1.5-0.8c0,0,0,0,0,0c0,0,0,0,0,0V71c0,0,0,0,0,0L210.3,71.8
			C210.3,71.8,210.3,71.8,210.3,71.8"/>
	</g>
	<g>
		<path style="fill:#3999C6;" d="M206.9,74.5C206.9,74.5,206.9,74.5,206.9,74.5l-1.5-0.8c0,0,0,0,0,0c0,0,0,0,0,0l1.5-0.8
			c0,0,0,0,0,0l1.5,0.8c0,0,0,0,0,0c0,0,0,0,0,0L206.9,74.5C206.9,74.5,206.9,74.5,206.9,74.5"/>
		<path style="fill:#59B4D9;" d="M206.7,76.5C206.7,76.5,206.7,76.5,206.7,76.5l-1.5-0.8c0,0,0,0,0,0V74c0,0,0,0,0,0c0,0,0,0,0,0
			l1.5,0.8c0,0,0,0,0,0L206.7,76.5C206.7,76.5,206.7,76.5,206.7,76.5C206.7,76.5,206.7,76.5,206.7,76.5"/>
		<path style="fill:#59B4D9;" d="M207.1,76.5C207.1,76.5,207.1,76.5,207.1,76.5C207.1,76.5,207.1,76.5,207.1,76.5l0-1.7c0,0,0,0,0,0
			l1.5-0.8c0,0,0,0,0,0c0,0,0,0,0,0v1.7c0,0,0,0,0,0L207.1,76.5C207.1,76.5,207.1,76.5,207.1,76.5"/>
		<path style="opacity:0.5;fill:#FFFFFF;enable-background:new    ;" d="M207.1,76.5C207.1,76.5,207.1,76.5,207.1,76.5
			C207.1,76.5,207.1,76.5,207.1,76.5l0-1.7c0,0,0,0,0,0l1.5-0.8c0,0,0,0,0,0c0,0,0,0,0,0v1.7c0,0,0,0,0,0L207.1,76.5
			C207.1,76.5,207.1,76.5,207.1,76.5"/>
	</g>
	<g>
		<path style="fill:#3999C6;" d="M187.3,83.8C187.3,83.8,187.3,83.8,187.3,83.8l-2.3-1.3c0,0,0,0,0-0.1c0,0,0,0,0-0.1l2.2-1.3
			c0,0,0,0,0.1,0l2.2,1.3c0,0,0,0,0,0.1c0,0,0,0,0,0.1L187.3,83.8C187.3,83.8,187.3,83.8,187.3,83.8"/>
		<path style="fill:#59B4D9;" d="M187,87C187,87,186.9,87,187,87l-2.3-1.3c0,0,0,0,0-0.1V83c0,0,0,0,0-0.1c0,0,0,0,0.1,0l2.2,1.3
			c0,0,0,0,0,0.1L187,87C187,86.9,187,87,187,87C187,87,187,87,187,87"/>
		<path style="fill:#59B4D9;" d="M187.6,87C187.6,87,187.6,87,187.6,87C187.5,87,187.5,86.9,187.6,87l-0.1-2.6c0,0,0,0,0-0.1
			l2.2-1.3c0,0,0,0,0.1,0c0,0,0,0,0,0.1v2.6c0,0,0,0,0,0.1L187.6,87C187.6,87,187.6,87,187.6,87"/>
		<path style="opacity:0.5;fill:#FFFFFF;enable-background:new    ;" d="M187.6,87C187.6,87,187.6,87,187.6,87
			C187.5,87,187.5,86.9,187.6,87l-0.1-2.6c0,0,0,0,0-0.1l2.2-1.3c0,0,0,0,0.1,0c0,0,0,0,0,0.1v2.6c0,0,0,0,0,0.1L187.6,87
			C187.6,87,187.6,87,187.6,87"/>
		<path style="fill:#3999C6;" d="M184.9,87.3c0,0-0.1,0-0.1,0l-1-0.6c-0.2-0.1-0.3-0.3-0.3-0.5v-3.8c0-0.2,0.1-0.4,0.3-0.5l1-0.6
			c0.1-0.1,0.2,0,0.3,0.1c0.1,0.1,0,0.2-0.1,0.3l-1,0.6c0,0-0.1,0.1-0.1,0.1v3.8c0,0,0,0.1,0.1,0.1l1,0.6c0.1,0.1,0.1,0.2,0.1,0.3
			C185.1,87.2,185,87.3,184.9,87.3z"/>
		<path style="fill:#3999C6;" d="M189.6,81.1c0,0,0.1,0,0.1,0l1,0.6c0.2,0.1,0.3,0.3,0.3,0.5v3.8c0,0.2-0.1,0.4-0.3,0.5l-1,0.6
			c-0.1,0.1-0.2,0-0.3-0.1c-0.1-0.1,0-0.2,0.1-0.3l1-0.6c0,0,0.1-0.1,0.1-0.1v-3.8c0,0,0-0.1-0.1-0.1l-1-0.6
			c-0.1-0.1-0.1-0.2-0.1-0.3C189.5,81.2,189.5,81.1,189.6,81.1z"/>
	</g>
	<g>
		<path style="fill:#3999C6;" d="M203.7,79.1C203.7,79.1,203.7,79.1,203.7,79.1l-1.5-0.8c0,0,0,0,0,0c0,0,0,0,0,0l1.5-0.8
			c0,0,0,0,0,0l1.5,0.8c0,0,0,0,0,0c0,0,0,0,0,0L203.7,79.1C203.7,79.1,203.7,79.1,203.7,79.1"/>
		<path style="fill:#59B4D9;" d="M203.5,81.2C203.5,81.2,203.5,81.2,203.5,81.2l-1.5-0.8c0,0,0,0,0,0v-1.7c0,0,0,0,0,0c0,0,0,0,0,0
			l1.5,0.8c0,0,0,0,0,0L203.5,81.2C203.6,81.1,203.6,81.2,203.5,81.2C203.5,81.2,203.5,81.2,203.5,81.2"/>
		<path style="fill:#59B4D9;" d="M203.9,81.2C203.9,81.2,203.9,81.2,203.9,81.2C203.9,81.2,203.9,81.1,203.9,81.2l0-1.7c0,0,0,0,0,0
			l1.5-0.8c0,0,0,0,0,0c0,0,0,0,0,0v1.7c0,0,0,0,0,0L203.9,81.2C203.9,81.2,203.9,81.2,203.9,81.2"/>
		<path style="opacity:0.5;fill:#FFFFFF;enable-background:new    ;" d="M203.9,81.2C203.9,81.2,203.9,81.2,203.9,81.2
			C203.9,81.2,203.9,81.1,203.9,81.2l0-1.7c0,0,0,0,0,0l1.5-0.8c0,0,0,0,0,0c0,0,0,0,0,0v1.7c0,0,0,0,0,0L203.9,81.2
			C203.9,81.2,203.9,81.2,203.9,81.2"/>
	</g>
	<g>
		<path style="fill:#3999C6;" d="M200.6,83.8C200.6,83.8,200.6,83.8,200.6,83.8l-1.5-0.8c0,0,0,0,0,0c0,0,0,0,0,0l1.5-0.8
			c0,0,0,0,0,0l1.5,0.8c0,0,0,0,0,0c0,0,0,0,0,0L200.6,83.8C200.6,83.8,200.6,83.8,200.6,83.8"/>
		<path style="fill:#59B4D9;" d="M200.4,85.8C200.4,85.8,200.3,85.8,200.4,85.8l-1.5-0.8c0,0,0,0,0,0v-1.7c0,0,0,0,0,0c0,0,0,0,0,0
			l1.5,0.8c0,0,0,0,0,0L200.4,85.8C200.4,85.8,200.4,85.8,200.4,85.8C200.4,85.8,200.4,85.8,200.4,85.8"/>
		<path style="fill:#59B4D9;" d="M200.8,85.8C200.8,85.8,200.8,85.8,200.8,85.8C200.7,85.8,200.7,85.8,200.8,85.8l0-1.7c0,0,0,0,0,0
			l1.5-0.8c0,0,0,0,0,0c0,0,0,0,0,0V85c0,0,0,0,0,0L200.8,85.8C200.8,85.8,200.8,85.8,200.8,85.8"/>
		<path style="opacity:0.5;fill:#FFFFFF;enable-background:new    ;" d="M200.8,85.8C200.8,85.8,200.8,85.8,200.8,85.8
			C200.7,85.8,200.7,85.8,200.8,85.8l0-1.7c0,0,0,0,0,0l1.5-0.8c0,0,0,0,0,0c0,0,0,0,0,0V85c0,0,0,0,0,0L200.8,85.8
			C200.8,85.8,200.8,85.8,200.8,85.8"/>
	</g>
	<g>
		<path style="fill:#3999C6;" d="M197.4,88.5C197.4,88.5,197.4,88.5,197.4,88.5l-1.5-0.8c0,0,0,0,0,0c0,0,0,0,0,0l1.5-0.8
			c0,0,0,0,0,0l1.5,0.8c0,0,0,0,0,0c0,0,0,0,0,0L197.4,88.5C197.4,88.5,197.4,88.5,197.4,88.5"/>
		<path style="fill:#59B4D9;" d="M197.2,90.5C197.2,90.5,197.2,90.5,197.2,90.5l-1.5-0.8c0,0,0,0,0,0v-1.7c0,0,0,0,0,0c0,0,0,0,0,0
			l1.5,0.8c0,0,0,0,0,0L197.2,90.5C197.2,90.5,197.2,90.5,197.2,90.5C197.2,90.5,197.2,90.5,197.2,90.5"/>
		<path style="fill:#59B4D9;" d="M197.6,90.5C197.6,90.5,197.6,90.5,197.6,90.5C197.6,90.5,197.6,90.5,197.6,90.5l0-1.7c0,0,0,0,0,0
			l1.5-0.8c0,0,0,0,0,0c0,0,0,0,0,0v1.7c0,0,0,0,0,0L197.6,90.5C197.6,90.5,197.6,90.5,197.6,90.5"/>
		<path style="opacity:0.5;fill:#FFFFFF;enable-background:new    ;" d="M197.6,90.5C197.6,90.5,197.6,90.5,197.6,90.5
			C197.6,90.5,197.6,90.5,197.6,90.5l0-1.7c0,0,0,0,0,0l1.5-0.8c0,0,0,0,0,0c0,0,0,0,0,0v1.7c0,0,0,0,0,0L197.6,90.5
			C197.6,90.5,197.6,90.5,197.6,90.5"/>
	</g>
</g>
<g>
	<g>
		<path style="fill:#59B4D9;" d="M160.3,112.5c0.7-0.7,0.7-1.8,0-2.4l-3-3c-0.7-0.7-1.8-0.7-2.4,0l-3,3c-0.7,0.7-0.7,1.8,0,2.4
			l2.6,2.6v5.1l1.6,1.6l1.4-1.4v0l0.8-0.8l-0.8-0.8l0.8-0.8l-0.8-0.8l0.8-0.8l-0.8-0.8v-0.2L160.3,112.5z M156.1,107.8
			c0.5,0,1,0.4,1,1c0,0.5-0.4,1-1,1s-1-0.4-1-1S155.6,107.8,156.1,107.8z"/>
		<polygon style="fill:#3999C6;" points="155.3,119.9 155.9,120.5 155.9,115.7 155.3,115.4 		"/>
		<rect x="153.2" y="110.7" style="opacity:0.5;fill:#FFFFFF;enable-background:new    ;" width="5.7" height="0.8"/>
		<rect x="153.2" y="112" style="opacity:0.5;fill:#FFFFFF;enable-background:new    ;" width="5.7" height="0.8"/>
	</g>
	<g>
		<path style="fill:#3999C6;" d="M167.3,99.9C167.3,99.9,167.3,99.9,167.3,99.9l-2.3-1.3c0,0,0,0,0-0.1c0,0,0,0,0-0.1l2.2-1.3
			c0,0,0,0,0.1,0l2.2,1.3c0,0,0,0,0,0.1c0,0,0,0,0,0.1L167.3,99.9C167.3,99.9,167.3,99.9,167.3,99.9"/>
		<path style="fill:#59B4D9;" d="M167,103C167,103,166.9,103,167,103l-2.3-1.3c0,0,0,0,0-0.1v-2.6c0,0,0,0,0-0.1c0,0,0,0,0.1,0
			l2.2,1.3c0,0,0,0,0,0.1L167,103C167,103,167,103,167,103C167,103,167,103,167,103"/>
		<path style="fill:#59B4D9;" d="M167.6,103C167.6,103,167.6,103,167.6,103C167.5,103,167.5,103,167.6,103l-0.1-2.6c0,0,0,0,0-0.1
			l2.2-1.3c0,0,0,0,0.1,0c0,0,0,0,0,0.1v2.6c0,0,0,0,0,0.1L167.6,103C167.6,103,167.6,103,167.6,103"/>
		<path style="opacity:0.5;fill:#FFFFFF;enable-background:new    ;" d="M167.6,103C167.6,103,167.6,103,167.6,103
			C167.5,103,167.5,103,167.6,103l-0.1-2.6c0,0,0,0,0-0.1l2.2-1.3c0,0,0,0,0.1,0c0,0,0,0,0,0.1v2.6c0,0,0,0,0,0.1L167.6,103
			C167.6,103,167.6,103,167.6,103"/>
		<path style="fill:#3999C6;" d="M164.9,103.3c0,0-0.1,0-0.1,0l-1-0.6c-0.2-0.1-0.3-0.3-0.3-0.5v-3.8c0-0.2,0.1-0.4,0.3-0.5l1-0.6
			c0.1-0.1,0.2,0,0.3,0.1c0.1,0.1,0,0.2-0.1,0.3l-1,0.6c0,0-0.1,0.1-0.1,0.1v3.8c0,0,0,0.1,0.1,0.1l1,0.6c0.1,0.1,0.1,0.2,0.1,0.3
			C165.1,103.3,165,103.3,164.9,103.3z"/>
		<path style="fill:#3999C6;" d="M169.6,97.2c0,0,0.1,0,0.1,0l1,0.6c0.2,0.1,0.3,0.3,0.3,0.5v3.8c0,0.2-0.1,0.4-0.3,0.5l-1,0.6
			c-0.1,0.1-0.2,0-0.3-0.1c-0.1-0.1,0-0.2,0.1-0.3l1-0.6c0,0,0.1-0.1,0.1-0.1v-3.8c0,0,0-0.1-0.1-0.1l-1-0.6
			c-0.1-0.1-0.1-0.2-0.1-0.3C169.5,97.2,169.5,97.2,169.6,97.2z"/>
	</g>
	<g>
		<path style="fill:#3999C6;" d="M177.4,95.6C177.4,95.6,177.4,95.6,177.4,95.6l-1.5-0.8c0,0,0,0,0,0c0,0,0,0,0,0l1.5-0.8
			c0,0,0,0,0,0l1.5,0.8c0,0,0,0,0,0c0,0,0,0,0,0L177.4,95.6C177.4,95.6,177.4,95.6,177.4,95.6"/>
		<path style="fill:#59B4D9;" d="M177.2,97.7C177.2,97.7,177.2,97.7,177.2,97.7l-1.5-0.8c0,0,0,0,0,0v-1.7c0,0,0,0,0,0c0,0,0,0,0,0
			l1.5,0.8c0,0,0,0,0,0L177.2,97.7C177.2,97.7,177.2,97.7,177.2,97.7C177.2,97.7,177.2,97.7,177.2,97.7"/>
		<path style="fill:#59B4D9;" d="M177.6,97.7C177.6,97.7,177.6,97.7,177.6,97.7C177.6,97.7,177.6,97.7,177.6,97.7l0-1.7c0,0,0,0,0,0
			l1.5-0.8c0,0,0,0,0,0c0,0,0,0,0,0v1.7c0,0,0,0,0,0L177.6,97.7C177.6,97.7,177.6,97.7,177.6,97.7"/>
		<path style="opacity:0.5;fill:#FFFFFF;enable-background:new    ;" d="M177.6,97.7C177.6,97.7,177.6,97.7,177.6,97.7
			C177.6,97.7,177.6,97.7,177.6,97.7l0-1.7c0,0,0,0,0,0l1.5-0.8c0,0,0,0,0,0c0,0,0,0,0,0v1.7c0,0,0,0,0,0L177.6,97.7
			C177.6,97.7,177.6,97.7,177.6,97.7"/>
	</g>
	<g>
		<path style="fill:#3999C6;" d="M180.6,100.3C180.6,100.3,180.6,100.3,180.6,100.3l-1.5-0.8c0,0,0,0,0,0c0,0,0,0,0,0l1.5-0.8
			c0,0,0,0,0,0l1.5,0.8c0,0,0,0,0,0c0,0,0,0,0,0L180.6,100.3C180.6,100.3,180.6,100.3,180.6,100.3"/>
		<path style="fill:#59B4D9;" d="M180.4,102.3C180.4,102.3,180.3,102.3,180.4,102.3l-1.5-0.8c0,0,0,0,0,0v-1.7c0,0,0,0,0,0
			c0,0,0,0,0,0l1.5,0.8c0,0,0,0,0,0L180.4,102.3C180.4,102.3,180.4,102.3,180.4,102.3C180.4,102.3,180.4,102.3,180.4,102.3"/>
		<path style="fill:#59B4D9;" d="M180.8,102.3C180.8,102.3,180.8,102.3,180.8,102.3C180.7,102.3,180.7,102.3,180.8,102.3l0-1.7
			c0,0,0,0,0,0l1.5-0.8c0,0,0,0,0,0c0,0,0,0,0,0v1.7c0,0,0,0,0,0L180.8,102.3C180.8,102.3,180.8,102.3,180.8,102.3"/>
		<path style="opacity:0.5;fill:#FFFFFF;enable-background:new    ;" d="M180.8,102.3C180.8,102.3,180.8,102.3,180.8,102.3
			C180.7,102.3,180.7,102.3,180.8,102.3l0-1.7c0,0,0,0,0,0l1.5-0.8c0,0,0,0,0,0c0,0,0,0,0,0v1.7c0,0,0,0,0,0L180.8,102.3
			C180.8,102.3,180.8,102.3,180.8,102.3"/>
	</g>
	<g>
		<path style="fill:#3999C6;" d="M183.7,105C183.7,105,183.7,105,183.7,105l-1.5-0.8c0,0,0,0,0,0c0,0,0,0,0,0l1.5-0.8c0,0,0,0,0,0
			l1.5,0.8c0,0,0,0,0,0c0,0,0,0,0,0L183.7,105C183.7,105,183.7,105,183.7,105"/>
		<path style="fill:#59B4D9;" d="M183.5,107C183.5,107,183.5,107,183.5,107l-1.5-0.8c0,0,0,0,0,0v-1.7c0,0,0,0,0,0c0,0,0,0,0,0
			l1.5,0.8c0,0,0,0,0,0L183.5,107C183.6,107,183.6,107,183.5,107C183.5,107,183.5,107,183.5,107"/>
		<path style="fill:#59B4D9;" d="M183.9,107C183.9,107,183.9,107,183.9,107C183.9,107,183.9,107,183.9,107l0-1.7c0,0,0,0,0,0
			l1.5-0.8c0,0,0,0,0,0c0,0,0,0,0,0v1.7c0,0,0,0,0,0L183.9,107C183.9,107,183.9,107,183.9,107"/>
		<path style="opacity:0.5;fill:#FFFFFF;enable-background:new    ;" d="M183.9,107C183.9,107,183.9,107,183.9,107
			C183.9,107,183.9,107,183.9,107l0-1.7c0,0,0,0,0,0l1.5-0.8c0,0,0,0,0,0c0,0,0,0,0,0v1.7c0,0,0,0,0,0L183.9,107
			C183.9,107,183.9,107,183.9,107"/>
	</g>
	<g>
		<path style="fill:#3999C6;" d="M173.6,114.1C173.6,114.1,173.6,114.1,173.6,114.1l-2.3-1.3c0,0,0,0,0-0.1c0,0,0,0,0-0.1l2.2-1.3
			c0,0,0,0,0.1,0l2.2,1.3c0,0,0,0,0,0.1c0,0,0,0,0,0.1L173.6,114.1C173.6,114.1,173.6,114.1,173.6,114.1"/>
		<path style="fill:#59B4D9;" d="M173.3,117.2C173.3,117.2,173.3,117.2,173.3,117.2l-2.3-1.3c0,0,0,0,0-0.1v-2.6c0,0,0,0,0-0.1
			c0,0,0,0,0.1,0l2.2,1.3c0,0,0,0,0,0.1L173.3,117.2C173.4,117.2,173.3,117.2,173.3,117.2C173.3,117.2,173.3,117.2,173.3,117.2"/>
		<path style="fill:#59B4D9;" d="M173.9,117.2C173.9,117.2,173.9,117.2,173.9,117.2C173.9,117.2,173.9,117.2,173.9,117.2l-0.1-2.6
			c0,0,0,0,0-0.1l2.2-1.3c0,0,0,0,0.1,0c0,0,0,0,0,0.1v2.6c0,0,0,0,0,0.1L173.9,117.2C173.9,117.2,173.9,117.2,173.9,117.2"/>
		<path style="opacity:0.5;fill:#FFFFFF;enable-background:new    ;" d="M173.9,117.2C173.9,117.2,173.9,117.2,173.9,117.2
			C173.9,117.2,173.9,117.2,173.9,117.2l-0.1-2.6c0,0,0,0,0-0.1l2.2-1.3c0,0,0,0,0.1,0c0,0,0,0,0,0.1v2.6c0,0,0,0,0,0.1L173.9,117.2
			C173.9,117.2,173.9,117.2,173.9,117.2"/>
		<path style="fill:#3999C6;" d="M171.3,117.5c0,0-0.1,0-0.1,0l-1-0.6c-0.2-0.1-0.3-0.3-0.3-0.5v-3.8c0-0.2,0.1-0.4,0.3-0.5l1-0.6
			c0.1-0.1,0.2,0,0.3,0.1c0.1,0.1,0,0.2-0.1,0.3l-1,0.6c0,0-0.1,0.1-0.1,0.1v3.8c0,0,0,0.1,0.1,0.1l1,0.6c0.1,0.1,0.1,0.2,0.1,0.3
			C171.4,117.5,171.3,117.5,171.3,117.5z"/>
		<path style="fill:#3999C6;" d="M176,111.4c0,0,0.1,0,0.1,0l1,0.6c0.2,0.1,0.3,0.3,0.3,0.5v3.8c0,0.2-0.1,0.4-0.3,0.5l-1,0.6
			c-0.1,0.1-0.2,0-0.3-0.1c-0.1-0.1,0-0.2,0.1-0.3l1-0.6c0,0,0.1-0.1,0.1-0.1v-3.8c0,0,0-0.1-0.1-0.1l-1-0.6
			c-0.1-0.1-0.1-0.2-0.1-0.3C175.8,111.4,175.9,111.4,176,111.4z"/>
	</g>
	<g>
		<path style="fill:#3999C6;" d="M186.9,109.6C186.9,109.6,186.9,109.6,186.9,109.6l-1.5-0.8c0,0,0,0,0,0c0,0,0,0,0,0l1.5-0.8
			c0,0,0,0,0,0l1.5,0.8c0,0,0,0,0,0c0,0,0,0,0,0L186.9,109.6C186.9,109.6,186.9,109.6,186.9,109.6"/>
		<path style="fill:#59B4D9;" d="M186.7,111.7C186.7,111.7,186.7,111.7,186.7,111.7l-1.5-0.8c0,0,0,0,0,0v-1.7c0,0,0,0,0,0
			c0,0,0,0,0,0l1.5,0.8c0,0,0,0,0,0L186.7,111.7C186.7,111.6,186.7,111.7,186.7,111.7C186.7,111.7,186.7,111.7,186.7,111.7"/>
		<path style="fill:#59B4D9;" d="M187.1,111.7C187.1,111.7,187.1,111.7,187.1,111.7C187.1,111.7,187.1,111.6,187.1,111.7l0-1.7
			c0,0,0,0,0,0l1.5-0.8c0,0,0,0,0,0c0,0,0,0,0,0v1.7c0,0,0,0,0,0L187.1,111.7C187.1,111.7,187.1,111.7,187.1,111.7"/>
		<path style="opacity:0.5;fill:#FFFFFF;enable-background:new    ;" d="M187.1,111.7C187.1,111.7,187.1,111.7,187.1,111.7
			C187.1,111.7,187.1,111.6,187.1,111.7l0-1.7c0,0,0,0,0,0l1.5-0.8c0,0,0,0,0,0c0,0,0,0,0,0v1.7c0,0,0,0,0,0L187.1,111.7
			C187.1,111.7,187.1,111.7,187.1,111.7"/>
	</g>
	<g>
		<path style="fill:#3999C6;" d="M190.1,114.3C190,114.3,190,114.3,190.1,114.3l-1.5-0.8c0,0,0,0,0,0c0,0,0,0,0,0l1.5-0.8
			c0,0,0,0,0,0l1.5,0.8c0,0,0,0,0,0c0,0,0,0,0,0L190.1,114.3C190.1,114.3,190.1,114.3,190.1,114.3"/>
		<path style="fill:#59B4D9;" d="M189.8,116.3C189.8,116.3,189.8,116.3,189.8,116.3l-1.5-0.8c0,0,0,0,0,0v-1.7c0,0,0,0,0,0
			c0,0,0,0,0,0l1.5,0.8c0,0,0,0,0,0L189.8,116.3C189.9,116.3,189.9,116.3,189.8,116.3C189.9,116.3,189.9,116.3,189.8,116.3"/>
		<path style="fill:#59B4D9;" d="M190.3,116.3C190.3,116.3,190.2,116.3,190.3,116.3C190.2,116.3,190.2,116.3,190.3,116.3l0-1.7
			c0,0,0,0,0,0l1.5-0.8c0,0,0,0,0,0c0,0,0,0,0,0v1.7c0,0,0,0,0,0L190.3,116.3C190.3,116.3,190.3,116.3,190.3,116.3"/>
		<path style="opacity:0.5;fill:#FFFFFF;enable-background:new    ;" d="M190.3,116.3C190.3,116.3,190.2,116.3,190.3,116.3
			C190.2,116.3,190.2,116.3,190.3,116.3l0-1.7c0,0,0,0,0,0l1.5-0.8c0,0,0,0,0,0c0,0,0,0,0,0v1.7c0,0,0,0,0,0L190.3,116.3
			C190.3,116.3,190.3,116.3,190.3,116.3"/>
	</g>
	<g>
		<path style="fill:#3999C6;" d="M186.9,119C186.9,119,186.9,119,186.9,119l-1.5-0.8c0,0,0,0,0,0c0,0,0,0,0,0l1.5-0.8c0,0,0,0,0,0
			l1.5,0.8c0,0,0,0,0,0c0,0,0,0,0,0L186.9,119C186.9,119,186.9,119,186.9,119"/>
		<path style="fill:#59B4D9;" d="M186.7,121C186.7,121,186.7,121,186.7,121l-1.5-0.8c0,0,0,0,0,0v-1.7c0,0,0,0,0,0c0,0,0,0,0,0
			l1.5,0.8c0,0,0,0,0,0L186.7,121C186.7,121,186.7,121,186.7,121C186.7,121,186.7,121,186.7,121"/>
		<path style="fill:#59B4D9;" d="M187.1,121C187.1,121,187.1,121,187.1,121C187.1,121,187.1,121,187.1,121l0-1.7c0,0,0,0,0,0
			l1.5-0.8c0,0,0,0,0,0c0,0,0,0,0,0v1.7c0,0,0,0,0,0L187.1,121C187.1,121,187.1,121,187.1,121"/>
		<path style="opacity:0.5;fill:#FFFFFF;enable-background:new    ;" d="M187.1,121C187.1,121,187.1,121,187.1,121
			C187.1,121,187.1,121,187.1,121l0-1.7c0,0,0,0,0,0l1.5-0.8c0,0,0,0,0,0c0,0,0,0,0,0v1.7c0,0,0,0,0,0L187.1,121
			C187.1,121,187.1,121,187.1,121"/>
	</g>
	<g>
		<path style="fill:#3999C6;" d="M167.3,128.3C167.3,128.3,167.3,128.3,167.3,128.3L165,127c0,0,0,0,0-0.1c0,0,0,0,0-0.1l2.2-1.3
			c0,0,0,0,0.1,0l2.2,1.3c0,0,0,0,0,0.1c0,0,0,0,0,0.1L167.3,128.3C167.3,128.3,167.3,128.3,167.3,128.3"/>
		<path style="fill:#59B4D9;" d="M167,131.5C167,131.5,166.9,131.5,167,131.5l-2.3-1.3c0,0,0,0,0-0.1v-2.6c0,0,0,0,0-0.1
			c0,0,0,0,0.1,0l2.2,1.3c0,0,0,0,0,0.1L167,131.5C167,131.4,167,131.5,167,131.5C167,131.5,167,131.5,167,131.5"/>
		<path style="fill:#59B4D9;" d="M167.6,131.5C167.6,131.5,167.6,131.5,167.6,131.5C167.5,131.5,167.5,131.4,167.6,131.5l-0.1-2.6
			c0,0,0,0,0-0.1l2.2-1.3c0,0,0,0,0.1,0c0,0,0,0,0,0.1v2.6c0,0,0,0,0,0.1L167.6,131.5C167.6,131.5,167.6,131.5,167.6,131.5"/>
		<path style="opacity:0.5;fill:#FFFFFF;enable-background:new    ;" d="M167.6,131.5C167.6,131.5,167.6,131.5,167.6,131.5
			C167.5,131.5,167.5,131.4,167.6,131.5l-0.1-2.6c0,0,0,0,0-0.1l2.2-1.3c0,0,0,0,0.1,0c0,0,0,0,0,0.1v2.6c0,0,0,0,0,0.1L167.6,131.5
			C167.6,131.5,167.6,131.5,167.6,131.5"/>
		<path style="fill:#3999C6;" d="M164.9,131.8c0,0-0.1,0-0.1,0l-1-0.6c-0.2-0.1-0.3-0.3-0.3-0.5v-3.8c0-0.2,0.1-0.4,0.3-0.5l1-0.6
			c0.1-0.1,0.2,0,0.3,0.1c0.1,0.1,0,0.2-0.1,0.3l-1,0.6c0,0-0.1,0.1-0.1,0.1v3.8c0,0,0,0.1,0.1,0.1l1,0.6c0.1,0.1,0.1,0.2,0.1,0.3
			C165.1,131.7,165,131.8,164.9,131.8z"/>
		<path style="fill:#3999C6;" d="M169.6,125.6c0,0,0.1,0,0.1,0l1,0.6c0.2,0.1,0.3,0.3,0.3,0.5v3.8c0,0.2-0.1,0.4-0.3,0.5l-1,0.6
			c-0.1,0.1-0.2,0-0.3-0.1c-0.1-0.1,0-0.2,0.1-0.3l1-0.6c0,0,0.1-0.1,0.1-0.1v-3.8c0,0,0-0.1-0.1-0.1l-1-0.6
			c-0.1-0.1-0.1-0.2-0.1-0.3C169.5,125.7,169.5,125.6,169.6,125.6z"/>
	</g>
	<g>
		<path style="fill:#3999C6;" d="M183.7,123.6C183.7,123.6,183.7,123.6,183.7,123.6l-1.5-0.8c0,0,0,0,0,0c0,0,0,0,0,0l1.5-0.8
			c0,0,0,0,0,0l1.5,0.8c0,0,0,0,0,0c0,0,0,0,0,0L183.7,123.6C183.7,123.6,183.7,123.6,183.7,123.6"/>
		<path style="fill:#59B4D9;" d="M183.5,125.7C183.5,125.7,183.5,125.7,183.5,125.7l-1.5-0.8c0,0,0,0,0,0v-1.7c0,0,0,0,0,0
			c0,0,0,0,0,0l1.5,0.8c0,0,0,0,0,0L183.5,125.7C183.6,125.6,183.6,125.7,183.5,125.7C183.5,125.7,183.5,125.7,183.5,125.7"/>
		<path style="fill:#59B4D9;" d="M183.9,125.7C183.9,125.7,183.9,125.7,183.9,125.7C183.9,125.7,183.9,125.6,183.9,125.7l0-1.7
			c0,0,0,0,0,0l1.5-0.8c0,0,0,0,0,0c0,0,0,0,0,0v1.7c0,0,0,0,0,0L183.9,125.7C183.9,125.7,183.9,125.7,183.9,125.7"/>
		<path style="opacity:0.5;fill:#FFFFFF;enable-background:new    ;" d="M183.9,125.7C183.9,125.7,183.9,125.7,183.9,125.7
			C183.9,125.7,183.9,125.6,183.9,125.7l0-1.7c0,0,0,0,0,0l1.5-0.8c0,0,0,0,0,0c0,0,0,0,0,0v1.7c0,0,0,0,0,0L183.9,125.7
			C183.9,125.7,183.9,125.7,183.9,125.7"/>
	</g>
	<g>
		<path style="fill:#3999C6;" d="M180.6,128.3C180.6,128.3,180.6,128.3,180.6,128.3l-1.5-0.8c0,0,0,0,0,0c0,0,0,0,0,0l1.5-0.8
			c0,0,0,0,0,0l1.5,0.8c0,0,0,0,0,0c0,0,0,0,0,0L180.6,128.3C180.6,128.3,180.6,128.3,180.6,128.3"/>
		<path style="fill:#59B4D9;" d="M180.4,130.3C180.4,130.3,180.3,130.3,180.4,130.3l-1.5-0.8c0,0,0,0,0,0v-1.7c0,0,0,0,0,0
			c0,0,0,0,0,0l1.5,0.8c0,0,0,0,0,0L180.4,130.3C180.4,130.3,180.4,130.3,180.4,130.3C180.4,130.3,180.4,130.3,180.4,130.3"/>
		<path style="fill:#59B4D9;" d="M180.8,130.3C180.8,130.3,180.8,130.3,180.8,130.3C180.7,130.3,180.7,130.3,180.8,130.3l0-1.7
			c0,0,0,0,0,0l1.5-0.8c0,0,0,0,0,0c0,0,0,0,0,0v1.7c0,0,0,0,0,0L180.8,130.3C180.8,130.3,180.8,130.3,180.8,130.3"/>
		<path style="opacity:0.5;fill:#FFFFFF;enable-background:new    ;" d="M180.8,130.3C180.8,130.3,180.8,130.3,180.8,130.3
			C180.7,130.3,180.7,130.3,180.8,130.3l0-1.7c0,0,0,0,0,0l1.5-0.8c0,0,0,0,0,0c0,0,0,0,0,0v1.7c0,0,0,0,0,0L180.8,130.3
			C180.8,130.3,180.8,130.3,180.8,130.3"/>
	</g>
	<g>
		<path style="fill:#3999C6;" d="M177.4,133C177.4,133,177.4,133,177.4,133l-1.5-0.8c0,0,0,0,0,0c0,0,0,0,0,0l1.5-0.8c0,0,0,0,0,0
			l1.5,0.8c0,0,0,0,0,0c0,0,0,0,0,0L177.4,133C177.4,133,177.4,133,177.4,133"/>
		<path style="fill:#59B4D9;" d="M177.2,135C177.2,135,177.2,135,177.2,135l-1.5-0.8c0,0,0,0,0,0v-1.7c0,0,0,0,0,0c0,0,0,0,0,0
			l1.5,0.8c0,0,0,0,0,0L177.2,135C177.2,135,177.2,135,177.2,135C177.2,135,177.2,135,177.2,135"/>
		<path style="fill:#59B4D9;" d="M177.6,135C177.6,135,177.6,135,177.6,135C177.6,135,177.6,135,177.6,135l0-1.7c0,0,0,0,0,0
			l1.5-0.8c0,0,0,0,0,0c0,0,0,0,0,0v1.7c0,0,0,0,0,0L177.6,135C177.6,135,177.6,135,177.6,135"/>
		<path style="opacity:0.5;fill:#FFFFFF;enable-background:new    ;" d="M177.6,135C177.6,135,177.6,135,177.6,135
			C177.6,135,177.6,135,177.6,135l0-1.7c0,0,0,0,0,0l1.5-0.8c0,0,0,0,0,0c0,0,0,0,0,0v1.7c0,0,0,0,0,0L177.6,135
			C177.6,135,177.6,135,177.6,135"/>
	</g>
</g>
</svg>
