<?xml version="1.0" encoding="utf-8"?>
<!-- Generator: Adobe Illustrator 20.1.0, SVG Export Plug-In . SVG Version: 6.00 Build 0)  -->
<svg version="1.1" xmlns="http://www.w3.org/2000/svg" xmlns:xlink="http://www.w3.org/1999/xlink" x="0px" y="0px"
	 viewBox="0 0 80 80" style="enable-background:new 0 0 80 80;" xml:space="preserve">
<style type="text/css">
	.st0{fill:#444444;}
	.st1{display:none;}
	.st2{display:inline;fill:#FFFFFF;stroke:#00AEEF;stroke-width:2;stroke-miterlimit:10;}
	.st3{display:inline;fill:#00AEEF;}
	.st4{display:inline;}
	.st5{fill:#00AEEF;}
	.st6{display:inline;fill:#FFFFFF;}
	.st7{display:inline;fill:#FFF200;stroke:#231F20;stroke-width:0.5;stroke-miterlimit:10;}
	.st8{display:inline;fill:#FFFFFF;stroke:#E6E7E8;stroke-width:0.25;stroke-miterlimit:10;}
	.st9{display:none;fill:#FFF200;stroke:#231F20;stroke-width:0.5;stroke-miterlimit:10;}
	.st10{display:none;fill:#FFF200;stroke:#231F20;stroke-width:0.2;stroke-miterlimit:10;}
	.st11{display:inline;fill:#B5BABE;}
	.st12{fill:#FFFFFF;}
	.st13{fill:#6E6E6E;}
	.st14{fill:#FFFFFF;stroke:#6E6E6E;stroke-width:3;stroke-miterlimit:10;}
	.st15{fill:none;stroke:#6E6E6E;stroke-width:3;stroke-miterlimit:10;}
	.st16{fill:none;}
	.st17{fill:#231F20;}
	.st18{fill:#E6E6E6;}
	.st19{fill:#2E2E2E;}
	.st20{fill:#CCCCCC;}
</style>
<g id="Layer_1">
	<polygon class="st0" points="23.582,64.706 15.033,56.111 22.705,54.698 25.036,57.042 	"/>
	
		<rect x="18.753" y="51.623" transform="matrix(0.7052 0.709 -0.709 0.7052 46.1125 -1.7669)" class="st0" width="12.857" height="5.888"/>
	<g>
		<path class="st13" d="M13.077,36.708c-5.075,5.688-8.39,10.844-8.39,10.844l1.884,1.601c0,0,6.043-6.562,10.921-6.665
			c1.087-0.023,2.477,0.36,3.8,0.851c0.989-2.79,2.102-5.356,3.326-7.717C20.783,34.32,15.879,33.568,13.077,36.708z"/>
		<path class="st13" d="M38.121,62.222c-0.129,4.878-6.724,10.885-6.724,10.885L32.988,75c0,0,5.174-3.287,10.889-8.331
			c2.991-2.639,2.494-7.188,1.342-10.927c-2.377,1.244-4.961,2.309-7.756,3.171C37.86,60.083,38.146,61.27,38.121,62.222z"/>
	</g>
	<path class="st14" d="M20.068,47.084C29.351,15.459,53.424,9.952,73.635,6.886c-2.588,16.597-9.826,46.963-41.074,53.286
		L20.068,47.084z"/>
	<path class="st15" d="M47.397,12.985c4.77,7.156,14.311,15.504,19.082,16.696"/>
</g>
<g id="Layer_3" class="st1">
</g>
<g id="titles">
</g>
</svg>
