<?xml version="1.0" encoding="UTF-8" standalone="no"?>
<!DOCTYPE svg PUBLIC "-//W3C//DTD SVG 1.1//EN" "http://www.w3.org/Graphics/SVG/1.1/DTD/svg11.dtd">
<!-- Generated by Microsoft Visio, SVG Export Application Service.svg Page-1 -->
<svg xmlns="http://www.w3.org/2000/svg" xmlns:xlink="http://www.w3.org/1999/xlink" xmlns:ev="http://www.w3.org/2001/xml-events"
		width="1.77167in" height="1.77167in" viewBox="0 0 127.56 127.56" xml:space="preserve" color-interpolation-filters="sRGB"
		class="st4">
	<style type="text/css">
	<![CDATA[
		.st1 {fill:url(#grad7-6);stroke:none;stroke-linecap:butt;stroke-width:35.4336}
		.st2 {fill:#83b9f9;stroke:none;stroke-linecap:butt;stroke-width:35.4336}
		.st3 {fill:#f2f2f2;stroke:none;stroke-linecap:butt;stroke-width:35.4336}
		.st4 {fill:none;fill-rule:evenodd;font-size:12px;overflow:visible;stroke-linecap:square;stroke-miterlimit:3}
	]]>
	</style>

	<defs id="Patterns_And_Gradients">
		<radialGradient id="grad7-6" cx="0" cy="0" r="1.4">
			<stop offset="0.185" stop-color="#5ea0ef" stop-opacity="1"/>
			<stop offset="1" stop-color="#0078d4" stop-opacity="1"/>
		</radialGradient>
	</defs>
	<g>
		<title>Page-1</title>
		<g id="group3446-1" transform="translate(35.4336,-35.4336)">
			<title>Application Service</title>
			<g id="group3447-2">
				<title>g22</title>
				<g id="shape3448-3">
					<title>path59</title>
					<ellipse cx="28.3465" cy="99.2136" rx="28.3465" ry="28.3465" class="st1"/>
				</g>
				<g id="shape3449-7" transform="translate(3.94826,-8.79092)">
					<title>path4-3</title>
					<path d="M2.77 113.58 C1.63 116.41 0.71 119.43 0 122.41 C0.63 123.47 1.31 124.39 2.06 125.37 C2.63 126.12 3.24
								 126.88 3.89 127.56 C4.69 123.6 5.91 119.7 7.5 115.99 C5.72 115.68 4.07 114.84 2.77 113.58 ZM6.02
								 98.49 C4.85 95.34 4.05 92.01 3.71 88.66 C2.31 90.14 1.11 91.69 0.07 93.43 C0.46 96.1 1.09 98.85
								 1.96 101.4 C3.02 100.07 4.42 99.06 6.02 98.49 Z" class="st2"/>
				</g>
				<g id="shape3450-9" transform="translate(14.7042,-7.55718)">
					<title>path8-3</title>
					<path d="M11.56 122.4 C11.56 120.81 12.21 119.28 13.36 118.18 C10.3 116.5 7.48 114.42 4.96 112 C3.64 113.42 1.9
								 114.38 0 114.73 C1.48 116.29 3.09 117.72 4.81 119.01 C6.94 120.62 9.22 122.01 11.62 123.17 C11.58
								 122.91 11.57 122.66 11.57 122.4 L11.56 122.4 ZM32.51 123.11 C29.43 123.11 26.35 122.75 23.35 122.04
								 C23.35 122.17 23.38 122.28 23.38 122.4 C23.38 123.95 22.77 125.43 21.69 126.53 C25.43 127.26 29.32
								 127.56 33.12 127.36 C34.55 126.01 35.84 124.47 36.96 122.86 C35.51 123.01 33.97 123.11 32.52 123.11
								 L32.51 123.11 Z" class="st2"/>
				</g>
				<g id="shape3451-11" transform="translate(16.2341,-28.4888)">
					<title>path12-4</title>
					<path d="M14.33 114.83 C20.47 111.74 27.36 110.02 34.23 109.94 C32.79 108.14 31.13 106.54 29.29 105.15 C23.91
								 105.5 18.52 106.79 13.56 108.89 C12.47 109.35 11.41 109.89 10.37 110.44 C7.85 107.45 5.49 104.13
								 3.64 100.68 C2.41 101.06 1.31 101.49 0.14 102.03 C2.05 105.69 4.4 109.26 7.03 112.44 C4.48 114.11
								 2.12 116.06 0 118.25 C1.85 118.95 3.42 120.24 4.48 121.91 C6.43 119.99 8.58 118.28 10.88 116.8 C14.66
								 120.75 18.77 124.35 23.19 127.56 C23.49 126.27 24.21 125.12 25.22 124.27 C21.34 121.43 17.7 118.27
								 14.33 114.83 Z" class="st2"/>
				</g>
				<g id="shape3452-13" transform="translate(39.3551,-21.0855)">
					<title>circle14-8</title>
					<ellipse cx="6.26916" cy="121.291" rx="6.26916" ry="6.26916" class="st3"/>
				</g>
				<g id="shape3453-15" transform="translate(3.93507,-20.2207)">
					<title>circle18-3</title>
					<ellipse cx="9.08613" cy="118.474" rx="9.08613" ry="9.08613" class="st3"/>
				</g>
				<g id="shape3454-17" transform="translate(26.2681,-6.81099)">
					<title>circle20-2</title>
					<ellipse cx="5.90332" cy="121.657" rx="5.90332" ry="5.90332" class="st3"/>
				</g>
			</g>
		</g>
	</g>
</svg>
