<?xml version="1.0" encoding="UTF-8" standalone="no"?>
<!DOCTYPE svg PUBLIC "-//W3C//DTD SVG 1.1//EN" "http://www.w3.org/Graphics/SVG/1.1/DTD/svg11.dtd">
<!-- Generated by Microsoft Visio, SVG Export Key Vault.svg Page-1 -->
<svg xmlns="http://www.w3.org/2000/svg" xmlns:xlink="http://www.w3.org/1999/xlink" xmlns:ev="http://www.w3.org/2001/xml-events"
		width="1.74726in" height="1.7557in" viewBox="0 0 125.802 126.41" xml:space="preserve" color-interpolation-filters="sRGB"
		class="st5">
	<style type="text/css">
	<![CDATA[
		.st1 {fill:url(#grad3-6);stroke:none;stroke-linecap:butt;stroke-width:34}
		.st2 {fill:#ffffff;stroke:none;stroke-linecap:butt;stroke-width:34}
		.st3 {fill:url(#grad7-12);stroke:none;stroke-linecap:butt;stroke-width:34}
		.st4 {fill:#ff9300;fill-opacity:0.75;stroke:none;stroke-linecap:butt;stroke-width:34}
		.st5 {fill:none;fill-rule:evenodd;font-size:12px;overflow:visible;stroke-linecap:square;stroke-miterlimit:3}
	]]>
	</style>

	<defs id="Patterns_And_Gradients">
		<radialGradient id="grad3-6" cx="0.5" cy="0.5" r="0.73">
			<stop offset="0.18" stop-color="#5ea0ef" stop-opacity="1"/>
			<stop offset="0.56" stop-color="#5c9fee" stop-opacity="1"/>
			<stop offset="0.69" stop-color="#559ced" stop-opacity="1"/>
			<stop offset="0.78" stop-color="#4a97e9" stop-opacity="1"/>
			<stop offset="0.86" stop-color="#3990e4" stop-opacity="1"/>
			<stop offset="0.93" stop-color="#2387de" stop-opacity="1"/>
			<stop offset="0.99" stop-color="#087bd6" stop-opacity="1"/>
			<stop offset="1" stop-color="#0078d4" stop-opacity="1"/>
		</radialGradient>
		<radialGradient id="grad7-12" cx="0" cy="0" r="1.4">
			<stop offset="0.27" stop-color="#ffd70f" stop-opacity="1"/>
			<stop offset="0.49" stop-color="#ffcb12" stop-opacity="1"/>
			<stop offset="0.88" stop-color="#feac19" stop-opacity="1"/>
			<stop offset="1" stop-color="#fea11b" stop-opacity="1"/>
		</radialGradient>
	</defs>
	<g>
		<title>Page-1</title>
		<g id="group1513-1" transform="translate(37.9442,-35.7174)">
			<title>Key Vault</title>
			<g id="group1514-2">
				<title>Sheet.1514</title>
				<g id="shape1515-3" transform="translate(4.5208,-2.26829)">
					<title>Sheet.1515</title>
					<path d="M20.44 71.99 A28.9012 29.2051 -180 1 0 49.34 101.19 A28.9352 29.2395 -180 0 0 20.44 71.99 ZM20.44 126.41
								 A24.9571 25.2195 0 1 1 45.39 101.19 A24.9571 25.2195 0 0 1 20.44 126.41 Z" class="st1"/>
				</g>
				<g id="shape1516-7" transform="translate(0,-2.26829)">
					<title>Sheet.1516</title>
					<ellipse cx="24.9571" cy="101.191" rx="24.9571" ry="25.2195" class="st2"/>
				</g>
				<g id="shape1517-9" transform="translate(8.04856,0)">
					<title>Sheet.1517</title>
					<path d="M32.01 93.18 A6.25626 6.32205 -180 0 0 32.01 84.29 L21.29 73.43 A6.22226 6.28769 -180 0 0 12.52 73.43
								 L1.81 84.29 A6.25626 6.32205 -180 0 0 1.81 93.18 L10.72 102.36 A1.73407 1.75231 0 0 1 11.23 103.6
								 L11.23 120.36 A2.14209 2.16462 -180 0 0 11.84 121.87 L15.92 126 A1.39406 1.40872 -180 0 0 17.89
								 126 L21.84 122.01 L24.15 119.68 a0.850036 0.858975 -180 0 0 3.55271E-15 -1.16821 L22.48 116.82 a0.918039
								 0.927693 0 0 1 -3.55271E-15 -1.27128 L24.15 113.87 a0.850036 0.858975 -180 0 0 1.77636E-14 -1.16821
								 L22.48 111.02 a0.918039 0.927693 0 0 1 2.4869E-14 -1.27128 L24.15 108.06 a0.850036 0.858975 -180
								 0 0 3.19744E-14 -1.16821 L21.84 104.52 L21.84 103.66 L32.01 93.18 ZM16.91 76.07 A3.51915 3.55615
								 0 0 1 16.91 83.19 A3.51915 3.55615 0 1 1 16.91 76.07 Z" class="st3"/>
				</g>
				<g id="shape1518-13" transform="translate(21.9309,-5.71921)">
					<title>Sheet.1518</title>
					<path d="M0.24 126.29 a0.782033 0.790257 -180 0 0 1.29205 -0.584103 L1.53 111.96 a0.816034 0.824616 -180 0 0
								 -0.374016 -0.68718 a0.748031 0.755898 -180 0 0 -1.15605 0.68718 L0 125.7 a0.95204 0.962052 -180
								 0 0 0.23801 0.584103 Z" class="st4"/>
				</g>
				<g id="shape1519-15" transform="translate(16.3887,-36.4211)">
					<title>Sheet.1519</title>
					<path d="M0 125.45 a0.952062 0.962074 -180 0 0 0.95204 0.962052 L16.63 126.41 a0.952062 0.962074 -180 0 0 0.95204
								 -0.962052 L17.58 125.28 a0.952062 0.962074 -180 0 0 -0.95204 -0.962052 L0.95 124.31 a0.952062 0.962074
								 -180 0 0 -0.95204 0.962052 L0 125.45 Z" class="st4"/>
				</g>
				<g id="shape1520-17" transform="translate(16.3887,-33.0196)">
					<title>Sheet.1520</title>
					<path d="M0 125.45 a0.952062 0.962074 -180 0 0 0.95204 0.962052 L16.63 126.41 a0.952062 0.962074 -180 0 0 0.95204
								 -0.962052 L17.58 125.28 a0.952062 0.962074 -180 0 0 -0.95204 -0.962052 L0.95 124.31 a0.952062 0.962074
								 -180 0 0 -0.95204 0.962052 L0 125.45 Z" class="st4"/>
				</g>
			</g>
		</g>
	</g>
</svg>
