<?xml version="1.0" encoding="UTF-8" standalone="no"?>
<!DOCTYPE svg PUBLIC "-//W3C//DTD SVG 1.1//EN" "http://www.w3.org/Graphics/SVG/1.1/DTD/svg11.dtd">
<!-- Generated by Microsoft Visio, SVG Export Storage Account.svg Page-1 -->
<svg xmlns="http://www.w3.org/2000/svg" xmlns:xlink="http://www.w3.org/1999/xlink" xmlns:ev="http://www.w3.org/2001/xml-events"
		width="1.73185in" height="1.57437in" viewBox="0 0 124.693 113.354" xml:space="preserve" color-interpolation-filters="sRGB"
		class="st5">
	<style type="text/css">
	<![CDATA[
		.st1 {fill:url(#grad0-6);stroke:none;stroke-linecap:butt;stroke-width:34}
		.st2 {fill:#37c2b1;stroke:none;stroke-linecap:butt;stroke-width:34}
		.st3 {fill:#ffffff;stroke:none;stroke-linecap:butt;stroke-width:34}
		.st4 {fill:#258277;stroke:none;stroke-linecap:butt;stroke-width:34}
		.st5 {fill:none;fill-rule:evenodd;font-size:12px;overflow:visible;stroke-linecap:square;stroke-miterlimit:3}
	]]>
	</style>

	<defs id="Patterns_And_Gradients">
		<linearGradient id="grad0-6" x1="0" y1="0" x2="1" y2="0" gradientTransform="rotate(-90 0.5 0.5)">
			<stop offset="0" stop-color="#b3b3b3" stop-opacity="1"/>
			<stop offset="0.26" stop-color="#c1c1c1" stop-opacity="1"/>
			<stop offset="1" stop-color="#e6e6e6" stop-opacity="1"/>
		</linearGradient>
	</defs>
	<g>
		<title>Page-1</title>
		<g id="group446-1" transform="translate(34,-34)">
			<title>Storage Account</title>
			<g id="group447-2">
				<title>Sheet.447</title>
				<g id="shape448-3">
					<title>Sheet.448</title>
					<path d="M0 80.01 L56.69 80.01 L56.69 111.46 A1.90088 1.89115 0 0 1 54.79 113.35 L1.9 113.35 A1.90088 1.89115
								 0 0 1 0 111.46 L0 80.01 Z" class="st1"/>
				</g>
				<g id="shape449-7" transform="translate(0,-33.3439)">
					<title>Sheet.449</title>
					<path d="M1.9 101.34 L54.79 101.34 A1.90088 1.89115 0 0 1 56.69 103.24 L56.69 113.35 L0 113.35 L0 103.2 A1.90088
								 1.89115 0 0 1 1.9 101.34 Z" class="st2"/>
				</g>
				<g id="shape450-9" transform="translate(6.8365,-23.2578)">
					<title>Sheet.450</title>
					<path d="M0.87 106.92 L42.12 106.92 a0.900417 0.895806 0 0 1 0.867068 0.895806 L42.99 112.46 a0.900417 0.895806
								 0 0 1 -0.867068 0.895806 L0.87 113.35 a0.900417 0.895806 0 0 1 -0.867068 -0.895806 L0 107.81 a0.900417
								 0.895806 0 0 1 0.867068 -0.895806 Z" class="st3"/>
				</g>
				<g id="shape451-11" transform="translate(6.86985,-13.9679)">
					<title>Sheet.451</title>
					<path d="M0.87 106.88 L42.12 106.88 a0.900417 0.895806 0 0 1 0.867068 0.895806 L42.99 112.46 a0.900417 0.895806
								 0 0 1 -0.867068 0.895806 L0.87 113.35 a0.900417 0.895806 0 0 1 -0.867068 -0.895806 L0 107.95 a0.900417
								 0.895806 0 0 1 0.867068 -1.0617 Z" class="st2"/>
				</g>
				<g id="shape452-13" transform="translate(6.86985,-4.61174)">
					<title>Sheet.452</title>
					<path d="M0.87 106.88 L42.12 106.88 a0.900417 0.895806 0 0 1 0.867068 0.895806 L42.99 112.46 a0.900417 0.895806
								 0 0 1 -0.867068 0.895806 L0.87 113.35 a0.900417 0.895806 0 0 1 -0.867068 -0.895806 L0 107.78 a0.900417
								 0.895806 0 0 1 0.867068 -0.895806 Z" class="st4"/>
				</g>
			</g>
		</g>
	</g>
</svg>
