<svg width="62" height="62" viewBox="0 0 62 62" fill="none" xmlns="http://www.w3.org/2000/svg">
<path d="M50.8047 27.4625L50.3119 27.0463C49.0681 25.989 47.786 24.8983 46.4418 23.8937C44.0546 22.1045 41.8205 20.2627 40.5719 17.6555L40.6245 17.445C40.9355 16.2538 41.2895 14.9143 40.06 13.4408C42.2032 12.2066 43.5331 9.87203 43.5092 7.28393C43.4757 3.42331 40.4188 0.37118 36.5534 0.328125H36.4816C34.6303 0.328125 32.8794 1.06484 31.5446 2.40434C30.2052 3.74862 29.478 5.51867 29.4876 7.3844C29.4971 8.6617 29.6454 9.4654 30.1047 10.3217C27.4783 11.1828 24.8807 12.2114 22.3643 13.2064C20.9483 13.7661 19.4844 14.3402 18.0492 14.876C16.9394 15.2922 15.8534 16.249 15.2889 17.3206C13.7628 20.2005 12.3037 23.1665 10.8925 26.0321C10.548 26.7353 10.1988 27.4386 9.85438 28.137C9.21812 29.4191 9.35685 30.4668 9.5817 31.1222C9.92614 32.1172 10.7155 32.9401 11.8684 33.495C12.5238 33.8107 13.2318 33.9782 13.9111 33.9782C15.4468 33.9782 16.7863 33.1458 17.4895 31.7489C17.8244 31.0839 18.1736 30.4189 18.5228 29.7588C19.427 28.0413 20.3551 26.2665 21.0918 24.4056C21.7663 22.6834 23.058 21.5878 25.4069 20.7267C25.8518 20.5641 26.2297 20.4062 26.5837 20.2579L26.1101 22.1715C25.5169 24.573 24.8998 27.0319 24.2827 29.4765L24.2587 29.4574L23.6895 31.7345C23.4168 32.83 23.058 34.5905 22.6801 36.4562C22.2256 38.6951 21.7089 41.2354 21.3693 42.3979C21.1827 43.0341 20.8622 43.6417 20.4842 44.0675C18.7046 46.0576 16.8532 48.0525 15.0641 49.9804C14.1551 50.9611 13.2462 51.9418 12.342 52.9225C10.4189 55.0131 10.4859 57.0366 12.5382 58.9359C13.1744 59.5243 14.1743 60.3088 15.4755 60.3088C16.5375 60.3088 17.5469 59.7826 18.5563 58.7014C21.3214 55.7354 24.5793 52.2288 27.7749 48.7126C28.3968 48.0285 28.8752 47.2009 29.124 46.3733C29.4206 45.3926 30.0712 43.1107 30.6357 41.0345C32.6497 42.6849 34.7786 44.4454 37.1083 46.3972C37.2519 46.5168 37.4432 46.8373 37.4911 47.1052C37.8307 49.0379 38.1417 51.0137 38.4431 52.9273C38.6679 54.3577 38.8927 55.788 39.1319 57.2137C39.4764 59.2707 40.8015 60.4093 42.8586 60.4093C43.2365 60.4093 43.6336 60.3758 44.0785 60.2993C46.8532 59.84 48.561 58.0078 48.2262 55.8407C48.0779 54.86 47.9296 53.8793 47.7813 52.8986C47.3603 50.076 46.9249 47.1626 46.3987 44.2971C46.1691 43.0341 45.4467 41.7377 44.5186 40.9053C43.0835 39.6232 41.3612 38.4081 39.6917 37.2312C38.5627 36.4371 37.4958 35.6813 36.5391 34.9302C36.3668 34.7962 36.319 34.7197 36.3094 34.7053C36.3142 34.7053 36.3094 34.6049 36.3716 34.3561C37.027 31.8302 37.6681 29.2708 38.2995 26.7497C40.8589 28.8594 43.4949 31.0313 46.1117 33.1553C46.9154 33.8107 47.6904 34.1265 48.4749 34.1265C49.4508 34.1265 50.3311 33.6481 51.1683 32.6674C51.9385 31.7584 52.2925 30.883 52.2447 29.9932C52.1872 29.0603 51.7184 28.2375 50.8047 27.4625Z" fill="black"/>
<path d="M36.4625 7.28516L30.0377 33.8837" stroke="#0078D4" stroke-width="3" stroke-miterlimit="10"/>
<path d="M44.0977 58.7928L41.6244 44.2067L29.722 34.8828" stroke="#0078D4" stroke-width="3" stroke-miterlimit="10"/>
<path d="M41.6004 47.1343C42.9374 47.1343 44.0211 46.0505 44.0211 44.7136C44.0211 43.3767 42.9374 42.293 41.6004 42.293C40.2635 42.293 39.1798 43.3767 39.1798 44.7136C39.1798 46.0505 40.2635 47.1343 41.6004 47.1343Z" fill="#50E6FF"/>
<path d="M44.0307 61.3296C45.3675 61.3296 46.4513 60.246 46.4513 58.9089C46.4513 57.5718 45.3675 56.4883 44.0307 56.4883C42.6938 56.4883 41.61 57.5718 41.61 58.9089C41.61 60.246 42.6938 61.3296 44.0307 61.3296Z" fill="#50E6FF"/>
<path d="M30.0999 37.0171C31.4368 37.0171 32.5206 35.9334 32.5206 34.5964C32.5206 33.2595 31.4368 32.1758 30.0999 32.1758C28.763 32.1758 27.6793 33.2595 27.6793 34.5964C27.6793 35.9334 28.763 37.0171 30.0999 37.0171Z" fill="#50E6FF"/>
<path d="M12.342 32.3032L19.1352 19.1331L27.2439 15.5547L34.0418 16.8703" stroke="#0078D4" stroke-width="3" stroke-miterlimit="10" stroke-linecap="round" stroke-linejoin="round"/>
<path d="M12.2607 34.6851C13.5976 34.6851 14.6813 33.6013 14.6813 32.2644C14.6813 30.9275 13.5976 29.8438 12.2607 29.8438C10.9238 29.8438 9.84003 30.9275 9.84003 32.2644C9.84003 33.6013 10.9238 34.6851 12.2607 34.6851Z" fill="#50E6FF"/>
<path d="M19.3935 21.6694C20.7304 21.6694 21.8142 20.5857 21.8142 19.2488C21.8142 17.9119 20.7304 16.8281 19.3935 16.8281C18.0566 16.8281 16.9728 17.9119 16.9728 19.2488C16.9728 20.5857 18.0566 21.6694 19.3935 21.6694Z" fill="#50E6FF"/>
<path d="M34.0132 19.396C35.3501 19.396 36.4338 18.3123 36.4338 16.9753C36.4338 15.6384 35.3501 14.5547 34.0132 14.5547C32.6763 14.5547 31.5925 15.6384 31.5925 16.9753C31.5925 18.3123 32.6763 19.396 34.0132 19.396Z" fill="#50E6FF"/>
<path d="M36.5247 9.84132C37.8616 9.84132 38.9454 8.75757 38.9454 7.42066C38.9454 6.08375 37.8616 5 36.5247 5C35.1878 5 34.104 6.08375 34.104 7.42066C34.104 8.75757 35.1878 9.84132 36.5247 9.84132Z" fill="#50E6FF"/>
</svg>
