<svg xmlns="http://www.w3.org/2000/svg" xmlns:xlink="http://www.w3.org/1999/xlink" width="259.9" height="52.1" viewBox="0 0 259.9 52.1"><defs><linearGradient id="linear-gradient" x1="-73.35" y1="-767.7" x2="-35.41" y2="-833.54" gradientTransform="translate(-648.6 461.55) rotate(60.11)" gradientUnits="userSpaceOnUse"><stop offset="0" stop-color="#015ca2"/><stop offset="0.37" stop-color="#04508e"/><stop offset="1" stop-color="#1e3565"/></linearGradient><linearGradient id="linear-gradient-2" x1="-2732.89" y1="721.21" x2="-2686.8" y2="640.38" gradientTransform="translate(-1921.04 -1978.67) rotate(-119.89)" gradientUnits="userSpaceOnUse"><stop offset="0" stop-color="#015ca2"/><stop offset="0.45" stop-color="#164884"/><stop offset="1" stop-color="#1e3565"/></linearGradient><linearGradient id="linear-gradient-3" x1="20.7" y1="758.04" x2="23.82" y2="740.27" gradientTransform="translate(0 -720.13)" gradientUnits="userSpaceOnUse"><stop offset="0.26" stop-color="#75d0eb"/><stop offset="0.42" stop-color="#8ed6ed"/><stop offset="0.58" stop-color="#a5def1"/><stop offset="0.73" stop-color="#b6e4f5"/><stop offset="0.88" stop-color="#c2e8f6"/><stop offset="1" stop-color="#c6eaf7"/></linearGradient></defs><g id="Layer_3" data-name="Layer 3"><rect width="259.9" height="52.1" style="fill:#fff"/></g><g id="Layer_1" data-name="Layer 1"><rect width="259.9" height="52.1" style="fill:#fff"/><path d="M27.69,15.24l9.42,5.43,6.57-3.8a19,19,0,0,0-30-4A21.61,21.61,0,0,1,27.69,15.24Z" style="fill:url(#linear-gradient)"/><path d="M37,20.66l-.14,13,6.82,1.84A18.95,18.95,0,0,0,32.37,7.93,22.51,22.51,0,0,1,37,20.66Z" style="fill:#2f76bc"/><path d="M37,31.88l-9.81,5.67.15,7.54a19,19,0,0,0,18.89-19,18.15,18.15,0,0,0-.61-4.51A20.61,20.61,0,0,1,37,31.88Z" style="fill:#6a9dd3"/><path d="M27.16,37.55l-9.82-5.67-6.51,3.9A18.93,18.93,0,0,0,40.3,39.84,21.48,21.48,0,0,1,27.16,37.55Z" style="fill:url(#linear-gradient-2)"/><path d="M17.34,31.88l.15-13.45-6.72-1.77a18.84,18.84,0,0,0-2.58,9.52A19.08,19.08,0,0,0,22.28,44.5,22,22,0,0,1,17.34,31.88Z" style="fill:#2f76bc"/><path d="M17.68,20.35l9.48-5.48a22.84,22.84,0,0,0-12.81-2.68,18.88,18.88,0,0,0-6.16,14,19.61,19.61,0,0,0,.68,5A22.1,22.1,0,0,1,17.68,20.35Z" style="fill:#6a9dd3"/><polygon points="36.97 31.88 36.97 20.54 27.16 14.87 17.34 20.54 17.34 31.88 27.16 37.55 36.97 31.88" style="fill:#c6eaf7"/><polygon points="27.17 26.33 27.17 37.55 17.34 31.88 17.34 20.58 27.17 26.33" style="fill:url(#linear-gradient-3)"/><polygon points="27.16 26.33 27.16 37.55 36.98 31.88 36.98 20.58 27.16 26.33" style="fill:#75d0eb"/><path d="M67.85,32.53H65V25c0-.82,0-1.72.11-2.7h-.07a13.38,13.38,0,0,1-.4,1.67l-3,8.57H59.41L56.4,24A16.5,16.5,0,0,1,56,22.29h-.08c.07,1.24.11,2.33.11,3.27v7H53.48V19.92h4.16l2.58,7.47a10.61,10.61,0,0,1,.44,1.81h.06a17,17,0,0,1,.5-1.82l2.57-7.46h4.06Z" style="fill:#2f76bc"/><path d="M78.52,28.82H72.65c.1,1.3.92,2,2.47,2a4.81,4.81,0,0,0,2.61-.71v2a6.9,6.9,0,0,1-3.24.67,4.2,4.2,0,0,1-4.59-4.58,4.83,4.83,0,0,1,1.3-3.55,4.32,4.32,0,0,1,3.2-1.31,4,4,0,0,1,3,1.17,4.46,4.46,0,0,1,1.07,3.17ZM76,27.11c0-1.29-.52-1.93-1.57-1.93a1.48,1.48,0,0,0-1.15.55,2.48,2.48,0,0,0-.59,1.38Z" style="fill:#2f76bc"/><path d="M89,32.53H86.21V31.29h0a3.12,3.12,0,0,1-2.79,1.46,3.41,3.41,0,0,1-2.71-1.19,4.93,4.93,0,0,1-1-3.33,5.41,5.41,0,0,1,1.13-3.58,3.69,3.69,0,0,1,3-1.34,2.53,2.53,0,0,1,2.43,1.24h0V19.2H89Zm-2.72-4.38v-.68A2.15,2.15,0,0,0,85.75,26a1.8,1.8,0,0,0-2.77.15,3.33,3.33,0,0,0-.52,2A3,3,0,0,0,83,30a1.78,1.78,0,0,0,2.77,0A2.84,2.84,0,0,0,86.26,28.15Z" style="fill:#2f76bc"/><path d="M92.73,22.1a1.6,1.6,0,0,1-1.15-.42,1.31,1.31,0,0,1-.45-1,1.3,1.3,0,0,1,.45-1,1.89,1.89,0,0,1,2.3,0,1.3,1.3,0,0,1,.45,1,1.34,1.34,0,0,1-.45,1A1.63,1.63,0,0,1,92.73,22.1ZM94.1,32.53H91.32v-9H94.1Z" style="fill:#2f76bc"/><path d="M103.92,32.53H101.3v-1.3h0a2.94,2.94,0,0,1-2.68,1.52A2.79,2.79,0,0,1,96.52,32a2.65,2.65,0,0,1-.75-2q0-2.61,3.1-3l2.44-.33c0-1-.53-1.47-1.6-1.47a5.48,5.48,0,0,0-3,.95V24.06a6.61,6.61,0,0,1,1.58-.52,7.9,7.9,0,0,1,1.84-.23q3.84,0,3.84,3.84Zm-2.61-3.66v-.61l-1.63.21q-1.35.18-1.35,1.23a1,1,0,0,0,.33.77,1.22,1.22,0,0,0,.89.31,1.64,1.64,0,0,0,1.27-.54A2,2,0,0,0,101.31,28.87Z" style="fill:#2f76bc"/><path d="M110.78,32V29.23a5.4,5.4,0,0,0,3.47,1.28,4.35,4.35,0,0,0,.94-.09,2.6,2.6,0,0,0,.67-.27,1.3,1.3,0,0,0,.4-.41,1.06,1.06,0,0,0,.13-.5,1.08,1.08,0,0,0-.21-.66,2.54,2.54,0,0,0-.58-.54,6.15,6.15,0,0,0-.86-.47l-1.09-.47a5.6,5.6,0,0,1-2.2-1.5,3.3,3.3,0,0,1-.72-2.14,3.5,3.5,0,0,1,.39-1.7,3.43,3.43,0,0,1,1.08-1.16,4.6,4.6,0,0,1,1.58-.67,7.73,7.73,0,0,1,1.9-.22,11.32,11.32,0,0,1,1.74.12,6.52,6.52,0,0,1,1.4.37v2.62a4.55,4.55,0,0,0-.69-.38,5,5,0,0,0-.77-.28,5.4,5.4,0,0,0-.78-.16,4.93,4.93,0,0,0-.75-.06,3.49,3.49,0,0,0-.88.1,2,2,0,0,0-.66.26,1.16,1.16,0,0,0-.42.4.93.93,0,0,0-.15.52,1,1,0,0,0,.16.57,2,2,0,0,0,.48.47,4.52,4.52,0,0,0,.74.44c.3.14.63.29,1,.44a11.49,11.49,0,0,1,1.36.68,4.64,4.64,0,0,1,1,.8,3.25,3.25,0,0,1,.66,1,4.1,4.1,0,0,1-.17,3.12,3.36,3.36,0,0,1-1.09,1.16,4.9,4.9,0,0,1-1.59.63,9.21,9.21,0,0,1-1.93.2,10.46,10.46,0,0,1-2-.18A5.93,5.93,0,0,1,110.78,32Z" style="fill:#2f76bc"/><path d="M129.26,28.82h-5.87c.1,1.3.92,2,2.47,2a4.81,4.81,0,0,0,2.61-.71v2a6.9,6.9,0,0,1-3.24.67,4.2,4.2,0,0,1-4.59-4.58,4.79,4.79,0,0,1,1.3-3.55,4.32,4.32,0,0,1,3.2-1.31,4,4,0,0,1,3,1.17,4.5,4.5,0,0,1,1.07,3.17Zm-2.57-1.71c0-1.29-.52-1.93-1.57-1.93a1.48,1.48,0,0,0-1.15.55,2.49,2.49,0,0,0-.6,1.38Z" style="fill:#2f76bc"/><path d="M136.79,26a2.46,2.46,0,0,0-1.17-.27,1.69,1.69,0,0,0-1.42.66,2.9,2.9,0,0,0-.51,1.81v4.3h-2.77v-9h2.77V25.2h0a2.4,2.4,0,0,1,2.37-1.83,1.86,1.86,0,0,1,.69.1Z" style="fill:#2f76bc"/><path d="M147.37,23.53l-3.35,9h-3.16l-3.19-9h3l1.56,5.54a7.91,7.91,0,0,1,.31,1.6h0a9.93,9.93,0,0,1,.33-1.55l1.6-5.59Z" style="fill:#2f76bc"/><path d="M150,22.1a1.61,1.61,0,0,1-1.15-.42,1.31,1.31,0,0,1-.45-1,1.3,1.3,0,0,1,.45-1,1.91,1.91,0,0,1,2.31,0,1.32,1.32,0,0,1,.44,1,1.37,1.37,0,0,1-.44,1A1.65,1.65,0,0,1,150,22.1Zm1.37,10.43h-2.77v-9h2.77Z" style="fill:#2f76bc"/><path d="M160.49,32.2a5.52,5.52,0,0,1-2.71.55,4.57,4.57,0,0,1-3.36-1.26,4.32,4.32,0,0,1-1.28-3.24,4.77,4.77,0,0,1,1.37-3.62,5.09,5.09,0,0,1,3.68-1.32,4.71,4.71,0,0,1,2.3.42v2.35a3.19,3.19,0,0,0-1.94-.65,2.6,2.6,0,0,0-1.9.7,2.64,2.64,0,0,0-.69,1.93,2.6,2.6,0,0,0,.66,1.88,2.48,2.48,0,0,0,1.84.68,3.69,3.69,0,0,0,2-.65Z" style="fill:#2f76bc"/><path d="M170.4,28.82h-5.88c.1,1.3.92,2,2.47,2a4.81,4.81,0,0,0,2.61-.71v2a6.9,6.9,0,0,1-3.24.67,4.2,4.2,0,0,1-4.59-4.58,4.83,4.83,0,0,1,1.3-3.55,4.32,4.32,0,0,1,3.2-1.31,3.93,3.93,0,0,1,3,1.17,4.46,4.46,0,0,1,1.08,3.17Zm-2.58-1.71c0-1.29-.52-1.93-1.56-1.93a1.5,1.5,0,0,0-1.16.55,2.55,2.55,0,0,0-.59,1.38Z" style="fill:#2f76bc"/><path d="M171.46,32.29V30a5.88,5.88,0,0,0,1.37.61,4.33,4.33,0,0,0,1.28.21,2.69,2.69,0,0,0,1.17-.21.65.65,0,0,0,.42-.61.56.56,0,0,0-.19-.44,1.71,1.71,0,0,0-.5-.31,5.06,5.06,0,0,0-.66-.24,7,7,0,0,1-.69-.23,6.52,6.52,0,0,1-.95-.44,2.46,2.46,0,0,1-.68-.54,2,2,0,0,1-.43-.71,3,3,0,0,1-.14-1,2.46,2.46,0,0,1,.33-1.3,2.67,2.67,0,0,1,.88-.89,4,4,0,0,1,1.25-.51,6.58,6.58,0,0,1,1.48-.16,8.31,8.31,0,0,1,1.21.09,8.45,8.45,0,0,1,1.21.27v2.14a4.47,4.47,0,0,0-1.13-.46,4.83,4.83,0,0,0-1.18-.15,2.78,2.78,0,0,0-.51,0,1.67,1.67,0,0,0-.43.15.85.85,0,0,0-.29.23.56.56,0,0,0-.1.33.6.6,0,0,0,.15.42,1.53,1.53,0,0,0,.42.31,5,5,0,0,0,.56.23l.62.2a7.93,7.93,0,0,1,1,.42,3.5,3.5,0,0,1,.77.54,2.22,2.22,0,0,1,.5.72,2.66,2.66,0,0,1,.17,1,2.57,2.57,0,0,1-.35,1.36,2.7,2.7,0,0,1-.92.92,4.25,4.25,0,0,1-1.33.52,7.24,7.24,0,0,1-1.56.17A8.14,8.14,0,0,1,171.46,32.29Z" style="fill:#2f76bc"/><path d="M196.29,32.53h-3.1l-.89-2.81h-4.48l-.89,2.81h-3.08l4.59-12.61h3.37Zm-4.64-5-1.36-4.23a5.54,5.54,0,0,1-.21-1.14H190a4.67,4.67,0,0,1-.22,1.1l-1.37,4.27Z" style="fill:#2f76bc"/><path d="M200.7,28.18v4.35h-2.84V19.92h4.45q4.75,0,4.76,4A3.85,3.85,0,0,1,205.71,27a5.45,5.45,0,0,1-3.66,1.17Zm0-6.08V26h1.12c1.51,0,2.26-.66,2.26-2s-.75-1.94-2.26-1.94Z" style="fill:#2f76bc"/><path d="M211.76,32.53h-2.84V19.92h2.84Z" style="fill:#2f76bc"/><path d="M227.89,23.53l-3.35,9h-3.17l-3.19-9h3l1.57,5.54a7.8,7.8,0,0,1,.3,1.6h0a8.89,8.89,0,0,1,.33-1.55L225,23.53Z" style="fill:#2f76bc"/><path d="M228.93,32.11V29.7a4.9,4.9,0,0,0,2.95.92,2.64,2.64,0,0,0,1.66-.46,1.5,1.5,0,0,0,.59-1.27,1.44,1.44,0,0,0-.73-1.3,3.75,3.75,0,0,0-2-.46h-1.17V25h1.09c1.64,0,2.46-.54,2.46-1.63s-.63-1.54-1.89-1.54a4.24,4.24,0,0,0-2.46.82V20.38a6.7,6.7,0,0,1,3.09-.67,4.67,4.67,0,0,1,3,.87,2.76,2.76,0,0,1,1.08,2.26,2.93,2.93,0,0,1-2.51,3.09V26a3.37,3.37,0,0,1,2.11,1,2.72,2.72,0,0,1,.77,2,3.4,3.4,0,0,1-1.29,2.8,5.62,5.62,0,0,1-3.57,1A6.79,6.79,0,0,1,228.93,32.11Z" style="fill:#2f76bc"/></g></svg>