<svg xmlns="http://www.w3.org/2000/svg" xmlns:xlink="http://www.w3.org/1999/xlink" viewBox="0 0 691 223.551">
  <defs>
    <linearGradient id="linear-gradient" x1="584.491" y1="45.223" x2="584.491" y2="104.751" gradientUnits="userSpaceOnUse">
      <stop offset="0" stop-color="#5ea0ef"/>
      <stop offset="0.18" stop-color="#559cec"/>
      <stop offset="0.47" stop-color="#3c91e5"/>
      <stop offset="0.84" stop-color="#1380da"/>
      <stop offset="1" stop-color="#0078d4"/>
    </linearGradient>
    <linearGradient id="linear-gradient-2" x1="584.491" y1="146.586" x2="584.491" y2="206.113" xlink:href="#linear-gradient"/>
    <linearGradient id="linear-gradient-3" x1="531.193" y1="1836.949" x2="531.193" y2="1800.654" gradientTransform="matrix(1, 0, 0, -1, 0, 1892.301)" gradientUnits="userSpaceOnUse">
      <stop offset="0.117" stop-color="#5ea0ef"/>
      <stop offset="0.271" stop-color="#4595e8"/>
      <stop offset="0.531" stop-color="#1f85dd"/>
      <stop offset="0.741" stop-color="#087cd6"/>
      <stop offset="0.873" stop-color="#0078d4"/>
    </linearGradient>
    <linearGradient id="linear-gradient-4" x1="-32.572" y1="1930.092" x2="-33.066" y2="1977.608" gradientTransform="matrix(1, 0, 0, -1, 564, 2126.301)" gradientUnits="userSpaceOnUse">
      <stop offset="0" stop-color="#198ab3"/>
      <stop offset="0.09" stop-color="#22a5cb"/>
      <stop offset="0.19" stop-color="#29bade"/>
      <stop offset="0.29" stop-color="#2ec9eb"/>
      <stop offset="0.42" stop-color="#31d1f3"/>
      <stop offset="0.62" stop-color="#32d4f5"/>
    </linearGradient>
    <linearGradient id="linear-gradient-5" x1="342.9" y1="1853.776" x2="342.9" y2="1822.139" gradientTransform="matrix(1, 0, 0, -1, 0, 1892.301)" gradientUnits="userSpaceOnUse">
      <stop offset="0.18" stop-color="#699cd3"/>
      <stop offset="1" stop-color="#2e76bc"/>
    </linearGradient>
    <linearGradient id="linear-gradient-6" x1="483.48" y1="1871.372" x2="475.653" y2="1848.248" gradientTransform="matrix(1, 0, 0, -1, 0, 1892.301)" gradientUnits="userSpaceOnUse">
      <stop offset="0" stop-color="#114a8b"/>
      <stop offset="1" stop-color="#0669bc"/>
    </linearGradient>
    <linearGradient id="linear-gradient-7" x1="485.869" y1="1860.69" x2="484.013" y2="1860.056" gradientTransform="matrix(1, 0, 0, -1, 0, 1892.301)" gradientUnits="userSpaceOnUse">
      <stop offset="0" stop-opacity="0.3"/>
      <stop offset="0.071" stop-opacity="0.2"/>
      <stop offset="0.321" stop-opacity="0.1"/>
      <stop offset="0.623" stop-opacity="0.05"/>
      <stop offset="1" stop-opacity="0"/>
    </linearGradient>
    <linearGradient id="linear-gradient-8" x1="484.916" y1="1872.047" x2="493.508" y2="1849.155" gradientTransform="matrix(1, 0, 0, -1, 0, 1892.301)" gradientUnits="userSpaceOnUse">
      <stop offset="0" stop-color="#3ccbf4"/>
      <stop offset="1" stop-color="#2892df"/>
    </linearGradient>
  </defs>
  <g id="Shapes">
    <rect width="691" height="223.551" fill="#fff"/>
    <g>
      <line x1="493.323" y1="73.951" x2="163.3" y2="73.951" fill="none" stroke="#3c3c41" stroke-miterlimit="10"/>
      <polygon points="492.229 70.211 498.706 73.951 492.229 77.69 492.229 70.211" fill="#3c3c41"/>
    </g>
    <g>
      <rect x="498.706" y="45.223" width="171.57" height="59.527" fill="#fff"/>
      <rect x="498.706" y="45.223" width="171.57" height="59.527" opacity="0.4" fill="url(#linear-gradient)"/>
    </g>
    <g>
      <rect x="498.706" y="146.586" width="171.57" height="59.527" fill="#fff"/>
      <rect x="498.706" y="146.586" width="171.57" height="59.527" opacity="0.4" fill="url(#linear-gradient-2)"/>
    </g>
    <g id="a3857c27-3253-4155-b620-22ae9cf301a7">
      <g>
        <path d="M544.079,72.355a12.073,12.073,0,0,0-12.39-11.4,12.423,12.423,0,0,0-11.648,7.93,11.631,11.631,0,0,0-9.912,10.9,11.43,11.43,0,0,0,11.7,11.159h21.023a9.417,9.417,0,0,0,9.408-9.424A9.552,9.552,0,0,0,544.079,72.355Z" fill="url(#linear-gradient-3)"/>
        <g>
          <polygon points="542.394 78.754 531.892 74.853 531.621 75.527 531.792 74.909 522.468 72.856 522.021 74.42 529.889 76.126 519.793 80.299 520.57 81.684 530.994 77.354 532.859 85.569 534.471 85.37 532.571 76.891 541.776 80.256 542.394 78.754" fill="#83b9f9"/>
          <path d="M520.85,75.014a2.062,2.062,0,1,0,.366-2.893h0l-.047.038A2.048,2.048,0,0,0,520.85,75.014Zm-2.34,7.3a2.073,2.073,0,1,0,.351-2.914,2.074,2.074,0,0,0-.351,2.914Zm21.677-1.8a2.052,2.052,0,1,0,.376-2.878l-.009.006h0a2.029,2.029,0,0,0-.379,2.841Z" fill="#9cebff"/>
          <path d="M532.037,86.84a2.053,2.053,0,1,0,.367-2.88h0a2.028,2.028,0,0,0-.4,2.842l0,.006Z" fill="#9cebff"/>
        </g>
        <path d="M537.6,76.039a.619.619,0,0,0,0-1.072l-4.531-2.621-4.545-2.619a.618.618,0,0,0-.848.211.611.611,0,0,0-.088.325v10.48a.618.618,0,0,0,.936.536l4.545-2.619Z" fill="#c3f1ff"/>
      </g>
    </g>
    <g>
      <circle id="fa3a22e9-e4e8-46a1-bc09-f9532747c739" cx="535.43" cy="177.898" r="3.479" fill="#fff"/>
      <circle id="eb214416-6791-4934-ac0c-35afaa829f6e" cx="541.257" cy="188.246" r="2.737" fill="#fff"/>
      <circle id="a4424413-b91f-48da-aedd-39e3a978b430" cx="530.433" cy="186.374" r="2.348" fill="#fff"/>
      <circle id="f7ecfc1a-3268-471b-9464-57023bfc9cc4" cx="528.738" cy="168.487" r="2.913" fill="#fff"/>
      <circle id="b4388938-ad80-41b4-b729-5c21e3eab320" cx="520.934" cy="179.223" r="2.348" fill="#fff"/>
      <polygon points="541.893 187.698 536.013 177.404 535.43 177.739 535.907 177.386 529.25 167.922 528.032 168.805 533.929 177.192 520.863 178.269 520.987 179.788 533.929 178.711 529.639 185.844 530.928 186.621 535.342 179.276 540.586 188.44 541.893 187.698" fill="#949494"/>
      <g>
        <path d="M546.254,165.167h0a1.289,1.289,0,0,0-1.289-1.289h-6.709a.636.636,0,0,0-.636.636V167a.635.635,0,0,0,.636.635h4.149V171.7a.671.671,0,0,0,.653.653h2.472a.672.672,0,0,0,.654-.653v-6.534Z" fill="#949494"/>
        <path d="M524.13,190.135h-4.221v-4.061a.671.671,0,0,0-.653-.654h-2.472a.671.671,0,0,0-.653.654v6.533h0a1.288,1.288,0,0,0,1.289,1.271h6.71a.635.635,0,0,0,.635-.635h0v-2.472A.635.635,0,0,0,524.13,190.135Z" fill="#949494"/>
      </g>
      <path d="M535.43,174.455a3.532,3.532,0,1,1-3.532,3.531c0-.03,0-.059,0-.088A3.532,3.532,0,0,1,535.43,174.455Zm-9.535-5.968a2.931,2.931,0,1,0,2.948-2.914c-.029,0-.058,0-.087,0A2.914,2.914,0,0,0,525.9,168.487Zm-7.31,10.718a2.349,2.349,0,1,0,2.349-2.348,2.349,2.349,0,0,0-2.349,2.348Zm9.5,7.151a2.366,2.366,0,1,0,2.384-2.348h-.018a2.349,2.349,0,0,0-2.366,2.331Zm10.453,1.89a2.737,2.737,0,1,0,2.755-2.72h-.018a2.7,2.7,0,0,0-2.737,2.666Z" fill="url(#linear-gradient-4)"/>
    </g>
    <g>
      <line x1="584.491" y1="104.751" x2="584.491" y2="140.787" fill="none" stroke="#3c3c41" stroke-miterlimit="10"/>
      <polygon points="580.751 139.692 584.491 146.169 588.231 139.692 580.751 139.692" fill="#3c3c41"/>
    </g>
    <g>
      <rect x="30.137" y="62.99" width="133.163" height="32.96" fill="#fff"/>
      <rect x="30.137" y="62.99" width="133.163" height="32.96" fill="#767676" opacity="0.3"/>
    </g>
    <g>
      <g>
        <polygon points="73.218 67.437 83.094 62.466 83.094 52.4 73.218 48.092 73.218 67.437" fill="#fff"/>
        <polygon points="73.218 67.437 83.094 62.466 83.094 52.4 73.218 48.092 73.218 67.437" fill="#3c3c41" opacity="0.85"/>
      </g>
      <g>
        <rect x="85.546" y="47.479" width="34.673" height="20" fill="#fff"/>
        <rect x="85.546" y="47.479" width="34.673" height="20" fill="#3c3c41" opacity="0.85"/>
      </g>
    </g>
    <path d="M442.209,83.513h1.125v1.125h-1.125Zm2.25,0h1.125v1.125h-1.125Zm3.375,1.125h-1.125V83.513h1.125Zm2.25,0h-1.125V83.513h1.125Zm1.125-1.125h1.125v1.125h-1.125Zm2.25,0h1.125v1.125h-1.125Zm-9,7.875h1.125v1.125h-1.125Zm2.25,0h1.125v1.125h-1.125Zm2.25,0h1.125v1.125h-1.125Zm2.25,0h1.125v1.125h-1.125Zm2.25,0h1.125v1.125h-1.125Zm2.25-13.5a2.165,2.165,0,0,1,.87.176,2.389,2.389,0,0,1,.721.483,2.1,2.1,0,0,1,.483.712,2.412,2.412,0,0,1,.176.879V91.95a2.715,2.715,0,0,1-.22,1.09,2.847,2.847,0,0,1-1.5,1.5,2.715,2.715,0,0,1-1.09.22H443.334v1.125h-.563a2.711,2.711,0,0,1-1.089-.22,2.92,2.92,0,0,1-.9-.6,2.713,2.713,0,0,1-.606-.9,2.78,2.78,0,0,1-.22-1.1v-9a2.711,2.711,0,0,1,.22-1.089,2.81,2.81,0,0,1,.6-.888,2.928,2.928,0,0,1,.9-.607,2.7,2.7,0,0,1,1.1-.228h11.813V77.888Zm0,3.375a1.079,1.079,0,0,0,.439-.088,1.148,1.148,0,0,0,.352-.237,1.213,1.213,0,0,0,.246-.361.955.955,0,0,0,.088-.439,1.087,1.087,0,0,0-.088-.44,1.156,1.156,0,0,0-.237-.351,1.213,1.213,0,0,0-.361-.246.942.942,0,0,0-.439-.088ZM441.084,93.075a1.648,1.648,0,0,0,.079.51,1.8,1.8,0,0,0,.229.466,1.472,1.472,0,0,0,.351.369,1.824,1.824,0,0,0,.466.246V86.835a3.329,3.329,0,0,1-.589-.193,2.641,2.641,0,0,1-.536-.317Zm14.062.563a1.648,1.648,0,0,0,.51-.079,1.818,1.818,0,0,0,.466-.229,1.489,1.489,0,0,0,.369-.351,1.824,1.824,0,0,0,.246-.466h-1.028V91.388h1.125v-6.75h-1.125V83.513h1.125V82.089a1.931,1.931,0,0,1-.721.255,5.616,5.616,0,0,1-.773.053h-.378q-.184,0-.378-.009H442.771a1.654,1.654,0,0,0-.659.132,1.675,1.675,0,0,0-.9.9,1.714,1.714,0,0,0,0,1.319,1.675,1.675,0,0,0,.9.9,1.654,1.654,0,0,0,.659.132h.563v7.875Zm-3.375-5.625-5.062,2.768V85.2Zm-3.937.87L449.442,88l-1.608-.9Z"/>
    <g>
      <rect x="483.291" y="32.387" width="202.4" height="186.764" rx="4" fill="none" stroke="#8bb6e1" stroke-miterlimit="10" opacity="0.7"/>
      <rect x="483.291" y="32.387" width="202.4" height="186.764" rx="4" fill="none" stroke="#005ca1" stroke-miterlimit="10" stroke-dasharray="6.011 4.007"/>
    </g>
    <g>
      <path d="M498.706,179.551H326.7a12.4,12.4,0,0,1-8.254-3.8L245.754,90.947a12.4,12.4,0,0,0-8.254-3.8H168.682" fill="none" stroke="#3c3c41" stroke-miterlimit="10"/>
      <polygon points="169.776 83.411 163.3 87.151 169.776 90.89 169.776 83.411" fill="#3c3c41"/>
    </g>
    <g>
      <rect x="240.244" y="50.767" width="4.446" height="141.984" fill="#fff"/>
      <rect x="240.244" y="50.767" width="4.446" height="141.984" fill="#505150" opacity="0.4"/>
    </g>
    <g>
      <path d="M250.467,42.771a.635.635,0,0,0-.635-.62H235.1a.635.635,0,0,0-.635.62v7.561a.635.635,0,0,0,.635.62h14.73a.635.635,0,0,0,.635-.62Z" fill="#821618"/>
      <rect x="235.359" y="43.028" width="4.34" height="1.921" fill="#e52526"/>
      <rect x="240.35" y="43.028" width="4.34" height="1.921" fill="#f27281"/>
      <rect x="245.34" y="43.028" width="4.34" height="1.921" fill="#e52526"/>
      <rect x="235.359" y="45.599" width="1.8" height="1.921" fill="#e52526"/>
      <rect x="247.881" y="45.599" width="1.8" height="1.921" fill="#f27281"/>
      <rect x="237.809" y="45.599" width="4.34" height="1.921" fill="#f27281"/>
      <rect x="242.815" y="45.599" width="4.34" height="1.921" fill="#e52526"/>
      <rect x="235.359" y="48.17" width="4.34" height="1.921" fill="#e52526"/>
      <rect x="240.35" y="48.17" width="4.34" height="1.921" fill="#f27281"/>
      <rect x="245.34" y="48.17" width="4.34" height="1.921" fill="#e52526"/>
    </g>
    <g>
      <rect x="340.299" y="50.767" width="5.201" height="141.984" fill="#fff"/>
      <rect x="340.299" y="50.767" width="5.201" height="141.984" fill="#1f56a3" opacity="0.4"/>
    </g>
    <path d="M358.729,57.938a7.21,7.21,0,0,0-6.178-6.991,9.08,9.08,0,0,0-9.256-8.8,9.3,9.3,0,0,0-8.794,6.156,8.553,8.553,0,0,0-7.431,8.355A8.8,8.8,0,0,0,336,65.15h15.632A7.3,7.3,0,0,0,358.729,57.938Z" fill="url(#linear-gradient-5)"/>
    <g>
      <path d="M479.6,19.967a1.2,1.2,0,0,1,1.137-.816h7.538l-7.824,23.183a1.2,1.2,0,0,1-1.137.817h-5.867a1.2,1.2,0,0,1-1.137-1.584Z" fill="url(#linear-gradient-6)"/>
      <path d="M491.646,34.751h-11.88a.55.55,0,0,0-.375.952l7.634,7.125a1.2,1.2,0,0,0,.818.323h6.727Z" fill="#0078d4"/>
      <path d="M488.27,19.151h-8.4l-8.1,24h8.4L481.9,38.04l5.475,5.111h7.2l-2.924-8.4h-8.641Z" fill="url(#linear-gradient-7)"/>
      <path d="M490.346,19.967a1.2,1.2,0,0,0-1.137-.816h-8.4a1.2,1.2,0,0,1,1.137.816l7.29,21.6a1.2,1.2,0,0,1-1.137,1.584h8.4a1.2,1.2,0,0,0,1.137-1.584Z" fill="url(#linear-gradient-8)"/>
    </g>
  </g>
  <g id="Text">
    <g>
      <path d="M506.628,25.551h-2.406l-.7-2.181h-3.487l-.69,2.181h-2.393l3.569-9.8h2.618Zm-3.609-3.876-1.053-3.3a4.331,4.331,0,0,1-.164-.882h-.055a3.7,3.7,0,0,1-.171.854l-1.066,3.323Z" fill="#2f2f2f"/>
      <path d="M513.533,25.551h-6.282v-.9l3.514-4.512H507.6V18.551h5.906v1.066l-3.329,4.341h3.356Z" fill="#2f2f2f"/>
      <path d="M521.416,25.551h-2.153V24.484h-.034a2.442,2.442,0,0,1-2.14,1.237q-2.433,0-2.434-2.946V18.551h2.154v4.033q0,1.484,1.176,1.483a1.162,1.162,0,0,0,.929-.407,1.637,1.637,0,0,0,.349-1.1V18.551h2.153Z" fill="#2f2f2f"/>
      <path d="M527.75,20.5a1.875,1.875,0,0,0-.909-.212,1.311,1.311,0,0,0-1.1.516,2.253,2.253,0,0,0-.4,1.4v3.343h-2.16v-7h2.16v1.3h.027a1.87,1.87,0,0,1,1.846-1.422,1.382,1.382,0,0,1,.533.083Z" fill="#2f2f2f"/>
      <path d="M535.122,22.666h-4.566q.11,1.524,1.921,1.524a3.745,3.745,0,0,0,2.03-.547V25.2a5.337,5.337,0,0,1-2.522.519,3.259,3.259,0,0,1-3.569-3.561,3.745,3.745,0,0,1,1.012-2.762,3.371,3.371,0,0,1,2.488-1.018,3.06,3.06,0,0,1,2.369.909,3.5,3.5,0,0,1,.837,2.468Zm-2-1.326q0-1.5-1.216-1.5a1.159,1.159,0,0,0-.9.43,1.95,1.95,0,0,0-.462,1.074Z" fill="#2f2f2f"/>
      <path d="M547.509,25.2a6.47,6.47,0,0,1-2.8.519,4.722,4.722,0,0,1-3.548-1.326,4.848,4.848,0,0,1-1.292-3.534,5.176,5.176,0,0,1,1.454-3.814,5.077,5.077,0,0,1,3.769-1.463,7.039,7.039,0,0,1,2.42.362v2.126a4.285,4.285,0,0,0-2.242-.588,2.979,2.979,0,0,0-2.229.868,3.223,3.223,0,0,0-.847,2.352,3.16,3.16,0,0,0,.8,2.266,2.826,2.826,0,0,0,2.154.844,4.587,4.587,0,0,0,2.365-.629Z" fill="#2f2f2f"/>
      <path d="M551.12,25.551h-2.16V15.187h2.16Z" fill="#2f2f2f"/>
      <path d="M556.264,25.721a3.76,3.76,0,0,1-2.751-.981,3.553,3.553,0,0,1-1-2.662,3.556,3.556,0,0,1,1.039-2.717,3.925,3.925,0,0,1,2.81-.981,3.717,3.717,0,0,1,2.734.981,3.483,3.483,0,0,1,.991,2.594,3.707,3.707,0,0,1-1.021,2.755A3.81,3.81,0,0,1,556.264,25.721Zm.055-5.687a1.44,1.44,0,0,0-1.19.526,2.326,2.326,0,0,0-.424,1.491q0,2.016,1.627,2.016,1.551,0,1.552-2.071Q557.884,20.034,556.319,20.034Z" fill="#2f2f2f"/>
      <path d="M568.117,25.551h-2.153V24.484h-.034a2.442,2.442,0,0,1-2.14,1.237q-2.433,0-2.433-2.946V18.551h2.153v4.033q0,1.484,1.176,1.483a1.162,1.162,0,0,0,.929-.407,1.637,1.637,0,0,0,.349-1.1V18.551h2.153Z" fill="#2f2f2f"/>
      <path d="M576.8,25.551h-2.16v-.964h-.028a2.422,2.422,0,0,1-2.167,1.134,2.651,2.651,0,0,1-2.112-.926,3.836,3.836,0,0,1-.8-2.587,4.171,4.171,0,0,1,.882-2.782,2.876,2.876,0,0,1,2.311-1.046,1.964,1.964,0,0,1,1.886.97h.028V15.187h2.16Zm-2.119-3.4V21.62a1.654,1.654,0,0,0-.4-1.135,1.4,1.4,0,0,0-2.153.113,2.618,2.618,0,0,0-.4,1.548,2.271,2.271,0,0,0,.389,1.422,1.385,1.385,0,0,0,2.151-.027A2.2,2.2,0,0,0,574.684,22.146Z" fill="#2f2f2f"/>
    </g>
    <g>
      <path d="M439.637,58.348l-3.63,9.8h-1.265l-3.554-9.8h1.278l2.714,7.772a4.7,4.7,0,0,1,.2.869h.027a4.276,4.276,0,0,1,.226-.882l2.769-7.759Z" fill="#2f2f2f"/>
      <path d="M441.548,59.373a.712.712,0,0,1-.513-.2.7.7,0,0,1-.212-.519.719.719,0,0,1,.725-.732.724.724,0,0,1,.523.209.7.7,0,0,1,.215.523.687.687,0,0,1-.215.512A.714.714,0,0,1,441.548,59.373Zm.547,8.778h-1.121v-7H442.1Z" fill="#2f2f2f"/>
      <path d="M450.238,68.151h-1.121v-1.19h-.027a2.586,2.586,0,0,1-2.406,1.354,2.618,2.618,0,0,1-2.109-.94,3.859,3.859,0,0,1-.79-2.56,4.2,4.2,0,0,1,.875-2.783,2.888,2.888,0,0,1,2.331-1.045,2.244,2.244,0,0,1,2.1,1.134h.027V57.787h1.121Zm-1.121-3.165V63.953a2,2,0,0,0-.56-1.435,1.879,1.879,0,0,0-1.422-.588,1.936,1.936,0,0,0-1.613.752,3.3,3.3,0,0,0-.588,2.078,2.965,2.965,0,0,0,.564,1.911,1.843,1.843,0,0,0,1.514.7,1.913,1.913,0,0,0,1.521-.676A2.521,2.521,0,0,0,449.117,64.986Z" fill="#2f2f2f"/>
      <path d="M458.06,64.931h-4.943a2.629,2.629,0,0,0,.629,1.805,2.173,2.173,0,0,0,1.655.635,3.431,3.431,0,0,0,2.173-.779v1.053a4.058,4.058,0,0,1-2.44.67,2.962,2.962,0,0,1-2.331-.953,3.907,3.907,0,0,1-.848-2.684,3.823,3.823,0,0,1,.927-2.662,2.965,2.965,0,0,1,2.3-1.029,2.632,2.632,0,0,1,2.126.888,3.7,3.7,0,0,1,.752,2.468Zm-1.149-.95a2.282,2.282,0,0,0-.467-1.511,1.6,1.6,0,0,0-1.283-.54,1.811,1.811,0,0,0-1.346.567,2.582,2.582,0,0,0-.684,1.484Z" fill="#2f2f2f"/>
      <path d="M462.712,68.315a3.247,3.247,0,0,1-2.478-.981,3.631,3.631,0,0,1-.926-2.6,3.784,3.784,0,0,1,.964-2.755,3.466,3.466,0,0,1,2.6-.991,3.141,3.141,0,0,1,2.444.963,3.828,3.828,0,0,1,.878,2.673,3.76,3.76,0,0,1-.947,2.684A3.316,3.316,0,0,1,462.712,68.315Zm.082-6.385a2.131,2.131,0,0,0-1.709.735,3.014,3.014,0,0,0-.629,2.027,2.854,2.854,0,0,0,.636,1.962,2.162,2.162,0,0,0,1.7.717,2.047,2.047,0,0,0,1.671-.7,3.051,3.051,0,0,0,.585-2,3.1,3.1,0,0,0-.585-2.023A2.04,2.04,0,0,0,462.794,61.93Z" fill="#2f2f2f"/>
    </g>
    <g>
      <path d="M413.684,170.341a5.761,5.761,0,0,1-2.707.574,4.364,4.364,0,0,1-3.35-1.347,4.968,4.968,0,0,1-1.258-3.534,5.21,5.21,0,0,1,1.415-3.8,4.8,4.8,0,0,1,3.589-1.449,5.758,5.758,0,0,1,2.311.4v1.224a4.686,4.686,0,0,0-2.324-.588,3.569,3.569,0,0,0-2.739,1.128,4.252,4.252,0,0,0-1.049,3.015,4.05,4.05,0,0,0,.981,2.854,3.341,3.341,0,0,0,2.574,1.063,4.826,4.826,0,0,0,2.557-.657Z" fill="#2f2f2f"/>
      <path d="M418.233,170.915a3.248,3.248,0,0,1-2.479-.981,3.636,3.636,0,0,1-.926-2.6,3.788,3.788,0,0,1,.964-2.755,3.466,3.466,0,0,1,2.605-.991,3.136,3.136,0,0,1,2.443.964,3.817,3.817,0,0,1,.879,2.672,3.756,3.756,0,0,1-.947,2.683A3.315,3.315,0,0,1,418.233,170.915Zm.082-6.385a2.131,2.131,0,0,0-1.709.735,3.014,3.014,0,0,0-.629,2.027,2.86,2.86,0,0,0,.635,1.962,2.164,2.164,0,0,0,1.7.717,2.048,2.048,0,0,0,1.671-.7,3.058,3.058,0,0,0,.585-2,3.11,3.11,0,0,0-.585-2.023A2.041,2.041,0,0,0,418.315,164.53Z" fill="#2f2f2f"/>
      <path d="M433.373,170.751h-1.121v-4.02a3.032,3.032,0,0,0-.358-1.681,1.362,1.362,0,0,0-1.207-.52,1.494,1.494,0,0,0-1.22.656,2.513,2.513,0,0,0-.5,1.573v3.992h-1.121v-4.157q0-2.064-1.593-2.064a1.476,1.476,0,0,0-1.217.619,2.562,2.562,0,0,0-.478,1.61v3.992h-1.121v-7h1.121v1.107h.027a2.378,2.378,0,0,1,2.174-1.271,2.021,2.021,0,0,1,1.982,1.449,2.5,2.5,0,0,1,2.325-1.449q2.312,0,2.31,2.85Z" fill="#2f2f2f"/>
      <path d="M445.34,170.751h-1.121v-4.02a3.031,3.031,0,0,0-.359-1.681,1.361,1.361,0,0,0-1.206-.52,1.5,1.5,0,0,0-1.221.656,2.512,2.512,0,0,0-.5,1.573v3.992H439.81v-4.157q0-2.064-1.593-2.064a1.475,1.475,0,0,0-1.217.619,2.556,2.556,0,0,0-.478,1.61v3.992H435.4v-7h1.121v1.107h.027a2.376,2.376,0,0,1,2.174-1.271,2.021,2.021,0,0,1,1.982,1.449,2.5,2.5,0,0,1,2.324-1.449q2.312,0,2.311,2.85Z" fill="#2f2f2f"/>
      <path d="M452.377,170.751h-1.121v-1.094h-.027a2.348,2.348,0,0,1-2.154,1.258,2.3,2.3,0,0,1-1.636-.554,1.916,1.916,0,0,1-.592-1.47q0-1.962,2.31-2.283l2.1-.294q0-1.783-1.442-1.784a3.451,3.451,0,0,0-2.284.861v-1.148a4.338,4.338,0,0,1,2.379-.656q2.469,0,2.468,2.611Zm-1.121-3.541-1.688.232a2.748,2.748,0,0,0-1.176.386,1.116,1.116,0,0,0-.4.981,1.067,1.067,0,0,0,.367.838,1.412,1.412,0,0,0,.973.324,1.8,1.8,0,0,0,1.378-.584,2.09,2.09,0,0,0,.543-1.48Z" fill="#2f2f2f"/>
      <path d="M460.208,170.751h-1.121v-3.992q0-2.229-1.627-2.229a1.767,1.767,0,0,0-1.391.632,2.345,2.345,0,0,0-.55,1.6v3.992H454.4v-7h1.121v1.162h.027a2.526,2.526,0,0,1,2.3-1.326,2.143,2.143,0,0,1,1.757.741,3.309,3.309,0,0,1,.608,2.143Z" fill="#2f2f2f"/>
      <path d="M468.282,170.751h-1.121v-1.19h-.027a2.588,2.588,0,0,1-2.406,1.354,2.619,2.619,0,0,1-2.11-.94,3.858,3.858,0,0,1-.789-2.56,4.19,4.19,0,0,1,.875-2.782,2.884,2.884,0,0,1,2.331-1.046,2.246,2.246,0,0,1,2.1,1.134h.027v-4.334h1.121Zm-1.121-3.165v-1.033a2.006,2.006,0,0,0-.56-1.435,1.881,1.881,0,0,0-1.422-.588,1.934,1.934,0,0,0-1.613.752,3.288,3.288,0,0,0-.588,2.078,2.965,2.965,0,0,0,.563,1.911,1.844,1.844,0,0,0,1.515.7,1.912,1.912,0,0,0,1.52-.676A2.52,2.52,0,0,0,467.161,167.586Z" fill="#2f2f2f"/>
      <path d="M470.045,170.5v-1.2a3.319,3.319,0,0,0,2.017.676q1.476,0,1.476-.984a.856.856,0,0,0-.126-.475,1.269,1.269,0,0,0-.341-.345,2.639,2.639,0,0,0-.506-.27c-.195-.08-.4-.163-.626-.25a8.145,8.145,0,0,1-.817-.372,2.5,2.5,0,0,1-.588-.424,1.563,1.563,0,0,1-.355-.537,1.89,1.89,0,0,1-.12-.7,1.672,1.672,0,0,1,.225-.871,2.017,2.017,0,0,1,.6-.636,2.8,2.8,0,0,1,.858-.386,3.792,3.792,0,0,1,.994-.13,4.022,4.022,0,0,1,1.627.314v1.135a3.161,3.161,0,0,0-1.777-.506,2.074,2.074,0,0,0-.567.072,1.4,1.4,0,0,0-.434.2.921.921,0,0,0-.28.312.8.8,0,0,0-.1.4.946.946,0,0,0,.1.458,1.007,1.007,0,0,0,.29.329,2.25,2.25,0,0,0,.465.259q.273.117.622.253a8.594,8.594,0,0,1,.834.366,2.856,2.856,0,0,1,.629.424,1.65,1.65,0,0,1,.4.543,1.76,1.76,0,0,1,.14.732,1.721,1.721,0,0,1-.229.9,1.965,1.965,0,0,1-.612.636,2.812,2.812,0,0,1-.882.376,4.35,4.35,0,0,1-1.046.123A3.972,3.972,0,0,1,470.045,170.5Z" fill="#2f2f2f"/>
    </g>
    <g>
      <path d="M598,127.09a5.758,5.758,0,0,1-2.707.574,4.366,4.366,0,0,1-3.35-1.347,4.972,4.972,0,0,1-1.257-3.534,5.205,5.205,0,0,1,1.415-3.8,4.8,4.8,0,0,1,3.589-1.449,5.753,5.753,0,0,1,2.31.4v1.224a4.684,4.684,0,0,0-2.324-.588,3.567,3.567,0,0,0-2.738,1.128,4.248,4.248,0,0,0-1.049,3.015,4.049,4.049,0,0,0,.98,2.854,3.342,3.342,0,0,0,2.574,1.063,4.826,4.826,0,0,0,2.557-.657Z" fill="#2f2f2f"/>
      <path d="M602.552,127.664a3.251,3.251,0,0,1-2.479-.981,3.635,3.635,0,0,1-.925-2.6,3.784,3.784,0,0,1,.964-2.755,3.462,3.462,0,0,1,2.6-.991,3.136,3.136,0,0,1,2.443.964,3.817,3.817,0,0,1,.879,2.672,3.76,3.76,0,0,1-.947,2.684A3.318,3.318,0,0,1,602.552,127.664Zm.082-6.385a2.131,2.131,0,0,0-1.709.735,3.014,3.014,0,0,0-.629,2.027,2.855,2.855,0,0,0,.636,1.962,2.162,2.162,0,0,0,1.7.717,2.047,2.047,0,0,0,1.671-.7,3.053,3.053,0,0,0,.585-2,3.1,3.1,0,0,0-.585-2.023A2.04,2.04,0,0,0,602.634,121.279Z" fill="#2f2f2f"/>
      <path d="M617.693,127.5h-1.122v-4.02a3.032,3.032,0,0,0-.358-1.681,1.36,1.36,0,0,0-1.207-.52,1.5,1.5,0,0,0-1.22.656,2.513,2.513,0,0,0-.5,1.573V127.5h-1.121v-4.156q0-2.065-1.592-2.065a1.474,1.474,0,0,0-1.217.619,2.557,2.557,0,0,0-.479,1.61V127.5h-1.121v-7h1.121v1.107h.028a2.379,2.379,0,0,1,2.173-1.271,2.024,2.024,0,0,1,1.983,1.449,2.5,2.5,0,0,1,2.324-1.449q2.312,0,2.311,2.85Z" fill="#2f2f2f"/>
      <path d="M629.659,127.5h-1.121v-4.02a3.031,3.031,0,0,0-.359-1.681,1.36,1.36,0,0,0-1.206-.52,1.5,1.5,0,0,0-1.221.656,2.512,2.512,0,0,0-.5,1.573V127.5h-1.121v-4.156q0-2.065-1.593-2.065a1.472,1.472,0,0,0-1.216.619,2.551,2.551,0,0,0-.479,1.61V127.5H619.72v-7h1.121v1.107h.027a2.378,2.378,0,0,1,2.174-1.271,2.024,2.024,0,0,1,1.983,1.449,2.5,2.5,0,0,1,2.324-1.449q2.31,0,2.31,2.85Z" fill="#2f2f2f"/>
      <path d="M636.7,127.5h-1.121v-1.094h-.027a2.347,2.347,0,0,1-2.153,1.258,2.3,2.3,0,0,1-1.637-.554,1.916,1.916,0,0,1-.592-1.47q0-1.962,2.311-2.283l2.1-.294q0-1.784-1.442-1.784a3.446,3.446,0,0,0-2.283.861v-1.148a4.333,4.333,0,0,1,2.379-.656q2.467,0,2.467,2.611Zm-1.121-3.541-1.688.232a2.753,2.753,0,0,0-1.176.386,1.116,1.116,0,0,0-.4.981,1.07,1.07,0,0,0,.366.838,1.412,1.412,0,0,0,.973.324,1.8,1.8,0,0,0,1.378-.584,2.086,2.086,0,0,0,.543-1.48Z" fill="#2f2f2f"/>
      <path d="M644.528,127.5h-1.122v-3.992q0-2.229-1.627-2.229a1.767,1.767,0,0,0-1.391.632,2.35,2.35,0,0,0-.55,1.6V127.5h-1.121v-7h1.121v1.162h.027a2.527,2.527,0,0,1,2.3-1.326,2.143,2.143,0,0,1,1.757.741,3.309,3.309,0,0,1,.609,2.143Z" fill="#2f2f2f"/>
      <path d="M652.6,127.5h-1.121v-1.19h-.028a2.587,2.587,0,0,1-2.406,1.354,2.616,2.616,0,0,1-2.109-.94,3.853,3.853,0,0,1-.789-2.56,4.19,4.19,0,0,1,.875-2.782,2.883,2.883,0,0,1,2.331-1.046,2.243,2.243,0,0,1,2.1,1.134h.028v-4.334H652.6Zm-1.121-3.165V123.3a2.007,2.007,0,0,0-.561-1.435,1.881,1.881,0,0,0-1.422-.588,1.937,1.937,0,0,0-1.613.752,3.288,3.288,0,0,0-.588,2.078,2.965,2.965,0,0,0,.564,1.911,1.842,1.842,0,0,0,1.514.7,1.916,1.916,0,0,0,1.521-.676A2.525,2.525,0,0,0,651.481,124.335Z" fill="#2f2f2f"/>
      <path d="M654.364,127.247v-1.2a3.324,3.324,0,0,0,2.017.676q1.476,0,1.477-.984a.856.856,0,0,0-.126-.475,1.273,1.273,0,0,0-.342-.345,2.639,2.639,0,0,0-.506-.27c-.194-.08-.4-.163-.626-.25a8.02,8.02,0,0,1-.816-.372,2.463,2.463,0,0,1-.588-.424,1.552,1.552,0,0,1-.356-.537,1.89,1.89,0,0,1-.12-.7,1.663,1.663,0,0,1,.226-.871,2,2,0,0,1,.6-.636,2.791,2.791,0,0,1,.859-.386,3.781,3.781,0,0,1,.994-.13,4.029,4.029,0,0,1,1.627.314v1.135a3.175,3.175,0,0,0-1.778-.506,2.074,2.074,0,0,0-.567.072,1.414,1.414,0,0,0-.434.2.932.932,0,0,0-.28.312.814.814,0,0,0-.1.4.958.958,0,0,0,.1.458,1.019,1.019,0,0,0,.29.329,2.25,2.25,0,0,0,.465.259q.274.117.622.253a8.487,8.487,0,0,1,.834.366,2.856,2.856,0,0,1,.629.424,1.636,1.636,0,0,1,.4.543,1.76,1.76,0,0,1,.14.732,1.73,1.73,0,0,1-.228.9,1.979,1.979,0,0,1-.613.636,2.812,2.812,0,0,1-.882.376,4.344,4.344,0,0,1-1.046.123A3.978,3.978,0,0,1,654.364,127.247Z" fill="#2f2f2f"/>
    </g>
    <g>
      <path d="M574.863,70.052h-2.406l-.7-2.181h-3.486l-.691,2.181h-2.392l3.568-9.8h2.618Zm-3.609-3.876-1.053-3.3a4.263,4.263,0,0,1-.164-.882h-.054a3.813,3.813,0,0,1-.171.855l-1.067,3.322Z" fill="#2f2f2f"/>
      <path d="M581.769,70.052h-6.282v-.9L579,64.645h-3.165V63.052h5.906v1.066l-3.329,4.341h3.357Z" fill="#2f2f2f"/>
      <path d="M589.651,70.052H587.5V68.986h-.034a2.442,2.442,0,0,1-2.14,1.237q-2.433,0-2.433-2.946V63.052h2.153v4.033q0,1.484,1.176,1.484a1.164,1.164,0,0,0,.93-.407,1.642,1.642,0,0,0,.348-1.1V63.052h2.154Z" fill="#2f2f2f"/>
      <path d="M595.986,65a1.893,1.893,0,0,0-.91-.212,1.306,1.306,0,0,0-1.1.517,2.246,2.246,0,0,0-.4,1.4v3.343h-2.16v-7h2.16v1.3h.028a1.869,1.869,0,0,1,1.845-1.422,1.39,1.39,0,0,1,.534.082Z" fill="#2f2f2f"/>
      <path d="M603.358,67.167h-4.567q.109,1.525,1.921,1.525a3.743,3.743,0,0,0,2.03-.547V69.7a5.319,5.319,0,0,1-2.522.52,3.258,3.258,0,0,1-3.568-3.562,3.746,3.746,0,0,1,1.011-2.761,3.372,3.372,0,0,1,2.489-1.019,3.065,3.065,0,0,1,2.369.909,3.509,3.509,0,0,1,.837,2.468Zm-2-1.326q0-1.5-1.217-1.5a1.163,1.163,0,0,0-.9.431,1.956,1.956,0,0,0-.461,1.073Z" fill="#2f2f2f"/>
      <path d="M616.879,60.249l-3.377,9.8H611l-3.336-9.8h2.379l2.044,6.823a4.856,4.856,0,0,1,.2.977h.041a5.669,5.669,0,0,1,.212-1.005l2.031-6.795Z" fill="#2f2f2f"/>
      <path d="M619.008,61.945a1.267,1.267,0,0,1-.9-.325,1.047,1.047,0,0,1-.348-.8,1.009,1.009,0,0,1,.348-.792,1.462,1.462,0,0,1,1.8,0,1.012,1.012,0,0,1,.345.792,1.041,1.041,0,0,1-.345.807A1.282,1.282,0,0,1,619.008,61.945Zm1.066,8.107h-2.16v-7h2.16Z" fill="#2f2f2f"/>
      <path d="M628.726,70.052h-2.16v-.964h-.028a2.422,2.422,0,0,1-2.167,1.135,2.654,2.654,0,0,1-2.112-.926,3.837,3.837,0,0,1-.8-2.588,4.173,4.173,0,0,1,.882-2.782,2.876,2.876,0,0,1,2.311-1.046,1.965,1.965,0,0,1,1.886.971h.028V59.689h2.16Zm-2.119-3.4v-.527a1.656,1.656,0,0,0-.4-1.134,1.4,1.4,0,0,0-2.153.113,2.608,2.608,0,0,0-.4,1.548,2.264,2.264,0,0,0,.389,1.422,1.383,1.383,0,0,0,2.15-.028A2.189,2.189,0,0,0,626.607,66.648Z" fill="#2f2f2f"/>
      <path d="M636.833,67.167h-4.566q.108,1.525,1.921,1.525a3.75,3.75,0,0,0,2.03-.547V69.7a5.325,5.325,0,0,1-2.522.52,3.259,3.259,0,0,1-3.569-3.562,3.743,3.743,0,0,1,1.012-2.761,3.37,3.37,0,0,1,2.488-1.019A3.059,3.059,0,0,1,636,63.79a3.5,3.5,0,0,1,.838,2.468Zm-2-1.326q0-1.5-1.217-1.5a1.163,1.163,0,0,0-.9.431,1.956,1.956,0,0,0-.461,1.073Z" fill="#2f2f2f"/>
      <path d="M641.535,70.223a3.762,3.762,0,0,1-2.751-.981,4.055,4.055,0,0,1,.037-5.379,3.926,3.926,0,0,1,2.81-.982,3.712,3.712,0,0,1,2.734.982,3.479,3.479,0,0,1,.992,2.593,3.7,3.7,0,0,1-1.022,2.755A3.8,3.8,0,0,1,641.535,70.223Zm.055-5.688a1.441,1.441,0,0,0-1.189.527,2.317,2.317,0,0,0-.424,1.49q0,2.017,1.627,2.017,1.553,0,1.551-2.072Q643.155,64.536,641.59,64.535Z" fill="#2f2f2f"/>
      <path d="M574.863,86.852h-2.406l-.7-2.181h-3.486l-.691,2.181h-2.392l3.568-9.8h2.618Zm-3.609-3.876-1.053-3.3a4.263,4.263,0,0,1-.164-.882h-.054a3.824,3.824,0,0,1-.171.855l-1.067,3.322Z" fill="#2f2f2f"/>
      <path d="M582.62,86.852h-2.153v-3.89q0-1.626-1.162-1.627a1.153,1.153,0,0,0-.923.431,1.639,1.639,0,0,0-.362,1.094v3.992h-2.16v-7h2.16v1.107h.027a2.478,2.478,0,0,1,2.249-1.278q2.323,0,2.324,2.885Z" fill="#2f2f2f"/>
      <path d="M590.186,86.852h-2.044V85.847h-.028a2.281,2.281,0,0,1-2.085,1.176,2.186,2.186,0,0,1-1.6-.577,2.072,2.072,0,0,1-.584-1.542q0-2.037,2.413-2.352l1.9-.253q0-1.149-1.244-1.148a4.253,4.253,0,0,0-2.379.745V80.269a5.425,5.425,0,0,1,1.234-.41,6.46,6.46,0,0,1,1.426-.178,2.643,2.643,0,0,1,2.994,2.987Zm-2.031-2.844v-.472l-1.271.164q-1.053.138-1.053.951a.784.784,0,0,0,.256.605.986.986,0,0,0,.694.235,1.281,1.281,0,0,0,.992-.419A1.522,1.522,0,0,0,588.155,84.008Z" fill="#2f2f2f"/>
      <path d="M594.043,86.852h-2.16V76.489h2.16Z" fill="#2f2f2f"/>
      <path d="M602.568,79.852l-2.844,7.56q-1.026,2.728-3.09,2.728a3.952,3.952,0,0,1-1.292-.178V88.24a1.824,1.824,0,0,0,.937.252,1.169,1.169,0,0,0,1.162-.786l.369-.868-2.844-6.986h2.393l1.3,4.259a5.485,5.485,0,0,1,.192.936h.027a6.5,6.5,0,0,1,.226-.923l1.319-4.272Z" fill="#2f2f2f"/>
      <path d="M609.226,86.852h-6.282v-.9l3.513-4.511h-3.165V79.852H609.2v1.066l-3.329,4.341h3.357Z" fill="#2f2f2f"/>
      <path d="M616.677,83.967h-4.566q.109,1.525,1.92,1.524a3.746,3.746,0,0,0,2.031-.546V86.5a5.326,5.326,0,0,1-2.523.52,3.258,3.258,0,0,1-3.568-3.562,3.751,3.751,0,0,1,1.012-2.762,3.373,3.373,0,0,1,2.488-1.018,3.065,3.065,0,0,1,2.369.909,3.5,3.5,0,0,1,.837,2.468Zm-2-1.326q0-1.5-1.217-1.5a1.163,1.163,0,0,0-.9.431,1.957,1.957,0,0,0-.462,1.073Z" fill="#2f2f2f"/>
      <path d="M622.609,81.8a1.879,1.879,0,0,0-.91-.212,1.308,1.308,0,0,0-1.1.517,2.25,2.25,0,0,0-.4,1.4v3.343h-2.16v-7h2.16v1.3h.028a1.868,1.868,0,0,1,1.845-1.422,1.384,1.384,0,0,1,.534.082Z" fill="#2f2f2f"/>
    </g>
    <g>
      <path d="M567.029,181.786h-2.208v-9.8h2.208Z" fill="#2f2f2f"/>
      <path d="M572.344,181.957a3.764,3.764,0,0,1-2.752-.981,4.057,4.057,0,0,1,.038-5.38,3.929,3.929,0,0,1,2.81-.981,3.721,3.721,0,0,1,2.734.981,3.491,3.491,0,0,1,.991,2.595,3.7,3.7,0,0,1-1.022,2.755A3.8,3.8,0,0,1,572.344,181.957Zm.055-5.687a1.44,1.44,0,0,0-1.19.526,2.319,2.319,0,0,0-.424,1.49q0,2.017,1.627,2.017,1.551,0,1.552-2.071Q573.964,176.27,572.4,176.27Z" fill="#2f2f2f"/>
      <path d="M583.623,173.781h-2.8v8h-2.215v-8H575.83v-1.8h7.793Z" fill="#2f2f2f"/>
      <path d="M597.288,181.786h-2.215v-3.992h-4.06v3.992H588.8v-9.8h2.208v3.91h4.06v-3.91h2.215Z" fill="#2f2f2f"/>
      <path d="M605.929,181.786h-2.153V180.72h-.035a2.441,2.441,0,0,1-2.139,1.237q-2.433,0-2.434-2.946v-4.225h2.153v4.034q0,1.482,1.176,1.483a1.163,1.163,0,0,0,.93-.407,1.642,1.642,0,0,0,.349-1.1v-4.006h2.153Z" fill="#2f2f2f"/>
      <path d="M609.885,180.973h-.027v.813H607.7V171.423h2.161v4.416h.027a2.563,2.563,0,0,1,2.276-1.224,2.5,2.5,0,0,1,2.085.93,4.007,4.007,0,0,1,.732,2.543,4.342,4.342,0,0,1-.855,2.81,2.785,2.785,0,0,1-2.283,1.059A2.2,2.2,0,0,1,609.885,180.973Zm-.062-2.953v.718a1.639,1.639,0,0,0,.39,1.121,1.268,1.268,0,0,0,1,.444,1.324,1.324,0,0,0,1.145-.571,2.755,2.755,0,0,0,.407-1.617,2.186,2.186,0,0,0-.373-1.356,1.257,1.257,0,0,0-1.063-.489,1.372,1.372,0,0,0-1.077.485A1.848,1.848,0,0,0,609.823,178.02Z" fill="#2f2f2f"/>
    </g>
    <g>
      <path d="M58.806,85.463h-.985v-8.4h.985Z"/>
      <path d="M63.394,85.6a2.784,2.784,0,0,1-2.124-.841,3.113,3.113,0,0,1-.794-2.23,3.245,3.245,0,0,1,.826-2.361,2.971,2.971,0,0,1,2.232-.849,2.69,2.69,0,0,1,2.1.826,3.273,3.273,0,0,1,.753,2.291,3.225,3.225,0,0,1-.811,2.3A2.846,2.846,0,0,1,63.394,85.6Zm.07-5.473a1.829,1.829,0,0,0-1.465.63A2.589,2.589,0,0,0,61.46,82.5a2.449,2.449,0,0,0,.545,1.682,1.852,1.852,0,0,0,1.459.615,1.758,1.758,0,0,0,1.433-.6,2.621,2.621,0,0,0,.5-1.717,2.667,2.667,0,0,0-.5-1.735A1.75,1.75,0,0,0,63.464,80.131Z"/>
      <path d="M73.015,77.951H70.589v7.512h-.984V77.951h-2.42v-.89h5.83Z"/>
      <path d="M77.62,85.463v-8.4h2.321q4.441,0,4.441,4.095a4.128,4.128,0,0,1-1.233,3.126,4.573,4.573,0,0,1-3.3,1.181Zm.985-7.512v6.622h1.254a3.558,3.558,0,0,0,2.572-.885,3.318,3.318,0,0,0,.92-2.508q0-3.228-3.434-3.229Z"/>
      <path d="M90.728,82.7H86.491a2.249,2.249,0,0,0,.539,1.547,1.857,1.857,0,0,0,1.418.545,2.947,2.947,0,0,0,1.864-.668v.9a3.49,3.49,0,0,1-2.092.574,2.535,2.535,0,0,1-2-.818,3.341,3.341,0,0,1-.727-2.3,3.284,3.284,0,0,1,.794-2.283,2.546,2.546,0,0,1,1.972-.881,2.253,2.253,0,0,1,1.822.761,3.175,3.175,0,0,1,.645,2.115Zm-.985-.814a1.954,1.954,0,0,0-.4-1.3,1.367,1.367,0,0,0-1.1-.463,1.552,1.552,0,0,0-1.154.486,2.21,2.21,0,0,0-.586,1.272Z"/>
      <path d="M96.9,79.463l-2.391,6h-.943l-2.274-6h1.055l1.523,4.36a3.844,3.844,0,0,1,.211.837H94.1a3.959,3.959,0,0,1,.187-.814l1.594-4.383Z"/>
      <path d="M98.421,77.94a.608.608,0,0,1-.439-.176.594.594,0,0,1-.182-.445.615.615,0,0,1,.621-.627.619.619,0,0,1,.448.178.6.6,0,0,1,.185.449.6.6,0,0,1-.185.439A.615.615,0,0,1,98.421,77.94Zm.469,7.523h-.961v-6h.961Z"/>
      <path d="M104.925,85.188a3.127,3.127,0,0,1-1.641.416,2.718,2.718,0,0,1-2.071-.835,3.029,3.029,0,0,1-.788-2.165,3.324,3.324,0,0,1,.85-2.382,2.969,2.969,0,0,1,2.267-.9,3.163,3.163,0,0,1,1.395.292V80.6a2.442,2.442,0,0,0-1.43-.469A1.935,1.935,0,0,0,102,80.79a2.506,2.506,0,0,0-.589,1.732,2.382,2.382,0,0,0,.554,1.664,1.908,1.908,0,0,0,1.485.609,2.412,2.412,0,0,0,1.477-.521Z"/>
      <path d="M111.2,82.7h-4.236a2.245,2.245,0,0,0,.539,1.547,1.857,1.857,0,0,0,1.418.545,2.942,2.942,0,0,0,1.863-.668v.9a3.485,3.485,0,0,1-2.091.574,2.535,2.535,0,0,1-2-.818,3.341,3.341,0,0,1-.727-2.3,3.284,3.284,0,0,1,.794-2.283,2.544,2.544,0,0,1,1.972-.881,2.255,2.255,0,0,1,1.822.761A3.174,3.174,0,0,1,111.2,82.2Zm-.984-.814a1.96,1.96,0,0,0-.4-1.3,1.367,1.367,0,0,0-1.1-.463,1.552,1.552,0,0,0-1.154.486,2.2,2.2,0,0,0-.586,1.272Z"/>
      <path d="M115.677,85.123v-1.16a2.286,2.286,0,0,0,.477.317,4.032,4.032,0,0,0,.586.237,4.758,4.758,0,0,0,.619.149,3.46,3.46,0,0,0,.574.053,2.246,2.246,0,0,0,1.356-.337,1.264,1.264,0,0,0,.3-1.561,1.676,1.676,0,0,0-.413-.46,4.1,4.1,0,0,0-.624-.4q-.36-.191-.776-.4-.44-.224-.821-.451a3.623,3.623,0,0,1-.662-.5,2.113,2.113,0,0,1-.442-.624,2.129,2.129,0,0,1,.091-1.817,2.161,2.161,0,0,1,.662-.7,2.994,2.994,0,0,1,.934-.41,4.276,4.276,0,0,1,1.07-.135,4.1,4.1,0,0,1,1.81.3v1.107a3.287,3.287,0,0,0-1.91-.515,3.14,3.14,0,0,0-.645.067,1.819,1.819,0,0,0-.574.22,1.271,1.271,0,0,0-.41.392,1.049,1.049,0,0,0-.158.586,1.208,1.208,0,0,0,.12.557,1.36,1.36,0,0,0,.355.428,3.487,3.487,0,0,0,.571.375q.336.181.776.4t.856.469a3.932,3.932,0,0,1,.709.545,2.419,2.419,0,0,1,.483.662,1.864,1.864,0,0,1,.179.832,2.112,2.112,0,0,1-.243,1.052,2,2,0,0,1-.657.7,2.849,2.849,0,0,1-.952.39,5.216,5.216,0,0,1-1.137.12,4.778,4.778,0,0,1-.492-.032q-.292-.033-.6-.094a4.776,4.776,0,0,1-.578-.153A1.748,1.748,0,0,1,115.677,85.123Z"/>
      <path d="M122.445,85.463v-8.4h2.32q4.442,0,4.441,4.095a4.128,4.128,0,0,1-1.233,3.126,4.572,4.572,0,0,1-3.3,1.181Zm.984-7.512v6.622h1.254a3.558,3.558,0,0,0,2.572-.885,3.318,3.318,0,0,0,.92-2.508q0-3.228-3.434-3.229Z"/>
      <path d="M136.706,85.463h-1.371l-3.246-3.844a2.38,2.38,0,0,1-.223-.293h-.023v4.137h-.984v-8.4h.984V81.01h.023a2.29,2.29,0,0,1,.223-.287l3.141-3.662h1.224l-3.6,4.031Z"/>
    </g>
    <g>
      <path d="M10.671,19.78H8.463v-9.8h2.208Z" fill="#2f2f2f"/>
      <path d="M15.986,19.951a3.762,3.762,0,0,1-2.751-.981,3.556,3.556,0,0,1-1-2.663,3.556,3.556,0,0,1,1.039-2.717,3.928,3.928,0,0,1,2.81-.981,3.717,3.717,0,0,1,2.734.981,3.486,3.486,0,0,1,.991,2.594,3.7,3.7,0,0,1-1.022,2.755A3.8,3.8,0,0,1,15.986,19.951Zm.055-5.688a1.442,1.442,0,0,0-1.19.527,2.323,2.323,0,0,0-.424,1.49q0,2.016,1.627,2.017,1.552,0,1.552-2.072Q17.606,14.263,16.041,14.263Z" fill="#2f2f2f"/>
      <path d="M27.265,11.775h-2.8V19.78H22.255V11.775H19.472v-1.8h7.793Z" fill="#2f2f2f"/>
      <path d="M39.611,16.465H36.979V19.1H35.6V16.465H32.953V15.077H35.6V12.431h1.381v2.646h2.632Z" fill="#2f2f2f"/>
      <path d="M54.828,19.78H52.422l-.7-2.181H48.238l-.69,2.181H45.155l3.568-9.8h2.619ZM51.218,15.9l-1.052-3.295A4.2,4.2,0,0,1,50,11.727h-.055a3.769,3.769,0,0,1-.171.855L48.71,15.9Z" fill="#2f2f2f"/>
      <path d="M61.734,19.78H55.451v-.895l3.514-4.512H55.8V12.78h5.906v1.066l-3.329,4.341h3.357Z" fill="#2f2f2f"/>
      <path d="M69.615,19.78H67.462V18.714h-.034a2.445,2.445,0,0,1-2.14,1.237q-2.433,0-2.433-2.946V12.78h2.153v4.033q0,1.484,1.176,1.484a1.162,1.162,0,0,0,.929-.407,1.637,1.637,0,0,0,.349-1.1V12.78h2.153Z" fill="#2f2f2f"/>
      <path d="M75.95,14.728a1.878,1.878,0,0,0-.909-.212,1.31,1.31,0,0,0-1.1.516,2.257,2.257,0,0,0-.4,1.405V19.78H71.383v-7h2.161v1.3h.027a1.869,1.869,0,0,1,1.846-1.422,1.385,1.385,0,0,1,.533.082Z" fill="#2f2f2f"/>
      <path d="M83.322,16.9H78.756q.109,1.524,1.921,1.525a3.745,3.745,0,0,0,2.03-.547v1.558a5.325,5.325,0,0,1-2.522.52,3.552,3.552,0,0,1-2.632-.94,3.549,3.549,0,0,1-.937-2.622,3.747,3.747,0,0,1,1.012-2.761,3.366,3.366,0,0,1,2.488-1.019,3.06,3.06,0,0,1,2.369.909,3.5,3.5,0,0,1,.837,2.468Zm-2-1.326q0-1.5-1.217-1.5a1.163,1.163,0,0,0-.9.431,1.957,1.957,0,0,0-.462,1.073Z" fill="#2f2f2f"/>
      <path d="M96.844,9.977l-3.377,9.8h-2.5l-3.336-9.8h2.379L92.052,16.8a4.913,4.913,0,0,1,.2.977h.041a5.581,5.581,0,0,1,.212-1.005l2.03-6.795Z" fill="#2f2f2f"/>
      <path d="M98.973,11.673a1.265,1.265,0,0,1-.9-.325,1.046,1.046,0,0,1-.348-.8,1.009,1.009,0,0,1,.348-.793,1.462,1.462,0,0,1,1.8,0,1.013,1.013,0,0,1,.345.793,1.04,1.04,0,0,1-.345.806A1.282,1.282,0,0,1,98.973,11.673Zm1.066,8.107h-2.16v-7h2.16Z" fill="#2f2f2f"/>
      <path d="M108.691,19.78H106.53v-.964H106.5a2.42,2.42,0,0,1-2.167,1.135,2.654,2.654,0,0,1-2.112-.926,3.837,3.837,0,0,1-.8-2.588,4.173,4.173,0,0,1,.882-2.782,2.877,2.877,0,0,1,2.31-1.046,1.965,1.965,0,0,1,1.887.971h.027V9.417h2.161Zm-2.12-3.4v-.527a1.656,1.656,0,0,0-.4-1.134,1.4,1.4,0,0,0-2.153.112,2.619,2.619,0,0,0-.4,1.549,2.266,2.266,0,0,0,.39,1.422,1.383,1.383,0,0,0,2.15-.028A2.192,2.192,0,0,0,106.571,16.376Z" fill="#2f2f2f"/>
      <path d="M116.8,16.9h-4.566q.108,1.524,1.921,1.525a3.748,3.748,0,0,0,2.03-.547v1.558a5.326,5.326,0,0,1-2.523.52,3.551,3.551,0,0,1-2.631-.94,3.549,3.549,0,0,1-.937-2.622,3.743,3.743,0,0,1,1.012-2.761,3.366,3.366,0,0,1,2.488-1.019,3.06,3.06,0,0,1,2.369.909,3.5,3.5,0,0,1,.837,2.468Zm-2-1.326q0-1.5-1.217-1.5a1.163,1.163,0,0,0-.9.431,1.956,1.956,0,0,0-.461,1.073Z" fill="#2f2f2f"/>
      <path d="M121.5,19.951a3.762,3.762,0,0,1-2.751-.981,3.556,3.556,0,0,1-1-2.663,3.556,3.556,0,0,1,1.039-2.717,3.928,3.928,0,0,1,2.81-.981,3.715,3.715,0,0,1,2.734.981,3.486,3.486,0,0,1,.991,2.594,3.7,3.7,0,0,1-1.021,2.755A3.805,3.805,0,0,1,121.5,19.951Zm.055-5.688a1.443,1.443,0,0,0-1.19.527,2.323,2.323,0,0,0-.423,1.49q0,2.016,1.627,2.017,1.551,0,1.551-2.072Q123.12,14.263,121.555,14.263Z" fill="#2f2f2f"/>
      <path d="M139.417,19.78h-2.406l-.7-2.181h-3.487l-.69,2.181h-2.393l3.569-9.8h2.618ZM135.808,15.9l-1.053-3.295a4.263,4.263,0,0,1-.164-.882h-.055a3.715,3.715,0,0,1-.171.855L133.3,15.9Z" fill="#2f2f2f"/>
      <path d="M147.174,19.78h-2.153V15.89q0-1.626-1.162-1.627a1.153,1.153,0,0,0-.923.431,1.639,1.639,0,0,0-.363,1.094V19.78h-2.16v-7h2.16v1.107h.028a2.475,2.475,0,0,1,2.249-1.278q2.323,0,2.324,2.885Z" fill="#2f2f2f"/>
      <path d="M154.739,19.78H152.7V18.775h-.028a2.28,2.28,0,0,1-2.085,1.176,2.178,2.178,0,0,1-1.6-.578,2.072,2.072,0,0,1-.584-1.541q0-2.037,2.413-2.352l1.9-.253q0-1.148-1.244-1.148a4.245,4.245,0,0,0-2.379.745V13.2a5.376,5.376,0,0,1,1.234-.41,6.459,6.459,0,0,1,1.425-.178,2.643,2.643,0,0,1,2.994,2.987Zm-2.03-2.844v-.471l-1.271.164q-1.053.136-1.053.95a.784.784,0,0,0,.256.605.988.988,0,0,0,.694.236,1.276,1.276,0,0,0,.991-.421A1.514,1.514,0,0,0,152.709,16.936Z" fill="#2f2f2f"/>
      <path d="M158.6,19.78h-2.16V9.417h2.16Z" fill="#2f2f2f"/>
      <path d="M167.121,12.78l-2.843,7.561q-1.026,2.727-3.09,2.727a3.944,3.944,0,0,1-1.292-.178V21.168a1.821,1.821,0,0,0,.936.253,1.17,1.17,0,0,0,1.162-.786l.369-.869L159.52,12.78h2.392l1.306,4.259a5.471,5.471,0,0,1,.191.936h.028a6.618,6.618,0,0,1,.225-.923l1.32-4.272Z" fill="#2f2f2f"/>
      <path d="M173.78,19.78H167.5v-.895l3.513-4.512h-3.165V12.78h5.907v1.066l-3.329,4.341h3.356Z" fill="#2f2f2f"/>
      <path d="M181.231,16.9h-4.566q.108,1.524,1.921,1.525a3.748,3.748,0,0,0,2.03-.547v1.558a5.326,5.326,0,0,1-2.523.52,3.551,3.551,0,0,1-2.631-.94,3.549,3.549,0,0,1-.937-2.622,3.743,3.743,0,0,1,1.012-2.761,3.366,3.366,0,0,1,2.488-1.019,3.06,3.06,0,0,1,2.369.909,3.5,3.5,0,0,1,.837,2.468Zm-2-1.326q0-1.5-1.217-1.5a1.163,1.163,0,0,0-.9.431,1.963,1.963,0,0,0-.461,1.073Z" fill="#2f2f2f"/>
      <path d="M187.163,14.728a1.878,1.878,0,0,0-.909-.212,1.31,1.31,0,0,0-1.1.516,2.257,2.257,0,0,0-.4,1.405V19.78H182.6v-7h2.161v1.3h.027a1.869,1.869,0,0,1,1.846-1.422,1.385,1.385,0,0,1,.533.082Z" fill="#2f2f2f"/>
      <path d="M52.256,36.327a4.267,4.267,0,0,1-2.112.424,3.573,3.573,0,0,1-2.612-.978,3.377,3.377,0,0,1-1-2.522,3.72,3.72,0,0,1,1.07-2.813,3.955,3.955,0,0,1,2.861-1.029,3.667,3.667,0,0,1,1.791.328v1.832a2.465,2.465,0,0,0-1.511-.506,1.989,1.989,0,0,0-1.473.544,2.027,2.027,0,0,0-.543,1.5,2,2,0,0,0,.519,1.46,1.91,1.91,0,0,0,1.429.529,2.851,2.851,0,0,0,1.579-.5Z" fill="#2f2f2f"/>
      <path d="M59.592,36.58H57.548v-1h-.027a2.283,2.283,0,0,1-2.085,1.176,2.18,2.18,0,0,1-1.6-.578,2.068,2.068,0,0,1-.585-1.541q0-2.037,2.413-2.352l1.9-.253q0-1.149-1.244-1.148a4.245,4.245,0,0,0-2.379.745V30a5.312,5.312,0,0,1,1.234-.41,6.459,6.459,0,0,1,1.425-.178A2.643,2.643,0,0,1,59.592,32.4Zm-2.03-2.844v-.472l-1.272.164q-1.051.138-1.053.951a.787.787,0,0,0,.257.605.986.986,0,0,0,.694.235,1.28,1.28,0,0,0,.991-.42A1.52,1.52,0,0,0,57.562,33.736Z" fill="#2f2f2f"/>
      <path d="M63.476,35.766h-.028V39.8h-2.16V29.58h2.16v1.053h.028a2.749,2.749,0,0,1,4.351-.291,3.977,3.977,0,0,1,.742,2.54,4.308,4.308,0,0,1-.865,2.809,2.818,2.818,0,0,1-2.3,1.06A2.178,2.178,0,0,1,63.476,35.766ZM63.414,32.9v.561a1.781,1.781,0,0,0,.383,1.182A1.244,1.244,0,0,0,64.8,35.1a1.325,1.325,0,0,0,1.145-.57,2.76,2.76,0,0,0,.407-1.617q0-1.846-1.436-1.846a1.347,1.347,0,0,0-1.083.5A2,2,0,0,0,63.414,32.9Z" fill="#2f2f2f"/>
      <path d="M75.8,36.58H73.757v-1H73.73a2.283,2.283,0,0,1-2.085,1.176,2.18,2.18,0,0,1-1.6-.578,2.068,2.068,0,0,1-.585-1.541q0-2.037,2.413-2.352l1.9-.253q0-1.149-1.244-1.148a4.245,4.245,0,0,0-2.379.745V30a5.312,5.312,0,0,1,1.234-.41,6.459,6.459,0,0,1,1.425-.178A2.643,2.643,0,0,1,75.8,32.4Zm-2.03-2.844v-.472l-1.272.164q-1.051.138-1.053.951a.787.787,0,0,0,.257.605.986.986,0,0,0,.694.235,1.28,1.28,0,0,0,.991-.42A1.52,1.52,0,0,0,73.771,33.736Z" fill="#2f2f2f"/>
      <path d="M79.685,35.766h-.027v.814H77.5V26.217h2.16v4.416h.027a2.563,2.563,0,0,1,2.277-1.224,2.5,2.5,0,0,1,2.085.93,4.011,4.011,0,0,1,.731,2.543,4.344,4.344,0,0,1-.854,2.809,2.783,2.783,0,0,1-2.284,1.06A2.2,2.2,0,0,1,79.685,35.766Zm-.061-2.953v.718a1.641,1.641,0,0,0,.389,1.121,1.269,1.269,0,0,0,1,.444,1.324,1.324,0,0,0,1.145-.57,2.76,2.76,0,0,0,.407-1.617,2.2,2.2,0,0,0-.372-1.357,1.258,1.258,0,0,0-1.063-.489,1.373,1.373,0,0,0-1.077.486A1.841,1.841,0,0,0,79.624,32.813Z" fill="#2f2f2f"/>
      <path d="M88.367,36.58h-2.16V26.217h2.16Z" fill="#2f2f2f"/>
      <path d="M96.483,33.7H91.917q.108,1.524,1.921,1.524a3.756,3.756,0,0,0,2.03-.546v1.558a5.338,5.338,0,0,1-2.523.52,3.259,3.259,0,0,1-3.568-3.562,3.746,3.746,0,0,1,1.012-2.762,3.369,3.369,0,0,1,2.488-1.018,3.06,3.06,0,0,1,2.369.909,3.5,3.5,0,0,1,.837,2.468Zm-2-1.326q0-1.5-1.217-1.5a1.163,1.163,0,0,0-.9.431,1.963,1.963,0,0,0-.461,1.073Z" fill="#2f2f2f"/>
      <path d="M106.935,36.327a4.267,4.267,0,0,1-2.112.424,3.569,3.569,0,0,1-2.611-.978,3.373,3.373,0,0,1-1-2.522,3.719,3.719,0,0,1,1.069-2.813,3.955,3.955,0,0,1,2.861-1.029,3.667,3.667,0,0,1,1.791.328v1.832a2.462,2.462,0,0,0-1.51-.506,1.991,1.991,0,0,0-1.474.544,2.027,2.027,0,0,0-.543,1.5,2,2,0,0,0,.519,1.46,1.912,1.912,0,0,0,1.429.529,2.851,2.851,0,0,0,1.579-.5Z" fill="#2f2f2f"/>
      <path d="M114.271,36.58h-2.044v-1H112.2a2.281,2.281,0,0,1-2.085,1.176,2.182,2.182,0,0,1-1.6-.578,2.068,2.068,0,0,1-.585-1.541q0-2.037,2.414-2.352l1.9-.253q0-1.149-1.244-1.148a4.245,4.245,0,0,0-2.379.745V30a5.328,5.328,0,0,1,1.234-.41,6.459,6.459,0,0,1,1.425-.178,2.643,2.643,0,0,1,2.994,2.987Zm-2.03-2.844v-.472l-1.272.164q-1.051.138-1.052.951a.786.786,0,0,0,.256.605.986.986,0,0,0,.694.235,1.278,1.278,0,0,0,.991-.42A1.52,1.52,0,0,0,112.241,33.736Z" fill="#2f2f2f"/>
      <path d="M127.083,36.58h-2.154V32.588q0-1.524-1.121-1.525a1.031,1.031,0,0,0-.868.458,1.884,1.884,0,0,0-.335,1.142V36.58h-2.16V32.547q0-1.483-1.1-1.484a1.054,1.054,0,0,0-.885.438,1.923,1.923,0,0,0-.331,1.189v3.89h-2.161v-7h2.161v1.094h.027a2.652,2.652,0,0,1,2.263-1.265,2.016,2.016,0,0,1,2.03,1.306,2.589,2.589,0,0,1,2.352-1.306q2.282,0,2.283,2.816Z" fill="#2f2f2f"/>
      <path d="M135.1,33.7h-4.566q.109,1.524,1.921,1.524a3.756,3.756,0,0,0,2.03-.546v1.558a5.337,5.337,0,0,1-2.522.52,3.259,3.259,0,0,1-3.569-3.562,3.751,3.751,0,0,1,1.012-2.762,3.369,3.369,0,0,1,2.488-1.018,3.06,3.06,0,0,1,2.369.909,3.5,3.5,0,0,1,.837,2.468Zm-2-1.326q0-1.5-1.217-1.5a1.16,1.16,0,0,0-.9.431,1.957,1.957,0,0,0-.462,1.073Z" fill="#2f2f2f"/>
      <path d="M141.034,31.528a1.875,1.875,0,0,0-.909-.212,1.309,1.309,0,0,0-1.1.516,2.251,2.251,0,0,0-.4,1.405V36.58h-2.16v-7h2.16v1.3h.027a1.869,1.869,0,0,1,1.846-1.422,1.381,1.381,0,0,1,.533.082Z" fill="#2f2f2f"/>
      <path d="M147.758,36.58h-2.043v-1h-.028a2.28,2.28,0,0,1-2.085,1.176,2.182,2.182,0,0,1-1.6-.578,2.072,2.072,0,0,1-.584-1.541q0-2.037,2.413-2.352l1.9-.253q0-1.149-1.244-1.148a4.245,4.245,0,0,0-2.379.745V30a5.328,5.328,0,0,1,1.234-.41,6.459,6.459,0,0,1,1.425-.178,2.643,2.643,0,0,1,2.994,2.987Zm-2.03-2.844v-.472l-1.271.164q-1.053.138-1.053.951a.786.786,0,0,0,.256.605.987.987,0,0,0,.694.235,1.278,1.278,0,0,0,.991-.42A1.515,1.515,0,0,0,145.728,33.736Z" fill="#2f2f2f"/>
    </g>
    <g>
      <path d="M225.871,28.084h-3.828v3.391h3.541v1.032h-3.541v4.341h-1.149v-9.8h4.977Z" fill="#2f2f2f"/>
      <path d="M228.007,28.071a.709.709,0,0,1-.513-.206.692.692,0,0,1-.212-.519.717.717,0,0,1,.725-.731.724.724,0,0,1,.523.208.731.731,0,0,1,0,1.036A.72.72,0,0,1,228.007,28.071Zm.547,8.777h-1.121v-7h1.121Z" fill="#2f2f2f"/>
      <path d="M234.327,30.983a1.368,1.368,0,0,0-.848-.226,1.433,1.433,0,0,0-1.2.677,3.13,3.13,0,0,0-.481,1.846v3.568h-1.122v-7H231.8V31.29h.027a2.451,2.451,0,0,1,.731-1.152,1.671,1.671,0,0,1,1.1-.413,1.828,1.828,0,0,1,.67.1Z" fill="#2f2f2f"/>
      <path d="M241.17,33.628h-4.943a2.619,2.619,0,0,0,.629,1.8,2.168,2.168,0,0,0,1.654.636,3.435,3.435,0,0,0,2.174-.78v1.053a4.058,4.058,0,0,1-2.44.67,2.958,2.958,0,0,1-2.331-.954,3.9,3.9,0,0,1-.848-2.683,3.829,3.829,0,0,1,.926-2.662,2.972,2.972,0,0,1,2.3-1.029,2.631,2.631,0,0,1,2.126.889,3.705,3.705,0,0,1,.752,2.467Zm-1.149-.95a2.277,2.277,0,0,0-.468-1.511,1.6,1.6,0,0,0-1.282-.54,1.807,1.807,0,0,0-1.346.568,2.563,2.563,0,0,0-.684,1.483Z" fill="#2f2f2f"/>
      <path d="M251.644,29.848l-2.1,7h-1.163l-1.442-5.011a3.225,3.225,0,0,1-.109-.649H246.8a3,3,0,0,1-.143.635L245.1,36.848h-1.121l-2.119-7h1.176l1.449,5.264a3.113,3.113,0,0,1,.1.628h.055a2.868,2.868,0,0,1,.123-.642l1.613-5.25h1.025l1.45,5.277a3.878,3.878,0,0,1,.1.629H249a2.925,2.925,0,0,1,.116-.629l1.422-5.277Z" fill="#2f2f2f"/>
      <path d="M257.818,36.848H256.7V35.754h-.027a2.346,2.346,0,0,1-2.153,1.258,2.3,2.3,0,0,1-1.637-.554,1.919,1.919,0,0,1-.592-1.469q0-1.963,2.311-2.284l2.1-.294q0-1.783-1.442-1.784a3.442,3.442,0,0,0-2.283.862V30.34a4.342,4.342,0,0,1,2.379-.656q2.468,0,2.468,2.611ZM256.7,33.307l-1.688.232a2.733,2.733,0,0,0-1.176.387,1.112,1.112,0,0,0-.4.98,1.071,1.071,0,0,0,.365.838,1.418,1.418,0,0,0,.975.325,1.8,1.8,0,0,0,1.377-.585A2.09,2.09,0,0,0,256.7,34Z" fill="#2f2f2f"/>
      <path d="M260.959,36.848h-1.121V26.485h1.121Z" fill="#2f2f2f"/>
      <path d="M264.19,36.848h-1.121V26.485h1.121Z" fill="#2f2f2f"/>
    </g>
    <g>
      <path d="M321.28,36.848h-1.148v-9.8h1.148Z" fill="#2f2f2f"/>
      <path d="M329.355,36.848h-1.121V32.856q0-2.229-1.627-2.229a1.762,1.762,0,0,0-1.391.633,2.341,2.341,0,0,0-.551,1.6v3.992h-1.121v-7h1.121V31.01h.028a2.525,2.525,0,0,1,2.3-1.326,2.139,2.139,0,0,1,1.757.742,3.3,3.3,0,0,1,.609,2.143Z" fill="#2f2f2f"/>
      <path d="M334.584,36.78a2.159,2.159,0,0,1-1.046.218q-1.839,0-1.839-2.05V30.805h-1.2v-.957h1.2V28.139l1.122-.362v2.071h1.763v.957h-1.763v3.944a1.632,1.632,0,0,0,.239,1,.953.953,0,0,0,.793.3,1.184,1.184,0,0,0,.731-.232Z" fill="#2f2f2f"/>
      <path d="M341.577,33.628h-4.943a2.624,2.624,0,0,0,.629,1.8,2.169,2.169,0,0,0,1.655.636,3.439,3.439,0,0,0,2.174-.78v1.053a4.063,4.063,0,0,1-2.441.67,2.958,2.958,0,0,1-2.331-.954,3.9,3.9,0,0,1-.848-2.683,3.825,3.825,0,0,1,.927-2.662,2.968,2.968,0,0,1,2.3-1.029,2.631,2.631,0,0,1,2.126.889,3.705,3.705,0,0,1,.752,2.467Zm-1.149-.95a2.277,2.277,0,0,0-.468-1.511,1.6,1.6,0,0,0-1.282-.54,1.808,1.808,0,0,0-1.346.568,2.576,2.576,0,0,0-.684,1.483Z" fill="#2f2f2f"/>
      <path d="M346.909,30.983a1.363,1.363,0,0,0-.847-.226,1.433,1.433,0,0,0-1.2.677,3.13,3.13,0,0,0-.481,1.846v3.568h-1.122v-7h1.122V31.29h.027a2.451,2.451,0,0,1,.731-1.152,1.671,1.671,0,0,1,1.1-.413,1.819,1.819,0,0,1,.669.1Z" fill="#2f2f2f"/>
      <path d="M353.964,36.848h-1.121V32.856q0-2.229-1.627-2.229a1.767,1.767,0,0,0-1.392.633,2.345,2.345,0,0,0-.549,1.6v3.992h-1.121v-7h1.121V31.01h.027a2.526,2.526,0,0,1,2.3-1.326,2.143,2.143,0,0,1,1.757.742,3.307,3.307,0,0,1,.608,2.143Z" fill="#2f2f2f"/>
      <path d="M361.667,33.628h-4.942a2.61,2.61,0,0,0,.629,1.8,2.165,2.165,0,0,0,1.654.636,3.439,3.439,0,0,0,2.174-.78v1.053a4.061,4.061,0,0,1-2.441.67,2.958,2.958,0,0,1-2.331-.954,3.9,3.9,0,0,1-.847-2.683,3.828,3.828,0,0,1,.925-2.662,2.973,2.973,0,0,1,2.3-1.029,2.631,2.631,0,0,1,2.126.889,3.705,3.705,0,0,1,.752,2.467Zm-1.148-.95a2.282,2.282,0,0,0-.469-1.511,1.594,1.594,0,0,0-1.281-.54,1.807,1.807,0,0,0-1.347.568,2.57,2.57,0,0,0-.684,1.483Z" fill="#2f2f2f"/>
      <path d="M366.591,36.78a2.157,2.157,0,0,1-1.046.218q-1.838,0-1.839-2.05V30.805h-1.2v-.957h1.2V28.139l1.121-.362v2.071h1.764v.957h-1.764v3.944a1.631,1.631,0,0,0,.24,1,.953.953,0,0,0,.793.3,1.182,1.182,0,0,0,.731-.232Z" fill="#2f2f2f"/>
    </g>
  </g>
</svg>
