<svg xmlns="http://www.w3.org/2000/svg" xmlns:xlink="http://www.w3.org/1999/xlink" viewBox="0 0 722.837 188.773">
  <defs>
    <linearGradient id="Blue_Gradient_2" data-name="Blue Gradient 2" x1="8.483" y1="23.538" x2="16.517" y2="1.462" gradientUnits="userSpaceOnUse">
      <stop offset="0" stop-color="#0078d4"/>
      <stop offset="0.16" stop-color="#1380da"/>
      <stop offset="0.53" stop-color="#3c91e5"/>
      <stop offset="0.82" stop-color="#559cec"/>
      <stop offset="1" stop-color="#5ea0ef"/>
    </linearGradient>
    <linearGradient id="linear-gradient" x1="170.136" y1="72.636" x2="170.136" y2="116.136" gradientUnits="userSpaceOnUse">
      <stop offset="0" stop-color="#5ea0ef"/>
      <stop offset="0.18" stop-color="#559cec"/>
      <stop offset="0.47" stop-color="#3c91e5"/>
      <stop offset="0.84" stop-color="#1380da"/>
      <stop offset="1" stop-color="#0078d4"/>
    </linearGradient>
    <linearGradient id="linear-gradient-2" x1="410.912" y1="140.888" x2="410.912" y2="184.388" xlink:href="#linear-gradient"/>
    <linearGradient id="linear-gradient-3" x1="652.678" y1="140.888" x2="652.678" y2="184.388" xlink:href="#linear-gradient"/>
    <linearGradient id="Dk_Orange_Gradient" data-name="Dk Orange Gradient" x1="526.58" y1="105.424" x2="534.615" y2="83.349" gradientTransform="translate(88.667 402.834) rotate(-45)" gradientUnits="userSpaceOnUse">
      <stop offset="0" stop-color="#e17a26"/>
      <stop offset="0.3" stop-color="#e47f25"/>
      <stop offset="0.64" stop-color="#ec8b23"/>
      <stop offset="1" stop-color="#faa21f"/>
    </linearGradient>
    <linearGradient id="linear-gradient-4" x1="410.912" y1="72.636" x2="410.912" y2="116.136" xlink:href="#linear-gradient"/>
    <symbol id="Flow_chart_2" data-name="Flow chart 2" viewBox="0 0 25 25">
      <polygon points="12.5 0 25 12.5 12.5 25 0 12.5 12.5 0" fill="url(#Blue_Gradient_2)"/>
    </symbol>
  </defs>
  <g id="Shapes">
    <rect width="722.837" height="188.773" fill="#fff"/>
    <g>
      <rect x="103.899" y="72.636" width="132.474" height="43.5" fill="#fff"/>
      <rect x="103.899" y="72.636" width="132.474" height="43.5" opacity="0.4" fill="url(#linear-gradient)"/>
    </g>
    <use width="25" height="25" transform="translate(37.24 81.886)" xlink:href="#Flow_chart_2"/>
    <use width="25" height="25" transform="translate(277.72 81.886)" xlink:href="#Flow_chart_2"/>
    <g>
      <line x1="64.299" y1="94.386" x2="98.516" y2="94.386" fill="none" stroke="#3c3c41" stroke-miterlimit="10"/>
      <polygon points="97.422 98.126 103.899 94.386 97.422 90.647 97.422 98.126" fill="#3c3c41"/>
    </g>
    <g>
      <line x1="236.299" y1="94.386" x2="270.516" y2="94.386" fill="none" stroke="#3c3c41" stroke-miterlimit="10"/>
      <polygon points="269.422 98.126 275.899 94.386 269.422 90.647 269.422 98.126" fill="#3c3c41"/>
    </g>
    <g>
      <line x1="304.841" y1="94.386" x2="339.059" y2="94.386" fill="none" stroke="#3c3c41" stroke-miterlimit="10"/>
      <polygon points="337.965 98.126 344.441 94.386 337.965 90.647 337.965 98.126" fill="#3c3c41"/>
    </g>
    <g>
      <line x1="476.841" y1="94.386" x2="511.059" y2="94.386" fill="none" stroke="#3c3c41" stroke-miterlimit="10"/>
      <polygon points="509.965 98.126 516.441 94.386 509.965 90.647 509.965 98.126" fill="#3c3c41"/>
    </g>
    <g>
      <line x1="546.841" y1="94.386" x2="581.059" y2="94.386" fill="none" stroke="#3c3c41" stroke-miterlimit="10"/>
      <polygon points="579.965 98.126 586.441 94.386 579.965 90.647 579.965 98.126" fill="#3c3c41"/>
    </g>
    <g>
      <rect x="344.675" y="140.888" width="132.474" height="43.5" fill="#fff"/>
      <rect x="344.675" y="140.888" width="132.474" height="43.5" opacity="0.4" fill="url(#linear-gradient-2)"/>
    </g>
    <g>
      <rect x="344.675" y="4.273" width="132.474" height="43.5" fill="#fff"/>
      <rect x="344.675" y="4.273" width="132.474" height="43.5" fill="#e52526" opacity="0.4"/>
    </g>
    <g>
      <line x1="410.912" y1="53.371" x2="410.912" y2="73.558" fill="none" stroke="#3c3c41" stroke-miterlimit="10"/>
      <polygon points="407.172 54.465 410.912 47.988 414.652 54.465 407.172 54.465" fill="#3c3c41"/>
    </g>
    <g>
      <line x1="410.912" y1="116.029" x2="410.912" y2="135.406" fill="none" stroke="#3c3c41" stroke-miterlimit="10"/>
      <polygon points="407.172 134.312 410.912 140.788 414.652 134.312 407.172 134.312" fill="#3c3c41"/>
    </g>
    <g>
      <rect x="586.441" y="140.888" width="132.474" height="43.5" fill="#fff"/>
      <rect x="586.441" y="140.888" width="132.474" height="43.5" opacity="0.4" fill="url(#linear-gradient-3)"/>
    </g>
    <g>
      <rect x="586.441" y="4.273" width="132.474" height="43.5" fill="#fff"/>
      <rect x="586.441" y="4.273" width="132.474" height="43.5" fill="#e52526" opacity="0.4"/>
    </g>
    <g>
      <line x1="652.678" y1="53.371" x2="652.678" y2="73.558" fill="none" stroke="#3c3c41" stroke-miterlimit="10"/>
      <polygon points="648.938 54.465 652.678 47.988 656.418 54.465 648.938 54.465" fill="#3c3c41"/>
    </g>
    <g>
      <line x1="652.678" y1="116.509" x2="652.678" y2="135.406" fill="none" stroke="#3c3c41" stroke-miterlimit="10"/>
      <polygon points="648.938 134.312 652.678 140.788 656.418 134.312 648.938 134.312" fill="#3c3c41"/>
    </g>
    <g>
      <rect x="586.441" y="72.636" width="132.474" height="43.5" fill="#fff"/>
      <rect x="586.441" y="72.636" width="132.474" height="43.5" fill="#f78d20" opacity="0.4"/>
    </g>
    <rect x="521.759" y="85.547" width="17.678" height="17.678" transform="translate(222.15 -347.544) rotate(45)" fill="url(#Dk_Orange_Gradient)"/>
    <g>
      <rect x="344.675" y="72.636" width="132.474" height="43.5" fill="#fff"/>
      <rect x="344.675" y="72.636" width="132.474" height="43.5" opacity="0.4" fill="url(#linear-gradient-4)"/>
    </g>
  </g>
  <g id="Text">
    <g>
      <path d="M11.764,54.055a5.748,5.748,0,0,1-2.707.574,4.364,4.364,0,0,1-3.35-1.347A4.97,4.97,0,0,1,4.45,49.748a5.206,5.206,0,0,1,1.414-3.8A4.8,4.8,0,0,1,9.453,44.5a5.755,5.755,0,0,1,2.311.4v1.224a4.686,4.686,0,0,0-2.324-.588A3.565,3.565,0,0,0,6.7,46.665,4.248,4.248,0,0,0,5.653,49.68a4.043,4.043,0,0,0,.98,2.854A3.341,3.341,0,0,0,9.207,53.6a4.826,4.826,0,0,0,2.557-.657Z" fill="#2f2f2f"/>
      <path d="M16.965,48.6a1.363,1.363,0,0,0-.847-.226,1.432,1.432,0,0,0-1.2.677,3.13,3.13,0,0,0-.482,1.846v3.568H13.315v-7h1.121v1.442h.027a2.454,2.454,0,0,1,.733-1.152,1.668,1.668,0,0,1,1.1-.413,1.821,1.821,0,0,1,.67.1Z" fill="#2f2f2f"/>
      <path d="M23.809,51.245H18.866a2.619,2.619,0,0,0,.629,1.8,2.168,2.168,0,0,0,1.654.636,3.437,3.437,0,0,0,2.174-.78v1.053a4.06,4.06,0,0,1-2.44.67,2.961,2.961,0,0,1-2.332-.954,3.907,3.907,0,0,1-.848-2.683,3.825,3.825,0,0,1,.927-2.662,2.97,2.97,0,0,1,2.3-1.029,2.636,2.636,0,0,1,2.127.888,3.71,3.71,0,0,1,.752,2.468Zm-1.148-.95a2.288,2.288,0,0,0-.469-1.511,1.6,1.6,0,0,0-1.281-.54,1.809,1.809,0,0,0-1.348.568,2.576,2.576,0,0,0-.684,1.483Z" fill="#2f2f2f"/>
      <path d="M30.448,54.465H29.327V53.371H29.3a2.348,2.348,0,0,1-2.154,1.258,2.3,2.3,0,0,1-1.637-.554,1.919,1.919,0,0,1-.592-1.469q0-1.964,2.311-2.284l2.1-.294q0-1.783-1.444-1.784a3.444,3.444,0,0,0-2.283.862V47.957a4.342,4.342,0,0,1,2.379-.656q2.468,0,2.469,2.611Zm-1.121-3.541-1.69.232a2.743,2.743,0,0,0-1.176.387,1.115,1.115,0,0,0-.4.98,1.072,1.072,0,0,0,.366.838,1.413,1.413,0,0,0,.974.325,1.8,1.8,0,0,0,1.378-.585,2.091,2.091,0,0,0,.544-1.48Z" fill="#2f2f2f"/>
      <path d="M35.705,54.4a2.151,2.151,0,0,1-1.044.218q-1.841,0-1.84-2.051V48.422h-1.2v-.957h1.2V45.756l1.121-.362v2.071h1.763v.957H33.942v3.944a1.633,1.633,0,0,0,.24,1.005.953.953,0,0,0,.793.3,1.175,1.175,0,0,0,.73-.233Z" fill="#2f2f2f"/>
      <path d="M42.7,51.245H37.756a2.624,2.624,0,0,0,.629,1.8,2.168,2.168,0,0,0,1.654.636,3.435,3.435,0,0,0,2.174-.78v1.053a4.058,4.058,0,0,1-2.44.67,2.956,2.956,0,0,1-2.331-.954,3.9,3.9,0,0,1-.848-2.683,3.829,3.829,0,0,1,.926-2.662,2.972,2.972,0,0,1,2.3-1.029,2.632,2.632,0,0,1,2.126.888,3.71,3.71,0,0,1,.752,2.468ZM41.55,50.3a2.288,2.288,0,0,0-.468-1.511,1.6,1.6,0,0,0-1.282-.54,1.812,1.812,0,0,0-1.347.568A2.569,2.569,0,0,0,37.77,50.3Z" fill="#2f2f2f"/>
      <path d="M49.377,53.453H49.35v4.232H48.229V47.465H49.35V48.7h.027A2.651,2.651,0,0,1,51.8,47.3a2.563,2.563,0,0,1,2.113.94,3.9,3.9,0,0,1,.758,2.519,4.343,4.343,0,0,1-.854,2.813,2.844,2.844,0,0,1-2.338,1.056A2.343,2.343,0,0,1,49.377,53.453ZM49.35,50.63v.977a2.08,2.08,0,0,0,.564,1.474,2.011,2.011,0,0,0,3.028-.175,3.566,3.566,0,0,0,.578-2.167,2.823,2.823,0,0,0-.54-1.832,1.788,1.788,0,0,0-1.463-.663,1.987,1.987,0,0,0-1.572.68A2.5,2.5,0,0,0,49.35,50.63Z" fill="#2f2f2f"/>
      <path d="M56.942,45.688a.713.713,0,0,1-.514-.206.691.691,0,0,1-.211-.519.717.717,0,0,1,.725-.732.721.721,0,0,1,.522.209.729.729,0,0,1,0,1.036A.716.716,0,0,1,56.942,45.688Zm.547,8.777H56.368v-7h1.121Z" fill="#2f2f2f"/>
      <path d="M60.754,53.453h-.027v4.232H59.606V47.465h1.121V48.7h.027a2.653,2.653,0,0,1,2.42-1.394,2.562,2.562,0,0,1,2.113.94,3.89,3.89,0,0,1,.758,2.519,4.342,4.342,0,0,1-.853,2.813,2.848,2.848,0,0,1-2.338,1.056A2.344,2.344,0,0,1,60.754,53.453Zm-.027-2.823v.977a2.084,2.084,0,0,0,.564,1.474,2.012,2.012,0,0,0,3.029-.175,3.573,3.573,0,0,0,.577-2.167,2.828,2.828,0,0,0-.539-1.832,1.789,1.789,0,0,0-1.463-.663,1.986,1.986,0,0,0-1.572.68A2.5,2.5,0,0,0,60.727,50.63Z" fill="#2f2f2f"/>
      <path d="M73.452,51.245H68.509a2.624,2.624,0,0,0,.629,1.8,2.167,2.167,0,0,0,1.654.636,3.439,3.439,0,0,0,2.174-.78v1.053a4.06,4.06,0,0,1-2.44.67,2.958,2.958,0,0,1-2.331-.954,3.9,3.9,0,0,1-.848-2.683,3.825,3.825,0,0,1,.927-2.662,2.968,2.968,0,0,1,2.3-1.029,2.634,2.634,0,0,1,2.126.888,3.7,3.7,0,0,1,.752,2.468ZM72.3,50.3a2.272,2.272,0,0,0-.469-1.511,1.592,1.592,0,0,0-1.281-.54,1.81,1.81,0,0,0-1.347.568,2.575,2.575,0,0,0-.683,1.483Z" fill="#2f2f2f"/>
      <path d="M76.246,54.465H75.125V44.1h1.121Z" fill="#2f2f2f"/>
      <path d="M78.934,45.688a.711.711,0,0,1-.513-.206.692.692,0,0,1-.212-.519.719.719,0,0,1,.725-.732.725.725,0,0,1,.523.209.731.731,0,0,1,0,1.036A.72.72,0,0,1,78.934,45.688Zm.547,8.777H78.36v-7h1.121Z" fill="#2f2f2f"/>
      <path d="M87.411,54.465H86.289V50.473q0-2.229-1.627-2.229a1.766,1.766,0,0,0-1.391.632,2.35,2.35,0,0,0-.55,1.6v3.992H81.6v-7h1.121v1.162h.027a2.527,2.527,0,0,1,2.3-1.326,2.137,2.137,0,0,1,1.756.742,3.3,3.3,0,0,1,.61,2.143Z" fill="#2f2f2f"/>
      <path d="M95.114,51.245H90.17a2.629,2.629,0,0,0,.629,1.8,2.17,2.17,0,0,0,1.654.636,3.433,3.433,0,0,0,2.174-.78v1.053a4.054,4.054,0,0,1-2.439.67,2.96,2.96,0,0,1-2.332-.954,3.9,3.9,0,0,1-.848-2.683,3.825,3.825,0,0,1,.927-2.662,2.97,2.97,0,0,1,2.3-1.029,2.636,2.636,0,0,1,2.127.888,3.71,3.71,0,0,1,.752,2.468Zm-1.149-.95a2.282,2.282,0,0,0-.469-1.511,1.593,1.593,0,0,0-1.281-.54,1.809,1.809,0,0,0-1.347.568,2.57,2.57,0,0,0-.684,1.483Z" fill="#2f2f2f"/>
      <path d="M26.325,71.2a2.166,2.166,0,0,1-1.047.219q-1.839,0-1.838-2.051V65.222h-1.2v-.957h1.2V62.556l1.121-.363v2.072h1.764v.957H24.561v3.944a1.642,1.642,0,0,0,.238,1.005.954.954,0,0,0,.793.3,1.182,1.182,0,0,0,.733-.233Z" fill="#2f2f2f"/>
      <path d="M30.582,71.429a3.245,3.245,0,0,1-2.478-.981,3.636,3.636,0,0,1-.926-2.6,3.782,3.782,0,0,1,.963-2.755,3.467,3.467,0,0,1,2.605-.991,3.143,3.143,0,0,1,2.444.963,3.822,3.822,0,0,1,.879,2.673,3.761,3.761,0,0,1-.948,2.683A3.312,3.312,0,0,1,30.582,71.429Zm.082-6.385a2.132,2.132,0,0,0-1.709.735,3.019,3.019,0,0,0-.628,2.027,2.855,2.855,0,0,0,.634,1.962,2.164,2.164,0,0,0,1.7.717,2.045,2.045,0,0,0,1.671-.7,3.053,3.053,0,0,0,.585-2,3.1,3.1,0,0,0-.585-2.023A2.038,2.038,0,0,0,30.664,65.044Z" fill="#2f2f2f"/>
      <path d="M36.932,70.253h-.027v4.231H35.784V64.265h1.121V65.5h.027a2.648,2.648,0,0,1,2.42-1.394,2.562,2.562,0,0,1,2.112.94,3.891,3.891,0,0,1,.759,2.519,4.344,4.344,0,0,1-.854,2.813,2.846,2.846,0,0,1-2.338,1.056A2.341,2.341,0,0,1,36.932,70.253Zm-.027-2.823v.977a2.076,2.076,0,0,0,.564,1.473,2.011,2.011,0,0,0,3.027-.174,3.568,3.568,0,0,0,.579-2.167,2.823,2.823,0,0,0-.54-1.832,1.789,1.789,0,0,0-1.463-.663,1.989,1.989,0,0,0-1.573.68A2.5,2.5,0,0,0,36.905,67.43Z" fill="#2f2f2f"/>
      <path d="M46.928,71.429a3.246,3.246,0,0,1-2.477-.981,3.627,3.627,0,0,1-.927-2.6,3.783,3.783,0,0,1,.965-2.755,3.46,3.46,0,0,1,2.6-.991,3.142,3.142,0,0,1,2.445.963,3.83,3.83,0,0,1,.877,2.673,3.755,3.755,0,0,1-.946,2.683A3.316,3.316,0,0,1,46.928,71.429Zm.082-6.385a2.133,2.133,0,0,0-1.709.735,3.019,3.019,0,0,0-.629,2.027,2.856,2.856,0,0,0,.637,1.962,2.159,2.159,0,0,0,1.7.717,2.049,2.049,0,0,0,1.672-.7,3.053,3.053,0,0,0,.584-2,3.1,3.1,0,0,0-.584-2.023A2.042,2.042,0,0,0,47.01,65.044Z" fill="#2f2f2f"/>
      <path d="M53.245,71.265H52.123V60.9h1.122Z" fill="#2f2f2f"/>
      <path d="M58.363,71.429a3.245,3.245,0,0,1-2.478-.981,3.632,3.632,0,0,1-.927-2.6,3.786,3.786,0,0,1,.964-2.755,3.466,3.466,0,0,1,2.605-.991,3.141,3.141,0,0,1,2.444.963,3.826,3.826,0,0,1,.878,2.673A3.76,3.76,0,0,1,60.9,70.42,3.319,3.319,0,0,1,58.363,71.429Zm.082-6.385a2.132,2.132,0,0,0-1.709.735,3.019,3.019,0,0,0-.629,2.027,2.855,2.855,0,0,0,.636,1.962,2.16,2.16,0,0,0,1.7.717,2.047,2.047,0,0,0,1.671-.7,3.053,3.053,0,0,0,.585-2,3.1,3.1,0,0,0-.585-2.023A2.04,2.04,0,0,0,58.445,65.044Z" fill="#2f2f2f"/>
      <path d="M69.6,70.7q0,3.855-3.692,3.856a4.939,4.939,0,0,1-2.269-.493V72.946A4.655,4.655,0,0,0,65.9,73.6q2.583,0,2.584-2.748v-.766h-.028a2.832,2.832,0,0,1-4.508.407,3.73,3.73,0,0,1-.8-2.506,4.359,4.359,0,0,1,.857-2.837A2.868,2.868,0,0,1,66.356,64.1a2.283,2.283,0,0,1,2.1,1.134h.028v-.97H69.6Zm-1.121-2.6V67.067a2,2,0,0,0-.565-1.428,1.853,1.853,0,0,0-1.4-.595,1.948,1.948,0,0,0-1.627.755,3.373,3.373,0,0,0-.588,2.116,2.9,2.9,0,0,0,.564,1.87,1.822,1.822,0,0,0,1.493.7,1.952,1.952,0,0,0,1.535-.67A2.491,2.491,0,0,0,68.483,68.1Z" fill="#2f2f2f"/>
      <path d="M77.469,64.265,74.25,72.386q-.861,2.173-2.42,2.174a2.576,2.576,0,0,1-.732-.089V73.466a2.084,2.084,0,0,0,.664.123,1.377,1.377,0,0,0,1.272-1.012l.56-1.326L70.86,64.265H72.1L74,69.651c.024.069.072.246.145.534h.041q.033-.165.137-.52l1.988-5.4Z" fill="#2f2f2f"/>
    </g>
    <g>
      <path d="M278.452,54.055a5.748,5.748,0,0,1-2.707.574,4.364,4.364,0,0,1-3.35-1.347,4.966,4.966,0,0,1-1.258-3.534,5.211,5.211,0,0,1,1.415-3.8,4.8,4.8,0,0,1,3.589-1.449,5.758,5.758,0,0,1,2.311.4v1.224a4.69,4.69,0,0,0-2.325-.588,3.567,3.567,0,0,0-2.738,1.128,4.252,4.252,0,0,0-1.049,3.015,4.043,4.043,0,0,0,.981,2.854A3.339,3.339,0,0,0,275.9,53.6a4.829,4.829,0,0,0,2.557-.657Z" fill="#2f2f2f"/>
      <path d="M283.654,48.6a1.37,1.37,0,0,0-.848-.226,1.432,1.432,0,0,0-1.2.677,3.13,3.13,0,0,0-.482,1.846v3.568H280v-7h1.121v1.442h.028a2.444,2.444,0,0,1,.731-1.152,1.671,1.671,0,0,1,1.1-.413,1.832,1.832,0,0,1,.67.1Z" fill="#2f2f2f"/>
      <path d="M290.5,51.245h-4.942a2.619,2.619,0,0,0,.629,1.8,2.165,2.165,0,0,0,1.654.636,3.439,3.439,0,0,0,2.174-.78v1.053a4.06,4.06,0,0,1-2.44.67,2.955,2.955,0,0,1-2.331-.954,3.9,3.9,0,0,1-.848-2.683,3.829,3.829,0,0,1,.926-2.662,2.972,2.972,0,0,1,2.3-1.029,2.634,2.634,0,0,1,2.126.888,3.715,3.715,0,0,1,.751,2.468Zm-1.148-.95a2.282,2.282,0,0,0-.469-1.511,1.593,1.593,0,0,0-1.281-.54,1.809,1.809,0,0,0-1.347.568,2.569,2.569,0,0,0-.683,1.483Z" fill="#2f2f2f"/>
      <path d="M297.135,54.465h-1.121V53.371h-.027a2.349,2.349,0,0,1-2.154,1.258,2.3,2.3,0,0,1-1.637-.554,1.918,1.918,0,0,1-.591-1.469q0-1.964,2.31-2.284l2.1-.294q0-1.783-1.442-1.784a3.443,3.443,0,0,0-2.284.862V47.957a4.342,4.342,0,0,1,2.379-.656q2.468,0,2.468,2.611Zm-1.121-3.541-1.688.232a2.728,2.728,0,0,0-1.176.387,1.11,1.11,0,0,0-.4.98,1.068,1.068,0,0,0,.366.838,1.415,1.415,0,0,0,.974.325,1.8,1.8,0,0,0,1.377-.585,2.091,2.091,0,0,0,.544-1.48Z" fill="#2f2f2f"/>
      <path d="M302.394,54.4a2.162,2.162,0,0,1-1.046.218q-1.841,0-1.839-2.051V48.422h-1.2v-.957h1.2V45.756l1.121-.362v2.071h1.764v.957H300.63v3.944a1.627,1.627,0,0,0,.24,1.005.951.951,0,0,0,.792.3,1.179,1.179,0,0,0,.732-.233Z" fill="#2f2f2f"/>
      <path d="M309.386,51.245h-4.942a2.619,2.619,0,0,0,.629,1.8,2.168,2.168,0,0,0,1.654.636,3.435,3.435,0,0,0,2.174-.78v1.053a4.061,4.061,0,0,1-2.441.67,2.96,2.96,0,0,1-2.331-.954,3.907,3.907,0,0,1-.847-2.683,3.824,3.824,0,0,1,.926-2.662,2.97,2.97,0,0,1,2.3-1.029,2.632,2.632,0,0,1,2.126.888,3.7,3.7,0,0,1,.752,2.468Zm-1.148-.95a2.277,2.277,0,0,0-.468-1.511,1.6,1.6,0,0,0-1.282-.54,1.809,1.809,0,0,0-1.347.568,2.576,2.576,0,0,0-.684,1.483Z" fill="#2f2f2f"/>
      <path d="M256.473,70.253h-.027v4.231h-1.121V64.265h1.121V65.5h.027a2.648,2.648,0,0,1,2.42-1.394,2.562,2.562,0,0,1,2.112.94,3.891,3.891,0,0,1,.759,2.519,4.344,4.344,0,0,1-.854,2.813,2.848,2.848,0,0,1-2.338,1.056A2.341,2.341,0,0,1,256.473,70.253Zm-.027-2.823v.977a2.079,2.079,0,0,0,.563,1.473,2.012,2.012,0,0,0,3.028-.174,3.568,3.568,0,0,0,.579-2.167,2.828,2.828,0,0,0-.54-1.832,1.789,1.789,0,0,0-1.463-.663,1.988,1.988,0,0,0-1.573.68A2.5,2.5,0,0,0,256.446,67.43Z" fill="#2f2f2f"/>
      <path d="M264.037,62.487a.709.709,0,0,1-.513-.205.692.692,0,0,1-.212-.519.719.719,0,0,1,.725-.732.725.725,0,0,1,.523.209.73.73,0,0,1,0,1.035A.716.716,0,0,1,264.037,62.487Zm.546,8.778h-1.121v-7h1.121Z" fill="#2f2f2f"/>
      <path d="M267.85,70.253h-.027v4.231H266.7V64.265h1.121V65.5h.027a2.65,2.65,0,0,1,2.42-1.394,2.562,2.562,0,0,1,2.112.94,3.891,3.891,0,0,1,.759,2.519,4.339,4.339,0,0,1-.854,2.813,2.846,2.846,0,0,1-2.338,1.056A2.342,2.342,0,0,1,267.85,70.253Zm-.027-2.823v.977a2.08,2.08,0,0,0,.564,1.473,2.012,2.012,0,0,0,3.028-.174,3.575,3.575,0,0,0,.578-2.167,2.823,2.823,0,0,0-.54-1.832,1.788,1.788,0,0,0-1.463-.663,1.989,1.989,0,0,0-1.573.68A2.5,2.5,0,0,0,267.823,67.43Z" fill="#2f2f2f"/>
      <path d="M280.547,68.045h-4.942a2.61,2.61,0,0,0,.629,1.8,2.168,2.168,0,0,0,1.654.635,3.438,3.438,0,0,0,2.174-.779v1.053a4.061,4.061,0,0,1-2.441.67,2.958,2.958,0,0,1-2.331-.954,3.9,3.9,0,0,1-.847-2.683,3.827,3.827,0,0,1,.926-2.663,2.969,2.969,0,0,1,2.3-1.028,2.634,2.634,0,0,1,2.126.888,3.708,3.708,0,0,1,.752,2.468ZM279.4,67.1a2.282,2.282,0,0,0-.469-1.511,1.594,1.594,0,0,0-1.281-.54,1.811,1.811,0,0,0-1.347.567,2.568,2.568,0,0,0-.683,1.484Z" fill="#2f2f2f"/>
      <path d="M283.342,71.265h-1.121V60.9h1.121Z" fill="#2f2f2f"/>
      <path d="M286.03,62.487a.707.707,0,0,1-.513-.205.688.688,0,0,1-.212-.519.719.719,0,0,1,.725-.732.721.721,0,0,1,.522.209.728.728,0,0,1,0,1.035A.712.712,0,0,1,286.03,62.487Zm.547,8.778h-1.122v-7h1.122Z" fill="#2f2f2f"/>
      <path d="M294.505,71.265h-1.121V67.272q0-2.228-1.627-2.228a1.767,1.767,0,0,0-1.391.632,2.344,2.344,0,0,0-.55,1.6v3.993H288.7v-7h1.121v1.162h.027a2.526,2.526,0,0,1,2.3-1.326,2.143,2.143,0,0,1,1.757.741,3.309,3.309,0,0,1,.608,2.143Z" fill="#2f2f2f"/>
      <path d="M302.208,68.045h-4.942a2.629,2.629,0,0,0,.629,1.8,2.171,2.171,0,0,0,1.654.635,3.434,3.434,0,0,0,2.174-.779v1.053a4.06,4.06,0,0,1-2.44.67,2.958,2.958,0,0,1-2.331-.954,3.9,3.9,0,0,1-.848-2.683,3.823,3.823,0,0,1,.927-2.663,2.965,2.965,0,0,1,2.3-1.028,2.632,2.632,0,0,1,2.126.888,3.7,3.7,0,0,1,.752,2.468Zm-1.148-.95a2.277,2.277,0,0,0-.468-1.511,1.6,1.6,0,0,0-1.282-.54,1.813,1.813,0,0,0-1.347.567,2.581,2.581,0,0,0-.683,1.484Z" fill="#2f2f2f"/>
      <path d="M308.86,70.971a4.389,4.389,0,0,1-.694,2.655,2.325,2.325,0,0,1-1.986.934,2.111,2.111,0,0,1-.93-.219V73.3a1.861,1.861,0,0,0,.957.308q1.533,0,1.532-2.448v-6.89h1.121Zm-.547-8.484a.712.712,0,0,1-.513-.205.7.7,0,0,1-.212-.519.719.719,0,0,1,.725-.732.724.724,0,0,1,.523.209.73.73,0,0,1,0,1.035A.714.714,0,0,1,308.313,62.487Z" fill="#2f2f2f"/>
      <path d="M313.954,71.429a3.247,3.247,0,0,1-2.478-.981,3.636,3.636,0,0,1-.926-2.6,3.782,3.782,0,0,1,.964-2.755,3.466,3.466,0,0,1,2.605-.991,3.139,3.139,0,0,1,2.443.963,3.822,3.822,0,0,1,.879,2.673,3.76,3.76,0,0,1-.947,2.683A3.316,3.316,0,0,1,313.954,71.429Zm.083-6.385a2.129,2.129,0,0,0-1.709.735,3.014,3.014,0,0,0-.629,2.027,2.86,2.86,0,0,0,.635,1.962,2.164,2.164,0,0,0,1.7.717,2.045,2.045,0,0,0,1.67-.7,3.053,3.053,0,0,0,.585-2,3.1,3.1,0,0,0-.585-2.023A2.038,2.038,0,0,0,314.037,65.044Z" fill="#2f2f2f"/>
      <path d="M320.3,70.253h-.027v1.012h-1.121V60.9h1.121V65.5h.027a2.65,2.65,0,0,1,2.42-1.394,2.564,2.564,0,0,1,2.109.94,3.88,3.88,0,0,1,.762,2.519,4.339,4.339,0,0,1-.854,2.813,2.846,2.846,0,0,1-2.338,1.056A2.3,2.3,0,0,1,320.3,70.253Zm-.027-2.823v.977a2.08,2.08,0,0,0,.564,1.473,2.013,2.013,0,0,0,3.029-.174,3.582,3.582,0,0,0,.577-2.167,2.823,2.823,0,0,0-.54-1.832,1.788,1.788,0,0,0-1.463-.663,1.989,1.989,0,0,0-1.573.68A2.5,2.5,0,0,0,320.277,67.43Z" fill="#2f2f2f"/>
    </g>
    <g>
      <path d="M518.275,54.055a5.748,5.748,0,0,1-2.707.574,4.366,4.366,0,0,1-3.35-1.347,4.97,4.97,0,0,1-1.258-3.534,5.211,5.211,0,0,1,1.415-3.8,4.8,4.8,0,0,1,3.589-1.449,5.755,5.755,0,0,1,2.311.4v1.224a4.684,4.684,0,0,0-2.324-.588,3.567,3.567,0,0,0-2.738,1.128,4.248,4.248,0,0,0-1.05,3.015,4.044,4.044,0,0,0,.982,2.854,3.338,3.338,0,0,0,2.573,1.063,4.824,4.824,0,0,0,2.557-.657Z" fill="#2f2f2f"/>
      <path d="M525.1,54.465h-1.121V53.371h-.027a2.349,2.349,0,0,1-2.154,1.258,2.3,2.3,0,0,1-1.637-.554,1.918,1.918,0,0,1-.591-1.469q0-1.964,2.31-2.284l2.1-.294q0-1.783-1.442-1.784a3.443,3.443,0,0,0-2.284.862V47.957a4.342,4.342,0,0,1,2.379-.656q2.467,0,2.468,2.611Zm-1.121-3.541-1.689.232a2.728,2.728,0,0,0-1.175.387,1.11,1.11,0,0,0-.4.98,1.071,1.071,0,0,0,.365.838,1.419,1.419,0,0,0,.975.325,1.8,1.8,0,0,0,1.377-.585,2.091,2.091,0,0,0,.544-1.48Z" fill="#2f2f2f"/>
      <path d="M532.93,54.465h-1.121V50.473q0-2.229-1.627-2.229a1.769,1.769,0,0,0-1.392.632,2.349,2.349,0,0,0-.549,1.6v3.992H527.12v-7h1.121v1.162h.027a2.526,2.526,0,0,1,2.3-1.326,2.143,2.143,0,0,1,1.757.742,3.3,3.3,0,0,1,.608,2.143Z" fill="#2f2f2f"/>
      <path d="M539.779,54.144a3.649,3.649,0,0,1-1.914.485,3.172,3.172,0,0,1-2.417-.974,3.53,3.53,0,0,1-.919-2.526,3.881,3.881,0,0,1,.991-2.779,3.463,3.463,0,0,1,2.645-1.049,3.677,3.677,0,0,1,1.627.342v1.148a2.848,2.848,0,0,0-1.668-.547,2.256,2.256,0,0,0-1.76.769,2.919,2.919,0,0,0-.687,2.02,2.778,2.778,0,0,0,.646,1.942,2.225,2.225,0,0,0,1.733.711,2.811,2.811,0,0,0,1.723-.609Z" fill="#2f2f2f"/>
      <path d="M546.949,51.245h-4.943a2.619,2.619,0,0,0,.629,1.8,2.167,2.167,0,0,0,1.654.636,3.437,3.437,0,0,0,2.174-.78v1.053a4.058,4.058,0,0,1-2.44.67,2.956,2.956,0,0,1-2.331-.954,3.9,3.9,0,0,1-.848-2.683,3.829,3.829,0,0,1,.926-2.662,2.972,2.972,0,0,1,2.3-1.029,2.634,2.634,0,0,1,2.126.888,3.71,3.71,0,0,1,.752,2.468ZM545.8,50.3a2.282,2.282,0,0,0-.469-1.511,1.593,1.593,0,0,0-1.281-.54,1.81,1.81,0,0,0-1.347.568,2.569,2.569,0,0,0-.683,1.483Z" fill="#2f2f2f"/>
      <path d="M549.744,54.465h-1.122V44.1h1.122Z" fill="#2f2f2f"/>
      <path d="M496.85,70.253h-.027v4.231H495.7V64.265h1.121V65.5h.027a2.65,2.65,0,0,1,2.42-1.394,2.562,2.562,0,0,1,2.112.94,3.891,3.891,0,0,1,.759,2.519,4.339,4.339,0,0,1-.854,2.813,2.846,2.846,0,0,1-2.338,1.056A2.342,2.342,0,0,1,496.85,70.253Zm-.027-2.823v.977a2.08,2.08,0,0,0,.564,1.473,2.012,2.012,0,0,0,3.028-.174,3.575,3.575,0,0,0,.578-2.167,2.823,2.823,0,0,0-.54-1.832,1.788,1.788,0,0,0-1.463-.663,1.989,1.989,0,0,0-1.573.68A2.5,2.5,0,0,0,496.823,67.43Z" fill="#2f2f2f"/>
      <path d="M504.414,62.487a.7.7,0,0,1-.512-.205.688.688,0,0,1-.212-.519.719.719,0,0,1,.724-.732.724.724,0,0,1,.523.209.728.728,0,0,1,0,1.035A.714.714,0,0,1,504.414,62.487Zm.547,8.778H503.84v-7h1.121Z" fill="#2f2f2f"/>
      <path d="M508.228,70.253H508.2v4.231h-1.122V64.265H508.2V65.5h.027a2.648,2.648,0,0,1,2.42-1.394,2.562,2.562,0,0,1,2.112.94,3.891,3.891,0,0,1,.759,2.519,4.339,4.339,0,0,1-.855,2.813,2.845,2.845,0,0,1-2.337,1.056A2.341,2.341,0,0,1,508.228,70.253ZM508.2,67.43v.977a2.079,2.079,0,0,0,.563,1.473,2.012,2.012,0,0,0,3.028-.174,3.568,3.568,0,0,0,.578-2.167,2.823,2.823,0,0,0-.54-1.832,1.786,1.786,0,0,0-1.462-.663,1.988,1.988,0,0,0-1.573.68A2.5,2.5,0,0,0,508.2,67.43Z" fill="#2f2f2f"/>
      <path d="M520.924,68.045h-4.942a2.619,2.619,0,0,0,.629,1.8,2.171,2.171,0,0,0,1.654.635,3.434,3.434,0,0,0,2.174-.779v1.053a4.061,4.061,0,0,1-2.441.67,2.96,2.96,0,0,1-2.331-.954,3.909,3.909,0,0,1-.847-2.683,3.827,3.827,0,0,1,.926-2.663,2.969,2.969,0,0,1,2.3-1.028,2.632,2.632,0,0,1,2.126.888,3.7,3.7,0,0,1,.752,2.468Zm-1.148-.95a2.277,2.277,0,0,0-.468-1.511,1.6,1.6,0,0,0-1.282-.54,1.811,1.811,0,0,0-1.347.567A2.582,2.582,0,0,0,516,67.1Z" fill="#2f2f2f"/>
      <path d="M523.72,71.265H522.6V60.9h1.121Z" fill="#2f2f2f"/>
      <path d="M526.407,62.487a.71.71,0,0,1-.513-.205.692.692,0,0,1-.212-.519.719.719,0,0,1,.725-.732.724.724,0,0,1,.523.209.73.73,0,0,1,0,1.035A.714.714,0,0,1,526.407,62.487Zm.546,8.778h-1.121v-7h1.121Z" fill="#2f2f2f"/>
      <path d="M534.882,71.265h-1.121V67.272q0-2.228-1.627-2.228a1.764,1.764,0,0,0-1.39.632,2.34,2.34,0,0,0-.551,1.6v3.993h-1.121v-7h1.121v1.162h.027a2.528,2.528,0,0,1,2.3-1.326,2.142,2.142,0,0,1,1.757.741,3.3,3.3,0,0,1,.608,2.143Z" fill="#2f2f2f"/>
      <path d="M542.586,68.045h-4.942a2.614,2.614,0,0,0,.629,1.8,2.168,2.168,0,0,0,1.654.635,3.438,3.438,0,0,0,2.174-.779v1.053a4.06,4.06,0,0,1-2.44.67,2.958,2.958,0,0,1-2.332-.954,3.9,3.9,0,0,1-.847-2.683,3.827,3.827,0,0,1,.926-2.663,2.969,2.969,0,0,1,2.3-1.028,2.634,2.634,0,0,1,2.126.888,3.708,3.708,0,0,1,.752,2.468Zm-1.148-.95a2.282,2.282,0,0,0-.469-1.511,1.593,1.593,0,0,0-1.281-.54,1.811,1.811,0,0,0-1.347.567,2.575,2.575,0,0,0-.683,1.484Z" fill="#2f2f2f"/>
      <path d="M549.238,70.971a4.382,4.382,0,0,1-.7,2.655,2.322,2.322,0,0,1-1.985.934,2.108,2.108,0,0,1-.93-.219V73.3a1.858,1.858,0,0,0,.957.308q1.531,0,1.532-2.448v-6.89h1.121Zm-.547-8.484a.709.709,0,0,1-.513-.205.692.692,0,0,1-.212-.519.719.719,0,0,1,.725-.732.721.721,0,0,1,.522.209.728.728,0,0,1,0,1.035A.712.712,0,0,1,548.691,62.487Z" fill="#2f2f2f"/>
      <path d="M554.331,71.429a3.245,3.245,0,0,1-2.477-.981,3.632,3.632,0,0,1-.927-2.6,3.782,3.782,0,0,1,.964-2.755,3.465,3.465,0,0,1,2.6-.991,3.144,3.144,0,0,1,2.445.963,3.826,3.826,0,0,1,.878,2.673,3.76,3.76,0,0,1-.947,2.683A3.314,3.314,0,0,1,554.331,71.429Zm.082-6.385a2.135,2.135,0,0,0-1.709.735,3.024,3.024,0,0,0-.628,2.027,2.855,2.855,0,0,0,.635,1.962,2.163,2.163,0,0,0,1.7.717,2.048,2.048,0,0,0,1.672-.7,3.053,3.053,0,0,0,.584-2,3.1,3.1,0,0,0-.584-2.023A2.04,2.04,0,0,0,554.413,65.044Z" fill="#2f2f2f"/>
      <path d="M560.682,70.253h-.027v1.012h-1.121V60.9h1.121V65.5h.027A2.648,2.648,0,0,1,563.1,64.1a2.562,2.562,0,0,1,2.108.94,3.875,3.875,0,0,1,.763,2.519,4.344,4.344,0,0,1-.854,2.813,2.848,2.848,0,0,1-2.338,1.056A2.3,2.3,0,0,1,560.682,70.253Zm-.027-2.823v.977a2.079,2.079,0,0,0,.563,1.473,2.012,2.012,0,0,0,3.028-.174,3.568,3.568,0,0,0,.579-2.167,2.828,2.828,0,0,0-.54-1.832,1.789,1.789,0,0,0-1.463-.663,1.988,1.988,0,0,0-1.573.68A2.5,2.5,0,0,0,560.655,67.43Z" fill="#2f2f2f"/>
    </g>
    <g>
      <path d="M148.536,86.567v3.705h-1.149v-9.8h2.693a3.559,3.559,0,0,1,2.438.766,2.733,2.733,0,0,1,.864,2.16,2.97,2.97,0,0,1-.96,2.283,3.667,3.667,0,0,1-2.594.889Zm0-5.059v4.02h1.2a2.686,2.686,0,0,0,1.815-.544,1.923,1.923,0,0,0,.625-1.534q0-1.943-2.3-1.942Z" fill="#2f2f2f"/>
      <path d="M155.436,81.5a.716.716,0,0,1-.513-.2.7.7,0,0,1-.212-.52.717.717,0,0,1,.725-.731.723.723,0,0,1,.523.208.731.731,0,0,1,0,1.036A.718.718,0,0,1,155.436,81.5Zm.547,8.777h-1.121v-7h1.121Z" fill="#2f2f2f"/>
      <path d="M159.25,89.26h-.027v4.232H158.1V83.272h1.121V84.5h.027a2.651,2.651,0,0,1,2.42-1.394,2.563,2.563,0,0,1,2.113.94,3.9,3.9,0,0,1,.758,2.519,4.343,4.343,0,0,1-.854,2.813,2.847,2.847,0,0,1-2.338,1.056A2.343,2.343,0,0,1,159.25,89.26Zm-.027-2.823v.978a2.083,2.083,0,0,0,.564,1.473,2.011,2.011,0,0,0,3.028-.175,3.566,3.566,0,0,0,.578-2.167,2.828,2.828,0,0,0-.54-1.832,1.788,1.788,0,0,0-1.463-.663,1.986,1.986,0,0,0-1.572.68A2.5,2.5,0,0,0,159.223,86.437Z" fill="#2f2f2f"/>
      <path d="M171.947,87.052H167a2.627,2.627,0,0,0,.629,1.8,2.17,2.17,0,0,0,1.654.636,3.433,3.433,0,0,0,2.174-.78v1.053a4.058,4.058,0,0,1-2.44.67,2.959,2.959,0,0,1-2.331-.954,3.9,3.9,0,0,1-.848-2.683,3.825,3.825,0,0,1,.927-2.662,2.968,2.968,0,0,1,2.3-1.029A2.63,2.63,0,0,1,171.2,84a3.7,3.7,0,0,1,.752,2.467ZM170.8,86.1a2.277,2.277,0,0,0-.468-1.511,1.6,1.6,0,0,0-1.282-.54,1.808,1.808,0,0,0-1.346.568,2.57,2.57,0,0,0-.684,1.483Z" fill="#2f2f2f"/>
      <path d="M174.743,90.272h-1.122V79.909h1.122Z" fill="#2f2f2f"/>
      <path d="M177.429,81.5a.716.716,0,0,1-.513-.2.7.7,0,0,1-.212-.52.717.717,0,0,1,.725-.731.727.727,0,0,1,.524.208.734.734,0,0,1,0,1.036A.722.722,0,0,1,177.429,81.5Zm.547,8.777h-1.121v-7h1.121Z" fill="#2f2f2f"/>
      <path d="M185.905,90.272h-1.121V86.28q0-2.229-1.627-2.229a1.762,1.762,0,0,0-1.391.633,2.341,2.341,0,0,0-.551,1.6v3.992h-1.121v-7h1.121v1.162h.028a2.526,2.526,0,0,1,2.3-1.326,2.139,2.139,0,0,1,1.757.742,3.3,3.3,0,0,1,.609,2.143Z" fill="#2f2f2f"/>
      <path d="M193.608,87.052h-4.943a2.627,2.627,0,0,0,.629,1.8,2.17,2.17,0,0,0,1.655.636,3.432,3.432,0,0,0,2.173-.78v1.053a4.058,4.058,0,0,1-2.44.67,2.959,2.959,0,0,1-2.331-.954A3.907,3.907,0,0,1,187.5,86.8a3.825,3.825,0,0,1,.927-2.662,2.968,2.968,0,0,1,2.3-1.029,2.63,2.63,0,0,1,2.126.889,3.7,3.7,0,0,1,.752,2.467Zm-1.149-.95a2.282,2.282,0,0,0-.467-1.511,1.6,1.6,0,0,0-1.283-.54,1.808,1.808,0,0,0-1.346.568,2.576,2.576,0,0,0-.684,1.483Z" fill="#2f2f2f"/>
      <path d="M121.98,107a2.156,2.156,0,0,1-1.046.219q-1.839,0-1.839-2.051v-4.142h-1.2v-.957h1.2V98.363L120.216,98v2.071h1.764v.957h-1.764v3.944a1.641,1.641,0,0,0,.239,1,.956.956,0,0,0,.793.3,1.177,1.177,0,0,0,.732-.233Z" fill="#2f2f2f"/>
      <path d="M126.238,107.236a3.245,3.245,0,0,1-2.478-.981,3.632,3.632,0,0,1-.927-2.6,3.788,3.788,0,0,1,.964-2.755,3.466,3.466,0,0,1,2.605-.991,3.139,3.139,0,0,1,2.444.964,3.822,3.822,0,0,1,.878,2.672,3.764,3.764,0,0,1-.946,2.684A3.32,3.32,0,0,1,126.238,107.236Zm.082-6.385a2.133,2.133,0,0,0-1.709.735,3.019,3.019,0,0,0-.629,2.027,2.855,2.855,0,0,0,.636,1.962,2.161,2.161,0,0,0,1.7.718,2.051,2.051,0,0,0,1.672-.705,3.058,3.058,0,0,0,.584-2,3.11,3.11,0,0,0-.584-2.023A2.043,2.043,0,0,0,126.32,100.851Z" fill="#2f2f2f"/>
      <path d="M132.588,106.06h-.027v4.232H131.44v-10.22h1.121v1.23h.027a2.651,2.651,0,0,1,2.42-1.394,2.56,2.56,0,0,1,2.112.94,3.891,3.891,0,0,1,.759,2.519,4.343,4.343,0,0,1-.854,2.813,2.848,2.848,0,0,1-2.338,1.056A2.342,2.342,0,0,1,132.588,106.06Zm-.027-2.823v.977a2.083,2.083,0,0,0,.563,1.474,2.012,2.012,0,0,0,3.029-.175,3.573,3.573,0,0,0,.578-2.167,2.828,2.828,0,0,0-.54-1.832,1.789,1.789,0,0,0-1.463-.663,1.986,1.986,0,0,0-1.572.68A2.5,2.5,0,0,0,132.561,103.237Z" fill="#2f2f2f"/>
      <path d="M142.584,107.236a3.245,3.245,0,0,1-2.477-.981,3.632,3.632,0,0,1-.927-2.6,3.784,3.784,0,0,1,.964-2.755,3.465,3.465,0,0,1,2.6-.991,3.141,3.141,0,0,1,2.445.964,3.822,3.822,0,0,1,.878,2.672,3.764,3.764,0,0,1-.947,2.684A3.317,3.317,0,0,1,142.584,107.236Zm.082-6.385a2.135,2.135,0,0,0-1.709.735,3.019,3.019,0,0,0-.629,2.027,2.855,2.855,0,0,0,.636,1.962,2.162,2.162,0,0,0,1.7.718,2.048,2.048,0,0,0,1.672-.705,3.053,3.053,0,0,0,.584-2,3.1,3.1,0,0,0-.584-2.023A2.04,2.04,0,0,0,142.666,100.851Z" fill="#2f2f2f"/>
      <path d="M148.9,107.072H147.78V96.709H148.9Z" fill="#2f2f2f"/>
      <path d="M154.019,107.236a3.251,3.251,0,0,1-2.479-.981,3.635,3.635,0,0,1-.925-2.6,3.787,3.787,0,0,1,.963-2.755,3.466,3.466,0,0,1,2.6-.991,3.136,3.136,0,0,1,2.443.964,3.817,3.817,0,0,1,.879,2.672,3.76,3.76,0,0,1-.947,2.684A3.318,3.318,0,0,1,154.019,107.236Zm.082-6.385a2.131,2.131,0,0,0-1.709.735,3.014,3.014,0,0,0-.629,2.027,2.855,2.855,0,0,0,.636,1.962,2.162,2.162,0,0,0,1.7.718,2.047,2.047,0,0,0,1.671-.705,3.053,3.053,0,0,0,.585-2,3.1,3.1,0,0,0-.585-2.023A2.04,2.04,0,0,0,154.1,100.851Z" fill="#2f2f2f"/>
      <path d="M165.259,106.511q0,3.856-3.691,3.856a4.965,4.965,0,0,1-2.27-.492v-1.122a4.661,4.661,0,0,0,2.256.657q2.584,0,2.584-2.748V105.9h-.027a2.832,2.832,0,0,1-4.508.407,3.73,3.73,0,0,1-.8-2.506,4.359,4.359,0,0,1,.858-2.837,2.868,2.868,0,0,1,2.348-1.052,2.281,2.281,0,0,1,2.1,1.135h.027v-.971h1.121Zm-1.121-2.6v-1.032a2,2,0,0,0-.563-1.429,1.857,1.857,0,0,0-1.406-.595,1.95,1.95,0,0,0-1.627.755,3.379,3.379,0,0,0-.588,2.116,2.9,2.9,0,0,0,.565,1.87,1.822,1.822,0,0,0,1.493.7,1.954,1.954,0,0,0,1.535-.67A2.5,2.5,0,0,0,164.138,103.907Z" fill="#2f2f2f"/>
      <path d="M173.125,100.072l-3.219,8.121q-.863,2.174-2.42,2.174a2.586,2.586,0,0,1-.732-.089v-1.005a2.083,2.083,0,0,0,.663.123,1.373,1.373,0,0,0,1.272-1.012l.56-1.326-2.734-6.986h1.244l1.894,5.387q.035.1.143.533h.041c.024-.11.069-.283.137-.52l1.989-5.4Z" fill="#2f2f2f"/>
      <path d="M182.935,106.751a3.646,3.646,0,0,1-1.914.485,3.168,3.168,0,0,1-2.416-.974,3.531,3.531,0,0,1-.92-2.526,3.885,3.885,0,0,1,.991-2.779,3.467,3.467,0,0,1,2.646-1.049,3.68,3.68,0,0,1,1.627.342V101.4a2.85,2.85,0,0,0-1.668-.547,2.253,2.253,0,0,0-1.76.769,2.919,2.919,0,0,0-.688,2.02,2.781,2.781,0,0,0,.647,1.942,2.226,2.226,0,0,0,1.732.711,2.8,2.8,0,0,0,1.723-.609Z" fill="#2f2f2f"/>
      <path d="M188.074,101.207a1.37,1.37,0,0,0-.848-.226,1.431,1.431,0,0,0-1.2.677,3.122,3.122,0,0,0-.482,1.845v3.569h-1.121v-7h1.121v1.442h.028a2.444,2.444,0,0,1,.731-1.152,1.664,1.664,0,0,1,1.1-.413,1.857,1.857,0,0,1,.67.095Z" fill="#2f2f2f"/>
      <path d="M194.916,103.852h-4.942a2.619,2.619,0,0,0,.629,1.8,2.165,2.165,0,0,0,1.654.636,3.439,3.439,0,0,0,2.174-.78v1.053a4.06,4.06,0,0,1-2.44.67,2.955,2.955,0,0,1-2.331-.954,3.9,3.9,0,0,1-.848-2.683,3.824,3.824,0,0,1,.926-2.662,2.97,2.97,0,0,1,2.3-1.029,2.634,2.634,0,0,1,2.126.888,3.708,3.708,0,0,1,.752,2.468Zm-1.148-.95a2.282,2.282,0,0,0-.469-1.511,1.593,1.593,0,0,0-1.281-.54,1.811,1.811,0,0,0-1.347.567,2.575,2.575,0,0,0-.683,1.484Z" fill="#2f2f2f"/>
      <path d="M201.555,107.072h-1.121v-1.094h-.027a2.348,2.348,0,0,1-2.154,1.258,2.3,2.3,0,0,1-1.636-.554,1.916,1.916,0,0,1-.592-1.47q0-1.962,2.31-2.283l2.1-.294q0-1.784-1.442-1.784a3.451,3.451,0,0,0-2.284.861v-1.148a4.338,4.338,0,0,1,2.379-.656q2.469,0,2.468,2.611Zm-1.121-3.541-1.689.232a2.748,2.748,0,0,0-1.175.386,1.116,1.116,0,0,0-.4.981,1.07,1.07,0,0,0,.366.838,1.417,1.417,0,0,0,.974.325,1.8,1.8,0,0,0,1.378-.585,2.09,2.09,0,0,0,.543-1.48Z" fill="#2f2f2f"/>
      <path d="M206.814,107a2.162,2.162,0,0,1-1.046.219q-1.84,0-1.839-2.051v-4.142h-1.2v-.957h1.2V98.363L205.05,98v2.071h1.764v.957H205.05v3.944a1.634,1.634,0,0,0,.239,1,.954.954,0,0,0,.793.3,1.179,1.179,0,0,0,.732-.233Z" fill="#2f2f2f"/>
      <path d="M213.807,103.852h-4.942a2.61,2.61,0,0,0,.629,1.8,2.165,2.165,0,0,0,1.654.636,3.439,3.439,0,0,0,2.174-.78v1.053a4.063,4.063,0,0,1-2.441.67,2.958,2.958,0,0,1-2.331-.954,3.9,3.9,0,0,1-.847-2.683,3.828,3.828,0,0,1,.925-2.662,2.972,2.972,0,0,1,2.3-1.029,2.634,2.634,0,0,1,2.126.888,3.708,3.708,0,0,1,.752,2.468Zm-1.148-.95a2.288,2.288,0,0,0-.469-1.511,1.6,1.6,0,0,0-1.281-.54,1.81,1.81,0,0,0-1.347.567,2.575,2.575,0,0,0-.684,1.484Z" fill="#2f2f2f"/>
      <path d="M221.538,107.072h-1.121v-1.19h-.027a2.588,2.588,0,0,1-2.406,1.354,2.619,2.619,0,0,1-2.11-.94,3.858,3.858,0,0,1-.789-2.56,4.19,4.19,0,0,1,.875-2.782,2.884,2.884,0,0,1,2.331-1.046,2.244,2.244,0,0,1,2.1,1.135h.027V96.709h1.121Zm-1.121-3.165v-1.032a2.006,2.006,0,0,0-.56-1.436,1.881,1.881,0,0,0-1.422-.588,1.934,1.934,0,0,0-1.613.752,3.29,3.29,0,0,0-.588,2.078,2.963,2.963,0,0,0,.563,1.911,1.845,1.845,0,0,0,1.515.7,1.913,1.913,0,0,0,1.52-.677A2.52,2.52,0,0,0,220.417,103.907Z" fill="#2f2f2f"/>
    </g>
    <g>
      <path d="M389.312,86.566v3.706h-1.149v-9.8h2.694a3.556,3.556,0,0,1,2.437.765,2.738,2.738,0,0,1,.865,2.161,2.976,2.976,0,0,1-.96,2.283,3.673,3.673,0,0,1-2.6.888Zm0-5.058v4.019h1.2a2.692,2.692,0,0,0,1.815-.543,1.924,1.924,0,0,0,.625-1.535q0-1.941-2.3-1.941Z" fill="#2f2f2f"/>
      <path d="M396.212,81.494a.708.708,0,0,1-.512-.2.693.693,0,0,1-.212-.519.719.719,0,0,1,.724-.732.724.724,0,0,1,.524.209.73.73,0,0,1,0,1.035A.722.722,0,0,1,396.212,81.494Zm.547,8.778h-1.121v-7h1.121Z" fill="#2f2f2f"/>
      <path d="M400.027,89.26H400v4.231h-1.121V83.272H400V84.5h.028a2.649,2.649,0,0,1,2.42-1.395,2.565,2.565,0,0,1,2.112.94,3.894,3.894,0,0,1,.759,2.519,4.335,4.335,0,0,1-.855,2.813,2.844,2.844,0,0,1-2.338,1.057A2.342,2.342,0,0,1,400.027,89.26ZM400,86.437v.977a2.08,2.08,0,0,0,.564,1.473,2.012,2.012,0,0,0,3.028-.174,3.57,3.57,0,0,0,.578-2.167,2.823,2.823,0,0,0-.54-1.832,1.786,1.786,0,0,0-1.463-.663,1.984,1.984,0,0,0-1.572.68A2.5,2.5,0,0,0,400,86.437Z" fill="#2f2f2f"/>
      <path d="M412.723,87.052h-4.942a2.615,2.615,0,0,0,.629,1.8,2.168,2.168,0,0,0,1.654.636,3.44,3.44,0,0,0,2.174-.779v1.053a4.07,4.07,0,0,1-2.441.67,2.96,2.96,0,0,1-2.331-.954,3.909,3.909,0,0,1-.847-2.683,3.827,3.827,0,0,1,.926-2.663,2.968,2.968,0,0,1,2.3-1.029,2.633,2.633,0,0,1,2.126.889,3.7,3.7,0,0,1,.752,2.468Zm-1.148-.95a2.282,2.282,0,0,0-.468-1.511,1.6,1.6,0,0,0-1.282-.54,1.811,1.811,0,0,0-1.347.567,2.582,2.582,0,0,0-.684,1.484Z" fill="#2f2f2f"/>
      <path d="M415.519,90.272H414.4V79.908h1.121Z" fill="#2f2f2f"/>
      <path d="M418.205,81.494a.708.708,0,0,1-.512-.2.693.693,0,0,1-.212-.519.719.719,0,0,1,.724-.732.722.722,0,0,1,.524.209.73.73,0,0,1,0,1.035A.721.721,0,0,1,418.205,81.494Zm.547,8.778h-1.121v-7h1.121Z" fill="#2f2f2f"/>
      <path d="M426.681,90.272H425.56V86.279q0-2.229-1.627-2.228a1.766,1.766,0,0,0-1.391.632,2.344,2.344,0,0,0-.55,1.6v3.993H420.87v-7h1.122v1.162h.027a2.527,2.527,0,0,1,2.3-1.327,2.145,2.145,0,0,1,1.757.742,3.3,3.3,0,0,1,.608,2.143Z" fill="#2f2f2f"/>
      <path d="M434.384,87.052h-4.942a2.615,2.615,0,0,0,.629,1.8,2.168,2.168,0,0,0,1.654.636,3.44,3.44,0,0,0,2.174-.779v1.053a4.068,4.068,0,0,1-2.441.67,2.96,2.96,0,0,1-2.331-.954,3.909,3.909,0,0,1-.847-2.683,3.827,3.827,0,0,1,.926-2.663,2.97,2.97,0,0,1,2.3-1.029,2.633,2.633,0,0,1,2.126.889,3.7,3.7,0,0,1,.752,2.468Zm-1.148-.95a2.277,2.277,0,0,0-.468-1.511,1.6,1.6,0,0,0-1.282-.54,1.811,1.811,0,0,0-1.347.567,2.582,2.582,0,0,0-.684,1.484Z" fill="#2f2f2f"/>
      <path d="M363.411,106.06h-.028v4.231h-1.121v-10.22h1.121V101.3h.028a2.648,2.648,0,0,1,2.419-1.4,2.566,2.566,0,0,1,2.113.94,3.894,3.894,0,0,1,.759,2.519,4.341,4.341,0,0,1-.855,2.813,2.847,2.847,0,0,1-2.338,1.056A2.342,2.342,0,0,1,363.411,106.06Zm-.028-2.824v.978a2.08,2.08,0,0,0,.564,1.473,2.012,2.012,0,0,0,3.028-.174,3.57,3.57,0,0,0,.578-2.167,2.827,2.827,0,0,0-.54-1.832,1.788,1.788,0,0,0-1.463-.663,1.983,1.983,0,0,0-1.572.68A2.494,2.494,0,0,0,363.383,103.236Z" fill="#2f2f2f"/>
      <path d="M374.069,101.206a1.377,1.377,0,0,0-.848-.225,1.431,1.431,0,0,0-1.2.676,3.132,3.132,0,0,0-.482,1.846v3.568h-1.121v-7h1.121v1.443h.028a2.444,2.444,0,0,1,.731-1.152,1.667,1.667,0,0,1,1.1-.414,1.832,1.832,0,0,1,.67.1Z" fill="#2f2f2f"/>
      <path d="M378.211,107.235a3.247,3.247,0,0,1-2.478-.981,3.634,3.634,0,0,1-.926-2.6,3.785,3.785,0,0,1,.964-2.755,3.467,3.467,0,0,1,2.6-.991,3.142,3.142,0,0,1,2.444.964,3.822,3.822,0,0,1,.879,2.673,3.756,3.756,0,0,1-.948,2.683A3.315,3.315,0,0,1,378.211,107.235Zm.082-6.384a2.134,2.134,0,0,0-1.709.734,3.015,3.015,0,0,0-.629,2.027,2.852,2.852,0,0,0,.636,1.962,2.159,2.159,0,0,0,1.7.718,2.048,2.048,0,0,0,1.671-.7,3.053,3.053,0,0,0,.585-2,3.1,3.1,0,0,0-.585-2.023A2.035,2.035,0,0,0,378.293,100.851Z" fill="#2f2f2f"/>
      <path d="M388.248,106.75a3.635,3.635,0,0,1-1.914.485,3.166,3.166,0,0,1-2.416-.974,3.529,3.529,0,0,1-.92-2.526,3.879,3.879,0,0,1,.992-2.778,3.467,3.467,0,0,1,2.645-1.05,3.68,3.68,0,0,1,1.627.342V101.4a2.851,2.851,0,0,0-1.668-.546,2.253,2.253,0,0,0-1.76.769,2.917,2.917,0,0,0-.687,2.02,2.781,2.781,0,0,0,.646,1.941,2.227,2.227,0,0,0,1.733.711,2.809,2.809,0,0,0,1.722-.608Z" fill="#2f2f2f"/>
      <path d="M395.418,103.852h-4.942a2.621,2.621,0,0,0,.629,1.8,2.168,2.168,0,0,0,1.654.636,3.44,3.44,0,0,0,2.174-.779v1.052a4.06,4.06,0,0,1-2.44.67,2.957,2.957,0,0,1-2.331-.953,3.906,3.906,0,0,1-.848-2.683,3.821,3.821,0,0,1,.927-2.663,2.966,2.966,0,0,1,2.3-1.029,2.633,2.633,0,0,1,2.126.889,3.7,3.7,0,0,1,.752,2.468Zm-1.148-.951a2.274,2.274,0,0,0-.468-1.51,1.6,1.6,0,0,0-1.282-.54,1.813,1.813,0,0,0-1.347.567,2.578,2.578,0,0,0-.683,1.483Z" fill="#2f2f2f"/>
      <path d="M396.661,106.818v-1.2a3.32,3.32,0,0,0,2.016.677q1.477,0,1.477-.984a.854.854,0,0,0-.126-.475,1.276,1.276,0,0,0-.342-.346,2.7,2.7,0,0,0-.506-.27c-.194-.079-.4-.163-.626-.249a7.9,7.9,0,0,1-.816-.373,2.409,2.409,0,0,1-.588-.424,1.571,1.571,0,0,1-.356-.536,1.894,1.894,0,0,1-.12-.7,1.669,1.669,0,0,1,.226-.872,2,2,0,0,1,.6-.636,2.814,2.814,0,0,1,.859-.386,3.823,3.823,0,0,1,.994-.13,4.012,4.012,0,0,1,1.627.315v1.134a3.174,3.174,0,0,0-1.778-.5,2.12,2.12,0,0,0-.567.071,1.4,1.4,0,0,0-.433.2.913.913,0,0,0-.281.311.821.821,0,0,0-.1.4.961.961,0,0,0,.1.458,1.016,1.016,0,0,0,.29.328,2.25,2.25,0,0,0,.465.26q.274.117.622.253a8.256,8.256,0,0,1,.834.366,2.854,2.854,0,0,1,.629.423,1.65,1.65,0,0,1,.4.544,1.759,1.759,0,0,1,.14.731,1.736,1.736,0,0,1-.228.9,1.966,1.966,0,0,1-.613.635,2.789,2.789,0,0,1-.882.376,4.342,4.342,0,0,1-1.045.123A3.972,3.972,0,0,1,396.661,106.818Z" fill="#2f2f2f"/>
      <path d="M402.587,106.818v-1.2a3.322,3.322,0,0,0,2.017.677q1.476,0,1.476-.984a.854.854,0,0,0-.126-.475,1.258,1.258,0,0,0-.341-.346,2.7,2.7,0,0,0-.506-.27c-.2-.079-.4-.163-.626-.249a7.918,7.918,0,0,1-.817-.373,2.422,2.422,0,0,1-.587-.424,1.557,1.557,0,0,1-.356-.536,1.894,1.894,0,0,1-.12-.7,1.669,1.669,0,0,1,.226-.872,2,2,0,0,1,.6-.636,2.814,2.814,0,0,1,.859-.386,3.823,3.823,0,0,1,.994-.13,4.012,4.012,0,0,1,1.627.315v1.134a3.174,3.174,0,0,0-1.778-.5,2.115,2.115,0,0,0-.567.071,1.4,1.4,0,0,0-.434.2.909.909,0,0,0-.28.311.821.821,0,0,0-.1.4.961.961,0,0,0,.1.458,1,1,0,0,0,.29.328,2.25,2.25,0,0,0,.465.26q.274.117.622.253a8.256,8.256,0,0,1,.834.366,2.854,2.854,0,0,1,.629.423,1.664,1.664,0,0,1,.4.544,1.759,1.759,0,0,1,.14.731,1.727,1.727,0,0,1-.229.9,1.952,1.952,0,0,1-.612.635,2.789,2.789,0,0,1-.882.376,4.344,4.344,0,0,1-1.046.123A3.978,3.978,0,0,1,402.587,106.818Z" fill="#2f2f2f"/>
      <path d="M409.379,98.294a.7.7,0,0,1-.512-.2.69.69,0,0,1-.212-.52.717.717,0,0,1,.724-.731.724.724,0,0,1,.523.208.7.7,0,0,1,.216.523.7.7,0,0,1-.216.513A.72.72,0,0,1,409.379,98.294Zm.547,8.777h-1.121v-7h1.121Z" fill="#2f2f2f"/>
      <path d="M417.859,107.071h-1.121v-3.992q0-2.229-1.627-2.228a1.768,1.768,0,0,0-1.392.632,2.347,2.347,0,0,0-.55,1.6v3.992h-1.121v-7h1.121v1.162h.028a2.526,2.526,0,0,1,2.3-1.326,2.14,2.14,0,0,1,1.756.742,3.3,3.3,0,0,1,.609,2.143Z" fill="#2f2f2f"/>
      <path d="M425.933,106.511q0,3.855-3.691,3.855a4.962,4.962,0,0,1-2.27-.492v-1.121a4.67,4.67,0,0,0,2.256.656q2.584,0,2.584-2.748V105.9h-.027a2.833,2.833,0,0,1-4.508.406,3.724,3.724,0,0,1-.8-2.505,4.357,4.357,0,0,1,.858-2.837,2.866,2.866,0,0,1,2.348-1.053,2.284,2.284,0,0,1,2.1,1.135h.027v-.971h1.121Zm-1.121-2.6v-1.032a2,2,0,0,0-.564-1.429,1.858,1.858,0,0,0-1.4-.594,1.95,1.95,0,0,0-1.627.755,3.377,3.377,0,0,0-.588,2.116,2.893,2.893,0,0,0,.565,1.869,1.82,1.82,0,0,0,1.493.7,1.95,1.95,0,0,0,1.535-.67A2.5,2.5,0,0,0,424.812,103.906Z" fill="#2f2f2f"/>
      <path d="M431.614,106.818v-1.2a3.32,3.32,0,0,0,2.016.677q1.478,0,1.477-.984a.854.854,0,0,0-.126-.475,1.262,1.262,0,0,0-.342-.346,2.665,2.665,0,0,0-.506-.27c-.194-.079-.4-.163-.626-.249a7.9,7.9,0,0,1-.816-.373,2.409,2.409,0,0,1-.588-.424,1.586,1.586,0,0,1-.356-.536,1.894,1.894,0,0,1-.12-.7,1.679,1.679,0,0,1,.226-.872,2,2,0,0,1,.6-.636,2.825,2.825,0,0,1,.859-.386,3.823,3.823,0,0,1,.994-.13,4.012,4.012,0,0,1,1.627.315v1.134a3.171,3.171,0,0,0-1.777-.5,2.122,2.122,0,0,0-.568.071,1.4,1.4,0,0,0-.433.2.923.923,0,0,0-.281.311.821.821,0,0,0-.1.4.961.961,0,0,0,.1.458,1.016,1.016,0,0,0,.29.328,2.277,2.277,0,0,0,.465.26q.274.117.622.253a8.256,8.256,0,0,1,.834.366,2.854,2.854,0,0,1,.629.423,1.667,1.667,0,0,1,.4.544,1.775,1.775,0,0,1,.139.731,1.736,1.736,0,0,1-.228.9,1.966,1.966,0,0,1-.613.635,2.773,2.773,0,0,1-.881.376,4.35,4.35,0,0,1-1.046.123A3.972,3.972,0,0,1,431.614,106.818Z" fill="#2f2f2f"/>
      <path d="M441.267,107a2.156,2.156,0,0,1-1.046.219q-1.839,0-1.839-2.051v-4.143h-1.2v-.957h1.2V98.362L439.5,98v2.071h1.764v.957H439.5v3.945a1.633,1.633,0,0,0,.24,1,.956.956,0,0,0,.793.3,1.176,1.176,0,0,0,.731-.232Z" fill="#2f2f2f"/>
      <path d="M447.884,107.071h-1.121v-1.093h-.027a2.35,2.35,0,0,1-2.154,1.257,2.3,2.3,0,0,1-1.637-.553,1.919,1.919,0,0,1-.591-1.47q0-1.962,2.31-2.283l2.1-.294q0-1.785-1.442-1.784a3.447,3.447,0,0,0-2.284.861v-1.148a4.334,4.334,0,0,1,2.379-.657q2.467,0,2.468,2.612Zm-1.121-3.541-1.688.233a2.716,2.716,0,0,0-1.176.386,1.113,1.113,0,0,0-.4.981,1.066,1.066,0,0,0,.366.837,1.41,1.41,0,0,0,.974.325,1.8,1.8,0,0,0,1.377-.584,2.091,2.091,0,0,0,.544-1.48Z" fill="#2f2f2f"/>
      <path d="M453.143,107a2.162,2.162,0,0,1-1.046.219q-1.84,0-1.839-2.051v-4.143h-1.2v-.957h1.2V98.362L451.379,98v2.071h1.764v.957h-1.764v3.945a1.627,1.627,0,0,0,.24,1,.954.954,0,0,0,.793.3,1.178,1.178,0,0,0,.731-.232Z" fill="#2f2f2f"/>
      <path d="M460.135,103.852h-4.942a2.616,2.616,0,0,0,.629,1.8,2.168,2.168,0,0,0,1.654.636,3.44,3.44,0,0,0,2.174-.779v1.052a4.061,4.061,0,0,1-2.441.67,2.96,2.96,0,0,1-2.331-.953,3.91,3.91,0,0,1-.847-2.683,3.825,3.825,0,0,1,.926-2.663,2.97,2.97,0,0,1,2.3-1.029,2.633,2.633,0,0,1,2.126.889,3.7,3.7,0,0,1,.752,2.468Zm-1.148-.951a2.274,2.274,0,0,0-.468-1.51,1.6,1.6,0,0,0-1.282-.54,1.811,1.811,0,0,0-1.347.567,2.579,2.579,0,0,0-.684,1.483Z" fill="#2f2f2f"/>
    </g>
    <g>
      <path d="M389.313,154.927v3.705h-1.149v-9.8h2.694a3.557,3.557,0,0,1,2.437.766,2.734,2.734,0,0,1,.865,2.16,2.973,2.973,0,0,1-.96,2.283,3.675,3.675,0,0,1-2.595.889Zm0-5.059v4.02h1.2a2.682,2.682,0,0,0,1.814-.544,1.92,1.92,0,0,0,.626-1.534q0-1.943-2.3-1.942Z" fill="#2f2f2f"/>
      <path d="M396.213,149.855a.707.707,0,0,1-.512-.206.688.688,0,0,1-.212-.519.719.719,0,0,1,.724-.732.729.729,0,0,1,.524.209.731.731,0,0,1,0,1.036A.724.724,0,0,1,396.213,149.855Zm.547,8.777h-1.121v-7h1.121Z" fill="#2f2f2f"/>
      <path d="M400.028,157.62H400v4.232h-1.121v-10.22H400v1.23h.028a2.649,2.649,0,0,1,2.42-1.394,2.56,2.56,0,0,1,2.111.94,3.891,3.891,0,0,1,.76,2.519,4.332,4.332,0,0,1-.856,2.813,2.843,2.843,0,0,1-2.338,1.056A2.34,2.34,0,0,1,400.028,157.62ZM400,154.8v.977a2.084,2.084,0,0,0,.564,1.474,2.011,2.011,0,0,0,3.028-.175,3.573,3.573,0,0,0,.578-2.167,2.817,2.817,0,0,0-.541-1.832,1.785,1.785,0,0,0-1.463-.663,1.989,1.989,0,0,0-1.572.68A2.5,2.5,0,0,0,400,154.8Z" fill="#2f2f2f"/>
      <path d="M412.724,155.412h-4.942a2.614,2.614,0,0,0,.629,1.805,2.167,2.167,0,0,0,1.654.636,3.437,3.437,0,0,0,2.174-.78v1.053a4.063,4.063,0,0,1-2.441.67,2.958,2.958,0,0,1-2.331-.954,3.907,3.907,0,0,1-.847-2.683,3.828,3.828,0,0,1,.925-2.662,2.972,2.972,0,0,1,2.3-1.029,2.632,2.632,0,0,1,2.126.888,3.71,3.71,0,0,1,.752,2.468Zm-1.148-.95a2.293,2.293,0,0,0-.468-1.511,1.6,1.6,0,0,0-1.282-.54,1.809,1.809,0,0,0-1.347.568,2.57,2.57,0,0,0-.684,1.483Z" fill="#2f2f2f"/>
      <path d="M415.52,158.632H414.4V148.269h1.121Z" fill="#2f2f2f"/>
      <path d="M418.206,149.855a.707.707,0,0,1-.512-.206.692.692,0,0,1-.212-.519.719.719,0,0,1,.724-.732.722.722,0,0,1,.523.209.729.729,0,0,1,0,1.036A.717.717,0,0,1,418.206,149.855Zm.547,8.777h-1.121v-7h1.121Z" fill="#2f2f2f"/>
      <path d="M426.682,158.632h-1.121V154.64q0-2.229-1.627-2.229a1.766,1.766,0,0,0-1.391.632,2.345,2.345,0,0,0-.55,1.6v3.992h-1.122v-7h1.122v1.162h.027a2.528,2.528,0,0,1,2.3-1.326,2.142,2.142,0,0,1,1.757.742,3.3,3.3,0,0,1,.608,2.143Z" fill="#2f2f2f"/>
      <path d="M434.385,155.412h-4.942a2.614,2.614,0,0,0,.629,1.805,2.167,2.167,0,0,0,1.654.636,3.439,3.439,0,0,0,2.174-.78v1.053a4.061,4.061,0,0,1-2.441.67,2.96,2.96,0,0,1-2.331-.954,3.9,3.9,0,0,1-.847-2.683,3.824,3.824,0,0,1,.926-2.662,2.97,2.97,0,0,1,2.3-1.029,2.634,2.634,0,0,1,2.126.888,3.7,3.7,0,0,1,.752,2.468Zm-1.148-.95a2.272,2.272,0,0,0-.469-1.511,1.593,1.593,0,0,0-1.281-.54,1.807,1.807,0,0,0-1.347.568,2.576,2.576,0,0,0-.684,1.483Z" fill="#2f2f2f"/>
      <path d="M367.293,175.11a3.635,3.635,0,0,1-1.914.486,3.171,3.171,0,0,1-2.416-.974,3.533,3.533,0,0,1-.92-2.526,3.878,3.878,0,0,1,.993-2.779,3.462,3.462,0,0,1,2.644-1.049,3.68,3.68,0,0,1,1.627.341v1.149a2.848,2.848,0,0,0-1.668-.547,2.253,2.253,0,0,0-1.76.769,2.919,2.919,0,0,0-.687,2.02,2.781,2.781,0,0,0,.646,1.941,2.223,2.223,0,0,0,1.733.711,2.8,2.8,0,0,0,1.722-.608Z" fill="#2f2f2f"/>
      <path d="M371.735,175.6a3.248,3.248,0,0,1-2.479-.981,3.636,3.636,0,0,1-.926-2.6,3.786,3.786,0,0,1,.963-2.755,3.468,3.468,0,0,1,2.606-.991,3.141,3.141,0,0,1,2.443.963,3.822,3.822,0,0,1,.879,2.673,3.76,3.76,0,0,1-.947,2.683A3.315,3.315,0,0,1,371.735,175.6Zm.082-6.385a2.131,2.131,0,0,0-1.709.735,3.014,3.014,0,0,0-.629,2.027,2.855,2.855,0,0,0,.635,1.962,2.162,2.162,0,0,0,1.7.717,2.048,2.048,0,0,0,1.671-.7,3.058,3.058,0,0,0,.585-2,3.11,3.11,0,0,0-.585-2.023A2.041,2.041,0,0,0,371.817,169.211Z" fill="#2f2f2f"/>
      <path d="M386.875,175.432h-1.121v-4.02a3.022,3.022,0,0,0-.359-1.681,1.357,1.357,0,0,0-1.206-.52,1.493,1.493,0,0,0-1.22.656,2.506,2.506,0,0,0-.5,1.572v3.993h-1.121v-4.157q0-2.064-1.593-2.064a1.472,1.472,0,0,0-1.216.619,2.556,2.556,0,0,0-.479,1.609v3.993h-1.121v-7h1.121v1.107h.027a2.376,2.376,0,0,1,2.174-1.271,2.024,2.024,0,0,1,1.983,1.449,2.5,2.5,0,0,1,2.324-1.449q2.311,0,2.31,2.85Z" fill="#2f2f2f"/>
      <path d="M390.051,174.42h-.027v4.231H388.9V168.432h1.121v1.23h.027a2.649,2.649,0,0,1,2.42-1.394,2.559,2.559,0,0,1,2.111.94,3.891,3.891,0,0,1,.76,2.519,4.339,4.339,0,0,1-.855,2.813,2.846,2.846,0,0,1-2.338,1.056A2.342,2.342,0,0,1,390.051,174.42Zm-.027-2.823v.977a2.079,2.079,0,0,0,.563,1.473,2.013,2.013,0,0,0,3.029-.174,3.582,3.582,0,0,0,.578-2.167,2.823,2.823,0,0,0-.541-1.832,1.788,1.788,0,0,0-1.463-.663,1.986,1.986,0,0,0-1.572.68A2.5,2.5,0,0,0,390.024,171.6Z" fill="#2f2f2f"/>
      <path d="M398.192,175.432h-1.121V165.068h1.121Z" fill="#2f2f2f"/>
      <path d="M406.026,172.212h-4.942a2.619,2.619,0,0,0,.629,1.805,2.17,2.17,0,0,0,1.655.635,3.435,3.435,0,0,0,2.173-.779v1.053a4.061,4.061,0,0,1-2.441.67,2.956,2.956,0,0,1-2.33-.954,3.9,3.9,0,0,1-.848-2.683,3.832,3.832,0,0,1,.926-2.663,2.97,2.97,0,0,1,2.3-1.028,2.63,2.63,0,0,1,2.125.888,3.7,3.7,0,0,1,.752,2.468Zm-1.149-.95a2.282,2.282,0,0,0-.467-1.511,1.6,1.6,0,0,0-1.283-.54,1.809,1.809,0,0,0-1.345.567,2.569,2.569,0,0,0-.684,1.484Z" fill="#2f2f2f"/>
      <path d="M410.95,175.363a2.157,2.157,0,0,1-1.045.219q-1.84,0-1.84-2.051v-4.142h-1.2v-.957h1.2v-1.709l1.121-.363v2.072h1.764v.957h-1.764v3.944a1.633,1.633,0,0,0,.24,1,.953.953,0,0,0,.793.3,1.178,1.178,0,0,0,.731-.233Z" fill="#2f2f2f"/>
      <path d="M417.944,172.212H413a2.629,2.629,0,0,0,.629,1.805,2.173,2.173,0,0,0,1.655.635,3.431,3.431,0,0,0,2.173-.779v1.053a4.054,4.054,0,0,1-2.439.67,2.96,2.96,0,0,1-2.332-.954,3.9,3.9,0,0,1-.848-2.683,3.827,3.827,0,0,1,.927-2.663,2.969,2.969,0,0,1,2.3-1.028,2.636,2.636,0,0,1,2.127.888,3.708,3.708,0,0,1,.752,2.468Zm-1.149-.95a2.288,2.288,0,0,0-.468-1.511,1.6,1.6,0,0,0-1.282-.54,1.811,1.811,0,0,0-1.347.567,2.575,2.575,0,0,0-.684,1.484Z" fill="#2f2f2f"/>
      <path d="M425.674,175.432h-1.121v-1.19h-.027a2.588,2.588,0,0,1-2.406,1.354,2.617,2.617,0,0,1-2.109-.94,3.859,3.859,0,0,1-.79-2.56,4.2,4.2,0,0,1,.875-2.782,2.886,2.886,0,0,1,2.332-1.046,2.244,2.244,0,0,1,2.1,1.134h.027v-4.334h1.121Zm-1.121-3.165v-1.033a2,2,0,0,0-.56-1.435,1.879,1.879,0,0,0-1.422-.588,1.936,1.936,0,0,0-1.614.752,3.3,3.3,0,0,0-.587,2.078,2.965,2.965,0,0,0,.564,1.911,1.843,1.843,0,0,0,1.514.7,1.914,1.914,0,0,0,1.521-.676A2.521,2.521,0,0,0,424.553,172.267Z" fill="#2f2f2f"/>
      <path d="M431.356,175.179v-1.2a3.314,3.314,0,0,0,2.015.676q1.478,0,1.477-.984a.848.848,0,0,0-.126-.475,1.259,1.259,0,0,0-.342-.345,2.552,2.552,0,0,0-.506-.27c-.194-.08-.4-.163-.626-.25a8.121,8.121,0,0,1-.816-.372,2.5,2.5,0,0,1-.588-.424,1.577,1.577,0,0,1-.355-.537,1.9,1.9,0,0,1-.119-.7,1.677,1.677,0,0,1,.224-.872,2.024,2.024,0,0,1,.6-.635,2.821,2.821,0,0,1,.858-.387,3.83,3.83,0,0,1,1-.129,4.026,4.026,0,0,1,1.627.314v1.135a3.164,3.164,0,0,0-1.777-.506,2.084,2.084,0,0,0-.569.072,1.408,1.408,0,0,0-.433.2.928.928,0,0,0-.28.311.821.821,0,0,0-.1.4.961.961,0,0,0,.1.458.994.994,0,0,0,.29.328,2.222,2.222,0,0,0,.464.26q.274.117.624.253a8.679,8.679,0,0,1,.833.366,2.8,2.8,0,0,1,.629.424,1.65,1.65,0,0,1,.4.543,1.761,1.761,0,0,1,.139.732,1.73,1.73,0,0,1-.228.9,1.962,1.962,0,0,1-.611.636,2.827,2.827,0,0,1-.883.376,4.348,4.348,0,0,1-1.045.123A3.967,3.967,0,0,1,431.356,175.179Z" fill="#2f2f2f"/>
      <path d="M441.008,175.363a2.152,2.152,0,0,1-1.045.219q-1.839,0-1.84-2.051v-4.142h-1.2v-.957h1.2v-1.709l1.122-.363v2.072h1.763v.957h-1.763v3.944a1.633,1.633,0,0,0,.24,1,.953.953,0,0,0,.793.3,1.175,1.175,0,0,0,.73-.233Z" fill="#2f2f2f"/>
      <path d="M447.625,175.432H446.5v-1.094h-.027a2.347,2.347,0,0,1-2.152,1.258,2.3,2.3,0,0,1-1.638-.554,1.919,1.919,0,0,1-.591-1.47q0-1.962,2.311-2.283l2.1-.294q0-1.784-1.441-1.784a3.443,3.443,0,0,0-2.283.861v-1.148a4.328,4.328,0,0,1,2.379-.656q2.466,0,2.466,2.611Zm-1.121-3.541-1.687.232a2.748,2.748,0,0,0-1.176.386,1.113,1.113,0,0,0-.4.981,1.069,1.069,0,0,0,.365.838,1.414,1.414,0,0,0,.974.324,1.8,1.8,0,0,0,1.377-.584,2.086,2.086,0,0,0,.543-1.48Z" fill="#2f2f2f"/>
      <path d="M452.884,175.363a2.156,2.156,0,0,1-1.046.219q-1.839,0-1.839-2.051v-4.142h-1.2v-.957H450v-1.709l1.121-.363v2.072h1.764v.957H451.12v3.944a1.633,1.633,0,0,0,.24,1,.954.954,0,0,0,.793.3,1.176,1.176,0,0,0,.731-.233Z" fill="#2f2f2f"/>
      <path d="M459.877,172.212h-4.942a2.614,2.614,0,0,0,.629,1.805,2.17,2.17,0,0,0,1.654.635,3.438,3.438,0,0,0,2.174-.779v1.053a4.06,4.06,0,0,1-2.44.67,2.961,2.961,0,0,1-2.332-.954,3.9,3.9,0,0,1-.847-2.683,3.823,3.823,0,0,1,.927-2.663,2.965,2.965,0,0,1,2.3-1.028,2.634,2.634,0,0,1,2.126.888,3.7,3.7,0,0,1,.752,2.468Zm-1.148-.95a2.272,2.272,0,0,0-.469-1.511,1.593,1.593,0,0,0-1.281-.54,1.811,1.811,0,0,0-1.347.567,2.581,2.581,0,0,0-.683,1.484Z" fill="#2f2f2f"/>
    </g>
    <g>
      <path d="M370.612,27.11v3.705h-1.149v-9.8h2.694a3.558,3.558,0,0,1,2.437.765,2.737,2.737,0,0,1,.864,2.161,2.973,2.973,0,0,1-.96,2.283,3.669,3.669,0,0,1-2.594.888Zm0-5.058v4.019h1.2a2.692,2.692,0,0,0,1.815-.543,1.924,1.924,0,0,0,.625-1.535q0-1.941-2.3-1.941Z" fill="#2f2f2f"/>
      <path d="M377.512,22.038a.712.712,0,0,1-.513-.205.7.7,0,0,1-.212-.519.719.719,0,0,1,.725-.732.724.724,0,0,1,.524.209.733.733,0,0,1,0,1.035A.722.722,0,0,1,377.512,22.038Zm.547,8.777h-1.121v-7h1.121Z" fill="#2f2f2f"/>
      <path d="M381.327,29.8H381.3v4.231h-1.121V23.815H381.3v1.231h.028a2.648,2.648,0,0,1,2.419-1.395,2.566,2.566,0,0,1,2.113.94,3.894,3.894,0,0,1,.759,2.519,4.341,4.341,0,0,1-.855,2.813,2.848,2.848,0,0,1-2.338,1.057A2.342,2.342,0,0,1,381.327,29.8Zm-.028-2.823v.977a2.08,2.08,0,0,0,.564,1.473,2.012,2.012,0,0,0,3.028-.174,3.57,3.57,0,0,0,.578-2.167,2.828,2.828,0,0,0-.54-1.832,1.788,1.788,0,0,0-1.463-.663,1.983,1.983,0,0,0-1.572.68A2.5,2.5,0,0,0,381.3,26.981Z" fill="#2f2f2f"/>
      <path d="M394.023,27.6H389.08a2.624,2.624,0,0,0,.629,1.8,2.17,2.17,0,0,0,1.655.636,3.437,3.437,0,0,0,2.173-.779V30.31a4.065,4.065,0,0,1-2.44.67,2.959,2.959,0,0,1-2.331-.954,3.909,3.909,0,0,1-.848-2.683,3.826,3.826,0,0,1,.927-2.663,2.968,2.968,0,0,1,2.3-1.029,2.633,2.633,0,0,1,2.126.889,3.7,3.7,0,0,1,.752,2.468Zm-1.149-.95a2.282,2.282,0,0,0-.467-1.511,1.6,1.6,0,0,0-1.283-.54,1.811,1.811,0,0,0-1.346.567,2.582,2.582,0,0,0-.684,1.484Z" fill="#2f2f2f"/>
      <path d="M396.819,30.815H395.7V20.452h1.121Z" fill="#2f2f2f"/>
      <path d="M399.505,22.038a.708.708,0,0,1-.512-.205.693.693,0,0,1-.212-.519.719.719,0,0,1,.724-.732.724.724,0,0,1,.524.209.73.73,0,0,1,0,1.035A.722.722,0,0,1,399.505,22.038Zm.547,8.777h-1.121v-7h1.121Z" fill="#2f2f2f"/>
      <path d="M407.981,30.815H406.86V26.823q0-2.229-1.627-2.228a1.764,1.764,0,0,0-1.391.632,2.343,2.343,0,0,0-.551,1.6v3.992H402.17v-7h1.121v1.163h.028a2.527,2.527,0,0,1,2.3-1.327,2.139,2.139,0,0,1,1.756.742,3.3,3.3,0,0,1,.609,2.143Z" fill="#2f2f2f"/>
      <path d="M415.684,27.6h-4.942a2.619,2.619,0,0,0,.628,1.8,2.172,2.172,0,0,0,1.655.636,3.442,3.442,0,0,0,2.174-.779V30.31a4.07,4.07,0,0,1-2.441.67,2.96,2.96,0,0,1-2.331-.954,3.909,3.909,0,0,1-.848-2.683,3.826,3.826,0,0,1,.927-2.663,2.968,2.968,0,0,1,2.3-1.029,2.633,2.633,0,0,1,2.126.889,3.7,3.7,0,0,1,.752,2.468Zm-1.148-.95a2.282,2.282,0,0,0-.468-1.511,1.6,1.6,0,0,0-1.282-.54,1.811,1.811,0,0,0-1.347.567,2.582,2.582,0,0,0-.684,1.484Z" fill="#2f2f2f"/>
      <path d="M424.673,21.437a1.494,1.494,0,0,0-.745-.185q-1.175,0-1.176,1.483v1.08h1.641v.957h-1.641v6.043h-1.114V24.772h-1.2v-.957h1.2V22.681a2.357,2.357,0,0,1,.636-1.74,2.148,2.148,0,0,1,1.586-.639,2.192,2.192,0,0,1,.813.123Z" fill="#2f2f2f"/>
      <path d="M430.568,30.815h-1.121V29.722h-.028a2.347,2.347,0,0,1-2.153,1.258,2.3,2.3,0,0,1-1.637-.554,1.92,1.92,0,0,1-.592-1.47q0-1.962,2.311-2.283l2.1-.294q0-1.785-1.443-1.784a3.45,3.45,0,0,0-2.283.861V24.308a4.339,4.339,0,0,1,2.379-.657q2.467,0,2.468,2.612Zm-1.121-3.541-1.689.233a2.757,2.757,0,0,0-1.176.386,1.118,1.118,0,0,0-.4.981,1.066,1.066,0,0,0,.366.837,1.408,1.408,0,0,0,.974.325,1.8,1.8,0,0,0,1.378-.584,2.09,2.09,0,0,0,.543-1.48Z" fill="#2f2f2f"/>
      <path d="M433.147,22.038a.709.709,0,0,1-.513-.205.693.693,0,0,1-.212-.519.719.719,0,0,1,.725-.732.717.717,0,0,1,.522.209.728.728,0,0,1,0,1.035A.716.716,0,0,1,433.147,22.038Zm.547,8.777h-1.121v-7h1.121Z" fill="#2f2f2f"/>
      <path d="M436.942,30.815h-1.121V20.452h1.121Z" fill="#2f2f2f"/>
      <path d="M444.78,27.6h-4.943a2.615,2.615,0,0,0,.629,1.8,2.167,2.167,0,0,0,1.654.636,3.442,3.442,0,0,0,2.174-.779V30.31a4.065,4.065,0,0,1-2.44.67,2.956,2.956,0,0,1-2.331-.954,3.9,3.9,0,0,1-.848-2.683,3.83,3.83,0,0,1,.926-2.663,2.972,2.972,0,0,1,2.3-1.029,2.634,2.634,0,0,1,2.126.889,3.706,3.706,0,0,1,.752,2.468Zm-1.149-.95a2.282,2.282,0,0,0-.469-1.511,1.593,1.593,0,0,0-1.281-.54,1.809,1.809,0,0,0-1.346.567,2.569,2.569,0,0,0-.684,1.484Z" fill="#2f2f2f"/>
      <path d="M452.511,30.815H451.39V29.626h-.027a2.825,2.825,0,0,1-4.516.414,3.858,3.858,0,0,1-.789-2.56,4.194,4.194,0,0,1,.875-2.783,2.886,2.886,0,0,1,2.331-1.046,2.247,2.247,0,0,1,2.1,1.135h.027V20.452h1.121ZM451.39,27.65V26.618a2,2,0,0,0-.561-1.435,1.879,1.879,0,0,0-1.421-.588,1.935,1.935,0,0,0-1.614.752,3.294,3.294,0,0,0-.588,2.078,2.963,2.963,0,0,0,.564,1.91,1.842,1.842,0,0,0,1.515.7,1.911,1.911,0,0,0,1.52-.677A2.52,2.52,0,0,0,451.39,27.65Z" fill="#2f2f2f"/>
    </g>
    <g>
      <path d="M631.078,154.927v3.705H629.93v-9.8h2.693a3.559,3.559,0,0,1,2.438.766,2.733,2.733,0,0,1,.864,2.16,2.97,2.97,0,0,1-.96,2.283,3.672,3.672,0,0,1-2.6.889Zm0-5.059v4.02h1.2a2.686,2.686,0,0,0,1.815-.544,1.923,1.923,0,0,0,.625-1.534q0-1.943-2.3-1.942Z" fill="#2f2f2f"/>
      <path d="M637.979,149.855a.713.713,0,0,1-.513-.206.7.7,0,0,1-.212-.519.719.719,0,0,1,.725-.732.724.724,0,0,1,.523.209.731.731,0,0,1,0,1.036A.718.718,0,0,1,637.979,149.855Zm.547,8.777h-1.121v-7h1.121Z" fill="#2f2f2f"/>
      <path d="M641.793,157.62h-.027v4.232h-1.121v-10.22h1.121v1.23h.027a2.651,2.651,0,0,1,2.42-1.394,2.563,2.563,0,0,1,2.113.94,3.9,3.9,0,0,1,.758,2.519,4.343,4.343,0,0,1-.854,2.813,2.847,2.847,0,0,1-2.338,1.056A2.343,2.343,0,0,1,641.793,157.62Zm-.027-2.823v.977a2.083,2.083,0,0,0,.563,1.474,2.012,2.012,0,0,0,3.029-.175,3.566,3.566,0,0,0,.578-2.167,2.828,2.828,0,0,0-.54-1.832,1.788,1.788,0,0,0-1.463-.663,1.986,1.986,0,0,0-1.572.68A2.5,2.5,0,0,0,641.766,154.8Z" fill="#2f2f2f"/>
      <path d="M654.49,155.412h-4.943a2.629,2.629,0,0,0,.629,1.805,2.17,2.17,0,0,0,1.654.636,3.433,3.433,0,0,0,2.174-.78v1.053a4.058,4.058,0,0,1-2.44.67,2.959,2.959,0,0,1-2.331-.954,3.9,3.9,0,0,1-.848-2.683,3.825,3.825,0,0,1,.927-2.662,2.968,2.968,0,0,1,2.3-1.029,2.632,2.632,0,0,1,2.126.888,3.7,3.7,0,0,1,.752,2.468Zm-1.149-.95a2.277,2.277,0,0,0-.468-1.511,1.6,1.6,0,0,0-1.282-.54,1.808,1.808,0,0,0-1.346.568,2.57,2.57,0,0,0-.684,1.483Z" fill="#2f2f2f"/>
      <path d="M657.286,158.632h-1.122V148.269h1.122Z" fill="#2f2f2f"/>
      <path d="M659.972,149.855a.713.713,0,0,1-.513-.206.7.7,0,0,1-.212-.519.719.719,0,0,1,.725-.732.724.724,0,0,1,.523.209.731.731,0,0,1,0,1.036A.718.718,0,0,1,659.972,149.855Zm.547,8.777H659.4v-7h1.121Z" fill="#2f2f2f"/>
      <path d="M668.448,158.632h-1.121V154.64q0-2.229-1.627-2.229a1.764,1.764,0,0,0-1.391.632,2.346,2.346,0,0,0-.551,1.6v3.992h-1.121v-7h1.121v1.162h.028a2.526,2.526,0,0,1,2.3-1.326,2.139,2.139,0,0,1,1.757.742,3.3,3.3,0,0,1,.609,2.143Z" fill="#2f2f2f"/>
      <path d="M676.151,155.412h-4.943a2.629,2.629,0,0,0,.629,1.805,2.17,2.17,0,0,0,1.655.636,3.432,3.432,0,0,0,2.173-.78v1.053a4.058,4.058,0,0,1-2.44.67,2.959,2.959,0,0,1-2.331-.954,3.9,3.9,0,0,1-.848-2.683,3.825,3.825,0,0,1,.927-2.662,2.968,2.968,0,0,1,2.3-1.029,2.632,2.632,0,0,1,2.126.888,3.7,3.7,0,0,1,.752,2.468Zm-1.149-.95a2.282,2.282,0,0,0-.467-1.511,1.6,1.6,0,0,0-1.283-.54,1.808,1.808,0,0,0-1.346.568,2.576,2.576,0,0,0-.684,1.483Z" fill="#2f2f2f"/>
      <path d="M609.06,175.11a3.64,3.64,0,0,1-1.914.486,3.172,3.172,0,0,1-2.417-.974,3.536,3.536,0,0,1-.919-2.526,3.881,3.881,0,0,1,.991-2.779,3.464,3.464,0,0,1,2.646-1.049,3.683,3.683,0,0,1,1.627.341v1.149a2.852,2.852,0,0,0-1.668-.547,2.254,2.254,0,0,0-1.761.769,2.919,2.919,0,0,0-.687,2.02,2.777,2.777,0,0,0,.646,1.941,2.225,2.225,0,0,0,1.733.711,2.808,2.808,0,0,0,1.723-.608Z" fill="#2f2f2f"/>
      <path d="M613.5,175.6a3.247,3.247,0,0,1-2.478-.981,3.636,3.636,0,0,1-.926-2.6,3.782,3.782,0,0,1,.964-2.755,3.465,3.465,0,0,1,2.6-.991,3.141,3.141,0,0,1,2.444.963,3.822,3.822,0,0,1,.879,2.673,3.756,3.756,0,0,1-.948,2.683A3.312,3.312,0,0,1,613.5,175.6Zm.082-6.385a2.132,2.132,0,0,0-1.709.735,3.013,3.013,0,0,0-.628,2.027,2.855,2.855,0,0,0,.635,1.962,2.162,2.162,0,0,0,1.7.717,2.045,2.045,0,0,0,1.671-.7,3.053,3.053,0,0,0,.585-2,3.1,3.1,0,0,0-.585-2.023A2.038,2.038,0,0,0,613.582,169.211Z" fill="#2f2f2f"/>
      <path d="M628.641,175.432H627.52v-4.02a3.032,3.032,0,0,0-.358-1.681,1.362,1.362,0,0,0-1.208-.52,1.494,1.494,0,0,0-1.219.656,2.512,2.512,0,0,0-.5,1.572v3.993h-1.121v-4.157q0-2.064-1.593-2.064a1.475,1.475,0,0,0-1.217.619,2.561,2.561,0,0,0-.478,1.609v3.993H618.7v-7h1.121v1.107h.027a2.378,2.378,0,0,1,2.174-1.271,2.021,2.021,0,0,1,1.982,1.449,2.5,2.5,0,0,1,2.324-1.449q2.311,0,2.311,2.85Z" fill="#2f2f2f"/>
      <path d="M631.817,174.42h-.028v4.231h-1.121V168.432h1.121v1.23h.028a2.648,2.648,0,0,1,2.42-1.394,2.562,2.562,0,0,1,2.112.94,3.891,3.891,0,0,1,.759,2.519,4.339,4.339,0,0,1-.855,2.813,2.846,2.846,0,0,1-2.338,1.056A2.341,2.341,0,0,1,631.817,174.42Zm-.028-2.823v.977a2.08,2.08,0,0,0,.564,1.473,2.012,2.012,0,0,0,3.028-.174,3.568,3.568,0,0,0,.578-2.167,2.823,2.823,0,0,0-.54-1.832,1.786,1.786,0,0,0-1.463-.663,1.987,1.987,0,0,0-1.572.68A2.5,2.5,0,0,0,631.789,171.6Z" fill="#2f2f2f"/>
      <path d="M639.958,175.432h-1.121V165.068h1.121Z" fill="#2f2f2f"/>
      <path d="M647.792,172.212H642.85a2.619,2.619,0,0,0,.629,1.805,2.168,2.168,0,0,0,1.654.635,3.438,3.438,0,0,0,2.174-.779v1.053a4.06,4.06,0,0,1-2.44.67,2.955,2.955,0,0,1-2.331-.954,3.9,3.9,0,0,1-.848-2.683,3.827,3.827,0,0,1,.926-2.663,2.969,2.969,0,0,1,2.3-1.028,2.634,2.634,0,0,1,2.126.888,3.708,3.708,0,0,1,.752,2.468Zm-1.148-.95a2.282,2.282,0,0,0-.469-1.511,1.593,1.593,0,0,0-1.281-.54,1.811,1.811,0,0,0-1.347.567,2.575,2.575,0,0,0-.683,1.484Z" fill="#2f2f2f"/>
      <path d="M652.716,175.363a2.159,2.159,0,0,1-1.046.219q-1.839,0-1.839-2.051v-4.142h-1.2v-.957h1.2v-1.709l1.122-.363v2.072h1.763v.957h-1.763v3.944a1.634,1.634,0,0,0,.239,1,.953.953,0,0,0,.793.3,1.178,1.178,0,0,0,.731-.233Z" fill="#2f2f2f"/>
      <path d="M659.709,172.212h-4.942a2.619,2.619,0,0,0,.629,1.805,2.168,2.168,0,0,0,1.654.635,3.438,3.438,0,0,0,2.174-.779v1.053a4.06,4.06,0,0,1-2.44.67,2.955,2.955,0,0,1-2.331-.954,3.9,3.9,0,0,1-.848-2.683,3.827,3.827,0,0,1,.926-2.663,2.969,2.969,0,0,1,2.3-1.028,2.634,2.634,0,0,1,2.126.888,3.708,3.708,0,0,1,.752,2.468Zm-1.148-.95a2.282,2.282,0,0,0-.469-1.511,1.593,1.593,0,0,0-1.281-.54,1.811,1.811,0,0,0-1.347.567,2.575,2.575,0,0,0-.683,1.484Z" fill="#2f2f2f"/>
      <path d="M667.441,175.432H666.32v-1.19h-.028a2.587,2.587,0,0,1-2.406,1.354,2.616,2.616,0,0,1-2.109-.94,3.853,3.853,0,0,1-.789-2.56,4.19,4.19,0,0,1,.875-2.782,2.883,2.883,0,0,1,2.331-1.046,2.243,2.243,0,0,1,2.1,1.134h.028v-4.334h1.121Zm-1.121-3.165v-1.033a2,2,0,0,0-.561-1.435,1.879,1.879,0,0,0-1.422-.588,1.934,1.934,0,0,0-1.613.752,3.288,3.288,0,0,0-.588,2.078,2.965,2.965,0,0,0,.564,1.911,1.842,1.842,0,0,0,1.514.7,1.916,1.916,0,0,0,1.521-.676A2.527,2.527,0,0,0,666.32,172.267Z" fill="#2f2f2f"/>
      <path d="M673.121,175.179v-1.2a3.319,3.319,0,0,0,2.017.676q1.476,0,1.477-.984a.848.848,0,0,0-.127-.475,1.259,1.259,0,0,0-.342-.345,2.609,2.609,0,0,0-.506-.27c-.193-.08-.4-.163-.625-.25a8.043,8.043,0,0,1-.817-.372,2.483,2.483,0,0,1-.588-.424,1.58,1.58,0,0,1-.356-.537,1.915,1.915,0,0,1-.119-.7,1.669,1.669,0,0,1,.226-.872,2,2,0,0,1,.6-.635,2.8,2.8,0,0,1,.858-.387,3.83,3.83,0,0,1,1-.129,4.032,4.032,0,0,1,1.627.314v1.135a3.169,3.169,0,0,0-1.778-.506,2.064,2.064,0,0,0-.567.072,1.42,1.42,0,0,0-.435.2.961.961,0,0,0-.28.311.831.831,0,0,0-.1.4.973.973,0,0,0,.1.458,1.009,1.009,0,0,0,.291.328,2.156,2.156,0,0,0,.465.26c.182.078.39.162.622.253a8.594,8.594,0,0,1,.834.366,2.845,2.845,0,0,1,.629.424,1.633,1.633,0,0,1,.4.543,1.744,1.744,0,0,1,.141.732,1.721,1.721,0,0,1-.229.9,1.975,1.975,0,0,1-.612.636,2.832,2.832,0,0,1-.882.376A4.354,4.354,0,0,1,675,175.6,3.974,3.974,0,0,1,673.121,175.179Z" fill="#2f2f2f"/>
      <path d="M682.775,175.363a2.162,2.162,0,0,1-1.046.219q-1.841,0-1.839-2.051v-4.142h-1.2v-.957h1.2v-1.709l1.121-.363v2.072h1.764v.957h-1.764v3.944a1.634,1.634,0,0,0,.239,1,.954.954,0,0,0,.793.3,1.179,1.179,0,0,0,.732-.233Z" fill="#2f2f2f"/>
      <path d="M689.392,175.432h-1.121v-1.094h-.027a2.352,2.352,0,0,1-2.154,1.258,2.3,2.3,0,0,1-1.637-.554,1.919,1.919,0,0,1-.591-1.47q0-1.962,2.31-2.283l2.1-.294q0-1.784-1.443-1.784a3.446,3.446,0,0,0-2.283.861v-1.148a4.333,4.333,0,0,1,2.379-.656q2.467,0,2.468,2.611Zm-1.121-3.541-1.689.232a2.743,2.743,0,0,0-1.175.386,1.113,1.113,0,0,0-.4.981,1.072,1.072,0,0,0,.365.838,1.419,1.419,0,0,0,.975.324,1.8,1.8,0,0,0,1.377-.584,2.091,2.091,0,0,0,.544-1.48Z" fill="#2f2f2f"/>
      <path d="M694.65,175.363a2.159,2.159,0,0,1-1.046.219q-1.839,0-1.839-2.051v-4.142h-1.2v-.957h1.2v-1.709l1.121-.363v2.072h1.764v.957h-1.764v3.944a1.641,1.641,0,0,0,.239,1,.956.956,0,0,0,.793.3,1.177,1.177,0,0,0,.732-.233Z" fill="#2f2f2f"/>
      <path d="M701.643,172.212H696.7a2.623,2.623,0,0,0,.628,1.805,2.175,2.175,0,0,0,1.655.635,3.436,3.436,0,0,0,2.174-.779v1.053a4.063,4.063,0,0,1-2.441.67,2.96,2.96,0,0,1-2.331-.954,3.909,3.909,0,0,1-.848-2.683,3.827,3.827,0,0,1,.927-2.663,2.968,2.968,0,0,1,2.3-1.028,2.632,2.632,0,0,1,2.126.888,3.7,3.7,0,0,1,.752,2.468Zm-1.148-.95a2.282,2.282,0,0,0-.468-1.511,1.6,1.6,0,0,0-1.282-.54,1.811,1.811,0,0,0-1.347.567,2.582,2.582,0,0,0-.684,1.484Z" fill="#2f2f2f"/>
    </g>
    <g>
      <path d="M612.378,27.11v3.705H611.23v-9.8h2.693a3.556,3.556,0,0,1,2.437.765,2.734,2.734,0,0,1,.865,2.161,2.97,2.97,0,0,1-.961,2.283,3.671,3.671,0,0,1-2.594.888Zm0-5.058v4.019h1.2a2.692,2.692,0,0,0,1.815-.543,1.924,1.924,0,0,0,.626-1.535q0-1.941-2.3-1.941Z" fill="#2f2f2f"/>
      <path d="M619.279,22.038a.709.709,0,0,1-.513-.205.69.69,0,0,1-.212-.519.719.719,0,0,1,.725-.732.717.717,0,0,1,.522.209.728.728,0,0,1,0,1.035A.716.716,0,0,1,619.279,22.038Zm.547,8.777H618.7v-7h1.122Z" fill="#2f2f2f"/>
      <path d="M623.092,29.8h-.027v4.231h-1.121V23.815h1.121v1.231h.027a2.652,2.652,0,0,1,2.42-1.395,2.564,2.564,0,0,1,2.112.94,3.894,3.894,0,0,1,.759,2.519,4.335,4.335,0,0,1-.854,2.813,2.847,2.847,0,0,1-2.338,1.057A2.345,2.345,0,0,1,623.092,29.8Zm-.027-2.823v.977a2.08,2.08,0,0,0,.564,1.473,2.013,2.013,0,0,0,3.029-.174,3.584,3.584,0,0,0,.577-2.167,2.823,2.823,0,0,0-.54-1.832,1.788,1.788,0,0,0-1.463-.663,1.983,1.983,0,0,0-1.572.68A2.5,2.5,0,0,0,623.065,26.981Z" fill="#2f2f2f"/>
      <path d="M635.789,27.6h-4.942a2.615,2.615,0,0,0,.629,1.8,2.165,2.165,0,0,0,1.654.636,3.444,3.444,0,0,0,2.174-.779V30.31a4.067,4.067,0,0,1-2.44.67,2.955,2.955,0,0,1-2.331-.954,3.9,3.9,0,0,1-.848-2.683,3.83,3.83,0,0,1,.926-2.663,2.97,2.97,0,0,1,2.3-1.029,2.631,2.631,0,0,1,2.125.889,3.706,3.706,0,0,1,.752,2.468Zm-1.148-.95a2.282,2.282,0,0,0-.469-1.511,1.593,1.593,0,0,0-1.281-.54,1.811,1.811,0,0,0-1.347.567,2.575,2.575,0,0,0-.683,1.484Z" fill="#2f2f2f"/>
      <path d="M638.584,30.815h-1.121V20.452h1.121Z" fill="#2f2f2f"/>
      <path d="M641.272,22.038a.709.709,0,0,1-.513-.205.693.693,0,0,1-.212-.519.719.719,0,0,1,.725-.732.717.717,0,0,1,.522.209.728.728,0,0,1,0,1.035A.716.716,0,0,1,641.272,22.038Zm.547,8.777H640.7v-7h1.121Z" fill="#2f2f2f"/>
      <path d="M649.747,30.815h-1.121V26.823q0-2.229-1.627-2.228a1.767,1.767,0,0,0-1.391.632,2.347,2.347,0,0,0-.55,1.6v3.992h-1.121v-7h1.121v1.163h.027a2.526,2.526,0,0,1,2.3-1.327,2.141,2.141,0,0,1,1.757.742,3.309,3.309,0,0,1,.608,2.143Z" fill="#2f2f2f"/>
      <path d="M657.451,27.6h-4.943a2.615,2.615,0,0,0,.629,1.8,2.165,2.165,0,0,0,1.654.636,3.444,3.444,0,0,0,2.174-.779V30.31a4.065,4.065,0,0,1-2.44.67,2.956,2.956,0,0,1-2.331-.954,3.9,3.9,0,0,1-.848-2.683,3.83,3.83,0,0,1,.926-2.663,2.972,2.972,0,0,1,2.3-1.029,2.634,2.634,0,0,1,2.126.889,3.706,3.706,0,0,1,.752,2.468Zm-1.149-.95a2.282,2.282,0,0,0-.469-1.511,1.593,1.593,0,0,0-1.281-.54,1.813,1.813,0,0,0-1.347.567,2.575,2.575,0,0,0-.683,1.484Z" fill="#2f2f2f"/>
      <path d="M666.44,21.437a1.5,1.5,0,0,0-.745-.185q-1.176,0-1.176,1.483v1.08h1.641v.957h-1.641v6.043h-1.114V24.772h-1.2v-.957h1.2V22.681a2.361,2.361,0,0,1,.635-1.74,2.148,2.148,0,0,1,1.586-.639,2.2,2.2,0,0,1,.814.123Z" fill="#2f2f2f"/>
      <path d="M672.334,30.815h-1.121V29.722h-.027a2.349,2.349,0,0,1-2.153,1.258,2.3,2.3,0,0,1-1.638-.554,1.919,1.919,0,0,1-.591-1.47q0-1.962,2.311-2.283l2.1-.294q0-1.785-1.442-1.784a3.443,3.443,0,0,0-2.283.861V24.308a4.329,4.329,0,0,1,2.379-.657q2.466,0,2.467,2.612Zm-1.121-3.541-1.688.233a2.748,2.748,0,0,0-1.176.386,1.113,1.113,0,0,0-.4.981,1.069,1.069,0,0,0,.365.837,1.41,1.41,0,0,0,.974.325,1.8,1.8,0,0,0,1.377-.584,2.086,2.086,0,0,0,.544-1.48Z" fill="#2f2f2f"/>
      <path d="M674.912,22.038a.708.708,0,0,1-.512-.205.693.693,0,0,1-.212-.519.719.719,0,0,1,.724-.732.722.722,0,0,1,.524.209.73.73,0,0,1,0,1.035A.721.721,0,0,1,674.912,22.038Zm.547,8.777h-1.121v-7h1.121Z" fill="#2f2f2f"/>
      <path d="M678.707,30.815h-1.121V20.452h1.121Z" fill="#2f2f2f"/>
      <path d="M686.545,27.6H681.6a2.615,2.615,0,0,0,.629,1.8,2.168,2.168,0,0,0,1.654.636,3.44,3.44,0,0,0,2.174-.779V30.31a4.067,4.067,0,0,1-2.44.67,2.961,2.961,0,0,1-2.332-.954,3.909,3.909,0,0,1-.847-2.683,3.821,3.821,0,0,1,.927-2.663,2.966,2.966,0,0,1,2.3-1.029,2.633,2.633,0,0,1,2.126.889,3.7,3.7,0,0,1,.752,2.468Zm-1.148-.95a2.277,2.277,0,0,0-.468-1.511,1.6,1.6,0,0,0-1.282-.54,1.813,1.813,0,0,0-1.347.567,2.575,2.575,0,0,0-.683,1.484Z" fill="#2f2f2f"/>
      <path d="M694.277,30.815h-1.121V29.626h-.028a2.588,2.588,0,0,1-2.406,1.354,2.615,2.615,0,0,1-2.108-.94,3.853,3.853,0,0,1-.79-2.56A4.2,4.2,0,0,1,688.7,24.7a2.887,2.887,0,0,1,2.331-1.046,2.243,2.243,0,0,1,2.1,1.135h.028V20.452h1.121Zm-1.121-3.165V26.618a2,2,0,0,0-.561-1.435,1.879,1.879,0,0,0-1.422-.588,1.936,1.936,0,0,0-1.613.752,3.294,3.294,0,0,0-.588,2.078,2.963,2.963,0,0,0,.565,1.91,1.838,1.838,0,0,0,1.513.7,1.914,1.914,0,0,0,1.522-.677A2.524,2.524,0,0,0,693.156,27.65Z" fill="#2f2f2f"/>
    </g>
    <g>
      <path d="M602.161,95.367v3.7h-1.149v-9.8h2.693a3.556,3.556,0,0,1,2.437.765,2.732,2.732,0,0,1,.865,2.16,2.971,2.971,0,0,1-.961,2.284,3.668,3.668,0,0,1-2.593.888Zm0-5.058v4.019h1.2a2.689,2.689,0,0,0,1.814-.543,1.926,1.926,0,0,0,.626-1.535q0-1.941-2.3-1.941Z" fill="#2f2f2f"/>
      <path d="M609.061,90.3a.709.709,0,0,1-.513-.2.694.694,0,0,1-.212-.52.717.717,0,0,1,.725-.731.721.721,0,0,1,.522.208.7.7,0,0,1,.216.523.691.691,0,0,1-.216.513A.716.716,0,0,1,609.061,90.3Zm.547,8.777h-1.121v-7h1.121Z" fill="#2f2f2f"/>
      <path d="M612.874,98.061h-.027v4.231h-1.121V92.072h1.121V93.3h.027a2.652,2.652,0,0,1,2.42-1.395,2.566,2.566,0,0,1,2.113.94,3.9,3.9,0,0,1,.758,2.519,4.335,4.335,0,0,1-.854,2.813,2.844,2.844,0,0,1-2.338,1.056A2.345,2.345,0,0,1,612.874,98.061Zm-.027-2.824v.978a2.083,2.083,0,0,0,.565,1.473,2.012,2.012,0,0,0,3.028-.174,3.577,3.577,0,0,0,.577-2.167,2.821,2.821,0,0,0-.54-1.832,1.786,1.786,0,0,0-1.463-.663,1.984,1.984,0,0,0-1.572.68A2.494,2.494,0,0,0,612.847,95.237Z" fill="#2f2f2f"/>
      <path d="M625.572,95.853h-4.943a2.616,2.616,0,0,0,.629,1.8,2.167,2.167,0,0,0,1.654.636,3.442,3.442,0,0,0,2.174-.779v1.052a4.058,4.058,0,0,1-2.44.67,2.959,2.959,0,0,1-2.331-.953,3.9,3.9,0,0,1-.848-2.683,3.83,3.83,0,0,1,.926-2.663,2.972,2.972,0,0,1,2.3-1.029,2.634,2.634,0,0,1,2.126.889,3.706,3.706,0,0,1,.752,2.468Zm-1.149-.951a2.278,2.278,0,0,0-.469-1.51,1.593,1.593,0,0,0-1.281-.54,1.809,1.809,0,0,0-1.346.567,2.566,2.566,0,0,0-.684,1.483Z" fill="#2f2f2f"/>
      <path d="M628.367,99.072h-1.122V88.709h1.122Z" fill="#2f2f2f"/>
      <path d="M631.054,90.3a.709.709,0,0,1-.513-.2.694.694,0,0,1-.212-.52.717.717,0,0,1,.725-.731.724.724,0,0,1,.523.208.7.7,0,0,1,.215.523.694.694,0,0,1-.215.513A.72.72,0,0,1,631.054,90.3Zm.547,8.777H630.48v-7H631.6Z" fill="#2f2f2f"/>
      <path d="M639.53,99.072h-1.121V95.08q0-2.229-1.627-2.228a1.768,1.768,0,0,0-1.392.632,2.347,2.347,0,0,0-.55,1.6v3.992h-1.121v-7h1.121v1.162h.028a2.525,2.525,0,0,1,2.3-1.326,2.141,2.141,0,0,1,1.757.742,3.3,3.3,0,0,1,.609,2.143Z" fill="#2f2f2f"/>
      <path d="M647.233,95.853H642.29a2.616,2.616,0,0,0,.629,1.8,2.167,2.167,0,0,0,1.655.636,3.441,3.441,0,0,0,2.173-.779v1.052a4.058,4.058,0,0,1-2.44.67,2.959,2.959,0,0,1-2.331-.953,3.906,3.906,0,0,1-.848-2.683,3.83,3.83,0,0,1,.926-2.663,2.972,2.972,0,0,1,2.3-1.029,2.634,2.634,0,0,1,2.126.889,3.706,3.706,0,0,1,.752,2.468Zm-1.149-.951a2.283,2.283,0,0,0-.468-1.51,1.6,1.6,0,0,0-1.282-.54,1.809,1.809,0,0,0-1.346.567A2.573,2.573,0,0,0,642.3,94.9Z" fill="#2f2f2f"/>
      <path d="M657.535,98.751a3.643,3.643,0,0,1-1.915.485,3.17,3.17,0,0,1-2.417-.974,3.532,3.532,0,0,1-.918-2.526,3.879,3.879,0,0,1,.991-2.778,3.464,3.464,0,0,1,2.645-1.05,3.68,3.68,0,0,1,1.627.342V93.4a2.853,2.853,0,0,0-1.668-.546,2.252,2.252,0,0,0-1.76.769,2.917,2.917,0,0,0-.687,2.02,2.781,2.781,0,0,0,.645,1.941,2.229,2.229,0,0,0,1.734.711,2.818,2.818,0,0,0,1.723-.608Z" fill="#2f2f2f"/>
      <path d="M664.279,99.072h-1.121V97.979h-.028a2.348,2.348,0,0,1-2.153,1.257,2.305,2.305,0,0,1-1.638-.553,1.922,1.922,0,0,1-.591-1.47q0-1.962,2.311-2.283l2.1-.294q0-1.785-1.443-1.784a3.445,3.445,0,0,0-2.283.861V92.564a4.339,4.339,0,0,1,2.379-.656q2.466,0,2.468,2.612Zm-1.121-3.541-1.689.233a2.726,2.726,0,0,0-1.176.386,1.116,1.116,0,0,0-.4.981,1.069,1.069,0,0,0,.365.837,1.411,1.411,0,0,0,.975.325,1.8,1.8,0,0,0,1.377-.584,2.091,2.091,0,0,0,.544-1.48Z" fill="#2f2f2f"/>
      <path d="M672.11,99.072h-1.121V95.08q0-2.229-1.627-2.228a1.764,1.764,0,0,0-1.391.632,2.343,2.343,0,0,0-.551,1.6v3.992H666.3v-7h1.121v1.162h.028a2.528,2.528,0,0,1,2.3-1.326,2.139,2.139,0,0,1,1.756.742,3.3,3.3,0,0,1,.609,2.143Z" fill="#2f2f2f"/>
      <path d="M678.959,98.751a3.637,3.637,0,0,1-1.914.485,3.17,3.17,0,0,1-2.417-.974,3.533,3.533,0,0,1-.919-2.526,3.875,3.875,0,0,1,.992-2.778,3.464,3.464,0,0,1,2.645-1.05,3.683,3.683,0,0,1,1.627.342V93.4a2.856,2.856,0,0,0-1.668-.546,2.254,2.254,0,0,0-1.761.769,2.916,2.916,0,0,0-.686,2.02,2.781,2.781,0,0,0,.645,1.941,2.229,2.229,0,0,0,1.734.711,2.813,2.813,0,0,0,1.722-.608Z" fill="#2f2f2f"/>
      <path d="M686.129,95.853h-4.942a2.607,2.607,0,0,0,.629,1.8,2.165,2.165,0,0,0,1.654.636,3.444,3.444,0,0,0,2.174-.779v1.052a4.061,4.061,0,0,1-2.441.67,2.96,2.96,0,0,1-2.331-.953,3.905,3.905,0,0,1-.847-2.683,3.825,3.825,0,0,1,.926-2.663,2.97,2.97,0,0,1,2.3-1.029,2.634,2.634,0,0,1,2.126.889,3.706,3.706,0,0,1,.752,2.468Zm-1.148-.951a2.278,2.278,0,0,0-.469-1.51,1.594,1.594,0,0,0-1.281-.54,1.811,1.811,0,0,0-1.347.567A2.572,2.572,0,0,0,681.2,94.9Z" fill="#2f2f2f"/>
      <path d="M688.924,99.072H687.8V88.709h1.121Z" fill="#2f2f2f"/>
      <path d="M696.763,95.853h-4.942a2.607,2.607,0,0,0,.629,1.8,2.165,2.165,0,0,0,1.654.636,3.444,3.444,0,0,0,2.174-.779v1.052a4.063,4.063,0,0,1-2.441.67,2.96,2.96,0,0,1-2.331-.953,3.905,3.905,0,0,1-.847-2.683,3.829,3.829,0,0,1,.925-2.663,2.973,2.973,0,0,1,2.3-1.029,2.634,2.634,0,0,1,2.126.889,3.706,3.706,0,0,1,.752,2.468Zm-1.148-.951a2.283,2.283,0,0,0-.469-1.51,1.594,1.594,0,0,0-1.281-.54,1.81,1.81,0,0,0-1.347.567,2.573,2.573,0,0,0-.684,1.483Z" fill="#2f2f2f"/>
      <path d="M704.5,99.072h-1.122V97.883h-.027a2.588,2.588,0,0,1-2.406,1.353,2.616,2.616,0,0,1-2.11-.94,3.857,3.857,0,0,1-.789-2.56,4.191,4.191,0,0,1,.875-2.782,2.887,2.887,0,0,1,2.331-1.046,2.246,2.246,0,0,1,2.1,1.135h.027V88.709H704.5Zm-1.122-3.165V94.875a2.008,2.008,0,0,0-.56-1.436,1.88,1.88,0,0,0-1.422-.587,1.932,1.932,0,0,0-1.613.752,3.286,3.286,0,0,0-.588,2.078,2.962,2.962,0,0,0,.563,1.91,1.842,1.842,0,0,0,1.515.7,1.913,1.913,0,0,0,1.52-.677A2.52,2.52,0,0,0,703.373,95.907Z" fill="#2f2f2f"/>
    </g>
  </g>
</svg>
