<svg xmlns="http://www.w3.org/2000/svg" xmlns:xlink="http://www.w3.org/1999/xlink" viewBox="0 0 590 313">
  <defs>
    <linearGradient id="linear-gradient" x1="71.375" y1="55.411" x2="71.375" y2="83.411" gradientUnits="userSpaceOnUse">
      <stop offset="0.131" stop-color="#32d4f5"/>
      <stop offset="0.404" stop-color="#28b7db"/>
      <stop offset="1" stop-color="#198ab3"/>
    </linearGradient>
    <linearGradient id="linear-gradient-2" x1="80.678" y1="77.551" x2="80.678" y2="78.807" xlink:href="#linear-gradient"/>
    <linearGradient id="linear-gradient-3" x1="80.678" y1="79.718" x2="80.678" y2="80.974" xlink:href="#linear-gradient"/>
    <linearGradient id="linear-gradient-4" x1="273.161" y1="92.411" x2="273.161" y2="250.654" gradientUnits="userSpaceOnUse">
      <stop offset="0" stop-color="#5ea0ef"/>
      <stop offset="0.18" stop-color="#559cec"/>
      <stop offset="0.47" stop-color="#3c91e5"/>
      <stop offset="0.84" stop-color="#1380da"/>
      <stop offset="1" stop-color="#0078d4"/>
    </linearGradient>
    <linearGradient id="linear-gradient-5" x1="190.157" y1="1550.727" x2="190.157" y2="1574.727" gradientTransform="matrix(1, 0, 0, -1, 0, 1586.696)" gradientUnits="userSpaceOnUse">
      <stop offset="0" stop-color="#5e9624"/>
      <stop offset="0.01" stop-color="#5e9724"/>
      <stop offset="0.35" stop-color="#6cab29"/>
      <stop offset="0.68" stop-color="#73b82c"/>
      <stop offset="1" stop-color="#76bc2d"/>
    </linearGradient>
    <linearGradient id="linear-gradient-6" x1="436.308" y1="1507.942" x2="436.308" y2="1481.326" gradientTransform="matrix(1, 0, 0, -1, 0, 1586.696)" gradientUnits="userSpaceOnUse">
      <stop offset="0.117" stop-color="#5ea0ef"/>
      <stop offset="0.271" stop-color="#4595e8"/>
      <stop offset="0.531" stop-color="#1f85dd"/>
      <stop offset="0.741" stop-color="#087cd6"/>
      <stop offset="0.873" stop-color="#0078d4"/>
    </linearGradient>
  </defs>
  <g id="Shapes">
    <rect width="590" height="313" fill="#fff"/>
    <g>
      <rect x="66.201" y="70.411" width="413.173" height="189.2" fill="#fff"/>
      <rect x="66.201" y="70.411" width="413.173" height="189.2" fill="#198ab3" opacity="0.12"/>
    </g>
    <g>
      <path d="M83.088,75.174H71.109l.28-1.127h7.474a5.617,5.617,0,0,0,2.468-10.666,6.466,6.466,0,0,0,.147-1.371,6.651,6.651,0,0,0-12.315-3.434,5.05,5.05,0,0,0-7.906,4.108,5.138,5.138,0,0,0,.058.763,5.607,5.607,0,0,0,2.569,10.6h6.881l-.281,1.128H59.661a.908.908,0,0,0-.905.91V82.5a.909.909,0,0,0,.905.91H83.088a.908.908,0,0,0,.9-.91V76.084A.908.908,0,0,0,83.088,75.174ZM63.884,72.5a4.062,4.062,0,0,1-1.415-7.878l.674-.253-.206-.694a3.529,3.529,0,0,1-.142-.992,3.509,3.509,0,0,1,6.05-2.356l.812.864.456-1.1A5.112,5.112,0,0,1,79.94,62.01a5.015,5.015,0,0,1-.26,1.583l-.245.736.734.244a4.044,4.044,0,0,1,2.782,3.849A4.087,4.087,0,0,1,78.863,72.5H71.775l1.062-4.264.052-.3.3-.067a2.352,2.352,0,0,0,.836-.369l.307-.215,2.377,2.3-.062.256a1.473,1.473,0,0,0,1.426,1.819,1.423,1.423,0,0,0,.533-.1,1.482,1.482,0,0,0,.834-1.914,1.463,1.463,0,0,0-1.9-.837c-.01.005-.04.02-.059.032s-.048.026-.072.039l-.29.15-2.366-2.288.122-.291a2.4,2.4,0,0,0-2.2-3.316,2.364,2.364,0,0,0-1.641.664l-.257.248L69.2,63.054l.024-.282a1.486,1.486,0,0,0-.088-.663,1.463,1.463,0,0,0-1.369-.94,1.447,1.447,0,0,0-.533.1,1.483,1.483,0,0,0-.834,1.914,1.463,1.463,0,0,0,1.9.836,1.41,1.41,0,0,0,.322-.184l.249-.181,1.562.978-.079.324a2.358,2.358,0,0,0-.071.569,2.407,2.407,0,0,0,.119.744l.113.341-2.529,1.6-.239-.14a1.17,1.17,0,0,0-1.028-.083,1.2,1.2,0,0,0-.674,1.547,1.184,1.184,0,0,0,1.538.676,1.2,1.2,0,0,0,.747-1.143l-.006-.261,2.583-1.633.254.209a2.376,2.376,0,0,0,.735.409l.367.126L72.2,68.3l-1.048,4.2Zm18.57,9.365H60.3V76.721h9.8l-.155.624a1.952,1.952,0,1,0,.6.087l.177-.711H82.454Z" fill="url(#linear-gradient)"/>
      <path d="M81.3,77.551H80.054v1.256H81.3Z" fill="url(#linear-gradient-2)"/>
      <path d="M81.3,79.718H80.054v1.256H81.3Z" fill="url(#linear-gradient-3)"/>
    </g>
    <g>
      <rect x="75.161" y="92.411" width="396" height="158.243" fill="#fff"/>
      <rect x="75.161" y="92.411" width="396" height="158.243" opacity="0.4" fill="url(#linear-gradient-4)"/>
    </g>
    <g>
      <rect x="73.646" y="4.652" width="397.515" height="39.359" fill="#fff"/>
      <rect x="73.646" y="4.652" width="397.515" height="39.359" fill="#cccccb"/>
    </g>
    <g>
      <rect x="73.646" y="268.254" width="396.18" height="40.094" fill="#fff"/>
      <rect x="73.646" y="268.254" width="396.18" height="40.094" fill="#cccccb"/>
    </g>
    <g>
      <rect x="491.558" y="153.454" width="93.8" height="40" fill="#fff"/>
      <rect x="491.558" y="153.454" width="93.8" height="40" fill="#cccccb"/>
    </g>
    <g>
      <rect x="491.558" y="206.254" width="93.8" height="40" fill="#fff"/>
      <rect x="491.558" y="206.254" width="93.8" height="40" fill="#cccccb"/>
    </g>
    <g>
      <path d="M13.684,185.619l8.888-4.473v-9.06l-8.888-3.878Z" fill="#3c3c41" fill-opacity="0.85"/>
      <path d="M24.779,167.657H55.985v18H24.779Z" fill="#3c3c41" fill-opacity="0.85"/>
    </g>
    <path d="M186.557,28.769h7.2v7.2h-7.2Zm-8.4-9.6h7.2v-7.2h-6.195a1,1,0,0,0-1,1.005Zm1,16.8h6.195v-7.2h-7.2v6.2a1,1,0,0,0,1,1.005Zm-1-8.4h7.2v-7.2h-7.2Zm16.8,8.4h6.21a1,1,0,0,0,.99-1.005V28.769h-7.2Zm-8.4-8.4h7.2v-7.2h-7.2Zm8.4,0h7.2v-7.2h-7.2Zm0-15.6v7.2h7.2V12.974a1.006,1.006,0,0,0-.99-1.005Zm-8.4,7.2h7.2v-7.2h-7.2Z" fill="url(#linear-gradient-5)"/>
    <g>
      <rect x="92.063" y="114.654" width="70.059" height="26" fill="#fff"/>
      <g opacity="0.65">
        <path d="M161.972,114.8v25.7H92.213V114.8h69.759m.15-.15H92.063v26h70.059v-26Z" fill="#505150"/>
      </g>
    </g>
    <g>
      <rect x="92.063" y="162.654" width="70.059" height="26.4" fill="#fff"/>
      <g opacity="0.65">
        <path d="M161.972,162.8v26.1H92.213V162.8h69.759m.15-.15H92.063v26.4h70.059v-26.4Z" fill="#505150"/>
      </g>
    </g>
    <g>
      <rect x="92.063" y="211.054" width="70.059" height="26.4" fill="#fff"/>
      <g opacity="0.65">
        <path d="M161.972,211.2v26.1H92.213V211.2h69.759m.15-.15H92.063v26.4h70.059v-26.4Z" fill="#505150"/>
      </g>
    </g>
    <g>
      <rect x="188.817" y="162.654" width="70.059" height="26.4" fill="#fff"/>
      <g opacity="0.65">
        <path d="M258.725,162.8v26.1H188.967V162.8h69.758m.15-.15H188.817v26.4h70.058v-26.4Z" fill="#505150"/>
      </g>
    </g>
    <g>
      <rect x="188.817" y="211.054" width="70.059" height="26.4" fill="#fff"/>
      <g opacity="0.65">
        <path d="M258.725,211.2v26.1H188.967V211.2h69.758m.15-.15H188.817v26.4h70.058v-26.4Z" fill="#505150"/>
      </g>
    </g>
    <g>
      <rect x="286.158" y="162.654" width="70.059" height="26.4" fill="#fff"/>
      <g opacity="0.65">
        <path d="M356.067,162.8v26.1H286.308V162.8h69.759m.15-.15H286.158v26.4h70.059v-26.4Z" fill="#505150"/>
      </g>
    </g>
    <g>
      <rect x="286.158" y="211.054" width="70.059" height="26.4" fill="#fff"/>
      <g opacity="0.65">
        <path d="M356.067,211.2v26.1H286.308V211.2h69.759m.15-.15H286.158v26.4h70.059v-26.4Z" fill="#505150"/>
      </g>
    </g>
    <g>
      <rect x="382.958" y="211.054" width="69.247" height="26.4" fill="#fff"/>
      <g opacity="0.65">
        <path d="M452.055,211.2v26.1H383.108V211.2h68.947m.15-.15H382.958v26.4h69.247v-26.4Z" fill="#505150"/>
      </g>
    </g>
    <g>
      <line x1="127.961" y1="43.854" x2="127.961" y2="108.872" fill="none" stroke="#3c3c41" stroke-miterlimit="10"/>
      <polygon points="124.221 107.778 127.961 114.254 131.701 107.778 124.221 107.778" fill="#3c3c41"/>
    </g>
    <g>
      <line x1="321.188" y1="242.836" x2="321.188" y2="262.872" fill="none" stroke="#3c3c41" stroke-miterlimit="10"/>
      <polygon points="317.448 243.93 321.188 237.454 324.927 243.93 317.448 243.93" fill="#3c3c41"/>
      <polygon points="317.448 261.778 321.188 268.254 324.927 261.778 317.448 261.778" fill="#3c3c41"/>
    </g>
    <g>
      <line x1="127.092" y1="189.054" x2="127.092" y2="205.672" fill="none" stroke="#3c3c41" stroke-miterlimit="10"/>
      <polygon points="123.352 204.578 127.092 211.054 130.832 204.578 123.352 204.578" fill="#3c3c41"/>
    </g>
    <g>
      <line x1="54.97" y1="176.657" x2="86.364" y2="176.657" fill="none" stroke="#3c3c41" stroke-miterlimit="10"/>
      <polygon points="85.269 180.397 91.746 176.657 85.269 172.917 85.269 180.397" fill="#3c3c41"/>
    </g>
    <g>
      <line x1="162.146" y1="175.854" x2="183.164" y2="175.854" fill="none" stroke="#3c3c41" stroke-miterlimit="10"/>
      <polygon points="182.069 179.594 188.546 175.854 182.069 172.114 182.069 179.594" fill="#3c3c41"/>
    </g>
    <g>
      <line x1="258.946" y1="175.854" x2="280.776" y2="175.854" fill="none" stroke="#3c3c41" stroke-miterlimit="10"/>
      <polygon points="279.682 179.594 286.158 175.854 279.682 172.114 279.682 179.594" fill="#3c3c41"/>
    </g>
    <g>
      <line x1="355.746" y1="175.854" x2="486.176" y2="175.854" fill="none" stroke="#3c3c41" stroke-miterlimit="10"/>
      <polygon points="485.082 179.594 491.558 175.854 485.082 172.114 485.082 179.594" fill="#3c3c41"/>
    </g>
    <g>
      <line x1="162.146" y1="224.254" x2="183.164" y2="224.254" fill="none" stroke="#3c3c41" stroke-miterlimit="10"/>
      <polygon points="182.069 227.994 188.546 224.254 182.069 220.514 182.069 227.994" fill="#3c3c41"/>
    </g>
    <g>
      <line x1="258.946" y1="224.254" x2="280.776" y2="224.254" fill="none" stroke="#3c3c41" stroke-miterlimit="10"/>
      <polygon points="279.682 227.994 286.158 224.254 279.682 220.514 279.682 227.994" fill="#3c3c41"/>
    </g>
    <g>
      <line x1="356.558" y1="224.254" x2="377.576" y2="224.254" fill="none" stroke="#3c3c41" stroke-miterlimit="10"/>
      <polygon points="376.482 227.994 382.958 224.254 376.482 220.514 376.482 227.994" fill="#3c3c41"/>
    </g>
    <g>
      <line x1="452.546" y1="224.254" x2="486.176" y2="224.254" fill="none" stroke="#3c3c41" stroke-miterlimit="10"/>
      <polygon points="485.082 227.994 491.558 224.254 485.082 220.514 485.082 227.994" fill="#3c3c41"/>
    </g>
    <g>
      <path d="M162.146,127.454h56.6a5.015,5.015,0,0,1,5,5v24.818" fill="none" stroke="#3c3c41" stroke-miterlimit="10"/>
      <polygon points="220.006 156.178 223.746 162.654 227.486 156.178 220.006 156.178" fill="#3c3c41"/>
    </g>
    <g>
      <path d="M476.543,26.411h55.03a5.015,5.015,0,0,1,5,5V148.472" fill="none" stroke="#3c3c41" stroke-miterlimit="10"/>
      <polygon points="477.637 30.15 471.161 26.411 477.637 22.671 477.637 30.15" fill="#3c3c41"/>
      <polygon points="532.834 147.378 536.573 153.854 540.313 147.378 532.834 147.378" fill="#3c3c41"/>
    </g>
    <g id="a3857c27-3253-4155-b620-22ae9cf301a7">
      <g>
        <path d="M445.758,91.223a8.853,8.853,0,0,0-9.086-8.36,9.109,9.109,0,0,0-8.542,5.815,8.53,8.53,0,0,0-7.269,8,8.382,8.382,0,0,0,8.577,8.183h15.417a6.906,6.906,0,0,0,6.9-6.911A7,7,0,0,0,445.758,91.223Z" fill="url(#linear-gradient-6)"/>
        <g>
          <polygon points="444.522 95.915 436.821 93.054 436.622 93.549 436.747 93.096 429.91 91.59 429.582 92.737 435.352 93.988 427.948 97.048 428.518 98.064 436.162 94.889 437.53 100.913 438.712 100.767 437.319 94.549 444.069 97.017 444.522 95.915" fill="#83b9f9"/>
          <path d="M428.724,93.173a1.512,1.512,0,1,0,.268-2.122h0l-.034.028A1.5,1.5,0,0,0,428.724,93.173Zm-1.717,5.349a1.52,1.52,0,1,0,.258-2.136,1.521,1.521,0,0,0-.258,2.136ZM442.9,97.2a1.505,1.505,0,1,0,.276-2.111l-.006,0h0a1.488,1.488,0,0,0-.278,2.084Z" fill="#9cebff"/>
          <path d="M436.927,101.845a1.505,1.505,0,1,0,.269-2.112h0a1.489,1.489,0,0,0-.29,2.084l0,0Z" fill="#9cebff"/>
        </g>
        <path d="M441,93.924a.454.454,0,0,0,0-.786l-3.323-1.922-3.333-1.92a.454.454,0,0,0-.687.393v7.685a.453.453,0,0,0,.687.393l3.333-1.92Z" fill="#c3f1ff"/>
      </g>
    </g>
    <g>
      <path d="M190.985,295.015v-2.167h-2.246a8.046,8.046,0,0,0-1.6-3.844l1.587-1.583L187.2,285.89l-1.587,1.578a8.113,8.113,0,0,0-3.854-1.593v-2.236h-2.172v2.241a8.084,8.084,0,0,0-3.854,1.593l-1.587-1.583-1.534,1.531L174.188,289a8.076,8.076,0,0,0-1.6,3.844h-2.246v2.167h2.246a8.055,8.055,0,0,0,1.6,3.845l-1.587,1.583,1.535,1.53,1.586-1.583a8.124,8.124,0,0,0,3.854,1.594v2.24h2.173v-2.24a8.1,8.1,0,0,0,3.853-1.594l1.587,1.583,1.535-1.53-1.587-1.583a8.076,8.076,0,0,0,1.6-3.845Zm-10.323,3.892a4.97,4.97,0,1,1,4.983-4.97A4.983,4.983,0,0,1,180.662,298.907Z" fill="#2f2f2f"/>
      <path d="M200.369,281.256v-1.342h-1.386a4.994,4.994,0,0,0-.986-2.377l.98-.978-.949-.947-.985.979a5.013,5.013,0,0,0-2.383-.984v-1.383h-1.345v1.383a5,5,0,0,0-2.383.984l-.98-.979-.949.947.98.978a4.984,4.984,0,0,0-.986,2.377h-1.386v1.342H189a4.984,4.984,0,0,0,.986,2.377l-.98.978.949.947.98-.979a5,5,0,0,0,2.383.984v1.388h1.345v-1.383a5.022,5.022,0,0,0,2.383-.983l.98.978.949-.947-.98-.978a4.984,4.984,0,0,0,.985-2.377h1.392Zm-6.379,2.4a3.072,3.072,0,1,1,3.079-3.071A3.079,3.079,0,0,1,193.99,283.659Z" fill="#737474"/>
    </g>
  </g>
  <g id="Text">
    <g>
      <path d="M7.5,68.748H5.6v-8.4H7.5Z" fill="#1e1e1e"/>
      <path d="M12.083,68.9a3.226,3.226,0,0,1-2.358-.841,3.476,3.476,0,0,1,.032-4.612,3.368,3.368,0,0,1,2.408-.84,3.188,3.188,0,0,1,2.344.84,2.992,2.992,0,0,1,.85,2.224,3.172,3.172,0,0,1-.876,2.361A3.259,3.259,0,0,1,12.083,68.9Zm.047-4.875a1.234,1.234,0,0,0-1.019.451,1.984,1.984,0,0,0-.364,1.277q0,1.728,1.395,1.729,1.331,0,1.33-1.776Q13.472,64.019,12.13,64.02Z" fill="#1e1e1e"/>
      <path d="M22.642,61.887h-2.4v6.861h-1.9V61.887H15.962V60.346h6.68Z" fill="#1e1e1e"/>
      <path d="M32.122,68.748H27.083v-8.4h4.846v1.541H28.976v1.869h2.748v1.535H28.976v1.922h3.146Z" fill="#1e1e1e"/>
      <path d="M39.159,68.748H37.308v-.826h-.024a2.076,2.076,0,0,1-1.857.973,2.278,2.278,0,0,1-1.811-.794,3.289,3.289,0,0,1-.685-2.218,3.578,3.578,0,0,1,.756-2.385,2.464,2.464,0,0,1,1.98-.9,1.683,1.683,0,0,1,1.617.832h.024V59.865h1.851ZM37.343,65.83v-.451a1.418,1.418,0,0,0-.34-.973,1.2,1.2,0,0,0-1.845.1,2.241,2.241,0,0,0-.346,1.327,1.941,1.941,0,0,0,.334,1.219,1.185,1.185,0,0,0,1.843-.024A1.88,1.88,0,0,0,37.343,65.83Z" fill="#1e1e1e"/>
      <path d="M46.6,68.063a3.391,3.391,0,0,1-.967,2.586,3.914,3.914,0,0,1-2.8.917,4.451,4.451,0,0,1-1.922-.345V69.662a3.679,3.679,0,0,0,1.87.539,2.014,2.014,0,0,0,1.453-.495,1.779,1.779,0,0,0,.515-1.345v-.474h-.023A2.068,2.068,0,0,1,42.857,68.9a2.251,2.251,0,0,1-1.823-.809,3.28,3.28,0,0,1-.673-2.168,3.652,3.652,0,0,1,.75-2.42,2.446,2.446,0,0,1,1.974-.9,1.822,1.822,0,0,1,1.641.843h.023v-.7H46.6Zm-1.828-2.2v-.474a1.463,1.463,0,0,0-.337-.97,1.089,1.089,0,0,0-.876-.4,1.133,1.133,0,0,0-.967.48,2.263,2.263,0,0,0-.352,1.354,1.91,1.91,0,0,0,.334,1.186,1.091,1.091,0,0,0,.915.437,1.133,1.133,0,0,0,.928-.443A1.809,1.809,0,0,0,44.773,65.865Z" fill="#1e1e1e"/>
      <path d="M53.538,66.275H49.624q.094,1.308,1.647,1.307a3.21,3.21,0,0,0,1.74-.469v1.336a4.569,4.569,0,0,1-2.162.446,2.793,2.793,0,0,1-3.059-3.053,3.208,3.208,0,0,1,.868-2.367A2.888,2.888,0,0,1,50.79,62.6a2.623,2.623,0,0,1,2.031.779,3,3,0,0,1,.717,2.115Zm-1.716-1.136q0-1.29-1.043-1.289a1,1,0,0,0-.771.369,1.668,1.668,0,0,0-.4.92Z" fill="#1e1e1e"/>
      <path d="M24.423,81.948H22.572v-.826h-.024a2.075,2.075,0,0,1-1.857.973A2.277,2.277,0,0,1,18.88,81.3a3.287,3.287,0,0,1-.685-2.218A3.583,3.583,0,0,1,18.95,76.7a2.469,2.469,0,0,1,1.981-.9,1.685,1.685,0,0,1,1.617.832h.024V73.065h1.851ZM22.607,79.03v-.451a1.425,1.425,0,0,0-.34-.973,1.2,1.2,0,0,0-1.846.1,2.248,2.248,0,0,0-.346,1.327,1.946,1.946,0,0,0,.334,1.219,1.186,1.186,0,0,0,1.843-.023A1.879,1.879,0,0,0,22.607,79.03Z" fill="#1e1e1e"/>
      <path d="M31.372,79.476H27.458q.095,1.306,1.647,1.306a3.218,3.218,0,0,0,1.74-.468v1.335a4.569,4.569,0,0,1-2.162.446,2.793,2.793,0,0,1-3.059-3.053,3.211,3.211,0,0,1,.867-2.367,2.892,2.892,0,0,1,2.133-.873,2.626,2.626,0,0,1,2.031.779,3,3,0,0,1,.717,2.115Zm-1.716-1.137q0-1.288-1.043-1.289a1,1,0,0,0-.771.369,1.668,1.668,0,0,0-.395.92Z" fill="#1e1e1e"/>
      <path d="M38.187,75.948l-2.233,6H33.845l-2.127-6H33.7l1.042,3.7a5.382,5.382,0,0,1,.206,1.066h.023a6.041,6.041,0,0,1,.217-1.031l1.066-3.733Z" fill="#1e1e1e"/>
      <path d="M39.915,75a1.083,1.083,0,0,1-.767-.278.9.9,0,0,1-.3-.683.867.867,0,0,1,.3-.68,1.256,1.256,0,0,1,1.538,0,.871.871,0,0,1,.3.68.9.9,0,0,1-.3.692A1.1,1.1,0,0,1,39.915,75Zm.914,6.949H38.978v-6h1.851Z" fill="#1e1e1e"/>
      <path d="M46.935,81.731a3.653,3.653,0,0,1-1.811.364,3.063,3.063,0,0,1-2.238-.838,2.9,2.9,0,0,1-.855-2.162,3.185,3.185,0,0,1,.917-2.411A3.387,3.387,0,0,1,45.4,75.8a3.154,3.154,0,0,1,1.535.281v1.57a2.113,2.113,0,0,0-1.3-.433,1.706,1.706,0,0,0-1.263.466,1.739,1.739,0,0,0-.466,1.286,1.711,1.711,0,0,0,.446,1.251,1.639,1.639,0,0,0,1.224.454,2.448,2.448,0,0,0,1.354-.434Z" fill="#1e1e1e"/>
      <path d="M53.538,79.476H49.624q.094,1.306,1.647,1.306a3.218,3.218,0,0,0,1.74-.468v1.335a4.569,4.569,0,0,1-2.162.446,2.793,2.793,0,0,1-3.059-3.053,3.208,3.208,0,0,1,.868-2.367A2.888,2.888,0,0,1,50.79,75.8a2.626,2.626,0,0,1,2.031.779,3,3,0,0,1,.717,2.115Zm-1.716-1.137q0-1.288-1.043-1.289a1,1,0,0,0-.771.369,1.668,1.668,0,0,0-.4.92Z" fill="#1e1e1e"/>
    </g>
    <g>
      <path d="M416.518,118.566v2.894h-1.893v-8.4h2.965q3.175,0,3.176,2.678a2.571,2.571,0,0,1-.911,2.048,3.614,3.614,0,0,1-2.435.782Zm0-4.055v2.619h.744q1.512,0,1.512-1.324,0-1.294-1.512-1.3Z" fill="#1e1e1e"/>
      <path d="M422.752,114.511a1.083,1.083,0,0,1-.767-.278.9.9,0,0,1-.3-.683.86.86,0,0,1,.3-.679,1.252,1.252,0,0,1,1.538,0,.868.868,0,0,1,.3.679.9.9,0,0,1-.3.692A1.1,1.1,0,0,1,422.752,114.511Zm.914,6.949h-1.851v-6h1.851Z" fill="#1e1e1e"/>
      <path d="M427.1,120.763h-.024v3.457h-1.851v-8.76h1.851v.9h.024a2.355,2.355,0,0,1,3.729-.249,3.4,3.4,0,0,1,.636,2.177,3.692,3.692,0,0,1-.741,2.408,2.417,2.417,0,0,1-1.972.908A1.868,1.868,0,0,1,427.1,120.763Zm-.053-2.461v.481a1.528,1.528,0,0,0,.328,1.013,1.069,1.069,0,0,0,.862.393,1.135,1.135,0,0,0,.981-.489,2.365,2.365,0,0,0,.349-1.386q0-1.582-1.231-1.582a1.154,1.154,0,0,0-.928.431A1.713,1.713,0,0,0,427.047,118.3Z" fill="#1e1e1e"/>
      <path d="M438.057,118.988h-3.914q.093,1.306,1.646,1.306a3.219,3.219,0,0,0,1.741-.468v1.336a4.574,4.574,0,0,1-2.163.445,2.793,2.793,0,0,1-3.058-3.053,3.211,3.211,0,0,1,.867-2.367,2.889,2.889,0,0,1,2.133-.873,2.623,2.623,0,0,1,2.03.779,3,3,0,0,1,.718,2.116Zm-1.717-1.137q0-1.288-1.043-1.289a.994.994,0,0,0-.77.369,1.676,1.676,0,0,0-.4.92Z" fill="#1e1e1e"/>
      <path d="M441.01,121.46h-1.852v-8.882h1.852Z" fill="#1e1e1e"/>
      <path d="M443.506,114.511a1.083,1.083,0,0,1-.767-.278.9.9,0,0,1-.3-.683.86.86,0,0,1,.3-.679,1.252,1.252,0,0,1,1.538,0,.868.868,0,0,1,.3.679.9.9,0,0,1-.3.692A1.1,1.1,0,0,1,443.506,114.511Zm.914,6.949h-1.851v-6h1.851Z" fill="#1e1e1e"/>
      <path d="M451.774,121.46h-1.846v-3.333q0-1.395-1-1.395a.989.989,0,0,0-.791.369,1.408,1.408,0,0,0-.311.938v3.421h-1.851v-6h1.851v.95h.024a2.121,2.121,0,0,1,1.928-1.1q1.992,0,1.992,2.473Z" fill="#1e1e1e"/>
      <path d="M458.629,118.988h-3.914q.095,1.306,1.647,1.306a3.218,3.218,0,0,0,1.74-.468v1.336a4.573,4.573,0,0,1-2.162.445,2.793,2.793,0,0,1-3.059-3.053,3.211,3.211,0,0,1,.867-2.367,2.889,2.889,0,0,1,2.133-.873,2.623,2.623,0,0,1,2.03.779,3,3,0,0,1,.718,2.116Zm-1.717-1.137q0-1.288-1.043-1.289a1,1,0,0,0-.77.369,1.676,1.676,0,0,0-.4.92Z" fill="#1e1e1e"/>
    </g>
    <g>
      <path d="M219.76,28.962a5.538,5.538,0,0,1-2.4.445,4.056,4.056,0,0,1-3.042-1.136,4.158,4.158,0,0,1-1.107-3.03,4.438,4.438,0,0,1,1.245-3.269,4.355,4.355,0,0,1,3.232-1.254,6.043,6.043,0,0,1,2.074.31v1.823a3.673,3.673,0,0,0-1.922-.5,2.549,2.549,0,0,0-1.91.744,2.762,2.762,0,0,0-.727,2.015,2.71,2.71,0,0,0,.686,1.943,2.423,2.423,0,0,0,1.846.723,3.93,3.93,0,0,0,2.027-.539Z" fill="#1e1e1e"/>
      <path d="M226.744,29.261H224.9v-.914h-.03a2.093,2.093,0,0,1-1.834,1.06q-2.085,0-2.085-2.525V23.261H222.8v3.457q0,1.271,1.008,1.271a1,1,0,0,0,.8-.348,1.409,1.409,0,0,0,.3-.947V23.261h1.845Z" fill="#1e1e1e"/>
      <path d="M227.91,29.1V27.6a3.973,3.973,0,0,0,.911.41,3.011,3.011,0,0,0,.859.134,1.832,1.832,0,0,0,.775-.134.437.437,0,0,0,.286-.41.378.378,0,0,0-.129-.293,1.182,1.182,0,0,0-.332-.2,3.723,3.723,0,0,0-.442-.159c-.16-.047-.314-.1-.463-.158a4.449,4.449,0,0,1-.631-.29,1.835,1.835,0,0,1-.457-.36,1.427,1.427,0,0,1-.281-.475,1.906,1.906,0,0,1-.1-.639,1.65,1.65,0,0,1,.219-.867,1.8,1.8,0,0,1,.586-.594,2.658,2.658,0,0,1,.838-.34,4.334,4.334,0,0,1,.982-.109,5.446,5.446,0,0,1,.809.062,5.933,5.933,0,0,1,.809.179v1.429a2.922,2.922,0,0,0-.754-.307,3.146,3.146,0,0,0-.787-.1,1.8,1.8,0,0,0-.344.032,1.133,1.133,0,0,0-.283.094.529.529,0,0,0-.194.158.365.365,0,0,0-.07.22.407.407,0,0,0,.1.281.922.922,0,0,0,.276.2,2.641,2.641,0,0,0,.377.153l.414.137a5.306,5.306,0,0,1,.668.282,2.119,2.119,0,0,1,.512.357,1.41,1.41,0,0,1,.328.481,1.91,1.91,0,0,1-.118,1.567,1.845,1.845,0,0,1-.615.615,2.792,2.792,0,0,1-.885.346,4.9,4.9,0,0,1-1.039.108A5.367,5.367,0,0,1,227.91,29.1Z" fill="#1e1e1e"/>
      <path d="M237.209,29.19a2.727,2.727,0,0,1-1.236.217q-1.958,0-1.957-2.033V24.626h-.973V23.261h.973V21.966l1.846-.527v1.822h1.347v1.365h-1.347v2.426q0,.938.744.937a1.246,1.246,0,0,0,.6-.17Z" fill="#1e1e1e"/>
      <path d="M241.065,29.407a3.229,3.229,0,0,1-2.36-.841,3.047,3.047,0,0,1-.857-2.282,3.048,3.048,0,0,1,.891-2.329,3.365,3.365,0,0,1,2.408-.841,3.19,3.19,0,0,1,2.344.841,2.991,2.991,0,0,1,.849,2.224,3.172,3.172,0,0,1-.877,2.361A3.259,3.259,0,0,1,241.065,29.407Zm.047-4.875a1.237,1.237,0,0,0-1.02.451,1.993,1.993,0,0,0-.363,1.278q0,1.728,1.394,1.728,1.331,0,1.33-1.775Q242.453,24.533,241.112,24.532Z" fill="#1e1e1e"/>
      <path d="M255.069,29.261h-1.846V25.839q0-1.306-.961-1.307a.881.881,0,0,0-.744.393,1.61,1.61,0,0,0-.287.978v3.358h-1.852V25.8q0-1.272-.943-1.272a.906.906,0,0,0-.76.375,1.654,1.654,0,0,0-.283,1.02v3.334h-1.852v-6h1.852V24.2h.023a2.273,2.273,0,0,1,1.94-1.084,1.728,1.728,0,0,1,1.74,1.119,2.22,2.22,0,0,1,2.016-1.119q1.956,0,1.957,2.414Z" fill="#1e1e1e"/>
      <path d="M261.719,28.564H261.7v.7h-1.852V20.378H261.7v3.785h.023a2.2,2.2,0,0,1,1.951-1.049,2.141,2.141,0,0,1,1.787.8,3.437,3.437,0,0,1,.627,2.18,3.721,3.721,0,0,1-.732,2.408,2.384,2.384,0,0,1-1.957.908A1.892,1.892,0,0,1,261.719,28.564Zm-.053-2.532v.615a1.406,1.406,0,0,0,.334.961,1.087,1.087,0,0,0,.856.381,1.132,1.132,0,0,0,.98-.489,2.357,2.357,0,0,0,.35-1.386,1.887,1.887,0,0,0-.32-1.163,1.078,1.078,0,0,0-.911-.419,1.178,1.178,0,0,0-.923.416A1.578,1.578,0,0,0,261.666,26.032Z" fill="#1e1e1e"/>
      <path d="M272.987,29.261h-1.846v-.914h-.029a2.094,2.094,0,0,1-1.834,1.06q-2.087,0-2.086-2.525V23.261h1.845v3.457q0,1.271,1.008,1.271a1,1,0,0,0,.8-.348,1.409,1.409,0,0,0,.3-.947V23.261h1.846Z" fill="#1e1e1e"/>
      <path d="M274.153,29.1V27.6a3.948,3.948,0,0,0,.91.41,3.021,3.021,0,0,0,.859.134,1.84,1.84,0,0,0,.776-.134.437.437,0,0,0,.285-.41.378.378,0,0,0-.129-.293,1.168,1.168,0,0,0-.332-.2,3.66,3.66,0,0,0-.442-.159c-.16-.047-.314-.1-.463-.158a4.383,4.383,0,0,1-.63-.29,1.817,1.817,0,0,1-.457-.36,1.43,1.43,0,0,1-.282-.475,1.907,1.907,0,0,1-.095-.639,1.649,1.649,0,0,1,.218-.867,1.8,1.8,0,0,1,.586-.594,2.658,2.658,0,0,1,.838-.34,4.343,4.343,0,0,1,.983-.109,5.443,5.443,0,0,1,.808.062,5.9,5.9,0,0,1,.809.179v1.429a2.922,2.922,0,0,0-.754-.307,3.14,3.14,0,0,0-.787-.1,1.8,1.8,0,0,0-.344.032,1.147,1.147,0,0,0-.283.094.529.529,0,0,0-.194.158.372.372,0,0,0-.07.22.4.4,0,0,0,.106.281.9.9,0,0,0,.275.2,2.641,2.641,0,0,0,.377.153l.414.137a5.306,5.306,0,0,1,.668.282,2.119,2.119,0,0,1,.512.357,1.41,1.41,0,0,1,.328.481,1.914,1.914,0,0,1-.117,1.567,1.858,1.858,0,0,1-.616.615,2.776,2.776,0,0,1-.884.346,4.915,4.915,0,0,1-1.039.108A5.359,5.359,0,0,1,274.153,29.1Z" fill="#1e1e1e"/>
      <path d="M280.762,22.312a1.083,1.083,0,0,1-.768-.279.9.9,0,0,1-.3-.682.865.865,0,0,1,.3-.68,1.252,1.252,0,0,1,1.538,0,.87.87,0,0,1,.3.68.894.894,0,0,1-.3.691A1.1,1.1,0,0,1,280.762,22.312Zm.914,6.949h-1.851v-6h1.851Z" fill="#1e1e1e"/>
      <path d="M289.03,29.261h-1.846V25.927q0-1.395-1-1.395a.987.987,0,0,0-.791.369,1.408,1.408,0,0,0-.311.938v3.422h-1.851v-6h1.851v.949h.024a2.122,2.122,0,0,1,1.927-1.1q1.993,0,1.993,2.473Z" fill="#1e1e1e"/>
      <path d="M295.885,26.788h-3.914q.093,1.306,1.646,1.307a3.211,3.211,0,0,0,1.741-.469v1.336a4.573,4.573,0,0,1-2.162.445,2.792,2.792,0,0,1-3.059-3.052A3.212,3.212,0,0,1,291,23.987a2.889,2.889,0,0,1,2.133-.873,2.617,2.617,0,0,1,2.029.78,3,3,0,0,1,.719,2.115Zm-1.717-1.137q0-1.288-1.043-1.289a1,1,0,0,0-.771.369,1.678,1.678,0,0,0-.395.92Z" fill="#1e1e1e"/>
      <path d="M296.594,29.1V27.6a3.967,3.967,0,0,0,.91.41,3.023,3.023,0,0,0,.86.134,1.832,1.832,0,0,0,.775-.134.437.437,0,0,0,.285-.41.378.378,0,0,0-.129-.293,1.168,1.168,0,0,0-.332-.2,3.706,3.706,0,0,0-.441-.159c-.16-.047-.315-.1-.463-.158a4.449,4.449,0,0,1-.631-.29,1.817,1.817,0,0,1-.457-.36,1.411,1.411,0,0,1-.281-.475,1.881,1.881,0,0,1-.1-.639,1.64,1.64,0,0,1,.219-.867,1.789,1.789,0,0,1,.586-.594,2.649,2.649,0,0,1,.838-.34,4.328,4.328,0,0,1,.982-.109,5.456,5.456,0,0,1,.809.062,5.887,5.887,0,0,1,.808.179v1.429a2.894,2.894,0,0,0-.754-.307,3.134,3.134,0,0,0-.787-.1,1.8,1.8,0,0,0-.344.032,1.147,1.147,0,0,0-.283.094.526.526,0,0,0-.193.158.365.365,0,0,0-.07.22.407.407,0,0,0,.105.281.9.9,0,0,0,.275.2,2.74,2.74,0,0,0,.377.153l.414.137a5.244,5.244,0,0,1,.668.282,2.081,2.081,0,0,1,.512.357,1.4,1.4,0,0,1,.328.481,1.9,1.9,0,0,1-.117,1.567,1.845,1.845,0,0,1-.615.615,2.792,2.792,0,0,1-.885.346,4.915,4.915,0,0,1-1.039.108A5.367,5.367,0,0,1,296.594,29.1Z" fill="#1e1e1e"/>
      <path d="M301.873,29.1V27.6a3.986,3.986,0,0,0,.91.41,3.023,3.023,0,0,0,.86.134,1.832,1.832,0,0,0,.775-.134.436.436,0,0,0,.285-.41.38.38,0,0,0-.128-.293,1.174,1.174,0,0,0-.333-.2,3.643,3.643,0,0,0-.441-.159c-.16-.047-.314-.1-.463-.158a4.449,4.449,0,0,1-.631-.29,1.835,1.835,0,0,1-.457-.36,1.411,1.411,0,0,1-.281-.475,1.906,1.906,0,0,1-.1-.639,1.65,1.65,0,0,1,.219-.867,1.8,1.8,0,0,1,.586-.594,2.649,2.649,0,0,1,.838-.34,4.328,4.328,0,0,1,.982-.109,5.456,5.456,0,0,1,.809.062,5.933,5.933,0,0,1,.809.179v1.429a2.922,2.922,0,0,0-.754-.307,3.146,3.146,0,0,0-.787-.1,1.787,1.787,0,0,0-.344.032,1.133,1.133,0,0,0-.283.094.529.529,0,0,0-.194.158.365.365,0,0,0-.07.22.407.407,0,0,0,.1.281.91.91,0,0,0,.276.2,2.641,2.641,0,0,0,.377.153l.414.137a5.306,5.306,0,0,1,.668.282,2.093,2.093,0,0,1,.511.357,1.413,1.413,0,0,1,.329.481,1.91,1.91,0,0,1-.118,1.567,1.845,1.845,0,0,1-.615.615,2.792,2.792,0,0,1-.885.346,4.908,4.908,0,0,1-1.039.108A5.367,5.367,0,0,1,301.873,29.1Z" fill="#1e1e1e"/>
      <path d="M312.707,29.261h-1.851V20.378h1.851Z" fill="#1e1e1e"/>
      <path d="M317.125,29.407a3.225,3.225,0,0,1-2.359-.841,3.048,3.048,0,0,1-.858-2.282,3.048,3.048,0,0,1,.891-2.329,3.369,3.369,0,0,1,2.408-.841,3.189,3.189,0,0,1,2.344.841,2.992,2.992,0,0,1,.85,2.224,3.172,3.172,0,0,1-.877,2.361A3.26,3.26,0,0,1,317.125,29.407Zm.047-4.875a1.236,1.236,0,0,0-1.019.451,1.987,1.987,0,0,0-.364,1.278q0,1.728,1.4,1.728,1.33,0,1.33-1.775Q318.514,24.533,317.172,24.532Z" fill="#1e1e1e"/>
      <path d="M327.485,28.575a3.4,3.4,0,0,1-.967,2.587,3.92,3.92,0,0,1-2.8.917,4.432,4.432,0,0,1-1.922-.346V30.175a3.683,3.683,0,0,0,1.869.539,2.012,2.012,0,0,0,1.453-.495,1.777,1.777,0,0,0,.516-1.345V28.4h-.023a2.068,2.068,0,0,1-1.869,1.008,2.249,2.249,0,0,1-1.823-.808,3.281,3.281,0,0,1-.674-2.168,3.651,3.651,0,0,1,.75-2.42,2.449,2.449,0,0,1,1.975-.9,1.824,1.824,0,0,1,1.641.844h.023v-.7h1.852Zm-1.828-2.2V25.9a1.459,1.459,0,0,0-.338-.969,1.088,1.088,0,0,0-.875-.4,1.13,1.13,0,0,0-.967.481,2.253,2.253,0,0,0-.352,1.353,1.913,1.913,0,0,0,.334,1.187,1.089,1.089,0,0,0,.914.436,1.13,1.13,0,0,0,.928-.442A1.817,1.817,0,0,0,325.657,26.378Z" fill="#1e1e1e"/>
      <path d="M329.969,22.312a1.083,1.083,0,0,1-.768-.279.9.9,0,0,1-.3-.682.865.865,0,0,1,.3-.68,1.252,1.252,0,0,1,1.538,0,.87.87,0,0,1,.3.68.894.894,0,0,1-.3.691A1.1,1.1,0,0,1,329.969,22.312Zm.914,6.949h-1.851v-6h1.851Z" fill="#1e1e1e"/>
      <path d="M336.989,29.044a3.666,3.666,0,0,1-1.811.363,3.059,3.059,0,0,1-2.238-.838,2.89,2.89,0,0,1-.856-2.162A3.189,3.189,0,0,1,333,24a3.392,3.392,0,0,1,2.453-.882,3.145,3.145,0,0,1,1.536.282v1.57a2.114,2.114,0,0,0-1.295-.434A1.711,1.711,0,0,0,334.43,25a1.736,1.736,0,0,0-.465,1.286,1.714,1.714,0,0,0,.445,1.251,1.637,1.637,0,0,0,1.225.454,2.446,2.446,0,0,0,1.354-.433Z" fill="#1e1e1e"/>
    </g>
    <g>
      <path d="M212.678,292.45a5.538,5.538,0,0,1-2.4.445,4.048,4.048,0,0,1-3.041-1.137,4.15,4.15,0,0,1-1.108-3.029,4.436,4.436,0,0,1,1.245-3.269,4.357,4.357,0,0,1,3.232-1.254,6.043,6.043,0,0,1,2.074.31v1.822a3.673,3.673,0,0,0-1.922-.5,2.549,2.549,0,0,0-1.91.744,2.762,2.762,0,0,0-.727,2.015,2.71,2.71,0,0,0,.686,1.943,2.423,2.423,0,0,0,1.846.723,3.93,3.93,0,0,0,2.027-.539Z" fill="#1e1e1e"/>
      <path d="M219.662,292.749h-1.845v-.914h-.03a2.093,2.093,0,0,1-1.834,1.06q-2.085,0-2.086-2.525v-3.621h1.846v3.457q0,1.27,1.008,1.271a1,1,0,0,0,.8-.349,1.4,1.4,0,0,0,.3-.946v-3.433h1.845Z" fill="#1e1e1e"/>
      <path d="M220.828,292.59v-1.5a3.942,3.942,0,0,0,.912.411,3.04,3.04,0,0,0,.858.134,1.853,1.853,0,0,0,.776-.134.435.435,0,0,0,.284-.411.38.38,0,0,0-.128-.293,1.223,1.223,0,0,0-.331-.205,3.93,3.93,0,0,0-.443-.158c-.16-.047-.314-.1-.463-.158a4.547,4.547,0,0,1-.63-.29,1.858,1.858,0,0,1-.457-.36,1.427,1.427,0,0,1-.281-.475,1.909,1.909,0,0,1-.1-.639,1.647,1.647,0,0,1,.22-.867,1.81,1.81,0,0,1,.586-.595,2.706,2.706,0,0,1,.838-.34,4.383,4.383,0,0,1,.981-.108,5.446,5.446,0,0,1,.809.062,6.084,6.084,0,0,1,.809.178v1.43a2.954,2.954,0,0,0-.753-.308,3.2,3.2,0,0,0-.788-.1,1.776,1.776,0,0,0-.343.032,1.141,1.141,0,0,0-.284.094.529.529,0,0,0-.194.158.363.363,0,0,0-.07.22.407.407,0,0,0,.1.281.922.922,0,0,0,.276.2,2.655,2.655,0,0,0,.378.153c.138.044.276.09.413.137a5.46,5.46,0,0,1,.668.281,2.13,2.13,0,0,1,.512.358,1.418,1.418,0,0,1,.329.48,1.923,1.923,0,0,1-.118,1.568,1.845,1.845,0,0,1-.615.615,2.815,2.815,0,0,1-.885.346,4.918,4.918,0,0,1-1.04.108A5.367,5.367,0,0,1,220.828,292.59Z" fill="#1e1e1e"/>
      <path d="M230.127,292.678a2.727,2.727,0,0,1-1.236.217q-1.957,0-1.957-2.033v-2.748h-.973v-1.365h.973v-1.3l1.846-.528v1.823h1.347v1.365H228.78v2.426q0,.938.744.937a1.257,1.257,0,0,0,.6-.17Z" fill="#1e1e1e"/>
      <path d="M233.983,292.9a3.226,3.226,0,0,1-2.359-.841,3.477,3.477,0,0,1,.033-4.611,3.361,3.361,0,0,1,2.408-.841,3.182,3.182,0,0,1,2.343.841,2.987,2.987,0,0,1,.85,2.224,3.172,3.172,0,0,1-.876,2.361A3.262,3.262,0,0,1,233.983,292.9Zm.047-4.875a1.234,1.234,0,0,0-1.02.451,1.993,1.993,0,0,0-.363,1.278q0,1.728,1.394,1.728,1.331,0,1.33-1.775Q235.371,288.021,234.03,288.02Z" fill="#1e1e1e"/>
      <path d="M247.987,292.749h-1.846v-3.422q0-1.306-.961-1.307a.881.881,0,0,0-.744.393,1.607,1.607,0,0,0-.287.978v3.358H242.3v-3.457q0-1.272-.943-1.272a.9.9,0,0,0-.759.375,1.654,1.654,0,0,0-.284,1.02v3.334h-1.852v-6h1.852v.937h.023a2.276,2.276,0,0,1,1.94-1.084,1.728,1.728,0,0,1,1.74,1.119,2.22,2.22,0,0,1,2.016-1.119q1.956,0,1.957,2.414Z" fill="#1e1e1e"/>
      <path d="M262.289,292.749h-1.845v-3.422q0-1.306-.961-1.307a.881.881,0,0,0-.744.393,1.608,1.608,0,0,0-.288.978v3.358H256.6v-3.457q0-1.272-.943-1.272a.9.9,0,0,0-.759.375,1.647,1.647,0,0,0-.284,1.02v3.334h-1.852v-6h1.852v.937h.023a2.276,2.276,0,0,1,1.939-1.084,1.729,1.729,0,0,1,1.741,1.119,2.219,2.219,0,0,1,2.015-1.119q1.957,0,1.957,2.414Z" fill="#1e1e1e"/>
      <path d="M269.145,290.276h-3.914q.093,1.306,1.646,1.307a3.219,3.219,0,0,0,1.74-.469v1.336a4.567,4.567,0,0,1-2.162.445,2.793,2.793,0,0,1-3.058-3.053,3.211,3.211,0,0,1,.867-2.367,2.889,2.889,0,0,1,2.133-.873,2.623,2.623,0,0,1,2.03.779,3,3,0,0,1,.718,2.116Zm-1.717-1.137q0-1.289-1.043-1.289a.994.994,0,0,0-.77.369,1.676,1.676,0,0,0-.4.92Z" fill="#1e1e1e"/>
      <path d="M276.117,292.749h-1.851v-.827h-.024a2.074,2.074,0,0,1-1.857.973,2.275,2.275,0,0,1-1.81-.794,3.28,3.28,0,0,1-.686-2.218,3.574,3.574,0,0,1,.756-2.384,2.465,2.465,0,0,1,1.98-.9,1.683,1.683,0,0,1,1.617.832h.024v-3.568h1.851Zm-1.816-2.918v-.452a1.417,1.417,0,0,0-.34-.972,1.2,1.2,0,0,0-1.845.1,2.244,2.244,0,0,0-.346,1.328,1.938,1.938,0,0,0,.334,1.218,1.186,1.186,0,0,0,1.843-.023A1.882,1.882,0,0,0,274.3,289.831Z" fill="#1e1e1e"/>
      <path d="M278.614,285.8a1.079,1.079,0,0,1-.768-.278.9.9,0,0,1-.3-.683.865.865,0,0,1,.3-.679,1.252,1.252,0,0,1,1.538,0,.869.869,0,0,1,.3.679.9.9,0,0,1-.3.692A1.1,1.1,0,0,1,278.614,285.8Zm.914,6.95h-1.852v-6h1.852Z" fill="#1e1e1e"/>
      <path d="M286.078,292.749h-1.752v-.862H284.3a1.955,1.955,0,0,1-1.787,1.008,1.87,1.87,0,0,1-1.374-.5,1.774,1.774,0,0,1-.5-1.321q0-1.746,2.068-2.016l1.629-.217q0-.984-1.066-.984a3.637,3.637,0,0,0-2.039.639v-1.395a4.6,4.6,0,0,1,1.057-.352,5.6,5.6,0,0,1,1.222-.152,2.266,2.266,0,0,1,2.566,2.561Zm-1.74-2.438v-.4l-1.09.14q-.9.118-.9.815a.669.669,0,0,0,.22.518.841.841,0,0,0,.594.2,1.1,1.1,0,0,0,.85-.361A1.3,1.3,0,0,0,284.338,290.311Z" fill="#1e1e1e"/>
      <path d="M292.729,292.051h-.024v3.457h-1.851v-8.759h1.851v.9h.024a2.355,2.355,0,0,1,3.729-.249,3.4,3.4,0,0,1,.636,2.177,3.692,3.692,0,0,1-.741,2.408,2.419,2.419,0,0,1-1.972.908A1.866,1.866,0,0,1,292.729,292.051Zm-.053-2.461v.481a1.528,1.528,0,0,0,.328,1.014,1.071,1.071,0,0,0,.862.392,1.135,1.135,0,0,0,.981-.489,2.365,2.365,0,0,0,.349-1.386q0-1.582-1.231-1.582a1.158,1.158,0,0,0-.929.431A1.718,1.718,0,0,0,292.676,289.59Z" fill="#1e1e1e"/>
      <path d="M302.209,288.418a1.6,1.6,0,0,0-.779-.181,1.121,1.121,0,0,0-.943.442,1.929,1.929,0,0,0-.34,1.2v2.866H298.3v-6h1.852v1.113h.023a1.6,1.6,0,0,1,1.582-1.219,1.206,1.206,0,0,1,.457.07Z" fill="#1e1e1e"/>
      <path d="M305.883,292.9a3.222,3.222,0,0,1-2.358-.841,3.475,3.475,0,0,1,.032-4.611,3.363,3.363,0,0,1,2.408-.841,3.186,3.186,0,0,1,2.344.841,2.99,2.99,0,0,1,.849,2.224,3.175,3.175,0,0,1-.875,2.361A3.262,3.262,0,0,1,305.883,292.9Zm.047-4.875a1.236,1.236,0,0,0-1.02.451,1.993,1.993,0,0,0-.363,1.278q0,1.728,1.395,1.728,1.329,0,1.33-1.775Q307.272,288.021,305.93,288.02Z" fill="#1e1e1e"/>
      <path d="M314.907,292.532a3.666,3.666,0,0,1-1.811.363,3.059,3.059,0,0,1-2.238-.838A2.89,2.89,0,0,1,310,289.9a3.19,3.19,0,0,1,.917-2.411,3.39,3.39,0,0,1,2.452-.882,3.158,3.158,0,0,1,1.536.281v1.571a2.114,2.114,0,0,0-1.295-.434,1.7,1.7,0,0,0-1.263.466,1.735,1.735,0,0,0-.466,1.286,1.714,1.714,0,0,0,.445,1.251,1.636,1.636,0,0,0,1.225.454,2.44,2.44,0,0,0,1.354-.434Z" fill="#1e1e1e"/>
      <path d="M321.51,290.276H317.6q.093,1.306,1.646,1.307a3.22,3.22,0,0,0,1.741-.469v1.336a4.573,4.573,0,0,1-2.162.445,2.793,2.793,0,0,1-3.059-3.053,3.211,3.211,0,0,1,.867-2.367,2.889,2.889,0,0,1,2.133-.873,2.623,2.623,0,0,1,2.03.779,3,3,0,0,1,.718,2.116Zm-1.717-1.137q0-1.289-1.043-1.289a1,1,0,0,0-.77.369,1.676,1.676,0,0,0-.4.92Z" fill="#1e1e1e"/>
      <path d="M322.219,292.59v-1.5a3.936,3.936,0,0,0,.911.411,3.052,3.052,0,0,0,.859.134,1.856,1.856,0,0,0,.776-.134.437.437,0,0,0,.284-.411.381.381,0,0,0-.129-.293,1.208,1.208,0,0,0-.331-.205,3.912,3.912,0,0,0-.442-.158c-.16-.047-.315-.1-.463-.158a4.547,4.547,0,0,1-.63-.29,1.839,1.839,0,0,1-.457-.36,1.411,1.411,0,0,1-.281-.475,1.884,1.884,0,0,1-.1-.639,1.638,1.638,0,0,1,.22-.867,1.8,1.8,0,0,1,.586-.595,2.7,2.7,0,0,1,.838-.34,4.376,4.376,0,0,1,.981-.108,5.456,5.456,0,0,1,.809.062,6.035,6.035,0,0,1,.808.178v1.43a2.924,2.924,0,0,0-.753-.308,3.187,3.187,0,0,0-.788-.1,1.792,1.792,0,0,0-.343.032,1.155,1.155,0,0,0-.284.094.526.526,0,0,0-.193.158.363.363,0,0,0-.07.22.407.407,0,0,0,.105.281.9.9,0,0,0,.275.2,2.755,2.755,0,0,0,.378.153c.139.044.277.09.413.137a5.394,5.394,0,0,1,.668.281,2.117,2.117,0,0,1,.513.358,1.4,1.4,0,0,1,.328.48,1.917,1.917,0,0,1-.117,1.568,1.845,1.845,0,0,1-.615.615,2.815,2.815,0,0,1-.885.346,4.925,4.925,0,0,1-1.04.108A5.367,5.367,0,0,1,322.219,292.59Z" fill="#1e1e1e"/>
      <path d="M327.5,292.59v-1.5a3.955,3.955,0,0,0,.911.411,3.052,3.052,0,0,0,.859.134,1.853,1.853,0,0,0,.776-.134.435.435,0,0,0,.284-.411.383.383,0,0,0-.128-.293,1.214,1.214,0,0,0-.332-.205,3.843,3.843,0,0,0-.442-.158c-.16-.047-.314-.1-.463-.158a4.547,4.547,0,0,1-.63-.29,1.858,1.858,0,0,1-.457-.36,1.411,1.411,0,0,1-.281-.475,1.909,1.909,0,0,1-.1-.639,1.647,1.647,0,0,1,.22-.867,1.81,1.81,0,0,1,.586-.595,2.7,2.7,0,0,1,.838-.34,4.376,4.376,0,0,1,.981-.108,5.456,5.456,0,0,1,.809.062,6.084,6.084,0,0,1,.809.178v1.43a2.954,2.954,0,0,0-.753-.308,3.2,3.2,0,0,0-.788-.1,1.776,1.776,0,0,0-.343.032,1.141,1.141,0,0,0-.284.094.529.529,0,0,0-.194.158.363.363,0,0,0-.07.22.407.407,0,0,0,.1.281.91.91,0,0,0,.276.2,2.655,2.655,0,0,0,.378.153c.138.044.276.09.413.137a5.46,5.46,0,0,1,.668.281,2.13,2.13,0,0,1,.512.358,1.418,1.418,0,0,1,.329.48,1.923,1.923,0,0,1-.118,1.568,1.845,1.845,0,0,1-.615.615,2.815,2.815,0,0,1-.885.346,4.918,4.918,0,0,1-1.04.108A5.367,5.367,0,0,1,327.5,292.59Z" fill="#1e1e1e"/>
      <path d="M336.03,292.9a3.225,3.225,0,0,1-2.359-.841,3.478,3.478,0,0,1,.032-4.611,3.365,3.365,0,0,1,2.409-.841,3.182,3.182,0,0,1,2.343.841,2.987,2.987,0,0,1,.85,2.224,3.172,3.172,0,0,1-.876,2.361A3.262,3.262,0,0,1,336.03,292.9Zm.046-4.875a1.234,1.234,0,0,0-1.019.451,1.993,1.993,0,0,0-.363,1.278q0,1.728,1.394,1.728,1.33,0,1.33-1.775Q337.418,288.021,336.076,288.02Z" fill="#1e1e1e"/>
      <path d="M344.42,288.418a1.6,1.6,0,0,0-.779-.181,1.121,1.121,0,0,0-.943.442,1.929,1.929,0,0,0-.34,1.2v2.866h-1.852v-6h1.852v1.113h.023a1.6,1.6,0,0,1,1.582-1.219,1.21,1.21,0,0,1,.457.07Z" fill="#1e1e1e"/>
    </g>
    <g>
      <path d="M523.066,170.845h-4.453v-8.4h4.265v.891H519.6v2.794h3.035v.885H519.6v2.942h3.469Z" fill="#1e1e1e"/>
      <path d="M528.937,164.845l-2.016,3.035,1.981,2.965h-1.119l-1.178-1.945q-.111-.181-.264-.457h-.023q-.03.052-.276.457l-1.2,1.945h-1.107l2.045-2.941-1.957-3.059h1.119l1.16,2.051c.086.152.17.309.252.469h.023l1.5-2.52Z" fill="#1e1e1e"/>
      <path d="M532.845,170.787a1.852,1.852,0,0,1-.9.187q-1.576,0-1.577-1.758v-3.55h-1.031v-.821h1.031V163.38l.961-.31v1.775h1.512v.821h-1.512v3.38a1.408,1.408,0,0,0,.205.862.82.82,0,0,0,.68.258,1.011,1.011,0,0,0,.627-.2Z" fill="#1e1e1e"/>
      <path d="M538.95,168.085h-4.236a2.245,2.245,0,0,0,.539,1.547,1.857,1.857,0,0,0,1.418.545,2.942,2.942,0,0,0,1.863-.668v.9a3.485,3.485,0,0,1-2.091.574,2.535,2.535,0,0,1-2-.818,3.339,3.339,0,0,1-.727-2.3,3.284,3.284,0,0,1,.794-2.283,2.548,2.548,0,0,1,1.972-.881,2.258,2.258,0,0,1,1.822.761,3.175,3.175,0,0,1,.644,2.116Zm-.984-.814a1.96,1.96,0,0,0-.4-1.295,1.37,1.37,0,0,0-1.1-.463,1.549,1.549,0,0,0-1.154.487,2.2,2.2,0,0,0-.586,1.271Z" fill="#1e1e1e"/>
      <path d="M543.533,165.818a1.177,1.177,0,0,0-.727-.193,1.225,1.225,0,0,0-1.028.58,2.676,2.676,0,0,0-.413,1.582v3.058H540.4v-6h.961v1.237h.023a2.1,2.1,0,0,1,.627-.988,1.431,1.431,0,0,1,.943-.354,1.568,1.568,0,0,1,.575.082Z" fill="#1e1e1e"/>
      <path d="M549.556,170.845H548.6v-3.422q0-1.909-1.395-1.91a1.514,1.514,0,0,0-1.192.542,2.013,2.013,0,0,0-.472,1.368v3.422h-.961v-6h.961v1h.024a2.166,2.166,0,0,1,1.969-1.136,1.835,1.835,0,0,1,1.5.635,2.832,2.832,0,0,1,.522,1.837Z" fill="#1e1e1e"/>
      <path d="M555.661,170.845H554.7v-.937h-.023a2.011,2.011,0,0,1-1.846,1.078,1.97,1.97,0,0,1-1.4-.475,1.642,1.642,0,0,1-.507-1.259q0-1.683,1.981-1.958l1.8-.251q0-1.53-1.236-1.53a2.95,2.95,0,0,0-1.957.739v-.985a3.719,3.719,0,0,1,2.039-.562q2.115,0,2.115,2.238Zm-.961-3.035-1.447.2a2.364,2.364,0,0,0-1.008.331.958.958,0,0,0-.339.841.916.916,0,0,0,.313.718,1.209,1.209,0,0,0,.835.278,1.543,1.543,0,0,0,1.181-.5,1.792,1.792,0,0,0,.465-1.268Z" fill="#1e1e1e"/>
      <path d="M558.433,170.845h-.961v-8.883h.961Z" fill="#1e1e1e"/>
      <path d="M521.062,183.829V182.8a2.839,2.839,0,0,0,1.728.58q1.266,0,1.266-.843a.733.733,0,0,0-.108-.407,1.083,1.083,0,0,0-.293-.3,2.291,2.291,0,0,0-.434-.232q-.249-.1-.536-.214a6.838,6.838,0,0,1-.7-.319,2.113,2.113,0,0,1-.5-.363,1.345,1.345,0,0,1-.3-.46,1.636,1.636,0,0,1-.1-.6,1.433,1.433,0,0,1,.193-.747,1.719,1.719,0,0,1,.516-.545,2.393,2.393,0,0,1,.735-.331,3.264,3.264,0,0,1,.852-.111,3.454,3.454,0,0,1,1.395.269v.973a2.718,2.718,0,0,0-1.524-.434,1.784,1.784,0,0,0-.486.062,1.206,1.206,0,0,0-.372.173.808.808,0,0,0-.24.266.7.7,0,0,0-.085.343.822.822,0,0,0,.085.393.877.877,0,0,0,.249.281,1.925,1.925,0,0,0,.4.223c.157.066.334.138.534.216a7.7,7.7,0,0,1,.714.314,2.416,2.416,0,0,1,.539.363,1.412,1.412,0,0,1,.343.466,1.505,1.505,0,0,1,.12.627,1.473,1.473,0,0,1-.2.773,1.683,1.683,0,0,1-.524.545,2.413,2.413,0,0,1-.756.323,3.748,3.748,0,0,1-.9.105A3.406,3.406,0,0,1,521.062,183.829Z" fill="#1e1e1e"/>
      <path d="M531.339,181.286H527.1a2.242,2.242,0,0,0,.539,1.547,1.859,1.859,0,0,0,1.418.544,2.947,2.947,0,0,0,1.863-.667v.9a3.479,3.479,0,0,1-2.092.574,2.537,2.537,0,0,1-2-.817,3.348,3.348,0,0,1-.726-2.3,3.277,3.277,0,0,1,.794-2.282,2.544,2.544,0,0,1,1.971-.882,2.256,2.256,0,0,1,1.823.762,3.176,3.176,0,0,1,.644,2.115Zm-.984-.815a1.956,1.956,0,0,0-.4-1.3,1.367,1.367,0,0,0-1.1-.463,1.556,1.556,0,0,0-1.155.487,2.206,2.206,0,0,0-.585,1.271Z" fill="#1e1e1e"/>
      <path d="M535.921,179.018a1.174,1.174,0,0,0-.726-.193,1.226,1.226,0,0,0-1.029.58,2.685,2.685,0,0,0-.413,1.582v3.058h-.961v-6h.961v1.237h.024a2.089,2.089,0,0,1,.627-.988,1.429,1.429,0,0,1,.943-.354,1.562,1.562,0,0,1,.574.082Z" fill="#1e1e1e"/>
      <path d="M541.681,178.045l-2.391,6h-.943l-2.273-6h1.054l1.524,4.36a3.956,3.956,0,0,1,.211.838h.023a3.953,3.953,0,0,1,.188-.815l1.593-4.383Z" fill="#1e1e1e"/>
      <path d="M543.2,176.522a.61.61,0,0,1-.439-.176.592.592,0,0,1-.182-.445.616.616,0,0,1,.621-.627.623.623,0,0,1,.449.179.626.626,0,0,1,0,.887A.617.617,0,0,1,543.2,176.522Zm.469,7.523h-.961v-6h.961Z" fill="#1e1e1e"/>
      <path d="M549.708,183.77a3.125,3.125,0,0,1-1.64.416,2.717,2.717,0,0,1-2.072-.835,3.028,3.028,0,0,1-.788-2.165,3.326,3.326,0,0,1,.85-2.382,2.973,2.973,0,0,1,2.267-.9,3.146,3.146,0,0,1,1.395.293v.984a2.447,2.447,0,0,0-1.43-.469,1.929,1.929,0,0,0-1.508.66,2.5,2.5,0,0,0-.589,1.731,2.382,2.382,0,0,0,.553,1.664,1.912,1.912,0,0,0,1.486.609,2.4,2.4,0,0,0,1.476-.521Z" fill="#1e1e1e"/>
      <path d="M555.984,181.286h-4.237a2.251,2.251,0,0,0,.539,1.547,1.86,1.86,0,0,0,1.418.544,2.951,2.951,0,0,0,1.864-.667v.9a3.483,3.483,0,0,1-2.092.574,2.534,2.534,0,0,1-2-.817,3.344,3.344,0,0,1-.727-2.3,3.281,3.281,0,0,1,.794-2.282,2.547,2.547,0,0,1,1.972-.882,2.255,2.255,0,0,1,1.822.762,3.171,3.171,0,0,1,.645,2.115Zm-.985-.815a1.956,1.956,0,0,0-.4-1.3,1.37,1.37,0,0,0-1.1-.463,1.553,1.553,0,0,0-1.154.487,2.207,2.207,0,0,0-.586,1.271Z" fill="#1e1e1e"/>
    </g>
    <g>
      <path d="M523.066,223.646h-4.453v-8.4h4.265v.891H519.6v2.8h3.035v.885H519.6v2.941h3.469Z" fill="#1e1e1e"/>
      <path d="M528.937,217.646l-2.016,3.035,1.981,2.965h-1.119l-1.178-1.946q-.111-.181-.264-.457h-.023c-.02.035-.112.188-.276.457l-1.2,1.946h-1.107l2.045-2.942-1.957-3.058h1.119l1.16,2.05q.129.23.252.469h.023l1.5-2.519Z" fill="#1e1e1e"/>
      <path d="M532.845,223.587a1.852,1.852,0,0,1-.9.187q-1.576,0-1.577-1.757v-3.551h-1.031v-.82h1.031v-1.465l.961-.311v1.776h1.512v.82h-1.512v3.381a1.406,1.406,0,0,0,.205.861.82.82,0,0,0,.68.258,1.016,1.016,0,0,0,.627-.2Z" fill="#1e1e1e"/>
      <path d="M538.95,220.886h-4.236a2.246,2.246,0,0,0,.539,1.547,1.861,1.861,0,0,0,1.418.545,2.948,2.948,0,0,0,1.863-.668v.9a3.478,3.478,0,0,1-2.091.574,2.534,2.534,0,0,1-2-.817,3.344,3.344,0,0,1-.727-2.3,3.281,3.281,0,0,1,.794-2.282,2.546,2.546,0,0,1,1.972-.882,2.255,2.255,0,0,1,1.822.762,3.173,3.173,0,0,1,.644,2.115Zm-.984-.815a1.961,1.961,0,0,0-.4-1.295,1.37,1.37,0,0,0-1.1-.462,1.552,1.552,0,0,0-1.154.486,2.2,2.2,0,0,0-.586,1.271Z" fill="#1e1e1e"/>
      <path d="M543.533,218.618a1.177,1.177,0,0,0-.727-.193,1.225,1.225,0,0,0-1.028.58,2.678,2.678,0,0,0-.413,1.582v3.059H540.4v-6h.961v1.236h.023a2.1,2.1,0,0,1,.627-.987,1.427,1.427,0,0,1,.943-.355,1.568,1.568,0,0,1,.575.082Z" fill="#1e1e1e"/>
      <path d="M549.556,223.646H548.6v-3.422q0-1.911-1.395-1.91a1.511,1.511,0,0,0-1.192.542,2.01,2.01,0,0,0-.472,1.368v3.422h-.961v-6h.961v1h.024a2.165,2.165,0,0,1,1.969-1.137,1.833,1.833,0,0,1,1.5.636,2.828,2.828,0,0,1,.522,1.837Z" fill="#1e1e1e"/>
      <path d="M555.661,223.646H554.7v-.938h-.023a2.011,2.011,0,0,1-1.846,1.078,1.975,1.975,0,0,1-1.4-.474,1.646,1.646,0,0,1-.507-1.26q0-1.681,1.981-1.957l1.8-.252q0-1.53-1.236-1.529a2.954,2.954,0,0,0-1.957.738v-.985a3.719,3.719,0,0,1,2.039-.562q2.115,0,2.115,2.238Zm-.961-3.036-1.447.2a2.337,2.337,0,0,0-1.008.331.954.954,0,0,0-.339.84.915.915,0,0,0,.313.718,1.209,1.209,0,0,0,.835.279,1.543,1.543,0,0,0,1.181-.5,1.792,1.792,0,0,0,.465-1.269Z" fill="#1e1e1e"/>
      <path d="M558.433,223.646h-.961v-8.883h.961Z" fill="#1e1e1e"/>
      <path d="M521.062,236.629V235.6a2.846,2.846,0,0,0,1.728.58q1.266,0,1.266-.844a.733.733,0,0,0-.108-.407,1.083,1.083,0,0,0-.293-.3,2.291,2.291,0,0,0-.434-.232q-.249-.1-.536-.213a6.83,6.83,0,0,1-.7-.32,2.085,2.085,0,0,1-.5-.363,1.345,1.345,0,0,1-.3-.46,1.636,1.636,0,0,1-.1-.6,1.433,1.433,0,0,1,.193-.747,1.729,1.729,0,0,1,.516-.545,2.417,2.417,0,0,1,.735-.331,3.264,3.264,0,0,1,.852-.111,3.437,3.437,0,0,1,1.395.27v.972a2.717,2.717,0,0,0-1.524-.433,1.786,1.786,0,0,0-.486.061,1.206,1.206,0,0,0-.372.173.8.8,0,0,0-.24.267.694.694,0,0,0-.085.342.816.816,0,0,0,.085.393.866.866,0,0,0,.249.281,1.88,1.88,0,0,0,.4.223c.157.066.334.139.534.217a7.445,7.445,0,0,1,.714.313,2.486,2.486,0,0,1,.539.363,1.422,1.422,0,0,1,.343.466,1.505,1.505,0,0,1,.12.627,1.479,1.479,0,0,1-.2.774,1.7,1.7,0,0,1-.524.545,2.411,2.411,0,0,1-.756.322,3.748,3.748,0,0,1-.9.1A3.406,3.406,0,0,1,521.062,236.629Z" fill="#1e1e1e"/>
      <path d="M531.339,234.086H527.1a2.24,2.24,0,0,0,.539,1.547,1.859,1.859,0,0,0,1.418.545,2.948,2.948,0,0,0,1.863-.668v.9a3.479,3.479,0,0,1-2.092.574,2.537,2.537,0,0,1-2-.817,3.348,3.348,0,0,1-.726-2.3,3.278,3.278,0,0,1,.794-2.282,2.544,2.544,0,0,1,1.971-.882,2.256,2.256,0,0,1,1.823.762,3.18,3.18,0,0,1,.644,2.115Zm-.984-.814a1.953,1.953,0,0,0-.4-1.295,1.364,1.364,0,0,0-1.1-.463A1.555,1.555,0,0,0,527.7,232a2.206,2.206,0,0,0-.585,1.272Z" fill="#1e1e1e"/>
      <path d="M535.921,231.818a1.174,1.174,0,0,0-.726-.193,1.226,1.226,0,0,0-1.029.58,2.685,2.685,0,0,0-.413,1.582v3.059h-.961v-6h.961v1.236h.024a2.081,2.081,0,0,1,.627-.987,1.425,1.425,0,0,1,.943-.355,1.583,1.583,0,0,1,.574.082Z" fill="#1e1e1e"/>
      <path d="M541.681,230.846l-2.391,6h-.943l-2.273-6h1.054l1.524,4.359a3.97,3.97,0,0,1,.211.838h.023a3.943,3.943,0,0,1,.188-.814l1.593-4.383Z" fill="#1e1e1e"/>
      <path d="M543.2,229.322a.609.609,0,0,1-.439-.175.6.6,0,0,1-.182-.446.616.616,0,0,1,.621-.627.623.623,0,0,1,.449.179.628.628,0,0,1,0,.888A.616.616,0,0,1,543.2,229.322Zm.469,7.524h-.961v-6h.961Z" fill="#1e1e1e"/>
      <path d="M549.708,236.57a3.116,3.116,0,0,1-1.64.416,2.717,2.717,0,0,1-2.072-.835,3.026,3.026,0,0,1-.788-2.165,3.321,3.321,0,0,1,.85-2.381,2.97,2.97,0,0,1,2.267-.9,3.16,3.16,0,0,1,1.395.293v.984a2.446,2.446,0,0,0-1.43-.468,1.928,1.928,0,0,0-1.508.659,2.5,2.5,0,0,0-.589,1.731,2.382,2.382,0,0,0,.553,1.664,1.909,1.909,0,0,0,1.486.61,2.406,2.406,0,0,0,1.476-.522Z" fill="#1e1e1e"/>
      <path d="M555.984,234.086h-4.237a2.249,2.249,0,0,0,.539,1.547,1.861,1.861,0,0,0,1.418.545,2.953,2.953,0,0,0,1.864-.668v.9a3.483,3.483,0,0,1-2.092.574,2.534,2.534,0,0,1-2-.817,3.344,3.344,0,0,1-.727-2.3,3.283,3.283,0,0,1,.794-2.282,2.547,2.547,0,0,1,1.972-.882,2.255,2.255,0,0,1,1.822.762,3.175,3.175,0,0,1,.645,2.115Zm-.985-.814a1.952,1.952,0,0,0-.4-1.295,1.367,1.367,0,0,0-1.1-.463,1.552,1.552,0,0,0-1.154.486,2.207,2.207,0,0,0-.586,1.272Z" fill="#1e1e1e"/>
    </g>
    <g>
      <path d="M109.707,131.514v-1.16a2.228,2.228,0,0,0,.478.316,3.883,3.883,0,0,0,.586.238,4.705,4.705,0,0,0,.618.149,3.46,3.46,0,0,0,.574.053,2.248,2.248,0,0,0,1.357-.337,1.263,1.263,0,0,0,.3-1.562,1.656,1.656,0,0,0-.413-.459,4,4,0,0,0-.624-.4q-.36-.191-.776-.4-.44-.224-.82-.451a3.589,3.589,0,0,1-.662-.5,2.116,2.116,0,0,1-.443-.624,1.941,1.941,0,0,1-.161-.818,1.921,1.921,0,0,1,.252-1,2.171,2.171,0,0,1,.662-.7,3,3,0,0,1,.935-.41,4.268,4.268,0,0,1,1.069-.135,4.1,4.1,0,0,1,1.811.3v1.107a3.291,3.291,0,0,0-1.911-.515,3.138,3.138,0,0,0-.644.067,1.81,1.81,0,0,0-.574.22,1.274,1.274,0,0,0-.411.392,1.049,1.049,0,0,0-.158.586,1.208,1.208,0,0,0,.12.557,1.373,1.373,0,0,0,.355.428,3.531,3.531,0,0,0,.571.375q.337.181.777.4t.855.469a3.9,3.9,0,0,1,.709.545,2.419,2.419,0,0,1,.483.662,1.848,1.848,0,0,1,.179.832,2.112,2.112,0,0,1-.243,1.052,2,2,0,0,1-.656.7,2.887,2.887,0,0,1-.952.39,5.229,5.229,0,0,1-1.137.12,4.514,4.514,0,0,1-.492-.033q-.294-.031-.6-.093a4.759,4.759,0,0,1-.577-.153A1.793,1.793,0,0,1,109.707,131.514Z" fill="#1e1e1e"/>
      <path d="M118.854,132a2.784,2.784,0,0,1-2.124-.841,3.113,3.113,0,0,1-.794-2.23,3.243,3.243,0,0,1,.826-2.361,2.972,2.972,0,0,1,2.232-.85,2.691,2.691,0,0,1,2.095.827,3.273,3.273,0,0,1,.753,2.291,3.221,3.221,0,0,1-.811,2.3A2.842,2.842,0,0,1,118.854,132Zm.07-5.473a1.829,1.829,0,0,0-1.465.63,2.589,2.589,0,0,0-.539,1.737,2.449,2.449,0,0,0,.545,1.682,1.852,1.852,0,0,0,1.459.615,1.758,1.758,0,0,0,1.433-.6,2.621,2.621,0,0,0,.5-1.717,2.667,2.667,0,0,0-.5-1.735A1.75,1.75,0,0,0,118.924,126.522Z" fill="#1e1e1e"/>
      <path d="M128.229,131.854h-.961v-.949h-.024a1.973,1.973,0,0,1-1.851,1.09q-2.145,0-2.145-2.555v-3.586h.955v3.434q0,1.9,1.454,1.9a1.473,1.473,0,0,0,1.157-.518,1.989,1.989,0,0,0,.454-1.357v-3.457h.961Z" fill="#1e1e1e"/>
      <path d="M133.3,126.827a1.173,1.173,0,0,0-.726-.194,1.229,1.229,0,0,0-1.029.58,2.685,2.685,0,0,0-.413,1.582v3.059h-.961v-6h.961v1.236h.024a2.081,2.081,0,0,1,.627-.987,1.429,1.429,0,0,1,.943-.354,1.562,1.562,0,0,1,.574.082Z" fill="#1e1e1e"/>
      <path d="M138.43,131.579a3.127,3.127,0,0,1-1.641.416,2.718,2.718,0,0,1-2.071-.835A3.029,3.029,0,0,1,133.93,129a3.322,3.322,0,0,1,.85-2.382,2.97,2.97,0,0,1,2.267-.9,3.163,3.163,0,0,1,1.4.293v.985a2.442,2.442,0,0,0-1.43-.469,1.935,1.935,0,0,0-1.509.659,2.506,2.506,0,0,0-.589,1.732,2.384,2.384,0,0,0,.554,1.664,1.908,1.908,0,0,0,1.485.609,2.412,2.412,0,0,0,1.477-.521Z" fill="#1e1e1e"/>
      <path d="M144.705,129.094h-4.236a2.245,2.245,0,0,0,.539,1.547,1.861,1.861,0,0,0,1.418.545,2.948,2.948,0,0,0,1.863-.668v.9A3.478,3.478,0,0,1,142.2,132a2.535,2.535,0,0,1-2-.818,3.342,3.342,0,0,1-.727-2.3,3.283,3.283,0,0,1,.794-2.282,2.544,2.544,0,0,1,1.972-.882,2.255,2.255,0,0,1,1.822.762,3.174,3.174,0,0,1,.644,2.115Zm-.984-.814a1.958,1.958,0,0,0-.4-1.3,1.367,1.367,0,0,0-1.1-.463,1.552,1.552,0,0,0-1.154.486,2.2,2.2,0,0,0-.586,1.272Z" fill="#1e1e1e"/>
    </g>
    <g>
      <path d="M109.707,179.314v-1.16a2.228,2.228,0,0,0,.478.316,3.883,3.883,0,0,0,.586.238,4.705,4.705,0,0,0,.618.149,3.46,3.46,0,0,0,.574.053,2.255,2.255,0,0,0,1.357-.337,1.263,1.263,0,0,0,.3-1.562,1.674,1.674,0,0,0-.413-.46,4.077,4.077,0,0,0-.624-.4q-.36-.19-.776-.4-.44-.224-.82-.452a3.5,3.5,0,0,1-.662-.5,2.09,2.09,0,0,1-.443-.624,2.127,2.127,0,0,1,.091-1.816,2.161,2.161,0,0,1,.662-.7,2.977,2.977,0,0,1,.935-.41,4.268,4.268,0,0,1,1.069-.135,4.089,4.089,0,0,1,1.811.3v1.107a3.283,3.283,0,0,0-1.911-.515,3.138,3.138,0,0,0-.644.067,1.81,1.81,0,0,0-.574.22,1.274,1.274,0,0,0-.411.392,1.047,1.047,0,0,0-.158.586,1.208,1.208,0,0,0,.12.557,1.373,1.373,0,0,0,.355.428,3.669,3.669,0,0,0,.571.375c.225.121.484.253.777.4s.585.305.855.469a3.853,3.853,0,0,1,.709.545,2.419,2.419,0,0,1,.483.662,1.848,1.848,0,0,1,.179.832,2.115,2.115,0,0,1-.243,1.052,2,2,0,0,1-.656.7,2.886,2.886,0,0,1-.952.389,5.229,5.229,0,0,1-1.137.12,4.481,4.481,0,0,1-.492-.032q-.294-.031-.6-.094a4.76,4.76,0,0,1-.577-.152A1.793,1.793,0,0,1,109.707,179.314Z" fill="#1e1e1e"/>
      <path d="M118.854,179.794a2.784,2.784,0,0,1-2.124-.84,3.113,3.113,0,0,1-.794-2.23,3.242,3.242,0,0,1,.826-2.361,2.968,2.968,0,0,1,2.232-.85,2.694,2.694,0,0,1,2.095.826,3.277,3.277,0,0,1,.753,2.291,3.223,3.223,0,0,1-.811,2.3A2.845,2.845,0,0,1,118.854,179.794Zm.07-5.472a1.829,1.829,0,0,0-1.465.63,2.589,2.589,0,0,0-.539,1.737,2.45,2.45,0,0,0,.545,1.682,1.852,1.852,0,0,0,1.459.615,1.756,1.756,0,0,0,1.433-.6,2.616,2.616,0,0,0,.5-1.716,2.665,2.665,0,0,0-.5-1.735A1.75,1.75,0,0,0,118.924,174.322Z" fill="#1e1e1e"/>
      <path d="M128.229,179.654h-.961v-.949h-.024a1.972,1.972,0,0,1-1.851,1.089q-2.145,0-2.145-2.554v-3.586h.955v3.433q0,1.9,1.454,1.9a1.47,1.47,0,0,0,1.157-.519,1.986,1.986,0,0,0,.454-1.356v-3.457h.961Z" fill="#1e1e1e"/>
      <path d="M133.3,174.627a1.173,1.173,0,0,0-.726-.194,1.229,1.229,0,0,0-1.029.58,2.685,2.685,0,0,0-.413,1.582v3.059h-.961v-6h.961v1.236h.024a2.081,2.081,0,0,1,.627-.987,1.43,1.43,0,0,1,.943-.355,1.583,1.583,0,0,1,.574.082Z" fill="#1e1e1e"/>
      <path d="M138.43,179.378a3.117,3.117,0,0,1-1.641.416,2.717,2.717,0,0,1-2.071-.834,3.03,3.03,0,0,1-.788-2.166,3.321,3.321,0,0,1,.85-2.381,2.97,2.97,0,0,1,2.267-.9,3.163,3.163,0,0,1,1.4.293v.985a2.442,2.442,0,0,0-1.43-.469,1.935,1.935,0,0,0-1.509.659,2.5,2.5,0,0,0-.589,1.731,2.385,2.385,0,0,0,.554,1.665,1.908,1.908,0,0,0,1.485.609,2.407,2.407,0,0,0,1.477-.522Z" fill="#1e1e1e"/>
      <path d="M144.705,176.894h-4.236a2.245,2.245,0,0,0,.539,1.547,1.861,1.861,0,0,0,1.418.545,2.948,2.948,0,0,0,1.863-.668v.9a3.478,3.478,0,0,1-2.091.574,2.534,2.534,0,0,1-2-.817,3.342,3.342,0,0,1-.727-2.3,3.283,3.283,0,0,1,.794-2.282,2.544,2.544,0,0,1,1.972-.882,2.255,2.255,0,0,1,1.822.762,3.174,3.174,0,0,1,.644,2.115Zm-.984-.814a1.958,1.958,0,0,0-.4-1.3,1.367,1.367,0,0,0-1.1-.463,1.552,1.552,0,0,0-1.154.486,2.2,2.2,0,0,0-.586,1.272Z" fill="#1e1e1e"/>
    </g>
    <g>
      <path d="M103.614,225.278v3.176h-.985v-8.4h2.309a3.046,3.046,0,0,1,2.089.657,2.341,2.341,0,0,1,.741,1.851,2.549,2.549,0,0,1-.823,1.957,3.145,3.145,0,0,1-2.224.762Zm0-4.336v3.445h1.031a2.3,2.3,0,0,0,1.555-.466,1.647,1.647,0,0,0,.537-1.315q0-1.663-1.969-1.664Z" fill="#1e1e1e"/>
      <path d="M112.35,223.426a1.175,1.175,0,0,0-.727-.193,1.225,1.225,0,0,0-1.028.58,2.685,2.685,0,0,0-.413,1.582v3.059h-.961v-6h.961v1.236h.023a2.1,2.1,0,0,1,.627-.987,1.429,1.429,0,0,1,.944-.355,1.583,1.583,0,0,1,.574.082Z" fill="#1e1e1e"/>
      <path d="M115.9,228.594a2.781,2.781,0,0,1-2.124-.841,3.109,3.109,0,0,1-.794-2.229,3.242,3.242,0,0,1,.826-2.361,2.968,2.968,0,0,1,2.232-.85,2.69,2.69,0,0,1,2.095.826,3.277,3.277,0,0,1,.753,2.291,3.224,3.224,0,0,1-.812,2.3A2.843,2.843,0,0,1,115.9,228.594Zm.07-5.472a1.829,1.829,0,0,0-1.465.63,2.587,2.587,0,0,0-.539,1.737,2.446,2.446,0,0,0,.545,1.681,1.85,1.85,0,0,0,1.459.616,1.756,1.756,0,0,0,1.433-.6,2.617,2.617,0,0,0,.5-1.717,2.662,2.662,0,0,0-.5-1.734A1.75,1.75,0,0,0,115.971,223.122Z" fill="#1e1e1e"/>
      <path d="M124.514,228.178a3.117,3.117,0,0,1-1.641.416,2.714,2.714,0,0,1-2.071-.835,3.026,3.026,0,0,1-.788-2.165,3.326,3.326,0,0,1,.85-2.382,2.973,2.973,0,0,1,2.267-.9,3.166,3.166,0,0,1,1.395.293v.984a2.448,2.448,0,0,0-1.43-.468,1.932,1.932,0,0,0-1.509.659,2.5,2.5,0,0,0-.589,1.731,2.382,2.382,0,0,0,.554,1.664,1.906,1.906,0,0,0,1.485.61,2.407,2.407,0,0,0,1.477-.522Z" fill="#1e1e1e"/>
      <path d="M130.789,225.694h-4.236a2.246,2.246,0,0,0,.539,1.547,1.859,1.859,0,0,0,1.418.545,2.948,2.948,0,0,0,1.863-.668v.9a3.478,3.478,0,0,1-2.091.574,2.538,2.538,0,0,1-2-.817,3.348,3.348,0,0,1-.726-2.3,3.281,3.281,0,0,1,.794-2.282,2.544,2.544,0,0,1,1.972-.882,2.255,2.255,0,0,1,1.822.762,3.174,3.174,0,0,1,.644,2.115Zm-.984-.815a1.957,1.957,0,0,0-.4-1.294,1.367,1.367,0,0,0-1.1-.463,1.552,1.552,0,0,0-1.154.486,2.2,2.2,0,0,0-.586,1.271Z" fill="#1e1e1e"/>
      <path d="M131.879,228.237v-1.031a2.851,2.851,0,0,0,1.729.58q1.264,0,1.265-.844a.733.733,0,0,0-.108-.407,1.069,1.069,0,0,0-.293-.3,2.291,2.291,0,0,0-.434-.232c-.166-.068-.344-.139-.536-.214a6.724,6.724,0,0,1-.7-.319,2.105,2.105,0,0,1-.5-.363,1.36,1.36,0,0,1-.305-.46,1.636,1.636,0,0,1-.1-.6,1.433,1.433,0,0,1,.193-.747,1.729,1.729,0,0,1,.516-.545,2.439,2.439,0,0,1,.735-.331,3.278,3.278,0,0,1,.853-.111,3.436,3.436,0,0,1,1.394.27v.972a2.716,2.716,0,0,0-1.523-.433,1.775,1.775,0,0,0-.486.061,1.2,1.2,0,0,0-.373.173.8.8,0,0,0-.24.267.7.7,0,0,0-.085.342.831.831,0,0,0,.085.393.877.877,0,0,0,.249.281,1.934,1.934,0,0,0,.4.223c.156.066.334.139.533.217a7.36,7.36,0,0,1,.715.313,2.511,2.511,0,0,1,.539.363,1.426,1.426,0,0,1,.343.466,1.505,1.505,0,0,1,.12.627,1.48,1.48,0,0,1-.2.774,1.682,1.682,0,0,1-.524.545,2.435,2.435,0,0,1-.756.322,3.746,3.746,0,0,1-.9.1A3.407,3.407,0,0,1,131.879,228.237Z" fill="#1e1e1e"/>
      <path d="M136.971,228.237v-1.031a2.849,2.849,0,0,0,1.729.58q1.265,0,1.265-.844a.733.733,0,0,0-.108-.407,1.083,1.083,0,0,0-.293-.3,2.291,2.291,0,0,0-.434-.232q-.249-.1-.536-.214a6.629,6.629,0,0,1-.7-.319,2.105,2.105,0,0,1-.5-.363,1.36,1.36,0,0,1-.3-.46,1.636,1.636,0,0,1-.1-.6,1.433,1.433,0,0,1,.193-.747,1.729,1.729,0,0,1,.516-.545,2.439,2.439,0,0,1,.735-.331,3.272,3.272,0,0,1,.853-.111,3.436,3.436,0,0,1,1.394.27v.972a2.716,2.716,0,0,0-1.523-.433,1.788,1.788,0,0,0-.487.061,1.206,1.206,0,0,0-.372.173.8.8,0,0,0-.24.267.694.694,0,0,0-.085.342.819.819,0,0,0,.085.393.877.877,0,0,0,.249.281,1.908,1.908,0,0,0,.4.223c.156.066.333.139.533.217a7.469,7.469,0,0,1,.715.313,2.536,2.536,0,0,1,.539.363,1.423,1.423,0,0,1,.342.466,1.5,1.5,0,0,1,.121.627,1.48,1.48,0,0,1-.2.774,1.692,1.692,0,0,1-.524.545,2.435,2.435,0,0,1-.756.322,3.748,3.748,0,0,1-.9.1A3.406,3.406,0,0,1,136.971,228.237Z" fill="#1e1e1e"/>
      <path d="M144.934,228.594a2.781,2.781,0,0,1-2.124-.841,3.113,3.113,0,0,1-.794-2.229,3.242,3.242,0,0,1,.826-2.361,2.969,2.969,0,0,1,2.233-.85,2.689,2.689,0,0,1,2.094.826,3.277,3.277,0,0,1,.753,2.291,3.223,3.223,0,0,1-.811,2.3A2.845,2.845,0,0,1,144.934,228.594Zm.07-5.472a1.829,1.829,0,0,0-1.465.63,2.587,2.587,0,0,0-.539,1.737,2.446,2.446,0,0,0,.545,1.681,1.85,1.85,0,0,0,1.459.616,1.756,1.756,0,0,0,1.433-.6,2.617,2.617,0,0,0,.5-1.717,2.662,2.662,0,0,0-.5-1.734A1.75,1.75,0,0,0,145,223.122Z" fill="#1e1e1e"/>
      <path d="M152.586,223.426a1.174,1.174,0,0,0-.726-.193,1.228,1.228,0,0,0-1.029.58,2.685,2.685,0,0,0-.413,1.582v3.059h-.961v-6h.961v1.236h.024a2.081,2.081,0,0,1,.627-.987,1.425,1.425,0,0,1,.943-.355,1.583,1.583,0,0,1,.574.082Z" fill="#1e1e1e"/>
    </g>
    <g>
      <path d="M200.1,176.478v3.176h-.984v-8.4h2.308a3.044,3.044,0,0,1,2.089.656,2.341,2.341,0,0,1,.741,1.851,2.544,2.544,0,0,1-.823,1.957,3.145,3.145,0,0,1-2.224.762Zm0-4.336v3.445h1.031a2.31,2.31,0,0,0,1.556-.465,1.651,1.651,0,0,0,.536-1.316q0-1.664-1.969-1.664Z" fill="#1e1e1e"/>
      <path d="M208.833,174.627a1.173,1.173,0,0,0-.726-.194,1.23,1.23,0,0,0-1.029.58,2.685,2.685,0,0,0-.413,1.582v3.059H205.7v-6h.961v1.236h.024a2.081,2.081,0,0,1,.627-.987,1.43,1.43,0,0,1,.943-.355,1.583,1.583,0,0,1,.574.082Z" fill="#1e1e1e"/>
      <path d="M212.384,179.794a2.784,2.784,0,0,1-2.124-.84,3.117,3.117,0,0,1-.794-2.23,3.242,3.242,0,0,1,.826-2.361,2.969,2.969,0,0,1,2.233-.85,2.693,2.693,0,0,1,2.094.826,3.277,3.277,0,0,1,.753,2.291,3.223,3.223,0,0,1-.811,2.3A2.845,2.845,0,0,1,212.384,179.794Zm.07-5.472a1.826,1.826,0,0,0-1.464.63,2.584,2.584,0,0,0-.54,1.737,2.45,2.45,0,0,0,.545,1.682,1.854,1.854,0,0,0,1.459.615,1.756,1.756,0,0,0,1.433-.6,2.616,2.616,0,0,0,.5-1.716,2.665,2.665,0,0,0-.5-1.735A1.75,1.75,0,0,0,212.454,174.322Z" fill="#1e1e1e"/>
      <path d="M221,179.378a3.114,3.114,0,0,1-1.64.416,2.72,2.72,0,0,1-2.072-.834,3.03,3.03,0,0,1-.788-2.166,3.326,3.326,0,0,1,.85-2.381,2.97,2.97,0,0,1,2.268-.9,3.158,3.158,0,0,1,1.394.293v.985a2.44,2.44,0,0,0-1.43-.469,1.931,1.931,0,0,0-1.508.659,2.5,2.5,0,0,0-.589,1.731,2.384,2.384,0,0,0,.553,1.665,1.912,1.912,0,0,0,1.486.609,2.406,2.406,0,0,0,1.476-.522Z" fill="#1e1e1e"/>
      <path d="M227.273,176.894h-4.237a2.249,2.249,0,0,0,.539,1.547,1.861,1.861,0,0,0,1.418.545,2.953,2.953,0,0,0,1.864-.668v.9a3.483,3.483,0,0,1-2.092.574,2.534,2.534,0,0,1-2-.817,3.347,3.347,0,0,1-.727-2.3,3.283,3.283,0,0,1,.794-2.282,2.547,2.547,0,0,1,1.972-.882,2.254,2.254,0,0,1,1.822.762,3.175,3.175,0,0,1,.645,2.115Zm-.985-.814a1.952,1.952,0,0,0-.4-1.3,1.367,1.367,0,0,0-1.1-.463,1.552,1.552,0,0,0-1.154.486,2.207,2.207,0,0,0-.586,1.272Z" fill="#1e1e1e"/>
      <path d="M228.363,179.437v-1.031a2.839,2.839,0,0,0,1.728.58q1.266,0,1.266-.844a.725.725,0,0,0-.109-.407,1.083,1.083,0,0,0-.293-.3,2.225,2.225,0,0,0-.433-.231q-.249-.1-.536-.214a6.954,6.954,0,0,1-.7-.32,2.079,2.079,0,0,1-.5-.363,1.345,1.345,0,0,1-.305-.46,1.613,1.613,0,0,1-.1-.6,1.429,1.429,0,0,1,.194-.747,1.705,1.705,0,0,1,.515-.545,2.386,2.386,0,0,1,.736-.331,3.223,3.223,0,0,1,.852-.112,3.437,3.437,0,0,1,1.4.27v.972a2.722,2.722,0,0,0-1.524-.433,1.78,1.78,0,0,0-.486.061,1.185,1.185,0,0,0-.372.173.781.781,0,0,0-.24.267.7.7,0,0,0-.085.343.815.815,0,0,0,.085.392.844.844,0,0,0,.249.281,1.88,1.88,0,0,0,.4.223c.156.066.334.139.533.217a7.36,7.36,0,0,1,.715.313,2.453,2.453,0,0,1,.539.364,1.408,1.408,0,0,1,.343.465,1.505,1.505,0,0,1,.12.627,1.479,1.479,0,0,1-.2.774,1.685,1.685,0,0,1-.525.545,2.4,2.4,0,0,1-.755.322,3.754,3.754,0,0,1-.9.105A3.406,3.406,0,0,1,228.363,179.437Z" fill="#1e1e1e"/>
      <path d="M233.454,179.437v-1.031a2.844,2.844,0,0,0,1.729.58q1.266,0,1.266-.844a.733.733,0,0,0-.109-.407,1.083,1.083,0,0,0-.293-.3,2.225,2.225,0,0,0-.433-.231q-.249-.1-.537-.214a6.93,6.93,0,0,1-.7-.32,2.105,2.105,0,0,1-.5-.363,1.357,1.357,0,0,1-.3-.46,1.613,1.613,0,0,1-.1-.6,1.438,1.438,0,0,1,.193-.747,1.708,1.708,0,0,1,.516-.545,2.391,2.391,0,0,1,.735-.331,3.236,3.236,0,0,1,.853-.112,3.441,3.441,0,0,1,1.395.27v.972a2.722,2.722,0,0,0-1.524-.433,1.775,1.775,0,0,0-.486.061,1.185,1.185,0,0,0-.372.173.794.794,0,0,0-.241.267.709.709,0,0,0-.085.343.827.827,0,0,0,.085.392.866.866,0,0,0,.249.281,1.914,1.914,0,0,0,.4.223c.156.066.334.139.533.217a7.36,7.36,0,0,1,.715.313,2.453,2.453,0,0,1,.539.364,1.422,1.422,0,0,1,.343.465,1.505,1.505,0,0,1,.12.627,1.489,1.489,0,0,1-.2.774,1.685,1.685,0,0,1-.525.545,2.411,2.411,0,0,1-.756.322,3.746,3.746,0,0,1-.9.105A3.413,3.413,0,0,1,233.454,179.437Z" fill="#1e1e1e"/>
      <path d="M241.417,179.794a2.787,2.787,0,0,1-2.124-.84,3.117,3.117,0,0,1-.794-2.23,3.246,3.246,0,0,1,.826-2.361,2.969,2.969,0,0,1,2.233-.85,2.7,2.7,0,0,1,2.095.826,3.277,3.277,0,0,1,.753,2.291,3.224,3.224,0,0,1-.812,2.3A2.845,2.845,0,0,1,241.417,179.794Zm.071-5.472a1.826,1.826,0,0,0-1.465.63,2.583,2.583,0,0,0-.539,1.737,2.445,2.445,0,0,0,.545,1.682,1.851,1.851,0,0,0,1.459.615,1.754,1.754,0,0,0,1.432-.6,2.616,2.616,0,0,0,.5-1.716,2.665,2.665,0,0,0-.5-1.735A1.748,1.748,0,0,0,241.488,174.322Z" fill="#1e1e1e"/>
      <path d="M249.07,174.627a1.177,1.177,0,0,0-.727-.194,1.227,1.227,0,0,0-1.028.58,2.678,2.678,0,0,0-.413,1.582v3.059h-.961v-6h.961v1.236h.023a2.1,2.1,0,0,1,.627-.987,1.432,1.432,0,0,1,.943-.355,1.589,1.589,0,0,1,.575.082Z" fill="#1e1e1e"/>
    </g>
    <g>
      <path d="M200.368,225.278v3.176h-.984v-8.4h2.308a3.044,3.044,0,0,1,2.089.657,2.341,2.341,0,0,1,.741,1.851,2.546,2.546,0,0,1-.823,1.957,3.145,3.145,0,0,1-2.224.762Zm0-4.336v3.445H201.4a2.3,2.3,0,0,0,1.556-.466,1.649,1.649,0,0,0,.536-1.315q0-1.663-1.969-1.664Z" fill="#1e1e1e"/>
      <path d="M209.1,223.426a1.174,1.174,0,0,0-.726-.193,1.228,1.228,0,0,0-1.029.58,2.685,2.685,0,0,0-.413,1.582v3.059h-.961v-6h.961v1.236h.024a2.081,2.081,0,0,1,.627-.987,1.425,1.425,0,0,1,.943-.355,1.583,1.583,0,0,1,.574.082Z" fill="#1e1e1e"/>
      <path d="M212.655,228.594a2.781,2.781,0,0,1-2.124-.841,3.113,3.113,0,0,1-.794-2.229,3.242,3.242,0,0,1,.826-2.361,2.969,2.969,0,0,1,2.233-.85,2.689,2.689,0,0,1,2.094.826,3.277,3.277,0,0,1,.753,2.291,3.224,3.224,0,0,1-.812,2.3A2.841,2.841,0,0,1,212.655,228.594Zm.07-5.472a1.826,1.826,0,0,0-1.464.63,2.582,2.582,0,0,0-.54,1.737,2.446,2.446,0,0,0,.545,1.681,1.851,1.851,0,0,0,1.459.616,1.756,1.756,0,0,0,1.433-.6,2.617,2.617,0,0,0,.5-1.717,2.662,2.662,0,0,0-.5-1.734A1.75,1.75,0,0,0,212.725,223.122Z" fill="#1e1e1e"/>
      <path d="M221.268,228.178a3.117,3.117,0,0,1-1.641.416,2.714,2.714,0,0,1-2.071-.835,3.026,3.026,0,0,1-.788-2.165,3.329,3.329,0,0,1,.849-2.382,2.976,2.976,0,0,1,2.268-.9,3.166,3.166,0,0,1,1.4.293v.984a2.448,2.448,0,0,0-1.43-.468,1.932,1.932,0,0,0-1.509.659,2.5,2.5,0,0,0-.589,1.731,2.382,2.382,0,0,0,.554,1.664,1.906,1.906,0,0,0,1.485.61,2.407,2.407,0,0,0,1.477-.522Z" fill="#1e1e1e"/>
      <path d="M227.543,225.694h-4.236a2.246,2.246,0,0,0,.539,1.547,1.859,1.859,0,0,0,1.418.545,2.948,2.948,0,0,0,1.863-.668v.9a3.479,3.479,0,0,1-2.092.574,2.537,2.537,0,0,1-2-.817,3.348,3.348,0,0,1-.726-2.3,3.277,3.277,0,0,1,.794-2.282,2.544,2.544,0,0,1,1.971-.882,2.256,2.256,0,0,1,1.823.762,3.18,3.18,0,0,1,.644,2.115Zm-.984-.815a1.957,1.957,0,0,0-.4-1.294,1.367,1.367,0,0,0-1.1-.463,1.552,1.552,0,0,0-1.154.486,2.2,2.2,0,0,0-.586,1.271Z" fill="#1e1e1e"/>
      <path d="M228.633,228.237v-1.031a2.851,2.851,0,0,0,1.729.58q1.265,0,1.265-.844a.733.733,0,0,0-.108-.407,1.069,1.069,0,0,0-.293-.3,2.291,2.291,0,0,0-.434-.232c-.166-.068-.344-.139-.536-.214a6.724,6.724,0,0,1-.7-.319,2.105,2.105,0,0,1-.5-.363,1.36,1.36,0,0,1-.3-.46,1.636,1.636,0,0,1-.1-.6,1.433,1.433,0,0,1,.193-.747,1.729,1.729,0,0,1,.516-.545,2.439,2.439,0,0,1,.735-.331,3.278,3.278,0,0,1,.853-.111,3.436,3.436,0,0,1,1.394.27v.972a2.716,2.716,0,0,0-1.523-.433,1.788,1.788,0,0,0-.487.061,1.206,1.206,0,0,0-.372.173.8.8,0,0,0-.24.267.7.7,0,0,0-.085.342.831.831,0,0,0,.085.393.877.877,0,0,0,.249.281,1.934,1.934,0,0,0,.4.223c.156.066.334.139.533.217a7.469,7.469,0,0,1,.715.313,2.511,2.511,0,0,1,.539.363,1.423,1.423,0,0,1,.342.466,1.647,1.647,0,0,1-.076,1.4,1.692,1.692,0,0,1-.524.545,2.435,2.435,0,0,1-.756.322,3.746,3.746,0,0,1-.9.1A3.407,3.407,0,0,1,228.633,228.237Z" fill="#1e1e1e"/>
      <path d="M233.725,228.237v-1.031a2.848,2.848,0,0,0,1.728.58q1.266,0,1.266-.844a.733.733,0,0,0-.108-.407,1.083,1.083,0,0,0-.293-.3,2.291,2.291,0,0,0-.434-.232q-.249-.1-.536-.214a6.629,6.629,0,0,1-.7-.319,2.105,2.105,0,0,1-.5-.363,1.36,1.36,0,0,1-.305-.46,1.636,1.636,0,0,1-.1-.6,1.433,1.433,0,0,1,.193-.747,1.729,1.729,0,0,1,.516-.545,2.428,2.428,0,0,1,.735-.331,3.27,3.27,0,0,1,.852-.111,3.437,3.437,0,0,1,1.4.27v.972a2.716,2.716,0,0,0-1.523-.433,1.788,1.788,0,0,0-.487.061,1.206,1.206,0,0,0-.372.173.8.8,0,0,0-.24.267.694.694,0,0,0-.085.342.819.819,0,0,0,.085.393.877.877,0,0,0,.249.281,1.925,1.925,0,0,0,.4.223c.157.066.334.139.534.217a7.336,7.336,0,0,1,.714.313,2.519,2.519,0,0,1,.54.363,1.423,1.423,0,0,1,.342.466,1.505,1.505,0,0,1,.12.627,1.479,1.479,0,0,1-.2.774,1.7,1.7,0,0,1-.524.545,2.435,2.435,0,0,1-.756.322,3.748,3.748,0,0,1-.9.1A3.406,3.406,0,0,1,233.725,228.237Z" fill="#1e1e1e"/>
      <path d="M241.688,228.594a2.781,2.781,0,0,1-2.124-.841,3.109,3.109,0,0,1-.794-2.229,3.242,3.242,0,0,1,.826-2.361,2.968,2.968,0,0,1,2.232-.85,2.69,2.69,0,0,1,2.095.826,3.277,3.277,0,0,1,.753,2.291,3.223,3.223,0,0,1-.811,2.3A2.845,2.845,0,0,1,241.688,228.594Zm.07-5.472a1.829,1.829,0,0,0-1.465.63,2.587,2.587,0,0,0-.539,1.737,2.446,2.446,0,0,0,.545,1.681,1.85,1.85,0,0,0,1.459.616,1.756,1.756,0,0,0,1.433-.6,2.617,2.617,0,0,0,.5-1.717,2.662,2.662,0,0,0-.5-1.734A1.75,1.75,0,0,0,241.758,223.122Z" fill="#1e1e1e"/>
      <path d="M249.34,223.426a1.174,1.174,0,0,0-.726-.193,1.226,1.226,0,0,0-1.029.58,2.685,2.685,0,0,0-.413,1.582v3.059h-.961v-6h.961v1.236h.024a2.081,2.081,0,0,1,.627-.987,1.425,1.425,0,0,1,.943-.355,1.583,1.583,0,0,1,.574.082Z" fill="#1e1e1e"/>
    </g>
    <g>
      <path d="M310.878,179.314v-1.16a2.228,2.228,0,0,0,.478.316,3.883,3.883,0,0,0,.586.238,4.705,4.705,0,0,0,.618.149,3.46,3.46,0,0,0,.574.053,2.255,2.255,0,0,0,1.357-.337,1.263,1.263,0,0,0,.3-1.562,1.674,1.674,0,0,0-.413-.46,4.178,4.178,0,0,0-.624-.4q-.36-.19-.776-.4-.44-.224-.82-.452a3.543,3.543,0,0,1-.663-.5,2.087,2.087,0,0,1-.442-.624,2.127,2.127,0,0,1,.091-1.816,2.161,2.161,0,0,1,.662-.7,2.967,2.967,0,0,1,.935-.41,4.268,4.268,0,0,1,1.069-.135,4.081,4.081,0,0,1,1.81.3v1.107a3.278,3.278,0,0,0-1.91-.515,3.13,3.13,0,0,0-.644.067,1.81,1.81,0,0,0-.574.22,1.274,1.274,0,0,0-.411.392,1.047,1.047,0,0,0-.158.586,1.208,1.208,0,0,0,.12.557,1.373,1.373,0,0,0,.355.428,3.622,3.622,0,0,0,.571.375c.225.121.483.253.776.4s.586.305.856.469a3.887,3.887,0,0,1,.709.545,2.419,2.419,0,0,1,.483.662,1.861,1.861,0,0,1,.179.832,2.115,2.115,0,0,1-.243,1.052,2,2,0,0,1-.656.7,2.883,2.883,0,0,1-.953.389,5.213,5.213,0,0,1-1.136.12,4.481,4.481,0,0,1-.492-.032q-.294-.031-.6-.094a4.76,4.76,0,0,1-.577-.152A1.793,1.793,0,0,1,310.878,179.314Z" fill="#1e1e1e"/>
      <path d="M318.009,172.13a.607.607,0,0,1-.439-.175.6.6,0,0,1-.182-.446.616.616,0,0,1,.621-.627.62.62,0,0,1,.448.179.625.625,0,0,1,0,.888A.614.614,0,0,1,318.009,172.13Zm.469,7.524h-.961v-6h.961Z" fill="#1e1e1e"/>
      <path d="M325.4,179.654h-.961v-3.422q0-1.91-1.395-1.91a1.51,1.51,0,0,0-1.192.542,2.005,2.005,0,0,0-.472,1.368v3.422h-.961v-6h.961v1h.024a2.165,2.165,0,0,1,1.968-1.137,1.835,1.835,0,0,1,1.506.636,2.83,2.83,0,0,1,.522,1.837Z" fill="#1e1e1e"/>
      <path d="M332.2,179.654h-1.348l-2.648-2.883h-.024v2.883h-.961v-8.883h.961V176.4h.024l2.519-2.748h1.26l-2.783,2.894Z" fill="#1e1e1e"/>
    </g>
    <g>
      <path d="M297.709,225.278v3.176h-.984v-8.4h2.308a3.044,3.044,0,0,1,2.089.657,2.342,2.342,0,0,1,.742,1.851,2.547,2.547,0,0,1-.824,1.957,3.144,3.144,0,0,1-2.223.762Zm0-4.336v3.445h1.032a2.3,2.3,0,0,0,1.555-.466,1.646,1.646,0,0,0,.536-1.315q0-1.663-1.968-1.664Z" fill="#1e1e1e"/>
      <path d="M306.446,223.426a1.177,1.177,0,0,0-.727-.193,1.225,1.225,0,0,0-1.028.58,2.678,2.678,0,0,0-.413,1.582v3.059h-.961v-6h.961v1.236h.023a2.1,2.1,0,0,1,.627-.987,1.427,1.427,0,0,1,.943-.355,1.589,1.589,0,0,1,.575.082Z" fill="#1e1e1e"/>
      <path d="M310,228.594a2.784,2.784,0,0,1-2.124-.841,3.113,3.113,0,0,1-.794-2.229,3.242,3.242,0,0,1,.827-2.361,2.967,2.967,0,0,1,2.232-.85,2.69,2.69,0,0,1,2.1.826,3.277,3.277,0,0,1,.753,2.291,3.224,3.224,0,0,1-.812,2.3A2.843,2.843,0,0,1,310,228.594Zm.071-5.472a1.828,1.828,0,0,0-1.465.63,2.582,2.582,0,0,0-.539,1.737,2.441,2.441,0,0,0,.545,1.681,1.849,1.849,0,0,0,1.459.616,1.754,1.754,0,0,0,1.432-.6,2.617,2.617,0,0,0,.5-1.717,2.662,2.662,0,0,0-.5-1.734A1.748,1.748,0,0,0,310.067,223.122Z" fill="#1e1e1e"/>
      <path d="M318.61,228.178a3.117,3.117,0,0,1-1.641.416,2.714,2.714,0,0,1-2.071-.835,3.022,3.022,0,0,1-.788-2.165,3.329,3.329,0,0,1,.849-2.382,2.976,2.976,0,0,1,2.268-.9,3.158,3.158,0,0,1,1.394.293v.984a2.443,2.443,0,0,0-1.429-.468,1.929,1.929,0,0,0-1.509.659,2.5,2.5,0,0,0-.589,1.731,2.382,2.382,0,0,0,.554,1.664,1.906,1.906,0,0,0,1.485.61,2.407,2.407,0,0,0,1.477-.522Z" fill="#1e1e1e"/>
      <path d="M324.885,225.694h-4.236a2.242,2.242,0,0,0,.539,1.547,1.859,1.859,0,0,0,1.418.545,2.948,2.948,0,0,0,1.863-.668v.9a3.481,3.481,0,0,1-2.092.574,2.537,2.537,0,0,1-2-.817,3.348,3.348,0,0,1-.726-2.3,3.277,3.277,0,0,1,.794-2.282,2.544,2.544,0,0,1,1.971-.882,2.258,2.258,0,0,1,1.823.762,3.18,3.18,0,0,1,.644,2.115Zm-.984-.815a1.952,1.952,0,0,0-.4-1.294,1.365,1.365,0,0,0-1.1-.463,1.555,1.555,0,0,0-1.155.486,2.214,2.214,0,0,0-.586,1.271Z" fill="#1e1e1e"/>
      <path d="M325.975,228.237v-1.031a2.848,2.848,0,0,0,1.728.58q1.266,0,1.266-.844a.733.733,0,0,0-.108-.407,1.083,1.083,0,0,0-.293-.3,2.291,2.291,0,0,0-.434-.232q-.249-.1-.536-.214a6.629,6.629,0,0,1-.7-.319,2.105,2.105,0,0,1-.5-.363,1.36,1.36,0,0,1-.305-.46,1.636,1.636,0,0,1-.1-.6,1.433,1.433,0,0,1,.193-.747,1.729,1.729,0,0,1,.516-.545,2.428,2.428,0,0,1,.735-.331,3.27,3.27,0,0,1,.852-.111,3.437,3.437,0,0,1,1.395.27v.972a2.716,2.716,0,0,0-1.523-.433,1.788,1.788,0,0,0-.487.061,1.206,1.206,0,0,0-.372.173.8.8,0,0,0-.24.267.694.694,0,0,0-.085.342.819.819,0,0,0,.085.393.877.877,0,0,0,.249.281,1.925,1.925,0,0,0,.4.223c.157.066.334.139.534.217a7.336,7.336,0,0,1,.714.313,2.519,2.519,0,0,1,.54.363,1.423,1.423,0,0,1,.342.466,1.505,1.505,0,0,1,.12.627,1.479,1.479,0,0,1-.2.774,1.7,1.7,0,0,1-.524.545,2.435,2.435,0,0,1-.756.322,3.748,3.748,0,0,1-.9.1A3.406,3.406,0,0,1,325.975,228.237Z" fill="#1e1e1e"/>
      <path d="M331.067,228.237v-1.031a2.846,2.846,0,0,0,1.728.58q1.266,0,1.266-.844a.725.725,0,0,0-.109-.407,1.056,1.056,0,0,0-.293-.3,2.281,2.281,0,0,0-.433-.232q-.249-.1-.536-.214a6.629,6.629,0,0,1-.7-.319,2.066,2.066,0,0,1-.5-.363,1.345,1.345,0,0,1-.305-.46,1.635,1.635,0,0,1-.1-.6,1.434,1.434,0,0,1,.194-.747,1.737,1.737,0,0,1,.515-.545,2.434,2.434,0,0,1,.736-.331,3.264,3.264,0,0,1,.852-.111,3.437,3.437,0,0,1,1.395.27v.972a2.719,2.719,0,0,0-1.524-.433,1.786,1.786,0,0,0-.486.061,1.2,1.2,0,0,0-.372.173.781.781,0,0,0-.24.267.694.694,0,0,0-.085.342.819.819,0,0,0,.085.393.853.853,0,0,0,.249.281,1.925,1.925,0,0,0,.4.223c.156.066.334.139.533.217a7.36,7.36,0,0,1,.715.313,2.486,2.486,0,0,1,.539.363,1.412,1.412,0,0,1,.343.466,1.505,1.505,0,0,1,.12.627,1.479,1.479,0,0,1-.2.774,1.7,1.7,0,0,1-.524.545,2.435,2.435,0,0,1-.756.322,3.754,3.754,0,0,1-.9.1A3.406,3.406,0,0,1,331.067,228.237Z" fill="#1e1e1e"/>
      <path d="M339.03,228.594a2.781,2.781,0,0,1-2.124-.841,3.109,3.109,0,0,1-.794-2.229,3.242,3.242,0,0,1,.826-2.361,2.968,2.968,0,0,1,2.232-.85,2.69,2.69,0,0,1,2.095.826,3.277,3.277,0,0,1,.753,2.291,3.224,3.224,0,0,1-.812,2.3A2.843,2.843,0,0,1,339.03,228.594Zm.07-5.472a1.828,1.828,0,0,0-1.465.63,2.587,2.587,0,0,0-.539,1.737,2.446,2.446,0,0,0,.545,1.681,1.85,1.85,0,0,0,1.459.616,1.756,1.756,0,0,0,1.433-.6,2.623,2.623,0,0,0,.5-1.717,2.668,2.668,0,0,0-.5-1.734A1.75,1.75,0,0,0,339.1,223.122Z" fill="#1e1e1e"/>
      <path d="M346.682,223.426a1.175,1.175,0,0,0-.727-.193,1.225,1.225,0,0,0-1.028.58,2.685,2.685,0,0,0-.413,1.582v3.059h-.961v-6h.961v1.236h.023a2.1,2.1,0,0,1,.627-.987,1.429,1.429,0,0,1,.944-.355,1.583,1.583,0,0,1,.574.082Z" fill="#1e1e1e"/>
    </g>
    <g>
      <path d="M406.866,228.114v-1.16a2.258,2.258,0,0,0,.477.316,3.819,3.819,0,0,0,.586.237,4.556,4.556,0,0,0,.618.15,3.47,3.47,0,0,0,.574.053,2.255,2.255,0,0,0,1.357-.337,1.266,1.266,0,0,0,.3-1.562,1.707,1.707,0,0,0-.413-.46,4.1,4.1,0,0,0-.624-.4c-.241-.127-.5-.261-.777-.4q-.44-.222-.82-.451a3.5,3.5,0,0,1-.662-.5,2.09,2.09,0,0,1-.443-.624,2.127,2.127,0,0,1,.091-1.816,2.161,2.161,0,0,1,.662-.7,3,3,0,0,1,.935-.411,4.313,4.313,0,0,1,1.069-.134,4.089,4.089,0,0,1,1.811.3v1.107a3.28,3.28,0,0,0-1.91-.516,3.141,3.141,0,0,0-.645.068,1.833,1.833,0,0,0-.574.219,1.274,1.274,0,0,0-.41.393,1.037,1.037,0,0,0-.159.586,1.211,1.211,0,0,0,.121.557,1.366,1.366,0,0,0,.354.427,3.531,3.531,0,0,0,.571.375q.337.182.777.4t.855.468a3.942,3.942,0,0,1,.709.545,2.448,2.448,0,0,1,.484.663,1.861,1.861,0,0,1,.178.832,2.108,2.108,0,0,1-.243,1.051,2,2,0,0,1-.656.7,2.877,2.877,0,0,1-.952.389,5.229,5.229,0,0,1-1.137.12,4.481,4.481,0,0,1-.492-.032c-.195-.021-.395-.053-.6-.094a4.81,4.81,0,0,1-.577-.152A1.8,1.8,0,0,1,406.866,228.114Z" fill="#1e1e1e"/>
      <path d="M414,220.93a.606.606,0,0,1-.439-.176.592.592,0,0,1-.182-.445.616.616,0,0,1,.621-.627.623.623,0,0,1,.449.179.628.628,0,0,1,0,.888A.616.616,0,0,1,414,220.93Zm.469,7.524H413.5v-6h.961Z" fill="#1e1e1e"/>
      <path d="M421.391,228.454h-.961v-3.422q0-1.911-1.395-1.91a1.511,1.511,0,0,0-1.192.542,2.01,2.01,0,0,0-.472,1.368v3.422h-.961v-6h.961v1h.024a2.165,2.165,0,0,1,1.969-1.137,1.833,1.833,0,0,1,1.505.636,2.83,2.83,0,0,1,.522,1.837Z" fill="#1e1e1e"/>
      <path d="M428.182,228.454h-1.348l-2.648-2.883h-.024v2.883H423.2v-8.883h.961V225.2h.024l2.519-2.748h1.26l-2.783,2.894Z" fill="#1e1e1e"/>
    </g>
  </g>
</svg>
