<svg id="Shapes" xmlns="http://www.w3.org/2000/svg" viewBox="0 0 64 44.24">
  <title>grad-hat</title>
  <path d="M10.28,21.05l20,8,22.18-8.6V33.55S50.79,43.94,30.78,43.4s-.29,0-.29,0S10.28,42,10.11,32.75Z" fill="#fff"/>
  <polygon points="0.31 12.26 30.38 0.92 59.8 12.41 30.38 24.71 0.31 12.26" fill="#d1d3d4"/>
  <polygon points="52.49 16.58 30.38 25.16 9.64 16.57 9.64 21.75 30.38 30.39 52.2 22.11 52.49 16.58" fill="#3a96dd"/>
  <path d="M5.83,29.34V11.73a.44.44,0,0,0-.43-.44H4.54a.44.44,0,0,0-.44.44V29.34a6.93,6.93,0,0,0-.86,3.83v4.15H6.7V33.17A6.83,6.83,0,0,0,5.83,29.34Z" fill="#556a8a"/>
  <path d="M31.93,0,0,12.14l9.29,4.8V32.72c0,6.79,11.93,11.52,22.64,11.52,11.82,0,21.43-5.17,21.43-11.52V17L64,12.2Zm0,1.85L59.48,12.33l-3.84,1.72h0L30.39,23.78,10.67,15.7,4.23,12.38Zm0,40.66C21.18,42.51,11,37.75,11,32.72V17.53l19.35,8.11,21.26-8.19V32.72C51.63,37.94,42.42,42.51,31.93,42.51Z" fill="#556a8a"/>
</svg>
