<svg xmlns="http://www.w3.org/2000/svg" width="142.133" height="35.454" viewBox="0 0 142.133 35.454">
  <g id="Shapes">
    <rect width="142.133" height="35.454" rx="3" fill="#0065b3"/>
    <path d="M18.08,4.322a13.741,13.741,0,0,0-2.621,26.767V27.916a5.694,5.694,0,0,1-1.242.138,2.977,2.977,0,0,1-2.9-2.622,2.863,2.863,0,0,0-.828-1.38c-.414-.138-.552-.138-.552-.276,0-.276.414-.276.552-.276.828,0,1.518.966,1.794,1.38a2.512,2.512,0,0,0,1.931,1.38,2.756,2.756,0,0,0,1.242-.276,3.5,3.5,0,0,1,1.38-2.484c-3.174-.689-5.519-2.483-5.519-5.518a6.509,6.509,0,0,1,1.655-4.14,5.112,5.112,0,0,1-.276-1.931A4.73,4.73,0,0,1,13.113,9.7,6.211,6.211,0,0,1,16.977,11.5a7.459,7.459,0,0,1,2.621-.414,8.887,8.887,0,0,1,2.759.414A5.95,5.95,0,0,1,26.221,9.7a6.859,6.859,0,0,1,.276,2.208,4.582,4.582,0,0,1-.276,1.931,6.216,6.216,0,0,1,1.655,4.14c0,3.035-2.345,4.829-5.519,5.518a4.255,4.255,0,0,1,1.38,3.174v4.553a13.813,13.813,0,0,0-5.657-26.9Z" fill="#f2f2f3"/>
  </g>
  <g id="Text">
    <g>
      <path d="M41.2,23V12.5h3.823a4.771,4.771,0,0,1,2.7.645,2.072,2.072,0,0,1,.945,1.816,2.153,2.153,0,0,1-.575,1.487,3.019,3.019,0,0,1-1.468.886v.029a2.911,2.911,0,0,1,1.79.828,2.314,2.314,0,0,1,.671,1.677,2.805,2.805,0,0,1-1.033,2.289A4.325,4.325,0,0,1,45.236,23Zm2.365-8.76v2.49h1.041a1.736,1.736,0,0,0,1.154-.355,1.212,1.212,0,0,0,.421-.978q0-1.157-1.729-1.157Zm0,4.248v2.769h1.283a1.971,1.971,0,0,0,1.285-.381,1.274,1.274,0,0,0,.466-1.04,1.191,1.191,0,0,0-.458-.989,2.031,2.031,0,0,0-1.279-.359Z" fill="#f2f2f3"/>
      <path d="M55.51,17.587a2.02,2.02,0,0,0-.975-.227,1.408,1.408,0,0,0-1.18.553,2.415,2.415,0,0,0-.423,1.5V23H50.617V15.5h2.315v1.392h.029a2,2,0,0,1,1.977-1.524,1.491,1.491,0,0,1,.572.088Z" fill="#f2f2f3"/>
      <path d="M60.249,23.183A4.028,4.028,0,0,1,57.3,22.132a3.808,3.808,0,0,1-1.073-2.853,3.811,3.811,0,0,1,1.113-2.911,4.2,4.2,0,0,1,3.01-1.051,3.979,3.979,0,0,1,2.929,1.051,3.736,3.736,0,0,1,1.063,2.779,3.966,3.966,0,0,1-1.1,2.952A4.075,4.075,0,0,1,60.249,23.183Zm.059-6.094a1.546,1.546,0,0,0-1.276.564,2.487,2.487,0,0,0-.453,1.6q0,2.16,1.742,2.161,1.663,0,1.663-2.22Q61.984,17.09,60.308,17.089Z" fill="#f2f2f3"/>
      <path d="M76.528,15.5,74.368,23H71.937L70.83,18.605a4.435,4.435,0,0,1-.124-.959h-.045a5.771,5.771,0,0,1-.146.93L69.329,23h-2.4L64.81,15.5h2.358L68.2,20.393a6.382,6.382,0,0,1,.111.835h.043a4.727,4.727,0,0,1,.132-.865L69.775,15.5h2.2l1.159,4.893a7.988,7.988,0,0,1,.1.849h.052a8.244,8.244,0,0,1,.117-.849l.974-4.893Z" fill="#f2f2f3"/>
      <path d="M77.123,22.8V20.927a4.906,4.906,0,0,0,1.139.513,3.788,3.788,0,0,0,1.073.168,2.314,2.314,0,0,0,.971-.168.545.545,0,0,0,.355-.513.477.477,0,0,0-.162-.366,1.479,1.479,0,0,0-.413-.256,4.7,4.7,0,0,0-.554-.2c-.2-.059-.392-.125-.578-.2a5.539,5.539,0,0,1-.787-.362A2.256,2.256,0,0,1,77.6,19.1a1.739,1.739,0,0,1-.352-.593,2.358,2.358,0,0,1-.121-.8,2.063,2.063,0,0,1,.274-1.084,2.256,2.256,0,0,1,.733-.744,3.387,3.387,0,0,1,1.048-.425,5.465,5.465,0,0,1,1.226-.135,6.85,6.85,0,0,1,1.011.077,7.6,7.6,0,0,1,1.011.223V17.4a3.63,3.63,0,0,0-.942-.384,3.989,3.989,0,0,0-.985-.128,2.168,2.168,0,0,0-.428.04,1.423,1.423,0,0,0-.355.117.648.648,0,0,0-.242.2.451.451,0,0,0-.088.274.509.509,0,0,0,.133.352,1.133,1.133,0,0,0,.343.253,3.352,3.352,0,0,0,.473.19q.26.086.516.172a6.851,6.851,0,0,1,.836.352,2.7,2.7,0,0,1,.64.447,1.758,1.758,0,0,1,.41.6,2.4,2.4,0,0,1-.146,1.96,2.317,2.317,0,0,1-.77.768,3.466,3.466,0,0,1-1.105.433,6.167,6.167,0,0,1-1.3.135A6.7,6.7,0,0,1,77.123,22.8Z" fill="#f2f2f3"/>
      <path d="M90.994,19.909H86.1q.115,1.634,2.057,1.633a4.022,4.022,0,0,0,2.175-.585v1.669a5.7,5.7,0,0,1-2.7.557,3.8,3.8,0,0,1-2.82-1.007,3.8,3.8,0,0,1-1-2.809,4.013,4.013,0,0,1,1.084-2.959,3.612,3.612,0,0,1,2.666-1.091,3.282,3.282,0,0,1,2.538.974,3.756,3.756,0,0,1,.9,2.644Zm-2.146-1.421q0-1.611-1.3-1.611a1.246,1.246,0,0,0-.963.461,2.1,2.1,0,0,0-.5,1.15Z" fill="#f2f2f3"/>
      <path d="M102.192,22.729a4.575,4.575,0,0,1-2.263.454,3.828,3.828,0,0,1-2.8-1.047,3.616,3.616,0,0,1-1.069-2.7,3.983,3.983,0,0,1,1.146-3.014,4.237,4.237,0,0,1,3.064-1.1,3.944,3.944,0,0,1,1.92.351v1.963a2.642,2.642,0,0,0-1.619-.542A2.129,2.129,0,0,0,99,17.672a2.168,2.168,0,0,0-.582,1.607,2.134,2.134,0,0,0,.557,1.564,2.041,2.041,0,0,0,1.53.568,3.059,3.059,0,0,0,1.692-.542Z" fill="#f2f2f3"/>
      <path d="M107.258,23.183a4.027,4.027,0,0,1-2.948-1.051,3.808,3.808,0,0,1-1.074-2.853,3.808,3.808,0,0,1,1.114-2.911,4.2,4.2,0,0,1,3.009-1.051,3.981,3.981,0,0,1,2.93,1.051,3.736,3.736,0,0,1,1.063,2.779,3.97,3.97,0,0,1-1.095,2.952A4.078,4.078,0,0,1,107.258,23.183Zm.058-6.094a1.545,1.545,0,0,0-1.275.564,2.487,2.487,0,0,0-.453,1.6q0,2.16,1.742,2.161,1.662,0,1.663-2.22Q108.993,17.09,107.316,17.089Z" fill="#f2f2f3"/>
      <path d="M120.212,23H117.9V21.967h-.029a2.593,2.593,0,0,1-2.321,1.216,2.837,2.837,0,0,1-2.263-.993,4.1,4.1,0,0,1-.857-2.772,4.463,4.463,0,0,1,.945-2.98,3.076,3.076,0,0,1,2.475-1.121,2.107,2.107,0,0,1,2.021,1.04h.029V11.9h2.315Zm-2.27-3.647v-.564a1.775,1.775,0,0,0-.425-1.216,1.5,1.5,0,0,0-2.307.12,2.811,2.811,0,0,0-.432,1.66,2.428,2.428,0,0,0,.417,1.523,1.482,1.482,0,0,0,2.3-.029A2.353,2.353,0,0,0,117.942,19.353Z" fill="#f2f2f3"/>
      <path d="M128.891,19.909H124q.115,1.634,2.058,1.633a4.019,4.019,0,0,0,2.174-.585v1.669a5.7,5.7,0,0,1-2.7.557,3.8,3.8,0,0,1-2.819-1.007,3.8,3.8,0,0,1-1-2.809,4.013,4.013,0,0,1,1.084-2.959,3.613,3.613,0,0,1,2.666-1.091,3.279,3.279,0,0,1,2.538.974,3.752,3.752,0,0,1,.9,2.644Zm-2.147-1.421q0-1.611-1.3-1.611a1.243,1.243,0,0,0-.962.461,2.093,2.093,0,0,0-.5,1.15Z" fill="#f2f2f3"/>
    </g>
  </g>
</svg>
