<?xml version="1.0" encoding="UTF-8"?>
<svg xmlns="http://www.w3.org/2000/svg" width="572" height="211.2" xmlns:xlink="http://www.w3.org/1999/xlink" viewBox="0 0 572 211.2">
  <defs>
    <symbol id="Failed" viewBox="0 0 22 22">
      <g>
        <circle cx="11" cy="11" r="11" fill="#a4262c"/>
        <path d="M17.45425,6.501l-1.95525-1.95525-4.499,4.499-4.499-4.499-1.95525,1.95525,4.499,4.499-4.499,4.499,1.95525,1.95525,4.499-4.499,4.499,4.499,1.95525-1.95525-4.499-4.499,4.499-4.499Z" fill="#fff"/>
      </g>
    </symbol>
    <linearGradient id="linear-gradient" x1="152.08745" y1="1165.44016" x2="176.08604" y2="1141.78886" gradientTransform="translate(0 -1060)" gradientUnits="userSpaceOnUse">
      <stop offset="0" stop-color="#757575"/>
      <stop offset=".915" stop-color="#b0b0b0"/>
    </linearGradient>
    <linearGradient id="linear-gradient-2" x1="170.15406" y1="1147.52059" x2="157.70665" y2="1160.01927" gradientTransform="translate(0 -1060)" gradientUnits="userSpaceOnUse">
      <stop offset="0" stop-color="#0078d4"/>
      <stop offset="1" stop-color="#005ba1"/>
    </linearGradient>
    <linearGradient id="linear-gradient-3" x1="412.23752" y1="1165.44016" x2="436.23611" y2="1141.78886" xlink:href="#linear-gradient"/>
    <linearGradient id="linear-gradient-4" x1="430.30414" x2="417.85673" y2="1160.01927" xlink:href="#linear-gradient-2"/>
    <linearGradient id="linear-gradient-5" x1="-393" y1="791.30039" x2="-393" y2="809.30039" gradientTransform="translate(564 984.00039) scale(1 -1)" gradientUnits="userSpaceOnUse">
      <stop offset="0" stop-color="#0078d4"/>
      <stop offset=".16" stop-color="#1380da"/>
      <stop offset=".53" stop-color="#3c91e5"/>
      <stop offset=".82" stop-color="#559cec"/>
      <stop offset="1" stop-color="#5ea0ef"/>
    </linearGradient>
    <linearGradient id="linear-gradient-6" x1="-128.2" x2="-128.2" xlink:href="#linear-gradient-5"/>
  </defs>
  <g isolation="isolate">
    <g id="Shapes">
      <rect width="572" height="211.2" fill="#fff"/>
      <g>
        <rect x="8.8" y="49.5" width="550" height="83.6" fill="#fff"/>
        <rect x="8.8" y="49.5" width="550" height="83.6" fill="#cae4dd" opacity=".6"/>
        <rect x="8.8" y="49.5" width="550" height="83.6" fill="none" stroke="#9dd6c9" stroke-width=".25"/>
      </g>
      <g>
        <rect x="132" y="166.1" width="149.6" height="35.2" fill="#fff"/>
        <rect x="132" y="166.1" width="149.6" height="35.2" fill="#53b1e0" opacity=".05"/>
        <rect x="132" y="166.1" width="149.6" height="35.2" fill="none" stroke="#53b1e0" stroke-width=".25"/>
      </g>
      <g>
        <g mix-blend-mode="multiply" opacity=".8">
          <rect x="130.84993" y="10.4" width="151.8" height="136.4" fill="#8e8278"/>
          <rect x="130.84993" y="10.4" width="151.8" height="136.4" fill="#8e8278" opacity=".9"/>
        </g>
        <g>
          <rect x="130.34993" y="9.9" width="151.8" height="136.4" fill="#fff"/>
          <rect x="130.34993" y="9.9" width="151.8" height="136.4" fill="#e1ddd8" opacity=".9"/>
        </g>
      </g>
      <g>
        <rect x="140.8" y="66.1" width="132" height="52.8" fill="#fff"/>
        <rect x="140.8" y="66.1" width="132" height="52.8" fill="#53b1e0" opacity=".1"/>
        <rect x="140.8" y="66.1" width="132" height="52.8" fill="none" stroke="#b32025" stroke-width=".25"/>
      </g>
      <g>
        <path d="M164,81.7c.38965,0,.70588.31624.70588.70588v1.41176h2.82353v-1.41176c0-.38965.31624-.70588.70588-.70588s.70588.31624.70588.70588v1.41176h2.11765c1.56,0,2.82353,1.26353,2.82353,2.82353v2.11765h1.41176c.38965,0,.70588.31624.70588.70588s-.31624.70588-.70588.70588h-1.41176v2.82353h1.41176c.38965,0,.70588.31624.70588.70588s-.31624.70588-.70588.70588h-1.41176v2.82353h1.41176c.38965,0,.70588.31624.70588.70588s-.31624.70588-.70588.70588h-1.41176v2.11765c0,1.56-1.26353,2.82353-2.82353,2.82353h-2.11765v1.41176c0,.38965-.31624.70588-.70588.70588s-.70588-.31624-.70588-.70588v-1.41176h-2.82353v1.41176c0,.38965-.31624.70588-.70588.70588s-.70588-.31624-.70588-.70588v-1.41176h-2.82353v1.41176c0,.38965-.31624.70588-.70588.70588s-.70588-.31624-.70588-.70588v-1.41176h-2.11765c-1.56,0-2.82353-1.26353-2.82353-2.82353v-2.11765h-1.41176c-.38965,0-.70588-.31624-.70588-.70588s.31624-.70588.70588-.70588h1.41176v-2.82353h-1.41176c-.38965,0-.70588-.31624-.70588-.70588s.31624-.70588.70588-.70588h1.41176v-2.82353h-1.41176c-.38965,0-.70588-.31624-.70588-.70588s.31624-.70588.70588-.70588h1.41176v-2.11765c0-1.56,1.26353-2.82353,2.82353-2.82353h2.11765v-1.41176c0-.38965.31624-.70588.70588-.70588s.70588.31624.70588.70588v1.41176h2.82353v-1.41176c0-.38965.31624-.70588.70588-.70588ZM163.97741,85.22941h-7.03623c-.77929,0-1.41176.63247-1.41176,1.41176v14.11765c0,.77929.63247,1.41176,1.41176,1.41176h14.11765c.77929,0,1.41176-.63247,1.41176-1.41176v-14.11482c0-.77929-.63247-1.41176-1.41176-1.41176h-7.08141v-.00282Z" fill="url(#linear-gradient)" fill-rule="evenodd"/>
        <rect x="156.94118" y="86.64118" width="14.11765" height="14.11765" rx=".5" ry=".5" fill="url(#linear-gradient-2)"/>
        <path d="M168.41035,94.13765c-.68329.80047-1.42165,1.71388-2.89835,1.71388-1.31859,0-1.80988-1.08-1.84518-1.95812.28941.56753.85412,1.02776,1.73506,1.00659,1.69553-.05082,2.85741-1.47247,2.85741-2.76847,0-1.54871-1.24376-2.66682-3.40377-2.66682-1.54447,0-3.45882.54635-4.71671,1.40894-.01412.88941.51953,2.04424.71153,1.91718,1.08988-.72847,1.95529-1.19718,2.79388-1.43153-1.24094,1.28612-4.21977,4.272-4.58541,4.79718.04094.48282.68329,1.77741.99812,1.77741.096,0,.17788-.05082.27388-.13976.89788-.93741,1.63059-1.77741,2.28141-2.58776.09176,1.18729.72,2.63859,2.47623,2.63859,1.57271,0,3.13129-1.05459,3.84141-3.42918.08188-.29223-.30071-.52094-.51953-.27953v.00141ZM166.61882,92.22047c0,.74965-.79341,1.11812-1.51765,1.11812-.38682,0-.68471-.09459-.92047-.21741.43341-.60847.86118-1.23388,1.32141-1.90165.81176.12706,1.11529.54635,1.11529,1.00094h.00141Z" fill="#fff"/>
      </g>
      <g>
        <g mix-blend-mode="multiply" opacity=".8">
          <rect x="391" y="10.4" width="151.8" height="136.4" fill="#8e8278"/>
          <rect x="391" y="10.4" width="151.8" height="136.4" fill="#8e8278" opacity=".9"/>
        </g>
        <g>
          <rect x="390.5" y="9.9" width="151.8" height="136.4" fill="#fff"/>
          <rect x="390.5" y="9.9" width="151.8" height="136.4" fill="#e1ddd8" opacity=".9"/>
        </g>
      </g>
      <g>
        <rect x="400.95007" y="66.1" width="132" height="52.8" fill="#fff"/>
        <rect x="400.95007" y="66.1" width="132" height="52.8" fill="#53b1e0" opacity=".1"/>
        <rect x="400.95007" y="66.1" width="132" height="52.8" fill="none" stroke="#53b1e0" stroke-width=".25"/>
      </g>
      <g>
        <path d="M424.15007,81.7c.38965,0,.70588.31624.70588.70588v1.41176h2.82353v-1.41176c0-.38965.31624-.70588.70588-.70588s.70588.31624.70588.70588v1.41176h2.11765c1.56,0,2.82353,1.26353,2.82353,2.82353v2.11765h1.41176c.38965,0,.70588.31624.70588.70588s-.31624.70588-.70588.70588h-1.41176v2.82353h1.41176c.38965,0,.70588.31624.70588.70588s-.31624.70588-.70588.70588h-1.41176v2.82353h1.41176c.38965,0,.70588.31624.70588.70588s-.31624.70588-.70588.70588h-1.41176v2.11765c0,1.56-1.26353,2.82353-2.82353,2.82353h-2.11765v1.41176c0,.38965-.31624.70588-.70588.70588s-.70588-.31624-.70588-.70588v-1.41176h-2.82353v1.41176c0,.38965-.31624.70588-.70588.70588s-.70588-.31624-.70588-.70588v-1.41176h-2.82353v1.41176c0,.38965-.31624.70588-.70588.70588s-.70588-.31624-.70588-.70588v-1.41176h-2.11765c-1.56,0-2.82353-1.26353-2.82353-2.82353v-2.11765h-1.41176c-.38965,0-.70588-.31624-.70588-.70588s.31624-.70588.70588-.70588h1.41176v-2.82353h-1.41176c-.38965,0-.70588-.31624-.70588-.70588s.31624-.70588.70588-.70588h1.41176v-2.82353h-1.41176c-.38965,0-.70588-.31624-.70588-.70588s.31624-.70588.70588-.70588h1.41176v-2.11765c0-1.56,1.26353-2.82353,2.82353-2.82353h2.11765v-1.41176c0-.38965.31624-.70588.70588-.70588s.70588.31624.70588.70588v1.41176h2.82353v-1.41176c0-.38965.31624-.70588.70588-.70588ZM424.12749,85.22941h-7.03623c-.77929,0-1.41176.63247-1.41176,1.41176v14.11765c0,.77929.63247,1.41176,1.41176,1.41176h14.11765c.77929,0,1.41176-.63247,1.41176-1.41176v-14.11482c0-.77929-.63247-1.41176-1.41176-1.41176h-7.08141v-.00282Z" fill="url(#linear-gradient-3)" fill-rule="evenodd"/>
        <rect x="417.09125" y="86.64118" width="14.11765" height="14.11765" rx=".5" ry=".5" fill="url(#linear-gradient-4)"/>
        <path d="M428.56043,94.13765c-.68329.80047-1.42165,1.71388-2.89835,1.71388-1.31859,0-1.80988-1.08-1.84518-1.95812.28941.56753.85412,1.02776,1.73506,1.00659,1.69553-.05082,2.85741-1.47247,2.85741-2.76847,0-1.54871-1.24376-2.66682-3.40377-2.66682-1.54447,0-3.45882.54635-4.71671,1.40894-.01412.88941.51953,2.04424.71153,1.91718,1.08988-.72847,1.95529-1.19718,2.79388-1.43153-1.24094,1.28612-4.21977,4.272-4.58541,4.79718.04094.48282.68329,1.77741.99812,1.77741.096,0,.17788-.05082.27388-.13976.89788-.93741,1.63059-1.77741,2.28141-2.58776.09176,1.18729.72,2.63859,2.47623,2.63859,1.57271,0,3.13129-1.05459,3.84141-3.42918.08188-.29223-.30071-.52094-.51953-.27953v.00141ZM426.7689,92.22047c0,.74965-.79341,1.11812-1.51765,1.11812-.38682,0-.68471-.09459-.92047-.21741.43341-.60847.86118-1.23388,1.32141-1.90165.81176.12706,1.11529.54635,1.11529,1.00094h.00141Z" fill="#fff"/>
      </g>
      <g>
        <polyline points="558.8 127.09999 558.8 133.09999 552.8 133.09999" fill="none" stroke="#65cab9" stroke-width=".5"/>
        <line x1="548.75488" y1="133.09999" x2="16.82257" y2="133.09999" fill="none" stroke="#65cab9" stroke-dasharray="12.13534 4.04511" stroke-width=".5"/>
        <polyline points="14.79999 133.09999 8.79999 133.09999 8.79999 127.09999" fill="none" stroke="#65cab9" stroke-width=".5"/>
        <line x1="8.79999" y1="122.88823" x2="8.79999" y2="57.60588" fill="none" stroke="#65cab9" stroke-dasharray="12.63529 4.21176" stroke-width=".5"/>
        <polyline points="8.79999 55.49999 8.79999 49.49999 14.79999 49.49999" fill="none" stroke="#65cab9" stroke-width=".5"/>
        <line x1="18.84512" y1="49.49999" x2="550.77745" y2="49.49999" fill="none" stroke="#65cab9" stroke-dasharray="12.13534 4.04511" stroke-width=".5"/>
        <polyline points="552.8 49.49999 558.8 49.49999 558.8 55.49999" fill="none" stroke="#65cab9" stroke-width=".5"/>
        <line x1="558.8" y1="59.71178" x2="558.8" y2="124.99411" fill="none" stroke="#65cab9" stroke-dasharray="12.63529 4.21176" stroke-width=".5"/>
      </g>
      <path d="M168.3,187.3h5.4v5.4h-5.4v-5.4ZM162,180.1h5.4v-5.4h-4.64625c-.41628,0-.75375.33747-.75375.75375v4.64625ZM162.75375,192.7h4.64625v-5.4h-5.4v4.64625c0,.41629.33747.75375.75375.75375h0ZM162,186.4h5.4v-5.4h-5.4v5.4ZM174.6,192.7h4.64625c.41629,0,.75375-.33746.75375-.75375h0v-4.64625h-5.4v5.4ZM168.3,186.4h5.4v-5.4h-5.4v5.4ZM174.6,186.4h5.4v-5.4h-5.4v5.4ZM174.6,174.7v5.4h5.4v-4.64625c0-.41628-.33746-.75375-.75375-.75375h-4.64625ZM168.3,180.1h5.4v-5.4h-5.4v5.4Z" fill="url(#linear-gradient-5)"/>
      <g>
        <rect x="409.2" y="166.1" width="132.55007" height="35.2" fill="#fff"/>
        <rect x="409.2" y="166.1" width="132.55007" height="35.2" fill="#53b1e0" opacity=".05"/>
        <rect x="409.2" y="166.1" width="132.55007" height="35.2" fill="none" stroke="#53b1e0" stroke-width=".25"/>
      </g>
      <path d="M433.1,187.3h5.4v5.4h-5.4v-5.4ZM426.8,180.1h5.4v-5.4h-4.64625c-.41628,0-.75375.33747-.75375.75375v4.64625ZM427.55375,192.7h4.64625v-5.4h-5.4v4.64625c0,.41629.33747.75375.75375.75375h0ZM426.8,186.4h5.4v-5.4h-5.4v5.4ZM439.4,192.7h4.64625c.41629,0,.75375-.33746.75375-.75375h0v-4.64625h-5.4v5.4ZM433.1,186.4h5.4v-5.4h-5.4v5.4ZM439.4,186.4h5.4v-5.4h-5.4v5.4ZM439.4,174.7v5.4h5.4v-4.64625c0-.41628-.33746-.75375-.75375-.75375h-4.64625ZM433.1,180.1h5.4v-5.4h-5.4v5.4Z" fill="url(#linear-gradient-6)"/>
      <g>
        <line x1="475.2" y1="166.1" x2="475.2" y2="124.28218" fill="none" stroke="#3c3c41" stroke-miterlimit="10"/>
        <polygon points="478.93975 125.37642 475.2 118.90001 471.46025 125.37642 478.93975 125.37642" fill="#3c3c41"/>
      </g>
      <use width="22" height="22" transform="translate(198 57.2002) scale(.81818)" xlink:href="#Failed"/>
      <g>
        <path d="M281.6,184.8002h85c1.65,0,4.07005-.82312,5.37787-1.82913l52.44426-40.34174c1.30783-1.00603,2.37787-3.17914,2.37787-4.82913v-13.61783" fill="none" stroke="#3c3c41" stroke-miterlimit="10"/>
        <polygon points="430.53975 125.27661 426.8 118.8002 423.06025 125.27661 430.53975 125.27661" fill="#3c3c41"/>
      </g>
    </g>
    <g id="Text">
      <g>
        <rect x="183.5121" y="79.3" width="78.99053" height="30.8" fill="none"/>
        <path d="M193.18008,89.50117h-.97852v-5.63672c0-.44531.02734-.99023.08203-1.63477h-.02344c-.09375.37891-.17773.65039-.25195.81445l-2.87109,6.45703h-.48047l-2.86523-6.41016c-.08203-.1875-.16602-.47461-.25195-.86133h-.02344c.03125.33594.04688.88477.04688,1.64648v5.625h-.94922v-8.40234h1.30078l2.57812,5.85938c.19922.44922.32812.78516.38672,1.00781h.03516c.16797-.46094.30273-.80469.4043-1.03125l2.63086-5.83594h1.23047v8.40234Z" fill="#2f2f2f"/>
        <path d="M199.46035,89.50117h-.96094v-.9375h-.02344c-.41797.71875-1.0332,1.07812-1.8457,1.07812-.59766,0-1.06543-.1582-1.40332-.47461s-.50684-.73633-.50684-1.25977c0-1.12109.66016-1.77344,1.98047-1.95703l1.79883-.25195c0-1.01953-.41211-1.5293-1.23633-1.5293-.72266,0-1.375.24609-1.95703.73828v-.98438c.58984-.375,1.26953-.5625,2.03906-.5625,1.41016,0,2.11523.74609,2.11523,2.23828v3.90234ZM198.49941,86.46602l-1.44727.19922c-.44531.0625-.78125.17285-1.00781.33105s-.33984.43848-.33984.84082c0,.29297.10449.53223.31348.71777s.4873.27832.83496.27832c.47656,0,.87012-.16699,1.18066-.50098s.46582-.75684.46582-1.26855v-.59766Z" fill="#2f2f2f"/>
        <path d="M206.18398,89.50117h-.96094v-3.42188c0-1.27344-.46484-1.91016-1.39453-1.91016-.48047,0-.87793.18066-1.19238.54199s-.47168.81738-.47168,1.36816v3.42188h-.96094v-6h.96094v.99609h.02344c.45312-.75781,1.10938-1.13672,1.96875-1.13672.65625,0,1.1582.21191,1.50586.63574s.52148,1.03613.52148,1.83691v3.66797Z" fill="#2f2f2f"/>
        <path d="M212.22256,89.50117h-.96094v-.9375h-.02344c-.41797.71875-1.0332,1.07812-1.8457,1.07812-.59766,0-1.06543-.1582-1.40332-.47461s-.50684-.73633-.50684-1.25977c0-1.12109.66016-1.77344,1.98047-1.95703l1.79883-.25195c0-1.01953-.41211-1.5293-1.23633-1.5293-.72266,0-1.375.24609-1.95703.73828v-.98438c.58984-.375,1.26953-.5625,2.03906-.5625,1.41016,0,2.11523.74609,2.11523,2.23828v3.90234ZM211.26162,86.46602l-1.44727.19922c-.44531.0625-.78125.17285-1.00781.33105s-.33984.43848-.33984.84082c0,.29297.10449.53223.31348.71777s.4873.27832.83496.27832c.47656,0,.87012-.16699,1.18066-.50098s.46582-.75684.46582-1.26855v-.59766Z" fill="#2f2f2f"/>
        <path d="M219.14785,89.0207c0,2.20312-1.05469,3.30469-3.16406,3.30469-.74219,0-1.39062-.14062-1.94531-.42188v-.96094c.67578.375,1.32031.5625,1.93359.5625,1.47656,0,2.21484-.78516,2.21484-2.35547v-.65625h-.02344c-.45703.76562-1.14453,1.14844-2.0625,1.14844-.74609,0-1.34668-.2666-1.80176-.7998s-.68262-1.24902-.68262-2.14746c0-1.01953.24512-1.83008.73535-2.43164s1.16113-.90234,2.0127-.90234c.80859,0,1.4082.32422,1.79883.97266h.02344v-.83203h.96094v5.51953ZM218.18691,86.78828v-.88477c0-.47656-.16113-.88477-.4834-1.22461s-.72363-.50977-1.2041-.50977c-.59375,0-1.05859.21582-1.39453.64746s-.50391,1.03613-.50391,1.81348c0,.66797.16113,1.20215.4834,1.60254s.74902.60059,1.28027.60059c.53906,0,.97754-.19141,1.31543-.57422s.50684-.87305.50684-1.4707Z" fill="#2f2f2f"/>
        <path d="M225.86172,86.74141h-4.23633c.01562.66797.19531,1.18359.53906,1.54688s.81641.54492,1.41797.54492c.67578,0,1.29688-.22266,1.86328-.66797v.90234c-.52734.38281-1.22461.57422-2.0918.57422-.84766,0-1.51367-.27246-1.99805-.81738s-.72656-1.31152-.72656-2.2998c0-.93359.26465-1.69434.79395-2.28223s1.18652-.88184,1.97168-.88184,1.39258.25391,1.82227.76172.64453,1.21289.64453,2.11523v.50391ZM224.87734,85.92695c-.00391-.55469-.1377-.98633-.40137-1.29492s-.62988-.46289-1.09863-.46289c-.45312,0-.83789.16211-1.1543.48633s-.51172.74805-.58594,1.27148h3.24023Z" fill="#2f2f2f"/>
        <path d="M232.49844,89.50117h-.96094v-1.01953h-.02344c-.44531.77344-1.13281,1.16016-2.0625,1.16016-.75391,0-1.35645-.26855-1.80762-.80566s-.67676-1.26855-.67676-2.19434c0-.99219.25-1.78711.75-2.38477s1.16602-.89648,1.99805-.89648c.82422,0,1.42383.32422,1.79883.97266h.02344v-3.71484h.96094v8.88281ZM231.5375,86.78828v-.88477c0-.48438-.16016-.89453-.48047-1.23047s-.72656-.50391-1.21875-.50391c-.58594,0-1.04688.21484-1.38281.64453s-.50391,1.02344-.50391,1.78125c0,.69141.16113,1.2373.4834,1.6377s.75488.60059,1.29785.60059c.53516,0,.96973-.19336,1.30371-.58008s.50098-.875.50098-1.46484Z" fill="#2f2f2f"/>
        <path d="M190.63711,103.90107h-1.17188l-1.40625-2.35547c-.12891-.21875-.25391-.40527-.375-.55957s-.24512-.28027-.37207-.37793-.26367-.16895-.41016-.21387-.31152-.06738-.49512-.06738h-.80859v3.57422h-.98438v-8.40234h2.50781c.36719,0,.70605.0459,1.0166.1377s.58008.23145.80859.41895.40723.4209.53613.7002.19336.60645.19336.98145c0,.29297-.04395.56152-.13184.80566s-.21289.46191-.375.65332-.35742.35449-.58594.48926-.48535.23926-.77051.31348v.02344c.14062.0625.2627.13379.36621.21387s.20215.1748.2959.28418.18652.2334.27832.37207.19434.2998.30762.4834l1.57617,2.52539ZM185.59805,96.38936v3.04688h1.33594c.24609,0,.47363-.03711.68262-.11133s.38965-.18066.54199-.31934.27148-.30859.35742-.50977.12891-.42676.12891-.67676c0-.44922-.14551-.7998-.43652-1.05176s-.71191-.37793-1.2627-.37793h-1.34766Z" fill="#2f2f2f"/>
        <path d="M196.31436,101.14131h-4.23633c.01562.66797.19531,1.18359.53906,1.54688s.81641.54492,1.41797.54492c.67578,0,1.29688-.22266,1.86328-.66797v.90234c-.52734.38281-1.22461.57422-2.0918.57422-.84766,0-1.51367-.27246-1.99805-.81738s-.72656-1.31152-.72656-2.2998c0-.93359.26465-1.69434.79395-2.28223s1.18652-.88184,1.97168-.88184,1.39258.25391,1.82227.76172.64453,1.21289.64453,2.11523v.50391ZM195.32998,100.32686c-.00391-.55469-.1377-.98633-.40137-1.29492s-.62988-.46289-1.09863-.46289c-.45312,0-.83789.16211-1.1543.48633s-.51172.74805-.58594,1.27148h3.24023Z" fill="#2f2f2f"/>
        <path d="M202.95107,103.90107h-.96094v-1.01953h-.02344c-.44531.77344-1.13281,1.16016-2.0625,1.16016-.75391,0-1.35645-.26855-1.80762-.80566s-.67676-1.26855-.67676-2.19434c0-.99219.25-1.78711.75-2.38477s1.16602-.89648,1.99805-.89648c.82422,0,1.42383.32422,1.79883.97266h.02344v-3.71484h.96094v8.88281ZM201.99014,101.18818v-.88477c0-.48438-.16016-.89453-.48047-1.23047s-.72656-.50391-1.21875-.50391c-.58594,0-1.04688.21484-1.38281.64453s-.50391,1.02344-.50391,1.78125c0,.69141.16113,1.2373.4834,1.6377s.75488.60059,1.29785.60059c.53516,0,.96973-.19336,1.30371-.58008s.50098-.875.50098-1.46484Z" fill="#2f2f2f"/>
        <path d="M205.26504,96.37764c-.17188,0-.31836-.05859-.43945-.17578s-.18164-.26562-.18164-.44531.06055-.3291.18164-.44824.26758-.17871.43945-.17871c.17578,0,.3252.05957.44824.17871s.18457.26855.18457.44824c0,.17188-.06152.31836-.18457.43945s-.27246.18164-.44824.18164ZM205.73379,103.90107h-.96094v-6h.96094v6Z" fill="#2f2f2f"/>
        <path d="M207.21475,103.68428v-1.03125c.52344.38672,1.09961.58008,1.72852.58008.84375,0,1.26562-.28125,1.26562-.84375,0-.16016-.03613-.2959-.1084-.40723s-.16992-.20996-.29297-.2959-.26758-.16309-.43359-.23145-.34473-.13965-.53613-.21387c-.26562-.10547-.49902-.21191-.7002-.31934s-.36914-.22852-.50391-.36328-.23633-.28809-.30469-.45996-.10254-.37305-.10254-.60352c0-.28125.06445-.53027.19336-.74707s.30078-.39844.51562-.54492.45996-.25684.73535-.33105.55957-.11133.85254-.11133c.51953,0,.98438.08984,1.39453.26953v.97266c-.44141-.28906-.94922-.43359-1.52344-.43359-.17969,0-.3418.02051-.48633.06152s-.26855.09863-.37207.17285-.18359.16309-.24023.2666-.08496.21777-.08496.34277c0,.15625.02832.28711.08496.39258s.13965.19922.24902.28125.24219.15625.39844.22266.33398.13867.5332.2168c.26562.10156.50391.20605.71484.31348s.39062.22852.53906.36328.2627.29004.34277.46582.12012.38477.12012.62695c0,.29688-.06543.55469-.19629.77344s-.30566.40039-.52441.54492-.4707.25195-.75586.32227-.58398.10547-.89648.10547c-.61719,0-1.15234-.11914-1.60547-.35742Z" fill="#2f2f2f"/>
        <path d="M216.44912,96.37764c-.17188,0-.31836-.05859-.43945-.17578s-.18164-.26562-.18164-.44531.06055-.3291.18164-.44824.26758-.17871.43945-.17871c.17578,0,.3252.05957.44824.17871s.18457.26855.18457.44824c0,.17188-.06152.31836-.18457.43945s-.27246.18164-.44824.18164ZM216.91787,103.90107h-.96094v-6h.96094v6Z" fill="#2f2f2f"/>
        <path d="M223.725,103.90107h-.96094v-3.42188c0-1.27344-.46484-1.91016-1.39453-1.91016-.48047,0-.87793.18066-1.19238.54199s-.47168.81738-.47168,1.36816v3.42188h-.96094v-6h.96094v.99609h.02344c.45312-.75781,1.10938-1.13672,1.96875-1.13672.65625,0,1.1582.21191,1.50586.63574s.52148,1.03613.52148,1.83691v3.66797Z" fill="#2f2f2f"/>
        <path d="M225.14688,103.68428v-1.03125c.52344.38672,1.09961.58008,1.72852.58008.84375,0,1.26562-.28125,1.26562-.84375,0-.16016-.03613-.2959-.1084-.40723s-.16992-.20996-.29297-.2959-.26758-.16309-.43359-.23145-.34473-.13965-.53613-.21387c-.26562-.10547-.49902-.21191-.7002-.31934s-.36914-.22852-.50391-.36328-.23633-.28809-.30469-.45996-.10254-.37305-.10254-.60352c0-.28125.06445-.53027.19336-.74707s.30078-.39844.51562-.54492.45996-.25684.73535-.33105.55957-.11133.85254-.11133c.51953,0,.98438.08984,1.39453.26953v.97266c-.44141-.28906-.94922-.43359-1.52344-.43359-.17969,0-.3418.02051-.48633.06152s-.26855.09863-.37207.17285-.18359.16309-.24023.2666-.08496.21777-.08496.34277c0,.15625.02832.28711.08496.39258s.13965.19922.24902.28125.24219.15625.39844.22266.33398.13867.5332.2168c.26562.10156.50391.20605.71484.31348s.39062.22852.53906.36328.2627.29004.34277.46582.12012.38477.12012.62695c0,.29688-.06543.55469-.19629.77344s-.30566.40039-.52441.54492-.4707.25195-.75586.32227-.58398.10547-.89648.10547c-.61719,0-1.15234-.11914-1.60547-.35742Z" fill="#2f2f2f"/>
        <path d="M233.43105,103.84248c-.22656.125-.52539.1875-.89648.1875-1.05078,0-1.57617-.58594-1.57617-1.75781v-3.55078h-1.03125v-.82031h1.03125v-1.46484l.96094-.31055v1.77539h1.51172v.82031h-1.51172v3.38086c0,.40234.06836.68945.20508.86133s.36328.25781.67969.25781c.24219,0,.45117-.06641.62695-.19922v.82031Z" fill="#2f2f2f"/>
        <path d="M239.11123,103.90107h-.96094v-.9375h-.02344c-.41797.71875-1.0332,1.07812-1.8457,1.07812-.59766,0-1.06543-.1582-1.40332-.47461s-.50684-.73633-.50684-1.25977c0-1.12109.66016-1.77344,1.98047-1.95703l1.79883-.25195c0-1.01953-.41211-1.5293-1.23633-1.5293-.72266,0-1.375.24609-1.95703.73828v-.98438c.58984-.375,1.26953-.5625,2.03906-.5625,1.41016,0,2.11523.74609,2.11523,2.23828v3.90234ZM238.15029,100.86592l-1.44727.19922c-.44531.0625-.78125.17285-1.00781.33105s-.33984.43848-.33984.84082c0,.29297.10449.53223.31348.71777s.4873.27832.83496.27832c.47656,0,.87012-.16699,1.18066-.50098s.46582-.75684.46582-1.26855v-.59766Z" fill="#2f2f2f"/>
        <path d="M245.83486,103.90107h-.96094v-3.42188c0-1.27344-.46484-1.91016-1.39453-1.91016-.48047,0-.87793.18066-1.19238.54199s-.47168.81738-.47168,1.36816v3.42188h-.96094v-6h.96094v.99609h.02344c.45312-.75781,1.10938-1.13672,1.96875-1.13672.65625,0,1.1582.21191,1.50586.63574s.52148,1.03613.52148,1.83691v3.66797Z" fill="#2f2f2f"/>
        <path d="M251.71475,103.62568c-.46094.27734-1.00781.41602-1.64062.41602-.85547,0-1.5459-.27832-2.07129-.83496s-.78809-1.27832-.78809-2.16504c0-.98828.2832-1.78223.84961-2.38184s1.32227-.89941,2.26758-.89941c.52734,0,.99219.09766,1.39453.29297v.98438c-.44531-.3125-.92188-.46875-1.42969-.46875-.61328,0-1.11621.21973-1.50879.65918s-.58887,1.0166-.58887,1.73145c0,.70312.18457,1.25781.55371,1.66406s.86426.60938,1.48535.60938c.52344,0,1.01562-.17383,1.47656-.52148v.91406Z" fill="#2f2f2f"/>
        <path d="M257.87002,101.14131h-4.23633c.01562.66797.19531,1.18359.53906,1.54688s.81641.54492,1.41797.54492c.67578,0,1.29688-.22266,1.86328-.66797v.90234c-.52734.38281-1.22461.57422-2.0918.57422-.84766,0-1.51367-.27246-1.99805-.81738s-.72656-1.31152-.72656-2.2998c0-.93359.26465-1.69434.79395-2.28223s1.18652-.88184,1.97168-.88184,1.39258.25391,1.82227.76172.64453,1.21289.64453,2.11523v.50391ZM256.88564,100.32686c-.00391-.55469-.1377-.98633-.40137-1.29492s-.62988-.46289-1.09863-.46289c-.45312,0-.83789.16211-1.1543.48633s-.51172.74805-.58594,1.27148h3.24023Z" fill="#2f2f2f"/>
      </g>
      <g>
        <path d="M195.65859,187.03633h-1.08984l-.89062-2.35547h-3.5625l-.83789,2.35547h-1.0957l3.22266-8.40234h1.01953l3.23438,8.40234ZM193.35586,183.79609l-1.31836-3.58008c-.04297-.11719-.08594-.30469-.12891-.5625h-.02344c-.03906.23828-.08398.42578-.13477.5625l-1.30664,3.58008h2.91211Z" fill="#2f2f2f"/>
        <path d="M197.74355,186.16914h-.02344v3.62695h-.96094v-8.75977h.96094v1.05469h.02344c.47266-.79688,1.16406-1.19531,2.07422-1.19531.77344,0,1.37695.26855,1.81055.80566s.65039,1.25684.65039,2.15918c0,1.00391-.24414,1.80762-.73242,2.41113s-1.15625.90527-2.00391.90527c-.77734,0-1.37695-.33594-1.79883-1.00781ZM197.72012,183.74922v.83789c0,.49609.16113.91699.4834,1.2627s.73145.51855,1.22754.51855c.58203,0,1.03809-.22266,1.36816-.66797s.49512-1.06445.49512-1.85742c0-.66797-.1543-1.19141-.46289-1.57031s-.72656-.56836-1.25391-.56836c-.55859,0-1.00781.19434-1.34766.58301s-.50977.87598-.50977,1.46191Z" fill="#2f2f2f"/>
        <path d="M204.74453,186.16914h-.02344v3.62695h-.96094v-8.75977h.96094v1.05469h.02344c.47266-.79688,1.16406-1.19531,2.07422-1.19531.77344,0,1.37695.26855,1.81055.80566s.65039,1.25684.65039,2.15918c0,1.00391-.24414,1.80762-.73242,2.41113s-1.15625.90527-2.00391.90527c-.77734,0-1.37695-.33594-1.79883-1.00781ZM204.72109,183.74922v.83789c0,.49609.16113.91699.4834,1.2627s.73145.51855,1.22754.51855c.58203,0,1.03809-.22266,1.36816-.66797s.49512-1.06445.49512-1.85742c0-.66797-.1543-1.19141-.46289-1.57031s-.72656-.56836-1.25391-.56836c-.55859,0-1.00781.19434-1.34766.58301s-.50977.87598-.50977,1.46191Z" fill="#2f2f2f"/>
        <path d="M211.73184,187.03633h-.96094v-8.88281h.96094v8.88281Z" fill="#2f2f2f"/>
        <path d="M214.04531,179.51289c-.17188,0-.31836-.05859-.43945-.17578s-.18164-.26562-.18164-.44531.06055-.3291.18164-.44824.26758-.17871.43945-.17871c.17578,0,.3252.05957.44824.17871s.18457.26855.18457.44824c0,.17188-.06152.31836-.18457.43945s-.27246.18164-.44824.18164ZM214.51406,187.03633h-.96094v-6h.96094v6Z" fill="#2f2f2f"/>
        <path d="M220.44766,186.76094c-.46094.27734-1.00781.41602-1.64062.41602-.85547,0-1.5459-.27832-2.07129-.83496s-.78809-1.27832-.78809-2.16504c0-.98828.2832-1.78223.84961-2.38184s1.32227-.89941,2.26758-.89941c.52734,0,.99219.09766,1.39453.29297v.98438c-.44531-.3125-.92188-.46875-1.42969-.46875-.61328,0-1.11621.21973-1.50879.65918s-.58887,1.0166-.58887,1.73145c0,.70312.18457,1.25781.55371,1.66406s.86426.60938,1.48535.60938c.52344,0,1.01562-.17383,1.47656-.52148v.91406Z" fill="#2f2f2f"/>
        <path d="M226.2377,187.03633h-.96094v-.9375h-.02344c-.41797.71875-1.0332,1.07812-1.8457,1.07812-.59766,0-1.06543-.1582-1.40332-.47461s-.50684-.73633-.50684-1.25977c0-1.12109.66016-1.77344,1.98047-1.95703l1.79883-.25195c0-1.01953-.41211-1.5293-1.23633-1.5293-.72266,0-1.375.24609-1.95703.73828v-.98438c.58984-.375,1.26953-.5625,2.03906-.5625,1.41016,0,2.11523.74609,2.11523,2.23828v3.90234ZM225.27676,184.00117l-1.44727.19922c-.44531.0625-.78125.17285-1.00781.33105s-.33984.43848-.33984.84082c0,.29297.10449.53223.31348.71777s.4873.27832.83496.27832c.47656,0,.87012-.16699,1.18066-.50098s.46582-.75684.46582-1.26855v-.59766Z" fill="#2f2f2f"/>
        <path d="M230.75527,186.97773c-.22656.125-.52539.1875-.89648.1875-1.05078,0-1.57617-.58594-1.57617-1.75781v-3.55078h-1.03125v-.82031h1.03125v-1.46484l.96094-.31055v1.77539h1.51172v.82031h-1.51172v3.38086c0,.40234.06836.68945.20508.86133s.36328.25781.67969.25781c.24219,0,.45117-.06641.62695-.19922v.82031Z" fill="#2f2f2f"/>
        <path d="M232.44082,179.51289c-.17188,0-.31836-.05859-.43945-.17578s-.18164-.26562-.18164-.44531.06055-.3291.18164-.44824.26758-.17871.43945-.17871c.17578,0,.3252.05957.44824.17871s.18457.26855.18457.44824c0,.17188-.06152.31836-.18457.43945s-.27246.18164-.44824.18164ZM232.90957,187.03633h-.96094v-6h.96094v6Z" fill="#2f2f2f"/>
        <path d="M237.28555,187.17695c-.88672,0-1.59473-.28027-2.12402-.84082s-.79395-1.30371-.79395-2.22949c0-1.00781.27539-1.79492.82617-2.36133s1.29492-.84961,2.23242-.84961c.89453,0,1.59277.27539,2.09473.82617s.75293,1.31445.75293,2.29102c0,.95703-.27051,1.72363-.81152,2.2998s-1.2666.86426-2.17676.86426ZM237.35586,181.7043c-.61719,0-1.10547.20996-1.46484.62988s-.53906.99902-.53906,1.7373c0,.71094.18164,1.27148.54492,1.68164s.84961.61523,1.45898.61523c.62109,0,1.09863-.20117,1.43262-.60352s.50098-.97461.50098-1.7168c0-.75-.16699-1.32812-.50098-1.73438s-.81152-.60938-1.43262-.60938Z" fill="#2f2f2f"/>
        <path d="M246.73574,187.03633h-.96094v-3.42188c0-1.27344-.46484-1.91016-1.39453-1.91016-.48047,0-.87793.18066-1.19238.54199s-.47168.81738-.47168,1.36816v3.42188h-.96094v-6h.96094v.99609h.02344c.45312-.75781,1.10938-1.13672,1.96875-1.13672.65625,0,1.1582.21191,1.50586.63574s.52148,1.03613.52148,1.83691v3.66797Z" fill="#2f2f2f"/>
        <path d="M255.10293,187.03633h-.96094v-7.25977c-.07422.07422-.18262.15918-.3252.25488s-.30273.19043-.48047.28418-.36523.18164-.5625.26367-.38965.14648-.57715.19336v-.97266c.21094-.05859.43457-.1377.6709-.2373s.46875-.21094.69727-.33398.44434-.25195.64746-.38672.37891-.2666.52734-.39551h.36328v8.58984Z" fill="#2f2f2f"/>
      </g>
      <g>
        <path d="M460.45889,187.03633h-1.08984l-.89062-2.35547h-3.5625l-.83789,2.35547h-1.0957l3.22266-8.40234h1.01953l3.23438,8.40234ZM458.15615,183.79609l-1.31836-3.58008c-.04297-.11719-.08594-.30469-.12891-.5625h-.02344c-.03906.23828-.08398.42578-.13477.5625l-1.30664,3.58008h2.91211Z" fill="#2f2f2f"/>
        <path d="M462.54336,186.16914h-.02344v3.62695h-.96094v-8.75977h.96094v1.05469h.02344c.47266-.79688,1.16406-1.19531,2.07422-1.19531.77344,0,1.37695.26855,1.81055.80566s.65039,1.25684.65039,2.15918c0,1.00391-.24414,1.80762-.73242,2.41113s-1.15625.90527-2.00391.90527c-.77734,0-1.37695-.33594-1.79883-1.00781ZM462.51992,183.74922v.83789c0,.49609.16113.91699.4834,1.2627s.73145.51855,1.22754.51855c.58203,0,1.03809-.22266,1.36816-.66797s.49512-1.06445.49512-1.85742c0-.66797-.1543-1.19141-.46289-1.57031s-.72656-.56836-1.25391-.56836c-.55859,0-1.00781.19434-1.34766.58301s-.50977.87598-.50977,1.46191Z" fill="#2f2f2f"/>
        <path d="M469.54434,186.16914h-.02344v3.62695h-.96094v-8.75977h.96094v1.05469h.02344c.47266-.79688,1.16406-1.19531,2.07422-1.19531.77344,0,1.37695.26855,1.81055.80566s.65039,1.25684.65039,2.15918c0,1.00391-.24414,1.80762-.73242,2.41113s-1.15625.90527-2.00391.90527c-.77734,0-1.37695-.33594-1.79883-1.00781ZM469.5209,183.74922v.83789c0,.49609.16113.91699.4834,1.2627s.73145.51855,1.22754.51855c.58203,0,1.03809-.22266,1.36816-.66797s.49512-1.06445.49512-1.85742c0-.66797-.1543-1.19141-.46289-1.57031s-.72656-.56836-1.25391-.56836c-.55859,0-1.00781.19434-1.34766.58301s-.50977.87598-.50977,1.46191Z" fill="#2f2f2f"/>
        <path d="M476.53213,187.03633h-.96094v-8.88281h.96094v8.88281Z" fill="#2f2f2f"/>
        <path d="M478.84512,179.51289c-.17188,0-.31836-.05859-.43945-.17578s-.18164-.26562-.18164-.44531.06055-.3291.18164-.44824.26758-.17871.43945-.17871c.17578,0,.3252.05957.44824.17871s.18457.26855.18457.44824c0,.17188-.06152.31836-.18457.43945s-.27246.18164-.44824.18164ZM479.31387,187.03633h-.96094v-6h.96094v6Z" fill="#2f2f2f"/>
        <path d="M485.24795,186.76094c-.46094.27734-1.00781.41602-1.64062.41602-.85547,0-1.5459-.27832-2.07129-.83496s-.78809-1.27832-.78809-2.16504c0-.98828.2832-1.78223.84961-2.38184s1.32227-.89941,2.26758-.89941c.52734,0,.99219.09766,1.39453.29297v.98438c-.44531-.3125-.92188-.46875-1.42969-.46875-.61328,0-1.11621.21973-1.50879.65918s-.58887,1.0166-.58887,1.73145c0,.70312.18457,1.25781.55371,1.66406s.86426.60938,1.48535.60938c.52344,0,1.01562-.17383,1.47656-.52148v.91406Z" fill="#2f2f2f"/>
        <path d="M491.03799,187.03633h-.96094v-.9375h-.02344c-.41797.71875-1.0332,1.07812-1.8457,1.07812-.59766,0-1.06543-.1582-1.40332-.47461s-.50684-.73633-.50684-1.25977c0-1.12109.66016-1.77344,1.98047-1.95703l1.79883-.25195c0-1.01953-.41211-1.5293-1.23633-1.5293-.72266,0-1.375.24609-1.95703.73828v-.98438c.58984-.375,1.26953-.5625,2.03906-.5625,1.41016,0,2.11523.74609,2.11523,2.23828v3.90234ZM490.07705,184.00117l-1.44727.19922c-.44531.0625-.78125.17285-1.00781.33105s-.33984.43848-.33984.84082c0,.29297.10449.53223.31348.71777s.4873.27832.83496.27832c.47656,0,.87012-.16699,1.18066-.50098s.46582-.75684.46582-1.26855v-.59766Z" fill="#2f2f2f"/>
        <path d="M495.55508,186.97773c-.22656.125-.52539.1875-.89648.1875-1.05078,0-1.57617-.58594-1.57617-1.75781v-3.55078h-1.03125v-.82031h1.03125v-1.46484l.96094-.31055v1.77539h1.51172v.82031h-1.51172v3.38086c0,.40234.06836.68945.20508.86133s.36328.25781.67969.25781c.24219,0,.45117-.06641.62695-.19922v.82031Z" fill="#2f2f2f"/>
        <path d="M497.24063,179.51289c-.17188,0-.31836-.05859-.43945-.17578s-.18164-.26562-.18164-.44531.06055-.3291.18164-.44824.26758-.17871.43945-.17871c.17578,0,.3252.05957.44824.17871s.18457.26855.18457.44824c0,.17188-.06152.31836-.18457.43945s-.27246.18164-.44824.18164ZM497.70938,187.03633h-.96094v-6h.96094v6Z" fill="#2f2f2f"/>
        <path d="M502.08535,187.17695c-.88672,0-1.59473-.28027-2.12402-.84082s-.79395-1.30371-.79395-2.22949c0-1.00781.27539-1.79492.82617-2.36133s1.29492-.84961,2.23242-.84961c.89453,0,1.59277.27539,2.09473.82617s.75293,1.31445.75293,2.29102c0,.95703-.27051,1.72363-.81152,2.2998s-1.2666.86426-2.17676.86426ZM502.15566,181.7043c-.61719,0-1.10547.20996-1.46484.62988s-.53906.99902-.53906,1.7373c0,.71094.18164,1.27148.54492,1.68164s.84961.61523,1.45898.61523c.62109,0,1.09863-.20117,1.43262-.60352s.50098-.97461.50098-1.7168c0-.75-.16699-1.32812-.50098-1.73438s-.81152-.60938-1.43262-.60938Z" fill="#2f2f2f"/>
        <path d="M511.53555,187.03633h-.96094v-3.42188c0-1.27344-.46484-1.91016-1.39453-1.91016-.48047,0-.87793.18066-1.19238.54199s-.47168.81738-.47168,1.36816v3.42188h-.96094v-6h.96094v.99609h.02344c.45312-.75781,1.10938-1.13672,1.96875-1.13672.65625,0,1.1582.21191,1.50586.63574s.52148,1.03613.52148,1.83691v3.66797Z" fill="#2f2f2f"/>
        <path d="M520.18398,180.83711c0-.25781-.04004-.48242-.12012-.67383s-.18945-.35059-.32812-.47754-.30176-.22168-.48926-.28418-.39062-.09375-.60938-.09375c-.1875,0-.37109.02539-.55078.07617s-.35449.12109-.52441.21094-.33398.19727-.49219.32227-.30566.26367-.44238.41602v-1.03125c.26953-.26172.57129-.46191.90527-.60059s.74121-.20801,1.22168-.20801c.34375,0,.66211.0498.95508.14941s.54688.24512.76172.43652.38379.42773.50684.70898.18457.60352.18457.9668c0,.33203-.03809.63281-.11426.90234s-.19141.52344-.3457.76172-.34863.4668-.58301.68555-.50977.44141-.82617.66797c-.39453.28125-.71973.52148-.97559.7207s-.45898.38574-.60938.55957-.25586.34766-.31641.52148-.09082.37402-.09082.60059h4.18359v.86133h-5.18555v-.41602c0-.35938.03906-.67578.11719-.94922s.20703-.5332.38672-.7793.41504-.49219.70605-.73828.64746-.52344,1.06934-.83203c.30469-.21875.55957-.42773.76465-.62695s.37012-.39844.49512-.59766.21387-.40137.2666-.60645.0791-.42285.0791-.65332Z" fill="#2f2f2f"/>
      </g>
      <g>
        <rect x="8.8" y="71.5" width="123.2" height="44" fill="none"/>
        <path d="M61.18936,81.70137h-2.0625l-.59766-1.86914h-2.98828l-.5918,1.86914h-2.05078l3.05859-8.40234h2.24414l2.98828,8.40234ZM58.09561,78.3791l-.90234-2.82422c-.06641-.21094-.11328-.46289-.14062-.75586h-.04688c-.01953.24609-.06836.49023-.14648.73242l-.91406,2.84766h2.15039Z" fill="#2f2f2f"/>
        <path d="M66.45693,81.48457c-.41797.24219-1.02148.36328-1.81055.36328-.92188,0-1.66797-.2793-2.23828-.83789s-.85547-1.2793-.85547-2.16211c0-1.01953.30566-1.82324.91699-2.41113s1.42871-.88184,2.45215-.88184c.70703,0,1.21875.09375,1.53516.28125v1.57031c-.38672-.28906-.81836-.43359-1.29492-.43359-.53125,0-.95215.15527-1.2627.46582s-.46582.73926-.46582,1.28613c0,.53125.14844.94824.44531,1.25098s.70508.4541,1.22461.4541c.46094,0,.91211-.14453,1.35352-.43359v1.48828Z" fill="#2f2f2f"/>
        <path d="M71.37832,81.63105c-.27344.14453-.68555.2168-1.23633.2168-1.30469,0-1.95703-.67773-1.95703-2.0332v-2.74805h-.97266v-1.36523h.97266v-1.29492l1.8457-.52734v1.82227h1.34766v1.36523h-1.34766v2.42578c0,.625.24805.9375.74414.9375.19531,0,.39648-.05664.60352-.16992v1.37109Z" fill="#2f2f2f"/>
        <path d="M73.42617,74.75215c-.3125,0-.56836-.09277-.76758-.27832s-.29883-.41309-.29883-.68262c0-.27734.09961-.50391.29883-.67969s.45508-.26367.76758-.26367c.31641,0,.57324.08789.77051.26367s.2959.40234.2959.67969c0,.28125-.09863.51172-.2959.69141s-.4541.26953-.77051.26953ZM74.34023,81.70137h-1.85156v-6h1.85156v6Z" fill="#2f2f2f"/>
        <path d="M81.63809,75.70137l-2.23242,6h-2.10938l-2.12695-6h1.98047l1.04297,3.69727c.11719.41797.18555.77344.20508,1.06641h.02344c.02734-.27734.09961-.62109.2168-1.03125l1.06641-3.73242h1.93359Z" fill="#2f2f2f"/>
        <path d="M87.63711,79.22871h-3.91406c.0625.87109.61133,1.30664,1.64648,1.30664.66016,0,1.24023-.15625,1.74023-.46875v1.33594c-.55469.29688-1.27539.44531-2.16211.44531-.96875,0-1.7207-.26855-2.25586-.80566s-.80273-1.28613-.80273-2.24707c0-.99609.28906-1.78516.86719-2.36719s1.28906-.87305,2.13281-.87305c.875,0,1.55176.25977,2.03027.7793s.71777,1.22461.71777,2.11523v.7793ZM85.92031,78.09199c0-.85938-.34766-1.28906-1.04297-1.28906-.29688,0-.55371.12305-.77051.36914s-.34863.55273-.39551.91992h2.20898Z" fill="#2f2f2f"/>
        <path d="M33.72061,95.41572c0,1.11328-.32227,1.97559-.9668,2.58691s-1.57812.91699-2.80078.91699c-.80859,0-1.44922-.11523-1.92188-.3457v-1.55859c.61719.35938,1.24023.53906,1.86914.53906.625,0,1.10938-.16504,1.45312-.49512s.51562-.77832.51562-1.34473v-.47461h-.02344c-.42188.67188-1.04492,1.00781-1.86914,1.00781-.76562,0-1.37305-.26953-1.82227-.80859s-.67383-1.26172-.67383-2.16797c0-1.01562.25-1.82227.75-2.41992s1.1582-.89648,1.97461-.89648c.73047,0,1.27734.28125,1.64062.84375h.02344v-.69727h1.85156v5.31445ZM31.89248,93.21846v-.47461c0-.37891-.1123-.70215-.33691-.96973s-.5166-.40137-.87598-.40137c-.41016,0-.73242.16016-.9668.48047s-.35156.77148-.35156,1.35352c0,.5.11133.89551.33398,1.18652s.52734.43652.91406.43652c.38281,0,.69238-.14746.92871-.44238s.35449-.68457.35449-1.16895Z" fill="#2f2f2f"/>
        <path d="M40.66885,93.62861h-3.91406c.0625.87109.61133,1.30664,1.64648,1.30664.66016,0,1.24023-.15625,1.74023-.46875v1.33594c-.55469.29688-1.27539.44531-2.16211.44531-.96875,0-1.7207-.26855-2.25586-.80566s-.80273-1.28613-.80273-2.24707c0-.99609.28906-1.78516.86719-2.36719s1.28906-.87305,2.13281-.87305c.875,0,1.55176.25977,2.03027.7793s.71777,1.22461.71777,2.11523v.7793ZM38.95205,92.49189c0-.85938-.34766-1.28906-1.04297-1.28906-.29688,0-.55371.12305-.77051.36914s-.34863.55273-.39551.91992h2.20898Z" fill="#2f2f2f"/>
        <path d="M44.70791,96.24775c-1,0-1.78613-.28027-2.3584-.84082s-.8584-1.32129-.8584-2.28223c0-.99219.29688-1.76855.89062-2.3291s1.39648-.84082,2.4082-.84082c.99609,0,1.77734.28027,2.34375.84082s.84961,1.30176.84961,2.22363c0,.99609-.29199,1.7832-.87598,2.36133s-1.38379.86719-2.39941.86719ZM44.75479,91.37275c-.4375,0-.77734.15039-1.01953.45117s-.36328.72656-.36328,1.27734c0,1.15234.46484,1.72852,1.39453,1.72852.88672,0,1.33008-.5918,1.33008-1.77539,0-1.12109-.44727-1.68164-1.3418-1.68164Z" fill="#2f2f2f"/>
        <path d="M52.46133,93.54658h-3.20508v-1.29492h3.20508v1.29492Z" fill="#2f2f2f"/>
        <path d="M57.85049,91.77119c-.22266-.12109-.48242-.18164-.7793-.18164-.40234,0-.7168.14746-.94336.44238s-.33984.69629-.33984,1.2041v2.86523h-1.85156v-6h1.85156v1.11328h.02344c.29297-.8125.82031-1.21875,1.58203-1.21875.19531,0,.34766.02344.45703.07031v1.70508Z" fill="#2f2f2f"/>
        <path d="M64.17813,93.62861h-3.91406c.0625.87109.61133,1.30664,1.64648,1.30664.66016,0,1.24023-.15625,1.74023-.46875v1.33594c-.55469.29688-1.27539.44531-2.16211.44531-.96875,0-1.7207-.26855-2.25586-.80566s-.80273-1.28613-.80273-2.24707c0-.99609.28906-1.78516.86719-2.36719s1.28906-.87305,2.13281-.87305c.875,0,1.55176.25977,2.03027.7793s.71777,1.22461.71777,2.11523v.7793ZM62.46133,92.49189c0-.85938-.34766-1.28906-1.04297-1.28906-.29688,0-.55371.12305-.77051.36914s-.34863.55273-.39551.91992h2.20898Z" fill="#2f2f2f"/>
        <path d="M67.23037,95.404h-.02344v3.45703h-1.85156v-8.75977h1.85156v.90234h.02344c.45703-.69922,1.09961-1.04883,1.92773-1.04883.77734,0,1.37793.2666,1.80176.7998s.63574,1.25879.63574,2.17676c0,1-.24707,1.80273-.74121,2.4082s-1.15137.9082-1.97168.9082c-.72266,0-1.27344-.28125-1.65234-.84375ZM67.17764,92.94307v.48047c0,.41406.10938.75195.32812,1.01367s.50586.39258.86133.39258c.42188,0,.74902-.16309.98145-.48926s.34863-.78809.34863-1.38574c0-1.05469-.41016-1.58203-1.23047-1.58203-.37891,0-.68848.14355-.92871.43066s-.36035.66699-.36035,1.13965Z" fill="#2f2f2f"/>
        <path d="M74.68057,96.10127h-1.85156v-8.88281h1.85156v8.88281Z" fill="#2f2f2f"/>
        <path d="M77.14785,89.15205c-.3125,0-.56836-.09277-.76758-.27832s-.29883-.41309-.29883-.68262c0-.27734.09961-.50391.29883-.67969s.45508-.26367.76758-.26367c.31641,0,.57324.08789.77051.26367s.2959.40234.2959.67969c0,.28125-.09863.51172-.2959.69141s-.4541.26953-.77051.26953ZM78.06191,96.10127h-1.85156v-6h1.85156v6Z" fill="#2f2f2f"/>
        <path d="M84.13857,95.88447c-.41797.24219-1.02148.36328-1.81055.36328-.92188,0-1.66797-.2793-2.23828-.83789s-.85547-1.2793-.85547-2.16211c0-1.01953.30566-1.82324.91699-2.41113s1.42871-.88184,2.45215-.88184c.70703,0,1.21875.09375,1.53516.28125v1.57031c-.38672-.28906-.81836-.43359-1.29492-.43359-.53125,0-.95215.15527-1.2627.46582s-.46582.73926-.46582,1.28613c0,.53125.14844.94824.44531,1.25098s.70508.4541,1.22461.4541c.46094,0,.91211-.14453,1.35352-.43359v1.48828Z" fill="#2f2f2f"/>
        <path d="M90.43594,96.10127h-1.75195v-.86133h-.02344c-.40234.67188-.99805,1.00781-1.78711,1.00781-.58203,0-1.04004-.16504-1.37402-.49512s-.50098-.77051-.50098-1.32129c0-1.16406.68945-1.83594,2.06836-2.01562l1.62891-.2168c0-.65625-.35547-.98438-1.06641-.98438-.71484,0-1.39453.21289-2.03906.63867v-1.39453c.25781-.13281.61035-.25,1.05762-.35156s.85449-.15234,1.22168-.15234c1.71094,0,2.56641.85352,2.56641,2.56055v3.58594ZM88.6957,93.66377v-.4043l-1.08984.14062c-.60156.07812-.90234.34961-.90234.81445,0,.21094.07324.38379.21973.51855s.34473.20215.59473.20215c.34766,0,.63086-.12012.84961-.36035s.32812-.54395.32812-.91113Z" fill="#2f2f2f"/>
        <path d="M95.44033,96.03096c-.27344.14453-.68555.2168-1.23633.2168-1.30469,0-1.95703-.67773-1.95703-2.0332v-2.74805h-.97266v-1.36523h.97266v-1.29492l1.8457-.52734v1.82227h1.34766v1.36523h-1.34766v2.42578c0,.625.24805.9375.74414.9375.19531,0,.39648-.05664.60352-.16992v1.37109Z" fill="#2f2f2f"/>
        <path d="M97.4877,89.15205c-.3125,0-.56836-.09277-.76758-.27832s-.29883-.41309-.29883-.68262c0-.27734.09961-.50391.29883-.67969s.45508-.26367.76758-.26367c.31641,0,.57324.08789.77051.26367s.2959.40234.2959.67969c0,.28125-.09863.51172-.2959.69141s-.4541.26953-.77051.26953ZM98.40176,96.10127h-1.85156v-6h1.85156v6Z" fill="#2f2f2f"/>
        <path d="M102.79238,96.24775c-1,0-1.78613-.28027-2.3584-.84082s-.8584-1.32129-.8584-2.28223c0-.99219.29688-1.76855.89062-2.3291s1.39648-.84082,2.4082-.84082c.99609,0,1.77734.28027,2.34375.84082s.84961,1.30176.84961,2.22363c0,.99609-.29199,1.7832-.87598,2.36133s-1.38379.86719-2.39941.86719ZM102.83926,91.37275c-.4375,0-.77734.15039-1.01953.45117s-.36328.72656-.36328,1.27734c0,1.15234.46484,1.72852,1.39453,1.72852.88672,0,1.33008-.5918,1.33008-1.77539,0-1.12109-.44727-1.68164-1.3418-1.68164Z" fill="#2f2f2f"/>
        <path d="M113.05557,96.10127h-1.8457v-3.33398c0-.92969-.33203-1.39453-.99609-1.39453-.32031,0-.58398.12305-.79102.36914s-.31055.55859-.31055.9375v3.42188h-1.85156v-6h1.85156v.94922h.02344c.44141-.73047,1.08398-1.0957,1.92773-1.0957,1.32812,0,1.99219.82422,1.99219,2.47266v3.67383Z" fill="#2f2f2f"/>
        <path d="M59.9335,109.81563c0,1.11328-.32227,1.97559-.9668,2.58691s-1.57812.91699-2.80078.91699c-.80859,0-1.44922-.11523-1.92188-.3457v-1.55859c.61719.35938,1.24023.53906,1.86914.53906.625,0,1.10938-.16504,1.45312-.49512s.51562-.77832.51562-1.34473v-.47461h-.02344c-.42188.67188-1.04492,1.00781-1.86914,1.00781-.76562,0-1.37305-.26953-1.82227-.80859s-.67383-1.26172-.67383-2.16797c0-1.01562.25-1.82227.75-2.41992s1.1582-.89648,1.97461-.89648c.73047,0,1.27734.28125,1.64062.84375h.02344v-.69727h1.85156v5.31445ZM58.10537,107.61836v-.47461c0-.37891-.1123-.70215-.33691-.96973s-.5166-.40137-.87598-.40137c-.41016,0-.73242.16016-.9668.48047s-.35156.77148-.35156,1.35352c0,.5.11133.89551.33398,1.18652s.52734.43652.91406.43652c.38281,0,.69238-.14746.92871-.44238s.35449-.68457.35449-1.16895Z" fill="#2f2f2f"/>
        <path d="M65.3666,106.17109c-.22266-.12109-.48242-.18164-.7793-.18164-.40234,0-.7168.14746-.94336.44238s-.33984.69629-.33984,1.2041v2.86523h-1.85156v-6h1.85156v1.11328h.02344c.29297-.8125.82031-1.21875,1.58203-1.21875.19531,0,.34766.02344.45703.07031v1.70508Z" fill="#2f2f2f"/>
        <path d="M69.16934,110.64766c-1,0-1.78613-.28027-2.3584-.84082s-.8584-1.32129-.8584-2.28223c0-.99219.29688-1.76855.89062-2.3291s1.39648-.84082,2.4082-.84082c.99609,0,1.77734.28027,2.34375.84082s.84961,1.30176.84961,2.22363c0,.99609-.29199,1.7832-.87598,2.36133s-1.38379.86719-2.39941.86719ZM69.21621,105.77266c-.4375,0-.77734.15039-1.01953.45117s-.36328.72656-.36328,1.27734c0,1.15234.46484,1.72852,1.39453,1.72852.88672,0,1.33008-.5918,1.33008-1.77539,0-1.12109-.44727-1.68164-1.3418-1.68164Z" fill="#2f2f2f"/>
        <path d="M79.33975,110.50117h-1.8457v-.91406h-.0293c-.45703.70703-1.06836,1.06055-1.83398,1.06055-1.39062,0-2.08594-.8418-2.08594-2.52539v-3.62109h1.8457v3.45703c0,.84766.33594,1.27148,1.00781,1.27148.33203,0,.59766-.11621.79688-.34863s.29883-.54785.29883-.94629v-3.43359h1.8457v6Z" fill="#2f2f2f"/>
        <path d="M82.74063,109.80391h-.02344v3.45703h-1.85156v-8.75977h1.85156v.90234h.02344c.45703-.69922,1.09961-1.04883,1.92773-1.04883.77734,0,1.37793.2666,1.80176.7998s.63574,1.25879.63574,2.17676c0,1-.24707,1.80273-.74121,2.4082s-1.15137.9082-1.97168.9082c-.72266,0-1.27344-.28125-1.65234-.84375ZM82.68789,107.34297v.48047c0,.41406.10938.75195.32812,1.01367s.50586.39258.86133.39258c.42188,0,.74902-.16309.98145-.48926s.34863-.78809.34863-1.38574c0-1.05469-.41016-1.58203-1.23047-1.58203-.37891,0-.68848.14355-.92871.43066s-.36035.66699-.36035,1.13965Z" fill="#2f2f2f"/>
      </g>
      <g>
        <path d="M188.55557,31.9001h-2.17383l-1.30664-2.16211c-.09766-.16406-.19141-.31055-.28125-.43945s-.18066-.23926-.27246-.33105-.1875-.16211-.28711-.21094-.20801-.07324-.3252-.07324h-.50977v3.2168h-1.89258v-8.40234h3c2.03906,0,3.05859.76172,3.05859,2.28516,0,.29297-.04492.56348-.13477.81152s-.2168.47168-.38086.6709-.3623.37109-.59473.51562-.49121.25781-.77637.33984v.02344c.125.03906.24609.10254.36328.19043s.23047.19043.33984.30762.21387.24316.31348.37793.19043.2666.27246.39551l1.58789,2.48438ZM183.39932,24.91572v2.33789h.82031c.40625,0,.73242-.11719.97852-.35156.25-.23828.375-.5332.375-.88477,0-.73438-.43945-1.10156-1.31836-1.10156h-.85547Z" fill="#2f2f2f"/>
        <path d="M194.40811,29.42744h-3.91406c.0625.87109.61133,1.30664,1.64648,1.30664.66016,0,1.24023-.15625,1.74023-.46875v1.33594c-.55469.29688-1.27539.44531-2.16211.44531-.96875,0-1.7207-.26855-2.25586-.80566s-.80273-1.28613-.80273-2.24707c0-.99609.28906-1.78516.86719-2.36719s1.28906-.87305,2.13281-.87305c.875,0,1.55176.25977,2.03027.7793s.71777,1.22461.71777,2.11523v.7793ZM192.69131,28.29072c0-.85938-.34766-1.28906-1.04297-1.28906-.29688,0-.55371.12305-.77051.36914s-.34863.55273-.39551.91992h2.20898Z" fill="#2f2f2f"/>
        <path d="M201.49551,31.21455c0,1.11328-.32227,1.97559-.9668,2.58691s-1.57812.91699-2.80078.91699c-.80859,0-1.44922-.11523-1.92188-.3457v-1.55859c.61719.35938,1.24023.53906,1.86914.53906.625,0,1.10938-.16504,1.45312-.49512s.51562-.77832.51562-1.34473v-.47461h-.02344c-.42188.67188-1.04492,1.00781-1.86914,1.00781-.76562,0-1.37305-.26953-1.82227-.80859s-.67383-1.26172-.67383-2.16797c0-1.01562.25-1.82227.75-2.41992s1.1582-.89648,1.97461-.89648c.73047,0,1.27734.28125,1.64062.84375h.02344v-.69727h1.85156v5.31445ZM199.66738,29.01729v-.47461c0-.37891-.1123-.70215-.33691-.96973s-.5166-.40137-.87598-.40137c-.41016,0-.73242.16016-.9668.48047s-.35156.77148-.35156,1.35352c0,.5.11133.89551.33398,1.18652s.52734.43652.91406.43652c.38281,0,.69238-.14746.92871-.44238s.35449-.68457.35449-1.16895Z" fill="#2f2f2f"/>
        <path d="M203.95254,24.95088c-.3125,0-.56836-.09277-.76758-.27832s-.29883-.41309-.29883-.68262c0-.27734.09961-.50391.29883-.67969s.45508-.26367.76758-.26367c.31641,0,.57324.08789.77051.26367s.2959.40234.2959.67969c0,.28125-.09863.51172-.2959.69141s-.4541.26953-.77051.26953ZM204.8666,31.9001h-1.85156v-6h1.85156v6Z" fill="#2f2f2f"/>
        <path d="M209.25674,32.04658c-1,0-1.78613-.28027-2.3584-.84082s-.8584-1.32129-.8584-2.28223c0-.99219.29688-1.76855.89062-2.3291s1.39648-.84082,2.4082-.84082c.99609,0,1.77734.28027,2.34375.84082s.84961,1.30176.84961,2.22363c0,.99609-.29199,1.7832-.87598,2.36133s-1.38379.86719-2.39941.86719ZM209.30361,27.17158c-.4375,0-.77734.15039-1.01953.45117s-.36328.72656-.36328,1.27734c0,1.15234.46484,1.72852,1.39453,1.72852.88672,0,1.33008-.5918,1.33008-1.77539,0-1.12109-.44727-1.68164-1.3418-1.68164Z" fill="#2f2f2f"/>
        <path d="M219.51992,31.9001h-1.8457v-3.33398c0-.92969-.33203-1.39453-.99609-1.39453-.32031,0-.58398.12305-.79102.36914s-.31055.55859-.31055.9375v3.42188h-1.85156v-6h1.85156v.94922h.02344c.44141-.73047,1.08398-1.0957,1.92773-1.0957,1.32812,0,1.99219.82422,1.99219,2.47266v3.67383Z" fill="#2f2f2f"/>
        <path d="M231.86563,31.9001h-2.0625l-.59766-1.86914h-2.98828l-.5918,1.86914h-2.05078l3.05859-8.40234h2.24414l2.98828,8.40234ZM228.77188,28.57783l-.90234-2.82422c-.06641-.21094-.11328-.46289-.14062-.75586h-.04688c-.01953.24609-.06836.49023-.14648.73242l-.91406,2.84766h2.15039Z" fill="#2f2f2f"/>
      </g>
      <g>
        <rect x="443.66218" y="79.3" width="78.99053" height="30.8" fill="none"/>
        <path d="M453.32998,89.50117h-.97852v-5.63672c0-.44531.02734-.99023.08203-1.63477h-.02344c-.09375.37891-.17773.65039-.25195.81445l-2.87109,6.45703h-.48047l-2.86523-6.41016c-.08203-.1875-.16602-.47461-.25195-.86133h-.02344c.03125.33594.04688.88477.04688,1.64648v5.625h-.94922v-8.40234h1.30078l2.57812,5.85938c.19922.44922.32812.78516.38672,1.00781h.03516c.16797-.46094.30273-.80469.4043-1.03125l2.63086-5.83594h1.23047v8.40234Z" fill="#2f2f2f"/>
        <path d="M459.61025,89.50117h-.96094v-.9375h-.02344c-.41797.71875-1.0332,1.07812-1.8457,1.07812-.59766,0-1.06543-.1582-1.40332-.47461s-.50684-.73633-.50684-1.25977c0-1.12109.66016-1.77344,1.98047-1.95703l1.79883-.25195c0-1.01953-.41211-1.5293-1.23633-1.5293-.72266,0-1.375.24609-1.95703.73828v-.98438c.58984-.375,1.26953-.5625,2.03906-.5625,1.41016,0,2.11523.74609,2.11523,2.23828v3.90234ZM458.64932,86.46602l-1.44727.19922c-.44531.0625-.78125.17285-1.00781.33105s-.33984.43848-.33984.84082c0,.29297.10449.53223.31348.71777s.4873.27832.83496.27832c.47656,0,.87012-.16699,1.18066-.50098s.46582-.75684.46582-1.26855v-.59766Z" fill="#2f2f2f"/>
        <path d="M466.33389,89.50117h-.96094v-3.42188c0-1.27344-.46484-1.91016-1.39453-1.91016-.48047,0-.87793.18066-1.19238.54199s-.47168.81738-.47168,1.36816v3.42188h-.96094v-6h.96094v.99609h.02344c.45312-.75781,1.10938-1.13672,1.96875-1.13672.65625,0,1.1582.21191,1.50586.63574s.52148,1.03613.52148,1.83691v3.66797Z" fill="#2f2f2f"/>
        <path d="M472.37246,89.50117h-.96094v-.9375h-.02344c-.41797.71875-1.0332,1.07812-1.8457,1.07812-.59766,0-1.06543-.1582-1.40332-.47461s-.50684-.73633-.50684-1.25977c0-1.12109.66016-1.77344,1.98047-1.95703l1.79883-.25195c0-1.01953-.41211-1.5293-1.23633-1.5293-.72266,0-1.375.24609-1.95703.73828v-.98438c.58984-.375,1.26953-.5625,2.03906-.5625,1.41016,0,2.11523.74609,2.11523,2.23828v3.90234ZM471.41152,86.46602l-1.44727.19922c-.44531.0625-.78125.17285-1.00781.33105s-.33984.43848-.33984.84082c0,.29297.10449.53223.31348.71777s.4873.27832.83496.27832c.47656,0,.87012-.16699,1.18066-.50098s.46582-.75684.46582-1.26855v-.59766Z" fill="#2f2f2f"/>
        <path d="M479.29775,89.0207c0,2.20312-1.05469,3.30469-3.16406,3.30469-.74219,0-1.39062-.14062-1.94531-.42188v-.96094c.67578.375,1.32031.5625,1.93359.5625,1.47656,0,2.21484-.78516,2.21484-2.35547v-.65625h-.02344c-.45703.76562-1.14453,1.14844-2.0625,1.14844-.74609,0-1.34668-.2666-1.80176-.7998s-.68262-1.24902-.68262-2.14746c0-1.01953.24512-1.83008.73535-2.43164s1.16113-.90234,2.0127-.90234c.80859,0,1.4082.32422,1.79883.97266h.02344v-.83203h.96094v5.51953ZM478.33682,86.78828v-.88477c0-.47656-.16113-.88477-.4834-1.22461s-.72363-.50977-1.2041-.50977c-.59375,0-1.05859.21582-1.39453.64746s-.50391,1.03613-.50391,1.81348c0,.66797.16113,1.20215.4834,1.60254s.74902.60059,1.28027.60059c.53906,0,.97754-.19141,1.31543-.57422s.50684-.87305.50684-1.4707Z" fill="#2f2f2f"/>
        <path d="M486.01162,86.74141h-4.23633c.01562.66797.19531,1.18359.53906,1.54688s.81641.54492,1.41797.54492c.67578,0,1.29688-.22266,1.86328-.66797v.90234c-.52734.38281-1.22461.57422-2.0918.57422-.84766,0-1.51367-.27246-1.99805-.81738s-.72656-1.31152-.72656-2.2998c0-.93359.26465-1.69434.79395-2.28223s1.18652-.88184,1.97168-.88184,1.39258.25391,1.82227.76172.64453,1.21289.64453,2.11523v.50391ZM485.02725,85.92695c-.00391-.55469-.1377-.98633-.40137-1.29492s-.62988-.46289-1.09863-.46289c-.45312,0-.83789.16211-1.1543.48633s-.51172.74805-.58594,1.27148h3.24023Z" fill="#2f2f2f"/>
        <path d="M492.64834,89.50117h-.96094v-1.01953h-.02344c-.44531.77344-1.13281,1.16016-2.0625,1.16016-.75391,0-1.35645-.26855-1.80762-.80566s-.67676-1.26855-.67676-2.19434c0-.99219.25-1.78711.75-2.38477s1.16602-.89648,1.99805-.89648c.82422,0,1.42383.32422,1.79883.97266h.02344v-3.71484h.96094v8.88281ZM491.6874,86.78828v-.88477c0-.48438-.16016-.89453-.48047-1.23047s-.72656-.50391-1.21875-.50391c-.58594,0-1.04688.21484-1.38281.64453s-.50391,1.02344-.50391,1.78125c0,.69141.16113,1.2373.4834,1.6377s.75488.60059,1.29785.60059c.53516,0,.96973-.19336,1.30371-.58008s.50098-.875.50098-1.46484Z" fill="#2f2f2f"/>
        <path d="M450.78701,103.90107h-1.17188l-1.40625-2.35547c-.12891-.21875-.25391-.40527-.375-.55957s-.24512-.28027-.37207-.37793-.26367-.16895-.41016-.21387-.31152-.06738-.49512-.06738h-.80859v3.57422h-.98438v-8.40234h2.50781c.36719,0,.70605.0459,1.0166.1377s.58008.23145.80859.41895.40723.4209.53613.7002.19336.60645.19336.98145c0,.29297-.04395.56152-.13184.80566s-.21289.46191-.375.65332-.35742.35449-.58594.48926-.48535.23926-.77051.31348v.02344c.14062.0625.2627.13379.36621.21387s.20215.1748.2959.28418.18652.2334.27832.37207.19434.2998.30762.4834l1.57617,2.52539ZM445.74795,96.38936v3.04688h1.33594c.24609,0,.47363-.03711.68262-.11133s.38965-.18066.54199-.31934.27148-.30859.35742-.50977.12891-.42676.12891-.67676c0-.44922-.14551-.7998-.43652-1.05176s-.71191-.37793-1.2627-.37793h-1.34766Z" fill="#2f2f2f"/>
        <path d="M456.46426,101.14131h-4.23633c.01562.66797.19531,1.18359.53906,1.54688s.81641.54492,1.41797.54492c.67578,0,1.29688-.22266,1.86328-.66797v.90234c-.52734.38281-1.22461.57422-2.0918.57422-.84766,0-1.51367-.27246-1.99805-.81738s-.72656-1.31152-.72656-2.2998c0-.93359.26465-1.69434.79395-2.28223s1.18652-.88184,1.97168-.88184,1.39258.25391,1.82227.76172.64453,1.21289.64453,2.11523v.50391ZM455.47988,100.32686c-.00391-.55469-.1377-.98633-.40137-1.29492s-.62988-.46289-1.09863-.46289c-.45312,0-.83789.16211-1.1543.48633s-.51172.74805-.58594,1.27148h3.24023Z" fill="#2f2f2f"/>
        <path d="M463.10098,103.90107h-.96094v-1.01953h-.02344c-.44531.77344-1.13281,1.16016-2.0625,1.16016-.75391,0-1.35645-.26855-1.80762-.80566s-.67676-1.26855-.67676-2.19434c0-.99219.25-1.78711.75-2.38477s1.16602-.89648,1.99805-.89648c.82422,0,1.42383.32422,1.79883.97266h.02344v-3.71484h.96094v8.88281ZM462.14004,101.18818v-.88477c0-.48438-.16016-.89453-.48047-1.23047s-.72656-.50391-1.21875-.50391c-.58594,0-1.04688.21484-1.38281.64453s-.50391,1.02344-.50391,1.78125c0,.69141.16113,1.2373.4834,1.6377s.75488.60059,1.29785.60059c.53516,0,.96973-.19336,1.30371-.58008s.50098-.875.50098-1.46484Z" fill="#2f2f2f"/>
        <path d="M465.41494,96.37764c-.17188,0-.31836-.05859-.43945-.17578s-.18164-.26562-.18164-.44531.06055-.3291.18164-.44824.26758-.17871.43945-.17871c.17578,0,.3252.05957.44824.17871s.18457.26855.18457.44824c0,.17188-.06152.31836-.18457.43945s-.27246.18164-.44824.18164ZM465.88369,103.90107h-.96094v-6h.96094v6Z" fill="#2f2f2f"/>
        <path d="M467.36465,103.68428v-1.03125c.52344.38672,1.09961.58008,1.72852.58008.84375,0,1.26562-.28125,1.26562-.84375,0-.16016-.03613-.2959-.1084-.40723s-.16992-.20996-.29297-.2959-.26758-.16309-.43359-.23145-.34473-.13965-.53613-.21387c-.26562-.10547-.49902-.21191-.7002-.31934s-.36914-.22852-.50391-.36328-.23633-.28809-.30469-.45996-.10254-.37305-.10254-.60352c0-.28125.06445-.53027.19336-.74707s.30078-.39844.51562-.54492.45996-.25684.73535-.33105.55957-.11133.85254-.11133c.51953,0,.98438.08984,1.39453.26953v.97266c-.44141-.28906-.94922-.43359-1.52344-.43359-.17969,0-.3418.02051-.48633.06152s-.26855.09863-.37207.17285-.18359.16309-.24023.2666-.08496.21777-.08496.34277c0,.15625.02832.28711.08496.39258s.13965.19922.24902.28125.24219.15625.39844.22266.33398.13867.5332.2168c.26562.10156.50391.20605.71484.31348s.39062.22852.53906.36328.2627.29004.34277.46582.12012.38477.12012.62695c0,.29688-.06543.55469-.19629.77344s-.30566.40039-.52441.54492-.4707.25195-.75586.32227-.58398.10547-.89648.10547c-.61719,0-1.15234-.11914-1.60547-.35742Z" fill="#2f2f2f"/>
        <path d="M476.59902,96.37764c-.17188,0-.31836-.05859-.43945-.17578s-.18164-.26562-.18164-.44531.06055-.3291.18164-.44824.26758-.17871.43945-.17871c.17578,0,.3252.05957.44824.17871s.18457.26855.18457.44824c0,.17188-.06152.31836-.18457.43945s-.27246.18164-.44824.18164ZM477.06777,103.90107h-.96094v-6h.96094v6Z" fill="#2f2f2f"/>
        <path d="M483.8749,103.90107h-.96094v-3.42188c0-1.27344-.46484-1.91016-1.39453-1.91016-.48047,0-.87793.18066-1.19238.54199s-.47168.81738-.47168,1.36816v3.42188h-.96094v-6h.96094v.99609h.02344c.45312-.75781,1.10938-1.13672,1.96875-1.13672.65625,0,1.1582.21191,1.50586.63574s.52148,1.03613.52148,1.83691v3.66797Z" fill="#2f2f2f"/>
        <path d="M485.29678,103.68428v-1.03125c.52344.38672,1.09961.58008,1.72852.58008.84375,0,1.26562-.28125,1.26562-.84375,0-.16016-.03613-.2959-.1084-.40723s-.16992-.20996-.29297-.2959-.26758-.16309-.43359-.23145-.34473-.13965-.53613-.21387c-.26562-.10547-.49902-.21191-.7002-.31934s-.36914-.22852-.50391-.36328-.23633-.28809-.30469-.45996-.10254-.37305-.10254-.60352c0-.28125.06445-.53027.19336-.74707s.30078-.39844.51562-.54492.45996-.25684.73535-.33105.55957-.11133.85254-.11133c.51953,0,.98438.08984,1.39453.26953v.97266c-.44141-.28906-.94922-.43359-1.52344-.43359-.17969,0-.3418.02051-.48633.06152s-.26855.09863-.37207.17285-.18359.16309-.24023.2666-.08496.21777-.08496.34277c0,.15625.02832.28711.08496.39258s.13965.19922.24902.28125.24219.15625.39844.22266.33398.13867.5332.2168c.26562.10156.50391.20605.71484.31348s.39062.22852.53906.36328.2627.29004.34277.46582.12012.38477.12012.62695c0,.29688-.06543.55469-.19629.77344s-.30566.40039-.52441.54492-.4707.25195-.75586.32227-.58398.10547-.89648.10547c-.61719,0-1.15234-.11914-1.60547-.35742Z" fill="#2f2f2f"/>
        <path d="M493.58096,103.84248c-.22656.125-.52539.1875-.89648.1875-1.05078,0-1.57617-.58594-1.57617-1.75781v-3.55078h-1.03125v-.82031h1.03125v-1.46484l.96094-.31055v1.77539h1.51172v.82031h-1.51172v3.38086c0,.40234.06836.68945.20508.86133s.36328.25781.67969.25781c.24219,0,.45117-.06641.62695-.19922v.82031Z" fill="#2f2f2f"/>
        <path d="M499.26113,103.90107h-.96094v-.9375h-.02344c-.41797.71875-1.0332,1.07812-1.8457,1.07812-.59766,0-1.06543-.1582-1.40332-.47461s-.50684-.73633-.50684-1.25977c0-1.12109.66016-1.77344,1.98047-1.95703l1.79883-.25195c0-1.01953-.41211-1.5293-1.23633-1.5293-.72266,0-1.375.24609-1.95703.73828v-.98438c.58984-.375,1.26953-.5625,2.03906-.5625,1.41016,0,2.11523.74609,2.11523,2.23828v3.90234ZM498.3002,100.86592l-1.44727.19922c-.44531.0625-.78125.17285-1.00781.33105s-.33984.43848-.33984.84082c0,.29297.10449.53223.31348.71777s.4873.27832.83496.27832c.47656,0,.87012-.16699,1.18066-.50098s.46582-.75684.46582-1.26855v-.59766Z" fill="#2f2f2f"/>
        <path d="M505.98477,103.90107h-.96094v-3.42188c0-1.27344-.46484-1.91016-1.39453-1.91016-.48047,0-.87793.18066-1.19238.54199s-.47168.81738-.47168,1.36816v3.42188h-.96094v-6h.96094v.99609h.02344c.45312-.75781,1.10938-1.13672,1.96875-1.13672.65625,0,1.1582.21191,1.50586.63574s.52148,1.03613.52148,1.83691v3.66797Z" fill="#2f2f2f"/>
        <path d="M511.86465,103.62568c-.46094.27734-1.00781.41602-1.64062.41602-.85547,0-1.5459-.27832-2.07129-.83496s-.78809-1.27832-.78809-2.16504c0-.98828.2832-1.78223.84961-2.38184s1.32227-.89941,2.26758-.89941c.52734,0,.99219.09766,1.39453.29297v.98438c-.44531-.3125-.92188-.46875-1.42969-.46875-.61328,0-1.11621.21973-1.50879.65918s-.58887,1.0166-.58887,1.73145c0,.70312.18457,1.25781.55371,1.66406s.86426.60938,1.48535.60938c.52344,0,1.01562-.17383,1.47656-.52148v.91406Z" fill="#2f2f2f"/>
        <path d="M518.01992,101.14131h-4.23633c.01562.66797.19531,1.18359.53906,1.54688s.81641.54492,1.41797.54492c.67578,0,1.29688-.22266,1.86328-.66797v.90234c-.52734.38281-1.22461.57422-2.0918.57422-.84766,0-1.51367-.27246-1.99805-.81738s-.72656-1.31152-.72656-2.2998c0-.93359.26465-1.69434.79395-2.28223s1.18652-.88184,1.97168-.88184,1.39258.25391,1.82227.76172.64453,1.21289.64453,2.11523v.50391ZM517.03555,100.32686c-.00391-.55469-.1377-.98633-.40137-1.29492s-.62988-.46289-1.09863-.46289c-.45312,0-.83789.16211-1.1543.48633s-.51172.74805-.58594,1.27148h3.24023Z" fill="#2f2f2f"/>
      </g>
      <g>
        <path d="M449.07803,31.9001h-2.17383l-1.30664-2.16211c-.09766-.16406-.19141-.31055-.28125-.43945s-.18066-.23926-.27246-.33105-.1875-.16211-.28711-.21094-.20801-.07324-.3252-.07324h-.50977v3.2168h-1.89258v-8.40234h3c2.03906,0,3.05859.76172,3.05859,2.28516,0,.29297-.04492.56348-.13477.81152s-.2168.47168-.38086.6709-.3623.37109-.59473.51562-.49121.25781-.77637.33984v.02344c.125.03906.24609.10254.36328.19043s.23047.19043.33984.30762.21387.24316.31348.37793.19043.2666.27246.39551l1.58789,2.48438ZM443.92178,24.91572v2.33789h.82031c.40625,0,.73242-.11719.97852-.35156.25-.23828.375-.5332.375-.88477,0-.73438-.43945-1.10156-1.31836-1.10156h-.85547Z" fill="#2f2f2f"/>
        <path d="M454.93057,29.42744h-3.91406c.0625.87109.61133,1.30664,1.64648,1.30664.66016,0,1.24023-.15625,1.74023-.46875v1.33594c-.55469.29688-1.27539.44531-2.16211.44531-.96875,0-1.7207-.26855-2.25586-.80566s-.80273-1.28613-.80273-2.24707c0-.99609.28906-1.78516.86719-2.36719s1.28906-.87305,2.13281-.87305c.875,0,1.55176.25977,2.03027.7793s.71777,1.22461.71777,2.11523v.7793ZM453.21377,28.29072c0-.85938-.34766-1.28906-1.04297-1.28906-.29688,0-.55371.12305-.77051.36914s-.34863.55273-.39551.91992h2.20898Z" fill="#2f2f2f"/>
        <path d="M462.01797,31.21455c0,1.11328-.32227,1.97559-.9668,2.58691s-1.57812.91699-2.80078.91699c-.80859,0-1.44922-.11523-1.92188-.3457v-1.55859c.61719.35938,1.24023.53906,1.86914.53906.625,0,1.10938-.16504,1.45312-.49512s.51562-.77832.51562-1.34473v-.47461h-.02344c-.42188.67188-1.04492,1.00781-1.86914,1.00781-.76562,0-1.37305-.26953-1.82227-.80859s-.67383-1.26172-.67383-2.16797c0-1.01562.25-1.82227.75-2.41992s1.1582-.89648,1.97461-.89648c.73047,0,1.27734.28125,1.64062.84375h.02344v-.69727h1.85156v5.31445ZM460.18984,29.01729v-.47461c0-.37891-.1123-.70215-.33691-.96973s-.5166-.40137-.87598-.40137c-.41016,0-.73242.16016-.9668.48047s-.35156.77148-.35156,1.35352c0,.5.11133.89551.33398,1.18652s.52734.43652.91406.43652c.38281,0,.69238-.14746.92871-.44238s.35449-.68457.35449-1.16895Z" fill="#2f2f2f"/>
        <path d="M464.475,24.95088c-.3125,0-.56836-.09277-.76758-.27832s-.29883-.41309-.29883-.68262c0-.27734.09961-.50391.29883-.67969s.45508-.26367.76758-.26367c.31641,0,.57324.08789.77051.26367s.2959.40234.2959.67969c0,.28125-.09863.51172-.2959.69141s-.4541.26953-.77051.26953ZM465.38906,31.9001h-1.85156v-6h1.85156v6Z" fill="#2f2f2f"/>
        <path d="M469.7792,32.04658c-1,0-1.78613-.28027-2.3584-.84082s-.8584-1.32129-.8584-2.28223c0-.99219.29688-1.76855.89062-2.3291s1.39648-.84082,2.4082-.84082c.99609,0,1.77734.28027,2.34375.84082s.84961,1.30176.84961,2.22363c0,.99609-.29199,1.7832-.87598,2.36133s-1.38379.86719-2.39941.86719ZM469.82607,27.17158c-.4375,0-.77734.15039-1.01953.45117s-.36328.72656-.36328,1.27734c0,1.15234.46484,1.72852,1.39453,1.72852.88672,0,1.33008-.5918,1.33008-1.77539,0-1.12109-.44727-1.68164-1.3418-1.68164Z" fill="#2f2f2f"/>
        <path d="M480.04238,31.9001h-1.8457v-3.33398c0-.92969-.33203-1.39453-.99609-1.39453-.32031,0-.58398.12305-.79102.36914s-.31055.55859-.31055.9375v3.42188h-1.85156v-6h1.85156v.94922h.02344c.44141-.73047,1.08398-1.0957,1.92773-1.0957,1.32812,0,1.99219.82422,1.99219,2.47266v3.67383Z" fill="#2f2f2f"/>
        <path d="M484.99941,31.9001v-8.40234h3.05859c.9375,0,1.6582.17188,2.16211.51562s.75586.82812.75586,1.45312c0,.45312-.15332.84961-.45996,1.18945s-.69824.57617-1.1748.70898v.02344c.59766.07422,1.0752.29492,1.43262.66211s.53613.81445.53613,1.3418c0,.76953-.27539,1.37988-.82617,1.83105s-1.30273.67676-2.25586.67676h-3.22852ZM486.89199,24.89229v1.99219h.83203c.39062,0,.69824-.09473.92285-.28418s.33691-.4502.33691-.78223c0-.61719-.46094-.92578-1.38281-.92578h-.70898ZM486.89199,28.29072v2.21484h1.02539c.4375,0,.78027-.10156,1.02832-.30469s.37207-.48047.37207-.83203c0-.33594-.12207-.59961-.36621-.79102s-.58496-.28711-1.02246-.28711h-1.03711Z" fill="#2f2f2f"/>
      </g>
    </g>
  </g>
</svg>