<svg xmlns="http://www.w3.org/2000/svg" viewBox="0 0 127.992 116.1943"><title>healthcare-dark</title><g id="Layer_2" data-name="Layer 2"><g id="New_Icons" data-name="New Icons"><path d="M49.737-5.1887h1.7115a36,36,0,0,1,36,36v75.5633a0,0,0,0,1,0,0H13.737a0,0,0,0,1,0,0V30.8113A36,36,0,0,1,49.737-5.1887Z" transform="translate(-20.9563 50.5928) rotate(-45.0001)" fill="#50e6ff"/><path d="M76.5435-5.0917h1.7115a36,36,0,0,1,36,36v75.563a0,0,0,0,1,0,0H40.5437a0,0,0,0,1,0,0V30.9081a36,36,0,0,1,36-36Z" transform="translate(58.513 -39.8829) rotate(45.0001)" fill="#0078d4"/></g></g></svg>