<?xml version="1.0" encoding="utf-8"?>
<!-- Generator: Adobe Illustrator 27.4.0, SVG Export Plug-In . SVG Version: 6.00 Build 0)  -->
<svg version="1.1" xmlns="http://www.w3.org/2000/svg" xmlns:xlink="http://www.w3.org/1999/xlink" x="0px" y="0px"
	 viewBox="0 0 787.717 249.05" enable-background="new 0 0 787.717 249.05" xml:space="preserve">
<symbol  id="PIPELINE" viewBox="-32 -12.266 64 24.531">
	<linearGradient id="SVGID_1_" gradientUnits="userSpaceOnUse" x1="0" y1="-12.2655" x2="1.502093e-15" y2="12.2655">
		<stop  offset="0" style="stop-color:#1B89B2"/>
		<stop  offset="1" style="stop-color:#51C8E8"/>
	</linearGradient>
	<path fill="url(#SVGID_1_)" d="M26.096,12.266h-51.448v0h0C-29.08,12.265-32,6.878-32,0s2.92-12.265,6.648-12.265h0v0h51.448
		C29.356-12.266,32-6.363,32,0S29.356,12.266,26.096,12.266z"/>
	<g>
		
			<linearGradient id="SVGID_00000039818463034116627860000003971524875231474586_" gradientUnits="userSpaceOnUse" x1="-31.461" y1="-6.1136" x2="-19.2338" y2="6.1136">
			<stop  offset="0" style="stop-color:#B3B4B4"/>
			<stop  offset="1" style="stop-color:#4F4F4F"/>
		</linearGradient>
		<ellipse fill="url(#SVGID_00000039818463034116627860000003971524875231474586_)" cx="-25.347" cy="0" rx="5.575" ry="10.879"/>
	</g>
</symbol>
<g id="Shapes">
	<rect fill="#FFFFFF" width="787.717" height="249.05"/>
	<g id="Wrench_tool_x28_s_x29_">
	</g>
	<g id="user2">
	</g>
	<g id="user2_1_">
	</g>
	<g id="user2_4_">
	</g>
	<g id="user2_3_">
	</g>
	<g id="user2_2_">
	</g>
	<g id="Internet_2">
	</g>
	<g id="Enterprise">
	</g>
	<g id="Tunnel__x28_stackable_x29_">
	</g>
	<g id="New_Symbol">
	</g>
	<g id="New_Symbol_1">
	</g>
	<g id="Files">
	</g>
	<g id="BlobBlock">
	</g>
	<g id="E_x5F_Enterprise">
	</g>
	<g id="E_x5F_AD_FS">
	</g>
	<g id="C_x5F_Azure_Active_Directory">
	</g>
	<g>
		<rect x="158.247" y="40.15" fill="#32BEDD" fill-opacity="0.6" width="580.355" height="22"/>
		<g>
			<g>
				<line fill="none" stroke="#3C3C41" stroke-width="2" stroke-miterlimit="10" x1="158.247" y1="51.15" x2="757.656" y2="51.15"/>
				<g>
					<polygon fill="#3C3C41" points="742.287,59.42 741.398,56.975 757.402,51.15 741.398,45.326 742.287,42.883 765.003,51.15 
											"/>
				</g>
			</g>
		</g>
	</g>
	<line fill="none" stroke="#3C3C41" stroke-miterlimit="10" x1="158.247" y1="30.8" x2="158.247" y2="70.4"/>
	<g>
		<line fill="none" stroke="#3C3C41" stroke-miterlimit="10" x1="651.047" y1="30.8" x2="651.047" y2="70.4"/>
		
			<line fill="none" stroke="#3C3C41" stroke-miterlimit="10" stroke-dasharray="3,3" x1="651.047" y1="66.26" x2="651.047" y2="100.642"/>
	</g>
	<g>
		<line fill="none" stroke="#3C3C41" stroke-miterlimit="10" x1="461.847" y1="30.8" x2="461.847" y2="70.4"/>
		
			<line fill="none" stroke="#3C3C41" stroke-miterlimit="10" stroke-dasharray="3,3" x1="461.847" y1="66.26" x2="461.847" y2="100.642"/>
	</g>
	<g>
		<line fill="none" stroke="#3C3C41" stroke-miterlimit="10" x1="272.647" y1="30.8" x2="272.647" y2="70.4"/>
		
			<line fill="none" stroke="#3C3C41" stroke-miterlimit="10" stroke-dasharray="3,3" x1="272.648" y1="66.26" x2="272.648" y2="100.642"/>
	</g>
	<line fill="none" stroke="#777677" stroke-miterlimit="10" x1="287.9" y1="108.766" x2="287.9" y2="130.766"/>
	<line fill="none" stroke="#777677" stroke-miterlimit="10" x1="193.916" y1="108.766" x2="193.916" y2="130.766"/>
	<g>
		<g>
			<line fill="none" stroke="#737474" stroke-miterlimit="10" x1="215.916" y1="119.766" x2="199.299" y2="119.766"/>
			<g>
				<polygon fill="#737474" points="200.393,116.026 193.916,119.766 200.393,123.506 				"/>
			</g>
		</g>
	</g>
	<g>
		<g>
			<line fill="none" stroke="#737474" stroke-miterlimit="10" x1="265.716" y1="119.766" x2="282.334" y2="119.766"/>
			<g>
				<polygon fill="#737474" points="281.24,123.506 287.716,119.766 281.24,116.026 				"/>
			</g>
		</g>
	</g>
	<line fill="none" stroke="#777677" stroke-miterlimit="10" x1="382.252" y1="108.766" x2="382.252" y2="130.766"/>
	<g>
		<g>
			<line fill="none" stroke="#737474" stroke-miterlimit="10" x1="310.269" y1="119.766" x2="293.651" y2="119.766"/>
			<g>
				<polygon fill="#737474" points="294.745,116.026 288.269,119.766 294.745,123.506 				"/>
			</g>
		</g>
	</g>
	<g>
		<g>
			<line fill="none" stroke="#737474" stroke-miterlimit="10" x1="360.069" y1="119.766" x2="376.687" y2="119.766"/>
			<g>
				<polygon fill="#737474" points="375.592,123.506 382.069,119.766 375.592,116.026 				"/>
			</g>
		</g>
	</g>
	<line fill="none" stroke="#777677" stroke-miterlimit="10" x1="477.625" y1="108.766" x2="477.625" y2="130.766"/>
	<g>
		<g>
			<line fill="none" stroke="#737474" stroke-miterlimit="10" x1="405.604" y1="119.766" x2="388.986" y2="119.766"/>
			<g>
				<polygon fill="#737474" points="390.08,116.026 383.604,119.766 390.08,123.506 				"/>
			</g>
		</g>
	</g>
	<g>
		<g>
			<line fill="none" stroke="#737474" stroke-miterlimit="10" x1="455.404" y1="119.766" x2="472.022" y2="119.766"/>
			<g>
				<polygon fill="#737474" points="470.927,123.506 477.404,119.766 470.927,116.026 				"/>
			</g>
		</g>
	</g>
	<line fill="none" stroke="#777677" stroke-miterlimit="10" x1="573.274" y1="108.766" x2="573.274" y2="130.766"/>
	<line fill="none" stroke="#777677" stroke-miterlimit="10" x1="667.274" y1="108.766" x2="667.274" y2="130.766"/>
	<g>
		<g>
			<line fill="none" stroke="#737474" stroke-miterlimit="10" x1="501.291" y1="119.766" x2="484.673" y2="119.766"/>
			<g>
				<polygon fill="#737474" points="485.767,116.026 479.291,119.766 485.767,123.506 				"/>
			</g>
		</g>
	</g>
	<g>
		<g>
			<line fill="none" stroke="#737474" stroke-miterlimit="10" x1="551.091" y1="119.766" x2="567.709" y2="119.766"/>
			<g>
				<polygon fill="#737474" points="566.614,123.506 573.091,119.766 566.614,116.026 				"/>
			</g>
		</g>
	</g>
	<g>
		<g>
			<line fill="none" stroke="#737474" stroke-miterlimit="10" x1="595.474" y1="119.766" x2="578.856" y2="119.766"/>
			<g>
				<polygon fill="#737474" points="579.95,116.026 573.474,119.766 579.95,123.506 				"/>
			</g>
		</g>
	</g>
	<g>
		<g>
			<line fill="none" stroke="#737474" stroke-miterlimit="10" x1="645.274" y1="119.766" x2="661.891" y2="119.766"/>
			<g>
				<polygon fill="#737474" points="660.797,123.506 667.274,119.766 660.797,116.026 				"/>
			</g>
		</g>
	</g>
	<g>
		<g opacity="0.3">
			<rect x="16.602" y="159.372" fill="#212121" width="130.472" height="44"/>
			<rect x="16.602" y="159.372" opacity="0.6" fill="#212121" width="130.472" height="44"/>
		</g>
		<g>
			<rect x="15.602" y="158.372" fill="#FFFFFF" width="130.472" height="44"/>
			<rect x="15.602" y="158.372" opacity="0.6" fill="#CCCCCB" width="130.472" height="44"/>
		</g>
	</g>
	<g>
		<g opacity="0.3">
			<rect x="16.602" y="30.193" fill="#212121" width="130.472" height="44"/>
			<rect x="16.602" y="30.193" opacity="0.6" fill="#212121" width="130.472" height="44"/>
		</g>
		<g>
			<rect x="15.602" y="29.193" fill="#FFFFFF" width="130.472" height="44"/>
			<rect x="15.602" y="29.193" opacity="0.6" fill="#CCCCCB" width="130.472" height="44"/>
		</g>
	</g>
	<g>
		<rect x="158.247" y="171.425" fill="#FFE452" fill-opacity="0.6" width="580.355" height="22"/>
		<g>
			<g>
				
					<line fill="none" stroke="#3C3C41" stroke-width="2" stroke-miterlimit="10" x1="158.247" y1="182.425" x2="757.656" y2="182.425"/>
				<g>
					<polygon fill="#3C3C41" points="742.287,190.695 741.398,188.25 757.402,182.425 741.398,176.601 742.287,174.158 
						765.003,182.425 					"/>
				</g>
			</g>
		</g>
	</g>
	<g>
		
			<line fill="none" stroke="#3C3C41" stroke-miterlimit="10" stroke-dasharray="3,3" x1="652.904" y1="140.907" x2="679.242" y2="163.007"/>
		<line fill="none" stroke="#3C3C41" stroke-miterlimit="10" x1="679.242" y1="162.625" x2="679.242" y2="202.225"/>
	</g>
	<g>
		
			<line fill="none" stroke="#3C3C41" stroke-miterlimit="10" stroke-dasharray="3,3" x1="465.179" y1="140.907" x2="491.518" y2="163.007"/>
		<line fill="none" stroke="#3C3C41" stroke-miterlimit="10" x1="491.518" y1="162.625" x2="491.518" y2="202.225"/>
	</g>
	<g>
		
			<line fill="none" stroke="#3C3C41" stroke-miterlimit="10" stroke-dasharray="3,3" x1="559.042" y1="140.907" x2="585.38" y2="163.007"/>
		<line fill="none" stroke="#3C3C41" stroke-miterlimit="10" x1="585.38" y1="162.625" x2="585.38" y2="202.225"/>
	</g>
	<g>
		
			<line fill="none" stroke="#3C3C41" stroke-miterlimit="10" stroke-dasharray="3,3" x1="371.317" y1="140.907" x2="397.655" y2="163.007"/>
		<line fill="none" stroke="#3C3C41" stroke-miterlimit="10" x1="397.655" y1="162.625" x2="397.655" y2="202.225"/>
	</g>
	<g>
		
			<line fill="none" stroke="#3C3C41" stroke-miterlimit="10" stroke-dasharray="3,3" x1="277.455" y1="140.907" x2="303.793" y2="163.007"/>
		<line fill="none" stroke="#3C3C41" stroke-miterlimit="10" x1="303.793" y1="162.625" x2="303.793" y2="202.225"/>
	</g>
</g>
<g id="Text">
	<g>
		<rect x="209.114" y="106.712" fill="none" width="58.465" height="37.081"/>
		<path fill="#2F2F2F" d="M224.132,108.084h-3.281v2.906h3.035v0.885h-3.035v3.721h-0.984v-8.402h4.266V108.084z"/>
		<path fill="#2F2F2F" d="M230.297,112.836h-4.236c0.016,0.668,0.195,1.184,0.539,1.547s0.816,0.545,1.418,0.545
			c0.676,0,1.297-0.223,1.863-0.668v0.902c-0.527,0.383-1.225,0.574-2.092,0.574c-0.848,0-1.514-0.272-1.998-0.817
			s-0.727-1.312-0.727-2.3c0-0.934,0.265-1.694,0.794-2.282s1.187-0.882,1.972-0.882s1.393,0.254,1.822,0.762
			s0.645,1.213,0.645,2.115V112.836z M229.312,112.021c-0.004-0.555-0.138-0.986-0.401-1.295s-0.63-0.463-1.099-0.463
			c-0.453,0-0.838,0.162-1.154,0.486s-0.512,0.748-0.586,1.271H229.312z"/>
		<path fill="#2F2F2F" d="M235.997,115.595h-0.961v-0.938h-0.023c-0.418,0.719-1.033,1.078-1.846,1.078
			c-0.598,0-1.065-0.158-1.403-0.475s-0.507-0.736-0.507-1.26c0-1.121,0.66-1.773,1.98-1.957l1.799-0.252
			c0-1.02-0.412-1.529-1.236-1.529c-0.723,0-1.375,0.246-1.957,0.738v-0.984c0.59-0.375,1.27-0.562,2.039-0.562
			c1.41,0,2.115,0.746,2.115,2.238V115.595z M235.036,112.56l-1.447,0.199c-0.445,0.062-0.781,0.173-1.008,0.331
			s-0.34,0.438-0.34,0.841c0,0.293,0.104,0.532,0.313,0.718s0.487,0.278,0.835,0.278c0.477,0,0.87-0.167,1.181-0.501
			s0.466-0.757,0.466-1.269V112.56z"/>
		<path fill="#2F2F2F" d="M240.514,115.537c-0.227,0.125-0.525,0.188-0.896,0.188c-1.051,0-1.576-0.586-1.576-1.758v-3.551h-1.031
			v-0.82h1.031v-1.465l0.961-0.311v1.775h1.512v0.82h-1.512v3.381c0,0.402,0.068,0.689,0.205,0.861s0.363,0.258,0.68,0.258
			c0.242,0,0.451-0.066,0.627-0.199V115.537z"/>
		<path fill="#2F2F2F" d="M246.625,115.595h-0.961v-0.949h-0.023c-0.398,0.727-1.016,1.09-1.852,1.09
			c-1.43,0-2.145-0.852-2.145-2.555v-3.586h0.955v3.434c0,1.266,0.484,1.898,1.453,1.898c0.469,0,0.854-0.173,1.157-0.519
			s0.454-0.798,0.454-1.356v-3.457h0.961V115.595z"/>
		<path fill="#2F2F2F" d="M251.569,110.568c-0.168-0.129-0.41-0.193-0.727-0.193c-0.41,0-0.753,0.193-1.028,0.58
			s-0.413,0.914-0.413,1.582v3.059h-0.961v-6h0.961v1.236h0.023c0.137-0.422,0.346-0.751,0.627-0.987s0.596-0.354,0.943-0.354
			c0.25,0,0.441,0.027,0.574,0.082V110.568z"/>
		<path fill="#2F2F2F" d="M257.448,112.836h-4.236c0.016,0.668,0.195,1.184,0.539,1.547s0.816,0.545,1.418,0.545
			c0.676,0,1.297-0.223,1.863-0.668v0.902c-0.527,0.383-1.225,0.574-2.092,0.574c-0.848,0-1.514-0.272-1.998-0.817
			s-0.727-1.312-0.727-2.3c0-0.934,0.265-1.694,0.794-2.282s1.187-0.882,1.972-0.882s1.393,0.254,1.822,0.762
			s0.645,1.213,0.645,2.115V112.836z M256.463,112.021c-0.004-0.555-0.138-0.986-0.401-1.295s-0.63-0.463-1.099-0.463
			c-0.453,0-0.838,0.162-1.154,0.486s-0.512,0.748-0.586,1.271H256.463z"/>
		<path fill="#2F2F2F" d="M226.458,123.995l-1.799,6h-0.996l-1.236-4.295c-0.047-0.164-0.078-0.35-0.094-0.557h-0.023
			c-0.012,0.141-0.053,0.322-0.123,0.545l-1.342,4.307h-0.961l-1.816-6h1.008l1.242,4.512c0.039,0.137,0.066,0.316,0.082,0.539
			h0.047c0.012-0.172,0.047-0.355,0.105-0.551l1.383-4.5h0.879l1.242,4.523c0.039,0.145,0.068,0.324,0.088,0.539h0.047
			c0.008-0.152,0.041-0.332,0.1-0.539l1.219-4.523H226.458z"/>
		<path fill="#2F2F2F" d="M228.064,122.471c-0.172,0-0.318-0.059-0.439-0.176s-0.182-0.266-0.182-0.445s0.061-0.329,0.182-0.448
			s0.268-0.179,0.439-0.179c0.176,0,0.325,0.06,0.448,0.179s0.185,0.269,0.185,0.448c0,0.172-0.062,0.318-0.185,0.439
			S228.24,122.471,228.064,122.471z M228.533,129.995h-0.961v-6h0.961V129.995z"/>
		<path fill="#2F2F2F" d="M235.34,129.995h-0.961v-3.422c0-1.273-0.465-1.91-1.395-1.91c-0.48,0-0.878,0.181-1.192,0.542
			s-0.472,0.817-0.472,1.368v3.422h-0.961v-6h0.961v0.996h0.023c0.453-0.758,1.109-1.137,1.969-1.137
			c0.656,0,1.158,0.212,1.506,0.636s0.521,1.036,0.521,1.837V129.995z"/>
		<path fill="#2F2F2F" d="M242.271,129.995h-0.961v-1.02h-0.023c-0.445,0.773-1.133,1.16-2.062,1.16
			c-0.754,0-1.356-0.269-1.808-0.806s-0.677-1.269-0.677-2.194c0-0.992,0.25-1.787,0.75-2.385s1.166-0.896,1.998-0.896
			c0.824,0,1.424,0.324,1.799,0.973h0.023v-3.715h0.961V129.995z M241.31,127.282v-0.885c0-0.484-0.16-0.895-0.48-1.23
			s-0.727-0.504-1.219-0.504c-0.586,0-1.047,0.215-1.383,0.645s-0.504,1.023-0.504,1.781c0,0.691,0.161,1.237,0.483,1.638
			s0.755,0.601,1.298,0.601c0.535,0,0.97-0.193,1.304-0.58S241.31,127.872,241.31,127.282z"/>
		<path fill="#2F2F2F" d="M246.651,130.135c-0.887,0-1.595-0.28-2.124-0.841s-0.794-1.304-0.794-2.229
			c0-1.008,0.275-1.795,0.826-2.361s1.295-0.85,2.232-0.85c0.895,0,1.593,0.275,2.095,0.826s0.753,1.314,0.753,2.291
			c0,0.957-0.271,1.724-0.812,2.3S247.561,130.135,246.651,130.135z M246.721,124.663c-0.617,0-1.105,0.21-1.465,0.63
			s-0.539,0.999-0.539,1.737c0,0.711,0.182,1.271,0.545,1.682s0.85,0.615,1.459,0.615c0.621,0,1.099-0.201,1.433-0.604
			s0.501-0.975,0.501-1.717c0-0.75-0.167-1.328-0.501-1.734S247.343,124.663,246.721,124.663z"/>
		<path fill="#2F2F2F" d="M258.625,123.995l-1.799,6h-0.996l-1.236-4.295c-0.047-0.164-0.078-0.35-0.094-0.557h-0.023
			c-0.012,0.141-0.053,0.322-0.123,0.545l-1.342,4.307h-0.961l-1.816-6h1.008l1.242,4.512c0.039,0.137,0.066,0.316,0.082,0.539
			h0.047c0.012-0.172,0.047-0.355,0.105-0.551l1.383-4.5h0.879l1.242,4.523c0.039,0.145,0.068,0.324,0.088,0.539h0.047
			c0.008-0.152,0.041-0.332,0.1-0.539l1.219-4.523H258.625z"/>
	</g>
	<g>
		<rect x="303.466" y="106.712" fill="none" width="58.465" height="37.081"/>
		<path fill="#2F2F2F" d="M318.485,108.084h-3.281v2.906h3.035v0.885h-3.035v3.721h-0.984v-8.402h4.266V108.084z"/>
		<path fill="#2F2F2F" d="M324.649,112.836h-4.236c0.016,0.668,0.195,1.184,0.539,1.547s0.816,0.545,1.418,0.545
			c0.676,0,1.297-0.223,1.863-0.668v0.902c-0.527,0.383-1.225,0.574-2.092,0.574c-0.848,0-1.514-0.272-1.998-0.817
			s-0.727-1.312-0.727-2.3c0-0.934,0.265-1.694,0.794-2.282s1.187-0.882,1.972-0.882s1.393,0.254,1.822,0.762
			s0.645,1.213,0.645,2.115V112.836z M323.665,112.021c-0.004-0.555-0.138-0.986-0.401-1.295s-0.63-0.463-1.099-0.463
			c-0.453,0-0.838,0.162-1.154,0.486s-0.512,0.748-0.586,1.271H323.665z"/>
		<path fill="#2F2F2F" d="M330.349,115.595h-0.961v-0.938h-0.023c-0.418,0.719-1.033,1.078-1.846,1.078
			c-0.598,0-1.065-0.158-1.403-0.475s-0.507-0.736-0.507-1.26c0-1.121,0.66-1.773,1.98-1.957l1.799-0.252
			c0-1.02-0.412-1.529-1.236-1.529c-0.723,0-1.375,0.246-1.957,0.738v-0.984c0.59-0.375,1.27-0.562,2.039-0.562
			c1.41,0,2.115,0.746,2.115,2.238V115.595z M329.388,112.56l-1.447,0.199c-0.445,0.062-0.781,0.173-1.008,0.331
			s-0.34,0.438-0.34,0.841c0,0.293,0.104,0.532,0.313,0.718s0.487,0.278,0.835,0.278c0.477,0,0.87-0.167,1.181-0.501
			s0.466-0.757,0.466-1.269V112.56z"/>
		<path fill="#2F2F2F" d="M334.867,115.537c-0.227,0.125-0.525,0.188-0.896,0.188c-1.051,0-1.576-0.586-1.576-1.758v-3.551h-1.031
			v-0.82h1.031v-1.465l0.961-0.311v1.775h1.512v0.82h-1.512v3.381c0,0.402,0.068,0.689,0.205,0.861s0.363,0.258,0.68,0.258
			c0.242,0,0.451-0.066,0.627-0.199V115.537z"/>
		<path fill="#2F2F2F" d="M340.977,115.595h-0.961v-0.949h-0.023c-0.398,0.727-1.016,1.09-1.852,1.09
			c-1.43,0-2.145-0.852-2.145-2.555v-3.586h0.955v3.434c0,1.266,0.484,1.898,1.453,1.898c0.469,0,0.854-0.173,1.157-0.519
			s0.454-0.798,0.454-1.356v-3.457h0.961V115.595z"/>
		<path fill="#2F2F2F" d="M345.922,110.568c-0.168-0.129-0.41-0.193-0.727-0.193c-0.41,0-0.753,0.193-1.028,0.58
			s-0.413,0.914-0.413,1.582v3.059h-0.961v-6h0.961v1.236h0.023c0.137-0.422,0.346-0.751,0.627-0.987s0.596-0.354,0.943-0.354
			c0.25,0,0.441,0.027,0.574,0.082V110.568z"/>
		<path fill="#2F2F2F" d="M351.8,112.836h-4.236c0.016,0.668,0.195,1.184,0.539,1.547s0.816,0.545,1.418,0.545
			c0.676,0,1.297-0.223,1.863-0.668v0.902c-0.527,0.383-1.225,0.574-2.092,0.574c-0.848,0-1.514-0.272-1.998-0.817
			s-0.727-1.312-0.727-2.3c0-0.934,0.265-1.694,0.794-2.282s1.187-0.882,1.972-0.882s1.393,0.254,1.822,0.762
			s0.645,1.213,0.645,2.115V112.836z M350.816,112.021c-0.004-0.555-0.138-0.986-0.401-1.295s-0.63-0.463-1.099-0.463
			c-0.453,0-0.838,0.162-1.154,0.486s-0.512,0.748-0.586,1.271H350.816z"/>
		<path fill="#2F2F2F" d="M320.811,123.995l-1.799,6h-0.996l-1.236-4.295c-0.047-0.164-0.078-0.35-0.094-0.557h-0.023
			c-0.012,0.141-0.053,0.322-0.123,0.545l-1.342,4.307h-0.961l-1.816-6h1.008l1.242,4.512c0.039,0.137,0.066,0.316,0.082,0.539
			h0.047c0.012-0.172,0.047-0.355,0.105-0.551l1.383-4.5h0.879l1.242,4.523c0.039,0.145,0.068,0.324,0.088,0.539h0.047
			c0.008-0.152,0.041-0.332,0.1-0.539l1.219-4.523H320.811z"/>
		<path fill="#2F2F2F" d="M322.416,122.471c-0.172,0-0.318-0.059-0.439-0.176s-0.182-0.266-0.182-0.445s0.061-0.329,0.182-0.448
			s0.268-0.179,0.439-0.179c0.176,0,0.325,0.06,0.448,0.179s0.185,0.269,0.185,0.448c0,0.172-0.062,0.318-0.185,0.439
			S322.592,122.471,322.416,122.471z M322.885,129.995h-0.961v-6h0.961V129.995z"/>
		<path fill="#2F2F2F" d="M329.692,129.995h-0.961v-3.422c0-1.273-0.465-1.91-1.395-1.91c-0.48,0-0.878,0.181-1.192,0.542
			s-0.472,0.817-0.472,1.368v3.422h-0.961v-6h0.961v0.996h0.023c0.453-0.758,1.109-1.137,1.969-1.137
			c0.656,0,1.158,0.212,1.506,0.636s0.521,1.036,0.521,1.837V129.995z"/>
		<path fill="#2F2F2F" d="M336.624,129.995h-0.961v-1.02h-0.023c-0.445,0.773-1.133,1.16-2.062,1.16
			c-0.754,0-1.356-0.269-1.808-0.806s-0.677-1.269-0.677-2.194c0-0.992,0.25-1.787,0.75-2.385s1.166-0.896,1.998-0.896
			c0.824,0,1.424,0.324,1.799,0.973h0.023v-3.715h0.961V129.995z M335.663,127.282v-0.885c0-0.484-0.16-0.895-0.48-1.23
			s-0.727-0.504-1.219-0.504c-0.586,0-1.047,0.215-1.383,0.645s-0.504,1.023-0.504,1.781c0,0.691,0.161,1.237,0.483,1.638
			s0.755,0.601,1.298,0.601c0.535,0,0.97-0.193,1.304-0.58S335.663,127.872,335.663,127.282z"/>
		<path fill="#2F2F2F" d="M341.004,130.135c-0.887,0-1.595-0.28-2.124-0.841s-0.794-1.304-0.794-2.229
			c0-1.008,0.275-1.795,0.826-2.361s1.295-0.85,2.232-0.85c0.895,0,1.593,0.275,2.095,0.826s0.753,1.314,0.753,2.291
			c0,0.957-0.271,1.724-0.812,2.3S341.914,130.135,341.004,130.135z M341.074,124.663c-0.617,0-1.105,0.21-1.465,0.63
			s-0.539,0.999-0.539,1.737c0,0.711,0.182,1.271,0.545,1.682s0.85,0.615,1.459,0.615c0.621,0,1.099-0.201,1.433-0.604
			s0.501-0.975,0.501-1.717c0-0.75-0.167-1.328-0.501-1.734S341.695,124.663,341.074,124.663z"/>
		<path fill="#2F2F2F" d="M352.978,123.995l-1.799,6h-0.996l-1.236-4.295c-0.047-0.164-0.078-0.35-0.094-0.557h-0.023
			c-0.012,0.141-0.053,0.322-0.123,0.545l-1.342,4.307h-0.961l-1.816-6h1.008l1.242,4.512c0.039,0.137,0.066,0.316,0.082,0.539
			h0.047c0.012-0.172,0.047-0.355,0.105-0.551l1.383-4.5h0.879l1.242,4.523c0.039,0.145,0.068,0.324,0.088,0.539h0.047
			c0.008-0.152,0.041-0.332,0.1-0.539l1.219-4.523H352.978z"/>
	</g>
	<g>
		<rect x="398.801" y="106.712" fill="none" width="58.465" height="37.081"/>
		<path fill="#2F2F2F" d="M413.82,108.084h-3.281v2.906h3.035v0.885h-3.035v3.721h-0.984v-8.402h4.266V108.084z"/>
		<path fill="#2F2F2F" d="M419.984,112.836h-4.236c0.016,0.668,0.195,1.184,0.539,1.547s0.816,0.545,1.418,0.545
			c0.676,0,1.297-0.223,1.863-0.668v0.902c-0.527,0.383-1.225,0.574-2.092,0.574c-0.848,0-1.514-0.272-1.998-0.817
			s-0.727-1.312-0.727-2.3c0-0.934,0.265-1.694,0.794-2.282s1.187-0.882,1.972-0.882s1.393,0.254,1.822,0.762
			s0.645,1.213,0.645,2.115V112.836z M419,112.021c-0.004-0.555-0.138-0.986-0.401-1.295s-0.63-0.463-1.099-0.463
			c-0.453,0-0.838,0.162-1.154,0.486s-0.512,0.748-0.586,1.271H419z"/>
		<path fill="#2F2F2F" d="M425.684,115.595h-0.961v-0.938H424.7c-0.418,0.719-1.033,1.078-1.846,1.078
			c-0.598,0-1.065-0.158-1.403-0.475s-0.507-0.736-0.507-1.26c0-1.121,0.66-1.773,1.98-1.957l1.799-0.252
			c0-1.02-0.412-1.529-1.236-1.529c-0.723,0-1.375,0.246-1.957,0.738v-0.984c0.59-0.375,1.27-0.562,2.039-0.562
			c1.41,0,2.115,0.746,2.115,2.238V115.595z M424.723,112.56l-1.447,0.199c-0.445,0.062-0.781,0.173-1.008,0.331
			s-0.34,0.438-0.34,0.841c0,0.293,0.104,0.532,0.313,0.718s0.487,0.278,0.835,0.278c0.477,0,0.87-0.167,1.181-0.501
			s0.466-0.757,0.466-1.269V112.56z"/>
		<path fill="#2F2F2F" d="M430.201,115.537c-0.227,0.125-0.525,0.188-0.896,0.188c-1.051,0-1.576-0.586-1.576-1.758v-3.551h-1.031
			v-0.82h1.031v-1.465l0.961-0.311v1.775h1.512v0.82h-1.512v3.381c0,0.402,0.068,0.689,0.205,0.861s0.363,0.258,0.68,0.258
			c0.242,0,0.451-0.066,0.627-0.199V115.537z"/>
		<path fill="#2F2F2F" d="M436.312,115.595h-0.961v-0.949h-0.023c-0.398,0.727-1.016,1.09-1.852,1.09
			c-1.43,0-2.145-0.852-2.145-2.555v-3.586h0.955v3.434c0,1.266,0.484,1.898,1.453,1.898c0.469,0,0.854-0.173,1.157-0.519
			s0.454-0.798,0.454-1.356v-3.457h0.961V115.595z"/>
		<path fill="#2F2F2F" d="M441.257,110.568c-0.168-0.129-0.41-0.193-0.727-0.193c-0.41,0-0.753,0.193-1.028,0.58
			s-0.413,0.914-0.413,1.582v3.059h-0.961v-6h0.961v1.236h0.023c0.137-0.422,0.346-0.751,0.627-0.987s0.596-0.354,0.943-0.354
			c0.25,0,0.441,0.027,0.574,0.082V110.568z"/>
		<path fill="#2F2F2F" d="M447.135,112.836h-4.236c0.016,0.668,0.195,1.184,0.539,1.547s0.816,0.545,1.418,0.545
			c0.676,0,1.297-0.223,1.863-0.668v0.902c-0.527,0.383-1.225,0.574-2.092,0.574c-0.848,0-1.514-0.272-1.998-0.817
			s-0.727-1.312-0.727-2.3c0-0.934,0.265-1.694,0.794-2.282s1.187-0.882,1.972-0.882s1.393,0.254,1.822,0.762
			s0.645,1.213,0.645,2.115V112.836z M446.151,112.021c-0.004-0.555-0.138-0.986-0.401-1.295s-0.63-0.463-1.099-0.463
			c-0.453,0-0.838,0.162-1.154,0.486s-0.512,0.748-0.586,1.271H446.151z"/>
		<path fill="#2F2F2F" d="M416.146,123.995l-1.799,6h-0.996l-1.236-4.295c-0.047-0.164-0.078-0.35-0.094-0.557h-0.023
			c-0.012,0.141-0.053,0.322-0.123,0.545l-1.342,4.307h-0.961l-1.816-6h1.008l1.242,4.512c0.039,0.137,0.066,0.316,0.082,0.539
			h0.047c0.012-0.172,0.047-0.355,0.105-0.551l1.383-4.5h0.879l1.242,4.523c0.039,0.145,0.068,0.324,0.088,0.539h0.047
			c0.008-0.152,0.041-0.332,0.1-0.539l1.219-4.523H416.146z"/>
		<path fill="#2F2F2F" d="M417.751,122.471c-0.172,0-0.318-0.059-0.439-0.176s-0.182-0.266-0.182-0.445s0.061-0.329,0.182-0.448
			s0.268-0.179,0.439-0.179c0.176,0,0.325,0.06,0.448,0.179s0.185,0.269,0.185,0.448c0,0.172-0.062,0.318-0.185,0.439
			S417.927,122.471,417.751,122.471z M418.22,129.995h-0.961v-6h0.961V129.995z"/>
		<path fill="#2F2F2F" d="M425.027,129.995h-0.961v-3.422c0-1.273-0.465-1.91-1.395-1.91c-0.48,0-0.878,0.181-1.192,0.542
			s-0.472,0.817-0.472,1.368v3.422h-0.961v-6h0.961v0.996h0.023c0.453-0.758,1.109-1.137,1.969-1.137
			c0.656,0,1.158,0.212,1.506,0.636s0.521,1.036,0.521,1.837V129.995z"/>
		<path fill="#2F2F2F" d="M431.959,129.995h-0.961v-1.02h-0.023c-0.445,0.773-1.133,1.16-2.062,1.16
			c-0.754,0-1.356-0.269-1.808-0.806s-0.677-1.269-0.677-2.194c0-0.992,0.25-1.787,0.75-2.385s1.166-0.896,1.998-0.896
			c0.824,0,1.424,0.324,1.799,0.973h0.023v-3.715h0.961V129.995z M430.998,127.282v-0.885c0-0.484-0.16-0.895-0.48-1.23
			s-0.727-0.504-1.219-0.504c-0.586,0-1.047,0.215-1.383,0.645s-0.504,1.023-0.504,1.781c0,0.691,0.161,1.237,0.483,1.638
			s0.755,0.601,1.298,0.601c0.535,0,0.97-0.193,1.304-0.58S430.998,127.872,430.998,127.282z"/>
		<path fill="#2F2F2F" d="M436.339,130.135c-0.887,0-1.595-0.28-2.124-0.841s-0.794-1.304-0.794-2.229
			c0-1.008,0.275-1.795,0.826-2.361s1.295-0.85,2.232-0.85c0.895,0,1.593,0.275,2.095,0.826s0.753,1.314,0.753,2.291
			c0,0.957-0.271,1.724-0.812,2.3S437.249,130.135,436.339,130.135z M436.409,124.663c-0.617,0-1.105,0.21-1.465,0.63
			s-0.539,0.999-0.539,1.737c0,0.711,0.182,1.271,0.545,1.682s0.85,0.615,1.459,0.615c0.621,0,1.099-0.201,1.433-0.604
			s0.501-0.975,0.501-1.717c0-0.75-0.167-1.328-0.501-1.734S437.03,124.663,436.409,124.663z"/>
		<path fill="#2F2F2F" d="M448.313,123.995l-1.799,6h-0.996l-1.236-4.295c-0.047-0.164-0.078-0.35-0.094-0.557h-0.023
			c-0.012,0.141-0.053,0.322-0.123,0.545l-1.342,4.307h-0.961l-1.816-6h1.008l1.242,4.512c0.039,0.137,0.066,0.316,0.082,0.539
			h0.047c0.012-0.172,0.047-0.355,0.105-0.551l1.383-4.5h0.879l1.242,4.523c0.039,0.145,0.068,0.324,0.088,0.539h0.047
			c0.008-0.152,0.041-0.332,0.1-0.539l1.219-4.523H448.313z"/>
	</g>
	<g>
		<rect x="494.488" y="106.712" fill="none" width="58.465" height="37.081"/>
		<path fill="#2F2F2F" d="M509.507,108.084h-3.281v2.906h3.035v0.885h-3.035v3.721h-0.984v-8.402h4.266V108.084z"/>
		<path fill="#2F2F2F" d="M515.671,112.836h-4.236c0.016,0.668,0.195,1.184,0.539,1.547s0.816,0.545,1.418,0.545
			c0.676,0,1.297-0.223,1.863-0.668v0.902c-0.527,0.383-1.225,0.574-2.092,0.574c-0.848,0-1.514-0.272-1.998-0.817
			s-0.727-1.312-0.727-2.3c0-0.934,0.265-1.694,0.794-2.282s1.187-0.882,1.972-0.882s1.393,0.254,1.822,0.762
			s0.645,1.213,0.645,2.115V112.836z M514.687,112.021c-0.004-0.555-0.138-0.986-0.401-1.295s-0.63-0.463-1.099-0.463
			c-0.453,0-0.838,0.162-1.154,0.486s-0.512,0.748-0.586,1.271H514.687z"/>
		<path fill="#2F2F2F" d="M521.371,115.595h-0.961v-0.938h-0.023c-0.418,0.719-1.033,1.078-1.846,1.078
			c-0.598,0-1.065-0.158-1.403-0.475s-0.507-0.736-0.507-1.26c0-1.121,0.66-1.773,1.98-1.957l1.799-0.252
			c0-1.02-0.412-1.529-1.236-1.529c-0.723,0-1.375,0.246-1.957,0.738v-0.984c0.59-0.375,1.27-0.562,2.039-0.562
			c1.41,0,2.115,0.746,2.115,2.238V115.595z M520.41,112.56l-1.447,0.199c-0.445,0.062-0.781,0.173-1.008,0.331
			s-0.34,0.438-0.34,0.841c0,0.293,0.104,0.532,0.313,0.718s0.487,0.278,0.835,0.278c0.477,0,0.87-0.167,1.181-0.501
			s0.466-0.757,0.466-1.269V112.56z"/>
		<path fill="#2F2F2F" d="M525.888,115.537c-0.227,0.125-0.525,0.188-0.896,0.188c-1.051,0-1.576-0.586-1.576-1.758v-3.551h-1.031
			v-0.82h1.031v-1.465l0.961-0.311v1.775h1.512v0.82h-1.512v3.381c0,0.402,0.068,0.689,0.205,0.861s0.363,0.258,0.68,0.258
			c0.242,0,0.451-0.066,0.627-0.199V115.537z"/>
		<path fill="#2F2F2F" d="M531.999,115.595h-0.961v-0.949h-0.023c-0.398,0.727-1.016,1.09-1.852,1.09
			c-1.43,0-2.145-0.852-2.145-2.555v-3.586h0.955v3.434c0,1.266,0.484,1.898,1.453,1.898c0.469,0,0.854-0.173,1.157-0.519
			s0.454-0.798,0.454-1.356v-3.457h0.961V115.595z"/>
		<path fill="#2F2F2F" d="M536.944,110.568c-0.168-0.129-0.41-0.193-0.727-0.193c-0.41,0-0.753,0.193-1.028,0.58
			s-0.413,0.914-0.413,1.582v3.059h-0.961v-6h0.961v1.236h0.023c0.137-0.422,0.346-0.751,0.627-0.987s0.596-0.354,0.943-0.354
			c0.25,0,0.441,0.027,0.574,0.082V110.568z"/>
		<path fill="#2F2F2F" d="M542.822,112.836h-4.236c0.016,0.668,0.195,1.184,0.539,1.547s0.816,0.545,1.418,0.545
			c0.676,0,1.297-0.223,1.863-0.668v0.902c-0.527,0.383-1.225,0.574-2.092,0.574c-0.848,0-1.514-0.272-1.998-0.817
			s-0.727-1.312-0.727-2.3c0-0.934,0.265-1.694,0.794-2.282s1.187-0.882,1.972-0.882s1.393,0.254,1.822,0.762
			s0.645,1.213,0.645,2.115V112.836z M541.838,112.021c-0.004-0.555-0.138-0.986-0.401-1.295s-0.63-0.463-1.099-0.463
			c-0.453,0-0.838,0.162-1.154,0.486s-0.512,0.748-0.586,1.271H541.838z"/>
		<path fill="#2F2F2F" d="M511.833,123.995l-1.799,6h-0.996l-1.236-4.295c-0.047-0.164-0.078-0.35-0.094-0.557h-0.023
			c-0.012,0.141-0.053,0.322-0.123,0.545l-1.342,4.307h-0.961l-1.816-6h1.008l1.242,4.512c0.039,0.137,0.066,0.316,0.082,0.539
			h0.047c0.012-0.172,0.047-0.355,0.105-0.551l1.383-4.5h0.879l1.242,4.523c0.039,0.145,0.068,0.324,0.088,0.539h0.047
			c0.008-0.152,0.041-0.332,0.1-0.539l1.219-4.523H511.833z"/>
		<path fill="#2F2F2F" d="M513.438,122.471c-0.172,0-0.318-0.059-0.439-0.176s-0.182-0.266-0.182-0.445s0.061-0.329,0.182-0.448
			s0.268-0.179,0.439-0.179c0.176,0,0.325,0.06,0.448,0.179s0.185,0.269,0.185,0.448c0,0.172-0.062,0.318-0.185,0.439
			S513.614,122.471,513.438,122.471z M513.907,129.995h-0.961v-6h0.961V129.995z"/>
		<path fill="#2F2F2F" d="M520.714,129.995h-0.961v-3.422c0-1.273-0.465-1.91-1.395-1.91c-0.48,0-0.878,0.181-1.192,0.542
			s-0.472,0.817-0.472,1.368v3.422h-0.961v-6h0.961v0.996h0.023c0.453-0.758,1.109-1.137,1.969-1.137
			c0.656,0,1.158,0.212,1.506,0.636s0.521,1.036,0.521,1.837V129.995z"/>
		<path fill="#2F2F2F" d="M527.646,129.995h-0.961v-1.02h-0.023c-0.445,0.773-1.133,1.16-2.062,1.16
			c-0.754,0-1.356-0.269-1.808-0.806s-0.677-1.269-0.677-2.194c0-0.992,0.25-1.787,0.75-2.385s1.166-0.896,1.998-0.896
			c0.824,0,1.424,0.324,1.799,0.973h0.023v-3.715h0.961V129.995z M526.685,127.282v-0.885c0-0.484-0.16-0.895-0.48-1.23
			s-0.727-0.504-1.219-0.504c-0.586,0-1.047,0.215-1.383,0.645s-0.504,1.023-0.504,1.781c0,0.691,0.161,1.237,0.483,1.638
			s0.755,0.601,1.298,0.601c0.535,0,0.97-0.193,1.304-0.58S526.685,127.872,526.685,127.282z"/>
		<path fill="#2F2F2F" d="M532.026,130.135c-0.887,0-1.595-0.28-2.124-0.841s-0.794-1.304-0.794-2.229
			c0-1.008,0.275-1.795,0.826-2.361s1.295-0.85,2.232-0.85c0.895,0,1.593,0.275,2.095,0.826s0.753,1.314,0.753,2.291
			c0,0.957-0.271,1.724-0.812,2.3S532.936,130.135,532.026,130.135z M532.096,124.663c-0.617,0-1.105,0.21-1.465,0.63
			s-0.539,0.999-0.539,1.737c0,0.711,0.182,1.271,0.545,1.682s0.85,0.615,1.459,0.615c0.621,0,1.099-0.201,1.433-0.604
			s0.501-0.975,0.501-1.717c0-0.75-0.167-1.328-0.501-1.734S532.717,124.663,532.096,124.663z"/>
		<path fill="#2F2F2F" d="M544,123.995l-1.799,6h-0.996l-1.236-4.295c-0.047-0.164-0.078-0.35-0.094-0.557h-0.023
			c-0.012,0.141-0.053,0.322-0.123,0.545l-1.342,4.307h-0.961l-1.816-6h1.008l1.242,4.512c0.039,0.137,0.066,0.316,0.082,0.539
			h0.047c0.012-0.172,0.047-0.355,0.105-0.551l1.383-4.5h0.879l1.242,4.523c0.039,0.145,0.068,0.324,0.088,0.539h0.047
			c0.008-0.152,0.041-0.332,0.1-0.539l1.219-4.523H544z"/>
	</g>
	<g>
		<rect x="588.671" y="106.712" fill="none" width="58.465" height="37.081"/>
		<path fill="#2F2F2F" d="M603.689,108.084h-3.281v2.906h3.035v0.885h-3.035v3.721h-0.984v-8.402h4.266V108.084z"/>
		<path fill="#2F2F2F" d="M609.854,112.836h-4.236c0.016,0.668,0.195,1.184,0.539,1.547s0.816,0.545,1.418,0.545
			c0.676,0,1.297-0.223,1.863-0.668v0.902c-0.527,0.383-1.225,0.574-2.092,0.574c-0.848,0-1.514-0.272-1.998-0.817
			s-0.727-1.312-0.727-2.3c0-0.934,0.265-1.694,0.794-2.282s1.187-0.882,1.972-0.882s1.393,0.254,1.822,0.762
			s0.645,1.213,0.645,2.115V112.836z M608.87,112.021c-0.004-0.555-0.138-0.986-0.401-1.295s-0.63-0.463-1.099-0.463
			c-0.453,0-0.838,0.162-1.154,0.486s-0.512,0.748-0.586,1.271H608.87z"/>
		<path fill="#2F2F2F" d="M615.555,115.595h-0.961v-0.938h-0.023c-0.418,0.719-1.033,1.078-1.846,1.078
			c-0.598,0-1.065-0.158-1.403-0.475s-0.507-0.736-0.507-1.26c0-1.121,0.66-1.773,1.98-1.957l1.799-0.252
			c0-1.02-0.412-1.529-1.236-1.529c-0.723,0-1.375,0.246-1.957,0.738v-0.984c0.59-0.375,1.27-0.562,2.039-0.562
			c1.41,0,2.115,0.746,2.115,2.238V115.595z M614.594,112.56l-1.447,0.199c-0.445,0.062-0.781,0.173-1.008,0.331
			s-0.34,0.438-0.34,0.841c0,0.293,0.104,0.532,0.313,0.718s0.487,0.278,0.835,0.278c0.477,0,0.87-0.167,1.181-0.501
			s0.466-0.757,0.466-1.269V112.56z"/>
		<path fill="#2F2F2F" d="M620.071,115.537c-0.227,0.125-0.525,0.188-0.896,0.188c-1.051,0-1.576-0.586-1.576-1.758v-3.551h-1.031
			v-0.82h1.031v-1.465l0.961-0.311v1.775h1.512v0.82h-1.512v3.381c0,0.402,0.068,0.689,0.205,0.861s0.363,0.258,0.68,0.258
			c0.242,0,0.451-0.066,0.627-0.199V115.537z"/>
		<path fill="#2F2F2F" d="M626.182,115.595h-0.961v-0.949h-0.023c-0.398,0.727-1.016,1.09-1.852,1.09
			c-1.43,0-2.145-0.852-2.145-2.555v-3.586h0.955v3.434c0,1.266,0.484,1.898,1.453,1.898c0.469,0,0.854-0.173,1.157-0.519
			s0.454-0.798,0.454-1.356v-3.457h0.961V115.595z"/>
		<path fill="#2F2F2F" d="M631.127,110.568c-0.168-0.129-0.41-0.193-0.727-0.193c-0.41,0-0.753,0.193-1.028,0.58
			s-0.413,0.914-0.413,1.582v3.059h-0.961v-6h0.961v1.236h0.023c0.137-0.422,0.346-0.751,0.627-0.987s0.596-0.354,0.943-0.354
			c0.25,0,0.441,0.027,0.574,0.082V110.568z"/>
		<path fill="#2F2F2F" d="M637.005,112.836h-4.236c0.016,0.668,0.195,1.184,0.539,1.547s0.816,0.545,1.418,0.545
			c0.676,0,1.297-0.223,1.863-0.668v0.902c-0.527,0.383-1.225,0.574-2.092,0.574c-0.848,0-1.514-0.272-1.998-0.817
			s-0.727-1.312-0.727-2.3c0-0.934,0.265-1.694,0.794-2.282s1.187-0.882,1.972-0.882s1.393,0.254,1.822,0.762
			s0.645,1.213,0.645,2.115V112.836z M636.02,112.021c-0.004-0.555-0.138-0.986-0.401-1.295s-0.63-0.463-1.099-0.463
			c-0.453,0-0.838,0.162-1.154,0.486s-0.512,0.748-0.586,1.271H636.02z"/>
		<path fill="#2F2F2F" d="M606.015,123.995l-1.799,6h-0.996l-1.236-4.295c-0.047-0.164-0.078-0.35-0.094-0.557h-0.023
			c-0.012,0.141-0.053,0.322-0.123,0.545l-1.342,4.307h-0.961l-1.816-6h1.008l1.242,4.512c0.039,0.137,0.066,0.316,0.082,0.539
			h0.047c0.012-0.172,0.047-0.355,0.105-0.551l1.383-4.5h0.879l1.242,4.523c0.039,0.145,0.068,0.324,0.088,0.539h0.047
			c0.008-0.152,0.041-0.332,0.1-0.539l1.219-4.523H606.015z"/>
		<path fill="#2F2F2F" d="M607.621,122.471c-0.172,0-0.318-0.059-0.439-0.176S607,122.03,607,121.85s0.061-0.329,0.182-0.448
			s0.268-0.179,0.439-0.179c0.176,0,0.325,0.06,0.448,0.179s0.185,0.269,0.185,0.448c0,0.172-0.062,0.318-0.185,0.439
			S607.797,122.471,607.621,122.471z M608.09,129.995h-0.961v-6h0.961V129.995z"/>
		<path fill="#2F2F2F" d="M614.897,129.995h-0.961v-3.422c0-1.273-0.465-1.91-1.395-1.91c-0.48,0-0.878,0.181-1.192,0.542
			s-0.472,0.817-0.472,1.368v3.422h-0.961v-6h0.961v0.996h0.023c0.453-0.758,1.109-1.137,1.969-1.137
			c0.656,0,1.158,0.212,1.506,0.636s0.521,1.036,0.521,1.837V129.995z"/>
		<path fill="#2F2F2F" d="M621.829,129.995h-0.961v-1.02h-0.023c-0.445,0.773-1.133,1.16-2.062,1.16
			c-0.754,0-1.356-0.269-1.808-0.806s-0.677-1.269-0.677-2.194c0-0.992,0.25-1.787,0.75-2.385s1.166-0.896,1.998-0.896
			c0.824,0,1.424,0.324,1.799,0.973h0.023v-3.715h0.961V129.995z M620.868,127.282v-0.885c0-0.484-0.16-0.895-0.48-1.23
			s-0.727-0.504-1.219-0.504c-0.586,0-1.047,0.215-1.383,0.645s-0.504,1.023-0.504,1.781c0,0.691,0.161,1.237,0.483,1.638
			s0.755,0.601,1.298,0.601c0.535,0,0.97-0.193,1.304-0.58S620.868,127.872,620.868,127.282z"/>
		<path fill="#2F2F2F" d="M626.209,130.135c-0.887,0-1.595-0.28-2.124-0.841s-0.794-1.304-0.794-2.229
			c0-1.008,0.275-1.795,0.826-2.361s1.295-0.85,2.232-0.85c0.895,0,1.593,0.275,2.095,0.826s0.753,1.314,0.753,2.291
			c0,0.957-0.271,1.724-0.812,2.3S627.119,130.135,626.209,130.135z M626.279,124.663c-0.617,0-1.105,0.21-1.465,0.63
			s-0.539,0.999-0.539,1.737c0,0.711,0.182,1.271,0.545,1.682s0.85,0.615,1.459,0.615c0.621,0,1.099-0.201,1.433-0.604
			s0.501-0.975,0.501-1.717c0-0.75-0.167-1.328-0.501-1.734S626.9,124.663,626.279,124.663z"/>
		<path fill="#2F2F2F" d="M638.182,123.995l-1.799,6h-0.996l-1.236-4.295c-0.047-0.164-0.078-0.35-0.094-0.557h-0.023
			c-0.012,0.141-0.053,0.322-0.123,0.545l-1.342,4.307h-0.961l-1.816-6h1.008l1.242,4.512c0.039,0.137,0.066,0.316,0.082,0.539
			h0.047c0.012-0.172,0.047-0.355,0.105-0.551l1.383-4.5h0.879l1.242,4.523c0.039,0.145,0.068,0.324,0.088,0.539h0.047
			c0.008-0.152,0.041-0.332,0.1-0.539l1.219-4.523H638.182z"/>
	</g>
	<g>
		<g>
			<path fill="#2F2F2F" d="M43.471,174.536c0,1.312-0.304,2.316-0.913,3.014s-1.489,1.047-2.642,1.047
				c-0.515,0-0.991-0.09-1.429-0.268v-2.07c0.378,0.287,0.802,0.43,1.271,0.43c1.007,0,1.511-0.747,1.511-2.242v-5.824h2.201
				V174.536z"/>
			<path fill="#2F2F2F" d="M48.634,178.596c-1.167,0-2.084-0.328-2.751-0.981s-1.001-1.542-1.001-2.663
				c0-1.157,0.346-2.062,1.039-2.717s1.629-0.98,2.81-0.98c1.162,0,2.074,0.326,2.734,0.98s0.991,1.519,0.991,2.594
				c0,1.162-0.341,2.081-1.022,2.756C50.752,178.258,49.819,178.596,48.634,178.596z M48.688,172.909
				c-0.51,0-0.907,0.175-1.189,0.525c-0.283,0.352-0.424,0.848-0.424,1.49c0,1.345,0.542,2.018,1.627,2.018
				c1.035,0,1.552-0.691,1.552-2.072C50.254,173.562,49.732,172.909,48.688,172.909z"/>
			<path fill="#2F2F2F" d="M56.023,177.612h-0.027v0.812h-2.16v-10.363h2.16v4.416h0.027c0.533-0.815,1.292-1.223,2.276-1.223
				c0.902,0,1.597,0.31,2.085,0.93c0.488,0.619,0.731,1.467,0.731,2.543c0,1.166-0.285,2.103-0.854,2.809
				c-0.57,0.707-1.331,1.061-2.283,1.061C57.117,178.596,56.465,178.268,56.023,177.612z M55.961,174.659v0.717
				c0,0.451,0.13,0.825,0.39,1.121c0.26,0.297,0.592,0.445,0.998,0.445c0.492,0,0.874-0.191,1.145-0.571s0.407-0.919,0.407-1.616
				c0-0.579-0.124-1.031-0.373-1.357s-0.603-0.488-1.063-0.488c-0.433,0-0.792,0.161-1.077,0.484
				C56.104,173.717,55.961,174.139,55.961,174.659z"/>
			<path fill="#2F2F2F" d="M65.921,178.241v-1.75c0.355,0.214,0.71,0.373,1.063,0.479c0.353,0.104,0.687,0.156,1.001,0.156
				c0.383,0,0.685-0.052,0.906-0.156c0.221-0.105,0.332-0.265,0.332-0.479c0-0.137-0.05-0.251-0.15-0.342
				c-0.1-0.092-0.229-0.172-0.386-0.24s-0.329-0.129-0.516-0.184s-0.367-0.117-0.54-0.186c-0.278-0.104-0.523-0.217-0.735-0.338
				s-0.39-0.261-0.533-0.42c-0.144-0.16-0.253-0.345-0.328-0.555c-0.075-0.209-0.113-0.457-0.113-0.744
				c0-0.393,0.085-0.729,0.256-1.012c0.171-0.283,0.399-0.514,0.684-0.694s0.611-0.312,0.978-0.396s0.749-0.126,1.145-0.126
				c0.31,0,0.625,0.023,0.943,0.071s0.633,0.117,0.943,0.208v1.668c-0.273-0.159-0.566-0.279-0.878-0.358s-0.619-0.12-0.919-0.12
				c-0.141,0-0.274,0.014-0.4,0.038s-0.236,0.062-0.332,0.109s-0.171,0.109-0.226,0.185s-0.082,0.16-0.082,0.256
				c0,0.128,0.041,0.237,0.123,0.328c0.082,0.092,0.189,0.17,0.321,0.236s0.279,0.125,0.441,0.178s0.322,0.105,0.482,0.16
				c0.287,0.101,0.547,0.21,0.779,0.328c0.232,0.119,0.432,0.258,0.598,0.418c0.167,0.159,0.294,0.346,0.383,0.561
				c0.089,0.214,0.133,0.469,0.133,0.766c0,0.414-0.09,0.769-0.27,1.062s-0.419,0.533-0.718,0.718s-0.643,0.319-1.032,0.403
				s-0.794,0.127-1.213,0.127C67.291,178.596,66.577,178.477,65.921,178.241z"/>
			<path fill="#2F2F2F" d="M77.887,178.173c-0.488,0.282-1.192,0.424-2.112,0.424c-1.076,0-1.946-0.326-2.611-0.979
				c-0.666-0.651-0.998-1.492-0.998-2.521c0-1.189,0.356-2.127,1.07-2.813s1.667-1.028,2.861-1.028c0.825,0,1.422,0.109,1.791,0.328
				v1.832c-0.451-0.338-0.955-0.506-1.511-0.506c-0.62,0-1.111,0.181-1.473,0.543s-0.543,0.862-0.543,1.5
				c0,0.62,0.173,1.107,0.52,1.46s0.823,0.53,1.429,0.53c0.538,0,1.064-0.169,1.579-0.506V178.173z"/>
			<path fill="#2F2F2F" d="M86.123,178.424H83.97v-3.979c0-1.025-0.374-1.537-1.121-1.537c-0.383,0-0.693,0.143-0.93,0.43
				s-0.355,0.652-0.355,1.094v3.992h-2.16v-10.363h2.16v4.402h0.027c0.529-0.807,1.247-1.209,2.153-1.209
				c1.586,0,2.379,0.957,2.379,2.871V178.424z"/>
			<path fill="#2F2F2F" d="M94.144,175.54h-4.566c0.073,1.017,0.713,1.525,1.921,1.525c0.77,0,1.447-0.183,2.03-0.547v1.559
				c-0.647,0.346-1.488,0.52-2.522,0.52c-1.13,0-2.007-0.314-2.632-0.94s-0.937-1.501-0.937-2.622c0-1.162,0.337-2.082,1.012-2.762
				c0.674-0.679,1.504-1.018,2.488-1.018c1.021,0,1.811,0.303,2.369,0.908c0.558,0.606,0.837,1.43,0.837,2.469V175.54z
				 M92.141,174.214c0-1.002-0.406-1.504-1.217-1.504c-0.346,0-0.646,0.145-0.899,0.432s-0.407,0.645-0.461,1.072H92.141z"/>
			<path fill="#2F2F2F" d="M102.389,178.424h-2.16v-0.963h-0.027c-0.492,0.756-1.214,1.135-2.167,1.135
				c-0.875,0-1.579-0.309-2.112-0.927s-0.8-1.479-0.8-2.587c0-1.158,0.294-2.086,0.882-2.783s1.358-1.045,2.311-1.045
				c0.902,0,1.531,0.323,1.887,0.971h0.027v-4.164h2.16V178.424z M100.27,175.02v-0.525c0-0.456-0.132-0.834-0.396-1.135
				s-0.608-0.451-1.032-0.451c-0.479,0-0.852,0.188-1.121,0.563s-0.403,0.892-0.403,1.548c0,0.615,0.13,1.09,0.39,1.422
				c0.26,0.333,0.62,0.5,1.08,0.5c0.438,0,0.794-0.176,1.07-0.527C100.133,176.064,100.27,175.599,100.27,175.02z"/>
			<path fill="#2F2F2F" d="M110.847,178.424h-2.153v-1.066h-0.034c-0.533,0.825-1.247,1.238-2.14,1.238
				c-1.623,0-2.434-0.982-2.434-2.947v-4.225h2.153v4.033c0,0.989,0.392,1.484,1.176,1.484c0.387,0,0.697-0.137,0.93-0.407
				s0.349-0.64,0.349-1.104v-4.006h2.153V178.424z"/>
			<path fill="#2F2F2F" d="M114.775,178.424h-2.16v-10.363h2.16V178.424z"/>
			<path fill="#2F2F2F" d="M122.89,175.54h-4.566c0.073,1.017,0.713,1.525,1.921,1.525c0.77,0,1.447-0.183,2.03-0.547v1.559
				c-0.647,0.346-1.488,0.52-2.522,0.52c-1.13,0-2.007-0.314-2.632-0.94s-0.937-1.501-0.937-2.622c0-1.162,0.337-2.082,1.012-2.762
				c0.674-0.679,1.504-1.018,2.488-1.018c1.021,0,1.811,0.303,2.369,0.908c0.558,0.606,0.837,1.43,0.837,2.469V175.54z
				 M120.888,174.214c0-1.002-0.406-1.504-1.217-1.504c-0.346,0-0.646,0.145-0.899,0.432s-0.407,0.645-0.461,1.072H120.888z"/>
			<path fill="#2F2F2F" d="M71.039,195.143c-0.319,0.168-0.8,0.252-1.442,0.252c-1.522,0-2.283-0.79-2.283-2.371v-3.207h-1.135
				v-1.592h1.135v-1.512l2.153-0.615v2.127h1.572v1.592h-1.572v2.83c0,0.729,0.29,1.094,0.868,1.094
				c0.228,0,0.462-0.065,0.704-0.197V195.143z"/>
			<path fill="#2F2F2F" d="M73.417,187.118c-0.365,0-0.663-0.109-0.896-0.325s-0.349-0.481-0.349-0.796
				c0-0.324,0.116-0.588,0.349-0.793s0.531-0.309,0.896-0.309c0.369,0,0.669,0.104,0.899,0.309s0.345,0.469,0.345,0.793
				c0,0.328-0.115,0.597-0.345,0.807C74.086,187.012,73.786,187.118,73.417,187.118z M74.484,195.225h-2.16v-7h2.16V195.225z"/>
			<path fill="#2F2F2F" d="M87.381,195.225h-2.153v-3.992c0-1.017-0.374-1.525-1.121-1.525c-0.355,0-0.645,0.153-0.868,0.459
				c-0.223,0.305-0.335,0.686-0.335,1.141v3.918h-2.16v-4.033c0-0.989-0.367-1.484-1.101-1.484c-0.369,0-0.664,0.146-0.885,0.438
				c-0.221,0.292-0.332,0.688-0.332,1.189v3.891h-2.16v-7h2.16v1.094h0.027c0.223-0.374,0.537-0.678,0.94-0.913
				s0.844-0.353,1.323-0.353c0.989,0,1.666,0.436,2.03,1.307c0.533-0.871,1.317-1.307,2.352-1.307c1.522,0,2.283,0.939,2.283,2.816
				V195.225z"/>
			<path fill="#2F2F2F" d="M95.401,192.34h-4.566c0.073,1.016,0.713,1.523,1.921,1.523c0.77,0,1.447-0.182,2.03-0.547v1.559
				c-0.647,0.347-1.488,0.52-2.522,0.52c-1.13,0-2.007-0.312-2.632-0.939s-0.937-1.5-0.937-2.621c0-1.162,0.337-2.083,1.012-2.762
				c0.674-0.68,1.504-1.02,2.488-1.02c1.021,0,1.811,0.304,2.369,0.91c0.558,0.605,0.837,1.428,0.837,2.467V192.34z M93.398,191.014
				c0-1.003-0.406-1.504-1.217-1.504c-0.346,0-0.646,0.143-0.899,0.43s-0.407,0.646-0.461,1.074H93.398z"/>
		</g>
	</g>
	<g>
		<g>
			<path fill="#2F2F2F" d="M43.493,41.242h-3.459v2.406h3.179v1.791h-3.179v3.808h-2.208v-9.803h5.667V41.242z"/>
			<path fill="#2F2F2F" d="M51.037,46.362h-4.566c0.073,1.016,0.713,1.524,1.921,1.524c0.77,0,1.447-0.183,2.03-0.547v1.559
				c-0.647,0.346-1.488,0.52-2.522,0.52c-1.13,0-2.007-0.313-2.632-0.94c-0.625-0.626-0.937-1.5-0.937-2.621
				c0-1.162,0.337-2.083,1.012-2.762c0.674-0.68,1.504-1.019,2.488-1.019c1.021,0,1.811,0.303,2.369,0.909
				c0.558,0.605,0.837,1.429,0.837,2.468V46.362z M49.034,45.036c0-1.003-0.406-1.504-1.217-1.504c-0.346,0-0.646,0.144-0.899,0.431
				s-0.407,0.645-0.461,1.073H49.034z"/>
			<path fill="#2F2F2F" d="M58.202,49.247h-2.044v-1.005h-0.027c-0.469,0.783-1.165,1.176-2.085,1.176
				c-0.679,0-1.213-0.192-1.603-0.578c-0.39-0.385-0.584-0.898-0.584-1.541c0-1.358,0.804-2.143,2.413-2.352l1.9-0.253
				c0-0.766-0.415-1.148-1.244-1.148c-0.834,0-1.627,0.248-2.379,0.745v-1.627c0.301-0.155,0.712-0.292,1.234-0.41
				c0.522-0.119,0.997-0.178,1.425-0.178c1.996,0,2.994,0.995,2.994,2.987V49.247z M56.172,46.403v-0.472l-1.271,0.164
				c-0.702,0.091-1.053,0.407-1.053,0.95c0,0.246,0.085,0.447,0.256,0.604s0.402,0.236,0.694,0.236c0.406,0,0.736-0.141,0.991-0.421
				S56.172,46.831,56.172,46.403z"/>
			<path fill="#2F2F2F" d="M64.031,49.165c-0.319,0.168-0.8,0.253-1.442,0.253c-1.522,0-2.283-0.791-2.283-2.372V43.84H59.17v-1.593
				h1.135v-1.511l2.153-0.615v2.126h1.572v1.593h-1.572v2.83c0,0.729,0.29,1.094,0.868,1.094c0.228,0,0.462-0.066,0.704-0.198
				V49.165z"/>
			<path fill="#2F2F2F" d="M71.995,49.247h-2.153V48.18h-0.034c-0.533,0.824-1.247,1.237-2.14,1.237
				c-1.623,0-2.434-0.982-2.434-2.946v-4.225h2.153v4.033c0,0.988,0.392,1.483,1.176,1.483c0.387,0,0.697-0.136,0.93-0.407
				c0.232-0.271,0.349-0.639,0.349-1.104v-4.006h2.153V49.247z"/>
			<path fill="#2F2F2F" d="M78.33,44.195c-0.26-0.142-0.563-0.212-0.909-0.212c-0.469,0-0.836,0.172-1.101,0.516
				c-0.264,0.345-0.396,0.812-0.396,1.405v3.343h-2.16v-7h2.16v1.299h0.027c0.342-0.948,0.957-1.422,1.846-1.422
				c0.228,0,0.406,0.027,0.533,0.082V44.195z"/>
			<path fill="#2F2F2F" d="M85.702,46.362h-4.566c0.073,1.016,0.713,1.524,1.921,1.524c0.77,0,1.447-0.183,2.03-0.547v1.559
				c-0.647,0.346-1.488,0.52-2.522,0.52c-1.13,0-2.007-0.313-2.632-0.94c-0.625-0.626-0.937-1.5-0.937-2.621
				c0-1.162,0.337-2.083,1.012-2.762c0.674-0.68,1.504-1.019,2.488-1.019c1.021,0,1.811,0.303,2.369,0.909
				c0.558,0.605,0.837,1.429,0.837,2.468V46.362z M83.699,45.036c0-1.003-0.406-1.504-1.217-1.504c-0.346,0-0.646,0.144-0.899,0.431
				s-0.407,0.645-0.461,1.073H83.699z"/>
			<path fill="#2F2F2F" d="M97.514,42.247l-2.604,7h-2.461l-2.481-7h2.311l1.217,4.313c0.137,0.487,0.216,0.902,0.239,1.244h0.027
				c0.032-0.324,0.116-0.725,0.253-1.203l1.244-4.354H97.514z"/>
			<path fill="#2F2F2F" d="M104.171,49.247h-2.044v-1.005h-0.027c-0.469,0.783-1.165,1.176-2.085,1.176
				c-0.679,0-1.213-0.192-1.603-0.578c-0.39-0.385-0.584-0.898-0.584-1.541c0-1.358,0.804-2.143,2.413-2.352l1.9-0.253
				c0-0.766-0.415-1.148-1.244-1.148c-0.834,0-1.627,0.248-2.379,0.745v-1.627c0.301-0.155,0.712-0.292,1.234-0.41
				c0.522-0.119,0.997-0.178,1.425-0.178c1.996,0,2.994,0.995,2.994,2.987V49.247z M102.14,46.403v-0.472l-1.271,0.164
				c-0.702,0.091-1.053,0.407-1.053,0.95c0,0.246,0.085,0.447,0.256,0.604s0.402,0.236,0.694,0.236c0.406,0,0.736-0.141,0.991-0.421
				S102.14,46.831,102.14,46.403z"/>
			<path fill="#2F2F2F" d="M108.029,49.247h-2.16V38.883h2.16V49.247z"/>
			<path fill="#2F2F2F" d="M116.487,49.247h-2.153V48.18H114.3c-0.533,0.824-1.247,1.237-2.14,1.237
				c-1.623,0-2.434-0.982-2.434-2.946v-4.225h2.153v4.033c0,0.988,0.392,1.483,1.176,1.483c0.387,0,0.697-0.136,0.93-0.407
				c0.232-0.271,0.349-0.639,0.349-1.104v-4.006h2.153V49.247z"/>
			<path fill="#2F2F2F" d="M124.595,46.362h-4.566c0.073,1.016,0.713,1.524,1.921,1.524c0.77,0,1.447-0.183,2.03-0.547v1.559
				c-0.647,0.346-1.488,0.52-2.522,0.52c-1.13,0-2.007-0.313-2.632-0.94c-0.625-0.626-0.937-1.5-0.937-2.621
				c0-1.162,0.337-2.083,1.012-2.762c0.674-0.68,1.504-1.019,2.488-1.019c1.021,0,1.811,0.303,2.369,0.909
				c0.558,0.605,0.837,1.429,0.837,2.468V46.362z M122.592,45.036c0-1.003-0.406-1.504-1.217-1.504
				c-0.346,0-0.646,0.144-0.899,0.431s-0.407,0.645-0.461,1.073H122.592z"/>
			<path fill="#2F2F2F" d="M61.322,65.965c-0.319,0.168-0.8,0.253-1.442,0.253c-1.522,0-2.283-0.791-2.283-2.372v-3.206h-1.135
				v-1.593h1.135v-1.511l2.153-0.615v2.126h1.572v1.593H59.75v2.83c0,0.729,0.29,1.094,0.868,1.094c0.228,0,0.462-0.066,0.704-0.198
				V65.965z"/>
			<path fill="#2F2F2F" d="M63.7,57.939c-0.365,0-0.663-0.108-0.896-0.325c-0.232-0.216-0.349-0.481-0.349-0.796
				c0-0.324,0.116-0.588,0.349-0.793s0.531-0.308,0.896-0.308c0.369,0,0.669,0.103,0.899,0.308s0.345,0.469,0.345,0.793
				c0,0.328-0.115,0.597-0.345,0.807C64.369,57.834,64.069,57.939,63.7,57.939z M64.766,66.047h-2.16v-7h2.16V66.047z"/>
			<path fill="#2F2F2F" d="M77.663,66.047H75.51v-3.992c0-1.017-0.374-1.524-1.121-1.524c-0.355,0-0.645,0.152-0.868,0.458
				c-0.223,0.305-0.335,0.686-0.335,1.142v3.917h-2.16v-4.033c0-0.989-0.367-1.483-1.101-1.483c-0.369,0-0.664,0.146-0.885,0.438
				c-0.221,0.291-0.332,0.688-0.332,1.189v3.89h-2.16v-7h2.16v1.094h0.027c0.223-0.374,0.537-0.678,0.94-0.913
				c0.403-0.234,0.844-0.352,1.323-0.352c0.989,0,1.666,0.435,2.03,1.306c0.533-0.871,1.317-1.306,2.352-1.306
				c1.522,0,2.283,0.938,2.283,2.816V66.047z"/>
			<path fill="#2F2F2F" d="M85.684,63.162h-4.566c0.073,1.016,0.713,1.524,1.921,1.524c0.77,0,1.447-0.183,2.03-0.547v1.559
				c-0.647,0.346-1.488,0.52-2.522,0.52c-1.13,0-2.007-0.313-2.632-0.94c-0.625-0.626-0.937-1.5-0.937-2.621
				c0-1.162,0.337-2.083,1.012-2.762c0.674-0.68,1.504-1.019,2.488-1.019c1.021,0,1.811,0.303,2.369,0.909
				c0.558,0.605,0.837,1.429,0.837,2.468V63.162z M83.681,61.836c0-1.003-0.406-1.504-1.217-1.504c-0.346,0-0.646,0.144-0.899,0.431
				s-0.407,0.645-0.461,1.073H83.681z"/>
			<path fill="#2F2F2F" d="M86.672,65.862v-1.75c0.355,0.214,0.71,0.373,1.063,0.479c0.353,0.104,0.687,0.157,1.001,0.157
				c0.383,0,0.685-0.053,0.906-0.157c0.221-0.105,0.332-0.265,0.332-0.479c0-0.137-0.05-0.251-0.15-0.342
				c-0.1-0.092-0.229-0.171-0.386-0.239s-0.329-0.13-0.516-0.185s-0.367-0.116-0.54-0.185c-0.278-0.105-0.523-0.218-0.735-0.339
				c-0.212-0.12-0.39-0.261-0.533-0.42c-0.144-0.16-0.253-0.345-0.328-0.554c-0.075-0.21-0.113-0.458-0.113-0.745
				c0-0.393,0.085-0.729,0.256-1.012c0.171-0.283,0.399-0.514,0.684-0.694c0.285-0.18,0.611-0.312,0.978-0.396
				c0.367-0.084,0.749-0.126,1.145-0.126c0.31,0,0.625,0.023,0.943,0.071s0.633,0.117,0.943,0.209v1.668
				c-0.273-0.16-0.566-0.279-0.878-0.359c-0.312-0.079-0.619-0.119-0.919-0.119c-0.141,0-0.274,0.013-0.4,0.037
				c-0.125,0.025-0.236,0.062-0.332,0.109s-0.171,0.109-0.226,0.185s-0.082,0.161-0.082,0.257c0,0.127,0.041,0.236,0.123,0.328
				c0.082,0.091,0.189,0.17,0.321,0.235c0.132,0.066,0.279,0.126,0.441,0.178c0.162,0.053,0.322,0.106,0.482,0.161
				c0.287,0.1,0.547,0.209,0.779,0.328c0.232,0.118,0.432,0.257,0.598,0.417c0.167,0.159,0.294,0.346,0.383,0.561
				c0.089,0.214,0.133,0.469,0.133,0.766c0,0.414-0.09,0.769-0.27,1.062s-0.419,0.533-0.718,0.718s-0.643,0.319-1.032,0.403
				c-0.39,0.085-0.794,0.127-1.213,0.127C88.042,66.217,87.328,66.098,86.672,65.862z"/>
			<path fill="#2F2F2F" d="M99.622,63.162h-4.566c0.073,1.016,0.713,1.524,1.921,1.524c0.77,0,1.447-0.183,2.03-0.547v1.559
				c-0.647,0.346-1.488,0.52-2.522,0.52c-1.13,0-2.007-0.313-2.632-0.94c-0.625-0.626-0.937-1.5-0.937-2.621
				c0-1.162,0.337-2.083,1.012-2.762c0.674-0.68,1.504-1.019,2.488-1.019c1.021,0,1.811,0.303,2.369,0.909
				c0.558,0.605,0.837,1.429,0.837,2.468V63.162z M97.619,61.836c0-1.003-0.406-1.504-1.217-1.504c-0.346,0-0.646,0.144-0.899,0.431
				s-0.407,0.645-0.461,1.073H97.619z"/>
			<path fill="#2F2F2F" d="M105.187,65.965c-0.319,0.168-0.8,0.253-1.442,0.253c-1.522,0-2.283-0.791-2.283-2.372v-3.206h-1.135
				v-1.593h1.135v-1.511l2.153-0.615v2.126h1.572v1.593h-1.572v2.83c0,0.729,0.29,1.094,0.868,1.094
				c0.228,0,0.462-0.066,0.704-0.198V65.965z"/>
		</g>
	</g>
	<g>
		<path fill="#2F2F2F" d="M286.041,228.436v-1.111c0.852,0.449,1.564,0.675,2.139,0.675c0.301,0,0.575-0.059,0.823-0.177
			c0.248-0.117,0.445-0.313,0.592-0.589c0.146-0.276,0.22-0.866,0.22-1.77v-5.018h-2.045v-0.908h3.229v5.953
			c0,0.969-0.11,1.666-0.331,2.092s-0.53,0.753-0.929,0.981s-0.908,0.343-1.529,0.343
			C287.514,228.908,286.791,228.751,286.041,228.436z"/>
		<path fill="#2F2F2F" d="M295.704,228.814c-0.937,0-1.686-0.327-2.248-0.981s-0.843-1.479-0.843-2.476s0.281-1.82,0.843-2.473
			s1.312-0.979,2.248-0.979c0.933,0,1.68,0.326,2.242,0.979c0.562,0.652,0.843,1.477,0.843,2.473s-0.281,1.821-0.843,2.476
			C297.384,228.487,296.637,228.814,295.704,228.814z M295.704,227.906c0.581,0,1.043-0.227,1.387-0.68
			c0.343-0.453,0.515-1.076,0.515-1.869c0-0.789-0.172-1.41-0.515-1.863c-0.343-0.453-0.806-0.68-1.387-0.68
			c-0.585,0-1.049,0.227-1.393,0.68s-0.515,1.074-0.515,1.863c0,0.793,0.171,1.416,0.515,1.869S295.119,227.906,295.704,227.906z"/>
		<path fill="#2F2F2F" d="M301.228,223.559c0.336-0.548,0.736-0.96,1.201-1.237s0.893-0.416,1.283-0.416
			c0.547,0,1.039,0.236,1.477,0.709s0.656,1.189,0.656,2.15c0,0.758-0.146,1.435-0.437,2.03s-0.679,1.066-1.163,1.412
			s-1.084,0.519-1.799,0.519c-0.203,0-0.516-0.021-0.938-0.064c-0.062-0.008-0.156-0.018-0.281-0.029h-1.09v-9.457h1.09V223.559z
			 M301.228,224.855v2.811c0.395,0.102,0.758,0.152,1.09,0.152c0.66,0,1.216-0.26,1.667-0.777c0.451-0.519,0.677-1.228,0.677-2.127
			c0-0.653-0.123-1.144-0.369-1.473c-0.246-0.328-0.525-0.492-0.838-0.492c-0.34,0-0.714,0.172-1.122,0.516
			C301.924,223.809,301.556,224.272,301.228,224.855z"/>
		<path fill="#2F2F2F" d="M306.587,229.541v-0.908h6.363v0.908H306.587z"/>
		<path fill="#2F2F2F" d="M316.358,227.724v-7.014c-0.328,0.26-0.646,0.481-0.955,0.664c-0.309,0.184-0.732,0.37-1.271,0.561v-0.984
			c0.855-0.363,1.598-0.834,2.227-1.412h1.09v8.186h2.186v0.908h-5.502v-0.908H316.358z"/>
	</g>
	<g>
		<path fill="#2F2F2F" d="M663.369,228.436v-1.111c0.852,0.449,1.564,0.675,2.139,0.675c0.301,0,0.575-0.059,0.823-0.177
			c0.248-0.117,0.445-0.313,0.592-0.589c0.146-0.276,0.22-0.866,0.22-1.77v-5.018h-2.045v-0.908h3.229v5.953
			c0,0.969-0.11,1.666-0.331,2.092s-0.53,0.753-0.929,0.981s-0.908,0.343-1.529,0.343
			C664.842,228.908,664.119,228.751,663.369,228.436z"/>
		<path fill="#2F2F2F" d="M673.032,228.814c-0.937,0-1.686-0.327-2.248-0.981s-0.843-1.479-0.843-2.476s0.281-1.82,0.843-2.473
			s1.312-0.979,2.248-0.979c0.933,0,1.68,0.326,2.242,0.979c0.562,0.652,0.843,1.477,0.843,2.473s-0.281,1.821-0.843,2.476
			C674.712,228.487,673.965,228.814,673.032,228.814z M673.032,227.906c0.581,0,1.043-0.227,1.387-0.68
			c0.343-0.453,0.515-1.076,0.515-1.869c0-0.789-0.172-1.41-0.515-1.863c-0.343-0.453-0.806-0.68-1.387-0.68
			c-0.585,0-1.049,0.227-1.393,0.68s-0.515,1.074-0.515,1.863c0,0.793,0.171,1.416,0.515,1.869S672.447,227.906,673.032,227.906z"/>
		<path fill="#2F2F2F" d="M678.556,223.559c0.336-0.548,0.736-0.96,1.201-1.237s0.893-0.416,1.283-0.416
			c0.547,0,1.039,0.236,1.477,0.709s0.656,1.189,0.656,2.15c0,0.758-0.146,1.435-0.437,2.03s-0.679,1.066-1.163,1.412
			s-1.084,0.519-1.799,0.519c-0.203,0-0.516-0.021-0.938-0.064c-0.062-0.008-0.156-0.018-0.281-0.029h-1.09v-9.457h1.09V223.559z
			 M678.556,224.855v2.811c0.395,0.102,0.758,0.152,1.09,0.152c0.66,0,1.216-0.26,1.667-0.777c0.451-0.519,0.677-1.228,0.677-2.127
			c0-0.653-0.123-1.144-0.369-1.473c-0.246-0.328-0.525-0.492-0.838-0.492c-0.34,0-0.714,0.172-1.122,0.516
			C679.252,223.809,678.884,224.272,678.556,224.855z"/>
		<path fill="#2F2F2F" d="M683.915,229.541v-0.908h6.363v0.908H683.915z"/>
		<path fill="#2F2F2F" d="M691.723,223.91v-4.371h5.092v1.049h-4.002v2.227H693c1.309,0,2.316,0.273,3.023,0.82
			s1.061,1.283,1.061,2.209c0,0.586-0.143,1.111-0.428,1.576s-0.688,0.829-1.207,1.093s-1.072,0.396-1.658,0.396
			s-1.336-0.143-2.25-0.428v-1.188c0.332,0.179,0.703,0.326,1.113,0.441s0.789,0.173,1.137,0.173s0.688-0.084,1.02-0.252
			s0.59-0.412,0.773-0.734c0.184-0.321,0.275-0.65,0.275-0.985c0-0.565-0.251-1.045-0.753-1.437
			c-0.502-0.393-1.394-0.588-2.675-0.588H691.723z"/>
	</g>
	<g>
		<path fill="#2F2F2F" d="M569.169,228.436v-1.111c0.852,0.449,1.564,0.675,2.139,0.675c0.301,0,0.575-0.059,0.823-0.177
			c0.248-0.117,0.445-0.313,0.592-0.589c0.146-0.276,0.22-0.866,0.22-1.77v-5.018h-2.045v-0.908h3.229v5.953
			c0,0.969-0.11,1.666-0.331,2.092s-0.53,0.753-0.929,0.981s-0.908,0.343-1.529,0.343
			C570.641,228.908,569.919,228.751,569.169,228.436z"/>
		<path fill="#2F2F2F" d="M578.831,228.814c-0.937,0-1.686-0.327-2.248-0.981s-0.843-1.479-0.843-2.476s0.281-1.82,0.843-2.473
			s1.312-0.979,2.248-0.979c0.933,0,1.68,0.326,2.242,0.979c0.562,0.652,0.843,1.477,0.843,2.473s-0.281,1.821-0.843,2.476
			C580.512,228.487,579.764,228.814,578.831,228.814z M578.831,227.906c0.581,0,1.043-0.227,1.387-0.68
			c0.343-0.453,0.515-1.076,0.515-1.869c0-0.789-0.172-1.41-0.515-1.863c-0.343-0.453-0.806-0.68-1.387-0.68
			c-0.585,0-1.049,0.227-1.393,0.68s-0.515,1.074-0.515,1.863c0,0.793,0.171,1.416,0.515,1.869S578.246,227.906,578.831,227.906z"/>
		<path fill="#2F2F2F" d="M584.355,223.559c0.336-0.548,0.736-0.96,1.201-1.237s0.893-0.416,1.283-0.416
			c0.547,0,1.039,0.236,1.477,0.709s0.656,1.189,0.656,2.15c0,0.758-0.146,1.435-0.437,2.03s-0.679,1.066-1.163,1.412
			s-1.084,0.519-1.799,0.519c-0.203,0-0.516-0.021-0.938-0.064c-0.062-0.008-0.156-0.018-0.281-0.029h-1.09v-9.457h1.09V223.559z
			 M584.355,224.855v2.811c0.395,0.102,0.758,0.152,1.09,0.152c0.66,0,1.216-0.26,1.667-0.777c0.451-0.519,0.677-1.228,0.677-2.127
			c0-0.653-0.123-1.144-0.369-1.473c-0.246-0.328-0.525-0.492-0.838-0.492c-0.34,0-0.714,0.172-1.122,0.516
			C585.052,223.809,584.683,224.272,584.355,224.855z"/>
		<path fill="#2F2F2F" d="M589.715,229.541v-0.908h6.363v0.908H589.715z"/>
		<path fill="#2F2F2F" d="M600.24,228.632v-2.543h-3.867v-0.908l3.867-5.643h1.09v5.643h1.682v0.908h-1.682v2.543H600.24z
			 M600.24,225.181v-3.992l-2.707,3.992H600.24z"/>
	</g>
	<g>
		<path fill="#2F2F2F" d="M474.646,228.436v-1.111c0.852,0.449,1.564,0.675,2.139,0.675c0.301,0,0.575-0.059,0.823-0.177
			c0.248-0.117,0.445-0.313,0.592-0.589c0.146-0.276,0.22-0.866,0.22-1.77v-5.018h-2.045v-0.908h3.229v5.953
			c0,0.969-0.11,1.666-0.331,2.092s-0.53,0.753-0.929,0.981s-0.908,0.343-1.529,0.343
			C476.119,228.908,475.396,228.751,474.646,228.436z"/>
		<path fill="#2F2F2F" d="M484.309,228.814c-0.937,0-1.686-0.327-2.248-0.981s-0.843-1.479-0.843-2.476s0.281-1.82,0.843-2.473
			s1.312-0.979,2.248-0.979c0.933,0,1.68,0.326,2.242,0.979c0.562,0.652,0.843,1.477,0.843,2.473s-0.281,1.821-0.843,2.476
			C485.989,228.487,485.242,228.814,484.309,228.814z M484.309,227.906c0.581,0,1.043-0.227,1.387-0.68
			c0.343-0.453,0.515-1.076,0.515-1.869c0-0.789-0.172-1.41-0.515-1.863c-0.343-0.453-0.806-0.68-1.387-0.68
			c-0.585,0-1.049,0.227-1.393,0.68s-0.515,1.074-0.515,1.863c0,0.793,0.171,1.416,0.515,1.869S483.724,227.906,484.309,227.906z"/>
		<path fill="#2F2F2F" d="M489.833,223.559c0.336-0.548,0.736-0.96,1.201-1.237s0.893-0.416,1.283-0.416
			c0.547,0,1.039,0.236,1.477,0.709s0.656,1.189,0.656,2.15c0,0.758-0.146,1.435-0.437,2.03s-0.679,1.066-1.163,1.412
			s-1.084,0.519-1.799,0.519c-0.203,0-0.516-0.021-0.938-0.064c-0.062-0.008-0.156-0.018-0.281-0.029h-1.09v-9.457h1.09V223.559z
			 M489.833,224.855v2.811c0.395,0.102,0.758,0.152,1.09,0.152c0.66,0,1.216-0.26,1.667-0.777c0.451-0.519,0.677-1.228,0.677-2.127
			c0-0.653-0.123-1.144-0.369-1.473c-0.246-0.328-0.525-0.492-0.838-0.492c-0.34,0-0.714,0.172-1.122,0.516
			C490.529,223.809,490.161,224.272,489.833,224.855z"/>
		<path fill="#2F2F2F" d="M495.192,229.541v-0.908h6.363v0.908H495.192z"/>
		<path fill="#2F2F2F" d="M502.735,228.468v-1.148c0.895,0.453,1.67,0.68,2.326,0.68c0.602,0,1.099-0.183,1.491-0.548
			s0.589-0.835,0.589-1.409c0-0.578-0.216-1.049-0.647-1.412s-1.165-0.545-2.2-0.545h-0.604v-0.908h0.838
			c0.762,0,1.312-0.171,1.652-0.513s0.51-0.722,0.51-1.14c0-0.379-0.139-0.698-0.416-0.958s-0.703-0.39-1.277-0.39
			c-0.645,0-1.338,0.182-2.08,0.545v-1.037c0.742-0.277,1.422-0.416,2.039-0.416c1.105,0,1.868,0.218,2.288,0.653
			s0.63,0.933,0.63,1.491c0,0.414-0.111,0.803-0.334,1.166s-0.633,0.688-1.23,0.973c0.527,0.156,0.926,0.348,1.195,0.574
			s0.474,0.494,0.612,0.803s0.208,0.654,0.208,1.037c0,0.852-0.315,1.555-0.946,2.109s-1.446,0.832-2.446,0.832
			c-0.289,0-0.604-0.021-0.946-0.064S503.227,228.675,502.735,228.468z"/>
	</g>
	<g>
		<path fill="#2F2F2F" d="M380.263,228.436v-1.111c0.852,0.449,1.564,0.675,2.139,0.675c0.301,0,0.575-0.059,0.823-0.177
			c0.248-0.117,0.445-0.313,0.592-0.589c0.146-0.276,0.22-0.866,0.22-1.77v-5.018h-2.045v-0.908h3.229v5.953
			c0,0.969-0.11,1.666-0.331,2.092s-0.53,0.753-0.929,0.981s-0.908,0.343-1.529,0.343
			C381.735,228.908,381.013,228.751,380.263,228.436z"/>
		<path fill="#2F2F2F" d="M389.925,228.814c-0.937,0-1.686-0.327-2.248-0.981s-0.843-1.479-0.843-2.476s0.281-1.82,0.843-2.473
			s1.312-0.979,2.248-0.979c0.933,0,1.68,0.326,2.242,0.979c0.562,0.652,0.843,1.477,0.843,2.473s-0.281,1.821-0.843,2.476
			C391.605,228.487,390.858,228.814,389.925,228.814z M389.925,227.906c0.581,0,1.043-0.227,1.387-0.68
			c0.343-0.453,0.515-1.076,0.515-1.869c0-0.789-0.172-1.41-0.515-1.863c-0.343-0.453-0.806-0.68-1.387-0.68
			c-0.585,0-1.049,0.227-1.393,0.68s-0.515,1.074-0.515,1.863c0,0.793,0.171,1.416,0.515,1.869S389.34,227.906,389.925,227.906z"/>
		<path fill="#2F2F2F" d="M395.449,223.559c0.336-0.548,0.736-0.96,1.201-1.237s0.893-0.416,1.283-0.416
			c0.547,0,1.039,0.236,1.477,0.709s0.656,1.189,0.656,2.15c0,0.758-0.146,1.435-0.437,2.03s-0.679,1.066-1.163,1.412
			s-1.084,0.519-1.799,0.519c-0.203,0-0.516-0.021-0.938-0.064c-0.062-0.008-0.156-0.018-0.281-0.029h-1.09v-9.457h1.09V223.559z
			 M395.449,224.855v2.811c0.395,0.102,0.758,0.152,1.09,0.152c0.66,0,1.216-0.26,1.667-0.777c0.451-0.519,0.677-1.228,0.677-2.127
			c0-0.653-0.123-1.144-0.369-1.473c-0.246-0.328-0.525-0.492-0.838-0.492c-0.34,0-0.714,0.172-1.122,0.516
			C396.145,223.809,395.777,224.272,395.449,224.855z"/>
		<path fill="#2F2F2F" d="M400.808,229.541v-0.908h6.363v0.908H400.808z"/>
		<path fill="#2F2F2F" d="M413.913,228.632h-5.502v-1.002c0-0.258,0.053-0.534,0.158-0.829s0.307-0.626,0.604-0.993
			s0.611-0.721,0.942-1.061l0.62-0.633c0.125-0.129,0.398-0.428,0.819-0.896s0.699-0.828,0.833-1.078
			c0.134-0.25,0.202-0.496,0.202-0.738c0-0.391-0.156-0.692-0.468-0.905s-0.663-0.319-1.053-0.319c-0.222,0-0.471,0.025-0.746,0.076
			s-0.516,0.11-0.723,0.179s-0.542,0.208-1.006,0.419v-0.967c0.492-0.234,0.985-0.396,1.479-0.483s0.901-0.132,1.222-0.132
			c0.473,0,0.907,0.077,1.304,0.231s0.691,0.394,0.885,0.718s0.29,0.67,0.29,1.037c0,0.41-0.125,0.83-0.374,1.26
			c-0.249,0.43-0.717,0.982-1.404,1.658l-0.667,0.662l-0.562,0.551c-0.355,0.359-0.642,0.707-0.86,1.043
			c-0.218,0.336-0.339,0.736-0.362,1.201h4.371V228.632z"/>
	</g>
	<g>
		<path fill="#2F2F2F" d="M272.572,19.969c-0.264,0.146-0.613,0.219-1.046,0.219c-1.226,0-1.839-0.684-1.839-2.051v-4.143h-1.203
			v-0.957h1.203v-1.709l1.121-0.362v2.071h1.764v0.957h-1.764v3.944c0,0.47,0.08,0.805,0.239,1.005s0.424,0.301,0.793,0.301
			c0.283,0,0.526-0.077,0.731-0.232V19.969z"/>
		<path fill="#2F2F2F" d="M280.467,15.095c0,0.82-0.074,1.547-0.222,2.181s-0.362,1.168-0.643,1.604
			c-0.28,0.435-0.625,0.766-1.032,0.99c-0.408,0.227-0.872,0.339-1.391,0.339c-0.492,0-0.931-0.108-1.316-0.325
			c-0.385-0.216-0.71-0.531-0.974-0.946s-0.465-0.924-0.602-1.528c-0.137-0.604-0.205-1.295-0.205-2.074
			c0-0.856,0.072-1.613,0.215-2.27s0.354-1.207,0.632-1.65c0.278-0.445,0.623-0.779,1.036-1.006
			c0.413-0.225,0.885-0.338,1.418-0.338C279.439,10.071,280.467,11.746,280.467,15.095z M279.319,15.205
			c0-2.789-0.663-4.184-1.989-4.184c-1.399,0-2.099,1.42-2.099,4.259c0,2.647,0.686,3.972,2.058,3.972
			C278.642,19.252,279.319,17.903,279.319,15.205z"/>
	</g>
	<g>
		<path fill="#2F2F2F" d="M464,19.969c-0.264,0.146-0.613,0.219-1.046,0.219c-1.226,0-1.839-0.684-1.839-2.051v-4.143h-1.203v-0.957
			h1.203v-1.709l1.121-0.362v2.071H464v0.957h-1.764v3.944c0,0.47,0.08,0.805,0.239,1.005s0.424,0.301,0.793,0.301
			c0.283,0,0.526-0.077,0.731-0.232V19.969z"/>
		<path fill="#2F2F2F" d="M469.872,20.038h-1.121v-8.47c-0.086,0.087-0.213,0.186-0.379,0.298c-0.167,0.111-0.353,0.222-0.561,0.331
			s-0.426,0.212-0.656,0.308s-0.455,0.171-0.673,0.226v-1.135c0.246-0.068,0.507-0.161,0.783-0.276
			c0.276-0.117,0.547-0.246,0.813-0.391c0.267-0.143,0.519-0.293,0.755-0.451c0.237-0.156,0.442-0.311,0.615-0.461h0.424V20.038z"/>
	</g>
	<g>
		<path fill="#2F2F2F" d="M655.429,19.969c-0.264,0.146-0.613,0.219-1.046,0.219c-1.226,0-1.839-0.684-1.839-2.051v-4.143h-1.203
			v-0.957h1.203v-1.709l1.121-0.362v2.071h1.764v0.957h-1.764v3.944c0,0.47,0.08,0.805,0.239,1.005s0.424,0.301,0.793,0.301
			c0.283,0,0.526-0.077,0.731-0.232V19.969z"/>
		<path fill="#2F2F2F" d="M661.629,12.805c0-0.301-0.047-0.562-0.14-0.786s-0.221-0.409-0.383-0.558
			c-0.162-0.147-0.352-0.258-0.571-0.331s-0.456-0.109-0.711-0.109c-0.219,0-0.433,0.029-0.643,0.089s-0.414,0.142-0.612,0.246
			s-0.39,0.23-0.574,0.376s-0.356,0.308-0.516,0.485v-1.203c0.314-0.306,0.667-0.539,1.056-0.701
			c0.39-0.161,0.865-0.242,1.425-0.242c0.401,0,0.772,0.059,1.114,0.174c0.342,0.117,0.638,0.286,0.889,0.51
			s0.448,0.499,0.591,0.827s0.215,0.704,0.215,1.128c0,0.388-0.044,0.738-0.133,1.053s-0.223,0.61-0.403,0.889
			s-0.407,0.545-0.68,0.8s-0.595,0.515-0.964,0.779c-0.46,0.328-0.84,0.608-1.138,0.841s-0.536,0.45-0.711,0.652
			c-0.175,0.203-0.298,0.406-0.369,0.609c-0.071,0.202-0.106,0.436-0.106,0.7h4.881v1.005h-6.05v-0.485
			c0-0.419,0.045-0.788,0.137-1.107s0.242-0.622,0.451-0.909s0.484-0.574,0.824-0.861s0.755-0.61,1.248-0.971
			c0.355-0.255,0.653-0.499,0.892-0.731s0.432-0.465,0.578-0.697s0.25-0.468,0.311-0.708
			C661.598,13.329,661.629,13.074,661.629,12.805z"/>
	</g>
</g>
<g id="Layer_1">
</g>
</svg>
