<svg id="Layer_1" data-name="Layer 1" xmlns="http://www.w3.org/2000/svg" viewBox="0 0 64 64"><defs><style>.cls-1{fill:#e4cb58;}.cls-2{fill:#444;}</style></defs><title>logo_js</title><rect class="cls-1" x="2" y="2" width="60" height="60"/><path class="cls-2" d="M29.43,30.29h5.14V50.75c0,4.9-3.28,7.9-7.62,7.9-6.86,0-8.5-5-8.5-5L23,50.87s1.23,2.88,3.46,2.88,3-1.24,3-3.75Z"/><path class="cls-2" d="M50.41,37.47l4-2.63a7.82,7.82,0,0,0-7.27-4.47c-5.45,0-8.15,3.43-8.15,7.9s4.25,6.88,7.09,8.09c3,1.29,4.57,2.39,4.57,4.23,0,1.35-1.12,2.68-3.52,2.76-3.81.12-5.45-3.49-5.45-3.49l-4.28,2.88S39.8,58.3,47.3,58.3,56.1,53,56.1,50.52s-.88-5.94-6.21-8.33-5.63-3.49-5.63-4.78,1.11-2.27,2.87-2.27,3.28,2.27,3.28,2.27"/></svg>
