<?xml version="1.0" encoding="utf-8"?>
<!-- Generator: Adobe Illustrator 23.0.2, SVG Export Plug-In . SVG Version: 6.00 Build 0)  -->
<svg version="1.1" xmlns="http://www.w3.org/2000/svg" xmlns:xlink="http://www.w3.org/1999/xlink" x="0px" y="0px"
	 viewBox="0 0 530.49 107.04" enable-background="new 0 0 530.49 107.04" xml:space="preserve">
<symbol  id="Deleted_Symbol_6" viewBox="0 -32 32 32">
	<rect y="-10" width="32" height="2"/>
	<rect y="-26" width="32" height="2"/>
	<rect y="-17.99" width="32" height="1.99"/>
	<rect y="-32" fill="none" width="32" height="32"/>
	<rect y="-32" fill="none" width="32" height="32"/>
</symbol>
<symbol  id="Marketplace_store" viewBox="-15.25 -19.25 30.5 38.5">
	<path fill="#0078D7" d="M13.45,9.65l-2.2-1.2l-1,1.2h-2.7v4.9c0,2.8-2.2,4.7-5.3,4.7c-0.5,0-0.9-0.1-1.3-0.1
		c0.6-0.3,1.1-0.8,1.6-1.3c1.9-0.1,3.7-1.1,3.7-3.3v-5h-3.4v4.5c0,2.8-2.2,4.7-5.3,4.7s-5.3-1.9-5.3-4.7v-4.5h-1.2h-5.1l-1.2-26.9
		l24.7-1.8l0,0h0.4l1-0.1l4.4,3.5L13.45,9.65z M-6.55,14.05c0,2.3,2,3.3,3.9,3.3s3.9-1,3.9-3.3v-4.5h-3v4.9c0,0.6,0.2,1.2,0.4,1.6
		c-0.6,0.2-1.1,0.2-1.3,0.2h-0.1c-0.2-0.6-0.4-1.2-0.4-1.8v-4.9h-3.4V14.05z"/>
</symbol>
<symbol  id="New_Symbol_41" viewBox="-10.5 -10 21 20">
	<circle fill="#505050" cx="0" cy="0" r="10"/>
	<g>
		<path fill="#FFFFFF" d="M1.19,4.16v-8.59h-1.36V2.5c-0.25-0.18-0.51-0.33-0.79-0.45s-0.61-0.23-0.97-0.33v1.16
			c0.23,0.07,0.45,0.15,0.66,0.23s0.42,0.17,0.62,0.28s0.41,0.21,0.62,0.34S0.39,4,0.61,4.16H1.19z"/>
	</g>
	<rect x="-10.5" y="-10" display="none" fill="none" width="21" height="20"/>
</symbol>
<symbol  id="New_Symbol_42" viewBox="-10.5 -10 21 20">
	<circle fill="#505050" cx="0" cy="0" r="10"/>
	<g>
		<path fill="#FFFFFF" d="M2.52-4.43h-5.27v0.65c0,0.27,0.04,0.51,0.11,0.75s0.17,0.45,0.3,0.66s0.27,0.4,0.44,0.58
			s0.35,0.36,0.54,0.53s0.39,0.33,0.59,0.49S-0.39-0.46-0.2-0.3C-0.02-0.15,0.15,0,0.3,0.15s0.28,0.3,0.38,0.45s0.19,0.32,0.25,0.5
			s0.09,0.36,0.09,0.57c0,0.22-0.03,0.42-0.1,0.58s-0.16,0.3-0.29,0.42s-0.27,0.2-0.44,0.25S-0.17,3-0.37,3
			c-0.34,0-0.69-0.08-1.05-0.24s-0.7-0.4-1.03-0.72v1.31c0.17,0.13,0.35,0.24,0.52,0.34s0.36,0.18,0.54,0.24s0.38,0.11,0.59,0.14
			s0.43,0.05,0.66,0.05c0.38,0,0.72-0.05,1.03-0.15S1.48,3.72,1.7,3.53S2.09,3.09,2.21,2.8s0.18-0.62,0.18-1
			c0-0.34-0.04-0.65-0.13-0.92S2.06,0.36,1.9,0.13S1.56-0.33,1.34-0.54S0.88-0.97,0.61-1.19C0.39-1.37,0.16-1.55-0.06-1.72
			s-0.43-0.34-0.61-0.51S-1-2.57-1.11-2.73s-0.17-0.33-0.17-0.5v-0.03h3.79V-4.43z"/>
	</g>
	<rect x="-10.5" y="-10" display="none" fill="none" width="21" height="20"/>
</symbol>
<symbol  id="New_Symbol_43" viewBox="-10.5 -10 21 20">
	<circle fill="#505050" cx="0" cy="0" r="10"/>
	<g>
		<path fill="#FFFFFF" d="M-2.61-4.12v1.28c0.55-0.43,1.16-0.65,1.85-0.65c0.56,0,1,0.13,1.34,0.38s0.5,0.6,0.5,1.03
			c0,0.95-0.73,1.43-2.19,1.43h-0.65v1.09h0.62c1.29,0,1.94,0.45,1.94,1.35c0,0.83-0.5,1.24-1.51,1.24c-0.56,0-1.09-0.2-1.59-0.6
			v1.21c0.57,0.32,1.24,0.48,2.02,0.48c0.75,0,1.34-0.19,1.79-0.56S2.19,2.7,2.19,2.11c0-1.11-0.56-1.82-1.69-2.13v-0.02
			C1.11-0.1,1.59-0.32,1.94-0.68S2.47-1.5,2.47-2.05c0-0.75-0.28-1.36-0.85-1.83S0.31-4.57-0.62-4.57
			C-1.45-4.57-2.11-4.42-2.61-4.12z"/>
	</g>
	<rect x="-10.5" y="-10" display="none" fill="none" width="21" height="20"/>
</symbol>
<symbol  id="New_Symbol_44" viewBox="-10.5 -10 21 20">
	<circle fill="#505050" cx="0" cy="0" r="10"/>
	<g>
		<path fill="#FFFFFF" d="M1.97,3.97v-5.43h1.25v-1.13H1.97v-1.85H0.65v1.85h-3.8v1.14c0.34,0.39,0.7,0.81,1.06,1.26
			s0.71,0.91,1.04,1.38s0.64,0.94,0.93,1.42S0.4,3.54,0.6,3.97H1.97z M0.65-1.45v3.53c-0.43-0.77-0.85-1.43-1.26-2
			s-0.81-1.08-1.17-1.52H0.65z"/>
	</g>
	<rect x="-10.5" y="-10" display="none" fill="none" width="21" height="20"/>
</symbol>
<symbol  id="Pencil-02" viewBox="0 -16 16 16">
	<polyline fill="none" stroke="#000000" stroke-miterlimit="10" points="14.88,-4.12 4.69,-14.31 0.69,-15.31 1.69,-11.31 
		11.88,-1.12 	"/>
	<path fill="none" stroke="#000000" stroke-miterlimit="10" d="M11.88-1.12c0.83,0.83,2.17,0.83,3,0c0.83-0.83,0.83-2.17,0-3"/>
	<path fill="none" stroke="#000000" stroke-miterlimit="10" d="M4.5-14.5c0,1.66-1.34,3-3,3"/>
	<rect y="-16" fill="none" width="16" height="16"/>
	<line fill="none" stroke="#000000" stroke-miterlimit="10" x1="11" y1="-2" x2="14" y2="-5"/>
</symbol>
<symbol  id="Play-01" viewBox="0 -16 16 16">
	<g>
		<path d="M4-2.92L11.26-8L4-13.08V-2.92 M3-1v-14l10,7L3-1L3-1z"/>
	</g>
	<rect y="-16" fill="none" width="16" height="16"/>
</symbol>
<symbol  id="Repairs_x5F_01" viewBox="6 -32 20 32">
	<g>
		<path fill="#FFFFFF" d="M26-16h-4v8.59l2,2V0h-6v-5.41l2-2V-16h-4v-2h2v-11c0-1.65,1.35-3,3-3s3,1.35,3,3v11h2V-16z M20-2h2v-2.59
			l-1-1l-1,1V-2z M22-29c0-0.55-0.45-1-1-1s-1,0.45-1,1v11h2V-29z"/>
		<path fill="#FFFFFF" d="M11,0C8.24,0,6-2.24,6-5c0-1.56,0.75-3.04,2-3.98V-29c0-1.65,1.35-3,3-3s3,1.35,3,3v20.02
			c1.25,0.94,2,2.42,2,3.98C16-2.24,13.76,0,11,0z M12.5-7.58L12-7.87V-29c0-0.55-0.45-1-1-1s-1,0.45-1,1v21.13L9.5-7.58
			C8.56-7.03,8-6.07,8-5c0,1.3,0.84,2.4,2,2.82V-5l1-1l1,1v2.82C13.16-2.6,14-3.7,14-5C14-6.07,13.44-7.03,12.5-7.58z"/>
	</g>
</symbol>
<symbol  id="Video_x5F_02" viewBox="0 -16 16 16">
	<rect x="0.5" y="-11.5" fill="none" stroke="#101010" stroke-miterlimit="10" width="11" height="7"/>
	<rect y="-16" fill="none" width="16" height="16"/>
	<polygon fill="none" stroke="#101010" stroke-miterlimit="10" points="11.5,-9.25 15.5,-11.25 15.5,-4.75 11.5,-6.75 	"/>
</symbol>
<symbol  id="Virtual_network" viewBox="-19.8 -10.7 39.6 21.4">
	<g>
		<polygon fill="#0078D7" points="19.8,0 17.4,2.4 9.1,10.7 7.7,9.3 17.1,0 7.7,-9.3 9.1,-10.7 17.4,-2.4 		"/>
		<polygon fill="#0078D7" points="-19.8,0 -17.3,2.4 -9.1,10.7 -7.7,9.3 -17.1,0 -7.7,-9.3 -9.1,-10.7 -17.3,-2.4 		"/>
		<path fill="#0078D7" d="M-4.8,0c0-1.3-1.1-2.4-2.4-2.4c-1.4,0-2.4,1.1-2.4,2.4s1.1,2.4,2.4,2.4C-5.8,2.4-4.8,1.3-4.8,0z"/>
		<path fill="#0078D7" d="M0,2.4c1.3,0,2.4-1.1,2.4-2.4S1.3-2.4,0-2.4S-2.4-1.3-2.4,0S-1.3,2.4,0,2.4z"/>
		<path fill="#0078D7" d="M7.2,2.4c1.3,0,2.4-1.1,2.4-2.4S8.5-2.4,7.2-2.4C5.8-2.4,4.8-1.3,4.8,0S5.8,2.4,7.2,2.4z"/>
	</g>
</symbol>
<symbol  id="W10_x5F_CheckboxIndeterminate_x5F_16" viewBox="-4 -4 8 8">
	<rect x="-4" y="-4" width="8" height="8"/>
</symbol>
<symbol  id="W10_x5F_Checkbox_x5F_16" viewBox="-8 -8 16 16">
	<g>
		<path d="M7,7V-7H-7V7H7 M8,8H-8V-8H8V8L8,8z"/>
	</g>
</symbol>
<symbol  id="W10_x5F_Undo" viewBox="-5.91 -7.91 11.82 15.82">
	<path fill="none" stroke="#FFFFFF" stroke-miterlimit="10" d="M-2.56-7.56l6.53,6.53c1.91,1.91,1.91,5.02,0,6.93L3.91,5.98
		c-1.91,1.91-5.02,1.91-6.93,0l-2.54-2.53"/>
</symbol>
<symbol  id="gripper_x5F_16" viewBox="0 -16 16 16">
	<polygon fill="none" stroke="#231F20" stroke-miterlimit="10" points="9.5,-15.5 15.5,-9.5 15.5,-15.5 	"/>
	<rect y="-16" fill="none" width="16" height="16"/>
</symbol>
<symbol  id="smallbox_x5F_32" viewBox="0 -32 32 32">
	<rect x="8" y="-24" width="16" height="16"/>
	<rect y="-32" fill="none" width="32" height="32"/>
</symbol>
<symbol  id="unlock" viewBox="0 -16 16 16">
	<rect x="2.5" y="-15.5" fill="none" stroke="#000000" stroke-miterlimit="10" width="11" height="8"/>
	<rect y="-16" fill="none" width="16" height="16"/>
	<path d="M8,0C5.72,0,4-1.74,4-4h1c0,1.71,1.29,3,3,3s3-1.29,3-3v-3H6v-1h6v4C12-1.74,10.28,0,8,0z"/>
</symbol>
<g id="Shapes">
	<g id="Wrench_tool_x28_s_x29_">
	</g>
	<g id="user2">
	</g>
	<g id="user2_1_">
	</g>
	<g id="user2_4_">
	</g>
	<g id="user2_3_">
	</g>
	<g id="user2_2_">
	</g>
	<g id="Internet_2">
	</g>
	<g id="Enterprise">
	</g>
	<g id="Tunnel__x28_stackable_x29_">
	</g>
	<g id="New_Symbol">
	</g>
	<g id="New_Symbol_1">
	</g>
	<g id="Files">
	</g>
	<g id="BlobBlock">
	</g>
	<g id="E_x5F_Enterprise">
	</g>
	<g id="E_x5F_AD_FS">
	</g>
	<g id="C_x5F_Azure_Active_Directory">
	</g>
	<rect y="0.74" fill="#FFFFFF" width="530.49" height="106.3"/>
	<circle fill="#EBEBEB" cx="264.48" cy="60.48" r="45"/>
	<rect y="23.34" fill="#0072C6" width="105" height="75.13"/>
	<g>
		<g>
			<line fill="none" stroke="#000000" stroke-miterlimit="10" x1="290.2" y1="48.06" x2="450.62" y2="48.06"/>
			<g>
				<polygon points="449.52,51.8 456,48.06 449.52,44.32 				"/>
			</g>
		</g>
	</g>
	<g>
		<g>
			<line fill="none" stroke="#000000" stroke-miterlimit="10" x1="295.35" y1="73.08" x2="456" y2="73.08"/>
			<g>
				<polygon points="296.44,76.82 289.96,73.08 296.44,69.34 				"/>
			</g>
		</g>
	</g>
	<g>
		<g>
			<line fill="none" stroke="#000000" stroke-miterlimit="10" x1="110.5" y1="48.06" x2="239.62" y2="48.06"/>
			<g>
				<polygon points="111.59,51.8 105.12,48.06 111.59,44.32 				"/>
			</g>
		</g>
	</g>
	<g>
		<g>
			<line fill="none" stroke="#000000" stroke-miterlimit="10" x1="104.88" y1="73.08" x2="234.24" y2="73.08"/>
			<g>
				<polygon points="233.14,76.82 239.62,73.08 233.14,69.34 				"/>
			</g>
		</g>
	</g>
	<g>
		<path fill="#107C10" d="M357.61,37.47c-0.72,0.64-1.6,1.04-2.64,1.04s-1.92-0.4-2.64-1.04l-0.4,8.08l3.04-3.04l3.04,3.04
			L357.61,37.47z"/>
		<path fill="#107C10" d="M354.97,29.55c-2.88,0-5.2,2.32-5.2,5.2s2.32,5.2,5.2,5.2s5.2-2.32,5.2-5.2S357.85,29.55,354.97,29.55z
			 M354.97,38.27c-2,0-3.6-1.6-3.6-3.6c0-1.92,1.6-3.52,3.6-3.52s3.6,1.6,3.6,3.6C358.57,36.67,356.97,38.27,354.97,38.27z"/>
	</g>
	<g>
		<path fill="#107C10" d="M152.2,84.96c-0.72,0.64-1.6,1.04-2.64,1.04c-1.04,0-1.92-0.4-2.64-1.04l-0.4,8.08l3.04-3.04l3.04,3.04
			L152.2,84.96z"/>
		<path fill="#107C10" d="M149.56,77.04c-2.88,0-5.2,2.32-5.2,5.2c0,2.88,2.32,5.2,5.2,5.2s5.2-2.32,5.2-5.2
			C154.76,79.36,152.44,77.04,149.56,77.04z M149.56,85.76c-2,0-3.6-1.6-3.6-3.6c0-1.92,1.6-3.52,3.6-3.52s3.6,1.6,3.6,3.6
			C153.16,84.16,151.56,85.76,149.56,85.76z"/>
	</g>
	
		<use xlink:href="#New_Symbol_43"  width="21" height="20" x="-10.5" y="-10" transform="matrix(1 0 0 -1 333.2236 48.0557)" overflow="visible"/>
	<g>
		<path fill="#0078D7" d="M518.26,88.38h-60.33c-1.05,0-1.93-0.83-1.93-1.93V35.77c0-1.05,0.83-1.87,1.93-1.87h60.33
			c1.05,0,1.93,0.83,1.93,1.93v50.69C520.19,87.56,519.36,88.38,518.26,88.38z"/>
		<path fill="#50E6FF" d="M512.09,56.43h-3.69v23.31h3.69V56.43z"/>
		<path fill="#50E6FF" d="M506.91,61.99h-3.69v17.74h3.69V61.99z"/>
		<path fill="#50E6FF" d="M501.73,68.44h-3.69v11.29h3.69V68.44z"/>
		<path fill="#50E6FF" d="M496.55,66.56h-3.69v13.17h3.69V66.56z"/>
		<path fill="#50E6FF" d="M491.37,70.75h-3.69v8.93h3.69V70.75z"/>
		<path fill="#FFFFFF" d="M512.09,59.18h-3.69v20.55h3.69V59.18z"/>
		<path fill="#FFFFFF" d="M506.91,64.86h-3.69v14.88h3.69V64.86z"/>
		<path fill="#FFFFFF" d="M501.73,70.81h-3.69v8.93h3.69V70.81z"/>
		<path fill="#FFFFFF" d="M496.55,74.61h-3.69v5.12h3.69V74.61z"/>
		<path fill="#FFFFFF" d="M491.37,76.54h-3.69v3.14h3.69V76.54z"/>
		<path fill="#FFFFFF" d="M507.9,46.68c-0.39,0-0.72,0.33-0.72,0.72c0,0.39,0.33,0.72,0.72,0.72h1.71l-10.19,10.36l-2.7-2.75
			c-0.11-0.17-0.33-0.22-0.5-0.22s-0.39,0.06-0.5,0.22l-7.93,7.93c-0.28,0.28-0.28,0.72,0,0.99c0.17,0.17,0.33,0.22,0.5,0.22
			s0.39-0.06,0.5-0.22l7.44-7.38l2.7,2.75c0.11,0.17,0.33,0.22,0.5,0.22c0.17,0,0.39-0.06,0.5-0.22l10.74-10.85v1.71
			c0,0.39,0.33,0.72,0.72,0.72s0.72-0.33,0.72-0.72v-4.19H507.9L507.9,46.68z"/>
		<path fill="#0078D7" d="M488.29,65.02c-0.22,0-0.44-0.11-0.61-0.22c-0.17-0.17-0.22-0.39-0.28-0.61c0-0.22,0.11-0.44,0.22-0.61
			l7.88-7.99c0.33-0.33,0.88-0.33,1.21,0l2.59,2.64l9.92-10.08h-1.43c-0.44,0-0.83-0.39-0.83-0.83s0.39-0.83,0.83-0.83h4.3v4.3
			c0,0.44-0.39,0.83-0.83,0.83c-0.44,0-0.72-0.33-0.72-0.77v-1.38l-10.52,10.58c-0.17,0.17-0.39,0.28-0.61,0.28
			c-0.22,0-0.44-0.11-0.61-0.28l-2.59-2.64l-7.33,7.33C488.73,64.91,488.51,65.02,488.29,65.02z M496.22,55.6
			c-0.17,0-0.33,0.06-0.44,0.17l-7.88,7.99c-0.11,0.11-0.17,0.28-0.17,0.44c0,0.17,0.06,0.33,0.17,0.44c0.22,0.22,0.61,0.22,0.83,0
			l7.49-7.55l2.81,2.87c0.11,0.11,0.28,0.17,0.44,0.17s0.28-0.06,0.39-0.17l10.91-11.07v1.98c0,0.33,0.28,0.61,0.61,0.61
			s0.61-0.28,0.61-0.61v-4.02h-4.02c-0.33,0-0.61,0.28-0.61,0.61c0,0.33,0.28,0.61,0.61,0.61h1.98l-10.52,10.58l-2.81-2.87
			C496.5,55.66,496.39,55.6,496.22,55.6z"/>
		<path fill="#50E6FF" d="M482.12,72.79H464.1v2.31h18.02V72.79z"/>
		<path fill="#50E6FF" d="M482.12,77.42H464.1v2.31h18.02V77.42z"/>
		<path fill="#FFFFFF" d="M481.07,58.63v-1.71l-0.11-0.11l-1.76-0.61l-0.44-1.21l0.88-1.82l0.11-0.22l-0.55-0.55l-0.66-0.66
			l-0.22,0.11l-1.71,0.88l-1.21-0.33l-0.77-1.93h-1.71l-0.11,0.11l-0.61,1.76l-1.21,0.44L469,51.8l-1.21,1.21l0.11,0.22l0.88,1.71
			l-0.5,1.21l-2.09,0.77v1.71l0.22,0.06l1.87,0.61l0.5,1.21l-0.94,1.98l1.21,1.21l0.22-0.11l1.71-0.88l1.21,0.5l0.77,2.09h1.71
			l0.06-0.22l0.61-1.87l1.16-0.5l2.04,0.94l1.21-1.21l-0.06-0.11l-0.88-1.71l0.33-1.21L481.07,58.63z M473.8,60.23
			c-1.32,0-2.42-1.1-2.42-2.42s1.1-2.42,2.42-2.42s2.42,1.1,2.42,2.42S475.12,60.23,473.8,60.23z"/>
		<path fill="#50E6FF" d="M518.98,93.89c6.36,0,11.52-5.16,11.52-11.52c0-6.36-5.16-11.52-11.52-11.52
			c-6.36,0-11.51,5.16-11.51,11.52C507.46,88.74,512.62,93.89,518.98,93.89z"/>
		<path fill="#0078D4" d="M517.05,87.12l-4.13-4.08l1.16-1.16l2.98,2.92l7.22-7.27l1.21,1.21L517.05,87.12z"/>
		<path fill="#50E6FF" d="M518.26,33.89h-60.33c-1.1,0-1.93,0.83-1.93,1.93v6.5h64.19v-6.5C520.19,34.72,519.36,33.89,518.26,33.89z
			"/>
	</g>
	
		<use xlink:href="#New_Symbol_44"  width="21" height="20" x="-10.5" y="-10" transform="matrix(1 0 0 -1 333.2236 73.0785)" overflow="visible"/>
	
		<use xlink:href="#New_Symbol_42"  width="21" height="20" x="-10.5" y="-10" transform="matrix(1 0 0 -1 130.9899 73.0785)" overflow="visible"/>
	
		<use xlink:href="#New_Symbol_41"  width="21" height="20" x="-10.5" y="-10" transform="matrix(1 0 0 -1 130.9899 48.0557)" overflow="visible"/>
	<g>
		<g>
			<rect x="239.96" y="35.77" fill="#A4C639" width="50" height="50"/>
			<path fill="#FFFFFF" d="M262.96,72.94v4.83c0,1.33-0.67,2.33-2,2.33l0,0c-1.33,0-2-1-2-2.33v-4.83h-2.5c-1,0-1.5-1.17-1.5-2.17
				v-16.5h20v16.5c0,1-0.33,2.17-1.5,2.17h-2.5v4.83c0,1.33-0.67,2.33-2,2.33l0,0c-1.33,0-2-1-2-2.33v-4.83H262.96L262.96,72.94z"/>
			<path fill="#FFFFFF" d="M250.96,53.77L250.96,53.77c1.33,0,2.67,1,2.67,2.33v9.33c0,1.33-1.33,2.33-2.67,2.33l0,0
				c-1.33,0-2.67-1-2.67-2.33V56.1C248.3,54.77,249.63,53.77,250.96,53.77L250.96,53.77z"/>
			<path fill="#FFFFFF" d="M278.96,53.77L278.96,53.77c1.33,0,2.67,1,2.67,2.33v9.33c0,1.33-1.33,2.33-2.67,2.33l0,0
				c-1.33,0-2.67-1-2.67-2.33V56.1C276.3,54.77,277.63,53.77,278.96,53.77L278.96,53.77z"/>
			<path fill="#FFFFFF" d="M269.8,45.44l1.83-2.5c0.17-0.17,0-0.33-0.17-0.5c-0.17-0.17-0.33,0-0.5,0.17l-1.83,2.67
				c-1.33-0.5-2.67-0.83-4.17-0.83s-3,0.33-4.17,0.83l-2-2.83c-0.17-0.17-0.33-0.17-0.5-0.17c0,0.17-0.17,0.33,0,0.5l1.83,2.67
				c-3,1.33-5.17,4.17-5.17,6.83h20C274.96,49.6,272.8,46.77,269.8,45.44z M260.63,49.94c-0.67,0-1.17-0.5-1.17-1.17
				c0-0.67,0.5-1.17,1.17-1.17c0.67,0,1.17,0.5,1.17,1.17C261.8,49.44,261.3,49.94,260.63,49.94z M269.3,49.94
				c-0.67,0-1.17-0.5-1.17-1.17c0-0.67,0.5-1.17,1.17-1.17c0.67,0,1.17,0.5,1.17,1.17C270.46,49.44,269.96,49.94,269.3,49.94z"/>
		</g>
	</g>
</g>
<g id="Text">
	<g id="Windows_Server_New">
	</g>
	<g>
		<rect x="228.48" y="1.32" fill="none" width="72" height="26.45"/>
		<path fill="#1E1E1E" d="M254.59,10.2h-1.91l-3.46-5.28c-0.2-0.31-0.34-0.54-0.42-0.7h-0.02c0.03,0.3,0.05,0.75,0.05,1.36v4.62
			h-1.79V1.8h2.04l3.33,5.12c0.15,0.23,0.29,0.46,0.42,0.69h0.02c-0.03-0.2-0.05-0.58-0.05-1.15V1.8h1.79V10.2z"/>
		<path fill="#1E1E1E" d="M261.31,10.2h-1.75V9.34h-0.02c-0.4,0.67-1,1.01-1.79,1.01c-0.58,0-1.04-0.17-1.37-0.5s-0.5-0.77-0.5-1.32
			c0-1.16,0.69-1.84,2.07-2.02l1.63-0.22c0-0.66-0.36-0.98-1.07-0.98c-0.71,0-1.39,0.21-2.04,0.64V4.56
			c0.26-0.13,0.61-0.25,1.06-0.35s0.85-0.15,1.22-0.15c1.71,0,2.57,0.85,2.57,2.56V10.2z M259.57,7.76v-0.4l-1.09,0.14
			c-0.6,0.08-0.9,0.35-0.9,0.81c0,0.21,0.07,0.38,0.22,0.52s0.34,0.2,0.59,0.2c0.35,0,0.63-0.12,0.85-0.36S259.57,8.13,259.57,7.76z
			"/>
		<path fill="#1E1E1E" d="M266.31,10.13c-0.27,0.14-0.69,0.22-1.24,0.22c-1.3,0-1.96-0.68-1.96-2.03V5.57h-0.97V4.2h0.97V2.91
			l1.85-0.53V4.2h1.35v1.37h-1.35v2.43c0,0.63,0.25,0.94,0.74,0.94c0.2,0,0.4-0.06,0.6-0.17V10.13z"/>
		<path fill="#1E1E1E" d="M268.36,3.25c-0.31,0-0.57-0.09-0.77-0.28s-0.3-0.41-0.3-0.68c0-0.28,0.1-0.5,0.3-0.68
			s0.46-0.26,0.77-0.26c0.32,0,0.57,0.09,0.77,0.26s0.3,0.4,0.3,0.68c0,0.28-0.1,0.51-0.3,0.69S268.67,3.25,268.36,3.25z
			 M269.27,10.2h-1.85v-6h1.85V10.2z"/>
		<path fill="#1E1E1E" d="M276.57,4.2l-2.23,6h-2.11l-2.13-6h1.98l1.04,3.7c0.12,0.42,0.19,0.77,0.21,1.07h0.02
			c0.03-0.28,0.1-0.62,0.22-1.03l1.07-3.73H276.57z"/>
		<path fill="#1E1E1E" d="M282.57,7.73h-3.91c0.06,0.87,0.61,1.31,1.65,1.31c0.66,0,1.24-0.16,1.74-0.47V9.9
			c-0.55,0.3-1.28,0.45-2.16,0.45c-0.97,0-1.72-0.27-2.26-0.81s-0.8-1.29-0.8-2.25c0-1,0.29-1.79,0.87-2.37s1.29-0.87,2.13-0.87
			c0.88,0,1.55,0.26,2.03,0.78s0.72,1.22,0.72,2.12V7.73z M280.85,6.59c0-0.86-0.35-1.29-1.04-1.29c-0.3,0-0.55,0.12-0.77,0.37
			s-0.35,0.55-0.4,0.92H280.85z"/>
		<path fill="#1E1E1E" d="M261.16,24.6h-2.06l-0.6-1.87h-2.99l-0.59,1.87h-2.05l3.06-8.4h2.24L261.16,24.6z M258.06,21.28l-0.9-2.82
			c-0.07-0.21-0.11-0.46-0.14-0.76h-0.05c-0.02,0.25-0.07,0.49-0.15,0.73l-0.91,2.85H258.06z"/>
		<path fill="#1E1E1E" d="M263.9,23.9h-0.02v3.46h-1.85V18.6h1.85v0.9h0.02c0.46-0.7,1.1-1.05,1.93-1.05c0.78,0,1.38,0.27,1.8,0.8
			s0.64,1.26,0.64,2.18c0,1-0.25,1.8-0.74,2.41s-1.15,0.91-1.97,0.91C264.83,24.75,264.28,24.47,263.9,23.9z M263.85,21.44v0.48
			c0,0.41,0.11,0.75,0.33,1.01s0.51,0.39,0.86,0.39c0.42,0,0.75-0.16,0.98-0.49s0.35-0.79,0.35-1.39c0-1.05-0.41-1.58-1.23-1.58
			c-0.38,0-0.69,0.14-0.93,0.43S263.85,20.97,263.85,21.44z"/>
		<path fill="#1E1E1E" d="M271.36,23.9h-0.02v3.46h-1.85V18.6h1.85v0.9h0.02c0.46-0.7,1.1-1.05,1.93-1.05c0.78,0,1.38,0.27,1.8,0.8
			s0.64,1.26,0.64,2.18c0,1-0.25,1.8-0.74,2.41s-1.15,0.91-1.97,0.91C272.29,24.75,271.74,24.47,271.36,23.9z M271.31,21.44v0.48
			c0,0.41,0.11,0.75,0.33,1.01s0.51,0.39,0.86,0.39c0.42,0,0.75-0.16,0.98-0.49s0.35-0.79,0.35-1.39c0-1.05-0.41-1.58-1.23-1.58
			c-0.38,0-0.69,0.14-0.93,0.43S271.31,20.97,271.31,21.44z"/>
	</g>
	<g>
		<path fill="#1E1E1E" d="M164.96,81.75h-2.43v7.51h-0.98v-7.51h-2.42v-0.89h5.83V81.75z"/>
		<path fill="#1E1E1E" d="M167.8,89.4c-0.89,0-1.59-0.28-2.12-0.84s-0.79-1.3-0.79-2.23c0-1.01,0.28-1.79,0.83-2.36
			s1.29-0.85,2.23-0.85c0.89,0,1.59,0.28,2.09,0.83s0.75,1.31,0.75,2.29c0,0.96-0.27,1.72-0.81,2.3S168.71,89.4,167.8,89.4z
			 M167.87,83.93c-0.62,0-1.11,0.21-1.46,0.63s-0.54,1-0.54,1.74c0,0.71,0.18,1.27,0.54,1.68s0.85,0.62,1.46,0.62
			c0.62,0,1.1-0.2,1.43-0.6s0.5-0.97,0.5-1.72c0-0.75-0.17-1.33-0.5-1.73S168.49,83.93,167.87,83.93z"/>
		<path fill="#1E1E1E" d="M177.25,89.26h-1.35l-2.65-2.88h-0.02v2.88h-0.96v-8.88h0.96v5.63h0.02l2.52-2.75h1.26l-2.78,2.89
			L177.25,89.26z"/>
		<path fill="#1E1E1E" d="M182.77,86.5h-4.24c0.02,0.67,0.2,1.18,0.54,1.55s0.82,0.54,1.42,0.54c0.68,0,1.3-0.22,1.86-0.67v0.9
			c-0.53,0.38-1.22,0.57-2.09,0.57c-0.85,0-1.51-0.27-2-0.82s-0.73-1.31-0.73-2.3c0-0.93,0.26-1.69,0.79-2.28s1.19-0.88,1.97-0.88
			s1.39,0.25,1.82,0.76s0.64,1.21,0.64,2.12V86.5z M181.79,85.69c0-0.55-0.14-0.99-0.4-1.29s-0.63-0.46-1.1-0.46
			c-0.45,0-0.84,0.16-1.15,0.49s-0.51,0.75-0.59,1.27H181.79z"/>
		<path fill="#1E1E1E" d="M189.2,89.26h-0.96v-3.42c0-1.27-0.46-1.91-1.39-1.91c-0.48,0-0.88,0.18-1.19,0.54s-0.47,0.82-0.47,1.37
			v3.42h-0.96v-6h0.96v1h0.02c0.45-0.76,1.11-1.14,1.97-1.14c0.66,0,1.16,0.21,1.51,0.64s0.52,1.04,0.52,1.84V89.26z"/>
	</g>
	<g>
		<rect x="13.27" y="40.74" fill="none" width="78.46" height="45.6"/>
		<path fill="#FFFFFF" d="M35.52,49.62h-1.87V44.6c0-0.54,0.02-1.14,0.07-1.8h-0.05c-0.1,0.52-0.19,0.89-0.26,1.11l-1.97,5.71h-1.55
			l-2-5.65c-0.05-0.15-0.14-0.54-0.26-1.17h-0.05c0.05,0.83,0.08,1.55,0.08,2.18v4.65h-1.71v-8.4h2.77l1.72,4.98
			c0.14,0.4,0.24,0.8,0.3,1.2h0.04c0.11-0.46,0.22-0.87,0.33-1.21l1.72-4.97h2.7V49.62z"/>
		<path fill="#FFFFFF" d="M38.13,42.67c-0.31,0-0.57-0.09-0.77-0.28s-0.3-0.41-0.3-0.68c0-0.28,0.1-0.5,0.3-0.68
			s0.46-0.26,0.77-0.26c0.32,0,0.57,0.09,0.77,0.26s0.3,0.4,0.3,0.68c0,0.28-0.1,0.51-0.3,0.69S38.44,42.67,38.13,42.67z
			 M39.04,49.62h-1.85v-6h1.85V49.62z"/>
		<path fill="#FFFFFF" d="M45.12,49.41c-0.42,0.24-1.02,0.36-1.81,0.36c-0.92,0-1.67-0.28-2.24-0.84s-0.86-1.28-0.86-2.16
			c0-1.02,0.31-1.82,0.92-2.41s1.43-0.88,2.45-0.88c0.71,0,1.22,0.09,1.54,0.28v1.57c-0.39-0.29-0.82-0.43-1.29-0.43
			c-0.53,0-0.95,0.16-1.26,0.47s-0.47,0.74-0.47,1.29c0,0.53,0.15,0.95,0.45,1.25s0.71,0.45,1.22,0.45c0.46,0,0.91-0.14,1.35-0.43
			V49.41z"/>
		<path fill="#FFFFFF" d="M50.34,45.29c-0.22-0.12-0.48-0.18-0.78-0.18c-0.4,0-0.72,0.15-0.94,0.44s-0.34,0.7-0.34,1.2v2.87h-1.85
			v-6h1.85v1.11h0.02c0.29-0.81,0.82-1.22,1.58-1.22c0.2,0,0.35,0.02,0.46,0.07V45.29z"/>
		<path fill="#FFFFFF" d="M54.15,49.77c-1,0-1.79-0.28-2.36-0.84s-0.86-1.32-0.86-2.28c0-0.99,0.3-1.77,0.89-2.33
			s1.4-0.84,2.41-0.84c1,0,1.78,0.28,2.34,0.84s0.85,1.3,0.85,2.22c0,1-0.29,1.78-0.88,2.36S55.16,49.77,54.15,49.77z M54.19,44.89
			c-0.44,0-0.78,0.15-1.02,0.45s-0.36,0.73-0.36,1.28c0,1.15,0.46,1.73,1.39,1.73c0.89,0,1.33-0.59,1.33-1.78
			C55.53,45.46,55.09,44.89,54.19,44.89z"/>
		<path fill="#FFFFFF" d="M58.28,49.46v-1.5c0.3,0.18,0.61,0.32,0.91,0.41s0.59,0.13,0.86,0.13c0.33,0,0.59-0.04,0.78-0.13
			s0.28-0.23,0.28-0.41c0-0.12-0.04-0.21-0.13-0.29s-0.2-0.15-0.33-0.21s-0.28-0.11-0.44-0.16s-0.31-0.1-0.46-0.16
			c-0.24-0.09-0.45-0.19-0.63-0.29s-0.33-0.22-0.46-0.36s-0.22-0.29-0.28-0.47s-0.1-0.39-0.1-0.64c0-0.34,0.07-0.63,0.22-0.87
			s0.34-0.44,0.59-0.59s0.52-0.27,0.84-0.34s0.64-0.11,0.98-0.11c0.27,0,0.54,0.02,0.81,0.06s0.54,0.1,0.81,0.18v1.43
			c-0.23-0.14-0.49-0.24-0.75-0.31s-0.53-0.1-0.79-0.1c-0.12,0-0.24,0.01-0.34,0.03s-0.2,0.05-0.28,0.09s-0.15,0.09-0.19,0.16
			s-0.07,0.14-0.07,0.22c0,0.11,0.04,0.2,0.11,0.28s0.16,0.15,0.28,0.2s0.24,0.11,0.38,0.15s0.28,0.09,0.41,0.14
			c0.25,0.09,0.47,0.18,0.67,0.28s0.37,0.22,0.51,0.36s0.25,0.3,0.33,0.48s0.11,0.4,0.11,0.66c0,0.36-0.08,0.66-0.23,0.91
			s-0.36,0.46-0.62,0.62s-0.55,0.27-0.88,0.35s-0.68,0.11-1.04,0.11C59.45,49.77,58.84,49.67,58.28,49.46z"/>
		<path fill="#FFFFFF" d="M66.85,49.77c-1,0-1.79-0.28-2.36-0.84s-0.86-1.32-0.86-2.28c0-0.99,0.3-1.77,0.89-2.33
			s1.4-0.84,2.41-0.84c1,0,1.78,0.28,2.34,0.84s0.85,1.3,0.85,2.22c0,1-0.29,1.78-0.88,2.36S67.86,49.77,66.85,49.77z M66.9,44.89
			c-0.44,0-0.78,0.15-1.02,0.45s-0.36,0.73-0.36,1.28c0,1.15,0.46,1.73,1.39,1.73c0.89,0,1.33-0.59,1.33-1.78
			C68.24,45.46,67.79,44.89,66.9,44.89z"/>
		<path fill="#FFFFFF" d="M75.19,42.16c-0.24-0.09-0.47-0.14-0.69-0.14c-0.59,0-0.89,0.32-0.89,0.97v0.64h1.37v1.37h-1.37v4.63
			h-1.85v-4.63h-1.01v-1.37h1.01v-0.74c0-0.68,0.22-1.23,0.67-1.65s1.05-0.63,1.82-0.63c0.38,0,0.69,0.04,0.94,0.12V42.16z"/>
		<path fill="#FFFFFF" d="M79.75,49.55c-0.27,0.14-0.69,0.22-1.24,0.22c-1.3,0-1.96-0.68-1.96-2.03v-2.75h-0.97v-1.37h0.97v-1.29
			l1.85-0.53v1.82h1.35v1.37H78.4v2.43c0,0.63,0.25,0.94,0.74,0.94c0.2,0,0.4-0.06,0.6-0.17V49.55z"/>
		<path fill="#FFFFFF" d="M32.17,57.07c-0.31,0-0.57-0.09-0.77-0.28s-0.3-0.41-0.3-0.68c0-0.28,0.1-0.5,0.3-0.68
			s0.46-0.26,0.77-0.26c0.32,0,0.57,0.09,0.77,0.26s0.3,0.4,0.3,0.68c0,0.28-0.1,0.51-0.3,0.69S32.49,57.07,32.17,57.07z
			 M33.09,64.02h-1.85v-6h1.85V64.02z"/>
		<path fill="#FFFFFF" d="M40.52,64.02h-1.85V63.2h-0.02c-0.42,0.65-1.04,0.97-1.86,0.97c-0.75,0-1.35-0.26-1.81-0.79
			s-0.69-1.27-0.69-2.22c0-0.99,0.25-1.79,0.76-2.38s1.16-0.9,1.98-0.9c0.77,0,1.31,0.28,1.62,0.83h0.02v-3.57h1.85V64.02z
			 M38.7,61.11v-0.45c0-0.39-0.11-0.71-0.34-0.97s-0.52-0.39-0.88-0.39c-0.41,0-0.73,0.16-0.96,0.48s-0.35,0.76-0.35,1.33
			c0,0.53,0.11,0.93,0.33,1.22s0.53,0.43,0.93,0.43c0.38,0,0.68-0.15,0.92-0.45S38.7,61.6,38.7,61.11z"/>
		<path fill="#FFFFFF" d="M47.47,61.55h-3.91c0.06,0.87,0.61,1.31,1.65,1.31c0.66,0,1.24-0.16,1.74-0.47v1.34
			c-0.55,0.3-1.28,0.45-2.16,0.45c-0.97,0-1.72-0.27-2.26-0.81s-0.8-1.29-0.8-2.25c0-1,0.29-1.79,0.87-2.37s1.29-0.87,2.13-0.87
			c0.88,0,1.55,0.26,2.03,0.78s0.72,1.22,0.72,2.12V61.55z M45.75,60.41c0-0.86-0.35-1.29-1.04-1.29c-0.3,0-0.55,0.12-0.77,0.37
			s-0.35,0.55-0.4,0.92H45.75z"/>
		<path fill="#FFFFFF" d="M54.44,64.02h-1.85v-3.33c0-0.93-0.33-1.39-1-1.39c-0.32,0-0.58,0.12-0.79,0.37s-0.31,0.56-0.31,0.94v3.42
			h-1.85v-6h1.85v0.95h0.02c0.44-0.73,1.08-1.1,1.93-1.1c1.33,0,1.99,0.82,1.99,2.47V64.02z"/>
		<path fill="#FFFFFF" d="M59.46,63.95c-0.27,0.14-0.69,0.22-1.24,0.22c-1.3,0-1.96-0.68-1.96-2.03v-2.75H55.3v-1.37h0.97v-1.29
			l1.85-0.53v1.82h1.35v1.37h-1.35v2.43c0,0.63,0.25,0.94,0.74,0.94c0.2,0,0.4-0.06,0.6-0.17V63.95z"/>
		<path fill="#FFFFFF" d="M61.51,57.07c-0.31,0-0.57-0.09-0.77-0.28s-0.3-0.41-0.3-0.68c0-0.28,0.1-0.5,0.3-0.68
			s0.46-0.26,0.77-0.26c0.32,0,0.57,0.09,0.77,0.26s0.3,0.4,0.3,0.68c0,0.28-0.1,0.51-0.3,0.69S61.83,57.07,61.51,57.07z
			 M62.42,64.02h-1.85v-6h1.85V64.02z"/>
		<path fill="#FFFFFF" d="M67.52,63.95c-0.27,0.14-0.69,0.22-1.24,0.22c-1.3,0-1.96-0.68-1.96-2.03v-2.75h-0.97v-1.37h0.97v-1.29
			l1.85-0.53v1.82h1.35v1.37h-1.35v2.43c0,0.63,0.25,0.94,0.74,0.94c0.2,0,0.4-0.06,0.6-0.17V63.95z"/>
		<path fill="#FFFFFF" d="M74.58,58.02l-2.44,6.48c-0.59,1.56-1.47,2.34-2.65,2.34c-0.45,0-0.82-0.05-1.11-0.15v-1.48
			c0.25,0.14,0.51,0.22,0.8,0.22c0.48,0,0.81-0.22,1-0.67l0.32-0.74l-2.44-5.99h2.05l1.12,3.65c0.07,0.23,0.13,0.49,0.16,0.8h0.02
			c0.04-0.23,0.1-0.49,0.19-0.79l1.13-3.66H74.58z"/>
		<path fill="#FFFFFF" d="M30.24,77.73h-0.02v3.46h-1.85v-8.76h1.85v0.9h0.02c0.46-0.7,1.1-1.05,1.93-1.05c0.78,0,1.38,0.27,1.8,0.8
			s0.64,1.26,0.64,2.18c0,1-0.25,1.8-0.74,2.41s-1.15,0.91-1.97,0.91C31.17,78.57,30.62,78.29,30.24,77.73z M30.18,75.26v0.48
			c0,0.41,0.11,0.75,0.33,1.01s0.51,0.39,0.86,0.39c0.42,0,0.75-0.16,0.98-0.49s0.35-0.79,0.35-1.39c0-1.05-0.41-1.58-1.23-1.58
			c-0.38,0-0.69,0.14-0.93,0.43S30.18,74.79,30.18,75.26z"/>
		<path fill="#FFFFFF" d="M37.69,78.42h-1.85v-8.88h1.85V78.42z"/>
		<path fill="#FFFFFF" d="M44.27,78.42h-1.75v-0.86h-0.02c-0.4,0.67-1,1.01-1.79,1.01c-0.58,0-1.04-0.17-1.37-0.5
			s-0.5-0.77-0.5-1.32c0-1.16,0.69-1.84,2.07-2.02l1.63-0.22c0-0.66-0.36-0.98-1.07-0.98c-0.71,0-1.39,0.21-2.04,0.64v-1.39
			c0.26-0.13,0.61-0.25,1.06-0.35s0.85-0.15,1.22-0.15c1.71,0,2.57,0.85,2.57,2.56V78.42z M42.53,75.99v-0.4l-1.09,0.14
			c-0.6,0.08-0.9,0.35-0.9,0.81c0,0.21,0.07,0.38,0.22,0.52s0.34,0.2,0.59,0.2c0.35,0,0.63-0.12,0.85-0.36S42.53,76.35,42.53,75.99z
			"/>
		<path fill="#FFFFFF" d="M49.27,78.35c-0.27,0.14-0.69,0.22-1.24,0.22c-1.3,0-1.96-0.68-1.96-2.03v-2.75h-0.97v-1.37h0.97v-1.29
			l1.85-0.53v1.82h1.35v1.37h-1.35v2.43c0,0.63,0.25,0.94,0.74,0.94c0.2,0,0.4-0.06,0.6-0.17V78.35z"/>
		<path fill="#FFFFFF" d="M54.4,70.96c-0.24-0.09-0.47-0.14-0.69-0.14c-0.59,0-0.89,0.32-0.89,0.97v0.64h1.37v1.37h-1.37v4.63h-1.85
			v-4.63h-1.01v-1.37h1.01v-0.74c0-0.68,0.22-1.23,0.67-1.65s1.05-0.63,1.82-0.63c0.38,0,0.69,0.04,0.94,0.12V70.96z"/>
		<path fill="#FFFFFF" d="M57.96,78.57c-1,0-1.79-0.28-2.36-0.84s-0.86-1.32-0.86-2.28c0-0.99,0.3-1.77,0.89-2.33
			s1.4-0.84,2.41-0.84c1,0,1.78,0.28,2.34,0.84s0.85,1.3,0.85,2.22c0,1-0.29,1.78-0.88,2.36S58.98,78.57,57.96,78.57z M58.01,73.69
			c-0.44,0-0.78,0.15-1.02,0.45s-0.36,0.73-0.36,1.28c0,1.15,0.46,1.73,1.39,1.73c0.89,0,1.33-0.59,1.33-1.78
			C59.35,74.25,58.9,73.69,58.01,73.69z"/>
		<path fill="#FFFFFF" d="M66.34,74.09c-0.22-0.12-0.48-0.18-0.78-0.18c-0.4,0-0.72,0.15-0.94,0.44s-0.34,0.7-0.34,1.2v2.87h-1.85
			v-6h1.85v1.11h0.02c0.29-0.81,0.82-1.22,1.58-1.22c0.2,0,0.35,0.02,0.46,0.07V74.09z"/>
		<path fill="#FFFFFF" d="M76.73,78.42h-1.85V75c0-0.87-0.32-1.31-0.96-1.31c-0.3,0-0.55,0.13-0.74,0.39s-0.29,0.59-0.29,0.98v3.36
			h-1.85v-3.46c0-0.85-0.31-1.27-0.94-1.27c-0.32,0-0.57,0.13-0.76,0.38s-0.28,0.59-0.28,1.02v3.33H67.2v-6h1.85v0.94h0.02
			c0.19-0.32,0.46-0.58,0.81-0.78s0.72-0.3,1.13-0.3c0.85,0,1.43,0.37,1.74,1.12c0.46-0.75,1.13-1.12,2.02-1.12
			c1.3,0,1.96,0.8,1.96,2.41V78.42z"/>
	</g>
	<g>
		<rect x="455" y="18.34" fill="none" width="65" height="16.21"/>
		<path d="M466.8,26.66c-0.82,0.47-1.84,0.71-3.06,0.71c-1.35,0-2.42-0.37-3.2-1.12s-1.17-1.78-1.17-3.09c0-1.32,0.43-2.4,1.28-3.23
			s1.98-1.25,3.4-1.25c0.89,0,1.68,0.12,2.36,0.37v1.78c-0.65-0.38-1.44-0.56-2.38-0.56c-0.79,0-1.42,0.25-1.92,0.76
			s-0.74,1.19-0.74,2.04c0,0.86,0.22,1.53,0.67,2s1.04,0.71,1.8,0.71c0.45,0,0.81-0.06,1.08-0.19v-1.64h-1.68v-1.51h3.57V26.66z"/>
		<path d="M472.24,22.9c-0.22-0.12-0.48-0.18-0.78-0.18c-0.4,0-0.72,0.15-0.94,0.44s-0.34,0.7-0.34,1.2v2.87h-1.85v-6h1.85v1.11
			h0.02c0.29-0.81,0.82-1.22,1.58-1.22c0.2,0,0.35,0.02,0.46,0.07V22.9z"/>
		<path d="M478.01,27.23h-1.75v-0.86h-0.02c-0.4,0.67-1,1.01-1.79,1.01c-0.58,0-1.04-0.17-1.37-0.5s-0.5-0.77-0.5-1.32
			c0-1.16,0.69-1.84,2.07-2.02l1.63-0.22c0-0.66-0.36-0.98-1.07-0.98c-0.71,0-1.39,0.21-2.04,0.64v-1.39
			c0.26-0.13,0.61-0.25,1.06-0.35s0.85-0.15,1.22-0.15c1.71,0,2.57,0.85,2.57,2.56V27.23z M476.27,24.79v-0.4l-1.09,0.14
			c-0.6,0.08-0.9,0.35-0.9,0.81c0,0.21,0.07,0.38,0.22,0.52s0.34,0.2,0.59,0.2c0.35,0,0.63-0.12,0.85-0.36
			S476.27,25.16,476.27,24.79z"/>
		<path d="M481.35,26.53h-0.02v3.46h-1.85v-8.76h1.85v0.9h0.02c0.46-0.7,1.1-1.05,1.93-1.05c0.78,0,1.38,0.27,1.8,0.8
			s0.64,1.26,0.64,2.18c0,1-0.25,1.8-0.74,2.41s-1.15,0.91-1.97,0.91C482.28,27.37,481.73,27.09,481.35,26.53z M481.3,24.07v0.48
			c0,0.41,0.11,0.75,0.33,1.01s0.51,0.39,0.86,0.39c0.42,0,0.75-0.16,0.98-0.49s0.35-0.79,0.35-1.39c0-1.05-0.41-1.58-1.23-1.58
			c-0.38,0-0.69,0.14-0.93,0.43S481.3,23.59,481.3,24.07z"/>
		<path d="M492.7,27.23h-1.85v-3.41c0-0.88-0.32-1.32-0.96-1.32c-0.33,0-0.59,0.12-0.8,0.37s-0.3,0.56-0.3,0.94v3.42h-1.85v-8.88
			h1.85v3.77h0.02c0.45-0.69,1.07-1.04,1.85-1.04c1.36,0,2.04,0.82,2.04,2.46V27.23z"/>
		<path d="M505.04,27.23h-2.06l-0.6-1.87h-2.99l-0.59,1.87h-2.05l3.06-8.4h2.24L505.04,27.23z M501.95,23.9l-0.9-2.82
			c-0.07-0.21-0.11-0.46-0.14-0.76h-0.05c-0.02,0.25-0.07,0.49-0.15,0.73l-0.91,2.85H501.95z"/>
		<path d="M507.89,24.33v2.89H506v-8.4h2.96c2.12,0,3.18,0.89,3.18,2.68c0,0.84-0.3,1.53-0.91,2.05s-1.42,0.78-2.43,0.78H507.89z
			 M507.89,20.28v2.62h0.74c1.01,0,1.51-0.44,1.51-1.32c0-0.86-0.5-1.29-1.51-1.29H507.89z"/>
		<path d="M515.1,27.23h-1.89v-8.4h1.89V27.23z"/>
	</g>
	<g>
		<path fill="#1E1E1E" d="M151.86,29.9h-1.17l-1.41-2.36c-0.13-0.22-0.25-0.41-0.38-0.56s-0.25-0.28-0.37-0.38s-0.26-0.17-0.41-0.21
			s-0.31-0.07-0.5-0.07h-0.81v3.57h-0.98v-8.4h2.51c0.37,0,0.71,0.05,1.02,0.14s0.58,0.23,0.81,0.42s0.41,0.42,0.54,0.7
			s0.19,0.61,0.19,0.98c0,0.29-0.04,0.56-0.13,0.81s-0.21,0.46-0.38,0.65s-0.36,0.35-0.59,0.49s-0.49,0.24-0.77,0.31v0.02
			c0.14,0.06,0.26,0.13,0.37,0.21s0.2,0.17,0.3,0.28s0.19,0.23,0.28,0.37s0.19,0.3,0.31,0.48L151.86,29.9z M146.82,22.39v3.05h1.34
			c0.25,0,0.47-0.04,0.68-0.11s0.39-0.18,0.54-0.32s0.27-0.31,0.36-0.51s0.13-0.43,0.13-0.68c0-0.45-0.15-0.8-0.44-1.05
			s-0.71-0.38-1.26-0.38H146.82z"/>
		<path fill="#1E1E1E" d="M157.53,27.14h-4.24c0.02,0.67,0.2,1.18,0.54,1.55s0.82,0.54,1.42,0.54c0.68,0,1.3-0.22,1.86-0.67v0.9
			c-0.53,0.38-1.22,0.57-2.09,0.57c-0.85,0-1.51-0.27-2-0.82s-0.73-1.31-0.73-2.3c0-0.93,0.27-1.69,0.79-2.28s1.19-0.88,1.97-0.88
			s1.39,0.25,1.82,0.76s0.64,1.21,0.64,2.12V27.14z M156.55,26.33c0-0.55-0.14-0.99-0.4-1.29s-0.63-0.46-1.1-0.46
			c-0.45,0-0.84,0.16-1.15,0.49s-0.51,0.75-0.59,1.27H156.55z"/>
		<path fill="#1E1E1E" d="M164.15,32.66h-0.96v-3.79h-0.02c-0.42,0.78-1.1,1.17-2.05,1.17c-0.75,0-1.36-0.27-1.81-0.81
			s-0.68-1.27-0.68-2.19c0-1,0.25-1.79,0.75-2.39s1.17-0.89,2.02-0.89c0.82,0,1.41,0.32,1.78,0.97h0.02V23.9h0.96V32.66z
			 M163.18,27.2v-0.87c0-0.49-0.16-0.91-0.48-1.25s-0.73-0.51-1.23-0.51c-0.58,0-1.04,0.21-1.37,0.64s-0.5,1.03-0.5,1.81
			c0,0.69,0.16,1.23,0.49,1.63s0.74,0.59,1.25,0.59c0.56,0,1.01-0.19,1.34-0.58S163.18,27.79,163.18,27.2z"/>
		<path fill="#1E1E1E" d="M170.86,29.9h-0.96v-0.95h-0.02c-0.4,0.73-1.02,1.09-1.85,1.09c-1.43,0-2.14-0.85-2.14-2.55V23.9h0.96
			v3.43c0,1.27,0.48,1.9,1.45,1.9c0.47,0,0.85-0.17,1.16-0.52s0.46-0.8,0.46-1.36V23.9h0.96V29.9z"/>
		<path fill="#1E1E1E" d="M177.58,27.14h-4.24c0.02,0.67,0.2,1.18,0.54,1.55s0.82,0.54,1.42,0.54c0.68,0,1.3-0.22,1.86-0.67v0.9
			c-0.53,0.38-1.22,0.57-2.09,0.57c-0.85,0-1.51-0.27-2-0.82s-0.73-1.31-0.73-2.3c0-0.93,0.27-1.69,0.79-2.28s1.19-0.88,1.97-0.88
			s1.39,0.25,1.82,0.76s0.64,1.21,0.64,2.12V27.14z M176.59,26.33c0-0.55-0.14-0.99-0.4-1.29s-0.63-0.46-1.1-0.46
			c-0.45,0-0.84,0.16-1.15,0.49s-0.51,0.75-0.59,1.27H176.59z"/>
		<path fill="#1E1E1E" d="M178.65,29.69v-1.03c0.52,0.39,1.1,0.58,1.73,0.58c0.84,0,1.27-0.28,1.27-0.84c0-0.16-0.04-0.3-0.11-0.41
			s-0.17-0.21-0.29-0.3s-0.27-0.16-0.43-0.23s-0.35-0.14-0.54-0.21c-0.27-0.11-0.5-0.21-0.7-0.32s-0.37-0.23-0.5-0.36
			s-0.24-0.29-0.3-0.46s-0.1-0.37-0.1-0.6c0-0.28,0.06-0.53,0.19-0.75s0.3-0.4,0.52-0.54s0.46-0.26,0.74-0.33s0.56-0.11,0.85-0.11
			c0.52,0,0.98,0.09,1.39,0.27V25c-0.44-0.29-0.95-0.43-1.52-0.43c-0.18,0-0.34,0.02-0.49,0.06s-0.27,0.1-0.37,0.17
			s-0.18,0.16-0.24,0.27s-0.09,0.22-0.09,0.34c0,0.16,0.03,0.29,0.09,0.39s0.14,0.2,0.25,0.28s0.24,0.16,0.4,0.22
			s0.33,0.14,0.53,0.22c0.27,0.1,0.5,0.21,0.71,0.31s0.39,0.23,0.54,0.36s0.26,0.29,0.34,0.47s0.12,0.38,0.12,0.63
			c0,0.3-0.06,0.55-0.2,0.77s-0.31,0.4-0.53,0.54s-0.47,0.25-0.76,0.32s-0.58,0.11-0.9,0.11C179.64,30.04,179.1,29.92,178.65,29.69z
			"/>
		<path fill="#1E1E1E" d="M186.94,29.84c-0.23,0.13-0.53,0.19-0.9,0.19c-1.05,0-1.58-0.59-1.58-1.76v-3.55h-1.03V23.9h1.03v-1.46
			l0.96-0.31v1.78h1.51v0.82h-1.51v3.38c0,0.4,0.07,0.69,0.21,0.86s0.36,0.26,0.68,0.26c0.24,0,0.45-0.07,0.63-0.2V29.84z"/>
		<path fill="#1E1E1E" d="M148.49,42.84c-0.23,0.13-0.53,0.19-0.9,0.19c-1.05,0-1.58-0.59-1.58-1.76v-3.55h-1.03V36.9h1.03v-1.46
			l0.96-0.31v1.78h1.51v0.82h-1.51v3.38c0,0.4,0.07,0.69,0.21,0.86s0.36,0.26,0.68,0.26c0.24,0,0.45-0.07,0.63-0.2V42.84z"/>
		<path fill="#1E1E1E" d="M152.15,43.04c-0.89,0-1.59-0.28-2.12-0.84s-0.79-1.3-0.79-2.23c0-1.01,0.28-1.79,0.83-2.36
			s1.29-0.85,2.23-0.85c0.89,0,1.59,0.28,2.09,0.83s0.75,1.31,0.75,2.29c0,0.96-0.27,1.72-0.81,2.3S153.06,43.04,152.15,43.04z
			 M152.22,37.57c-0.62,0-1.11,0.21-1.46,0.63s-0.54,1-0.54,1.74c0,0.71,0.18,1.27,0.54,1.68s0.85,0.62,1.46,0.62
			c0.62,0,1.1-0.2,1.43-0.6s0.5-0.97,0.5-1.72c0-0.75-0.17-1.33-0.5-1.73S152.84,37.57,152.22,37.57z"/>
		<path fill="#1E1E1E" d="M161.6,42.9h-1.35l-2.65-2.88h-0.02v2.88h-0.96v-8.88h0.96v5.63h0.02l2.52-2.75h1.26l-2.78,2.89
			L161.6,42.9z"/>
		<path fill="#1E1E1E" d="M167.11,40.14h-4.24c0.02,0.67,0.2,1.18,0.54,1.55s0.82,0.54,1.42,0.54c0.68,0,1.3-0.22,1.86-0.67v0.9
			c-0.53,0.38-1.22,0.57-2.09,0.57c-0.85,0-1.51-0.27-2-0.82s-0.73-1.31-0.73-2.3c0-0.93,0.27-1.69,0.79-2.28s1.19-0.88,1.97-0.88
			s1.39,0.25,1.82,0.76s0.64,1.21,0.64,2.12V40.14z M166.13,39.33c0-0.55-0.14-0.99-0.4-1.29s-0.63-0.46-1.1-0.46
			c-0.45,0-0.84,0.16-1.15,0.49s-0.51,0.75-0.59,1.27H166.13z"/>
		<path fill="#1E1E1E" d="M173.55,42.9h-0.96v-3.42c0-1.27-0.46-1.91-1.39-1.91c-0.48,0-0.88,0.18-1.19,0.54s-0.47,0.82-0.47,1.37
			v3.42h-0.96v-6h0.96v1h0.02c0.45-0.76,1.11-1.14,1.97-1.14c0.66,0,1.16,0.21,1.51,0.64s0.52,1.04,0.52,1.84V42.9z"/>
	</g>
	<g>
		<path fill="#1E1E1E" d="M356.89,89.26h-1.17l-1.41-2.36c-0.13-0.22-0.25-0.41-0.38-0.56s-0.25-0.28-0.37-0.38
			s-0.26-0.17-0.41-0.21s-0.31-0.07-0.5-0.07h-0.81v3.57h-0.98v-8.4h2.51c0.37,0,0.71,0.05,1.02,0.14s0.58,0.23,0.81,0.42
			s0.41,0.42,0.54,0.7s0.19,0.61,0.19,0.98c0,0.29-0.04,0.56-0.13,0.81s-0.21,0.46-0.38,0.65s-0.36,0.35-0.59,0.49
			s-0.49,0.24-0.77,0.31v0.02c0.14,0.06,0.26,0.13,0.37,0.21s0.2,0.17,0.3,0.28s0.19,0.23,0.28,0.37s0.19,0.3,0.31,0.48
			L356.89,89.26z M351.86,81.75v3.05h1.34c0.25,0,0.47-0.04,0.68-0.11s0.39-0.18,0.54-0.32s0.27-0.31,0.36-0.51s0.13-0.43,0.13-0.68
			c0-0.45-0.15-0.8-0.44-1.05s-0.71-0.38-1.26-0.38H351.86z"/>
		<path fill="#1E1E1E" d="M362.57,86.5h-4.24c0.02,0.67,0.2,1.18,0.54,1.55s0.82,0.54,1.42,0.54c0.68,0,1.3-0.22,1.86-0.67v0.9
			c-0.53,0.38-1.22,0.57-2.09,0.57c-0.85,0-1.51-0.27-2-0.82s-0.73-1.31-0.73-2.3c0-0.93,0.26-1.69,0.79-2.28s1.19-0.88,1.97-0.88
			s1.39,0.25,1.82,0.76s0.64,1.21,0.64,2.12V86.5z M361.59,85.69c0-0.55-0.14-0.99-0.4-1.29s-0.63-0.46-1.1-0.46
			c-0.45,0-0.84,0.16-1.15,0.49s-0.51,0.75-0.59,1.27H361.59z"/>
		<path fill="#1E1E1E" d="M363.65,89.05v-1.03c0.52,0.39,1.1,0.58,1.73,0.58c0.84,0,1.27-0.28,1.27-0.84c0-0.16-0.04-0.3-0.11-0.41
			s-0.17-0.21-0.29-0.3s-0.27-0.16-0.43-0.23s-0.34-0.14-0.54-0.21c-0.27-0.11-0.5-0.21-0.7-0.32s-0.37-0.23-0.5-0.36
			s-0.24-0.29-0.3-0.46s-0.1-0.37-0.1-0.6c0-0.28,0.06-0.53,0.19-0.75s0.3-0.4,0.52-0.54s0.46-0.26,0.74-0.33s0.56-0.11,0.85-0.11
			c0.52,0,0.98,0.09,1.39,0.27v0.97c-0.44-0.29-0.95-0.43-1.52-0.43c-0.18,0-0.34,0.02-0.49,0.06s-0.27,0.1-0.37,0.17
			s-0.18,0.16-0.24,0.27s-0.08,0.22-0.08,0.34c0,0.16,0.03,0.29,0.08,0.39s0.14,0.2,0.25,0.28s0.24,0.16,0.4,0.22
			s0.33,0.14,0.53,0.22c0.27,0.1,0.5,0.21,0.71,0.31s0.39,0.23,0.54,0.36s0.26,0.29,0.34,0.47s0.12,0.38,0.12,0.63
			c0,0.3-0.07,0.55-0.2,0.77s-0.31,0.4-0.52,0.54s-0.47,0.25-0.76,0.32s-0.58,0.11-0.9,0.11C364.63,89.4,364.1,89.28,363.65,89.05z"
			/>
		<path fill="#1E1E1E" d="M369.98,88.4h-0.02v3.63h-0.96v-8.76h0.96v1.05h0.02c0.47-0.8,1.16-1.2,2.07-1.2
			c0.77,0,1.38,0.27,1.81,0.81s0.65,1.26,0.65,2.16c0,1-0.24,1.81-0.73,2.41s-1.16,0.91-2,0.91C371,89.4,370.4,89.07,369.98,88.4z
			 M369.95,85.98v0.84c0,0.5,0.16,0.92,0.48,1.26s0.73,0.52,1.23,0.52c0.58,0,1.04-0.22,1.37-0.67s0.5-1.06,0.5-1.86
			c0-0.67-0.15-1.19-0.46-1.57s-0.73-0.57-1.25-0.57c-0.56,0-1.01,0.19-1.35,0.58S369.95,85.39,369.95,85.98z"/>
		<path fill="#1E1E1E" d="M378.56,89.4c-0.89,0-1.59-0.28-2.12-0.84s-0.79-1.3-0.79-2.23c0-1.01,0.28-1.79,0.83-2.36
			s1.29-0.85,2.23-0.85c0.89,0,1.59,0.28,2.09,0.83s0.75,1.31,0.75,2.29c0,0.96-0.27,1.72-0.81,2.3S379.47,89.4,378.56,89.4z
			 M378.63,83.93c-0.62,0-1.11,0.21-1.46,0.63s-0.54,1-0.54,1.74c0,0.71,0.18,1.27,0.54,1.68s0.85,0.62,1.46,0.62
			c0.62,0,1.1-0.2,1.43-0.6s0.5-0.97,0.5-1.72c0-0.75-0.17-1.33-0.5-1.73S379.25,83.93,378.63,83.93z"/>
		<path fill="#1E1E1E" d="M388.01,89.26h-0.96v-3.42c0-1.27-0.46-1.91-1.39-1.91c-0.48,0-0.88,0.18-1.19,0.54s-0.47,0.82-0.47,1.37
			v3.42h-0.96v-6h0.96v1h0.02c0.45-0.76,1.11-1.14,1.97-1.14c0.66,0,1.16,0.21,1.51,0.64s0.52,1.04,0.52,1.84V89.26z"/>
		<path fill="#1E1E1E" d="M389.43,89.05v-1.03c0.52,0.39,1.1,0.58,1.73,0.58c0.84,0,1.27-0.28,1.27-0.84c0-0.16-0.04-0.3-0.11-0.41
			s-0.17-0.21-0.29-0.3s-0.27-0.16-0.43-0.23s-0.34-0.14-0.54-0.21c-0.27-0.11-0.5-0.21-0.7-0.32s-0.37-0.23-0.5-0.36
			s-0.24-0.29-0.3-0.46s-0.1-0.37-0.1-0.6c0-0.28,0.06-0.53,0.19-0.75s0.3-0.4,0.52-0.54s0.46-0.26,0.74-0.33s0.56-0.11,0.85-0.11
			c0.52,0,0.98,0.09,1.39,0.27v0.97c-0.44-0.29-0.95-0.43-1.52-0.43c-0.18,0-0.34,0.02-0.49,0.06s-0.27,0.1-0.37,0.17
			s-0.18,0.16-0.24,0.27s-0.08,0.22-0.08,0.34c0,0.16,0.03,0.29,0.08,0.39s0.14,0.2,0.25,0.28s0.24,0.16,0.4,0.22
			s0.33,0.14,0.53,0.22c0.27,0.1,0.5,0.21,0.71,0.31s0.39,0.23,0.54,0.36s0.26,0.29,0.34,0.47s0.12,0.38,0.12,0.63
			c0,0.3-0.07,0.55-0.2,0.77s-0.31,0.4-0.52,0.54s-0.47,0.25-0.76,0.32s-0.58,0.11-0.9,0.11C390.42,89.4,389.88,89.28,389.43,89.05z
			"/>
		<path fill="#1E1E1E" d="M399.68,86.5h-4.24c0.02,0.67,0.2,1.18,0.54,1.55s0.82,0.54,1.42,0.54c0.68,0,1.3-0.22,1.86-0.67v0.9
			c-0.53,0.38-1.22,0.57-2.09,0.57c-0.85,0-1.51-0.27-2-0.82s-0.73-1.31-0.73-2.3c0-0.93,0.26-1.69,0.79-2.28s1.19-0.88,1.97-0.88
			s1.39,0.25,1.82,0.76s0.64,1.21,0.64,2.12V86.5z M398.69,85.69c0-0.55-0.14-0.99-0.4-1.29s-0.63-0.46-1.1-0.46
			c-0.45,0-0.84,0.16-1.15,0.49s-0.51,0.75-0.59,1.27H398.69z"/>
	</g>
	<g>
		<path fill="#1E1E1E" d="M370.69,40.55h-1.09l-0.89-2.36h-3.56l-0.84,2.36h-1.1l3.22-8.4h1.02L370.69,40.55z M368.39,37.31
			l-1.32-3.58c-0.04-0.12-0.09-0.3-0.13-0.56h-0.02c-0.04,0.24-0.08,0.43-0.13,0.56l-1.31,3.58H368.39z"/>
		<path fill="#1E1E1E" d="M375.76,40.27c-0.46,0.28-1.01,0.42-1.64,0.42c-0.86,0-1.55-0.28-2.07-0.83s-0.79-1.28-0.79-2.17
			c0-0.99,0.28-1.78,0.85-2.38s1.32-0.9,2.27-0.9c0.53,0,0.99,0.1,1.39,0.29v0.98c-0.45-0.31-0.92-0.47-1.43-0.47
			c-0.61,0-1.12,0.22-1.51,0.66s-0.59,1.02-0.59,1.73c0,0.7,0.18,1.26,0.55,1.66s0.87,0.61,1.49,0.61c0.52,0,1.02-0.17,1.48-0.52
			V40.27z"/>
		<path fill="#1E1E1E" d="M381.17,40.27c-0.46,0.28-1.01,0.42-1.64,0.42c-0.86,0-1.55-0.28-2.07-0.83s-0.79-1.28-0.79-2.17
			c0-0.99,0.28-1.78,0.85-2.38s1.32-0.9,2.27-0.9c0.53,0,0.99,0.1,1.39,0.29v0.98c-0.45-0.31-0.92-0.47-1.43-0.47
			c-0.61,0-1.12,0.22-1.51,0.66s-0.59,1.02-0.59,1.73c0,0.7,0.18,1.26,0.55,1.66s0.86,0.61,1.49,0.61c0.52,0,1.02-0.17,1.48-0.52
			V40.27z"/>
		<path fill="#1E1E1E" d="M387.32,37.79h-4.24c0.02,0.67,0.2,1.18,0.54,1.55s0.82,0.54,1.42,0.54c0.68,0,1.3-0.22,1.86-0.67v0.9
			c-0.53,0.38-1.22,0.57-2.09,0.57c-0.85,0-1.51-0.27-2-0.82s-0.73-1.31-0.73-2.3c0-0.93,0.26-1.69,0.79-2.28s1.19-0.88,1.97-0.88
			s1.39,0.25,1.82,0.76s0.64,1.21,0.64,2.12V37.79z M386.34,36.97c0-0.55-0.14-0.99-0.4-1.29s-0.63-0.46-1.1-0.46
			c-0.45,0-0.84,0.16-1.15,0.49s-0.51,0.75-0.59,1.27H386.34z"/>
		<path fill="#1E1E1E" d="M388.4,40.33V39.3c0.52,0.39,1.1,0.58,1.73,0.58c0.84,0,1.27-0.28,1.27-0.84c0-0.16-0.04-0.3-0.11-0.41
			s-0.17-0.21-0.29-0.3s-0.27-0.16-0.43-0.23s-0.34-0.14-0.54-0.21c-0.27-0.11-0.5-0.21-0.7-0.32s-0.37-0.23-0.5-0.36
			s-0.24-0.29-0.3-0.46s-0.1-0.37-0.1-0.6c0-0.28,0.06-0.53,0.19-0.75s0.3-0.4,0.52-0.54s0.46-0.26,0.73-0.33s0.56-0.11,0.85-0.11
			c0.52,0,0.98,0.09,1.39,0.27v0.97c-0.44-0.29-0.95-0.43-1.52-0.43c-0.18,0-0.34,0.02-0.49,0.06s-0.27,0.1-0.37,0.17
			s-0.18,0.16-0.24,0.27s-0.08,0.22-0.08,0.34c0,0.16,0.03,0.29,0.08,0.39s0.14,0.2,0.25,0.28s0.24,0.16,0.4,0.22
			s0.33,0.14,0.53,0.22c0.27,0.1,0.5,0.21,0.71,0.31s0.39,0.23,0.54,0.36s0.26,0.29,0.34,0.47s0.12,0.38,0.12,0.63
			c0,0.3-0.07,0.55-0.2,0.77s-0.3,0.4-0.52,0.54s-0.47,0.25-0.76,0.32s-0.58,0.11-0.9,0.11C389.39,40.69,388.85,40.57,388.4,40.33z"
			/>
		<path fill="#1E1E1E" d="M393.49,40.33V39.3c0.52,0.39,1.1,0.58,1.73,0.58c0.84,0,1.27-0.28,1.27-0.84c0-0.16-0.04-0.3-0.11-0.41
			s-0.17-0.21-0.29-0.3s-0.27-0.16-0.43-0.23s-0.34-0.14-0.54-0.21c-0.27-0.11-0.5-0.21-0.7-0.32s-0.37-0.23-0.5-0.36
			s-0.24-0.29-0.3-0.46s-0.1-0.37-0.1-0.6c0-0.28,0.06-0.53,0.19-0.75s0.3-0.4,0.52-0.54s0.46-0.26,0.73-0.33s0.56-0.11,0.85-0.11
			c0.52,0,0.98,0.09,1.39,0.27v0.97c-0.44-0.29-0.95-0.43-1.52-0.43c-0.18,0-0.34,0.02-0.49,0.06s-0.27,0.1-0.37,0.17
			s-0.18,0.16-0.24,0.27s-0.08,0.22-0.08,0.34c0,0.16,0.03,0.29,0.08,0.39s0.14,0.2,0.25,0.28s0.24,0.16,0.4,0.22
			s0.33,0.14,0.53,0.22c0.27,0.1,0.5,0.21,0.71,0.31s0.39,0.23,0.54,0.36s0.26,0.29,0.34,0.47s0.12,0.38,0.12,0.63
			c0,0.3-0.07,0.55-0.2,0.77s-0.3,0.4-0.52,0.54s-0.47,0.25-0.76,0.32s-0.58,0.11-0.9,0.11C394.48,40.69,393.94,40.57,393.49,40.33z
			"/>
		<path fill="#1E1E1E" d="M405.01,40.49c-0.23,0.13-0.53,0.19-0.9,0.19c-1.05,0-1.58-0.59-1.58-1.76v-3.55h-1.03v-0.82h1.03v-1.46
			l0.96-0.31v1.78h1.51v0.82h-1.51v3.38c0,0.4,0.07,0.69,0.21,0.86s0.36,0.26,0.68,0.26c0.24,0,0.45-0.07,0.63-0.2V40.49z"/>
		<path fill="#1E1E1E" d="M408.67,40.69c-0.89,0-1.59-0.28-2.12-0.84s-0.79-1.3-0.79-2.23c0-1.01,0.28-1.79,0.83-2.36
			s1.29-0.85,2.23-0.85c0.89,0,1.59,0.28,2.09,0.83s0.75,1.31,0.75,2.29c0,0.96-0.27,1.72-0.81,2.3S409.58,40.69,408.67,40.69z
			 M408.74,35.22c-0.62,0-1.11,0.21-1.46,0.63s-0.54,1-0.54,1.74c0,0.71,0.18,1.27,0.54,1.68s0.85,0.62,1.46,0.62
			c0.62,0,1.1-0.2,1.43-0.6s0.5-0.97,0.5-1.72c0-0.75-0.17-1.33-0.5-1.73S409.36,35.22,408.74,35.22z"/>
		<path fill="#1E1E1E" d="M418.12,40.55h-1.35l-2.65-2.88h-0.02v2.88h-0.96v-8.88h0.96v5.63h0.02l2.52-2.75h1.26l-2.78,2.89
			L418.12,40.55z"/>
		<path fill="#1E1E1E" d="M423.64,37.79h-4.24c0.02,0.67,0.2,1.18,0.54,1.55s0.82,0.54,1.42,0.54c0.68,0,1.3-0.22,1.86-0.67v0.9
			c-0.53,0.38-1.22,0.57-2.09,0.57c-0.85,0-1.51-0.27-2-0.82s-0.73-1.31-0.73-2.3c0-0.93,0.27-1.69,0.79-2.28s1.19-0.88,1.97-0.88
			s1.39,0.25,1.82,0.76s0.64,1.21,0.64,2.12V37.79z M422.65,36.97c0-0.55-0.14-0.99-0.4-1.29s-0.63-0.46-1.1-0.46
			c-0.45,0-0.84,0.16-1.15,0.49s-0.51,0.75-0.59,1.27H422.65z"/>
		<path fill="#1E1E1E" d="M430.07,40.55h-0.96v-3.42c0-1.27-0.46-1.91-1.39-1.91c-0.48,0-0.88,0.18-1.19,0.54s-0.47,0.82-0.47,1.37
			v3.42h-0.96v-6h0.96v1h0.02c0.45-0.76,1.11-1.14,1.97-1.14c0.66,0,1.16,0.21,1.51,0.64s0.52,1.04,0.52,1.84V40.55z"/>
	</g>
	<g>
		<g>
			<path fill="#1E1E1E" d="M357.19,25.14h-0.98V21.3h-4.35v3.83h-0.98v-8.4h0.98v3.69h4.35v-3.69h0.98V25.14z"/>
			<path fill="#1E1E1E" d="M364.23,17.63h-2.43v7.51h-0.98v-7.51h-2.42v-0.89h5.83V17.63z"/>
			<path fill="#1E1E1E" d="M370.83,17.63h-2.43v7.51h-0.98v-7.51H365v-0.89h5.83V17.63z"/>
			<path fill="#1E1E1E" d="M373.02,21.96v3.18h-0.98v-8.4h2.31c0.9,0,1.59,0.22,2.09,0.66s0.74,1.05,0.74,1.85s-0.27,1.45-0.82,1.96
				s-1.29,0.76-2.22,0.76H373.02z M373.02,17.63v3.45h1.03c0.68,0,1.2-0.16,1.56-0.47s0.54-0.75,0.54-1.32
				c0-1.11-0.66-1.66-1.97-1.66H373.02z"/>
			<path fill="#1E1E1E" d="M388.33,24.56c-0.84,0.48-1.78,0.71-2.81,0.71c-1.2,0-2.17-0.39-2.91-1.16s-1.11-1.8-1.11-3.07
				c0-1.3,0.41-2.37,1.23-3.2s1.86-1.25,3.13-1.25c0.91,0,1.68,0.15,2.3,0.45v1.09c-0.68-0.43-1.48-0.64-2.41-0.64
				c-0.94,0-1.71,0.32-2.31,0.97s-0.9,1.49-0.9,2.52c0,1.06,0.28,1.9,0.84,2.5s1.32,0.91,2.27,0.91c0.66,0,1.22-0.13,1.71-0.39
				v-2.36h-1.84v-0.89h2.82V24.56z"/>
			<path fill="#1E1E1E" d="M394.67,25.14h-4.45v-8.4h4.27v0.89h-3.28v2.79h3.04v0.88h-3.04v2.94h3.47V25.14z"/>
			<path fill="#1E1E1E" d="M401.33,17.63h-2.43v7.51h-0.98v-7.51h-2.42v-0.89h5.83V17.63z"/>
			<path fill="#1E1E1E" d="M411.7,22.03h-2.37v2.36h-0.78v-2.36h-2.36v-0.79h2.36v-2.36h0.78v2.36h2.37V22.03z"/>
		</g>
	</g>
	<g>
	</g>
	<g>
	</g>
	<g>
	</g>
	<g>
	</g>
	<g>
	</g>
	<g>
	</g>
	<g>
	</g>
	<g>
	</g>
	<g>
	</g>
	<g>
	</g>
	<g>
	</g>
	<g>
	</g>
	<g>
	</g>
	<g>
	</g>
	<g>
	</g>
	<g>
	</g>
	<g>
	</g>
	<g>
	</g>
	<g>
	</g>
	<g>
	</g>
	<g>
	</g>
	<g>
	</g>
	<g>
	</g>
	<g>
	</g>
	<g>
	</g>
	<g>
	</g>
	<g>
	</g>
	<g>
	</g>
	<g>
	</g>
	<g>
	</g>
	<g>
	</g>
	<g>
	</g>
	<g>
	</g>
	<g>
	</g>
	<g>
	</g>
	<g>
	</g>
	<g>
	</g>
	<g>
	</g>
	<g>
	</g>
	<g>
	</g>
	<g>
	</g>
	<g>
	</g>
	<g>
	</g>
	<g>
	</g>
	<g>
	</g>
	<g>
	</g>
	<g>
	</g>
	<g>
	</g>
	<g>
	</g>
	<g>
	</g>
	<g>
	</g>
	<g>
	</g>
	<g>
	</g>
	<g>
	</g>
	<g>
	</g>
	<g>
	</g>
	<g>
	</g>
	<g>
	</g>
	<g>
	</g>
	<g>
	</g>
	<g>
	</g>
	<g>
	</g>
	<g>
	</g>
	<g>
	</g>
	<g>
	</g>
	<g>
	</g>
	<g>
	</g>
	<g>
	</g>
	<g>
	</g>
	<g>
	</g>
	<g>
	</g>
	<g>
	</g>
	<g>
	</g>
	<g>
	</g>
	<g>
	</g>
	<g>
	</g>
	<g>
	</g>
	<g>
	</g>
	<g>
	</g>
	<g>
	</g>
	<g>
	</g>
	<g>
	</g>
	<g>
	</g>
	<g>
	</g>
	<g>
	</g>
	<g>
	</g>
	<g>
	</g>
	<g>
	</g>
	<g>
	</g>
	<g>
	</g>
	<g>
	</g>
	<g>
	</g>
	<g>
	</g>
	<g>
	</g>
	<g>
	</g>
	<g>
	</g>
	<g>
	</g>
	<g>
	</g>
	<g>
	</g>
	<g>
	</g>
	<g>
	</g>
	<g>
	</g>
	<g>
	</g>
	<g>
	</g>
	<g>
	</g>
	<g>
	</g>
	<g>
	</g>
	<g>
	</g>
	<g>
	</g>
	<g>
	</g>
	<g>
	</g>
	<g>
	</g>
	<g>
	</g>
	<g>
	</g>
	<g>
	</g>
	<g>
	</g>
	<g>
	</g>
	<g>
	</g>
	<g>
	</g>
	<g>
	</g>
	<g>
	</g>
	<g>
	</g>
	<g>
	</g>
	<g>
	</g>
	<g>
	</g>
	<g>
	</g>
	<g>
	</g>
	<g>
	</g>
	<g>
	</g>
	<g>
	</g>
	<g>
	</g>
	<g>
	</g>
	<g>
	</g>
	<g>
	</g>
	<g>
	</g>
	<g>
	</g>
	<g>
	</g>
	<g>
	</g>
	<g>
	</g>
	<g>
	</g>
	<g>
	</g>
	<g>
	</g>
	<g>
	</g>
	<g>
	</g>
	<g>
	</g>
	<g>
	</g>
	<g>
	</g>
	<g>
	</g>
	<g>
	</g>
	<g>
	</g>
	<g>
	</g>
	<g>
	</g>
	<g>
	</g>
	<g>
	</g>
	<g>
	</g>
	<g>
	</g>
	<g>
	</g>
	<g>
	</g>
	<g>
	</g>
	<g>
	</g>
	<g>
	</g>
	<g>
	</g>
	<g>
	</g>
	<g>
	</g>
	<g>
	</g>
	<g>
	</g>
	<g>
	</g>
	<g>
	</g>
	<g>
	</g>
	<g>
	</g>
	<g>
	</g>
	<g>
	</g>
	<g>
	</g>
	<g>
	</g>
	<g>
	</g>
	<g>
	</g>
	<g>
	</g>
	<g>
	</g>
	<g>
	</g>
	<g>
	</g>
	<g>
	</g>
	<g>
	</g>
	<g>
	</g>
	<g>
	</g>
	<g>
	</g>
	<g>
	</g>
	<g>
	</g>
	<g>
	</g>
	<g>
	</g>
	<g>
	</g>
	<g>
	</g>
	<g>
	</g>
	<g>
	</g>
	<g>
	</g>
	<g>
	</g>
	<g>
	</g>
	<g>
	</g>
	<g>
	</g>
	<g>
	</g>
	<g>
	</g>
	<g>
	</g>
	<g>
	</g>
	<g>
	</g>
	<g>
	</g>
	<g>
	</g>
	<g>
	</g>
	<g>
	</g>
	<g>
	</g>
	<g>
	</g>
	<g>
	</g>
	<g>
	</g>
	<g>
	</g>
	<g>
	</g>
	<g>
	</g>
	<g>
	</g>
	<g>
	</g>
	<g>
	</g>
	<g>
	</g>
	<g>
	</g>
	<g>
	</g>
	<g>
	</g>
	<g>
	</g>
	<g>
	</g>
	<g>
	</g>
	<g>
	</g>
	<g>
	</g>
	<g>
	</g>
	<g>
	</g>
	<g>
	</g>
	<g>
	</g>
	<g>
	</g>
	<g>
	</g>
	<g>
	</g>
	<g>
	</g>
	<g>
	</g>
	<g>
	</g>
	<g>
	</g>
	<g>
	</g>
	<g>
	</g>
	<g>
	</g>
	<g>
	</g>
	<g>
	</g>
	<g>
	</g>
	<g>
	</g>
	<g>
	</g>
	<g>
	</g>
	<g>
	</g>
	<g>
	</g>
	<g>
	</g>
	<g>
	</g>
	<g>
	</g>
	<g>
	</g>
	<g>
	</g>
	<g>
	</g>
	<g>
	</g>
	<g>
	</g>
	<g>
	</g>
	<g>
	</g>
	<g>
	</g>
	<g>
	</g>
	<g>
	</g>
	<g>
	</g>
	<g>
	</g>
	<g>
	</g>
	<g>
	</g>
	<g>
	</g>
	<g>
	</g>
	<g>
	</g>
	<g>
	</g>
	<g>
	</g>
	<g>
	</g>
	<g>
	</g>
	<g>
	</g>
	<g>
	</g>
	<g>
	</g>
	<g>
	</g>
	<g>
	</g>
	<g>
	</g>
	<g>
	</g>
	<g>
	</g>
	<g>
	</g>
	<g>
	</g>
	<g>
	</g>
	<g>
	</g>
	<g>
	</g>
	<g>
	</g>
	<g>
	</g>
	<g>
	</g>
	<g>
	</g>
	<g>
	</g>
	<g>
	</g>
	<g>
	</g>
	<g>
	</g>
	<g>
	</g>
	<g>
	</g>
	<g>
	</g>
	<g>
	</g>
	<g>
	</g>
	<g>
	</g>
	<g>
	</g>
	<g>
	</g>
	<g>
	</g>
	<g>
	</g>
	<g>
	</g>
	<g>
	</g>
	<g>
	</g>
	<g>
	</g>
	<g>
	</g>
	<g>
	</g>
	<g>
	</g>
	<g>
	</g>
	<g>
	</g>
	<g>
	</g>
	<g>
	</g>
	<g>
	</g>
	<g>
	</g>
	<g>
	</g>
	<g>
	</g>
	<g>
	</g>
	<g>
	</g>
	<g>
	</g>
	<g>
	</g>
	<g>
	</g>
	<g>
	</g>
	<g>
	</g>
	<g>
	</g>
	<g>
	</g>
	<g>
	</g>
	<g>
	</g>
	<g>
	</g>
	<g>
	</g>
	<g>
	</g>
	<g>
	</g>
	<g>
	</g>
	<g>
	</g>
	<g>
	</g>
	<g>
	</g>
	<g>
	</g>
	<g>
	</g>
	<g>
	</g>
	<g>
	</g>
	<g>
	</g>
	<g>
	</g>
	<g>
	</g>
	<g>
	</g>
	<g>
	</g>
	<g>
	</g>
	<g>
	</g>
	<g>
	</g>
	<g>
	</g>
	<g>
	</g>
	<g>
	</g>
	<g>
	</g>
	<g>
	</g>
	<g>
	</g>
	<g>
	</g>
	<g>
	</g>
	<g>
	</g>
	<g>
	</g>
	<g>
	</g>
	<g>
	</g>
	<g>
	</g>
	<g>
	</g>
	<g>
	</g>
	<g>
	</g>
	<g>
	</g>
	<g>
	</g>
	<g>
	</g>
	<g>
	</g>
	<g>
	</g>
	<g>
	</g>
	<g>
	</g>
	<g>
	</g>
	<g>
	</g>
	<g>
	</g>
	<g>
	</g>
	<g>
	</g>
	<g>
	</g>
	<g>
	</g>
	<g>
	</g>
	<g>
	</g>
	<g>
	</g>
	<g>
	</g>
	<g>
	</g>
	<g>
	</g>
	<g>
	</g>
	<g>
	</g>
	<g>
	</g>
	<g>
	</g>
	<g>
	</g>
	<g>
	</g>
	<g>
	</g>
	<g>
	</g>
	<g>
	</g>
	<g>
	</g>
	<g>
	</g>
	<g>
	</g>
	<g>
	</g>
	<g>
	</g>
	<g>
	</g>
	<g>
	</g>
	<g>
	</g>
	<g>
	</g>
	<g>
	</g>
	<g>
	</g>
	<g>
	</g>
	<g>
	</g>
	<g>
	</g>
	<g>
	</g>
	<g>
	</g>
	<g>
	</g>
	<g>
	</g>
	<g>
	</g>
	<g>
	</g>
	<g>
	</g>
	<g>
	</g>
	<g>
	</g>
	<g>
	</g>
	<g>
	</g>
	<g>
	</g>
	<g>
	</g>
	<g>
	</g>
	<g>
	</g>
	<g>
	</g>
	<g>
	</g>
	<g>
	</g>
	<g>
	</g>
	<g>
	</g>
	<g>
	</g>
	<g>
	</g>
	<g>
	</g>
	<g>
	</g>
	<g>
	</g>
	<g>
	</g>
	<g>
	</g>
	<g>
	</g>
	<g>
	</g>
	<g>
	</g>
	<g>
	</g>
	<g>
	</g>
	<g>
	</g>
	<g>
	</g>
	<g>
	</g>
	<g>
	</g>
	<g>
	</g>
	<g>
	</g>
	<g>
	</g>
	<g>
	</g>
	<g>
	</g>
	<g>
	</g>
	<g>
	</g>
	<g>
	</g>
	<g>
	</g>
	<g>
	</g>
	<g>
	</g>
	<g>
	</g>
	<g>
	</g>
	<g>
	</g>
	<g>
	</g>
	<g>
	</g>
	<g>
	</g>
	<g>
	</g>
	<g>
	</g>
	<g>
	</g>
	<g>
	</g>
	<g>
	</g>
	<g>
	</g>
	<g>
	</g>
	<g>
	</g>
	<g>
	</g>
	<g>
	</g>
	<g>
	</g>
	<g>
	</g>
	<g>
	</g>
	<g>
	</g>
	<g>
	</g>
	<g>
	</g>
	<g>
	</g>
	<g>
	</g>
	<g>
	</g>
	<g>
	</g>
	<g>
	</g>
	<g>
	</g>
	<g>
	</g>
	<g>
	</g>
	<g>
	</g>
	<g>
	</g>
	<g>
	</g>
	<g>
	</g>
	<g>
	</g>
	<g>
	</g>
	<g>
	</g>
	<g>
	</g>
	<g>
	</g>
	<g>
	</g>
	<g>
	</g>
	<g>
	</g>
	<g>
	</g>
	<g>
	</g>
	<g>
	</g>
	<g>
	</g>
	<g>
	</g>
	<g>
	</g>
	<g>
	</g>
	<g>
	</g>
	<g>
	</g>
	<g>
	</g>
	<g>
	</g>
	<g>
	</g>
	<g>
	</g>
	<g>
	</g>
	<g>
	</g>
	<g>
	</g>
	<g>
	</g>
	<g>
	</g>
	<g>
	</g>
	<g>
	</g>
	<g>
	</g>
	<g>
	</g>
	<g>
	</g>
	<g>
	</g>
	<g>
	</g>
	<g>
	</g>
	<g>
	</g>
	<g>
	</g>
	<g>
	</g>
	<g>
	</g>
	<g>
	</g>
	<g>
	</g>
	<g>
	</g>
	<g>
	</g>
	<g>
	</g>
	<g>
	</g>
	<g>
	</g>
	<g>
	</g>
	<g>
	</g>
	<g>
	</g>
	<g>
	</g>
	<g>
	</g>
	<g>
	</g>
	<g>
	</g>
	<g>
	</g>
	<g>
	</g>
	<g>
	</g>
	<g>
	</g>
	<g>
	</g>
	<g>
	</g>
	<g>
	</g>
	<g>
	</g>
	<g>
	</g>
	<g>
	</g>
	<g>
	</g>
	<g>
	</g>
	<g>
	</g>
	<g>
	</g>
	<g>
	</g>
	<g>
	</g>
	<g>
	</g>
	<g>
	</g>
	<g>
	</g>
	<g>
	</g>
	<g>
	</g>
	<g>
	</g>
	<g>
	</g>
	<g>
	</g>
	<g>
	</g>
	<g>
	</g>
	<g>
	</g>
	<g>
	</g>
	<g>
	</g>
	<g>
	</g>
	<g>
	</g>
	<g>
	</g>
	<g>
	</g>
	<g>
	</g>
	<g>
	</g>
	<g>
	</g>
	<g>
	</g>
	<g>
	</g>
	<g>
	</g>
	<g>
	</g>
	<g>
	</g>
	<g>
	</g>
	<g>
	</g>
	<g>
	</g>
	<g>
	</g>
	<g>
	</g>
	<g>
	</g>
	<g>
	</g>
	<g>
	</g>
	<g>
	</g>
	<g>
	</g>
	<g>
	</g>
	<g>
	</g>
	<g>
	</g>
	<g>
	</g>
	<g>
	</g>
	<g>
	</g>
	<g>
	</g>
	<g>
	</g>
	<g>
	</g>
	<g>
	</g>
	<g>
	</g>
	<g>
	</g>
	<g>
	</g>
	<g>
	</g>
	<g>
	</g>
	<g>
	</g>
	<g>
	</g>
	<g>
	</g>
	<g>
	</g>
	<g>
	</g>
	<g>
	</g>
	<g>
	</g>
	<g>
	</g>
	<g>
	</g>
	<g>
	</g>
	<g>
	</g>
	<g>
	</g>
	<g>
	</g>
	<g>
	</g>
	<g>
	</g>
	<g>
	</g>
	<g>
	</g>
	<g>
	</g>
	<g>
	</g>
	<g>
	</g>
	<g>
	</g>
	<g>
	</g>
	<g>
	</g>
	<g>
	</g>
	<g>
	</g>
	<g>
	</g>
	<g>
	</g>
	<g>
	</g>
	<g>
	</g>
	<g>
	</g>
	<g>
	</g>
	<g>
	</g>
	<g>
	</g>
	<g>
	</g>
	<g>
	</g>
	<g>
	</g>
	<g>
	</g>
	<g>
	</g>
	<g>
	</g>
	<g>
	</g>
	<g>
	</g>
	<g>
	</g>
	<g>
	</g>
	<g>
	</g>
	<g>
	</g>
	<g>
	</g>
	<g>
	</g>
	<g>
	</g>
	<g>
	</g>
	<g>
	</g>
	<g>
	</g>
	<g>
	</g>
	<g>
	</g>
	<g>
	</g>
	<g>
	</g>
	<g>
	</g>
	<g>
	</g>
	<g>
	</g>
	<g>
	</g>
	<g>
	</g>
	<g>
	</g>
	<g>
	</g>
	<g>
	</g>
	<g>
	</g>
	<g>
	</g>
	<g>
	</g>
	<g>
	</g>
	<g>
	</g>
	<g>
	</g>
	<g>
	</g>
	<g>
	</g>
	<g>
	</g>
	<g>
	</g>
	<g>
	</g>
	<g>
	</g>
	<g>
	</g>
	<g>
	</g>
	<g>
	</g>
	<g>
	</g>
	<g>
	</g>
	<g>
	</g>
	<g>
	</g>
	<g>
	</g>
	<g>
	</g>
	<g>
	</g>
	<g>
	</g>
	<g>
	</g>
	<g>
	</g>
	<g>
	</g>
	<g>
	</g>
	<g>
	</g>
	<g>
	</g>
	<g>
	</g>
	<g>
	</g>
	<g>
	</g>
	<g>
	</g>
	<g>
	</g>
	<g>
	</g>
	<g>
	</g>
	<g>
	</g>
	<g>
	</g>
	<g>
	</g>
	<g>
	</g>
	<g>
	</g>
	<g>
	</g>
	<g>
	</g>
	<g>
	</g>
	<g>
	</g>
	<g>
	</g>
	<g>
	</g>
	<g>
	</g>
	<g>
	</g>
	<g>
	</g>
	<g>
	</g>
	<g>
	</g>
	<g>
	</g>
	<g>
	</g>
	<g>
	</g>
	<g>
	</g>
	<g>
	</g>
	<g>
	</g>
	<g>
	</g>
	<g>
	</g>
	<g>
	</g>
	<g>
	</g>
	<g>
	</g>
	<g>
	</g>
	<g>
	</g>
	<g>
	</g>
	<g>
	</g>
	<g>
	</g>
	<g>
	</g>
	<g>
	</g>
	<g>
	</g>
	<g>
	</g>
	<g>
	</g>
	<g>
	</g>
	<g>
	</g>
	<g>
	</g>
	<g>
	</g>
	<g>
	</g>
	<g>
	</g>
	<g>
	</g>
	<g>
	</g>
	<g>
	</g>
	<g>
	</g>
	<g>
	</g>
	<g>
	</g>
	<g>
	</g>
	<g>
	</g>
	<g>
	</g>
	<g>
	</g>
	<g>
	</g>
	<g>
	</g>
	<g>
	</g>
	<g>
	</g>
	<g>
	</g>
	<g>
	</g>
	<g>
	</g>
	<g>
	</g>
	<g>
	</g>
	<g>
	</g>
	<g>
	</g>
	<g>
	</g>
	<g>
	</g>
	<g>
	</g>
	<g>
	</g>
	<g>
	</g>
	<g>
	</g>
	<g>
	</g>
	<g>
	</g>
	<g>
	</g>
	<g>
	</g>
	<g>
	</g>
	<g>
	</g>
	<g>
	</g>
	<g>
	</g>
	<g>
	</g>
	<g>
	</g>
	<g>
	</g>
	<g>
	</g>
	<g>
	</g>
	<g>
	</g>
	<g>
	</g>
	<g>
	</g>
	<g>
	</g>
	<g>
	</g>
	<g>
	</g>
	<g>
	</g>
	<g>
	</g>
	<g>
	</g>
	<g>
	</g>
	<g>
	</g>
	<g>
	</g>
	<g>
	</g>
	<g>
	</g>
	<g>
	</g>
	<g>
	</g>
	<g>
	</g>
	<g>
	</g>
	<g>
	</g>
	<g>
	</g>
	<g>
	</g>
	<g>
	</g>
	<g>
	</g>
	<g>
	</g>
	<g>
	</g>
	<g>
	</g>
	<g>
	</g>
	<g>
	</g>
	<g>
	</g>
	<g>
	</g>
	<g>
	</g>
	<g>
	</g>
	<g>
	</g>
	<g>
	</g>
	<g>
	</g>
	<g>
	</g>
	<g>
	</g>
	<g>
	</g>
	<g>
	</g>
	<g>
	</g>
	<g>
	</g>
	<g>
	</g>
	<g>
	</g>
	<g>
	</g>
	<g>
	</g>
	<g>
	</g>
	<g>
	</g>
	<g>
	</g>
	<g>
	</g>
	<g>
	</g>
	<g>
	</g>
	<g>
	</g>
	<g>
	</g>
	<g>
	</g>
	<g>
	</g>
	<g>
	</g>
	<g>
	</g>
	<g>
	</g>
	<g>
	</g>
	<g>
	</g>
	<g>
	</g>
	<g>
	</g>
	<g>
	</g>
	<g>
	</g>
	<g>
	</g>
	<g>
	</g>
	<g>
	</g>
	<g>
	</g>
	<g>
	</g>
	<g>
	</g>
	<g>
	</g>
	<g>
	</g>
	<g>
	</g>
	<g>
	</g>
	<g>
	</g>
	<g>
	</g>
	<g>
	</g>
	<g>
	</g>
	<g>
	</g>
	<g>
	</g>
	<g>
	</g>
	<g>
	</g>
	<g>
	</g>
	<g>
	</g>
	<g>
	</g>
	<g>
	</g>
	<g>
	</g>
	<g>
	</g>
	<g>
	</g>
	<g>
	</g>
	<g>
	</g>
	<g>
	</g>
	<g>
	</g>
	<g>
	</g>
	<g>
	</g>
	<g>
	</g>
	<g>
	</g>
	<g>
	</g>
	<g>
	</g>
	<g>
	</g>
	<g>
	</g>
	<g>
	</g>
	<g>
	</g>
	<g>
	</g>
	<g>
	</g>
	<g>
	</g>
	<g>
	</g>
	<g>
	</g>
	<g>
	</g>
	<g>
	</g>
	<g>
	</g>
	<g>
	</g>
	<g>
	</g>
	<g>
	</g>
	<g>
	</g>
	<g>
	</g>
	<g>
	</g>
	<g>
	</g>
	<g>
	</g>
	<g>
	</g>
	<g>
	</g>
	<g>
	</g>
	<g>
	</g>
	<g>
	</g>
	<g>
	</g>
	<g>
	</g>
	<g>
	</g>
	<g>
	</g>
	<g>
	</g>
	<g>
	</g>
	<g>
	</g>
	<g>
	</g>
	<g>
	</g>
	<g>
	</g>
	<g>
	</g>
	<g>
	</g>
	<g>
	</g>
	<g>
	</g>
	<g>
	</g>
	<g>
	</g>
	<g>
	</g>
	<g>
	</g>
	<g>
	</g>
	<g>
	</g>
	<g>
	</g>
	<g>
	</g>
	<g>
	</g>
	<g>
	</g>
	<g>
	</g>
	<g>
	</g>
	<g>
	</g>
	<g>
	</g>
	<g>
	</g>
	<g>
	</g>
	<g>
	</g>
	<g>
	</g>
	<g>
	</g>
	<g>
	</g>
	<g>
	</g>
	<g>
	</g>
	<g>
	</g>
	<g>
	</g>
	<g>
	</g>
	<g>
	</g>
	<g>
	</g>
	<g>
	</g>
	<g>
	</g>
	<g>
	</g>
	<g>
	</g>
	<g>
	</g>
	<g>
	</g>
	<g>
	</g>
</g>
</svg>
