<svg id="Layer_1" data-name="Layer 1" xmlns="http://www.w3.org/2000/svg" viewBox="0 0 64 64"><defs><style>.cls-1{fill:#3772a4;}.cls-2{fill:#fff;}.cls-3{fill:#ffda4b;}</style></defs><title>logo_python</title><path class="cls-1" d="M0,31.46a1.63,1.63,0,0,0,.06-.27c.05-.93.06-1.87.16-2.8A16,16,0,0,1,3.12,20,8.43,8.43,0,0,1,8.9,16.64a7.91,7.91,0,0,1,1-.06H31.48c.42,0,.42,0,.42-.42s0-1,0-1.5c0-.31-.09-.38-.38-.38H19.61c-.93,0-1.86,0-2.78,0-.25,0-.34-.07-.34-.33,0-2.44,0-4.89,0-7.33A4.28,4.28,0,0,1,17.73,3.8a8.91,8.91,0,0,1,3.61-2.33A22.22,22.22,0,0,1,26.54.28,43.78,43.78,0,0,1,33.85.06a23.83,23.83,0,0,1,7.7,1.43,9.46,9.46,0,0,1,4.32,3,6.05,6.05,0,0,1,1.26,4.1c-.06,1.24,0,2.49,0,3.74,0,2.31,0,4.62,0,6.92,0,1.36,0,2.73-.06,4.08a7.23,7.23,0,0,1-4.69,6.72,10.72,10.72,0,0,1-4.19.8H22.91a8.72,8.72,0,0,0-4.6,1.21A8,8,0,0,0,14.78,37a11.55,11.55,0,0,0-.43,3.17c0,2.31,0,4.62,0,6.93,0,.46,0,.45-.46.46-1.66,0-3.32.05-5,0a7,7,0,0,1-4.43-1.82A11,11,0,0,1,1.4,41,20.2,20.2,0,0,1,.27,35.87c-.1-1.12-.14-2.24-.21-3.35A3.3,3.3,0,0,0,0,32.15Q0,31.81,0,31.46Z"/><path d="M20.27,7.65a2.81,2.81,0,1,0,2.81-2.83A2.83,2.83,0,0,0,20.27,7.65Z"/><path class="cls-2" d="M20.27,7.65a2.81,2.81,0,1,1,5.63,0,2.81,2.81,0,1,1-5.63,0Z"/><path class="cls-3" d="M64,32.54a1.63,1.63,0,0,0-.06.27c-.05.93-.06,1.87-.16,2.8A16,16,0,0,1,60.88,44a8.43,8.43,0,0,1-5.78,3.37,7.91,7.91,0,0,1-1,.06H32.52c-.42,0-.42,0-.42.42s0,1,0,1.5c0,.31.09.38.38.38H44.39c.93,0,1.86,0,2.78,0,.25,0,.34.07.34.33,0,2.44,0,4.89,0,7.33a4.28,4.28,0,0,1-1.24,2.82,8.91,8.91,0,0,1-3.61,2.33,22.22,22.22,0,0,1-5.19,1.19,43.78,43.78,0,0,1-7.31.22,23.83,23.83,0,0,1-7.7-1.43,9.46,9.46,0,0,1-4.32-3,6.05,6.05,0,0,1-1.26-4.1c.06-1.24,0-2.49,0-3.74,0-2.31,0-4.62,0-6.92,0-1.36,0-2.73.06-4.08a7.23,7.23,0,0,1,4.69-6.72,10.72,10.72,0,0,1,4.19-.8H41.09a8.72,8.72,0,0,0,4.6-1.21A8,8,0,0,0,49.22,27a11.55,11.55,0,0,0,.43-3.17c0-2.31,0-4.62,0-6.93,0-.46,0-.45.46-.46,1.66,0,3.32-.05,5,0a7,7,0,0,1,4.43,1.82A11,11,0,0,1,62.6,23a20.2,20.2,0,0,1,1.12,5.15c.1,1.12.14,2.24.21,3.35a3.3,3.3,0,0,0,.06.36Q64,32.19,64,32.54Z"/><path d="M43.73,56a2.81,2.81,0,1,0-2.81,2.83A2.83,2.83,0,0,0,43.73,56Z"/><path class="cls-2" d="M43.73,56a2.81,2.81,0,1,1-5.63,0,2.81,2.81,0,1,1,5.63,0Z"/></svg>