<svg xmlns="http://www.w3.org/2000/svg" xmlns:xlink="http://www.w3.org/1999/xlink" viewBox="0 0 630.82 139.28">
  <defs>
    <symbol id="New_Symbol_43" data-name="New Symbol 43" viewBox="0 0 21 20">
      <circle cx="10.5" cy="10" r="10" fill="#505050"/>
      <path d="M7.89,14.12V12.84a2.92,2.92,0,0,0,1.85.65,2.18,2.18,0,0,0,1.34-.38,1.23,1.23,0,0,0,.5-1c0-.95-.73-1.43-2.18-1.43H8.74V9.56h.63c1.29,0,1.94-.45,1.94-1.35S10.8,7,9.79,7a2.46,2.46,0,0,0-1.58.6V6.37a4.05,4.05,0,0,1,2-.48A2.68,2.68,0,0,1,12,6.45a1.77,1.77,0,0,1,.67,1.44A2,2,0,0,1,11,10v0a2.18,2.18,0,0,1,1.43.63A1.91,1.91,0,0,1,13,12.05a2.22,2.22,0,0,1-.85,1.82,3.39,3.39,0,0,1-2.24.7A3.83,3.83,0,0,1,7.89,14.12Z" fill="#fff"/>
    </symbol>
    <symbol id="New_Symbol_44" data-name="New Symbol 44" viewBox="0 0 21 20">
      <circle cx="10.5" cy="10" r="10" fill="#505050"/>
      <path d="M12.47,6v5.42h1.25v1.13H12.47v1.85H11.15V12.58H7.35V11.44q.51-.58,1.05-1.26c.37-.45.71-.91,1-1.38s.64-.94.93-1.41.52-.93.72-1.36Zm-1.32,5.42V7.92a21,21,0,0,1-1.26,2c-.42.57-.81,1.08-1.17,1.52Z" fill="#fff"/>
    </symbol>
    <symbol id="New_Symbol_42" data-name="New Symbol 42" viewBox="0 0 21 20">
      <circle cx="10.5" cy="10" r="10" fill="#505050"/>
      <path d="M13,14.43H7.74v-.65A2.56,2.56,0,0,1,7.85,13a3.93,3.93,0,0,1,.3-.66,4.67,4.67,0,0,1,.44-.58c.17-.18.35-.35.54-.52l.59-.5c.2-.15.39-.31.58-.47s.35-.3.5-.45a5,5,0,0,0,.38-.45,2.55,2.55,0,0,0,.24-.5,1.7,1.7,0,0,0,.09-.57,1.5,1.5,0,0,0-.1-.58,1.22,1.22,0,0,0-.29-.41,1.14,1.14,0,0,0-.44-.26A1.87,1.87,0,0,0,10.13,7a2.58,2.58,0,0,0-1.05.24,3.67,3.67,0,0,0-1,.72V6.65a3.24,3.24,0,0,1,.52-.33,3,3,0,0,1,.55-.24,2.68,2.68,0,0,1,.59-.15,4.59,4.59,0,0,1,.66,0,3.66,3.66,0,0,1,1,.14,2.25,2.25,0,0,1,.79.44,2,2,0,0,1,.51.73,2.57,2.57,0,0,1,.18,1,2.92,2.92,0,0,1-.13.92,2.65,2.65,0,0,1-.36.76,3.83,3.83,0,0,1-.56.67c-.21.21-.46.43-.73.65l-.67.53c-.23.18-.43.35-.61.51a3.22,3.22,0,0,0-.44.5.89.89,0,0,0-.16.5v0H13Z" fill="#fff"/>
    </symbol>
    <symbol id="New_Symbol_41" data-name="New Symbol 41" viewBox="0 0 21 20">
      <circle cx="10.5" cy="10" r="10" fill="#505050"/>
      <path d="M11.69,5.84v8.59H10.33V7.5A4.13,4.13,0,0,1,9.54,8a8.43,8.43,0,0,1-1,.33V7.12l.65-.24.63-.27.62-.34c.21-.13.42-.27.64-.43Z" fill="#fff"/>
    </symbol>
    <symbol id="New_Symbol_45" data-name="New Symbol 45" viewBox="0 0 21 20">
      <circle cx="10.5" cy="10" r="10" fill="#505050"/>
      <path d="M8.08,14.23v-1.3a3,3,0,0,0,1.67.55,2.09,2.09,0,0,0,1.38-.43,1.43,1.43,0,0,0,.52-1.16,1.34,1.34,0,0,0-.53-1.12,2.53,2.53,0,0,0-1.52-.4c-.23,0-.69,0-1.38.07L8.52,6h4.14V7.19h-3l-.14,2.1c.27,0,.52,0,.73,0a2.89,2.89,0,0,1,2.07.68A2.44,2.44,0,0,1,13,11.83a2.55,2.55,0,0,1-.84,2,3.29,3.29,0,0,1-2.29.75A3.66,3.66,0,0,1,8.08,14.23Z" fill="#fff"/>
    </symbol>
  </defs>
  <title>aspnetbrowsergeneral</title>
  <g id="Shapes">
    <rect width="630.82" height="139.28" fill="#fff"/>
    <circle cx="313.82" cy="69.86" r="45" fill="#ebebeb"/>
    <rect x="525.82" y="34.2" width="105" height="75.13" fill="#0072c6"/>
    <g>
      <line x1="91.45" y1="74.83" x2="277.86" y2="74.83" fill="none" stroke="#000" stroke-miterlimit="10"/>
      <polygon points="276.76 78.57 283.24 74.83 276.76 71.09 276.76 78.57"/>
    </g>
    <g>
      <line x1="341.88" y1="54.33" x2="520.44" y2="54.33" fill="none" stroke="#000" stroke-miterlimit="10"/>
      <polygon points="519.35 58.07 525.82 54.33 519.35 50.59 519.35 58.07"/>
    </g>
    <g>
      <line x1="347.39" y1="84.33" x2="525.82" y2="84.33" fill="none" stroke="#000" stroke-miterlimit="10"/>
      <polygon points="348.49 88.07 342.01 84.33 348.49 80.59 348.49 88.07"/>
    </g>
    <use width="21" height="20" transform="translate(370.32 44.33)" xlink:href="#New_Symbol_43"/>
    <use width="21" height="20" transform="translate(370.32 74.33)" xlink:href="#New_Symbol_44"/>
    <use width="21" height="20" transform="translate(125.32 64.83)" xlink:href="#New_Symbol_42"/>
    <path d="M337.6,51.05a29.82,29.82,0,0,0-23.77-11.72,30.2,30.2,0,0,0-18.23,6.18,30,30,0,0,0,18.23,53.72,30.23,30.23,0,0,0,18.23-6.18A29.87,29.87,0,0,0,337.6,51.05Zm1.41,25c-1.06-.8-2.61-2-4.55-3.55A5.86,5.86,0,0,0,333.8,67a5.69,5.69,0,0,0-7.33-1.32c-2.62-2.36-5.49-5.06-8.53-8.1,9.2-5,15.93-4.42,16.33-4.38l.29.35A25.93,25.93,0,0,1,339,76.06Zm-16.45,7a5.51,5.51,0,0,0-.93-2,5.09,5.09,0,0,0-6.88-1.2,48,48,0,0,1-7-4.64l-.6-.51A8,8,0,0,0,306,67l-.14-.16c.52-.55,1.05-1.09,1.62-1.62a49.58,49.58,0,0,1,6.82-5.54h0l.06,0-.07.06c3.27,3,6.72,5.86,10,8.4a5.6,5.6,0,0,0,.49,5.73,5.73,5.73,0,0,0,7.92,1.1l.35-.32c2.34,1.65,4.19,2.9,5.26,3.64A26,26,0,0,1,335.4,84,27,27,0,0,1,322.56,83.11Zm8-33.69a28.19,28.19,0,0,0-17.41,3.22c-2.35-2.5-4.85-5.3-7.37-8.13a26.23,26.23,0,0,1,8-1.25A25.78,25.78,0,0,1,330.6,49.42Zm-32.66-.77A25.57,25.57,0,0,1,302.3,46a52.84,52.84,0,0,0,7.06,8.88,44.47,44.47,0,0,0-7.21,6.26c-.84.94-1.65,1.88-2.4,2.82a7.63,7.63,0,0,0-3.66.9,20.85,20.85,0,0,1-2.87-11.49A25.79,25.79,0,0,1,297.94,48.65Zm-7.77,9.65a19,19,0,0,0,2.61,9.79,7.89,7.89,0,0,0,.71,8.6s0,0,0,0a47,47,0,0,0-1.18,7.41A26,26,0,0,1,290.17,58.3ZM313.8,95.43a25.79,25.79,0,0,1-16.73-6.1,35.68,35.68,0,0,1,1.31-9.67,7.9,7.9,0,0,0,5.89-1.31l.66.5a42.6,42.6,0,0,0,7.43,4.74,5.06,5.06,0,0,0,1,3.85,5.18,5.18,0,0,0,8.54-.45A47,47,0,0,0,332,88a27.85,27.85,0,0,1-2.31,2A25.9,25.9,0,0,1,313.8,95.43Z"/>
    <g>
      <path d="M44.76,59.5A4.76,4.76,0,0,0,40,54.72a3.68,3.68,0,0,0-.58.05,13,13,0,0,0,.45-3.37,12.62,12.62,0,0,0-24.61-4,8.53,8.53,0,0,0-2.82-.49,8.71,8.71,0,0,0,0,17.42H40.4v0a4.75,4.75,0,0,0,4.36-4.76" fill="#0072c6"/>
      <g>
        <path d="M72.09,86.65A25,25,0,0,1,41.69,47a25.41,25.41,0,0,1,15.2-5.1,24.94,24.94,0,0,1,15.2,44.75" fill="#59b4d9"/>
        <path d="M76.71,69.86a5.15,5.15,0,0,0-.74-5.1,5.33,5.33,0,0,0-6.92-1.35c-2.57-2.29-5.34-4.86-8.28-7.76,8.88-4.87,15.2-4.39,15.57-4.39a22.91,22.91,0,0,0-3.65-3.65A26.4,26.4,0,0,0,56,50.78h0c-2.29-2.29-4.62-4.86-6.92-7.66a33.39,33.39,0,0,0-3.28,1.35A51.16,51.16,0,0,0,52.53,53h0a41.73,41.73,0,0,0-7,5.94c-.23.37-.6.61-.84,1a8,8,0,0,0-4.12.24,18.19,18.19,0,0,1-1.69-10.71c-.84,1.08-1.69,2.2-2.57,3.28a15.68,15.68,0,0,0,1,10,7.5,7.5,0,0,0,0,9.12,1.87,1.87,0,0,0,.61.61A39.36,39.36,0,0,0,36.49,81c.24.37.37.61.61,1a24.94,24.94,0,0,0,4,4.12,27.79,27.79,0,0,1,1.69-11.31,7.28,7.28,0,0,0,3.51-.61c.61.61,1.35,1.08,2.06,1.69a39.87,39.87,0,0,0,7.29,4.63,4.75,4.75,0,0,0,1,3.51,5,5,0,0,0,6.93,1,3.75,3.75,0,0,0,1.08-1.22,43.33,43.33,0,0,0,9.59,1,27.8,27.8,0,0,0,3-3.51h0c.13-.14.13-.24.23-.37a25.12,25.12,0,0,1-12.29-.85,5.82,5.82,0,0,0-.84-2A4.8,4.8,0,0,0,57.83,77a47.08,47.08,0,0,1-6.68-4.49c-.48-.37-1-.74-1.35-1.08a7.6,7.6,0,0,0,.37-7.53l.84-.84a70.94,70.94,0,0,1,6.62-5.24c3.14,2.91,6.42,5.57,9.46,8a5,5,0,0,0,.61,5.48,5.42,5.42,0,0,0,7.53,1l.37-.38c2.19,1.59,4,2.81,5,3.41a17.84,17.84,0,0,0,.6-2.19A42.31,42.31,0,0,1,76.71,69.86Z" fill="#fff"/>
        <path d="M86.54,73.38l-.47.23-3.79,2-2.56-1.08L78.13,70H74.52l-.24.47-1.35,4-2.57,1.08-4.25-2.06-2.57,2.67.24.47,2,3.78L64.66,83l-4.5,1.59v3.78l.48.14,4,1.35,1.08,2.56-2,4.19,2.67,2.67.47-.24,3.78-2,2.57,1.08,1.59,4.5h3.78l.13-.48,1.36-4,2.56-1.08L87,99.14l2.67-2.66-2.43-4.26,1.08-2.57,4.49-1.58V84.45l-.47-.23-4-1.35L87.25,80.3l1.82-3.88ZM76.48,91.61a5.24,5.24,0,1,1,5.23-5.23A5.19,5.19,0,0,1,76.48,91.61Z" fill="#7a7a7a"/>
        <path d="M71.24,86.41a5.34,5.34,0,0,0,3.18,4.73l4-9.59a5.06,5.06,0,0,0-2-.37A5.17,5.17,0,0,0,71.24,86.41Z" fill="none"/>
        <path d="M71.24,86.41a5.2,5.2,0,0,1,5.24-5.23,5.06,5.06,0,0,1,2,.37L81.1,75.1l-1.21-.47L78.2,70H74.52l-.24.47-1.35,4-2.57,1.08-4.25-2.06-2.57,2.67.24.47,2,3.78L64.66,83l-4.5,1.59v3.78l.48.14,4,1.35,1.08,2.56-2,4.19,2.67,2.67.47-.24,3.78-2,1.08.48,2.67-6.45A5.24,5.24,0,0,1,71.24,86.41Z" fill="#fff" opacity="0.25" style="isolation: isolate"/>
        <path d="M56.48,85.37l-.3.13L54,86.65,52.43,86l-1-2.67H49.32l-.13.3L48.41,86l-1.52.64-2.5-1.22L42.87,87l.14.3,1.15,2.23-.65,1.52-2.66,1v2.23l.3.06,2.36.78.65,1.52-1.22,2.5,1.59,1.59.3-.14,2.23-1.15,1.52.65,1,2.66h2.22l.07-.3.78-2.36,1.52-.65,2.6,1.22L58.31,99l-1.46-2.5L57.5,95l2.66-.94V91.92l-.3-.14L57.5,91l-.65-1.52,1.09-2.3Zm-6,10.77a3.08,3.08,0,1,1,3.07-3.07A3,3,0,0,1,50.51,96.14Z" fill="#7a7a7a"/>
        <path d="M47.43,93.07a3.17,3.17,0,0,0,1.86,2.8l2.36-5.68a3.25,3.25,0,0,0-1.14-.2A3,3,0,0,0,47.43,93.07Z" fill="none"/>
        <path d="M47.43,93.07A3,3,0,0,1,50.51,90a3.25,3.25,0,0,1,1.14.2l1.59-3.81-.71-.31-1-2.73H49.36l-.14.3L48.45,86l-1.52.64-2.5-1.22L42.91,87l.13.3,1.15,2.23-.64,1.52-2.67,1v2.23l.3.06,2.37.78.64,1.52L43,99.11l1.59,1.59.31-.14,2.22-1.15.65.31,1.58-3.82A3.22,3.22,0,0,1,47.43,93.07Z" fill="#fff" opacity="0.25" style="isolation: isolate"/>
      </g>
    </g>
    <g>
      <line x1="83.03" y1="49.33" x2="289.59" y2="49.33" fill="none" stroke="#000" stroke-miterlimit="10"/>
      <polygon points="84.12 53.07 77.64 49.33 84.12 45.59 84.12 53.07"/>
    </g>
    <use width="21" height="20" transform="translate(125.32 39.33)" xlink:href="#New_Symbol_41"/>
    <g>
      <path d="M48.54,109.77v14.17a5,5,0,0,0,5,5H310.08a5,5,0,0,0,5-5V99.61" fill="none" stroke="#000" stroke-miterlimit="10"/>
      <polygon points="44.8 110.87 48.54 104.39 52.28 110.87 44.8 110.87"/>
    </g>
    <use width="21" height="20" transform="translate(125.32 118.94)" xlink:href="#New_Symbol_45"/>
    <polygon points="408.64 65.79 401.08 71.24 403.97 80.05 413.31 80.05 416.2 71.24 408.64 65.79" fill="#ebebeb" stroke="#000" stroke-miterlimit="10" stroke-width="0.75"/>
    <polygon points="161.86 109.33 154.3 114.78 157.19 123.58 166.53 123.58 169.42 114.78 161.86 109.33" fill="#ebebeb" stroke="#000" stroke-miterlimit="10" stroke-width="0.75"/>
  </g>
  <g id="Text">
    <g>
      <path d="M312.9,5.57,310.68,14h-2.1l-1.39-5.39a4.33,4.33,0,0,1-.14-.94h0a5.79,5.79,0,0,1-.15.94L305.45,14h-2.19l-2.21-8.4h2.07l1.19,5.6a8.06,8.06,0,0,1,.11,1h0a4.89,4.89,0,0,1,.17-1l1.53-5.57h2l1.38,5.64a5.91,5.91,0,0,1,.13.91h0a6.2,6.2,0,0,1,.12-.94L311,5.57Z" fill="#1e1e1e"/>
      <path d="M318.85,11.5h-3.91c.06.87.61,1.31,1.65,1.31a3.24,3.24,0,0,0,1.74-.47v1.33a4.57,4.57,0,0,1-2.17.45,3,3,0,0,1-2.25-.81,3,3,0,0,1-.81-2.24A3.2,3.2,0,0,1,314,8.7a2.9,2.9,0,0,1,2.13-.87,2.64,2.64,0,0,1,2,.78,3,3,0,0,1,.71,2.11Zm-1.71-1.14c0-.86-.35-1.28-1.05-1.28a1,1,0,0,0-.77.36,1.71,1.71,0,0,0-.39.92Z" fill="#1e1e1e"/>
      <path d="M321.91,13.28h0V14H320V5.09h1.85V8.88h0a2.18,2.18,0,0,1,1.95-1.05,2.12,2.12,0,0,1,1.78.79,3.45,3.45,0,0,1,.63,2.18,3.71,3.71,0,0,1-.73,2.41,2.38,2.38,0,0,1-2,.91A1.88,1.88,0,0,1,321.91,13.28Zm-.06-2.53v.61a1.41,1.41,0,0,0,.34,1,1.06,1.06,0,0,0,.85.38,1.11,1.11,0,0,0,1-.49,2.29,2.29,0,0,0,.35-1.38,1.85,1.85,0,0,0-.32-1.17,1.06,1.06,0,0,0-.91-.41,1.15,1.15,0,0,0-.92.41A1.62,1.62,0,0,0,321.85,10.75Z" fill="#1e1e1e"/>
      <path d="M293.59,27.68h0v.69h-1.85V19.49h1.85v3.79h0a2.2,2.2,0,0,1,2-1.05,2.14,2.14,0,0,1,1.79.79A3.45,3.45,0,0,1,298,25.2a3.76,3.76,0,0,1-.73,2.41,2.39,2.39,0,0,1-2,.91A1.9,1.9,0,0,1,293.59,27.68Zm0-2.53v.61a1.4,1.4,0,0,0,.33,1,1.08,1.08,0,0,0,.86.38,1.12,1.12,0,0,0,1-.49,2.34,2.34,0,0,0,.35-1.38,1.91,1.91,0,0,0-.32-1.17,1.1,1.1,0,0,0-.91-.41,1.15,1.15,0,0,0-.92.41A1.57,1.57,0,0,0,293.54,25.15Z" fill="#1e1e1e"/>
      <path d="M303.1,24a1.66,1.66,0,0,0-.78-.18,1.14,1.14,0,0,0-.95.44,2,2,0,0,0-.34,1.21v2.86h-1.85v-6H301v1.12h0a1.59,1.59,0,0,1,1.58-1.22,1.17,1.17,0,0,1,.46.07Z" fill="#1e1e1e"/>
      <path d="M306.9,28.52a3.23,3.23,0,0,1-2.36-.84,3.05,3.05,0,0,1-.86-2.28,3.07,3.07,0,0,1,.89-2.33,3.38,3.38,0,0,1,2.41-.84,3.16,3.16,0,0,1,2.34.84,3,3,0,0,1,.85,2.22,3.16,3.16,0,0,1-.87,2.36A3.27,3.27,0,0,1,306.9,28.52Zm0-4.87a1.22,1.22,0,0,0-1,.45,1.92,1.92,0,0,0-.37,1.27c0,1.16.47,1.73,1.4,1.73s1.33-.59,1.33-1.77S307.84,23.65,306.94,23.65Z" fill="#1e1e1e"/>
      <path d="M319.94,22.37l-1.73,6h-1.95l-.88-3.51a3.68,3.68,0,0,1-.1-.77h0a4.16,4.16,0,0,1-.11.75l-.95,3.53h-1.93l-1.69-6h1.89l.82,3.92a4.75,4.75,0,0,1,.09.67h0a3.9,3.9,0,0,1,.1-.7l1-3.89h1.77l.92,3.92a6,6,0,0,1,.09.68h0c0-.23,0-.46.09-.68l.78-3.92Z" fill="#1e1e1e"/>
      <path d="M320.42,28.22v-1.5a4.27,4.27,0,0,0,.91.41,3,3,0,0,0,.86.13,1.86,1.86,0,0,0,.78-.13.43.43,0,0,0,.28-.41.38.38,0,0,0-.13-.3,1,1,0,0,0-.33-.2,3.72,3.72,0,0,0-.44-.16l-.46-.16a4.68,4.68,0,0,1-.63-.29,1.67,1.67,0,0,1-.46-.36,1.4,1.4,0,0,1-.28-.47,1.79,1.79,0,0,1-.1-.64,1.7,1.7,0,0,1,.22-.87,1.75,1.75,0,0,1,.59-.59,2.43,2.43,0,0,1,.84-.34,3.93,3.93,0,0,1,1-.11,5.73,5.73,0,0,1,.81.06,5.45,5.45,0,0,1,.8.18V23.9a2.76,2.76,0,0,0-.75-.31,3.11,3.11,0,0,0-.79-.1,1.87,1.87,0,0,0-.34,0,1,1,0,0,0-.28.09.54.54,0,0,0-.2.16.44.44,0,0,0-.07.22.41.41,0,0,0,.11.28.79.79,0,0,0,.27.2l.38.16.41.13a4.65,4.65,0,0,1,.67.29,2.49,2.49,0,0,1,.52.35,1.39,1.39,0,0,1,.32.48,1.69,1.69,0,0,1,.12.66,1.73,1.73,0,0,1-.23.91,1.93,1.93,0,0,1-.62.62,2.88,2.88,0,0,1-.88.34,5.1,5.1,0,0,1-1,.11A5.46,5.46,0,0,1,320.42,28.22Z" fill="#1e1e1e"/>
      <path d="M331.53,25.9h-3.91c.06.87.61,1.31,1.64,1.31a3.24,3.24,0,0,0,1.74-.47v1.34a4.63,4.63,0,0,1-2.16.44,2.79,2.79,0,0,1-3.06-3.05,3.2,3.2,0,0,1,.87-2.37,2.9,2.9,0,0,1,2.13-.87,2.62,2.62,0,0,1,2,.78,3,3,0,0,1,.72,2.11Zm-1.72-1.14c0-.85-.34-1.28-1-1.28a1,1,0,0,0-.77.36,1.72,1.72,0,0,0-.4.92Z" fill="#1e1e1e"/>
      <path d="M336.62,24a1.61,1.61,0,0,0-.78-.18,1.14,1.14,0,0,0-.94.44,1.93,1.93,0,0,0-.34,1.21v2.86h-1.85v-6h1.85v1.12h0a1.6,1.6,0,0,1,1.59-1.22,1.12,1.12,0,0,1,.45.07Z" fill="#1e1e1e"/>
    </g>
    <g>
      <path d="M181.47,123.07h-1.09l-.89-2.36h-3.57l-.84,2.36H174l3.22-8.4h1Zm-2.31-3.24-1.32-3.58a3.61,3.61,0,0,1-.12-.56h0a3.36,3.36,0,0,1-.13.56l-1.31,3.58Z" fill="#1e1e1e"/>
      <path d="M186.53,122.79a3.08,3.08,0,0,1-1.64.42,2.75,2.75,0,0,1-2.07-.83,3.06,3.06,0,0,1-.79-2.17,3.35,3.35,0,0,1,.85-2.38,3,3,0,0,1,2.27-.9,3.27,3.27,0,0,1,1.4.29v1a2.42,2.42,0,0,0-1.43-.47,1.92,1.92,0,0,0-1.51.66,2.5,2.5,0,0,0-.59,1.73,2.36,2.36,0,0,0,.55,1.66,1.91,1.91,0,0,0,1.49.61,2.38,2.38,0,0,0,1.47-.52Z" fill="#1e1e1e"/>
      <path d="M191.94,122.79a3.1,3.1,0,0,1-1.64.42,2.72,2.72,0,0,1-2.07-.83,3,3,0,0,1-.79-2.17,3.3,3.3,0,0,1,.85-2.38,3,3,0,0,1,2.27-.9,3.23,3.23,0,0,1,1.39.29v1a2.38,2.38,0,0,0-1.43-.47,2,2,0,0,0-1.51.66,2.5,2.5,0,0,0-.59,1.73,2.36,2.36,0,0,0,.56,1.66,1.89,1.89,0,0,0,1.48.61,2.39,2.39,0,0,0,1.48-.52Z" fill="#1e1e1e"/>
      <path d="M198.1,120.31h-4.24a2.21,2.21,0,0,0,.54,1.55,1.85,1.85,0,0,0,1.42.54,2.93,2.93,0,0,0,1.86-.67v.91a3.52,3.52,0,0,1-2.09.57,2.52,2.52,0,0,1-2-.82,3.81,3.81,0,0,1,.07-4.58,2.53,2.53,0,0,1,2-.88,2.25,2.25,0,0,1,1.82.76,3.18,3.18,0,0,1,.65,2.12Zm-1-.81a2,2,0,0,0-.4-1.3,1.36,1.36,0,0,0-1.1-.46,1.55,1.55,0,0,0-1.15.48,2.19,2.19,0,0,0-.59,1.28Z" fill="#1e1e1e"/>
      <path d="M199.17,122.85v-1a2.82,2.82,0,0,0,1.73.58q1.26,0,1.26-.84a.76.76,0,0,0-.1-.41,1,1,0,0,0-.3-.29,2.19,2.19,0,0,0-.43-.24l-.54-.21c-.26-.11-.5-.21-.7-.32a2.22,2.22,0,0,1-.5-.36,1.38,1.38,0,0,1-.31-.46,1.85,1.85,0,0,1-.1-.61,1.48,1.48,0,0,1,.19-.74,1.82,1.82,0,0,1,.52-.55,2.64,2.64,0,0,1,.74-.33,3.35,3.35,0,0,1,.85-.11,3.41,3.41,0,0,1,1.39.27v1a2.7,2.7,0,0,0-1.52-.43,1.88,1.88,0,0,0-.49.06,1.26,1.26,0,0,0-.37.17,1,1,0,0,0-.24.27.66.66,0,0,0-.08.34.75.75,0,0,0,.08.39,1,1,0,0,0,.25.29,2.11,2.11,0,0,0,.4.22l.53.22a7.07,7.07,0,0,1,.72.31,2.45,2.45,0,0,1,.53.36,1.37,1.37,0,0,1,.47,1.09,1.51,1.51,0,0,1-.2.78,1.58,1.58,0,0,1-.52.54,2.28,2.28,0,0,1-.76.33,3.71,3.71,0,0,1-.9.1A3.37,3.37,0,0,1,199.17,122.85Z" fill="#1e1e1e"/>
      <path d="M204.26,122.85v-1a2.82,2.82,0,0,0,1.73.58c.84,0,1.27-.28,1.27-.84a.76.76,0,0,0-.11-.41,1,1,0,0,0-.3-.29,1.94,1.94,0,0,0-.43-.24l-.54-.21c-.26-.11-.49-.21-.7-.32a2.22,2.22,0,0,1-.5-.36,1.35,1.35,0,0,1-.3-.46,1.62,1.62,0,0,1-.11-.61,1.39,1.39,0,0,1,.2-.74,1.78,1.78,0,0,1,.51-.55,2.77,2.77,0,0,1,.74-.33,3.56,3.56,0,0,1,2.24.16v1a2.68,2.68,0,0,0-1.52-.43,1.88,1.88,0,0,0-.49.06,1.4,1.4,0,0,0-.37.17,1,1,0,0,0-.24.27.77.77,0,0,0-.08.34.87.87,0,0,0,.08.39,1,1,0,0,0,.25.29,2.11,2.11,0,0,0,.4.22l.53.22a6.21,6.21,0,0,1,.72.31,2.82,2.82,0,0,1,.54.36,1.41,1.41,0,0,1,.34.47,1.46,1.46,0,0,1,.12.62,1.51,1.51,0,0,1-.2.78,1.58,1.58,0,0,1-.52.54,2.28,2.28,0,0,1-.76.33,3.68,3.68,0,0,1-.89.1A3.39,3.39,0,0,1,204.26,122.85Z" fill="#1e1e1e"/>
      <path d="M215.79,123a1.82,1.82,0,0,1-.9.19c-1,0-1.58-.59-1.58-1.76v-3.55h-1v-.82h1v-1.46l1-.32v1.78h1.52v.82h-1.52v3.38a1.37,1.37,0,0,0,.21.86.83.83,0,0,0,.68.26,1.05,1.05,0,0,0,.63-.2Z" fill="#1e1e1e"/>
      <path d="M219.45,123.21a2.79,2.79,0,0,1-2.13-.84,3.1,3.1,0,0,1-.79-2.23,3.24,3.24,0,0,1,.82-2.36,3,3,0,0,1,2.24-.85,2.69,2.69,0,0,1,2.09.83,3.77,3.77,0,0,1-.06,4.59A2.85,2.85,0,0,1,219.45,123.21Zm.07-5.47a1.84,1.84,0,0,0-1.47.63,2.59,2.59,0,0,0-.54,1.74,2.41,2.41,0,0,0,.55,1.68,1.85,1.85,0,0,0,1.46.61,1.77,1.77,0,0,0,1.43-.6,3.23,3.23,0,0,0,0-3.45A1.74,1.74,0,0,0,219.52,117.74Z" fill="#1e1e1e"/>
      <path d="M228.89,123.07h-1.34l-2.65-2.88h0v2.88h-1v-8.88h1v5.63h0l2.52-2.75h1.26L225.89,120Z" fill="#1e1e1e"/>
      <path d="M234.41,120.31h-4.23a2.21,2.21,0,0,0,.54,1.55,1.85,1.85,0,0,0,1.41.54,2.94,2.94,0,0,0,1.87-.67v.91a3.53,3.53,0,0,1-2.1.57,2.51,2.51,0,0,1-2-.82,3.83,3.83,0,0,1,.06-4.58,2.55,2.55,0,0,1,2-.88,2.25,2.25,0,0,1,1.82.76,3.18,3.18,0,0,1,.64,2.12Zm-1-.81a2,2,0,0,0-.4-1.3,1.37,1.37,0,0,0-1.1-.46,1.59,1.59,0,0,0-1.16.48,2.24,2.24,0,0,0-.58,1.28Z" fill="#1e1e1e"/>
      <path d="M240.85,123.07h-1v-3.42c0-1.27-.47-1.91-1.4-1.91a1.5,1.5,0,0,0-1.19.54,2,2,0,0,0-.47,1.37v3.42h-1v-6h1v1h0a2.16,2.16,0,0,1,2-1.14,1.79,1.79,0,0,1,1.5.64,2.79,2.79,0,0,1,.53,1.83Z" fill="#1e1e1e"/>
    </g>
    <g>
      <path d="M561.34,59h-1.87V54c0-.54,0-1.14.07-1.79h0a7.75,7.75,0,0,1-.26,1.11l-2,5.71h-1.54l-2-5.65c-.05-.16-.14-.55-.26-1.17h-.06c.06.82.08,1.55.08,2.18V59h-1.7V50.6h2.77l1.71,5a6.58,6.58,0,0,1,.3,1.2h0c.1-.46.22-.87.33-1.21l1.72-5h2.7Z" fill="#fff"/>
      <path d="M564,52.05a1.07,1.07,0,0,1-.77-.28.88.88,0,0,1-.3-.68.87.87,0,0,1,.3-.68,1.16,1.16,0,0,1,.77-.26,1.14,1.14,0,0,1,.77.26.87.87,0,0,1,.3.68.89.89,0,0,1-.3.69A1.1,1.1,0,0,1,564,52.05Zm.91,7H563V53h1.85Z" fill="#fff"/>
      <path d="M570.94,58.78a3.57,3.57,0,0,1-1.81.37,3.06,3.06,0,0,1-2.24-.84,2.89,2.89,0,0,1-.85-2.16,3.17,3.17,0,0,1,.91-2.41,3.39,3.39,0,0,1,2.46-.88,3.12,3.12,0,0,1,1.53.28v1.57a2.12,2.12,0,0,0-1.29-.44,1.71,1.71,0,0,0-1.27.47,1.73,1.73,0,0,0-.46,1.28,1.76,1.76,0,0,0,.44,1.26,1.66,1.66,0,0,0,1.23.45,2.42,2.42,0,0,0,1.35-.43Z" fill="#fff"/>
      <path d="M576.16,54.67a1.59,1.59,0,0,0-.77-.18,1.14,1.14,0,0,0-.95.44,2,2,0,0,0-.34,1.21V59h-1.85V53h1.85v1.11h0a1.59,1.59,0,0,1,1.58-1.21,1.09,1.09,0,0,1,.45.07Z" fill="#fff"/>
      <path d="M580,59.15a3.23,3.23,0,0,1-2.36-.84,3.47,3.47,0,0,1,0-4.61,3.37,3.37,0,0,1,2.41-.84,3.16,3.16,0,0,1,2.34.84,3,3,0,0,1,.85,2.22,3.18,3.18,0,0,1-.87,2.36A3.27,3.27,0,0,1,580,59.15Zm0-4.88a1.26,1.26,0,0,0-1,.45,2,2,0,0,0-.36,1.28c0,1.15.47,1.73,1.4,1.73s1.33-.59,1.33-1.78S580.91,54.27,580,54.27Z" fill="#fff"/>
      <path d="M584.1,58.84v-1.5a3.66,3.66,0,0,0,.91.41,3,3,0,0,0,.86.14,1.79,1.79,0,0,0,.77-.14.43.43,0,0,0,.29-.41.37.37,0,0,0-.13-.29,1.08,1.08,0,0,0-.33-.2,2.85,2.85,0,0,0-.44-.16l-.47-.16a4.68,4.68,0,0,1-.63-.29,1.62,1.62,0,0,1-.45-.36,1.47,1.47,0,0,1-.29-.48,2,2,0,0,1-.09-.63,1.61,1.61,0,0,1,.22-.87,1.84,1.84,0,0,1,.58-.6,3.15,3.15,0,0,1,.84-.34,4.53,4.53,0,0,1,1-.1,5.52,5.52,0,0,1,.81.06,5.58,5.58,0,0,1,.81.18v1.42a3.27,3.27,0,0,0-.75-.3,3.13,3.13,0,0,0-.79-.11,1.76,1.76,0,0,0-.34,0,1.1,1.1,0,0,0-.29.09.49.49,0,0,0-.19.16.34.34,0,0,0-.07.22.4.4,0,0,0,.1.28.84.84,0,0,0,.28.2,1.88,1.88,0,0,0,.38.15l.41.14a6.16,6.16,0,0,1,.67.28,1.94,1.94,0,0,1,.51.36,1.58,1.58,0,0,1,.33.48,1.63,1.63,0,0,1,.11.66,1.67,1.67,0,0,1-.23.91,1.78,1.78,0,0,1-.61.61A2.72,2.72,0,0,1,587,59a5,5,0,0,1-1,.11A5.17,5.17,0,0,1,584.1,58.84Z" fill="#fff"/>
      <path d="M592.67,59.15a3.23,3.23,0,0,1-2.36-.84,3.47,3.47,0,0,1,0-4.61,3.38,3.38,0,0,1,2.41-.84,3.2,3.2,0,0,1,2.35.84,3,3,0,0,1,.85,2.22,3.18,3.18,0,0,1-.88,2.36A3.24,3.24,0,0,1,592.67,59.15Zm.05-4.88a1.23,1.23,0,0,0-1,.45,2,2,0,0,0-.37,1.28c0,1.15.47,1.73,1.4,1.73s1.33-.59,1.33-1.78S593.61,54.27,592.72,54.27Z" fill="#fff"/>
      <path d="M601,51.54a1.69,1.69,0,0,0-.68-.14c-.6,0-.89.32-.89,1V53h1.37v1.37h-1.37V59h-1.85V54.37h-1V53h1v-.74a2.12,2.12,0,0,1,.67-1.65,2.55,2.55,0,0,1,1.82-.63,3.09,3.09,0,0,1,.93.12Z" fill="#fff"/>
      <path d="M605.57,58.93a2.62,2.62,0,0,1-1.23.22c-1.31,0-2-.68-2-2V54.37h-1V53h1V51.71l1.85-.53V53h1.34v1.37h-1.34v2.42c0,.63.24.94.74.94a1.24,1.24,0,0,0,.6-.17Z" fill="#fff"/>
      <path d="M558,66.45a1.05,1.05,0,0,1-.76-.28.88.88,0,0,1-.3-.68.87.87,0,0,1,.3-.68,1.26,1.26,0,0,1,1.53,0,.87.87,0,0,1,.3.68.89.89,0,0,1-.3.69A1.08,1.08,0,0,1,558,66.45Zm.92,7h-1.85v-6h1.85Z" fill="#fff"/>
      <path d="M566.34,73.4h-1.85v-.82h0a2.09,2.09,0,0,1-1.86,1,2.28,2.28,0,0,1-1.81-.8,3.3,3.3,0,0,1-.68-2.21,3.6,3.6,0,0,1,.75-2.39,2.48,2.48,0,0,1,2-.9,1.67,1.67,0,0,1,1.61.84h0V64.52h1.85Zm-1.82-2.92V70a1.4,1.4,0,0,0-.34-1,1.12,1.12,0,0,0-.88-.39,1.1,1.1,0,0,0-1,.49,2.16,2.16,0,0,0-.35,1.32,2,2,0,0,0,.33,1.22,1.11,1.11,0,0,0,.93.43,1.13,1.13,0,0,0,.92-.45A1.92,1.92,0,0,0,564.52,70.48Z" fill="#fff"/>
      <path d="M573.29,70.93h-3.92c.06.87.61,1.31,1.65,1.31a3.24,3.24,0,0,0,1.74-.47V73.1a4.56,4.56,0,0,1-2.16.45,2.79,2.79,0,0,1-3.06-3,3.2,3.2,0,0,1,.87-2.37,2.87,2.87,0,0,1,2.13-.88,2.63,2.63,0,0,1,2,.78,3,3,0,0,1,.72,2.12Zm-1.72-1.14c0-.86-.35-1.29-1-1.29a1,1,0,0,0-.77.37,1.68,1.68,0,0,0-.4.92Z" fill="#fff"/>
      <path d="M580.26,73.4h-1.85V70.07c0-.93-.33-1.4-1-1.4a1,1,0,0,0-.79.37,1.4,1.4,0,0,0-.31.94V73.4h-1.85v-6h1.85v.95h0a2.12,2.12,0,0,1,1.93-1.1c1.33,0,2,.83,2,2.48Z" fill="#fff"/>
      <path d="M585.28,73.33a2.62,2.62,0,0,1-1.23.22c-1.31,0-2-.68-2-2V68.77h-1V67.4h1V66.11l1.85-.53V67.4h1.34v1.37h-1.34v2.42c0,.63.24.94.74.94a1.24,1.24,0,0,0,.6-.17Z" fill="#fff"/>
      <path d="M587.33,66.45a1.07,1.07,0,0,1-.77-.28.88.88,0,0,1-.3-.68.87.87,0,0,1,.3-.68,1.16,1.16,0,0,1,.77-.26,1.14,1.14,0,0,1,.77.26.87.87,0,0,1,.3.68.89.89,0,0,1-.3.69A1.1,1.1,0,0,1,587.33,66.45Zm.91,7h-1.85v-6h1.85Z" fill="#fff"/>
      <path d="M593.34,73.33a2.62,2.62,0,0,1-1.23.22c-1.31,0-2-.68-2-2V68.77h-1V67.4h1V66.11l1.85-.53V67.4h1.34v1.37H592v2.42c0,.63.24.94.74.94a1.27,1.27,0,0,0,.6-.17Z" fill="#fff"/>
      <path d="M600.4,67.4,598,73.88c-.58,1.56-1.47,2.34-2.65,2.34a3.44,3.44,0,0,1-1.1-.15V74.59a1.48,1.48,0,0,0,.8.22,1,1,0,0,0,1-.68l.31-.74-2.43-6h2.05l1.12,3.65a5.13,5.13,0,0,1,.16.8h0a5.71,5.71,0,0,1,.2-.79l1.13-3.66Z" fill="#fff"/>
      <path d="M556.06,87.1h0v3.46h-1.85V81.8H556v.9h0a2.36,2.36,0,0,1,3.73-.25,3.45,3.45,0,0,1,.63,2.18,3.67,3.67,0,0,1-.74,2.41,2.4,2.4,0,0,1-2,.91A1.86,1.86,0,0,1,556.06,87.1Zm0-2.46v.48a1.52,1.52,0,0,0,.32,1,1.08,1.08,0,0,0,.86.39,1.14,1.14,0,0,0,1-.49,2.4,2.4,0,0,0,.34-1.39c0-1.05-.41-1.58-1.23-1.58a1.17,1.17,0,0,0-.92.43A1.73,1.73,0,0,0,556,84.64Z" fill="#fff"/>
      <path d="M563.51,87.8h-1.85V78.92h1.85Z" fill="#fff"/>
      <path d="M570.09,87.8h-1.75v-.86h0a2,2,0,0,1-1.79,1,1.9,1.9,0,0,1-1.38-.5,1.79,1.79,0,0,1-.5-1.32q0-1.74,2.07-2l1.63-.22c0-.66-.35-1-1.07-1a3.66,3.66,0,0,0-2,.64V82.16a4.57,4.57,0,0,1,1-.35,5.77,5.77,0,0,1,1.22-.16,2.27,2.27,0,0,1,2.57,2.57Zm-1.74-2.44V85l-1.09.14q-.9.12-.9.81a.65.65,0,0,0,.22.52.82.82,0,0,0,.59.21,1.07,1.07,0,0,0,.85-.37A1.29,1.29,0,0,0,568.35,85.36Z" fill="#fff"/>
      <path d="M575.1,87.73a2.7,2.7,0,0,1-1.24.22c-1.3,0-2-.68-2-2V83.17h-1V81.8h1V80.51l1.85-.53V81.8h1.35v1.37h-1.35v2.42c0,.63.25.94.74.94a1.31,1.31,0,0,0,.61-.17Z" fill="#fff"/>
      <path d="M580.22,80.34a1.77,1.77,0,0,0-.69-.14c-.59,0-.89.32-.89,1v.64H580v1.37h-1.37V87.8H576.8V83.17h-1V81.8h1v-.74a2.18,2.18,0,0,1,.66-1.66,2.59,2.59,0,0,1,1.82-.62,3.16,3.16,0,0,1,.94.12Z" fill="#fff"/>
      <path d="M583.78,88a3.24,3.24,0,0,1-2.36-.84,3.06,3.06,0,0,1-.86-2.29,3,3,0,0,1,.9-2.32,3.35,3.35,0,0,1,2.4-.85,3.21,3.21,0,0,1,2.35.85,3,3,0,0,1,.85,2.22,3.15,3.15,0,0,1-.88,2.36A3.24,3.24,0,0,1,583.78,88Zm.05-4.88a1.23,1.23,0,0,0-1,.45,2,2,0,0,0-.36,1.28c0,1.15.46,1.73,1.39,1.73s1.33-.59,1.33-1.78S584.72,83.07,583.83,83.07Z" fill="#fff"/>
      <path d="M592.16,83.47a1.61,1.61,0,0,0-.78-.18,1.14,1.14,0,0,0-.94.44,1.93,1.93,0,0,0-.34,1.21V87.8h-1.85v-6h1.85v1.11h0a1.6,1.6,0,0,1,1.59-1.21,1.12,1.12,0,0,1,.45.07Z" fill="#fff"/>
      <path d="M602.55,87.8h-1.84V84.38c0-.87-.32-1.31-1-1.31a.87.87,0,0,0-.75.4,1.6,1.6,0,0,0-.29,1V87.8h-1.85V84.34c0-.84-.31-1.27-.94-1.27a.91.91,0,0,0-.76.38,1.65,1.65,0,0,0-.28,1V87.8H593v-6h1.86v.94h0a2.17,2.17,0,0,1,.81-.78,2.2,2.2,0,0,1,1.13-.31,1.73,1.73,0,0,1,1.74,1.12,2.24,2.24,0,0,1,2-1.12c1.3,0,1.95.81,1.95,2.42Z" fill="#fff"/>
    </g>
    <g>
      <path d="M32.9,14H30.84l-.6-1.87h-3L26.66,14H24.61l3.06-8.4h2.24Zm-3.09-3.32L28.9,7.83a4.51,4.51,0,0,1-.14-.76h0a3.06,3.06,0,0,1-.15.73l-.92,2.85Z"/>
      <path d="M33.65,13.65V11.78a3.72,3.72,0,0,0,1.1.64,3.67,3.67,0,0,0,1.21.21,2.93,2.93,0,0,0,.63-.06,2,2,0,0,0,.44-.18.87.87,0,0,0,.27-.27.67.67,0,0,0,.09-.34.71.71,0,0,0-.15-.44,1.29,1.29,0,0,0-.38-.35,3.43,3.43,0,0,0-.58-.32c-.22-.1-.46-.21-.72-.31a3.68,3.68,0,0,1-1.46-1,2.16,2.16,0,0,1-.49-1.43,2.22,2.22,0,0,1,1-1.91,3.55,3.55,0,0,1,1-.45,5.81,5.81,0,0,1,1.27-.14,7.82,7.82,0,0,1,1.16.08,4.46,4.46,0,0,1,.94.24V7.5a3.37,3.37,0,0,0-.46-.25A3.52,3.52,0,0,0,38,7.06c-.18,0-.36-.08-.53-.11l-.49,0a2.68,2.68,0,0,0-.59.06,1.69,1.69,0,0,0-.45.17,1,1,0,0,0-.28.27.68.68,0,0,0-.1.35.64.64,0,0,0,.12.38,1.14,1.14,0,0,0,.31.31,3.66,3.66,0,0,0,.5.3l.66.29a7,7,0,0,1,.91.45,3.75,3.75,0,0,1,.69.54,2.21,2.21,0,0,1,.44.68,2.4,2.4,0,0,1,.15.89,2.37,2.37,0,0,1-.27,1.18,2.25,2.25,0,0,1-.72.78,3.19,3.19,0,0,1-1.07.42,5.85,5.85,0,0,1-1.28.13A6.86,6.86,0,0,1,34.73,14,3.81,3.81,0,0,1,33.65,13.65Z"/>
      <path d="M42.64,11.08V14H40.75V5.57h3c2.12,0,3.18.89,3.18,2.68A2.6,2.6,0,0,1,46,10.3a3.63,3.63,0,0,1-2.44.78Zm0-4.06V9.64h.74c1,0,1.51-.44,1.51-1.32S44.39,7,43.38,7Z"/>
      <path d="M47.54,14.12a1.07,1.07,0,0,1-.76-.28.92.92,0,0,1-.3-.69.86.86,0,0,1,.31-.69,1.16,1.16,0,0,1,.78-.27,1.12,1.12,0,0,1,.78.27.94.94,0,0,1,0,1.39A1.16,1.16,0,0,1,47.54,14.12Z"/>
      <path d="M57.76,14H55.85L52.39,8.69A5.06,5.06,0,0,1,52,8h0c0,.29.05.75.05,1.36V14H50.2V5.57h2l3.33,5.12c.16.23.3.46.43.68h0A8.94,8.94,0,0,1,56,10.22V5.57h1.79Z"/>
      <path d="M64.63,14h-5V5.57h4.84V7.11h-3V9h2.75v1.54H61.48v1.92h3.15Z"/>
      <path d="M71.93,7.11h-2.4V14h-1.9V7.11H65.25V5.57h6.68Z"/>
      <path d="M34.08,20l-2.23,8.4H29.76L28.36,23a4.35,4.35,0,0,1-.13-.94h0a4.86,4.86,0,0,1-.15.94l-1.43,5.39H24.44L22.23,20H24.3l1.18,5.6a6.4,6.4,0,0,1,.11,1h0a4.28,4.28,0,0,1,.17-1L27.32,20h2l1.37,5.64a7.13,7.13,0,0,1,.14.91h0a6.24,6.24,0,0,1,.13-.94L32.17,20Z"/>
      <path d="M40,25.9H36.11c.07.87.61,1.31,1.65,1.31a3.24,3.24,0,0,0,1.74-.47v1.33a4.56,4.56,0,0,1-2.16.45,2.79,2.79,0,0,1-3.06-3.05,3.2,3.2,0,0,1,.87-2.37,2.87,2.87,0,0,1,2.13-.87,2.63,2.63,0,0,1,2,.78A3,3,0,0,1,40,25.12Zm-1.72-1.14c0-.86-.35-1.28-1-1.28a1,1,0,0,0-.77.36,1.72,1.72,0,0,0-.4.92Z"/>
      <path d="M43.08,27.68h0v.69H41.21V19.49h1.85v3.79h0a2.2,2.2,0,0,1,2-1.05,2.14,2.14,0,0,1,1.79.79,3.45,3.45,0,0,1,.63,2.18,3.71,3.71,0,0,1-.74,2.41,2.36,2.36,0,0,1-2,.91A1.9,1.9,0,0,1,43.08,27.68Zm0-2.53v.61a1.4,1.4,0,0,0,.33,1,1.07,1.07,0,0,0,.86.38,1.12,1.12,0,0,0,1-.49,2.36,2.36,0,0,0,.35-1.38,1.91,1.91,0,0,0-.32-1.17,1.07,1.07,0,0,0-.91-.41,1.19,1.19,0,0,0-.93.41A1.61,1.61,0,0,0,43,25.15Z"/>
      <path d="M59.53,28.37H57.47l-.6-1.87h-3l-.59,1.87h-2L54.3,20h2.24Zm-3.1-3.32-.9-2.82a4.51,4.51,0,0,1-.14-.76h0a3,3,0,0,1-.14.73l-.92,2.85Z"/>
      <path d="M62.27,27.68h0v3.45H60.39V22.37h1.86v.91h0a2.18,2.18,0,0,1,1.93-1.05A2.14,2.14,0,0,1,66,23a3.42,3.42,0,0,1,.64,2.17,3.66,3.66,0,0,1-.75,2.41,2.4,2.4,0,0,1-2,.91A1.87,1.87,0,0,1,62.27,27.68Zm-.05-2.46v.48a1.52,1.52,0,0,0,.33,1,1.05,1.05,0,0,0,.86.39,1.12,1.12,0,0,0,1-.49,2.36,2.36,0,0,0,.35-1.38c0-1.06-.41-1.58-1.23-1.58a1.15,1.15,0,0,0-.93.43A1.69,1.69,0,0,0,62.22,25.22Z"/>
      <path d="M69.73,27.68h0v3.45H67.86V22.37h1.85v.91h0a2.18,2.18,0,0,1,1.93-1.05,2.14,2.14,0,0,1,1.8.8,3.36,3.36,0,0,1,.64,2.17,3.71,3.71,0,0,1-.74,2.41,2.41,2.41,0,0,1-2,.91A1.88,1.88,0,0,1,69.73,27.68Zm0-2.46v.48a1.52,1.52,0,0,0,.33,1,1.08,1.08,0,0,0,.86.39,1.12,1.12,0,0,0,1-.49,2.36,2.36,0,0,0,.35-1.38c0-1.06-.41-1.58-1.23-1.58a1.15,1.15,0,0,0-.93.43A1.69,1.69,0,0,0,69.68,25.22Z"/>
    </g>
    <g>
      <path d="M158,70.08h-1.18l-1.4-2.35a4.9,4.9,0,0,0-.38-.56,1.92,1.92,0,0,0-.37-.38,1.14,1.14,0,0,0-.41-.21,1.53,1.53,0,0,0-.49-.07h-.81v3.57h-1v-8.4h2.51a3.64,3.64,0,0,1,1,.14,2.23,2.23,0,0,1,.81.42,2.06,2.06,0,0,1,.53.7,2.28,2.28,0,0,1,.2,1,2.38,2.38,0,0,1-.14.81,2,2,0,0,1-.37.65,2.37,2.37,0,0,1-.59.49,3,3,0,0,1-.77.31v0a2.13,2.13,0,0,1,.37.22,1.9,1.9,0,0,1,.29.28,3.58,3.58,0,0,1,.28.37c.09.14.2.3.31.49Zm-5-7.51v3.05h1.33a2.17,2.17,0,0,0,.69-.11,1.61,1.61,0,0,0,.54-.32,1.57,1.57,0,0,0,.36-.51A1.83,1.83,0,0,0,156,64a1.31,1.31,0,0,0-.43-1,1.88,1.88,0,0,0-1.26-.38Z" fill="#1e1e1e"/>
      <path d="M163.62,67.32h-4.23a2.19,2.19,0,0,0,.54,1.55,1.85,1.85,0,0,0,1.41.55,3,3,0,0,0,1.87-.67v.9a3.52,3.52,0,0,1-2.09.57,2.54,2.54,0,0,1-2-.81,3.83,3.83,0,0,1,.07-4.59,2.55,2.55,0,0,1,2-.88,2.28,2.28,0,0,1,1.82.76,3.19,3.19,0,0,1,.64,2.12Zm-1-.81a2,2,0,0,0-.4-1.3,1.4,1.4,0,0,0-1.1-.46,1.52,1.52,0,0,0-1.15.49,2.16,2.16,0,0,0-.59,1.27Z" fill="#1e1e1e"/>
      <path d="M170.26,70.08h-1v-1h0a2.43,2.43,0,0,1-3.87.36,3.33,3.33,0,0,1-.68-2.2,3.59,3.59,0,0,1,.75-2.38,2.48,2.48,0,0,1,2-.9,1.94,1.94,0,0,1,1.8,1h0V61.2h1Zm-1-2.71v-.88a1.7,1.7,0,0,0-.48-1.23,1.61,1.61,0,0,0-1.22-.51,1.64,1.64,0,0,0-1.38.65,2.79,2.79,0,0,0-.51,1.78,2.52,2.52,0,0,0,.49,1.64,1.57,1.57,0,0,0,1.3.6,1.67,1.67,0,0,0,1.3-.58A2.2,2.2,0,0,0,169.3,67.37Z" fill="#1e1e1e"/>
      <path d="M172.57,62.56a.58.58,0,0,1-.43-.18.55.55,0,0,1-.19-.44.63.63,0,0,1,.62-.63.61.61,0,0,1,.45.18.58.58,0,0,1,.19.45.58.58,0,0,1-.19.44A.61.61,0,0,1,172.57,62.56Zm.47,7.52h-1v-6h1Z" fill="#1e1e1e"/>
      <path d="M178,65.06a1.14,1.14,0,0,0-.72-.2,1.24,1.24,0,0,0-1,.58,2.67,2.67,0,0,0-.41,1.58v3.06h-1v-6h1v1.24h0a2.17,2.17,0,0,1,.63-1,1.44,1.44,0,0,1,.94-.35,1.65,1.65,0,0,1,.57.08Z" fill="#1e1e1e"/>
      <path d="M183.87,67.32h-4.23a2.19,2.19,0,0,0,.54,1.55,1.85,1.85,0,0,0,1.41.55,3,3,0,0,0,1.87-.67v.9a3.53,3.53,0,0,1-2.1.57,2.53,2.53,0,0,1-2-.81,3.33,3.33,0,0,1-.73-2.3,3.29,3.29,0,0,1,.79-2.29,2.58,2.58,0,0,1,2-.88,2.28,2.28,0,0,1,1.82.76,3.19,3.19,0,0,1,.64,2.12Zm-1-.81a2,2,0,0,0-.4-1.3,1.4,1.4,0,0,0-1.1-.46,1.54,1.54,0,0,0-1.16.49,2.21,2.21,0,0,0-.58,1.27Z" fill="#1e1e1e"/>
      <path d="M189.45,69.81a3.1,3.1,0,0,1-1.64.41,2.7,2.7,0,0,1-2.07-.83,3,3,0,0,1-.79-2.17,3.32,3.32,0,0,1,.85-2.38,3,3,0,0,1,2.27-.9,3.06,3.06,0,0,1,1.39.3v1a2.45,2.45,0,0,0-1.43-.47,2,2,0,0,0-1.51.66,2.51,2.51,0,0,0-.58,1.73,2.39,2.39,0,0,0,.55,1.67,1.92,1.92,0,0,0,1.48.61,2.4,2.4,0,0,0,1.48-.53Z" fill="#1e1e1e"/>
      <path d="M193.89,70a1.82,1.82,0,0,1-.9.19c-1.05,0-1.58-.58-1.58-1.76V64.9h-1v-.82h1V62.62l1-.31v1.77h1.52v.82h-1.52v3.38a1.41,1.41,0,0,0,.21.87.82.82,0,0,0,.68.25,1,1,0,0,0,.63-.2Z" fill="#1e1e1e"/>
    </g>
    <g>
      <path d="M401.52,33.16v3.17h-1v-8.4h2.31a3,3,0,0,1,2.09.66,2.34,2.34,0,0,1,.74,1.85,2.52,2.52,0,0,1-.82,1.95,3.15,3.15,0,0,1-2.23.77Zm0-4.34v3.45h1a2.28,2.28,0,0,0,1.55-.47,1.65,1.65,0,0,0,.54-1.32c0-1.11-.66-1.66-2-1.66Z" fill="#1e1e1e"/>
      <path d="M410.08,31.3a1.25,1.25,0,0,0-.73-.19,1.23,1.23,0,0,0-1,.58,2.74,2.74,0,0,0-.41,1.58v3.06h-1v-6h1v1.24h0a2.17,2.17,0,0,1,.63-1,1.39,1.39,0,0,1,.94-.35,1.52,1.52,0,0,1,.58.08Z" fill="#1e1e1e"/>
      <path d="M413.64,36.47a2.77,2.77,0,0,1-2.12-.84,3.11,3.11,0,0,1-.8-2.23,3.25,3.25,0,0,1,.83-2.36,3,3,0,0,1,2.23-.85,2.71,2.71,0,0,1,2.1.83,3.27,3.27,0,0,1,.75,2.29,3.23,3.23,0,0,1-.81,2.3A2.87,2.87,0,0,1,413.64,36.47Zm.07-5.47a1.81,1.81,0,0,0-1.46.63,2.59,2.59,0,0,0-.54,1.74,2.46,2.46,0,0,0,.54,1.68,1.86,1.86,0,0,0,1.46.61,1.75,1.75,0,0,0,1.43-.6,2.58,2.58,0,0,0,.5-1.72,2.62,2.62,0,0,0-.5-1.73A1.73,1.73,0,0,0,413.71,31Z" fill="#1e1e1e"/>
      <path d="M426.63,36.33h-1V32.89a2.58,2.58,0,0,0-.31-1.45,1.17,1.17,0,0,0-1-.44,1.3,1.3,0,0,0-1.05.56,2.16,2.16,0,0,0-.43,1.35v3.42h-1V32.77c0-1.18-.46-1.77-1.37-1.77a1.28,1.28,0,0,0-1,.53,2.2,2.2,0,0,0-.41,1.38v3.42h-1v-6h1v1h0A2,2,0,0,1,421,30.19a1.77,1.77,0,0,1,1.07.34,1.75,1.75,0,0,1,.63.9,2.15,2.15,0,0,1,2-1.24c1.32,0,2,.82,2,2.44Z" fill="#1e1e1e"/>
      <path d="M429.36,35.46h0v3.63h-1V30.33h1v1.06h0a2.26,2.26,0,0,1,2.07-1.2,2.21,2.21,0,0,1,1.82.81,3.33,3.33,0,0,1,.65,2.16,3.73,3.73,0,0,1-.74,2.41,2.42,2.42,0,0,1-2,.9A2,2,0,0,1,429.36,35.46Zm0-2.42v.84a1.81,1.81,0,0,0,.48,1.27,1.75,1.75,0,0,0,2.6-.15,3.09,3.09,0,0,0,.49-1.86,2.41,2.41,0,0,0-.46-1.57,1.54,1.54,0,0,0-1.26-.57,1.69,1.69,0,0,0-1.34.58A2.15,2.15,0,0,0,429.34,33Z" fill="#1e1e1e"/>
      <path d="M438.14,36.27a1.76,1.76,0,0,1-.89.19c-1.05,0-1.58-.59-1.58-1.76V31.15h-1v-.82h1V28.87l1-.31v1.77h1.51v.82h-1.51v3.38a1.35,1.35,0,0,0,.21.86.8.8,0,0,0,.68.26.94.94,0,0,0,.62-.2Z" fill="#1e1e1e"/>
      <path d="M404.49,49.06a3.19,3.19,0,0,1-1.64.41,2.75,2.75,0,0,1-2.07-.83,3.06,3.06,0,0,1-.79-2.17,3.35,3.35,0,0,1,.85-2.38,3,3,0,0,1,2.27-.9,3.2,3.2,0,0,1,1.39.29v1a2.45,2.45,0,0,0-1.43-.47,1.91,1.91,0,0,0-1.5.66,2.47,2.47,0,0,0-.59,1.73,2.36,2.36,0,0,0,.55,1.66,1.89,1.89,0,0,0,1.49.61,2.38,2.38,0,0,0,1.47-.52Z" fill="#1e1e1e"/>
      <path d="M408.91,44.3a1.25,1.25,0,0,0-.73-.19,1.23,1.23,0,0,0-1,.58,2.74,2.74,0,0,0-.41,1.58v3.06h-1v-6h1v1.24h0a2.17,2.17,0,0,1,.63-1,1.39,1.39,0,0,1,.94-.35,1.52,1.52,0,0,1,.58.08Z" fill="#1e1e1e"/>
      <path d="M414.78,46.57h-4.23a2.19,2.19,0,0,0,.54,1.55,1.85,1.85,0,0,0,1.42.54,3,3,0,0,0,1.86-.66v.9a3.52,3.52,0,0,1-2.09.57,2.52,2.52,0,0,1-2-.82,3.81,3.81,0,0,1,.07-4.58,2.53,2.53,0,0,1,2-.88,2.25,2.25,0,0,1,1.82.76,3.19,3.19,0,0,1,.64,2.12Zm-1-.81a2,2,0,0,0-.4-1.3,1.36,1.36,0,0,0-1.1-.46,1.52,1.52,0,0,0-1.15.49,2.13,2.13,0,0,0-.59,1.27Z" fill="#1e1e1e"/>
      <path d="M421.42,49.33h-1v-1h0a2.22,2.22,0,0,1-2.07,1.16,2.25,2.25,0,0,1-1.8-.8,3.33,3.33,0,0,1-.68-2.2,3.59,3.59,0,0,1,.75-2.38,2.48,2.48,0,0,1,2-.9,2,2,0,0,1,1.8,1h0V40.45h1Zm-1-2.71v-.89A1.73,1.73,0,0,0,420,44.5a1.78,1.78,0,0,0-2.6.14,2.82,2.82,0,0,0-.51,1.79,2.53,2.53,0,0,0,.49,1.63,1.57,1.57,0,0,0,1.3.6,1.63,1.63,0,0,0,1.3-.58A2.16,2.16,0,0,0,420.46,46.62Z" fill="#1e1e1e"/>
      <path d="M428.14,46.57H423.9a2.19,2.19,0,0,0,.54,1.55,1.85,1.85,0,0,0,1.42.54,3,3,0,0,0,1.86-.66v.9a3.52,3.52,0,0,1-2.09.57,2.52,2.52,0,0,1-2-.82,3.81,3.81,0,0,1,.07-4.58,2.53,2.53,0,0,1,2-.88,2.25,2.25,0,0,1,1.82.76,3.2,3.2,0,0,1,.65,2.12Zm-1-.81a2,2,0,0,0-.4-1.3,1.36,1.36,0,0,0-1.1-.46,1.52,1.52,0,0,0-1.15.49,2.13,2.13,0,0,0-.59,1.27Z" fill="#1e1e1e"/>
      <path d="M434.57,49.33h-1V45.91c0-1.27-.47-1.91-1.4-1.91a1.52,1.52,0,0,0-1.19.54,2,2,0,0,0-.47,1.37v3.42h-1v-6h1v1h0a2.17,2.17,0,0,1,2-1.14,1.83,1.83,0,0,1,1.51.64,2.85,2.85,0,0,1,.52,1.83Z" fill="#1e1e1e"/>
      <path d="M439.06,49.27a1.82,1.82,0,0,1-.9.19c-1.05,0-1.57-.59-1.57-1.76V44.15h-1v-.82h1V41.87l1-.31v1.77h1.51v.82h-1.51v3.38a1.43,1.43,0,0,0,.2.86.81.81,0,0,0,.68.26,1,1,0,0,0,.63-.2Z" fill="#1e1e1e"/>
      <path d="M440.75,41.81a.59.59,0,0,1-.44-.18.55.55,0,0,1-.19-.44.63.63,0,0,1,.63-.63.6.6,0,0,1,.44.18.58.58,0,0,1,.19.45.58.58,0,0,1-.19.44A.6.6,0,0,1,440.75,41.81Zm.46,7.52h-1v-6h1Z" fill="#1e1e1e"/>
      <path d="M447.35,49.33h-1v-.94h0a2.2,2.2,0,0,1-3.25.61,1.65,1.65,0,0,1-.51-1.26c0-1.12.67-1.78,2-2l1.79-.25q0-1.53-1.23-1.53a3,3,0,0,0-2,.74v-1a3.76,3.76,0,0,1,2-.56c1.41,0,2.12.75,2.12,2.24Zm-1-3-1.44.2a2.3,2.3,0,0,0-1,.33.94.94,0,0,0-.34.84.92.92,0,0,0,.31.72,1.25,1.25,0,0,0,.84.27,1.53,1.53,0,0,0,1.18-.5,1.77,1.77,0,0,0,.46-1.27Z" fill="#1e1e1e"/>
      <path d="M450.05,49.33h-1V40.45h1Z" fill="#1e1e1e"/>
      <path d="M451.58,49.11v-1a2.84,2.84,0,0,0,1.73.58c.85,0,1.27-.28,1.27-.84a.76.76,0,0,0-.11-.41,1,1,0,0,0-.29-.29,1.83,1.83,0,0,0-.44-.23l-.53-.22a5.16,5.16,0,0,1-.7-.32A2.55,2.55,0,0,1,452,46a1.52,1.52,0,0,1-.3-.46,1.57,1.57,0,0,1-.1-.6,1.42,1.42,0,0,1,.19-.75,1.7,1.7,0,0,1,.52-.55,2.71,2.71,0,0,1,.73-.33,3.59,3.59,0,0,1,2.25.16v1a2.71,2.71,0,0,0-1.53-.43,1.75,1.75,0,0,0-.48.06,1.15,1.15,0,0,0-.37.17.76.76,0,0,0-.24.27.67.67,0,0,0-.09.34.82.82,0,0,0,.09.4.9.9,0,0,0,.24.28,2.48,2.48,0,0,0,.4.22l.54.22a6.85,6.85,0,0,1,.71.31,2.82,2.82,0,0,1,.54.36,1.41,1.41,0,0,1,.34.47,1.48,1.48,0,0,1,.12.63,1.49,1.49,0,0,1-.19.77,1.61,1.61,0,0,1-.53.54,2.32,2.32,0,0,1-.75.33,3.82,3.82,0,0,1-.9.1A3.41,3.41,0,0,1,451.58,49.11Z" fill="#1e1e1e"/>
    </g>
    <g>
      <path d="M428.43,78.56h-1.09l-.89-2.36h-3.57l-.83,2.36H421l3.22-8.4h1Zm-2.31-3.24-1.31-3.58a2.75,2.75,0,0,1-.13-.56h0a3.62,3.62,0,0,1-.13.56l-1.31,3.58Z" fill="#1e1e1e"/>
      <path d="M433.5,78.28a3.14,3.14,0,0,1-1.65.42,2.72,2.72,0,0,1-2.07-.84A3,3,0,0,1,429,75.7a3.3,3.3,0,0,1,.85-2.38,3,3,0,0,1,2.26-.9,3.27,3.27,0,0,1,1.4.29v1a2.4,2.4,0,0,0-1.43-.47,1.92,1.92,0,0,0-1.51.66,2.5,2.5,0,0,0-.59,1.73,2.36,2.36,0,0,0,.55,1.66,1.91,1.91,0,0,0,1.49.61,2.43,2.43,0,0,0,1.48-.52Z" fill="#1e1e1e"/>
      <path d="M438.9,78.28a3.1,3.1,0,0,1-1.64.42,2.69,2.69,0,0,1-2.07-.84,3,3,0,0,1-.79-2.16,3.3,3.3,0,0,1,.85-2.38,3,3,0,0,1,2.27-.9,3.2,3.2,0,0,1,1.39.29v1a2.38,2.38,0,0,0-1.43-.47,2,2,0,0,0-1.51.66,2.5,2.5,0,0,0-.58,1.73,2.36,2.36,0,0,0,.55,1.66,1.89,1.89,0,0,0,1.48.61,2.39,2.39,0,0,0,1.48-.52Z" fill="#1e1e1e"/>
      <path d="M445.06,75.8h-4.24a2.3,2.3,0,0,0,.54,1.55,1.87,1.87,0,0,0,1.42.54,2.93,2.93,0,0,0,1.86-.67v.91a3.5,3.5,0,0,1-2.09.57,2.52,2.52,0,0,1-2-.82,3.36,3.36,0,0,1-.73-2.3,3.29,3.29,0,0,1,.8-2.28,2.53,2.53,0,0,1,2-.88,2.25,2.25,0,0,1,1.82.76,3.18,3.18,0,0,1,.65,2.12Zm-1-.82a2,2,0,0,0-.4-1.29,1.36,1.36,0,0,0-1.1-.46,1.55,1.55,0,0,0-1.15.48,2.25,2.25,0,0,0-.59,1.27Z" fill="#1e1e1e"/>
      <path d="M446.13,78.34v-1a2.82,2.82,0,0,0,1.73.58q1.26,0,1.26-.84a.76.76,0,0,0-.1-.41,1.22,1.22,0,0,0-.3-.3,2.44,2.44,0,0,0-.43-.23l-.54-.21c-.26-.11-.5-.21-.7-.32a2.22,2.22,0,0,1-.5-.36,1.38,1.38,0,0,1-.31-.46,1.9,1.9,0,0,1-.1-.61,1.39,1.39,0,0,1,.2-.74,1.67,1.67,0,0,1,.51-.55,2.26,2.26,0,0,1,.74-.33,3.56,3.56,0,0,1,2.24.16v1a2.7,2.7,0,0,0-1.52-.43,1.88,1.88,0,0,0-.49.06,1.4,1.4,0,0,0-.37.17.88.88,0,0,0-.24.27.66.66,0,0,0-.08.34.75.75,0,0,0,.08.39.83.83,0,0,0,.25.28,1.68,1.68,0,0,0,.4.23l.53.21c.27.11.51.21.72.32a2.82,2.82,0,0,1,.54.36,1.57,1.57,0,0,1,.34.47,1.46,1.46,0,0,1,.12.62,1.51,1.51,0,0,1-.2.78,1.58,1.58,0,0,1-.52.54,2.26,2.26,0,0,1-.76.32,3.68,3.68,0,0,1-.89.11A3.39,3.39,0,0,1,446.13,78.34Z" fill="#1e1e1e"/>
      <path d="M451.22,78.34v-1a2.84,2.84,0,0,0,1.73.58c.84,0,1.27-.28,1.27-.84a.76.76,0,0,0-.11-.41,1.07,1.07,0,0,0-.3-.3,2.44,2.44,0,0,0-.43-.23l-.53-.21c-.27-.11-.5-.21-.71-.32a2.47,2.47,0,0,1-.5-.36,1.35,1.35,0,0,1-.3-.46,1.66,1.66,0,0,1-.11-.61,1.39,1.39,0,0,1,.2-.74,1.78,1.78,0,0,1,.51-.55,2.26,2.26,0,0,1,.74-.33,3.41,3.41,0,0,1,.85-.11,3.46,3.46,0,0,1,1.4.27v1a2.74,2.74,0,0,0-1.53-.43,1.75,1.75,0,0,0-.48.06,1.33,1.33,0,0,0-.38.17.88.88,0,0,0-.24.27.77.77,0,0,0-.08.34.87.87,0,0,0,.08.39.83.83,0,0,0,.25.28,1.68,1.68,0,0,0,.4.23l.53.21c.27.11.51.21.72.32a2.82,2.82,0,0,1,.54.36,1.41,1.41,0,0,1,.34.47,1.46,1.46,0,0,1,.12.62,1.42,1.42,0,0,1-.2.78,1.58,1.58,0,0,1-.52.54,2.26,2.26,0,0,1-.76.32,3.68,3.68,0,0,1-.89.11A3.41,3.41,0,0,1,451.22,78.34Z" fill="#1e1e1e"/>
      <path d="M462.75,78.5a1.82,1.82,0,0,1-.9.19c-1.05,0-1.58-.59-1.58-1.76V73.38h-1v-.82h1V71.09l1-.31v1.78h1.51v.82h-1.51v3.38a1.38,1.38,0,0,0,.2.86.83.83,0,0,0,.68.26,1.05,1.05,0,0,0,.63-.2Z" fill="#1e1e1e"/>
      <path d="M466.41,78.7a2.79,2.79,0,0,1-2.13-.84,3.1,3.1,0,0,1-.79-2.23,3.23,3.23,0,0,1,.82-2.36,3,3,0,0,1,2.24-.85,2.68,2.68,0,0,1,2.09.82,3.32,3.32,0,0,1,.75,2.3,3.25,3.25,0,0,1-.81,2.3A2.85,2.85,0,0,1,466.41,78.7Zm.07-5.47a1.84,1.84,0,0,0-1.47.63,2.58,2.58,0,0,0-.54,1.73,2.42,2.42,0,0,0,.55,1.69,1.85,1.85,0,0,0,1.46.61,1.77,1.77,0,0,0,1.43-.6,3.23,3.23,0,0,0,0-3.45A1.74,1.74,0,0,0,466.48,73.23Z" fill="#1e1e1e"/>
      <path d="M475.86,78.56h-1.35l-2.65-2.88h0v2.88h-1V69.68h1v5.63h0l2.52-2.75h1.26l-2.78,2.89Z" fill="#1e1e1e"/>
      <path d="M481.37,75.8h-4.23a2.21,2.21,0,0,0,.54,1.55,1.85,1.85,0,0,0,1.41.54,2.94,2.94,0,0,0,1.87-.67v.91a3.52,3.52,0,0,1-2.09.57,2.52,2.52,0,0,1-2-.82,3.83,3.83,0,0,1,.06-4.58,2.55,2.55,0,0,1,2-.88,2.25,2.25,0,0,1,1.82.76,3.18,3.18,0,0,1,.64,2.12Zm-1-.82a2,2,0,0,0-.4-1.29,1.37,1.37,0,0,0-1.1-.46,1.59,1.59,0,0,0-1.16.48,2.24,2.24,0,0,0-.58,1.27Z" fill="#1e1e1e"/>
      <path d="M487.81,78.56h-1V75.14c0-1.28-.47-1.91-1.4-1.91a1.5,1.5,0,0,0-1.19.54,2,2,0,0,0-.47,1.37v3.42h-1v-6h1v1h0a2.16,2.16,0,0,1,2-1.14,1.85,1.85,0,0,1,1.51.63,2.9,2.9,0,0,1,.52,1.84Z" fill="#1e1e1e"/>
    </g>
    <g>
      <path d="M406.3,96.13h-2.37v2.36h-.78V96.13h-2.36v-.79h2.36V93h.78v2.36h2.37Z" fill="#1e1e1e"/>
      <path d="M415,94.2a1.18,1.18,0,0,0-.73-.19,1.23,1.23,0,0,0-1,.58,2.72,2.72,0,0,0-.41,1.58v3.06h-1v-6h1v1.24h0a2.17,2.17,0,0,1,.63-1,1.39,1.39,0,0,1,.94-.35,1.52,1.52,0,0,1,.58.08Z" fill="#1e1e1e"/>
      <path d="M420.91,96.47h-4.24a2.21,2.21,0,0,0,.54,1.55,1.85,1.85,0,0,0,1.42.54,3,3,0,0,0,1.86-.66v.9a3.5,3.5,0,0,1-2.09.57,2.52,2.52,0,0,1-2-.82,3.36,3.36,0,0,1-.73-2.3,3.29,3.29,0,0,1,.8-2.28,2.53,2.53,0,0,1,2-.88,2.25,2.25,0,0,1,1.82.76,3.2,3.2,0,0,1,.65,2.12Zm-1-.81a2,2,0,0,0-.4-1.3,1.36,1.36,0,0,0-1.1-.46,1.52,1.52,0,0,0-1.15.49,2.19,2.19,0,0,0-.59,1.27Z" fill="#1e1e1e"/>
      <path d="M427.54,99.23h-1v-1h0a2.43,2.43,0,0,1-3.87.36,3.33,3.33,0,0,1-.68-2.2,3.57,3.57,0,0,1,.75-2.38,2.48,2.48,0,0,1,2-.9,1.93,1.93,0,0,1,1.8,1h0V90.35h1Zm-1-2.71v-.89a1.73,1.73,0,0,0-.48-1.23,1.78,1.78,0,0,0-2.6.14,2.81,2.81,0,0,0-.51,1.78,2.54,2.54,0,0,0,.49,1.64,1.57,1.57,0,0,0,1.3.6,1.63,1.63,0,0,0,1.3-.58A2.16,2.16,0,0,0,426.58,96.52Z" fill="#1e1e1e"/>
      <path d="M429.86,91.71a.59.59,0,0,1-.44-.18.6.6,0,0,1-.19-.44.62.62,0,0,1,.19-.45.59.59,0,0,1,.44-.18.6.6,0,0,1,.44.18.58.58,0,0,1,.19.45.59.59,0,0,1-.19.44A.6.6,0,0,1,429.86,91.71Zm.46,7.52h-1v-6h1Z" fill="#1e1e1e"/>
      <path d="M435.27,94.2a1.14,1.14,0,0,0-.72-.19,1.23,1.23,0,0,0-1,.58,2.64,2.64,0,0,0-.41,1.58v3.06h-1v-6h1v1.24h0a2.17,2.17,0,0,1,.63-1,1.39,1.39,0,0,1,.94-.35,1.44,1.44,0,0,1,.57.08Z" fill="#1e1e1e"/>
      <path d="M441.15,96.47h-4.23a2.21,2.21,0,0,0,.54,1.55,1.85,1.85,0,0,0,1.41.54,3,3,0,0,0,1.87-.66v.9a3.52,3.52,0,0,1-2.09.57,2.52,2.52,0,0,1-2-.82,3.81,3.81,0,0,1,.07-4.58,2.51,2.51,0,0,1,2-.88,2.25,2.25,0,0,1,1.82.76,3.19,3.19,0,0,1,.64,2.12Zm-1-.81a2,2,0,0,0-.4-1.3,1.37,1.37,0,0,0-1.1-.46,1.52,1.52,0,0,0-1.15.49,2.13,2.13,0,0,0-.59,1.27Z" fill="#1e1e1e"/>
      <path d="M446.73,99a3.17,3.17,0,0,1-1.64.41,2.75,2.75,0,0,1-2.07-.83,3.06,3.06,0,0,1-.79-2.17,3.35,3.35,0,0,1,.85-2.38,3,3,0,0,1,2.27-.9,3.2,3.2,0,0,1,1.39.29v1a2.45,2.45,0,0,0-1.43-.47,1.91,1.91,0,0,0-1.5.66,2.46,2.46,0,0,0-.59,1.73,2.36,2.36,0,0,0,.55,1.66,1.91,1.91,0,0,0,1.49.61,2.38,2.38,0,0,0,1.47-.52Z" fill="#1e1e1e"/>
      <path d="M451.17,99.17a1.82,1.82,0,0,1-.9.19c-1,0-1.58-.59-1.58-1.76V94.05h-1v-.82h1V91.77l1-.31v1.77h1.52v.82h-1.52v3.38a1.37,1.37,0,0,0,.21.86.8.8,0,0,0,.68.26,1.05,1.05,0,0,0,.63-.2Z" fill="#1e1e1e"/>
      <path d="M462,95.83q0,3.54-3.19,3.54T455.76,96V90.83h1V95.9c0,1.73.73,2.59,2.18,2.59S461,97.65,461,96V90.83h1Z" fill="#1e1e1e"/>
      <path d="M470.05,99.23h-1.17l-1.41-2.35a5,5,0,0,0-.37-.56,2.24,2.24,0,0,0-.37-.38,1.49,1.49,0,0,0-.41-.22,2,2,0,0,0-.5-.06H465v3.57h-1v-8.4h2.51a3.29,3.29,0,0,1,1,.14,2.23,2.23,0,0,1,.81.42,1.88,1.88,0,0,1,.54.7,2.58,2.58,0,0,1,.06,1.78,2.07,2.07,0,0,1-.38.66A2.32,2.32,0,0,1,468,95a3.54,3.54,0,0,1-.77.31v0a2.06,2.06,0,0,1,.66.5,4,4,0,0,1,.28.37l.31.49Zm-5-7.51v3h1.34a1.91,1.91,0,0,0,.68-.12,1.59,1.59,0,0,0,.54-.31,1.43,1.43,0,0,0,.36-.51,1.68,1.68,0,0,0,.13-.68,1.32,1.32,0,0,0-.44-1.05,1.88,1.88,0,0,0-1.26-.38Z" fill="#1e1e1e"/>
      <path d="M475.53,99.23h-4.36v-8.4h1v7.51h3.37Z" fill="#1e1e1e"/>
    </g>
    <g>
      <path d="M156.77,44.33h-1V40.87c0-1.25-.46-1.87-1.39-1.87a1.51,1.51,0,0,0-1.18.54,2,2,0,0,0-.49,1.39v3.4h-1V35.44h1v3.88h0a2.19,2.19,0,0,1,2-1.13c1.35,0,2,.81,2,2.44Z" fill="#1e1e1e"/>
      <path d="M161.27,44.27a1.87,1.87,0,0,1-.89.19c-1.06,0-1.58-.59-1.58-1.76V39.15h-1v-.82h1V36.86l1-.31v1.78h1.51v.82h-1.51v3.38a1.37,1.37,0,0,0,.21.86.8.8,0,0,0,.67.26,1,1,0,0,0,.63-.2Z" fill="#1e1e1e"/>
      <path d="M165.61,44.27a1.87,1.87,0,0,1-.89.19c-1.05,0-1.58-.59-1.58-1.76V39.15h-1v-.82h1V36.86l1-.31v1.78h1.51v.82H164.1v3.38a1.37,1.37,0,0,0,.21.86.81.81,0,0,0,.68.26,1,1,0,0,0,.62-.2Z" fill="#1e1e1e"/>
      <path d="M167.79,43.46h0v3.63h-1V38.33h1v1.05h0a2.29,2.29,0,0,1,2.08-1.19,2.23,2.23,0,0,1,1.81.8,3.37,3.37,0,0,1,.65,2.16,3.69,3.69,0,0,1-.74,2.41,2.4,2.4,0,0,1-2,.91A2,2,0,0,1,167.79,43.46Zm0-2.42v.84a1.8,1.8,0,0,0,.48,1.26,1.59,1.59,0,0,0,1.23.52,1.6,1.6,0,0,0,1.37-.67,3,3,0,0,0,.49-1.86,2.43,2.43,0,0,0-.46-1.57,1.53,1.53,0,0,0-1.25-.56,1.7,1.7,0,0,0-1.35.58A2.13,2.13,0,0,0,167.77,41Z" fill="#1e1e1e"/>
      <path d="M173.43,44.11v-1a2.84,2.84,0,0,0,1.73.58c.85,0,1.27-.28,1.27-.84a.76.76,0,0,0-.11-.41,1.17,1.17,0,0,0-.29-.3,3,3,0,0,0-.44-.23l-.53-.21a6.76,6.76,0,0,1-.7-.32,2,2,0,0,1-.51-.37,1.31,1.31,0,0,1-.3-.46,1.57,1.57,0,0,1-.11-.6,1.45,1.45,0,0,1,.2-.75,1.87,1.87,0,0,1,.51-.54,2.26,2.26,0,0,1,.74-.33,3,3,0,0,1,.85-.11,3.46,3.46,0,0,1,1.4.27v1a2.74,2.74,0,0,0-1.53-.43,1.75,1.75,0,0,0-.48.06,1.33,1.33,0,0,0-.38.17.78.78,0,0,0-.24.27.74.74,0,0,0-.08.34.87.87,0,0,0,.08.39.83.83,0,0,0,.25.28,2.48,2.48,0,0,0,.4.23l.53.21a6.17,6.17,0,0,1,.72.32,2.12,2.12,0,0,1,.54.36,1.38,1.38,0,0,1,.34.46,1.54,1.54,0,0,1,.12.63,1.5,1.5,0,0,1-.19.78,1.82,1.82,0,0,1-.53.54,2.49,2.49,0,0,1-.76.32,3.68,3.68,0,0,1-.89.11A3.41,3.41,0,0,1,173.43,44.11Z" fill="#1e1e1e"/>
      <path d="M179.12,39.5a.65.65,0,0,1-.65-.66.58.58,0,0,1,.19-.45.6.6,0,0,1,.46-.19.64.64,0,0,1,.47.19.58.58,0,0,1,.19.45.64.64,0,0,1-.19.47A.68.68,0,0,1,179.12,39.5Zm0,5a.61.61,0,0,1-.46-.2.62.62,0,0,1-.19-.46.64.64,0,0,1,.19-.47.6.6,0,0,1,.46-.19.65.65,0,0,1,.66.66.62.62,0,0,1-.19.46A.65.65,0,0,1,179.12,44.46Z" fill="#1e1e1e"/>
      <path d="M185.17,35.92l-4,9.8h-.89l4-9.8Z" fill="#1e1e1e"/>
      <path d="M188.85,35.92l-4,9.8h-.9l4-9.8Z" fill="#1e1e1e"/>
      <path d="M194.57,38.33l-2.76,7q-.74,1.86-2.07,1.86a2.28,2.28,0,0,1-.63-.07v-.87a1.84,1.84,0,0,0,.57.11,1.18,1.18,0,0,0,1.09-.87l.48-1.13-2.35-6H190l1.62,4.61c0,.06.06.22.13.46h0c0-.09.06-.24.12-.44l1.7-4.63Z" fill="#1e1e1e"/>
      <path d="M198,44.47a2.76,2.76,0,0,1-2.12-.84,3.12,3.12,0,0,1-.8-2.23,3.23,3.23,0,0,1,.83-2.36,3,3,0,0,1,2.23-.85,2.68,2.68,0,0,1,2.09.82A3.25,3.25,0,0,1,201,41.3a3.21,3.21,0,0,1-.81,2.3A2.84,2.84,0,0,1,198,44.47ZM198,39a1.84,1.84,0,0,0-1.47.63,2.59,2.59,0,0,0-.53,1.73,2.46,2.46,0,0,0,.54,1.68,1.85,1.85,0,0,0,1.46.62,1.75,1.75,0,0,0,1.43-.6,2.61,2.61,0,0,0,.5-1.72,2.65,2.65,0,0,0-.5-1.74A1.75,1.75,0,0,0,198,39Z" fill="#1e1e1e"/>
      <path d="M207.31,44.33h-1v-.95h0a2,2,0,0,1-1.85,1.09c-1.43,0-2.14-.85-2.14-2.56V38.33h.95v3.43c0,1.27.49,1.9,1.46,1.9a1.45,1.45,0,0,0,1.15-.52,2,2,0,0,0,.46-1.36V38.33h1Z" fill="#1e1e1e"/>
      <path d="M212.25,39.3a1.16,1.16,0,0,0-.72-.19,1.21,1.21,0,0,0-1,.58,2.62,2.62,0,0,0-.42,1.58v3.06h-1v-6h1v1.23h0a2,2,0,0,1,.62-1,1.45,1.45,0,0,1,1-.36,1.65,1.65,0,0,1,.57.08Z" fill="#1e1e1e"/>
      <path d="M213.12,44.11v-1a2.82,2.82,0,0,0,1.73.58q1.26,0,1.26-.84a.76.76,0,0,0-.1-.41,1.22,1.22,0,0,0-.3-.3,2.86,2.86,0,0,0-.43-.23l-.54-.21c-.26-.11-.5-.21-.7-.32a2,2,0,0,1-.5-.37,1.21,1.21,0,0,1-.31-.46,1.79,1.79,0,0,1-.1-.6,1.55,1.55,0,0,1,.19-.75,1.91,1.91,0,0,1,.52-.54,2.26,2.26,0,0,1,.74-.33,3,3,0,0,1,.85-.11,3.41,3.41,0,0,1,1.39.27v1A2.7,2.7,0,0,0,215.3,39a1.88,1.88,0,0,0-.49.06,1.26,1.26,0,0,0-.37.17.78.78,0,0,0-.24.27.63.63,0,0,0-.08.34.75.75,0,0,0,.08.39.83.83,0,0,0,.25.28,2.11,2.11,0,0,0,.4.23l.53.21a6.17,6.17,0,0,1,.72.32,2.12,2.12,0,0,1,.54.36,1.36,1.36,0,0,1,.46,1.09,1.51,1.51,0,0,1-.2.78,1.67,1.67,0,0,1-.52.54,2.49,2.49,0,0,1-.76.32,3.68,3.68,0,0,1-.89.11A3.39,3.39,0,0,1,213.12,44.11Z" fill="#1e1e1e"/>
      <path d="M219,36.8a.6.6,0,0,1-.44-.17.65.65,0,0,1,0-.9.64.64,0,0,1,.44-.17.64.64,0,0,1,.45.17.61.61,0,0,1,.18.45.6.6,0,0,1-.18.44A.61.61,0,0,1,219,36.8Zm.47,7.53h-1v-6h1Z" fill="#1e1e1e"/>
      <path d="M224.1,44.27a1.94,1.94,0,0,1-.9.19c-1,0-1.57-.59-1.57-1.76V39.15h-1v-.82h1V36.86l1-.31v1.78h1.51v.82h-1.51v3.38a1.38,1.38,0,0,0,.2.86.83.83,0,0,0,.68.26,1.05,1.05,0,0,0,.63-.2Z" fill="#1e1e1e"/>
      <path d="M230.1,41.57h-4.23a2.2,2.2,0,0,0,.53,1.54,1.85,1.85,0,0,0,1.42.55,2.94,2.94,0,0,0,1.87-.67v.9a3.46,3.46,0,0,1-2.1.58,2.51,2.51,0,0,1-2-.82,3.83,3.83,0,0,1,.06-4.58,2.55,2.55,0,0,1,2-.88,2.25,2.25,0,0,1,1.82.76,3.17,3.17,0,0,1,.64,2.11Zm-1-.82a2,2,0,0,0-.4-1.29,1.37,1.37,0,0,0-1.1-.46,1.57,1.57,0,0,0-1.16.48,2.24,2.24,0,0,0-.58,1.27Z" fill="#1e1e1e"/>
      <path d="M231.81,44.46a.65.65,0,0,1-.46-.2.66.66,0,0,1-.19-.46.68.68,0,0,1,.19-.47.63.63,0,0,1,.46-.19.63.63,0,0,1,.47.19.65.65,0,0,1,.2.47.68.68,0,0,1-.67.66Z" fill="#1e1e1e"/>
      <path d="M238,44.05a3.14,3.14,0,0,1-1.65.42,2.72,2.72,0,0,1-2.07-.84,3,3,0,0,1-.78-2.16,3.34,3.34,0,0,1,.84-2.38,3,3,0,0,1,2.27-.9,3.13,3.13,0,0,1,1.4.29v1A2.48,2.48,0,0,0,236.6,39a1.91,1.91,0,0,0-1.51.65,2.53,2.53,0,0,0-.59,1.74,2.38,2.38,0,0,0,.55,1.66,1.91,1.91,0,0,0,1.49.61,2.43,2.43,0,0,0,1.48-.52Z" fill="#1e1e1e"/>
      <path d="M241.83,44.47a2.77,2.77,0,0,1-2.12-.84,3.12,3.12,0,0,1-.8-2.23,3.23,3.23,0,0,1,.83-2.36,3,3,0,0,1,2.23-.85,2.71,2.71,0,0,1,2.1.82,3.29,3.29,0,0,1,.75,2.29,3.21,3.21,0,0,1-.81,2.3A2.84,2.84,0,0,1,241.83,44.47ZM241.9,39a1.81,1.81,0,0,0-1.46.63,2.54,2.54,0,0,0-.54,1.73,2.46,2.46,0,0,0,.54,1.68,1.87,1.87,0,0,0,1.46.62,1.75,1.75,0,0,0,1.43-.6,2.61,2.61,0,0,0,.51-1.72,2.65,2.65,0,0,0-.51-1.74A1.75,1.75,0,0,0,241.9,39Z" fill="#1e1e1e"/>
      <path d="M254.82,44.33h-1V40.88a2.57,2.57,0,0,0-.31-1.44,1.15,1.15,0,0,0-1-.44,1.28,1.28,0,0,0-1.05.56,2.12,2.12,0,0,0-.43,1.35v3.42h-1V40.76c0-1.17-.45-1.76-1.36-1.76a1.26,1.26,0,0,0-1.05.53,2.2,2.2,0,0,0-.41,1.38v3.42h-1v-6h1v1h0a2,2,0,0,1,1.86-1.09,1.71,1.71,0,0,1,1.07.34,1.75,1.75,0,0,1,.63.9,2.13,2.13,0,0,1,2-1.24c1.32,0,2,.81,2,2.44Z" fill="#1e1e1e"/>
    </g>
  </g>
</svg>
