<?xml version="1.0" encoding="utf-8"?>
<!-- Generator: Adobe Illustrator 17.1.0, SVG Export Plug-In . SVG Version: 6.00 Build 0)  -->
<!DOCTYPE svg PUBLIC "-//W3C//DTD SVG 1.1//EN" "http://www.w3.org/Graphics/SVG/1.1/DTD/svg11.dtd">
<svg version="1.1" id="Layer_1" xmlns="http://www.w3.org/2000/svg" xmlns:xlink="http://www.w3.org/1999/xlink" x="0px" y="0px"
	 height="30px" width="30px" viewBox="0 0 30 30" enable-background="new 0 0 30 30" xml:space="preserve">
<rect fill="#094AB1" width="30" height="30"/>
<g>
	<path fill="#FFFFFF" d="M11.6,22.2c-1.5-0.4-2.3-1.6-2.3-3.3c0-0.6,0-0.8,0.2-1.2
		c0.3-0.9,1.3-1.6,2.5-1.8c0.6-0.1,0.8-0.3,0.8-0.6c0-0.1,0.1-0.4,0.2-0.6c0.4-1.2,1.1-2.1,1.9-2.5c0.8-0.4,1.2-0.5,2.2-0.5
		c1.4,0,2.1,0.3,3.1,1.3l0.5,0.6l0.5-0.2c2.3-0.8,4.7,0.6,4.9,2.9L26,17l0.5,0.2c1.3,0.5,1.9,1.5,1.8,2.9c-0.1,1-0.5,1.7-1.2,2.1
		l-0.3,0.2l-7.4,0C13.7,22.3,11.9,22.3,11.6,22.2L11.6,22.2z"/>
	<path fill="#FFFFFF" d="M6,21.2c-0.9-0.2-1.8-1-2.2-1.9c-0.2-0.5-0.3-0.6-0.3-1.5
		c0-0.8,0-1,0.2-1.4C4.2,15.6,5,15,6,14.7c0.2-0.1,0.4-0.1,0.4-0.2c0-0.1,0.1-0.3,0.1-0.6c0.1-1.8,1.2-3.3,2.9-3.8
		c0.9-0.3,2-0.2,2.9,0.2c0.3,0.1,0.3,0.1,0.9-0.7c0.4-0.5,1.1-1.1,1.8-1.4c0.7-0.3,1.4-0.5,2.2-0.5c2.3,0,4.4,1.5,5.1,3.7
		c0.2,0.7,0.2,0.9-0.1,0.9c-0.1,0-0.5,0.1-0.8,0.2l-0.6,0.1l-0.5-0.5c-1.4-1.4-3.8-1.7-5.8-0.8c-0.8,0.4-1.4,1-1.9,1.7
		c-0.3,0.5-0.8,1.5-0.8,1.7c0,0.2-0.1,0.3-0.7,0.5c-1.8,0.6-2.9,2-2.9,3.8c0,0.7,0.2,1.4,0.4,1.9c0.1,0.2,0.1,0.3,0.1,0.4
		C8.6,21.3,6.3,21.3,6,21.2L6,21.2z"/>
</g>
</svg>
