<?xml version="1.0" encoding="iso-8859-1"?>
<!-- Generator: Adobe Illustrator 19.0.0, SVG Export Plug-In . SVG Version: 6.00 Build 0)  -->
<svg version="1.1" id="Layer_1" xmlns="http://www.w3.org/2000/svg" xmlns:xlink="http://www.w3.org/1999/xlink" x="0px" y="0px"
	 viewBox="0 0 512 512" style="enable-background:new 0 0 512 512;" xml:space="preserve">
<g>
	<path style="fill:#30C9B0;" d="M216.228,53.061c0,21.029-45.901,38.075-102.509,38.075C57.098,91.135,11.208,74.09,11.208,53.061
		s45.89-38.075,102.509-38.075C170.327,14.986,216.228,32.032,216.228,53.061z"/>
	<path style="fill:#30C9B0;" d="M216.228,53.061v240.365c0,21.029-45.901,38.076-102.509,38.076
		c-56.621-0.001-102.511-17.047-102.511-38.075V53.061c0,21.029,45.89,38.075,102.509,38.075
		C170.327,91.135,216.228,74.09,216.228,53.061z"/>
</g>
<path style="fill:#45CCFF;" d="M500.779,432.63c0.711,35.528-28.708,64.383-64.243,64.383H246.878
	c-23.993,0-44.074-19.036-44.416-43.026c-0.009-0.637-0.007-1.276,0.007-1.917c0.587-28.181,23.469-51.344,51.641-52.271
	c10.627-0.35,20.576,2.411,29.035,7.428c-0.243-2.457-0.365-4.938-0.365-7.457c0-42.552,34.499-77.05,77.05-77.05
	c32.419,0,60.166,20.035,71.54,48.403c2.08-0.207,4.184-0.316,6.314-0.316C472.104,370.807,500.093,398.372,500.779,432.63z"/>
<g>
	<path style="fill:#231F20;" d="M227.436,293.426V53.061c0-32.355-57.208-49.284-113.718-49.284S0,20.706,0,53.061v240.365
		c0,32.355,57.208,49.284,113.718,49.284S227.436,325.781,227.436,293.426z M205.02,114.566c0,2.759-4.749,9.741-22.72,16.417
		c-18.144,6.74-42.501,10.451-68.581,10.451c-26.085,0-50.442-3.711-68.584-10.451c-17.97-6.675-22.718-13.656-22.718-16.417v-30.92
		c21.831,12.351,56.696,18.699,91.301,18.699s69.471-6.347,91.301-18.699v30.92H205.02z M113.718,163.85
		c34.607,0,69.471-6.351,91.301-18.703v30.925c0,2.759-4.749,9.741-22.72,16.417c-18.144,6.74-42.501,10.451-68.581,10.451
		c-26.085,0-50.442-3.711-68.584-10.451c-17.969-6.673-22.717-13.656-22.717-16.416v-30.925
		C44.248,157.499,79.111,163.85,113.718,163.85z M22.416,206.653c21.831,12.353,56.695,18.703,91.301,18.703
		s69.471-6.351,91.301-18.703v30.925c0,2.759-4.749,9.741-22.72,16.417c-18.144,6.74-42.501,10.451-68.581,10.451
		c-26.085,0-50.442-3.711-68.584-10.451c-17.969-6.675-22.717-13.656-22.717-16.417V206.653z M45.133,36.644
		c18.143-6.74,42.499-10.451,68.584-10.451c26.08,0,50.437,3.711,68.581,10.451c17.972,6.676,22.72,13.657,22.72,16.417
		c0,2.759-4.749,9.741-22.72,16.417c-18.144,6.74-42.501,10.451-68.581,10.451c-26.085,0-50.442-3.711-68.584-10.451
		c-17.969-6.674-22.717-13.657-22.717-16.417C22.416,50.302,27.164,43.319,45.133,36.644z M22.416,293.426v-25.267
		c21.831,12.353,56.695,18.703,91.301,18.703s69.471-6.351,91.301-18.703v25.267c0,2.759-4.749,9.741-22.72,16.417
		c-18.144,6.74-42.501,10.451-68.581,10.451c-26.085,0-50.442-3.711-68.584-10.451C27.164,303.167,22.416,296.186,22.416,293.426z"
		/>
	<path style="fill:#231F20;" d="M489.733,380.873c-13.8-13.542-31.991-21.078-51.297-21.27c-15-29.461-45.044-48.09-78.608-48.09
		c-45.57,0-83.185,34.715-87.785,79.09c-5.933-1.525-12.086-2.207-18.303-2.004c-34.318,1.129-61.762,28.907-62.478,63.244
		c-0.016,0.772-0.018,1.543-0.007,2.306c0.425,29.817,25.378,54.075,55.623,54.075h189.657c20.295,0,40.077-8.308,54.276-22.792
		c14.051-14.335,21.571-33.166,21.175-53.023l0,0C511.594,412.873,503.691,394.571,489.733,380.873z M436.535,485.807H246.878
		c-18.06,0-32.958-14.345-33.209-31.983c-0.008-0.505-0.006-1.013,0.004-1.519c0.46-22.049,18.764-40.577,40.802-41.302
		c0.471-0.016,0.94-0.024,1.41-0.024c7.604,0,15.024,2.024,21.541,5.889c3.635,2.155,8.174,2.084,11.74-0.187
		s5.549-6.354,5.131-10.56c-0.206-2.076-0.31-4.212-0.31-6.349c0-36.306,29.537-65.842,65.842-65.842
		c27.063,0,51.062,16.237,61.136,41.365c1.856,4.629,6.548,7.474,11.513,6.982c30.335-3.011,56.5,20.837,57.094,50.578
		c0.276,13.786-4.971,26.884-14.771,36.883C464.645,480.099,451.055,485.807,436.535,485.807z"/>
	<path style="fill:#231F20;" d="M164.535,453.894c-28.695-19.76-50.422-48.792-61.179-81.748c-1.92-5.884-8.246-9.098-14.132-7.177
		c-5.884,1.92-9.098,8.248-7.177,14.132c12.274,37.604,37.054,70.722,69.776,93.255c1.941,1.336,4.155,1.978,6.347,1.978
		c3.563,0,7.067-1.696,9.241-4.853C170.921,464.385,169.633,457.406,164.535,453.894z"/>
	<path style="fill:#231F20;" d="M260.649,163.687c61.917,2.282,117.292,40.77,141.076,98.052c1.79,4.312,5.961,6.913,10.355,6.913
		c1.431,0,2.888-0.277,4.294-0.86c5.717-2.374,8.427-8.933,6.052-14.649c-27.131-65.347-90.308-109.254-160.954-111.858
		c-6.149-0.251-11.385,4.601-11.613,10.788C249.633,158.26,254.463,163.46,260.649,163.687z"/>
	<path style="fill:#231F20;" d="M420.713,282.775c-6.103,1.037-10.208,6.826-9.172,12.928c0.087,0.517,0.173,1.033,0.257,1.552
		c0.889,5.508,5.647,9.425,11.051,9.425c0.592,0,1.194-0.047,1.798-0.145c6.111-0.985,10.266-6.74,9.279-12.85
		c-0.093-0.581-0.189-1.16-0.288-1.738C432.604,285.844,426.811,281.738,420.713,282.775z"/>
</g>
<g>
</g>
<g>
</g>
<g>
</g>
<g>
</g>
<g>
</g>
<g>
</g>
<g>
</g>
<g>
</g>
<g>
</g>
<g>
</g>
<g>
</g>
<g>
</g>
<g>
</g>
<g>
</g>
<g>
</g>
</svg>
