<svg width="93" height="87" viewBox="0 0 93 87" fill="none" xmlns="http://www.w3.org/2000/svg">
<path fill-rule="evenodd" clip-rule="evenodd" d="M77.8781 61.7605L69.6022 56.9894L62.6982 67.0687L54.6685 65.0167L47.5984 74.4483L47.9608 77.4171L86.4015 71.2266L84.1688 50.2343L77.8781 61.7605ZM42.0292 52.7097L48.1967 51.9685C49.1946 52.3604 49.8893 52.5097 51.0858 52.7757C52.9492 53.2001 55.1065 53.6073 58.3012 52.2C59.0446 51.8781 60.5932 50.6404 61.2193 49.9348L86.4887 45.9282L89.0665 73.1964L45.7757 80.0154L42.0292 52.7097ZM88.9689 42.8842L86.4747 43.2995L81.6827 0.0274048L0.0313721 8.30248L10.0905 79.6489L19.6479 78.4366C18.8846 77.4842 17.6962 76.3317 15.6667 74.8564C12.8519 72.8125 13.8475 69.3411 15.5076 67.1489C17.7043 63.445 29.0228 58.7378 28.3815 52.8173C28.1515 50.6648 27.76 47.8624 25.4738 45.9424C25.3878 46.7395 25.5423 47.5071 25.5423 47.5071C25.5423 47.5071 24.6037 46.4602 24.1355 45.0327C23.6708 44.4854 23.3061 44.3107 22.8123 43.5797C22.4603 44.4255 22.5068 45.4063 22.5068 45.4063C22.5068 45.4063 21.7389 43.8203 21.6146 42.4821C21.1592 43.0812 21.0442 44.2194 21.0442 44.2194C21.0442 44.2194 20.0463 41.7196 20.274 40.3732C19.8186 39.2015 18.4687 36.8764 18.8509 31.5915C21.3428 33.1176 26.8283 32.7551 28.9659 30.0015C29.6757 29.0897 30.1613 26.6 28.6115 21.6949C27.616 18.5494 25.1508 13.8656 24.1901 12.0887L24.0751 12.1608C24.5816 13.5924 25.626 16.5938 26.0268 18.0488C27.2396 22.4625 27.5649 23.9987 26.9956 26.0335C26.5112 27.8022 25.3495 28.9597 22.4046 30.2533C19.4597 31.5509 15.5517 28.3932 15.3043 28.2185C12.443 26.2264 10.2299 22.9763 9.98251 21.3974C9.72577 19.6693 11.1221 18.6316 11.8261 17.2182C10.8189 17.47 9.69557 17.9168 9.69557 17.9168C9.69557 17.9168 11.0362 16.7045 12.6893 15.6556C13.3735 15.2596 13.7755 15.0078 14.4969 14.4839C13.4525 14.4687 12.6045 14.4951 12.6045 14.4951C12.6045 14.4951 14.3459 13.6727 16.1511 13.0736C14.8303 13.0228 13.5664 13.0655 13.5664 13.0655C13.5664 13.0655 17.4522 11.5465 20.5215 10.4317C22.6323 9.67523 24.6943 9.89861 25.8525 11.3627C27.3732 13.2807 28.9705 14.3225 32.3557 14.9682C34.434 14.1631 35.066 13.7488 37.6775 13.1274C39.9765 10.918 41.7818 10.6317 41.7818 10.6317C41.7818 10.6317 40.8861 11.3495 40.6468 12.4776C41.9502 11.58 43.3791 10.8307 43.3791 10.8307C43.3791 10.8307 42.8261 11.4277 42.3103 12.3761L42.43 12.5314C43.9507 11.7344 45.7385 11.1059 45.7385 11.1059C45.7385 11.1059 45.2274 11.6704 44.6279 12.4014C45.7745 12.3933 48.1003 12.4441 49.0029 12.5334C54.3316 12.636 55.4376 7.55925 57.4822 6.92263C60.0425 6.12355 61.1868 5.64024 65.5502 9.38586C69.2943 12.6015 72.2195 18.3575 70.7674 19.647C69.5499 20.7171 67.1475 19.2296 64.4849 16.3288C63.0781 14.7926 62.014 12.9771 61.5156 10.6693C61.095 8.72182 59.4582 7.59174 59.4582 7.59174C59.4582 7.59174 60.4085 9.43764 60.4085 11.0683C60.4085 11.9587 60.5363 15.2881 62.1696 17.1563C62.0081 17.4294 61.9326 18.5077 61.7537 18.7139C59.8532 16.7065 55.7721 15.2698 55.1065 14.8464C57.359 16.4598 62.5367 20.1658 64.5255 23.7175C66.4063 27.0762 65.2981 30.1548 66.2495 30.9518C66.5202 31.1803 70.2945 35.2904 71.0206 37.3556C72.2869 40.955 71.0961 44.7372 69.4384 47.0837L64.809 47.7142C64.1317 47.5497 63.6752 47.4675 63.0676 47.1598C63.4022 46.642 64.0678 45.3505 64.0748 45.0844L63.8134 44.6834C62.3729 46.4673 59.9589 48.1995 57.9538 49.1946C55.3295 50.4942 52.3045 50.2942 50.3354 49.7611C44.7464 48.2544 39.4618 44.9535 38.1875 44.0864C38.1875 44.0864 38.148 44.7788 38.3884 44.9342C39.7976 46.3232 43.0259 48.8362 46.1463 50.5876L39.4944 51.2273L42.6391 72.6288C41.2451 72.8034 41.0278 72.8887 39.5013 73.0786C38.1561 68.9248 35.5829 66.2128 32.7704 64.6329C30.2902 63.2399 26.869 62.9261 23.5942 63.4927L23.3839 63.7059C25.6608 63.4988 28.349 63.7871 31.1104 65.3152C33.8206 66.8129 36.0046 70.6813 36.8085 73.0105C37.8378 75.9875 38.5499 79.1717 35.7792 82.5467C33.8078 84.9459 28.0528 86.272 23.4036 83.4036C24.6455 85.149 26.3242 86.5766 28.5837 86.8457C31.9387 87.2437 35.1229 86.735 37.315 84.7683C39.1865 83.0868 40.1786 79.5707 39.9172 75.8677L42.8784 75.4921L43.9472 82.1385L92.9686 76.9795L88.9689 42.8842ZM59.1445 24.8344C59.0075 25.1075 58.7926 25.2862 59.1155 26.1746L59.1353 26.2254L59.1864 26.3401L59.3211 26.6061C59.9031 27.6459 60.5421 28.6267 61.6097 29.1272C61.8862 29.0866 62.1719 29.0592 62.4682 29.046C63.4707 29.0074 64.1039 29.1465 64.5058 29.3354C64.5418 29.1608 64.5499 28.9049 64.5279 28.5282C64.45 27.2113 64.8264 24.9714 61.9303 23.7926C60.8371 23.3489 59.3037 23.486 58.7926 24.0393C58.8855 24.0495 58.9691 24.0668 59.0342 24.0861C59.8067 24.3226 59.2828 24.5551 59.1445 24.8344ZM67.2614 37.1221C66.8815 36.9393 65.1064 37.0114 63.8587 37.1414C61.4819 37.3861 58.9157 38.107 58.3534 38.4908C57.3311 39.1812 57.7958 40.3854 58.5509 40.8799C60.6687 42.2628 62.5251 43.1898 64.4849 42.9644C65.6884 42.8263 66.749 41.1611 67.5007 39.6503C68.0153 38.6096 68.0153 37.4866 67.2614 37.1221ZM46.2183 26.465C46.8886 25.9086 42.8796 25.1776 39.7685 27.0316C37.4742 28.3992 37.401 31.3316 39.5978 32.9937C39.8173 33.1582 39.9985 33.2749 40.1682 33.3704C40.8094 33.1064 41.5401 32.8394 42.3812 32.6007C43.802 32.1977 44.9834 31.9895 45.9546 31.8788C46.4193 31.425 46.9595 30.6259 46.8247 29.179C46.6412 27.2164 44.9393 27.5281 46.2183 26.465Z" fill="#632CA6"/>
</svg>
