<?xml version="1.0" encoding="UTF-8"?><svg id="Logo" xmlns="http://www.w3.org/2000/svg" viewBox="0 0 216.31 53.12"><defs><style>.cls-1{fill:#373737;}.cls-1,.cls-2,.cls-3,.cls-4,.cls-5{stroke-width:0px;}.cls-2{fill:#e23400;}.cls-3{fill:#ff7d00;}.cls-4{fill:#ff4d00;}.cls-5{fill:#001aff;}</style></defs><polygon class="cls-4" points="23.86 30.9 39.84 39.84 40.44 33.05 36 28.32 29.45 27.24 23.86 30.9"/><polygon class="cls-3" points="26.56 0 39.84 39.84 53.12 26.56 26.56 0"/><polygon class="cls-5" points="24.42 21.1 23.86 30.9 44.27 26.56 24.42 21.1"/><polygon class="cls-2" points="0 26.56 0 26.56 14.18 40.74 16.82 37.2 16.35 32.95 9.84 28.73 0 26.56"/><polygon class="cls-4" points="25.12 1.44 0 26.56 16.35 32.95 25.12 1.44"/><polygon class="cls-3" points="16.35 32.95 14.18 40.74 26.56 53.12 38.19 41.49 16.35 32.95"/><polygon class="cls-1" points="70.79 34.13 68.31 34.13 68.31 14.04 70.79 12.59 70.79 34.13"/><polygon class="cls-1" points="181.97 16.23 179.42 16.23 179.42 14.26 179.42 13.57 181.97 13.57 181.97 16.23"/><path class="cls-1" d="M81.9,18.64c-1.99,0-3.57.85-4.71,2.52v-2.2h-2.43v15.18h2.43v-8.67c0-2.65,1.69-4.5,4.1-4.5s3.77,1.62,3.77,4.33v8.84h2.43v-9.39c0-1.8-.51-3.32-1.47-4.41-.99-1.11-2.42-1.7-4.12-1.7Z"/><path class="cls-1" d="M106.86,18.64c-2.09,0-4.01.84-5.43,2.36-1.38,1.48-2.14,3.46-2.14,5.56v.06c0,4.41,3.3,7.86,7.52,7.86,2.09,0,4.02-.84,5.44-2.36,1.39-1.49,2.16-3.46,2.16-5.56v-.06c0-4.41-3.31-7.86-7.55-7.86ZM111.93,26.56v.06c0,3.17-2.18,5.56-5.06,5.56s-5.09-2.47-5.09-5.62v-.06c0-3.19,2.16-5.59,5.04-5.59s5.12,2.48,5.12,5.65Z"/><path class="cls-1" d="M119.8,22.29v-3.33h-2.43v15.18h2.43v-6.08c0-4.04,2.15-6.76,5.47-6.76h.32v-2.59h-.15c-2.35-.11-4.42,1.22-5.65,3.59Z"/><path class="cls-1" d="M144.36,18.64c-2.1,0-3.73.92-4.98,2.8-.93-1.81-2.55-2.8-4.58-2.8-2.28,0-3.57,1.23-4.43,2.46v-2.14h-2.43v15.18h2.43v-8.64c0-2.62,1.6-4.53,3.8-4.53s3.5,1.6,3.5,4.27v8.9h2.43v-8.72c0-1.35.38-2.49,1.11-3.29.67-.74,1.61-1.15,2.64-1.15,2.24,0,3.52,1.58,3.52,4.33v8.84h2.43v-9.36c0-3.79-2.08-6.14-5.43-6.14Z"/><path class="cls-1" d="M176.47,21.23v-2.27h-4.56v-5.28l-2.43,1.42v3.87h-2.64v2.27h2.64v8.81c0,3.79,2.61,4.35,4.17,4.35.98,0,1.81-.21,2.63-.65l.08-.04v-2.24l-.23.11c-.71.36-1.28.5-1.99.5-1.5,0-2.23-.76-2.23-2.32v-8.53h4.56Z"/><path class="cls-1" d="M196.64,30.02c-1.29,1.45-2.68,2.16-4.22,2.16-2.84,0-5.06-2.47-5.06-5.62v-.06c0-3.14,2.16-5.59,4.93-5.59,1.93,0,3.16,1.05,4.2,2.19l.12.13,1.61-1.79-.09-.1c-1.13-1.26-2.81-2.7-5.8-2.7-2.03,0-3.91.84-5.31,2.36-1.37,1.49-2.13,3.47-2.13,5.56v.06c0,2.08.76,4.04,2.13,5.52,1.4,1.51,3.28,2.34,5.31,2.34,3.02,0,4.75-1.57,5.92-2.93l.1-.11-1.57-1.54-.11.12Z"/><path class="cls-1" d="M159.03,18.64c-2.3,0-3.94.63-5.23,1.25l-.13.06.74,2.11.16-.08c1.17-.56,2.49-1.08,4.25-1.08,2.61,0,4.1,1.2,4.1,3.96h-4.24c-3.96,0-6.23,1.73-6.23,4.74v.06c0,3.14,2.75,4.79,5.46,4.79,2.49,0,4.08-1.16,5.01-2.26v1.95s2.32,0,2.32,0v-9.24c0-1.91-.5-3.52-1.5-4.56-1.07-1.12-2.65-1.69-4.7-1.69ZM162.91,26.82v1.69c0,2.21-1.98,3.87-4.6,3.87-2.35,0-3.41-1.45-3.41-2.8v-.06c0-1.23.69-2.7,3.99-2.7h4.02Z"/><path class="cls-1" d="M94.36,17.54c0-2.18.56-3,2.29-3,.67,0,1.2.12,2.01.37l.15.04v-2.25l-.05-.02c-.72-.27-1.42-.38-2.39-.38-1.32,0-2.41.41-3.16,1.2-.84.88-1.28,2.23-1.28,3.93v1.53h-2.64v2.27h2.64v12.91h2.43v-12.91h4.56v-2.27h-4.56v-1.41Z"/><polygon class="cls-1" points="181.91 34.13 179.48 34.13 179.48 20.57 179.48 18.96 181.91 18.96 181.91 34.13"/><path class="cls-1" d="M206.4,18.64c-2.3,0-3.94.63-5.23,1.25l-.13.06.74,2.11.16-.08c1.17-.56,2.49-1.08,4.25-1.08,2.61,0,4.1,1.2,4.1,3.96h-4.24c-3.96,0-6.23,1.73-6.23,4.74v.06c0,3.14,2.75,4.79,5.46,4.79,2.49,0,4.08-1.16,5.01-2.26v1.95s2.32,0,2.32,0v-9.24c0-1.91-.5-3.52-1.5-4.56-1.07-1.12-2.65-1.69-4.7-1.69ZM210.28,26.82v1.69c0,2.21-1.98,3.87-4.6,3.87-2.35,0-3.42-1.45-3.42-2.8v-.06c0-1.23.69-2.7,3.99-2.7h4.02Z"/><path class="cls-1" d="M213.49,20.31c0-.27.06-.52.19-.74s.3-.41.51-.54.46-.2.71-.2.49.07.71.2.39.31.51.54.19.48.19.74-.06.5-.18.73-.29.41-.51.55-.46.21-.72.21-.5-.07-.72-.21-.39-.32-.51-.55-.18-.47-.18-.74ZM213.72,20.31c0,.23.05.44.16.63s.25.35.43.46c.18.11.38.16.59.16s.41-.06.59-.17.33-.26.43-.46.16-.4.16-.63-.05-.43-.16-.63-.25-.34-.43-.45c-.18-.11-.38-.17-.59-.17s-.41.05-.59.16c-.18.11-.33.26-.43.45s-.16.4-.16.63ZM214.61,20.46v.67h-.28v-1.69h.55c.2,0,.36.04.47.13s.17.21.17.38-.08.29-.25.37c.16.07.24.2.24.4v.12c0,.11.01.2.03.25v.03h-.29s-.03-.13-.03-.26,0-.19,0-.22c-.02-.13-.11-.19-.26-.2h-.35ZM214.61,20.2h.31c.1,0,.17-.03.23-.07s.09-.1.09-.17c0-.1-.03-.16-.08-.2s-.14-.06-.28-.06h-.27v.51Z"/></svg>