<svg width="300" height="300" viewBox="0 0 300 300" fill="none" xmlns="http://www.w3.org/2000/svg">
<path fill-rule="evenodd" clip-rule="evenodd" d="M0 51.7241C0 23.1577 23.1577 0 51.7241 0H248.276C276.842 0 300 23.1577 300 51.7241V218.891C300 248.445 262.602 261.271 244.464 237.938L187.759 164.994V253.448C187.759 279.158 166.917 300 141.207 300H51.7241C23.1577 300 0 276.842 0 248.276V51.7241ZM51.7241 41.3793C46.0108 41.3793 41.3793 46.0108 41.3793 51.7241V248.276C41.3793 253.989 46.0108 258.621 51.7241 258.621H142.759C145.615 258.621 146.379 256.305 146.379 253.448V134.831C146.379 105.277 183.777 92.4508 201.916 115.784L258.621 188.728V51.7241C258.621 46.0108 259.162 41.3793 253.448 41.3793H51.7241Z" fill="#00E0D9"/>
<path fill-rule="evenodd" clip-rule="evenodd" d="M0 51.7241C0 23.1577 23.1577 0 51.7241 0H248.276C276.842 0 300 23.1577 300 51.7241V218.891C300 248.445 262.602 261.271 244.464 237.938L187.759 164.994V253.448C187.759 279.158 166.917 300 141.207 300H51.7241C23.1577 300 0 276.842 0 248.276V51.7241ZM51.7241 41.3793C46.0108 41.3793 41.3793 46.0108 41.3793 51.7241V248.276C41.3793 253.989 46.0108 258.621 51.7241 258.621H142.759C145.615 258.621 146.379 256.305 146.379 253.448V134.831C146.379 105.277 183.777 92.4508 201.916 115.784L258.621 188.728V51.7241C258.621 46.0108 259.162 41.3793 253.448 41.3793H51.7241Z" fill="url(#paint0_linear_16993_7267)"/>
<path fill-rule="evenodd" clip-rule="evenodd" d="M0 51.7241C0 23.1577 23.1577 0 51.7241 0H248.276C276.842 0 300 23.1577 300 51.7241V218.891C300 248.445 262.602 261.271 244.464 237.938L187.759 164.994V253.448C187.759 279.158 166.917 300 141.207 300H51.7241C23.1577 300 0 276.842 0 248.276V51.7241ZM51.7241 41.3793C46.0108 41.3793 41.3793 46.0108 41.3793 51.7241V248.276C41.3793 253.989 46.0108 258.621 51.7241 258.621H142.759C145.615 258.621 146.379 256.305 146.379 253.448V134.831C146.379 105.277 183.777 92.4508 201.916 115.784L258.621 188.728V51.7241C258.621 46.0108 259.162 41.3793 253.448 41.3793H51.7241Z" fill="url(#paint1_linear_16993_7267)" fill-opacity="0.4"/>
<path d="M248.275 0C276.842 0 299.999 23.1577 299.999 51.7241V218.891C299.999 248.445 262.601 261.271 244.463 237.938L187.758 164.994V253.448C187.758 279.158 166.916 300 141.206 300C144.063 300 146.379 297.684 146.379 294.828V134.831C146.379 105.277 183.777 92.4508 201.915 115.784L258.62 188.728V10.3448C258.62 4.63154 253.988 0 248.275 0Z" fill="#63F655"/>
<defs>
<linearGradient id="paint0_linear_16993_7267" x1="300" y1="300" x2="36.207" y2="0.000100277" gradientUnits="userSpaceOnUse">
<stop stop-color="#62F755"/>
<stop offset="1" stop-color="#8FF986" stop-opacity="0"/>
</linearGradient>
<linearGradient id="paint1_linear_16993_7267" x1="300" y1="300" x2="121.81" y2="230.69" gradientUnits="userSpaceOnUse">
<stop stop-opacity="0.9"/>
<stop offset="1" stop-color="#1A1A1A" stop-opacity="0"/>
</linearGradient>
</defs>
</svg>
