<?xml version="1.0" encoding="iso-8859-1"?>
<!-- Generator: Adobe Illustrator 19.0.0, SVG Export Plug-In . SVG Version: 6.00 Build 0)  -->
<svg version="1.1" id="Layer_1" xmlns="http://www.w3.org/2000/svg" xmlns:xlink="http://www.w3.org/1999/xlink" x="0px" y="0px"
	 viewBox="0 0 290.626 290.626" style="enable-background:new 0 0 290.626 290.626;" xml:space="preserve">
<g>
	<g>
		<polygon style="fill:#F9BA48;" points="131.25,196.875 56.25,196.875 56.25,253.125 150,253.125 150,196.875 140.625,196.875 		
			"/>
		<polygon style="fill:#F9BA48;" points="131.25,18.75 56.25,18.75 56.25,75 150,75 150,18.75 140.625,18.75 		"/>
		<path style="fill:#333333;" d="M276.562,112.5h-65.625c0-7.753-6.309-14.063-14.062-14.063s-14.063,6.309-14.063,14.063v18.75h-75
			V112.5h28.125v-9.375h-9.375V93.75h28.125c7.753,0,14.062-6.309,14.062-14.063V14.063C168.75,6.309,162.441,0,154.688,0H51.563
			C43.809,0,37.5,6.309,37.5,14.063v65.625c0,7.753,6.309,14.063,14.062,14.063h28.125v9.375h-9.375v9.375h28.125v18.75h-55.49
			l-14.522-4.842L0,132.094v26.433l28.425,5.686l14.522-4.838h55.491v18.75H51.563c-7.753,0-14.062,6.309-14.062,14.063v65.625
			c0,7.753,6.309,14.063,14.062,14.063h28.125v9.375h-9.375v9.375h65.625v-9.375h-9.375v-9.375h28.125
			c7.753,0,14.062-6.309,14.062-14.063v-65.625c0-7.753-6.309-14.063-14.062-14.063h-46.875v-18.75h75v18.75
			c0,7.753,6.309,14.063,14.063,14.063s14.062-6.309,14.062-14.063h65.625c7.753,0,14.063-6.309,14.063-14.063v-37.5
			C290.625,118.809,284.316,112.5,276.562,112.5z M46.875,79.688V14.063c0-2.583,2.105-4.688,4.687-4.688h103.125
			c2.583,0,4.687,2.105,4.687,4.688v65.625c0,2.583-2.105,4.688-4.687,4.688H51.563C48.98,84.375,46.875,82.27,46.875,79.688z
			 M89.063,93.75h28.125v9.375H89.063V93.75z M117.188,281.25H89.063v-9.375h28.125V281.25z M159.375,192.188v65.625
			c0,2.587-2.105,4.688-4.687,4.688H51.563c-2.583,0-4.687-2.1-4.687-4.688v-65.625c0-2.587,2.105-4.688,4.687-4.688h103.125
			C157.27,187.5,159.375,189.6,159.375,192.188z M41.428,150l-13.603,4.537l-18.45-3.689v-11.067l18.45-3.689l13.603,4.533h141.384
			V150H41.428z M196.875,182.813c-2.583,0-4.688-2.1-4.688-4.688v-18.75V131.25V112.5c0-2.583,2.105-4.688,4.688-4.688
			s4.688,2.105,4.688,4.688v65.625C201.562,180.712,199.458,182.813,196.875,182.813z M281.25,164.063
			c0,2.587-2.105,4.688-4.688,4.688h-65.625v-9.375h60.937V150h-60.937v-9.375h60.937v-9.375h-60.937v-9.375h65.625
			c2.583,0,4.688,2.105,4.688,4.688V164.063z"/>
	</g>
</g>
<g>
</g>
<g>
</g>
<g>
</g>
<g>
</g>
<g>
</g>
<g>
</g>
<g>
</g>
<g>
</g>
<g>
</g>
<g>
</g>
<g>
</g>
<g>
</g>
<g>
</g>
<g>
</g>
<g>
</g>
</svg>
