<svg xmlns="http://www.w3.org/2000/svg" xmlns:xlink="http://www.w3.org/1999/xlink" id="Layer_1" x="0px" y="0px" viewBox="0 0 1920 1000" style="enable-background:new 0 0 1920 1000;" xml:space="preserve">
<style type="text/css">
	.st0{fill:#105270;}
	.st1{fill:#FFFFFF;}
	.st2{fill:url(#SVGID_1_);}
	.st3{fill:url(#SVGID_2_);}
	.st4{fill:url(#SVGID_3_);}
	.st5{fill:url(#SVGID_4_);}
	.st6{fill:#00A694;}
	.st7{fill:#1A3040;}
</style>
<path class="st0" d="M1850,1000H70c-16.6,0-30-13.4-30-30V670c0-16.6,13.4-30,30-30h1780c16.6,0,30,13.4,30,30v300  C1880,986.6,1866.6,1000,1850,1000z"></path>
<path class="st0" d="M1850,360H70c-16.6,0-30-13.4-30-30V30C40,13.4,53.4,0,70,0h1780c16.6,0,30,13.4,30,30v300  C1880,346.6,1866.6,360,1850,360z"></path>
<rect x="80" y="240" class="st1" width="1760" height="80"></rect>
<rect x="80" y="880" class="st1" width="1760" height="80"></rect>
<g id="Azure_Purview_-_Vector">
	<linearGradient id="SVGID_1_" gradientUnits="userSpaceOnUse" x1="1118.772" y1="75.2241" x2="1118.772" y2="47.0604">
		<stop offset="5.561519e-04" style="stop-color:#2ABBDF"></stop>
		<stop offset="0.5038" style="stop-color:#3BCFEE"></stop>
		<stop offset="1" style="stop-color:#50E6FE"></stop>
	</linearGradient>
	<path class="st2" d="M1130.2,58.6c-1.5,0-3-0.3-4.4-0.9c-1.4-0.6-2.7-1.4-3.7-2.5c-1.1-1.1-1.9-2.3-2.5-3.7   c-0.6-1.4-0.9-2.9-0.9-4.4c-1.9,0-3.8,0.4-5.6,1.2c-1.8,0.8-3.3,1.9-4.6,3.3c-1.3,1.4-2.3,3.1-2.9,4.9c-0.6,1.8-0.9,3.7-0.7,5.7   c0.1,1.9,0.7,3.8,1.6,5.5c0.9,1.7,2.1,3.2,3.6,4.4c1.5,1.2,3.2,2.1,5.1,2.6c1.9,0.5,3.8,0.6,5.7,0.4c1.9-0.3,3.7-0.9,5.4-1.9   c1.7-1,3.1-2.3,4.2-3.9c1.1-1.6,1.9-3.3,2.3-5.2c0.4-1.9,0.4-3.8,0-5.7C1131.8,58.5,1131,58.6,1130.2,58.6"></path>
	<linearGradient id="SVGID_2_" gradientUnits="userSpaceOnUse" x1="1100.7638" y1="100" x2="1100.7638" y2="43.3639">
		<stop offset="5.561519e-04" style="stop-color:#32BEDD"></stop>
		<stop offset="0.5035" style="stop-color:#46D9F4"></stop>
		<stop offset="1" style="stop-color:#88EBFF"></stop>
	</linearGradient>
	<path class="st3" d="M1146.4,75.9c-0.5-5.1-2.1-9.9-4.7-14.4c-0.1,1.4-0.3,2.9-0.7,4.3c-0.4,1.4-0.8,2.8-1.4,4.1   c-0.6,1.3-1.3,2.5-2.2,3.7c-0.8,1.2-1.8,2.2-2.8,3.2c-1.1,1-2.2,1.9-3.4,2.6c-1.2,0.8-2.5,1.4-3.8,2c-1.3,0.5-2.7,0.9-4.1,1.2   c-1.4,0.3-2.8,0.4-4.3,0.4c-0.5,0-1.1-0.1-1.6-0.2c-6-0.1-11.9-1.3-17.5-3.5c-5.6-2.3-10.6-5.5-15-9.7   c-7.6-7.4-13.1-16.1-16.2-26.2c-4.1,3.7-8,7.7-11.7,11.9c-0.7,0.6-1.2,1.3-1.5,2.2c-0.4,0.8-0.5,1.7-0.5,2.6c0,0.9,0.2,1.8,0.5,2.6   c0.4,0.8,0.9,1.5,1.5,2.2c7.9,9.5,17.1,17.6,27.5,24.3c10.7,7.3,22.4,11,35.4,11c8.3,0,16.2-1.8,23.6-5.6c0.5-0.2,0.9-0.5,1.3-0.7   C1146.4,87.9,1147,81.9,1146.4,75.9"></path>
	<linearGradient id="SVGID_3_" gradientUnits="userSpaceOnUse" x1="1108.0045" y1="70.6838" x2="1108.0045" y2="20">
		<stop offset="0" style="stop-color:#0078D4"></stop>
		<stop offset="0.5035" style="stop-color:#087BD6"></stop>
		<stop offset="1" style="stop-color:#3890E4"></stop>
	</linearGradient>
	<path class="st4" d="M1098.7,70.7c-1.2-2.2-2-4.5-2.4-6.9c-0.4-2.4-0.4-4.9-0.1-7.3c0.4-2.4,1.1-4.8,2.3-7c1.1-2.2,2.6-4.2,4.4-5.9   c5.9-8,13.6-13.4,23.1-16.4c5.1-1.5,10.2-2.4,15.5-2.4c-4.2-1.8-8.7-3.2-13.2-4c-6.2-1.1-12.4-1.1-18.7,0c-6.2,1-12.1,3-17.7,6   c-6.2,3.2-12.1,7.1-17.5,11.5c2.6,9.9,7.6,18.5,14.9,25.7C1092.2,66.7,1095.3,68.9,1098.7,70.7"></path>
	<linearGradient id="SVGID_4_" gradientUnits="userSpaceOnUse" x1="1151.866" y1="89.1424" x2="1151.866" y2="31.7737">
		<stop offset="0" style="stop-color:#0066B5"></stop>
		<stop offset="0.5035" style="stop-color:#1D84DC"></stop>
		<stop offset="1" style="stop-color:#5EA0EF"></stop>
	</linearGradient>
	<path class="st5" d="M1181.1,55.6c-7-8.4-15-15.7-23.9-21.9c-9.5-2.6-18.9-2.5-28.4,0.1c-2.8,0.9-5.5,2-8,3.4   c4,0.3,7.7,1.6,11.1,3.8c0.3,0.1,0.6,0.2,0.8,0.4c5.5,3.7,10.1,8.4,13.7,14c3.6,5.6,5.9,11.7,6.9,18.3c0.7,5.1,0.6,10.3-0.2,15.4   c10.6-6.7,19.9-14.9,28-24.6c0.6-0.6,1.1-1.3,1.4-2c0.3-0.8,0.5-1.6,0.5-2.4c0-0.9-0.1-1.7-0.5-2.4   C1182.1,56.9,1181.7,56.2,1181.1,55.6"></path>
</g>
<g id="Full_Color_Logo">
	<path id="Wordmark_1_" class="st1" d="M1059,702.9v14.1h-3v-34.5h12c1.9,0,3.6,0.3,5.1,0.8c1.5,0.5,2.7,1.2,3.7,2.1   c1,0.9,1.8,2,2.3,3.3c0.5,1.3,0.8,2.7,0.8,4.2c0,1.6-0.3,3-0.8,4.3c-0.5,1.3-1.3,2.3-2.2,3.2c-1,0.9-2.2,1.5-3.7,2   c-1.5,0.5-3.2,0.7-5.1,0.7H1059z M1059,700.4h9c1.6,0,2.9-0.2,4-0.6c1.1-0.4,2-0.9,2.8-1.6c0.7-0.7,1.2-1.5,1.6-2.4   c0.3-0.9,0.5-1.9,0.5-3c0-1.1-0.2-2.1-0.5-3c-0.3-1-0.9-1.8-1.6-2.5c-0.7-0.7-1.6-1.3-2.8-1.7c-1.1-0.4-2.5-0.6-4-0.6h-9V700.4z    M1096.9,693.7c-0.6-0.1-1.3-0.2-2-0.2c-1,0-1.9,0.1-2.7,0.4c-0.8,0.3-1.5,0.7-2.1,1.2c-0.6,0.5-1.1,1.1-1.5,1.8s-0.7,1.5-1,2.3   v17.6h-2.9v-25.7h2.8l0,4.1c0.7-1.4,1.7-2.5,2.9-3.3c1.2-0.8,2.7-1.2,4.5-1.2c0.4,0,0.7,0,1.1,0.1c0.4,0.1,0.6,0.1,0.8,0.2   L1096.9,693.7z M1098.5,703.7c0-1.9,0.3-3.6,0.8-5.2c0.6-1.6,1.3-2.9,2.4-4.1c1-1.1,2.2-2,3.7-2.7c1.4-0.6,3-1,4.8-1   c1.8,0,3.4,0.3,4.8,1c1.4,0.6,2.7,1.5,3.7,2.7c1,1.1,1.8,2.5,2.3,4.1c0.5,1.6,0.8,3.3,0.8,5.2v0.8c0,1.9-0.3,3.6-0.8,5.2   c-0.5,1.6-1.3,2.9-2.3,4.1c-1,1.1-2.2,2-3.7,2.7c-1.4,0.6-3,1-4.8,1c-1.8,0-3.4-0.3-4.8-1c-1.4-0.6-2.7-1.5-3.7-2.7   c-1-1.1-1.8-2.5-2.4-4.1c-0.6-1.6-0.8-3.3-0.8-5.2V703.7z M1101.4,704.5c0,1.4,0.2,2.7,0.6,4c0.4,1.3,0.9,2.4,1.7,3.3   c0.7,1,1.7,1.7,2.8,2.3c1.1,0.6,2.3,0.9,3.8,0.9c1.4,0,2.7-0.3,3.8-0.9c1.1-0.6,2-1.3,2.7-2.3c0.7-1,1.3-2.1,1.7-3.3   c0.4-1.3,0.6-2.6,0.6-4v-0.8c0-1.4-0.2-2.7-0.6-4c-0.4-1.3-0.9-2.4-1.7-3.4c-0.7-1-1.7-1.7-2.8-2.3c-1.1-0.6-2.4-0.9-3.8-0.9   c-1.4,0-2.6,0.3-3.7,0.9c-1.1,0.6-2,1.3-2.7,2.3c-0.7,1-1.3,2.1-1.7,3.4c-0.4,1.3-0.6,2.6-0.6,4V704.5z M1128.3,716.9v-23.3h-4.3   v-2.3h4.3v-2.7c0-1.4,0.2-2.6,0.6-3.7c0.4-1.1,1-2,1.7-2.7c0.7-0.7,1.7-1.3,2.7-1.6c1.1-0.4,2.3-0.6,3.6-0.6c2.2,0,4.4,0.5,6.7,1.4   l-0.5,2.4c-0.9-0.4-1.7-0.7-2.7-0.9c-0.9-0.2-2-0.4-3.3-0.4c-2,0-3.5,0.5-4.5,1.5c-1,1-1.5,2.5-1.5,4.4v2.7h6.1v2.3h-6.1v23.3   H1128.3z M1145.2,716.9h-2.9v-25.7h2.9V716.9z M1167.8,710.4c0-0.5-0.1-1-0.3-1.6c-0.2-0.5-0.5-1-1-1.5c-0.5-0.5-1.2-0.9-2.1-1.3   c-0.9-0.4-2.1-0.8-3.5-1.1c-1.4-0.3-2.7-0.6-3.9-1c-1.1-0.4-2.1-0.9-2.9-1.4c-0.8-0.6-1.4-1.2-1.8-2c-0.4-0.8-0.6-1.7-0.6-2.7   c0-0.9,0.2-1.8,0.6-2.7c0.4-0.9,1-1.6,1.8-2.2c0.8-0.6,1.8-1.1,2.9-1.5c1.1-0.4,2.4-0.6,3.8-0.6c1.5,0,2.9,0.2,4.1,0.6   c1.2,0.4,2.2,0.9,3,1.6c0.8,0.7,1.5,1.5,1.9,2.4c0.4,0.9,0.7,1.9,0.7,3h-2.9c0-0.7-0.1-1.3-0.4-1.9c-0.3-0.6-0.7-1.2-1.3-1.7   c-0.6-0.5-1.3-0.9-2.1-1.2c-0.8-0.3-1.8-0.5-2.9-0.5c-1.1,0-2.1,0.1-2.9,0.4c-0.8,0.3-1.4,0.6-2,1c-0.5,0.4-0.9,0.9-1.1,1.4   c-0.2,0.5-0.4,1.1-0.4,1.6c0,0.6,0.1,1.1,0.3,1.6c0.2,0.5,0.5,0.9,1,1.3s1.2,0.8,2.1,1.1c0.9,0.3,2.1,0.7,3.6,1   c1.6,0.4,2.9,0.8,4.1,1.2c1.1,0.4,2.1,1,2.8,1.6c0.7,0.6,1.3,1.3,1.7,2.1c0.4,0.8,0.5,1.7,0.5,2.7c0,1.1-0.2,2-0.7,2.9   c-0.5,0.9-1.1,1.6-1.9,2.3c-0.8,0.6-1.9,1.1-3,1.5c-1.2,0.3-2.5,0.5-4,0.5c-1.7,0-3.1-0.2-4.4-0.6c-1.3-0.4-2.3-1-3.2-1.7   c-0.9-0.7-1.5-1.5-2-2.5c-0.4-0.9-0.7-1.9-0.7-2.9h2.9c0.1,1,0.3,1.9,0.8,2.5c0.5,0.7,1,1.2,1.7,1.6c0.7,0.4,1.5,0.7,2.3,0.9   c0.8,0.2,1.7,0.3,2.5,0.3c1.1,0,2.1-0.1,2.9-0.4c0.8-0.3,1.5-0.6,2.1-1c0.6-0.4,1-0.9,1.3-1.5   C1167.7,711.6,1167.8,711,1167.8,710.4z M1186.4,717.4c-1.7,0-3.3-0.3-4.7-0.9c-1.4-0.6-2.7-1.5-3.7-2.6c-1-1.1-1.8-2.4-2.4-4   c-0.6-1.5-0.9-3.2-0.9-5.1v-1c0-2,0.3-3.8,0.9-5.4c0.6-1.6,1.4-3,2.5-4.1c1-1.1,2.2-2,3.6-2.6c1.3-0.6,2.8-0.9,4.3-0.9   c1.7,0,3.1,0.3,4.4,0.9c1.3,0.6,2.4,1.4,3.2,2.4c0.9,1,1.5,2.3,2,3.7c0.4,1.4,0.7,3,0.7,4.7v1.7h-18.6v0.5c0,1.4,0.2,2.7,0.7,4   c0.4,1.2,1,2.3,1.8,3.2c0.8,0.9,1.7,1.6,2.8,2.2c1.1,0.5,2.3,0.8,3.6,0.8c1.5,0,2.9-0.3,4.1-0.8c1.2-0.6,2.3-1.4,3.2-2.7l1.8,1.4   c-0.4,0.6-0.9,1.2-1.5,1.8c-0.6,0.6-1.2,1-2,1.4c-0.8,0.4-1.6,0.7-2.6,1C1188.7,717.3,1187.6,717.4,1186.4,717.4z M1185.9,693.2   c-1.1,0-2.1,0.2-3,0.6c-0.9,0.4-1.8,1-2.5,1.8c-0.7,0.8-1.3,1.7-1.8,2.7c-0.5,1.1-0.8,2.2-0.9,3.5h15.7v-0.3c0-1.1-0.2-2.1-0.5-3.1   c-0.3-1-0.8-1.9-1.4-2.7c-0.6-0.8-1.4-1.4-2.3-1.9C1188.2,693.4,1187.1,693.2,1185.9,693.2z M1212.9,717.4c-1.7,0-3.3-0.3-4.7-0.9   c-1.4-0.6-2.7-1.5-3.7-2.6c-1-1.1-1.8-2.4-2.4-4c-0.6-1.5-0.9-3.2-0.9-5.1v-1c0-2,0.3-3.8,0.9-5.4c0.6-1.6,1.4-3,2.5-4.1   c1-1.1,2.2-2,3.6-2.6c1.3-0.6,2.8-0.9,4.3-0.9c1.7,0,3.1,0.3,4.4,0.9c1.3,0.6,2.4,1.4,3.2,2.4c0.9,1,1.5,2.3,2,3.7   c0.4,1.4,0.7,3,0.7,4.7v1.7H1204v0.5c0,1.4,0.2,2.7,0.7,4c0.4,1.2,1,2.3,1.8,3.2c0.8,0.9,1.7,1.6,2.8,2.2c1.1,0.5,2.3,0.8,3.6,0.8   c1.5,0,2.9-0.3,4.1-0.8c1.2-0.6,2.3-1.4,3.2-2.7l1.8,1.4c-0.4,0.6-0.9,1.2-1.5,1.8c-0.6,0.6-1.2,1-2,1.4c-0.8,0.4-1.6,0.7-2.6,1   C1215.1,717.3,1214,717.4,1212.9,717.4z M1212.3,693.2c-1.1,0-2.1,0.2-3,0.6c-0.9,0.4-1.8,1-2.5,1.8c-0.7,0.8-1.3,1.7-1.8,2.7   c-0.5,1.1-0.8,2.2-0.9,3.5h15.7v-0.3c0-1.1-0.2-2.1-0.5-3.1c-0.3-1-0.8-1.9-1.4-2.7c-0.6-0.8-1.4-1.4-2.3-1.9   C1214.6,693.4,1213.6,693.2,1212.3,693.2z"></path>
	<g id="Dots_2_">
		<circle class="st1" cx="1032" cy="712" r="8"></circle>
		<circle class="st1" cx="1008" cy="712" r="8"></circle>
		<circle class="st6" cx="1032" cy="688" r="8"></circle>
		<circle class="st1" cx="1008" cy="688" r="8"></circle>
	</g>
</g>
<g>
	<path class="st1" d="M756.9,65.1h-11.7l-2.2,5.4h-6l11.2-25.2h5.8l11.3,25.2h-6.1L756.9,65.1z M755.1,60.7l-4-9.6l-4,9.6H755.1z"></path>
	<path class="st1" d="M783.4,66.2v4.3h-17.3v-3.4l9.9-11.7h-9.6v-4.3H783v3.4l-9.9,11.7H783.4z"></path>
	<path class="st1" d="M806.5,51.1v19.4h-5.3v-2.3c-1.5,1.7-3.6,2.6-6,2.6c-4.9,0-8.3-2.7-8.3-8.7V51.1h5.6v10.1   c0,3.2,1.4,4.7,3.9,4.7c2.6,0,4.5-1.7,4.5-5.2v-9.6H806.5z"></path>
	<path class="st1" d="M823.7,50.9V56c-0.5,0-0.8-0.1-1.3-0.1c-3.1,0-5.1,1.7-5.1,5.4v9.1h-5.6V51.1h5.4v2.6   C818.4,51.8,820.7,50.9,823.7,50.9z"></path>
	<path class="st1" d="M845.7,62.4h-14.6c0.5,2.4,2.6,3.9,5.5,3.9c2.1,0,3.5-0.6,4.9-1.9l3,3.2c-1.8,2.1-4.5,3.1-8,3.1   c-6.7,0-11.1-4.2-11.1-10c0-5.8,4.4-10,10.3-10c5.7,0,10.1,3.8,10.1,10C845.9,61.3,845.8,61.9,845.7,62.4z M831,59.1h9.5   c-0.4-2.4-2.2-4-4.8-4C833.3,55.1,831.4,56.7,831,59.1z"></path>
	<path class="st1" d="M882,54.5c0,5.6-4.2,9.1-10.9,9.1H866v6.9h-5.8V45.3h10.9C877.8,45.3,882,48.8,882,54.5z M876.1,54.5   c0-2.8-1.8-4.4-5.4-4.4H866v8.7h4.8C874.3,58.8,876.1,57.2,876.1,54.5z"></path>
	<path class="st1" d="M905.6,51.1v19.4h-5.3v-2.3c-1.5,1.7-3.6,2.6-6,2.6c-4.9,0-8.3-2.7-8.3-8.7V51.1h5.6v10.1   c0,3.2,1.4,4.7,3.9,4.7c2.6,0,4.5-1.7,4.5-5.2v-9.6H905.6z"></path>
	<path class="st1" d="M922.9,50.9V56c-0.5,0-0.8-0.1-1.3-0.1c-3.1,0-5.1,1.7-5.1,5.4v9.1h-5.6V51.1h5.4v2.6   C917.6,51.8,919.9,50.9,922.9,50.9z"></path>
	<path class="st1" d="M946.1,51.1L938,70.5h-5.8L924,51.1h5.8l5.4,13.2l5.5-13.2H946.1z"></path>
	<path class="st1" d="M947.8,45.3c0-1.8,1.4-3.1,3.5-3.1s3.5,1.3,3.5,3c0,1.9-1.4,3.2-3.5,3.2S947.8,47.1,947.8,45.3z M948.5,51.1   h5.6v19.4h-5.6V51.1z"></path>
	<path class="st1" d="M978.2,62.4h-14.7c0.5,2.4,2.6,3.9,5.5,3.9c2.1,0,3.5-0.6,4.9-1.9l3,3.2c-1.8,2.1-4.5,3.1-8,3.1   c-6.7,0-11.1-4.2-11.1-10c0-5.8,4.4-10,10.3-10c5.7,0,10.1,3.8,10.1,10C978.3,61.3,978.2,61.9,978.2,62.4z M963.4,59.1h9.5   c-0.4-2.4-2.2-4-4.8-4C965.7,55.1,963.8,56.7,963.4,59.1z"></path>
	<path class="st1" d="M1012.7,51.1l-7,19.4h-5.4l-4.4-12l-4.5,12h-5.4l-7-19.4h5.3l4.6,13.1l4.8-13.1h4.8l4.6,13.1l4.7-13.1H1012.7z   "></path>
</g>
<g>
	<path class="st7" d="M872.3,267.7h11.4c8.2,0,13.9,5,13.9,12.6s-5.7,12.6-13.9,12.6h-11.4V267.7z M883.4,288.1c5,0,8.3-3,8.3-7.8   s-3.3-7.8-8.3-7.8h-5.3v15.6H883.4z"></path>
	<path class="st7" d="M918.7,281.9v11.1h-5.3v-2.4c-1,1.8-3.1,2.7-5.9,2.7c-4.5,0-7.2-2.5-7.2-5.9c0-3.4,2.4-5.8,8.3-5.8h4.5   c0-2.4-1.4-3.8-4.5-3.8c-2.1,0-4.2,0.7-5.6,1.8l-2-3.9c2.1-1.5,5.3-2.3,8.4-2.3C915.3,273.3,918.7,276,918.7,281.9z M913.1,286.8   v-2h-3.9c-2.6,0-3.5,1-3.5,2.3c0,1.4,1.2,2.3,3.2,2.3C910.9,289.4,912.5,288.6,913.1,286.8z"></path>
	<path class="st7" d="M936.3,292c-1.2,0.8-2.8,1.2-4.6,1.2c-4.6,0-7.2-2.3-7.2-6.9v-8h-3V274h3v-4.7h5.6v4.7h4.8v4.3h-4.8v7.9   c0,1.7,0.9,2.6,2.4,2.6c0.8,0,1.7-0.3,2.3-0.7L936.3,292z"></path>
	<path class="st7" d="M956.6,281.9v11.1h-5.3v-2.4c-1,1.8-3.1,2.7-5.9,2.7c-4.5,0-7.2-2.5-7.2-5.9c0-3.4,2.4-5.8,8.3-5.8h4.5   c0-2.4-1.4-3.8-4.5-3.8c-2.1,0-4.2,0.7-5.6,1.8l-2-3.9c2.1-1.5,5.3-2.3,8.4-2.3C953.2,273.3,956.6,276,956.6,281.9z M951,286.8v-2   h-3.9c-2.6,0-3.5,1-3.5,2.3c0,1.4,1.2,2.3,3.2,2.3C948.7,289.4,950.4,288.6,951,286.8z"></path>
	<path class="st7" d="M995.2,292.9l0-15.1l-7.4,12.5h-2.6l-7.4-12.1v14.8h-5.5v-25.2h4.8l9.4,15.7l9.3-15.7h4.8l0.1,25.2H995.2z"></path>
	<path class="st7" d="M1023.4,281.9v11.1h-5.3v-2.4c-1,1.8-3.1,2.7-5.9,2.7c-4.5,0-7.2-2.5-7.2-5.9c0-3.4,2.4-5.8,8.3-5.8h4.5   c0-2.4-1.4-3.8-4.5-3.8c-2.1,0-4.2,0.7-5.6,1.8l-2-3.9c2.1-1.5,5.3-2.3,8.4-2.3C1020,273.3,1023.4,276,1023.4,281.9z M1017.8,286.8   v-2h-3.9c-2.6,0-3.5,1-3.5,2.3c0,1.4,1.2,2.3,3.2,2.3C1015.5,289.4,1017.1,288.6,1017.8,286.8z"></path>
	<path class="st7" d="M1049.6,283.2c0,6.1-4.2,10-9.6,10c-2.4,0-4.4-0.8-5.8-2.3v9h-5.6v-26.3h5.4v2.2c1.4-1.7,3.5-2.5,6.1-2.5   C1045.4,273.3,1049.6,277.2,1049.6,283.2z M1043.9,283.2c0-3.3-2.1-5.4-4.9-5.4s-4.9,2-4.9,5.4s2.1,5.4,4.9,5.4   S1043.9,286.6,1043.9,283.2z"></path>
</g>
<g>
	<path class="st7" d="M808.1,932.9l0-15.1l-7.4,12.5H798l-7.4-12.1v14.8h-5.5v-25.2h4.8l9.4,15.7l9.3-15.7h4.8l0.1,25.2H808.1z"></path>
	<path class="st7" d="M836.3,921.9v11.1H831v-2.4c-1,1.8-3.1,2.7-5.9,2.7c-4.5,0-7.2-2.5-7.2-5.9c0-3.4,2.4-5.8,8.3-5.8h4.5   c0-2.4-1.4-3.8-4.5-3.8c-2.1,0-4.2,0.7-5.6,1.8l-2-3.9c2.1-1.5,5.3-2.3,8.4-2.3C832.9,913.3,836.3,916,836.3,921.9z M830.7,926.8   v-2h-3.9c-2.6,0-3.5,1-3.5,2.3c0,1.4,1.2,2.3,3.2,2.3C828.4,929.4,830,928.6,830.7,926.8z"></path>
	<path class="st7" d="M839.5,931.1l1.9-4c1.7,1.1,4.4,1.9,6.7,1.9c2.6,0,3.6-0.7,3.6-1.8c0-3.2-11.7,0.1-11.7-7.7   c0-3.7,3.3-6.3,9-6.3c2.7,0,5.6,0.6,7.5,1.7l-1.9,4c-1.9-1.1-3.8-1.4-5.6-1.4c-2.5,0-3.6,0.8-3.6,1.8c0,3.3,11.7,0.1,11.7,7.7   c0,3.6-3.3,6.2-9.1,6.2C844.6,933.2,841.3,932.3,839.5,931.1z"></path>
	<path class="st7" d="M873,932c-1.2,0.8-2.8,1.2-4.6,1.2c-4.6,0-7.2-2.3-7.2-6.9v-8h-3V914h3v-4.7h5.6v4.7h4.8v4.3h-4.8v7.9   c0,1.7,0.9,2.6,2.4,2.6c0.8,0,1.7-0.3,2.3-0.7L873,932z"></path>
	<path class="st7" d="M894.4,924.8h-14.6c0.5,2.4,2.6,3.9,5.5,3.9c2.1,0,3.5-0.6,4.9-1.9l3,3.2c-1.8,2.1-4.5,3.1-8,3.1   c-6.7,0-11.1-4.2-11.1-10c0-5.8,4.4-10,10.3-10c5.7,0,10.1,3.8,10.1,10C894.5,923.8,894.4,924.4,894.4,924.8z M879.7,921.6h9.5   c-0.4-2.4-2.2-4-4.8-4C881.9,917.5,880.1,919.1,879.7,921.6z"></path>
	<path class="st7" d="M910.3,913.3v5.2c-0.5,0-0.8-0.1-1.3-0.1c-3.1,0-5.1,1.7-5.1,5.4v9.1h-5.6v-19.4h5.4v2.6   C905,914.2,907.3,913.3,910.3,913.3z"></path>
	<path class="st7" d="M924.4,907.7h11.4c8.2,0,13.9,5,13.9,12.6s-5.7,12.6-13.9,12.6h-11.4V907.7z M935.5,928.1c5,0,8.3-3,8.3-7.8   s-3.3-7.8-8.3-7.8h-5.3v15.6H935.5z"></path>
	<path class="st7" d="M970.8,921.9v11.1h-5.3v-2.4c-1,1.8-3.1,2.7-5.9,2.7c-4.5,0-7.2-2.5-7.2-5.9c0-3.4,2.4-5.8,8.3-5.8h4.5   c0-2.4-1.4-3.8-4.5-3.8c-2.1,0-4.2,0.7-5.6,1.8l-2-3.9c2.1-1.5,5.3-2.3,8.4-2.3C967.4,913.3,970.8,916,970.8,921.9z M965.2,926.8   v-2h-3.9c-2.6,0-3.5,1-3.5,2.3c0,1.4,1.2,2.3,3.2,2.3C963,929.4,964.6,928.6,965.2,926.8z"></path>
	<path class="st7" d="M988.4,932c-1.2,0.8-2.8,1.2-4.6,1.2c-4.6,0-7.2-2.3-7.2-6.9v-8h-3V914h3v-4.7h5.6v4.7h4.8v4.3h-4.8v7.9   c0,1.7,0.9,2.6,2.4,2.6c0.8,0,1.7-0.3,2.3-0.7L988.4,932z"></path>
	<path class="st7" d="M1008.7,921.9v11.1h-5.3v-2.4c-1,1.8-3.1,2.7-5.9,2.7c-4.5,0-7.2-2.5-7.2-5.9c0-3.4,2.4-5.8,8.3-5.8h4.5   c0-2.4-1.4-3.8-4.5-3.8c-2.1,0-4.2,0.7-5.6,1.8l-2-3.9c2.1-1.5,5.3-2.3,8.4-2.3C1005.3,913.3,1008.7,916,1008.7,921.9z    M1003.1,926.8v-2h-3.9c-2.6,0-3.5,1-3.5,2.3c0,1.4,1.2,2.3,3.2,2.3C1000.8,929.4,1002.4,928.6,1003.1,926.8z"></path>
	<path class="st7" d="M1047.3,932.9l0-15.1l-7.4,12.5h-2.6l-7.4-12.1v14.8h-5.5v-25.2h4.8l9.4,15.7l9.3-15.7h4.8l0.1,25.2H1047.3z"></path>
	<path class="st7" d="M1056.9,923.2c0-5.8,4.5-10,10.7-10s10.6,4.1,10.6,10s-4.5,10-10.6,10S1056.9,929.1,1056.9,923.2z    M1072.5,923.2c0-3.3-2.1-5.4-4.9-5.4s-5,2-5,5.4s2.2,5.4,5,5.4S1072.5,926.6,1072.5,923.2z"></path>
	<path class="st7" d="M1101.7,906.2v26.7h-5.4v-2.2c-1.4,1.7-3.5,2.5-6,2.5c-5.5,0-9.7-3.9-9.7-10s4.2-10,9.7-10   c2.4,0,4.4,0.8,5.8,2.3v-9.4H1101.7z M1096.1,923.2c0-3.3-2.2-5.4-4.9-5.4c-2.8,0-5,2-5,5.4s2.2,5.4,5,5.4   C1094,928.6,1096.1,926.6,1096.1,923.2z"></path>
	<path class="st7" d="M1125.7,924.8h-14.6c0.5,2.4,2.6,3.9,5.5,3.9c2.1,0,3.5-0.6,4.9-1.9l3,3.2c-1.8,2.1-4.5,3.1-8,3.1   c-6.7,0-11.1-4.2-11.1-10c0-5.8,4.4-10,10.3-10c5.7,0,10.1,3.8,10.1,10C1125.8,923.8,1125.7,924.4,1125.7,924.8z M1111,921.6h9.5   c-0.4-2.4-2.2-4-4.8-4C1113.2,917.5,1111.4,919.1,1111,921.6z"></path>
	<path class="st7" d="M1129.6,906.2h5.6v26.7h-5.6V906.2z"></path>
</g>
<g>
	<rect x="80" y="760" class="st1" width="320" height="80"></rect>
	<rect x="440" y="760" class="st1" width="320" height="80"></rect>
	<rect x="800" y="760" class="st1" width="320" height="80"></rect>
	<rect x="1160" y="760" class="st1" width="320" height="80"></rect>
	<rect x="1520" y="760" class="st1" width="320" height="80"></rect>
	<g>
		<path class="st7" d="M909,787.1l-8.2,25.2h-6.3l-5.5-17.1l-5.7,17.1H877l-8.3-25.2h6l5.7,17.7l5.9-17.7h5.4l5.8,17.9l5.9-17.9H909    z"></path>
		<path class="st7" d="M909,802.7c0-5.8,4.5-10,10.7-10s10.6,4.1,10.6,10s-4.5,10-10.6,10S909,808.5,909,802.7z M924.6,802.7    c0-3.3-2.1-5.4-4.9-5.4s-5,2-5,5.4s2.2,5.4,5,5.4S924.6,806,924.6,802.7z"></path>
		<path class="st7" d="M946,792.7v5.2c-0.5,0-0.8-0.1-1.3-0.1c-3.1,0-5.1,1.7-5.1,5.4v9.1H934V793h5.4v2.6    C940.7,793.7,943,792.7,946,792.7z"></path>
		<path class="st7" d="M957.7,804.7l-2.7,2.7v4.9h-5.6v-26.7h5.6v15.1l8.2-7.8h6.7l-8.1,8.2l8.8,11.2h-6.8L957.7,804.7z"></path>
		<path class="st7" d="M979.3,792.6v0.8h5v4.3h-4.8v14.6h-5.6v-14.6h-3v-4.3h3v-0.9c0-4.4,2.7-7.2,7.5-7.2c1.6,0,3.2,0.3,4.3,1    l-1.5,4.1c-0.6-0.4-1.4-0.7-2.3-0.7C980.2,789.8,979.3,790.7,979.3,792.6z M992.7,785.6v26.7h-5.6v-26.7H992.7z"></path>
		<path class="st7" d="M996.5,802.7c0-5.8,4.5-10,10.7-10s10.6,4.1,10.6,10s-4.5,10-10.6,10S996.5,808.5,996.5,802.7z M1012,802.7    c0-3.3-2.1-5.4-4.9-5.4s-5,2-5,5.4s2.2,5.4,5,5.4S1012,806,1012,802.7z"></path>
		<path class="st7" d="M1052,793l-7,19.4h-5.4l-4.4-12l-4.5,12h-5.4l-7-19.4h5.3l4.6,13.1l4.8-13.1h4.8l4.6,13.1l4.7-13.1H1052z"></path>
	</g>
	<g>
		<path class="st7" d="M485.1,787.1h11.4c8.2,0,13.9,5,13.9,12.6s-5.7,12.6-13.9,12.6h-11.4V787.1z M496.2,807.6c5,0,8.3-3,8.3-7.8    s-3.3-7.8-8.3-7.8h-5.3v15.6H496.2z"></path>
		<path class="st7" d="M531.5,801.3v11.1h-5.3v-2.4c-1,1.8-3.1,2.7-5.9,2.7c-4.5,0-7.2-2.5-7.2-5.9c0-3.4,2.4-5.8,8.3-5.8h4.5    c0-2.4-1.4-3.8-4.5-3.8c-2.1,0-4.2,0.7-5.6,1.8l-2-3.9c2.1-1.5,5.3-2.3,8.4-2.3C528.1,792.7,531.5,795.4,531.5,801.3z     M525.9,806.2v-2h-3.9c-2.6,0-3.5,1-3.5,2.3c0,1.4,1.2,2.3,3.2,2.3C523.7,808.8,525.3,808,525.9,806.2z"></path>
		<path class="st7" d="M549.1,811.4c-1.2,0.8-2.8,1.2-4.6,1.2c-4.6,0-7.2-2.3-7.2-6.9v-8h-3v-4.3h3v-4.7h5.6v4.7h4.8v4.3h-4.8v7.9    c0,1.7,0.9,2.6,2.4,2.6c0.8,0,1.7-0.3,2.3-0.7L549.1,811.4z"></path>
		<path class="st7" d="M569.4,801.3v11.1h-5.3v-2.4c-1,1.8-3.1,2.7-5.9,2.7c-4.5,0-7.2-2.5-7.2-5.9c0-3.4,2.4-5.8,8.3-5.8h4.5    c0-2.4-1.4-3.8-4.5-3.8c-2.1,0-4.2,0.7-5.6,1.8l-2-3.9c2.1-1.5,5.3-2.3,8.4-2.3C566,792.7,569.4,795.4,569.4,801.3z M563.8,806.2    v-2h-3.9c-2.6,0-3.5,1-3.5,2.3c0,1.4,1.2,2.3,3.2,2.3C561.5,808.8,563.2,808,563.8,806.2z"></path>
		<path class="st7" d="M612.3,815c-1.7,2-4,3.1-6.8,3.1c-3.7,0-6.4-1.4-10.3-5.5c-6.9-0.9-11.8-6.1-11.8-12.9c0-7.5,5.8-13,13.8-13    c7.9,0,13.8,5.5,13.8,13c0,5.9-3.6,10.6-9,12.3c1.2,1.3,2.3,1.8,3.6,1.8c1.5,0,2.9-0.6,4.1-1.9L612.3,815z M597.3,807.8    c4.5,0,7.9-3.3,7.9-8.1c0-4.8-3.4-8.1-7.9-8.1s-7.9,3.3-7.9,8.1C589.4,804.5,592.8,807.8,597.3,807.8z"></path>
		<path class="st7" d="M634.6,793v19.4h-5.3V810c-1.5,1.7-3.6,2.6-6,2.6c-4.9,0-8.3-2.7-8.3-8.7V793h5.6v10.1c0,3.2,1.4,4.7,3.9,4.7    c2.6,0,4.5-1.7,4.5-5.2V793H634.6z"></path>
		<path class="st7" d="M656.9,801.3v11.1h-5.3v-2.4c-1,1.8-3.1,2.7-5.9,2.7c-4.5,0-7.2-2.5-7.2-5.9c0-3.4,2.4-5.8,8.3-5.8h4.5    c0-2.4-1.4-3.8-4.5-3.8c-2.1,0-4.2,0.7-5.6,1.8l-2-3.9c2.1-1.5,5.3-2.3,8.4-2.3C653.5,792.7,656.9,795.4,656.9,801.3z     M651.3,806.2v-2h-3.9c-2.6,0-3.5,1-3.5,2.3c0,1.4,1.2,2.3,3.2,2.3C649,808.8,650.7,808,651.3,806.2z"></path>
		<path class="st7" d="M662,785.6h5.6v26.7H662V785.6z"></path>
		<path class="st7" d="M672.2,787.1c0-1.8,1.4-3.1,3.5-3.1s3.5,1.3,3.5,3c0,1.9-1.4,3.2-3.5,3.2S672.2,788.9,672.2,787.1z     M672.8,793h5.6v19.4h-5.6V793z"></path>
		<path class="st7" d="M696.2,811.4c-1.2,0.8-2.8,1.2-4.6,1.2c-4.6,0-7.2-2.3-7.2-6.9v-8h-3v-4.3h3v-4.7h5.6v4.7h4.8v4.3H690v7.9    c0,1.7,0.9,2.6,2.4,2.6c0.8,0,1.7-0.3,2.3-0.7L696.2,811.4z"></path>
		<path class="st7" d="M718.2,793l-8.7,20.6c-1.9,4.7-4.5,6.1-8,6.1c-2,0-4.1-0.6-5.4-1.8l2.1-4c0.9,0.8,2.1,1.2,3.2,1.2    c1.5,0,2.4-0.7,3.2-2.4l0.1-0.2l-8.4-19.5h5.8l5.4,13.1l5.5-13.1H718.2z"></path>
	</g>
	<g>
		<path class="st7" d="M139.9,812.3l0-15.1l-7.4,12.5h-2.6l-7.4-12.1v14.8H117v-25.2h4.8l9.4,15.7l9.3-15.7h4.8l0.1,25.2H139.9z"></path>
		<path class="st7" d="M168.1,801.3v11.1h-5.3v-2.4c-1,1.8-3.1,2.7-5.9,2.7c-4.5,0-7.2-2.5-7.2-5.9c0-3.4,2.4-5.8,8.3-5.8h4.5    c0-2.4-1.4-3.8-4.5-3.8c-2.1,0-4.2,0.7-5.6,1.8l-2-3.9c2.1-1.5,5.3-2.3,8.4-2.3C164.7,792.7,168.1,795.4,168.1,801.3z     M162.5,806.2v-2h-3.9c-2.6,0-3.5,1-3.5,2.3c0,1.4,1.2,2.3,3.2,2.3C160.2,808.8,161.9,808,162.5,806.2z"></path>
		<path class="st7" d="M185.7,811.4c-1.2,0.8-2.8,1.2-4.6,1.2c-4.6,0-7.2-2.3-7.2-6.9v-8h-3v-4.3h3v-4.7h5.6v4.7h4.8v4.3h-4.8v7.9    c0,1.7,0.9,2.6,2.4,2.6c0.8,0,1.7-0.3,2.3-0.7L185.7,811.4z"></path>
		<path class="st7" d="M186.8,802.7c0-5.8,4.5-10,10.8-10c4.1,0,7.3,1.8,8.7,4.9l-4.4,2.3c-1-1.8-2.6-2.7-4.4-2.7    c-2.8,0-5.1,2-5.1,5.4s2.2,5.4,5.1,5.4c1.8,0,3.3-0.8,4.4-2.7l4.4,2.4c-1.4,3.1-4.6,4.9-8.7,4.9    C191.3,812.6,186.8,808.5,186.8,802.7z"></path>
		<path class="st7" d="M229.2,801.3v11.1h-5.6v-10.2c0-3.1-1.4-4.6-3.9-4.6c-2.7,0-4.6,1.7-4.6,5.2v9.6h-5.6v-26.7h5.6v9.4    c1.5-1.5,3.7-2.3,6.2-2.3C225.7,792.7,229.2,795.3,229.2,801.3z"></path>
		<path class="st7" d="M242.4,782h5l-11.9,33.9h-5L242.4,782z"></path>
		<path class="st7" d="M271.7,812.3l0-15.1l-7.4,12.5h-2.6l-7.4-12.1v14.8h-5.5v-25.2h4.8l9.4,15.7l9.3-15.7h4.8l0.1,25.2H271.7z"></path>
		<path class="st7" d="M301.6,804.2H287c0.5,2.4,2.6,3.9,5.5,3.9c2.1,0,3.5-0.6,4.9-1.9l3,3.2c-1.8,2.1-4.5,3.1-8,3.1    c-6.7,0-11.1-4.2-11.1-10c0-5.8,4.4-10,10.3-10c5.7,0,10.1,3.8,10.1,10C301.7,803.2,301.6,803.8,301.6,804.2z M286.9,801h9.5    c-0.4-2.4-2.2-4-4.8-4C289.1,796.9,287.3,798.5,286.9,801z"></path>
		<path class="st7" d="M317.5,792.7v5.2c-0.5,0-0.8-0.1-1.3-0.1c-3.1,0-5.1,1.7-5.1,5.4v9.1h-5.6V793h5.4v2.6    C312.2,793.7,314.5,792.7,317.5,792.7z"></path>
		<path class="st7" d="M340.6,793v16.1c0,7.2-3.9,10.5-10.9,10.5c-3.7,0-7.2-0.9-9.5-2.7l2.2-4c1.7,1.3,4.4,2.2,6.8,2.2    c4,0,5.7-1.8,5.7-5.3V809c-1.5,1.6-3.6,2.4-6.1,2.4c-5.4,0-9.7-3.7-9.7-9.4s4.3-9.4,9.7-9.4c2.7,0,4.9,0.9,6.4,2.8V793H340.6z     M335.1,802c0-2.8-2.1-4.8-5.1-4.8s-5.1,1.9-5.1,4.8s2.2,4.8,5.1,4.8S335.1,804.9,335.1,802z"></path>
		<path class="st7" d="M364.7,804.2h-14.6c0.5,2.4,2.6,3.9,5.5,3.9c2.1,0,3.5-0.6,4.9-1.9l3,3.2c-1.8,2.1-4.5,3.1-8,3.1    c-6.7,0-11.1-4.2-11.1-10c0-5.8,4.4-10,10.3-10c5.7,0,10.1,3.8,10.1,10C364.8,803.2,364.8,803.8,364.7,804.2z M350,801h9.5    c-0.4-2.4-2.2-4-4.8-4C352.2,796.9,350.4,798.5,350,801z"></path>
	</g>
	<g>
		<path class="st7" d="M1231.3,807.7v4.7h-19.5v-25.2h19v4.7h-13.2v5.5h11.7v4.5h-11.7v5.8H1231.3z"></path>
		<path class="st7" d="M1255.3,801.3v11.1h-5.6v-10.2c0-3.1-1.4-4.6-3.9-4.6c-2.7,0-4.6,1.7-4.6,5.2v9.6h-5.6V793h5.4v2.3    c1.5-1.7,3.8-2.6,6.4-2.6C1251.9,792.7,1255.3,795.3,1255.3,801.3z"></path>
		<path class="st7" d="M1272.4,792.7v5.2c-0.5,0-0.8-0.1-1.3-0.1c-3.1,0-5.1,1.7-5.1,5.4v9.1h-5.6V793h5.4v2.6    C1267.1,793.7,1269.4,792.7,1272.4,792.7z"></path>
		<path class="st7" d="M1275.1,787.1c0-1.8,1.4-3.1,3.5-3.1s3.5,1.3,3.5,3c0,1.9-1.4,3.2-3.5,3.2S1275.1,788.9,1275.1,787.1z     M1275.8,793h5.6v19.4h-5.6V793z"></path>
		<path class="st7" d="M1285.2,802.7c0-5.8,4.5-10,10.8-10c4.1,0,7.3,1.8,8.7,4.9l-4.4,2.3c-1-1.8-2.6-2.7-4.4-2.7    c-2.8,0-5.1,2-5.1,5.4s2.2,5.4,5.1,5.4c1.8,0,3.3-0.8,4.4-2.7l4.4,2.4c-1.4,3.1-4.6,4.9-8.7,4.9    C1289.7,812.6,1285.2,808.5,1285.2,802.7z"></path>
		<path class="st7" d="M1327.5,801.3v11.1h-5.6v-10.2c0-3.1-1.4-4.6-3.9-4.6c-2.7,0-4.6,1.7-4.6,5.2v9.6h-5.6v-26.7h5.6v9.4    c1.5-1.5,3.7-2.3,6.2-2.3C1324.1,792.7,1327.5,795.3,1327.5,801.3z"></path>
		<path class="st7" d="M1365.3,801.3v11.1h-5.6v-10.2c0-3.1-1.4-4.6-3.7-4.6c-2.5,0-4.3,1.6-4.3,5.1v9.7h-5.6v-10.2    c0-3.1-1.3-4.6-3.7-4.6c-2.5,0-4.2,1.6-4.2,5.1v9.7h-5.6V793h5.4v2.2c1.4-1.7,3.6-2.5,6.1-2.5c2.7,0,5,1,6.4,3.2    c1.5-2,4.1-3.2,7-3.2C1362,792.7,1365.3,795.3,1365.3,801.3z"></path>
		<path class="st7" d="M1389.4,804.2h-14.6c0.5,2.4,2.6,3.9,5.5,3.9c2.1,0,3.5-0.6,4.9-1.9l3,3.2c-1.8,2.1-4.5,3.1-8,3.1    c-6.7,0-11.1-4.2-11.1-10c0-5.8,4.4-10,10.3-10c5.7,0,10.1,3.8,10.1,10C1389.5,803.2,1389.5,803.8,1389.4,804.2z M1374.7,801h9.5    c-0.4-2.4-2.2-4-4.8-4C1377,796.9,1375.1,798.5,1374.7,801z"></path>
		<path class="st7" d="M1413.1,801.3v11.1h-5.6v-10.2c0-3.1-1.4-4.6-3.9-4.6c-2.7,0-4.6,1.7-4.6,5.2v9.6h-5.6V793h5.4v2.3    c1.5-1.7,3.8-2.6,6.4-2.6C1409.6,792.7,1413.1,795.3,1413.1,801.3z"></path>
		<path class="st7" d="M1430.7,811.4c-1.2,0.8-2.8,1.2-4.6,1.2c-4.6,0-7.2-2.3-7.2-6.9v-8h-3v-4.3h3v-4.7h5.6v4.7h4.8v4.3h-4.8v7.9    c0,1.7,0.9,2.6,2.4,2.6c0.8,0,1.7-0.3,2.3-0.7L1430.7,811.4z"></path>
	</g>
	<g>
		<path class="st7" d="M1562.4,793l-4.9-7h-0.3h-5.1v7h-5.8v-25.2h10.9c6.7,0,10.9,3.5,10.9,9.1c0,3.8-1.9,6.6-5.2,8l5.7,8.1H1562.4    z M1557,772.5h-4.8v8.8h4.8c3.6,0,5.4-1.7,5.4-4.4C1562.3,774.1,1560.5,772.5,1557,772.5z"></path>
		<path class="st7" d="M1591.3,784.9h-14.7c0.5,2.4,2.6,3.9,5.5,3.9c2.1,0,3.5-0.6,4.9-1.9l3,3.2c-1.8,2.1-4.5,3.1-8,3.1    c-6.7,0-11.1-4.2-11.1-10c0-5.8,4.4-10,10.3-10c5.7,0,10.1,3.8,10.1,10C1591.4,783.8,1591.3,784.4,1591.3,784.9z M1576.6,781.6    h9.5c-0.4-2.4-2.2-4-4.8-4C1578.8,777.6,1577,779.1,1576.6,781.6z"></path>
		<path class="st7" d="M1595.1,766.3h5.6V793h-5.6V766.3z"></path>
		<path class="st7" d="M1623.1,781.9V793h-5.3v-2.4c-1,1.8-3.1,2.7-5.9,2.7c-4.5,0-7.2-2.5-7.2-5.9c0-3.4,2.4-5.8,8.3-5.8h4.5    c0-2.4-1.4-3.8-4.5-3.8c-2.1,0-4.2,0.7-5.6,1.8l-2-3.9c2.1-1.5,5.3-2.3,8.4-2.3C1619.7,773.3,1623.1,776.1,1623.1,781.9z     M1617.5,786.9v-2h-3.9c-2.6,0-3.5,1-3.5,2.3c0,1.4,1.2,2.3,3.2,2.3C1615.2,789.5,1616.9,788.6,1617.5,786.9z"></path>
		<path class="st7" d="M1640.7,792c-1.2,0.8-2.8,1.2-4.6,1.2c-4.6,0-7.2-2.3-7.2-6.9v-8h-3V774h3v-4.7h5.6v4.7h4.8v4.3h-4.8v7.9    c0,1.7,0.9,2.6,2.4,2.6c0.8,0,1.7-0.3,2.3-0.7L1640.7,792z"></path>
		<path class="st7" d="M1643.2,767.8c0-1.8,1.4-3.1,3.5-3.1s3.5,1.3,3.5,3c0,1.9-1.4,3.2-3.5,3.2S1643.2,769.5,1643.2,767.8z     M1643.9,773.6h5.6V793h-5.6V773.6z"></path>
		<path class="st7" d="M1653.3,783.3c0-5.8,4.5-10,10.7-10s10.6,4.1,10.6,10s-4.5,10-10.6,10S1653.3,789.1,1653.3,783.3z     M1668.8,783.3c0-3.3-2.1-5.4-4.9-5.4s-5,2-5,5.4s2.2,5.4,5,5.4S1668.8,786.6,1668.8,783.3z"></path>
		<path class="st7" d="M1698.1,781.9V793h-5.6v-10.2c0-3.1-1.4-4.6-3.9-4.6c-2.7,0-4.6,1.7-4.6,5.2v9.6h-5.6v-19.4h5.4v2.3    c1.5-1.7,3.8-2.6,6.4-2.6C1694.6,773.3,1698.1,776,1698.1,781.9z"></path>
		<path class="st7" d="M1701.3,791.2l1.9-4c1.7,1.1,4.4,1.9,6.7,1.9c2.6,0,3.6-0.7,3.6-1.8c0-3.2-11.7,0.1-11.7-7.7    c0-3.7,3.3-6.3,9-6.3c2.7,0,5.6,0.6,7.5,1.7l-1.9,4c-1.9-1.1-3.8-1.4-5.6-1.4c-2.5,0-3.6,0.8-3.6,1.8c0,3.3,11.7,0.1,11.7,7.7    c0,3.6-3.3,6.2-9.1,6.2C1706.4,793.3,1703.1,792.4,1701.3,791.2z"></path>
		<path class="st7" d="M1742.1,781.9V793h-5.6v-10.2c0-3.1-1.4-4.6-3.9-4.6c-2.7,0-4.6,1.7-4.6,5.2v9.6h-5.6v-26.7h5.6v9.4    c1.5-1.5,3.7-2.3,6.2-2.3C1738.6,773.3,1742.1,776,1742.1,781.9z"></path>
		<path class="st7" d="M1746.5,767.8c0-1.8,1.4-3.1,3.5-3.1c2.1,0,3.5,1.3,3.5,3c0,1.9-1.4,3.2-3.5,3.2    C1747.9,770.9,1746.5,769.5,1746.5,767.8z M1747.1,773.6h5.6V793h-5.6V773.6z"></path>
		<path class="st7" d="M1779.1,783.3c0,6.1-4.2,10-9.6,10c-2.4,0-4.4-0.8-5.8-2.3v9h-5.6v-26.3h5.4v2.2c1.4-1.7,3.5-2.5,6.1-2.5    C1774.9,773.3,1779.1,777.2,1779.1,783.3z M1773.4,783.3c0-3.3-2.1-5.4-4.9-5.4c-2.8,0-4.9,2-4.9,5.4s2.1,5.4,4.9,5.4    C1771.3,788.7,1773.4,786.6,1773.4,783.3z"></path>
		<path class="st7" d="M1812.8,793.4l-3-2.8c-2.3,1.8-5.2,2.8-8.4,2.8c-5.5,0-9.6-2.9-9.6-6.9c0-3.2,1.7-5.4,5.5-7.5    c-1.8-1.9-2.6-3.5-2.6-5.3c0-3.7,3.1-6.2,7.8-6.2c4.4,0,7.2,2.2,7.2,5.8c0,2.6-1.5,4.5-4.9,6.4l4.6,4.3c0.5-1.1,1-2.4,1.3-3.9    l4.5,1.4c-0.5,2.2-1.2,4.1-2.3,5.7l3,2.7L1812.8,793.4z M1806.4,787.5l-6.1-5.7c-2.3,1.3-3.1,2.5-3.1,4c0,1.8,1.7,3.1,4.5,3.1    C1803.4,789,1805.1,788.5,1806.4,787.5z M1799.8,773.6c0,1,0.4,1.7,1.9,3.2c2.5-1.3,3.3-2.3,3.3-3.4c0-1.2-0.9-2.1-2.5-2.1    C1800.8,771.3,1799.8,772.2,1799.8,773.6z"></path>
		<path class="st7" d="M1553.3,803.8V829h-5.8v-10.3H1536V829h-5.8v-25.2h5.8v9.9h11.4v-9.9H1553.3z"></path>
		<path class="st7" d="M1558.2,803.8c0-1.8,1.4-3.1,3.5-3.1s3.5,1.3,3.5,3c0,1.9-1.4,3.2-3.5,3.2S1558.2,805.5,1558.2,803.8z     M1558.8,809.6h5.6V829h-5.6V809.6z"></path>
		<path class="st7" d="M1588.5,820.9h-14.6c0.5,2.4,2.6,3.9,5.5,3.9c2.1,0,3.5-0.6,4.9-1.9l3,3.2c-1.8,2.1-4.5,3.1-8,3.1    c-6.7,0-11.1-4.2-11.1-10c0-5.8,4.4-10,10.3-10c5.7,0,10.1,3.8,10.1,10C1588.6,819.8,1588.6,820.4,1588.5,820.9z M1573.8,817.6    h9.5c-0.4-2.4-2.2-4-4.8-4C1576,813.6,1574.2,815.1,1573.8,817.6z"></path>
		<path class="st7" d="M1604.4,809.3v5.2c-0.5,0-0.8-0.1-1.3-0.1c-3.1,0-5.1,1.7-5.1,5.4v9.1h-5.6v-19.4h5.4v2.6    C1599.1,810.3,1601.4,809.3,1604.4,809.3z"></path>
		<path class="st7" d="M1624.8,817.9V829h-5.3v-2.4c-1,1.8-3.1,2.7-5.9,2.7c-4.5,0-7.2-2.5-7.2-5.9c0-3.4,2.4-5.8,8.3-5.8h4.5    c0-2.4-1.4-3.8-4.5-3.8c-2.1,0-4.2,0.7-5.6,1.8l-2-3.9c2.1-1.5,5.3-2.3,8.4-2.3C1621.4,809.3,1624.8,812.1,1624.8,817.9z     M1619.2,822.9v-2h-3.9c-2.6,0-3.5,1-3.5,2.3c0,1.4,1.2,2.3,3.2,2.3C1616.9,825.5,1618.5,824.6,1619.2,822.9z"></path>
		<path class="st7" d="M1641.9,809.3v5.2c-0.5,0-0.8-0.1-1.3-0.1c-3.1,0-5.1,1.7-5.1,5.4v9.1h-5.6v-19.4h5.4v2.6    C1636.6,810.3,1638.9,809.3,1641.9,809.3z"></path>
		<path class="st7" d="M1643.6,819.3c0-5.8,4.5-10,10.8-10c4.1,0,7.3,1.8,8.7,4.9l-4.4,2.3c-1-1.8-2.6-2.7-4.4-2.7    c-2.8,0-5.1,2-5.1,5.4s2.2,5.4,5.1,5.4c1.8,0,3.3-0.8,4.4-2.7l4.4,2.4c-1.4,3.1-4.6,4.9-8.7,4.9    C1648.1,829.3,1643.6,825.1,1643.6,819.3z"></path>
		<path class="st7" d="M1686,817.9V829h-5.6v-10.2c0-3.1-1.4-4.6-3.9-4.6c-2.7,0-4.6,1.7-4.6,5.2v9.6h-5.6v-26.7h5.6v9.4    c1.5-1.5,3.7-2.3,6.2-2.3C1682.5,809.3,1686,812,1686,817.9z"></path>
		<path class="st7" d="M1709.9,809.6l-8.7,20.6c-1.9,4.7-4.5,6.1-8,6.1c-2,0-4.1-0.6-5.4-1.8l2.1-4c0.9,0.8,2.1,1.2,3.2,1.2    c1.5,0,2.4-0.7,3.2-2.4l0.1-0.2l-8.4-19.5h5.8l5.4,13.1l5.5-13.1H1709.9z"></path>
		<path class="st7" d="M1745.8,829l0-15.1l-7.4,12.5h-2.6l-7.4-12.1V829h-5.5v-25.2h4.8l9.4,15.7l9.3-15.7h4.8l0.1,25.2H1745.8z"></path>
		<path class="st7" d="M1776.8,809.6v16.1c0,7.2-3.9,10.5-10.9,10.5c-3.7,0-7.2-0.9-9.5-2.7l2.2-4c1.7,1.3,4.4,2.2,6.8,2.2    c4,0,5.7-1.8,5.7-5.3v-0.8c-1.5,1.6-3.6,2.4-6.1,2.4c-5.4,0-9.7-3.7-9.7-9.4s4.3-9.4,9.7-9.4c2.7,0,4.9,0.9,6.4,2.8v-2.5H1776.8z     M1771.2,818.7c0-2.8-2.1-4.8-5.1-4.8c-3,0-5.1,1.9-5.1,4.8s2.2,4.8,5.1,4.8C1769.1,823.4,1771.2,821.5,1771.2,818.7z"></path>
		<path class="st7" d="M1814.7,817.9V829h-5.6v-10.2c0-3.1-1.4-4.6-3.7-4.6c-2.5,0-4.3,1.6-4.3,5.1v9.7h-5.6v-10.2    c0-3.1-1.3-4.6-3.7-4.6c-2.5,0-4.2,1.6-4.2,5.1v9.7h-5.6v-19.4h5.4v2.2c1.4-1.7,3.6-2.5,6.1-2.5c2.7,0,5,1,6.4,3.2    c1.5-2,4.1-3.2,7-3.2C1811.4,809.3,1814.7,812,1814.7,817.9z"></path>
		<path class="st7" d="M1832.3,828c-1.2,0.8-2.8,1.2-4.6,1.2c-4.6,0-7.2-2.3-7.2-6.9v-8h-3V810h3v-4.7h5.6v4.7h4.8v4.3h-4.8v7.9    c0,1.7,0.9,2.6,2.4,2.6c0.8,0,1.7-0.3,2.3-0.7L1832.3,828z"></path>
	</g>
</g>
<g>
	<rect x="80" y="120" class="st1" width="860" height="80"></rect>
	<rect x="980" y="120" class="st1" width="860" height="80"></rect>
	<g>
		<path class="st7" d="M459,147.1l-8.2,25.2h-6.3l-5.5-17.1l-5.7,17.1H427l-8.3-25.2h6l5.7,17.7l5.9-17.7h5.4l5.8,17.9l5.9-17.9H459    z"></path>
		<path class="st7" d="M459,162.7c0-5.8,4.5-10,10.7-10s10.6,4.1,10.6,10s-4.5,10-10.6,10S459,168.5,459,162.7z M474.6,162.7    c0-3.3-2.1-5.4-4.9-5.4s-5,2-5,5.4s2.2,5.4,5,5.4S474.6,166,474.6,162.7z"></path>
		<path class="st7" d="M496,152.7v5.2c-0.5,0-0.8-0.1-1.3-0.1c-3.1,0-5.1,1.7-5.1,5.4v9.1H484V153h5.4v2.6    C490.7,153.7,493,152.7,496,152.7z"></path>
		<path class="st7" d="M507.7,164.7l-2.7,2.7v4.9h-5.6v-26.7h5.6v15.1l8.2-7.8h6.7l-8.1,8.2l8.8,11.2h-6.8L507.7,164.7z"></path>
		<path class="st7" d="M529.3,152.6v0.8h5v4.3h-4.8v14.6h-5.6v-14.6h-3v-4.3h3v-0.9c0-4.4,2.7-7.2,7.5-7.2c1.6,0,3.2,0.3,4.3,1    l-1.5,4.1c-0.6-0.4-1.4-0.7-2.3-0.7C530.2,149.8,529.3,150.7,529.3,152.6z M542.7,145.6v26.7h-5.6v-26.7H542.7z"></path>
		<path class="st7" d="M546.4,162.7c0-5.8,4.5-10,10.7-10s10.6,4.1,10.6,10s-4.5,10-10.6,10S546.4,168.5,546.4,162.7z M562,162.7    c0-3.3-2.1-5.4-4.9-5.4s-5,2-5,5.4s2.2,5.4,5,5.4S562,166,562,162.7z"></path>
		<path class="st7" d="M602,153l-7,19.4h-5.4l-4.4-12l-4.5,12h-5.4l-7-19.4h5.3l4.6,13.1L583,153h4.8l4.6,13.1l4.7-13.1H602z"></path>
	</g>
	<g>
		<path class="st7" d="M1321.3,167.7v4.7h-19.5v-25.2h19v4.7h-13.2v5.5h11.7v4.5h-11.7v5.8H1321.3z"></path>
		<path class="st7" d="M1345.3,161.3v11.1h-5.6v-10.2c0-3.1-1.4-4.6-3.9-4.6c-2.7,0-4.6,1.7-4.6,5.2v9.6h-5.6V153h5.4v2.3    c1.5-1.7,3.8-2.6,6.4-2.6C1341.8,152.7,1345.3,155.3,1345.3,161.3z"></path>
		<path class="st7" d="M1362.4,152.7v5.2c-0.5,0-0.8-0.1-1.3-0.1c-3.1,0-5.1,1.7-5.1,5.4v9.1h-5.6V153h5.4v2.6    C1357.1,153.7,1359.4,152.7,1362.4,152.7z"></path>
		<path class="st7" d="M1365.1,147.1c0-1.8,1.4-3.1,3.5-3.1s3.5,1.3,3.5,3c0,1.9-1.4,3.2-3.5,3.2S1365.1,148.9,1365.1,147.1z     M1365.8,153h5.6v19.4h-5.6V153z"></path>
		<path class="st7" d="M1375.2,162.7c0-5.8,4.5-10,10.8-10c4.1,0,7.3,1.8,8.7,4.9l-4.4,2.3c-1-1.8-2.6-2.7-4.4-2.7    c-2.8,0-5.1,2-5.1,5.4s2.2,5.4,5.1,5.4c1.8,0,3.3-0.8,4.4-2.7l4.4,2.4c-1.4,3.1-4.6,4.9-8.7,4.9    C1379.7,172.6,1375.2,168.5,1375.2,162.7z"></path>
		<path class="st7" d="M1417.5,161.3v11.1h-5.6v-10.2c0-3.1-1.4-4.6-3.9-4.6c-2.7,0-4.6,1.7-4.6,5.2v9.6h-5.6v-26.7h5.6v9.4    c1.5-1.5,3.7-2.3,6.2-2.3C1414.1,152.7,1417.5,155.3,1417.5,161.3z"></path>
		<path class="st7" d="M1455.3,161.3v11.1h-5.6v-10.2c0-3.1-1.4-4.6-3.7-4.6c-2.5,0-4.3,1.6-4.3,5.1v9.7h-5.6v-10.2    c0-3.1-1.3-4.6-3.7-4.6c-2.5,0-4.2,1.6-4.2,5.1v9.7h-5.6V153h5.4v2.2c1.4-1.7,3.6-2.5,6.1-2.5c2.7,0,5,1,6.4,3.2    c1.5-2,4.1-3.2,7-3.2C1452,152.7,1455.3,155.3,1455.3,161.3z"></path>
		<path class="st7" d="M1479.4,164.2h-14.6c0.5,2.4,2.6,3.9,5.5,3.9c2.1,0,3.5-0.6,4.9-1.9l3,3.2c-1.8,2.1-4.5,3.1-8,3.1    c-6.7,0-11.1-4.2-11.1-10c0-5.8,4.4-10,10.3-10c5.7,0,10.1,3.8,10.1,10C1479.5,163.2,1479.5,163.8,1479.4,164.2z M1464.7,161h9.5    c-0.4-2.4-2.2-4-4.8-4C1467,156.9,1465.1,158.5,1464.7,161z"></path>
		<path class="st7" d="M1503.1,161.3v11.1h-5.6v-10.2c0-3.1-1.4-4.6-3.9-4.6c-2.7,0-4.6,1.7-4.6,5.2v9.6h-5.6V153h5.4v2.3    c1.5-1.7,3.8-2.6,6.4-2.6C1499.6,152.7,1503.1,155.3,1503.1,161.3z"></path>
		<path class="st7" d="M1520.7,171.4c-1.2,0.8-2.8,1.2-4.6,1.2c-4.6,0-7.2-2.3-7.2-6.9v-8h-3v-4.3h3v-4.7h5.6v4.7h4.8v4.3h-4.8v7.9    c0,1.7,0.9,2.6,2.4,2.6c0.8,0,1.7-0.3,2.3-0.7L1520.7,171.4z"></path>
	</g>
</g>
<g>
	<path class="st1" d="M722.2,694.5c0,5.6-4.2,9.1-10.9,9.1h-5.1v6.9h-5.8v-25.2h10.9C718,685.3,722.2,688.8,722.2,694.5z    M716.3,694.5c0-2.8-1.8-4.4-5.4-4.4h-4.8v8.7h4.8C714.5,698.8,716.3,697.2,716.3,694.5z"></path>
	<path class="st1" d="M737.9,690.9v5.2c-0.5,0-0.8-0.1-1.3-0.1c-3.1,0-5.1,1.7-5.1,5.4v9.1h-5.6v-19.4h5.4v2.6   C732.6,691.8,734.9,690.9,737.9,690.9z"></path>
	<path class="st1" d="M739.7,700.8c0-5.8,4.5-10,10.7-10s10.6,4.1,10.6,10s-4.5,10-10.6,10S739.7,706.7,739.7,700.8z M755.2,700.8   c0-3.3-2.1-5.4-4.9-5.4s-5,2-5,5.4s2.2,5.4,5,5.4S755.2,704.2,755.2,700.8z"></path>
	<path class="st1" d="M770.8,690.8v0.8h5v4.3H771v14.6h-5.6v-14.6h-3v-4.3h3v-0.9c0-4.4,2.7-7.2,7.5-7.2c1.6,0,3.2,0.3,4.3,1   l-1.5,4.1c-0.6-0.4-1.4-0.7-2.3-0.7C771.7,687.9,770.8,688.8,770.8,690.8z M780.8,685.3c0-1.8,1.4-3.1,3.5-3.1c2.1,0,3.5,1.3,3.5,3   c0,1.9-1.4,3.2-3.5,3.2C782.2,688.4,780.8,687.1,780.8,685.3z M781.5,691.1h5.6v19.4h-5.6V691.1z"></path>
	<path class="st1" d="M790.5,708.7l1.9-4c1.7,1.1,4.4,1.9,6.7,1.9c2.6,0,3.6-0.7,3.6-1.8c0-3.2-11.7,0.1-11.7-7.7   c0-3.7,3.3-6.3,9-6.3c2.7,0,5.6,0.6,7.5,1.7l-1.9,4c-1.9-1.1-3.8-1.4-5.6-1.4c-2.5,0-3.6,0.8-3.6,1.8c0,3.3,11.7,0.1,11.7,7.7   c0,3.6-3.3,6.2-9.1,6.2C795.6,710.8,792.3,709.9,790.5,708.7z"></path>
	<path class="st1" d="M830.3,702.4h-14.6c0.5,2.4,2.6,3.9,5.5,3.9c2.1,0,3.5-0.6,4.9-1.9l3,3.2c-1.8,2.1-4.5,3.1-8,3.1   c-6.7,0-11.1-4.2-11.1-10c0-5.8,4.4-10,10.3-10c5.7,0,10.1,3.8,10.1,10C830.4,701.3,830.3,701.9,830.3,702.4z M815.6,699.1h9.5   c-0.4-2.4-2.2-4-4.8-4C817.8,695.1,816,696.7,815.6,699.1z"></path>
	<path class="st1" d="M853,702.4h-14.6c0.5,2.4,2.6,3.9,5.5,3.9c2.1,0,3.5-0.6,4.9-1.9l3,3.2c-1.8,2.1-4.5,3.1-8,3.1   c-6.7,0-11.1-4.2-11.1-10c0-5.8,4.4-10,10.3-10c5.7,0,10.1,3.8,10.1,10C853.1,701.3,853.1,701.9,853,702.4z M838.3,699.1h9.5   c-0.4-2.4-2.2-4-4.8-4C840.5,695.1,838.7,696.7,838.3,699.1z"></path>
	<path class="st1" d="M890.4,710.5l0-15.1l-7.4,12.5h-2.6l-7.4-12.1v14.8h-5.5v-25.2h4.8l9.4,15.7l9.3-15.7h4.8l0.1,25.2H890.4z"></path>
	<path class="st1" d="M901.8,685.3h11.4c8.2,0,13.9,5,13.9,12.6s-5.7,12.6-13.9,12.6h-11.4V685.3z M913,705.7c5,0,8.3-3,8.3-7.8   s-3.3-7.8-8.3-7.8h-5.3v15.6H913z"></path>
	<path class="st1" d="M954.5,710.5l0-15.1l-7.4,12.5h-2.6l-7.4-12.1v14.8h-5.5v-25.2h4.8l9.4,15.7l9.3-15.7h4.8l0.1,25.2H954.5z"></path>
</g>
<polygon class="st6" points="840,400 800,440 820,440 820,600 860,600 860,440 880,440 "></polygon>
<polygon class="st6" points="1080,600 1120,560 1100,560 1100,400 1060,400 1060,560 1040,560 "></polygon>
<g>
	<path d="M1183.8,465.5c0,5.4-3.9,8.6-10.3,8.6h-6.8v8h-2.7v-25.2h9.4C1179.9,456.9,1183.8,460.1,1183.8,465.5z M1181.2,465.5   c0-4-2.7-6.3-7.7-6.3h-6.7v12.6h6.7C1178.5,471.8,1181.2,469.5,1181.2,465.5z"></path>
	<path d="M1198.1,463v2.5c-0.2,0-0.4,0-0.6,0c-4,0-6.4,2.5-6.4,7v9.6h-2.6v-18.9h2.4v3.7C1192.2,464.4,1194.6,463,1198.1,463z"></path>
	<path d="M1200.6,472.6c0-5.6,4.1-9.6,9.6-9.6c5.5,0,9.6,4,9.6,9.6s-4.1,9.6-9.6,9.6C1204.7,482.3,1200.6,478.3,1200.6,472.6z    M1217.3,472.6c0-4.4-3-7.4-7-7.4s-7.1,3-7.1,7.4s3,7.4,7.1,7.4S1217.3,477.1,1217.3,472.6z"></path>
	<path d="M1231.3,455.2c1.4,0,2.8,0.4,3.8,1.2l-0.9,1.9c-0.7-0.6-1.7-0.9-2.8-0.9c-2.2,0-3.3,1.2-3.3,3.6v2.2h5.8v2.2h-5.8v16.8   h-2.6v-16.8h-3.4v-2.2h3.4v-2.3C1225.6,457.5,1227.6,455.2,1231.3,455.2z M1243.4,457.2c0,1-0.8,1.9-1.9,1.9c-1,0-1.9-0.8-1.9-1.8   c0-1,0.8-1.8,1.9-1.8S1243.4,456.2,1243.4,457.2z M1240.2,463.2h2.6v18.9h-2.6V463.2z"></path>
	<path d="M1247.3,479.9l1.2-2c1.5,1.2,4.1,2.1,6.7,2.1c3.6,0,5.1-1.2,5.1-3.1c0-4.9-12.3-1-12.3-8.5c0-3.1,2.7-5.4,7.5-5.4   c2.4,0,5.1,0.7,6.7,1.8l-1.1,2.1c-1.7-1.2-3.6-1.6-5.6-1.6c-3.4,0-4.9,1.3-4.9,3.1c0,5.1,12.3,1.3,12.3,8.5c0,3.3-2.9,5.4-7.8,5.4   C1251.8,482.3,1248.8,481.3,1247.3,479.9z"></path>
	<path d="M1284,473.4h-15.8c0.3,4,3.3,6.6,7.5,6.6c2.3,0,4.4-0.8,5.8-2.5l1.4,1.7c-1.7,2-4.3,3.1-7.3,3.1c-5.9,0-9.9-4-9.9-9.6   s3.9-9.6,9.2-9.6c5.3,0,9.2,3.9,9.2,9.6C1284,472.9,1284,473.1,1284,473.4z M1268.1,471.5h13.4c-0.3-3.7-3-6.3-6.7-6.3   C1271.2,465.2,1268.5,467.8,1268.1,471.5z"></path>
	<path d="M1305.7,473.4h-15.8c0.3,4,3.3,6.6,7.5,6.6c2.3,0,4.4-0.8,5.8-2.5l1.4,1.7c-1.7,2-4.3,3.1-7.3,3.1c-5.9,0-9.9-4-9.9-9.6   s3.9-9.6,9.2-9.6c5.3,0,9.2,3.9,9.2,9.6C1305.8,472.9,1305.7,473.1,1305.7,473.4z M1289.9,471.5h13.4c-0.3-3.7-3-6.3-6.7-6.3   C1292.9,465.2,1290.2,467.8,1289.9,471.5z"></path>
	<path d="M1337.7,455.4v26.7h-2.4v-3.7c-1.5,2.6-4.2,3.9-7.3,3.9c-5.4,0-9.4-3.9-9.4-9.6s4-9.6,9.4-9.6c3,0,5.6,1.3,7.2,3.7v-11.4   H1337.7z M1335.2,472.6c0-4.4-3-7.4-7-7.4c-4,0-7.1,3-7.1,7.4s3,7.4,7.1,7.4C1332.1,480,1335.2,477.1,1335.2,472.6z"></path>
	<path d="M1344.2,457.2c0-1,0.8-1.8,1.9-1.8s1.9,0.8,1.9,1.8c0,1-0.8,1.9-1.9,1.9C1345.1,459,1344.2,458.2,1344.2,457.2z    M1344.8,463.2h2.6v18.9h-2.6V463.2z"></path>
	<path d="M1351.9,479.9l1.2-2c1.5,1.2,4.1,2.1,6.7,2.1c3.6,0,5.1-1.2,5.1-3.1c0-4.9-12.3-1-12.3-8.5c0-3.1,2.7-5.4,7.5-5.4   c2.4,0,5.1,0.7,6.7,1.8l-1.1,2.1c-1.7-1.2-3.6-1.6-5.6-1.6c-3.4,0-4.9,1.3-4.9,3.1c0,5.1,12.3,1.3,12.3,8.5c0,3.3-2.9,5.4-7.8,5.4   C1356.4,482.3,1353.4,481.3,1351.9,479.9z"></path>
	<path d="M1391.3,472.6c0,5.8-4,9.6-9.4,9.6c-3,0-5.6-1.3-7.2-3.7v10.5h-2.6v-25.9h2.4v3.7c1.5-2.5,4.2-3.9,7.3-3.9   C1387.3,463,1391.3,466.9,1391.3,472.6z M1388.7,472.6c0-4.4-3.1-7.4-7.1-7.4c-4,0-7.1,3-7.1,7.4c0,4.4,3,7.4,7.1,7.4   C1385.7,480,1388.7,477.1,1388.7,472.6z"></path>
	<path d="M1396.5,455.4h2.6v26.7h-2.6V455.4z"></path>
	<path d="M1420.5,470.4v11.7h-2.4v-3c-1.2,1.9-3.4,3.1-6.5,3.1c-4.3,0-6.9-2.2-6.9-5.5c0-2.9,1.9-5.4,7.3-5.4h6v-1.2   c0-3.2-1.8-5-5.4-5c-2.4,0-4.8,0.9-6.3,2.2l-1.2-1.9c1.9-1.6,4.7-2.6,7.7-2.6C1417.7,463,1420.5,465.5,1420.5,470.4z M1417.9,476.4   v-3.1h-5.9c-3.7,0-4.9,1.4-4.9,3.4c0,2.2,1.8,3.6,4.8,3.6C1414.8,480.3,1416.9,478.9,1417.9,476.4z"></path>
	<path d="M1443,463.2l-9.5,21.2c-1.6,3.7-3.6,4.9-6.3,4.9c-1.8,0-3.5-0.6-4.6-1.7l1.2-1.9c0.9,0.9,2.1,1.4,3.5,1.4   c1.7,0,2.8-0.8,3.9-3.2l0.8-1.8l-8.5-18.9h2.7l7.1,16.1l7.1-16.1H1443z"></path>
	<path d="M1443.7,479.9l1.2-2c1.5,1.2,4.1,2.1,6.7,2.1c3.6,0,5.1-1.2,5.1-3.1c0-4.9-12.3-1-12.3-8.5c0-3.1,2.7-5.4,7.5-5.4   c2.4,0,5.1,0.7,6.7,1.8l-1.1,2.1c-1.7-1.2-3.6-1.6-5.6-1.6c-3.4,0-4.9,1.3-4.9,3.1c0,5.1,12.3,1.3,12.3,8.5c0,3.3-2.9,5.4-7.8,5.4   C1448.3,482.3,1445.3,481.3,1443.7,479.9z"></path>
	<path d="M1491.7,469.5h2.6v9.6c-2.4,2.1-5.8,3.2-9.3,3.2c-7.7,0-13.3-5.4-13.3-12.8c0-7.4,5.6-12.8,13.3-12.8   c3.8,0,7.1,1.2,9.4,3.6l-1.7,1.7c-2.1-2.1-4.6-3-7.6-3c-6.2,0-10.8,4.4-10.8,10.4c0,6,4.6,10.4,10.8,10.4c2.4,0,4.6-0.5,6.6-1.9   V469.5z"></path>
	<path d="M1501.2,455.4h2.6v26.7h-2.6V455.4z"></path>
	<path d="M1509,472.6c0-5.6,4.1-9.6,9.6-9.6c5.5,0,9.6,4,9.6,9.6s-4.1,9.6-9.6,9.6C1513.1,482.3,1509,478.3,1509,472.6z    M1525.7,472.6c0-4.4-3-7.4-7-7.4s-7.1,3-7.1,7.4s3,7.4,7.1,7.4S1525.7,477.1,1525.7,472.6z"></path>
	<path d="M1530.9,479.9l1.2-2c1.5,1.2,4.1,2.1,6.7,2.1c3.6,0,5.1-1.2,5.1-3.1c0-4.9-12.3-1-12.3-8.5c0-3.1,2.7-5.4,7.5-5.4   c2.4,0,5.1,0.7,6.7,1.8l-1.1,2.1c-1.7-1.2-3.6-1.6-5.6-1.6c-3.4,0-4.9,1.3-4.9,3.1c0,5.1,12.3,1.3,12.3,8.5c0,3.3-2.9,5.4-7.8,5.4   C1535.4,482.3,1532.4,481.3,1530.9,479.9z"></path>
	<path d="M1548.5,479.9l1.2-2c1.5,1.2,4.1,2.1,6.7,2.1c3.6,0,5.1-1.2,5.1-3.1c0-4.9-12.3-1-12.3-8.5c0-3.1,2.7-5.4,7.5-5.4   c2.4,0,5.1,0.7,6.7,1.8l-1.1,2.1c-1.7-1.2-3.6-1.6-5.6-1.6c-3.4,0-4.9,1.3-4.9,3.1c0,5.1,12.3,1.3,12.3,8.5c0,3.3-2.9,5.4-7.8,5.4   C1553,482.3,1550,481.3,1548.5,479.9z"></path>
	<path d="M1583,470.4v11.7h-2.4v-3c-1.2,1.9-3.4,3.1-6.5,3.1c-4.3,0-6.9-2.2-6.9-5.5c0-2.9,1.9-5.4,7.3-5.4h6v-1.2   c0-3.2-1.8-5-5.4-5c-2.4,0-4.8,0.9-6.3,2.2l-1.2-1.9c1.9-1.6,4.7-2.6,7.7-2.6C1580.2,463,1583,465.5,1583,470.4z M1580.4,476.4   v-3.1h-5.9c-3.7,0-4.9,1.4-4.9,3.4c0,2.2,1.8,3.6,4.8,3.6C1577.3,480.3,1579.4,478.9,1580.4,476.4z"></path>
	<path d="M1599.5,463v2.5c-0.2,0-0.4,0-0.6,0c-4,0-6.4,2.5-6.4,7v9.6h-2.6v-18.9h2.4v3.7C1593.6,464.4,1596,463,1599.5,463z"></path>
	<path d="M1620.8,463.2l-9.5,21.2c-1.6,3.7-3.6,4.9-6.3,4.9c-1.8,0-3.5-0.6-4.6-1.7l1.2-1.9c0.9,0.9,2.1,1.4,3.5,1.4   c1.7,0,2.8-0.8,3.9-3.2l0.8-1.8l-8.5-18.9h2.7l7.1,16.1l7.1-16.1H1620.8z"></path>
	<path d="M1648.2,470.4v11.7h-2.4v-3c-1.2,1.9-3.4,3.1-6.5,3.1c-4.3,0-6.9-2.2-6.9-5.5c0-2.9,1.9-5.4,7.3-5.4h6v-1.2   c0-3.2-1.8-5-5.4-5c-2.4,0-4.8,0.9-6.3,2.2l-1.2-1.9c1.9-1.6,4.7-2.6,7.7-2.6C1645.4,463,1648.2,465.5,1648.2,470.4z M1645.6,476.4   v-3.1h-5.9c-3.7,0-4.9,1.4-4.9,3.4c0,2.2,1.8,3.6,4.8,3.6C1642.5,480.3,1644.6,478.9,1645.6,476.4z"></path>
	<path d="M1672.5,471.1v11h-2.6v-10.7c0-4-2.1-6-5.7-6c-4.1,0-6.6,2.5-6.6,6.8v9.9h-2.6v-18.9h2.4v3.5c1.4-2.3,3.9-3.6,7.2-3.6   C1669.4,463,1672.5,465.7,1672.5,471.1z"></path>
	<path d="M1696.8,455.4v26.7h-2.4v-3.7c-1.5,2.6-4.2,3.9-7.3,3.9c-5.4,0-9.4-3.9-9.4-9.6s4-9.6,9.4-9.6c3,0,5.6,1.3,7.2,3.7v-11.4   H1696.8z M1694.3,472.6c0-4.4-3-7.4-7-7.4c-4,0-7.1,3-7.1,7.4s3,7.4,7.1,7.4C1691.3,480,1694.3,477.1,1694.3,472.6z"></path>
	<path d="M1181.8,512.7h2.6v9.6c-2.4,2.1-5.8,3.2-9.3,3.2c-7.7,0-13.3-5.4-13.3-12.8s5.6-12.8,13.3-12.8c3.8,0,7.1,1.2,9.4,3.6   l-1.7,1.7c-2.1-2.1-4.6-3-7.6-3c-6.2,0-10.8,4.4-10.8,10.4c0,6,4.6,10.4,10.8,10.4c2.4,0,4.6-0.5,6.6-1.9V512.7z"></path>
	<path d="M1189.5,515.8c0-5.6,4.1-9.6,9.6-9.6s9.6,4,9.6,9.6s-4.1,9.6-9.6,9.6S1189.5,521.5,1189.5,515.8z M1206.1,515.8   c0-4.4-3-7.4-7-7.4s-7.1,3-7.1,7.4s3,7.4,7.1,7.4S1206.1,520.3,1206.1,515.8z"></path>
	<path d="M1229.3,506.4l-8.4,18.9h-2.6l-8.4-18.9h2.7l7.1,16.1l7.2-16.1H1229.3z"></path>
	<path d="M1248.9,516.6H1233c0.3,4,3.3,6.6,7.5,6.6c2.3,0,4.4-0.8,5.8-2.5l1.4,1.7c-1.7,2-4.3,3.1-7.3,3.1c-5.9,0-9.9-4-9.9-9.6   s3.9-9.6,9.2-9.6c5.3,0,9.2,3.9,9.2,9.6C1248.9,516.1,1248.9,516.3,1248.9,516.6z M1233,514.7h13.4c-0.3-3.7-3-6.3-6.7-6.3   C1236.1,508.4,1233.4,511,1233,514.7z"></path>
	<path d="M1263.7,506.2v2.5c-0.2,0-0.4,0-0.6,0c-4,0-6.4,2.5-6.4,7v9.6h-2.6v-18.9h2.4v3.7C1257.8,507.6,1260.2,506.2,1263.7,506.2z   "></path>
	<path d="M1285.7,514.3v11h-2.6v-10.7c0-4-2.1-6-5.7-6c-4.1,0-6.6,2.5-6.6,6.8v9.9h-2.6v-18.9h2.4v3.5c1.4-2.3,3.9-3.6,7.2-3.6   C1282.5,506.2,1285.7,508.9,1285.7,514.3z"></path>
	<path d="M1306.9,513.6v11.7h-2.4v-3c-1.2,1.9-3.4,3.1-6.5,3.1c-4.3,0-6.9-2.2-6.9-5.5c0-2.9,1.9-5.4,7.3-5.4h6v-1.2   c0-3.2-1.8-5-5.4-5c-2.4,0-4.8,0.9-6.3,2.2l-1.2-1.9c1.9-1.6,4.7-2.6,7.7-2.6C1304.2,506.2,1306.9,508.7,1306.9,513.6z    M1304.4,519.6v-3.1h-5.9c-3.7,0-4.9,1.4-4.9,3.4c0,2.2,1.8,3.6,4.8,3.6C1301.3,523.5,1303.4,522.1,1304.4,519.6z"></path>
	<path d="M1331.3,514.3v11h-2.6v-10.7c0-4-2.1-6-5.7-6c-4.1,0-6.6,2.5-6.6,6.8v9.9h-2.6v-18.9h2.4v3.5c1.4-2.3,3.9-3.6,7.2-3.6   C1328.2,506.2,1331.3,508.9,1331.3,514.3z"></path>
	<path d="M1336.4,515.8c0-5.7,4.1-9.6,9.8-9.6c3.2,0,5.9,1.3,7.4,3.7l-1.9,1.3c-1.3-1.9-3.3-2.8-5.5-2.8c-4.1,0-7.2,3-7.2,7.4   c0,4.5,3,7.4,7.2,7.4c2.2,0,4.2-0.9,5.5-2.8l1.9,1.3c-1.5,2.4-4.2,3.7-7.4,3.7C1340.5,525.5,1336.4,521.5,1336.4,515.8z"></path>
	<path d="M1374.8,516.6h-15.8c0.3,4,3.3,6.6,7.5,6.6c2.3,0,4.4-0.8,5.8-2.5l1.4,1.7c-1.7,2-4.3,3.1-7.3,3.1c-5.9,0-9.9-4-9.9-9.6   s3.9-9.6,9.2-9.6c5.3,0,9.2,3.9,9.2,9.6C1374.8,516.1,1374.8,516.3,1374.8,516.6z M1358.9,514.7h13.4c-0.3-3.7-3-6.3-6.7-6.3   C1362,508.4,1359.3,511,1358.9,514.7z"></path>
	<path d="M1388.9,500.4c0-1,0.8-1.8,1.9-1.8s1.9,0.8,1.9,1.8c0,1-0.8,1.9-1.9,1.9C1389.7,502.2,1388.9,501.4,1388.9,500.4z    M1389.5,506.4h2.6v18.9h-2.6V506.4z"></path>
	<path d="M1416.6,514.3v11h-2.6v-10.7c0-4-2.1-6-5.7-6c-4.1,0-6.6,2.5-6.6,6.8v9.9h-2.6v-18.9h2.4v3.5c1.4-2.3,3.9-3.6,7.2-3.6   C1413.4,506.2,1416.6,508.9,1416.6,514.3z"></path>
	<path d="M1426.4,504.1v2.2h5.8v2.2h-5.8v16.8h-2.6v-16.8h-3.4v-2.2h3.4V504c0-3.4,2-5.6,5.7-5.6c1.4,0,2.8,0.4,3.8,1.2l-0.9,1.9   c-0.7-0.6-1.7-0.9-2.8-0.9C1427.6,500.6,1426.4,501.8,1426.4,504.1z"></path>
	<path d="M1433.5,515.8c0-5.6,4.1-9.6,9.6-9.6s9.6,4,9.6,9.6s-4.1,9.6-9.6,9.6S1433.5,521.5,1433.5,515.8z M1450.2,515.8   c0-4.4-3-7.4-7-7.4s-7.1,3-7.1,7.4s3,7.4,7.1,7.4S1450.2,520.3,1450.2,515.8z"></path>
	<path d="M1467.5,506.2v2.5c-0.2,0-0.4,0-0.6,0c-4,0-6.4,2.5-6.4,7v9.6h-2.6v-18.9h2.4v3.7C1461.6,507.6,1464,506.2,1467.5,506.2z"></path>
	<path d="M1503.4,514.3v11h-2.6v-10.7c0-4-2-6-5.4-6c-3.9,0-6.3,2.5-6.3,6.8v9.9h-2.6v-10.7c0-4-2-6-5.5-6c-3.9,0-6.3,2.5-6.3,6.8   v9.9h-2.6v-18.9h2.4v3.5c1.3-2.3,3.8-3.6,6.9-3.6c3.1,0,5.6,1.3,6.7,4c1.4-2.4,4.1-4,7.5-4C1500.3,506.2,1503.4,508.9,1503.4,514.3   z"></path>
	<path d="M1524.6,513.6v11.7h-2.4v-3c-1.2,1.9-3.4,3.1-6.5,3.1c-4.3,0-6.9-2.2-6.9-5.5c0-2.9,1.9-5.4,7.3-5.4h6v-1.2   c0-3.2-1.8-5-5.4-5c-2.4,0-4.8,0.9-6.3,2.2l-1.2-1.9c1.9-1.6,4.7-2.6,7.7-2.6C1521.8,506.2,1524.6,508.7,1524.6,513.6z M1522,519.6   v-3.1h-5.9c-3.7,0-4.9,1.4-4.9,3.4c0,2.2,1.8,3.6,4.8,3.6C1518.9,523.5,1521,522.1,1522,519.6z"></path>
	<path d="M1541.5,524.2c-1,0.9-2.5,1.3-4,1.3c-3.6,0-5.5-2-5.5-5.5v-11.4h-3.4v-2.2h3.4v-4.1h2.6v4.1h5.8v2.2h-5.8v11.3   c0,2.2,1.2,3.5,3.3,3.5c1,0,2.1-0.3,2.8-1L1541.5,524.2z"></path>
	<path d="M1545.6,500.4c0-1,0.8-1.8,1.9-1.8s1.9,0.8,1.9,1.8c0,1-0.8,1.9-1.9,1.9C1546.4,502.2,1545.6,501.4,1545.6,500.4z    M1546.2,506.4h2.6v18.9h-2.6V506.4z"></path>
	<path d="M1553.9,515.8c0-5.6,4.1-9.6,9.6-9.6s9.6,4,9.6,9.6s-4.1,9.6-9.6,9.6S1553.9,521.5,1553.9,515.8z M1570.6,515.8   c0-4.4-3-7.4-7-7.4s-7.1,3-7.1,7.4s3,7.4,7.1,7.4S1570.6,520.3,1570.6,515.8z"></path>
	<path d="M1595.8,514.3v11h-2.6v-10.7c0-4-2.1-6-5.7-6c-4.1,0-6.6,2.5-6.6,6.8v9.9h-2.6v-18.9h2.4v3.5c1.4-2.3,3.9-3.6,7.2-3.6   C1592.7,506.2,1595.8,508.9,1595.8,514.3z"></path>
</g>
<g>
	<path d="M259.5,465.5c0,5.4-3.9,8.6-10.3,8.6h-6.8v8h-2.7v-25.2h9.4C255.6,456.9,259.5,460.1,259.5,465.5z M256.8,465.5   c0-4-2.7-6.3-7.7-6.3h-6.7v12.6h6.7C254.2,471.8,256.8,469.5,256.8,465.5z"></path>
	<path d="M273.8,463v2.5c-0.2,0-0.4,0-0.6,0c-4,0-6.4,2.5-6.4,7v9.6h-2.6v-18.9h2.4v3.7C267.9,464.4,270.3,463,273.8,463z"></path>
	<path d="M276.3,472.6c0-5.6,4.1-9.6,9.6-9.6c5.5,0,9.6,4,9.6,9.6s-4.1,9.6-9.6,9.6C280.4,482.3,276.3,478.3,276.3,472.6z    M293,472.6c0-4.4-3-7.4-7-7.4c-4,0-7.1,3-7.1,7.4s3,7.4,7.1,7.4C290,480,293,477.1,293,472.6z"></path>
	<path d="M306.9,455.2c1.4,0,2.8,0.4,3.8,1.2l-0.9,1.9c-0.7-0.6-1.7-0.9-2.8-0.9c-2.2,0-3.3,1.2-3.3,3.6v2.2h5.8v2.2h-5.8v16.8h-2.6   v-16.8h-3.4v-2.2h3.4v-2.3C301.2,457.5,303.2,455.2,306.9,455.2z M319,457.2c0,1-0.8,1.9-1.9,1.9c-1,0-1.9-0.8-1.9-1.8   c0-1,0.8-1.8,1.9-1.8S319,456.2,319,457.2z M315.9,463.2h2.6v18.9h-2.6V463.2z"></path>
	<path d="M322.9,479.9l1.2-2c1.5,1.2,4.1,2.1,6.7,2.1c3.6,0,5.1-1.2,5.1-3.1c0-4.9-12.3-1-12.3-8.5c0-3.1,2.7-5.4,7.5-5.4   c2.4,0,5.1,0.7,6.7,1.8l-1.1,2.1c-1.7-1.2-3.6-1.6-5.6-1.6c-3.4,0-4.9,1.3-4.9,3.1c0,5.1,12.3,1.3,12.3,8.5c0,3.3-2.9,5.4-7.8,5.4   C327.5,482.3,324.5,481.3,322.9,479.9z"></path>
	<path d="M359.6,473.4h-15.8c0.3,4,3.3,6.6,7.5,6.6c2.3,0,4.4-0.8,5.8-2.5l1.4,1.7c-1.7,2-4.3,3.1-7.3,3.1c-5.9,0-9.9-4-9.9-9.6   s3.9-9.6,9.3-9.6c5.3,0,9.2,3.9,9.2,9.6C359.7,472.9,359.6,473.1,359.6,473.4z M343.8,471.5h13.4c-0.3-3.7-3-6.3-6.7-6.3   C346.8,465.2,344.1,467.8,343.8,471.5z"></path>
	<path d="M381.4,473.4h-15.8c0.3,4,3.3,6.6,7.5,6.6c2.3,0,4.4-0.8,5.8-2.5l1.4,1.7c-1.7,2-4.3,3.1-7.3,3.1c-5.9,0-9.9-4-9.9-9.6   s3.9-9.6,9.3-9.6c5.3,0,9.2,3.9,9.2,9.6C381.4,472.9,381.4,473.1,381.4,473.4z M365.6,471.5H379c-0.3-3.7-3-6.3-6.7-6.3   C368.6,465.2,365.9,467.8,365.6,471.5z"></path>
	<path d="M427.3,471.1v11h-2.6v-10.7c0-4-2-6-5.4-6c-3.9,0-6.3,2.5-6.3,6.8v9.9h-2.6v-10.7c0-4-2-6-5.5-6c-3.9,0-6.3,2.5-6.3,6.8   v9.9h-2.6v-18.9h2.4v3.5c1.3-2.3,3.8-3.6,6.9-3.6c3.1,0,5.6,1.3,6.7,4c1.4-2.4,4.1-4,7.5-4C424.3,463,427.3,465.7,427.3,471.1z"></path>
	<path d="M450.8,473.4H435c0.3,4,3.3,6.6,7.5,6.6c2.3,0,4.4-0.8,5.8-2.5l1.4,1.7c-1.7,2-4.3,3.1-7.3,3.1c-5.9,0-9.9-4-9.9-9.6   s3.9-9.6,9.3-9.6c5.3,0,9.2,3.9,9.2,9.6C450.9,472.9,450.8,473.1,450.8,473.4z M435,471.5h13.4c-0.3-3.7-3-6.3-6.7-6.3   C438,465.2,435.3,467.8,435,471.5z"></path>
	<path d="M466.1,481c-1,0.9-2.5,1.3-4,1.3c-3.6,0-5.5-2-5.5-5.5v-11.4h-3.4v-2.2h3.4V459h2.6v4.1h5.8v2.2h-5.8v11.3   c0,2.2,1.2,3.5,3.3,3.5c1,0,2.1-0.3,2.8-1L466.1,481z"></path>
	<path d="M485,470.4v11.7h-2.4v-3c-1.2,1.9-3.4,3.1-6.5,3.1c-4.3,0-6.9-2.2-6.9-5.5c0-2.9,1.9-5.4,7.3-5.4h6v-1.2c0-3.2-1.8-5-5.4-5   c-2.4,0-4.8,0.9-6.3,2.2l-1.2-1.9c1.9-1.6,4.7-2.6,7.7-2.6C482.2,463,485,465.5,485,470.4z M482.4,476.4v-3.1h-5.9   c-3.7,0-4.9,1.4-4.9,3.4c0,2.2,1.8,3.6,4.8,3.6C479.3,480.3,481.4,478.9,482.4,476.4z"></path>
	<path d="M509.3,455.4v26.7h-2.4v-3.7c-1.5,2.6-4.2,3.9-7.3,3.9c-5.4,0-9.4-3.9-9.4-9.6s4-9.6,9.4-9.6c3,0,5.6,1.3,7.2,3.7v-11.4   H509.3z M506.8,472.6c0-4.4-3-7.4-7-7.4c-4,0-7.1,3-7.1,7.4s3,7.4,7.1,7.4C503.8,480,506.8,477.1,506.8,472.6z"></path>
	<path d="M530.7,470.4v11.7h-2.4v-3c-1.2,1.9-3.4,3.1-6.5,3.1c-4.3,0-6.9-2.2-6.9-5.5c0-2.9,1.9-5.4,7.3-5.4h6v-1.2   c0-3.2-1.8-5-5.4-5c-2.4,0-4.8,0.9-6.3,2.2l-1.2-1.9c1.9-1.6,4.7-2.6,7.7-2.6C527.9,463,530.7,465.5,530.7,470.4z M528.2,476.4   v-3.1h-5.9c-3.7,0-4.9,1.4-4.9,3.4c0,2.2,1.8,3.6,4.8,3.6C525,480.3,527.2,478.9,528.2,476.4z"></path>
	<path d="M547.6,481c-1,0.9-2.5,1.3-4,1.3c-3.6,0-5.5-2-5.5-5.5v-11.4h-3.4v-2.2h3.4V459h2.6v4.1h5.8v2.2h-5.8v11.3   c0,2.2,1.2,3.5,3.3,3.5c1,0,2.1-0.3,2.8-1L547.6,481z"></path>
	<path d="M566.6,470.4v11.7h-2.4v-3c-1.2,1.9-3.4,3.1-6.5,3.1c-4.3,0-6.9-2.2-6.9-5.5c0-2.9,1.9-5.4,7.3-5.4h6v-1.2   c0-3.2-1.8-5-5.4-5c-2.4,0-4.8,0.9-6.3,2.2l-1.2-1.9c1.9-1.6,4.7-2.6,7.7-2.6C563.8,463,566.6,465.5,566.6,470.4z M564,476.4v-3.1   h-5.9c-3.7,0-4.9,1.4-4.9,3.4c0,2.2,1.8,3.6,4.8,3.6C560.9,480.3,563,478.9,564,476.4z"></path>
	<path d="M602.1,472.6c0,5.8-4,9.6-9.4,9.6c-3,0-5.6-1.3-7.2-3.7v10.5H583v-25.9h2.4v3.7c1.5-2.5,4.2-3.9,7.3-3.9   C598.1,463,602.1,466.9,602.1,472.6z M599.6,472.6c0-4.4-3.1-7.4-7.1-7.4c-4,0-7.1,3-7.1,7.4c0,4.4,3,7.4,7.1,7.4   C596.5,480,599.6,477.1,599.6,472.6z"></path>
	<path d="M624.4,463.2v18.9H622v-3.5c-1.3,2.3-3.8,3.6-6.8,3.6c-4.8,0-8-2.7-8-8.1v-11h2.6v10.7c0,4,2.1,6.1,5.7,6.1   c4,0,6.4-2.6,6.4-6.9v-9.9H624.4z"></path>
	<path d="M650.8,472.6c0,5.7-4,9.6-9.4,9.6c-3.1,0-5.8-1.4-7.3-3.9v3.7h-2.4v-26.7h2.6v11.4c1.6-2.4,4.2-3.7,7.2-3.7   C646.7,463,650.8,466.9,650.8,472.6z M648.2,472.6c0-4.4-3.1-7.4-7.1-7.4c-4,0-7.1,3-7.1,7.4s3,7.4,7.1,7.4   C645.2,480,648.2,477.1,648.2,472.6z"></path>
	<path d="M656,455.4h2.6v26.7H656V455.4z"></path>
	<path d="M665.1,457.2c0-1,0.8-1.8,1.9-1.8s1.9,0.8,1.9,1.8c0,1-0.8,1.9-1.9,1.9C665.9,459,665.1,458.2,665.1,457.2z M665.7,463.2   h2.6v18.9h-2.6V463.2z"></path>
	<path d="M672.7,479.9l1.2-2c1.5,1.2,4.1,2.1,6.7,2.1c3.6,0,5.1-1.2,5.1-3.1c0-4.9-12.3-1-12.3-8.5c0-3.1,2.7-5.4,7.5-5.4   c2.4,0,5.1,0.7,6.7,1.8l-1.1,2.1c-1.7-1.2-3.6-1.6-5.6-1.6c-3.4,0-4.9,1.3-4.9,3.1c0,5.1,12.3,1.3,12.3,8.5c0,3.3-2.9,5.4-7.8,5.4   C677.3,482.3,674.3,481.3,672.7,479.9z"></path>
	<path d="M710.4,471.1v11h-2.6v-10.7c0-4-2.1-6-5.7-6c-4.1,0-6.6,2.5-6.6,6.8v9.9H693v-26.7h2.6v11.1c1.4-2.2,3.9-3.5,7.1-3.5   C707.2,463,710.4,465.7,710.4,471.1z"></path>
	<path d="M733.9,473.4h-15.8c0.3,4,3.3,6.6,7.5,6.6c2.3,0,4.4-0.8,5.8-2.5l1.4,1.7c-1.7,2-4.3,3.1-7.3,3.1c-5.9,0-9.9-4-9.9-9.6   s3.9-9.6,9.2-9.6c5.3,0,9.2,3.9,9.2,9.6C733.9,472.9,733.9,473.1,733.9,473.4z M718.1,471.5h13.4c-0.3-3.7-3-6.3-6.7-6.3   C721.1,465.2,718.4,467.8,718.1,471.5z"></path>
	<path d="M756.4,455.4v26.7H754v-3.7c-1.5,2.6-4.2,3.9-7.3,3.9c-5.4,0-9.4-3.9-9.4-9.6s4-9.6,9.4-9.6c3,0,5.6,1.3,7.2,3.7v-11.4   H756.4z M753.9,472.6c0-4.4-3-7.4-7-7.4c-4,0-7.1,3-7.1,7.4s3,7.4,7.1,7.4C750.9,480,753.9,477.1,753.9,472.6z"></path>
	<path d="M335,524.2c-1,0.9-2.5,1.3-4,1.3c-3.6,0-5.5-2-5.5-5.5v-11.4h-3.4v-2.2h3.4v-4.1h2.6v4.1h5.8v2.2H328v11.3   c0,2.2,1.2,3.5,3.3,3.5c1,0,2.1-0.3,2.8-1L335,524.2z"></path>
	<path d="M337,515.8c0-5.6,4.1-9.6,9.6-9.6c5.5,0,9.6,4,9.6,9.6s-4.1,9.6-9.6,9.6C341.1,525.5,337,521.5,337,515.8z M353.7,515.8   c0-4.4-3-7.4-7-7.4c-4,0-7.1,3-7.1,7.4s3,7.4,7.1,7.4C350.7,523.2,353.7,520.3,353.7,515.8z"></path>
	<path d="M391.2,508.8c0,5.4-3.9,8.6-10.3,8.6h-6.8v8h-2.7v-25.2h9.4C387.3,500.1,391.2,503.3,391.2,508.8z M388.6,508.8   c0-4-2.7-6.3-7.7-6.3h-6.7V515h6.7C385.9,515,388.6,512.7,388.6,508.8z"></path>
	<path d="M413.9,506.4v18.9h-2.4v-3.5c-1.3,2.3-3.8,3.6-6.8,3.6c-4.8,0-8-2.7-8-8.1v-11h2.6v10.7c0,4,2.1,6.1,5.7,6.1   c4,0,6.4-2.6,6.4-6.9v-9.9H413.9z"></path>
	<path d="M430.6,506.2v2.5c-0.2,0-0.4,0-0.6,0c-4,0-6.4,2.5-6.4,7v9.6H421v-18.9h2.4v3.7C424.7,507.6,427.1,506.2,430.6,506.2z"></path>
	<path d="M451.9,506.4l-8.4,18.9h-2.6l-8.4-18.9h2.7l7.1,16.1l7.2-16.1H451.9z"></path>
	<path d="M454.9,500.4c0-1,0.8-1.8,1.9-1.8s1.9,0.8,1.9,1.8c0,1-0.8,1.9-1.9,1.9C455.8,502.2,454.9,501.4,454.9,500.4z M455.5,506.4   h2.6v18.9h-2.6V506.4z"></path>
	<path d="M481.7,516.6h-15.8c0.3,4,3.3,6.6,7.5,6.6c2.3,0,4.4-0.8,5.8-2.5l1.4,1.7c-1.7,2-4.3,3.1-7.3,3.1c-5.9,0-9.9-4-9.9-9.6   s3.9-9.6,9.3-9.6c5.3,0,9.2,3.9,9.2,9.6C481.7,516.1,481.7,516.3,481.7,516.6z M465.8,514.7h13.4c-0.3-3.7-3-6.3-6.7-6.3   C468.9,508.4,466.2,511,465.8,514.7z"></path>
	<path d="M514.4,506.4l-7.2,18.9h-2.4l-6-15.5l-6,15.5h-2.4l-7.1-18.9h2.4l5.9,16.1l6.1-16.1h2.2l6,16.1l6-16.1H514.4z"></path>
	<path d="M528.2,500.1h10.3c8.1,0,13.5,5.2,13.5,12.6c0,7.4-5.4,12.6-13.5,12.6h-10.3V500.1z M538.3,523c6.7,0,11-4.2,11-10.3   s-4.3-10.3-11-10.3h-7.5V523H538.3z"></path>
	<path d="M571.7,513.6v11.7h-2.4v-3c-1.2,1.9-3.4,3.1-6.5,3.1c-4.3,0-6.9-2.2-6.9-5.5c0-2.9,1.9-5.4,7.3-5.4h6v-1.2   c0-3.2-1.8-5-5.4-5c-2.4,0-4.8,0.9-6.3,2.2l-1.2-1.9c1.9-1.6,4.7-2.6,7.7-2.6C568.9,506.2,571.7,508.7,571.7,513.6z M569.1,519.6   v-3.1h-5.9c-3.7,0-4.9,1.4-4.9,3.4c0,2.2,1.8,3.6,4.8,3.6C566,523.5,568.1,522.1,569.1,519.6z"></path>
	<path d="M588.6,524.2c-1,0.9-2.5,1.3-4,1.3c-3.6,0-5.5-2-5.5-5.5v-11.4h-3.4v-2.2h3.4v-4.1h2.6v4.1h5.8v2.2h-5.8v11.3   c0,2.2,1.2,3.5,3.3,3.5c1,0,2.1-0.3,2.8-1L588.6,524.2z"></path>
	<path d="M607.5,513.6v11.7h-2.4v-3c-1.2,1.9-3.4,3.1-6.5,3.1c-4.3,0-6.9-2.2-6.9-5.5c0-2.9,1.9-5.4,7.3-5.4h6v-1.2   c0-3.2-1.8-5-5.4-5c-2.4,0-4.8,0.9-6.3,2.2l-1.2-1.9c1.9-1.6,4.7-2.6,7.7-2.6C604.8,506.2,607.5,508.7,607.5,513.6z M605,519.6   v-3.1H599c-3.7,0-4.9,1.4-4.9,3.4c0,2.2,1.8,3.6,4.8,3.6C601.9,523.5,604,522.1,605,519.6z"></path>
	<path d="M622.2,512.7c0-7.4,5.6-12.8,13.2-12.8c3.7,0,7,1.2,9.2,3.7l-1.7,1.7c-2.1-2.1-4.6-3-7.5-3c-6.1,0-10.7,4.5-10.7,10.4   c0,6,4.6,10.4,10.7,10.4c2.9,0,5.4-0.9,7.5-3l1.7,1.7c-2.2,2.4-5.5,3.7-9.3,3.7C627.8,525.5,622.2,520.1,622.2,512.7z"></path>
	<path d="M663.8,513.6v11.7h-2.4v-3c-1.2,1.9-3.4,3.1-6.5,3.1c-4.3,0-6.9-2.2-6.9-5.5c0-2.9,1.9-5.4,7.3-5.4h6v-1.2   c0-3.2-1.8-5-5.4-5c-2.4,0-4.8,0.9-6.3,2.2l-1.2-1.9c1.9-1.6,4.7-2.6,7.7-2.6C661,506.2,663.8,508.7,663.8,513.6z M661.3,519.6   v-3.1h-5.9c-3.7,0-4.9,1.4-4.9,3.4c0,2.2,1.8,3.6,4.8,3.6C658.1,523.5,660.2,522.1,661.3,519.6z"></path>
	<path d="M680.7,524.2c-1,0.9-2.5,1.3-4,1.3c-3.6,0-5.5-2-5.5-5.5v-11.4h-3.4v-2.2h3.4v-4.1h2.6v4.1h5.8v2.2h-5.8v11.3   c0,2.2,1.2,3.5,3.3,3.5c1,0,2.1-0.3,2.8-1L680.7,524.2z"></path>
	<path d="M699.7,513.6v11.7h-2.4v-3c-1.2,1.9-3.4,3.1-6.5,3.1c-4.3,0-6.9-2.2-6.9-5.5c0-2.9,1.9-5.4,7.3-5.4h6v-1.2   c0-3.2-1.8-5-5.4-5c-2.4,0-4.8,0.9-6.3,2.2l-1.2-1.9c1.9-1.6,4.7-2.6,7.7-2.6C696.9,506.2,699.7,508.7,699.7,513.6z M697.1,519.6   v-3.1h-5.9c-3.7,0-4.9,1.4-4.9,3.4c0,2.2,1.8,3.6,4.8,3.6C694,523.5,696.1,522.1,697.1,519.6z"></path>
	<path d="M706.6,498.6h2.6v26.7h-2.6V498.6z"></path>
	<path d="M714.4,515.8c0-5.6,4.1-9.6,9.6-9.6s9.6,4,9.6,9.6s-4.1,9.6-9.6,9.6S714.4,521.5,714.4,515.8z M731.1,515.8   c0-4.4-3-7.4-7-7.4s-7.1,3-7.1,7.4s3,7.4,7.1,7.4S731.1,520.3,731.1,515.8z"></path>
	<path d="M756.4,506.4V523c0,6.5-3.2,9.5-9.5,9.5c-3.5,0-6.8-1-8.8-2.9l1.3-1.9c1.8,1.6,4.5,2.6,7.5,2.6c4.8,0,7-2.2,7-6.9v-2.4   c-1.6,2.4-4.3,3.7-7.4,3.7c-5.4,0-9.5-3.8-9.5-9.2s4.1-9.1,9.5-9.1c3.2,0,5.9,1.3,7.5,3.8v-3.6H756.4z M753.9,515.4   c0-4.1-3-6.9-7.2-6.9c-4.2,0-7.2,2.8-7.2,6.9s3,6.9,7.2,6.9C750.9,522.3,753.9,519.5,753.9,515.4z"></path>
</g>
</svg>