<svg id="ICONS-64x" xmlns="http://www.w3.org/2000/svg" viewBox="0 0 64 64">
  <defs>
    <style>
      .cls-1 {
        fill: #2bc7f4;
      }

      .cls-2 {
        fill: none;
      }

      .cls-3 {
        fill: #556a8a;
      }

      .cls-4 {
        fill: #fff;
        stroke: #556a8a;
        stroke-miterlimit: 10;
        stroke-width: 2px;
      }
    </style>
  </defs>
  <title>i_investigate</title>
  <path class="cls-1" d="M61.31,19.08A12,12,0,0,0,53.4,13.3c-.31-2-1.4-11.51-11-11.4-5,.06-8.28,3-10.43,6.49-7.44-6.88-16.83-.2-16.45,6.86a11.1,11.1,0,0,0-13.4,11c0,4.33,2.85,8,6.4,10.15,0,0,.26.16.68.38A10.59,10.59,0,0,0,12.55,38c.09,0,40.85,0,40.85,0,5.56-1.13,9.5-7,9.5-12.86A12.19,12.19,0,0,0,61.31,19.08Z"/>
  <rect class="cls-2" width="64" height="64"/>
  <path class="cls-3" d="M63,59.83a3,3,0,0,1-5,1.35l-9.72-9.72L45,48.28,43,46c-1.17-1.17-.54-2.21.63-3.38A3,3,0,0,1,45,41.86c1-.27,1.24-.63,2,.14l5.46,5.22,9.73,9.73A3,3,0,0,1,63,59.83Z"/>
  <path class="cls-4" d="M33.49,15.5a16,16,0,1,0,16,16A16,16,0,0,0,33.49,15.5Z"/>
  <line class="cls-4" x1="26" y1="26" x2="41" y2="26"/>
  <line class="cls-4" x1="26" y1="31" x2="41" y2="31"/>
  <line class="cls-4" x1="26" y1="36" x2="41" y2="36"/>
</svg>
