<svg xmlns="http://www.w3.org/2000/svg" xmlns:xlink="http://www.w3.org/1999/xlink" viewBox="0 0 322.908 83.88">
  <defs>
    <linearGradient id="linear-gradient" x1="141.519" y1="363.131" x2="141.519" y2="403.131" gradientTransform="matrix(1, 0, 0, -1, 0, 439.837)" gradientUnits="userSpaceOnUse">
      <stop offset="0" stop-color="#0078d4"/>
      <stop offset="0.82" stop-color="#5ea0ef"/>
    </linearGradient>
    <linearGradient id="linear-gradient-2" x1="73.718" y1="386.306" x2="73.718" y2="410.306" xlink:href="#linear-gradient"/>
    <linearGradient id="linear-gradient-3" x1="73.718" y1="355.957" x2="73.718" y2="379.957" xlink:href="#linear-gradient"/>
    <linearGradient id="linear-gradient-4" x1="292.348" y1="47.035" x2="292.348" y2="51.629" gradientUnits="userSpaceOnUse">
      <stop offset="0" stop-color="#5ea0ef"/>
      <stop offset="0.18" stop-color="#559cec"/>
      <stop offset="0.47" stop-color="#3c91e5"/>
      <stop offset="0.84" stop-color="#1380da"/>
      <stop offset="1" stop-color="#0078d4"/>
    </linearGradient>
    <linearGradient id="linear-gradient-5" x1="292.348" y1="54.421" x2="292.348" y2="59.014" xlink:href="#linear-gradient-4"/>
    <linearGradient id="linear-gradient-6" x1="292.348" y1="61.806" x2="292.348" y2="66.4" xlink:href="#linear-gradient-4"/>
  </defs>
  <g id="Shapes">
    <rect width="322.908" height="83.88" fill="#fff"/>
    <g>
      <path d="M143.779,37.012H126.757a1.318,1.318,0,0,0-1.342,1.294V75.081a1.319,1.319,0,0,0,1.295,1.342h29.547a1.342,1.342,0,0,0,1.365-1.318V50.761a1.365,1.365,0,0,0-1.365-1.319h-9.794a1.341,1.341,0,0,1-1.342-1.341V38.354a1.319,1.319,0,0,0-1.3-1.342Z" fill="#fff"/>
      <path d="M143.167,38.73v9.229a3.366,3.366,0,0,0,3.366,3.367h9.418V74.7h-28.77V38.73h15.986m.635-2.024h-17.28a1.366,1.366,0,0,0-1.366,1.365V75.34a1.367,1.367,0,0,0,1.366,1.366h29.994a1.366,1.366,0,0,0,1.365-1.366V50.69a1.366,1.366,0,0,0-1.365-1.248h-9.983a1.365,1.365,0,0,1-1.365-1.365V38.071A1.365,1.365,0,0,0,143.8,36.706Z" fill="url(#linear-gradient)"/>
      <path d="M157.34,49.584l-12.6-12.572V47.253a2.354,2.354,0,0,0,2.354,2.354Z" fill="#0078d4"/>
      <path d="M133.608,60.178A2.85,2.85,0,0,1,133,62.132a2.094,2.094,0,0,1-1.7.683,2.37,2.37,0,0,1-.918-.188V61.214a1.3,1.3,0,0,0,.824.283c.635,0,.965-.495.965-1.46v-3.7h1.436Zm1.083,2.355V61.12a3.068,3.068,0,0,0,.848.494,2.867,2.867,0,0,0,.894.165h.471l.353-.141a.8.8,0,0,0,.189-.424.475.475,0,0,0,0-.259.543.543,0,0,0,0-.329,1.1,1.1,0,0,0-.306-.259,1.78,1.78,0,0,0-.424-.236l-.542-.235a2.948,2.948,0,0,1-1.106-.754,1.6,1.6,0,0,1-.377-1.083,2.049,2.049,0,0,1,.189-.871,2.148,2.148,0,0,1,.447-.518,2.73,2.73,0,0,1,.8-.329,4.334,4.334,0,0,1,.966,0,4.693,4.693,0,0,1,.871,0,3.08,3.08,0,0,1,.706.188v1.318a1.25,1.25,0,0,0-.353-.188,1.037,1.037,0,0,0-.377-.141l-.259-.141h-.894a1.357,1.357,0,0,0-.33.141.5.5,0,0,0-.283.471.639.639,0,0,0,0,.282,1.349,1.349,0,0,0,.259.236l.377.212.494.235a4.62,4.62,0,0,1,.683.33,2.958,2.958,0,0,1,.518.4,1.75,1.75,0,0,1,.33.518,2.085,2.085,0,0,1,.118.682,1.756,1.756,0,0,1-.212.9,1.6,1.6,0,0,1-.542.589,2.216,2.216,0,0,1-.8.306,4.334,4.334,0,0,1-.966,0,6.517,6.517,0,0,1-.988,0,2.6,2.6,0,0,1-.754-.236Zm8.052.376a2.966,2.966,0,0,1-2.213-.894,3.25,3.25,0,0,1-.871-2.355,3.483,3.483,0,0,1,.871-2.354,3.084,3.084,0,0,1,2.354-.942,2.917,2.917,0,0,1,2.213.9,3.29,3.29,0,0,1,.824,2.354,3.365,3.365,0,0,1-.871,2.354,2.917,2.917,0,0,1-2.307.848Zm0-5.344a1.436,1.436,0,0,0-1.2.565,2.731,2.731,0,0,0,0,2.99,1.46,1.46,0,0,0,1.154.541,1.436,1.436,0,0,0,1.177-.541,2.961,2.961,0,0,0,.024-3.014,1.438,1.438,0,0,0-1.083-.635Zm9.841,5.227h-1.46l-2.613-4a5.724,5.724,0,0,1-.306-.518h0v4.521h-1.342V56.341h1.554l2.5,3.861.33.518h0a6.029,6.029,0,0,1,0-.871V56.341h1.366Z" fill="#5ea0ef"/>
    </g>
    <g>
      <g>
        <path d="M75.074,29.715H64.861a.792.792,0,0,0-.806.777V52.557a.792.792,0,0,0,.777.8H82.56a.805.805,0,0,0,.82-.791V37.965a.821.821,0,0,0-.82-.792H76.684a.8.8,0,0,1-.8-.8V30.52a.791.791,0,0,0-.777-.8Z" fill="#fff"/>
        <path d="M74.706,30.746v5.538a2.021,2.021,0,0,0,2.02,2.02h5.651V52.331H65.115V30.746h9.591m.382-1.215H64.719a.82.82,0,0,0-.819.82V52.712a.819.819,0,0,0,.819.819h18a.819.819,0,0,0,.819-.819V37.922a.82.82,0,0,0-.819-.749h-5.99a.819.819,0,0,1-.819-.819v-6A.82.82,0,0,0,75.088,29.531Z" fill="url(#linear-gradient-2)"/>
        <path d="M83.21,37.258l-7.557-7.543V35.86a1.412,1.412,0,0,0,1.412,1.412Z" fill="#0078d4"/>
        <path d="M68.971,43.615a1.71,1.71,0,0,1-.367,1.172,1.259,1.259,0,0,1-1.017.41,1.411,1.411,0,0,1-.551-.113v-.848a.778.778,0,0,0,.494.17c.382,0,.58-.3.58-.876V41.312h.861Zm.65,1.413V44.18a1.882,1.882,0,0,0,.509.3,1.716,1.716,0,0,0,.536.1h.283l.212-.084a.482.482,0,0,0,.113-.255.291.291,0,0,0,0-.155.334.334,0,0,0,0-.2.669.669,0,0,0-.184-.155,1.07,1.07,0,0,0-.254-.141l-.325-.142a1.758,1.758,0,0,1-.664-.452.96.96,0,0,1-.226-.649,1.225,1.225,0,0,1,.113-.523A1.306,1.306,0,0,1,70,41.51a1.646,1.646,0,0,1,.481-.2,2.669,2.669,0,0,1,.579,0,3.045,3.045,0,0,1,.523,0,1.875,1.875,0,0,1,.423.113v.791A.758.758,0,0,0,71.8,42.1a.624.624,0,0,0-.226-.084l-.155-.085h-.537a.845.845,0,0,0-.2.085.3.3,0,0,0-.169.282.375.375,0,0,0,0,.17.77.77,0,0,0,.155.141l.226.127.3.141a2.814,2.814,0,0,1,.41.2,1.808,1.808,0,0,1,.31.24,1.048,1.048,0,0,1,.2.311,1.245,1.245,0,0,1,.071.41,1.053,1.053,0,0,1-.127.536.97.97,0,0,1-.325.354,1.322,1.322,0,0,1-.481.183,2.548,2.548,0,0,1-.579,0,3.669,3.669,0,0,1-.593,0,1.563,1.563,0,0,1-.452-.141Zm4.831.226a1.784,1.784,0,0,1-1.328-.537A1.952,1.952,0,0,1,72.6,43.3a2.088,2.088,0,0,1,.522-1.412,1.848,1.848,0,0,1,1.413-.565,1.749,1.749,0,0,1,1.328.536,1.978,1.978,0,0,1,.494,1.413,2.013,2.013,0,0,1-.523,1.412,1.749,1.749,0,0,1-1.384.509Zm0-3.207a.861.861,0,0,0-.72.339,1.636,1.636,0,0,0,0,1.794.875.875,0,0,0,.692.325.862.862,0,0,0,.706-.325,1.777,1.777,0,0,0,.014-1.808.862.862,0,0,0-.65-.382Zm5.905,3.136h-.876l-1.568-2.4a3.326,3.326,0,0,1-.184-.31h0v2.712h-.8V41.312h.932l1.5,2.317.2.311h0a3.512,3.512,0,0,1,0-.523V41.312h.819Z" fill="#5ea0ef"/>
      </g>
      <g>
        <path d="M75.074,60.063H64.861a.792.792,0,0,0-.806.777V82.905a.792.792,0,0,0,.777.8H82.56a.805.805,0,0,0,.82-.791V68.313a.821.821,0,0,0-.82-.791H76.684a.805.805,0,0,1-.8-.805V60.869a.792.792,0,0,0-.777-.806Z" fill="#fff"/>
        <path d="M74.706,61.1v5.537a2.02,2.02,0,0,0,2.02,2.02h5.651V82.679H65.115V61.1h9.591m.382-1.215H64.719a.819.819,0,0,0-.819.819V83.06a.82.82,0,0,0,.819.82h18a.82.82,0,0,0,.819-.82V68.271a.819.819,0,0,0-.819-.749h-5.99a.819.819,0,0,1-.819-.819v-6A.819.819,0,0,0,75.088,59.88Z" fill="url(#linear-gradient-3)"/>
        <path d="M83.21,67.607l-7.557-7.544v6.145a1.413,1.413,0,0,0,1.412,1.413Z" fill="#0078d4"/>
        <path d="M68.971,73.963a1.714,1.714,0,0,1-.367,1.173,1.255,1.255,0,0,1-1.017.409,1.393,1.393,0,0,1-.551-.113v-.847a.771.771,0,0,0,.494.169c.382,0,.58-.3.58-.875V71.661h.861Zm.65,1.413v-.848a1.831,1.831,0,0,0,.509.3,1.717,1.717,0,0,0,.536.1h.283l.212-.085a.482.482,0,0,0,.113-.254.291.291,0,0,0,0-.155.334.334,0,0,0,0-.2.673.673,0,0,0-.184-.156,1.106,1.106,0,0,0-.254-.141l-.325-.141a1.77,1.77,0,0,1-.664-.452.963.963,0,0,1-.226-.65,1.228,1.228,0,0,1,.113-.523,1.282,1.282,0,0,1,.268-.31,1.646,1.646,0,0,1,.481-.2,2.548,2.548,0,0,1,.579,0,2.855,2.855,0,0,1,.523,0,1.875,1.875,0,0,1,.423.113v.791a.733.733,0,0,0-.212-.113.608.608,0,0,0-.226-.085l-.155-.085h-.537a.845.845,0,0,0-.2.085.3.3,0,0,0-.169.283.371.371,0,0,0,0,.169.741.741,0,0,0,.155.141l.226.128.3.141a2.814,2.814,0,0,1,.41.2,1.76,1.76,0,0,1,.31.24,1.043,1.043,0,0,1,.2.31,1.249,1.249,0,0,1,.071.41,1.057,1.057,0,0,1-.127.537.967.967,0,0,1-.325.353,1.324,1.324,0,0,1-.481.184,2.669,2.669,0,0,1-.579,0,3.913,3.913,0,0,1-.593,0,1.565,1.565,0,0,1-.452-.142Zm4.831.226a1.78,1.78,0,0,1-1.328-.537,1.951,1.951,0,0,1-.522-1.412,2.091,2.091,0,0,1,.522-1.413,1.851,1.851,0,0,1,1.413-.565,1.75,1.75,0,0,1,1.328.537,1.977,1.977,0,0,1,.494,1.412,2.017,2.017,0,0,1-.523,1.413,1.748,1.748,0,0,1-1.384.508Zm0-3.207a.864.864,0,0,0-.72.339,1.636,1.636,0,0,0,0,1.794.872.872,0,0,0,.692.325.859.859,0,0,0,.706-.325,1.777,1.777,0,0,0,.014-1.808.861.861,0,0,0-.65-.381Zm5.905,3.136h-.876l-1.568-2.4a3.342,3.342,0,0,1-.184-.311h0v2.712h-.8v-3.87h.932l1.5,2.316.2.311h0a3.5,3.5,0,0,1,0-.522V71.661h.819Z" fill="#5ea0ef"/>
      </g>
    </g>
    <line x1="85.9" y1="47.318" x2="121.1" y2="47.318" fill="none" stroke="#3c3c41" stroke-miterlimit="10"/>
    <line x1="85.9" y1="69.318" x2="121.1" y2="69.318" fill="none" stroke="#3c3c41" stroke-miterlimit="10"/>
    <g>
      <line x1="163.1" y1="56.118" x2="258.918" y2="56.118" fill="none" stroke="#3c3c41" stroke-miterlimit="10"/>
      <polygon points="257.824 59.858 264.3 56.118 257.824 52.379 257.824 59.858" fill="#3c3c41"/>
    </g>
    <g>
      <g opacity="0.6">
        <path d="M314.416,33.86v3.719h-10.29a.837.837,0,0,1-.836-.836v-3.69a.837.837,0,0,1,.836-.836h8.647a1.643,1.643,0,0,1,1.643,1.643Z" fill="#999"/>
        <path d="M314.416,33.86v3.719h-10.29a.837.837,0,0,1-.836-.836v-3.69a.837.837,0,0,1,.836-.836h8.647a1.643,1.643,0,0,1,1.643,1.643Z" fill="#999" opacity="0.5" style="isolation: isolate"/>
      </g>
      <g opacity="0.6">
        <path d="M314.416,75.856v3.718a1.642,1.642,0,0,1-1.643,1.643h-8.647a.836.836,0,0,1-.836-.836h0V76.663a.837.837,0,0,1,.836-.807Z" fill="#999"/>
        <path d="M314.416,75.856v3.718a1.642,1.642,0,0,1-1.643,1.643h-8.647a.836.836,0,0,1-.836-.836h0V76.663a.837.837,0,0,1,.836-.807Z" fill="#999" opacity="0.5" style="isolation: isolate"/>
      </g>
      <path d="M312.773,81.217h-3.6v-49h3.6a1.643,1.643,0,0,1,1.643,1.643V79.6A1.643,1.643,0,0,1,312.773,81.217Z" fill="#949494" opacity="0.6"/>
    </g>
    <g>
      <g opacity="0.6">
        <path d="M280.754,33.058v3.718a.836.836,0,0,1-.836.835H269.542V33.865a1.643,1.643,0,0,1,1.643-1.643h8.646a.836.836,0,0,1,.918.745A.908.908,0,0,1,280.754,33.058Z" fill="#999"/>
        <path d="M280.754,33.058v3.718a.836.836,0,0,1-.836.835H269.542V33.865a1.643,1.643,0,0,1,1.643-1.643h8.646a.836.836,0,0,1,.918.745A.908.908,0,0,1,280.754,33.058Z" fill="#999" opacity="0.5" style="isolation: isolate"/>
      </g>
      <g opacity="0.6">
        <path d="M280.754,76.664v3.718a.836.836,0,0,1-.836.835h-8.647a1.642,1.642,0,0,1-1.642-1.642h0V75.857h10.2a.835.835,0,0,1,.918.744C280.752,76.622,280.753,76.643,280.754,76.664Z" fill="#999"/>
        <path d="M280.754,76.664v3.718a.836.836,0,0,1-.836.835h-8.647a1.642,1.642,0,0,1-1.642-1.642h0V75.857h10.2a.835.835,0,0,1,.918.744C280.752,76.622,280.753,76.643,280.754,76.664Z" fill="#999" opacity="0.5" style="isolation: isolate"/>
      </g>
      <path d="M271.185,32.222h3.6v49h-3.6a1.643,1.643,0,0,1-1.643-1.642V33.865A1.643,1.643,0,0,1,271.185,32.222Z" fill="#949494" opacity="0.6"/>
    </g>
    <rect x="278.511" y="40.194" width="27.115" height="33.047" rx="1" fill="none" stroke="#949494" stroke-miterlimit="10" stroke-width="2"/>
    <g>
      <rect x="282.009" y="47.035" width="20.679" height="4.594" fill="url(#linear-gradient-4)"/>
      <rect x="282.009" y="54.421" width="20.679" height="4.594" fill="url(#linear-gradient-5)"/>
      <rect x="282.009" y="61.806" width="20.679" height="4.594" fill="url(#linear-gradient-6)"/>
    </g>
    <rect x="268.176" y="44.203" width="8.057" height="25.781" fill="#fff"/>
    <rect x="307.765" y="44.203" width="8.057" height="25.781" fill="#fff"/>
  </g>
  <g id="Text">
    <g>
      <path d="M137.9,12.2h-.978V6.564q0-.668.082-1.634h-.023a5.262,5.262,0,0,1-.252.814L133.854,12.2h-.48l-2.865-6.41a5.031,5.031,0,0,1-.252-.861h-.024q.048.5.047,1.646V12.2h-.949V3.8h1.3l2.578,5.859a7.572,7.572,0,0,1,.387,1.008h.035q.252-.692.4-1.031L136.667,3.8h1.23Z" fill="#1e1e1e"/>
      <path d="M144.272,12.2h-.96v-.937h-.024a2.013,2.013,0,0,1-1.846,1.078,1.97,1.97,0,0,1-1.4-.475,1.643,1.643,0,0,1-.507-1.26q0-1.681,1.981-1.957l1.8-.252q0-1.529-1.237-1.529a2.955,2.955,0,0,0-1.957.738V6.623a3.719,3.719,0,0,1,2.039-.562q2.115,0,2.115,2.238Zm-.96-3.035-1.448.2a2.364,2.364,0,0,0-1.008.331.956.956,0,0,0-.339.841.916.916,0,0,0,.313.718,1.213,1.213,0,0,0,.835.278,1.543,1.543,0,0,0,1.181-.5,1.792,1.792,0,0,0,.466-1.268Z" fill="#1e1e1e"/>
      <path d="M146.575,4.678a.608.608,0,0,1-.439-.176.594.594,0,0,1-.182-.445.615.615,0,0,1,.621-.627.619.619,0,0,1,.448.178.6.6,0,0,1,.185.449.593.593,0,0,1-.185.439A.615.615,0,0,1,146.575,4.678Zm.469,7.523h-.961v-6h.961Z" fill="#1e1e1e"/>
      <path d="M153.97,12.2h-.961V8.779q0-1.909-1.395-1.91a1.513,1.513,0,0,0-1.192.542,2.007,2.007,0,0,0-.472,1.368V12.2h-.961v-6h.961v1h.024a2.164,2.164,0,0,1,1.968-1.136,1.833,1.833,0,0,1,1.506.635,2.83,2.83,0,0,1,.522,1.837Z" fill="#1e1e1e"/>
      <path d="M121.731,25.343a1.85,1.85,0,0,1-.9.187q-1.576,0-1.576-1.758v-3.55h-1.031V19.4h1.031V17.937l.961-.311V19.4h1.511v.821H120.22V23.6a1.4,1.4,0,0,0,.2.861.817.817,0,0,0,.679.258,1.007,1.007,0,0,0,.627-.2Z" fill="#1e1e1e"/>
      <path d="M127.837,22.642H123.6a2.237,2.237,0,0,0,.539,1.546,1.854,1.854,0,0,0,1.418.545,2.946,2.946,0,0,0,1.863-.668v.9a3.481,3.481,0,0,1-2.092.574,2.534,2.534,0,0,1-2-.817,3.349,3.349,0,0,1-.727-2.3,3.279,3.279,0,0,1,.794-2.282,2.547,2.547,0,0,1,1.972-.882,2.256,2.256,0,0,1,1.822.761,3.176,3.176,0,0,1,.645,2.116Zm-.984-.815a1.954,1.954,0,0,0-.4-1.3,1.368,1.368,0,0,0-1.1-.463,1.551,1.551,0,0,0-1.155.487,2.214,2.214,0,0,0-.586,1.271Z" fill="#1e1e1e"/>
      <path d="M137.81,25.4h-.961V21.956a2.6,2.6,0,0,0-.308-1.441,1.167,1.167,0,0,0-1.034-.446,1.281,1.281,0,0,0-1.046.563,2.152,2.152,0,0,0-.431,1.347V25.4h-.961V21.839q0-1.77-1.365-1.77a1.265,1.265,0,0,0-1.043.531,2.192,2.192,0,0,0-.41,1.379V25.4h-.961v-6h.961v.95h.023a2.039,2.039,0,0,1,1.864-1.09,1.734,1.734,0,0,1,1.7,1.242,2.14,2.14,0,0,1,1.992-1.242q1.98,0,1.981,2.443Z" fill="#1e1e1e"/>
      <path d="M140.61,24.534h-.023v3.627h-.961V19.4h.961v1.055h.023a2.272,2.272,0,0,1,2.075-1.2,2.2,2.2,0,0,1,1.81.8,3.338,3.338,0,0,1,.651,2.16,3.723,3.723,0,0,1-.733,2.411,2.439,2.439,0,0,1-2,.905A2.008,2.008,0,0,1,140.61,24.534Zm-.023-2.42v.838a1.786,1.786,0,0,0,.483,1.263,1.725,1.725,0,0,0,2.6-.15,3.063,3.063,0,0,0,.5-1.857,2.416,2.416,0,0,0-.463-1.57,1.531,1.531,0,0,0-1.254-.569,1.7,1.7,0,0,0-1.347.583A2.141,2.141,0,0,0,140.587,22.114Z" fill="#1e1e1e"/>
      <path d="M147.642,25.4h-.961V16.519h.961Z" fill="#1e1e1e"/>
      <path d="M153.882,25.4h-.961v-.937H152.9a2.011,2.011,0,0,1-1.845,1.078,1.971,1.971,0,0,1-1.4-.475,1.645,1.645,0,0,1-.506-1.259q0-1.681,1.98-1.957l1.8-.252q0-1.53-1.236-1.53a2.95,2.95,0,0,0-1.957.739v-.985a3.715,3.715,0,0,1,2.039-.562q2.115,0,2.115,2.238Zm-.961-3.035-1.447.2a2.354,2.354,0,0,0-1.008.331.955.955,0,0,0-.34.841.915.915,0,0,0,.313.718,1.21,1.21,0,0,0,.835.278,1.542,1.542,0,0,0,1.181-.5,1.786,1.786,0,0,0,.466-1.268Z" fill="#1e1e1e"/>
      <path d="M158.476,25.343a1.857,1.857,0,0,1-.9.187Q156,25.53,156,23.772v-3.55h-1.031V19.4H156V17.937l.961-.311V19.4h1.512v.821h-1.512V23.6a1.4,1.4,0,0,0,.205.861.818.818,0,0,0,.68.258,1.011,1.011,0,0,0,.627-.2Z" fill="#1e1e1e"/>
      <path d="M164.581,22.642h-4.236a2.237,2.237,0,0,0,.539,1.546,1.856,1.856,0,0,0,1.418.545,2.942,2.942,0,0,0,1.863-.668v.9a3.481,3.481,0,0,1-2.092.574,2.537,2.537,0,0,1-2-.817,3.348,3.348,0,0,1-.726-2.3,3.275,3.275,0,0,1,.794-2.282,2.544,2.544,0,0,1,1.971-.882,2.26,2.26,0,0,1,1.823.761,3.181,3.181,0,0,1,.644,2.116Zm-.984-.815a1.954,1.954,0,0,0-.4-1.3,1.368,1.368,0,0,0-1.1-.463,1.553,1.553,0,0,0-1.155.487,2.214,2.214,0,0,0-.586,1.271Z" fill="#1e1e1e"/>
    </g>
    <g>
      <path d="M273.984,4.689h-2.425V12.2h-.985V4.689h-2.42V3.8h5.83Z" fill="#1e1e1e"/>
      <path d="M278.824,9.441h-4.236a2.245,2.245,0,0,0,.539,1.547,1.856,1.856,0,0,0,1.418.545,2.942,2.942,0,0,0,1.863-.668v.9a3.486,3.486,0,0,1-2.092.574,2.538,2.538,0,0,1-2-.818,3.346,3.346,0,0,1-.726-2.3,3.279,3.279,0,0,1,.794-2.283,2.543,2.543,0,0,1,1.971-.881,2.255,2.255,0,0,1,1.823.761,3.181,3.181,0,0,1,.644,2.116Zm-.984-.814a1.954,1.954,0,0,0-.4-1.3,1.364,1.364,0,0,0-1.1-.463,1.552,1.552,0,0,0-1.154.486,2.207,2.207,0,0,0-.586,1.272Z" fill="#1e1e1e"/>
      <path d="M288.8,12.2h-.961V8.756a2.6,2.6,0,0,0-.308-1.442,1.167,1.167,0,0,0-1.034-.445,1.281,1.281,0,0,0-1.046.563,2.151,2.151,0,0,0-.43,1.347V12.2h-.961V8.639q0-1.77-1.366-1.77a1.268,1.268,0,0,0-1.043.53,2.2,2.2,0,0,0-.41,1.38V12.2h-.961v-6h.961V7.15h.024a2.039,2.039,0,0,1,1.863-1.089,1.731,1.731,0,0,1,1.7,1.242,2.142,2.142,0,0,1,1.992-1.242q1.982,0,1.981,2.443Z" fill="#1e1e1e"/>
      <path d="M291.6,11.334h-.024v3.627h-.961V6.2h.961V7.256h.024a2.271,2.271,0,0,1,2.074-1.2,2.2,2.2,0,0,1,1.81.8,3.335,3.335,0,0,1,.651,2.159,3.718,3.718,0,0,1-.733,2.412,2.439,2.439,0,0,1-2,.905A2.006,2.006,0,0,1,291.6,11.334Zm-.024-2.42v.838a1.783,1.783,0,0,0,.484,1.263,1.724,1.724,0,0,0,2.6-.15,3.063,3.063,0,0,0,.5-1.857,2.42,2.42,0,0,0-.462-1.57,1.533,1.533,0,0,0-1.254-.569,1.7,1.7,0,0,0-1.348.583A2.141,2.141,0,0,0,291.574,8.914Z" fill="#1e1e1e"/>
      <path d="M298.629,12.2h-.961V3.318h.961Z" fill="#1e1e1e"/>
      <path d="M304.869,12.2h-.961v-.937h-.023a2.013,2.013,0,0,1-1.846,1.078,1.969,1.969,0,0,1-1.4-.475,1.643,1.643,0,0,1-.507-1.26q0-1.681,1.98-1.957l1.8-.252q0-1.529-1.236-1.529a2.954,2.954,0,0,0-1.957.738V6.623a3.717,3.717,0,0,1,2.039-.562q2.115,0,2.115,2.238Zm-.961-3.035-1.447.2a2.364,2.364,0,0,0-1.008.331.957.957,0,0,0-.34.841.917.917,0,0,0,.314.718,1.213,1.213,0,0,0,.835.278,1.541,1.541,0,0,0,1.18-.5,1.788,1.788,0,0,0,.466-1.268Z" fill="#1e1e1e"/>
      <path d="M309.463,12.143a1.854,1.854,0,0,1-.9.187q-1.575,0-1.576-1.758V7.021h-1.031V6.2h1.031V4.736l.961-.31V6.2h1.512v.82h-1.512V10.4a1.408,1.408,0,0,0,.2.862.819.819,0,0,0,.68.257,1.01,1.01,0,0,0,.627-.2Z" fill="#1e1e1e"/>
      <path d="M315.568,9.441h-4.236a2.245,2.245,0,0,0,.539,1.547,1.857,1.857,0,0,0,1.418.545,2.942,2.942,0,0,0,1.863-.668v.9a3.485,3.485,0,0,1-2.091.574,2.535,2.535,0,0,1-2-.818,3.341,3.341,0,0,1-.727-2.3,3.284,3.284,0,0,1,.794-2.283,2.544,2.544,0,0,1,1.972-.881,2.255,2.255,0,0,1,1.822.761,3.175,3.175,0,0,1,.644,2.116Zm-.984-.814a1.96,1.96,0,0,0-.4-1.3,1.367,1.367,0,0,0-1.1-.463,1.552,1.552,0,0,0-1.154.486,2.207,2.207,0,0,0-.586,1.272Z" fill="#1e1e1e"/>
      <path d="M280.066,25.062V23.9a2.23,2.23,0,0,0,.478.317,3.778,3.778,0,0,0,.586.237,4.551,4.551,0,0,0,.618.149,3.356,3.356,0,0,0,.574.053,2.248,2.248,0,0,0,1.357-.337,1.264,1.264,0,0,0,.3-1.561,1.694,1.694,0,0,0-.414-.46,4,4,0,0,0-.624-.4c-.24-.127-.5-.26-.776-.4q-.44-.222-.82-.451a3.5,3.5,0,0,1-.662-.5,2.116,2.116,0,0,1-.443-.624,2.127,2.127,0,0,1,.091-1.816,2.164,2.164,0,0,1,.662-.7,3.023,3.023,0,0,1,.935-.41A4.268,4.268,0,0,1,283,16.858a4.1,4.1,0,0,1,1.811.3v1.108a3.281,3.281,0,0,0-1.911-.516,3.138,3.138,0,0,0-.644.067,1.834,1.834,0,0,0-.574.22,1.274,1.274,0,0,0-.41.393,1.037,1.037,0,0,0-.159.586,1.206,1.206,0,0,0,.12.556,1.376,1.376,0,0,0,.355.428,3.531,3.531,0,0,0,.571.375q.338.182.777.4c.3.149.586.305.855.469a3.9,3.9,0,0,1,.709.545,2.419,2.419,0,0,1,.483.662,1.851,1.851,0,0,1,.179.832,2.112,2.112,0,0,1-.243,1.052,1.992,1.992,0,0,1-.656.7,2.866,2.866,0,0,1-.952.39,5.229,5.229,0,0,1-1.137.12,4.745,4.745,0,0,1-.492-.032q-.294-.033-.6-.094a5.005,5.005,0,0,1-.577-.152A1.831,1.831,0,0,1,280.066,25.062Z" fill="#1e1e1e"/>
      <path d="M287.689,24.534h-.023v3.627h-.961V19.4h.961v1.055h.023a2.273,2.273,0,0,1,2.075-1.2,2.2,2.2,0,0,1,1.81.8,3.338,3.338,0,0,1,.651,2.16,3.723,3.723,0,0,1-.733,2.411,2.439,2.439,0,0,1-2,.905A2.008,2.008,0,0,1,287.689,24.534Zm-.023-2.42v.838a1.786,1.786,0,0,0,.483,1.263,1.725,1.725,0,0,0,2.6-.15,3.063,3.063,0,0,0,.5-1.857,2.416,2.416,0,0,0-.463-1.57,1.531,1.531,0,0,0-1.254-.569,1.7,1.7,0,0,0-1.347.583A2.141,2.141,0,0,0,287.666,22.114Z" fill="#1e1e1e"/>
      <path d="M298.582,22.642h-4.236a2.237,2.237,0,0,0,.539,1.546,1.856,1.856,0,0,0,1.418.545,2.942,2.942,0,0,0,1.863-.668v.9a3.481,3.481,0,0,1-2.092.574,2.537,2.537,0,0,1-2-.817,3.348,3.348,0,0,1-.726-2.3,3.275,3.275,0,0,1,.794-2.282,2.544,2.544,0,0,1,1.971-.882,2.26,2.26,0,0,1,1.823.761,3.181,3.181,0,0,1,.644,2.116Zm-.984-.815a1.954,1.954,0,0,0-.4-1.3,1.368,1.368,0,0,0-1.1-.463,1.553,1.553,0,0,0-1.155.487,2.214,2.214,0,0,0-.586,1.271Z" fill="#1e1e1e"/>
      <path d="M304.125,25.126a3.127,3.127,0,0,1-1.641.416,2.714,2.714,0,0,1-2.071-.835,3.028,3.028,0,0,1-.788-2.165,3.326,3.326,0,0,1,.85-2.382,2.973,2.973,0,0,1,2.267-.9,3.149,3.149,0,0,1,1.395.293v.984a2.449,2.449,0,0,0-1.43-.469,1.932,1.932,0,0,0-1.509.66,2.5,2.5,0,0,0-.589,1.731,2.382,2.382,0,0,0,.554,1.664,1.908,1.908,0,0,0,1.485.609,2.406,2.406,0,0,0,1.477-.521Z" fill="#1e1e1e"/>
    </g>
    <g>
      <path d="M26.909,49.8H22.55V41.4h.984v7.512h3.375Z" fill="#1e1e1e"/>
      <path d="M28.562,42.278a.611.611,0,0,1-.44-.176.594.594,0,0,1-.182-.445.615.615,0,0,1,.622-.627.621.621,0,0,1,.448.178.6.6,0,0,1,.184.449.592.592,0,0,1-.184.439A.617.617,0,0,1,28.562,42.278ZM29.03,49.8h-.961v-6h.961Z" fill="#1e1e1e"/>
      <path d="M35.956,49.8h-.961V46.379q0-1.909-1.394-1.91a1.515,1.515,0,0,0-1.193.542,2.013,2.013,0,0,0-.471,1.368V49.8h-.961v-6h.961v1h.023a2.166,2.166,0,0,1,1.969-1.136,1.839,1.839,0,0,1,1.506.635,2.838,2.838,0,0,1,.521,1.837Z" fill="#1e1e1e"/>
      <path d="M42.747,49.8H41.4l-2.648-2.883h-.023V49.8h-.961V40.918h.961v5.631h.023l2.52-2.748H42.53L39.747,46.7Z" fill="#1e1e1e"/>
      <path d="M48.554,47.042H44.317a2.248,2.248,0,0,0,.539,1.546,1.857,1.857,0,0,0,1.418.545,2.947,2.947,0,0,0,1.864-.668v.9a3.49,3.49,0,0,1-2.092.574,2.538,2.538,0,0,1-2-.817,3.344,3.344,0,0,1-.727-2.3,3.284,3.284,0,0,1,.794-2.283,2.55,2.55,0,0,1,1.972-.881,2.258,2.258,0,0,1,1.822.761,3.176,3.176,0,0,1,.645,2.116Zm-.985-.815a1.954,1.954,0,0,0-.4-1.295,1.37,1.37,0,0,0-1.1-.463,1.549,1.549,0,0,0-1.154.487,2.207,2.207,0,0,0-.586,1.271Z" fill="#1e1e1e"/>
      <path d="M55.128,49.8h-.961V48.782h-.023a2.22,2.22,0,0,1-2.063,1.16,2.243,2.243,0,0,1-1.808-.806,3.3,3.3,0,0,1-.676-2.194,3.6,3.6,0,0,1,.75-2.385,2.472,2.472,0,0,1,2-.9,1.924,1.924,0,0,1,1.8.972h.023V40.918h.961Zm-.961-2.713V46.2a1.718,1.718,0,0,0-.48-1.231,1.613,1.613,0,0,0-1.219-.5,1.659,1.659,0,0,0-1.383.645,2.822,2.822,0,0,0-.5,1.781,2.544,2.544,0,0,0,.483,1.638,1.582,1.582,0,0,0,1.3.6,1.641,1.641,0,0,0,1.3-.58A2.16,2.16,0,0,0,54.167,47.088Z" fill="#1e1e1e"/>
      <path d="M7.679,62.943a1.857,1.857,0,0,1-.9.187q-1.577,0-1.576-1.757V57.822H4.175V57H5.206V55.537l.961-.311V57H7.679v.821H6.167V61.2a1.4,1.4,0,0,0,.205.861.818.818,0,0,0,.68.258,1.016,1.016,0,0,0,.627-.2Z" fill="#1e1e1e"/>
      <path d="M13.784,60.242H9.548a2.242,2.242,0,0,0,.539,1.547,1.859,1.859,0,0,0,1.418.544,2.947,2.947,0,0,0,1.863-.667v.9a3.479,3.479,0,0,1-2.092.574,2.537,2.537,0,0,1-2-.817,3.348,3.348,0,0,1-.726-2.3,3.277,3.277,0,0,1,.794-2.282,2.544,2.544,0,0,1,1.971-.882,2.256,2.256,0,0,1,1.823.762,3.176,3.176,0,0,1,.644,2.115Zm-.984-.815a1.956,1.956,0,0,0-.4-1.3,1.367,1.367,0,0,0-1.1-.463,1.553,1.553,0,0,0-1.154.487,2.2,2.2,0,0,0-.586,1.271Z" fill="#1e1e1e"/>
      <path d="M23.757,63H22.8V59.556a2.6,2.6,0,0,0-.308-1.441,1.167,1.167,0,0,0-1.034-.446,1.281,1.281,0,0,0-1.046.563,2.152,2.152,0,0,0-.43,1.348V63h-.961V59.439q0-1.77-1.366-1.77a1.265,1.265,0,0,0-1.043.531,2.193,2.193,0,0,0-.41,1.38V63h-.961V57H16.2v.95h.024a2.037,2.037,0,0,1,1.863-1.09,1.734,1.734,0,0,1,1.7,1.242,2.141,2.141,0,0,1,1.992-1.242q1.982,0,1.981,2.443Z" fill="#1e1e1e"/>
      <path d="M26.558,62.134h-.024v3.627h-.961V57h.961v1.055h.024a2.271,2.271,0,0,1,2.074-1.2,2.194,2.194,0,0,1,1.81.806,3.333,3.333,0,0,1,.651,2.159,3.715,3.715,0,0,1-.733,2.411,2.439,2.439,0,0,1-2,.905A2.005,2.005,0,0,1,26.558,62.134Zm-.024-2.42v.838a1.783,1.783,0,0,0,.484,1.263,1.725,1.725,0,0,0,2.595-.149,3.068,3.068,0,0,0,.5-1.858,2.422,2.422,0,0,0-.462-1.57,1.533,1.533,0,0,0-1.254-.569,1.705,1.705,0,0,0-1.348.583A2.141,2.141,0,0,0,26.534,59.714Z" fill="#1e1e1e"/>
      <path d="M33.589,63h-.961V54.119h.961Z" fill="#1e1e1e"/>
      <path d="M39.829,63h-.961v-.937h-.023A2.011,2.011,0,0,1,37,63.142a1.969,1.969,0,0,1-1.4-.475,1.642,1.642,0,0,1-.507-1.259q0-1.681,1.98-1.957l1.8-.252q0-1.53-1.236-1.53a2.955,2.955,0,0,0-1.957.739v-.985a3.717,3.717,0,0,1,2.039-.562q2.115,0,2.115,2.238Zm-.961-3.035-1.447.2a2.337,2.337,0,0,0-1.008.331.955.955,0,0,0-.34.84.916.916,0,0,0,.314.718,1.209,1.209,0,0,0,.835.278,1.54,1.54,0,0,0,1.18-.5,1.789,1.789,0,0,0,.466-1.269Z" fill="#1e1e1e"/>
      <path d="M44.423,62.943a1.857,1.857,0,0,1-.9.187q-1.575,0-1.576-1.757V57.822H40.919V57H41.95V55.537l.961-.311V57h1.512v.821H42.911V61.2a1.4,1.4,0,0,0,.2.861.818.818,0,0,0,.68.258,1.016,1.016,0,0,0,.627-.2Z" fill="#1e1e1e"/>
      <path d="M50.528,60.242H46.292a2.246,2.246,0,0,0,.539,1.547,1.859,1.859,0,0,0,1.418.544,2.947,2.947,0,0,0,1.863-.667v.9a3.478,3.478,0,0,1-2.091.574,2.538,2.538,0,0,1-2-.817,3.348,3.348,0,0,1-.726-2.3,3.281,3.281,0,0,1,.794-2.282,2.544,2.544,0,0,1,1.972-.882,2.255,2.255,0,0,1,1.822.762,3.176,3.176,0,0,1,.644,2.115Zm-.984-.815a1.961,1.961,0,0,0-.4-1.3,1.37,1.37,0,0,0-1.1-.463,1.553,1.553,0,0,0-1.154.487,2.2,2.2,0,0,0-.586,1.271Z" fill="#1e1e1e"/>
      <path d="M51.618,62.785V61.753a2.844,2.844,0,0,0,1.729.58q1.264,0,1.265-.843a.733.733,0,0,0-.108-.407,1.069,1.069,0,0,0-.293-.3,2.291,2.291,0,0,0-.434-.232c-.166-.068-.344-.139-.536-.214a6.939,6.939,0,0,1-.7-.319,2.133,2.133,0,0,1-.5-.363,1.36,1.36,0,0,1-.3-.46,1.636,1.636,0,0,1-.1-.6,1.433,1.433,0,0,1,.193-.747,1.719,1.719,0,0,1,.516-.545,2.415,2.415,0,0,1,.735-.331,3.278,3.278,0,0,1,.853-.111,3.453,3.453,0,0,1,1.394.269V58.1a2.717,2.717,0,0,0-1.523-.434,1.774,1.774,0,0,0-.486.062,1.2,1.2,0,0,0-.373.173.808.808,0,0,0-.24.266.712.712,0,0,0-.085.343.834.834,0,0,0,.085.393.877.877,0,0,0,.249.281,1.934,1.934,0,0,0,.4.223q.234.1.533.216a7.6,7.6,0,0,1,.715.314,2.44,2.44,0,0,1,.539.363,1.441,1.441,0,0,1,.343.466,1.505,1.505,0,0,1,.12.627,1.473,1.473,0,0,1-.2.773,1.662,1.662,0,0,1-.524.545,2.413,2.413,0,0,1-.756.323,3.746,3.746,0,0,1-.9.105A3.407,3.407,0,0,1,51.618,62.785Z" fill="#1e1e1e"/>
    </g>
    <g>
      <path d="M189.457,48.719v-8.4h2.32q4.442,0,4.442,4.1a4.125,4.125,0,0,1-1.234,3.126,4.574,4.574,0,0,1-3.3,1.181Zm.984-7.512v6.621H191.7a3.56,3.56,0,0,0,2.573-.885,3.315,3.315,0,0,0,.92-2.507q0-3.229-3.434-3.229Z" fill="#1e1e1e"/>
      <path d="M202.564,45.959h-4.236a2.245,2.245,0,0,0,.539,1.547,1.861,1.861,0,0,0,1.418.545,2.948,2.948,0,0,0,1.863-.668v.9a3.478,3.478,0,0,1-2.091.574,2.534,2.534,0,0,1-2-.817,3.344,3.344,0,0,1-.727-2.3,3.283,3.283,0,0,1,.794-2.282,2.546,2.546,0,0,1,1.972-.882,2.255,2.255,0,0,1,1.822.762,3.174,3.174,0,0,1,.644,2.115Zm-.984-.814a1.958,1.958,0,0,0-.4-1.3,1.367,1.367,0,0,0-1.1-.463,1.552,1.552,0,0,0-1.154.486,2.2,2.2,0,0,0-.586,1.272Z" fill="#1e1e1e"/>
      <path d="M205,47.852h-.023v3.627h-.961v-8.76h.961v1.054H205a2.274,2.274,0,0,1,2.074-1.2,2.2,2.2,0,0,1,1.811.806,3.34,3.34,0,0,1,.65,2.159,3.719,3.719,0,0,1-.732,2.411,2.439,2.439,0,0,1-2,.905A2.008,2.008,0,0,1,205,47.852Zm-.023-2.42v.838a1.782,1.782,0,0,0,.483,1.262,1.724,1.724,0,0,0,2.6-.149,3.066,3.066,0,0,0,.5-1.858,2.422,2.422,0,0,0-.463-1.57,1.533,1.533,0,0,0-1.254-.568,1.7,1.7,0,0,0-1.348.583A2.138,2.138,0,0,0,204.979,45.432Z" fill="#1e1e1e"/>
      <path d="M212.033,48.719h-.961V39.836h.961Z" fill="#1e1e1e"/>
      <path d="M216.486,48.859a2.787,2.787,0,0,1-2.124-.84,3.117,3.117,0,0,1-.794-2.23,3.242,3.242,0,0,1,.827-2.361,2.965,2.965,0,0,1,2.232-.85,2.7,2.7,0,0,1,2.095.826,3.277,3.277,0,0,1,.753,2.291,3.224,3.224,0,0,1-.812,2.3A2.845,2.845,0,0,1,216.486,48.859Zm.071-5.472a1.826,1.826,0,0,0-1.465.63,2.583,2.583,0,0,0-.539,1.737,2.445,2.445,0,0,0,.545,1.682,1.851,1.851,0,0,0,1.459.615,1.754,1.754,0,0,0,1.432-.6,2.617,2.617,0,0,0,.5-1.717,2.662,2.662,0,0,0-.5-1.734A1.748,1.748,0,0,0,216.557,43.387Z" fill="#1e1e1e"/>
      <path d="M225.785,42.719l-2.76,6.961q-.738,1.863-2.074,1.863a2.192,2.192,0,0,1-.627-.076v-.862a1.767,1.767,0,0,0,.569.106,1.177,1.177,0,0,0,1.089-.867l.481-1.137-2.344-5.988h1.067l1.623,4.617c.019.059.06.211.123.457h.035c.019-.094.058-.242.117-.445l1.7-4.629Z" fill="#1e1e1e"/>
    </g>
  </g>
</svg>
