<svg xmlns="http://www.w3.org/2000/svg" width="18" height="18" viewBox="0 0 18 18">
  <defs>
    <linearGradient id="af36f68e-455b-44c3-8218-be893946f9cb" x1="9.312" y1="1.192" x2="7.992" y2="34.229" gradientUnits="userSpaceOnUse">
      <stop offset="0" stop-color="#83b9f9" />
      <stop offset="0.005" stop-color="#81b8f8" />
      <stop offset="0.153" stop-color="#53a1ec" />
      <stop offset="0.295" stop-color="#2f8fe1" />
      <stop offset="0.427" stop-color="#1583da" />
      <stop offset="0.545" stop-color="#057bd6" />
      <stop offset="0.639" stop-color="#0078d4" />
    </linearGradient>
  </defs>
  <g id="a09c2f1d-f0ee-4151-bb4e-b24f55e0143d">
    <g>
      <circle cx="9" cy="9" r="8" fill="url(#af36f68e-455b-44c3-8218-be893946f9cb)" />
      <g>
        <circle cx="6.658" cy="8.982" r="0.789" fill="#c3f1ff" />
        <circle cx="8.989" cy="8.982" r="0.789" fill="#c3f1ff" />
        <circle cx="11.321" cy="8.982" r="0.789" fill="#c3f1ff" />
        <path d="M6.833,12.808l-1.546-.984V10.486a.609.609,0,0,0-.119-.362L4.319,8.979l.856-1.2a.609.609,0,0,0,.112-.352V6.147l1.546-.984A.608.608,0,1,0,6.18,4.137L4.353,5.3a.607.607,0,0,0-.282.513V7.231l-1,1.4a.609.609,0,0,0,.007.715l.992,1.338v1.47a.609.609,0,0,0,.282.514L6.18,13.834a.608.608,0,1,0,.653-1.026Z" fill="#83b9f9" />
        <path d="M4.319,8.979l.856-1.2a.609.609,0,0,0,.112-.352V6.147l1.546-.984A.608.608,0,1,0,6.18,4.137L4.353,5.3a.607.607,0,0,0-.282.513V7.231l-1,1.4a.607.607,0,0,0-.112.343s.016,0,.016,0Z" fill="#c3f1ff" />
        <path d="M11.061,12.808l1.546-.984V10.486a.609.609,0,0,1,.119-.362l.849-1.145-.855-1.2a.6.6,0,0,1-.113-.352V6.147l-1.546-.984a.608.608,0,1,1,.653-1.026L13.542,5.3a.609.609,0,0,1,.281.513V7.231l1,1.4a.608.608,0,0,1-.007.715l-.992,1.338v1.47a.61.61,0,0,1-.281.514l-1.828,1.163a.608.608,0,1,1-.653-1.026Z" fill="#83b9f9" />
        <path d="M13.575,8.979l-.855-1.2a.6.6,0,0,1-.113-.352V6.147l-1.546-.984a.608.608,0,1,1,.653-1.026L13.542,5.3a.609.609,0,0,1,.281.513V7.231l1,1.4a.609.609,0,0,1,.113.343s-.017,0-.017,0Z" fill="#c3f1ff" />
      </g>
    </g>
  </g>
</svg>