<svg xmlns="http://www.w3.org/2000/svg" width="18" height="18" viewBox="0 0 18 18">
  <defs>
    <linearGradient id="bec4d780-ec68-441e-ae32-4fa4b5a6562b" x1="9" y1="12.682" x2="9" y2="0.682" gradientUnits="userSpaceOnUse">
      <stop offset="0.145" stop-color="#d2ebff" />
      <stop offset="0.503" stop-color="#dbf1fe" />
      <stop offset="0.997" stop-color="#f0fffd" />
    </linearGradient>
    <linearGradient id="ef039ee2-430d-484b-a07f-0d18405a67ee" x1="9" y1="17.318" x2="9" y2="12.682" gradientUnits="userSpaceOnUse">
      <stop offset="0.157" stop-color="#0078d4" />
      <stop offset="0.356" stop-color="#0072ca" />
      <stop offset="0.689" stop-color="#0064b0" />
      <stop offset="0.851" stop-color="#005ba1" />
    </linearGradient>
    <linearGradient id="b15c0f73-5698-487e-ad4e-894172ca42b1" x1="9" y1="12.682" x2="9" y2="9.88" gradientUnits="userSpaceOnUse">
      <stop offset="0" stop-color="#0078d4" />
      <stop offset="0.127" stop-color="#107fd8" />
      <stop offset="0.516" stop-color="#3a91e5" />
      <stop offset="0.82" stop-color="#549cec" />
      <stop offset="1" stop-color="#5ea0ef" />
    </linearGradient>
  </defs>
  <title>Icon593_macOS</title>
  <g id="b0772786-c524-42ce-935a-84581f9e05d3">
    <g>
      <rect y="0.682" width="18" height="12" rx="0.601" opacity="0.9" fill="url(#bec4d780-ec68-441e-ae32-4fa4b5a6562b)" />
      <path d="M17.194,1.489V11.876H.806V1.489H17.194M17.4.682H.6a.6.6,0,0,0-.6.6v10.8a.6.6,0,0,0,.6.6H17.4a.6.6,0,0,0,.6-.6V1.283a.6.6,0,0,0-.6-.6Z" fill="#0078d4" />
      <path d="M12.607,16.312c-1.78-.278-1.85-1.562-1.844-3.63H7.232c0,2.068-.065,3.352-1.844,3.63A1.048,1.048,0,0,0,4.5,17.318h9A1.053,1.053,0,0,0,12.607,16.312Z" fill="url(#ef039ee2-430d-484b-a07f-0d18405a67ee)" />
      <path d="M0,9.88H18a0,0,0,0,1,0,0v2.446a.356.356,0,0,1-.356.356H.607A.607.607,0,0,1,0,12.075V9.88A0,0,0,0,1,0,9.88Z" fill="url(#b15c0f73-5698-487e-ad4e-894172ca42b1)" />
      <circle cx="9" cy="11.281" r="0.747" fill="#c3f1ff" />
    </g>
  </g>
</svg>