<svg xmlns="http://www.w3.org/2000/svg" xmlns:xlink="http://www.w3.org/1999/xlink" viewBox="0 0 221 285.86">
  <defs>
    <linearGradient id="linear-gradient" x1="37.07" y1="290.44" x2="37.07" y2="309.2" gradientTransform="matrix(1, 0, 0, -1, 0, 432.06)" gradientUnits="userSpaceOnUse">
      <stop offset="0" stop-color="#0078d4"/>
      <stop offset="0.82" stop-color="#5ea0ef"/>
    </linearGradient>
    <linearGradient id="linear-gradient-2" x1="37.07" y1="283.2" x2="37.07" y2="290.44" gradientTransform="matrix(1, 0, 0, -1, 0, 432.06)" gradientUnits="userSpaceOnUse">
      <stop offset="0.15" stop-color="#ccc"/>
      <stop offset="1" stop-color="#707070"/>
    </linearGradient>
    <linearGradient id="linear-gradient-3" x1="77.43" y1="290.44" x2="77.43" y2="309.2" xlink:href="#linear-gradient"/>
    <linearGradient id="linear-gradient-4" x1="77.43" y1="283.2" x2="77.43" y2="290.44" xlink:href="#linear-gradient-2"/>
    <linearGradient id="linear-gradient-5" x1="188.87" y1="287.2" x2="188.87" y2="297.54" xlink:href="#linear-gradient"/>
    <linearGradient id="linear-gradient-6" x1="188.91" y1="283.2" x2="188.91" y2="287.2" xlink:href="#linear-gradient-2"/>
    <linearGradient id="linear-gradient-7" x1="141.17" y1="290.44" x2="141.17" y2="309.2" xlink:href="#linear-gradient"/>
    <linearGradient id="linear-gradient-8" x1="141.17" y1="283.2" x2="141.17" y2="290.44" xlink:href="#linear-gradient-2"/>
    <linearGradient id="linear-gradient-9" x1="23.66" y1="231.16" x2="26.03" y2="228.79" gradientTransform="matrix(1, 0, 0, -1, 2.88, 430.65)" gradientUnits="userSpaceOnUse">
      <stop offset="0" stop-color="#86d633"/>
      <stop offset="0.24" stop-color="#83d232"/>
      <stop offset="0.5" stop-color="#7cc52f"/>
      <stop offset="0.76" stop-color="#6fb02a"/>
      <stop offset="1" stop-color="#5e9624"/>
    </linearGradient>
    <linearGradient id="linear-gradient-10" x1="18.32" y1="231.16" x2="20.67" y2="228.79" xlink:href="#linear-gradient-9"/>
    <linearGradient id="linear-gradient-11" x1="12.98" y1="231.17" x2="15.33" y2="228.8" xlink:href="#linear-gradient-9"/>
  </defs>
  <title>flow-direction2</title>
  <g id="Shapes">
    <rect width="221" height="285.86" fill="#fff"/>
    <path d="M214.34,201.17h-1v-1h1Zm-3,0h-1v-1h1Zm-3,0h-1v-1h1Zm-3,0h-1v-1h1Zm-3,0h-1v-1h1Zm-3,0h-1v-1h1Zm-3,0h-1v-1h1Zm-3,0h-1v-1h1Zm-3,0h-1v-1h1Zm-3,0h-1v-1h1Zm-3,0h-1v-1h1Zm-3,0h-1v-1h1Zm-3,0h-1v-1h1Zm-3,0h-1v-1h1Zm-3,0h-1v-1h1Zm-3,0h-1v-1h1Zm-3,0h-1v-1h1Zm-3,0h-1v-1h1Zm-3,0h-1v-1h1Zm-3,0h-1v-1h1Zm-3,0h-1v-1h1Zm-3,0h-1v-1h1Zm-3,0h-1v-1h1Zm-3,0h-1v-1h1Zm-3,0h-1v-1h1Zm-3,0h-1v-1h1Zm-3,0h-1v-1h1Zm-3,0h-1v-1h1Zm-3,0h-1v-1h1Zm-3,0h-1v-1h1Zm-3,0h-1v-1h1Zm-3,0h-1v-1h1Zm-3,0h-1v-1h1Zm-3,0h-1v-1h1Zm-3,0h-1v-1h1Zm-3,0h-1v-1h1Zm-3,0h-1v-1h1Zm-3,0h-1v-1h1Zm-3,0h-1v-1h1Zm-3,0h-1v-1h1Zm-3,0h-1v-1h1Zm-3,0h-1v-1h1Zm-3,0h-1v-1h1Zm-3,0h-1v-1h1Zm-3,0h-1v-1h1Zm-3,0h-1v-1h1Zm-3,0h-1v-1h1Zm-3,0h-1v-1h1Zm-3,0h-1v-1h1Zm-3,0h-1v-1h1Zm-3,0h-1v-1h1Zm-3,0h-1v-1h1Zm-3,0h-1v-1h1Zm-3,0H54v-1h1Zm-3,0H51v-1h1Zm-3,0H48v-1h1Zm-3,0H45v-1h1Zm-3,0H42v-1h1Zm-3,0H39v-1h1Zm-3,0H36v-1h1Zm-30,0H6v-1H7Zm209.46-.08-.17-1a4.29,4.29,0,0,0,.87-.23l.36.93A5.54,5.54,0,0,1,216.42,201.09ZM3.82,200.9a6.28,6.28,0,0,1-1-.43l.49-.88a4.26,4.26,0,0,0,.82.36Zm215.5-1.29-.69-.71a4.82,4.82,0,0,0,.58-.69l.82.57A5.65,5.65,0,0,1,219.32,199.61ZM1.16,199a5.71,5.71,0,0,1-.59-.94l.9-.44a4,4,0,0,0,.48.76Zm219.73-2.28-1-.2a4.41,4.41,0,0,0,.09-.89l1-.06v.06A5.76,5.76,0,0,1,220.89,196.76ZM0,196c0-.11,0-.22,0-.32V195H1v.71a2.26,2.26,0,0,0,0,.26Zm221-2.38h-1v-1h1ZM1,193H0v-1H1Zm220-2.35h-1v-1h1ZM1,190H0v-1H1Zm220-2.36h-1v-1h1ZM1,186.94H0v-1H1Zm220-2.35h-1v-1h1ZM1,183.94H0v-1H1Zm220-2.36h-1v-1h1ZM1,180.93H0v-1H1Zm220-2.35h-1v-1h1ZM1,177.93H0v-1H1Zm220-2.36h-1v-1h1ZM1,174.92H0v-1H1Zm220-2.35h-1v-1h1ZM1,171.92H0v-1H1Zm220-2.36h-1v-1h1ZM1,168.91H0v-1H1Zm220-2.35h-1v-1h1ZM1,165.9H0v-1H1Zm220-2.35h-1v-1h1ZM1,162.9H0v-1H1Zm220-2.35h-1v-1h1ZM1,159.89H0v-1H1Zm220-2.35h-1v-1h1ZM1,156.89H0v-1H1Zm220-2.36h-1v-1h1ZM1,153.88H0v-1H1Zm220-2.35h-1v-1h1ZM1,150.88H0v-1H1Zm220-2.36h-1v-1h1ZM1,147.87H0v-1H1Zm220-2.35h-1v-1h1ZM1,144.87H0v-1H1Zm220-2.36h-1v-1h1ZM1,141.86H0v-1H1Zm220-2.35h-1v-1h1ZM1,138.86H0v-1H1Zm220-2.36h-1v-1h1ZM1,135.85H0v-1H1Zm220-2.35h-1v-1h1ZM1,132.85H0v-1H1Zm220-2.36h-1v-1h1ZM1,129.84H0v-1H1Zm220-2.36h-1v-1h1ZM1,126.83H0v-1H1Zm220-2.35h-1v-1h1ZM1,123.83H0v-1H1Zm220-2.36h-1v-1h1ZM1,120.82H0v-1H1Zm220-2.35h-1v-1h1ZM1,117.82H0v-1H1Zm220-2.36h-1v-1h1ZM1,114.81H0v-1H1Zm220-2.35h-1v-1h1ZM1,111.81H0v-1H1Zm220-2.36h-1v-1h1ZM1,108.8H0v-1H1Zm220-2.35h-1v-1h1ZM1,105.8H0v-1H1Zm220-2.36h-1v-1h1ZM1,102.79H0v-1H1Zm220-2.35h-1v-1h1ZM1,99.78H0v-1H1Zm220-2.35h-1v-1h1ZM1,96.78H0v-1H1Zm220-2.36h-1v-1h1ZM1,93.77H0v-1H1Zm220-2.35h-1v-1h1ZM1,90.77H0v-1H1Zm220-2.36h-1v-1h1ZM1,87.76H0v-1H1Zm220-2.35h-1v-1h1ZM1,84.76H0v-1H1ZM221,82.4h-1v-1h1ZM1,81.75H0v-1H1ZM221,79.4h-1v-1h1ZM1,78.75H0v-1H1Zm220-2.36h-1v-1h1ZM1,75.74H0v-1H1Zm220-2.35h-1v-1h1ZM1,72.73H0v-1H1Zm220-2.35h-1v-1h1ZM1,69.73H0v-1H1Zm220-2.35h-1v-1h1ZM1,66.72H0v-1H1Zm220-2.35h-1v-1h1ZM1,63.72H0v-1H1Zm220-2.36h-1v-1h1ZM1,60.71H0v-1H1Zm220-2.35h-1v-1h1ZM1,57.71H0v-1H1Zm220-2.36h-1v-1h1ZM1,54.7H0v-1H1Zm220-2.35h-1v-.68a2.71,2.71,0,0,0,0-.29l1-.07c0,.12,0,.24,0,.36ZM0,51.7v0A6.36,6.36,0,0,1,.1,50.6l1,.2a4.94,4.94,0,0,0-.08.87Zm219.52-2.05a5.1,5.1,0,0,0-.48-.76l.78-.62a5.39,5.39,0,0,1,.59.93ZM1.78,49.15,1,48.59a5.25,5.25,0,0,1,.71-.85l.7.72A4.24,4.24,0,0,0,1.78,49.15Zm215.89-1.42a4.09,4.09,0,0,0-.83-.36l.31-.95a6,6,0,0,1,1,.43ZM3.86,47.48l-.37-.93a4.92,4.92,0,0,1,1.06-.3l.17,1A5.27,5.27,0,0,0,3.86,47.48ZM215,47.17h-1v-1h1Zm-3,0h-1v-1h1Zm-3,0h-1v-1h1Zm-3,0h-1v-1h1Zm-3,0h-1v-1h1Zm-3,0h-1v-1h1Zm-3,0h-1v-1h1Zm-3,0h-1v-1h1Zm-3,0h-1v-1h1Zm-3,0h-1v-1h1Zm-3,0h-1v-1h1Zm-3,0h-1v-1h1Zm-3,0h-1v-1h1Zm-3,0h-1v-1h1Zm-3,0h-1v-1h1Zm-3,0h-1v-1h1Zm-3,0h-1v-1h1Zm-3,0h-1v-1h1Zm-3,0h-1v-1h1Zm-3,0h-1v-1h1Zm-3,0h-1v-1h1Zm-27,0h-1v-1h1Zm-3,0h-1v-1h1Zm-3,0h-1v-1h1Zm-3,0h-1v-1h1Zm-3,0h-1v-1h1Zm-3,0h-1v-1h1Zm-3,0h-1v-1h1Zm-3,0h-1v-1h1Zm-3,0h-1v-1h1Zm-3,0h-1v-1h1Zm-3,0h-1v-1h1Zm-3,0h-1v-1h1Zm-3,0h-1v-1h1Zm-3,0h-1v-1h1Zm-3,0h-1v-1h1Zm-3,0h-1v-1h1Zm-3,0h-1v-1h1Zm-3,0h-1v-1h1Zm-3,0h-1v-1h1Zm-3,0h-1v-1h1Zm-3,0h-1v-1h1Zm-3,0h-1v-1h1Zm-3,0h-1v-1h1Zm-3,0h-1v-1h1Zm-3,0h-1v-1h1Zm-3,0h-1v-1h1Zm-3,0h-1v-1h1Zm-3,0h-1v-1h1Zm-3,0h-1v-1h1Zm-3,0h-1v-1h1Zm-3,0h-1v-1h1Zm-3,0h-1v-1h1Zm-3,0h-1v-1h1Zm-3,0h-1v-1h1Zm-3,0h-1v-1h1Zm-3,0h-1v-1h1Zm-3,0h-1v-1h1Zm-3,0h-1v-1h1Zm-3,0h-1v-1h1Zm-3,0h-1v-1h1Zm-3,0h-1v-1h1Z" fill="#3c3c41"/>
    <g>
      <rect x="10" y="90.86" width="95" height="95" rx="0.3" fill="#fff"/>
      <rect x="10" y="90.86" width="95" height="95" rx="0.3" fill="#3c3c41" opacity="0.2"/>
    </g>
    <rect x="65" y="210.86" width="155" height="35" fill="#ccc" fill-opacity="0.3"/>
    <rect x="65" y="250.86" width="155" height="35" fill="#ccc" fill-opacity="0.3"/>
    <g>
      <rect x="23" y="122.86" width="28.14" height="18.76" rx="0.94" fill="url(#linear-gradient)"/>
      <polygon points="41.76 129.5 41.76 134.96 37.07 137.71 37.07 132.24 41.76 129.5" fill="#50e6ff"/>
      <polygon points="41.76 129.5 37.07 132.25 32.38 129.5 37.07 126.76 41.76 129.5" fill="#c3f1ff"/>
      <polygon points="37.07 132.25 37.07 137.71 32.38 134.96 32.38 129.5 37.07 132.25" fill="#9cebff"/>
      <polygon points="32.38 134.96 37.07 132.24 37.07 137.71 32.38 134.96" fill="#c3f1ff"/>
      <polygon points="41.76 134.96 37.07 132.24 37.07 137.71 41.76 134.96" fill="#9cebff"/>
      <path d="M42.71,147.29c-2.78-.44-2.89-2.44-2.89-5.67H34.3c0,3.23-.09,5.23-2.87,5.67A1.56,1.56,0,0,0,30,148.86H44.11A1.57,1.57,0,0,0,42.71,147.29Z" fill="url(#linear-gradient-2)"/>
    </g>
    <g>
      <rect x="63.36" y="122.86" width="28.14" height="18.76" rx="0.94" fill="url(#linear-gradient-3)"/>
      <polygon points="82.12 129.5 82.12 134.96 77.43 137.71 77.43 132.24 82.12 129.5" fill="#50e6ff"/>
      <polygon points="82.12 129.5 77.43 132.25 72.74 129.5 77.43 126.76 82.12 129.5" fill="#c3f1ff"/>
      <polygon points="77.43 132.25 77.43 137.71 72.74 134.96 72.74 129.5 77.43 132.25" fill="#9cebff"/>
      <polygon points="72.74 134.96 77.43 132.24 77.43 137.71 72.74 134.96" fill="#c3f1ff"/>
      <polygon points="82.12 134.96 77.43 132.24 77.43 137.71 82.12 134.96" fill="#9cebff"/>
      <path d="M83.07,147.29c-2.78-.44-2.89-2.44-2.89-5.67H74.66c0,3.23-.09,5.23-2.88,5.67a1.57,1.57,0,0,0-1.39,1.57H84.46A1.56,1.56,0,0,0,83.07,147.29Z" fill="url(#linear-gradient-4)"/>
    </g>
    <g>
      <rect x="115" y="90.86" width="95" height="95" fill="#fff"/>
      <rect x="115" y="90.86" width="95" height="95" fill="#3c3c41" opacity="0.2"/>
    </g>
    <g>
      <rect x="170.6" y="122.86" width="15.46" height="10.32" rx="0.52" fill="#005ba1"/>
      <polygon points="180.91 126.51 180.91 129.52 178.34 131.02 178.34 128.03 180.91 126.51" fill="#50e6ff"/>
      <polygon points="180.91 126.51 178.34 128.03 175.75 126.51 178.34 125 180.91 126.51" fill="#c3f1ff"/>
      <polygon points="178.34 128.03 178.34 131.02 175.75 129.52 175.75 126.51 178.34 128.03" fill="#9cebff"/>
      <rect x="176.67" y="128.77" width="15.46" height="10.32" rx="0.52" fill="#0078d4"/>
      <polygon points="186.98 132.44 186.98 135.44 184.41 136.96 184.41 133.94 186.98 132.44" fill="#50e6ff"/>
      <polygon points="186.98 132.44 184.41 133.94 181.82 132.44 184.41 130.93 186.98 132.44" fill="#c3f1ff"/>
      <polygon points="184.41 133.94 184.41 136.96 181.82 135.44 181.82 132.44 184.41 133.94" fill="#9cebff"/>
      <rect x="181.14" y="134.52" width="15.46" height="10.32" rx="0.52" fill="url(#linear-gradient-5)"/>
      <polygon points="191.44 138.19 191.44 141.19 188.88 142.71 188.88 139.69 191.44 138.19" fill="#50e6ff"/>
      <polygon points="191.44 138.19 188.88 139.71 186.29 138.19 188.88 136.68 191.44 138.19" fill="#c3f1ff"/>
      <polygon points="188.88 139.71 188.88 142.71 186.29 141.19 186.29 138.19 188.88 139.71" fill="#9cebff"/>
      <polygon points="186.29 141.19 188.88 139.69 188.88 142.71 186.29 141.19" fill="#c3f1ff"/>
      <polygon points="191.44 141.19 188.88 139.69 188.88 142.71 191.44 141.19" fill="#9cebff"/>
      <path d="M192,148c-1.52-.24-1.52-1.34-1.52-3.06h-3.06c0,1.78,0,2.88-1.53,3.06a.91.91,0,0,0-.77.88h7.65A.91.91,0,0,0,192,148Z" fill="url(#linear-gradient-6)"/>
    </g>
    <g>
      <rect x="127.1" y="122.86" width="28.14" height="18.76" rx="0.94" fill="url(#linear-gradient-7)"/>
      <polygon points="145.86 129.5 145.86 134.96 141.17 137.71 141.17 132.24 145.86 129.5" fill="#50e6ff"/>
      <polygon points="145.86 129.5 141.17 132.25 136.48 129.5 141.17 126.76 145.86 129.5" fill="#c3f1ff"/>
      <polygon points="141.17 132.25 141.17 137.71 136.48 134.96 136.48 129.5 141.17 132.25" fill="#9cebff"/>
      <polygon points="136.48 134.96 141.17 132.24 141.17 137.71 136.48 134.96" fill="#c3f1ff"/>
      <polygon points="145.86 134.96 141.17 132.24 141.17 137.71 145.86 134.96" fill="#9cebff"/>
      <path d="M146.81,147.29c-2.78-.44-2.89-2.44-2.89-5.67H138.4c0,3.23-.09,5.23-2.87,5.67a1.57,1.57,0,0,0-1.4,1.57h14.08A1.57,1.57,0,0,0,146.81,147.29Z" fill="url(#linear-gradient-8)"/>
    </g>
    <g>
      <line x1="90.37" y1="90.71" x2="90.37" y2="63.64" fill="none" stroke="#3c3c41" stroke-miterlimit="10"/>
      <g>
        <line x1="82.84" y1="85.18" x2="82.84" y2="73.48" fill="none" stroke="#3c3c41" stroke-miterlimit="10"/>
        <polygon points="85.83 74.36 82.84 69.18 79.85 74.36 85.83 74.36" fill="#3c3c41"/>
      </g>
      <g>
        <line x1="97.89" y1="80.87" x2="97.89" y2="80.12" fill="none" stroke="#3c3c41" stroke-miterlimit="10"/>
        <line x1="97.89" y1="77.69" x2="97.89" y2="71.14" fill="none" stroke="#3c3c41" stroke-miterlimit="10" stroke-dasharray="1.46 2.43"/>
        <line x1="97.89" y1="69.93" x2="97.89" y2="69.18" fill="none" stroke="#3c3c41" stroke-miterlimit="10"/>
        <polygon points="100.88 80 97.89 85.18 94.9 80 100.88 80" fill="#3c3c41"/>
      </g>
    </g>
    <g>
      <line x1="129.52" y1="90.71" x2="129.52" y2="63.64" fill="none" stroke="#3c3c41" stroke-miterlimit="10"/>
      <g>
        <line x1="122" y1="85.18" x2="122" y2="73.48" fill="none" stroke="#3c3c41" stroke-miterlimit="10"/>
        <polygon points="124.99 74.36 122 69.18 119.01 74.36 124.99 74.36" fill="#3c3c41"/>
      </g>
      <g>
        <line x1="137.05" y1="80.87" x2="137.05" y2="80.12" fill="none" stroke="#3c3c41" stroke-miterlimit="10"/>
        <line x1="137.05" y1="77.69" x2="137.05" y2="71.14" fill="none" stroke="#3c3c41" stroke-miterlimit="10" stroke-dasharray="1.46 2.43"/>
        <line x1="137.05" y1="69.93" x2="137.05" y2="69.18" fill="none" stroke="#3c3c41" stroke-miterlimit="10"/>
        <polygon points="140.04 80 137.05 85.18 134.06 80 140.04 80" fill="#3c3c41"/>
      </g>
    </g>
    <line x1="109.7" y1="38.29" x2="109.7" y2="18.79" fill="none" stroke="#3c3c41" stroke-miterlimit="10"/>
    <g>
      <line x1="74.31" y1="220.86" x2="85.43" y2="220.86" fill="none" stroke="#3c3c41" stroke-miterlimit="10"/>
      <polygon points="75.18 223.85 70 220.85 75.18 217.86 75.18 223.85" fill="#3c3c41"/>
    </g>
    <g>
      <line x1="80.69" y1="260.86" x2="79.94" y2="260.86" fill="none" stroke="#3c3c41" stroke-miterlimit="10"/>
      <line x1="77.75" y1="260.86" x2="71.84" y2="260.86" fill="none" stroke="#3c3c41" stroke-miterlimit="10" stroke-dasharray="1.31 2.19"/>
      <line x1="70.75" y1="260.86" x2="70" y2="260.86" fill="none" stroke="#3c3c41" stroke-miterlimit="10"/>
      <polygon points="79.82 257.86 85 260.86 79.82 263.85 79.82 257.86" fill="#3c3c41"/>
    </g>
    <path d="M105.83,41,65.74,29.61a4.21,4.21,0,0,1-2.89-3.82v-7" fill="none" stroke="#3c3c41" stroke-miterlimit="10"/>
    <path d="M114,41,157.3,29.55a4.1,4.1,0,0,0,2.9-3.76v-7" fill="none" stroke="#3c3c41" stroke-miterlimit="10"/>
    <g>
      <circle cx="27.4" cy="200.63" r="1.67" fill="url(#linear-gradient-9)"/>
      <circle cx="22.06" cy="200.64" r="1.67" fill="url(#linear-gradient-10)"/>
      <circle cx="16.72" cy="200.64" r="1.67" fill="url(#linear-gradient-11)"/>
      <path d="M17.93,207.34l-1,1a.43.43,0,0,1-.61,0h0l-7.09-7.08a.87.87,0,0,1,0-1.22h0l1-1h0l7.71,7.69a.43.43,0,0,1,0,.61Z" fill="#50e6ff"/>
      <path d="M16.83,193l1,1a.43.43,0,0,1,0,.61l-7.57,7.6h0l-1-1a.88.88,0,0,1,0-1.22h0l7-7A.43.43,0,0,1,16.83,193Z" fill="#1490df"/>
      <path d="M33.78,199l1,1a.86.86,0,0,1,0,1.22h0l-7.1,7.08a.43.43,0,0,1-.61,0h0l-1-1a.44.44,0,0,1,0-.62h0L33.78,199Z" fill="#50e6ff"/>
      <path d="M34.74,201.2l-1,1h0l-7.57-7.6a.43.43,0,0,1,0-.61h0l1-1a.43.43,0,0,1,.61,0h0l7,7a.88.88,0,0,1,0,1.22h0Z" fill="#1490df"/>
    </g>
    <g>
      <rect x="45.35" width="35" height="20.86" fill="#fff"/>
      <rect x="45.35" width="35" height="20.86" fill="#3c3c41" opacity="0.2"/>
    </g>
    <g>
      <rect x="92.7" width="35" height="20.86" fill="#fff"/>
      <rect x="92.7" width="35" height="20.86" fill="#3c3c41" opacity="0.2"/>
    </g>
    <g>
      <rect x="137.7" width="45" height="20.86" fill="#fff"/>
      <rect x="137.7" width="45" height="20.86" fill="#3c3c41" opacity="0.2"/>
    </g>
    <g>
      <rect x="13.69" width="23.5" height="20.86" fill="#fff"/>
      <rect x="13.69" width="23.5" height="20.86" fill="#83b9f9" opacity="0.4"/>
    </g>
    <line x1="24.92" y1="90.71" x2="24.92" y2="21.02" fill="none" stroke="#003067" stroke-miterlimit="10"/>
    <g>
      <line x1="18.04" y1="80.44" x2="18.04" y2="68.74" fill="none" stroke="#003067" stroke-miterlimit="10"/>
      <polygon points="21.03 79.56 18.04 84.75 15.05 79.56 21.03 79.56" fill="#003067"/>
    </g>
    <g>
      <line x1="31.8" y1="84.74" x2="31.8" y2="83.99" fill="none" stroke="#003067" stroke-miterlimit="10"/>
      <line x1="31.8" y1="81.57" x2="31.8" y2="75.01" fill="none" stroke="#003067" stroke-miterlimit="10" stroke-dasharray="1.46 2.43"/>
      <line x1="31.8" y1="73.8" x2="31.8" y2="73.05" fill="none" stroke="#003067" stroke-miterlimit="10"/>
      <polygon points="34.79 73.93 31.8 68.75 28.8 73.93 34.79 73.93" fill="#003067"/>
    </g>
    <g>
      <g>
        <rect x="74.82" y="53.67" width="70" height="10" fill="#fff"/>
        <rect x="74.82" y="53.67" width="70" height="10" fill="#6ebcdb" opacity="0.4"/>
      </g>
      <g id="ad94e297-0e86-4eaf-aac0-d146ee9aea65">
        <g>
          <path d="M105.75,54l-4.68-4.84a2.28,2.28,0,0,1-.78.13A2.43,2.43,0,1,1,102.53,46h4.62v1.62H102.6a4.8,4.8,0,0,1-.26.57l4.33,4.46L109,49.07V37.89h-3.15l4-4,3.94,4h-3.15v8.74l5.93-9.05-6-6a1,1,0,0,0-1.46,0l0,0L94.64,46.06a1,1,0,0,0,0,1.46l0,0L109.11,62l-5.17-5.17Z" fill="#6ebcdb"/>
          <path d="M109,54.22V49.05l-2.34,3.59,1.72,1.84A2,2,0,0,1,109,54.22Z" fill="#5db4d7"/>
          <path d="M125,46.06l-8.47-8.48-5.93,9.05v7.61a2.1,2.1,0,0,1,.53.29l6.22-6.28a3.15,3.15,0,0,1-.31-.64H112.4V46h4.74a2.41,2.41,0,1,1,2.24,3.32,2.53,2.53,0,0,1-.67-.1l-6.62,6.67a2.18,2.18,0,0,1,.11.62,2.43,2.43,0,0,1-4.86.19,2.5,2.5,0,0,1,.14-.9l-1.73-1.72-1.84,2.76L109.08,62a1,1,0,0,0,1.45,0L125,47.52a1,1,0,0,0,0-1.46Z" fill="#5db4d7"/>
          <path d="M117.14,46H112.4v1.62h4.67a3,3,0,0,1-.12-.73A2.29,2.29,0,0,1,117.14,46Z" fill="#e6e6e6"/>
          <path d="M102.6,47.61h4.55V46h-4.62a2.13,2.13,0,0,1,.19.89A2.28,2.28,0,0,1,102.6,47.61Z" fill="#e6e6e6"/>
          <path d="M112.09,55.88l6.62-6.67a2.48,2.48,0,0,1-1.33-1l-6.22,6.28A2.26,2.26,0,0,1,112.09,55.88Z" fill="#e6e6e6"/>
          <path d="M108.44,54.48l-1.72-1.84-4.38-4.46a2.51,2.51,0,0,1-1.27,1L105.75,54l1.73,1.72A2.32,2.32,0,0,1,108.44,54.48Z" fill="#e6e6e6"/>
          <path d="M113.76,37.89l-3.92-4-4,4H109V54.22a1.73,1.73,0,0,0-.57.26,2.42,2.42,0,0,0,.65,4.32,2.41,2.41,0,0,0,3-1.61,2.37,2.37,0,0,0,.11-.69,2.18,2.18,0,0,0-.11-.62,2.26,2.26,0,0,0-.93-1.35,2.1,2.1,0,0,0-.53-.29V37.89Zm-3.92,20a1.35,1.35,0,1,1,1.34-1.34h0A1.34,1.34,0,0,1,109.84,57.84Z" fill="#fff"/>
          <path d="M102.34,48.18a4.8,4.8,0,0,0,.26-.57,2.28,2.28,0,0,0,.12-.73,2.13,2.13,0,0,0-.19-.89,2.41,2.41,0,1,0-2.24,3.32,2.28,2.28,0,0,0,.78-.13A2.51,2.51,0,0,0,102.34,48.18Zm-2,0a1.35,1.35,0,1,1,1.35-1.35h0a1.36,1.36,0,0,1-1.3,1.4h0Z" fill="#fff"/>
          <path d="M118.71,49.21a2.53,2.53,0,0,0,.67.1A2.43,2.43,0,1,0,117.14,46a2.29,2.29,0,0,0-.19.89,3,3,0,0,0,.12.73,3.15,3.15,0,0,0,.31.64A2.48,2.48,0,0,0,118.71,49.21Zm.67-3.65a1.34,1.34,0,0,1,0,2.67,1.34,1.34,0,1,1-.3-2.67A1.5,1.5,0,0,1,119.38,45.56Z" fill="#fff"/>
          <path d="M109.84,55.15a1.35,1.35,0,1,0,1.34,1.35h0A1.35,1.35,0,0,0,109.84,55.15Z" fill="#86d633"/>
          <circle cx="100.29" cy="46.88" r="1.34" fill="#86d633"/>
          <path d="M119.38,48.23A1.35,1.35,0,1,0,118,46.88h0A1.34,1.34,0,0,0,119.38,48.23Z" fill="#86d633"/>
        </g>
      </g>
    </g>
  </g>
  <g id="Text">
    <g>
      <path d="M36,105.62v-1.19a2.59,2.59,0,0,0,.49.32,4.6,4.6,0,0,0,.61.25c.21.06.42.11.64.15a3.13,3.13,0,0,0,.59,0,2.35,2.35,0,0,0,1.4-.34,1.2,1.2,0,0,0,.46-1,1.09,1.09,0,0,0-.16-.61,1.71,1.71,0,0,0-.42-.48,4.72,4.72,0,0,0-.64-.41l-.81-.41c-.3-.15-.58-.31-.84-.47a3.66,3.66,0,0,1-.68-.51,2.08,2.08,0,0,1-.46-.65,2,2,0,0,1-.16-.84,1.9,1.9,0,0,1,.26-1,2.23,2.23,0,0,1,.68-.72,3,3,0,0,1,1-.42,4.1,4.1,0,0,1,1.1-.14,4.32,4.32,0,0,1,1.87.3v1.15a3.35,3.35,0,0,0-2-.54,3.7,3.7,0,0,0-.66.07,2.14,2.14,0,0,0-.6.23,1.46,1.46,0,0,0-.42.4,1.09,1.09,0,0,0-.16.61,1.26,1.26,0,0,0,.12.57,1.38,1.38,0,0,0,.37.44,2.74,2.74,0,0,0,.59.39l.8.41c.31.15.6.31.88.48a3.84,3.84,0,0,1,.73.57,2.54,2.54,0,0,1,.5.68,1.94,1.94,0,0,1,.18.86,2.16,2.16,0,0,1-.25,1.08,2,2,0,0,1-.68.72,2.77,2.77,0,0,1-1,.4,5.52,5.52,0,0,1-1.17.13,3.53,3.53,0,0,1-.51,0L37,106l-.6-.16A1.89,1.89,0,0,1,36,105.62Z" fill="#1e1e1e"/>
      <path d="M47.68,106h-1v-1h0a2,2,0,0,1-1.9,1.13c-1.48,0-2.21-.88-2.21-2.64V99.79h1v3.54q0,2,1.5,2a1.53,1.53,0,0,0,1.19-.53,2.06,2.06,0,0,0,.47-1.4V99.79h1Z" fill="#1e1e1e"/>
      <path d="M50.56,105.08h0V106h-1V96.82h1v4.05h0a2.35,2.35,0,0,1,2.14-1.23,2.28,2.28,0,0,1,1.86.83,3.45,3.45,0,0,1,.68,2.23,3.84,3.84,0,0,1-.76,2.48,2.49,2.49,0,0,1-2.06.94A2,2,0,0,1,50.56,105.08Zm0-2.5v.87a1.81,1.81,0,0,0,.5,1.3,1.78,1.78,0,0,0,2.67-.16,3.12,3.12,0,0,0,.51-1.91,2.48,2.48,0,0,0-.48-1.62,1.55,1.55,0,0,0-1.29-.58,1.77,1.77,0,0,0-1.39.6A2.19,2.19,0,0,0,50.54,102.58Z" fill="#1e1e1e"/>
      <path d="M61.89,106h-1v-3.53c0-1.31-.48-2-1.43-2a1.55,1.55,0,0,0-1.23.55,2.07,2.07,0,0,0-.49,1.41V106h-1V99.79h1v1h0a2.24,2.24,0,0,1,2-1.17,1.9,1.9,0,0,1,1.56.66,3,3,0,0,1,.53,1.89Z" fill="#1e1e1e"/>
      <path d="M68.7,103.13H64.34a2.28,2.28,0,0,0,.55,1.59,1.91,1.91,0,0,0,1.46.56,3.07,3.07,0,0,0,1.93-.69v.93a3.59,3.59,0,0,1-2.16.6,2.6,2.6,0,0,1-2.06-.85,3.44,3.44,0,0,1-.75-2.37,3.37,3.37,0,0,1,.82-2.35,2.65,2.65,0,0,1,2-.91,2.31,2.31,0,0,1,1.88.79,3.28,3.28,0,0,1,.66,2.18Zm-1-.84a2,2,0,0,0-.41-1.34,1.42,1.42,0,0,0-1.14-.47A1.59,1.59,0,0,0,65,101a2.32,2.32,0,0,0-.6,1.31Z" fill="#1e1e1e"/>
      <path d="M73.06,105.91a1.88,1.88,0,0,1-.92.19c-1.09,0-1.63-.6-1.63-1.81v-3.66H69.45v-.84h1.06V98.28l1-.32v1.83h1.56v.84H71.5v3.49a1.47,1.47,0,0,0,.21.89.87.87,0,0,0,.7.26,1.09,1.09,0,0,0,.65-.2Z" fill="#1e1e1e"/>
      <path d="M84.61,106H83.48l-.91-2.43H78.89L78,106H76.9l3.32-8.66h1Zm-2.38-3.34-1.35-3.69a3.27,3.27,0,0,1-.14-.58h0a3.29,3.29,0,0,1-.14.58l-1.35,3.69Z" fill="#1e1e1e"/>
    </g>
    <g>
      <path d="M33.86,157.45l-3.12,8.41H29.66l-3.05-8.41h1.1L30,164.11a4.63,4.63,0,0,1,.17.75h0a3.38,3.38,0,0,1,.19-.76l2.38-6.65Z" fill="#1e1e1e"/>
      <path d="M43.63,165.86h-1v-5.64c0-.45,0-1,.08-1.64h0a5.64,5.64,0,0,1-.25.82l-2.87,6.46h-.48l-2.87-6.41a4.83,4.83,0,0,1-.25-.87h0c0,.34,0,.89,0,1.65v5.63h-.95v-8.41h1.3l2.58,5.86a7.92,7.92,0,0,1,.39,1h0c.17-.46.31-.8.41-1l2.63-5.84h1.23Z" fill="#1e1e1e"/>
    </g>
    <g>
      <path d="M75.66,157.45l-3.11,8.41H71.47l-3-8.41h1.1l2.32,6.66a3.77,3.77,0,0,1,.17.75h0a3.38,3.38,0,0,1,.19-.76l2.37-6.65Z" fill="#1e1e1e"/>
      <path d="M85.44,165.86h-1v-5.64c0-.45,0-1,.08-1.64h0a5.38,5.38,0,0,1-.26.82l-2.87,6.46h-.48l-2.86-6.41a4.83,4.83,0,0,1-.25-.87h0c0,.34,0,.89,0,1.65v5.63h-.95v-8.41h1.3l2.58,5.86a7.92,7.92,0,0,1,.39,1h0c.17-.46.3-.8.4-1l2.64-5.84h1.23Z" fill="#1e1e1e"/>
    </g>
    <g>
      <path d="M140.45,105.55v-1.16a2.23,2.23,0,0,0,.48.32,4.51,4.51,0,0,0,1.2.38,3.09,3.09,0,0,0,.58.06,2.27,2.27,0,0,0,1.35-.34,1.15,1.15,0,0,0,.45-1,1.13,1.13,0,0,0-.15-.59,1.76,1.76,0,0,0-.41-.46,4.57,4.57,0,0,0-.63-.4l-.77-.4c-.29-.15-.57-.3-.82-.45a3.2,3.2,0,0,1-.66-.51,2.1,2.1,0,0,1-.45-.62,2.07,2.07,0,0,1-.16-.82,2,2,0,0,1,.25-1,2.24,2.24,0,0,1,.67-.7,3,3,0,0,1,.93-.41,4.29,4.29,0,0,1,1.07-.13,4.08,4.08,0,0,1,1.81.3v1.1a3.31,3.31,0,0,0-1.91-.51,2.79,2.79,0,0,0-.64.07,1.56,1.56,0,0,0-.58.22,1.27,1.27,0,0,0-.41.39,1.07,1.07,0,0,0-.16.58,1.22,1.22,0,0,0,.12.56,1.31,1.31,0,0,0,.36.43,3,3,0,0,0,.57.37c.22.12.48.26.78.4s.58.31.85.47a3.62,3.62,0,0,1,.71.55,2.38,2.38,0,0,1,.48.66,1.84,1.84,0,0,1,.18.83,2.14,2.14,0,0,1-.24,1,1.93,1.93,0,0,1-.66.7,2.8,2.8,0,0,1-.95.39,5.24,5.24,0,0,1-1.14.12l-.49,0a4.69,4.69,0,0,1-.6-.1,4.74,4.74,0,0,1-.57-.15A2,2,0,0,1,140.45,105.55Z" fill="#1e1e1e"/>
      <path d="M151.8,105.89h-1v-1h0A2,2,0,0,1,149,106c-1.43,0-2.14-.85-2.14-2.55V99.89h1v3.43c0,1.27.49,1.9,1.46,1.9a1.47,1.47,0,0,0,1.16-.52,2,2,0,0,0,.45-1.35V99.89h1Z" fill="#1e1e1e"/>
      <path d="M154.6,105h0v.87h-1V97h1V101h0a2.26,2.26,0,0,1,2.07-1.2,2.19,2.19,0,0,1,1.81.81,3.27,3.27,0,0,1,.66,2.15,3.74,3.74,0,0,1-.74,2.42,2.44,2.44,0,0,1-2,.9A2,2,0,0,1,154.6,105Zm0-2.42v.84a1.77,1.77,0,0,0,.48,1.26,1.59,1.59,0,0,0,1.23.52,1.6,1.6,0,0,0,1.37-.67,3,3,0,0,0,.49-1.85,2.41,2.41,0,0,0-.46-1.57,1.54,1.54,0,0,0-1.26-.57,1.69,1.69,0,0,0-1.34.58A2.15,2.15,0,0,0,154.58,102.6Z" fill="#1e1e1e"/>
      <path d="M165.6,105.89h-1v-3.42c0-1.27-.47-1.91-1.4-1.91a1.5,1.5,0,0,0-1.19.54,2,2,0,0,0-.47,1.37v3.42h-1v-6h1v1h0a2.16,2.16,0,0,1,2-1.14,1.83,1.83,0,0,1,1.51.64,2.85,2.85,0,0,1,.52,1.83Z" fill="#1e1e1e"/>
      <path d="M172.21,103.13H168a2.3,2.3,0,0,0,.54,1.55,1.88,1.88,0,0,0,1.42.54,2.89,2.89,0,0,0,1.86-.67v.91a3.47,3.47,0,0,1-2.09.57,2.53,2.53,0,0,1-2-.82,3.35,3.35,0,0,1-.72-2.3,3.28,3.28,0,0,1,.79-2.28,2.54,2.54,0,0,1,2-.88,2.22,2.22,0,0,1,1.82.76,3.18,3.18,0,0,1,.65,2.12Zm-1-.81a1.91,1.91,0,0,0-.4-1.3,1.36,1.36,0,0,0-1.1-.46,1.56,1.56,0,0,0-1.15.48,2.25,2.25,0,0,0-.59,1.28Z" fill="#1e1e1e"/>
      <path d="M176.44,105.83a1.82,1.82,0,0,1-.9.19c-1,0-1.57-.59-1.57-1.76v-3.55h-1v-.82h1V98.43l1-.32v1.78h1.51v.82h-1.51v3.38a1.45,1.45,0,0,0,.2.86.84.84,0,0,0,.68.26,1,1,0,0,0,.63-.2Z" fill="#1e1e1e"/>
      <path d="M181.14,105.89v-8.4h2.39a2.65,2.65,0,0,1,1.73.53,1.75,1.75,0,0,1,.64,1.39,2,2,0,0,1-.39,1.24,2.09,2.09,0,0,1-1.07.75v0a2.1,2.1,0,0,1,1.36.64,2,2,0,0,1,.51,1.41,2.16,2.16,0,0,1-.77,1.74,2.87,2.87,0,0,1-1.95.67Zm1-7.51v2.71h1a1.91,1.91,0,0,0,1.27-.39,1.35,1.35,0,0,0,.47-1.1c0-.81-.54-1.22-1.62-1.22Zm0,3.6v3h1.34a2,2,0,0,0,1.34-.41,1.4,1.4,0,0,0,.48-1.13c0-1-.67-1.48-2-1.48Z" fill="#1e1e1e"/>
    </g>
    <g>
      <path d="M139.4,157.45l-3.11,8.41h-1.08l-3.05-8.41h1.1l2.32,6.66a3.77,3.77,0,0,1,.17.75h0a3.38,3.38,0,0,1,.19-.76l2.37-6.65Z" fill="#1e1e1e"/>
      <path d="M149.18,165.86h-1v-5.64c0-.45,0-1,.08-1.64h0a5.38,5.38,0,0,1-.26.82l-2.87,6.46h-.48l-2.86-6.41a4.83,4.83,0,0,1-.25-.87h0c0,.34.05.89.05,1.65v5.63h-.95v-8.41h1.3l2.58,5.86a7.92,7.92,0,0,1,.39,1h0c.17-.46.3-.8.4-1l2.64-5.84h1.23Z" fill="#1e1e1e"/>
    </g>
    <g>
      <path d="M175.46,157.45l-3.11,8.41h-1.09l-3-8.41h1.09l2.33,6.66a4.63,4.63,0,0,1,.17.75h0a4,4,0,0,1,.19-.76l2.38-6.65Z" fill="#1e1e1e"/>
      <path d="M185.23,165.86h-1v-5.64c0-.45,0-1,.08-1.64h0a5.64,5.64,0,0,1-.25.82l-2.87,6.46h-.48l-2.87-6.41a5.84,5.84,0,0,1-.25-.87h0c0,.34,0,.89,0,1.65v5.63h-1v-8.41H178l2.57,5.86a7.92,7.92,0,0,1,.39,1h0c.16-.46.3-.8.4-1l2.63-5.84h1.23Z" fill="#1e1e1e"/>
      <path d="M187.05,165.52v-1.16a2.39,2.39,0,0,0,.47.31,4.29,4.29,0,0,0,.59.24c.21.06.41.11.62.15a4.13,4.13,0,0,0,.57.05,2.22,2.22,0,0,0,1.36-.34,1.12,1.12,0,0,0,.45-1,1.15,1.15,0,0,0-.15-.59,1.76,1.76,0,0,0-.41-.46,4.57,4.57,0,0,0-.63-.4l-.78-.4-.82-.45a3.81,3.81,0,0,1-.66-.5,2.11,2.11,0,0,1-.44-.63,1.86,1.86,0,0,1-.16-.81,1.88,1.88,0,0,1,.25-1,2.11,2.11,0,0,1,.66-.7,3,3,0,0,1,.94-.41,4.24,4.24,0,0,1,1.07-.14,4.08,4.08,0,0,1,1.81.3v1.11a3.26,3.26,0,0,0-1.91-.52,3.59,3.59,0,0,0-.65.07,2,2,0,0,0-.57.22,1.18,1.18,0,0,0-.41.39,1,1,0,0,0-.16.59,1.25,1.25,0,0,0,.12.56,1.51,1.51,0,0,0,.35.42,3.43,3.43,0,0,0,.58.38l.77.4a7.87,7.87,0,0,1,.86.47,3.9,3.9,0,0,1,.71.54,2.53,2.53,0,0,1,.48.66,1.84,1.84,0,0,1,.18.83,2.16,2.16,0,0,1-.24,1.06,2.1,2.1,0,0,1-.66.7,2.88,2.88,0,0,1-1,.39,5.24,5.24,0,0,1-1.14.12,3.2,3.2,0,0,1-.49,0l-.6-.09a5.47,5.47,0,0,1-.58-.15A1.93,1.93,0,0,1,187.05,165.52Z" fill="#1e1e1e"/>
      <path d="M193.42,165.52v-1.16a2.48,2.48,0,0,0,.48.31,3.83,3.83,0,0,0,.59.24c.2.06.41.11.61.15a4.13,4.13,0,0,0,.58.05,2.18,2.18,0,0,0,1.35-.34,1.12,1.12,0,0,0,.45-1,1.15,1.15,0,0,0-.15-.59,1.6,1.6,0,0,0-.41-.46,4.43,4.43,0,0,0-.62-.4l-.78-.4c-.29-.15-.57-.3-.82-.45a3.46,3.46,0,0,1-.66-.5,1.94,1.94,0,0,1-.44-.63,1.86,1.86,0,0,1-.17-.81,1.88,1.88,0,0,1,.26-1,1.93,1.93,0,0,1,.66-.7,2.8,2.8,0,0,1,.93-.41,4.3,4.3,0,0,1,1.07-.14,4.08,4.08,0,0,1,1.81.3v1.11a3.22,3.22,0,0,0-1.91-.52,3.48,3.48,0,0,0-.64.07,2,2,0,0,0-.58.22,1.38,1.38,0,0,0-.41.39,1.1,1.1,0,0,0-.15.59,1.25,1.25,0,0,0,.12.56,1.35,1.35,0,0,0,.35.42,3.76,3.76,0,0,0,.57.38l.78.4a7.72,7.72,0,0,1,.85.47,3.59,3.59,0,0,1,.71.54,2.36,2.36,0,0,1,.49.66,2,2,0,0,1,.17.83,2.16,2.16,0,0,1-.24,1.06,2,2,0,0,1-.66.7,2.8,2.8,0,0,1-1,.39,5.22,5.22,0,0,1-1.13.12,3.31,3.31,0,0,1-.5,0l-.59-.09a4.45,4.45,0,0,1-.58-.15A2,2,0,0,1,193.42,165.52Z" fill="#1e1e1e"/>
    </g>
    <g>
      <path d="M138.88,49.86h-1.21l-4.33-6.7a2.94,2.94,0,0,1-.27-.53h0a8.71,8.71,0,0,1,.05,1.15v6.08h-1V41.45h1.28L137.59,48c.17.28.29.47.34.57h0a8.84,8.84,0,0,1-.06-1.24V41.45h1Z" fill="#1e1e1e"/>
      <path d="M147.58,49.86h-1.09l-.89-2.36H142l-.84,2.36h-1.09l3.22-8.41h1Zm-2.3-3.25L144,43a4.39,4.39,0,0,1-.13-.56h0a3,3,0,0,1-.14.56l-1.3,3.58Z" fill="#1e1e1e"/>
      <path d="M152.93,42.34H150.5v7.52h-1V42.34H147.1v-.89h5.83Z" fill="#1e1e1e"/>
    </g>
    <g>
      <path d="M99.27,217.23H96v2.9h3V221H96v3.72H95v-8.4h4.26Z" fill="#1e1e1e"/>
      <path d="M101.7,224.74h-1v-8.88h1Z" fill="#1e1e1e"/>
      <path d="M106.15,224.88A2.79,2.79,0,0,1,104,224a3.12,3.12,0,0,1-.79-2.23,3.23,3.23,0,0,1,.82-2.36,3,3,0,0,1,2.23-.85,2.69,2.69,0,0,1,2.1.82,3.29,3.29,0,0,1,.75,2.29,3.21,3.21,0,0,1-.81,2.3A2.84,2.84,0,0,1,106.15,224.88Zm.07-5.47a1.83,1.83,0,0,0-1.46.63,2.56,2.56,0,0,0-.54,1.73,2.41,2.41,0,0,0,.55,1.68,1.83,1.83,0,0,0,1.45.62,1.77,1.77,0,0,0,1.44-.6,3.23,3.23,0,0,0,0-3.45A1.75,1.75,0,0,0,106.22,219.41Z" fill="#1e1e1e"/>
      <path d="M118.24,218.74l-1.8,6h-1l-1.24-4.3a4,4,0,0,1-.09-.55h0a2.56,2.56,0,0,1-.13.54l-1.34,4.31h-1l-1.81-6h1l1.25,4.51a4.55,4.55,0,0,1,.08.54h0a3,3,0,0,1,.11-.55l1.38-4.5h.88l1.24,4.52a3.36,3.36,0,0,1,.09.54h0a2.61,2.61,0,0,1,.1-.54l1.22-4.52Z" fill="#1e1e1e"/>
      <path d="M127.76,224.74h-1v-1h0a2.21,2.21,0,0,1-2.06,1.16,2.24,2.24,0,0,1-1.81-.81,3.29,3.29,0,0,1-.67-2.19,3.62,3.62,0,0,1,.75-2.39,2.48,2.48,0,0,1,2-.89,1.91,1.91,0,0,1,1.8,1h0v-3.71h1Zm-1-2.71v-.89a1.7,1.7,0,0,0-.49-1.23,1.58,1.58,0,0,0-1.21-.5,1.67,1.67,0,0,0-1.39.64,2.85,2.85,0,0,0-.5,1.78,2.56,2.56,0,0,0,.48,1.64,1.6,1.6,0,0,0,1.3.6,1.65,1.65,0,0,0,1.31-.58A2.19,2.19,0,0,0,126.8,222Z" fill="#1e1e1e"/>
      <path d="M130.19,217.21a.6.6,0,0,1-.62-.62.57.57,0,0,1,.18-.44.62.62,0,0,1,.44-.18.61.61,0,0,1,.45.18.55.55,0,0,1,.19.44.56.56,0,0,1-.19.44A.61.61,0,0,1,130.19,217.21Zm.47,7.53h-1v-6h1Z" fill="#1e1e1e"/>
      <path d="M135.74,219.71a1.18,1.18,0,0,0-.73-.19,1.23,1.23,0,0,0-1,.58,2.7,2.7,0,0,0-.41,1.58v3.06h-1v-6h1V220h0a2.09,2.09,0,0,1,.63-1,1.4,1.4,0,0,1,.94-.36,1.75,1.75,0,0,1,.58.08Z" fill="#1e1e1e"/>
      <path d="M141.6,222h-4.23a2.25,2.25,0,0,0,.53,1.55,1.88,1.88,0,0,0,1.42.54,2.94,2.94,0,0,0,1.87-.67v.9a3.46,3.46,0,0,1-2.1.58,2.51,2.51,0,0,1-2-.82,3.83,3.83,0,0,1,.06-4.58,2.55,2.55,0,0,1,2-.88,2.25,2.25,0,0,1,1.82.76,3.17,3.17,0,0,1,.64,2.11Zm-1-.82a2,2,0,0,0-.4-1.29,1.37,1.37,0,0,0-1.1-.46,1.57,1.57,0,0,0-1.16.48,2.24,2.24,0,0,0-.58,1.27Z" fill="#1e1e1e"/>
      <path d="M147.14,224.46a3.08,3.08,0,0,1-1.64.42,2.72,2.72,0,0,1-2.07-.84,3,3,0,0,1-.79-2.16,3.35,3.35,0,0,1,.85-2.38,3,3,0,0,1,2.27-.9,3.27,3.27,0,0,1,1.4.29v1a2.48,2.48,0,0,0-1.43-.46,1.92,1.92,0,0,0-1.51.66,2.49,2.49,0,0,0-.59,1.73,2.38,2.38,0,0,0,.55,1.66,1.91,1.91,0,0,0,1.49.61,2.38,2.38,0,0,0,1.47-.52Z" fill="#1e1e1e"/>
      <path d="M151.38,224.68a1.91,1.91,0,0,1-.9.19c-1,0-1.57-.59-1.57-1.76v-3.55h-1v-.82h1v-1.47l1-.31v1.78h1.51v.82h-1.51v3.38a1.45,1.45,0,0,0,.2.86.84.84,0,0,0,.68.26,1,1,0,0,0,.63-.2Z" fill="#1e1e1e"/>
      <path d="M153.16,217.21a.58.58,0,0,1-.44-.17.61.61,0,0,1-.18-.45.57.57,0,0,1,.18-.44.59.59,0,0,1,.44-.18.64.64,0,0,1,.45.18.57.57,0,0,1,.18.44.59.59,0,0,1-.18.44A.64.64,0,0,1,153.16,217.21Zm.47,7.53h-1v-6h1Z" fill="#1e1e1e"/>
      <path d="M158.08,224.88A2.76,2.76,0,0,1,156,224a3.12,3.12,0,0,1-.8-2.23,3.23,3.23,0,0,1,.83-2.36,3,3,0,0,1,2.23-.85,2.68,2.68,0,0,1,2.09.82,3.25,3.25,0,0,1,.76,2.29,3.21,3.21,0,0,1-.81,2.3A2.84,2.84,0,0,1,158.08,224.88Zm.07-5.47a1.84,1.84,0,0,0-1.47.63,2.56,2.56,0,0,0-.54,1.73,2.46,2.46,0,0,0,.55,1.68,1.85,1.85,0,0,0,1.46.62,1.75,1.75,0,0,0,1.43-.6,3.23,3.23,0,0,0,0-3.45A1.73,1.73,0,0,0,158.15,219.41Z" fill="#1e1e1e"/>
      <path d="M167.58,224.74h-1v-3.42c0-1.28-.46-1.91-1.39-1.91A1.5,1.5,0,0,0,164,220a2,2,0,0,0-.48,1.37v3.42h-1v-6h1v1h0a2.17,2.17,0,0,1,2-1.13,1.84,1.84,0,0,1,1.5.63,2.84,2.84,0,0,1,.52,1.84Z" fill="#1e1e1e"/>
      <path d="M175.64,216.7a1.21,1.21,0,0,0-.63-.16c-.68,0-1,.42-1,1.27v.93h1.4v.82H174v5.18h-1v-5.18h-1v-.82h1v-1a2,2,0,0,1,.55-1.5,1.84,1.84,0,0,1,1.36-.54,1.86,1.86,0,0,1,.69.1Z" fill="#1e1e1e"/>
      <path d="M178.94,224.88a2.79,2.79,0,0,1-2.12-.84,3.12,3.12,0,0,1-.79-2.23,3.23,3.23,0,0,1,.82-2.36,3,3,0,0,1,2.23-.85,2.69,2.69,0,0,1,2.1.82,3.29,3.29,0,0,1,.75,2.29,3.21,3.21,0,0,1-.81,2.3A2.84,2.84,0,0,1,178.94,224.88Zm.07-5.47a1.83,1.83,0,0,0-1.46.63,2.56,2.56,0,0,0-.54,1.73,2.41,2.41,0,0,0,.55,1.68,1.83,1.83,0,0,0,1.45.62,1.77,1.77,0,0,0,1.44-.6,3.23,3.23,0,0,0,0-3.45A1.75,1.75,0,0,0,179,219.41Z" fill="#1e1e1e"/>
      <path d="M186.6,219.71a1.18,1.18,0,0,0-.73-.19,1.23,1.23,0,0,0-1,.58,2.7,2.7,0,0,0-.41,1.58v3.06h-1v-6h1V220h0a2.09,2.09,0,0,1,.63-1,1.4,1.4,0,0,1,.94-.36,1.75,1.75,0,0,1,.58.08Z" fill="#1e1e1e"/>
      <path d="M97.39,238.08a2.79,2.79,0,0,1-2.13-.84,3.12,3.12,0,0,1-.79-2.23,3.23,3.23,0,0,1,.83-2.36,3,3,0,0,1,2.23-.85,2.68,2.68,0,0,1,2.09.82,3.25,3.25,0,0,1,.76,2.29,3.18,3.18,0,0,1-.82,2.3A2.82,2.82,0,0,1,97.39,238.08Zm.07-5.47a1.84,1.84,0,0,0-1.47.63,2.58,2.58,0,0,0-.54,1.73,2.46,2.46,0,0,0,.55,1.68,1.82,1.82,0,0,0,1.46.62,1.75,1.75,0,0,0,1.43-.6,3.23,3.23,0,0,0,0-3.45A1.73,1.73,0,0,0,97.46,232.61Z" fill="#1e1e1e"/>
      <path d="M105,232.91a1.18,1.18,0,0,0-.73-.19,1.2,1.2,0,0,0-1,.58,2.62,2.62,0,0,0-.42,1.58v3.06h-1v-6h1v1.23h0a2,2,0,0,1,.62-1,1.43,1.43,0,0,1,1-.36,1.65,1.65,0,0,1,.57.08Z" fill="#1e1e1e"/>
      <path d="M106.58,230.41a.58.58,0,0,1-.44-.17.62.62,0,0,1-.19-.45.58.58,0,0,1,.19-.44.59.59,0,0,1,.44-.18.6.6,0,0,1,.44.18.55.55,0,0,1,.19.44.56.56,0,0,1-.19.44A.6.6,0,0,1,106.58,230.41Zm.46,7.53h-1v-6h1Z" fill="#1e1e1e"/>
      <path d="M114.11,237.46q0,3.3-3.16,3.3a4.28,4.28,0,0,1-2-.42v-1a4.06,4.06,0,0,0,1.93.56c1.48,0,2.22-.78,2.22-2.35v-.66h0a2.43,2.43,0,0,1-3.87.35,3.22,3.22,0,0,1-.68-2.15,3.73,3.73,0,0,1,.73-2.43,2.49,2.49,0,0,1,2-.9,2,2,0,0,1,1.8,1h0v-.83h1Zm-1-2.23v-.89a1.71,1.71,0,0,0-.48-1.22,1.62,1.62,0,0,0-1.21-.51,1.66,1.66,0,0,0-1.39.64,2.9,2.9,0,0,0-.51,1.82,2.43,2.43,0,0,0,.49,1.6,1.56,1.56,0,0,0,1.28.6,1.65,1.65,0,0,0,1.31-.57A2.16,2.16,0,0,0,113.15,235.23Z" fill="#1e1e1e"/>
      <path d="M116.55,230.41a.6.6,0,0,1-.44-.17.61.61,0,0,1-.18-.45.57.57,0,0,1,.18-.44.6.6,0,0,1,.44-.18.64.64,0,0,1,.45.18.57.57,0,0,1,.18.44.59.59,0,0,1-.18.44A.64.64,0,0,1,116.55,230.41Zm.47,7.53h-1v-6h1Z" fill="#1e1e1e"/>
      <path d="M123.94,237.94h-1v-3.42c0-1.28-.46-1.91-1.39-1.91a1.54,1.54,0,0,0-1.2.54,2,2,0,0,0-.47,1.37v3.42h-1v-6h1v1h0a2.17,2.17,0,0,1,2-1.13,1.84,1.84,0,0,1,1.5.63,2.84,2.84,0,0,1,.52,1.84Z" fill="#1e1e1e"/>
      <path d="M130.05,237.94h-1V237h0a2,2,0,0,1-1.84,1.08,2,2,0,0,1-1.41-.48,1.65,1.65,0,0,1-.5-1.26q0-1.68,2-2l1.8-.25c0-1-.42-1.53-1.24-1.53a3,3,0,0,0-2,.73v-1a3.76,3.76,0,0,1,2-.56c1.41,0,2.12.74,2.12,2.24Zm-1-3-1.45.2a2.44,2.44,0,0,0-1,.33,1,1,0,0,0-.34.84.9.9,0,0,0,.32.72,1.16,1.16,0,0,0,.83.28,1.55,1.55,0,0,0,1.18-.5,1.8,1.8,0,0,0,.47-1.27Z" fill="#1e1e1e"/>
      <path d="M134.64,237.88a1.91,1.91,0,0,1-.9.19c-1.05,0-1.57-.59-1.57-1.76v-3.55h-1v-.82h1v-1.47l1-.31v1.78h1.51v.82h-1.51v3.38a1.45,1.45,0,0,0,.2.86.84.84,0,0,0,.68.26,1,1,0,0,0,.63-.2Z" fill="#1e1e1e"/>
      <path d="M136.42,230.41a.58.58,0,0,1-.44-.17.61.61,0,0,1-.18-.45.57.57,0,0,1,.18-.44.59.59,0,0,1,.44-.18.64.64,0,0,1,.45.18.57.57,0,0,1,.18.44.59.59,0,0,1-.18.44A.64.64,0,0,1,136.42,230.41Zm.47,7.53h-1v-6h1Z" fill="#1e1e1e"/>
      <path d="M141.34,238.08a2.76,2.76,0,0,1-2.12-.84,3.12,3.12,0,0,1-.8-2.23,3.23,3.23,0,0,1,.83-2.36,3,3,0,0,1,2.23-.85,2.68,2.68,0,0,1,2.09.82,3.25,3.25,0,0,1,.76,2.29,3.21,3.21,0,0,1-.81,2.3A2.85,2.85,0,0,1,141.34,238.08Zm.07-5.47a1.84,1.84,0,0,0-1.47.63,2.58,2.58,0,0,0-.54,1.73,2.46,2.46,0,0,0,.55,1.68,1.82,1.82,0,0,0,1.46.62,1.75,1.75,0,0,0,1.43-.6,3.23,3.23,0,0,0,0-3.45A1.73,1.73,0,0,0,141.41,232.61Z" fill="#1e1e1e"/>
      <path d="M150.84,237.94h-1v-3.42c0-1.28-.46-1.91-1.39-1.91a1.5,1.5,0,0,0-1.19.54,2,2,0,0,0-.48,1.37v3.42h-1v-6h1v1h0a2.17,2.17,0,0,1,2-1.13,1.85,1.85,0,0,1,1.51.63,2.84,2.84,0,0,1,.52,1.84Z" fill="#1e1e1e"/>
      <path d="M158.46,239.85h-.86a7.49,7.49,0,0,1-1.81-5.12,7.76,7.76,0,0,1,1.81-5.19h.87a7.86,7.86,0,0,0-1.84,5.18A7.75,7.75,0,0,0,158.46,239.85Z" fill="#1e1e1e"/>
      <path d="M160.39,229.54v2.61h-.85v-2.61Zm2,0v2.61h-.85v-2.61Z" fill="#1e1e1e"/>
      <path d="M167.39,232.91a1.14,1.14,0,0,0-.72-.19,1.23,1.23,0,0,0-1,.58,2.7,2.7,0,0,0-.41,1.58v3.06h-1v-6h1v1.23h0a2.09,2.09,0,0,1,.63-1,1.4,1.4,0,0,1,.94-.36,1.65,1.65,0,0,1,.57.08Z" fill="#1e1e1e"/>
      <path d="M173.26,235.18H169a2.3,2.3,0,0,0,.54,1.55,1.88,1.88,0,0,0,1.42.54,2.89,2.89,0,0,0,1.86-.67v.9a3.41,3.41,0,0,1-2.09.58,2.53,2.53,0,0,1-2-.82A3.35,3.35,0,0,1,168,235a3.28,3.28,0,0,1,.79-2.28,2.54,2.54,0,0,1,2-.88,2.26,2.26,0,0,1,1.83.76,3.17,3.17,0,0,1,.64,2.11Zm-1-.82a2,2,0,0,0-.4-1.29,1.38,1.38,0,0,0-1.1-.46,1.57,1.57,0,0,0-1.16.48,2.24,2.24,0,0,0-.58,1.27Z" fill="#1e1e1e"/>
      <path d="M179.83,240.7h-1v-3.79h0a2.15,2.15,0,0,1-2,1.17,2.24,2.24,0,0,1-1.81-.81,3.25,3.25,0,0,1-.69-2.19,3.6,3.6,0,0,1,.75-2.39,2.51,2.51,0,0,1,2-.89,1.89,1.89,0,0,1,1.78,1h0v-.83h1Zm-1-5.46v-.88a1.74,1.74,0,0,0-.48-1.24,1.61,1.61,0,0,0-1.23-.51,1.64,1.64,0,0,0-1.37.64,2.91,2.91,0,0,0-.5,1.81,2.48,2.48,0,0,0,.48,1.62,1.58,1.58,0,0,0,1.26.59,1.66,1.66,0,0,0,1.34-.58A2.1,2.1,0,0,0,178.87,235.24Z" fill="#1e1e1e"/>
      <path d="M186.63,237.94h-1V237h0a2,2,0,0,1-1.85,1.09c-1.43,0-2.15-.85-2.15-2.56v-3.58h1v3.43c0,1.27.48,1.9,1.45,1.9a1.47,1.47,0,0,0,1.16-.52,2,2,0,0,0,.45-1.35v-3.46h1Z" fill="#1e1e1e"/>
      <path d="M193.39,235.18h-4.23a2.21,2.21,0,0,0,.54,1.55,1.85,1.85,0,0,0,1.41.54,2.94,2.94,0,0,0,1.87-.67v.9a3.45,3.45,0,0,1-2.09.58,2.52,2.52,0,0,1-2-.82,3.81,3.81,0,0,1,.07-4.58,2.51,2.51,0,0,1,2-.88,2.25,2.25,0,0,1,1.82.76,3.17,3.17,0,0,1,.64,2.11Zm-1-.82a2,2,0,0,0-.4-1.29,1.37,1.37,0,0,0-1.1-.46,1.59,1.59,0,0,0-1.16.48,2.24,2.24,0,0,0-.58,1.27Z" fill="#1e1e1e"/>
      <path d="M194.48,237.72v-1a2.84,2.84,0,0,0,1.73.58c.85,0,1.27-.28,1.27-.84a.76.76,0,0,0-.11-.41,1.17,1.17,0,0,0-.29-.3,3,3,0,0,0-.44-.23l-.53-.21a6.76,6.76,0,0,1-.7-.32,2.55,2.55,0,0,1-.51-.36,1.52,1.52,0,0,1-.3-.46,1.66,1.66,0,0,1-.11-.61,1.45,1.45,0,0,1,.2-.75,1.87,1.87,0,0,1,.51-.54,2.26,2.26,0,0,1,.74-.33,3.05,3.05,0,0,1,.85-.11,3.46,3.46,0,0,1,1.4.27v1a2.74,2.74,0,0,0-1.53-.43,1.75,1.75,0,0,0-.48.06,1.15,1.15,0,0,0-.37.17.72.72,0,0,0-.25.27.74.74,0,0,0-.08.34.87.87,0,0,0,.08.39.83.83,0,0,0,.25.28,1.91,1.91,0,0,0,.4.23l.53.21a6.17,6.17,0,0,1,.72.32,2.42,2.42,0,0,1,.54.36,1.32,1.32,0,0,1,.34.47,1.46,1.46,0,0,1,.12.62,1.5,1.5,0,0,1-.19.78,1.71,1.71,0,0,1-.53.54,2.26,2.26,0,0,1-.76.32,3.68,3.68,0,0,1-.89.11A3.41,3.41,0,0,1,194.48,237.72Z" fill="#1e1e1e"/>
      <path d="M202.72,237.88a1.91,1.91,0,0,1-.9.19c-1,0-1.57-.59-1.57-1.76v-3.55h-1v-.82h1v-1.47l1-.31v1.78h1.51v.82h-1.51v3.38a1.45,1.45,0,0,0,.2.86.84.84,0,0,0,.68.26,1,1,0,0,0,.63-.2Z" fill="#1e1e1e"/>
      <path d="M204.84,229.54v2.61H204v-2.61Zm1.94,0v2.61h-.85v-2.61Z" fill="#1e1e1e"/>
      <path d="M208.73,239.85h-.85a7.75,7.75,0,0,0,1.83-5.13,7.91,7.91,0,0,0-1.84-5.18h.86a7.73,7.73,0,0,1,1.83,5.19A7.46,7.46,0,0,1,208.73,239.85Z" fill="#1e1e1e"/>
    </g>
    <g>
      <path d="M99.27,258.05H96V261h3v.89H96v3.72H95v-8.4h4.26Z" fill="#1e1e1e"/>
      <path d="M101.7,265.56h-1v-8.88h1Z" fill="#1e1e1e"/>
      <path d="M106.15,265.7a2.79,2.79,0,0,1-2.12-.84,3.1,3.1,0,0,1-.79-2.23,3.23,3.23,0,0,1,.82-2.36,3,3,0,0,1,2.23-.85,2.69,2.69,0,0,1,2.1.82,3.32,3.32,0,0,1,.75,2.3,3.25,3.25,0,0,1-.81,2.3A2.87,2.87,0,0,1,106.15,265.7Zm.07-5.47a1.83,1.83,0,0,0-1.46.63,2.58,2.58,0,0,0-.54,1.73,2.42,2.42,0,0,0,.55,1.69,1.82,1.82,0,0,0,1.45.61,1.77,1.77,0,0,0,1.44-.6,3.23,3.23,0,0,0,0-3.45A1.75,1.75,0,0,0,106.22,260.23Z" fill="#1e1e1e"/>
      <path d="M118.24,259.56l-1.8,6h-1l-1.24-4.3a4,4,0,0,1-.09-.55h0a2.56,2.56,0,0,1-.13.54l-1.34,4.31h-1l-1.81-6h1l1.25,4.51a4.55,4.55,0,0,1,.08.54h0a3,3,0,0,1,.11-.55l1.38-4.5h.88l1.24,4.52a3.36,3.36,0,0,1,.09.54h0a2.61,2.61,0,0,1,.1-.54l1.22-4.52Z" fill="#1e1e1e"/>
      <path d="M127.76,265.56h-1v-1h0a2.21,2.21,0,0,1-2.06,1.16,2.24,2.24,0,0,1-1.81-.81,3.28,3.28,0,0,1-.67-2.19,3.57,3.57,0,0,1,.75-2.38,2.46,2.46,0,0,1,2-.9,1.91,1.91,0,0,1,1.8,1h0v-3.71h1Zm-1-2.71V262a1.7,1.7,0,0,0-.49-1.23,1.61,1.61,0,0,0-1.21-.5,1.67,1.67,0,0,0-1.39.64,2.87,2.87,0,0,0-.5,1.78,2.56,2.56,0,0,0,.48,1.64,1.6,1.6,0,0,0,1.3.6,1.65,1.65,0,0,0,1.31-.58A2.17,2.17,0,0,0,126.8,262.85Z" fill="#1e1e1e"/>
      <path d="M130.19,258a.62.62,0,0,1-.44-.18.61.61,0,0,1-.18-.45.6.6,0,0,1,.18-.44.62.62,0,0,1,.44-.18.61.61,0,0,1,.45.18.58.58,0,0,1,.19.44.56.56,0,0,1-.19.44A.58.58,0,0,1,130.19,258Zm.47,7.52h-1v-6h1Z" fill="#1e1e1e"/>
      <path d="M135.74,260.53a1.18,1.18,0,0,0-.73-.19,1.23,1.23,0,0,0-1,.58,2.72,2.72,0,0,0-.41,1.58v3.06h-1v-6h1v1.24h0a2.07,2.07,0,0,1,.63-1,1.4,1.4,0,0,1,.94-.36,1.5,1.5,0,0,1,.58.09Z" fill="#1e1e1e"/>
      <path d="M141.6,262.8h-4.23a2.25,2.25,0,0,0,.53,1.55,1.88,1.88,0,0,0,1.42.54,2.94,2.94,0,0,0,1.87-.67v.91a3.53,3.53,0,0,1-2.1.57,2.51,2.51,0,0,1-2-.82,3.83,3.83,0,0,1,.06-4.58,2.55,2.55,0,0,1,2-.88,2.25,2.25,0,0,1,1.82.76,3.18,3.18,0,0,1,.64,2.12Zm-1-.81a2,2,0,0,0-.4-1.3,1.37,1.37,0,0,0-1.1-.46,1.57,1.57,0,0,0-1.16.48,2.24,2.24,0,0,0-.58,1.28Z" fill="#1e1e1e"/>
      <path d="M147.14,265.28a3.08,3.08,0,0,1-1.64.42,2.72,2.72,0,0,1-2.07-.84,3,3,0,0,1-.79-2.16,3.35,3.35,0,0,1,.85-2.38,3,3,0,0,1,2.27-.9,3.27,3.27,0,0,1,1.4.29v1a2.42,2.42,0,0,0-1.43-.47,1.92,1.92,0,0,0-1.51.66,2.5,2.5,0,0,0-.59,1.73,2.36,2.36,0,0,0,.55,1.66,1.91,1.91,0,0,0,1.49.61,2.38,2.38,0,0,0,1.47-.52Z" fill="#1e1e1e"/>
      <path d="M151.38,265.5a1.8,1.8,0,0,1-.9.19c-1,0-1.57-.59-1.57-1.76v-3.55h-1v-.82h1v-1.47l1-.31v1.78h1.51v.82h-1.51v3.38a1.45,1.45,0,0,0,.2.86.84.84,0,0,0,.68.26,1,1,0,0,0,.63-.2Z" fill="#1e1e1e"/>
      <path d="M153.16,258a.59.59,0,0,1-.44-.18.61.61,0,0,1-.18-.45.6.6,0,0,1,.18-.44.59.59,0,0,1,.44-.18.64.64,0,0,1,.45.18.6.6,0,0,1,.18.44.59.59,0,0,1-.18.44A.61.61,0,0,1,153.16,258Zm.47,7.52h-1v-6h1Z" fill="#1e1e1e"/>
      <path d="M158.08,265.7a2.76,2.76,0,0,1-2.12-.84,3.11,3.11,0,0,1-.8-2.23,3.23,3.23,0,0,1,.83-2.36,3,3,0,0,1,2.23-.85,2.68,2.68,0,0,1,2.09.82,3.76,3.76,0,0,1-.05,4.6A2.87,2.87,0,0,1,158.08,265.7Zm.07-5.47a1.84,1.84,0,0,0-1.47.63,2.58,2.58,0,0,0-.54,1.73,2.47,2.47,0,0,0,.55,1.69,1.85,1.85,0,0,0,1.46.61,1.75,1.75,0,0,0,1.43-.6,3.23,3.23,0,0,0,0-3.45A1.73,1.73,0,0,0,158.15,260.23Z" fill="#1e1e1e"/>
      <path d="M167.58,265.56h-1v-3.42c0-1.28-.46-1.91-1.39-1.91a1.5,1.5,0,0,0-1.19.54,2,2,0,0,0-.48,1.37v3.42h-1v-6h1v1h0a2.16,2.16,0,0,1,2-1.14,1.84,1.84,0,0,1,1.5.63,2.84,2.84,0,0,1,.52,1.84Z" fill="#1e1e1e"/>
      <path d="M175.64,257.52a1.21,1.21,0,0,0-.63-.16c-.68,0-1,.43-1,1.27v.93h1.4v.82H174v5.18h-1v-5.18h-1v-.82h1v-1a2,2,0,0,1,.55-1.49,1.81,1.81,0,0,1,1.36-.55,1.86,1.86,0,0,1,.69.1Z" fill="#1e1e1e"/>
      <path d="M178.94,265.7a2.79,2.79,0,0,1-2.12-.84,3.1,3.1,0,0,1-.79-2.23,3.23,3.23,0,0,1,.82-2.36,3,3,0,0,1,2.23-.85,2.69,2.69,0,0,1,2.1.82,3.32,3.32,0,0,1,.75,2.3,3.25,3.25,0,0,1-.81,2.3A2.87,2.87,0,0,1,178.94,265.7Zm.07-5.47a1.83,1.83,0,0,0-1.46.63,2.58,2.58,0,0,0-.54,1.73,2.42,2.42,0,0,0,.55,1.69,1.82,1.82,0,0,0,1.45.61,1.77,1.77,0,0,0,1.44-.6,3.23,3.23,0,0,0,0-3.45A1.75,1.75,0,0,0,179,260.23Z" fill="#1e1e1e"/>
      <path d="M186.6,260.53a1.18,1.18,0,0,0-.73-.19,1.23,1.23,0,0,0-1,.58,2.72,2.72,0,0,0-.41,1.58v3.06h-1v-6h1v1.24h0a2.07,2.07,0,0,1,.63-1,1.4,1.4,0,0,1,.94-.36,1.5,1.5,0,0,1,.58.09Z" fill="#1e1e1e"/>
      <path d="M98,273.73a1.18,1.18,0,0,0-.73-.19,1.23,1.23,0,0,0-1,.58,2.72,2.72,0,0,0-.41,1.58v3.06h-1v-6h1V274h0a2.07,2.07,0,0,1,.63-1,1.42,1.42,0,0,1,.94-.36,1.46,1.46,0,0,1,.58.09Z" fill="#1e1e1e"/>
      <path d="M103.87,276H99.64a2.21,2.21,0,0,0,.54,1.55,1.85,1.85,0,0,0,1.42.54,2.93,2.93,0,0,0,1.86-.67v.91a3.52,3.52,0,0,1-2.09.57,2.52,2.52,0,0,1-2-.82,3.81,3.81,0,0,1,.07-4.58,2.53,2.53,0,0,1,2-.88,2.25,2.25,0,0,1,1.82.76,3.18,3.18,0,0,1,.64,2.12Zm-1-.81a2,2,0,0,0-.4-1.3,1.37,1.37,0,0,0-1.1-.46,1.55,1.55,0,0,0-1.15.48,2.19,2.19,0,0,0-.59,1.28Z" fill="#1e1e1e"/>
      <path d="M108.11,278.7a1.8,1.8,0,0,1-.9.19c-1,0-1.57-.59-1.57-1.76v-3.55h-1v-.82h1v-1.47l1-.31v1.78h1.51v.82H106.6V277a1.45,1.45,0,0,0,.2.86.84.84,0,0,0,.68.26,1,1,0,0,0,.63-.2Z" fill="#1e1e1e"/>
      <path d="M114.25,278.76h-1v-.95h0a2,2,0,0,1-1.85,1.09c-1.43,0-2.14-.85-2.14-2.55v-3.59h1v3.43c0,1.27.48,1.9,1.45,1.9a1.46,1.46,0,0,0,1.16-.52,2,2,0,0,0,.45-1.35v-3.46h1Z" fill="#1e1e1e"/>
      <path d="M119.31,273.73a1.14,1.14,0,0,0-.72-.19,1.21,1.21,0,0,0-1,.58,2.64,2.64,0,0,0-.41,1.58v3.06h-1v-6h1V274h0a2.07,2.07,0,0,1,.63-1,1.54,1.54,0,0,1,1.51-.27Z" fill="#1e1e1e"/>
      <path d="M125.34,278.76h-1v-3.42c0-1.28-.47-1.91-1.4-1.91a1.5,1.5,0,0,0-1.19.54,2,2,0,0,0-.47,1.37v3.42h-1v-6h1v1h0a2.16,2.16,0,0,1,2-1.14,1.82,1.82,0,0,1,1.5.63,2.84,2.84,0,0,1,.53,1.84Z" fill="#1e1e1e"/>
      <path d="M133,280.67h-.85a7.5,7.5,0,0,1-1.82-5.12,7.77,7.77,0,0,1,1.82-5.19H133a7.86,7.86,0,0,0-1.84,5.18A7.75,7.75,0,0,0,133,280.67Z" fill="#1e1e1e"/>
      <path d="M134.89,270.36V273H134v-2.62Zm1.94,0V273H136v-2.62Z" fill="#1e1e1e"/>
      <path d="M141.89,273.73a1.18,1.18,0,0,0-.73-.19,1.2,1.2,0,0,0-1,.58,2.64,2.64,0,0,0-.42,1.58v3.06h-1v-6h1V274h0a2.07,2.07,0,0,1,.63-1,1.42,1.42,0,0,1,.94-.36,1.46,1.46,0,0,1,.58.09Z" fill="#1e1e1e"/>
      <path d="M147.75,276h-4.23a2.21,2.21,0,0,0,.54,1.55,1.85,1.85,0,0,0,1.41.54,2.94,2.94,0,0,0,1.87-.67v.91a3.52,3.52,0,0,1-2.09.57,2.52,2.52,0,0,1-2-.82,3.81,3.81,0,0,1,.07-4.58,2.53,2.53,0,0,1,2-.88,2.25,2.25,0,0,1,1.82.76,3.18,3.18,0,0,1,.64,2.12Zm-1-.81a2,2,0,0,0-.4-1.3,1.36,1.36,0,0,0-1.1-.46,1.55,1.55,0,0,0-1.15.48,2.19,2.19,0,0,0-.59,1.28Z" fill="#1e1e1e"/>
      <path d="M150.19,277.89h0v3.63h-1v-8.76h1v1.05h0a2.29,2.29,0,0,1,2.08-1.19,2.23,2.23,0,0,1,1.81.8,3.37,3.37,0,0,1,.65,2.16A3.69,3.69,0,0,1,154,278a2.4,2.4,0,0,1-2,.91A2,2,0,0,1,150.19,277.89Zm0-2.42v.84a1.77,1.77,0,0,0,.48,1.26,1.59,1.59,0,0,0,1.23.52,1.6,1.6,0,0,0,1.37-.67,3,3,0,0,0,.49-1.85,2.39,2.39,0,0,0-.46-1.57,1.53,1.53,0,0,0-1.25-.57,1.7,1.7,0,0,0-1.35.58A2.15,2.15,0,0,0,150.17,275.47Z" fill="#1e1e1e"/>
      <path d="M157.22,278.76h-1v-8.88h1Z" fill="#1e1e1e"/>
      <path d="M163.94,272.76l-2.76,7q-.74,1.86-2.07,1.86a2.28,2.28,0,0,1-.63-.07v-.86a1.8,1.8,0,0,0,.57.1,1.17,1.17,0,0,0,1.09-.87l.48-1.13-2.34-6h1.06l1.63,4.62q0,.09.12.45h0a3,3,0,0,1,.11-.44l1.71-4.63Z" fill="#1e1e1e"/>
      <path d="M165.81,270.36V273H165v-2.62Zm1.94,0V273h-.85v-2.62Z" fill="#1e1e1e"/>
      <path d="M169.7,280.67h-.85a7.75,7.75,0,0,0,1.83-5.13,7.91,7.91,0,0,0-1.84-5.18h.86a7.73,7.73,0,0,1,1.83,5.19A7.46,7.46,0,0,1,169.7,280.67Z" fill="#1e1e1e"/>
    </g>
    <g>
      <path d="M56.62,11v3.17h-1V5.75H58A3,3,0,0,1,60,6.41a2.31,2.31,0,0,1,.75,1.85,2.55,2.55,0,0,1-.83,2,3.18,3.18,0,0,1-2.22.76Zm0-4.34v3.45h1a2.33,2.33,0,0,0,1.56-.47,1.67,1.67,0,0,0,.53-1.31c0-1.11-.65-1.67-2-1.67Z" fill="#1e1e1e"/>
      <path d="M63.34,14.15h-1V5.75h1Z" fill="#1e1e1e"/>
      <path d="M66.54,11v3.17h-1V5.75h2.31A3,3,0,0,1,70,6.41a2.34,2.34,0,0,1,.74,1.85,2.58,2.58,0,0,1-.82,2,3.19,3.19,0,0,1-2.23.76Zm0-4.34v3.45h1a2.3,2.3,0,0,0,1.55-.47,1.64,1.64,0,0,0,.54-1.31c0-1.11-.66-1.67-2-1.67Z" fill="#1e1e1e"/>
    </g>
    <g>
      <path d="M104,11v3.17h-1V5.75h2.31a3,3,0,0,1,2.09.66,2.34,2.34,0,0,1,.74,1.85,2.55,2.55,0,0,1-.83,2,3.16,3.16,0,0,1-2.22.76Zm0-4.34v3.45h1a2.33,2.33,0,0,0,1.56-.47,1.64,1.64,0,0,0,.54-1.31c0-1.11-.66-1.67-2-1.67Z" fill="#1e1e1e"/>
      <path d="M110.69,14.15h-1V5.75h1Z" fill="#1e1e1e"/>
      <path d="M113.89,11v3.17h-1V5.75h2.31a3,3,0,0,1,2.09.66A2.34,2.34,0,0,1,118,8.26a2.54,2.54,0,0,1-.82,2A3.19,3.19,0,0,1,115,11Zm0-4.34v3.45h1a2.28,2.28,0,0,0,1.55-.47A1.64,1.64,0,0,0,117,8.31c0-1.11-.66-1.67-2-1.67Z" fill="#1e1e1e"/>
    </g>
    <g>
      <path d="M147.62,11v3.17h-1V5.75H149a3,3,0,0,1,2.08.66,2.31,2.31,0,0,1,.75,1.85,2.55,2.55,0,0,1-.83,2,3.18,3.18,0,0,1-2.22.76Zm0-4.34v3.45h1a2.33,2.33,0,0,0,1.56-.47,1.63,1.63,0,0,0,.53-1.31c0-1.11-.65-1.67-2-1.67Z" fill="#1e1e1e"/>
      <path d="M156.36,9.13a1.18,1.18,0,0,0-.73-.2,1.25,1.25,0,0,0-1,.58,2.74,2.74,0,0,0-.41,1.58v3.06h-1v-6h1V9.39h0a2.17,2.17,0,0,1,.63-1,1.46,1.46,0,0,1,.94-.35,1.75,1.75,0,0,1,.58.08Z" fill="#1e1e1e"/>
      <path d="M162.22,11.39H158a2.19,2.19,0,0,0,.54,1.55,1.85,1.85,0,0,0,1.41.55,3,3,0,0,0,1.87-.67v.9a3.52,3.52,0,0,1-2.09.57,2.54,2.54,0,0,1-2-.81,3.33,3.33,0,0,1-.73-2.3,3.34,3.34,0,0,1,.79-2.29,2.58,2.58,0,0,1,2-.88,2.28,2.28,0,0,1,1.82.76,3.19,3.19,0,0,1,.64,2.12Zm-1-.81a2,2,0,0,0-.4-1.3,1.4,1.4,0,0,0-1.1-.46,1.56,1.56,0,0,0-1.16.49,2.21,2.21,0,0,0-.58,1.27Z" fill="#1e1e1e"/>
      <path d="M166.64,6.11A1.34,1.34,0,0,0,166,6c-.67,0-1,.42-1,1.27v.92h1.41V9H165v5.18h-1V9h-1V8.15h1v-1a2,2,0,0,1,.54-1.49,1.84,1.84,0,0,1,1.36-.55,1.86,1.86,0,0,1,.7.11Z" fill="#1e1e1e"/>
      <path d="M167.92,6.63a.62.62,0,0,1-.44-.18A.57.57,0,0,1,167.3,6a.61.61,0,0,1,.18-.45.62.62,0,0,1,.44-.18.61.61,0,0,1,.45.18.58.58,0,0,1,.19.45.58.58,0,0,1-.19.44A.61.61,0,0,1,167.92,6.63Zm.47,7.52h-1v-6h1Z" fill="#1e1e1e"/>
      <path d="M174.72,8.15l-2,3,2,3h-1.12l-1.18-1.94c-.08-.12-.16-.28-.26-.46h0l-.27.46-1.2,1.94h-1.11l2-2.94-1.95-3.06h1.11l1.17,2,.25.47h0l1.5-2.52Z" fill="#1e1e1e"/>
    </g>
    <g>
      <path d="M5.06,14.15h-1V5.75h1Z" fill="#767676"/>
      <path d="M11.63,14.15H7.27V5.75h1v7.51h3.37Z" fill="#767676"/>
      <path d="M19.59,11v3.17h-1V5.75h2.31A3.06,3.06,0,0,1,23,6.41a2.35,2.35,0,0,1,.74,1.85,2.55,2.55,0,0,1-.83,2A3.18,3.18,0,0,1,20.7,11Zm0-4.34v3.45h1a2.33,2.33,0,0,0,1.56-.47,1.64,1.64,0,0,0,.54-1.31c0-1.11-.66-1.67-2-1.67Z" fill="#1e1e1e"/>
      <path d="M26.31,14.15h-1V5.75h1Z" fill="#1e1e1e"/>
      <path d="M29.51,11v3.17h-1V5.75h2.31a3,3,0,0,1,2.09.66,2.35,2.35,0,0,1,.74,1.85,2.54,2.54,0,0,1-.82,2,3.19,3.19,0,0,1-2.23.76Zm0-4.34v3.45h1a2.28,2.28,0,0,0,1.55-.47,1.64,1.64,0,0,0,.54-1.31c0-1.11-.66-1.67-2-1.67Z" fill="#1e1e1e"/>
    </g>
    <g>
      <path d="M16.35,215.13l-3.11,8.4H12.15l-3-8.4H10.2l2.33,6.66a4.27,4.27,0,0,1,.17.74h0a4.13,4.13,0,0,1,.19-.75l2.38-6.65Z" fill="#1e1e1e"/>
      <path d="M17.92,216a.6.6,0,0,1-.44-.18.59.59,0,0,1-.18-.44.61.61,0,0,1,.18-.45.6.6,0,0,1,.44-.18.64.64,0,0,1,.45.18.61.61,0,0,1,.18.45.58.58,0,0,1-.18.43A.61.61,0,0,1,17.92,216Zm.47,7.52h-1v-6h1Z" fill="#1e1e1e"/>
      <path d="M23.46,218.5a1.18,1.18,0,0,0-.73-.19,1.2,1.2,0,0,0-1,.58,2.64,2.64,0,0,0-.42,1.58v3.06h-1v-6h1v1.24h0a2,2,0,0,1,.62-1,1.43,1.43,0,0,1,.95-.36,1.41,1.41,0,0,1,.57.09Z" fill="#1e1e1e"/>
      <path d="M27.29,223.47a1.82,1.82,0,0,1-.9.19c-1.05,0-1.58-.59-1.58-1.76v-3.55h-1v-.82h1v-1.46l1-.32v1.78h1.51v.82H25.78v3.38a1.38,1.38,0,0,0,.2.86.83.83,0,0,0,.68.26,1.05,1.05,0,0,0,.63-.2Z" fill="#1e1e1e"/>
      <path d="M33.42,223.53h-1v-.95h0a2,2,0,0,1-1.85,1.09c-1.43,0-2.15-.85-2.15-2.55v-3.59h1V221c0,1.27.48,1.9,1.45,1.9a1.47,1.47,0,0,0,1.16-.52,2,2,0,0,0,.45-1.35v-3.46h1Z" fill="#1e1e1e"/>
      <path d="M39.66,223.53h-1v-.94h0a2.2,2.2,0,0,1-3.25.61,1.68,1.68,0,0,1-.5-1.26c0-1.12.66-1.78,2-2l1.8-.25c0-1-.42-1.53-1.24-1.53a2.92,2.92,0,0,0-2,.74v-1a3.76,3.76,0,0,1,2-.56c1.41,0,2.12.75,2.12,2.24Zm-1-3-1.45.2a2.43,2.43,0,0,0-1,.34,1.08,1.08,0,0,0,0,1.55,1.2,1.2,0,0,0,.84.28,1.51,1.51,0,0,0,1.18-.5,1.8,1.8,0,0,0,.47-1.27Z" fill="#1e1e1e"/>
      <path d="M42.43,223.53h-1v-8.88h1Z" fill="#1e1e1e"/>
      <path d="M16.88,236.73H15.67L11.34,230a2.86,2.86,0,0,1-.27-.52h0a8.6,8.6,0,0,1,.05,1.15v6.07h-1v-8.4h1.28l4.21,6.59c.17.27.29.46.34.56h0a8.58,8.58,0,0,1-.06-1.23v-5.92h1Z" fill="#1e1e1e"/>
      <path d="M23.77,234H19.54a2.25,2.25,0,0,0,.53,1.55,1.88,1.88,0,0,0,1.42.54,2.94,2.94,0,0,0,1.87-.67v.91a3.53,3.53,0,0,1-2.1.57,2.51,2.51,0,0,1-2-.82,3.83,3.83,0,0,1,.06-4.58,2.55,2.55,0,0,1,2-.88,2.25,2.25,0,0,1,1.82.76,3.18,3.18,0,0,1,.64,2.12Zm-1-.81a2,2,0,0,0-.4-1.3,1.37,1.37,0,0,0-1.1-.46,1.57,1.57,0,0,0-1.16.48,2.24,2.24,0,0,0-.58,1.28Z" fill="#1e1e1e"/>
      <path d="M28,236.67a1.82,1.82,0,0,1-.9.19c-1.05,0-1.57-.59-1.57-1.76v-3.55h-1v-.82h1v-1.46l1-.32v1.78H28v.82H26.5v3.38a1.38,1.38,0,0,0,.2.86.83.83,0,0,0,.68.26,1.05,1.05,0,0,0,.63-.2Z" fill="#1e1e1e"/>
      <path d="M36.85,230.73l-1.8,6h-1l-1.24-4.29a3,3,0,0,1-.1-.56h0a2.44,2.44,0,0,1-.12.54l-1.34,4.31h-1l-1.82-6h1l1.24,4.51a2.38,2.38,0,0,1,.08.54h.05a3.06,3.06,0,0,1,.1-.55l1.39-4.5h.88l1.24,4.52a3.36,3.36,0,0,1,.09.54h0a2.61,2.61,0,0,1,.1-.54l1.22-4.52Z" fill="#1e1e1e"/>
      <path d="M40.47,236.87a2.77,2.77,0,0,1-2.12-.84,3.11,3.11,0,0,1-.8-2.23,3.25,3.25,0,0,1,.83-2.36,3,3,0,0,1,2.23-.85,2.68,2.68,0,0,1,2.1.83,3.77,3.77,0,0,1-.06,4.59A2.87,2.87,0,0,1,40.47,236.87Zm.07-5.47a1.81,1.81,0,0,0-1.46.63,2.59,2.59,0,0,0-.54,1.74,2.46,2.46,0,0,0,.54,1.68,1.86,1.86,0,0,0,1.46.61,1.75,1.75,0,0,0,1.43-.6A3.23,3.23,0,0,0,42,232,1.73,1.73,0,0,0,40.54,231.4Z" fill="#1e1e1e"/>
      <path d="M48.12,231.7a1.14,1.14,0,0,0-.72-.19,1.21,1.21,0,0,0-1,.58,2.64,2.64,0,0,0-.41,1.58v3.06H45v-6h1V232h0a2,2,0,0,1,.63-1,1.54,1.54,0,0,1,1.51-.27Z" fill="#1e1e1e"/>
      <path d="M54.15,236.73H52.8l-2.65-2.88h0v2.88h-1v-8.88h1v5.63h0l2.52-2.75h1.26l-2.78,2.89Z" fill="#1e1e1e"/>
    </g>
  </g>
</svg>
