<svg xmlns="http://www.w3.org/2000/svg" xmlns:xlink="http://www.w3.org/1999/xlink" viewBox="0 0 171.02 202.65">
  <defs>
    <linearGradient id="linear-gradient" x1="83.55" y1="2218.86" x2="83.55" y2="2206.07" gradientTransform="translate(0 -2183.64)" gradientUnits="userSpaceOnUse">
      <stop offset="0" stop-color="#32bedd"/>
      <stop offset="0.18" stop-color="#32caea"/>
      <stop offset="0.41" stop-color="#32d2f2"/>
      <stop offset="0.78" stop-color="#32d4f5"/>
    </linearGradient>
    <linearGradient id="linear-gradient-2" x1="92.01" y1="2225.14" x2="92.01" y2="2212.35" xlink:href="#linear-gradient"/>
    <linearGradient id="linear-gradient-3" x1="100.46" y1="2231.42" x2="100.46" y2="2218.63" xlink:href="#linear-gradient"/>
    <linearGradient id="linear-gradient-4" x1="22.55" y1="409.18" x2="22.55" y2="429.76" gradientTransform="matrix(1, 0, 0, -1, 0, 455.98)" xlink:href="#linear-gradient"/>
    <linearGradient id="linear-gradient-5" x1="38.42" y1="280.8" x2="40.79" y2="278.43" gradientTransform="matrix(1, 0, 0, -1, 2.9, 455.44)" gradientUnits="userSpaceOnUse">
      <stop offset="0" stop-color="#86d633"/>
      <stop offset="0.24" stop-color="#83d232"/>
      <stop offset="0.5" stop-color="#7cc52f"/>
      <stop offset="0.76" stop-color="#6fb02a"/>
      <stop offset="1" stop-color="#5e9624"/>
    </linearGradient>
    <linearGradient id="linear-gradient-6" x1="33.08" y1="280.8" x2="35.44" y2="278.43" xlink:href="#linear-gradient-5"/>
    <linearGradient id="linear-gradient-7" x1="27.74" y1="280.81" x2="30.1" y2="278.44" xlink:href="#linear-gradient-5"/>
  </defs>
  <title>flow-map</title>
  <g id="Shapes">
    <rect width="170.48" height="202.65" fill="#fff"/>
    <g>
      <g>
        <rect x="15.52" y="120.49" width="155" height="55" rx="5" fill="#fff"/>
        <rect x="15.52" y="120.49" width="155" height="55" rx="5" fill="#3c3c41" opacity="0.05"/>
      </g>
      <path d="M164.37,176h-1v-1h1Zm-3,0h-1v-1h1Zm-3,0h-1v-1h1Zm-3,0h-1v-1h1Zm-3,0h-1v-1h1Zm-3,0h-1v-1h1Zm-3,0h-1v-1h1Zm-3,0h-1v-1h1Zm-3,0h-1v-1h1Zm-3,0h-1v-1h1Zm-3,0h-1v-1h1Zm-3,0h-1v-1h1Zm-3,0h-1v-1h1Zm-3,0h-1v-1h1Zm-3,0h-1v-1h1Zm-3,0h-1v-1h1Zm-3,0h-1v-1h1Zm-3,0h-1v-1h1Zm-3,0h-1v-1h1Zm-3,0h-1v-1h1Zm-3,0h-1v-1h1Zm-3,0h-1v-1h1Zm-3,0h-1v-1h1Zm-3,0h-1v-1h1Zm-3,0h-1v-1h1Zm-3,0h-1v-1h1Zm-3,0h-1v-1h1Zm-3,0h-1v-1h1Zm-3,0h-1v-1h1Zm-3,0h-1v-1h1Zm-3,0h-1v-1h1Zm-3,0h-1v-1h1Zm-3,0h-1v-1h1Zm-3,0h-1v-1h1Zm-3,0h-1v-1h1Zm-3,0h-1v-1h1Zm-3,0h-1v-1h1Zm-3,0h-1v-1h1Zm-33.05,0a5.75,5.75,0,0,1-1.09-.17l.26-1a3.76,3.76,0,0,0,.88.14Zm146.23-.07-.17-1a5.11,5.11,0,0,0,.87-.25l.36.94A5.54,5.54,0,0,1,166.45,175.91ZM17.17,174.84a5.16,5.16,0,0,1-.8-.75l.76-.66a4.74,4.74,0,0,0,.65.62Zm152.18-.41-.7-.71a4.24,4.24,0,0,0,.58-.69l.83.57A5.65,5.65,0,0,1,169.35,174.43ZM15.29,172.19a5.77,5.77,0,0,1-.23-1.08l1-.11a5.31,5.31,0,0,0,.19.88Zm155.62-.61-1-.2a4.41,4.41,0,0,0,.09-.89l1-.06v.06A4.92,4.92,0,0,1,170.91,171.58ZM16,169.06H15v-1h1Zm155-.63h-1v-1h1ZM16,166.05H15v-1h1Zm155-.62h-1v-1h1ZM16,163.05H15v-1h1Zm155-.63h-1v-1h1ZM16,160.05H15v-1h1Zm155-.63h-1v-1h1ZM16,157.05H15v-1h1Zm155-.63h-1v-1h1ZM16,154H15v-1h1Zm155-.62h-1v-1h1ZM16,151H15v-1h1Zm155-.63h-1v-1h1ZM16,148H15v-1h1Zm155-.63h-1v-1h1ZM16,145H15v-1h1Zm155-.63h-1v-1h1ZM16,142H15v-1h1Zm155-.62h-1v-1h1ZM16,139H15v-1h1Zm155-.63h-1v-1h1ZM16,136H15v-1h1Zm155-.63h-1v-1h1ZM16,133H15v-1h1Zm155-.63h-1v-1h1ZM16,130H15v-1h1Zm155-.62h-1v-1h1ZM16,127H15v-1h1Zm155-.63h-1v-.9l1-.11Zm-154.8-2.2-1-.3a5.29,5.29,0,0,1,.43-1l.88.48A4.05,4.05,0,0,0,16.22,124.19Zm153.41-.53a3.77,3.77,0,0,0-.45-.78l.82-.58a5.19,5.19,0,0,1,.54,1ZM17.71,122l-.62-.78a5.2,5.2,0,0,1,.92-.6l.46.89A4.69,4.69,0,0,0,17.71,122Zm150.16-.32a4.6,4.6,0,0,0-.8-.4l.34-.93a4.76,4.76,0,0,1,1,.48ZM20.19,121l-.08-1,.41,0h.63v1h-1Zm145.08,0h-1v-1h1Zm-3,0h-1v-1h1Zm-3,0h-1v-1h1Zm-3,0h-1v-1h1Zm-3,0h-1v-1h1Zm-3,0h-1v-1h1Zm-3,0h-1v-1h1Zm-3,0h-1v-1h1Zm-3,0h-1v-1h1Zm-3,0h-1v-1h1Zm-3,0h-1v-1h1Zm-3,0h-1v-1h1Zm-3,0h-1v-1h1Zm-3,0h-1v-1h1Zm-3,0h-1v-1h1Zm-3,0h-1v-1h1Zm-3,0h-1v-1h1Zm-3,0h-1v-1h1Zm-3,0h-1v-1h1Zm-3,0h-1v-1h1Zm-3,0h-1v-1h1Zm-3,0h-1v-1h1Zm-3,0h-1v-1h1Zm-3,0h-1v-1h1Zm-3,0h-1v-1h1Zm-3,0h-1v-1h1Zm-3,0h-1v-1h1Zm-3,0h-1v-1h1Zm-3,0h-1v-1h1Zm-3,0h-1v-1h1Zm-3,0h-1v-1h1Zm-3,0h-1v-1h1Zm-3,0h-1v-1h1Zm-3,0h-1v-1h1Zm-3,0h-1v-1h1Zm-3,0h-1v-1h1Zm-3,0h-1v-1h1Zm-3,0h-1v-1h1Zm-3,0h-1v-1h1Zm-3,0h-1v-1h1Zm-3,0h-1v-1h1Zm-3,0h-1v-1h1Zm-3,0h-1v-1h1Zm-3,0h-1v-1h1Zm-3,0h-1v-1h1Zm-3,0h-1v-1h1Zm-3,0h-1v-1h1Zm-3,0h-1v-1h1Z" fill="#3c3c41"/>
    </g>
    <g>
      <rect x="25.22" y="130.51" width="65.69" height="30" rx="0.3" fill="#fff"/>
      <rect x="25.22" y="130.51" width="65.69" height="30" rx="0.3" fill="#3c3c41" opacity="0.2"/>
    </g>
    <g>
      <rect x="95.59" y="130.51" width="65.69" height="30" rx="0.3" fill="#fff"/>
      <rect x="95.59" y="130.51" width="65.69" height="30" rx="0.3" fill="#3c3c41" opacity="0.2"/>
    </g>
    <g>
      <path d="M72.72,22.43H94.39V34.52a.73.73,0,0,1-.73.72H73.45a.73.73,0,0,1-.73-.72h0Z" fill="url(#linear-gradient)"/>
      <path d="M73.45,17.8H93.66a.73.73,0,0,1,.73.73h0v3.9H72.72v-3.9A.73.73,0,0,1,73.45,17.8Z" fill="#767676"/>
      <rect x="75.64" y="19.19" width="15.84" height="1.86" rx="0.36" fill="#f2f2f2"/>
      <path d="M81.17,28.69h21.68V40.77a.73.73,0,0,1-.73.73H81.89a.72.72,0,0,1-.72-.73h0Z" fill="url(#linear-gradient-2)"/>
      <path d="M81.89,24.08H102.1a.73.73,0,0,1,.73.73h0v3.88H81.19V24.81A.72.72,0,0,1,81.89,24.08Z" fill="#767676"/>
      <rect x="84.08" y="25.47" width="15.84" height="1.86" rx="0.36" fill="#f2f2f2"/>
      <g>
        <path d="M89.63,35h21.66V47.07a.72.72,0,0,1-.72.73H90.36a.73.73,0,0,1-.73-.73h0Z" fill="url(#linear-gradient-3)"/>
        <path d="M90.36,30.36h20.21a.72.72,0,0,1,.72.73V35H89.63v-3.9A.73.73,0,0,1,90.36,30.36Z" fill="#767676"/>
        <g>
          <circle cx="105.34" cy="40.6" r="1.76" fill="#f2f2f2"/>
          <circle cx="100.54" cy="40.6" r="1.76" fill="#f2f2f2"/>
          <circle cx="95.59" cy="40.6" r="1.76" fill="#f2f2f2"/>
        </g>
        <rect x="92.54" y="31.75" width="15.84" height="1.86" rx="0.36" fill="#f2f2f2"/>
      </g>
    </g>
    <g>
      <path d="M5.14,26.22H40V45.63a1.17,1.17,0,0,1-1.17,1.17H6.31a1.17,1.17,0,0,1-1.17-1.17Z" fill="url(#linear-gradient-4)"/>
      <path d="M6.31,18.8H38.79A1.17,1.17,0,0,1,40,20v6.25H5.14V20A1.17,1.17,0,0,1,6.31,18.8Z" fill="#767676"/>
      <circle cx="30.38" cy="35.23" r="2.83" fill="#f2f2f2"/>
      <circle cx="22.67" cy="35.23" r="2.83" fill="#f2f2f2"/>
      <circle cx="14.73" cy="35.23" r="2.83" fill="#f2f2f2"/>
      <rect x="9.83" y="21.01" width="25.46" height="2.99" rx="0.57" fill="#f2f2f2"/>
    </g>
    <g>
      <line x1="58.09" y1="130.51" x2="58.09" y2="107.89" fill="none" stroke="#3c3c41" stroke-miterlimit="10"/>
      <polygon points="61.83 108.99 58.09 102.51 54.35 108.99 61.83 108.99" fill="#3c3c41"/>
    </g>
    <g>
      <path d="M45.59,75.61H24.33a5,5,0,0,1-5-5V55.29" fill="none" stroke="#3c3c41" stroke-miterlimit="10"/>
      <polygon points="23.07 56.39 19.33 49.91 15.59 56.39 23.07 56.39" fill="#3c3c41"/>
    </g>
    <g>
      <path d="M97.34,55.29V70.61a5,5,0,0,1-5,5H69" fill="none" stroke="#3c3c41" stroke-miterlimit="10"/>
      <polygon points="93.6 56.39 97.34 49.91 101.08 56.39 93.6 56.39" fill="#3c3c41"/>
    </g>
    <g>
      <circle cx="42.11" cy="175.76" r="1.67" fill="url(#linear-gradient-5)"/>
      <circle cx="36.77" cy="175.78" r="1.67" fill="url(#linear-gradient-6)"/>
      <circle cx="31.43" cy="175.78" r="1.67" fill="url(#linear-gradient-7)"/>
      <path d="M32.64,182.47l-.95,1a.45.45,0,0,1-.62,0h0L24,176.36a.87.87,0,0,1,0-1.23h0l.95-1h0l7.71,7.69a.43.43,0,0,1,0,.61Z" fill="#50e6ff"/>
      <path d="M31.54,168.14l1,1a.44.44,0,0,1,0,.62l-7.57,7.59h0l-1-1a.88.88,0,0,1,0-1.23h0l7-7A.43.43,0,0,1,31.54,168.14Z" fill="#1490df"/>
      <path d="M48.49,174.16l1,1a.87.87,0,0,1,0,1.23h0l-7.1,7.07a.43.43,0,0,1-.61,0h0l-1-1a.43.43,0,0,1,0-.61h0l7.71-7.69Z" fill="#50e6ff"/>
      <path d="M49.45,176.34l-1,.95h0l-7.58-7.59a.44.44,0,0,1,0-.62h0l1-1a.43.43,0,0,1,.61,0h0l7,7a.87.87,0,0,1,0,1.23h0Z" fill="#1490df"/>
    </g>
    <g id="ad94e297-0e86-4eaf-aac0-d146ee9aea65">
      <g>
        <path d="M54,92.24,49.31,87.4a2.56,2.56,0,0,1-.78.14,2.43,2.43,0,1,1,2.24-3.33h4.62v1.62H50.84a2.94,2.94,0,0,1-.26.57l4.33,4.46,2.34-3.57V76.11H54.1l4-4,3.94,4H58.87v8.74l5.93-9-6-6a1,1,0,0,0-1.46,0l0,0L42.88,84.28a1,1,0,0,0,0,1.46l0,0,14.48,14.47-5.17-5.17Z" fill="#6ebcdb"/>
        <path d="M57.25,92.45V87.28l-2.34,3.58,1.72,1.84A1.76,1.76,0,0,1,57.25,92.45Z" fill="#5db4d7"/>
        <path d="M73.28,84.28,64.8,75.8l-5.93,9v7.61a2.06,2.06,0,0,1,.54.3l6.22-6.29a2.7,2.7,0,0,1-.31-.64H60.65V84.21h4.73a2.42,2.42,0,1,1,2.24,3.33,3.12,3.12,0,0,1-.67-.11L60.34,94.1a2.59,2.59,0,0,1,.1.62,2.43,2.43,0,1,1-4.85.19,2.32,2.32,0,0,1,.13-.9L54,92.29l-1.85,2.76,5.17,5.17a1,1,0,0,0,1.45,0L73.24,85.74a1,1,0,0,0,0-1.46Z" fill="#5db4d7"/>
        <path d="M65.38,84.21H60.65v1.62h4.67a2.22,2.22,0,0,1-.12-.72A2.3,2.3,0,0,1,65.38,84.21Z" fill="#e6e6e6"/>
        <path d="M50.84,85.83h4.55V84.21H50.77a2.14,2.14,0,0,1,.19.9A2.22,2.22,0,0,1,50.84,85.83Z" fill="#e6e6e6"/>
        <path d="M60.34,94.1,67,87.43a2.42,2.42,0,0,1-1.32-1l-6.22,6.29A2.29,2.29,0,0,1,60.34,94.1Z" fill="#e6e6e6"/>
        <path d="M56.68,92.7,55,90.86,50.58,86.4a2.42,2.42,0,0,1-1.27,1L54,92.24,55.72,94A2.42,2.42,0,0,1,56.68,92.7Z" fill="#e6e6e6"/>
        <path d="M62,76.11l-3.93-4-4,4h3.15V92.45a1.8,1.8,0,0,0-.57.25,2.43,2.43,0,0,0-1,1.31,2.41,2.41,0,0,0,4.62,1.4,2.68,2.68,0,0,0,.1-.69,2.59,2.59,0,0,0-.1-.62,2.29,2.29,0,0,0-.93-1.34,2.06,2.06,0,0,0-.54-.3V76.11Zm-3.93,20a1.34,1.34,0,1,1,1.34-1.34h0A1.34,1.34,0,0,1,58.08,96.06Z" fill="#fff"/>
        <path d="M50.58,86.4a2.94,2.94,0,0,0,.26-.57,2.22,2.22,0,0,0,.12-.72,2.14,2.14,0,0,0-.19-.9,2.41,2.41,0,1,0-2.24,3.33,2.56,2.56,0,0,0,.78-.14A2.42,2.42,0,0,0,50.58,86.4Zm-2,0a1.35,1.35,0,1,1,1.35-1.35h0a1.34,1.34,0,0,1-1.29,1.4h-.06Z" fill="#fff"/>
        <path d="M67,87.43a3.12,3.12,0,0,0,.67.11,2.43,2.43,0,1,0-2.24-3.33,2.3,2.3,0,0,0-.18.9,2.22,2.22,0,0,0,.12.72,2.7,2.7,0,0,0,.31.64A2.42,2.42,0,0,0,67,87.43Zm.67-3.65a1.34,1.34,0,1,1-1.48,1.49,1.33,1.33,0,0,1,1.18-1.49A1.5,1.5,0,0,1,67.62,83.78Z" fill="#fff"/>
        <path d="M58.08,93.38a1.34,1.34,0,1,0,1.34,1.34h0A1.34,1.34,0,0,0,58.08,93.38Z" fill="#86d633"/>
        <circle cx="48.53" cy="85.11" r="1.34" fill="#86d633"/>
        <path d="M67.62,86.45a1.35,1.35,0,1,0-1.34-1.34h0A1.34,1.34,0,0,0,67.62,86.45Z" fill="#86d633"/>
      </g>
    </g>
  </g>
  <g id="Text">
    <g>
      <path d="M54,65.22h-1.2l-4.33-6.7a2.57,2.57,0,0,1-.27-.52h0a9.28,9.28,0,0,1,0,1.15v6.07h-1v-8.4h1.28l4.2,6.59A5.88,5.88,0,0,1,53,64h0A8.58,8.58,0,0,1,53,62.74V56.82h1Z" fill="#1e1e1e"/>
      <path d="M62.69,65.22H61.6l-.89-2.35H57.15l-.84,2.35h-1.1l3.23-8.4h1ZM60.39,62,59.07,58.4a3.38,3.38,0,0,1-.13-.56h0a3.23,3.23,0,0,1-.14.56L57.48,62Z" fill="#1e1e1e"/>
      <path d="M68,57.71H65.61v7.51h-1V57.71H62.2v-.89H68Z" fill="#1e1e1e"/>
    </g>
    <g>
      <path d="M34.73,148.49V147.3a2.39,2.39,0,0,0,.5.32,4,4,0,0,0,.6.25c.21.06.42.11.64.15a3.13,3.13,0,0,0,.59,0,2.35,2.35,0,0,0,1.4-.34,1.2,1.2,0,0,0,.46-1,1.09,1.09,0,0,0-.16-.61,1.71,1.71,0,0,0-.42-.48,4.72,4.72,0,0,0-.64-.41l-.8-.41a9.54,9.54,0,0,1-.85-.47,3.3,3.3,0,0,1-.68-.52,1.94,1.94,0,0,1-.46-.64,2,2,0,0,1-.16-.84,1.9,1.9,0,0,1,.26-1,2.23,2.23,0,0,1,.68-.72,3,3,0,0,1,1-.42,4.1,4.1,0,0,1,1.1-.14,4.32,4.32,0,0,1,1.87.3v1.15a3.35,3.35,0,0,0-2-.54A3.7,3.7,0,0,0,37,141a2.14,2.14,0,0,0-.6.23,1.34,1.34,0,0,0-.42.4,1.09,1.09,0,0,0-.16.61,1.26,1.26,0,0,0,.12.57,1.38,1.38,0,0,0,.37.44,2.74,2.74,0,0,0,.59.39l.8.41c.31.15.6.31.88.48a3.84,3.84,0,0,1,.73.57,2.54,2.54,0,0,1,.5.68,1.94,1.94,0,0,1,.18.86,2.16,2.16,0,0,1-.25,1.08,2,2,0,0,1-.68.72,2.77,2.77,0,0,1-1,.4,5.52,5.52,0,0,1-1.17.13,3.53,3.53,0,0,1-.51,0l-.61-.09-.6-.16A1.89,1.89,0,0,1,34.73,148.49Z" fill="#1e1e1e"/>
      <path d="M46.43,148.84h-1v-1h0a2,2,0,0,1-1.9,1.13c-1.48,0-2.21-.88-2.21-2.64v-3.69h1v3.54q0,2,1.5,2a1.53,1.53,0,0,0,1.19-.53,2.06,2.06,0,0,0,.47-1.4v-3.56h1Z" fill="#1e1e1e"/>
      <path d="M49.31,148h0v.89h-1v-9.15h1v4.05h0a2.35,2.35,0,0,1,2.14-1.23,2.28,2.28,0,0,1,1.86.83,3.45,3.45,0,0,1,.68,2.23,3.84,3.84,0,0,1-.76,2.48,2.49,2.49,0,0,1-2.06.94A2,2,0,0,1,49.31,148Zm0-2.5v.87a1.81,1.81,0,0,0,.5,1.3,1.78,1.78,0,0,0,2.67-.16,3.12,3.12,0,0,0,.51-1.91,2.48,2.48,0,0,0-.48-1.62,1.55,1.55,0,0,0-1.29-.58,1.77,1.77,0,0,0-1.39.6A2.19,2.19,0,0,0,49.29,145.45Z" fill="#1e1e1e"/>
      <path d="M60.64,148.84h-1v-3.53c0-1.31-.48-2-1.43-2a1.55,1.55,0,0,0-1.23.55,2.07,2.07,0,0,0-.49,1.41v3.53h-1v-6.18h1v1h0a2.24,2.24,0,0,1,2-1.17,1.9,1.9,0,0,1,1.56.66,3,3,0,0,1,.53,1.89Z" fill="#1e1e1e"/>
      <path d="M67.45,146H63.09a2.28,2.28,0,0,0,.55,1.59,1.91,1.91,0,0,0,1.46.56,3.07,3.07,0,0,0,1.93-.69v.93a3.59,3.59,0,0,1-2.16.6,2.6,2.6,0,0,1-2.06-.85,3.44,3.44,0,0,1-.75-2.37,3.37,3.37,0,0,1,.82-2.35,2.65,2.65,0,0,1,2-.91,2.31,2.31,0,0,1,1.88.79,3.28,3.28,0,0,1,.66,2.18Zm-1-.84a2,2,0,0,0-.41-1.34,1.42,1.42,0,0,0-1.14-.47,1.59,1.59,0,0,0-1.19.5,2.32,2.32,0,0,0-.6,1.31Z" fill="#1e1e1e"/>
      <path d="M71.81,148.78a1.88,1.88,0,0,1-.92.19c-1.09,0-1.63-.6-1.63-1.81V143.5H68.2v-.84h1.06v-1.51l1-.32v1.83h1.56v.84H70.25V147a1.47,1.47,0,0,0,.21.89.87.87,0,0,0,.7.26,1.09,1.09,0,0,0,.65-.2Z" fill="#1e1e1e"/>
      <path d="M79.89,148.84h-1v-7.48a2.72,2.72,0,0,1-.33.26,4.7,4.7,0,0,1-.5.29c-.18.1-.38.19-.58.28a5.14,5.14,0,0,1-.59.2v-1a7.21,7.21,0,0,0,.69-.24,7.92,7.92,0,0,0,.72-.35c.23-.12.45-.26.66-.39s.39-.28.55-.41h.37Z" fill="#1e1e1e"/>
    </g>
    <g>
      <path d="M105.1,148.49V147.3a2.59,2.59,0,0,0,.49.32,3.71,3.71,0,0,0,.61.25l.63.15a3.2,3.2,0,0,0,.59,0,2.33,2.33,0,0,0,1.4-.34,1.32,1.32,0,0,0,.31-1.61,1.6,1.6,0,0,0-.43-.48,4.17,4.17,0,0,0-.64-.41l-.8-.41c-.3-.15-.58-.31-.84-.47a3.37,3.37,0,0,1-.69-.52,2.06,2.06,0,0,1-.45-.64,2.17,2.17,0,0,1,.09-1.87,2.23,2.23,0,0,1,.68-.72,3,3,0,0,1,1-.42,4,4,0,0,1,1.1-.14,4.3,4.3,0,0,1,1.86.3v1.15a3.31,3.31,0,0,0-2-.54,3.71,3.71,0,0,0-.67.07,2.07,2.07,0,0,0-.59.23,1.34,1.34,0,0,0-.42.4,1.09,1.09,0,0,0-.17.61,1.14,1.14,0,0,0,.13.57,1.34,1.34,0,0,0,.36.44,3,3,0,0,0,.59.39l.8.41a9.13,9.13,0,0,1,.88.48,3.55,3.55,0,0,1,.73.57,2.34,2.34,0,0,1,.5.68,1.82,1.82,0,0,1,.19.86,2.27,2.27,0,0,1-.25,1.08,2,2,0,0,1-.68.72,2.77,2.77,0,0,1-1,.4,5.52,5.52,0,0,1-1.17.13,3.44,3.44,0,0,1-.51,0l-.62-.09-.59-.16A1.58,1.58,0,0,1,105.1,148.49Z" fill="#1e1e1e"/>
      <path d="M116.79,148.84h-1v-1h0a2,2,0,0,1-1.91,1.13c-1.47,0-2.21-.88-2.21-2.64v-3.69h1v3.54c0,1.3.5,2,1.49,2a1.55,1.55,0,0,0,1.2-.53,2.06,2.06,0,0,0,.46-1.4v-3.56h1Z" fill="#1e1e1e"/>
      <path d="M119.68,148h0v.89h-1v-9.15h1v4.05h0a2.34,2.34,0,0,1,2.14-1.23,2.28,2.28,0,0,1,1.86.83,3.45,3.45,0,0,1,.67,2.23,3.84,3.84,0,0,1-.75,2.48,2.51,2.51,0,0,1-2.07.94A2,2,0,0,1,119.68,148Zm0-2.5v.87a1.85,1.85,0,0,0,.5,1.3,1.68,1.68,0,0,0,1.27.53,1.66,1.66,0,0,0,1.41-.69,3.12,3.12,0,0,0,.51-1.91,2.48,2.48,0,0,0-.48-1.62,1.58,1.58,0,0,0-1.29-.58,1.75,1.75,0,0,0-1.39.6A2.2,2.2,0,0,0,119.65,145.45Z" fill="#1e1e1e"/>
      <path d="M131,148.84h-1v-3.53c0-1.31-.48-2-1.44-2a1.58,1.58,0,0,0-1.23.55,2.11,2.11,0,0,0-.48,1.41v3.53h-1v-6.18h1v1h0a2.23,2.23,0,0,1,2-1.17,1.88,1.88,0,0,1,1.55.66,2.9,2.9,0,0,1,.54,1.89Z" fill="#1e1e1e"/>
      <path d="M137.82,146h-4.37a2.33,2.33,0,0,0,.56,1.59,1.88,1.88,0,0,0,1.46.56,3,3,0,0,0,1.92-.69v.93a3.54,3.54,0,0,1-2.15.6,2.59,2.59,0,0,1-2.06-.85,3.44,3.44,0,0,1-.75-2.37,3.37,3.37,0,0,1,.82-2.35,2.63,2.63,0,0,1,2-.91,2.32,2.32,0,0,1,1.88.79,3.28,3.28,0,0,1,.66,2.18Zm-1-.84a2.08,2.08,0,0,0-.42-1.34,1.4,1.4,0,0,0-1.13-.47,1.58,1.58,0,0,0-1.19.5,2.19,2.19,0,0,0-.6,1.31Z" fill="#1e1e1e"/>
      <path d="M142.18,148.78a2,2,0,0,1-.93.19c-1.08,0-1.62-.6-1.62-1.81V143.5h-1.06v-.84h1.06v-1.51l1-.32v1.83h1.56v.84h-1.56V147a1.47,1.47,0,0,0,.21.89.86.86,0,0,0,.7.26,1.09,1.09,0,0,0,.65-.2Z" fill="#1e1e1e"/>
      <path d="M150.55,142.45a1.63,1.63,0,0,0-.13-.69,1.23,1.23,0,0,0-.34-.49,1.34,1.34,0,0,0-.5-.3,2.08,2.08,0,0,0-.63-.09,2.22,2.22,0,0,0-.57.07,4.08,4.08,0,0,0-.54.22,3.92,3.92,0,0,0-.5.33,3.77,3.77,0,0,0-.46.43v-1.06a3,3,0,0,1,.93-.62,3.39,3.39,0,0,1,1.26-.21,3.12,3.12,0,0,1,1,.15,2.16,2.16,0,0,1,.78.45,2.18,2.18,0,0,1,.53.73,2.58,2.58,0,0,1,.19,1,3.38,3.38,0,0,1-.12.93,2.77,2.77,0,0,1-.36.78,3.9,3.9,0,0,1-.6.71,9.68,9.68,0,0,1-.85.69c-.41.29-.74.54-1,.74a4.49,4.49,0,0,0-.62.58,1.64,1.64,0,0,0-.33.53,2,2,0,0,0-.09.62h4.31v.89h-5.35v-.43a3.65,3.65,0,0,1,.12-1,2.61,2.61,0,0,1,.4-.8,4.67,4.67,0,0,1,.73-.76c.3-.25.67-.54,1.1-.86a6.39,6.39,0,0,0,.79-.64,3.48,3.48,0,0,0,.51-.62,2.43,2.43,0,0,0,.28-.62A3,3,0,0,0,150.55,142.45Z" fill="#1e1e1e"/>
    </g>
    <g>
      <path d="M2.09,7V10.2h-1V1.8H3.41a3,3,0,0,1,2.09.66,2.34,2.34,0,0,1,.74,1.85,2.52,2.52,0,0,1-.82,2A3.15,3.15,0,0,1,3.19,7Zm0-4.34V6.13h1a2.28,2.28,0,0,0,1.55-.46,1.65,1.65,0,0,0,.54-1.32c0-1.11-.66-1.66-2-1.66Z" fill="#1e1e1e"/>
      <path d="M12.54,10.2h-1V9.25h0a2,2,0,0,1-1.85,1.09c-1.43,0-2.15-.85-2.15-2.55V4.2h1V7.63c0,1.27.48,1.9,1.45,1.9A1.46,1.46,0,0,0,11.13,9a2,2,0,0,0,.45-1.35V4.2h1Z" fill="#1e1e1e"/>
      <path d="M15.47,9.33h0v.87h-1V1.32h1V5.26h0a2.26,2.26,0,0,1,2.07-1.2,2.19,2.19,0,0,1,1.81.81A3.28,3.28,0,0,1,20,7a3.72,3.72,0,0,1-.73,2.41,2.44,2.44,0,0,1-2,.9A2,2,0,0,1,15.47,9.33Zm0-2.42v.84A1.77,1.77,0,0,0,15.93,9a1.72,1.72,0,0,0,2.59-.14A3.09,3.09,0,0,0,19,7a2.41,2.41,0,0,0-.46-1.57,1.54,1.54,0,0,0-1.26-.57A1.66,1.66,0,0,0,16,5.45,2.15,2.15,0,0,0,15.45,6.91Z" fill="#1e1e1e"/>
      <path d="M22.5,10.2h-1V1.32h1Z" fill="#1e1e1e"/>
      <path d="M24.94,2.68a.6.6,0,0,1-.44-.18.59.59,0,0,1-.18-.44.61.61,0,0,1,.18-.45.6.6,0,0,1,.44-.18.64.64,0,0,1,.45.18.61.61,0,0,1,.18.45.6.6,0,0,1-.18.44A.64.64,0,0,1,24.94,2.68Zm.47,7.52h-1v-6h1Z" fill="#1e1e1e"/>
      <path d="M31.44,9.93a3.19,3.19,0,0,1-1.64.41,2.73,2.73,0,0,1-2.07-.83,3,3,0,0,1-.79-2.17A3.3,3.3,0,0,1,27.79,5a3,3,0,0,1,2.27-.9,3.2,3.2,0,0,1,1.39.29v1A2.45,2.45,0,0,0,30,4.87a2,2,0,0,0-1.51.66,2.5,2.5,0,0,0-.58,1.73,2.36,2.36,0,0,0,.55,1.66A1.89,1.89,0,0,0,30,9.53,2.39,2.39,0,0,0,31.44,9Z" fill="#1e1e1e"/>
      <path d="M37.29,10.2h-1V1.8h1Z" fill="#1e1e1e"/>
      <path d="M40.49,7V10.2h-1V1.8h2.31a3,3,0,0,1,2.09.66,2.31,2.31,0,0,1,.74,1.85,2.52,2.52,0,0,1-.82,2A3.14,3.14,0,0,1,41.6,7Zm0-4.34V6.13h1a2.32,2.32,0,0,0,1.56-.46,1.67,1.67,0,0,0,.53-1.32c0-1.11-.65-1.66-2-1.66Z" fill="#1e1e1e"/>
    </g>
    <g>
      <path d="M70.15,10.2h-1V1.8h1Z" fill="#1e1e1e"/>
      <path d="M73.34,7V10.2h-1V1.8h2.3a3,3,0,0,1,2.09.66,2.31,2.31,0,0,1,.74,1.85,2.52,2.52,0,0,1-.82,2A3.14,3.14,0,0,1,74.45,7Zm0-4.34V6.13h1a2.32,2.32,0,0,0,1.56-.46,1.67,1.67,0,0,0,.53-1.32c0-1.11-.65-1.66-2-1.66Z" fill="#1e1e1e"/>
      <path d="M83.35,7V10.2h-1V1.8h2.31a3,3,0,0,1,2.09.66,2.34,2.34,0,0,1,.74,1.85,2.52,2.52,0,0,1-.82,2A3.14,3.14,0,0,1,84.46,7Zm0-4.34V6.13h1a2.28,2.28,0,0,0,1.55-.46,1.65,1.65,0,0,0,.54-1.32c0-1.11-.66-1.66-2-1.66Z" fill="#1e1e1e"/>
      <path d="M92.08,5.17A1.14,1.14,0,0,0,91.36,5a1.21,1.21,0,0,0-1,.58,2.64,2.64,0,0,0-.41,1.58V10.2H89v-6h1V5.44h0a2.17,2.17,0,0,1,.63-1,1.39,1.39,0,0,1,.94-.35,1.44,1.44,0,0,1,.57.08Z" fill="#1e1e1e"/>
      <path d="M98,7.44H93.71A2.28,2.28,0,0,0,94.25,9a1.88,1.88,0,0,0,1.42.54,2.94,2.94,0,0,0,1.86-.66v.9a3.47,3.47,0,0,1-2.09.57,2.53,2.53,0,0,1-2-.82,3.35,3.35,0,0,1-.72-2.3,3.28,3.28,0,0,1,.79-2.28,2.54,2.54,0,0,1,2-.88,2.22,2.22,0,0,1,1.82.76A3.2,3.2,0,0,1,98,6.94Zm-1-.81a1.91,1.91,0,0,0-.4-1.3,1.36,1.36,0,0,0-1.1-.46,1.54,1.54,0,0,0-1.15.49,2.19,2.19,0,0,0-.59,1.27Z" fill="#1e1e1e"/>
      <path d="M102.37,2.16a1.35,1.35,0,0,0-.64-.16c-.67,0-1,.43-1,1.28V4.2h1.41V5h-1.41V10.2h-1V5h-1V4.2h1v-1a2,2,0,0,1,.54-1.49,1.82,1.82,0,0,1,1.36-.55,1.92,1.92,0,0,1,.7.1Z" fill="#1e1e1e"/>
      <path d="M103.65,2.68a.6.6,0,0,1-.44-.18.59.59,0,0,1-.18-.44.61.61,0,0,1,.18-.45.6.6,0,0,1,.44-.18.62.62,0,0,1,.63.63.6.6,0,0,1-.18.44A.61.61,0,0,1,103.65,2.68Zm.47,7.52h-1v-6h1Z" fill="#1e1e1e"/>
      <path d="M110.45,4.2l-2,3,2,3h-1.12l-1.17-1.94-.27-.46h0l-.28.46-1.2,1.94h-1.11l2.05-2.94-2-3.06h1.12l1.16,2.05c.09.15.17.31.25.47h0l1.5-2.52Z" fill="#1e1e1e"/>
    </g>
    <g>
      <path d="M31.28,188.9l-3.2,8.66H27l-3.14-8.66H25l2.4,6.87a4.66,4.66,0,0,1,.17.77h0a3,3,0,0,1,.2-.78l2.44-6.86Z" fill="#1e1e1e"/>
      <path d="M33,189.81a.61.61,0,0,1-.45-.18.6.6,0,0,1-.19-.46.59.59,0,0,1,.19-.46.58.58,0,0,1,.45-.19.62.62,0,0,1,.46.19.59.59,0,0,1,.19.46.6.6,0,0,1-.19.45A.62.62,0,0,1,33,189.81Zm.48,7.75h-1v-6.18h1Z" fill="#1e1e1e"/>
      <path d="M38.57,192.38a1.32,1.32,0,0,0-1.81.4,2.72,2.72,0,0,0-.43,1.63v3.15h-1v-6.18h1v1.27h0a2.21,2.21,0,0,1,.64-1,1.5,1.5,0,0,1,1-.36,1.84,1.84,0,0,1,.6.08Z" fill="#1e1e1e"/>
      <path d="M42.92,197.5a1.92,1.92,0,0,1-.93.19c-1.08,0-1.62-.6-1.62-1.81v-3.66H39.31v-.84h1.06v-1.51l1-.32v1.83h1.56v.84H41.36v3.49a1.47,1.47,0,0,0,.21.89.86.86,0,0,0,.7.26,1.09,1.09,0,0,0,.65-.2Z" fill="#1e1e1e"/>
      <path d="M49.21,197.56h-1v-1h0a2,2,0,0,1-1.91,1.13c-1.47,0-2.21-.88-2.21-2.64v-3.69h1v3.54q0,2,1.5,2a1.5,1.5,0,0,0,1.19-.53,2,2,0,0,0,.47-1.4v-3.56h1Z" fill="#1e1e1e"/>
      <path d="M55.54,197.56h-1v-1h0a2.26,2.26,0,0,1-3.35.62,1.7,1.7,0,0,1-.52-1.3c0-1.16.68-1.83,2-2l1.85-.26c0-1-.42-1.57-1.27-1.57a3,3,0,0,0-2,.76v-1a3.9,3.9,0,0,1,2.1-.58c1.45,0,2.18.77,2.18,2.31Zm-1-3.13-1.49.21a2.39,2.39,0,0,0-1,.34,1,1,0,0,0-.35.87,1,1,0,0,0,.32.74,1.27,1.27,0,0,0,.86.28,1.59,1.59,0,0,0,1.22-.51,1.86,1.86,0,0,0,.48-1.31Z" fill="#1e1e1e"/>
      <path d="M58.32,197.56h-1v-9.15h1Z" fill="#1e1e1e"/>
      <path d="M70.83,197.56H69.59l-4.46-6.9a2.77,2.77,0,0,1-.28-.54h0a9.14,9.14,0,0,1,.05,1.19v6.25h-1V188.9h1.32l4.33,6.8a6.16,6.16,0,0,1,.35.58h0a9.32,9.32,0,0,1-.06-1.28v-6.1h1Z" fill="#1e1e1e"/>
      <path d="M77.89,194.72H73.52a2.28,2.28,0,0,0,.56,1.59,1.88,1.88,0,0,0,1.46.56,3.11,3.11,0,0,0,1.92-.68v.93a3.63,3.63,0,0,1-2.16.59,2.6,2.6,0,0,1-2.06-.85,3.94,3.94,0,0,1,.07-4.72,2.66,2.66,0,0,1,2-.91,2.31,2.31,0,0,1,1.88.79,3.23,3.23,0,0,1,.67,2.18Zm-1-.84a2,2,0,0,0-.41-1.34,1.43,1.43,0,0,0-1.13-.47,1.56,1.56,0,0,0-1.19.5,2.26,2.26,0,0,0-.61,1.31Z" fill="#1e1e1e"/>
      <path d="M82.24,197.5a1.88,1.88,0,0,1-.92.19c-1.08,0-1.63-.6-1.63-1.81v-3.66H78.63v-.84h1.06v-1.51l1-.32v1.83h1.55v.84H80.69v3.49a1.47,1.47,0,0,0,.21.89.86.86,0,0,0,.7.26,1.06,1.06,0,0,0,.64-.2Z" fill="#1e1e1e"/>
      <path d="M91.69,191.38l-1.85,6.18h-1l-1.27-4.42a3.18,3.18,0,0,1-.1-.58h0a2.7,2.7,0,0,1-.13.56l-1.38,4.44h-1l-1.87-6.18h1L85.37,196a3.11,3.11,0,0,1,.08.55h0a2.51,2.51,0,0,1,.11-.56L87,191.38h.91L89.22,196a3.28,3.28,0,0,1,.09.56h0a2.66,2.66,0,0,1,.1-.56l1.26-4.66Z" fill="#1e1e1e"/>
      <path d="M95.3,197.71a2.88,2.88,0,0,1-2.19-.87,3.23,3.23,0,0,1-.82-2.3,3.32,3.32,0,0,1,.86-2.43,3,3,0,0,1,2.3-.88,2.81,2.81,0,0,1,2.16.85,3.43,3.43,0,0,1,.77,2.37,3.37,3.37,0,0,1-.83,2.37A3,3,0,0,1,95.3,197.71Zm.08-5.64a1.86,1.86,0,0,0-1.51.65,2.61,2.61,0,0,0-.56,1.79,2.53,2.53,0,0,0,.56,1.73,1.93,1.93,0,0,0,1.51.63,1.79,1.79,0,0,0,1.47-.62,2.65,2.65,0,0,0,.52-1.77,2.73,2.73,0,0,0-.52-1.79A1.82,1.82,0,0,0,95.38,192.07Z" fill="#1e1e1e"/>
      <path d="M103.13,192.38a1.22,1.22,0,0,0-.75-.2,1.26,1.26,0,0,0-1.06.6,2.79,2.79,0,0,0-.42,1.63v3.15h-1v-6.18h1v1.27h0a2.22,2.22,0,0,1,.65-1,1.48,1.48,0,0,1,1-.36,1.78,1.78,0,0,1,.59.08Z" fill="#1e1e1e"/>
      <path d="M109.37,197.56H108l-2.73-3h0v3h-1v-9.15h1v5.8h0l2.6-2.83h1.29l-2.86,3Z" fill="#1e1e1e"/>
    </g>
  </g>
</svg>
