<svg xmlns="http://www.w3.org/2000/svg" xmlns:xlink="http://www.w3.org/1999/xlink" viewBox="0 0 578 216.17">
  <defs>
    <linearGradient id="linear-gradient" x1="36.13" y1="498.43" x2="36.13" y2="537.84" gradientTransform="matrix(1, 0, 0, -1, 0, 546.33)" gradientUnits="userSpaceOnUse">
      <stop offset="0" stop-color="#5e9624"/>
      <stop offset="0.02" stop-color="#5f9724"/>
      <stop offset="1" stop-color="#76bc2d"/>
    </linearGradient>
    <linearGradient id="linear-gradient-2" x1="85.83" y1="384.22" x2="85.83" y2="395.76" gradientTransform="matrix(1, 0, 0, -1, 0, 546.33)" gradientUnits="userSpaceOnUse">
      <stop offset="0" stop-color="#0078d4"/>
      <stop offset="0.82" stop-color="#5ea0ef"/>
    </linearGradient>
    <linearGradient id="linear-gradient-3" x1="85.83" y1="379.76" x2="85.83" y2="384.22" gradientTransform="matrix(1, 0, 0, -1, 0, 546.33)" gradientUnits="userSpaceOnUse">
      <stop offset="0.15" stop-color="#ccc"/>
      <stop offset="1" stop-color="#707070"/>
    </linearGradient>
    <linearGradient id="linear-gradient-4" x1="142.21" y1="384.22" x2="142.21" y2="395.76" xlink:href="#linear-gradient-2"/>
    <linearGradient id="linear-gradient-5" x1="142.21" y1="379.76" x2="142.21" y2="384.22" xlink:href="#linear-gradient-3"/>
    <linearGradient id="linear-gradient-6" x1="197.37" y1="384.22" x2="197.37" y2="395.76" xlink:href="#linear-gradient-2"/>
    <linearGradient id="linear-gradient-7" x1="197.37" y1="379.76" x2="197.37" y2="384.22" xlink:href="#linear-gradient-3"/>
    <linearGradient id="linear-gradient-8" x1="252.4" y1="384.22" x2="252.4" y2="395.76" xlink:href="#linear-gradient-2"/>
    <linearGradient id="linear-gradient-9" x1="252.4" y1="379.76" x2="252.4" y2="384.22" xlink:href="#linear-gradient-3"/>
    <linearGradient id="linear-gradient-10" x1="81.17" y1="96.17" x2="81.17" y2="86.17" gradientUnits="userSpaceOnUse">
      <stop offset="0" stop-color="#0078d4"/>
      <stop offset="0.16" stop-color="#1380da"/>
      <stop offset="0.53" stop-color="#3c91e5"/>
      <stop offset="0.82" stop-color="#559cec"/>
      <stop offset="1" stop-color="#5ea0ef"/>
    </linearGradient>
    <linearGradient id="linear-gradient-11" x1="96.17" y1="96.17" x2="96.17" y2="86.17" xlink:href="#linear-gradient-10"/>
    <linearGradient id="linear-gradient-12" x1="111.17" y1="96.17" x2="111.17" y2="86.17" xlink:href="#linear-gradient-10"/>
    <linearGradient id="linear-gradient-13" x1="81.17" y1="111.17" x2="81.17" y2="101.17" xlink:href="#linear-gradient-10"/>
    <linearGradient id="linear-gradient-14" x1="17.66" y1="208.67" x2="17.66" y2="198.67" xlink:href="#linear-gradient-10"/>
    <linearGradient id="linear-gradient-15" x1="96.17" y1="111.17" x2="96.17" y2="101.17" xlink:href="#linear-gradient-10"/>
    <linearGradient id="linear-gradient-16" x1="111.17" y1="111.17" x2="111.17" y2="101.17" xlink:href="#linear-gradient-10"/>
    <linearGradient id="linear-gradient-17" x1="81.17" y1="81.17" x2="81.17" y2="71.17" xlink:href="#linear-gradient-10"/>
    <linearGradient id="linear-gradient-18" x1="96.17" y1="81.17" x2="96.17" y2="71.17" xlink:href="#linear-gradient-10"/>
    <linearGradient id="linear-gradient-19" x1="111.17" y1="81.17" x2="111.17" y2="71.17" xlink:href="#linear-gradient-10"/>
    <linearGradient id="linear-gradient-20" x1="136.17" y1="96.17" x2="136.17" y2="86.17" xlink:href="#linear-gradient-10"/>
    <linearGradient id="linear-gradient-21" x1="151.17" y1="96.17" x2="151.17" y2="86.17" xlink:href="#linear-gradient-10"/>
    <linearGradient id="linear-gradient-22" x1="166.17" y1="96.17" x2="166.17" y2="86.17" xlink:href="#linear-gradient-10"/>
    <linearGradient id="linear-gradient-23" x1="136.17" y1="111.17" x2="136.17" y2="101.17" xlink:href="#linear-gradient-10"/>
    <linearGradient id="linear-gradient-24" x1="151.17" y1="111.17" x2="151.17" y2="101.17" xlink:href="#linear-gradient-10"/>
    <linearGradient id="linear-gradient-25" x1="166.17" y1="111.17" x2="166.17" y2="101.17" xlink:href="#linear-gradient-10"/>
    <linearGradient id="linear-gradient-26" x1="136.17" y1="81.17" x2="136.17" y2="71.17" xlink:href="#linear-gradient-10"/>
    <linearGradient id="linear-gradient-27" x1="17.66" y1="193.67" x2="17.66" y2="183.67" xlink:href="#linear-gradient-10"/>
    <linearGradient id="linear-gradient-28" x1="151.17" y1="81.17" x2="151.17" y2="71.17" xlink:href="#linear-gradient-10"/>
    <linearGradient id="linear-gradient-29" x1="166.17" y1="81.17" x2="166.17" y2="71.17" xlink:href="#linear-gradient-10"/>
    <linearGradient id="linear-gradient-30" x1="191.17" y1="96.17" x2="191.17" y2="86.17" xlink:href="#linear-gradient-10"/>
    <linearGradient id="linear-gradient-31" x1="206.17" y1="96.17" x2="206.17" y2="86.17" xlink:href="#linear-gradient-10"/>
    <linearGradient id="linear-gradient-32" x1="221.17" y1="96.17" x2="221.17" y2="86.17" xlink:href="#linear-gradient-10"/>
    <linearGradient id="linear-gradient-33" x1="191.17" y1="111.17" x2="191.17" y2="101.17" xlink:href="#linear-gradient-10"/>
    <linearGradient id="linear-gradient-34" x1="206.17" y1="111.17" x2="206.17" y2="101.17" xlink:href="#linear-gradient-10"/>
    <linearGradient id="linear-gradient-35" x1="221.17" y1="111.17" x2="221.17" y2="101.17" xlink:href="#linear-gradient-10"/>
    <linearGradient id="linear-gradient-36" x1="191.17" y1="81.17" x2="191.17" y2="71.17" xlink:href="#linear-gradient-10"/>
    <linearGradient id="linear-gradient-37" x1="206.17" y1="81.17" x2="206.17" y2="71.17" xlink:href="#linear-gradient-10"/>
    <linearGradient id="linear-gradient-38" x1="221.17" y1="81.17" x2="221.17" y2="71.17" xlink:href="#linear-gradient-10"/>
    <linearGradient id="linear-gradient-39" x1="246.17" y1="96.17" x2="246.17" y2="86.17" xlink:href="#linear-gradient-10"/>
    <linearGradient id="linear-gradient-40" x1="261.17" y1="96.17" x2="261.17" y2="86.17" xlink:href="#linear-gradient-10"/>
    <linearGradient id="linear-gradient-41" x1="276.17" y1="96.17" x2="276.17" y2="86.17" xlink:href="#linear-gradient-10"/>
    <linearGradient id="linear-gradient-42" x1="246.17" y1="111.17" x2="246.17" y2="101.17" xlink:href="#linear-gradient-10"/>
    <linearGradient id="linear-gradient-43" x1="261.17" y1="111.17" x2="261.17" y2="101.17" xlink:href="#linear-gradient-10"/>
    <linearGradient id="linear-gradient-44" x1="276.17" y1="111.17" x2="276.17" y2="101.17" xlink:href="#linear-gradient-10"/>
    <linearGradient id="linear-gradient-45" x1="246.17" y1="81.17" x2="246.17" y2="71.17" xlink:href="#linear-gradient-10"/>
    <linearGradient id="linear-gradient-46" x1="261.17" y1="81.17" x2="261.17" y2="71.17" xlink:href="#linear-gradient-10"/>
    <linearGradient id="linear-gradient-47" x1="276.17" y1="81.17" x2="276.17" y2="71.17" xlink:href="#linear-gradient-10"/>
    <linearGradient id="linear-gradient-48" x1="308.33" y1="384.22" x2="308.33" y2="395.76" xlink:href="#linear-gradient-2"/>
    <linearGradient id="linear-gradient-49" x1="308.33" y1="379.76" x2="308.33" y2="384.22" xlink:href="#linear-gradient-3"/>
    <linearGradient id="linear-gradient-50" x1="364.71" y1="384.22" x2="364.71" y2="395.76" xlink:href="#linear-gradient-2"/>
    <linearGradient id="linear-gradient-51" x1="364.71" y1="379.76" x2="364.71" y2="384.22" xlink:href="#linear-gradient-3"/>
    <linearGradient id="linear-gradient-52" x1="419.87" y1="384.22" x2="419.87" y2="395.76" xlink:href="#linear-gradient-2"/>
    <linearGradient id="linear-gradient-53" x1="419.87" y1="379.76" x2="419.87" y2="384.22" xlink:href="#linear-gradient-3"/>
    <linearGradient id="linear-gradient-54" x1="474.9" y1="384.22" x2="474.9" y2="395.76" xlink:href="#linear-gradient-2"/>
    <linearGradient id="linear-gradient-55" x1="474.9" y1="379.76" x2="474.9" y2="384.22" xlink:href="#linear-gradient-3"/>
    <linearGradient id="linear-gradient-56" x1="303.67" y1="96.17" x2="303.67" y2="86.17" xlink:href="#linear-gradient-10"/>
    <linearGradient id="linear-gradient-57" x1="318.67" y1="96.17" x2="318.67" y2="86.17" xlink:href="#linear-gradient-10"/>
    <linearGradient id="linear-gradient-58" x1="333.67" y1="96.17" x2="333.67" y2="86.17" xlink:href="#linear-gradient-10"/>
    <linearGradient id="linear-gradient-59" x1="303.67" y1="111.17" x2="303.67" y2="101.17" xlink:href="#linear-gradient-10"/>
    <linearGradient id="linear-gradient-60" x1="318.67" y1="111.17" x2="318.67" y2="101.17" xlink:href="#linear-gradient-10"/>
    <linearGradient id="linear-gradient-61" x1="333.67" y1="111.17" x2="333.67" y2="101.17" xlink:href="#linear-gradient-10"/>
    <linearGradient id="linear-gradient-62" x1="303.67" y1="81.17" x2="303.67" y2="71.17" xlink:href="#linear-gradient-10"/>
    <linearGradient id="linear-gradient-63" x1="318.67" y1="81.17" x2="318.67" y2="71.17" xlink:href="#linear-gradient-10"/>
    <linearGradient id="linear-gradient-64" x1="333.67" y1="81.17" x2="333.67" y2="71.17" xlink:href="#linear-gradient-10"/>
    <linearGradient id="linear-gradient-65" x1="358.67" y1="111.17" x2="358.67" y2="101.17" xlink:href="#linear-gradient-10"/>
    <linearGradient id="linear-gradient-66" x1="373.67" y1="111.17" x2="373.67" y2="101.17" xlink:href="#linear-gradient-10"/>
    <linearGradient id="linear-gradient-67" x1="388.67" y1="111.17" x2="388.67" y2="101.17" xlink:href="#linear-gradient-10"/>
    <linearGradient id="linear-gradient-68" x1="413.67" y1="96.17" x2="413.67" y2="86.17" xlink:href="#linear-gradient-10"/>
    <linearGradient id="linear-gradient-69" x1="428.67" y1="96.17" x2="428.67" y2="86.17" xlink:href="#linear-gradient-10"/>
    <linearGradient id="linear-gradient-70" x1="443.67" y1="96.17" x2="443.67" y2="86.17" xlink:href="#linear-gradient-10"/>
    <linearGradient id="linear-gradient-71" x1="413.67" y1="111.17" x2="413.67" y2="101.17" xlink:href="#linear-gradient-10"/>
    <linearGradient id="linear-gradient-72" x1="428.67" y1="111.17" x2="428.67" y2="101.17" xlink:href="#linear-gradient-10"/>
    <linearGradient id="linear-gradient-73" x1="443.67" y1="111.17" x2="443.67" y2="101.17" xlink:href="#linear-gradient-10"/>
    <linearGradient id="linear-gradient-74" x1="413.67" y1="81.17" x2="413.67" y2="71.17" xlink:href="#linear-gradient-10"/>
    <linearGradient id="linear-gradient-75" x1="468.67" y1="96.17" x2="468.67" y2="86.17" xlink:href="#linear-gradient-10"/>
    <linearGradient id="linear-gradient-76" x1="483.67" y1="96.17" x2="483.67" y2="86.17" xlink:href="#linear-gradient-10"/>
    <linearGradient id="linear-gradient-77" x1="498.67" y1="96.17" x2="498.67" y2="86.17" xlink:href="#linear-gradient-10"/>
    <linearGradient id="linear-gradient-78" x1="468.67" y1="111.17" x2="468.67" y2="101.17" xlink:href="#linear-gradient-10"/>
    <linearGradient id="linear-gradient-79" x1="483.67" y1="111.17" x2="483.67" y2="101.17" xlink:href="#linear-gradient-10"/>
    <linearGradient id="linear-gradient-80" x1="498.67" y1="111.17" x2="498.67" y2="101.17" xlink:href="#linear-gradient-10"/>
  </defs>
  <title>lb-vnNat-chart</title>
  <g id="Shapes">
    <rect width="578" height="216.17" fill="#fff"/>
    <rect x="291.17" y="1.17" width="285.67" height="175" fill="#fff" stroke="#e6e6e6" stroke-width="0.75"/>
    <rect x="1.17" y="1.17" width="285" height="175" fill="#fff" stroke="#e6e6e6" stroke-width="0.75"/>
    <g>
      <rect x="291.83" y="1.17" width="285" height="55" fill="#fff"/>
      <rect x="291.83" y="1.17" width="285" height="55" fill="#3c3c41" opacity="0.08"/>
    </g>
    <g>
      <rect x="1.17" y="1.17" width="285" height="55" fill="#fff"/>
      <rect x="1.17" y="1.17" width="285" height="55" fill="#3c3c41" opacity="0.08"/>
    </g>
    <g>
      <path d="M19.47,26.6,35.31,10.76a1.14,1.14,0,0,1,1.61,0l0,0L52.78,26.6a1.15,1.15,0,0,1,0,1.61l0,0L36.92,44.09a1.14,1.14,0,0,1-1.59,0L19.47,28.23a1.13,1.13,0,0,1,0-1.6Z" fill="url(#linear-gradient)"/>
      <path d="M40.28,18l-4-4A.23.23,0,0,0,36,14l-4,4a.19.19,0,0,0,.15.34h2.34a.21.21,0,0,1,.21.21V22.3a.21.21,0,0,0,.21.21h2.49a.21.21,0,0,0,.21-.21V18.52a.21.21,0,0,1,.21-.21h2.34a.19.19,0,0,0,.23-.13A.2.2,0,0,0,40.28,18Z" fill="#b4ec36"/>
      <path d="M26.68,22.9l-4,4a.19.19,0,0,0,0,.28l4,4a.21.21,0,0,0,.3,0A.23.23,0,0,0,27,31V28.72a.22.22,0,0,1,.21-.21H31a.19.19,0,0,0,.19-.19V25.81a.2.2,0,0,0-.07-.26l-.07,0H27.31a.19.19,0,0,1-.21-.17V23.05a.22.22,0,0,0-.13-.28A.23.23,0,0,0,26.68,22.9Z" fill="#b4ec36"/>
      <path d="M45.72,31.19l4-4a.19.19,0,0,0,0-.28l-4-4a.21.21,0,0,0-.34.15v2.36a.18.18,0,0,1-.19.19H41.4a.19.19,0,0,0-.19.19V28.3a.19.19,0,0,0,.17.21h3.79a.21.21,0,0,1,.21.21v2.34a.2.2,0,0,0,.23.18A.16.16,0,0,0,45.72,31.19Z" fill="#b4ec36"/>
      <path d="M41.4,27.42a5.27,5.27,0,1,0-6.69,5v1.79a3.23,3.23,0,1,0,4.35,1.39,3.27,3.27,0,0,0-1.39-1.39V32.36A5.24,5.24,0,0,0,41.4,27.42Z" fill="#fff"/>
      <circle id="e99c3387-15c3-4f28-bd4b-cb209b430e06" cx="36.14" cy="27.4" r="3.06" fill="#5ea0ef"/>
    </g>
    <g>
      <rect x="77.17" y="150.57" width="17.32" height="11.55" rx="0.58" fill="url(#linear-gradient-2)"/>
      <polygon points="88.71 154.66 88.71 158.02 85.83 159.71 85.83 156.34 88.71 154.66" fill="#50e6ff"/>
      <polygon points="88.71 154.66 85.83 156.35 82.94 154.66 85.83 152.98 88.71 154.66" fill="#c3f1ff"/>
      <polygon points="85.83 156.35 85.83 159.71 82.94 158.02 82.94 154.66 85.83 156.35" fill="#9cebff"/>
      <polygon points="82.94 158.02 85.83 156.34 85.83 159.71 82.94 158.02" fill="#c3f1ff"/>
      <polygon points="88.71 158.02 85.83 156.34 85.83 159.71 88.71 158.02" fill="#9cebff"/>
      <path d="M89.3,165.61c-1.71-.27-1.78-1.5-1.78-3.49h-3.4c0,2-.05,3.22-1.77,3.49a1,1,0,0,0-.85,1h8.66A1,1,0,0,0,89.3,165.61Z" fill="url(#linear-gradient-3)"/>
    </g>
    <g>
      <rect x="133.55" y="150.57" width="17.32" height="11.55" rx="0.58" fill="url(#linear-gradient-4)"/>
      <polygon points="145.09 154.66 145.09 158.02 142.21 159.71 142.21 156.34 145.09 154.66" fill="#50e6ff"/>
      <polygon points="145.09 154.66 142.21 156.35 139.32 154.66 142.21 152.98 145.09 154.66" fill="#c3f1ff"/>
      <polygon points="142.21 156.35 142.21 159.71 139.32 158.02 139.32 154.66 142.21 156.35" fill="#9cebff"/>
      <polygon points="139.32 158.02 142.21 156.34 142.21 159.71 139.32 158.02" fill="#c3f1ff"/>
      <polygon points="145.09 158.02 142.21 156.34 142.21 159.71 145.09 158.02" fill="#9cebff"/>
      <path d="M145.68,165.61c-1.71-.27-1.78-1.5-1.78-3.49h-3.39c0,2-.06,3.22-1.77,3.49a1,1,0,0,0-.86,1h8.66A1,1,0,0,0,145.68,165.61Z" fill="url(#linear-gradient-5)"/>
    </g>
    <g>
      <rect x="188.72" y="150.57" width="17.32" height="11.55" rx="0.58" fill="url(#linear-gradient-6)"/>
      <polygon points="200.26 154.66 200.26 158.02 197.38 159.71 197.38 156.34 200.26 154.66" fill="#50e6ff"/>
      <polygon points="200.26 154.66 197.38 156.35 194.49 154.66 197.38 152.98 200.26 154.66" fill="#c3f1ff"/>
      <polygon points="197.38 156.35 197.38 159.71 194.49 158.02 194.49 154.66 197.38 156.35" fill="#9cebff"/>
      <polygon points="194.49 158.02 197.38 156.34 197.38 159.71 194.49 158.02" fill="#c3f1ff"/>
      <polygon points="200.26 158.02 197.38 156.34 197.38 159.71 200.26 158.02" fill="#9cebff"/>
      <path d="M200.85,165.61c-1.71-.27-1.78-1.5-1.78-3.49h-3.4c0,2-.06,3.22-1.77,3.49a1,1,0,0,0-.85,1h8.65A1,1,0,0,0,200.85,165.61Z" fill="url(#linear-gradient-7)"/>
    </g>
    <g>
      <rect x="243.74" y="150.57" width="17.32" height="11.55" rx="0.58" fill="url(#linear-gradient-8)"/>
      <polygon points="255.28 154.66 255.28 158.02 252.4 159.71 252.4 156.34 255.28 154.66" fill="#50e6ff"/>
      <polygon points="255.28 154.66 252.4 156.35 249.51 154.66 252.4 152.98 255.28 154.66" fill="#c3f1ff"/>
      <polygon points="252.4 156.35 252.4 159.71 249.51 158.02 249.51 154.66 252.4 156.35" fill="#9cebff"/>
      <polygon points="249.51 158.02 252.4 156.34 252.4 159.71 249.51 158.02" fill="#c3f1ff"/>
      <polygon points="255.28 158.02 252.4 156.34 252.4 159.71 255.28 158.02" fill="#9cebff"/>
      <path d="M255.87,165.61c-1.71-.27-1.78-1.5-1.78-3.49h-3.4c0,2-.05,3.22-1.77,3.49a1,1,0,0,0-.85,1h8.66A1,1,0,0,0,255.87,165.61Z" fill="url(#linear-gradient-9)"/>
    </g>
    <line x1="1.17" y1="121.17" x2="286.17" y2="121.17" fill="none" stroke="#e6e6e6" stroke-width="0.75"/>
    <circle cx="81.17" cy="91.17" r="5" fill="url(#linear-gradient-10)"/>
    <circle cx="96.17" cy="91.17" r="5" fill="url(#linear-gradient-11)"/>
    <circle cx="111.17" cy="91.17" r="5" fill="url(#linear-gradient-12)"/>
    <circle cx="81.17" cy="106.17" r="5" fill="url(#linear-gradient-13)"/>
    <circle cx="17.66" cy="203.67" r="5" fill="url(#linear-gradient-14)"/>
    <circle cx="96.17" cy="106.17" r="5" fill="url(#linear-gradient-15)"/>
    <circle cx="111.17" cy="106.17" r="5" fill="url(#linear-gradient-16)"/>
    <circle cx="81.17" cy="76.17" r="5" fill="url(#linear-gradient-17)"/>
    <circle cx="96.17" cy="76.17" r="5" fill="url(#linear-gradient-18)"/>
    <circle cx="111.17" cy="76.17" r="5" fill="url(#linear-gradient-19)"/>
    <circle cx="136.17" cy="91.17" r="5" opacity="0.5" fill="url(#linear-gradient-20)"/>
    <circle cx="151.17" cy="91.17" r="5" opacity="0.5" fill="url(#linear-gradient-21)"/>
    <circle cx="166.17" cy="91.17" r="5" opacity="0.5" fill="url(#linear-gradient-22)"/>
    <circle cx="136.17" cy="106.17" r="5" fill="url(#linear-gradient-23)"/>
    <circle cx="151.17" cy="106.17" r="5" fill="url(#linear-gradient-24)"/>
    <circle cx="166.17" cy="106.17" r="5" fill="url(#linear-gradient-25)"/>
    <circle cx="136.17" cy="76.17" r="5" opacity="0.5" fill="url(#linear-gradient-26)"/>
    <circle cx="17.66" cy="188.67" r="5" opacity="0.5" fill="url(#linear-gradient-27)"/>
    <circle cx="151.17" cy="76.17" r="5" opacity="0.5" fill="url(#linear-gradient-28)"/>
    <circle cx="166.17" cy="76.17" r="5" opacity="0.5" fill="url(#linear-gradient-29)"/>
    <circle cx="191.17" cy="91.17" r="5" fill="url(#linear-gradient-30)"/>
    <circle cx="206.17" cy="91.17" r="5" fill="url(#linear-gradient-31)"/>
    <circle cx="221.17" cy="91.17" r="5" fill="url(#linear-gradient-32)"/>
    <circle cx="191.17" cy="106.17" r="5" fill="url(#linear-gradient-33)"/>
    <circle cx="206.17" cy="106.17" r="5" fill="url(#linear-gradient-34)"/>
    <circle cx="221.17" cy="106.17" r="5" fill="url(#linear-gradient-35)"/>
    <circle cx="191.17" cy="76.17" r="5" fill="url(#linear-gradient-36)"/>
    <circle cx="206.17" cy="76.17" r="5" opacity="0.5" fill="url(#linear-gradient-37)"/>
    <circle cx="221.17" cy="76.17" r="5" opacity="0.5" fill="url(#linear-gradient-38)"/>
    <circle cx="246.17" cy="91.17" r="5" fill="url(#linear-gradient-39)"/>
    <circle cx="261.17" cy="91.17" r="5" fill="url(#linear-gradient-40)"/>
    <circle cx="276.17" cy="91.17" r="5" fill="url(#linear-gradient-41)"/>
    <circle cx="246.17" cy="106.17" r="5" fill="url(#linear-gradient-42)"/>
    <circle cx="261.17" cy="106.17" r="5" fill="url(#linear-gradient-43)"/>
    <circle cx="276.17" cy="106.17" r="5" fill="url(#linear-gradient-44)"/>
    <circle cx="246.17" cy="76.17" r="5" opacity="0.5" fill="url(#linear-gradient-45)"/>
    <circle cx="261.17" cy="76.17" r="5" opacity="0.5" fill="url(#linear-gradient-46)"/>
    <circle cx="276.17" cy="76.17" r="5" opacity="0.5" fill="url(#linear-gradient-47)"/>
    <rect x="76.53" y="131.17" width="40" height="10" fill="#e62323"/>
    <g>
      <rect x="131.72" y="131.17" width="40" height="10" fill="#e6e6e6"/>
      <rect x="131.72" y="131.17" width="10" height="10" fill="#107c10"/>
    </g>
    <g>
      <rect x="186.72" y="131.17" width="40" height="10" fill="#e6e6e6"/>
      <rect x="186.72" y="131.17" width="25" height="10" fill="#faa21d"/>
    </g>
    <g>
      <rect x="241.72" y="131.17" width="40" height="10" fill="#e6e6e6"/>
      <rect x="241.72" y="131.17" width="25" height="10" fill="#107c10"/>
    </g>
    <line x1="71.17" y1="56.17" x2="71.17" y2="176.17" fill="none" stroke="#e6e6e6" stroke-width="0.75"/>
    <line x1="125.04" y1="56.17" x2="125.04" y2="176.17" fill="none" stroke="#e6e6e6" stroke-width="0.75"/>
    <line x1="178.92" y1="56.17" x2="178.92" y2="176.17" fill="none" stroke="#e6e6e6" stroke-width="0.75"/>
    <line x1="232.79" y1="56.17" x2="232.79" y2="176.17" fill="none" stroke="#e6e6e6" stroke-width="0.75"/>
    <g>
      <rect x="299.67" y="150.57" width="17.32" height="11.55" rx="0.58" fill="url(#linear-gradient-48)"/>
      <polygon points="311.21 154.66 311.21 158.02 308.33 159.71 308.33 156.34 311.21 154.66" fill="#50e6ff"/>
      <polygon points="311.21 154.66 308.33 156.35 305.44 154.66 308.33 152.98 311.21 154.66" fill="#c3f1ff"/>
      <polygon points="308.33 156.35 308.33 159.71 305.44 158.02 305.44 154.66 308.33 156.35" fill="#9cebff"/>
      <polygon points="305.44 158.02 308.33 156.34 308.33 159.71 305.44 158.02" fill="#c3f1ff"/>
      <polygon points="311.21 158.02 308.33 156.34 308.33 159.71 311.21 158.02" fill="#9cebff"/>
      <path d="M311.8,165.61c-1.71-.27-1.78-1.5-1.78-3.49h-3.4c0,2-.05,3.22-1.77,3.49a1,1,0,0,0-.85,1h8.66A1,1,0,0,0,311.8,165.61Z" fill="url(#linear-gradient-49)"/>
    </g>
    <g>
      <rect x="356.05" y="150.57" width="17.32" height="11.55" rx="0.58" fill="url(#linear-gradient-50)"/>
      <polygon points="367.6 154.66 367.6 158.02 364.71 159.71 364.71 156.34 367.6 154.66" fill="#50e6ff"/>
      <polygon points="367.6 154.66 364.71 156.35 361.82 154.66 364.71 152.98 367.6 154.66" fill="#c3f1ff"/>
      <polygon points="364.71 156.35 364.71 159.71 361.82 158.02 361.82 154.66 364.71 156.35" fill="#9cebff"/>
      <polygon points="361.82 158.02 364.71 156.34 364.71 159.71 361.82 158.02" fill="#c3f1ff"/>
      <polygon points="367.6 158.02 364.71 156.34 364.71 159.71 367.6 158.02" fill="#9cebff"/>
      <path d="M368.18,165.61c-1.71-.27-1.78-1.5-1.78-3.49H363c0,2-.06,3.22-1.77,3.49a1,1,0,0,0-.86,1H369A1,1,0,0,0,368.18,165.61Z" fill="url(#linear-gradient-51)"/>
    </g>
    <g>
      <rect x="411.22" y="150.57" width="17.32" height="11.55" rx="0.58" fill="url(#linear-gradient-52)"/>
      <polygon points="422.76 154.66 422.76 158.02 419.88 159.71 419.88 156.34 422.76 154.66" fill="#50e6ff"/>
      <polygon points="422.76 154.66 419.88 156.35 416.99 154.66 419.88 152.98 422.76 154.66" fill="#c3f1ff"/>
      <polygon points="419.88 156.35 419.88 159.71 416.99 158.02 416.99 154.66 419.88 156.35" fill="#9cebff"/>
      <polygon points="416.99 158.02 419.88 156.34 419.88 159.71 416.99 158.02" fill="#c3f1ff"/>
      <polygon points="422.76 158.02 419.88 156.34 419.88 159.71 422.76 158.02" fill="#9cebff"/>
      <path d="M423.35,165.61c-1.71-.27-1.78-1.5-1.78-3.49h-3.4c0,2-.06,3.22-1.77,3.49a1,1,0,0,0-.85,1h8.65A1,1,0,0,0,423.35,165.61Z" fill="url(#linear-gradient-53)"/>
    </g>
    <g>
      <rect x="466.24" y="150.57" width="17.32" height="11.55" rx="0.58" fill="url(#linear-gradient-54)"/>
      <polygon points="477.78 154.66 477.78 158.02 474.9 159.71 474.9 156.34 477.78 154.66" fill="#50e6ff"/>
      <polygon points="477.78 154.66 474.9 156.35 472.01 154.66 474.9 152.98 477.78 154.66" fill="#c3f1ff"/>
      <polygon points="474.9 156.35 474.9 159.71 472.01 158.02 472.01 154.66 474.9 156.35" fill="#9cebff"/>
      <polygon points="472.01 158.02 474.9 156.34 474.9 159.71 472.01 158.02" fill="#c3f1ff"/>
      <polygon points="477.78 158.02 474.9 156.34 474.9 159.71 477.78 158.02" fill="#9cebff"/>
      <path d="M478.37,165.61c-1.71-.27-1.78-1.5-1.78-3.49h-3.4c0,2-.05,3.22-1.77,3.49a1,1,0,0,0-.85,1h8.66A1,1,0,0,0,478.37,165.61Z" fill="url(#linear-gradient-55)"/>
    </g>
    <line x1="291.17" y1="121.17" x2="576.83" y2="121.17" fill="none" stroke="#e6e6e6" stroke-width="0.75"/>
    <circle cx="303.67" cy="91.17" r="5" fill="url(#linear-gradient-56)"/>
    <circle cx="318.67" cy="91.17" r="5" fill="url(#linear-gradient-57)"/>
    <circle cx="333.67" cy="91.17" r="5" fill="url(#linear-gradient-58)"/>
    <circle cx="303.67" cy="106.17" r="5" fill="url(#linear-gradient-59)"/>
    <circle cx="318.67" cy="106.17" r="5" fill="url(#linear-gradient-60)"/>
    <circle cx="333.67" cy="106.17" r="5" fill="url(#linear-gradient-61)"/>
    <circle cx="303.67" cy="76.17" r="5" fill="url(#linear-gradient-62)"/>
    <circle cx="318.67" cy="76.17" r="5" fill="url(#linear-gradient-63)"/>
    <circle cx="333.67" cy="76.17" r="5" fill="url(#linear-gradient-64)"/>
    <circle cx="358.67" cy="106.17" r="5" fill="url(#linear-gradient-65)"/>
    <circle cx="373.67" cy="106.17" r="5" fill="url(#linear-gradient-66)"/>
    <circle cx="388.67" cy="106.17" r="5" fill="url(#linear-gradient-67)"/>
    <circle cx="413.67" cy="91.17" r="5" fill="url(#linear-gradient-68)"/>
    <circle cx="428.67" cy="91.17" r="5" fill="url(#linear-gradient-69)"/>
    <circle cx="443.67" cy="91.17" r="5" fill="url(#linear-gradient-70)"/>
    <circle cx="413.67" cy="106.17" r="5" fill="url(#linear-gradient-71)"/>
    <circle cx="428.67" cy="106.17" r="5" fill="url(#linear-gradient-72)"/>
    <circle cx="443.67" cy="106.17" r="5" fill="url(#linear-gradient-73)"/>
    <circle cx="413.67" cy="76.17" r="5" fill="url(#linear-gradient-74)"/>
    <circle cx="468.67" cy="91.17" r="5" fill="url(#linear-gradient-75)"/>
    <circle cx="483.67" cy="91.17" r="5" fill="url(#linear-gradient-76)"/>
    <circle cx="498.67" cy="91.17" r="5" fill="url(#linear-gradient-77)"/>
    <circle cx="468.67" cy="106.17" r="5" fill="url(#linear-gradient-78)"/>
    <circle cx="483.67" cy="106.17" r="5" fill="url(#linear-gradient-79)"/>
    <circle cx="498.67" cy="106.17" r="5" fill="url(#linear-gradient-80)"/>
    <rect x="299.03" y="131.17" width="40" height="10" fill="#107c10"/>
    <g>
      <rect x="354.22" y="131.17" width="40" height="10" fill="#e6e6e6"/>
      <rect x="354.22" y="131.17" width="10" height="10" fill="#107c10"/>
    </g>
    <g>
      <rect x="409.22" y="131.17" width="40" height="10" fill="#e6e6e6"/>
      <rect x="409.22" y="131.17" width="25" height="10" fill="#107c10"/>
    </g>
    <g>
      <rect x="464.22" y="131.17" width="40" height="10" fill="#e6e6e6"/>
      <rect x="464.22" y="131.17" width="25" height="10" fill="#107c10"/>
    </g>
    <line x1="347.54" y1="56.17" x2="347.54" y2="176.17" fill="none" stroke="#e6e6e6" stroke-width="0.75"/>
    <line x1="401.42" y1="56.17" x2="401.42" y2="176.17" fill="none" stroke="#e6e6e6" stroke-width="0.75"/>
    <line x1="455.29" y1="56.17" x2="455.29" y2="176.17" fill="none" stroke="#e6e6e6" stroke-width="0.75"/>
    <line x1="511.83" y1="56.17" x2="511.83" y2="176.17" fill="none" stroke="#e6e6e6" stroke-width="0.75"/>
    <g id="ad94e297-0e86-4eaf-aac0-d146ee9aea65">
      <g>
        <path d="M313.87,35.34,308.73,30a2.5,2.5,0,0,1-.85.15,2.66,2.66,0,1,1,2.45-3.64h5.07v1.77h-5a4.51,4.51,0,0,1-.29.63l4.75,4.89,2.57-3.91V17.66H314l4.36-4.42,4.33,4.42h-3.46v9.58l6.5-9.92-6.55-6.56a1.14,1.14,0,0,0-1.61,0l0,0L301.68,26.61a1.14,1.14,0,0,0,0,1.61l0,0,15.87,15.87-5.67-5.67Z" fill="#6ebcdb"/>
        <path d="M317.44,35.57V29.9l-2.57,3.93,1.89,2A2,2,0,0,1,317.44,35.57Z" fill="#5db4d7"/>
        <path d="M335,26.61l-9.3-9.29-6.5,9.92v8.35a2.25,2.25,0,0,1,.59.32l6.82-6.9a2.84,2.84,0,0,1-.34-.7h-5.12V26.54h5.2a2.64,2.64,0,1,1,2.45,3.64,2.58,2.58,0,0,1-.73-.11l-7.26,7.31a2.3,2.3,0,0,1,.11.68,2.66,2.66,0,1,1-5.32.21,2.37,2.37,0,0,1,.15-1l-1.89-1.89-2,3,5.67,5.67a1.14,1.14,0,0,0,1.59,0L335,28.22a1.13,1.13,0,0,0,0-1.6Z" fill="#5db4d7"/>
        <path d="M326.36,26.54h-5.2v1.77h5.12a2.62,2.62,0,0,1-.13-.79A2.37,2.37,0,0,1,326.36,26.54Z" fill="#e6e6e6"/>
        <path d="M310.41,28.31h5V26.54h-5.07a2.37,2.37,0,0,1,.21,1A2.62,2.62,0,0,1,310.41,28.31Z" fill="#e6e6e6"/>
        <path d="M320.82,37.38l7.26-7.31A2.65,2.65,0,0,1,326.62,29l-6.82,6.9A2.52,2.52,0,0,1,320.82,37.38Z" fill="#e6e6e6"/>
        <path d="M316.81,35.85l-1.89-2-4.8-4.89A2.68,2.68,0,0,1,308.73,30l5.14,5.31,1.89,1.89A2.62,2.62,0,0,1,316.81,35.85Z" fill="#e6e6e6"/>
        <path d="M322.65,17.66l-4.31-4.42L314,17.66h3.46V35.57a2,2,0,0,0-.63.28,2.59,2.59,0,0,0-1.05,1.44,2.64,2.64,0,1,0,5.06,1.53,2.74,2.74,0,0,0,.11-.76,2.3,2.3,0,0,0-.11-.68,2.52,2.52,0,0,0-1-1.47,2.25,2.25,0,0,0-.59-.32V17.66Zm-4.31,21.88a1.48,1.48,0,1,1,1.48-1.48h0A1.48,1.48,0,0,1,318.34,39.54Z" fill="#fff"/>
        <path d="M310.12,28.94a4.51,4.51,0,0,0,.29-.63,2.62,2.62,0,0,0,.13-.79,2.37,2.37,0,0,0-.21-1,2.65,2.65,0,1,0-2.45,3.64,2.5,2.5,0,0,0,.85-.15A2.68,2.68,0,0,0,310.12,28.94Zm-2.24,0a1.48,1.48,0,1,1,1.47-1.48h0A1.47,1.47,0,0,1,307.93,29h-.05Z" fill="#fff"/>
        <path d="M328.08,30.07a2.58,2.58,0,0,0,.73.11,2.66,2.66,0,1,0-2.45-3.64,2.37,2.37,0,0,0-.21,1,2.62,2.62,0,0,0,.13.79,2.84,2.84,0,0,0,.34.7A2.65,2.65,0,0,0,328.08,30.07Zm.73-4a1.47,1.47,0,1,1-.33,0A.92.92,0,0,1,328.81,26.07Z" fill="#fff"/>
        <path d="M318.34,36.59a1.48,1.48,0,1,0,1.48,1.47h0A1.47,1.47,0,0,0,318.34,36.59Z" fill="#86d633"/>
        <circle cx="307.88" cy="27.52" r="1.47" fill="#86d633"/>
        <path d="M328.81,29a1.47,1.47,0,1,0-1.47-1.47h0A1.47,1.47,0,0,0,328.81,29Z" fill="#86d633"/>
      </g>
    </g>
  </g>
  <g id="Text">
    <g>
      <path d="M70.13,18.37h-5V10H67v6.86h3.11Z" fill="#1e1e1e"/>
      <path d="M74,18.51a3.23,3.23,0,0,1-2.36-.84,3,3,0,0,1-.86-2.28,3.07,3.07,0,0,1,.89-2.33,3.37,3.37,0,0,1,2.41-.84,3.19,3.19,0,0,1,2.34.84,3,3,0,0,1,.85,2.23,3.16,3.16,0,0,1-.88,2.36A3.23,3.23,0,0,1,74,18.51Zm0-4.87a1.23,1.23,0,0,0-1,.45,2,2,0,0,0-.36,1.28c0,1.15.46,1.73,1.39,1.73s1.33-.6,1.33-1.78S74.91,13.64,74,13.64Z" fill="#1e1e1e"/>
      <path d="M83.43,18.37H81.68v-.86h0a2,2,0,0,1-1.79,1A1.85,1.85,0,0,1,78.5,18,1.75,1.75,0,0,1,78,16.7c0-1.17.69-1.84,2.06-2l1.63-.21c0-.66-.35-1-1.06-1a3.59,3.59,0,0,0-2,.64V12.73a4.62,4.62,0,0,1,1.06-.36,5.56,5.56,0,0,1,1.22-.15,2.26,2.26,0,0,1,2.56,2.56Zm-1.74-2.44v-.4l-1.09.14c-.6.07-.9.35-.9.81a.67.67,0,0,0,.22.52.89.89,0,0,0,.6.2,1.11,1.11,0,0,0,.85-.36A1.33,1.33,0,0,0,81.69,15.93Z" fill="#1e1e1e"/>
      <path d="M90.8,18.37H89v-.83h0a2.06,2.06,0,0,1-1.85,1,2.26,2.26,0,0,1-1.81-.79,3.28,3.28,0,0,1-.69-2.22,3.54,3.54,0,0,1,.76-2.38,2.45,2.45,0,0,1,2-.9,1.68,1.68,0,0,1,1.61.83h0V9.49H90.8ZM89,15.45V15a1.38,1.38,0,0,0-.34-1,1.1,1.1,0,0,0-.88-.39,1.12,1.12,0,0,0-1,.48,2.26,2.26,0,0,0-.35,1.33,2,2,0,0,0,.33,1.22,1.15,1.15,0,0,0,.93.43,1.12,1.12,0,0,0,.92-.45A1.94,1.94,0,0,0,89,15.45Z" fill="#1e1e1e"/>
      <path d="M95.85,18.37V10h3.06a3.83,3.83,0,0,1,2.16.51,1.67,1.67,0,0,1,.76,1.45,1.74,1.74,0,0,1-.46,1.19,2.41,2.41,0,0,1-1.18.71v0a2.26,2.26,0,0,1,1.43.66,1.84,1.84,0,0,1,.54,1.34,2.24,2.24,0,0,1-.83,1.83,3.45,3.45,0,0,1-2.25.68Zm1.89-7v2h.83a1.41,1.41,0,0,0,.93-.28,1,1,0,0,0,.33-.78q0-.93-1.38-.93Zm0,3.4V17h1a1.62,1.62,0,0,0,1-.3,1,1,0,0,0,.37-.83.93.93,0,0,0-.37-.79,1.55,1.55,0,0,0-1-.29Z" fill="#1e1e1e"/>
      <path d="M108.41,18.37h-1.76v-.86h0a2,2,0,0,1-1.79,1,1.85,1.85,0,0,1-1.37-.49,1.79,1.79,0,0,1-.5-1.32c0-1.17.69-1.84,2.07-2l1.63-.21c0-.66-.36-1-1.07-1a3.59,3.59,0,0,0-2,.64V12.73a4.62,4.62,0,0,1,1.06-.36,5.56,5.56,0,0,1,1.22-.15,2.27,2.27,0,0,1,2.57,2.56Zm-1.74-2.44v-.4l-1.09.14c-.61.07-.91.35-.91.81a.71.71,0,0,0,.22.52.89.89,0,0,0,.6.2,1.1,1.1,0,0,0,.85-.36A1.29,1.29,0,0,0,106.67,15.93Z" fill="#1e1e1e"/>
      <path d="M111.72,18.37h-1.85V9.49h1.85Z" fill="#1e1e1e"/>
      <path d="M118.3,18.37h-1.75v-.86h0a2,2,0,0,1-1.79,1,1.85,1.85,0,0,1-1.37-.49,1.76,1.76,0,0,1-.51-1.32c0-1.17.69-1.84,2.07-2l1.63-.21c0-.66-.35-1-1.06-1a3.59,3.59,0,0,0-2,.64V12.73a4.52,4.52,0,0,1,1.05-.36,5.71,5.71,0,0,1,1.23-.15,2.26,2.26,0,0,1,2.56,2.56Zm-1.74-2.44v-.4l-1.09.14c-.6.07-.9.35-.9.81a.67.67,0,0,0,.22.52.86.86,0,0,0,.59.2,1.08,1.08,0,0,0,.85-.36A1.29,1.29,0,0,0,116.56,15.93Z" fill="#1e1e1e"/>
      <path d="M125.56,18.37h-1.84V15c0-.93-.34-1.39-1-1.39a1,1,0,0,0-.79.37,1.38,1.38,0,0,0-.31.94v3.42h-1.85v-6h1.85v1h0a2.13,2.13,0,0,1,1.93-1.1c1.33,0,2,.83,2,2.47Z" fill="#1e1e1e"/>
      <path d="M131.58,18.15a3.66,3.66,0,0,1-1.81.36,3.06,3.06,0,0,1-2.24-.83,2.9,2.9,0,0,1-.85-2.17,3.16,3.16,0,0,1,.92-2.41,3.4,3.4,0,0,1,2.45-.88,3.19,3.19,0,0,1,1.53.28v1.57a2.07,2.07,0,0,0-1.29-.43,1.67,1.67,0,0,0-1.26.47,1.72,1.72,0,0,0-.47,1.28,1.69,1.69,0,0,0,.45,1.25,1.63,1.63,0,0,0,1.22.46,2.43,2.43,0,0,0,1.35-.44Z" fill="#1e1e1e"/>
      <path d="M138.21,15.9h-3.92c.06.87.61,1.3,1.65,1.3a3.15,3.15,0,0,0,1.74-.47v1.34a4.56,4.56,0,0,1-2.16.44,3,3,0,0,1-2.26-.8,3.08,3.08,0,0,1-.8-2.25,3.27,3.27,0,0,1,.86-2.37,2.9,2.9,0,0,1,2.14-.87,2.63,2.63,0,0,1,2,.78,3,3,0,0,1,.72,2.12Zm-1.72-1.14c0-.86-.35-1.29-1-1.29a1,1,0,0,0-.77.37,1.65,1.65,0,0,0-.4.92Z" fill="#1e1e1e"/>
      <path d="M143.3,14a1.61,1.61,0,0,0-.78-.18,1.1,1.1,0,0,0-.94.44,1.88,1.88,0,0,0-.34,1.2v2.87h-1.86v-6h1.86v1.11h0a1.6,1.6,0,0,1,1.58-1.22,1.35,1.35,0,0,1,.46.07Z" fill="#1e1e1e"/>
    </g>
    <g>
      <path d="M70.13,33.05h-5v-8.4H67v6.86h3.11Z" fill="#3b3b3b"/>
      <path d="M71.13,33.05v-8.4h3.06a3.83,3.83,0,0,1,2.16.51,1.66,1.66,0,0,1,.76,1.46,1.76,1.76,0,0,1-.46,1.19,2.4,2.4,0,0,1-1.18.7v0a2.31,2.31,0,0,1,1.44.66,1.87,1.87,0,0,1,.53,1.34,2.24,2.24,0,0,1-.82,1.83,3.5,3.5,0,0,1-2.26.68ZM73,26v2h.84a1.39,1.39,0,0,0,.92-.28,1,1,0,0,0,.34-.78c0-.62-.47-.93-1.39-.93Zm0,3.4v2.21h1a1.6,1.6,0,0,0,1-.3,1,1,0,0,0,.37-.83.93.93,0,0,0-.37-.79,1.61,1.61,0,0,0-1-.29Z" fill="#3b3b3b"/>
      <path d="M84,30.15v2.9H82.14v-8.4h3q3.18,0,3.18,2.67a2.56,2.56,0,0,1-.92,2.05,3.58,3.58,0,0,1-2.43.78Zm0-4v2.62h.74c1,0,1.51-.44,1.51-1.32s-.5-1.3-1.51-1.3Z" fill="#3b3b3b"/>
      <path d="M92,33.2a3.23,3.23,0,0,1-2.36-.84,3.05,3.05,0,0,1-.86-2.29,3.07,3.07,0,0,1,.89-2.33,3.37,3.37,0,0,1,2.41-.84,3.19,3.19,0,0,1,2.34.84A3,3,0,0,1,95.31,30a3.16,3.16,0,0,1-.88,2.36A3.23,3.23,0,0,1,92,33.2Zm0-4.88a1.23,1.23,0,0,0-1,.45,2,2,0,0,0-.36,1.28c0,1.15.46,1.73,1.39,1.73s1.33-.59,1.33-1.78S93,28.32,92.08,28.32Z" fill="#3b3b3b"/>
      <path d="M99.37,33.2A3.23,3.23,0,0,1,97,32.36a3.09,3.09,0,0,1-.86-2.29A3.07,3.07,0,0,1,97,27.74a3.38,3.38,0,0,1,2.41-.84,3.2,3.2,0,0,1,2.35.84,3,3,0,0,1,.85,2.23,3.2,3.2,0,0,1-.88,2.36A3.24,3.24,0,0,1,99.37,33.2Zm0-4.88a1.23,1.23,0,0,0-1,.45A2,2,0,0,0,98,30.05c0,1.15.46,1.73,1.39,1.73s1.33-.59,1.33-1.78S100.31,28.32,99.42,28.32Z" fill="#3b3b3b"/>
      <path d="M105.7,33.05h-1.85V24.17h1.85Z" fill="#3b3b3b"/>
      <path d="M110.4,30.49h-3.2V29.2h3.2Z" fill="#3b3b3b"/>
      <path d="M113.75,32.35h0v.7h-1.85V24.17h1.85V28h0a2.2,2.2,0,0,1,2-1.05,2.15,2.15,0,0,1,1.79.8,3.43,3.43,0,0,1,.63,2.18,3.78,3.78,0,0,1-.73,2.41,2.41,2.41,0,0,1-2,.91A1.91,1.91,0,0,1,113.75,32.35Zm0-2.53v.62a1.44,1.44,0,0,0,.33,1,1.12,1.12,0,0,0,.86.38,1.15,1.15,0,0,0,1-.49,2.4,2.4,0,0,0,.35-1.39,1.9,1.9,0,0,0-.32-1.16,1.08,1.08,0,0,0-.91-.42,1.16,1.16,0,0,0-.92.42A1.54,1.54,0,0,0,113.7,29.82Z" fill="#3b3b3b"/>
      <path d="M124.33,33.05h-1.75v-.86h0a2,2,0,0,1-1.79,1,1.86,1.86,0,0,1-1.37-.5,1.79,1.79,0,0,1-.5-1.32c0-1.16.69-1.84,2.07-2l1.63-.21c0-.66-.36-1-1.07-1a3.72,3.72,0,0,0-2,.64V27.41a4.22,4.22,0,0,1,1.06-.35,5.12,5.12,0,0,1,1.22-.16,2.27,2.27,0,0,1,2.57,2.56Zm-1.74-2.44v-.4l-1.09.14c-.6.08-.91.35-.91.81a.69.69,0,0,0,.22.52.84.84,0,0,0,.6.2,1.1,1.1,0,0,0,.85-.36A1.29,1.29,0,0,0,122.59,30.61Z" fill="#3b3b3b"/>
      <path d="M125.51,32.89v-1.5a4.27,4.27,0,0,0,.91.41,3.08,3.08,0,0,0,.86.14,1.84,1.84,0,0,0,.78-.14.43.43,0,0,0,.28-.41.36.36,0,0,0-.13-.29,1,1,0,0,0-.33-.21,2.52,2.52,0,0,0-.44-.15l-.46-.16a4.68,4.68,0,0,1-.63-.29,2.16,2.16,0,0,1-.46-.36,1.44,1.44,0,0,1-.28-.48,2,2,0,0,1-.1-.64,1.69,1.69,0,0,1,.22-.86,1.78,1.78,0,0,1,.59-.6,2.64,2.64,0,0,1,.84-.34,4.46,4.46,0,0,1,1-.11A5.73,5.73,0,0,1,129,27q.41.08.81.18v1.43a2.94,2.94,0,0,0-.76-.3,3.13,3.13,0,0,0-.79-.11,1.87,1.87,0,0,0-.34,0,1.51,1.51,0,0,0-.28.1.53.53,0,0,0-.2.16.38.38,0,0,0-.07.22.41.41,0,0,0,.11.28,1,1,0,0,0,.27.2,2.15,2.15,0,0,0,.38.15l.42.14a6.9,6.9,0,0,1,.66.28,2.18,2.18,0,0,1,.52.36,1.39,1.39,0,0,1,.32.48,1.62,1.62,0,0,1,.12.66,1.78,1.78,0,0,1-.23.91,1.9,1.9,0,0,1-.62.61,2.66,2.66,0,0,1-.88.35,5.1,5.1,0,0,1-1,.11A5.51,5.51,0,0,1,125.51,32.89Z" fill="#3b3b3b"/>
      <path d="M136.62,30.58h-3.91c.06.87.61,1.3,1.64,1.3a3.15,3.15,0,0,0,1.74-.47v1.34a4.5,4.5,0,0,1-2.16.45,3,3,0,0,1-2.25-.81,3,3,0,0,1-.81-2.25,3.19,3.19,0,0,1,.87-2.36,2.87,2.87,0,0,1,2.13-.88,2.6,2.6,0,0,1,2,.78,3,3,0,0,1,.72,2.12Zm-1.72-1.14c0-.86-.34-1.29-1-1.29a1,1,0,0,0-.77.37,1.6,1.6,0,0,0-.39.92Z" fill="#3b3b3b"/>
      <path d="M143.7,33.05h-1.85v-.83h0a2.07,2.07,0,0,1-1.85,1,2.3,2.3,0,0,1-1.82-.8,3.33,3.33,0,0,1-.68-2.22,3.54,3.54,0,0,1,.76-2.38,2.45,2.45,0,0,1,2-.9,1.67,1.67,0,0,1,1.61.84h0V24.17h1.85Zm-1.82-2.92v-.45a1.4,1.4,0,0,0-.34-1,1.19,1.19,0,0,0-1.84.09,2.28,2.28,0,0,0-.35,1.33,2,2,0,0,0,.33,1.22,1.19,1.19,0,0,0,1.85,0A1.92,1.92,0,0,0,141.88,30.13Z" fill="#3b3b3b"/>
      <path d="M147,31.57l-.86,3h-1.44l.6-3Z" fill="#3b3b3b"/>
      <path d="M153.72,32.35h0v3.46h-1.85V27.05h1.85V28h0a2.36,2.36,0,0,1,3.73-.25,3.45,3.45,0,0,1,.63,2.18,3.67,3.67,0,0,1-.74,2.41,2.43,2.43,0,0,1-2,.91A1.88,1.88,0,0,1,153.72,32.35Zm-.05-2.46v.48a1.54,1.54,0,0,0,.32,1,1.08,1.08,0,0,0,.86.39,1.17,1.17,0,0,0,1-.49,2.4,2.4,0,0,0,.35-1.39c0-1-.42-1.58-1.24-1.58a1.14,1.14,0,0,0-.92.43A1.73,1.73,0,0,0,153.67,29.89Z" fill="#3b3b3b"/>
      <path d="M163.22,28.72a1.61,1.61,0,0,0-.78-.18,1.14,1.14,0,0,0-.94.44,1.92,1.92,0,0,0-.34,1.2v2.87h-1.85v-6h1.85v1.11h0a1.61,1.61,0,0,1,1.59-1.22,1.32,1.32,0,0,1,.45.07Z" fill="#3b3b3b"/>
      <path d="M169.55,30.58h-3.91c.06.87.61,1.3,1.64,1.3a3.15,3.15,0,0,0,1.74-.47v1.34a4.5,4.5,0,0,1-2.16.45,2.8,2.8,0,0,1-3.06-3.06,3.19,3.19,0,0,1,.87-2.36,2.87,2.87,0,0,1,2.13-.88,2.62,2.62,0,0,1,2,.78,3,3,0,0,1,.72,2.12Zm-1.72-1.14c0-.86-.35-1.29-1-1.29a1,1,0,0,0-.77.37,1.68,1.68,0,0,0-.4.92Z" fill="#3b3b3b"/>
      <path d="M174,30.49h-3.21V29.2H174Z" fill="#3b3b3b"/>
      <path d="M180.38,33.05h-1.75v-.86h0a2,2,0,0,1-1.78,1,1.88,1.88,0,0,1-1.38-.5,1.79,1.79,0,0,1-.5-1.32c0-1.16.69-1.84,2.07-2l1.63-.21c0-.66-.36-1-1.07-1a3.72,3.72,0,0,0-2,.64V27.41a4.22,4.22,0,0,1,1.06-.35,5.18,5.18,0,0,1,1.22-.16,2.27,2.27,0,0,1,2.57,2.56Zm-1.74-2.44v-.4l-1.09.14q-.9.12-.9.81a.66.66,0,0,0,.22.52.8.8,0,0,0,.59.2,1.1,1.1,0,0,0,.85-.36A1.29,1.29,0,0,0,178.64,30.61Z" fill="#3b3b3b"/>
      <path d="M183.7,33.05h-1.86V24.17h1.86Z" fill="#3b3b3b"/>
      <path d="M187.07,33.05h-1.85V24.17h1.85Z" fill="#3b3b3b"/>
      <path d="M191.49,33.2a3.23,3.23,0,0,1-2.36-.84,3.09,3.09,0,0,1-.86-2.29,3.07,3.07,0,0,1,.89-2.33,3.38,3.38,0,0,1,2.41-.84,3.16,3.16,0,0,1,2.34.84,3,3,0,0,1,.85,2.23,3.19,3.19,0,0,1-.87,2.36A3.27,3.27,0,0,1,191.49,33.2Zm0-4.88a1.22,1.22,0,0,0-1,.45,2,2,0,0,0-.37,1.28c0,1.15.47,1.73,1.4,1.73s1.33-.59,1.33-1.78S192.43,28.32,191.53,28.32Z" fill="#3b3b3b"/>
      <path d="M200.51,32.83a3.68,3.68,0,0,1-1.81.37,3.06,3.06,0,0,1-2.24-.84,2.89,2.89,0,0,1-.85-2.16,3.21,3.21,0,0,1,.91-2.42A3.44,3.44,0,0,1,199,26.9a3.24,3.24,0,0,1,1.53.28v1.57a2.17,2.17,0,0,0-1.29-.43,1.82,1.82,0,0,0-1.29,3,1.63,1.63,0,0,0,1.23.46,2.43,2.43,0,0,0,1.35-.44Z" fill="#3b3b3b"/>
      <path d="M206.81,33.05h-1.75v-.86h0a2,2,0,0,1-1.78,1,1.88,1.88,0,0,1-1.38-.5,1.79,1.79,0,0,1-.5-1.32c0-1.16.69-1.84,2.07-2l1.63-.21c0-.66-.36-1-1.07-1a3.72,3.72,0,0,0-2,.64V27.41a4.22,4.22,0,0,1,1.06-.35,5.18,5.18,0,0,1,1.22-.16,2.27,2.27,0,0,1,2.57,2.56Zm-1.74-2.44v-.4l-1.09.14q-.9.12-.9.81a.66.66,0,0,0,.22.52.8.8,0,0,0,.59.2,1.1,1.1,0,0,0,.85-.36A1.29,1.29,0,0,0,205.07,30.61Z" fill="#3b3b3b"/>
      <path d="M211.81,33a2.75,2.75,0,0,1-1.23.22c-1.31,0-2-.68-2-2V28.41h-1V27.05h1v-1.3l1.85-.52v1.82h1.34v1.36h-1.34v2.43c0,.63.24.94.74.94a1.27,1.27,0,0,0,.6-.17Z" fill="#3b3b3b"/>
      <path d="M218.24,30.58h-3.92c.07.87.62,1.3,1.65,1.3a3.15,3.15,0,0,0,1.74-.47v1.34a4.5,4.5,0,0,1-2.16.45,2.8,2.8,0,0,1-3.06-3.06,3.19,3.19,0,0,1,.87-2.36,2.87,2.87,0,0,1,2.13-.88,2.62,2.62,0,0,1,2,.78,3,3,0,0,1,.72,2.12Zm-1.72-1.14c0-.86-.35-1.29-1-1.29a1,1,0,0,0-.77.37,1.68,1.68,0,0,0-.4.92Z" fill="#3b3b3b"/>
      <path d="M225.31,33.05h-1.85v-.83h0a2.08,2.08,0,0,1-1.86,1,2.28,2.28,0,0,1-1.81-.8,3.28,3.28,0,0,1-.68-2.22,3.59,3.59,0,0,1,.75-2.38,2.48,2.48,0,0,1,2-.9,1.68,1.68,0,0,1,1.62.84h0V24.17h1.85Zm-1.81-2.92v-.45a1.45,1.45,0,0,0-.34-1,1.2,1.2,0,0,0-1.85.09,2.28,2.28,0,0,0-.34,1.33,2,2,0,0,0,.33,1.22,1.18,1.18,0,0,0,1.84,0A1.87,1.87,0,0,0,223.5,30.13Z" fill="#3b3b3b"/>
      <path d="M68.68,47.6a3.92,3.92,0,0,1-2.94-1.18,4.2,4.2,0,0,1-1.14-3.06,4.5,4.5,0,0,1,1.15-3.22,4,4,0,0,1,3.06-1.23,3.83,3.83,0,0,1,2.91,1.17,4.35,4.35,0,0,1,1.11,3.11,4.43,4.43,0,0,1-1.15,3.19A4,4,0,0,1,68.68,47.6Zm.08-7.06a1.89,1.89,0,0,0-1.58.74,3.13,3.13,0,0,0-.59,2,3,3,0,0,0,.59,2,1.86,1.86,0,0,0,1.53.73,1.91,1.91,0,0,0,1.56-.7,3.07,3.07,0,0,0,.57-2,3.3,3.3,0,0,0-.56-2A1.82,1.82,0,0,0,68.76,40.54Z" fill="#3b3b3b"/>
      <path d="M79.82,47.45H78v-.91h0a2.09,2.09,0,0,1-1.83,1.06c-1.39,0-2.09-.85-2.09-2.53V41.45h1.85v3.46c0,.84.34,1.27,1,1.27a1,1,0,0,0,.8-.35,1.46,1.46,0,0,0,.29-.95V41.45h1.85Z" fill="#3b3b3b"/>
      <path d="M85,47.38a2.83,2.83,0,0,1-1.24.22c-1.3,0-2-.68-2-2V42.81h-1V41.45h1v-1.3l1.85-.52v1.82H85v1.36H83.6v2.43c0,.63.25.94.74.94A1.31,1.31,0,0,0,85,46Z" fill="#3b3b3b"/>
      <path d="M88,46.75h0v.7H86.11V38.57H88v3.78h0a2.37,2.37,0,0,1,3.74-.25,3.49,3.49,0,0,1,.62,2.18,3.72,3.72,0,0,1-.73,2.41,2.41,2.41,0,0,1-2,.91A1.89,1.89,0,0,1,88,46.75Zm-.06-2.53v.62a1.44,1.44,0,0,0,.34,1,1.09,1.09,0,0,0,.85.38,1.14,1.14,0,0,0,1-.49,2.32,2.32,0,0,0,.35-1.39,1.84,1.84,0,0,0-.32-1.16,1.06,1.06,0,0,0-.91-.42,1.16,1.16,0,0,0-.92.42A1.59,1.59,0,0,0,87.93,44.22Z" fill="#3b3b3b"/>
      <path d="M96.46,47.6a3.24,3.24,0,0,1-2.36-.84,3.09,3.09,0,0,1-.85-2.29,3,3,0,0,1,.89-2.33,3.34,3.34,0,0,1,2.4-.84,3.2,3.2,0,0,1,2.35.84,3,3,0,0,1,.85,2.23,3.16,3.16,0,0,1-.88,2.36A3.24,3.24,0,0,1,96.46,47.6Zm.05-4.88a1.23,1.23,0,0,0-1,.45,2,2,0,0,0-.36,1.28c0,1.15.46,1.73,1.39,1.73s1.33-.59,1.33-1.78S97.4,42.72,96.51,42.72Z" fill="#3b3b3b"/>
      <path d="M106.63,47.45h-1.84v-.91h0a2.12,2.12,0,0,1-1.84,1.06c-1.39,0-2.08-.85-2.08-2.53V41.45h1.84v3.46c0,.84.34,1.27,1,1.27a1,1,0,0,0,.8-.35,1.41,1.41,0,0,0,.3-.95V41.45h1.84Z" fill="#3b3b3b"/>
      <path d="M114,47.45h-1.84V44.12c0-.93-.33-1.4-1-1.4a1,1,0,0,0-.79.37A1.4,1.4,0,0,0,110,44v3.42h-1.85v-6H110v.95h0A2.14,2.14,0,0,1,112,41.3c1.33,0,2,.83,2,2.48Z" fill="#3b3b3b"/>
      <path d="M121.32,47.45h-1.85v-.83h0a2.07,2.07,0,0,1-1.85,1,2.27,2.27,0,0,1-1.81-.8,3.28,3.28,0,0,1-.69-2.22,3.54,3.54,0,0,1,.76-2.38,2.45,2.45,0,0,1,2-.9,1.68,1.68,0,0,1,1.61.83h0V38.57h1.85Zm-1.82-2.92v-.45a1.4,1.4,0,0,0-.34-1,1.1,1.1,0,0,0-.88-.39,1.12,1.12,0,0,0-1,.48,2.28,2.28,0,0,0-.35,1.33,1.89,1.89,0,0,0,.34,1.22,1.09,1.09,0,0,0,.92.43,1.12,1.12,0,0,0,.92-.45A1.92,1.92,0,0,0,119.5,44.53Z" fill="#3b3b3b"/>
      <path d="M126,47.13V45.25a3.45,3.45,0,0,0,1.11.64,3.4,3.4,0,0,0,1.21.22,2.3,2.3,0,0,0,.62-.07,1.32,1.32,0,0,0,.45-.18.67.67,0,0,0,.26-.27.63.63,0,0,0,.09-.33.74.74,0,0,0-.14-.44,1.47,1.47,0,0,0-.38-.36,5,5,0,0,0-.58-.32l-.72-.31a3.56,3.56,0,0,1-1.47-1A2.19,2.19,0,0,1,126,41.4a2.39,2.39,0,0,1,.26-1.13,2.31,2.31,0,0,1,.72-.77,3.33,3.33,0,0,1,1-.45,5.21,5.21,0,0,1,1.27-.14,6.81,6.81,0,0,1,1.16.08,4.22,4.22,0,0,1,.93.24V41a3.3,3.3,0,0,0-.45-.26,4.56,4.56,0,0,0-.52-.18,3.21,3.21,0,0,0-.52-.11,4.57,4.57,0,0,0-.5,0,2.56,2.56,0,0,0-.58.07,1.32,1.32,0,0,0-.45.17.81.81,0,0,0-.28.27.59.59,0,0,0-.1.34.7.7,0,0,0,.11.38,1.38,1.38,0,0,0,.32.32,2.54,2.54,0,0,0,.5.29,7,7,0,0,0,.66.3,6.86,6.86,0,0,1,.9.45,2.87,2.87,0,0,1,.69.53,2.15,2.15,0,0,1,.44.68,2.5,2.5,0,0,1,.15.9,2.37,2.37,0,0,1-.26,1.18,2.15,2.15,0,0,1-.73.77,3.15,3.15,0,0,1-1.06.43,6.53,6.53,0,0,1-1.28.13,7,7,0,0,1-1.32-.12A4.42,4.42,0,0,1,126,47.13Z" fill="#3b3b3b"/>
      <path d="M140.64,47.45h-1.91l-3.46-5.28a5,5,0,0,1-.42-.7h0c0,.3.05.75.05,1.36v4.62h-1.79v-8.4h2l3.34,5.11q.22.35.42.69h0a9.13,9.13,0,0,1-.05-1.16V39.05h1.79Z" fill="#3b3b3b"/>
      <path d="M149.88,47.45h-2.07l-.59-1.87h-3l-.59,1.87h-2.06l3.06-8.4h2.25Zm-3.1-3.32-.9-2.83a3.59,3.59,0,0,1-.14-.75h-.05a3.76,3.76,0,0,1-.14.73l-.92,2.85Z" fill="#3b3b3b"/>
      <path d="M155.94,40.59h-2.4v6.86h-1.9V40.59h-2.38V39.05h6.68Z" fill="#3b3b3b"/>
    </g>
    <g>
      <path d="M525.15,95.17h-1.09l-.89-2.36H519.6l-.83,2.36h-1.1l3.22-8.41h1Zm-2.31-3.24-1.31-3.58a2.71,2.71,0,0,1-.13-.57h0a3.51,3.51,0,0,1-.13.57l-1.31,3.58Z" fill="#1e1e1e"/>
      <path d="M527.21,95.17h-1V86.28h1Z" fill="#1e1e1e"/>
      <path d="M530,95.17h-1V86.28h1Z" fill="#1e1e1e"/>
      <path d="M534.39,95.31a2.79,2.79,0,0,1-2.13-.84,3.12,3.12,0,0,1-.79-2.23,3.23,3.23,0,0,1,.82-2.36,3,3,0,0,1,2.24-.85,2.68,2.68,0,0,1,2.09.82,3.29,3.29,0,0,1,.75,2.29,3.21,3.21,0,0,1-.81,2.3A2.82,2.82,0,0,1,534.39,95.31Zm.07-5.48a1.84,1.84,0,0,0-1.47.63,2.59,2.59,0,0,0-.54,1.74,2.41,2.41,0,0,0,.55,1.68,1.85,1.85,0,0,0,1.46.62,1.77,1.77,0,0,0,1.43-.6,2.67,2.67,0,0,0,.5-1.72,2.71,2.71,0,0,0-.5-1.74A1.77,1.77,0,0,0,534.46,89.83Z" fill="#1e1e1e"/>
      <path d="M543,94.89a3.1,3.1,0,0,1-1.64.42,2.69,2.69,0,0,1-2.07-.84,3,3,0,0,1-.79-2.16,3.3,3.3,0,0,1,.85-2.38,3,3,0,0,1,2.27-.9,3.09,3.09,0,0,1,1.39.29v1a2.45,2.45,0,0,0-1.43-.47,1.93,1.93,0,0,0-1.51.66,2.53,2.53,0,0,0-.59,1.74,2.38,2.38,0,0,0,.56,1.66,1.89,1.89,0,0,0,1.48.61A2.45,2.45,0,0,0,543,94Z" fill="#1e1e1e"/>
      <path d="M548.79,95.17h-1v-.94h0A2,2,0,0,1,546,95.31a1.93,1.93,0,0,1-1.4-.48,1.62,1.62,0,0,1-.51-1.26q0-1.68,2-1.95l1.8-.26c0-1-.41-1.53-1.24-1.53a3,3,0,0,0-2,.74v-1a3.68,3.68,0,0,1,2-.56c1.41,0,2.12.74,2.12,2.23Zm-1-3-1.45.2a2.35,2.35,0,0,0-1,.33,1,1,0,0,0-.34.84.92.92,0,0,0,.32.72,1.18,1.18,0,0,0,.83.28,1.55,1.55,0,0,0,1.18-.5,1.81,1.81,0,0,0,.47-1.27Z" fill="#1e1e1e"/>
      <path d="M553.31,95.11a1.94,1.94,0,0,1-.9.19c-1,0-1.58-.59-1.58-1.76V90h-1v-.82h1V87.7l1-.31v1.78h1.52V90h-1.52v3.38a1.37,1.37,0,0,0,.21.86.83.83,0,0,0,.68.26,1.05,1.05,0,0,0,.63-.2Z" fill="#1e1e1e"/>
      <path d="M555,87.64a.64.64,0,0,1-.44-.17.65.65,0,0,1,0-.9.6.6,0,0,1,.44-.17.6.6,0,0,1,.45.17.61.61,0,0,1,.18.45.6.6,0,0,1-.18.44A.61.61,0,0,1,555,87.64Zm.47,7.53h-1v-6h1Z" fill="#1e1e1e"/>
      <path d="M559.84,95.31a2.79,2.79,0,0,1-2.13-.84,3.12,3.12,0,0,1-.79-2.23,3.19,3.19,0,0,1,.83-2.36A3,3,0,0,1,560,89a2.68,2.68,0,0,1,2.09.82,3.29,3.29,0,0,1,.76,2.29,3.22,3.22,0,0,1-.82,2.3A2.82,2.82,0,0,1,559.84,95.31Zm.07-5.48a1.84,1.84,0,0,0-1.47.63,2.59,2.59,0,0,0-.54,1.74,2.41,2.41,0,0,0,.55,1.68,1.85,1.85,0,0,0,1.46.62,1.75,1.75,0,0,0,1.43-.6,2.67,2.67,0,0,0,.5-1.72,2.71,2.71,0,0,0-.5-1.74A1.76,1.76,0,0,0,559.91,89.83Z" fill="#1e1e1e"/>
      <path d="M569.29,95.17h-1V91.74c0-1.27-.47-1.91-1.4-1.91a1.51,1.51,0,0,0-1.19.55,2,2,0,0,0-.47,1.36v3.43h-1v-6h1v1h0a2.15,2.15,0,0,1,2-1.13,1.82,1.82,0,0,1,1.5.63,2.84,2.84,0,0,1,.53,1.84Z" fill="#1e1e1e"/>
    </g>
    <g>
      <path d="M522.52,140.17v-8.41h2.32q4.44,0,4.44,4.1a4.14,4.14,0,0,1-1.23,3.13,4.6,4.6,0,0,1-3.3,1.18Zm1-7.52v6.63h1.26a3.55,3.55,0,0,0,2.57-.89,3.32,3.32,0,0,0,.92-2.51q0-3.23-3.43-3.23Z" fill="#1e1e1e"/>
      <path d="M535.61,137.41h-4.23a2.18,2.18,0,0,0,.54,1.54,1.82,1.82,0,0,0,1.41.55,2.94,2.94,0,0,0,1.87-.67v.9a3.45,3.45,0,0,1-2.09.58,2.55,2.55,0,0,1-2-.82,3.33,3.33,0,0,1-.73-2.3,3.29,3.29,0,0,1,.8-2.28,2.53,2.53,0,0,1,2-.88,2.25,2.25,0,0,1,1.82.76,3.17,3.17,0,0,1,.64,2.11Zm-1-.82a2,2,0,0,0-.4-1.29,1.38,1.38,0,0,0-1.1-.47,1.56,1.56,0,0,0-1.15.49,2.19,2.19,0,0,0-.59,1.27Z" fill="#1e1e1e"/>
      <path d="M545.59,140.17h-1v-3.45a2.65,2.65,0,0,0-.31-1.44,1.17,1.17,0,0,0-1-.45,1.27,1.27,0,0,0-1,.57,2.11,2.11,0,0,0-.43,1.34v3.43h-1V136.6c0-1.18-.46-1.77-1.37-1.77a1.27,1.27,0,0,0-1,.53,2.24,2.24,0,0,0-.41,1.38v3.43h-1v-6h1v1h0a2,2,0,0,1,1.87-1.09,1.71,1.71,0,0,1,1.69,1.24,2.14,2.14,0,0,1,2-1.24c1.32,0,2,.81,2,2.44Z" fill="#1e1e1e"/>
      <path d="M551.63,140.17h-1v-.94h0a2,2,0,0,1-1.84,1.08,2,2,0,0,1-1.41-.48,1.61,1.61,0,0,1-.5-1.26q0-1.68,2-1.95l1.8-.26c0-1-.42-1.53-1.24-1.53a3,3,0,0,0-2,.74v-1a3.68,3.68,0,0,1,2-.56c1.41,0,2.12.74,2.12,2.23Zm-1-3-1.45.2a2.3,2.3,0,0,0-1,.33,1,1,0,0,0-.34.84.91.91,0,0,0,.31.72,1.2,1.2,0,0,0,.84.28,1.55,1.55,0,0,0,1.18-.5,1.81,1.81,0,0,0,.47-1.27Z" fill="#1e1e1e"/>
      <path d="M558.34,140.17h-1v-3.43c0-1.27-.46-1.91-1.39-1.91a1.51,1.51,0,0,0-1.19.55,2,2,0,0,0-.47,1.36v3.43h-1v-6h1v1h0a2.15,2.15,0,0,1,2-1.13,1.83,1.83,0,0,1,1.5.63,2.84,2.84,0,0,1,.52,1.84Z" fill="#1e1e1e"/>
      <path d="M565.28,140.17h-1v-1h0a2.21,2.21,0,0,1-2.06,1.16,2.24,2.24,0,0,1-1.81-.81,3.31,3.31,0,0,1-.67-2.19,3.62,3.62,0,0,1,.75-2.39,2.45,2.45,0,0,1,2-.89,1.91,1.91,0,0,1,1.8,1h0v-3.72h1Zm-1-2.72v-.88a1.67,1.67,0,0,0-.49-1.23,1.59,1.59,0,0,0-1.21-.51,1.68,1.68,0,0,0-1.39.65,2.85,2.85,0,0,0-.5,1.78,2.56,2.56,0,0,0,.48,1.64,1.73,1.73,0,0,0,2.6,0A2.16,2.16,0,0,0,564.32,137.45Z" fill="#1e1e1e"/>
    </g>
    <g>
      <path d="M18,95.17H16.89L16,92.81H12.44l-.84,2.36H10.5l3.23-8.41h1Zm-2.3-3.24-1.32-3.58a3.55,3.55,0,0,1-.13-.57h0a3.38,3.38,0,0,1-.14.57l-1.3,3.58Z" fill="#1e1e1e"/>
      <path d="M20,95.17h-1V86.28h1Z" fill="#1e1e1e"/>
      <path d="M22.82,95.17h-1V86.28h1Z" fill="#1e1e1e"/>
      <path d="M27.22,95.31a2.76,2.76,0,0,1-2.12-.84,3.12,3.12,0,0,1-.8-2.23,3.23,3.23,0,0,1,.83-2.36A3,3,0,0,1,27.36,89a2.68,2.68,0,0,1,2.09.82,3.25,3.25,0,0,1,.76,2.29,3.21,3.21,0,0,1-.81,2.3A2.85,2.85,0,0,1,27.22,95.31Zm.07-5.48a1.84,1.84,0,0,0-1.47.63,2.64,2.64,0,0,0-.53,1.74,2.46,2.46,0,0,0,.54,1.68,1.85,1.85,0,0,0,1.46.62,1.75,1.75,0,0,0,1.43-.6,2.61,2.61,0,0,0,.5-1.72,2.65,2.65,0,0,0-.5-1.74A1.76,1.76,0,0,0,27.29,89.83Z" fill="#1e1e1e"/>
      <path d="M35.83,94.89a3.1,3.1,0,0,1-1.64.42,2.72,2.72,0,0,1-2.07-.84,3,3,0,0,1-.79-2.16,3.35,3.35,0,0,1,.85-2.38,3,3,0,0,1,2.27-.9,3.06,3.06,0,0,1,1.39.29v1a2.45,2.45,0,0,0-1.43-.47,1.91,1.91,0,0,0-1.5.66,2.48,2.48,0,0,0-.59,1.74,2.38,2.38,0,0,0,.55,1.66,1.89,1.89,0,0,0,1.49.61A2.44,2.44,0,0,0,35.83,94Z" fill="#1e1e1e"/>
      <path d="M41.62,95.17h-1v-.94h0a2,2,0,0,1-1.85,1.08,2,2,0,0,1-1.4-.48,1.62,1.62,0,0,1-.51-1.26q0-1.68,2-1.95l1.8-.26q0-1.53-1.23-1.53a3,3,0,0,0-2,.74v-1a3.68,3.68,0,0,1,2-.56c1.41,0,2.11.74,2.11,2.23Zm-1-3-1.45.2a2.25,2.25,0,0,0-1,.33,1,1,0,0,0-.34.84.91.91,0,0,0,.31.72,1.2,1.2,0,0,0,.84.28A1.56,1.56,0,0,0,40.2,94a1.8,1.8,0,0,0,.46-1.27Z" fill="#1e1e1e"/>
      <path d="M46.14,95.11a1.94,1.94,0,0,1-.9.19c-1.05,0-1.57-.59-1.57-1.76V90h-1v-.82h1V87.7l1-.31v1.78h1.51V90H44.63v3.38a1.45,1.45,0,0,0,.2.86.84.84,0,0,0,.68.26,1.05,1.05,0,0,0,.63-.2Z" fill="#1e1e1e"/>
      <path d="M47.82,87.64a.61.61,0,0,1-.43-.17.63.63,0,0,1,0-.9.57.57,0,0,1,.43-.17.6.6,0,0,1,.45.17.58.58,0,0,1,.19.45.58.58,0,0,1-.19.44A.61.61,0,0,1,47.82,87.64Zm.47,7.53h-1v-6h1Z" fill="#1e1e1e"/>
      <path d="M52.67,95.31a2.77,2.77,0,0,1-2.12-.84,3.12,3.12,0,0,1-.8-2.23,3.23,3.23,0,0,1,.83-2.36A3,3,0,0,1,52.81,89a2.71,2.71,0,0,1,2.1.82,3.29,3.29,0,0,1,.75,2.29,3.21,3.21,0,0,1-.81,2.3A2.84,2.84,0,0,1,52.67,95.31Zm.07-5.48a1.8,1.8,0,0,0-1.46.63,2.59,2.59,0,0,0-.54,1.74,2.46,2.46,0,0,0,.54,1.68,1.85,1.85,0,0,0,1.46.62,1.75,1.75,0,0,0,1.43-.6,2.61,2.61,0,0,0,.5-1.72,2.65,2.65,0,0,0-.5-1.74A1.76,1.76,0,0,0,52.74,89.83Z" fill="#1e1e1e"/>
      <path d="M62.12,95.17h-1V91.74c0-1.27-.47-1.91-1.4-1.91a1.53,1.53,0,0,0-1.19.55,2,2,0,0,0-.47,1.36v3.43h-1v-6h1v1h0a2.16,2.16,0,0,1,2-1.13,1.85,1.85,0,0,1,1.51.63,2.84,2.84,0,0,1,.52,1.84Z" fill="#1e1e1e"/>
    </g>
    <g>
      <path d="M15.35,141.17v-8.41h2.32q4.44,0,4.44,4.1A4.14,4.14,0,0,1,20.88,140a4.6,4.6,0,0,1-3.3,1.18Zm1-7.52v6.63h1.25a3.55,3.55,0,0,0,2.57-.89,3.29,3.29,0,0,0,.92-2.51q0-3.23-3.43-3.23Z" fill="#1e1e1e"/>
      <path d="M28.45,138.41H24.21a2.27,2.27,0,0,0,.54,1.54,1.84,1.84,0,0,0,1.42.55,2.93,2.93,0,0,0,1.86-.67v.9a3.43,3.43,0,0,1-2.09.58,2.56,2.56,0,0,1-2-.82,3.37,3.37,0,0,1-.73-2.3,3.29,3.29,0,0,1,.8-2.28,2.53,2.53,0,0,1,2-.88,2.24,2.24,0,0,1,1.82.76,3.17,3.17,0,0,1,.65,2.11Zm-1-.82a2,2,0,0,0-.4-1.29,1.36,1.36,0,0,0-1.1-.47,1.56,1.56,0,0,0-1.15.49,2.25,2.25,0,0,0-.59,1.27Z" fill="#1e1e1e"/>
      <path d="M38.42,141.17h-1v-3.45a2.57,2.57,0,0,0-.31-1.44,1.15,1.15,0,0,0-1-.45,1.29,1.29,0,0,0-1,.57,2.11,2.11,0,0,0-.43,1.34v3.43h-1V137.6c0-1.18-.46-1.77-1.37-1.77a1.27,1.27,0,0,0-1,.53,2.24,2.24,0,0,0-.41,1.38v3.43h-1v-6h1v1h0A2,2,0,0,1,32.75,135a1.71,1.71,0,0,1,1.07.34,1.81,1.81,0,0,1,.63.9,2.13,2.13,0,0,1,2-1.24c1.32,0,2,.81,2,2.44Z" fill="#1e1e1e"/>
      <path d="M44.46,141.17h-1v-.94h0a2,2,0,0,1-1.84,1.08,1.93,1.93,0,0,1-1.4-.48,1.62,1.62,0,0,1-.51-1.26q0-1.68,2-1.95l1.8-.26c0-1-.41-1.53-1.24-1.53a3,3,0,0,0-2,.74v-1a3.68,3.68,0,0,1,2-.56c1.41,0,2.12.74,2.12,2.23Zm-1-3-1.45.2a2.35,2.35,0,0,0-1,.33,1,1,0,0,0-.34.84.92.92,0,0,0,.32.72,1.18,1.18,0,0,0,.83.28A1.55,1.55,0,0,0,43,140a1.81,1.81,0,0,0,.47-1.27Z" fill="#1e1e1e"/>
      <path d="M51.18,141.17h-1v-3.43c0-1.27-.47-1.91-1.4-1.91a1.51,1.51,0,0,0-1.19.55,2,2,0,0,0-.47,1.36v3.43h-1v-6h1v1h0a2.15,2.15,0,0,1,2-1.13,1.85,1.85,0,0,1,1.51.63,2.9,2.9,0,0,1,.52,1.84Z" fill="#1e1e1e"/>
      <path d="M58.11,141.17h-1v-1h0a2.43,2.43,0,0,1-3.88.35,3.31,3.31,0,0,1-.67-2.19,3.62,3.62,0,0,1,.75-2.39,2.45,2.45,0,0,1,2-.89,1.93,1.93,0,0,1,1.8,1h0v-3.72h1Zm-1-2.72v-.88a1.7,1.7,0,0,0-.48-1.23,1.61,1.61,0,0,0-1.22-.51,1.64,1.64,0,0,0-1.38.65,2.79,2.79,0,0,0-.51,1.78,2.51,2.51,0,0,0,.49,1.64,1.57,1.57,0,0,0,1.29.6,1.65,1.65,0,0,0,1.31-.58A2.2,2.2,0,0,0,57.15,138.45Z" fill="#1e1e1e"/>
    </g>
    <g>
      <path d="M29,189.7v3.17h-1v-8.4h2.31a3,3,0,0,1,2.09.66,2.34,2.34,0,0,1,.74,1.85,2.52,2.52,0,0,1-.82,2,3.14,3.14,0,0,1-2.22.77Zm0-4.34v3.44h1a2.28,2.28,0,0,0,1.55-.46,1.65,1.65,0,0,0,.54-1.32c0-1.11-.66-1.66-2-1.66Z" fill="#1e1e1e"/>
      <path d="M37.6,187.84a1.25,1.25,0,0,0-.73-.19,1.23,1.23,0,0,0-1,.58,2.72,2.72,0,0,0-.41,1.58v3.06h-1v-6h1v1.24h0a2.17,2.17,0,0,1,.63-1,1.41,1.41,0,0,1,.94-.35,1.49,1.49,0,0,1,.58.08Z" fill="#1e1e1e"/>
      <path d="M43.48,190.11H39.24a2.28,2.28,0,0,0,.54,1.55,1.87,1.87,0,0,0,1.42.54,3,3,0,0,0,1.86-.66v.9A3.5,3.5,0,0,1,41,193a2.53,2.53,0,0,1-2-.82,3.36,3.36,0,0,1-.73-2.3,3.29,3.29,0,0,1,.8-2.28,2.54,2.54,0,0,1,2-.88,2.24,2.24,0,0,1,1.82.76,3.2,3.2,0,0,1,.65,2.12Zm-1-.81a2,2,0,0,0-.4-1.3,1.36,1.36,0,0,0-1.1-.46,1.52,1.52,0,0,0-1.15.49,2.19,2.19,0,0,0-.59,1.27Z" fill="#1e1e1e"/>
      <path d="M48.07,189.91h-3.2v-.76h3.2Z" fill="#1e1e1e"/>
      <path d="M53.91,192.87H53v-.94h0A2,2,0,0,1,51.08,193a2,2,0,0,1-1.4-.47,1.65,1.65,0,0,1-.51-1.26c0-1.12.66-1.78,2-2l1.8-.25q0-1.53-1.23-1.53a3,3,0,0,0-2,.74v-1a3.76,3.76,0,0,1,2-.56c1.41,0,2.11.75,2.11,2.24Zm-1-3-1.45.2a2.25,2.25,0,0,0-1,.33.93.93,0,0,0-.34.84.89.89,0,0,0,.31.71,1.2,1.2,0,0,0,.84.28,1.53,1.53,0,0,0,1.18-.5,1.77,1.77,0,0,0,.46-1.27Z" fill="#1e1e1e"/>
      <path d="M56.62,192.87h-1V184h1Z" fill="#1e1e1e"/>
      <path d="M59.39,192.87h-1V184h1Z" fill="#1e1e1e"/>
      <path d="M63.79,193a2.79,2.79,0,0,1-2.12-.84,3.11,3.11,0,0,1-.8-2.23,3.25,3.25,0,0,1,.83-2.36,3,3,0,0,1,2.23-.85,2.7,2.7,0,0,1,2.1.83,3.77,3.77,0,0,1-.06,4.59A2.87,2.87,0,0,1,63.79,193Zm.07-5.47a1.83,1.83,0,0,0-1.46.63,2.59,2.59,0,0,0-.54,1.74,2.46,2.46,0,0,0,.54,1.68,1.86,1.86,0,0,0,1.46.61,1.79,1.79,0,0,0,1.44-.6,2.63,2.63,0,0,0,.5-1.72,2.66,2.66,0,0,0-.5-1.73A1.76,1.76,0,0,0,63.86,187.54Z" fill="#1e1e1e"/>
      <path d="M72.41,192.6a3.22,3.22,0,0,1-1.64.41,2.76,2.76,0,0,1-2.08-.83,3.06,3.06,0,0,1-.78-2.17,3.3,3.3,0,0,1,.85-2.38,3,3,0,0,1,2.26-.9,3.24,3.24,0,0,1,1.4.29v1a2.47,2.47,0,0,0-1.43-.47,1.92,1.92,0,0,0-1.51.66,2.52,2.52,0,0,0-.59,1.73,2.36,2.36,0,0,0,.55,1.66,1.91,1.91,0,0,0,1.49.61,2.43,2.43,0,0,0,1.48-.52Z" fill="#1e1e1e"/>
      <path d="M78.2,192.87h-1v-.94h0a2.2,2.2,0,0,1-3.25.61,1.64,1.64,0,0,1-.5-1.26c0-1.12.66-1.78,2-2l1.79-.25q0-1.53-1.23-1.53a3,3,0,0,0-2,.74v-1a3.76,3.76,0,0,1,2-.56c1.41,0,2.12.75,2.12,2.24Zm-1-3-1.44.2a2.3,2.3,0,0,0-1,.33.93.93,0,0,0-.34.84.89.89,0,0,0,.31.71,1.2,1.2,0,0,0,.84.28,1.53,1.53,0,0,0,1.18-.5,1.77,1.77,0,0,0,.46-1.27Z" fill="#1e1e1e"/>
      <path d="M82.71,192.81a1.76,1.76,0,0,1-.89.19c-1,0-1.58-.59-1.58-1.76v-3.55h-1v-.82h1v-1.46l1-.31v1.77h1.51v.82H81.2v3.38a1.37,1.37,0,0,0,.21.86.78.78,0,0,0,.68.26.94.94,0,0,0,.62-.2Z" fill="#1e1e1e"/>
      <path d="M88.72,190.11H84.48a2.28,2.28,0,0,0,.54,1.55,1.87,1.87,0,0,0,1.42.54,3,3,0,0,0,1.86-.66v.9a3.5,3.5,0,0,1-2.09.57,2.52,2.52,0,0,1-2-.82,3.36,3.36,0,0,1-.73-2.3,3.29,3.29,0,0,1,.8-2.28,2.53,2.53,0,0,1,2-.88,2.25,2.25,0,0,1,1.82.76,3.2,3.2,0,0,1,.65,2.12Zm-1-.81a2,2,0,0,0-.4-1.3,1.36,1.36,0,0,0-1.1-.46,1.52,1.52,0,0,0-1.15.49,2.19,2.19,0,0,0-.59,1.27Z" fill="#1e1e1e"/>
      <path d="M95.35,192.87h-1v-1h0A2.21,2.21,0,0,1,92.31,193a2.25,2.25,0,0,1-1.81-.8,3.33,3.33,0,0,1-.68-2.2,3.57,3.57,0,0,1,.75-2.38,2.48,2.48,0,0,1,2-.9,1.93,1.93,0,0,1,1.8,1h0V184h1Zm-1-2.71v-.89a1.73,1.73,0,0,0-.48-1.23,1.62,1.62,0,0,0-1.22-.5,1.66,1.66,0,0,0-1.38.64,2.82,2.82,0,0,0-.5,1.79,2.53,2.53,0,0,0,.48,1.63,1.57,1.57,0,0,0,1.3.6,1.63,1.63,0,0,0,1.3-.58A2.11,2.11,0,0,0,94.39,190.16Z" fill="#1e1e1e"/>
      <path d="M98.15,191.54l-.94,2.88h-.68l.68-2.88Z" fill="#1e1e1e"/>
      <path d="M108,192.87h-1v-1h0a2,2,0,0,1-1.86,1.09c-1.42,0-2.14-.85-2.14-2.55v-3.59h1v3.43c0,1.27.48,1.9,1.45,1.9a1.47,1.47,0,0,0,1.16-.52,2,2,0,0,0,.45-1.35v-3.46h1Z" fill="#1e1e1e"/>
      <path d="M114.81,192.87h-1v-3.42c0-1.27-.47-1.91-1.4-1.91a1.5,1.5,0,0,0-1.19.54,2,2,0,0,0-.47,1.37v3.42h-1v-6h1v1h0a2.16,2.16,0,0,1,2-1.14,1.83,1.83,0,0,1,1.51.64,2.85,2.85,0,0,1,.52,1.83Z" fill="#1e1e1e"/>
      <path d="M121.43,192.87h-1v-1h0a2,2,0,0,1-1.86,1.09c-1.43,0-2.14-.85-2.14-2.55v-3.59h1v3.43c0,1.27.49,1.9,1.46,1.9a1.44,1.44,0,0,0,1.15-.52,1.92,1.92,0,0,0,.46-1.35v-3.46h1Z" fill="#1e1e1e"/>
      <path d="M123,192.65v-1a2.82,2.82,0,0,0,1.73.58q1.26,0,1.26-.84a.76.76,0,0,0-.1-.41,1,1,0,0,0-.3-.29,1.94,1.94,0,0,0-.43-.24l-.54-.21a5.79,5.79,0,0,1-.7-.32,2.22,2.22,0,0,1-.5-.36,1.38,1.38,0,0,1-.31-.46,1.79,1.79,0,0,1-.1-.6,1.4,1.4,0,0,1,.2-.75,1.67,1.67,0,0,1,.51-.55,2.77,2.77,0,0,1,.74-.33,3.56,3.56,0,0,1,2.24.16v1a2.7,2.7,0,0,0-1.52-.43,1.88,1.88,0,0,0-.49.06,1.4,1.4,0,0,0-.37.17,1,1,0,0,0-.24.27.77.77,0,0,0-.08.34,1,1,0,0,0,.08.4,1.07,1.07,0,0,0,.25.28,2.11,2.11,0,0,0,.4.22l.53.22a6.21,6.21,0,0,1,.72.31,2.82,2.82,0,0,1,.54.36,1.57,1.57,0,0,1,.34.47,1.48,1.48,0,0,1,.12.63,1.5,1.5,0,0,1-.2.77,1.58,1.58,0,0,1-.52.54,2.28,2.28,0,0,1-.76.33,3.68,3.68,0,0,1-.89.1A3.39,3.39,0,0,1,123,192.65Z" fill="#1e1e1e"/>
      <path d="M133.21,190.11H129a2.28,2.28,0,0,0,.54,1.55,1.87,1.87,0,0,0,1.42.54,3,3,0,0,0,1.86-.66v.9a3.5,3.5,0,0,1-2.09.57,2.53,2.53,0,0,1-2-.82,3.35,3.35,0,0,1-.72-2.3,3.28,3.28,0,0,1,.79-2.28,2.54,2.54,0,0,1,2-.88,2.24,2.24,0,0,1,1.82.76,3.2,3.2,0,0,1,.65,2.12Zm-1-.81a1.91,1.91,0,0,0-.4-1.3,1.36,1.36,0,0,0-1.1-.46,1.54,1.54,0,0,0-1.15.49,2.19,2.19,0,0,0-.59,1.27Z" fill="#1e1e1e"/>
      <path d="M139.84,192.87h-1v-1h0A2.21,2.21,0,0,1,136.8,193a2.25,2.25,0,0,1-1.81-.8,3.33,3.33,0,0,1-.68-2.2,3.57,3.57,0,0,1,.75-2.38,2.48,2.48,0,0,1,2-.9,1.92,1.92,0,0,1,1.8,1h0V184h1Zm-1-2.71v-.89a1.73,1.73,0,0,0-.48-1.23,1.62,1.62,0,0,0-1.22-.5,1.66,1.66,0,0,0-1.38.64,2.88,2.88,0,0,0-.5,1.79,2.53,2.53,0,0,0,.48,1.63,1.59,1.59,0,0,0,1.3.6,1.63,1.63,0,0,0,1.3-.58A2.11,2.11,0,0,0,138.88,190.16Z" fill="#1e1e1e"/>
      <path d="M144.81,192.53v-1.16a2.5,2.5,0,0,0,.48.32,3.8,3.8,0,0,0,.59.23,3.39,3.39,0,0,0,.61.15,3.09,3.09,0,0,0,.58.06,2.31,2.31,0,0,0,1.36-.34,1.15,1.15,0,0,0,.44-1,1.13,1.13,0,0,0-.15-.59,1.6,1.6,0,0,0-.41-.46,3.91,3.91,0,0,0-.62-.4l-.78-.4c-.29-.15-.57-.3-.82-.45a3.4,3.4,0,0,1-.66-.51,1.95,1.95,0,0,1-.61-1.44,1.93,1.93,0,0,1,.26-1,2.2,2.2,0,0,1,.66-.7,3,3,0,0,1,.93-.41,4.29,4.29,0,0,1,1.07-.13,4.08,4.08,0,0,1,1.81.3v1.1a3.29,3.29,0,0,0-1.91-.51,2.79,2.79,0,0,0-.64.07,1.56,1.56,0,0,0-.58.22,1.38,1.38,0,0,0-.41.39,1.06,1.06,0,0,0-.15.58,1.22,1.22,0,0,0,.12.56,1.28,1.28,0,0,0,.35.43,3.75,3.75,0,0,0,.57.37c.23.13.49.26.78.4s.58.31.85.47a4,4,0,0,1,.71.55,2.36,2.36,0,0,1,.49.66,1.84,1.84,0,0,1,.17.83,2.14,2.14,0,0,1-.24,1.05,2,2,0,0,1-.65.7,2.94,2.94,0,0,1-1,.39,5.22,5.22,0,0,1-1.13.12l-.5,0-.59-.09c-.21,0-.4-.1-.58-.16A1.65,1.65,0,0,1,144.81,192.53Z" fill="#1e1e1e"/>
      <path d="M158.18,192.87H157l-4.33-6.7a2.57,2.57,0,0,1-.27-.52h0a9.28,9.28,0,0,1,0,1.15v6.07h-1v-8.4h1.28l4.2,6.59a5.88,5.88,0,0,1,.34.56h0a8.58,8.58,0,0,1-.06-1.23v-5.92h1Z" fill="#1e1e1e"/>
      <path d="M166.82,192.87h-1.09l-.89-2.35h-3.56l-.84,2.35h-1.09l3.22-8.4h1Zm-2.3-3.24-1.32-3.58a4.87,4.87,0,0,1-.13-.56h0a3.36,3.36,0,0,1-.13.56l-1.31,3.58Z" fill="#1e1e1e"/>
      <path d="M172.18,185.36h-2.43v7.51h-1v-7.51h-2.42v-.89h5.83Z" fill="#1e1e1e"/>
      <path d="M177.64,192h0v3.63h-1v-8.76h1v1.06h0a2.26,2.26,0,0,1,2.07-1.2,2.19,2.19,0,0,1,1.81.81,3.33,3.33,0,0,1,.65,2.16,3.72,3.72,0,0,1-.73,2.41,2.45,2.45,0,0,1-2,.9A2,2,0,0,1,177.64,192Zm0-2.42v.84a1.73,1.73,0,0,0,.49,1.26,1.58,1.58,0,0,0,1.22.52,1.61,1.61,0,0,0,1.37-.66,3.09,3.09,0,0,0,.5-1.86,2.41,2.41,0,0,0-.47-1.57,1.51,1.51,0,0,0-1.25-.57,1.7,1.7,0,0,0-1.35.58A2.15,2.15,0,0,0,177.61,189.58Z" fill="#1e1e1e"/>
      <path d="M186.21,193a2.79,2.79,0,0,1-2.12-.84,3.1,3.1,0,0,1-.79-2.23,3.24,3.24,0,0,1,.82-2.36,3,3,0,0,1,2.23-.85,2.7,2.7,0,0,1,2.1.83,3.77,3.77,0,0,1-.06,4.59A2.87,2.87,0,0,1,186.21,193Zm.07-5.47a1.83,1.83,0,0,0-1.46.63,2.59,2.59,0,0,0-.54,1.74,2.41,2.41,0,0,0,.55,1.68,1.84,1.84,0,0,0,1.45.61,1.77,1.77,0,0,0,1.44-.6,2.63,2.63,0,0,0,.5-1.72,2.66,2.66,0,0,0-.5-1.73A1.75,1.75,0,0,0,186.28,187.54Z" fill="#1e1e1e"/>
      <path d="M193.81,187.84a1.23,1.23,0,0,0-.72-.19,1.21,1.21,0,0,0-1,.58,2.64,2.64,0,0,0-.42,1.58v3.06h-1v-6h1v1.24h0a2.08,2.08,0,0,1,.62-1,1.63,1.63,0,0,1,1.52-.27Z" fill="#1e1e1e"/>
      <path d="M198,192.81a1.82,1.82,0,0,1-.9.19c-1,0-1.58-.59-1.58-1.76v-3.55h-1v-.82h1v-1.46l1-.31v1.77H198v.82h-1.52v3.38a1.37,1.37,0,0,0,.21.86.8.8,0,0,0,.68.26,1,1,0,0,0,.63-.2Z" fill="#1e1e1e"/>
    </g>
    <g>
      <path d="M34.2,205.27q0,3.54-3.19,3.54T28,205.4v-5.14h1v5.08c0,1.72.73,2.58,2.18,2.58s2.11-.83,2.11-2.49v-5.17h1Z" fill="#1e1e1e"/>
      <path d="M35.66,208.45v-1a2.82,2.82,0,0,0,1.73.58q1.26,0,1.26-.84a.68.68,0,0,0-.11-.41,1.17,1.17,0,0,0-.29-.3,2.86,2.86,0,0,0-.43-.23l-.54-.21c-.26-.11-.5-.21-.7-.32a2,2,0,0,1-.5-.37,1.21,1.21,0,0,1-.31-.46,1.57,1.57,0,0,1-.1-.6,1.44,1.44,0,0,1,.19-.75,1.78,1.78,0,0,1,.52-.54,2.21,2.21,0,0,1,.73-.33,3.07,3.07,0,0,1,.86-.11,3.41,3.41,0,0,1,1.39.27v1a2.7,2.7,0,0,0-1.52-.43,1.88,1.88,0,0,0-.49.06,1.26,1.26,0,0,0-.37.17.78.78,0,0,0-.24.27.64.64,0,0,0-.09.34.75.75,0,0,0,.09.39.83.83,0,0,0,.25.28,2.11,2.11,0,0,0,.4.23l.53.21a6,6,0,0,1,.71.32,2,2,0,0,1,.54.36,1.41,1.41,0,0,1,.35.46,1.54,1.54,0,0,1,.12.63,1.51,1.51,0,0,1-.2.78,1.78,1.78,0,0,1-.52.54,2.6,2.6,0,0,1-.76.32,3.76,3.76,0,0,1-.9.11A3.37,3.37,0,0,1,35.66,208.45Z" fill="#1e1e1e"/>
      <path d="M45.91,205.91H41.68a2.16,2.16,0,0,0,.54,1.54,1.82,1.82,0,0,0,1.42.55,2.93,2.93,0,0,0,1.86-.67v.9a3.45,3.45,0,0,1-2.09.58,2.52,2.52,0,0,1-2-.82,3.81,3.81,0,0,1,.07-4.58,2.53,2.53,0,0,1,2-.88,2.25,2.25,0,0,1,1.82.76,3.17,3.17,0,0,1,.64,2.11Zm-1-.82a2,2,0,0,0-.4-1.29,1.36,1.36,0,0,0-1.1-.46,1.55,1.55,0,0,0-1.15.48,2.19,2.19,0,0,0-.59,1.27Z" fill="#1e1e1e"/>
      <path d="M52.55,208.67h-1v-1h0a2.42,2.42,0,0,1-3.87.35,3.3,3.3,0,0,1-.68-2.19,3.62,3.62,0,0,1,.75-2.39,2.5,2.5,0,0,1,2-.89,1.93,1.93,0,0,1,1.8,1h0v-3.72h1Zm-1-2.72v-.88a1.71,1.71,0,0,0-.48-1.23,1.6,1.6,0,0,0-1.22-.5,1.65,1.65,0,0,0-1.38.64,2.79,2.79,0,0,0-.51,1.78,2.56,2.56,0,0,0,.49,1.64,1.57,1.57,0,0,0,1.3.6,1.63,1.63,0,0,0,1.3-.58A2.2,2.2,0,0,0,51.59,206Z" fill="#1e1e1e"/>
      <path d="M57.52,208.33v-1.16a2.21,2.21,0,0,0,.48.31,3,3,0,0,0,.58.24,3.5,3.5,0,0,0,.62.15,3,3,0,0,0,.58,0,2.28,2.28,0,0,0,1.35-.33,1.15,1.15,0,0,0,.45-1,1.16,1.16,0,0,0-.15-.6,1.94,1.94,0,0,0-.41-.46,4.56,4.56,0,0,0-.63-.39l-.77-.41a7,7,0,0,1-.82-.45,3.17,3.17,0,0,1-.66-.5,1.85,1.85,0,0,1-.61-1.44,2,2,0,0,1,.25-1,2.13,2.13,0,0,1,.67-.7,3,3,0,0,1,.93-.41,4.3,4.3,0,0,1,1.07-.14,4.08,4.08,0,0,1,1.81.3v1.11a3.31,3.31,0,0,0-1.91-.52,3.48,3.48,0,0,0-.64.07,2,2,0,0,0-.58.22,1.27,1.27,0,0,0-.41.39,1.1,1.1,0,0,0-.16.59,1.22,1.22,0,0,0,.12.56,1.28,1.28,0,0,0,.36.42,3,3,0,0,0,.57.38l.78.4c.3.15.58.3.85.47a3.59,3.59,0,0,1,.71.54,2.53,2.53,0,0,1,.48.66,1.89,1.89,0,0,1,.18.84,2.14,2.14,0,0,1-.24,1,2,2,0,0,1-.66.7,2.8,2.8,0,0,1-1,.39,5.24,5.24,0,0,1-1.14.12l-.49,0-.6-.1a4.74,4.74,0,0,1-.57-.15A1.83,1.83,0,0,1,57.52,208.33Z" fill="#1e1e1e"/>
      <path d="M70.89,208.67H69.68L65.36,202a2.65,2.65,0,0,1-.27-.53h0a7.27,7.27,0,0,1,0,1.16v6.07h-1v-8.41h1.27l4.21,6.6a5.88,5.88,0,0,1,.34.56h0a11.27,11.27,0,0,1,0-1.24v-5.92h1Z" fill="#1e1e1e"/>
      <path d="M79.53,208.67H78.44l-.89-2.36H74l-.84,2.36h-1.1l3.23-8.41h1Zm-2.3-3.24-1.32-3.58a3.55,3.55,0,0,1-.13-.57h0a3.38,3.38,0,0,1-.14.57l-1.3,3.58Z" fill="#1e1e1e"/>
      <path d="M84.88,201.16H82.46v7.51h-1v-7.51H79.05v-.9h5.83Z" fill="#1e1e1e"/>
      <path d="M90.34,207.8h0v3.63h-1v-8.76h1v1.05h0a2.28,2.28,0,0,1,2.08-1.19,2.23,2.23,0,0,1,1.81.8,3.37,3.37,0,0,1,.65,2.16,3.74,3.74,0,0,1-.73,2.41,2.44,2.44,0,0,1-2,.91A2,2,0,0,1,90.34,207.8Zm0-2.42v.84a1.8,1.8,0,0,0,.48,1.26,1.73,1.73,0,0,0,2.6-.15,3,3,0,0,0,.49-1.86,2.43,2.43,0,0,0-.46-1.57,1.53,1.53,0,0,0-1.25-.56,1.7,1.7,0,0,0-1.35.58A2.13,2.13,0,0,0,90.32,205.38Z" fill="#1e1e1e"/>
      <path d="M98.92,208.81A2.77,2.77,0,0,1,96.8,208a3.12,3.12,0,0,1-.8-2.23,3.23,3.23,0,0,1,.83-2.36,3,3,0,0,1,2.23-.85,2.71,2.71,0,0,1,2.1.82,3.29,3.29,0,0,1,.75,2.29,3.21,3.21,0,0,1-.81,2.3A2.84,2.84,0,0,1,98.92,208.81Zm.07-5.47a1.81,1.81,0,0,0-1.46.63A2.54,2.54,0,0,0,97,205.7a2.46,2.46,0,0,0,.54,1.68A1.87,1.87,0,0,0,99,208a1.75,1.75,0,0,0,1.43-.6,2.61,2.61,0,0,0,.51-1.72,2.65,2.65,0,0,0-.51-1.74A1.75,1.75,0,0,0,99,203.34Z" fill="#1e1e1e"/>
      <path d="M106.52,203.64a1.18,1.18,0,0,0-.73-.19,1.23,1.23,0,0,0-1,.58,2.7,2.7,0,0,0-.41,1.58v3.06h-1v-6h1v1.23h0a2,2,0,0,1,.62-1,1.43,1.43,0,0,1,1-.36,1.65,1.65,0,0,1,.57.08Z" fill="#1e1e1e"/>
      <path d="M110.74,208.61a1.87,1.87,0,0,1-.89.19c-1,0-1.58-.59-1.58-1.76v-3.55h-1v-.82h1V201.2l1-.31v1.78h1.51v.82h-1.51v3.38a1.37,1.37,0,0,0,.21.86.81.81,0,0,0,.68.26,1,1,0,0,0,.62-.2Z" fill="#1e1e1e"/>
    </g>
    <g>
      <path d="M105.51,152.17l-3.11,8.4h-1.08l-3-8.4h1.1l2.32,6.66a3.07,3.07,0,0,1,.17.75h0a3.38,3.38,0,0,1,.19-.76l2.37-6.65Z" fill="#1e1e1e"/>
      <path d="M115.23,160.57h-1v-5.63c0-.45,0-1,.09-1.64h0a4.19,4.19,0,0,1-.25.81l-2.87,6.46h-.48l-2.87-6.41a5.64,5.64,0,0,1-.25-.86h0c0,.34.05.89.05,1.65v5.62h-1v-8.4H108l2.58,5.86a8.52,8.52,0,0,1,.38,1h0c.17-.46.3-.81.4-1l2.63-5.84h1.23Z" fill="#1e1e1e"/>
    </g>
    <g>
      <path d="M161.9,152.17l-3.11,8.4H157.7l-3-8.4h1.09l2.33,6.66a4.4,4.4,0,0,1,.17.75h0a4,4,0,0,1,.19-.76l2.38-6.65Z" fill="#1e1e1e"/>
      <path d="M171.62,160.57h-1v-5.63c0-.45,0-1,.08-1.64h0a4.83,4.83,0,0,1-.26.81l-2.87,6.46h-.48l-2.86-6.41a4.68,4.68,0,0,1-.25-.86h0c0,.34.05.89.05,1.65v5.62h-.95v-8.4h1.3l2.58,5.86a6,6,0,0,1,.38,1h0c.17-.46.3-.81.4-1l2.64-5.84h1.23Z" fill="#1e1e1e"/>
    </g>
    <g>
      <path d="M217.06,152.17l-3.11,8.4h-1.08l-3.05-8.4h1.1l2.32,6.66a3.62,3.62,0,0,1,.17.75h0a3.38,3.38,0,0,1,.19-.76l2.37-6.65Z" fill="#1e1e1e"/>
      <path d="M226.78,160.57h-1v-5.63c0-.45,0-1,.09-1.64h0a5.05,5.05,0,0,1-.25.81l-2.87,6.46h-.48l-2.87-6.41a5.64,5.64,0,0,1-.25-.86h0c0,.34,0,.89,0,1.65v5.62h-.94v-8.4h1.3l2.57,5.86a7.38,7.38,0,0,1,.39,1h0c.16-.46.3-.81.4-1l2.63-5.84h1.23Z" fill="#1e1e1e"/>
    </g>
    <g>
      <path d="M272.09,152.17l-3.12,8.4h-1.08l-3.05-8.4h1.1l2.33,6.66a4.4,4.4,0,0,1,.17.75h0a3.38,3.38,0,0,1,.19-.76l2.37-6.65Z" fill="#1e1e1e"/>
      <path d="M281.8,160.57h-1v-5.63c0-.45,0-1,.08-1.64h0a4.19,4.19,0,0,1-.25.81l-2.87,6.46h-.48l-2.86-6.41a4.54,4.54,0,0,1-.26-.86h0c0,.34.05.89.05,1.65v5.62h-.95v-8.4h1.3l2.58,5.86a7,7,0,0,1,.38,1h0c.17-.46.3-.81.4-1l2.63-5.84h1.23Z" fill="#1e1e1e"/>
    </g>
    <g>
      <path d="M351,16l-2.9,8.4h-2.14L343.06,16h2l1.75,5.84a4.62,4.62,0,0,1,.17.84h0a4.49,4.49,0,0,1,.19-.86L349,16Z" fill="#1e1e1e"/>
      <path d="M352.79,17.42a1.07,1.07,0,0,1-.77-.28.9.9,0,0,1-.3-.68.85.85,0,0,1,.3-.68,1.11,1.11,0,0,1,.77-.27,1.1,1.1,0,0,1,.77.27.85.85,0,0,1,.3.68.89.89,0,0,1-.3.69A1.1,1.1,0,0,1,352.79,17.42Zm.91,7h-1.85v-6h1.85Z" fill="#1e1e1e"/>
      <path d="M359.16,20a1.66,1.66,0,0,0-.78-.18,1.11,1.11,0,0,0-.95.44,1.94,1.94,0,0,0-.34,1.2v2.87h-1.85v-6h1.85v1.11h0a1.6,1.6,0,0,1,1.58-1.22,1.39,1.39,0,0,1,.46.07Z" fill="#1e1e1e"/>
      <path d="M363.91,24.3a2.85,2.85,0,0,1-1.24.21c-1.31,0-2-.67-2-2V19.73h-1V18.37h1v-1.3l1.85-.52v1.82h1.35v1.36h-1.35v2.43c0,.62.25.94.74.94a1.31,1.31,0,0,0,.61-.17Z" fill="#1e1e1e"/>
      <path d="M370.74,24.37H368.9v-.92h0A2.09,2.09,0,0,1,367,24.51c-1.39,0-2.08-.84-2.08-2.52V18.37h1.84v3.45c0,.85.34,1.28,1,1.28a1,1,0,0,0,.8-.35,1.41,1.41,0,0,0,.3-.95V18.37h1.84Z" fill="#1e1e1e"/>
      <path d="M377.31,24.37h-1.75v-.86h0a1.94,1.94,0,0,1-1.78,1,1.88,1.88,0,0,1-1.38-.49,1.79,1.79,0,0,1-.5-1.32c0-1.17.69-1.84,2.07-2l1.63-.21c0-.66-.36-1-1.07-1a3.64,3.64,0,0,0-2,.64V18.73a4.62,4.62,0,0,1,1.06-.36,5.7,5.7,0,0,1,1.22-.15,2.27,2.27,0,0,1,2.57,2.56Zm-1.74-2.44v-.4l-1.09.14c-.6.07-.9.35-.9.81a.67.67,0,0,0,.22.52.84.84,0,0,0,.59.2,1.1,1.1,0,0,0,.85-.36A1.29,1.29,0,0,0,375.57,21.93Z" fill="#1e1e1e"/>
      <path d="M380.63,24.37h-1.86V15.49h1.86Z" fill="#1e1e1e"/>
      <path d="M393.23,24.37h-1.91l-3.46-5.28c-.2-.31-.34-.54-.42-.7h0c0,.3,0,.75,0,1.36v4.62h-1.78V16h2l3.34,5.11q.22.34.42.69h0a9.81,9.81,0,0,1,0-1.16V16h1.78Z" fill="#1e1e1e"/>
      <path d="M400.34,21.9h-3.91c.06.87.61,1.3,1.64,1.3a3.15,3.15,0,0,0,1.74-.47v1.34a4.51,4.51,0,0,1-2.16.44,3,3,0,0,1-2.26-.8,3.08,3.08,0,0,1-.8-2.25,3.23,3.23,0,0,1,.87-2.37,2.9,2.9,0,0,1,2.13-.87,2.62,2.62,0,0,1,2,.78,3,3,0,0,1,.72,2.12Zm-1.72-1.14c0-.86-.34-1.29-1-1.29a1,1,0,0,0-.77.37,1.65,1.65,0,0,0-.4.92Z" fill="#1e1e1e"/>
      <path d="M405.12,24.3a2.85,2.85,0,0,1-1.24.21,1.76,1.76,0,0,1-2-2V19.73h-1V18.37h1v-1.3l1.85-.52v1.82h1.35v1.36h-1.35v2.43c0,.62.25.94.74.94a1.31,1.31,0,0,0,.61-.17Z" fill="#1e1e1e"/>
      <path d="M415.1,18.37l-1.73,6h-1.94l-.89-3.52a3.59,3.59,0,0,1-.1-.77h0a4.91,4.91,0,0,1-.12.75l-1,3.54h-1.92l-1.7-6h1.89l.83,3.91a5.2,5.2,0,0,1,.09.67h0a3.84,3.84,0,0,1,.11-.69l1-3.89h1.76l.93,3.91c0,.1.05.33.08.68h0c0-.22.05-.45.09-.68l.78-3.91Z" fill="#1e1e1e"/>
      <path d="M418.7,24.51a3.24,3.24,0,0,1-2.36-.84,3,3,0,0,1-.85-2.28,3,3,0,0,1,.89-2.33,3.35,3.35,0,0,1,2.41-.84,3.19,3.19,0,0,1,2.34.84,3,3,0,0,1,.85,2.23,3.16,3.16,0,0,1-.88,2.36A3.24,3.24,0,0,1,418.7,24.51Zm.05-4.87a1.23,1.23,0,0,0-1,.45,2,2,0,0,0-.36,1.28c0,1.15.46,1.73,1.39,1.73s1.33-.6,1.33-1.78S419.64,19.64,418.75,19.64Z" fill="#1e1e1e"/>
      <path d="M427.09,20a1.66,1.66,0,0,0-.78-.18,1.11,1.11,0,0,0-.95.44,1.94,1.94,0,0,0-.34,1.2v2.87h-1.85v-6H425v1.11h0a1.6,1.6,0,0,1,1.58-1.22,1.39,1.39,0,0,1,.46.07Z" fill="#1e1e1e"/>
      <path d="M434,24.37h-2.22l-1.92-3h0v3H428V15.49h1.85v5.65h0l1.79-2.77h2.2l-2.15,2.82Z" fill="#1e1e1e"/>
      <path d="M445.71,24.37H443.8l-3.47-5.28c-.2-.31-.34-.54-.42-.7h0c0,.3.05.75.05,1.36v4.62h-1.79V16h2l3.33,5.11q.23.34.42.69h0a9.13,9.13,0,0,1-.05-1.16V16h1.79Z" fill="#1e1e1e"/>
      <path d="M454.94,24.37h-2.06l-.6-1.87h-3l-.59,1.87h-2.05l3.06-8.4H452Zm-3.09-3.32-.9-2.83a3.54,3.54,0,0,1-.15-.75h0a3.16,3.16,0,0,1-.15.73l-.91,2.85Z" fill="#1e1e1e"/>
      <path d="M461,17.51h-2.39v6.86h-1.9V17.51h-2.39V16H461Z" fill="#1e1e1e"/>
    </g>
    <g>
      <path d="M347.51,38.63a3.92,3.92,0,0,1-2.94-1.17,4.24,4.24,0,0,1-1.14-3.07,4.53,4.53,0,0,1,1.16-3.22,4,4,0,0,1,3.06-1.23,3.8,3.8,0,0,1,2.91,1.18,4.33,4.33,0,0,1,1.11,3.1,4.46,4.46,0,0,1-1.16,3.2A3.92,3.92,0,0,1,347.51,38.63Zm.08-7.06a1.9,1.9,0,0,0-1.58.75,3.65,3.65,0,0,0,0,4,2,2,0,0,0,3.09,0,3,3,0,0,0,.57-2,3.27,3.27,0,0,0-.55-2A1.81,1.81,0,0,0,347.59,31.57Z" fill="#3b3b3b"/>
      <path d="M358.73,38.48h-1.85V35.15c0-.93-.33-1.39-1-1.39a1,1,0,0,0-.79.36,1.46,1.46,0,0,0-.31.94v3.42h-1.85v-6h1.85v1h0a2.11,2.11,0,0,1,1.92-1.09c1.33,0,2,.82,2,2.47Z" fill="#3b3b3b"/>
      <path d="M363.37,35.93h-3.2v-1.3h3.2Z" fill="#3b3b3b"/>
      <path d="M370.85,38.48H369v-.82h0a2.08,2.08,0,0,1-1.86,1,2.27,2.27,0,0,1-1.81-.79,3.28,3.28,0,0,1-.69-2.22,3.62,3.62,0,0,1,.76-2.39,2.47,2.47,0,0,1,2-.89,1.69,1.69,0,0,1,1.62.83h0V29.6h1.85ZM369,35.57v-.46a1.45,1.45,0,0,0-.34-1,1.13,1.13,0,0,0-.89-.38,1.12,1.12,0,0,0-1,.48,2.24,2.24,0,0,0-.35,1.33,1.94,1.94,0,0,0,.34,1.21,1.09,1.09,0,0,0,.92.43,1.12,1.12,0,0,0,.92-.45A1.86,1.86,0,0,0,369,35.57Z" fill="#3b3b3b"/>
      <path d="M377.8,36h-3.91c.06.87.61,1.31,1.64,1.31a3.24,3.24,0,0,0,1.74-.47v1.33a4.5,4.5,0,0,1-2.16.45,2.81,2.81,0,0,1-3.06-3.05,3.2,3.2,0,0,1,.87-2.37,2.9,2.9,0,0,1,2.13-.87,2.62,2.62,0,0,1,2,.78,3,3,0,0,1,.72,2.11Zm-1.72-1.14c0-.86-.34-1.28-1-1.28a1,1,0,0,0-.77.36,1.63,1.63,0,0,0-.39.92Z" fill="#3b3b3b"/>
      <path d="M388.51,38.48h-1.85V35.06c0-.87-.32-1.3-1-1.3a.88.88,0,0,0-.74.39,1.56,1.56,0,0,0-.29,1v3.35h-1.85V35c0-.85-.32-1.27-.95-1.27a.88.88,0,0,0-.75.37,1.65,1.65,0,0,0-.29,1v3.33H379v-6h1.85v.94h0a2.25,2.25,0,0,1,.81-.78,2.22,2.22,0,0,1,1.13-.3,1.72,1.72,0,0,1,1.74,1.12,2.22,2.22,0,0,1,2-1.12c1.3,0,2,.8,2,2.41Z" fill="#3b3b3b"/>
      <path d="M395,38.48h-1.75v-.86h0a2,2,0,0,1-1.78,1,1.86,1.86,0,0,1-1.38-.5,1.79,1.79,0,0,1-.5-1.32q0-1.74,2.07-2l1.63-.22c0-.66-.36-1-1.07-1a3.64,3.64,0,0,0-2,.64v-1.4a4.67,4.67,0,0,1,1.06-.35,5.7,5.7,0,0,1,1.22-.15A2.27,2.27,0,0,1,395,34.9Zm-1.74-2.43v-.41l-1.09.14c-.6.08-.9.35-.9.82a.67.67,0,0,0,.22.52.84.84,0,0,0,.59.2,1.1,1.1,0,0,0,.85-.36A1.31,1.31,0,0,0,393.26,36.05Z" fill="#3b3b3b"/>
      <path d="M402.26,38.48h-1.85V35.15c0-.93-.33-1.39-1-1.39a1,1,0,0,0-.79.36,1.4,1.4,0,0,0-.31.94v3.42h-1.86v-6h1.86v1h0a2.11,2.11,0,0,1,1.93-1.09c1.33,0,2,.82,2,2.47Z" fill="#3b3b3b"/>
      <path d="M409.63,38.48h-1.86v-.82h0a2.07,2.07,0,0,1-1.86,1,2.27,2.27,0,0,1-1.81-.79,3.33,3.33,0,0,1-.68-2.22,3.62,3.62,0,0,1,.75-2.39,2.5,2.5,0,0,1,2-.89,1.67,1.67,0,0,1,1.62.83h0V29.6h1.86Zm-1.82-2.91v-.46a1.4,1.4,0,0,0-.34-1,1.21,1.21,0,0,0-1.85.1,2.24,2.24,0,0,0-.34,1.33,1.94,1.94,0,0,0,.33,1.21,1.18,1.18,0,0,0,1.84,0A1.86,1.86,0,0,0,407.81,35.57Z" fill="#3b3b3b"/>
      <path d="M418.23,38.63a3.89,3.89,0,0,1-2.94-1.17,4.24,4.24,0,0,1-1.14-3.07,4.52,4.52,0,0,1,1.15-3.22,4,4,0,0,1,3.06-1.23,3.8,3.8,0,0,1,2.91,1.18,4.33,4.33,0,0,1,1.11,3.1,4.46,4.46,0,0,1-1.15,3.2A4,4,0,0,1,418.23,38.63Zm.08-7.06a1.89,1.89,0,0,0-1.58.75,3.6,3.6,0,0,0,0,4,2,2,0,0,0,3.08,0,3,3,0,0,0,.58-2,3.27,3.27,0,0,0-.56-2A1.8,1.8,0,0,0,418.31,31.57Z" fill="#3b3b3b"/>
      <path d="M429.37,38.48h-1.85v-.91h0a2.08,2.08,0,0,1-1.83,1.06c-1.39,0-2.09-.84-2.09-2.53V32.48h1.85v3.46c0,.85.33,1.27,1,1.27a1,1,0,0,0,.79-.35,1.38,1.38,0,0,0,.3-.94V32.48h1.85Z" fill="#3b3b3b"/>
      <path d="M434.5,38.41a2.7,2.7,0,0,1-1.24.22,1.76,1.76,0,0,1-2-2V33.85h-1V32.48h1V31.19l1.85-.53v1.82h1.35v1.37h-1.35v2.42c0,.63.25.94.74.94a1.2,1.2,0,0,0,.61-.17Z" fill="#3b3b3b"/>
      <path d="M437.54,37.79h0v.69h-1.85V29.6h1.85v3.79h0a2.18,2.18,0,0,1,1.95-1,2.12,2.12,0,0,1,1.78.79,3.45,3.45,0,0,1,.63,2.18,3.71,3.71,0,0,1-.73,2.41,2.38,2.38,0,0,1-2,.91A1.87,1.87,0,0,1,437.54,37.79Zm-.06-2.53v.61a1.36,1.36,0,0,0,.34,1,1,1,0,0,0,.85.38,1.12,1.12,0,0,0,1-.49,2.29,2.29,0,0,0,.35-1.38,1.85,1.85,0,0,0-.32-1.17,1.06,1.06,0,0,0-.91-.41,1.15,1.15,0,0,0-.92.41A1.57,1.57,0,0,0,437.48,35.26Z" fill="#3b3b3b"/>
      <path d="M446,38.63a3.23,3.23,0,0,1-2.36-.84,3.47,3.47,0,0,1,0-4.61,3.38,3.38,0,0,1,2.41-.84,3.2,3.2,0,0,1,2.35.84,3,3,0,0,1,.85,2.22,3.18,3.18,0,0,1-.88,2.36A3.24,3.24,0,0,1,446,38.63Zm.05-4.87a1.23,1.23,0,0,0-1,.45,2,2,0,0,0-.37,1.27c0,1.16.47,1.73,1.4,1.73s1.33-.59,1.33-1.77S447,33.76,446.06,33.76Z" fill="#3b3b3b"/>
      <path d="M456.18,38.48h-1.85v-.91h0a2.09,2.09,0,0,1-1.84,1.06c-1.39,0-2.08-.84-2.08-2.53V32.48h1.84v3.46c0,.85.34,1.27,1,1.27a1,1,0,0,0,.8-.35,1.37,1.37,0,0,0,.29-.94V32.48h1.85Z" fill="#3b3b3b"/>
      <path d="M463.5,38.48h-1.84V35.15c0-.93-.34-1.39-1-1.39a1,1,0,0,0-.79.36,1.4,1.4,0,0,0-.31.94v3.42h-1.85v-6h1.85v1h0a2.12,2.12,0,0,1,1.93-1.09c1.33,0,2,.82,2,2.47Z" fill="#3b3b3b"/>
      <path d="M470.87,38.48H469v-.82h0a2.06,2.06,0,0,1-1.85,1,2.26,2.26,0,0,1-1.81-.79,3.28,3.28,0,0,1-.69-2.22,3.57,3.57,0,0,1,.76-2.39,2.47,2.47,0,0,1,2-.89,1.66,1.66,0,0,1,1.61.83h0V29.6h1.85Zm-1.82-2.91v-.46a1.4,1.4,0,0,0-.34-1,1.1,1.1,0,0,0-.88-.38,1.12,1.12,0,0,0-1,.48,2.24,2.24,0,0,0-.35,1.33,1.94,1.94,0,0,0,.33,1.21,1.19,1.19,0,0,0,1.85,0A1.91,1.91,0,0,0,469.05,35.57Z" fill="#3b3b3b"/>
      <path d="M475.53,38.16V36.29a3.59,3.59,0,0,0,2.32.85,2.9,2.9,0,0,0,.62-.06,1.91,1.91,0,0,0,.45-.18.83.83,0,0,0,.26-.27.67.67,0,0,0,.09-.34.77.77,0,0,0-.14-.44,1.29,1.29,0,0,0-.38-.35,4.44,4.44,0,0,0-.58-.32c-.22-.1-.46-.21-.72-.31a3.76,3.76,0,0,1-1.47-1,2.46,2.46,0,0,1-.22-2.56,2.34,2.34,0,0,1,.72-.78,3.33,3.33,0,0,1,1-.45,5.75,5.75,0,0,1,1.27-.14A8,8,0,0,1,480,30a4.22,4.22,0,0,1,.93.24V32a2.87,2.87,0,0,0-.46-.25,2.82,2.82,0,0,0-.51-.19,4.82,4.82,0,0,0-.52-.11l-.5,0a2.58,2.58,0,0,0-.58.06,1.57,1.57,0,0,0-.45.17,1,1,0,0,0-.28.27.6.6,0,0,0-.1.35.7.7,0,0,0,.11.38,1.19,1.19,0,0,0,.32.31,3.13,3.13,0,0,0,.5.3l.66.29a7.55,7.55,0,0,1,.9.45,3.18,3.18,0,0,1,.69.54,2,2,0,0,1,.44.68,2.4,2.4,0,0,1,.15.89A2.48,2.48,0,0,1,481,37.3a2.18,2.18,0,0,1-.73.78,3.14,3.14,0,0,1-1.06.42,5.91,5.91,0,0,1-1.28.13,7,7,0,0,1-1.32-.12A4,4,0,0,1,475.53,38.16Z" fill="#3b3b3b"/>
      <path d="M490.19,38.48h-1.91l-3.46-5.28a6.88,6.88,0,0,1-.43-.69h0c0,.29.05.75.05,1.36v4.61h-1.79v-8.4h2L488,35.2c.16.23.3.46.43.68h0a8.94,8.94,0,0,1-.05-1.15V30.08h1.79Z" fill="#3b3b3b"/>
      <path d="M499.42,38.48h-2.06l-.6-1.87h-3l-.6,1.87h-2.05l3.06-8.4h2.25Zm-3.09-3.32-.9-2.82a3.69,3.69,0,0,1-.14-.76h-.05a3.06,3.06,0,0,1-.15.73l-.91,2.85Z" fill="#3b3b3b"/>
      <path d="M505.48,31.62h-2.39v6.86h-1.9V31.62H498.8V30.08h6.68Z" fill="#3b3b3b"/>
    </g>
    <g>
      <path d="M328,152.17l-3.11,8.4h-1.08l-3.05-8.4h1.1l2.32,6.66a3.07,3.07,0,0,1,.17.75h0a3.38,3.38,0,0,1,.19-.76l2.37-6.65Z" fill="#1e1e1e"/>
      <path d="M337.73,160.57h-1v-5.63c0-.45,0-1,.09-1.64h0a5.05,5.05,0,0,1-.25.81l-2.87,6.46h-.48l-2.87-6.41a5.64,5.64,0,0,1-.25-.86h0c0,.34.05.89.05,1.65v5.62h-.95v-8.4h1.3L333,158a7.38,7.38,0,0,1,.39,1h0c.16-.46.3-.81.4-1l2.63-5.84h1.23Z" fill="#1e1e1e"/>
    </g>
    <g>
      <path d="M384.4,152.17l-3.11,8.4H380.2l-3-8.4h1.09l2.33,6.66a4.4,4.4,0,0,1,.17.75h0a4,4,0,0,1,.19-.76l2.38-6.65Z" fill="#1e1e1e"/>
      <path d="M394.12,160.57h-1v-5.63c0-.45,0-1,.08-1.64h0a4.83,4.83,0,0,1-.26.81l-2.87,6.46h-.48l-2.86-6.41a4.54,4.54,0,0,1-.26-.86h0c0,.34.05.89.05,1.65v5.62h-.95v-8.4h1.3l2.58,5.86a6,6,0,0,1,.38,1h0c.17-.46.3-.81.4-1l2.63-5.84h1.24Z" fill="#1e1e1e"/>
    </g>
    <g>
      <path d="M439.56,152.17l-3.11,8.4h-1.08l-3.05-8.4h1.1l2.32,6.66a3.62,3.62,0,0,1,.17.75h0a3.38,3.38,0,0,1,.19-.76l2.37-6.65Z" fill="#1e1e1e"/>
      <path d="M449.28,160.57h-1v-5.63c0-.45,0-1,.08-1.64h0a5.05,5.05,0,0,1-.25.81l-2.87,6.46h-.48l-2.87-6.41a5.64,5.64,0,0,1-.25-.86h0c0,.34,0,.89,0,1.65v5.62h-1v-8.4H442l2.57,5.86a7.38,7.38,0,0,1,.39,1h0c.16-.46.3-.81.4-1l2.63-5.84h1.23Z" fill="#1e1e1e"/>
    </g>
    <g>
      <path d="M494.59,152.17l-3.12,8.4h-1.08l-3.05-8.4h1.1l2.33,6.66a4.4,4.4,0,0,1,.17.75h0a3.38,3.38,0,0,1,.19-.76l2.38-6.65Z" fill="#1e1e1e"/>
      <path d="M504.3,160.57h-1v-5.63c0-.45,0-1,.08-1.64h0a4.19,4.19,0,0,1-.25.81l-2.87,6.46h-.48l-2.86-6.41a4.54,4.54,0,0,1-.26-.86h0c0,.34.05.89.05,1.65v5.62h-.95v-8.4H497l2.58,5.86a7,7,0,0,1,.38,1h0c.17-.46.3-.81.4-1l2.63-5.84h1.23Z" fill="#1e1e1e"/>
    </g>
  </g>
</svg>
