<?xml version="1.0" encoding="utf-8"?>
<!-- Generator: Adobe Illustrator 17.0.1, SVG Export Plug-In . SVG Version: 6.00 Build 0)  -->
<!DOCTYPE svg PUBLIC "-//W3C//DTD SVG 1.1//EN" "http://www.w3.org/Graphics/SVG/1.1/DTD/svg11.dtd">
<svg version="1.1" id="Layer_1" xmlns="http://www.w3.org/2000/svg" xmlns:xlink="http://www.w3.org/1999/xlink" x="0px" y="0px"
	 viewBox="0 0 50 50" enable-background="new 0 0 50 50" xml:space="preserve">
<path fill="#7a7a7a" d="M 32.426 38.534 H 18.83 c 1.634 5.768 -0.561 6.595 -10.175 6.595 v 3.02 h 32.692 v -3.02 c -9.614 0 -10.557 -0.824 -8.921 -6.595" />
<path fill="#a0a1a2" d="M 46.98 2 H 2.718 C 1.214 2 0.001 3.345 0.001 4.847 v 30.866 c 0 1.493 1.213 2.823 2.717 2.823 H 46.98 c 1.501 0 3.021 -1.33 3.021 -2.823 V 4.847 C 50.001 3.341 48.481 2 46.98 2" />
<path fill="#fff" opacity="0.2" d="M 47.011 2.003 l -0.031 -0.002 H 2.717 C 1.213 2.001 0 3.345 0 4.848 v 30.865 c 0 1.494 1.213 2.824 2.717 2.824 H 3.77 L 47.011 2.003 Z" />
<path fill="#59b4d9" d="M 46.098 5.848 v 28.841 H 3.79 V 5.848 Z" />
<path fill="#59b4d9" d="M 3.79 34.689 h 0.058 V 5.849 l 38.68 -0.058 h 0.002 l -38.74 0.058 Z" />
<path fill="#a0a1a2" d="M 8.655 45.128 h 32.692 v 3.021 H 8.655 Z" />
<path fill="#b8d432" d="M 25.518 4.095 a 0.71 0.71 0 1 1 -1.42 0 a 0.71 0.71 0 0 1 1.42 0" />
<path fill="#fff" d="M 25.546 19.394 a 0.278 0.278 0 0 1 -0.134 -0.038 l -8.804 -5.082 a 0.267 0.267 0 0 1 0 -0.461 l 8.751 -5.049 a 0.268 0.268 0 0 1 0.263 0 l 8.807 5.084 a 0.264 0.264 0 0 1 0.131 0.23 a 0.262 0.262 0 0 1 -0.131 0.23 l -8.748 5.048 a 0.27 0.27 0 0 1 -0.135 0.038" />
<path fill="#fff" opacity="0.7" d="M 24.281 31.746 a 0.251 0.251 0 0 1 -0.134 -0.036 l -8.778 -5.066 a 0.26 0.26 0 0 1 -0.136 -0.231 V 16.247 c 0 -0.096 0.051 -0.183 0.136 -0.231 a 0.263 0.263 0 0 1 0.268 0 l 8.777 5.064 a 0.28 0.28 0 0 1 0.13 0.233 v 10.166 a 0.272 0.272 0 0 1 -0.13 0.231 a 0.28 0.28 0 0 1 -0.133 0.036" />
<path fill="#fff" opacity="0.4" d="M 26.766 31.746 a 0.287 0.287 0 0 1 -0.138 -0.036 a 0.27 0.27 0 0 1 -0.129 -0.231 V 21.377 c 0 -0.094 0.051 -0.182 0.129 -0.231 l 8.777 -5.064 a 0.26 0.26 0 0 1 0.264 0 a 0.263 0.263 0 0 1 0.135 0.23 v 10.101 a 0.261 0.261 0 0 1 -0.135 0.231 l -8.774 5.066 a 0.236 0.236 0 0 1 -0.129 0.036" />
</svg>
