<?xml version="1.0" encoding="utf-8"?>
<!-- Generator: Adobe Illustrator 17.0.1, SVG Export Plug-In . SVG Version: 6.00 Build 0)  -->
<!DOCTYPE svg PUBLIC "-//W3C//DTD SVG 1.1//EN" "http://www.w3.org/Graphics/SVG/1.1/DTD/svg11.dtd">
<svg version="1.1" id="Layer_1" xmlns="http://www.w3.org/2000/svg" xmlns:xlink="http://www.w3.org/1999/xlink" x="0px" y="0px"
	 viewBox="0 0 50 50" enable-background="new 0 0 50 50" xml:space="preserve">
<path fill-rule="evenodd" clip-rule="evenodd" fill="#7A7A7A" d="M39.1,23.2H10.9c-1.2,0-2.3,1-2.3,2.5v10.7l3.9,1.1V27.1h24.9v10.3
	l3.9-1.1V25.7C41.3,24.2,40.2,23.2,39.1,23.2z"/>
<rect x="23" y="16.4" fill-rule="evenodd" clip-rule="evenodd" fill="#7A7A7A" width="3.9" height="10.4"/>
<path fill-rule="evenodd" clip-rule="evenodd" fill="#59B4D9" d="M31.3,0H18.7c-1.3,0-2.4,1.1-2.4,2.4v11.7c0,1.3,1.1,2.4,2.4,2.4
	h12.5c1.3,0,2.4-1.1,2.4-2.4V2.4C33.7,1.1,32.6,0,31.3,0z"/>
<path fill-rule="evenodd" clip-rule="evenodd" fill="#59B4D9" d="M16.8,33.4H4.3c-1.3,0-2.4,1.1-2.4,2.4v11.7c0,1.3,1.1,2.4,2.4,2.4
	h12.5c1.3,0,2.4-1.1,2.4-2.4V35.8C19.2,34.5,18.1,33.4,16.8,33.4z"/>
<path fill-rule="evenodd" clip-rule="evenodd" fill="#59B4D9" d="M45.7,33.4H33.2c-1.3,0-2.4,1.1-2.4,2.4v11.7
	c0,1.3,1.1,2.4,2.4,2.4h12.5c1.3,0,2.4-1.1,2.4-2.4V35.8C48.2,34.5,47.1,33.4,45.7,33.4z"/>
</svg>
