<svg width="32px" height="32px" enable-background="new 0 0 32 32" version="1.1" viewBox="0 0 32 32" xmlns="http://www.w3.org/2000/svg">
 <rect width="32" height="32" fill="#59b2d9"/>
 <path d="m24.628 8h-17.843v16h18.429v-16zm-0.67016 7.3717h-3.7696c-0.33508-2.0942-2.0942-3.6859-4.2723-3.6859-1.1728 0-2.2618 0.50262-3.0995 1.2565l0.8377 0.8377c0.58639-0.58639 1.3403-0.92147 2.178-0.92147 1.6754 0 3.0995 1.3403 3.0995 3.0995s-1.2565 3.0995-2.9319 3.0995c-0.8377 0-1.5916-0.33508-2.178-0.92147l-0.8377 0.8377c0.8377 0.8377 1.9267 1.2565 3.0995 1.2565 2.178 0 3.9372-1.5916 4.2723-3.6859h3.7696v6.1152h-16.084v-6.1152h6.9529c0.25131 0.33508 0.58639 0.58639 1.089 0.58639 0.67016 0 1.2565-0.58639 1.2565-1.2565 0-0.67016-0.58639-1.2565-1.2565-1.2565-0.41885 0-0.8377 0.25131-1.089 0.58639h-6.9529v-6.0314h16v6.199z" fill="#fff" stroke-width=".8377"/>
</svg>
