<?xml version="1.0" encoding="utf-8"?>
<!-- Generator: Adobe Illustrator 23.0.2, SVG Export Plug-In . SVG Version: 6.00 Build 0)  -->
<svg version="1.1" xmlns="http://www.w3.org/2000/svg" xmlns:xlink="http://www.w3.org/1999/xlink" x="0px" y="0px"
	 viewBox="0 0 657.73 142.32" enable-background="new 0 0 657.73 142.32" xml:space="preserve">
<symbol  id="Deleted_Symbol_6" viewBox="0 -32 32 32">
	<rect y="-10" width="32" height="2"/>
	<rect y="-26" width="32" height="2"/>
	<rect y="-17.99" width="32" height="1.99"/>
	<rect y="-32" fill="none" width="32" height="32"/>
	<rect y="-32" fill="none" width="32" height="32"/>
</symbol>
<symbol  id="Marketplace_store" viewBox="-15.25 -19.25 30.5 38.5">
	<path fill="#0078D7" d="M13.45,9.65l-2.2-1.2l-1,1.2h-2.7v4.9c0,2.8-2.2,4.7-5.3,4.7c-0.5,0-0.9-0.1-1.3-0.1
		c0.6-0.3,1.1-0.8,1.6-1.3c1.9-0.1,3.7-1.1,3.7-3.3v-5h-3.4v4.5c0,2.8-2.2,4.7-5.3,4.7s-5.3-1.9-5.3-4.7v-4.5h-1.2h-5.1l-1.2-26.9
		l24.7-1.8l0,0h0.4l1-0.1l4.4,3.5L13.45,9.65z M-6.55,14.05c0,2.3,2,3.3,3.9,3.3s3.9-1,3.9-3.3v-4.5h-3v4.9c0,0.6,0.2,1.2,0.4,1.6
		c-0.6,0.2-1.1,0.2-1.3,0.2h-0.1c-0.2-0.6-0.4-1.2-0.4-1.8v-4.9h-3.4V14.05z"/>
</symbol>
<symbol  id="Pencil-02" viewBox="0 -16 16 16">
	<polyline fill="none" stroke="#000000" stroke-miterlimit="10" points="14.88,-4.12 4.69,-14.31 0.69,-15.31 1.69,-11.31 
		11.88,-1.12 	"/>
	<path fill="none" stroke="#000000" stroke-miterlimit="10" d="M11.88-1.12c0.83,0.83,2.17,0.83,3,0c0.83-0.83,0.83-2.17,0-3"/>
	<path fill="none" stroke="#000000" stroke-miterlimit="10" d="M4.5-14.5c0,1.66-1.34,3-3,3"/>
	<rect y="-16" fill="none" width="16" height="16"/>
	<line fill="none" stroke="#000000" stroke-miterlimit="10" x1="11" y1="-2" x2="14" y2="-5"/>
</symbol>
<symbol  id="Play-01" viewBox="0 -16 16 16">
	<g>
		<path d="M4-2.92L11.26-8L4-13.08V-2.92 M3-1v-14l10,7L3-1L3-1z"/>
	</g>
	<rect y="-16" fill="none" width="16" height="16"/>
</symbol>
<symbol  id="Repairs_x5F_01" viewBox="6 -32 20 32">
	<g>
		<path fill="#FFFFFF" d="M26-16h-4v8.59l2,2V0h-6v-5.41l2-2V-16h-4v-2h2v-11c0-1.65,1.35-3,3-3s3,1.35,3,3v11h2V-16z M20-2h2v-2.59
			l-1-1l-1,1V-2z M22-29c0-0.55-0.45-1-1-1s-1,0.45-1,1v11h2V-29z"/>
		<path fill="#FFFFFF" d="M11,0C8.24,0,6-2.24,6-5c0-1.56,0.75-3.04,2-3.98V-29c0-1.65,1.35-3,3-3s3,1.35,3,3v20.02
			c1.25,0.94,2,2.42,2,3.98C16-2.24,13.76,0,11,0z M12.5-7.58L12-7.87V-29c0-0.55-0.45-1-1-1s-1,0.45-1,1v21.13L9.5-7.58
			C8.56-7.03,8-6.07,8-5c0,1.3,0.84,2.4,2,2.82V-5l1-1l1,1v2.82C13.16-2.6,14-3.7,14-5C14-6.07,13.44-7.03,12.5-7.58z"/>
	</g>
</symbol>
<symbol  id="Video_x5F_02" viewBox="0 -16 16 16">
	<rect x="0.5" y="-11.5" fill="none" stroke="#101010" stroke-miterlimit="10" width="11" height="7"/>
	<rect y="-16" fill="none" width="16" height="16"/>
	<polygon fill="none" stroke="#101010" stroke-miterlimit="10" points="11.5,-9.25 15.5,-11.25 15.5,-4.75 11.5,-6.75 	"/>
</symbol>
<symbol  id="Virtual_network" viewBox="-19.8 -10.7 39.6 21.4">
	<g>
		<polygon fill="#0078D7" points="19.8,0 17.4,2.4 9.1,10.7 7.7,9.3 17.1,0 7.7,-9.3 9.1,-10.7 17.4,-2.4 		"/>
		<polygon fill="#0078D7" points="-19.8,0 -17.3,2.4 -9.1,10.7 -7.7,9.3 -17.1,0 -7.7,-9.3 -9.1,-10.7 -17.3,-2.4 		"/>
		<path fill="#0078D7" d="M-4.8,0c0-1.3-1.1-2.4-2.4-2.4c-1.4,0-2.4,1.1-2.4,2.4s1.1,2.4,2.4,2.4C-5.8,2.4-4.8,1.3-4.8,0z"/>
		<path fill="#0078D7" d="M0,2.4c1.3,0,2.4-1.1,2.4-2.4S1.3-2.4,0-2.4S-2.4-1.3-2.4,0S-1.3,2.4,0,2.4z"/>
		<path fill="#0078D7" d="M7.2,2.4c1.3,0,2.4-1.1,2.4-2.4S8.5-2.4,7.2-2.4C5.8-2.4,4.8-1.3,4.8,0S5.8,2.4,7.2,2.4z"/>
	</g>
</symbol>
<symbol  id="W10_x5F_CheckboxIndeterminate_x5F_16" viewBox="-4 -4 8 8">
	<rect x="-4" y="-4" width="8" height="8"/>
</symbol>
<symbol  id="W10_x5F_Checkbox_x5F_16" viewBox="-8 -8 16 16">
	<g>
		<path d="M7,7V-7H-7V7H7 M8,8H-8V-8H8V8L8,8z"/>
	</g>
</symbol>
<symbol  id="W10_x5F_Undo" viewBox="-5.91 -7.91 11.82 15.82">
	<path fill="none" stroke="#FFFFFF" stroke-miterlimit="10" d="M-2.56-7.56l6.53,6.53c1.91,1.91,1.91,5.02,0,6.93L3.91,5.98
		c-1.91,1.91-5.02,1.91-6.93,0l-2.54-2.53"/>
</symbol>
<symbol  id="gripper_x5F_16" viewBox="0 -16 16 16">
	<polygon fill="none" stroke="#231F20" stroke-miterlimit="10" points="9.5,-15.5 15.5,-9.5 15.5,-15.5 	"/>
	<rect y="-16" fill="none" width="16" height="16"/>
</symbol>
<symbol  id="smallbox_x5F_32" viewBox="0 -32 32 32">
	<rect x="8" y="-24" width="16" height="16"/>
	<rect y="-32" fill="none" width="32" height="32"/>
</symbol>
<symbol  id="unlock" viewBox="0 -16 16 16">
	<rect x="2.5" y="-15.5" fill="none" stroke="#000000" stroke-miterlimit="10" width="11" height="8"/>
	<rect y="-16" fill="none" width="16" height="16"/>
	<path d="M8,0C5.72,0,4-1.74,4-4h1c0,1.71,1.29,3,3,3s3-1.29,3-3v-3H6v-1h6v4C12-1.74,10.28,0,8,0z"/>
</symbol>
<g id="Shapes">
	<rect fill="#FFFFFF" width="657.73" height="142.32"/>
	<g id="Wrench_tool_x28_s_x29_">
	</g>
	<g id="user2">
	</g>
	<g id="user2_1_">
	</g>
	<g id="user2_4_">
	</g>
	<g id="user2_3_">
	</g>
	<g id="user2_2_">
	</g>
	<g id="Internet_2">
	</g>
	<g id="Enterprise">
	</g>
	<g id="Tunnel__x28_stackable_x29_">
	</g>
	<g id="New_Symbol">
	</g>
	<g id="New_Symbol_1">
	</g>
	<g id="Files">
	</g>
	<g id="BlobBlock">
	</g>
	<g id="E_x5F_Enterprise">
	</g>
	<g id="E_x5F_AD_FS">
	</g>
	<g id="C_x5F_Azure_Active_Directory">
	</g>
	<g>
		<rect x="389.43" y="7.32" fill="#FFFFFF" width="125.3" height="35"/>
		<rect x="389.43" y="7.32" opacity="0.4" fill="#FFB900" width="125.3" height="35"/>
	</g>
	<g>
		<polygon fill="#FFFFFF" points="415.44,35.68 415.44,26.85 415.44,26.85 415.44,25.66 420.71,25.66 409.35,13.96 398,25.66 
			403.27,25.66 403.27,26.95 403.27,26.95 403.27,35.68 		"/>
		<polygon fill="#B22025" points="415.44,35.68 415.44,26.85 415.44,26.85 415.44,25.66 420.71,25.66 409.35,13.96 398,25.66 
			403.27,25.66 403.27,26.95 403.27,26.95 403.27,35.68 		"/>
		<polygon fill="none" stroke="#FFFFFF" stroke-width="2" stroke-linecap="round" stroke-linejoin="round" points="415.44,35.68 
			415.44,26.85 415.44,26.85 415.44,25.66 420.71,25.66 409.35,13.96 398,25.66 403.27,25.66 403.27,26.95 403.27,26.95 
			403.27,35.68 		"/>
	</g>
	<g>
		<polygon fill="#FFFFFF" points="367.71,32.04 376.53,32.04 376.53,32.04 377.73,32.04 377.73,37.32 389.43,25.96 377.73,14.6 
			377.73,19.87 376.44,19.87 376.44,19.87 367.71,19.87 		"/>
		<polygon fill="#3C3C41" points="367.71,32.04 376.53,32.04 376.53,32.04 377.73,32.04 377.73,37.32 389.43,25.96 377.73,14.6 
			377.73,19.87 376.44,19.87 376.44,19.87 367.71,19.87 		"/>
		<polygon fill="none" stroke="#FFFFFF" stroke-width="2" stroke-linecap="round" stroke-linejoin="round" points="367.71,32.04 
			376.53,32.04 376.53,32.04 377.73,32.04 377.73,37.32 389.43,25.96 377.73,14.6 377.73,19.87 376.44,19.87 376.44,19.87 
			367.71,19.87 		"/>
	</g>
	<g>
		<polygon fill="#FFFFFF" points="367.71,87.04 376.53,87.04 376.53,87.04 377.73,87.04 377.73,92.32 389.43,80.96 377.73,69.6 
			377.73,74.87 376.44,74.87 376.44,74.87 367.71,74.87 		"/>
		<polygon fill="#3C3C41" points="367.71,87.04 376.53,87.04 376.53,87.04 377.73,87.04 377.73,92.32 389.43,80.96 377.73,69.6 
			377.73,74.87 376.44,74.87 376.44,74.87 367.71,74.87 		"/>
		<polygon fill="none" stroke="#FFFFFF" stroke-width="2" stroke-linecap="round" stroke-linejoin="round" points="367.71,87.04 
			376.53,87.04 376.53,87.04 377.73,87.04 377.73,92.32 389.43,80.96 377.73,69.6 377.73,74.87 376.44,74.87 376.44,74.87 
			367.71,74.87 		"/>
	</g>
	<g>
		<polygon fill="#FFFFFF" points="514.73,79.76 523.55,79.76 523.55,79.76 524.74,79.76 524.74,85.04 536.44,73.68 524.74,62.32 
			524.74,67.59 523.46,67.59 523.46,67.59 514.73,67.59 		"/>
		<polygon fill="#3C3C41" points="514.73,79.76 523.55,79.76 523.55,79.76 524.74,79.76 524.74,85.04 536.44,73.68 524.74,62.32 
			524.74,67.59 523.46,67.59 523.46,67.59 514.73,67.59 		"/>
		<polygon fill="none" stroke="#FFFFFF" stroke-width="2" stroke-linecap="round" stroke-linejoin="round" points="514.73,79.76 
			523.55,79.76 523.55,79.76 524.74,79.76 524.74,85.04 536.44,73.68 524.74,62.32 524.74,67.59 523.46,67.59 523.46,67.59 
			514.73,67.59 		"/>
	</g>
	<g>
		<polygon fill="#FFFFFF" points="514.73,131.76 523.55,131.76 523.55,131.76 524.74,131.76 524.74,137.04 536.44,125.68 
			524.74,114.32 524.74,119.59 523.46,119.59 523.46,119.59 514.73,119.59 		"/>
		<polygon fill="#3C3C41" points="514.73,131.76 523.55,131.76 523.55,131.76 524.74,131.76 524.74,137.04 536.44,125.68 
			524.74,114.32 524.74,119.59 523.46,119.59 523.46,119.59 514.73,119.59 		"/>
		<polygon fill="none" stroke="#FFFFFF" stroke-width="2" stroke-linecap="round" stroke-linejoin="round" points="514.73,131.76 
			523.55,131.76 523.55,131.76 524.74,131.76 524.74,137.04 536.44,125.68 524.74,114.32 524.74,119.59 523.46,119.59 
			523.46,119.59 514.73,119.59 		"/>
	</g>
	<g>
		<rect x="536.73" y="57.32" opacity="0.08" fill="#FFFFFF" width="121" height="35"/>
		<rect x="536.73" y="57.32" opacity="0.15" fill="#0072C6" width="121" height="35"/>
	</g>
	<g>
		<rect x="536.73" y="107.32" opacity="0.08" fill="#FFFFFF" width="121" height="35"/>
		<rect x="536.73" y="107.32" opacity="0.15" fill="#0072C6" width="121" height="35"/>
	</g>
	<g>
		<g id="Layer_1-2_2_">
			<path fill="#020202" d="M572.65,84.36h-0.59v-1.19h0.59c1.26,0,2.29-1.02,2.29-2.29v-12.1c0-1.26-1.02-2.29-2.29-2.29H550.2
				c-1.26,0-2.29,1.02-2.29,2.29v12.11c0,1.26,1.02,2.29,2.29,2.29h0.59v1.19h-0.59c-1.92,0-3.47-1.56-3.47-3.47V68.78
				c0-1.91,1.55-3.46,3.47-3.47h22.46c1.91,0,3.46,1.55,3.47,3.47v12.11C576.12,82.81,574.57,84.36,572.65,84.36"/>
			<path fill="#020202" d="M553.84,87.32c-0.89,0-1.61-0.72-1.61-1.61V82c0-0.89,0.72-1.61,1.61-1.61c0,0,0,0,0,0l0,0
				c0.89,0,1.61,0.72,1.61,1.61v3.71C555.45,86.6,554.73,87.32,553.84,87.32C553.84,87.32,553.84,87.32,553.84,87.32z"/>
			<path fill="#020202" d="M558.9,87.32c-0.89,0-1.61-0.72-1.61-1.61v-9.52c0-0.89,0.72-1.61,1.61-1.61c0.89,0,1.61,0.72,1.61,1.61
				v9.52C560.51,86.6,559.79,87.32,558.9,87.32L558.9,87.32"/>
			<path fill="#020202" d="M569.01,87.27c-0.89,0-1.61-0.72-1.61-1.61V72.18c0-0.89,0.72-1.61,1.61-1.61s1.61,0.72,1.61,1.61v13.49
				C570.63,86.55,569.9,87.27,569.01,87.27L569.01,87.27"/>
			<path fill="#020202" d="M563.95,87.32c-0.89,0-1.61-0.72-1.61-1.61v-7.07c0-0.89,0.72-1.61,1.61-1.61c0.89,0,1.61,0.72,1.61,1.61
				v7.07C565.56,86.6,564.84,87.32,563.95,87.32"/>
		</g>
	</g>
	<g>
		<rect x="546.73" y="113.32" fill-opacity="0" width="35" height="22"/>
		<rect x="546.73" y="113.32" fill-opacity="0" width="35" height="22"/>
		<path fill="#0078D4" d="M581.73,113.32h-35v22h35V113.32z"/>
		<path d="M552.26,113.32h-5.53v22h5.53V113.32z"/>
		<path d="M581.73,113.32h-35v1.83h35V113.32z"/>
		<path fill="#FFFFFF" d="M564.23,116.98h-8.29v9.15h8.29V116.98z"/>
		<path fill="#FFFFFF" d="M573.44,116.98h-8.29v9.15h8.29V116.98z"/>
		<path fill="#FFFFFF" d="M564.23,127.07h-8.29v4.58h8.29V127.07z"/>
		<path d="M570.38,123.38l3.06,2.21l3.05,2.21l-2.77,0.81l-1.91,2.15l-0.71-3.69L570.38,123.38z"/>
	</g>
	<g>
		<rect x="230.71" y="7.32" opacity="0.08" fill="#FFFFFF" width="135" height="105"/>
		<rect x="230.71" y="7.32" opacity="0.15" fill="#0072C6" width="135" height="105"/>
	</g>
	<g>
		<rect x="240.71" y="67.32" fill="#FFFFFF" width="115" height="35"/>
		<rect x="240.71" y="67.32" fill="#50E6FF" width="115" height="35"/>
	</g>
	<g>
		<path fill-rule="evenodd" clip-rule="evenodd" fill="#0063B1" d="M235.71,16.5v-2.16h25.41v2.16H235.71z M235.71,22.44v-2.16
			h25.41v2.16H235.71z M239.5,28.39v-2.16h25.41v2.16H239.5z M235.71,34.33v-2.16h25.41v2.16H235.71z"/>
	</g>
	<g>
		<rect x="389.65" y="57.32" opacity="0.08" fill="#FFFFFF" width="125" height="85"/>
		<rect x="389.65" y="57.32" opacity="0.15" fill="#0072C6" width="125" height="85"/>
	</g>
	<g>
		<path fill="#A0A1A2" d="M434.71,125.99c0,0.7,0.56,1.33,1.26,1.33h32.3c0.7,0,1.33-0.56,1.33-1.33V102.9h-34.88V125.99z"/>
		<path fill="#7A7A7A" d="M468.27,97.39h-32.3c-0.7,0-1.26,0.63-1.26,1.33v4.19h34.88v-4.19c0-0.7-0.56-1.12-1.33-1.12"/>
		<rect x="437.5" y="112.32" fill="#B8D432" width="29.3" height="4.88"/>
		<rect x="437.5" y="104.99" fill="#FFFFFF" width="29.3" height="4.88"/>
		<rect x="437.5" y="119.64" fill="#B8D432" width="29.3" height="4.88"/>
		<path opacity="0.2" fill="#FFFFFF" enable-background="new    " d="M436.11,97.32c-0.77,0-1.4,0.63-1.4,1.4v5.09v2.3v19.53
			c0,0.77,0.63,1.4,1.4,1.4h1.53l27.49-29.72H436.11z"/>
	</g>
	<g>
		<polygon fill="#FFFFFF" points="75.29,65.79 112.11,65.79 112.11,65.79 113.3,65.79 113.3,71.06 125,59.7 113.3,48.34 
			113.3,53.62 112.01,53.62 112.01,53.62 75.29,53.62 		"/>
		<polygon fill="#3C3C41" points="75.29,65.79 112.11,65.79 112.11,65.79 113.3,65.79 113.3,71.06 125,59.7 113.3,48.34 
			113.3,53.62 112.01,53.62 112.01,53.62 75.29,53.62 		"/>
		<polygon fill="none" stroke="#FFFFFF" stroke-width="2" stroke-linecap="round" stroke-linejoin="round" points="75.29,65.79 
			112.11,65.79 112.11,65.79 113.3,65.79 113.3,71.06 125,59.7 113.3,48.34 113.3,53.62 112.01,53.62 112.01,53.62 75.29,53.62 		
			"/>
	</g>
	<g>
		<polygon fill="#FFFFFF" points="180,65.79 216.82,65.79 216.82,65.79 218.01,65.79 218.01,71.06 229.71,59.7 218.01,48.34 
			218.01,53.62 216.73,53.62 216.73,53.62 180,53.62 		"/>
		<polygon fill="#3C3C41" points="180,65.79 216.82,65.79 216.82,65.79 218.01,65.79 218.01,71.06 229.71,59.7 218.01,48.34 
			218.01,53.62 216.73,53.62 216.73,53.62 180,53.62 		"/>
		<polygon fill="none" stroke="#FFFFFF" stroke-width="2" stroke-linecap="round" stroke-linejoin="round" points="180,65.79 
			216.82,65.79 216.82,65.79 218.01,65.79 218.01,71.06 229.71,59.7 218.01,48.34 218.01,53.62 216.73,53.62 216.73,53.62 
			180,53.62 		"/>
	</g>
	<g>
		<path fill="#A0A1A2" d="M126.92,79.3c0,1,0.8,1.9,1.8,1.9h46.3c1,0,1.9-0.8,1.9-1.9V46.2h-50V79.3z"/>
		<path fill="#7A7A7A" d="M175.02,38.3h-46.3c-1,0-1.8,0.9-1.8,1.9v6h50v-6c0-1-0.8-1.6-1.9-1.6"/>
		<rect x="130.92" y="59.7" fill="#B8D432" width="42" height="7"/>
		<rect x="130.92" y="49.2" fill="#FFFFFF" width="42" height="7"/>
		<rect x="130.92" y="70.2" fill="#B8D432" width="42" height="7"/>
		<path opacity="0.2" fill="#FFFFFF" enable-background="new    " d="M128.92,38.2c-1.1,0-2,0.9-2,2v7.3v3.3v28c0,1.1,0.9,2,2,2h2.2
			l39.4-42.6H128.92z"/>
	</g>
	<g>
		<path d="M64.21,61.15h-8.68V87.2h8.68V61.15z"/>
		<path fill="#50E6FF" d="M42.5,32.2C27.31,32.2,15,44.52,15,59.7h5.79c0-5.8,2.26-11.25,6.36-15.35c4.1-4.1,9.55-6.36,15.35-6.36
			s11.25,2.26,15.35,6.36c4.1,4.1,6.36,9.55,6.36,15.35H70C70,44.52,57.69,32.2,42.5,32.2z"/>
		<path fill="#0078D4" d="M55.53,46.68H29.47V87.2h26.05V46.68z"/>
		<path fill="#FFFFFF" d="M39.61,62.6H22.24v23.16h17.37V62.6z"/>
		<path fill="#50E6FF" d="M38.16,64.05v20.26H23.68V64.05H38.16L38.16,64.05z M41.05,61.15H20.79V87.2h20.26V61.15z"/>
		<path fill="#50E6FF" d="M35.26,66.94h-8.68v2.89h8.68V66.94z"/>
		<path fill="#50E6FF" d="M35.26,72.73h-8.68v2.89h8.68V72.73z"/>
		<path fill="#50E6FF" d="M35.26,78.52h-8.68v2.89h8.68V78.52z"/>
		<path fill="#FFFFFF" d="M41.05,52.47h-5.79v5.79h5.79V52.47z"/>
		<path fill="#FFFFFF" d="M49.74,52.47h-5.79v5.79h5.79V52.47z"/>
		<path fill="#FFFFFF" d="M49.74,61.15h-5.79v5.79h5.79V61.15z"/>
		<path fill="#FFFFFF" d="M49.74,69.84h-5.79v5.79h5.79V69.84z"/>
		<path fill="#FFFFFF" d="M49.74,78.52h-5.79v5.79h5.79V78.52z"/>
		<path fill="#FFFFFF" d="M64.21,81.41c1.6,0,2.89-1.3,2.89-2.89c0-1.6-1.3-2.89-2.89-2.89c-1.6,0-2.89,1.3-2.89,2.89
			C61.32,80.12,62.61,81.41,64.21,81.41z"/>
		<path fill="#0078D4" d="M68.55,78.52c0-2.39-1.95-4.34-4.34-4.34c-2.39,0-4.34,1.95-4.34,4.34c0,1.89,1.21,3.49,2.89,4.09v4.59
			h2.89v-4.59C67.35,82.01,68.55,80.4,68.55,78.52z M64.21,79.97c-0.8,0-1.45-0.65-1.45-1.45s0.65-1.45,1.45-1.45
			c0.8,0,1.45,0.65,1.45,1.45S65.01,79.97,64.21,79.97z"/>
	</g>
</g>
<g id="Text">
	<g id="Windows_Server_New">
	</g>
	<g>
		<path fill="#1E1E1E" d="M431.62,28.38h-4.45v-8.4h4.27v0.89h-3.28v2.79h3.04v0.88h-3.04v2.94h3.47V28.38z"/>
		<path fill="#1E1E1E" d="M432.74,28.17v-1.03c0.52,0.39,1.1,0.58,1.73,0.58c0.84,0,1.27-0.28,1.27-0.84c0-0.16-0.04-0.3-0.11-0.41
			s-0.17-0.21-0.29-0.3s-0.27-0.16-0.43-0.23s-0.34-0.14-0.54-0.21c-0.27-0.11-0.5-0.21-0.7-0.32s-0.37-0.23-0.5-0.36
			s-0.24-0.29-0.3-0.46s-0.1-0.37-0.1-0.6c0-0.28,0.06-0.53,0.19-0.75s0.3-0.4,0.52-0.54s0.46-0.26,0.74-0.33s0.56-0.11,0.85-0.11
			c0.52,0,0.98,0.09,1.39,0.27v0.97c-0.44-0.29-0.95-0.43-1.52-0.43c-0.18,0-0.34,0.02-0.49,0.06s-0.27,0.1-0.37,0.17
			s-0.18,0.16-0.24,0.27s-0.08,0.22-0.08,0.34c0,0.16,0.03,0.29,0.08,0.39s0.14,0.2,0.25,0.28s0.24,0.16,0.4,0.22
			s0.33,0.14,0.53,0.22c0.27,0.1,0.5,0.21,0.71,0.31s0.39,0.23,0.54,0.36s0.26,0.29,0.34,0.47s0.12,0.38,0.12,0.63
			c0,0.3-0.07,0.55-0.2,0.77s-0.31,0.4-0.52,0.54s-0.47,0.25-0.76,0.32s-0.58,0.11-0.9,0.11C433.73,28.53,433.19,28.41,432.74,28.17
			z"/>
		<path fill="#1E1E1E" d="M442.27,28.11c-0.46,0.28-1.01,0.42-1.64,0.42c-0.86,0-1.55-0.28-2.07-0.83s-0.79-1.28-0.79-2.17
			c0-0.99,0.28-1.78,0.85-2.38s1.32-0.9,2.27-0.9c0.53,0,0.99,0.1,1.39,0.29v0.98c-0.45-0.31-0.92-0.47-1.43-0.47
			c-0.61,0-1.12,0.22-1.51,0.66s-0.59,1.02-0.59,1.73c0,0.7,0.18,1.26,0.55,1.66s0.86,0.61,1.49,0.61c0.52,0,1.02-0.17,1.48-0.52
			V28.11z"/>
		<path fill="#1E1E1E" d="M448.06,28.38h-0.96v-0.94h-0.02c-0.42,0.72-1.03,1.08-1.85,1.08c-0.6,0-1.07-0.16-1.4-0.47
			s-0.51-0.74-0.51-1.26c0-1.12,0.66-1.77,1.98-1.96l1.8-0.25c0-1.02-0.41-1.53-1.24-1.53c-0.72,0-1.38,0.25-1.96,0.74v-0.98
			c0.59-0.38,1.27-0.56,2.04-0.56c1.41,0,2.12,0.75,2.12,2.24V28.38z M447.1,25.35l-1.45,0.2c-0.45,0.06-0.78,0.17-1.01,0.33
			s-0.34,0.44-0.34,0.84c0,0.29,0.1,0.53,0.31,0.72s0.49,0.28,0.83,0.28c0.48,0,0.87-0.17,1.18-0.5s0.47-0.76,0.47-1.27V25.35z"/>
		<path fill="#1E1E1E" d="M450.76,28.38h-0.96V19.5h0.96V28.38z"/>
		<path fill="#1E1E1E" d="M456.91,28.38h-0.96v-0.94h-0.02c-0.42,0.72-1.03,1.08-1.85,1.08c-0.6,0-1.07-0.16-1.4-0.47
			s-0.51-0.74-0.51-1.26c0-1.12,0.66-1.77,1.98-1.96l1.8-0.25c0-1.02-0.41-1.53-1.24-1.53c-0.72,0-1.38,0.25-1.96,0.74v-0.98
			c0.59-0.38,1.27-0.56,2.04-0.56c1.41,0,2.12,0.75,2.12,2.24V28.38z M455.95,25.35l-1.45,0.2c-0.45,0.06-0.78,0.17-1.01,0.33
			s-0.34,0.44-0.34,0.84c0,0.29,0.1,0.53,0.31,0.72s0.49,0.28,0.83,0.28c0.48,0,0.87-0.17,1.18-0.5s0.47-0.76,0.47-1.27V25.35z"/>
		<path fill="#1E1E1E" d="M461.42,28.33c-0.23,0.13-0.53,0.19-0.9,0.19c-1.05,0-1.58-0.59-1.58-1.76v-3.55h-1.03v-0.82h1.03v-1.46
			l0.96-0.31v1.78h1.51v0.82h-1.51v3.38c0,0.4,0.07,0.69,0.21,0.86s0.36,0.26,0.68,0.26c0.24,0,0.45-0.07,0.63-0.2V28.33z"/>
		<path fill="#1E1E1E" d="M463.11,20.86c-0.17,0-0.32-0.06-0.44-0.18s-0.18-0.27-0.18-0.45s0.06-0.33,0.18-0.45s0.27-0.18,0.44-0.18
			c0.18,0,0.33,0.06,0.45,0.18s0.18,0.27,0.18,0.45c0,0.17-0.06,0.32-0.18,0.44S463.28,20.86,463.11,20.86z M463.58,28.38h-0.96v-6
			h0.96V28.38z"/>
		<path fill="#1E1E1E" d="M467.95,28.53c-0.89,0-1.59-0.28-2.12-0.84s-0.79-1.3-0.79-2.23c0-1.01,0.28-1.79,0.83-2.36
			s1.29-0.85,2.23-0.85c0.89,0,1.59,0.28,2.09,0.83s0.75,1.31,0.75,2.29c0,0.96-0.27,1.72-0.81,2.3S468.86,28.53,467.95,28.53z
			 M468.02,23.05c-0.62,0-1.11,0.21-1.46,0.63s-0.54,1-0.54,1.74c0,0.71,0.18,1.27,0.54,1.68s0.85,0.62,1.46,0.62
			c0.62,0,1.1-0.2,1.43-0.6s0.5-0.97,0.5-1.72c0-0.75-0.17-1.33-0.5-1.73S468.64,23.05,468.02,23.05z"/>
		<path fill="#1E1E1E" d="M477.4,28.38h-0.96v-3.42c0-1.27-0.46-1.91-1.39-1.91c-0.48,0-0.88,0.18-1.19,0.54s-0.47,0.82-0.47,1.37
			v3.42h-0.96v-6h0.96v1h0.02c0.45-0.76,1.11-1.14,1.97-1.14c0.66,0,1.16,0.21,1.51,0.64s0.52,1.04,0.52,1.84V28.38z"/>
	</g>
	<g>
		<g>
			<path d="M419.22,74.37h-2.06l-0.6-1.87h-2.99l-0.59,1.87h-2.05l3.06-8.4h2.24L419.22,74.37z M416.13,71.05l-0.9-2.82
				c-0.07-0.21-0.11-0.46-0.14-0.76h-0.05c-0.02,0.25-0.07,0.49-0.15,0.73l-0.91,2.85H416.13z"/>
			<path d="M424.84,74.37h-5.38v-0.77l3.01-3.87h-2.71v-1.37h5.06v0.91l-2.85,3.72h2.88V74.37z"/>
			<path d="M431.54,74.37h-1.85v-0.91h-0.03c-0.46,0.71-1.07,1.06-1.83,1.06c-1.39,0-2.09-0.84-2.09-2.53v-3.62h1.85v3.46
				c0,0.85,0.34,1.27,1.01,1.27c0.33,0,0.6-0.12,0.8-0.35s0.3-0.55,0.3-0.95v-3.43h1.85V74.37z"/>
			<path d="M437.01,70.04c-0.22-0.12-0.48-0.18-0.78-0.18c-0.4,0-0.72,0.15-0.94,0.44s-0.34,0.7-0.34,1.2v2.87h-1.85v-6h1.85v1.11
				h0.02c0.29-0.81,0.82-1.22,1.58-1.22c0.2,0,0.35,0.02,0.46,0.07V70.04z"/>
			<path d="M443.22,71.9h-3.91c0.06,0.87,0.61,1.31,1.65,1.31c0.66,0,1.24-0.16,1.74-0.47v1.34c-0.55,0.3-1.28,0.45-2.16,0.45
				c-0.97,0-1.72-0.27-2.26-0.81s-0.8-1.29-0.8-2.25c0-1,0.29-1.79,0.87-2.37s1.29-0.87,2.13-0.87c0.88,0,1.55,0.26,2.03,0.78
				s0.72,1.22,0.72,2.12V71.9z M441.5,70.76c0-0.86-0.35-1.29-1.04-1.29c-0.3,0-0.55,0.12-0.77,0.37s-0.35,0.55-0.4,0.92H441.5z"/>
			<path d="M447.42,74.05v-1.88c0.34,0.29,0.71,0.5,1.11,0.64s0.8,0.21,1.21,0.21c0.24,0,0.45-0.02,0.62-0.06s0.33-0.1,0.45-0.18
				s0.21-0.17,0.27-0.27s0.09-0.22,0.09-0.34c0-0.16-0.05-0.31-0.14-0.44s-0.22-0.25-0.38-0.36s-0.35-0.21-0.58-0.32
				s-0.46-0.21-0.72-0.31c-0.66-0.27-1.15-0.61-1.47-1s-0.48-0.87-0.48-1.43c0-0.44,0.09-0.81,0.26-1.13s0.42-0.57,0.72-0.78
				s0.65-0.35,1.05-0.45s0.82-0.14,1.27-0.14c0.44,0,0.83,0.03,1.16,0.08s0.65,0.13,0.93,0.24v1.75c-0.14-0.1-0.29-0.18-0.46-0.26
				s-0.34-0.14-0.51-0.18s-0.35-0.08-0.52-0.11s-0.34-0.04-0.5-0.04c-0.21,0-0.41,0.02-0.59,0.06s-0.32,0.1-0.45,0.17
				s-0.21,0.16-0.28,0.27s-0.1,0.22-0.1,0.35c0,0.14,0.04,0.27,0.11,0.38s0.18,0.22,0.32,0.32s0.3,0.2,0.5,0.29s0.42,0.19,0.66,0.3
				c0.34,0.14,0.64,0.29,0.91,0.45s0.5,0.34,0.69,0.54s0.34,0.43,0.44,0.68s0.15,0.55,0.15,0.89c0,0.47-0.09,0.86-0.27,1.18
				s-0.42,0.58-0.72,0.77s-0.66,0.34-1.06,0.42s-0.83,0.13-1.28,0.13c-0.46,0-0.9-0.04-1.32-0.12S447.73,74.21,447.42,74.05z"/>
			<path d="M457.68,74.3c-0.27,0.14-0.69,0.22-1.24,0.22c-1.3,0-1.96-0.68-1.96-2.03v-2.75h-0.97v-1.37h0.97v-1.29l1.85-0.53v1.82
				h1.35v1.37h-1.35v2.43c0,0.63,0.25,0.94,0.74,0.94c0.2,0,0.4-0.06,0.6-0.17V74.3z"/>
			<path d="M461.54,74.52c-1,0-1.79-0.28-2.36-0.84s-0.86-1.32-0.86-2.28c0-0.99,0.3-1.77,0.89-2.33s1.4-0.84,2.41-0.84
				c1,0,1.78,0.28,2.34,0.84s0.85,1.3,0.85,2.22c0,1-0.29,1.78-0.88,2.36S462.55,74.52,461.54,74.52z M461.58,69.64
				c-0.44,0-0.78,0.15-1.02,0.45s-0.36,0.73-0.36,1.28c0,1.15,0.46,1.73,1.39,1.73c0.89,0,1.33-0.59,1.33-1.78
				C462.93,70.21,462.48,69.64,461.58,69.64z"/>
			<path d="M469.93,70.04c-0.22-0.12-0.48-0.18-0.78-0.18c-0.4,0-0.72,0.15-0.94,0.44s-0.34,0.7-0.34,1.2v2.87h-1.85v-6h1.85v1.11
				h0.02c0.29-0.81,0.82-1.22,1.58-1.22c0.2,0,0.35,0.02,0.46,0.07V70.04z"/>
			<path d="M475.78,74.37h-1.75v-0.86h-0.02c-0.4,0.67-1,1.01-1.79,1.01c-0.58,0-1.04-0.17-1.37-0.5s-0.5-0.77-0.5-1.32
				c0-1.16,0.69-1.84,2.07-2.02l1.63-0.22c0-0.66-0.36-0.98-1.07-0.98c-0.71,0-1.39,0.21-2.04,0.64v-1.39
				c0.26-0.13,0.61-0.25,1.06-0.35s0.85-0.15,1.22-0.15c1.71,0,2.57,0.85,2.57,2.56V74.37z M474.04,71.94v-0.4l-1.09,0.14
				c-0.6,0.08-0.9,0.35-0.9,0.81c0,0.21,0.07,0.38,0.22,0.52s0.34,0.2,0.59,0.2c0.35,0,0.63-0.12,0.85-0.36
				S474.04,72.3,474.04,71.94z"/>
			<path d="M483.13,73.69c0,1.11-0.32,1.98-0.97,2.59s-1.58,0.92-2.8,0.92c-0.81,0-1.45-0.12-1.92-0.35v-1.56
				c0.62,0.36,1.24,0.54,1.87,0.54c0.63,0,1.11-0.17,1.45-0.5s0.52-0.78,0.52-1.34v-0.47h-0.02c-0.42,0.67-1.04,1.01-1.87,1.01
				c-0.77,0-1.37-0.27-1.82-0.81s-0.67-1.26-0.67-2.17c0-1.02,0.25-1.82,0.75-2.42s1.16-0.9,1.97-0.9c0.73,0,1.28,0.28,1.64,0.84
				h0.02v-0.7h1.85V73.69z M481.3,71.49v-0.47c0-0.38-0.11-0.7-0.34-0.97s-0.52-0.4-0.88-0.4c-0.41,0-0.73,0.16-0.97,0.48
				s-0.35,0.77-0.35,1.35c0,0.5,0.11,0.9,0.33,1.19s0.53,0.44,0.91,0.44c0.38,0,0.69-0.15,0.93-0.44S481.3,71.97,481.3,71.49z"/>
			<path d="M490.07,71.9h-3.91c0.06,0.87,0.61,1.31,1.65,1.31c0.66,0,1.24-0.16,1.74-0.47v1.34c-0.55,0.3-1.28,0.45-2.16,0.45
				c-0.97,0-1.72-0.27-2.26-0.81s-0.8-1.29-0.8-2.25c0-1,0.29-1.79,0.87-2.37s1.29-0.87,2.13-0.87c0.88,0,1.55,0.26,2.03,0.78
				s0.72,1.22,0.72,2.12V71.9z M488.35,70.76c0-0.86-0.35-1.29-1.04-1.29c-0.3,0-0.55,0.12-0.77,0.37s-0.35,0.55-0.4,0.92H488.35z"
				/>
			<path d="M414.51,87.72c-1,0-1.79-0.28-2.36-0.84s-0.86-1.32-0.86-2.28c0-0.99,0.3-1.77,0.89-2.33s1.4-0.84,2.41-0.84
				c1,0,1.78,0.28,2.34,0.84s0.85,1.3,0.85,2.22c0,1-0.29,1.78-0.88,2.36S415.53,87.72,414.51,87.72z M414.56,82.84
				c-0.44,0-0.78,0.15-1.02,0.45s-0.36,0.73-0.36,1.28c0,1.15,0.46,1.73,1.39,1.73c0.89,0,1.33-0.59,1.33-1.78
				C415.9,83.41,415.45,82.84,414.56,82.84z"/>
			<path d="M422.9,83.24c-0.22-0.12-0.48-0.18-0.78-0.18c-0.4,0-0.72,0.15-0.94,0.44s-0.34,0.7-0.34,1.2v2.87h-1.85v-6h1.85v1.11
				h0.02c0.29-0.81,0.82-1.22,1.58-1.22c0.2,0,0.35,0.02,0.46,0.07V83.24z"/>
			<path d="M430.99,80.11c-0.24-0.09-0.47-0.14-0.69-0.14c-0.59,0-0.89,0.32-0.89,0.97v0.64h1.37v1.37h-1.37v4.63h-1.85v-4.63h-1.01
				v-1.37h1.01v-0.74c0-0.68,0.22-1.23,0.67-1.65s1.05-0.63,1.82-0.63c0.38,0,0.69,0.04,0.94,0.12V80.11z"/>
			<path d="M432.61,80.62c-0.31,0-0.57-0.09-0.77-0.28s-0.3-0.41-0.3-0.68c0-0.28,0.1-0.5,0.3-0.68s0.46-0.26,0.77-0.26
				c0.32,0,0.57,0.09,0.77,0.26s0.3,0.4,0.3,0.68c0,0.28-0.1,0.51-0.3,0.69S432.93,80.62,432.61,80.62z M433.52,87.57h-1.85v-6h1.85
				V87.57z"/>
			<path d="M436.93,87.57h-1.85v-8.88h1.85V87.57z"/>
			<path d="M443.88,85.1h-3.91c0.06,0.87,0.61,1.31,1.65,1.31c0.66,0,1.24-0.16,1.74-0.47v1.34c-0.55,0.3-1.28,0.45-2.16,0.45
				c-0.97,0-1.72-0.27-2.26-0.81s-0.8-1.29-0.8-2.25c0-1,0.29-1.79,0.87-2.37s1.29-0.87,2.13-0.87c0.88,0,1.55,0.26,2.03,0.78
				s0.72,1.22,0.72,2.12V85.1z M442.17,83.96c0-0.86-0.35-1.29-1.04-1.29c-0.3,0-0.55,0.12-0.77,0.37s-0.35,0.55-0.4,0.92H442.17z"
				/>
			<path d="M447.9,87.42v-1.5c0.3,0.18,0.61,0.32,0.91,0.41s0.59,0.13,0.86,0.13c0.33,0,0.59-0.04,0.78-0.13s0.28-0.23,0.28-0.41
				c0-0.12-0.04-0.21-0.13-0.29s-0.2-0.15-0.33-0.21s-0.28-0.11-0.44-0.16s-0.31-0.1-0.46-0.16c-0.24-0.09-0.45-0.19-0.63-0.29
				s-0.33-0.22-0.46-0.36s-0.22-0.29-0.28-0.47s-0.1-0.39-0.1-0.64c0-0.34,0.07-0.63,0.22-0.87s0.34-0.44,0.59-0.59
				s0.52-0.27,0.84-0.34s0.64-0.11,0.98-0.11c0.27,0,0.54,0.02,0.81,0.06s0.54,0.1,0.81,0.18v1.43c-0.23-0.14-0.49-0.24-0.75-0.31
				s-0.53-0.1-0.79-0.1c-0.12,0-0.24,0.01-0.34,0.03s-0.2,0.05-0.28,0.09s-0.15,0.09-0.19,0.16s-0.07,0.14-0.07,0.22
				c0,0.11,0.04,0.2,0.11,0.28s0.16,0.15,0.28,0.2s0.24,0.11,0.38,0.15s0.28,0.09,0.41,0.14c0.25,0.09,0.47,0.18,0.67,0.28
				s0.37,0.22,0.51,0.36s0.25,0.3,0.33,0.48s0.11,0.4,0.11,0.66c0,0.36-0.08,0.66-0.23,0.91s-0.36,0.46-0.62,0.62
				s-0.55,0.27-0.88,0.35s-0.68,0.11-1.04,0.11C449.08,87.72,448.47,87.62,447.9,87.42z"/>
			<path d="M459.29,81.57l-2.44,6.48c-0.59,1.56-1.47,2.34-2.65,2.34c-0.45,0-0.82-0.05-1.11-0.15v-1.48
				c0.25,0.14,0.51,0.22,0.8,0.22c0.48,0,0.81-0.22,1-0.67l0.32-0.74l-2.44-5.99h2.05l1.12,3.65c0.07,0.23,0.13,0.49,0.16,0.8h0.02
				c0.04-0.23,0.1-0.49,0.19-0.79l1.13-3.66H459.29z"/>
			<path d="M459.64,87.42v-1.5c0.3,0.18,0.61,0.32,0.91,0.41s0.59,0.13,0.86,0.13c0.33,0,0.59-0.04,0.78-0.13s0.28-0.23,0.28-0.41
				c0-0.12-0.04-0.21-0.13-0.29s-0.2-0.15-0.33-0.21s-0.28-0.11-0.44-0.16s-0.31-0.1-0.46-0.16c-0.24-0.09-0.45-0.19-0.63-0.29
				s-0.33-0.22-0.46-0.36s-0.22-0.29-0.28-0.47s-0.1-0.39-0.1-0.64c0-0.34,0.07-0.63,0.22-0.87s0.34-0.44,0.59-0.59
				s0.52-0.27,0.84-0.34s0.64-0.11,0.98-0.11c0.27,0,0.54,0.02,0.81,0.06s0.54,0.1,0.81,0.18v1.43c-0.23-0.14-0.49-0.24-0.75-0.31
				s-0.53-0.1-0.79-0.1c-0.12,0-0.24,0.01-0.34,0.03s-0.2,0.05-0.28,0.09s-0.15,0.09-0.19,0.16s-0.07,0.14-0.07,0.22
				c0,0.11,0.04,0.2,0.11,0.28s0.16,0.15,0.28,0.2s0.24,0.11,0.38,0.15s0.28,0.09,0.41,0.14c0.25,0.09,0.47,0.18,0.67,0.28
				s0.37,0.22,0.51,0.36s0.25,0.3,0.33,0.48s0.11,0.4,0.11,0.66c0,0.36-0.08,0.66-0.23,0.91s-0.36,0.46-0.62,0.62
				s-0.55,0.27-0.88,0.35s-0.68,0.11-1.04,0.11C460.81,87.72,460.2,87.62,459.64,87.42z"/>
			<path d="M468.94,87.5c-0.27,0.14-0.69,0.22-1.24,0.22c-1.3,0-1.96-0.68-1.96-2.03v-2.75h-0.97v-1.37h0.97v-1.29l1.85-0.53v1.82
				h1.35v1.37h-1.35v2.43c0,0.63,0.25,0.94,0.74,0.94c0.2,0,0.4-0.06,0.6-0.17V87.5z"/>
			<path d="M475.32,85.1h-3.91c0.06,0.87,0.61,1.31,1.65,1.31c0.66,0,1.24-0.16,1.74-0.47v1.34c-0.55,0.3-1.28,0.45-2.16,0.45
				c-0.97,0-1.72-0.27-2.26-0.81s-0.8-1.29-0.8-2.25c0-1,0.29-1.79,0.87-2.37s1.29-0.87,2.13-0.87c0.88,0,1.55,0.26,2.03,0.78
				s0.72,1.22,0.72,2.12V85.1z M473.61,83.96c0-0.86-0.35-1.29-1.04-1.29c-0.3,0-0.55,0.12-0.77,0.37s-0.35,0.55-0.4,0.92H473.61z"
				/>
			<path d="M485.95,87.57h-1.85v-3.42c0-0.87-0.32-1.31-0.96-1.31c-0.3,0-0.55,0.13-0.74,0.39s-0.29,0.59-0.29,0.98v3.36h-1.85
				v-3.46c0-0.85-0.31-1.27-0.94-1.27c-0.32,0-0.57,0.13-0.76,0.38s-0.28,0.59-0.28,1.02v3.33h-1.85v-6h1.85v0.94h0.02
				c0.19-0.32,0.46-0.58,0.81-0.78s0.72-0.3,1.13-0.3c0.85,0,1.43,0.37,1.74,1.12c0.46-0.75,1.13-1.12,2.02-1.12
				c1.3,0,1.96,0.8,1.96,2.41V87.57z"/>
		</g>
	</g>
	<g>
		<path fill="#1E1E1E" d="M590.82,77.14v3.18h-0.98v-8.4h2.31c0.9,0,1.59,0.22,2.09,0.66s0.74,1.05,0.74,1.85s-0.27,1.45-0.82,1.96
			s-1.29,0.76-2.22,0.76H590.82z M590.82,72.81v3.45h1.03c0.68,0,1.2-0.16,1.56-0.47s0.54-0.75,0.54-1.32
			c0-1.11-0.66-1.66-1.97-1.66H590.82z"/>
		<path fill="#1E1E1E" d="M598.7,80.46c-0.89,0-1.59-0.28-2.12-0.84s-0.79-1.3-0.79-2.23c0-1.01,0.28-1.79,0.83-2.36
			s1.29-0.85,2.23-0.85c0.89,0,1.59,0.28,2.09,0.83s0.75,1.31,0.75,2.29c0,0.96-0.27,1.72-0.81,2.3S599.61,80.46,598.7,80.46z
			 M598.77,74.99c-0.62,0-1.11,0.21-1.46,0.63s-0.54,1-0.54,1.74c0,0.71,0.18,1.27,0.54,1.68s0.85,0.62,1.46,0.62
			c0.62,0,1.1-0.2,1.43-0.6s0.5-0.97,0.5-1.72c0-0.75-0.17-1.33-0.5-1.73S599.39,74.99,598.77,74.99z"/>
		<path fill="#1E1E1E" d="M610.67,74.32l-1.8,6h-1l-1.24-4.29c-0.05-0.16-0.08-0.35-0.09-0.56h-0.02c-0.01,0.14-0.05,0.32-0.12,0.54
			l-1.34,4.31h-0.96l-1.82-6h1.01l1.24,4.51c0.04,0.14,0.07,0.32,0.08,0.54h0.05c0.01-0.17,0.05-0.36,0.11-0.55l1.38-4.5h0.88
			l1.24,4.52c0.04,0.14,0.07,0.32,0.09,0.54h0.05c0.01-0.15,0.04-0.33,0.1-0.54l1.22-4.52H610.67z"/>
		<path fill="#1E1E1E" d="M616.49,77.56h-4.24c0.02,0.67,0.2,1.18,0.54,1.55s0.82,0.54,1.42,0.54c0.68,0,1.3-0.22,1.86-0.67v0.9
			c-0.53,0.38-1.22,0.57-2.09,0.57c-0.85,0-1.51-0.27-2-0.82s-0.73-1.31-0.73-2.3c0-0.93,0.26-1.69,0.79-2.28s1.19-0.88,1.97-0.88
			s1.39,0.25,1.82,0.76s0.64,1.21,0.64,2.12V77.56z M615.5,76.74c0-0.55-0.14-0.99-0.4-1.29s-0.63-0.46-1.1-0.46
			c-0.45,0-0.84,0.16-1.15,0.49s-0.51,0.75-0.59,1.27H615.5z"/>
		<path fill="#1E1E1E" d="M621.07,75.29c-0.17-0.13-0.41-0.19-0.73-0.19c-0.41,0-0.75,0.19-1.03,0.58s-0.41,0.91-0.41,1.58v3.06
			h-0.96v-6h0.96v1.24h0.02c0.14-0.42,0.35-0.75,0.63-0.99s0.6-0.35,0.94-0.35c0.25,0,0.44,0.03,0.57,0.08V75.29z"/>
		<path fill="#1E1E1E" d="M625.53,80.32v-8.4h2.39c0.73,0,1.3,0.18,1.73,0.53s0.64,0.82,0.64,1.39c0,0.48-0.13,0.89-0.39,1.24
			s-0.61,0.6-1.07,0.75v0.02c0.57,0.07,1.02,0.28,1.36,0.64s0.51,0.83,0.51,1.41c0,0.72-0.26,1.3-0.77,1.75s-1.17,0.67-1.95,0.67
			H625.53z M626.51,72.81v2.71h1.01c0.54,0,0.96-0.13,1.27-0.39s0.46-0.63,0.46-1.1c0-0.82-0.54-1.22-1.61-1.22H626.51z
			 M626.51,76.4v3.02h1.34c0.58,0,1.03-0.14,1.34-0.41s0.48-0.65,0.48-1.13c0-0.99-0.68-1.49-2.03-1.49H626.51z"/>
		<path fill="#1E1E1E" d="M633.32,80.32h-0.98v-8.4h0.98V80.32z"/>
	</g>
	<g>
		<rect x="588.73" y="119.32" fill="none" width="60" height="15"/>
		<path fill="#1E1E1E" d="M596.33,128.2h-1.09l-0.89-2.36h-3.56l-0.84,2.36h-1.1l3.22-8.4h1.02L596.33,128.2z M594.03,124.96
			l-1.32-3.58c-0.04-0.12-0.09-0.3-0.13-0.56h-0.02c-0.04,0.24-0.08,0.43-0.13,0.56l-1.31,3.58H594.03z"/>
		<path fill="#1E1E1E" d="M598.42,127.33h-0.02v3.63h-0.96v-8.76h0.96v1.05h0.02c0.47-0.8,1.16-1.2,2.07-1.2
			c0.77,0,1.38,0.27,1.81,0.81s0.65,1.26,0.65,2.16c0,1-0.24,1.81-0.73,2.41s-1.16,0.91-2,0.91
			C599.44,128.34,598.84,128.01,598.42,127.33z M598.4,124.91v0.84c0,0.5,0.16,0.92,0.48,1.26s0.73,0.52,1.23,0.52
			c0.58,0,1.04-0.22,1.37-0.67s0.5-1.06,0.5-1.86c0-0.67-0.15-1.19-0.46-1.57s-0.73-0.57-1.25-0.57c-0.56,0-1.01,0.19-1.35,0.58
			S598.4,124.33,598.4,124.91z"/>
		<path fill="#1E1E1E" d="M605.42,127.33h-0.02v3.63h-0.96v-8.76h0.96v1.05h0.02c0.47-0.8,1.16-1.2,2.07-1.2
			c0.77,0,1.38,0.27,1.81,0.81s0.65,1.26,0.65,2.16c0,1-0.24,1.81-0.73,2.41s-1.16,0.91-2,0.91
			C606.44,128.34,605.84,128.01,605.42,127.33z M605.4,124.91v0.84c0,0.5,0.16,0.92,0.48,1.26s0.73,0.52,1.23,0.52
			c0.58,0,1.04-0.22,1.37-0.67s0.5-1.06,0.5-1.86c0-0.67-0.15-1.19-0.46-1.57s-0.73-0.57-1.25-0.57c-0.56,0-1.01,0.19-1.35,0.58
			S605.4,124.33,605.4,124.91z"/>
		<path fill="#1E1E1E" d="M615.89,125.03v3.18h-0.98v-8.4h2.31c0.9,0,1.59,0.22,2.09,0.66s0.74,1.05,0.74,1.85s-0.27,1.45-0.82,1.96
			s-1.29,0.76-2.22,0.76H615.89z M615.89,120.69v3.45h1.03c0.68,0,1.2-0.16,1.56-0.47s0.54-0.75,0.54-1.32
			c0-1.11-0.66-1.66-1.97-1.66H615.89z"/>
		<path fill="#1E1E1E" d="M623.77,128.34c-0.89,0-1.59-0.28-2.12-0.84s-0.79-1.3-0.79-2.23c0-1.01,0.28-1.79,0.83-2.36
			s1.29-0.85,2.23-0.85c0.89,0,1.59,0.28,2.09,0.83s0.75,1.31,0.75,2.29c0,0.96-0.27,1.72-0.81,2.3S624.68,128.34,623.77,128.34z
			 M623.84,122.87c-0.62,0-1.11,0.21-1.46,0.63s-0.54,1-0.54,1.74c0,0.71,0.18,1.27,0.54,1.68s0.85,0.62,1.46,0.62
			c0.62,0,1.1-0.2,1.43-0.6s0.5-0.97,0.5-1.72c0-0.75-0.17-1.33-0.5-1.73S624.46,122.87,623.84,122.87z"/>
		<path fill="#1E1E1E" d="M631.37,123.17c-0.17-0.13-0.41-0.19-0.73-0.19c-0.41,0-0.75,0.19-1.03,0.58s-0.41,0.91-0.41,1.58v3.06
			h-0.96v-6h0.96v1.24h0.02c0.14-0.42,0.35-0.75,0.63-0.99s0.6-0.35,0.94-0.35c0.25,0,0.44,0.03,0.57,0.08V123.17z"/>
		<path fill="#1E1E1E" d="M635.59,128.14c-0.23,0.13-0.53,0.19-0.9,0.19c-1.05,0-1.58-0.59-1.58-1.76v-3.55h-1.03v-0.82h1.03v-1.46
			l0.96-0.31v1.78h1.51v0.82h-1.51v3.38c0,0.4,0.07,0.69,0.21,0.86s0.36,0.26,0.68,0.26c0.24,0,0.45-0.07,0.63-0.2V128.14z"/>
		<path fill="#1E1E1E" d="M641.27,128.2h-0.96v-0.94h-0.02c-0.42,0.72-1.03,1.08-1.85,1.08c-0.6,0-1.07-0.16-1.4-0.47
			s-0.51-0.74-0.51-1.26c0-1.12,0.66-1.77,1.98-1.96l1.8-0.25c0-1.02-0.41-1.53-1.24-1.53c-0.72,0-1.38,0.25-1.96,0.74v-0.98
			c0.59-0.38,1.27-0.56,2.04-0.56c1.41,0,2.12,0.75,2.12,2.24V128.2z M640.31,125.17l-1.45,0.2c-0.45,0.06-0.78,0.17-1.01,0.33
			s-0.34,0.44-0.34,0.84c0,0.29,0.1,0.53,0.31,0.72s0.49,0.28,0.83,0.28c0.48,0,0.87-0.17,1.18-0.5s0.47-0.76,0.47-1.27V125.17z"/>
		<path fill="#1E1E1E" d="M643.97,128.2h-0.96v-8.88h0.96V128.2z"/>
	</g>
	<g>
		<g>
			<path d="M279.06,22.53H277l-0.6-1.87h-2.99l-0.59,1.87h-2.05l3.06-8.4h2.24L279.06,22.53z M275.97,19.21l-0.9-2.82
				c-0.07-0.21-0.11-0.46-0.14-0.76h-0.05c-0.02,0.25-0.07,0.49-0.15,0.73l-0.91,2.85H275.97z"/>
			<path d="M284.68,22.53h-5.38v-0.77l3.01-3.87h-2.71v-1.37h5.06v0.91l-2.85,3.72h2.88V22.53z"/>
			<path d="M291.38,22.53h-1.85v-0.91h-0.03c-0.46,0.71-1.07,1.06-1.83,1.06c-1.39,0-2.09-0.84-2.09-2.53v-3.62h1.85v3.46
				c0,0.85,0.34,1.27,1.01,1.27c0.33,0,0.6-0.12,0.8-0.35s0.3-0.55,0.3-0.95v-3.43h1.85V22.53z"/>
			<path d="M296.85,18.2c-0.22-0.12-0.48-0.18-0.78-0.18c-0.4,0-0.72,0.15-0.94,0.44s-0.34,0.7-0.34,1.2v2.87h-1.85v-6h1.85v1.11
				h0.02c0.29-0.81,0.82-1.22,1.58-1.22c0.2,0,0.35,0.02,0.46,0.07V18.2z"/>
			<path d="M303.06,20.06h-3.91c0.06,0.87,0.61,1.31,1.65,1.31c0.66,0,1.24-0.16,1.74-0.47v1.34c-0.55,0.3-1.28,0.45-2.16,0.45
				c-0.97,0-1.72-0.27-2.26-0.81s-0.8-1.29-0.8-2.25c0-1,0.29-1.79,0.87-2.37s1.29-0.87,2.13-0.87c0.88,0,1.55,0.26,2.03,0.78
				s0.72,1.22,0.72,2.12V20.06z M301.34,18.93c0-0.86-0.35-1.29-1.04-1.29c-0.3,0-0.55,0.12-0.77,0.37s-0.35,0.55-0.4,0.92H301.34z"
				/>
			<path d="M313.68,22.24c-0.61,0.3-1.41,0.45-2.4,0.45c-1.29,0-2.3-0.38-3.04-1.14s-1.11-1.77-1.11-3.03
				c0-1.34,0.42-2.43,1.25-3.27s1.91-1.25,3.23-1.25c0.82,0,1.51,0.1,2.07,0.31v1.82c-0.56-0.34-1.2-0.5-1.92-0.5
				c-0.79,0-1.43,0.25-1.91,0.74s-0.73,1.17-0.73,2.02c0,0.81,0.23,1.46,0.69,1.94s1.07,0.72,1.85,0.72c0.74,0,1.41-0.18,2.03-0.54
				V22.24z"/>
			<path d="M317.82,22.68c-1,0-1.79-0.28-2.36-0.84s-0.86-1.32-0.86-2.28c0-0.99,0.3-1.77,0.89-2.33s1.4-0.84,2.41-0.84
				c1,0,1.78,0.28,2.34,0.84s0.85,1.3,0.85,2.22c0,1-0.29,1.78-0.88,2.36S318.83,22.68,317.82,22.68z M317.86,17.81
				c-0.44,0-0.78,0.15-1.02,0.45s-0.36,0.73-0.36,1.28c0,1.15,0.46,1.73,1.39,1.73c0.89,0,1.33-0.59,1.33-1.78
				C319.21,18.37,318.76,17.81,317.86,17.81z"/>
			<path d="M328.18,21.85c0,1.11-0.32,1.98-0.97,2.59s-1.58,0.92-2.8,0.92c-0.81,0-1.45-0.12-1.92-0.35v-1.56
				c0.62,0.36,1.24,0.54,1.87,0.54c0.63,0,1.11-0.17,1.45-0.5s0.52-0.78,0.52-1.34v-0.47h-0.02c-0.42,0.67-1.04,1.01-1.87,1.01
				c-0.77,0-1.37-0.27-1.82-0.81s-0.67-1.26-0.67-2.17c0-1.02,0.25-1.82,0.75-2.42s1.16-0.9,1.97-0.9c0.73,0,1.28,0.28,1.64,0.84
				h0.02v-0.7h1.85V21.85z M326.35,19.65v-0.47c0-0.38-0.11-0.7-0.34-0.97s-0.52-0.4-0.88-0.4c-0.41,0-0.73,0.16-0.97,0.48
				s-0.35,0.77-0.35,1.35c0,0.5,0.11,0.9,0.33,1.19s0.53,0.44,0.91,0.44c0.38,0,0.69-0.15,0.93-0.44S326.35,20.14,326.35,19.65z"/>
			<path d="M335.52,22.53h-1.85V19.2c0-0.93-0.33-1.39-1-1.39c-0.32,0-0.58,0.12-0.79,0.37s-0.31,0.56-0.31,0.94v3.42h-1.85v-6h1.85
				v0.95h0.02c0.44-0.73,1.08-1.1,1.93-1.1c1.33,0,1.99,0.82,1.99,2.47V22.53z"/>
			<path d="M337.92,15.59c-0.31,0-0.57-0.09-0.77-0.28s-0.3-0.41-0.3-0.68c0-0.28,0.1-0.5,0.3-0.68s0.46-0.26,0.77-0.26
				c0.32,0,0.57,0.09,0.77,0.26s0.3,0.4,0.3,0.68c0,0.28-0.1,0.51-0.3,0.69S338.24,15.59,337.92,15.59z M338.84,22.53h-1.85v-6h1.85
				V22.53z"/>
			<path d="M344.02,22.46c-0.27,0.14-0.69,0.22-1.24,0.22c-1.3,0-1.96-0.68-1.96-2.03V17.9h-0.97v-1.37h0.97v-1.29l1.85-0.53v1.82
				h1.35v1.37h-1.35v2.43c0,0.63,0.25,0.94,0.74,0.94c0.2,0,0.4-0.06,0.6-0.17V22.46z"/>
			<path d="M346,15.59c-0.31,0-0.57-0.09-0.77-0.28s-0.3-0.41-0.3-0.68c0-0.28,0.1-0.5,0.3-0.68s0.46-0.26,0.77-0.26
				c0.32,0,0.57,0.09,0.77,0.26s0.3,0.4,0.3,0.68c0,0.28-0.1,0.51-0.3,0.69S346.32,15.59,346,15.59z M346.92,22.53h-1.85v-6h1.85
				V22.53z"/>
			<path d="M354.19,16.53l-2.23,6h-2.11l-2.13-6h1.98l1.04,3.7c0.12,0.42,0.19,0.77,0.21,1.07h0.02c0.03-0.28,0.1-0.62,0.22-1.03
				l1.07-3.73H354.19z"/>
			<path d="M360.25,20.06h-3.91c0.06,0.87,0.61,1.31,1.65,1.31c0.66,0,1.24-0.16,1.74-0.47v1.34c-0.55,0.3-1.28,0.45-2.16,0.45
				c-0.97,0-1.72-0.27-2.26-0.81s-0.8-1.29-0.8-2.25c0-1,0.29-1.79,0.87-2.37s1.29-0.87,2.13-0.87c0.88,0,1.55,0.26,2.03,0.78
				s0.72,1.22,0.72,2.12V20.06z M358.53,18.93c0-0.86-0.35-1.29-1.04-1.29c-0.3,0-0.55,0.12-0.77,0.37s-0.35,0.55-0.4,0.92H358.53z"
				/>
			<path d="M271.29,35.41v-1.88c0.34,0.29,0.71,0.5,1.11,0.64s0.8,0.21,1.21,0.21c0.24,0,0.45-0.02,0.62-0.06s0.33-0.1,0.45-0.18
				s0.21-0.17,0.27-0.27s0.09-0.22,0.09-0.34c0-0.16-0.05-0.31-0.14-0.44s-0.22-0.25-0.38-0.36s-0.35-0.21-0.58-0.32
				s-0.46-0.21-0.72-0.31c-0.66-0.27-1.15-0.61-1.47-1s-0.48-0.87-0.48-1.43c0-0.44,0.09-0.81,0.26-1.13s0.42-0.57,0.72-0.78
				s0.65-0.35,1.05-0.45s0.82-0.14,1.27-0.14c0.44,0,0.83,0.03,1.16,0.08s0.65,0.13,0.93,0.24v1.75c-0.14-0.1-0.29-0.18-0.46-0.26
				s-0.34-0.14-0.51-0.18s-0.35-0.08-0.52-0.11s-0.34-0.04-0.5-0.04c-0.21,0-0.41,0.02-0.59,0.06s-0.32,0.1-0.45,0.17
				s-0.21,0.16-0.28,0.27s-0.1,0.22-0.1,0.35c0,0.14,0.04,0.27,0.11,0.38s0.18,0.22,0.32,0.32s0.3,0.2,0.5,0.29s0.42,0.19,0.66,0.3
				c0.34,0.14,0.64,0.29,0.91,0.45s0.5,0.34,0.69,0.54s0.34,0.43,0.44,0.68s0.15,0.55,0.15,0.89c0,0.47-0.09,0.86-0.27,1.18
				s-0.42,0.58-0.72,0.77s-0.66,0.34-1.06,0.42s-0.83,0.13-1.28,0.13c-0.46,0-0.9-0.04-1.32-0.12S271.59,35.57,271.29,35.41z"/>
			<path d="M283.61,33.26h-3.91c0.06,0.87,0.61,1.31,1.65,1.31c0.66,0,1.24-0.16,1.74-0.47v1.34c-0.55,0.3-1.28,0.45-2.16,0.45
				c-0.97,0-1.72-0.27-2.26-0.81s-0.8-1.29-0.8-2.25c0-1,0.29-1.79,0.87-2.37s1.29-0.87,2.13-0.87c0.88,0,1.55,0.26,2.03,0.78
				s0.72,1.22,0.72,2.12V33.26z M281.89,32.13c0-0.86-0.35-1.29-1.04-1.29c-0.3,0-0.55,0.12-0.77,0.37s-0.35,0.55-0.4,0.92H281.89z"
				/>
			<path d="M288.63,31.4c-0.22-0.12-0.48-0.18-0.78-0.18c-0.4,0-0.72,0.15-0.94,0.44s-0.34,0.7-0.34,1.2v2.87h-1.85v-6h1.85v1.11
				h0.02c0.29-0.81,0.82-1.22,1.58-1.22c0.2,0,0.35,0.02,0.46,0.07V31.4z"/>
			<path d="M295.68,29.73l-2.23,6h-2.11l-2.13-6h1.98l1.04,3.7c0.12,0.42,0.19,0.77,0.21,1.07h0.02c0.03-0.28,0.1-0.62,0.22-1.03
				l1.07-3.73H295.68z"/>
			<path d="M297.41,28.79c-0.31,0-0.57-0.09-0.77-0.28s-0.3-0.41-0.3-0.68c0-0.28,0.1-0.5,0.3-0.68s0.46-0.26,0.77-0.26
				c0.32,0,0.57,0.09,0.77,0.26s0.3,0.4,0.3,0.68c0,0.28-0.1,0.51-0.3,0.69S297.73,28.79,297.41,28.79z M298.32,35.73h-1.85v-6h1.85
				V35.73z"/>
			<path d="M304.43,35.52c-0.42,0.24-1.02,0.36-1.81,0.36c-0.92,0-1.67-0.28-2.24-0.84s-0.86-1.28-0.86-2.16
				c0-1.02,0.31-1.82,0.92-2.41s1.43-0.88,2.45-0.88c0.71,0,1.22,0.09,1.54,0.28v1.57c-0.39-0.29-0.82-0.43-1.29-0.43
				c-0.53,0-0.95,0.16-1.26,0.47s-0.47,0.74-0.47,1.29c0,0.53,0.15,0.95,0.45,1.25s0.71,0.45,1.22,0.45c0.46,0,0.91-0.14,1.35-0.43
				V35.52z"/>
			<path d="M311.03,33.26h-3.91c0.06,0.87,0.61,1.31,1.65,1.31c0.66,0,1.24-0.16,1.74-0.47v1.34c-0.55,0.3-1.28,0.45-2.16,0.45
				c-0.97,0-1.72-0.27-2.26-0.81s-0.8-1.29-0.8-2.25c0-1,0.29-1.79,0.87-2.37s1.29-0.87,2.13-0.87c0.88,0,1.55,0.26,2.03,0.78
				s0.72,1.22,0.72,2.12V33.26z M309.32,32.13c0-0.86-0.35-1.29-1.04-1.29c-0.3,0-0.55,0.12-0.77,0.37s-0.35,0.55-0.4,0.92H309.32z"
				/>
			<path d="M311.74,35.58v-1.5c0.3,0.18,0.61,0.32,0.91,0.41s0.59,0.13,0.86,0.13c0.33,0,0.59-0.04,0.78-0.13s0.28-0.23,0.28-0.41
				c0-0.12-0.04-0.21-0.13-0.29s-0.2-0.15-0.33-0.21s-0.28-0.11-0.44-0.16s-0.31-0.1-0.46-0.16c-0.24-0.09-0.45-0.19-0.63-0.29
				s-0.33-0.22-0.46-0.36s-0.22-0.29-0.28-0.47s-0.1-0.39-0.1-0.64c0-0.34,0.07-0.63,0.22-0.87s0.34-0.44,0.59-0.59
				s0.52-0.27,0.84-0.34s0.64-0.11,0.98-0.11c0.27,0,0.54,0.02,0.81,0.06s0.54,0.1,0.81,0.18v1.43c-0.23-0.14-0.49-0.24-0.75-0.31
				s-0.53-0.1-0.79-0.1c-0.12,0-0.24,0.01-0.34,0.03s-0.2,0.05-0.28,0.09s-0.15,0.09-0.19,0.16s-0.07,0.14-0.07,0.22
				c0,0.11,0.04,0.2,0.11,0.28s0.16,0.15,0.28,0.2s0.24,0.11,0.38,0.15s0.28,0.09,0.41,0.14c0.25,0.09,0.47,0.18,0.67,0.28
				s0.37,0.22,0.51,0.36s0.25,0.3,0.33,0.48s0.11,0.4,0.11,0.66c0,0.36-0.08,0.66-0.23,0.91s-0.36,0.46-0.62,0.62
				s-0.55,0.27-0.88,0.35s-0.68,0.11-1.04,0.11C312.92,35.88,312.3,35.78,311.74,35.58z"/>
			<path d="M326.81,28.87h-2.4v6.86h-1.9v-6.86h-2.38v-1.54h6.68V28.87z"/>
			<path d="M332.07,33.26h-3.91c0.06,0.87,0.61,1.31,1.65,1.31c0.66,0,1.24-0.16,1.74-0.47v1.34c-0.55,0.3-1.28,0.45-2.16,0.45
				c-0.97,0-1.72-0.27-2.26-0.81s-0.8-1.29-0.8-2.25c0-1,0.29-1.79,0.87-2.37s1.29-0.87,2.13-0.87c0.88,0,1.55,0.26,2.03,0.78
				s0.72,1.22,0.72,2.12V33.26z M330.35,32.13c0-0.86-0.35-1.29-1.04-1.29c-0.3,0-0.55,0.12-0.77,0.37s-0.35,0.55-0.4,0.92H330.35z"
				/>
			<path d="M338.96,29.73l-1.98,2.91l1.97,3.09h-2.13l-0.87-1.62c-0.07-0.13-0.15-0.31-0.25-0.54h-0.02
				c-0.06,0.16-0.14,0.34-0.24,0.53l-0.87,1.63h-2.13l2.03-2.99l-1.9-3.01h2.14l0.86,1.68c0.11,0.22,0.19,0.41,0.24,0.56h0.02
				c0.06-0.18,0.15-0.38,0.25-0.57l0.87-1.67H338.96z"/>
			<path d="M343.42,35.66c-0.27,0.14-0.69,0.22-1.24,0.22c-1.3,0-1.96-0.68-1.96-2.03V31.1h-0.97v-1.37h0.97v-1.29l1.85-0.53v1.82
				h1.35v1.37h-1.35v2.43c0,0.63,0.25,0.94,0.74,0.94c0.2,0,0.4-0.06,0.6-0.17V35.66z"/>
			<path d="M279.06,48.93H277l-0.6-1.87h-2.99l-0.59,1.87h-2.05l3.06-8.4h2.24L279.06,48.93z M275.97,45.61l-0.9-2.82
				c-0.07-0.21-0.11-0.46-0.14-0.76h-0.05c-0.02,0.25-0.07,0.49-0.15,0.73l-0.91,2.85H275.97z"/>
			<path d="M285.73,48.93h-1.85V45.6c0-0.93-0.33-1.39-1-1.39c-0.32,0-0.58,0.12-0.79,0.37s-0.31,0.56-0.31,0.94v3.42h-1.85v-6h1.85
				v0.95h0.02c0.44-0.73,1.08-1.1,1.93-1.1c1.33,0,1.99,0.82,1.99,2.47V48.93z"/>
			<path d="M292.18,48.93h-1.75v-0.86h-0.02c-0.4,0.67-1,1.01-1.79,1.01c-0.58,0-1.04-0.17-1.37-0.5s-0.5-0.77-0.5-1.32
				c0-1.16,0.69-1.84,2.07-2.02l1.63-0.22c0-0.66-0.36-0.98-1.07-0.98c-0.71,0-1.39,0.21-2.04,0.64v-1.39
				c0.26-0.13,0.61-0.25,1.06-0.35s0.85-0.15,1.22-0.15c1.71,0,2.57,0.85,2.57,2.56V48.93z M290.44,46.5v-0.4l-1.09,0.14
				c-0.6,0.08-0.9,0.35-0.9,0.81c0,0.21,0.07,0.38,0.22,0.52s0.34,0.2,0.59,0.2c0.35,0,0.63-0.12,0.85-0.36
				S290.44,46.86,290.44,46.5z"/>
			<path d="M295.5,48.93h-1.85v-8.88h1.85V48.93z"/>
			<path d="M302.77,42.93l-2.44,6.48c-0.59,1.56-1.47,2.34-2.65,2.34c-0.45,0-0.82-0.05-1.11-0.15v-1.48
				c0.25,0.14,0.51,0.22,0.8,0.22c0.48,0,0.81-0.22,1-0.67l0.32-0.74l-2.44-5.99h2.05l1.12,3.65c0.07,0.23,0.13,0.49,0.16,0.8h0.02
				c0.04-0.23,0.1-0.49,0.19-0.79l1.13-3.66H302.77z"/>
			<path d="M307.17,48.86c-0.27,0.14-0.69,0.22-1.24,0.22c-1.3,0-1.96-0.68-1.96-2.03V44.3H303v-1.37h0.97v-1.29l1.85-0.53v1.82
				h1.35v1.37h-1.35v2.43c0,0.63,0.25,0.94,0.74,0.94c0.2,0,0.4-0.06,0.6-0.17V48.86z"/>
			<path d="M309.15,41.99c-0.31,0-0.57-0.09-0.77-0.28s-0.3-0.41-0.3-0.68c0-0.28,0.1-0.5,0.3-0.68s0.46-0.26,0.77-0.26
				c0.32,0,0.57,0.09,0.77,0.26s0.3,0.4,0.3,0.68c0,0.28-0.1,0.51-0.3,0.69S309.46,41.99,309.15,41.99z M310.06,48.93h-1.85v-6h1.85
				V48.93z"/>
			<path d="M316.17,48.72c-0.42,0.24-1.02,0.36-1.81,0.36c-0.92,0-1.67-0.28-2.24-0.84s-0.86-1.28-0.86-2.16
				c0-1.02,0.31-1.82,0.92-2.41s1.43-0.88,2.45-0.88c0.71,0,1.22,0.09,1.54,0.28v1.57c-0.39-0.29-0.82-0.43-1.29-0.43
				c-0.53,0-0.95,0.16-1.26,0.47s-0.47,0.74-0.47,1.29c0,0.53,0.15,0.95,0.45,1.25s0.71,0.45,1.22,0.45c0.46,0,0.91-0.14,1.35-0.43
				V48.72z"/>
			<path d="M316.99,48.78v-1.5c0.3,0.18,0.61,0.32,0.91,0.41s0.59,0.13,0.86,0.13c0.33,0,0.59-0.04,0.78-0.13s0.28-0.23,0.28-0.41
				c0-0.12-0.04-0.21-0.13-0.29s-0.2-0.15-0.33-0.21s-0.28-0.11-0.44-0.16s-0.31-0.1-0.46-0.16c-0.24-0.09-0.45-0.19-0.63-0.29
				s-0.33-0.22-0.46-0.36s-0.22-0.29-0.28-0.47s-0.1-0.39-0.1-0.64c0-0.34,0.07-0.63,0.22-0.87s0.34-0.44,0.59-0.59
				s0.52-0.27,0.84-0.34s0.64-0.11,0.98-0.11c0.27,0,0.54,0.02,0.81,0.06s0.54,0.1,0.81,0.18v1.43c-0.23-0.14-0.49-0.24-0.75-0.31
				s-0.53-0.1-0.79-0.1c-0.12,0-0.24,0.01-0.34,0.03s-0.2,0.05-0.28,0.09s-0.15,0.09-0.19,0.16s-0.07,0.14-0.07,0.22
				c0,0.11,0.04,0.2,0.11,0.28s0.16,0.15,0.28,0.2s0.24,0.11,0.38,0.15s0.28,0.09,0.41,0.14c0.25,0.09,0.47,0.18,0.67,0.28
				s0.37,0.22,0.51,0.36s0.25,0.3,0.33,0.48s0.11,0.4,0.11,0.66c0,0.36-0.08,0.66-0.23,0.91s-0.36,0.46-0.62,0.62
				s-0.55,0.27-0.88,0.35s-0.68,0.11-1.04,0.11C318.16,49.08,317.55,48.98,316.99,48.78z"/>
		</g>
	</g>
	<g>
		<rect x="255.71" y="72.32" fill="none" width="85" height="28.93"/>
		<path fill="#001F50" d="M276.76,81.2h-1.37l-3.25-3.84c-0.12-0.14-0.2-0.24-0.22-0.29h-0.02v4.14h-0.98v-8.4h0.98v3.95h0.02
			c0.05-0.09,0.13-0.18,0.22-0.29l3.14-3.66h1.22l-3.6,4.03L276.76,81.2z"/>
		<path fill="#001F50" d="M282.27,78.44h-4.24c0.02,0.67,0.2,1.18,0.54,1.55s0.82,0.54,1.42,0.54c0.68,0,1.3-0.22,1.86-0.67v0.9
			c-0.53,0.38-1.22,0.57-2.09,0.57c-0.85,0-1.51-0.27-2-0.82s-0.73-1.31-0.73-2.3c0-0.93,0.26-1.69,0.79-2.28s1.19-0.88,1.97-0.88
			s1.39,0.25,1.82,0.76s0.64,1.21,0.64,2.12V78.44z M281.29,77.63c0-0.55-0.14-0.99-0.4-1.29s-0.63-0.46-1.1-0.46
			c-0.45,0-0.84,0.16-1.15,0.49s-0.51,0.75-0.59,1.27H281.29z"/>
		<path fill="#001F50" d="M288.45,75.2l-2.76,6.96c-0.49,1.24-1.18,1.86-2.07,1.86c-0.25,0-0.46-0.03-0.63-0.08v-0.86
			c0.21,0.07,0.4,0.11,0.57,0.11c0.48,0,0.85-0.29,1.09-0.87l0.48-1.14l-2.34-5.99h1.07l1.62,4.62c0.02,0.06,0.06,0.21,0.12,0.46
			h0.04c0.02-0.09,0.06-0.24,0.12-0.45l1.71-4.63H288.45z"/>
		<path fill="#001F50" d="M293.88,78.03v3.18h-0.98v-8.4h2.31c0.9,0,1.59,0.22,2.09,0.66s0.74,1.05,0.74,1.85s-0.27,1.45-0.82,1.96
			s-1.29,0.76-2.22,0.76H293.88z M293.88,73.69v3.45h1.03c0.68,0,1.2-0.16,1.56-0.47s0.54-0.75,0.54-1.32
			c0-1.11-0.66-1.66-1.97-1.66H293.88z"/>
		<path fill="#001F50" d="M304.29,81.2h-0.96v-3.46c0-1.25-0.46-1.88-1.39-1.88c-0.47,0-0.86,0.18-1.18,0.54s-0.48,0.83-0.48,1.39
			v3.4h-0.96v-8.88h0.96v3.88h0.02c0.46-0.76,1.12-1.14,1.97-1.14c1.35,0,2.03,0.81,2.03,2.44V81.2z"/>
		<path fill="#001F50" d="M309.17,76.17c-0.17-0.13-0.41-0.19-0.73-0.19c-0.41,0-0.75,0.19-1.03,0.58S307,77.47,307,78.14v3.06
			h-0.96v-6H307v1.24h0.02c0.14-0.42,0.35-0.75,0.63-0.99s0.6-0.35,0.94-0.35c0.25,0,0.44,0.03,0.57,0.08V76.17z"/>
		<path fill="#001F50" d="M314.47,81.2h-0.96v-0.94h-0.02c-0.42,0.72-1.03,1.08-1.85,1.08c-0.6,0-1.07-0.16-1.4-0.47
			s-0.51-0.74-0.51-1.26c0-1.12,0.66-1.77,1.98-1.96l1.8-0.25c0-1.02-0.41-1.53-1.24-1.53c-0.72,0-1.38,0.25-1.96,0.74v-0.98
			c0.59-0.38,1.27-0.56,2.04-0.56c1.41,0,2.12,0.75,2.12,2.24V81.2z M313.51,78.17l-1.45,0.2c-0.45,0.06-0.78,0.17-1.01,0.33
			s-0.34,0.44-0.34,0.84c0,0.29,0.1,0.53,0.31,0.72s0.49,0.28,0.83,0.28c0.48,0,0.87-0.17,1.18-0.5s0.47-0.76,0.47-1.27V78.17z"/>
		<path fill="#001F50" d="M315.88,80.98v-1.03c0.52,0.39,1.1,0.58,1.73,0.58c0.84,0,1.27-0.28,1.27-0.84c0-0.16-0.04-0.3-0.11-0.41
			s-0.17-0.21-0.29-0.3s-0.27-0.16-0.43-0.23s-0.34-0.14-0.54-0.21c-0.27-0.11-0.5-0.21-0.7-0.32s-0.37-0.23-0.5-0.36
			s-0.24-0.29-0.3-0.46s-0.1-0.37-0.1-0.6c0-0.28,0.06-0.53,0.19-0.75s0.3-0.4,0.52-0.54s0.46-0.26,0.74-0.33s0.56-0.11,0.85-0.11
			c0.52,0,0.98,0.09,1.39,0.27v0.97c-0.44-0.29-0.95-0.43-1.52-0.43c-0.18,0-0.34,0.02-0.49,0.06s-0.27,0.1-0.37,0.17
			s-0.18,0.16-0.24,0.27s-0.08,0.22-0.08,0.34c0,0.16,0.03,0.29,0.08,0.39s0.14,0.2,0.25,0.28s0.24,0.16,0.4,0.22
			s0.33,0.14,0.53,0.22c0.27,0.1,0.5,0.21,0.71,0.31s0.39,0.23,0.54,0.36s0.26,0.29,0.34,0.47s0.12,0.38,0.12,0.63
			c0,0.3-0.07,0.55-0.2,0.77s-0.31,0.4-0.52,0.54s-0.47,0.25-0.76,0.32s-0.58,0.11-0.9,0.11C316.87,81.34,316.34,81.22,315.88,80.98
			z"/>
		<path fill="#001F50" d="M326.14,78.44h-4.24c0.02,0.67,0.2,1.18,0.54,1.55s0.82,0.54,1.42,0.54c0.68,0,1.3-0.22,1.86-0.67v0.9
			c-0.53,0.38-1.22,0.57-2.09,0.57c-0.85,0-1.51-0.27-2-0.82s-0.73-1.31-0.73-2.3c0-0.93,0.26-1.69,0.79-2.28s1.19-0.88,1.97-0.88
			s1.39,0.25,1.82,0.76s0.64,1.21,0.64,2.12V78.44z M325.15,77.63c0-0.55-0.14-0.99-0.4-1.29s-0.63-0.46-1.1-0.46
			c-0.45,0-0.84,0.16-1.15,0.49s-0.51,0.75-0.59,1.27H325.15z"/>
		<path fill="#001F50" d="M277.44,95.6h-4.45v-8.4h4.27v0.89h-3.28v2.79H277v0.88h-3.04v2.94h3.47V95.6z"/>
		<path fill="#001F50" d="M283.52,89.6l-2.02,3.04l1.98,2.96h-1.12l-1.18-1.95c-0.07-0.12-0.16-0.27-0.26-0.46h-0.02
			c-0.02,0.04-0.11,0.19-0.28,0.46l-1.2,1.95h-1.11l2.04-2.94l-1.96-3.06h1.12l1.16,2.05c0.09,0.15,0.17,0.31,0.25,0.47h0.02
			l1.5-2.52H283.52z"/>
		<path fill="#001F50" d="M287.79,95.54c-0.23,0.13-0.53,0.19-0.9,0.19c-1.05,0-1.58-0.59-1.58-1.76v-3.55h-1.03V89.6h1.03v-1.46
			l0.96-0.31v1.78h1.51v0.82h-1.51v3.38c0,0.4,0.07,0.69,0.21,0.86s0.36,0.26,0.68,0.26c0.24,0,0.45-0.07,0.63-0.2V95.54z"/>
		<path fill="#001F50" d="M292.12,90.57c-0.17-0.13-0.41-0.19-0.73-0.19c-0.41,0-0.75,0.19-1.03,0.58s-0.41,0.91-0.41,1.58v3.06
			h-0.96v-6h0.96v1.24h0.02c0.14-0.42,0.35-0.75,0.63-0.99s0.6-0.35,0.94-0.35c0.25,0,0.44,0.03,0.57,0.08V90.57z"/>
		<path fill="#001F50" d="M297.42,95.6h-0.96v-0.94h-0.02c-0.42,0.72-1.03,1.08-1.85,1.08c-0.6,0-1.07-0.16-1.4-0.47
			s-0.51-0.74-0.51-1.26c0-1.12,0.66-1.77,1.98-1.96l1.8-0.25c0-1.02-0.41-1.53-1.24-1.53c-0.72,0-1.38,0.25-1.96,0.74v-0.98
			c0.59-0.38,1.27-0.56,2.04-0.56c1.41,0,2.12,0.75,2.12,2.24V95.6z M296.46,92.57l-1.45,0.2c-0.45,0.06-0.78,0.17-1.01,0.33
			s-0.34,0.44-0.34,0.84c0,0.29,0.1,0.53,0.31,0.72s0.49,0.28,0.83,0.28c0.48,0,0.87-0.17,1.18-0.5s0.47-0.76,0.47-1.27V92.57z"/>
		<path fill="#001F50" d="M303.29,95.33c-0.46,0.28-1.01,0.42-1.64,0.42c-0.86,0-1.55-0.28-2.07-0.83s-0.79-1.28-0.79-2.17
			c0-0.99,0.28-1.78,0.85-2.38s1.32-0.9,2.27-0.9c0.53,0,0.99,0.1,1.39,0.29v0.98c-0.45-0.31-0.92-0.47-1.43-0.47
			c-0.61,0-1.12,0.22-1.51,0.66s-0.59,1.02-0.59,1.73c0,0.7,0.18,1.26,0.55,1.66s0.86,0.61,1.49,0.61c0.52,0,1.02-0.17,1.48-0.52
			V95.33z"/>
		<path fill="#001F50" d="M307.73,95.54c-0.23,0.13-0.53,0.19-0.9,0.19c-1.05,0-1.58-0.59-1.58-1.76v-3.55h-1.03V89.6h1.03v-1.46
			l0.96-0.31v1.78h1.51v0.82h-1.51v3.38c0,0.4,0.07,0.69,0.21,0.86s0.36,0.26,0.68,0.26c0.24,0,0.45-0.07,0.63-0.2V95.54z"/>
		<path fill="#001F50" d="M309.41,88.08c-0.17,0-0.32-0.06-0.44-0.18s-0.18-0.27-0.18-0.45s0.06-0.33,0.18-0.45s0.27-0.18,0.44-0.18
			c0.18,0,0.33,0.06,0.45,0.18s0.18,0.27,0.18,0.45c0,0.17-0.06,0.32-0.18,0.44S309.59,88.08,309.41,88.08z M309.88,95.6h-0.96v-6
			h0.96V95.6z"/>
		<path fill="#001F50" d="M314.26,95.74c-0.89,0-1.59-0.28-2.12-0.84s-0.79-1.3-0.79-2.23c0-1.01,0.28-1.79,0.83-2.36
			s1.29-0.85,2.23-0.85c0.89,0,1.59,0.28,2.09,0.83s0.75,1.31,0.75,2.29c0,0.96-0.27,1.72-0.81,2.3S315.17,95.74,314.26,95.74z
			 M314.33,90.27c-0.62,0-1.11,0.21-1.46,0.63s-0.54,1-0.54,1.74c0,0.71,0.18,1.27,0.54,1.68s0.85,0.62,1.46,0.62
			c0.62,0,1.1-0.2,1.43-0.6s0.5-0.97,0.5-1.72c0-0.75-0.17-1.33-0.5-1.73S314.95,90.27,314.33,90.27z"/>
		<path fill="#001F50" d="M323.71,95.6h-0.96v-3.42c0-1.27-0.46-1.91-1.39-1.91c-0.48,0-0.88,0.18-1.19,0.54s-0.47,0.82-0.47,1.37
			v3.42h-0.96v-6h0.96v1h0.02c0.45-0.76,1.11-1.14,1.97-1.14c0.66,0,1.16,0.21,1.51,0.64s0.52,1.04,0.52,1.84V95.6z"/>
	</g>
	<g>
		<g>
			<path d="M19.48,10.2V1.8h3.06c0.94,0,1.66,0.17,2.16,0.52s0.76,0.83,0.76,1.45c0,0.45-0.15,0.85-0.46,1.19s-0.7,0.58-1.17,0.71
				v0.02c0.6,0.07,1.08,0.29,1.43,0.66s0.54,0.81,0.54,1.34c0,0.77-0.28,1.38-0.83,1.83s-1.3,0.68-2.26,0.68H19.48z M21.38,3.19
				v1.99h0.83c0.39,0,0.7-0.09,0.92-0.28s0.34-0.45,0.34-0.78c0-0.62-0.46-0.93-1.38-0.93H21.38z M21.38,6.59v2.21h1.03
				c0.44,0,0.78-0.1,1.03-0.3s0.37-0.48,0.37-0.83c0-0.34-0.12-0.6-0.37-0.79s-0.58-0.29-1.02-0.29H21.38z"/>
			<path d="M32.7,10.2h-1.85V9.29h-0.03c-0.46,0.71-1.07,1.06-1.83,1.06c-1.39,0-2.09-0.84-2.09-2.53V4.2h1.85v3.46
				c0,0.85,0.34,1.27,1.01,1.27c0.33,0,0.6-0.12,0.8-0.35s0.3-0.55,0.3-0.95V4.2h1.85V10.2z"/>
			<path d="M33.86,10.04v-1.5c0.3,0.18,0.61,0.32,0.91,0.41s0.59,0.13,0.86,0.13c0.33,0,0.59-0.04,0.78-0.13s0.28-0.23,0.28-0.41
				c0-0.12-0.04-0.21-0.13-0.29s-0.2-0.15-0.33-0.21s-0.28-0.11-0.44-0.16s-0.31-0.1-0.46-0.16c-0.24-0.09-0.45-0.19-0.63-0.29
				s-0.33-0.22-0.46-0.36s-0.22-0.29-0.28-0.47s-0.1-0.39-0.1-0.64c0-0.34,0.07-0.63,0.22-0.87s0.34-0.44,0.59-0.59
				s0.52-0.27,0.84-0.34s0.64-0.11,0.98-0.11c0.27,0,0.54,0.02,0.81,0.06s0.54,0.1,0.81,0.18v1.43c-0.23-0.14-0.49-0.24-0.75-0.31
				s-0.53-0.1-0.79-0.1c-0.12,0-0.24,0.01-0.34,0.03s-0.2,0.05-0.28,0.09s-0.15,0.09-0.19,0.16s-0.07,0.14-0.07,0.22
				c0,0.11,0.04,0.2,0.11,0.28s0.16,0.15,0.28,0.2s0.24,0.11,0.38,0.15s0.28,0.09,0.41,0.14c0.25,0.09,0.47,0.18,0.67,0.28
				s0.37,0.22,0.51,0.36s0.25,0.3,0.33,0.48s0.11,0.4,0.11,0.66c0,0.36-0.08,0.66-0.23,0.91s-0.36,0.46-0.62,0.62
				s-0.55,0.27-0.88,0.35s-0.68,0.11-1.04,0.11C35.04,10.35,34.43,10.25,33.86,10.04z"/>
			<path d="M40.47,3.25c-0.31,0-0.57-0.09-0.77-0.28s-0.3-0.41-0.3-0.68c0-0.28,0.1-0.5,0.3-0.68s0.46-0.26,0.77-0.26
				c0.32,0,0.57,0.09,0.77,0.26s0.3,0.4,0.3,0.68c0,0.28-0.1,0.51-0.3,0.69S40.79,3.25,40.47,3.25z M41.39,10.2h-1.85v-6h1.85V10.2z
				"/>
			<path d="M48.74,10.2h-1.85V6.87c0-0.93-0.33-1.39-1-1.39c-0.32,0-0.58,0.12-0.79,0.37S44.8,6.4,44.8,6.78v3.42h-1.85v-6h1.85
				v0.95h0.02c0.44-0.73,1.08-1.1,1.93-1.1c1.33,0,1.99,0.82,1.99,2.47V10.2z"/>
			<path d="M55.6,7.73h-3.91c0.06,0.87,0.61,1.31,1.65,1.31c0.66,0,1.24-0.16,1.74-0.47V9.9c-0.55,0.3-1.28,0.45-2.16,0.45
				c-0.97,0-1.72-0.27-2.26-0.81s-0.8-1.29-0.8-2.25c0-1,0.29-1.79,0.87-2.37S52,4.05,52.85,4.05c0.88,0,1.55,0.26,2.03,0.78
				s0.72,1.22,0.72,2.12V7.73z M53.88,6.59c0-0.86-0.35-1.29-1.04-1.29c-0.3,0-0.55,0.12-0.77,0.37s-0.35,0.55-0.4,0.92H53.88z"/>
			<path d="M56.3,10.04v-1.5c0.3,0.18,0.61,0.32,0.91,0.41s0.59,0.13,0.86,0.13c0.33,0,0.59-0.04,0.78-0.13s0.28-0.23,0.28-0.41
				c0-0.12-0.04-0.21-0.13-0.29s-0.2-0.15-0.33-0.21s-0.28-0.11-0.44-0.16s-0.31-0.1-0.46-0.16c-0.24-0.09-0.45-0.19-0.63-0.29
				s-0.33-0.22-0.46-0.36S56.47,6.78,56.4,6.6s-0.1-0.39-0.1-0.64c0-0.34,0.07-0.63,0.22-0.87s0.34-0.44,0.59-0.59
				s0.52-0.27,0.84-0.34s0.64-0.11,0.98-0.11c0.27,0,0.54,0.02,0.81,0.06s0.54,0.1,0.81,0.18v1.43c-0.23-0.14-0.49-0.24-0.75-0.31
				s-0.53-0.1-0.79-0.1c-0.12,0-0.24,0.01-0.34,0.03s-0.2,0.05-0.28,0.09s-0.15,0.09-0.19,0.16s-0.07,0.14-0.07,0.22
				c0,0.11,0.04,0.2,0.11,0.28s0.16,0.15,0.28,0.2s0.24,0.11,0.38,0.15s0.28,0.09,0.41,0.14c0.25,0.09,0.47,0.18,0.67,0.28
				s0.37,0.22,0.51,0.36s0.25,0.3,0.33,0.48s0.11,0.4,0.11,0.66c0,0.36-0.08,0.66-0.23,0.91s-0.36,0.46-0.62,0.62
				s-0.55,0.27-0.88,0.35s-0.68,0.11-1.04,0.11C57.48,10.35,56.87,10.25,56.3,10.04z"/>
			<path d="M61.58,10.04v-1.5c0.3,0.18,0.61,0.32,0.91,0.41s0.59,0.13,0.86,0.13c0.33,0,0.59-0.04,0.78-0.13
				c0.19-0.09,0.28-0.23,0.28-0.41c0-0.12-0.04-0.21-0.13-0.29s-0.2-0.15-0.33-0.21c-0.13-0.06-0.28-0.11-0.44-0.16
				s-0.31-0.1-0.46-0.16c-0.24-0.09-0.45-0.19-0.63-0.29s-0.33-0.22-0.46-0.36s-0.22-0.29-0.28-0.47s-0.1-0.39-0.1-0.64
				c0-0.34,0.07-0.63,0.22-0.87s0.34-0.44,0.59-0.59s0.52-0.27,0.84-0.34s0.64-0.11,0.98-0.11c0.27,0,0.54,0.02,0.81,0.06
				s0.54,0.1,0.81,0.18v1.43c-0.23-0.14-0.49-0.24-0.75-0.31s-0.53-0.1-0.79-0.1c-0.12,0-0.24,0.01-0.34,0.03
				c-0.11,0.02-0.2,0.05-0.28,0.09s-0.15,0.09-0.19,0.16s-0.07,0.14-0.07,0.22c0,0.11,0.04,0.2,0.11,0.28s0.16,0.15,0.28,0.2
				s0.24,0.11,0.38,0.15s0.28,0.09,0.41,0.14c0.25,0.09,0.47,0.18,0.67,0.28s0.37,0.22,0.51,0.36s0.25,0.3,0.33,0.48
				s0.11,0.4,0.11,0.66c0,0.36-0.08,0.66-0.23,0.91s-0.36,0.46-0.62,0.62s-0.55,0.27-0.88,0.35s-0.68,0.11-1.04,0.11
				C62.76,10.35,62.15,10.25,61.58,10.04z"/>
			<path d="M15.69,24.6h-2.06l-0.6-1.87h-2.99L9.45,24.6H7.4l3.06-8.4h2.24L15.69,24.6z M12.6,21.28l-0.9-2.82
				c-0.07-0.21-0.11-0.46-0.14-0.76h-0.05c-0.02,0.25-0.07,0.49-0.15,0.73l-0.91,2.85H12.6z"/>
			<path d="M18.44,23.9h-0.02v3.46h-1.85V18.6h1.85v0.9h0.02c0.46-0.7,1.1-1.05,1.93-1.05c0.78,0,1.38,0.27,1.8,0.8
				s0.64,1.26,0.64,2.18c0,1-0.25,1.8-0.74,2.41s-1.15,0.91-1.97,0.91C19.37,24.75,18.81,24.47,18.44,23.9z M18.38,21.44v0.48
				c0,0.41,0.11,0.75,0.33,1.01s0.51,0.39,0.86,0.39c0.42,0,0.75-0.16,0.98-0.49s0.35-0.79,0.35-1.39c0-1.05-0.41-1.58-1.23-1.58
				c-0.38,0-0.69,0.14-0.93,0.43S18.38,20.97,18.38,21.44z"/>
			<path d="M25.88,23.9h-0.02v3.46H24V18.6h1.85v0.9h0.02c0.46-0.7,1.1-1.05,1.93-1.05c0.78,0,1.38,0.27,1.8,0.8
				s0.64,1.26,0.64,2.18c0,1-0.25,1.8-0.74,2.41s-1.15,0.91-1.97,0.91C26.81,24.75,26.26,24.47,25.88,23.9z M25.82,21.44v0.48
				c0,0.41,0.11,0.75,0.33,1.01s0.51,0.39,0.86,0.39c0.42,0,0.75-0.16,0.98-0.49s0.35-0.79,0.35-1.39c0-1.05-0.41-1.58-1.23-1.58
				c-0.38,0-0.69,0.14-0.93,0.43S25.82,20.97,25.82,21.44z"/>
			<path d="M33.3,24.6h-1.85v-8.88h1.85V24.6z"/>
			<path d="M35.79,17.65c-0.31,0-0.57-0.09-0.77-0.28s-0.3-0.41-0.3-0.68c0-0.28,0.1-0.5,0.3-0.68s0.46-0.26,0.77-0.26
				c0.32,0,0.57,0.09,0.77,0.26s0.3,0.4,0.3,0.68c0,0.28-0.1,0.51-0.3,0.69S36.11,17.65,35.79,17.65z M36.71,24.6h-1.85v-6h1.85
				V24.6z"/>
			<path d="M42.81,24.38c-0.42,0.24-1.02,0.36-1.81,0.36c-0.92,0-1.67-0.28-2.24-0.84s-0.86-1.28-0.86-2.16
				c0-1.02,0.31-1.82,0.92-2.41s1.43-0.88,2.45-0.88c0.71,0,1.22,0.09,1.54,0.28v1.57c-0.39-0.29-0.82-0.43-1.29-0.43
				c-0.53,0-0.95,0.16-1.26,0.47s-0.47,0.74-0.47,1.29c0,0.53,0.15,0.95,0.45,1.25s0.71,0.45,1.22,0.45c0.46,0,0.91-0.14,1.35-0.43
				V24.38z"/>
			<path d="M49.02,24.6h-1.75v-0.86h-0.02c-0.4,0.67-1,1.01-1.79,1.01c-0.58,0-1.04-0.17-1.37-0.5s-0.5-0.77-0.5-1.32
				c0-1.16,0.69-1.84,2.07-2.02l1.63-0.22c0-0.66-0.36-0.98-1.07-0.98c-0.71,0-1.39,0.21-2.04,0.64v-1.39
				c0.26-0.13,0.61-0.25,1.06-0.35s0.85-0.15,1.22-0.15c1.71,0,2.57,0.85,2.57,2.56V24.6z M47.28,22.16v-0.4l-1.09,0.14
				c-0.6,0.08-0.9,0.35-0.9,0.81c0,0.21,0.07,0.38,0.22,0.52s0.34,0.2,0.59,0.2c0.35,0,0.63-0.12,0.85-0.36S47.28,22.53,47.28,22.16
				z"/>
			<path d="M54.11,24.53c-0.27,0.14-0.69,0.22-1.24,0.22c-1.3,0-1.96-0.68-1.96-2.03v-2.75h-0.97V18.6h0.97v-1.29l1.85-0.53v1.82
				h1.35v1.37h-1.35v2.43c0,0.63,0.25,0.94,0.74,0.94c0.2,0,0.4-0.06,0.6-0.17V24.53z"/>
			<path d="M56.09,17.65c-0.31,0-0.57-0.09-0.77-0.28s-0.3-0.41-0.3-0.68c0-0.28,0.1-0.5,0.3-0.68s0.46-0.26,0.77-0.26
				c0.32,0,0.57,0.09,0.77,0.26s0.3,0.4,0.3,0.68c0,0.28-0.1,0.51-0.3,0.69S56.4,17.65,56.09,17.65z M57,24.6h-1.85v-6H57V24.6z"/>
			<path d="M61.42,24.75c-1,0-1.79-0.28-2.36-0.84s-0.86-1.32-0.86-2.28c0-0.99,0.3-1.77,0.89-2.33s1.4-0.84,2.41-0.84
				c1,0,1.78,0.28,2.34,0.84c0.57,0.56,0.85,1.3,0.85,2.22c0,1-0.29,1.78-0.88,2.36C63.24,24.46,62.44,24.75,61.42,24.75z
				 M61.47,19.87c-0.44,0-0.78,0.15-1.02,0.45s-0.36,0.73-0.36,1.28c0,1.15,0.46,1.73,1.39,1.73c0.89,0,1.33-0.59,1.33-1.78
				C62.81,20.43,62.36,19.87,61.47,19.87z"/>
			<path d="M71.69,24.6h-1.85v-3.33c0-0.93-0.33-1.39-1-1.39c-0.32,0-0.58,0.12-0.79,0.37s-0.31,0.56-0.31,0.94v3.42H65.9v-6h1.85
				v0.95h0.02c0.44-0.73,1.08-1.1,1.93-1.1c1.33,0,1.99,0.82,1.99,2.47V24.6z"/>
			<path d="M72.76,24.44v-1.5c0.3,0.18,0.61,0.32,0.91,0.41s0.59,0.13,0.86,0.13c0.33,0,0.59-0.04,0.78-0.13s0.28-0.23,0.28-0.41
				c0-0.12-0.04-0.21-0.13-0.29s-0.2-0.15-0.33-0.21s-0.28-0.11-0.44-0.16s-0.31-0.1-0.46-0.16c-0.24-0.09-0.45-0.19-0.63-0.29
				s-0.33-0.22-0.46-0.36s-0.22-0.29-0.28-0.47s-0.1-0.39-0.1-0.64c0-0.34,0.07-0.63,0.22-0.87s0.34-0.44,0.59-0.59
				s0.52-0.27,0.84-0.34s0.64-0.11,0.98-0.11c0.27,0,0.54,0.02,0.81,0.06s0.54,0.1,0.81,0.18v1.43c-0.23-0.14-0.49-0.24-0.75-0.31
				s-0.53-0.1-0.79-0.1c-0.12,0-0.24,0.01-0.34,0.03s-0.2,0.05-0.28,0.09s-0.15,0.09-0.19,0.16s-0.07,0.14-0.07,0.22
				c0,0.11,0.04,0.2,0.11,0.28s0.16,0.15,0.28,0.2s0.24,0.11,0.38,0.15s0.28,0.09,0.41,0.14c0.25,0.09,0.47,0.18,0.67,0.28
				s0.37,0.22,0.51,0.36s0.25,0.3,0.33,0.48s0.11,0.4,0.11,0.66c0,0.36-0.08,0.66-0.23,0.91s-0.36,0.46-0.62,0.62
				s-0.55,0.27-0.88,0.35s-0.68,0.11-1.04,0.11C73.94,24.75,73.33,24.65,72.76,24.44z"/>
		</g>
	</g>
	<g>
		<g>
			<path d="M118.98,13.44h-2.06l-0.6-1.87h-2.99l-0.59,1.87h-2.05l3.06-8.4H116L118.98,13.44z M115.89,10.12l-0.9-2.82
				c-0.07-0.21-0.11-0.46-0.14-0.76h-0.05c-0.02,0.25-0.07,0.49-0.15,0.73l-0.91,2.85H115.89z"/>
			<path d="M124.6,13.44h-5.38v-0.77l3.01-3.87h-2.71V7.44h5.06v0.91l-2.85,3.72h2.88V13.44z"/>
			<path d="M131.3,13.44h-1.85v-0.91h-0.03c-0.46,0.71-1.07,1.06-1.83,1.06c-1.39,0-2.09-0.84-2.09-2.53V7.44h1.85v3.46
				c0,0.85,0.34,1.27,1.01,1.27c0.33,0,0.6-0.12,0.8-0.35s0.3-0.55,0.3-0.95V7.44h1.85V13.44z"/>
			<path d="M136.77,9.11c-0.22-0.12-0.48-0.18-0.78-0.18c-0.4,0-0.72,0.15-0.94,0.44s-0.34,0.7-0.34,1.2v2.87h-1.85v-6h1.85v1.11
				h0.02c0.29-0.81,0.82-1.22,1.58-1.22c0.2,0,0.35,0.02,0.46,0.07V9.11z"/>
			<path d="M142.98,10.96h-3.91c0.06,0.87,0.61,1.31,1.65,1.31c0.66,0,1.24-0.16,1.74-0.47v1.34c-0.55,0.3-1.28,0.45-2.16,0.45
				c-0.97,0-1.72-0.27-2.26-0.81s-0.8-1.29-0.8-2.25c0-1,0.29-1.79,0.87-2.37s1.29-0.87,2.13-0.87c0.88,0,1.55,0.26,2.03,0.78
				s0.72,1.22,0.72,2.12V10.96z M141.26,9.83c0-0.86-0.35-1.29-1.04-1.29c-0.3,0-0.55,0.12-0.77,0.37s-0.35,0.55-0.4,0.92H141.26z"
				/>
			<path d="M147.19,13.12v-1.88c0.34,0.29,0.71,0.5,1.11,0.64s0.8,0.21,1.21,0.21c0.24,0,0.45-0.02,0.62-0.06s0.33-0.1,0.45-0.18
				s0.21-0.17,0.27-0.27s0.09-0.22,0.09-0.34c0-0.16-0.05-0.31-0.14-0.44s-0.22-0.25-0.38-0.36s-0.35-0.21-0.58-0.32
				s-0.46-0.21-0.72-0.31c-0.66-0.27-1.15-0.61-1.47-1s-0.48-0.87-0.48-1.43c0-0.44,0.09-0.81,0.26-1.13s0.42-0.57,0.72-0.78
				s0.65-0.35,1.05-0.45s0.82-0.14,1.27-0.14c0.44,0,0.83,0.03,1.16,0.08s0.65,0.13,0.93,0.24v1.75c-0.14-0.1-0.29-0.18-0.46-0.26
				s-0.34-0.14-0.51-0.18s-0.35-0.08-0.52-0.11s-0.34-0.04-0.5-0.04c-0.21,0-0.41,0.02-0.59,0.06s-0.32,0.1-0.45,0.17
				s-0.21,0.16-0.28,0.27s-0.1,0.22-0.1,0.35c0,0.14,0.04,0.27,0.11,0.38s0.18,0.22,0.32,0.32s0.3,0.2,0.5,0.29s0.42,0.19,0.66,0.3
				c0.34,0.14,0.64,0.29,0.91,0.45s0.5,0.34,0.69,0.54s0.34,0.43,0.44,0.68s0.15,0.55,0.15,0.89c0,0.47-0.09,0.86-0.27,1.18
				s-0.42,0.58-0.72,0.77s-0.66,0.34-1.06,0.42s-0.83,0.13-1.28,0.13c-0.46,0-0.9-0.04-1.32-0.12S147.49,13.27,147.19,13.12z"/>
			<path d="M157.45,13.37c-0.27,0.14-0.69,0.22-1.24,0.22c-1.3,0-1.96-0.68-1.96-2.03V8.8h-0.97V7.44h0.97V6.14l1.85-0.53v1.82h1.35
				V8.8h-1.35v2.43c0,0.63,0.25,0.94,0.74,0.94c0.2,0,0.4-0.06,0.6-0.17V13.37z"/>
			<path d="M161.3,13.58c-1,0-1.79-0.28-2.36-0.84s-0.86-1.32-0.86-2.28c0-0.99,0.3-1.77,0.89-2.33s1.4-0.84,2.41-0.84
				c1,0,1.78,0.28,2.34,0.84s0.85,1.3,0.85,2.22c0,1-0.29,1.78-0.88,2.36S162.32,13.58,161.3,13.58z M161.35,8.71
				c-0.44,0-0.78,0.15-1.02,0.45s-0.36,0.73-0.36,1.28c0,1.15,0.46,1.73,1.39,1.73c0.89,0,1.33-0.59,1.33-1.78
				C162.69,9.27,162.24,8.71,161.35,8.71z"/>
			<path d="M169.69,9.11c-0.22-0.12-0.48-0.18-0.78-0.18c-0.4,0-0.72,0.15-0.94,0.44s-0.34,0.7-0.34,1.2v2.87h-1.85v-6h1.85v1.11
				h0.02c0.29-0.81,0.82-1.22,1.58-1.22c0.2,0,0.35,0.02,0.46,0.07V9.11z"/>
			<path d="M175.55,13.44h-1.75v-0.86h-0.02c-0.4,0.67-1,1.01-1.79,1.01c-0.58,0-1.04-0.17-1.37-0.5s-0.5-0.77-0.5-1.32
				c0-1.16,0.69-1.84,2.07-2.02l1.63-0.22c0-0.66-0.36-0.98-1.07-0.98c-0.71,0-1.39,0.21-2.04,0.64V7.79
				c0.26-0.13,0.61-0.25,1.06-0.35s0.85-0.15,1.22-0.15c1.71,0,2.57,0.85,2.57,2.56V13.44z M173.8,11v-0.4l-1.09,0.14
				c-0.6,0.08-0.9,0.35-0.9,0.81c0,0.21,0.07,0.38,0.22,0.52s0.34,0.2,0.59,0.2c0.35,0,0.63-0.12,0.85-0.36S173.8,11.37,173.8,11z"
				/>
			<path d="M182.89,12.75c0,1.11-0.32,1.98-0.97,2.59s-1.58,0.92-2.8,0.92c-0.81,0-1.45-0.12-1.92-0.35v-1.56
				c0.62,0.36,1.24,0.54,1.87,0.54c0.63,0,1.11-0.17,1.45-0.5s0.52-0.78,0.52-1.34v-0.47h-0.02c-0.42,0.67-1.04,1.01-1.87,1.01
				c-0.77,0-1.37-0.27-1.82-0.81s-0.67-1.26-0.67-2.17c0-1.02,0.25-1.82,0.75-2.42s1.16-0.9,1.97-0.9c0.73,0,1.28,0.28,1.64,0.84
				h0.02v-0.7h1.85V12.75z M181.06,10.55v-0.47c0-0.38-0.11-0.7-0.34-0.97s-0.52-0.4-0.88-0.4c-0.41,0-0.73,0.16-0.97,0.48
				s-0.35,0.77-0.35,1.35c0,0.5,0.11,0.9,0.33,1.19s0.53,0.44,0.91,0.44c0.38,0,0.69-0.15,0.93-0.44S181.06,11.04,181.06,10.55z"/>
			<path d="M189.83,10.96h-3.91c0.06,0.87,0.61,1.31,1.65,1.31c0.66,0,1.24-0.16,1.74-0.47v1.34c-0.55,0.3-1.28,0.45-2.16,0.45
				c-0.97,0-1.72-0.27-2.26-0.81s-0.8-1.29-0.8-2.25c0-1,0.29-1.79,0.87-2.37s1.29-0.87,2.13-0.87c0.88,0,1.55,0.26,2.03,0.78
				s0.72,1.22,0.72,2.12V10.96z M188.11,9.83c0-0.86-0.35-1.29-1.04-1.29c-0.3,0-0.55,0.12-0.77,0.37s-0.35,0.55-0.4,0.92H188.11z"
				/>
			<path d="M114.27,26.78c-1,0-1.79-0.28-2.36-0.84s-0.86-1.32-0.86-2.28c0-0.99,0.3-1.77,0.89-2.33s1.4-0.84,2.41-0.84
				c1,0,1.78,0.28,2.34,0.84s0.85,1.3,0.85,2.22c0,1-0.29,1.78-0.88,2.36S115.29,26.78,114.27,26.78z M114.32,21.91
				c-0.44,0-0.78,0.15-1.02,0.45s-0.36,0.73-0.36,1.28c0,1.15,0.46,1.73,1.39,1.73c0.89,0,1.33-0.59,1.33-1.78
				C115.66,22.47,115.22,21.91,114.32,21.91z"/>
			<path d="M122.66,22.31c-0.22-0.12-0.48-0.18-0.78-0.18c-0.4,0-0.72,0.15-0.94,0.44s-0.34,0.7-0.34,1.2v2.87h-1.85v-6h1.85v1.11
				h0.02c0.29-0.81,0.82-1.22,1.58-1.22c0.2,0,0.35,0.02,0.46,0.07V22.31z"/>
			<path d="M130.75,19.17c-0.24-0.09-0.47-0.14-0.69-0.14c-0.59,0-0.89,0.32-0.89,0.97v0.64h1.37V22h-1.37v4.63h-1.85V22h-1.01
				v-1.37h1.01v-0.74c0-0.68,0.22-1.23,0.67-1.65c0.45-0.42,1.05-0.63,1.82-0.63c0.38,0,0.69,0.04,0.94,0.12V19.17z"/>
			<path d="M132.37,19.69c-0.31,0-0.57-0.09-0.77-0.28s-0.3-0.41-0.3-0.68c0-0.28,0.1-0.5,0.3-0.68s0.46-0.26,0.77-0.26
				c0.32,0,0.57,0.09,0.77,0.26s0.3,0.4,0.3,0.68c0,0.28-0.1,0.51-0.3,0.69S132.69,19.69,132.37,19.69z M133.29,26.64h-1.85v-6h1.85
				V26.64z"/>
			<path d="M136.7,26.64h-1.85v-8.88h1.85V26.64z"/>
			<path d="M143.65,24.17h-3.91c0.06,0.87,0.61,1.31,1.65,1.31c0.66,0,1.24-0.16,1.74-0.47v1.34c-0.55,0.3-1.28,0.45-2.16,0.45
				c-0.97,0-1.72-0.27-2.26-0.81s-0.8-1.29-0.8-2.25c0-1,0.29-1.79,0.87-2.37s1.29-0.87,2.13-0.87c0.88,0,1.55,0.26,2.03,0.78
				s0.72,1.22,0.72,2.12V24.17z M141.93,23.03c0-0.86-0.35-1.29-1.04-1.29c-0.3,0-0.55,0.12-0.77,0.37s-0.35,0.55-0.4,0.92H141.93z"
				/>
			<path d="M147.67,26.48v-1.5c0.3,0.18,0.61,0.32,0.91,0.41s0.59,0.13,0.86,0.13c0.33,0,0.59-0.04,0.78-0.13s0.28-0.23,0.28-0.41
				c0-0.12-0.04-0.21-0.13-0.29s-0.2-0.15-0.33-0.21s-0.28-0.11-0.44-0.16s-0.31-0.1-0.46-0.16c-0.24-0.09-0.45-0.19-0.63-0.29
				s-0.33-0.22-0.46-0.36s-0.22-0.29-0.28-0.47s-0.1-0.39-0.1-0.64c0-0.34,0.07-0.63,0.22-0.87s0.34-0.44,0.59-0.59
				s0.52-0.27,0.84-0.34s0.64-0.11,0.98-0.11c0.27,0,0.54,0.02,0.81,0.06s0.54,0.1,0.81,0.18v1.43c-0.23-0.14-0.49-0.24-0.75-0.31
				s-0.53-0.1-0.79-0.1c-0.12,0-0.24,0.01-0.34,0.03s-0.2,0.05-0.28,0.09s-0.15,0.09-0.19,0.16s-0.07,0.14-0.07,0.22
				c0,0.11,0.04,0.2,0.11,0.28s0.16,0.15,0.28,0.2s0.24,0.11,0.38,0.15s0.28,0.09,0.41,0.14c0.25,0.09,0.47,0.18,0.67,0.28
				s0.37,0.22,0.51,0.36s0.25,0.3,0.33,0.48s0.11,0.4,0.11,0.66c0,0.36-0.08,0.66-0.23,0.91s-0.36,0.46-0.62,0.62
				s-0.55,0.27-0.88,0.35s-0.68,0.11-1.04,0.11C148.84,26.78,148.23,26.68,147.67,26.48z"/>
			<path d="M159.05,20.64l-2.44,6.48c-0.59,1.56-1.47,2.34-2.65,2.34c-0.45,0-0.82-0.05-1.11-0.15v-1.48
				c0.25,0.14,0.51,0.22,0.8,0.22c0.48,0,0.81-0.22,1-0.67l0.32-0.74l-2.44-5.99h2.05l1.12,3.65c0.07,0.23,0.13,0.49,0.16,0.8h0.02
				c0.04-0.23,0.1-0.49,0.19-0.79l1.13-3.66H159.05z"/>
			<path d="M159.4,26.48v-1.5c0.3,0.18,0.61,0.32,0.91,0.41s0.59,0.13,0.86,0.13c0.33,0,0.59-0.04,0.78-0.13s0.28-0.23,0.28-0.41
				c0-0.12-0.04-0.21-0.13-0.29s-0.2-0.15-0.33-0.21s-0.28-0.11-0.44-0.16s-0.31-0.1-0.46-0.16c-0.24-0.09-0.45-0.19-0.63-0.29
				s-0.33-0.22-0.46-0.36s-0.22-0.29-0.28-0.47s-0.1-0.39-0.1-0.64c0-0.34,0.07-0.63,0.22-0.87s0.34-0.44,0.59-0.59
				s0.52-0.27,0.84-0.34s0.64-0.11,0.98-0.11c0.27,0,0.54,0.02,0.81,0.06s0.54,0.1,0.81,0.18v1.43c-0.23-0.14-0.49-0.24-0.75-0.31
				s-0.53-0.1-0.79-0.1c-0.12,0-0.24,0.01-0.34,0.03s-0.2,0.05-0.28,0.09s-0.15,0.09-0.19,0.16s-0.07,0.14-0.07,0.22
				c0,0.11,0.04,0.2,0.11,0.28s0.16,0.15,0.28,0.2s0.24,0.11,0.38,0.15s0.28,0.09,0.41,0.14c0.25,0.09,0.47,0.18,0.67,0.28
				s0.37,0.22,0.51,0.36s0.25,0.3,0.33,0.48s0.11,0.4,0.11,0.66c0,0.36-0.08,0.66-0.23,0.91s-0.36,0.46-0.62,0.62
				s-0.55,0.27-0.88,0.35s-0.68,0.11-1.04,0.11C160.58,26.78,159.97,26.68,159.4,26.48z"/>
			<path d="M168.7,26.57c-0.27,0.14-0.69,0.22-1.24,0.22c-1.3,0-1.96-0.68-1.96-2.03V22h-0.97v-1.37h0.97v-1.29l1.85-0.53v1.82h1.35
				V22h-1.35v2.43c0,0.63,0.25,0.94,0.74,0.94c0.2,0,0.4-0.06,0.6-0.17V26.57z"/>
			<path d="M175.09,24.17h-3.91c0.06,0.87,0.61,1.31,1.65,1.31c0.66,0,1.24-0.16,1.74-0.47v1.34c-0.55,0.3-1.28,0.45-2.16,0.45
				c-0.97,0-1.72-0.27-2.26-0.81s-0.8-1.29-0.8-2.25c0-1,0.29-1.79,0.87-2.37s1.29-0.87,2.13-0.87c0.88,0,1.55,0.26,2.03,0.78
				s0.72,1.22,0.72,2.12V24.17z M173.37,23.03c0-0.86-0.35-1.29-1.04-1.29c-0.3,0-0.55,0.12-0.77,0.37s-0.35,0.55-0.4,0.92H173.37z"
				/>
			<path d="M185.72,26.64h-1.85v-3.42c0-0.87-0.32-1.31-0.96-1.31c-0.3,0-0.55,0.13-0.74,0.39s-0.29,0.59-0.29,0.98v3.36h-1.85
				v-3.46c0-0.85-0.31-1.27-0.94-1.27c-0.32,0-0.57,0.13-0.76,0.38s-0.28,0.59-0.28,1.02v3.33h-1.85v-6h1.85v0.94h0.02
				c0.19-0.32,0.46-0.58,0.81-0.78s0.72-0.3,1.13-0.3c0.85,0,1.43,0.37,1.74,1.12c0.46-0.75,1.13-1.12,2.02-1.12
				c1.3,0,1.96,0.8,1.96,2.41V26.64z"/>
		</g>
	</g>
	<g>
	</g>
	<g>
	</g>
	<g>
	</g>
	<g>
	</g>
	<g>
	</g>
	<g>
	</g>
	<g>
	</g>
	<g>
	</g>
	<g>
	</g>
	<g>
	</g>
	<g>
	</g>
	<g>
	</g>
	<g>
	</g>
	<g>
	</g>
	<g>
	</g>
	<g>
	</g>
	<g>
	</g>
	<g>
	</g>
	<g>
	</g>
	<g>
	</g>
	<g>
	</g>
	<g>
	</g>
	<g>
	</g>
	<g>
	</g>
	<g>
	</g>
	<g>
	</g>
	<g>
	</g>
	<g>
	</g>
	<g>
	</g>
	<g>
	</g>
	<g>
	</g>
	<g>
	</g>
	<g>
	</g>
	<g>
	</g>
	<g>
	</g>
	<g>
	</g>
	<g>
	</g>
	<g>
	</g>
	<g>
	</g>
	<g>
	</g>
	<g>
	</g>
	<g>
	</g>
	<g>
	</g>
	<g>
	</g>
	<g>
	</g>
	<g>
	</g>
	<g>
	</g>
	<g>
	</g>
	<g>
	</g>
	<g>
	</g>
	<g>
	</g>
	<g>
	</g>
	<g>
	</g>
	<g>
	</g>
	<g>
	</g>
	<g>
	</g>
	<g>
	</g>
	<g>
	</g>
	<g>
	</g>
	<g>
	</g>
	<g>
	</g>
	<g>
	</g>
	<g>
	</g>
	<g>
	</g>
	<g>
	</g>
	<g>
	</g>
	<g>
	</g>
	<g>
	</g>
	<g>
	</g>
	<g>
	</g>
	<g>
	</g>
	<g>
	</g>
	<g>
	</g>
	<g>
	</g>
	<g>
	</g>
	<g>
	</g>
	<g>
	</g>
	<g>
	</g>
	<g>
	</g>
	<g>
	</g>
	<g>
	</g>
	<g>
	</g>
	<g>
	</g>
	<g>
	</g>
	<g>
	</g>
	<g>
	</g>
	<g>
	</g>
	<g>
	</g>
	<g>
	</g>
	<g>
	</g>
	<g>
	</g>
	<g>
	</g>
	<g>
	</g>
	<g>
	</g>
	<g>
	</g>
	<g>
	</g>
	<g>
	</g>
	<g>
	</g>
	<g>
	</g>
	<g>
	</g>
	<g>
	</g>
	<g>
	</g>
	<g>
	</g>
	<g>
	</g>
	<g>
	</g>
	<g>
	</g>
	<g>
	</g>
	<g>
	</g>
	<g>
	</g>
	<g>
	</g>
	<g>
	</g>
	<g>
	</g>
	<g>
	</g>
	<g>
	</g>
	<g>
	</g>
	<g>
	</g>
	<g>
	</g>
	<g>
	</g>
	<g>
	</g>
	<g>
	</g>
	<g>
	</g>
	<g>
	</g>
	<g>
	</g>
	<g>
	</g>
	<g>
	</g>
	<g>
	</g>
	<g>
	</g>
	<g>
	</g>
	<g>
	</g>
	<g>
	</g>
	<g>
	</g>
	<g>
	</g>
	<g>
	</g>
	<g>
	</g>
	<g>
	</g>
	<g>
	</g>
	<g>
	</g>
	<g>
	</g>
	<g>
	</g>
	<g>
	</g>
	<g>
	</g>
	<g>
	</g>
	<g>
	</g>
	<g>
	</g>
	<g>
	</g>
	<g>
	</g>
	<g>
	</g>
	<g>
	</g>
	<g>
	</g>
	<g>
	</g>
	<g>
	</g>
	<g>
	</g>
	<g>
	</g>
	<g>
	</g>
	<g>
	</g>
	<g>
	</g>
	<g>
	</g>
	<g>
	</g>
	<g>
	</g>
	<g>
	</g>
	<g>
	</g>
	<g>
	</g>
	<g>
	</g>
	<g>
	</g>
	<g>
	</g>
	<g>
	</g>
	<g>
	</g>
	<g>
	</g>
	<g>
	</g>
	<g>
	</g>
	<g>
	</g>
	<g>
	</g>
	<g>
	</g>
	<g>
	</g>
	<g>
	</g>
	<g>
	</g>
	<g>
	</g>
	<g>
	</g>
	<g>
	</g>
	<g>
	</g>
	<g>
	</g>
	<g>
	</g>
	<g>
	</g>
	<g>
	</g>
	<g>
	</g>
	<g>
	</g>
	<g>
	</g>
	<g>
	</g>
	<g>
	</g>
	<g>
	</g>
	<g>
	</g>
	<g>
	</g>
	<g>
	</g>
	<g>
	</g>
	<g>
	</g>
	<g>
	</g>
	<g>
	</g>
	<g>
	</g>
	<g>
	</g>
	<g>
	</g>
	<g>
	</g>
	<g>
	</g>
	<g>
	</g>
	<g>
	</g>
	<g>
	</g>
	<g>
	</g>
	<g>
	</g>
	<g>
	</g>
	<g>
	</g>
	<g>
	</g>
	<g>
	</g>
	<g>
	</g>
	<g>
	</g>
	<g>
	</g>
	<g>
	</g>
	<g>
	</g>
	<g>
	</g>
	<g>
	</g>
	<g>
	</g>
	<g>
	</g>
	<g>
	</g>
	<g>
	</g>
	<g>
	</g>
	<g>
	</g>
	<g>
	</g>
	<g>
	</g>
	<g>
	</g>
	<g>
	</g>
	<g>
	</g>
	<g>
	</g>
	<g>
	</g>
	<g>
	</g>
	<g>
	</g>
	<g>
	</g>
	<g>
	</g>
	<g>
	</g>
	<g>
	</g>
	<g>
	</g>
	<g>
	</g>
	<g>
	</g>
	<g>
	</g>
	<g>
	</g>
	<g>
	</g>
	<g>
	</g>
	<g>
	</g>
	<g>
	</g>
	<g>
	</g>
	<g>
	</g>
	<g>
	</g>
	<g>
	</g>
	<g>
	</g>
	<g>
	</g>
	<g>
	</g>
	<g>
	</g>
	<g>
	</g>
	<g>
	</g>
	<g>
	</g>
	<g>
	</g>
	<g>
	</g>
	<g>
	</g>
	<g>
	</g>
	<g>
	</g>
	<g>
	</g>
	<g>
	</g>
	<g>
	</g>
	<g>
	</g>
	<g>
	</g>
	<g>
	</g>
	<g>
	</g>
	<g>
	</g>
	<g>
	</g>
	<g>
	</g>
	<g>
	</g>
	<g>
	</g>
	<g>
	</g>
	<g>
	</g>
	<g>
	</g>
	<g>
	</g>
	<g>
	</g>
	<g>
	</g>
	<g>
	</g>
	<g>
	</g>
	<g>
	</g>
	<g>
	</g>
	<g>
	</g>
	<g>
	</g>
	<g>
	</g>
	<g>
	</g>
	<g>
	</g>
	<g>
	</g>
	<g>
	</g>
	<g>
	</g>
	<g>
	</g>
	<g>
	</g>
	<g>
	</g>
	<g>
	</g>
	<g>
	</g>
	<g>
	</g>
	<g>
	</g>
	<g>
	</g>
	<g>
	</g>
	<g>
	</g>
	<g>
	</g>
	<g>
	</g>
	<g>
	</g>
	<g>
	</g>
	<g>
	</g>
	<g>
	</g>
	<g>
	</g>
	<g>
	</g>
	<g>
	</g>
	<g>
	</g>
	<g>
	</g>
	<g>
	</g>
	<g>
	</g>
	<g>
	</g>
	<g>
	</g>
	<g>
	</g>
	<g>
	</g>
	<g>
	</g>
	<g>
	</g>
	<g>
	</g>
	<g>
	</g>
	<g>
	</g>
	<g>
	</g>
	<g>
	</g>
	<g>
	</g>
	<g>
	</g>
	<g>
	</g>
	<g>
	</g>
	<g>
	</g>
	<g>
	</g>
	<g>
	</g>
	<g>
	</g>
	<g>
	</g>
	<g>
	</g>
	<g>
	</g>
	<g>
	</g>
	<g>
	</g>
	<g>
	</g>
	<g>
	</g>
	<g>
	</g>
	<g>
	</g>
	<g>
	</g>
	<g>
	</g>
	<g>
	</g>
	<g>
	</g>
	<g>
	</g>
	<g>
	</g>
	<g>
	</g>
	<g>
	</g>
	<g>
	</g>
	<g>
	</g>
	<g>
	</g>
	<g>
	</g>
	<g>
	</g>
	<g>
	</g>
	<g>
	</g>
	<g>
	</g>
	<g>
	</g>
	<g>
	</g>
	<g>
	</g>
	<g>
	</g>
	<g>
	</g>
	<g>
	</g>
	<g>
	</g>
	<g>
	</g>
	<g>
	</g>
	<g>
	</g>
	<g>
	</g>
	<g>
	</g>
	<g>
	</g>
	<g>
	</g>
	<g>
	</g>
	<g>
	</g>
	<g>
	</g>
	<g>
	</g>
	<g>
	</g>
	<g>
	</g>
	<g>
	</g>
	<g>
	</g>
	<g>
	</g>
	<g>
	</g>
	<g>
	</g>
	<g>
	</g>
	<g>
	</g>
	<g>
	</g>
	<g>
	</g>
	<g>
	</g>
	<g>
	</g>
	<g>
	</g>
	<g>
	</g>
	<g>
	</g>
	<g>
	</g>
	<g>
	</g>
	<g>
	</g>
	<g>
	</g>
	<g>
	</g>
	<g>
	</g>
	<g>
	</g>
	<g>
	</g>
	<g>
	</g>
	<g>
	</g>
	<g>
	</g>
	<g>
	</g>
	<g>
	</g>
	<g>
	</g>
	<g>
	</g>
	<g>
	</g>
	<g>
	</g>
	<g>
	</g>
	<g>
	</g>
	<g>
	</g>
	<g>
	</g>
	<g>
	</g>
	<g>
	</g>
	<g>
	</g>
	<g>
	</g>
	<g>
	</g>
	<g>
	</g>
	<g>
	</g>
	<g>
	</g>
	<g>
	</g>
	<g>
	</g>
	<g>
	</g>
	<g>
	</g>
	<g>
	</g>
	<g>
	</g>
	<g>
	</g>
	<g>
	</g>
	<g>
	</g>
	<g>
	</g>
	<g>
	</g>
	<g>
	</g>
	<g>
	</g>
	<g>
	</g>
	<g>
	</g>
	<g>
	</g>
	<g>
	</g>
	<g>
	</g>
	<g>
	</g>
	<g>
	</g>
	<g>
	</g>
	<g>
	</g>
	<g>
	</g>
	<g>
	</g>
	<g>
	</g>
	<g>
	</g>
	<g>
	</g>
	<g>
	</g>
	<g>
	</g>
	<g>
	</g>
	<g>
	</g>
	<g>
	</g>
	<g>
	</g>
	<g>
	</g>
	<g>
	</g>
	<g>
	</g>
	<g>
	</g>
	<g>
	</g>
	<g>
	</g>
	<g>
	</g>
	<g>
	</g>
	<g>
	</g>
	<g>
	</g>
	<g>
	</g>
	<g>
	</g>
	<g>
	</g>
	<g>
	</g>
	<g>
	</g>
	<g>
	</g>
	<g>
	</g>
	<g>
	</g>
	<g>
	</g>
	<g>
	</g>
	<g>
	</g>
	<g>
	</g>
	<g>
	</g>
	<g>
	</g>
	<g>
	</g>
	<g>
	</g>
	<g>
	</g>
	<g>
	</g>
	<g>
	</g>
	<g>
	</g>
	<g>
	</g>
	<g>
	</g>
	<g>
	</g>
	<g>
	</g>
	<g>
	</g>
	<g>
	</g>
	<g>
	</g>
	<g>
	</g>
	<g>
	</g>
	<g>
	</g>
	<g>
	</g>
	<g>
	</g>
	<g>
	</g>
	<g>
	</g>
	<g>
	</g>
	<g>
	</g>
	<g>
	</g>
	<g>
	</g>
	<g>
	</g>
	<g>
	</g>
	<g>
	</g>
	<g>
	</g>
	<g>
	</g>
	<g>
	</g>
	<g>
	</g>
	<g>
	</g>
	<g>
	</g>
	<g>
	</g>
	<g>
	</g>
	<g>
	</g>
	<g>
	</g>
	<g>
	</g>
	<g>
	</g>
	<g>
	</g>
	<g>
	</g>
	<g>
	</g>
	<g>
	</g>
	<g>
	</g>
	<g>
	</g>
	<g>
	</g>
	<g>
	</g>
	<g>
	</g>
	<g>
	</g>
	<g>
	</g>
	<g>
	</g>
	<g>
	</g>
	<g>
	</g>
	<g>
	</g>
	<g>
	</g>
	<g>
	</g>
	<g>
	</g>
	<g>
	</g>
	<g>
	</g>
	<g>
	</g>
	<g>
	</g>
	<g>
	</g>
	<g>
	</g>
	<g>
	</g>
	<g>
	</g>
	<g>
	</g>
	<g>
	</g>
	<g>
	</g>
	<g>
	</g>
	<g>
	</g>
	<g>
	</g>
	<g>
	</g>
	<g>
	</g>
	<g>
	</g>
	<g>
	</g>
	<g>
	</g>
	<g>
	</g>
	<g>
	</g>
	<g>
	</g>
	<g>
	</g>
	<g>
	</g>
	<g>
	</g>
	<g>
	</g>
	<g>
	</g>
	<g>
	</g>
	<g>
	</g>
	<g>
	</g>
	<g>
	</g>
	<g>
	</g>
	<g>
	</g>
	<g>
	</g>
	<g>
	</g>
	<g>
	</g>
	<g>
	</g>
	<g>
	</g>
	<g>
	</g>
	<g>
	</g>
	<g>
	</g>
	<g>
	</g>
	<g>
	</g>
	<g>
	</g>
	<g>
	</g>
	<g>
	</g>
	<g>
	</g>
	<g>
	</g>
	<g>
	</g>
	<g>
	</g>
	<g>
	</g>
	<g>
	</g>
	<g>
	</g>
	<g>
	</g>
	<g>
	</g>
	<g>
	</g>
	<g>
	</g>
	<g>
	</g>
	<g>
	</g>
	<g>
	</g>
	<g>
	</g>
	<g>
	</g>
	<g>
	</g>
	<g>
	</g>
	<g>
	</g>
	<g>
	</g>
	<g>
	</g>
	<g>
	</g>
	<g>
	</g>
	<g>
	</g>
	<g>
	</g>
	<g>
	</g>
	<g>
	</g>
	<g>
	</g>
	<g>
	</g>
	<g>
	</g>
	<g>
	</g>
	<g>
	</g>
	<g>
	</g>
	<g>
	</g>
	<g>
	</g>
	<g>
	</g>
	<g>
	</g>
	<g>
	</g>
	<g>
	</g>
	<g>
	</g>
	<g>
	</g>
	<g>
	</g>
	<g>
	</g>
	<g>
	</g>
	<g>
	</g>
	<g>
	</g>
	<g>
	</g>
	<g>
	</g>
	<g>
	</g>
	<g>
	</g>
	<g>
	</g>
	<g>
	</g>
	<g>
	</g>
	<g>
	</g>
	<g>
	</g>
	<g>
	</g>
	<g>
	</g>
	<g>
	</g>
	<g>
	</g>
	<g>
	</g>
	<g>
	</g>
	<g>
	</g>
	<g>
	</g>
	<g>
	</g>
	<g>
	</g>
	<g>
	</g>
	<g>
	</g>
	<g>
	</g>
	<g>
	</g>
	<g>
	</g>
	<g>
	</g>
	<g>
	</g>
	<g>
	</g>
	<g>
	</g>
	<g>
	</g>
	<g>
	</g>
	<g>
	</g>
	<g>
	</g>
	<g>
	</g>
	<g>
	</g>
	<g>
	</g>
	<g>
	</g>
	<g>
	</g>
	<g>
	</g>
	<g>
	</g>
	<g>
	</g>
	<g>
	</g>
	<g>
	</g>
	<g>
	</g>
	<g>
	</g>
	<g>
	</g>
	<g>
	</g>
	<g>
	</g>
	<g>
	</g>
	<g>
	</g>
	<g>
	</g>
	<g>
	</g>
	<g>
	</g>
	<g>
	</g>
	<g>
	</g>
	<g>
	</g>
	<g>
	</g>
	<g>
	</g>
	<g>
	</g>
	<g>
	</g>
	<g>
	</g>
	<g>
	</g>
	<g>
	</g>
	<g>
	</g>
	<g>
	</g>
	<g>
	</g>
	<g>
	</g>
	<g>
	</g>
	<g>
	</g>
	<g>
	</g>
	<g>
	</g>
	<g>
	</g>
	<g>
	</g>
	<g>
	</g>
	<g>
	</g>
	<g>
	</g>
	<g>
	</g>
	<g>
	</g>
	<g>
	</g>
	<g>
	</g>
	<g>
	</g>
	<g>
	</g>
	<g>
	</g>
	<g>
	</g>
	<g>
	</g>
	<g>
	</g>
	<g>
	</g>
	<g>
	</g>
	<g>
	</g>
	<g>
	</g>
	<g>
	</g>
	<g>
	</g>
	<g>
	</g>
	<g>
	</g>
	<g>
	</g>
	<g>
	</g>
	<g>
	</g>
	<g>
	</g>
	<g>
	</g>
	<g>
	</g>
	<g>
	</g>
	<g>
	</g>
	<g>
	</g>
	<g>
	</g>
	<g>
	</g>
	<g>
	</g>
	<g>
	</g>
	<g>
	</g>
	<g>
	</g>
	<g>
	</g>
	<g>
	</g>
	<g>
	</g>
	<g>
	</g>
	<g>
	</g>
	<g>
	</g>
	<g>
	</g>
	<g>
	</g>
	<g>
	</g>
	<g>
	</g>
	<g>
	</g>
	<g>
	</g>
	<g>
	</g>
	<g>
	</g>
	<g>
	</g>
	<g>
	</g>
	<g>
	</g>
	<g>
	</g>
	<g>
	</g>
	<g>
	</g>
	<g>
	</g>
	<g>
	</g>
	<g>
	</g>
	<g>
	</g>
	<g>
	</g>
	<g>
	</g>
	<g>
	</g>
	<g>
	</g>
	<g>
	</g>
	<g>
	</g>
	<g>
	</g>
	<g>
	</g>
	<g>
	</g>
	<g>
	</g>
	<g>
	</g>
	<g>
	</g>
	<g>
	</g>
	<g>
	</g>
	<g>
	</g>
	<g>
	</g>
	<g>
	</g>
	<g>
	</g>
	<g>
	</g>
	<g>
	</g>
	<g>
	</g>
	<g>
	</g>
	<g>
	</g>
	<g>
	</g>
	<g>
	</g>
	<g>
	</g>
	<g>
	</g>
	<g>
	</g>
	<g>
	</g>
	<g>
	</g>
	<g>
	</g>
	<g>
	</g>
	<g>
	</g>
	<g>
	</g>
	<g>
	</g>
	<g>
	</g>
	<g>
	</g>
	<g>
	</g>
	<g>
	</g>
	<g>
	</g>
	<g>
	</g>
	<g>
	</g>
	<g>
	</g>
	<g>
	</g>
	<g>
	</g>
	<g>
	</g>
	<g>
	</g>
	<g>
	</g>
	<g>
	</g>
	<g>
	</g>
	<g>
	</g>
	<g>
	</g>
	<g>
	</g>
	<g>
	</g>
	<g>
	</g>
	<g>
	</g>
	<g>
	</g>
	<g>
	</g>
	<g>
	</g>
	<g>
	</g>
	<g>
	</g>
	<g>
	</g>
	<g>
	</g>
	<g>
	</g>
	<g>
	</g>
	<g>
	</g>
	<g>
	</g>
	<g>
	</g>
	<g>
	</g>
	<g>
	</g>
	<g>
	</g>
	<g>
	</g>
	<g>
	</g>
	<g>
	</g>
	<g>
	</g>
	<g>
	</g>
	<g>
	</g>
	<g>
	</g>
	<g>
	</g>
	<g>
	</g>
	<g>
	</g>
	<g>
	</g>
	<g>
	</g>
	<g>
	</g>
	<g>
	</g>
	<g>
	</g>
	<g>
	</g>
	<g>
	</g>
	<g>
	</g>
	<g>
	</g>
	<g>
	</g>
	<g>
	</g>
	<g>
	</g>
	<g>
	</g>
	<g>
	</g>
	<g>
	</g>
	<g>
	</g>
	<g>
	</g>
	<g>
	</g>
	<g>
	</g>
	<g>
	</g>
	<g>
	</g>
	<g>
	</g>
	<g>
	</g>
	<g>
	</g>
	<g>
	</g>
	<g>
	</g>
	<g>
	</g>
	<g>
	</g>
	<g>
	</g>
	<g>
	</g>
	<g>
	</g>
	<g>
	</g>
	<g>
	</g>
	<g>
	</g>
	<g>
	</g>
	<g>
	</g>
	<g>
	</g>
	<g>
	</g>
	<g>
	</g>
	<g>
	</g>
	<g>
	</g>
	<g>
	</g>
	<g>
	</g>
	<g>
	</g>
	<g>
	</g>
	<g>
	</g>
	<g>
	</g>
	<g>
	</g>
	<g>
	</g>
	<g>
	</g>
	<g>
	</g>
	<g>
	</g>
	<g>
	</g>
	<g>
	</g>
	<g>
	</g>
	<g>
	</g>
	<g>
	</g>
	<g>
	</g>
	<g>
	</g>
	<g>
	</g>
	<g>
	</g>
	<g>
	</g>
	<g>
	</g>
	<g>
	</g>
	<g>
	</g>
	<g>
	</g>
	<g>
	</g>
	<g>
	</g>
	<g>
	</g>
	<g>
	</g>
	<g>
	</g>
	<g>
	</g>
	<g>
	</g>
	<g>
	</g>
	<g>
	</g>
	<g>
	</g>
	<g>
	</g>
	<g>
	</g>
	<g>
	</g>
	<g>
	</g>
	<g>
	</g>
	<g>
	</g>
	<g>
	</g>
	<g>
	</g>
	<g>
	</g>
	<g>
	</g>
	<g>
	</g>
	<g>
	</g>
	<g>
	</g>
	<g>
	</g>
	<g>
	</g>
	<g>
	</g>
	<g>
	</g>
	<g>
	</g>
	<g>
	</g>
	<g>
	</g>
	<g>
	</g>
	<g>
	</g>
	<g>
	</g>
	<g>
	</g>
	<g>
	</g>
	<g>
	</g>
	<g>
	</g>
	<g>
	</g>
	<g>
	</g>
	<g>
	</g>
	<g>
	</g>
	<g>
	</g>
	<g>
	</g>
	<g>
	</g>
	<g>
	</g>
</g>
</svg>
