<?xml version="1.0" encoding="utf-8"?>
<!-- Generator: Adobe Illustrator 23.0.2, SVG Export Plug-In . SVG Version: 6.00 Build 0)  -->
<svg version="1.1" xmlns="http://www.w3.org/2000/svg" xmlns:xlink="http://www.w3.org/1999/xlink" x="0px" y="0px"
	 viewBox="0 0 535 145" enable-background="new 0 0 535 145" xml:space="preserve">
<symbol  id="Deleted_Symbol_6" viewBox="0 -32 32 32">
	<rect y="-10" width="32" height="2"/>
	<rect y="-26" width="32" height="2"/>
	<rect y="-17.99" width="32" height="1.99"/>
	<rect y="-32" fill="none" width="32" height="32"/>
	<rect y="-32" fill="none" width="32" height="32"/>
</symbol>
<symbol  id="Marketplace_store" viewBox="-15.25 -19.25 30.5 38.5">
	<path fill="#0078D7" d="M13.45,9.65l-2.2-1.2l-1,1.2h-2.7v4.9c0,2.8-2.2,4.7-5.3,4.7c-0.5,0-0.9-0.1-1.3-0.1
		c0.6-0.3,1.1-0.8,1.6-1.3c1.9-0.1,3.7-1.1,3.7-3.3v-5h-3.4v4.5c0,2.8-2.2,4.7-5.3,4.7s-5.3-1.9-5.3-4.7v-4.5h-1.2h-5.1l-1.2-26.9
		l24.7-1.8l0,0h0.4l1-0.1l4.4,3.5L13.45,9.65z M-6.55,14.05c0,2.3,2,3.3,3.9,3.3s3.9-1,3.9-3.3v-4.5h-3v4.9c0,0.6,0.2,1.2,0.4,1.6
		c-0.6,0.2-1.1,0.2-1.3,0.2h-0.1c-0.2-0.6-0.4-1.2-0.4-1.8v-4.9h-3.4V14.05z"/>
</symbol>
<symbol  id="Pencil-02" viewBox="0 -16 16 16">
	<polyline fill="none" stroke="#000000" stroke-miterlimit="10" points="14.88,-4.12 4.69,-14.31 0.69,-15.31 1.69,-11.31 
		11.88,-1.12 	"/>
	<path fill="none" stroke="#000000" stroke-miterlimit="10" d="M11.88-1.12c0.83,0.83,2.17,0.83,3,0c0.83-0.83,0.83-2.17,0-3"/>
	<path fill="none" stroke="#000000" stroke-miterlimit="10" d="M4.5-14.5c0,1.66-1.34,3-3,3"/>
	<rect y="-16" fill="none" width="16" height="16"/>
	<line fill="none" stroke="#000000" stroke-miterlimit="10" x1="11" y1="-2" x2="14" y2="-5"/>
</symbol>
<symbol  id="Play-01" viewBox="0 -16 16 16">
	<g>
		<path d="M4-2.92L11.26-8L4-13.08V-2.92 M3-1v-14l10,7L3-1L3-1z"/>
	</g>
	<rect y="-16" fill="none" width="16" height="16"/>
</symbol>
<symbol  id="Repairs_x5F_01" viewBox="6 -32 20 32">
	<g>
		<path fill="#FFFFFF" d="M26-16h-4v8.59l2,2V0h-6v-5.41l2-2V-16h-4v-2h2v-11c0-1.65,1.35-3,3-3s3,1.35,3,3v11h2V-16z M20-2h2v-2.59
			l-1-1l-1,1V-2z M22-29c0-0.55-0.45-1-1-1s-1,0.45-1,1v11h2V-29z"/>
		<path fill="#FFFFFF" d="M11,0C8.24,0,6-2.24,6-5c0-1.56,0.75-3.04,2-3.98V-29c0-1.65,1.35-3,3-3s3,1.35,3,3v20.02
			c1.25,0.94,2,2.42,2,3.98C16-2.24,13.76,0,11,0z M12.5-7.58L12-7.87V-29c0-0.55-0.45-1-1-1s-1,0.45-1,1v21.13L9.5-7.58
			C8.56-7.03,8-6.07,8-5c0,1.3,0.84,2.4,2,2.82V-5l1-1l1,1v2.82C13.16-2.6,14-3.7,14-5C14-6.07,13.44-7.03,12.5-7.58z"/>
	</g>
</symbol>
<symbol  id="Video_x5F_02" viewBox="0 -16 16 16">
	<rect x="0.5" y="-11.5" fill="none" stroke="#101010" stroke-miterlimit="10" width="11" height="7"/>
	<rect y="-16" fill="none" width="16" height="16"/>
	<polygon fill="none" stroke="#101010" stroke-miterlimit="10" points="11.5,-9.25 15.5,-11.25 15.5,-4.75 11.5,-6.75 	"/>
</symbol>
<symbol  id="Virtual_network" viewBox="-19.8 -10.7 39.6 21.4">
	<g>
		<polygon fill="#0078D7" points="19.8,0 17.4,2.4 9.1,10.7 7.7,9.3 17.1,0 7.7,-9.3 9.1,-10.7 17.4,-2.4 		"/>
		<polygon fill="#0078D7" points="-19.8,0 -17.3,2.4 -9.1,10.7 -7.7,9.3 -17.1,0 -7.7,-9.3 -9.1,-10.7 -17.3,-2.4 		"/>
		<path fill="#0078D7" d="M-4.8,0c0-1.3-1.1-2.4-2.4-2.4c-1.4,0-2.4,1.1-2.4,2.4s1.1,2.4,2.4,2.4C-5.8,2.4-4.8,1.3-4.8,0z"/>
		<path fill="#0078D7" d="M0,2.4c1.3,0,2.4-1.1,2.4-2.4S1.3-2.4,0-2.4S-2.4-1.3-2.4,0S-1.3,2.4,0,2.4z"/>
		<path fill="#0078D7" d="M7.2,2.4c1.3,0,2.4-1.1,2.4-2.4S8.5-2.4,7.2-2.4C5.8-2.4,4.8-1.3,4.8,0S5.8,2.4,7.2,2.4z"/>
	</g>
</symbol>
<symbol  id="W10_x5F_CheckboxIndeterminate_x5F_16" viewBox="-4 -4 8 8">
	<rect x="-4" y="-4" width="8" height="8"/>
</symbol>
<symbol  id="W10_x5F_Checkbox_x5F_16" viewBox="-8 -8 16 16">
	<g>
		<path d="M7,7V-7H-7V7H7 M8,8H-8V-8H8V8L8,8z"/>
	</g>
</symbol>
<symbol  id="W10_x5F_Undo" viewBox="-5.91 -7.91 11.82 15.82">
	<path fill="none" stroke="#FFFFFF" stroke-miterlimit="10" d="M-2.56-7.56l6.53,6.53c1.91,1.91,1.91,5.02,0,6.93L3.91,5.98
		c-1.91,1.91-5.02,1.91-6.93,0l-2.54-2.53"/>
</symbol>
<symbol  id="gripper_x5F_16" viewBox="0 -16 16 16">
	<polygon fill="none" stroke="#231F20" stroke-miterlimit="10" points="9.5,-15.5 15.5,-9.5 15.5,-15.5 	"/>
	<rect y="-16" fill="none" width="16" height="16"/>
</symbol>
<symbol  id="smallbox_x5F_32" viewBox="0 -32 32 32">
	<rect x="8" y="-24" width="16" height="16"/>
	<rect y="-32" fill="none" width="32" height="32"/>
</symbol>
<symbol  id="unlock" viewBox="0 -16 16 16">
	<rect x="2.5" y="-15.5" fill="none" stroke="#000000" stroke-miterlimit="10" width="11" height="8"/>
	<rect y="-16" fill="none" width="16" height="16"/>
	<path d="M8,0C5.72,0,4-1.74,4-4h1c0,1.71,1.29,3,3,3s3-1.29,3-3v-3H6v-1h6v4C12-1.74,10.28,0,8,0z"/>
</symbol>
<g id="Shapes">
	<rect fill="#FFFFFF" width="535" height="145"/>
	<g id="Wrench_tool_x28_s_x29_">
	</g>
	<g id="user2">
	</g>
	<g id="user2_1_">
	</g>
	<g id="user2_4_">
	</g>
	<g id="user2_3_">
	</g>
	<g id="user2_2_">
	</g>
	<g id="Internet_2">
	</g>
	<g id="Enterprise">
	</g>
	<g id="Tunnel__x28_stackable_x29_">
	</g>
	<g id="New_Symbol">
	</g>
	<g id="New_Symbol_1">
	</g>
	<g id="Files">
	</g>
	<g id="BlobBlock">
	</g>
	<g id="E_x5F_Enterprise">
	</g>
	<g id="E_x5F_AD_FS">
	</g>
	<g id="C_x5F_Azure_Active_Directory">
	</g>
	<g>
		<rect x="275" y="60" opacity="0.08" fill="#FFFFFF" width="115" height="85"/>
		<rect x="275" y="60" opacity="0.15" fill="#0072C6" width="115" height="85"/>
	</g>
	<g>
		<polygon fill="#FFFFFF" points="253,84.73 261.82,84.73 261.82,84.73 263.01,84.73 263.01,90 274.71,78.64 263.01,67.28 
			263.01,72.55 261.73,72.55 261.73,72.55 253,72.55 		"/>
		<polygon fill="#3C3C41" points="253,84.73 261.82,84.73 261.82,84.73 263.01,84.73 263.01,90 274.71,78.64 263.01,67.28 
			263.01,72.55 261.73,72.55 261.73,72.55 253,72.55 		"/>
		<polygon fill="none" stroke="#FFFFFF" stroke-width="2" stroke-linecap="round" stroke-linejoin="round" points="253,84.73 
			261.82,84.73 261.82,84.73 263.01,84.73 263.01,90 274.71,78.64 263.01,67.28 263.01,72.55 261.73,72.55 261.73,72.55 253,72.55 
					"/>
	</g>
	<g>
		<path fill="#A0A1A2" d="M315.06,129.67c0,0.7,0.56,1.33,1.26,1.33h32.3c0.7,0,1.33-0.56,1.33-1.33v-23.09h-34.88V129.67z"/>
		<path fill="#7A7A7A" d="M348.62,101.07h-32.3c-0.7,0-1.26,0.63-1.26,1.33v4.19h34.88v-4.19c0-0.7-0.56-1.12-1.33-1.12"/>
		<rect x="317.85" y="116" fill="#B8D432" width="29.3" height="4.88"/>
		<rect x="317.85" y="108.67" fill="#FFFFFF" width="29.3" height="4.88"/>
		<rect x="317.85" y="123.33" fill="#B8D432" width="29.3" height="4.88"/>
		<path opacity="0.2" fill="#FFFFFF" enable-background="new    " d="M316.45,101c-0.77,0-1.4,0.63-1.4,1.4v5.09v2.3v19.53
			c0,0.77,0.63,1.4,1.4,1.4h1.53L345.48,101H316.45z"/>
	</g>
	<g>
		<polygon fill="#FFFFFF" points="392.14,82.45 400.96,82.45 400.96,82.45 402.15,82.45 402.15,87.72 413.86,76.36 402.15,65 
			402.15,70.27 400.87,70.27 400.87,70.27 392.14,70.27 		"/>
		<polygon fill="#3C3C41" points="392.14,82.45 400.96,82.45 400.96,82.45 402.15,82.45 402.15,87.72 413.86,76.36 402.15,65 
			402.15,70.27 400.87,70.27 400.87,70.27 392.14,70.27 		"/>
		<polygon fill="none" stroke="#FFFFFF" stroke-width="2" stroke-linecap="round" stroke-linejoin="round" points="392.14,82.45 
			400.96,82.45 400.96,82.45 402.15,82.45 402.15,87.72 413.86,76.36 402.15,65 402.15,70.27 400.87,70.27 400.87,70.27 
			392.14,70.27 		"/>
	</g>
	<g>
		<polygon fill="#FFFFFF" points="392.14,134.45 400.96,134.45 400.96,134.45 402.15,134.45 402.15,139.72 413.86,128.36 
			402.15,117 402.15,122.27 400.87,122.27 400.87,122.27 392.14,122.27 		"/>
		<polygon fill="#3C3C41" points="392.14,134.45 400.96,134.45 400.96,134.45 402.15,134.45 402.15,139.72 413.86,128.36 
			402.15,117 402.15,122.27 400.87,122.27 400.87,122.27 392.14,122.27 		"/>
		<polygon fill="none" stroke="#FFFFFF" stroke-width="2" stroke-linecap="round" stroke-linejoin="round" points="392.14,134.45 
			400.96,134.45 400.96,134.45 402.15,134.45 402.15,139.72 413.86,128.36 402.15,117 402.15,122.27 400.87,122.27 400.87,122.27 
			392.14,122.27 		"/>
	</g>
	<g>
		<rect x="414" y="60" opacity="0.08" fill="#FFFFFF" width="121" height="35"/>
		<rect x="414" y="60" opacity="0.15" fill="#0072C6" width="121" height="35"/>
	</g>
	<g>
		<rect x="414" y="110" opacity="0.08" fill="#FFFFFF" width="121" height="35"/>
		<rect x="414" y="110" opacity="0.15" fill="#0072C6" width="121" height="35"/>
	</g>
	<g>
		<g id="Layer_1-2_1_">
			<path fill="#020202" d="M449.93,87.04h-0.59v-1.19h0.59c1.26,0,2.29-1.02,2.29-2.29v-12.1c0-1.26-1.02-2.29-2.29-2.29h-22.46
				c-1.26,0-2.29,1.02-2.29,2.29v12.11c0,1.26,1.02,2.29,2.29,2.29h0.59v1.19h-0.59c-1.92,0-3.47-1.56-3.47-3.47V71.47
				c0-1.91,1.55-3.46,3.47-3.47h22.46c1.91,0,3.46,1.55,3.47,3.47v12.11C453.39,85.49,451.84,87.04,449.93,87.04"/>
			<path fill="#020202" d="M431.11,90c-0.89,0-1.61-0.72-1.61-1.61v-3.71c0-0.89,0.72-1.61,1.61-1.61c0,0,0,0,0,0l0,0
				c0.89,0,1.61,0.72,1.61,1.61v3.71C432.72,89.28,432,90,431.11,90C431.11,90,431.11,90,431.11,90z"/>
			<path fill="#020202" d="M436.17,90c-0.89,0-1.61-0.72-1.61-1.61v-9.52c0-0.89,0.72-1.61,1.61-1.61c0.89,0,1.61,0.72,1.61,1.61
				v9.52C437.78,89.28,437.06,90,436.17,90L436.17,90"/>
			<path fill="#020202" d="M446.29,89.95c-0.89,0-1.61-0.72-1.61-1.61V74.86c0-0.89,0.72-1.61,1.61-1.61c0.89,0,1.61,0.72,1.61,1.61
				v13.49C447.9,89.23,447.18,89.95,446.29,89.95L446.29,89.95"/>
			<path fill="#020202" d="M441.23,90c-0.89,0-1.61-0.72-1.61-1.61v-7.07c0-0.89,0.72-1.61,1.61-1.61c0.89,0,1.61,0.72,1.61,1.61
				v7.07C442.84,89.28,442.12,90,441.23,90"/>
		</g>
	</g>
	<g>
		<rect x="424" y="116" fill-opacity="0" width="35" height="22"/>
		<rect x="424" y="116" fill-opacity="0" width="35" height="22"/>
		<path fill="#0078D4" d="M459,116h-35v22h35V116z"/>
		<path d="M429.53,116H424v22h5.53V116z"/>
		<path d="M459,116h-35v1.83h35V116z"/>
		<path fill="#FFFFFF" d="M441.5,119.67h-8.29v9.15h8.29V119.67z"/>
		<path fill="#FFFFFF" d="M450.71,119.67h-8.29v9.15h8.29V119.67z"/>
		<path fill="#FFFFFF" d="M441.5,129.76h-8.29v4.58h8.29V129.76z"/>
		<path d="M447.65,126.07l3.06,2.21l3.05,2.21l-2.77,0.81l-1.91,2.15l-0.71-3.69L447.65,126.07z"/>
	</g>
	<g>
		<rect x="115" opacity="0.08" fill="#FFFFFF" width="135" height="145"/>
		<rect x="115" opacity="0.15" fill="#0072C6" width="135" height="145"/>
	</g>
	<g>
		<rect x="125" y="55" fill="#FFFFFF" width="115" height="35"/>
		<rect x="125" y="55" fill="#50E6FF" width="115" height="35"/>
	</g>
	<g>
		<rect x="125" y="100" fill="#FFFFFF" width="115" height="35"/>
		<rect x="125" y="100" fill="#50E6FF" width="115" height="35"/>
	</g>
	<g>
		<path fill-rule="evenodd" clip-rule="evenodd" fill="#0063B1" d="M120,9.18V7.02h25.41v2.16H120z M120,15.12v-2.16h25.41v2.16H120
			z M123.78,21.07v-2.16h25.41v2.16H123.78z M120,27.02v-2.16h25.41v2.16H120z"/>
	</g>
	<g>
		<polygon fill="#FFFFFF" points="72.82,79.73 99.64,79.73 99.64,79.73 100.83,79.73 100.83,85 112.54,73.64 100.83,62.28 
			100.83,67.55 99.55,67.55 99.55,67.55 72.82,67.55 		"/>
		<polygon fill="#3C3C41" points="72.82,79.73 99.64,79.73 99.64,79.73 100.83,79.73 100.83,85 112.54,73.64 100.83,62.28 
			100.83,67.55 99.55,67.55 99.55,67.55 72.82,67.55 		"/>
		<polygon fill="none" stroke="#FFFFFF" stroke-width="2" stroke-linecap="round" stroke-linejoin="round" points="72.82,79.73 
			99.64,79.73 99.64,79.73 100.83,79.73 100.83,85 112.54,73.64 100.83,62.28 100.83,67.55 99.55,67.55 99.55,67.55 72.82,67.55 		
			"/>
	</g>
	<g>
		<path fill="#50E6FF" d="M65.07,72.98c0.01-7.63-3.14-14.53-8.2-19.46l-2.04,2.06c0.1,0.1,0.19,0.19,0.29,0.29
			c2.22,2.23,3.95,4.81,5.17,7.69c1.26,2.98,1.89,6.14,1.88,9.4c-0.01,3.26-0.65,6.42-1.91,9.39c-1.22,2.88-2.96,5.45-5.18,7.67
			c-1.27,1.27-2.66,2.38-4.15,3.33l-2.06-2.59l-0.73,6.34l6.34,0.73l-1.74-2.2C60.15,90.83,65.06,82.48,65.07,72.98z"/>
		<path fill="#50E6FF" d="M43.78,96.41c-1.88,0.46-3.81,0.7-5.77,0.7h-0.04c-3.26-0.01-6.43-0.65-9.4-1.92
			c-2.88-1.22-5.45-2.97-7.67-5.19c-2.12-2.13-3.81-4.59-5.01-7.32l2.98-0.45l-5.13-3.81l-3.81,5.13l2.98-0.45
			C16.93,93,26.62,99.98,37.96,100c0.02,0,0.03,0,0.05,0c2.3,0,4.53-0.29,6.66-0.82L43.78,96.41z"/>
		<path fill="#50E6FF" d="M52.11,50.86L49.57,45l-1.16,2.93c-3.19-1.33-6.68-2.06-10.35-2.07c-0.02,0-0.03,0-0.05,0
			c-14.77,0-26.78,11.83-27.06,26.55h2.91c0.07-3.09,0.71-6.09,1.9-8.92c1.22-2.88,2.96-5.45,5.18-7.67
			c2.22-2.22,4.8-3.95,7.68-5.17c2.97-1.26,6.13-1.9,9.39-1.9h0.04c3.23,0.01,6.35,0.64,9.3,1.87l-1.09,2.76L52.11,50.86z"/>
		<path fill="#0078D4" d="M57.28,75.36l0.01-5.68l-4.11-0.01c-0.39-2.23-1.24-4.29-2.47-6.08l2.88-2.87l-4-4.02l-2.86,2.86
			c-1.79-1.25-3.85-2.12-6.09-2.53l0.01-4.05l-5.68-0.01l-0.01,4.09c-2.21,0.42-4.25,1.3-6.02,2.55l-2.92-2.93l-4.02,4l2.96,2.97
			c-1.19,1.76-2.03,3.8-2.42,5.98l-4.26-0.01l-0.01,5.68l4.33,0.01c0.42,2.14,1.27,4.14,2.46,5.87l-3.1,3.09l4,4.02l3.11-3.1
			c1.72,1.19,3.71,2.03,5.85,2.44v4.37L40.59,92l0.01-4.35c2.16-0.38,4.16-1.21,5.92-2.38l3.02,3.04l4.02-4l-2.99-3
			c1.24-1.75,2.12-3.77,2.55-5.96L57.28,75.36z M37.85,82.27c-5.48-0.01-9.92-4.46-9.91-9.95c0.01-5.48,4.45-9.92,9.94-9.91
			c5.48,0.01,9.92,4.46,9.91,9.95C47.78,77.84,43.33,82.28,37.85,82.27z"/>
	</g>
</g>
<g id="Text">
	<g id="Windows_Server_New">
	</g>
	<g>
		<path fill="#1E1E1E" d="M467.09,79.82V83h-0.98v-8.4h2.31c0.9,0,1.59,0.22,2.09,0.66s0.74,1.05,0.74,1.85s-0.27,1.45-0.82,1.96
			s-1.29,0.76-2.22,0.76H467.09z M467.09,75.49v3.45h1.03c0.68,0,1.2-0.16,1.56-0.47s0.54-0.75,0.54-1.32
			c0-1.11-0.66-1.66-1.97-1.66H467.09z"/>
		<path fill="#1E1E1E" d="M474.97,83.14c-0.89,0-1.59-0.28-2.12-0.84s-0.79-1.3-0.79-2.23c0-1.01,0.28-1.79,0.83-2.36
			s1.29-0.85,2.23-0.85c0.89,0,1.59,0.28,2.09,0.83s0.75,1.31,0.75,2.29c0,0.96-0.27,1.72-0.81,2.3S475.88,83.14,474.97,83.14z
			 M475.04,77.67c-0.62,0-1.11,0.21-1.46,0.63s-0.54,1-0.54,1.74c0,0.71,0.18,1.27,0.54,1.68s0.85,0.62,1.46,0.62
			c0.62,0,1.1-0.2,1.43-0.6s0.5-0.97,0.5-1.72c0-0.75-0.17-1.33-0.5-1.73S475.66,77.67,475.04,77.67z"/>
		<path fill="#1E1E1E" d="M486.94,77l-1.8,6h-1l-1.24-4.29c-0.05-0.16-0.08-0.35-0.09-0.56h-0.02c-0.01,0.14-0.05,0.32-0.12,0.54
			L481.33,83h-0.96l-1.82-6h1.01l1.24,4.51c0.04,0.14,0.07,0.32,0.08,0.54h0.05c0.01-0.17,0.05-0.36,0.11-0.55l1.38-4.5h0.88
			l1.24,4.52c0.04,0.14,0.07,0.32,0.09,0.54h0.05c0.01-0.15,0.04-0.33,0.1-0.54l1.22-4.52H486.94z"/>
		<path fill="#1E1E1E" d="M492.76,80.24h-4.24c0.02,0.67,0.2,1.18,0.54,1.55s0.82,0.54,1.42,0.54c0.68,0,1.3-0.22,1.86-0.67v0.9
			c-0.53,0.38-1.22,0.57-2.09,0.57c-0.85,0-1.51-0.27-2-0.82s-0.73-1.31-0.73-2.3c0-0.93,0.26-1.69,0.79-2.28s1.19-0.88,1.97-0.88
			s1.39,0.25,1.82,0.76s0.64,1.21,0.64,2.12V80.24z M491.77,79.43c0-0.55-0.14-0.99-0.4-1.29s-0.63-0.46-1.1-0.46
			c-0.45,0-0.84,0.16-1.15,0.49s-0.51,0.75-0.59,1.27H491.77z"/>
		<path fill="#1E1E1E" d="M497.34,77.97c-0.17-0.13-0.41-0.19-0.73-0.19c-0.41,0-0.75,0.19-1.03,0.58s-0.41,0.91-0.41,1.58V83h-0.96
			v-6h0.96v1.24h0.02c0.14-0.42,0.35-0.75,0.63-0.99s0.6-0.35,0.94-0.35c0.25,0,0.44,0.03,0.57,0.08V77.97z"/>
		<path fill="#1E1E1E" d="M501.8,83v-8.4h2.39c0.73,0,1.3,0.18,1.73,0.53s0.64,0.82,0.64,1.39c0,0.48-0.13,0.89-0.39,1.24
			s-0.61,0.6-1.07,0.75v0.02c0.57,0.07,1.02,0.28,1.36,0.64s0.51,0.83,0.51,1.41c0,0.72-0.26,1.3-0.77,1.75S505.03,83,504.25,83
			H501.8z M502.78,75.49v2.71h1.01c0.54,0,0.96-0.13,1.27-0.39s0.46-0.63,0.46-1.1c0-0.82-0.54-1.22-1.61-1.22H502.78z
			 M502.78,79.09v3.02h1.34c0.58,0,1.03-0.14,1.34-0.41s0.48-0.65,0.48-1.13c0-0.99-0.68-1.49-2.03-1.49H502.78z"/>
		<path fill="#1E1E1E" d="M509.59,83h-0.98v-8.4h0.98V83z"/>
	</g>
	<g>
		<rect x="465" y="122" fill="none" width="60" height="15"/>
		<path fill="#1E1E1E" d="M472.61,130.88h-1.09l-0.89-2.36h-3.56l-0.84,2.36h-1.1l3.22-8.4h1.02L472.61,130.88z M470.3,127.64
			l-1.32-3.58c-0.04-0.12-0.09-0.3-0.13-0.56h-0.02c-0.04,0.24-0.08,0.43-0.13,0.56l-1.31,3.58H470.3z"/>
		<path fill="#1E1E1E" d="M474.69,130.02h-0.02v3.63h-0.96v-8.76h0.96v1.05h0.02c0.47-0.8,1.16-1.2,2.07-1.2
			c0.77,0,1.38,0.27,1.81,0.81s0.65,1.26,0.65,2.16c0,1-0.24,1.81-0.73,2.41s-1.16,0.91-2,0.91
			C475.71,131.02,475.11,130.69,474.69,130.02z M474.67,127.6v0.84c0,0.5,0.16,0.92,0.48,1.26s0.73,0.52,1.23,0.52
			c0.58,0,1.04-0.22,1.37-0.67s0.5-1.06,0.5-1.86c0-0.67-0.15-1.19-0.46-1.57s-0.73-0.57-1.25-0.57c-0.56,0-1.01,0.19-1.35,0.58
			S474.67,127.01,474.67,127.6z"/>
		<path fill="#1E1E1E" d="M481.69,130.02h-0.02v3.63h-0.96v-8.76h0.96v1.05h0.02c0.47-0.8,1.16-1.2,2.07-1.2
			c0.77,0,1.38,0.27,1.81,0.81s0.65,1.26,0.65,2.16c0,1-0.24,1.81-0.73,2.41s-1.16,0.91-2,0.91
			C482.71,131.02,482.11,130.69,481.69,130.02z M481.67,127.6v0.84c0,0.5,0.16,0.92,0.48,1.26s0.73,0.52,1.23,0.52
			c0.58,0,1.04-0.22,1.37-0.67s0.5-1.06,0.5-1.86c0-0.67-0.15-1.19-0.46-1.57s-0.73-0.57-1.25-0.57c-0.56,0-1.01,0.19-1.35,0.58
			S481.67,127.01,481.67,127.6z"/>
		<path fill="#1E1E1E" d="M492.16,127.71v3.18h-0.98v-8.4h2.31c0.9,0,1.59,0.22,2.09,0.66s0.74,1.05,0.74,1.85s-0.27,1.45-0.82,1.96
			s-1.29,0.76-2.22,0.76H492.16z M492.16,123.37v3.45h1.03c0.68,0,1.2-0.16,1.56-0.47s0.54-0.75,0.54-1.32
			c0-1.11-0.66-1.66-1.97-1.66H492.16z"/>
		<path fill="#1E1E1E" d="M500.04,131.02c-0.89,0-1.59-0.28-2.12-0.84s-0.79-1.3-0.79-2.23c0-1.01,0.28-1.79,0.83-2.36
			s1.29-0.85,2.23-0.85c0.89,0,1.59,0.28,2.09,0.83s0.75,1.31,0.75,2.29c0,0.96-0.27,1.72-0.81,2.3S500.95,131.02,500.04,131.02z
			 M500.11,125.55c-0.62,0-1.11,0.21-1.46,0.63s-0.54,1-0.54,1.74c0,0.71,0.18,1.27,0.54,1.68s0.85,0.62,1.46,0.62
			c0.62,0,1.1-0.2,1.43-0.6s0.5-0.97,0.5-1.72c0-0.75-0.17-1.33-0.5-1.73S500.73,125.55,500.11,125.55z"/>
		<path fill="#1E1E1E" d="M507.64,125.86c-0.17-0.13-0.41-0.19-0.73-0.19c-0.41,0-0.75,0.19-1.03,0.58s-0.41,0.91-0.41,1.58v3.06
			h-0.96v-6h0.96v1.24h0.02c0.14-0.42,0.35-0.75,0.63-0.99s0.6-0.35,0.94-0.35c0.25,0,0.44,0.03,0.57,0.08V125.86z"/>
		<path fill="#1E1E1E" d="M511.86,130.82c-0.23,0.13-0.53,0.19-0.9,0.19c-1.05,0-1.58-0.59-1.58-1.76v-3.55h-1.03v-0.82h1.03v-1.46
			l0.96-0.31v1.78h1.51v0.82h-1.51v3.38c0,0.4,0.07,0.69,0.21,0.86s0.36,0.26,0.68,0.26c0.24,0,0.45-0.07,0.63-0.2V130.82z"/>
		<path fill="#1E1E1E" d="M517.54,130.88h-0.96v-0.94h-0.02c-0.42,0.72-1.03,1.08-1.85,1.08c-0.6,0-1.07-0.16-1.4-0.47
			s-0.51-0.74-0.51-1.26c0-1.12,0.66-1.77,1.98-1.96l1.8-0.25c0-1.02-0.41-1.53-1.24-1.53c-0.72,0-1.38,0.25-1.96,0.74v-0.98
			c0.59-0.38,1.27-0.56,2.04-0.56c1.41,0,2.12,0.75,2.12,2.24V130.88z M516.58,127.85l-1.45,0.2c-0.45,0.06-0.78,0.17-1.01,0.33
			s-0.34,0.44-0.34,0.84c0,0.29,0.1,0.53,0.31,0.72s0.49,0.28,0.83,0.28c0.48,0,0.87-0.17,1.18-0.5s0.47-0.76,0.47-1.27V127.85z"/>
		<path fill="#1E1E1E" d="M520.25,130.88h-0.96V122h0.96V130.88z"/>
	</g>
	<g>
		<g>
			<path d="M163.35,15.22h-2.06l-0.6-1.87h-2.99l-0.59,1.87h-2.05l3.06-8.4h2.24L163.35,15.22z M160.26,11.89l-0.9-2.82
				c-0.07-0.21-0.11-0.46-0.14-0.76h-0.05c-0.02,0.25-0.07,0.49-0.15,0.73l-0.91,2.85H160.26z"/>
			<path d="M168.97,15.22h-5.38v-0.77l3.01-3.87h-2.71V9.22h5.06v0.91l-2.85,3.72h2.88V15.22z"/>
			<path d="M175.67,15.22h-1.85V14.3h-0.03c-0.46,0.71-1.07,1.06-1.83,1.06c-1.39,0-2.09-0.84-2.09-2.53V9.22h1.85v3.46
				c0,0.85,0.34,1.27,1.01,1.27c0.33,0,0.6-0.12,0.8-0.35s0.3-0.55,0.3-0.95V9.22h1.85V15.22z"/>
			<path d="M181.14,10.89c-0.22-0.12-0.48-0.18-0.78-0.18c-0.4,0-0.72,0.15-0.94,0.44s-0.34,0.7-0.34,1.2v2.87h-1.85v-6h1.85v1.11
				h0.02c0.29-0.81,0.82-1.22,1.58-1.22c0.2,0,0.35,0.02,0.46,0.07V10.89z"/>
			<path d="M187.34,12.74h-3.91c0.06,0.87,0.61,1.31,1.65,1.31c0.66,0,1.24-0.16,1.74-0.47v1.34c-0.55,0.3-1.28,0.45-2.16,0.45
				c-0.97,0-1.72-0.27-2.26-0.81s-0.8-1.29-0.8-2.25c0-1,0.29-1.79,0.87-2.37s1.29-0.87,2.13-0.87c0.88,0,1.55,0.26,2.03,0.78
				s0.72,1.22,0.72,2.12V12.74z M185.63,11.61c0-0.86-0.35-1.29-1.04-1.29c-0.3,0-0.55,0.12-0.77,0.37s-0.35,0.55-0.4,0.92H185.63z"
				/>
			<path d="M197.96,14.92c-0.61,0.3-1.41,0.45-2.4,0.45c-1.29,0-2.3-0.38-3.04-1.14s-1.11-1.77-1.11-3.03
				c0-1.34,0.42-2.43,1.25-3.27s1.91-1.25,3.23-1.25c0.82,0,1.51,0.1,2.07,0.31v1.82c-0.56-0.34-1.2-0.5-1.92-0.5
				c-0.79,0-1.43,0.25-1.91,0.74s-0.73,1.17-0.73,2.02c0,0.81,0.23,1.46,0.69,1.94s1.07,0.72,1.85,0.72c0.74,0,1.41-0.18,2.03-0.54
				V14.92z"/>
			<path d="M202.1,15.36c-1,0-1.79-0.28-2.36-0.84s-0.86-1.32-0.86-2.28c0-0.99,0.3-1.77,0.89-2.33s1.4-0.84,2.41-0.84
				c1,0,1.78,0.28,2.34,0.84s0.85,1.3,0.85,2.22c0,1-0.29,1.78-0.88,2.36S203.12,15.36,202.1,15.36z M202.15,10.49
				c-0.44,0-0.78,0.15-1.02,0.45s-0.36,0.73-0.36,1.28c0,1.15,0.46,1.73,1.39,1.73c0.89,0,1.33-0.59,1.33-1.78
				C203.49,11.05,203.05,10.49,202.15,10.49z"/>
			<path d="M212.46,14.53c0,1.11-0.32,1.98-0.97,2.59s-1.58,0.92-2.8,0.92c-0.81,0-1.45-0.12-1.92-0.35v-1.56
				c0.62,0.36,1.24,0.54,1.87,0.54c0.63,0,1.11-0.17,1.45-0.5s0.52-0.78,0.52-1.34v-0.47h-0.02c-0.42,0.67-1.04,1.01-1.87,1.01
				c-0.77,0-1.37-0.27-1.82-0.81s-0.67-1.26-0.67-2.17c0-1.02,0.25-1.82,0.75-2.42s1.16-0.9,1.97-0.9c0.73,0,1.28,0.28,1.64,0.84
				h0.02v-0.7h1.85V14.53z M210.63,12.33v-0.47c0-0.38-0.11-0.7-0.34-0.97s-0.52-0.4-0.88-0.4c-0.41,0-0.73,0.16-0.97,0.48
				s-0.35,0.77-0.35,1.35c0,0.5,0.11,0.9,0.33,1.19s0.53,0.44,0.91,0.44c0.38,0,0.69-0.15,0.93-0.44S210.63,12.82,210.63,12.33z"/>
			<path d="M219.8,15.22h-1.85v-3.33c0-0.93-0.33-1.39-1-1.39c-0.32,0-0.58,0.12-0.79,0.37s-0.31,0.56-0.31,0.94v3.42h-1.85v-6h1.85
				v0.95h0.02c0.44-0.73,1.08-1.1,1.93-1.1c1.33,0,1.99,0.82,1.99,2.47V15.22z"/>
			<path d="M222.21,8.27c-0.31,0-0.57-0.09-0.77-0.28s-0.3-0.41-0.3-0.68c0-0.28,0.1-0.5,0.3-0.68s0.46-0.26,0.77-0.26
				c0.32,0,0.57,0.09,0.77,0.26s0.3,0.4,0.3,0.68c0,0.28-0.1,0.51-0.3,0.69S222.52,8.27,222.21,8.27z M223.12,15.22h-1.85v-6h1.85
				V15.22z"/>
			<path d="M228.31,15.15c-0.27,0.14-0.69,0.22-1.24,0.22c-1.3,0-1.96-0.68-1.96-2.03v-2.75h-0.97V9.22h0.97V7.92l1.85-0.53v1.82
				h1.35v1.37h-1.35v2.43c0,0.63,0.25,0.94,0.74,0.94c0.2,0,0.4-0.06,0.6-0.17V15.15z"/>
			<path d="M230.29,8.27c-0.31,0-0.57-0.09-0.77-0.28s-0.3-0.41-0.3-0.68c0-0.28,0.1-0.5,0.3-0.68s0.46-0.26,0.77-0.26
				c0.32,0,0.57,0.09,0.77,0.26s0.3,0.4,0.3,0.68c0,0.28-0.1,0.51-0.3,0.69S230.6,8.27,230.29,8.27z M231.2,15.22h-1.85v-6h1.85
				V15.22z"/>
			<path d="M238.47,9.22l-2.23,6h-2.11l-2.13-6h1.98l1.04,3.7c0.12,0.42,0.19,0.77,0.21,1.07h0.02c0.03-0.28,0.1-0.62,0.22-1.03
				l1.07-3.73H238.47z"/>
			<path d="M244.54,12.74h-3.91c0.06,0.87,0.61,1.31,1.65,1.31c0.66,0,1.24-0.16,1.74-0.47v1.34c-0.55,0.3-1.28,0.45-2.16,0.45
				c-0.97,0-1.72-0.27-2.26-0.81s-0.8-1.29-0.8-2.25c0-1,0.29-1.79,0.87-2.37s1.29-0.87,2.13-0.87c0.88,0,1.55,0.26,2.03,0.78
				s0.72,1.22,0.72,2.12V12.74z M242.82,11.61c0-0.86-0.35-1.29-1.04-1.29c-0.3,0-0.55,0.12-0.77,0.37s-0.35,0.55-0.4,0.92H242.82z"
				/>
			<path d="M155.57,28.09v-1.88c0.34,0.29,0.71,0.5,1.11,0.64s0.8,0.21,1.21,0.21c0.24,0,0.45-0.02,0.62-0.06s0.33-0.1,0.45-0.18
				s0.21-0.17,0.27-0.27s0.09-0.22,0.09-0.34c0-0.16-0.05-0.31-0.14-0.44s-0.22-0.25-0.38-0.36s-0.35-0.21-0.58-0.32
				s-0.46-0.21-0.72-0.31c-0.66-0.27-1.15-0.61-1.47-1s-0.48-0.87-0.48-1.43c0-0.44,0.09-0.81,0.26-1.13s0.42-0.57,0.72-0.78
				s0.65-0.35,1.05-0.45s0.82-0.14,1.27-0.14c0.44,0,0.83,0.03,1.16,0.08s0.65,0.13,0.93,0.24v1.75c-0.14-0.1-0.29-0.18-0.46-0.26
				s-0.34-0.14-0.51-0.18s-0.35-0.08-0.52-0.11s-0.34-0.04-0.5-0.04c-0.21,0-0.41,0.02-0.59,0.06s-0.32,0.1-0.45,0.17
				s-0.21,0.16-0.28,0.27s-0.1,0.22-0.1,0.35c0,0.14,0.04,0.27,0.11,0.38s0.18,0.22,0.32,0.32s0.3,0.2,0.5,0.29s0.42,0.19,0.66,0.3
				c0.34,0.14,0.64,0.29,0.91,0.45s0.5,0.34,0.69,0.54s0.34,0.43,0.44,0.68s0.15,0.55,0.15,0.89c0,0.47-0.09,0.86-0.27,1.18
				s-0.42,0.58-0.72,0.77s-0.66,0.34-1.06,0.42s-0.83,0.13-1.28,0.13c-0.46,0-0.9-0.04-1.32-0.12S155.88,28.25,155.57,28.09z"/>
			<path d="M167.9,25.94h-3.91c0.06,0.87,0.61,1.31,1.65,1.31c0.66,0,1.24-0.16,1.74-0.47v1.34c-0.55,0.3-1.28,0.45-2.16,0.45
				c-0.97,0-1.72-0.27-2.26-0.81s-0.8-1.29-0.8-2.25c0-1,0.29-1.79,0.87-2.37s1.29-0.87,2.13-0.87c0.88,0,1.55,0.26,2.03,0.78
				s0.72,1.22,0.72,2.12V25.94z M166.18,24.81c0-0.86-0.35-1.29-1.04-1.29c-0.3,0-0.55,0.12-0.77,0.37s-0.35,0.55-0.4,0.92H166.18z"
				/>
			<path d="M172.91,24.09c-0.22-0.12-0.48-0.18-0.78-0.18c-0.4,0-0.72,0.15-0.94,0.44s-0.34,0.7-0.34,1.2v2.87H169v-6h1.85v1.11
				h0.02c0.29-0.81,0.82-1.22,1.58-1.22c0.2,0,0.35,0.02,0.46,0.07V24.09z"/>
			<path d="M179.97,22.42l-2.23,6h-2.11l-2.13-6h1.98l1.04,3.7c0.12,0.42,0.19,0.77,0.21,1.07h0.02c0.03-0.28,0.1-0.62,0.22-1.03
				l1.07-3.73H179.97z"/>
			<path d="M181.7,21.47c-0.31,0-0.57-0.09-0.77-0.28s-0.3-0.41-0.3-0.68c0-0.28,0.1-0.5,0.3-0.68s0.46-0.26,0.77-0.26
				c0.32,0,0.57,0.09,0.77,0.26s0.3,0.4,0.3,0.68c0,0.28-0.1,0.51-0.3,0.69S182.01,21.47,181.7,21.47z M182.61,28.42h-1.85v-6h1.85
				V28.42z"/>
			<path d="M188.71,28.2c-0.42,0.24-1.02,0.36-1.81,0.36c-0.92,0-1.67-0.28-2.24-0.84s-0.86-1.28-0.86-2.16
				c0-1.02,0.31-1.82,0.92-2.41s1.43-0.88,2.45-0.88c0.71,0,1.22,0.09,1.54,0.28v1.57c-0.39-0.29-0.82-0.43-1.29-0.43
				c-0.53,0-0.95,0.16-1.26,0.47s-0.47,0.74-0.47,1.29c0,0.53,0.15,0.95,0.45,1.25s0.71,0.45,1.22,0.45c0.46,0,0.91-0.14,1.35-0.43
				V28.2z"/>
			<path d="M195.32,25.94h-3.91c0.06,0.87,0.61,1.31,1.65,1.31c0.66,0,1.24-0.16,1.74-0.47v1.34c-0.55,0.3-1.28,0.45-2.16,0.45
				c-0.97,0-1.72-0.27-2.26-0.81s-0.8-1.29-0.8-2.25c0-1,0.29-1.79,0.87-2.37s1.29-0.87,2.13-0.87c0.88,0,1.55,0.26,2.03,0.78
				s0.72,1.22,0.72,2.12V25.94z M193.6,24.81c0-0.86-0.35-1.29-1.04-1.29c-0.3,0-0.55,0.12-0.77,0.37s-0.35,0.55-0.4,0.92H193.6z"/>
			<path d="M196.03,28.26v-1.5c0.3,0.18,0.61,0.32,0.91,0.41s0.59,0.13,0.86,0.13c0.33,0,0.59-0.04,0.78-0.13s0.28-0.23,0.28-0.41
				c0-0.12-0.04-0.21-0.13-0.29s-0.2-0.15-0.33-0.21s-0.28-0.11-0.44-0.16s-0.31-0.1-0.46-0.16c-0.24-0.09-0.45-0.19-0.63-0.29
				s-0.33-0.22-0.46-0.36s-0.22-0.29-0.28-0.47s-0.1-0.39-0.1-0.64c0-0.34,0.07-0.63,0.22-0.87s0.34-0.44,0.59-0.59
				s0.52-0.27,0.84-0.34s0.64-0.11,0.98-0.11c0.27,0,0.54,0.02,0.81,0.06s0.54,0.1,0.81,0.18v1.43c-0.23-0.14-0.49-0.24-0.75-0.31
				s-0.53-0.1-0.79-0.1c-0.12,0-0.24,0.01-0.34,0.03s-0.2,0.05-0.28,0.09s-0.15,0.09-0.19,0.16s-0.07,0.14-0.07,0.22
				c0,0.11,0.04,0.2,0.11,0.28s0.16,0.15,0.28,0.2s0.24,0.11,0.38,0.15s0.28,0.09,0.41,0.14c0.25,0.09,0.47,0.18,0.67,0.28
				s0.37,0.22,0.51,0.36s0.25,0.3,0.33,0.48s0.11,0.4,0.11,0.66c0,0.36-0.08,0.66-0.23,0.91s-0.36,0.46-0.62,0.62
				s-0.55,0.27-0.88,0.35s-0.68,0.11-1.04,0.11C197.2,28.56,196.59,28.46,196.03,28.26z"/>
			<path d="M211.09,21.56h-2.4v6.86h-1.9v-6.86h-2.38v-1.54h6.68V21.56z"/>
			<path d="M216.35,25.94h-3.91c0.06,0.87,0.61,1.31,1.65,1.31c0.66,0,1.24-0.16,1.74-0.47v1.34c-0.55,0.3-1.28,0.45-2.16,0.45
				c-0.97,0-1.72-0.27-2.26-0.81s-0.8-1.29-0.8-2.25c0-1,0.29-1.79,0.87-2.37s1.29-0.87,2.13-0.87c0.88,0,1.55,0.26,2.03,0.78
				s0.72,1.22,0.72,2.12V25.94z M214.64,24.81c0-0.86-0.35-1.29-1.04-1.29c-0.3,0-0.55,0.12-0.77,0.37s-0.35,0.55-0.4,0.92H214.64z"
				/>
			<path d="M223.25,22.42l-1.98,2.91l1.97,3.09h-2.13l-0.87-1.62c-0.07-0.13-0.15-0.31-0.25-0.54h-0.02
				c-0.06,0.16-0.14,0.34-0.24,0.53l-0.87,1.63h-2.13l2.03-2.99l-1.9-3.01h2.14l0.86,1.68c0.11,0.22,0.19,0.41,0.24,0.56h0.02
				c0.06-0.18,0.15-0.38,0.25-0.57l0.87-1.67H223.25z"/>
			<path d="M227.71,28.35c-0.27,0.14-0.69,0.22-1.24,0.22c-1.3,0-1.96-0.68-1.96-2.03v-2.75h-0.97v-1.37h0.97v-1.29l1.85-0.53v1.82
				h1.35v1.37h-1.35v2.43c0,0.63,0.25,0.94,0.74,0.94c0.2,0,0.4-0.06,0.6-0.17V28.35z"/>
			<path d="M163.35,41.62h-2.06l-0.6-1.87h-2.99l-0.59,1.87h-2.05l3.06-8.4h2.24L163.35,41.62z M160.26,38.29l-0.9-2.82
				c-0.07-0.21-0.11-0.46-0.14-0.76h-0.05c-0.02,0.25-0.07,0.49-0.15,0.73l-0.91,2.85H160.26z"/>
			<path d="M170.01,41.62h-1.85v-3.33c0-0.93-0.33-1.39-1-1.39c-0.32,0-0.58,0.12-0.79,0.37s-0.31,0.56-0.31,0.94v3.42h-1.85v-6
				h1.85v0.95h0.02c0.44-0.73,1.08-1.1,1.93-1.1c1.33,0,1.99,0.82,1.99,2.47V41.62z"/>
			<path d="M176.47,41.62h-1.75v-0.86h-0.02c-0.4,0.67-1,1.01-1.79,1.01c-0.58,0-1.04-0.17-1.37-0.5s-0.5-0.77-0.5-1.32
				c0-1.16,0.69-1.84,2.07-2.02l1.63-0.22c0-0.66-0.36-0.98-1.07-0.98c-0.71,0-1.39,0.21-2.04,0.64v-1.39
				c0.26-0.13,0.61-0.25,1.06-0.35s0.85-0.15,1.22-0.15c1.71,0,2.57,0.85,2.57,2.56V41.62z M174.73,39.18v-0.4l-1.09,0.14
				c-0.6,0.08-0.9,0.35-0.9,0.81c0,0.21,0.07,0.38,0.22,0.52s0.34,0.2,0.59,0.2c0.35,0,0.63-0.12,0.85-0.36
				S174.73,39.55,174.73,39.18z"/>
			<path d="M179.79,41.62h-1.85v-8.88h1.85V41.62z"/>
			<path d="M187.06,35.62l-2.44,6.48c-0.59,1.56-1.47,2.34-2.65,2.34c-0.45,0-0.82-0.05-1.11-0.15v-1.48
				c0.25,0.14,0.51,0.22,0.8,0.22c0.48,0,0.81-0.22,1-0.67l0.32-0.74l-2.44-5.99h2.05l1.12,3.65c0.07,0.23,0.13,0.49,0.16,0.8h0.02
				c0.04-0.23,0.1-0.49,0.19-0.79l1.13-3.66H187.06z"/>
			<path d="M191.45,41.55c-0.27,0.14-0.69,0.22-1.24,0.22c-1.3,0-1.96-0.68-1.96-2.03v-2.75h-0.97v-1.37h0.97v-1.29l1.85-0.53v1.82
				h1.35v1.37h-1.35v2.43c0,0.63,0.25,0.94,0.74,0.94c0.2,0,0.4-0.06,0.6-0.17V41.55z"/>
			<path d="M193.43,34.67c-0.31,0-0.57-0.09-0.77-0.28s-0.3-0.41-0.3-0.68c0-0.28,0.1-0.5,0.3-0.68s0.46-0.26,0.77-0.26
				c0.32,0,0.57,0.09,0.77,0.26s0.3,0.4,0.3,0.68c0,0.28-0.1,0.51-0.3,0.69S193.75,34.67,193.43,34.67z M194.35,41.62h-1.85v-6h1.85
				V41.62z"/>
			<path d="M200.45,41.4c-0.42,0.24-1.02,0.36-1.81,0.36c-0.92,0-1.67-0.28-2.24-0.84s-0.86-1.28-0.86-2.16
				c0-1.02,0.31-1.82,0.92-2.41s1.43-0.88,2.45-0.88c0.71,0,1.22,0.09,1.54,0.28v1.57c-0.39-0.29-0.82-0.43-1.29-0.43
				c-0.53,0-0.95,0.16-1.26,0.47s-0.47,0.74-0.47,1.29c0,0.53,0.15,0.95,0.45,1.25s0.71,0.45,1.22,0.45c0.46,0,0.91-0.14,1.35-0.43
				V41.4z"/>
			<path d="M201.27,41.46v-1.5c0.3,0.18,0.61,0.32,0.91,0.41s0.59,0.13,0.86,0.13c0.33,0,0.59-0.04,0.78-0.13s0.28-0.23,0.28-0.41
				c0-0.12-0.04-0.21-0.13-0.29s-0.2-0.15-0.33-0.21s-0.28-0.11-0.44-0.16s-0.31-0.1-0.46-0.16c-0.24-0.09-0.45-0.19-0.63-0.29
				s-0.33-0.22-0.46-0.36s-0.22-0.29-0.28-0.47s-0.1-0.39-0.1-0.64c0-0.34,0.07-0.63,0.22-0.87s0.34-0.44,0.59-0.59
				s0.52-0.27,0.84-0.34s0.64-0.11,0.98-0.11c0.27,0,0.54,0.02,0.81,0.06s0.54,0.1,0.81,0.18v1.43c-0.23-0.14-0.49-0.24-0.75-0.31
				s-0.53-0.1-0.79-0.1c-0.12,0-0.24,0.01-0.34,0.03s-0.2,0.05-0.28,0.09s-0.15,0.09-0.19,0.16s-0.07,0.14-0.07,0.22
				c0,0.11,0.04,0.2,0.11,0.28s0.16,0.15,0.28,0.2s0.24,0.11,0.38,0.15s0.28,0.09,0.41,0.14c0.25,0.09,0.47,0.18,0.67,0.28
				s0.37,0.22,0.51,0.36s0.25,0.3,0.33,0.48s0.11,0.4,0.11,0.66c0,0.36-0.08,0.66-0.23,0.91s-0.36,0.46-0.62,0.62
				s-0.55,0.27-0.88,0.35s-0.68,0.11-1.04,0.11C202.45,41.76,201.83,41.66,201.27,41.46z"/>
		</g>
	</g>
	<g>
		<rect x="140" y="61.07" fill="none" width="85" height="28.93"/>
		<path fill="#001F50" d="M156.5,69.62v-1.16c0.13,0.12,0.29,0.22,0.48,0.32s0.38,0.17,0.59,0.24s0.41,0.11,0.62,0.15
			s0.4,0.05,0.57,0.05c0.61,0,1.06-0.11,1.36-0.34s0.45-0.55,0.45-0.97c0-0.23-0.05-0.42-0.15-0.59s-0.24-0.32-0.41-0.46
			s-0.38-0.27-0.62-0.4s-0.5-0.26-0.78-0.4c-0.29-0.15-0.57-0.3-0.82-0.45s-0.47-0.32-0.66-0.5s-0.33-0.39-0.44-0.62
			s-0.16-0.5-0.16-0.82c0-0.38,0.08-0.72,0.25-1s0.39-0.52,0.66-0.7s0.58-0.32,0.93-0.41s0.71-0.13,1.07-0.13
			c0.83,0,1.43,0.1,1.81,0.3v1.11c-0.5-0.34-1.13-0.52-1.91-0.52c-0.21,0-0.43,0.02-0.64,0.07s-0.41,0.12-0.57,0.22
			s-0.3,0.23-0.41,0.39s-0.16,0.36-0.16,0.59c0,0.21,0.04,0.4,0.12,0.56s0.2,0.3,0.35,0.43s0.35,0.25,0.57,0.38s0.48,0.25,0.78,0.4
			c0.3,0.15,0.59,0.3,0.86,0.47s0.51,0.35,0.71,0.54s0.36,0.42,0.48,0.66s0.18,0.52,0.18,0.83c0,0.41-0.08,0.76-0.24,1.05
			s-0.38,0.52-0.66,0.7s-0.59,0.31-0.95,0.39s-0.74,0.12-1.14,0.12c-0.13,0-0.3-0.01-0.49-0.03s-0.39-0.05-0.6-0.09
			s-0.4-0.09-0.58-0.15S156.61,69.69,156.5,69.62z"/>
		<path fill="#001F50" d="M167.93,67.2h-4.24c0.02,0.67,0.2,1.18,0.54,1.55s0.82,0.54,1.42,0.54c0.68,0,1.3-0.22,1.86-0.67v0.9
			c-0.53,0.38-1.22,0.57-2.09,0.57c-0.85,0-1.51-0.27-2-0.82s-0.73-1.31-0.73-2.3c0-0.93,0.26-1.69,0.79-2.28s1.19-0.88,1.97-0.88
			s1.39,0.25,1.82,0.76s0.64,1.21,0.64,2.12V67.2z M166.95,66.38c0-0.55-0.14-0.99-0.4-1.29s-0.63-0.46-1.1-0.46
			c-0.45,0-0.84,0.16-1.15,0.49s-0.51,0.75-0.59,1.27H166.95z"/>
		<path fill="#001F50" d="M174.36,69.96h-0.96v-3.42c0-1.27-0.46-1.91-1.39-1.91c-0.48,0-0.88,0.18-1.19,0.54s-0.47,0.82-0.47,1.37
			v3.42h-0.96v-6h0.96v1h0.02c0.45-0.76,1.11-1.14,1.97-1.14c0.66,0,1.16,0.21,1.51,0.64s0.52,1.04,0.52,1.84V69.96z"/>
		<path fill="#001F50" d="M178.86,69.9c-0.23,0.13-0.53,0.19-0.9,0.19c-1.05,0-1.58-0.59-1.58-1.76v-3.55h-1.03v-0.82h1.03v-1.46
			l0.96-0.31v1.78h1.51v0.82h-1.51v3.38c0,0.4,0.07,0.69,0.21,0.86s0.36,0.26,0.68,0.26c0.24,0,0.45-0.07,0.63-0.2V69.9z"/>
		<path fill="#001F50" d="M180.54,62.43c-0.17,0-0.32-0.06-0.44-0.18s-0.18-0.27-0.18-0.45s0.06-0.33,0.18-0.45s0.27-0.18,0.44-0.18
			c0.18,0,0.33,0.06,0.45,0.18s0.18,0.27,0.18,0.45c0,0.17-0.06,0.32-0.18,0.44S180.72,62.43,180.54,62.43z M181.01,69.96h-0.96v-6
			h0.96V69.96z"/>
		<path fill="#001F50" d="M191.36,69.96h-0.96v-3.45c0-0.66-0.1-1.14-0.31-1.44s-0.55-0.45-1.03-0.45c-0.41,0-0.76,0.19-1.05,0.56
			s-0.43,0.82-0.43,1.35v3.42h-0.96V66.4c0-1.18-0.46-1.77-1.37-1.77c-0.42,0-0.77,0.18-1.04,0.53s-0.41,0.81-0.41,1.38v3.42h-0.96
			v-6h0.96v0.95h0.02c0.43-0.73,1.05-1.09,1.86-1.09c0.41,0,0.77,0.11,1.07,0.34s0.51,0.53,0.63,0.9c0.45-0.83,1.11-1.24,1.99-1.24
			c1.32,0,1.98,0.81,1.98,2.44V69.96z"/>
		<path fill="#001F50" d="M197.97,67.2h-4.24c0.02,0.67,0.2,1.18,0.54,1.55s0.82,0.54,1.42,0.54c0.68,0,1.3-0.22,1.86-0.67v0.9
			c-0.53,0.38-1.22,0.57-2.09,0.57c-0.85,0-1.51-0.27-2-0.82s-0.73-1.31-0.73-2.3c0-0.93,0.26-1.69,0.79-2.28s1.19-0.88,1.97-0.88
			s1.39,0.25,1.82,0.76s0.64,1.21,0.64,2.12V67.2z M196.99,66.38c0-0.55-0.14-0.99-0.4-1.29s-0.63-0.46-1.1-0.46
			c-0.45,0-0.84,0.16-1.15,0.49s-0.51,0.75-0.59,1.27H196.99z"/>
		<path fill="#001F50" d="M204.41,69.96h-0.96v-3.42c0-1.27-0.46-1.91-1.39-1.91c-0.48,0-0.88,0.18-1.19,0.54s-0.47,0.82-0.47,1.37
			v3.42h-0.96v-6h0.96v1h0.02c0.45-0.76,1.11-1.14,1.97-1.14c0.66,0,1.16,0.21,1.51,0.64s0.52,1.04,0.52,1.84V69.96z"/>
		<path fill="#001F50" d="M208.9,69.9c-0.23,0.13-0.53,0.19-0.9,0.19c-1.05,0-1.58-0.59-1.58-1.76v-3.55h-1.03v-0.82h1.03v-1.46
			l0.96-0.31v1.78h1.51v0.82h-1.51v3.38c0,0.4,0.07,0.69,0.21,0.86s0.36,0.26,0.68,0.26c0.24,0,0.45-0.07,0.63-0.2V69.9z"/>
		<path fill="#001F50" d="M169.04,84.36h-1.09L167.06,82h-3.56l-0.84,2.36h-1.1l3.22-8.4h1.02L169.04,84.36z M166.74,81.12
			l-1.32-3.58c-0.04-0.12-0.09-0.3-0.13-0.56h-0.02c-0.04,0.24-0.08,0.43-0.13,0.56l-1.31,3.58H166.74z"/>
		<path fill="#001F50" d="M175.13,84.36h-0.96v-3.42c0-1.27-0.46-1.91-1.39-1.91c-0.48,0-0.88,0.18-1.19,0.54s-0.47,0.82-0.47,1.37
			v3.42h-0.96v-6h0.96v1h0.02c0.45-0.76,1.11-1.14,1.97-1.14c0.66,0,1.16,0.21,1.51,0.64s0.52,1.04,0.52,1.84V84.36z"/>
		<path fill="#001F50" d="M181.16,84.36h-0.96v-0.94h-0.02c-0.42,0.72-1.03,1.08-1.85,1.08c-0.6,0-1.07-0.16-1.4-0.47
			s-0.51-0.74-0.51-1.26c0-1.12,0.66-1.77,1.98-1.96l1.8-0.25c0-1.02-0.41-1.53-1.24-1.53c-0.72,0-1.38,0.25-1.96,0.74v-0.98
			c0.59-0.38,1.27-0.56,2.04-0.56c1.41,0,2.12,0.75,2.12,2.24V84.36z M180.2,81.32l-1.45,0.2c-0.45,0.06-0.78,0.17-1.01,0.33
			s-0.34,0.44-0.34,0.84c0,0.29,0.1,0.53,0.31,0.72s0.49,0.28,0.83,0.28c0.48,0,0.87-0.17,1.18-0.5s0.47-0.76,0.47-1.27V81.32z"/>
		<path fill="#001F50" d="M183.86,84.36h-0.96v-8.88h0.96V84.36z"/>
		<path fill="#001F50" d="M190.62,78.36l-2.76,6.96c-0.49,1.24-1.18,1.86-2.07,1.86c-0.25,0-0.46-0.03-0.63-0.08v-0.86
			c0.21,0.07,0.4,0.11,0.57,0.11c0.48,0,0.85-0.29,1.09-0.87l0.48-1.14l-2.34-5.99h1.07l1.62,4.62c0.02,0.06,0.06,0.21,0.12,0.46
			h0.04c0.02-0.09,0.06-0.24,0.12-0.45l1.71-4.63H190.62z"/>
		<path fill="#001F50" d="M191.3,84.14v-1.03c0.52,0.39,1.1,0.58,1.73,0.58c0.84,0,1.27-0.28,1.27-0.84c0-0.16-0.04-0.3-0.11-0.41
			s-0.17-0.21-0.29-0.3s-0.27-0.16-0.43-0.23s-0.34-0.14-0.54-0.21c-0.27-0.11-0.5-0.21-0.7-0.32s-0.37-0.23-0.5-0.36
			s-0.24-0.29-0.3-0.46s-0.1-0.37-0.1-0.6c0-0.28,0.06-0.53,0.19-0.75s0.3-0.4,0.52-0.54s0.46-0.26,0.74-0.33s0.56-0.11,0.85-0.11
			c0.52,0,0.98,0.09,1.39,0.27v0.97c-0.44-0.29-0.95-0.43-1.52-0.43c-0.18,0-0.34,0.02-0.49,0.06s-0.27,0.1-0.37,0.17
			s-0.18,0.16-0.24,0.27s-0.08,0.22-0.08,0.34c0,0.16,0.03,0.29,0.08,0.39s0.14,0.2,0.25,0.28s0.24,0.16,0.4,0.22
			s0.33,0.14,0.53,0.22c0.27,0.1,0.5,0.21,0.71,0.31s0.39,0.23,0.54,0.36s0.26,0.29,0.34,0.47s0.12,0.38,0.12,0.63
			c0,0.3-0.07,0.55-0.2,0.77s-0.31,0.4-0.52,0.54s-0.47,0.25-0.76,0.32s-0.58,0.11-0.9,0.11C192.29,84.5,191.75,84.38,191.3,84.14z"
			/>
		<path fill="#001F50" d="M197.13,76.83c-0.17,0-0.32-0.06-0.44-0.18s-0.18-0.27-0.18-0.45s0.06-0.33,0.18-0.45s0.27-0.18,0.44-0.18
			c0.18,0,0.33,0.06,0.45,0.18s0.18,0.27,0.18,0.45c0,0.17-0.06,0.32-0.18,0.44S197.3,76.83,197.13,76.83z M197.6,84.36h-0.96v-6
			h0.96V84.36z"/>
		<path fill="#001F50" d="M199.08,84.14v-1.03c0.52,0.39,1.1,0.58,1.73,0.58c0.84,0,1.27-0.28,1.27-0.84c0-0.16-0.04-0.3-0.11-0.41
			s-0.17-0.21-0.29-0.3s-0.27-0.16-0.43-0.23s-0.34-0.14-0.54-0.21c-0.27-0.11-0.5-0.21-0.7-0.32s-0.37-0.23-0.5-0.36
			s-0.24-0.29-0.3-0.46s-0.1-0.37-0.1-0.6c0-0.28,0.06-0.53,0.19-0.75s0.3-0.4,0.52-0.54s0.46-0.26,0.74-0.33s0.56-0.11,0.85-0.11
			c0.52,0,0.98,0.09,1.39,0.27v0.97c-0.44-0.29-0.95-0.43-1.52-0.43c-0.18,0-0.34,0.02-0.49,0.06s-0.27,0.1-0.37,0.17
			s-0.18,0.16-0.24,0.27s-0.08,0.22-0.08,0.34c0,0.16,0.03,0.29,0.08,0.39s0.14,0.2,0.25,0.28s0.24,0.16,0.4,0.22
			s0.33,0.14,0.53,0.22c0.27,0.1,0.5,0.21,0.71,0.31s0.39,0.23,0.54,0.36s0.26,0.29,0.34,0.47s0.12,0.38,0.12,0.63
			c0,0.3-0.07,0.55-0.2,0.77s-0.31,0.4-0.52,0.54s-0.47,0.25-0.76,0.32s-0.58,0.11-0.9,0.11C200.07,84.5,199.53,84.38,199.08,84.14z
			"/>
	</g>
	<g>
		<rect x="140" y="105" fill="none" width="85" height="28.93"/>
		<path fill="#001F50" d="M161.04,113.88h-1.37l-3.25-3.84c-0.12-0.14-0.2-0.24-0.22-0.29h-0.02v4.14h-0.98v-8.4h0.98v3.95h0.02
			c0.05-0.09,0.13-0.18,0.22-0.29l3.14-3.66h1.22l-3.6,4.03L161.04,113.88z"/>
		<path fill="#001F50" d="M166.56,111.12h-4.24c0.02,0.67,0.2,1.18,0.54,1.55s0.82,0.54,1.42,0.54c0.68,0,1.3-0.22,1.86-0.67v0.9
			c-0.53,0.38-1.22,0.57-2.09,0.57c-0.85,0-1.51-0.27-2-0.82s-0.73-1.31-0.73-2.3c0-0.93,0.26-1.69,0.79-2.28s1.19-0.88,1.97-0.88
			s1.39,0.25,1.82,0.76s0.64,1.21,0.64,2.12V111.12z M165.57,110.31c0-0.55-0.14-0.99-0.4-1.29s-0.63-0.46-1.1-0.46
			c-0.45,0-0.84,0.16-1.15,0.49s-0.51,0.75-0.59,1.27H165.57z"/>
		<path fill="#001F50" d="M172.74,107.88l-2.76,6.96c-0.49,1.24-1.18,1.86-2.07,1.86c-0.25,0-0.46-0.03-0.63-0.08v-0.86
			c0.21,0.07,0.4,0.11,0.57,0.11c0.48,0,0.85-0.29,1.09-0.87l0.48-1.14l-2.34-5.99h1.07l1.62,4.62c0.02,0.06,0.06,0.21,0.12,0.46
			h0.04c0.02-0.09,0.06-0.24,0.12-0.45l1.71-4.63H172.74z"/>
		<path fill="#001F50" d="M178.17,110.71v3.18h-0.98v-8.4h2.31c0.9,0,1.59,0.22,2.09,0.66s0.74,1.05,0.74,1.85s-0.27,1.45-0.82,1.96
			s-1.29,0.76-2.22,0.76H178.17z M178.17,106.37v3.45h1.03c0.68,0,1.2-0.16,1.56-0.47s0.54-0.75,0.54-1.32
			c0-1.11-0.66-1.66-1.97-1.66H178.17z"/>
		<path fill="#001F50" d="M188.58,113.88h-0.96v-3.46c0-1.25-0.46-1.88-1.39-1.88c-0.47,0-0.86,0.18-1.18,0.54s-0.48,0.83-0.48,1.39
			v3.4h-0.96V105h0.96v3.88h0.02c0.46-0.76,1.12-1.14,1.97-1.14c1.35,0,2.03,0.81,2.03,2.44V113.88z"/>
		<path fill="#001F50" d="M193.45,108.86c-0.17-0.13-0.41-0.19-0.73-0.19c-0.41,0-0.75,0.19-1.03,0.58s-0.41,0.91-0.41,1.58v3.06
			h-0.96v-6h0.96v1.24h0.02c0.14-0.42,0.35-0.75,0.63-0.99s0.6-0.35,0.94-0.35c0.25,0,0.44,0.03,0.57,0.08V108.86z"/>
		<path fill="#001F50" d="M198.76,113.88h-0.96v-0.94h-0.02c-0.42,0.72-1.03,1.08-1.85,1.08c-0.6,0-1.07-0.16-1.4-0.47
			s-0.51-0.74-0.51-1.26c0-1.12,0.66-1.77,1.98-1.96l1.8-0.25c0-1.02-0.41-1.53-1.24-1.53c-0.72,0-1.38,0.25-1.96,0.74v-0.98
			c0.59-0.38,1.27-0.56,2.04-0.56c1.41,0,2.12,0.75,2.12,2.24V113.88z M197.8,110.85l-1.45,0.2c-0.45,0.06-0.78,0.17-1.01,0.33
			s-0.34,0.44-0.34,0.84c0,0.29,0.1,0.53,0.31,0.72s0.49,0.28,0.83,0.28c0.48,0,0.87-0.17,1.18-0.5s0.47-0.76,0.47-1.27V110.85z"/>
		<path fill="#001F50" d="M200.17,113.67v-1.03c0.52,0.39,1.1,0.58,1.73,0.58c0.84,0,1.27-0.28,1.27-0.84c0-0.16-0.04-0.3-0.11-0.41
			s-0.17-0.21-0.29-0.3s-0.27-0.16-0.43-0.23s-0.34-0.14-0.54-0.21c-0.27-0.11-0.5-0.21-0.7-0.32s-0.37-0.23-0.5-0.36
			s-0.24-0.29-0.3-0.46s-0.1-0.37-0.1-0.6c0-0.28,0.06-0.53,0.19-0.75s0.3-0.4,0.52-0.54s0.46-0.26,0.74-0.33s0.56-0.11,0.85-0.11
			c0.52,0,0.98,0.09,1.39,0.27v0.97c-0.44-0.29-0.95-0.43-1.52-0.43c-0.18,0-0.34,0.02-0.49,0.06s-0.27,0.1-0.37,0.17
			s-0.18,0.16-0.24,0.27s-0.08,0.22-0.08,0.34c0,0.16,0.03,0.29,0.08,0.39s0.14,0.2,0.25,0.28s0.24,0.16,0.4,0.22
			s0.33,0.14,0.53,0.22c0.27,0.1,0.5,0.21,0.71,0.31s0.39,0.23,0.54,0.36s0.26,0.29,0.34,0.47s0.12,0.38,0.12,0.63
			c0,0.3-0.07,0.55-0.2,0.77s-0.31,0.4-0.52,0.54s-0.47,0.25-0.76,0.32s-0.58,0.11-0.9,0.11
			C201.16,114.02,200.62,113.9,200.17,113.67z"/>
		<path fill="#001F50" d="M210.42,111.12h-4.24c0.02,0.67,0.2,1.18,0.54,1.55s0.82,0.54,1.42,0.54c0.68,0,1.3-0.22,1.86-0.67v0.9
			c-0.53,0.38-1.22,0.57-2.09,0.57c-0.85,0-1.51-0.27-2-0.82s-0.73-1.31-0.73-2.3c0-0.93,0.26-1.69,0.79-2.28s1.19-0.88,1.97-0.88
			s1.39,0.25,1.82,0.76s0.64,1.21,0.64,2.12V111.12z M209.44,110.31c0-0.55-0.14-0.99-0.4-1.29s-0.63-0.46-1.1-0.46
			c-0.45,0-0.84,0.16-1.15,0.49s-0.51,0.75-0.59,1.27H209.44z"/>
		<path fill="#001F50" d="M161.72,128.28h-4.45v-8.4h4.27v0.89h-3.28v2.79h3.04v0.88h-3.04v2.94h3.47V128.28z"/>
		<path fill="#001F50" d="M167.81,122.28l-2.02,3.04l1.98,2.96h-1.12l-1.18-1.95c-0.07-0.12-0.16-0.27-0.26-0.46h-0.02
			c-0.02,0.04-0.11,0.19-0.28,0.46l-1.2,1.95h-1.11l2.04-2.94l-1.96-3.06h1.12l1.16,2.05c0.09,0.15,0.17,0.31,0.25,0.47h0.02
			l1.5-2.52H167.81z"/>
		<path fill="#001F50" d="M172.08,128.22c-0.23,0.13-0.53,0.19-0.9,0.19c-1.05,0-1.58-0.59-1.58-1.76v-3.55h-1.03v-0.82h1.03v-1.46
			l0.96-0.31v1.78h1.51v0.82h-1.51v3.38c0,0.4,0.07,0.69,0.21,0.86s0.36,0.26,0.68,0.26c0.24,0,0.45-0.07,0.63-0.2V128.22z"/>
		<path fill="#001F50" d="M176.4,123.26c-0.17-0.13-0.41-0.19-0.73-0.19c-0.41,0-0.75,0.19-1.03,0.58s-0.41,0.91-0.41,1.58v3.06
			h-0.96v-6h0.96v1.24h0.02c0.14-0.42,0.35-0.75,0.63-0.99s0.6-0.35,0.94-0.35c0.25,0,0.44,0.03,0.57,0.08V123.26z"/>
		<path fill="#001F50" d="M181.7,128.28h-0.96v-0.94h-0.02c-0.42,0.72-1.03,1.08-1.85,1.08c-0.6,0-1.07-0.16-1.4-0.47
			c-0.34-0.32-0.51-0.74-0.51-1.26c0-1.12,0.66-1.77,1.98-1.96l1.8-0.25c0-1.02-0.41-1.53-1.24-1.53c-0.72,0-1.38,0.25-1.96,0.74
			v-0.98c0.59-0.38,1.27-0.56,2.04-0.56c1.41,0,2.12,0.75,2.12,2.24V128.28z M180.74,125.25l-1.45,0.2
			c-0.45,0.06-0.78,0.17-1.01,0.33s-0.34,0.44-0.34,0.84c0,0.29,0.1,0.53,0.31,0.72s0.49,0.28,0.83,0.28c0.48,0,0.87-0.17,1.18-0.5
			s0.47-0.76,0.47-1.27V125.25z"/>
		<path fill="#001F50" d="M187.58,128.01c-0.46,0.28-1.01,0.42-1.64,0.42c-0.86,0-1.55-0.28-2.07-0.83
			c-0.53-0.56-0.79-1.28-0.79-2.17c0-0.99,0.28-1.78,0.85-2.38s1.32-0.9,2.27-0.9c0.53,0,0.99,0.1,1.39,0.29v0.98
			c-0.45-0.31-0.92-0.47-1.43-0.47c-0.61,0-1.12,0.22-1.51,0.66s-0.59,1.02-0.59,1.73c0,0.7,0.18,1.26,0.55,1.66
			s0.86,0.61,1.49,0.61c0.52,0,1.02-0.17,1.48-0.52V128.01z"/>
		<path fill="#001F50" d="M192.01,128.22c-0.23,0.13-0.53,0.19-0.9,0.19c-1.05,0-1.58-0.59-1.58-1.76v-3.55h-1.03v-0.82h1.03v-1.46
			l0.96-0.31v1.78h1.51v0.82h-1.51v3.38c0,0.4,0.07,0.69,0.21,0.86s0.36,0.26,0.68,0.26c0.24,0,0.45-0.07,0.63-0.2V128.22z"/>
		<path fill="#001F50" d="M193.7,120.76c-0.17,0-0.32-0.06-0.44-0.18s-0.18-0.27-0.18-0.45s0.06-0.33,0.18-0.45s0.27-0.18,0.44-0.18
			c0.18,0,0.33,0.06,0.45,0.18s0.18,0.27,0.18,0.45c0,0.17-0.06,0.32-0.18,0.44S193.88,120.76,193.7,120.76z M194.17,128.28h-0.96
			v-6h0.96V128.28z"/>
		<path fill="#001F50" d="M198.54,128.42c-0.89,0-1.59-0.28-2.12-0.84c-0.53-0.56-0.79-1.3-0.79-2.23c0-1.01,0.28-1.79,0.83-2.36
			s1.29-0.85,2.23-0.85c0.89,0,1.59,0.28,2.09,0.83s0.75,1.31,0.75,2.29c0,0.96-0.27,1.72-0.81,2.3
			C200.18,128.14,199.45,128.42,198.54,128.42z M198.61,122.95c-0.62,0-1.11,0.21-1.46,0.63s-0.54,1-0.54,1.74
			c0,0.71,0.18,1.27,0.54,1.68s0.85,0.62,1.46,0.62c0.62,0,1.1-0.2,1.43-0.6s0.5-0.97,0.5-1.72c0-0.75-0.17-1.33-0.5-1.73
			S199.24,122.95,198.61,122.95z"/>
		<path fill="#001F50" d="M207.99,128.28h-0.96v-3.42c0-1.27-0.46-1.91-1.39-1.91c-0.48,0-0.88,0.18-1.19,0.54s-0.47,0.82-0.47,1.37
			v3.42h-0.96v-6h0.96v1H204c0.45-0.76,1.11-1.14,1.97-1.14c0.66,0,1.16,0.21,1.51,0.64s0.52,1.04,0.52,1.84V128.28z"/>
	</g>
	<g>
		<g>
			<path d="M18.78,23.56v-1.88c0.34,0.29,0.71,0.5,1.11,0.64s0.8,0.21,1.21,0.21c0.24,0,0.45-0.02,0.62-0.06s0.33-0.1,0.45-0.18
				s0.21-0.17,0.27-0.27s0.09-0.22,0.09-0.34c0-0.16-0.05-0.31-0.14-0.44S22.16,21,22,20.89s-0.35-0.21-0.58-0.32
				s-0.46-0.21-0.72-0.31c-0.66-0.27-1.15-0.61-1.47-1s-0.48-0.87-0.48-1.43c0-0.44,0.09-0.81,0.26-1.13s0.42-0.57,0.72-0.78
				s0.65-0.35,1.05-0.45s0.82-0.14,1.27-0.14c0.44,0,0.83,0.03,1.16,0.08s0.65,0.13,0.93,0.24v1.75c-0.14-0.1-0.29-0.18-0.46-0.26
				s-0.34-0.14-0.51-0.18s-0.35-0.08-0.52-0.11s-0.34-0.04-0.5-0.04c-0.21,0-0.41,0.02-0.59,0.06s-0.32,0.1-0.45,0.17
				s-0.21,0.16-0.28,0.27s-0.1,0.22-0.1,0.35c0,0.14,0.04,0.27,0.11,0.38s0.18,0.22,0.32,0.32s0.3,0.2,0.5,0.29s0.42,0.19,0.66,0.3
				c0.34,0.14,0.64,0.29,0.91,0.45s0.5,0.34,0.69,0.54s0.34,0.43,0.44,0.68s0.15,0.55,0.15,0.89c0,0.47-0.09,0.86-0.27,1.18
				s-0.42,0.58-0.72,0.77s-0.66,0.34-1.06,0.42s-0.83,0.13-1.28,0.13c-0.46,0-0.9-0.04-1.32-0.12S19.09,23.72,18.78,23.56z"/>
			<path d="M31.42,23.88h-1.85v-0.91h-0.03c-0.46,0.71-1.07,1.06-1.83,1.06c-1.39,0-2.09-0.84-2.09-2.53v-3.62h1.85v3.46
				c0,0.85,0.34,1.27,1.01,1.27c0.33,0,0.6-0.12,0.8-0.35s0.3-0.55,0.3-0.95v-3.43h1.85V23.88z"/>
			<path d="M36.89,19.55c-0.22-0.12-0.48-0.18-0.78-0.18c-0.4,0-0.72,0.15-0.94,0.44s-0.34,0.7-0.34,1.2v2.87h-1.85v-6h1.85V19h0.02
				c0.29-0.81,0.82-1.22,1.58-1.22c0.2,0,0.35,0.02,0.46,0.07V19.55z"/>
			<path d="M43.94,17.88l-2.23,6H39.6l-2.13-6h1.98l1.04,3.7c0.12,0.42,0.19,0.77,0.21,1.07h0.02c0.03-0.28,0.1-0.62,0.22-1.03
				l1.07-3.73H43.94z"/>
			<path d="M50.01,21.41H46.1c0.06,0.87,0.61,1.31,1.65,1.31c0.66,0,1.24-0.16,1.74-0.47v1.34c-0.55,0.3-1.28,0.45-2.16,0.45
				c-0.97,0-1.72-0.27-2.26-0.81s-0.8-1.29-0.8-2.25c0-1,0.29-1.79,0.87-2.37s1.29-0.87,2.13-0.87c0.88,0,1.55,0.26,2.03,0.78
				s0.72,1.22,0.72,2.12V21.41z M48.29,20.27c0-0.86-0.35-1.29-1.04-1.29c-0.3,0-0.55,0.12-0.77,0.37s-0.35,0.55-0.4,0.92H48.29z"/>
			<path d="M56.82,17.88l-2.44,6.48c-0.59,1.56-1.47,2.34-2.65,2.34c-0.45,0-0.82-0.05-1.11-0.15v-1.48
				c0.25,0.14,0.51,0.22,0.8,0.22c0.48,0,0.81-0.22,1-0.67l0.32-0.74l-2.44-5.99h2.05l1.12,3.65c0.07,0.23,0.13,0.49,0.16,0.8h0.02
				c0.04-0.23,0.1-0.49,0.19-0.79l1.13-3.66H56.82z"/>
			<path d="M32.34,30.22h-2.4v6.86h-1.9v-6.86h-2.38v-1.54h6.68V30.22z"/>
			<path d="M35.07,37.23c-1,0-1.79-0.28-2.36-0.84s-0.86-1.32-0.86-2.28c0-0.99,0.3-1.77,0.89-2.33s1.4-0.84,2.41-0.84
				c1,0,1.78,0.28,2.34,0.84s0.85,1.3,0.85,2.22c0,1-0.29,1.78-0.88,2.36S36.09,37.23,35.07,37.23z M35.12,32.35
				c-0.44,0-0.78,0.15-1.02,0.45s-0.36,0.73-0.36,1.28c0,1.15,0.46,1.73,1.39,1.73c0.89,0,1.33-0.59,1.33-1.78
				C36.46,32.92,36.02,32.35,35.12,32.35z"/>
			<path d="M42.41,37.23c-1,0-1.79-0.28-2.36-0.84s-0.86-1.32-0.86-2.28c0-0.99,0.3-1.77,0.89-2.33s1.4-0.84,2.41-0.84
				c1,0,1.78,0.28,2.34,0.84s0.85,1.3,0.85,2.22c0,1-0.29,1.78-0.88,2.36S43.43,37.23,42.41,37.23z M42.46,32.35
				c-0.44,0-0.78,0.15-1.02,0.45s-0.36,0.73-0.36,1.28c0,1.15,0.46,1.73,1.39,1.73c0.89,0,1.33-0.59,1.33-1.78
				C43.8,32.92,43.35,32.35,42.46,32.35z"/>
			<path d="M48.74,37.08h-1.85V28.2h1.85V37.08z"/>
		</g>
	</g>
	<g>
		<g>
			<path d="M299.57,73.88h-2.06l-0.6-1.87h-2.99l-0.59,1.87h-2.05l3.06-8.4h2.24L299.57,73.88z M296.47,70.56l-0.9-2.82
				c-0.07-0.21-0.11-0.46-0.14-0.76h-0.05c-0.02,0.25-0.07,0.49-0.15,0.73l-0.91,2.85H296.47z"/>
			<path d="M305.19,73.88h-5.38v-0.77l3.01-3.87h-2.71v-1.37h5.06v0.91l-2.85,3.72h2.88V73.88z"/>
			<path d="M311.88,73.88h-1.85v-0.91h-0.03c-0.46,0.71-1.07,1.06-1.83,1.06c-1.39,0-2.09-0.84-2.09-2.53v-3.62h1.85v3.46
				c0,0.85,0.34,1.27,1.01,1.27c0.33,0,0.6-0.12,0.8-0.35s0.3-0.55,0.3-0.95v-3.43h1.85V73.88z"/>
			<path d="M317.36,69.55c-0.22-0.12-0.48-0.18-0.78-0.18c-0.4,0-0.72,0.15-0.94,0.44s-0.34,0.7-0.34,1.2v2.87h-1.85v-6h1.85V69
				h0.02c0.29-0.81,0.82-1.22,1.58-1.22c0.2,0,0.35,0.02,0.46,0.07V69.55z"/>
			<path d="M323.56,71.41h-3.91c0.06,0.87,0.61,1.31,1.65,1.31c0.66,0,1.24-0.16,1.74-0.47v1.34c-0.55,0.3-1.28,0.45-2.16,0.45
				c-0.97,0-1.72-0.27-2.26-0.81s-0.8-1.29-0.8-2.25c0-1,0.29-1.79,0.87-2.37s1.29-0.87,2.13-0.87c0.88,0,1.55,0.26,2.03,0.78
				s0.72,1.22,0.72,2.12V71.41z M321.84,70.27c0-0.86-0.35-1.29-1.04-1.29c-0.3,0-0.55,0.12-0.77,0.37s-0.35,0.55-0.4,0.92H321.84z"
				/>
			<path d="M327.77,73.56v-1.88c0.34,0.29,0.71,0.5,1.11,0.64s0.8,0.21,1.21,0.21c0.24,0,0.45-0.02,0.62-0.06s0.33-0.1,0.45-0.18
				s0.21-0.17,0.27-0.27s0.09-0.22,0.09-0.34c0-0.16-0.05-0.31-0.14-0.44s-0.22-0.25-0.38-0.36s-0.35-0.21-0.58-0.32
				s-0.46-0.21-0.72-0.31c-0.66-0.27-1.15-0.61-1.47-1s-0.48-0.87-0.48-1.43c0-0.44,0.09-0.81,0.26-1.13s0.42-0.57,0.72-0.78
				s0.65-0.35,1.05-0.45s0.82-0.14,1.27-0.14c0.44,0,0.83,0.03,1.16,0.08s0.65,0.13,0.93,0.24v1.75c-0.14-0.1-0.29-0.18-0.46-0.26
				s-0.34-0.14-0.51-0.18s-0.35-0.08-0.52-0.11s-0.34-0.04-0.5-0.04c-0.21,0-0.41,0.02-0.59,0.06s-0.32,0.1-0.45,0.17
				s-0.21,0.16-0.28,0.27s-0.1,0.22-0.1,0.35c0,0.14,0.04,0.27,0.11,0.38s0.18,0.22,0.32,0.32s0.3,0.2,0.5,0.29s0.42,0.19,0.66,0.3
				c0.34,0.14,0.64,0.29,0.91,0.45s0.5,0.34,0.69,0.54s0.34,0.43,0.44,0.68s0.15,0.55,0.15,0.89c0,0.47-0.09,0.86-0.27,1.18
				s-0.42,0.58-0.72,0.77s-0.66,0.34-1.06,0.42s-0.83,0.13-1.28,0.13c-0.46,0-0.9-0.04-1.32-0.12S328.07,73.72,327.77,73.56z"/>
			<path d="M338.03,73.81c-0.27,0.14-0.69,0.22-1.24,0.22c-1.3,0-1.96-0.68-1.96-2.03v-2.75h-0.97v-1.37h0.97v-1.29l1.85-0.53v1.82
				h1.35v1.37h-1.35v2.43c0,0.63,0.25,0.94,0.74,0.94c0.2,0,0.4-0.06,0.6-0.17V73.81z"/>
			<path d="M341.88,74.03c-1,0-1.79-0.28-2.36-0.84s-0.86-1.32-0.86-2.28c0-0.99,0.3-1.77,0.89-2.33s1.4-0.84,2.41-0.84
				c1,0,1.78,0.28,2.34,0.84s0.85,1.3,0.85,2.22c0,1-0.29,1.78-0.88,2.36S342.9,74.03,341.88,74.03z M341.93,69.15
				c-0.44,0-0.78,0.15-1.02,0.45s-0.36,0.73-0.36,1.28c0,1.15,0.46,1.73,1.39,1.73c0.89,0,1.33-0.59,1.33-1.78
				C343.27,69.71,342.82,69.15,341.93,69.15z"/>
			<path d="M350.27,69.55c-0.22-0.12-0.48-0.18-0.78-0.18c-0.4,0-0.72,0.15-0.94,0.44s-0.34,0.7-0.34,1.2v2.87h-1.85v-6h1.85V69
				h0.02c0.29-0.81,0.82-1.22,1.58-1.22c0.2,0,0.35,0.02,0.46,0.07V69.55z"/>
			<path d="M356.13,73.88h-1.75v-0.86h-0.02c-0.4,0.67-1,1.01-1.79,1.01c-0.58,0-1.04-0.17-1.37-0.5s-0.5-0.77-0.5-1.32
				c0-1.16,0.69-1.84,2.07-2.02l1.63-0.22c0-0.66-0.36-0.98-1.07-0.98c-0.71,0-1.39,0.21-2.04,0.64v-1.39
				c0.26-0.13,0.61-0.25,1.06-0.35s0.85-0.15,1.22-0.15c1.71,0,2.57,0.85,2.57,2.56V73.88z M354.39,71.45v-0.4l-1.09,0.14
				c-0.6,0.08-0.9,0.35-0.9,0.81c0,0.21,0.07,0.38,0.22,0.52s0.34,0.2,0.59,0.2c0.35,0,0.63-0.12,0.85-0.36
				S354.39,71.81,354.39,71.45z"/>
			<path d="M363.47,73.2c0,1.11-0.32,1.98-0.97,2.59s-1.58,0.92-2.8,0.92c-0.81,0-1.45-0.12-1.92-0.35V74.8
				c0.62,0.36,1.24,0.54,1.87,0.54c0.63,0,1.11-0.17,1.45-0.5s0.52-0.78,0.52-1.34v-0.47h-0.02c-0.42,0.67-1.04,1.01-1.87,1.01
				c-0.77,0-1.37-0.27-1.82-0.81s-0.67-1.26-0.67-2.17c0-1.02,0.25-1.82,0.75-2.42s1.16-0.9,1.97-0.9c0.73,0,1.28,0.28,1.64,0.84
				h0.02v-0.7h1.85V73.2z M361.65,71v-0.47c0-0.38-0.11-0.7-0.34-0.97s-0.52-0.4-0.88-0.4c-0.41,0-0.73,0.16-0.97,0.48
				s-0.35,0.77-0.35,1.35c0,0.5,0.11,0.9,0.33,1.19s0.53,0.44,0.91,0.44c0.38,0,0.69-0.15,0.93-0.44S361.65,71.48,361.65,71z"/>
			<path d="M370.41,71.41h-3.91c0.06,0.87,0.61,1.31,1.65,1.31c0.66,0,1.24-0.16,1.74-0.47v1.34c-0.55,0.3-1.28,0.45-2.16,0.45
				c-0.97,0-1.72-0.27-2.26-0.81s-0.8-1.29-0.8-2.25c0-1,0.29-1.79,0.87-2.37s1.29-0.87,2.13-0.87c0.88,0,1.55,0.26,2.03,0.78
				s0.72,1.22,0.72,2.12V71.41z M368.69,70.27c0-0.86-0.35-1.29-1.04-1.29c-0.3,0-0.55,0.12-0.77,0.37s-0.35,0.55-0.4,0.92H368.69z"
				/>
			<path d="M294.86,87.23c-1,0-1.79-0.28-2.36-0.84s-0.86-1.32-0.86-2.28c0-0.99,0.3-1.77,0.89-2.33s1.4-0.84,2.41-0.84
				c1,0,1.78,0.28,2.34,0.84s0.85,1.3,0.85,2.22c0,1-0.29,1.78-0.88,2.36S295.87,87.23,294.86,87.23z M294.9,82.35
				c-0.44,0-0.78,0.15-1.02,0.45s-0.36,0.73-0.36,1.28c0,1.15,0.46,1.73,1.39,1.73c0.89,0,1.33-0.59,1.33-1.78
				C296.24,82.92,295.8,82.35,294.9,82.35z"/>
			<path d="M303.25,82.75c-0.22-0.12-0.48-0.18-0.78-0.18c-0.4,0-0.72,0.15-0.94,0.44s-0.34,0.7-0.34,1.2v2.87h-1.85v-6h1.85v1.11
				h0.02c0.29-0.81,0.82-1.22,1.58-1.22c0.2,0,0.35,0.02,0.46,0.07V82.75z"/>
			<path d="M311.33,79.62c-0.24-0.09-0.47-0.14-0.69-0.14c-0.59,0-0.89,0.32-0.89,0.97v0.64h1.37v1.37h-1.37v4.63h-1.85v-4.63h-1.01
				v-1.37h1.01v-0.74c0-0.68,0.22-1.23,0.67-1.65s1.05-0.63,1.82-0.63c0.38,0,0.69,0.04,0.94,0.12V79.62z"/>
			<path d="M312.95,80.13c-0.31,0-0.57-0.09-0.77-0.28s-0.3-0.41-0.3-0.68c0-0.28,0.1-0.5,0.3-0.68s0.46-0.26,0.77-0.26
				c0.32,0,0.57,0.09,0.77,0.26s0.3,0.4,0.3,0.68c0,0.28-0.1,0.51-0.3,0.69S313.27,80.13,312.95,80.13z M313.87,87.08h-1.85v-6h1.85
				V87.08z"/>
			<path d="M317.28,87.08h-1.85V78.2h1.85V87.08z"/>
			<path d="M324.23,84.61h-3.91c0.06,0.87,0.61,1.31,1.65,1.31c0.66,0,1.24-0.16,1.74-0.47v1.34c-0.55,0.3-1.28,0.45-2.16,0.45
				c-0.97,0-1.72-0.27-2.26-0.81s-0.8-1.29-0.8-2.25c0-1,0.29-1.79,0.87-2.37s1.29-0.87,2.13-0.87c0.88,0,1.55,0.26,2.03,0.78
				s0.72,1.22,0.72,2.12V84.61z M322.51,83.47c0-0.86-0.35-1.29-1.04-1.29c-0.3,0-0.55,0.12-0.77,0.37s-0.35,0.55-0.4,0.92H322.51z"
				/>
			<path d="M328.25,86.92v-1.5c0.3,0.18,0.61,0.32,0.91,0.41s0.59,0.13,0.86,0.13c0.33,0,0.59-0.04,0.78-0.13s0.28-0.23,0.28-0.41
				c0-0.12-0.04-0.21-0.13-0.29s-0.2-0.15-0.33-0.21s-0.28-0.11-0.44-0.16s-0.31-0.1-0.46-0.16c-0.24-0.09-0.45-0.19-0.63-0.29
				s-0.33-0.22-0.46-0.36s-0.22-0.29-0.28-0.47s-0.1-0.39-0.1-0.64c0-0.34,0.07-0.63,0.22-0.87s0.34-0.44,0.59-0.59
				s0.52-0.27,0.84-0.34s0.64-0.11,0.98-0.11c0.27,0,0.54,0.02,0.81,0.06s0.54,0.1,0.81,0.18v1.43c-0.23-0.14-0.49-0.24-0.75-0.31
				s-0.53-0.1-0.79-0.1c-0.12,0-0.24,0.01-0.34,0.03s-0.2,0.05-0.28,0.09s-0.15,0.09-0.19,0.16s-0.07,0.14-0.07,0.22
				c0,0.11,0.04,0.2,0.11,0.28s0.16,0.15,0.28,0.2s0.24,0.11,0.38,0.15s0.28,0.09,0.41,0.14c0.25,0.09,0.47,0.18,0.67,0.28
				s0.37,0.22,0.51,0.36s0.25,0.3,0.33,0.48s0.11,0.4,0.11,0.66c0,0.36-0.08,0.66-0.23,0.91s-0.36,0.46-0.62,0.62
				s-0.55,0.27-0.88,0.35s-0.68,0.11-1.04,0.11C329.42,87.23,328.81,87.13,328.25,86.92z"/>
			<path d="M339.63,81.08l-2.44,6.48c-0.59,1.56-1.47,2.34-2.65,2.34c-0.45,0-0.82-0.05-1.11-0.15v-1.48
				c0.25,0.14,0.51,0.22,0.8,0.22c0.48,0,0.81-0.22,1-0.67l0.32-0.74l-2.44-5.99h2.05l1.12,3.65c0.07,0.23,0.13,0.49,0.16,0.8h0.02
				c0.04-0.23,0.1-0.49,0.19-0.79l1.13-3.66H339.63z"/>
			<path d="M339.98,86.92v-1.5c0.3,0.18,0.61,0.32,0.91,0.41s0.59,0.13,0.86,0.13c0.33,0,0.59-0.04,0.78-0.13s0.28-0.23,0.28-0.41
				c0-0.12-0.04-0.21-0.13-0.29s-0.2-0.15-0.33-0.21s-0.28-0.11-0.44-0.16s-0.31-0.1-0.46-0.16c-0.24-0.09-0.45-0.19-0.63-0.29
				s-0.33-0.22-0.46-0.36s-0.22-0.29-0.28-0.47s-0.1-0.39-0.1-0.64c0-0.34,0.07-0.63,0.22-0.87s0.34-0.44,0.59-0.59
				s0.52-0.27,0.84-0.34s0.64-0.11,0.98-0.11c0.27,0,0.54,0.02,0.81,0.06s0.54,0.1,0.81,0.18v1.43c-0.23-0.14-0.49-0.24-0.75-0.31
				s-0.53-0.1-0.79-0.1c-0.12,0-0.24,0.01-0.34,0.03s-0.2,0.05-0.28,0.09s-0.15,0.09-0.19,0.16s-0.07,0.14-0.07,0.22
				c0,0.11,0.04,0.2,0.11,0.28s0.16,0.15,0.28,0.2s0.24,0.11,0.38,0.15s0.28,0.09,0.41,0.14c0.25,0.09,0.47,0.18,0.67,0.28
				s0.37,0.22,0.51,0.36s0.25,0.3,0.33,0.48s0.11,0.4,0.11,0.66c0,0.36-0.08,0.66-0.23,0.91s-0.36,0.46-0.62,0.62
				s-0.55,0.27-0.88,0.35s-0.68,0.11-1.04,0.11C341.16,87.23,340.55,87.13,339.98,86.92z"/>
			<path d="M349.28,87.01c-0.27,0.14-0.69,0.22-1.24,0.22c-1.3,0-1.96-0.68-1.96-2.03v-2.75h-0.97v-1.37h0.97v-1.29l1.85-0.53v1.82
				h1.35v1.37h-1.35v2.43c0,0.63,0.25,0.94,0.74,0.94c0.2,0,0.4-0.06,0.6-0.17V87.01z"/>
			<path d="M355.67,84.61h-3.91c0.06,0.87,0.61,1.31,1.65,1.31c0.66,0,1.24-0.16,1.74-0.47v1.34c-0.55,0.3-1.28,0.45-2.16,0.45
				c-0.97,0-1.72-0.27-2.26-0.81s-0.8-1.29-0.8-2.25c0-1,0.29-1.79,0.87-2.37s1.29-0.87,2.13-0.87c0.88,0,1.55,0.26,2.03,0.78
				s0.72,1.22,0.72,2.12V84.61z M353.95,83.47c0-0.86-0.35-1.29-1.04-1.29c-0.3,0-0.55,0.12-0.77,0.37s-0.35,0.55-0.4,0.92H353.95z"
				/>
			<path d="M366.3,87.08h-1.85v-3.42c0-0.87-0.32-1.31-0.96-1.31c-0.3,0-0.55,0.13-0.74,0.39s-0.29,0.59-0.29,0.98v3.36h-1.85v-3.46
				c0-0.85-0.31-1.27-0.94-1.27c-0.32,0-0.57,0.13-0.76,0.38s-0.28,0.59-0.28,1.02v3.33h-1.85v-6h1.85v0.94h0.02
				c0.19-0.32,0.46-0.58,0.81-0.78s0.72-0.3,1.13-0.3c0.85,0,1.43,0.37,1.74,1.12c0.46-0.75,1.13-1.12,2.02-1.12
				c1.3,0,1.96,0.8,1.96,2.41V87.08z"/>
		</g>
	</g>
	<g>
	</g>
	<g>
	</g>
	<g>
	</g>
	<g>
	</g>
	<g>
	</g>
	<g>
	</g>
	<g>
	</g>
	<g>
	</g>
	<g>
	</g>
	<g>
	</g>
	<g>
	</g>
	<g>
	</g>
	<g>
	</g>
	<g>
	</g>
	<g>
	</g>
	<g>
	</g>
	<g>
	</g>
	<g>
	</g>
	<g>
	</g>
	<g>
	</g>
	<g>
	</g>
	<g>
	</g>
	<g>
	</g>
	<g>
	</g>
	<g>
	</g>
	<g>
	</g>
	<g>
	</g>
	<g>
	</g>
	<g>
	</g>
	<g>
	</g>
	<g>
	</g>
	<g>
	</g>
	<g>
	</g>
	<g>
	</g>
	<g>
	</g>
	<g>
	</g>
	<g>
	</g>
	<g>
	</g>
	<g>
	</g>
	<g>
	</g>
	<g>
	</g>
	<g>
	</g>
	<g>
	</g>
	<g>
	</g>
	<g>
	</g>
	<g>
	</g>
	<g>
	</g>
	<g>
	</g>
	<g>
	</g>
	<g>
	</g>
	<g>
	</g>
	<g>
	</g>
	<g>
	</g>
	<g>
	</g>
	<g>
	</g>
	<g>
	</g>
	<g>
	</g>
	<g>
	</g>
	<g>
	</g>
	<g>
	</g>
	<g>
	</g>
	<g>
	</g>
	<g>
	</g>
	<g>
	</g>
	<g>
	</g>
	<g>
	</g>
	<g>
	</g>
	<g>
	</g>
	<g>
	</g>
	<g>
	</g>
	<g>
	</g>
	<g>
	</g>
	<g>
	</g>
	<g>
	</g>
	<g>
	</g>
	<g>
	</g>
	<g>
	</g>
	<g>
	</g>
	<g>
	</g>
	<g>
	</g>
	<g>
	</g>
	<g>
	</g>
	<g>
	</g>
	<g>
	</g>
	<g>
	</g>
	<g>
	</g>
	<g>
	</g>
	<g>
	</g>
	<g>
	</g>
	<g>
	</g>
	<g>
	</g>
	<g>
	</g>
	<g>
	</g>
	<g>
	</g>
	<g>
	</g>
	<g>
	</g>
	<g>
	</g>
	<g>
	</g>
	<g>
	</g>
	<g>
	</g>
	<g>
	</g>
	<g>
	</g>
	<g>
	</g>
	<g>
	</g>
	<g>
	</g>
	<g>
	</g>
	<g>
	</g>
	<g>
	</g>
	<g>
	</g>
	<g>
	</g>
	<g>
	</g>
	<g>
	</g>
	<g>
	</g>
	<g>
	</g>
	<g>
	</g>
	<g>
	</g>
	<g>
	</g>
	<g>
	</g>
	<g>
	</g>
	<g>
	</g>
	<g>
	</g>
	<g>
	</g>
	<g>
	</g>
	<g>
	</g>
	<g>
	</g>
	<g>
	</g>
	<g>
	</g>
	<g>
	</g>
	<g>
	</g>
	<g>
	</g>
	<g>
	</g>
	<g>
	</g>
	<g>
	</g>
	<g>
	</g>
	<g>
	</g>
	<g>
	</g>
	<g>
	</g>
	<g>
	</g>
	<g>
	</g>
	<g>
	</g>
	<g>
	</g>
	<g>
	</g>
	<g>
	</g>
	<g>
	</g>
	<g>
	</g>
	<g>
	</g>
	<g>
	</g>
	<g>
	</g>
	<g>
	</g>
	<g>
	</g>
	<g>
	</g>
	<g>
	</g>
	<g>
	</g>
	<g>
	</g>
	<g>
	</g>
	<g>
	</g>
	<g>
	</g>
	<g>
	</g>
	<g>
	</g>
	<g>
	</g>
	<g>
	</g>
	<g>
	</g>
	<g>
	</g>
	<g>
	</g>
	<g>
	</g>
	<g>
	</g>
	<g>
	</g>
	<g>
	</g>
	<g>
	</g>
	<g>
	</g>
	<g>
	</g>
	<g>
	</g>
	<g>
	</g>
	<g>
	</g>
	<g>
	</g>
	<g>
	</g>
	<g>
	</g>
	<g>
	</g>
	<g>
	</g>
	<g>
	</g>
	<g>
	</g>
	<g>
	</g>
	<g>
	</g>
	<g>
	</g>
	<g>
	</g>
	<g>
	</g>
	<g>
	</g>
	<g>
	</g>
	<g>
	</g>
	<g>
	</g>
	<g>
	</g>
	<g>
	</g>
	<g>
	</g>
	<g>
	</g>
	<g>
	</g>
	<g>
	</g>
	<g>
	</g>
	<g>
	</g>
	<g>
	</g>
	<g>
	</g>
	<g>
	</g>
	<g>
	</g>
	<g>
	</g>
	<g>
	</g>
	<g>
	</g>
	<g>
	</g>
	<g>
	</g>
	<g>
	</g>
	<g>
	</g>
	<g>
	</g>
	<g>
	</g>
	<g>
	</g>
	<g>
	</g>
	<g>
	</g>
	<g>
	</g>
	<g>
	</g>
	<g>
	</g>
	<g>
	</g>
	<g>
	</g>
	<g>
	</g>
	<g>
	</g>
	<g>
	</g>
	<g>
	</g>
	<g>
	</g>
	<g>
	</g>
	<g>
	</g>
	<g>
	</g>
	<g>
	</g>
	<g>
	</g>
	<g>
	</g>
	<g>
	</g>
	<g>
	</g>
	<g>
	</g>
	<g>
	</g>
	<g>
	</g>
	<g>
	</g>
	<g>
	</g>
	<g>
	</g>
	<g>
	</g>
	<g>
	</g>
	<g>
	</g>
	<g>
	</g>
	<g>
	</g>
	<g>
	</g>
	<g>
	</g>
	<g>
	</g>
	<g>
	</g>
	<g>
	</g>
	<g>
	</g>
	<g>
	</g>
	<g>
	</g>
	<g>
	</g>
	<g>
	</g>
	<g>
	</g>
	<g>
	</g>
	<g>
	</g>
	<g>
	</g>
	<g>
	</g>
	<g>
	</g>
	<g>
	</g>
	<g>
	</g>
	<g>
	</g>
	<g>
	</g>
	<g>
	</g>
	<g>
	</g>
	<g>
	</g>
	<g>
	</g>
	<g>
	</g>
	<g>
	</g>
	<g>
	</g>
	<g>
	</g>
	<g>
	</g>
	<g>
	</g>
	<g>
	</g>
	<g>
	</g>
	<g>
	</g>
	<g>
	</g>
	<g>
	</g>
	<g>
	</g>
	<g>
	</g>
	<g>
	</g>
	<g>
	</g>
	<g>
	</g>
	<g>
	</g>
	<g>
	</g>
	<g>
	</g>
	<g>
	</g>
	<g>
	</g>
	<g>
	</g>
	<g>
	</g>
	<g>
	</g>
	<g>
	</g>
	<g>
	</g>
	<g>
	</g>
	<g>
	</g>
	<g>
	</g>
	<g>
	</g>
	<g>
	</g>
	<g>
	</g>
	<g>
	</g>
	<g>
	</g>
	<g>
	</g>
	<g>
	</g>
	<g>
	</g>
	<g>
	</g>
	<g>
	</g>
	<g>
	</g>
	<g>
	</g>
	<g>
	</g>
	<g>
	</g>
	<g>
	</g>
	<g>
	</g>
	<g>
	</g>
	<g>
	</g>
	<g>
	</g>
	<g>
	</g>
	<g>
	</g>
	<g>
	</g>
	<g>
	</g>
	<g>
	</g>
	<g>
	</g>
	<g>
	</g>
	<g>
	</g>
	<g>
	</g>
	<g>
	</g>
	<g>
	</g>
	<g>
	</g>
	<g>
	</g>
	<g>
	</g>
	<g>
	</g>
	<g>
	</g>
	<g>
	</g>
	<g>
	</g>
	<g>
	</g>
	<g>
	</g>
	<g>
	</g>
	<g>
	</g>
	<g>
	</g>
	<g>
	</g>
	<g>
	</g>
	<g>
	</g>
	<g>
	</g>
	<g>
	</g>
	<g>
	</g>
	<g>
	</g>
	<g>
	</g>
	<g>
	</g>
	<g>
	</g>
	<g>
	</g>
	<g>
	</g>
	<g>
	</g>
	<g>
	</g>
	<g>
	</g>
	<g>
	</g>
	<g>
	</g>
	<g>
	</g>
	<g>
	</g>
	<g>
	</g>
	<g>
	</g>
	<g>
	</g>
	<g>
	</g>
	<g>
	</g>
	<g>
	</g>
	<g>
	</g>
	<g>
	</g>
	<g>
	</g>
	<g>
	</g>
	<g>
	</g>
	<g>
	</g>
	<g>
	</g>
	<g>
	</g>
	<g>
	</g>
	<g>
	</g>
	<g>
	</g>
	<g>
	</g>
	<g>
	</g>
	<g>
	</g>
	<g>
	</g>
	<g>
	</g>
	<g>
	</g>
	<g>
	</g>
	<g>
	</g>
	<g>
	</g>
	<g>
	</g>
	<g>
	</g>
	<g>
	</g>
	<g>
	</g>
	<g>
	</g>
	<g>
	</g>
	<g>
	</g>
	<g>
	</g>
	<g>
	</g>
	<g>
	</g>
	<g>
	</g>
	<g>
	</g>
	<g>
	</g>
	<g>
	</g>
	<g>
	</g>
	<g>
	</g>
	<g>
	</g>
	<g>
	</g>
	<g>
	</g>
	<g>
	</g>
	<g>
	</g>
	<g>
	</g>
	<g>
	</g>
	<g>
	</g>
	<g>
	</g>
	<g>
	</g>
	<g>
	</g>
	<g>
	</g>
	<g>
	</g>
	<g>
	</g>
	<g>
	</g>
	<g>
	</g>
	<g>
	</g>
	<g>
	</g>
	<g>
	</g>
	<g>
	</g>
	<g>
	</g>
	<g>
	</g>
	<g>
	</g>
	<g>
	</g>
	<g>
	</g>
	<g>
	</g>
	<g>
	</g>
	<g>
	</g>
	<g>
	</g>
	<g>
	</g>
	<g>
	</g>
	<g>
	</g>
	<g>
	</g>
	<g>
	</g>
	<g>
	</g>
	<g>
	</g>
	<g>
	</g>
	<g>
	</g>
	<g>
	</g>
	<g>
	</g>
	<g>
	</g>
	<g>
	</g>
	<g>
	</g>
	<g>
	</g>
	<g>
	</g>
	<g>
	</g>
	<g>
	</g>
	<g>
	</g>
	<g>
	</g>
	<g>
	</g>
	<g>
	</g>
	<g>
	</g>
	<g>
	</g>
	<g>
	</g>
	<g>
	</g>
	<g>
	</g>
	<g>
	</g>
	<g>
	</g>
	<g>
	</g>
	<g>
	</g>
	<g>
	</g>
	<g>
	</g>
	<g>
	</g>
	<g>
	</g>
	<g>
	</g>
	<g>
	</g>
	<g>
	</g>
	<g>
	</g>
	<g>
	</g>
	<g>
	</g>
	<g>
	</g>
	<g>
	</g>
	<g>
	</g>
	<g>
	</g>
	<g>
	</g>
	<g>
	</g>
	<g>
	</g>
	<g>
	</g>
	<g>
	</g>
	<g>
	</g>
	<g>
	</g>
	<g>
	</g>
	<g>
	</g>
	<g>
	</g>
	<g>
	</g>
	<g>
	</g>
	<g>
	</g>
	<g>
	</g>
	<g>
	</g>
	<g>
	</g>
	<g>
	</g>
	<g>
	</g>
	<g>
	</g>
	<g>
	</g>
	<g>
	</g>
	<g>
	</g>
	<g>
	</g>
	<g>
	</g>
	<g>
	</g>
	<g>
	</g>
	<g>
	</g>
	<g>
	</g>
	<g>
	</g>
	<g>
	</g>
	<g>
	</g>
	<g>
	</g>
	<g>
	</g>
	<g>
	</g>
	<g>
	</g>
	<g>
	</g>
	<g>
	</g>
	<g>
	</g>
	<g>
	</g>
	<g>
	</g>
	<g>
	</g>
	<g>
	</g>
	<g>
	</g>
	<g>
	</g>
	<g>
	</g>
	<g>
	</g>
	<g>
	</g>
	<g>
	</g>
	<g>
	</g>
	<g>
	</g>
	<g>
	</g>
	<g>
	</g>
	<g>
	</g>
	<g>
	</g>
	<g>
	</g>
	<g>
	</g>
	<g>
	</g>
	<g>
	</g>
	<g>
	</g>
	<g>
	</g>
	<g>
	</g>
	<g>
	</g>
	<g>
	</g>
	<g>
	</g>
	<g>
	</g>
	<g>
	</g>
	<g>
	</g>
	<g>
	</g>
	<g>
	</g>
	<g>
	</g>
	<g>
	</g>
	<g>
	</g>
	<g>
	</g>
	<g>
	</g>
	<g>
	</g>
	<g>
	</g>
	<g>
	</g>
	<g>
	</g>
	<g>
	</g>
	<g>
	</g>
	<g>
	</g>
	<g>
	</g>
	<g>
	</g>
	<g>
	</g>
	<g>
	</g>
	<g>
	</g>
	<g>
	</g>
	<g>
	</g>
	<g>
	</g>
	<g>
	</g>
	<g>
	</g>
	<g>
	</g>
	<g>
	</g>
	<g>
	</g>
	<g>
	</g>
	<g>
	</g>
	<g>
	</g>
	<g>
	</g>
	<g>
	</g>
	<g>
	</g>
	<g>
	</g>
	<g>
	</g>
	<g>
	</g>
	<g>
	</g>
	<g>
	</g>
	<g>
	</g>
	<g>
	</g>
	<g>
	</g>
	<g>
	</g>
	<g>
	</g>
	<g>
	</g>
	<g>
	</g>
	<g>
	</g>
	<g>
	</g>
	<g>
	</g>
	<g>
	</g>
	<g>
	</g>
	<g>
	</g>
	<g>
	</g>
	<g>
	</g>
	<g>
	</g>
	<g>
	</g>
	<g>
	</g>
	<g>
	</g>
	<g>
	</g>
	<g>
	</g>
	<g>
	</g>
	<g>
	</g>
	<g>
	</g>
	<g>
	</g>
	<g>
	</g>
	<g>
	</g>
	<g>
	</g>
	<g>
	</g>
	<g>
	</g>
	<g>
	</g>
	<g>
	</g>
	<g>
	</g>
	<g>
	</g>
	<g>
	</g>
	<g>
	</g>
	<g>
	</g>
	<g>
	</g>
	<g>
	</g>
	<g>
	</g>
	<g>
	</g>
	<g>
	</g>
	<g>
	</g>
	<g>
	</g>
	<g>
	</g>
	<g>
	</g>
	<g>
	</g>
	<g>
	</g>
	<g>
	</g>
	<g>
	</g>
	<g>
	</g>
	<g>
	</g>
	<g>
	</g>
	<g>
	</g>
	<g>
	</g>
	<g>
	</g>
	<g>
	</g>
	<g>
	</g>
	<g>
	</g>
	<g>
	</g>
	<g>
	</g>
	<g>
	</g>
	<g>
	</g>
	<g>
	</g>
	<g>
	</g>
	<g>
	</g>
	<g>
	</g>
	<g>
	</g>
	<g>
	</g>
	<g>
	</g>
	<g>
	</g>
	<g>
	</g>
	<g>
	</g>
	<g>
	</g>
	<g>
	</g>
	<g>
	</g>
	<g>
	</g>
	<g>
	</g>
	<g>
	</g>
	<g>
	</g>
	<g>
	</g>
	<g>
	</g>
	<g>
	</g>
	<g>
	</g>
	<g>
	</g>
	<g>
	</g>
	<g>
	</g>
	<g>
	</g>
	<g>
	</g>
	<g>
	</g>
	<g>
	</g>
	<g>
	</g>
	<g>
	</g>
	<g>
	</g>
	<g>
	</g>
	<g>
	</g>
	<g>
	</g>
	<g>
	</g>
	<g>
	</g>
	<g>
	</g>
	<g>
	</g>
	<g>
	</g>
	<g>
	</g>
	<g>
	</g>
	<g>
	</g>
	<g>
	</g>
	<g>
	</g>
	<g>
	</g>
	<g>
	</g>
	<g>
	</g>
	<g>
	</g>
	<g>
	</g>
	<g>
	</g>
	<g>
	</g>
	<g>
	</g>
	<g>
	</g>
	<g>
	</g>
	<g>
	</g>
	<g>
	</g>
	<g>
	</g>
	<g>
	</g>
	<g>
	</g>
	<g>
	</g>
	<g>
	</g>
	<g>
	</g>
	<g>
	</g>
	<g>
	</g>
	<g>
	</g>
	<g>
	</g>
	<g>
	</g>
	<g>
	</g>
	<g>
	</g>
	<g>
	</g>
	<g>
	</g>
	<g>
	</g>
	<g>
	</g>
	<g>
	</g>
	<g>
	</g>
	<g>
	</g>
	<g>
	</g>
	<g>
	</g>
	<g>
	</g>
	<g>
	</g>
	<g>
	</g>
	<g>
	</g>
	<g>
	</g>
	<g>
	</g>
	<g>
	</g>
	<g>
	</g>
	<g>
	</g>
	<g>
	</g>
	<g>
	</g>
	<g>
	</g>
	<g>
	</g>
	<g>
	</g>
	<g>
	</g>
	<g>
	</g>
	<g>
	</g>
	<g>
	</g>
	<g>
	</g>
	<g>
	</g>
	<g>
	</g>
	<g>
	</g>
	<g>
	</g>
	<g>
	</g>
	<g>
	</g>
	<g>
	</g>
	<g>
	</g>
	<g>
	</g>
	<g>
	</g>
	<g>
	</g>
	<g>
	</g>
	<g>
	</g>
	<g>
	</g>
	<g>
	</g>
	<g>
	</g>
	<g>
	</g>
	<g>
	</g>
	<g>
	</g>
	<g>
	</g>
	<g>
	</g>
	<g>
	</g>
	<g>
	</g>
	<g>
	</g>
	<g>
	</g>
	<g>
	</g>
	<g>
	</g>
	<g>
	</g>
	<g>
	</g>
	<g>
	</g>
	<g>
	</g>
	<g>
	</g>
	<g>
	</g>
	<g>
	</g>
	<g>
	</g>
	<g>
	</g>
	<g>
	</g>
	<g>
	</g>
	<g>
	</g>
	<g>
	</g>
	<g>
	</g>
	<g>
	</g>
	<g>
	</g>
	<g>
	</g>
	<g>
	</g>
	<g>
	</g>
	<g>
	</g>
	<g>
	</g>
	<g>
	</g>
	<g>
	</g>
	<g>
	</g>
	<g>
	</g>
	<g>
	</g>
	<g>
	</g>
	<g>
	</g>
	<g>
	</g>
	<g>
	</g>
	<g>
	</g>
	<g>
	</g>
	<g>
	</g>
	<g>
	</g>
	<g>
	</g>
	<g>
	</g>
	<g>
	</g>
	<g>
	</g>
	<g>
	</g>
	<g>
	</g>
	<g>
	</g>
	<g>
	</g>
	<g>
	</g>
	<g>
	</g>
	<g>
	</g>
	<g>
	</g>
	<g>
	</g>
	<g>
	</g>
	<g>
	</g>
	<g>
	</g>
	<g>
	</g>
	<g>
	</g>
	<g>
	</g>
	<g>
	</g>
	<g>
	</g>
	<g>
	</g>
	<g>
	</g>
	<g>
	</g>
	<g>
	</g>
	<g>
	</g>
	<g>
	</g>
	<g>
	</g>
	<g>
	</g>
	<g>
	</g>
	<g>
	</g>
	<g>
	</g>
	<g>
	</g>
	<g>
	</g>
	<g>
	</g>
	<g>
	</g>
	<g>
	</g>
	<g>
	</g>
	<g>
	</g>
	<g>
	</g>
	<g>
	</g>
	<g>
	</g>
	<g>
	</g>
	<g>
	</g>
	<g>
	</g>
	<g>
	</g>
	<g>
	</g>
	<g>
	</g>
	<g>
	</g>
	<g>
	</g>
	<g>
	</g>
	<g>
	</g>
	<g>
	</g>
	<g>
	</g>
	<g>
	</g>
	<g>
	</g>
	<g>
	</g>
	<g>
	</g>
	<g>
	</g>
	<g>
	</g>
	<g>
	</g>
	<g>
	</g>
	<g>
	</g>
	<g>
	</g>
	<g>
	</g>
	<g>
	</g>
	<g>
	</g>
	<g>
	</g>
	<g>
	</g>
	<g>
	</g>
	<g>
	</g>
	<g>
	</g>
	<g>
	</g>
	<g>
	</g>
	<g>
	</g>
	<g>
	</g>
	<g>
	</g>
	<g>
	</g>
	<g>
	</g>
	<g>
	</g>
	<g>
	</g>
	<g>
	</g>
	<g>
	</g>
	<g>
	</g>
	<g>
	</g>
	<g>
	</g>
	<g>
	</g>
	<g>
	</g>
	<g>
	</g>
	<g>
	</g>
	<g>
	</g>
	<g>
	</g>
	<g>
	</g>
	<g>
	</g>
	<g>
	</g>
	<g>
	</g>
	<g>
	</g>
	<g>
	</g>
	<g>
	</g>
	<g>
	</g>
	<g>
	</g>
	<g>
	</g>
	<g>
	</g>
	<g>
	</g>
	<g>
	</g>
	<g>
	</g>
	<g>
	</g>
	<g>
	</g>
	<g>
	</g>
	<g>
	</g>
	<g>
	</g>
	<g>
	</g>
	<g>
	</g>
	<g>
	</g>
	<g>
	</g>
	<g>
	</g>
	<g>
	</g>
	<g>
	</g>
	<g>
	</g>
	<g>
	</g>
	<g>
	</g>
	<g>
	</g>
	<g>
	</g>
	<g>
	</g>
	<g>
	</g>
	<g>
	</g>
	<g>
	</g>
	<g>
	</g>
	<g>
	</g>
	<g>
	</g>
	<g>
	</g>
	<g>
	</g>
	<g>
	</g>
	<g>
	</g>
	<g>
	</g>
	<g>
	</g>
	<g>
	</g>
	<g>
	</g>
	<g>
	</g>
	<g>
	</g>
	<g>
	</g>
	<g>
	</g>
	<g>
	</g>
	<g>
	</g>
	<g>
	</g>
	<g>
	</g>
	<g>
	</g>
	<g>
	</g>
	<g>
	</g>
	<g>
	</g>
	<g>
	</g>
	<g>
	</g>
	<g>
	</g>
</g>
</svg>
