<?xml version="1.0" encoding="UTF-8"?>
<svg xmlns="http://www.w3.org/2000/svg" width="866.8" height="356.4" xmlns:xlink="http://www.w3.org/1999/xlink" viewBox="0 0 866.8 356.4">
  <defs>
    <linearGradient id="Cool_gray_gradient_1" data-name="Cool gray gradient 1" x1="624.8" y1="178.2" x2="858" y2="178.2" gradientUnits="userSpaceOnUse">
      <stop offset="0" stop-color="#f5f5f4"/>
      <stop offset="1" stop-color="#ececea"/>
    </linearGradient>
    <linearGradient id="Cool_gray_gradient_1-2" data-name="Cool gray gradient 1" x1="140.9143" x2="374.1143" xlink:href="#Cool_gray_gradient_1"/>
    <linearGradient id="Cool_gray_gradient_1-3" data-name="Cool gray gradient 1" x1="382.8" x2="616" xlink:href="#Cool_gray_gradient_1"/>
    <linearGradient id="linear-gradient" x1="-306.4857" y1="1688.0819" x2="-306.4857" y2="1705.4" gradientTransform="translate(564 2004.8) scale(1 -1)" gradientUnits="userSpaceOnUse">
      <stop offset="0" stop-color="#0078d4"/>
      <stop offset=".82" stop-color="#5ea0ef"/>
    </linearGradient>
    <linearGradient id="linear-gradient-2" x1="-306.4857" y1="1681.4" x2="-306.4857" y2="1688.0819" gradientTransform="translate(564 2004.8) scale(1 -1)" gradientUnits="userSpaceOnUse">
      <stop offset=".15" stop-color="#ccc"/>
      <stop offset="1" stop-color="#707070"/>
    </linearGradient>
    <linearGradient id="linear-gradient-3" x1="-489.2399" y1="1843.9738" x2="-489.2399" y2="1878.7513" gradientTransform="translate(564 2004.8) scale(1 -1)" gradientUnits="userSpaceOnUse">
      <stop offset="0" stop-color="#5e9624"/>
      <stop offset=".02" stop-color="#5f9724"/>
      <stop offset="1" stop-color="#76bc2d"/>
    </linearGradient>
    <linearGradient id="linear-gradient-4" x1="-200.6" y1="1923.4" x2="-200.6" y2="1939.5741" gradientTransform="translate(564 2004.8) scale(1 -1)" gradientUnits="userSpaceOnUse">
      <stop offset="0" stop-color="#32bedd"/>
      <stop offset=".18" stop-color="#32caea"/>
      <stop offset=".41" stop-color="#32d2f2"/>
      <stop offset=".78" stop-color="#32d4f5"/>
    </linearGradient>
    <linearGradient id="linear-gradient-5" x1="-64.6" x2="-64.6" xlink:href="#linear-gradient"/>
    <linearGradient id="linear-gradient-6" x1="-64.6" x2="-64.6" xlink:href="#linear-gradient-2"/>
    <linearGradient id="linear-gradient-7" x1="177.4" x2="177.4" xlink:href="#linear-gradient"/>
    <linearGradient id="linear-gradient-8" x1="177.4" x2="177.4" xlink:href="#linear-gradient-2"/>
  </defs>
  <g isolation="isolate">
    <g id="Shapes">
      <rect width="866.8" height="356.4" fill="#fff"/>
      <g>
        <g mix-blend-mode="multiply" opacity=".65">
          <rect x="625.8" y="9.8" width="233.2" height="338.8" rx="8" ry="8" fill="#2b436f"/>
          <rect x="625.8" y="9.8" width="233.2" height="338.8" rx="8" ry="8" fill="#2b436f" opacity=".6"/>
        </g>
        <g>
          <rect x="624.8" y="8.8" width="233.2" height="338.8" rx="8" ry="8" fill="url(#Cool_gray_gradient_1)"/>
          <rect x="624.8" y="8.8" width="233.2" height="338.8" rx="8" ry="8" fill="#8ec8e7" opacity=".6"/>
        </g>
      </g>
      <g>
        <g mix-blend-mode="multiply" opacity=".65">
          <rect x="141.9143" y="9.8" width="233.2" height="338.8" rx="8" ry="8" fill="#2b436f"/>
          <rect x="141.9143" y="9.8" width="233.2" height="338.8" rx="8" ry="8" fill="#2b436f" opacity=".6"/>
        </g>
        <g>
          <rect x="140.9143" y="8.8" width="233.2" height="338.8" rx="8" ry="8" fill="url(#Cool_gray_gradient_1-2)"/>
          <rect x="140.9143" y="8.8" width="233.2" height="338.8" rx="8" ry="8" fill="#8ec8e7" opacity=".6"/>
        </g>
      </g>
      <g>
        <g mix-blend-mode="multiply" opacity=".65">
          <rect x="383.8" y="9.8" width="233.2" height="338.8" rx="8" ry="8" fill="#2b436f"/>
          <rect x="383.8" y="9.8" width="233.2" height="338.8" rx="8" ry="8" fill="#2b436f" opacity=".6"/>
        </g>
        <g>
          <rect x="382.8" y="8.8" width="233.2" height="338.8" rx="8" ry="8" fill="url(#Cool_gray_gradient_1-3)"/>
          <rect x="382.8" y="8.8" width="233.2" height="338.8" rx="8" ry="8" fill="#8ec8e7" opacity=".6"/>
        </g>
      </g>
      <g>
        <rect x="8.8" y="92.4" width="849.2" height="154" fill="#fff"/>
        <rect x="8.8" y="92.4" width="849.2" height="154" fill="#d3ec8e" opacity=".25"/>
        <rect x="8.8" y="92.4" width="849.2" height="154" fill="none" opacity=".7" stroke="#8bc63f" stroke-width=".25"/>
      </g>
      <g>
        <g mix-blend-mode="multiply" opacity=".8">
          <rect x="9.3" y="48.9" width="849.2" height="44" fill="#3b3b3b"/>
          <rect x="9.3" y="48.9" width="849.2" height="44" fill="#3b3b3b"/>
        </g>
        <g>
          <rect x="8.8" y="48.4" width="849.2" height="44" fill="#fff"/>
          <rect x="8.8" y="48.4" width="849.2" height="44" fill="#f5f3f2"/>
        </g>
      </g>
      <rect x="140.8" y="102.3424" width="717.2" height="39.6" fill="#fff" stroke="#4e4f4f" stroke-width=".25"/>
      <rect x="140.8" y="149.6" width="717.2" height="39.6" fill="#fff" stroke="#4e4f4f" stroke-width=".25"/>
      <rect x="140.8" y="198" width="717.2" height="39.6" fill="#fff" stroke="#4e4f4f" stroke-width=".25"/>
      <rect x="180.5143" y="259.6" width="154" height="74.8" fill="#fff" stroke="#8e8278" stroke-width=".35"/>
      <g>
        <rect x="244.5257" y="299.4" width="25.9771" height="17.3181" rx=".8659" ry=".8659" fill="url(#linear-gradient)"/>
        <polygon points="261.8438 305.5335 261.8438 310.5702 257.5143 313.1102 257.5143 308.059 261.8438 305.5335" fill="#50e6ff"/>
        <polygon points="261.8438 305.5335 257.5143 308.0735 253.1847 305.5335 257.5143 303.0079 261.8438 305.5335" fill="#c3f1ff"/>
        <polygon points="257.5143 308.0735 257.5143 313.1102 253.1847 310.5702 253.1847 305.5335 257.5143 308.0735" fill="#9cebff"/>
        <polygon points="253.1847 310.5702 257.5143 308.059 257.5143 313.1102 253.1847 310.5702" fill="#c3f1ff"/>
        <polygon points="261.8438 310.5702 257.5143 308.059 257.5143 313.1102 261.8438 310.5702" fill="#9cebff"/>
        <path d="M262.7241,321.9568c-2.5689-.4041-2.6699-2.2514-2.6699-5.2387h-5.0944c0,2.9874-.0866,4.8346-2.6554,5.2387-.7345.0813-1.2889.7042-1.2844,1.4432h12.9886c.0045-.739-.5499-1.3619-1.2844-1.4432Z" fill="url(#linear-gradient-2)"/>
      </g>
      <g>
        <path d="M60.0626,142.0294l13.981-13.981c.3851-.3957,1.0181-.4044,1.4138-.0192.0065.0063.0129.0127.0192.0192l13.981,13.981c.3957.3851.4044,1.0181.0192,1.4138-.0063.0065-.0127.0129-.0192.0192l-13.9976,13.9976c-.3888.3811-1.011.3811-1.3998,0l-13.9976-13.9976c-.3957-.3851-.4044-1.0181-.0192-1.4138.0063-.0065.0127-.0129.0192-.0192Z" fill="url(#linear-gradient-3)"/>
        <path d="M78.4262,134.414l-3.5327-3.5161c-.0759-.0679-.1907-.0679-.2666,0l-3.5327,3.5161c-.0764.0514-.0966.1549-.0452.2313.0391.0582.1105.0856.1785.0687h2.0663c.1012,0,.1833.0821.1833.1833v3.3328c0,.1012.0821.1833.1833.1833h2.1996c.1012,0,.1833-.0821.1833-.1833v-3.3328c0-.1012.0821-.1833.1833-.1833h2.0663c.0893.0222.1797-.0321.202-.1214.0169-.068-.0105-.1394-.0687-.1785Z" fill="#b4ec36"/>
        <path d="M66.4282,138.7632l-3.4994,3.5494c-.0656.0704-.0656.1796,0,.25l3.4994,3.5161c.0694.0737.1854.0772.2591.0078.0387-.0365.0597-.088.0575-.1411v-2.0497c0-.1012.0821-.1833.1833-.1833h3.3328c.092.0005.167-.0738.1675-.1658,0-.0058-.0002-.0117-.0008-.0175v-2.1996c.0472-.079.0214-.1813-.0576-.2285-.0181-.0108-.0382-.0181-.059-.0215h-3.3328c-.0916.0092-.1733-.0576-.1825-.1491-.0006-.0058-.0009-.0117-.0008-.0175v-2.0163c.0368-.1012-.0154-.2131-.1166-.25-.1012-.0368-.2131.0154-.25.1166Z" fill="#b4ec36"/>
        <path d="M83.2253,146.0787l3.5494-3.5327c.0656-.0704.0656-.1796,0-.25l-3.5494-3.5327c-.078-.0645-.1936-.0536-.2581.0244-.0254.0308-.0401.069-.0419.1089v2.083c.0005.092-.0738.167-.1658.1675-.0058,0-.0117-.0002-.0175-.0008h-3.3328c-.092-.0005-.167.0738-.1675.1658,0,.0058.0002.0117.0008.0175v2.1996c-.0092.0916.0576.1733.1491.1825.0058.0006.0117.0009.0175.0008h3.3328c.1012,0,.1833.0821.1833.1833v2.0663c.013.1004.1049.1713.2053.1583.0349-.0045.0678-.019.0947-.0417Z" fill="#b4ec36"/>
        <path d="M79.4093,142.7459c.0159-2.5676-2.0527-4.662-4.6203-4.6779-2.5676-.0159-4.662,2.0527-4.6779,4.6203-.013,2.097,1.3794,3.9431,3.3992,4.5069v1.5831c-1.3981.7224-1.9459,2.4415-1.2234,3.8396.7224,1.3981,2.4415,1.9459,3.8396,1.2234,1.3981-.7224,1.9459-2.4415,1.2234-3.8396-.2711-.5247-.6987-.9523-1.2234-1.2234v-1.6664c1.9303-.5822,3.2595-2.3498,3.2828-4.3659Z" fill="#fff"/>
        <circle id="e99c3387-15c3-4f28-bd4b-cb209b430e06" cx="74.7768" cy="142.7292" r="2.6995" fill="#5ea0ef"/>
      </g>
      <g>
        <path d="M349.7204,65.2259h27.3592v15.2568c0,.5066-.4107.9173-.9173.9173h-25.5245c-.5066,0-.9173-.4107-.9173-.9173v-15.2568Z" fill="url(#linear-gradient-4)"/>
        <path d="M350.6377,59.4h25.5245c.5066,0,.9173.4107.9173.9173v4.9086h-27.3592v-4.9247c.0088-.5003.4169-.9013.9173-.9012Z" fill="#767676"/>
        <circle cx="369.5478" cy="72.3071" r="2.2209" fill="#f2f2f2"/>
        <circle cx="363.4966" cy="72.3071" r="2.2209" fill="#f2f2f2"/>
        <circle cx="357.2522" cy="72.3071" r="2.2209" fill="#f2f2f2"/>
        <rect x="353.4059" y="61.1381" width="20.0044" height="2.3497" rx=".4506" ry=".4506" fill="#f2f2f2"/>
      </g>
      <g>
        <line x1="257.5143" y1="237.6" x2="257.5143" y2="254.2178" fill="none" stroke="#3c3c41" stroke-miterlimit="10"/>
        <polygon points="253.7745 253.1236 257.5143 259.6 261.254 253.1236 253.7745 253.1236" fill="#3c3c41"/>
      </g>
      <rect x="422.4" y="259.6" width="154" height="74.8" fill="#fff" stroke="#8e8278" stroke-width=".35"/>
      <g>
        <rect x="486.4114" y="299.4" width="25.9771" height="17.3181" rx=".8659" ry=".8659" fill="url(#linear-gradient-5)"/>
        <polygon points="503.7295 305.5335 503.7295 310.5702 499.4 313.1102 499.4 308.059 503.7295 305.5335" fill="#50e6ff"/>
        <polygon points="503.7295 305.5335 499.4 308.0735 495.0705 305.5335 499.4 303.0079 503.7295 305.5335" fill="#c3f1ff"/>
        <polygon points="499.4 308.0735 499.4 313.1102 495.0705 310.5702 495.0705 305.5335 499.4 308.0735" fill="#9cebff"/>
        <polygon points="495.0705 310.5702 499.4 308.059 499.4 313.1102 495.0705 310.5702" fill="#c3f1ff"/>
        <polygon points="503.7295 310.5702 499.4 308.059 499.4 313.1102 503.7295 310.5702" fill="#9cebff"/>
        <path d="M504.6099,321.9568c-2.5689-.4041-2.6699-2.2514-2.6699-5.2387h-5.0944c0,2.9874-.0866,4.8346-2.6554,5.2387-.7345.0813-1.2889.7042-1.2844,1.4432h12.9886c.0045-.739-.5499-1.3619-1.2844-1.4432Z" fill="url(#linear-gradient-6)"/>
      </g>
      <g>
        <line x1="499.4" y1="237.6" x2="499.4" y2="254.2178" fill="none" stroke="#3c3c41" stroke-miterlimit="10"/>
        <polygon points="495.6603 253.1236 499.4 259.6 503.1397 253.1236 495.6603 253.1236" fill="#3c3c41"/>
      </g>
      <rect x="664.4" y="259.6" width="154" height="74.8" fill="#fff" stroke="#8e8278" stroke-width=".35"/>
      <g>
        <rect x="728.4114" y="299.4" width="25.9771" height="17.3181" rx=".8659" ry=".8659" fill="url(#linear-gradient-7)"/>
        <polygon points="745.7295 305.5335 745.7295 310.5702 741.4 313.1102 741.4 308.059 745.7295 305.5335" fill="#50e6ff"/>
        <polygon points="745.7295 305.5335 741.4 308.0735 737.0705 305.5335 741.4 303.0079 745.7295 305.5335" fill="#c3f1ff"/>
        <polygon points="741.4 308.0735 741.4 313.1102 737.0705 310.5702 737.0705 305.5335 741.4 308.0735" fill="#9cebff"/>
        <polygon points="737.0705 310.5702 741.4 308.059 741.4 313.1102 737.0705 310.5702" fill="#c3f1ff"/>
        <polygon points="745.7295 310.5702 741.4 308.059 741.4 313.1102 745.7295 310.5702" fill="#9cebff"/>
        <path d="M746.6099,321.9568c-2.5689-.4041-2.6699-2.2514-2.6699-5.2387h-5.0944c0,2.9874-.0866,4.8346-2.6554,5.2387-.7345.0813-1.2889.7042-1.2844,1.4432h12.9886c.0045-.739-.5499-1.3619-1.2844-1.4432Z" fill="url(#linear-gradient-8)"/>
      </g>
      <g>
        <line x1="741.4" y1="237.6" x2="741.4" y2="254.2178" fill="none" stroke="#3c3c41" stroke-miterlimit="10"/>
        <polygon points="737.6603 253.1236 741.4 259.6 745.1397 253.1236 737.6603 253.1236" fill="#3c3c41"/>
      </g>
      <g>
        <path d="M129.8,77.3189v38.009c0,2.75,2.25,5,5,5h19.5532" fill="none" stroke="#2f2f2f" stroke-miterlimit="10"/>
        <g>
          <path d="M126.0402,77.5319c0-2.0762,1.6836-3.7598,3.7598-3.7598s3.7598,1.6836,3.7598,3.7598-1.6836,3.7597-3.7598,3.7597-3.7598-1.6836-3.7598-3.7597Z" fill="#fff"/>
          <path d="M125.5402,77.5319c0,2.3486,1.9111,4.2597,4.2598,4.2597s4.2598-1.9111,4.2598-4.2597-1.9111-4.2598-4.2598-4.2598-4.2598,1.9111-4.2598,4.2598,0-2.3487,0,0ZM133.0598,77.5319c0,1.7978-1.4619,3.2597-3.2598,3.2597s-3.2598-1.4619-3.2598-3.2597,1.4619-3.2598,3.2598-3.2598,3.2598,1.4619,3.2598,3.2598,0-1.7979,0,0Z" fill="#2f2f2f"/>
        </g>
        <g>
          <path d="M154.1402,124.0877c2.0762,0,3.7598-1.6836,3.7598-3.7598s-1.6836-3.7598-3.7598-3.7598-3.7597,1.6836-3.7597,3.7598,1.6836,3.7598,3.7597,3.7598Z" fill="#fff"/>
          <path d="M154.1402,124.5877c-2.3486,0-4.2597-1.9111-4.2597-4.2598s1.9111-4.2598,4.2597-4.2598,4.2598,1.9111,4.2598,4.2598-1.9111,4.2598-4.2598,4.2598,2.3487,0,0,0ZM154.1402,117.0682c-1.7978,0-3.2597,1.4619-3.2597,3.2598s1.4619,3.2598,3.2597,3.2598,3.2598-1.4619,3.2598-3.2598-1.4619-3.2598-3.2598-3.2598,1.7979,0,0,0Z" fill="#2f2f2f"/>
        </g>
      </g>
    </g>
    <g id="Text">
      <g>
        <path d="M205.9757,31.9425h-2.4062l-.6973-2.1807h-3.4863l-.6904,2.1807h-2.3926l3.5684-9.8027h2.6182l3.4863,9.8027ZM202.3663,28.0665l-1.0527-3.2949c-.0776-.2461-.1323-.54-.1641-.8818h-.0547c-.0229.2871-.0796.5718-.1709.8545l-1.0664,3.3223h2.5088Z" fill="#2f2f2f"/>
        <path d="M213.3404,24.9425l-2.6045,7h-2.4609l-2.4814-7h2.3105l1.2168,4.3135c.1367.4878.2163.9023.2393,1.2441h.0273c.0317-.3237.1162-.7246.2529-1.2031l1.2441-4.3545h2.2559Z" fill="#2f2f2f"/>
        <path d="M219.9962,31.9425h-2.0439v-1.0049h-.0273c-.4692.7837-1.1646,1.1758-2.085,1.1758-.6792,0-1.2134-.1924-1.603-.5776s-.5845-.8989-.5845-1.5415c0-1.3579.8042-2.1421,2.4131-2.3516l1.9004-.2529c0-.7656-.4146-1.1484-1.2441-1.1484-.834,0-1.627.2485-2.3789.7451v-1.627c.3008-.1548.7119-.2915,1.2339-.4102s.9971-.1777,1.4253-.1777c1.9961,0,2.9941.9956,2.9941,2.9873v4.1836ZM217.9659,29.0987v-.4717l-1.2715.1641c-.7017.0913-1.0527.4077-1.0527.9502,0,.2461.0854.4478.2563.605s.4023.2358.6938.2358c.4058,0,.7358-.1401.9912-.4204s.3828-.6348.3828-1.063Z" fill="#2f2f2f"/>
        <path d="M222.7667,23.8351c-.3647,0-.6631-.1084-.8955-.3247s-.3486-.4819-.3486-.7964c0-.3237.1162-.5879.3486-.793s.5308-.3076.8955-.3076c.3691,0,.6689.1025.8989.3076s.3452.4692.3452.793c0,.3281-.1152.5972-.3452.8066s-.5298.3145-.8989.3145ZM223.8331,31.9425h-2.1602v-7h2.1602v7Z" fill="#2f2f2f"/>
        <path d="M227.7682,31.9425h-2.1602v-10.3633h2.1602v10.3633Z" fill="#2f2f2f"/>
        <path d="M235.4332,31.9425h-2.0439v-1.0049h-.0273c-.4692.7837-1.1646,1.1758-2.085,1.1758-.6792,0-1.2134-.1924-1.603-.5776s-.5845-.8989-.5845-1.5415c0-1.3579.8042-2.1421,2.4131-2.3516l1.9004-.2529c0-.7656-.4146-1.1484-1.2441-1.1484-.834,0-1.627.2485-2.3789.7451v-1.627c.3008-.1548.7119-.2915,1.2339-.4102s.9971-.1777,1.4253-.1777c1.9961,0,2.9941.9956,2.9941,2.9873v4.1836ZM233.4029,29.0987v-.4717l-1.2715.1641c-.7017.0913-1.0527.4077-1.0527.9502,0,.2461.0854.4478.2563.605s.4023.2358.6938.2358c.4058,0,.7358-.1401.9912-.4204s.3828-.6348.3828-1.063Z" fill="#2f2f2f"/>
        <path d="M239.317,31.129h-.0273v.8135h-2.1602v-10.3633h2.1602v4.416h.0273c.5332-.8159,1.292-1.2236,2.2764-1.2236.9023,0,1.5972.3101,2.085.9297s.7314,1.4673.7314,2.543c0,1.1665-.2847,2.103-.8545,2.8096s-1.3306,1.0596-2.2832,1.0596c-.8613,0-1.5132-.3281-1.9551-.9844ZM239.2555,28.1759v.7178c0,.4512.1299.8247.3896,1.1211s.5923.4443.998.4443c.4922,0,.874-.1904,1.145-.5708s.4067-.9194.4067-1.6167c0-.5786-.124-1.0312-.3726-1.3569s-.6025-.4888-1.063-.4888c-.4331,0-.792.1616-1.0767.4854s-.4272.7451-.4272,1.2646Z" fill="#2f2f2f"/>
        <path d="M246.9049,23.8351c-.3647,0-.6631-.1084-.8955-.3247s-.3486-.4819-.3486-.7964c0-.3237.1162-.5879.3486-.793s.5308-.3076.8955-.3076c.3691,0,.6689.1025.8989.3076s.3452.4692.3452.793c0,.3281-.1152.5972-.3452.8066s-.5298.3145-.8989.3145ZM247.9713,31.9425h-2.1602v-7h2.1602v7Z" fill="#2f2f2f"/>
        <path d="M251.9068,31.9425h-2.1602v-10.3633h2.1602v10.3633Z" fill="#2f2f2f"/>
        <path d="M254.7755,23.8351c-.3647,0-.6631-.1084-.8955-.3247s-.3486-.4819-.3486-.7964c0-.3237.1162-.5879.3486-.793s.5308-.3076.8955-.3076c.3691,0,.6689.1025.8989.3076s.3452.4692.3452.793c0,.3281-.1152.5972-.3452.8066s-.5298.3145-.8989.3145ZM255.8419,31.9425h-2.1602v-7h2.1602v7Z" fill="#2f2f2f"/>
        <path d="M261.7779,31.8604c-.3188.1685-.7998.2529-1.4424.2529-1.522,0-2.2832-.7905-2.2832-2.3721v-3.2061h-1.1348v-1.5928h1.1348v-1.5107l2.1533-.6152v2.126h1.5723v1.5928h-1.5723v2.8301c0,.729.2896,1.0938.8682,1.0938.228,0,.4624-.0659.7041-.1982v1.5996Z" fill="#2f2f2f"/>
        <path d="M270.003,24.9425l-2.8438,7.5605c-.6836,1.8184-1.7134,2.7275-3.0898,2.7275-.5239,0-.9546-.0591-1.292-.1777v-1.7227c.2871.1685.5991.2529.9365.2529.5562,0,.9434-.2622,1.1621-.7861l.3691-.8682-2.8438-6.9863h2.3926l1.3057,4.2588c.082.2642.146.5767.1914.9365h.0273c.041-.2642.1162-.5718.2256-.9229l1.3193-4.2725h2.1396Z" fill="#2f2f2f"/>
        <path d="M282.0001,31.9425h-7.8955v-1.2715l5.0244-6.7334h-4.6621v-1.7979h7.5195v1.2373l-4.915,6.7744h4.9287v1.791Z" fill="#2f2f2f"/>
        <path d="M286.5187,32.1134c-1.1665,0-2.084-.3271-2.7515-.981s-1.0015-1.5415-1.0015-2.6626c0-1.1577.3462-2.0635,1.0391-2.7173s1.6294-.981,2.8096-.981c1.1621,0,2.0737.3271,2.7344.981s.9912,1.5186.9912,2.5942c0,1.1621-.3408,2.0806-1.022,2.7549s-1.6143,1.0117-2.7993,1.0117ZM286.5733,26.4259c-.5103,0-.9067.1753-1.1895.5264s-.4238.8477-.4238,1.4902c0,1.3442.5425,2.0166,1.627,2.0166,1.0347,0,1.5518-.6904,1.5518-2.0713,0-1.3081-.522-1.9619-1.5654-1.9619Z" fill="#2f2f2f"/>
        <path d="M298.4811,31.9425h-2.1533v-3.8896c0-1.0845-.3872-1.627-1.1621-1.627-.3735,0-.6812.1436-.9229.4307s-.3623.6519-.3623,1.0938v3.9922h-2.1602v-7h2.1602v1.1074h.0273c.5151-.8521,1.2646-1.2783,2.249-1.2783,1.5493,0,2.3242.9614,2.3242,2.8848v4.2861Z" fill="#2f2f2f"/>
        <path d="M306.503,29.0577h-4.5664c.0728,1.0161.7134,1.5244,1.9209,1.5244.77,0,1.4468-.1821,2.0303-.5469v1.5586c-.647.3462-1.4878.5195-2.5225.5195-1.1304,0-2.0073-.3135-2.6318-.9399s-.9365-1.5005-.9365-2.6216c0-1.1621.3374-2.0825,1.0117-2.7617s1.5039-1.0186,2.4883-1.0186c1.021,0,1.8105.3032,2.3687.9092s.8374,1.4287.8374,2.4678v.9092ZM304.5001,27.7315c0-1.0024-.4058-1.5039-1.2168-1.5039-.3462,0-.646.1436-.8989.4307s-.4067.645-.4614,1.0732h2.5771Z" fill="#2f2f2f"/>
        <path d="M316.4288,21.921v10.0215h-2.1533v-7.5879c-.1187.105-.2588.2041-.4204.2974s-.334.1777-.5161.2529-.3716.1392-.5674.1914-.3896.0898-.5811.1128v-1.8184c.5605-.1641,1.0894-.3735,1.5859-.6289s.9458-.5356,1.3467-.8408h1.3057Z" fill="#2f2f2f"/>
      </g>
      <g>
        <rect x="8.7601" y="164.3459" width="132" height="39.793" fill="none"/>
        <path d="M57.9654,172.8702v3.377h-2.208v-9.8027h3.459c2.4702,0,3.7051,1.0415,3.7051,3.124,0,.9844-.3545,1.7808-1.063,2.3892s-1.6553.9126-2.8403.9126h-1.0527ZM57.9654,168.1397v3.0557h.8682c1.1758,0,1.7637-.5151,1.7637-1.5449,0-1.0073-.5879-1.5107-1.7637-1.5107h-.8682Z" fill="#2f2f2f"/>
        <path d="M70.7252,176.2472h-2.1533v-1.0664h-.0342c-.5332.8247-1.2466,1.2373-2.1396,1.2373-1.6226,0-2.4336-.9819-2.4336-2.9463v-4.2246h2.1533v4.0332c0,.9888.3921,1.4834,1.1758,1.4834.3872,0,.6973-.1357.9297-.4067s.3486-.6392.3486-1.104v-4.0059h2.1533v7Z" fill="#2f2f2f"/>
        <path d="M74.6808,175.4337h-.0273v.8135h-2.1602v-10.3633h2.1602v4.416h.0273c.5332-.8159,1.292-1.2236,2.2764-1.2236.9023,0,1.5972.3101,2.085.9297s.7314,1.4673.7314,2.543c0,1.1665-.2847,2.103-.8545,2.8096s-1.3306,1.0596-2.2832,1.0596c-.8613,0-1.5132-.3281-1.9551-.9844ZM74.6192,172.4806v.7178c0,.4512.1299.8247.3896,1.1211s.5923.4443.998.4443c.4922,0,.874-.1904,1.145-.5708s.4067-.9194.4067-1.6167c0-.5786-.124-1.0312-.3726-1.3569s-.6025-.4888-1.063-.4888c-.4331,0-.792.1616-1.0767.4854s-.4272.7451-.4272,1.2646Z" fill="#2f2f2f"/>
        <path d="M83.3629,176.2472h-2.1602v-10.3633h2.1602v10.3633Z" fill="#2f2f2f"/>
        <path d="M86.2315,168.1397c-.3647,0-.6631-.1084-.8955-.3247s-.3486-.4819-.3486-.7964c0-.3237.1162-.5879.3486-.793s.5308-.3076.8955-.3076c.3691,0,.6689.1025.8989.3076s.3452.4692.3452.793c0,.3281-.1152.5972-.3452.8066s-.5298.3145-.8989.3145ZM87.2979,176.2472h-2.1602v-7h2.1602v7Z" fill="#2f2f2f"/>
        <path d="M94.3775,175.9942c-.4878.2827-1.1919.4238-2.1123.4238-1.0757,0-1.9458-.3257-2.6113-.9775s-.998-1.4927-.998-2.5225c0-1.1895.3564-2.127,1.0698-2.813s1.667-1.0288,2.8608-1.0288c.8247,0,1.4219.1094,1.791.3281v1.832c-.4512-.3374-.9546-.5059-1.5107-.5059-.6196,0-1.1108.1812-1.4731.5435s-.5435.8623-.5435,1.5005c0,.6196.1733,1.1064.5195,1.4595s.8228.5298,1.4287.5298c.5376,0,1.064-.1685,1.5791-.5059v1.7363Z" fill="#2f2f2f"/>
        <path d="M33.4498,193.047h-2.1602v-10.3633h2.1602v10.3633Z" fill="#2f2f2f"/>
        <path d="M38.5929,193.2179c-1.1665,0-2.084-.3271-2.7515-.981s-1.0015-1.5415-1.0015-2.6626c0-1.1577.3462-2.0635,1.0391-2.7173s1.6294-.981,2.8096-.981c1.1621,0,2.0737.3271,2.7344.981s.9912,1.5186.9912,2.5942c0,1.1621-.3408,2.0806-1.022,2.7549s-1.6143,1.0117-2.7993,1.0117ZM38.6476,187.5304c-.5103,0-.9067.1753-1.1895.5264s-.4238.8477-.4238,1.4902c0,1.3442.5425,2.0166,1.627,2.0166,1.0347,0,1.5518-.6904,1.5518-2.0713,0-1.3081-.522-1.9619-1.5654-1.9619Z" fill="#2f2f2f"/>
        <path d="M49.6285,193.047h-2.0439v-1.0049h-.0273c-.4692.7837-1.1646,1.1758-2.085,1.1758-.6792,0-1.2134-.1924-1.603-.5776s-.5845-.8989-.5845-1.5415c0-1.3579.8042-2.1421,2.4131-2.3516l1.9004-.2529c0-.7656-.4146-1.1484-1.2441-1.1484-.834,0-1.627.2485-2.3789.7451v-1.627c.3008-.1548.7119-.2915,1.2339-.4102s.9971-.1777,1.4253-.1777c1.9961,0,2.9941.9956,2.9941,2.9873v4.1836ZM47.5982,190.2032v-.4717l-1.2715.1641c-.7017.0913-1.0527.4077-1.0527.9502,0,.2461.0854.4478.2563.605s.4023.2358.6938.2358c.4058,0,.7358-.1401.9912-.4204s.3828-.6348.3828-1.063Z" fill="#2f2f2f"/>
        <path d="M58.2096,193.047h-2.1602v-.9639h-.0273c-.4922.7563-1.2144,1.1348-2.167,1.1348-.875,0-1.5791-.3086-2.1123-.9263s-.7998-1.48-.7998-2.5874c0-1.1577.2939-2.085.8818-2.7822s1.3579-1.0459,2.3105-1.0459c.9023,0,1.5312.3237,1.8867.9707h.0273v-4.1631h2.1602v10.3633ZM56.0904,189.6427v-.5264c0-.4556-.1323-.834-.3965-1.1348s-.6084-.4512-1.0322-.4512c-.4785,0-.8521.188-1.1211.564s-.4033.8921-.4033,1.5483c0,.6152.1299,1.0894.3896,1.4219s.6196.499,1.0801.499c.4375,0,.7939-.1753,1.0698-.5264s.4136-.8159.4136-1.3945Z" fill="#2f2f2f"/>
        <path d="M66.0777,192.2335h-.0273v.8135h-2.1602v-10.3633h2.1602v4.416h.0273c.5332-.8159,1.292-1.2236,2.2764-1.2236.9023,0,1.5972.3101,2.085.9297s.7314,1.4673.7314,2.543c0,1.1665-.2847,2.103-.8545,2.8096s-1.3306,1.0596-2.2832,1.0596c-.8613,0-1.5132-.3281-1.9551-.9844ZM66.0162,189.2804v.7178c0,.4512.1299.8247.3896,1.1211s.5923.4443.998.4443c.4922,0,.874-.1904,1.145-.5708s.4067-.9194.4067-1.6167c0-.5786-.124-1.0312-.3726-1.3569s-.6025-.4888-1.063-.4888c-.4331,0-.792.1616-1.0767.4854s-.4272.7451-.4272,1.2646Z" fill="#2f2f2f"/>
        <path d="M78.4029,193.047h-2.0439v-1.0049h-.0273c-.4692.7837-1.1646,1.1758-2.085,1.1758-.6792,0-1.2134-.1924-1.603-.5776s-.5845-.8989-.5845-1.5415c0-1.3579.8042-2.1421,2.4131-2.3516l1.9004-.2529c0-.7656-.4146-1.1484-1.2441-1.1484-.834,0-1.627.2485-2.3789.7451v-1.627c.3008-.1548.7119-.2915,1.2339-.4102s.9971-.1777,1.4253-.1777c1.9961,0,2.9941.9956,2.9941,2.9873v4.1836ZM76.3727,190.2032v-.4717l-1.2715.1641c-.7017.0913-1.0527.4077-1.0527.9502,0,.2461.0854.4478.2563.605s.4023.2358.6938.2358c.4058,0,.7358-.1401.9912-.4204s.3828-.6348.3828-1.063Z" fill="#2f2f2f"/>
        <path d="M82.2608,193.047h-2.1602v-10.3633h2.1602v10.3633Z" fill="#2f2f2f"/>
        <path d="M89.9259,193.047h-2.0439v-1.0049h-.0273c-.4692.7837-1.1646,1.1758-2.085,1.1758-.6792,0-1.2134-.1924-1.603-.5776s-.5845-.8989-.5845-1.5415c0-1.3579.8042-2.1421,2.4131-2.3516l1.9004-.2529c0-.7656-.4146-1.1484-1.2441-1.1484-.834,0-1.627.2485-2.3789.7451v-1.627c.3008-.1548.7119-.2915,1.2339-.4102s.9971-.1777,1.4253-.1777c1.9961,0,2.9941.9956,2.9941,2.9873v4.1836ZM87.8956,190.2032v-.4717l-1.2715.1641c-.7017.0913-1.0527.4077-1.0527.9502,0,.2461.0854.4478.2563.605s.4023.2358.6938.2358c.4058,0,.7358-.1401.9912-.4204s.3828-.6348.3828-1.063Z" fill="#2f2f2f"/>
        <path d="M98.3829,193.047h-2.1533v-3.8896c0-1.0845-.3872-1.627-1.1621-1.627-.3735,0-.6812.1436-.9229.4307s-.3623.6519-.3623,1.0938v3.9922h-2.1602v-7h2.1602v1.1074h.0273c.5151-.8521,1.2646-1.2783,2.249-1.2783,1.5493,0,2.3242.9614,2.3242,2.8848v4.2861Z" fill="#2f2f2f"/>
        <path d="M105.3966,192.794c-.4878.2827-1.1919.4238-2.1123.4238-1.0757,0-1.9458-.3257-2.6113-.9775s-.998-1.4927-.998-2.5225c0-1.1895.3564-2.127,1.0698-2.813s1.667-1.0288,2.8608-1.0288c.8247,0,1.4219.1094,1.791.3281v1.832c-.4512-.3374-.9546-.5059-1.5107-.5059-.6196,0-1.1108.1812-1.4731.5435s-.5435.8623-.5435,1.5005c0,.6196.1733,1.1064.5195,1.4595s.8228.5298,1.4287.5298c.5376,0,1.064-.1685,1.5791-.5059v1.7363Z" fill="#2f2f2f"/>
        <path d="M113.1119,190.1622h-4.5664c.0728,1.0161.7134,1.5244,1.9209,1.5244.77,0,1.4468-.1821,2.0303-.5469v1.5586c-.647.3462-1.4878.5195-2.5225.5195-1.1304,0-2.0073-.3135-2.6318-.9399s-.9365-1.5005-.9365-2.6216c0-1.1621.3374-2.0825,1.0117-2.7617s1.5039-1.0186,2.4883-1.0186c1.021,0,1.8105.3032,2.3687.9092s.8374,1.4287.8374,2.4678v.9092ZM111.109,188.836c0-1.0024-.4058-1.5039-1.2168-1.5039-.3462,0-.646.1436-.8989.4307s-.4067.645-.4614,1.0732h2.5771Z" fill="#2f2f2f"/>
        <path d="M119.0436,187.9952c-.2598-.1411-.563-.2119-.9092-.2119-.4692,0-.8364.1719-1.1006.5161s-.3965.8125-.3965,1.4048v3.3428h-2.1602v-7h2.1602v1.2988h.0273c.3418-.9478.957-1.4219,1.8457-1.4219.228,0,.4058.0273.5332.082v1.9893Z" fill="#2f2f2f"/>
      </g>
      <g>
        <rect x="382.8077" y="64.1403" width="233.1846" height="20.38" fill="none"/>
        <path d="M395.9732,76.0416h-7.8955v-1.2715l5.0244-6.7334h-4.6621v-1.7979h7.5195v1.2373l-4.915,6.7744h4.9287v1.791Z" fill="#2f2f2f"/>
        <path d="M400.4923,76.2125c-1.1665,0-2.084-.3271-2.7515-.981s-1.0015-1.5415-1.0015-2.6626c0-1.1577.3462-2.0635,1.0391-2.7173s1.6294-.981,2.8096-.981c1.1621,0,2.0737.3271,2.7344.981s.9912,1.5186.9912,2.5942c0,1.1621-.3408,2.0806-1.022,2.7549s-1.6143,1.0117-2.7993,1.0117ZM400.547,70.525c-.5103,0-.9067.1753-1.1895.5264s-.4238.8477-.4238,1.4902c0,1.3442.5425,2.0166,1.627,2.0166,1.0347,0,1.5518-.6904,1.5518-2.0713,0-1.3081-.522-1.9619-1.5654-1.9619Z" fill="#2f2f2f"/>
        <path d="M412.4547,76.0416h-2.1533v-3.8896c0-1.0845-.3872-1.627-1.1621-1.627-.3735,0-.6812.1436-.9229.4307s-.3623.6519-.3623,1.0938v3.9922h-2.1602v-7h2.1602v1.1074h.0273c.5151-.8521,1.2646-1.2783,2.249-1.2783,1.5493,0,2.3242.9614,2.3242,2.8848v4.2861Z" fill="#2f2f2f"/>
        <path d="M420.4762,73.1568h-4.5664c.0728,1.0161.7134,1.5244,1.9209,1.5244.77,0,1.4468-.1821,2.0303-.5469v1.5586c-.647.3462-1.4878.5195-2.5225.5195-1.1304,0-2.0073-.3135-2.6318-.9399s-.9365-1.5005-.9365-2.6216c0-1.1621.3374-2.0825,1.0117-2.7617s1.5039-1.0186,2.4883-1.0186c1.021,0,1.8105.3032,2.3687.9092s.8374,1.4287.8374,2.4678v.9092ZM418.4732,71.8307c0-1.0024-.4058-1.5039-1.2168-1.5039-.3462,0-.646.1436-.8989.4307s-.4067.645-.4614,1.0732h2.5771Z" fill="#2f2f2f"/>
        <path d="M425.6319,73.0611h-3.7393v-1.5107h3.7393v1.5107Z" fill="#2f2f2f"/>
        <path d="M431.9083,70.9898c-.2598-.1411-.563-.2119-.9092-.2119-.4692,0-.8364.1719-1.1006.5161s-.3965.8125-.3965,1.4048v3.3428h-2.1602v-7h2.1602v1.2988h.0273c.3418-.9478.957-1.4219,1.8457-1.4219.228,0,.4058.0273.5332.082v1.9893Z" fill="#2f2f2f"/>
        <path d="M439.2804,73.1568h-4.5664c.0728,1.0161.7134,1.5244,1.9209,1.5244.77,0,1.4468-.1821,2.0303-.5469v1.5586c-.647.3462-1.4878.5195-2.5225.5195-1.1304,0-2.0073-.3135-2.6318-.9399s-.9365-1.5005-.9365-2.6216c0-1.1621.3374-2.0825,1.0117-2.7617s1.5039-1.0186,2.4883-1.0186c1.021,0,1.8105.3032,2.3687.9092s.8374,1.4287.8374,2.4678v.9092ZM437.2774,71.8307c0-1.0024-.4058-1.5039-1.2168-1.5039-.3462,0-.646.1436-.8989.4307s-.4067.645-.4614,1.0732h2.5771Z" fill="#2f2f2f"/>
        <path d="M447.526,76.0416h-2.1602v-.9639h-.0273c-.4922.7563-1.2144,1.1348-2.167,1.1348-.875,0-1.5791-.3086-2.1123-.9263s-.7998-1.48-.7998-2.5874c0-1.1577.2939-2.085.8818-2.7822s1.3579-1.0459,2.3105-1.0459c.9023,0,1.5312.3237,1.8867.9707h.0273v-4.1631h2.1602v10.3633ZM445.4068,72.6373v-.5264c0-.4556-.1323-.834-.3965-1.1348s-.6084-.4512-1.0322-.4512c-.4785,0-.8521.188-1.1211.564s-.4033.8921-.4033,1.5483c0,.6152.1299,1.0894.3896,1.4219s.6196.499,1.0801.499c.4375,0,.7939-.1753,1.0698-.5264s.4136-.8159.4136-1.3945Z" fill="#2f2f2f"/>
        <path d="M455.983,76.0416h-2.1533v-1.0664h-.0342c-.5332.8247-1.2466,1.2373-2.1396,1.2373-1.6226,0-2.4336-.9819-2.4336-2.9463v-4.2246h2.1533v4.0332c0,.9888.3921,1.4834,1.1758,1.4834.3872,0,.6973-.1357.9297-.4067s.3486-.6392.3486-1.104v-4.0059h2.1533v7Z" fill="#2f2f2f"/>
        <path d="M464.5118,76.0416h-2.1533v-3.8896c0-1.0845-.3872-1.627-1.1621-1.627-.3735,0-.6812.1436-.9229.4307s-.3623.6519-.3623,1.0938v3.9922h-2.1602v-7h2.1602v1.1074h.0273c.5151-.8521,1.2646-1.2783,2.249-1.2783,1.5493,0,2.3242.9614,2.3242,2.8848v4.2861Z" fill="#2f2f2f"/>
        <path d="M473.0943,76.0416h-2.1602v-.9639h-.0273c-.4922.7563-1.2144,1.1348-2.167,1.1348-.875,0-1.5791-.3086-2.1123-.9263s-.7998-1.48-.7998-2.5874c0-1.1577.2939-2.085.8818-2.7822s1.3579-1.0459,2.3105-1.0459c.9023,0,1.5312.3237,1.8867.9707h.0273v-4.1631h2.1602v10.3633ZM470.9752,72.6373v-.5264c0-.4556-.1323-.834-.3965-1.1348s-.6084-.4512-1.0322-.4512c-.4785,0-.8521.188-1.1211.564s-.4033.8921-.4033,1.5483c0,.6152.1299,1.0894.3896,1.4219s.6196.499,1.0801.499c.4375,0,.7939-.1753,1.0698-.5264s.4136-.8159.4136-1.3945Z" fill="#2f2f2f"/>
        <path d="M480.7423,76.0416h-2.0439v-1.0049h-.0273c-.4692.7837-1.1646,1.1758-2.085,1.1758-.6792,0-1.2134-.1924-1.603-.5776s-.5845-.8989-.5845-1.5415c0-1.3579.8042-2.1421,2.4131-2.3516l1.9004-.2529c0-.7656-.4146-1.1484-1.2441-1.1484-.834,0-1.627.2485-2.3789.7451v-1.627c.3008-.1548.7119-.2915,1.2339-.4102s.9971-.1777,1.4253-.1777c1.9961,0,2.9941.9956,2.9941,2.9873v4.1836ZM478.712,73.1979v-.4717l-1.2715.1641c-.7017.0913-1.0527.4077-1.0527.9502,0,.2461.0854.4478.2563.605s.4023.2358.6938.2358c.4058,0,.7358-.1401.9912-.4204s.3828-.6348.3828-1.063Z" fill="#2f2f2f"/>
        <path d="M489.1993,76.0416h-2.1533v-3.8896c0-1.0845-.3872-1.627-1.1621-1.627-.3735,0-.6812.1436-.9229.4307s-.3623.6519-.3623,1.0938v3.9922h-2.1602v-7h2.1602v1.1074h.0273c.5151-.8521,1.2646-1.2783,2.249-1.2783,1.5493,0,2.3242.9614,2.3242,2.8848v4.2861Z" fill="#2f2f2f"/>
        <path d="M495.0489,75.9596c-.3188.1685-.7998.2529-1.4424.2529-1.522,0-2.2832-.7905-2.2832-2.3721v-3.2061h-1.1348v-1.5928h1.1348v-1.5107l2.1533-.6152v2.126h1.5723v1.5928h-1.5723v2.8301c0,.729.2896,1.0938.8682,1.0938.228,0,.4624-.0659.7041-.1982v1.5996Z" fill="#2f2f2f"/>
        <path d="M502.3155,75.2281h-.0273v4.0332h-2.1602v-10.2197h2.1602v1.0527h.0273c.5332-.8159,1.2827-1.2236,2.249-1.2236.9067,0,1.6074.311,2.1021.9331s.7417,1.4688.7417,2.5396c0,1.1665-.2881,2.103-.8647,2.8096s-1.3433,1.0596-2.3003,1.0596c-.8433,0-1.4858-.3281-1.9277-.9844ZM502.254,72.357v.5605c0,.4829.1274.8774.3828,1.1826s.5903.458,1.0049.458c.4922,0,.874-.1904,1.145-.5708s.4067-.9194.4067-1.6167c0-1.2305-.4785-1.8457-1.4355-1.8457-.4419,0-.8032.1675-1.0835.5024s-.4204.7783-.4204,1.3296Z" fill="#2f2f2f"/>
        <path d="M515.4835,76.0416h-2.1533v-1.0664h-.0342c-.5332.8247-1.2466,1.2373-2.1396,1.2373-1.6226,0-2.4336-.9819-2.4336-2.9463v-4.2246h2.1533v4.0332c0,.9888.3921,1.4834,1.1758,1.4834.3872,0,.6973-.1357.9297-.4067s.3486-.6392.3486-1.104v-4.0059h2.1533v7Z" fill="#2f2f2f"/>
        <path d="M519.4391,75.2281h-.0273v.8135h-2.1602v-10.3633h2.1602v4.416h.0273c.5332-.8159,1.292-1.2236,2.2764-1.2236.9023,0,1.5972.3101,2.085.9297s.7314,1.4673.7314,2.543c0,1.1665-.2847,2.103-.8545,2.8096s-1.3306,1.0596-2.2832,1.0596c-.8613,0-1.5132-.3281-1.9551-.9844ZM519.3775,72.275v.7178c0,.4512.1299.8247.3896,1.1211s.5923.4443.998.4443c.4922,0,.874-.1904,1.145-.5708s.4067-.9194.4067-1.6167c0-.5786-.124-1.0312-.3726-1.3569s-.6025-.4888-1.063-.4888c-.4331,0-.792.1616-1.0767.4854s-.4272.7451-.4272,1.2646Z" fill="#2f2f2f"/>
        <path d="M528.1212,76.0416h-2.1602v-10.3633h2.1602v10.3633Z" fill="#2f2f2f"/>
        <path d="M530.9898,67.9342c-.3647,0-.6631-.1084-.8955-.3247s-.3486-.4819-.3486-.7964c0-.3237.1162-.5879.3486-.793s.5308-.3076.8955-.3076c.3691,0,.6689.1025.8989.3076s.3452.4692.3452.793c0,.3281-.1152.5972-.3452.8066s-.5298.3145-.8989.3145ZM532.0562,76.0416h-2.1602v-7h2.1602v7Z" fill="#2f2f2f"/>
        <path d="M539.1358,75.7887c-.4878.2827-1.1919.4238-2.1123.4238-1.0757,0-1.9458-.3257-2.6113-.9775s-.998-1.4927-.998-2.5225c0-1.1895.3564-2.127,1.0698-2.813s1.667-1.0288,2.8608-1.0288c.8247,0,1.4219.1094,1.791.3281v1.832c-.4512-.3374-.9546-.5059-1.5107-.5059-.6196,0-1.1108.1812-1.4731.5435s-.5435.8623-.5435,1.5005c0,.6196.1733,1.1064.5195,1.4595s.8228.5298,1.4287.5298c.5376,0,1.064-.1685,1.5791-.5059v1.7363Z" fill="#2f2f2f"/>
        <path d="M546.8331,76.0416h-2.208v-9.8027h2.208v9.8027Z" fill="#2f2f2f"/>
        <path d="M551.1563,72.6646v3.377h-2.208v-9.8027h3.459c2.4702,0,3.7051,1.0415,3.7051,3.124,0,.9844-.3545,1.7808-1.063,2.3892s-1.6553.9126-2.8403.9126h-1.0527ZM551.1563,67.9342v3.0557h.8682c1.1758,0,1.7637-.5151,1.7637-1.5449,0-1.0073-.5879-1.5107-1.7637-1.5107h-.8682Z" fill="#2f2f2f"/>
        <path d="M567.0226,76.0416h-2.0439v-1.0049h-.0273c-.4692.7837-1.1646,1.1758-2.085,1.1758-.6792,0-1.2134-.1924-1.603-.5776s-.5845-.8989-.5845-1.5415c0-1.3579.8042-2.1421,2.4131-2.3516l1.9004-.2529c0-.7656-.4146-1.1484-1.2441-1.1484-.834,0-1.627.2485-2.3789.7451v-1.627c.3008-.1548.7119-.2915,1.2339-.4102s.9971-.1777,1.4253-.1777c1.9961,0,2.9941.9956,2.9941,2.9873v4.1836ZM564.9923,73.1979v-.4717l-1.2715.1641c-.7017.0913-1.0527.4077-1.0527.9502,0,.2461.0854.4478.2563.605s.4023.2358.6938.2358c.4058,0,.7358-.1401.9912-.4204s.3828-.6348.3828-1.063Z" fill="#2f2f2f"/>
        <path d="M575.6036,76.0416h-2.1602v-.9639h-.0273c-.4922.7563-1.2144,1.1348-2.167,1.1348-.875,0-1.5791-.3086-2.1123-.9263s-.7998-1.48-.7998-2.5874c0-1.1577.2939-2.085.8818-2.7822s1.3579-1.0459,2.3105-1.0459c.9023,0,1.5312.3237,1.8867.9707h.0273v-4.1631h2.1602v10.3633ZM573.4845,72.6373v-.5264c0-.4556-.1323-.834-.3965-1.1348s-.6084-.4512-1.0322-.4512c-.4785,0-.8521.188-1.1211.564s-.4033.8921-.4033,1.5483c0,.6152.1299,1.0894.3896,1.4219s.6196.499,1.0801.499c.4375,0,.7939-.1753,1.0698-.5264s.4136-.8159.4136-1.3945Z" fill="#2f2f2f"/>
        <path d="M584.2867,76.0416h-2.1602v-.9639h-.0273c-.4922.7563-1.2144,1.1348-2.167,1.1348-.875,0-1.5791-.3086-2.1123-.9263s-.7998-1.48-.7998-2.5874c0-1.1577.2939-2.085.8818-2.7822s1.3579-1.0459,2.3105-1.0459c.9023,0,1.5312.3237,1.8867.9707h.0273v-4.1631h2.1602v10.3633ZM582.1676,72.6373v-.5264c0-.4556-.1323-.834-.3965-1.1348s-.6084-.4512-1.0322-.4512c-.4785,0-.8521.188-1.1211.564s-.4033.8921-.4033,1.5483c0,.6152.1299,1.0894.3896,1.4219s.6196.499,1.0801.499c.4375,0,.7939-.1753,1.0698-.5264s.4136-.8159.4136-1.3945Z" fill="#2f2f2f"/>
        <path d="M590.6197,70.9898c-.2598-.1411-.563-.2119-.9092-.2119-.4692,0-.8364.1719-1.1006.5161s-.3965.8125-.3965,1.4048v3.3428h-2.1602v-7h2.1602v1.2988h.0273c.3418-.9478.957-1.4219,1.8457-1.4219.228,0,.4058.0273.5332.082v1.9893Z" fill="#2f2f2f"/>
        <path d="M597.9923,73.1568h-4.5664c.0728,1.0161.7134,1.5244,1.9209,1.5244.77,0,1.4468-.1821,2.0303-.5469v1.5586c-.647.3462-1.4878.5195-2.5225.5195-1.1304,0-2.0073-.3135-2.6318-.9399s-.9365-1.5005-.9365-2.6216c0-1.1621.3374-2.0825,1.0117-2.7617s1.5039-1.0186,2.4883-1.0186c1.021,0,1.8105.3032,2.3687.9092s.8374,1.4287.8374,2.4678v.9092ZM595.9894,71.8307c0-1.0024-.4058-1.5039-1.2168-1.5039-.3462,0-.646.1436-.8989.4307s-.4067.645-.4614,1.0732h2.5771Z" fill="#2f2f2f"/>
        <path d="M598.9806,75.857v-1.75c.3555.2144.71.3735,1.063.4785s.687.1572,1.0015.1572c.3828,0,.6846-.0522.9058-.1572s.3315-.2642.3315-.4785c0-.1367-.0503-.2505-.1504-.3418s-.229-.1709-.3862-.2393-.3291-.1299-.5161-.1846-.3667-.1162-.54-.1846c-.2778-.105-.5229-.2178-.7349-.3384s-.3896-.2607-.5332-.4204-.2529-.3442-.3281-.5537-.1128-.458-.1128-.7451c0-.3921.0854-.729.2563-1.0117s.3989-.5137.6836-.6938.6108-.312.9775-.3965.7485-.1265,1.145-.1265c.3101,0,.6245.0239.9434.0718s.6333.1172.9434.2085v1.668c-.2734-.1597-.5664-.2793-.8784-.3589s-.6187-.1196-.9194-.1196c-.1411,0-.2744.0127-.3999.0376s-.2358.0615-.3315.1094-.1709.1094-.2256.1846-.082.1606-.082.2563c0,.1274.041.2368.123.3281s.189.1699.3213.2358.2793.1255.4409.1777.3223.106.4819.1606c.2871.1001.5469.2095.7793.3281s.4316.2573.5981.417.2939.3462.3828.5605.1333.4692.1333.7656c0,.4146-.0898.769-.27,1.063s-.4194.5332-.7178.7178-.6426.3188-1.0322.4033-.7939.1265-1.2134.1265c-.77,0-1.4834-.1187-2.1396-.3555Z" fill="#2f2f2f"/>
        <path d="M605.2936,75.857v-1.75c.3555.2144.71.3735,1.063.4785s.687.1572,1.0015.1572c.3828,0,.6846-.0522.9058-.1572s.3315-.2642.3315-.4785c0-.1367-.0503-.2505-.1504-.3418s-.229-.1709-.3862-.2393-.3291-.1299-.5161-.1846-.3667-.1162-.54-.1846c-.2778-.105-.5229-.2178-.7349-.3384s-.3896-.2607-.5332-.4204-.2529-.3442-.3281-.5537-.1128-.458-.1128-.7451c0-.3921.0854-.729.2563-1.0117s.3989-.5137.6836-.6938.6108-.312.9775-.3965.7485-.1265,1.145-.1265c.3101,0,.6245.0239.9434.0718s.6333.1172.9434.2085v1.668c-.2734-.1597-.5664-.2793-.8784-.3589s-.6187-.1196-.9194-.1196c-.1411,0-.2744.0127-.3999.0376s-.2358.0615-.3315.1094-.1709.1094-.2256.1846-.082.1606-.082.2563c0,.1274.041.2368.123.3281s.189.1699.3213.2358.2793.1255.4409.1777.3223.106.4819.1606c.2871.1001.5469.2095.7793.3281s.4316.2573.5981.417.2939.3462.3828.5605.1333.4692.1333.7656c0,.4146-.0898.769-.27,1.063s-.4194.5332-.7178.7178-.6426.3188-1.0322.4033-.7939.1265-1.2134.1265c-.77,0-1.4834-.1187-2.1396-.3555Z" fill="#2f2f2f"/>
      </g>
      <g>
        <rect x="189.3143" y="272.8" width="136.4" height="21.9933" fill="none"/>
        <path d="M205.9269,284.7013v-9.8027h2.7891c.8477,0,1.52.2075,2.0166.6221s.7451.9546.7451,1.6201c0,.5562-.1504,1.0391-.4512,1.4492s-.7153.7017-1.2441.875v.0273c.6606.0776,1.1895.3271,1.5859.7485s.5947.9697.5947,1.644c0,.8384-.3008,1.5176-.9023,2.0371s-1.3604.7793-2.2764.7793h-2.8574ZM207.0753,275.9376v3.165h1.1758c.6289,0,1.1235-.1514,1.4834-.4546s.54-.7305.54-1.2817c0-.9526-.6265-1.4287-1.8799-1.4287h-1.3193ZM207.0753,280.1349v3.5273h1.5586c.6743,0,1.1973-.1597,1.5688-.4785s.5571-.7563.5571-1.3125c0-1.1577-.7886-1.7363-2.3652-1.7363h-1.3193Z" fill="#2f2f2f"/>
        <path d="M218.7706,284.7013h-1.1211v-1.0938h-.0273c-.4878.8384-1.2056,1.2578-2.1533,1.2578-.6973,0-1.2432-.1846-1.6372-.5537s-.5913-.8589-.5913-1.4697c0-1.3081.77-2.0688,2.3105-2.2832l2.0986-.2939c0-1.1895-.481-1.7842-1.4424-1.7842-.8433,0-1.604.2871-2.2832.8613v-1.1484c.688-.4375,1.481-.6562,2.3789-.6562,1.645,0,2.4678.8706,2.4678,2.6113v4.5527ZM217.6495,281.1603l-1.6885.2324c-.5195.0728-.9116.2017-1.1758.3862s-.3965.5117-.3965.981c0,.3418.1221.6211.3657.8374s.5684.3247.9741.3247c.5562,0,1.0151-.1948,1.3774-.5845s.5435-.8828.5435-1.48v-.6973Z" fill="#2f2f2f"/>
        <path d="M225.6124,284.38c-.5376.3237-1.1758.4854-1.9141.4854-.998,0-1.8037-.3247-2.4165-.9741s-.9194-1.4912-.9194-2.5259c0-1.1528.3306-2.0791.9912-2.7788s1.5425-1.0493,2.6455-1.0493c.6152,0,1.1577.1138,1.627.3418v1.1484c-.5195-.3647-1.0757-.5469-1.668-.5469-.7153,0-1.3022.2563-1.7603.769s-.687,1.186-.687,2.02c0,.8203.2153,1.4673.646,1.9414s1.0083.7109,1.7329.7109c.6108,0,1.1851-.2026,1.7227-.6084v1.0664Z" fill="#2f2f2f"/>
        <path d="M232.9112,284.7013h-1.5723l-3.0898-3.3633h-.0273v3.3633h-1.1211v-10.3633h1.1211v6.5693h.0273l2.9395-3.2061h1.4697l-3.2471,3.377,3.5,3.623Z" fill="#2f2f2f"/>
        <path d="M239.3355,281.4815h-4.9424c.0181.7793.228,1.3809.6289,1.8047s.9526.6357,1.6543.6357c.7886,0,1.5132-.2598,2.1738-.7793v1.0527c-.6152.4468-1.4287.6699-2.4404.6699-.9888,0-1.7661-.3179-2.3311-.9536s-.8477-1.5303-.8477-2.6831c0-1.0894.3086-1.9766.9263-2.6626s1.3843-1.0288,2.3003-1.0288,1.6245.2964,2.126.8887.752,1.415.752,2.4678v.5879ZM238.1871,280.5313c-.0044-.647-.1606-1.1509-.4683-1.5107s-.7349-.54-1.2817-.54c-.5288,0-.9775.189-1.3467.5674s-.5972.8726-.6836,1.4834h3.7803Z" fill="#2f2f2f"/>
        <path d="M246.8287,284.7013h-1.1211v-3.9922c0-1.4858-.5425-2.2285-1.627-2.2285-.5605,0-1.0244.2109-1.3911.6323s-.5503.9536-.5503,1.5962v3.9922h-1.1211v-7h1.1211v1.1621h.0273c.5288-.8843,1.2944-1.3262,2.2969-1.3262.7656,0,1.3511.2471,1.7568.7417s.6084,1.209.6084,2.1431v4.2793Z" fill="#2f2f2f"/>
        <path d="M254.9029,284.7013h-1.1211v-1.1895h-.0273c-.5195.9023-1.3218,1.3535-2.4062,1.3535-.8794,0-1.5825-.3135-2.1089-.9399s-.7896-1.48-.7896-2.5601c0-1.1577.2915-2.085.875-2.7822s1.3604-1.0459,2.3311-1.0459c.9614,0,1.6611.3784,2.0986,1.1348h.0273v-4.334h1.1211v10.3633ZM253.7818,281.5362v-1.0322c0-.5649-.187-1.0435-.5605-1.4355s-.8477-.5879-1.4219-.5879c-.6836,0-1.2212.2505-1.6133.752s-.5879,1.1938-.5879,2.0781c0,.8066.188,1.4434.564,1.9106s.8809.7007,1.5142.7007c.6245,0,1.1313-.2256,1.521-.6768s.5845-1.021.5845-1.709Z" fill="#2f2f2f"/>
        <path d="M261.5816,275.9239c-.2007,0-.3716-.0684-.5127-.2051s-.2119-.3101-.2119-.5195.0708-.3838.2119-.5229.312-.2085.5127-.2085c.2051,0,.3794.0693.5229.2085s.2153.3135.2153.5229c0,.2007-.0718.3716-.2153.5127s-.3179.2119-.5229.2119ZM262.1285,284.7013h-1.1211v-7h1.1211v7Z" fill="#2f2f2f"/>
        <path d="M270.0577,284.7013h-1.1211v-3.9922c0-1.4858-.5425-2.2285-1.627-2.2285-.5605,0-1.0244.2109-1.3911.6323s-.5503.9536-.5503,1.5962v3.9922h-1.1211v-7h1.1211v1.1621h.0273c.5288-.8843,1.2944-1.3262,2.2969-1.3262.7656,0,1.3511.2471,1.7568.7417s.6084,1.209.6084,2.1431v4.2793Z" fill="#2f2f2f"/>
        <path d="M271.7052,284.4483v-1.2031c.6108.4512,1.2827.6768,2.0166.6768.9844,0,1.4766-.3281,1.4766-.9844,0-.187-.042-.3452-.1265-.4751s-.1982-.2451-.3418-.3452-.312-.1904-.5059-.27-.4023-.1631-.6255-.2495c-.3101-.123-.582-.2471-.8169-.3726s-.4307-.2666-.5879-.4238-.2759-.3359-.3555-.5366-.1196-.4351-.1196-.7041c0-.3281.0752-.6187.2256-.8716s.3511-.4648.6016-.6357.5366-.2998.8579-.3862.6528-.1299.9946-.1299c.606,0,1.1484.105,1.627.3145v1.1348c-.5151-.3374-1.1074-.5059-1.7773-.5059-.2095,0-.3989.0239-.5674.0718s-.3135.1152-.4341.2017-.2144.1904-.2803.311-.0991.2539-.0991.3999c0,.1821.0332.335.0991.458s.1631.2324.2905.3281.2827.1821.4648.2598.3896.1616.6221.2529c.3101.1187.5879.2402.834.3657s.4556.2666.6289.4238.3066.3384.3999.5435.1401.4487.1401.7314c0,.3462-.0762.647-.229.9023s-.3564.4673-.6118.6357-.5493.2939-.8818.376-.6812.123-1.0459.123c-.7202,0-1.3442-.1392-1.873-.417Z" fill="#2f2f2f"/>
        <path d="M281.3585,284.6329c-.2642.146-.6128.2188-1.0459.2188-1.2261,0-1.8389-.6836-1.8389-2.0508v-4.1426h-1.2031v-.957h1.2031v-1.709l1.1211-.3623v2.0713h1.7637v.957h-1.7637v3.9443c0,.4692.0796.8042.2393,1.0049s.4238.3008.793.3008c.2827,0,.5264-.0776.7314-.2324v.957Z" fill="#2f2f2f"/>
        <path d="M287.9757,284.7013h-1.1211v-1.0938h-.0273c-.4878.8384-1.2056,1.2578-2.1533,1.2578-.6973,0-1.2432-.1846-1.6372-.5537s-.5913-.8589-.5913-1.4697c0-1.3081.77-2.0688,2.3105-2.2832l2.0986-.2939c0-1.1895-.481-1.7842-1.4424-1.7842-.8433,0-1.604.2871-2.2832.8613v-1.1484c.688-.4375,1.481-.6562,2.3789-.6562,1.645,0,2.4678.8706,2.4678,2.6113v4.5527ZM286.8546,281.1603l-1.6885.2324c-.5195.0728-.9116.2017-1.1758.3862s-.3965.5117-.3965.981c0,.3418.1221.6211.3657.8374s.5684.3247.9741.3247c.5562,0,1.0151-.1948,1.3774-.5845s.5435-.8828.5435-1.48v-.6973Z" fill="#2f2f2f"/>
        <path d="M295.8077,284.7013h-1.1211v-3.9922c0-1.4858-.5425-2.2285-1.627-2.2285-.5605,0-1.0244.2109-1.3911.6323s-.5503.9536-.5503,1.5962v3.9922h-1.1211v-7h1.1211v1.1621h.0273c.5288-.8843,1.2944-1.3262,2.2969-1.3262.7656,0,1.3511.2471,1.7568.7417s.6084,1.209.6084,2.1431v4.2793Z" fill="#2f2f2f"/>
        <path d="M302.6563,284.38c-.5376.3237-1.1758.4854-1.9141.4854-.998,0-1.8037-.3247-2.4165-.9741s-.9194-1.4912-.9194-2.5259c0-1.1528.3306-2.0791.9912-2.7788s1.5425-1.0493,2.6455-1.0493c.6152,0,1.1577.1138,1.627.3418v1.1484c-.5195-.3647-1.0757-.5469-1.668-.5469-.7153,0-1.3022.2563-1.7603.769s-.687,1.186-.687,2.02c0,.8203.2153,1.4673.646,1.9414s1.0083.7109,1.7329.7109c.6108,0,1.1851-.2026,1.7227-.6084v1.0664Z" fill="#2f2f2f"/>
        <path d="M309.8263,281.4815h-4.9424c.0181.7793.228,1.3809.6289,1.8047s.9526.6357,1.6543.6357c.7886,0,1.5132-.2598,2.1738-.7793v1.0527c-.6152.4468-1.4287.6699-2.4404.6699-.9888,0-1.7661-.3179-2.3311-.9536s-.8477-1.5303-.8477-2.6831c0-1.0894.3086-1.9766.9263-2.6626s1.3843-1.0288,2.3003-1.0288,1.6245.2964,2.126.8887.752,1.415.752,2.4678v.5879ZM308.6778,280.5313c-.0044-.647-.1606-1.1509-.4683-1.5107s-.7349-.54-1.2817-.54c-.5288,0-.9775.189-1.3467.5674s-.5972.8726-.6836,1.4834h3.7803Z" fill="#2f2f2f"/>
      </g>
      <g>
        <rect x="431.2" y="272.8" width="136.4" height="21.9933" fill="none"/>
        <path d="M447.8126,284.7013v-9.8027h2.7891c.8477,0,1.52.2075,2.0166.6221s.7451.9546.7451,1.6201c0,.5562-.1504,1.0391-.4512,1.4492s-.7153.7017-1.2441.875v.0273c.6606.0776,1.1895.3271,1.5859.7485s.5947.9697.5947,1.644c0,.8384-.3008,1.5176-.9023,2.0371s-1.3604.7793-2.2764.7793h-2.8574ZM448.961,275.9376v3.165h1.1758c.6289,0,1.1235-.1514,1.4834-.4546s.54-.7305.54-1.2817c0-.9526-.6265-1.4287-1.8799-1.4287h-1.3193ZM448.961,280.1349v3.5273h1.5586c.6743,0,1.1973-.1597,1.5688-.4785s.5571-.7563.5571-1.3125c0-1.1577-.7886-1.7363-2.3652-1.7363h-1.3193Z" fill="#2f2f2f"/>
        <path d="M460.6563,284.7013h-1.1211v-1.0938h-.0273c-.4878.8384-1.2056,1.2578-2.1533,1.2578-.6973,0-1.2432-.1846-1.6372-.5537s-.5913-.8589-.5913-1.4697c0-1.3081.77-2.0688,2.3105-2.2832l2.0986-.2939c0-1.1895-.481-1.7842-1.4424-1.7842-.8433,0-1.604.2871-2.2832.8613v-1.1484c.688-.4375,1.481-.6562,2.3789-.6562,1.645,0,2.4678.8706,2.4678,2.6113v4.5527ZM459.5353,281.1603l-1.6885.2324c-.5195.0728-.9116.2017-1.1758.3862s-.3965.5117-.3965.981c0,.3418.1221.6211.3657.8374s.5684.3247.9741.3247c.5562,0,1.0151-.1948,1.3774-.5845s.5435-.8828.5435-1.48v-.6973Z" fill="#2f2f2f"/>
        <path d="M467.4981,284.38c-.5376.3237-1.1758.4854-1.9141.4854-.998,0-1.8037-.3247-2.4165-.9741s-.9194-1.4912-.9194-2.5259c0-1.1528.3306-2.0791.9912-2.7788s1.5425-1.0493,2.6455-1.0493c.6152,0,1.1577.1138,1.627.3418v1.1484c-.5195-.3647-1.0757-.5469-1.668-.5469-.7153,0-1.3022.2563-1.7603.769s-.687,1.186-.687,2.02c0,.8203.2153,1.4673.646,1.9414s1.0083.7109,1.7329.7109c.6108,0,1.1851-.2026,1.7227-.6084v1.0664Z" fill="#2f2f2f"/>
        <path d="M474.797,284.7013h-1.5723l-3.0898-3.3633h-.0273v3.3633h-1.1211v-10.3633h1.1211v6.5693h.0273l2.9395-3.2061h1.4697l-3.2471,3.377,3.5,3.623Z" fill="#2f2f2f"/>
        <path d="M481.2213,281.4815h-4.9424c.0181.7793.228,1.3809.6289,1.8047s.9526.6357,1.6543.6357c.7886,0,1.5132-.2598,2.1738-.7793v1.0527c-.6152.4468-1.4287.6699-2.4404.6699-.9888,0-1.7661-.3179-2.3311-.9536s-.8477-1.5303-.8477-2.6831c0-1.0894.3086-1.9766.9263-2.6626s1.3843-1.0288,2.3003-1.0288,1.6245.2964,2.126.8887.752,1.415.752,2.4678v.5879ZM480.0729,280.5313c-.0044-.647-.1606-1.1509-.4683-1.5107s-.7349-.54-1.2817-.54c-.5288,0-.9775.189-1.3467.5674s-.5972.8726-.6836,1.4834h3.7803Z" fill="#2f2f2f"/>
        <path d="M488.7145,284.7013h-1.1211v-3.9922c0-1.4858-.5425-2.2285-1.627-2.2285-.5605,0-1.0244.2109-1.3911.6323s-.5503.9536-.5503,1.5962v3.9922h-1.1211v-7h1.1211v1.1621h.0273c.5288-.8843,1.2944-1.3262,2.2969-1.3262.7656,0,1.3511.2471,1.7568.7417s.6084,1.209.6084,2.1431v4.2793Z" fill="#2f2f2f"/>
        <path d="M496.7887,284.7013h-1.1211v-1.1895h-.0273c-.5195.9023-1.3218,1.3535-2.4062,1.3535-.8794,0-1.5825-.3135-2.1089-.9399s-.7896-1.48-.7896-2.5601c0-1.1577.2915-2.085.875-2.7822s1.3604-1.0459,2.3311-1.0459c.9614,0,1.6611.3784,2.0986,1.1348h.0273v-4.334h1.1211v10.3633ZM495.6676,281.5362v-1.0322c0-.5649-.187-1.0435-.5605-1.4355s-.8477-.5879-1.4219-.5879c-.6836,0-1.2212.2505-1.6133.752s-.5879,1.1938-.5879,2.0781c0,.8066.188,1.4434.564,1.9106s.8809.7007,1.5142.7007c.6245,0,1.1313-.2256,1.521-.6768s.5845-1.021.5845-1.709Z" fill="#2f2f2f"/>
        <path d="M503.4674,275.9239c-.2007,0-.3716-.0684-.5127-.2051s-.2119-.3101-.2119-.5195.0708-.3838.2119-.5229.312-.2085.5127-.2085c.2051,0,.3794.0693.5229.2085s.2153.3135.2153.5229c0,.2007-.0718.3716-.2153.5127s-.3179.2119-.5229.2119ZM504.0143,284.7013h-1.1211v-7h1.1211v7Z" fill="#2f2f2f"/>
        <path d="M511.9435,284.7013h-1.1211v-3.9922c0-1.4858-.5425-2.2285-1.627-2.2285-.5605,0-1.0244.2109-1.3911.6323s-.5503.9536-.5503,1.5962v3.9922h-1.1211v-7h1.1211v1.1621h.0273c.5288-.8843,1.2944-1.3262,2.2969-1.3262.7656,0,1.3511.2471,1.7568.7417s.6084,1.209.6084,2.1431v4.2793Z" fill="#2f2f2f"/>
        <path d="M513.5909,284.4483v-1.2031c.6108.4512,1.2827.6768,2.0166.6768.9844,0,1.4766-.3281,1.4766-.9844,0-.187-.042-.3452-.1265-.4751s-.1982-.2451-.3418-.3452-.312-.1904-.5059-.27-.4023-.1631-.6255-.2495c-.3101-.123-.582-.2471-.8169-.3726s-.4307-.2666-.5879-.4238-.2759-.3359-.3555-.5366-.1196-.4351-.1196-.7041c0-.3281.0752-.6187.2256-.8716s.3511-.4648.6016-.6357.5366-.2998.8579-.3862.6528-.1299.9946-.1299c.606,0,1.1484.105,1.627.3145v1.1348c-.5151-.3374-1.1074-.5059-1.7773-.5059-.2095,0-.3989.0239-.5674.0718s-.3135.1152-.4341.2017-.2144.1904-.2803.311-.0991.2539-.0991.3999c0,.1821.0332.335.0991.458s.1631.2324.2905.3281.2827.1821.4648.2598.3896.1616.6221.2529c.3101.1187.5879.2402.834.3657s.4556.2666.6289.4238.3066.3384.3999.5435.1401.4487.1401.7314c0,.3462-.0762.647-.229.9023s-.3564.4673-.6118.6357-.5493.2939-.8818.376-.6812.123-1.0459.123c-.7202,0-1.3442-.1392-1.873-.417Z" fill="#2f2f2f"/>
        <path d="M523.2442,284.6329c-.2642.146-.6128.2188-1.0459.2188-1.2261,0-1.8389-.6836-1.8389-2.0508v-4.1426h-1.2031v-.957h1.2031v-1.709l1.1211-.3623v2.0713h1.7637v.957h-1.7637v3.9443c0,.4692.0796.8042.2393,1.0049s.4238.3008.793.3008c.2827,0,.5264-.0776.7314-.2324v.957Z" fill="#2f2f2f"/>
        <path d="M529.8614,284.7013h-1.1211v-1.0938h-.0273c-.4878.8384-1.2056,1.2578-2.1533,1.2578-.6973,0-1.2432-.1846-1.6372-.5537s-.5913-.8589-.5913-1.4697c0-1.3081.77-2.0688,2.3105-2.2832l2.0986-.2939c0-1.1895-.481-1.7842-1.4424-1.7842-.8433,0-1.604.2871-2.2832.8613v-1.1484c.688-.4375,1.481-.6562,2.3789-.6562,1.645,0,2.4678.8706,2.4678,2.6113v4.5527ZM528.7403,281.1603l-1.6885.2324c-.5195.0728-.9116.2017-1.1758.3862s-.3965.5117-.3965.981c0,.3418.1221.6211.3657.8374s.5684.3247.9741.3247c.5562,0,1.0151-.1948,1.3774-.5845s.5435-.8828.5435-1.48v-.6973Z" fill="#2f2f2f"/>
        <path d="M537.6935,284.7013h-1.1211v-3.9922c0-1.4858-.5425-2.2285-1.627-2.2285-.5605,0-1.0244.2109-1.3911.6323s-.5503.9536-.5503,1.5962v3.9922h-1.1211v-7h1.1211v1.1621h.0273c.5288-.8843,1.2944-1.3262,2.2969-1.3262.7656,0,1.3511.2471,1.7568.7417s.6084,1.209.6084,2.1431v4.2793Z" fill="#2f2f2f"/>
        <path d="M544.5421,284.38c-.5376.3237-1.1758.4854-1.9141.4854-.998,0-1.8037-.3247-2.4165-.9741s-.9194-1.4912-.9194-2.5259c0-1.1528.3306-2.0791.9912-2.7788s1.5425-1.0493,2.6455-1.0493c.6152,0,1.1577.1138,1.627.3418v1.1484c-.5195-.3647-1.0757-.5469-1.668-.5469-.7153,0-1.3022.2563-1.7603.769s-.687,1.186-.687,2.02c0,.8203.2153,1.4673.646,1.9414s1.0083.7109,1.7329.7109c.6108,0,1.1851-.2026,1.7227-.6084v1.0664Z" fill="#2f2f2f"/>
        <path d="M551.712,281.4815h-4.9424c.0181.7793.228,1.3809.6289,1.8047s.9526.6357,1.6543.6357c.7886,0,1.5132-.2598,2.1738-.7793v1.0527c-.6152.4468-1.4287.6699-2.4404.6699-.9888,0-1.7661-.3179-2.3311-.9536s-.8477-1.5303-.8477-2.6831c0-1.0894.3086-1.9766.9263-2.6626s1.3843-1.0288,2.3003-1.0288,1.6245.2964,2.126.8887.752,1.415.752,2.4678v.5879ZM550.5636,280.5313c-.0044-.647-.1606-1.1509-.4683-1.5107s-.7349-.54-1.2817-.54c-.5288,0-.9775.189-1.3467.5674s-.5972.8726-.6836,1.4834h3.7803Z" fill="#2f2f2f"/>
      </g>
      <g>
        <rect x="673.2" y="272.8" width="136.4" height="21.9933" fill="none"/>
        <path d="M689.8126,284.7013v-9.8027h2.7891c.8477,0,1.52.2075,2.0166.6221s.7451.9546.7451,1.6201c0,.5562-.1504,1.0391-.4512,1.4492s-.7153.7017-1.2441.875v.0273c.6606.0776,1.1895.3271,1.5859.7485s.5947.9697.5947,1.644c0,.8384-.3008,1.5176-.9023,2.0371s-1.3604.7793-2.2764.7793h-2.8574ZM690.961,275.9376v3.165h1.1758c.6289,0,1.1235-.1514,1.4834-.4546s.54-.7305.54-1.2817c0-.9526-.6265-1.4287-1.8799-1.4287h-1.3193ZM690.961,280.1349v3.5273h1.5586c.6743,0,1.1973-.1597,1.5688-.4785s.5571-.7563.5571-1.3125c0-1.1577-.7886-1.7363-2.3652-1.7363h-1.3193Z" fill="#2f2f2f"/>
        <path d="M702.6563,284.7013h-1.1211v-1.0938h-.0273c-.4878.8384-1.2056,1.2578-2.1533,1.2578-.6973,0-1.2432-.1846-1.6372-.5537s-.5913-.8589-.5913-1.4697c0-1.3081.77-2.0688,2.3105-2.2832l2.0986-.2939c0-1.1895-.481-1.7842-1.4424-1.7842-.8433,0-1.604.2871-2.2832.8613v-1.1484c.688-.4375,1.481-.6562,2.3789-.6562,1.645,0,2.4678.8706,2.4678,2.6113v4.5527ZM701.5353,281.1603l-1.6885.2324c-.5195.0728-.9116.2017-1.1758.3862s-.3965.5117-.3965.981c0,.3418.1221.6211.3657.8374s.5684.3247.9741.3247c.5562,0,1.0151-.1948,1.3774-.5845s.5435-.8828.5435-1.48v-.6973Z" fill="#2f2f2f"/>
        <path d="M709.4981,284.38c-.5376.3237-1.1758.4854-1.9141.4854-.998,0-1.8037-.3247-2.4165-.9741s-.9194-1.4912-.9194-2.5259c0-1.1528.3306-2.0791.9912-2.7788s1.5425-1.0493,2.6455-1.0493c.6152,0,1.1577.1138,1.627.3418v1.1484c-.5195-.3647-1.0757-.5469-1.668-.5469-.7153,0-1.3022.2563-1.7603.769s-.687,1.186-.687,2.02c0,.8203.2153,1.4673.646,1.9414s1.0083.7109,1.7329.7109c.6108,0,1.1851-.2026,1.7227-.6084v1.0664Z" fill="#2f2f2f"/>
        <path d="M716.797,284.7013h-1.5723l-3.0898-3.3633h-.0273v3.3633h-1.1211v-10.3633h1.1211v6.5693h.0273l2.9395-3.2061h1.4697l-3.2471,3.377,3.5,3.623Z" fill="#2f2f2f"/>
        <path d="M723.2213,281.4815h-4.9424c.0181.7793.228,1.3809.6289,1.8047s.9526.6357,1.6543.6357c.7886,0,1.5132-.2598,2.1738-.7793v1.0527c-.6152.4468-1.4287.6699-2.4404.6699-.9888,0-1.7661-.3179-2.3311-.9536s-.8477-1.5303-.8477-2.6831c0-1.0894.3086-1.9766.9263-2.6626s1.3843-1.0288,2.3003-1.0288,1.6245.2964,2.126.8887.752,1.415.752,2.4678v.5879ZM722.0729,280.5313c-.0044-.647-.1606-1.1509-.4683-1.5107s-.7349-.54-1.2817-.54c-.5288,0-.9775.189-1.3467.5674s-.5972.8726-.6836,1.4834h3.7803Z" fill="#2f2f2f"/>
        <path d="M730.7145,284.7013h-1.1211v-3.9922c0-1.4858-.5425-2.2285-1.627-2.2285-.5605,0-1.0244.2109-1.3911.6323s-.5503.9536-.5503,1.5962v3.9922h-1.1211v-7h1.1211v1.1621h.0273c.5288-.8843,1.2944-1.3262,2.2969-1.3262.7656,0,1.3511.2471,1.7568.7417s.6084,1.209.6084,2.1431v4.2793Z" fill="#2f2f2f"/>
        <path d="M738.7887,284.7013h-1.1211v-1.1895h-.0273c-.5195.9023-1.3218,1.3535-2.4062,1.3535-.8794,0-1.5825-.3135-2.1089-.9399s-.7896-1.48-.7896-2.5601c0-1.1577.2915-2.085.875-2.7822s1.3604-1.0459,2.3311-1.0459c.9614,0,1.6611.3784,2.0986,1.1348h.0273v-4.334h1.1211v10.3633ZM737.6676,281.5362v-1.0322c0-.5649-.187-1.0435-.5605-1.4355s-.8477-.5879-1.4219-.5879c-.6836,0-1.2212.2505-1.6133.752s-.5879,1.1938-.5879,2.0781c0,.8066.188,1.4434.564,1.9106s.8809.7007,1.5142.7007c.6245,0,1.1313-.2256,1.521-.6768s.5845-1.021.5845-1.709Z" fill="#2f2f2f"/>
        <path d="M745.4674,275.9239c-.2007,0-.3716-.0684-.5127-.2051s-.2119-.3101-.2119-.5195.0708-.3838.2119-.5229.312-.2085.5127-.2085c.2051,0,.3794.0693.5229.2085s.2153.3135.2153.5229c0,.2007-.0718.3716-.2153.5127s-.3179.2119-.5229.2119ZM746.0143,284.7013h-1.1211v-7h1.1211v7Z" fill="#2f2f2f"/>
        <path d="M753.9435,284.7013h-1.1211v-3.9922c0-1.4858-.5425-2.2285-1.627-2.2285-.5605,0-1.0244.2109-1.3911.6323s-.5503.9536-.5503,1.5962v3.9922h-1.1211v-7h1.1211v1.1621h.0273c.5288-.8843,1.2944-1.3262,2.2969-1.3262.7656,0,1.3511.2471,1.7568.7417s.6084,1.209.6084,2.1431v4.2793Z" fill="#2f2f2f"/>
        <path d="M755.5909,284.4483v-1.2031c.6108.4512,1.2827.6768,2.0166.6768.9844,0,1.4766-.3281,1.4766-.9844,0-.187-.042-.3452-.1265-.4751s-.1982-.2451-.3418-.3452-.312-.1904-.5059-.27-.4023-.1631-.6255-.2495c-.3101-.123-.582-.2471-.8169-.3726s-.4307-.2666-.5879-.4238-.2759-.3359-.3555-.5366-.1196-.4351-.1196-.7041c0-.3281.0752-.6187.2256-.8716s.3511-.4648.6016-.6357.5366-.2998.8579-.3862.6528-.1299.9946-.1299c.606,0,1.1484.105,1.627.3145v1.1348c-.5151-.3374-1.1074-.5059-1.7773-.5059-.2095,0-.3989.0239-.5674.0718s-.3135.1152-.4341.2017-.2144.1904-.2803.311-.0991.2539-.0991.3999c0,.1821.0332.335.0991.458s.1631.2324.2905.3281.2827.1821.4648.2598.3896.1616.6221.2529c.3101.1187.5879.2402.834.3657s.4556.2666.6289.4238.3066.3384.3999.5435.1401.4487.1401.7314c0,.3462-.0762.647-.229.9023s-.3564.4673-.6118.6357-.5493.2939-.8818.376-.6812.123-1.0459.123c-.7202,0-1.3442-.1392-1.873-.417Z" fill="#2f2f2f"/>
        <path d="M765.2442,284.6329c-.2642.146-.6128.2188-1.0459.2188-1.2261,0-1.8389-.6836-1.8389-2.0508v-4.1426h-1.2031v-.957h1.2031v-1.709l1.1211-.3623v2.0713h1.7637v.957h-1.7637v3.9443c0,.4692.0796.8042.2393,1.0049s.4238.3008.793.3008c.2827,0,.5264-.0776.7314-.2324v.957Z" fill="#2f2f2f"/>
        <path d="M771.8614,284.7013h-1.1211v-1.0938h-.0273c-.4878.8384-1.2056,1.2578-2.1533,1.2578-.6973,0-1.2432-.1846-1.6372-.5537s-.5913-.8589-.5913-1.4697c0-1.3081.77-2.0688,2.3105-2.2832l2.0986-.2939c0-1.1895-.481-1.7842-1.4424-1.7842-.8433,0-1.604.2871-2.2832.8613v-1.1484c.688-.4375,1.481-.6562,2.3789-.6562,1.645,0,2.4678.8706,2.4678,2.6113v4.5527ZM770.7403,281.1603l-1.6885.2324c-.5195.0728-.9116.2017-1.1758.3862s-.3965.5117-.3965.981c0,.3418.1221.6211.3657.8374s.5684.3247.9741.3247c.5562,0,1.0151-.1948,1.3774-.5845s.5435-.8828.5435-1.48v-.6973Z" fill="#2f2f2f"/>
        <path d="M779.6935,284.7013h-1.1211v-3.9922c0-1.4858-.5425-2.2285-1.627-2.2285-.5605,0-1.0244.2109-1.3911.6323s-.5503.9536-.5503,1.5962v3.9922h-1.1211v-7h1.1211v1.1621h.0273c.5288-.8843,1.2944-1.3262,2.2969-1.3262.7656,0,1.3511.2471,1.7568.7417s.6084,1.209.6084,2.1431v4.2793Z" fill="#2f2f2f"/>
        <path d="M786.5421,284.38c-.5376.3237-1.1758.4854-1.9141.4854-.998,0-1.8037-.3247-2.4165-.9741s-.9194-1.4912-.9194-2.5259c0-1.1528.3306-2.0791.9912-2.7788s1.5425-1.0493,2.6455-1.0493c.6152,0,1.1577.1138,1.627.3418v1.1484c-.5195-.3647-1.0757-.5469-1.668-.5469-.7153,0-1.3022.2563-1.7603.769s-.687,1.186-.687,2.02c0,.8203.2153,1.4673.646,1.9414s1.0083.7109,1.7329.7109c.6108,0,1.1851-.2026,1.7227-.6084v1.0664Z" fill="#2f2f2f"/>
        <path d="M793.712,281.4815h-4.9424c.0181.7793.228,1.3809.6289,1.8047s.9526.6357,1.6543.6357c.7886,0,1.5132-.2598,2.1738-.7793v1.0527c-.6152.4468-1.4287.6699-2.4404.6699-.9888,0-1.7661-.3179-2.3311-.9536s-.8477-1.5303-.8477-2.6831c0-1.0894.3086-1.9766.9263-2.6626s1.3843-1.0288,2.3003-1.0288,1.6245.2964,2.126.8887.752,1.415.752,2.4678v.5879ZM792.5636,280.5313c-.0044-.647-.1606-1.1509-.4683-1.5107s-.7349-.54-1.2817-.54c-.5288,0-.9775.189-1.3467.5674s-.5972.8726-.6836,1.4834h3.7803Z" fill="#2f2f2f"/>
      </g>
      <g>
        <rect x="246.4" y="162.8" width="506" height="20.38" fill="none"/>
        <path d="M445.7257,174.7013h-5.0859v-9.8027h1.1484v8.7637h3.9375v1.0391Z" fill="#2f2f2f"/>
        <path d="M449.9112,174.8653c-1.0347,0-1.8604-.3271-2.478-.981s-.9263-1.521-.9263-2.6011c0-1.1758.3213-2.0942.9639-2.7549s1.5107-.9912,2.6045-.9912c1.0435,0,1.8584.3213,2.4438.9639s.8784,1.5337.8784,2.6729c0,1.1167-.3154,2.0107-.9468,2.6831s-1.4775,1.0083-2.5396,1.0083ZM449.9933,168.4806c-.7202,0-1.2896.2451-1.709.7349s-.6289,1.1655-.6289,2.0269c0,.8296.2119,1.4834.6357,1.9619s.9912.7178,1.7021.7178c.7246,0,1.2817-.2349,1.6714-.7041s.5845-1.1372.5845-2.0029c0-.875-.1948-1.5493-.5845-2.0234s-.9468-.7109-1.6714-.7109Z" fill="#2f2f2f"/>
        <path d="M460.1461,174.7013h-1.1211v-1.0938h-.0273c-.4878.8384-1.2056,1.2578-2.1533,1.2578-.6973,0-1.2432-.1846-1.6372-.5537s-.5913-.8589-.5913-1.4697c0-1.3081.77-2.0688,2.3105-2.2832l2.0986-.2939c0-1.1895-.481-1.7842-1.4424-1.7842-.8433,0-1.604.2871-2.2832.8613v-1.1484c.688-.4375,1.481-.6562,2.3789-.6562,1.645,0,2.4678.8706,2.4678,2.6113v4.5527ZM459.025,171.1603l-1.6885.2324c-.5195.0728-.9116.2017-1.1758.3862s-.3965.5117-.3965.981c0,.3418.1221.6211.3657.8374s.5684.3247.9741.3247c.5562,0,1.0151-.1948,1.3774-.5845s.5435-.8828.5435-1.48v-.6973Z" fill="#2f2f2f"/>
        <path d="M468.2149,174.7013h-1.1211v-1.1895h-.0273c-.5195.9023-1.3218,1.3535-2.4062,1.3535-.8794,0-1.5825-.3135-2.1089-.9399s-.7896-1.48-.7896-2.5601c0-1.1577.2915-2.085.875-2.7822s1.3604-1.0459,2.3311-1.0459c.9614,0,1.6611.3784,2.0986,1.1348h.0273v-4.334h1.1211v10.3633ZM467.0938,171.5362v-1.0322c0-.5649-.187-1.0435-.5605-1.4355s-.8477-.5879-1.4219-.5879c-.6836,0-1.2212.2505-1.6133.752s-.5879,1.1938-.5879,2.0781c0,.8066.188,1.4434.564,1.9106s.8809.7007,1.5142.7007c.6245,0,1.1313-.2256,1.521-.6768s.5845-1.021.5845-1.709Z" fill="#2f2f2f"/>
        <path d="M475.4679,173.6896h-.0273v1.0117h-1.1211v-10.3633h1.1211v4.5938h.0273c.5513-.9297,1.3579-1.3945,2.4199-1.3945.8979,0,1.6006.3135,2.1089.9399s.7622,1.4663.7622,2.519c0,1.1714-.2847,2.1089-.8545,2.813s-1.3491,1.0562-2.3379,1.0562c-.9253,0-1.6245-.3921-2.0986-1.1758ZM475.4405,170.8663v.9775c0,.5786.188,1.0698.564,1.4731s.8535.605,1.4321.605c.6792,0,1.2109-.2598,1.5962-.7793s.5776-1.2417.5776-2.167c0-.7793-.1802-1.3901-.54-1.832s-.8477-.6631-1.4629-.6631c-.6519,0-1.1758.2266-1.5723.6802s-.5947,1.022-.5947,1.7056Z" fill="#2f2f2f"/>
        <path d="M487.4947,174.7013h-1.1211v-1.0938h-.0273c-.4878.8384-1.2056,1.2578-2.1533,1.2578-.6973,0-1.2432-.1846-1.6372-.5537s-.5913-.8589-.5913-1.4697c0-1.3081.77-2.0688,2.3105-2.2832l2.0986-.2939c0-1.1895-.481-1.7842-1.4424-1.7842-.8433,0-1.604.2871-2.2832.8613v-1.1484c.688-.4375,1.481-.6562,2.3789-.6562,1.645,0,2.4678.8706,2.4678,2.6113v4.5527ZM486.3736,171.1603l-1.6885.2324c-.5195.0728-.9116.2017-1.1758.3862s-.3965.5117-.3965.981c0,.3418.1221.6211.3657.8374s.5684.3247.9741.3247c.5562,0,1.0151-.1948,1.3774-.5845s.5435-.8828.5435-1.48v-.6973Z" fill="#2f2f2f"/>
        <path d="M490.6358,174.7013h-1.1211v-10.3633h1.1211v10.3633Z" fill="#2f2f2f"/>
        <path d="M497.7901,174.7013h-1.1211v-1.0938h-.0273c-.4878.8384-1.2056,1.2578-2.1533,1.2578-.6973,0-1.2432-.1846-1.6372-.5537s-.5913-.8589-.5913-1.4697c0-1.3081.77-2.0688,2.3105-2.2832l2.0986-.2939c0-1.1895-.481-1.7842-1.4424-1.7842-.8433,0-1.604.2871-2.2832.8613v-1.1484c.688-.4375,1.481-.6562,2.3789-.6562,1.645,0,2.4678.8706,2.4678,2.6113v4.5527ZM496.669,171.1603l-1.6885.2324c-.5195.0728-.9116.2017-1.1758.3862s-.3965.5117-.3965.981c0,.3418.1221.6211.3657.8374s.5684.3247.9741.3247c.5562,0,1.0151-.1948,1.3774-.5845s.5435-.8828.5435-1.48v-.6973Z" fill="#2f2f2f"/>
        <path d="M505.6217,174.7013h-1.1211v-3.9922c0-1.4858-.5425-2.2285-1.627-2.2285-.5605,0-1.0244.2109-1.3911.6323s-.5503.9536-.5503,1.5962v3.9922h-1.1211v-7h1.1211v1.1621h.0273c.5288-.8843,1.2944-1.3262,2.2969-1.3262.7656,0,1.3511.2471,1.7568.7417s.6084,1.209.6084,2.1431v4.2793Z" fill="#2f2f2f"/>
        <path d="M512.4708,174.38c-.5376.3237-1.1758.4854-1.9141.4854-.998,0-1.8037-.3247-2.4165-.9741s-.9194-1.4912-.9194-2.5259c0-1.1528.3306-2.0791.9912-2.7788s1.5425-1.0493,2.6455-1.0493c.6152,0,1.1577.1138,1.627.3418v1.1484c-.5195-.3647-1.0757-.5469-1.668-.5469-.7153,0-1.3022.2563-1.7603.769s-.687,1.186-.687,2.02c0,.8203.2153,1.4673.646,1.9414s1.0083.7109,1.7329.7109c.6108,0,1.1851-.2026,1.7227-.6084v1.0664Z" fill="#2f2f2f"/>
        <path d="M514.5328,165.9239c-.2007,0-.3716-.0684-.5127-.2051s-.2119-.3101-.2119-.5195.0708-.3838.2119-.5229.312-.2085.5127-.2085c.2051,0,.3794.0693.5229.2085s.2153.3135.2153.5229c0,.2007-.0718.3716-.2153.5127s-.3179.2119-.5229.2119ZM515.0797,174.7013h-1.1211v-7h1.1211v7Z" fill="#2f2f2f"/>
        <path d="M523.0089,174.7013h-1.1211v-3.9922c0-1.4858-.5425-2.2285-1.627-2.2285-.5605,0-1.0244.2109-1.3911.6323s-.5503.9536-.5503,1.5962v3.9922h-1.1211v-7h1.1211v1.1621h.0273c.5288-.8843,1.2944-1.3262,2.2969-1.3262.7656,0,1.3511.2471,1.7568.7417s.6084,1.209.6084,2.1431v4.2793Z" fill="#2f2f2f"/>
        <path d="M531.0831,174.1407c0,2.5703-1.2305,3.8555-3.6914,3.8555-.8657,0-1.6226-.1641-2.2695-.4922v-1.1211c.7886.4375,1.5405.6562,2.2559.6562,1.7227,0,2.584-.916,2.584-2.748v-.7656h-.0273c-.5332.8931-1.3354,1.3398-2.4062,1.3398-.8706,0-1.5713-.311-2.1021-.9331s-.7964-1.457-.7964-2.5054c0-1.1895.2861-2.1353.8579-2.8369s1.3545-1.0527,2.3481-1.0527c.9434,0,1.6431.3784,2.0986,1.1348h.0273v-.9707h1.1211v6.4395ZM529.962,171.5362v-1.0322c0-.5562-.188-1.0322-.564-1.4287s-.8442-.5947-1.4048-.5947c-.6929,0-1.2349.252-1.627.7554s-.5879,1.209-.5879,2.1157c0,.7793.188,1.4023.564,1.8696s.874.7007,1.4937.7007c.6289,0,1.1406-.2231,1.5347-.6699s.5913-1.0186.5913-1.7158Z" fill="#2f2f2f"/>
        <path d="M540.838,168.836c-.1958-.1504-.4785-.2256-.8477-.2256-.4785,0-.8784.2256-1.1997.6768s-.4819,1.0664-.4819,1.8457v3.5684h-1.1211v-7h1.1211v1.4424h.0273c.1597-.4922.4033-.876.7314-1.1519s.6948-.4136,1.1006-.4136c.2915,0,.5151.0317.6699.0957v1.1621Z" fill="#2f2f2f"/>
        <path d="M547.8185,174.7013h-1.1211v-1.1074h-.0273c-.4648.8477-1.1851,1.2715-2.1602,1.2715-1.668,0-2.502-.9937-2.502-2.9805v-4.1836h1.1143v4.0059c0,1.4766.5649,2.2148,1.6953,2.2148.5469,0,.9971-.2017,1.3501-.605s.5298-.9307.5298-1.5825v-4.0332h1.1211v7Z" fill="#2f2f2f"/>
        <path d="M551.0455,174.7013h-1.1211v-10.3633h1.1211v10.3633Z" fill="#2f2f2f"/>
        <path d="M558.8834,171.4815h-4.9424c.0181.7793.228,1.3809.6289,1.8047s.9526.6357,1.6543.6357c.7886,0,1.5132-.2598,2.1738-.7793v1.0527c-.6152.4468-1.4287.6699-2.4404.6699-.9888,0-1.7661-.3179-2.3311-.9536s-.8477-1.5303-.8477-2.6831c0-1.0894.3086-1.9766.9263-2.6626s1.3843-1.0288,2.3003-1.0288,1.6245.2964,2.126.8887.752,1.415.752,2.4678v.5879ZM557.735,170.5313c-.0044-.647-.1606-1.1509-.4683-1.5107s-.7349-.54-1.2817-.54c-.5288,0-.9775.189-1.3467.5674s-.5972.8726-.6836,1.4834h3.7803Z" fill="#2f2f2f"/>
      </g>
      <g>
        <rect x="246.4" y="114.4" width="506" height="20.38" fill="none"/>
        <path d="M377.8565,116.7721l-5.7422,8.4902h5.6055v1.0391h-7.3213v-.3213l5.6943-8.4424h-5.2363v-1.0391h7v.2734Z" fill="#2f2f2f"/>
        <path d="M382.0133,126.4654c-1.0347,0-1.8604-.3271-2.478-.981s-.9263-1.521-.9263-2.6011c0-1.1758.3213-2.0942.9639-2.7549s1.5107-.9912,2.6045-.9912c1.0435,0,1.8584.3213,2.4438.9639s.8784,1.5337.8784,2.6729c0,1.1167-.3154,2.0107-.9468,2.6831s-1.4775,1.0083-2.5396,1.0083ZM382.0953,120.0807c-.7202,0-1.2896.2451-1.709.7349s-.6289,1.1655-.6289,2.0269c0,.8296.2119,1.4834.6357,1.9619s.9912.7178,1.7021.7178c.7246,0,1.2817-.2349,1.6714-.7041s.5845-1.1372.5845-2.0029c0-.875-.1948-1.5493-.5845-2.0234s-.9468-.7109-1.6714-.7109Z" fill="#2f2f2f"/>
        <path d="M393.026,126.3014h-1.1211v-3.9922c0-1.4858-.5425-2.2285-1.627-2.2285-.5605,0-1.0244.2109-1.3911.6323s-.5503.9536-.5503,1.5962v3.9922h-1.1211v-7h1.1211v1.1621h.0273c.5288-.8843,1.2944-1.3262,2.2969-1.3262.7656,0,1.3511.2471,1.7568.7417s.6084,1.209.6084,2.1431v4.2793Z" fill="#2f2f2f"/>
        <path d="M400.7291,123.0816h-4.9424c.0181.7793.228,1.3809.6289,1.8047s.9526.6357,1.6543.6357c.7886,0,1.5132-.2598,2.1738-.7793v1.0527c-.6152.4468-1.4287.6699-2.4404.6699-.9888,0-1.7661-.3179-2.3311-.9536s-.8477-1.5303-.8477-2.6831c0-1.0894.3086-1.9766.9263-2.6626s1.3843-1.0288,2.3003-1.0288,1.6245.2964,2.126.8887.752,1.415.752,2.4678v.5879ZM399.5807,122.1314c-.0044-.647-.1606-1.1509-.4683-1.5107s-.7349-.54-1.2817-.54c-.5288,0-.9775.189-1.3467.5674s-.5972.8726-.6836,1.4834h3.7803Z" fill="#2f2f2f"/>
        <path d="M406.0763,122.8424h-3.7324v-.8818h3.7324v.8818Z" fill="#2f2f2f"/>
        <path d="M411.6354,120.4361c-.1958-.1504-.4785-.2256-.8477-.2256-.4785,0-.8784.2256-1.1997.6768s-.4819,1.0664-.4819,1.8457v3.5684h-1.1211v-7h1.1211v1.4424h.0273c.1597-.4922.4033-.876.7314-1.1519s.6948-.4136,1.1006-.4136c.2915,0,.5151.0317.6699.0957v1.1621Z" fill="#2f2f2f"/>
        <path d="M418.4781,123.0816h-4.9424c.0181.7793.228,1.3809.6289,1.8047s.9526.6357,1.6543.6357c.7886,0,1.5132-.2598,2.1738-.7793v1.0527c-.6152.4468-1.4287.6699-2.4404.6699-.9888,0-1.7661-.3179-2.3311-.9536s-.8477-1.5303-.8477-2.6831c0-1.0894.3086-1.9766.9263-2.6626s1.3843-1.0288,2.3003-1.0288,1.6245.2964,2.126.8887.752,1.415.752,2.4678v.5879ZM417.3297,122.1314c-.0044-.647-.1606-1.1509-.4683-1.5107s-.7349-.54-1.2817-.54c-.5288,0-.9775.189-1.3467.5674s-.5972.8726-.6836,1.4834h3.7803Z" fill="#2f2f2f"/>
        <path d="M426.2101,126.3014h-1.1211v-1.1895h-.0273c-.5195.9023-1.3218,1.3535-2.4062,1.3535-.8794,0-1.5825-.3135-2.1089-.9399s-.7896-1.48-.7896-2.5601c0-1.1577.2915-2.085.875-2.7822s1.3604-1.0459,2.3311-1.0459c.9614,0,1.6611.3784,2.0986,1.1348h.0273v-4.334h1.1211v10.3633ZM425.089,123.1363v-1.0322c0-.5649-.187-1.0435-.5605-1.4355s-.8477-.5879-1.4219-.5879c-.6836,0-1.2212.2505-1.6133.752s-.5879,1.1938-.5879,2.0781c0,.8066.188,1.4434.564,1.9106s.8809.7007,1.5142.7007c.6245,0,1.1313-.2256,1.521-.6768s.5845-1.021.5845-1.709Z" fill="#2f2f2f"/>
        <path d="M434.0372,126.3014h-1.1211v-1.1074h-.0273c-.4648.8477-1.1851,1.2715-2.1602,1.2715-1.668,0-2.502-.9937-2.502-2.9805v-4.1836h1.1143v4.0059c0,1.4766.5649,2.2148,1.6953,2.2148.5469,0,.9971-.2017,1.3501-.605s.5298-.9307.5298-1.5825v-4.0332h1.1211v7Z" fill="#2f2f2f"/>
        <path d="M441.9552,126.3014h-1.1211v-3.9922c0-1.4858-.5425-2.2285-1.627-2.2285-.5605,0-1.0244.2109-1.3911.6323s-.5503.9536-.5503,1.5962v3.9922h-1.1211v-7h1.1211v1.1621h.0273c.5288-.8843,1.2944-1.3262,2.2969-1.3262.7656,0,1.3511.2471,1.7568.7417s.6084,1.209.6084,2.1431v4.2793Z" fill="#2f2f2f"/>
        <path d="M450.0294,126.3014h-1.1211v-1.1895h-.0273c-.5195.9023-1.3218,1.3535-2.4062,1.3535-.8794,0-1.5825-.3135-2.1089-.9399s-.7896-1.48-.7896-2.5601c0-1.1577.2915-2.085.875-2.7822s1.3604-1.0459,2.3311-1.0459c.9614,0,1.6611.3784,2.0986,1.1348h.0273v-4.334h1.1211v10.3633ZM448.9083,123.1363v-1.0322c0-.5649-.187-1.0435-.5605-1.4355s-.8477-.5879-1.4219-.5879c-.6836,0-1.2212.2505-1.6133.752s-.5879,1.1938-.5879,2.0781c0,.8066.188,1.4434.564,1.9106s.8809.7007,1.5142.7007c.6245,0,1.1313-.2256,1.521-.6768s.5845-1.021.5845-1.709Z" fill="#2f2f2f"/>
        <path d="M457.1866,126.3014h-1.1211v-1.0938h-.0273c-.4878.8384-1.2056,1.2578-2.1533,1.2578-.6973,0-1.2432-.1846-1.6372-.5537s-.5913-.8589-.5913-1.4697c0-1.3081.77-2.0688,2.3105-2.2832l2.0986-.2939c0-1.1895-.481-1.7842-1.4424-1.7842-.8433,0-1.604.2871-2.2832.8613v-1.1484c.688-.4375,1.481-.6562,2.3789-.6562,1.645,0,2.4678.8706,2.4678,2.6113v4.5527ZM456.0655,122.7604l-1.6885.2324c-.5195.0728-.9116.2017-1.1758.3862s-.3965.5117-.3965.981c0,.3418.1221.6211.3657.8374s.5684.3247.9741.3247c.5562,0,1.0151-.1948,1.3774-.5845s.5435-.8828.5435-1.48v-.6973Z" fill="#2f2f2f"/>
        <path d="M465.0187,126.3014h-1.1211v-3.9922c0-1.4858-.5425-2.2285-1.627-2.2285-.5605,0-1.0244.2109-1.3911.6323s-.5503.9536-.5503,1.5962v3.9922h-1.1211v-7h1.1211v1.1621h.0273c.5288-.8843,1.2944-1.3262,2.2969-1.3262.7656,0,1.3511.2471,1.7568.7417s.6084,1.209.6084,2.1431v4.2793Z" fill="#2f2f2f"/>
        <path d="M470.2477,126.233c-.2642.146-.6128.2188-1.0459.2188-1.2261,0-1.8389-.6836-1.8389-2.0508v-4.1426h-1.2031v-.957h1.2031v-1.709l1.1211-.3623v2.0713h1.7637v.957h-1.7637v3.9443c0,.4692.0796.8042.2393,1.0049s.4238.3008.793.3008c.2827,0,.5264-.0776.7314-.2324v.957Z" fill="#2f2f2f"/>
        <path d="M479.0387,116.9225c-.2188-.123-.4673-.1846-.7451-.1846-.7837,0-1.1758.4946-1.1758,1.4834v1.0801h1.6406v.957h-1.6406v6.043h-1.1143v-6.043h-1.1963v-.957h1.1963v-1.1348c0-.7339.2119-1.3135.6357-1.7397s.9526-.6392,1.5859-.6392c.3418,0,.6128.041.8135.123v1.0117Z" fill="#2f2f2f"/>
        <path d="M483.6495,120.4361c-.1958-.1504-.4785-.2256-.8477-.2256-.4785,0-.8784.2256-1.1997.6768s-.4819,1.0664-.4819,1.8457v3.5684h-1.1211v-7h1.1211v1.4424h.0273c.1597-.4922.4033-.876.7314-1.1519s.6948-.4136,1.1006-.4136c.2915,0,.5151.0317.6699.0957v1.1621Z" fill="#2f2f2f"/>
        <path d="M487.7921,126.4654c-1.0347,0-1.8604-.3271-2.478-.981s-.9263-1.521-.9263-2.6011c0-1.1758.3213-2.0942.9639-2.7549s1.5107-.9912,2.6045-.9912c1.0435,0,1.8584.3213,2.4438.9639s.8784,1.5337.8784,2.6729c0,1.1167-.3154,2.0107-.9468,2.6831s-1.4775,1.0083-2.5396,1.0083ZM487.8741,120.0807c-.7202,0-1.2896.2451-1.709.7349s-.6289,1.1655-.6289,2.0269c0,.8296.2119,1.4834.6357,1.9619s.9912.7178,1.7021.7178c.7246,0,1.2817-.2349,1.6714-.7041s.5845-1.1372.5845-2.0029c0-.875-.1948-1.5493-.5845-2.0234s-.9468-.7109-1.6714-.7109Z" fill="#2f2f2f"/>
        <path d="M498.8048,126.3014h-1.1211v-3.9922c0-1.4858-.5425-2.2285-1.627-2.2285-.5605,0-1.0244.2109-1.3911.6323s-.5503.9536-.5503,1.5962v3.9922h-1.1211v-7h1.1211v1.1621h.0273c.5288-.8843,1.2944-1.3262,2.2969-1.3262.7656,0,1.3511.2471,1.7568.7417s.6084,1.209.6084,2.1431v4.2793Z" fill="#2f2f2f"/>
        <path d="M504.0338,126.233c-.2642.146-.6128.2188-1.0459.2188-1.2261,0-1.8389-.6836-1.8389-2.0508v-4.1426h-1.2031v-.957h1.2031v-1.709l1.1211-.3623v2.0713h1.7637v.957h-1.7637v3.9443c0,.4692.0796.8042.2393,1.0049s.4238.3008.793.3008c.2827,0,.5264-.0776.7314-.2324v.957Z" fill="#2f2f2f"/>
        <path d="M511.0265,123.0816h-4.9424c.0181.7793.228,1.3809.6289,1.8047s.9526.6357,1.6543.6357c.7886,0,1.5132-.2598,2.1738-.7793v1.0527c-.6152.4468-1.4287.6699-2.4404.6699-.9888,0-1.7661-.3179-2.3311-.9536s-.8477-1.5303-.8477-2.6831c0-1.0894.3086-1.9766.9263-2.6626s1.3843-1.0288,2.3003-1.0288,1.6245.2964,2.126.8887.752,1.415.752,2.4678v.5879ZM509.878,122.1314c-.0044-.647-.1606-1.1509-.4683-1.5107s-.7349-.54-1.2817-.54c-.5288,0-.9775.189-1.3467.5674s-.5972.8726-.6836,1.4834h3.7803Z" fill="#2f2f2f"/>
        <path d="M518.5196,126.3014h-1.1211v-3.9922c0-1.4858-.5425-2.2285-1.627-2.2285-.5605,0-1.0244.2109-1.3911.6323s-.5503.9536-.5503,1.5962v3.9922h-1.1211v-7h1.1211v1.1621h.0273c.5288-.8843,1.2944-1.3262,2.2969-1.3262.7656,0,1.3511.2471,1.7568.7417s.6084,1.209.6084,2.1431v4.2793Z" fill="#2f2f2f"/>
        <path d="M526.5943,126.3014h-1.1211v-1.1895h-.0273c-.5195.9023-1.3218,1.3535-2.4062,1.3535-.8794,0-1.5825-.3135-2.1089-.9399s-.7896-1.48-.7896-2.5601c0-1.1577.2915-2.085.875-2.7822s1.3604-1.0459,2.3311-1.0459c.9614,0,1.6611.3784,2.0986,1.1348h.0273v-4.334h1.1211v10.3633ZM525.4732,123.1363v-1.0322c0-.5649-.187-1.0435-.5605-1.4355s-.8477-.5879-1.4219-.5879c-.6836,0-1.2212.2505-1.6133.752s-.5879,1.1938-.5879,2.0781c0,.8066.188,1.4434.564,1.9106s.8809.7007,1.5142.7007c.6245,0,1.1313-.2256,1.521-.6768s.5845-1.021.5845-1.709Z" fill="#2f2f2f"/>
        <path d="M533.9977,126.3014h-1.1484v-9.8027h1.1484v9.8027Z" fill="#2f2f2f"/>
        <path d="M537.5675,122.5963v3.7051h-1.1484v-9.8027h2.6934c1.0483,0,1.8604.2554,2.437.7656s.8647,1.2305.8647,2.1602-.3203,1.6909-.9604,2.2832-1.5049.8887-2.5942.8887h-1.292ZM537.5675,117.5377v4.0195h1.2031c.793,0,1.3979-.1812,1.8149-.5435s.6255-.874.6255-1.5347c0-1.2944-.7656-1.9414-2.2969-1.9414h-1.3467Z" fill="#2f2f2f"/>
        <path d="M552.7159,125.9801c-.5376.3237-1.1758.4854-1.9141.4854-.998,0-1.8037-.3247-2.4165-.9741s-.9194-1.4912-.9194-2.5259c0-1.1528.3306-2.0791.9912-2.7788s1.5425-1.0493,2.6455-1.0493c.6152,0,1.1577.1138,1.627.3418v1.1484c-.5195-.3647-1.0757-.5469-1.668-.5469-.7153,0-1.3022.2563-1.7603.769s-.687,1.186-.687,2.02c0,.8203.2153,1.4673.646,1.9414s1.0083.7109,1.7329.7109c.6108,0,1.1851-.2026,1.7227-.6084v1.0664Z" fill="#2f2f2f"/>
        <path d="M557.1563,126.4654c-1.0347,0-1.8604-.3271-2.478-.981s-.9263-1.521-.9263-2.6011c0-1.1758.3213-2.0942.9639-2.7549s1.5107-.9912,2.6045-.9912c1.0435,0,1.8584.3213,2.4438.9639s.8784,1.5337.8784,2.6729c0,1.1167-.3154,2.0107-.9468,2.6831s-1.4775,1.0083-2.5396,1.0083ZM557.2384,120.0807c-.7202,0-1.2896.2451-1.709.7349s-.6289,1.1655-.6289,2.0269c0,.8296.2119,1.4834.6357,1.9619s.9912.7178,1.7021.7178c.7246,0,1.2817-.2349,1.6714-.7041s.5845-1.1372.5845-2.0029c0-.875-.1948-1.5493-.5845-2.0234s-.9468-.7109-1.6714-.7109Z" fill="#2f2f2f"/>
        <path d="M568.169,126.3014h-1.1211v-3.9922c0-1.4858-.5425-2.2285-1.627-2.2285-.5605,0-1.0244.2109-1.3911.6323s-.5503.9536-.5503,1.5962v3.9922h-1.1211v-7h1.1211v1.1621h.0273c.5288-.8843,1.2944-1.3262,2.2969-1.3262.7656,0,1.3511.2471,1.7568.7417s.6084,1.209.6084,2.1431v4.2793Z" fill="#2f2f2f"/>
        <path d="M573.5748,116.9225c-.2188-.123-.4673-.1846-.7451-.1846-.7837,0-1.1758.4946-1.1758,1.4834v1.0801h1.6406v.957h-1.6406v6.043h-1.1143v-6.043h-1.1963v-.957h1.1963v-1.1348c0-.7339.2119-1.3135.6357-1.7397s.9526-.6392,1.5859-.6392c.3418,0,.6128.041.8135.123v1.0117Z" fill="#2f2f2f"/>
        <path d="M575.3282,117.524c-.2007,0-.3716-.0684-.5127-.2051s-.2119-.3101-.2119-.5195.0708-.3838.2119-.5229.312-.2085.5127-.2085c.2051,0,.3794.0693.5229.2085s.2153.3135.2153.5229c0,.2007-.0718.3716-.2153.5127s-.3179.2119-.5229.2119ZM575.8751,126.3014h-1.1211v-7h1.1211v7Z" fill="#2f2f2f"/>
        <path d="M584.0187,125.7408c0,2.5703-1.2305,3.8555-3.6914,3.8555-.8657,0-1.6226-.1641-2.2695-.4922v-1.1211c.7886.4375,1.5405.6562,2.2559.6562,1.7227,0,2.584-.916,2.584-2.748v-.7656h-.0273c-.5332.8931-1.3354,1.3398-2.4062,1.3398-.8706,0-1.5713-.311-2.1021-.9331s-.7964-1.457-.7964-2.5054c0-1.1895.2861-2.1353.8579-2.8369s1.3545-1.0527,2.3481-1.0527c.9434,0,1.6431.3784,2.0986,1.1348h.0273v-.9707h1.1211v6.4395ZM582.8976,123.1363v-1.0322c0-.5562-.188-1.0322-.564-1.4287s-.8442-.5947-1.4048-.5947c-.6929,0-1.2349.252-1.627.7554s-.5879,1.209-.5879,2.1157c0,.7793.188,1.4023.564,1.8696s.874.7007,1.4937.7007c.6289,0,1.1406-.2231,1.5347-.6699s.5913-1.0186.5913-1.7158Z" fill="#2f2f2f"/>
        <path d="M591.8473,126.3014h-1.1211v-1.1074h-.0273c-.4648.8477-1.1851,1.2715-2.1602,1.2715-1.668,0-2.502-.9937-2.502-2.9805v-4.1836h1.1143v4.0059c0,1.4766.5649,2.2148,1.6953,2.2148.5469,0,.9971-.2017,1.3501-.605s.5298-.9307.5298-1.5825v-4.0332h1.1211v7Z" fill="#2f2f2f"/>
        <path d="M597.6051,120.4361c-.1958-.1504-.4785-.2256-.8477-.2256-.4785,0-.8784.2256-1.1997.6768s-.4819,1.0664-.4819,1.8457v3.5684h-1.1211v-7h1.1211v1.4424h.0273c.1597-.4922.4033-.876.7314-1.1519s.6948-.4136,1.1006-.4136c.2915,0,.5151.0317.6699.0957v1.1621Z" fill="#2f2f2f"/>
        <path d="M603.7809,126.3014h-1.1211v-1.0938h-.0273c-.4878.8384-1.2056,1.2578-2.1533,1.2578-.6973,0-1.2432-.1846-1.6372-.5537s-.5913-.8589-.5913-1.4697c0-1.3081.77-2.0688,2.3105-2.2832l2.0986-.2939c0-1.1895-.481-1.7842-1.4424-1.7842-.8433,0-1.604.2871-2.2832.8613v-1.1484c.688-.4375,1.481-.6562,2.3789-.6562,1.645,0,2.4678.8706,2.4678,2.6113v4.5527ZM602.6598,122.7604l-1.6885.2324c-.5195.0728-.9116.2017-1.1758.3862s-.3965.5117-.3965.981c0,.3418.1221.6211.3657.8374s.5684.3247.9741.3247c.5562,0,1.0151-.1948,1.3774-.5845s.5435-.8828.5435-1.48v-.6973Z" fill="#2f2f2f"/>
        <path d="M609.0392,126.233c-.2642.146-.6128.2188-1.0459.2188-1.2261,0-1.8389-.6836-1.8389-2.0508v-4.1426h-1.2031v-.957h1.2031v-1.709l1.1211-.3623v2.0713h1.7637v.957h-1.7637v3.9443c0,.4692.0796.8042.2393,1.0049s.4238.3008.793.3008c.2827,0,.5264-.0776.7314-.2324v.957Z" fill="#2f2f2f"/>
        <path d="M610.9942,117.524c-.2007,0-.3716-.0684-.5127-.2051s-.2119-.3101-.2119-.5195.0708-.3838.2119-.5229.312-.2085.5127-.2085c.2051,0,.3794.0693.5229.2085s.2153.3135.2153.5229c0,.2007-.0718.3716-.2153.5127s-.3179.2119-.5229.2119ZM611.5411,126.3014h-1.1211v-7h1.1211v7Z" fill="#2f2f2f"/>
        <path d="M616.6358,126.4654c-1.0347,0-1.8604-.3271-2.478-.981s-.9263-1.521-.9263-2.6011c0-1.1758.3213-2.0942.9639-2.7549s1.5107-.9912,2.6045-.9912c1.0435,0,1.8584.3213,2.4438.9639s.8784,1.5337.8784,2.6729c0,1.1167-.3154,2.0107-.9468,2.6831s-1.4775,1.0083-2.5396,1.0083ZM616.7179,120.0807c-.7202,0-1.2896.2451-1.709.7349s-.6289,1.1655-.6289,2.0269c0,.8296.2119,1.4834.6357,1.9619s.9912.7178,1.7021.7178c.7246,0,1.2817-.2349,1.6714-.7041s.5845-1.1372.5845-2.0029c0-.875-.1948-1.5493-.5845-2.0234s-.9468-.7109-1.6714-.7109Z" fill="#2f2f2f"/>
        <path d="M627.648,126.3014h-1.1211v-3.9922c0-1.4858-.5425-2.2285-1.627-2.2285-.5605,0-1.0244.2109-1.3911.6323s-.5503.9536-.5503,1.5962v3.9922h-1.1211v-7h1.1211v1.1621h.0273c.5288-.8843,1.2944-1.3262,2.2969-1.3262.7656,0,1.3511.2471,1.7568.7417s.6084,1.209.6084,2.1431v4.2793Z" fill="#2f2f2f"/>
      </g>
      <g>
        <rect x="246.4" y="211.2" width="506" height="19.2376" fill="none"/>
        <path d="M459.1085,223.1012v-9.8027h2.7891c.8477,0,1.52.2075,2.0166.6221s.7451.9546.7451,1.6201c0,.5562-.1504,1.0391-.4512,1.4492s-.7153.7017-1.2441.875v.0273c.6606.0776,1.1895.3271,1.5859.7485s.5947.9697.5947,1.644c0,.8384-.3008,1.5176-.9023,2.0371s-1.3604.7793-2.2764.7793h-2.8574ZM460.2569,214.3375v3.165h1.1758c.6289,0,1.1235-.1514,1.4834-.4546s.54-.7305.54-1.2817c0-.9526-.6265-1.4287-1.8799-1.4287h-1.3193ZM460.2569,218.5348v3.5273h1.5586c.6743,0,1.1973-.1597,1.5688-.4785s.5571-.7563.5571-1.3125c0-1.1577-.7886-1.7363-2.3652-1.7363h-1.3193Z" fill="#2f2f2f"/>
        <path d="M471.9522,223.1012h-1.1211v-1.0938h-.0273c-.4878.8384-1.2056,1.2578-2.1533,1.2578-.6973,0-1.2432-.1846-1.6372-.5537s-.5913-.8589-.5913-1.4697c0-1.3081.77-2.0688,2.3105-2.2832l2.0986-.2939c0-1.1895-.481-1.7842-1.4424-1.7842-.8433,0-1.604.2871-2.2832.8613v-1.1484c.688-.4375,1.481-.6562,2.3789-.6562,1.645,0,2.4678.8706,2.4678,2.6113v4.5527ZM470.8312,219.5602l-1.6885.2324c-.5195.0728-.9116.2017-1.1758.3862s-.3965.5117-.3965.981c0,.3418.1221.6211.3657.8374s.5684.3247.9741.3247c.5562,0,1.0151-.1948,1.3774-.5845s.5435-.8828.5435-1.48v-.6973Z" fill="#2f2f2f"/>
        <path d="M478.794,222.7799c-.5376.3237-1.1758.4854-1.9141.4854-.998,0-1.8037-.3247-2.4165-.9741s-.9194-1.4912-.9194-2.5259c0-1.1528.3306-2.0791.9912-2.7788s1.5425-1.0493,2.6455-1.0493c.6152,0,1.1577.1138,1.627.3418v1.1484c-.5195-.3647-1.0757-.5469-1.668-.5469-.7153,0-1.3022.2563-1.7603.769s-.687,1.186-.687,2.02c0,.8203.2153,1.4673.646,1.9414s1.0083.7109,1.7329.7109c.6108,0,1.1851-.2026,1.7227-.6084v1.0664Z" fill="#2f2f2f"/>
        <path d="M486.0929,223.1012h-1.5723l-3.0898-3.3633h-.0273v3.3633h-1.1211v-10.3633h1.1211v6.5693h.0273l2.9395-3.2061h1.4697l-3.2471,3.377,3.5,3.623Z" fill="#2f2f2f"/>
        <path d="M492.5172,219.8814h-4.9424c.0181.7793.228,1.3809.6289,1.8047s.9526.6357,1.6543.6357c.7886,0,1.5132-.2598,2.1738-.7793v1.0527c-.6152.4468-1.4287.6699-2.4404.6699-.9888,0-1.7661-.3179-2.3311-.9536s-.8477-1.5303-.8477-2.6831c0-1.0894.3086-1.9766.9263-2.6626s1.3843-1.0288,2.3003-1.0288,1.6245.2964,2.126.8887.752,1.415.752,2.4678v.5879ZM491.3687,218.9312c-.0044-.647-.1606-1.1509-.4683-1.5107s-.7349-.54-1.2817-.54c-.5288,0-.9775.189-1.3467.5674s-.5972.8726-.6836,1.4834h3.7803Z" fill="#2f2f2f"/>
        <path d="M500.0104,223.1012h-1.1211v-3.9922c0-1.4858-.5425-2.2285-1.627-2.2285-.5605,0-1.0244.2109-1.3911.6323s-.5503.9536-.5503,1.5962v3.9922h-1.1211v-7h1.1211v1.1621h.0273c.5288-.8843,1.2944-1.3262,2.2969-1.3262.7656,0,1.3511.2471,1.7568.7417s.6084,1.209.6084,2.1431v4.2793Z" fill="#2f2f2f"/>
        <path d="M508.0846,223.1012h-1.1211v-1.1895h-.0273c-.5195.9023-1.3218,1.3535-2.4062,1.3535-.8794,0-1.5825-.3135-2.1089-.9399s-.7896-1.48-.7896-2.5601c0-1.1577.2915-2.085.875-2.7822s1.3604-1.0459,2.3311-1.0459c.9614,0,1.6611.3784,2.0986,1.1348h.0273v-4.334h1.1211v10.3633ZM506.9635,219.9361v-1.0322c0-.5649-.187-1.0435-.5605-1.4355s-.8477-.5879-1.4219-.5879c-.6836,0-1.2212.2505-1.6133.752s-.5879,1.1938-.5879,2.0781c0,.8066.188,1.4434.564,1.9106s.8809.7007,1.5142.7007c.6245,0,1.1313-.2256,1.521-.6768s.5845-1.021.5845-1.709Z" fill="#2f2f2f"/>
        <path d="M515.3375,222.0895h-.0273v4.2314h-1.1211v-10.2197h1.1211v1.2305h.0273c.5513-.9297,1.3579-1.3945,2.4199-1.3945.9023,0,1.6064.3135,2.1123.9399s.7588,1.4663.7588,2.519c0,1.1714-.2847,2.1089-.8545,2.813s-1.3491,1.0562-2.3379,1.0562c-.9067,0-1.6064-.3921-2.0986-1.1758ZM515.3102,219.2662v.9775c0,.5786.188,1.0698.564,1.4731s.8535.605,1.4321.605c.6792,0,1.2109-.2598,1.5962-.7793s.5776-1.2417.5776-2.167c0-.7793-.1802-1.3901-.54-1.832s-.8477-.6631-1.4629-.6631c-.6519,0-1.1758.2266-1.5723.6802s-.5947,1.022-.5947,1.7056Z" fill="#2f2f2f"/>
        <path d="M525.3341,223.2652c-1.0347,0-1.8604-.3271-2.478-.981s-.9263-1.521-.9263-2.6011c0-1.1758.3213-2.0942.9639-2.7549s1.5107-.9912,2.6045-.9912c1.0435,0,1.8584.3213,2.4438.9639s.8784,1.5337.8784,2.6729c0,1.1167-.3154,2.0107-.9468,2.6831s-1.4775,1.0083-2.5396,1.0083ZM525.4161,216.8805c-.7202,0-1.2896.2451-1.709.7349s-.6289,1.1655-.6289,2.0269c0,.8296.2119,1.4834.6357,1.9619s.9912.7178,1.7021.7178c.7246,0,1.2817-.2349,1.6714-.7041s.5845-1.1372.5845-2.0029c0-.875-.1948-1.5493-.5845-2.0234s-.9468-.7109-1.6714-.7109Z" fill="#2f2f2f"/>
        <path d="M533.526,223.2652c-1.0347,0-1.8604-.3271-2.478-.981s-.9263-1.521-.9263-2.6011c0-1.1758.3213-2.0942.9639-2.7549s1.5107-.9912,2.6045-.9912c1.0435,0,1.8584.3213,2.4438.9639s.8784,1.5337.8784,2.6729c0,1.1167-.3154,2.0107-.9468,2.6831s-1.4775,1.0083-2.5396,1.0083ZM533.608,216.8805c-.7202,0-1.2896.2451-1.709.7349s-.6289,1.1655-.6289,2.0269c0,.8296.2119,1.4834.6357,1.9619s.9912.7178,1.7021.7178c.7246,0,1.2817-.2349,1.6714-.7041s.5845-1.1372.5845-2.0029c0-.875-.1948-1.5493-.5845-2.0234s-.9468-.7109-1.6714-.7109Z" fill="#2f2f2f"/>
        <path d="M539.8419,223.1012h-1.1211v-10.3633h1.1211v10.3633Z" fill="#2f2f2f"/>
      </g>
      <g>
        <path d="M447.8614,31.9425h-2.4062l-.6973-2.1807h-3.4863l-.6904,2.1807h-2.3926l3.5684-9.8027h2.6182l3.4863,9.8027ZM444.2521,28.0665l-1.0527-3.2949c-.0776-.2461-.1323-.54-.1641-.8818h-.0547c-.0229.2871-.0796.5718-.1709.8545l-1.0664,3.3223h2.5088Z" fill="#2f2f2f"/>
        <path d="M455.2262,24.9425l-2.6045,7h-2.4609l-2.4814-7h2.3105l1.2168,4.3135c.1367.4878.2163.9023.2393,1.2441h.0273c.0317-.3237.1162-.7246.2529-1.2031l1.2441-4.3545h2.2559Z" fill="#2f2f2f"/>
        <path d="M461.8819,31.9425h-2.0439v-1.0049h-.0273c-.4692.7837-1.1646,1.1758-2.085,1.1758-.6792,0-1.2134-.1924-1.603-.5776s-.5845-.8989-.5845-1.5415c0-1.3579.8042-2.1421,2.4131-2.3516l1.9004-.2529c0-.7656-.4146-1.1484-1.2441-1.1484-.834,0-1.627.2485-2.3789.7451v-1.627c.3008-.1548.7119-.2915,1.2339-.4102s.9971-.1777,1.4253-.1777c1.9961,0,2.9941.9956,2.9941,2.9873v4.1836ZM459.8517,29.0987v-.4717l-1.2715.1641c-.7017.0913-1.0527.4077-1.0527.9502,0,.2461.0854.4478.2563.605s.4023.2358.6938.2358c.4058,0,.7358-.1401.9912-.4204s.3828-.6348.3828-1.063Z" fill="#2f2f2f"/>
        <path d="M464.6524,23.8351c-.3647,0-.6631-.1084-.8955-.3247s-.3486-.4819-.3486-.7964c0-.3237.1162-.5879.3486-.793s.5308-.3076.8955-.3076c.3691,0,.6689.1025.8989.3076s.3452.4692.3452.793c0,.3281-.1152.5972-.3452.8066s-.5298.3145-.8989.3145ZM465.7188,31.9425h-2.1602v-7h2.1602v7Z" fill="#2f2f2f"/>
        <path d="M469.6539,31.9425h-2.1602v-10.3633h2.1602v10.3633Z" fill="#2f2f2f"/>
        <path d="M477.3189,31.9425h-2.0439v-1.0049h-.0273c-.4692.7837-1.1646,1.1758-2.085,1.1758-.6792,0-1.2134-.1924-1.603-.5776s-.5845-.8989-.5845-1.5415c0-1.3579.8042-2.1421,2.4131-2.3516l1.9004-.2529c0-.7656-.4146-1.1484-1.2441-1.1484-.834,0-1.627.2485-2.3789.7451v-1.627c.3008-.1548.7119-.2915,1.2339-.4102s.9971-.1777,1.4253-.1777c1.9961,0,2.9941.9956,2.9941,2.9873v4.1836ZM475.2887,29.0987v-.4717l-1.2715.1641c-.7017.0913-1.0527.4077-1.0527.9502,0,.2461.0854.4478.2563.605s.4023.2358.6938.2358c.4058,0,.7358-.1401.9912-.4204s.3828-.6348.3828-1.063Z" fill="#2f2f2f"/>
        <path d="M481.2027,31.129h-.0273v.8135h-2.1602v-10.3633h2.1602v4.416h.0273c.5332-.8159,1.292-1.2236,2.2764-1.2236.9023,0,1.5972.3101,2.085.9297s.7314,1.4673.7314,2.543c0,1.1665-.2847,2.103-.8545,2.8096s-1.3306,1.0596-2.2832,1.0596c-.8613,0-1.5132-.3281-1.9551-.9844ZM481.1412,28.1759v.7178c0,.4512.1299.8247.3896,1.1211s.5923.4443.998.4443c.4922,0,.874-.1904,1.145-.5708s.4067-.9194.4067-1.6167c0-.5786-.124-1.0312-.3726-1.3569s-.6025-.4888-1.063-.4888c-.4331,0-.792.1616-1.0767.4854s-.4272.7451-.4272,1.2646Z" fill="#2f2f2f"/>
        <path d="M488.7906,23.8351c-.3647,0-.6631-.1084-.8955-.3247s-.3486-.4819-.3486-.7964c0-.3237.1162-.5879.3486-.793s.5308-.3076.8955-.3076c.3691,0,.6689.1025.8989.3076s.3452.4692.3452.793c0,.3281-.1152.5972-.3452.8066s-.5298.3145-.8989.3145ZM489.857,31.9425h-2.1602v-7h2.1602v7Z" fill="#2f2f2f"/>
        <path d="M493.7926,31.9425h-2.1602v-10.3633h2.1602v10.3633Z" fill="#2f2f2f"/>
        <path d="M496.6612,23.8351c-.3647,0-.6631-.1084-.8955-.3247s-.3486-.4819-.3486-.7964c0-.3237.1162-.5879.3486-.793s.5308-.3076.8955-.3076c.3691,0,.6689.1025.8989.3076s.3452.4692.3452.793c0,.3281-.1152.5972-.3452.8066s-.5298.3145-.8989.3145ZM497.7276,31.9425h-2.1602v-7h2.1602v7Z" fill="#2f2f2f"/>
        <path d="M503.6637,31.8604c-.3188.1685-.7998.2529-1.4424.2529-1.522,0-2.2832-.7905-2.2832-2.3721v-3.2061h-1.1348v-1.5928h1.1348v-1.5107l2.1533-.6152v2.126h1.5723v1.5928h-1.5723v2.8301c0,.729.2896,1.0938.8682,1.0938.228,0,.4624-.0659.7041-.1982v1.5996Z" fill="#2f2f2f"/>
        <path d="M511.8888,24.9425l-2.8438,7.5605c-.6836,1.8184-1.7134,2.7275-3.0898,2.7275-.5239,0-.9546-.0591-1.292-.1777v-1.7227c.2871.1685.5991.2529.9365.2529.5562,0,.9434-.2622,1.1621-.7861l.3691-.8682-2.8438-6.9863h2.3926l1.3057,4.2588c.082.2642.146.5767.1914.9365h.0273c.041-.2642.1162-.5718.2256-.9229l1.3193-4.2725h2.1396Z" fill="#2f2f2f"/>
        <path d="M523.8858,31.9425h-7.8955v-1.2715l5.0244-6.7334h-4.6621v-1.7979h7.5195v1.2373l-4.915,6.7744h4.9287v1.791Z" fill="#2f2f2f"/>
        <path d="M528.4044,32.1134c-1.1665,0-2.084-.3271-2.7515-.981s-1.0015-1.5415-1.0015-2.6626c0-1.1577.3462-2.0635,1.0391-2.7173s1.6294-.981,2.8096-.981c1.1621,0,2.0737.3271,2.7344.981s.9912,1.5186.9912,2.5942c0,1.1621-.3408,2.0806-1.022,2.7549s-1.6143,1.0117-2.7993,1.0117ZM528.4591,26.4259c-.5103,0-.9067.1753-1.1895.5264s-.4238.8477-.4238,1.4902c0,1.3442.5425,2.0166,1.627,2.0166,1.0347,0,1.5518-.6904,1.5518-2.0713,0-1.3081-.522-1.9619-1.5654-1.9619Z" fill="#2f2f2f"/>
        <path d="M540.3668,31.9425h-2.1533v-3.8896c0-1.0845-.3872-1.627-1.1621-1.627-.3735,0-.6812.1436-.9229.4307s-.3623.6519-.3623,1.0938v3.9922h-2.1602v-7h2.1602v1.1074h.0273c.5151-.8521,1.2646-1.2783,2.249-1.2783,1.5493,0,2.3242.9614,2.3242,2.8848v4.2861Z" fill="#2f2f2f"/>
        <path d="M548.3888,29.0577h-4.5664c.0728,1.0161.7134,1.5244,1.9209,1.5244.77,0,1.4468-.1821,2.0303-.5469v1.5586c-.647.3462-1.4878.5195-2.5225.5195-1.1304,0-2.0073-.3135-2.6318-.9399s-.9365-1.5005-.9365-2.6216c0-1.1621.3374-2.0825,1.0117-2.7617s1.5039-1.0186,2.4883-1.0186c1.021,0,1.8105.3032,2.3687.9092s.8374,1.4287.8374,2.4678v.9092ZM546.3858,27.7315c0-1.0024-.4058-1.5039-1.2168-1.5039-.3462,0-.646.1436-.8989.4307s-.4067.645-.4614,1.0732h2.5771Z" fill="#2f2f2f"/>
        <path d="M555.5597,30.1515h4.1562v1.791h-6.5215v-.7383c0-.5015.0845-.9512.2529-1.3501s.3804-.7563.6357-1.0732.5342-.5972.8374-.8408.5913-.4639.8647-.6597c.2871-.2051.5391-.4009.7554-.5879s.3989-.3726.5469-.5571.2588-.3716.3315-.5605.1094-.3906.1094-.605c0-.4194-.1187-.7358-.3555-.9502s-.5991-.3213-1.0869-.3213c-.8433,0-1.6499.335-2.4199,1.0049v-1.9004c.8521-.5513,1.814-.8271,2.8848-.8271.4966,0,.9424.0649,1.3364.1948s.728.3154,1.0015.5571.4819.5342.6255.8784.2153.728.2153,1.1519c0,.4512-.0693.8521-.2085,1.2031s-.3237.6699-.5537.957-.4956.5503-.7964.7896-.6128.4707-.9365.6938c-.2188.1548-.4297.3086-.6323.4614s-.3818.3032-.5366.4512-.2778.293-.3691.4341-.1367.2759-.1367.4033Z" fill="#2f2f2f"/>
      </g>
      <g>
        <path d="M689.8619,31.9425h-2.4062l-.6973-2.1807h-3.4863l-.6904,2.1807h-2.3926l3.5684-9.8027h2.6182l3.4863,9.8027ZM686.2525,28.0665l-1.0527-3.2949c-.0781-.2461-.1328-.54-.1641-.8818h-.0547c-.0234.2871-.0801.5718-.1709.8545l-1.0664,3.3223h2.5088Z" fill="#2f2f2f"/>
        <path d="M697.2262,24.9425l-2.6045,7h-2.4609l-2.4814-7h2.3105l1.2168,4.3135c.1367.4878.2168.9023.2393,1.2441h.0273c.0322-.3237.1162-.7246.2529-1.2031l1.2441-4.3545h2.2559Z" fill="#2f2f2f"/>
        <path d="M703.8824,31.9425h-2.0439v-1.0049h-.0273c-.4697.7837-1.165,1.1758-2.085,1.1758-.6797,0-1.2139-.1924-1.6035-.5776s-.584-.8989-.584-1.5415c0-1.3579.8037-2.1421,2.4131-2.3516l1.9004-.2529c0-.7656-.415-1.1484-1.2441-1.1484-.834,0-1.627.2485-2.3789.7451v-1.627c.3008-.1548.7119-.2915,1.2334-.4102.5225-.1187.9971-.1777,1.4258-.1777,1.9961,0,2.9941.9956,2.9941,2.9873v4.1836ZM701.8521,29.0987v-.4717l-1.2715.1641c-.7021.0913-1.0527.4077-1.0527.9502,0,.2461.085.4478.2559.605s.4023.2358.6943.2358c.4053,0,.7354-.1401.9912-.4204.2549-.2803.3828-.6348.3828-1.063Z" fill="#2f2f2f"/>
        <path d="M706.6529,23.8351c-.3652,0-.6631-.1084-.8955-.3247s-.3486-.4819-.3486-.7964c0-.3237.1162-.5879.3486-.793s.5303-.3076.8955-.3076c.3691,0,.6689.1025.8984.3076.2305.2051.3457.4692.3457.793,0,.3281-.1152.5972-.3457.8066-.2295.2095-.5293.3145-.8984.3145ZM707.7193,31.9425h-2.1602v-7h2.1602v7Z" fill="#2f2f2f"/>
        <path d="M711.6539,31.9425h-2.1602v-10.3633h2.1602v10.3633Z" fill="#2f2f2f"/>
        <path d="M719.3189,31.9425h-2.0439v-1.0049h-.0273c-.4688.7837-1.1641,1.1758-2.085,1.1758-.6787,0-1.2129-.1924-1.6025-.5776s-.585-.8989-.585-1.5415c0-1.3579.8047-2.1421,2.4131-2.3516l1.9004-.2529c0-.7656-.4141-1.1484-1.2441-1.1484-.834,0-1.627.2485-2.3789.7451v-1.627c.3008-.1548.7119-.2915,1.2344-.4102.5215-.1187.9971-.1777,1.4248-.1777,1.9961,0,2.9941.9956,2.9941,2.9873v4.1836ZM717.2887,29.0987v-.4717l-1.2715.1641c-.7012.0913-1.0527.4077-1.0527.9502,0,.2461.0859.4478.2568.605s.4023.2358.6934.2358c.4062,0,.7363-.1401.9912-.4204.2559-.2803.3828-.6348.3828-1.063Z" fill="#2f2f2f"/>
        <path d="M723.2027,31.129h-.0273v.8135h-2.1602v-10.3633h2.1602v4.416h.0273c.5332-.8159,1.292-1.2236,2.2764-1.2236.9023,0,1.5977.3101,2.085.9297.4883.6196.7314,1.4673.7314,2.543,0,1.1665-.2842,2.103-.8545,2.8096-.5693.7065-1.3301,1.0596-2.2832,1.0596-.8613,0-1.5127-.3281-1.9551-.9844ZM723.1412,28.1759v.7178c0,.4512.1299.8247.3896,1.1211s.5928.4443.998.4443c.4922,0,.874-.1904,1.1455-.5708.2705-.3804.4062-.9194.4062-1.6167,0-.5786-.124-1.0312-.3721-1.3569-.249-.3257-.6025-.4888-1.0635-.4888-.4326,0-.792.1616-1.0762.4854-.2852.3237-.4277.7451-.4277,1.2646Z" fill="#2f2f2f"/>
        <path d="M730.7906,23.8351c-.3643,0-.6631-.1084-.8955-.3247s-.3486-.4819-.3486-.7964c0-.3237.1162-.5879.3486-.793s.5312-.3076.8955-.3076c.3691,0,.6689.1025.8994.3076.2295.2051.3447.4692.3447.793,0,.3281-.1152.5972-.3447.8066-.2305.2095-.5303.3145-.8994.3145ZM731.857,31.9425h-2.1602v-7h2.1602v7Z" fill="#2f2f2f"/>
        <path d="M735.7926,31.9425h-2.1602v-10.3633h2.1602v10.3633Z" fill="#2f2f2f"/>
        <path d="M738.6617,23.8351c-.3652,0-.6631-.1084-.8955-.3247s-.3486-.4819-.3486-.7964c0-.3237.1162-.5879.3486-.793s.5303-.3076.8955-.3076c.3691,0,.6689.1025.8984.3076.2305.2051.3457.4692.3457.793,0,.3281-.1152.5972-.3457.8066-.2295.2095-.5293.3145-.8984.3145ZM739.7281,31.9425h-2.1602v-7h2.1602v7Z" fill="#2f2f2f"/>
        <path d="M745.6637,31.8604c-.3184.1685-.7998.2529-1.4424.2529-1.5215,0-2.2832-.7905-2.2832-2.3721v-3.2061h-1.1348v-1.5928h1.1348v-1.5107l2.1533-.6152v2.126h1.5723v1.5928h-1.5723v2.8301c0,.729.29,1.0938.8682,1.0938.2285,0,.4629-.0659.7041-.1982v1.5996Z" fill="#2f2f2f"/>
        <path d="M753.8893,24.9425l-2.8438,7.5605c-.6836,1.8184-1.7139,2.7275-3.0898,2.7275-.5244,0-.9551-.0591-1.292-.1777v-1.7227c.2871.1685.5986.2529.9365.2529.5557,0,.9434-.2622,1.1621-.7861l.3691-.8682-2.8438-6.9863h2.3926l1.3057,4.2588c.082.2642.1455.5767.1914.9365h.0273c.041-.2642.1162-.5718.2256-.9229l1.3193-4.2725h2.1396Z" fill="#2f2f2f"/>
        <path d="M765.8863,31.9425h-7.8955v-1.2715l5.0244-6.7334h-4.6621v-1.7979h7.5195v1.2373l-4.915,6.7744h4.9287v1.791Z" fill="#2f2f2f"/>
        <path d="M770.4049,32.1134c-1.167,0-2.084-.3271-2.752-.981-.667-.6538-1.001-1.5415-1.001-2.6626,0-1.1577.3457-2.0635,1.0391-2.7173.6924-.6538,1.6289-.981,2.8096-.981,1.1621,0,2.0732.3271,2.7344.981.6602.6538.9912,1.5186.9912,2.5942,0,1.1621-.3408,2.0806-1.0225,2.7549-.6807.6743-1.6143,1.0117-2.7988,1.0117ZM770.4596,26.4259c-.5107,0-.9072.1753-1.1895.5264-.2832.3511-.4238.8477-.4238,1.4902,0,1.3442.542,2.0166,1.627,2.0166,1.0342,0,1.5518-.6904,1.5518-2.0713,0-1.3081-.5225-1.9619-1.5654-1.9619Z" fill="#2f2f2f"/>
        <path d="M782.3668,31.9425h-2.1533v-3.8896c0-1.0845-.3867-1.627-1.1621-1.627-.373,0-.6807.1436-.9229.4307-.2412.2871-.3623.6519-.3623,1.0938v3.9922h-2.1602v-7h2.1602v1.1074h.0273c.5156-.8521,1.2646-1.2783,2.249-1.2783,1.5498,0,2.3242.9614,2.3242,2.8848v4.2861Z" fill="#2f2f2f"/>
        <path d="M790.3893,29.0577h-4.5664c.0723,1.0161.7129,1.5244,1.9209,1.5244.7695,0,1.4463-.1821,2.0303-.5469v1.5586c-.6475.3462-1.4883.5195-2.5225.5195-1.1309,0-2.0078-.3135-2.6318-.9399-.625-.6265-.9365-1.5005-.9365-2.6216,0-1.1621.3369-2.0825,1.0117-2.7617.6738-.6792,1.5039-1.0186,2.4883-1.0186,1.0205,0,1.8105.3032,2.3682.9092.5586.606.8379,1.4287.8379,2.4678v.9092ZM788.3863,27.7315c0-1.0024-.4062-1.5039-1.2168-1.5039-.3467,0-.6465.1436-.8994.4307s-.4062.645-.4609,1.0732h2.5771Z" fill="#2f2f2f"/>
        <path d="M795.4273,31.6212v-1.8799c.6562.4785,1.4219.7178,2.2969.7178.5508,0,.9805-.1187,1.2881-.3555s.4619-.5674.4619-.9912c0-.4375-.1904-.7749-.5713-1.0117-.3799-.2368-.9033-.3555-1.5684-.3555h-.9092v-1.6543h.8408c1.2754,0,1.9141-.4238,1.9141-1.2715,0-.7974-.4902-1.1963-1.4697-1.1963-.6562,0-1.2949.2119-1.9141.6357v-1.7637c.6875-.3462,1.4902-.5195,2.4062-.5195,1.002,0,1.7832.2256,2.3408.6768.5586.4512.8379,1.0366.8379,1.7568,0,1.2808-.6494,2.0825-1.9482,2.4062v.0342c.6924.0864,1.2393.3384,1.6406.7554.4004.417.6016.9287.6016,1.5347,0,.916-.335,1.6406-1.0049,2.1738s-1.5957.7998-2.7754.7998c-1.0117,0-1.835-.1641-2.4678-.4922Z" fill="#2f2f2f"/>
      </g>
    </g>
  </g>
</svg>