<?xml version="1.0" encoding="UTF-8" standalone="no"?>
<!DOCTYPE svg PUBLIC "-//W3C//DTD SVG 1.1//EN" "http://www.w3.org/Graphics/SVG/1.1/DTD/svg11.dtd">
<!-- Generated by Microsoft Visio, SVG Export bastion-instances-zones.svg Single region AZ Setup -->
<svg xmlns="http://www.w3.org/2000/svg" xmlns:xlink="http://www.w3.org/1999/xlink" xmlns:ev="http://www.w3.org/2001/xml-events"
		xmlns:v="http://schemas.microsoft.com/visio/2003/SVGExtensions/" width="11.8333in" height="4.44444in" viewBox="0 0 852 320"
		xml:space="preserve" color-interpolation-filters="sRGB" class="st17">
	<v:documentProperties v:langID="2052" v:metric="true" v:viewMarkup="false">
		<v:userDefs>
			<v:ud v:nameU="msvSubprocessMaster" v:prompt="" v:val="VT4(Rectangle)"/>
			<v:ud v:nameU="msvNoAutoConnect" v:val="VT0(1):26"/>
			<v:ud v:nameU="visExportToWordPreferences"
					v:val="VT4(ConnectorsInclusion:0;DGsInclusion:1;EmptyMetadataInclusion:1;EmptyShapesInclusion:0;HyperlinkInclusion:0;SnippetTransparency:30;)"/>
		</v:userDefs>
	</v:documentProperties>

	<style type="text/css">
	<![CDATA[
		.st1 {fill:#ffffff;stroke:#c7c8c8;stroke-width:0.25}
		.st2 {fill:#ffffff;stroke:#4472c4;stroke-dasharray:3.5,2.5;stroke-width:0.5}
		.st3 {fill:none;stroke:none;stroke-width:0.5}
		.st4 {fill:#000000;font-family:Segoe UI;font-size:1.16666em;font-weight:bold}
		.st5 {font-size:1em}
		.st6 {fill:#ffffff;stroke:#000000;stroke-dasharray:3.5,2.5;stroke-width:0.5}
		.st7 {fill:#ecf3fb;stroke:none;stroke-width:0.5}
		.st8 {fill:#83b9f9;stroke:none;stroke-linecap:butt;stroke-width:0.75}
		.st9 {fill:url(#grad0-37);stroke:none;stroke-linecap:butt;stroke-width:0.75}
		.st10 {fill:url(#grad0-43);stroke:none;stroke-linecap:butt;stroke-width:0.75}
		.st11 {fill:#ffffff;stroke:#c8c8c8;stroke-width:0.5}
		.st12 {fill:none;stroke:none;stroke-width:1.5}
		.st13 {fill:#000000;font-family:Segoe UI;font-size:1.16666em}
		.st14 {fill:#e8f8fd;stroke:#c7c8c8;stroke-width:0.25}
		.st15 {fill:#a4e1f9;stroke:#c7c8c8;stroke-width:0.25}
		.st16 {fill:#d5f1fc;stroke:#c7c8c8;stroke-width:0.25}
		.st17 {fill:none;fill-rule:evenodd;font-size:12px;overflow:visible;stroke-linecap:square;stroke-miterlimit:3}
	]]>
	</style>

	<defs id="Patterns_And_Gradients">
		<linearGradient id="grad0-37" x1="0" y1="0" x2="1" y2="0" gradientTransform="rotate(45.081 0.5 0.5)">
			<stop offset="0" stop-color="#5ea0ef" stop-opacity="1"/>
			<stop offset="1" stop-color="#0078d4" stop-opacity="1"/>
		</linearGradient>
		<linearGradient id="grad0-43" x1="0" y1="0" x2="1" y2="0" gradientTransform="rotate(-45.081 0.5 0.5)">
			<stop offset="0" stop-color="#5ea0ef" stop-opacity="1"/>
			<stop offset="1" stop-color="#0078d4" stop-opacity="1"/>
		</linearGradient>
	</defs>
	<g v:mID="12" v:index="1" v:groupContext="foregroundPage">
		<v:userDefs>
			<v:ud v:nameU="msvThemeOrder" v:val="VT0(0):26"/>
			<v:ud v:nameU="visNavType" v:val="VT0(1):26"/>
		</v:userDefs>
		<title>Single region AZ Setup</title>
		<v:pageProperties v:drawingScale="0.0138889" v:pageScale="0.0138889" v:drawingUnits="29" v:shadowOffsetX="8.50394"
				v:shadowOffsetY="-8.50394"/>
		<v:layer v:name="Flowchart" v:index="0"/>
		<v:layer v:name="Connector" v:index="1"/>
		<g id="shape70-1" v:mID="70" v:groupContext="shape" transform="translate(8.83032E-06,-0.0244957)">
			<title>矩形</title>
			<v:userDefs>
				<v:ud v:nameU="visVersion" v:val="VT0(15):26"/>
				<v:ud v:nameU="visNavOrder" v:val="VT0(23000):26"/>
			</v:userDefs>
			<rect x="0" y="7.82502E-06" width="855" height="320" class="st1"/>
		</g>
		<g id="group71-3" transform="translate(19.0489,-40.9021)" v:mID="71" v:groupContext="group">
			<v:userDefs>
				<v:ud v:nameU="visNavOrder" v:val="VT0(24000):26"/>
			</v:userDefs>
			<title>Sheet.71</title>
			<g id="shape1-4" v:mID="1" v:groupContext="shape" transform="translate(320,102.307) rotate(90)">
				<title>圆角矩形.860</title>
				<v:userDefs>
					<v:ud v:nameU="CTypeTopLeftSnip" v:prompt="" v:val="VT0(0):5"/>
					<v:ud v:nameU="CTypeTopRightSnip" v:prompt="" v:val="VT0(0):5"/>
					<v:ud v:nameU="CTypeBotLeftSnip" v:prompt="" v:val="VT0(0):5"/>
					<v:ud v:nameU="CTypeBotRightSnip" v:prompt="" v:val="VT0(0):5"/>
					<v:ud v:nameU="CornerLockHoriz" v:prompt="" v:val="VT0(1):5"/>
					<v:ud v:nameU="CornerLockVert" v:prompt="" v:val="VT0(1):5"/>
					<v:ud v:nameU="CornerLockDiag" v:prompt="" v:val="VT0(0):5"/>
					<v:ud v:nameU="TopLeftOffset" v:prompt="" v:val="VT0(0.15748031496063):24"/>
					<v:ud v:nameU="TopRightOffset" v:prompt="" v:val="VT0(0.15748031496063):24"/>
					<v:ud v:nameU="BotLeftOffset" v:prompt="" v:val="VT0(0.15748031496063):24"/>
					<v:ud v:nameU="BotRightOffset" v:prompt="" v:val="VT0(0.15748031496063):24"/>
					<v:ud v:nameU="visVersion" v:prompt="" v:val="VT0(15):26"/>
					<v:ud v:nameU="TopLeftOffset" v:prompt="" v:val="VT0(0.075399200410844):1"/>
					<v:ud v:nameU="TopRightOffset" v:prompt="" v:val="VT0(0.075399200410844):1"/>
					<v:ud v:nameU="BotLeftOffset" v:prompt="" v:val="VT0(0.075399200410844):1"/>
					<v:ud v:nameU="BotRightOffset" v:prompt="" v:val="VT0(0.075399200410844):1"/>
					<v:ud v:nameU="visNavOrder" v:val="VT0(13000):26"/>
				</v:userDefs>
				<path d="M5.43 320 L212.26 320 A5.42865 5.42865 -180 0 0 217.69 314.57 L217.69 -488.47 A5.42865 5.42865 -180 0 0
							 212.26 -493.9 L5.43 -493.9 A5.42865 5.42865 -180 0 0 0 -488.47 L0 314.57 A5.42865 5.42865 -180 0 0 5.43
							 320 Z" class="st2"/>
			</g>
			<g id="shape2-6" v:mID="2" v:groupContext="shape" transform="translate(188.415,-166.572)">
				<title>Sheet.2</title>
				<desc>Zone 1</desc>
				<v:userDefs>
					<v:ud v:nameU="visNavOrder" v:prompt="" v:val="VT0(4000):26"/>
				</v:userDefs>
				<v:textBlock v:margins="rect(4,4,4,4)" v:tabSpace="42.5197"/>
				<v:textRect cx="93.0174" cy="303.286" width="186.04" height="33.4287"/>
				<rect x="0" y="286.571" width="186.035" height="33.4287" class="st3"/>
				<text x="4" y="307.49" class="st4" v:langID="1033"><v:paragraph v:bulletSize="0.166667"/><v:tabList/>Zone 1</text>			</g>
			<g id="shape3-9" v:mID="3" v:groupContext="shape" transform="translate(-6.39488E-14,-226.62)">
				<title>Sheet.3</title>
				<desc>Region</desc>
				<v:userDefs>
					<v:ud v:nameU="visNavOrder" v:prompt="" v:val="VT0(5000):26"/>
				</v:userDefs>
				<v:textBlock v:margins="rect(4,4,4,4)" v:tabSpace="42.5197"/>
				<v:textRect cx="93.0174" cy="303.286" width="186.04" height="33.4287"/>
				<rect x="0" y="286.571" width="186.035" height="33.4287" class="st3"/>
				<text x="4" y="307.49" class="st4" v:langID="1033"><v:paragraph v:bulletSize="0.166667"/><v:tabList/>Region</text>			</g>
			<g id="shape4-12" v:mID="4" v:groupContext="shape" transform="translate(390.088,-166.572)">
				<title>Sheet.4</title>
				<desc>Zone 2</desc>
				<v:userDefs>
					<v:ud v:nameU="visNavOrder" v:prompt="" v:val="VT0(6000):26"/>
				</v:userDefs>
				<v:textBlock v:margins="rect(4,4,4,4)" v:tabSpace="42.5197"/>
				<v:textRect cx="93.0174" cy="303.286" width="186.04" height="33.4287"/>
				<rect x="0" y="286.571" width="186.035" height="33.4287" class="st3"/>
				<text x="4" y="307.49" class="st4" v:langID="1033"><v:paragraph v:bulletSize="0.166667"/><v:tabList/>Zone <tspan
							class="st5" v:langID="2052">2</tspan></text>			</g>
			<g id="shape5-16" v:mID="5" v:groupContext="shape" transform="translate(592.17,-166.572)">
				<title>Sheet.5</title>
				<desc>Zone 3</desc>
				<v:userDefs>
					<v:ud v:nameU="visNavOrder" v:prompt="" v:val="VT0(7000):26"/>
				</v:userDefs>
				<v:textBlock v:margins="rect(4,4,4,4)" v:tabSpace="42.5197"/>
				<v:textRect cx="93.0174" cy="303.286" width="186.04" height="33.4287"/>
				<rect x="0" y="286.571" width="186.035" height="33.4287" class="st3"/>
				<text x="4" y="307.49" class="st4" v:langID="1033"><v:paragraph v:bulletSize="0.166667"/><v:tabList/>Zone <tspan
							class="st5" v:langID="2052">3</tspan></text>			</g>
			<g id="shape6-20" v:mID="6" v:groupContext="shape" transform="translate(187.225,-30)">
				<title>圆角矩形.865</title>
				<v:userDefs>
					<v:ud v:nameU="CTypeTopLeftSnip" v:prompt="" v:val="VT0(0):5"/>
					<v:ud v:nameU="CTypeTopRightSnip" v:prompt="" v:val="VT0(0):5"/>
					<v:ud v:nameU="CTypeBotLeftSnip" v:prompt="" v:val="VT0(0):5"/>
					<v:ud v:nameU="CTypeBotRightSnip" v:prompt="" v:val="VT0(0):5"/>
					<v:ud v:nameU="CornerLockHoriz" v:prompt="" v:val="VT0(1):5"/>
					<v:ud v:nameU="CornerLockVert" v:prompt="" v:val="VT0(1):5"/>
					<v:ud v:nameU="CornerLockDiag" v:prompt="" v:val="VT0(0):5"/>
					<v:ud v:nameU="TopLeftOffset" v:prompt="" v:val="VT0(0.15748031496063):24"/>
					<v:ud v:nameU="TopRightOffset" v:prompt="" v:val="VT0(0.15748031496063):24"/>
					<v:ud v:nameU="BotLeftOffset" v:prompt="" v:val="VT0(0.15748031496063):24"/>
					<v:ud v:nameU="BotRightOffset" v:prompt="" v:val="VT0(0.15748031496063):24"/>
					<v:ud v:nameU="visVersion" v:prompt="" v:val="VT0(15):26"/>
					<v:ud v:nameU="TopLeftOffset" v:prompt="" v:val="VT0(0.1374985888619):1"/>
					<v:ud v:nameU="TopRightOffset" v:prompt="" v:val="VT0(0.1374985888619):1"/>
					<v:ud v:nameU="BotLeftOffset" v:prompt="" v:val="VT0(0.1374985888619):1"/>
					<v:ud v:nameU="BotRightOffset" v:prompt="" v:val="VT0(0.1374985888619):1"/>
					<v:ud v:nameU="visNavOrder" v:val="VT0(8000):26"/>
				</v:userDefs>
				<path d="M9.9 320 L165.88 320 A9.89974 9.89974 -180 0 0 175.78 310.1 L175.78 193.95 A9.89974 9.89974 -180 0 0 165.88
							 184.05 L9.9 184.05 A9.89974 9.89974 -180 0 0 -0 193.95 L0 310.1 A9.89974 9.89974 -180 0 0 9.9 320 Z"
						class="st6"/>
			</g>
			<g id="shape7-22" v:mID="7" v:groupContext="shape" transform="translate(393.951,-30)">
				<title>圆角矩形.866</title>
				<v:userDefs>
					<v:ud v:nameU="CTypeTopLeftSnip" v:prompt="" v:val="VT0(0):5"/>
					<v:ud v:nameU="CTypeTopRightSnip" v:prompt="" v:val="VT0(0):5"/>
					<v:ud v:nameU="CTypeBotLeftSnip" v:prompt="" v:val="VT0(0):5"/>
					<v:ud v:nameU="CTypeBotRightSnip" v:prompt="" v:val="VT0(0):5"/>
					<v:ud v:nameU="CornerLockHoriz" v:prompt="" v:val="VT0(1):5"/>
					<v:ud v:nameU="CornerLockVert" v:prompt="" v:val="VT0(1):5"/>
					<v:ud v:nameU="CornerLockDiag" v:prompt="" v:val="VT0(0):5"/>
					<v:ud v:nameU="TopLeftOffset" v:prompt="" v:val="VT0(0.15748031496063):24"/>
					<v:ud v:nameU="TopRightOffset" v:prompt="" v:val="VT0(0.15748031496063):24"/>
					<v:ud v:nameU="BotLeftOffset" v:prompt="" v:val="VT0(0.15748031496063):24"/>
					<v:ud v:nameU="BotRightOffset" v:prompt="" v:val="VT0(0.15748031496063):24"/>
					<v:ud v:nameU="visVersion" v:prompt="" v:val="VT0(15):26"/>
					<v:ud v:nameU="TopLeftOffset" v:prompt="" v:val="VT0(0.150722924695):1"/>
					<v:ud v:nameU="TopRightOffset" v:prompt="" v:val="VT0(0.150722924695):1"/>
					<v:ud v:nameU="BotLeftOffset" v:prompt="" v:val="VT0(0.150722924695):1"/>
					<v:ud v:nameU="BotRightOffset" v:prompt="" v:val="VT0(0.150722924695):1"/>
					<v:ud v:nameU="visNavOrder" v:val="VT0(9000):26"/>
				</v:userDefs>
				<path d="M10.85 320 L164.93 320 A10.8519 10.8519 -180 0 0 175.78 309.15 L175.78 194.9 A10.8519 10.8519 -180 0 0 164.93
							 184.05 L10.85 184.05 A10.8519 10.8519 -180 0 0 -0 194.9 L0 309.15 A10.8519 10.8519 -180 0 0 10.85 320
							 Z" class="st6"/>
			</g>
			<g id="shape8-24" v:mID="8" v:groupContext="shape" transform="translate(596.623,-30)">
				<title>圆角矩形.867</title>
				<v:userDefs>
					<v:ud v:nameU="CTypeTopLeftSnip" v:prompt="" v:val="VT0(0):5"/>
					<v:ud v:nameU="CTypeTopRightSnip" v:prompt="" v:val="VT0(0):5"/>
					<v:ud v:nameU="CTypeBotLeftSnip" v:prompt="" v:val="VT0(0):5"/>
					<v:ud v:nameU="CTypeBotRightSnip" v:prompt="" v:val="VT0(0):5"/>
					<v:ud v:nameU="CornerLockHoriz" v:prompt="" v:val="VT0(1):5"/>
					<v:ud v:nameU="CornerLockVert" v:prompt="" v:val="VT0(1):5"/>
					<v:ud v:nameU="CornerLockDiag" v:prompt="" v:val="VT0(0):5"/>
					<v:ud v:nameU="TopLeftOffset" v:prompt="" v:val="VT0(0.15748031496063):24"/>
					<v:ud v:nameU="TopRightOffset" v:prompt="" v:val="VT0(0.15748031496063):24"/>
					<v:ud v:nameU="BotLeftOffset" v:prompt="" v:val="VT0(0.15748031496063):24"/>
					<v:ud v:nameU="BotRightOffset" v:prompt="" v:val="VT0(0.15748031496063):24"/>
					<v:ud v:nameU="visVersion" v:prompt="" v:val="VT0(15):26"/>
					<v:ud v:nameU="TopLeftOffset" v:prompt="" v:val="VT0(0.14411059711579):1"/>
					<v:ud v:nameU="TopRightOffset" v:prompt="" v:val="VT0(0.14411059711579):1"/>
					<v:ud v:nameU="BotLeftOffset" v:prompt="" v:val="VT0(0.14411059711579):1"/>
					<v:ud v:nameU="BotRightOffset" v:prompt="" v:val="VT0(0.14411059711579):1"/>
					<v:ud v:nameU="visNavOrder" v:val="VT0(10000):26"/>
				</v:userDefs>
				<path d="M10.38 320 L165.4 320 A10.3758 10.3758 -180 0 0 175.78 309.62 L175.78 194.42 A10.3758 10.3758 -180 0 0 165.4
							 184.05 L10.38 184.05 A10.3758 10.3758 -180 0 0 0 194.42 L0 309.62 A10.3758 10.3758 -180 0 0 10.38 320
							 Z" class="st6"/>
			</g>
			<g id="shape9-26" v:mID="9" v:groupContext="shape" transform="translate(330.951,167.666) rotate(90)">
				<title>圆角矩形.868</title>
				<v:userDefs>
					<v:ud v:nameU="CTypeTopLeftSnip" v:prompt="" v:val="VT0(0):5"/>
					<v:ud v:nameU="CTypeTopRightSnip" v:prompt="" v:val="VT0(0):5"/>
					<v:ud v:nameU="CTypeBotLeftSnip" v:prompt="" v:val="VT0(0):5"/>
					<v:ud v:nameU="CTypeBotRightSnip" v:prompt="" v:val="VT0(0):5"/>
					<v:ud v:nameU="CornerLockHoriz" v:prompt="" v:val="VT0(1):5"/>
					<v:ud v:nameU="CornerLockVert" v:prompt="" v:val="VT0(1):5"/>
					<v:ud v:nameU="CornerLockDiag" v:prompt="" v:val="VT0(0):5"/>
					<v:ud v:nameU="TopLeftOffset" v:prompt="" v:val="VT0(0.15748031496063):24"/>
					<v:ud v:nameU="TopRightOffset" v:prompt="" v:val="VT0(0.15748031496063):24"/>
					<v:ud v:nameU="BotLeftOffset" v:prompt="" v:val="VT0(0.15748031496063):24"/>
					<v:ud v:nameU="BotRightOffset" v:prompt="" v:val="VT0(0.15748031496063):24"/>
					<v:ud v:nameU="visVersion" v:prompt="" v:val="VT0(15):26"/>
					<v:ud v:nameU="TopLeftOffset" v:prompt="" v:val="VT0(0.1243593717026):1"/>
					<v:ud v:nameU="TopRightOffset" v:prompt="" v:val="VT0(0.1243593717026):1"/>
					<v:ud v:nameU="BotLeftOffset" v:prompt="" v:val="VT0(0.1243593717026):1"/>
					<v:ud v:nameU="BotRightOffset" v:prompt="" v:val="VT0(0.1243593717026):1"/>
					<v:ud v:nameU="visNavOrder" v:val="VT0(11000):26"/>
				</v:userDefs>
				<path d="M8.95 320 L92.57 320 A8.95373 8.95373 -180 0 0 101.52 311.05 L101.52 -461.05 A8.95373 8.95373 -180 0 0 92.57
							 -470 L8.95 -470 A8.95373 8.95373 -180 0 0 0 -461.05 L0 311.05 A8.95373 8.95373 -180 0 0 8.95 320 Z"
						class="st7"/>
			</g>
			<g id="shape10-28" v:mID="10" v:groupContext="shape" transform="translate(40.9511,-157.384)">
				<title>Sheet.10</title>
				<desc>Azure Bastion</desc>
				<v:userDefs>
					<v:ud v:nameU="visNavOrder" v:prompt="" v:val="VT0(12000):26"/>
				</v:userDefs>
				<v:textBlock v:margins="rect(4,4,4,4)" v:tabSpace="42.5197"/>
				<v:textRect cx="54.0087" cy="308.286" width="108.02" height="23.4287"/>
				<rect x="0" y="296.571" width="108.017" height="23.4287" class="st3"/>
				<text x="4" y="312.49" class="st4" v:langID="1033"><v:paragraph v:bulletSize="0.166667"/><v:tabList/>Azure Bastion</text>			</g>
			<g id="group11-31" transform="translate(20.9511,-159.098)" v:mID="11" v:groupContext="group">
				<v:userDefs>
					<v:ud v:nameU="visNavOrder" v:val="VT0(14000):26"/>
				</v:userDefs>
				<title>Sheet.11</title>
				<g id="shape12-32" v:mID="12" v:groupContext="shape" transform="translate(242.641,526.606) rotate(134.919)">
					<title>Sheet.12</title>
					<path d="M10 311.2 L10.92 311.2 a0.294673 0.337073 0 0 1 0.294673 0.337073 L11.21 319.32 a0.590158 0.675074 0
								 0 1 -0.590158 0.675074 L9.7 320 L9.7 311.54 a0.294673 0.337073 0 0 1 0.295485 -0.337073 Z"
							class="st8"/>
				</g>
				<g id="shape13-34" v:mID="13" v:groupContext="shape" transform="translate(227.432,75.3239) rotate(44.919)">
					<title>Sheet.13</title>
					<path d="M9.95 311.33 L10.87 311.33 a0.294673 0.337073 0 0 1 0.294673 0.337073 L11.16 320 L10.24 320 a0.590158
								 0.675074 0 0 1 -0.590158 -0.675074 L9.65 311.67 a0.294673 0.337073 0 0 1 0.294673 -0.337073 L9.95
								 311.33 Z" class="st9"/>
				</g>
				<g id="shape14-38" v:mID="14" v:groupContext="shape" transform="translate(225.813,90.3187) rotate(45.081)">
					<title>Sheet.14</title>
					<path d="M3.4 311.2 L4.32 311.2 a0.590158 0.675074 0 0 1 0.590158 0.675074 L4.91 319.66 a0.294673 0.337073 0
								 0 1 -0.294673 0.337073 L3.69 320 a0.294673 0.337073 0 0 1 -0.294673 -0.337073 L3.4 311.2 Z"
							class="st8"/>
				</g>
				<g id="shape15-40" v:mID="15" v:groupContext="shape" transform="translate(231.406,531.693) rotate(135.081)">
					<title>Sheet.15</title>
					<path d="M4.04 311.33 L4.96 311.33 L4.96 319.66 a0.294673 0.337073 0 0 1 -0.294673 0.337073 L3.74 320 a0.294673
								 0.337073 0 0 1 -0.294673 -0.337073 L3.45 312 a0.590158 0.675074 0 0 1 0.590158 -0.675074 L4.04 311.33
								 Z" class="st10"/>
				</g>
			</g>
			<g id="group33-44" transform="translate(205.407,-68.1434)" v:mID="33" v:groupContext="group">
				<v:userDefs>
					<v:ud v:nameU="visNavOrder" v:val="VT0(19000):26"/>
				</v:userDefs>
				<title>Sheet.33</title>
			</g>
			<g id="group34-45" transform="translate(199.151,-68.1434)" v:mID="34" v:groupContext="group">
				<v:userDefs>
					<v:ud v:nameU="visNavOrder" v:val="VT0(20000):26"/>
				</v:userDefs>
				<title>Sheet.34</title>
				<g id="shape35-46" v:mID="35" v:groupContext="shape">
					<title>圆角矩形.876</title>
					<v:userDefs>
						<v:ud v:nameU="CTypeTopLeftSnip" v:prompt="" v:val="VT0(0):5"/>
						<v:ud v:nameU="CTypeTopRightSnip" v:prompt="" v:val="VT0(0):5"/>
						<v:ud v:nameU="CTypeBotLeftSnip" v:prompt="" v:val="VT0(0):5"/>
						<v:ud v:nameU="CTypeBotRightSnip" v:prompt="" v:val="VT0(0):5"/>
						<v:ud v:nameU="CornerLockHoriz" v:prompt="" v:val="VT0(1):5"/>
						<v:ud v:nameU="CornerLockVert" v:prompt="" v:val="VT0(1):5"/>
						<v:ud v:nameU="CornerLockDiag" v:prompt="" v:val="VT0(0):5"/>
						<v:ud v:nameU="TopLeftOffset" v:prompt="" v:val="VT0(0.15748031496063):24"/>
						<v:ud v:nameU="TopRightOffset" v:prompt="" v:val="VT0(0.15748031496063):24"/>
						<v:ud v:nameU="BotLeftOffset" v:prompt="" v:val="VT0(0.15748031496063):24"/>
						<v:ud v:nameU="BotRightOffset" v:prompt="" v:val="VT0(0.15748031496063):24"/>
						<v:ud v:nameU="visVersion" v:prompt="" v:val="VT0(15):26"/>
						<v:ud v:nameU="TopLeftOffset" v:prompt="" v:val="VT0(0.06459508797929):1"/>
						<v:ud v:nameU="TopRightOffset" v:prompt="" v:val="VT0(0.06459508797929):1"/>
						<v:ud v:nameU="BotLeftOffset" v:prompt="" v:val="VT0(0.06459508797929):1"/>
						<v:ud v:nameU="BotRightOffset" v:prompt="" v:val="VT0(0.06459508797929):1"/>
						<v:ud v:nameU="visNavOrder" v:val="VT0(91000):26"/>
					</v:userDefs>
					<path d="M4.65 320 L147.4 320 A4.65077 4.65077 -180 0 0 152.05 315.35 L152.05 257.79 A4.65077 4.65077 -180 0
								 0 147.4 253.14 L4.65 253.14 A4.65077 4.65077 -180 0 0 0 257.79 L0 315.35 A4.65077 4.65077 -180 0
								 0 4.65 320 Z" class="st11"/>
				</g>
				<g id="shape36-48" v:mID="36" v:groupContext="shape" v:layerMember="0" transform="translate(7.97564,-3.35215)">
					<title>Process.877</title>
					<desc>Bastion Instance</desc>
					<v:userDefs>
						<v:ud v:nameU="visNavOrder" v:prompt="" v:val="VT0(89000):26"/>
					</v:userDefs>
					<v:textBlock v:margins="rect(2,2,2,2)" v:tabSpace="42.5197"/>
					<v:textRect cx="68.0496" cy="312.209" width="136.1" height="15.5815"/>
					<rect x="0" y="304.419" width="136.099" height="15.5815" class="st12"/>
					<text x="17.87" y="316.41" class="st13" v:langID="1033"><v:paragraph v:horizAlign="1"/><v:tabList/>Bastion Instance</text>				</g>
			</g>
			<g id="group46-51" transform="translate(404.565,-68.1434)" v:mID="46" v:groupContext="group">
				<v:userDefs>
					<v:ud v:nameU="visNavOrder" v:val="VT0(21000):26"/>
				</v:userDefs>
				<title>Sheet.46</title>
				<g id="shape47-52" v:mID="47" v:groupContext="shape">
					<title>圆角矩形.876</title>
					<v:userDefs>
						<v:ud v:nameU="CTypeTopLeftSnip" v:prompt="" v:val="VT0(0):5"/>
						<v:ud v:nameU="CTypeTopRightSnip" v:prompt="" v:val="VT0(0):5"/>
						<v:ud v:nameU="CTypeBotLeftSnip" v:prompt="" v:val="VT0(0):5"/>
						<v:ud v:nameU="CTypeBotRightSnip" v:prompt="" v:val="VT0(0):5"/>
						<v:ud v:nameU="CornerLockHoriz" v:prompt="" v:val="VT0(1):5"/>
						<v:ud v:nameU="CornerLockVert" v:prompt="" v:val="VT0(1):5"/>
						<v:ud v:nameU="CornerLockDiag" v:prompt="" v:val="VT0(0):5"/>
						<v:ud v:nameU="TopLeftOffset" v:prompt="" v:val="VT0(0.15748031496063):24"/>
						<v:ud v:nameU="TopRightOffset" v:prompt="" v:val="VT0(0.15748031496063):24"/>
						<v:ud v:nameU="BotLeftOffset" v:prompt="" v:val="VT0(0.15748031496063):24"/>
						<v:ud v:nameU="BotRightOffset" v:prompt="" v:val="VT0(0.15748031496063):24"/>
						<v:ud v:nameU="visVersion" v:prompt="" v:val="VT0(15):26"/>
						<v:ud v:nameU="TopLeftOffset" v:prompt="" v:val="VT0(0.06459508797929):1"/>
						<v:ud v:nameU="TopRightOffset" v:prompt="" v:val="VT0(0.06459508797929):1"/>
						<v:ud v:nameU="BotLeftOffset" v:prompt="" v:val="VT0(0.06459508797929):1"/>
						<v:ud v:nameU="BotRightOffset" v:prompt="" v:val="VT0(0.06459508797929):1"/>
						<v:ud v:nameU="visNavOrder" v:val="VT0(91000):26"/>
					</v:userDefs>
					<path d="M4.65 320 L147.4 320 A4.65077 4.65077 -180 0 0 152.05 315.35 L152.05 257.79 A4.65077 4.65077 -180 0
								 0 147.4 253.14 L4.65 253.14 A4.65077 4.65077 -180 0 0 0 257.79 L0 315.35 A4.65077 4.65077 -180 0
								 0 4.65 320 Z" class="st11"/>
				</g>
				<g id="shape48-54" v:mID="48" v:groupContext="shape" v:layerMember="0" transform="translate(7.97564,-3.35215)">
					<title>Process.877</title>
					<desc>Bastion Instance</desc>
					<v:userDefs>
						<v:ud v:nameU="visNavOrder" v:prompt="" v:val="VT0(89000):26"/>
					</v:userDefs>
					<v:textBlock v:margins="rect(2,2,2,2)" v:tabSpace="42.5197"/>
					<v:textRect cx="68.0496" cy="312.209" width="136.1" height="15.5815"/>
					<rect x="0" y="304.419" width="136.099" height="15.5815" class="st12"/>
					<text x="17.87" y="316.41" class="st13" v:langID="1033"><v:paragraph v:horizAlign="1"/><v:tabList/>Bastion Instance</text>				</g>
			</g>
			<g id="group58-57" transform="translate(607.591,-68.1434)" v:mID="58" v:groupContext="group">
				<v:userDefs>
					<v:ud v:nameU="visNavOrder" v:val="VT0(22000):26"/>
				</v:userDefs>
				<title>Sheet.58</title>
				<g id="shape59-58" v:mID="59" v:groupContext="shape">
					<title>圆角矩形.876</title>
					<v:userDefs>
						<v:ud v:nameU="CTypeTopLeftSnip" v:prompt="" v:val="VT0(0):5"/>
						<v:ud v:nameU="CTypeTopRightSnip" v:prompt="" v:val="VT0(0):5"/>
						<v:ud v:nameU="CTypeBotLeftSnip" v:prompt="" v:val="VT0(0):5"/>
						<v:ud v:nameU="CTypeBotRightSnip" v:prompt="" v:val="VT0(0):5"/>
						<v:ud v:nameU="CornerLockHoriz" v:prompt="" v:val="VT0(1):5"/>
						<v:ud v:nameU="CornerLockVert" v:prompt="" v:val="VT0(1):5"/>
						<v:ud v:nameU="CornerLockDiag" v:prompt="" v:val="VT0(0):5"/>
						<v:ud v:nameU="TopLeftOffset" v:prompt="" v:val="VT0(0.15748031496063):24"/>
						<v:ud v:nameU="TopRightOffset" v:prompt="" v:val="VT0(0.15748031496063):24"/>
						<v:ud v:nameU="BotLeftOffset" v:prompt="" v:val="VT0(0.15748031496063):24"/>
						<v:ud v:nameU="BotRightOffset" v:prompt="" v:val="VT0(0.15748031496063):24"/>
						<v:ud v:nameU="visVersion" v:prompt="" v:val="VT0(15):26"/>
						<v:ud v:nameU="TopLeftOffset" v:prompt="" v:val="VT0(0.06459508797929):1"/>
						<v:ud v:nameU="TopRightOffset" v:prompt="" v:val="VT0(0.06459508797929):1"/>
						<v:ud v:nameU="BotLeftOffset" v:prompt="" v:val="VT0(0.06459508797929):1"/>
						<v:ud v:nameU="BotRightOffset" v:prompt="" v:val="VT0(0.06459508797929):1"/>
						<v:ud v:nameU="visNavOrder" v:val="VT0(91000):26"/>
					</v:userDefs>
					<path d="M4.65 320 L147.4 320 A4.65077 4.65077 -180 0 0 152.05 315.35 L152.05 257.79 A4.65077 4.65077 -180 0
								 0 147.4 253.14 L4.65 253.14 A4.65077 4.65077 -180 0 0 0 257.79 L0 315.35 A4.65077 4.65077 -180 0
								 0 4.65 320 Z" class="st11"/>
				</g>
				<g id="shape60-60" v:mID="60" v:groupContext="shape" v:layerMember="0" transform="translate(7.97564,-3.35215)">
					<title>Process.877</title>
					<desc>Bastion Instance</desc>
					<v:userDefs>
						<v:ud v:nameU="visNavOrder" v:prompt="" v:val="VT0(89000):26"/>
					</v:userDefs>
					<v:textBlock v:margins="rect(2,2,2,2)" v:tabSpace="42.5197"/>
					<v:textRect cx="68.0496" cy="312.209" width="136.1" height="15.5815"/>
					<rect x="0" y="304.419" width="136.099" height="15.5815" class="st12"/>
					<text x="17.87" y="316.41" class="st13" v:langID="1033"><v:paragraph v:horizAlign="1"/><v:tabList/>Bastion Instance</text>				</g>
			</g>
		</g>
		<g id="group1003-63" transform="translate(250.022,-366.278)" v:mID="1003" v:groupContext="group">
			<v:userDefs>
				<v:ud v:nameU="visNavOrder" v:val="VT0(26000):26"/>
			</v:userDefs>
			<title>Sheet.1003</title>
			<g id="shape1004-64" v:mID="1004" v:groupContext="shape" transform="translate(241.951,529.865) rotate(134.919)">
				<title>Sheet.1004</title>
				<path d="M9.24 312.9 L10.09 312.9 a0.27225 0.27225 0 0 1 0.27225 0.27225 L10.36 319.45 a0.54525 0.54525 0 0 1 -0.54525
							 0.54525 L8.96 320 L8.96 313.17 a0.27225 0.27225 0 0 1 0.273 -0.27225 Z" class="st8"/>
			</g>
			<g id="shape1005-66" v:mID="1005" v:groupContext="shape" transform="translate(227.676,78.3433) rotate(44.919)">
				<title>Sheet.1005</title>
				<path d="M9.19 313 L10.04 313 a0.27225 0.27225 0 0 1 0.27225 0.27225 L10.31 320 L9.46 320 a0.54525 0.54525 0 0 1
							 -0.54525 -0.54525 L8.92 313.27 a0.27225 0.27225 0 0 1 0.27225 -0.27225 L9.19 313 Z" class="st9"/>
			</g>
			<g id="shape1006-69" v:mID="1006" v:groupContext="shape" transform="translate(226.594,90.8334) rotate(45.081)">
				<title>Sheet.1006</title>
				<path d="M3.14 312.9 L3.99 312.9 a0.54525 0.54525 0 0 1 0.54525 0.54525 L4.54 319.73 a0.27225 0.27225 0 0 1 -0.27225
							 0.27225 L3.41 320 a0.27225 0.27225 0 0 1 -0.27225 -0.27225 L3.14 312.9 Z" class="st8"/>
			</g>
		</g>
		<g id="group1014-71" transform="translate(275.86,-131.731)" v:mID="1014" v:groupContext="group">
			<v:userDefs>
				<v:ud v:nameU="visNavOrder" v:val="VT0(29000):26"/>
			</v:userDefs>
			<title>Sheet.1014</title>
			<g id="group1008-72" v:mID="1008" v:groupContext="group">
				<v:userDefs>
					<v:ud v:nameU="visNavOrder" v:val="VT0(27000):26"/>
				</v:userDefs>
				<title>Sheet.1008</title>
				<g id="group1000-73" v:mID="1000" v:groupContext="group">
					<v:userDefs>
						<v:ud v:nameU="visVersion" v:prompt="" v:val="VT0(15):26"/>
						<v:ud v:nameU="visNavOrder" v:val="VT0(25000):26"/>
					</v:userDefs>
					<title>Cube.1000</title>
					<g id="shape1001-74" v:mID="1001" v:groupContext="shape">
						<title>Sheet.1001</title>
						<v:userDefs>
							<v:ud v:nameU="ControlHeight" v:prompt="" v:val="VT0(0.94488188976378):24"/>
							<v:ud v:nameU="FillForegnd" v:prompt="" v:val="VT5(1)"/>
							<v:ud v:nameU="ControlHeight" v:prompt="" v:val="VT0(0.41666665647784):1"/>
							<v:ud v:nameU="FillForegnd" v:prompt="" v:val="VT5(#d5f1fc)"/>
						</v:userDefs>
						<path d="M0 290 L29.72 290 L37.22 282.5 L7.5 282.5 L0 290 Z" class="st14"/>
					</g>
					<g id="shape1002-76" v:mID="1002" v:groupContext="shape">
						<title>Sheet.1002</title>
						<v:userDefs>
							<v:ud v:nameU="ControlHeight" v:prompt="" v:val="VT0(0.94488188976378):24"/>
							<v:ud v:nameU="FillForegnd" v:prompt="" v:val="VT5(1)"/>
							<v:ud v:nameU="ControlHeight" v:prompt="" v:val="VT0(0.41666665647784):1"/>
							<v:ud v:nameU="FillForegnd" v:prompt="" v:val="VT5(#d5f1fc)"/>
						</v:userDefs>
						<path d="M29.72 320 L37.22 312.5 L37.22 282.5 L29.72 290 L29.72 320 Z" class="st15"/>
					</g>
					<g id="shape1000-78" v:mID="1000" v:groupContext="groupContent">
						<rect x="0" y="290" width="29.7165" height="30" class="st16"/>
					</g>
				</g>
			</g>
			<g id="group1009-80" transform="translate(6.61569,-7.84524)" v:mID="1009" v:groupContext="group">
				<v:userDefs>
					<v:ud v:nameU="visNavOrder" v:val="VT0(28000):26"/>
				</v:userDefs>
				<title>Sheet.1009</title>
				<g id="shape1010-81" v:mID="1010" v:groupContext="shape" transform="translate(241.951,529.865) rotate(134.919)">
					<title>Sheet.1010</title>
					<path d="M9.24 312.9 L10.09 312.9 a0.27225 0.27225 0 0 1 0.27225 0.27225 L10.36 319.45 a0.54525 0.54525 0 0 1
								 -0.54525 0.54525 L8.96 320 L8.96 313.17 a0.27225 0.27225 0 0 1 0.273 -0.27225 Z" class="st8"/>
				</g>
				<g id="shape1011-83" v:mID="1011" v:groupContext="shape" transform="translate(227.676,78.3433) rotate(44.919)">
					<title>Sheet.1011</title>
					<path d="M9.19 313 L10.04 313 a0.27225 0.27225 0 0 1 0.27225 0.27225 L10.31 320 L9.46 320 a0.54525 0.54525 0
								 0 1 -0.54525 -0.54525 L8.92 313.27 a0.27225 0.27225 0 0 1 0.27225 -0.27225 L9.19 313 Z"
							class="st9"/>
				</g>
				<g id="shape1012-86" v:mID="1012" v:groupContext="shape" transform="translate(226.594,90.8334) rotate(45.081)">
					<title>Sheet.1012</title>
					<path d="M3.14 312.9 L3.99 312.9 a0.54525 0.54525 0 0 1 0.54525 0.54525 L4.54 319.73 a0.27225 0.27225 0 0 1 -0.27225
								 0.27225 L3.41 320 a0.27225 0.27225 0 0 1 -0.27225 -0.27225 L3.14 312.9 Z" class="st8"/>
				</g>
				<g id="shape1013-88" v:mID="1013" v:groupContext="shape" transform="translate(231.504,534.355) rotate(135.081)">
					<title>Sheet.1013</title>
					<path d="M3.73 313 L4.58 313 L4.58 319.73 a0.27225 0.27225 0 0 1 -0.27225 0.27225 L3.46 320 a0.27225 0.27225
								 0 0 1 -0.27225 -0.27225 L3.19 313.54 a0.54525 0.54525 0 0 1 0.54525 -0.54525 L3.73 313 Z"
							class="st10"/>
				</g>
			</g>
		</g>
		<g id="group1015-91" transform="translate(480,-131.731)" v:mID="1015" v:groupContext="group">
			<v:userDefs>
				<v:ud v:nameU="visNavOrder" v:val="VT0(30000):26"/>
			</v:userDefs>
			<title>Sheet.1015</title>
			<g id="group1016-92" v:mID="1016" v:groupContext="group">
				<v:userDefs>
					<v:ud v:nameU="visNavOrder" v:val="VT0(27000):26"/>
				</v:userDefs>
				<title>Sheet.1016</title>
				<g id="group1017-93" v:mID="1017" v:groupContext="group">
					<v:userDefs>
						<v:ud v:nameU="visVersion" v:prompt="" v:val="VT0(15):26"/>
						<v:ud v:nameU="visNavOrder" v:val="VT0(25000):26"/>
					</v:userDefs>
					<title>Cube.1000</title>
					<g id="shape1018-94" v:mID="1018" v:groupContext="shape">
						<title>Sheet.1018</title>
						<v:userDefs>
							<v:ud v:nameU="ControlHeight" v:prompt="" v:val="VT0(0.94488188976378):24"/>
							<v:ud v:nameU="FillForegnd" v:prompt="" v:val="VT5(1)"/>
							<v:ud v:nameU="ControlHeight" v:prompt="" v:val="VT0(0.41666665647784):1"/>
							<v:ud v:nameU="FillForegnd" v:prompt="" v:val="VT5(#d5f1fc)"/>
						</v:userDefs>
						<path d="M0 290 L29.72 290 L37.22 282.5 L7.5 282.5 L0 290 Z" class="st14"/>
					</g>
					<g id="shape1019-96" v:mID="1019" v:groupContext="shape">
						<title>Sheet.1019</title>
						<v:userDefs>
							<v:ud v:nameU="ControlHeight" v:prompt="" v:val="VT0(0.94488188976378):24"/>
							<v:ud v:nameU="FillForegnd" v:prompt="" v:val="VT5(1)"/>
							<v:ud v:nameU="ControlHeight" v:prompt="" v:val="VT0(0.41666665647784):1"/>
							<v:ud v:nameU="FillForegnd" v:prompt="" v:val="VT5(#d5f1fc)"/>
						</v:userDefs>
						<path d="M29.72 320 L37.22 312.5 L37.22 282.5 L29.72 290 L29.72 320 Z" class="st15"/>
					</g>
					<g id="shape1017-98" v:mID="1017" v:groupContext="groupContent">
						<rect x="0" y="290" width="29.7165" height="30" class="st16"/>
					</g>
				</g>
			</g>
			<g id="group1020-100" transform="translate(6.61569,-7.84524)" v:mID="1020" v:groupContext="group">
				<v:userDefs>
					<v:ud v:nameU="visNavOrder" v:val="VT0(28000):26"/>
				</v:userDefs>
				<title>Sheet.1020</title>
				<g id="shape1021-101" v:mID="1021" v:groupContext="shape" transform="translate(241.951,529.865) rotate(134.919)">
					<title>Sheet.1021</title>
					<path d="M9.24 312.9 L10.09 312.9 a0.27225 0.27225 0 0 1 0.27225 0.27225 L10.36 319.45 a0.54525 0.54525 0 0 1
								 -0.54525 0.54525 L8.96 320 L8.96 313.17 a0.27225 0.27225 0 0 1 0.273 -0.27225 Z" class="st8"/>
				</g>
				<g id="shape1022-103" v:mID="1022" v:groupContext="shape" transform="translate(227.676,78.3433) rotate(44.919)">
					<title>Sheet.1022</title>
					<path d="M9.19 313 L10.04 313 a0.27225 0.27225 0 0 1 0.27225 0.27225 L10.31 320 L9.46 320 a0.54525 0.54525 0
								 0 1 -0.54525 -0.54525 L8.92 313.27 a0.27225 0.27225 0 0 1 0.27225 -0.27225 L9.19 313 Z"
							class="st9"/>
				</g>
				<g id="shape1023-106" v:mID="1023" v:groupContext="shape" transform="translate(226.594,90.8334) rotate(45.081)">
					<title>Sheet.1023</title>
					<path d="M3.14 312.9 L3.99 312.9 a0.54525 0.54525 0 0 1 0.54525 0.54525 L4.54 319.73 a0.27225 0.27225 0 0 1 -0.27225
								 0.27225 L3.41 320 a0.27225 0.27225 0 0 1 -0.27225 -0.27225 L3.14 312.9 Z" class="st8"/>
				</g>
				<g id="shape1024-108" v:mID="1024" v:groupContext="shape" transform="translate(231.504,534.355) rotate(135.081)">
					<title>Sheet.1024</title>
					<path d="M3.73 313 L4.58 313 L4.58 319.73 a0.27225 0.27225 0 0 1 -0.27225 0.27225 L3.46 320 a0.27225 0.27225
								 0 0 1 -0.27225 -0.27225 L3.19 313.54 a0.54525 0.54525 0 0 1 0.54525 -0.54525 L3.73 313 Z"
							class="st10"/>
				</g>
			</g>
		</g>
		<g id="group1025-111" transform="translate(684.14,-131.731)" v:mID="1025" v:groupContext="group">
			<v:userDefs>
				<v:ud v:nameU="visNavOrder" v:val="VT0(31000):26"/>
			</v:userDefs>
			<title>Sheet.1025</title>
			<g id="group1026-112" v:mID="1026" v:groupContext="group">
				<v:userDefs>
					<v:ud v:nameU="visNavOrder" v:val="VT0(27000):26"/>
				</v:userDefs>
				<title>Sheet.1026</title>
				<g id="group1027-113" v:mID="1027" v:groupContext="group">
					<v:userDefs>
						<v:ud v:nameU="visVersion" v:prompt="" v:val="VT0(15):26"/>
						<v:ud v:nameU="visNavOrder" v:val="VT0(25000):26"/>
					</v:userDefs>
					<title>Cube.1000</title>
					<g id="shape1028-114" v:mID="1028" v:groupContext="shape">
						<title>Sheet.1028</title>
						<v:userDefs>
							<v:ud v:nameU="ControlHeight" v:prompt="" v:val="VT0(0.94488188976378):24"/>
							<v:ud v:nameU="FillForegnd" v:prompt="" v:val="VT5(1)"/>
							<v:ud v:nameU="ControlHeight" v:prompt="" v:val="VT0(0.41666665647784):1"/>
							<v:ud v:nameU="FillForegnd" v:prompt="" v:val="VT5(#d5f1fc)"/>
						</v:userDefs>
						<path d="M0 290 L29.72 290 L37.22 282.5 L7.5 282.5 L0 290 Z" class="st14"/>
					</g>
					<g id="shape1029-116" v:mID="1029" v:groupContext="shape">
						<title>Sheet.1029</title>
						<v:userDefs>
							<v:ud v:nameU="ControlHeight" v:prompt="" v:val="VT0(0.94488188976378):24"/>
							<v:ud v:nameU="FillForegnd" v:prompt="" v:val="VT5(1)"/>
							<v:ud v:nameU="ControlHeight" v:prompt="" v:val="VT0(0.41666665647784):1"/>
							<v:ud v:nameU="FillForegnd" v:prompt="" v:val="VT5(#d5f1fc)"/>
						</v:userDefs>
						<path d="M29.72 320 L37.22 312.5 L37.22 282.5 L29.72 290 L29.72 320 Z" class="st15"/>
					</g>
					<g id="shape1027-118" v:mID="1027" v:groupContext="groupContent">
						<rect x="0" y="290" width="29.7165" height="30" class="st16"/>
					</g>
				</g>
			</g>
			<g id="group1030-120" transform="translate(6.61569,-7.84524)" v:mID="1030" v:groupContext="group">
				<v:userDefs>
					<v:ud v:nameU="visNavOrder" v:val="VT0(28000):26"/>
				</v:userDefs>
				<title>Sheet.1030</title>
				<g id="shape1031-121" v:mID="1031" v:groupContext="shape" transform="translate(241.951,529.865) rotate(134.919)">
					<title>Sheet.1031</title>
					<path d="M9.24 312.9 L10.09 312.9 a0.27225 0.27225 0 0 1 0.27225 0.27225 L10.36 319.45 a0.54525 0.54525 0 0 1
								 -0.54525 0.54525 L8.96 320 L8.96 313.17 a0.27225 0.27225 0 0 1 0.273 -0.27225 Z" class="st8"/>
				</g>
				<g id="shape1032-123" v:mID="1032" v:groupContext="shape" transform="translate(227.676,78.3433) rotate(44.919)">
					<title>Sheet.1032</title>
					<path d="M9.19 313 L10.04 313 a0.27225 0.27225 0 0 1 0.27225 0.27225 L10.31 320 L9.46 320 a0.54525 0.54525 0
								 0 1 -0.54525 -0.54525 L8.92 313.27 a0.27225 0.27225 0 0 1 0.27225 -0.27225 L9.19 313 Z"
							class="st9"/>
				</g>
				<g id="shape1033-126" v:mID="1033" v:groupContext="shape" transform="translate(226.594,90.8334) rotate(45.081)">
					<title>Sheet.1033</title>
					<path d="M3.14 312.9 L3.99 312.9 a0.54525 0.54525 0 0 1 0.54525 0.54525 L4.54 319.73 a0.27225 0.27225 0 0 1 -0.27225
								 0.27225 L3.41 320 a0.27225 0.27225 0 0 1 -0.27225 -0.27225 L3.14 312.9 Z" class="st8"/>
				</g>
				<g id="shape1034-128" v:mID="1034" v:groupContext="shape" transform="translate(231.504,534.355) rotate(135.081)">
					<title>Sheet.1034</title>
					<path d="M3.73 313 L4.58 313 L4.58 319.73 a0.27225 0.27225 0 0 1 -0.27225 0.27225 L3.46 320 a0.27225 0.27225
								 0 0 1 -0.27225 -0.27225 L3.19 313.54 a0.54525 0.54525 0 0 1 0.54525 -0.54525 L3.73 313 Z"
							class="st10"/>
				</g>
			</g>
		</g>
	</g>
</svg>
