<?xml version="1.0" encoding="utf-8"?>
<!-- Generator: Adobe Illustrator 21.0.2, SVG Export Plug-In . SVG Version: 6.00 Build 0)  -->
<svg version="1.1" xmlns="http://www.w3.org/2000/svg" xmlns:xlink="http://www.w3.org/1999/xlink" x="0px" y="0px" width="775px"
	 height="418.5px" viewBox="0 0 775 418.5" style="enable-background:new 0 0 775 418.5;" xml:space="preserve">
<g id="Layer_1">
	<path style="fill:#59B4D9;" d="M123.4,212.7c0,1.1,0.9,2,2,2h46c1.1,0,2-0.9,2-2v-31.3h-50V212.7z"/>
	<path style="fill:#A0A1A2;" d="M171.4,171.1h-46c-1.1,0-2,0.9-2,2v10.6h50v-10.6C173.4,172,172.5,171.1,171.4,171.1"/>
	<path style="opacity:0.2;fill:#FFFFFF;enable-background:new    ;" d="M125.4,171.1c-1.1,0-2,0.9-2,2v7.3v3.3v28c0,1.1,0.9,2,2,2
		h2.2l39.4-42.6H125.4z"/>
	<rect x="136.3" y="175.9" style="fill:#FFFFFF;" width="33.7" height="3.9"/>
	<path style="fill:#59B4D9;" d="M134.7,177.8c0,2.7-2.2,4.9-4.9,4.9c-2.7,0-4.9-2.2-4.9-4.9c0-2.7,2.2-4.9,4.9-4.9
		C132.5,172.9,134.7,175.1,134.7,177.8"/>
	<polygon style="fill:#FFFFFF;" points="129.3,178.3 131.5,180.7 130.3,180.7 127.4,177.9 130.3,175 131.5,175 129.3,177.4 
		134.7,177.4 134.7,178.3 	"/>
	<polygon style="fill:#804998;" points="314.4,200.6 314.4,179.7 299.8,165.1 279.1,165.1 264.4,180.1 264.4,200.5 279.1,215.1 
		299.8,215.1 	"/>
	<path style="opacity:0.8;fill:#FFFFFF;enable-background:new    ;" d="M299,167.1h-19l-13.5,13.8v18.8l13.5,13.4H299l13.5-13.3
		v-19.2L299,167.1z M297.8,210.3h-0.2l-11.3-11.4l2.4-2.7h-8.2v8.4l2.7-2.9l8.9,8.6H281l-11.8-11.8v-16.5l3.3-3.4l8.8,8l-5,5.2h16.1
		v-16l-5.3,5.2l-8.9-8.3l2.8-2.9h16.7l11.8,11.8v14.7l-5.6-5.3l4.1-3.7h-11.4v10.8l3.7-3.7l6.4,6.9L297.8,210.3z"/>
	<polygon style="opacity:0.2;fill:#FFFFFF;enable-background:new    ;" points="307.3,172.6 299.8,165.1 279.1,165.1 264.4,180.1 
		264.4,200.5 271.9,208 	"/>
	<g>
		<path style="fill:none;stroke:#00188F;stroke-width:3;stroke-linecap:round;stroke-linejoin:round;stroke-miterlimit:10;" d="
			M690.2,183.2c1.8,5.7-11.3,14.9-29.3,20.5c-18,5.6-34,5.4-35.8-0.3c-1.8-5.7,11.3-14.9,29.3-20.5
			C672.4,177.3,688.4,177.4,690.2,183.2z"/>
		<path style="fill:#BAD80A;" d="M653.4,172.7c11.4-2.4,22.5,4.9,24.9,16.3c2.4,11.4-4.9,22.5-16.3,24.9
			c-11.4,2.4-22.5-4.9-24.9-16.3C634.7,186.2,642,175,653.4,172.7z"/>
		<g>
			<g>
				<defs>
					
						<ellipse id="SVGID_23_" transform="matrix(0.979 -0.204 0.204 0.979 -25.5991 138.2446)" cx="657.7" cy="193.3" rx="21.1" ry="21.1"/>
				</defs>
				<clipPath id="SVGID_2_">
					<use xlink:href="#SVGID_23_"  style="overflow:visible;"/>
				</clipPath>
				<path style="clip-path:url(#SVGID_2_);fill:#00BCF2;" d="M649.1,196.3c-1,0-24.1,0-25.1,0c-3.1,0-5.6,2.5-5.6,5.6
					c0,3.1,2.5,5.6,5.6,5.6c1,0,24.1,0,25.1,0c3.1,0,5.6-2.5,5.6-5.6C654.7,198.8,652.1,196.3,649.1,196.3z"/>
			</g>
			<g>
				<defs>
					
						<ellipse id="SVGID_25_" transform="matrix(0.979 -0.204 0.204 0.979 -25.5991 138.2446)" cx="657.7" cy="193.3" rx="21.1" ry="21.1"/>
				</defs>
				<clipPath id="SVGID_4_">
					<use xlink:href="#SVGID_25_"  style="overflow:visible;"/>
				</clipPath>
				<path style="clip-path:url(#SVGID_4_);fill:#00BCF2;" d="M642.8,189.4c-1,0-24.1,0-25.1,0c-3.1,0-5.6,2.5-5.6,5.6
					c0,3.1,2.5,5.6,5.6,5.6c1,0,24.1,0,25.1,0c3.1,0,5.6-2.5,5.6-5.6C648.4,191.9,645.9,189.4,642.8,189.4z"/>
			</g>
			<g>
				<defs>
					
						<ellipse id="SVGID_27_" transform="matrix(0.979 -0.204 0.204 0.979 -25.5991 138.2446)" cx="657.7" cy="193.3" rx="21.1" ry="21.1"/>
				</defs>
				<clipPath id="SVGID_6_">
					<use xlink:href="#SVGID_27_"  style="overflow:visible;"/>
				</clipPath>
				<path style="clip-path:url(#SVGID_6_);fill:#00BCF2;" d="M685.5,179.7c-1.1,0-25.1,0-26.2,0c-3.2,0-5.8,2.6-5.8,5.8
					c0,3.2,2.6,5.8,5.8,5.8c1.1,0,25.1,0,26.2,0c3.2,0,5.8-2.6,5.8-5.8C691.3,182.3,688.7,179.7,685.5,179.7z"/>
			</g>
			<g>
				<defs>
					
						<ellipse id="SVGID_29_" transform="matrix(0.979 -0.204 0.204 0.979 -25.5991 138.2446)" cx="657.7" cy="193.3" rx="21.1" ry="21.1"/>
				</defs>
				<clipPath id="SVGID_8_">
					<use xlink:href="#SVGID_29_"  style="overflow:visible;"/>
				</clipPath>
				<path style="clip-path:url(#SVGID_8_);fill:#00BCF2;" d="M682.3,174.9c-0.7,0-16.3,0-16.9,0c-2.1,0-3.8,1.7-3.8,3.8
					c0,2.1,1.7,3.8,3.8,3.8c0.7,0,16.3,0,16.9,0c2.1,0,3.8-1.7,3.8-3.8C686.1,176.6,684.4,174.9,682.3,174.9z"/>
			</g>
			<g>
				<defs>
					
						<ellipse id="SVGID_31_" transform="matrix(0.979 -0.204 0.204 0.979 -25.5991 138.2446)" cx="657.7" cy="193.3" rx="21.1" ry="21.1"/>
				</defs>
				<clipPath id="SVGID_10_">
					<use xlink:href="#SVGID_31_"  style="overflow:visible;"/>
				</clipPath>
				<path style="clip-path:url(#SVGID_10_);fill:#00BCF2;" d="M688.3,195.6c-0.9,0-20.4,0-21.3,0c-2.6,0-4.7,2.1-4.7,4.7
					c0,2.6,2.1,4.7,4.7,4.7c0.9,0,20.4,0,21.3,0c2.6,0,4.7-2.1,4.7-4.7C693.1,197.8,690.9,195.6,688.3,195.6z"/>
			</g>
			<g>
				<defs>
					
						<ellipse id="SVGID_33_" transform="matrix(0.979 -0.204 0.204 0.979 -25.5991 138.2446)" cx="657.7" cy="193.3" rx="21.1" ry="21.1"/>
				</defs>
				<clipPath id="SVGID_12_">
					<use xlink:href="#SVGID_33_"  style="overflow:visible;"/>
				</clipPath>
				<path style="clip-path:url(#SVGID_12_);fill:#00BCF2;" d="M685.6,202.4c-0.9,0-20.4,0-21.3,0c-2.6,0-4.7,2.1-4.7,4.7
					c0,2.6,2.1,4.7,4.7,4.7c0.9,0,20.4,0,21.3,0c2.6,0,4.7-2.1,4.7-4.7C690.3,204.5,688.2,202.4,685.6,202.4z"/>
			</g>
		</g>
		<circle style="fill:#00188F;" cx="687.7" cy="210.2" r="4.1"/>
		<circle style="fill:#00188F;" cx="675" cy="165.5" r="6"/>
		<path style="fill:none;stroke:#00188F;stroke-width:3;stroke-linecap:round;stroke-linejoin:round;stroke-miterlimit:10;" d="
			M690.2,183.2c1.8,5.7-11.3,14.9-29.3,20.5c-18,5.6-34,5.4-35.8-0.3"/>
		<g>
			<path style="fill:none;stroke:#00188F;stroke-width:3;stroke-linecap:round;stroke-linejoin:round;stroke-miterlimit:10;" d="
				M631.9,162.7c0,5.3-4.3,9.6-9.6,9.6"/>
			<path style="fill:none;stroke:#00188F;stroke-width:3;stroke-linecap:round;stroke-linejoin:round;stroke-miterlimit:10;" d="
				M641.5,172.2c-5.3,0-9.6-4.3-9.6-9.6"/>
			<path style="fill:none;stroke:#00188F;stroke-width:3;stroke-linecap:round;stroke-linejoin:round;stroke-miterlimit:10;" d="
				M631.9,181.8c0-5.3,4.3-9.6,9.6-9.6"/>
			<path style="fill:none;stroke:#00188F;stroke-width:3;stroke-linecap:round;stroke-linejoin:round;stroke-miterlimit:10;" d="
				M622.4,172.2c5.3,0,9.6,4.3,9.6,9.6"/>
		</g>
	</g>
	<g>
		<g>
			<line style="fill:none;stroke:#969696;stroke-miterlimit:10;" x1="189.3" y1="189.3" x2="247.5" y2="189.3"/>
			<g>
				<path style="fill:#969696;" d="M240.6,194.1c-0.1-0.2-0.1-0.5,0.2-0.7l6.5-4.1l-6.5-4.1c-0.2-0.1-0.3-0.5-0.2-0.7
					c0.1-0.2,0.5-0.3,0.7-0.2l7.1,4.5c0.1,0.1,0.2,0.3,0.2,0.4s-0.1,0.3-0.2,0.4l-7.1,4.5c-0.1,0.1-0.2,0.1-0.3,0.1
					C240.9,194.4,240.7,194.3,240.6,194.1z"/>
			</g>
		</g>
	</g>
	<g>
		<g>
			<line style="fill:none;stroke:#969696;stroke-miterlimit:10;" x1="326.3" y1="189.3" x2="384.5" y2="189.3"/>
			<g>
				<path style="fill:#969696;" d="M377.6,194.1c-0.1-0.2-0.1-0.5,0.2-0.7l6.5-4.1l-6.5-4.1c-0.2-0.1-0.3-0.5-0.2-0.7
					c0.1-0.2,0.5-0.3,0.7-0.2l7.1,4.5c0.1,0.1,0.2,0.3,0.2,0.4s-0.1,0.3-0.2,0.4l-7.1,4.5c-0.1,0.1-0.2,0.1-0.3,0.1
					C377.9,194.4,377.7,194.3,377.6,194.1z"/>
			</g>
		</g>
	</g>
	<g>
		<g>
			<line style="fill:none;stroke:#969696;stroke-miterlimit:10;" x1="504.3" y1="305.7" x2="562.5" y2="305.7"/>
			<g>
				<path style="fill:#969696;" d="M555.6,310.5c-0.1-0.2-0.1-0.5,0.2-0.7l6.5-4.1l-6.5-4.1c-0.2-0.1-0.3-0.5-0.2-0.7
					s0.5-0.3,0.7-0.2l7.1,4.5c0.1,0.1,0.2,0.3,0.2,0.4s-0.1,0.3-0.2,0.4l-7.1,4.5c-0.1,0.1-0.2,0.1-0.3,0.1
					C555.9,310.7,555.7,310.6,555.6,310.5z"/>
			</g>
		</g>
	</g>
	<g>
		<g>
			<line style="fill:none;stroke:#969696;stroke-miterlimit:10;" x1="504.3" y1="189" x2="562.5" y2="189"/>
			<g>
				<path style="fill:#969696;" d="M555.6,193.8c-0.1-0.2-0.1-0.5,0.2-0.7l6.5-4.1l-6.5-4.1c-0.2-0.1-0.3-0.5-0.2-0.7
					s0.5-0.3,0.7-0.2l7.1,4.5c0.1,0.1,0.2,0.3,0.2,0.4s-0.1,0.3-0.2,0.4l-7.1,4.5c-0.1,0.1-0.2,0.1-0.3,0.1
					C555.9,194,555.7,193.9,555.6,193.8z"/>
			</g>
		</g>
	</g>
	<g>
		<g>
			<line style="fill:none;stroke:#969696;stroke-miterlimit:10;" x1="504.3" y1="74.3" x2="562.5" y2="74.3"/>
			<g>
				<path style="fill:#969696;" d="M555.6,79.1c-0.1-0.2-0.1-0.5,0.2-0.7l6.5-4.1l-6.5-4.1c-0.2-0.1-0.3-0.5-0.2-0.7
					c0.1-0.2,0.5-0.3,0.7-0.2l7.1,4.5c0.1,0.1,0.2,0.3,0.2,0.4s-0.1,0.3-0.2,0.4l-7.1,4.5c-0.1,0.1-0.2,0.1-0.3,0.1
					C555.9,79.4,555.7,79.3,555.6,79.1z"/>
			</g>
		</g>
	</g>
	<g>
		<g>
			<line style="fill:none;stroke:#969696;stroke-miterlimit:10;" x1="504.3" y1="84.7" x2="505.2" y2="85.9"/>
			
				<line style="fill:none;stroke:#969696;stroke-miterlimit:10;stroke-dasharray:2.9362,2.9362;" x1="506.9" y1="88.3" x2="560.6" y2="163.6"/>
			<line style="fill:none;stroke:#969696;stroke-miterlimit:10;" x1="561.4" y1="164.8" x2="562.3" y2="166"/>
			<g>
				<path style="fill:#969696;" d="M554.4,163.2c0.1-0.3,0.4-0.4,0.7-0.3l7.1,2.9l-0.4-7.6c0-0.3,0.2-0.5,0.5-0.5
					c0.3,0,0.5,0.2,0.5,0.5l0.4,8.4c0,0.2-0.1,0.3-0.2,0.4s-0.3,0.1-0.5,0.1l-7.8-3.2c-0.1,0-0.2-0.1-0.2-0.2
					C554.4,163.6,554.4,163.4,554.4,163.2z"/>
			</g>
		</g>
	</g>
	<text transform="matrix(1 0 0 1 421.6306 117.5651)" style="fill:#767676; font-family:'SegoeUI'; font-size:12px;">Azure region A</text>
	<text transform="matrix(1 0 0 1 421.6306 230.0651)" style="fill:#767676; font-family:'SegoeUI'; font-size:12px;">Azure region A</text>
	<text transform="matrix(1 0 0 1 256.8591 235.0654)"><tspan x="0" y="0" style="fill:#767676; font-family:'SegoeUI'; font-size:12px;">Azure Traffic </tspan><tspan x="11.1" y="14.4" style="fill:#767676; font-family:'SegoeUI'; font-size:12px;">Manager</tspan></text>
	<text transform="matrix(1 0 0 1 125.4647 236.0656)" style="fill:#767676; font-family:'SegoeUI'; font-size:12px;">Browser</text>
	<text transform="matrix(1 0 0 1 421.6306 353.0645)" style="fill:#767676; font-family:'SegoeUI'; font-size:12px;">Azure region A</text>
	<text transform="matrix(1 0 0 1 600.1189 242.0664)"><tspan x="0" y="0" style="fill:#767676; font-family:'SegoeUI'; font-size:12px;">Globally distributed </tspan><tspan x="15.7" y="14.4" style="fill:#767676; font-family:'SegoeUI'; font-size:12px;">across regions</tspan></text>
	<text transform="matrix(1 0 0 1 606.4695 128.0664)"><tspan x="0" y="0" style="fill:#767676; font-family:'SegoeUI'; font-size:12px;">Azure Cosmos DB</tspan><tspan x="-7.6" y="14.4" style="fill:#767676; font-family:'SegoeUI'; font-size:12px;">(app + session state)</tspan></text>
	<g>
		<line style="fill:none;stroke:#969696;stroke-miterlimit:10;" x1="289" y1="142" x2="289" y2="74.5"/>
		<g>
			<g>
				<line style="fill:none;stroke:#969696;stroke-miterlimit:10;" x1="288.5" y1="74.3" x2="382.7" y2="74.3"/>
				<g>
					<path style="fill:#969696;" d="M375.8,79.1c-0.1-0.2-0.1-0.5,0.2-0.7l6.5-4.1l-6.5-4.1c-0.2-0.1-0.3-0.5-0.2-0.7
						s0.5-0.3,0.7-0.2l7.1,4.5c0.1,0.1,0.2,0.3,0.2,0.4s-0.1,0.3-0.2,0.4l-7.1,4.5c-0.1,0.1-0.2,0.1-0.3,0.1
						C376.1,79.4,375.9,79.3,375.8,79.1z"/>
				</g>
			</g>
		</g>
	</g>
	<g>
		<line style="fill:none;stroke:#969696;stroke-miterlimit:10;" x1="289" y1="263.5" x2="289" y2="304.4"/>
		<g>
			<g>
				<line style="fill:none;stroke:#969696;stroke-miterlimit:10;" x1="288.5" y1="304.5" x2="382.7" y2="304.5"/>
				<g>
					<path style="fill:#969696;" d="M375.8,309.3c-0.1-0.2-0.1-0.5,0.2-0.7l6.5-4.1l-6.5-4.1c-0.2-0.1-0.3-0.5-0.2-0.7
						s0.5-0.3,0.7-0.2l7.1,4.5c0.1,0.1,0.2,0.3,0.2,0.4s-0.1,0.3-0.2,0.4l-7.1,4.5c-0.1,0.1-0.2,0.1-0.3,0.1
						C376.1,309.5,375.9,309.4,375.8,309.3z"/>
				</g>
			</g>
		</g>
	</g>
	<rect x="580.7" y="51.7" style="fill:none;stroke:#969696;stroke-miterlimit:10;" width="144.3" height="277.7"/>
	<g>
		<g>
			<line style="fill:none;stroke:#969696;stroke-miterlimit:10;" x1="503.3" y1="96.3" x2="503.8" y2="97.8"/>
			
				<line style="fill:none;stroke:#969696;stroke-miterlimit:10;stroke-dasharray:3.0196,3.0196;" x1="504.6" y1="100.7" x2="559.8" y2="284.3"/>
			<line style="fill:none;stroke:#969696;stroke-miterlimit:10;" x1="560.2" y1="285.7" x2="560.7" y2="287.2"/>
			<g>
				<path style="fill:#969696;" d="M554.1,282c0.2-0.2,0.5-0.2,0.7-0.1l5.8,5l2.1-7.4c0.1-0.3,0.4-0.4,0.6-0.3s0.4,0.4,0.3,0.6
					l-2.3,8.1c0,0.2-0.2,0.3-0.3,0.3s-0.3,0-0.5-0.1l-6.4-5.5c-0.1-0.1-0.1-0.1-0.2-0.2C553.9,282.3,554,282.2,554.1,282z"/>
			</g>
		</g>
	</g>
	<g>
		<g>
			<line style="fill:none;stroke:#969696;stroke-miterlimit:10;" x1="504.3" y1="294.3" x2="505.2" y2="293.1"/>
			
				<line style="fill:none;stroke:#969696;stroke-miterlimit:10;stroke-dasharray:2.9362,2.9362;" x1="506.9" y1="290.7" x2="560.6" y2="215.4"/>
			<line style="fill:none;stroke:#969696;stroke-miterlimit:10;" x1="561.4" y1="214.2" x2="562.3" y2="213"/>
			<g>
				<path style="fill:#969696;" d="M562.2,221.3c-0.3,0-0.5-0.2-0.5-0.5l0.4-7.6l-7.1,2.9c-0.3,0.1-0.5,0-0.7-0.3
					c-0.1-0.3,0-0.5,0.3-0.7l7.8-3.2c0.2-0.1,0.3,0,0.5,0.1s0.2,0.3,0.2,0.4l-0.4,8.4c0,0.1,0,0.2-0.1,0.3
					C562.6,221.3,562.4,221.3,562.2,221.3z"/>
			</g>
		</g>
	</g>
	<g>
		<g>
			<line style="fill:none;stroke:#969696;stroke-miterlimit:10;" x1="503.3" y1="282.7" x2="503.8" y2="281.2"/>
			
				<line style="fill:none;stroke:#969696;stroke-miterlimit:10;stroke-dasharray:3.0196,3.0196;" x1="504.6" y1="278.3" x2="559.8" y2="94.7"/>
			<line style="fill:none;stroke:#969696;stroke-miterlimit:10;" x1="560.2" y1="93.3" x2="560.7" y2="91.8"/>
			<g>
				<path style="fill:#969696;" d="M563.3,99.7c-0.3,0.1-0.5-0.1-0.6-0.3l-2.1-7.4l-5.8,5c-0.2,0.2-0.5,0.2-0.7-0.1
					c-0.2-0.2-0.2-0.5,0.1-0.7l6.4-5.5c0.1-0.1,0.3-0.1,0.5-0.1c0.2,0,0.3,0.2,0.3,0.3l2.3,8.1c0,0.1,0,0.2,0,0.3
					C563.6,99.6,563.5,99.7,563.3,99.7z"/>
			</g>
		</g>
	</g>
	<g>
		<g>
			<line style="fill:none;stroke:#969696;stroke-miterlimit:10;" x1="506" y1="198" x2="507.1" y2="199"/>
			
				<line style="fill:none;stroke:#969696;stroke-miterlimit:10;stroke-dasharray:3.0099,3.0099;" x1="509.3" y1="201.1" x2="560.3" y2="250.1"/>
			<line style="fill:none;stroke:#969696;stroke-miterlimit:10;" x1="561.4" y1="251.1" x2="562.5" y2="252.2"/>
			<g>
				<path style="fill:#969696;" d="M554.2,250.9c0.1-0.3,0.3-0.4,0.6-0.4l7.5,1.5l-1.8-7.4c-0.1-0.3,0.1-0.5,0.4-0.6
					c0.3-0.1,0.5,0.1,0.6,0.4l2,8.2c0,0.2,0,0.3-0.1,0.5c-0.1,0.1-0.3,0.2-0.5,0.1l-8.3-1.7c-0.1,0-0.2-0.1-0.2-0.1
					C554.2,251.2,554.2,251.1,554.2,250.9z"/>
			</g>
		</g>
	</g>
	<g>
		<g>
			<line style="fill:none;stroke:#969696;stroke-miterlimit:10;" x1="505" y1="181.7" x2="506.1" y2="180.6"/>
			
				<line style="fill:none;stroke:#969696;stroke-miterlimit:10;stroke-dasharray:3.0099,3.0099;" x1="508.3" y1="178.5" x2="559.3" y2="129.6"/>
			<line style="fill:none;stroke:#969696;stroke-miterlimit:10;" x1="560.4" y1="128.5" x2="561.5" y2="127.5"/>
			<g>
				<path style="fill:#969696;" d="M559.9,135.7c-0.3-0.1-0.4-0.3-0.4-0.6l1.8-7.4l-7.5,1.5c-0.3,0.1-0.5-0.1-0.6-0.4
					c-0.1-0.3,0.1-0.5,0.4-0.6l8.3-1.7c0.2,0,0.3,0,0.5,0.1c0.1,0.1,0.2,0.3,0.1,0.5l-2,8.2c0,0.1-0.1,0.2-0.1,0.2
					C560.2,135.7,560,135.7,559.9,135.7z"/>
			</g>
		</g>
	</g>
</g>
<g id="Grid">
	<path style="fill:#59B4D9;" d="M473.7,206.4c-4.5,3.4-9.9,5.1-15.1,5.1c-7.6,0-15-3.4-19.9-9.8c-8.5-11-6.5-26.7,4.5-35.1
		c4.6-3.4,9.9-5.1,15.2-5.1c7.6,0,15,3.4,19.9,9.8C486.8,182.2,484.6,197.9,473.7,206.4"/>
	<path style="fill:#FFFFFF;" d="M478.4,189.5c0.6-1.7,0.5-3.7-0.7-5.1c-1.7-2.2-4.6-2.7-6.9-1.4c-2.6-2.3-5.4-4.9-8.3-7.8
		c8.9-4.9,15.2-4.4,15.6-4.4c-1.1-1.4-2.3-2.6-3.7-3.7c-3.9-0.6-9.9-0.5-16.7,3.2l0,0l0,0c-2.3-2.3-4.6-4.9-6.9-7.7
		c-1.1,0.4-2.2,0.8-3.3,1.4c1.7,2.8,4,5.7,6.7,8.5l0,0l0,0c-2.3,1.6-4.6,3.5-7,6c-0.2,0.4-0.6,0.6-0.8,1c-1.4-0.2-2.8-0.2-4.1,0.2
		c-2.2-4.9-2.1-8.7-1.7-10.7c-0.8,1.1-1.7,2.2-2.6,3.3c-0.6,2.4-0.7,5.9,1,10c-2.1,2.7-2.1,6.3,0,9.1c0.1,0.2,0.4,0.5,0.6,0.6
		c-0.8,3-1.4,6.1-1.5,8.7c0.2,0.4,0.4,0.6,0.6,1c1.2,1.6,2.6,2.9,4,4.1c-0.1-2.8,0-6.8,1.7-11.3c1.2,0.1,2.3-0.1,3.5-0.6
		c0.6,0.6,1.4,1.1,2.1,1.7c2.4,2,4.9,3.4,7.3,4.6c-0.1,1.2,0.1,2.4,1,3.5c1.7,2.2,4.7,2.6,6.9,1c0.5-0.4,0.8-0.7,1.1-1.2
		c3.8,0.8,7.2,1,9.6,1c1.1-1.1,2.2-2.3,3-3.5l0,0c0.1-0.1,0.1-0.2,0.2-0.4c-1.6,0.4-6.1,1-12.3-0.8c-0.1-0.7-0.5-1.4-0.8-2
		c-1.6-2.1-4.5-2.6-6.6-1.1c-2.2-1.2-4.4-2.7-6.7-4.5c-0.5-0.4-1-0.7-1.4-1.1c1.5-2.2,1.6-5.1,0.4-7.6c0.2-0.2,0.6-0.6,0.8-0.8
		c2.2-2,4.7-3.9,6.6-5.3c3.2,2.9,6.4,5.6,9.5,8c-0.8,1.7-0.7,3.9,0.6,5.5c1.8,2.3,5.3,2.8,7.6,1c0.1-0.1,0.2-0.2,0.4-0.4
		c2.2,1.6,4,2.8,5,3.4c0.2-0.7,0.5-1.5,0.6-2.2C481.7,192.1,480.2,191,478.4,189.5z"/>
	<g id="Layer_1_1_">
		<g id="Azure">
			<g>
				<path style="fill:#0078D7;" d="M414.4,190.1c-0.8,0-1.5,0.5-1.8,1.2h-11.4l0,0c-1.9,0-3.5-1.6-3.5-3.5s1.6-3.5,3.5-3.5l0,0h0
					l0,0h1.6c0.1-0.4,0.2-0.8,0.4-1.2c0.1-0.1,0.1-0.3,0.2-0.4c0.8-1.4,2.3-2.3,4-2.3c1.6,0,2.9,0.8,3.8,1.9c0.5-0.2,1-0.4,1.5-0.5
					c-1.1-1.8-3-2.9-5.3-2.9c-2.6,0-4.8,1.6-5.7,3.9c0,0,0,0,0,0l0,0c0,0,0,0,0,0h-0.4c-2.8,0-5.1,2.3-5.1,5.1
					c0,2.8,2.3,5.1,5.1,5.1h11.5c0.3,0.7,1,1.2,1.8,1.2c1.1,0,2-0.9,2-2C416.4,191,415.5,190.1,414.4,190.1z"/>
				<path style="fill:#0078D7;" d="M420.5,198.8c3.4,0,6.4-2.9,6.4-6.3s-2.8-6.2-6.2-6.2c-1.2-2.3-3.5-3.9-6.3-3.9
					c-3.4,0-6.1,2.4-6.8,5.5c-1.6,0.2-3,1-3.9,2.3h8.3c0.6-0.7,1.4-1.2,2.4-1.2c1.7,0,3.1,1.4,3.1,3.1s-1.4,3.1-3.1,3.1
					c-1,0-1.8-0.4-2.4-1.2h-9.3c0.4,2.6,2.5,4.8,5.2,4.8H420.5z"/>
			</g>
		</g>
	</g>
	<path style="fill:#59B4D9;" d="M473.7,96.4c-4.5,3.4-9.9,5.1-15.1,5.1c-7.6,0-15-3.4-19.9-9.8c-8.5-11-6.5-26.7,4.5-35.1
		c4.6-3.4,9.9-5.1,15.2-5.1c7.6,0,15,3.4,19.9,9.8C486.8,72.2,484.6,87.9,473.7,96.4"/>
	<path style="fill:#FFFFFF;" d="M478.4,79.5c0.6-1.7,0.5-3.7-0.7-5.1c-1.7-2.2-4.6-2.7-6.9-1.4c-2.6-2.3-5.4-4.9-8.3-7.8
		c8.9-4.9,15.2-4.4,15.6-4.4c-1.1-1.4-2.3-2.6-3.7-3.7c-3.9-0.6-9.9-0.5-16.7,3.2l0,0l0,0c-2.3-2.3-4.6-4.9-6.9-7.7
		c-1.1,0.4-2.2,0.8-3.3,1.4c1.7,2.8,4,5.7,6.7,8.5l0,0l0,0c-2.3,1.6-4.6,3.5-7,6c-0.2,0.4-0.6,0.6-0.8,1c-1.4-0.2-2.8-0.2-4.1,0.2
		c-2.2-4.9-2.1-8.7-1.7-10.7c-0.8,1.1-1.7,2.2-2.6,3.3c-0.6,2.4-0.7,5.9,1,10c-2.1,2.7-2.1,6.3,0,9.1c0.1,0.2,0.4,0.5,0.6,0.6
		c-0.8,3-1.4,6.1-1.5,8.7c0.2,0.4,0.4,0.6,0.6,1c1.2,1.6,2.6,2.9,4,4.1c-0.1-2.8,0-6.8,1.7-11.3c1.2,0.1,2.3-0.1,3.5-0.6
		c0.6,0.6,1.4,1.1,2.1,1.7c2.4,2,4.9,3.4,7.3,4.6c-0.1,1.2,0.1,2.4,1,3.5c1.7,2.2,4.7,2.6,6.9,1c0.5-0.4,0.8-0.7,1.1-1.2
		c3.8,0.8,7.2,1,9.6,1c1.1-1.1,2.2-2.3,3-3.5l0,0c0.1-0.1,0.1-0.2,0.2-0.4c-1.6,0.4-6.1,1-12.3-0.8c-0.1-0.7-0.5-1.4-0.8-2
		c-1.6-2.1-4.5-2.6-6.6-1.1c-2.2-1.2-4.4-2.7-6.7-4.5c-0.5-0.4-1-0.7-1.4-1.1c1.5-2.2,1.6-5.1,0.4-7.6c0.2-0.2,0.6-0.6,0.8-0.8
		c2.2-2,4.7-3.9,6.6-5.3c3.2,2.9,6.4,5.6,9.5,8c-0.8,1.7-0.7,3.9,0.6,5.5c1.8,2.3,5.3,2.8,7.6,1c0.1-0.1,0.2-0.2,0.4-0.4
		c2.2,1.6,4,2.8,5,3.4c0.2-0.7,0.5-1.5,0.6-2.2C481.7,82.1,480.2,81,478.4,79.5z"/>
	<g id="Layer_1_2_">
		<g id="Azure_1_">
			<g>
				<path style="fill:#0078D7;" d="M414.4,76.5c-0.8,0-1.5,0.5-1.8,1.2h-11.4l0,0c-1.9,0-3.5-1.6-3.5-3.5c0-2,1.6-3.5,3.5-3.5l0,0h0
					l0,0h1.6c0.1-0.4,0.2-0.8,0.4-1.2c0.1-0.1,0.1-0.3,0.2-0.4c0.8-1.4,2.3-2.3,4-2.3c1.6,0,2.9,0.8,3.8,1.9c0.5-0.2,1-0.4,1.5-0.5
					c-1.1-1.8-3-2.9-5.3-2.9c-2.6,0-4.8,1.6-5.7,3.9c0,0,0,0,0,0l0,0c0,0,0,0,0,0h-0.4c-2.8,0-5.1,2.3-5.1,5.1s2.3,5.1,5.1,5.1h11.5
					c0.3,0.7,1,1.2,1.8,1.2c1.1,0,2-0.9,2-2C416.4,77.4,415.5,76.5,414.4,76.5z"/>
				<path style="fill:#0078D7;" d="M420.5,85.2c3.4,0,6.4-2.9,6.4-6.3c0-3.4-2.8-6.2-6.2-6.2c-1.2-2.3-3.5-3.9-6.3-3.9
					c-3.4,0-6.1,2.4-6.8,5.5c-1.6,0.2-3,1-3.9,2.3h8.3c0.6-0.7,1.4-1.2,2.4-1.2c1.7,0,3.1,1.4,3.1,3.1s-1.4,3.1-3.1,3.1
					c-1,0-1.8-0.4-2.4-1.2h-9.3c0.4,2.6,2.5,4.8,5.2,4.8H420.5z"/>
			</g>
		</g>
	</g>
	<g>
		<path style="fill:#59B4D9;" d="M473.7,329.4c-4.5,3.4-9.9,5.1-15.1,5.1c-7.6,0-15-3.4-19.9-9.8c-8.5-11-6.5-26.7,4.5-35.1
			c4.6-3.4,9.9-5.1,15.2-5.1c7.6,0,15,3.4,19.9,9.8C486.8,305.2,484.6,320.9,473.7,329.4"/>
		<path style="fill:#FFFFFF;" d="M478.4,312.5c0.6-1.7,0.5-3.7-0.7-5.1c-1.7-2.2-4.6-2.7-6.9-1.4c-2.6-2.3-5.4-4.9-8.3-7.8
			c8.9-4.9,15.2-4.4,15.6-4.4c-1.1-1.4-2.3-2.6-3.7-3.7c-3.9-0.6-9.9-0.5-16.7,3.2l0,0l0,0c-2.3-2.3-4.6-4.9-6.9-7.7
			c-1.1,0.4-2.2,0.8-3.3,1.4c1.7,2.8,4,5.7,6.7,8.5l0,0l0,0c-2.3,1.6-4.6,3.5-7,6c-0.2,0.4-0.6,0.6-0.8,1c-1.4-0.2-2.8-0.2-4.1,0.2
			c-2.2-4.9-2.1-8.7-1.7-10.7c-0.8,1.1-1.7,2.2-2.6,3.3c-0.6,2.4-0.7,5.9,1,10c-2.1,2.7-2.1,6.3,0,9.1c0.1,0.2,0.4,0.5,0.6,0.6
			c-0.8,3-1.4,6.1-1.5,8.7c0.2,0.4,0.4,0.6,0.6,1c1.2,1.6,2.6,2.9,4,4.1c-0.1-2.8,0-6.8,1.7-11.3c1.2,0.1,2.3-0.1,3.5-0.6
			c0.6,0.6,1.4,1.1,2.1,1.7c2.4,2,4.9,3.4,7.3,4.6c-0.1,1.2,0.1,2.4,1,3.5c1.7,2.2,4.7,2.6,6.9,1c0.5-0.4,0.8-0.7,1.1-1.2
			c3.8,0.8,7.2,1,9.6,1c1.1-1.1,2.2-2.3,3-3.5l0,0c0.1-0.1,0.1-0.2,0.2-0.4c-1.6,0.4-6.1,1-12.3-0.8c-0.1-0.7-0.5-1.4-0.8-2
			c-1.6-2.1-4.5-2.6-6.6-1.1c-2.2-1.2-4.4-2.7-6.7-4.5c-0.5-0.4-1-0.7-1.4-1.1c1.5-2.2,1.6-5.1,0.4-7.6c0.2-0.2,0.6-0.6,0.8-0.8
			c2.2-2,4.7-3.9,6.6-5.3c3.2,2.9,6.4,5.6,9.5,8c-0.8,1.7-0.7,3.9,0.6,5.5c1.8,2.3,5.3,2.8,7.6,1c0.1-0.1,0.2-0.2,0.4-0.4
			c2.2,1.6,4,2.8,5,3.4c0.2-0.7,0.5-1.5,0.6-2.2C481.7,315.1,480.2,314,478.4,312.5z"/>
	</g>
	<g id="Layer_1_3_">
		<g id="Azure_2_">
			<g>
				<path style="fill:#0078D7;" d="M411.9,305c-0.8,0-1.5,0.5-1.8,1.2h-11.4l0,0c-1.9,0-3.5-1.6-3.5-3.5s1.6-3.5,3.5-3.5l0,0h0l0,0
					h1.6c0.1-0.4,0.2-0.8,0.4-1.2c0.1-0.1,0.1-0.3,0.2-0.4c0.8-1.4,2.3-2.3,4-2.3c1.6,0,2.9,0.8,3.8,1.9c0.5-0.2,1-0.4,1.5-0.5
					c-1.1-1.8-3-2.9-5.3-2.9c-2.6,0-4.8,1.6-5.7,3.9c0,0,0,0,0,0l0,0c0,0,0,0,0,0h-0.4c-2.8,0-5.1,2.3-5.1,5.1s2.3,5.1,5.1,5.1h11.5
					c0.3,0.7,1,1.2,1.8,1.2c1.1,0,2-0.9,2-2C413.9,305.9,413,305,411.9,305z"/>
				<path style="fill:#0078D7;" d="M418,313.7c3.4,0,6.4-2.9,6.4-6.3s-2.8-6.2-6.2-6.2c-1.2-2.3-3.5-3.9-6.3-3.9
					c-3.4,0-6.1,2.4-6.8,5.5c-1.6,0.2-3,1-3.9,2.3h8.3c0.6-0.7,1.4-1.2,2.4-1.2c1.7,0,3.1,1.4,3.1,3.1s-1.4,3.1-3.1,3.1
					c-1,0-1.8-0.4-2.4-1.2h-9.3c0.4,2.6,2.5,4.8,5.2,4.8H418z"/>
			</g>
		</g>
	</g>
</g>
</svg>
