<?xml version="1.0" encoding="utf-8"?>
<!-- Generator: Adobe Illustrator 21.0.2, SVG Export Plug-In . SVG Version: 6.00 Build 0)  -->
<svg version="1.1" xmlns="http://www.w3.org/2000/svg" xmlns:xlink="http://www.w3.org/1999/xlink" x="0px" y="0px" width="976px"
	 height="498px" viewBox="0 0 976 498" style="enable-background:new 0 0 976 498;" xml:space="preserve">
<g id="Layer_1">
	<path style="fill:#59B4D9;" d="M127.8,233.4c0,1.1,0.9,2,2,2h46c1.1,0,2-0.9,2-2v-31.3h-50V233.4z"/>
	<path style="fill:#A0A1A2;" d="M175.7,191.8h-46c-1.1,0-2,0.9-2,2v10.6h50v-10.6C177.8,192.7,176.9,191.8,175.7,191.8"/>
	<path style="opacity:0.2;fill:#FFFFFF;enable-background:new    ;" d="M129.8,191.8c-1.1,0-2,0.9-2,2v7.3v3.3v28c0,1.1,0.9,2,2,2
		h2.2l39.4-42.6H129.8z"/>
	<rect x="140.6" y="196.6" style="fill:#FFFFFF;" width="33.7" height="3.9"/>
	<path style="fill:#59B4D9;" d="M139.1,198.5c0,2.7-2.2,4.9-4.9,4.9s-4.9-2.2-4.9-4.9c0-2.7,2.2-4.9,4.9-4.9
		C136.9,193.6,139.1,195.8,139.1,198.5"/>
	<polygon style="fill:#FFFFFF;" points="133.7,199 135.9,201.3 134.7,201.3 131.7,198.5 134.7,195.7 135.9,195.7 133.7,198 
		139.1,198 139.1,199 	"/>
	<text transform="matrix(1 0 0 1 129.7981 256.7323)" style="fill:#767676; font-family:'SegoeUI'; font-size:12px;">Browser</text>
	<text transform="matrix(1 0 0 1 254.8244 256.7323)" style="fill:#767676; font-family:'SegoeUI'; font-size:12px;">Azure API Apps</text>
	<text transform="matrix(1 0 0 1 373.255 256.7323)" style="fill:#767676; font-family:'SegoeUI'; font-size:12px;">Azure Maching Learning</text>
	<text transform="matrix(1 0 0 1 393.464 389.399)" style="fill:#767676; font-family:'SegoeUI'; font-size:12px;">Azure Event Hub</text>
	<text transform="matrix(1 0 0 1 546.9787 389.399)" style="fill:#767676; font-family:'SegoeUI'; font-size:12px;">Azure Stream Analytics</text>
	<text transform="matrix(1 0 0 1 717.2568 389.399)"><tspan x="0" y="0" style="fill:#767676; font-family:'SegoeUI'; font-size:12px;">Azure Data Lake Storage</tspan><tspan x="16" y="14.4" style="fill:#767676; font-family:'SegoeUI'; font-size:12px;">(Archive of events)</tspan></text>
	<text transform="matrix(1 0 0 1 391.8031 124.7323)"><tspan x="0" y="0" style="fill:#767676; font-family:'SegoeUI'; font-size:12px;">Azure Cosmos DB</tspan><tspan x="-31.3" y="14.4" style="fill:#767676; font-family:'SegoeUI'; font-size:12px;">(User profile + Recent events)</tspan></text>
	<g>
		<path style="fill:#59B4D9;" d="M465,230l-15.6-27v-10.9h0.3c1.9,0,3.4-1.5,3.4-3.4s-1.5-3.4-3.4-3.4h-17c-1.9,0-3.4,1.5-3.4,3.4
			s1.5,3.4,3.4,3.4h0.3V203l-15.6,27c-1.7,3-0.3,5.4,3.1,5.4h41.4C465.3,235.3,466.7,232.9,465,230z"/>
		<polygon style="fill:#B8D432;" points="430.2,218.4 423.8,229.5 458.6,229.5 452.1,218.4 		"/>
		<path style="fill:#7FBA00;" d="M442,222.9c1.7,0,3.1-1.4,3.1-3.1c0-0.5-0.1-1-0.3-1.4h-5.6c-0.2,0.4-0.3,0.9-0.3,1.4
			C438.9,221.5,440.3,222.9,442,222.9z"/>
		<circle style="fill:#7FBA00;" cx="445.9" cy="225.3" r="1.5"/>
		<path style="opacity:0.25;fill:#FFFFFF;enable-background:new    ;" d="M417.4,230l15.6-27v-10.9h-0.3c-1.9,0-3.4-1.5-3.4-3.4
			s1.5-3.4,3.4-3.4h7.3v17.6l-8.2,32.4h-11.3C417.1,235.3,415.7,232.9,417.4,230z"/>
	</g>
	<g>
		<path style="fill:#7A7A7A;" d="M631.6,350.7l1.5-4l7.1-2.4v-5.7l-0.8-0.3l-6.3-1.8l-1.5-4l3.2-6.6l0,0l-4-4l-0.8,0.4l-5.8,3
			l-4.1-1.7l-2.6-6.8h-5.8l-0.3,0.8l-1.9,6.1l-4,1.5l-6.8-3l-4.1,4l0.4,0.8l1.8,3.4c3.2-1.8,6.6-2.6,10.2-2.6
			c5,0.3,9.7,2.1,13.3,5.4c0.8,0.6,1.5,1.2,2.4,2.1c0.4,0.4,0.8,1,1,1.4c2.4,4.3,1.4,9.7-2.6,12.9c-3,2.4-7.1,2.8-10.2,1.4
			c-0.4-0.3-0.6-0.3-0.8-0.4l0,0l0,0c-0.8-0.4-1.5-1-2.2-1.5c-0.3,0-0.4-0.3-0.8-0.3c-0.8,0-1.5,0.4-2.2,1l-0.3,0.3l0,0
			c-2.4,2.4-5.2,4.3-8.2,5.2l-1.2,2.4l3.9,3.9l0.3,0.3l0.8-0.4l5.8-3l4,1.5l2.2,6.8h5.8l0.3-0.8l2.1-6.1l4-1.5l6.8,3l3.9-4.3
			l-0.4-0.8L631.6,350.7z"/>
		<path style="fill:#48C8EF;" d="M597,340.6L597,340.6L597,340.6c-4.4,4.6-11.5,4.6-15.6-0.3c-0.4-0.6-1.4-0.6-1.8,0
			c-0.3,0.3-0.4,0.6-0.4,1s0.3,0.8,0.4,1c5.2,5.8,13.8,5.9,19.3,0.3l0,0l0,0c4.4-4.4,11.2-4.5,15.5,0.4c0.6,0.6,1.4,0.6,1.8,0
			c0.3-0.3,0.4-0.6,0.4-1s-0.3-0.8-0.4-1C611.1,335.2,602.5,335.1,597,340.6z"/>
		<path style="fill:#00ABEC;" d="M606.7,343.1c-2.4,0-4.4,0.8-6.2,2.6l-0.3,0.3l-0.3,0.3c-3,3.2-7.1,4.8-11.2,4.6
			c-4.3,0-8-2.1-11.1-5.2c-0.6-0.6-1.4-0.6-1.8,0c-0.1,0-0.1,0.3-0.1,0.6s0.4,1,0.6,1.2c3.4,3.9,8,6.1,12.9,6.1
			c4.8,0.3,9.4-1.8,13-5.7l0.3-0.3l0.3-0.3c1.2-1.2,2.6-1.8,4.3-1.8c1.5,0,3,0.8,4.3,2.1c0.6,0.6,1.4,0.6,1.8,0
			c0.3-0.3,0.4-0.6,0.4-1s-0.3-0.8-0.4-1C611.4,344.1,609.2,343.1,606.7,343.1z"/>
		<path style="fill:#84D6EF;" d="M595.9,337.8c3-3.2,7.1-4.8,11.2-4.8c4.1,0,8,2.1,10.8,5.2c0.6,0.6,1.4,0.6,1.8,0
			c0.3-0.3,0.4-0.6,0.4-1s-0.3-0.8-0.4-1c-3.4-3.9-8-6.1-12.9-6.1s-9.4,1.8-13,5.7l-0.3,0.3l-0.3,0.3c-1.2,1.2-2.6,1.8-4.3,1.8
			s-3-0.8-4.3-2.1c-0.6-0.6-1.4-0.6-1.8,0c-0.3,0.3-0.4,0.6-0.4,1s0.3,0.8,0.4,1c1.5,1.8,3.9,2.8,6.1,2.8c2.4,0,4.4-0.8,6.2-2.6
			l0.3-0.3L595.9,337.8z"/>
		<g style="opacity:0.2;enable-background:new    ;">
			<path style="fill:#F1F1F1;" d="M607.9,348.9c-0.3,0-0.4-0.3-0.8-0.3c-0.8,0-1.5,0.4-2.2,1l-0.3,0.3c-2.4,2.4-5.2,4.3-8.2,5.2
				l-1.2,2.4l2.1,2.1L607.9,348.9L607.9,348.9z"/>
			<path style="fill:#F1F1F1;" d="M596.9,330.4c3.2-1.8,6.6-2.6,10.2-2.6c5,0.3,9.7,2.1,13.3,5.4c0.6,0.5,1.2,0.9,1.8,1.4l10.7-10.7
				l-2.2-2.2l-0.8,0.4l-5.8,3l-4-1.5l-2.6-6.8h-5.8l-0.3,0.8l-1.9,6.1l-4,1.5l-6.8-3l-4.1,4l0.4,0.8L596.9,330.4z"/>
		</g>
	</g>
	<g>
		<path style="fill:#3999C6;" d="M792.9,319.6l-1.8-3.2c-0.7-1.2-2-2-3.4-2h-28.4c-2.2,0-3.9,1.8-3.9,3.9v1.8v0.2h38.3
			C793.3,320.2,793.1,319.9,792.9,319.6z"/>
		<path style="fill:#59B4D9;" d="M816.5,322.5h-61.2v2.9v35.1c0,2.2,1.8,3.9,3.9,3.9H815c2.2,0,3.9-1.8,3.9-3.9v-34.4
			C819,324.5,817.9,323.1,816.5,322.5z M795.2,341.6l-11.3,16.1c-0.1,0.1-0.3,0.3-0.4,0.3c-0.1,0-0.2,0-0.3-0.1
			c-0.3-0.1-0.4-0.4-0.3-0.6l2.9-9.6h-6.6c-0.2,0-0.4-0.1-0.5-0.3c-0.1-0.2-0.1-0.4,0.1-0.6l11-15.9c0.1-0.1,0.3-0.3,0.4-0.3
			c0.1,0,0.1,0,0.3,0.1c0.3,0.1,0.4,0.4,0.3,0.6l-2.8,9.4h6.8l0,0c0.3,0,0.6,0.3,0.6,0.6C795.3,341.4,795.3,341.4,795.2,341.6z"/>
	</g>
	<g>
		<path style="fill:#B8D432;" d="M446.3,342.5c0,0.5-0.3,0.8-0.8,0.8H439c-0.5,0-0.8-0.3-0.8-0.8v-4.8c0-0.5,0.3-0.8,0.8-0.8h6.5
			c0.5,0,0.8,0.3,0.8,0.8V342.5z"/>
		<path style="fill:#B8D432;" d="M458,347.5c0,0.5-0.3,0.8-0.8,0.8h-6.5c-0.5,0-0.8-0.3-0.8-0.8v-4.8c0-0.5,0.3-0.8,0.8-0.8h6.5
			c0.5,0,0.8,0.3,0.8,0.8V347.5z"/>
		<path style="fill:#B8D432;" d="M446.3,352.5c0,0.5-0.3,0.8-0.8,0.8H439c-0.5,0-0.8-0.3-0.8-0.8v-4.8c0-0.5,0.3-0.8,0.8-0.8h6.5
			c0.5,0,0.8,0.3,0.8,0.8V352.5z"/>
		<path style="fill:#B8D432;" d="M434.7,337.5c0,0.5-0.3,0.8-0.8,0.8h-6.7c-0.5,0-0.8-0.3-0.8-0.8v-5c0-0.5,0.3-0.8,0.8-0.8h6.5
			c0.7,0,1,0.3,1,0.8V337.5z"/>
		<path style="fill:#0072C6;" d="M463.8,320L463.8,320h-5H422h-3.2h-1.7c-0.5,0-0.8,0.3-0.8,0.8v10c0,0.5,0.3,0.8,0.8,0.8h5
			c0.5,0,0.8-0.3,0.8-0.8v-4.2h35v4.2c0,0.5,0.3,0.8,1,0.8h4.8c0.5,0,0.8-0.3,0.8-0.8v-5v-5C464.7,320.3,464.3,320,463.8,320z"/>
		<path style="fill:#0072C6;" d="M463.8,358.5H459c-0.5,0-0.8,0.3-0.8,0.8v4H423v-4.2c0-0.5-0.3-0.8-1-0.8h-4.8
			c-0.5,0-0.8,0.3-0.8,1v9.8c0,0.5,0.3,0.8,0.8,0.8h1.7h3.3H459h4.7h0.2c0.5,0,0.8-0.3,0.8-0.8v-9.8
			C464.7,358.8,464.3,358.5,463.8,358.5z"/>
		<path style="fill:#B8D432;" d="M434.7,347.5c0,0.5-0.3,0.8-0.8,0.8h-6.7c-0.5,0-0.8-0.3-0.8-0.8v-5c0-0.5,0.3-0.8,0.8-0.8h6.5
			c0.7,0,1,0.3,1,0.8V347.5z"/>
		<path style="fill:#B8D432;" d="M434.7,357.5c0,0.5-0.3,0.8-0.8,0.8h-6.7c-0.5,0-0.8-0.3-0.8-0.8v-5c0-0.5,0.3-0.8,0.8-0.8h6.5
			c0.7,0,1,0.3,1,0.8V357.5z"/>
	</g>
	<g>
		<path style="fill:#59B4D9;" d="M293.9,221.7h-10.7l0,0c-5.3,0-9.6-4.3-9.6-9.7c0-5.4,4.1-9.7,9.6-9.7c1,0,2,0.2,3.2,0.4l2,0.6
			l0.6-2c1.9-6.2,7.9-10.1,14.7-10.1c8.3,0,14.6,6.4,14.6,14.6c0,1.3-0.2,2.6-0.6,4l-0.8,3l3.2-0.4c0.2,0,0.4,0,0.6,0
			c2.4,0,4.3,2,4.3,4.3c0,2.3-1.7,4-3.7,4.3c0,0-10.3,0-10.7,0c-0.4-3-1.9-5.6-4-7.7c-2.6-2.6-6.2-4.2-10-4.2c-2.6,0-5.3,0.7-7.3,2
			l2.3,3.6c1.7-1,3.4-1.3,5.3-1.3c2.6,0,5.3,1,7,3c1.9,1.9,3,4.3,3,7c0,2.6-1,5.3-3,7c-1.9,2-4.3,3-7,3c-1.9,0-3.7-0.6-5.3-1.7
			l-2.3,3.6c2.3,1.3,4.9,2.3,7.3,2.3c3.7,0,7.3-1.3,10-4.1c2.3-2.3,3.6-5.3,4-8.4c0.6,0,10.9,0,10.9,0h0.2c4.3-0.4,7.6-4.1,7.6-8.6
			c0-3.6-3.4-7-7.3-7.7c0.2-0.7,0.2-1.1,0.2-2.3c0-10.6-7.4-18.9-19.3-18.9l0,0c-7.6,0-14.3,4.3-17,11.3c-1,0-1.7-0.4-2.8-0.4
			c-7.8-0.1-14,5.9-14,13.5c0,7.6,6.2,13.5,13.7,13.5h11.8L293.9,221.7z"/>
		<circle style="fill:#68217A;" cx="296.7" cy="223.3" r="6.7"/>
	</g>
	<g>
		<path style="fill:none;stroke:#00188F;stroke-width:3;stroke-linecap:round;stroke-linejoin:round;stroke-miterlimit:10;" d="
			M472.4,68.8c1.8,5.7-11.3,14.9-29.3,20.5c-18,5.6-34,5.4-35.8-0.3c-1.8-5.7,11.3-14.9,29.3-20.5C454.6,62.9,470.6,63,472.4,68.8z"
			/>
		<path style="fill:#BAD80A;" d="M435.6,58.2c11.4-2.4,22.5,4.9,24.9,16.3c2.4,11.4-4.9,22.5-16.3,24.9
			c-11.4,2.4-22.5-4.9-24.9-16.3C416.9,71.8,424.2,60.6,435.6,58.2z"/>
		<g>
			<g>
				<defs>
					
						<ellipse id="SVGID_137_" transform="matrix(0.979 -0.204 0.204 0.979 -6.8353 91.4105)" cx="439.9" cy="78.9" rx="21.1" ry="21.1"/>
				</defs>
				<clipPath id="SVGID_2_">
					<use xlink:href="#SVGID_137_"  style="overflow:visible;"/>
				</clipPath>
				<path style="clip-path:url(#SVGID_2_);fill:#00BCF2;" d="M431.3,81.9c-1,0-24.1,0-25.1,0c-3.1,0-5.6,2.5-5.6,5.6
					c0,3.1,2.5,5.6,5.6,5.6c1,0,24.1,0,25.1,0c3.1,0,5.6-2.5,5.6-5.6C436.9,84.4,434.4,81.9,431.3,81.9z"/>
			</g>
			<g>
				<defs>
					
						<ellipse id="SVGID_139_" transform="matrix(0.979 -0.204 0.204 0.979 -6.8353 91.4105)" cx="439.9" cy="78.9" rx="21.1" ry="21.1"/>
				</defs>
				<clipPath id="SVGID_4_">
					<use xlink:href="#SVGID_139_"  style="overflow:visible;"/>
				</clipPath>
				<path style="clip-path:url(#SVGID_4_);fill:#00BCF2;" d="M425,75c-1,0-24.1,0-25.1,0c-3.1,0-5.6,2.5-5.6,5.6
					c0,3.1,2.5,5.6,5.6,5.6c1,0,24.1,0,25.1,0c3.1,0,5.6-2.5,5.6-5.6C430.6,77.5,428.1,75,425,75z"/>
			</g>
			<g>
				<defs>
					
						<ellipse id="SVGID_141_" transform="matrix(0.979 -0.204 0.204 0.979 -6.8353 91.4105)" cx="439.9" cy="78.9" rx="21.1" ry="21.1"/>
				</defs>
				<clipPath id="SVGID_6_">
					<use xlink:href="#SVGID_141_"  style="overflow:visible;"/>
				</clipPath>
				<path style="clip-path:url(#SVGID_6_);fill:#00BCF2;" d="M467.7,65.3c-1.1,0-25.1,0-26.2,0c-3.2,0-5.8,2.6-5.8,5.8
					c0,3.2,2.6,5.8,5.8,5.8c1.1,0,25.1,0,26.2,0c3.2,0,5.8-2.6,5.8-5.8C473.5,67.9,470.9,65.3,467.7,65.3z"/>
			</g>
			<g>
				<defs>
					
						<ellipse id="SVGID_143_" transform="matrix(0.979 -0.204 0.204 0.979 -6.8353 91.4105)" cx="439.9" cy="78.9" rx="21.1" ry="21.1"/>
				</defs>
				<clipPath id="SVGID_8_">
					<use xlink:href="#SVGID_143_"  style="overflow:visible;"/>
				</clipPath>
				<path style="clip-path:url(#SVGID_8_);fill:#00BCF2;" d="M464.5,60.5c-0.7,0-16.3,0-16.9,0c-2.1,0-3.8,1.7-3.8,3.8
					c0,2.1,1.7,3.8,3.8,3.8c0.7,0,16.3,0,16.9,0c2.1,0,3.8-1.7,3.8-3.8C468.3,62.2,466.6,60.5,464.5,60.5z"/>
			</g>
			<g>
				<defs>
					
						<ellipse id="SVGID_145_" transform="matrix(0.979 -0.204 0.204 0.979 -6.8353 91.4105)" cx="439.9" cy="78.9" rx="21.1" ry="21.1"/>
				</defs>
				<clipPath id="SVGID_10_">
					<use xlink:href="#SVGID_145_"  style="overflow:visible;"/>
				</clipPath>
				<path style="clip-path:url(#SVGID_10_);fill:#00BCF2;" d="M470.6,81.2c-0.9,0-20.4,0-21.3,0c-2.6,0-4.7,2.1-4.7,4.7
					c0,2.6,2.1,4.7,4.7,4.7c0.9,0,20.4,0,21.3,0c2.6,0,4.7-2.1,4.7-4.7C475.3,83.3,473.2,81.2,470.6,81.2z"/>
			</g>
			<g>
				<defs>
					
						<ellipse id="SVGID_147_" transform="matrix(0.979 -0.204 0.204 0.979 -6.8353 91.4105)" cx="439.9" cy="78.9" rx="21.1" ry="21.1"/>
				</defs>
				<clipPath id="SVGID_12_">
					<use xlink:href="#SVGID_147_"  style="overflow:visible;"/>
				</clipPath>
				<path style="clip-path:url(#SVGID_12_);fill:#00BCF2;" d="M467.8,88c-0.9,0-20.4,0-21.3,0c-2.6,0-4.7,2.1-4.7,4.7
					c0,2.6,2.1,4.7,4.7,4.7c0.9,0,20.4,0,21.3,0c2.6,0,4.7-2.1,4.7-4.7C472.6,90.1,470.5,88,467.8,88z"/>
			</g>
		</g>
		<circle style="fill:#00188F;" cx="469.9" cy="95.8" r="4.1"/>
		<circle style="fill:#00188F;" cx="457.2" cy="51.1" r="6"/>
		<path style="fill:none;stroke:#00188F;stroke-width:3;stroke-linecap:round;stroke-linejoin:round;stroke-miterlimit:10;" d="
			M472.4,68.8c1.8,5.7-11.3,14.9-29.3,20.5c-18,5.6-34,5.4-35.8-0.3"/>
		<g>
			<path style="fill:none;stroke:#00188F;stroke-width:3;stroke-linecap:round;stroke-linejoin:round;stroke-miterlimit:10;" d="
				M414.2,48.2c0,5.3-4.3,9.6-9.6,9.6"/>
			<path style="fill:none;stroke:#00188F;stroke-width:3;stroke-linecap:round;stroke-linejoin:round;stroke-miterlimit:10;" d="
				M423.7,57.8c-5.3,0-9.6-4.3-9.6-9.6"/>
			<path style="fill:none;stroke:#00188F;stroke-width:3;stroke-linecap:round;stroke-linejoin:round;stroke-miterlimit:10;" d="
				M414.2,67.3c0-5.3,4.3-9.6,9.6-9.6"/>
			<path style="fill:none;stroke:#00188F;stroke-width:3;stroke-linecap:round;stroke-linejoin:round;stroke-miterlimit:10;" d="
				M404.6,57.8c5.3,0,9.6,4.3,9.6,9.6"/>
		</g>
	</g>
	<g>
		<g>
			<line style="fill:none;stroke:#969696;stroke-miterlimit:10;" x1="194.8" y1="211.8" x2="253" y2="211.8"/>
			<g>
				<path style="fill:#969696;" d="M246.1,216.6c-0.1-0.2-0.1-0.5,0.2-0.7l6.5-4.1l-6.5-4.1c-0.2-0.1-0.3-0.5-0.2-0.7
					c0.1-0.2,0.5-0.3,0.7-0.2l7.1,4.5c0.1,0.1,0.2,0.3,0.2,0.4s-0.1,0.3-0.2,0.4l-7.1,4.5c-0.1,0.1-0.2,0.1-0.3,0.1
					C246.4,216.9,246.2,216.8,246.1,216.6z"/>
			</g>
		</g>
	</g>
	<g>
		<g>
			<line style="fill:none;stroke:#969696;stroke-miterlimit:10;" x1="346.2" y1="211.8" x2="404.3" y2="211.8"/>
			<g>
				<path style="fill:#969696;" d="M397.5,216.6c-0.1-0.2-0.1-0.5,0.2-0.7l6.5-4.1l-6.5-4.1c-0.2-0.1-0.3-0.5-0.2-0.7
					c0.1-0.2,0.5-0.3,0.7-0.2l7.1,4.5c0.1,0.1,0.2,0.3,0.2,0.4s-0.1,0.3-0.2,0.4l-7.1,4.5c-0.1,0.1-0.2,0.1-0.3,0.1
					C397.7,216.9,397.6,216.8,397.5,216.6z"/>
			</g>
		</g>
	</g>
	<g>
		<g>
			<line style="fill:none;stroke:#969696;stroke-miterlimit:10;" x1="487.5" y1="344.5" x2="545.6" y2="344.5"/>
			<g>
				<path style="fill:#969696;" d="M538.8,349.3c-0.1-0.2-0.1-0.5,0.2-0.7l6.5-4.1l-6.5-4.1c-0.2-0.1-0.3-0.5-0.2-0.7
					s0.5-0.3,0.7-0.2l7.1,4.5c0.1,0.1,0.2,0.3,0.2,0.4s-0.1,0.3-0.2,0.4l-7.1,4.5c-0.1,0.1-0.2,0.1-0.3,0.1
					C539.1,349.5,538.9,349.4,538.8,349.3z"/>
			</g>
		</g>
	</g>
	<g>
		<g>
			<line style="fill:none;stroke:#969696;stroke-miterlimit:10;" x1="665.5" y1="344.5" x2="723.6" y2="344.5"/>
			<g>
				<path style="fill:#969696;" d="M716.8,349.3c-0.1-0.2-0.1-0.5,0.2-0.7l6.5-4.1l-6.5-4.1c-0.2-0.1-0.3-0.5-0.2-0.7
					s0.5-0.3,0.7-0.2l7.1,4.5c0.1,0.1,0.2,0.3,0.2,0.4s-0.1,0.3-0.2,0.4l-7.1,4.5c-0.1,0.1-0.2,0.1-0.3,0.1
					C717.1,349.5,716.9,349.4,716.8,349.3z"/>
			</g>
		</g>
	</g>
	<g>
		<line style="fill:none;stroke:#969696;stroke-miterlimit:10;" x1="298.6" y1="172.7" x2="298.6" y2="91.2"/>
		<g>
			<g>
				<line style="fill:none;stroke:#969696;stroke-miterlimit:10;" x1="298.2" y1="91" x2="378.1" y2="91"/>
				<g>
					<path style="fill:#969696;" d="M371.3,95.8c-0.1-0.2-0.1-0.5,0.2-0.7l6.5-4.1l-6.5-4.1c-0.2-0.1-0.3-0.5-0.2-0.7
						c0.1-0.2,0.5-0.3,0.7-0.2l7.1,4.5c0.1,0.1,0.2,0.3,0.2,0.4s-0.1,0.3-0.2,0.4L372,96c-0.1,0.1-0.2,0.1-0.3,0.1
						C371.6,96,371.4,96,371.3,95.8z"/>
				</g>
			</g>
		</g>
	</g>
	<g>
		<line style="fill:none;stroke:#969696;stroke-miterlimit:10;" x1="295.9" y1="272.7" x2="295.9" y2="347"/>
		<g>
			<g>
				<line style="fill:none;stroke:#969696;stroke-miterlimit:10;" x1="295.5" y1="347.2" x2="377.5" y2="347.2"/>
				<g>
					<path style="fill:#969696;" d="M370.6,352c-0.1-0.2-0.1-0.5,0.2-0.7l6.5-4.1l-6.5-4.1c-0.2-0.1-0.3-0.5-0.2-0.7
						s0.5-0.3,0.7-0.2l7.1,4.5c0.1,0.1,0.2,0.3,0.2,0.4s-0.1,0.3-0.2,0.4l-7.1,4.5c-0.1,0.1-0.2,0.1-0.3,0.1
						C370.9,352.2,370.7,352.1,370.6,352z"/>
				</g>
			</g>
		</g>
	</g>
</g>
<g id="Grid">
</g>
</svg>
