<?xml version="1.0" encoding="UTF-8" standalone="no"?>
<!DOCTYPE svg PUBLIC "-//W3C//DTD SVG 1.1//EN" "http://www.w3.org/Graphics/SVG/1.1/DTD/svg11.dtd">
<!-- Generated by Microsoft Visio, SVG Export get-token.svg Page-1 -->
<svg xmlns="http://www.w3.org/2000/svg" xmlns:xlink="http://www.w3.org/1999/xlink" xmlns:ev="http://www.w3.org/2001/xml-events"
		xmlns:v="http://schemas.microsoft.com/visio/2003/SVGExtensions/" width="8.65518in" height="4.57698in"
		viewBox="0 0 623.173 329.543" xml:space="preserve" color-interpolation-filters="sRGB" class="st18">
	<v:documentProperties v:langID="1033" v:viewMarkup="false"/>

	<style type="text/css">
	<![CDATA[
		.st1 {fill:#ffffff;stroke:none;stroke-linecap:butt;stroke-width:0.840659}
		.st2 {stroke:#3c3c41;stroke-linecap:butt;stroke-width:0.840659}
		.st3 {fill:#3c3c41;stroke:none;stroke-linecap:butt;stroke-width:0.840659}
		.st4 {fill:url(#grad0-23);stroke:none;stroke-linecap:butt;stroke-width:0.840659}
		.st5 {fill:#ffffff;fill-opacity:0.8;stroke:none;stroke-linecap:butt;stroke-width:0.840659}
		.st6 {fill:#505150;stroke:none;stroke-linecap:butt;stroke-width:0.840659}
		.st7 {fill:url(#grad0-67);stroke:none;stroke-linecap:butt;stroke-width:0.840659}
		.st8 {fill:url(#grad1-72);stroke:none;stroke-linecap:butt;stroke-width:0.840659}
		.st9 {fill:#f7921e;fill-opacity:0.75;stroke:none;stroke-linecap:butt;stroke-width:0.840659}
		.st10 {fill:url(#grad0-83);stroke:none;stroke-linecap:butt;stroke-width:0.840659}
		.st11 {fill:url(#grad0-87);stroke:none;stroke-linecap:butt;stroke-width:0.840659}
		.st12 {fill:none;stroke:none;stroke-linecap:butt;stroke-width:0.840659}
		.st13 {fill:#2f2f2f;stroke:none;stroke-linecap:butt;stroke-width:0.840659}
		.st14 {fill:none;stroke:none;stroke-linecap:round;stroke-linejoin:round;stroke-width:0.75}
		.st15 {fill:#000000;font-family:Calibri;font-size:1.16666em}
		.st16 {fill:#000000;font-family:Calibri;font-size:1.16666em;font-weight:bold}
		.st17 {font-size:1em}
		.st18 {fill:none;fill-rule:evenodd;font-size:12px;overflow:visible;stroke-linecap:square;stroke-miterlimit:3}
	]]>
	</style>

	<defs id="Patterns_And_Gradients">
		<linearGradient id="grad0-23" x1="0" y1="0" x2="1" y2="0" gradientTransform="rotate(-90 0.5 0.5)">
			<stop offset="0" stop-color="#007ed8" stop-opacity="1"/>
			<stop offset="1" stop-color="#00abde" stop-opacity="1"/>
		</linearGradient>
		<linearGradient id="grad0-67" x1="0" y1="0" x2="1" y2="0" gradientTransform="rotate(-90 0.5 0.5)">
			<stop offset="0" stop-color="#2e76bc" stop-opacity="1"/>
			<stop offset="0.16" stop-color="#347dc0" stop-opacity="1"/>
			<stop offset="0.53" stop-color="#4c8dcb" stop-opacity="1"/>
			<stop offset="0.82" stop-color="#6198d1" stop-opacity="1"/>
			<stop offset="1" stop-color="#699cd3" stop-opacity="1"/>
		</linearGradient>
		<radialGradient id="grad1-72" cx="1" cy="1" r="1.4">
			<stop offset="0.27" stop-color="#fed70a" stop-opacity="1"/>
			<stop offset="0.49" stop-color="#ffcc12" stop-opacity="1"/>
			<stop offset="0.88" stop-color="#fbac1d" stop-opacity="1"/>
			<stop offset="1" stop-color="#f9a120" stop-opacity="1"/>
		</radialGradient>
		<linearGradient id="grad0-83" x1="0" y1="0" x2="1" y2="0" gradientTransform="rotate(-90 0.5 0.5)">
			<stop offset="0" stop-color="#1b8ab3" stop-opacity="1"/>
			<stop offset="0.09" stop-color="#1f9dc4" stop-opacity="1"/>
			<stop offset="0.24" stop-color="#26b5d8" stop-opacity="1"/>
			<stop offset="0.4" stop-color="#35c4e7" stop-opacity="1"/>
			<stop offset="0.57" stop-color="#4ac7e8" stop-opacity="1"/>
			<stop offset="0.78" stop-color="#50c8e9" stop-opacity="1"/>
		</linearGradient>
		<linearGradient id="grad0-87" x1="0" y1="0" x2="1" y2="0" gradientTransform="rotate(90 0.5 0.5)">
			<stop offset="0" stop-color="#bd9bc8" stop-opacity="1"/>
			<stop offset="1" stop-color="#6e50a1" stop-opacity="1"/>
		</linearGradient>
	</defs>
	<g v:mID="0" v:index="1" v:groupContext="foregroundPage">
		<title>Page-1</title>
		<v:pageProperties v:drawingScale="1" v:pageScale="1" v:drawingUnits="19" v:shadowOffsetX="9" v:shadowOffsetY="-9"/>
		<g id="group404-1" transform="translate(0.840659,-0.840659)" v:mID="404" v:groupContext="group">
			<title>Sheet.404</title>
			<g id="group2-2" v:mID="2" v:groupContext="group">
				<title>Shapes</title>
				<g id="shape3-3" v:mID="3" v:groupContext="shape">
					<title>Sheet.3</title>
					<rect x="0" y="1.68132" width="612" height="327.861" class="st1"/>
				</g>
				<g id="shape4-5" v:mID="4" v:groupContext="shape" transform="translate(78.0897,406.305) rotate(180)">
					<title>Sheet.4</title>
					<path d="M0 329.54 L40.39 329.54" class="st2"/>
				</g>
				<g id="group5-8" transform="translate(37.7036,-224.936)" v:mID="5" v:groupContext="group">
					<title>Sheet.5</title>
					<g id="shape6-9" v:mID="6" v:groupContext="shape" transform="translate(4.52443,-3.14407)">
						<title>Sheet.6</title>
						<path d="M0 329.54 L35.86 329.54" class="st2"/>
					</g>
					<g id="shape7-12" v:mID="7" v:groupContext="shape">
						<title>Sheet.7</title>
						<path d="M5.44 329.54 L0 326.4 L5.44 323.26 L5.44 329.54 Z" class="st3"/>
					</g>
				</g>
				<g id="shape8-14" v:mID="8" v:groupContext="shape" transform="translate(78.0897,455.706) rotate(180)">
					<title>Sheet.8</title>
					<path d="M0 329.54 L40.39 329.54" class="st2"/>
				</g>
				<g id="group9-17" transform="translate(29.7484,-4.37143)" v:mID="9" v:groupContext="group">
					<title>Sheet.9</title>
					<g id="shape10-18" v:mID="10" v:groupContext="shape">
						<title>Sheet.10</title>
						<rect x="0" y="33.3263" width="7.95516" height="296.216" class="st1"/>
					</g>
					<g id="shape11-20" v:mID="11" v:groupContext="shape">
						<title>Sheet.11</title>
						<rect x="0" y="33.3263" width="7.95516" height="296.216" class="st4"/>
					</g>
				</g>
				<g id="group12-24" transform="translate(307.337,-4.37143)" v:mID="12" v:groupContext="group">
					<title>Sheet.12</title>
					<g id="shape13-25" v:mID="13" v:groupContext="shape">
						<title>Sheet.13</title>
						<rect x="0" y="33.3263" width="7.53903" height="296.216" class="st1"/>
					</g>
					<g id="shape14-27" v:mID="14" v:groupContext="shape">
						<title>Sheet.14</title>
						<rect x="0" y="33.3263" width="7.53903" height="296.216" class="st4"/>
					</g>
				</g>
				<g id="shape15-30" v:mID="15" v:groupContext="shape" transform="translate(307.337,-97.292)">
					<title>Sheet.15</title>
					<rect x="0" y="314.727" width="7.53903" height="14.8158" class="st5"/>
				</g>
				<g id="group16-32" transform="translate(580.999,-4.37143)" v:mID="16" v:groupContext="group">
					<title>Sheet.16</title>
					<g id="shape17-33" v:mID="17" v:groupContext="shape">
						<title>Sheet.17</title>
						<rect x="0" y="33.3263" width="7.53903" height="296.216" class="st1"/>
					</g>
					<g id="shape18-35" v:mID="18" v:groupContext="shape">
						<title>Sheet.18</title>
						<rect x="0" y="33.3263" width="7.53903" height="296.216" class="st4"/>
					</g>
				</g>
				<g id="group19-38" transform="translate(241.475,-249.636)" v:mID="19" v:groupContext="group">
					<title>Sheet.19</title>
					<g id="shape20-39" v:mID="20" v:groupContext="shape" transform="translate(0,-3.14407)">
						<title>Sheet.20</title>
						<path d="M0 329.54 L60 329.54" class="st2"/>
					</g>
					<g id="shape21-42" v:mID="21" v:groupContext="shape" transform="translate(59.0807,1.13687E-13)">
						<title>Sheet.21</title>
						<path d="M0 329.54 L5.44 326.4 L0 323.25 L0 329.54 Z" class="st3"/>
					</g>
				</g>
				<g id="group22-44" transform="translate(52.1654,-244.549)" v:mID="22" v:groupContext="group">
					<title>Sheet.22</title>
					<g id="shape23-45" v:mID="23" v:groupContext="shape">
						<title>Sheet.23</title>
						<ellipse cx="8.40659" cy="321.311" rx="8.40659" ry="8.23174" class="st6"/>
					</g>
					<g id="shape24-47" v:mID="24" v:groupContext="shape" transform="translate(6.77992,-4.5858)">
						<title>Sheet.24</title>
						<path d="M2.63 322.47 L2.63 329.54 L1.48 329.54 L1.48 323.84 C1.28 323.99 1.05 324.11 0.82 324.21 C0.58 324.31
									 0.31 324.4 0 324.48 L0 323.52 C0.19 323.46 0.37 323.4 0.55 323.33 C0.73 323.26 0.9 323.19 1.08
									 323.1 C1.25 323.02 1.42 322.93 1.6 322.82 C1.77 322.72 1.96 322.6 2.14 322.47 L2.63 322.47 Z"
								class="st1"/>
					</g>
				</g>
				<g id="shape25-49" v:mID="25" v:groupContext="shape" transform="translate(355.068,600.19) rotate(180)">
					<title>Sheet.25</title>
					<path d="M0 329.54 L39.97 329.54" class="st2"/>
				</g>
				<g id="group26-52" transform="translate(445.997,-55.7517)" v:mID="26" v:groupContext="group">
					<title>Sheet.26</title>
					<g id="shape27-53" v:mID="27" v:groupContext="shape" transform="translate(0,-3.14323)">
						<title>Sheet.27</title>
						<path d="M0 329.54 L130.98 329.54" class="st2"/>
					</g>
					<g id="shape28-56" v:mID="28" v:groupContext="shape" transform="translate(130.164,5.68434E-14)">
						<title>Sheet.28</title>
						<path d="M0 329.54 L4.84 326.4 L0 323.26 L0 329.54 Z" class="st3"/>
					</g>
				</g>
				<g id="group29-58" transform="translate(52.1654,-195.255)" v:mID="29" v:groupContext="group">
					<title>Sheet.29</title>
					<g id="shape30-59" v:mID="30" v:groupContext="shape">
						<title>Sheet.30</title>
						<ellipse cx="8.40659" cy="321.136" rx="8.40659" ry="8.40659" class="st6"/>
					</g>
					<g id="shape31-61" v:mID="31" v:groupContext="shape" transform="translate(6.21163,-4.56562)">
						<title>Sheet.31</title>
						<path d="M0 329.16 L0 328.09 C0.46 328.45 0.98 328.64 1.56 328.64 C2.03 328.64 2.4 328.53 2.68 328.32 C2.96
									 328.1 3.1 327.81 3.1 327.45 C3.1 326.65 2.49 326.25 1.27 326.25 L0.72 326.25 L0.72 325.33 L1.24
									 325.33 C2.33 325.33 2.87 324.95 2.87 324.2 C2.87 323.5 2.45 323.15 1.6 323.15 C1.13 323.15 0.68
									 323.32 0.27 323.66 L0.27 322.65 C0.74 322.38 1.31 322.24 1.96 322.24 C2.59 322.24 3.09 322.4
									 3.47 322.72 C3.85 323.03 4.04 323.43 4.04 323.93 C4.04 324.86 3.57 325.45 2.62 325.72 L2.62
									 325.74 C3.13 325.79 3.53 325.97 3.83 326.27 C4.12 326.58 4.27 326.96 4.27 327.42 C4.27 328.06
									 4.03 328.57 3.56 328.96 C3.08 329.35 2.45 329.54 1.67 329.54 C0.98 329.54 0.42 329.42 0 329.16
									 Z" class="st1"/>
					</g>
				</g>
				<g id="group32-63" transform="translate(22.797,-297.634)" v:mID="32" v:groupContext="group">
					<title>Sheet.32</title>
					<g id="shape33-64" v:mID="33" v:groupContext="shape">
						<title>Sheet.33</title>
						<path d="M8.24 322.48 L15.3 322.48 L15.3 329.54 L8.24 329.54 L8.24 322.48 ZM0 313.07 L7.06 313.07 L7.06 306
									 L0.99 306 C0.44 306 0 306.45 0 306.99 L0 313.07 ZM0.99 329.54 L7.06 329.54 L7.06 322.48 L0 322.48
									 L0 328.56 C0 329.1 0.44 329.54 0.99 329.54 ZM0 321.3 L7.06 321.3 L7.06 314.24 L0 314.24 L0 321.3
									 ZM16.48 329.54 L22.55 329.54 C23.1 329.54 23.54 329.1 23.54 328.56 L23.54 322.48 L16.48 322.48
									 L16.48 329.54 L16.48 329.54 ZM8.24 321.3 L15.3 321.3 L15.3 314.24 L8.24 314.24 L8.24 321.3 ZM16.48
									 321.3 L23.54 321.3 L23.54 314.24 L16.48 314.24 L16.48 321.3 ZM16.48 306 L16.48 313.07 L23.54
									 313.07 L23.54 306.99 C23.54 306.45 23.1 306 22.55 306 L16.48 306 ZM8.24 313.07 L15.3 313.07
									 L15.3 306 L8.24 306 L8.24 313.07 Z" class="st7"/>
					</g>
				</g>
				<g id="group34-68" transform="translate(576.45,-296.725)" v:mID="34" v:groupContext="group">
					<title>Sheet.34</title>
					<g id="shape35-69" v:mID="35" v:groupContext="shape">
						<title>e3d1e58c-f78e-4fb5-9857-0c9331d</title>
						<path d="M15.16 314.2 C16.29 313.07 16.29 311.23 15.16 310.1 C15.16 310.1 15.16 310.1 15.16 310.1 L10.18
									 305.1 C9.06 303.98 7.23 303.97 6.11 305.09 C6.1 305.1 6.1 305.1 6.1 305.1 L1.12 310.1 C0 311.23
									 0 313.06 1.12 314.2 L5.31 318.39 C5.46 318.55 5.55 318.75 5.55 318.96 L5.55 326.69 C5.55 326.95
									 5.65 327.2 5.83 327.38 L7.72 329.27 C7.96 329.53 8.35 329.54 8.61 329.31 C8.62 329.3 8.63 329.28
									 8.64 329.27 L10.48 327.44 L11.55 326.36 C11.7 326.23 11.71 326 11.57 325.85 C11.56 325.84 11.56
									 325.84 11.55 325.83 L10.78 325.05 C10.62 324.89 10.62 324.64 10.77 324.48 C10.77 324.47 10.78
									 324.47 10.78 324.46 L11.55 323.68 C11.7 323.54 11.71 323.31 11.57 323.16 C11.56 323.16 11.56
									 323.15 11.55 323.15 L10.74 322.32 C10.58 322.17 10.57 321.93 10.72 321.77 C10.73 321.76 10.73
									 321.75 10.74 321.75 L11.58 320.92 C11.73 320.78 11.73 320.55 11.6 320.41 C11.59 320.4 11.59
									 320.4 11.58 320.39 L10.5 319.3 L10.5 318.91 L15.16 314.2 ZM8.17 306.31 C9.08 306.31 9.81 307.06
									 9.8 307.97 C9.8 308.88 9.05 309.62 8.14 309.61 C7.23 309.6 6.5 308.86 6.5 307.96 C6.49 307.05
									 7.22 306.32 8.12 306.31 C8.13 306.31 8.13 306.31 8.14 306.31 L8.17 306.31 L8.17 306.31 Z"
								class="st8"/>
					</g>
					<g id="shape36-73" v:mID="36" v:groupContext="shape" transform="translate(6.68072,-2.63126)">
						<title>a21a8f7a-61cc-4035-8449-e5c8fe4</title>
						<path d="M0.17 329.44 C0.34 329.54 0.55 329.49 0.65 329.33 C0.69 329.27 0.7 329.21 0.7 329.15 L0.7 322.92
									 C0.7 322.8 0.65 322.69 0.55 322.62 C0.39 322.51 0.17 322.55 0.06 322.71 C0.02 322.77 0 322.85
									 0 322.92 L0 329.15 C0.01 329.27 0.07 329.38 0.17 329.44 Z" class="st9"/>
					</g>
					<g id="shape37-75" v:mID="37" v:groupContext="shape" transform="translate(4.15286,-16.8165)">
						<title>ecd3189c-fb1e-4a0e-a2b6-ba2f11d</title>
						<path d="M0.45 328.58 L7.75 328.58 C8 328.58 8.2 328.78 8.2 329.03 L8.2 329.1 C8.2 329.34 8 329.54 7.75 329.54
									 L0.45 329.54 C0.2 329.54 0 329.34 0 329.1 L0 329.03 C0 328.78 0.2 328.58 0.45 328.58 Z"
								class="st9"/>
					</g>
					<g id="shape38-77" v:mID="38" v:groupContext="shape" transform="translate(4.15286,-15.2504)">
						<title>a1949a3c-4818-4bd1-b236-0d970b9</title>
						<path d="M0.45 328.58 L7.75 328.58 C8 328.58 8.2 328.78 8.2 329.03 L8.2 329.1 C8.2 329.34 8 329.54 7.75 329.54
									 L0.45 329.54 C0.2 329.54 0 329.34 0 329.1 L0 329.03 C0 328.78 0.2 328.58 0.45 328.58 Z"
								class="st9"/>
					</g>
				</g>
				<g id="group39-79" transform="translate(296.815,-295.112)" v:mID="39" v:groupContext="group">
					<title>Sheet.39</title>
					<g id="shape40-80" v:mID="40" v:groupContext="shape" transform="translate(0.793582,-1.84777)">
						<title>Sheet.40</title>
						<path d="M21.72 312.16 C21.6 307.93 18.09 304.59 13.86 304.68 C10.49 304.65 7.47 306.74 6.32 309.91 C2.72
									 310.4 0.03 313.47 0 317.1 C0.15 321.16 3.54 324.35 7.61 324.24 C7.83 324.26 8.05 324.26 8.27
									 324.24 L10.18 324.24 C10.06 323.96 10 323.66 10 323.36 C10.01 322.95 10.12 322.55 10.32 322.2
									 L8.1 322.2 L7.61 322.2 C4.67 322.3 2.19 320.03 2.02 317.1 C2.04 314.46 4.02 312.24 6.64 311.91
									 L7.85 311.72 L8.24 310.56 C9.11 308.21 11.36 306.67 13.86 306.7 C16.98 306.63 19.58 309.06 19.71
									 312.18 L19.71 313.92 L21.44 314.16 C23.44 314.42 24.96 316.09 25.03 318.11 C24.95 320.36 23.11
									 322.14 20.87 322.15 L20.63 322.15 L20.5 322.15 L18.91 322.15 C18.35 319.21 15.76 317.08 12.77
									 317.1 C12.21 317.03 11.7 317.42 11.63 317.98 C11.56 318.54 11.96 319.05 12.51 319.12 C12.6 319.13
									 12.68 319.13 12.77 319.12 C15.09 319.26 16.85 321.25 16.71 323.57 C16.58 325.69 14.89 327.38
									 12.77 327.51 C12.21 327.45 11.7 327.84 11.63 328.4 C11.56 328.95 11.96 329.46 12.52 329.53 C12.6
									 329.54 12.68 329.54 12.77 329.53 C15.85 329.53 18.46 327.27 18.91 324.23 L20.58 324.23 C20.69
									 324.24 20.79 324.24 20.9 324.23 C24.25 324.17 26.95 321.46 27 318.11 C26.94 315.11 24.7 312.58
									 21.72 312.16 Z" class="st10"/>
					</g>
					<g id="shape41-84" v:mID="41" v:groupContext="shape" transform="translate(10.7974,-5.60468)">
						<title>Sheet.41</title>
						<path d="M2.45 324.59 L2.51 324.59 C3.86 324.59 4.95 325.68 4.95 327.03 L4.95 327.1 C4.95 328.45 3.86 329.54
									 2.51 329.54 L2.45 329.54 C1.09 329.54 0 328.45 0 327.1 L0 327.03 C0 325.68 1.09 324.59 2.45
									 324.59 Z" class="st11"/>
					</g>
					<g id="shape42-88" v:mID="42" v:groupContext="shape">
						<title>Sheet.42</title>
						<rect x="0" y="300.96" width="28.5824" height="28.5824" class="st12"/>
					</g>
				</g>
				<g id="shape43-90" v:mID="43" v:groupContext="shape" transform="translate(306,431.005) rotate(180)">
					<title>Sheet.43</title>
					<path d="M0 329.54 L17.65 329.54" class="st2"/>
				</g>
				<g id="group44-93" transform="translate(52.1654,-219.814)" v:mID="44" v:groupContext="group">
					<title>Sheet.44</title>
					<g id="shape45-94" v:mID="45" v:groupContext="shape">
						<title>Sheet.45</title>
						<ellipse cx="8.40659" cy="321.136" rx="8.40659" ry="8.40659" class="st6"/>
					</g>
					<g id="shape46-96" v:mID="46" v:groupContext="shape" transform="translate(6.0889,-4.68415)">
						<title>Sheet.46</title>
						<path d="M4.43 329.54 L0 329.54 L0 329 C0 328.77 0.03 328.56 0.09 328.37 C0.16 328.17 0.24 327.99 0.34 327.82
									 C0.45 327.64 0.57 327.48 0.71 327.33 C0.85 327.18 1.01 327.03 1.17 326.89 C1.33 326.74 1.49
									 326.61 1.66 326.47 C1.83 326.34 1.99 326.21 2.15 326.07 C2.3 325.94 2.44 325.82 2.57 325.69
									 C2.69 325.57 2.8 325.44 2.89 325.31 C2.98 325.18 3.04 325.04 3.09 324.9 C3.14 324.75 3.17 324.59
									 3.17 324.42 C3.17 324.23 3.14 324.07 3.08 323.93 C3.02 323.79 2.94 323.67 2.84 323.58 C2.74
									 323.49 2.61 323.42 2.47 323.37 C2.33 323.32 2.18 323.3 2.01 323.3 C1.72 323.3 1.43 323.37 1.13
									 323.5 C0.83 323.63 0.54 323.84 0.26 324.11 L0.26 323.01 C0.41 322.9 0.56 322.8 0.7 322.72 C0.85
									 322.64 1 322.58 1.16 322.52 C1.32 322.47 1.48 322.43 1.66 322.4 C1.83 322.37 2.02 322.36 2.22
									 322.36 C2.53 322.36 2.82 322.4 3.08 322.49 C3.34 322.57 3.56 322.69 3.75 322.86 C3.93 323.02
									 4.07 323.22 4.17 323.46 C4.27 323.71 4.32 323.99 4.32 324.3 C4.32 324.59 4.29 324.85 4.22 325.07
									 C4.15 325.3 4.05 325.51 3.92 325.71 C3.79 325.91 3.63 326.1 3.45 326.27 C3.26 326.45 3.06 326.63
									 2.83 326.82 C2.64 326.97 2.45 327.12 2.26 327.27 C2.07 327.42 1.9 327.56 1.75 327.7 C1.6 327.84
									 1.48 327.98 1.39 328.12 C1.29 328.26 1.25 328.4 1.25 328.54 L1.25 328.56 L4.43 328.56 L4.43
									 329.54 L4.43 329.54 Z" class="st1"/>
					</g>
				</g>
				<g id="group47-98" transform="translate(37.7036,-175.536)" v:mID="47" v:groupContext="group">
					<title>Sheet.47</title>
					<g id="shape48-99" v:mID="48" v:groupContext="shape" transform="translate(4.52443,-3.14323)">
						<title>Sheet.48</title>
						<path d="M0 329.54 L35.86 329.54" class="st2"/>
					</g>
					<g id="shape49-102" v:mID="49" v:groupContext="shape">
						<title>Sheet.49</title>
						<path d="M5.44 329.54 L0 326.4 L5.44 323.26 L5.44 329.54 Z" class="st3"/>
					</g>
				</g>
				<g id="shape50-104" v:mID="50" v:groupContext="shape" transform="translate(306,480.407) rotate(180)">
					<title>Sheet.50</title>
					<path d="M0 329.54 L64.52 329.54" class="st2"/>
				</g>
				<g id="group51-107" transform="translate(199.573,-200.236)" v:mID="51" v:groupContext="group">
					<title>Sheet.51</title>
					<g id="shape52-108" v:mID="52" v:groupContext="shape" transform="translate(0,-3.14323)">
						<title>Sheet.52</title>
						<path d="M0 329.54 L101.9 329.54" class="st2"/>
					</g>
					<g id="shape53-111" v:mID="53" v:groupContext="shape" transform="translate(100.983,0)">
						<title>Sheet.53</title>
						<path d="M0 329.54 L5.44 326.4 L0 323.26 L0 329.54 Z" class="st3"/>
					</g>
				</g>
				<g id="shape54-113" v:mID="54" v:groupContext="shape" transform="translate(78.0897,505.107) rotate(180)">
					<title>Sheet.54</title>
					<path d="M0 329.54 L40.39 329.54" class="st2"/>
				</g>
				<g id="group55-116" transform="translate(180,-150.834)" v:mID="55" v:groupContext="group">
					<title>Sheet.55</title>
					<g id="shape56-117" v:mID="56" v:groupContext="shape" transform="translate(0,-3.14407)">
						<title>Sheet.56</title>
						<path d="M0 329.54 L121.81 329.54" class="st2"/>
					</g>
					<g id="shape57-120" v:mID="57" v:groupContext="shape" transform="translate(120.957,0)">
						<title>Sheet.57</title>
						<path d="M0 329.54 L5.04 326.4 L0 323.25 L0 329.54 Z" class="st3"/>
					</g>
				</g>
				<g id="shape58-122" v:mID="58" v:groupContext="shape" transform="translate(78.0897,554.507) rotate(180)">
					<title>Sheet.58</title>
					<path d="M0 329.54 L40.39 329.54" class="st2"/>
				</g>
				<g id="group59-125" transform="translate(288,-101.434)" v:mID="59" v:groupContext="group">
					<title>Sheet.59</title>
					<g id="shape60-126" v:mID="60" v:groupContext="shape" transform="translate(0,-3.14407)">
						<title>Sheet.60</title>
						<path d="M0 329.54 L288.73 329.54" class="st2"/>
					</g>
					<g id="shape61-129" v:mID="61" v:groupContext="shape" transform="translate(287.861,5.68434E-14)">
						<title>Sheet.61</title>
						<path d="M0 329.54 L5.14 326.4 L0 323.25 L0 329.54 Z" class="st3"/>
					</g>
				</g>
				<g id="group62-131" transform="translate(315.095,-80.3889)" v:mID="62" v:groupContext="group">
					<title>Sheet.62</title>
					<g id="shape63-132" v:mID="63" v:groupContext="shape" transform="translate(4.52443,-3.14407)">
						<title>Sheet.63</title>
						<path d="M0 329.54 L35.45 329.54" class="st2"/>
					</g>
					<g id="shape64-135" v:mID="64" v:groupContext="shape">
						<title>Sheet.64</title>
						<path d="M5.44 329.54 L0 326.4 L5.44 323.25 L5.44 329.54 Z" class="st3"/>
					</g>
				</g>
				<g id="shape65-137" v:mID="65" v:groupContext="shape" transform="translate(580.559,575.552) rotate(180)">
					<title>Sheet.65</title>
					<path d="M0 329.54 L106.43 329.54" class="st2"/>
				</g>
				<g id="group66-140" transform="translate(315.095,-31.3515)" v:mID="66" v:groupContext="group">
					<title>Sheet.66</title>
					<g id="shape67-141" v:mID="67" v:groupContext="shape" transform="translate(4.52443,-3.14407)">
						<title>Sheet.67</title>
						<path d="M0 329.54 L35.45 329.54" class="st2"/>
					</g>
					<g id="shape68-144" v:mID="68" v:groupContext="shape">
						<title>Sheet.68</title>
						<path d="M5.44 329.54 L0 326.4 L5.44 323.25 L5.44 329.54 Z" class="st3"/>
					</g>
				</g>
				<g id="group69-146" transform="translate(330.715,-75.1264)" v:mID="69" v:groupContext="group">
					<title>Sheet.69</title>
					<g id="shape70-147" v:mID="70" v:groupContext="shape">
						<title>Sheet.70</title>
						<ellipse cx="8.40659" cy="321.136" rx="8.40659" ry="8.40659" class="st6"/>
					</g>
					<g id="shape71-149" v:mID="71" v:groupContext="shape" transform="translate(6.05443,-4.56982)">
						<title>Sheet.71</title>
						<path d="M0 327.46 C0 327.25 0.03 327.06 0.08 326.87 C0.13 326.68 0.2 326.5 0.31 326.34 C0.41 326.18 0.53
									 326.03 0.69 325.91 C0.84 325.78 1.02 325.67 1.23 325.6 C0.93 325.43 0.68 325.21 0.5 324.94 C0.32
									 324.67 0.23 324.37 0.23 324.05 C0.23 323.79 0.28 323.55 0.39 323.33 C0.5 323.11 0.65 322.92
									 0.83 322.76 C1.02 322.6 1.25 322.47 1.5 322.38 C1.76 322.29 2.04 322.25 2.34 322.25 C2.64 322.25
									 2.93 322.29 3.18 322.38 C3.44 322.48 3.67 322.6 3.85 322.76 C4.04 322.92 4.19 323.11 4.29 323.34
									 C4.4 323.56 4.45 323.79 4.45 324.05 C4.45 324.38 4.36 324.67 4.18 324.94 C4 325.21 3.76 325.43
									 3.46 325.6 C3.67 325.68 3.85 325.78 4 325.9 C4.16 326.03 4.29 326.17 4.39 326.34 C4.5 326.5
									 4.58 326.67 4.63 326.86 C4.68 327.05 4.71 327.25 4.71 327.46 C4.71 327.77 4.65 328.05 4.54 328.31
									 C4.42 328.56 4.26 328.78 4.06 328.96 C3.85 329.15 3.6 329.29 3.31 329.39 C3.02 329.49 2.7 329.54
									 2.36 329.54 C2.01 329.54 1.69 329.49 1.41 329.39 C1.12 329.29 0.87 329.15 0.66 328.96 C0.45
									 328.78 0.29 328.56 0.18 328.31 C0.06 328.05 0 327.77 0 327.46 ZM1.11 327.36 C1.11 327.56 1.14
									 327.74 1.2 327.9 C1.26 328.06 1.34 328.2 1.45 328.31 C1.56 328.42 1.69 328.51 1.84 328.57 C2
									 328.63 2.17 328.65 2.35 328.65 C2.53 328.65 2.7 328.62 2.85 328.56 C3 328.5 3.13 328.42 3.24
									 328.3 C3.35 328.19 3.44 328.05 3.5 327.89 C3.57 327.74 3.6 327.56 3.6 327.36 C3.6 327.18 3.57
									 327.01 3.51 326.85 C3.45 326.69 3.36 326.55 3.26 326.43 C3.15 326.32 3.02 326.22 2.86 326.15
									 C2.71 326.08 2.54 326.05 2.35 326.05 C2.18 326.05 2.01 326.08 1.86 326.15 C1.71 326.21 1.58
									 326.3 1.47 326.42 C1.36 326.53 1.27 326.67 1.21 326.83 C1.14 326.99 1.11 327.17 1.11 327.36
									 ZM1.35 324.17 C1.35 324.32 1.38 324.45 1.43 324.58 C1.49 324.7 1.56 324.81 1.65 324.91 C1.73
									 325 1.84 325.08 1.96 325.13 C2.08 325.18 2.21 325.21 2.34 325.21 C2.48 325.21 2.61 325.18 2.73
									 325.13 C2.85 325.07 2.96 325 3.05 324.9 C3.14 324.81 3.21 324.7 3.26 324.57 C3.31 324.45 3.34
									 324.31 3.34 324.17 C3.34 324.02 3.31 323.88 3.26 323.75 C3.21 323.63 3.14 323.52 3.05 323.42
									 C2.97 323.33 2.86 323.26 2.74 323.21 C2.62 323.15 2.49 323.13 2.34 323.13 C2.2 323.13 2.06 323.15
									 1.94 323.21 C1.82 323.26 1.71 323.34 1.63 323.43 C1.54 323.53 1.47 323.64 1.43 323.77 C1.38
									 323.89 1.35 324.03 1.35 324.17 Z" class="st1"/>
					</g>
				</g>
				<g id="group72-151" transform="translate(330.715,-49.9192)" v:mID="72" v:groupContext="group">
					<title>Sheet.72</title>
					<g id="shape73-152" v:mID="73" v:groupContext="shape">
						<title>Sheet.73</title>
						<ellipse cx="8.40659" cy="321.136" rx="8.40659" ry="8.40659" class="st6"/>
					</g>
					<g id="shape74-154" v:mID="74" v:groupContext="shape" transform="translate(6.0166,-4.56142)">
						<title>Sheet.74</title>
						<path d="M4.73 325.5 C4.73 326.21 4.66 326.82 4.5 327.33 C4.35 327.84 4.14 328.25 3.87 328.58 C3.61 328.91
									 3.29 329.15 2.93 329.31 C2.57 329.46 2.19 329.54 1.77 329.54 C1.64 329.54 1.5 329.53 1.37 329.52
									 C1.23 329.5 1.1 329.48 0.98 329.45 C0.85 329.43 0.74 329.4 0.64 329.37 C0.54 329.34 0.46 329.31
									 0.39 329.28 L0.39 328.25 C0.46 328.29 0.55 328.33 0.65 328.38 C0.75 328.42 0.86 328.46 0.98
									 328.5 C1.1 328.53 1.23 328.56 1.36 328.58 C1.49 328.6 1.61 328.61 1.73 328.61 C2.01 328.61 2.27
									 328.56 2.49 328.45 C2.72 328.34 2.92 328.18 3.08 327.97 C3.24 327.75 3.36 327.49 3.45 327.17
									 C3.54 326.86 3.58 326.49 3.58 326.07 L3.56 326.07 C3.5 326.18 3.42 326.28 3.33 326.37 C3.23
									 326.46 3.12 326.54 2.99 326.61 C2.87 326.69 2.73 326.74 2.58 326.78 C2.42 326.83 2.26 326.85
									 2.09 326.85 C1.79 326.85 1.52 326.8 1.26 326.69 C1.01 326.59 0.79 326.44 0.6 326.25 C0.41 326.06
									 0.27 325.83 0.16 325.56 C0.05 325.29 0 324.98 0 324.65 C0 324.28 0.06 323.95 0.18 323.65 C0.3
									 323.35 0.47 323.1 0.69 322.89 C0.9 322.68 1.15 322.52 1.44 322.41 C1.73 322.29 2.04 322.24 2.38
									 322.24 C2.7 322.24 3 322.3 3.28 322.42 C3.57 322.54 3.82 322.73 4.03 322.99 C4.25 323.25 4.42
									 323.59 4.54 324 C4.67 324.42 4.73 324.92 4.73 325.5 ZM3.54 324.75 C3.54 324.51 3.51 324.3 3.45
									 324.11 C3.39 323.91 3.3 323.75 3.2 323.61 C3.09 323.47 2.96 323.36 2.81 323.29 C2.66 323.21
									 2.5 323.17 2.32 323.17 C2.16 323.17 2.01 323.21 1.87 323.27 C1.73 323.33 1.6 323.43 1.49 323.54
									 C1.39 323.66 1.3 323.8 1.24 323.97 C1.18 324.14 1.15 324.32 1.15 324.53 C1.15 324.75 1.18 324.95
									 1.24 325.12 C1.3 325.29 1.38 325.43 1.49 325.55 C1.6 325.67 1.73 325.76 1.88 325.82 C2.04 325.88
									 2.2 325.91 2.39 325.91 C2.55 325.91 2.7 325.88 2.84 325.82 C2.98 325.76 3.11 325.67 3.21 325.57
									 C3.31 325.47 3.39 325.34 3.45 325.2 C3.51 325.06 3.54 324.91 3.54 324.75 Z" class="st1"/>
					</g>
				</g>
				<g id="group75-156" transform="translate(330.715,-26.089)" v:mID="75" v:groupContext="group">
					<title>Sheet.75</title>
					<g id="shape76-157" v:mID="76" v:groupContext="shape">
						<title>Sheet.76</title>
						<ellipse cx="8.40659" cy="321.136" rx="8.40659" ry="8.40659" class="st6"/>
					</g>
					<g id="group77-159" transform="translate(4.03096,-4.56562)" v:mID="77" v:groupContext="group">
						<title>Sheet.77</title>
						<g id="shape78-160" v:mID="78" v:groupContext="shape" transform="translate(-1.94844E-14,-0.118533)">
							<title>Sheet.78</title>
							<path d="M2.63 322.32 L2.63 329.54 L1.48 329.54 L1.48 323.72 C1.28 323.87 1.05 323.99 0.82 324.1 C0.58
										 324.2 0.31 324.29 0 324.37 L0 323.39 C0.19 323.33 0.37 323.27 0.55 323.2 C0.73 323.13 0.9
										 323.05 1.08 322.97 C1.25 322.88 1.42 322.79 1.6 322.68 C1.77 322.58 1.96 322.46 2.14 322.32
										 L2.63 322.32 Z" class="st1"/>
						</g>
						<g id="shape79-162" v:mID="79" v:groupContext="shape" transform="translate(3.93849,0)">
							<title>Sheet.79</title>
							<path d="M2.34 329.54 C1.6 329.54 1.03 329.24 0.62 328.64 C0.21 328.04 0 327.17 0 326.04 C0 324.79 0.22
										 323.84 0.65 323.2 C1.08 322.56 1.7 322.24 2.51 322.24 C4.06 322.24 4.84 323.45 4.84 325.86
										 C4.84 327.06 4.62 327.97 4.18 328.6 C3.74 329.23 3.13 329.54 2.34 329.54 ZM2.45 323.15 C1.59
										 323.15 1.17 324.1 1.17 325.99 C1.17 327.75 1.59 328.64 2.43 328.64 C3.26 328.64 3.67 327.74
										 3.67 325.94 C3.67 324.08 3.26 323.15 2.45 323.15 Z" class="st1"/>
						</g>
					</g>
				</g>
				<g id="shape80-164" v:mID="80" v:groupContext="shape" transform="translate(580.559,624.59) rotate(180)">
					<title>Sheet.80</title>
					<path d="M0 329.54 L144.73 329.54" class="st2"/>
				</g>
				<g id="group81-167" transform="translate(37.6775,-11.0362)" v:mID="81" v:groupContext="group">
					<title>Sheet.81</title>
					<g id="shape82-168" v:mID="82" v:groupContext="shape" transform="translate(4.52443,-3.14323)">
						<title>Sheet.82</title>
						<path d="M0 329.54 L35.45 329.54" class="st2"/>
					</g>
					<g id="shape83-171" v:mID="83" v:groupContext="shape">
						<title>Sheet.83</title>
						<path d="M5.44 329.54 L0 326.4 L5.44 323.26 L5.44 329.54 Z" class="st3"/>
					</g>
				</g>
				<g id="group84-173" transform="translate(52.1654,-5.38022)" v:mID="84" v:groupContext="group">
					<title>Sheet.84</title>
					<g id="shape85-174" v:mID="85" v:groupContext="shape">
						<title>Sheet.85</title>
						<ellipse cx="8.40659" cy="321.136" rx="8.40659" ry="8.40659" class="st6"/>
					</g>
					<g id="group86-176" transform="translate(4.80185,-4.68331)" v:mID="86" v:groupContext="group">
						<title>Sheet.86</title>
						<g id="shape87-177" v:mID="87" v:groupContext="shape">
							<title>Sheet.87</title>
							<path d="M2.63 322.32 L2.63 329.54 L1.48 329.54 L1.48 323.72 C1.28 323.87 1.05 323.99 0.82 324.1 C0.58
										 324.2 0.31 324.29 0 324.37 L0 323.39 C0.19 323.33 0.37 323.27 0.55 323.2 C0.73 323.13 0.9
										 323.05 1.08 322.97 C1.25 322.88 1.42 322.79 1.6 322.68 C1.77 322.58 1.96 322.46 2.14 322.32
										 L2.63 322.32 Z" class="st1"/>
						</g>
						<g id="shape88-179" v:mID="88" v:groupContext="shape" transform="translate(3.95782,0)">
							<title>Sheet.88</title>
							<path d="M2.63 322.32 L2.63 329.54 L1.48 329.54 L1.48 323.72 C1.28 323.87 1.05 323.99 0.82 324.1 C0.58
										 324.2 0.31 324.29 0 324.37 L0 323.39 C0.19 323.33 0.37 323.27 0.55 323.2 C0.73 323.13 0.9
										 323.05 1.08 322.97 C1.25 322.88 1.42 322.79 1.6 322.68 C1.77 322.58 1.96 322.46 2.14 322.32
										 L2.63 322.32 Z" class="st1"/>
						</g>
					</g>
				</g>
				<g id="shape89-181" v:mID="89" v:groupContext="shape" transform="translate(306.902,645.322) rotate(180)">
					<title>Sheet.89</title>
					<path d="M0 329.54 L173.91 329.54" class="st2"/>
				</g>
				<g id="group90-184" transform="translate(52.1654,-146.137)" v:mID="90" v:groupContext="group">
					<title>Sheet.90</title>
					<g id="shape91-185" v:mID="91" v:groupContext="shape">
						<title>Sheet.91</title>
						<ellipse cx="8.40659" cy="321.136" rx="8.40659" ry="8.40659" class="st6"/>
					</g>
					<g id="shape92-187" v:mID="92" v:groupContext="shape" transform="translate(6.36884,-4.55385)">
						<title>Sheet.92</title>
						<path d="M0 329.25 L0 328.15 C0.46 328.46 0.93 328.62 1.41 328.62 C1.89 328.62 2.27 328.5 2.57 328.25 C2.86
									 328.01 3 327.68 3 327.28 C3 326.87 2.86 326.56 2.56 326.34 C2.26 326.12 1.84 326.01 1.28 326.01
									 C1.09 326.01 0.7 326.02 0.12 326.06 L0.37 322.35 L3.85 322.35 L3.85 323.33 L1.32 323.33 L1.21
									 325.09 C1.43 325.08 1.64 325.07 1.82 325.07 C2.57 325.07 3.15 325.27 3.56 325.65 C3.97 326.04
									 4.17 326.56 4.17 327.23 C4.17 327.93 3.94 328.49 3.47 328.91 C3 329.33 2.36 329.54 1.54 329.54
									 C0.85 329.54 0.34 329.44 0 329.25 Z" class="st1"/>
					</g>
				</g>
				<g id="group93-189" transform="translate(52.1654,-170.696)" v:mID="93" v:groupContext="group">
					<title>Sheet.93</title>
					<g id="shape94-190" v:mID="94" v:groupContext="shape">
						<title>Sheet.94</title>
						<ellipse cx="8.40659" cy="321.136" rx="8.40659" ry="8.40659" class="st6"/>
					</g>
					<g id="shape95-192" v:mID="95" v:groupContext="shape" transform="translate(5.75599,-4.68331)">
						<title>Sheet.95</title>
						<path d="M4.31 322.48 L4.31 327.04 L5.35 327.04 L5.35 327.99 L4.31 327.99 L4.31 329.54 L3.2 329.54 L3.2 327.99
									 L0 327.99 L0 327.03 C0.29 326.7 0.59 326.35 0.89 325.97 C1.19 325.59 1.49 325.21 1.77 324.81
									 C2.05 324.41 2.31 324.02 2.55 323.62 C2.79 323.22 2.99 322.84 3.15 322.48 L4.31 322.48 ZM3.2
									 327.04 L3.2 324.08 C2.84 324.72 2.48 325.28 2.14 325.76 C1.79 326.24 1.46 326.67 1.15 327.04
									 L3.2 327.04 Z" class="st1"/>
					</g>
				</g>
				<g id="group96-194" transform="translate(37.7036,-126.134)" v:mID="96" v:groupContext="group">
					<title>Sheet.96</title>
					<g id="shape97-195" v:mID="97" v:groupContext="shape" transform="translate(4.52443,-3.14407)">
						<title>Sheet.97</title>
						<path d="M0 329.54 L35.86 329.54" class="st2"/>
					</g>
					<g id="shape98-198" v:mID="98" v:groupContext="shape">
						<title>Sheet.98</title>
						<path d="M5.44 329.54 L0 326.4 L5.44 323.25 L5.44 329.54 Z" class="st3"/>
					</g>
				</g>
				<g id="shape99-200" v:mID="99" v:groupContext="shape" transform="translate(306,529.807) rotate(180)">
					<title>Sheet.99</title>
					<path d="M0 329.54 L108 329.54" class="st2"/>
				</g>
				<g id="group100-203" transform="translate(52.1654,-97.1928)" v:mID="100" v:groupContext="group">
					<title>Sheet.100</title>
					<g id="shape101-204" v:mID="101" v:groupContext="shape">
						<title>Sheet.101</title>
						<ellipse cx="8.40659" cy="321.311" rx="8.40659" ry="8.23174" class="st6"/>
					</g>
					<g id="shape102-206" v:mID="102" v:groupContext="shape" transform="translate(6.04434,-4.58664)">
						<title>Sheet.102</title>
						<path d="M4.72 323.19 C4.42 323.72 4.15 324.24 3.88 324.76 C3.62 325.28 3.38 325.8 3.17 326.33 C2.95 326.85
									 2.77 327.38 2.61 327.91 C2.45 328.44 2.33 328.99 2.25 329.54 L1.05 329.54 C1.13 329.05 1.24
									 328.55 1.39 328.06 C1.53 327.57 1.7 327.07 1.9 326.58 C2.1 326.09 2.32 325.59 2.56 325.09 C2.81
									 324.59 3.07 324.09 3.34 323.58 L0 323.58 L0 322.63 L4.72 322.63 L4.72 323.19 L4.72 323.19 Z"
								class="st1"/>
					</g>
				</g>
				<g id="group103-208" transform="translate(52.1654,-121.577)" v:mID="103" v:groupContext="group">
					<title>Sheet.103</title>
					<g id="shape104-209" v:mID="104" v:groupContext="shape">
						<title>Sheet.104</title>
						<ellipse cx="8.40659" cy="321.136" rx="8.40659" ry="8.40659" class="st6"/>
					</g>
					<g id="shape105-211" v:mID="105" v:groupContext="shape" transform="translate(6.0931,-4.56142)">
						<title>Sheet.105</title>
						<path d="M4.74 327.15 C4.74 327.5 4.69 327.83 4.57 328.12 C4.45 328.41 4.29 328.66 4.08 328.88 C3.88 329.09
									 3.63 329.25 3.35 329.37 C3.06 329.48 2.76 329.54 2.42 329.54 C2.07 329.54 1.74 329.47 1.45 329.34
									 C1.15 329.2 0.89 328.99 0.68 328.72 C0.46 328.45 0.3 328.11 0.18 327.7 C0.06 327.3 0 326.83
									 0 326.29 C0 325.64 0.08 325.06 0.23 324.55 C0.39 324.05 0.6 323.62 0.88 323.28 C1.15 322.94
									 1.47 322.68 1.84 322.5 C2.21 322.33 2.6 322.24 3.03 322.24 C3.3 322.24 3.54 322.26 3.76 322.29
									 C3.97 322.33 4.15 322.38 4.28 322.44 L4.28 323.47 C4.11 323.38 3.93 323.31 3.74 323.25 C3.55
									 323.19 3.33 323.16 3.09 323.16 C2.81 323.16 2.56 323.22 2.33 323.33 C2.09 323.44 1.89 323.61
									 1.72 323.82 C1.55 324.04 1.42 324.3 1.32 324.62 C1.22 324.94 1.18 325.3 1.17 325.72 L1.2 325.72
									 C1.35 325.48 1.56 325.3 1.81 325.16 C2.07 325.03 2.37 324.96 2.72 324.96 C3.03 324.96 3.31 325.01
									 3.56 325.11 C3.81 325.21 4.02 325.36 4.19 325.55 C4.37 325.74 4.5 325.97 4.6 326.24 C4.69 326.51
									 4.74 326.81 4.74 327.15 ZM3.59 327.24 C3.59 327.04 3.57 326.85 3.52 326.69 C3.47 326.52 3.4
									 326.38 3.3 326.25 C3.21 326.13 3.08 326.04 2.94 325.98 C2.79 325.91 2.62 325.88 2.42 325.88
									 C2.23 325.88 2.05 325.91 1.9 325.98 C1.75 326.05 1.63 326.15 1.53 326.26 C1.43 326.38 1.35 326.51
									 1.3 326.66 C1.25 326.8 1.22 326.96 1.22 327.11 C1.22 327.28 1.25 327.45 1.29 327.62 C1.34 327.8
									 1.41 327.96 1.51 328.1 C1.61 328.25 1.74 328.37 1.89 328.46 C2.04 328.56 2.22 328.6 2.43 328.6
									 C2.62 328.6 2.79 328.57 2.93 328.5 C3.08 328.43 3.2 328.33 3.29 328.21 C3.39 328.09 3.46 327.95
									 3.52 327.78 C3.57 327.62 3.59 327.44 3.59 327.24 Z" class="st1"/>
					</g>
				</g>
			</g>
			<g id="group107-213" transform="translate(4.21338,-279.036)" v:mID="107" v:groupContext="group">
				<title>Sheet.107</title>
				<g id="shape108-214" v:mID="108" v:groupContext="shape" transform="translate(-1.26399E-13,-2.56233)">
					<title>Sheet.108</title>
					<path d="M6.43 329.11 C5.82 329.4 5.04 329.54 4.07 329.54 C2.8 329.54 1.81 329.17 1.09 328.43 C0.36 327.68 0
								 326.69 0 325.46 C0 324.14 0.41 323.07 1.22 322.25 C2.04 321.43 3.09 321.02 4.39 321.02 C5.2 321.02
								 5.87 321.12 6.43 321.33 L6.43 323.11 C5.87 322.78 5.25 322.62 4.54 322.62 C3.77 322.62 3.14 322.86
								 2.67 323.35 C2.19 323.83 1.95 324.49 1.95 325.33 C1.95 326.12 2.18 326.76 2.63 327.23 C3.07 327.7
								 3.68 327.94 4.44 327.94 C5.16 327.94 5.82 327.76 6.42 327.41 L6.42 329.11 L6.43 329.11 Z"
							class="st13"/>
				</g>
				<g id="shape109-216" v:mID="109" v:groupContext="shape" transform="translate(7.6458,-2.70608)">
					<title>Sheet.109</title>
					<path d="M1.82 329.54 L0 329.54 L0 320.83 L1.82 320.83 L1.82 329.54 Z" class="st13"/>
				</g>
				<g id="shape110-218" v:mID="110" v:groupContext="shape" transform="translate(10.8235,-2.70608)">
					<title>Sheet.110</title>
					<path d="M1.05 322.73 C0.74 322.73 0.49 322.64 0.29 322.45 C0.1 322.27 0 322.05 0 321.78 C0 321.51 0.1 321.29
								 0.29 321.12 C0.49 320.95 0.74 320.86 1.05 320.86 C1.36 320.86 1.61 320.95 1.8 321.12 C1.99 321.29
								 2.09 321.51 2.09 321.78 C2.09 322.06 2 322.29 1.8 322.46 C1.61 322.64 1.36 322.73 1.05 322.73 ZM1.94
								 329.54 L0.13 329.54 L0.13 323.66 L1.94 323.66 L1.94 329.54 Z" class="st13"/>
				</g>
				<g id="shape111-220" v:mID="111" v:groupContext="shape" transform="translate(13.9062,-2.56233)">
					<title>Sheet.111</title>
					<path d="M5.64 326.97 L1.8 326.97 C1.86 327.83 2.4 328.25 3.41 328.25 C4.06 328.25 4.63 328.1 5.12 327.79 L5.12
								 329.11 C4.58 329.4 3.87 329.54 3 329.54 C2.05 329.54 1.31 329.28 0.79 328.75 C0.26 328.23 0 327.49
								 0 326.55 C0 325.57 0.28 324.8 0.85 324.23 C1.42 323.66 2.12 323.37 2.94 323.37 C3.8 323.37 4.46
								 323.62 4.93 324.13 C5.4 324.64 5.64 325.34 5.64 326.21 L5.64 326.97 ZM3.95 325.86 C3.95 325.02 3.61
								 324.59 2.93 324.59 C2.64 324.59 2.39 324.72 2.18 324.96 C1.96 325.2 1.83 325.5 1.79 325.86 L3.95
								 325.86 Z" class="st13"/>
				</g>
				<g id="shape112-222" v:mID="112" v:groupContext="shape" transform="translate(20.692,-2.70608)">
					<title>Sheet.112</title>
					<path d="M5.68 329.54 L3.87 329.54 L3.87 326.27 C3.87 325.36 3.55 324.9 2.9 324.9 C2.58 324.9 2.32 325.03 2.12
								 325.27 C1.92 325.51 1.82 325.82 1.82 326.19 L1.82 329.54 L0 329.54 L0 323.66 L1.82 323.66 L1.82
								 324.59 L1.84 324.59 C2.27 323.87 2.9 323.51 3.73 323.51 C5.03 323.51 5.68 324.32 5.68 325.94 L5.68
								 329.54 Z" class="st13"/>
				</g>
				<g id="shape113-224" v:mID="113" v:groupContext="shape" transform="translate(27.2063,-2.56233)">
					<title>Sheet.113</title>
					<path d="M4.09 329.33 C3.82 329.47 3.41 329.54 2.87 329.54 C1.59 329.54 0.95 328.88 0.95 327.55 L0.95 324.85
								 L0 324.85 L0 323.51 L0.95 323.51 L0.95 322.24 L2.76 321.73 L2.76 323.51 L4.09 323.51 L4.09 324.85
								 L2.76 324.85 L2.76 327.23 C2.76 327.85 3.01 328.15 3.49 328.15 C3.69 328.15 3.88 328.1 4.09 327.99
								 L4.09 329.33 Z" class="st13"/>
				</g>
				<g id="shape114-226" v:mID="114" v:groupContext="shape" transform="translate(35.1253,-2.56233)">
					<title>Sheet.114</title>
					<path d="M5.33 329.4 L3.61 329.4 L3.61 328.55 L3.59 328.55 C3.2 329.21 2.61 329.54 1.84 329.54 C1.27 329.54 0.82
								 329.38 0.49 329.06 C0.16 328.73 0 328.3 0 327.76 C0 326.62 0.68 325.96 2.03 325.78 L3.63 325.57
								 C3.63 324.93 3.28 324.61 2.58 324.61 C1.88 324.61 1.21 324.81 0.58 325.23 L0.58 323.86 C0.83 323.73
								 1.18 323.62 1.62 323.52 C2.06 323.42 2.45 323.37 2.82 323.37 C4.49 323.37 5.33 324.21 5.33 325.88
								 L5.33 329.4 L5.33 329.4 ZM3.63 327.01 L3.63 326.61 L2.56 326.75 C1.97 326.83 1.67 327.09 1.67 327.55
								 C1.67 327.75 1.74 327.92 1.89 328.06 C2.03 328.19 2.23 328.25 2.47 328.25 C2.81 328.25 3.09 328.14
								 3.3 327.9 C3.52 327.67 3.63 327.37 3.63 327.01 Z" class="st13"/>
				</g>
				<g id="shape115-228" v:mID="115" v:groupContext="shape" transform="translate(41.8842,5.68434E-14)">
					<title>Sheet.115</title>
					<path d="M1.84 326.15 L1.82 326.15 L1.82 329.54 L0 329.54 L0 320.95 L1.82 320.95 L1.82 321.84 L1.84 321.84 C2.29
								 321.15 2.92 320.81 3.73 320.81 C4.49 320.81 5.08 321.07 5.5 321.59 C5.91 322.11 6.12 322.83 6.12
								 323.73 C6.12 324.71 5.88 325.49 5.39 326.09 C4.91 326.68 4.26 326.98 3.46 326.98 C2.75 326.98 2.21
								 326.7 1.84 326.15 ZM1.79 323.74 L1.79 324.21 C1.79 324.62 1.89 324.95 2.11 325.2 C2.32 325.46 2.61
								 325.59 2.95 325.59 C3.37 325.59 3.69 325.43 3.92 325.11 C4.15 324.79 4.26 324.34 4.26 323.75 C4.26
								 322.72 3.86 322.2 3.05 322.2 C2.68 322.2 2.38 322.34 2.14 322.62 C1.91 322.9 1.79 323.28 1.79 323.74
								 Z" class="st13"/>
				</g>
				<g id="shape116-230" v:mID="116" v:groupContext="shape" transform="translate(49.1954,5.68434E-14)">
					<title>Sheet.116</title>
					<path d="M1.84 326.15 L1.82 326.15 L1.82 329.54 L0 329.54 L0 320.95 L1.82 320.95 L1.82 321.84 L1.84 321.84 C2.29
								 321.15 2.92 320.81 3.73 320.81 C4.49 320.81 5.08 321.07 5.5 321.59 C5.91 322.11 6.12 322.83 6.12
								 323.73 C6.12 324.71 5.88 325.49 5.39 326.09 C4.91 326.68 4.26 326.98 3.46 326.98 C2.75 326.98 2.21
								 326.7 1.84 326.15 ZM1.79 323.74 L1.79 324.21 C1.79 324.62 1.89 324.95 2.11 325.2 C2.32 325.46 2.6
								 325.59 2.95 325.59 C3.37 325.59 3.69 325.43 3.92 325.11 C4.14 324.79 4.26 324.34 4.26 323.75 C4.26
								 322.72 3.86 322.2 3.05 322.2 C2.68 322.2 2.38 322.34 2.14 322.62 C1.9 322.9 1.79 323.28 1.79 323.74
								 Z" class="st13"/>
				</g>
				<g id="shape117-232" v:mID="117" v:groupContext="shape" transform="translate(56.1897,-2.56233)">
					<title>Sheet.117</title>
					<path d="M0 329.24 L0 327.77 C0.3 327.95 0.6 328.09 0.89 328.17 C1.19 328.26 1.47 328.31 1.74 328.31 C2.06 328.31
								 2.31 328.26 2.5 328.17 C2.68 328.09 2.78 327.95 2.78 327.77 C2.78 327.66 2.73 327.56 2.65 327.48
								 C2.56 327.41 2.46 327.34 2.32 327.28 C2.19 327.23 2.05 327.17 1.89 327.13 C1.73 327.08 1.58 327.03
								 1.44 326.97 C1.2 326.88 1 326.79 0.82 326.69 C0.64 326.59 0.49 326.47 0.37 326.34 C0.25 326.2 0.16
								 326.05 0.09 325.87 C0.03 325.69 0 325.48 0 325.24 C0 324.91 0.07 324.63 0.22 324.39 C0.36 324.15
								 0.55 323.96 0.79 323.81 C1.03 323.66 1.3 323.55 1.61 323.48 C1.92 323.41 2.24 323.37 2.58 323.37
								 C2.84 323.37 3.1 323.39 3.37 323.43 C3.64 323.47 3.9 323.53 4.16 323.61 L4.16 325.01 C3.93 324.87
								 3.69 324.77 3.42 324.71 C3.16 324.64 2.9 324.61 2.65 324.61 C2.53 324.61 2.42 324.62 2.31 324.64
								 C2.21 324.66 2.12 324.69 2.04 324.73 C1.95 324.77 1.89 324.82 1.85 324.88 C1.8 324.95 1.78 325.02
								 1.78 325.1 C1.78 325.21 1.81 325.3 1.88 325.38 C1.95 325.45 2.04 325.52 2.15 325.57 C2.26 325.63
								 2.38 325.68 2.52 325.72 C2.66 325.77 2.79 325.81 2.92 325.86 C3.17 325.94 3.38 326.03 3.58 326.13
								 C3.77 326.23 3.94 326.35 4.08 326.49 C4.22 326.62 4.33 326.78 4.41 326.96 C4.48 327.14 4.52 327.35
								 4.52 327.6 C4.52 327.95 4.44 328.25 4.29 328.49 C4.14 328.74 3.94 328.94 3.69 329.1 C3.43 329.25
								 3.14 329.37 2.82 329.44 C2.49 329.51 2.15 329.54 1.8 329.54 C1.15 329.54 0.55 329.44 0 329.24 Z"
							class="st13"/>
				</g>
			</g>
			<g id="group368-234" transform="translate(274.743,-265.326)" v:mID="368" v:groupContext="group">
				<title>Sheet.368</title>
				<g id="shape369-235" v:mID="369" v:groupContext="shape" transform="translate(24.8331,-16.8872)">
					<title>Sheet.369</title>
					<path d="M8.13 329.54 L6.11 329.54 L5.52 327.71 L2.59 327.71 L2.01 329.54 L0 329.54 L3 321.3 L5.2 321.3 L8.13
								 329.54 ZM5.1 326.28 L4.21 323.51 C4.15 323.31 4.1 323.06 4.07 322.77 L4.03 322.77 C4.01 323.01 3.96
								 323.25 3.88 323.49 L2.99 326.28 L5.1 326.28 L5.1 326.28 Z" class="st13"/>
				</g>
				<g id="shape370-237" v:mID="370" v:groupContext="shape" transform="translate(33.8912,-16.8872)">
					<title>Sheet.370</title>
					<path d="M1.86 326.7 L1.86 329.54 L0 329.54 L0 321.3 L2.91 321.3 C4.98 321.3 6.02 322.18 6.02 323.93 C6.02 324.76
								 5.72 325.43 5.13 325.94 C4.53 326.45 3.74 326.7 2.74 326.7 L1.86 326.7 ZM1.86 322.73 L1.86 325.3
								 L2.59 325.3 C3.57 325.3 4.07 324.86 4.07 324 C4.07 323.15 3.57 322.73 2.59 322.73 L1.86 322.73 Z"
							class="st13"/>
				</g>
				<g id="shape371-239" v:mID="371" v:groupContext="shape" transform="translate(40.9561,-16.8872)">
					<title>Sheet.371</title>
					<path d="M1.86 329.54 L0 329.54 L0 321.3 L1.86 321.3 L1.86 329.54 Z" class="st13"/>
				</g>
				<g id="shape372-241" v:mID="372" v:groupContext="shape" transform="translate(9.89209E-14,-2.76409)">
					<title>Sheet.372</title>
					<path d="M9.39 329.54 L7.56 329.54 L7.56 324.61 C7.56 324.08 7.58 323.49 7.63 322.85 L7.58 322.85 C7.49 323.35
								 7.4 323.72 7.32 323.94 L5.39 329.54 L3.87 329.54 L1.91 324 C1.86 323.85 1.77 323.46 1.65 322.85
								 L1.6 322.85 C1.65 323.66 1.67 324.37 1.67 324.99 L1.67 329.54 L0 329.54 L0 321.3 L2.72 321.3 L4.4
								 326.19 C4.54 326.58 4.63 326.97 4.7 327.36 L4.73 327.36 C4.83 326.91 4.94 326.51 5.06 326.17 L6.74
								 321.3 L9.39 321.3 L9.39 329.54 L9.39 329.54 Z" class="st13"/>
				</g>
				<g id="shape373-243" v:mID="373" v:groupContext="shape" transform="translate(10.6318,-2.62034)">
					<title>Sheet.373</title>
					<path d="M5.33 329.4 L3.61 329.4 L3.61 328.55 L3.59 328.55 C3.2 329.21 2.61 329.54 1.84 329.54 C1.27 329.54 0.82
								 329.38 0.49 329.06 C0.16 328.73 0 328.3 0 327.76 C0 326.62 0.68 325.96 2.03 325.78 L3.63 325.57
								 C3.63 324.93 3.28 324.61 2.58 324.61 C1.88 324.61 1.21 324.81 0.58 325.23 L0.58 323.86 C0.83 323.73
								 1.18 323.62 1.62 323.52 C2.06 323.42 2.45 323.37 2.82 323.37 C4.49 323.37 5.33 324.21 5.33 325.88
								 L5.33 329.4 L5.33 329.4 ZM3.63 327.01 L3.63 326.61 L2.56 326.75 C1.97 326.83 1.67 327.09 1.67 327.55
								 C1.67 327.75 1.75 327.92 1.89 328.06 C2.03 328.19 2.23 328.25 2.47 328.25 C2.81 328.25 3.09 328.14
								 3.3 327.9 C3.52 327.67 3.63 327.37 3.63 327.01 Z" class="st13"/>
				</g>
				<g id="shape374-245" v:mID="374" v:groupContext="shape" transform="translate(17.3924,-2.76409)">
					<title>Sheet.374</title>
					<path d="M5.68 329.54 L3.87 329.54 L3.87 326.27 C3.87 325.36 3.55 324.9 2.9 324.9 C2.58 324.9 2.32 325.03 2.12
								 325.27 C1.92 325.51 1.82 325.82 1.82 326.19 L1.82 329.54 L0 329.54 L0 323.66 L1.82 323.66 L1.82
								 324.59 L1.84 324.59 C2.27 323.87 2.9 323.51 3.73 323.51 C5.03 323.51 5.68 324.32 5.68 325.94 L5.68
								 329.54 Z" class="st13"/>
				</g>
				<g id="shape375-247" v:mID="375" v:groupContext="shape" transform="translate(24.1017,-2.62034)">
					<title>Sheet.375</title>
					<path d="M5.33 329.4 L3.61 329.4 L3.61 328.55 L3.59 328.55 C3.2 329.21 2.61 329.54 1.84 329.54 C1.27 329.54 0.82
								 329.38 0.49 329.06 C0.16 328.73 0 328.3 0 327.76 C0 326.62 0.68 325.96 2.03 325.78 L3.63 325.57
								 C3.63 324.93 3.28 324.61 2.58 324.61 C1.88 324.61 1.21 324.81 0.58 325.23 L0.58 323.86 C0.83 323.73
								 1.18 323.62 1.62 323.52 C2.06 323.42 2.45 323.37 2.82 323.37 C4.49 323.37 5.33 324.21 5.33 325.88
								 L5.33 329.4 L5.33 329.4 ZM3.63 327.01 L3.63 326.61 L2.56 326.75 C1.97 326.83 1.67 327.09 1.67 327.55
								 C1.67 327.75 1.75 327.92 1.89 328.06 C2.03 328.19 2.23 328.25 2.47 328.25 C2.81 328.25 3.09 328.14
								 3.3 327.9 C3.52 327.67 3.63 327.37 3.63 327.01 Z" class="st13"/>
				</g>
				<g id="shape376-249" v:mID="376" v:groupContext="shape" transform="translate(30.5403,1.13687E-13)">
					<title>Sheet.376</title>
					<path d="M6.12 326.11 C6.12 327.2 5.8 328.04 5.17 328.64 C4.54 329.24 3.62 329.54 2.42 329.54 C1.63 329.54 1
								 329.43 0.54 329.2 L0.54 327.68 C1.14 328.03 1.76 328.2 2.37 328.2 C2.99 328.2 3.46 328.04 3.8 327.72
								 C4.14 327.39 4.3 326.96 4.3 326.4 L4.3 325.93 L4.28 325.93 C3.87 326.59 3.26 326.92 2.45 326.92
								 C1.7 326.92 1.1 326.66 0.66 326.13 C0.22 325.6 0 324.89 0 324 C0 323.01 0.25 322.22 0.74 321.63
								 C1.23 321.04 1.87 320.75 2.67 320.75 C3.39 320.75 3.93 321.03 4.28 321.58 L4.3 321.58 L4.3 320.89
								 L6.12 320.89 L6.12 326.11 ZM4.33 323.95 L4.33 323.49 C4.33 323.11 4.22 322.8 4 322.53 C3.78 322.27
								 3.49 322.14 3.14 322.14 C2.73 322.14 2.42 322.3 2.19 322.61 C1.96 322.93 1.84 323.37 1.84 323.94
								 C1.84 324.43 1.95 324.82 2.17 325.1 C2.39 325.39 2.69 325.53 3.07 325.53 C3.44 325.53 3.75 325.39
								 3.98 325.1 C4.21 324.81 4.33 324.43 4.33 323.95 Z" class="st13"/>
				</g>
				<g id="shape377-251" v:mID="377" v:groupContext="shape" transform="translate(37.8271,-2.62034)">
					<title>Sheet.377</title>
					<path d="M5.64 326.97 L1.8 326.97 C1.86 327.83 2.4 328.25 3.41 328.25 C4.06 328.25 4.63 328.1 5.12 327.79 L5.12
								 329.11 C4.58 329.4 3.87 329.54 3 329.54 C2.05 329.54 1.31 329.28 0.79 328.75 C0.26 328.23 0 327.49
								 0 326.55 C0 325.57 0.28 324.8 0.85 324.23 C1.42 323.66 2.12 323.37 2.94 323.37 C3.8 323.37 4.46
								 323.62 4.93 324.13 C5.4 324.64 5.64 325.34 5.64 326.21 L5.64 326.97 ZM3.95 325.86 C3.95 325.02 3.61
								 324.59 2.93 324.59 C2.64 324.59 2.39 324.72 2.18 324.96 C1.96 325.2 1.83 325.5 1.79 325.86 L3.95
								 325.86 Z" class="st13"/>
				</g>
				<g id="shape378-253" v:mID="378" v:groupContext="shape" transform="translate(44.6113,-2.76325)">
					<title>Sheet.378</title>
					<path d="M9.34 329.54 L7.53 329.54 L7.53 326.19 C7.53 325.33 7.22 324.9 6.59 324.9 C6.29 324.9 6.05 325.03 5.86
								 325.29 C5.67 325.55 5.58 325.87 5.58 326.25 L5.58 329.54 L3.76 329.54 L3.76 326.15 C3.76 325.32
								 3.46 324.9 2.84 324.9 C2.53 324.9 2.28 325.03 2.09 325.27 C1.91 325.52 1.82 325.85 1.82 326.27 L1.82
								 329.54 L0 329.54 L0 323.66 L1.82 323.66 L1.82 324.58 L1.84 324.58 C2.03 324.26 2.29 324.01 2.63
								 323.81 C2.97 323.61 3.34 323.51 3.74 323.51 C4.57 323.51 5.14 323.88 5.45 324.61 C5.89 323.88 6.55
								 323.51 7.42 323.51 C8.7 323.51 9.34 324.3 9.34 325.88 L9.34 329.54 L9.34 329.54 Z" class="st13"/>
				</g>
				<g id="shape379-255" v:mID="379" v:groupContext="shape" transform="translate(55.0607,-2.62034)">
					<title>Sheet.379</title>
					<path d="M5.64 326.97 L1.8 326.97 C1.86 327.83 2.4 328.25 3.41 328.25 C4.06 328.25 4.63 328.1 5.12 327.79 L5.12
								 329.11 C4.58 329.4 3.87 329.54 3 329.54 C2.05 329.54 1.31 329.28 0.79 328.75 C0.26 328.23 0 327.49
								 0 326.55 C0 325.57 0.28 324.8 0.85 324.23 C1.42 323.66 2.12 323.37 2.94 323.37 C3.8 323.37 4.46
								 323.62 4.93 324.13 C5.4 324.64 5.64 325.34 5.64 326.21 L5.64 326.97 ZM3.95 325.86 C3.95 325.02 3.61
								 324.59 2.93 324.59 C2.64 324.59 2.39 324.72 2.18 324.96 C1.96 325.2 1.83 325.5 1.79 325.86 L3.95
								 325.86 Z" class="st13"/>
				</g>
				<g id="shape380-257" v:mID="380" v:groupContext="shape" transform="translate(61.8465,-2.76409)">
					<title>Sheet.380</title>
					<path d="M5.68 329.54 L3.87 329.54 L3.87 326.27 C3.87 325.36 3.55 324.9 2.9 324.9 C2.58 324.9 2.32 325.03 2.12
								 325.27 C1.92 325.51 1.82 325.82 1.82 326.19 L1.82 329.54 L0 329.54 L0 323.66 L1.82 323.66 L1.82
								 324.59 L1.84 324.59 C2.27 323.87 2.9 323.51 3.73 323.51 C5.03 323.51 5.68 324.32 5.68 325.94 L5.68
								 329.54 Z" class="st13"/>
				</g>
				<g id="shape381-259" v:mID="381" v:groupContext="shape" transform="translate(68.3616,-2.62034)">
					<title>Sheet.381</title>
					<path d="M4.09 329.33 C3.82 329.47 3.41 329.54 2.87 329.54 C1.59 329.54 0.95 328.88 0.95 327.55 L0.95 324.85
								 L0 324.85 L0 323.51 L0.95 323.51 L0.95 322.24 L2.76 321.73 L2.76 323.51 L4.09 323.51 L4.09 324.85
								 L2.76 324.85 L2.76 327.23 C2.76 327.85 3.01 328.15 3.49 328.15 C3.69 328.15 3.88 328.1 4.09 327.99
								 L4.09 329.33 Z" class="st13"/>
				</g>
			</g>
			<g id="shape385-261" v:mID="385" v:groupContext="shape" transform="translate(71.8803,-243.782)">
				<title>Sheet.385</title>
				<desc>Create credential provider</desc>
				<v:textBlock v:margins="rect(4,4,4,4)"/>
				<v:textRect cx="84.375" cy="319.98" width="168.75" height="19.125"/>
				<rect x="0" y="310.418" width="168.75" height="19.125" class="st14"/>
				<text x="9.56" y="324.18" class="st15" v:langID="1033"><v:paragraph v:horizAlign="1"/><v:tabList/>Create credential provider</text>			</g>
			<g id="shape388-264" v:mID="388" v:groupContext="shape" transform="translate(66.6383,-217.737)">
				<title>Sheet.388</title>
				<desc>Create credential provider response</desc>
				<v:textBlock v:margins="rect(4,4,4,4)"/>
				<v:textRect cx="117" cy="317.73" width="234" height="23.625"/>
				<rect x="0" y="305.918" width="234" height="23.625" class="st14"/>
				<text x="14.68" y="321.93" class="st15" v:langID="1033"><v:paragraph v:horizAlign="1"/><v:tabList/>Create credential provider response</text>			</g>
			<g id="shape390-267" v:mID="390" v:groupContext="shape" transform="translate(65.8723,-194.505)">
				<title>Sheet.390</title>
				<desc>Create connection</desc>
				<v:textBlock v:margins="rect(4,4,4,4)"/>
				<v:textRect cx="67.5" cy="319.136" width="135" height="20.8125"/>
				<rect x="0" y="308.73" width="135" height="20.8125" class="st14"/>
				<text x="15.31" y="323.34" class="st15" v:langID="1033"><v:paragraph v:horizAlign="1"/><v:tabList/>Create connection</text>			</g>
			<g id="shape391-270" v:mID="391" v:groupContext="shape" transform="translate(76.8591,-169.585)">
				<title>Sheet.391</title>
				<desc>Create connection response</desc>
				<v:textBlock v:margins="rect(4,4,4,4)"/>
				<v:textRect cx="84.375" cy="318.293" width="168.75" height="22.5"/>
				<rect x="0" y="307.043" width="168.75" height="22.5" class="st14"/>
				<text x="4" y="322.49" class="st15" v:langID="1033"><v:paragraph/><v:tabList/>Create connection response</text>			</g>
			<g id="shape393-273" v:mID="393" v:groupContext="shape" transform="translate(76.8962,-145.356)">
				<title>Sheet.393</title>
				<desc>Get consent link</desc>
				<v:textBlock v:margins="rect(4,4,4,4)"/>
				<v:textRect cx="51.7846" cy="319.98" width="103.57" height="19.125"/>
				<rect x="0" y="310.418" width="103.569" height="19.125" class="st14"/>
				<text x="4" y="324.18" class="st15" v:langID="1033"><v:paragraph/><v:tabList/>Get consent link</text>			</g>
			<g id="shape394-276" v:mID="394" v:groupContext="shape" transform="translate(75.9872,-119.654)">
				<title>Sheet.394</title>
				<desc>Return consent link</desc>
				<v:textBlock v:margins="rect(4,4,4,4)"/>
				<v:textRect cx="76" cy="319.543" width="152" height="20"/>
				<rect x="0" y="309.543" width="152" height="20" class="st14"/>
				<text x="4" y="323.74" class="st15" v:langID="1033"><v:paragraph/><v:tabList/>Return consent link</text>			</g>
			<g id="shape395-279" v:mID="395" v:groupContext="shape" transform="translate(75.6802,-95.952)">
				<title>Sheet.395</title>
				<desc>Open browser and provide consent</desc>
				<v:textBlock v:margins="rect(4,4,4,4)"/>
				<v:textRect cx="105.469" cy="320.543" width="210.94" height="18"/>
				<rect x="0" y="311.543" width="210.937" height="18" class="st14"/>
				<text x="4" y="324.74" class="st15" v:langID="1033"><v:paragraph/><v:tabList/>Open browser and provide consent</text>			</g>
			<g id="shape396-282" v:mID="396" v:groupContext="shape" transform="translate(356.852,-74.7649)">
				<title>Sheet.396</title>
				<desc>Consent approved</desc>
				<v:textBlock v:margins="rect(4,4,4,4)"/>
				<v:textRect cx="76" cy="319.543" width="152" height="20"/>
				<rect x="0" y="309.543" width="152" height="20" class="st14"/>
				<text x="4" y="323.74" class="st15" v:langID="1033"><v:paragraph/><v:tabList/>Consent approved</text>			</g>
			<g id="shape397-285" v:mID="397" v:groupContext="shape" transform="translate(357.618,-51.9752)">
				<title>Sheet.397</title>
				<desc>Fetch tokens</desc>
				<v:textBlock v:margins="rect(4,4,4,4)"/>
				<v:textRect cx="84.375" cy="321.949" width="168.75" height="15.1875"/>
				<rect x="0" y="314.355" width="168.75" height="15.1875" class="st14"/>
				<text x="4" y="326.15" class="st15" v:langID="1033"><v:paragraph/><v:tabList/>Fetch tokens</text>			</g>
			<g id="shape398-288" v:mID="398" v:groupContext="shape" transform="translate(357.265,-24.3349)">
				<title>Sheet.398</title>
				<desc>Save tokens</desc>
				<v:textBlock v:margins="rect(4,4,4,4)"/>
				<v:textRect cx="55.9687" cy="319.136" width="111.94" height="20.8125"/>
				<rect x="0" y="308.73" width="111.937" height="20.8125" class="st14"/>
				<text x="4" y="323.34" class="st15" v:langID="1033"><v:paragraph/><v:tabList/>Save tokens</text>			</g>
			<g id="shape399-291" v:mID="399" v:groupContext="shape" transform="translate(76.9787,-4.59574)">
				<title>Sheet.399</title>
				<desc>Redirect</desc>
				<v:textBlock v:margins="rect(4,4,4,4)"/>
				<v:textRect cx="76" cy="319.543" width="152" height="20"/>
				<rect x="0" y="309.543" width="152" height="20" class="st14"/>
				<text x="4" y="323.74" class="st15" v:langID="1033"><v:paragraph/><v:tabList/>Redirect</text>			</g>
			<g id="shape400-294" v:mID="400" v:groupContext="shape" transform="translate(538.707,-273.663)">
				<title>Sheet.400</title>
				<desc>Credential provider</desc>
				<v:textBlock v:margins="rect(4,4,4,4)"/>
				<v:textRect cx="41.625" cy="323.636" width="83.25" height="11.8125"/>
				<rect x="0" y="317.73" width="83.25" height="11.8125" class="st14"/>
				<text x="11.55" y="319.44" class="st16" v:langID="1033"><v:paragraph v:horizAlign="1"/><v:tabList/>Credential<v:lf/><tspan
							x="16.82" dy="1.2em" class="st17">provider</tspan></text>			</g>
		</g>
	</g>
</svg>
