<svg id="Icons" xmlns="http://www.w3.org/2000/svg" viewBox="0 0 64 64"><defs><style>.cls-2{fill:#fff}</style></defs><path d="M0 31c0-.09.05-.18.06-.27.05-.92.06-1.84.16-2.75a15.76 15.76 0 012.85-8.28 8.3 8.3 0 015.69-3.32 7.78 7.78 0 011-.06H31c.42 0 .42 0 .42-.42v-1.47c0-.3-.09-.37-.38-.37H16.56c-.25 0-1.56-.07-1.56-.33V6.51c0-1.08 1.74-2 2.44-2.77A8.77 8.77 0 0121 1.45 21.87 21.87 0 0126.12.28a43.09 43.09 0 017.2-.22 23.46 23.46 0 017.58 1.41 9.32 9.32 0 014.25 3 6 6 0 011.24 4c-.06 1.22 0 2.46 0 3.68v6.82c0 1.34 0 2.68-.06 4a7.12 7.12 0 01-4.62 6.62 10.55 10.55 0 01-4.12.79h-15A8.58 8.58 0 0018 31.59a7.92 7.92 0 00-3.47 4.85 11.37 11.37 0 00-.42 3.12v6.82c0 .45 0 .45-.46.45-1.63 0-3.27.05-4.9 0A6.84 6.84 0 014.4 45a10.87 10.87 0 01-3-4.67 19.89 19.89 0 01-1.13-5.02c-.1-1.1-.14-2.2-.21-3.3 0-.12-.06-.24-.06-.36z" fill="#3772a4"/><path class="cls-2" d="M20 7a3 3 0 016 0 3 3 0 11-6 0z"/><path d="M63 32a1.61 1.61 0 00-.06.27c-.05.92-.06 1.84-.16 2.75a15.76 15.76 0 01-2.85 8.25 8.3 8.3 0 01-5.69 3.32 7.78 7.78 0 01-1 .06H32c-.42 0-.42 0-.42.42v1.47c0 .3.09.37.38.37h14.48c.25 0 .33.07.33.33v7.22a4.21 4.21 0 01-1.22 2.77A8.77 8.77 0 0142 61.55a21.87 21.87 0 01-5.11 1.17 43.09 43.09 0 01-7.2.22 23.46 23.46 0 01-7.58-1.41 9.32 9.32 0 01-4.25-3 6 6 0 01-1.24-4c.06-1.22 0-2.46 0-3.68v-6.82c0-1.34 0-2.68.06-4a7.12 7.12 0 014.62-6.62 10.55 10.55 0 014.12-.79h15A8.58 8.58 0 0045 31.41a7.92 7.92 0 003.47-4.85 11.37 11.37 0 00.42-3.12v-6.82c0-.45 0-.45.46-.45 1.63 0 3.27-.05 4.9 0A6.84 6.84 0 0158.6 18a10.87 10.87 0 013 4.67 19.89 19.89 0 011.11 5.07c.1 1.1.14 2.2.21 3.3a3.25 3.25 0 00.06.36q.02.29.02.6z" fill="#ffda4b"/><path class="cls-2" d="M43.51 54.92a3 3 0 01-6 0 3 3 0 116 0z"/></svg>