<svg xmlns="http://www.w3.org/2000/svg" viewBox="0 0 64 64"><path fill="#e4cb58" d="M1 1h62v62H1z"/><path d="M29 29.8h5.63v20.26c0 5.06-3.39 8.17-7.88 8.17-7.09 0-8.78-5.19-8.78-5.19l4.66-2.85s1.27 3 3.57 3S29 51.58 29 49V29.8zm22 6.97L55.2 34a8.08 8.08 0 00-7.51-4.62c-5.63 0-8.42 3.55-8.42 8.17s4.39 7.11 7.33 8.36c3.15 1.33 4.73 2.47 4.73 4.37 0 1.39-1.15 2.77-3.63 2.85-3.94.13-5.63-3.61-5.63-3.61l-4.42 3s2.42 5.76 10.18 5.76 9.09-5.44 9.09-8-.91-6.14-6.42-8.61-5.84-3.67-5.84-4.97 1.15-2.34 3-2.34S51 36.7 51 36.7" fill="#444"/></svg>