<svg xmlns="http://www.w3.org/2000/svg" xmlns:xlink="http://www.w3.org/1999/xlink" viewBox="0 0 447.21 136.65">
  <defs>
    <linearGradient id="Orange_Gradient" data-name="Orange Gradient" x1="352.5" y1="88.25" x2="352.5" y2="136.65" gradientUnits="userSpaceOnUse">
      <stop offset="0" stop-color="#ffd70f"/>
      <stop offset="0.27" stop-color="#ffd310"/>
      <stop offset="0.54" stop-color="#ffc613"/>
      <stop offset="0.83" stop-color="#feb217"/>
      <stop offset="1" stop-color="#fea11b"/>
    </linearGradient>
    <linearGradient id="linear-gradient" x1="13.63" y1="489.54" x2="13.63" y2="466.92" gradientTransform="matrix(1, 0, 0, -1, 0, 565.65)" gradientUnits="userSpaceOnUse">
      <stop offset="0.22" stop-color="#32d4f5"/>
      <stop offset="0.47" stop-color="#31d1f3"/>
      <stop offset="0.63" stop-color="#2ec9eb"/>
      <stop offset="0.77" stop-color="#29bade"/>
      <stop offset="0.89" stop-color="#22a5cb"/>
      <stop offset="1" stop-color="#198ab3"/>
    </linearGradient>
    <linearGradient id="linear-gradient-2" x1="12.98" y1="501.67" x2="14.63" y2="481.14" xlink:href="#linear-gradient"/>
    <radialGradient id="radial-gradient" cx="57.2" cy="79.43" r="9" gradientUnits="userSpaceOnUse">
      <stop offset="0.45" stop-color="#0078d4"/>
      <stop offset="0.81" stop-color="#0063af"/>
      <stop offset="1" stop-color="#005ba1"/>
    </radialGradient>
    <radialGradient id="radial-gradient-2" cx="226.6" cy="66.37" xlink:href="#radial-gradient"/>
    <radialGradient id="radial-gradient-3" cx="226.6" cy="92.42" r="9" xlink:href="#Orange_Gradient"/>
    <linearGradient id="linear-gradient-3" x1="109.8" y1="471" x2="109.8" y2="501" gradientTransform="matrix(1, 0, 0, -1, 0, 565.65)" gradientUnits="userSpaceOnUse">
      <stop offset="0" stop-color="#0078d4"/>
      <stop offset="0.16" stop-color="#1380da"/>
      <stop offset="0.53" stop-color="#3c91e5"/>
      <stop offset="0.82" stop-color="#559cec"/>
      <stop offset="1" stop-color="#5ea0ef"/>
    </linearGradient>
    <linearGradient id="linear-gradient-4" x1="286.4" y1="524.5" x2="286.4" y2="536.26" gradientTransform="matrix(1, 0, 0, -1, 0, 565.65)" gradientUnits="userSpaceOnUse">
      <stop offset="0" stop-color="#b3b3b3"/>
      <stop offset="0.26" stop-color="#c1c1c1"/>
      <stop offset="1" stop-color="#e6e6e6"/>
    </linearGradient>
    <linearGradient id="linear-gradient-5" x1="342.89" y1="531.13" x2="357.97" y2="531.13" gradientTransform="matrix(1, 0, 0, -1, 0, 565.65)" gradientUnits="userSpaceOnUse">
      <stop offset="0" stop-color="#005ba1"/>
      <stop offset="0.07" stop-color="#0060a9"/>
      <stop offset="0.36" stop-color="#0071c8"/>
      <stop offset="0.52" stop-color="#0078d4"/>
      <stop offset="0.64" stop-color="#0074cd"/>
      <stop offset="0.82" stop-color="#006abb"/>
      <stop offset="1" stop-color="#005ba1"/>
    </linearGradient>
    <radialGradient id="radial-gradient-4" cx="350.86" cy="530.65" r="8.32" gradientTransform="matrix(1, 0, 0, -1, 0, 565.65)" gradientUnits="userSpaceOnUse">
      <stop offset="0" stop-color="#f2f2f2"/>
      <stop offset="0.58" stop-color="#eee"/>
      <stop offset="1" stop-color="#e6e6e6"/>
    </radialGradient>
    <radialGradient id="radial-gradient-5" cx="414.49" cy="532.5" r="10" gradientTransform="matrix(1, 0, 0, -1, 0, 565.65)" gradientUnits="userSpaceOnUse">
      <stop offset="0.18" stop-color="#5ea0ef"/>
      <stop offset="0.56" stop-color="#5c9fee"/>
      <stop offset="0.69" stop-color="#559ced"/>
      <stop offset="0.78" stop-color="#4a97e9"/>
      <stop offset="0.86" stop-color="#3990e4"/>
      <stop offset="0.93" stop-color="#2387de"/>
      <stop offset="0.99" stop-color="#087bd6"/>
      <stop offset="1" stop-color="#0078d4"/>
    </radialGradient>
    <radialGradient id="radial-gradient-6" cx="472.61" cy="350.87" r="11.62" gradientTransform="matrix(0.94, 0, 0, -0.94, -31.06, 361.68)" gradientUnits="userSpaceOnUse">
      <stop offset="0.27" stop-color="#ffd70f"/>
      <stop offset="0.49" stop-color="#ffcb12"/>
      <stop offset="0.88" stop-color="#feac19"/>
      <stop offset="1" stop-color="#fea11b"/>
    </radialGradient>
  </defs>
  <g id="Shapes">
    <rect width="447.21" height="136.65" fill="#fff"/>
    <g>
      <line x1="26.4" y1="79.65" x2="82.62" y2="79.65" fill="none" stroke="#3c3c41" stroke-miterlimit="10"/>
      <polygon points="81.52 83.39 88 79.64 81.52 75.91 81.52 83.39" fill="#3c3c41"/>
    </g>
    <g>
      <line x1="198" y1="66.58" x2="249.82" y2="66.58" fill="none" stroke="#3c3c41" stroke-miterlimit="10"/>
      <polygon points="248.72 70.32 255.2 66.58 248.72 62.84 248.72 70.32" fill="#3c3c41"/>
    </g>
    <g>
      <line x1="198" y1="92.64" x2="249.82" y2="92.64" fill="none" stroke="#d15900" stroke-miterlimit="10"/>
      <polygon points="248.72 96.38 255.2 92.64 248.72 88.9 248.72 96.38" fill="#d15900"/>
    </g>
    <g>
      <rect x="90.4" y="59.85" width="105.6" height="39.6" fill="#fff"/>
      <rect x="90.4" y="59.85" width="105.6" height="39.6" fill="#0078d4" opacity="0.1"/>
    </g>
    <g>
      <rect x="257.8" y="88.25" width="189.41" height="48.4" fill="#fff"/>
      <rect x="257.8" y="88.25" width="189.41" height="48.4" opacity="0.55" fill="url(#Orange_Gradient)"/>
    </g>
    <g>
      <path d="M24.83,94.65a2.42,2.42,0,0,0,2.42-2.42h0a1.31,1.31,0,0,0,0-.28c-1-7.62-5.29-13.82-13.62-13.82S.86,83.38,0,92a2.44,2.44,0,0,0,2.16,2.68H24.83Z" fill="url(#linear-gradient)"/>
      <path d="M13.63,79.93A7.58,7.58,0,0,1,9.5,78.71l4.13,10.7L17.7,78.78A7.6,7.6,0,0,1,13.63,79.93Z" fill="#fff" opacity="0.8" style="isolation: isolate"/>
      <circle cx="13.65" cy="72.28" r="7.63" fill="url(#linear-gradient-2)"/>
    </g>
    <g>
      <circle cx="57.2" cy="79.43" r="9" fill="url(#radial-gradient)"/>
      <path d="M61.11,83.74H59.58l-.75-2.14H55.52l-.73,2.14H53.27l3.15-8.41H58Zm-2.65-3.28-1.17-3.35c0-.11-.07-.29-.11-.53h0a4.88,4.88,0,0,1-.12.53l-1.16,3.35Z" fill="#fff"/>
    </g>
    <g>
      <circle cx="226.6" cy="66.37" r="9" fill="url(#radial-gradient-2)"/>
      <path d="M224,70.67v-8.4h2.67a3.18,3.18,0,0,1,1.93.53,1.68,1.68,0,0,1,.71,1.39,2,2,0,0,1-.4,1.24,2.23,2.23,0,0,1-1.12.75v0a2.13,2.13,0,0,1,1.38.64,1.93,1.93,0,0,1,.52,1.41,2.09,2.09,0,0,1-.85,1.74,3.32,3.32,0,0,1-2.14.67Zm1.39-7.28v2.39h.9a1.76,1.76,0,0,0,1.14-.34,1.19,1.19,0,0,0,.42-1q0-1.08-1.44-1.08Zm0,3.51v2.66h1.19a1.84,1.84,0,0,0,1.21-.36,1.24,1.24,0,0,0,.42-1c0-.87-.6-1.3-1.81-1.3Z" fill="#fff"/>
    </g>
    <g>
      <circle cx="226.6" cy="92.42" r="9" fill="url(#radial-gradient-3)"/>
      <path d="M229.77,96.37a5.06,5.06,0,0,1-2.36.5,3.86,3.86,0,0,1-2.93-1.16,4.18,4.18,0,0,1-1.1-3,4.41,4.41,0,0,1,1.24-3.26,4.26,4.26,0,0,1,3.13-1.24,5.15,5.15,0,0,1,2,.35v1.38a3.66,3.66,0,0,0-1.87-.5,3,3,0,0,0-2.22.87,3.22,3.22,0,0,0-.84,2.33,3,3,0,0,0,.79,2.21,2.74,2.74,0,0,0,2.08.83,3.68,3.68,0,0,0,2.06-.57Z" fill="#3c3c41"/>
    </g>
    <path d="M105.3,85.65h9v9h-9Zm-10.5-12h9v-9H96.06A1.25,1.25,0,0,0,94.8,65.9Zm1.26,21h7.74v-9h-9v7.74a1.26,1.26,0,0,0,1.26,1.26ZM94.8,84.15h9v-9h-9Zm21,10.5h7.74a1.26,1.26,0,0,0,1.26-1.26h0V85.65h-9Zm-10.5-10.5h9v-9h-9Zm10.5,0h9v-9h-9Zm0-19.5v9h9V65.9a1.25,1.25,0,0,0-1.26-1.25H115.8Zm-10.5,9h9v-9h-9Z" fill="url(#linear-gradient-3)"/>
    <g>
      <rect x="257.8" y="16.58" width="189.41" height="62.84" fill="#fff"/>
      <rect x="257.8" y="16.58" width="189.41" height="62.84" fill="#0078d4" opacity="0.1"/>
    </g>
    <g>
      <path d="M276.45,29.39h19.9V40.48a.67.67,0,0,1-.66.67H277.12a.67.67,0,0,1-.67-.67Z" fill="url(#linear-gradient-4)"/>
      <path d="M277.12,25.15h18.57a.67.67,0,0,1,.66.67v3.57h-19.9V25.81A.67.67,0,0,1,277.12,25.15Z" fill="#37c2b1"/>
      <path d="M279.16,30.68h14.48a.3.3,0,0,1,.3.31v1.64a.32.32,0,0,1-.3.32H279.16a.33.33,0,0,1-.31-.32V31A.31.31,0,0,1,279.16,30.68Z" fill="#fff"/>
      <path d="M279.17,33.94h14.48a.32.32,0,0,1,.3.32v1.65a.3.3,0,0,1-.3.31H279.17a.3.3,0,0,1-.3-.31V34.32a.31.31,0,0,1,.25-.37Z" fill="#37c2b1"/>
      <path d="M279.17,37.24h14.48a.32.32,0,0,1,.3.32v1.65a.3.3,0,0,1-.3.31H279.17a.3.3,0,0,1-.3-.31V37.56A.32.32,0,0,1,279.17,37.24Z" fill="#258277"/>
    </g>
    <g>
      <path d="M350.43,28.61c-4.16,0-7.54-1.18-7.54-2.73V40.42c0,1.5,3.32,2.71,7.44,2.73h.1c4.17,0,7.54-1.18,7.54-2.73V25.88C358,27.4,354.6,28.61,350.43,28.61Z" fill="url(#linear-gradient-5)"/>
      <path d="M358,25.88c0,1.52-3.37,2.73-7.54,2.73s-7.54-1.18-7.54-2.73,3.38-2.73,7.54-2.73S358,24.33,358,25.88" fill="#e8e8e8"/>
      <path d="M356.22,25.66c0,1-2.6,1.74-5.79,1.74s-5.79-.78-5.79-1.74,2.6-1.73,5.79-1.73,5.79.77,5.79,1.73" fill="#50e6ff"/>
      <path d="M350.43,26.09a13.62,13.62,0,0,0-4.57.67,16.19,16.19,0,0,0,9.15,0A13.68,13.68,0,0,0,350.43,26.09Z" fill="#198ab3"/>
      <path d="M355,36V32H354v4.86h2.9V36Zm-8.4-2a2.28,2.28,0,0,1-.6-.36.54.54,0,0,1-.14-.38.38.38,0,0,1,.18-.35.84.84,0,0,1,.49-.15,2,2,0,0,1,1.18.35v-1a3,3,0,0,0-1.18-.18,1.85,1.85,0,0,0-1.28.4,1.25,1.25,0,0,0-.5,1c0,.6.38,1.07,1.18,1.43a3.3,3.3,0,0,1,.73.42.49.49,0,0,1,.18.38.44.44,0,0,1-.19.36,1,1,0,0,1-.53.13,2,2,0,0,1-1.28-.49v1.09a2.5,2.5,0,0,0,1.26.28,2.12,2.12,0,0,0,1.38-.39,1.26,1.26,0,0,0,.39-1.07,1.23,1.23,0,0,0-.29-.82A2.85,2.85,0,0,0,346.62,34Zm6.17,1.87a2.63,2.63,0,0,0,0-2.73,2.13,2.13,0,0,0-.83-.88,2.52,2.52,0,0,0-2.44,0,2.12,2.12,0,0,0-.86.87,2.86,2.86,0,0,0-.31,1.34,2.69,2.69,0,0,0,.28,1.18,2.12,2.12,0,0,0,.81.87,2.38,2.38,0,0,0,1.18.35l1,1.18h1.43l-1.45-1.3A2.1,2.1,0,0,0,352.79,35.88Zm-1.18-.29a1.11,1.11,0,0,1-.89.41,1.09,1.09,0,0,1-.9-.43,1.75,1.75,0,0,1-.34-1.17,1.78,1.78,0,0,1,.34-1.18,1.2,1.2,0,0,1,.92-.43,1,1,0,0,1,.88.43,2,2,0,0,1,.32,1.18A1.76,1.76,0,0,1,351.61,35.59Z" fill="url(#radial-gradient-4)"/>
    </g>
    <g>
      <path id="aacf8311-a317-400f-b613-74bd00da5ce3" d="M414.49,23.15a10,10,0,1,0,10,10A10,10,0,0,0,414.49,23.15Zm0,18.64a8.64,8.64,0,1,1,8.64-8.64h0A8.64,8.64,0,0,1,414.49,41.79Z" fill="url(#radial-gradient-5)"/>
      <circle cx="414.49" cy="33.15" r="8.64" fill="#fff"/>
      <g>
        <path id="bd983c41-db73-40ec-a4f4-da1213fc9924" d="M419.72,31.19a2.18,2.18,0,0,0,0-3.05h0L416,24.42a2.17,2.17,0,0,0-3,0h0l-3.7,3.72a2.16,2.16,0,0,0,0,3.05l3.08,3.14a.6.6,0,0,1,.18.42v5.74a.72.72,0,0,0,.21.52l1.41,1.41a.48.48,0,0,0,.68,0h0l1.37-1.36h0l.8-.8a.3.3,0,0,0,0-.4l-.58-.58a.32.32,0,0,1,0-.43l.58-.58a.3.3,0,0,0,0-.4l-.58-.58a.32.32,0,0,1,0-.43l.58-.58a.3.3,0,0,0,0-.4l-.8-.81v-.3Zm-5.23-5.86a1.22,1.22,0,1,1-1.22,1.22A1.22,1.22,0,0,1,414.49,25.33Z" fill="url(#radial-gradient-6)"/>
        <path id="ad2e7e44-9bfd-4775-8bf4-8ef26a544921" d="M413.53,40.56h0a.26.26,0,0,0,.38,0,.24.24,0,0,0,.06-.17v-4.7a.28.28,0,0,0-.13-.24h0a.25.25,0,0,0-.35.08.28.28,0,0,0-.05.16v4.7A.34.34,0,0,0,413.53,40.56Z" fill="#ff9300" opacity="0.75" style="isolation: isolate"/>
        <rect id="a996fbff-3936-4b24-b407-369336c143ba" x="411.53" y="29.37" width="6.08" height="0.72" rx="0.33" fill="#ff9300" opacity="0.75" style="isolation: isolate"/>
        <rect id="bb12d31c-3352-4a18-87dd-a169a4a8721d" x="411.53" y="30.54" width="6.08" height="0.72" rx="0.33" fill="#ff9300" opacity="0.75" style="isolation: isolate"/>
      </g>
    </g>
    <g>
      <polygon points="278.35 99.32 294.57 99.32 280.86 104.38 278.35 99.32" fill="#41a4ed"/>
      <polyline points="302.72 113.38 296.05 113.38 294.57 99.32 302.72 113.38" fill="#41a4ed"/>
      <polyline points="280.86 104.38 294.57 99.32 296.05 113.38 280.86 104.38" fill="#2b7cd2"/>
      <polyline points="280.86 104.38 281.24 122.01 296.02 113.38 280.86 104.38" fill="#0358a6"/>
      <polygon points="270.23 113.38 280.86 104.38 281.25 122.01 270.23 113.38" fill="#103f90"/>
      <polyline points="281.25 122.01 296.05 113.38 294.57 127.44 281.25 122.01" fill="#103f90"/>
      <polygon points="270.23 113.38 281.25 122.01 278.35 127.44 270.23 113.38" fill="#163870"/>
      <polygon points="278.35 127.44 281.25 122.01 294.57 127.44 278.35 127.44" fill="#112d56"/>
      <polygon points="270.23 113.38 278.35 99.32 280.86 104.38 270.23 113.38" fill="#0078d3"/>
      <polyline points="294.57 127.44 302.7 113.38 296.05 113.38 294.57 127.44" fill="#0078d3"/>
      <polyline points="302.7 113.38 296.05 113.38 296.05 113.38 296.05 113.38 294.57 127.44 302.7 113.38" fill="#036dc0"/>
      <path d="M303.41,112.77l-8-13.9-.32-.55H277.74l-.31.55-8,13.9-.32.55.32.55,8,13.9.31.55h17.32l.32-.55,8-13.9.31-.55Zm-1.17.19h-5.41a1.3,1.3,0,0,0-.48-.58l-1.24-11.77Zm-19.86,7.9a1.24,1.24,0,0,0-.61-.34l-.32-14.44a1.34,1.34,0,0,0,.65-.47l12.29,7.28a1.32,1.32,0,0,0-.07,1ZM295,112.28l-12.63-7.48a1.5,1.5,0,0,0-.05-.37L294.21,100l1.27,12.11A1.37,1.37,0,0,0,295,112.28Zm-13.18-8.56a1.34,1.34,0,0,0-.79-.26H281l-2-4h14.5Zm-1.72,2a1.28,1.28,0,0,0,.51.31l.32,14.5a1.45,1.45,0,0,0-.34.2l-9.46-7.41Zm1.11,17.37a1,1,0,0,0,.24,0,1.35,1.35,0,0,0,.93-.37l10.89,4.43H279Zm13,3.56L282.77,122a1.09,1.09,0,0,0,0-.44l12-7a1.29,1.29,0,0,0,.65.24Zm-16-26.94,2,4a1.34,1.34,0,0,0-.5,1,1.49,1.49,0,0,0,0,.21l-8.9,7.54Zm-7.31,14.48,9.26,7.25a1.24,1.24,0,0,0,0,.33,1.33,1.33,0,0,0,.37.92L278.22,127ZM295.14,126l1.19-11.39a1.34,1.34,0,0,0,.57-.81h5.28Z" fill="#fff"/>
    </g>
  </g>
  <g id="Text">
    <g>
      <path d="M265.41,10.2h-1.09l-.9-2.35h-3.56L259,10.2h-1.09l3.22-8.4h1ZM263.1,7l-1.32-3.58a3.61,3.61,0,0,1-.12-.56h0a3.36,3.36,0,0,1-.13.56L260.19,7Z" fill="#1e1e1e"/>
      <path d="M270.7,4.48l-3.55,4.9h3.51v.82h-4.93V9.9L269.28,5h-3.21V4.2h4.63Z" fill="#1e1e1e"/>
      <path d="M276.79,10.2h-1V9.25h0A2,2,0,0,1,274,10.34c-1.43,0-2.14-.85-2.14-2.55V4.2h1V7.63c0,1.27.48,1.9,1.45,1.9A1.47,1.47,0,0,0,275.38,9a2,2,0,0,0,.45-1.35V4.2h1Z" fill="#1e1e1e"/>
      <path d="M281.86,5.17a1.18,1.18,0,0,0-.73-.19,1.23,1.23,0,0,0-1,.58,2.72,2.72,0,0,0-.41,1.58V10.2h-1v-6h1V5.44h0a2.17,2.17,0,0,1,.63-1,1.41,1.41,0,0,1,.94-.35,1.49,1.49,0,0,1,.58.08Z" fill="#1e1e1e"/>
      <path d="M287.72,7.44h-4.23A2.21,2.21,0,0,0,284,9a1.85,1.85,0,0,0,1.41.54,3,3,0,0,0,1.87-.66v.9a3.52,3.52,0,0,1-2.09.57,2.52,2.52,0,0,1-2-.82,3.31,3.31,0,0,1-.73-2.3,3.29,3.29,0,0,1,.8-2.28,2.53,2.53,0,0,1,2-.88,2.25,2.25,0,0,1,1.82.76,3.19,3.19,0,0,1,.64,2.12Zm-1-.81a2,2,0,0,0-.4-1.3,1.37,1.37,0,0,0-1.1-.46,1.52,1.52,0,0,0-1.15.49,2.13,2.13,0,0,0-.59,1.27Z" fill="#1e1e1e"/>
      <path d="M292.59,10.2V1.8h2.32c3,0,4.45,1.36,4.45,4.09A4.15,4.15,0,0,1,298.12,9a4.55,4.55,0,0,1-3.3,1.18Zm1-7.51V9.31h1.25a3.55,3.55,0,0,0,2.57-.88,3.3,3.3,0,0,0,.92-2.51q0-3.22-3.43-3.23Z" fill="#1e1e1e"/>
      <path d="M305.17,10.2h-1V9.26h0a2.2,2.2,0,0,1-3.25.61,1.65,1.65,0,0,1-.51-1.26c0-1.12.66-1.78,2-2l1.8-.25q0-1.53-1.23-1.53a3,3,0,0,0-2,.74v-1a3.76,3.76,0,0,1,2-.56c1.41,0,2.11.75,2.11,2.24Zm-1-3-1.44.2a2.25,2.25,0,0,0-1,.33.93.93,0,0,0-.34.84.89.89,0,0,0,.31.71,1.2,1.2,0,0,0,.84.28,1.53,1.53,0,0,0,1.18-.5,1.77,1.77,0,0,0,.46-1.27Z" fill="#1e1e1e"/>
      <path d="M309.77,10.14a1.82,1.82,0,0,1-.9.19c-1.05,0-1.58-.59-1.58-1.76V5h-1V4.2h1V2.74l1-.31V4.2h1.51V5h-1.51V8.4a1.38,1.38,0,0,0,.2.86.8.8,0,0,0,.68.26,1,1,0,0,0,.63-.2Z" fill="#1e1e1e"/>
      <path d="M315.35,10.2h-1V9.26h0a2.2,2.2,0,0,1-3.25.61,1.64,1.64,0,0,1-.5-1.26c0-1.12.66-1.78,2-2l1.79-.25q0-1.53-1.23-1.53a3,3,0,0,0-2,.74v-1a3.76,3.76,0,0,1,2-.56c1.41,0,2.12.75,2.12,2.24Zm-1-3-1.44.2a2.3,2.3,0,0,0-1,.33.93.93,0,0,0-.34.84.89.89,0,0,0,.31.71,1.2,1.2,0,0,0,.84.28,1.53,1.53,0,0,0,1.18-.5,1.77,1.77,0,0,0,.46-1.27Z" fill="#1e1e1e"/>
    </g>
    <g>
      <path d="M143.06,74.62,140.69,83h-1.15l-1.73-6.14a3.77,3.77,0,0,1-.14-.86h0a4.88,4.88,0,0,1-.15.85L135.76,83h-1.15l-2.46-8.4h1.09L135,81.06a3.87,3.87,0,0,1,.14.85h0a4.51,4.51,0,0,1,.19-.85l1.85-6.44h1L140,81.11a4.78,4.78,0,0,1,.14.78h0a5.06,5.06,0,0,1,.16-.8L142,74.62Z" fill="#1e1e1e"/>
      <path d="M148.54,80.26H144.3a2.21,2.21,0,0,0,.54,1.55,1.85,1.85,0,0,0,1.42.54,2.93,2.93,0,0,0,1.86-.67v.91a3.52,3.52,0,0,1-2.09.57,2.52,2.52,0,0,1-2-.82,3.36,3.36,0,0,1-.73-2.3,3.29,3.29,0,0,1,.8-2.28,2.53,2.53,0,0,1,2-.88,2.25,2.25,0,0,1,1.82.76,3.18,3.18,0,0,1,.65,2.12Zm-1-.81a2,2,0,0,0-.4-1.3,1.36,1.36,0,0,0-1.1-.46,1.55,1.55,0,0,0-1.15.48,2.19,2.19,0,0,0-.59,1.28Z" fill="#1e1e1e"/>
      <path d="M151,82.15h0V83h-1V74.14h1v3.93h0a2.3,2.3,0,0,1,2.08-1.19,2.19,2.19,0,0,1,1.8.8,3.32,3.32,0,0,1,.66,2.16,3.74,3.74,0,0,1-.73,2.41,2.44,2.44,0,0,1-2,.91A2,2,0,0,1,151,82.15Zm0-2.42v.84a1.77,1.77,0,0,0,.48,1.26,1.59,1.59,0,0,0,1.23.52,1.6,1.6,0,0,0,1.37-.67,3,3,0,0,0,.49-1.85,2.39,2.39,0,0,0-.46-1.57,1.53,1.53,0,0,0-1.25-.57,1.7,1.7,0,0,0-1.35.58A2.15,2.15,0,0,0,151,79.73Z" fill="#1e1e1e"/>
      <path d="M164.63,83h-1v-.94h0a2.2,2.2,0,0,1-3.25.61,1.65,1.65,0,0,1-.51-1.26c0-1.13.67-1.78,2-2l1.79-.25q0-1.53-1.23-1.53a2.92,2.92,0,0,0-2,.74v-1a3.76,3.76,0,0,1,2-.56c1.41,0,2.12.74,2.12,2.24Zm-1-3-1.44.2a2.59,2.59,0,0,0-1,.33,1,1,0,0,0-.34.85.89.89,0,0,0,.31.71,1.2,1.2,0,0,0,.84.28,1.56,1.56,0,0,0,1.18-.5,1.79,1.79,0,0,0,.46-1.27Z" fill="#1e1e1e"/>
      <path d="M167.42,82.15h0v3.63h-1V77h1v1h0a2.27,2.27,0,0,1,2.07-1.19,2.2,2.2,0,0,1,1.81.8,3.32,3.32,0,0,1,.66,2.16,3.69,3.69,0,0,1-.74,2.41,2.42,2.42,0,0,1-2,.91A2,2,0,0,1,167.42,82.15Zm0-2.42v.84a1.77,1.77,0,0,0,.48,1.26,1.59,1.59,0,0,0,1.23.52,1.6,1.6,0,0,0,1.37-.67,3,3,0,0,0,.49-1.85,2.39,2.39,0,0,0-.46-1.57,1.54,1.54,0,0,0-1.26-.57,1.69,1.69,0,0,0-1.34.58A2.15,2.15,0,0,0,167.4,79.73Z" fill="#1e1e1e"/>
      <path d="M174.47,82.15h0v3.63h-1V77h1v1h0a2.3,2.3,0,0,1,2.08-1.19,2.21,2.21,0,0,1,1.81.8,3.37,3.37,0,0,1,.65,2.16,3.69,3.69,0,0,1-.73,2.41,2.44,2.44,0,0,1-2,.91A2,2,0,0,1,174.47,82.15Zm0-2.42v.84a1.77,1.77,0,0,0,.48,1.26,1.73,1.73,0,0,0,2.6-.15,3,3,0,0,0,.5-1.85,2.39,2.39,0,0,0-.47-1.57,1.52,1.52,0,0,0-1.25-.57,1.7,1.7,0,0,0-1.35.58A2.15,2.15,0,0,0,174.45,79.73Z" fill="#1e1e1e"/>
    </g>
    <g>
      <path d="M321.14,115.65h-1.87v-5c0-.54,0-1.14.07-1.8h0a11.31,11.31,0,0,1-.26,1.11l-2,5.72h-1.55l-2-5.66a8.85,8.85,0,0,1-.27-1.17h-.05c.05.83.08,1.55.08,2.18v4.65h-1.71v-8.41h2.77l1.72,5a6.58,6.58,0,0,1,.3,1.2h0c.11-.46.22-.86.34-1.21l1.71-5h2.71Z" fill="#1e1e1e"/>
      <path d="M323.74,108.7a1.09,1.09,0,0,1-.76-.28.91.91,0,0,1-.3-.68.85.85,0,0,1,.3-.68,1.22,1.22,0,0,1,1.53,0,.85.85,0,0,1,.3.68.89.89,0,0,1-.3.69A1.08,1.08,0,0,1,323.74,108.7Zm.92,7h-1.85v-6h1.85Z" fill="#1e1e1e"/>
      <path d="M330.74,115.43a3.72,3.72,0,0,1-1.81.36,3,3,0,0,1-2.24-.84,2.88,2.88,0,0,1-.86-2.16,3.19,3.19,0,0,1,.92-2.41,3.38,3.38,0,0,1,2.45-.88,3.14,3.14,0,0,1,1.54.28v1.57a2.12,2.12,0,0,0-1.3-.43,1.7,1.7,0,0,0-1.26.46,1.75,1.75,0,0,0-.47,1.29,1.69,1.69,0,0,0,.45,1.25,1.62,1.62,0,0,0,1.22.45,2.47,2.47,0,0,0,1.36-.43Z" fill="#1e1e1e"/>
      <path d="M336,111.32a1.5,1.5,0,0,0-.78-.19,1.1,1.1,0,0,0-.94.45,1.88,1.88,0,0,0-.34,1.2v2.87h-1.85v-6h1.85v1.11h0a1.6,1.6,0,0,1,1.58-1.22,1.14,1.14,0,0,1,.46.07Z" fill="#1e1e1e"/>
      <path d="M339.76,115.79a3.24,3.24,0,0,1-2.36-.84,3.49,3.49,0,0,1,0-4.61,3.34,3.34,0,0,1,2.4-.84,3.2,3.2,0,0,1,2.35.84,3,3,0,0,1,.85,2.22,3.13,3.13,0,0,1-.88,2.36A3.24,3.24,0,0,1,339.76,115.79Zm.05-4.87a1.23,1.23,0,0,0-1,.45,2,2,0,0,0-.36,1.28c0,1.15.46,1.72,1.39,1.72s1.33-.59,1.33-1.77S340.7,110.92,339.81,110.92Z" fill="#1e1e1e"/>
      <path d="M343.89,115.49V114a4.27,4.27,0,0,0,.91.41,3,3,0,0,0,.86.13,1.86,1.86,0,0,0,.78-.13.43.43,0,0,0,.28-.41.38.38,0,0,0-.13-.3,1.25,1.25,0,0,0-.33-.2,3.72,3.72,0,0,0-.44-.16l-.46-.16a3.71,3.71,0,0,1-.63-.29,1.67,1.67,0,0,1-.46-.36,1.31,1.31,0,0,1-.28-.47,2,2,0,0,1-.1-.64,1.7,1.7,0,0,1,.22-.87,1.75,1.75,0,0,1,.59-.59,2.43,2.43,0,0,1,.84-.34,4.46,4.46,0,0,1,1-.11,5.73,5.73,0,0,1,.81.06,5.88,5.88,0,0,1,.81.18v1.43a3,3,0,0,0-.76-.31,3.11,3.11,0,0,0-.79-.1,1.87,1.87,0,0,0-.34,0,1,1,0,0,0-.28.09.83.83,0,0,0-.2.16.44.44,0,0,0-.07.22.39.39,0,0,0,.11.28,1,1,0,0,0,.27.21l.38.15.42.14a5,5,0,0,1,.66.28,2.49,2.49,0,0,1,.52.35,1.34,1.34,0,0,1,.32.49,1.6,1.6,0,0,1,.12.65,1.73,1.73,0,0,1-.23.91,1.93,1.93,0,0,1-.62.62,2.65,2.65,0,0,1-.88.34,4.48,4.48,0,0,1-1,.11A5.5,5.5,0,0,1,343.89,115.49Z" fill="#1e1e1e"/>
      <path d="M352.46,115.79a3.2,3.2,0,0,1-2.35-.84,3.47,3.47,0,0,1,0-4.61,3.35,3.35,0,0,1,2.41-.84,3.19,3.19,0,0,1,2.34.84,3,3,0,0,1,.85,2.22,3.13,3.13,0,0,1-.88,2.36A3.24,3.24,0,0,1,352.46,115.79Zm.05-4.87a1.23,1.23,0,0,0-1,.45,2,2,0,0,0-.36,1.28c0,1.15.46,1.72,1.39,1.72s1.33-.59,1.33-1.77S353.41,110.92,352.51,110.92Z" fill="#1e1e1e"/>
      <path d="M360.81,108.18a2,2,0,0,0-.69-.14c-.59,0-.89.32-.89,1v.64h1.37V111h-1.37v4.64h-1.84V111h-1v-1.36h1v-.75a2.18,2.18,0,0,1,.66-1.65,2.57,2.57,0,0,1,1.82-.63,3.11,3.11,0,0,1,.94.12Z" fill="#1e1e1e"/>
      <path d="M365.37,115.58a2.82,2.82,0,0,1-1.24.21c-1.3,0-1.95-.68-1.95-2V111h-1v-1.36h1v-1.3l1.84-.53v1.83h1.35V111H364v2.43q0,.93.75.93a1.19,1.19,0,0,0,.6-.17Z" fill="#1e1e1e"/>
      <path d="M376.8,115.08a6,6,0,0,1-3.06.71,4.39,4.39,0,0,1-3.19-1.12,4.08,4.08,0,0,1-1.17-3.09,4.32,4.32,0,0,1,1.27-3.23,4.69,4.69,0,0,1,3.4-1.25,7.09,7.09,0,0,1,2.36.37v1.78a4.63,4.63,0,0,0-2.38-.57,2.55,2.55,0,0,0-1.92.77,2.82,2.82,0,0,0-.74,2,2.86,2.86,0,0,0,.66,2,2.37,2.37,0,0,0,1.8.7,2.52,2.52,0,0,0,1.08-.19v-1.64h-1.68v-1.51h3.57Z" fill="#1e1e1e"/>
      <path d="M382.23,111.32a1.5,1.5,0,0,0-.78-.19,1.12,1.12,0,0,0-.94.45,1.88,1.88,0,0,0-.34,1.2v2.87h-1.85v-6h1.85v1.11h0a1.61,1.61,0,0,1,1.59-1.22,1.12,1.12,0,0,1,.45.07Z" fill="#1e1e1e"/>
      <path d="M388,115.65h-1.76v-.87h0a1.94,1.94,0,0,1-1.79,1,1.85,1.85,0,0,1-1.37-.49,1.79,1.79,0,0,1-.5-1.32c0-1.17.69-1.84,2.07-2l1.63-.22c0-.65-.36-1-1.07-1a3.61,3.61,0,0,0-2,.64V110a4.67,4.67,0,0,1,1.06-.35,5.63,5.63,0,0,1,1.22-.15,2.27,2.27,0,0,1,2.57,2.56Zm-1.74-2.44v-.41l-1.09.14c-.61.08-.91.35-.91.82a.71.71,0,0,0,.22.52.89.89,0,0,0,.6.2,1.1,1.1,0,0,0,.85-.36A1.29,1.29,0,0,0,386.27,113.21Z" fill="#1e1e1e"/>
      <path d="M391.35,115h0v3.46h-1.85v-8.76h1.85v.9h0a2.16,2.16,0,0,1,1.92-1,2.2,2.2,0,0,1,1.81.8,3.43,3.43,0,0,1,.63,2.18,3.68,3.68,0,0,1-.74,2.4,2.4,2.4,0,0,1-2,.91A1.87,1.87,0,0,1,391.35,115Zm-.06-2.46V113a1.52,1.52,0,0,0,.33,1,1.08,1.08,0,0,0,.86.39,1.12,1.12,0,0,0,1-.49,2.27,2.27,0,0,0,.35-1.38c0-1.06-.41-1.58-1.23-1.58a1.15,1.15,0,0,0-.93.43A1.69,1.69,0,0,0,391.29,112.49Z" fill="#1e1e1e"/>
      <path d="M402.7,115.65h-1.85v-3.41q0-1.32-1-1.32a1,1,0,0,0-.8.37,1.4,1.4,0,0,0-.3.93v3.43h-1.85v-8.89h1.85v3.78h0a2.09,2.09,0,0,1,1.85-1q2,0,2,2.46Z" fill="#1e1e1e"/>
      <path d="M415,115.65H413l-.6-1.87h-3l-.59,1.87h-2.05l3.06-8.41h2.24ZM412,112.32,411,109.5a4.33,4.33,0,0,1-.14-.76h0a3.24,3.24,0,0,1-.15.74l-.91,2.84Z" fill="#1e1e1e"/>
      <path d="M417.89,112.75v2.9H416v-8.41h3c2.12,0,3.18.9,3.18,2.68a2.6,2.6,0,0,1-.91,2,3.63,3.63,0,0,1-2.44.78Zm0-4v2.62h.74c1,0,1.52-.45,1.52-1.33s-.51-1.29-1.52-1.29Z" fill="#1e1e1e"/>
      <path d="M425.1,115.65h-1.89v-8.41h1.89Z" fill="#1e1e1e"/>
    </g>
    <g>
      <path d="M278.67,58.33h-1.09L276.69,56h-3.56l-.84,2.36h-1.1l3.23-8.4h1Zm-2.3-3.24-1.32-3.58a3.65,3.65,0,0,1-.13-.56h0a3.49,3.49,0,0,1-.14.56l-1.3,3.58Z" fill="#1e1e1e"/>
      <path d="M284.34,52.6l-3.55,4.91h3.52v.82h-4.93V58l3.55-4.88h-3.21v-.82h4.62Z" fill="#1e1e1e"/>
      <path d="M290.44,58.33h-1v-.95h0a2,2,0,0,1-1.85,1.09c-1.43,0-2.14-.85-2.14-2.56V52.33h1v3.43c0,1.27.49,1.9,1.46,1.9a1.45,1.45,0,0,0,1.15-.52,1.94,1.94,0,0,0,.46-1.35V52.33h1Z" fill="#1e1e1e"/>
      <path d="M295.38,53.3a1.14,1.14,0,0,0-.72-.19,1.21,1.21,0,0,0-1,.58,2.62,2.62,0,0,0-.41,1.58v3.06h-1v-6h1v1.23h0a2,2,0,0,1,.63-1,1.4,1.4,0,0,1,.94-.36,1.65,1.65,0,0,1,.57.08Z" fill="#1e1e1e"/>
      <path d="M301.26,55.57H297a2.3,2.3,0,0,0,.54,1.55,1.88,1.88,0,0,0,1.42.54,2.94,2.94,0,0,0,1.87-.67v.9a3.46,3.46,0,0,1-2.1.58,2.51,2.51,0,0,1-2-.82,3.83,3.83,0,0,1,.06-4.58,2.54,2.54,0,0,1,2-.88,2.26,2.26,0,0,1,1.83.76,3.17,3.17,0,0,1,.64,2.11Zm-1-.82a2,2,0,0,0-.4-1.29,1.37,1.37,0,0,0-1.1-.46,1.57,1.57,0,0,0-1.16.48,2.24,2.24,0,0,0-.58,1.27Z" fill="#1e1e1e"/>
      <path d="M266.87,72.39V71.23a2,2,0,0,0,.47.31,3,3,0,0,0,.59.24,3.3,3.3,0,0,0,.62.15,2.93,2.93,0,0,0,.57,0,2.29,2.29,0,0,0,1.36-.33,1.15,1.15,0,0,0,.45-1,1.1,1.1,0,0,0-.15-.59,1.52,1.52,0,0,0-.42-.46,3.32,3.32,0,0,0-.62-.4l-.78-.4c-.29-.15-.56-.3-.82-.46a3.81,3.81,0,0,1-.66-.5,2.06,2.06,0,0,1-.44-.62,1.94,1.94,0,0,1-.16-.82,1.9,1.9,0,0,1,.25-1,2.21,2.21,0,0,1,.66-.7,3.19,3.19,0,0,1,.94-.41,4.24,4.24,0,0,1,1.07-.13,4.13,4.13,0,0,1,1.81.29v1.11a3.33,3.33,0,0,0-1.91-.51,3.57,3.57,0,0,0-.65.06,2,2,0,0,0-.57.22,1.21,1.21,0,0,0-.41.4,1,1,0,0,0-.16.58,1.22,1.22,0,0,0,.12.56,1.54,1.54,0,0,0,.35.43,4.7,4.7,0,0,0,.57.37l.78.4c.3.15.59.3.86.47a3.9,3.9,0,0,1,.71.54,2.53,2.53,0,0,1,.48.66,1.89,1.89,0,0,1,.18.84,2,2,0,0,1-.25,1,2,2,0,0,1-.65.7,2.88,2.88,0,0,1-.95.39,5.24,5.24,0,0,1-1.14.12l-.49,0-.6-.1a4.91,4.91,0,0,1-.58-.15A1.93,1.93,0,0,1,266.87,72.39Z" fill="#1e1e1e"/>
      <path d="M276,72.67a1.94,1.94,0,0,1-.9.19c-1.05,0-1.57-.59-1.57-1.76V67.55h-1v-.82h1V65.26l1-.31v1.78H276v.82h-1.51v3.38a1.45,1.45,0,0,0,.2.86.84.84,0,0,0,.68.26,1,1,0,0,0,.63-.2Z" fill="#1e1e1e"/>
      <path d="M279.63,72.87a2.76,2.76,0,0,1-2.12-.84,3.12,3.12,0,0,1-.8-2.23,3.23,3.23,0,0,1,.83-2.36,3,3,0,0,1,2.23-.85,2.68,2.68,0,0,1,2.09.82,3.25,3.25,0,0,1,.76,2.29,3.21,3.21,0,0,1-.81,2.3A2.84,2.84,0,0,1,279.63,72.87Zm.07-5.47a1.84,1.84,0,0,0-1.47.63,2.61,2.61,0,0,0-.53,1.73,2.46,2.46,0,0,0,.54,1.68,1.85,1.85,0,0,0,1.46.62,1.75,1.75,0,0,0,1.43-.6,3.23,3.23,0,0,0,0-3.45A1.73,1.73,0,0,0,279.7,67.4Z" fill="#1e1e1e"/>
      <path d="M287.23,67.7a1.18,1.18,0,0,0-.73-.19,1.23,1.23,0,0,0-1,.58,2.7,2.7,0,0,0-.41,1.58v3.06h-1v-6h1V68h0a2.09,2.09,0,0,1,.63-1,1.42,1.42,0,0,1,.94-.36,1.71,1.71,0,0,1,.58.08Z" fill="#1e1e1e"/>
      <path d="M292.53,72.73h-1v-.94h0a2,2,0,0,1-1.85,1.08,2,2,0,0,1-1.4-.48,1.62,1.62,0,0,1-.51-1.26q0-1.68,2-1.95l1.8-.25c0-1-.41-1.53-1.24-1.53a2.94,2.94,0,0,0-1.95.73v-1a3.68,3.68,0,0,1,2-.56c1.41,0,2.11.74,2.11,2.24Zm-1-3-1.45.2a2.35,2.35,0,0,0-1,.33,1,1,0,0,0-.34.84.9.9,0,0,0,.32.72,1.19,1.19,0,0,0,.83.28,1.55,1.55,0,0,0,1.18-.5,1.8,1.8,0,0,0,.47-1.27Z" fill="#1e1e1e"/>
      <path d="M299.46,72.25q0,3.3-3.17,3.3a4.23,4.23,0,0,1-1.94-.42v-1a4,4,0,0,0,1.93.56c1.48,0,2.22-.78,2.22-2.35v-.66h0a2.42,2.42,0,0,1-3.86.35,3.17,3.17,0,0,1-.68-2.15,3.73,3.73,0,0,1,.73-2.43,2.46,2.46,0,0,1,2-.9,2,2,0,0,1,1.8,1h0v-.83h1Zm-1-2.23v-.89a1.72,1.72,0,0,0-.49-1.22,1.58,1.58,0,0,0-1.2-.51,1.67,1.67,0,0,0-1.4.64,3,3,0,0,0-.5,1.82,2.5,2.5,0,0,0,.48,1.6,1.57,1.57,0,0,0,1.28.6,1.69,1.69,0,0,0,1.32-.57A2.16,2.16,0,0,0,298.5,70Z" fill="#1e1e1e"/>
      <path d="M306.17,70h-4.24a2.3,2.3,0,0,0,.54,1.55,1.88,1.88,0,0,0,1.42.54,2.89,2.89,0,0,0,1.86-.67v.9a3.41,3.41,0,0,1-2.09.58,2.54,2.54,0,0,1-2-.82,3.35,3.35,0,0,1-.72-2.3,3.28,3.28,0,0,1,.79-2.28,2.54,2.54,0,0,1,2-.88,2.26,2.26,0,0,1,1.83.76,3.17,3.17,0,0,1,.64,2.11Zm-1-.82a2,2,0,0,0-.41-1.29,1.35,1.35,0,0,0-1.09-.46,1.57,1.57,0,0,0-1.16.48,2.24,2.24,0,0,0-.58,1.27Z" fill="#1e1e1e"/>
    </g>
    <g>
      <path d="M406.76,58.33h-1.09L404.78,56h-3.56l-.84,2.36h-1.1l3.23-8.4h1Zm-2.3-3.24-1.32-3.58A3.65,3.65,0,0,1,403,51h0a3.49,3.49,0,0,1-.14.56l-1.31,3.58Z" fill="#1e1e1e"/>
      <path d="M412.43,52.6l-3.55,4.91h3.52v.82h-4.93V58L411,53.15H407.8v-.82h4.63Z" fill="#1e1e1e"/>
      <path d="M418.53,58.33h-1v-.95h0a2,2,0,0,1-1.85,1.09c-1.43,0-2.14-.85-2.14-2.56V52.33h.95v3.43c0,1.27.49,1.9,1.45,1.9a1.46,1.46,0,0,0,1.16-.52,2,2,0,0,0,.46-1.35V52.33h1Z" fill="#1e1e1e"/>
      <path d="M423.47,53.3a1.18,1.18,0,0,0-.73-.19,1.2,1.2,0,0,0-1,.58,2.62,2.62,0,0,0-.42,1.58v3.06h-1v-6h1v1.23h0a2,2,0,0,1,.62-1,1.43,1.43,0,0,1,.95-.36,1.65,1.65,0,0,1,.57.08Z" fill="#1e1e1e"/>
      <path d="M429.35,55.57h-4.24a2.3,2.3,0,0,0,.54,1.55,1.88,1.88,0,0,0,1.42.54,2.89,2.89,0,0,0,1.86-.67v.9a3.41,3.41,0,0,1-2.09.58,2.53,2.53,0,0,1-2-.82,3.35,3.35,0,0,1-.72-2.3,3.28,3.28,0,0,1,.79-2.28,2.54,2.54,0,0,1,2-.88,2.26,2.26,0,0,1,1.83.76,3.17,3.17,0,0,1,.64,2.11Zm-1-.82a2,2,0,0,0-.41-1.29,1.35,1.35,0,0,0-1.09-.46,1.57,1.57,0,0,0-1.16.48,2.24,2.24,0,0,0-.58,1.27Z" fill="#1e1e1e"/>
      <path d="M397.16,72.73h-1.37l-3.24-3.85a2.93,2.93,0,0,1-.23-.29h0v4.14h-1v-8.4h1v3.94h0a2.39,2.39,0,0,1,.23-.28l3.14-3.66h1.22l-3.6,4Z" fill="#1e1e1e"/>
      <path d="M402.68,70h-4.24a2.21,2.21,0,0,0,.54,1.55,1.85,1.85,0,0,0,1.42.54,2.93,2.93,0,0,0,1.86-.67v.9a3.45,3.45,0,0,1-2.09.58,2.52,2.52,0,0,1-2-.82,3.36,3.36,0,0,1-.73-2.3,3.29,3.29,0,0,1,.8-2.28,2.53,2.53,0,0,1,2-.88,2.25,2.25,0,0,1,1.82.76,3.17,3.17,0,0,1,.65,2.11Zm-1-.82a2,2,0,0,0-.4-1.29,1.36,1.36,0,0,0-1.1-.46,1.55,1.55,0,0,0-1.15.48,2.19,2.19,0,0,0-.59,1.27Z" fill="#1e1e1e"/>
      <path d="M408.86,66.73l-2.76,7c-.5,1.24-1.19,1.86-2.08,1.86a2.16,2.16,0,0,1-.62-.07v-.87a1.5,1.5,0,0,0,.56.11,1.17,1.17,0,0,0,1.09-.87l.48-1.13-2.34-6h1.07l1.62,4.62c0,.05.06.21.12.45h0c0-.09.06-.24.11-.44l1.71-4.63Z" fill="#1e1e1e"/>
      <path d="M419.55,64.33l-3.11,8.4h-1.09l-3-8.4h1.09L415.73,71a4.27,4.27,0,0,1,.17.74h0a3.5,3.5,0,0,1,.2-.75l2.37-6.65Z" fill="#1e1e1e"/>
      <path d="M424.37,72.73h-1v-.94h0a2,2,0,0,1-1.85,1.08,2,2,0,0,1-1.4-.48,1.62,1.62,0,0,1-.51-1.26q0-1.68,2-1.95l1.8-.25q0-1.53-1.23-1.53a3,3,0,0,0-2,.73v-1a3.68,3.68,0,0,1,2-.56c1.41,0,2.11.74,2.11,2.24Zm-1-3-1.44.2a2.3,2.3,0,0,0-1,.33,1,1,0,0,0-.34.84.9.9,0,0,0,.31.72,1.2,1.2,0,0,0,.84.28,1.56,1.56,0,0,0,1.18-.5,1.79,1.79,0,0,0,.46-1.27Z" fill="#1e1e1e"/>
      <path d="M431,72.73h-1v-1h0a2,2,0,0,1-1.85,1.09c-1.43,0-2.15-.85-2.15-2.56V66.73h1v3.43c0,1.27.48,1.9,1.45,1.9a1.47,1.47,0,0,0,1.16-.52,2,2,0,0,0,.45-1.35V66.73h1Z" fill="#1e1e1e"/>
      <path d="M433.78,72.73h-1V63.85h1Z" fill="#1e1e1e"/>
      <path d="M438.46,72.67a1.94,1.94,0,0,1-.9.19c-1.05,0-1.57-.59-1.57-1.76V67.55h-1v-.82h1V65.26l1-.31v1.78h1.51v.82H437v3.38a1.45,1.45,0,0,0,.2.86.84.84,0,0,0,.68.26,1.05,1.05,0,0,0,.63-.2Z" fill="#1e1e1e"/>
    </g>
    <g>
      <path d="M340.71,58V56.83a1.89,1.89,0,0,0,.48.31,3,3,0,0,0,.58.24,3.5,3.5,0,0,0,.62.15,3,3,0,0,0,.57,0,2.29,2.29,0,0,0,1.36-.33,1.15,1.15,0,0,0,.45-1,1.1,1.1,0,0,0-.15-.59,1.62,1.62,0,0,0-.41-.46,3.79,3.79,0,0,0-.63-.4l-.77-.4A8.88,8.88,0,0,1,342,54a3.54,3.54,0,0,1-.67-.5,2.26,2.26,0,0,1-.44-.62,1.94,1.94,0,0,1-.16-.82,1.9,1.9,0,0,1,.25-1,2.21,2.21,0,0,1,.66-.7,3.19,3.19,0,0,1,.94-.41,4.24,4.24,0,0,1,1.07-.13,4.1,4.1,0,0,1,1.81.29v1.11a3.31,3.31,0,0,0-1.91-.51,3.57,3.57,0,0,0-.65.06,2,2,0,0,0-.57.22,1.3,1.3,0,0,0-.41.4,1,1,0,0,0-.16.58,1.22,1.22,0,0,0,.12.56,1.42,1.42,0,0,0,.36.43,3.52,3.52,0,0,0,.57.37l.77.4c.3.15.59.3.86.47a3.59,3.59,0,0,1,.71.54,2.42,2.42,0,0,1,.48.67,1.81,1.81,0,0,1,.18.83,2.14,2.14,0,0,1-.24,1,1.93,1.93,0,0,1-.66.7,2.8,2.8,0,0,1-.95.39,5.24,5.24,0,0,1-1.14.12l-.49,0c-.2,0-.39-.06-.6-.1a4.74,4.74,0,0,1-.57-.15A1.83,1.83,0,0,1,340.71,58Z" fill="#1e1e1e"/>
      <path d="M350.75,58.47a3.69,3.69,0,0,1-2.86-1.18,4.34,4.34,0,0,1-1.07-3.06A4.62,4.62,0,0,1,347.91,51a3.86,3.86,0,0,1,3-1.2,3.6,3.6,0,0,1,2.8,1.17A4.33,4.33,0,0,1,354.76,54a4.61,4.61,0,0,1-1.09,3.25,3.23,3.23,0,0,1-.55.5l2.36,1.69h-1.79l-1.58-1.18A4.8,4.8,0,0,1,350.75,58.47Zm.07-7.79a2.7,2.7,0,0,0-2.15,1,4.28,4.28,0,0,0,0,5,2.63,2.63,0,0,0,2.1.94,2.75,2.75,0,0,0,2.18-.9,3.68,3.68,0,0,0,.8-2.52,3.89,3.89,0,0,0-.77-2.58A2.68,2.68,0,0,0,350.82,50.68Z" fill="#1e1e1e"/>
      <path d="M360.68,58.33h-4.36v-8.4h1v7.51h3.38Z" fill="#1e1e1e"/>
      <path d="M327.06,72.73v-8.4h2.32q4.44,0,4.44,4.09a4.14,4.14,0,0,1-1.23,3.13,4.64,4.64,0,0,1-3.31,1.18Zm1-7.51v6.62h1.26a3.55,3.55,0,0,0,2.57-.89,3.32,3.32,0,0,0,.92-2.51c0-2.15-1.15-3.22-3.43-3.22Z" fill="#1e1e1e"/>
      <path d="M339.51,72.73h-1v-.94h0a2,2,0,0,1-1.85,1.08,2,2,0,0,1-1.4-.48,1.62,1.62,0,0,1-.51-1.26q0-1.68,2-1.95l1.8-.25q0-1.53-1.23-1.53a3,3,0,0,0-2,.73v-1a3.68,3.68,0,0,1,2-.56c1.41,0,2.11.74,2.11,2.24Zm-1-3-1.44.2a2.25,2.25,0,0,0-1,.33,1,1,0,0,0-.34.84.9.9,0,0,0,.31.72,1.2,1.2,0,0,0,.84.28,1.56,1.56,0,0,0,1.18-.5,1.79,1.79,0,0,0,.46-1.27Z" fill="#1e1e1e"/>
      <path d="M344,72.67a1.91,1.91,0,0,1-.9.19c-1.05,0-1.57-.59-1.57-1.76V67.55h-1v-.82h1V65.26l1-.31v1.78H344v.82h-1.51v3.38a1.45,1.45,0,0,0,.2.86.84.84,0,0,0,.68.26,1,1,0,0,0,.63-.2Z" fill="#1e1e1e"/>
      <path d="M349.71,72.73h-1v-.94h0a2,2,0,0,1-1.85,1.08,2,2,0,0,1-1.4-.48,1.62,1.62,0,0,1-.51-1.26q0-1.68,2-1.95l1.8-.25c0-1-.41-1.53-1.24-1.53a2.94,2.94,0,0,0-1.95.73v-1a3.68,3.68,0,0,1,2-.56c1.41,0,2.11.74,2.11,2.24Zm-1-3-1.45.2a2.35,2.35,0,0,0-1,.33,1,1,0,0,0-.34.84.9.9,0,0,0,.32.72,1.19,1.19,0,0,0,.83.28,1.55,1.55,0,0,0,1.18-.5,1.8,1.8,0,0,0,.47-1.27Z" fill="#1e1e1e"/>
      <path d="M352.44,71.86h0v.87h-1V63.85h1v3.93h0a2.27,2.27,0,0,1,2.07-1.19,2.23,2.23,0,0,1,1.81.8,3.31,3.31,0,0,1,.65,2.16,3.69,3.69,0,0,1-.73,2.41,2.43,2.43,0,0,1-2,.91A2,2,0,0,1,352.44,71.86Zm0-2.42v.84a1.79,1.79,0,0,0,.49,1.26,1.72,1.72,0,0,0,2.59-.15,3,3,0,0,0,.5-1.86,2.49,2.49,0,0,0-.46-1.57,1.56,1.56,0,0,0-1.26-.56,1.7,1.7,0,0,0-1.35.58A2.13,2.13,0,0,0,352.41,69.44Z" fill="#1e1e1e"/>
      <path d="M362.76,72.73h-1v-.94h0a2,2,0,0,1-1.84,1.08,2,2,0,0,1-1.41-.48,1.61,1.61,0,0,1-.5-1.26q0-1.68,2-1.95l1.79-.25q0-1.53-1.23-1.53a3,3,0,0,0-2,.73v-1a3.68,3.68,0,0,1,2-.56c1.41,0,2.12.74,2.12,2.24Zm-1-3-1.44.2a2.3,2.3,0,0,0-1,.33,1,1,0,0,0-.34.84.9.9,0,0,0,.31.72,1.2,1.2,0,0,0,.84.28,1.56,1.56,0,0,0,1.18-.5,1.79,1.79,0,0,0,.46-1.27Z" fill="#1e1e1e"/>
      <path d="M364.17,72.51v-1a2.84,2.84,0,0,0,1.73.58c.85,0,1.27-.28,1.27-.84a.76.76,0,0,0-.11-.41,1.17,1.17,0,0,0-.29-.3,3,3,0,0,0-.44-.23l-.53-.21a6.76,6.76,0,0,1-.7-.32,2.29,2.29,0,0,1-.51-.36,1.52,1.52,0,0,1-.3-.46,1.66,1.66,0,0,1-.1-.61,1.44,1.44,0,0,1,.19-.75,1.87,1.87,0,0,1,.51-.54,2.26,2.26,0,0,1,.74-.33,3,3,0,0,1,.85-.11,3.46,3.46,0,0,1,1.4.27v1a2.71,2.71,0,0,0-1.53-.43,1.75,1.75,0,0,0-.48.06,1.33,1.33,0,0,0-.38.17.78.78,0,0,0-.24.27.74.74,0,0,0-.08.34.87.87,0,0,0,.08.39.83.83,0,0,0,.25.28,1.91,1.91,0,0,0,.4.23l.54.21a6.81,6.81,0,0,1,.71.32,2.42,2.42,0,0,1,.54.36,1.32,1.32,0,0,1,.34.47,1.46,1.46,0,0,1,.12.62,1.42,1.42,0,0,1-.2.78,1.67,1.67,0,0,1-.52.54,2.3,2.3,0,0,1-.75.32,3.82,3.82,0,0,1-.9.11A3.41,3.41,0,0,1,364.17,72.51Z" fill="#1e1e1e"/>
      <path d="M374.43,70h-4.24a2.3,2.3,0,0,0,.54,1.55,1.88,1.88,0,0,0,1.42.54,2.89,2.89,0,0,0,1.86-.67v.9a3.41,3.41,0,0,1-2.09.58,2.53,2.53,0,0,1-2-.82,3.35,3.35,0,0,1-.72-2.3,3.28,3.28,0,0,1,.79-2.28,2.54,2.54,0,0,1,2-.88,2.22,2.22,0,0,1,1.82.76,3.17,3.17,0,0,1,.65,2.11Zm-1-.82a1.9,1.9,0,0,0-.4-1.29,1.36,1.36,0,0,0-1.1-.46,1.56,1.56,0,0,0-1.15.48,2.25,2.25,0,0,0-.59,1.27Z" fill="#1e1e1e"/>
    </g>
  </g>
</svg>
