<?xml version="1.0" encoding="utf-8"?>
<!-- Generator: Adobe Illustrator 21.0.0, SVG Export Plug-In . SVG Version: 6.00 Build 0)  -->
<svg version="1.1" xmlns="http://www.w3.org/2000/svg" xmlns:xlink="http://www.w3.org/1999/xlink" x="0px" y="0px" width="48px"
	 height="48px" viewBox="0 0 48 48" style="enable-background:new 0 0 48 48;" xml:space="preserve">
<style type="text/css">
	.st0{fill:none;}
	.st1{fill:#2F6DEA;}
	.st2{fill:#5EA0EF;}
	.st3{fill:#97CBFF;}
	.st4{opacity:0.72;fill:url(#SVGID_1_);}
</style>
<g id="base">
	<rect class="st0" width="48" height="48"/>
	<g>
		<polygon class="st1" points="26.6,41.6 37.3,47.8 48,41.6 48,29.2 37.3,23 26.6,29.2 		"/>
		<polygon class="st1" points="0,41.6 10.7,47.8 21.4,41.6 21.4,29.2 10.7,23 0,29.2 		"/>
		<polygon class="st2" points="10.7,23 10.7,35.4 0,41.6 0,29.2 		"/>
		<polygon class="st3" points="10.7,35.4 21.4,41.6 21.4,29.2 10.7,23 		"/>
		<polygon class="st2" points="37.3,23 37.3,35.4 48,41.6 48,29.2 		"/>
		<polygon class="st3" points="26.6,29.2 37.3,23 37.3,35.4 26.6,41.6 		"/>
		<linearGradient id="SVGID_1_" gradientUnits="userSpaceOnUse" x1="13.2857" y1="9.5253" x2="34.7143" y2="9.5253">
			<stop  offset="0" style="stop-color:#CCC5FD"/>
			<stop  offset="0.8261" style="stop-color:#9387F0"/>
		</linearGradient>
		<polygon class="st4" points="13.3,18.8 24,12.6 34.7,18.8 34.7,6.4 24,0.2 13.3,6.4 		"/>
		<polygon class="st3" points="13.3,18.8 24,25 34.7,18.8 34.7,6.4 24,0.2 13.3,6.4 		"/>
		<polygon class="st2" points="24,0.2 24,12.6 13.3,18.8 13.3,6.4 		"/>
		<polygon class="st1" points="24,12.6 34.7,18.8 34.7,6.4 24,0.2 		"/>
	</g>
</g>
<g id="icon">
</g>
</svg>
