<?xml version="1.0" encoding="UTF-8" standalone="no"?>
<svg
   width="404.85623"
   height="507.0162"
   overflow="hidden"
   version="1.1"
   id="svg1380"
   sodipodi:docname="hdi-spark-architecture-inline.svg"
   inkscape:version="1.1.1 (3bf5ae0d25, 2021-09-20)"
   xmlns:inkscape="http://www.inkscape.org/namespaces/inkscape"
   xmlns:sodipodi="http://sodipodi.sourceforge.net/DTD/sodipodi-0.dtd"
   xmlns="http://www.w3.org/2000/svg"
   xmlns:svg="http://www.w3.org/2000/svg">
  <sodipodi:namedview
     id="namedview1382"
     pagecolor="#ffffff"
     bordercolor="#666666"
     borderopacity="1.0"
     inkscape:pageshadow="2"
     inkscape:pageopacity="0.0"
     inkscape:pagecheckerboard="0"
     showgrid="false"
     inkscape:zoom="0.978125"
     inkscape:cx="305.17572"
     inkscape:cy="340.95847"
     inkscape:window-width="2560"
     inkscape:window-height="1351"
     inkscape:window-x="1431"
     inkscape:window-y="507"
     inkscape:window-maximized="1"
     inkscape:current-layer="svg1380" />
  <defs
     id="defs1266">
    <clipPath
       id="clip0">
      <rect
         x="0"
         y="0"
         width="1280"
         height="720"
         id="rect1182" />
    </clipPath>
    <linearGradient
       x1="438.07199"
       y1="438.216"
       x2="438.07199"
       y2="457.41699"
       gradientUnits="userSpaceOnUse"
       spreadMethod="reflect"
       id="fill1">
      <stop
         offset="0"
         id="stop1185" />
      <stop
         offset="0.02917"
         id="stop1187" />
      <stop
         offset="0.3"
         id="stop1189" />
      <stop
         offset="1"
         id="stop1191" />
    </linearGradient>
    <linearGradient
       x1="600.69702"
       y1="436.21399"
       x2="600.69702"
       y2="455.414"
       gradientUnits="userSpaceOnUse"
       spreadMethod="reflect"
       id="fill2">
      <stop
         offset="0"
         id="stop1194" />
      <stop
         offset="0.02917"
         id="stop1196" />
      <stop
         offset="0.3"
         id="stop1198" />
      <stop
         offset="1"
         id="stop1200" />
    </linearGradient>
    <linearGradient
       x1="771.995"
       y1="432.56299"
       x2="771.995"
       y2="451.763"
       gradientUnits="userSpaceOnUse"
       spreadMethod="reflect"
       id="fill3">
      <stop
         offset="0"
         id="stop1203" />
      <stop
         offset="0.02917"
         id="stop1205" />
      <stop
         offset="0.3"
         id="stop1207" />
      <stop
         offset="1"
         id="stop1209" />
    </linearGradient>
    <linearGradient
       x1="772.67603"
       y1="486.005"
       x2="772.67603"
       y2="505.20499"
       gradientUnits="userSpaceOnUse"
       spreadMethod="reflect"
       id="fill4">
      <stop
         offset="0"
         id="stop1212" />
      <stop
         offset="0.02917"
         id="stop1214" />
      <stop
         offset="0.3"
         id="stop1216" />
      <stop
         offset="1"
         id="stop1218" />
    </linearGradient>
    <linearGradient
       x1="600.13898"
       y1="485.35001"
       x2="600.13898"
       y2="504.54999"
       gradientUnits="userSpaceOnUse"
       spreadMethod="reflect"
       id="fill5">
      <stop
         offset="0"
         id="stop1221" />
      <stop
         offset="0.02917"
         id="stop1223" />
      <stop
         offset="0.3"
         id="stop1225" />
      <stop
         offset="1"
         id="stop1227" />
    </linearGradient>
    <linearGradient
       x1="435.37"
       y1="484.138"
       x2="435.37"
       y2="503.33899"
       gradientUnits="userSpaceOnUse"
       spreadMethod="reflect"
       id="fill6">
      <stop
         offset="0"
         id="stop1230" />
      <stop
         offset="0.02917"
         id="stop1232" />
      <stop
         offset="0.3"
         id="stop1234" />
      <stop
         offset="1"
         id="stop1236" />
    </linearGradient>
    <linearGradient
       x1="436.41"
       y1="543.81598"
       x2="436.41"
       y2="563.01599"
       gradientUnits="userSpaceOnUse"
       spreadMethod="reflect"
       id="fill7">
      <stop
         offset="0"
         id="stop1239" />
      <stop
         offset="0.02917"
         id="stop1241" />
      <stop
         offset="0.3"
         id="stop1243" />
      <stop
         offset="1"
         id="stop1245" />
    </linearGradient>
    <linearGradient
       x1="599.664"
       y1="543.60797"
       x2="599.664"
       y2="562.80798"
       gradientUnits="userSpaceOnUse"
       spreadMethod="reflect"
       id="fill8">
      <stop
         offset="0"
         id="stop1248" />
      <stop
         offset="0.02917"
         id="stop1250" />
      <stop
         offset="0.3"
         id="stop1252" />
      <stop
         offset="1"
         id="stop1254" />
    </linearGradient>
    <linearGradient
       x1="771.10498"
       y1="544.64697"
       x2="771.10498"
       y2="563.84698"
       gradientUnits="userSpaceOnUse"
       spreadMethod="reflect"
       id="fill9">
      <stop
         offset="0"
         id="stop1257" />
      <stop
         offset="0.02917"
         id="stop1259" />
      <stop
         offset="0.3"
         id="stop1261" />
      <stop
         offset="1"
         id="stop1263" />
    </linearGradient>
    <clipPath
       clipPathUnits="userSpaceOnUse"
       id="clipPath1408">
      <rect
         style="fill:#0000ff;fill-rule:evenodd"
         id="rect1410"
         width="542.87543"
         height="702.3642"
         x="336.35782"
         y="-1.0223643" />
    </clipPath>
    <clipPath
       clipPathUnits="userSpaceOnUse"
       id="clipPath1414">
      <rect
         style="fill:#0000ff;fill-rule:evenodd"
         id="rect1416"
         width="546.96484"
         height="684.98401"
         x="334.31311"
         y="15.335464" />
    </clipPath>
  </defs>
  <g
     clip-path="url(#clipPath1414)"
     id="g1378"
     transform="matrix(0.74018691,0,0,0.74018691,-247.45419,-11.351109)">
    <rect
       x="0"
       y="0"
       width="1280"
       height="720"
       fill="#ffffff"
       id="rect1268" />
    <rect
       x="434"
       y="36"
       width="336"
       height="273"
       stroke="#595959"
       stroke-width="2"
       stroke-miterlimit="8"
       stroke-dasharray="8, 6"
       fill="#e7e6e6"
       id="rect1270" />
    <rect
       x="468"
       y="215"
       width="271"
       height="66"
       stroke="#595959"
       stroke-width="4"
       stroke-linejoin="round"
       stroke-miterlimit="10"
       fill="none"
       id="rect1272" />
    <rect
       x="701"
       y="374"
       width="140"
       height="147"
       fill="#0072c6"
       id="rect1274" />
    <rect
       x="534"
       y="374"
       width="139"
       height="147"
       fill="#0072c6"
       id="rect1276" />
    <rect
       x="367"
       y="374"
       width="139"
       height="147"
       fill="#0072c6"
       id="rect1278" />
    <path
       d="M 343,606.834 C 343,598.089 350.089,591 358.834,591 h 496.332 c 8.745,0 15.834,7.089 15.834,15.834 v 63.332 C 871,678.911 863.911,686 855.166,686 H 358.834 C 350.089,686 343,678.911 343,670.166 Z"
       fill="#0072c6"
       fill-rule="evenodd"
       id="path1280" />
    <text
       font-family="'Segoe UI', 'Segoe UI_MSFontService', sans-serif"
       font-weight="400"
       font-size="32px"
       transform="translate(486.84,259)"
       id="text1290">Cluster Manager<tspan
   fill="#ffffff"
   font-size="19px"
   x="-104.966"
   y="150"
   id="tspan1282">Worker Node</tspan><tspan
   fill="#ffffff"
   font-size="19px"
   x="62.5368"
   y="150"
   id="tspan1284">Worker Node</tspan><tspan
   fill="#ffffff"
   font-size="19px"
   x="228.53"
   y="149"
   id="tspan1286">Worker Node</tspan><tspan
   fill="#ffffff"
   font-size="32px"
   x="77.793297"
   y="412"
   id="tspan1288">HDFS</tspan></text>
    <rect
       x="360"
       y="602"
       width="85"
       height="35"
       fill="#ffffff"
       id="rect1292" />
    <rect
       x="467"
       y="621"
       width="76"
       height="35"
       fill="#ffffff"
       id="rect1294" />
    <rect
       x="776"
       y="599"
       width="81"
       height="36"
       fill="#ffffff"
       id="rect1296" />
    <rect
       x="571"
       y="601"
       width="74"
       height="36"
       fill="#ffffff"
       id="rect1298" />
    <rect
       x="675"
       y="617"
       width="74"
       height="36"
       fill="#ffffff"
       id="rect1300" />
    <path
       d="M 2,-3.10226e-6 2.00009,57.6842 h -4 L -2,3.10226e-6 Z M 6.00009,55.6842 l -5.999985013,12 -6.000014987,-12 z"
       fill="#3c3c3c"
       transform="matrix(1,0,0,-1,437,588.684)"
       id="path1302" />
    <path
       d="M 2,-3.10226e-6 2.00009,57.6842 h -4 L -2,3.10226e-6 Z M 6.00009,55.6842 l -5.999985013,12 -6.000014987,-12 z"
       fill="#3c3c3c"
       transform="matrix(1,0,0,-1,603,589.684)"
       id="path1304" />
    <path
       d="M 2,-3.10226e-6 2.00009,57.6842 h -4 L -2,3.10226e-6 Z M 6.00009,55.6842 l -5.999985013,12 -6.000014987,-12 z"
       fill="#3c3c3c"
       transform="matrix(1,0,0,-1,771,588.684)"
       id="path1306" />
    <rect
       x="394"
       y="478"
       width="85"
       height="35"
       fill="#ffffff"
       id="rect1308" />
    <rect
       x="559"
       y="478"
       width="85"
       height="35"
       fill="#ffffff"
       id="rect1310" />
    <rect
       x="728"
       y="475"
       width="85"
       height="36"
       fill="#ffffff"
       id="rect1312" />
    <rect
       x="395"
       y="430"
       width="84"
       height="36"
       fill="#d9d9d9"
       id="rect1314" />
    <rect
       x="559"
       y="430"
       width="85"
       height="35"
       fill="#d9d9d9"
       id="rect1316" />
    <rect
       x="728"
       y="426"
       width="85"
       height="35"
       fill="#d9d9d9"
       id="rect1318" />
    <path
       d="m 430.314,450.09 -1.93,0.265 c -0.593,0.084 -1.041,0.231 -1.343,0.442 -0.302,0.211 -0.454,0.584 -0.454,1.121 0,0.39 0.14,0.709 0.418,0.957 0.279,0.247 0.65,0.371 1.114,0.371 0.635,0 1.16,-0.223 1.574,-0.668 0.414,-0.445 0.621,-1.009 0.621,-1.691 z m 22.672,-3.063 c -0.604,0 -1.117,0.216 -1.539,0.649 -0.422,0.432 -0.682,0.997 -0.781,1.695 h 4.32 c -0.005,-0.74 -0.184,-1.315 -0.535,-1.727 -0.352,-0.411 -0.84,-0.617 -1.465,-0.617 z m 0.023,-1.078 c 1.047,0 1.857,0.339 2.43,1.016 0.573,0.677 0.859,1.617 0.859,2.82 v 0.672 h -5.648 c 0.021,0.89 0.26,1.578 0.719,2.062 0.458,0.485 1.088,0.727 1.89,0.727 0.901,0 1.73,-0.297 2.485,-0.891 v 1.203 c -0.703,0.511 -1.633,0.766 -2.789,0.766 -1.131,0 -2.019,-0.363 -2.664,-1.09 -0.646,-0.726 -0.969,-1.749 -0.969,-3.066 0,-1.245 0.353,-2.259 1.058,-3.043 0.706,-0.784 1.582,-1.176 2.629,-1.176 z m -15.531,0 c 0.703,0 1.323,0.13 1.859,0.391 v 1.312 c -0.593,-0.417 -1.229,-0.625 -1.906,-0.625 -0.817,0 -1.488,0.293 -2.011,0.879 -0.524,0.586 -0.786,1.356 -0.786,2.309 0,0.937 0.246,1.677 0.739,2.218 0.492,0.542 1.152,0.813 1.98,0.813 0.698,0 1.354,-0.232 1.969,-0.695 v 1.218 c -0.615,0.37 -1.344,0.555 -2.188,0.555 -1.14,0 -2.061,-0.371 -2.761,-1.113 -0.701,-0.742 -1.051,-1.705 -1.051,-2.887 0,-1.318 0.377,-2.376 1.133,-3.176 0.755,-0.799 1.763,-1.199 3.023,-1.199 z m -8.703,0 c 1.88,0 2.82,0.995 2.82,2.984 v 5.204 h -1.281 v -1.25 h -0.031 c -0.558,0.958 -1.378,1.437 -2.461,1.437 -0.797,0 -1.421,-0.211 -1.871,-0.633 -0.451,-0.422 -0.676,-0.982 -0.676,-1.679 0,-1.495 0.88,-2.365 2.641,-2.61 l 2.398,-0.336 c 0,-1.359 -0.549,-2.039 -1.648,-2.039 -0.964,0 -1.834,0.328 -2.61,0.985 v -1.313 c 0.787,-0.5 1.693,-0.75 2.719,-0.75 z m -7.75,-3.203 c 1.062,0 1.943,0.154 2.641,0.461 v 1.398 c -0.802,-0.448 -1.688,-0.672 -2.657,-0.672 -1.286,0 -2.329,0.43 -3.129,1.289 -0.799,0.86 -1.199,2.008 -1.199,3.446 0,1.364 0.374,2.452 1.121,3.261 0.748,0.81 1.728,1.215 2.942,1.215 1.125,0 2.099,-0.25 2.922,-0.75 v 1.274 c -0.829,0.437 -1.86,0.656 -3.094,0.656 -1.594,0 -2.87,-0.513 -3.828,-1.539 -0.959,-1.026 -1.438,-2.372 -1.438,-4.039 0,-1.792 0.539,-3.24 1.617,-4.344 1.079,-1.104 2.446,-1.656 4.102,-1.656 z m 19.844,-0.453 h 1.281 v 5.172 h 0.031 c 0.615,-1.011 1.49,-1.516 2.625,-1.516 1.802,0 2.703,1.086 2.703,3.258 v 4.93 h -1.281 v -4.61 c 0,-1.667 -0.62,-2.5 -1.859,-2.5 -0.625,0 -1.151,0.241 -1.578,0.723 -0.427,0.482 -0.641,1.1 -0.641,1.855 v 4.532 h -1.281 z"
       fill="url(#fill1)"
       fill-rule="evenodd"
       id="path1320"
       style="fill:url(#fill1)" />
    <text
       fill="#000000"
       fill-opacity="0"
       font-family="Arial, Arial_MSFontService, sans-serif"
       font-size="12.0312px"
       x="415.306"
       y="452.82001"
       id="text1322">Cache</text>
    <path
       d="m 592.939,448.087 -1.929,0.266 c -0.594,0.083 -1.042,0.231 -1.344,0.441 -0.302,0.211 -0.453,0.585 -0.453,1.122 0,0.39 0.139,0.709 0.418,0.957 0.278,0.247 0.65,0.371 1.113,0.371 0.636,0 1.16,-0.223 1.574,-0.668 0.414,-0.446 0.621,-1.009 0.621,-1.692 z m 22.672,-3.062 c -0.604,0 -1.117,0.216 -1.539,0.648 -0.422,0.433 -0.682,0.998 -0.781,1.696 h 4.32 c -0.005,-0.74 -0.183,-1.315 -0.535,-1.727 -0.351,-0.411 -0.84,-0.617 -1.465,-0.617 z m 0.024,-1.078 c 1.047,0 1.856,0.338 2.429,1.015 0.573,0.678 0.86,1.618 0.86,2.821 v 0.672 h -5.649 c 0.021,0.89 0.261,1.578 0.719,2.062 0.458,0.485 1.089,0.727 1.891,0.727 0.901,0 1.729,-0.297 2.484,-0.891 v 1.203 c -0.703,0.511 -1.633,0.766 -2.789,0.766 -1.13,0 -2.018,-0.363 -2.664,-1.09 -0.646,-0.727 -0.969,-1.749 -0.969,-3.066 0,-1.245 0.353,-2.26 1.059,-3.043 0.706,-0.784 1.582,-1.176 2.629,-1.176 z m -15.532,0 c 0.704,0 1.323,0.13 1.86,0.39 v 1.313 c -0.594,-0.417 -1.229,-0.625 -1.906,-0.625 -0.818,0 -1.489,0.293 -2.012,0.879 -0.524,0.586 -0.785,1.355 -0.785,2.308 0,0.938 0.246,1.678 0.738,2.219 0.492,0.542 1.152,0.813 1.98,0.813 0.698,0 1.355,-0.232 1.969,-0.696 v 1.219 c -0.614,0.37 -1.344,0.555 -2.187,0.555 -1.141,0 -2.062,-0.371 -2.762,-1.113 -0.701,-0.743 -1.051,-1.705 -1.051,-2.887 0,-1.318 0.378,-2.376 1.133,-3.176 0.755,-0.799 1.763,-1.199 3.023,-1.199 z m -8.703,0 c 1.881,0 2.821,0.995 2.821,2.984 v 5.203 h -1.282 v -1.25 h -0.031 c -0.557,0.959 -1.377,1.438 -2.461,1.438 -0.797,0 -1.42,-0.211 -1.871,-0.633 -0.45,-0.422 -0.676,-0.982 -0.676,-1.68 0,-1.494 0.881,-2.364 2.641,-2.609 l 2.398,-0.336 c 0,-1.359 -0.549,-2.039 -1.648,-2.039 -0.964,0 -1.833,0.328 -2.609,0.984 v -1.312 c 0.786,-0.5 1.692,-0.75 2.718,-0.75 z m -7.75,-3.203 c 1.063,0 1.943,0.153 2.641,0.461 v 1.398 c -0.802,-0.448 -1.688,-0.672 -2.656,-0.672 -1.287,0 -2.33,0.43 -3.129,1.289 -0.8,0.86 -1.199,2.008 -1.199,3.446 0,1.364 0.373,2.451 1.121,3.261 0.747,0.81 1.728,1.215 2.941,1.215 1.125,0 2.099,-0.25 2.922,-0.75 v 1.274 c -0.828,0.437 -1.859,0.656 -3.094,0.656 -1.594,0 -2.87,-0.513 -3.828,-1.539 -0.958,-1.026 -1.437,-2.373 -1.437,-4.039 0,-1.792 0.539,-3.24 1.617,-4.344 1.078,-1.104 2.445,-1.656 4.101,-1.656 z m 19.844,-0.453 h 1.281 v 5.171 h 0.032 c 0.614,-1.01 1.489,-1.515 2.625,-1.515 1.802,0 2.703,1.086 2.703,3.258 v 4.929 h -1.282 v -4.609 c 0,-1.667 -0.619,-2.5 -1.859,-2.5 -0.625,0 -1.151,0.241 -1.578,0.723 -0.427,0.481 -0.641,1.1 -0.641,1.855 v 4.531 h -1.281 z"
       fill="url(#fill2)"
       fill-rule="evenodd"
       id="path1324"
       style="fill:url(#fill2)" />
    <text
       fill="#000000"
       fill-opacity="0"
       font-family="Arial, Arial_MSFontService, sans-serif"
       font-size="12.0312px"
       x="577.93201"
       y="450.81799"
       id="text1326">Cache</text>
    <path
       d="m 766.404,444.437 -1.93,0.265 c -0.594,0.084 -1.042,0.231 -1.344,0.442 -0.302,0.211 -0.453,0.584 -0.453,1.121 0,0.39 0.139,0.709 0.418,0.957 0.279,0.247 0.65,0.371 1.113,0.371 0.636,0 1.16,-0.223 1.574,-0.668 0.414,-0.445 0.622,-1.009 0.622,-1.692 z m 22.671,-3.063 c -0.604,0 -1.117,0.216 -1.539,0.649 -0.422,0.432 -0.682,0.997 -0.781,1.695 h 4.32 c -0.005,-0.74 -0.183,-1.315 -0.535,-1.727 -0.351,-0.411 -0.84,-0.617 -1.465,-0.617 z m 0.024,-1.078 c 1.047,0 1.857,0.338 2.43,1.016 0.572,0.677 0.859,1.617 0.859,2.82 v 0.672 h -5.649 c 0.021,0.89 0.261,1.578 0.719,2.062 0.459,0.485 1.089,0.727 1.891,0.727 0.901,0 1.729,-0.297 2.484,-0.891 v 1.203 c -0.703,0.511 -1.633,0.766 -2.789,0.766 -1.13,0 -2.018,-0.363 -2.664,-1.09 -0.646,-0.726 -0.969,-1.749 -0.969,-3.066 0,-1.245 0.353,-2.259 1.059,-3.043 0.706,-0.784 1.582,-1.176 2.629,-1.176 z m -15.531,0 c 0.703,0 1.323,0.13 1.859,0.391 v 1.312 c -0.594,-0.417 -1.229,-0.625 -1.906,-0.625 -0.818,0 -1.489,0.293 -2.012,0.879 -0.523,0.586 -0.785,1.355 -0.785,2.309 0,0.937 0.246,1.677 0.738,2.218 0.492,0.542 1.152,0.813 1.981,0.813 0.698,0 1.354,-0.232 1.968,-0.695 v 1.218 c -0.614,0.37 -1.343,0.555 -2.187,0.555 -1.141,0 -2.061,-0.371 -2.762,-1.113 -0.7,-0.743 -1.051,-1.705 -1.051,-2.887 0,-1.318 0.378,-2.376 1.133,-3.176 0.755,-0.799 1.763,-1.199 3.024,-1.199 z m -8.704,0 c 1.881,0 2.821,0.995 2.821,2.984 v 5.203 h -1.281 v -1.25 h -0.032 c -0.557,0.959 -1.377,1.438 -2.461,1.438 -0.797,0 -1.42,-0.211 -1.871,-0.633 -0.45,-0.422 -0.676,-0.982 -0.676,-1.68 0,-1.494 0.881,-2.364 2.641,-2.609 l 2.399,-0.336 c 0,-1.359 -0.55,-2.039 -1.649,-2.039 -0.963,0 -1.833,0.328 -2.609,0.984 v -1.312 c 0.786,-0.5 1.692,-0.75 2.718,-0.75 z m -7.75,-3.203 c 1.063,0 1.943,0.153 2.641,0.461 v 1.398 c -0.802,-0.448 -1.687,-0.672 -2.656,-0.672 -1.287,0 -2.33,0.43 -3.129,1.289 -0.8,0.86 -1.199,2.008 -1.199,3.446 0,1.364 0.373,2.452 1.121,3.261 0.747,0.81 1.728,1.215 2.941,1.215 1.125,0 2.099,-0.25 2.922,-0.75 v 1.274 c -0.828,0.437 -1.859,0.656 -3.094,0.656 -1.593,0 -2.869,-0.513 -3.828,-1.539 -0.958,-1.026 -1.437,-2.373 -1.437,-4.039 0,-1.792 0.539,-3.24 1.617,-4.344 1.078,-1.104 2.445,-1.656 4.101,-1.656 z m 19.844,-0.453 h 1.281 v 5.172 h 0.032 c 0.614,-1.011 1.489,-1.516 2.625,-1.516 1.802,0 2.703,1.086 2.703,3.258 v 4.929 h -1.281 v -4.609 c 0,-1.667 -0.62,-2.5 -1.86,-2.5 -0.625,0 -1.151,0.241 -1.578,0.723 -0.427,0.481 -0.641,1.1 -0.641,1.855 v 4.531 h -1.281 z"
       fill="url(#fill3)"
       fill-rule="evenodd"
       id="path1328"
       style="fill:url(#fill3)" />
    <text
       fill="#000000"
       fill-opacity="0"
       font-family="Arial, Arial_MSFontService, sans-serif"
       font-size="12.0312px"
       x="751.396"
       y="447.16699"
       id="text1330">Cache</text>
    <path
       d="m 770.599,497.878 -1.93,0.265 c -0.594,0.084 -1.042,0.231 -1.344,0.442 -0.302,0.211 -0.453,0.585 -0.453,1.121 0,0.391 0.139,0.71 0.418,0.957 0.279,0.247 0.65,0.371 1.113,0.371 0.636,0 1.16,-0.223 1.575,-0.668 0.414,-0.445 0.621,-1.009 0.621,-1.691 z m 6.148,-4.141 c 0.693,0 1.313,0.12 1.859,0.36 v 1.296 c -0.588,-0.385 -1.265,-0.578 -2.031,-0.578 -0.239,0 -0.456,0.028 -0.648,0.082 -0.193,0.055 -0.358,0.132 -0.496,0.231 -0.138,0.099 -0.245,0.217 -0.321,0.355 -0.075,0.138 -0.113,0.291 -0.113,0.457 0,0.209 0.038,0.383 0.113,0.524 0.076,0.14 0.187,0.265 0.332,0.375 0.146,0.109 0.323,0.208 0.532,0.297 0.208,0.088 0.445,0.185 0.711,0.289 0.354,0.135 0.671,0.274 0.953,0.418 0.281,0.143 0.521,0.304 0.718,0.484 0.198,0.18 0.351,0.387 0.457,0.621 0.107,0.235 0.161,0.513 0.161,0.836 0,0.396 -0.088,0.74 -0.262,1.031 -0.175,0.292 -0.408,0.534 -0.699,0.727 -0.292,0.193 -0.628,0.336 -1.008,0.43 -0.38,0.093 -0.779,0.14 -1.195,0.14 -0.823,0 -1.537,-0.159 -2.141,-0.476 v -1.375 c 0.698,0.515 1.466,0.773 2.305,0.773 1.125,0 1.687,-0.375 1.687,-1.125 0,-0.213 -0.048,-0.394 -0.144,-0.543 -0.097,-0.148 -0.227,-0.28 -0.391,-0.394 -0.164,-0.115 -0.357,-0.218 -0.578,-0.309 -0.222,-0.091 -0.46,-0.186 -0.715,-0.285 -0.354,-0.141 -0.665,-0.283 -0.934,-0.426 -0.268,-0.143 -0.492,-0.305 -0.671,-0.484 -0.18,-0.18 -0.316,-0.384 -0.407,-0.614 -0.091,-0.229 -0.136,-0.497 -0.136,-0.804 0,-0.375 0.086,-0.707 0.257,-0.996 0.172,-0.289 0.401,-0.532 0.688,-0.727 0.286,-0.195 0.613,-0.342 0.98,-0.441 0.368,-0.099 0.746,-0.149 1.137,-0.149 z m -7.687,0 c 1.88,0 2.82,0.995 2.82,2.985 v 5.203 h -1.281 v -1.25 h -0.032 c -0.557,0.958 -1.377,1.437 -2.461,1.437 -0.796,0 -1.42,-0.211 -1.871,-0.633 -0.45,-0.421 -0.675,-0.981 -0.675,-1.679 0,-1.495 0.88,-2.365 2.64,-2.61 l 2.399,-0.336 c 0,-1.359 -0.55,-2.039 -1.649,-2.039 -0.963,0 -1.833,0.328 -2.609,0.985 v -1.313 c 0.786,-0.5 1.693,-0.75 2.719,-0.75 z m -10.883,-3.015 h 7.773 v 1.187 h -3.234 v 10.016 h -1.313 v -10.016 h -3.226 z m 22.976,-0.641 h 1.282 v 7.508 h 0.031 l 3.359,-3.664 h 1.68 l -3.711,3.859 4,4.141 h -1.797 l -3.531,-3.844 h -0.031 v 3.844 h -1.282 z"
       fill="url(#fill4)"
       fill-rule="evenodd"
       id="path1332"
       style="fill:url(#fill4)" />
    <text
       fill="#000000"
       fill-opacity="0"
       font-family="Arial, Arial_MSFontService, sans-serif"
       font-size="12.0312px"
       x="758.177"
       y="500.608"
       id="text1334">Task</text>
    <path
       d="m 598.061,497.223 -1.93,0.265 c -0.594,0.084 -1.041,0.231 -1.344,0.442 -0.302,0.211 -0.453,0.584 -0.453,1.121 0,0.391 0.14,0.71 0.418,0.957 0.279,0.247 0.65,0.371 1.114,0.371 0.635,0 1.16,-0.223 1.574,-0.668 0.414,-0.445 0.621,-1.009 0.621,-1.691 z m 6.148,-4.141 c 0.693,0 1.313,0.12 1.86,0.36 v 1.296 c -0.589,-0.385 -1.266,-0.578 -2.032,-0.578 -0.239,0 -0.455,0.028 -0.648,0.082 -0.193,0.055 -0.358,0.132 -0.496,0.231 -0.138,0.099 -0.245,0.217 -0.32,0.355 -0.076,0.138 -0.114,0.291 -0.114,0.457 0,0.209 0.038,0.383 0.114,0.524 0.075,0.14 0.186,0.265 0.332,0.375 0.145,0.109 0.323,0.208 0.531,0.297 0.208,0.088 0.445,0.185 0.711,0.289 0.354,0.135 0.672,0.274 0.953,0.418 0.281,0.143 0.521,0.304 0.719,0.484 0.198,0.18 0.35,0.387 0.457,0.621 0.107,0.235 0.16,0.513 0.16,0.836 0,0.396 -0.087,0.74 -0.262,1.031 -0.174,0.292 -0.407,0.534 -0.699,0.727 -0.292,0.193 -0.628,0.336 -1.008,0.43 -0.38,0.093 -0.779,0.14 -1.195,0.14 -0.823,0 -1.537,-0.159 -2.141,-0.476 v -1.375 c 0.698,0.515 1.466,0.773 2.305,0.773 1.125,0 1.687,-0.375 1.687,-1.125 0,-0.213 -0.048,-0.394 -0.144,-0.543 -0.096,-0.148 -0.227,-0.28 -0.391,-0.394 -0.164,-0.115 -0.357,-0.218 -0.578,-0.309 -0.221,-0.091 -0.46,-0.186 -0.715,-0.285 -0.354,-0.141 -0.665,-0.283 -0.933,-0.426 -0.269,-0.143 -0.492,-0.305 -0.672,-0.484 -0.18,-0.18 -0.315,-0.384 -0.406,-0.614 -0.092,-0.229 -0.137,-0.497 -0.137,-0.804 0,-0.375 0.086,-0.707 0.258,-0.996 0.172,-0.289 0.401,-0.532 0.687,-0.727 0.287,-0.195 0.613,-0.342 0.981,-0.441 0.367,-0.099 0.746,-0.149 1.136,-0.149 z m -7.687,0 c 1.88,0 2.82,0.995 2.82,2.985 v 5.203 h -1.281 v -1.25 h -0.031 c -0.558,0.958 -1.378,1.437 -2.461,1.437 -0.797,0 -1.421,-0.211 -1.871,-0.633 -0.451,-0.421 -0.676,-0.981 -0.676,-1.679 0,-1.495 0.88,-2.365 2.64,-2.61 l 2.399,-0.336 c 0,-1.359 -0.55,-2.039 -1.649,-2.039 -0.963,0 -1.833,0.328 -2.609,0.985 v -1.313 c 0.787,-0.5 1.693,-0.75 2.719,-0.75 z m -10.883,-3.015 h 7.773 v 1.187 h -3.234 v 10.016 h -1.312 v -10.016 h -3.227 z m 22.977,-0.641 h 1.281 v 7.508 h 0.031 l 3.359,-3.664 h 1.68 l -3.711,3.859 4,4.141 h -1.797 l -3.531,-3.844 h -0.031 v 3.844 h -1.281 z"
       fill="url(#fill5)"
       fill-rule="evenodd"
       id="path1336"
       style="fill:url(#fill5)" />
    <text
       fill="#000000"
       fill-opacity="0"
       font-family="Arial, Arial_MSFontService, sans-serif"
       font-size="12.0312px"
       x="585.63898"
       y="499.953"
       id="text1338">Task</text>
    <path
       d="m 433.293,496.012 -1.93,0.265 c -0.594,0.084 -1.042,0.231 -1.344,0.442 -0.302,0.211 -0.453,0.584 -0.453,1.121 0,0.39 0.139,0.709 0.418,0.957 0.279,0.247 0.65,0.371 1.113,0.371 0.636,0 1.16,-0.223 1.574,-0.668 0.415,-0.445 0.622,-1.009 0.622,-1.691 z m 6.148,-4.141 c 0.693,0 1.313,0.12 1.859,0.359 v 1.297 c -0.588,-0.385 -1.265,-0.578 -2.031,-0.578 -0.239,0 -0.456,0.027 -0.648,0.082 -0.193,0.055 -0.358,0.132 -0.496,0.231 -0.138,0.099 -0.245,0.217 -0.321,0.355 -0.075,0.138 -0.113,0.29 -0.113,0.457 0,0.208 0.038,0.383 0.113,0.524 0.076,0.14 0.187,0.265 0.332,0.375 0.146,0.109 0.323,0.208 0.532,0.296 0.208,0.089 0.445,0.185 0.711,0.29 0.354,0.135 0.671,0.274 0.953,0.417 0.281,0.144 0.52,0.305 0.718,0.485 0.198,0.18 0.351,0.387 0.457,0.621 0.107,0.234 0.161,0.513 0.161,0.836 0,0.396 -0.088,0.739 -0.262,1.031 -0.175,0.292 -0.408,0.534 -0.699,0.727 -0.292,0.192 -0.628,0.336 -1.008,0.429 -0.38,0.094 -0.779,0.141 -1.195,0.141 -0.823,0 -1.537,-0.159 -2.141,-0.477 v -1.375 c 0.698,0.516 1.466,0.774 2.305,0.774 1.125,0 1.687,-0.375 1.687,-1.125 0,-0.214 -0.048,-0.395 -0.144,-0.543 -0.097,-0.149 -0.227,-0.28 -0.391,-0.395 -0.164,-0.114 -0.357,-0.217 -0.578,-0.308 -0.222,-0.091 -0.46,-0.186 -0.715,-0.285 -0.354,-0.141 -0.665,-0.283 -0.934,-0.426 -0.268,-0.143 -0.492,-0.305 -0.672,-0.485 -0.179,-0.179 -0.315,-0.384 -0.406,-0.613 -0.091,-0.229 -0.136,-0.497 -0.136,-0.804 0,-0.375 0.085,-0.708 0.257,-0.997 0.172,-0.289 0.401,-0.531 0.688,-0.726 0.286,-0.195 0.613,-0.343 0.98,-0.442 0.367,-0.099 0.746,-0.148 1.137,-0.148 z m -7.687,0 c 1.88,0 2.82,0.995 2.82,2.984 v 5.204 h -1.281 v -1.25 h -0.032 c -0.557,0.958 -1.377,1.437 -2.461,1.437 -0.796,0 -1.42,-0.211 -1.871,-0.633 -0.45,-0.422 -0.675,-0.982 -0.675,-1.679 0,-1.495 0.88,-2.365 2.64,-2.61 l 2.399,-0.336 c 0,-1.359 -0.55,-2.039 -1.649,-2.039 -0.963,0 -1.833,0.328 -2.609,0.985 v -1.313 c 0.786,-0.5 1.692,-0.75 2.719,-0.75 z m -10.883,-3.016 h 7.773 v 1.188 h -3.234 v 10.016 h -1.313 v -10.016 h -3.226 z m 22.976,-0.64 h 1.282 v 7.508 h 0.031 l 3.359,-3.664 h 1.68 l -3.711,3.859 4,4.141 h -1.797 l -3.531,-3.844 h -0.031 v 3.844 h -1.282 z"
       fill="url(#fill6)"
       fill-rule="evenodd"
       id="path1340"
       style="fill:url(#fill6)" />
    <text
       fill="#000000"
       fill-opacity="0"
       font-family="Arial, Arial_MSFontService, sans-serif"
       font-size="12.0312px"
       x="420.871"
       y="498.742"
       id="text1342">Task</text>
    <rect
       x="401"
       y="542"
       width="71"
       height="25"
       fill="#ffffff"
       id="rect1344" />
    <path
       d="m 442.402,555.689 -1.93,0.265 c -0.594,0.084 -1.042,0.231 -1.344,0.442 -0.302,0.211 -0.453,0.584 -0.453,1.121 0,0.39 0.139,0.709 0.418,0.957 0.279,0.247 0.65,0.371 1.113,0.371 0.636,0 1.161,-0.223 1.575,-0.668 0.414,-0.445 0.621,-1.009 0.621,-1.691 z m 6.836,-3.063 c -0.782,0 -1.396,0.287 -1.844,0.86 -0.448,0.572 -0.672,1.364 -0.672,2.375 0,0.921 0.215,1.649 0.645,2.183 0.429,0.534 1.006,0.801 1.73,0.801 0.714,0 1.293,-0.258 1.738,-0.774 0.446,-0.515 0.668,-1.166 0.668,-1.953 v -1.179 c 0,-0.646 -0.213,-1.193 -0.64,-1.641 -0.427,-0.448 -0.969,-0.672 -1.625,-0.672 z m -16.164,0 c -0.605,0 -1.118,0.216 -1.54,0.649 -0.421,0.432 -0.682,0.997 -0.781,1.695 h 4.321 c -0.006,-0.74 -0.184,-1.315 -0.536,-1.727 -0.351,-0.411 -0.839,-0.617 -1.464,-0.617 z m 7.789,-1.078 c 1.88,0 2.82,0.995 2.82,2.984 v 5.204 h -1.281 v -1.25 h -0.032 c -0.557,0.958 -1.377,1.437 -2.461,1.437 -0.796,0 -1.42,-0.211 -1.871,-0.633 -0.45,-0.422 -0.675,-0.982 -0.675,-1.679 0,-1.495 0.88,-2.365 2.64,-2.61 l 2.399,-0.336 c 0,-1.359 -0.55,-2.039 -1.649,-2.039 -0.963,0 -1.833,0.328 -2.609,0.985 v -1.313 c 0.786,-0.5 1.693,-0.75 2.719,-0.75 z m -7.766,0 c 1.047,0 1.857,0.339 2.43,1.016 0.573,0.677 0.859,1.617 0.859,2.82 v 0.672 h -5.648 c 0.02,0.89 0.26,1.578 0.718,2.062 0.459,0.485 1.089,0.727 1.891,0.727 0.901,0 1.729,-0.297 2.484,-0.891 v 1.203 c -0.703,0.511 -1.632,0.766 -2.789,0.766 -1.13,0 -2.018,-0.363 -2.664,-1.09 -0.646,-0.726 -0.969,-1.749 -0.969,-3.066 0,-1.245 0.353,-2.259 1.059,-3.043 0.706,-0.784 1.582,-1.176 2.629,-1.176 z m -11.656,-1.828 v 4.062 h 1.781 c 0.328,0 0.631,-0.049 0.91,-0.148 0.279,-0.099 0.52,-0.241 0.723,-0.426 0.203,-0.185 0.362,-0.411 0.476,-0.679 0.115,-0.269 0.172,-0.57 0.172,-0.903 0,-0.599 -0.194,-1.066 -0.582,-1.402 -0.388,-0.336 -0.949,-0.504 -1.683,-0.504 z m -1.313,-1.188 h 3.344 c 0.49,0 0.941,0.062 1.355,0.184 0.415,0.122 0.774,0.309 1.079,0.559 0.304,0.25 0.543,0.561 0.714,0.933 0.172,0.373 0.258,0.809 0.258,1.309 0,0.39 -0.058,0.748 -0.176,1.074 -0.117,0.326 -0.283,0.616 -0.5,0.871 -0.216,0.255 -0.476,0.473 -0.781,0.652 -0.304,0.18 -0.647,0.319 -1.027,0.418 v 0.032 c 0.187,0.083 0.35,0.178 0.488,0.285 0.138,0.107 0.27,0.233 0.395,0.379 0.125,0.146 0.248,0.311 0.371,0.496 0.122,0.185 0.259,0.4 0.41,0.644 l 2.101,3.368 h -1.562 l -1.875,-3.141 c -0.172,-0.292 -0.339,-0.54 -0.5,-0.746 -0.161,-0.206 -0.327,-0.374 -0.496,-0.504 -0.169,-0.13 -0.352,-0.225 -0.547,-0.285 -0.195,-0.06 -0.415,-0.09 -0.66,-0.09 h -1.078 v 4.766 h -1.313 z m 31.375,-0.64 h 1.281 v 11.844 h -1.281 v -1.36 h -0.031 c -0.594,1.031 -1.51,1.547 -2.75,1.547 -1.005,0 -1.809,-0.358 -2.41,-1.074 -0.602,-0.716 -0.903,-1.692 -0.903,-2.926 0,-1.323 0.334,-2.383 1,-3.18 0.667,-0.797 1.555,-1.195 2.665,-1.195 1.098,0 1.898,0.432 2.398,1.297 h 0.031 z"
       fill="url(#fill7)"
       fill-rule="evenodd"
       id="path1346"
       style="fill:url(#fill7)" />
    <text
       fill="#000000"
       fill-opacity="0"
       font-family="Arial, Arial_MSFontService, sans-serif"
       font-size="12.0312px"
       x="420.12799"
       y="558.41901"
       id="text1348">Read</text>
    <rect
       x="564"
       y="542"
       width="71"
       height="25"
       fill="#ffffff"
       id="rect1350" />
    <path
       d="m 605.657,555.481 -1.93,0.266 c -0.594,0.083 -1.042,0.23 -1.344,0.441 -0.302,0.211 -0.453,0.585 -0.453,1.121 0,0.391 0.139,0.71 0.418,0.957 0.279,0.248 0.65,0.371 1.113,0.371 0.636,0 1.16,-0.222 1.574,-0.668 0.415,-0.445 0.622,-1.009 0.622,-1.691 z m 6.835,-3.062 c -0.781,0 -1.395,0.286 -1.843,0.859 -0.448,0.573 -0.672,1.364 -0.672,2.375 0,0.922 0.215,1.65 0.644,2.183 0.43,0.534 1.007,0.801 1.731,0.801 0.713,0 1.293,-0.258 1.738,-0.773 0.445,-0.516 0.668,-1.167 0.668,-1.953 v -1.18 c 0,-0.646 -0.213,-1.193 -0.641,-1.641 -0.427,-0.448 -0.968,-0.671 -1.625,-0.671 z m -16.164,0 c -0.604,0 -1.117,0.216 -1.539,0.648 -0.422,0.432 -0.682,0.997 -0.781,1.695 h 4.32 c -0.005,-0.739 -0.183,-1.315 -0.535,-1.726 -0.351,-0.412 -0.84,-0.617 -1.465,-0.617 z m 7.789,-1.079 c 1.881,0 2.821,0.995 2.821,2.985 v 5.203 h -1.281 v -1.25 h -0.032 c -0.557,0.958 -1.377,1.437 -2.461,1.437 -0.797,0 -1.42,-0.211 -1.871,-0.632 -0.45,-0.422 -0.676,-0.982 -0.676,-1.68 0,-1.495 0.881,-2.365 2.641,-2.609 l 2.399,-0.336 c 0,-1.36 -0.55,-2.039 -1.649,-2.039 -0.963,0 -1.833,0.328 -2.609,0.984 v -1.313 c 0.786,-0.5 1.692,-0.75 2.718,-0.75 z m -7.765,0 c 1.047,0 1.857,0.339 2.43,1.016 0.572,0.677 0.859,1.617 0.859,2.82 v 0.672 h -5.649 c 0.021,0.891 0.261,1.578 0.719,2.063 0.459,0.484 1.089,0.726 1.891,0.726 0.901,0 1.729,-0.297 2.484,-0.89 v 1.203 c -0.703,0.51 -1.633,0.765 -2.789,0.765 -1.13,0 -2.018,-0.363 -2.664,-1.089 -0.646,-0.727 -0.969,-1.749 -0.969,-3.067 0,-1.245 0.353,-2.259 1.059,-3.043 0.706,-0.784 1.582,-1.176 2.629,-1.176 z m -11.656,-1.828 v 4.063 h 1.781 c 0.328,0 0.631,-0.05 0.91,-0.149 0.279,-0.099 0.52,-0.241 0.723,-0.425 0.203,-0.185 0.362,-0.412 0.476,-0.68 0.115,-0.268 0.172,-0.569 0.172,-0.902 0,-0.599 -0.194,-1.067 -0.582,-1.403 -0.388,-0.336 -0.949,-0.504 -1.684,-0.504 z m -1.313,-1.187 h 3.344 c 0.489,0 0.941,0.061 1.355,0.183 0.414,0.123 0.774,0.309 1.078,0.559 0.305,0.25 0.543,0.561 0.715,0.934 0.172,0.372 0.258,0.808 0.258,1.308 0,0.391 -0.058,0.749 -0.176,1.074 -0.117,0.326 -0.284,0.616 -0.5,0.871 -0.216,0.256 -0.476,0.473 -0.781,0.653 -0.305,0.179 -0.647,0.319 -1.027,0.418 v 0.031 c 0.187,0.083 0.35,0.178 0.488,0.285 0.138,0.107 0.27,0.233 0.395,0.379 0.125,0.146 0.248,0.311 0.371,0.496 0.122,0.185 0.259,0.4 0.41,0.645 l 2.101,3.367 h -1.562 l -1.875,-3.141 c -0.172,-0.291 -0.339,-0.54 -0.5,-0.746 -0.162,-0.206 -0.327,-0.374 -0.496,-0.504 -0.169,-0.13 -0.352,-0.225 -0.547,-0.285 -0.195,-0.06 -0.415,-0.09 -0.66,-0.09 h -1.078 v 4.766 h -1.313 z m 31.375,-0.641 h 1.281 v 11.844 h -1.281 v -1.359 h -0.031 c -0.594,1.031 -1.511,1.546 -2.75,1.546 -1.005,0 -1.809,-0.358 -2.41,-1.074 -0.602,-0.716 -0.903,-1.691 -0.903,-2.926 0,-1.323 0.334,-2.382 1,-3.179 0.667,-0.797 1.555,-1.196 2.664,-1.196 1.099,0 1.899,0.433 2.399,1.297 h 0.031 z"
       fill="url(#fill8)"
       fill-rule="evenodd"
       id="path1352"
       style="fill:url(#fill8)" />
    <text
       fill="#000000"
       fill-opacity="0"
       font-family="Arial, Arial_MSFontService, sans-serif"
       font-size="12.0312px"
       x="583.383"
       y="558.211"
       id="text1354">Read</text>
    <rect
       x="736"
       y="543"
       width="71"
       height="25"
       fill="#ffffff"
       id="rect1356" />
    <path
       d="m 777.097,556.52 -1.93,0.266 c -0.594,0.083 -1.042,0.23 -1.344,0.441 -0.302,0.211 -0.453,0.585 -0.453,1.121 0,0.391 0.14,0.71 0.418,0.957 0.279,0.248 0.65,0.371 1.113,0.371 0.636,0 1.161,-0.222 1.575,-0.668 0.414,-0.445 0.621,-1.009 0.621,-1.691 z m 6.836,-3.062 c -0.782,0 -1.396,0.286 -1.844,0.859 -0.448,0.573 -0.672,1.365 -0.672,2.375 0,0.922 0.215,1.65 0.645,2.184 0.429,0.533 1.006,0.8 1.73,0.8 0.714,0 1.293,-0.257 1.738,-0.773 0.446,-0.516 0.668,-1.167 0.668,-1.953 v -1.18 c 0,-0.646 -0.213,-1.193 -0.64,-1.641 -0.427,-0.447 -0.969,-0.671 -1.625,-0.671 z m -16.164,0 c -0.605,0 -1.118,0.216 -1.539,0.648 -0.422,0.432 -0.683,0.997 -0.782,1.695 h 4.321 c -0.006,-0.739 -0.184,-1.315 -0.535,-1.726 -0.352,-0.412 -0.84,-0.617 -1.465,-0.617 z m 7.789,-1.079 c 1.88,0 2.82,0.995 2.82,2.985 v 5.203 h -1.281 v -1.25 h -0.031 c -0.558,0.958 -1.378,1.437 -2.461,1.437 -0.797,0 -1.421,-0.21 -1.871,-0.632 -0.451,-0.422 -0.676,-0.982 -0.676,-1.68 0,-1.495 0.88,-2.365 2.64,-2.609 l 2.399,-0.336 c 0,-1.36 -0.55,-2.039 -1.649,-2.039 -0.963,0 -1.833,0.328 -2.609,0.984 v -1.313 c 0.786,-0.5 1.693,-0.75 2.719,-0.75 z m -7.766,0 c 1.047,0 1.857,0.339 2.43,1.016 0.573,0.677 0.859,1.617 0.859,2.82 v 0.672 h -5.648 c 0.021,0.891 0.26,1.578 0.718,2.063 0.459,0.484 1.089,0.726 1.891,0.726 0.901,0 1.729,-0.297 2.484,-0.89 v 1.203 c -0.703,0.51 -1.632,0.765 -2.789,0.765 -1.13,0 -2.018,-0.363 -2.664,-1.089 -0.645,-0.727 -0.968,-1.749 -0.968,-3.067 0,-1.245 0.352,-2.259 1.058,-3.043 0.706,-0.784 1.582,-1.176 2.629,-1.176 z m -11.656,-1.828 v 4.063 h 1.781 c 0.328,0 0.632,-0.05 0.91,-0.149 0.279,-0.099 0.52,-0.241 0.723,-0.425 0.203,-0.185 0.362,-0.412 0.476,-0.68 0.115,-0.268 0.172,-0.569 0.172,-0.902 0,-0.599 -0.194,-1.067 -0.582,-1.403 -0.388,-0.336 -0.949,-0.504 -1.683,-0.504 z m -1.313,-1.187 h 3.344 c 0.49,0 0.942,0.061 1.356,0.183 0.414,0.123 0.773,0.309 1.078,0.559 0.304,0.25 0.543,0.561 0.715,0.934 0.171,0.372 0.257,0.808 0.257,1.308 0,0.391 -0.058,0.749 -0.175,1.074 -0.118,0.326 -0.284,0.616 -0.5,0.872 -0.217,0.255 -0.477,0.472 -0.782,0.652 -0.304,0.18 -0.647,0.319 -1.027,0.418 v 0.031 c 0.187,0.083 0.35,0.178 0.488,0.285 0.138,0.107 0.27,0.233 0.395,0.379 0.125,0.146 0.249,0.311 0.371,0.496 0.122,0.185 0.259,0.4 0.41,0.645 l 2.102,3.367 h -1.563 l -1.875,-3.141 c -0.172,-0.291 -0.338,-0.54 -0.5,-0.746 -0.161,-0.206 -0.327,-0.373 -0.496,-0.504 -0.169,-0.13 -0.352,-0.225 -0.547,-0.285 -0.195,-0.06 -0.415,-0.09 -0.66,-0.09 h -1.078 v 4.766 h -1.313 z m 31.375,-0.641 h 1.282 v 11.844 h -1.282 v -1.359 h -0.031 c -0.594,1.031 -1.51,1.546 -2.75,1.546 -1.005,0 -1.808,-0.358 -2.41,-1.074 -0.602,-0.716 -0.902,-1.691 -0.902,-2.926 0,-1.322 0.333,-2.382 1,-3.179 0.666,-0.797 1.554,-1.196 2.664,-1.196 1.099,0 1.898,0.433 2.398,1.297 h 0.031 z"
       fill="url(#fill9)"
       fill-rule="evenodd"
       id="path1358"
       style="fill:url(#fill9)" />
    <text
       fill="#000000"
       fill-opacity="0"
       font-family="Arial, Arial_MSFontService, sans-serif"
       font-size="12.0312px"
       x="754.823"
       y="559.25098"
       id="text1360">Read</text>
    <rect
       x="469"
       y="94"
       width="268"
       height="76"
       stroke="#595959"
       stroke-width="4"
       stroke-linejoin="round"
       stroke-miterlimit="10"
       fill="none"
       id="rect1362" />
    <path
       d="m 605,170 v 35.348 h -4 V 170 Z m 4,33.348 -6,12 -6,-12 z"
       fill="#595959"
       id="path1364" />
    <text
       font-family="'Segoe UI', 'Segoe UI_MSFontService', sans-serif"
       font-weight="400"
       font-size="32px"
       transform="translate(499.418,125)"
       id="text1370">Driver Program<tspan
   font-size="27px"
   x="28.893299"
   y="30"
   id="tspan1366">SparkContext</tspan><tspan
   fill="#0070c0"
   font-size="24px"
   x="41.591099"
   y="-56"
   id="tspan1368">Head Node</tspan></text>
    <path
       d="m 436,357.448 v -34.224 h 57.255 l -2,2 V 293 h 4 v 34.224 H 438 l 2,-2 v 32.224 z m 8,-2 -6,12 -6,-12 z M 487.255,295 l 6,-12 6,12 z"
       fill="#595959"
       id="path1372" />
    <path
       d="m 10,-2 h 32.7397 v 58.5973 l -2,-2 h 30.7398 v 4 H 38.7397 V 0 l 2,2 H 10 Z M 12,6 0,0 12,-6 Z m 57.4795,44.5973 12,6 -12,6 z"
       fill="#595959"
       transform="matrix(0,1,1,0,713,286)"
       id="path1374" />
    <path
       d="m 2.00001,9.99999 8e-5,61.47941 h -4 L -1.99999,10 Z M -5.99998,12 0,0 6.00002,12 Z m 12.00007,57.4794 -5.999985013,12 -6.000014987,-12 z"
       fill="#595959"
       transform="matrix(1,0,0,-1,603,367.479)"
       id="path1376" />
  </g>
</svg>
