<svg data-slug-id="bing-custom-search-api" xmlns="http://www.w3.org/2000/svg" viewBox="0 0 61 61">
<path d="M34.5096 13.1738C27.2309 13.1738 21.3646 19.0945 21.3646 26.3731C21.3646 29.6865 22.6139 32.7284 24.6237 35.064L14.0859 45.5475L16.0957 47.5572L26.6878 36.9652C28.8605 38.5947 31.5764 39.5181 34.5096 39.5181C41.7882 39.5181 47.7089 33.5975 47.7089 26.3188C47.7089 19.0945 41.7882 13.1738 34.5096 13.1738ZM34.5096 36.8022C28.7518 36.8022 24.0805 32.1309 24.0805 26.3731C24.0805 20.5611 28.7518 15.8897 34.5096 15.8897C40.2673 15.8897 44.9387 20.5611 44.9387 26.3188C44.993 32.1309 40.3216 36.8022 34.5096 36.8022Z" fill="#0078D4"></path>
<path d="M41.4114 25.1774H40.8682C40.3251 25.1774 39.8905 24.8515 39.6732 24.4169C39.6189 24.3083 39.5646 24.1453 39.5103 24.0367C39.293 23.6022 39.4016 23.059 39.7819 22.6787L40.2164 22.2442C40.3251 22.1356 40.3251 21.9183 40.2164 21.7553L39.0757 20.6147C38.9671 20.506 38.7498 20.506 38.5869 20.6147L38.1523 21.0492C37.7721 21.4294 37.2289 21.5381 36.7944 21.3208C36.6857 21.2665 36.5228 21.2122 36.4141 21.1578C35.9253 20.9949 35.6537 20.506 35.6537 19.9628V19.4197C35.6537 19.2567 35.4907 19.0938 35.3278 19.0938H33.6982C33.5353 19.0938 33.3723 19.2567 33.3723 19.4197V19.9628C33.3723 20.506 33.0464 20.9406 32.6119 21.1578C32.5032 21.2122 32.3403 21.2665 32.2316 21.3208C31.7971 21.5381 31.2539 21.4294 30.8737 21.0492L30.3848 20.6147C30.2762 20.506 30.0589 20.506 29.896 20.6147L28.7553 21.7553C28.6466 21.864 28.6466 22.0812 28.7553 22.2442L29.1898 22.6787C29.5701 23.059 29.6787 23.6022 29.4614 24.0367C29.4071 24.1453 29.3528 24.3083 29.2985 24.4169C29.1355 24.9058 28.6466 25.1774 28.1035 25.1774H27.5603C27.3973 25.1774 27.2344 25.3403 27.2344 25.5033V27.1328C27.2344 27.2958 27.3973 27.4587 27.5603 27.4587H28.1035C28.6466 27.4587 29.0812 27.7847 29.2985 28.2192C29.3528 28.3278 29.4071 28.4908 29.4614 28.5994C29.6787 29.034 29.5701 29.5772 29.1898 29.9574L28.7553 30.3919C28.6466 30.5006 28.6466 30.7178 28.7553 30.8808L29.896 32.0215C30.0046 32.1301 30.2219 32.1301 30.3848 32.0215L30.8194 31.5869C31.1996 31.2067 31.7428 31.0981 32.1773 31.3153C32.286 31.3697 32.4489 31.424 32.5576 31.4783C33.0464 31.6412 33.318 32.1301 33.318 32.6733V33.2165C33.318 33.3794 33.481 33.5424 33.6439 33.5424H35.2735C35.4364 33.5424 35.5994 33.3794 35.5994 33.2165V32.6733C35.5994 32.1301 35.9253 31.6956 36.3598 31.4783C36.4685 31.424 36.6314 31.3697 36.7401 31.3153C37.1746 31.0981 37.7178 31.2067 38.098 31.5869L38.5326 32.0215C38.6412 32.1301 38.8585 32.1301 39.0214 32.0215L40.1621 30.8808C40.2707 30.7722 40.2707 30.5549 40.1621 30.3919L39.7819 30.0117C39.4016 29.6315 39.293 29.0883 39.5103 28.6537C39.5646 28.5451 39.6189 28.3822 39.6732 28.2735C39.8362 27.7847 40.3251 27.5131 40.8682 27.5131H41.4114C41.5744 27.5131 41.7373 27.3501 41.7373 27.1872V25.5576C41.7373 25.3403 41.5744 25.1774 41.4114 25.1774ZM34.4587 29.3056C32.8291 29.3056 31.4712 27.9476 31.4712 26.3181C31.4712 24.6885 32.8291 23.3306 34.4587 23.3306C36.0882 23.3306 37.4462 24.6885 37.4462 26.3181C37.4462 27.9476 36.1426 29.3056 34.4587 29.3056Z" fill="#0078D4"></path>
</svg>