<svg xmlns="http://www.w3.org/2000/svg" xmlns:xlink="http://www.w3.org/1999/xlink" viewBox="0 0 478.381 148.591">
  <defs>
    <linearGradient id="linear-gradient" x1="233.549" y1="47.737" x2="233.549" y2="131.831" gradientUnits="userSpaceOnUse">
      <stop offset="0" stop-color="#5ea0ef"/>
      <stop offset="0.18" stop-color="#559cec"/>
      <stop offset="0.47" stop-color="#3c91e5"/>
      <stop offset="0.84" stop-color="#1380da"/>
      <stop offset="1" stop-color="#0078d4"/>
    </linearGradient>
    <linearGradient id="linear-gradient-2" x1="57.963" y1="2.158" x2="57.963" y2="30.158" gradientUnits="userSpaceOnUse">
      <stop offset="0.131" stop-color="#32d4f5"/>
      <stop offset="0.404" stop-color="#28b7db"/>
      <stop offset="1" stop-color="#198ab3"/>
    </linearGradient>
    <linearGradient id="linear-gradient-3" x1="67.266" y1="24.299" x2="67.266" y2="25.554" xlink:href="#linear-gradient-2"/>
    <linearGradient id="linear-gradient-4" x1="67.266" y1="26.465" x2="67.266" y2="27.721" xlink:href="#linear-gradient-2"/>
    <linearGradient id="linear-gradient-5" x1="82.123" y1="614.562" x2="82.123" y2="587.946" gradientTransform="matrix(1, 0, 0, -1, 0, 644.993)" gradientUnits="userSpaceOnUse">
      <stop offset="0.117" stop-color="#5ea0ef"/>
      <stop offset="0.271" stop-color="#4595e8"/>
      <stop offset="0.531" stop-color="#1f85dd"/>
      <stop offset="0.741" stop-color="#087cd6"/>
      <stop offset="0.873" stop-color="#0078d4"/>
    </linearGradient>
    <linearGradient id="linear-gradient-6" x1="437.539" y1="547.621" x2="437.539" y2="563.385" gradientTransform="matrix(1, 0, 0, -1, 0, 644.993)" gradientUnits="userSpaceOnUse">
      <stop offset="0" stop-color="#198ab3"/>
      <stop offset="0.44" stop-color="#28b7db"/>
      <stop offset="0.78" stop-color="#32d4f5"/>
    </linearGradient>
    <linearGradient id="linear-gradient-7" x1="437.502" y1="541.385" x2="437.502" y2="546.051" xlink:href="#linear-gradient-6"/>
  </defs>
  <g id="Shapes">
    <rect width="478.381" height="148.591" fill="#fff"/>
    <g>
      <rect x="54.834" y="21.337" width="420.215" height="123.694" fill="#fff"/>
      <rect x="54.834" y="21.337" width="420.215" height="123.694" fill="#198ab3" opacity="0.12"/>
    </g>
    <g>
      <rect x="66.849" y="47.737" width="333.4" height="84.094" fill="#fff"/>
      <rect x="66.849" y="47.737" width="333.4" height="84.094" opacity="0.4" fill="url(#linear-gradient)"/>
    </g>
    <g>
      <g>
        <polygon points="2.548 101.571 11.436 97.097 11.436 88.037 2.548 84.16 2.548 101.571" fill="#fff"/>
        <polygon points="2.548 101.571 11.436 97.097 11.436 88.037 2.548 84.16 2.548 101.571" fill="#3c3c41" opacity="0.85"/>
      </g>
      <g>
        <rect x="13.643" y="83.608" width="31.205" height="18" fill="#fff"/>
        <rect x="13.643" y="83.608" width="31.205" height="18" fill="#3c3c41" opacity="0.85"/>
      </g>
    </g>
    <g>
      <rect x="78.024" y="75.129" width="70.059" height="34.959" fill="#fff"/>
      <g opacity="0.65">
        <path d="M147.933,75.279v34.659H78.174V75.279h69.759m.15-.15H78.024v34.959h70.059V75.129Z" fill="#505050"/>
      </g>
    </g>
    <g>
      <line x1="44.319" y1="92.608" x2="72.301" y2="92.608" fill="none" stroke="#3c3c41" stroke-miterlimit="10"/>
      <polygon points="71.206 96.348 77.683 92.608 71.206 88.869 71.206 96.348" fill="#3c3c41"/>
    </g>
    <g>
      <path d="M69.676,21.922H57.7l.281-1.128h7.473A5.617,5.617,0,0,0,67.92,10.128a6.523,6.523,0,0,0,.146-1.371A6.65,6.65,0,0,0,55.752,5.324a5.05,5.05,0,0,0-7.907,4.107,5.138,5.138,0,0,0,.058.763,5.607,5.607,0,0,0,2.57,10.6h6.88l-.281,1.128H46.25a.908.908,0,0,0-.905.91v6.417a.908.908,0,0,0,.905.91H69.676a.908.908,0,0,0,.9-.91V22.831A.907.907,0,0,0,69.676,21.922Zm-19.2-2.674a4.061,4.061,0,0,1-1.416-7.877l.674-.253-.206-.7a3.529,3.529,0,0,1-.142-.992,3.509,3.509,0,0,1,6.05-2.356l.813.864.455-1.1a5.112,5.112,0,0,1,9.827,1.915,5.01,5.01,0,0,1-.26,1.583l-.245.737.734.244a4.044,4.044,0,0,1,2.782,3.849,4.086,4.086,0,0,1-4.088,4.076H58.363l1.062-4.264.052-.3.3-.067a2.371,2.371,0,0,0,.835-.368l.308-.215,2.376,2.3-.062.256a1.474,1.474,0,0,0,.059.88,1.459,1.459,0,0,0,1.367.939,1.423,1.423,0,0,0,.533-.1,1.481,1.481,0,0,0,.835-1.913,1.463,1.463,0,0,0-1.9-.838.631.631,0,0,0-.06.032l-.072.039-.29.15L61.336,13.48l.121-.29a2.4,2.4,0,0,0-2.2-3.316,2.364,2.364,0,0,0-1.641.663l-.257.248L55.785,9.8l.025-.281a1.488,1.488,0,0,0-.089-.664,1.463,1.463,0,0,0-1.368-.94,1.448,1.448,0,0,0-.534.1,1.483,1.483,0,0,0-.834,1.914,1.461,1.461,0,0,0,1.369.938,1.4,1.4,0,0,0,.856-.286l.248-.181,1.562.978-.078.324a2.334,2.334,0,0,0,.048,1.314l.112.341-2.528,1.6-.239-.141a1.173,1.173,0,0,0-1.029-.082,1.2,1.2,0,0,0-.673,1.547,1.181,1.181,0,0,0,1.1.758,1.18,1.18,0,0,0,1.18-1.225l-.006-.261,2.583-1.634.255.21a2.377,2.377,0,0,0,.734.408l.367.127-.062.377-1.049,4.205Zm18.569,9.365H46.883V23.469h9.8l-.155.623a1.952,1.952,0,1,0,.6.087l.178-.71h11.73Z" fill="url(#linear-gradient-2)"/>
      <path d="M67.89,24.3H66.642v1.255H67.89Z" fill="url(#linear-gradient-3)"/>
      <path d="M67.89,26.465H66.642v1.256H67.89Z" fill="url(#linear-gradient-4)"/>
    </g>
    <g id="a3857c27-3253-4155-b620-22ae9cf301a7">
      <g>
        <path d="M91.573,42.9a8.852,8.852,0,0,0-9.086-8.359,9.107,9.107,0,0,0-8.542,5.814,8.53,8.53,0,0,0-7.268,8,8.382,8.382,0,0,0,8.576,8.184H90.67a6.907,6.907,0,0,0,6.9-6.912A7.005,7.005,0,0,0,91.573,42.9Z" fill="url(#linear-gradient-5)"/>
        <g>
          <polygon points="90.337 47.593 82.636 44.732 82.437 45.226 82.562 44.773 75.725 43.268 75.397 44.414 81.167 45.665 73.763 48.726 74.333 49.742 81.977 46.566 83.345 52.591 84.528 52.445 83.134 46.227 89.884 48.695 90.337 47.593" fill="#83b9f9"/>
          <path d="M74.539,44.85a1.512,1.512,0,1,0,.268-2.121h0l-.035.027A1.5,1.5,0,0,0,74.539,44.85ZM72.823,50.2a1.52,1.52,0,1,0,.257-2.137,1.52,1.52,0,0,0-.257,2.137Zm15.9-1.322a1.505,1.505,0,1,0,.275-2.11l-.006,0h0a1.489,1.489,0,0,0-.278,2.084Z" fill="#9cebff"/>
          <path d="M82.743,53.522a1.505,1.505,0,1,0,.268-2.111h0a1.49,1.49,0,0,0-.29,2.085l0,0Z" fill="#9cebff"/>
        </g>
        <path d="M86.819,45.6a.453.453,0,0,0,0-.786L83.5,42.894l-3.333-1.921a.452.452,0,0,0-.686.393v7.686a.454.454,0,0,0,.686.393L83.5,47.524Z" fill="#c3f1ff"/>
      </g>
    </g>
    <g>
      <rect x="190.094" y="75.129" width="70.4" height="34.959" fill="#fff"/>
      <g opacity="0.65">
        <path d="M260.344,75.279v34.659h-70.1V75.279h70.1m.15-.15h-70.4v34.959h70.4V75.129Z" fill="#505050"/>
      </g>
    </g>
    <g>
      <line x1="148.753" y1="92.608" x2="184.712" y2="92.608" fill="none" stroke="#3c3c41" stroke-miterlimit="10"/>
      <polygon points="183.618 96.348 190.094 92.608 183.618 88.869 183.618 96.348" fill="#3c3c41"/>
    </g>
    <g>
      <line x1="259.753" y1="92.608" x2="295.712" y2="92.608" fill="none" stroke="#3c3c41" stroke-miterlimit="10"/>
      <polygon points="294.618 96.348 301.094 92.608 294.618 88.869 294.618 96.348" fill="#3c3c41"/>
    </g>
    <g>
      <rect x="301.494" y="75.129" width="88" height="34.959" fill="#fff"/>
      <g opacity="0.65">
        <path d="M389.344,75.279v34.659h-87.7V75.279h87.7m.15-.15h-88v34.959h88V75.129Z" fill="#505050"/>
      </g>
    </g>
    <g>
      <line x1="389.494" y1="92.608" x2="416.912" y2="92.608" fill="none" stroke="#3c3c41" stroke-miterlimit="10"/>
      <polygon points="415.818 96.348 422.294 92.608 415.818 88.869 415.818 96.348" fill="#3c3c41"/>
    </g>
    <g>
      <path d="M448.649,92.425a5.014,5.014,0,0,0-4.333-4.753,6.3,6.3,0,0,0-6.481-6.061,6.459,6.459,0,0,0-6.172,4.21,5.95,5.95,0,0,0-5.234,5.727,6.049,6.049,0,0,0,6.259,5.814h10.678a.946.946,0,0,0,.271,0A5.049,5.049,0,0,0,448.649,92.425Z" fill="url(#linear-gradient-6)"/>
      <rect x="437.021" y="91.943" width="0.963" height="7.641" fill="#b3b3b3"/>
      <circle cx="437.502" cy="89.635" r="2.568" fill="#f2f2f2"/>
      <rect x="435.169" y="98.942" width="4.666" height="4.666" rx="0.901" fill="url(#linear-gradient-7)"/>
    </g>
  </g>
  <g id="Text">
    <g>
      <path d="M105.641,90.642H104.47l-1.407-2.356a5.092,5.092,0,0,0-.375-.559,2.088,2.088,0,0,0-.372-.378,1.278,1.278,0,0,0-.41-.214,1.678,1.678,0,0,0-.5-.068H100.6v3.575h-.984v-8.4h2.508a3.561,3.561,0,0,1,1.016.138,2.272,2.272,0,0,1,.809.419,1.951,1.951,0,0,1,.536.7,2.322,2.322,0,0,1,.193.982,2.356,2.356,0,0,1-.131.805,2.12,2.12,0,0,1-.375.654,2.292,2.292,0,0,1-.586.489,2.987,2.987,0,0,1-.771.313v.024a1.729,1.729,0,0,1,.366.214,1.921,1.921,0,0,1,.3.284,3.676,3.676,0,0,1,.279.372c.091.139.194.3.307.483ZM100.6,83.13v3.047h1.336a2.034,2.034,0,0,0,.683-.111,1.586,1.586,0,0,0,.542-.32,1.44,1.44,0,0,0,.357-.51,1.7,1.7,0,0,0,.129-.676,1.316,1.316,0,0,0-.436-1.052,1.875,1.875,0,0,0-1.263-.378Z" fill="#1e1e1e"/>
      <path d="M111.225,83.13H108.8v7.512h-.985V83.13H105.4v-.891h5.83Z" fill="#1e1e1e"/>
      <path d="M111.917,90.3v-1.16a2.284,2.284,0,0,0,.477.316,3.819,3.819,0,0,0,.586.237,4.556,4.556,0,0,0,.618.15,3.472,3.472,0,0,0,.575.053,2.253,2.253,0,0,0,1.356-.337,1.266,1.266,0,0,0,.3-1.562,1.69,1.69,0,0,0-.413-.46,4.1,4.1,0,0,0-.624-.4q-.36-.191-.777-.4-.439-.222-.82-.451a3.535,3.535,0,0,1-.662-.5,2.087,2.087,0,0,1-.442-.624,2.131,2.131,0,0,1,.09-1.816,2.154,2.154,0,0,1,.663-.7,3,3,0,0,1,.934-.411,4.319,4.319,0,0,1,1.069-.134,4.086,4.086,0,0,1,1.811.3v1.107a3.28,3.28,0,0,0-1.91-.516,3.141,3.141,0,0,0-.645.068,1.833,1.833,0,0,0-.574.219,1.274,1.274,0,0,0-.41.393,1.036,1.036,0,0,0-.158.586,1.211,1.211,0,0,0,.12.557,1.366,1.366,0,0,0,.354.427,3.543,3.543,0,0,0,.572.375q.336.181.776.4t.855.469a3.893,3.893,0,0,1,.709.544,2.406,2.406,0,0,1,.484.663,1.861,1.861,0,0,1,.179.832,2.1,2.1,0,0,1-.244,1.051,1.994,1.994,0,0,1-.656.7,2.877,2.877,0,0,1-.952.389,5.216,5.216,0,0,1-1.137.12,4.481,4.481,0,0,1-.492-.032c-.2-.021-.394-.053-.6-.094a4.81,4.81,0,0,1-.577-.152A1.822,1.822,0,0,1,111.917,90.3Z" fill="#1e1e1e"/>
      <path d="M119.669,87.466v3.176h-.985v-8.4h2.309a3.046,3.046,0,0,1,2.089.657,2.341,2.341,0,0,1,.741,1.851A2.546,2.546,0,0,1,123,86.7a3.145,3.145,0,0,1-2.224.762Zm0-4.336v3.445H120.7a2.3,2.3,0,0,0,1.556-.466,1.649,1.649,0,0,0,.536-1.315q0-1.663-1.969-1.664Z" fill="#1e1e1e"/>
      <path d="M96.211,103.625v-1.031a2.839,2.839,0,0,0,1.728.58q1.266,0,1.266-.844a.725.725,0,0,0-.109-.407,1.079,1.079,0,0,0-.292-.3,2.264,2.264,0,0,0-.434-.231q-.249-.1-.536-.214a6.83,6.83,0,0,1-.7-.32,2.066,2.066,0,0,1-.5-.363,1.345,1.345,0,0,1-.3-.46,1.634,1.634,0,0,1-.1-.6,1.429,1.429,0,0,1,.194-.747,1.716,1.716,0,0,1,.515-.545,2.386,2.386,0,0,1,.736-.331,3.223,3.223,0,0,1,.852-.112,3.437,3.437,0,0,1,1.395.27v.972a2.719,2.719,0,0,0-1.524-.433,1.786,1.786,0,0,0-.486.061,1.206,1.206,0,0,0-.372.173.791.791,0,0,0-.24.267.7.7,0,0,0-.085.343.815.815,0,0,0,.085.392.844.844,0,0,0,.249.281,1.88,1.88,0,0,0,.4.223c.157.066.334.139.533.217a7.36,7.36,0,0,1,.715.313,2.453,2.453,0,0,1,.539.364,1.408,1.408,0,0,1,.343.465,1.505,1.505,0,0,1,.12.627,1.479,1.479,0,0,1-.2.774,1.693,1.693,0,0,1-.524.545,2.411,2.411,0,0,1-.756.322,3.748,3.748,0,0,1-.9.106A3.406,3.406,0,0,1,96.211,103.625Z" fill="#1e1e1e"/>
      <path d="M104.174,103.983a2.784,2.784,0,0,1-2.124-.841,3.113,3.113,0,0,1-.794-2.23,3.242,3.242,0,0,1,.826-2.361,2.968,2.968,0,0,1,2.232-.85,2.694,2.694,0,0,1,2.1.826,3.277,3.277,0,0,1,.753,2.291,3.224,3.224,0,0,1-.812,2.3A2.843,2.843,0,0,1,104.174,103.983Zm.07-5.473a1.828,1.828,0,0,0-1.465.63,2.589,2.589,0,0,0-.539,1.737,2.449,2.449,0,0,0,.545,1.682,1.852,1.852,0,0,0,1.459.615,1.756,1.756,0,0,0,1.433-.6,2.616,2.616,0,0,0,.5-1.716,2.665,2.665,0,0,0-.5-1.735A1.75,1.75,0,0,0,104.244,98.51Z" fill="#1e1e1e"/>
      <path d="M113.549,103.842h-.961v-.949h-.024a1.973,1.973,0,0,1-1.851,1.09q-2.145,0-2.145-2.555V97.842h.955v3.433q0,1.9,1.453,1.9a1.471,1.471,0,0,0,1.158-.519,1.985,1.985,0,0,0,.454-1.356V97.842h.961Z" fill="#1e1e1e"/>
      <path d="M118.617,98.815a1.175,1.175,0,0,0-.727-.194,1.227,1.227,0,0,0-1.028.58,2.685,2.685,0,0,0-.413,1.582v3.059h-.961v-6h.961v1.236h.023a2.1,2.1,0,0,1,.627-.987,1.434,1.434,0,0,1,.944-.355,1.583,1.583,0,0,1,.574.082Z" fill="#1e1e1e"/>
      <path d="M123.75,103.566a3.118,3.118,0,0,1-1.641.417,2.718,2.718,0,0,1-2.071-.835,3.025,3.025,0,0,1-.788-2.165A3.326,3.326,0,0,1,120.1,98.6a2.973,2.973,0,0,1,2.268-.9,3.166,3.166,0,0,1,1.395.293v.985a2.442,2.442,0,0,0-1.43-.469,1.935,1.935,0,0,0-1.509.659,2.5,2.5,0,0,0-.589,1.731,2.385,2.385,0,0,0,.554,1.665,1.908,1.908,0,0,0,1.485.609,2.407,2.407,0,0,0,1.477-.522Z" fill="#1e1e1e"/>
      <path d="M130.025,101.082h-4.236a2.24,2.24,0,0,0,.539,1.547,1.859,1.859,0,0,0,1.418.545,2.948,2.948,0,0,0,1.863-.668v.9a3.479,3.479,0,0,1-2.092.575,2.538,2.538,0,0,1-2-.818,3.347,3.347,0,0,1-.726-2.3,3.278,3.278,0,0,1,.794-2.282,2.544,2.544,0,0,1,1.971-.882,2.256,2.256,0,0,1,1.823.762,3.18,3.18,0,0,1,.644,2.115Zm-.984-.814a1.953,1.953,0,0,0-.4-1.3,1.364,1.364,0,0,0-1.1-.463,1.552,1.552,0,0,0-1.154.486,2.2,2.2,0,0,0-.586,1.272Z" fill="#1e1e1e"/>
    </g>
    <g>
      <path d="M79.33,15.505H77.438V7.1H79.33Z" fill="#1e1e1e"/>
      <path d="M83.918,15.652a3.222,3.222,0,0,1-2.358-.841,3.048,3.048,0,0,1-.859-2.282,3.047,3.047,0,0,1,.891-2.329A3.364,3.364,0,0,1,84,9.359a3.185,3.185,0,0,1,2.344.841,2.99,2.99,0,0,1,.85,2.223,3.173,3.173,0,0,1-.876,2.362A3.262,3.262,0,0,1,83.918,15.652Zm.047-4.875a1.234,1.234,0,0,0-1.019.451,1.986,1.986,0,0,0-.364,1.277q0,1.729,1.4,1.729,1.331,0,1.33-1.775Q85.307,10.776,83.965,10.777Z" fill="#1e1e1e"/>
      <path d="M94.477,8.644h-2.4v6.861h-1.9V8.644H87.8V7.1h6.68Z" fill="#1e1e1e"/>
      <path d="M103.957,15.505H98.918V7.1h4.846V8.644h-2.953v1.869h2.748v1.535h-2.748V13.97h3.146Z" fill="#1e1e1e"/>
      <path d="M110.994,15.505h-1.851v-.826h-.024a2.074,2.074,0,0,1-1.857.973,2.277,2.277,0,0,1-1.811-.794,3.287,3.287,0,0,1-.685-2.218,3.578,3.578,0,0,1,.756-2.385,2.467,2.467,0,0,1,1.98-.9,1.683,1.683,0,0,1,1.617.832h.024V6.623h1.851Zm-1.816-2.918v-.451a1.416,1.416,0,0,0-.34-.972,1.2,1.2,0,0,0-1.846.1,2.25,2.25,0,0,0-.345,1.327,1.939,1.939,0,0,0,.334,1.219,1.186,1.186,0,0,0,1.843-.023A1.883,1.883,0,0,0,109.178,12.587Z" fill="#1e1e1e"/>
      <path d="M118.436,14.82a3.4,3.4,0,0,1-.967,2.587,3.919,3.919,0,0,1-2.8.917,4.435,4.435,0,0,1-1.922-.346V16.42a3.689,3.689,0,0,0,1.87.539,2.01,2.01,0,0,0,1.453-.5,1.778,1.778,0,0,0,.515-1.344v-.475h-.023a2.068,2.068,0,0,1-1.869,1.008,2.251,2.251,0,0,1-1.823-.809,3.279,3.279,0,0,1-.673-2.168,3.654,3.654,0,0,1,.75-2.42,2.449,2.449,0,0,1,1.974-.9,1.821,1.821,0,0,1,1.641.844h.023v-.7h1.852Zm-1.828-2.2v-.475a1.463,1.463,0,0,0-.337-.97,1.092,1.092,0,0,0-.876-.4,1.133,1.133,0,0,0-.967.48,2.265,2.265,0,0,0-.352,1.354,1.91,1.91,0,0,0,.334,1.186,1.091,1.091,0,0,0,.915.437,1.132,1.132,0,0,0,.928-.442A1.811,1.811,0,0,0,116.608,12.623Z" fill="#1e1e1e"/>
      <path d="M125.373,13.033h-3.914q.095,1.307,1.647,1.306a3.218,3.218,0,0,0,1.74-.468v1.336a4.582,4.582,0,0,1-2.162.445,3.044,3.044,0,0,1-2.256-.806,3.044,3.044,0,0,1-.8-2.247,3.211,3.211,0,0,1,.867-2.367,2.892,2.892,0,0,1,2.133-.873,2.626,2.626,0,0,1,2.031.779,3,3,0,0,1,.717,2.115ZM123.657,11.9q0-1.288-1.043-1.289a1,1,0,0,0-.771.369,1.668,1.668,0,0,0-.4.92Z" fill="#1e1e1e"/>
      <path d="M135.657,15.505h-1.852v-.826h-.023a2.076,2.076,0,0,1-1.858.973,2.275,2.275,0,0,1-1.81-.794,3.287,3.287,0,0,1-.686-2.218,3.578,3.578,0,0,1,.756-2.385,2.467,2.467,0,0,1,1.98-.9,1.685,1.685,0,0,1,1.618.832h.023V6.623h1.852Zm-1.817-2.918v-.451a1.416,1.416,0,0,0-.34-.972,1.2,1.2,0,0,0-1.845.1,2.243,2.243,0,0,0-.346,1.327,1.939,1.939,0,0,0,.334,1.219,1.186,1.186,0,0,0,1.843-.023A1.883,1.883,0,0,0,133.84,12.587Z" fill="#1e1e1e"/>
      <path d="M142.606,13.033h-3.914q.093,1.307,1.646,1.306a3.218,3.218,0,0,0,1.74-.468v1.336a4.579,4.579,0,0,1-2.162.445,3.047,3.047,0,0,1-2.256-.806,3.044,3.044,0,0,1-.8-2.247,3.211,3.211,0,0,1,.867-2.367,2.889,2.889,0,0,1,2.133-.873,2.624,2.624,0,0,1,2.03.779,3,3,0,0,1,.718,2.115ZM140.889,11.9q0-1.288-1.043-1.289a1,1,0,0,0-.771.369,1.682,1.682,0,0,0-.395.92Z" fill="#1e1e1e"/>
      <path d="M149.42,9.505l-2.232,6h-2.11l-2.127-6h1.981l1.043,3.7a5.444,5.444,0,0,1,.205,1.066h.023a6.14,6.14,0,0,1,.217-1.031l1.067-3.733Z" fill="#1e1e1e"/>
      <path d="M151.149,8.556a1.083,1.083,0,0,1-.768-.278.9.9,0,0,1-.3-.683.864.864,0,0,1,.3-.679,1.252,1.252,0,0,1,1.538,0,.864.864,0,0,1,.3.679.891.891,0,0,1-.3.692A1.1,1.1,0,0,1,151.149,8.556Zm.914,6.949h-1.852v-6h1.852Z" fill="#1e1e1e"/>
      <path d="M158.168,15.289a3.661,3.661,0,0,1-1.81.363,3.063,3.063,0,0,1-2.239-.838,2.9,2.9,0,0,1-.855-2.162,3.188,3.188,0,0,1,.917-2.411,3.388,3.388,0,0,1,2.452-.882,3.151,3.151,0,0,1,1.535.281v1.571a2.1,2.1,0,0,0-1.3-.434,1.7,1.7,0,0,0-1.262.466,1.735,1.735,0,0,0-.466,1.286,1.71,1.71,0,0,0,.445,1.251,1.636,1.636,0,0,0,1.225.454,2.442,2.442,0,0,0,1.353-.434Z" fill="#1e1e1e"/>
      <path d="M164.772,13.033h-3.914q.093,1.307,1.646,1.306a3.218,3.218,0,0,0,1.74-.468v1.336a4.579,4.579,0,0,1-2.162.445,3.047,3.047,0,0,1-2.256-.806,3.044,3.044,0,0,1-.8-2.247,3.211,3.211,0,0,1,.867-2.367,2.889,2.889,0,0,1,2.133-.873,2.624,2.624,0,0,1,2.03.779,3,3,0,0,1,.718,2.115ZM163.055,11.9q0-1.288-1.043-1.289a.994.994,0,0,0-.77.369,1.676,1.676,0,0,0-.4.92Z" fill="#1e1e1e"/>
    </g>
    <g>
      <path d="M110.1,42.411h-1.869V37.384q0-.814.07-1.8h-.047a8.736,8.736,0,0,1-.263,1.113l-1.969,5.713h-1.547l-2-5.654a10.84,10.84,0,0,1-.264-1.172h-.052q.075,1.242.076,2.18v4.646h-1.7v-8.4h2.771l1.717,4.98a7.04,7.04,0,0,1,.3,1.2h.035a11.956,11.956,0,0,1,.334-1.213l1.717-4.969h2.7Z" fill="#1e1e1e"/>
      <path d="M117.216,39.939H113.3q.094,1.307,1.647,1.306a3.21,3.21,0,0,0,1.74-.469v1.336a4.572,4.572,0,0,1-2.162.446,2.793,2.793,0,0,1-3.059-3.053,3.211,3.211,0,0,1,.867-2.367,2.889,2.889,0,0,1,2.133-.873,2.619,2.619,0,0,1,2.03.779,3,3,0,0,1,.718,2.115ZM115.5,38.8q0-1.29-1.043-1.289a1,1,0,0,0-.77.369,1.676,1.676,0,0,0-.4.92Z" fill="#1e1e1e"/>
      <path d="M124.189,42.411h-1.852v-.826h-.023a2.078,2.078,0,0,1-1.858.973,2.275,2.275,0,0,1-1.81-.794,3.289,3.289,0,0,1-.686-2.218,3.578,3.578,0,0,1,.756-2.385,2.467,2.467,0,0,1,1.981-.9,1.685,1.685,0,0,1,1.617.832h.023V33.528h1.852Zm-1.817-2.918v-.451a1.422,1.422,0,0,0-.339-.973,1.2,1.2,0,0,0-1.846.1,2.241,2.241,0,0,0-.346,1.327,1.939,1.939,0,0,0,.334,1.219,1.186,1.186,0,0,0,1.843-.023A1.885,1.885,0,0,0,122.372,39.493Z" fill="#1e1e1e"/>
      <path d="M126.685,35.462a1.085,1.085,0,0,1-.768-.278.9.9,0,0,1-.3-.683.867.867,0,0,1,.3-.68,1.256,1.256,0,0,1,1.538,0,.868.868,0,0,1,.3.68.889.889,0,0,1-.3.691A1.1,1.1,0,0,1,126.685,35.462Zm.914,6.949h-1.852v-6H127.6Z" fill="#1e1e1e"/>
      <path d="M134.15,42.411H132.4V41.55h-.024a1.955,1.955,0,0,1-1.787,1.008,1.87,1.87,0,0,1-1.374-.495,1.775,1.775,0,0,1-.5-1.322q0-1.746,2.069-2.015l1.628-.217q0-.984-1.066-.985a3.639,3.639,0,0,0-2.039.639V36.769a4.592,4.592,0,0,1,1.058-.352,5.585,5.585,0,0,1,1.221-.152,2.266,2.266,0,0,1,2.567,2.56Zm-1.741-2.437v-.4l-1.089.141q-.9.117-.9.814a.676.676,0,0,0,.22.519.843.843,0,0,0,.595.2,1.1,1.1,0,0,0,.849-.36A1.3,1.3,0,0,0,132.409,39.974Z" fill="#1e1e1e"/>
      <path d="M146,41.849a6.052,6.052,0,0,1-3.058.709,4.426,4.426,0,0,1-3.2-1.122,4.084,4.084,0,0,1-1.169-3.091,4.314,4.314,0,0,1,1.278-3.229,4.652,4.652,0,0,1,3.4-1.248,6.908,6.908,0,0,1,2.356.369v1.776a4.685,4.685,0,0,0-2.379-.563,2.553,2.553,0,0,0-1.919.765,3.264,3.264,0,0,0-.076,4.046,2.346,2.346,0,0,0,1.8.709,2.5,2.5,0,0,0,1.078-.194v-1.64h-1.682V37.624H146Z" fill="#1e1e1e"/>
      <path d="M151.37,38.081a1.6,1.6,0,0,0-.779-.182,1.122,1.122,0,0,0-.943.443,1.927,1.927,0,0,0-.34,1.2v2.865h-1.852v-6h1.852v1.113h.023a1.6,1.6,0,0,1,1.582-1.218,1.187,1.187,0,0,1,.457.07Z" fill="#1e1e1e"/>
      <path d="M157.224,42.411h-1.752V41.55h-.023a1.957,1.957,0,0,1-1.788,1.008,1.87,1.87,0,0,1-1.374-.495,1.775,1.775,0,0,1-.5-1.322q0-1.746,2.069-2.015l1.629-.217q0-.984-1.067-.985a3.639,3.639,0,0,0-2.039.639V36.769a4.609,4.609,0,0,1,1.058-.352,5.587,5.587,0,0,1,1.222-.152,2.266,2.266,0,0,1,2.566,2.56Zm-1.74-2.437v-.4l-1.09.141q-.9.117-.9.814a.675.675,0,0,0,.219.519.845.845,0,0,0,.595.2,1.1,1.1,0,0,0,.85-.36A1.3,1.3,0,0,0,155.484,39.974Z" fill="#1e1e1e"/>
      <path d="M160.564,41.714h-.024v3.457h-1.851v-8.76h1.851v.9h.024a2.355,2.355,0,0,1,3.729-.249,3.4,3.4,0,0,1,.636,2.176,3.691,3.691,0,0,1-.741,2.408,2.417,2.417,0,0,1-1.972.909A1.869,1.869,0,0,1,160.564,41.714Zm-.053-2.461v.48a1.526,1.526,0,0,0,.328,1.014,1.068,1.068,0,0,0,.861.393,1.134,1.134,0,0,0,.982-.49,2.364,2.364,0,0,0,.349-1.385q0-1.582-1.231-1.582a1.157,1.157,0,0,0-.929.43A1.719,1.719,0,0,0,160.511,39.253Z" fill="#1e1e1e"/>
      <path d="M171.89,42.411h-1.846V39q0-1.318-.961-1.318a.985.985,0,0,0-.8.369,1.422,1.422,0,0,0-.3.937v3.422H166.13V33.528h1.852V37.3h.023a2.1,2.1,0,0,1,1.846-1.037q2.038,0,2.039,2.461Z" fill="#1e1e1e"/>
    </g>
    <g>
      <path d="M415.784,61.477h-1.893v-8.4h1.893Z" fill="#1e1e1e"/>
      <path d="M420.372,61.624a3.23,3.23,0,0,1-2.359-.841,3.478,3.478,0,0,1,.033-4.612,3.365,3.365,0,0,1,2.408-.84,3.19,3.19,0,0,1,2.344.84,2.991,2.991,0,0,1,.849,2.224,3.172,3.172,0,0,1-.876,2.361A3.258,3.258,0,0,1,420.372,61.624Zm.047-4.875a1.234,1.234,0,0,0-1.02.451,1.99,1.99,0,0,0-.363,1.277q0,1.728,1.394,1.729,1.33,0,1.331-1.776Q421.761,56.748,420.419,56.749Z" fill="#1e1e1e"/>
      <path d="M430.93,54.616h-2.4v6.861h-1.9V54.616h-2.385V53.075h6.679Z" fill="#1e1e1e"/>
      <path d="M440.411,61.477h-5.039v-8.4h4.846v1.541h-2.954v1.869h2.748V58.02h-2.748v1.922h3.147Z" fill="#1e1e1e"/>
      <path d="M447.448,61.477H445.6v-.826h-.023a2.077,2.077,0,0,1-1.857.973,2.277,2.277,0,0,1-1.811-.794,3.289,3.289,0,0,1-.685-2.218,3.578,3.578,0,0,1,.755-2.385,2.464,2.464,0,0,1,1.981-.9,1.685,1.685,0,0,1,1.617.832h.023V52.594h1.852Zm-1.816-2.918v-.451a1.423,1.423,0,0,0-.34-.973,1.2,1.2,0,0,0-1.846.1,2.248,2.248,0,0,0-.346,1.327,1.946,1.946,0,0,0,.334,1.219,1.185,1.185,0,0,0,1.843-.024A1.88,1.88,0,0,0,445.632,58.559Z" fill="#1e1e1e"/>
      <path d="M454.889,60.792a3.394,3.394,0,0,1-.966,2.586,3.916,3.916,0,0,1-2.8.917,4.448,4.448,0,0,1-1.922-.345V62.391a3.673,3.673,0,0,0,1.869.539,2.012,2.012,0,0,0,1.453-.495,1.776,1.776,0,0,0,.516-1.345v-.474h-.024a2.066,2.066,0,0,1-1.869,1.008,2.249,2.249,0,0,1-1.822-.809,3.281,3.281,0,0,1-.674-2.168,3.652,3.652,0,0,1,.75-2.42,2.447,2.447,0,0,1,1.975-.9,1.822,1.822,0,0,1,1.64.843h.024v-.7h1.851Zm-1.828-2.2V58.12a1.458,1.458,0,0,0-.337-.97,1.087,1.087,0,0,0-.876-.4,1.131,1.131,0,0,0-.966.48,2.256,2.256,0,0,0-.352,1.354,1.9,1.9,0,0,0,.334,1.186,1.089,1.089,0,0,0,.914.437,1.133,1.133,0,0,0,.929-.443A1.815,1.815,0,0,0,453.061,58.594Z" fill="#1e1e1e"/>
      <path d="M461.827,59h-3.914q.093,1.308,1.646,1.307a3.211,3.211,0,0,0,1.741-.469v1.336a4.574,4.574,0,0,1-2.163.446,2.793,2.793,0,0,1-3.058-3.053,3.211,3.211,0,0,1,.867-2.367,2.889,2.889,0,0,1,2.133-.873,2.619,2.619,0,0,1,2.03.779,3,3,0,0,1,.718,2.115Zm-1.717-1.136q0-1.29-1.043-1.289a.994.994,0,0,0-.77.369,1.676,1.676,0,0,0-.4.92Z" fill="#1e1e1e"/>
      <path d="M433.825,74.677h-1.9V71.255h-3.481v3.422h-1.892v-8.4h1.892v3.352h3.481V66.275h1.9Z" fill="#1e1e1e"/>
      <path d="M441.266,74.677h-1.845v-.914h-.03a2.094,2.094,0,0,1-1.834,1.061q-2.085,0-2.086-2.526V68.677h1.846v3.457q0,1.272,1.008,1.272a1,1,0,0,0,.8-.349,1.406,1.406,0,0,0,.3-.946V68.677h1.845Z" fill="#1e1e1e"/>
      <path d="M444.7,73.98h-.023v.7h-1.852V65.8h1.852V69.58h.023a2.195,2.195,0,0,1,1.951-1.049,2.138,2.138,0,0,1,1.787.8,3.435,3.435,0,0,1,.627,2.179,3.726,3.726,0,0,1-.732,2.409,2.387,2.387,0,0,1-1.957.908A1.889,1.889,0,0,1,444.7,73.98Zm-.053-2.531v.615a1.407,1.407,0,0,0,.334.961,1.087,1.087,0,0,0,.856.381,1.134,1.134,0,0,0,.981-.489,2.362,2.362,0,0,0,.349-1.386,1.878,1.878,0,0,0-.32-1.163,1.074,1.074,0,0,0-.911-.419,1.177,1.177,0,0,0-.923.416A1.579,1.579,0,0,0,444.647,71.449Z" fill="#1e1e1e"/>
    </g>
    <g>
      <path d="M215.661,90.642h-.978V85.005q0-.667.082-1.634h-.023a5.262,5.262,0,0,1-.252.814l-2.872,6.457h-.48l-2.865-6.41a5.031,5.031,0,0,1-.252-.861H208q.048.5.047,1.646v5.625H207.1v-8.4h1.3l2.578,5.859a7.572,7.572,0,0,1,.387,1.008h.035q.252-.691.4-1.031l2.631-5.836h1.23Z" fill="#1e1e1e"/>
      <path d="M220.249,90.783a2.784,2.784,0,0,1-2.124-.841,3.117,3.117,0,0,1-.794-2.23,3.245,3.245,0,0,1,.827-2.361,2.968,2.968,0,0,1,2.232-.849,2.692,2.692,0,0,1,2.1.826,3.273,3.273,0,0,1,.753,2.291,3.226,3.226,0,0,1-.812,2.3A2.845,2.845,0,0,1,220.249,90.783Zm.071-5.473a1.826,1.826,0,0,0-1.465.63,2.583,2.583,0,0,0-.539,1.737,2.444,2.444,0,0,0,.545,1.682,1.851,1.851,0,0,0,1.459.615,1.756,1.756,0,0,0,1.432-.6,2.621,2.621,0,0,0,.5-1.717,2.662,2.662,0,0,0-.5-1.734A1.746,1.746,0,0,0,220.32,85.31Z" fill="#1e1e1e"/>
      <path d="M227.556,90.584a1.854,1.854,0,0,1-.9.187q-1.575,0-1.576-1.758V85.462h-1.031v-.82h1.031V83.177l.961-.31v1.775h1.512v.82h-1.512v3.381a1.408,1.408,0,0,0,.2.862.819.819,0,0,0,.68.257,1.01,1.01,0,0,0,.627-.2Z" fill="#1e1e1e"/>
      <path d="M229.331,83.119a.608.608,0,0,1-.439-.176.594.594,0,0,1-.182-.445.615.615,0,0,1,.621-.627.622.622,0,0,1,.449.178.6.6,0,0,1,.184.449.592.592,0,0,1-.184.439A.617.617,0,0,1,229.331,83.119Zm.469,7.523h-.961v-6h.961Z" fill="#1e1e1e"/>
      <path d="M234.253,90.783a2.782,2.782,0,0,1-2.124-.841,3.117,3.117,0,0,1-.794-2.23,3.249,3.249,0,0,1,.826-2.361,2.972,2.972,0,0,1,2.233-.849,2.692,2.692,0,0,1,2.095.826,3.273,3.273,0,0,1,.753,2.291,3.226,3.226,0,0,1-.812,2.3A2.845,2.845,0,0,1,234.253,90.783Zm.071-5.473a1.826,1.826,0,0,0-1.465.63,2.583,2.583,0,0,0-.539,1.737,2.444,2.444,0,0,0,.545,1.682,1.851,1.851,0,0,0,1.459.615,1.756,1.756,0,0,0,1.432-.6,2.621,2.621,0,0,0,.5-1.717,2.662,2.662,0,0,0-.5-1.734A1.746,1.746,0,0,0,234.324,85.31Z" fill="#1e1e1e"/>
      <path d="M243.757,90.642H242.8V87.22q0-1.909-1.394-1.91a1.515,1.515,0,0,0-1.193.542,2.011,2.011,0,0,0-.471,1.368v3.422h-.961v-6h.961v1h.023A2.164,2.164,0,0,1,241.73,84.5a1.836,1.836,0,0,1,1.506.635,2.836,2.836,0,0,1,.521,1.837Z" fill="#1e1e1e"/>
      <path d="M206.377,103.842h-.961v-1.019h-.023a2.421,2.421,0,0,1-3.87.354,3.3,3.3,0,0,1-.677-2.194,3.6,3.6,0,0,1,.75-2.385,2.475,2.475,0,0,1,2-.9,1.924,1.924,0,0,1,1.8.972h.023V94.96h.961Zm-.961-2.713v-.884a1.718,1.718,0,0,0-.48-1.231,1.612,1.612,0,0,0-1.219-.5,1.659,1.659,0,0,0-1.383.645,2.823,2.823,0,0,0-.5,1.781,2.543,2.543,0,0,0,.484,1.638,1.58,1.58,0,0,0,1.3.6,1.639,1.639,0,0,0,1.3-.58A2.16,2.16,0,0,0,205.416,101.129Z" fill="#1e1e1e"/>
      <path d="M213.145,101.083h-4.237a2.242,2.242,0,0,0,.54,1.546,1.854,1.854,0,0,0,1.418.545,2.946,2.946,0,0,0,1.863-.668v.9a3.483,3.483,0,0,1-2.092.574,2.534,2.534,0,0,1-2-.817,3.349,3.349,0,0,1-.727-2.3,3.279,3.279,0,0,1,.794-2.282,2.547,2.547,0,0,1,1.972-.882,2.256,2.256,0,0,1,1.822.761,3.176,3.176,0,0,1,.645,2.116Zm-.985-.815a1.949,1.949,0,0,0-.4-1.3,1.37,1.37,0,0,0-1.1-.463,1.55,1.55,0,0,0-1.154.487,2.207,2.207,0,0,0-.586,1.271Z" fill="#1e1e1e"/>
      <path d="M217.381,103.784a1.85,1.85,0,0,1-.9.187q-1.577,0-1.577-1.758v-3.55h-1.031v-.821h1.031V96.378l.961-.311v1.775h1.512v.821h-1.512v3.381a1.4,1.4,0,0,0,.206.861.816.816,0,0,0,.679.258,1.011,1.011,0,0,0,.627-.2Z" fill="#1e1e1e"/>
      <path d="M223.487,101.083H219.25a2.247,2.247,0,0,0,.539,1.546,1.857,1.857,0,0,0,1.418.545,2.947,2.947,0,0,0,1.864-.668v.9a3.483,3.483,0,0,1-2.092.574,2.534,2.534,0,0,1-2-.817,3.344,3.344,0,0,1-.727-2.3,3.279,3.279,0,0,1,.794-2.282,2.546,2.546,0,0,1,1.972-.882,2.258,2.258,0,0,1,1.822.761,3.176,3.176,0,0,1,.645,2.116Zm-.985-.815a1.954,1.954,0,0,0-.4-1.3,1.37,1.37,0,0,0-1.1-.463,1.549,1.549,0,0,0-1.154.487,2.207,2.207,0,0,0-.586,1.271Z" fill="#1e1e1e"/>
      <path d="M229.03,103.567a3.127,3.127,0,0,1-1.641.416,2.713,2.713,0,0,1-2.071-.835,3.023,3.023,0,0,1-.788-2.165,3.329,3.329,0,0,1,.849-2.382,2.975,2.975,0,0,1,2.268-.9,3.145,3.145,0,0,1,1.394.293v.984a2.446,2.446,0,0,0-1.429-.469,1.93,1.93,0,0,0-1.509.66,2.5,2.5,0,0,0-.589,1.731,2.382,2.382,0,0,0,.554,1.664,1.908,1.908,0,0,0,1.485.609,2.408,2.408,0,0,0,1.477-.521Z" fill="#1e1e1e"/>
      <path d="M233.266,103.784a1.854,1.854,0,0,1-.9.187q-1.575,0-1.576-1.758v-3.55h-1.031v-.821h1.031V96.378l.961-.311v1.775h1.512v.821h-1.512v3.381a1.406,1.406,0,0,0,.205.861.82.82,0,0,0,.68.258,1.011,1.011,0,0,0,.627-.2Z" fill="#1e1e1e"/>
      <path d="M235.041,96.319a.608.608,0,0,1-.439-.176.592.592,0,0,1-.182-.445.616.616,0,0,1,.621-.627.619.619,0,0,1,.449.179.626.626,0,0,1,0,.887A.617.617,0,0,1,235.041,96.319Zm.469,7.523h-.961v-6h.961Z" fill="#1e1e1e"/>
      <path d="M239.963,103.983a2.781,2.781,0,0,1-2.124-.841,3.115,3.115,0,0,1-.794-2.229,3.25,3.25,0,0,1,.826-2.362A2.972,2.972,0,0,1,240.1,97.7a2.692,2.692,0,0,1,2.095.826,3.28,3.28,0,0,1,.752,2.291,3.223,3.223,0,0,1-.811,2.3A2.845,2.845,0,0,1,239.963,103.983Zm.07-5.473a1.826,1.826,0,0,0-1.464.63,2.584,2.584,0,0,0-.539,1.738,2.443,2.443,0,0,0,.545,1.681,1.85,1.85,0,0,0,1.458.615,1.757,1.757,0,0,0,1.433-.6,2.619,2.619,0,0,0,.5-1.717,2.662,2.662,0,0,0-.5-1.734A1.747,1.747,0,0,0,240.033,98.51Z" fill="#1e1e1e"/>
      <path d="M249.467,103.842h-.961V100.42q0-1.909-1.394-1.91a1.515,1.515,0,0,0-1.193.542,2.013,2.013,0,0,0-.471,1.368v3.422h-.961v-6h.961v1h.023A2.166,2.166,0,0,1,247.44,97.7a1.839,1.839,0,0,1,1.506.635,2.838,2.838,0,0,1,.521,1.837Z" fill="#1e1e1e"/>
    </g>
    <g>
      <path d="M326.5,90.642h-.985v-8.4h.985Z" fill="#1e1e1e"/>
      <path d="M331.086,90.783a2.781,2.781,0,0,1-2.124-.841,3.113,3.113,0,0,1-.794-2.23,3.245,3.245,0,0,1,.826-2.361,2.971,2.971,0,0,1,2.232-.849,2.69,2.69,0,0,1,2.1.826,3.273,3.273,0,0,1,.753,2.291,3.221,3.221,0,0,1-.812,2.3A2.843,2.843,0,0,1,331.086,90.783Zm.07-5.473a1.829,1.829,0,0,0-1.465.63,2.589,2.589,0,0,0-.539,1.737,2.449,2.449,0,0,0,.545,1.682,1.852,1.852,0,0,0,1.459.615,1.758,1.758,0,0,0,1.433-.6,2.621,2.621,0,0,0,.5-1.717,2.662,2.662,0,0,0-.5-1.734A1.748,1.748,0,0,0,331.156,85.31Z" fill="#1e1e1e"/>
      <path d="M340.707,83.13h-2.426v7.512H337.3V83.13h-2.42v-.89h5.83Z" fill="#1e1e1e"/>
      <path d="M351.629,90.642h-.985V86.81H346.3v3.832h-.985v-8.4h.985v3.685h4.347V82.24h.985Z" fill="#1e1e1e"/>
      <path d="M358.554,90.642h-.96v-.949h-.024a1.972,1.972,0,0,1-1.851,1.09q-2.145,0-2.145-2.555V84.642h.955v3.434q0,1.9,1.453,1.9a1.47,1.47,0,0,0,1.157-.518,1.985,1.985,0,0,0,.455-1.357V84.642h.96Z" fill="#1e1e1e"/>
      <path d="M361.478,89.775h-.023v.867h-.961V81.759h.961V85.7h.023a2.272,2.272,0,0,1,2.075-1.2,2.2,2.2,0,0,1,1.807.805,3.324,3.324,0,0,1,.653,2.159,3.724,3.724,0,0,1-.732,2.412,2.439,2.439,0,0,1-2,.905A1.974,1.974,0,0,1,361.478,89.775Zm-.023-2.42v.838a1.786,1.786,0,0,0,.483,1.263,1.725,1.725,0,0,0,2.6-.15,3.063,3.063,0,0,0,.5-1.857,2.419,2.419,0,0,0-.463-1.571,1.533,1.533,0,0,0-1.254-.568,1.7,1.7,0,0,0-1.347.583A2.141,2.141,0,0,0,361.455,87.355Z" fill="#1e1e1e"/>
      <path d="M319.845,103.842h-.961V100.4a2.6,2.6,0,0,0-.308-1.441,1.167,1.167,0,0,0-1.034-.446,1.281,1.281,0,0,0-1.046.563,2.152,2.152,0,0,0-.431,1.347v3.422H315.1V100.28q0-1.77-1.365-1.77a1.265,1.265,0,0,0-1.043.531,2.192,2.192,0,0,0-.41,1.379v3.422h-.961v-6h.961v.95h.023a2.039,2.039,0,0,1,1.864-1.09,1.734,1.734,0,0,1,1.7,1.242,2.14,2.14,0,0,1,1.992-1.242q1.98,0,1.981,2.443Z" fill="#1e1e1e"/>
      <path d="M326.483,101.083h-4.236a2.237,2.237,0,0,0,.539,1.546,1.856,1.856,0,0,0,1.418.545,2.942,2.942,0,0,0,1.863-.668v.9a3.479,3.479,0,0,1-2.092.574,2.537,2.537,0,0,1-2-.817,3.348,3.348,0,0,1-.726-2.3,3.275,3.275,0,0,1,.794-2.282,2.544,2.544,0,0,1,1.971-.882,2.259,2.259,0,0,1,1.823.761,3.181,3.181,0,0,1,.644,2.116Zm-.984-.815a1.954,1.954,0,0,0-.4-1.3,1.367,1.367,0,0,0-1.1-.463,1.549,1.549,0,0,0-1.154.487,2.2,2.2,0,0,0-.586,1.271Z" fill="#1e1e1e"/>
      <path d="M327.573,103.626v-1.032a2.842,2.842,0,0,0,1.729.58q1.264,0,1.265-.843a.736.736,0,0,0-.108-.408,1.066,1.066,0,0,0-.293-.3,2.236,2.236,0,0,0-.434-.232c-.166-.068-.345-.14-.536-.214a6.838,6.838,0,0,1-.7-.319,2.162,2.162,0,0,1-.5-.363,1.36,1.36,0,0,1-.305-.46,1.636,1.636,0,0,1-.1-.6,1.433,1.433,0,0,1,.193-.747,1.719,1.719,0,0,1,.516-.545,2.415,2.415,0,0,1,.735-.331,3.272,3.272,0,0,1,.853-.111,3.453,3.453,0,0,1,1.394.269v.973a2.717,2.717,0,0,0-1.523-.434,1.787,1.787,0,0,0-.487.062,1.183,1.183,0,0,0-.372.173.808.808,0,0,0-.24.266.7.7,0,0,0-.085.343.822.822,0,0,0,.085.393.877.877,0,0,0,.249.281,1.908,1.908,0,0,0,.4.223q.234.1.533.216a7.461,7.461,0,0,1,.715.314,2.44,2.44,0,0,1,.539.363,1.423,1.423,0,0,1,.342.466,1.489,1.489,0,0,1,.121.627,1.473,1.473,0,0,1-.2.773,1.672,1.672,0,0,1-.524.545,2.413,2.413,0,0,1-.756.323,3.746,3.746,0,0,1-.9.105A3.407,3.407,0,0,1,327.573,103.626Z" fill="#1e1e1e"/>
      <path d="M332.665,103.626v-1.032a2.839,2.839,0,0,0,1.728.58q1.266,0,1.266-.843a.736.736,0,0,0-.108-.408,1.08,1.08,0,0,0-.293-.3,2.236,2.236,0,0,0-.434-.232c-.166-.068-.345-.14-.536-.214a6.838,6.838,0,0,1-.7-.319,2.162,2.162,0,0,1-.5-.363,1.345,1.345,0,0,1-.305-.46,1.636,1.636,0,0,1-.1-.6,1.433,1.433,0,0,1,.193-.747,1.719,1.719,0,0,1,.516-.545,2.4,2.4,0,0,1,.735-.331,3.264,3.264,0,0,1,.852-.111,3.454,3.454,0,0,1,1.395.269v.973a2.717,2.717,0,0,0-1.523-.434,1.787,1.787,0,0,0-.487.062,1.183,1.183,0,0,0-.372.173.808.808,0,0,0-.24.266.7.7,0,0,0-.085.343.822.822,0,0,0,.085.393.877.877,0,0,0,.249.281,1.925,1.925,0,0,0,.4.223c.157.066.334.138.534.216a7.437,7.437,0,0,1,.714.314,2.416,2.416,0,0,1,.539.363,1.412,1.412,0,0,1,.343.466,1.505,1.505,0,0,1,.12.627,1.473,1.473,0,0,1-.2.773,1.683,1.683,0,0,1-.524.545,2.413,2.413,0,0,1-.756.323,3.748,3.748,0,0,1-.9.105A3.406,3.406,0,0,1,332.665,103.626Z" fill="#1e1e1e"/>
      <path d="M342.415,103.842h-.961v-.937h-.024a2.011,2.011,0,0,1-1.845,1.078,1.971,1.971,0,0,1-1.4-.475,1.645,1.645,0,0,1-.506-1.259q0-1.681,1.98-1.957l1.8-.252q0-1.53-1.236-1.53a2.95,2.95,0,0,0-1.957.739v-.985A3.715,3.715,0,0,1,340.3,97.7q2.115,0,2.115,2.238Zm-.961-3.035-1.447.2a2.354,2.354,0,0,0-1.008.331.955.955,0,0,0-.34.841.915.915,0,0,0,.313.718,1.21,1.21,0,0,0,.835.278,1.542,1.542,0,0,0,1.181-.5,1.786,1.786,0,0,0,.466-1.268Z" fill="#1e1e1e"/>
      <path d="M349.346,103.362q0,3.3-3.164,3.305a4.252,4.252,0,0,1-1.945-.422v-.961a3.994,3.994,0,0,0,1.934.562q2.214,0,2.215-2.355v-.656h-.024a2.427,2.427,0,0,1-3.864.348,3.2,3.2,0,0,1-.683-2.147,3.732,3.732,0,0,1,.736-2.432,2.457,2.457,0,0,1,2.012-.9,1.956,1.956,0,0,1,1.8.972h.024v-.832h.96Zm-.96-2.233v-.884a1.719,1.719,0,0,0-.484-1.225,1.59,1.59,0,0,0-1.2-.51,1.666,1.666,0,0,0-1.394.648,2.887,2.887,0,0,0-.5,1.813,2.485,2.485,0,0,0,.483,1.6,1.562,1.562,0,0,0,1.28.6,1.673,1.673,0,0,0,1.316-.574A2.14,2.14,0,0,0,348.386,101.129Z" fill="#1e1e1e"/>
      <path d="M356.114,101.083h-4.236a2.237,2.237,0,0,0,.539,1.546,1.856,1.856,0,0,0,1.418.545,2.942,2.942,0,0,0,1.863-.668v.9a3.481,3.481,0,0,1-2.092.574,2.537,2.537,0,0,1-2-.817,3.348,3.348,0,0,1-.726-2.3,3.275,3.275,0,0,1,.794-2.282,2.544,2.544,0,0,1,1.971-.882,2.26,2.26,0,0,1,1.823.761,3.181,3.181,0,0,1,.644,2.116Zm-.984-.815a1.954,1.954,0,0,0-.4-1.3,1.368,1.368,0,0,0-1.1-.463,1.553,1.553,0,0,0-1.155.487,2.214,2.214,0,0,0-.586,1.271Z" fill="#1e1e1e"/>
      <path d="M360.491,103.626v-1.032a2.842,2.842,0,0,0,1.729.58q1.264,0,1.265-.843a.736.736,0,0,0-.108-.408,1.08,1.08,0,0,0-.293-.3,2.236,2.236,0,0,0-.434-.232c-.166-.068-.345-.14-.536-.214a6.838,6.838,0,0,1-.7-.319,2.162,2.162,0,0,1-.5-.363,1.36,1.36,0,0,1-.305-.46,1.636,1.636,0,0,1-.1-.6,1.433,1.433,0,0,1,.193-.747,1.719,1.719,0,0,1,.516-.545,2.415,2.415,0,0,1,.735-.331,3.272,3.272,0,0,1,.853-.111,3.453,3.453,0,0,1,1.394.269v.973a2.717,2.717,0,0,0-1.523-.434,1.787,1.787,0,0,0-.487.062,1.183,1.183,0,0,0-.372.173.808.808,0,0,0-.24.266.7.7,0,0,0-.085.343.822.822,0,0,0,.085.393.877.877,0,0,0,.249.281,1.908,1.908,0,0,0,.4.223q.234.1.533.216a7.461,7.461,0,0,1,.715.314,2.44,2.44,0,0,1,.539.363,1.423,1.423,0,0,1,.342.466,1.5,1.5,0,0,1,.121.627,1.473,1.473,0,0,1-.2.773,1.672,1.672,0,0,1-.524.545,2.413,2.413,0,0,1-.756.323,3.748,3.748,0,0,1-.9.105A3.406,3.406,0,0,1,360.491,103.626Z" fill="#1e1e1e"/>
      <path d="M366.438,96.319a.608.608,0,0,1-.439-.176.592.592,0,0,1-.182-.445.616.616,0,0,1,.621-.627.62.62,0,0,1,.449.179.626.626,0,0,1,0,.887A.619.619,0,0,1,366.438,96.319Zm.469,7.523h-.961v-6h.961Z" fill="#1e1e1e"/>
      <path d="M373.833,103.842h-.961V100.42q0-1.909-1.4-1.91a1.513,1.513,0,0,0-1.192.542,2.013,2.013,0,0,0-.472,1.368v3.422h-.961v-6h.961v1h.024a2.166,2.166,0,0,1,1.968-1.136,1.836,1.836,0,0,1,1.506.635,2.832,2.832,0,0,1,.522,1.837Z" fill="#1e1e1e"/>
      <path d="M380.624,103.842h-1.348l-2.648-2.882H376.6v2.882h-.961V94.96h.961v5.63h.024l2.519-2.748h1.26l-2.783,2.895Z" fill="#1e1e1e"/>
    </g>
  </g>
</svg>
