<svg xmlns="http://www.w3.org/2000/svg" xmlns:xlink="http://www.w3.org/1999/xlink" viewBox="0 0 400.321 127.85">
  <defs>
    <linearGradient id="linear-gradient" x1="57.786" y1="1.898" x2="57.786" y2="29.898" gradientUnits="userSpaceOnUse">
      <stop offset="0.131" stop-color="#32d4f5"/>
      <stop offset="0.404" stop-color="#28b7db"/>
      <stop offset="1" stop-color="#198ab3"/>
    </linearGradient>
    <linearGradient id="linear-gradient-2" x1="67.089" y1="24.039" x2="67.089" y2="25.295" xlink:href="#linear-gradient"/>
    <linearGradient id="linear-gradient-3" x1="67.089" y1="26.205" x2="67.089" y2="27.461" xlink:href="#linear-gradient"/>
    <linearGradient id="linear-gradient-4" x1="-208.109" y1="1750.644" x2="-186.108" y2="1788.82" gradientTransform="matrix(0.5, 0.866, 0.866, -0.5, -1072.185, 1132.263)" gradientUnits="userSpaceOnUse">
      <stop offset="0" stop-color="#005ba1"/>
      <stop offset="0.366" stop-color="#004e8f"/>
      <stop offset="1" stop-color="#003067"/>
    </linearGradient>
    <linearGradient id="linear-gradient-5" x1="-2381.191" y1="-581.824" x2="-2354.465" y2="-534.956" gradientTransform="matrix(-0.5, -0.866, -0.866, 0.5, -1301.237, -1680.407)" gradientUnits="userSpaceOnUse">
      <stop offset="0" stop-color="#005ba1"/>
      <stop offset="0.451" stop-color="#004685"/>
      <stop offset="1" stop-color="#003067"/>
    </linearGradient>
    <linearGradient id="linear-gradient-6" x1="363.401" y1="217.571" x2="365.205" y2="227.873" gradientTransform="matrix(1, 0, 0, -1, 0, 308.172)" gradientUnits="userSpaceOnUse">
      <stop offset="0.26" stop-color="#50e6ff"/>
      <stop offset="0.42" stop-color="#79eaff"/>
      <stop offset="0.58" stop-color="#99edff"/>
      <stop offset="0.733" stop-color="#b0efff"/>
      <stop offset="0.876" stop-color="#bef1ff"/>
      <stop offset="1" stop-color="#c3f1ff"/>
    </linearGradient>
    <linearGradient id="linear-gradient-7" x1="196.3" y1="46.752" x2="196.3" y2="117.152" gradientUnits="userSpaceOnUse">
      <stop offset="0" stop-color="#5ea0ef"/>
      <stop offset="0.18" stop-color="#559cec"/>
      <stop offset="0.47" stop-color="#3c91e5"/>
      <stop offset="0.84" stop-color="#1380da"/>
      <stop offset="1" stop-color="#0078d4"/>
    </linearGradient>
    <linearGradient id="linear-gradient-8" x1="81.946" y1="278" x2="81.946" y2="251.384" gradientTransform="matrix(1, 0, 0, -1, 0, 308.172)" gradientUnits="userSpaceOnUse">
      <stop offset="0.117" stop-color="#5ea0ef"/>
      <stop offset="0.271" stop-color="#4595e8"/>
      <stop offset="0.531" stop-color="#1f85dd"/>
      <stop offset="0.741" stop-color="#087cd6"/>
      <stop offset="0.873" stop-color="#0078d4"/>
    </linearGradient>
    <linearGradient id="linear-gradient-9" x1="388.5" y1="238.211" x2="388.5" y2="222.222" gradientTransform="matrix(1, 0, 0, -1, 0, 308.172)" gradientUnits="userSpaceOnUse">
      <stop offset="0.18" stop-color="#5ea0ef"/>
      <stop offset="1" stop-color="#0078d4"/>
    </linearGradient>
  </defs>
  <g id="Shapes">
    <rect width="400.321" height="127.85" fill="#fff"/>
    <g>
      <rect x="57.7" y="21.098" width="277.2" height="103.984" fill="#fff"/>
      <rect x="57.7" y="21.098" width="277.2" height="103.984" fill="#198ab3" opacity="0.12"/>
    </g>
    <g>
      <path d="M69.5,21.662H57.52l.281-1.127h7.473A5.617,5.617,0,0,0,67.743,9.869,6.54,6.54,0,0,0,67.889,8.5,6.65,6.65,0,0,0,55.575,5.064a5.051,5.051,0,0,0-7.907,4.108,5.124,5.124,0,0,0,.058.762,5.608,5.608,0,0,0,2.57,10.6h6.881L56.9,21.661H46.073a.908.908,0,0,0-.905.91v6.417a.908.908,0,0,0,.905.91H69.5a.907.907,0,0,0,.9-.91V22.571A.907.907,0,0,0,69.5,21.662ZM50.3,18.989a4.062,4.062,0,0,1-1.415-7.878l.674-.253-.207-.694a3.535,3.535,0,0,1-.142-.992,3.509,3.509,0,0,1,6.05-2.356l.813.863.455-1.1A5.112,5.112,0,0,1,66.351,8.5a5.016,5.016,0,0,1-.26,1.584l-.245.736.734.244a4.043,4.043,0,0,1,2.782,3.849,4.087,4.087,0,0,1-4.088,4.077H58.186l1.063-4.264.051-.305.3-.068a2.363,2.363,0,0,0,.835-.368l.308-.215,2.376,2.3-.062.255a1.474,1.474,0,0,0,.059.88,1.459,1.459,0,0,0,1.368.939,1.43,1.43,0,0,0,.533-.1,1.483,1.483,0,0,0,.834-1.914,1.461,1.461,0,0,0-1.368-.939,1.437,1.437,0,0,0-.535.1.59.59,0,0,0-.06.031c-.023.014-.048.027-.071.04l-.291.15L61.159,13.22l.121-.29a2.4,2.4,0,0,0-2.2-3.316,2.369,2.369,0,0,0-1.642.663l-.257.249-1.572-.985.025-.281a1.461,1.461,0,0,0-1.457-1.6,1.428,1.428,0,0,0-.534.1,1.481,1.481,0,0,0-.833,1.913,1.458,1.458,0,0,0,1.368.938,1.432,1.432,0,0,0,.534-.1,1.486,1.486,0,0,0,.322-.183l.249-.181,1.562.978-.079.324a2.352,2.352,0,0,0-.072.568,2.38,2.38,0,0,0,.12.745l.112.341L54.4,14.7l-.239-.14a1.169,1.169,0,0,0-1.029-.083,1.2,1.2,0,0,0-.673,1.547,1.183,1.183,0,0,0,1.537.676,1.2,1.2,0,0,0,.748-1.143l-.007-.261,2.584-1.633.254.209a2.351,2.351,0,0,0,.735.408l.366.127-.062.378-1.049,4.205Zm18.57,9.364H46.706V23.209h9.8l-.156.623a1.954,1.954,0,1,0,.6.088l.177-.711H68.866Z" fill="url(#linear-gradient)"/>
      <path d="M67.714,24.039H66.465V25.3h1.249Z" fill="url(#linear-gradient-2)"/>
      <path d="M67.714,26.205H66.465v1.256h1.249Z" fill="url(#linear-gradient-3)"/>
    </g>
    <g>
      <g>
        <path d="M367.45,77.453l5.464,3.143,3.809-2.2a10.988,10.988,0,0,0-17.407-2.322A12.52,12.52,0,0,1,367.45,77.453Z" fill="url(#linear-gradient-4)"/>
        <path d="M372.843,80.6l-.086,7.542,3.959,1.063a10.989,10.989,0,0,0-6.552-15.986A13.046,13.046,0,0,1,372.843,80.6Z" fill="#0078d4"/>
        <path d="M372.835,87.1l-5.689,3.287.089,4.374a11,11,0,0,0,10.953-11,10.525,10.525,0,0,0-.36-2.612A11.957,11.957,0,0,1,372.835,87.1Z" fill="#5ea0ef"/>
        <path d="M367.146,90.387,361.453,87.1l-3.774,2.265a10.973,10.973,0,0,0,17.087,2.351A12.386,12.386,0,0,1,367.146,90.387Z" fill="url(#linear-gradient-5)"/>
        <path d="M361.45,87.1l.086-7.795-3.9-1.026a10.934,10.934,0,0,0-1.492,5.514,11.058,11.058,0,0,0,8.167,10.624A12.739,12.739,0,0,1,361.45,87.1Z" fill="#0078d4"/>
        <path d="M361.647,80.419l5.5-3.178a13.222,13.222,0,0,0-7.426-1.556,10.947,10.947,0,0,0-3.572,8.108,11.274,11.274,0,0,0,.392,2.9A12.813,12.813,0,0,1,361.647,80.419Z" fill="#5ea0ef"/>
      </g>
      <polygon points="372.835 87.1 372.835 80.526 367.142 77.241 361.45 80.526 361.45 87.1 367.142 90.387 372.835 87.1" fill="#c3f1ff"/>
      <polygon points="367.15 83.882 367.15 90.387 361.45 87.1 361.45 80.549 367.15 83.882" fill="url(#linear-gradient-6)"/>
      <polygon points="367.142 83.882 367.142 90.387 372.843 87.1 372.843 80.549 367.142 83.882" fill="#50e6ff"/>
    </g>
    <g>
      <rect x="66.5" y="46.752" width="259.6" height="70.4" fill="#fff"/>
      <rect x="66.5" y="46.752" width="259.6" height="70.4" opacity="0.4" fill="url(#linear-gradient-7)"/>
    </g>
    <g>
      <path d="M4.324,92.64l8.888-4.474v-9.06L4.324,75.229Z" fill="#3c3c41" fill-opacity="0.85"/>
      <path d="M15.419,74.677H46.624v18h-31.2Z" fill="#3c3c41" fill-opacity="0.85"/>
    </g>
    <g>
      <rect x="105.942" y="66.198" width="70.059" height="34.959" fill="#fff"/>
      <g opacity="0.65">
        <path d="M175.85,66.348v34.658H106.092V66.348H175.85m.15-.15H105.942v34.958H176V66.2Z" fill="#505050"/>
      </g>
    </g>
    <g>
      <rect x="220.841" y="66.198" width="70.059" height="34.959" fill="#fff"/>
      <g opacity="0.65">
        <path d="M290.75,66.348v34.658H220.991V66.348H290.75m.15-.15H220.841v34.958H290.9V66.2Z" fill="#505050"/>
      </g>
    </g>
    <g>
      <line x1="46.324" y1="83.677" x2="100.218" y2="83.677" fill="none" stroke="#3c3c41" stroke-miterlimit="10"/>
      <polygon points="99.124 87.417 105.6 83.677 99.124 79.937 99.124 87.417" fill="#3c3c41"/>
    </g>
    <g>
      <line x1="176" y1="83.677" x2="215.118" y2="83.677" fill="none" stroke="#3c3c41" stroke-miterlimit="10"/>
      <polygon points="214.023 87.417 220.5 83.677 214.023 79.937 214.023 87.417" fill="#3c3c41"/>
    </g>
    <g>
      <line x1="290.9" y1="83.677" x2="348.568" y2="83.677" fill="none" stroke="#3c3c41" stroke-miterlimit="10"/>
      <polygon points="347.473 87.417 353.95 83.677 347.473 79.937 347.473 87.417" fill="#3c3c41"/>
    </g>
    <g id="a3857c27-3253-4155-b620-22ae9cf301a7">
      <g>
        <path d="M91.4,42.641a8.852,8.852,0,0,0-9.086-8.36A9.111,9.111,0,0,0,73.768,40.1a8.529,8.529,0,0,0-7.268,8,8.382,8.382,0,0,0,8.577,8.183H90.493a6.907,6.907,0,0,0,6.9-6.912A7,7,0,0,0,91.4,42.641Z" fill="url(#linear-gradient-8)"/>
        <g>
          <polygon points="90.16 47.333 82.46 44.472 82.26 44.966 82.386 44.513 75.548 43.008 75.22 44.155 80.99 45.406 73.586 48.466 74.156 49.482 81.8 46.307 83.168 52.331 84.351 52.185 82.957 45.967 89.707 48.435 90.16 47.333" fill="#83b9f9"/>
          <path d="M74.362,44.59a1.512,1.512,0,1,0,.268-2.121h0L74.6,42.5A1.5,1.5,0,0,0,74.362,44.59Zm-1.716,5.35A1.521,1.521,0,1,0,72.9,47.8a1.521,1.521,0,0,0-.257,2.137Zm15.9-1.321a1.505,1.505,0,1,0,.276-2.111l-.007,0h0a1.488,1.488,0,0,0-.278,2.083Z" fill="#9cebff"/>
          <path d="M82.566,53.263a1.505,1.505,0,1,0,.268-2.112h0a1.487,1.487,0,0,0-.29,2.084l0,0Z" fill="#9cebff"/>
        </g>
        <path d="M86.642,45.342a.453.453,0,0,0,0-.786l-3.323-1.922-3.333-1.921a.453.453,0,0,0-.621.155.447.447,0,0,0-.065.238v7.686a.452.452,0,0,0,.686.393l3.333-1.921Z" fill="#c3f1ff"/>
      </g>
    </g>
    <path d="M396.5,79.772a3.644,3.644,0,0,0-3.122-3.533,4.59,4.59,0,0,0-4.678-4.445,4.7,4.7,0,0,0-4.445,3.112,4.322,4.322,0,0,0-3.755,4.222,4.444,4.444,0,0,0,4.511,4.289h7.9A3.689,3.689,0,0,0,396.5,79.772Z" fill="url(#linear-gradient-9)"/>
  </g>
  <g id="Text">
    <g>
      <path d="M79.153,15.246H77.261v-8.4h1.892Z" fill="#1e1e1e"/>
      <path d="M83.741,15.392a3.222,3.222,0,0,1-2.358-.841,3.048,3.048,0,0,1-.859-2.282,3.048,3.048,0,0,1,.891-2.329A3.369,3.369,0,0,1,83.823,9.1a3.189,3.189,0,0,1,2.344.841,2.992,2.992,0,0,1,.85,2.224,3.172,3.172,0,0,1-.876,2.361A3.262,3.262,0,0,1,83.741,15.392Zm.047-4.875a1.236,1.236,0,0,0-1.019.451,1.987,1.987,0,0,0-.364,1.278q0,1.728,1.395,1.728,1.331,0,1.33-1.775Q85.13,10.517,83.788,10.517Z" fill="#1e1e1e"/>
      <path d="M94.3,8.384H91.9v6.862h-1.9V8.384H87.62V6.843H94.3Z" fill="#1e1e1e"/>
      <path d="M103.78,15.246H98.741v-8.4h4.846V8.384h-2.953v1.87h2.748v1.535h-2.748v1.922h3.146Z" fill="#1e1e1e"/>
      <path d="M110.817,15.246h-1.851V14.42h-.024a2.075,2.075,0,0,1-1.857.972,2.274,2.274,0,0,1-1.811-.794,3.285,3.285,0,0,1-.685-2.218A3.574,3.574,0,0,1,105.345,10a2.465,2.465,0,0,1,1.98-.9,1.684,1.684,0,0,1,1.617.832h.024V6.363h1.851ZM109,12.328v-.451a1.418,1.418,0,0,0-.34-.973,1.2,1.2,0,0,0-1.846.1,2.246,2.246,0,0,0-.345,1.327,1.938,1.938,0,0,0,.334,1.218,1.186,1.186,0,0,0,1.843-.023A1.882,1.882,0,0,0,109,12.328Z" fill="#1e1e1e"/>
      <path d="M118.259,14.56a3.393,3.393,0,0,1-.967,2.587,3.919,3.919,0,0,1-2.8.917,4.435,4.435,0,0,1-1.922-.346V16.16a3.689,3.689,0,0,0,1.87.539,2.014,2.014,0,0,0,1.453-.5,1.78,1.78,0,0,0,.515-1.345v-.475h-.023a2.068,2.068,0,0,1-1.869,1.008,2.25,2.25,0,0,1-1.823-.808,3.28,3.28,0,0,1-.673-2.168,3.651,3.651,0,0,1,.75-2.42,2.447,2.447,0,0,1,1.974-.9,1.821,1.821,0,0,1,1.641.844h.023v-.7h1.852Zm-1.828-2.2v-.475a1.458,1.458,0,0,0-.337-.969,1.09,1.09,0,0,0-.876-.4,1.131,1.131,0,0,0-.967.481,2.26,2.26,0,0,0-.352,1.353,1.913,1.913,0,0,0,.334,1.187,1.09,1.09,0,0,0,.915.436,1.132,1.132,0,0,0,.928-.442A1.811,1.811,0,0,0,116.431,12.363Z" fill="#1e1e1e"/>
      <path d="M125.2,12.773h-3.914q.094,1.306,1.647,1.307a3.219,3.219,0,0,0,1.74-.469v1.336a4.57,4.57,0,0,1-2.162.445,3.043,3.043,0,0,1-2.256-.8,3.048,3.048,0,0,1-.8-2.248,3.211,3.211,0,0,1,.867-2.367,2.892,2.892,0,0,1,2.133-.873,2.623,2.623,0,0,1,2.031.78,3,3,0,0,1,.717,2.115Zm-1.716-1.137q0-1.288-1.043-1.289a1,1,0,0,0-.771.369,1.671,1.671,0,0,0-.395.92Z" fill="#1e1e1e"/>
      <path d="M135.48,15.246h-1.852V14.42H133.6a2.077,2.077,0,0,1-1.858.972,2.272,2.272,0,0,1-1.81-.794,3.286,3.286,0,0,1-.686-2.218A3.574,3.574,0,0,1,130.007,10a2.465,2.465,0,0,1,1.98-.9,1.687,1.687,0,0,1,1.618.832h.023V6.363h1.852Zm-1.817-2.918v-.451a1.418,1.418,0,0,0-.34-.973,1.2,1.2,0,0,0-1.845.1,2.239,2.239,0,0,0-.346,1.327,1.938,1.938,0,0,0,.334,1.218,1.186,1.186,0,0,0,1.843-.023A1.882,1.882,0,0,0,133.663,12.328Z" fill="#1e1e1e"/>
      <path d="M142.429,12.773h-3.914q.093,1.306,1.646,1.307a3.219,3.219,0,0,0,1.74-.469v1.336a4.567,4.567,0,0,1-2.162.445,3.047,3.047,0,0,1-2.256-.8,3.048,3.048,0,0,1-.8-2.248,3.211,3.211,0,0,1,.867-2.367,2.889,2.889,0,0,1,2.133-.873,2.621,2.621,0,0,1,2.03.78,3,3,0,0,1,.718,2.115Zm-1.717-1.137q0-1.288-1.043-1.289a1,1,0,0,0-.771.369,1.685,1.685,0,0,0-.4.92Z" fill="#1e1e1e"/>
      <path d="M149.243,9.246l-2.232,6H144.9l-2.127-6h1.981l1.043,3.7a5.444,5.444,0,0,1,.2,1.066h.023a6.14,6.14,0,0,1,.217-1.031l1.067-3.732Z" fill="#1e1e1e"/>
      <path d="M150.972,8.3a1.079,1.079,0,0,1-.768-.278.9.9,0,0,1-.3-.682.866.866,0,0,1,.3-.68,1.252,1.252,0,0,1,1.538,0,.866.866,0,0,1,.3.68.891.891,0,0,1-.3.691A1.1,1.1,0,0,1,150.972,8.3Zm.914,6.95h-1.852v-6h1.852Z" fill="#1e1e1e"/>
      <path d="M157.991,15.029a3.661,3.661,0,0,1-1.81.363,3.063,3.063,0,0,1-2.239-.838,2.893,2.893,0,0,1-.855-2.162A3.19,3.19,0,0,1,154,9.981a3.388,3.388,0,0,1,2.452-.882,3.151,3.151,0,0,1,1.535.281v1.571a2.109,2.109,0,0,0-1.3-.434,1.7,1.7,0,0,0-1.262.466,1.737,1.737,0,0,0-.466,1.286,1.71,1.71,0,0,0,.445,1.251,1.636,1.636,0,0,0,1.225.454,2.441,2.441,0,0,0,1.353-.433Z" fill="#1e1e1e"/>
      <path d="M164.6,12.773h-3.914q.093,1.306,1.646,1.307a3.219,3.219,0,0,0,1.74-.469v1.336a4.567,4.567,0,0,1-2.162.445,3.047,3.047,0,0,1-2.256-.8,3.048,3.048,0,0,1-.8-2.248,3.211,3.211,0,0,1,.867-2.367,2.889,2.889,0,0,1,2.133-.873,2.621,2.621,0,0,1,2.03.78,3,3,0,0,1,.718,2.115Zm-1.717-1.137q0-1.288-1.043-1.289a.994.994,0,0,0-.77.369,1.679,1.679,0,0,0-.4.92Z" fill="#1e1e1e"/>
    </g>
    <g>
      <path d="M363.394,50.9h-2.063l-.6-1.87h-2.988l-.592,1.87H355.1l3.058-8.4h2.244ZM360.3,47.576l-.9-2.824a3.619,3.619,0,0,1-.141-.756h-.047a3.251,3.251,0,0,1-.146.733l-.915,2.847Z" fill="#1e1e1e"/>
      <path d="M374.017,50.9h-1.869V45.871q0-.815.07-1.8h-.047a8.945,8.945,0,0,1-.264,1.114L369.939,50.9h-1.547l-2-5.655a10.84,10.84,0,0,1-.264-1.172h-.053q.077,1.243.077,2.18V50.9h-1.706V42.5h2.772l1.717,4.981a7.124,7.124,0,0,1,.3,1.2h.035a11.77,11.77,0,0,1,.334-1.213l1.716-4.969h2.7Z" fill="#1e1e1e"/>
      <path d="M375.54,50.576V48.7a3.614,3.614,0,0,0,1.108.642,3.569,3.569,0,0,0,1.207.214,2.676,2.676,0,0,0,.624-.065,1.471,1.471,0,0,0,.445-.178.777.777,0,0,0,.266-.27.668.668,0,0,0,.088-.337.732.732,0,0,0-.14-.439,1.532,1.532,0,0,0-.384-.358,4.02,4.02,0,0,0-.577-.316c-.223-.1-.463-.2-.721-.311a3.677,3.677,0,0,1-1.468-1,2.187,2.187,0,0,1-.483-1.429,2.273,2.273,0,0,1,.264-1.128,2.241,2.241,0,0,1,.717-.777,3.235,3.235,0,0,1,1.052-.448,5.391,5.391,0,0,1,1.266-.143,7.584,7.584,0,0,1,1.163.079,4.478,4.478,0,0,1,.934.243V44.43a2.761,2.761,0,0,0-.46-.258,3.676,3.676,0,0,0-.512-.185,3.98,3.98,0,0,0-.525-.108,3.776,3.776,0,0,0-.5-.035,2.585,2.585,0,0,0-.586.061,1.514,1.514,0,0,0-.445.173.85.85,0,0,0-.281.267.626.626,0,0,0-.1.348.666.666,0,0,0,.111.378,1.286,1.286,0,0,0,.317.317,3.47,3.47,0,0,0,.5.293q.293.143.662.3a7.269,7.269,0,0,1,.905.448,3.226,3.226,0,0,1,.689.536,2.083,2.083,0,0,1,.439.683A2.718,2.718,0,0,1,381,49.718a2.165,2.165,0,0,1-.724.773,3.119,3.119,0,0,1-1.063.425,6.139,6.139,0,0,1-1.28.129,7.136,7.136,0,0,1-1.316-.117A3.944,3.944,0,0,1,375.54,50.576Z" fill="#1e1e1e"/>
      <path d="M360.051,64.1H358.3v-.862h-.024a1.955,1.955,0,0,1-1.787,1.008,1.87,1.87,0,0,1-1.374-.5,1.773,1.773,0,0,1-.5-1.321q0-1.746,2.069-2.016l1.629-.217q0-.984-1.067-.984a3.639,3.639,0,0,0-2.039.639V58.456a4.549,4.549,0,0,1,1.058-.351,5.531,5.531,0,0,1,1.221-.153,2.267,2.267,0,0,1,2.567,2.561Zm-1.74-2.438v-.4l-1.09.141q-.9.117-.9.814a.676.676,0,0,0,.22.519.849.849,0,0,0,.595.2,1.091,1.091,0,0,0,.849-.361A1.3,1.3,0,0,0,358.311,61.661Z" fill="#1e1e1e"/>
      <path d="M361.123,63.941v-1.5a3.973,3.973,0,0,0,.911.41,3.016,3.016,0,0,0,.859.134,1.837,1.837,0,0,0,.776-.134.436.436,0,0,0,.284-.41.378.378,0,0,0-.129-.293,1.186,1.186,0,0,0-.331-.206,3.912,3.912,0,0,0-.442-.158c-.16-.047-.315-.1-.463-.158a4.434,4.434,0,0,1-.63-.29,1.817,1.817,0,0,1-.457-.36,1.411,1.411,0,0,1-.281-.475,1.88,1.88,0,0,1-.1-.639,1.638,1.638,0,0,1,.22-.867,1.789,1.789,0,0,1,.586-.594,2.649,2.649,0,0,1,.838-.34,4.319,4.319,0,0,1,.981-.109,5.456,5.456,0,0,1,.809.062,6.035,6.035,0,0,1,.808.178v1.43a2.887,2.887,0,0,0-.753-.307,3.142,3.142,0,0,0-.788-.1,1.792,1.792,0,0,0-.343.032,1.155,1.155,0,0,0-.284.094A.526.526,0,0,0,363,59.5a.365.365,0,0,0-.07.22.407.407,0,0,0,.1.281.9.9,0,0,0,.276.2,2.69,2.69,0,0,0,.377.153c.139.045.277.09.414.137a5.289,5.289,0,0,1,.667.282,2.087,2.087,0,0,1,.513.357,1.4,1.4,0,0,1,.328.481,1.914,1.914,0,0,1-.117,1.567,1.845,1.845,0,0,1-.615.615,2.792,2.792,0,0,1-.885.346,4.925,4.925,0,0,1-1.04.108A5.367,5.367,0,0,1,361.123,63.941Z" fill="#1e1e1e"/>
      <path d="M366.4,63.941v-1.5a3.98,3.98,0,0,0,.912.41,3,3,0,0,0,.858.134,1.837,1.837,0,0,0,.776-.134.435.435,0,0,0,.284-.41.377.377,0,0,0-.128-.293,1.2,1.2,0,0,0-.331-.206,3.93,3.93,0,0,0-.443-.158c-.16-.047-.314-.1-.463-.158a4.434,4.434,0,0,1-.63-.29,1.835,1.835,0,0,1-.457-.36,1.427,1.427,0,0,1-.281-.475,1.9,1.9,0,0,1-.1-.639,1.647,1.647,0,0,1,.22-.867,1.8,1.8,0,0,1,.586-.594,2.649,2.649,0,0,1,.838-.34,4.325,4.325,0,0,1,.981-.109,5.446,5.446,0,0,1,.809.062,6.084,6.084,0,0,1,.809.178v1.43a2.915,2.915,0,0,0-.753-.307,3.154,3.154,0,0,0-.788-.1,1.776,1.776,0,0,0-.343.032,1.141,1.141,0,0,0-.284.094.529.529,0,0,0-.194.158.365.365,0,0,0-.07.22.407.407,0,0,0,.1.281.922.922,0,0,0,.276.2,2.655,2.655,0,0,0,.378.153c.138.045.276.09.413.137a5.306,5.306,0,0,1,.668.282,2.1,2.1,0,0,1,.512.357,1.413,1.413,0,0,1,.329.481,1.921,1.921,0,0,1-.118,1.567,1.845,1.845,0,0,1-.615.615,2.792,2.792,0,0,1-.885.346,4.918,4.918,0,0,1-1.04.108A5.367,5.367,0,0,1,366.4,63.941Z" fill="#1e1e1e"/>
      <path d="M377.465,61.626h-3.914q.093,1.307,1.646,1.307a3.222,3.222,0,0,0,1.741-.469V63.8a4.574,4.574,0,0,1-2.163.445,2.792,2.792,0,0,1-3.058-3.053,3.211,3.211,0,0,1,.867-2.367,2.889,2.889,0,0,1,2.133-.873,2.62,2.62,0,0,1,2.03.78,3,3,0,0,1,.718,2.115Zm-1.717-1.137q0-1.288-1.043-1.289a.994.994,0,0,0-.77.369,1.679,1.679,0,0,0-.4.92Z" fill="#1e1e1e"/>
      <path d="M382.193,64.028a2.727,2.727,0,0,1-1.236.217q-1.957,0-1.957-2.033V59.464h-.973V58.1H379V56.8l1.846-.528V58.1h1.347v1.365h-1.347V61.89q0,.938.744.937a1.246,1.246,0,0,0,.6-.17Z" fill="#1e1e1e"/>
    </g>
    <g>
      <path d="M133.559,81.711h-1.172l-1.406-2.356a5.092,5.092,0,0,0-.375-.559,2.124,2.124,0,0,0-.373-.378,1.278,1.278,0,0,0-.41-.214,1.678,1.678,0,0,0-.5-.068h-.808v3.575h-.985v-8.4h2.508a3.573,3.573,0,0,1,1.017.138,2.267,2.267,0,0,1,.808.419,1.94,1.94,0,0,1,.536.7,2.317,2.317,0,0,1,.194.981,2.362,2.362,0,0,1-.132.806,2.1,2.1,0,0,1-.375.653,2.276,2.276,0,0,1-.586.49,2.973,2.973,0,0,1-.771.313v.024a1.72,1.72,0,0,1,.367.214,2.016,2.016,0,0,1,.3.284,3.83,3.83,0,0,1,.278.372c.092.138.194.3.307.483ZM128.52,74.2v3.047h1.336a2,2,0,0,0,.682-.112,1.568,1.568,0,0,0,.542-.319,1.46,1.46,0,0,0,.358-.51,1.719,1.719,0,0,0,.128-.676,1.316,1.316,0,0,0-.436-1.052,1.875,1.875,0,0,0-1.263-.378Z" fill="#1e1e1e"/>
      <path d="M139.143,74.2h-2.426v7.512h-.985V74.2h-2.419v-.891h5.83Z" fill="#1e1e1e"/>
      <path d="M139.834,81.371v-1.16a2.266,2.266,0,0,0,.478.316,3.739,3.739,0,0,0,.586.237,4.556,4.556,0,0,0,.618.15,3.453,3.453,0,0,0,.574.052,2.252,2.252,0,0,0,1.356-.336,1.262,1.262,0,0,0,.3-1.562,1.674,1.674,0,0,0-.413-.46,4.1,4.1,0,0,0-.624-.4q-.36-.191-.776-.4-.439-.222-.821-.451a3.535,3.535,0,0,1-.662-.5,2.087,2.087,0,0,1-.442-.624,2.127,2.127,0,0,1,.091-1.816,2.151,2.151,0,0,1,.662-.7,3,3,0,0,1,.934-.411,4.321,4.321,0,0,1,1.07-.134,4.1,4.1,0,0,1,1.81.3v1.108a3.28,3.28,0,0,0-1.91-.516,3.125,3.125,0,0,0-.644.068,1.839,1.839,0,0,0-.575.219,1.284,1.284,0,0,0-.41.393,1.044,1.044,0,0,0-.158.586,1.2,1.2,0,0,0,.12.556,1.349,1.349,0,0,0,.355.428,3.487,3.487,0,0,0,.571.375c.225.121.483.254.776.4s.586.3.856.468a3.932,3.932,0,0,1,.709.545,2.434,2.434,0,0,1,.483.662,1.867,1.867,0,0,1,.179.832,2.109,2.109,0,0,1-.243,1.052,1.986,1.986,0,0,1-.657.7,2.849,2.849,0,0,1-.952.39,5.213,5.213,0,0,1-1.136.12,4.779,4.779,0,0,1-.493-.032q-.292-.033-.6-.094a4.952,4.952,0,0,1-.577-.152A1.813,1.813,0,0,1,139.834,81.371Z" fill="#1e1e1e"/>
      <path d="M147.586,78.535v3.176H146.6v-8.4h2.308a3.049,3.049,0,0,1,2.089.656,2.345,2.345,0,0,1,.741,1.852,2.546,2.546,0,0,1-.823,1.957,3.145,3.145,0,0,1-2.224.762Zm0-4.336v3.445h1.031a2.3,2.3,0,0,0,1.556-.466,1.649,1.649,0,0,0,.536-1.315q0-1.663-1.969-1.664Z" fill="#1e1e1e"/>
      <path d="M124.128,94.694V93.663a2.848,2.848,0,0,0,1.728.58q1.266,0,1.266-.844a.733.733,0,0,0-.108-.407,1.083,1.083,0,0,0-.293-.3,2.291,2.291,0,0,0-.434-.232q-.249-.1-.536-.213a6.83,6.83,0,0,1-.7-.32,2.105,2.105,0,0,1-.5-.363,1.36,1.36,0,0,1-.3-.46,1.634,1.634,0,0,1-.1-.6,1.435,1.435,0,0,1,.193-.748,1.715,1.715,0,0,1,.516-.544,2.416,2.416,0,0,1,.735-.332,3.272,3.272,0,0,1,.853-.111,3.436,3.436,0,0,1,1.394.27v.972a2.716,2.716,0,0,0-1.523-.433,1.788,1.788,0,0,0-.487.061,1.206,1.206,0,0,0-.372.173.8.8,0,0,0-.24.267.694.694,0,0,0-.085.342.816.816,0,0,0,.085.393.866.866,0,0,0,.249.281,1.88,1.88,0,0,0,.4.223c.157.066.334.139.534.217a7.469,7.469,0,0,1,.715.313,2.5,2.5,0,0,1,.539.364,1.419,1.419,0,0,1,.342.465,1.505,1.505,0,0,1,.12.627,1.479,1.479,0,0,1-.2.774,1.692,1.692,0,0,1-.524.545,2.411,2.411,0,0,1-.756.322,3.748,3.748,0,0,1-.9.105A3.406,3.406,0,0,1,124.128,94.694Z" fill="#1e1e1e"/>
      <path d="M132.091,95.051a2.784,2.784,0,0,1-2.124-.84,3.117,3.117,0,0,1-.794-2.23A3.242,3.242,0,0,1,130,89.62a2.968,2.968,0,0,1,2.232-.85,2.694,2.694,0,0,1,2.095.826,3.277,3.277,0,0,1,.753,2.291,3.223,3.223,0,0,1-.811,2.3A2.845,2.845,0,0,1,132.091,95.051Zm.07-5.472a1.829,1.829,0,0,0-1.465.63,2.589,2.589,0,0,0-.539,1.737,2.45,2.45,0,0,0,.545,1.682,1.852,1.852,0,0,0,1.459.615,1.756,1.756,0,0,0,1.433-.6,2.617,2.617,0,0,0,.5-1.717,2.662,2.662,0,0,0-.5-1.734A1.75,1.75,0,0,0,132.161,89.579Z" fill="#1e1e1e"/>
      <path d="M141.466,94.911h-.961v-.949h-.024a1.972,1.972,0,0,1-1.851,1.089q-2.145,0-2.145-2.554V88.911h.955v3.433q0,1.9,1.454,1.9a1.47,1.47,0,0,0,1.157-.519,1.981,1.981,0,0,0,.454-1.356V88.911h.961Z" fill="#1e1e1e"/>
      <path d="M146.534,89.883a1.18,1.18,0,0,0-.726-.193,1.228,1.228,0,0,0-1.029.58,2.685,2.685,0,0,0-.413,1.582v3.059h-.961v-6h.961v1.236h.024a2.081,2.081,0,0,1,.627-.987,1.425,1.425,0,0,1,.943-.355,1.583,1.583,0,0,1,.574.082Z" fill="#1e1e1e"/>
      <path d="M151.667,94.635a3.117,3.117,0,0,1-1.641.416,2.716,2.716,0,0,1-2.071-.835,3.026,3.026,0,0,1-.788-2.165,3.321,3.321,0,0,1,.85-2.381,2.97,2.97,0,0,1,2.267-.9,3.163,3.163,0,0,1,1.4.293v.984a2.448,2.448,0,0,0-1.43-.468,1.932,1.932,0,0,0-1.509.659,2.5,2.5,0,0,0-.589,1.731,2.382,2.382,0,0,0,.554,1.664,1.906,1.906,0,0,0,1.485.61,2.407,2.407,0,0,0,1.477-.522Z" fill="#1e1e1e"/>
      <path d="M157.942,92.151h-4.236a2.245,2.245,0,0,0,.539,1.547,1.861,1.861,0,0,0,1.418.545,2.948,2.948,0,0,0,1.863-.668v.9a3.478,3.478,0,0,1-2.091.574,2.534,2.534,0,0,1-2-.817,3.344,3.344,0,0,1-.727-2.3,3.283,3.283,0,0,1,.794-2.282,2.544,2.544,0,0,1,1.972-.882,2.255,2.255,0,0,1,1.822.762,3.174,3.174,0,0,1,.644,2.115Zm-.984-.814a1.958,1.958,0,0,0-.4-1.3,1.367,1.367,0,0,0-1.1-.463,1.552,1.552,0,0,0-1.154.486,2.2,2.2,0,0,0-.586,1.272Z" fill="#1e1e1e"/>
    </g>
    <g>
      <path d="M238.882,87.811h-1.09l-.891-2.356h-3.562l-.838,2.356h-1.1l3.223-8.4h1.02Zm-2.3-3.241-1.318-3.58a3.407,3.407,0,0,1-.129-.562h-.024a3.194,3.194,0,0,1-.134.562l-1.307,3.58Z" fill="#1e1e1e"/>
      <path d="M239.626,87.594V86.563a2.849,2.849,0,0,0,1.729.58q1.265,0,1.265-.844a.733.733,0,0,0-.108-.407,1.069,1.069,0,0,0-.293-.3,2.291,2.291,0,0,0-.434-.232q-.249-.1-.536-.213a6.83,6.83,0,0,1-.7-.32,2.105,2.105,0,0,1-.5-.363,1.36,1.36,0,0,1-.3-.46,1.636,1.636,0,0,1-.1-.6,1.433,1.433,0,0,1,.193-.747,1.729,1.729,0,0,1,.516-.545,2.439,2.439,0,0,1,.735-.331,3.272,3.272,0,0,1,.853-.111,3.436,3.436,0,0,1,1.394.27v.972a2.716,2.716,0,0,0-1.523-.433,1.788,1.788,0,0,0-.487.061,1.206,1.206,0,0,0-.372.173.8.8,0,0,0-.24.267.694.694,0,0,0-.085.342.819.819,0,0,0,.085.393.877.877,0,0,0,.249.281,1.908,1.908,0,0,0,.4.223c.156.066.334.139.533.217a7.469,7.469,0,0,1,.715.313,2.511,2.511,0,0,1,.539.363,1.423,1.423,0,0,1,.342.466,1.647,1.647,0,0,1-.076,1.4,1.692,1.692,0,0,1-.524.545,2.411,2.411,0,0,1-.756.322,3.748,3.748,0,0,1-.9.1A3.406,3.406,0,0,1,239.626,87.594Z" fill="#1e1e1e"/>
      <path d="M244.718,87.594V86.563a2.846,2.846,0,0,0,1.728.58q1.266,0,1.266-.844a.733.733,0,0,0-.108-.407,1.083,1.083,0,0,0-.293-.3,2.291,2.291,0,0,0-.434-.232q-.249-.1-.536-.213a6.83,6.83,0,0,1-.7-.32,2.105,2.105,0,0,1-.5-.363,1.345,1.345,0,0,1-.305-.46,1.636,1.636,0,0,1-.1-.6,1.433,1.433,0,0,1,.193-.747,1.729,1.729,0,0,1,.516-.545,2.417,2.417,0,0,1,.735-.331,3.264,3.264,0,0,1,.852-.111,3.437,3.437,0,0,1,1.395.27v.972a2.716,2.716,0,0,0-1.523-.433,1.788,1.788,0,0,0-.487.061,1.206,1.206,0,0,0-.372.173.8.8,0,0,0-.24.267.694.694,0,0,0-.085.342.819.819,0,0,0,.085.393.877.877,0,0,0,.249.281,1.925,1.925,0,0,0,.4.223c.157.066.334.139.534.217a7.445,7.445,0,0,1,.714.313,2.486,2.486,0,0,1,.539.363,1.412,1.412,0,0,1,.343.466,1.505,1.505,0,0,1,.12.627,1.479,1.479,0,0,1-.2.774,1.7,1.7,0,0,1-.524.545,2.411,2.411,0,0,1-.756.322,3.748,3.748,0,0,1-.9.1A3.406,3.406,0,0,1,244.718,87.594Z" fill="#1e1e1e"/>
      <path d="M255,85.051h-4.236A2.242,2.242,0,0,0,251.3,86.6a1.859,1.859,0,0,0,1.418.545,2.948,2.948,0,0,0,1.863-.668v.9a3.479,3.479,0,0,1-2.092.574,2.537,2.537,0,0,1-2-.817,3.348,3.348,0,0,1-.726-2.3,3.278,3.278,0,0,1,.794-2.282,2.544,2.544,0,0,1,1.971-.882,2.256,2.256,0,0,1,1.823.762A3.18,3.18,0,0,1,255,84.547Zm-.984-.815a1.952,1.952,0,0,0-.4-1.294,1.364,1.364,0,0,0-1.1-.463,1.555,1.555,0,0,0-1.155.486,2.206,2.206,0,0,0-.585,1.271Z" fill="#1e1e1e"/>
      <path d="M259.231,87.752a1.849,1.849,0,0,1-.9.188q-1.576,0-1.576-1.758V82.631h-1.031v-.82h1.031V80.346l.961-.311v1.776h1.511v.82H257.72v3.381a1.4,1.4,0,0,0,.2.861.818.818,0,0,0,.68.258,1,1,0,0,0,.626-.2Z" fill="#1e1e1e"/>
      <path d="M263.439,87.594V86.563a2.846,2.846,0,0,0,1.728.58q1.266,0,1.266-.844a.725.725,0,0,0-.109-.407,1.069,1.069,0,0,0-.293-.3,2.281,2.281,0,0,0-.433-.232q-.249-.1-.536-.213a6.954,6.954,0,0,1-.7-.32,2.105,2.105,0,0,1-.5-.363,1.357,1.357,0,0,1-.3-.46,1.615,1.615,0,0,1-.1-.6,1.434,1.434,0,0,1,.194-.747,1.726,1.726,0,0,1,.515-.545,2.434,2.434,0,0,1,.736-.331,3.264,3.264,0,0,1,.852-.111,3.441,3.441,0,0,1,1.395.27v.972a2.722,2.722,0,0,0-1.524-.433,1.78,1.78,0,0,0-.486.061,1.185,1.185,0,0,0-.372.173.781.781,0,0,0-.24.267.694.694,0,0,0-.085.342.819.819,0,0,0,.085.393.853.853,0,0,0,.249.281,1.925,1.925,0,0,0,.4.223c.156.066.334.139.533.217a7.36,7.36,0,0,1,.715.313,2.486,2.486,0,0,1,.539.363,1.412,1.412,0,0,1,.343.466,1.505,1.505,0,0,1,.12.627,1.479,1.479,0,0,1-.2.774,1.7,1.7,0,0,1-.525.545,2.392,2.392,0,0,1-.756.322,3.746,3.746,0,0,1-.9.1A3.406,3.406,0,0,1,263.439,87.594Z" fill="#1e1e1e"/>
      <path d="M269.386,80.287a.607.607,0,0,1-.44-.176.592.592,0,0,1-.181-.445.615.615,0,0,1,.621-.627.62.62,0,0,1,.448.179.625.625,0,0,1,0,.888A.614.614,0,0,1,269.386,80.287Zm.469,7.524h-.961v-6h.961Z" fill="#1e1e1e"/>
      <path d="M276.78,87.811h-.961V84.389q0-1.911-1.394-1.91a1.512,1.512,0,0,0-1.193.542,2.009,2.009,0,0,0-.471,1.368v3.422H271.8v-6h.961v1h.023a2.166,2.166,0,0,1,1.969-1.137,1.836,1.836,0,0,1,1.506.636,2.836,2.836,0,0,1,.521,1.837Z" fill="#1e1e1e"/>
      <path d="M283.571,87.811h-1.347l-2.649-2.883h-.023v2.883h-.961V78.928h.961v5.631h.023l2.52-2.748h1.26l-2.784,2.894Z" fill="#1e1e1e"/>
    </g>
    <g>
      <path d="M109.92,42.151h-1.869V37.124q0-.815.07-1.8h-.047a8.805,8.805,0,0,1-.263,1.114l-1.969,5.712H104.3l-2-5.654a10.84,10.84,0,0,1-.264-1.172h-.052q.075,1.242.076,2.18v4.646h-1.7v-8.4h2.771l1.717,4.981a7.006,7.006,0,0,1,.3,1.2h.035a12.03,12.03,0,0,1,.334-1.213l1.717-4.969h2.7Z" fill="#1e1e1e"/>
      <path d="M117.039,39.679h-3.914q.095,1.306,1.647,1.306a3.218,3.218,0,0,0,1.74-.468v1.336a4.573,4.573,0,0,1-2.162.445,2.793,2.793,0,0,1-3.059-3.053,3.211,3.211,0,0,1,.867-2.367,2.889,2.889,0,0,1,2.133-.873,2.623,2.623,0,0,1,2.03.779,3,3,0,0,1,.718,2.116Zm-1.717-1.137q0-1.288-1.043-1.289a1,1,0,0,0-.77.369,1.676,1.676,0,0,0-.4.92Z" fill="#1e1e1e"/>
      <path d="M124.012,42.151H122.16v-.826h-.023a2.076,2.076,0,0,1-1.858.973,2.275,2.275,0,0,1-1.81-.794,3.287,3.287,0,0,1-.686-2.218,3.578,3.578,0,0,1,.756-2.385,2.467,2.467,0,0,1,1.981-.9,1.685,1.685,0,0,1,1.617.832h.023V33.269h1.852ZM122.2,39.234v-.452a1.42,1.42,0,0,0-.339-.972,1.2,1.2,0,0,0-1.846.1,2.244,2.244,0,0,0-.346,1.328A1.938,1.938,0,0,0,120,40.452a1.186,1.186,0,0,0,1.843-.023A1.882,1.882,0,0,0,122.2,39.234Z" fill="#1e1e1e"/>
      <path d="M126.508,35.2a1.085,1.085,0,0,1-.768-.278.9.9,0,0,1-.3-.683.864.864,0,0,1,.3-.679,1.252,1.252,0,0,1,1.538,0,.864.864,0,0,1,.3.679.891.891,0,0,1-.3.692A1.1,1.1,0,0,1,126.508,35.2Zm.914,6.949H125.57v-6h1.852Z" fill="#1e1e1e"/>
      <path d="M133.973,42.151h-1.752V41.29H132.2A1.955,1.955,0,0,1,130.41,42.3a1.87,1.87,0,0,1-1.374-.5,1.774,1.774,0,0,1-.5-1.321q0-1.748,2.069-2.016l1.628-.217q0-.984-1.066-.984a3.646,3.646,0,0,0-2.039.638V36.509a4.592,4.592,0,0,1,1.058-.352,5.585,5.585,0,0,1,1.221-.152,2.267,2.267,0,0,1,2.567,2.561Zm-1.741-2.437v-.4l-1.089.14q-.9.117-.9.815a.673.673,0,0,0,.22.518.843.843,0,0,0,.595.2,1.1,1.1,0,0,0,.849-.36A1.3,1.3,0,0,0,132.232,39.714Z" fill="#1e1e1e"/>
      <path d="M145.826,41.589a6.042,6.042,0,0,1-3.058.709,4.426,4.426,0,0,1-3.2-1.122,4.083,4.083,0,0,1-1.169-3.091,4.313,4.313,0,0,1,1.278-3.228,4.652,4.652,0,0,1,3.4-1.248,6.908,6.908,0,0,1,2.356.369v1.775a4.685,4.685,0,0,0-2.379-.562,2.553,2.553,0,0,0-1.919.764A3.264,3.264,0,0,0,141.06,40a2.342,2.342,0,0,0,1.8.709,2.5,2.5,0,0,0,1.078-.193V38.876h-1.682V37.364h3.574Z" fill="#1e1e1e"/>
      <path d="M151.193,37.821a1.6,1.6,0,0,0-.779-.181,1.121,1.121,0,0,0-.943.442,1.927,1.927,0,0,0-.34,1.2v2.865h-1.852v-6h1.852v1.114h.023a1.6,1.6,0,0,1,1.582-1.219,1.187,1.187,0,0,1,.457.07Z" fill="#1e1e1e"/>
      <path d="M157.047,42.151h-1.752V41.29h-.023a1.957,1.957,0,0,1-1.788,1.008,1.87,1.87,0,0,1-1.374-.5,1.774,1.774,0,0,1-.5-1.321q0-1.748,2.069-2.016l1.629-.217q0-.984-1.067-.984a3.646,3.646,0,0,0-2.039.638V36.509a4.609,4.609,0,0,1,1.058-.352,5.587,5.587,0,0,1,1.222-.152,2.266,2.266,0,0,1,2.566,2.561Zm-1.74-2.437v-.4l-1.09.14q-.9.117-.9.815a.672.672,0,0,0,.219.518.845.845,0,0,0,.595.2,1.1,1.1,0,0,0,.85-.36A1.3,1.3,0,0,0,155.307,39.714Z" fill="#1e1e1e"/>
      <path d="M160.387,41.454h-.024v3.457h-1.851v-8.76h1.851v.9h.024a2.355,2.355,0,0,1,3.729-.249,3.4,3.4,0,0,1,.636,2.177,3.692,3.692,0,0,1-.741,2.408,2.419,2.419,0,0,1-1.972.908A1.866,1.866,0,0,1,160.387,41.454Zm-.053-2.461v.481a1.523,1.523,0,0,0,.328,1.013,1.068,1.068,0,0,0,.861.393,1.136,1.136,0,0,0,.982-.489,2.365,2.365,0,0,0,.349-1.386q0-1.583-1.231-1.582a1.158,1.158,0,0,0-.929.431A1.718,1.718,0,0,0,160.334,38.993Z" fill="#1e1e1e"/>
      <path d="M171.713,42.151h-1.846v-3.41q0-1.319-.961-1.318a.985.985,0,0,0-.8.369,1.425,1.425,0,0,0-.3.938v3.421h-1.852V33.269h1.852v3.773h.023a2.105,2.105,0,0,1,1.846-1.037q2.038,0,2.039,2.461Z" fill="#1e1e1e"/>
    </g>
  </g>
</svg>
