<svg xmlns="http://www.w3.org/2000/svg" xmlns:xlink="http://www.w3.org/1999/xlink" viewBox="0 0 474.97 150.6">
  <defs>
    <symbol id="New_Symbol_44" data-name="New Symbol 44" viewBox="0 0 21 20">
      <circle cx="10.5" cy="10" r="10" fill="#505050"/>
      <path d="M12.47,6v5.42h1.25v1.13H12.47v1.85H11.15V12.58H7.35V11.44q.51-.58,1.05-1.26c.37-.45.71-.91,1-1.38s.64-.94.93-1.41.52-.93.72-1.36Zm-1.32,5.42V7.92a21,21,0,0,1-1.26,2c-.42.57-.81,1.08-1.17,1.52Z" fill="#fff"/>
    </symbol>
    <symbol id="New_Symbol_43" data-name="New Symbol 43" viewBox="0 0 21 20">
      <circle cx="10.5" cy="10" r="10" fill="#505050"/>
      <path d="M7.89,14.12V12.84a2.92,2.92,0,0,0,1.85.65,2.18,2.18,0,0,0,1.34-.38,1.23,1.23,0,0,0,.5-1c0-.95-.73-1.43-2.18-1.43H8.74V9.56h.63c1.29,0,1.94-.45,1.94-1.35S10.8,7,9.79,7a2.46,2.46,0,0,0-1.58.6V6.37a4.05,4.05,0,0,1,2-.48A2.68,2.68,0,0,1,12,6.45a1.77,1.77,0,0,1,.67,1.44A2,2,0,0,1,11,10v0a2.18,2.18,0,0,1,1.43.63A1.91,1.91,0,0,1,13,12.05a2.22,2.22,0,0,1-.85,1.82,3.39,3.39,0,0,1-2.24.7A3.83,3.83,0,0,1,7.89,14.12Z" fill="#fff"/>
    </symbol>
    <symbol id="New_Symbol_42" data-name="New Symbol 42" viewBox="0 0 21 20">
      <circle cx="10.5" cy="10" r="10" fill="#505050"/>
      <path d="M13,14.43H7.74v-.65A2.56,2.56,0,0,1,7.85,13a3.93,3.93,0,0,1,.3-.66,4.67,4.67,0,0,1,.44-.58c.17-.18.35-.35.54-.52l.59-.5c.2-.15.39-.31.58-.47s.35-.3.5-.45a5,5,0,0,0,.38-.45,2.55,2.55,0,0,0,.24-.5,1.7,1.7,0,0,0,.09-.57,1.5,1.5,0,0,0-.1-.58,1.22,1.22,0,0,0-.29-.41,1.14,1.14,0,0,0-.44-.26A1.87,1.87,0,0,0,10.13,7a2.58,2.58,0,0,0-1.05.24,3.67,3.67,0,0,0-1,.72V6.65a3.24,3.24,0,0,1,.52-.33,3,3,0,0,1,.55-.24,2.68,2.68,0,0,1,.59-.15,4.59,4.59,0,0,1,.66,0,3.66,3.66,0,0,1,1,.14,2.25,2.25,0,0,1,.79.44,2,2,0,0,1,.51.73,2.57,2.57,0,0,1,.18,1,2.92,2.92,0,0,1-.13.92,2.65,2.65,0,0,1-.36.76,3.83,3.83,0,0,1-.56.67c-.21.21-.46.43-.73.65l-.67.53c-.23.18-.43.35-.61.51a3.22,3.22,0,0,0-.44.5.89.89,0,0,0-.16.5v0H13Z" fill="#fff"/>
    </symbol>
    <symbol id="New_Symbol_41" data-name="New Symbol 41" viewBox="0 0 21 20">
      <circle cx="10.5" cy="10" r="10" fill="#505050"/>
      <path d="M11.69,5.84v8.59H10.33V7.5A4.13,4.13,0,0,1,9.54,8a8.43,8.43,0,0,1-1,.33V7.12l.65-.24.63-.27.62-.34c.21-.13.42-.27.64-.43Z" fill="#fff"/>
    </symbol>
  </defs>
  <title>android-intro</title>
  <g id="Shapes">
    <rect width="474.97" height="150.6" fill="#fff"/>
    <rect width="105" height="150" fill="#ebebeb"/>
    <g>
      <rect x="17.81" y="20.58" width="70" height="70" fill="#a4c639"/>
      <path d="M50,72.61v6.77c0,1.86-.94,3.26-2.8,3.26h0c-1.87,0-2.8-1.4-2.8-3.26V72.61h-3.5c-1.4,0-2.1-1.63-2.1-3V46.48h28v23.1c0,1.4-.47,3-2.1,3h-3.5v6.77c0,1.86-.94,3.26-2.8,3.26h0c-1.87,0-2.8-1.4-2.8-3.26V72.61Z" fill="#fff"/>
      <path d="M33.21,45.78h0c1.86,0,3.73,1.4,3.73,3.26V62.11c0,1.87-1.87,3.27-3.73,3.27h0c-1.87,0-3.74-1.4-3.74-3.27V49c0-1.86,1.87-3.26,3.74-3.26Z" fill="#fff"/>
      <path d="M72.41,45.78h0c1.86,0,3.73,1.4,3.73,3.26V62.11c0,1.87-1.87,3.27-3.73,3.27h0c-1.87,0-3.74-1.4-3.74-3.27V49c0-1.86,1.87-3.26,3.74-3.26Z" fill="#fff"/>
      <path d="M59.57,34.11l2.57-3.5c.23-.23,0-.47-.23-.7s-.47,0-.7.23l-2.57,3.74a16.25,16.25,0,0,0-5.83-1.17A15.35,15.35,0,0,0,47,33.88l-2.8-4a.86.86,0,0,0-.7-.23c0,.23-.23.46,0,.7L46,34.11c-4.2,1.87-7.23,5.83-7.23,9.57h28C66.81,39.94,63.77,36,59.57,34.11Zm-12.83,6.3a1.64,1.64,0,1,1,1.63-1.63A1.59,1.59,0,0,1,46.74,40.41Zm12.13,0a1.64,1.64,0,1,1,1.64-1.63A1.59,1.59,0,0,1,58.87,40.41Z" fill="#fff"/>
    </g>
    <rect x="371" width="103.97" height="90" fill="#0072c6"/>
    <rect x="371" y="95" width="103.97" height="55" fill="#d2d2d2"/>
    <g>
      <line x1="105.22" y1="14.6" x2="365.79" y2="14.6" fill="none" stroke="#000" stroke-miterlimit="10"/>
      <polygon points="364.7 18.34 371.17 14.6 364.7 10.86 364.7 18.34"/>
    </g>
    <g>
      <line x1="110.6" y1="44.48" x2="371.17" y2="44.48" fill="none" stroke="#000" stroke-miterlimit="10"/>
      <polygon points="111.7 48.22 105.22 44.48 111.7 40.74 111.7 48.22"/>
    </g>
    <g>
      <line x1="105.22" y1="103.9" x2="365.79" y2="103.9" fill="none" stroke="#000" stroke-miterlimit="10"/>
      <polygon points="364.7 107.64 371.17 103.91 364.7 100.17 364.7 107.64"/>
    </g>
    <g>
      <line x1="110.65" y1="140.07" x2="371.22" y2="140.07" fill="none" stroke="#000" stroke-miterlimit="10"/>
      <polygon points="111.74 143.81 105.26 140.07 111.74 136.33 111.74 143.81"/>
    </g>
    <use width="21" height="20" transform="translate(159.6 129.6)" xlink:href="#New_Symbol_44"/>
    <use width="21" height="20" transform="translate(159.6 93.9)" xlink:href="#New_Symbol_43"/>
    <use width="21" height="20" transform="translate(159.6 34.48)" xlink:href="#New_Symbol_42"/>
    <use width="21" height="20" transform="translate(159.6 4.6)" xlink:href="#New_Symbol_41"/>
    <polygon points="192.98 25.6 185.42 31.04 188.31 39.85 197.65 39.85 200.54 31.04 192.98 25.6" fill="#ebebeb" stroke="#000" stroke-miterlimit="10" stroke-width="0.75"/>
  </g>
  <g id="Text">
    <g>
      <path d="M42.61,111.73H40.7l-3.46-5.28a6.76,6.76,0,0,1-.43-.7h0c0,.3.05.75.05,1.36v4.62H35.05v-8.41h2l3.33,5.12a7.4,7.4,0,0,1,.42.68h0a8.94,8.94,0,0,1,0-1.15v-4.65h1.79Z" fill="#1e1e1e"/>
      <path d="M49.33,111.73H47.57v-.87h0a1.94,1.94,0,0,1-1.79,1,1.85,1.85,0,0,1-1.37-.49,1.75,1.75,0,0,1-.5-1.32c0-1.17.69-1.84,2.07-2l1.63-.22c0-.65-.36-1-1.07-1a3.59,3.59,0,0,0-2,.64v-1.4a4.67,4.67,0,0,1,1.06-.35,5.56,5.56,0,0,1,1.22-.15,2.27,2.27,0,0,1,2.57,2.56Zm-1.74-2.44v-.41L46.5,109c-.61.08-.91.35-.91.82a.71.71,0,0,0,.22.52.89.89,0,0,0,.6.2,1.11,1.11,0,0,0,.85-.36A1.29,1.29,0,0,0,47.59,109.29Z" fill="#1e1e1e"/>
      <path d="M54.33,111.66a2.82,2.82,0,0,1-1.24.21c-1.3,0-2-.68-2-2v-2.75h-1v-1.36h1v-1.3L53,103.9v1.83h1.35v1.36H53v2.43q0,.93.75.93a1.19,1.19,0,0,0,.6-.17Z" fill="#1e1e1e"/>
      <path d="M56.38,104.78a1.1,1.1,0,0,1-.77-.28.9.9,0,0,1-.3-.68.85.85,0,0,1,.3-.68,1.1,1.1,0,0,1,.77-.27,1.11,1.11,0,0,1,.77.27.88.88,0,0,1,.29.68.91.91,0,0,1-.29.69A1.11,1.11,0,0,1,56.38,104.78Zm.91,7H55.44v-6h1.85Z" fill="#1e1e1e"/>
      <path d="M64.59,105.73l-2.23,6H60.25l-2.13-6h2l1,3.69a5.38,5.38,0,0,1,.21,1.07h0a6,6,0,0,1,.22-1l1.07-3.73Z" fill="#1e1e1e"/>
      <path d="M70.59,109.25H66.67c.07.87.62,1.31,1.65,1.31a3.24,3.24,0,0,0,1.74-.47v1.34a4.63,4.63,0,0,1-2.16.44,2.78,2.78,0,0,1-3.06-3.05,3.2,3.2,0,0,1,.87-2.37,2.9,2.9,0,0,1,2.13-.87,2.62,2.62,0,0,1,2,.78,3,3,0,0,1,.72,2.11Zm-1.72-1.13c0-.86-.35-1.29-1-1.29a1,1,0,0,0-.77.37,1.65,1.65,0,0,0-.4.92Z" fill="#1e1e1e"/>
      <path d="M49.18,126.13H47.12l-.6-1.87h-3l-.59,1.87h-2L44,117.72h2.24Zm-3.1-3.33-.9-2.82a4.33,4.33,0,0,1-.14-.76h0a3.22,3.22,0,0,1-.14.74l-.92,2.84Z" fill="#1e1e1e"/>
      <path d="M51.92,125.43h0v3.46H50v-8.76H51.9v.9h0a2.36,2.36,0,0,1,3.73-.25,3.43,3.43,0,0,1,.64,2.18,3.63,3.63,0,0,1-.75,2.4,2.4,2.4,0,0,1-2,.91A1.87,1.87,0,0,1,51.92,125.43ZM51.87,123v.48a1.52,1.52,0,0,0,.33,1,1.05,1.05,0,0,0,.86.39,1.14,1.14,0,0,0,1-.48,2.4,2.4,0,0,0,.35-1.39c0-1-.41-1.58-1.23-1.58a1.15,1.15,0,0,0-.93.43A1.73,1.73,0,0,0,51.87,123Z" fill="#1e1e1e"/>
      <path d="M59.38,125.43h0v3.46H57.51v-8.76h1.85v.9h0a2.36,2.36,0,0,1,3.73-.25,3.37,3.37,0,0,1,.64,2.18,3.68,3.68,0,0,1-.74,2.4,2.41,2.41,0,0,1-2,.91A1.88,1.88,0,0,1,59.38,125.43ZM59.33,123v.48a1.52,1.52,0,0,0,.33,1,1.08,1.08,0,0,0,.86.39,1.14,1.14,0,0,0,1-.48,2.4,2.4,0,0,0,.35-1.39c0-1-.41-1.58-1.23-1.58a1.15,1.15,0,0,0-.93.43A1.73,1.73,0,0,0,59.33,123Z" fill="#1e1e1e"/>
    </g>
    <g>
      <path d="M406.18,33.86h-1.87v-5c0-.54,0-1.14.07-1.8h-.05a9.23,9.23,0,0,1-.26,1.12l-2,5.71h-1.55l-2-5.66a11,11,0,0,1-.27-1.17h0c0,.83.08,1.56.08,2.18v4.65H396.6v-8.4h2.77l1.72,5a6.2,6.2,0,0,1,.3,1.2h0a10.48,10.48,0,0,1,.33-1.22l1.72-5h2.7Z" fill="#fff"/>
      <path d="M408.79,26.91a1.06,1.06,0,0,1-.77-.28.9.9,0,0,1-.3-.68.85.85,0,0,1,.3-.68,1.1,1.1,0,0,1,.77-.27,1.11,1.11,0,0,1,.77.27.88.88,0,0,1,.29.68.91.91,0,0,1-.29.69A1.11,1.11,0,0,1,408.79,26.91Zm.91,7h-1.85v-6h1.85Z" fill="#fff"/>
      <path d="M415.78,33.64A3.69,3.69,0,0,1,414,34a3.06,3.06,0,0,1-2.24-.83,2.91,2.91,0,0,1-.86-2.17,3.19,3.19,0,0,1,.92-2.41,3.42,3.42,0,0,1,2.45-.88,3.26,3.26,0,0,1,1.54.28v1.57a2.12,2.12,0,0,0-1.3-.43,1.67,1.67,0,0,0-1.26.47,1.72,1.72,0,0,0-.47,1.28,1.69,1.69,0,0,0,.45,1.25,1.61,1.61,0,0,0,1.22.46,2.44,2.44,0,0,0,1.36-.44Z" fill="#fff"/>
      <path d="M421,29.53a1.61,1.61,0,0,0-.78-.18,1.11,1.11,0,0,0-.94.44,1.88,1.88,0,0,0-.34,1.2v2.87h-1.85v-6h1.85V29h0a1.61,1.61,0,0,1,1.58-1.22,1.35,1.35,0,0,1,.46.07Z" fill="#fff"/>
      <path d="M424.8,34a3.2,3.2,0,0,1-2.35-.84,3,3,0,0,1-.86-2.28,3,3,0,0,1,.89-2.33,3.35,3.35,0,0,1,2.41-.84,3.19,3.19,0,0,1,2.34.84,3,3,0,0,1,.85,2.23,3.16,3.16,0,0,1-.88,2.36A3.24,3.24,0,0,1,424.8,34Zm.05-4.87a1.23,1.23,0,0,0-1,.45,2,2,0,0,0-.36,1.28c0,1.15.46,1.73,1.39,1.73s1.33-.6,1.33-1.78S425.75,29.13,424.85,29.13Z" fill="#fff"/>
      <path d="M428.94,33.7V32.2a3.87,3.87,0,0,0,.91.41,3,3,0,0,0,.85.13,1.86,1.86,0,0,0,.78-.13.44.44,0,0,0,.29-.41.38.38,0,0,0-.13-.29,1.33,1.33,0,0,0-.33-.21,4.72,4.72,0,0,0-.45-.16c-.16,0-.31-.1-.46-.15a4.68,4.68,0,0,1-.63-.29,2.13,2.13,0,0,1-.46-.37,1.47,1.47,0,0,1-.28-.47,2,2,0,0,1-.09-.64,1.75,1.75,0,0,1,.21-.87,1.85,1.85,0,0,1,.59-.59,2.64,2.64,0,0,1,.84-.34,4.46,4.46,0,0,1,1-.11,5.52,5.52,0,0,1,.81.06,5.88,5.88,0,0,1,.81.18v1.43a3,3,0,0,0-.76-.31,3.55,3.55,0,0,0-.78-.1,2,2,0,0,0-.35,0,1.16,1.16,0,0,0-.28.1.43.43,0,0,0-.19.16.32.32,0,0,0-.07.22.42.42,0,0,0,.1.28,1.06,1.06,0,0,0,.28.2,2,2,0,0,0,.37.15l.42.14a5.19,5.19,0,0,1,.67.28,2.12,2.12,0,0,1,.51.36,1.37,1.37,0,0,1,.33.48,2,2,0,0,1-.12,1.57,1.9,1.9,0,0,1-.62.61,2.89,2.89,0,0,1-.88.35,5,5,0,0,1-1,.1A5.4,5.4,0,0,1,428.94,33.7Z" fill="#fff"/>
      <path d="M437.51,34a3.23,3.23,0,0,1-2.36-.84,3.05,3.05,0,0,1-.86-2.28,3.07,3.07,0,0,1,.89-2.33,3.37,3.37,0,0,1,2.41-.84,3.16,3.16,0,0,1,2.34.84,3,3,0,0,1,.85,2.23,3.19,3.19,0,0,1-.87,2.36A3.27,3.27,0,0,1,437.51,34Zm0-4.87a1.26,1.26,0,0,0-1,.45,2,2,0,0,0-.36,1.28c0,1.15.47,1.73,1.4,1.73s1.33-.6,1.33-1.78S438.45,29.13,437.55,29.13Z" fill="#fff"/>
      <path d="M445.85,26.39a2,2,0,0,0-.68-.14c-.6,0-.9.32-.9,1v.64h1.38v1.36h-1.38v4.64h-1.84V29.22h-1V27.86h1v-.75a2.15,2.15,0,0,1,.67-1.65,2.52,2.52,0,0,1,1.81-.63,3.11,3.11,0,0,1,.94.12Z" fill="#fff"/>
      <path d="M450.41,33.79a2.8,2.8,0,0,1-1.24.21c-1.3,0-1.95-.67-1.95-2V29.22h-1V27.86h1v-1.3l1.84-.52v1.82h1.35v1.36h-1.35v2.43c0,.62.25.94.75.94a1.31,1.31,0,0,0,.6-.17Z" fill="#fff"/>
      <path d="M402.83,41.31a1.07,1.07,0,0,1-.77-.28.9.9,0,0,1-.3-.68.85.85,0,0,1,.3-.68,1.11,1.11,0,0,1,.77-.27,1.1,1.1,0,0,1,.77.27.85.85,0,0,1,.3.68.89.89,0,0,1-.3.69A1.1,1.1,0,0,1,402.83,41.31Zm.91,6.95h-1.85v-6h1.85Z" fill="#fff"/>
      <path d="M411.17,48.26h-1.85v-.83h0a2.07,2.07,0,0,1-1.86,1,2.27,2.27,0,0,1-1.81-.79,3.28,3.28,0,0,1-.68-2.22A3.59,3.59,0,0,1,405.7,43a2.48,2.48,0,0,1,2-.9,1.69,1.69,0,0,1,1.62.83h0V39.38h1.85Zm-1.81-2.92v-.45a1.43,1.43,0,0,0-.34-1,1.2,1.2,0,0,0-1.85.09,2.26,2.26,0,0,0-.34,1.33,2,2,0,0,0,.33,1.22,1.12,1.12,0,0,0,.93.43,1.1,1.1,0,0,0,.91-.45A1.88,1.88,0,0,0,409.36,45.34Z" fill="#fff"/>
      <path d="M418.12,45.79h-3.91c.06.87.61,1.3,1.65,1.3a3.15,3.15,0,0,0,1.74-.47V48a4.58,4.58,0,0,1-2.17.44,2.78,2.78,0,0,1-3.05-3,3.23,3.23,0,0,1,.86-2.37,2.9,2.9,0,0,1,2.14-.87,2.63,2.63,0,0,1,2,.78,3.05,3.05,0,0,1,.71,2.12Zm-1.71-1.14q0-1.29-1.05-1.29a1,1,0,0,0-.77.37,1.64,1.64,0,0,0-.39.92Z" fill="#fff"/>
      <path d="M425.1,48.26h-1.85V44.92c0-.93-.33-1.39-1-1.39a1,1,0,0,0-.8.37,1.44,1.44,0,0,0-.31.94v3.42H419.3v-6h1.85v1h0a2.12,2.12,0,0,1,1.93-1.1c1.32,0,2,.83,2,2.47Z" fill="#fff"/>
      <path d="M430.12,48.19a2.8,2.8,0,0,1-1.24.21c-1.3,0-1.95-.67-1.95-2V43.62h-1V42.26h1V41l1.84-.52v1.82h1.35v1.36h-1.35v2.43c0,.62.25.94.75.94a1.31,1.31,0,0,0,.6-.17Z" fill="#fff"/>
      <path d="M432.17,41.31a1.07,1.07,0,0,1-.77-.28.9.9,0,0,1-.3-.68.85.85,0,0,1,.3-.68,1.23,1.23,0,0,1,1.54,0,.84.84,0,0,1,.29.68.88.88,0,0,1-.29.69A1.11,1.11,0,0,1,432.17,41.31Zm.91,6.95h-1.85v-6h1.85Z" fill="#fff"/>
      <path d="M438.18,48.19a2.82,2.82,0,0,1-1.24.21c-1.3,0-1.95-.67-1.95-2V43.62h-1V42.26h1V41l1.84-.52v1.82h1.35v1.36h-1.35v2.43c0,.62.25.94.75.94a1.31,1.31,0,0,0,.6-.17Z" fill="#fff"/>
      <path d="M445.24,42.26l-2.44,6.48c-.59,1.56-1.47,2.34-2.65,2.34a3.18,3.18,0,0,1-1.11-.16V49.45a1.63,1.63,0,0,0,.81.21,1,1,0,0,0,1-.67l.32-.74-2.44-6h2l1.12,3.65a4.62,4.62,0,0,1,.17.8h0a5.22,5.22,0,0,1,.19-.79l1.13-3.66Z" fill="#fff"/>
      <path d="M400.9,62h0v3.46H399V56.66h1.85v.9h0a2.35,2.35,0,0,1,3.72-.25,3.37,3.37,0,0,1,.64,2.18,3.73,3.73,0,0,1-.74,2.41,2.43,2.43,0,0,1-2,.9A1.85,1.85,0,0,1,400.9,62Zm-.06-2.46V60a1.52,1.52,0,0,0,.33,1,1.06,1.06,0,0,0,.86.4,1.15,1.15,0,0,0,1-.49,2.32,2.32,0,0,0,.35-1.39c0-1-.41-1.58-1.23-1.58a1.15,1.15,0,0,0-.93.43A1.73,1.73,0,0,0,400.84,59.5Z" fill="#fff"/>
      <path d="M408.35,62.66h-1.86V53.77h1.86Z" fill="#fff"/>
      <path d="M414.93,62.66h-1.75V61.8h0a2,2,0,0,1-1.78,1,1.88,1.88,0,0,1-1.38-.49,1.79,1.79,0,0,1-.5-1.32c0-1.17.69-1.84,2.07-2l1.63-.21c0-.66-.36-1-1.07-1a3.64,3.64,0,0,0-2,.64V57a4.62,4.62,0,0,1,1.06-.36,5.63,5.63,0,0,1,1.22-.15,2.27,2.27,0,0,1,2.57,2.56Zm-1.74-2.44v-.4L412.1,60c-.6.07-.9.35-.9.81a.67.67,0,0,0,.22.52.84.84,0,0,0,.59.2,1.1,1.1,0,0,0,.85-.36A1.29,1.29,0,0,0,413.19,60.22Z" fill="#fff"/>
      <path d="M419.93,62.59a2.78,2.78,0,0,1-1.23.21c-1.31,0-2-.67-2-2V58h-1V56.66h1v-1.3l1.85-.52v1.82h1.34V58h-1.34v2.43c0,.62.24.94.74.94a1.27,1.27,0,0,0,.6-.17Z" fill="#fff"/>
      <path d="M425.05,55.19a1.88,1.88,0,0,0-.68-.14c-.6,0-.89.32-.89,1v.64h1.37V58h-1.37v4.64h-1.85V58h-1V56.66h1v-.75a2.18,2.18,0,0,1,.67-1.65,2.55,2.55,0,0,1,1.82-.63,3.09,3.09,0,0,1,.93.12Z" fill="#fff"/>
      <path d="M428.62,62.8a3.23,3.23,0,0,1-2.36-.84,3.47,3.47,0,0,1,0-4.61,3.38,3.38,0,0,1,2.41-.84,3.16,3.16,0,0,1,2.34.84,3,3,0,0,1,.85,2.23,3.19,3.19,0,0,1-.87,2.36A3.27,3.27,0,0,1,428.62,62.8Zm.05-4.87a1.23,1.23,0,0,0-1,.45,2,2,0,0,0-.37,1.28c0,1.15.47,1.73,1.4,1.73s1.33-.6,1.33-1.78S429.56,57.93,428.67,57.93Z" fill="#fff"/>
      <path d="M437,58.33a1.61,1.61,0,0,0-.78-.18,1.1,1.1,0,0,0-.94.44,1.88,1.88,0,0,0-.34,1.2v2.87h-1.85v-6h1.85v1.11h0a1.6,1.6,0,0,1,1.58-1.22,1.35,1.35,0,0,1,.46.07Z" fill="#fff"/>
      <path d="M447.39,62.66h-1.85V59.24c0-.88-.32-1.31-1-1.31a.88.88,0,0,0-.74.39,1.63,1.63,0,0,0-.29,1v3.36H441.7V59.2c0-.85-.31-1.27-.94-1.27a.9.9,0,0,0-.76.37,1.65,1.65,0,0,0-.29,1v3.34h-1.85v-6h1.85v.94h0a2.17,2.17,0,0,1,.8-.79,2.26,2.26,0,0,1,1.14-.3,1.74,1.74,0,0,1,1.74,1.12,2.2,2.2,0,0,1,2-1.12c1.31,0,2,.81,2,2.42Z" fill="#fff"/>
    </g>
    <g>
      <path d="M192.38,9.6h-1.09l-.89-2.36h-3.57L186,9.6H184.9l3.22-8.41h1Zm-2.31-3.24-1.32-3.58a3.81,3.81,0,0,1-.12-.57h0a3.51,3.51,0,0,1-.13.57l-1.31,3.58Z" fill="#1e1e1e"/>
      <path d="M197.44,9.32a3.08,3.08,0,0,1-1.64.42,2.72,2.72,0,0,1-2.07-.84,3,3,0,0,1-.79-2.16,3.35,3.35,0,0,1,.85-2.38,3,3,0,0,1,2.27-.9,3.13,3.13,0,0,1,1.4.29v1A2.48,2.48,0,0,0,196,4.27a1.91,1.91,0,0,0-1.51.65,2.53,2.53,0,0,0-.59,1.74,2.38,2.38,0,0,0,.55,1.66,1.91,1.91,0,0,0,1.49.61,2.38,2.38,0,0,0,1.47-.52Z" fill="#1e1e1e"/>
      <path d="M203.91,12.36h-1V8.57h0a2.16,2.16,0,0,1-2.05,1.17,2.26,2.26,0,0,1-1.82-.81,3.3,3.3,0,0,1-.68-2.19,3.6,3.6,0,0,1,.75-2.39,2.48,2.48,0,0,1,2-.89,1.89,1.89,0,0,1,1.78,1h0V3.6h1ZM203,6.9V6a1.76,1.76,0,0,0-.48-1.25,1.67,1.67,0,0,0-1.23-.5,1.63,1.63,0,0,0-1.37.64,2.82,2.82,0,0,0-.51,1.8,2.5,2.5,0,0,0,.49,1.63,1.55,1.55,0,0,0,1.25.59,1.69,1.69,0,0,0,1.35-.58A2.15,2.15,0,0,0,203,6.9Z" fill="#1e1e1e"/>
      <path d="M210.63,9.6h-1V8.65h0a2,2,0,0,1-1.86,1.09c-1.43,0-2.14-.85-2.14-2.56V3.6h.95V7c0,1.27.49,1.9,1.46,1.9a1.44,1.44,0,0,0,1.15-.52,2,2,0,0,0,.46-1.36V3.6h1Z" fill="#1e1e1e"/>
      <path d="M212.94,2.07a.6.6,0,0,1-.62-.62A.61.61,0,0,1,212.5,1a.66.66,0,0,1,.44-.17.64.64,0,0,1,.45.17.58.58,0,0,1,.19.45.58.58,0,0,1-.19.44A.61.61,0,0,1,212.94,2.07Zm.47,7.53h-1v-6h1Z" fill="#1e1e1e"/>
      <path d="M218.37,4.57a1.18,1.18,0,0,0-.73-.19,1.23,1.23,0,0,0-1,.58,2.7,2.7,0,0,0-.41,1.58V9.6h-1v-6h1V4.83h0a2.09,2.09,0,0,1,.63-1,1.42,1.42,0,0,1,.94-.36,1.71,1.71,0,0,1,.58.08Z" fill="#1e1e1e"/>
      <path d="M224.25,6.84H220a2.26,2.26,0,0,0,.54,1.54,1.84,1.84,0,0,0,1.42.55,2.91,2.91,0,0,0,1.86-.67v.9a3.43,3.43,0,0,1-2.09.58,2.53,2.53,0,0,1-2-.82,3.35,3.35,0,0,1-.72-2.3,3.28,3.28,0,0,1,.79-2.28,2.54,2.54,0,0,1,2-.88,2.24,2.24,0,0,1,1.82.76,3.17,3.17,0,0,1,.65,2.11Zm-1-.82a1.9,1.9,0,0,0-.4-1.29,1.36,1.36,0,0,0-1.1-.46,1.56,1.56,0,0,0-1.15.48A2.25,2.25,0,0,0,220,6Z" fill="#1e1e1e"/>
      <path d="M231.77,9.54a1.91,1.91,0,0,1-.9.19c-1.05,0-1.57-.59-1.57-1.76V4.42h-1V3.6h1V2.13l1-.31V3.6h1.51v.82h-1.51V7.8a1.45,1.45,0,0,0,.2.86.84.84,0,0,0,.68.26,1,1,0,0,0,.63-.2Z" fill="#1e1e1e"/>
      <path d="M235.43,9.74a2.77,2.77,0,0,1-2.12-.84,3.12,3.12,0,0,1-.8-2.23,3.23,3.23,0,0,1,.83-2.36,3,3,0,0,1,2.23-.85,2.71,2.71,0,0,1,2.1.82,3.29,3.29,0,0,1,.75,2.29,3.21,3.21,0,0,1-.81,2.3A2.84,2.84,0,0,1,235.43,9.74Zm.07-5.47A1.81,1.81,0,0,0,234,4.9a2.54,2.54,0,0,0-.54,1.73A2.46,2.46,0,0,0,234,8.31a1.85,1.85,0,0,0,1.46.62,1.75,1.75,0,0,0,1.43-.6,2.61,2.61,0,0,0,.5-1.72,2.65,2.65,0,0,0-.5-1.74A1.75,1.75,0,0,0,235.5,4.27Z" fill="#1e1e1e"/>
      <path d="M244.88,9.6h-1.35l-2.65-2.89h0V9.6h-1V.71h1V6.35h0L243.4,3.6h1.26l-2.78,2.89Z" fill="#1e1e1e"/>
      <path d="M250.4,6.84h-4.24a2.26,2.26,0,0,0,.54,1.54,1.84,1.84,0,0,0,1.42.55A2.91,2.91,0,0,0,250,8.26v.9a3.43,3.43,0,0,1-2.09.58,2.53,2.53,0,0,1-2-.82,3.35,3.35,0,0,1-.72-2.3A3.28,3.28,0,0,1,246,4.34a2.54,2.54,0,0,1,2-.88,2.24,2.24,0,0,1,1.82.76,3.17,3.17,0,0,1,.65,2.11Zm-1-.82a1.9,1.9,0,0,0-.4-1.29,1.36,1.36,0,0,0-1.1-.46,1.56,1.56,0,0,0-1.15.48A2.25,2.25,0,0,0,246.17,6Z" fill="#1e1e1e"/>
      <path d="M256.83,9.6h-1V6.18c0-1.28-.46-1.91-1.39-1.91a1.54,1.54,0,0,0-1.2.54,2,2,0,0,0-.47,1.37V9.6h-1v-6h1v1h0a2.16,2.16,0,0,1,2-1.13,1.85,1.85,0,0,1,1.51.63,2.84,2.84,0,0,1,.52,1.84Z" fill="#1e1e1e"/>
    </g>
    <g>
      <path d="M211.59,37.34H210.5L209.61,35H206l-.83,2.36h-1.1l3.22-8.41h1Zm-2.31-3.24L208,30.52a2.71,2.71,0,0,1-.13-.57h0a3.51,3.51,0,0,1-.13.57l-1.31,3.58Z" fill="#1e1e1e"/>
      <path d="M216.65,37.06a3.08,3.08,0,0,1-1.64.42,2.72,2.72,0,0,1-2.07-.84,3.06,3.06,0,0,1-.79-2.16,3.37,3.37,0,0,1,.85-2.39,3,3,0,0,1,2.27-.9,3.13,3.13,0,0,1,1.4.3v1a2.49,2.49,0,0,0-1.43-.47,1.92,1.92,0,0,0-1.51.66,2.52,2.52,0,0,0-.59,1.73,2.39,2.39,0,0,0,.55,1.67,1.94,1.94,0,0,0,1.49.61,2.44,2.44,0,0,0,1.47-.52Z" fill="#1e1e1e"/>
      <path d="M222.06,37.06a3.1,3.1,0,0,1-1.64.42,2.69,2.69,0,0,1-2.07-.84,3,3,0,0,1-.79-2.16,3.33,3.33,0,0,1,.85-2.39,3,3,0,0,1,2.27-.9,3.09,3.09,0,0,1,1.39.3v1a2.45,2.45,0,0,0-1.43-.47,2,2,0,0,0-1.51.66,2.52,2.52,0,0,0-.59,1.73,2.39,2.39,0,0,0,.56,1.67,1.92,1.92,0,0,0,1.48.61,2.45,2.45,0,0,0,1.48-.52Z" fill="#1e1e1e"/>
      <path d="M228.22,34.58H224a2.18,2.18,0,0,0,.54,1.54,1.82,1.82,0,0,0,1.42.55A3,3,0,0,0,227.8,36v.9a3.52,3.52,0,0,1-2.09.58,2.55,2.55,0,0,1-2-.82,3.37,3.37,0,0,1-.73-2.3,3.27,3.27,0,0,1,.8-2.28,2.54,2.54,0,0,1,2-.89,2.26,2.26,0,0,1,1.82.77,3.15,3.15,0,0,1,.65,2.11Zm-1-.82a1.93,1.93,0,0,0-.4-1.29,1.36,1.36,0,0,0-1.1-.47,1.56,1.56,0,0,0-1.15.49,2.16,2.16,0,0,0-.59,1.27Z" fill="#1e1e1e"/>
      <path d="M229.29,37.12v-1a2.88,2.88,0,0,0,1.73.58c.84,0,1.26-.28,1.26-.85a.72.72,0,0,0-.1-.4,1.22,1.22,0,0,0-.3-.3,2.18,2.18,0,0,0-.43-.23l-.54-.21-.7-.32a2,2,0,0,1-.5-.37,1.29,1.29,0,0,1-.31-.46,1.79,1.79,0,0,1-.1-.6,1.55,1.55,0,0,1,.19-.75,1.78,1.78,0,0,1,.52-.54,2.26,2.26,0,0,1,.74-.33,3,3,0,0,1,.85-.12,3.41,3.41,0,0,1,1.39.27v1a2.71,2.71,0,0,0-1.52-.44,1.88,1.88,0,0,0-.49.06,1.28,1.28,0,0,0-.37.18.85.85,0,0,0-.24.26.69.69,0,0,0-.08.35.8.8,0,0,0,.08.39.83.83,0,0,0,.25.28,1.67,1.67,0,0,0,.4.22l.53.22c.27.1.51.21.72.31a2.44,2.44,0,0,1,.54.37,1.36,1.36,0,0,1,.46,1.09,1.47,1.47,0,0,1-.2.77,1.7,1.7,0,0,1-.52.55,2.49,2.49,0,0,1-.76.32,3.68,3.68,0,0,1-.89.11A3.39,3.39,0,0,1,229.29,37.12Z" fill="#1e1e1e"/>
      <path d="M234.38,37.12v-1a2.88,2.88,0,0,0,1.73.58c.84,0,1.27-.28,1.27-.85a.72.72,0,0,0-.11-.4,1.22,1.22,0,0,0-.3-.3,1.93,1.93,0,0,0-.43-.23l-.54-.21-.7-.32a2.16,2.16,0,0,1-.5-.37,1.26,1.26,0,0,1-.3-.46,1.57,1.57,0,0,1-.11-.6,1.45,1.45,0,0,1,.2-.75,1.75,1.75,0,0,1,.51-.54,2.26,2.26,0,0,1,.74-.33,3,3,0,0,1,.85-.12,3.41,3.41,0,0,1,1.39.27v1a2.69,2.69,0,0,0-1.52-.44,1.88,1.88,0,0,0-.49.06,1.41,1.41,0,0,0-.37.18.85.85,0,0,0-.24.26.82.82,0,0,0-.08.35.93.93,0,0,0,.08.39.83.83,0,0,0,.25.28,1.67,1.67,0,0,0,.4.22l.53.22c.27.1.51.21.72.31a2.44,2.44,0,0,1,.54.37,1.38,1.38,0,0,1,.34.46,1.54,1.54,0,0,1,.12.63,1.47,1.47,0,0,1-.2.77,1.7,1.7,0,0,1-.52.55,2.49,2.49,0,0,1-.76.32,3.68,3.68,0,0,1-.89.11A3.39,3.39,0,0,1,234.38,37.12Z" fill="#1e1e1e"/>
      <path d="M245.91,37.28a2,2,0,0,1-.9.18c-1,0-1.58-.58-1.58-1.75V32.16h-1v-.82h1V29.87l1-.31v1.78h1.51v.82H244.4v3.38a1.38,1.38,0,0,0,.2.86.83.83,0,0,0,.68.26,1.05,1.05,0,0,0,.63-.2Z" fill="#1e1e1e"/>
      <path d="M249.57,37.48a2.79,2.79,0,0,1-2.13-.84,3.14,3.14,0,0,1-.79-2.23,3.27,3.27,0,0,1,.82-2.37,3,3,0,0,1,2.24-.85,2.69,2.69,0,0,1,2.09.83,3.29,3.29,0,0,1,.75,2.29,3.21,3.21,0,0,1-.81,2.3A2.82,2.82,0,0,1,249.57,37.48Zm.07-5.48a1.84,1.84,0,0,0-1.47.63,2.59,2.59,0,0,0-.54,1.74,2.41,2.41,0,0,0,.55,1.68,1.85,1.85,0,0,0,1.46.62,1.74,1.74,0,0,0,1.43-.61,2.62,2.62,0,0,0,.5-1.71,2.71,2.71,0,0,0-.5-1.74A1.77,1.77,0,0,0,249.64,32Z" fill="#1e1e1e"/>
      <path d="M259,37.34h-1.35L255,34.45h0v2.89h-1V28.45h1v5.63h0l2.52-2.74h1.26L256,34.23Z" fill="#1e1e1e"/>
      <path d="M264.53,34.58H260.3a2.18,2.18,0,0,0,.54,1.54,1.82,1.82,0,0,0,1.41.55,3,3,0,0,0,1.87-.67v.9a3.53,3.53,0,0,1-2.1.58,2.54,2.54,0,0,1-2-.82,3.33,3.33,0,0,1-.73-2.3,3.26,3.26,0,0,1,.79-2.28,2.56,2.56,0,0,1,2-.89,2.26,2.26,0,0,1,1.82.77,3.15,3.15,0,0,1,.64,2.11Zm-1-.82a2,2,0,0,0-.4-1.29,1.38,1.38,0,0,0-1.1-.47,1.6,1.6,0,0,0-1.16.49,2.21,2.21,0,0,0-.58,1.27Z" fill="#1e1e1e"/>
      <path d="M271,37.34h-1V33.91c0-1.27-.47-1.91-1.4-1.91a1.48,1.48,0,0,0-1.19.55,2,2,0,0,0-.47,1.36v3.43h-1v-6h1v1h0a2.16,2.16,0,0,1,2-1.14,1.82,1.82,0,0,1,1.5.64,2.82,2.82,0,0,1,.53,1.84Z" fill="#1e1e1e"/>
    </g>
    <g>
      <path d="M192.19,134.55h-1v-3.83h-4.34v3.83h-1v-8.4h1v3.68h4.34v-3.68h1Z" fill="#1e1e1e"/>
      <path d="M199.23,127h-2.42v7.51h-1V127H193.4v-.89h5.83Z" fill="#1e1e1e"/>
      <path d="M205.83,127h-2.42v7.51h-1V127H200v-.89h5.83Z" fill="#1e1e1e"/>
      <path d="M208,131.38v3.17h-1v-8.4h2.31a3.06,3.06,0,0,1,2.09.66,2.34,2.34,0,0,1,.74,1.85,2.53,2.53,0,0,1-.83,2,3.14,3.14,0,0,1-2.22.77Zm0-4.34v3.44h1a2.32,2.32,0,0,0,1.56-.46,1.65,1.65,0,0,0,.54-1.32c0-1.11-.66-1.66-2-1.66Z" fill="#1e1e1e"/>
      <path d="M220.05,129.52a1.25,1.25,0,0,0-.73-.19,1.23,1.23,0,0,0-1,.58,2.72,2.72,0,0,0-.41,1.58v3.06h-1v-6h1v1.24h0a2.17,2.17,0,0,1,.63-1,1.39,1.39,0,0,1,.94-.35,1.52,1.52,0,0,1,.58.08Z" fill="#1e1e1e"/>
      <path d="M225.92,131.79h-4.23a2.19,2.19,0,0,0,.54,1.55,1.85,1.85,0,0,0,1.41.54,3,3,0,0,0,1.87-.66v.9a3.52,3.52,0,0,1-2.09.57,2.52,2.52,0,0,1-2-.82,3.83,3.83,0,0,1,.06-4.58,2.55,2.55,0,0,1,2-.88,2.25,2.25,0,0,1,1.82.76,3.19,3.19,0,0,1,.64,2.12Zm-1-.81a2,2,0,0,0-.4-1.3,1.37,1.37,0,0,0-1.1-.46,1.56,1.56,0,0,0-1.16.49,2.18,2.18,0,0,0-.58,1.27Z" fill="#1e1e1e"/>
      <path d="M227,134.33v-1a2.82,2.82,0,0,0,1.73.58q1.26,0,1.26-.84a.68.68,0,0,0-.11-.41,1,1,0,0,0-.29-.29,2.19,2.19,0,0,0-.43-.24l-.54-.21a5.79,5.79,0,0,1-.7-.32,2.22,2.22,0,0,1-.5-.36,1.38,1.38,0,0,1-.31-.46,1.57,1.57,0,0,1-.1-.6,1.39,1.39,0,0,1,.19-.75,1.7,1.7,0,0,1,.52-.55,2.71,2.71,0,0,1,.73-.33,3.49,3.49,0,0,1,.86-.11,3.41,3.41,0,0,1,1.39.27v1a2.7,2.7,0,0,0-1.52-.43,1.88,1.88,0,0,0-.49.06,1.26,1.26,0,0,0-.37.17,1,1,0,0,0-.24.27.67.67,0,0,0-.09.34.82.82,0,0,0,.09.4,1.07,1.07,0,0,0,.25.28,2.11,2.11,0,0,0,.4.22l.53.22a7.07,7.07,0,0,1,.72.31,2.45,2.45,0,0,1,.53.36,1.45,1.45,0,0,1,.35.47,1.48,1.48,0,0,1,.12.63,1.5,1.5,0,0,1-.2.77,1.58,1.58,0,0,1-.52.54,2.28,2.28,0,0,1-.76.33,3.71,3.71,0,0,1-.9.1A3.37,3.37,0,0,1,227,134.33Z" fill="#1e1e1e"/>
      <path d="M233.33,133.68h0v3.63h-1v-8.76h1v1.06h0a2.26,2.26,0,0,1,2.07-1.2,2.18,2.18,0,0,1,1.81.81,3.28,3.28,0,0,1,.65,2.16,3.72,3.72,0,0,1-.73,2.41,2.44,2.44,0,0,1-2,.9A2,2,0,0,1,233.33,133.68Zm0-2.42v.84a1.77,1.77,0,0,0,.48,1.26,1.59,1.59,0,0,0,1.23.52,1.62,1.62,0,0,0,1.37-.66,3.09,3.09,0,0,0,.49-1.86,2.41,2.41,0,0,0-.46-1.57,1.54,1.54,0,0,0-1.26-.57,1.69,1.69,0,0,0-1.34.58A2.15,2.15,0,0,0,233.31,131.26Z" fill="#1e1e1e"/>
      <path d="M241.91,134.69a2.79,2.79,0,0,1-2.13-.84,3.1,3.1,0,0,1-.79-2.23,3.25,3.25,0,0,1,.83-2.36,3,3,0,0,1,2.23-.85,2.69,2.69,0,0,1,2.09.83,3.73,3.73,0,0,1-.06,4.59A2.85,2.85,0,0,1,241.91,134.69Zm.07-5.47a1.84,1.84,0,0,0-1.47.63,2.59,2.59,0,0,0-.54,1.74,2.46,2.46,0,0,0,.55,1.68,1.85,1.85,0,0,0,1.46.61,1.75,1.75,0,0,0,1.43-.6,2.63,2.63,0,0,0,.5-1.72,2.66,2.66,0,0,0-.5-1.73A1.73,1.73,0,0,0,242,129.22Z" fill="#1e1e1e"/>
      <path d="M251.36,134.55h-1v-3.42c0-1.27-.47-1.91-1.4-1.91a1.5,1.5,0,0,0-1.19.54,2,2,0,0,0-.47,1.37v3.42h-1v-6h1v1h0a2.16,2.16,0,0,1,2-1.14,1.83,1.83,0,0,1,1.51.64,2.85,2.85,0,0,1,.52,1.83Z" fill="#1e1e1e"/>
      <path d="M252.78,134.33v-1a2.82,2.82,0,0,0,1.73.58q1.26,0,1.26-.84a.76.76,0,0,0-.1-.41,1,1,0,0,0-.3-.29,1.94,1.94,0,0,0-.43-.24l-.54-.21a5.79,5.79,0,0,1-.7-.32,2.22,2.22,0,0,1-.5-.36,1.38,1.38,0,0,1-.31-.46,1.79,1.79,0,0,1-.1-.6,1.49,1.49,0,0,1,.19-.75,1.82,1.82,0,0,1,.52-.55,2.77,2.77,0,0,1,.74-.33,3.56,3.56,0,0,1,2.24.16v1a2.7,2.7,0,0,0-1.52-.43,1.88,1.88,0,0,0-.49.06,1.26,1.26,0,0,0-.37.17,1,1,0,0,0-.24.27.66.66,0,0,0-.08.34.82.82,0,0,0,.08.4,1.07,1.07,0,0,0,.25.28,2.11,2.11,0,0,0,.4.22l.53.22a6.21,6.21,0,0,1,.72.31,2.82,2.82,0,0,1,.54.36,1.57,1.57,0,0,1,.34.47,1.48,1.48,0,0,1,.12.63,1.5,1.5,0,0,1-.2.77,1.58,1.58,0,0,1-.52.54,2.28,2.28,0,0,1-.76.33,3.68,3.68,0,0,1-.89.1A3.39,3.39,0,0,1,252.78,134.33Z" fill="#1e1e1e"/>
      <path d="M263,131.79H258.8a2.23,2.23,0,0,0,.53,1.55,1.88,1.88,0,0,0,1.42.54,3,3,0,0,0,1.87-.66v.9a3.53,3.53,0,0,1-2.1.57,2.51,2.51,0,0,1-2-.82,3.83,3.83,0,0,1,.06-4.58,2.54,2.54,0,0,1,2-.88,2.26,2.26,0,0,1,1.83.76,3.19,3.19,0,0,1,.64,2.12Zm-1-.81a2,2,0,0,0-.4-1.3,1.37,1.37,0,0,0-1.1-.46,1.54,1.54,0,0,0-1.16.49,2.18,2.18,0,0,0-.58,1.27Z" fill="#1e1e1e"/>
    </g>
    <g>
      <path d="M404.75,118.51h-1.87v-5c0-.54,0-1.14.07-1.8h-.05a7.63,7.63,0,0,1-.26,1.12l-2,5.71h-1.54l-2-5.66c-.05-.15-.14-.54-.26-1.17h-.05c.05.83.07,1.56.07,2.18v4.65h-1.7v-8.4H398l1.71,5a6.58,6.58,0,0,1,.3,1.2h0a11.9,11.9,0,0,1,.33-1.21l1.72-5h2.7Z" fill="#0072c6"/>
      <path d="M407.36,111.56a1.07,1.07,0,0,1-.77-.28.88.88,0,0,1-.3-.68.87.87,0,0,1,.3-.68,1.11,1.11,0,0,1,.77-.26,1.09,1.09,0,0,1,.77.26.87.87,0,0,1,.3.68.89.89,0,0,1-.3.69A1.1,1.1,0,0,1,407.36,111.56Zm.91,7h-1.85v-6h1.85Z" fill="#0072c6"/>
      <path d="M414.35,118.29a3.68,3.68,0,0,1-1.81.37,3.06,3.06,0,0,1-2.24-.84,2.89,2.89,0,0,1-.85-2.16,3.21,3.21,0,0,1,.91-2.42,3.44,3.44,0,0,1,2.46-.88,3.24,3.24,0,0,1,1.53.28v1.57a2.17,2.17,0,0,0-1.29-.43,1.71,1.71,0,0,0-1.27.47,2,2,0,0,0,0,2.53,1.63,1.63,0,0,0,1.23.46,2.43,2.43,0,0,0,1.35-.44Z" fill="#0072c6"/>
      <path d="M419.57,114.18a1.59,1.59,0,0,0-.77-.18,1.14,1.14,0,0,0-.95.44,2,2,0,0,0-.34,1.2v2.87h-1.85v-6h1.85v1.11h0a1.6,1.6,0,0,1,1.58-1.22,1.28,1.28,0,0,1,.45.07Z" fill="#0072c6"/>
      <path d="M423.38,118.66a3.19,3.19,0,0,1-2.36-.85,3.47,3.47,0,0,1,0-4.61,3.38,3.38,0,0,1,2.41-.84,3.16,3.16,0,0,1,2.34.84,3,3,0,0,1,.85,2.23,3.19,3.19,0,0,1-.87,2.36A3.27,3.27,0,0,1,423.38,118.66Zm0-4.88a1.26,1.26,0,0,0-1,.45,2,2,0,0,0-.36,1.28c0,1.15.47,1.73,1.4,1.73s1.33-.59,1.33-1.78S424.32,113.78,423.42,113.78Z" fill="#0072c6"/>
      <path d="M427.51,118.35v-1.5a4.06,4.06,0,0,0,.91.41,3,3,0,0,0,.86.14,1.79,1.79,0,0,0,.77-.14.44.44,0,0,0,.29-.41.36.36,0,0,0-.13-.29,1.33,1.33,0,0,0-.33-.21l-.44-.16A3.68,3.68,0,0,1,429,116a4.68,4.68,0,0,1-.63-.29,2.09,2.09,0,0,1-.45-.36,1.29,1.29,0,0,1-.28-.48,1.76,1.76,0,0,1-.1-.64,1.6,1.6,0,0,1,.22-.86,1.75,1.75,0,0,1,.58-.6,2.85,2.85,0,0,1,.84-.34,4.53,4.53,0,0,1,1-.11,5.52,5.52,0,0,1,.81.06,7.3,7.3,0,0,1,.81.18V114a2.74,2.74,0,0,0-.75-.3,3.13,3.13,0,0,0-.79-.11,1.79,1.79,0,0,0-.34,0,1.63,1.63,0,0,0-.29.1.49.49,0,0,0-.19.16.32.32,0,0,0-.07.22.4.4,0,0,0,.1.28,1,1,0,0,0,.28.2,1.88,1.88,0,0,0,.38.15l.41.14a6.16,6.16,0,0,1,.67.28,1.94,1.94,0,0,1,.51.36,1.58,1.58,0,0,1,.33.48,1.63,1.63,0,0,1,.11.66,1.69,1.69,0,0,1-.23.91,1.87,1.87,0,0,1-.61.61,2.72,2.72,0,0,1-.89.35,5,5,0,0,1-1,.11A5.41,5.41,0,0,1,427.51,118.35Z" fill="#0072c6"/>
      <path d="M436.08,118.66a3.19,3.19,0,0,1-2.36-.85,3.47,3.47,0,0,1,0-4.61,3.38,3.38,0,0,1,2.41-.84,3.2,3.2,0,0,1,2.35.84,3,3,0,0,1,.85,2.23,3.2,3.2,0,0,1-.88,2.36A3.24,3.24,0,0,1,436.08,118.66Zm.05-4.88a1.23,1.23,0,0,0-1,.45,2,2,0,0,0-.37,1.28c0,1.15.47,1.73,1.4,1.73s1.33-.59,1.33-1.78S437,113.78,436.13,113.78Z" fill="#0072c6"/>
      <path d="M444.42,111a1.88,1.88,0,0,0-.68-.14c-.59,0-.89.33-.89,1v.64h1.37v1.36h-1.37v4.64H441v-4.64h-1v-1.36h1v-.74a2.19,2.19,0,0,1,.67-1.66,2.54,2.54,0,0,1,1.82-.62,3.12,3.12,0,0,1,.93.11Z" fill="#0072c6"/>
      <path d="M449,118.44a2.75,2.75,0,0,1-1.23.22c-1.31,0-2-.68-2-2v-2.75h-1v-1.36h1v-1.3l1.85-.52v1.82H449v1.36h-1.34v2.43c0,.63.24.94.74.94a1.24,1.24,0,0,0,.6-.17Z" fill="#0072c6"/>
      <path d="M401,132.35a6.06,6.06,0,0,1-3,.71,4.42,4.42,0,0,1-3.2-1.13,4.07,4.07,0,0,1-1.17-3.09,4.34,4.34,0,0,1,1.28-3.23,4.65,4.65,0,0,1,3.4-1.24,7,7,0,0,1,2.35.36v1.78a4.73,4.73,0,0,0-2.38-.56,2.57,2.57,0,0,0-1.92.76,2.82,2.82,0,0,0-.74,2,2.79,2.79,0,0,0,.67,2,2.34,2.34,0,0,0,1.79.71,2.45,2.45,0,0,0,1.08-.2v-1.64h-1.68v-1.51H401Z" fill="#0072c6"/>
      <path d="M406.47,128.58a1.61,1.61,0,0,0-.78-.18,1.1,1.1,0,0,0-.94.44,1.9,1.9,0,0,0-.34,1.2v2.87h-1.86v-6h1.86V128h0A1.6,1.6,0,0,1,406,126.8a1.35,1.35,0,0,1,.46.07Z" fill="#0072c6"/>
      <path d="M412.24,132.91h-1.75v-.86h0a2,2,0,0,1-1.79,1,1.9,1.9,0,0,1-1.38-.5,1.79,1.79,0,0,1-.5-1.32c0-1.17.69-1.84,2.07-2l1.63-.21c0-.66-.35-1-1.07-1a3.58,3.58,0,0,0-2,.64v-1.39a4.52,4.52,0,0,1,1.05-.36,5.7,5.7,0,0,1,1.22-.15,2.27,2.27,0,0,1,2.57,2.56Zm-1.74-2.44v-.4l-1.09.14q-.9.12-.9.81a.66.66,0,0,0,.22.52.8.8,0,0,0,.59.2,1.1,1.1,0,0,0,.85-.36A1.29,1.29,0,0,0,410.5,130.47Z" fill="#0072c6"/>
      <path d="M415.58,132.21h0v3.46h-1.85v-8.76h1.85v.9h0a2.36,2.36,0,0,1,3.73-.25,3.45,3.45,0,0,1,.64,2.18,3.68,3.68,0,0,1-.75,2.41,2.43,2.43,0,0,1-2,.91A1.88,1.88,0,0,1,415.58,132.21Zm-.05-2.46v.48a1.5,1.5,0,0,0,.33,1,1,1,0,0,0,.86.4,1.15,1.15,0,0,0,1-.49,2.4,2.4,0,0,0,.35-1.39c0-1-.41-1.58-1.23-1.58a1.15,1.15,0,0,0-.93.43A1.73,1.73,0,0,0,415.53,129.75Z" fill="#0072c6"/>
      <path d="M426.93,132.91h-1.85V129.5q0-1.32-1-1.32a1,1,0,0,0-.79.37,1.4,1.4,0,0,0-.31.94v3.42h-1.85V124H423v3.77h0a2.09,2.09,0,0,1,1.84-1q2,0,2,2.46Z" fill="#0072c6"/>
      <path d="M439.28,132.91h-2.07l-.59-1.87h-3l-.59,1.87H431l3.06-8.4h2.25Zm-3.1-3.32-.9-2.83a3.59,3.59,0,0,1-.14-.75h-.05a3.76,3.76,0,0,1-.14.73l-.92,2.85Z" fill="#0072c6"/>
      <path d="M442.12,130v2.9h-1.89v-8.4h3c2.11,0,3.17.89,3.17,2.67a2.55,2.55,0,0,1-.91,2A3.62,3.62,0,0,1,443,130Zm0-4v2.62h.75c1,0,1.51-.44,1.51-1.33s-.5-1.29-1.51-1.29Z" fill="#0072c6"/>
      <path d="M449.34,132.91h-1.9v-8.4h1.9Z" fill="#0072c6"/>
    </g>
    <g>
      <polygon points="193.05 85.53 185.49 90.97 188.38 99.78 197.72 99.78 200.61 90.97 193.05 85.53" fill="#ebebeb" stroke="#000" stroke-miterlimit="10" stroke-width="0.75"/>
      <g>
        <g>
          <path d="M213.44,99h-1.09l-.89-2.35H207.9L207.06,99H206l3.23-8.4h1Zm-2.3-3.24-1.32-3.58a2.59,2.59,0,0,1-.13-.56h0a3.23,3.23,0,0,1-.14.56l-1.31,3.58Z" fill="#1e1e1e"/>
          <path d="M218.51,98.7a3.19,3.19,0,0,1-1.64.41,2.72,2.72,0,0,1-2.07-.83,3,3,0,0,1-.79-2.17,3.3,3.3,0,0,1,.85-2.38,3,3,0,0,1,2.27-.9,3.23,3.23,0,0,1,1.39.29v1a2.47,2.47,0,0,0-1.43-.47,1.93,1.93,0,0,0-1.51.66A2.5,2.5,0,0,0,215,96a2.36,2.36,0,0,0,.56,1.66,1.89,1.89,0,0,0,1.48.61,2.39,2.39,0,0,0,1.48-.52Z" fill="#1e1e1e"/>
          <path d="M223.91,98.7a3.19,3.19,0,0,1-1.64.41,2.75,2.75,0,0,1-2.07-.83,3.06,3.06,0,0,1-.79-2.17,3.35,3.35,0,0,1,.85-2.38,3,3,0,0,1,2.27-.9,3.2,3.2,0,0,1,1.39.29v1a2.45,2.45,0,0,0-1.43-.47,1.91,1.91,0,0,0-1.5.66A2.46,2.46,0,0,0,220.4,96a2.36,2.36,0,0,0,.55,1.66,1.89,1.89,0,0,0,1.49.61,2.38,2.38,0,0,0,1.47-.52Z" fill="#1e1e1e"/>
          <path d="M230.07,96.21h-4.24a2.28,2.28,0,0,0,.54,1.55,1.88,1.88,0,0,0,1.42.54,2.94,2.94,0,0,0,1.86-.66v.9a3.47,3.47,0,0,1-2.09.57,2.53,2.53,0,0,1-2-.82,3.35,3.35,0,0,1-.72-2.3,3.28,3.28,0,0,1,.79-2.28,2.54,2.54,0,0,1,2-.88,2.24,2.24,0,0,1,1.82.76,3.2,3.2,0,0,1,.65,2.12Zm-1-.81a1.91,1.91,0,0,0-.4-1.3,1.36,1.36,0,0,0-1.1-.46,1.54,1.54,0,0,0-1.15.49,2.19,2.19,0,0,0-.59,1.27Z" fill="#1e1e1e"/>
          <path d="M231.14,98.75v-1a2.84,2.84,0,0,0,1.73.58c.85,0,1.27-.28,1.27-.84a.76.76,0,0,0-.11-.41,1,1,0,0,0-.29-.29,2.28,2.28,0,0,0-.44-.24l-.53-.21a5.16,5.16,0,0,1-.7-.32,2.29,2.29,0,0,1-.51-.36,1.52,1.52,0,0,1-.3-.46,1.58,1.58,0,0,1-.11-.61,1.39,1.39,0,0,1,.2-.74,1.78,1.78,0,0,1,.51-.55,2.77,2.77,0,0,1,.74-.33,3.41,3.41,0,0,1,.85-.11,3.46,3.46,0,0,1,1.4.27v1a2.74,2.74,0,0,0-1.53-.43,1.75,1.75,0,0,0-.48.06,1.33,1.33,0,0,0-.38.17,1,1,0,0,0-.24.27.77.77,0,0,0-.08.34,1,1,0,0,0,.08.4,1.07,1.07,0,0,0,.25.28,2.48,2.48,0,0,0,.4.22l.53.22a6.21,6.21,0,0,1,.72.31,2.82,2.82,0,0,1,.54.36,1.41,1.41,0,0,1,.34.47,1.48,1.48,0,0,1,.12.63,1.49,1.49,0,0,1-.19.77,1.71,1.71,0,0,1-.53.54,2.32,2.32,0,0,1-.75.33,3.82,3.82,0,0,1-.9.1A3.41,3.41,0,0,1,231.14,98.75Z" fill="#1e1e1e"/>
          <path d="M236.23,98.75v-1a2.84,2.84,0,0,0,1.73.58c.85,0,1.27-.28,1.27-.84a.76.76,0,0,0-.11-.41,1,1,0,0,0-.29-.29,2.28,2.28,0,0,0-.44-.24l-.53-.21a5.16,5.16,0,0,1-.7-.32,2.55,2.55,0,0,1-.51-.36,1.52,1.52,0,0,1-.3-.46,1.59,1.59,0,0,1-.1-.61,1.38,1.38,0,0,1,.19-.74,1.7,1.7,0,0,1,.52-.55,2.71,2.71,0,0,1,.73-.33,3.59,3.59,0,0,1,2.25.16v1a2.71,2.71,0,0,0-1.53-.43,1.75,1.75,0,0,0-.48.06,1.15,1.15,0,0,0-.37.17.76.76,0,0,0-.24.27.67.67,0,0,0-.09.34.82.82,0,0,0,.09.4,1,1,0,0,0,.24.28,2.48,2.48,0,0,0,.4.22l.54.22a6.85,6.85,0,0,1,.71.31,2.82,2.82,0,0,1,.54.36,1.41,1.41,0,0,1,.34.47,1.48,1.48,0,0,1,.12.63,1.49,1.49,0,0,1-.19.77,1.61,1.61,0,0,1-.53.54,2.32,2.32,0,0,1-.75.33,3.82,3.82,0,0,1-.9.1A3.41,3.41,0,0,1,236.23,98.75Z" fill="#1e1e1e"/>
          <path d="M247.76,98.91a1.82,1.82,0,0,1-.9.19c-1.05,0-1.57-.59-1.57-1.76V93.79h-1V93h1V91.51l1-.31V93h1.51v.82h-1.51v3.38a1.45,1.45,0,0,0,.2.86.81.81,0,0,0,.68.26,1,1,0,0,0,.63-.2Z" fill="#1e1e1e"/>
          <path d="M251.42,99.11a2.79,2.79,0,0,1-2.13-.84A3.15,3.15,0,0,1,248.5,96a3.25,3.25,0,0,1,.83-2.36,3,3,0,0,1,2.23-.85,2.69,2.69,0,0,1,2.09.83,3.75,3.75,0,0,1-.05,4.59A2.88,2.88,0,0,1,251.42,99.11Zm.07-5.47a1.84,1.84,0,0,0-1.47.63,2.59,2.59,0,0,0-.54,1.74,2.46,2.46,0,0,0,.55,1.68,1.85,1.85,0,0,0,1.46.61,1.75,1.75,0,0,0,1.43-.6,2.58,2.58,0,0,0,.5-1.72,2.61,2.61,0,0,0-.5-1.73A1.73,1.73,0,0,0,251.49,93.64Z" fill="#1e1e1e"/>
          <path d="M260.87,99h-1.35l-2.65-2.88h0V99h-1V90.09h1v5.63h0L259.39,93h1.26l-2.78,2.9Z" fill="#1e1e1e"/>
          <path d="M266.39,96.21h-4.24a2.28,2.28,0,0,0,.54,1.55,1.87,1.87,0,0,0,1.42.54,3,3,0,0,0,1.86-.66v.9a3.5,3.5,0,0,1-2.09.57,2.52,2.52,0,0,1-2-.82,3.36,3.36,0,0,1-.73-2.3,3.29,3.29,0,0,1,.8-2.28,2.53,2.53,0,0,1,2-.88,2.25,2.25,0,0,1,1.82.76,3.2,3.2,0,0,1,.65,2.12Zm-1-.81a2,2,0,0,0-.4-1.3,1.36,1.36,0,0,0-1.1-.46,1.52,1.52,0,0,0-1.15.49,2.19,2.19,0,0,0-.59,1.27Z" fill="#1e1e1e"/>
          <path d="M272.82,99h-1V95.55c0-1.27-.47-1.91-1.4-1.91a1.52,1.52,0,0,0-1.19.54,2,2,0,0,0-.47,1.37V99h-1V93h1v1h0a2.17,2.17,0,0,1,2-1.14,1.83,1.83,0,0,1,1.51.64,2.79,2.79,0,0,1,.52,1.83Z" fill="#1e1e1e"/>
        </g>
        <g>
          <path d="M213.25,84.77h-1V80.93h-4.35v3.84h-1V76.36h1v3.69h4.35V76.36h1Z" fill="#1e1e1e"/>
          <path d="M220.3,77.25h-2.43v7.52h-1V77.25h-2.42v-.89h5.83Z" fill="#1e1e1e"/>
          <path d="M226.9,77.25h-2.43v7.52h-1V77.25h-2.42v-.89h5.83Z" fill="#1e1e1e"/>
          <path d="M229.09,81.59v3.18h-1V76.36h2.31a3,3,0,0,1,2.09.66,2.35,2.35,0,0,1,.74,1.85,2.54,2.54,0,0,1-.82,2,3.14,3.14,0,0,1-2.23.76Zm0-4.34V80.7h1a2.3,2.3,0,0,0,1.55-.47,1.64,1.64,0,0,0,.54-1.31c0-1.11-.66-1.67-2-1.67Z" fill="#1e1e1e"/>
          <path d="M244.39,84.19a5.57,5.57,0,0,1-2.81.72,3.86,3.86,0,0,1-2.91-1.16,4.27,4.27,0,0,1-1.11-3.07,4.41,4.41,0,0,1,1.23-3.21,4.23,4.23,0,0,1,3.13-1.25,5.27,5.27,0,0,1,2.3.45v1.09a4.41,4.41,0,0,0-2.41-.65,3,3,0,0,0-2.32,1,4.06,4.06,0,0,0-.06,5,2.92,2.92,0,0,0,2.27.91,3.54,3.54,0,0,0,1.71-.39V81.27h-1.84v-.89h2.82Z" fill="#1e1e1e"/>
          <path d="M250.73,84.77h-4.45V76.36h4.26v.89h-3.28v2.8h3v.88h-3v2.95h3.47Z" fill="#1e1e1e"/>
          <path d="M257.39,77.25H255v7.52h-1V77.25h-2.42v-.89h5.83Z" fill="#1e1e1e"/>
          <path d="M267.76,81.66h-2.37V84h-.78V81.66h-2.36v-.78h2.36V78.51h.78v2.37h2.37Z" fill="#1e1e1e"/>
        </g>
      </g>
    </g>
  </g>
</svg>
