<svg xmlns="http://www.w3.org/2000/svg" viewBox="0 0 542 232.32">
  <title>ink-recognizer-pen-graph</title>
  <g id="Shapes">
    <rect x="-1.22" width="544.23" height="233.3" fill="#fff"/>
    <g>
      <g>
        <rect x="291.5" y="16.82" width="249" height="215" fill="#fff"/>
        <rect x="291.5" y="16.82" width="249" height="215" fill="#3c3c41" opacity="0.03"/>
      </g>
      <path d="M540.5,232.32h-1v-1h.5v-.5h1v1h-.5Zm-3,0h-1v-1h1Zm-3,0h-1v-1h1Zm-3,0h-1v-1h1Zm-3,0h-1v-1h1Zm-3,0h-1v-1h1Zm-3,0h-1v-1h1Zm-3,0h-1v-1h1Zm-3,0h-1v-1h1Zm-3,0h-1v-1h1Zm-3,0h-1v-1h1Zm-3,0h-1v-1h1Zm-3,0h-1v-1h1Zm-3,0h-1v-1h1Zm-3,0h-1v-1h1Zm-3,0h-1v-1h1Zm-3,0h-1v-1h1Zm-3,0h-1v-1h1Zm-3,0h-1v-1h1Zm-3,0h-1v-1h1Zm-3,0h-1v-1h1Zm-3,0h-1v-1h1Zm-3,0h-1v-1h1Zm-3,0h-1v-1h1Zm-3,0h-1v-1h1Zm-3,0h-1v-1h1Zm-3,0h-1v-1h1Zm-3,0h-1v-1h1Zm-3,0h-1v-1h1Zm-3,0h-1v-1h1Zm-3,0h-1v-1h1Zm-3,0h-1v-1h1Zm-3,0h-1v-1h1Zm-3,0h-1v-1h1Zm-3,0h-1v-1h1Zm-3,0h-1v-1h1Zm-3,0h-1v-1h1Zm-3,0h-1v-1h1Zm-3,0h-1v-1h1Zm-3,0h-1v-1h1Zm-3,0h-1v-1h1Zm-3,0h-1v-1h1Zm-3,0h-1v-1h1Zm-3,0h-1v-1h1Zm-3,0h-1v-1h1Zm-3,0h-1v-1h1Zm-3,0h-1v-1h1Zm-3,0h-1v-1h1Zm-3,0h-1v-1h1Zm-3,0h-1v-1h1Zm-3,0h-1v-1h1Zm-3,0h-1v-1h1Zm-3,0h-1v-1h1Zm-3,0h-1v-1h1Zm-3,0h-1v-1h1Zm-3,0h-1v-1h1Zm-3,0h-1v-1h1Zm-3,0h-1v-1h1Zm-3,0h-1v-1h1Zm-3,0h-1v-1h1Zm-3,0h-1v-1h1Zm-3,0h-1v-1h1Zm-3,0h-1v-1h1Zm-3,0h-1v-1h1Zm-3,0h-1v-1h1Zm-3,0h-1v-1h1Zm-3,0h-1v-1h1Zm-3,0h-1v-1h1Zm-3,0h-1v-1h1Zm-3,0h-1v-1h1Zm-3,0h-1v-1h1Zm-3,0h-1v-1h1Zm-3,0h-1v-1h1Zm-3,0h-1v-1h1Zm-3,0h-1v-1h1Zm-3,0h-1v-1h1Zm-3,0h-1v-1h1Zm-3,0h-1v-1h1Zm-3,0h-1v-1h1Zm-3,0h-1v-1h1Zm-3,0h-1v-1h1Zm-3,0h-1v-1h1Zm-3,0h-1v-1h1Zm-2.5-.5h-1v-1h1Zm249-3h-1v-1h1Zm-249,0h-1v-1h1Zm249-3h-1v-1h1Zm-249,0h-1v-1h1Zm249-3h-1v-1h1Zm-249,0h-1v-1h1Zm249-3h-1v-1h1Zm-249,0h-1v-1h1Zm249-3h-1v-1h1Zm-249,0h-1v-1h1Zm249-3h-1v-1h1Zm-249,0h-1v-1h1Zm249-3h-1v-1h1Zm-249,0h-1v-1h1Zm249-3h-1v-1h1Zm-249,0h-1v-1h1Zm249-3h-1v-1h1Zm-249,0h-1v-1h1Zm249-3h-1v-1h1Zm-249,0h-1v-1h1Zm249-3h-1v-1h1Zm-249,0h-1v-1h1Zm249-3h-1v-1h1Zm-249,0h-1v-1h1Zm249-3h-1v-1h1Zm-249,0h-1v-1h1Zm249-3h-1v-1h1Zm-249,0h-1v-1h1Zm249-3h-1v-1h1Zm-249,0h-1v-1h1Zm249-3h-1v-1h1Zm-249,0h-1v-1h1Zm249-3h-1v-1h1Zm-249,0h-1v-1h1Zm249-3h-1v-1h1Zm-249,0h-1v-1h1Zm249-3h-1v-1h1Zm-249,0h-1v-1h1Zm249-3h-1v-1h1Zm-249,0h-1v-1h1Zm249-3h-1v-1h1Zm-249,0h-1v-1h1Zm249-3h-1v-1h1Zm-249,0h-1v-1h1Zm249-3h-1v-1h1Zm-249,0h-1v-1h1Zm249-3h-1v-1h1Zm-249,0h-1v-1h1Zm249-3h-1v-1h1Zm-249,0h-1v-1h1Zm249-3h-1v-1h1Zm-249,0h-1v-1h1Zm249-3h-1v-1h1Zm-249,0h-1v-1h1Zm249-3h-1v-1h1Zm-249,0h-1v-1h1Zm249-3h-1v-1h1Zm-249,0h-1v-1h1Zm249-3h-1v-1h1Zm-249,0h-1v-1h1Zm249-3h-1v-1h1Zm-249,0h-1v-1h1Zm249-3h-1v-1h1Zm-249,0h-1v-1h1Zm249-3h-1v-1h1Zm-249,0h-1v-1h1Zm249-3h-1v-1h1Zm-249,0h-1v-1h1Zm249-3h-1v-1h1Zm-249,0h-1v-1h1Zm249-3h-1v-1h1Zm-249,0h-1v-1h1Zm249-3h-1v-1h1Zm-249,0h-1v-1h1Zm249-3h-1v-1h1Zm-249,0h-1v-1h1Zm249-3h-1v-1h1Zm-249,0h-1v-1h1Zm249-3h-1v-1h1Zm-249,0h-1v-1h1Zm249-3h-1v-1h1Zm-249,0h-1v-1h1Zm249-3h-1v-1h1Zm-249,0h-1v-1h1Zm249-3h-1v-1h1Zm-249,0h-1v-1h1Zm249-3h-1v-1h1Zm-249,0h-1v-1h1Zm249-3h-1v-1h1Zm-249,0h-1v-1h1Zm249-3h-1v-1h1Zm-249,0h-1v-1h1Zm249-3h-1v-1h1Zm-249,0h-1v-1h1Zm249-3h-1v-1h1Zm-249,0h-1v-1h1Zm249-3h-1v-1h1Zm-249,0h-1v-1h1Zm249-3h-1v-1h1Zm-249,0h-1v-1h1Zm249-3h-1v-1h1Zm-249,0h-1v-1h1Zm249-3h-1v-1h1Zm-249,0h-1v-1h1Zm249-3h-1v-1h1Zm-249,0h-1v-1h1Zm249-3h-1v-1h1Zm-249,0h-1v-1h1Zm249-3h-1v-1h1Zm-249,0h-1v-1h1Zm249-3h-1v-1h1Zm-249,0h-1v-1h1Zm249-3h-1v-1h1Zm-249,0h-1v-1h1Zm249-3h-1v-1h1Zm-249,0h-1v-1h1Zm249-3h-1v-1h1Zm-249,0h-1v-1h1Zm249-3h-1v-1h1Zm-249,0h-1v-1h1Zm249-3h-1v-1h1Zm-249,0h-1v-1h1Zm249-3h-1v-1h1Zm-249,0h-1v-1h1Zm249-3h-1v-1h1Zm-249,0h-1v-1h1Zm249-3h-1v-1h1Zm-249,0h-1v-1h1Zm249-3h-1v-1h1Zm-249,0h-1v-1h1Zm249-3h-1v-1h1Zm-249,0h-1v-1h1Zm249-3h-1v-1h1Zm-249,0h-1v-1h1Zm249-3h-1v-1h1Zm-249,0h-1v-1h1Zm249-3h-1v-1h1Zm-249,0h-1v-1h1Zm249-3h-1v-1h1Zm-249,0h-1v-1h1Zm249-3h-1v-1h1Zm-249,0h-1v-1h1Zm247.5-1.5h-1v-1h1Zm-3,0h-1v-1h1Zm-3,0h-1v-1h1Zm-3,0h-1v-1h1Zm-3,0h-1v-1h1Zm-3,0h-1v-1h1Zm-3,0h-1v-1h1Zm-3,0h-1v-1h1Zm-3,0h-1v-1h1Zm-3,0h-1v-1h1Zm-3,0h-1v-1h1Zm-3,0h-1v-1h1Zm-3,0h-1v-1h1Zm-3,0h-1v-1h1Zm-3,0h-1v-1h1Zm-3,0h-1v-1h1Zm-3,0h-1v-1h1Zm-3,0h-1v-1h1Zm-3,0h-1v-1h1Zm-3,0h-1v-1h1Zm-3,0h-1v-1h1Zm-3,0h-1v-1h1Zm-3,0h-1v-1h1Zm-3,0h-1v-1h1Zm-3,0h-1v-1h1Zm-3,0h-1v-1h1Zm-3,0h-1v-1h1Zm-3,0h-1v-1h1Zm-3,0h-1v-1h1Zm-3,0h-1v-1h1Zm-3,0h-1v-1h1Zm-3,0h-1v-1h1Zm-3,0h-1v-1h1Zm-3,0h-1v-1h1Zm-3,0h-1v-1h1Zm-3,0h-1v-1h1Zm-3,0h-1v-1h1Zm-3,0h-1v-1h1Zm-3,0h-1v-1h1Zm-3,0h-1v-1h1Zm-3,0h-1v-1h1Zm-3,0h-1v-1h1Zm-3,0h-1v-1h1Zm-3,0h-1v-1h1Zm-3,0h-1v-1h1Zm-3,0h-1v-1h1Zm-3,0h-1v-1h1Zm-3,0h-1v-1h1Zm-3,0h-1v-1h1Zm-3,0h-1v-1h1Zm-3,0h-1v-1h1Zm-3,0h-1v-1h1Zm-3,0h-1v-1h1Zm-3,0h-1v-1h1Zm-3,0h-1v-1h1Zm-3,0h-1v-1h1Zm-3,0h-1v-1h1Zm-3,0h-1v-1h1Zm-3,0h-1v-1h1Zm-3,0h-1v-1h1Zm-3,0h-1v-1h1Zm-3,0h-1v-1h1Zm-3,0h-1v-1h1Zm-3,0h-1v-1h1Zm-3,0h-1v-1h1Zm-3,0h-1v-1h1Zm-3,0h-1v-1h1Zm-3,0h-1v-1h1Zm-3,0h-1v-1h1Zm-3,0h-1v-1h1Zm-3,0h-1v-1h1Zm-3,0h-1v-1h1Zm-3,0h-1v-1h1Zm-3,0h-1v-1h1Zm-3,0h-1v-1h1Zm-3,0h-1v-1h1Zm-3,0h-1v-1h1Zm-3,0h-1v-1h1Zm-3,0h-1v-1h1Zm-3,0h-1v-1h1Zm-3,0h-1v-1h1Zm-3,0h-1v-1h1Zm-3,0h-1v-1h1Z" fill="#3c3c41"/>
    </g>
    <g>
      <g>
        <rect x="5.5" y="16.82" width="150" height="215" fill="#fff"/>
        <rect x="5.5" y="16.82" width="150" height="215" fill="#3c3c41" opacity="0.03"/>
      </g>
      <path d="M155.5,232.32h-1v-1h.5v-.5h1v1h-.5Zm-3,0h-1v-1h1Zm-3,0h-1v-1h1Zm-3,0h-1v-1h1Zm-3,0h-1v-1h1Zm-3,0h-1v-1h1Zm-3,0h-1v-1h1Zm-3,0h-1v-1h1Zm-3,0h-1v-1h1Zm-3,0h-1v-1h1Zm-3,0h-1v-1h1Zm-3,0h-1v-1h1Zm-3,0h-1v-1h1Zm-3,0h-1v-1h1Zm-3,0h-1v-1h1Zm-3,0h-1v-1h1Zm-3,0h-1v-1h1Zm-3,0h-1v-1h1Zm-3,0h-1v-1h1Zm-3,0h-1v-1h1Zm-3,0h-1v-1h1Zm-3,0h-1v-1h1Zm-3,0h-1v-1h1Zm-3,0h-1v-1h1Zm-3,0h-1v-1h1Zm-3,0h-1v-1h1Zm-3,0h-1v-1h1Zm-3,0h-1v-1h1Zm-3,0h-1v-1h1Zm-3,0h-1v-1h1Zm-3,0h-1v-1h1Zm-3,0h-1v-1h1Zm-3,0h-1v-1h1Zm-3,0h-1v-1h1Zm-3,0h-1v-1h1Zm-3,0h-1v-1h1Zm-3,0h-1v-1h1Zm-3,0h-1v-1h1Zm-3,0h-1v-1h1Zm-3,0h-1v-1h1Zm-3,0h-1v-1h1Zm-3,0h-1v-1h1Zm-3,0h-1v-1h1Zm-3,0h-1v-1h1Zm-3,0h-1v-1h1Zm-3,0h-1v-1h1Zm-3,0h-1v-1h1Zm-3,0h-1v-1h1Zm-3,0h-1v-1h1Zm-3,0h-1v-1h1Zm-2.5-.5H5v-1H6Zm150-3h-1v-1h1Zm-150,0H5v-1H6Zm150-3h-1v-1h1Zm-150,0H5v-1H6Zm150-3h-1v-1h1Zm-150,0H5v-1H6Zm150-3h-1v-1h1Zm-150,0H5v-1H6Zm150-3h-1v-1h1Zm-150,0H5v-1H6Zm150-3h-1v-1h1Zm-150,0H5v-1H6Zm150-3h-1v-1h1Zm-150,0H5v-1H6Zm150-3h-1v-1h1Zm-150,0H5v-1H6Zm150-3h-1v-1h1Zm-150,0H5v-1H6Zm150-3h-1v-1h1Zm-150,0H5v-1H6Zm150-3h-1v-1h1Zm-150,0H5v-1H6Zm150-3h-1v-1h1Zm-150,0H5v-1H6Zm150-3h-1v-1h1Zm-150,0H5v-1H6Zm150-3h-1v-1h1Zm-150,0H5v-1H6Zm150-3h-1v-1h1Zm-150,0H5v-1H6Zm150-3h-1v-1h1Zm-150,0H5v-1H6Zm150-3h-1v-1h1Zm-150,0H5v-1H6Zm150-3h-1v-1h1Zm-150,0H5v-1H6Zm150-3h-1v-1h1Zm-150,0H5v-1H6Zm150-3h-1v-1h1Zm-150,0H5v-1H6Zm150-3h-1v-1h1Zm-150,0H5v-1H6Zm150-3h-1v-1h1Zm-150,0H5v-1H6Zm150-3h-1v-1h1Zm-150,0H5v-1H6Zm150-3h-1v-1h1Zm-150,0H5v-1H6Zm150-3h-1v-1h1Zm-150,0H5v-1H6Zm150-3h-1v-1h1Zm-150,0H5v-1H6Zm150-3h-1v-1h1Zm-150,0H5v-1H6Zm150-3h-1v-1h1Zm-150,0H5v-1H6Zm150-3h-1v-1h1Zm-150,0H5v-1H6Zm150-3h-1v-1h1Zm-150,0H5v-1H6Zm150-3h-1v-1h1Zm-150,0H5v-1H6Zm150-3h-1v-1h1Zm-150,0H5v-1H6Zm150-3h-1v-1h1Zm-150,0H5v-1H6Zm150-3h-1v-1h1Zm-150,0H5v-1H6Zm150-3h-1v-1h1Zm-150,0H5v-1H6Zm150-3h-1v-1h1Zm-150,0H5v-1H6Zm150-3h-1v-1h1Zm-150,0H5v-1H6Zm150-3h-1v-1h1Zm-150,0H5v-1H6Zm150-3h-1v-1h1Zm-150,0H5v-1H6Zm150-3h-1v-1h1Zm-150,0H5v-1H6Zm150-3h-1v-1h1Zm-150,0H5v-1H6Zm150-3h-1v-1h1Zm-150,0H5v-1H6Zm150-3h-1v-1h1Zm-150,0H5v-1H6Zm150-3h-1v-1h1Zm-150,0H5v-1H6Zm150-3h-1v-1h1Zm-150,0H5v-1H6Zm150-3h-1v-1h1Zm-150,0H5v-1H6Zm150-3h-1v-1h1Zm-150,0H5v-1H6Zm150-3h-1v-1h1Zm-150,0H5v-1H6Zm150-3h-1v-1h1Zm-150,0H5v-1H6Zm150-3h-1v-1h1Zm-150,0H5v-1H6Zm150-3h-1v-1h1Zm-150,0H5v-1H6Zm150-3h-1v-1h1Zm-150,0H5v-1H6Zm150-3h-1v-1h1Zm-150,0H5v-1H6Zm150-3h-1v-1h1Zm-150,0H5v-1H6Zm150-3h-1v-1h1Zm-150,0H5v-1H6Zm150-3h-1v-1h1Zm-150,0H5v-1H6Zm150-3h-1v-1h1Zm-150,0H5v-1H6Zm150-3h-1v-1h1Zm-150,0H5v-1H6Zm150-3h-1v-1h1Zm-150,0H5v-1H6Zm150-3h-1v-1h1Zm-150,0H5v-1H6Zm150-3h-1v-1h1Zm-150,0H5v-1H6Zm150-3h-1v-1h1Zm-150,0H5v-1H6Zm150-3h-1v-1h1Zm-150,0H5v-1H6Zm150-3h-1v-1h1Zm-150,0H5v-1H6Zm150-3h-1v-1h1Zm-150,0H5v-1H6Zm150-3h-1v-1h1Zm-150,0H5v-1H6Zm150-3h-1v-1h1Zm-150,0H5v-1H6Zm150-3h-1v-1h1Zm-150,0H5v-1H6Zm150-3h-1v-1h1Zm-150,0H5v-1H6Zm150-3h-1v-1h1Zm-150,0H5v-1H6Zm150-3h-1v-1h1Zm-150,0H5v-1H6Zm148.5-1.5h-1v-1h1Zm-3,0h-1v-1h1Zm-3,0h-1v-1h1Zm-3,0h-1v-1h1Zm-3,0h-1v-1h1Zm-3,0h-1v-1h1Zm-3,0h-1v-1h1Zm-3,0h-1v-1h1Zm-3,0h-1v-1h1Zm-3,0h-1v-1h1Zm-3,0h-1v-1h1Zm-3,0h-1v-1h1Zm-3,0h-1v-1h1Zm-3,0h-1v-1h1Zm-3,0h-1v-1h1Zm-3,0h-1v-1h1Zm-3,0h-1v-1h1Zm-3,0h-1v-1h1Zm-3,0h-1v-1h1Zm-3,0h-1v-1h1Zm-3,0h-1v-1h1Zm-3,0h-1v-1h1Zm-3,0h-1v-1h1Zm-3,0h-1v-1h1Zm-3,0h-1v-1h1Zm-3,0h-1v-1h1Zm-3,0h-1v-1h1Zm-3,0h-1v-1h1Zm-3,0h-1v-1h1Zm-3,0h-1v-1h1Zm-3,0h-1v-1h1Zm-3,0h-1v-1h1Zm-3,0h-1v-1h1Zm-3,0h-1v-1h1Zm-3,0h-1v-1h1Zm-3,0h-1v-1h1Zm-3,0h-1v-1h1Zm-3,0h-1v-1h1Zm-3,0h-1v-1h1Zm-3,0h-1v-1h1Zm-3,0h-1v-1h1Zm-3,0h-1v-1h1Zm-3,0h-1v-1h1Zm-3,0h-1v-1h1Zm-3,0h-1v-1h1Zm-3,0h-1v-1h1Zm-3,0h-1v-1h1Zm-3,0h-1v-1h1Zm-3,0h-1v-1h1Zm-3,0h-1v-1h1Z" fill="#3c3c41"/>
    </g>
    <g>
      <g>
        <rect x="166.5" y="16.82" width="114" height="215" fill="#fff"/>
        <rect x="166.5" y="16.82" width="114" height="215" fill="#3c3c41" opacity="0.03"/>
      </g>
      <path d="M281,232.32h-1.5v-1h.5v-.5h1Zm-3.5,0h-1v-1h1Zm-3,0h-1v-1h1Zm-3,0h-1v-1h1Zm-3,0h-1v-1h1Zm-3,0h-1v-1h1Zm-3,0h-1v-1h1Zm-3,0h-1v-1h1Zm-3,0h-1v-1h1Zm-3,0h-1v-1h1Zm-3,0h-1v-1h1Zm-3,0h-1v-1h1Zm-3,0h-1v-1h1Zm-3,0h-1v-1h1Zm-3,0h-1v-1h1Zm-3,0h-1v-1h1Zm-3,0h-1v-1h1Zm-3,0h-1v-1h1Zm-3,0h-1v-1h1Zm-3,0h-1v-1h1Zm-3,0h-1v-1h1Zm-3,0h-1v-1h1Zm-3,0h-1v-1h1Zm-3,0h-1v-1h1Zm-3,0h-1v-1h1Zm-3,0h-1v-1h1Zm-3,0h-1v-1h1Zm-3,0h-1v-1h1Zm-3,0h-1v-1h1Zm-3,0h-1v-1h1Zm-3,0h-1v-1h1Zm-3,0h-1v-1h1Zm-3,0h-1v-1h1Zm-3,0h-1v-1h1Zm-3,0h-1v-1h1Zm-3,0h-1v-1h1Zm-3,0h-1v-1h1Zm-3,0h-1v-1h1Zm-2.5-.5h-1v-1h1Zm114-3h-1v-1h1Zm-114,0h-1v-1h1Zm114-3h-1v-1h1Zm-114,0h-1v-1h1Zm114-3h-1v-1h1Zm-114,0h-1v-1h1Zm114-3h-1v-1h1Zm-114,0h-1v-1h1Zm114-3h-1v-1h1Zm-114,0h-1v-1h1Zm114-3h-1v-1h1Zm-114,0h-1v-1h1Zm114-3h-1v-1h1Zm-114,0h-1v-1h1Zm114-3h-1v-1h1Zm-114,0h-1v-1h1Zm114-3h-1v-1h1Zm-114,0h-1v-1h1Zm114-3h-1v-1h1Zm-114,0h-1v-1h1Zm114-3h-1v-1h1Zm-114,0h-1v-1h1Zm114-3h-1v-1h1Zm-114,0h-1v-1h1Zm114-3h-1v-1h1Zm-114,0h-1v-1h1Zm114-3h-1v-1h1Zm-114,0h-1v-1h1Zm114-3h-1v-1h1Zm-114,0h-1v-1h1Zm114-3h-1v-1h1Zm-114,0h-1v-1h1Zm114-3h-1v-1h1Zm-114,0h-1v-1h1Zm114-3h-1v-1h1Zm-114,0h-1v-1h1Zm114-3h-1v-1h1Zm-114,0h-1v-1h1Zm114-3h-1v-1h1Zm-114,0h-1v-1h1Zm114-3h-1v-1h1Zm-114,0h-1v-1h1Zm114-3h-1v-1h1Zm-114,0h-1v-1h1Zm114-3h-1v-1h1Zm-114,0h-1v-1h1Zm114-3h-1v-1h1Zm-114,0h-1v-1h1Zm114-3h-1v-1h1Zm-114,0h-1v-1h1Zm114-3h-1v-1h1Zm-114,0h-1v-1h1Zm114-3h-1v-1h1Zm-114,0h-1v-1h1Zm114-3h-1v-1h1Zm-114,0h-1v-1h1Zm114-3h-1v-1h1Zm-114,0h-1v-1h1Zm114-3h-1v-1h1Zm-114,0h-1v-1h1Zm114-3h-1v-1h1Zm-114,0h-1v-1h1Zm114-3h-1v-1h1Zm-114,0h-1v-1h1Zm114-3h-1v-1h1Zm-114,0h-1v-1h1Zm114-3h-1v-1h1Zm-114,0h-1v-1h1Zm114-3h-1v-1h1Zm-114,0h-1v-1h1Zm114-3h-1v-1h1Zm-114,0h-1v-1h1Zm114-3h-1v-1h1Zm-114,0h-1v-1h1Zm114-3h-1v-1h1Zm-114,0h-1v-1h1Zm114-3h-1v-1h1Zm-114,0h-1v-1h1Zm114-3h-1v-1h1Zm-114,0h-1v-1h1Zm114-3h-1v-1h1Zm-114,0h-1v-1h1Zm114-3h-1v-1h1Zm-114,0h-1v-1h1Zm114-3h-1v-1h1Zm-114,0h-1v-1h1Zm114-3h-1v-1h1Zm-114,0h-1v-1h1Zm114-3h-1v-1h1Zm-114,0h-1v-1h1Zm114-3h-1v-1h1Zm-114,0h-1v-1h1Zm114-3h-1v-1h1Zm-114,0h-1v-1h1Zm114-3h-1v-1h1Zm-114,0h-1v-1h1Zm114-3h-1v-1h1Zm-114,0h-1v-1h1Zm114-3h-1v-1h1Zm-114,0h-1v-1h1Zm114-3h-1v-1h1Zm-114,0h-1v-1h1Zm114-3h-1v-1h1Zm-114,0h-1v-1h1Zm114-3h-1v-1h1Zm-114,0h-1v-1h1Zm114-3h-1v-1h1Zm-114,0h-1v-1h1Zm114-3h-1v-1h1Zm-114,0h-1v-1h1Zm114-3h-1v-1h1Zm-114,0h-1v-1h1Zm114-3h-1v-1h1Zm-114,0h-1v-1h1Zm114-3h-1v-1h1Zm-114,0h-1v-1h1Zm114-3h-1v-1h1Zm-114,0h-1v-1h1Zm114-3h-1v-1h1Zm-114,0h-1v-1h1Zm114-3h-1v-1h1Zm-114,0h-1v-1h1Zm114-3h-1v-1h1Zm-114,0h-1v-1h1Zm114-3h-1v-1h1Zm-114,0h-1v-1h1Zm114-3h-1v-1h1Zm-114,0h-1v-1h1Zm114-3h-1v-1h1Zm-114,0h-1v-1h1Zm114-3h-1v-1h1Zm-114,0h-1v-1h1Zm114-3h-1v-1h1Zm-114,0h-1v-1h1Zm114-3h-1v-1h1Zm-114,0h-1v-1h1Zm114-3h-1v-1h1Zm-114,0h-1v-1h1Zm114-3h-1v-1h1Zm-114,0h-1v-1h1Zm114-3h-1v-1h1Zm-114,0h-1v-1h1Zm112.5-1.5h-1v-1h1Zm-3,0h-1v-1h1Zm-3,0h-1v-1h1Zm-3,0h-1v-1h1Zm-3,0h-1v-1h1Zm-3,0h-1v-1h1Zm-3,0h-1v-1h1Zm-3,0h-1v-1h1Zm-3,0h-1v-1h1Zm-3,0h-1v-1h1Zm-3,0h-1v-1h1Zm-3,0h-1v-1h1Zm-3,0h-1v-1h1Zm-3,0h-1v-1h1Zm-3,0h-1v-1h1Zm-3,0h-1v-1h1Zm-3,0h-1v-1h1Zm-3,0h-1v-1h1Zm-3,0h-1v-1h1Zm-3,0h-1v-1h1Zm-3,0h-1v-1h1Zm-3,0h-1v-1h1Zm-3,0h-1v-1h1Zm-3,0h-1v-1h1Zm-3,0h-1v-1h1Zm-3,0h-1v-1h1Zm-3,0h-1v-1h1Zm-3,0h-1v-1h1Zm-3,0h-1v-1h1Zm-3,0h-1v-1h1Zm-3,0h-1v-1h1Zm-3,0h-1v-1h1Zm-3,0h-1v-1h1Zm-3,0h-1v-1h1Zm-3,0h-1v-1h1Zm-3,0h-1v-1h1Zm-3,0h-1v-1h1Zm-3,0h-1v-1h1Z" fill="#3c3c41"/>
    </g>
    <g>
      <path d="M240.86,97.78l-2.64-1.3a2.69,2.69,0,0,0-3.55,1.15l-1,1.87a1.5,1.5,0,0,0-1.87.74L230,103.77l-1.87-1a2.82,2.82,0,0,0-3.77,1.25l-6,11.93a1.47,1.47,0,0,0,.65,2,1.5,1.5,0,0,0,2-.64L227,105.7l1.63.82-14.27,28.42v4.47a3.76,3.76,0,0,0,.65,2.14l-1.31,2.53a1.55,1.55,0,0,0,.67,2.07,1.52,1.52,0,0,0,2.05-.67l1.18-2.31a3.77,3.77,0,0,0,2.21-.37l4.69-2.36L242,105.34a1.49,1.49,0,0,0-.65-2l.81-1.69A2.91,2.91,0,0,0,240.86,97.78ZM222.22,138.1l-3.75,2a.69.69,0,0,1-1-.6l0-3.72L233.84,103l4.78,2.39ZM238.63,102l-2.18-1.08.73-1.46,2.19,1.1Z" fill="#0078d4"/>
      <path d="M242.51,115.07a1.52,1.52,0,0,0,0,3h.14a3.17,3.17,0,0,1-.18,6.34h-5.42l-1.56,3.08h7a6.26,6.26,0,0,0,6.18-6.26A6.18,6.18,0,0,0,242.51,115.07Z" fill="#0078d4"/>
      <path d="M210.78,143.18h-1.11a7.85,7.85,0,0,1,0-15.69h3.92l1.59-3.07H209.6a10.93,10.93,0,0,0,0,21.86h1.18a3.62,3.62,0,0,1-.33-1.55A3.54,3.54,0,0,1,210.78,143.18Z" fill="#0078d4"/>
    </g>
    <path d="M75.5,92.76A42.36,42.36,0,0,0,22.67,139c.95,7.61,4.38,15.37,10.92,19.36,9,5.5,20.6,2.39,30.51-1.22a439.37,439.37,0,0,0,43.33-18.48c13.23-6.51,27.71-15.92,29.19-30.59,1.11-11-6.27-21.78-16.17-26.75S98.71,76.42,88,79.24,67.44,87.43,57.72,92.73" fill="none" stroke="#ed1c24" stroke-linecap="round" stroke-miterlimit="10" stroke-width="3"/>
    <g>
      <line x1="156" y1="118.32" x2="175.62" y2="118.32" fill="none" stroke="#000" stroke-miterlimit="10"/>
      <polygon points="174.52 122.06 181 118.32 174.52 114.58 174.52 122.06"/>
    </g>
    <g>
      <line x1="271" y1="118.32" x2="295.62" y2="118.32" fill="none" stroke="#000" stroke-miterlimit="10"/>
      <polygon points="294.52 122.06 301 118.32 294.52 114.58 294.52 122.06"/>
    </g>
    <g>
      <rect x="301" y="26.32" width="230" height="21" fill="#fff"/>
      <rect x="301" y="26.32" width="230" height="21" fill="#3c3c41" opacity="0.2"/>
    </g>
    <g>
      <rect x="301" y="67.32" width="105" height="21" fill="#fff"/>
      <rect x="301" y="67.32" width="105" height="21" fill="#3c3c41" opacity="0.2"/>
    </g>
    <g>
      <rect x="301.22" y="107.32" width="105" height="21" fill="#fff"/>
      <rect x="301.22" y="107.32" width="105" height="21" fill="#3c3c41" opacity="0.2"/>
    </g>
    <g>
      <rect x="301" y="147.82" width="105" height="21" fill="#fff"/>
      <rect x="301" y="147.82" width="105" height="21" fill="#3c3c41" opacity="0.2"/>
    </g>
    <g>
      <rect x="301" y="187.82" width="105" height="35" fill="#fff"/>
      <rect x="301" y="187.82" width="105" height="35" fill="#3c3c41" opacity="0.2"/>
    </g>
    <g>
      <rect x="426" y="66.32" width="105" height="35" fill="#fff"/>
      <rect x="426" y="66.32" width="105" height="35" fill="#3c3c41" opacity="0.2"/>
    </g>
    <g>
      <line x1="353.5" y1="47.32" x2="353.5" y2="60.94" fill="none" stroke="#000" stroke-miterlimit="10"/>
      <polygon points="349.76 59.84 353.5 66.32 357.24 59.84 349.76 59.84"/>
    </g>
    <g>
      <line x1="353.5" y1="88.32" x2="353.5" y2="101.94" fill="none" stroke="#000" stroke-miterlimit="10"/>
      <polygon points="349.76 100.84 353.5 107.32 357.24 100.84 349.76 100.84"/>
    </g>
    <g>
      <line x1="353.5" y1="128.32" x2="353.5" y2="141.94" fill="none" stroke="#000" stroke-miterlimit="10"/>
      <polygon points="349.76 140.84 353.5 147.32 357.24 140.84 349.76 140.84"/>
    </g>
    <g>
      <line x1="353.5" y1="168.82" x2="353.5" y2="182.44" fill="none" stroke="#000" stroke-miterlimit="10"/>
      <polygon points="349.76 181.34 353.5 187.82 357.24 181.34 349.76 181.34"/>
    </g>
    <g>
      <line x1="478.5" y1="47.32" x2="478.5" y2="60.94" fill="none" stroke="#000" stroke-miterlimit="10"/>
      <polygon points="474.76 59.84 478.5 66.32 482.24 59.84 474.76 59.84"/>
    </g>
  </g>
  <g id="Text">
    <g>
      <path d="M40.26,10.2h-1V1.8h1Z" fill="#1e1e1e"/>
      <path d="M47.32,10.2h-1V6.78c0-1.27-.46-1.91-1.39-1.91a1.5,1.5,0,0,0-1.19.54,2,2,0,0,0-.48,1.37V10.2h-1v-6h1v1h0a2.16,2.16,0,0,1,2-1.14,1.82,1.82,0,0,1,1.5.64,2.79,2.79,0,0,1,.52,1.83Z" fill="#1e1e1e"/>
      <path d="M54.11,10.2H52.77L50.12,7.32h0V10.2h-1V1.32h1V7h0L52.64,4.2H53.9L51.11,7.1Z" fill="#1e1e1e"/>
      <path d="M58,10V9a2.84,2.84,0,0,0,1.73.58c.84,0,1.27-.28,1.27-.84a.76.76,0,0,0-.11-.41A1,1,0,0,0,60.62,8a2.28,2.28,0,0,0-.44-.24l-.53-.21a5.16,5.16,0,0,1-.7-.32,2.29,2.29,0,0,1-.51-.36,1.52,1.52,0,0,1-.3-.46A1.58,1.58,0,0,1,58,5.79a1.39,1.39,0,0,1,.2-.74,1.78,1.78,0,0,1,.51-.55,2.77,2.77,0,0,1,.74-.33,3.41,3.41,0,0,1,.85-.11,3.46,3.46,0,0,1,1.4.27v1a2.74,2.74,0,0,0-1.53-.43,1.75,1.75,0,0,0-.48.06,1.33,1.33,0,0,0-.38.17,1,1,0,0,0-.24.27.77.77,0,0,0-.08.34,1,1,0,0,0,.08.4,1.07,1.07,0,0,0,.25.28,2.11,2.11,0,0,0,.4.22l.53.22a6.21,6.21,0,0,1,.72.31,2.82,2.82,0,0,1,.54.36,1.41,1.41,0,0,1,.34.47A1.48,1.48,0,0,1,62,8.6a1.41,1.41,0,0,1-.2.77,1.58,1.58,0,0,1-.52.54,2.28,2.28,0,0,1-.76.33,3.68,3.68,0,0,1-.89.1A3.41,3.41,0,0,1,58,10Z" fill="#1e1e1e"/>
      <path d="M66.26,10.14a1.8,1.8,0,0,1-.9.19c-1,0-1.57-.59-1.57-1.76V5h-1V4.2h1V2.74l1-.31V4.2h1.51V5H64.75V8.4a1.45,1.45,0,0,0,.2.86.81.81,0,0,0,.68.26,1,1,0,0,0,.63-.2Z" fill="#1e1e1e"/>
      <path d="M70.67,5.17A1.16,1.16,0,0,0,70,5a1.21,1.21,0,0,0-1,.58,2.64,2.64,0,0,0-.42,1.58V10.2h-1v-6h1V5.44h0a2.09,2.09,0,0,1,.63-1,1.39,1.39,0,0,1,.94-.35,1.44,1.44,0,0,1,.57.08Z" fill="#1e1e1e"/>
      <path d="M74.22,10.34A2.79,2.79,0,0,1,72.1,9.5a3.1,3.1,0,0,1-.79-2.23,3.24,3.24,0,0,1,.82-2.36,3,3,0,0,1,2.23-.85,2.7,2.7,0,0,1,2.1.83,3.27,3.27,0,0,1,.75,2.29,3.25,3.25,0,0,1-.81,2.3A2.87,2.87,0,0,1,74.22,10.34Zm.07-5.47a1.83,1.83,0,0,0-1.46.63,2.59,2.59,0,0,0-.54,1.74,2.46,2.46,0,0,0,.54,1.68,1.86,1.86,0,0,0,1.46.61,1.77,1.77,0,0,0,1.44-.6,2.63,2.63,0,0,0,.5-1.72,2.66,2.66,0,0,0-.5-1.73A1.75,1.75,0,0,0,74.29,4.87Z" fill="#1e1e1e"/>
      <path d="M83.73,10.2H82.38L79.73,7.32h0V10.2h-1V1.32h1V7h0L82.25,4.2h1.26L80.73,7.1Z" fill="#1e1e1e"/>
      <path d="M89.53,7.44H85.3A2.19,2.19,0,0,0,85.84,9a1.85,1.85,0,0,0,1.41.54,3,3,0,0,0,1.87-.66v.9a3.52,3.52,0,0,1-2.09.57,2.52,2.52,0,0,1-2-.82,3.31,3.31,0,0,1-.73-2.3,3.29,3.29,0,0,1,.8-2.28,2.53,2.53,0,0,1,2-.88,2.25,2.25,0,0,1,1.82.76,3.19,3.19,0,0,1,.64,2.12Zm-1-.81a2,2,0,0,0-.4-1.3,1.37,1.37,0,0,0-1.1-.46,1.52,1.52,0,0,0-1.15.49,2.13,2.13,0,0,0-.59,1.27Z" fill="#1e1e1e"/>
      <path d="M94.77,2.68a.61.61,0,0,1-.62-.62.61.61,0,0,1,.18-.45.59.59,0,0,1,.44-.18.6.6,0,0,1,.44.18.58.58,0,0,1,.19.45.58.58,0,0,1-.19.44A.6.6,0,0,1,94.77,2.68Zm.47,7.52h-1v-6h1Z" fill="#1e1e1e"/>
      <path d="M102.16,10.2h-1V6.78c0-1.27-.46-1.91-1.39-1.91a1.54,1.54,0,0,0-1.2.54,2,2,0,0,0-.47,1.37V10.2h-1v-6h1v1h0a2.15,2.15,0,0,1,2-1.14,1.83,1.83,0,0,1,1.51.64,2.79,2.79,0,0,1,.52,1.83Z" fill="#1e1e1e"/>
      <path d="M105,9.33h0V13h-1V4.2h1V5.26h0A2.26,2.26,0,0,1,107,4.06a2.19,2.19,0,0,1,1.81.81A3.33,3.33,0,0,1,109.49,7a3.72,3.72,0,0,1-.73,2.41,2.46,2.46,0,0,1-2,.9A2,2,0,0,1,105,9.33Zm0-2.42v.84A1.73,1.73,0,0,0,105.42,9a1.58,1.58,0,0,0,1.22.52A1.61,1.61,0,0,0,108,8.87a3.09,3.09,0,0,0,.5-1.86A2.41,2.41,0,0,0,108,5.44a1.51,1.51,0,0,0-1.25-.57,1.7,1.7,0,0,0-1.35.58A2.15,2.15,0,0,0,104.93,6.91Z" fill="#1e1e1e"/>
      <path d="M115.88,10.2h-1V9.25h0A2,2,0,0,1,113,10.34c-1.43,0-2.14-.85-2.14-2.55V4.2h.95V7.63c0,1.27.49,1.9,1.46,1.9A1.45,1.45,0,0,0,114.46,9a1.92,1.92,0,0,0,.46-1.35V4.2h1Z" fill="#1e1e1e"/>
      <path d="M120.6,10.14a1.8,1.8,0,0,1-.9.19c-1,0-1.57-.59-1.57-1.76V5h-1V4.2h1V2.74l1-.31V4.2h1.51V5h-1.51V8.4a1.45,1.45,0,0,0,.2.86.81.81,0,0,0,.68.26,1,1,0,0,0,.63-.2Z" fill="#1e1e1e"/>
    </g>
    <g>
      <path d="M379.65,10.2h-1.18l-1.4-2.35a4.9,4.9,0,0,0-.38-.56,1.92,1.92,0,0,0-.37-.38,1.36,1.36,0,0,0-.41-.22,1.88,1.88,0,0,0-.49-.06h-.81V10.2h-1V1.8h2.51a3.31,3.31,0,0,1,1,.14,2.23,2.23,0,0,1,.81.42,2,2,0,0,1,.53.7,2.26,2.26,0,0,1,.19,1,2.28,2.28,0,0,1-.13.8,2.25,2.25,0,0,1-.37.66,2.37,2.37,0,0,1-.59.49,3.35,3.35,0,0,1-.77.31v0a1.81,1.81,0,0,1,.66.5,2.75,2.75,0,0,1,.28.37c.09.14.2.3.31.49Zm-5-7.51V5.74h1.33a2.17,2.17,0,0,0,.69-.11,2.08,2.08,0,0,0,.54-.32,1.41,1.41,0,0,0,.35-.51,1.68,1.68,0,0,0,.13-.68,1.31,1.31,0,0,0-.43-1.05A1.91,1.91,0,0,0,376,2.69Z" fill="#1e1e1e"/>
      <path d="M385.14,7.44h-4.23A2.23,2.23,0,0,0,381.44,9a1.88,1.88,0,0,0,1.42.54,3,3,0,0,0,1.87-.66v.9a3.53,3.53,0,0,1-2.1.57,2.51,2.51,0,0,1-2-.82,3.31,3.31,0,0,1-.73-2.3,3.28,3.28,0,0,1,.79-2.28,2.54,2.54,0,0,1,2-.88,2.26,2.26,0,0,1,1.83.76,3.19,3.19,0,0,1,.64,2.12Zm-1-.81a2,2,0,0,0-.4-1.3,1.37,1.37,0,0,0-1.1-.46,1.54,1.54,0,0,0-1.16.49,2.18,2.18,0,0,0-.58,1.27Z" fill="#1e1e1e"/>
      <path d="M390.68,9.93a3.17,3.17,0,0,1-1.64.41A2.75,2.75,0,0,1,387,9.51a3.06,3.06,0,0,1-.79-2.17A3.35,3.35,0,0,1,387,5a3,3,0,0,1,2.27-.9,3.27,3.27,0,0,1,1.4.29v1a2.49,2.49,0,0,0-1.43-.47,1.92,1.92,0,0,0-1.51.66,2.5,2.5,0,0,0-.59,1.73,2.36,2.36,0,0,0,.55,1.66,1.91,1.91,0,0,0,1.49.61A2.38,2.38,0,0,0,390.68,9Z" fill="#1e1e1e"/>
      <path d="M394.65,10.34a2.79,2.79,0,0,1-2.13-.84,3.1,3.1,0,0,1-.79-2.23,3.24,3.24,0,0,1,.82-2.36,3,3,0,0,1,2.24-.85,2.69,2.69,0,0,1,2.09.83,3.27,3.27,0,0,1,.75,2.29,3.25,3.25,0,0,1-.81,2.3A2.85,2.85,0,0,1,394.65,10.34Zm.07-5.47a1.84,1.84,0,0,0-1.47.63,2.59,2.59,0,0,0-.54,1.74,2.41,2.41,0,0,0,.55,1.68,1.85,1.85,0,0,0,1.46.61,1.77,1.77,0,0,0,1.43-.6,2.63,2.63,0,0,0,.5-1.72,2.66,2.66,0,0,0-.5-1.73A1.74,1.74,0,0,0,394.72,4.87Z" fill="#1e1e1e"/>
      <path d="M404.29,9.72c0,2.2-1.05,3.31-3.16,3.31a4.28,4.28,0,0,1-1.95-.43v-1a4,4,0,0,0,1.93.57c1.48,0,2.22-.79,2.22-2.36V9.19h0a2.43,2.43,0,0,1-3.87.35,3.22,3.22,0,0,1-.68-2.15A3.75,3.75,0,0,1,399.49,5a2.48,2.48,0,0,1,2-.9,2,2,0,0,1,1.8,1h0V4.2h1Zm-1-2.23V6.6a1.72,1.72,0,0,0-.48-1.22,1.62,1.62,0,0,0-1.21-.51,1.64,1.64,0,0,0-1.39.65,2.85,2.85,0,0,0-.51,1.81,2.43,2.43,0,0,0,.49,1.6,1.56,1.56,0,0,0,1.28.6A1.67,1.67,0,0,0,402.82,9,2.12,2.12,0,0,0,403.33,7.49Z" fill="#1e1e1e"/>
      <path d="M411.22,10.2h-1V6.78c0-1.27-.46-1.91-1.39-1.91a1.5,1.5,0,0,0-1.19.54,2,2,0,0,0-.47,1.37V10.2h-1v-6h1v1h0a2.16,2.16,0,0,1,2-1.14,1.81,1.81,0,0,1,1.5.64,2.79,2.79,0,0,1,.53,1.83Z" fill="#1e1e1e"/>
      <path d="M413.52,2.68a.6.6,0,0,1-.44-.18.59.59,0,0,1-.18-.44.61.61,0,0,1,.18-.45.6.6,0,0,1,.44-.18.64.64,0,0,1,.45.18.61.61,0,0,1,.18.45.6.6,0,0,1-.18.44A.64.64,0,0,1,413.52,2.68ZM414,10.2h-1v-6h1Z" fill="#1e1e1e"/>
      <path d="M418.72,10.14a1.82,1.82,0,0,1-.9.19c-1.05,0-1.58-.59-1.58-1.76V5h-1V4.2h1V2.74l1-.31V4.2h1.52V5H417.2V8.4a1.37,1.37,0,0,0,.21.86.8.8,0,0,0,.68.26,1,1,0,0,0,.63-.2Z" fill="#1e1e1e"/>
      <path d="M420.49,2.68a.6.6,0,0,1-.44-.18.59.59,0,0,1-.18-.44.61.61,0,0,1,.18-.45.6.6,0,0,1,.44-.18.62.62,0,0,1,.63.63.6.6,0,0,1-.18.44A.61.61,0,0,1,420.49,2.68ZM421,10.2h-1v-6h1Z" fill="#1e1e1e"/>
      <path d="M425.41,10.34a2.79,2.79,0,0,1-2.12-.84,3.1,3.1,0,0,1-.79-2.23,3.24,3.24,0,0,1,.82-2.36,3,3,0,0,1,2.23-.85,2.7,2.7,0,0,1,2.1.83,3.27,3.27,0,0,1,.75,2.29,3.25,3.25,0,0,1-.81,2.3A2.87,2.87,0,0,1,425.41,10.34Zm.07-5.47A1.83,1.83,0,0,0,424,5.5a2.59,2.59,0,0,0-.54,1.74A2.46,2.46,0,0,0,424,8.92a1.86,1.86,0,0,0,1.46.61,1.79,1.79,0,0,0,1.44-.6,2.63,2.63,0,0,0,.5-1.72,2.66,2.66,0,0,0-.5-1.73A1.76,1.76,0,0,0,425.48,4.87Z" fill="#1e1e1e"/>
      <path d="M434.92,10.2h-1V6.78c0-1.27-.47-1.91-1.4-1.91a1.5,1.5,0,0,0-1.19.54,2,2,0,0,0-.47,1.37V10.2h-1v-6h1v1h0a2.16,2.16,0,0,1,2-1.14,1.83,1.83,0,0,1,1.51.64,2.85,2.85,0,0,1,.52,1.83Z" fill="#1e1e1e"/>
      <path d="M442.8,10.14a1.82,1.82,0,0,1-.9.19c-1,0-1.57-.59-1.57-1.76V5h-1V4.2h1V2.74l1-.31V4.2h1.51V5h-1.51V8.4a1.38,1.38,0,0,0,.2.86.8.8,0,0,0,.68.26,1,1,0,0,0,.63-.2Z" fill="#1e1e1e"/>
      <path d="M447.21,5.17a1.18,1.18,0,0,0-.73-.19,1.2,1.2,0,0,0-1,.58A2.64,2.64,0,0,0,445,7.14V10.2h-1v-6h1V5.44h0a2.08,2.08,0,0,1,.62-1,1.42,1.42,0,0,1,.95-.35,1.44,1.44,0,0,1,.57.08Z" fill="#1e1e1e"/>
      <path d="M453.08,7.44h-4.24A2.19,2.19,0,0,0,449.38,9a1.85,1.85,0,0,0,1.42.54,3,3,0,0,0,1.86-.66v.9a3.52,3.52,0,0,1-2.09.57,2.52,2.52,0,0,1-2-.82,3.31,3.31,0,0,1-.73-2.3,3.29,3.29,0,0,1,.8-2.28,2.53,2.53,0,0,1,2-.88,2.25,2.25,0,0,1,1.82.76,3.2,3.2,0,0,1,.65,2.12Zm-1-.81a2,2,0,0,0-.4-1.3,1.36,1.36,0,0,0-1.1-.46,1.52,1.52,0,0,0-1.15.49,2.13,2.13,0,0,0-.59,1.27Z" fill="#1e1e1e"/>
      <path d="M459.35,7.44h-4.24A2.28,2.28,0,0,0,455.65,9a1.88,1.88,0,0,0,1.42.54,2.94,2.94,0,0,0,1.86-.66v.9a3.47,3.47,0,0,1-2.09.57,2.54,2.54,0,0,1-2-.82,3.35,3.35,0,0,1-.72-2.3,3.28,3.28,0,0,1,.79-2.28,2.54,2.54,0,0,1,2-.88,2.26,2.26,0,0,1,1.83.76,3.19,3.19,0,0,1,.64,2.12Zm-1-.81a2,2,0,0,0-.41-1.3,1.35,1.35,0,0,0-1.09-.46,1.54,1.54,0,0,0-1.16.49,2.18,2.18,0,0,0-.58,1.27Z" fill="#1e1e1e"/>
    </g>
    <g>
      <path d="M222.45,10.2h-1.09l-.89-2.35h-3.56l-.84,2.35H215l3.22-8.4h1ZM220.15,7l-1.32-3.58a4.87,4.87,0,0,1-.13-.56h0a3.36,3.36,0,0,1-.13.56L217.24,7Z" fill="#1e1e1e"/>
      <path d="M224.67,7V10.2h-1V1.8H226a3,3,0,0,1,2.09.66,2.34,2.34,0,0,1,.74,1.85,2.56,2.56,0,0,1-.82,2,3.15,3.15,0,0,1-2.23.77Zm0-4.34V6.13h1a2.3,2.3,0,0,0,1.55-.46,1.65,1.65,0,0,0,.54-1.32c0-1.11-.66-1.66-2-1.66Z" fill="#1e1e1e"/>
      <path d="M231.4,10.2h-1V1.8h1Z" fill="#1e1e1e"/>
    </g>
    <g>
      <path d="M217.79,70.2h-1V61.8h1Z" fill="#1e1e1e"/>
      <path d="M224.85,70.2h-1V66.78c0-1.27-.47-1.91-1.4-1.91a1.5,1.5,0,0,0-1.19.54,2,2,0,0,0-.47,1.37V70.2h-1v-6h1v1h0a2.16,2.16,0,0,1,2-1.14,1.83,1.83,0,0,1,1.51.64,2.85,2.85,0,0,1,.52,1.83Z" fill="#1e1e1e"/>
      <path d="M231.64,70.2h-1.35l-2.65-2.88h0V70.2h-1V61.32h1V67h0l2.52-2.75h1.26l-2.78,2.9Z" fill="#1e1e1e"/>
      <path d="M201.64,83.4h-1.17l-1.4-2.35a4.9,4.9,0,0,0-.38-.56,1.92,1.92,0,0,0-.37-.38,1.36,1.36,0,0,0-.41-.22,1.9,1.9,0,0,0-.5-.06h-.81V83.4h-1V75h2.51a3.36,3.36,0,0,1,1,.14,2.11,2.11,0,0,1,.8.42,1.88,1.88,0,0,1,.54.7,2.58,2.58,0,0,1,.06,1.78,2.25,2.25,0,0,1-.37.66,2.57,2.57,0,0,1-.59.49,3.54,3.54,0,0,1-.77.31v0a1.81,1.81,0,0,1,.66.5,2.75,2.75,0,0,1,.28.37l.31.49Zm-5-7.51v3h1.34a2.11,2.11,0,0,0,.68-.11,2,2,0,0,0,.55-.32,1.41,1.41,0,0,0,.35-.51,1.68,1.68,0,0,0,.13-.68,1.31,1.31,0,0,0-.43-1,1.92,1.92,0,0,0-1.27-.38Z" fill="#1e1e1e"/>
      <path d="M207.14,80.64H202.9a2.28,2.28,0,0,0,.54,1.55,1.88,1.88,0,0,0,1.42.54,2.94,2.94,0,0,0,1.86-.66V83a3.47,3.47,0,0,1-2.09.57,2.53,2.53,0,0,1-2-.82,3.35,3.35,0,0,1-.72-2.3,3.28,3.28,0,0,1,.79-2.28,2.54,2.54,0,0,1,2-.88,2.26,2.26,0,0,1,1.83.76,3.19,3.19,0,0,1,.64,2.12Zm-1-.81a2,2,0,0,0-.41-1.3,1.35,1.35,0,0,0-1.09-.46,1.54,1.54,0,0,0-1.16.49,2.18,2.18,0,0,0-.58,1.27Z" fill="#1e1e1e"/>
      <path d="M212.68,83.13a3.17,3.17,0,0,1-1.64.41,2.75,2.75,0,0,1-2.07-.83,3.06,3.06,0,0,1-.79-2.17,3.35,3.35,0,0,1,.85-2.38,3,3,0,0,1,2.27-.9,3.2,3.2,0,0,1,1.39.29v1a2.44,2.44,0,0,0-1.42-.47,1.92,1.92,0,0,0-1.51.66,2.47,2.47,0,0,0-.59,1.73,2.36,2.36,0,0,0,.55,1.66,1.91,1.91,0,0,0,1.49.61,2.38,2.38,0,0,0,1.47-.52Z" fill="#1e1e1e"/>
      <path d="M216.64,83.54a2.79,2.79,0,0,1-2.12-.84,3.1,3.1,0,0,1-.79-2.23,3.24,3.24,0,0,1,.82-2.36,3,3,0,0,1,2.23-.85,2.7,2.7,0,0,1,2.1.83,3.77,3.77,0,0,1-.06,4.59A2.87,2.87,0,0,1,216.64,83.54Zm.07-5.47a1.83,1.83,0,0,0-1.46.63,2.59,2.59,0,0,0-.54,1.74,2.41,2.41,0,0,0,.55,1.68,1.82,1.82,0,0,0,1.45.61,1.77,1.77,0,0,0,1.44-.6,2.63,2.63,0,0,0,.5-1.72,2.66,2.66,0,0,0-.5-1.73A1.75,1.75,0,0,0,216.71,78.07Z" fill="#1e1e1e"/>
      <path d="M226.29,82.92c0,2.2-1.06,3.31-3.17,3.31a4.24,4.24,0,0,1-1.94-.43v-1a3.94,3.94,0,0,0,1.93.57c1.48,0,2.22-.79,2.22-2.36v-.66h0a2.42,2.42,0,0,1-3.86.35,3.17,3.17,0,0,1-.68-2.15,3.75,3.75,0,0,1,.73-2.43,2.46,2.46,0,0,1,2-.9,2,2,0,0,1,1.79,1h0V77.4h1Zm-1-2.23V79.8a1.69,1.69,0,0,0-.49-1.22,1.58,1.58,0,0,0-1.2-.51,1.66,1.66,0,0,0-1.39.65,2.85,2.85,0,0,0-.51,1.81,2.43,2.43,0,0,0,.49,1.6,1.55,1.55,0,0,0,1.28.6,1.68,1.68,0,0,0,1.31-.57A2.12,2.12,0,0,0,225.33,80.69Z" fill="#1e1e1e"/>
      <path d="M233.21,83.4h-1V80c0-1.27-.46-1.91-1.39-1.91a1.5,1.5,0,0,0-1.19.54,2,2,0,0,0-.48,1.37V83.4h-1v-6h1v1h0a2.16,2.16,0,0,1,2-1.14,1.81,1.81,0,0,1,1.5.64,2.79,2.79,0,0,1,.52,1.83Z" fill="#1e1e1e"/>
      <path d="M235.52,75.88a.6.6,0,0,1-.44-.18.59.59,0,0,1-.18-.44.61.61,0,0,1,.18-.45.6.6,0,0,1,.44-.18.64.64,0,0,1,.45.18.61.61,0,0,1,.18.45.6.6,0,0,1-.18.44A.64.64,0,0,1,235.52,75.88ZM236,83.4h-1v-6h1Z" fill="#1e1e1e"/>
      <path d="M242.11,77.68l-3.55,4.9h3.52v.82h-4.93v-.3l3.55-4.88h-3.21V77.4h4.62Z" fill="#1e1e1e"/>
      <path d="M248.18,80.64h-4.24a2.28,2.28,0,0,0,.54,1.55,1.88,1.88,0,0,0,1.42.54,2.94,2.94,0,0,0,1.86-.66V83a3.47,3.47,0,0,1-2.09.57,2.53,2.53,0,0,1-2-.82,3.35,3.35,0,0,1-.72-2.3,3.28,3.28,0,0,1,.79-2.28,2.54,2.54,0,0,1,2-.88,2.24,2.24,0,0,1,1.82.76,3.2,3.2,0,0,1,.65,2.12Zm-1-.81a1.91,1.91,0,0,0-.4-1.3,1.36,1.36,0,0,0-1.1-.46,1.54,1.54,0,0,0-1.15.49,2.19,2.19,0,0,0-.59,1.27Z" fill="#1e1e1e"/>
      <path d="M252.76,78.37a1.25,1.25,0,0,0-.73-.19,1.2,1.2,0,0,0-1,.58,2.64,2.64,0,0,0-.42,1.58V83.4h-1v-6h1v1.24h0a2.08,2.08,0,0,1,.62-1,1.42,1.42,0,0,1,.95-.35,1.44,1.44,0,0,1,.57.08Z" fill="#1e1e1e"/>
    </g>
    <g>
      <path d="M37.82,138.51c0-.53,0-1.14,0-1.82s.11-1.38.2-2.13.2-1.52.35-2.31.3-1.55.48-2.31.38-1.49.61-2.18a19.38,19.38,0,0,1,.7-1.89l.28-.59c.11-.23.24-.48.39-.74s.3-.52.47-.78a8,8,0,0,1,.52-.73,5,5,0,0,1,.55-.57,1.74,1.74,0,0,1,.56-.33,2,2,0,0,1,.72-.08,1.56,1.56,0,0,1,.64.21,1.62,1.62,0,0,1,.52.46,2.28,2.28,0,0,1,.34.68,2.05,2.05,0,0,1,.07.34c0,.12,0,.24,0,.37l.58,5.8c0-.18.13-.43.22-.74s.21-.66.34-1l.4-1.21c.13-.41.27-.82.4-1.21s.26-.75.38-1.07.21-.59.29-.79l.1-.28q.12-.27.27-.66c.11-.25.24-.52.38-.81s.29-.57.45-.85a6.75,6.75,0,0,1,.52-.79,3.52,3.52,0,0,1,.57-.63,1.56,1.56,0,0,1,.61-.36.61.61,0,0,1,.42,0,.91.91,0,0,1,.35.21,1.34,1.34,0,0,1,.26.38,3.72,3.72,0,0,1,.2.5,5.69,5.69,0,0,1,.18.86c0,.29.07.56.08.81s.06.47.1.82.1.77.16,1.23.13,1,.2,1.51l.21,1.64.21,1.66c.07.54.14,1,.2,1.52s.11.89.16,1.26.07.66.09.87,0,.23,0,.4a3.15,3.15,0,0,1-.05.52,1.43,1.43,0,0,1-.21.49.77.77,0,0,1-.44.32.53.53,0,0,1-.33,0,1.28,1.28,0,0,1-.34-.19A1.48,1.48,0,0,1,52,134a1.94,1.94,0,0,1-.17-.31l-.9-10.31c0-.1,0-.19,0-.26a.65.65,0,0,0,0-.21.68.68,0,0,0-.08-.19l-.1-.16a1.47,1.47,0,0,0-.1-.13,8.6,8.6,0,0,0-.69,1.13c-.24.45-.46.93-.68,1.46s-.42,1.08-.62,1.66-.38,1.15-.54,1.72-.27.92-.42,1.41-.31,1-.47,1.5-.3,1-.44,1.5-.25,1-.36,1.41a6.41,6.41,0,0,0-.1.8q0,.48-.12,1a4.37,4.37,0,0,1-.21.83.7.7,0,0,1-.44.46,1,1,0,0,1-.4,0,.67.67,0,0,1-.29-.1.93.93,0,0,1-.21-.23,1.34,1.34,0,0,1-.14-.32,1.79,1.79,0,0,1-.09-.46c0-.16,0-.32,0-.46,0-.62-.07-1.24-.09-1.85s0-1.24-.06-1.89,0-1.31-.07-2-.06-1.42-.1-2.19c0-.22,0-.46,0-.73l-.06-.82c0-.27-.06-.54-.1-.79s-.1-.47-.15-.66a2.35,2.35,0,0,0-.16-.4c-.06-.09-.13-.12-.2-.1a1.41,1.41,0,0,0-.68.5,4.8,4.8,0,0,0-.6,1,10,10,0,0,0-.51,1.26c-.15.46-.29.92-.41,1.4s-.22.94-.31,1.4-.17.86-.22,1.22c0,.08,0,.18-.06.31s-.06.32-.1.56-.08.54-.13.9-.1.83-.15,1.38-.11,1.2-.16,2-.11,1.65-.16,2.67a.78.78,0,0,1-.19.47.87.87,0,0,1-.41.29,1,1,0,0,1-.84,0,1,1,0,0,1-.44-.6A1.67,1.67,0,0,1,37.82,138.51Z" fill="#1e1e1e"/>
      <path d="M56.07,120.86a3.65,3.65,0,0,1,0-.55,1.36,1.36,0,0,1,.29-.67,3.41,3.41,0,0,1,.33-.28,1.45,1.45,0,0,1,.31-.17.34.34,0,0,1,.22,0,.73.73,0,0,1,.22.09,1.83,1.83,0,0,1,.26.16.36.36,0,0,1,.37.08,1.06,1.06,0,0,1,.19.35,1,1,0,0,1,0,.29c0,.09,0,.17,0,.22a1.06,1.06,0,0,1-.11.45,1.73,1.73,0,0,1-.3.41,2,2,0,0,1-.39.33,1.39,1.39,0,0,1-.39.19.62.62,0,0,1-.37,0,1.44,1.44,0,0,1-.41-.24.73.73,0,0,1-.2-.19,1,1,0,0,0-.06-.14,1.77,1.77,0,0,1,0-.2A1,1,0,0,1,56.07,120.86Zm.52,10.93c0-.41,0-.88-.05-1.43s0-1.12,0-1.73,0-1.23-.06-1.87,0-1.25-.08-1.85a.64.64,0,0,1,0-.15.86.86,0,0,1,.11-.24,1,1,0,0,1,.23-.25,1.06,1.06,0,0,1,.37-.18,1.3,1.3,0,0,1,.33-.07,1,1,0,0,1,.31,0,.53.53,0,0,1,.25.12.45.45,0,0,1,.16.24.14.14,0,0,0,0,.06s0,.05,0,.07l0,1.12.12,3.79q.06,1.91.15,3.81s0,.09,0,.16a.8.8,0,0,1-.05.21.82.82,0,0,1-.12.2.54.54,0,0,1-.22.13,1,1,0,0,1-.48,0,1.18,1.18,0,0,1-.73-.44,1,1,0,0,1-.17-.33l0-.09a.25.25,0,0,1,0-.09Z" fill="#1e1e1e"/>
      <path d="M61.1,128.19a9.53,9.53,0,0,1,.08-1.74,10.23,10.23,0,0,1,.4-1.87,9.59,9.59,0,0,1,.75-1.78,6.25,6.25,0,0,1,1.12-1.5,2.36,2.36,0,0,1,.5-.38,2.63,2.63,0,0,1,.6-.25,2.86,2.86,0,0,1,.62-.13,1.35,1.35,0,0,1,.54,0,1.08,1.08,0,0,1,.7.75,1.64,1.64,0,0,1,.08.5,1.57,1.57,0,0,1-.07.49,1.27,1.27,0,0,1-.25.42,1.11,1.11,0,0,1-.45.26,1,1,0,0,1-.42,0,2.57,2.57,0,0,1-.4-.07l-.2,0a1.18,1.18,0,0,0-.21,0,3.31,3.31,0,0,0-.6.69,4.87,4.87,0,0,0-.45.84,6.27,6.27,0,0,0-.32.92,8.92,8.92,0,0,0-.21.94c0,.31-.09.61-.11.9s0,.55,0,.78a4,4,0,0,0,0,.57,3.75,3.75,0,0,0,.12.6,2.39,2.39,0,0,0,.15.37.84.84,0,0,0,.22.27.71.71,0,0,0,.3.15.79.79,0,0,0,.39,0,2.36,2.36,0,0,0,.65-.29,4.25,4.25,0,0,0,.59-.43,4.3,4.3,0,0,0,.54-.51c.17-.18.33-.37.49-.55l.3-.36c.1-.12.19-.23.29-.33a3.19,3.19,0,0,1,.26-.26.83.83,0,0,1,.23-.14.57.57,0,0,1,.29,0,.31.31,0,0,1,.21.22.92.92,0,0,1,0,.3,2.37,2.37,0,0,1-.16.8,3.56,3.56,0,0,1-.36.7,4.17,4.17,0,0,1-.49.62c-.18.19-.36.37-.55.54a6.18,6.18,0,0,1-1.08.86,4.67,4.67,0,0,1-1,.48l-.33.07a2.13,2.13,0,0,1-.35,0,2.55,2.55,0,0,1-1.44-.58,2.61,2.61,0,0,1-.78-1.26,5.06,5.06,0,0,1-.16-.74A7.05,7.05,0,0,1,61.1,128.19Z" fill="#1e1e1e"/>
      <path d="M70.66,128.38c0-.49-.11-1-.16-1.6s-.11-1.18-.17-1.77-.1-1.19-.16-1.77-.11-1.1-.16-1.57l-.07-.17a1.54,1.54,0,0,0,0-.17,6.21,6.21,0,0,1-.14-.62,3.11,3.11,0,0,1-.06-.59,1.25,1.25,0,0,1,.08-.58.66.66,0,0,1,.39-.26.83.83,0,0,1,.49,0,.82.82,0,0,1,.36.21,1.33,1.33,0,0,1,.26.39,4.09,4.09,0,0,1,.18.49c0,.09,0,.19.08.31s0,.2.07.26c.13-.24.26-.5.41-.76a5.27,5.27,0,0,1,.49-.74,4.54,4.54,0,0,1,.62-.62,2.13,2.13,0,0,1,.76-.4,1.86,1.86,0,0,1,.34-.07l.35,0a2.29,2.29,0,0,1,.45,0,2.08,2.08,0,0,1,.47.1,2.22,2.22,0,0,1,.73.45,1.4,1.4,0,0,1,.45.68.94.94,0,0,1,0,.34,1,1,0,0,1-.07.36.83.83,0,0,1-.16.31.67.67,0,0,1-.28.19,1.51,1.51,0,0,1-.9-.06l-.19-.12-.2-.18-.18-.16a.58.58,0,0,0-.12-.1l-.11,0-.11,0a2.09,2.09,0,0,0-.88.55,4.09,4.09,0,0,0-.65.88,6.55,6.55,0,0,0-.48,1c-.14.35-.26.65-.35.93,0,.57,0,1.17.08,1.82s0,1.32.09,2l.07.24c.06.2.12.4.17.6a2,2,0,0,1,0,.58.89.89,0,0,1-.23.34,1.11,1.11,0,0,1-.44.25.8.8,0,0,1-.7-.08,1.23,1.23,0,0,1-.45-.93Z" fill="#1e1e1e"/>
      <path d="M78.29,123.06a7,7,0,0,1,.07-1.41,8.64,8.64,0,0,1,.39-1.6,10.05,10.05,0,0,1,.8-1.71,10.52,10.52,0,0,1,1.25-1.72,2.5,2.5,0,0,1,.39-.33,2.55,2.55,0,0,1,.59-.31,1.39,1.39,0,0,1,.91-.73,2.23,2.23,0,0,1,1.4,0,3.1,3.1,0,0,1,1.19.79q.18.18.33.36a2.82,2.82,0,0,1,.29.39,5,5,0,0,1,.26.46c.07.17.15.37.22.59a5.94,5.94,0,0,1,.23,1.66,7.35,7.35,0,0,1-.22,1.78,9.52,9.52,0,0,1-1.69,3.49,4.52,4.52,0,0,1-1,1,4.7,4.7,0,0,1-1.37.65,4.1,4.1,0,0,1-1.37.19,2.6,2.6,0,0,1-1.1-.29,2.47,2.47,0,0,1-.82-.73,3.75,3.75,0,0,1-.53-1.1A5.25,5.25,0,0,1,78.29,123.06ZM80,122.7a3.1,3.1,0,0,0,0,.45,2.23,2.23,0,0,0,.09.39,2.39,2.39,0,0,0,.27.58,1.3,1.3,0,0,0,.41.4,1.35,1.35,0,0,0,.56.17,1.92,1.92,0,0,0,.72-.09,2.87,2.87,0,0,0,1.28-.8,4.79,4.79,0,0,0,.85-1.3,6.62,6.62,0,0,0,.47-1.47,6,6,0,0,0,.11-1.35c0-.24,0-.48,0-.69a3,3,0,0,0-.11-.58,1.22,1.22,0,0,0-.24-.45q-.16-.19-.39-.42l-.28-.29a3.82,3.82,0,0,1-.27-.32,1.32,1.32,0,0,1-.09.3.92.92,0,0,1-.21.26,3.09,3.09,0,0,1-.43.3,7,7,0,0,1-.76.36,2.77,2.77,0,0,0-.56.53,4.89,4.89,0,0,0-.49.73,8.16,8.16,0,0,0-.41.84,8.32,8.32,0,0,0-.3.88A7.19,7.19,0,0,0,80,122,3.11,3.11,0,0,0,80,122.7Z" fill="#1e1e1e"/>
      <path d="M89.66,121.82a.4.4,0,0,1,.15,0h.35a1.05,1.05,0,0,0,.26,0,7,7,0,0,0,1-.41,9.22,9.22,0,0,0,1-.58,5,5,0,0,0,.75-.62.78.78,0,0,0,.28-.54,1.3,1.3,0,0,0,0-.22.49.49,0,0,0-.26-.27,2.68,2.68,0,0,0-.5-.16l-.6-.1-.6,0-.38,0a3.9,3.9,0,0,1-.57-.08,2.58,2.58,0,0,1-.55-.2,2.29,2.29,0,0,1-.51-.32,1.69,1.69,0,0,1-.41-.5,1.35,1.35,0,0,1-.15-.26,1.81,1.81,0,0,1-.12-.28,1.37,1.37,0,0,1,0-.64,3.31,3.31,0,0,1,.26-.79,6.17,6.17,0,0,1,.47-.82,4.87,4.87,0,0,1,.62-.72l.46-.55a4,4,0,0,1,.47-.45,3,3,0,0,1,.51-.36,3.51,3.51,0,0,1,.59-.26l.65-.16a2.21,2.21,0,0,1,.67,0,1.23,1.23,0,0,1,.57.17.83.83,0,0,1,.36.51,1.45,1.45,0,0,1,.06.29,1.61,1.61,0,0,1,0,.38,1.77,1.77,0,0,1-.07.36.33.33,0,0,1-.2.2.79.79,0,0,1-.4,0,1.33,1.33,0,0,1-.32-.11l-.31-.11a.49.49,0,0,0-.34,0,2.49,2.49,0,0,0-.5.24,4.94,4.94,0,0,0-.54.42c-.18.16-.35.33-.52.51a6.2,6.2,0,0,0-.42.55,2.79,2.79,0,0,0-.27.5.65.65,0,0,0,0,.4.39.39,0,0,0,.19.24,1,1,0,0,0,.33.1,4.27,4.27,0,0,0,.57.09l.63.06.63.07.53.07c.21,0,.39.08.56.13a1.51,1.51,0,0,1,.45.18,1.12,1.12,0,0,1,.33.28,1.51,1.51,0,0,1,.22.44,2.38,2.38,0,0,1,.05.26,1.42,1.42,0,0,1,0,.31,1.55,1.55,0,0,1,0,.38c0,.14,0,.29,0,.43a3.65,3.65,0,0,1-.07.4,1,1,0,0,1-.09.25,5.15,5.15,0,0,1-.7.93,8.44,8.44,0,0,1-.92.87,7.49,7.49,0,0,1-1,.71,3.91,3.91,0,0,1-1,.45,1.84,1.84,0,0,1-.55.07,2.89,2.89,0,0,1-.6-.09,1.76,1.76,0,0,1-.5-.22.61.61,0,0,1-.28-.35.38.38,0,0,1,0-.24.92.92,0,0,1,.08-.27,1,1,0,0,1,.13-.23A.32.32,0,0,1,89.66,121.82Z" fill="#1e1e1e"/>
      <path d="M97.22,117.31a7.77,7.77,0,0,1,.07-1.41,8,8,0,0,1,.4-1.6,10,10,0,0,1,.79-1.71,11.15,11.15,0,0,1,1.25-1.72,2.68,2.68,0,0,1,.4-.33,2.55,2.55,0,0,1,.59-.31,1.43,1.43,0,0,1,.9-.73,2.26,2.26,0,0,1,1.41,0,3.1,3.1,0,0,1,1.19.79c.11.12.23.24.33.36a4,4,0,0,1,.29.39,4.12,4.12,0,0,1,.25.47,3.2,3.2,0,0,1,.22.58,5.6,5.6,0,0,1,.24,1.66,7.88,7.88,0,0,1-.22,1.78,10,10,0,0,1-.65,1.8,9.9,9.9,0,0,1-1.05,1.69,4.27,4.27,0,0,1-1,1,4.7,4.7,0,0,1-1.37.65,3.89,3.89,0,0,1-1.37.19,2.6,2.6,0,0,1-1.1-.29,2.47,2.47,0,0,1-.82-.73,3.52,3.52,0,0,1-.53-1.1A5.68,5.68,0,0,1,97.22,117.31Zm1.67-.36a2.14,2.14,0,0,0,0,.45,2.23,2.23,0,0,0,.09.39,2,2,0,0,0,.26.58,1.45,1.45,0,0,0,.42.4,1.31,1.31,0,0,0,.56.17,1.92,1.92,0,0,0,.72-.09,2.79,2.79,0,0,0,1.27-.8,4.93,4.93,0,0,0,.86-1.29,6.7,6.7,0,0,0,.47-1.48,6,6,0,0,0,.11-1.35c0-.24,0-.47,0-.69a3,3,0,0,0-.1-.58,1.61,1.61,0,0,0-.24-.45q-.16-.19-.39-.42c-.1-.09-.19-.19-.29-.29l-.26-.31-.09.29a.92.92,0,0,1-.21.26,2.73,2.73,0,0,1-.44.3,6.2,6.2,0,0,1-.76.36,3,3,0,0,0-.55.53,4.89,4.89,0,0,0-.49.73,7.43,7.43,0,0,0-.71,1.72c-.08.29-.14.58-.19.85A3.71,3.71,0,0,0,98.89,117Z" fill="#1e1e1e"/>
      <path d="M111,118.22a1.09,1.09,0,0,1-.47,0,1.16,1.16,0,0,1-.4-.16,1.14,1.14,0,0,1-.31-.31,1.23,1.23,0,0,1-.21-.41,2.12,2.12,0,0,1-.08-.38c0-.15,0-.32,0-.53s0-.22,0-.4,0-.39-.06-.62-.06-.47-.09-.72-.06-.51-.09-.75-.07-.46-.11-.66-.08-.37-.12-.5l-.06-.16a.27.27,0,0,0-.28-.14h-.44a1.27,1.27,0,0,1-.47-.09.54.54,0,0,1-.32-.41,1,1,0,0,1,0-.53.71.71,0,0,1,.22-.43,1.37,1.37,0,0,1,.47-.28,3.49,3.49,0,0,0,.53-.22.29.29,0,0,0,.17-.26,2,2,0,0,0,0-.35c0-.33,0-.68,0-1.06s0-.76,0-1.16,0-.8.07-1.19a7.53,7.53,0,0,1,.21-1.11,11.06,11.06,0,0,1,.6-1.41,7.07,7.07,0,0,1,.81-1.23,5.3,5.3,0,0,1,1-1,4.38,4.38,0,0,1,1.3-.64,3.14,3.14,0,0,1,1.51-.13,2.3,2.3,0,0,1,1.16.61,1,1,0,0,1,.2.25,1.18,1.18,0,0,1,.12.28,1.84,1.84,0,0,1,.07.51,1.4,1.4,0,0,1-.08.47,1.07,1.07,0,0,1-.21.36.72.72,0,0,1-.33.2.71.71,0,0,1-.45,0,.8.8,0,0,1-.32-.19,1.81,1.81,0,0,1-.25-.3c-.08-.12-.15-.22-.23-.32a.72.72,0,0,0-.25-.21.41.41,0,0,0-.33,0,2.15,2.15,0,0,0-.44.18,2.07,2.07,0,0,0-.42.31,8.7,8.7,0,0,0-.9,1,5,5,0,0,0-.64,1.27,7.78,7.78,0,0,0-.36,1.71,14.6,14.6,0,0,0,0,2.34v.05a0,0,0,0,0,0,0s0,0,.08,0a4.63,4.63,0,0,0,.56-.21l.51-.24.51-.24a4.08,4.08,0,0,1,.56-.21l.43-.11a1.5,1.5,0,0,1,.36,0,.65.65,0,0,1,.28.12.56.56,0,0,1,.18.29,1.57,1.57,0,0,1,.06.3,2.17,2.17,0,0,1,0,.36,1.29,1.29,0,0,1-.1.35.49.49,0,0,1-.23.24l-.58.28-.67.28-.78.38c-.28.15-.6.33-.94.55a12.55,12.55,0,0,0,.13,1.4q.1.69.24,1.35l.24,1.35a12.39,12.39,0,0,1,.16,1.38,1.5,1.5,0,0,1,0,.29,1,1,0,0,1-.11.28.84.84,0,0,1-.18.24A.68.68,0,0,1,111,118.22Z" fill="#1e1e1e"/>
      <path d="M117.32,112a9.58,9.58,0,0,1-.33-1.77c0-.63-.1-1.23-.12-1.82a2.52,2.52,0,0,1-.55.08,2.24,2.24,0,0,1-.53,0,1.29,1.29,0,0,1-.45-.18.66.66,0,0,1-.25-.36.75.75,0,0,1,0-.23,1.09,1.09,0,0,1,0-.31.7.7,0,0,1,.12-.28.43.43,0,0,1,.24-.18l1.31-.4a.25.25,0,0,0,.21-.24c0-.12,0-.23,0-.35,0-.4,0-.75-.06-1.06s0-.55,0-.76,0-.38,0-.51a1.54,1.54,0,0,0,0-.3,1.35,1.35,0,0,0-.08-.24c0-.08-.07-.19-.11-.32l0-.1c0-.06,0-.13,0-.21a2.25,2.25,0,0,1,0-.39.92.92,0,0,1,.1-.42.61.61,0,0,1,.41-.31,1,1,0,0,1,.49,0,1,1,0,0,1,.39.19,1.72,1.72,0,0,1,.3.35,1.89,1.89,0,0,1,.19.44,2,2,0,0,1,.09.45l.12,3,.89-.46.77-.4c.29-.15.53-.29.73-.41l.53-.3.37-.21a1.85,1.85,0,0,1,.26-.12l.32-.07a1.07,1.07,0,0,1,.31,0,.59.59,0,0,1,.26.1.53.53,0,0,1,.16.26.88.88,0,0,1,0,.45,1.07,1.07,0,0,1-.14.39,1.14,1.14,0,0,1-.27.31,1.72,1.72,0,0,1-.33.24l-.39.21-.51.3-.57.33-.58.35-.72.43a5.66,5.66,0,0,1-.5.28l-.35.17a.88.88,0,0,1-.23.09c0,.41,0,.81,0,1.2s0,.75.08,1.08.07.62.11.87.09.45.13.59a3.13,3.13,0,0,0,.2.49,1.39,1.39,0,0,0,.3.37.91.91,0,0,0,.4.18,1.15,1.15,0,0,0,.54-.05,2.1,2.1,0,0,0,.93-.6,4.88,4.88,0,0,0,.74-1,8,8,0,0,0,.57-1.22c.17-.42.32-.83.45-1.21a.36.36,0,0,1,.25-.27l.15,0,.18,0a.61.61,0,0,1,.18.09.42.42,0,0,1,.11.17.74.74,0,0,1,0,.12,5.93,5.93,0,0,1-.11,1.37l-.3,1.43a2.93,2.93,0,0,1-.18.52,5.39,5.39,0,0,1-.3.52,4.67,4.67,0,0,1-.36.51c-.13.17-.25.31-.37.45a2.62,2.62,0,0,1-.71.57,4.9,4.9,0,0,1-.83.35,2.65,2.65,0,0,1-1.2.11,2.6,2.6,0,0,1-1-.37,3,3,0,0,1-.79-.77A3.81,3.81,0,0,1,117.32,112Z" fill="#1e1e1e"/>
    </g>
    <g>
      <path d="M410.82,41.32h-1.17L408.25,39a6,6,0,0,0-.38-.56,1.85,1.85,0,0,0-.37-.37,1.49,1.49,0,0,0-.41-.22,1.89,1.89,0,0,0-.5-.07h-.81v3.58h-1v-8.4h2.51a3.63,3.63,0,0,1,1,.13,2.59,2.59,0,0,1,.81.42,2,2,0,0,1,.54.7,2.61,2.61,0,0,1,.06,1.79,2.2,2.2,0,0,1-.37.65,2.34,2.34,0,0,1-.59.49,3.12,3.12,0,0,1-.77.32v0a1.88,1.88,0,0,1,.37.21,2,2,0,0,1,.29.29,4,4,0,0,1,.28.37l.31.48Zm-5-7.51v3h1.34a1.87,1.87,0,0,0,.68-.11,1.46,1.46,0,0,0,.54-.32,1.32,1.32,0,0,0,.36-.51,1.6,1.6,0,0,0,.13-.67,1.32,1.32,0,0,0-.44-1.06,1.88,1.88,0,0,0-1.26-.37Z" fill="#1e1e1e"/>
      <path d="M414,41.46a2.79,2.79,0,0,1-2.12-.84,3.12,3.12,0,0,1-.79-2.23,3.23,3.23,0,0,1,.82-2.36,3,3,0,0,1,2.24-.85,2.68,2.68,0,0,1,2.09.82,3.29,3.29,0,0,1,.75,2.29,3.21,3.21,0,0,1-.81,2.3A2.83,2.83,0,0,1,414,41.46Zm.08-5.47a1.84,1.84,0,0,0-1.47.63,2.58,2.58,0,0,0-.54,1.73,2.44,2.44,0,0,0,.55,1.69,1.85,1.85,0,0,0,1.46.61,1.77,1.77,0,0,0,1.43-.6,3.23,3.23,0,0,0,0-3.45A1.74,1.74,0,0,0,414.08,36Z" fill="#1e1e1e"/>
      <path d="M421,41.46a2.79,2.79,0,0,1-2.13-.84,3.12,3.12,0,0,1-.79-2.23,3.23,3.23,0,0,1,.82-2.36,3,3,0,0,1,2.24-.85,2.68,2.68,0,0,1,2.09.82,3.29,3.29,0,0,1,.75,2.29,3.21,3.21,0,0,1-.81,2.3A2.82,2.82,0,0,1,421,41.46Zm.07-5.47a1.84,1.84,0,0,0-1.47.63,2.58,2.58,0,0,0-.54,1.73,2.44,2.44,0,0,0,.55,1.69,1.85,1.85,0,0,0,1.46.61,1.75,1.75,0,0,0,1.43-.6,3.23,3.23,0,0,0,0-3.45A1.73,1.73,0,0,0,421.11,36Z" fill="#1e1e1e"/>
      <path d="M428.34,41.26a1.87,1.87,0,0,1-.89.19c-1.05,0-1.58-.59-1.58-1.76V36.14h-1v-.82h1V33.85l1-.31v1.78h1.51v.82h-1.51v3.38a1.37,1.37,0,0,0,.21.86.81.81,0,0,0,.68.26,1,1,0,0,0,.62-.2Z" fill="#1e1e1e"/>
    </g>
    <g>
      <path d="M326.24,72.92l-2.37,8.4h-1.16L321,75.18a3.78,3.78,0,0,1-.13-.86h0a4.9,4.9,0,0,1-.16.85l-1.74,6.15h-1.14l-2.46-8.4h1.08l1.79,6.44a4.57,4.57,0,0,1,.14.85h0a5.24,5.24,0,0,1,.18-.85l1.86-6.44h.94l1.78,6.49a3.9,3.9,0,0,1,.14.78h0a4.35,4.35,0,0,1,.16-.81l1.71-6.46Z" fill="#1e1e1e"/>
      <path d="M330.49,76.29a1.18,1.18,0,0,0-.73-.19,1.23,1.23,0,0,0-1,.58,2.7,2.7,0,0,0-.41,1.58v3.06h-1v-6h1v1.23h0a2.09,2.09,0,0,1,.63-1,1.42,1.42,0,0,1,.94-.36,1.75,1.75,0,0,1,.58.08Z" fill="#1e1e1e"/>
      <path d="M332,73.79a.6.6,0,0,1-.44-.17.61.61,0,0,1-.18-.45.57.57,0,0,1,.18-.44.6.6,0,0,1,.44-.18.61.61,0,0,1,.45.18.58.58,0,0,1,.19.44.6.6,0,0,1-.19.44A.61.61,0,0,1,332,73.79Zm.47,7.53h-1v-6h1Z" fill="#1e1e1e"/>
      <path d="M337.22,81.26a1.94,1.94,0,0,1-.9.19c-1.05,0-1.57-.59-1.57-1.76V76.14h-1v-.82h1V73.85l1-.31v1.78h1.51v.82h-1.51v3.38a1.45,1.45,0,0,0,.2.86.84.84,0,0,0,.68.26,1.05,1.05,0,0,0,.63-.2Z" fill="#1e1e1e"/>
      <path d="M339,73.79a.61.61,0,0,1-.63-.62.55.55,0,0,1,.19-.44.59.59,0,0,1,.44-.18.6.6,0,0,1,.44.18.55.55,0,0,1,.19.44.56.56,0,0,1-.19.44A.6.6,0,0,1,339,73.79Zm.46,7.53h-1v-6h1Z" fill="#1e1e1e"/>
      <path d="M346.39,81.32h-1V77.9c0-1.28-.47-1.91-1.4-1.91a1.52,1.52,0,0,0-1.19.54,2,2,0,0,0-.47,1.37v3.42h-1v-6h1v1h0a2.18,2.18,0,0,1,2-1.13,1.85,1.85,0,0,1,1.51.63,2.84,2.84,0,0,1,.52,1.84Z" fill="#1e1e1e"/>
      <path d="M353.32,80.84q0,3.3-3.16,3.3a4.31,4.31,0,0,1-2-.42v-1a4.06,4.06,0,0,0,1.94.56c1.47,0,2.21-.78,2.21-2.35v-.66h0a2.43,2.43,0,0,1-3.87.35,3.22,3.22,0,0,1-.68-2.15,3.73,3.73,0,0,1,.74-2.43,2.46,2.46,0,0,1,2-.9,2,2,0,0,1,1.8,1h0v-.83h1Zm-1-2.23v-.89a1.71,1.71,0,0,0-.48-1.22,1.62,1.62,0,0,0-1.21-.51,1.66,1.66,0,0,0-1.39.64,2.9,2.9,0,0,0-.51,1.82,2.48,2.48,0,0,0,.49,1.6,1.56,1.56,0,0,0,1.28.6,1.65,1.65,0,0,0,1.31-.57A2.16,2.16,0,0,0,352.36,78.61Z" fill="#1e1e1e"/>
      <path d="M361.68,76.29a1.16,1.16,0,0,0-.72-.19,1.21,1.21,0,0,0-1,.58,2.62,2.62,0,0,0-.42,1.58v3.06h-1v-6h1v1.23h0a2,2,0,0,1,.63-1,1.4,1.4,0,0,1,.94-.36,1.65,1.65,0,0,1,.57.08Z" fill="#1e1e1e"/>
      <path d="M367.55,78.56h-4.24a2.3,2.3,0,0,0,.54,1.55,1.87,1.87,0,0,0,1.42.54,2.91,2.91,0,0,0,1.86-.67v.9a3.43,3.43,0,0,1-2.09.58,2.53,2.53,0,0,1-2-.82,3.35,3.35,0,0,1-.72-2.3,3.28,3.28,0,0,1,.79-2.28,2.54,2.54,0,0,1,2-.88,2.24,2.24,0,0,1,1.82.76,3.17,3.17,0,0,1,.65,2.11Zm-1-.82a1.9,1.9,0,0,0-.4-1.29,1.36,1.36,0,0,0-1.1-.46,1.56,1.56,0,0,0-1.15.48,2.25,2.25,0,0,0-.59,1.27Z" fill="#1e1e1e"/>
      <path d="M374.12,80.84q0,3.3-3.16,3.3a4.31,4.31,0,0,1-1.95-.42v-1a4.06,4.06,0,0,0,1.94.56c1.47,0,2.21-.78,2.21-2.35v-.66h0a2.25,2.25,0,0,1-2.06,1.15,2.28,2.28,0,0,1-1.81-.8,3.22,3.22,0,0,1-.68-2.15,3.73,3.73,0,0,1,.74-2.43,2.46,2.46,0,0,1,2-.9,2,2,0,0,1,1.8,1h0v-.83h1Zm-1-2.23v-.89a1.71,1.71,0,0,0-.48-1.22,1.6,1.6,0,0,0-1.21-.51,1.67,1.67,0,0,0-1.39.64,2.9,2.9,0,0,0-.5,1.82,2.48,2.48,0,0,0,.48,1.6,1.56,1.56,0,0,0,1.28.6,1.65,1.65,0,0,0,1.31-.57A2.16,2.16,0,0,0,373.16,78.61Z" fill="#1e1e1e"/>
      <path d="M376.56,73.79a.6.6,0,0,1-.44-.17.61.61,0,0,1-.18-.45.57.57,0,0,1,.18-.44.6.6,0,0,1,.44-.18.63.63,0,0,1,.45.18.57.57,0,0,1,.18.44.59.59,0,0,1-.18.44A.63.63,0,0,1,376.56,73.79Zm.47,7.53h-1v-6h1Z" fill="#1e1e1e"/>
      <path d="M381.48,81.46a2.77,2.77,0,0,1-2.12-.84,3.12,3.12,0,0,1-.8-2.23,3.23,3.23,0,0,1,.83-2.36,3,3,0,0,1,2.23-.85,2.71,2.71,0,0,1,2.1.82,3.29,3.29,0,0,1,.75,2.29,3.21,3.21,0,0,1-.81,2.3A2.84,2.84,0,0,1,381.48,81.46Zm.07-5.47a1.81,1.81,0,0,0-1.46.63,2.58,2.58,0,0,0-.54,1.73,2.49,2.49,0,0,0,.54,1.69,1.86,1.86,0,0,0,1.46.61,1.75,1.75,0,0,0,1.43-.6,3.17,3.17,0,0,0,0-3.45A1.73,1.73,0,0,0,381.55,76Z" fill="#1e1e1e"/>
      <path d="M391,81.32h-1V77.9c0-1.28-.46-1.91-1.39-1.91a1.5,1.5,0,0,0-1.19.54A2,2,0,0,0,387,77.9v3.42h-1v-6h1v1h0a2.17,2.17,0,0,1,2-1.13,1.83,1.83,0,0,1,1.5.63,2.84,2.84,0,0,1,.53,1.84Z" fill="#1e1e1e"/>
    </g>
    <g>
      <path d="M328.87,117.64v3.18h-1v-8.4h2.31a3,3,0,0,1,2.09.65,2.33,2.33,0,0,1,.74,1.85,2.54,2.54,0,0,1-.82,2,3.13,3.13,0,0,1-2.22.76Zm0-4.33v3.44h1a2.32,2.32,0,0,0,1.56-.46A1.67,1.67,0,0,0,332,115c0-1.11-.65-1.66-2-1.66Z" fill="#1e1e1e"/>
      <path d="M338.36,120.82h-1v-.94h0a2,2,0,0,1-1.85,1.08,2,2,0,0,1-1.4-.48,1.62,1.62,0,0,1-.51-1.26q0-1.68,2-2l1.8-.25c0-1-.41-1.53-1.24-1.53a2.94,2.94,0,0,0-2,.73v-1a3.76,3.76,0,0,1,2-.56c1.41,0,2.11.74,2.11,2.24Zm-1-3L336,118a2.38,2.38,0,0,0-1,.33,1,1,0,0,0-.34.84.9.9,0,0,0,.31.72,1.19,1.19,0,0,0,.83.28,1.55,1.55,0,0,0,1.18-.5,1.75,1.75,0,0,0,.47-1.27Z" fill="#1e1e1e"/>
      <path d="M343.3,115.79a1.18,1.18,0,0,0-.73-.19,1.2,1.2,0,0,0-1,.58,2.62,2.62,0,0,0-.42,1.58v3.06h-1v-6h1v1.23h0a2,2,0,0,1,.62-1,1.43,1.43,0,0,1,1-.36,1.65,1.65,0,0,1,.57.08Z" fill="#1e1e1e"/>
      <path d="M348.64,120.82h-1v-.94h0a2,2,0,0,1-1.84,1.08,1.93,1.93,0,0,1-1.4-.48,1.62,1.62,0,0,1-.51-1.26q0-1.68,2-2l1.8-.25c0-1-.41-1.53-1.24-1.53a3,3,0,0,0-2,.73v-1a3.76,3.76,0,0,1,2-.56c1.41,0,2.12.74,2.12,2.24Zm-1-3-1.45.2a2.49,2.49,0,0,0-1,.33,1,1,0,0,0-.34.84.9.9,0,0,0,.32.72,1.18,1.18,0,0,0,.83.28,1.55,1.55,0,0,0,1.18-.5,1.8,1.8,0,0,0,.47-1.27Z" fill="#1e1e1e"/>
      <path d="M355.57,120.34q0,3.3-3.16,3.3a4.28,4.28,0,0,1-2-.42v-1a4.06,4.06,0,0,0,1.93.56c1.48,0,2.22-.78,2.22-2.35v-.66h0a2.43,2.43,0,0,1-3.87.35A3.22,3.22,0,0,1,350,118a3.73,3.73,0,0,1,.73-2.43,2.48,2.48,0,0,1,2-.9,2,2,0,0,1,1.8,1h0v-.83h1Zm-1-2.23v-.89a1.71,1.71,0,0,0-.48-1.22,1.62,1.62,0,0,0-1.21-.51,1.66,1.66,0,0,0-1.39.64A2.9,2.9,0,0,0,351,118a2.43,2.43,0,0,0,.49,1.6,1.56,1.56,0,0,0,1.28.6,1.67,1.67,0,0,0,1.31-.57A2.16,2.16,0,0,0,354.61,118.11Z" fill="#1e1e1e"/>
      <path d="M360.64,115.79a1.14,1.14,0,0,0-.72-.19,1.23,1.23,0,0,0-1,.58,2.62,2.62,0,0,0-.41,1.58v3.06h-1v-6h1v1.23h0a2.09,2.09,0,0,1,.63-1,1.4,1.4,0,0,1,.94-.36,1.65,1.65,0,0,1,.57.08Z" fill="#1e1e1e"/>
      <path d="M366,120.82h-1v-.94h0a2,2,0,0,1-1.85,1.08,2,2,0,0,1-1.4-.48,1.62,1.62,0,0,1-.51-1.26q0-1.68,2-2L365,117q0-1.53-1.23-1.53a3,3,0,0,0-2,.73v-1a3.76,3.76,0,0,1,2-.56c1.41,0,2.11.74,2.11,2.24Zm-1-3-1.45.2a2.38,2.38,0,0,0-1,.33,1,1,0,0,0-.34.84.9.9,0,0,0,.31.72,1.2,1.2,0,0,0,.84.28,1.56,1.56,0,0,0,1.18-.5,1.79,1.79,0,0,0,.46-1.27Z" fill="#1e1e1e"/>
      <path d="M368.78,120h0v3.63h-1v-8.76h1v1.05h0a2.27,2.27,0,0,1,2.07-1.19,2.2,2.2,0,0,1,1.81.8,3.31,3.31,0,0,1,.65,2.16,3.69,3.69,0,0,1-.73,2.41,2.43,2.43,0,0,1-2,.91A2,2,0,0,1,368.78,120Zm0-2.42v.84a1.78,1.78,0,0,0,.49,1.26,1.71,1.71,0,0,0,2.59-.15,3,3,0,0,0,.5-1.85,2.5,2.5,0,0,0-.46-1.58,1.56,1.56,0,0,0-1.26-.56,1.7,1.7,0,0,0-1.35.58A2.15,2.15,0,0,0,368.75,117.53Z" fill="#1e1e1e"/>
      <path d="M379.83,120.82h-1v-3.46c0-1.25-.47-1.87-1.4-1.87a1.51,1.51,0,0,0-1.18.54,2,2,0,0,0-.48,1.39v3.4h-1v-8.88h1v3.87h0a2.19,2.19,0,0,1,2-1.13c1.35,0,2,.81,2,2.44Z" fill="#1e1e1e"/>
    </g>
    <g>
      <path d="M348.15,162.82h-4.36v-8.4h1v7.51h3.37Z" fill="#1e1e1e"/>
      <path d="M349.8,155.29a.6.6,0,0,1-.44-.17.61.61,0,0,1-.18-.45.57.57,0,0,1,.18-.44.6.6,0,0,1,.44-.18.61.61,0,0,1,.45.18.58.58,0,0,1,.19.44.6.6,0,0,1-.19.44A.61.61,0,0,1,349.8,155.29Zm.47,7.53h-1v-6h1Z" fill="#1e1e1e"/>
      <path d="M357.2,162.82h-1V159.4c0-1.28-.47-1.91-1.4-1.91a1.5,1.5,0,0,0-1.19.54,2,2,0,0,0-.47,1.37v3.42h-1v-6h1v1h0a2.17,2.17,0,0,1,2-1.13,1.85,1.85,0,0,1,1.51.63,2.9,2.9,0,0,1,.52,1.84Z" fill="#1e1e1e"/>
      <path d="M363.83,160.06h-4.24a2.3,2.3,0,0,0,.54,1.55,1.88,1.88,0,0,0,1.42.54,2.89,2.89,0,0,0,1.86-.67v.9a3.41,3.41,0,0,1-2.09.58,2.53,2.53,0,0,1-2-.82,3.35,3.35,0,0,1-.72-2.3,3.28,3.28,0,0,1,.79-2.28,2.54,2.54,0,0,1,2-.88,2.26,2.26,0,0,1,1.83.76,3.17,3.17,0,0,1,.64,2.11Zm-1-.82a2,2,0,0,0-.41-1.29,1.35,1.35,0,0,0-1.09-.46,1.57,1.57,0,0,0-1.16.48,2.24,2.24,0,0,0-.58,1.27Z" fill="#1e1e1e"/>
    </g>
    <g>
      <path d="M350.06,193.92l-2.38,8.4h-1.15l-1.73-6.14a3.78,3.78,0,0,1-.13-.86h0a4.09,4.09,0,0,1-.15.85l-1.74,6.15h-1.14l-2.46-8.4h1.08l1.79,6.44a4.57,4.57,0,0,1,.14.85h0a5.24,5.24,0,0,1,.18-.85l1.86-6.44h.94l1.78,6.49a4.78,4.78,0,0,1,.14.78h0a4.18,4.18,0,0,1,.15-.81l1.72-6.46Z" fill="#1e1e1e"/>
      <path d="M353.21,202.46a2.79,2.79,0,0,1-2.12-.84,3.12,3.12,0,0,1-.79-2.23,3.23,3.23,0,0,1,.82-2.36,3,3,0,0,1,2.24-.85,2.68,2.68,0,0,1,2.09.82,3.29,3.29,0,0,1,.75,2.29,3.21,3.21,0,0,1-.81,2.3A2.83,2.83,0,0,1,353.21,202.46Zm.08-5.47a1.84,1.84,0,0,0-1.47.63,2.58,2.58,0,0,0-.54,1.73,2.44,2.44,0,0,0,.55,1.69,1.85,1.85,0,0,0,1.46.61,1.77,1.77,0,0,0,1.43-.6,3.23,3.23,0,0,0,0-3.45A1.74,1.74,0,0,0,353.29,197Z" fill="#1e1e1e"/>
      <path d="M360.87,197.29a1.18,1.18,0,0,0-.73-.19,1.23,1.23,0,0,0-1,.58,2.7,2.7,0,0,0-.41,1.58v3.06h-1v-6h1v1.23h0a2.09,2.09,0,0,1,.63-1,1.42,1.42,0,0,1,.94-.36,1.75,1.75,0,0,1,.58.08Z" fill="#1e1e1e"/>
      <path d="M367,202.32h-1v-1h0a2.42,2.42,0,0,1-3.87.35,3.3,3.3,0,0,1-.68-2.19,3.62,3.62,0,0,1,.75-2.39,2.5,2.5,0,0,1,2-.89,1.93,1.93,0,0,1,1.8,1h0v-3.71h1Zm-1-2.71v-.89a1.73,1.73,0,0,0-.48-1.23,1.6,1.6,0,0,0-1.22-.5,1.65,1.65,0,0,0-1.38.64,2.79,2.79,0,0,0-.51,1.78,2.56,2.56,0,0,0,.49,1.64,1.57,1.57,0,0,0,1.3.6,1.63,1.63,0,0,0,1.3-.58A2.17,2.17,0,0,0,366.07,199.61Z" fill="#1e1e1e"/>
      <path d="M340.13,215.32H339v-4.53c0-.37,0-.83.07-1.37h0a5,5,0,0,1-.19.66l-2.09,5.24H336l-2.1-5.2a4,4,0,0,1-.18-.7h0c0,.28,0,.74,0,1.38v4.52h-1.08v-7h1.64l1.84,4.66a6.19,6.19,0,0,1,.27.8h0c.13-.37.22-.64.3-.82l1.87-4.64h1.58Z" fill="#1e1e1e"/>
      <path d="M342.3,209.27a.7.7,0,0,1-.48-.18.6.6,0,0,1-.19-.46.59.59,0,0,1,.19-.46.66.66,0,0,1,.48-.19.69.69,0,0,1,.49.19.6.6,0,0,1,.2.46.61.61,0,0,1-.2.45A.69.69,0,0,1,342.3,209.27Zm.56,6h-1.13v-5h1.13Z" fill="#1e1e1e"/>
      <path d="M347.92,215.09a2.82,2.82,0,0,1-1.42.35,2.37,2.37,0,0,1-2.48-2.5,2.71,2.71,0,0,1,.73-2,2.64,2.64,0,0,1,2-.75,2.86,2.86,0,0,1,1.2.24v1.06a1.78,1.78,0,0,0-1.11-.4,1.58,1.58,0,0,0-1.18.49,1.8,1.8,0,0,0-.46,1.27,1.7,1.7,0,0,0,.44,1.23,1.51,1.51,0,0,0,1.16.45,1.82,1.82,0,0,0,1.15-.44Z" fill="#1e1e1e"/>
      <path d="M351.94,211.4a.92.92,0,0,0-.59-.16,1,1,0,0,0-.84.45,2.05,2.05,0,0,0-.34,1.24v2.39H349v-5h1.13v1h0a1.64,1.64,0,0,1,.52-.82,1.11,1.11,0,0,1,.76-.3,1,1,0,0,1,.47.09Z" fill="#1e1e1e"/>
      <path d="M354.87,215.44a2.48,2.48,0,0,1-1.85-.71,2.51,2.51,0,0,1-.69-1.85A2.47,2.47,0,0,1,355,210.2a2.4,2.4,0,0,1,1.83.69,3.05,3.05,0,0,1-.05,3.83A2.53,2.53,0,0,1,354.87,215.44Zm.06-4.34a1.28,1.28,0,0,0-1.05.47,1.92,1.92,0,0,0-.39,1.28,1.86,1.86,0,0,0,.39,1.24,1.32,1.32,0,0,0,1.05.45,1.23,1.23,0,0,0,1-.45,1.93,1.93,0,0,0,.36-1.26,2,2,0,0,0-.36-1.28A1.23,1.23,0,0,0,354.93,211.1Z" fill="#1e1e1e"/>
      <path d="M358.31,215.16v-1a2.32,2.32,0,0,0,1.4.49c.69,0,1-.21,1-.61a.48.48,0,0,0-.09-.29.78.78,0,0,0-.23-.21,2,2,0,0,0-.36-.17l-.45-.16c-.2-.09-.39-.17-.55-.26a1.69,1.69,0,0,1-.41-.31,1.28,1.28,0,0,1-.25-.4,1.52,1.52,0,0,1-.08-.51,1.25,1.25,0,0,1,.17-.64,1.55,1.55,0,0,1,.46-.46,2,2,0,0,1,.65-.28,2.78,2.78,0,0,1,.76-.1,3.43,3.43,0,0,1,1.24.21v1a2.08,2.08,0,0,0-1.21-.36,2.34,2.34,0,0,0-.39,0,.78.78,0,0,0-.29.13.5.5,0,0,0-.19.19.4.4,0,0,0-.07.24.47.47,0,0,0,.07.27.63.63,0,0,0,.2.2,1.19,1.19,0,0,0,.32.15l.43.16c.22.09.41.18.58.27a1.82,1.82,0,0,1,.44.31,1.26,1.26,0,0,1,.28.4,1.45,1.45,0,0,1,.09.54,1.3,1.3,0,0,1-.17.66,1.51,1.51,0,0,1-.47.47,2.31,2.31,0,0,1-.68.28,3.72,3.72,0,0,1-2.23-.19Z" fill="#1e1e1e"/>
      <path d="M365.15,215.44a2.46,2.46,0,0,1-1.84-.71,2.51,2.51,0,0,1-.69-1.85,2.47,2.47,0,0,1,2.66-2.68,2.37,2.37,0,0,1,1.82.69,3,3,0,0,1-.05,3.83A2.53,2.53,0,0,1,365.15,215.44Zm.06-4.34a1.3,1.3,0,0,0-1,.47,1.92,1.92,0,0,0-.39,1.28,1.86,1.86,0,0,0,.39,1.24,1.32,1.32,0,0,0,1,.45,1.25,1.25,0,0,0,1-.45,1.93,1.93,0,0,0,.36-1.26,2,2,0,0,0-.36-1.28A1.25,1.25,0,0,0,365.21,211.1Z" fill="#1e1e1e"/>
      <path d="M371.57,208.84a1,1,0,0,0-.52-.13c-.55,0-.83.31-.83.93v.68h1.16v.89h-1.15v4.11H369.1v-4.11h-.86v-.89h.86v-.81a1.58,1.58,0,0,1,.51-1.25,1.93,1.93,0,0,1,1.3-.46,1.7,1.7,0,0,1,.66.1Z" fill="#1e1e1e"/>
      <path d="M375,215.26a1.82,1.82,0,0,1-.87.17c-1,0-1.46-.46-1.46-1.4v-2.82h-.83v-.89h.83v-1.16l1.14-.32v1.48H375v.89h-1.19v2.5a1,1,0,0,0,.16.63.66.66,0,0,0,.54.19.76.76,0,0,0,.49-.16Z" fill="#1e1e1e"/>
    </g>
    <g>
      <path d="M438.77,81.32v-8.4h2.32c3,0,4.45,1.36,4.45,4.09a4.15,4.15,0,0,1-1.24,3.13,4.6,4.6,0,0,1-3.3,1.18Zm1-7.51v6.62H441a3.55,3.55,0,0,0,2.57-.89,3.28,3.28,0,0,0,.92-2.5c0-2.16-1.14-3.23-3.43-3.23Z" fill="#1e1e1e"/>
      <path d="M450.19,76.29a1.18,1.18,0,0,0-.73-.19,1.23,1.23,0,0,0-1,.58,2.7,2.7,0,0,0-.41,1.58v3.06h-1v-6h1v1.23h0a2.09,2.09,0,0,1,.63-1,1.42,1.42,0,0,1,.94-.36,1.75,1.75,0,0,1,.58.08Z" fill="#1e1e1e"/>
      <path d="M455.53,81.32h-1v-.94h0a2,2,0,0,1-1.84,1.08,2,2,0,0,1-1.41-.48,1.61,1.61,0,0,1-.5-1.26q0-1.68,2-2l1.79-.25q0-1.53-1.23-1.53a3,3,0,0,0-2,.73v-1a3.76,3.76,0,0,1,2-.56c1.41,0,2.12.74,2.12,2.24Zm-1-3-1.44.2a2.44,2.44,0,0,0-1,.33,1,1,0,0,0-.34.84.9.9,0,0,0,.31.72,1.2,1.2,0,0,0,.84.28,1.56,1.56,0,0,0,1.18-.5,1.79,1.79,0,0,0,.46-1.27Z" fill="#1e1e1e"/>
      <path d="M464.89,75.32l-1.79,6h-1L460.86,77a4,4,0,0,1-.09-.55h0a3.4,3.4,0,0,1-.13.54l-1.34,4.31h-1l-1.82-6h1l1.24,4.51a3,3,0,0,1,.09.54h0a2.33,2.33,0,0,1,.11-.55l1.38-4.5h.88l1.24,4.52a3.36,3.36,0,0,1,.09.54h.05a2.08,2.08,0,0,1,.1-.54L464,75.32Z" fill="#1e1e1e"/>
      <path d="M466.5,73.79a.6.6,0,0,1-.44-.17.61.61,0,0,1-.18-.45.57.57,0,0,1,.18-.44.6.6,0,0,1,.44-.18.61.61,0,0,1,.45.18.57.57,0,0,1,.18.44.59.59,0,0,1-.18.44A.61.61,0,0,1,466.5,73.79Zm.47,7.53h-1v-6h1Z" fill="#1e1e1e"/>
      <path d="M473.89,81.32h-1V77.9c0-1.28-.46-1.91-1.39-1.91a1.5,1.5,0,0,0-1.19.54,2,2,0,0,0-.47,1.37v3.42h-1v-6h1v1h0a2.17,2.17,0,0,1,2-1.13,1.83,1.83,0,0,1,1.5.63,2.84,2.84,0,0,1,.52,1.84Z" fill="#1e1e1e"/>
      <path d="M480.83,80.84q0,3.3-3.17,3.3a4.23,4.23,0,0,1-1.94-.42v-1a4,4,0,0,0,1.93.56c1.48,0,2.22-.78,2.22-2.35v-.66h0a2.42,2.42,0,0,1-3.86.35,3.17,3.17,0,0,1-.69-2.15,3.73,3.73,0,0,1,.74-2.43,2.46,2.46,0,0,1,2-.9,2,2,0,0,1,1.8,1h0v-.83h1Zm-1-2.23v-.89a1.72,1.72,0,0,0-.49-1.22,1.58,1.58,0,0,0-1.2-.51,1.67,1.67,0,0,0-1.4.64,3,3,0,0,0-.5,1.82,2.48,2.48,0,0,0,.48,1.6,1.56,1.56,0,0,0,1.28.6,1.69,1.69,0,0,0,1.32-.57A2.16,2.16,0,0,0,479.87,78.61Z" fill="#1e1e1e"/>
      <path d="M489.19,76.29a1.18,1.18,0,0,0-.73-.19,1.23,1.23,0,0,0-1,.58,2.7,2.7,0,0,0-.41,1.58v3.06h-1v-6h1v1.23h0a2.09,2.09,0,0,1,.63-1,1.42,1.42,0,0,1,.94-.36,1.75,1.75,0,0,1,.58.08Z" fill="#1e1e1e"/>
      <path d="M495.05,78.56h-4.23a2.21,2.21,0,0,0,.54,1.55,1.85,1.85,0,0,0,1.41.54,2.94,2.94,0,0,0,1.87-.67v.9a3.46,3.46,0,0,1-2.1.58,2.51,2.51,0,0,1-2-.82,3.83,3.83,0,0,1,.06-4.58,2.55,2.55,0,0,1,2-.88,2.25,2.25,0,0,1,1.82.76,3.17,3.17,0,0,1,.64,2.11Zm-1-.82a2,2,0,0,0-.4-1.29,1.37,1.37,0,0,0-1.1-.46,1.59,1.59,0,0,0-1.16.48,2.24,2.24,0,0,0-.58,1.27Z" fill="#1e1e1e"/>
      <path d="M501.63,80.84q0,3.3-3.17,3.3a4.23,4.23,0,0,1-1.94-.42v-1a4,4,0,0,0,1.93.56c1.48,0,2.22-.78,2.22-2.35v-.66h0a2.42,2.42,0,0,1-3.86.35,3.17,3.17,0,0,1-.68-2.15,3.73,3.73,0,0,1,.73-2.43,2.46,2.46,0,0,1,2-.9,2,2,0,0,1,1.8,1h0v-.83h1Zm-1-2.23v-.89a1.72,1.72,0,0,0-.49-1.22A1.58,1.58,0,0,0,499,76a1.67,1.67,0,0,0-1.4.64,3,3,0,0,0-.5,1.82,2.48,2.48,0,0,0,.48,1.6,1.57,1.57,0,0,0,1.28.6,1.69,1.69,0,0,0,1.32-.57A2.16,2.16,0,0,0,500.67,78.61Z" fill="#1e1e1e"/>
      <path d="M504.06,73.79a.57.57,0,0,1-.43-.17.58.58,0,0,1-.19-.45.55.55,0,0,1,.19-.44.58.58,0,0,1,.43-.18.61.61,0,0,1,.45.18.55.55,0,0,1,.19.44.56.56,0,0,1-.19.44A.61.61,0,0,1,504.06,73.79Zm.47,7.53h-1v-6h1Z" fill="#1e1e1e"/>
      <path d="M509,81.46a2.79,2.79,0,0,1-2.13-.84,3.12,3.12,0,0,1-.79-2.23,3.23,3.23,0,0,1,.82-2.36,3,3,0,0,1,2.24-.85,2.68,2.68,0,0,1,2.09.82,3.29,3.29,0,0,1,.75,2.29,3.21,3.21,0,0,1-.81,2.3A2.82,2.82,0,0,1,509,81.46Zm.07-5.47a1.84,1.84,0,0,0-1.47.63,2.58,2.58,0,0,0-.54,1.73A2.44,2.44,0,0,0,507.6,80a1.85,1.85,0,0,0,1.46.61,1.75,1.75,0,0,0,1.43-.6,3.23,3.23,0,0,0,0-3.45A1.73,1.73,0,0,0,509.06,76Z" fill="#1e1e1e"/>
      <path d="M518.49,81.32h-1V77.9c0-1.28-.47-1.91-1.4-1.91a1.52,1.52,0,0,0-1.19.54,2,2,0,0,0-.47,1.37v3.42h-1v-6h1v1h0a2.18,2.18,0,0,1,2-1.13,1.85,1.85,0,0,1,1.51.63,2.84,2.84,0,0,1,.52,1.84Z" fill="#1e1e1e"/>
      <path d="M471.72,94a4.32,4.32,0,0,1-2,.41,3.21,3.21,0,0,1-2.44-1,3.46,3.46,0,0,1-.92-2.52,3.68,3.68,0,0,1,1-2.72,3.53,3.53,0,0,1,2.61-1,4.35,4.35,0,0,1,1.69.29v1.15a3.05,3.05,0,0,0-1.57-.42,2.43,2.43,0,0,0-1.84.73,2.66,2.66,0,0,0-.71,1.94,2.53,2.53,0,0,0,.66,1.84,2.3,2.3,0,0,0,1.74.69,3.14,3.14,0,0,0,1.72-.47Z" fill="#1e1e1e"/>
      <path d="M473.49,88.27a.68.68,0,0,1-.48-.18.61.61,0,0,1-.2-.46.6.6,0,0,1,.2-.46.65.65,0,0,1,.48-.19.69.69,0,0,1,.49.19.6.6,0,0,1,.2.46.61.61,0,0,1-.2.45A.69.69,0,0,1,473.49,88.27Zm.56,6h-1.13v-5h1.13Z" fill="#1e1e1e"/>
      <path d="M478.43,90.4a.92.92,0,0,0-.59-.16,1,1,0,0,0-.84.45,2,2,0,0,0-.34,1.24v2.39h-1.13v-5h1.13v1h0a1.7,1.7,0,0,1,.51-.82,1.15,1.15,0,0,1,.77-.3,1,1,0,0,1,.47.09Z" fill="#1e1e1e"/>
      <path d="M482.72,94.09a2.79,2.79,0,0,1-1.42.35,2.44,2.44,0,0,1-1.8-.7,2.48,2.48,0,0,1-.68-1.8,2.72,2.72,0,0,1,.74-2,2.6,2.6,0,0,1,2-.75,2.87,2.87,0,0,1,1.21.24V90.5a1.79,1.79,0,0,0-1.12-.4,1.54,1.54,0,0,0-1.17.49,1.76,1.76,0,0,0-.46,1.27,1.69,1.69,0,0,0,.43,1.23,1.53,1.53,0,0,0,1.16.45,1.8,1.8,0,0,0,1.15-.44Z" fill="#1e1e1e"/>
      <path d="M485,94.32h-1.14v-7.4H485Z" fill="#1e1e1e"/>
      <path d="M490.69,92.13h-3.41a1.46,1.46,0,0,0,.43,1.07,1.58,1.58,0,0,0,1.12.37,2.48,2.48,0,0,0,1.47-.48V94a3.44,3.44,0,0,1-1.81.43,2.23,2.23,0,0,1-1.73-.69,2.7,2.7,0,0,1-.63-1.91,2.67,2.67,0,0,1,.7-1.9,2.26,2.26,0,0,1,1.71-.74,2,2,0,0,1,1.59.66,2.76,2.76,0,0,1,.56,1.83Zm-1.09-.8a1.47,1.47,0,0,0-.29-1,1,1,0,0,0-.78-.34,1.09,1.09,0,0,0-.83.35,1.61,1.61,0,0,0-.42.94Z" fill="#1e1e1e"/>
    </g>
  </g>
</svg>
