<?xml version="1.0" encoding="UTF-8"?>
<svg xmlns="http://www.w3.org/2000/svg" width="631.1143" height="211.2" xmlns:xlink="http://www.w3.org/1999/xlink" viewBox="0 0 631.1143 211.2">
  <defs>
    <linearGradient id="Cool_gray_gradient_1" data-name="Cool gray gradient 1" x1="217.5143" y1="105.6" x2="415.5143" y2="105.6" gradientUnits="userSpaceOnUse">
      <stop offset="0" stop-color="#f5f5f4"/>
      <stop offset="1" stop-color="#ececea"/>
    </linearGradient>
    <radialGradient id="radial-gradient" cx="-76.4862" cy="352.9824" fx="-76.4862" fy="352.9824" r="10.7204" gradientTransform="translate(108.6879 301.688) scale(.7678 -.7678)" gradientUnits="userSpaceOnUse">
      <stop offset=".27" stop-color="#ffd70f"/>
      <stop offset=".49" stop-color="#ffcb12"/>
      <stop offset=".88" stop-color="#feac19"/>
      <stop offset="1" stop-color="#fea11b"/>
    </radialGradient>
    <radialGradient id="radial-gradient-2" cx="462.2237" fx="462.2237" r="10.7204" xlink:href="#radial-gradient"/>
  </defs>
  <g isolation="isolate">
    <g id="Shapes">
      <rect width="631.1143" height="211.2" fill="#fff"/>
      <g>
        <rect x="10.7143" y="8.8" width="198" height="193.6" rx="8" ry="8" fill="#fff"/>
        <rect x="10.7143" y="8.8" width="198" height="193.6" rx="8" ry="8" fill="#fff1cc" opacity=".5"/>
        <rect x="10.7143" y="8.8" width="198" height="193.6" rx="8" ry="8" fill="none" stroke="#dfa626" stroke-width=".25"/>
      </g>
      <g>
        <g mix-blend-mode="multiply" opacity=".8">
          <rect x="218.0143" y="9.3" width="198" height="193.6" rx="8" ry="8" fill="#2b436f"/>
          <rect x="218.0143" y="9.3" width="198" height="193.6" rx="8" ry="8" fill="#2b436f" opacity=".4"/>
        </g>
        <g>
          <rect x="217.5143" y="8.8" width="198" height="193.6" rx="8" ry="8" fill="url(#Cool_gray_gradient_1)"/>
          <rect x="217.5143" y="8.8" width="198" height="193.6" rx="8" ry="8" fill="#8ec8e7" opacity=".4"/>
        </g>
      </g>
      <g>
        <g>
          <path d="M47.8598,42.9253c-1.9731,0-3.7642-.5977-5.1802-1.7285-4.2676-3.4087-4.0859-10.7559.4043-16.3779,2.8726-3.5967,6.8735-5.7441,10.7031-5.7441,1.9727,0,3.7642.5977,5.1797,1.7285,2.0645,1.6489,3.1606,4.2583,3.0874,7.3477-.0737,3.0967-1.3135,6.3037-3.4912,9.0303-2.8726,3.5967-6.8735,5.7441-10.7031,5.7441Z" fill="#fff"/>
          <path d="M47.8598,42.9253c-1.9731,0-3.7642-.5977-5.1802-1.7285-4.2676-3.4087-4.0859-10.7559.4043-16.3779,2.8726-3.5967,6.8735-5.7441,10.7031-5.7441,1.9727,0,3.7642.5977,5.1797,1.7285,2.0645,1.6489,3.1606,4.2583,3.0874,7.3477-.0737,3.0967-1.3135,6.3037-3.4912,9.0303-2.8726,3.5967-6.8735,5.7441-10.7031,5.7441Z" fill="#ffe452" opacity=".08"/>
          <path d="M53.7872,19v.15c1.9557,0,3.7307.592,5.133,1.7121,4.2353,3.3826,4.0487,10.6824-.4159,16.2724-2.8583,3.5789-6.8375,5.7155-10.6444,5.7155-1.9559,0-3.731-.592-5.1334-1.7121-2.0455-1.6337-3.1318-4.2215-3.0589-7.2868.0733-3.0807,1.3073-6.2719,3.4747-8.9856,2.8582-3.5788,6.8376-5.7154,10.6447-5.7155v-.15M53.7869,19c-3.688.0001-7.7925,2.0544-10.7616,5.7719-4.5235,5.6638-4.6991,13.0436-.3923,16.4833,1.4799,1.182,3.2962,1.7448,5.227,1.7448,3.688,0,7.7925-2.0544,10.7616-5.7719,4.5234-5.6638,4.6991-13.0436.3923-16.4833-1.4799-1.182-3.2963-1.7449-5.227-1.7448h0Z" fill="#ffe452"/>
          <path d="M53.7869,19c1.9307,0,3.7471.5629,5.227,1.7448,4.3068,3.4397,4.1312,10.8195-.3923,16.4833-2.9691,3.7175-7.0737,5.7719-10.7616,5.7719-1.9307,0-3.7471-.5629-5.227-1.7448-4.3068-3.4397-4.1312-10.8195.3923-16.4833,2.9691-3.7175,7.0736-5.7718,10.7616-5.7719M53.7872,18.9c-3.8825.0001-7.9349,2.1719-10.8401,5.8095-2.2013,2.7562-3.4547,6.0007-3.5293,9.1357-.0749,3.1452,1.0448,5.8046,3.1528,7.4881,1.4471,1.1558,3.2762,1.7667,5.2894,1.7667,3.8822,0,7.9344-2.1718,10.8398-5.8095,4.5506-5.6978,4.7196-13.1552.3765-16.6238-1.4471-1.1558-3.2761-1.7667-5.2891-1.7667h0Z" fill="#d15900"/>
        </g>
        <g>
          <path id="e3d1e58c-f78e-4fb5-9857-0c9331da9979" d="M54.7518,29.5052c.6337-.6326.6346-1.6591.002-2.2927-.0007-.0007-.0013-.0013-.002-.002h0l-2.7882-2.796c-.6286-.6315-1.6501-.6339-2.2816-.0053-.0018.0018-.0035.0035-.0053.0053h0l-2.7882,2.796c-.6259.6369-.6259,1.6579,0,2.2947l2.3496,2.3496c.0831.0865.1307.2012.1331.3211v4.3232c-.0021.1462.0543.2872.1566.3916l1.0573,1.0573c.1323.1427.3553.1512.4981.0188.0065-.006.0128-.0123.0188-.0188l1.026-1.026h0l.6031-.6031c.0822-.0768.0866-.2056.0098-.2878-.0032-.0034-.0064-.0066-.0098-.0098l-.4308-.4386c-.0908-.0865-.0943-.2303-.0078-.3211.0025-.0027.0052-.0053.0078-.0078l.4308-.4386c.0822-.0768.0866-.2056.0098-.2878-.0032-.0034-.0064-.0066-.0098-.0098l-.4543-.4621c-.0887-.0825-.0937-.2213-.0112-.3099.0036-.0039.0073-.0076.0112-.0112l.4699-.4621c.0822-.0768.0866-.2056.0098-.2878-.0032-.0034-.0064-.0066-.0098-.0098l-.6031-.6109v-.2193l2.608-2.6394ZM50.8359,25.088c.5104.0043.9206.4216.9163.932-.0043.5104-.4216.9206-.932.9163-.5073-.0043-.9163-.4168-.9163-.9241-.0043-.5061.4024-.9198.9085-.9241.0026,0,.0052,0,.0079,0h.0157Z" fill="url(#radial-gradient)"/>
          <path id="a21a8f7a-61cc-4035-8449-e5c8fe4d4d5e" d="M50.0997,36.5695h0c.0924.0562.2128.027.2691-.0654.0182-.0299.0281-.0641.0285-.0991v-3.4852c.0006-.0679-.0314-.132-.0862-.1723h0c-.0895-.0607-.2112-.0374-.272.0521-.024.0353-.0357.0775-.0335.1202v3.4852c.0036.0666.0385.1275.094.1645Z" fill="#ff9300" isolation="isolate" opacity=".75"/>
          <rect id="ecd3189c-fb1e-4a0e-a2b6-ba2f11dda484" x="48.5881" y="28.1424" width="4.5895" height=".5404" rx=".2506" ry=".2506" fill="#ff9300" isolation="isolate" opacity=".75"/>
          <rect id="a1949a3c-4818-4bd1-b236-0d970b92fc62" x="48.5881" y="29.0196" width="4.5895" height=".5404" rx=".2506" ry=".2506" fill="#ff9300" isolation="isolate" opacity=".75"/>
        </g>
      </g>
      <rect x="41.5143" y="52.7915" width="132" height="35.2" fill="#fff" stroke="#4e4f4f" stroke-width=".25"/>
      <rect x="41.5143" y="101.2" width="132" height="35.2" fill="#fff" stroke="#4e4f4f" stroke-width=".25"/>
      <rect x="41.5143" y="149.6" width="132" height="35.2" fill="#fff" stroke="#4e4f4f" stroke-width=".25"/>
      <g>
        <rect x="424.3143" y="8.8" width="198" height="193.6" rx="8" ry="8" fill="#fff"/>
        <rect x="424.3143" y="8.8" width="198" height="193.6" rx="8" ry="8" fill="#fff1cc" opacity=".5"/>
        <rect x="424.3143" y="8.8" width="198" height="193.6" rx="8" ry="8" fill="none" stroke="#dfa626" stroke-width=".25"/>
      </g>
      <g>
        <g>
          <path d="M461.4598,42.9253c-1.9731,0-3.7642-.5977-5.1802-1.7285-4.2676-3.4087-4.0859-10.7559.4043-16.3779,2.8726-3.5967,6.8735-5.7441,10.7031-5.7441,1.9727,0,3.7642.5977,5.1797,1.7285,2.0645,1.6489,3.1606,4.2583,3.0874,7.3477-.0737,3.0967-1.3135,6.3037-3.4912,9.0303-2.8726,3.5967-6.8735,5.7441-10.7031,5.7441Z" fill="#fff"/>
          <path d="M461.4598,42.9253c-1.9731,0-3.7642-.5977-5.1802-1.7285-4.2676-3.4087-4.0859-10.7559.4043-16.3779,2.8726-3.5967,6.8735-5.7441,10.7031-5.7441,1.9727,0,3.7642.5977,5.1797,1.7285,2.0645,1.6489,3.1606,4.2583,3.0874,7.3477-.0737,3.0967-1.3135,6.3037-3.4912,9.0303-2.8726,3.5967-6.8735,5.7441-10.7031,5.7441Z" fill="#ffe452" opacity=".08"/>
          <path d="M467.3872,19v.15c1.9557,0,3.7307.592,5.133,1.7121,4.2353,3.3826,4.0487,10.6824-.4159,16.2724-2.8583,3.5789-6.8375,5.7155-10.6444,5.7155-1.9559,0-3.731-.592-5.1334-1.7121-2.0455-1.6337-3.1318-4.2215-3.0589-7.2868.0733-3.0807,1.3073-6.2719,3.4747-8.9856,2.8582-3.5788,6.8376-5.7154,10.6447-5.7155v-.15M467.3869,19c-3.688.0001-7.7925,2.0544-10.7616,5.7719-4.5235,5.6638-4.6991,13.0436-.3923,16.4833,1.4799,1.182,3.2962,1.7448,5.227,1.7448,3.688,0,7.7925-2.0544,10.7616-5.7719,4.5234-5.6638,4.6991-13.0436.3923-16.4833-1.4799-1.182-3.2963-1.7449-5.227-1.7448h0Z" fill="#ffe452"/>
          <path d="M467.3869,19c1.9307,0,3.7471.5629,5.227,1.7448,4.3068,3.4397,4.1312,10.8195-.3923,16.4833-2.9691,3.7175-7.0737,5.7719-10.7616,5.7719-1.9307,0-3.7471-.5629-5.227-1.7448-4.3068-3.4397-4.1312-10.8195.3923-16.4833,2.9691-3.7175,7.0736-5.7718,10.7616-5.7719M467.3872,18.9c-3.8825.0001-7.9349,2.1719-10.8401,5.8095-2.2013,2.7562-3.4547,6.0007-3.5293,9.1357-.0749,3.1452,1.0448,5.8046,3.1528,7.4881,1.4471,1.1558,3.2762,1.7667,5.2894,1.7667,3.8822,0,7.9344-2.1718,10.8398-5.8095,4.5506-5.6978,4.7196-13.1552.3765-16.6238-1.4471-1.1558-3.2761-1.7667-5.2891-1.7667h0Z" fill="#d15900"/>
        </g>
        <g>
          <path id="e3d1e58c-f78e-4fb5-9857-0c9331da9979-2" data-name="e3d1e58c-f78e-4fb5-9857-0c9331da9979" d="M468.3518,29.5052c.6337-.6326.6346-1.6591.002-2.2927-.0007-.0007-.0013-.0013-.002-.002h0l-2.7882-2.796c-.6286-.6315-1.6501-.6339-2.2816-.0053-.0018.0018-.0035.0035-.0053.0053h0l-2.7882,2.796c-.6259.6369-.6259,1.6579,0,2.2947l2.3496,2.3496c.0831.0865.1307.2012.1331.3211v4.3232c-.0021.1462.0543.2872.1566.3916l1.0573,1.0573c.1323.1427.3553.1512.4981.0188.0065-.006.0128-.0123.0188-.0188l1.026-1.026h0l.6031-.6031c.0822-.0768.0866-.2056.0098-.2878-.0032-.0034-.0064-.0066-.0098-.0098l-.4308-.4386c-.0908-.0865-.0943-.2303-.0078-.3211.0025-.0027.0052-.0053.0078-.0078l.4308-.4386c.0822-.0768.0866-.2056.0098-.2878-.0032-.0034-.0064-.0066-.0098-.0098l-.4543-.4621c-.0887-.0825-.0937-.2213-.0112-.3099.0036-.0039.0073-.0076.0112-.0112l.4699-.4621c.0822-.0768.0866-.2056.0098-.2878-.0032-.0034-.0064-.0066-.0098-.0098l-.6031-.6109v-.2193l2.608-2.6394ZM464.4359,25.088c.5104.0043.9206.4216.9163.932-.0043.5104-.4216.9206-.932.9163-.5073-.0043-.9163-.4168-.9163-.9241-.0043-.5061.4024-.9198.9085-.9241.0026,0,.0052,0,.0079,0h.0157Z" fill="url(#radial-gradient-2)"/>
          <path id="a21a8f7a-61cc-4035-8449-e5c8fe4d4d5e-2" data-name="a21a8f7a-61cc-4035-8449-e5c8fe4d4d5e" d="M463.6997,36.5695h0c.0924.0562.2128.027.2691-.0654.0182-.0299.0281-.0641.0285-.0991v-3.4852c.0006-.0679-.0314-.132-.0862-.1723h0c-.0895-.0607-.2112-.0374-.272.0521-.024.0353-.0357.0775-.0335.1202v3.4852c.0036.0666.0385.1275.094.1645Z" fill="#ff9300" isolation="isolate" opacity=".75"/>
          <rect id="ecd3189c-fb1e-4a0e-a2b6-ba2f11dda484-2" data-name="ecd3189c-fb1e-4a0e-a2b6-ba2f11dda484" x="462.1881" y="28.1424" width="4.5895" height=".5404" rx=".2506" ry=".2506" fill="#ff9300" isolation="isolate" opacity=".75"/>
          <rect id="a1949a3c-4818-4bd1-b236-0d970b92fc62-2" data-name="a1949a3c-4818-4bd1-b236-0d970b92fc62" x="462.1881" y="29.0196" width="4.5895" height=".5404" rx=".2506" ry=".2506" fill="#ff9300" isolation="isolate" opacity=".75"/>
        </g>
      </g>
      <rect x="455.1143" y="52.7915" width="132" height="35.2" fill="#fff" stroke="#4e4f4f" stroke-width=".25"/>
      <rect x="455.1143" y="101.2" width="132" height="35.2" fill="#fff" stroke="#4e4f4f" stroke-width=".25"/>
      <rect x="455.1143" y="149.6" width="132" height="35.2" fill="#fff" stroke="#4e4f4f" stroke-width=".25"/>
      <rect x="250.5143" y="52.7915" width="132" height="35.2" fill="#fff" stroke="#4e4f4f" stroke-width=".25"/>
      <rect x="250.5143" y="101.2" width="132" height="35.2" fill="#fff" stroke="#4e4f4f" stroke-width=".25"/>
      <rect x="250.5143" y="149.6" width="132" height="35.2" fill="#fff" stroke="#4e4f4f" stroke-width=".25"/>
      <g>
        <path d="M173.5143,118.8h8.2857c1.65,0,3.9546-.9546,5.1213-2.1213l44.1574-44.1574c1.1667-1.1667,3.4713-2.1213,5.1213-2.1213h9.2178" fill="none" stroke="#3c3c41" stroke-miterlimit="10"/>
        <polygon points="244.3236 74.1397 250.8 70.4 244.3236 66.6603 244.3236 74.1397" fill="#3c3c41"/>
      </g>
      <g>
        <path d="M455.1143,167.2h-4.8428c-1.65,0-3.6038-1.2075-4.3416-2.6833l-45.7167-91.4334c-.7379-1.4758-2.6916-2.6833-4.3416-2.6833h-9.2178" fill="none" stroke="#3c3c41" stroke-miterlimit="10"/>
        <polygon points="387.7479 66.6603 381.2715 70.4 387.7479 74.1397 387.7479 66.6603" fill="#3c3c41"/>
      </g>
    </g>
    <g id="Text">
      <g>
        <path d="M69.0935,35.8242v-2.1875c.3965.333.8271.582,1.292.749.4648.166.9341.249,1.4082.249.2778,0,.5205-.0254.728-.0752s.3804-.1191.5195-.209c.1392-.0879.2427-.1934.311-.3145.0684-.1201.1025-.251.1025-.3926,0-.1914-.0547-.3623-.1641-.5127s-.2588-.2891-.4478-.417-.4136-.251-.6733-.3691-.54-.2393-.8408-.3623c-.7656-.3193-1.3364-.709-1.7124-1.1689s-.564-1.0166-.564-1.668c0-.5107.1025-.9492.3076-1.3164.2051-.3662.4844-.668.8374-.9053s.7622-.4111,1.2271-.5225c.4648-.1123.957-.168,1.4766-.168.5103,0,.9629.0312,1.3569.0918.394.0625.7578.1562,1.0903.2842v2.0439c-.1641-.1143-.3428-.2139-.5366-.3008s-.3931-.1582-.5981-.2148c-.2051-.0576-.4092-.0996-.6118-.127s-.3955-.041-.5776-.041c-.2505,0-.4785.0234-.6836.0723-.2051.0469-.3784.1143-.5195.2012s-.2505.1904-.3281.3105c-.0776.1211-.1162.2568-.1162.4072,0,.1641.0435.3115.1299.4404.0864.1309.2095.2539.3691.3691.1597.1172.353.2305.5811.3418.228.1123.4854.2275.7725.3457.3921.1641.7441.3379,1.0562.5234.312.1836.5801.3926.8032.625s.394.498.5127.7969c.1187.2979.1777.6455.1777,1.042,0,.5469-.1035,1.0059-.311,1.3779-.2075.3711-.4888.6719-.8442.9023-.3555.2295-.769.3945-1.2407.4951s-.9697.1504-1.4937.1504c-.5376,0-1.0493-.0459-1.5347-.1367s-.9058-.2275-1.2612-.4102Z" fill="#2f2f2f"/>
        <path d="M83.8318,36.2002h-2.1533v-1.0664h-.0342c-.5332.8252-1.2466,1.2373-2.1396,1.2373-1.6226,0-2.4336-.9824-2.4336-2.9463v-4.2246h2.1533v4.0332c0,.9893.3921,1.4834,1.1758,1.4834.3872,0,.6973-.1357.9297-.4072.2324-.2705.3486-.6387.3486-1.1035v-4.0059h2.1533v7Z" fill="#2f2f2f"/>
        <path d="M87.7874,35.3867h-.0273v.8135h-2.1602v-10.3633h2.1602v4.416h.0273c.5332-.8154,1.292-1.2236,2.2764-1.2236.9023,0,1.5972.3096,2.085.9297s.7314,1.4678.7314,2.543c0,1.167-.2847,2.1035-.8545,2.8096s-1.3306,1.0596-2.2832,1.0596c-.8613,0-1.5132-.3281-1.9551-.9844ZM87.7259,32.4336v.7178c0,.4512.1299.8252.3896,1.1211s.5923.4443.998.4443c.4922,0,.874-.1904,1.145-.5713.271-.3799.4067-.9189.4067-1.6162,0-.5791-.124-1.0312-.3726-1.3564-.2485-.3262-.6025-.4893-1.063-.4893-.4331,0-.792.1621-1.0767.4854s-.4272.7451-.4272,1.2646Z" fill="#2f2f2f"/>
        <path d="M93.9202,36.0156v-1.75c.3555.2139.71.374,1.063.4785s.687.1572,1.0015.1572c.3828,0,.6846-.0527.9058-.1572s.3315-.2646.3315-.4785c0-.1367-.0503-.251-.1504-.3418s-.229-.1709-.3862-.2393-.3291-.1299-.5161-.1846-.3667-.1162-.54-.1846c-.2778-.1045-.5229-.2178-.7349-.3379-.2119-.1211-.3896-.2617-.5332-.4209s-.2529-.3438-.3281-.5537-.1128-.458-.1128-.7451c0-.3916.0854-.7295.2563-1.0117s.3989-.5137.6836-.6943c.2847-.1797.6108-.3115.9775-.3965.3667-.084.7485-.126,1.145-.126.3101,0,.6245.0244.9434.0713.3188.0488.6333.1182.9434.209v1.668c-.2734-.1592-.5664-.2793-.8784-.3594-.312-.0791-.6187-.1191-.9194-.1191-.1411,0-.2744.0127-.3999.0371-.1255.0254-.2358.0625-.3315.1094-.0957.0488-.1709.1094-.2256.1855-.0547.0742-.082.1602-.082.2559,0,.1279.041.2373.123.3281s.189.1699.3213.2363c.1323.0654.2793.125.4409.1777.1616.0518.3223.1055.4819.1602.2871.1006.5469.21.7793.3281s.4316.2578.5981.417.2939.3467.3828.5605.1333.4697.1333.7656c0,.415-.0898.7686-.27,1.0635-.1802.293-.4194.5332-.7178.7168-.2983.1855-.6426.3193-1.0322.4043-.3896.084-.7939.126-1.2134.126-.77,0-1.4834-.1182-2.1396-.3555Z" fill="#2f2f2f"/>
        <path d="M105.885,35.9473c-.4878.2822-1.1919.4238-2.1123.4238-1.0757,0-1.9458-.3262-2.6113-.9775s-.998-1.4922-.998-2.5225c0-1.1895.3564-2.127,1.0698-2.8135.7134-.6855,1.667-1.0283,2.8608-1.0283.8247,0,1.4219.1094,1.791.3281v1.832c-.4512-.3369-.9546-.5059-1.5107-.5059-.6196,0-1.1108.1807-1.4731.5439-.3623.3613-.5435.8623-.5435,1.5,0,.6201.1733,1.1064.5195,1.459.3462.3535.8228.5303,1.4287.5303.5376,0,1.064-.1689,1.5791-.5059v1.7363Z" fill="#2f2f2f"/>
        <path d="M111.969,31.1484c-.2598-.1416-.563-.2119-.9092-.2119-.4692,0-.8364.1719-1.1006.5156-.2642.3447-.3965.8125-.3965,1.4053v3.3428h-2.1602v-7h2.1602v1.2988h.0273c.3418-.9482.957-1.4219,1.8457-1.4219.228,0,.4058.0273.5332.082v1.9893Z" fill="#2f2f2f"/>
        <path d="M114.055,28.0928c-.3647,0-.6631-.1084-.8955-.3242-.2324-.2168-.3486-.4824-.3486-.7969,0-.3232.1162-.5879.3486-.793s.5308-.3076.8955-.3076c.3691,0,.6689.1025.8989.3076s.3452.4697.3452.793c0,.3281-.1152.5967-.3452.8066s-.5298.3145-.8989.3145ZM115.1214,36.2002h-2.1602v-7h2.1602v7Z" fill="#2f2f2f"/>
        <path d="M119.0906,35.3867h-.0273v4.0332h-2.1602v-10.2197h2.1602v1.0527h.0273c.5332-.8154,1.2827-1.2236,2.249-1.2236.9067,0,1.6074.3115,2.1021.9326.4946.623.7417,1.4688.7417,2.54,0,1.167-.2881,2.1035-.8647,2.8096s-1.3433,1.0596-2.3003,1.0596c-.8433,0-1.4858-.3281-1.9277-.9844ZM119.0291,32.5156v.5605c0,.4834.1274.877.3828,1.1826s.5903.458,1.0049.458c.4922,0,.874-.1904,1.145-.5713.271-.3799.4067-.9189.4067-1.6162,0-1.2305-.4785-1.8457-1.4355-1.8457-.4419,0-.8032.167-1.0835.5029-.2803.334-.4204.7773-.4204,1.3291Z" fill="#2f2f2f"/>
        <path d="M129.8094,36.1182c-.3188.1689-.7998.2529-1.4424.2529-1.522,0-2.2832-.791-2.2832-2.3721v-3.2061h-1.1348v-1.5928h1.1348v-1.5107l2.1533-.6152v2.126h1.5723v1.5928h-1.5723v2.8301c0,.7295.2896,1.0938.8682,1.0938.228,0,.4624-.0664.7041-.1982v1.5996Z" fill="#2f2f2f"/>
        <path d="M132.1873,28.0928c-.3647,0-.6631-.1084-.8955-.3242-.2324-.2168-.3486-.4824-.3486-.7969,0-.3232.1162-.5879.3486-.793s.5308-.3076.8955-.3076c.3691,0,.6689.1025.8989.3076s.3452.4697.3452.793c0,.3281-.1152.5967-.3452.8066s-.5298.3145-.8989.3145ZM133.2537,36.2002h-2.1602v-7h2.1602v7Z" fill="#2f2f2f"/>
        <path d="M138.3645,36.3711c-1.1665,0-2.084-.3271-2.7515-.9814-.6675-.6533-1.0015-1.541-1.0015-2.6621,0-1.1572.3462-2.0635,1.0391-2.7168.6929-.6543,1.6294-.9814,2.8096-.9814,1.1621,0,2.0737.3271,2.7344.9814.6606.6533.9912,1.5186.9912,2.5938,0,1.1621-.3408,2.0801-1.022,2.7549s-1.6143,1.0117-2.7993,1.0117ZM138.4192,30.6836c-.5103,0-.9067.1758-1.1895.5264s-.4238.8477-.4238,1.4902c0,1.3447.5425,2.0166,1.627,2.0166,1.0347,0,1.5518-.6904,1.5518-2.0713,0-1.3076-.522-1.9619-1.5654-1.9619Z" fill="#2f2f2f"/>
        <path d="M150.3269,36.2002h-2.1533v-3.8896c0-1.085-.3872-1.627-1.1621-1.627-.3735,0-.6812.1436-.9229.4307s-.3623.6514-.3623,1.0938v3.9922h-2.1602v-7h2.1602v1.1074h.0273c.5151-.8525,1.2646-1.2783,2.249-1.2783,1.5493,0,2.3242.9619,2.3242,2.8848v4.2861Z" fill="#2f2f2f"/>
        <path d="M164.7303,36.2002h-2.4062l-.6973-2.1807h-3.4863l-.6904,2.1807h-2.3926l3.5684-9.8027h2.6182l3.4863,9.8027ZM161.1209,32.3242l-1.0527-3.2949c-.0776-.2461-.1323-.54-.1641-.8818h-.0547c-.0229.2871-.0796.5723-.1709.8545l-1.0664,3.3223h2.5088Z" fill="#2f2f2f"/>
      </g>
      <g>
        <path d="M283.5677,36.2002h-2.4062l-.6973-2.1807h-3.4863l-.6904,2.1807h-2.3926l3.5684-9.8027h2.6182l3.4863,9.8027ZM279.9583,32.3242l-1.0527-3.2949c-.0776-.2461-.1323-.54-.1641-.8818h-.0547c-.0229.2871-.0796.5723-.1709.8545l-1.0664,3.3223h2.5088Z" fill="#2f2f2f"/>
        <path d="M290.4734,36.2002h-6.2822v-.8955l3.5137-4.5117h-3.165v-1.5928h5.9062v1.0664l-3.3291,4.3408h3.3564v1.5928Z" fill="#2f2f2f"/>
        <path d="M298.3553,36.2002h-2.1533v-1.0664h-.0342c-.5332.8252-1.2466,1.2373-2.1396,1.2373-1.6226,0-2.4336-.9824-2.4336-2.9463v-4.2246h2.1533v4.0332c0,.9893.3921,1.4834,1.1758,1.4834.3872,0,.6973-.1357.9297-.4072.2324-.2705.3486-.6387.3486-1.1035v-4.0059h2.1533v7Z" fill="#2f2f2f"/>
        <path d="M304.6897,31.1484c-.2598-.1416-.563-.2119-.9092-.2119-.4692,0-.8364.1719-1.1006.5156-.2642.3447-.3965.8125-.3965,1.4053v3.3428h-2.1602v-7h2.1602v1.2988h.0273c.3418-.9482.957-1.4219,1.8457-1.4219.228,0,.4058.0273.5332.082v1.9893Z" fill="#2f2f2f"/>
        <path d="M312.0623,33.3154h-4.5664c.0728,1.0166.7134,1.5244,1.9209,1.5244.77,0,1.4468-.1826,2.0303-.5469v1.5586c-.647.3467-1.4878.5195-2.5225.5195-1.1304,0-2.0073-.3135-2.6318-.9404-.6245-.626-.9365-1.5-.9365-2.6211,0-1.1621.3374-2.083,1.0117-2.7617s1.5039-1.0186,2.4883-1.0186c1.021,0,1.8105.3027,2.3687.9092s.8374,1.4287.8374,2.4678v.9092ZM310.0594,31.9893c0-1.0029-.4058-1.5039-1.2168-1.5039-.3462,0-.646.1436-.8989.4307s-.4067.6445-.4614,1.0732h2.5771Z" fill="#2f2f2f"/>
        <path d="M321.7762,31.1484c-.2598-.1416-.563-.2119-.9092-.2119-.4692,0-.8364.1719-1.1006.5156-.2642.3447-.3965.8125-.3965,1.4053v3.3428h-2.1602v-7h2.1602v1.2988h.0273c.3418-.9482.957-1.4219,1.8457-1.4219.228,0,.4058.0273.5332.082v1.9893Z" fill="#2f2f2f"/>
        <path d="M329.1482,33.3154h-4.5664c.0728,1.0166.7134,1.5244,1.9209,1.5244.77,0,1.4468-.1826,2.0303-.5469v1.5586c-.647.3467-1.4878.5195-2.5225.5195-1.1304,0-2.0073-.3135-2.6318-.9404-.6245-.626-.9365-1.5-.9365-2.6211,0-1.1621.3374-2.083,1.0117-2.7617s1.5039-1.0186,2.4883-1.0186c1.021,0,1.8105.3027,2.3687.9092s.8374,1.4287.8374,2.4678v.9092ZM327.1453,31.9893c0-1.0029-.4058-1.5039-1.2168-1.5039-.3462,0-.646.1436-.8989.4307s-.4067.6445-.4614,1.0732h2.5771Z" fill="#2f2f2f"/>
        <path d="M337.4075,35.4004c0,1.2988-.376,2.3047-1.1279,3.0186-.752.7129-1.8413,1.0693-3.2676,1.0693-.9434,0-1.6909-.1348-2.2422-.4033v-1.8184c.7202.4189,1.4468.6289,2.1807.6289.729,0,1.2944-.1924,1.6953-.5781.4009-.3848.6016-.9072.6016-1.5684v-.5537h-.0273c-.4922.7842-1.2192,1.1758-2.1807,1.1758-.8931,0-1.6021-.3145-2.126-.9434s-.7861-1.4717-.7861-2.5293c0-1.1846.2915-2.126.875-2.8232s1.3511-1.0459,2.3037-1.0459c.8521,0,1.4902.3281,1.9141.9844h.0273v-.8135h2.1602v6.2002ZM335.2747,32.8369v-.5537c0-.4424-.1309-.8193-.3931-1.1318-.2622-.3115-.6025-.4678-1.022-.4678-.4785,0-.8545.1865-1.1279.5605s-.4102.9004-.4102,1.5791c0,.583.1299,1.0449.3896,1.3848.2598.3389.6152.5088,1.0664.5088.4468,0,.8076-.1719,1.0835-.5166.2759-.3438.4136-.7979.4136-1.3633Z" fill="#2f2f2f"/>
        <path d="M340.2625,28.0928c-.3647,0-.6631-.1084-.8955-.3242-.2324-.2168-.3486-.4824-.3486-.7969,0-.3232.1162-.5879.3486-.793s.5308-.3076.8955-.3076c.3691,0,.6689.1025.8989.3076s.3452.4697.3452.793c0,.3281-.1152.5967-.3452.8066s-.5298.3145-.8989.3145ZM341.3289,36.2002h-2.1602v-7h2.1602v7Z" fill="#2f2f2f"/>
        <path d="M346.4397,36.3711c-1.1665,0-2.084-.3271-2.7515-.9814-.6675-.6533-1.0015-1.541-1.0015-2.6621,0-1.1572.3462-2.0635,1.0391-2.7168.6929-.6543,1.6294-.9814,2.8096-.9814,1.1621,0,2.0737.3271,2.7344.9814.6606.6533.9912,1.5186.9912,2.5938,0,1.1621-.3408,2.0801-1.022,2.7549s-1.6143,1.0117-2.7993,1.0117ZM346.4944,30.6836c-.5103,0-.9067.1758-1.1895.5264s-.4238.8477-.4238,1.4902c0,1.3447.5425,2.0166,1.627,2.0166,1.0347,0,1.5518-.6904,1.5518-2.0713,0-1.3076-.522-1.9619-1.5654-1.9619Z" fill="#2f2f2f"/>
        <path d="M358.4021,36.2002h-2.1533v-3.8896c0-1.085-.3872-1.627-1.1621-1.627-.3735,0-.6812.1436-.9229.4307s-.3623.6514-.3623,1.0938v3.9922h-2.1602v-7h2.1602v1.1074h.0273c.5151-.8525,1.2646-1.2783,2.249-1.2783,1.5493,0,2.3242.9619,2.3242,2.8848v4.2861Z" fill="#2f2f2f"/>
      </g>
      <g>
        <path d="M70.3289,75.0708h-5.0859v-9.8027h1.1484v8.7637h3.9375v1.0391Z" fill="#2f2f2f"/>
        <path d="M74.5144,75.2349c-1.0347,0-1.8604-.3271-2.478-.9805-.6177-.6543-.9263-1.5215-.9263-2.6016,0-1.1758.3213-2.0938.9639-2.7549s1.5107-.9912,2.6045-.9912c1.0435,0,1.8584.3213,2.4438.9639s.8784,1.5332.8784,2.6729c0,1.1162-.3154,2.0107-.9468,2.6836-.6313.6719-1.4775,1.0078-2.5396,1.0078ZM74.5965,68.8501c-.7202,0-1.2896.2451-1.709.7344-.4194.4902-.6289,1.166-.6289,2.0273,0,.8291.2119,1.4834.6357,1.9619s.9912.7178,1.7021.7178c.7246,0,1.2817-.2344,1.6714-.7041s.5845-1.1367.5845-2.0029c0-.875-.1948-1.5498-.5845-2.0234s-.9468-.7109-1.6714-.7109Z" fill="#2f2f2f"/>
        <path d="M85.7552,74.5103c0,2.5703-1.2305,3.8555-3.6914,3.8555-.8657,0-1.6226-.1641-2.2695-.4922v-1.1211c.7886.4375,1.5405.6562,2.2559.6562,1.7227,0,2.584-.916,2.584-2.748v-.7656h-.0273c-.5332.8936-1.3354,1.3398-2.4062,1.3398-.8706,0-1.5713-.3105-2.1021-.9336-.5308-.6211-.7964-1.457-.7964-2.5049,0-1.1895.2861-2.1348.8579-2.8369s1.3545-1.0527,2.3481-1.0527c.9434,0,1.6431.3779,2.0986,1.1348h.0273v-.9707h1.1211v6.4395ZM84.6341,71.9058v-1.0322c0-.5557-.188-1.0322-.564-1.4287s-.8442-.5947-1.4048-.5947c-.6929,0-1.2349.252-1.627.7559-.3921.5029-.5879,1.208-.5879,2.1152,0,.7793.188,1.4023.564,1.8691.376.4678.874.7012,1.4937.7012.6289,0,1.1406-.2236,1.5347-.6699s.5913-1.0186.5913-1.7158Z" fill="#2f2f2f"/>
        <path d="M88.4451,66.2935c-.2007,0-.3716-.0684-.5127-.2051s-.2119-.3096-.2119-.5195.0708-.3838.2119-.5234c.1411-.1387.312-.208.5127-.208.2051,0,.3794.0693.5229.208.1436.1396.2153.3135.2153.5234,0,.2002-.0718.3711-.2153.5127s-.3179.2119-.5229.2119ZM88.992,75.0708h-1.1211v-7h1.1211v7Z" fill="#2f2f2f"/>
        <path d="M95.9041,74.7495c-.5376.3232-1.1758.4854-1.9141.4854-.998,0-1.8037-.3242-2.4165-.9746-.6128-.6484-.9194-1.4912-.9194-2.5254,0-1.1533.3306-2.0791.9912-2.7793.6606-.6992,1.5425-1.0488,2.6455-1.0488.6152,0,1.1577.1143,1.627.3418v1.1484c-.5195-.3643-1.0757-.5469-1.668-.5469-.7153,0-1.3022.2559-1.7603.7695-.458.5117-.687,1.1855-.687,2.0195,0,.8203.2153,1.4678.646,1.9414s1.0083.7109,1.7329.7109c.6108,0,1.1851-.2031,1.7227-.6084v1.0664Z" fill="#2f2f2f"/>
        <path d="M102.6477,75.0708h-1.1211v-1.0938h-.0273c-.4878.8389-1.2056,1.2578-2.1533,1.2578-.6973,0-1.2432-.1846-1.6372-.5537s-.5913-.8594-.5913-1.4697c0-1.3076.77-2.0693,2.3105-2.2832l2.0986-.2939c0-1.1895-.481-1.7842-1.4424-1.7842-.8433,0-1.604.2871-2.2832.8613v-1.1484c.688-.4375,1.481-.6562,2.3789-.6562,1.645,0,2.4678.8701,2.4678,2.6113v4.5527ZM101.5266,71.5298l-1.6885.2324c-.5195.0732-.9116.2012-1.1758.3867-.2642.1836-.3965.5107-.3965.9805,0,.3418.1221.6211.3657.8379.2437.2158.5684.3242.9741.3242.5562,0,1.0151-.1953,1.3774-.584.3623-.3906.5435-.8838.5435-1.4805v-.6973Z" fill="#2f2f2f"/>
        <path d="M105.7888,75.0708h-1.1211v-10.3633h1.1211v10.3633Z" fill="#2f2f2f"/>
        <path d="M116.7742,68.3921l-4.1426,5.7217h4.1016v.957h-5.749v-.3486l4.1426-5.6943h-3.7529v-.957h5.4004v.3213Z" fill="#2f2f2f"/>
        <path d="M120.9461,75.2349c-1.0347,0-1.8604-.3271-2.478-.9805-.6177-.6543-.9263-1.5215-.9263-2.6016,0-1.1758.3213-2.0938.9639-2.7549s1.5107-.9912,2.6045-.9912c1.0435,0,1.8584.3213,2.4438.9639s.8784,1.5332.8784,2.6729c0,1.1162-.3154,2.0107-.9468,2.6836-.6313.6719-1.4775,1.0078-2.5396,1.0078ZM121.0281,68.8501c-.7202,0-1.2896.2451-1.709.7344-.4194.4902-.6289,1.166-.6289,2.0273,0,.8291.2119,1.4834.6357,1.9619s.9912.7178,1.7021.7178c.7246,0,1.2817-.2344,1.6714-.7041s.5845-1.1367.5845-2.0029c0-.875-.1948-1.5498-.5845-2.0234s-.9468-.7109-1.6714-.7109Z" fill="#2f2f2f"/>
        <path d="M131.9583,75.0708h-1.1211v-3.9922c0-1.4854-.5425-2.2285-1.627-2.2285-.5605,0-1.0244.2109-1.3911.6328-.3667.4209-.5503.9531-.5503,1.5957v3.9922h-1.1211v-7h1.1211v1.1621h.0273c.5288-.8838,1.2944-1.3262,2.2969-1.3262.7656,0,1.3511.2471,1.7568.7422.4058.4941.6084,1.208.6084,2.1426v4.2793Z" fill="#2f2f2f"/>
        <path d="M139.6619,71.8511h-4.9424c.0181.7793.228,1.3809.6289,1.8047s.9526.6357,1.6543.6357c.7886,0,1.5132-.2598,2.1738-.7793v1.0527c-.6152.4463-1.4287.6699-2.4404.6699-.9888,0-1.7661-.3184-2.3311-.9531-.5649-.6367-.8477-1.5303-.8477-2.6836,0-1.0889.3086-1.9766.9263-2.6621.6177-.6865,1.3843-1.0293,2.3003-1.0293s1.6245.2959,2.126.8887.752,1.415.752,2.4678v.5879ZM138.5135,70.9009c-.0044-.6475-.1606-1.1504-.4683-1.5107s-.7349-.54-1.2817-.54c-.5288,0-.9775.1895-1.3467.5674s-.5972.873-.6836,1.4834h3.7803Z" fill="#2f2f2f"/>
        <path d="M149.0066,75.0708h-1.1211v-8.4697c-.0864.0869-.2129.1855-.3794.2979-.1665.1113-.353.2217-.5605.3311s-.4263.2119-.6562.3076-.4546.1709-.6733.2256v-1.1348c.2461-.0684.5068-.1611.7827-.2764.2759-.1172.5469-.2461.8135-.3906.2666-.1426.5186-.293.7554-.4512.2368-.1562.4419-.3105.6152-.4609h.4238v10.0215Z" fill="#2f2f2f"/>
      </g>
      <g>
        <path d="M70.3289,123.105h-5.0859v-9.8027h1.1484v8.7637h3.9375v1.0391Z" fill="#2f2f2f"/>
        <path d="M74.5144,123.269c-1.0347,0-1.8604-.3271-2.478-.9805-.6177-.6543-.9263-1.5215-.9263-2.6016,0-1.1758.3213-2.0938.9639-2.7549s1.5107-.9912,2.6045-.9912c1.0435,0,1.8584.3213,2.4438.9639s.8784,1.5332.8784,2.6729c0,1.1162-.3154,2.0107-.9468,2.6836-.6313.6719-1.4775,1.0078-2.5396,1.0078ZM74.5965,116.8843c-.7202,0-1.2896.2451-1.709.7344-.4194.4902-.6289,1.166-.6289,2.0273,0,.8291.2119,1.4834.6357,1.9619s.9912.7178,1.7021.7178c.7246,0,1.2817-.2344,1.6714-.7041s.5845-1.1367.5845-2.0029c0-.875-.1948-1.5498-.5845-2.0234s-.9468-.7109-1.6714-.7109Z" fill="#2f2f2f"/>
        <path d="M85.7552,122.5444c0,2.5703-1.2305,3.8555-3.6914,3.8555-.8657,0-1.6226-.1641-2.2695-.4922v-1.1211c.7886.4375,1.5405.6562,2.2559.6562,1.7227,0,2.584-.916,2.584-2.748v-.7656h-.0273c-.5332.8936-1.3354,1.3398-2.4062,1.3398-.8706,0-1.5713-.3105-2.1021-.9336-.5308-.6211-.7964-1.457-.7964-2.5049,0-1.1895.2861-2.1348.8579-2.8369s1.3545-1.0527,2.3481-1.0527c.9434,0,1.6431.3779,2.0986,1.1348h.0273v-.9707h1.1211v6.4395ZM84.6341,119.9399v-1.0322c0-.5557-.188-1.0322-.564-1.4287s-.8442-.5947-1.4048-.5947c-.6929,0-1.2349.252-1.627.7559-.3921.5029-.5879,1.208-.5879,2.1152,0,.7793.188,1.4023.564,1.8691.376.4678.874.7012,1.4937.7012.6289,0,1.1406-.2236,1.5347-.6699s.5913-1.0186.5913-1.7158Z" fill="#2f2f2f"/>
        <path d="M88.4451,114.3276c-.2007,0-.3716-.0684-.5127-.2051s-.2119-.3096-.2119-.5195.0708-.3838.2119-.5234c.1411-.1387.312-.208.5127-.208.2051,0,.3794.0693.5229.208.1436.1396.2153.3135.2153.5234,0,.2002-.0718.3711-.2153.5127s-.3179.2119-.5229.2119ZM88.992,123.105h-1.1211v-7h1.1211v7Z" fill="#2f2f2f"/>
        <path d="M95.9041,122.7837c-.5376.3232-1.1758.4854-1.9141.4854-.998,0-1.8037-.3242-2.4165-.9746-.6128-.6484-.9194-1.4912-.9194-2.5254,0-1.1533.3306-2.0791.9912-2.7793.6606-.6992,1.5425-1.0488,2.6455-1.0488.6152,0,1.1577.1143,1.627.3418v1.1484c-.5195-.3643-1.0757-.5469-1.668-.5469-.7153,0-1.3022.2559-1.7603.7695-.458.5117-.687,1.1855-.687,2.0195,0,.8203.2153,1.4678.646,1.9414s1.0083.7109,1.7329.7109c.6108,0,1.1851-.2031,1.7227-.6084v1.0664Z" fill="#2f2f2f"/>
        <path d="M102.6477,123.105h-1.1211v-1.0938h-.0273c-.4878.8389-1.2056,1.2578-2.1533,1.2578-.6973,0-1.2432-.1846-1.6372-.5537s-.5913-.8594-.5913-1.4697c0-1.3076.77-2.0693,2.3105-2.2832l2.0986-.2939c0-1.1895-.481-1.7842-1.4424-1.7842-.8433,0-1.604.2871-2.2832.8613v-1.1484c.688-.4375,1.481-.6562,2.3789-.6562,1.645,0,2.4678.8701,2.4678,2.6113v4.5527ZM101.5266,119.564l-1.6885.2324c-.5195.0732-.9116.2012-1.1758.3867-.2642.1836-.3965.5107-.3965.9805,0,.3418.1221.6211.3657.8379.2437.2158.5684.3242.9741.3242.5562,0,1.0151-.1953,1.3774-.584.3623-.3906.5435-.8838.5435-1.4805v-.6973Z" fill="#2f2f2f"/>
        <path d="M105.7888,123.105h-1.1211v-10.3633h1.1211v10.3633Z" fill="#2f2f2f"/>
        <path d="M116.7742,116.4263l-4.1426,5.7217h4.1016v.957h-5.749v-.3486l4.1426-5.6943h-3.7529v-.957h5.4004v.3213Z" fill="#2f2f2f"/>
        <path d="M120.9461,123.269c-1.0347,0-1.8604-.3271-2.478-.9805-.6177-.6543-.9263-1.5215-.9263-2.6016,0-1.1758.3213-2.0938.9639-2.7549s1.5107-.9912,2.6045-.9912c1.0435,0,1.8584.3213,2.4438.9639s.8784,1.5332.8784,2.6729c0,1.1162-.3154,2.0107-.9468,2.6836-.6313.6719-1.4775,1.0078-2.5396,1.0078ZM121.0281,116.8843c-.7202,0-1.2896.2451-1.709.7344-.4194.4902-.6289,1.166-.6289,2.0273,0,.8291.2119,1.4834.6357,1.9619s.9912.7178,1.7021.7178c.7246,0,1.2817-.2344,1.6714-.7041s.5845-1.1367.5845-2.0029c0-.875-.1948-1.5498-.5845-2.0234s-.9468-.7109-1.6714-.7109Z" fill="#2f2f2f"/>
        <path d="M131.9583,123.105h-1.1211v-3.9922c0-1.4854-.5425-2.2285-1.627-2.2285-.5605,0-1.0244.2109-1.3911.6328-.3667.4209-.5503.9531-.5503,1.5957v3.9922h-1.1211v-7h1.1211v1.1621h.0273c.5288-.8838,1.2944-1.3262,2.2969-1.3262.7656,0,1.3511.2471,1.7568.7422.4058.4941.6084,1.208.6084,2.1426v4.2793Z" fill="#2f2f2f"/>
        <path d="M139.6619,119.8853h-4.9424c.0181.7793.228,1.3809.6289,1.8047s.9526.6357,1.6543.6357c.7886,0,1.5132-.2598,2.1738-.7793v1.0527c-.6152.4463-1.4287.6699-2.4404.6699-.9888,0-1.7661-.3184-2.3311-.9531-.5649-.6367-.8477-1.5303-.8477-2.6836,0-1.0889.3086-1.9766.9263-2.6621.6177-.6865,1.3843-1.0293,2.3003-1.0293s1.6245.2959,2.126.8887.752,1.415.752,2.4678v.5879ZM138.5135,118.9351c-.0044-.6475-.1606-1.1504-.4683-1.5107s-.7349-.54-1.2817-.54c-.5288,0-.9775.1895-1.3467.5674s-.5972.873-.6836,1.4834h3.7803Z" fill="#2f2f2f"/>
        <path d="M149.3347,115.8726c0-.3008-.0469-.5625-.1401-.7861s-.2212-.4092-.3828-.5576c-.1616-.1475-.3521-.2578-.5708-.3311s-.4556-.1094-.7109-.1094c-.2188,0-.4331.0293-.6426.0889s-.4136.1416-.6118.2461-.3896.2305-.5742.376-.3564.3076-.5161.4854v-1.2031c.3145-.3057.6665-.5391,1.0562-.7012.3896-.1611.8647-.2422,1.4253-.2422.4009,0,.7725.0586,1.1143.1738.3418.1172.6382.2861.8887.5098s.4478.499.5913.8271.2153.7041.2153,1.1279c0,.3877-.0444.7383-.1333,1.0527s-.2231.6104-.4033.8887-.4067.5449-.6802.7998-.5947.5146-.9639.7793c-.4604.3281-.8398.6084-1.1382.8408s-.5356.4502-.7109.6523c-.1753.2031-.2983.4062-.3691.6094-.0708.2021-.106.4355-.106.7002h4.8809v1.0049h-6.0498v-.4854c0-.4189.0454-.7881.1367-1.1074s.2417-.6221.4512-.9092.4844-.5742.8237-.8613.7554-.6104,1.2476-.9707c.3555-.2549.6528-.499.8921-.7314s.4316-.4648.5776-.6973.2495-.4678.311-.708c.0615-.2383.0923-.4932.0923-.7617Z" fill="#2f2f2f"/>
      </g>
      <g>
        <path d="M70.3289,170.4917h-5.0859v-9.8027h1.1484v8.7637h3.9375v1.0391Z" fill="#2f2f2f"/>
        <path d="M74.5144,170.6558c-1.0347,0-1.8604-.3271-2.478-.9805-.6177-.6543-.9263-1.5215-.9263-2.6016,0-1.1758.3213-2.0938.9639-2.7549s1.5107-.9912,2.6045-.9912c1.0435,0,1.8584.3213,2.4438.9639s.8784,1.5332.8784,2.6729c0,1.1162-.3154,2.0107-.9468,2.6836-.6313.6719-1.4775,1.0078-2.5396,1.0078ZM74.5965,164.271c-.7202,0-1.2896.2451-1.709.7344-.4194.4902-.6289,1.166-.6289,2.0273,0,.8291.2119,1.4834.6357,1.9619s.9912.7178,1.7021.7178c.7246,0,1.2817-.2344,1.6714-.7041s.5845-1.1367.5845-2.0029c0-.875-.1948-1.5498-.5845-2.0234s-.9468-.7109-1.6714-.7109Z" fill="#2f2f2f"/>
        <path d="M85.7552,169.9312c0,2.5703-1.2305,3.8555-3.6914,3.8555-.8657,0-1.6226-.1641-2.2695-.4922v-1.1211c.7886.4375,1.5405.6562,2.2559.6562,1.7227,0,2.584-.916,2.584-2.748v-.7656h-.0273c-.5332.8936-1.3354,1.3398-2.4062,1.3398-.8706,0-1.5713-.3105-2.1021-.9336-.5308-.6211-.7964-1.457-.7964-2.5049,0-1.1895.2861-2.1348.8579-2.8369s1.3545-1.0527,2.3481-1.0527c.9434,0,1.6431.3779,2.0986,1.1348h.0273v-.9707h1.1211v6.4395ZM84.6341,167.3267v-1.0322c0-.5557-.188-1.0322-.564-1.4287s-.8442-.5947-1.4048-.5947c-.6929,0-1.2349.252-1.627.7559-.3921.5029-.5879,1.208-.5879,2.1152,0,.7793.188,1.4023.564,1.8691.376.4678.874.7012,1.4937.7012.6289,0,1.1406-.2236,1.5347-.6699s.5913-1.0186.5913-1.7158Z" fill="#2f2f2f"/>
        <path d="M88.4451,161.7144c-.2007,0-.3716-.0684-.5127-.2051s-.2119-.3096-.2119-.5195.0708-.3838.2119-.5234c.1411-.1387.312-.208.5127-.208.2051,0,.3794.0693.5229.208.1436.1396.2153.3135.2153.5234,0,.2002-.0718.3711-.2153.5127s-.3179.2119-.5229.2119ZM88.992,170.4917h-1.1211v-7h1.1211v7Z" fill="#2f2f2f"/>
        <path d="M95.9041,170.1704c-.5376.3232-1.1758.4854-1.9141.4854-.998,0-1.8037-.3242-2.4165-.9746-.6128-.6484-.9194-1.4912-.9194-2.5254,0-1.1533.3306-2.0791.9912-2.7793.6606-.6992,1.5425-1.0488,2.6455-1.0488.6152,0,1.1577.1143,1.627.3418v1.1484c-.5195-.3643-1.0757-.5469-1.668-.5469-.7153,0-1.3022.2559-1.7603.7695-.458.5117-.687,1.1855-.687,2.0195,0,.8203.2153,1.4678.646,1.9414s1.0083.7109,1.7329.7109c.6108,0,1.1851-.2031,1.7227-.6084v1.0664Z" fill="#2f2f2f"/>
        <path d="M102.6477,170.4917h-1.1211v-1.0938h-.0273c-.4878.8389-1.2056,1.2578-2.1533,1.2578-.6973,0-1.2432-.1846-1.6372-.5537s-.5913-.8594-.5913-1.4697c0-1.3076.77-2.0693,2.3105-2.2832l2.0986-.2939c0-1.1895-.481-1.7842-1.4424-1.7842-.8433,0-1.604.2871-2.2832.8613v-1.1484c.688-.4375,1.481-.6562,2.3789-.6562,1.645,0,2.4678.8701,2.4678,2.6113v4.5527ZM101.5266,166.9507l-1.6885.2324c-.5195.0732-.9116.2012-1.1758.3867-.2642.1836-.3965.5107-.3965.9805,0,.3418.1221.6211.3657.8379.2437.2158.5684.3242.9741.3242.5562,0,1.0151-.1953,1.3774-.584.3623-.3906.5435-.8838.5435-1.4805v-.6973Z" fill="#2f2f2f"/>
        <path d="M105.7888,170.4917h-1.1211v-10.3633h1.1211v10.3633Z" fill="#2f2f2f"/>
        <path d="M116.7742,163.813l-4.1426,5.7217h4.1016v.957h-5.749v-.3486l4.1426-5.6943h-3.7529v-.957h5.4004v.3213Z" fill="#2f2f2f"/>
        <path d="M120.9461,170.6558c-1.0347,0-1.8604-.3271-2.478-.9805-.6177-.6543-.9263-1.5215-.9263-2.6016,0-1.1758.3213-2.0938.9639-2.7549s1.5107-.9912,2.6045-.9912c1.0435,0,1.8584.3213,2.4438.9639s.8784,1.5332.8784,2.6729c0,1.1162-.3154,2.0107-.9468,2.6836-.6313.6719-1.4775,1.0078-2.5396,1.0078ZM121.0281,164.271c-.7202,0-1.2896.2451-1.709.7344-.4194.4902-.6289,1.166-.6289,2.0273,0,.8291.2119,1.4834.6357,1.9619s.9912.7178,1.7021.7178c.7246,0,1.2817-.2344,1.6714-.7041s.5845-1.1367.5845-2.0029c0-.875-.1948-1.5498-.5845-2.0234s-.9468-.7109-1.6714-.7109Z" fill="#2f2f2f"/>
        <path d="M131.9583,170.4917h-1.1211v-3.9922c0-1.4854-.5425-2.2285-1.627-2.2285-.5605,0-1.0244.2109-1.3911.6328-.3667.4209-.5503.9531-.5503,1.5957v3.9922h-1.1211v-7h1.1211v1.1621h.0273c.5288-.8838,1.2944-1.3262,2.2969-1.3262.7656,0,1.3511.2471,1.7568.7422.4058.4941.6084,1.208.6084,2.1426v4.2793Z" fill="#2f2f2f"/>
        <path d="M139.6619,167.272h-4.9424c.0181.7793.228,1.3809.6289,1.8047s.9526.6357,1.6543.6357c.7886,0,1.5132-.2598,2.1738-.7793v1.0527c-.6152.4463-1.4287.6699-2.4404.6699-.9888,0-1.7661-.3184-2.3311-.9531-.5649-.6367-.8477-1.5303-.8477-2.6836,0-1.0889.3086-1.9766.9263-2.6621.6177-.6865,1.3843-1.0293,2.3003-1.0293s1.6245.2959,2.126.8887.752,1.415.752,2.4678v.5879ZM138.5135,166.3218c-.0044-.6475-.1606-1.1504-.4683-1.5107s-.7349-.54-1.2817-.54c-.5288,0-.9775.1895-1.3467.5674s-.5972.873-.6836,1.4834h3.7803Z" fill="#2f2f2f"/>
        <path d="M150.5721,167.7163c0,.4424-.083.8438-.2495,1.207-.1665.3613-.4009.6719-.7041.9297-.3032.2568-.6665.4561-1.0903.5977s-.8911.2119-1.4014.2119c-.9341,0-1.6772-.1777-2.2285-.5332v-1.2031c.6606.5195,1.4175.7793,2.2695.7793.3418,0,.6504-.043.9263-.1299s.5127-.2119.7109-.376.3511-.3623.458-.5947.1606-.4941.1606-.7861c0-1.2803-.9116-1.9209-2.7344-1.9209h-.8135v-.9502h.7725c1.6133,0,2.4199-.6016,2.4199-1.8047,0-1.1123-.6152-1.668-1.8457-1.668-.6929,0-1.3423.2324-1.9482.6973v-1.0869c.6245-.374,1.3672-.5605,2.2285-.5605.4102,0,.7817.0566,1.1143.1709s.6177.2734.8545.4785.4204.4512.5503.7383.1948.6035.1948.9502c0,1.29-.6519,2.1191-1.9551,2.4883v.0273c.3325.0361.6401.1172.9229.2422.2827.126.5264.2891.7314.4893s.3657.4365.4819.708c.1162.2705.1743.5703.1743.8984Z" fill="#2f2f2f"/>
      </g>
      <g>
        <path d="M482.6936,35.8242v-2.1875c.3965.333.8271.582,1.292.749.4648.166.9336.249,1.4082.249.2773,0,.5205-.0254.7275-.0752.208-.0498.3809-.1191.5195-.209.1396-.0879.2432-.1934.3115-.3145.0684-.1201.1025-.251.1025-.3926,0-.1914-.0547-.3623-.1641-.5127s-.2588-.2891-.4482-.417c-.1885-.1279-.4131-.251-.6729-.3691s-.54-.2393-.8408-.3623c-.7656-.3193-1.3369-.709-1.7129-1.1689s-.5635-1.0166-.5635-1.668c0-.5107.1025-.9492.3076-1.3164.2051-.3662.4844-.668.8369-.9053.3535-.2373.7627-.4111,1.2275-.5225.4648-.1123.957-.168,1.4766-.168.5098,0,.9629.0312,1.3564.0918.3945.0625.7578.1562,1.0908.2842v2.0439c-.1641-.1143-.3428-.2139-.5371-.3008-.1934-.0869-.3926-.1582-.5977-.2148-.2051-.0576-.4092-.0996-.6123-.127-.2021-.0273-.3955-.041-.5771-.041-.251,0-.4785.0234-.6836.0723-.2051.0469-.3789.1143-.5195.2012-.1416.0869-.251.1904-.3281.3105-.0781.1211-.1162.2568-.1162.4072,0,.1641.043.3115.1299.4404.0859.1309.209.2539.3691.3691.1592.1172.3525.2305.5811.3418.2275.1123.4854.2275.7725.3457.3916.1641.7441.3379,1.0557.5234.3125.1836.5801.3926.8037.625.2227.2324.3936.498.5127.7969.1182.2979.1777.6455.1777,1.042,0,.5469-.1035,1.0059-.3115,1.3779-.207.3711-.4883.6719-.8438.9023-.3555.2295-.7695.3945-1.2412.4951s-.9697.1504-1.4932.1504c-.5381,0-1.0498-.0459-1.5352-.1367s-.9053-.2275-1.2607-.4102Z" fill="#2f2f2f"/>
        <path d="M497.4319,36.2002h-2.1533v-1.0664h-.0342c-.5332.8252-1.2471,1.2373-2.1396,1.2373-1.623,0-2.4336-.9824-2.4336-2.9463v-4.2246h2.1533v4.0332c0,.9893.3916,1.4834,1.1758,1.4834.3867,0,.6973-.1357.9297-.4072.2324-.2705.3486-.6387.3486-1.1035v-4.0059h2.1533v7Z" fill="#2f2f2f"/>
        <path d="M501.387,35.3867h-.0273v.8135h-2.1602v-10.3633h2.1602v4.416h.0273c.5332-.8154,1.292-1.2236,2.2764-1.2236.9023,0,1.5977.3096,2.085.9297.4883.6201.7314,1.4678.7314,2.543,0,1.167-.2842,2.1035-.8545,2.8096-.5693.7061-1.3301,1.0596-2.2832,1.0596-.8613,0-1.5127-.3281-1.9551-.9844ZM501.3255,32.4336v.7178c0,.4512.1299.8252.3896,1.1211s.5928.4443.998.4443c.4922,0,.874-.1904,1.1455-.5713.2705-.3799.4062-.9189.4062-1.6162,0-.5791-.124-1.0312-.3721-1.3564-.249-.3262-.6025-.4893-1.0635-.4893-.4326,0-.792.1621-1.0762.4854-.2852.3232-.4277.7451-.4277,1.2646Z" fill="#2f2f2f"/>
        <path d="M507.5198,36.0156v-1.75c.3555.2139.71.374,1.0635.4785.3525.1045.6865.1572,1.001.1572.3828,0,.6846-.0527.9062-.1572.2207-.1045.3311-.2646.3311-.4785,0-.1367-.0498-.251-.1504-.3418-.0996-.0908-.2285-.1709-.3857-.2393s-.3291-.1299-.5166-.1846c-.1865-.0547-.3662-.1162-.54-.1846-.2773-.1045-.5225-.2178-.7344-.3379-.2119-.1211-.3896-.2617-.5332-.4209s-.2529-.3438-.3281-.5537-.1133-.458-.1133-.7451c0-.3916.0859-.7295.2568-1.0117s.3984-.5137.6836-.6943c.2842-.1797.6104-.3115.9775-.3965.3662-.084.748-.126,1.1445-.126.3105,0,.625.0244.9434.0713.3193.0488.6338.1182.9434.209v1.668c-.2734-.1592-.5664-.2793-.8779-.3594-.3125-.0791-.6191-.1191-.9199-.1191-.1406,0-.2744.0127-.3994.0371-.126.0254-.2363.0625-.332.1094-.0957.0488-.1709.1094-.2256.1855-.0547.0742-.082.1602-.082.2559,0,.1279.041.2373.123.3281s.1895.1699.3213.2363c.1328.0654.2793.125.4414.1777.1611.0518.3223.1055.4814.1602.2871.1006.5469.21.7793.3281s.4316.2578.5986.417c.166.1592.2939.3467.3828.5605s.1328.4697.1328.7656c0,.415-.0898.7686-.2695,1.0635-.1807.293-.4199.5332-.7178.7168-.2988.1855-.6426.3193-1.0322.4043-.3896.084-.7939.126-1.2139.126-.7695,0-1.4834-.1182-2.1396-.3555Z" fill="#2f2f2f"/>
        <path d="M519.4846,35.9473c-.4873.2822-1.1914.4238-2.1123.4238-1.0752,0-1.9453-.3262-2.6113-.9775-.665-.6514-.998-1.4922-.998-2.5225,0-1.1895.3564-2.127,1.0703-2.8135.7129-.6855,1.667-1.0283,2.8604-1.0283.8252,0,1.4219.1094,1.791.3281v1.832c-.4512-.3369-.9541-.5059-1.5107-.5059-.6191,0-1.1104.1807-1.4727.5439-.3623.3613-.5439.8623-.5439,1.5,0,.6201.1738,1.1064.5195,1.459.3467.3535.8232.5303,1.4287.5303.5381,0,1.0645-.1689,1.5791-.5059v1.7363Z" fill="#2f2f2f"/>
        <path d="M525.5686,31.1484c-.2598-.1416-.5625-.2119-.9092-.2119-.4688,0-.8359.1719-1.1006.5156-.2637.3447-.3965.8125-.3965,1.4053v3.3428h-2.1602v-7h2.1602v1.2988h.0273c.3418-.9482.957-1.4219,1.8457-1.4219.2285,0,.4062.0273.5332.082v1.9893Z" fill="#2f2f2f"/>
        <path d="M527.6546,28.0928c-.3643,0-.6631-.1084-.8955-.3242-.2324-.2168-.3486-.4824-.3486-.7969,0-.3232.1162-.5879.3486-.793s.5312-.3076.8955-.3076c.3691,0,.6689.1025.8994.3076.2295.2051.3447.4697.3447.793,0,.3281-.1152.5967-.3447.8066-.2305.21-.5303.3145-.8994.3145ZM528.721,36.2002h-2.1602v-7h2.1602v7Z" fill="#2f2f2f"/>
        <path d="M532.6907,35.3867h-.0273v4.0332h-2.1602v-10.2197h2.1602v1.0527h.0273c.5332-.8154,1.2822-1.2236,2.249-1.2236.9062,0,1.6074.3115,2.1016.9326.4951.623.7422,1.4688.7422,2.54,0,1.167-.2881,2.1035-.8652,2.8096-.5762.7061-1.3428,1.0596-2.2998,1.0596-.8438,0-1.4863-.3281-1.9277-.9844ZM532.6292,32.5156v.5605c0,.4834.127.877.3828,1.1826.2549.3057.5898.458,1.0049.458.4922,0,.874-.1904,1.1445-.5713.2715-.3799.4072-.9189.4072-1.6162,0-1.2305-.4785-1.8457-1.4355-1.8457-.4424,0-.8037.167-1.084.5029-.2803.334-.4199.7773-.4199,1.3291Z" fill="#2f2f2f"/>
        <path d="M543.4095,36.1182c-.3193.1689-.7998.2529-1.4424.2529-1.5225,0-2.2832-.791-2.2832-2.3721v-3.2061h-1.1348v-1.5928h1.1348v-1.5107l2.1533-.6152v2.126h1.5723v1.5928h-1.5723v2.8301c0,.7295.2891,1.0938.8682,1.0938.2275,0,.4619-.0664.7041-.1982v1.5996Z" fill="#2f2f2f"/>
        <path d="M545.7874,28.0928c-.3652,0-.6631-.1084-.8955-.3242-.2324-.2168-.3486-.4824-.3486-.7969,0-.3232.1162-.5879.3486-.793s.5303-.3076.8955-.3076c.3691,0,.6689.1025.8984.3076.2305.2051.3457.4697.3457.793,0,.3281-.1152.5967-.3457.8066-.2295.21-.5293.3145-.8984.3145ZM546.8538,36.2002h-2.1602v-7h2.1602v7Z" fill="#2f2f2f"/>
        <path d="M551.9641,36.3711c-1.166,0-2.084-.3271-2.751-.9814-.668-.6533-1.002-1.541-1.002-2.6621,0-1.1572.3467-2.0635,1.0391-2.7168.6934-.6543,1.6299-.9814,2.8096-.9814,1.1621,0,2.0742.3271,2.7344.9814.6611.6533.9912,1.5186.9912,2.5938,0,1.1621-.3408,2.0801-1.0215,2.7549-.6816.6748-1.6143,1.0117-2.7998,1.0117ZM552.0188,30.6836c-.5098,0-.9062.1758-1.1895.5264-.2822.3506-.4238.8477-.4238,1.4902,0,1.3447.543,2.0166,1.627,2.0166,1.0352,0,1.5518-.6904,1.5518-2.0713,0-1.3076-.5215-1.9619-1.5654-1.9619Z" fill="#2f2f2f"/>
        <path d="M563.927,36.2002h-2.1533v-3.8896c0-1.085-.3877-1.627-1.1621-1.627-.374,0-.6816.1436-.9229.4307-.2422.2871-.3623.6514-.3623,1.0938v3.9922h-2.1602v-7h2.1602v1.1074h.0273c.5146-.8525,1.2646-1.2783,2.249-1.2783,1.5488,0,2.3242.9619,2.3242,2.8848v4.2861Z" fill="#2f2f2f"/>
        <path d="M569.7102,36.2002v-9.8027h3.5684c1.0938,0,1.9346.2002,2.5225.6016s.8818.9658.8818,1.6953c0,.5283-.1787.9912-.5371,1.3877-.3574.3965-.8145.6719-1.3701.8271v.0273c.6973.0869,1.2539.3438,1.6709.7725s.626.9502.626,1.5654c0,.8975-.3213,1.6094-.9639,2.1367-.6426.5254-1.5205.7891-2.6318.7891h-3.7666ZM571.9182,28.0244v2.3242h.9707c.4551,0,.8145-.1104,1.0762-.332.2627-.2207.3936-.5244.3936-.9121,0-.7197-.5381-1.0801-1.6133-1.0801h-.8271ZM571.9182,31.9893v2.584h1.1963c.5098,0,.9102-.1182,1.1992-.3555.29-.2373.4346-.5605.4346-.9707,0-.3916-.1426-.6992-.4277-.9229-.2842-.2236-.6826-.335-1.1924-.335h-1.21Z" fill="#2f2f2f"/>
      </g>
      <g>
        <path d="M483.929,75.0708h-5.0859v-9.8027h1.1484v8.7637h3.9375v1.0391Z" fill="#2f2f2f"/>
        <path d="M488.1145,75.2349c-1.0342,0-1.8604-.3271-2.4775-.9805-.6182-.6543-.9268-1.5215-.9268-2.6016,0-1.1758.3213-2.0938.9639-2.7549s1.5107-.9912,2.6045-.9912c1.0439,0,1.8584.3213,2.4443.9639.585.6426.8779,1.5332.8779,2.6729,0,1.1162-.3154,2.0107-.9463,2.6836-.6318.6719-1.4775,1.0078-2.54,1.0078ZM488.1966,68.8501c-.7197,0-1.2891.2451-1.709.7344-.4189.4902-.6289,1.166-.6289,2.0273,0,.8291.2119,1.4834.6357,1.9619s.9912.7178,1.7021.7178c.7246,0,1.2822-.2344,1.6719-.7041s.584-1.1367.584-2.0029c0-.875-.1943-1.5498-.584-2.0234s-.9473-.7109-1.6719-.7109Z" fill="#2f2f2f"/>
        <path d="M499.3557,74.5103c0,2.5703-1.2305,3.8555-3.6914,3.8555-.8662,0-1.623-.1641-2.2695-.4922v-1.1211c.7881.4375,1.54.6562,2.2559.6562,1.7227,0,2.584-.916,2.584-2.748v-.7656h-.0273c-.5332.8936-1.3359,1.3398-2.4062,1.3398-.8711,0-1.5713-.3105-2.1025-.9336-.5303-.6211-.7959-1.457-.7959-2.5049,0-1.1895.2861-2.1348.8574-2.8369.5723-.7021,1.3545-1.0527,2.3486-1.0527.9434,0,1.6426.3779,2.0986,1.1348h.0273v-.9707h1.1211v6.4395ZM498.2346,71.9058v-1.0322c0-.5557-.1885-1.0322-.5645-1.4287s-.8438-.5947-1.4043-.5947c-.6934,0-1.2354.252-1.627.7559-.3926.5029-.5879,1.208-.5879,2.1152,0,.7793.1875,1.4023.5635,1.8691.376.4678.874.7012,1.4941.7012.6289,0,1.1406-.2236,1.5342-.6699.3945-.4463.5918-1.0186.5918-1.7158Z" fill="#2f2f2f"/>
        <path d="M502.0452,66.2935c-.2002,0-.3711-.0684-.5127-.2051-.1406-.1367-.2119-.3096-.2119-.5195s.0713-.3838.2119-.5234c.1416-.1387.3125-.208.5127-.208.2051,0,.3799.0693.5234.208.1436.1396.2148.3135.2148.5234,0,.2002-.0713.3711-.2148.5127s-.3184.2119-.5234.2119ZM502.5921,75.0708h-1.1211v-7h1.1211v7Z" fill="#2f2f2f"/>
        <path d="M509.5042,74.7495c-.5371.3232-1.1758.4854-1.9141.4854-.998,0-1.8037-.3242-2.416-.9746-.6133-.6484-.9199-1.4912-.9199-2.5254,0-1.1533.3311-2.0791.9912-2.7793.6611-.6992,1.543-1.0488,2.6455-1.0488.6152,0,1.1582.1143,1.627.3418v1.1484c-.5195-.3643-1.0752-.5469-1.668-.5469-.7148,0-1.3018.2559-1.7598.7695-.458.5117-.6875,1.1855-.6875,2.0195,0,.8203.2158,1.4678.6465,1.9414s1.0078.7109,1.7324.7109c.6113,0,1.1855-.2031,1.7227-.6084v1.0664Z" fill="#2f2f2f"/>
        <path d="M516.2483,75.0708h-1.1211v-1.0938h-.0273c-.4883.8389-1.2061,1.2578-2.1533,1.2578-.6973,0-1.2432-.1846-1.6377-.5537-.3936-.3691-.5908-.8594-.5908-1.4697,0-1.3076.7695-2.0693,2.3105-2.2832l2.0986-.2939c0-1.1895-.4814-1.7842-1.4424-1.7842-.8438,0-1.6045.2871-2.2832.8613v-1.1484c.6875-.4375,1.4805-.6562,2.3789-.6562,1.6445,0,2.4678.8701,2.4678,2.6113v4.5527ZM515.1272,71.5298l-1.6885.2324c-.5195.0732-.9121.2012-1.1758.3867-.2646.1836-.3965.5107-.3965.9805,0,.3418.1221.6211.3652.8379.2441.2158.5684.3242.9746.3242.5557,0,1.0146-.1953,1.377-.584.3623-.3906.5439-.8838.5439-1.4805v-.6973Z" fill="#2f2f2f"/>
        <path d="M519.3889,75.0708h-1.1211v-10.3633h1.1211v10.3633Z" fill="#2f2f2f"/>
        <path d="M530.3743,68.3921l-4.1426,5.7217h4.1016v.957h-5.749v-.3486l4.1426-5.6943h-3.7529v-.957h5.4004v.3213Z" fill="#2f2f2f"/>
        <path d="M534.5462,75.2349c-1.0342,0-1.8604-.3271-2.4775-.9805-.6182-.6543-.9268-1.5215-.9268-2.6016,0-1.1758.3213-2.0938.9639-2.7549s1.5107-.9912,2.6045-.9912c1.0439,0,1.8584.3213,2.4443.9639.585.6426.8779,1.5332.8779,2.6729,0,1.1162-.3154,2.0107-.9463,2.6836-.6318.6719-1.4775,1.0078-2.54,1.0078ZM534.6282,68.8501c-.7197,0-1.2891.2451-1.709.7344-.4189.4902-.6289,1.166-.6289,2.0273,0,.8291.2119,1.4834.6357,1.9619s.9912.7178,1.7021.7178c.7246,0,1.2822-.2344,1.6719-.7041s.584-1.1367.584-2.0029c0-.875-.1943-1.5498-.584-2.0234s-.9473-.7109-1.6719-.7109Z" fill="#2f2f2f"/>
        <path d="M545.5589,75.0708h-1.1211v-3.9922c0-1.4854-.543-2.2285-1.627-2.2285-.5605,0-1.0244.2109-1.3916.6328-.3662.4209-.5498.9531-.5498,1.5957v3.9922h-1.1211v-7h1.1211v1.1621h.0273c.5283-.8838,1.2939-1.3262,2.2969-1.3262.7656,0,1.3506.2471,1.7568.7422.4053.4941.6084,1.208.6084,2.1426v4.2793Z" fill="#2f2f2f"/>
        <path d="M553.262,71.8511h-4.9424c.0186.7793.2285,1.3809.6289,1.8047.4014.4238.9531.6357,1.6543.6357.7891,0,1.5137-.2598,2.1738-.7793v1.0527c-.6152.4463-1.4287.6699-2.4404.6699-.9883,0-1.7656-.3184-2.3311-.9531-.5645-.6367-.8477-1.5303-.8477-2.6836,0-1.0889.3086-1.9766.9268-2.6621.6172-.6865,1.3838-1.0293,2.2998-1.0293s1.625.2959,2.126.8887c.502.5928.752,1.415.752,2.4678v.5879ZM552.1136,70.9009c-.0039-.6475-.1602-1.1504-.4678-1.5107s-.7354-.54-1.2822-.54c-.5283,0-.9775.1895-1.3467.5674s-.5967.873-.6836,1.4834h3.7803Z" fill="#2f2f2f"/>
        <path d="M562.6067,75.0708h-1.1211v-8.4697c-.0859.0869-.2129.1855-.3789.2979-.167.1113-.3535.2217-.5605.3311-.208.1094-.4268.2119-.6562.3076-.2305.0957-.4551.1709-.6738.2256v-1.1348c.2461-.0684.5068-.1611.7832-.2764.2754-.1172.5469-.2461.8135-.3906.2666-.1426.5186-.293.7549-.4512.2373-.1562.4424-.3105.6152-.4609h.4238v10.0215Z" fill="#2f2f2f"/>
      </g>
      <g>
        <path d="M483.929,123.105h-5.0859v-9.8027h1.1484v8.7637h3.9375v1.0391Z" fill="#2f2f2f"/>
        <path d="M488.1145,123.269c-1.0352,0-1.8604-.3271-2.4785-.9805-.6172-.6543-.9258-1.5215-.9258-2.6016,0-1.1758.3213-2.0938.9639-2.7549s1.5107-.9912,2.6045-.9912c1.043,0,1.8584.3213,2.4434.9639.5859.6426.8789,1.5332.8789,2.6729,0,1.1162-.3154,2.0107-.9473,2.6836-.6309.6719-1.4775,1.0078-2.5391,1.0078ZM488.1966,116.8843c-.7207,0-1.29.2451-1.709.7344-.4199.4902-.6289,1.166-.6289,2.0273,0,.8291.2119,1.4834.6357,1.9619s.9912.7178,1.7021.7178c.7246,0,1.2812-.2344,1.6709-.7041s.585-1.1367.585-2.0029c0-.875-.1953-1.5498-.585-2.0234s-.9463-.7109-1.6709-.7109Z" fill="#2f2f2f"/>
        <path d="M499.3548,122.5444c0,2.5703-1.2305,3.8555-3.6914,3.8555-.8652,0-1.6221-.1641-2.2695-.4922v-1.1211c.7891.4375,1.541.6562,2.2559.6562,1.7227,0,2.584-.916,2.584-2.748v-.7656h-.0273c-.5332.8936-1.335,1.3398-2.4062,1.3398-.8701,0-1.5713-.3105-2.1016-.9336-.5312-.6211-.7969-1.457-.7969-2.5049,0-1.1895.2861-2.1348.8584-2.8369.5713-.7021,1.3545-1.0527,2.3477-1.0527.9434,0,1.6436.3779,2.0986,1.1348h.0273v-.9707h1.1211v6.4395ZM498.2337,119.9399v-1.0322c0-.5557-.1875-1.0322-.5635-1.4287s-.8447-.5947-1.4053-.5947c-.6924,0-1.2344.252-1.627.7559-.3916.5029-.5879,1.208-.5879,2.1152,0,.7793.1885,1.4023.5645,1.8691.376.4678.874.7012,1.4932.7012.6289,0,1.1406-.2236,1.5352-.6699.3936-.4463.5908-1.0186.5908-1.7158Z" fill="#2f2f2f"/>
        <path d="M502.0452,114.3276c-.2012,0-.3721-.0684-.5127-.2051-.1416-.1367-.2119-.3096-.2119-.5195s.0703-.3838.2119-.5234c.1406-.1387.3115-.208.5127-.208.2051,0,.3789.0693.5225.208.1436.1396.2158.3135.2158.5234,0,.2002-.0723.3711-.2158.5127s-.3174.2119-.5225.2119ZM502.5921,123.105h-1.1211v-7h1.1211v7Z" fill="#2f2f2f"/>
        <path d="M509.5042,122.7837c-.5381.3232-1.1758.4854-1.9141.4854-.998,0-1.8037-.3242-2.417-.9746-.6123-.6484-.9189-1.4912-.9189-2.5254,0-1.1533.3301-2.0791.9912-2.7793.6602-.6992,1.542-1.0488,2.6455-1.0488.6152,0,1.1572.1143,1.627.3418v1.1484c-.5195-.3643-1.0762-.5469-1.668-.5469-.7158,0-1.3027.2559-1.7607.7695-.458.5117-.6865,1.1855-.6865,2.0195,0,.8203.2148,1.4678.6455,1.9414s1.0088.7109,1.7334.7109c.6104,0,1.1846-.2031,1.7227-.6084v1.0664Z" fill="#2f2f2f"/>
        <path d="M516.2473,123.105h-1.1211v-1.0938h-.0273c-.4873.8389-1.2051,1.2578-2.1533,1.2578-.6973,0-1.2432-.1846-1.6367-.5537-.3945-.3691-.5918-.8594-.5918-1.4697,0-1.3076.7705-2.0693,2.3105-2.2832l2.0986-.2939c0-1.1895-.4805-1.7842-1.4424-1.7842-.8428,0-1.6035.2871-2.2832.8613v-1.1484c.6885-.4375,1.4814-.6562,2.3789-.6562,1.6455,0,2.4678.8701,2.4678,2.6113v4.5527ZM515.1263,119.564l-1.6885.2324c-.5195.0732-.9111.2012-1.1758.3867-.2637.1836-.3965.5107-.3965.9805,0,.3418.1221.6211.3662.8379.2432.2158.5684.3242.9736.3242.5566,0,1.0156-.1953,1.3779-.584.3623-.3906.543-.8838.543-1.4805v-.6973Z" fill="#2f2f2f"/>
        <path d="M519.3889,123.105h-1.1211v-10.3633h1.1211v10.3633Z" fill="#2f2f2f"/>
        <path d="M530.3743,116.4263l-4.1426,5.7217h4.1016v.957h-5.749v-.3486l4.1426-5.6943h-3.7529v-.957h5.4004v.3213Z" fill="#2f2f2f"/>
        <path d="M534.5462,123.269c-1.0352,0-1.8604-.3271-2.4785-.9805-.6172-.6543-.9258-1.5215-.9258-2.6016,0-1.1758.3213-2.0938.9639-2.7549s1.5107-.9912,2.6045-.9912c1.043,0,1.8584.3213,2.4434.9639.5859.6426.8789,1.5332.8789,2.6729,0,1.1162-.3154,2.0107-.9473,2.6836-.6309.6719-1.4775,1.0078-2.5391,1.0078ZM534.6282,116.8843c-.7207,0-1.29.2451-1.709.7344-.4199.4902-.6289,1.166-.6289,2.0273,0,.8291.2119,1.4834.6357,1.9619s.9912.7178,1.7021.7178c.7246,0,1.2812-.2344,1.6709-.7041s.585-1.1367.585-2.0029c0-.875-.1953-1.5498-.585-2.0234s-.9463-.7109-1.6709-.7109Z" fill="#2f2f2f"/>
        <path d="M545.5579,123.105h-1.1211v-3.9922c0-1.4854-.542-2.2285-1.627-2.2285-.5605,0-1.0244.2109-1.3906.6328-.3672.4209-.5508.9531-.5508,1.5957v3.9922h-1.1211v-7h1.1211v1.1621h.0273c.5293-.8838,1.2949-1.3262,2.2969-1.3262.7656,0,1.3516.2471,1.7568.7422.4062.4941.6084,1.208.6084,2.1426v4.2793Z" fill="#2f2f2f"/>
        <path d="M553.262,119.8853h-4.9424c.0176.7793.2275,1.3809.6289,1.8047.4004.4238.9521.6357,1.6543.6357.7881,0,1.5127-.2598,2.1738-.7793v1.0527c-.6152.4463-1.4287.6699-2.4404.6699-.9893,0-1.7666-.3184-2.3311-.9531-.5654-.6367-.8477-1.5303-.8477-2.6836,0-1.0889.3086-1.9766.9258-2.6621.6182-.6865,1.3848-1.0293,2.3008-1.0293s1.624.2959,2.126.8887c.501.5928.752,1.415.752,2.4678v.5879ZM552.1136,118.9351c-.0049-.6475-.1611-1.1504-.4688-1.5107s-.7344-.54-1.2812-.54c-.5293,0-.9775.1895-1.3467.5674s-.5977.873-.6836,1.4834h3.7803Z" fill="#2f2f2f"/>
        <path d="M562.9348,115.8726c0-.3008-.0469-.5625-.1406-.7861-.0928-.2236-.2207-.4092-.3828-.5576-.1611-.1475-.3516-.2578-.5703-.3311s-.4561-.1094-.7109-.1094c-.2188,0-.4336.0293-.6426.0889-.21.0596-.4141.1416-.6123.2461s-.3896.2305-.5742.376-.3564.3076-.5156.4854v-1.2031c.3145-.3057.666-.5391,1.0557-.7012.3896-.1611.8652-.2422,1.4258-.2422.4004,0,.7725.0586,1.1143.1738.3418.1172.6377.2861.8887.5098.25.2236.4473.499.5908.8271s.2158.7041.2158,1.1279c0,.3877-.0449.7383-.1338,1.0527s-.2227.6104-.4033.8887c-.1797.2783-.4062.5449-.6797.7998s-.5947.5146-.9639.7793c-.4609.3281-.8398.6084-1.1387.8408-.2979.2324-.5352.4502-.7109.6523-.1748.2031-.2979.4062-.3691.6094-.0703.2021-.1055.4355-.1055.7002h4.8809v1.0049h-6.0498v-.4854c0-.4189.0449-.7881.1367-1.1074.0908-.3193.2412-.6221.4512-.9092.209-.2871.4844-.5742.8232-.8613.3398-.2871.7559-.6104,1.248-.9707.3555-.2549.6523-.499.8916-.7314s.4316-.4648.5781-.6973c.1455-.2324.249-.4678.3105-.708.0615-.2383.0928-.4932.0928-.7617Z" fill="#2f2f2f"/>
      </g>
      <g>
        <path d="M483.929,170.4917h-5.0859v-9.8027h1.1484v8.7637h3.9375v1.0391Z" fill="#2f2f2f"/>
        <path d="M488.1145,170.6558c-1.0352,0-1.8604-.3271-2.4785-.9805-.6172-.6543-.9258-1.5215-.9258-2.6016,0-1.1758.3213-2.0938.9639-2.7549s1.5107-.9912,2.6045-.9912c1.043,0,1.8584.3213,2.4434.9639.5859.6426.8789,1.5332.8789,2.6729,0,1.1162-.3154,2.0107-.9473,2.6836-.6309.6719-1.4775,1.0078-2.5391,1.0078ZM488.1966,164.271c-.7207,0-1.29.2451-1.709.7344-.4199.4902-.6289,1.166-.6289,2.0273,0,.8291.2119,1.4834.6357,1.9619s.9912.7178,1.7021.7178c.7246,0,1.2812-.2344,1.6709-.7041s.585-1.1367.585-2.0029c0-.875-.1953-1.5498-.585-2.0234s-.9463-.7109-1.6709-.7109Z" fill="#2f2f2f"/>
        <path d="M499.3548,169.9312c0,2.5703-1.2305,3.8555-3.6914,3.8555-.8652,0-1.6221-.1641-2.2695-.4922v-1.1211c.7891.4375,1.541.6562,2.2559.6562,1.7227,0,2.584-.916,2.584-2.748v-.7656h-.0273c-.5332.8936-1.335,1.3398-2.4062,1.3398-.8701,0-1.5713-.3105-2.1016-.9336-.5312-.6211-.7969-1.457-.7969-2.5049,0-1.1895.2861-2.1348.8584-2.8369.5713-.7021,1.3545-1.0527,2.3477-1.0527.9434,0,1.6436.3779,2.0986,1.1348h.0273v-.9707h1.1211v6.4395ZM498.2337,167.3267v-1.0322c0-.5557-.1875-1.0322-.5635-1.4287s-.8447-.5947-1.4053-.5947c-.6924,0-1.2344.252-1.627.7559-.3916.5029-.5879,1.208-.5879,2.1152,0,.7793.1885,1.4023.5645,1.8691.376.4678.874.7012,1.4932.7012.6289,0,1.1406-.2236,1.5352-.6699.3936-.4463.5908-1.0186.5908-1.7158Z" fill="#2f2f2f"/>
        <path d="M502.0452,161.7144c-.2012,0-.3721-.0684-.5127-.2051-.1416-.1367-.2119-.3096-.2119-.5195s.0703-.3838.2119-.5234c.1406-.1387.3115-.208.5127-.208.2051,0,.3789.0693.5225.208.1436.1396.2158.3135.2158.5234,0,.2002-.0723.3711-.2158.5127s-.3174.2119-.5225.2119ZM502.5921,170.4917h-1.1211v-7h1.1211v7Z" fill="#2f2f2f"/>
        <path d="M509.5042,170.1704c-.5381.3232-1.1758.4854-1.9141.4854-.998,0-1.8037-.3242-2.417-.9746-.6123-.6484-.9189-1.4912-.9189-2.5254,0-1.1533.3301-2.0791.9912-2.7793.6602-.6992,1.542-1.0488,2.6455-1.0488.6152,0,1.1572.1143,1.627.3418v1.1484c-.5195-.3643-1.0762-.5469-1.668-.5469-.7158,0-1.3027.2559-1.7607.7695-.458.5117-.6865,1.1855-.6865,2.0195,0,.8203.2148,1.4678.6455,1.9414s1.0088.7109,1.7334.7109c.6104,0,1.1846-.2031,1.7227-.6084v1.0664Z" fill="#2f2f2f"/>
        <path d="M516.2473,170.4917h-1.1211v-1.0938h-.0273c-.4873.8389-1.2051,1.2578-2.1533,1.2578-.6973,0-1.2432-.1846-1.6367-.5537-.3945-.3691-.5918-.8594-.5918-1.4697,0-1.3076.7705-2.0693,2.3105-2.2832l2.0986-.2939c0-1.1895-.4805-1.7842-1.4424-1.7842-.8428,0-1.6035.2871-2.2832.8613v-1.1484c.6885-.4375,1.4814-.6562,2.3789-.6562,1.6455,0,2.4678.8701,2.4678,2.6113v4.5527ZM515.1263,166.9507l-1.6885.2324c-.5195.0732-.9111.2012-1.1758.3867-.2637.1836-.3965.5107-.3965.9805,0,.3418.1221.6211.3662.8379.2432.2158.5684.3242.9736.3242.5566,0,1.0156-.1953,1.3779-.584.3623-.3906.543-.8838.543-1.4805v-.6973Z" fill="#2f2f2f"/>
        <path d="M519.3889,170.4917h-1.1211v-10.3633h1.1211v10.3633Z" fill="#2f2f2f"/>
        <path d="M530.3743,163.813l-4.1426,5.7217h4.1016v.957h-5.749v-.3486l4.1426-5.6943h-3.7529v-.957h5.4004v.3213Z" fill="#2f2f2f"/>
        <path d="M534.5462,170.6558c-1.0352,0-1.8604-.3271-2.4785-.9805-.6172-.6543-.9258-1.5215-.9258-2.6016,0-1.1758.3213-2.0938.9639-2.7549s1.5107-.9912,2.6045-.9912c1.043,0,1.8584.3213,2.4434.9639.5859.6426.8789,1.5332.8789,2.6729,0,1.1162-.3154,2.0107-.9473,2.6836-.6309.6719-1.4775,1.0078-2.5391,1.0078ZM534.6282,164.271c-.7207,0-1.29.2451-1.709.7344-.4199.4902-.6289,1.166-.6289,2.0273,0,.8291.2119,1.4834.6357,1.9619s.9912.7178,1.7021.7178c.7246,0,1.2812-.2344,1.6709-.7041s.585-1.1367.585-2.0029c0-.875-.1953-1.5498-.585-2.0234s-.9463-.7109-1.6709-.7109Z" fill="#2f2f2f"/>
        <path d="M545.5579,170.4917h-1.1211v-3.9922c0-1.4854-.542-2.2285-1.627-2.2285-.5605,0-1.0244.2109-1.3906.6328-.3672.4209-.5508.9531-.5508,1.5957v3.9922h-1.1211v-7h1.1211v1.1621h.0273c.5293-.8838,1.2949-1.3262,2.2969-1.3262.7656,0,1.3516.2471,1.7568.7422.4062.4941.6084,1.208.6084,2.1426v4.2793Z" fill="#2f2f2f"/>
        <path d="M553.262,167.272h-4.9424c.0176.7793.2275,1.3809.6289,1.8047.4004.4238.9521.6357,1.6543.6357.7881,0,1.5127-.2598,2.1738-.7793v1.0527c-.6152.4463-1.4287.6699-2.4404.6699-.9893,0-1.7666-.3184-2.3311-.9531-.5654-.6367-.8477-1.5303-.8477-2.6836,0-1.0889.3086-1.9766.9258-2.6621.6182-.6865,1.3848-1.0293,2.3008-1.0293s1.624.2959,2.126.8887c.501.5928.752,1.415.752,2.4678v.5879ZM552.1136,166.3218c-.0049-.6475-.1611-1.1504-.4688-1.5107s-.7344-.54-1.2812-.54c-.5293,0-.9775.1895-1.3467.5674s-.5977.873-.6836,1.4834h3.7803Z" fill="#2f2f2f"/>
        <path d="M564.1721,167.7163c0,.4424-.083.8438-.25,1.207-.166.3613-.4004.6719-.7041.9297-.3027.2568-.666.4561-1.0898.5977s-.8916.2119-1.4014.2119c-.9346,0-1.6777-.1777-2.2285-.5332v-1.2031c.6602.5195,1.417.7793,2.2695.7793.3418,0,.6504-.043.9258-.1299.2764-.0869.5127-.2119.7109-.376s.3516-.3623.458-.5947c.1074-.2324.1611-.4941.1611-.7861,0-1.2803-.9121-1.9209-2.7344-1.9209h-.8135v-.9502h.7725c1.6133,0,2.4199-.6016,2.4199-1.8047,0-1.1123-.6152-1.668-1.8457-1.668-.6934,0-1.3428.2324-1.9482.6973v-1.0869c.624-.374,1.3672-.5605,2.2285-.5605.4102,0,.7812.0566,1.1143.1709.332.1143.6172.2734.8545.4785.2363.2051.4199.4512.5498.7383s.1953.6035.1953.9502c0,1.29-.6523,2.1191-1.9551,2.4883v.0273c.332.0361.6396.1172.9229.2422.2822.126.5264.2891.7314.4893s.3652.4365.4814.708c.1162.2705.1748.5703.1748.8984Z" fill="#2f2f2f"/>
      </g>
      <g>
        <path d="M272.553,71.3657v3.7051h-1.1484v-9.8027h2.6934c1.0483,0,1.8604.2549,2.437.7656s.8647,1.2305.8647,2.1602-.3203,1.6904-.9604,2.2832-1.5049.8887-2.5942.8887h-1.292ZM272.553,66.3071v4.0195h1.2031c.793,0,1.3979-.1816,1.8149-.543.417-.3633.6255-.874.6255-1.5352,0-1.2939-.7656-1.9414-2.2969-1.9414h-1.3467Z" fill="#2f2f2f"/>
        <path d="M284.6897,75.0708h-1.1211v-4.0332c0-1.458-.5425-2.1875-1.627-2.1875-.5469,0-1.0073.2109-1.3809.6328-.3735.4209-.5605.9619-.5605,1.623v3.9648h-1.1211v-10.3633h1.1211v4.5254h.0273c.5376-.8838,1.3032-1.3262,2.2969-1.3262,1.5767,0,2.3652.9502,2.3652,2.8506v4.3135Z" fill="#2f2f2f"/>
        <path d="M292.179,68.0708l-3.2197,8.1211c-.5742,1.4492-1.3809,2.1738-2.4199,2.1738-.2915,0-.5356-.0293-.7314-.0889v-1.0049c.2417.082.4624.123.6631.123.5649,0,.9888-.3369,1.2715-1.0117l.5605-1.3262-2.7344-6.9863h1.2441l1.8936,5.3867c.0229.0684.0708.2461.1436.5332h.041c.0229-.1094.0684-.2822.1367-.5195l1.9893-5.4004h1.1621Z" fill="#2f2f2f"/>
        <path d="M292.9583,74.8179v-1.2031c.6108.4512,1.2827.6768,2.0166.6768.9844,0,1.4766-.3281,1.4766-.9844,0-.1865-.042-.3457-.1265-.4746-.0845-.1309-.1982-.2451-.3418-.3457s-.312-.1904-.5059-.2695c-.1938-.0801-.4023-.1631-.6255-.25-.3101-.123-.582-.2471-.8169-.373-.2349-.125-.4307-.2656-.5879-.4238-.1572-.1562-.2759-.3359-.3555-.5361s-.1196-.4355-.1196-.7041c0-.3281.0752-.6191.2256-.8711.1504-.2539.3511-.4648.6016-.6367.2505-.1699.5366-.2988.8579-.3857s.6528-.1299.9946-.1299c.606,0,1.1484.1045,1.627.3145v1.1348c-.5151-.3369-1.1074-.5059-1.7773-.5059-.2095,0-.3989.0234-.5674.0723-.1685.0469-.3135.1143-.4341.2012s-.2144.1904-.2803.3105c-.0659.1211-.0991.2549-.0991.4004,0,.1826.0332.335.0991.458s.1631.2324.2905.3281.2827.1826.4648.2598.3896.1621.6221.2529c.3101.1182.5879.2402.834.3652.2461.126.4556.2676.6289.4238.1733.1582.3066.3389.3999.5439s.1401.4492.1401.7314c0,.3467-.0762.6475-.229.9023s-.3564.4668-.6118.6357-.5493.2939-.8818.376-.6812.123-1.0459.123c-.7202,0-1.3442-.1387-1.873-.417Z" fill="#2f2f2f"/>
        <path d="M299.7498,66.2935c-.2007,0-.3716-.0684-.5127-.2051s-.2119-.3096-.2119-.5195.0708-.3838.2119-.5234c.1411-.1387.312-.208.5127-.208.2051,0,.3794.0693.5229.208.1436.1396.2153.3135.2153.5234,0,.2002-.0718.3711-.2153.5127s-.3179.2119-.5229.2119ZM300.2967,75.0708h-1.1211v-7h1.1211v7Z" fill="#2f2f2f"/>
        <path d="M307.2088,74.7495c-.5376.3232-1.1758.4854-1.9141.4854-.998,0-1.8037-.3242-2.4165-.9746-.6128-.6484-.9194-1.4912-.9194-2.5254,0-1.1533.3306-2.0791.9912-2.7793.6606-.6992,1.5425-1.0488,2.6455-1.0488.6152,0,1.1577.1143,1.627.3418v1.1484c-.5195-.3643-1.0757-.5469-1.668-.5469-.7153,0-1.3022.2559-1.7603.7695-.458.5117-.687,1.1855-.687,2.0195,0,.8203.2153,1.4678.646,1.9414s1.0083.7109,1.7329.7109c.6108,0,1.1851-.2031,1.7227-.6084v1.0664Z" fill="#2f2f2f"/>
        <path d="M313.9524,75.0708h-1.1211v-1.0938h-.0273c-.4878.8389-1.2056,1.2578-2.1533,1.2578-.6973,0-1.2432-.1846-1.6372-.5537s-.5913-.8594-.5913-1.4697c0-1.3076.77-2.0693,2.3105-2.2832l2.0986-.2939c0-1.1895-.481-1.7842-1.4424-1.7842-.8433,0-1.604.2871-2.2832.8613v-1.1484c.688-.4375,1.481-.6562,2.3789-.6562,1.645,0,2.4678.8701,2.4678,2.6113v4.5527ZM312.8313,71.5298l-1.6885.2324c-.5195.0732-.9116.2012-1.1758.3867-.2642.1836-.3965.5107-.3965.9805,0,.3418.1221.6211.3657.8379.2437.2158.5684.3242.9741.3242.5562,0,1.0151-.1953,1.3774-.584.3623-.3906.5435-.8838.5435-1.4805v-.6973Z" fill="#2f2f2f"/>
        <path d="M317.0935,75.0708h-1.1211v-10.3633h1.1211v10.3633Z" fill="#2f2f2f"/>
        <path d="M328.0789,68.3921l-4.1426,5.7217h4.1016v.957h-5.749v-.3486l4.1426-5.6943h-3.7529v-.957h5.4004v.3213Z" fill="#2f2f2f"/>
        <path d="M332.2513,75.2349c-1.0347,0-1.8604-.3271-2.478-.9805-.6177-.6543-.9263-1.5215-.9263-2.6016,0-1.1758.3213-2.0938.9639-2.7549s1.5107-.9912,2.6045-.9912c1.0435,0,1.8584.3213,2.4438.9639s.8784,1.5332.8784,2.6729c0,1.1162-.3154,2.0107-.9468,2.6836-.6313.6719-1.4775,1.0078-2.5396,1.0078ZM332.3333,68.8501c-.7202,0-1.2896.2451-1.709.7344-.4194.4902-.6289,1.166-.6289,2.0273,0,.8291.2119,1.4834.6357,1.9619s.9912.7178,1.7021.7178c.7246,0,1.2817-.2344,1.6714-.7041s.5845-1.1367.5845-2.0029c0-.875-.1948-1.5498-.5845-2.0234s-.9468-.7109-1.6714-.7109Z" fill="#2f2f2f"/>
        <path d="M343.2635,75.0708h-1.1211v-3.9922c0-1.4854-.5425-2.2285-1.627-2.2285-.5605,0-1.0244.2109-1.3911.6328-.3667.4209-.5503.9531-.5503,1.5957v3.9922h-1.1211v-7h1.1211v1.1621h.0273c.5288-.8838,1.2944-1.3262,2.2969-1.3262.7656,0,1.3511.2471,1.7568.7422.4058.4941.6084,1.208.6084,2.1426v4.2793Z" fill="#2f2f2f"/>
        <path d="M350.9666,71.8511h-4.9424c.0181.7793.228,1.3809.6289,1.8047s.9526.6357,1.6543.6357c.7886,0,1.5132-.2598,2.1738-.7793v1.0527c-.6152.4463-1.4287.6699-2.4404.6699-.9888,0-1.7661-.3184-2.3311-.9531-.5649-.6367-.8477-1.5303-.8477-2.6836,0-1.0889.3086-1.9766.9263-2.6621.6177-.6865,1.3843-1.0293,2.3003-1.0293s1.6245.2959,2.126.8887.752,1.415.752,2.4678v.5879ZM349.8181,70.9009c-.0044-.6475-.1606-1.1504-.4683-1.5107s-.7349-.54-1.2817-.54c-.5288,0-.9775.1895-1.3467.5674s-.5972.873-.6836,1.4834h3.7803Z" fill="#2f2f2f"/>
        <path d="M360.3113,75.0708h-1.1211v-8.4697c-.0864.0869-.2129.1855-.3794.2979-.1665.1113-.353.2217-.5605.3311s-.4263.2119-.6562.3076-.4546.1709-.6733.2256v-1.1348c.2461-.0684.5068-.1611.7827-.2764.2759-.1172.5469-.2461.8135-.3906.2666-.1426.5186-.293.7554-.4512.2368-.1562.4419-.3105.6152-.4609h.4238v10.0215Z" fill="#2f2f2f"/>
      </g>
      <g>
        <path d="M272.5525,119.3999v3.7051h-1.1484v-9.8027h2.6934c1.0483,0,1.8604.2549,2.437.7656s.8647,1.2305.8647,2.1602-.3203,1.6904-.9604,2.2832-1.5049.8887-2.5942.8887h-1.292ZM272.5525,114.3413v4.0195h1.2031c.793,0,1.3979-.1816,1.8149-.543.417-.3633.6255-.874.6255-1.5352,0-1.2939-.7656-1.9414-2.2969-1.9414h-1.3467Z" fill="#2f2f2f"/>
        <path d="M284.6892,123.105h-1.1211v-4.0332c0-1.458-.5425-2.1875-1.627-2.1875-.5469,0-1.0073.2109-1.3809.6328-.3735.4209-.5605.9619-.5605,1.623v3.9648h-1.1211v-10.3633h1.1211v4.5254h.0273c.5376-.8838,1.3032-1.3262,2.2969-1.3262,1.5767,0,2.3652.9502,2.3652,2.8506v4.3135Z" fill="#2f2f2f"/>
        <path d="M292.1785,116.105l-3.2197,8.1211c-.5742,1.4492-1.3809,2.1738-2.4199,2.1738-.2915,0-.5356-.0293-.7314-.0889v-1.0049c.2417.082.4624.123.6631.123.5649,0,.9888-.3369,1.2715-1.0117l.5605-1.3262-2.7344-6.9863h1.2441l1.8936,5.3867c.0229.0684.0708.2461.1436.5332h.041c.0229-.1094.0684-.2822.1367-.5195l1.9893-5.4004h1.1621Z" fill="#2f2f2f"/>
        <path d="M292.9578,122.8521v-1.2031c.6108.4512,1.2827.6768,2.0166.6768.9844,0,1.4766-.3281,1.4766-.9844,0-.1865-.042-.3457-.1265-.4746-.0845-.1309-.1982-.2451-.3418-.3457s-.312-.1904-.5059-.2695c-.1938-.0801-.4023-.1631-.6255-.25-.3101-.123-.582-.2471-.8169-.373-.2349-.125-.4307-.2656-.5879-.4238-.1572-.1562-.2759-.3359-.3555-.5361s-.1196-.4355-.1196-.7041c0-.3281.0752-.6191.2256-.8711.1504-.2539.3511-.4648.6016-.6367.2505-.1699.5366-.2988.8579-.3857s.6528-.1299.9946-.1299c.606,0,1.1484.1045,1.627.3145v1.1348c-.5151-.3369-1.1074-.5059-1.7773-.5059-.2095,0-.3989.0234-.5674.0723-.1685.0469-.3135.1143-.4341.2012s-.2144.1904-.2803.3105c-.0659.1211-.0991.2549-.0991.4004,0,.1826.0332.335.0991.458s.1631.2324.2905.3281.2827.1826.4648.2598.3896.1621.6221.2529c.3101.1182.5879.2402.834.3652.2461.126.4556.2676.6289.4238.1733.1582.3066.3389.3999.5439s.1401.4492.1401.7314c0,.3467-.0762.6475-.229.9023s-.3564.4668-.6118.6357-.5493.2939-.8818.376-.6812.123-1.0459.123c-.7202,0-1.3442-.1387-1.873-.417Z" fill="#2f2f2f"/>
        <path d="M299.7493,114.3276c-.2007,0-.3716-.0684-.5127-.2051s-.2119-.3096-.2119-.5195.0708-.3838.2119-.5234c.1411-.1387.312-.208.5127-.208.2051,0,.3794.0693.5229.208.1436.1396.2153.3135.2153.5234,0,.2002-.0718.3711-.2153.5127s-.3179.2119-.5229.2119ZM300.2962,123.105h-1.1211v-7h1.1211v7Z" fill="#2f2f2f"/>
        <path d="M307.2083,122.7837c-.5376.3232-1.1758.4854-1.9141.4854-.998,0-1.8037-.3242-2.4165-.9746-.6128-.6484-.9194-1.4912-.9194-2.5254,0-1.1533.3306-2.0791.9912-2.7793.6606-.6992,1.5425-1.0488,2.6455-1.0488.6152,0,1.1577.1143,1.627.3418v1.1484c-.5195-.3643-1.0757-.5469-1.668-.5469-.7153,0-1.3022.2559-1.7603.7695-.458.5117-.687,1.1855-.687,2.0195,0,.8203.2153,1.4678.646,1.9414s1.0083.7109,1.7329.7109c.6108,0,1.1851-.2031,1.7227-.6084v1.0664Z" fill="#2f2f2f"/>
        <path d="M313.9519,123.105h-1.1211v-1.0938h-.0273c-.4878.8389-1.2056,1.2578-2.1533,1.2578-.6973,0-1.2432-.1846-1.6372-.5537s-.5913-.8594-.5913-1.4697c0-1.3076.77-2.0693,2.3105-2.2832l2.0986-.2939c0-1.1895-.481-1.7842-1.4424-1.7842-.8433,0-1.604.2871-2.2832.8613v-1.1484c.688-.4375,1.481-.6562,2.3789-.6562,1.645,0,2.4678.8701,2.4678,2.6113v4.5527ZM312.8308,119.564l-1.6885.2324c-.5195.0732-.9116.2012-1.1758.3867-.2642.1836-.3965.5107-.3965.9805,0,.3418.1221.6211.3657.8379.2437.2158.5684.3242.9741.3242.5562,0,1.0151-.1953,1.3774-.584.3623-.3906.5435-.8838.5435-1.4805v-.6973Z" fill="#2f2f2f"/>
        <path d="M317.093,123.105h-1.1211v-10.3633h1.1211v10.3633Z" fill="#2f2f2f"/>
        <path d="M328.0784,116.4263l-4.1426,5.7217h4.1016v.957h-5.749v-.3486l4.1426-5.6943h-3.7529v-.957h5.4004v.3213Z" fill="#2f2f2f"/>
        <path d="M332.2508,123.269c-1.0347,0-1.8604-.3271-2.478-.9805-.6177-.6543-.9263-1.5215-.9263-2.6016,0-1.1758.3213-2.0938.9639-2.7549s1.5107-.9912,2.6045-.9912c1.0435,0,1.8584.3213,2.4438.9639s.8784,1.5332.8784,2.6729c0,1.1162-.3154,2.0107-.9468,2.6836-.6313.6719-1.4775,1.0078-2.5396,1.0078ZM332.3328,116.8843c-.7202,0-1.2896.2451-1.709.7344-.4194.4902-.6289,1.166-.6289,2.0273,0,.8291.2119,1.4834.6357,1.9619s.9912.7178,1.7021.7178c.7246,0,1.2817-.2344,1.6714-.7041s.5845-1.1367.5845-2.0029c0-.875-.1948-1.5498-.5845-2.0234s-.9468-.7109-1.6714-.7109Z" fill="#2f2f2f"/>
        <path d="M343.263,123.105h-1.1211v-3.9922c0-1.4854-.5425-2.2285-1.627-2.2285-.5605,0-1.0244.2109-1.3911.6328-.3667.4209-.5503.9531-.5503,1.5957v3.9922h-1.1211v-7h1.1211v1.1621h.0273c.5288-.8838,1.2944-1.3262,2.2969-1.3262.7656,0,1.3511.2471,1.7568.7422.4058.4941.6084,1.208.6084,2.1426v4.2793Z" fill="#2f2f2f"/>
        <path d="M350.9661,119.8853h-4.9424c.0181.7793.228,1.3809.6289,1.8047s.9526.6357,1.6543.6357c.7886,0,1.5132-.2598,2.1738-.7793v1.0527c-.6152.4463-1.4287.6699-2.4404.6699-.9888,0-1.7661-.3184-2.3311-.9531-.5649-.6367-.8477-1.5303-.8477-2.6836,0-1.0889.3086-1.9766.9263-2.6621.6177-.6865,1.3843-1.0293,2.3003-1.0293s1.6245.2959,2.126.8887.752,1.415.752,2.4678v.5879ZM349.8177,118.9351c-.0044-.6475-.1606-1.1504-.4683-1.5107s-.7349-.54-1.2817-.54c-.5288,0-.9775.1895-1.3467.5674s-.5972.873-.6836,1.4834h3.7803Z" fill="#2f2f2f"/>
        <path d="M360.6389,115.8726c0-.3008-.0469-.5625-.1401-.7861s-.2212-.4092-.3828-.5576c-.1616-.1475-.3521-.2578-.5708-.3311s-.4556-.1094-.7109-.1094c-.2188,0-.4331.0293-.6426.0889s-.4136.1416-.6118.2461-.3896.2305-.5742.376-.3564.3076-.5161.4854v-1.2031c.3145-.3057.6665-.5391,1.0562-.7012.3896-.1611.8647-.2422,1.4253-.2422.4009,0,.7725.0586,1.1143.1738.3418.1172.6382.2861.8887.5098s.4478.499.5913.8271.2153.7041.2153,1.1279c0,.3877-.0444.7383-.1333,1.0527s-.2231.6104-.4033.8887-.4067.5449-.6802.7998-.5947.5146-.9639.7793c-.4604.3281-.8398.6084-1.1382.8408s-.5356.4502-.7109.6523c-.1753.2031-.2983.4062-.3691.6094-.0708.2021-.106.4355-.106.7002h4.8809v1.0049h-6.0498v-.4854c0-.4189.0454-.7881.1367-1.1074s.2417-.6221.4512-.9092.4844-.5742.8237-.8613.7554-.6104,1.2476-.9707c.3555-.2549.6528-.499.8921-.7314s.4316-.4648.5776-.6973.2495-.4678.311-.708c.0615-.2383.0923-.4932.0923-.7617Z" fill="#2f2f2f"/>
      </g>
      <g>
        <path d="M272.5525,166.7866v3.7051h-1.1484v-9.8027h2.6934c1.0483,0,1.8604.2549,2.437.7656s.8647,1.2305.8647,2.1602-.3203,1.6904-.9604,2.2832-1.5049.8887-2.5942.8887h-1.292ZM272.5525,161.728v4.0195h1.2031c.793,0,1.3979-.1816,1.8149-.543.417-.3633.6255-.874.6255-1.5352,0-1.2939-.7656-1.9414-2.2969-1.9414h-1.3467Z" fill="#2f2f2f"/>
        <path d="M284.6892,170.4917h-1.1211v-4.0332c0-1.458-.5425-2.1875-1.627-2.1875-.5469,0-1.0073.2109-1.3809.6328-.3735.4209-.5605.9619-.5605,1.623v3.9648h-1.1211v-10.3633h1.1211v4.5254h.0273c.5376-.8838,1.3032-1.3262,2.2969-1.3262,1.5767,0,2.3652.9502,2.3652,2.8506v4.3135Z" fill="#2f2f2f"/>
        <path d="M292.1785,163.4917l-3.2197,8.1211c-.5742,1.4492-1.3809,2.1738-2.4199,2.1738-.2915,0-.5356-.0293-.7314-.0889v-1.0049c.2417.082.4624.123.6631.123.5649,0,.9888-.3369,1.2715-1.0117l.5605-1.3262-2.7344-6.9863h1.2441l1.8936,5.3867c.0229.0684.0708.2461.1436.5332h.041c.0229-.1094.0684-.2822.1367-.5195l1.9893-5.4004h1.1621Z" fill="#2f2f2f"/>
        <path d="M292.9578,170.2388v-1.2031c.6108.4512,1.2827.6768,2.0166.6768.9844,0,1.4766-.3281,1.4766-.9844,0-.1865-.042-.3457-.1265-.4746-.0845-.1309-.1982-.2451-.3418-.3457s-.312-.1904-.5059-.2695c-.1938-.0801-.4023-.1631-.6255-.25-.3101-.123-.582-.2471-.8169-.373-.2349-.125-.4307-.2656-.5879-.4238-.1572-.1562-.2759-.3359-.3555-.5361s-.1196-.4355-.1196-.7041c0-.3281.0752-.6191.2256-.8711.1504-.2539.3511-.4648.6016-.6367.2505-.1699.5366-.2988.8579-.3857s.6528-.1299.9946-.1299c.606,0,1.1484.1045,1.627.3145v1.1348c-.5151-.3369-1.1074-.5059-1.7773-.5059-.2095,0-.3989.0234-.5674.0723-.1685.0469-.3135.1143-.4341.2012s-.2144.1904-.2803.3105c-.0659.1211-.0991.2549-.0991.4004,0,.1826.0332.335.0991.458s.1631.2324.2905.3281.2827.1826.4648.2598.3896.1621.6221.2529c.3101.1182.5879.2402.834.3652.2461.126.4556.2676.6289.4238.1733.1582.3066.3389.3999.5439s.1401.4492.1401.7314c0,.3467-.0762.6475-.229.9023s-.3564.4668-.6118.6357-.5493.2939-.8818.376-.6812.123-1.0459.123c-.7202,0-1.3442-.1387-1.873-.417Z" fill="#2f2f2f"/>
        <path d="M299.7493,161.7144c-.2007,0-.3716-.0684-.5127-.2051s-.2119-.3096-.2119-.5195.0708-.3838.2119-.5234c.1411-.1387.312-.208.5127-.208.2051,0,.3794.0693.5229.208.1436.1396.2153.3135.2153.5234,0,.2002-.0718.3711-.2153.5127s-.3179.2119-.5229.2119ZM300.2962,170.4917h-1.1211v-7h1.1211v7Z" fill="#2f2f2f"/>
        <path d="M307.2083,170.1704c-.5376.3232-1.1758.4854-1.9141.4854-.998,0-1.8037-.3242-2.4165-.9746-.6128-.6484-.9194-1.4912-.9194-2.5254,0-1.1533.3306-2.0791.9912-2.7793.6606-.6992,1.5425-1.0488,2.6455-1.0488.6152,0,1.1577.1143,1.627.3418v1.1484c-.5195-.3643-1.0757-.5469-1.668-.5469-.7153,0-1.3022.2559-1.7603.7695-.458.5117-.687,1.1855-.687,2.0195,0,.8203.2153,1.4678.646,1.9414s1.0083.7109,1.7329.7109c.6108,0,1.1851-.2031,1.7227-.6084v1.0664Z" fill="#2f2f2f"/>
        <path d="M313.9519,170.4917h-1.1211v-1.0938h-.0273c-.4878.8389-1.2056,1.2578-2.1533,1.2578-.6973,0-1.2432-.1846-1.6372-.5537s-.5913-.8594-.5913-1.4697c0-1.3076.77-2.0693,2.3105-2.2832l2.0986-.2939c0-1.1895-.481-1.7842-1.4424-1.7842-.8433,0-1.604.2871-2.2832.8613v-1.1484c.688-.4375,1.481-.6562,2.3789-.6562,1.645,0,2.4678.8701,2.4678,2.6113v4.5527ZM312.8308,166.9507l-1.6885.2324c-.5195.0732-.9116.2012-1.1758.3867-.2642.1836-.3965.5107-.3965.9805,0,.3418.1221.6211.3657.8379.2437.2158.5684.3242.9741.3242.5562,0,1.0151-.1953,1.3774-.584.3623-.3906.5435-.8838.5435-1.4805v-.6973Z" fill="#2f2f2f"/>
        <path d="M317.093,170.4917h-1.1211v-10.3633h1.1211v10.3633Z" fill="#2f2f2f"/>
        <path d="M328.0784,163.813l-4.1426,5.7217h4.1016v.957h-5.749v-.3486l4.1426-5.6943h-3.7529v-.957h5.4004v.3213Z" fill="#2f2f2f"/>
        <path d="M332.2508,170.6558c-1.0347,0-1.8604-.3271-2.478-.9805-.6177-.6543-.9263-1.5215-.9263-2.6016,0-1.1758.3213-2.0938.9639-2.7549s1.5107-.9912,2.6045-.9912c1.0435,0,1.8584.3213,2.4438.9639s.8784,1.5332.8784,2.6729c0,1.1162-.3154,2.0107-.9468,2.6836-.6313.6719-1.4775,1.0078-2.5396,1.0078ZM332.3328,164.271c-.7202,0-1.2896.2451-1.709.7344-.4194.4902-.6289,1.166-.6289,2.0273,0,.8291.2119,1.4834.6357,1.9619s.9912.7178,1.7021.7178c.7246,0,1.2817-.2344,1.6714-.7041s.5845-1.1367.5845-2.0029c0-.875-.1948-1.5498-.5845-2.0234s-.9468-.7109-1.6714-.7109Z" fill="#2f2f2f"/>
        <path d="M343.263,170.4917h-1.1211v-3.9922c0-1.4854-.5425-2.2285-1.627-2.2285-.5605,0-1.0244.2109-1.3911.6328-.3667.4209-.5503.9531-.5503,1.5957v3.9922h-1.1211v-7h1.1211v1.1621h.0273c.5288-.8838,1.2944-1.3262,2.2969-1.3262.7656,0,1.3511.2471,1.7568.7422.4058.4941.6084,1.208.6084,2.1426v4.2793Z" fill="#2f2f2f"/>
        <path d="M350.9661,167.272h-4.9424c.0181.7793.228,1.3809.6289,1.8047s.9526.6357,1.6543.6357c.7886,0,1.5132-.2598,2.1738-.7793v1.0527c-.6152.4463-1.4287.6699-2.4404.6699-.9888,0-1.7661-.3184-2.3311-.9531-.5649-.6367-.8477-1.5303-.8477-2.6836,0-1.0889.3086-1.9766.9263-2.6621.6177-.6865,1.3843-1.0293,2.3003-1.0293s1.6245.2959,2.126.8887.752,1.415.752,2.4678v.5879ZM349.8177,166.3218c-.0044-.6475-.1606-1.1504-.4683-1.5107s-.7349-.54-1.2817-.54c-.5288,0-.9775.1895-1.3467.5674s-.5972.873-.6836,1.4834h3.7803Z" fill="#2f2f2f"/>
        <path d="M361.8763,167.7163c0,.4424-.083.8438-.2495,1.207-.1665.3613-.4009.6719-.7041.9297-.3032.2568-.6665.4561-1.0903.5977s-.8911.2119-1.4014.2119c-.9341,0-1.6772-.1777-2.2285-.5332v-1.2031c.6606.5195,1.4175.7793,2.2695.7793.3418,0,.6504-.043.9263-.1299s.5127-.2119.7109-.376.3511-.3623.458-.5947.1606-.4941.1606-.7861c0-1.2803-.9116-1.9209-2.7344-1.9209h-.8135v-.9502h.7725c1.6133,0,2.4199-.6016,2.4199-1.8047,0-1.1123-.6152-1.668-1.8457-1.668-.6929,0-1.3423.2324-1.9482.6973v-1.0869c.6245-.374,1.3672-.5605,2.2285-.5605.4102,0,.7817.0566,1.1143.1709s.6177.2734.8545.4785.4204.4512.5503.7383.1948.6035.1948.9502c0,1.29-.6519,2.1191-1.9551,2.4883v.0273c.3325.0361.6401.1172.9229.2422.2827.126.5264.2891.7314.4893s.3657.4365.4819.708c.1162.2705.1743.5703.1743.8984Z" fill="#2f2f2f"/>
      </g>
    </g>
  </g>
</svg>