<?xml version="1.0" encoding="UTF-8"?>
<svg xmlns="http://www.w3.org/2000/svg" width="629.2" height="171.6" xmlns:xlink="http://www.w3.org/1999/xlink" viewBox="0 0 629.2 171.6">
  <defs>
    <linearGradient id="Cool_gray_gradient_1" data-name="Cool gray gradient 1" x1="8.8" y1="83.9722" x2="206.8" y2="83.9722" gradientUnits="userSpaceOnUse">
      <stop offset="0" stop-color="#f5f5f4"/>
      <stop offset="1" stop-color="#ececea"/>
    </linearGradient>
    <linearGradient id="Cool_gray_gradient_1-2" data-name="Cool gray gradient 1" x1="215.6" x2="413.6" xlink:href="#Cool_gray_gradient_1"/>
    <linearGradient id="Cool_gray_gradient_1-3" data-name="Cool gray gradient 1" x1="421.6237" x2="619.6237" xlink:href="#Cool_gray_gradient_1"/>
  </defs>
  <g isolation="isolate">
    <g id="Shapes">
      <rect width="629.2" height="171.6" fill="#fff"/>
      <g>
        <g mix-blend-mode="multiply" opacity=".65">
          <rect x="9.8" y="10.1722" width="198" height="149.6" rx="8" ry="8" fill="#2b436f"/>
          <rect x="9.8" y="10.1722" width="198" height="149.6" rx="8" ry="8" fill="#2b436f" opacity=".4"/>
        </g>
        <g>
          <rect x="8.8" y="9.1722" width="198" height="149.6" rx="8" ry="8" fill="url(#Cool_gray_gradient_1)"/>
          <rect x="8.8" y="9.1722" width="198" height="149.6" rx="8" ry="8" fill="#8ec8e7" opacity=".4"/>
        </g>
      </g>
      <g>
        <g mix-blend-mode="multiply" opacity=".65">
          <rect x="216.6" y="10.1722" width="198" height="149.6" rx="8" ry="8" fill="#2b436f"/>
          <rect x="216.6" y="10.1722" width="198" height="149.6" rx="8" ry="8" fill="#2b436f" opacity=".4"/>
        </g>
        <g>
          <rect x="215.6" y="9.1722" width="198" height="149.6" rx="8" ry="8" fill="url(#Cool_gray_gradient_1-2)"/>
          <rect x="215.6" y="9.1722" width="198" height="149.6" rx="8" ry="8" fill="#8ec8e7" opacity=".4"/>
        </g>
      </g>
      <g>
        <g mix-blend-mode="multiply" opacity=".65">
          <rect x="422.6237" y="10.1722" width="198" height="149.6" rx="8" ry="8" fill="#2b436f"/>
          <rect x="422.6237" y="10.1722" width="198" height="149.6" rx="8" ry="8" fill="#2b436f" opacity=".4"/>
        </g>
        <g>
          <rect x="421.6237" y="9.1722" width="198" height="149.6" rx="8" ry="8" fill="url(#Cool_gray_gradient_1-3)"/>
          <rect x="421.6237" y="9.1722" width="198" height="149.6" rx="8" ry="8" fill="#8ec8e7" opacity=".4"/>
        </g>
      </g>
      <g>
        <rect x="470.4975" y="57.5722" width="101.5025" height="78.2668" fill="#fff"/>
        <rect x="470.4975" y="57.5722" width="101.5025" height="78.2668" fill="#50e6ff" opacity=".03"/>
        <rect x="470.4975" y="57.5722" width="101.5025" height="78.2668" fill="none" stroke="#0a6bba" stroke-width=".25"/>
      </g>
      <g>
        <polygon points="531.8311 81.099 531.8311 94.0607 520.6314 100.5722 520.6314 87.5952 531.8311 81.099" fill="#32bedd"/>
        <polygon points="531.8311 81.099 520.6314 87.6105 509.4163 81.0837 520.6314 74.5722 531.8311 81.099" fill="#9cebff"/>
        <polygon points="520.6314 87.6105 520.6314 100.5722 509.4163 94.0607 509.4163 81.0837 520.6314 87.6105" fill="#50e6ff"/>
        <polygon points="509.4163 94.0607 520.6314 87.5952 520.6314 100.5722 509.4163 94.0607" fill="#9cebff"/>
        <polygon points="531.8311 94.0607 520.6314 87.5952 520.6314 100.5722 531.8311 94.0607" fill="#50e6ff"/>
      </g>
      <g>
        <rect x="263.8488" y="53.1722" width="101.5025" height="78.2668" fill="#fff"/>
        <rect x="263.8488" y="53.1722" width="101.5025" height="78.2668" fill="#50e6ff" opacity=".03"/>
        <rect x="263.8488" y="53.1722" width="101.5025" height="78.2668" fill="none" stroke="#0a6bba" stroke-width=".25"/>
      </g>
      <g>
        <polygon points="327.3824 81.099 327.3824 94.0607 316.1826 100.5722 316.1826 87.5952 327.3824 81.099" fill="#32bedd"/>
        <polygon points="327.3824 81.099 316.1826 87.6105 304.9675 81.0837 316.1826 74.5722 327.3824 81.099" fill="#9cebff"/>
        <polygon points="316.1826 87.6105 316.1826 100.5722 304.9675 94.0607 304.9675 81.0837 316.1826 87.6105" fill="#50e6ff"/>
        <polygon points="304.9675 94.0607 316.1826 87.5952 316.1826 100.5722 304.9675 94.0607" fill="#9cebff"/>
        <polygon points="327.3824 94.0607 316.1826 87.5952 316.1826 100.5722 327.3824 94.0607" fill="#50e6ff"/>
      </g>
      <g>
        <rect x="57.0488" y="57.5722" width="101.5025" height="78.2668" fill="#fff"/>
        <rect x="57.0488" y="57.5722" width="101.5025" height="78.2668" fill="#50e6ff" opacity=".03"/>
        <rect x="57.0488" y="57.5722" width="101.5025" height="78.2668" fill="none" stroke="#0a6bba" stroke-width=".25"/>
      </g>
      <g>
        <polygon points="119.0074 81.099 119.0074 94.0607 107.8077 100.5722 107.8077 87.5952 119.0074 81.099" fill="#32bedd"/>
        <polygon points="119.0074 81.099 107.8077 87.6105 96.5926 81.0837 107.8077 74.5722 119.0074 81.099" fill="#9cebff"/>
        <polygon points="107.8077 87.6105 107.8077 100.5722 96.5926 94.0607 96.5926 81.0837 107.8077 87.6105" fill="#50e6ff"/>
        <polygon points="96.5926 94.0607 107.8077 87.5952 107.8077 100.5722 96.5926 94.0607" fill="#9cebff"/>
        <polygon points="119.0074 94.0607 107.8077 87.5952 107.8077 100.5722 119.0074 94.0607" fill="#50e6ff"/>
      </g>
    </g>
    <g id="Text">
      <g>
        <path d="M501.0543,118.1725h-1.3672l-1.6406-2.748c-.1504-.2554-.2959-.4727-.4375-.6528-.1406-.1802-.2861-.3271-.4336-.4409-.1484-.1138-.3076-.1973-.4785-.2495s-.3633-.0786-.5781-.0786h-.9434v4.1699h-1.1484v-9.8027h2.9258c.4287,0,.8242.0537,1.1865.1606s.6768.27.9434.4888.4746.4912.625.8169.2256.7075.2256,1.145c0,.3418-.0508.6553-.1533.9399s-.249.5391-.4375.7622c-.1895.2231-.417.4136-.6836.5708s-.5664.2793-.8994.3657v.0273c.1641.0728.3066.1562.4277.2495.1201.0933.2354.2041.3447.3315s.2178.2725.3252.4341c.1064.1616.2266.3496.3584.564l1.8389,2.9463ZM495.1754,109.4088v3.5547h1.5586c.2871,0,.5527-.0435.7969-.1299.2432-.0864.4541-.2109.6318-.3726s.3174-.3599.417-.5947c.1006-.2349.1504-.498.1504-.7896,0-.5239-.1699-.9331-.5088-1.2271-.3398-.2939-.8311-.4409-1.4736-.4409h-1.5723Z" fill="#2f2f2f"/>
        <path d="M507.6666,114.9527h-4.9424c.0186.7793.2285,1.3809.6289,1.8047.4014.4238.9531.6357,1.6543.6357.7891,0,1.5137-.2598,2.1738-.7793v1.0527c-.6152.4468-1.4287.6699-2.4404.6699-.9883,0-1.7656-.3179-2.3311-.9536-.5645-.6357-.8477-1.5303-.8477-2.6831,0-1.0894.3086-1.9766.9268-2.6626.6172-.686,1.3838-1.0288,2.2998-1.0288s1.625.2964,2.126.8887c.502.5923.752,1.415.752,2.4678v.5879ZM506.5182,114.0025c-.0039-.647-.1602-1.1509-.4678-1.5107s-.7354-.54-1.2822-.54c-.5283,0-.9775.189-1.3467.5674s-.5967.8726-.6836,1.4834h3.7803Z" fill="#2f2f2f"/>
        <path d="M508.9088,117.9195v-1.2031c.6113.4512,1.2832.6768,2.0166.6768.9844,0,1.4766-.3281,1.4766-.9844,0-.187-.042-.3452-.126-.4751-.085-.1299-.1982-.2451-.3418-.3452s-.3125-.1904-.5059-.27c-.1943-.0796-.4023-.1631-.626-.2495-.3096-.123-.582-.2471-.8164-.3726-.2354-.1255-.4307-.2666-.5879-.4238s-.2764-.3359-.3555-.5366c-.0801-.2007-.1201-.4351-.1201-.7041,0-.3281.0752-.6187.2256-.8716s.3516-.4648.6016-.6357c.251-.1709.5371-.2998.8584-.3862s.6523-.1299.9941-.1299c.6064,0,1.1484.105,1.627.3145v1.1348c-.5146-.3374-1.1074-.5059-1.7773-.5059-.209,0-.3984.0239-.5674.0718-.168.0479-.3135.1152-.4336.2017-.1211.0864-.2148.1904-.2803.311-.0664.1206-.0996.2539-.0996.3999,0,.1821.0332.335.0996.458.0654.123.1631.2324.29.3281.1279.0957.2832.1821.4648.2598.1826.0776.3896.1616.6221.2529.3105.1187.5879.2402.834.3657s.4561.2666.6289.4238c.1738.1572.3066.3384.4004.5435.0928.2051.1396.4487.1396.7314,0,.3462-.0762.647-.2285.9023-.1533.2554-.3564.4673-.6123.6357-.2549.1685-.5488.2939-.8818.376-.332.082-.6807.123-1.0459.123-.7197,0-1.3438-.1392-1.873-.417Z" fill="#2f2f2f"/>
        <path d="M518.1637,118.3365c-1.0342,0-1.8604-.3271-2.4775-.981-.6182-.6538-.9268-1.521-.9268-2.6011,0-1.1758.3213-2.0942.9639-2.7549s1.5107-.9912,2.6045-.9912c1.0439,0,1.8584.3213,2.4443.9639.585.6426.8779,1.5337.8779,2.6729,0,1.1167-.3154,2.0107-.9463,2.6831-.6318.6724-1.4775,1.0083-2.54,1.0083ZM518.2457,111.9518c-.7197,0-1.2891.2451-1.709.7349-.4189.4897-.6289,1.1655-.6289,2.0269,0,.8296.2119,1.4834.6357,1.9619s.9912.7178,1.7021.7178c.7246,0,1.2822-.2349,1.6719-.7041s.584-1.1372.584-2.0029c0-.875-.1943-1.5493-.584-2.0234s-.9473-.7109-1.6719-.7109Z" fill="#2f2f2f"/>
        <path d="M529.0592,118.1725h-1.1211v-1.1074h-.0273c-.4648.8477-1.1846,1.2715-2.1602,1.2715-1.668,0-2.502-.9937-2.502-2.9805v-4.1836h1.1143v4.0059c0,1.4766.5654,2.2148,1.6953,2.2148.5469,0,.9971-.2017,1.3506-.605.3525-.4033.5293-.9307.5293-1.5825v-4.0332h1.1211v7Z" fill="#2f2f2f"/>
        <path d="M534.817,112.3072c-.1953-.1504-.4785-.2256-.8477-.2256-.4785,0-.8779.2256-1.1992.6768s-.4824,1.0664-.4824,1.8457v3.5684h-1.1211v-7h1.1211v1.4424h.0273c.1602-.4922.4033-.876.7314-1.1519s.6953-.4136,1.1006-.4136c.292,0,.5156.0317.6699.0957v1.1621Z" fill="#2f2f2f"/>
        <path d="M540.775,117.8512c-.5381.3237-1.1758.4854-1.9141.4854-.998,0-1.8037-.3247-2.417-.9741-.6123-.6494-.9189-1.4912-.9189-2.5259,0-1.1528.3301-2.0791.9912-2.7788.6602-.6997,1.542-1.0493,2.6455-1.0493.6152,0,1.1572.1138,1.627.3418v1.1484c-.5195-.3647-1.0762-.5469-1.668-.5469-.7158,0-1.3027.2563-1.7607.769s-.6865,1.186-.6865,2.02c0,.8203.2148,1.4673.6455,1.9414s1.0088.7109,1.7334.7109c.6104,0,1.1846-.2026,1.7227-.6084v1.0664Z" fill="#2f2f2f"/>
        <path d="M547.9449,114.9527h-4.9424c.0176.7793.2275,1.3809.6289,1.8047.4004.4238.9521.6357,1.6543.6357.7881,0,1.5127-.2598,2.1738-.7793v1.0527c-.6152.4468-1.4287.6699-2.4404.6699-.9893,0-1.7666-.3179-2.3311-.9536-.5654-.6357-.8477-1.5303-.8477-2.6831,0-1.0894.3086-1.9766.9258-2.6626.6182-.686,1.3848-1.0288,2.3008-1.0288s1.624.2964,2.126.8887c.501.5923.752,1.415.752,2.4678v.5879ZM546.7965,114.0025c-.0049-.647-.1611-1.1509-.4688-1.5107s-.7344-.54-1.2812-.54c-.5293,0-.9775.189-1.3467.5674s-.5977.8726-.6836,1.4834h3.7803Z" fill="#2f2f2f"/>
      </g>
      <g>
        <path d="M295.0309,118.1725h-1.3672l-1.6406-2.748c-.1504-.2554-.2964-.4727-.4375-.6528s-.2861-.3271-.4341-.4409-.3076-.1973-.4785-.2495-.3633-.0786-.5776-.0786h-.9434v4.1699h-1.1484v-9.8027h2.9258c.4282,0,.8237.0537,1.186.1606s.6768.27.9434.4888.4751.4912.6255.8169.2256.7075.2256,1.145c0,.3418-.0513.6553-.1538.9399s-.2485.5391-.4375.7622-.417.4136-.6836.5708-.5664.2793-.8989.3657v.0273c.1641.0728.3066.1562.4272.2495s.2358.2041.3452.3315.2178.2725.3247.4341.2266.3496.3589.564l1.8389,2.9463ZM289.152,109.4088v3.5547h1.5586c.2871,0,.5527-.0435.7964-.1299s.4546-.2109.6323-.3726.3169-.3599.417-.5947.1504-.498.1504-.7896c0-.5239-.1699-.9331-.5093-1.2271s-.8306-.4409-1.4731-.4409h-1.5723Z" fill="#2f2f2f"/>
        <path d="M301.6432,114.9527h-4.9424c.0181.7793.228,1.3809.6289,1.8047s.9526.6357,1.6543.6357c.7886,0,1.5132-.2598,2.1738-.7793v1.0527c-.6152.4468-1.4287.6699-2.4404.6699-.9888,0-1.7661-.3179-2.3311-.9536s-.8477-1.5303-.8477-2.6831c0-1.0894.3086-1.9766.9263-2.6626s1.3843-1.0288,2.3003-1.0288,1.6245.2964,2.126.8887.752,1.415.752,2.4678v.5879ZM300.4947,114.0025c-.0044-.647-.1606-1.1509-.4683-1.5107s-.7349-.54-1.2817-.54c-.5288,0-.9775.189-1.3467.5674s-.5972.8726-.6836,1.4834h3.7803Z" fill="#2f2f2f"/>
        <path d="M302.8854,117.9195v-1.2031c.6108.4512,1.2827.6768,2.0166.6768.9844,0,1.4766-.3281,1.4766-.9844,0-.187-.042-.3452-.1265-.4751s-.1982-.2451-.3418-.3452-.312-.1904-.5059-.27-.4023-.1631-.6255-.2495c-.3101-.123-.582-.2471-.8169-.3726s-.4307-.2666-.5879-.4238-.2759-.3359-.3555-.5366-.1196-.4351-.1196-.7041c0-.3281.0752-.6187.2256-.8716s.3511-.4648.6016-.6357.5366-.2998.8579-.3862.6528-.1299.9946-.1299c.606,0,1.1484.105,1.627.3145v1.1348c-.5151-.3374-1.1074-.5059-1.7773-.5059-.2095,0-.3989.0239-.5674.0718s-.3135.1152-.4341.2017-.2144.1904-.2803.311-.0991.2539-.0991.3999c0,.1821.0332.335.0991.458s.1631.2324.2905.3281.2827.1821.4648.2598.3896.1616.6221.2529c.3101.1187.5879.2402.834.3657s.4556.2666.6289.4238.3066.3384.3999.5435.1401.4487.1401.7314c0,.3462-.0762.647-.229.9023s-.3564.4673-.6118.6357-.5493.2939-.8818.376-.6812.123-1.0459.123c-.7202,0-1.3442-.1392-1.873-.417Z" fill="#2f2f2f"/>
        <path d="M312.1402,118.3365c-1.0347,0-1.8604-.3271-2.478-.981s-.9263-1.521-.9263-2.6011c0-1.1758.3213-2.0942.9639-2.7549s1.5107-.9912,2.6045-.9912c1.0435,0,1.8584.3213,2.4438.9639s.8784,1.5337.8784,2.6729c0,1.1167-.3154,2.0107-.9468,2.6831s-1.4775,1.0083-2.5396,1.0083ZM312.2223,111.9518c-.7202,0-1.2896.2451-1.709.7349s-.6289,1.1655-.6289,2.0269c0,.8296.2119,1.4834.6357,1.9619s.9912.7178,1.7021.7178c.7246,0,1.2817-.2349,1.6714-.7041s.5845-1.1372.5845-2.0029c0-.875-.1948-1.5493-.5845-2.0234s-.9468-.7109-1.6714-.7109Z" fill="#2f2f2f"/>
        <path d="M323.0357,118.1725h-1.1211v-1.1074h-.0273c-.4648.8477-1.1851,1.2715-2.1602,1.2715-1.668,0-2.502-.9937-2.502-2.9805v-4.1836h1.1143v4.0059c0,1.4766.5649,2.2148,1.6953,2.2148.5469,0,.9971-.2017,1.3501-.605s.5298-.9307.5298-1.5825v-4.0332h1.1211v7Z" fill="#2f2f2f"/>
        <path d="M328.7936,112.3072c-.1958-.1504-.4785-.2256-.8477-.2256-.4785,0-.8784.2256-1.1997.6768s-.4819,1.0664-.4819,1.8457v3.5684h-1.1211v-7h1.1211v1.4424h.0273c.1597-.4922.4033-.876.7314-1.1519s.6948-.4136,1.1006-.4136c.2915,0,.5151.0317.6699.0957v1.1621Z" fill="#2f2f2f"/>
        <path d="M334.7511,117.8512c-.5376.3237-1.1758.4854-1.9141.4854-.998,0-1.8037-.3247-2.4165-.9741s-.9194-1.4912-.9194-2.5259c0-1.1528.3306-2.0791.9912-2.7788s1.5425-1.0493,2.6455-1.0493c.6152,0,1.1577.1138,1.627.3418v1.1484c-.5195-.3647-1.0757-.5469-1.668-.5469-.7153,0-1.3022.2563-1.7603.769s-.687,1.186-.687,2.02c0,.8203.2153,1.4673.646,1.9414s1.0083.7109,1.7329.7109c.6108,0,1.1851-.2026,1.7227-.6084v1.0664Z" fill="#2f2f2f"/>
        <path d="M341.921,114.9527h-4.9424c.0181.7793.228,1.3809.6289,1.8047s.9526.6357,1.6543.6357c.7886,0,1.5132-.2598,2.1738-.7793v1.0527c-.6152.4468-1.4287.6699-2.4404.6699-.9888,0-1.7661-.3179-2.3311-.9536s-.8477-1.5303-.8477-2.6831c0-1.0894.3086-1.9766.9263-2.6626s1.3843-1.0288,2.3003-1.0288,1.6245.2964,2.126.8887.752,1.415.752,2.4678v.5879ZM340.7726,114.0025c-.0044-.647-.1606-1.1509-.4683-1.5107s-.7349-.54-1.2817-.54c-.5288,0-.9775.189-1.3467.5674s-.5972.8726-.6836,1.4834h3.7803Z" fill="#2f2f2f"/>
      </g>
      <g>
        <path d="M88.2311,118.1725h-1.3672l-1.6406-2.748c-.1504-.2554-.2964-.4727-.4375-.6528s-.2861-.3271-.4341-.4409-.3076-.1973-.4785-.2495-.3633-.0786-.5776-.0786h-.9434v4.1699h-1.1484v-9.8027h2.9258c.4282,0,.8237.0537,1.186.1606s.6768.27.9434.4888.4751.4912.6255.8169.2256.7075.2256,1.145c0,.3418-.0513.6553-.1538.9399s-.2485.5391-.4375.7622-.417.4136-.6836.5708-.5664.2793-.8989.3657v.0273c.1641.0728.3066.1562.4272.2495s.2358.2041.3452.3315.2178.2725.3247.4341.2266.3496.3589.564l1.8389,2.9463ZM82.3521,109.4088v3.5547h1.5586c.2871,0,.5527-.0435.7964-.1299s.4546-.2109.6323-.3726.3169-.3599.417-.5947.1504-.498.1504-.7896c0-.5239-.1699-.9331-.5093-1.2271s-.8306-.4409-1.4731-.4409h-1.5723Z" fill="#2f2f2f"/>
        <path d="M94.8434,114.9527h-4.9424c.0181.7793.228,1.3809.6289,1.8047s.9526.6357,1.6543.6357c.7886,0,1.5132-.2598,2.1738-.7793v1.0527c-.6152.4468-1.4287.6699-2.4404.6699-.9888,0-1.7661-.3179-2.3311-.9536s-.8477-1.5303-.8477-2.6831c0-1.0894.3086-1.9766.9263-2.6626s1.3843-1.0288,2.3003-1.0288,1.6245.2964,2.126.8887.752,1.415.752,2.4678v.5879ZM93.6949,114.0025c-.0044-.647-.1606-1.1509-.4683-1.5107s-.7349-.54-1.2817-.54c-.5288,0-.9775.189-1.3467.5674s-.5972.8726-.6836,1.4834h3.7803Z" fill="#2f2f2f"/>
        <path d="M96.0855,117.9195v-1.2031c.6108.4512,1.2827.6768,2.0166.6768.9844,0,1.4766-.3281,1.4766-.9844,0-.187-.042-.3452-.1265-.4751s-.1982-.2451-.3418-.3452-.312-.1904-.5059-.27-.4023-.1631-.6255-.2495c-.3101-.123-.582-.2471-.8169-.3726s-.4307-.2666-.5879-.4238-.2759-.3359-.3555-.5366-.1196-.4351-.1196-.7041c0-.3281.0752-.6187.2256-.8716s.3511-.4648.6016-.6357.5366-.2998.8579-.3862.6528-.1299.9946-.1299c.606,0,1.1484.105,1.627.3145v1.1348c-.5151-.3374-1.1074-.5059-1.7773-.5059-.2095,0-.3989.0239-.5674.0718s-.3135.1152-.4341.2017-.2144.1904-.2803.311-.0991.2539-.0991.3999c0,.1821.0332.335.0991.458s.1631.2324.2905.3281.2827.1821.4648.2598.3896.1616.6221.2529c.3101.1187.5879.2402.834.3657s.4556.2666.6289.4238.3066.3384.3999.5435.1401.4487.1401.7314c0,.3462-.0762.647-.229.9023s-.3564.4673-.6118.6357-.5493.2939-.8818.376-.6812.123-1.0459.123c-.7202,0-1.3442-.1392-1.873-.417Z" fill="#2f2f2f"/>
        <path d="M105.3404,118.3365c-1.0347,0-1.8604-.3271-2.478-.981s-.9263-1.521-.9263-2.6011c0-1.1758.3213-2.0942.9639-2.7549s1.5107-.9912,2.6045-.9912c1.0435,0,1.8584.3213,2.4438.9639s.8784,1.5337.8784,2.6729c0,1.1167-.3154,2.0107-.9468,2.6831s-1.4775,1.0083-2.5396,1.0083ZM105.4225,111.9518c-.7202,0-1.2896.2451-1.709.7349s-.6289,1.1655-.6289,2.0269c0,.8296.2119,1.4834.6357,1.9619s.9912.7178,1.7021.7178c.7246,0,1.2817-.2349,1.6714-.7041s.5845-1.1372.5845-2.0029c0-.875-.1948-1.5493-.5845-2.0234s-.9468-.7109-1.6714-.7109Z" fill="#2f2f2f"/>
        <path d="M116.2359,118.1725h-1.1211v-1.1074h-.0273c-.4648.8477-1.1851,1.2715-2.1602,1.2715-1.668,0-2.502-.9937-2.502-2.9805v-4.1836h1.1143v4.0059c0,1.4766.5649,2.2148,1.6953,2.2148.5469,0,.9971-.2017,1.3501-.605s.5298-.9307.5298-1.5825v-4.0332h1.1211v7Z" fill="#2f2f2f"/>
        <path d="M121.9937,112.3072c-.1958-.1504-.4785-.2256-.8477-.2256-.4785,0-.8784.2256-1.1997.6768s-.4819,1.0664-.4819,1.8457v3.5684h-1.1211v-7h1.1211v1.4424h.0273c.1597-.4922.4033-.876.7314-1.1519s.6948-.4136,1.1006-.4136c.2915,0,.5151.0317.6699.0957v1.1621Z" fill="#2f2f2f"/>
        <path d="M127.9513,117.8512c-.5376.3237-1.1758.4854-1.9141.4854-.998,0-1.8037-.3247-2.4165-.9741s-.9194-1.4912-.9194-2.5259c0-1.1528.3306-2.0791.9912-2.7788s1.5425-1.0493,2.6455-1.0493c.6152,0,1.1577.1138,1.627.3418v1.1484c-.5195-.3647-1.0757-.5469-1.668-.5469-.7153,0-1.3022.2563-1.7603.769s-.687,1.186-.687,2.02c0,.8203.2153,1.4673.646,1.9414s1.0083.7109,1.7329.7109c.6108,0,1.1851-.2026,1.7227-.6084v1.0664Z" fill="#2f2f2f"/>
        <path d="M135.1212,114.9527h-4.9424c.0181.7793.228,1.3809.6289,1.8047s.9526.6357,1.6543.6357c.7886,0,1.5132-.2598,2.1738-.7793v1.0527c-.6152.4468-1.4287.6699-2.4404.6699-.9888,0-1.7661-.3179-2.3311-.9536s-.8477-1.5303-.8477-2.6831c0-1.0894.3086-1.9766.9263-2.6626s1.3843-1.0288,2.3003-1.0288,1.6245.2964,2.126.8887.752,1.415.752,2.4678v.5879ZM133.9728,114.0025c-.0044-.647-.1606-1.1509-.4683-1.5107s-.7349-.54-1.2817-.54c-.5288,0-.9775.189-1.3467.5674s-.5972.8726-.6836,1.4834h3.7803Z" fill="#2f2f2f"/>
      </g>
      <g>
        <path d="M56.2618,35.5719h-2.4062l-.6973-2.1807h-3.4863l-.6904,2.1807h-2.3926l3.5684-9.8027h2.6182l3.4863,9.8027ZM52.6524,31.6959l-1.0527-3.2949c-.0771-.2461-.1318-.54-.1641-.8818h-.0547c-.0225.2871-.0801.5718-.1709.8545l-1.0664,3.3223h2.5088Z" fill="#2f2f2f"/>
        <path d="M63.6261,28.5719l-2.6045,7h-2.4609l-2.4814-7h2.3105l1.2168,4.3135c.1367.4878.2168.9023.2393,1.2441h.0273c.0322-.3237.1162-.7246.2529-1.2031l1.2441-4.3545h2.2559Z" fill="#2f2f2f"/>
        <path d="M70.2823,35.5719h-2.0439v-1.0049h-.0273c-.4697.7837-1.1641,1.1758-2.085,1.1758-.6787,0-1.2139-.1924-1.6025-.5776-.3906-.3853-.585-.8989-.585-1.5415,0-1.3579.8047-2.1421,2.4131-2.3516l1.9004-.2529c0-.7656-.415-1.1484-1.2441-1.1484-.834,0-1.627.2485-2.3789.7451v-1.627c.3008-.1548.7119-.2915,1.2344-.4102.5215-.1187.9961-.1777,1.4248-.1777,1.9961,0,2.9941.9956,2.9941,2.9873v4.1836ZM68.2521,32.7281v-.4717l-1.2715.1641c-.7021.0913-1.0527.4077-1.0527.9502,0,.2461.0859.4478.2559.605.1719.1572.4023.2358.6943.2358.4053,0,.7363-.1401.9912-.4204s.3828-.6348.3828-1.063Z" fill="#2f2f2f"/>
        <path d="M73.0528,27.4645c-.3643,0-.6631-.1084-.8955-.3247s-.3486-.4819-.3486-.7964c0-.3237.1162-.5879.3486-.793s.5312-.3076.8955-.3076c.3691,0,.6689.1025.8994.3076.2295.2051.3447.4692.3447.793,0,.3281-.1152.5972-.3447.8066-.2305.2095-.5303.3145-.8994.3145ZM74.1192,35.5719h-2.1602v-7h2.1602v7Z" fill="#2f2f2f"/>
        <path d="M78.0548,35.5719h-2.1602v-10.3633h2.1602v10.3633Z" fill="#2f2f2f"/>
        <path d="M85.7198,35.5719h-2.0439v-1.0049h-.0273c-.4697.7837-1.1641,1.1758-2.085,1.1758-.6787,0-1.2139-.1924-1.6025-.5776-.3906-.3853-.585-.8989-.585-1.5415,0-1.3579.8047-2.1421,2.4131-2.3516l1.9004-.2529c0-.7656-.415-1.1484-1.2441-1.1484-.834,0-1.627.2485-2.3789.7451v-1.627c.3008-.1548.7119-.2915,1.2344-.4102.5215-.1187.9961-.1777,1.4248-.1777,1.9961,0,2.9941.9956,2.9941,2.9873v4.1836ZM83.6896,32.7281v-.4717l-1.2715.1641c-.7021.0913-1.0527.4077-1.0527.9502,0,.2461.0859.4478.2559.605.1719.1572.4023.2358.6943.2358.4053,0,.7363-.1401.9912-.4204s.3828-.6348.3828-1.063Z" fill="#2f2f2f"/>
        <path d="M89.6036,34.7584h-.0273v.8135h-2.1602v-10.3633h2.1602v4.416h.0273c.5332-.8159,1.292-1.2236,2.2764-1.2236.9023,0,1.5977.3101,2.085.9297s.7314,1.4673.7314,2.543c0,1.1665-.2852,2.103-.8545,2.8096s-1.3311,1.0596-2.2832,1.0596c-.8613,0-1.5127-.3281-1.9551-.9844ZM89.5421,31.8053v.7178c0,.4512.1299.8247.3896,1.1211s.5928.4443.998.4443c.4922,0,.874-.1904,1.1455-.5708.2705-.3804.4062-.9194.4062-1.6167,0-.5786-.124-1.0312-.373-1.3569-.248-.3257-.6025-.4888-1.0625-.4888-.4326,0-.792.1616-1.0762.4854-.2852.3237-.4277.7451-.4277,1.2646Z" fill="#2f2f2f"/>
        <path d="M97.1915,27.4645c-.3643,0-.6631-.1084-.8955-.3247s-.3486-.4819-.3486-.7964c0-.3237.1162-.5879.3486-.793s.5312-.3076.8955-.3076c.3691,0,.6689.1025.8994.3076.2295.2051.3447.4692.3447.793,0,.3281-.1152.5972-.3447.8066-.2305.2095-.5303.3145-.8994.3145ZM98.2579,35.5719h-2.1602v-7h2.1602v7Z" fill="#2f2f2f"/>
        <path d="M102.1925,35.5719h-2.1602v-10.3633h2.1602v10.3633Z" fill="#2f2f2f"/>
        <path d="M105.0616,27.4645c-.3643,0-.6631-.1084-.8955-.3247s-.3486-.4819-.3486-.7964c0-.3237.1162-.5879.3486-.793s.5312-.3076.8955-.3076c.3691,0,.6689.1025.8994.3076.2295.2051.3447.4692.3447.793,0,.3281-.1152.5972-.3447.8066-.2305.2095-.5303.3145-.8994.3145ZM106.128,35.5719h-2.1602v-7h2.1602v7Z" fill="#2f2f2f"/>
        <path d="M112.0646,35.4898c-.3193.1685-.7998.2529-1.4424.2529-1.5225,0-2.2832-.7905-2.2832-2.3721v-3.2061h-1.1348v-1.5928h1.1348v-1.5107l2.1533-.6152v2.126h1.5723v1.5928h-1.5723v2.8301c0,.729.2891,1.0938.8682,1.0938.2275,0,.4629-.0659.7041-.1982v1.5996Z" fill="#2f2f2f"/>
        <path d="M120.2892,28.5719l-2.8438,7.5605c-.6836,1.8184-1.7139,2.7275-3.0898,2.7275-.5244,0-.9551-.0591-1.292-.1777v-1.7227c.2871.1685.5996.2529.9365.2529.5557,0,.9434-.2622,1.1621-.7861l.3691-.8682-2.8438-6.9863h2.3926l1.3057,4.2588c.082.2642.1455.5767.1914.9365h.0273c.041-.2642.1162-.5718.2256-.9229l1.3193-4.2725h2.1396Z" fill="#2f2f2f"/>
        <path d="M132.2862,35.5719h-7.8955v-1.2715l5.0244-6.7334h-4.6621v-1.7979h7.5195v1.2373l-4.915,6.7744h4.9287v1.791Z" fill="#2f2f2f"/>
        <path d="M136.8048,35.7428c-1.167,0-2.084-.3271-2.751-.981-.668-.6538-1.002-1.5415-1.002-2.6626,0-1.1577.3467-2.0635,1.0391-2.7173s1.6289-.981,2.8096-.981c1.1621,0,2.0732.3271,2.7344.981s.9912,1.5186.9912,2.5942c0,1.1621-.3408,2.0806-1.0215,2.7549-.6816.6743-1.6152,1.0117-2.7998,1.0117ZM136.8595,30.0553c-.5107,0-.9072.1753-1.1895.5264s-.4238.8477-.4238,1.4902c0,1.3442.542,2.0166,1.627,2.0166,1.0342,0,1.5518-.6904,1.5518-2.0713,0-1.3081-.5215-1.9619-1.5654-1.9619Z" fill="#2f2f2f"/>
        <path d="M148.7677,35.5719h-2.1533v-3.8896c0-1.0845-.3877-1.627-1.1621-1.627-.374,0-.6816.1436-.9229.4307s-.3623.6519-.3623,1.0938v3.9922h-2.1602v-7h2.1602v1.1074h.0273c.5146-.8521,1.2646-1.2783,2.249-1.2783,1.5498,0,2.3242.9614,2.3242,2.8848v4.2861Z" fill="#2f2f2f"/>
        <path d="M156.7892,32.6871h-4.5664c.0732,1.0161.7129,1.5244,1.9209,1.5244.7705,0,1.4473-.1821,2.0303-.5469v1.5586c-.6475.3462-1.4883.5195-2.5225.5195-1.1299,0-2.0078-.3135-2.6318-.9399s-.9365-1.5005-.9365-2.6216c0-1.1621.3369-2.0825,1.0117-2.7617s1.5039-1.0186,2.4883-1.0186c1.0205,0,1.8105.3032,2.3691.9092.5576.606.8369,1.4287.8369,2.4678v.9092ZM154.7862,31.3609c0-1.0024-.4053-1.5039-1.2168-1.5039-.3467,0-.6465.1436-.8984.4307-.2539.2871-.4072.645-.4619,1.0732h2.5771Z" fill="#2f2f2f"/>
        <path d="M166.7149,25.5504v10.0215h-2.1533v-7.5879c-.1182.105-.2588.2041-.4209.2974-.1611.0933-.333.1777-.5156.2529s-.3711.1392-.5674.1914-.3896.0898-.5811.1128v-1.8184c.5605-.1641,1.0889-.3735,1.5859-.6289s.9453-.5356,1.3467-.8408h1.3057Z" fill="#2f2f2f"/>
      </g>
      <g>
        <path d="M263.0616,35.5719h-2.4062l-.6973-2.1807h-3.4863l-.6904,2.1807h-2.3926l3.5684-9.8027h2.6182l3.4863,9.8027ZM259.4522,31.6959l-1.0527-3.2949c-.0771-.2461-.1318-.54-.1641-.8818h-.0547c-.0225.2871-.0801.5718-.1709.8545l-1.0664,3.3223h2.5088Z" fill="#2f2f2f"/>
        <path d="M270.4259,28.5719l-2.6045,7h-2.4609l-2.4814-7h2.3105l1.2168,4.3135c.1367.4878.2168.9023.2393,1.2441h.0273c.0322-.3237.1162-.7246.2529-1.2031l1.2441-4.3545h2.2559Z" fill="#2f2f2f"/>
        <path d="M277.0821,35.5719h-2.0439v-1.0049h-.0273c-.4697.7837-1.1641,1.1758-2.085,1.1758-.6787,0-1.2139-.1924-1.6025-.5776-.3906-.3853-.585-.8989-.585-1.5415,0-1.3579.8047-2.1421,2.4131-2.3516l1.9004-.2529c0-.7656-.415-1.1484-1.2441-1.1484-.834,0-1.627.2485-2.3789.7451v-1.627c.3008-.1548.7119-.2915,1.2344-.4102.5215-.1187.9961-.1777,1.4248-.1777,1.9961,0,2.9941.9956,2.9941,2.9873v4.1836ZM275.0519,32.7281v-.4717l-1.2715.1641c-.7021.0913-1.0527.4077-1.0527.9502,0,.2461.0859.4478.2559.605.1719.1572.4023.2358.6943.2358.4053,0,.7363-.1401.9912-.4204s.3828-.6348.3828-1.063Z" fill="#2f2f2f"/>
        <path d="M279.8526,27.4645c-.3643,0-.6631-.1084-.8955-.3247s-.3486-.4819-.3486-.7964c0-.3237.1162-.5879.3486-.793s.5312-.3076.8955-.3076c.3691,0,.6689.1025.8994.3076.2295.2051.3447.4692.3447.793,0,.3281-.1152.5972-.3447.8066-.2305.2095-.5303.3145-.8994.3145ZM280.919,35.5719h-2.1602v-7h2.1602v7Z" fill="#2f2f2f"/>
        <path d="M284.8546,35.5719h-2.1602v-10.3633h2.1602v10.3633Z" fill="#2f2f2f"/>
        <path d="M292.5196,35.5719h-2.0439v-1.0049h-.0273c-.4697.7837-1.1641,1.1758-2.085,1.1758-.6787,0-1.2139-.1924-1.6025-.5776-.3906-.3853-.585-.8989-.585-1.5415,0-1.3579.8047-2.1421,2.4131-2.3516l1.9004-.2529c0-.7656-.415-1.1484-1.2441-1.1484-.834,0-1.627.2485-2.3789.7451v-1.627c.3008-.1548.7119-.2915,1.2344-.4102.5215-.1187.9961-.1777,1.4248-.1777,1.9961,0,2.9941.9956,2.9941,2.9873v4.1836ZM290.4894,32.7281v-.4717l-1.2715.1641c-.7021.0913-1.0527.4077-1.0527.9502,0,.2461.0859.4478.2559.605.1719.1572.4023.2358.6943.2358.4053,0,.7363-.1401.9912-.4204s.3828-.6348.3828-1.063Z" fill="#2f2f2f"/>
        <path d="M296.4034,34.7584h-.0273v.8135h-2.1602v-10.3633h2.1602v4.416h.0273c.5332-.8159,1.292-1.2236,2.2764-1.2236.9023,0,1.5977.3101,2.085.9297s.7314,1.4673.7314,2.543c0,1.1665-.2852,2.103-.8545,2.8096s-1.3311,1.0596-2.2832,1.0596c-.8613,0-1.5127-.3281-1.9551-.9844ZM296.3419,31.8053v.7178c0,.4512.1299.8247.3896,1.1211s.5928.4443.998.4443c.4922,0,.874-.1904,1.1455-.5708.2705-.3804.4062-.9194.4062-1.6167,0-.5786-.124-1.0312-.373-1.3569-.248-.3257-.6025-.4888-1.0625-.4888-.4326,0-.792.1616-1.0762.4854-.2852.3237-.4277.7451-.4277,1.2646Z" fill="#2f2f2f"/>
        <path d="M303.9913,27.4645c-.3643,0-.6631-.1084-.8955-.3247s-.3486-.4819-.3486-.7964c0-.3237.1162-.5879.3486-.793s.5312-.3076.8955-.3076c.3691,0,.6689.1025.8994.3076.2295.2051.3447.4692.3447.793,0,.3281-.1152.5972-.3447.8066-.2305.2095-.5303.3145-.8994.3145ZM305.0577,35.5719h-2.1602v-7h2.1602v7Z" fill="#2f2f2f"/>
        <path d="M308.9923,35.5719h-2.1602v-10.3633h2.1602v10.3633Z" fill="#2f2f2f"/>
        <path d="M311.8614,27.4645c-.3643,0-.6631-.1084-.8955-.3247s-.3486-.4819-.3486-.7964c0-.3237.1162-.5879.3486-.793s.5312-.3076.8955-.3076c.3691,0,.6689.1025.8994.3076.2295.2051.3447.4692.3447.793,0,.3281-.1152.5972-.3447.8066-.2305.2095-.5303.3145-.8994.3145ZM312.9278,35.5719h-2.1602v-7h2.1602v7Z" fill="#2f2f2f"/>
        <path d="M318.8644,35.4898c-.3193.1685-.7998.2529-1.4424.2529-1.5225,0-2.2832-.7905-2.2832-2.3721v-3.2061h-1.1348v-1.5928h1.1348v-1.5107l2.1533-.6152v2.126h1.5723v1.5928h-1.5723v2.8301c0,.729.2891,1.0938.8682,1.0938.2275,0,.4629-.0659.7041-.1982v1.5996Z" fill="#2f2f2f"/>
        <path d="M327.089,28.5719l-2.8438,7.5605c-.6836,1.8184-1.7139,2.7275-3.0898,2.7275-.5244,0-.9551-.0591-1.292-.1777v-1.7227c.2871.1685.5996.2529.9365.2529.5557,0,.9434-.2622,1.1621-.7861l.3691-.8682-2.8438-6.9863h2.3926l1.3057,4.2588c.082.2642.1455.5767.1914.9365h.0273c.041-.2642.1162-.5718.2256-.9229l1.3193-4.2725h2.1396Z" fill="#2f2f2f"/>
        <path d="M339.086,35.5719h-7.8955v-1.2715l5.0244-6.7334h-4.6621v-1.7979h7.5195v1.2373l-4.915,6.7744h4.9287v1.791Z" fill="#2f2f2f"/>
        <path d="M343.6046,35.7428c-1.167,0-2.084-.3271-2.751-.981-.668-.6538-1.002-1.5415-1.002-2.6626,0-1.1577.3467-2.0635,1.0391-2.7173s1.6289-.981,2.8096-.981c1.1621,0,2.0732.3271,2.7344.981s.9912,1.5186.9912,2.5942c0,1.1621-.3408,2.0806-1.0215,2.7549-.6816.6743-1.6152,1.0117-2.7998,1.0117ZM343.6593,30.0553c-.5107,0-.9072.1753-1.1895.5264s-.4238.8477-.4238,1.4902c0,1.3442.542,2.0166,1.627,2.0166,1.0342,0,1.5518-.6904,1.5518-2.0713,0-1.3081-.5215-1.9619-1.5654-1.9619Z" fill="#2f2f2f"/>
        <path d="M355.567,35.5719h-2.1528v-3.8896c0-1.0845-.3877-1.627-1.1621-1.627-.374,0-.6816.1436-.9229.4307s-.3623.6519-.3623,1.0938v3.9922h-2.1602v-7h2.1602v1.1074h.0273c.5146-.8521,1.2646-1.2783,2.249-1.2783,1.5498,0,2.3237.9614,2.3237,2.8848v4.2861Z" fill="#2f2f2f"/>
        <path d="M363.5885,32.6871h-4.5664c.0732,1.0161.7129,1.5244,1.9209,1.5244.7705,0,1.4473-.1821,2.0303-.5469v1.5586c-.6475.3462-1.4883.5195-2.5225.5195-1.1299,0-2.0078-.3135-2.6318-.9399s-.9365-1.5005-.9365-2.6216c0-1.1621.3369-2.0825,1.0117-2.7617s1.5039-1.0186,2.4883-1.0186c1.0205,0,1.8105.3032,2.3691.9092.5576.606.8369,1.4287.8369,2.4678v.9092ZM361.5855,31.3609c0-1.0024-.4053-1.5039-1.2168-1.5039-.3467,0-.6465.1436-.8984.4307-.2539.2871-.4072.645-.4619,1.0732h2.5771Z" fill="#2f2f2f"/>
        <path d="M370.7594,33.7809h4.1562v1.791h-6.5215v-.7383c0-.5015.084-.9512.2529-1.3501s.3809-.7563.6357-1.0732.5342-.5972.8369-.8408c.3037-.2437.5918-.4639.8652-.6597.2871-.2051.5391-.4009.7559-.5879.2158-.187.3984-.3726.5469-.5571.1475-.1846.2578-.3716.3311-.5605s.1094-.3906.1094-.605c0-.4194-.1182-.7358-.3555-.9502s-.5996-.3213-1.0869-.3213c-.8428,0-1.6494.335-2.4199,1.0049v-1.9004c.8525-.5513,1.8135-.8271,2.8848-.8271.4971,0,.9424.0649,1.3359.1948.3945.1299.7285.3154,1.002.5571s.4824.5342.625.8784c.1445.3442.2158.728.2158,1.1519,0,.4512-.0693.8521-.208,1.2031-.1396.3511-.3242.6699-.5547.957-.2295.2871-.4951.5503-.7959.7896s-.6133.4707-.9365.6938c-.2188.1548-.4297.3086-.6328.4614-.2021.1528-.3809.3032-.5361.4512s-.2783.293-.3691.4341-.1367.2759-.1367.4033Z" fill="#2f2f2f"/>
      </g>
      <g>
        <path d="M469.0855,35.5719h-2.4062l-.6973-2.1807h-3.4863l-.6904,2.1807h-2.3926l3.5684-9.8027h2.6182l3.4863,9.8027ZM465.4762,31.6959l-1.0527-3.2949c-.0771-.2461-.1318-.54-.1641-.8818h-.0547c-.0225.2871-.0801.5718-.1709.8545l-1.0664,3.3223h2.5088Z" fill="#2f2f2f"/>
        <path d="M476.4498,28.5719l-2.6045,7h-2.4609l-2.4814-7h2.3105l1.2168,4.3135c.1367.4878.2168.9023.2393,1.2441h.0273c.0322-.3237.1162-.7246.2529-1.2031l1.2441-4.3545h2.2559Z" fill="#2f2f2f"/>
        <path d="M483.1061,35.5719h-2.0439v-1.0049h-.0273c-.4697.7837-1.1641,1.1758-2.085,1.1758-.6787,0-1.2139-.1924-1.6025-.5776-.3906-.3853-.585-.8989-.585-1.5415,0-1.3579.8047-2.1421,2.4131-2.3516l1.9004-.2529c0-.7656-.415-1.1484-1.2441-1.1484-.834,0-1.627.2485-2.3789.7451v-1.627c.3008-.1548.7119-.2915,1.2344-.4102.5215-.1187.9961-.1777,1.4248-.1777,1.9961,0,2.9941.9956,2.9941,2.9873v4.1836ZM481.0758,32.7281v-.4717l-1.2715.1641c-.7021.0913-1.0527.4077-1.0527.9502,0,.2461.0859.4478.2559.605.1719.1572.4023.2358.6943.2358.4053,0,.7363-.1401.9912-.4204s.3828-.6348.3828-1.063Z" fill="#2f2f2f"/>
        <path d="M485.8766,27.4645c-.3643,0-.6631-.1084-.8955-.3247s-.3486-.4819-.3486-.7964c0-.3237.1162-.5879.3486-.793s.5312-.3076.8955-.3076c.3691,0,.6689.1025.8994.3076.2295.2051.3447.4692.3447.793,0,.3281-.1152.5972-.3447.8066-.2305.2095-.5303.3145-.8994.3145ZM486.943,35.5719h-2.1602v-7h2.1602v7Z" fill="#2f2f2f"/>
        <path d="M490.8785,35.5719h-2.1602v-10.3633h2.1602v10.3633Z" fill="#2f2f2f"/>
        <path d="M498.5436,35.5719h-2.0439v-1.0049h-.0273c-.4697.7837-1.1641,1.1758-2.085,1.1758-.6787,0-1.2139-.1924-1.6025-.5776-.3906-.3853-.585-.8989-.585-1.5415,0-1.3579.8047-2.1421,2.4131-2.3516l1.9004-.2529c0-.7656-.415-1.1484-1.2441-1.1484-.834,0-1.627.2485-2.3789.7451v-1.627c.3008-.1548.7119-.2915,1.2344-.4102.5215-.1187.9961-.1777,1.4248-.1777,1.9961,0,2.9941.9956,2.9941,2.9873v4.1836ZM496.5133,32.7281v-.4717l-1.2715.1641c-.7021.0913-1.0527.4077-1.0527.9502,0,.2461.0859.4478.2559.605.1719.1572.4023.2358.6943.2358.4053,0,.7363-.1401.9912-.4204s.3828-.6348.3828-1.063Z" fill="#2f2f2f"/>
        <path d="M502.4273,34.7584h-.0273v.8135h-2.1602v-10.3633h2.1602v4.416h.0273c.5332-.8159,1.292-1.2236,2.2764-1.2236.9023,0,1.5977.3101,2.085.9297s.7314,1.4673.7314,2.543c0,1.1665-.2852,2.103-.8545,2.8096s-1.3311,1.0596-2.2832,1.0596c-.8613,0-1.5127-.3281-1.9551-.9844ZM502.3658,31.8053v.7178c0,.4512.1299.8247.3896,1.1211s.5928.4443.998.4443c.4922,0,.874-.1904,1.1455-.5708.2705-.3804.4062-.9194.4062-1.6167,0-.5786-.124-1.0312-.373-1.3569-.248-.3257-.6025-.4888-1.0625-.4888-.4326,0-.792.1616-1.0762.4854-.2852.3237-.4277.7451-.4277,1.2646Z" fill="#2f2f2f"/>
        <path d="M510.0152,27.4645c-.3643,0-.6631-.1084-.8955-.3247s-.3486-.4819-.3486-.7964c0-.3237.1162-.5879.3486-.793s.5312-.3076.8955-.3076c.3691,0,.6689.1025.8994.3076.2295.2051.3447.4692.3447.793,0,.3281-.1152.5972-.3447.8066-.2305.2095-.5303.3145-.8994.3145ZM511.0816,35.5719h-2.1602v-7h2.1602v7Z" fill="#2f2f2f"/>
        <path d="M515.0162,35.5719h-2.1602v-10.3633h2.1602v10.3633Z" fill="#2f2f2f"/>
        <path d="M517.8854,27.4645c-.3643,0-.6631-.1084-.8955-.3247s-.3486-.4819-.3486-.7964c0-.3237.1162-.5879.3486-.793s.5312-.3076.8955-.3076c.3691,0,.6689.1025.8994.3076.2295.2051.3447.4692.3447.793,0,.3281-.1152.5972-.3447.8066-.2305.2095-.5303.3145-.8994.3145ZM518.9518,35.5719h-2.1602v-7h2.1602v7Z" fill="#2f2f2f"/>
        <path d="M524.8883,35.4898c-.3193.1685-.7998.2529-1.4424.2529-1.5225,0-2.2832-.7905-2.2832-2.3721v-3.2061h-1.1348v-1.5928h1.1348v-1.5107l2.1533-.6152v2.126h1.5723v1.5928h-1.5723v2.8301c0,.729.2891,1.0938.8682,1.0938.2275,0,.4629-.0659.7041-.1982v1.5996Z" fill="#2f2f2f"/>
        <path d="M533.1129,28.5719l-2.8438,7.5605c-.6836,1.8184-1.7139,2.7275-3.0898,2.7275-.5244,0-.9551-.0591-1.292-.1777v-1.7227c.2871.1685.5996.2529.9365.2529.5557,0,.9434-.2622,1.1621-.7861l.3691-.8682-2.8438-6.9863h2.3926l1.3057,4.2588c.082.2642.1455.5767.1914.9365h.0273c.041-.2642.1162-.5718.2256-.9229l1.3193-4.2725h2.1396Z" fill="#2f2f2f"/>
        <path d="M545.11,35.5719h-7.8955v-1.2715l5.0244-6.7334h-4.6621v-1.7979h7.5195v1.2373l-4.915,6.7744h4.9287v1.791Z" fill="#2f2f2f"/>
        <path d="M549.6285,35.7428c-1.167,0-2.084-.3271-2.751-.981-.668-.6538-1.002-1.5415-1.002-2.6626,0-1.1577.3467-2.0635,1.0391-2.7173s1.6289-.981,2.8096-.981c1.1621,0,2.0732.3271,2.7344.981s.9912,1.5186.9912,2.5942c0,1.1621-.3408,2.0806-1.0215,2.7549-.6816.6743-1.6152,1.0117-2.7998,1.0117ZM549.6832,30.0553c-.5107,0-.9072.1753-1.1895.5264s-.4238.8477-.4238,1.4902c0,1.3442.542,2.0166,1.627,2.0166,1.0342,0,1.5518-.6904,1.5518-2.0713,0-1.3081-.5215-1.9619-1.5654-1.9619Z" fill="#2f2f2f"/>
        <path d="M561.5914,35.5719h-2.1533v-3.8896c0-1.0845-.3877-1.627-1.1621-1.627-.374,0-.6816.1436-.9229.4307s-.3623.6519-.3623,1.0938v3.9922h-2.1602v-7h2.1602v1.1074h.0273c.5146-.8521,1.2646-1.2783,2.249-1.2783,1.5498,0,2.3242.9614,2.3242,2.8848v4.2861Z" fill="#2f2f2f"/>
        <path d="M569.6129,32.6871h-4.5664c.0732,1.0161.7129,1.5244,1.9209,1.5244.7705,0,1.4473-.1821,2.0303-.5469v1.5586c-.6475.3462-1.4883.5195-2.5225.5195-1.1299,0-2.0078-.3135-2.6318-.9399s-.9365-1.5005-.9365-2.6216c0-1.1621.3369-2.0825,1.0117-2.7617s1.5039-1.0186,2.4883-1.0186c1.0205,0,1.8105.3032,2.3691.9092.5576.606.8369,1.4287.8369,2.4678v.9092ZM567.61,31.3609c0-1.0024-.4053-1.5039-1.2168-1.5039-.3467,0-.6465.1436-.8984.4307-.2539.2871-.4072.645-.4619,1.0732h2.5771Z" fill="#2f2f2f"/>
        <path d="M574.651,35.2506v-1.8799c.6562.4785,1.4219.7178,2.2969.7178.5518,0,.9814-.1187,1.2881-.3555.3086-.2368.4619-.5674.4619-.9912,0-.4375-.1904-.7749-.5713-1.0117-.3799-.2368-.9033-.3555-1.5684-.3555h-.9092v-1.6543h.8408c1.2764,0,1.9141-.4238,1.9141-1.2715,0-.7974-.4902-1.1963-1.4697-1.1963-.6562,0-1.2939.2119-1.9141.6357v-1.7637c.6885-.3462,1.4902-.5195,2.4062-.5195,1.0029,0,1.7832.2256,2.3408.6768.5586.4512.8379,1.0366.8379,1.7568,0,1.2808-.6494,2.0825-1.9482,2.4062v.0342c.6924.0864,1.2393.3384,1.6406.7554s.6016.9287.6016,1.5347c0,.916-.335,1.6406-1.0049,2.1738s-1.5947.7998-2.7754.7998c-1.0117,0-1.834-.1641-2.4678-.4922Z" fill="#2f2f2f"/>
      </g>
    </g>
  </g>
</svg>