<svg width="100" height="100" viewBox="0 0 100 100" fill="none" xmlns="http://www.w3.org/2000/svg">
<g clip-path="url(#clip0)">
<path d="M49.6401 96.4481C40.382 96.4481 31.3317 93.7028 23.6339 88.5592C15.936 83.4157 9.93624 76.105 6.3933 67.5516C2.85036 58.9981 1.92337 49.5862 3.72954 40.506C5.53571 31.4257 9.99394 23.085 16.5404 16.5385C23.0869 9.99198 31.4277 5.53376 40.5079 3.72759C49.5882 1.92141 59.0001 2.84841 67.5535 6.39135C76.1069 9.93428 83.4176 15.934 88.5612 23.6319C93.7047 31.3298 96.4501 40.38 96.4501 49.6381C96.4505 55.7854 95.24 61.8726 92.8878 67.5521C90.5355 73.2315 87.0875 78.392 82.7407 82.7388C78.3939 87.0856 73.2335 90.5335 67.554 92.8858C61.8746 95.2381 55.7874 96.4486 49.6401 96.4481V96.4481Z" fill="url(#paint0_linear)"/>
<path fill-rule="evenodd" clip-rule="evenodd" d="M95.54 49.64C95.54 58.7182 92.848 67.5925 87.8045 75.1407C82.7609 82.6889 75.5923 88.572 67.2052 92.0461C58.818 95.5201 49.5891 96.4291 40.6854 94.658C31.7816 92.887 23.603 88.5154 17.1838 82.0962C10.7646 75.677 6.39302 67.4984 4.62196 58.5946C2.85089 49.6909 3.75987 40.462 7.23393 32.0748C10.708 23.6877 16.5911 16.5191 24.1393 11.4755C31.6875 6.43199 40.5618 3.74 49.64 3.74C55.6677 3.73998 61.6363 4.9272 67.2052 7.23388C72.774 9.54057 77.834 12.9215 82.0963 17.1837C86.3585 21.446 89.7394 26.5059 92.0461 32.0748C94.3528 37.6437 95.54 43.6123 95.54 49.64V49.64ZM49.64 3.62732e-07C59.4579 3.62732e-07 69.0553 2.91134 77.2185 8.36585C85.3818 13.8204 91.7442 21.5731 95.5014 30.6436C99.2585 39.7141 100.242 49.6951 98.3262 59.3243C96.4108 68.9535 91.6831 77.7985 84.7408 84.7408C77.7985 91.6831 68.9535 96.4108 59.3243 98.3262C49.6951 100.242 39.7141 99.2585 30.6436 95.5014C21.5731 91.7442 13.8204 85.3818 8.36585 77.2185C2.91134 69.0553 3.62732e-07 59.4579 3.62732e-07 49.64C-0.000787738 43.121 1.28265 36.6656 3.77702 30.6427C6.27138 24.6197 9.9278 19.1471 14.5375 14.5375C19.1471 9.9278 24.6197 6.27138 30.6427 3.77702C36.6656 1.28265 43.121 -0.000787738 49.64 3.62732e-07V3.62732e-07Z" fill="#F2F1F0"/>
<path fill-rule="evenodd" clip-rule="evenodd" d="M92.7296 49.6386C92.7296 58.161 90.2024 66.492 85.4676 73.5781C80.7328 80.6643 74.0031 86.1872 66.1294 89.4486C58.2558 92.71 49.5918 93.5633 41.2332 91.9007C32.8745 90.238 25.1966 86.1341 19.1704 80.1079C13.1441 74.0816 9.0402 66.4037 7.37756 58.0451C5.71493 49.6864 6.56825 41.0225 9.82963 33.1488C13.091 25.2751 18.614 18.5454 25.7001 13.8106C32.7862 9.07581 41.1172 6.54862 49.6396 6.54862C55.2984 6.54828 60.9018 7.6626 66.1298 9.82795C71.3579 11.9933 76.1083 15.1673 80.1096 19.1686C84.1109 23.17 87.2849 27.9203 89.4503 33.1484C91.6156 38.3765 92.7299 43.9799 92.7296 49.6386V49.6386ZM49.6396 2.80862C58.9017 2.80862 67.9558 5.55515 75.657 10.7009C83.3581 15.8466 89.3604 23.1605 92.9049 31.7176C96.4493 40.2746 97.3767 49.6906 95.5698 58.7747C93.7628 67.8588 89.3027 76.2031 82.7534 82.7524C76.2041 89.3017 67.8598 93.7619 58.7757 95.5688C49.6916 97.3757 40.2756 96.4484 31.7185 92.9039C23.1615 89.3594 15.8476 83.3571 10.7019 75.656C5.55613 67.9548 2.8096 58.9007 2.8096 49.6386C2.81079 37.2189 7.74503 25.3082 16.5271 16.5261C25.3092 7.74403 37.2199 2.80979 49.6396 2.80859V2.80862Z" fill="#0078D4"/>
<path d="M45.009 21.3555L24.077 33.4895V57.7575L45.009 69.8915L65.94 57.7575V33.4895L45.009 21.3555Z" fill="url(#paint1_linear)"/>
<g opacity="0.7">
<path opacity="0.7" d="M65.788 33.6016V57.6806L45.009 69.7006V45.6226L65.788 33.6016Z" fill="#156AB3" stroke="#0078D4" stroke-width="0.18959" stroke-linejoin="round"/>
<path opacity="0.7" d="M65.788 33.601L45.009 45.622L24.229 33.601L45.009 21.543L65.788 33.601Z" fill="#1D4A79" stroke="#0078D4" stroke-width="0.18959" stroke-linejoin="round"/>
<path opacity="0.7" d="M45.009 45.6226V69.7006L24.229 57.6806V33.6016L45.009 45.6226Z" fill="#185A97" stroke="#0078D4" stroke-width="0.18959" stroke-linejoin="round"/>
<path opacity="0.7" d="M24.229 57.6791L45.009 45.6211V69.6991L24.229 57.6791Z" fill="#1D4A79" stroke="#0078D4" stroke-width="0.18959" stroke-linejoin="round"/>
<path opacity="0.7" d="M65.788 57.6791L45.009 45.6211V69.6991L65.788 57.6791Z" fill="#185A97" stroke="#0078D4" stroke-width="0.18959" stroke-linejoin="round"/>
</g>
<path d="M53.9196 46.4215C53.7317 46.39 53.5412 46.3773 53.3508 46.3835H41.558L45.0086 37.7001C45.1324 37.7368 45.2594 37.7622 45.3878 37.776C45.4656 37.782 45.5437 37.769 45.6153 37.7381L49.2555 36.5626C49.3853 36.5142 49.5022 36.4363 49.5968 36.3351L51.9857 33.6807L51.9098 32.619L51.341 32.126L48.573 35.1975L45.5395 36.1834L43.3402 34.2116L43.9848 31.1023L46.7529 28.0309L46.1841 27.5L45.1224 27.5758L42.7335 30.2302C42.6561 30.3354 42.5924 30.4501 42.5439 30.5714L41.7476 34.2874C41.7265 34.4169 41.7361 34.5496 41.7756 34.6747C41.8151 34.7999 41.8835 34.914 41.9751 35.0079C41.9751 35.0079 41.5959 35.1217 41.5201 35.2354L32.1542 47.3315C31.5078 47.7717 30.968 48.3509 30.5743 49.0267C30.1806 49.7025 29.9431 50.4577 29.879 51.2372C29.7692 52.5986 30.1889 53.9498 31.0507 55.0094C31.9125 56.0689 33.1499 56.7551 34.5051 56.925V56.925L52.327 59.9206V59.8827C52.5166 59.9206 52.6683 59.9585 52.8578 59.9964C53.0474 59.9964 53.237 60.0344 53.4266 60.0344C55.1368 60.0339 56.7842 59.3901 58.0417 58.231C59.2992 57.0719 60.0746 55.4822 60.2141 53.7778C60.3427 51.9703 59.7543 50.1849 58.5762 48.8081C57.3981 47.4313 55.7252 46.5738 53.9196 46.4215V46.4215Z" fill="#1D4A79"/>
<path opacity="0.3" d="M35.1497 56.5443C35.1497 56.5443 30.5616 55.2551 30.5616 51.1598C30.5616 47.6713 35.3014 46.875 35.3014 46.875L53.692 47.1404C53.692 47.1404 59.5695 47.823 59.5695 53.2074C59.5695 58.5161 53.692 59.2365 53.692 59.2365L35.1497 56.5443Z" fill="white"/>
<path opacity="0.3" d="M35.1497 56.2411C37.6628 56.2411 39.7 54.2039 39.7 51.6909C39.7 49.1778 37.6628 47.1406 35.1497 47.1406C32.6367 47.1406 30.5995 49.1778 30.5995 51.6909C30.5995 54.2039 32.6367 56.2411 35.1497 56.2411Z" fill="white"/>
<path opacity="0.2" d="M43.037 34.5898L45.16 35.9548L40.686 47.2928L33.595 47.1408L43.037 34.5898Z" fill="white"/>
<path opacity="0.3" d="M51.834 56.2428H54.8675C54.9359 56.2432 55.0032 56.2259 55.063 56.1927C55.1227 56.1595 55.1729 56.1115 55.2088 56.0532L56.7255 53.3989C56.7626 53.3426 56.7824 53.2767 56.7824 53.2093C56.7824 53.1419 56.7626 53.076 56.7255 53.0197L55.2088 50.3654C55.1729 50.3071 55.1227 50.2591 55.0629 50.2259C55.0032 50.1927 54.9359 50.1754 54.8675 50.1758H51.834C51.7656 50.1754 51.6983 50.1927 51.6385 50.2259C51.5787 50.2591 51.5285 50.3071 51.4927 50.3654L49.976 53.0197C49.9389 53.076 49.9191 53.1419 49.9191 53.2093C49.9191 53.2767 49.9389 53.3426 49.976 53.3989L51.4927 56.0532C51.5285 56.1115 51.5788 56.1595 51.6385 56.1927C51.6983 56.2259 51.7656 56.2432 51.834 56.2428V56.2428Z" fill="white"/>
<path d="M35.1497 56.2411C37.6628 56.2411 39.7 54.2039 39.7 51.6909C39.7 49.1778 37.6628 47.1406 35.1497 47.1406C32.6367 47.1406 30.5995 49.1778 30.5995 51.6909C30.5995 54.2039 32.6367 56.2411 35.1497 56.2411Z" stroke="white" stroke-width="1.51675" stroke-linejoin="round"/>
<path d="M34.3914 53.2054H35.9081C35.984 53.2054 36.0219 53.1675 36.0598 53.0916L36.8182 51.7645C36.8367 51.7363 36.8466 51.7034 36.8466 51.6697C36.8466 51.636 36.8367 51.603 36.8182 51.5749L36.0598 50.2477C36.0598 50.2098 35.984 50.1719 35.9081 50.1719H34.3914C34.3155 50.1719 34.2776 50.2098 34.2397 50.2856L33.4813 51.6128C33.4628 51.6409 33.4529 51.6739 33.4529 51.7076C33.4529 51.7413 33.4628 51.7742 33.4813 51.8024L34.2397 53.1295C34.2397 53.1675 34.3155 53.2054 34.3914 53.2054Z" fill="white"/>
<path d="M53.3508 46.3805V47.8972H53.8058C54.5003 47.9486 55.1774 48.1397 55.7964 48.4589C56.4153 48.7782 56.9635 49.2191 57.4081 49.7553C58.0666 50.5286 58.4898 51.4746 58.6273 52.481C58.7648 53.4875 58.611 54.5123 58.1841 55.434C57.7571 56.3557 57.0749 57.1358 56.2183 57.6817C55.3617 58.2277 54.3665 58.5167 53.3507 58.5145H52.8957C52.2012 58.4631 51.5241 58.2721 50.9051 57.9528C50.2861 57.6336 49.738 57.1927 49.2934 56.6565C48.6349 55.8831 48.2117 54.9372 48.0742 53.9307C47.9367 52.9243 48.0905 51.8995 48.5174 50.9778C48.9444 50.056 49.6266 49.276 50.4832 48.73C51.3398 48.1841 52.3349 47.8951 53.3508 47.8972V46.3805H53.3508ZM53.3508 46.3805C51.5897 46.3819 49.8975 47.0647 48.6287 48.286C47.3598 49.5072 46.6129 51.1721 46.5442 52.9319C46.4756 54.6916 47.0907 56.4096 48.2605 57.726C49.4304 59.0423 51.0643 59.8549 52.8199 59.9934C53.0095 59.9934 53.1991 60.0313 53.3887 60.0313C55.1498 60.03 56.8421 59.3472 58.111 58.126C59.3799 56.9047 60.127 55.2397 60.1956 53.4799C60.2642 51.7201 59.6491 50.0021 58.4792 48.6857C57.3092 47.3693 55.6752 46.5568 53.9195 46.4184C53.7317 46.3869 53.5411 46.3742 53.3508 46.3805L53.3508 46.3805Z" fill="white"/>
<path d="M54.678 50.9303L56.0051 53.2054L54.678 55.4805H52.0616L50.7344 53.2054L52.0616 50.9303H54.678V50.9303ZM54.8676 50.1719H51.834C51.7656 50.1715 51.6983 50.1888 51.6385 50.222C51.5787 50.2552 51.5285 50.3032 51.4927 50.3615L49.976 53.0158C49.9389 53.0721 49.9191 53.138 49.9191 53.2054C49.9191 53.2728 49.9389 53.3387 49.976 53.395L51.4927 56.0493C51.5285 56.1075 51.5788 56.1556 51.6385 56.1888C51.6983 56.222 51.7656 56.2392 51.834 56.2389H54.8675C54.9359 56.2392 55.0032 56.222 55.063 56.1888C55.1227 56.1556 55.173 56.1075 55.2088 56.0493L56.7255 53.395C56.7626 53.3387 56.7824 53.2728 56.7824 53.2054C56.7824 53.138 56.7626 53.0721 56.7255 53.0158L55.2088 50.3615C55.173 50.3032 55.1227 50.2552 55.063 50.222C55.0032 50.1888 54.9359 50.1715 54.8675 50.1719H54.8676Z" fill="white"/>
<path d="M34.581 56.2031L52.4028 59.1987" stroke="white" stroke-width="1.51675" stroke-miterlimit="10"/>
<path d="M53.3508 47.1406H35.1497" stroke="white" stroke-width="1.51675" stroke-miterlimit="10"/>
<path d="M32.723 47.8219L42.1648 35.7258C42.3464 35.5054 42.6078 35.3658 42.8919 35.3374C43.176 35.309 43.4599 35.3941 43.6815 35.5741L44.1365 35.9912C44.297 36.1273 44.4094 36.3113 44.4572 36.5161C44.505 36.721 44.4857 36.9358 44.402 37.1288L40.4584 47.1394" stroke="white" stroke-width="1.51675" stroke-linejoin="round"/>
<path d="M52.0236 32.5409L51.4548 32.01L48.6868 35.0815L45.6533 36.0674L43.4919 34.0956L44.1365 30.9862L46.9046 27.9148L46.2979 27.4219L45.2361 27.4977L42.8473 30.152C42.7698 30.2573 42.7061 30.3719 42.6577 30.4933L41.8614 34.2093C41.8403 34.3389 41.8499 34.4715 41.8894 34.5966C41.9289 34.7218 41.9972 34.8359 42.0889 34.9298L44.9328 37.4704C45.0709 37.5876 45.2447 37.6545 45.4257 37.66C45.5035 37.666 45.5816 37.6529 45.6533 37.622L49.2935 36.4466C49.4233 36.3981 49.5401 36.3203 49.6347 36.219L52.0236 33.5647V32.5409Z" fill="white" stroke="white" stroke-width="0.37919" stroke-miterlimit="10"/>
<path opacity="0.2" fill-rule="evenodd" clip-rule="evenodd" d="M65.7882 57.6833V43.625H55.2902C54.2212 43.6261 53.1963 44.0512 52.4404 44.807C51.6844 45.5629 51.2592 46.5877 51.258 47.6567V66.0886L65.7882 57.6833Z" fill="#003067"/>
<path fill-rule="evenodd" clip-rule="evenodd" d="M55.2897 45.625C54.7514 45.6266 54.2356 45.8411 53.8549 46.2218C53.4743 46.6024 53.2597 47.1183 53.2581 47.6566V76.099C53.2597 76.6373 53.4743 77.1531 53.8549 77.5338C54.2356 77.9145 54.7514 78.129 55.2897 78.1306H74.5899C75.1283 78.1291 75.6442 77.9146 76.0248 77.5339C76.4055 77.1532 76.62 76.6373 76.6215 76.099V53.7514L68.4951 45.625H55.2897Z" fill="white"/>
<path fill-rule="evenodd" clip-rule="evenodd" d="M70.5267 53.7514H76.6215L68.4951 45.625V51.7198C68.4967 52.2581 68.7112 52.774 69.0919 53.1546C69.4726 53.5353 69.9884 53.7498 70.5267 53.7514V53.7514Z" fill="#E8E8E8"/>
<path fill-rule="evenodd" clip-rule="evenodd" d="M71.5425 59.8441H58.3371C58.0683 59.8433 57.8107 59.7359 57.6209 59.5454C57.4311 59.355 57.3245 59.0972 57.3245 58.8283C57.3245 58.5594 57.4311 58.3016 57.6209 58.1111C57.8107 57.9207 58.0683 57.8133 58.3371 57.8125H71.5425C71.6762 57.8121 71.8086 57.838 71.9322 57.8889C72.0558 57.9398 72.1682 58.0145 72.2629 58.1089C72.3575 58.2033 72.4326 58.3154 72.4839 58.4388C72.5351 58.5623 72.5615 58.6946 72.5615 58.8283C72.5615 58.962 72.5351 59.0943 72.4839 59.2178C72.4326 59.3412 72.3575 59.4533 72.2629 59.5477C72.1682 59.6421 72.0558 59.7168 71.9322 59.7677C71.8086 59.8186 71.6762 59.8445 71.5425 59.8441V59.8441Z" fill="#1490DF"/>
<path fill-rule="evenodd" clip-rule="evenodd" d="M63.4161 55.2738H58.3371C58.0677 55.2738 57.8093 55.1668 57.6188 54.9763C57.4283 54.7858 57.3213 54.5274 57.3213 54.258C57.3213 53.9886 57.4283 53.7302 57.6188 53.5397C57.8093 53.3492 58.0677 53.2422 58.3371 53.2422H63.4161C63.6855 53.2422 63.9439 53.3492 64.1344 53.5397C64.3249 53.7302 64.4319 53.9886 64.4319 54.258C64.4319 54.5274 64.3249 54.7858 64.1344 54.9763C63.9439 55.1668 63.6855 55.2738 63.4161 55.2738Z" fill="#E8E8E8"/>
<path fill-rule="evenodd" clip-rule="evenodd" d="M63.4161 51.2113H58.3371C58.0683 51.2105 57.8107 51.1031 57.6209 50.9127C57.4311 50.7222 57.3245 50.4643 57.3245 50.1955C57.3245 49.9266 57.4311 49.6687 57.6209 49.4783C57.8107 49.2879 58.0683 49.1805 58.3371 49.1797H63.4161C63.685 49.1805 63.9426 49.2879 64.1324 49.4783C64.3222 49.6687 64.4288 49.9266 64.4288 50.1955C64.4288 50.4643 64.3222 50.7222 64.1324 50.9127C63.9426 51.1031 63.685 51.2105 63.4161 51.2113Z" fill="#E8E8E8"/>
<path fill-rule="evenodd" clip-rule="evenodd" d="M71.5425 64.4144H58.3372C58.0677 64.4144 57.8094 64.3074 57.6189 64.1169C57.4284 63.9264 57.3214 63.668 57.3214 63.3986C57.3214 63.1292 57.4284 62.8708 57.6189 62.6803C57.8094 62.4898 58.0677 62.3828 58.3372 62.3828H71.5425C71.8119 62.3828 72.0703 62.4898 72.2608 62.6803C72.4513 62.8708 72.5583 63.1292 72.5583 63.3986C72.5583 63.668 72.4513 63.9264 72.2608 64.1169C72.0703 64.3074 71.8119 64.4144 71.5425 64.4144Z" fill="#50E6FF"/>
<path fill-rule="evenodd" clip-rule="evenodd" d="M71.5425 68.9886H58.3371C58.0683 68.9878 57.8107 68.8804 57.6209 68.69C57.4311 68.4996 57.3245 68.2417 57.3245 67.9728C57.3245 67.704 57.4311 67.4461 57.6209 67.2557C57.8107 67.0653 58.0683 66.9579 58.3371 66.957H71.5425C71.6762 66.9566 71.8086 66.9826 71.9322 67.0334C72.0558 67.0843 72.1682 67.1591 72.2629 67.2534C72.3575 67.3478 72.4326 67.4599 72.4839 67.5834C72.5351 67.7068 72.5615 67.8392 72.5615 67.9728C72.5615 68.1065 72.5351 68.2388 72.4839 68.3623C72.4326 68.4857 72.3575 68.5979 72.2629 68.6922C72.1682 68.7866 72.0558 68.8614 71.9322 68.9122C71.8086 68.9631 71.6762 68.989 71.5425 68.9886Z" fill="#9CEBFF"/>
<path fill-rule="evenodd" clip-rule="evenodd" d="M71.5425 73.5589H58.3372C58.0677 73.5589 57.8094 73.4519 57.6189 73.2614C57.4284 73.0709 57.3214 72.8126 57.3214 72.5431C57.3214 72.2737 57.4284 72.0154 57.6189 71.8249C57.8094 71.6344 58.0677 71.5273 58.3372 71.5273H71.5425C71.8119 71.5273 72.0703 71.6344 72.2608 71.8249C72.4513 72.0154 72.5583 72.2737 72.5583 72.5431C72.5583 72.8126 72.4513 73.0709 72.2608 73.2614C72.0703 73.4519 71.8119 73.5589 71.5425 73.5589V73.5589Z" fill="#C3F1FF"/>
<path fill-rule="evenodd" clip-rule="evenodd" d="M76.6215 59.8448L70.5267 53.75H76.6215V59.8448Z" fill="#F2F2F2"/>
</g>
<defs>
<linearGradient id="paint0_linear" x1="47.8697" y1="-15.155" x2="51.8525" y2="130.613" gradientUnits="userSpaceOnUse">
<stop stop-color="#00ABDE"/>
<stop offset="1" stop-color="#007ED8"/>
</linearGradient>
<linearGradient id="paint1_linear" x1="45.0086" y1="69.8913" x2="45.0086" y2="21.3552" gradientUnits="userSpaceOnUse">
<stop stop-color="#1D4A79"/>
<stop offset="1" stop-color="#45CAF2"/>
</linearGradient>
<clipPath id="clip0">
<rect width="99.2799" height="99.28" fill="white"/>
</clipPath>
</defs>
</svg>
