<svg width="102" height="102" viewBox="0 0 102 102" fill="none" xmlns="http://www.w3.org/2000/svg">
<g clip-path="url(#clip0_2181_3252)">
<path d="M50.9999 97.3506C25.4033 97.3506 4.6488 76.606 4.6488 50.9995C4.6488 25.393 25.4033 4.64844 50.9999 4.64844C76.5964 4.64844 97.351 25.4029 97.351 50.9995C97.351 76.5961 76.5964 97.3506 50.9999 97.3506Z" fill="url(#paint0_linear_2181_3252)"/>
<path d="M88.8833 45.5925C88.8833 44.7676 88.2111 44.0955 87.3863 44.0955C86.8465 44.0955 83.4859 43.8001 81.6834 42.3948C81.6834 42.3948 81.6936 42.3744 81.6834 42.3948C81.0011 39.91 80.0031 37.5881 78.7709 35.3884C78.4552 33.3008 80.6141 31.7834 81.6019 30.154C81.7751 29.8689 81.8769 29.7059 81.938 29.5939C82.1213 29.0644 82.0195 28.4534 81.6019 28.0358C81.6019 28.0358 79.942 25.663 78.2413 23.9725C76.5406 22.282 73.9642 20.3981 73.9642 20.3981C73.3837 19.8176 72.4264 19.8176 71.846 20.3981C71.459 20.7749 68.9029 22.8829 66.6014 23.2189C66.5708 23.2189 66.5708 23.2189 66.5708 23.2189C64.4323 22.0071 62.0289 21.0091 59.6154 20.3268H59.5848C57.8842 19.0742 58.3322 16.4774 57.8842 14.6239C57.8842 13.7991 57.212 13.1269 56.3872 13.1269C56.3872 13.1269 53.5357 12.6279 51.1324 12.6279C48.729 12.6279 45.5823 13.1269 45.5823 13.1269C44.7574 13.1269 44.0853 13.7991 44.0853 14.6239C44.0853 15.1637 43.79 18.5243 42.3846 20.3268C40.0016 20.9989 37.4965 22.058 35.3782 23.2393C33.2906 23.555 31.7732 21.3961 30.1438 20.4083C29.8587 20.2351 29.6958 20.1333 29.5837 20.0722C29.0542 19.8889 28.4432 19.9907 28.0256 20.4083C28.0256 20.4083 25.6528 22.0682 23.9624 23.7689C22.2719 25.4695 20.3879 28.046 20.3879 28.046C19.8074 28.6265 19.8074 29.5837 20.3879 30.1642C20.7647 30.541 22.9338 33.1378 23.2189 35.3986V35.419C22.0376 37.5372 20.9989 40.0322 20.3268 42.4152C20.3268 42.4152 20.3573 42.3744 20.3268 42.4152C18.8705 44.1871 16.4774 43.6678 14.6239 44.1158C13.7991 44.1158 13.1269 44.788 13.1269 45.6128C13.1269 45.6128 12.6279 48.4643 12.6279 50.8676C12.6279 53.271 13.1269 56.4177 13.1269 56.4177C13.1269 57.2426 13.7991 57.9147 14.6239 57.9147C15.1637 57.9147 18.5243 58.21 20.3268 59.6154C20.3675 59.595 20.3472 59.6459 20.3472 59.6459C21.0396 62.0391 22.0275 64.4323 23.2291 66.5505C23.2088 66.581 23.2291 66.5505 23.2393 66.6218C23.443 68.8011 21.3961 70.2268 20.4083 71.8562C20.2351 72.1413 20.1333 72.3042 20.0722 72.4163C19.8889 72.9458 19.9907 73.5568 20.4083 73.9744C20.4083 73.9744 22.0682 76.3472 23.7689 78.0376C25.4695 79.7383 28.046 81.6121 28.046 81.6121C28.6265 82.1926 29.5837 82.1926 30.1642 81.6121C30.541 81.2353 33.1378 79.0662 35.3986 78.7811C35.3986 78.7811 35.3884 78.7912 35.4292 78.8014C37.6085 80.0133 39.8591 80.9705 42.3235 81.6427C42.3439 81.6528 42.4152 81.6732 42.4152 81.6732C44.1158 82.9258 43.6678 85.5226 44.1158 87.3761C44.2075 88.2111 44.6658 88.7407 45.6128 88.8731C45.6128 88.8731 48.4643 89.3721 50.8676 89.3721C53.271 89.3721 56.4177 88.8833 56.4177 88.8833C57.2426 88.7407 57.9147 88.2111 57.9147 87.3863C57.9147 86.8465 58.21 83.4859 59.6154 81.6834C59.6154 81.6834 59.6765 81.6325 59.7376 81.5816C62.2428 80.8789 64.1471 80.1049 66.357 78.832C66.469 78.7912 66.3468 78.8014 66.6116 78.7607C68.6992 78.445 70.2166 80.6039 71.846 81.5917C72.1311 81.7649 72.2941 81.8667 72.4061 81.9278C72.9356 82.1111 73.5466 82.0093 73.9642 81.5917C73.9642 81.5917 76.337 79.9318 78.0275 78.2311C79.7281 76.5305 81.6019 73.954 81.6019 73.954C82.1824 73.3735 82.1824 72.4163 81.6019 71.8358C81.2251 71.459 79.056 68.8622 78.7709 66.6014C78.7403 66.3672 78.7607 66.3366 78.7912 66.2755C80.054 64.0453 80.8483 62.4159 81.5408 59.8903C81.5408 59.8903 81.5103 59.8089 81.6732 59.595C82.9258 57.8943 85.5226 58.3424 87.3761 57.8943C88.201 57.8943 88.8731 57.2222 88.8731 56.3973C88.8731 56.3973 89.3721 53.5459 89.3721 51.1426C89.3721 48.7392 88.8833 45.5925 88.8833 45.5925ZM73.1902 50.9287C73.1902 63.2408 63.2102 73.231 50.888 73.231C38.5657 73.231 28.5857 63.251 28.5857 50.9287C28.5857 38.6167 38.5657 28.6265 50.888 28.6265C63.2102 28.6265 73.1902 38.6167 73.1902 50.9287Z" fill="#F2F1F0" stroke="black" stroke-width="0.3" stroke-linejoin="round"/>
<path fill-rule="evenodd" clip-rule="evenodd" d="M96.4501 51C96.4501 76.1015 76.1016 96.45 51.0001 96.45C25.8987 96.45 5.55013 76.1015 5.55013 51C5.55013 25.8985 25.8987 5.55002 51.0001 5.55002C76.1016 5.55002 96.4501 25.8985 96.4501 51ZM51.0001 1.84668C78.1513 1.84668 100.153 23.8488 100.153 51C100.153 78.1512 78.1414 100.153 51.0001 100.153C23.849 100.153 1.8468 78.1413 1.8468 51C1.8468 23.8488 23.849 1.84668 51.0001 1.84668Z" fill="#F2F1F0"/>
<path d="M50.9999 93.8173C74.6494 93.8173 93.8175 74.6493 93.8175 50.9998C93.8175 27.3503 74.6494 8.18225 50.9999 8.18225C27.3504 8.18225 8.18236 27.3503 8.18236 50.9998C8.18236 74.6493 27.3504 93.8173 50.9999 93.8173ZM50.9999 4.77891C76.5235 4.77891 97.2208 25.4762 97.2208 50.9998C97.2208 76.5234 76.5235 97.2207 50.9999 97.2207C25.4763 97.2207 4.77903 76.5234 4.77903 50.9998C4.77903 25.4761 25.4664 4.77891 50.9999 4.77891Z" fill="url(#paint1_linear_2181_3252)" stroke="black" stroke-width="0.3"/>
<g filter="url(#filter0_dddd_2181_3252)">
<circle cx="50.9994" cy="50.9998" r="25.9265" fill="white"/>
<circle cx="50.9994" cy="50.9998" r="25.7765" stroke="black" stroke-width="0.3"/>
</g>
<path d="M62.9018 61.4693C63.2346 61.6614 63.2353 62.1416 62.9031 62.3346L51.2925 69.0822C51.1376 69.1722 50.9464 69.1724 50.7913 69.0829L39.0982 62.3325C38.7654 62.1404 38.7647 61.6602 39.0969 61.4672L50.7074 54.7197C50.8623 54.6297 51.0535 54.6295 51.2086 54.719L62.9018 61.4693Z" fill="#005BA1"/>
<path d="M62.9019 58.4304C63.2347 58.6225 63.2354 59.1026 62.9032 59.2957L51.2925 66.0451C51.1376 66.1351 50.9464 66.1354 50.7913 66.0459L39.0981 59.2954C38.7653 59.1033 38.7646 58.6232 39.0968 58.4301L50.7074 51.6807C50.8623 51.5907 51.0535 51.5904 51.2086 51.68L62.9019 58.4304Z" fill="#50E6FF"/>
<path d="M38.7266 41.1749L50.9741 34.1074L63.2174 41.1749V55.3157L50.9741 62.3831L38.7125 55.3157V41.2231L38.7266 41.1749Z" fill="url(#paint2_linear_2181_3252)"/>
<path d="M38.7442 41.1992L50.9615 48.2245L50.9635 62.3613L38.7262 55.31V41.2495L38.7442 41.1992Z" fill="#0078D4"/>
<path d="M44.935 49.549C44.9084 49.5331 44.8753 49.5331 44.8486 49.549L42.1892 51.0566C42.1109 51.1008 42.1631 51.2838 42.2737 51.346L43.6807 52.0214L43.7691 52.0717C43.842 52.1188 43.8876 52.1981 43.8918 52.2848L43.8838 55.4707C43.8953 55.7146 44.0222 55.9384 44.2255 56.0737L45.2788 56.7029C45.4798 56.8154 45.6285 56.729 45.6306 56.5018L45.6425 53.2858C45.6425 53.2053 45.6949 53.1752 45.7652 53.2133L45.8517 53.2636L47.4979 54.2687C47.6085 54.331 47.6627 54.2103 47.5863 54.0677L45.0215 49.6394C45.0008 49.6025 44.9711 49.5714 44.935 49.549Z" fill="white" fill-opacity="0.9"/>
<path d="M43.161 43.7417L55.1009 36.4873L58.8396 38.6441L46.9018 45.9025V48.202C46.9009 48.2964 46.8238 48.3722 46.7293 48.3714C46.6795 48.3709 46.6324 48.3487 46.6002 48.3106L45.0163 46.4251C44.9724 46.3748 44.9043 46.3532 44.8394 46.3688L43.362 46.6844C43.2699 46.703 43.1801 46.6437 43.161 46.5517V46.5176V43.7417Z" fill="white" fill-opacity="0.5"/>
<g filter="url(#filter1_ddddd_2181_3252)">
<path d="M72.4384 81.838C72.4286 81.838 72.4286 81.8281 72.4187 81.8281C72.4286 81.8281 72.4384 81.838 72.4384 81.838Z" fill="#F2F1F0"/>
<path d="M72.4196 81.8282C72.2057 81.6959 71.8595 81.4922 71.8595 81.4922C72.0224 81.6449 72.2159 81.757 72.4196 81.8282Z" fill="#F2F1F0"/>
<path d="M72.4398 81.8379C72.6335 81.95 72.5927 81.9296 72.4398 81.8379V81.8379Z" fill="#F2F1F0"/>
<path d="M29.5963 19.9629C29.8102 20.0953 30.1564 20.299 30.1564 20.299C29.9935 20.1462 29.8 20.0342 29.5963 19.9629Z" fill="#F2F1F0"/>
<path d="M29.5763 19.9521C29.5862 19.9521 29.5862 19.962 29.596 19.962C29.5862 19.962 29.5763 19.9521 29.5763 19.9521Z" fill="#F2F1F0"/>
<path d="M29.5761 19.9516C29.3824 19.8395 29.4232 19.8599 29.5761 19.9516V19.9516Z" fill="#F2F1F0"/>
<path d="M20.0644 72.3271C19.9523 72.5208 19.9727 72.48 20.0644 72.3271V72.3271Z" fill="#F2F1F0"/>
<path d="M20.0647 72.3264C20.0647 72.3165 20.0746 72.3165 20.0746 72.3066C20.0746 72.3165 20.0647 72.3264 20.0647 72.3264Z" fill="#F2F1F0"/>
<path d="M20.0752 72.3072C20.2076 72.0933 20.4113 71.7471 20.4113 71.7471C20.2585 71.91 20.1465 72.1035 20.0752 72.3072Z" fill="#F2F1F0"/>
<path d="M81.941 29.4834C81.8086 29.6973 81.605 30.0435 81.605 30.0435C81.7577 29.8806 81.8697 29.6871 81.941 29.4834Z" fill="#F2F1F0"/>
<path d="M81.9508 29.4639C81.9508 29.4737 81.9409 29.4737 81.9409 29.4836C81.9409 29.4737 81.9508 29.4639 81.9508 29.4639Z" fill="#F2F1F0"/>
<path d="M81.9514 29.4644C82.0635 29.2707 82.0431 29.3115 81.9514 29.4644V29.4644Z" fill="#F2F1F0"/>
</g>
</g>
<defs>
<filter id="filter0_dddd_2181_3252" x="23.0729" y="24.0732" width="61.853" height="65.8525" filterUnits="userSpaceOnUse" color-interpolation-filters="sRGB">
<feFlood flood-opacity="0" result="BackgroundImageFix"/>
<feColorMatrix in="SourceAlpha" type="matrix" values="0 0 0 0 0 0 0 0 0 0 0 0 0 0 0 0 0 0 127 0" result="hardAlpha"/>
<feOffset dy="1"/>
<feGaussianBlur stdDeviation="0.5"/>
<feColorMatrix type="matrix" values="0 0 0 0 0 0 0 0 0 0 0 0 0 0 0 0 0 0 0.1 0"/>
<feBlend mode="normal" in2="BackgroundImageFix" result="effect1_dropShadow_2181_3252"/>
<feColorMatrix in="SourceAlpha" type="matrix" values="0 0 0 0 0 0 0 0 0 0 0 0 0 0 0 0 0 0 127 0" result="hardAlpha"/>
<feOffset dx="1" dy="2"/>
<feGaussianBlur stdDeviation="1.5"/>
<feColorMatrix type="matrix" values="0 0 0 0 0 0 0 0 0 0 0 0 0 0 0 0 0 0 0.09 0"/>
<feBlend mode="normal" in2="effect1_dropShadow_2181_3252" result="effect2_dropShadow_2181_3252"/>
<feColorMatrix in="SourceAlpha" type="matrix" values="0 0 0 0 0 0 0 0 0 0 0 0 0 0 0 0 0 0 127 0" result="hardAlpha"/>
<feOffset dx="2" dy="5"/>
<feGaussianBlur stdDeviation="2"/>
<feColorMatrix type="matrix" values="0 0 0 0 0 0 0 0 0 0 0 0 0 0 0 0 0 0 0.05 0"/>
<feBlend mode="normal" in2="effect2_dropShadow_2181_3252" result="effect3_dropShadow_2181_3252"/>
<feColorMatrix in="SourceAlpha" type="matrix" values="0 0 0 0 0 0 0 0 0 0 0 0 0 0 0 0 0 0 127 0" result="hardAlpha"/>
<feOffset dx="4" dy="9"/>
<feGaussianBlur stdDeviation="2"/>
<feColorMatrix type="matrix" values="0 0 0 0 0 0 0 0 0 0 0 0 0 0 0 0 0 0 0.01 0"/>
<feBlend mode="normal" in2="effect3_dropShadow_2181_3252" result="effect4_dropShadow_2181_3252"/>
<feBlend mode="normal" in="SourceGraphic" in2="effect4_dropShadow_2181_3252" result="shape"/>
</filter>
<filter id="filter1_ddddd_2181_3252" x="6.98779" y="17.875" width="88.0403" height="108.039" filterUnits="userSpaceOnUse" color-interpolation-filters="sRGB">
<feFlood flood-opacity="0" result="BackgroundImageFix"/>
<feColorMatrix in="SourceAlpha" type="matrix" values="0 0 0 0 0 0 0 0 0 0 0 0 0 0 0 0 0 0 127 0" result="hardAlpha"/>
<feOffset/>
<feColorMatrix type="matrix" values="0 0 0 0 0 0 0 0 0 0 0 0 0 0 0 0 0 0 0.1 0"/>
<feBlend mode="normal" in2="BackgroundImageFix" result="effect1_dropShadow_2181_3252"/>
<feColorMatrix in="SourceAlpha" type="matrix" values="0 0 0 0 0 0 0 0 0 0 0 0 0 0 0 0 0 0 127 0" result="hardAlpha"/>
<feOffset dy="2"/>
<feGaussianBlur stdDeviation="2"/>
<feColorMatrix type="matrix" values="0 0 0 0 0 0 0 0 0 0 0 0 0 0 0 0 0 0 0.1 0"/>
<feBlend mode="normal" in2="effect1_dropShadow_2181_3252" result="effect2_dropShadow_2181_3252"/>
<feColorMatrix in="SourceAlpha" type="matrix" values="0 0 0 0 0 0 0 0 0 0 0 0 0 0 0 0 0 0 127 0" result="hardAlpha"/>
<feOffset dy="8"/>
<feGaussianBlur stdDeviation="4"/>
<feColorMatrix type="matrix" values="0 0 0 0 0 0 0 0 0 0 0 0 0 0 0 0 0 0 0.09 0"/>
<feBlend mode="normal" in2="effect2_dropShadow_2181_3252" result="effect3_dropShadow_2181_3252"/>
<feColorMatrix in="SourceAlpha" type="matrix" values="0 0 0 0 0 0 0 0 0 0 0 0 0 0 0 0 0 0 127 0" result="hardAlpha"/>
<feOffset dy="18"/>
<feGaussianBlur stdDeviation="5.5"/>
<feColorMatrix type="matrix" values="0 0 0 0 0 0 0 0 0 0 0 0 0 0 0 0 0 0 0.05 0"/>
<feBlend mode="normal" in2="effect3_dropShadow_2181_3252" result="effect4_dropShadow_2181_3252"/>
<feColorMatrix in="SourceAlpha" type="matrix" values="0 0 0 0 0 0 0 0 0 0 0 0 0 0 0 0 0 0 127 0" result="hardAlpha"/>
<feOffset dy="31"/>
<feGaussianBlur stdDeviation="6.5"/>
<feColorMatrix type="matrix" values="0 0 0 0 0 0 0 0 0 0 0 0 0 0 0 0 0 0 0.01 0"/>
<feBlend mode="normal" in2="effect4_dropShadow_2181_3252" result="effect5_dropShadow_2181_3252"/>
<feBlend mode="normal" in="SourceGraphic" in2="effect5_dropShadow_2181_3252" result="shape"/>
</filter>
<linearGradient id="paint0_linear_2181_3252" x1="25.2852" y1="9.4966" x2="100.192" y2="148.693" gradientUnits="userSpaceOnUse">
<stop offset="0.0001" stop-color="#50E6FF"/>
<stop offset="0.623265" stop-color="#0078D4"/>
</linearGradient>
<linearGradient id="paint1_linear_2181_3252" x1="15.5867" y1="11.223" x2="83.1292" y2="98.6206" gradientUnits="userSpaceOnUse">
<stop stop-color="#007ED8"/>
<stop offset="0.915361" stop-color="#002D4C"/>
</linearGradient>
<linearGradient id="paint2_linear_2181_3252" x1="50.9602" y1="65.9993" x2="50.9602" y2="28.8733" gradientUnits="userSpaceOnUse">
<stop stop-color="#0078D4"/>
<stop offset="1" stop-color="#83B9F9"/>
</linearGradient>
<clipPath id="clip0_2181_3252">
<rect width="102" height="102" fill="white"/>
</clipPath>
</defs>
</svg>
