<svg width="2861" height="1686" xmlns="http://www.w3.org/2000/svg" xmlns:xlink="http://www.w3.org/1999/xlink" xml:space="preserve" overflow="hidden"><defs><clipPath id="clip0"><rect x="174" y="29" width="2861" height="1686"/></clipPath><linearGradient x1="1616.21" y1="1129.5" x2="1886.4" y2="1129.5" gradientUnits="userSpaceOnUse" spreadMethod="reflect" id="fill1"><stop offset="0" stop-color="#3A4953"/><stop offset="0.00558659" stop-color="#3B4A54"/><stop offset="0.0111732" stop-color="#3D4C56"/><stop offset="0.0167598" stop-color="#3F4D58"/><stop offset="0.0223464" stop-color="#414F59"/><stop offset="0.027933" stop-color="#43515B"/><stop offset="0.0335196" stop-color="#45525D"/><stop offset="0.0391061" stop-color="#46545E"/><stop offset="0.0446927" stop-color="#485660"/><stop offset="0.0502793" stop-color="#4A5762"/><stop offset="0.0558659" stop-color="#4C5963"/><stop offset="0.0614525" stop-color="#4E5A65"/><stop offset="0.0670391" stop-color="#4F5C67"/><stop offset="0.0726257" stop-color="#515D68"/><stop offset="0.0782123" stop-color="#535F6A"/><stop offset="0.0837989" stop-color="#55616B"/><stop offset="0.0893855" stop-color="#56626D"/><stop offset="0.0949721" stop-color="#58646E"/><stop offset="0.100559" stop-color="#5A6570"/><stop offset="0.106145" stop-color="#5C6772"/><stop offset="0.111732" stop-color="#5D6873"/><stop offset="0.117318" stop-color="#5F6A75"/><stop offset="0.122905" stop-color="#616B76"/><stop offset="0.128492" stop-color="#626D78"/><stop offset="0.134078" stop-color="#646E79"/><stop offset="0.139665" stop-color="#66707B"/><stop offset="0.145251" stop-color="#67717C"/><stop offset="0.150838" stop-color="#69727E"/><stop offset="0.156425" stop-color="#6B747F"/><stop offset="0.162011" stop-color="#6C7581"/><stop offset="0.167598" stop-color="#6E7782"/><stop offset="0.173184" stop-color="#6F7884"/><stop offset="0.178771" stop-color="#717A85"/><stop offset="0.184358" stop-color="#737B87"/><stop offset="0.189944" stop-color="#747C88"/><stop offset="0.195531" stop-color="#767E89"/><stop offset="0.201117" stop-color="#777F8B"/><stop offset="0.206704" stop-color="#79808C"/><stop offset="0.21229" stop-color="#7A828E"/><stop offset="0.217877" stop-color="#7C838F"/><stop offset="0.223464" stop-color="#7D8590"/><stop offset="0.22905" stop-color="#7F8692"/><stop offset="0.234637" stop-color="#808793"/><stop offset="0.240223" stop-color="#828995"/><stop offset="0.24581" stop-color="#838A96"/><stop offset="0.251397" stop-color="#858B97"/><stop offset="0.256983" stop-color="#868C99"/><stop offset="0.26257" stop-color="#888E9A"/><stop offset="0.268156" stop-color="#898F9B"/><stop offset="0.273743" stop-color="#8B909C"/><stop offset="0.27933" stop-color="#8C919E"/><stop offset="0.284916" stop-color="#8E939F"/><stop offset="0.290503" stop-color="#8F94A0"/><stop offset="0.296089" stop-color="#9095A2"/><stop offset="0.301676" stop-color="#9296A3"/><stop offset="0.307263" stop-color="#9398A4"/><stop offset="0.312849" stop-color="#9499A5"/><stop offset="0.318436" stop-color="#969AA7"/><stop offset="0.324022" stop-color="#979BA8"/><stop offset="0.329609" stop-color="#989CA9"/><stop offset="0.335196" stop-color="#9A9EAA"/><stop offset="0.340782" stop-color="#9B9FAB"/><stop offset="0.346369" stop-color="#9CA0AD"/><stop offset="0.351955" stop-color="#9EA1AE"/><stop offset="0.357542" stop-color="#9FA2AF"/><stop offset="0.363128" stop-color="#A0A3B0"/><stop offset="0.368715" stop-color="#A2A4B1"/><stop offset="0.374302" stop-color="#A3A5B2"/><stop offset="0.379888" stop-color="#A4A7B4"/><stop offset="0.385475" stop-color="#A5A8B5"/><stop offset="0.391061" stop-color="#A6A9B6"/><stop offset="0.396648" stop-color="#A8AAB7"/><stop offset="0.402235" stop-color="#A9ABB8"/><stop offset="0.407821" stop-color="#AAACB9"/><stop offset="0.413408" stop-color="#ABADBA"/><stop offset="0.418994" stop-color="#ACAEBB"/><stop offset="0.424581" stop-color="#AEAFBC"/><stop offset="0.430168" stop-color="#AFB0BD"/><stop offset="0.435754" stop-color="#B0B1BE"/><stop offset="0.441341" stop-color="#B1B2BF"/><stop offset="0.446927" stop-color="#B2B3C0"/><stop offset="0.452514" stop-color="#B3B4C1"/><stop offset="0.458101" stop-color="#B4B5C3"/><stop offset="0.463687" stop-color="#B6B6C4"/><stop offset="0.469274" stop-color="#B7B7C4"/><stop offset="0.47486" stop-color="#B8B8C5"/><stop offset="0.480447" stop-color="#B9B9C6"/><stop offset="0.486034" stop-color="#BABAC7"/><stop offset="0.49162" stop-color="#BBBBC8"/><stop offset="0.497207" stop-color="#BCBCC9"/><stop offset="0.502793" stop-color="#BDBDCA"/><stop offset="0.50838" stop-color="#BEBECB"/><stop offset="0.513967" stop-color="#BFBECC"/><stop offset="0.519553" stop-color="#C0BFCD"/><stop offset="0.52514" stop-color="#C1C0CE"/><stop offset="0.530726" stop-color="#C2C1CF"/><stop offset="0.536313" stop-color="#C3C2D0"/><stop offset="0.541899" stop-color="#C4C3D1"/><stop offset="0.547486" stop-color="#C5C4D1"/><stop offset="0.553073" stop-color="#C6C4D2"/><stop offset="0.558659" stop-color="#C7C5D3"/><stop offset="0.564246" stop-color="#C8C6D4"/><stop offset="0.569832" stop-color="#C8C7D5"/><stop offset="0.575419" stop-color="#C9C8D6"/><stop offset="0.581006" stop-color="#CAC8D6"/><stop offset="0.586592" stop-color="#CBC9D7"/><stop offset="0.592179" stop-color="#CCCAD8"/><stop offset="0.597765" stop-color="#CDCBD9"/><stop offset="0.603352" stop-color="#CECBDA"/><stop offset="0.608939" stop-color="#CFCCDA"/><stop offset="0.614525" stop-color="#CFCDDB"/><stop offset="0.620112" stop-color="#D0CEDC"/><stop offset="0.625698" stop-color="#D1CEDD"/><stop offset="0.631285" stop-color="#D2CFDD"/><stop offset="0.636872" stop-color="#D3D0DE"/><stop offset="0.642458" stop-color="#D3D0DF"/><stop offset="0.648045" stop-color="#D4D1DF"/><stop offset="0.653631" stop-color="#D5D2E0"/><stop offset="0.659218" stop-color="#D6D2E1"/><stop offset="0.664804" stop-color="#D6D3E1"/><stop offset="0.670391" stop-color="#D7D4E2"/><stop offset="0.675978" stop-color="#D8D4E3"/><stop offset="0.681564" stop-color="#D8D5E3"/><stop offset="0.687151" stop-color="#D9D6E4"/><stop offset="0.692737" stop-color="#DAD6E5"/><stop offset="0.698324" stop-color="#DAD7E5"/><stop offset="0.703911" stop-color="#DBD7E6"/><stop offset="0.709497" stop-color="#DCD8E6"/><stop offset="0.715084" stop-color="#DCD8E7"/><stop offset="0.72067" stop-color="#DDD9E7"/><stop offset="0.726257" stop-color="#DED9E8"/><stop offset="0.731844" stop-color="#DEDAE9"/><stop offset="0.73743" stop-color="#DFDBE9"/><stop offset="0.743017" stop-color="#DFDBEA"/><stop offset="0.748603" stop-color="#E0DCEA"/><stop offset="0.75419" stop-color="#E1DCEB"/><stop offset="0.759777" stop-color="#E1DDEB"/><stop offset="0.765363" stop-color="#E2DDEC"/><stop offset="0.77095" stop-color="#E2DDEC"/><stop offset="0.776536" stop-color="#E3DEED"/><stop offset="0.782123" stop-color="#E3DEED"/><stop offset="0.787709" stop-color="#E4DFEE"/><stop offset="0.793296" stop-color="#E4DFEE"/><stop offset="0.798883" stop-color="#E5E0EE"/><stop offset="0.804469" stop-color="#E5E0EF"/><stop offset="0.810056" stop-color="#E6E0EF"/><stop offset="0.815642" stop-color="#E6E1F0"/><stop offset="0.821229" stop-color="#E6E1F0"/><stop offset="0.826816" stop-color="#E7E2F0"/><stop offset="0.832402" stop-color="#E7E2F1"/><stop offset="0.837989" stop-color="#E8E2F1"/><stop offset="0.843575" stop-color="#E8E3F1"/><stop offset="0.849162" stop-color="#E8E3F2"/><stop offset="0.854749" stop-color="#E9E3F2"/><stop offset="0.860335" stop-color="#E9E4F2"/><stop offset="0.865922" stop-color="#E9E4F3"/><stop offset="0.871508" stop-color="#EAE4F3"/><stop offset="0.877095" stop-color="#EAE4F3"/><stop offset="0.882682" stop-color="#EAE5F4"/><stop offset="0.888268" stop-color="#EBE5F4"/><stop offset="0.893855" stop-color="#EBE5F4"/><stop offset="0.899441" stop-color="#EBE5F4"/><stop offset="0.905028" stop-color="#EBE6F5"/><stop offset="0.910615" stop-color="#ECE6F5"/><stop offset="0.916201" stop-color="#ECE6F5"/><stop offset="0.921788" stop-color="#ECE6F5"/><stop offset="0.927374" stop-color="#ECE6F5"/><stop offset="0.932961" stop-color="#ECE6F5"/><stop offset="0.938547" stop-color="#EDE7F6"/><stop offset="0.944134" stop-color="#EDE7F6"/><stop offset="0.949721" stop-color="#EDE7F6"/><stop offset="0.955307" stop-color="#EDE7F6"/><stop offset="0.960894" stop-color="#EDE7F6"/><stop offset="0.96648" stop-color="#EDE7F6"/><stop offset="0.972067" stop-color="#EDE7F6"/><stop offset="0.977654" stop-color="#EDE7F6"/><stop offset="0.98324" stop-color="#EDE7F6"/><stop offset="0.988827" stop-color="#EDE7F6"/><stop offset="0.994413" stop-color="#EDE7F6"/><stop offset="1" stop-color="#EEE8F7"/></linearGradient></defs><g clip-path="url(#clip0)" transform="translate(-174 -29)"><rect x="174" y="28.9999" width="2861" height="1686" fill="#FFFFFF"/><path d="M959.5 1127.21 1117.32 1127.21C1118.59 1127.21 1119.61 1128.23 1119.61 1129.5 1119.61 1130.77 1118.59 1131.79 1117.32 1131.79L959.5 1131.79C958.234 1131.79 957.208 1130.77 957.208 1129.5 957.208 1128.23 958.234 1127.21 959.5 1127.21ZM1090.98 1111.48 1121.87 1129.5 1090.98 1147.52C1089.88 1148.16 1088.48 1147.79 1087.84 1146.7 1087.21 1145.6 1087.57 1144.2 1088.67 1143.56L1116.17 1127.52 1116.17 1131.48 1088.67 1115.44C1087.57 1114.8 1087.21 1113.4 1087.84 1112.3 1088.48 1111.21 1089.88 1110.84 1090.98 1111.48Z" fill="#3A4953"/><text fill="#0D0D0D" font-family="Segoe UI Semibold,Segoe UI Semibold_MSFontService,sans-serif" font-weight="600" font-size="50" transform="matrix(1 0 0 1 507.269 831)">Create and build </text><text fill="#0D0D0D" font-family="Segoe UI Semibold,Segoe UI Semibold_MSFontService,sans-serif" font-weight="600" font-size="50" transform="matrix(1 0 0 1 511.004 892)">container image</text><path d="M462 1029C462 1001.39 484.386 979 512.001 979L908.999 979C936.614 979 959 1001.39 959 1029L959 1229C959 1256.61 936.614 1279 908.999 1279L512.001 1279C484.386 1279 462 1256.61 462 1229Z" fill="#0078D4" fill-rule="evenodd"/><text fill="#FFFFFF" font-family="Segoe UI Semibold,Segoe UI Semibold_MSFontService,sans-serif" font-weight="600" font-size="50" transform="matrix(1 0 0 1 598.209 1111)">Container </text><text fill="#FFFFFF" font-family="Segoe UI Semibold,Segoe UI Semibold_MSFontService,sans-serif" font-weight="600" font-size="50" transform="matrix(1 0 0 1 639.459 1172)">image</text><text fill="#0D0D0D" font-family="Segoe UI Semibold,Segoe UI Semibold_MSFontService,sans-serif" font-weight="600" font-size="50" transform="matrix(1 0 0 1 1200.06 831)">Push container </text><text fill="#0D0D0D" font-family="Segoe UI Semibold,Segoe UI Semibold_MSFontService,sans-serif" font-weight="600" font-size="50" transform="matrix(1 0 0 1 1153.65 892)">image to a registry</text><path d="M1121.5 1029.5C1121.5 1001.89 1143.89 979.5 1171.5 979.5L1568.5 979.5C1596.11 979.5 1618.5 1001.89 1618.5 1029.5L1618.5 1229.5C1618.5 1257.11 1596.11 1279.5 1568.5 1279.5L1171.5 1279.5C1143.89 1279.5 1121.5 1257.11 1121.5 1229.5Z" stroke="#3A4953" stroke-width="4.58333" stroke-linecap="round" stroke-linejoin="round" stroke-miterlimit="10" fill="none" fill-rule="evenodd"/><text fill="#0D0D0D" font-family="Segoe UI Semibold,Segoe UI Semibold_MSFontService,sans-serif" font-weight="600" font-size="50" transform="matrix(1 0 0 1 1257.64 1118)">Container </text><text fill="#0D0D0D" font-family="Segoe UI Semibold,Segoe UI Semibold_MSFontService,sans-serif" font-weight="600" font-size="50" transform="matrix(1 0 0 1 1282.57 1179)">registry</text><text font-family="Segoe UI Semibold,Segoe UI Semibold_MSFontService,sans-serif" font-weight="600" font-size="83" transform="matrix(1 0 0 1 2105.76 239)">C</text><text font-family="Segoe UI Semibold,Segoe UI Semibold_MSFontService,sans-serif" font-weight="600" font-size="83" transform="matrix(1 0 0 1 2156.75 239)">atalog </text><path d="M1721.5 468.091C1721.5 414.745 1764.75 371.5 1818.09 371.5L2681.91 371.5C2735.25 371.5 2778.5 414.745 2778.5 468.091L2778.5 1248.91C2778.5 1302.25 2735.25 1345.5 2681.91 1345.5L1818.09 1345.5C1764.75 1345.5 1721.5 1302.25 1721.5 1248.91Z" stroke="#3A4953" stroke-width="4.58333" stroke-linecap="round" stroke-linejoin="round" stroke-miterlimit="10" fill="none" fill-rule="evenodd"/><text fill="#0D0D0D" font-family="Segoe UI Semibold,Segoe UI Semibold_MSFontService,sans-serif" font-weight="600" font-size="64" transform="matrix(1 0 0 1 1925.58 547)">Reference image in an  </text><text fill="#0D0D0D" font-family="Segoe UI Semibold,Segoe UI Semibold_MSFontService,sans-serif" font-weight="600" font-size="64" transform="matrix(1 0 0 1 1915.26 624)">Environment definition</text><path d="M1794 811.12C1794 777.364 1821.36 750 1855.12 750L2626.88 750C2660.64 750 2688 777.364 2688 811.12L2688 1174.88C2688 1208.64 2660.64 1236 2626.88 1236L1855.12 1236C1821.36 1236 1794 1208.64 1794 1174.88Z" fill="#0078D4" fill-rule="evenodd"/><path d="M2277.5 975.668C2277.5 953.484 2295.48 935.5 2317.67 935.5L2574.33 935.5C2596.52 935.5 2614.5 953.484 2614.5 975.668L2614.5 1136.33C2614.5 1158.52 2596.52 1176.5 2574.33 1176.5L2317.67 1176.5C2295.48 1176.5 2277.5 1158.52 2277.5 1136.33Z" stroke="#FFFFFF" stroke-width="4.58333" stroke-linecap="round" stroke-linejoin="round" stroke-miterlimit="10" fill="none" fill-rule="evenodd"/><text fill="#FFFFFF" font-family="Segoe UI Semibold,Segoe UI Semibold_MSFontService,sans-serif" font-weight="600" font-size="50" transform="matrix(1 0 0 1 2402.25 1044)">IaC </text><text fill="#FFFFFF" font-family="Segoe UI Semibold,Segoe UI Semibold_MSFontService,sans-serif" font-weight="600" font-size="50" transform="matrix(1 0 0 1 2336.08 1105)">template </text><path d="M1868.5 975.667C1868.5 953.483 1886.48 935.5 1908.67 935.5L2165.33 935.5C2187.52 935.5 2205.5 953.483 2205.5 975.667L2205.5 1136.33C2205.5 1158.52 2187.52 1176.5 2165.33 1176.5L1908.67 1176.5C1886.48 1176.5 1868.5 1158.52 1868.5 1136.33Z" stroke="#FFFFFF" stroke-width="4.58333" stroke-linecap="round" stroke-linejoin="round" stroke-miterlimit="10" fill="none" fill-rule="evenodd"/><text fill="#FFFFFF" font-family="Segoe UI Semibold,Segoe UI Semibold_MSFontService,sans-serif" font-weight="600" font-size="50" transform="matrix(1 0 0 1 1919.9 1044)">Metadata </text><text fill="#FFFFFF" font-family="Segoe UI Semibold,Segoe UI Semibold_MSFontService,sans-serif" font-weight="600" font-size="50" transform="matrix(1 0 0 1 2001.25 1105)">file</text><text fill="#FFFFFF" font-family="Segoe UI Semibold,Segoe UI Semibold_MSFontService,sans-serif" font-weight="600" font-size="50" transform="matrix(1 0 0 1 2094.9 835)">Environment </text><text fill="#FFFFFF" font-family="Segoe UI Semibold,Segoe UI Semibold_MSFontService,sans-serif" font-weight="600" font-size="50" transform="matrix(1 0 0 1 2130.42 896)">definition</text><path d="M1618.5 1127.21 1853.51 1127.21C1854.78 1127.21 1855.8 1128.23 1855.8 1129.5 1855.8 1130.77 1854.78 1131.79 1853.51 1131.79L1618.5 1131.79C1617.23 1131.79 1616.21 1130.77 1616.21 1129.5 1616.21 1128.23 1617.23 1127.21 1618.5 1127.21ZM1827.17 1111.48 1858.06 1129.5 1827.17 1147.52C1826.07 1148.16 1824.67 1147.79 1824.03 1146.7 1823.4 1145.6 1823.76 1144.2 1824.86 1143.56L1852.36 1127.52 1852.36 1131.48 1824.86 1115.44C1823.76 1114.8 1823.4 1113.4 1824.03 1112.3 1824.67 1111.21 1826.07 1110.84 1827.17 1111.48Z" fill="url(#fill1)"/></g></svg>