<svg width="3132" height="1949" xmlns="http://www.w3.org/2000/svg" xmlns:xlink="http://www.w3.org/1999/xlink" xml:space="preserve" overflow="hidden"><g transform="translate(-409 -424)"><path d="M1647.81 718.353C1642.55 665.732 1669.63 617.273 1708.29 610.115 1723.96 607.215 1739.89 611.551 1753.54 622.429 1767.99 585.343 1801.77 571.249 1828.99 590.948 1833.75 594.393 1838.12 598.759 1841.96 603.91 1853.22 573.169 1880.64 560.679 1903.21 576.014 1909.46 580.258 1914.91 586.397 1919.14 593.957 1937.29 564.886 1969.36 561.295 1990.77 585.936 1999.76 596.293 2005.83 610.578 2007.92 626.341 2037.66 637.383 2055.2 679.207 2047.1 719.758 2046.42 723.167 2045.57 726.507 2044.54 729.754 2068.39 772.008 2062.55 832.569 2031.51 865.023 2021.84 875.125 2010.42 881.666 1998.36 884.013 1998.09 929.472 1970.78 966.027 1937.35 965.662 1926.18 965.541 1915.25 961.219 1905.78 953.176 1894.47 1004.14 1855.04 1032.95 1817.69 1017.52 1802.04 1011.05 1788.52 997.372 1779.43 978.82 1741.2 1010.21 1691.57 993.323 1668.59 941.108 1668.3 940.45 1668.02 939.788 1667.74 939.121 1642.71 943.108 1620.05 918.806 1617.11 884.842 1615.55 866.738 1619.94 848.618 1629.11 835.31 1607.45 817.95 1600.17 779.845 1612.86 750.201 1620.18 733.099 1633.02 721.793 1647.42 719.76Z" stroke="#636363" stroke-width="3.89583" stroke-linejoin="round" stroke-miterlimit="10" fill="#C4E59F" fill-rule="evenodd"/><path d="M1656.1 841.889C1646.85 842.875 1637.6 839.965 1629.6 833.55M1679.49 933.147C1675.77 935.162 1671.87 936.504 1667.89 937.138M1779.41 976.997C1776.61 971.286 1774.27 965.182 1772.42 958.791M1908.62 931.598C1908.2 938.373 1907.27 945.069 1905.83 951.575M1964.09 808.167C1985.06 822.059 1998.3 851.104 1998.11 882.827M2044.33 728.648C2040.93 739.45 2035.75 749.033 2029.18 756.644M2007.98 624.772C2008.56 629.134 2008.83 633.562 2008.78 637.994M1911.24 609.349C1913.22 603.25 1915.83 597.57 1919 592.488M1838.66 617.385C1839.47 612.344 1840.73 607.459 1842.42 602.843M1753.48 622.324C1758.42 626.26 1762.98 630.997 1767.08 636.432M1650.18 733.2C1649.1 728.345 1648.31 723.381 1647.81 718.356" stroke="#636363" stroke-width="3.89583" stroke-linejoin="round" stroke-miterlimit="10" fill="none" fill-rule="evenodd"/><path d="M1630.17 1073 2034.83 1073C2090.71 1073 2136 1137.47 2136 1217 2136 1296.53 2090.71 1361 2034.83 1361L1630.17 1361C1574.29 1361 1529 1296.53 1529 1217 1529 1137.47 1574.29 1073 1630.17 1073Z" fill="#B9F5FF" fill-rule="evenodd"/><path d="M2034.83 1361C1978.96 1361 1933.67 1296.53 1933.67 1217 1933.67 1137.47 1978.96 1073 2034.83 1073" stroke="#636363" stroke-width="3.89583" stroke-linejoin="round" stroke-miterlimit="10" fill="none" fill-rule="evenodd"/><path d="M1630.17 1073 2034.83 1073C2090.71 1073 2136 1137.47 2136 1217 2136 1296.53 2090.71 1361 2034.83 1361L1630.17 1361C1574.29 1361 1529 1296.53 1529 1217 1529 1137.47 1574.29 1073 1630.17 1073Z" stroke="#636363" stroke-width="3.89583" stroke-linejoin="round" stroke-miterlimit="10" fill="none" fill-rule="evenodd"/><path d="M548.5 576.6C548.5 543.408 575.408 516.5 608.6 516.5L1518.4 516.5C1551.59 516.5 1578.5 543.408 1578.5 576.6L1578.5 1841.4C1578.5 1874.59 1551.59 1901.5 1518.4 1901.5L608.6 1901.5C575.408 1901.5 548.5 1874.59 548.5 1841.4Z" stroke="#70AD47" stroke-width="9.16667" stroke-miterlimit="8" stroke-dasharray="36.6667 27.5" fill="none" fill-rule="evenodd"/><text fill="#70AD47" font-family="Calibri,Calibri_MSFontService,sans-serif" font-weight="400" font-size="75" transform="matrix(1 0 0 1 783.421 620)">customer network</text><path d="M2088.5 548.581C2088.5 526.445 2106.45 508.5 2128.58 508.5L3357.42 508.5C3379.56 508.5 3397.5 526.445 3397.5 548.581L3397.5 1854.42C3397.5 1876.55 3379.56 1894.5 3357.42 1894.5L2128.58 1894.5C2106.45 1894.5 2088.5 1876.55 2088.5 1854.42Z" stroke="#000031" stroke-width="9.16667" stroke-miterlimit="8" stroke-dasharray="36.6667 27.5" fill="none" fill-rule="evenodd"/><text fill="#13501B" font-family="Calibri,Calibri_MSFontService,sans-serif" font-weight="400" font-size="75" transform="matrix(1 0 0 1 2276.08 617)">Azure Operator Call Protection</text><rect x="2980.5" y="708.5" width="326" height="623" stroke="#000000" stroke-width="4.58333" stroke-miterlimit="8" fill="none"/><text font-family="Calibri,Calibri_MSFontService,sans-serif" font-weight="400" font-size="56" transform="matrix(1 0 0 1 3077.05 971)">Azure </text><text font-family="Calibri,Calibri_MSFontService,sans-serif" font-weight="400" font-size="56" transform="matrix(1 0 0 1 2991.11 1039)">Operator Call </text><text font-family="Calibri,Calibri_MSFontService,sans-serif" font-weight="400" font-size="56" transform="matrix(1 0 0 1 3023.19 1106)">Protection</text><rect x="2201.5" y="1115.5" width="432" height="216" stroke="#000000" stroke-width="4.58333" stroke-miterlimit="8" fill="none"/><text font-family="Calibri,Calibri_MSFontService,sans-serif" font-weight="400" font-size="56" transform="matrix(1 0 0 1 2350.72 1174)">Azure </text><text font-family="Calibri,Calibri_MSFontService,sans-serif" font-weight="400" font-size="56" transform="matrix(1 0 0 1 2225.25 1242)">Communications </text><text font-family="Calibri,Calibri_MSFontService,sans-serif" font-weight="400" font-size="56" transform="matrix(1 0 0 1 2315.77 1309)">Gateway</text><rect x="1130.5" y="1480.5" width="313" height="283" stroke="#000000" stroke-width="4.58333" stroke-miterlimit="8" fill="none"/><text font-family="Calibri,Calibri_MSFontService,sans-serif" font-weight="400" font-size="56" transform="matrix(1 0 0 1 1148.7 1606)">TAS/switch/</text><text font-family="Calibri,Calibri_MSFontService,sans-serif" font-weight="400" font-size="56" transform="matrix(1 0 0 1 1242.36 1674)">IMS</text><path d="M839.917 1639.85 1100.84 1639.85 1100.84 1642.15 839.917 1642.15ZM844.5 1654.75 817 1641 844.5 1627.25ZM1096.26 1627.25 1123.76 1641 1096.26 1654.75Z" fill="#4472C4"/><path d="M839.917 1604.85 1099.69 1604.85 1099.69 1607.15 839.917 1607.15ZM844.5 1619.75 817 1606 844.5 1592.25ZM1095.11 1592.25 1122.61 1606 1095.11 1619.75Z" fill="#FF0000"/><path d="M2441.92 2088.85 2701.69 2088.85 2701.69 2091.15 2441.92 2091.15ZM2446.5 2103.75 2419 2090 2446.5 2076.25ZM2697.11 2076.25 2724.61 2090 2697.11 2103.75Z" fill="#4472C4"/><path d="M2441.92 2184.85 2701.69 2184.85 2701.69 2187.15 2441.92 2187.15ZM2446.5 2199.75 2419 2186 2446.5 2172.25ZM2697.11 2172.25 2724.61 2186 2697.11 2199.75Z" fill="#FF0000"/><text fill="#4472C4" font-family="Calibri,Calibri_MSFontService,sans-serif" font-weight="400" font-size="56" transform="matrix(1 0 0 1 2773.18 2110)">SIP signalling</text><text fill="#FF0000" font-family="Calibri,Calibri_MSFontService,sans-serif" font-weight="400" font-size="56" transform="matrix(1 0 0 1 2773.18 2200)">RTP media</text><path d="M22.9158-1.14582 733.76-1.14548 733.76 1.14618 22.9158 1.14584ZM27.5 13.75 0 0 27.5-13.75ZM729.175-13.7497 756.675 0.000360892 729.175 13.7503Z" fill="#4472C4" transform="matrix(1 0 0 -1 1444 1243)"/><path d="M1443 1204.85 2177.33 1204.85 2177.33 1207.15 1443 1207.15ZM2172.75 1192.25 2200.25 1206 2172.75 1219.75Z" fill="#FF0000"/><text font-family="Segoe UI,Segoe UI_MSFontService,sans-serif" font-weight="400" font-size="49" transform="matrix(1 0 0 1 633.247 1735)">subscriber</text><path d="M2655.92 1238.85 2956.93 1238.85 2956.93 1241.15 2655.92 1241.15ZM2660.5 1253.75 2633 1240 2660.5 1226.25ZM2952.34 1226.25 2979.84 1240 2952.34 1253.75Z" fill="#4472C4"/><path d="M2655.92 1204.85 2957.31 1204.85 2957.31 1207.15 2655.92 1207.15ZM2660.5 1219.75 2633 1206 2660.5 1192.25ZM2952.72 1192.25 2980.22 1206 2952.72 1219.75Z" fill="#FF0000"/><rect x="1130.5" y="1067.5" width="314" height="292" stroke="#000000" stroke-width="4.58333" stroke-miterlimit="8" fill="none"/><text font-family="Calibri,Calibri_MSFontService,sans-serif" font-weight="400" font-size="56" transform="matrix(1 0 0 1 1208.19 1198)">SIPREC</text><text font-family="Calibri,Calibri_MSFontService,sans-serif" font-weight="400" font-size="56" transform="matrix(1 0 0 1 1243.71 1266)">SRC</text><path d="M1.1459 22.9167 1.14612 96.4171-1.14554 96.4171-1.14576 22.9167ZM-13.7499 27.5 0 0 13.7501 27.5ZM13.7503 91.8337 0.000360892 119.334-13.7497 91.8338Z" fill="#4472C4" transform="matrix(1 0 0 -1 1274 1480.33)"/><path d="M1303.15 1383.92 1303.15 1458.24 1300.85 1458.24 1300.85 1383.92ZM1288.25 1388.5 1302 1361 1315.75 1388.5ZM1315.75 1453.65 1302 1481.15 1288.25 1453.65Z" fill="#FF0000"/><path d="M2441.92 1997.85 2724.61 1997.85 2724.61 2000.15 2441.92 2000.15ZM2446.5 2012.75 2419 1999 2446.5 1985.25Z" fill="#107C10"/><text fill="#107C10" font-family="Calibri,Calibri_MSFontService,sans-serif" font-weight="400" font-size="56" transform="matrix(1 0 0 1 2771.82 2019)">SMS notification</text><text font-family="Segoe UI,Segoe UI_MSFontService,sans-serif" font-weight="400" font-size="49" transform="matrix(1 0 0 1 995.631 2307)">calling party (on or off net)</text><g><g><g><path d="M711.438 1540.94 707.875 1540.94 707.875 1662.1 779.125 1662.1 779.125 1540.94 711.438 1540.94ZM775.563 1658.54 711.438 1658.54 711.438 1544.5 775.563 1544.5Z"/><path d="M784.469 1523.12 702.531 1523.12C700.566 1523.13 698.975 1524.72 698.969 1526.69L698.969 1676.36C698.976 1678.32 700.567 1679.91 702.531 1679.92L784.469 1679.92C786.433 1679.91 788.023 1678.32 788.031 1676.36L788.031 1526.69C788.025 1524.72 786.434 1523.13 784.469 1523.12ZM784.469 1676.36 702.531 1676.36 702.531 1526.69 784.469 1526.69Z"/><path d="M736.375 1535.59 752.406 1535.59C753.39 1535.59 754.188 1534.8 754.188 1533.81 754.188 1532.83 753.39 1532.03 752.406 1532.03L736.375 1532.03C735.391 1532.03 734.594 1532.83 734.594 1533.81 734.594 1534.8 735.391 1535.59 736.375 1535.59Z"/></g></g></g><g><g><g><path d="M53.4375 24.9375 49.875 24.9375 49.875 146.102 121.125 146.102 121.125 24.9375 53.4375 24.9375ZM117.562 142.539 53.4375 142.539 53.4375 28.5 117.562 28.5Z" transform="matrix(1 0 0 1 1199 2088)"/><path d="M126.469 7.12499 44.5312 7.12499C42.5661 7.13085 40.9746 8.72242 40.9687 10.6875L40.9687 160.357C40.9755 162.322 42.5665 163.913 44.5312 163.919L126.469 163.919C128.433 163.912 130.023 162.321 130.031 160.357L130.031 10.6875C130.024 8.72283 128.433 7.13183 126.469 7.12499ZM126.469 160.357 44.5312 160.357 44.5312 10.6875 126.469 10.6875Z" transform="matrix(1 0 0 1 1199 2088)"/><path d="M78.3749 19.5937 94.4062 19.5937C95.3899 19.5937 96.1874 18.7963 96.1874 17.8125 96.1874 16.8287 95.3899 16.0312 94.4062 16.0312L78.3749 16.0312C77.3911 16.0312 76.5937 16.8287 76.5937 17.8125 76.5937 18.7963 77.3911 19.5937 78.3749 19.5937Z" transform="matrix(1 0 0 1 1199 2088)"/></g></g></g><path d="M0-1.94792 2236.28-1.94792C2237.36-1.94792 2238.23-1.0758 2238.23 0L2238.23 670.423 2234.34 670.423 2234.34 0 2236.28 1.94792 0 1.94792ZM2250.03 665.84 2236.28 693.34 2222.53 665.84Z" fill="#107C10" transform="matrix(-1 1.22465e-16 1.22465e-16 1 2980.28 823)"/><text font-family="Segoe UI,Segoe UI_MSFontService,sans-serif" font-weight="400" font-size="49" transform="matrix(1 0 0 1 1692.23 1423)">connectivity</text><text font-family="Segoe UI,Segoe UI_MSFontService,sans-serif" font-weight="400" font-size="49" transform="matrix(1 0 0 1 1708.95 696)">SMS network</text><path d="M1.14586 22.9166 1.14617 283.92-1.1455 283.92-1.14581 22.9166ZM-13.75 27.5 0 0 13.75 27.5ZM13.7503 279.337 0.000360892 306.837-13.7497 279.337Z" fill="#4472C4" transform="matrix(1 0 0 -1 1270 2069.84)"/><path d="M1299.15 1785.92 1299.15 2046.92 1296.85 2046.92 1296.85 1785.92ZM1284.25 1790.5 1298 1763 1311.75 1790.5ZM1311.75 2042.34 1298 2069.84 1284.25 2042.34Z" fill="#FF0000"/></g></svg>