<?xml version="1.0" encoding="UTF-8" standalone="no"?>
<!DOCTYPE svg PUBLIC "-//W3C//DTD SVG 1.1//EN" "http://www.w3.org/Graphics/SVG/1.1/DTD/svg11.dtd">
<!-- Generated by Microsoft Visio, SVG Export azure-operator-call-protection-architecture.svg azure-operator-call-protection- -->
<svg xmlns="http://www.w3.org/2000/svg" xmlns:xlink="http://www.w3.org/1999/xlink" xmlns:ev="http://www.w3.org/2001/xml-events"
		xmlns:v="http://schemas.microsoft.com/visio/2003/SVGExtensions/" width="12in" height="8.125in" viewBox="0 0 864 585"
		xml:space="preserve" color-interpolation-filters="sRGB" class="st35">
	<v:documentProperties v:langID="2057" v:viewMarkup="false"/>

	<style type="text/css">
	<![CDATA[
		.st1 {fill:#ffffff;stroke:none;stroke-linecap:round;stroke-linejoin:round;stroke-width:0.75}
		.st2 {fill:#ffffff;stroke:#000000;stroke-linecap:round;stroke-linejoin:round;stroke-width:0.75}
		.st3 {fill:#000000;font-family:Segoe UI;font-size:1.16666em;font-stretch:semi-expanded}
		.st4 {fill:#c4e59f;stroke:#636363;stroke-linecap:butt;stroke-width:1.5}
		.st5 {fill:#000000;font-family:Segoe UI;font-size:0.916672em}
		.st6 {fill:none}
		.st7 {stroke:#636363;stroke-linecap:butt;stroke-width:1.5}
		.st8 {fill:#b9f5ff;stroke:none;stroke-linecap:butt;stroke-width:1.5}
		.st9 {fill:none;stroke:#636363;stroke-linecap:butt;stroke-width:1.5}
		.st10 {fill:none;stroke:#000000;stroke-linecap:butt;stroke-width:1.5}
		.st11 {font-size:1em}
		.st12 {fill:#4472c4;stroke:#0070c0;stroke-linecap:butt;stroke-width:1.25}
		.st13 {fill:#ff0000;stroke:#ff0000;stroke-linecap:butt;stroke-width:1}
		.st14 {fill:none;stroke:none;stroke-linecap:butt;stroke-width:1.5}
		.st15 {fill:#4472c4;font-family:Segoe UI;font-size:0.916672em}
		.st16 {fill:#ff0000;font-family:Segoe UI;font-size:0.916672em}
		.st17 {fill:#107c10;stroke:#107c10;stroke-linecap:butt;stroke-width:1}
		.st18 {fill:#107c10;font-family:Segoe UI;font-size:0.916672em}
		.st19 {fill:#000000;stroke:none;stroke-linecap:butt;stroke-width:1.5}
		.st20 {fill:url(#grad0-90);stroke:none;stroke-linecap:butt;stroke-width:1.5}
		.st21 {fill:url(#grad0-94);stroke:none;stroke-linecap:butt;stroke-width:1.5}
		.st22 {fill:url(#grad0-98);stroke:none;stroke-linecap:butt;stroke-width:1.5}
		.st23 {marker-end:url(#mrkr13-107);stroke:#107c10;stroke-linecap:round;stroke-linejoin:round;stroke-width:1.5}
		.st24 {fill:#107c10;fill-opacity:1;stroke:#107c10;stroke-opacity:1;stroke-width:0.37313432835821}
		.st25 {fill:url(#grad0-112);stroke:none;stroke-linecap:butt;stroke-width:0.75}
		.st26 {fill:#0078d4;stroke:none;stroke-linecap:butt;stroke-width:0.75}
		.st27 {fill:#86d633;stroke:none;stroke-linecap:butt;stroke-width:0.75}
		.st28 {marker-end:url(#mrkr13-126);stroke:#ff0000;stroke-linecap:round;stroke-linejoin:round;stroke-width:1.5}
		.st29 {fill:#ff0000;fill-opacity:1;stroke:#ff0000;stroke-opacity:1;stroke-width:0.37313432835821}
		.st30 {marker-end:url(#mrkr13-135);marker-start:url(#mrkr13-133);stroke:#0070c0;stroke-linecap:round;stroke-linejoin:round;stroke-width:1.5}
		.st31 {fill:#0070c0;fill-opacity:1;stroke:#0070c0;stroke-opacity:1;stroke-width:0.37313432835821}
		.st32 {marker-end:url(#mrkr13-126);marker-start:url(#mrkr13-154);stroke:#ff0000;stroke-linecap:round;stroke-linejoin:round;stroke-width:1.5}
		.st33 {fill:none;marker-end:url(#mrkr13-194);stroke:none;stroke-linecap:round;stroke-linejoin:round;stroke-width:0.75}
		.st34 {fill:#107c10;fill-opacity:1;stroke:#107c10;stroke-opacity:1;stroke-width:0.22935779816514}
		.st35 {fill:none;fill-rule:evenodd;font-size:12px;overflow:visible;stroke-linecap:square;stroke-miterlimit:3}
	]]>
	</style>

	<defs id="Patterns_And_Gradients">
		<linearGradient id="grad0-13" x1="0" y1="0" x2="1" y2="0" gradientTransform="rotate(90 0.5 0.5)">
			<stop offset="0.01" stop-color="#ffffff" stop-opacity="1"/>
			<stop offset="0.5" stop-color="#fefefe" stop-opacity="1"/>
			<stop offset="1" stop-color="#ffffff" stop-opacity="1"/>
		</linearGradient>
		<linearGradient id="grad0-17" x1="0" y1="0" x2="1" y2="0" gradientTransform="rotate(270 0.5 0.5)">
			<stop offset="0" stop-color="#fefefe" stop-opacity="1"/>
			<stop offset="1" stop-color="#ffffff" stop-opacity="1"/>
		</linearGradient>
		<linearGradient id="grad0-90" x1="0" y1="0" x2="1" y2="0" gradientTransform="rotate(-90 0.5 0.5)">
			<stop offset="0" stop-color="#155ea1" stop-opacity="1"/>
			<stop offset="1" stop-color="#0078d4" stop-opacity="1"/>
		</linearGradient>
		<linearGradient id="grad0-94" x1="0" y1="0" x2="1" y2="0" gradientTransform="rotate(0 0.5 0.5)">
			<stop offset="0" stop-color="#155ea1" stop-opacity="1"/>
			<stop offset="1" stop-color="#2a446f" stop-opacity="1"/>
		</linearGradient>
		<linearGradient id="grad0-98" x1="0" y1="0" x2="1" y2="0" gradientTransform="rotate(-90 0.5 0.5)">
			<stop offset="0" stop-color="#46a0de" stop-opacity="1"/>
			<stop offset="1" stop-color="#8dc8e8" stop-opacity="1"/>
		</linearGradient>
		<linearGradient id="grad0-112" x1="0" y1="0" x2="1" y2="0" gradientTransform="rotate(90 0.5 0.5)">
			<stop offset="0" stop-color="#50e6ff" stop-opacity="1"/>
			<stop offset="0.5" stop-color="#32bedd" stop-opacity="1"/>
		</linearGradient>
	</defs>
	<defs id="Markers">
		<g id="lend13">
			<path d="M 3 1 L 0 0 L 3 -1 L 3 1 " style="stroke:none"/>
		</g>
		<marker id="mrkr13-107" class="st24" v:arrowType="13" v:arrowSize="2" v:setback="8.04" refX="-8.04" orient="auto"
				markerUnits="strokeWidth" overflow="visible">
			<use xlink:href="#lend13" transform="scale(-2.68,-2.68) "/>
		</marker>
		<marker id="mrkr13-126" class="st29" v:arrowType="13" v:arrowSize="2" v:setback="8.04" refX="-8.04" orient="auto"
				markerUnits="strokeWidth" overflow="visible">
			<use xlink:href="#lend13" transform="scale(-2.68,-2.68) "/>
		</marker>
		<marker id="mrkr13-133" class="st31" v:arrowType="13" v:arrowSize="2" v:setback="7.8" refX="7.8" orient="auto"
				markerUnits="strokeWidth" overflow="visible">
			<use xlink:href="#lend13" transform="scale(2.68) "/>
		</marker>
		<marker id="mrkr13-135" class="st31" v:arrowType="13" v:arrowSize="2" v:setback="8.04" refX="-8.04" orient="auto"
				markerUnits="strokeWidth" overflow="visible">
			<use xlink:href="#lend13" transform="scale(-2.68,-2.68) "/>
		</marker>
		<marker id="mrkr13-154" class="st29" v:arrowType="13" v:arrowSize="2" v:setback="7.8" refX="7.8" orient="auto"
				markerUnits="strokeWidth" overflow="visible">
			<use xlink:href="#lend13" transform="scale(2.68) "/>
		</marker>
		<marker id="mrkr13-194" class="st34" v:arrowType="13" v:arrowSize="2" v:setback="13.08" refX="-13.08" orient="auto"
				markerUnits="strokeWidth" overflow="visible">
			<use xlink:href="#lend13" transform="scale(-4.36,-4.36) "/>
		</marker>
	</defs>
	<g v:mID="4" v:index="1" v:groupContext="backgroundPage">
		<v:userDefs>
			<v:ud v:nameU="msvVisioCreated" v:prompt="" v:val="VT0(0):26"/>
		</v:userDefs>
		<title>VBackground-1</title>
		<v:pageProperties width="12" height="8.125" v:drawingScale="1" v:pageScale="1" v:drawingUnits="19" v:shadowOffsetX="9"
				v:shadowOffsetY="-9"/>
		<g id="shape1000-1" v:mID="1000" v:groupContext="shape">
			<title>Solid.1000</title>
			<v:userDefs>
				<v:ud v:nameU="Background" v:val="VT0(0):26"/>
				<v:ud v:nameU="visVersion" v:val="VT0(15):26"/>
				<v:ud v:nameU="msvShapeCategories" v:prompt="" v:val="VT4(DoNotContain)"/>
				<v:ud v:nameU="msvVisioCreated" v:prompt="" v:val="VT0(0):26"/>
			</v:userDefs>
			<rect x="0" y="0" width="864" height="585" class="st1"/>
		</g>
	</g>
	<g v:mID="0" v:index="2" v:groupContext="foregroundPage">
		<title>azure-operator-call-protection-</title>
		<v:pageProperties v:drawingScale="1" v:pageScale="1" v:drawingUnits="19" v:shadowOffsetX="9" v:shadowOffsetY="-9"/>
		<v:layer v:name="Connector" v:index="0"/>
		<v:layer v:name="Container" v:index="1"/>
		<g id="group1025-3" transform="translate(8.91476,-154.687)" v:mID="1025" v:groupContext="group" v:layerMember="1">
			<v:userDefs>
				<v:ud v:nameU="msvShapeCategories" v:prompt="" v:val="VT4(ContainerStyleDefaults)"/>
				<v:ud v:nameU="msvStructureType" v:prompt="" v:val="VT4(Container)"/>
				<v:ud v:nameU="msvSDContainerMargin" v:prompt="" v:val="VT0(0.125):0"/>
				<v:ud v:nameU="msvSDContainerResize" v:prompt="" v:val="VT0(1):26"/>
				<v:ud v:nameU="msvSDContainerLocked" v:prompt="" v:val="VT0(0):5"/>
				<v:ud v:nameU="msvSDContainerNoHighlight" v:prompt="" v:val="VT0(0):5"/>
				<v:ud v:nameU="msvSDContainerNoRibbon" v:prompt="" v:val="VT0(0):5"/>
				<v:ud v:nameU="msvSDContainerStyle" v:prompt="" v:val="VT0(1):26"/>
				<v:ud v:nameU="msvSDContainerStyleCount" v:prompt="" v:val="VT0(14):26"/>
				<v:ud v:nameU="msvSDContainerRequiredCategories" v:prompt="" v:val="VT0(0):26"/>
				<v:ud v:nameU="msvSDContainerExcludedCategories" v:prompt="" v:val="VT4(DoNotContain)"/>
				<v:ud v:nameU="msvSDHeadingStyle" v:prompt="" v:val="VT0(1):26"/>
				<v:ud v:nameU="msvSDHeadingStyleCount" v:prompt="" v:val="VT0(4):26"/>
				<v:ud v:nameU="HeadingSide" v:prompt="" v:val="VT0(0):26"/>
				<v:ud v:nameU="HeadingSpan" v:prompt="" v:val="VT0(0):26"/>
				<v:ud v:nameU="HeadingAlign" v:prompt="" v:val="VT0(0):26"/>
				<v:ud v:nameU="RTL" v:prompt="" v:val="VT0(0):5"/>
				<v:ud v:nameU="FnForceContrast" v:prompt="" v:val="VT5(#ffffff)"/>
				<v:ud v:nameU="BaseColor" v:prompt="" v:val="VT0(1):26"/>
				<v:ud v:nameU="HColor1" v:prompt="" v:val="VT5(#ffffff)"/>
				<v:ud v:nameU="HColor2" v:prompt="" v:val="VT5(#fefefe)"/>
				<v:ud v:nameU="HColor3" v:prompt="" v:val="VT5(#e9e9e9)"/>
				<v:ud v:nameU="HColor4" v:prompt="" v:val="VT5(#efefef)"/>
				<v:ud v:nameU="BColor1" v:prompt="" v:val="VT5(#ffffff)"/>
				<v:ud v:nameU="BColor2" v:prompt="" v:val="VT5(#ffffff)"/>
				<v:ud v:nameU="LineColor" v:prompt="" v:val="VT5(#d5d5d5)"/>
				<v:ud v:nameU="visVersion" v:prompt="" v:val="VT0(15):26"/>
				<v:ud v:nameU="Embellishment" v:prompt="" v:val="VT0(2):26"/>
				<v:ud v:nameU="visMasterStencil" v:prompt="" v:val="VT4(SDCONT_U.vssx)"/>
				<v:ud v:nameU="msvSDContainerMargin" v:prompt="" v:val="VT0(0.5):0"/>
				<v:ud v:nameU="msvSDContainerLocked" v:prompt="" v:val="VT0(1):5"/>
			</v:userDefs>
			<title>Plain.1025</title>
			<g id="group1026-4" v:mID="1026" v:groupContext="group" v:layerMember="1">
				<v:userDefs>
					<v:ud v:nameU="msvStructureType" v:prompt="" v:val="VT0(0):26"/>
					<v:ud v:nameU="CStyle" v:prompt="" v:val="VT0(1):26"/>
					<v:ud v:nameU="HSide" v:prompt="" v:val="VT0(0):26"/>
					<v:ud v:nameU="HSpan" v:prompt="" v:val="VT0(0):26"/>
					<v:ud v:nameU="HAlign" v:prompt="" v:val="VT0(0):26"/>
					<v:ud v:nameU="HorzAlign" v:prompt="" v:val="VT0(0):26"/>
					<v:ud v:nameU="SquareCorners" v:prompt="" v:val="VT0(0):26"/>
					<v:ud v:nameU="Corner6" v:prompt="" v:val="VT0(0.2):0"/>
					<v:ud v:nameU="FillForegndIn" v:prompt="" v:val="VT0(1):26"/>
					<v:ud v:nameU="FillBkgndIn" v:prompt="" v:val="VT0(0):26"/>
					<v:ud v:nameU="FillPatternIn" v:prompt="" v:val="VT0(1):26"/>
					<v:ud v:nameU="BaseColor" v:prompt="" v:val="VT0(1):26"/>
					<v:ud v:nameU="BackFillColor" v:prompt="" v:val="VT5(#96afcf)"/>
					<v:ud v:nameU="BackLineColor" v:prompt="" v:val="VT5(#1f477d)"/>
					<v:ud v:nameU="DarkerColor" v:prompt="" v:val="VT5(#1f477d)"/>
					<v:ud v:nameU="HorzAlign" v:prompt="" v:val="VT0(1):26"/>
				</v:userDefs>
				<title>Sheet.1026</title>
				<g id="shape1027-5" v:mID="1027" v:groupContext="shape" v:layerMember="1" transform="translate(2.88,2.88)">
					<title>Sheet.1027</title>
					<v:userDefs>
						<v:ud v:nameU="msvStructureType" v:prompt="" v:val="VT0(0):26"/>
						<v:ud v:nameU="msvThemeColors" v:prompt="" v:val="VT0(0):26"/>
						<v:ud v:nameU="msvThemeEffects" v:prompt="" v:val="VT0(0):26"/>
						<v:ud v:nameU="CStyle" v:prompt="" v:val="VT0(1):26"/>
						<v:ud v:nameU="HSide" v:prompt="" v:val="VT0(0):26"/>
						<v:ud v:nameU="HSpan" v:prompt="" v:val="VT0(0):26"/>
						<v:ud v:nameU="HAlign" v:prompt="" v:val="VT0(0):26"/>
						<v:ud v:nameU="HorzAlign" v:prompt="" v:val="VT0(0):26"/>
						<v:ud v:nameU="SquareCorners" v:prompt="" v:val="VT0(0):26"/>
						<v:ud v:nameU="OffsetX10" v:prompt="" v:val="VT0(0.04):0"/>
						<v:ud v:nameU="OffsetY10" v:prompt="" v:val="VT0(-0.04):0"/>
						<v:ud v:nameU="BackFillColor" v:prompt="" v:val="VT5(#96afcf)"/>
						<v:ud v:nameU="BackLineColor" v:prompt="" v:val="VT5(#1f477d)"/>
						<v:ud v:nameU="DarkerColor" v:prompt="" v:val="VT5(#1f477d)"/>
						<v:ud v:nameU="HorzAlign" v:prompt="" v:val="VT0(1):26"/>
					</v:userDefs>
				</g>
				<g id="shape1026-7" v:mID="1026" v:groupContext="groupContent" v:layerMember="1">
					<path d="M36 585 L155.63 585 L275.26 585 A36 36 -180 0 0 311.26 549 L311.26 226.69 A36 36 -180 0 0 275.26 190.69
								 L155.63 190.69 L36 190.69 A36 36 -180 0 0 0 226.69 L0 549 A36 36 -180 0 0 36 585 Z" class="st2"/>
				</g>
			</g>
			<g id="group1028-9" transform="translate(0,-367.313)" v:mID="1028" v:groupContext="group" v:layerMember="1">
				<v:userDefs>
					<v:ud v:nameU="msvStructureType" v:prompt="" v:val="VT4(Heading)"/>
					<v:ud v:nameU="CStyle" v:prompt="" v:val="VT0(1):26"/>
					<v:ud v:nameU="HSide" v:prompt="" v:val="VT0(0):26"/>
					<v:ud v:nameU="HSpan" v:prompt="" v:val="VT0(0):26"/>
					<v:ud v:nameU="HAlign" v:prompt="" v:val="VT0(0):26"/>
					<v:ud v:nameU="Hidden" v:prompt="" v:val="VT0(0):5"/>
					<v:ud v:nameU="HorzAlign" v:prompt="" v:val="VT0(0):26"/>
					<v:ud v:nameU="Rounding" v:prompt="" v:val="VT0(0):1"/>
					<v:ud v:nameU="SquareCorners" v:prompt="" v:val="VT0(3):26"/>
					<v:ud v:nameU="Inset" v:prompt="" v:val="VT0(0):0"/>
					<v:ud v:nameU="InsideRadius" v:prompt="" v:val="VT0(0):0"/>
					<v:ud v:nameU="InsetXInt" v:prompt="" v:val="VT0(0):0"/>
					<v:ud v:nameU="HTxtMargin" v:prompt="" v:val="VT0(0.0625):0"/>
					<v:ud v:nameU="HTxtWidth" v:prompt="" v:val="VT0(3):1"/>
					<v:ud v:nameU="HLeft" v:prompt="" v:val="VT0(0):26"/>
					<v:ud v:nameU="HRight" v:prompt="" v:val="VT0(3):1"/>
					<v:ud v:nameU="SquareCorners7" v:prompt="" v:val="VT0(3):26"/>
					<v:ud v:nameU="Offset" v:prompt="" v:val="VT0(0):26"/>
					<v:ud v:nameU="Rounding8" v:prompt="" v:val="VT0(0.125):0"/>
					<v:ud v:nameU="InsetX9" v:prompt="" v:val="VT0(0):26"/>
					<v:ud v:nameU="InsetY9" v:prompt="" v:val="VT0(0):26"/>
					<v:ud v:nameU="OffsetY11" v:prompt="" v:val="VT0(0):26"/>
					<v:ud v:nameU="OffsetY12" v:prompt="" v:val="VT0(0):26"/>
					<v:ud v:nameU="Width12" v:prompt="" v:val="VT0(0):26"/>
					<v:ud v:nameU="msvSDContainerHeadingEdge" v:prompt="" v:val="VT4(Bottom)"/>
					<v:ud v:nameU="HLineVisible" v:prompt="" v:val="VT0(0):5"/>
					<v:ud v:nameU="HFillVisible" v:prompt="" v:val="VT0(0):5"/>
					<v:ud v:nameU="FillForegndIn" v:prompt="" v:val="VT5(#ffffff)"/>
					<v:ud v:nameU="FillBkgndIn" v:prompt="" v:val="VT0(1):26"/>
					<v:ud v:nameU="BaseColor" v:prompt="" v:val="VT0(1):26"/>
					<v:ud v:nameU="FillPatternIn" v:prompt="" v:val="VT0(30):26"/>
					<v:ud v:nameU="BackFillColor" v:prompt="" v:val="VT5(#96afcf)"/>
					<v:ud v:nameU="BackLineColor" v:prompt="" v:val="VT5(#1f477d)"/>
					<v:ud v:nameU="BackCharColor" v:prompt="" v:val="VT5(#000000)"/>
					<v:ud v:nameU="DarkerColor" v:prompt="" v:val="VT5(#000000)"/>
					<v:ud v:nameU="HorzAlign" v:prompt="" v:val="VT0(1):26"/>
					<v:ud v:nameU="Rounding" v:prompt="" v:val="VT0(0.1875):0"/>
					<v:ud v:nameU="InsideRadius" v:prompt="" v:val="VT0(0.1875):0"/>
					<v:ud v:nameU="HTxtWidth" v:prompt="" v:val="VT0(4.3230827084443):1"/>
					<v:ud v:nameU="HRight" v:prompt="" v:val="VT0(4.3230827084443):1"/>
				</v:userDefs>
				<title>Sheet.1028</title>
				<desc>Customer network</desc>
				<g id="shape1029-10" v:mID="1029" v:groupContext="shape" v:layerMember="1">
					<title>Sheet.1029</title>
					<v:userDefs>
						<v:ud v:nameU="msvStructureType" v:prompt="" v:val="VT0(0):26"/>
						<v:ud v:nameU="msvThemeColors" v:prompt="" v:val="VT0(0):26"/>
						<v:ud v:nameU="msvThemeEffects" v:prompt="" v:val="VT0(0):26"/>
						<v:ud v:nameU="CStyle" v:prompt="" v:val="VT0(1):26"/>
						<v:ud v:nameU="Rounding" v:prompt="" v:val="VT0(0):1"/>
						<v:ud v:nameU="SquareCorners" v:prompt="" v:val="VT0(3):26"/>
						<v:ud v:nameU="HLeft" v:prompt="" v:val="VT0(0):26"/>
						<v:ud v:nameU="HRight" v:prompt="" v:val="VT0(3):1"/>
						<v:ud v:nameU="Hidden" v:prompt="" v:val="VT0(0):5"/>
						<v:ud v:nameU="BowHeight7" v:prompt="" v:val="VT0(0.125):0"/>
						<v:ud v:nameU="Offset7" v:prompt="" v:val="VT0(0.0052083333333333):3"/>
						<v:ud v:nameU="AnchorPt7" v:prompt="" v:val="VT0(0.58854166666667):0"/>
						<v:ud v:nameU="HSide" v:prompt="" v:val="VT0(0):26"/>
						<v:ud v:nameU="HAlign" v:prompt="" v:val="VT0(0):26"/>
						<v:ud v:nameU="Rounding" v:prompt="" v:val="VT0(0.1875):0"/>
						<v:ud v:nameU="HRight" v:prompt="" v:val="VT0(4.3230827084443):1"/>
						<v:ud v:nameU="AnchorPt7" v:prompt="" v:val="VT0(0.68229166666667):0"/>
					</v:userDefs>
				</g>
				<g id="shape1028-14" v:mID="1028" v:groupContext="groupContent" v:layerMember="1">
					<v:textBlock v:margins="rect(4,6,4,6)" v:verticalAlign="2"/>
					<v:textRect cx="153.085" cy="571.5" width="311.27" height="27"/>
					<text x="90.55" y="576.8" class="st3" v:langID="2057"><v:paragraph v:horizAlign="1"/><v:tabList/>Customer network</text>				</g>
			</g>
		</g>
		<g id="group1030-19" transform="translate(494.875,-154.687)" v:mID="1030" v:groupContext="group" v:layerMember="1">
			<v:userDefs>
				<v:ud v:nameU="msvShapeCategories" v:prompt="" v:val="VT4(ContainerStyleDefaults)"/>
				<v:ud v:nameU="msvStructureType" v:prompt="" v:val="VT4(Container)"/>
				<v:ud v:nameU="msvSDContainerMargin" v:prompt="" v:val="VT0(0.125):0"/>
				<v:ud v:nameU="msvSDContainerResize" v:prompt="" v:val="VT0(1):26"/>
				<v:ud v:nameU="msvSDContainerLocked" v:prompt="" v:val="VT0(0):5"/>
				<v:ud v:nameU="msvSDContainerNoHighlight" v:prompt="" v:val="VT0(0):5"/>
				<v:ud v:nameU="msvSDContainerNoRibbon" v:prompt="" v:val="VT0(0):5"/>
				<v:ud v:nameU="msvSDContainerStyle" v:prompt="" v:val="VT0(1):26"/>
				<v:ud v:nameU="msvSDContainerStyleCount" v:prompt="" v:val="VT0(14):26"/>
				<v:ud v:nameU="msvSDContainerRequiredCategories" v:prompt="" v:val="VT0(0):26"/>
				<v:ud v:nameU="msvSDContainerExcludedCategories" v:prompt="" v:val="VT4(DoNotContain)"/>
				<v:ud v:nameU="msvSDHeadingStyle" v:prompt="" v:val="VT0(1):26"/>
				<v:ud v:nameU="msvSDHeadingStyleCount" v:prompt="" v:val="VT0(4):26"/>
				<v:ud v:nameU="HeadingSide" v:prompt="" v:val="VT0(0):26"/>
				<v:ud v:nameU="HeadingSpan" v:prompt="" v:val="VT0(0):26"/>
				<v:ud v:nameU="HeadingAlign" v:prompt="" v:val="VT0(0):26"/>
				<v:ud v:nameU="RTL" v:prompt="" v:val="VT0(0):5"/>
				<v:ud v:nameU="FnForceContrast" v:prompt="" v:val="VT5(#ffffff)"/>
				<v:ud v:nameU="BaseColor" v:prompt="" v:val="VT0(1):26"/>
				<v:ud v:nameU="HColor1" v:prompt="" v:val="VT5(#ffffff)"/>
				<v:ud v:nameU="HColor2" v:prompt="" v:val="VT5(#fefefe)"/>
				<v:ud v:nameU="HColor3" v:prompt="" v:val="VT5(#e9e9e9)"/>
				<v:ud v:nameU="HColor4" v:prompt="" v:val="VT5(#efefef)"/>
				<v:ud v:nameU="BColor1" v:prompt="" v:val="VT5(#ffffff)"/>
				<v:ud v:nameU="BColor2" v:prompt="" v:val="VT5(#ffffff)"/>
				<v:ud v:nameU="LineColor" v:prompt="" v:val="VT5(#d5d5d5)"/>
				<v:ud v:nameU="visVersion" v:prompt="" v:val="VT0(15):26"/>
				<v:ud v:nameU="Embellishment" v:prompt="" v:val="VT0(2):26"/>
				<v:ud v:nameU="visMasterStencil" v:prompt="" v:val="VT4(SDCONT_U.vssx)"/>
				<v:ud v:nameU="BaseColor" v:prompt="" v:val="VT5(#ffffff)"/>
			</v:userDefs>
			<title>Plain.1030</title>
			<g id="group1031-20" v:mID="1031" v:groupContext="group" v:layerMember="1">
				<v:userDefs>
					<v:ud v:nameU="msvStructureType" v:prompt="" v:val="VT0(0):26"/>
					<v:ud v:nameU="CStyle" v:prompt="" v:val="VT0(1):26"/>
					<v:ud v:nameU="HSide" v:prompt="" v:val="VT0(0):26"/>
					<v:ud v:nameU="HSpan" v:prompt="" v:val="VT0(0):26"/>
					<v:ud v:nameU="HAlign" v:prompt="" v:val="VT0(0):26"/>
					<v:ud v:nameU="HorzAlign" v:prompt="" v:val="VT0(0):26"/>
					<v:ud v:nameU="SquareCorners" v:prompt="" v:val="VT0(0):26"/>
					<v:ud v:nameU="Corner6" v:prompt="" v:val="VT0(0.2):0"/>
					<v:ud v:nameU="FillForegndIn" v:prompt="" v:val="VT0(1):26"/>
					<v:ud v:nameU="FillBkgndIn" v:prompt="" v:val="VT0(0):26"/>
					<v:ud v:nameU="FillPatternIn" v:prompt="" v:val="VT0(1):26"/>
					<v:ud v:nameU="BaseColor" v:prompt="" v:val="VT0(1):26"/>
					<v:ud v:nameU="BackFillColor" v:prompt="" v:val="VT5(#96afcf)"/>
					<v:ud v:nameU="BackLineColor" v:prompt="" v:val="VT5(#1f477d)"/>
					<v:ud v:nameU="DarkerColor" v:prompt="" v:val="VT5(#1f477d)"/>
					<v:ud v:nameU="HorzAlign" v:prompt="" v:val="VT0(1):26"/>
					<v:ud v:nameU="FillForegndIn" v:prompt="" v:val="VT0(1):26"/>
					<v:ud v:nameU="FillBkgndIn" v:prompt="" v:val="VT5(#ffffff)"/>
					<v:ud v:nameU="FillPatternIn" v:prompt="" v:val="VT0(1):26"/>
				</v:userDefs>
				<title>Sheet.1031</title>
				<g id="shape1032-21" v:mID="1032" v:groupContext="shape" v:layerMember="1" transform="translate(2.88,2.88)">
					<title>Sheet.1032</title>
					<v:userDefs>
						<v:ud v:nameU="msvStructureType" v:prompt="" v:val="VT0(0):26"/>
						<v:ud v:nameU="msvThemeColors" v:prompt="" v:val="VT0(0):26"/>
						<v:ud v:nameU="msvThemeEffects" v:prompt="" v:val="VT0(0):26"/>
						<v:ud v:nameU="CStyle" v:prompt="" v:val="VT0(1):26"/>
						<v:ud v:nameU="HSide" v:prompt="" v:val="VT0(0):26"/>
						<v:ud v:nameU="HSpan" v:prompt="" v:val="VT0(0):26"/>
						<v:ud v:nameU="HAlign" v:prompt="" v:val="VT0(0):26"/>
						<v:ud v:nameU="HorzAlign" v:prompt="" v:val="VT0(0):26"/>
						<v:ud v:nameU="SquareCorners" v:prompt="" v:val="VT0(0):26"/>
						<v:ud v:nameU="OffsetX10" v:prompt="" v:val="VT0(0.04):0"/>
						<v:ud v:nameU="OffsetY10" v:prompt="" v:val="VT0(-0.04):0"/>
						<v:ud v:nameU="BackFillColor" v:prompt="" v:val="VT5(#96afcf)"/>
						<v:ud v:nameU="BackLineColor" v:prompt="" v:val="VT5(#1f477d)"/>
						<v:ud v:nameU="DarkerColor" v:prompt="" v:val="VT5(#1f477d)"/>
						<v:ud v:nameU="HorzAlign" v:prompt="" v:val="VT0(1):26"/>
					</v:userDefs>
				</g>
				<g id="shape1031-23" v:mID="1031" v:groupContext="groupContent" v:layerMember="1">
					<path d="M36 585 L175.56 585 L315.13 585 A36 36 -180 0 0 351.13 549 L351.13 226.69 A36 36 -180 0 0 315.13 190.69
								 L175.56 190.69 L36 190.69 A36 36 -180 0 0 0 226.69 L0 549 A36 36 -180 0 0 36 585 Z" class="st2"/>
				</g>
			</g>
			<g id="group1033-25" transform="translate(0,-367.313)" v:mID="1033" v:groupContext="group" v:layerMember="1">
				<v:userDefs>
					<v:ud v:nameU="msvStructureType" v:prompt="" v:val="VT4(Heading)"/>
					<v:ud v:nameU="CStyle" v:prompt="" v:val="VT0(1):26"/>
					<v:ud v:nameU="HSide" v:prompt="" v:val="VT0(0):26"/>
					<v:ud v:nameU="HSpan" v:prompt="" v:val="VT0(0):26"/>
					<v:ud v:nameU="HAlign" v:prompt="" v:val="VT0(0):26"/>
					<v:ud v:nameU="Hidden" v:prompt="" v:val="VT0(0):5"/>
					<v:ud v:nameU="HorzAlign" v:prompt="" v:val="VT0(0):26"/>
					<v:ud v:nameU="Rounding" v:prompt="" v:val="VT0(0):1"/>
					<v:ud v:nameU="SquareCorners" v:prompt="" v:val="VT0(3):26"/>
					<v:ud v:nameU="Inset" v:prompt="" v:val="VT0(0):0"/>
					<v:ud v:nameU="InsideRadius" v:prompt="" v:val="VT0(0):0"/>
					<v:ud v:nameU="InsetXInt" v:prompt="" v:val="VT0(0):0"/>
					<v:ud v:nameU="HTxtMargin" v:prompt="" v:val="VT0(0.0625):0"/>
					<v:ud v:nameU="HTxtWidth" v:prompt="" v:val="VT0(3):1"/>
					<v:ud v:nameU="HLeft" v:prompt="" v:val="VT0(0):26"/>
					<v:ud v:nameU="HRight" v:prompt="" v:val="VT0(3):1"/>
					<v:ud v:nameU="SquareCorners7" v:prompt="" v:val="VT0(3):26"/>
					<v:ud v:nameU="Offset" v:prompt="" v:val="VT0(0):26"/>
					<v:ud v:nameU="Rounding8" v:prompt="" v:val="VT0(0.125):0"/>
					<v:ud v:nameU="InsetX9" v:prompt="" v:val="VT0(0):26"/>
					<v:ud v:nameU="InsetY9" v:prompt="" v:val="VT0(0):26"/>
					<v:ud v:nameU="OffsetY11" v:prompt="" v:val="VT0(0):26"/>
					<v:ud v:nameU="OffsetY12" v:prompt="" v:val="VT0(0):26"/>
					<v:ud v:nameU="Width12" v:prompt="" v:val="VT0(0):26"/>
					<v:ud v:nameU="msvSDContainerHeadingEdge" v:prompt="" v:val="VT4(Bottom)"/>
					<v:ud v:nameU="HLineVisible" v:prompt="" v:val="VT0(0):5"/>
					<v:ud v:nameU="HFillVisible" v:prompt="" v:val="VT0(0):5"/>
					<v:ud v:nameU="FillForegndIn" v:prompt="" v:val="VT5(#ffffff)"/>
					<v:ud v:nameU="FillBkgndIn" v:prompt="" v:val="VT0(1):26"/>
					<v:ud v:nameU="BaseColor" v:prompt="" v:val="VT0(1):26"/>
					<v:ud v:nameU="FillPatternIn" v:prompt="" v:val="VT0(30):26"/>
					<v:ud v:nameU="BackFillColor" v:prompt="" v:val="VT5(#96afcf)"/>
					<v:ud v:nameU="BackLineColor" v:prompt="" v:val="VT5(#1f477d)"/>
					<v:ud v:nameU="BackCharColor" v:prompt="" v:val="VT5(#000000)"/>
					<v:ud v:nameU="DarkerColor" v:prompt="" v:val="VT5(#000000)"/>
					<v:ud v:nameU="HorzAlign" v:prompt="" v:val="VT0(1):26"/>
					<v:ud v:nameU="Rounding" v:prompt="" v:val="VT0(0.1875):0"/>
					<v:ud v:nameU="InsideRadius" v:prompt="" v:val="VT0(0.1875):0"/>
					<v:ud v:nameU="HTxtWidth" v:prompt="" v:val="VT0(4.8767361662454):1"/>
					<v:ud v:nameU="HRight" v:prompt="" v:val="VT0(4.8767361662454):1"/>
					<v:ud v:nameU="FillForegndIn" v:prompt="" v:val="VT5(#ffffff)"/>
					<v:ud v:nameU="FillBkgndIn" v:prompt="" v:val="VT0(1):26"/>
					<v:ud v:nameU="BaseColor" v:prompt="" v:val="VT5(#ffffff)"/>
					<v:ud v:nameU="FillPatternIn" v:prompt="" v:val="VT0(1):26"/>
				</v:userDefs>
				<title>Sheet.1033</title>
				<desc>Azure Operator Call Protection</desc>
				<g id="shape1034-26" v:mID="1034" v:groupContext="shape" v:layerMember="1">
					<title>Sheet.1034</title>
					<v:userDefs>
						<v:ud v:nameU="msvStructureType" v:prompt="" v:val="VT0(0):26"/>
						<v:ud v:nameU="msvThemeColors" v:prompt="" v:val="VT0(0):26"/>
						<v:ud v:nameU="msvThemeEffects" v:prompt="" v:val="VT0(0):26"/>
						<v:ud v:nameU="CStyle" v:prompt="" v:val="VT0(1):26"/>
						<v:ud v:nameU="Rounding" v:prompt="" v:val="VT0(0):1"/>
						<v:ud v:nameU="SquareCorners" v:prompt="" v:val="VT0(3):26"/>
						<v:ud v:nameU="HLeft" v:prompt="" v:val="VT0(0):26"/>
						<v:ud v:nameU="HRight" v:prompt="" v:val="VT0(3):1"/>
						<v:ud v:nameU="Hidden" v:prompt="" v:val="VT0(0):5"/>
						<v:ud v:nameU="BowHeight7" v:prompt="" v:val="VT0(0.125):0"/>
						<v:ud v:nameU="Offset7" v:prompt="" v:val="VT0(0.0052083333333333):3"/>
						<v:ud v:nameU="AnchorPt7" v:prompt="" v:val="VT0(0.58854166666667):0"/>
						<v:ud v:nameU="HSide" v:prompt="" v:val="VT0(0):26"/>
						<v:ud v:nameU="HAlign" v:prompt="" v:val="VT0(0):26"/>
						<v:ud v:nameU="Rounding" v:prompt="" v:val="VT0(0.1875):0"/>
						<v:ud v:nameU="HRight" v:prompt="" v:val="VT0(4.8767361662454):1"/>
						<v:ud v:nameU="AnchorPt7" v:prompt="" v:val="VT0(0.68229166666667):0"/>
					</v:userDefs>
				</g>
				<g id="shape1033-29" v:mID="1033" v:groupContext="groupContent" v:layerMember="1">
					<v:textBlock v:margins="rect(4,6,4,6)" v:verticalAlign="2"/>
					<v:textRect cx="175.687" cy="571.5" width="351.13" height="27"/>
					<text x="71.65" y="576.8" class="st3" v:langID="2057"><v:paragraph v:horizAlign="1"/><v:tabList/>Azure Operator Call Protection</text>				</g>
			</g>
		</g>
		<g id="shape2-32" v:mID="2" v:groupContext="shape" transform="translate(334.136,-425.142)">
			<title>Sheet.2</title>
			<desc>Global SMS network</desc>
			<v:textBlock v:margins="rect(0,0,0,0)"/>
			<v:textRect cx="75.1325" cy="509.217" width="150.27" height="151.565"/>
			<path d="M15.29 484.04 C13.6 467.15 22.29 451.6 34.7 449.3 C39.73 448.37 44.84 449.76 49.22 453.25 C53.86 441.35 64.7
						 436.83 73.43 443.15 C74.96 444.25 76.36 445.66 77.6 447.31 C81.21 437.44 90.01 433.43 97.25 438.36 C99.26
						 439.72 101.01 441.69 102.37 444.11 C108.19 434.79 118.48 433.63 125.35 441.54 C128.24 444.86 130.19 449.45
						 130.86 454.51 C140.4 458.05 146.03 471.47 143.43 484.49 C143.21 485.58 142.94 486.65 142.61 487.7 C150.27
						 501.26 148.39 520.69 138.43 531.11 C135.33 534.35 131.66 536.45 127.79 537.2 C127.7 551.79 118.94 563.52
						 108.21 563.41 C104.63 563.37 101.12 561.98 98.08 559.4 C94.45 575.75 81.79 585 69.81 580.05 C64.79 577.97
						 60.45 573.58 57.53 567.63 C45.26 577.7 29.33 572.28 21.96 555.53 C21.86 555.31 21.77 555.1 21.69 554.89
						 C13.65 556.17 6.38 548.37 5.44 537.47 C4.94 531.66 6.34 525.84 9.29 521.57 C2.34 516 0 503.77 4.07 494.26
						 C6.42 488.77 10.54 485.14 15.16 484.49 L15.29 484.04 Z" class="st4"/>
			<text x="25.95" y="512.52" class="st5" v:langID="2057"><v:paragraph v:horizAlign="1"/><v:tabList/>Global SMS network</text>		</g>
		<g id="shape3-35" v:mID="3" v:groupContext="shape" transform="translate(343.581,-443.098)">
			<title>Sheet.3</title>
			<path d="M8.5 541.64 C5.54 541.96 2.57 541.02 0 538.96 L8.5 541.64 ZM16.01 570.93 C14.82 571.57 13.57 572 12.29 572.21
						 L16.01 570.93 ZM48.08 585 C47.18 583.17 46.43 581.21 45.83 579.16 L48.08 585 ZM89.55 570.43 C89.41 572.6
						 89.11 574.75 88.65 576.84 L89.55 570.43 ZM107.35 530.82 C114.08 535.28 118.33 544.6 118.27 554.78 L107.35
						 530.82 ZM133.1 505.3 C132.01 508.76 130.35 511.84 128.24 514.28 L133.1 505.3 ZM121.43 471.96 C121.62 473.36
						 121.71 474.78 121.69 476.2 L121.43 471.96 ZM90.39 467.01 C91.02 465.05 91.86 463.23 92.88 461.6 L90.39 467.01
						 ZM67.09 469.59 C67.35 467.97 67.76 466.4 68.3 464.92 L67.09 469.59 ZM39.76 471.18 C41.34 472.44 42.81 473.96
						 44.12 475.7 L39.76 471.18 ZM6.6 506.76 C6.26 505.2 6 503.61 5.84 501.99 L6.6 506.76 Z" class="st6"/>
			<path d="M8.5 541.64 C5.54 541.96 2.57 541.02 0 538.96M16.01 570.93 C14.82 571.57 13.57 572 12.29 572.21M48.08 585 C47.18
						 583.17 46.43 581.21 45.83 579.16M89.55 570.43 C89.41 572.6 89.11 574.75 88.65 576.84M107.35 530.82 C114.08
						 535.28 118.33 544.6 118.27 554.78M133.1 505.3 C132.01 508.76 130.35 511.84 128.24 514.28M121.43 471.96 C121.62
						 473.36 121.71 474.78 121.69 476.2M90.39 467.01 C91.02 465.05 91.86 463.23 92.88 461.6M67.09 469.59 C67.35
						 467.97 67.76 466.4 68.3 464.92M39.76 471.18 C41.34 472.44 42.81 473.96 44.12 475.7M6.6 506.76 C6.26 505.2
						 6 503.61 5.84 501.99" class="st7"/>
		</g>
		<g id="shape4-38" v:mID="4" v:groupContext="shape" transform="translate(311.295,-319.861)">
			<title>Sheet.4</title>
			<desc>Connectivity</desc>
			<v:textBlock v:margins="rect(0,0,0,0)"/>
			<v:textRect cx="97.4017" cy="600.075" width="194.81" height="92.4273"/>
			<path d="M32.47 492.57 L162.34 492.57 C180.27 492.57 194.8 513.26 194.8 538.79 C194.8 564.31 180.27 585 162.34 585 L32.47
						 585 C14.53 585 0 564.31 0 538.79 C0 513.26 14.53 492.57 32.47 492.57 Z" class="st8"/>
			<text x="67.44" y="603.37" class="st5" v:langID="2057"><v:paragraph v:horizAlign="1"/><v:tabList/>Connectivity</text>		</g>
		<g id="shape5-41" v:mID="5" v:groupContext="shape" transform="translate(441.165,-319.861)">
			<title>Sheet.5</title>
			<path d="M32.47 585 C14.53 585 0 564.31 0 538.79 C0 513.26 14.53 492.57 32.47 492.57 L32.47 585 Z" class="st6"/>
			<path d="M32.47 585 C14.53 585 0 564.31 0 538.79 C0 513.26 14.53 492.57 32.47 492.57" class="st7"/>
		</g>
		<g id="shape6-44" v:mID="6" v:groupContext="shape" transform="translate(311.295,-319.861)">
			<title>Sheet.6</title>
			<path d="M32.47 492.57 L162.34 492.57 C180.27 492.57 194.8 513.26 194.8 538.79 C194.8 564.31 180.27 585 162.34 585 L32.47
						 585 C14.53 585 0 564.31 0 538.79 C0 513.26 14.53 492.57 32.47 492.57 Z" class="st9"/>
		</g>
		<g id="shape19-46" v:mID="19" v:groupContext="shape" transform="translate(173.729,-190.687)">
			<title>Sheet.19</title>
			<desc>TAS / switch / IMS core</desc>
			<v:textBlock v:margins="rect(0,0,0,0)"/>
			<v:textRect cx="50.5948" cy="539.589" width="72" height="90.8227"/>
			<rect x="0" y="494.177" width="100.451" height="90.8227" class="st10"/>
			<text x="17.28" y="536.29" class="st5" v:langID="2057"><v:paragraph v:horizAlign="1"/><v:tabList/>TAS / switch / <tspan
						x="29.21" dy="1.2em" class="st11">IMS core</tspan></text>		</g>
		<g id="shape24-50" v:mID="24" v:groupContext="shape" transform="translate(596.921,-81.4916)">
			<title>Sheet.24</title>
			<path d="M7.36 580.22 L90.72 580.22 L90.72 580.96 L7.36 580.96 L7.36 580.22 ZM8.83 585 L0 580.59 L8.83 576.17 L8.83 585
						 ZM89.25 576.17 L98.08 580.59 L89.25 585 L89.25 576.17 Z" class="st12"/>
		</g>
		<g id="shape25-52" v:mID="25" v:groupContext="shape" transform="translate(596.921,-50.6825)">
			<title>Sheet.25</title>
			<path d="M7.36 580.22 L90.72 580.22 L90.72 580.96 L7.36 580.96 L7.36 580.22 ZM8.83 585 L0 580.59 L8.83 576.17 L8.83 585
						 ZM89.25 576.17 L98.08 580.59 L89.25 585 L89.25 576.17 Z" class="st13"/>
		</g>
		<g id="shape26-54" v:mID="26" v:groupContext="shape" transform="translate(710.588,-74.0942)">
			<title>Sheet.26</title>
			<desc>SIP signalling</desc>
			<v:textBlock v:margins="rect(0,0,0,0)"/>
			<v:textRect cx="125.804" cy="574.217" width="251.61" height="21.5664"/>
			<rect x="0" y="563.434" width="251.608" height="21.5664" class="st14"/>
			<text x="0" y="577.52" class="st15" v:langID="2057"><v:paragraph/><v:tabList/>SIP signalling</text>		</g>
		<g id="shape27-57" v:mID="27" v:groupContext="shape" transform="translate(710.588,-45.2107)">
			<title>Sheet.27</title>
			<desc>RTP media</desc>
			<v:textBlock v:margins="rect(0,0,0,0)"/>
			<v:textRect cx="80.8739" cy="574.217" width="161.75" height="21.5664"/>
			<rect x="0" y="563.434" width="161.748" height="21.5664" class="st14"/>
			<text x="0" y="577.52" class="st16" v:langID="2057"><v:paragraph/><v:tabList/>RTP media</text>		</g>
		<g id="shape33-60" v:mID="33" v:groupContext="shape" transform="translate(173.729,-320.342)">
			<title>Sheet.33</title>
			<desc>SIPREC SRC</desc>
			<v:textBlock v:margins="rect(0,0,0,0)"/>
			<v:textRect cx="50.3857" cy="538.144" width="100.78" height="93.711"/>
			<rect x="0" y="491.289" width="100.771" height="93.711" class="st10"/>
			<text x="22.32" y="541.44" class="st5" v:langID="2057"><v:paragraph v:horizAlign="1"/><v:tabList/>SIPREC SRC</text>		</g>
		<g id="shape38-63" v:mID="38" v:groupContext="shape" transform="translate(596.921,-110.696)">
			<title>Sheet.38</title>
			<path d="M7.36 580.22 L98.08 580.22 L98.08 580.96 L7.36 580.96 L7.36 580.22 ZM8.83 585 L0 580.59 L8.83 576.17 L8.83 585
						 Z" class="st17"/>
		</g>
		<g id="shape39-65" v:mID="39" v:groupContext="shape" transform="translate(710.151,-103.299)">
			<title>Sheet.39</title>
			<desc>SMS notification</desc>
			<v:textBlock v:margins="rect(0,0,0,0)"/>
			<v:textRect cx="143.776" cy="574.217" width="287.56" height="21.5664"/>
			<rect x="0" y="563.434" width="287.552" height="21.5664" class="st14"/>
			<text x="0" y="577.52" class="st18" v:langID="2057"><v:paragraph/><v:tabList/>SMS notification</text>		</g>
		<g id="group41-68" transform="translate(44.9148,-217.511)" v:mID="41" v:groupContext="group">
			<title>Sheet.41</title>
			<desc>Subscriber</desc>
			<g id="shape42-69" v:mID="42" v:groupContext="shape" transform="translate(2.85819,-5.71894)">
				<title>Sheet.42</title>
				<path d="M1.14 546.12 L0 546.12 L0 585 L22.87 585 L22.87 546.12 L1.14 546.12 ZM21.72 583.86 L1.14 583.86 L1.14 547.26
							 L21.72 547.26 L21.72 583.86 Z" class="st19"/>
			</g>
			<g id="shape43-71" v:mID="43" v:groupContext="shape">
				<title>Sheet.43</title>
				<path d="M27.44 534.68 L1.14 534.68 C0.51 534.68 0 535.19 0 535.82 L0 583.86 C0 584.49 0.51 585 1.14 585 L27.44 585
							 C28.07 585 28.58 584.49 28.58 583.86 L28.58 535.82 C28.58 535.19 28.07 534.68 27.44 534.68 ZM27.44 583.86
							 L1.14 583.86 L1.14 535.82 L27.44 535.82 L27.44 583.86 Z" class="st19"/>
			</g>
			<g id="shape44-73" v:mID="44" v:groupContext="shape" transform="translate(11.4331,-46.3196)">
				<title>Sheet.44</title>
				<path d="M0.57 585 L5.72 585 C6.03 585 6.29 584.75 6.29 584.43 C6.29 584.11 6.03 583.86 5.72 583.86 L0.57 583.86
							 C0.26 583.86 0 584.11 0 584.43 C0 584.75 0.26 585 0.57 585 Z" class="st19"/>
			</g>
			<g id="shape41-75" v:mID="41" v:groupContext="groupContent">
				<v:textBlock v:margins="rect(0,0,0,0)"/>
				<v:textRect cx="13.6279" cy="595.511" width="90.09" height="29.6608"/>
				<text x="-11.78" y="598.81" class="st5" v:langID="2057"><v:paragraph v:horizAlign="1"/><v:tabList/>Subscriber</text>			</g>
		</g>
		<g id="group45-77" transform="translate(206.323,-33.94)" v:mID="45" v:groupContext="group">
			<title>Sheet.45</title>
			<desc>Calling party (on- or off-net)</desc>
			<g id="shape46-78" v:mID="46" v:groupContext="shape" transform="translate(2.85828,-5.71798)">
				<title>Sheet.46</title>
				<path d="M1.14 546.11 L0 546.11 L0 585 L22.87 585 L22.87 546.11 L1.14 546.11 ZM21.72 583.86 L1.14 583.86 L1.14 547.26
							 L21.72 547.26 L21.72 583.86 Z" class="st19"/>
			</g>
			<g id="shape47-80" v:mID="47" v:groupContext="shape">
				<title>Sheet.47</title>
				<path d="M27.44 534.68 L1.14 534.68 C0.51 534.68 0 535.19 0 535.82 L0 583.86 C0 584.49 0.51 585 1.14 585 L27.44 585
							 C28.07 585 28.58 584.49 28.58 583.86 L28.58 535.82 C28.58 535.19 28.07 534.68 27.44 534.68 ZM27.44 583.86
							 L1.14 583.86 L1.14 535.82 L27.44 535.82 L27.44 583.86 Z" class="st19"/>
			</g>
			<g id="shape48-82" v:mID="48" v:groupContext="shape" transform="translate(11.4331,-46.3181)">
				<title>Sheet.48</title>
				<path d="M0.57 585 L5.72 585 C6.03 585 6.29 584.74 6.29 584.43 C6.29 584.11 6.03 583.86 5.72 583.86 L0.57 583.86
							 C0.26 583.86 0 584.11 0 584.43 C0 584.74 0.26 585 0.57 585 Z" class="st19"/>
			</g>
			<g id="shape45-84" v:mID="45" v:groupContext="groupContent">
				<v:textBlock v:margins="rect(0,0,0,0)"/>
				<v:textRect cx="21.2657" cy="593.78" width="157.51" height="50.3196"/>
				<text x="-47.49" y="597.08" class="st5" v:langID="2057"><v:paragraph v:horizAlign="1"/><v:tabList/>Calling party (on- or off-net)</text>			</g>
		</g>
		<g id="group54-86" transform="translate(677.375,-449.67)" v:mID="54" v:groupContext="group">
			<title>Sheet.54</title>
			<desc>Azure Operator Call Protection</desc>
			<g id="shape55-87" v:mID="55" v:groupContext="shape">
				<title>Sheet.55</title>
				<path d="M0 533.66 C0 532.36 1.06 531.29 2.37 531.29 C10.77 531.29 18.96 528.32 26.98 522.3 C27.82 521.67 28.98 521.67
							 29.82 522.3 C37.84 528.32 46.03 531.29 54.44 531.29 C55.74 531.29 56.8 532.36 56.8 533.66 L56.8 550.23
							 C56.8 566.01 47.47 577.61 29.27 584.78 C28.71 585 28.09 585 27.53 584.78 C9.33 577.61 0 566.01 0 550.23
							 L0 533.66 Z" class="st20"/>
			</g>
			<g id="shape56-91" v:mID="56" v:groupContext="shape" transform="translate(15.476,-14.3589)">
				<title>Sheet.56</title>
				<path d="M4.84 550.55 L6.72 549.95 C8.48 549.39 10.36 550.3 11.11 552.07 L12.61 555.61 C13.26 557.15 12.9 558.96
							 11.71 560.08 L8.41 563.22 C8.61 565.09 9.24 566.94 10.3 568.76 C11.35 570.57 12.67 572.08 14.26 573.28
							 L18.22 571.96 C19.73 571.46 21.36 572.03 22.29 573.39 L24.44 576.54 C25.51 578.12 25.32 580.29 23.99
							 581.63 L22.56 583.06 C21.14 584.48 19.11 585 17.24 584.42 C12.81 583.03 8.74 578.94 5.03 572.12 C1.31
							 565.29 0 559.5 1.09 554.74 C1.55 552.74 2.98 551.14 4.84 550.55 L4.84 550.55 Z" class="st21"/>
			</g>
			<g id="shape57-95" v:mID="57" v:groupContext="shape" transform="translate(15.476,-13.3048)">
				<title>Sheet.57</title>
				<path d="M4.84 550.55 L6.72 549.95 C8.48 549.39 10.36 550.3 11.11 552.07 L12.61 555.61 C13.26 557.15 12.9 558.96
							 11.71 560.08 L8.41 563.22 C8.61 565.09 9.24 566.94 10.3 568.76 C11.35 570.57 12.67 572.08 14.26 573.28
							 L18.22 571.96 C19.73 571.46 21.36 572.03 22.29 573.39 L24.44 576.54 C25.51 578.12 25.32 580.29 23.99
							 581.63 L22.56 583.06 C21.14 584.48 19.11 585 17.24 584.42 C12.81 583.03 8.74 578.94 5.03 572.12 C1.31
							 565.29 0 559.5 1.09 554.74 C1.55 552.74 2.98 551.14 4.84 550.55 L4.84 550.55 Z" class="st22"/>
			</g>
			<g id="shape54-99" v:mID="54" v:groupContext="groupContent">
				<v:textBlock v:margins="rect(0,0,0,0)"/>
				<v:textRect cx="101.25" cy="554.787" width="79.64" height="54.5625"/>
				<text x="63.84" y="551.49" class="st5" v:langID="2057"><v:paragraph v:horizAlign="1"/><v:tabList/>Azure Operator <tspan
							x="65.85" dy="1.2em" class="st11">Call Protection</tspan></text>			</g>
		</g>
		<g id="shape1001-102" v:mID="1001" v:groupContext="shape" v:layerMember="0" transform="translate(677.375,-491.484)">
			<title>Dynamic connector.1001</title>
			<path d="M0 585 L-617.75 585 L-617.75 797.74" class="st23"/>
		</g>
		<g id="group1004-108" transform="translate(567,-333)" v:mID="1004" v:groupContext="group">
			<title>Sheet.1004</title>
			<desc>Azure Communications Gateway</desc>
			<g id="shape1005-109" v:mID="1005" v:groupContext="shape" transform="translate(11.5885,-11.13)">
				<title>Sheet.1005</title>
				<path d="M25.53 566.56 L25.53 562.68 C25.36 562.04 25.3 561.39 25.33 560.73 L14.07 560.73 C14.1 561.39 14.04 562.04
							 13.88 562.68 L13.88 566.56 C14.04 567.19 14.11 567.85 14.07 568.5 L25.33 568.5 C25.3 567.85 25.36 567.19
							 25.53 566.56 ZM26.49 557.04 C26.72 557.6 26.85 558.19 26.88 558.78 L31.94 558.8 C31.56 557.98 31.1 557.2
							 30.58 556.47 L28.84 554.53 L26.49 552.98 L24.17 551.81 C24.53 552.3 24.86 552.81 25.14 553.36 L25.91
							 555.1 L26.49 557.05 L26.49 557.04 ZM26.49 576.26 L28.82 574.71 L30.57 572.77 C31.09 572.04 31.55 571.26
							 31.94 570.44 L26.88 570.44 C26.85 571.04 26.72 571.63 26.49 572.18 L25.91 574.12 L25.14 575.86 C24.86
							 576.41 24.53 576.93 24.17 577.43 C25.01 577.19 25.8 576.8 26.49 576.26 L26.49 576.26 ZM37.51 560.33
							 L39.52 558.31 C37.29 551.26 31.4 545.85 24.09 544.28 L24.09 546.82 C30.71 548.46 35.92 553.69 37.51
							 560.33 ZM6.12 564.62 C6.11 565.94 6.31 567.25 6.71 568.5 L12.14 568.5 C12.17 567.85 12.1 567.2 11.95
							 566.56 L11.95 562.68 C12.11 562.04 12.17 561.39 12.14 560.73 L6.71 560.73 C6.31 561.99 6.11 563.3 6.12
							 564.62 L6.12 564.62 ZM12.91 557.06 L13.5 555.11 L14.27 553.37 C14.55 552.82 14.88 552.3 15.25 551.8
							 C14.4 552.03 13.61 552.43 12.92 552.97 L10.59 554.53 L8.85 556.47 C8.32 557.2 7.86 557.98 7.48 558.8
							 L12.53 558.8 C12.56 558.2 12.69 557.61 12.92 557.06 L12.91 557.06 ZM10.59 574.71 L12.91 576.26 C13.61
							 576.8 14.4 577.19 15.24 577.42 C14.87 576.93 14.55 576.41 14.27 575.87 L13.49 574.13 L12.91 572.19 C12.69
							 571.63 12.56 571.05 12.52 570.45 L7.48 570.44 C7.86 571.26 8.31 572.04 8.84 572.77 L10.58 574.71 L10.59
							 574.71 ZM24.94 570.45 L14.47 570.45 C14.53 570.92 14.66 571.37 14.85 571.8 L15.43 573.55 C15.61 574.16
							 15.87 574.75 16.21 575.29 L17.18 576.65 L18.35 577.81 L19.7 578.2 L21.06 577.81 L22.22 576.65 L23.19
							 575.29 C23.53 574.75 23.79 574.16 23.97 573.55 L24.55 571.8 C24.75 571.37 24.88 570.92 24.94 570.45
							 L24.94 570.45 ZM1.98 569.2 L0 571.19 C2.35 578.22 8.34 583.57 15.74 585 L15.74 582.48 C9.03 580.99 3.71
							 575.82 1.98 569.2 ZM24.08 582.37 L24.08 584.92 C31.4 583.35 37.29 577.94 39.52 570.89 L37.51 568.87
							 C35.91 575.51 30.71 580.74 24.08 582.37 ZM15.74 546.71 L15.74 544.19 C8.34 545.62 2.35 550.98 0 558
							 L1.98 560 C3.71 553.37 9.03 548.2 15.74 546.71 ZM33.29 564.62 C33.3 563.3 33.1 561.99 32.7 560.74 L27.27
							 560.74 C27.24 561.39 27.3 562.05 27.46 562.68 L27.46 566.56 C27.3 567.2 27.24 567.85 27.27 568.5 L32.7
							 568.5 C33.1 567.25 33.3 565.94 33.29 564.62 L33.29 564.62 ZM14.86 557.43 C14.66 557.86 14.53 558.32
							 14.47 558.79 L24.95 558.79 C24.88 558.32 24.76 557.86 24.56 557.43 L23.98 555.69 C23.8 555.08 23.54
							 554.49 23.2 553.95 L22.23 552.59 L21.07 551.43 L19.71 551.04 L18.35 551.43 L17.19 552.59 L16.22 553.95
							 C15.88 554.49 15.62 555.08 15.44 555.69 L14.86 557.43 L14.86 557.43 Z" class="st25"/>
			</g>
			<g id="shape1006-113" v:mID="1006" v:groupContext="shape" transform="translate(23.597,1.13687E-13)">
				<title>Sheet.1006</title>
				<path d="M0.48 530.09 L4.82 530.09 C5.04 530.09 5.21 530.26 5.21 530.47 L5.21 537.47 C5.21 537.69 5.38 537.86 5.59
							 537.86 L10.21 537.86 C10.43 537.86 10.6 537.69 10.6 537.47 L10.6 530.47 C10.6 530.26 10.77 530.09 10.98
							 530.09 L15.32 530.09 C15.51 530.13 15.7 530.02 15.75 529.83 C15.78 529.69 15.73 529.54 15.6 529.46 L8.18
							 522.07 C8.02 521.93 7.78 521.93 7.62 522.07 L0.2 529.46 C0.04 529.57 0 529.78 0.11 529.94 C0.19 530.07
							 0.34 530.12 0.48 530.09 ZM15.32 576.84 L10.98 576.84 C10.77 576.84 10.6 576.67 10.6 576.46 L10.6 569.46
							 C10.6 569.24 10.43 569.07 10.21 569.07 L5.59 569.07 C5.38 569.07 5.21 569.24 5.21 569.46 L5.21 576.46
							 C5.21 576.67 5.04 576.84 4.82 576.84 L0.48 576.84 C0.34 576.81 0.19 576.86 0.11 576.98 C0 577.15 0.04
							 577.36 0.2 577.47 L7.62 584.86 C7.78 585 8.02 585 8.18 584.86 L15.6 577.47 C15.73 577.39 15.78 577.24
							 15.75 577.1 C15.7 576.91 15.51 576.8 15.32 576.84 Z" class="st26"/>
			</g>
			<g id="shape1007-115" v:mID="1007" v:groupContext="shape" transform="translate(0,-23.632)">
				<title>Sheet.1007</title>
				<path d="M62.61 574.4 L55.61 574.4 C55.4 574.4 55.23 574.23 55.23 574.02 L55.23 569.68 C55.28 569.49 55.16 569.3
							 54.97 569.25 C54.83 569.22 54.68 569.27 54.6 569.4 L47.21 576.82 C47.07 576.98 47.07 577.22 47.21 577.38
							 L54.6 584.8 C54.71 584.96 54.93 585 55.09 584.89 C55.21 584.81 55.26 584.66 55.23 584.52 L55.23 580.18
							 C55.23 579.96 55.4 579.79 55.61 579.79 L62.61 579.79 C62.83 579.79 63 579.62 63 579.41 L63 574.79 C63
							 574.57 62.83 574.4 62.61 574.4 ZM8.4 569.4 C8.32 569.27 8.17 569.22 8.03 569.25 C7.84 569.3 7.72 569.49
							 7.77 569.68 L7.77 574.02 C7.77 574.23 7.6 574.4 7.38 574.4 L0.39 574.4 C0.17 574.4 0 574.57 0 574.79
							 L0 579.41 C0 579.62 0.17 579.79 0.39 579.79 L7.38 579.79 C7.6 579.79 7.77 579.96 7.77 580.18 L7.77 584.52
							 C7.74 584.66 7.79 584.81 7.91 584.89 C8.07 585 8.29 584.96 8.4 584.8 L15.78 577.38 C15.93 577.22 15.93
							 576.98 15.78 576.82 L8.4 569.4 Z" class="st27"/>
			</g>
			<g id="shape1004-117" v:mID="1004" v:groupContext="groupContent">
				<v:textBlock v:margins="rect(0,0,0,0)"/>
				<v:textRect cx="31.5" cy="607.395" width="90" height="63.07"/>
				<text x="17.56" y="597.49" class="st5" v:langID="2057"><v:paragraph v:horizAlign="1"/><v:tabList/>Azure <tspan
							x="-9.36" dy="1.2em" class="st11">Communications </tspan><tspan x="10.75" dy="1.2em" class="st11">Gateway</tspan></text>			</g>
		</g>
		<g id="shape1008-121" v:mID="1008" v:groupContext="shape" v:layerMember="0" transform="translate(622.23,-370.338)">
			<title>Dynamic connector.1008</title>
			<path d="M0 585 L76.74 585 L76.74 514.8" class="st28"/>
		</g>
		<g id="shape1009-127" v:mID="1009" v:groupContext="shape" v:layerMember="0" transform="translate(712.726,-452.601)">
			<title>Dynamic connector.1009</title>
			<path d="M0 596.7 L0 597.06 L0 680.67 L-78.44 680.67" class="st30"/>
		</g>
		<g id="shape1010-136" v:mID="1010" v:groupContext="shape" v:layerMember="0" transform="translate(274.5,-379.125)">
			<title>Dynamic connector.1010</title>
			<path d="M0 594 L288.21 594" class="st28"/>
		</g>
		<g id="shape1011-141" v:mID="1011" v:groupContext="shape" v:layerMember="0" transform="translate(574.91,-347.743)">
			<title>Dynamic connector.1011</title>
			<path d="M-11.7 576 L-12.06 576 L-288.35 576" class="st30"/>
		</g>
		<g id="shape1015-148" v:mID="1015" v:groupContext="shape" v:layerMember="0" transform="translate(218.589,-320.342)">
			<title>Dynamic connector.1015</title>
			<path d="M9 596.7 L9 597.06 L9 611.77" class="st32"/>
		</g>
		<g id="shape1016-156" v:mID="1016" v:groupContext="shape" v:layerMember="0" transform="translate(206.323,-281.51)">
			<title>Dynamic connector.1016</title>
			<path d="M9 573.3 L9 572.94 L9 558.23" class="st30"/>
		</g>
		<g id="shape1017-163" v:mID="1017" v:groupContext="shape" v:layerMember="0" transform="translate(218.589,-190.687)">
			<title>Dynamic connector.1017</title>
			<path d="M9 596.7 L9 597.06 L9 679.37" class="st32"/>
		</g>
		<g id="shape1018-170" v:mID="1018" v:groupContext="shape" v:layerMember="0" transform="translate(224.602,-84.2596)">
			<title>Dynamic connector.1018</title>
			<path d="M-8.78 573.3 L-8.78 572.94 L-9.22 490.63" class="st30"/>
		</g>
		<g id="shape1021-177" v:mID="1021" v:groupContext="shape" v:layerMember="0" transform="translate(173.729,-243)">
			<title>Dynamic connector.1021</title>
			<path d="M-11.7 576 L-12.06 576 L-88.17 576" class="st32"/>
		</g>
		<g id="shape1022-184" v:mID="1022" v:groupContext="shape" v:layerMember="0" transform="translate(173.729,-245.812)">
			<title>Dynamic connector.1022</title>
			<path d="M-11.7 593.57 L-12.06 593.57 L-88.17 594.43" class="st30"/>
		</g>
		<g id="shape1023-191" v:mID="1023" v:groupContext="shape" transform="translate(-69.25,-287.82)">
			<title>Sheet.1023</title>
			<rect x="0" y="565" width="152" height="20" class="st33"/>
		</g>
		<g id="shape1024-195" v:mID="1024" v:groupContext="shape" transform="translate(-92.875,-700.695)">
			<title>Sheet.1024</title>
			<rect x="0" y="565" width="152" height="20" class="st33"/>
		</g>
	</g>
</svg>
