<svg width="874" height="366" xmlns="http://www.w3.org/2000/svg" xmlns:xlink="http://www.w3.org/1999/xlink" overflow="hidden"><defs><clipPath id="clip0"><path d="M121 236 995 236 995 602 121 602Z" fill-rule="evenodd" clip-rule="evenodd"/></clipPath><clipPath id="clip1"><path d="M186 428 312 428 312 553 186 553Z" fill-rule="evenodd" clip-rule="evenodd"/></clipPath><clipPath id="clip2"><path d="M186 428 312 428 312 553 186 553Z" fill-rule="evenodd" clip-rule="evenodd"/></clipPath><clipPath id="clip3"><path d="M186 428 312 428 312 553 186 553Z" fill-rule="evenodd" clip-rule="evenodd"/></clipPath><clipPath id="clip4"><path d="M449 428 690 428 690 553 449 553Z" fill-rule="evenodd" clip-rule="evenodd"/></clipPath><clipPath id="clip5"><path d="M449 428 690 428 690 553 449 553Z" fill-rule="evenodd" clip-rule="evenodd"/></clipPath><clipPath id="clip6"><path d="M449 428 690 428 690 553 449 553Z" fill-rule="evenodd" clip-rule="evenodd"/></clipPath><clipPath id="clip7"><path d="M478 236 652 236 652 339 478 339Z" fill-rule="evenodd" clip-rule="evenodd"/></clipPath><clipPath id="clip8"><path d="M478 236 652 236 652 339 478 339Z" fill-rule="evenodd" clip-rule="evenodd"/></clipPath><clipPath id="clip9"><path d="M478 236 652 236 652 339 478 339Z" fill-rule="evenodd" clip-rule="evenodd"/></clipPath><clipPath id="clip10"><path d="M802 428 927 428 927 553 802 553Z" fill-rule="evenodd" clip-rule="evenodd"/></clipPath><clipPath id="clip11"><path d="M802 428 927 428 927 553 802 553Z" fill-rule="evenodd" clip-rule="evenodd"/></clipPath><clipPath id="clip12"><path d="M802 428 927 428 927 553 802 553Z" fill-rule="evenodd" clip-rule="evenodd"/></clipPath></defs><g clip-path="url(#clip0)" transform="translate(-121 -236)"><g clip-path="url(#clip1)"><g clip-path="url(#clip2)"><g clip-path="url(#clip3)"><path d="M98.418 17.8516 71.4648 18.0859 15.625 18.5547 15.625 105.469C15.625 114.375 35.1563 122.051 60.5469 122.52L61.5234 122.52C64.9609 122.52 68.2813 122.324 71.4648 122.012 80.7706 121.448 89.8996 119.218 98.418 115.43 104.121 112.559 107.422 109.082 107.422 105.469L107.422 17.7734Z" fill="#FFFFFF" transform="matrix(1.008 0 -0 1 186 428)"/><path d="M97.6563 17.8516 97.6563 115.391C89.1379 119.179 80.0089 121.409 70.7031 121.973L70.7031 18.0859Z" fill="#E5E5E5" transform="matrix(1.008 0 -0 1 186 428)"/><path d="M15.625 18.5547 15.625 105.469C15.625 114.375 35.0586 122.051 60.5469 122.52L61.5234 122.52C87.4805 122.188 107.422 114.434 107.422 105.469L107.422 17.7734" stroke="#556A8A" stroke-width="3.90625" stroke-miterlimit="10" fill="none" transform="matrix(1.008 0 -0 1 186 428)"/><path d="M107.539 18.7891C107.539 27.9492 86.9922 35.3711 61.6406 35.3711 36.2891 35.3711 15.7422 27.9492 15.7422 18.7891 15.7422 9.62891 36.8945 2.22656 62.2461 2.22656 87.5977 2.22656 107.539 9.64844 107.539 18.8086" stroke="#556A8A" stroke-width="3.90625" stroke-miterlimit="10" fill="#55D2F6" transform="matrix(1.008 0 -0 1 186 428)"/><path d="M52.7344 50.7813 123.047 50.7813 123.047 97.6563 52.7344 97.6563ZM52.7344 66.4063 125 66.4063M52.7344 82.0313 125 82.0313M76.1719 50.7813 76.1719 97.6563M99.6094 50.7813 99.6094 97.6563" stroke="#556A8A" stroke-width="3.90625" stroke-miterlimit="10" fill="#FFFFFF" transform="matrix(1.008 0 -0 1 186 428)"/></g></g></g><path d="M330 490 420.434 490 420.434 494 330 494ZM418.434 486 430.434 492 418.434 498Z" fill="#556A8A"/><g clip-path="url(#clip4)"><g clip-path="url(#clip5)"><g clip-path="url(#clip6)"><path d="M-219.632-61.8693C-219.424-62.3118-219.331-62.5351-219.218-62.7492-216.21-68.4682-213.209-74.1915-210.173-79.8964-209.867-80.4694-209.905-80.8104-210.324-81.2999-215.109-86.8893-219.868-92.501-224.633-98.1074-224.8-98.3038-224.951-98.5141-225.015-98.8637-223.622-98.4995-222.228-98.1399-220.836-97.771-215.055-96.2391-209.273-94.7119-203.497-93.1591-202.958-93.0145-202.714-93.1722-202.446-93.6184-199.163-99.1018-195.862-104.574-192.565-110.048-192.394-110.332-192.211-110.608-191.848-110.847-191.583-109.387-191.313-107.927-191.053-106.465-190.134-101.306-189.219-96.1448-188.303-90.9846-188.203-90.4278-188.066-89.8734-188.019-89.312-187.972-88.7792-187.699-88.5828-187.218-88.4312-180.404-86.2923-173.598-84.1325-166.791-81.975-166.492-81.8807-166.2-81.7585-165.879-81.4669-171.448-79.2538-177.016-77.0409-182.671-74.7938-182.465-74.6304-182.331-74.5048-182.18-74.4066-178.699-72.1541-175.212-69.9106-171.739-67.6463-171.324-67.3757-170.994-67.3373-170.527-67.5476-166.369-69.4201-162.195-71.2572-158.03-73.117-156.161-73.952-154.479-75.0612-153.169-76.663-150.208-80.2854-150.792-84.4062-154.738-86.9233-156.029-87.7468-157.495-88.3647-158.957-88.8418-165.63-91.0155-172.328-93.1119-179.023-95.2153-179.584-95.3908-179.844-95.6421-179.949-96.2499-180.84-101.415-181.766-106.574-182.696-111.731-183.194-114.489-183.459-117.317-184.801-119.845-185.316-120.816-185.934-121.768-186.669-122.582-189.326-125.531-193.035-125.646-195.845-122.836-196.793-121.888-197.609-120.769-198.313-119.621-201.41-114.574-204.455-109.494-207.484-104.406-207.842-103.804-208.165-103.683-208.828-103.861-216.293-105.862-223.766-107.832-231.239-109.807-232.781-110.213-234.34-110.363-235.922-110.067-239.366-109.422-240.872-106.8-239.706-103.473-239.176-101.957-238.261-100.677-237.232-99.4676-232.017-93.3354-226.812-87.1963-221.579-81.0795-221.152-80.58-221.143-80.2181-221.439-79.6598-224.56-73.7768-227.654-67.8795-230.759-61.988-231.502-60.5773-232.069-59.1144-232.086-57.4951-232.123-53.812-229.43-50.7979-225.77-50.2615-223.72-49.9603-221.815-50.3983-219.895-50.9916-215.214-52.4385-210.525-53.8612-205.833-55.2722-205.398-55.4023-205.232-55.5724-205.156-56.0409-204.616-59.3425-204.027-62.6369-203.458-65.9339-203.442-66.0246-203.469-66.1224-203.483-66.3242-208.824-64.8507-214.119-63.3902-219.632-61.8693" fill="#E25A1C" fill-rule="evenodd" transform="matrix(-1.00375 -0 -0 1 449 552.935)"/><path d="M-210.505-13.7824C-206.284-13.7899-202.062-13.8093-197.84-13.7923-197.283-13.7909-196.967-13.9533-196.656-14.4273-191.659-22.0397-186.638-29.6373-181.622-37.2379-181.462-37.4799-181.292-37.7133-181.008-38.1202-179.928-29.911-178.872-21.8851-177.814-13.8389-174.12-13.8389-170.5-13.8389-166.759-13.8389-166.889-14.9161-167.002-15.957-167.138-16.994-168.218-25.2365-169.301-33.4789-170.385-41.7206-171.419-49.5957-172.451-57.4709-173.501-65.3446-173.532-65.5796-173.688-65.8763-173.88-66.001-177.684-68.4812-181.501-70.9401-185.318-73.4007-185.373-73.4369-185.451-73.4412-185.648-73.497-184.493-64.6915-183.347-55.9548-182.201-47.2178-182.247-47.187-182.292-47.156-182.337-47.1242-188.326-53.7624-194.315-60.4007-200.432-67.1812-200.609-66.1604-200.762-65.2868-200.913-64.4127-201.342-61.9098-201.753-59.4033-202.212-56.9055-202.305-56.4022-202.171-56.0889-201.836-55.7389-197.963-51.6861-194.105-47.6193-190.244-43.5565-190.076-43.3792-189.914-43.1952-189.722-42.985-189.845-42.7877-189.95-42.5983-190.075-42.4229-196.735-33.0745-203.396-23.7277-210.061-14.3832-210.182-14.2138-210.356-14.0808-210.505-13.9307-210.505-13.8815-210.505-13.8319-210.505-13.7824" fill="#3C3A3E" fill-rule="evenodd" transform="matrix(-1.00375 -0 -0 1 449 552.935)"/><path d="M-79.4664-38.0836C-79.2979-38.9452-79.1772-40.2102-78.7945-41.3919-76.9434-47.1043-71.082-50.2367-65.0153-48.8246-58.3602-47.2758-53.6041-42.0437-52.916-35.2527-52.4068-30.2296-55.1117-25.3902-60.1411-23.5739-64.1931-22.1101-68.0943-22.7224-71.7164-24.8945-76.5174-27.7751-79.1216-32.0514-79.4664-38.0836ZM-50.2409-16.8517C-49.9126-14.3941-49.5993-12.0781-49.2946-9.7604-48.8898-6.6796-48.4859-3.59822-48.0981-0.51593-48.0527-0.156168-47.9437 0.00241653-47.5574 0-44.5207-0.0123847-41.484-0.00936409-38.4476-0.0138951-38.3785-0.0138951-38.3093-0.0519555-38.1447-0.0981716-38.3283-1.55262-38.5069-3.0113-38.6978-4.46878-39.3678-9.57883-40.0362-14.6895-40.7162-19.7986-41.4937-25.6406-42.1096-31.5107-43.1052-37.3152-44.8686-47.5933-53.5881-56.4508-63.8201-58.6562-69.7521-59.9357-75.4291-59.3437-80.6078-56.0059-85.7726-52.6771-88.7351-47.8464-89.4102-41.7701-90.3652-33.1787-87.2032-26.0466-81.1004-20.1466-77.0953-16.2732-72.3-13.8117-66.7689-12.9798-61.0709-12.1204-55.715-13.071-50.9085-16.43-50.7318-16.553-50.5433-16.6605-50.2409-16.8517" fill="#3C3A3E" fill-rule="evenodd" transform="matrix(-1.00375 -0 -0 1 449 552.935)"/><path d="M-45.2925-65.692C-41.887-63.1567-38.6038-60.713-35.3064-58.2584-34.7751-59.097-34.2991-59.9321-33.7432-60.7094-32.3126-62.7085-30.5359-64.2021-27.9518-64.3834-25.8025-64.5341-23.9644-63.8261-22.5015-62.2415-21.193-60.8244-21.0221-58.8097-22.2448-57.2093-23.5908-55.4476-25.064-53.7763-26.5683-52.1455-29.0618-49.442-31.6683-46.8421-34.1459-44.1241-36.4003-41.6517-38.1972-38.8772-38.7521-35.4964-39.4122-31.4775-38.6105-27.6497-36.7093-24.1173-33.1911-17.5809-27.6509-13.7885-20.3369-12.6016-17.107-12.0781-13.8857-12.1823-10.734-13.1103-6.55123-14.3415-3.6399-17.0828-1.7677-20.9538-1.10617-22.3224-0.600207-23.7663 0-25.2332-3.66196-27.1926-7.21909-29.0966-10.8285-31.0283-10.9544-30.7274-11.0424-30.477-11.1598-30.2426-11.7751-29.0108-12.279-27.7022-13.0414-26.5686-15.3021-23.2071-18.9537-22.1841-22.6583-23.846-23.6098-24.2729-24.5263-24.8752-25.3069-25.5672-27.6941-27.6862-28.1417-30.6362-26.3746-33.3025-25.3594-34.8343-24.0896-36.2078-22.8534-37.5804-19.8992-40.8615-16.8248-44.0374-13.9389-47.3774-11.9494-49.6794-10.5977-52.3642-10.17-55.4476-9.70271-58.8142-10.376-61.991-12.128-64.8253-16.4835-71.8704-22.8127-75.5354-31.1842-75.2318-35.9568-75.0588-39.7571-72.827-42.7071-69.1189-43.58-68.0221-44.3981-66.8815-45.2925-65.692" fill="#3C3A3E" fill-rule="evenodd" transform="matrix(-1.00375 -0 -0 1 449 552.935)"/><path d="M-126.158-27.8692C-125.603-23.6256-125.079-19.592-124.535-15.5615-124.507-15.3577-124.347-15.0801-124.173-14.9988-115.933-11.1825-105.082-11.7154-98.3146-19.4002-94.6786-23.5289-93.1529-28.4293-93.381-33.881-93.9084-46.5011-104.372-57.5181-116.884-59.0574-124.195-59.9569-130.606-57.9823-135.559-52.3034-138.932-48.4346-140.493-43.8148-140.263-38.7165-140.111-35.3487-139.583-31.9958-139.164-28.6435-138.57-23.8956-137.921-19.1537-137.294-14.4095-137.271-14.2409-137.237-14.0739-137.2-13.8597-133.937-13.8597-130.694-13.8597-127.342-13.8597-127.473-14.9499-127.593-16.0171-127.731-17.0818-128.445-22.5617-129.23-28.0327-129.856-33.5222-130.245-36.9409-130-40.3341-128.437-43.5006-126.773-46.866-123.985-48.646-120.317-49.0351-112.726-49.8386-105.505-44.5639-103.885-37.0941-102.816-32.1629-104.502-27.4364-108.429-24.8236-112.256-22.2768-116.356-22.2684-120.527-23.92-122.642-24.7567-124.443-26.0816-126.158-27.8692" fill="#3C3A3E" fill-rule="evenodd" transform="matrix(-1.00375 -0 -0 1 449 552.935)"/><path d="M-167.667-58.0992C-167.217-54.6813-166.774-51.3145-166.321-47.8779-164.237-47.8779-162.193-47.89-160.15-47.8737-158.494-47.8607-156.983-46.792-156.486-45.2459-156.291-44.6412-156.219-43.9942-156.136-43.3599-155.099-35.5118-154.07-27.6635-153.04-19.8146-152.781-17.8358-152.528-15.8555-152.268-13.8465-148.848-13.8465-145.478-13.8465-142.007-13.8465-142.199-15.3559-142.38-16.8161-142.571-18.2744-143.238-23.3613-143.906-28.4462-144.581-33.5306-145.165-37.9308-145.686-42.3407-146.373-46.7245-147.295-52.6013-153.142-57.8201-159.072-58.0781-161.902-58.201-164.741-58.0992-167.667-58.0992" fill="#3C3A3E" fill-rule="evenodd" transform="matrix(-1.00375 -0 -0 1 449 552.935)"/><path d="M-222.602-13.8465-222.602-18.1777-222.577-18.1777-220.877-13.8465-220.335-13.8465-218.636-18.1777-218.61-18.1777-218.61-13.8465-217.754-13.8465-217.754-19.0344-219.076-19.0344-220.624-15.0931-222.149-19.0344-223.459-19.0344-223.459-13.8465-222.602-13.8465ZM-215.071-18.3409-215.071-13.8465-214.215-13.8465-214.215-18.3409-212.591-18.3409-212.591-19.0344-216.696-19.0344-216.696-18.3409-215.071-18.3409" fill="#3C3A3E" transform="matrix(-1.00375 -0 -0 1 449 552.935)"/><path d="M-59.0374-72.9769-61.5814-72.9769-60.9816-76.8285-59.0374-72.9769ZM-61.9808-70.4885-57.7482-70.4885-56.4037-67.8547-53.4063-67.8547-60.018-80.2065-62.9075-80.2065-65.1588-67.8547-62.3801-67.8547-61.9808-70.4885" fill="#3C3A3E" transform="matrix(-1.00375 -0 -0 1 449 552.935)"/><path d="M-77.1243-77.7188-75.6164-77.7188-75.1089-74.8672-76.6156-74.8672C-77.5247-74.8672-78.2516-75.4656-78.2516-76.5927-78.2516-77.3376-77.7961-77.7188-77.1243-77.7188ZM-73.4732-80.2065-77.4342-80.2065C-79.5051-80.2065-80.9574-78.9715-80.9574-76.847-80.9574-74.1764-79.0682-72.3788-76.3797-72.3788L-74.6727-72.3788-73.8725-67.8547-71.2944-67.8547-73.4732-80.2065" fill="#3C3A3E" transform="matrix(-1.00375 -0 -0 1 449 552.935)"/><path d="M-89.7187-72.9769-92.2629-72.9769-91.6628-76.8285-89.7187-72.9769ZM-92.6619-70.4885-88.4297-70.4885-87.0849-67.8547-84.0876-67.8547-90.6993-80.2065-93.5883-80.2065-95.8401-67.8547-93.0617-67.8547-92.6619-70.4885" fill="#3C3A3E" transform="matrix(-1.00375 -0 -0 1 449 552.935)"/><path d="M-109.395-68.2912C-108.524-67.8919-107.562-67.6545-106.598-67.6545-103.329-67.6545-101.276-70.1075-101.276-73.1775-101.276-77.1016-104.581-80.4075-108.506-80.4075-109.486-80.4075-110.377-80.1717-111.103-79.7719L-110.74-76.8101C-110.195-77.4103-109.322-77.8278-108.233-77.8278-105.981-77.8278-103.983-75.7925-103.983-73.4318-103.983-71.6339-105.109-70.2338-106.89-70.2338-107.98-70.2338-109.032-70.6519-109.741-71.2331L-109.395-68.2912" fill="#3C3A3E" transform="matrix(-1.00375 -0 -0 1 449 552.935)"/><path d="M-125.159-72.8322-119.782-72.8322-118.909-67.8547-116.331-67.8547-118.51-80.2065-121.09-80.2065-120.218-75.3206-125.595-75.3206-126.466-80.2065-129.045-80.2065-126.867-67.8547-124.287-67.8547-125.159-72.8322" fill="#3C3A3E" transform="matrix(-1.00375 -0 -0 1 449 552.935)"/><path d="M-134.618-67.8547-136.797-80.2065-143.646-80.2065-143.21-77.7188-138.94-77.7188-138.506-75.3206-142.428-75.3206-141.993-72.8322-138.069-72.8322-137.633-70.3435-141.902-70.3435-141.466-67.8547-134.618-67.8547" fill="#3C3A3E" transform="matrix(-1.00375 -0 -0 1 449 552.935)"/></g></g></g><g clip-path="url(#clip7)"><g clip-path="url(#clip8)"><g clip-path="url(#clip9)"><path d="M80.3419 102.11C74.5149 101.311 69.4106 99.4637 65.9796 96.9116 64.9524 96.1477 64.8802 96.1416 62.566 96.6318 61.2655 96.9073 59.2415 97.1352 58.0681 97.1385L55.9347 97.1445 55.9347 80.9221C55.9347 65.6473 55.8969 64.6255 55.2852 63.4335 53.651 60.2483 51.9999 59.608 45.4176 59.608L40.3401 59.608 39.9375 58.2646C39.2508 55.9726 37.1292 53.6613 34.5454 52.3897 32.5463 51.4061 31.9032 51.2578 29.6663 51.2643 25.3056 51.2771 21.6258 53.5541 19.7242 57.4164 19.0325 58.8213 18.8983 59.5988 18.9037 62.1673 18.9095 64.817 19.0336 65.4729 19.8085 66.9446 22.1536 71.3997 26.6072 73.6313 31.5925 72.8499 35.3768 72.2568 38.9546 69.3499 39.9375 66.0703L40.3401 64.7266 45.0124 64.7266C49.1052 64.7266 49.7544 64.8041 50.2492 65.3508 50.7569 65.9117 50.8144 67.5009 50.8144 81.0479 50.8144 89.3377 50.6897 96.1209 50.5375 96.1209 49.9298 96.1209 45.8635 94.3773 43.8623 93.2586 42.6936 92.6052 40.8343 91.3697 39.7302 90.5125 38.6266 89.6557 37.6297 88.9547 37.515 88.9547 37.4007 88.9547 36.4621 89.2516 35.4292 89.6143 26.4083 92.7838 15.9387 90.2628 8.89948 83.2259 6.51557 80.8428 5.24655 79.0589 3.62888 75.8168 1.17383 70.8966 0.300007 67.1661 0.295661 61.5871 0.290114 54.5531 2.67114 48.0522 7.45295 42.0451 10.6397 38.0417 16.9934 33.4506 22.1411 31.4317L24.5069 30.5038 25.2007 28.4205C26.5705 24.3073 28.8671 20.7986 32.7176 16.9362 38.4229 11.2132 44.37 8.30645 51.3053 7.85104L54.5467 7.63821 54.6431 26.2012 54.74 44.7641 55.6757 46.3555C56.1902 47.2305 57.1888 48.3055 57.8945 48.7439 59.1368 49.516 59.4737 49.5468 68.4681 49.7122 76.7894 49.8648 77.8223 49.9462 78.3675 50.4914 78.8999 51.0234 78.9763 51.7709 78.9763 56.4339L78.9763 61.7675 77.52 62.2538C75.4524 62.9437 72.5794 65.6845 71.6437 67.8582 68.0458 76.2195 74.9969 84.962 83.8001 83.147 87.2655 82.4328 89.7776 80.5159 91.5193 77.2578 92.171 76.0384 92.2893 75.2927 92.2893 72.4044 92.2893 69.2584 92.2104 68.8493 91.2753 67.1615 90.1234 65.0831 88.193 63.3592 85.8617 62.3284L84.2674 61.6235 84.2653 56.4357C84.2646 53.5824 84.0956 50.6333 83.8905 49.8826 83.3821 48.0219 82.1198 46.4437 80.4073 45.5287 79.0535 44.8055 78.4783 44.7548 69.769 44.5937L60.5616 44.4229 60.1308 43.5697C59.7995 42.9148 59.6984 38.499 59.6945 24.5621L59.6895 6.40749 61.2519 5.33297C66.0789 2.01318 72.3883 0.096908 78.4644 0.105358 81.9744 0.110263 82.7268 0.225836 85.573 1.19735L88.7561 2.28388 92.2296 1.17282C95.5128 0.122618 95.9833 0.0617743 100.824 0.0617743 104.641 0.0617743 106.491 0.21305 108.095 0.656387 111.459 1.58618 115.06 3.19903 118.266 5.21053 121.109 6.99512 121.29 7.0574 123.646 7.06311 128.483 7.07483 133.712 8.70146 138.122 11.566 141.399 13.6953 146.039 18.3473 148.253 21.7229 150.051 24.4661 152.571 29.577 153.222 31.8006 153.586 33.0443 153.876 33.3024 156.409 34.6334 159.922 36.4789 164.074 39.7853 166.648 42.7854 174.497 51.9338 175.98 63.0998 170.787 73.94 167.316 81.1848 160.496 86.8742 153.387 88.4552 149.962 89.217 144.714 89.0112 141.786 88.0001L139.738 87.293 137.69 89.367C135.006 92.0849 132.731 93.7431 129.339 95.4524 125.366 97.455 119.673 98.782 116.099 98.5383 115.765 98.5158 115.672 95.5364 115.672 84.8598L115.672 71.2103 126.372 71.2103C136.914 71.2103 137.093 71.1985 138.575 70.416 140.607 69.3435 141.958 67.1368 142.197 64.5025L142.378 62.5085 144.223 61.6953C146.526 60.6803 149.183 57.8659 149.943 55.635 150.653 53.5538 150.643 49.9387 149.923 47.8261 149.107 45.4301 146.142 42.5099 143.566 41.5649 138.085 39.5537 132.234 41.904 129.654 47.1529 128.482 49.5357 128.459 53.8707 129.605 56.3664 130.625 58.5883 133.362 61.1451 135.541 61.9111 137.233 62.5057 137.241 62.5149 137.07 63.8015 136.754 66.1786 137.18 66.0918 125.871 66.0918L115.672 66.0918 115.665 47.9207C115.658 30.9841 115.615 29.6569 115.027 28.3847 114.265 26.7327 113.184 25.6931 111.497 24.9885 110.52 24.5805 108.882 24.4604 104.294 24.4604L98.3561 24.4604 97.7787 22.949C95.6636 17.4132 89.3024 14.5423 83.7726 16.6282 81.4949 17.4875 78.7566 19.8202 77.7805 21.7329 76.2699 24.6931 76.2717 29.0091 77.7855 31.9747 78.8795 34.1189 81.2612 36.2509 83.5093 37.0984 86.3472 38.1685 90.2213 37.9452 92.7577 36.5654 95.2137 35.229 96.9298 33.2134 97.9066 30.5174L98.2464 29.579 103.834 29.579C108.814 29.579 109.484 29.6469 109.987 30.203 110.505 30.7748 110.552 33.6338 110.552 64.3271 110.552 85.5741 110.432 97.827 110.223 97.827 110.043 97.827 109.121 97.5218 108.175 97.1492L106.454 96.4714 104.539 97.6965C98.2989 101.686 89.2659 103.334 80.3419 102.11L80.3419 102.11ZM80.0003 78.4451C75.5485 76.8837 74.0783 71.9285 77.027 68.4252 78.1482 67.0933 79.7013 66.433 81.7132 66.433 86.2025 66.433 89.0662 71.2535 86.9918 75.3184 85.7802 77.6923 82.2963 79.2504 80.0003 78.4451L80.0003 78.4451ZM29.138 68.2988C28.9502 68.2437 28.386 68.1087 27.8842 67.9983 25.4622 67.4666 23.3291 64.2928 23.5875 61.6056 24.0309 56.9923 29.2811 54.4284 33.0037 57.0073 36.1731 59.2029 36.7097 63.5046 34.1513 66.2075 32.8063 67.6285 30.3487 68.6535 29.138 68.2988L29.138 68.2988ZM136.894 57.1892C132.363 54.8872 132.464 48.4981 137.068 46.2704 141.078 44.3303 145.711 47.273 145.711 51.7595 145.711 56.3045 140.939 59.2436 136.894 57.1892L136.894 57.1892ZM85.1146 32.5159C83.8533 31.9665 81.9654 29.8753 81.6707 28.7011 81.3123 27.2737 81.7368 24.4715 82.4592 23.4966 83.9709 21.4561 86.5144 20.412 88.8886 20.8572 90.5843 21.1752 92.9667 23.5403 93.4641 25.3988 94.7393 30.167 89.6607 34.496 85.1146 32.5159L85.1146 32.5159Z" fill="#2BC7F4" transform="matrix(1 0 -0 1.00447 478 236)"/><path d="M28.2128 68.0444C26.9517 67.7042 26.3066 67.3141 25.4174 66.3537 23.0196 63.7647 23.0434 60.2279 25.4749 57.8123 27.7584 55.5435 31.2785 55.4453 33.6199 57.5844 34.9944 58.8402 35.662 60.3298 35.662 62.1416 35.662 64.2735 34.6953 66.0057 32.8473 67.1844 31.1832 68.2462 29.8658 68.4906 28.2128 68.0444L28.2128 68.0444Z" fill="#2BC7F4" transform="matrix(1 0 -0 1.00447 478 236)"/><path d="M80.5716 78.5476C79.4372 78.335 77.6947 77.2614 76.9255 76.3013 76.6872 76.0037 76.307 75.3645 76.0809 74.8811 75.5503 73.7478 75.4338 72.1464 75.7872 70.8423 76.1838 69.3763 77.4407 67.786 78.7166 67.1354 79.4147 66.7796 80.7228 66.4769 81.5746 66.4744 86.1675 66.4616 89.0841 71.3664 86.8849 75.4049 85.7838 77.4275 82.724 78.9506 80.5716 78.5476L80.5716 78.5476Z" fill="#2BC7F4" transform="matrix(1 0 -0 1.00447 478 236)"/><path d="M85.9385 32.7601C84.986 32.5042 84.1445 31.946 83.2163 30.9538 81.9908 29.6445 81.7032 29.0543 81.6382 27.7187 81.5753 26.4276 81.8665 24.7268 82.2934 23.8902 82.9362 22.631 84.8927 21.2679 86.5512 20.9237 88.5249 20.5141 89.983 21.0197 91.629 22.6842 92.8167 23.8854 93.3015 24.749 93.5327 26.0755 94.2365 30.1148 89.9934 33.8495 85.9385 32.7601L85.9385 32.7601Z" fill="#2BC7F4" transform="matrix(1 0 -0 1.00447 478 236)"/><path d="M138.431 57.6923C138.107 57.6294 137.421 57.3707 136.907 57.1174 133.979 55.675 132.782 52.0767 134.243 49.1102 135.319 46.9261 137.93 45.4672 140.264 45.7463 142.526 46.0168 144.456 47.4952 145.25 49.565 145.607 50.4961 145.723 52.1107 145.505 53.1054 144.815 56.2481 141.632 58.3122 138.431 57.6923Z" fill="#2BC7F4" transform="matrix(1 0 -0 1.00447 478 236)"/></g></g></g><path d="M567 399 567 441.316 563 441.316 563 399ZM559 401 565 389 571 401ZM571 439.316 565 451.316 559 439.316Z" fill="#556A8A"/><path d="M701 488 791.434 488 791.434 492 701 492ZM789.434 484 801.434 490 789.434 496Z" fill="#556A8A"/><g clip-path="url(#clip10)"><g clip-path="url(#clip11)"><g clip-path="url(#clip12)"><path d="M900.418 445.852 873.465 446.086 817.625 446.555 817.625 533.469C817.625 542.375 837.156 550.051 862.547 550.52L863.523 550.52C866.961 550.52 870.281 550.324 873.465 550.012 882.771 549.448 891.9 547.218 900.418 543.43 906.121 540.559 909.422 537.082 909.422 533.469L909.422 445.773Z" fill="#FFFFFF"/><path d="M899.656 445.852 899.656 543.391C891.138 547.179 882.009 549.409 872.703 549.973L872.703 446.086Z" fill="#E5E5E5"/><path d="M817.625 446.555 817.625 533.469C817.625 542.375 837.059 550.051 862.547 550.52L863.523 550.52C889.48 550.188 909.422 542.434 909.422 533.469L909.422 445.773" stroke="#556A8A" stroke-width="3.90625" stroke-miterlimit="10" fill="none"/><path d="M909.539 446.789C909.539 455.949 888.992 463.371 863.641 463.371 838.289 463.371 817.742 455.949 817.742 446.789 817.742 437.629 838.895 430.227 864.246 430.227 889.598 430.227 909.539 437.648 909.539 446.809" stroke="#556A8A" stroke-width="3.90625" stroke-miterlimit="10" fill="#55D2F6"/><path d="M854.734 478.781 925.047 478.781 925.047 525.656 854.734 525.656ZM854.734 494.406 927 494.406M854.734 510.031 927 510.031M878.172 478.781 878.172 525.656M901.609 478.781 901.609 525.656" stroke="#556A8A" stroke-width="3.90625" stroke-miterlimit="10" fill="#FFFFFF"/></g></g></g><text fill="#556A8A" font-family="Segoe UI,Segoe UI_MSFontService,sans-serif" font-weight="400" font-size="24" transform="translate(469.167 371)">Cognitive Services<tspan x="-269.133" y="210">Datastor</tspan>e<tspan x="344.167" y="209">Datastor</tspan>e</text></g></svg>
