<svg id="a8534458-172a-4111-aee6-e03ff0190932" xmlns="http://www.w3.org/2000/svg" width="18" height="18" viewBox="0 0 18 18">
  <defs>
    <linearGradient id="b7c44630-3da8-4c1e-8536-834524c5c711" x1="9" y1="15.312" x2="9" y2="2.688" gradientUnits="userSpaceOnUse">
      <stop offset="0" stop-color="#0078d4" />
      <stop offset="0.156" stop-color="#1380da" />
      <stop offset="0.528" stop-color="#3c91e5" />
      <stop offset="0.822" stop-color="#559cec" />
      <stop offset="1" stop-color="#5ea0ef" />
    </linearGradient>
  </defs>
  <title>Icon-Cloud-other-357</title>
  <path d="M17.905,11.358a4,4,0,0,0-3.473-3.846A5.044,5.044,0,0,0,9.237,2.688,5.174,5.174,0,0,0,4.293,6.06a4.775,4.775,0,0,0-4.2,4.6A4.846,4.846,0,0,0,5.11,15.312c.149,0,.3-.007.441-.019h8.122a.845.845,0,0,0,.214-.032A4.049,4.049,0,0,0,17.905,11.358Z" fill="url(#b7c44630-3da8-4c1e-8536-834524c5c711)" />
</svg>