<svg id="f09d1b09-7e23-4315-9067-da8b74939bc9" data-name="fluent_icons" xmlns="http://www.w3.org/2000/svg" xmlns:xlink="http://www.w3.org/1999/xlink" width="18" height="18" viewBox="0 0 18 18"><defs><radialGradient id="b995bddd-5174-4e2b-b063-e09867380d4c" cx="-24.22" cy="-200.44" r="6.22" gradientTransform="translate(33.54 238.32) scale(1.01 1.14)" gradientUnits="userSpaceOnUse"><stop offset="0.2" stop-color="#ffd70f"/><stop offset="0.44" stop-color="#ffcb12"/><stop offset="0.87" stop-color="#feac19"/><stop offset="1" stop-color="#fea11b"/></radialGradient></defs><title>Icon-iot-197</title><path d="M8.38,10H5.19A.19.19,0,0,1,5,9.81a.29.29,0,0,1,0-.09L8.86.12A.18.18,0,0,1,9,0H12.8A.19.19,0,0,1,13,.2a.24.24,0,0,1,0,.12L8.45,7.83h4.38A.2.2,0,0,1,13,8a.18.18,0,0,1,0,.13L5.68,17.79c-.06.05-.55.56-.31-.22h0Z" fill="url(#b995bddd-5174-4e2b-b063-e09867380d4c)"/><path d="M2.33,7.46h.84a.27.27,0,0,1,.27.27v6.19a.54.54,0,0,1-.54.54H2.06a0,0,0,0,1,0,0V7.73a.27.27,0,0,1,.27-.27Z" transform="translate(12.44 16.76) rotate(134.92)" fill="#50e6ff"/><path d="M2.28,3.56h.84a.27.27,0,0,1,.27.27v6.63a0,0,0,0,1,0,0H2.55A.54.54,0,0,1,2,9.92V3.83a.27.27,0,0,1,.27-.27Z" transform="translate(5.74 0.14) rotate(44.92)" fill="#1490df"/><path d="M14.57,7.46h.84a.54.54,0,0,1,.54.54v6.19a.27.27,0,0,1-.27.27h-.84a.27.27,0,0,1-.27-.27V7.46a0,0,0,0,1,0,0Z" transform="translate(12.25 -7.58) rotate(45.08)" fill="#50e6ff"/><path d="M15.15,3.56H16a0,0,0,0,1,0,0v6.63a.27.27,0,0,1-.27.27h-.84a.27.27,0,0,1-.27-.27V4.1a.54.54,0,0,1,.54-.54Z" transform="translate(31.08 1.17) rotate(135.08)" fill="#1490df"/></svg>