<?xml version="1.0" encoding="utf-8"?>
<!-- Generator: Adobe Illustrator 27.5.0, SVG Export Plug-In . SVG Version: 6.00 Build 0)  -->
<svg version="1.1" xmlns="http://www.w3.org/2000/svg" xmlns:xlink="http://www.w3.org/1999/xlink" x="0px" y="0px"
	 viewBox="0 0 211.2 184.8" enable-background="new 0 0 211.2 184.8" xml:space="preserve">
<symbol  id="PIPELINE" viewBox="-32 -12.266 64 24.531">
	<linearGradient id="SVGID_1_" gradientUnits="userSpaceOnUse" x1="0" y1="-12.2655" x2="1.502093e-15" y2="12.2655">
		<stop  offset="0" style="stop-color:#1B89B2"/>
		<stop  offset="1" style="stop-color:#51C8E8"/>
	</linearGradient>
	<path fill="url(#SVGID_1_)" d="M26.096,12.266h-51.448v0h0C-29.08,12.265-32,6.878-32,0s2.92-12.265,6.648-12.265h0v0h51.448
		C29.356-12.266,32-6.363,32,0S29.356,12.266,26.096,12.266z"/>
	<g>
		
			<linearGradient id="SVGID_00000167362521140406932550000009868592695836408495_" gradientUnits="userSpaceOnUse" x1="-31.461" y1="-6.1136" x2="-19.2338" y2="6.1136">
			<stop  offset="0" style="stop-color:#B3B4B4"/>
			<stop  offset="1" style="stop-color:#4F4F4F"/>
		</linearGradient>
		<ellipse fill="url(#SVGID_00000167362521140406932550000009868592695836408495_)" cx="-25.347" cy="0" rx="5.575" ry="10.879"/>
	</g>
</symbol>
<g id="Shapes">
	<rect fill="#FFFFFF" width="211.2" height="184.8"/>
	<g id="Wrench_tool_x28_s_x29_">
	</g>
	<g id="user2">
	</g>
	<g id="user2_1_">
	</g>
	<g id="user2_4_">
	</g>
	<g id="user2_3_">
	</g>
	<g id="user2_2_">
	</g>
	<g id="Internet_2">
	</g>
	<g id="Enterprise">
	</g>
	<g id="Tunnel__x28_stackable_x29_">
	</g>
	<g id="New_Symbol">
	</g>
	<g id="New_Symbol_1">
	</g>
	<g id="Files">
	</g>
	<g id="BlobBlock">
	</g>
	<g id="E_x5F_Enterprise">
	</g>
	<g id="E_x5F_AD_FS">
	</g>
	<g id="C_x5F_Azure_Active_Directory">
	</g>
	<g>
		<g opacity="0.3">
			<rect x="9.8" y="134.12" fill="#212121" width="193.6" height="44"/>
			<rect x="9.8" y="134.12" opacity="0.6" fill="#212121" width="193.6" height="44"/>
		</g>
		<g>
			<rect x="8.8" y="133.12" fill="#FFFFFF" width="193.6" height="44"/>
			<rect x="8.8" y="133.12" opacity="0.6" fill="#CCCCCB" width="193.6" height="44"/>
		</g>
	</g>
	<g>
		<g>
			
				<linearGradient id="SVGID_00000098218813329252466960000006926716309651921317_" gradientUnits="userSpaceOnUse" x1="-466.2075" y1="695.3684" x2="-466.2075" y2="745.8795" gradientTransform="matrix(1 0 0 -1 564 790.4)">
				<stop  offset="0" style="stop-color:#0078D4"/>
				<stop  offset="0.82" style="stop-color:#5EA0EF"/>
			</linearGradient>
			<path fill="url(#SVGID_00000098218813329252466960000006926716309651921317_)" d="M62.435,44.52h70.716
				c1.395,0,2.526,1.131,2.526,2.526v45.46c0,1.395-1.131,2.526-2.526,2.526H62.435c-1.395,0-2.526-1.131-2.526-2.526v-45.46
				C59.909,45.651,61.04,44.52,62.435,44.52z"/>
			
				<linearGradient id="SVGID_00000116942899175023561370000009278925697791948690_" gradientUnits="userSpaceOnUse" x1="-466.2075" y1="675.8795" x2="-466.2075" y2="695.3684" gradientTransform="matrix(1 0 0 -1 564 790.4)">
				<stop  offset="0.15" style="stop-color:#CCCCCC"/>
				<stop  offset="1" style="stop-color:#707070"/>
			</linearGradient>
			<path fill="url(#SVGID_00000116942899175023561370000009278925697791948690_)" d="M112.988,110.311
				c-7.492-1.179-7.787-6.566-7.787-15.28H90.342c0,8.713-0.253,14.101-7.745,15.28c-2.142,0.237-3.759,2.054-3.746,4.209h37.883
				C116.747,112.365,115.13,110.548,112.988,110.311z"/>
		</g>
		<g>
			
				<linearGradient id="SVGID_00000165920533984853758140000002137988944277856432_" gradientUnits="userSpaceOnUse" x1="-433.9118" y1="704.7092" x2="-433.9118" y2="669.5276" gradientTransform="matrix(1 0 0 -1 564 790.4)">
				<stop  offset="0.22" style="stop-color:#32D4F5"/>
				<stop  offset="1" style="stop-color:#198AB3"/>
			</linearGradient>
			<path fill="url(#SVGID_00000165920533984853758140000002137988944277856432_)" d="M147.511,114.52
				c2.076,0,3.759-1.683,3.759-3.759l0,0c0.027-0.146,0.027-0.295,0-0.441c-1.504-11.848-8.219-21.493-21.181-21.493
				c-12.963,0-19.859,8.167-21.181,21.519c-0.225,2.078,1.278,3.945,3.357,4.17c0.013,0.001,0.026,0.003,0.04,0.004H147.511z"/>
			<path opacity="0.8" fill="#FFFFFF" enable-background="new    " d="M130.089,91.628c-2.28-0.002-4.512-0.659-6.43-1.893
				l6.43,16.644l6.326-16.541C134.52,91.025,132.325,91.646,130.089,91.628z"/>
			
				<linearGradient id="SVGID_00000121259517683190507310000008723880696013473210_" gradientUnits="userSpaceOnUse" x1="-434.9223" y1="723.5832" x2="-432.3557" y2="691.6425" gradientTransform="matrix(1 0 0 -1 564 790.4)">
				<stop  offset="0.22" style="stop-color:#32D4F5"/>
				<stop  offset="1" style="stop-color:#198AB3"/>
			</linearGradient>
			<circle fill="url(#SVGID_00000121259517683190507310000008723880696013473210_)" cx="130.115" cy="79.728" r="11.874"/>
		</g>
	</g>
	<g>
		<path fill="#215694" d="M44.502,63.862c0.144-0.038,0.252-0.038,0.396-0.074c0.827-0.114,1.655-0.226,2.482-0.303
			c0.593-2.879,3.104-4.962,6.043-5.013c2.939,0.051,5.449,2.134,6.041,5.013c0.827,0.076,1.655,0.188,2.482,0.303
			c0.144,0.036,0.288,0.036,0.396,0.074c0.44,0.078,0.873,0.192,1.295,0.341c-0.141-5.631-4.819-10.082-10.45-9.941
			c-5.433,0.136-9.806,4.508-9.941,9.941C43.652,64.049,44.073,63.935,44.502,63.862z"/>
		
			<linearGradient id="SVGID_00000157274018280128369680000012382918252896148639_" gradientUnits="userSpaceOnUse" x1="-217.6232" y1="-345.6687" x2="-217.6232" y2="-372.8583" gradientTransform="matrix(1 0 0 -1 271 -282.6)">
			<stop  offset="0" style="stop-color:#0078D4"/>
			<stop  offset="1" style="stop-color:#1A508B"/>
		</linearGradient>
		<path fill="url(#SVGID_00000157274018280128369680000012382918252896148639_)" d="M68.038,69.963c0-3.124-2.295-5.774-5.387-6.221
			c-0.152-0.038-0.267-0.038-0.423-0.076c-5.879-0.796-11.838-0.796-17.717,0c-0.152,0.038-0.303,0.038-0.423,0.076
			c-3.094,0.441-5.388,3.096-5.375,6.221c-0.135,7.835,3.931,15.143,10.66,19.158c2.439,1.517,5.528,1.517,7.967,0
			C64.125,85.156,68.223,77.819,68.038,69.963z"/>
		<g>
			<defs>
				<path id="SVGID_00000040543463989364563990000017999568108275672215_" d="M68.038,69.963c0-3.124-2.295-5.774-5.387-6.221
					c-0.152-0.038-0.267-0.038-0.423-0.076c-5.879-0.796-11.838-0.796-17.717,0c-0.152,0.038-0.303,0.038-0.423,0.076
					c-3.094,0.441-5.388,3.096-5.375,6.221c-0.135,7.835,3.931,15.143,10.66,19.158c2.439,1.517,5.528,1.517,7.967,0
					C64.125,85.156,68.223,77.819,68.038,69.963z"/>
			</defs>
			<clipPath id="SVGID_00000075842333073600595160000016394757162003022216_">
				<use xlink:href="#SVGID_00000040543463989364563990000017999568108275672215_"  overflow="visible"/>
			</clipPath>
			<g clip-path="url(#SVGID_00000075842333073600595160000016394757162003022216_)">
				<g>
					<g opacity="0.4">
						<ellipse fill="#004795" cx="53.51" cy="70.155" rx="4.932" ry="4.678"/>
					</g>
					<g opacity="0.4">
						<ellipse fill="#004795" cx="53.508" cy="86.442" rx="9.863" ry="9.636"/>
					</g>
					
						<linearGradient id="SVGID_00000183928131097027667450000006491536410593283247_" gradientUnits="userSpaceOnUse" x1="-217.4923" y1="-348.1021" x2="-217.4923" y2="-359.0776" gradientTransform="matrix(1 0 0 -1 271 -282.6)">
						<stop  offset="0.297" style="stop-color:#40C4F5"/>
						<stop  offset="1" style="stop-color:#0095E6"/>
					</linearGradient>
					<circle fill="url(#SVGID_00000183928131097027667450000006491536410593283247_)" cx="53.508" cy="71.035" r="4.932"/>
					
						<linearGradient id="SVGID_00000148627194579401423540000005190253149364285875_" gradientUnits="userSpaceOnUse" x1="-217.4923" y1="-358.883" x2="-217.4923" y2="-379.812" gradientTransform="matrix(1 0 0 -1 271 -282.6)">
						<stop  offset="0.193" style="stop-color:#40C4F5"/>
						<stop  offset="1" style="stop-color:#0095E6"/>
					</linearGradient>
					<circle fill="url(#SVGID_00000148627194579401423540000005190253149364285875_)" cx="53.508" cy="87.347" r="9.863"/>
				</g>
			</g>
		</g>
	</g>
</g>
<g id="Text">
	<g>
		<rect x="19.935" y="138.819" fill="none" width="171.331" height="38.302"/>
		<path fill="#2F2F2F" d="M36.481,150.372c-0.715,0.346-1.649,0.52-2.803,0.52c-1.504,0-2.687-0.442-3.548-1.326
			c-0.861-0.885-1.292-2.062-1.292-3.534c0-1.568,0.484-2.84,1.453-3.814c0.968-0.976,2.225-1.463,3.77-1.463
			c0.957,0,1.764,0.12,2.42,0.362v2.126c-0.656-0.393-1.403-0.588-2.242-0.588c-0.92,0-1.663,0.289-2.229,0.868
			c-0.564,0.578-0.848,1.362-0.848,2.352c0,0.947,0.267,1.703,0.8,2.266c0.533,0.563,1.251,0.845,2.153,0.845
			c0.861,0,1.65-0.21,2.365-0.629V150.372z"/>
		<path fill="#2F2F2F" d="M41.223,150.891c-1.166,0-2.084-0.327-2.751-0.981c-0.668-0.653-1.002-1.541-1.002-2.662
			c0-1.158,0.347-2.063,1.039-2.718c0.693-0.653,1.63-0.98,2.81-0.98c1.162,0,2.074,0.327,2.734,0.98
			c0.661,0.654,0.991,1.519,0.991,2.595c0,1.162-0.341,2.08-1.021,2.755C43.341,150.554,42.409,150.891,41.223,150.891z
			 M41.278,145.204c-0.51,0-0.906,0.175-1.189,0.526c-0.282,0.351-0.424,0.848-0.424,1.49c0,1.344,0.543,2.017,1.627,2.017
			c1.035,0,1.552-0.69,1.552-2.071C42.843,145.857,42.322,145.204,41.278,145.204z"/>
		<path fill="#2F2F2F" d="M53.186,150.721h-2.153v-3.89c0-1.085-0.388-1.627-1.162-1.627c-0.374,0-0.682,0.144-0.923,0.431
			c-0.242,0.287-0.362,0.651-0.362,1.094v3.992h-2.16v-7h2.16v1.107h0.027c0.515-0.853,1.265-1.278,2.249-1.278
			c1.549,0,2.324,0.961,2.324,2.885V150.721z"/>
		<path fill="#2F2F2F" d="M59.363,142.012c-0.277-0.109-0.544-0.164-0.8-0.164c-0.692,0-1.039,0.376-1.039,1.128v0.745h1.6v1.593
			h-1.6v5.407h-2.153v-5.407h-1.176v-1.593h1.176v-0.868c0-0.798,0.26-1.44,0.779-1.928c0.52-0.488,1.227-0.731,2.119-0.731
			c0.438,0,0.803,0.045,1.094,0.137V142.012z"/>
		<path fill="#2F2F2F" d="M61.417,142.613c-0.365,0-0.663-0.108-0.896-0.325c-0.232-0.216-0.349-0.481-0.349-0.796
			c0-0.324,0.116-0.588,0.349-0.793s0.53-0.308,0.896-0.308c0.369,0,0.669,0.103,0.898,0.308c0.23,0.205,0.346,0.469,0.346,0.793
			c0,0.328-0.115,0.597-0.346,0.807C62.085,142.508,61.786,142.613,61.417,142.613z M62.483,150.721h-2.16v-7h2.16V150.721z"/>
		<path fill="#2F2F2F" d="M68.831,145.669c-0.26-0.142-0.562-0.212-0.909-0.212c-0.469,0-0.836,0.172-1.101,0.516
			c-0.264,0.345-0.396,0.812-0.396,1.405v3.343h-2.16v-7h2.16v1.299h0.027c0.342-0.948,0.957-1.422,1.846-1.422
			c0.229,0,0.406,0.027,0.533,0.082V145.669z"/>
		<path fill="#2F2F2F" d="M80.937,150.721h-2.153v-3.992c0-1.017-0.373-1.524-1.121-1.524c-0.355,0-0.645,0.152-0.868,0.458
			c-0.223,0.305-0.335,0.686-0.335,1.142v3.917h-2.16v-4.033c0-0.989-0.366-1.483-1.101-1.483c-0.369,0-0.664,0.146-0.885,0.438
			c-0.222,0.291-0.332,0.688-0.332,1.189v3.89h-2.16v-7h2.16v1.094h0.027c0.224-0.374,0.537-0.678,0.94-0.913
			c0.403-0.234,0.844-0.352,1.322-0.352c0.989,0,1.666,0.435,2.03,1.306c0.533-0.871,1.317-1.306,2.352-1.306
			c1.522,0,2.283,0.938,2.283,2.816V150.721z"/>
		<path fill="#2F2F2F" d="M82.328,150.536v-1.75c0.355,0.214,0.71,0.373,1.063,0.479c0.353,0.104,0.687,0.157,1.001,0.157
			c0.383,0,0.685-0.053,0.906-0.157c0.221-0.105,0.331-0.265,0.331-0.479c0-0.137-0.05-0.251-0.15-0.342
			c-0.1-0.092-0.229-0.171-0.386-0.239s-0.329-0.13-0.517-0.185c-0.187-0.055-0.366-0.116-0.54-0.185
			c-0.277-0.105-0.522-0.218-0.734-0.339c-0.212-0.12-0.39-0.261-0.533-0.42c-0.144-0.16-0.253-0.345-0.328-0.554
			c-0.075-0.21-0.113-0.458-0.113-0.745c0-0.393,0.086-0.729,0.257-1.012c0.171-0.283,0.398-0.514,0.684-0.694
			c0.284-0.18,0.61-0.312,0.978-0.396c0.366-0.084,0.748-0.126,1.145-0.126c0.311,0,0.625,0.023,0.943,0.071
			c0.319,0.048,0.634,0.117,0.943,0.209v1.668c-0.273-0.16-0.566-0.279-0.878-0.359c-0.312-0.079-0.619-0.119-0.92-0.119
			c-0.141,0-0.274,0.013-0.399,0.037c-0.126,0.025-0.236,0.062-0.332,0.109s-0.171,0.109-0.226,0.185s-0.082,0.161-0.082,0.257
			c0,0.127,0.041,0.236,0.123,0.328c0.082,0.091,0.189,0.17,0.321,0.235c0.133,0.066,0.279,0.126,0.441,0.178
			c0.161,0.053,0.322,0.106,0.481,0.161c0.287,0.1,0.547,0.209,0.779,0.328c0.232,0.118,0.432,0.257,0.599,0.417
			c0.166,0.159,0.294,0.346,0.383,0.561c0.089,0.214,0.133,0.469,0.133,0.766c0,0.414-0.09,0.769-0.27,1.062
			c-0.181,0.294-0.42,0.533-0.718,0.718c-0.299,0.185-0.643,0.319-1.032,0.403c-0.39,0.085-0.794,0.127-1.214,0.127
			C83.698,150.891,82.984,150.772,82.328,150.536z"/>
		<path fill="#2F2F2F" d="M99.459,150.721h-2.153v-1.066h-0.034c-0.533,0.824-1.246,1.237-2.14,1.237
			c-1.622,0-2.434-0.982-2.434-2.946v-4.225h2.153v4.033c0,0.988,0.393,1.483,1.176,1.483c0.388,0,0.697-0.136,0.93-0.407
			c0.232-0.271,0.349-0.639,0.349-1.104v-4.006h2.153V150.721z"/>
		<path fill="#2F2F2F" d="M100.924,150.536v-1.75c0.355,0.214,0.71,0.373,1.062,0.479c0.354,0.104,0.688,0.157,1.002,0.157
			c0.383,0,0.685-0.053,0.905-0.157c0.222-0.105,0.332-0.265,0.332-0.479c0-0.137-0.051-0.251-0.15-0.342
			c-0.101-0.092-0.229-0.171-0.387-0.239s-0.329-0.13-0.516-0.185c-0.188-0.055-0.367-0.116-0.54-0.185
			c-0.278-0.105-0.523-0.218-0.735-0.339c-0.212-0.12-0.39-0.261-0.533-0.42c-0.144-0.16-0.253-0.345-0.328-0.554
			c-0.075-0.21-0.112-0.458-0.112-0.745c0-0.393,0.085-0.729,0.256-1.012c0.171-0.283,0.399-0.514,0.684-0.694
			c0.285-0.18,0.611-0.312,0.978-0.396c0.367-0.084,0.749-0.126,1.146-0.126c0.31,0,0.624,0.023,0.943,0.071
			c0.318,0.048,0.633,0.117,0.943,0.209v1.668c-0.273-0.16-0.566-0.279-0.879-0.359c-0.312-0.079-0.618-0.119-0.919-0.119
			c-0.142,0-0.274,0.013-0.4,0.037c-0.125,0.025-0.235,0.062-0.331,0.109s-0.171,0.109-0.226,0.185s-0.082,0.161-0.082,0.257
			c0,0.127,0.041,0.236,0.123,0.328c0.082,0.091,0.188,0.17,0.321,0.235c0.132,0.066,0.279,0.126,0.44,0.178
			c0.162,0.053,0.322,0.106,0.482,0.161c0.287,0.1,0.547,0.209,0.779,0.328c0.232,0.118,0.432,0.257,0.598,0.417
			c0.167,0.159,0.294,0.346,0.383,0.561c0.089,0.214,0.134,0.469,0.134,0.766c0,0.414-0.09,0.769-0.271,1.062
			c-0.18,0.294-0.419,0.533-0.718,0.718c-0.298,0.185-0.643,0.319-1.032,0.403c-0.39,0.085-0.794,0.127-1.213,0.127
			C102.293,150.891,101.581,150.772,100.924,150.536z"/>
		<path fill="#2F2F2F" d="M113.874,147.836h-4.566c0.073,1.016,0.714,1.524,1.921,1.524c0.771,0,1.447-0.183,2.03-0.547v1.559
			c-0.646,0.346-1.487,0.52-2.522,0.52c-1.13,0-2.007-0.313-2.632-0.94c-0.624-0.626-0.937-1.5-0.937-2.621
			c0-1.162,0.338-2.083,1.012-2.762c0.675-0.68,1.504-1.019,2.488-1.019c1.021,0,1.811,0.303,2.369,0.909
			c0.558,0.605,0.837,1.429,0.837,2.468V147.836z M111.871,146.51c0-1.003-0.405-1.504-1.217-1.504
			c-0.346,0-0.646,0.144-0.898,0.431s-0.407,0.645-0.462,1.073H111.871z"/>
		<path fill="#2F2F2F" d="M119.805,145.669c-0.26-0.142-0.562-0.212-0.909-0.212c-0.469,0-0.836,0.172-1.101,0.516
			c-0.264,0.345-0.396,0.812-0.396,1.405v3.343h-2.16v-7h2.16v1.299h0.027c0.342-0.948,0.957-1.422,1.846-1.422
			c0.229,0,0.406,0.027,0.533,0.082V145.669z"/>
		<path fill="#2F2F2F" d="M120.564,150.536v-1.75c0.355,0.214,0.71,0.373,1.062,0.479c0.354,0.104,0.688,0.157,1.002,0.157
			c0.383,0,0.685-0.053,0.905-0.157c0.222-0.105,0.332-0.265,0.332-0.479c0-0.137-0.051-0.251-0.15-0.342
			c-0.101-0.092-0.229-0.171-0.387-0.239s-0.329-0.13-0.516-0.185c-0.188-0.055-0.367-0.116-0.54-0.185
			c-0.278-0.105-0.523-0.218-0.735-0.339c-0.212-0.12-0.39-0.261-0.533-0.42c-0.144-0.16-0.253-0.345-0.328-0.554
			c-0.075-0.21-0.112-0.458-0.112-0.745c0-0.393,0.085-0.729,0.256-1.012c0.171-0.283,0.399-0.514,0.684-0.694
			c0.285-0.18,0.611-0.312,0.978-0.396c0.367-0.084,0.749-0.126,1.146-0.126c0.31,0,0.624,0.023,0.943,0.071
			c0.318,0.048,0.633,0.117,0.943,0.209v1.668c-0.273-0.16-0.566-0.279-0.879-0.359c-0.312-0.079-0.618-0.119-0.919-0.119
			c-0.142,0-0.274,0.013-0.4,0.037c-0.125,0.025-0.235,0.062-0.331,0.109s-0.171,0.109-0.226,0.185s-0.082,0.161-0.082,0.257
			c0,0.127,0.041,0.236,0.123,0.328c0.082,0.091,0.188,0.17,0.321,0.235c0.132,0.066,0.279,0.126,0.44,0.178
			c0.162,0.053,0.322,0.106,0.482,0.161c0.287,0.1,0.547,0.209,0.779,0.328c0.232,0.118,0.432,0.257,0.598,0.417
			c0.167,0.159,0.294,0.346,0.383,0.561c0.089,0.214,0.134,0.469,0.134,0.766c0,0.414-0.09,0.769-0.271,1.062
			c-0.18,0.294-0.419,0.533-0.718,0.718c-0.298,0.185-0.643,0.319-1.032,0.403c-0.39,0.085-0.794,0.127-1.213,0.127
			C121.933,150.891,121.22,150.772,120.564,150.536z"/>
		<path fill="#2F2F2F" d="M136.868,150.721h-2.044v-1.005h-0.027c-0.47,0.783-1.165,1.176-2.085,1.176
			c-0.68,0-1.214-0.192-1.604-0.578c-0.39-0.385-0.584-0.898-0.584-1.541c0-1.358,0.804-2.143,2.413-2.352l1.9-0.253
			c0-0.766-0.415-1.148-1.244-1.148c-0.834,0-1.627,0.248-2.379,0.745v-1.627c0.301-0.155,0.712-0.292,1.233-0.41
			c0.522-0.119,0.997-0.178,1.426-0.178c1.996,0,2.994,0.995,2.994,2.987V150.721z M134.837,147.877v-0.472l-1.271,0.164
			c-0.702,0.091-1.053,0.407-1.053,0.95c0,0.246,0.085,0.447,0.256,0.604s0.402,0.236,0.694,0.236c0.405,0,0.735-0.141,0.991-0.421
			C134.71,148.659,134.837,148.304,134.837,147.877z"/>
		<path fill="#2F2F2F" d="M143.13,145.669c-0.26-0.142-0.563-0.212-0.909-0.212c-0.47,0-0.837,0.172-1.101,0.516
			c-0.265,0.345-0.396,0.812-0.396,1.405v3.343h-2.16v-7h2.16v1.299h0.027c0.342-0.948,0.957-1.422,1.846-1.422
			c0.228,0,0.405,0.027,0.533,0.082V145.669z"/>
		<path fill="#2F2F2F" d="M150.502,147.836h-4.566c0.072,1.016,0.713,1.524,1.921,1.524c0.77,0,1.446-0.183,2.03-0.547v1.559
			c-0.647,0.346-1.488,0.52-2.522,0.52c-1.131,0-2.008-0.313-2.632-0.94c-0.625-0.626-0.937-1.5-0.937-2.621
			c0-1.162,0.337-2.083,1.012-2.762c0.674-0.68,1.504-1.019,2.488-1.019c1.021,0,1.811,0.303,2.368,0.909
			c0.559,0.605,0.838,1.429,0.838,2.468V147.836z M148.5,146.51c0-1.003-0.406-1.504-1.217-1.504c-0.347,0-0.646,0.144-0.899,0.431
			s-0.406,0.645-0.461,1.073H148.5z"/>
		<path fill="#2F2F2F" d="M165.788,143.721l-2.017,7h-2.27l-1.032-4.102c-0.068-0.273-0.107-0.572-0.116-0.896h-0.041
			c-0.032,0.355-0.078,0.645-0.137,0.868l-1.107,4.129h-2.242l-1.976-7h2.201l0.964,4.566c0.045,0.214,0.079,0.474,0.103,0.779
			h0.041c0.022-0.319,0.063-0.588,0.123-0.807l1.203-4.539h2.058l1.08,4.566c0.027,0.113,0.059,0.378,0.096,0.793h0.048
			c0.022-0.265,0.059-0.529,0.109-0.793l0.909-4.566H165.788z"/>
		<path fill="#2F2F2F" d="M173.509,150.721h-2.153v-3.979c0-1.025-0.374-1.538-1.121-1.538c-0.383,0-0.693,0.144-0.93,0.431
			c-0.237,0.287-0.355,0.651-0.355,1.094v3.992h-2.16v-10.363h2.16v4.402h0.027c0.528-0.807,1.246-1.21,2.153-1.21
			c1.586,0,2.379,0.957,2.379,2.871V150.721z"/>
		<path fill="#2F2F2F" d="M178.554,150.891c-1.167,0-2.084-0.327-2.752-0.981c-0.667-0.653-1.001-1.541-1.001-2.662
			c0-1.158,0.346-2.063,1.039-2.718c0.692-0.653,1.629-0.98,2.81-0.98c1.162,0,2.073,0.327,2.734,0.98
			c0.66,0.654,0.991,1.519,0.991,2.595c0,1.162-0.341,2.08-1.022,2.755C180.672,150.554,179.739,150.891,178.554,150.891z
			 M178.609,145.204c-0.511,0-0.907,0.175-1.189,0.526c-0.283,0.351-0.424,0.848-0.424,1.49c0,1.344,0.542,2.017,1.627,2.017
			c1.034,0,1.552-0.69,1.552-2.071C180.174,145.857,179.652,145.204,178.609,145.204z"/>
		<path fill="#2F2F2F" d="M54.987,167.438c-0.319,0.168-0.8,0.253-1.442,0.253c-1.522,0-2.283-0.791-2.283-2.372v-3.206h-1.135
			v-1.593h1.135v-1.511l2.153-0.615v2.126h1.572v1.593h-1.572v2.83c0,0.729,0.289,1.094,0.868,1.094
			c0.228,0,0.462-0.066,0.704-0.198V167.438z"/>
		<path fill="#2F2F2F" d="M63.056,167.52h-2.153v-3.979c0-1.025-0.374-1.538-1.121-1.538c-0.383,0-0.693,0.144-0.93,0.431
			c-0.237,0.287-0.355,0.651-0.355,1.094v3.992h-2.16v-10.363h2.16v4.402h0.027c0.528-0.807,1.246-1.21,2.153-1.21
			c1.586,0,2.379,0.957,2.379,2.871V167.52z"/>
		<path fill="#2F2F2F" d="M71.077,164.636H66.51c0.072,1.016,0.713,1.524,1.921,1.524c0.77,0,1.446-0.183,2.03-0.547v1.559
			c-0.647,0.346-1.488,0.52-2.522,0.52c-1.131,0-2.008-0.313-2.632-0.94c-0.625-0.626-0.937-1.5-0.937-2.621
			c0-1.162,0.337-2.083,1.012-2.762c0.674-0.68,1.504-1.019,2.488-1.019c1.021,0,1.811,0.303,2.368,0.909
			c0.559,0.605,0.838,1.429,0.838,2.468V164.636z M69.074,163.309c0-1.003-0.406-1.504-1.217-1.504
			c-0.347,0-0.646,0.144-0.899,0.431s-0.406,0.645-0.461,1.073H69.074z"/>
		<path fill="#2F2F2F" d="M78.921,160.52l-2.844,7.561c-0.684,1.818-1.713,2.728-3.09,2.728c-0.523,0-0.954-0.06-1.292-0.178v-1.723
			c0.287,0.168,0.6,0.253,0.937,0.253c0.557,0,0.943-0.263,1.162-0.786l0.369-0.868l-2.844-6.986h2.393l1.306,4.259
			c0.082,0.264,0.146,0.576,0.191,0.937h0.027c0.041-0.265,0.116-0.572,0.226-0.923l1.319-4.272H78.921z"/>
		<path fill="#2F2F2F" d="M83.194,167.336v-1.75c0.355,0.214,0.71,0.373,1.063,0.479c0.353,0.104,0.687,0.157,1.001,0.157
			c0.383,0,0.685-0.053,0.906-0.157c0.221-0.105,0.331-0.265,0.331-0.479c0-0.137-0.05-0.251-0.15-0.342
			c-0.1-0.092-0.229-0.171-0.386-0.239s-0.329-0.13-0.517-0.185c-0.187-0.055-0.366-0.116-0.54-0.185
			c-0.277-0.105-0.522-0.218-0.734-0.339c-0.212-0.12-0.39-0.261-0.533-0.42c-0.144-0.16-0.253-0.345-0.328-0.554
			c-0.075-0.21-0.113-0.458-0.113-0.745c0-0.393,0.086-0.729,0.257-1.012c0.171-0.283,0.398-0.514,0.684-0.694
			c0.284-0.18,0.61-0.312,0.978-0.396c0.366-0.084,0.748-0.126,1.145-0.126c0.311,0,0.625,0.023,0.943,0.071
			c0.319,0.048,0.634,0.117,0.943,0.209v1.668c-0.273-0.16-0.566-0.279-0.878-0.359c-0.312-0.079-0.619-0.119-0.92-0.119
			c-0.141,0-0.274,0.013-0.399,0.037c-0.126,0.025-0.236,0.062-0.332,0.109s-0.171,0.109-0.226,0.185s-0.082,0.161-0.082,0.257
			c0,0.127,0.041,0.236,0.123,0.328c0.082,0.091,0.189,0.17,0.321,0.235c0.133,0.066,0.279,0.126,0.441,0.178
			c0.161,0.053,0.322,0.106,0.481,0.161c0.287,0.1,0.547,0.209,0.779,0.328c0.232,0.118,0.432,0.257,0.599,0.417
			c0.166,0.159,0.294,0.346,0.383,0.561c0.089,0.214,0.133,0.469,0.133,0.766c0,0.414-0.09,0.769-0.27,1.062
			c-0.181,0.294-0.42,0.533-0.718,0.718c-0.299,0.185-0.643,0.319-1.032,0.403c-0.39,0.085-0.794,0.127-1.214,0.127
			C84.564,167.691,83.85,167.572,83.194,167.336z"/>
		<path fill="#2F2F2F" d="M95.763,167.52h-2.044v-1.005h-0.027c-0.47,0.783-1.165,1.176-2.085,1.176
			c-0.68,0-1.214-0.192-1.604-0.578c-0.39-0.385-0.584-0.898-0.584-1.541c0-1.358,0.804-2.143,2.413-2.352l1.9-0.253
			c0-0.766-0.415-1.148-1.244-1.148c-0.834,0-1.627,0.248-2.379,0.745v-1.627c0.301-0.155,0.712-0.292,1.233-0.41
			c0.522-0.119,0.997-0.178,1.426-0.178c1.996,0,2.994,0.995,2.994,2.987V167.52z M93.733,164.677v-0.472l-1.271,0.164
			c-0.702,0.091-1.053,0.407-1.053,0.95c0,0.246,0.085,0.447,0.256,0.604s0.402,0.236,0.694,0.236c0.405,0,0.735-0.141,0.991-0.421
			C93.605,165.459,93.733,165.104,93.733,164.677z"/>
		<path fill="#2F2F2F" d="M103.891,160.52l-2.844,7.561c-0.684,1.818-1.714,2.728-3.09,2.728c-0.524,0-0.955-0.06-1.292-0.178
			v-1.723c0.287,0.168,0.599,0.253,0.937,0.253c0.556,0,0.943-0.263,1.162-0.786l0.369-0.868l-2.844-6.986h2.393l1.306,4.259
			c0.082,0.264,0.146,0.576,0.191,0.937h0.027c0.041-0.265,0.116-0.572,0.226-0.923l1.319-4.272H103.891z"/>
		<path fill="#2F2F2F" d="M112.853,167.438c-0.319,0.168-0.8,0.253-1.442,0.253c-1.522,0-2.283-0.791-2.283-2.372v-3.206h-1.135
			v-1.593h1.135v-1.511l2.153-0.615v2.126h1.572v1.593h-1.572v2.83c0,0.729,0.289,1.094,0.868,1.094
			c0.228,0,0.462-0.066,0.704-0.198V167.438z"/>
		<path fill="#2F2F2F" d="M120.922,167.52h-2.153v-3.979c0-1.025-0.374-1.538-1.121-1.538c-0.383,0-0.693,0.144-0.93,0.431
			c-0.237,0.287-0.355,0.651-0.355,1.094v3.992h-2.16v-10.363h2.16v4.402h0.027c0.528-0.807,1.246-1.21,2.153-1.21
			c1.586,0,2.379,0.957,2.379,2.871V167.52z"/>
		<path fill="#2F2F2F" d="M128.943,164.636h-4.566c0.072,1.016,0.713,1.524,1.921,1.524c0.77,0,1.446-0.183,2.03-0.547v1.559
			c-0.647,0.346-1.488,0.52-2.522,0.52c-1.131,0-2.008-0.313-2.632-0.94c-0.625-0.626-0.937-1.5-0.937-2.621
			c0-1.162,0.337-2.083,1.012-2.762c0.674-0.68,1.504-1.019,2.488-1.019c1.021,0,1.811,0.303,2.368,0.909
			c0.559,0.605,0.838,1.429,0.838,2.468V164.636z M126.94,163.309c0-1.003-0.406-1.504-1.217-1.504
			c-0.347,0-0.646,0.144-0.899,0.431s-0.406,0.645-0.461,1.073H126.94z"/>
		<path fill="#2F2F2F" d="M136.788,160.52l-2.844,7.561c-0.684,1.818-1.713,2.728-3.09,2.728c-0.523,0-0.954-0.06-1.292-0.178
			v-1.723c0.287,0.168,0.6,0.253,0.937,0.253c0.557,0,0.943-0.263,1.162-0.786l0.369-0.868l-2.844-6.986h2.393l1.306,4.259
			c0.082,0.264,0.146,0.576,0.191,0.937h0.027c0.041-0.265,0.116-0.572,0.226-0.923l1.319-4.272H136.788z"/>
		<path fill="#2F2F2F" d="M147.342,167.52h-2.044v-1.005h-0.027c-0.469,0.783-1.164,1.176-2.085,1.176
			c-0.679,0-1.213-0.192-1.603-0.578c-0.39-0.385-0.585-0.898-0.585-1.541c0-1.358,0.805-2.143,2.413-2.352l1.9-0.253
			c0-0.766-0.414-1.148-1.244-1.148c-0.834,0-1.627,0.248-2.379,0.745v-1.627c0.301-0.155,0.712-0.292,1.234-0.41
			c0.521-0.119,0.997-0.178,1.425-0.178c1.996,0,2.994,0.995,2.994,2.987V167.52z M145.312,164.677v-0.472l-1.271,0.164
			c-0.701,0.091-1.053,0.407-1.053,0.95c0,0.246,0.086,0.447,0.257,0.604s0.402,0.236,0.693,0.236c0.406,0,0.736-0.141,0.991-0.421
			C145.185,165.459,145.312,165.104,145.312,164.677z"/>
		<path fill="#2F2F2F" d="M153.605,162.469c-0.26-0.142-0.562-0.212-0.909-0.212c-0.469,0-0.836,0.172-1.101,0.516
			c-0.264,0.345-0.396,0.812-0.396,1.405v3.343h-2.16v-7h2.16v1.299h0.027c0.342-0.948,0.957-1.422,1.846-1.422
			c0.229,0,0.406,0.027,0.533,0.082V162.469z"/>
		<path fill="#2F2F2F" d="M160.977,164.636h-4.566c0.073,1.016,0.714,1.524,1.921,1.524c0.771,0,1.447-0.183,2.03-0.547v1.559
			c-0.646,0.346-1.487,0.52-2.522,0.52c-1.13,0-2.007-0.313-2.632-0.94c-0.624-0.626-0.937-1.5-0.937-2.621
			c0-1.162,0.338-2.083,1.012-2.762c0.675-0.68,1.504-1.019,2.488-1.019c1.021,0,1.811,0.303,2.369,0.909
			c0.558,0.605,0.837,1.429,0.837,2.468V164.636z M158.974,163.309c0-1.003-0.405-1.504-1.217-1.504
			c-0.346,0-0.646,0.144-0.898,0.431s-0.407,0.645-0.462,1.073H158.974z"/>
	</g>
	<g>
		<path fill="#2F2F2F" d="M66.177,27.52h-2.406l-0.697-2.181h-3.486l-0.69,2.181h-2.393l3.568-9.803h2.618L66.177,27.52z
			 M62.568,23.644l-1.053-3.295c-0.078-0.246-0.133-0.54-0.164-0.882h-0.055c-0.023,0.287-0.08,0.572-0.171,0.854l-1.066,3.322
			H62.568z"/>
		<path fill="#2F2F2F" d="M73.724,27.52h-2.153v-1.066h-0.034c-0.533,0.825-1.247,1.237-2.14,1.237
			c-1.623,0-2.434-0.981-2.434-2.946V20.52h2.153v4.033c0,0.989,0.392,1.483,1.176,1.483c0.387,0,0.697-0.136,0.93-0.406
			c0.232-0.271,0.349-0.64,0.349-1.104V20.52h2.153V27.52z"/>
		<path fill="#2F2F2F" d="M79.694,27.438c-0.318,0.169-0.8,0.253-1.442,0.253c-1.521,0-2.283-0.79-2.283-2.372v-3.206h-1.135V20.52
			h1.135V19.01l2.153-0.615v2.126h1.572v1.593h-1.572v2.83c0,0.729,0.29,1.094,0.868,1.094c0.229,0,0.463-0.065,0.704-0.198V27.438z
			"/>
		<path fill="#2F2F2F" d="M87.763,27.52H85.61v-3.979c0-1.025-0.373-1.538-1.121-1.538c-0.383,0-0.692,0.144-0.93,0.431
			c-0.236,0.287-0.355,0.652-0.355,1.094v3.992h-2.16V17.157h2.16v4.402h0.027c0.529-0.807,1.247-1.21,2.153-1.21
			c1.586,0,2.379,0.957,2.379,2.871V27.52z"/>
		<path fill="#2F2F2F" d="M95.784,24.636h-4.566c0.073,1.017,0.714,1.524,1.921,1.524c0.771,0,1.447-0.182,2.03-0.547v1.559
			c-0.646,0.347-1.487,0.52-2.522,0.52c-1.13,0-2.007-0.313-2.632-0.939c-0.624-0.627-0.937-1.501-0.937-2.622
			c0-1.162,0.338-2.082,1.012-2.762c0.675-0.679,1.504-1.019,2.488-1.019c1.021,0,1.811,0.304,2.369,0.909
			c0.558,0.606,0.837,1.429,0.837,2.468V24.636z M93.781,23.309c0-1.002-0.405-1.504-1.217-1.504c-0.346,0-0.646,0.144-0.898,0.431
			s-0.407,0.646-0.462,1.073H93.781z"/>
		<path fill="#2F2F2F" d="M103.91,27.52h-2.153v-3.89c0-1.084-0.388-1.627-1.162-1.627c-0.374,0-0.682,0.144-0.923,0.431
			c-0.242,0.287-0.362,0.652-0.362,1.094v3.992h-2.16v-7h2.16v1.107h0.027c0.515-0.852,1.265-1.278,2.249-1.278
			c1.549,0,2.324,0.962,2.324,2.885V27.52z"/>
		<path fill="#2F2F2F" d="M109.759,27.438c-0.319,0.169-0.8,0.253-1.442,0.253c-1.522,0-2.283-0.79-2.283-2.372v-3.206h-1.135V20.52
			h1.135V19.01l2.153-0.615v2.126h1.572v1.593h-1.572v2.83c0,0.729,0.289,1.094,0.868,1.094c0.228,0,0.462-0.065,0.704-0.198V27.438
			z"/>
		<path fill="#2F2F2F" d="M112.137,19.413c-0.365,0-0.663-0.108-0.896-0.324c-0.232-0.217-0.349-0.482-0.349-0.797
			c0-0.323,0.116-0.588,0.349-0.793s0.53-0.308,0.896-0.308c0.369,0,0.669,0.103,0.898,0.308c0.23,0.205,0.346,0.47,0.346,0.793
			c0,0.328-0.115,0.598-0.346,0.807C112.806,19.308,112.506,19.413,112.137,19.413z M113.204,27.52h-2.16v-7h2.16V27.52z"/>
		<path fill="#2F2F2F" d="M120.283,27.267c-0.487,0.283-1.191,0.424-2.112,0.424c-1.075,0-1.945-0.325-2.611-0.978
			c-0.665-0.651-0.998-1.492-0.998-2.522c0-1.189,0.356-2.127,1.07-2.812c0.713-0.687,1.667-1.029,2.86-1.029
			c0.825,0,1.422,0.109,1.791,0.328v1.832c-0.451-0.337-0.954-0.506-1.511-0.506c-0.619,0-1.11,0.182-1.473,0.544
			s-0.544,0.862-0.544,1.5c0,0.62,0.174,1.106,0.52,1.46c0.347,0.353,0.823,0.529,1.429,0.529c0.538,0,1.064-0.168,1.579-0.506
			V27.267z"/>
		<path fill="#2F2F2F" d="M127.619,27.52h-2.044v-1.005h-0.027c-0.47,0.784-1.165,1.176-2.085,1.176
			c-0.68,0-1.214-0.192-1.604-0.577c-0.39-0.386-0.584-0.899-0.584-1.542c0-1.357,0.804-2.142,2.413-2.352l1.9-0.253
			c0-0.766-0.415-1.148-1.244-1.148c-0.834,0-1.627,0.249-2.379,0.745v-1.627c0.301-0.154,0.712-0.291,1.233-0.41
			c0.522-0.118,0.997-0.178,1.426-0.178c1.996,0,2.994,0.996,2.994,2.987V27.52z M125.588,24.677v-0.472l-1.271,0.164
			c-0.702,0.092-1.053,0.408-1.053,0.95c0,0.246,0.085,0.448,0.256,0.605s0.402,0.235,0.694,0.235c0.405,0,0.735-0.14,0.991-0.42
			C125.46,25.46,125.588,25.105,125.588,24.677z"/>
		<path fill="#2F2F2F" d="M133.447,27.438c-0.318,0.169-0.8,0.253-1.442,0.253c-1.521,0-2.283-0.79-2.283-2.372v-3.206h-1.135V20.52
			h1.135V19.01l2.153-0.615v2.126h1.572v1.593h-1.572v2.83c0,0.729,0.29,1.094,0.868,1.094c0.229,0,0.463-0.065,0.704-0.198V27.438z
			"/>
		<path fill="#2F2F2F" d="M135.825,19.413c-0.364,0-0.663-0.108-0.896-0.324c-0.232-0.217-0.349-0.482-0.349-0.797
			c0-0.323,0.116-0.588,0.349-0.793s0.531-0.308,0.896-0.308c0.369,0,0.669,0.103,0.899,0.308c0.229,0.205,0.345,0.47,0.345,0.793
			c0,0.328-0.115,0.598-0.345,0.807C136.494,19.308,136.194,19.413,135.825,19.413z M136.891,27.52h-2.16v-7h2.16V27.52z"/>
		<path fill="#2F2F2F" d="M142.002,27.691c-1.167,0-2.084-0.327-2.752-0.98c-0.667-0.654-1.001-1.542-1.001-2.663
			c0-1.157,0.346-2.063,1.039-2.717c0.692-0.654,1.629-0.981,2.81-0.981c1.162,0,2.073,0.327,2.734,0.981
			c0.66,0.653,0.991,1.519,0.991,2.594c0,1.162-0.341,2.081-1.022,2.755C144.121,27.354,143.187,27.691,142.002,27.691z
			 M142.057,22.004c-0.511,0-0.907,0.176-1.189,0.526c-0.283,0.352-0.424,0.848-0.424,1.49c0,1.345,0.542,2.017,1.627,2.017
			c1.034,0,1.552-0.69,1.552-2.071C143.623,22.658,143.1,22.004,142.057,22.004z"/>
		<path fill="#2F2F2F" d="M153.964,27.52h-2.153v-3.89c0-1.084-0.387-1.627-1.162-1.627c-0.373,0-0.681,0.144-0.923,0.431
			c-0.241,0.287-0.362,0.652-0.362,1.094v3.992h-2.16v-7h2.16v1.107h0.027c0.516-0.852,1.265-1.278,2.249-1.278
			c1.55,0,2.324,0.962,2.324,2.885V27.52z"/>
	</g>
</g>
<g id="Layer_1">
	<g>
	</g>
	<g>
	</g>
	<g>
	</g>
	<g>
	</g>
	<g>
	</g>
	<g>
	</g>
	<g>
	</g>
	<g>
	</g>
	<g>
	</g>
	<g>
	</g>
	<g>
	</g>
	<g>
	</g>
	<g>
	</g>
	<g>
	</g>
	<g>
	</g>
	<g>
	</g>
	<g>
	</g>
	<g>
	</g>
	<g>
	</g>
	<g>
	</g>
	<g>
	</g>
	<g>
	</g>
	<g>
	</g>
	<g>
	</g>
	<g>
	</g>
	<g>
	</g>
	<g>
	</g>
	<g>
	</g>
	<g>
	</g>
	<g>
	</g>
	<g>
	</g>
	<g>
	</g>
	<g>
	</g>
	<g>
	</g>
	<g>
	</g>
	<g>
	</g>
	<g>
	</g>
</g>
</svg>
