<?xml version="1.0" encoding="utf-8"?>
<!-- Generator: Adobe Illustrator 27.5.0, SVG Export Plug-In . SVG Version: 6.00 Build 0)  -->
<svg version="1.1" xmlns="http://www.w3.org/2000/svg" xmlns:xlink="http://www.w3.org/1999/xlink" x="0px" y="0px"
	 viewBox="0 0 211.2 202.4" enable-background="new 0 0 211.2 202.4" xml:space="preserve">
<symbol  id="PIPELINE" viewBox="-32 -12.266 64 24.531">
	<linearGradient id="SVGID_1_" gradientUnits="userSpaceOnUse" x1="0" y1="-12.2655" x2="1.502093e-15" y2="12.2655">
		<stop  offset="0" style="stop-color:#1B89B2"/>
		<stop  offset="1" style="stop-color:#51C8E8"/>
	</linearGradient>
	<path fill="url(#SVGID_1_)" d="M26.096,12.266h-51.448v0h0C-29.08,12.265-32,6.878-32,0s2.92-12.265,6.648-12.265h0v0h51.448
		C29.356-12.266,32-6.363,32,0S29.356,12.266,26.096,12.266z"/>
	<g>
		
			<linearGradient id="SVGID_00000073684664233872700140000013212069838033693873_" gradientUnits="userSpaceOnUse" x1="-31.461" y1="-6.1136" x2="-19.2338" y2="6.1136">
			<stop  offset="0" style="stop-color:#B3B4B4"/>
			<stop  offset="1" style="stop-color:#4F4F4F"/>
		</linearGradient>
		<ellipse fill="url(#SVGID_00000073684664233872700140000013212069838033693873_)" cx="-25.347" cy="0" rx="5.575" ry="10.879"/>
	</g>
</symbol>
<g id="Shapes">
	<rect x="-0.459" fill="#FFFFFF" width="211.2" height="202.4"/>
	<g id="Wrench_tool_x28_s_x29_">
	</g>
	<g id="user2">
	</g>
	<g id="user2_1_">
	</g>
	<g id="user2_4_">
	</g>
	<g id="user2_3_">
	</g>
	<g id="user2_2_">
	</g>
	<g id="Internet_2">
	</g>
	<g id="Enterprise">
	</g>
	<g id="Tunnel__x28_stackable_x29_">
	</g>
	<g id="New_Symbol">
	</g>
	<g id="New_Symbol_1">
	</g>
	<g id="Files">
	</g>
	<g id="BlobBlock">
	</g>
	<g id="E_x5F_Enterprise">
	</g>
	<g id="E_x5F_AD_FS">
	</g>
	<g id="C_x5F_Azure_Active_Directory">
	</g>
	<g>
		<g>
			
				<linearGradient id="SVGID_00000103250525494303572540000004881384318119710892_" gradientUnits="userSpaceOnUse" x1="-466.6664" y1="1849.2889" x2="-466.6664" y2="1899.8" gradientTransform="matrix(1 0 0 -1 564 1943.2)">
				<stop  offset="0" style="stop-color:#0078D4"/>
				<stop  offset="0.82" style="stop-color:#5EA0EF"/>
			</linearGradient>
			<path fill="url(#SVGID_00000103250525494303572540000004881384318119710892_)" d="M61.976,43.4h70.716
				c1.395,0,2.526,1.131,2.526,2.526v45.46c0,1.395-1.131,2.526-2.526,2.526H61.976c-1.395,0-2.526-1.131-2.526-2.526v-45.46
				C59.45,44.531,60.581,43.4,61.976,43.4z"/>
			
				<linearGradient id="SVGID_00000047747184801303694180000008112603906587823013_" gradientUnits="userSpaceOnUse" x1="-466.6664" y1="1829.8" x2="-466.6664" y2="1849.2889" gradientTransform="matrix(1 0 0 -1 564 1943.2)">
				<stop  offset="0.15" style="stop-color:#CCCCCC"/>
				<stop  offset="1" style="stop-color:#707070"/>
			</linearGradient>
			<path fill="url(#SVGID_00000047747184801303694180000008112603906587823013_)" d="M112.529,109.191
				c-7.492-1.179-7.787-6.566-7.787-15.28H89.883c0,8.713-0.253,14.101-7.745,15.28c-2.142,0.237-3.759,2.054-3.746,4.209h37.883
				C116.288,111.245,114.671,109.428,112.529,109.191z"/>
		</g>
		<g>
			
				<linearGradient id="SVGID_00000011006413206252034350000005716204720038875807_" gradientUnits="userSpaceOnUse" x1="-434.3708" y1="1858.6298" x2="-434.3708" y2="1823.4482" gradientTransform="matrix(1 0 0 -1 564 1943.2)">
				<stop  offset="0.22" style="stop-color:#32D4F5"/>
				<stop  offset="1" style="stop-color:#198AB3"/>
			</linearGradient>
			<path fill="url(#SVGID_00000011006413206252034350000005716204720038875807_)" d="M147.053,113.4
				c2.076,0,3.759-1.683,3.759-3.759l0,0c0.027-0.146,0.027-0.295,0-0.441c-1.504-11.848-8.219-21.493-21.181-21.493
				c-12.963,0-19.859,8.167-21.181,21.519c-0.225,2.078,1.278,3.945,3.357,4.17c0.013,0.001,0.026,0.003,0.04,0.004H147.053z"/>
			<path opacity="0.8" fill="#FFFFFF" enable-background="new    " d="M129.63,90.507c-2.28-0.002-4.512-0.659-6.43-1.893
				l6.43,16.644l6.326-16.541C134.061,89.905,131.866,90.525,129.63,90.507z"/>
			
				<linearGradient id="SVGID_00000088836253507230761540000015678522258852109236_" gradientUnits="userSpaceOnUse" x1="-435.3813" y1="1877.5038" x2="-432.8146" y2="1845.563" gradientTransform="matrix(1 0 0 -1 564 1943.2)">
				<stop  offset="0.22" style="stop-color:#32D4F5"/>
				<stop  offset="1" style="stop-color:#198AB3"/>
			</linearGradient>
			<circle fill="url(#SVGID_00000088836253507230761540000015678522258852109236_)" cx="129.656" cy="78.607" r="11.874"/>
		</g>
	</g>
	<g id="aab57876-733b-4505-a99f-531127c8bc1e">
		<g>
			
				<linearGradient id="SVGID_00000149376896387050542970000013585307198737391752_" gradientUnits="userSpaceOnUse" x1="32.7885" y1="1620.4" x2="32.7885" y2="1641.9463" gradientTransform="matrix(1 0 0 -1 0 1709.2)">
				<stop  offset="0.001" style="stop-color:#76BC2D"/>
				<stop  offset="1" style="stop-color:#86D633"/>
			</linearGradient>
			<path fill-rule="evenodd" clip-rule="evenodd" fill="url(#SVGID_00000149376896387050542970000013585307198737391752_)" d="
				M22.001,78.041c-0.062-5.894,4.665-10.723,10.559-10.787h0.23c5.909-0.048,10.738,4.703,10.787,10.612c0,0.001,0,0.003,0,0.004
				v10.93H32.79c-5.895,0.064-10.726-4.663-10.79-10.558c0,0,0-0.001,0-0.001V78.041z"/>
			<path fill="#005BA1" d="M69.007,64.262c-0.262-6.556-5.764-11.672-12.321-11.456c-4.676-0.097-9,2.47-11.154,6.621
				c5.873,0.493,10.465,5.272,10.721,11.16c4.539,0.599,7.975,4.401,8.113,8.978c-0.03,1.093-0.252,2.172-0.657,3.188h4.019
				c5.194-0.026,9.421-4.187,9.529-9.38C77.114,68.725,73.62,64.865,69.007,64.262z"/>
			
				<linearGradient id="SVGID_00000085945292836791762380000008825589465410477226_" gradientUnits="userSpaceOnUse" x1="48.178" y1="1658.5197" x2="48.178" y2="1613.6859" gradientTransform="matrix(1 0 0 -1 0 1709.2)">
				<stop  offset="0" style="stop-color:#5EA0EF"/>
				<stop  offset="1" style="stop-color:#0078D4"/>
			</linearGradient>
			<path fill="url(#SVGID_00000085945292836791762380000008825589465410477226_)" d="M56.253,70.588
				c-0.268-6.441-5.676-11.462-12.119-11.254c-5.148-0.115-9.804,3.042-11.602,7.867c-0.187,0.022-0.358,0.084-0.542,0.115
				c0.193,0,0.374-0.062,0.57-0.062h0.23c5.909-0.048,10.738,4.703,10.787,10.612c0,0.001,0,0.003,0,0.004v10.924h11.415
				c5.109-0.026,9.267-4.119,9.373-9.227C64.228,74.989,60.793,71.187,56.253,70.588z"/>
			<path fill="#70AD10" d="M30.328,82.841l-2.995-2.995c-0.308-0.309-0.807-0.309-1.116-0.002c-0.309,0.308-0.309,0.807-0.002,1.116
				l0,0l3.552,3.555c0.309,0.308,0.809,0.308,1.118,0l8.685-8.685c0.319-0.298,0.336-0.798,0.038-1.118
				c-0.298-0.319-0.798-0.336-1.118-0.038c-0.013,0.012-0.026,0.025-0.038,0.038L30.328,82.841z"/>
			<path fill="#FFFFFF" d="M30.213,82.355l-2.948-2.948c-0.32-0.286-0.812-0.259-1.099,0.062c-0.264,0.295-0.264,0.742,0,1.037
				l3.499,3.499c0.304,0.303,0.795,0.303,1.099,0l8.551-8.536c0.298-0.31,0.289-0.802-0.021-1.1c-0.302-0.291-0.78-0.29-1.081,0.002
				L30.213,82.355z"/>
		</g>
	</g>
	<g>
		<g opacity="0.3">
			<rect x="9.341" y="133.816" fill="#212121" width="193.6" height="60.784"/>
			<rect x="9.341" y="133.816" opacity="0.6" fill="#212121" width="193.6" height="60.784"/>
		</g>
		<g>
			<rect x="8.341" y="132.816" fill="#FFFFFF" width="193.6" height="60.784"/>
			<rect x="8.341" y="132.816" opacity="0.6" fill="#CCCCCB" width="193.6" height="60.784"/>
		</g>
	</g>
</g>
<g id="Text">
	<g>
		<path fill="#2F2F2F" d="M69.433,26.4h-2.406l-0.697-2.181h-3.486l-0.69,2.181H59.76l3.568-9.803h2.618L69.433,26.4z
			 M65.823,22.524l-1.053-3.295c-0.078-0.246-0.132-0.54-0.164-0.882h-0.055c-0.023,0.287-0.08,0.572-0.171,0.854l-1.066,3.322
			H65.823z"/>
		<path fill="#2F2F2F" d="M76.979,26.4h-2.153v-1.066h-0.034c-0.533,0.825-1.247,1.237-2.14,1.237c-1.623,0-2.434-0.982-2.434-2.946
			V19.4h2.153v4.033c0,0.989,0.392,1.483,1.176,1.483c0.387,0,0.697-0.136,0.93-0.407s0.349-0.639,0.349-1.104V19.4h2.153V26.4z"/>
		<path fill="#2F2F2F" d="M82.95,26.318c-0.319,0.168-0.8,0.253-1.442,0.253c-1.522,0-2.283-0.791-2.283-2.372v-3.206h-1.135V19.4
			h1.135v-1.511l2.153-0.615V19.4h1.572v1.593h-1.572v2.83c0,0.729,0.29,1.094,0.868,1.094c0.228,0,0.462-0.066,0.704-0.198V26.318z
			"/>
		<path fill="#2F2F2F" d="M91.019,26.4h-2.153v-3.979c0-1.025-0.374-1.538-1.121-1.538c-0.383,0-0.693,0.144-0.93,0.431
			s-0.355,0.652-0.355,1.094V26.4h-2.16V16.037h2.16v4.402h0.027c0.529-0.807,1.247-1.21,2.153-1.21
			c1.586,0,2.379,0.957,2.379,2.871V26.4z"/>
		<path fill="#2F2F2F" d="M96.064,26.571c-1.167,0-2.084-0.327-2.751-0.981s-1.001-1.542-1.001-2.663
			c0-1.158,0.346-2.063,1.039-2.717s1.629-0.981,2.81-0.981c1.162,0,2.074,0.327,2.734,0.981s0.991,1.519,0.991,2.594
			c0,1.162-0.341,2.081-1.022,2.755S97.249,26.571,96.064,26.571z M96.119,20.883c-0.51,0-0.907,0.175-1.189,0.526
			s-0.424,0.848-0.424,1.49c0,1.344,0.542,2.017,1.627,2.017c1.035,0,1.552-0.69,1.552-2.071
			C97.684,21.537,97.162,20.883,96.119,20.883z"/>
		<path fill="#2F2F2F" d="M105.832,21.348c-0.26-0.141-0.563-0.212-0.909-0.212c-0.469,0-0.836,0.172-1.101,0.516
			s-0.396,0.812-0.396,1.405V26.4h-2.16v-7h2.16v1.299h0.027c0.342-0.948,0.957-1.422,1.846-1.422c0.228,0,0.406,0.027,0.533,0.082
			V21.348z"/>
		<path fill="#2F2F2F" d="M107.918,18.292c-0.365,0-0.663-0.108-0.896-0.325s-0.349-0.482-0.349-0.796
			c0-0.324,0.116-0.588,0.349-0.793s0.531-0.308,0.896-0.308c0.369,0,0.669,0.103,0.899,0.308s0.345,0.469,0.345,0.793
			c0,0.328-0.115,0.597-0.345,0.807S108.287,18.292,107.918,18.292z M108.984,26.4h-2.16v-7h2.16V26.4z"/>
		<path fill="#2F2F2F" d="M116.305,26.4h-6.282v-0.896l3.514-4.512h-3.165V19.4h5.906v1.066l-3.329,4.341h3.356V26.4z"/>
		<path fill="#2F2F2F" d="M123.445,26.4h-2.044v-1.005h-0.027c-0.469,0.784-1.165,1.176-2.085,1.176
			c-0.679,0-1.213-0.192-1.603-0.578s-0.584-0.899-0.584-1.542c0-1.358,0.804-2.142,2.413-2.352l1.9-0.253
			c0-0.766-0.415-1.148-1.244-1.148c-0.834,0-1.627,0.249-2.379,0.745v-1.627c0.301-0.155,0.712-0.292,1.234-0.41
			s0.997-0.178,1.425-0.178c1.996,0,2.994,0.996,2.994,2.987V26.4z M121.415,23.556v-0.472l-1.271,0.164
			c-0.702,0.091-1.053,0.408-1.053,0.95c0,0.246,0.085,0.448,0.256,0.605s0.402,0.236,0.694,0.236c0.406,0,0.736-0.14,0.991-0.42
			S121.415,23.984,121.415,23.556z"/>
		<path fill="#2F2F2F" d="M129.273,26.318c-0.319,0.168-0.8,0.253-1.442,0.253c-1.522,0-2.283-0.791-2.283-2.372v-3.206h-1.135V19.4
			h1.135v-1.511l2.153-0.615V19.4h1.572v1.593h-1.572v2.83c0,0.729,0.29,1.094,0.868,1.094c0.228,0,0.462-0.066,0.704-0.198V26.318z
			"/>
		<path fill="#2F2F2F" d="M131.651,18.292c-0.365,0-0.663-0.108-0.896-0.325s-0.349-0.482-0.349-0.796
			c0-0.324,0.116-0.588,0.349-0.793s0.531-0.308,0.896-0.308c0.369,0,0.669,0.103,0.899,0.308s0.345,0.469,0.345,0.793
			c0,0.328-0.115,0.597-0.345,0.807S132.021,18.292,131.651,18.292z M132.718,26.4h-2.16v-7h2.16V26.4z"/>
		<path fill="#2F2F2F" d="M137.829,26.571c-1.167,0-2.084-0.327-2.751-0.981s-1.001-1.542-1.001-2.663
			c0-1.158,0.346-2.063,1.039-2.717s1.629-0.981,2.81-0.981c1.162,0,2.074,0.327,2.734,0.981s0.991,1.519,0.991,2.594
			c0,1.162-0.341,2.081-1.022,2.755S139.014,26.571,137.829,26.571z M137.883,20.883c-0.51,0-0.907,0.175-1.189,0.526
			s-0.424,0.848-0.424,1.49c0,1.344,0.542,2.017,1.627,2.017c1.035,0,1.552-0.69,1.552-2.071
			C139.449,21.537,138.927,20.883,137.883,20.883z"/>
		<path fill="#2F2F2F" d="M149.791,26.4h-2.153v-3.89c0-1.084-0.387-1.627-1.162-1.627c-0.374,0-0.681,0.144-0.923,0.431
			s-0.362,0.652-0.362,1.094V26.4h-2.16v-7h2.16v1.107h0.027c0.515-0.852,1.265-1.278,2.249-1.278c1.549,0,2.324,0.961,2.324,2.885
			V26.4z"/>
	</g>
	<g>
		<rect x="18.577" y="139.94" fill="none" width="173.129" height="50.246"/>
		<path fill="#2F2F2F" d="M48.21,142.039l-3.377,9.803h-2.502l-3.336-9.803h2.379l2.044,6.822c0.109,0.369,0.175,0.695,0.198,0.978
			h0.041c0.032-0.305,0.103-0.64,0.212-1.005l2.03-6.795H48.21z"/>
		<path fill="#2F2F2F" d="M54.414,151.842H52.37v-1.005h-0.027c-0.469,0.784-1.165,1.176-2.085,1.176
			c-0.679,0-1.213-0.192-1.603-0.578s-0.584-0.899-0.584-1.542c0-1.358,0.804-2.142,2.413-2.352l1.9-0.253
			c0-0.766-0.415-1.148-1.244-1.148c-0.834,0-1.627,0.249-2.379,0.745v-1.627c0.301-0.155,0.712-0.292,1.234-0.41
			s0.997-0.178,1.425-0.178c1.996,0,2.994,0.996,2.994,2.987V151.842z M52.384,148.998v-0.472l-1.271,0.164
			c-0.702,0.091-1.053,0.408-1.053,0.95c0,0.246,0.085,0.448,0.256,0.605s0.402,0.236,0.694,0.236c0.406,0,0.736-0.14,0.991-0.42
			S52.384,149.426,52.384,148.998z"/>
		<path fill="#2F2F2F" d="M58.272,151.842h-2.16v-10.363h2.16V151.842z"/>
		<path fill="#2F2F2F" d="M61.141,143.734c-0.365,0-0.663-0.108-0.896-0.325s-0.349-0.482-0.349-0.796
			c0-0.324,0.116-0.588,0.349-0.793s0.531-0.308,0.896-0.308c0.369,0,0.669,0.103,0.899,0.308s0.345,0.469,0.345,0.793
			c0,0.328-0.115,0.597-0.345,0.807S61.51,143.734,61.141,143.734z M62.208,151.842h-2.16v-7h2.16V151.842z"/>
		<path fill="#2F2F2F" d="M70.858,151.842h-2.16v-0.964h-0.027c-0.492,0.756-1.214,1.135-2.167,1.135
			c-0.875,0-1.579-0.309-2.112-0.926s-0.8-1.48-0.8-2.587c0-1.158,0.294-2.085,0.882-2.782s1.358-1.046,2.311-1.046
			c0.902,0,1.531,0.324,1.887,0.971h0.027v-4.163h2.16V151.842z M68.739,148.437v-0.526c0-0.456-0.132-0.834-0.396-1.135
			s-0.608-0.451-1.032-0.451c-0.479,0-0.852,0.188-1.121,0.564s-0.403,0.892-0.403,1.548c0,0.615,0.13,1.089,0.39,1.422
			s0.62,0.499,1.08,0.499c0.438,0,0.794-0.175,1.07-0.526S68.739,149.016,68.739,148.437z"/>
		<path fill="#2F2F2F" d="M78.507,151.842h-2.044v-1.005h-0.027c-0.469,0.784-1.165,1.176-2.085,1.176
			c-0.679,0-1.213-0.192-1.603-0.578s-0.584-0.899-0.584-1.542c0-1.358,0.804-2.142,2.413-2.352l1.9-0.253
			c0-0.766-0.415-1.148-1.244-1.148c-0.834,0-1.627,0.249-2.379,0.745v-1.627c0.301-0.155,0.712-0.292,1.234-0.41
			s0.997-0.178,1.425-0.178c1.996,0,2.994,0.996,2.994,2.987V151.842z M76.477,148.998v-0.472l-1.271,0.164
			c-0.702,0.091-1.053,0.408-1.053,0.95c0,0.246,0.085,0.448,0.256,0.605s0.402,0.236,0.694,0.236c0.406,0,0.736-0.14,0.991-0.42
			S76.477,149.426,76.477,148.998z"/>
		<path fill="#2F2F2F" d="M84.335,151.76c-0.319,0.168-0.8,0.253-1.442,0.253c-1.522,0-2.283-0.791-2.283-2.372v-3.206h-1.135
			v-1.593h1.135v-1.511l2.153-0.615v2.126h1.572v1.593h-1.572v2.83c0,0.729,0.29,1.094,0.868,1.094c0.228,0,0.462-0.066,0.704-0.198
			V151.76z"/>
		<path fill="#2F2F2F" d="M91.821,148.957h-4.566c0.073,1.016,0.713,1.524,1.921,1.524c0.77,0,1.447-0.182,2.03-0.547v1.559
			c-0.647,0.346-1.488,0.52-2.522,0.52c-1.13,0-2.007-0.313-2.632-0.94s-0.937-1.5-0.937-2.622c0-1.162,0.337-2.083,1.012-2.762
			s1.504-1.019,2.488-1.019c1.021,0,1.811,0.303,2.369,0.909s0.837,1.429,0.837,2.468V148.957z M89.818,147.631
			c0-1.002-0.406-1.504-1.217-1.504c-0.346,0-0.646,0.144-0.899,0.431s-0.407,0.645-0.461,1.073H89.818z"/>
		<path fill="#2F2F2F" d="M92.81,151.657v-1.75c0.355,0.214,0.71,0.374,1.063,0.479s0.687,0.157,1.001,0.157
			c0.383,0,0.685-0.052,0.906-0.157s0.332-0.264,0.332-0.479c0-0.137-0.05-0.25-0.15-0.342s-0.229-0.171-0.386-0.239
			s-0.329-0.13-0.516-0.185s-0.367-0.116-0.54-0.185c-0.278-0.105-0.523-0.218-0.735-0.338s-0.39-0.261-0.533-0.42
			s-0.253-0.344-0.328-0.554s-0.113-0.458-0.113-0.745c0-0.392,0.085-0.729,0.256-1.012s0.399-0.514,0.684-0.694
			s0.611-0.312,0.978-0.396s0.749-0.126,1.145-0.126c0.31,0,0.625,0.024,0.943,0.072s0.633,0.117,0.943,0.208v1.668
			c-0.273-0.16-0.566-0.279-0.878-0.359s-0.619-0.12-0.919-0.12c-0.141,0-0.274,0.013-0.4,0.038s-0.236,0.062-0.332,0.109
			s-0.171,0.109-0.226,0.185s-0.082,0.161-0.082,0.256c0,0.127,0.041,0.237,0.123,0.328s0.189,0.17,0.321,0.236
			s0.279,0.125,0.441,0.178s0.322,0.106,0.482,0.161c0.287,0.1,0.547,0.209,0.779,0.328s0.432,0.257,0.598,0.417
			s0.294,0.346,0.383,0.561s0.133,0.469,0.133,0.766c0,0.415-0.09,0.769-0.27,1.063s-0.419,0.533-0.718,0.718
			s-0.643,0.319-1.032,0.403s-0.794,0.126-1.213,0.126C94.179,152.013,93.466,151.894,92.81,151.657z"/>
		<path fill="#2F2F2F" d="M109.94,151.842h-2.153v-1.066h-0.034c-0.533,0.825-1.247,1.237-2.14,1.237
			c-1.623,0-2.434-0.982-2.434-2.946v-4.225h2.153v4.033c0,0.989,0.392,1.483,1.176,1.483c0.387,0,0.697-0.136,0.93-0.407
			s0.349-0.639,0.349-1.104v-4.006h2.153V151.842z"/>
		<path fill="#2F2F2F" d="M111.406,151.657v-1.75c0.355,0.214,0.71,0.374,1.063,0.479s0.687,0.157,1.001,0.157
			c0.383,0,0.685-0.052,0.906-0.157s0.332-0.264,0.332-0.479c0-0.137-0.05-0.25-0.15-0.342s-0.229-0.171-0.386-0.239
			s-0.329-0.13-0.516-0.185s-0.367-0.116-0.54-0.185c-0.278-0.105-0.523-0.218-0.735-0.338s-0.39-0.261-0.533-0.42
			s-0.253-0.344-0.328-0.554s-0.113-0.458-0.113-0.745c0-0.392,0.085-0.729,0.256-1.012s0.399-0.514,0.684-0.694
			s0.611-0.312,0.978-0.396s0.749-0.126,1.145-0.126c0.31,0,0.625,0.024,0.943,0.072s0.633,0.117,0.943,0.208v1.668
			c-0.273-0.16-0.566-0.279-0.878-0.359s-0.619-0.12-0.919-0.12c-0.141,0-0.274,0.013-0.4,0.038s-0.236,0.062-0.332,0.109
			s-0.171,0.109-0.226,0.185s-0.082,0.161-0.082,0.256c0,0.127,0.041,0.237,0.123,0.328s0.189,0.17,0.321,0.236
			s0.279,0.125,0.441,0.178s0.322,0.106,0.482,0.161c0.287,0.1,0.547,0.209,0.779,0.328s0.432,0.257,0.598,0.417
			s0.294,0.346,0.383,0.561s0.133,0.469,0.133,0.766c0,0.415-0.09,0.769-0.27,1.063s-0.419,0.533-0.718,0.718
			s-0.643,0.319-1.032,0.403s-0.794,0.126-1.213,0.126C112.775,152.013,112.062,151.894,111.406,151.657z"/>
		<path fill="#2F2F2F" d="M124.355,148.957h-4.566c0.073,1.016,0.713,1.524,1.921,1.524c0.77,0,1.447-0.182,2.03-0.547v1.559
			c-0.647,0.346-1.488,0.52-2.522,0.52c-1.13,0-2.007-0.313-2.632-0.94s-0.937-1.5-0.937-2.622c0-1.162,0.337-2.083,1.012-2.762
			s1.504-1.019,2.488-1.019c1.021,0,1.811,0.303,2.369,0.909s0.837,1.429,0.837,2.468V148.957z M122.353,147.631
			c0-1.002-0.406-1.504-1.217-1.504c-0.346,0-0.646,0.144-0.899,0.431s-0.407,0.645-0.461,1.073H122.353z"/>
		<path fill="#2F2F2F" d="M130.287,146.79c-0.26-0.141-0.563-0.212-0.909-0.212c-0.469,0-0.836,0.172-1.101,0.516
			s-0.396,0.812-0.396,1.405v3.343h-2.16v-7h2.16v1.299h0.027c0.342-0.948,0.957-1.422,1.846-1.422c0.228,0,0.406,0.027,0.533,0.082
			V146.79z"/>
		<path fill="#2F2F2F" d="M131.045,151.657v-1.75c0.355,0.214,0.71,0.374,1.063,0.479s0.687,0.157,1.001,0.157
			c0.383,0,0.685-0.052,0.906-0.157s0.332-0.264,0.332-0.479c0-0.137-0.05-0.25-0.15-0.342s-0.229-0.171-0.386-0.239
			s-0.329-0.13-0.516-0.185s-0.367-0.116-0.54-0.185c-0.278-0.105-0.523-0.218-0.735-0.338s-0.39-0.261-0.533-0.42
			s-0.253-0.344-0.328-0.554s-0.113-0.458-0.113-0.745c0-0.392,0.085-0.729,0.256-1.012s0.399-0.514,0.684-0.694
			s0.611-0.312,0.978-0.396s0.749-0.126,1.145-0.126c0.31,0,0.625,0.024,0.943,0.072s0.633,0.117,0.943,0.208v1.668
			c-0.273-0.16-0.566-0.279-0.878-0.359s-0.619-0.12-0.919-0.12c-0.141,0-0.274,0.013-0.4,0.038s-0.236,0.062-0.332,0.109
			s-0.171,0.109-0.226,0.185s-0.082,0.161-0.082,0.256c0,0.127,0.041,0.237,0.123,0.328s0.189,0.17,0.321,0.236
			s0.279,0.125,0.441,0.178s0.322,0.106,0.482,0.161c0.287,0.1,0.547,0.209,0.779,0.328s0.432,0.257,0.598,0.417
			s0.294,0.346,0.383,0.561s0.133,0.469,0.133,0.766c0,0.415-0.09,0.769-0.27,1.063s-0.419,0.533-0.718,0.718
			s-0.643,0.319-1.032,0.403s-0.794,0.126-1.213,0.126C132.415,152.013,131.701,151.894,131.045,151.657z"/>
		<path fill="#2F2F2F" d="M148.244,151.842h-2.153v-3.979c0-1.025-0.374-1.538-1.121-1.538c-0.383,0-0.693,0.144-0.93,0.431
			s-0.355,0.652-0.355,1.094v3.992h-2.16v-10.363h2.16v4.402h0.027c0.529-0.807,1.247-1.21,2.153-1.21
			c1.586,0,2.379,0.957,2.379,2.871V151.842z"/>
		<path fill="#2F2F2F" d="M155.81,151.842h-2.044v-1.005h-0.027c-0.469,0.784-1.165,1.176-2.085,1.176
			c-0.679,0-1.213-0.192-1.603-0.578s-0.584-0.899-0.584-1.542c0-1.358,0.804-2.142,2.413-2.352l1.9-0.253
			c0-0.766-0.415-1.148-1.244-1.148c-0.834,0-1.627,0.249-2.379,0.745v-1.627c0.301-0.155,0.712-0.292,1.234-0.41
			s0.997-0.178,1.425-0.178c1.996,0,2.994,0.996,2.994,2.987V151.842z M153.779,148.998v-0.472l-1.271,0.164
			c-0.702,0.091-1.053,0.408-1.053,0.95c0,0.246,0.085,0.448,0.256,0.605s0.402,0.236,0.694,0.236c0.406,0,0.736-0.14,0.991-0.42
			S153.779,149.426,153.779,148.998z"/>
		<path fill="#2F2F2F" d="M163.992,144.842l-2.604,7h-2.461l-2.481-7h2.311l1.217,4.313c0.137,0.488,0.216,0.902,0.239,1.244h0.027
			c0.032-0.324,0.116-0.725,0.253-1.203l1.244-4.354H163.992z"/>
		<path fill="#2F2F2F" d="M170.98,148.957h-4.566c0.073,1.016,0.713,1.524,1.921,1.524c0.77,0,1.447-0.182,2.03-0.547v1.559
			c-0.647,0.346-1.488,0.52-2.522,0.52c-1.13,0-2.007-0.313-2.632-0.94s-0.937-1.5-0.937-2.622c0-1.162,0.337-2.083,1.012-2.762
			s1.504-1.019,2.488-1.019c1.021,0,1.811,0.303,2.369,0.909s0.837,1.429,0.837,2.468V148.957z M168.977,147.631
			c0-1.002-0.406-1.504-1.217-1.504c-0.346,0-0.646,0.144-0.899,0.431s-0.407,0.645-0.461,1.073H168.977z"/>
		<path fill="#2F2F2F" d="M30.581,167.828h-0.027v4.033h-2.16v-10.22h2.16v1.053h0.027c0.533-0.816,1.283-1.224,2.249-1.224
			c0.907,0,1.607,0.311,2.102,0.933s0.742,1.469,0.742,2.54c0,1.167-0.288,2.103-0.865,2.81s-1.343,1.06-2.3,1.06
			C31.666,168.812,31.023,168.484,30.581,167.828z M30.52,164.957v0.561c0,0.483,0.127,0.877,0.383,1.183s0.59,0.458,1.005,0.458
			c0.492,0,0.874-0.19,1.145-0.571s0.407-0.919,0.407-1.617c0-1.23-0.479-1.846-1.436-1.846c-0.442,0-0.803,0.167-1.083,0.502
			S30.52,164.406,30.52,164.957z"/>
		<path fill="#2F2F2F" d="M43.411,165.757h-4.566c0.073,1.016,0.713,1.524,1.921,1.524c0.77,0,1.447-0.182,2.03-0.547v1.559
			c-0.647,0.346-1.488,0.52-2.522,0.52c-1.13,0-2.007-0.313-2.632-0.94s-0.937-1.5-0.937-2.622c0-1.162,0.337-2.083,1.012-2.762
			s1.504-1.019,2.488-1.019c1.021,0,1.811,0.303,2.369,0.909s0.837,1.429,0.837,2.468V165.757z M41.408,164.431
			c0-1.002-0.406-1.504-1.217-1.504c-0.346,0-0.646,0.144-0.899,0.431s-0.407,0.645-0.461,1.073H41.408z"/>
		<path fill="#2F2F2F" d="M49.342,163.59c-0.26-0.141-0.563-0.212-0.909-0.212c-0.469,0-0.836,0.172-1.101,0.516
			s-0.396,0.812-0.396,1.405v3.343h-2.16v-7h2.16v1.299h0.027c0.342-0.948,0.957-1.422,1.846-1.422c0.228,0,0.406,0.027,0.533,0.082
			V163.59z"/>
		<path fill="#2F2F2F" d="M61.448,168.642h-2.153v-3.992c0-1.016-0.374-1.524-1.121-1.524c-0.355,0-0.645,0.153-0.868,0.458
			s-0.335,0.686-0.335,1.142v3.917h-2.16v-4.033c0-0.989-0.367-1.483-1.101-1.483c-0.369,0-0.664,0.146-0.885,0.438
			s-0.332,0.688-0.332,1.189v3.89h-2.16v-7h2.16v1.094h0.027c0.223-0.374,0.537-0.678,0.94-0.913s0.844-0.352,1.323-0.352
			c0.989,0,1.666,0.435,2.03,1.306c0.533-0.871,1.317-1.306,2.352-1.306c1.522,0,2.283,0.939,2.283,2.816V168.642z"/>
		<path fill="#2F2F2F" d="M64.218,160.534c-0.365,0-0.663-0.108-0.896-0.325s-0.349-0.482-0.349-0.796
			c0-0.324,0.116-0.588,0.349-0.793s0.531-0.308,0.896-0.308c0.369,0,0.669,0.103,0.899,0.308s0.345,0.469,0.345,0.793
			c0,0.328-0.115,0.597-0.345,0.807S64.587,160.534,64.218,160.534z M65.285,168.642h-2.16v-7h2.16V168.642z"/>
		<path fill="#2F2F2F" d="M66.724,168.457v-1.75c0.355,0.214,0.71,0.374,1.063,0.479s0.687,0.157,1.001,0.157
			c0.383,0,0.685-0.052,0.906-0.157s0.332-0.264,0.332-0.479c0-0.137-0.05-0.25-0.15-0.342s-0.229-0.171-0.386-0.239
			s-0.329-0.13-0.516-0.185s-0.367-0.116-0.54-0.185c-0.278-0.105-0.523-0.218-0.735-0.338s-0.39-0.261-0.533-0.42
			s-0.253-0.344-0.328-0.554s-0.113-0.458-0.113-0.745c0-0.392,0.085-0.729,0.256-1.012s0.399-0.514,0.684-0.694
			s0.611-0.312,0.978-0.396s0.749-0.126,1.145-0.126c0.31,0,0.625,0.024,0.943,0.072s0.633,0.117,0.943,0.208v1.668
			c-0.273-0.16-0.566-0.279-0.878-0.359s-0.619-0.12-0.919-0.12c-0.141,0-0.274,0.013-0.4,0.038s-0.236,0.062-0.332,0.109
			s-0.171,0.109-0.226,0.185s-0.082,0.161-0.082,0.256c0,0.127,0.041,0.237,0.123,0.328s0.189,0.17,0.321,0.236
			s0.279,0.125,0.441,0.178s0.322,0.106,0.482,0.161c0.287,0.1,0.547,0.209,0.779,0.328s0.432,0.257,0.598,0.417
			s0.294,0.346,0.383,0.561s0.133,0.469,0.133,0.766c0,0.415-0.09,0.769-0.27,1.063s-0.419,0.533-0.718,0.718
			s-0.643,0.319-1.032,0.403s-0.794,0.126-1.213,0.126C68.093,168.812,67.38,168.694,66.724,168.457z"/>
		<path fill="#2F2F2F" d="M73.037,168.457v-1.75c0.355,0.214,0.71,0.374,1.063,0.479s0.687,0.157,1.001,0.157
			c0.383,0,0.685-0.052,0.906-0.157s0.332-0.264,0.332-0.479c0-0.137-0.05-0.25-0.15-0.342s-0.229-0.171-0.386-0.239
			s-0.329-0.13-0.516-0.185s-0.367-0.116-0.54-0.185c-0.278-0.105-0.523-0.218-0.735-0.338s-0.39-0.261-0.533-0.42
			s-0.253-0.344-0.328-0.554s-0.113-0.458-0.113-0.745c0-0.392,0.085-0.729,0.256-1.012s0.399-0.514,0.684-0.694
			s0.611-0.312,0.978-0.396s0.749-0.126,1.145-0.126c0.31,0,0.625,0.024,0.943,0.072s0.633,0.117,0.943,0.208v1.668
			c-0.273-0.16-0.566-0.279-0.878-0.359s-0.619-0.12-0.919-0.12c-0.141,0-0.274,0.013-0.4,0.038s-0.236,0.062-0.332,0.109
			s-0.171,0.109-0.226,0.185s-0.082,0.161-0.082,0.256c0,0.127,0.041,0.237,0.123,0.328s0.189,0.17,0.321,0.236
			s0.279,0.125,0.441,0.178s0.322,0.106,0.482,0.161c0.287,0.1,0.547,0.209,0.779,0.328s0.432,0.257,0.598,0.417
			s0.294,0.346,0.383,0.561s0.133,0.469,0.133,0.766c0,0.415-0.09,0.769-0.27,1.063s-0.419,0.533-0.718,0.718
			s-0.643,0.319-1.032,0.403s-0.794,0.126-1.213,0.126C74.406,168.812,73.693,168.694,73.037,168.457z"/>
		<path fill="#2F2F2F" d="M80.776,160.534c-0.365,0-0.663-0.108-0.896-0.325s-0.349-0.482-0.349-0.796
			c0-0.324,0.116-0.588,0.349-0.793s0.531-0.308,0.896-0.308c0.369,0,0.669,0.103,0.899,0.308s0.345,0.469,0.345,0.793
			c0,0.328-0.115,0.597-0.345,0.807S81.145,160.534,80.776,160.534z M81.842,168.642h-2.16v-7h2.16V168.642z"/>
		<path fill="#2F2F2F" d="M86.953,168.812c-1.167,0-2.084-0.327-2.751-0.981s-1.001-1.542-1.001-2.663
			c0-1.158,0.346-2.063,1.039-2.717s1.629-0.981,2.81-0.981c1.162,0,2.074,0.327,2.734,0.981s0.991,1.519,0.991,2.594
			c0,1.162-0.341,2.081-1.022,2.755S88.138,168.812,86.953,168.812z M87.008,163.125c-0.51,0-0.907,0.175-1.189,0.526
			s-0.424,0.848-0.424,1.49c0,1.344,0.542,2.017,1.627,2.017c1.035,0,1.552-0.69,1.552-2.071
			C88.573,163.779,88.051,163.125,87.008,163.125z"/>
		<path fill="#2F2F2F" d="M98.916,168.642h-2.153v-3.89c0-1.084-0.387-1.627-1.162-1.627c-0.374,0-0.681,0.144-0.923,0.431
			s-0.362,0.652-0.362,1.094v3.992h-2.16v-7h2.16v1.107h0.027c0.515-0.852,1.265-1.278,2.249-1.278c1.549,0,2.324,0.961,2.324,2.885
			V168.642z"/>
		<path fill="#2F2F2F" d="M108.718,168.559c-0.319,0.168-0.8,0.253-1.442,0.253c-1.522,0-2.283-0.791-2.283-2.372v-3.206h-1.135
			v-1.593h1.135v-1.511l2.153-0.615v2.126h1.572v1.593h-1.572v2.83c0,0.729,0.29,1.094,0.868,1.094c0.228,0,0.462-0.066,0.704-0.198
			V168.559z"/>
		<path fill="#2F2F2F" d="M113.251,168.812c-1.167,0-2.084-0.327-2.751-0.981s-1.001-1.542-1.001-2.663
			c0-1.158,0.346-2.063,1.039-2.717s1.629-0.981,2.81-0.981c1.162,0,2.074,0.327,2.734,0.981s0.991,1.519,0.991,2.594
			c0,1.162-0.341,2.081-1.022,2.755S114.437,168.812,113.251,168.812z M113.306,163.125c-0.51,0-0.907,0.175-1.189,0.526
			s-0.424,0.848-0.424,1.49c0,1.344,0.542,2.017,1.627,2.017c1.035,0,1.552-0.69,1.552-2.071
			C114.872,163.779,114.35,163.125,113.306,163.125z"/>
		<path fill="#2F2F2F" d="M127.641,168.389c-0.488,0.283-1.192,0.424-2.112,0.424c-1.076,0-1.946-0.326-2.611-0.978
			s-0.998-1.493-0.998-2.522c0-1.189,0.356-2.127,1.07-2.813s1.667-1.029,2.861-1.029c0.825,0,1.422,0.109,1.791,0.328v1.832
			c-0.451-0.337-0.955-0.506-1.511-0.506c-0.62,0-1.111,0.181-1.473,0.543s-0.543,0.862-0.543,1.5c0,0.62,0.173,1.106,0.52,1.459
			s0.823,0.53,1.429,0.53c0.538,0,1.064-0.168,1.579-0.506V168.389z"/>
		<path fill="#2F2F2F" d="M132.371,168.812c-1.167,0-2.084-0.327-2.751-0.981s-1.001-1.542-1.001-2.663
			c0-1.158,0.346-2.063,1.039-2.717s1.629-0.981,2.81-0.981c1.162,0,2.074,0.327,2.734,0.981s0.991,1.519,0.991,2.594
			c0,1.162-0.341,2.081-1.022,2.755S133.556,168.812,132.371,168.812z M132.426,163.125c-0.51,0-0.907,0.175-1.189,0.526
			s-0.424,0.848-0.424,1.49c0,1.344,0.542,2.017,1.627,2.017c1.035,0,1.552-0.69,1.552-2.071
			C133.991,163.779,133.469,163.125,132.426,163.125z"/>
		<path fill="#2F2F2F" d="M148.688,168.642h-2.153v-3.992c0-1.016-0.374-1.524-1.121-1.524c-0.355,0-0.645,0.153-0.868,0.458
			s-0.335,0.686-0.335,1.142v3.917h-2.16v-4.033c0-0.989-0.367-1.483-1.101-1.483c-0.369,0-0.664,0.146-0.885,0.438
			s-0.332,0.688-0.332,1.189v3.89h-2.16v-7h2.16v1.094h0.027c0.223-0.374,0.537-0.678,0.94-0.913s0.844-0.352,1.323-0.352
			c0.989,0,1.666,0.435,2.03,1.306c0.533-0.871,1.317-1.306,2.352-1.306c1.522,0,2.283,0.939,2.283,2.816V168.642z"/>
		<path fill="#2F2F2F" d="M152.572,167.828h-0.027v4.033h-2.16v-10.22h2.16v1.053h0.027c0.533-0.816,1.283-1.224,2.249-1.224
			c0.907,0,1.607,0.311,2.102,0.933s0.742,1.469,0.742,2.54c0,1.167-0.288,2.103-0.865,2.81s-1.343,1.06-2.3,1.06
			C153.656,168.812,153.014,168.484,152.572,167.828z M152.51,164.957v0.561c0,0.483,0.127,0.877,0.383,1.183
			s0.59,0.458,1.005,0.458c0.492,0,0.874-0.19,1.145-0.571s0.407-0.919,0.407-1.617c0-1.23-0.479-1.846-1.436-1.846
			c-0.442,0-0.803,0.167-1.083,0.502S152.51,164.406,152.51,164.957z"/>
		<path fill="#2F2F2F" d="M161.254,168.642h-2.16v-10.363h2.16V168.642z"/>
		<path fill="#2F2F2F" d="M169.37,165.757h-4.566c0.073,1.016,0.713,1.524,1.921,1.524c0.77,0,1.447-0.182,2.03-0.547v1.559
			c-0.647,0.346-1.488,0.52-2.522,0.52c-1.13,0-2.007-0.313-2.632-0.94s-0.937-1.5-0.937-2.622c0-1.162,0.337-2.083,1.012-2.762
			s1.504-1.019,2.488-1.019c1.021,0,1.811,0.303,2.369,0.909s0.837,1.429,0.837,2.468V165.757z M167.367,164.431
			c0-1.002-0.406-1.504-1.217-1.504c-0.346,0-0.646,0.144-0.899,0.431s-0.407,0.645-0.461,1.073H167.367z"/>
		<path fill="#2F2F2F" d="M174.936,168.559c-0.319,0.168-0.8,0.253-1.442,0.253c-1.522,0-2.283-0.791-2.283-2.372v-3.206h-1.135
			v-1.593h1.135v-1.511l2.153-0.615v2.126h1.572v1.593h-1.572v2.83c0,0.729,0.29,1.094,0.868,1.094c0.228,0,0.462-0.066,0.704-0.198
			V168.559z"/>
		<path fill="#2F2F2F" d="M182.422,165.757h-4.566c0.073,1.016,0.713,1.524,1.921,1.524c0.77,0,1.447-0.182,2.03-0.547v1.559
			c-0.647,0.346-1.488,0.52-2.522,0.52c-1.13,0-2.007-0.313-2.632-0.94s-0.937-1.5-0.937-2.622c0-1.162,0.337-2.083,1.012-2.762
			s1.504-1.019,2.488-1.019c1.021,0,1.811,0.303,2.369,0.909s0.837,1.429,0.837,2.468V165.757z M180.419,164.431
			c0-1.002-0.406-1.504-1.217-1.504c-0.346,0-0.646,0.144-0.899,0.431s-0.407,0.645-0.461,1.073H180.419z"/>
		<path fill="#2F2F2F" d="M40.514,185.36c-0.319,0.168-0.8,0.253-1.442,0.253c-1.522,0-2.283-0.791-2.283-2.372v-3.206h-1.135
			v-1.593h1.135v-1.511l2.153-0.615v2.126h1.572v1.593h-1.572v2.83c0,0.729,0.29,1.094,0.868,1.094c0.228,0,0.462-0.066,0.704-0.198
			V185.36z"/>
		<path fill="#2F2F2F" d="M48.583,185.442H46.43v-3.979c0-1.025-0.374-1.538-1.121-1.538c-0.383,0-0.693,0.144-0.93,0.431
			s-0.355,0.652-0.355,1.094v3.992h-2.16v-10.363h2.16v4.402h0.027c0.529-0.807,1.247-1.21,2.153-1.21
			c1.586,0,2.379,0.957,2.379,2.871V185.442z"/>
		<path fill="#2F2F2F" d="M56.604,182.557h-4.566c0.073,1.016,0.713,1.524,1.921,1.524c0.77,0,1.447-0.182,2.03-0.547v1.559
			c-0.647,0.346-1.488,0.52-2.522,0.52c-1.13,0-2.007-0.313-2.632-0.94s-0.937-1.5-0.937-2.622c0-1.162,0.337-2.083,1.012-2.762
			s1.504-1.019,2.488-1.019c1.021,0,1.811,0.303,2.369,0.909s0.837,1.429,0.837,2.468V182.557z M54.601,181.231
			c0-1.002-0.406-1.504-1.217-1.504c-0.346,0-0.646,0.144-0.899,0.431s-0.407,0.645-0.461,1.073H54.601z"/>
		<path fill="#2F2F2F" d="M67.575,185.442h-2.044v-1.005h-0.027c-0.469,0.784-1.165,1.176-2.085,1.176
			c-0.679,0-1.213-0.192-1.603-0.578s-0.584-0.899-0.584-1.542c0-1.358,0.804-2.142,2.413-2.352l1.9-0.253
			c0-0.766-0.415-1.148-1.244-1.148c-0.834,0-1.627,0.249-2.379,0.745v-1.627c0.301-0.155,0.712-0.292,1.234-0.41
			s0.997-0.178,1.425-0.178c1.996,0,2.994,0.996,2.994,2.987V185.442z M65.545,182.598v-0.472l-1.271,0.164
			c-0.702,0.091-1.053,0.408-1.053,0.95c0,0.246,0.085,0.448,0.256,0.605s0.402,0.236,0.694,0.236c0.406,0,0.736-0.14,0.991-0.42
			S65.545,183.026,65.545,182.598z"/>
		<path fill="#2F2F2F" d="M73.404,185.36c-0.319,0.168-0.8,0.253-1.442,0.253c-1.522,0-2.283-0.791-2.283-2.372v-3.206h-1.135
			v-1.593h1.135v-1.511l2.153-0.615v2.126h1.572v1.593h-1.572v2.83c0,0.729,0.29,1.094,0.868,1.094c0.228,0,0.462-0.066,0.704-0.198
			V185.36z"/>
		<path fill="#2F2F2F" d="M79.041,185.36c-0.319,0.168-0.8,0.253-1.442,0.253c-1.522,0-2.283-0.791-2.283-2.372v-3.206h-1.135
			v-1.593h1.135v-1.511l2.153-0.615v2.126h1.572v1.593h-1.572v2.83c0,0.729,0.29,1.094,0.868,1.094c0.228,0,0.462-0.066,0.704-0.198
			V185.36z"/>
		<path fill="#2F2F2F" d="M86.527,182.557h-4.566c0.073,1.016,0.713,1.524,1.921,1.524c0.77,0,1.447-0.182,2.03-0.547v1.559
			c-0.647,0.346-1.488,0.52-2.522,0.52c-1.13,0-2.007-0.313-2.632-0.94s-0.937-1.5-0.937-2.622c0-1.162,0.337-2.083,1.012-2.762
			s1.504-1.019,2.488-1.019c1.021,0,1.811,0.303,2.369,0.909s0.837,1.429,0.837,2.468V182.557z M84.524,181.231
			c0-1.002-0.406-1.504-1.217-1.504c-0.346,0-0.646,0.144-0.899,0.431s-0.407,0.645-0.461,1.073H84.524z"/>
		<path fill="#2F2F2F" d="M99.007,185.442h-2.153v-3.992c0-1.016-0.374-1.524-1.121-1.524c-0.355,0-0.645,0.153-0.868,0.458
			s-0.335,0.686-0.335,1.142v3.917h-2.16v-4.033c0-0.989-0.367-1.483-1.101-1.483c-0.369,0-0.664,0.146-0.885,0.438
			s-0.332,0.688-0.332,1.189v3.89h-2.16v-7h2.16v1.094h0.027c0.223-0.374,0.537-0.678,0.94-0.913s0.844-0.352,1.323-0.352
			c0.989,0,1.666,0.435,2.03,1.306c0.533-0.871,1.317-1.306,2.352-1.306c1.522,0,2.283,0.939,2.283,2.816V185.442z"/>
		<path fill="#2F2F2F" d="M102.891,184.628h-0.027v4.033h-2.16v-10.22h2.16v1.053h0.027c0.533-0.816,1.283-1.224,2.249-1.224
			c0.907,0,1.607,0.311,2.102,0.933s0.742,1.469,0.742,2.54c0,1.167-0.288,2.103-0.865,2.81s-1.343,1.06-2.3,1.06
			C103.976,185.613,103.333,185.285,102.891,184.628z M102.83,181.757v0.561c0,0.483,0.127,0.877,0.383,1.183
			s0.59,0.458,1.005,0.458c0.492,0,0.874-0.19,1.145-0.571s0.407-0.919,0.407-1.617c0-1.23-0.479-1.846-1.436-1.846
			c-0.442,0-0.803,0.167-1.083,0.502S102.83,181.206,102.83,181.757z"/>
		<path fill="#2F2F2F" d="M113.61,185.36c-0.319,0.168-0.8,0.253-1.442,0.253c-1.522,0-2.283-0.791-2.283-2.372v-3.206h-1.135
			v-1.593h1.135v-1.511l2.153-0.615v2.126h1.572v1.593h-1.572v2.83c0,0.729,0.29,1.094,0.868,1.094c0.228,0,0.462-0.066,0.704-0.198
			V185.36z"/>
		<path fill="#2F2F2F" d="M121.096,182.557h-4.566c0.073,1.016,0.713,1.524,1.921,1.524c0.77,0,1.447-0.182,2.03-0.547v1.559
			c-0.647,0.346-1.488,0.52-2.522,0.52c-1.13,0-2.007-0.313-2.632-0.94s-0.937-1.5-0.937-2.622c0-1.162,0.337-2.083,1.012-2.762
			s1.504-1.019,2.488-1.019c1.021,0,1.811,0.303,2.369,0.909s0.837,1.429,0.837,2.468V182.557z M119.093,181.231
			c0-1.002-0.406-1.504-1.217-1.504c-0.346,0-0.646,0.144-0.899,0.431s-0.407,0.645-0.461,1.073H119.093z"/>
		<path fill="#2F2F2F" d="M129.341,185.442h-2.16v-0.964h-0.027c-0.492,0.756-1.214,1.135-2.167,1.135
			c-0.875,0-1.579-0.309-2.112-0.926s-0.8-1.48-0.8-2.587c0-1.158,0.294-2.085,0.882-2.782s1.358-1.046,2.311-1.046
			c0.902,0,1.531,0.324,1.887,0.971h0.027v-4.163h2.16V185.442z M127.222,182.038v-0.526c0-0.456-0.132-0.834-0.396-1.135
			s-0.608-0.451-1.032-0.451c-0.479,0-0.852,0.188-1.121,0.564s-0.403,0.892-0.403,1.548c0,0.615,0.13,1.089,0.39,1.422
			s0.62,0.499,1.08,0.499c0.438,0,0.794-0.175,1.07-0.526S127.222,182.616,127.222,182.038z"/>
		<path fill="#2F2F2F" d="M140.846,185.442h-2.044v-1.005h-0.027c-0.469,0.784-1.165,1.176-2.085,1.176
			c-0.679,0-1.213-0.192-1.603-0.578s-0.584-0.899-0.584-1.542c0-1.358,0.804-2.142,2.413-2.352l1.9-0.253
			c0-0.766-0.415-1.148-1.244-1.148c-0.834,0-1.627,0.249-2.379,0.745v-1.627c0.301-0.155,0.712-0.292,1.234-0.41
			s0.997-0.178,1.425-0.178c1.996,0,2.994,0.996,2.994,2.987V185.442z M138.816,182.598v-0.472l-1.271,0.164
			c-0.702,0.091-1.053,0.408-1.053,0.95c0,0.246,0.085,0.448,0.256,0.605s0.402,0.236,0.694,0.236c0.406,0,0.736-0.14,0.991-0.42
			S138.816,183.026,138.816,182.598z"/>
		<path fill="#2F2F2F" d="M147.86,185.189c-0.488,0.283-1.192,0.424-2.112,0.424c-1.076,0-1.946-0.326-2.611-0.978
			s-0.998-1.493-0.998-2.522c0-1.189,0.356-2.127,1.07-2.813s1.667-1.029,2.861-1.029c0.825,0,1.422,0.109,1.791,0.328v1.832
			c-0.451-0.337-0.955-0.506-1.511-0.506c-0.62,0-1.111,0.181-1.473,0.543s-0.543,0.862-0.543,1.5c0,0.62,0.173,1.106,0.52,1.459
			s0.823,0.53,1.429,0.53c0.538,0,1.064-0.168,1.579-0.506V185.189z"/>
		<path fill="#2F2F2F" d="M153.592,185.36c-0.319,0.168-0.8,0.253-1.442,0.253c-1.522,0-2.283-0.791-2.283-2.372v-3.206h-1.135
			v-1.593h1.135v-1.511l2.153-0.615v2.126h1.572v1.593h-1.572v2.83c0,0.729,0.29,1.094,0.868,1.094c0.228,0,0.462-0.066,0.704-0.198
			V185.36z"/>
		<path fill="#2F2F2F" d="M155.97,177.334c-0.365,0-0.663-0.108-0.896-0.325s-0.349-0.482-0.349-0.796
			c0-0.324,0.116-0.588,0.349-0.793s0.531-0.308,0.896-0.308c0.369,0,0.669,0.103,0.899,0.308s0.345,0.469,0.345,0.793
			c0,0.328-0.115,0.597-0.345,0.807S156.339,177.334,155.97,177.334z M157.036,185.442h-2.16v-7h2.16V185.442z"/>
		<path fill="#2F2F2F" d="M162.147,185.613c-1.167,0-2.084-0.327-2.751-0.981s-1.001-1.542-1.001-2.663
			c0-1.158,0.346-2.063,1.039-2.717s1.629-0.981,2.81-0.981c1.162,0,2.074,0.327,2.734,0.981s0.991,1.519,0.991,2.594
			c0,1.162-0.341,2.081-1.022,2.755S163.332,185.613,162.147,185.613z M162.202,179.925c-0.51,0-0.907,0.175-1.189,0.526
			s-0.424,0.848-0.424,1.49c0,1.344,0.542,2.017,1.627,2.017c1.035,0,1.552-0.69,1.552-2.071
			C163.767,180.579,163.245,179.925,162.202,179.925z"/>
		<path fill="#2F2F2F" d="M174.109,185.442h-2.153v-3.89c0-1.084-0.387-1.627-1.162-1.627c-0.374,0-0.681,0.144-0.923,0.431
			s-0.362,0.652-0.362,1.094v3.992h-2.16v-7h2.16v1.107h0.027c0.515-0.852,1.265-1.278,2.249-1.278c1.549,0,2.324,0.961,2.324,2.885
			V185.442z"/>
	</g>
</g>
<g id="Layer_1">
	<g>
	</g>
	<g>
	</g>
	<g>
	</g>
	<g>
	</g>
	<g>
	</g>
	<g>
	</g>
	<g>
	</g>
	<g>
	</g>
	<g>
	</g>
	<g>
	</g>
	<g>
	</g>
	<g>
	</g>
	<g>
	</g>
	<g>
	</g>
	<g>
	</g>
	<g>
	</g>
	<g>
	</g>
	<g>
	</g>
	<g>
	</g>
	<g>
	</g>
	<g>
	</g>
	<g>
	</g>
	<g>
	</g>
	<g>
	</g>
	<g>
	</g>
	<g>
	</g>
	<g>
	</g>
	<g>
	</g>
	<g>
	</g>
	<g>
	</g>
	<g>
	</g>
	<g>
	</g>
	<g>
	</g>
	<g>
	</g>
	<g>
	</g>
	<g>
	</g>
	<g>
	</g>
</g>
</svg>
