<svg id="ee25bc39-81ed-4fda-bc28-18fc858af7da" data-name="Layer 1" xmlns="http://www.w3.org/2000/svg" xmlns:xlink="http://www.w3.org/1999/xlink" width="469" height="182" viewBox="0 0 469 182">
  <defs>
    <radialGradient id="f01b2f1f-b62e-47bc-8957-f8fcb8aee93b" cx="-86.16" cy="-250.18" r="8.5" gradientTransform="matrix(3, 0, 0, -3, 667.47, -656.59)" gradientUnits="userSpaceOnUse">
      <stop offset="0.18" stop-color="#6a9dd3"/>
      <stop offset="0.56" stop-color="#679cd3"/>
      <stop offset="0.69" stop-color="#6198d1"/>
      <stop offset="0.78" stop-color="#5894cf"/>
      <stop offset="0.86" stop-color="#4b8cca"/>
      <stop offset="0.93" stop-color="#3c83c5"/>
      <stop offset="0.99" stop-color="#3079be"/>
      <stop offset="1" stop-color="#2f76bc"/>
    </radialGradient>
    <radialGradient id="e50e7b26-ae74-4714-acba-277f15d8fc7b" cx="-34.32" cy="-452.48" r="9.88" gradientTransform="matrix(2.82, 0, 0, -2.82, 502.51, -1185.32)" gradientUnits="userSpaceOnUse">
      <stop offset="0.27" stop-color="#fed70b"/>
      <stop offset="0.49" stop-color="#ffcc14"/>
      <stop offset="0.88" stop-color="#fbac1e"/>
      <stop offset="1" stop-color="#f9a120"/>
    </radialGradient>
    <linearGradient id="b0309154-9466-4768-abd5-9273db4065e9" x1="-306.64" y1="1034.13" x2="-289.04" y2="1064.68" gradientTransform="matrix(1, 1.74, 1.74, -1, -1468.92, 1637.32)" gradientUnits="userSpaceOnUse">
      <stop offset="0" stop-color="#015ca2"/>
      <stop offset="0.37" stop-color="#04508e"/>
      <stop offset="1" stop-color="#1e3565"/>
    </linearGradient>
    <linearGradient id="b55a66a4-59be-4af2-aafe-3fb0aad01233" x1="-2435.24" y1="-530.5" x2="-2413.86" y2="-493" gradientTransform="matrix(-1, -1.74, -1.74, 1, -3253.87, -3622.57)" gradientUnits="userSpaceOnUse">
      <stop offset="0" stop-color="#015ca2"/>
      <stop offset="0.45" stop-color="#164884"/>
      <stop offset="1" stop-color="#1e3565"/>
    </linearGradient>
    <linearGradient id="a8173efc-c315-419f-b023-44d26d7eda59" x1="-65.2" y1="-292.13" x2="-63.75" y2="-283.89" gradientTransform="matrix(2, 0, 0, -2, 183.49, -494.83)" gradientUnits="userSpaceOnUse">
      <stop offset="0.26" stop-color="#75d0eb"/>
      <stop offset="0.42" stop-color="#8ed6ed"/>
      <stop offset="0.58" stop-color="#a5def1"/>
      <stop offset="0.73" stop-color="#b6e4f5"/>
      <stop offset="0.88" stop-color="#c2e8f6"/>
      <stop offset="1" stop-color="#c6eaf7"/>
    </linearGradient>
    <linearGradient id="edd873c4-e0b3-4ac7-a425-cdfe5855707c" x1="-81.47" y1="-103.83" x2="-86.02" y2="-112.46" gradientTransform="translate(475.97 409.45) scale(3)" gradientUnits="userSpaceOnUse">
      <stop offset="0" stop-color="#3186c7"/>
      <stop offset="0.9" stop-color="#5fabdf"/>
    </linearGradient>
    <linearGradient id="ad8d9feb-9775-4552-b553-06176f3daae3" x1="-83.44" y1="-106.34" x2="-80.29" y2="-100.91" gradientTransform="translate(475.97 409.45) scale(3)" gradientUnits="userSpaceOnUse">
      <stop offset="0.1" stop-color="#5fabdf"/>
      <stop offset="0.29" stop-color="#5ba9dd"/>
      <stop offset="0.51" stop-color="#4fa0d8"/>
      <stop offset="0.74" stop-color="#3c91ce"/>
      <stop offset="0.88" stop-color="#3186c7"/>
    </linearGradient>
  </defs>
  <rect width="469" height="182" fill="#fff"/>
  <rect x="10" y="11.94" width="450.5" height="159" fill="#fff" stroke="#010101"/>
  <line x1="10" y1="34.56" x2="460.5" y2="34.56" fill="none" stroke="#010101"/>
  <g style="isolation: isolate">
    <text transform="translate(72.75 29.05)" font-size="14" fill="#3d80c0" font-family="SegoeUI-Bold, Segoe UI" font-weight="700" style="isolation: isolate">Grant</text>
    <text transform="translate(109.73 29.05)" font-size="14" fill="#3d80c0" font-family="SegoeUI-Bold, Segoe UI" font-weight="700" letter-spacing="0.06em" style="isolation: isolate"> </text>
    <text transform="translate(114.43 29.05)" font-size="14" fill="#3d80c0" font-family="SegoeUI-Bold, Segoe UI" font-weight="700" style="isolation: isolate">a</text>
    <text transform="translate(121.96 29.05)" font-size="14" fill="#3d80c0" font-family="SegoeUI-Bold, Segoe UI" font-weight="700" letter-spacing="0.06em" style="isolation: isolate"> </text>
    <text transform="translate(126.66 29.05)" font-size="14" fill="#3d80c0" font-family="SegoeUI-Bold, Segoe UI" font-weight="700" style="isolation: isolate">Media</text>
    <text transform="translate(167.81 29.05)" font-size="14" fill="#3d80c0" font-family="SegoeUI-Bold, Segoe UI" font-weight="700" letter-spacing="0.06em" style="isolation: isolate"> </text>
    <text transform="translate(172.51 29.05)" font-size="14" fill="#3d80c0" font-family="SegoeUI-Bold, Segoe UI" font-weight="700" style="isolation: isolate">Se</text>
    <text transform="translate(187.93 29.05)" font-size="14" fill="#3d80c0" font-family="SegoeUI-Bold, Segoe UI" font-weight="700" letter-spacing="0.04em" style="isolation: isolate">r</text>
    <text transform="translate(194.06 29.05)" font-size="14" fill="#3d80c0" font-family="SegoeUI-Bold, Segoe UI" font-weight="700" style="isolation: isolate">vices</text>
    <text transform="translate(226.08 29.05)" font-size="14" fill="#3d80c0" font-family="SegoeUI-Bold, Segoe UI" font-weight="700" letter-spacing="0.06em" style="isolation: isolate"> </text>
    <text transform="translate(230.78 29.05)" font-size="14" fill="#3d80c0" font-family="SegoeUI-Bold, Segoe UI" font-weight="700" style="isolation: isolate">Account</text>
    <text transform="translate(285.01 29.05)" font-size="14" fill="#3d80c0" font-family="SegoeUI-Bold, Segoe UI" font-weight="700" letter-spacing="0.06em" style="isolation: isolate"> </text>
    <text transform="translate(289.71 29.05)" font-size="14" fill="#3d80c0" font-family="SegoeUI-Bold, Segoe UI" font-weight="700" letter-spacing="-0.01em" style="isolation: isolate">K</text>
    <text transform="translate(298.66 29.05)" font-size="14" fill="#3d80c0" font-family="SegoeUI-Bold, Segoe UI" font-weight="700" style="isolation: isolate">ey</text>
    <text transform="translate(313.77 29.05)" font-size="14" fill="#3d80c0" font-family="SegoeUI-Bold, Segoe UI" font-weight="700" letter-spacing="0.06em" style="isolation: isolate"> </text>
    <text transform="translate(318.47 29.05)" font-size="14" fill="#3d80c0" font-family="SegoeUI-Bold, Segoe UI" font-weight="700" letter-spacing="-0.08em" style="isolation: isolate">V</text>
    <text transform="translate(326.75 29.05)" font-size="14" fill="#3d80c0" font-family="SegoeUI-Bold, Segoe UI" font-weight="700" style="isolation: isolate">ault</text>
    <text transform="translate(352.18 29.05)" font-size="14" fill="#3d80c0" font-family="SegoeUI-Bold, Segoe UI" font-weight="700" letter-spacing="0.06em" style="isolation: isolate"> </text>
    <text transform="translate(356.88 29.05)" font-size="14" fill="#3d80c0" font-family="SegoeUI-Bold, Segoe UI" font-weight="700" style="isolation: isolate">access</text>
  </g>
  <rect x="373.5" y="58.44" width="71" height="86.96" fill="#fff"/>
  <g>
    <path id="b67cc2bc-0d70-4931-a84d-c7104165ff80" data-name="b32836d5-3bcc-4bba-8444-af4a34a8ff87" d="M409,68.44a25.5,25.5,0,1,0,25.5,25.5A25.5,25.5,0,0,0,409,68.44ZM409,116a22,22,0,1,1,22-22h0A22,22,0,0,1,409,116Z" fill="url(#f01b2f1f-b62e-47bc-8957-f8fcb8aee93b)"/>
    <circle cx="409" cy="93.94" r="22.02" fill="#fff"/>
    <path id="ae5bcb63-581d-4a7e-9648-9885275b8360" data-name="bc76e0a3-ca55-480d-a531-13b4b039a3cf" d="M422.32,88.93a5.52,5.52,0,0,0,0-7.77h0l-9.45-9.48a5.49,5.49,0,0,0-7.74,0h0l-9.45,9.48a5.52,5.52,0,0,0,0,7.77l7.86,8A1.44,1.44,0,0,1,404,98v14.64a1.87,1.87,0,0,0,.54,1.32l3.6,3.6a1.23,1.23,0,0,0,1.74,0h0l3.63-3.48h0l2-2a.74.74,0,0,0,0-1L414,109.61a.82.82,0,0,1,0-1.11l1.47-1.47a.74.74,0,0,0,0-1l-1.62-1.53a.82.82,0,0,1,0-1.11l1.47-1.47a.74.74,0,0,0,0-1l-1.89-2v-.75ZM409,73.93a3,3,0,1,0,0,.06Z" fill="url(#e50e7b26-ae74-4714-acba-277f15d8fc7b)"/>
    <path id="ba968d50-d41d-40b1-bbf7-c1ae1b1dcf5c" data-name="ac256dd9-42d1-469f-83ac-1752fcf2391c" d="M406.54,112.84h0a.69.69,0,0,0,1,0l0,0a.67.67,0,0,0,.18-.45v-12a.7.7,0,0,0-.33-.6h.15a.64.64,0,0,0-.88.15h0a.75.75,0,0,0,0,.42v12A.82.82,0,0,0,406.54,112.84Z" fill="#f7921e" opacity="0.75" style="isolation: isolate"/>
    <rect id="fc41a343-75f6-428f-ad1e-f4b3eae107f1" data-name="a014bebe-e3e3-4c48-bf41-154aefa3fa8e" x="401.44" y="84.31" width="15.51" height="1.83" rx="0.84" fill="#f7921e" opacity="0.75" style="isolation: isolate"/>
    <rect id="ec6e0c45-cfdc-4495-9c64-5e0fe3e66c5c" data-name="a07541dd-4452-490d-a205-78c843701549" x="401.44" y="87.28" width="15.51" height="1.83" rx="0.84" fill="#f7921e" opacity="0.75" style="isolation: isolate"/>
  </g>
  <g style="isolation: isolate">
    <text transform="translate(384.5 132.39)" font-size="12" fill="#010101" font-family="SegoeUI, Segoe UI" letter-spacing="-0.01em" style="isolation: isolate">K</text>
    <text transform="translate(391.3 132.39)" font-size="12" fill="#010101" font-family="SegoeUI, Segoe UI" style="isolation: isolate">ey</text>
    <text transform="translate(403.38 132.39)" font-size="12" fill="#010101" font-family="SegoeUI, Segoe UI" letter-spacing="0.03em" style="isolation: isolate"> </text>
    <text transform="translate(407.06 132.39)" font-size="12" fill="#010101" font-family="SegoeUI, Segoe UI" letter-spacing="-0.07em" style="isolation: isolate">V</text>
    <text transform="translate(413.63 132.39)" font-size="12" fill="#010101" font-family="SegoeUI, Segoe UI" style="isolation: isolate">ault</text>
  </g>
  <rect x="26" y="50.94" width="65" height="101.88" fill="#fff"/>
  <g>
    <path d="M59.5,68.4l8.76,5,6-3.52a17.59,17.59,0,0,0-23.93-6.74h-.07a16.49,16.49,0,0,0-3.9,3A20,20,0,0,1,59.5,68.4Z" fill="url(#b0309154-9466-4768-abd5-9273db4065e9)"/>
    <path d="M68.22,73.42l-.14,12,6.34,1.7a17.59,17.59,0,0,0-6.6-24l0,0h0A17.71,17.71,0,0,0,64,61.52,20.88,20.88,0,0,1,68.22,73.42Z" fill="#2f76bc"/>
    <path d="M68.2,83.84,59.1,89.1l.14,7A17.62,17.62,0,0,0,76.78,78.5a17.34,17.34,0,0,0-.58-4.18A19.23,19.23,0,0,1,68.2,83.84Z" fill="#6a9dd3"/>
    <path d="M59.1,89.1,50,83.84l-6,3.62a17.54,17.54,0,0,0,27.3,3.76A19.87,19.87,0,0,1,59.1,89.1Z" fill="url(#b55a66a4-59be-4af2-aafe-3fb0aad01233)"/>
    <path d="M50,83.84l.14-12.48L43.9,69.72a17.58,17.58,0,0,0,6.38,24,17.37,17.37,0,0,0,4.32,1.79A20.26,20.26,0,0,1,50,83.84Z" fill="#2f76bc"/>
    <path d="M50.3,73.14l8.8-5.08a21.25,21.25,0,0,0-11.88-2.5,17.51,17.51,0,0,0-5.72,13,18.59,18.59,0,0,0,.62,4.64A20.54,20.54,0,0,1,50.3,73.14Z" fill="#6a9dd3"/>
    <polygon points="68.2 83.84 68.2 73.32 59.1 68.06 49.98 73.32 49.98 83.84 59.1 89.1 68.2 83.84" fill="#c6eaf7"/>
    <polygon points="59.1 78.68 59.1 89.1 49.98 83.84 49.98 73.36 59.1 78.68" fill="url(#a8173efc-c315-419f-b023-44d26d7eda59)"/>
    <polygon points="59.1 78.68 59.1 89.1 68.22 83.84 68.22 73.36 59.1 78.68" fill="#75d0eb"/>
  </g>
  <text transform="translate(40.5 107.89)" font-size="12" fill="#010101" font-family="SegoeUI, Segoe UI" style="isolation: isolate">Media</text>
  <text transform="translate(36 123.85)" font-size="12" fill="#010101" font-family="SegoeUI, Segoe UI" style="isolation: isolate">Services</text>
  <g style="isolation: isolate">
    <text transform="translate(36 139.81)" font-size="12" fill="#010101" font-family="SegoeUI, Segoe UI" letter-spacing="0.02em" style="isolation: isolate">Accoun</text>
    <text transform="translate(76.93 139.81)" font-size="12" fill="#010101" font-family="SegoeUI, Segoe UI" style="isolation: isolate">t</text>
  </g>
  <rect x="182" y="48.94" width="74" height="105.92" fill="#fff"/>
  <g>
    <polygon points="195.45 89.6 218.79 104.75 242.55 89.57 245.55 93.02 218.79 110.27 192.45 93.05 195.45 89.6" fill="#75d0eb"/>
    <polygon points="197.19 87.68 218.79 61.94 240.84 87.71 218.79 101.63 197.19 87.68" fill="#fff"/>
    <polygon points="218.79 61.94 218.79 101.63 197.19 87.68 218.79 61.94" fill="#75d0eb"/>
    <polygon points="218.79 61.94 218.79 101.63 240.84 87.71 218.79 61.94" fill="url(#edd873c4-e0b3-4ac7-a425-cdfe5855707c)"/>
    <polygon points="218.79 82.43 240.84 87.71 218.79 101.63 218.79 82.43" fill="#53b1df"/>
    <polygon points="218.79 101.63 197.19 87.68 218.79 82.43 218.79 101.63" fill="#a5def3"/>
    <polygon points="218.79 110.27 245.55 93.02 242.55 89.57 218.79 104.75 218.79 110.27" fill="url(#ad8d9feb-9775-4552-b553-06176f3daae3)"/>
    <g>
      <path id="e0afce8a-5aaf-4fb8-808d-7c815428c6d9" data-name="aad6b972-cafa-4779-8573-731b843c9ed0" d="M241,94.58a3.48,3.48,0,0,0,0-4.92h0l-6-6a3.48,3.48,0,0,0-4.92,0h0l-6,6a3.53,3.53,0,0,0,0,5l5,5a.93.93,0,0,1,.27.69v9.3a1.07,1.07,0,0,0,.36.84L232,112.7a.75.75,0,0,0,1.06,0h0v0l2.19-2.19h0l1.32-1.32a.45.45,0,0,0,0-.63l-.93-.93a.48.48,0,0,1,0-.68h0l.93-.93a.47.47,0,0,0,0-.66l-.93-.93a.45.45,0,0,1-.06-.63l.06-.06.93-1a.45.45,0,0,0,0-.63l-1.32-1.32v-.48Zm-8.46-9.51a2,2,0,1,1-2,2h0a2,2,0,0,1,2-2Z" fill="#ffcb05"/>
      <path id="e040b507-531d-4937-adcb-1d335f625de4" data-name="aa1c3325-ec9a-4d4a-84b7-113b793e0fcf" d="M231,109.94h0a.41.41,0,0,0,.58,0h0a.4.4,0,0,0,.13-.34v-7.68a.5.5,0,0,0-.18-.39h0a.43.43,0,0,0-.59.1.43.43,0,0,0-.07.29v7.53A.45.45,0,0,0,231,109.94Z" fill="#f7921e" opacity="0.75" style="isolation: isolate"/>
      <rect id="a28542c9-a0fa-4d4f-be2f-dde581d6853a" data-name="b2a7b515-fd2c-48c4-a30a-e6f87fd75899" x="227.7" y="91.64" width="9.87" height="1.17" rx="0.54" fill="#f7921e" opacity="0.75" style="isolation: isolate"/>
      <rect id="b73c9070-b083-449e-8a5c-dd112ba3911f" data-name="f2963c01-4b7c-4347-9588-d6aab2094673" x="227.7" y="93.53" width="9.87" height="1.17" rx="0.54" fill="#f7921e" opacity="0.75" style="isolation: isolate"/>
    </g>
  </g>
  <text transform="translate(194 125.89)" font-size="12" fill="#010101" font-family="SegoeUI, Segoe UI" style="isolation: isolate">Managed</text>
  <text transform="translate(199 141.85)" font-size="12" fill="#010101" font-family="SegoeUI, Segoe UI" style="isolation: isolate">Identity</text>
  <path id="f8e05cd8-5475-40fb-bbae-48ed6c60ed48" data-name="ac0abb8a-53d6-47a6-896b-8a41ad7d179e" d="M91.19,101.94h90.74" fill="none" stroke="#010101"/>
  <g style="isolation: isolate">
    <text transform="translate(125 97.97)" font-size="13" fill="#010101" font-family="SegoeUI, Segoe UI" letter-spacing="0.02em" style="isolation: isolate">use</text>
    <text transform="translate(145.48 97.97)" font-size="13" fill="#010101" font-family="SegoeUI, Segoe UI" style="isolation: isolate">s</text>
  </g>
  <path id="a4dd8467-77e9-4ab2-b299-b170dc538486" data-name="f7069393-4a3d-4e2d-af96-f34f31733e6b" d="M256.25,101.94h112" fill="none" stroke="#010101"/>
  <polygon points="373.45 101.94 364.45 97.94 368.45 101.94 364.45 105.94 373.45 101.94" fill="#010101" stroke="#010101"/>
  <g style="isolation: isolate">
    <text transform="translate(287 97.97)" font-size="13" fill="#010101" font-family="SegoeUI, Segoe UI" style="isolation: isolate">to</text>
    <text transform="translate(299.02 97.97)" font-size="13" fill="#010101" font-family="SegoeUI, Segoe UI" letter-spacing="0.15em" style="isolation: isolate"> </text>
    <text transform="translate(304.55 97.97)" font-size="13" fill="#010101" font-family="SegoeUI, Segoe UI" style="isolation: isolate">access</text>
  </g>
</svg>
