<?xml version="1.0" encoding="UTF-8" standalone="no"?>
<!DOCTYPE svg PUBLIC "-//W3C//DTD SVG 1.1//EN" "http://www.w3.org/Graphics/SVG/1.1/DTD/svg11.dtd">
<!-- Generated by Microsoft Visio, SVG Export virtual-visit-options.svg Export -->
<svg xmlns="http://www.w3.org/2000/svg" xmlns:xlink="http://www.w3.org/1999/xlink" xmlns:ev="http://www.w3.org/2001/xml-events"
		xmlns:v="http://schemas.microsoft.com/visio/2003/SVGExtensions/" width="5.25521in" height="5.12415in"
		viewBox="0 0 378.375 368.939" xml:space="preserve" color-interpolation-filters="sRGB" class="st17">
	<v:documentProperties v:langID="1033" v:viewMarkup="false">
		<v:userDefs>
			<v:ud v:nameU="msvNoAutoConnect" v:val="VT0(1):26"/>
			<v:ud v:nameU="visV14CFF" v:prompt="" v:val="VT0(1):26"/>
			<v:ud v:nameU="visFlowchartType" v:prompt="" v:val="VT4(CrossFunctional)"/>
		</v:userDefs>
	</v:documentProperties>

	<style type="text/css">
	<![CDATA[
		.st1 {fill:#ffffff;stroke:none;stroke-linecap:round;stroke-linejoin:round;stroke-width:0.75}
		.st2 {fill:#d8d8d8;stroke:none;stroke-linecap:round;stroke-linejoin:round;stroke-width:0.75}
		.st3 {fill:#00b0f0;stroke:none;stroke-width:0.25}
		.st4 {fill:#000000;font-family:Calibri;font-size:0.75em}
		.st5 {font-size:1em}
		.st6 {fill:#0070c0;stroke:none;stroke-width:0.25}
		.st7 {marker-end:url(#mrkr5-87);marker-start:url(#mrkr5-85);stroke:#4672c4;stroke-linecap:round;stroke-linejoin:round;stroke-width:1}
		.st8 {fill:#4672c4;fill-opacity:1;stroke:#4672c4;stroke-opacity:1;stroke-width:0.28409090909091}
		.st9 {fill:#5059c9;stroke:none;stroke-linecap:butt;stroke-width:0.75}
		.st10 {fill:#7b83eb;stroke:none;stroke-linecap:butt;stroke-width:0.75}
		.st11 {fill:#000000;fill-opacity:0.5;stroke:none;stroke-linecap:butt;stroke-width:0.75}
		.st12 {fill:#000000;fill-opacity:0.098;stroke:none;stroke-linecap:butt;stroke-width:0.75}
		.st13 {fill:#4b53bc;stroke:none;stroke-linecap:butt;stroke-width:0.75}
		.st14 {fill:#ffffff;stroke:none;stroke-linecap:butt;stroke-width:0.75}
		.st15 {fill:none;stroke:none;stroke-linecap:round;stroke-linejoin:round;stroke-width:0.75}
		.st16 {fill:#000000;font-family:Calibri;font-size:0.833336em;font-weight:bold}
		.st17 {fill:none;fill-rule:evenodd;font-size:12px;overflow:visible;stroke-linecap:square;stroke-miterlimit:3}
	]]>
	</style>

	<defs id="Markers">
		<g id="lend5">
			<path d="M 2 1 L 0 0 L 1.98117 -0.993387 C 1.67173 -0.364515 1.67301 0.372641 1.98465 1.00043 " style="stroke:none"/>
		</g>
		<marker id="mrkr5-85" class="st8" v:arrowType="5" v:arrowSize="2" v:setback="5.8" refX="5.8" orient="auto"
				markerUnits="strokeWidth" overflow="visible">
			<use xlink:href="#lend5" transform="scale(3.52) "/>
		</marker>
		<marker id="mrkr5-87" class="st8" v:arrowType="5" v:arrowSize="2" v:setback="6.16" refX="-6.16" orient="auto"
				markerUnits="strokeWidth" overflow="visible">
			<use xlink:href="#lend5" transform="scale(-3.52,-3.52) "/>
		</marker>
	</defs>
	<g v:mID="38" v:index="10" v:groupContext="foregroundPage">
		<title>Export</title>
		<v:pageProperties v:drawingScale="1" v:pageScale="1" v:drawingUnits="19" v:shadowOffsetX="9" v:shadowOffsetY="-9"/>
		<v:layer v:name="Azure" v:index="0"/>
		<v:layer v:name="Connector" v:index="1"/>
		<g id="shape1076-1" v:mID="1076" v:groupContext="shape" transform="translate(18.375,-18.375)">
			<title>Sheet.1076</title>
			<rect x="0" y="36.75" width="341.625" height="332.189" class="st1"/>
		</g>
		<g id="shape1077-3" v:mID="1077" v:groupContext="shape" transform="translate(25.125,-28.4258)">
			<title>Sheet.1077</title>
			<rect x="0" y="263.189" width="330.75" height="105.75" class="st2"/>
		</g>
		<g id="shape1078-5" v:mID="1078" v:groupContext="shape" transform="translate(24,-138.676)">
			<title>Sheet.1078</title>
			<rect x="0" y="263.189" width="330.75" height="105.75" class="st2"/>
		</g>
		<g id="shape1079-7" v:mID="1079" v:groupContext="shape" transform="translate(24,-251.176)">
			<title>Sheet.1079</title>
			<rect x="0" y="274.439" width="330.75" height="94.5" class="st2"/>
		</g>
		<g id="group1080-9" transform="translate(43.521,-187.963)" v:mID="1080" v:groupContext="group" v:layerMember="0">
			<title>User.1974</title>
			<desc>External User</desc>
			<g id="group1081-10" transform="translate(6.43969,-10.292)" v:mID="1081" v:groupContext="group" v:layerMember="0">
				<title>Sheet.1081</title>
				<g id="shape1082-11" v:mID="1082" v:groupContext="shape" v:layerMember="0">
					<title>Sheet.1082</title>
					<path d="M5.91 352.95 C2.18 353.87 0 357.99 1.04 362.16 C2.07 366.32 5.93 368.94 9.66 368.02 C13.38 367.09 15.56
								 362.96 14.53 358.8 C13.49 354.64 9.63 352.02 5.91 352.95 Z" class="st3"/>
				</g>
			</g>
			<g id="group1083-13" v:mID="1083" v:groupContext="group" v:layerMember="0">
				<title>Sheet.1083</title>
				<g id="shape1084-14" v:mID="1084" v:groupContext="shape" v:layerMember="0">
					<title>Sheet.1084</title>
					<path d="M20.38 358.83 C19.67 358.78 18.89 360.12 17.85 360.6 C16.81 361.08 15.69 362.03 12.7 360.6 C9.7 359.16
								 9.23 357.94 6.67 357.94 C4.15 357.94 0.08 362.43 0 368.94 L25.48 368.94 C25.43 368.94 25.19 364.46
								 23.79 362.01 C22.01 358.91 21.06 358.87 20.38 358.83 Z" class="st3"/>
				</g>
			</g>
			<g id="shape1080-16" v:mID="1080" v:groupContext="groupContent" v:layerMember="0">
				<v:textBlock v:margins="rect(4,4,4,4)"/>
				<v:textRect cx="12.7395" cy="383.741" width="42.11" height="29.6036"/>
				<text x="-2.27" y="381.04" class="st4" v:langID="1033"><v:paragraph v:horizAlign="1"/><v:tabList/>External <v:newlineChar/><tspan
							x="4.28" dy="1.2em" class="st5">User</tspan></text>			</g>
		</g>
		<g id="group1085-19" transform="translate(91.4605,-185.622)" v:mID="1085" v:groupContext="group" v:layerMember="0">
			<title>Web App (Was Websites).1979</title>
			<desc>Custom Azure App</desc>
			<g id="group1086-20" v:mID="1086" v:groupContext="group" v:layerMember="0">
				<title>Sheet.1086</title>
				<g id="shape1087-21" v:mID="1087" v:groupContext="shape" v:layerMember="0">
					<title>Sheet.1087</title>
					<path d="M23.51 364.55 C21.28 366.26 18.64 367.1 16.03 367.1 C12.31 367.1 8.65 365.43 6.22 362.26 C2.08 356.84
								 3.1 349.11 8.52 344.96 C10.76 343.24 13.39 342.42 16.01 342.42 C19.72 342.42 23.39 344.09 25.82
								 347.26 C29.96 352.67 28.93 360.41 23.51 364.55 ZM27.28 346.13 C24.49 342.48 20.27 340.57 16.01 340.57
								 C13.01 340.57 9.96 341.52 7.39 343.49 C1.18 348.26 -0 357.16 4.76 363.38 C7.55 367.03 11.77 368.94
								 16.03 368.94 C19.04 368.94 22.07 367.99 24.64 366.02 C30.86 361.25 32.04 352.35 27.28 346.13 Z"
							class="st6"/>
				</g>
			</g>
			<g id="group1088-23" transform="translate(5.09156,-4.39894)" v:mID="1088" v:groupContext="group" v:layerMember="0">
				<title>Sheet.1088</title>
				<g id="group1089-24" transform="translate(0.351188,-0.176625)" v:mID="1089" v:groupContext="group"
						v:layerMember="0">
					<title>Sheet.1089</title>
					<g id="group1090-25" transform="translate(0.44925,3.97904E-13)" v:mID="1090" v:groupContext="group"
							v:layerMember="0">
						<title>Sheet.1090</title>
						<g id="shape1091-26" v:mID="1091" v:groupContext="shape" v:layerMember="0">
							<title>Sheet.1091</title>
							<path d="M3.72 361.91 C2.9 361.09 2.24 360.32 1.71 359.55 C0.52 361.97 0.1 364.46 0 366.44 C0.12 366.6
										 0.12 366.73 0.23 366.89 C0.83 367.64 1.57 368.36 2.29 368.94 C2.18 367.31 2.34 364.66 3.72
										 361.91 Z" class="st6"/>
						</g>
					</g>
					<g id="shape1092-28" v:mID="1092" v:groupContext="shape" v:layerMember="0"
							transform="translate(3.3825,-8.98425)">
						<title>Sheet.1092</title>
						<path d="M5.07 361.44 C3.96 362.21 2.81 363.19 1.66 364.42 C1.02 365.09 0.48 365.77 0 366.47 C0.49 367.26
									 1.14 368.08 1.95 368.94 C2.56 368.08 3.31 367.21 4.21 366.37 C5.35 365.31 6.42 364.45 7.43 363.77
									 C6.6 363 5.81 362.23 5.07 361.44 Z" class="st6"/>
					</g>
					<g id="group1093-30" transform="translate(10.2079,-15.2081)" v:mID="1093" v:groupContext="group"
							v:layerMember="0">
						<title>Sheet.1093</title>
						<g id="shape1094-31" v:mID="1094" v:groupContext="shape" v:layerMember="0">
							<title>Sheet.1094</title>
							<path d="M10.04 366.86 C9.5 366.18 8.9 365.58 8.26 365.04 C6.35 364.74 3.39 364.78 0 366.58 C0.78 367.41
										 1.55 368.2 2.3 368.94 C6.82 366.5 10.04 366.86 10.04 366.86 Z" class="st6"/>
						</g>
					</g>
					<g id="group1095-33" transform="translate(1.1291E-13,-9.38775)" v:mID="1095" v:groupContext="group"
							v:layerMember="0">
						<title>Sheet.1095</title>
						<g id="shape1096-34" v:mID="1096" v:groupContext="shape" v:layerMember="0">
							<title>Sheet.1096</title>
							<path d="M2.16 368.94 C2.5 368.25 2.91 367.56 3.38 366.87 C1.44 363.8 1.53 361.26 1.74 360.07 C1.26 360.58
										 0.8 361.11 0.41 361.68 C0.02 363.29 0 365.85 2.16 368.94 Z" class="st6"/>
						</g>
					</g>
					<g id="group1097-36" transform="translate(4.16269,-0.740812)" v:mID="1097" v:groupContext="group"
							v:layerMember="0">
						<title>Sheet.1097</title>
						<g id="shape1098-37" v:mID="1098" v:groupContext="shape" v:layerMember="0">
							<title>Sheet.1098</title>
							<path d="M3.51 362.83 C2.6 362.11 1.83 361.39 1.17 360.69 C0.7 361.35 0.32 362 0 362.64 C0.62 363.27
										 1.33 363.9 2.14 364.55 C7.2 368.56 12.23 368.94 15.05 368.94 C15.24 368.94 16.12 367.74
										 16.63 367 C15.37 367.26 9.97 367.94 3.51 362.83 Z" class="st6"/>
						</g>
					</g>
					<g id="group1099-39" transform="translate(2.16112,-7.03612)" v:mID="1099" v:groupContext="group"
							v:layerMember="0">
						<title>Sheet.1099</title>
						<g id="shape1100-40" v:mID="1100" v:groupContext="shape" v:layerMember="0">
							<title>Sheet.1100</title>
							<path d="M0 366.59 C0.53 367.35 1.18 368.13 2 368.94 C2.32 368.29 2.71 367.64 3.17 366.99 C2.36 366.13
										 1.72 365.31 1.22 364.52 C0.74 365.21 0.34 365.9 0 366.59 Z" class="st6"/>
						</g>
					</g>
					<g id="group1101-42" transform="translate(10.8082,-5.32762)" v:mID="1101" v:groupContext="group"
							v:layerMember="0">
						<title>Sheet.1101</title>
						<g id="shape1102-43" v:mID="1102" v:groupContext="shape" v:layerMember="0">
							<title>Sheet.1102</title>
							<path d="M0 360.11 C4.61 364.37 10.07 367.99 11.46 368.94 C11.6 368.59 11.69 368.24 11.79 367.88 C10.3
										 366.78 6.39 363.72 1.7 359.06 C1.16 359.35 0.59 359.7 0 360.11 Z" class="st6"/>
						</g>
					</g>
					<g id="group1103-45" transform="translate(5.12419,-16.4848)" v:mID="1103" v:groupContext="group"
							v:layerMember="0">
						<title>Sheet.1103</title>
						<g id="shape1104-46" v:mID="1104" v:groupContext="shape" v:layerMember="0">
							<title>Sheet.1104</title>
							<path d="M5.08 367.85 C3.95 366.67 2.81 365.41 1.63 364.05 C1.07 364.23 0.53 364.45 0 364.71 C0.86 366.13
										 2.03 367.55 3.33 368.94 C3.93 368.52 4.5 368.16 5.08 367.85 Z" class="st6"/>
						</g>
					</g>
					<g id="shape1105-48" v:mID="1105" v:groupContext="shape" v:layerMember="0"
							transform="translate(8.361,-14.0617)">
						<title>Sheet.1105</title>
						<path d="M1.92 365.39 C1.34 365.7 0.59 366.16 0 366.58 C0.74 367.37 1.49 368.18 2.31 368.94 C2.9 368.54 3.69
									 368.05 4.23 367.75 C3.48 367.02 2.7 366.23 1.92 365.39 Z" class="st6"/>
					</g>
					<g id="shape1106-50" v:mID="1106" v:groupContext="shape" v:layerMember="0"
							transform="translate(8.36025,-14.0152)">
						<title>Sheet.1106</title>
						<path d="M1.71 365.24 C1.13 365.55 0.59 365.95 0 366.37 C0.74 367.15 1.79 368.18 2.61 368.94 C3.2 368.54
									 3.69 368.13 4.23 367.83 C3.48 367.1 2.49 366.08 1.71 365.24 Z" class="st6"/>
					</g>
				</g>
				<g id="group1107-52" transform="translate(15.2696,-6.24169)" v:mID="1107" v:groupContext="group" v:layerMember="0">
					<title>Sheet.1107</title>
					<g id="shape1108-53" v:mID="1108" v:groupContext="shape" v:layerMember="0">
						<title>Sheet.1108</title>
						<path d="M1.38 363.85 C0.23 364.74 0 366.4 0.89 367.56 C1.78 368.73 3.45 368.94 4.61 368.06 C5.77 367.17
									 5.99 365.51 5.11 364.34 C4.21 363.19 2.55 362.95 1.38 363.85 Z" class="st6"/>
					</g>
				</g>
				<g id="group1109-55" transform="translate(9.9159,-1.7053E-13)" v:mID="1109" v:groupContext="group"
						v:layerMember="0">
					<title>Sheet.1109</title>
					<g id="shape1110-56" v:mID="1110" v:groupContext="shape" v:layerMember="0">
						<title>Sheet.1110</title>
						<path d="M1.27 364.23 C0.2 365.05 0 366.6 0.81 367.67 C1.64 368.74 3.18 368.94 4.26 368.12 C5.33 367.3 5.53
									 365.76 4.71 364.69 C3.89 363.61 2.35 363.41 1.27 364.23 Z" class="st6"/>
					</g>
				</g>
				<g id="group1111-58" transform="translate(0,-5.36869)" v:mID="1111" v:groupContext="group" v:layerMember="0">
					<title>Sheet.1111</title>
					<g id="shape1112-59" v:mID="1112" v:groupContext="shape" v:layerMember="0">
						<title>Sheet.1112</title>
						<path d="M1.94 361.77 C0.31 363.03 0 365.36 1.25 366.99 C2.5 368.63 4.85 368.94 6.48 367.68 C8.11 366.44
									 8.42 364.1 7.17 362.45 C5.92 360.84 3.57 360.52 1.94 361.77 Z" class="st6"/>
					</g>
				</g>
			</g>
			<g id="shape1085-61" v:mID="1085" v:groupContext="groupContent" v:layerMember="0">
				<v:textBlock v:margins="rect(4,4,4,4)"/>
				<v:textRect cx="31.0395" cy="395.924" width="63.22" height="29.6036"/>
				<text x="5.47" y="393.22" class="st4" v:langID="1033"><v:paragraph v:horizAlign="1"/><v:tabList/>Custom Azure <v:newlineChar/><tspan
							x="23.71" dy="1.2em" class="st5">App</tspan></text>			</g>
		</g>
		<g id="group1113-64" transform="translate(125.894,-183.52)" v:mID="1113" v:groupContext="group" v:layerMember="0">
			<title>Mobile App (Was Mobile Services).2008</title>
			<g id="shape1114-65" v:mID="1114" v:groupContext="shape" v:layerMember="0">
				<title>Sheet.1114</title>
				<path d="M18.5 335.49 L18.5 335.48 L1.5 335.48 L1.51 335.49 C0.02 335.54 0 335.88 0 337.69 L0 366.75 C0 368.55 0.03
							 368.88 1.5 368.93 C1.5 368.93 1.94 368.94 2.02 368.94 L17.98 368.94 C18.06 368.94 18.5 368.93 18.5 368.93
							 C19.98 368.88 20 368.55 20 366.75 L20 337.69 C20.01 335.88 19.98 335.54 18.5 335.49 ZM7.65 336.62 L12.36
							 336.62 C12.45 336.62 12.51 336.71 12.51 336.8 C12.52 336.89 12.45 336.98 12.36 336.98 L7.65 336.98 C7.57
							 336.98 7.49 336.89 7.49 336.8 C7.49 336.71 7.57 336.62 7.65 336.62 ZM7.78 367.21 L6.63 367.21 C6.44
							 367.21 6.28 367.13 6.28 366.94 C6.28 366.75 6.44 366.68 6.63 366.68 L7.78 366.68 C7.97 366.68 8.12 366.75
							 8.12 366.94 C8.12 367.13 7.97 367.21 7.78 367.21 ZM10.79 367.4 L9.22 367.4 C8.96 367.4 8.75 367.3 8.75
							 367.04 C8.75 366.78 8.96 366.68 9.22 366.68 L10.79 366.68 C11.05 366.68 11.26 366.78 11.26 367.04 C11.26
							 367.3 11.05 367.4 10.79 367.4 ZM13.4 367.2 L12.25 367.2 C12.07 367.2 11.91 367.13 11.91 366.94 C11.91
							 366.75 12.07 366.68 12.25 366.68 L13.4 366.68 C13.59 366.68 13.74 366.75 13.74 366.94 C13.74 367.13
							 13.59 367.2 13.4 367.2 ZM18.57 363.81 C18.57 365.35 18.42 365.68 16.99 365.7 L9.25 365.7 L3.02 365.7
							 C1.59 365.68 1.44 365.35 1.44 363.81 L1.44 339.63 C1.44 338.03 1.6 338.03 3.2 338.03 L9.25 338.02 L16.81
							 338.03 C18.41 338.03 18.57 338.03 18.57 339.63 L18.57 363.81 Z" class="st6"/>
			</g>
			<g id="shape1115-67" v:mID="1115" v:groupContext="shape" v:layerMember="0" transform="translate(2.415,-4.33275)">
				<title>Sheet.1115</title>
				<path d="M15.18 344.95 C15.18 343.4 14.98 343.39 13.43 343.39 L1.7 343.39 C0.15 343.39 0 343.4 0 344.95 L0 367.11
							 C0 368.66 0.16 368.94 1.71 368.94 L13.44 368.94 C14.98 368.94 15.18 368.66 15.18 367.11 L15.18 344.95
							 ZM7.14 361.32 L2.33 358.54 L2.33 352.97 L7.14 355.75 L7.14 361.32 ZM2.8 352.2 L7.59 349.44 L12.42 352.22
							 L7.62 354.99 L2.8 352.2 ZM12.85 358.54 L8.04 361.32 L8.04 355.78 L12.85 353.01 L12.85 358.54 Z"
						class="st6"/>
			</g>
		</g>
		<g id="group1116-69" transform="translate(287.747,-189.924)" v:mID="1116" v:groupContext="group" v:layerMember="0">
			<title>User.2014</title>
			<desc>Hosting Employee</desc>
			<g id="group1117-70" transform="translate(6.43969,-10.292)" v:mID="1117" v:groupContext="group" v:layerMember="0">
				<title>Sheet.1117</title>
				<g id="shape1118-71" v:mID="1118" v:groupContext="shape" v:layerMember="0">
					<title>Sheet.1118</title>
					<path d="M5.91 352.95 C2.18 353.87 0 357.99 1.04 362.16 C2.07 366.32 5.93 368.94 9.66 368.02 C13.38 367.09 15.56
								 362.96 14.53 358.8 C13.49 354.64 9.63 352.02 5.91 352.95 Z" class="st6"/>
				</g>
			</g>
			<g id="group1119-73" v:mID="1119" v:groupContext="group" v:layerMember="0">
				<title>Sheet.1119</title>
				<g id="shape1120-74" v:mID="1120" v:groupContext="shape" v:layerMember="0">
					<title>Sheet.1120</title>
					<path d="M20.38 358.83 C19.67 358.78 18.89 360.12 17.85 360.6 C16.81 361.08 15.69 362.03 12.7 360.6 C9.7 359.16
								 9.23 357.94 6.67 357.94 C4.15 357.94 0.08 362.43 0 368.94 L25.48 368.94 C25.43 368.94 25.19 364.46
								 23.79 362.01 C22.01 358.91 21.06 358.87 20.38 358.83 Z" class="st6"/>
				</g>
			</g>
			<g id="shape1116-76" v:mID="1116" v:groupContext="groupContent" v:layerMember="0">
				<v:textBlock v:margins="rect(4,4,4,4)"/>
				<v:textRect cx="12.7395" cy="383.741" width="46.2" height="29.6036"/>
				<text x="-1.22" y="381.04" class="st4" v:langID="1033"><v:paragraph v:horizAlign="1"/><v:tabList/>Hosting<v:newlineChar/><tspan
							x="-5.34" dy="1.2em" class="st5">Employee</tspan></text>			</g>
		</g>
		<g id="shape1121-79" v:mID="1121" v:groupContext="shape" v:layerMember="1" transform="translate(250.226,-191.25)">
			<title>Dynamic connector.2032</title>
			<path d="M-5.8 359.94 L-6.16 359.94 L-96.92 359.94" class="st7"/>
		</g>
		<g id="group1122-88" transform="translate(250.226,-187.511)" v:mID="1122" v:groupContext="group">
			<title>Teams.2036</title>
			<desc>Teams</desc>
			<g id="group1123-89" v:mID="1123" v:groupContext="group">
				<v:userDefs>
					<v:ud v:nameU="msvDisableCustomConnectionPoints" v:prompt="" v:val="VT0(1):5"/>
				</v:userDefs>
				<title>Sheet.1123</title>
				<g id="shape1124-90" v:mID="1124" v:groupContext="shape" transform="translate(17.469,-3.2412)">
					<title>Sheet.1124</title>
					<v:userDefs>
						<v:ud v:nameU="msvDisableCustomConnectionPoints" v:prompt="" v:val="VT0(1):5"/>
					</v:userDefs>
					<path d="M6.78 356.53 L1.48 356.53 L0 357.86 L0 364.49 C0 366.95 1.79 368.94 4 368.93 C6.19 368.93 7.97 366.94
								 7.98 364.49 L7.98 357.86 C7.98 357.13 7.44 356.53 6.78 356.53 Z" class="st9"/>
				</g>
				<g id="shape1125-92" v:mID="1125" v:groupContext="shape" transform="translate(20.3832,-17.0773)">
					<title>Sheet.1125</title>
					<v:userDefs>
						<v:ud v:nameU="msvDisableCustomConnectionPoints" v:prompt="" v:val="VT0(1):5"/>
					</v:userDefs>
					<ellipse cx="2.5479" cy="366.094" rx="2.5479" ry="2.84494" class="st9"/>
				</g>
				<g id="shape1126-94" v:mID="1126" v:groupContext="shape" transform="translate(8.90992,-5.68434E-14)">
					<title>Sheet.1126</title>
					<v:userDefs>
						<v:ud v:nameU="msvDisableCustomConnectionPoints" v:prompt="" v:val="VT0(1):5"/>
					</v:userDefs>
					<path d="M1.14 353.29 L10.32 353.29 C10.95 353.29 11.47 353.86 11.47 354.57 L11.47 362.67 C11.47 366.13 8.95
								 368.94 5.85 368.94 L5.62 368.94 C2.52 368.94 0 366.13 0 362.67 L0 354.57 C0 353.86 0.51 353.29 1.14
								 353.29 Z" class="st10"/>
				</g>
				<g id="shape1127-96" v:mID="1127" v:groupContext="shape" transform="translate(11.5848,-17.2104)">
					<title>Sheet.1127</title>
					<v:userDefs>
						<v:ud v:nameU="msvDisableCustomConnectionPoints" v:prompt="" v:val="VT0(1):5"/>
					</v:userDefs>
					<ellipse cx="3.70264" cy="364.804" rx="3.70264" ry="4.13431" class="st10"/>
				</g>
				<g id="shape1128-98" v:mID="1128" v:groupContext="shape" transform="translate(8.91037,-2.85256)">
					<title>Sheet.1128</title>
					<v:userDefs>
						<v:ud v:nameU="msvDisableCustomConnectionPoints" v:prompt="" v:val="VT0(1):5"/>
					</v:userDefs>
					<path d="M7.65 353.29 L7.65 354.26 C5.77 355.08 3.65 354.03 2.92 351.93 C2.91 351.91 2.91 351.89 2.9 351.87 L6.31
								 351.87 C7.03 351.85 7.63 352.49 7.65 353.29 ZM1.14 356.14 C0.51 356.14 0 356.72 0 357.42 L0 365.52
								 C0 366.73 0.32 367.92 0.92 368.94 L6.05 368.94 C6.88 368.9 7.55 368.2 7.65 367.29 L7.65 356.14 L1.14
								 356.14 Z" class="st11"/>
				</g>
				<g id="shape1129-100" v:mID="1129" v:groupContext="shape" transform="translate(8.91037,-2.85256)">
					<title>Sheet.1129</title>
					<v:userDefs>
						<v:ud v:nameU="msvDisableCustomConnectionPoints" v:prompt="" v:val="VT0(1):5"/>
					</v:userDefs>
					<path d="M7.65 353.29 L7.65 354.26 C5.77 355.08 3.65 354.03 2.92 351.93 C2.91 351.91 2.91 351.89 2.9 351.87 L6.31
								 351.87 C7.03 351.85 7.63 352.49 7.65 353.29 ZM1.14 356.14 C0.51 356.14 0 356.72 0 357.42 L0 365.52
								 C0 366.73 0.32 367.92 0.92 368.94 L6.05 368.94 C6.88 368.9 7.55 368.2 7.65 367.29 L7.65 356.14 L1.14
								 356.14 Z" class="st12"/>
				</g>
				<g id="shape1130-102" v:mID="1130" v:groupContext="shape" transform="translate(0,-4.27453)">
					<title>Sheet.1130</title>
					<v:userDefs>
						<v:ud v:nameU="msvDisableCustomConnectionPoints" v:prompt="" v:val="VT0(1):5"/>
					</v:userDefs>
					<path d="M1.27 351.87 L14.01 351.87 C14.72 351.87 15.29 352.51 15.29 353.29 L15.29 367.52 C15.29 368.3 14.72
								 368.94 14.01 368.94 L1.27 368.94 C0.57 368.94 0 368.3 0 367.52 L0 353.29 C0 352.51 0.57 351.87 1.27
								 351.87 Z" class="st13"/>
				</g>
				<g id="shape1131-104" v:mID="1131" v:groupContext="shape" transform="translate(3.33456,-7.6534)">
					<title>Sheet.1131</title>
					<v:userDefs>
						<v:ud v:nameU="msvDisableCustomConnectionPoints" v:prompt="" v:val="VT0(1):5"/>
					</v:userDefs>
					<path d="M7.34 360.66 L4.59 360.66 L4.59 368.94 L2.77 368.94 L2.77 360.66 L0 360.66 L0 358.63 L7.34 358.63 L7.34
								 360.66 Z" class="st14"/>
				</g>
			</g>
			<g id="shape1122-106" v:mID="1122" v:groupContext="groupContent">
				<v:textBlock v:margins="rect(0,0,0,0)"/>
				<v:textRect cx="12.7395" cy="374.341" width="50.96" height="10.8036"/>
				<text x="0.8" y="377.04" class="st4" v:langID="1033"><v:paragraph v:horizAlign="1"/><v:tabList/>Teams</text>			</g>
		</g>
		<g id="group1132-108" transform="translate(68.8973,-281.096)" v:mID="1132" v:groupContext="group" v:layerMember="0">
			<title>User.2073</title>
			<desc>External User</desc>
			<g id="group1133-109" transform="translate(6.43969,-10.292)" v:mID="1133" v:groupContext="group" v:layerMember="0">
				<title>Sheet.1133</title>
				<g id="shape1134-110" v:mID="1134" v:groupContext="shape" v:layerMember="0">
					<title>Sheet.1134</title>
					<path d="M5.91 352.95 C2.18 353.87 0 357.99 1.04 362.16 C2.07 366.32 5.93 368.94 9.66 368.02 C13.38 367.09 15.56
								 362.96 14.53 358.8 C13.49 354.64 9.63 352.02 5.91 352.95 Z" class="st3"/>
				</g>
			</g>
			<g id="group1135-112" v:mID="1135" v:groupContext="group" v:layerMember="0">
				<title>Sheet.1135</title>
				<g id="shape1136-113" v:mID="1136" v:groupContext="shape" v:layerMember="0">
					<title>Sheet.1136</title>
					<path d="M20.38 358.83 C19.67 358.78 18.89 360.12 17.85 360.6 C16.81 361.08 15.69 362.03 12.7 360.6 C9.7 359.16
								 9.23 357.94 6.67 357.94 C4.15 357.94 0.08 362.43 0 368.94 L25.48 368.94 C25.43 368.94 25.19 364.46
								 23.79 362.01 C22.01 358.91 21.06 358.87 20.38 358.83 Z" class="st3"/>
				</g>
			</g>
			<g id="shape1132-115" v:mID="1132" v:groupContext="groupContent" v:layerMember="0">
				<v:textBlock v:margins="rect(4,4,4,4)"/>
				<v:textRect cx="12.7395" cy="383.741" width="42.11" height="29.6036"/>
				<text x="-2.27" y="381.04" class="st4" v:langID="1033"><v:paragraph v:horizAlign="1"/><v:tabList/>External <v:newlineChar/><tspan
							x="4.28" dy="1.2em" class="st5">User</tspan></text>			</g>
		</g>
		<g id="group1137-118" transform="translate(286.521,-280.426)" v:mID="1137" v:groupContext="group" v:layerMember="0">
			<title>User.2109</title>
			<desc>Hosting Employee</desc>
			<g id="group1138-119" transform="translate(6.43969,-10.292)" v:mID="1138" v:groupContext="group" v:layerMember="0">
				<title>Sheet.1138</title>
				<g id="shape1139-120" v:mID="1139" v:groupContext="shape" v:layerMember="0">
					<title>Sheet.1139</title>
					<path d="M5.91 352.95 C2.18 353.87 0 357.99 1.04 362.16 C2.07 366.32 5.93 368.94 9.66 368.02 C13.38 367.09 15.56
								 362.96 14.53 358.8 C13.49 354.64 9.63 352.02 5.91 352.95 Z" class="st6"/>
				</g>
			</g>
			<g id="group1140-122" v:mID="1140" v:groupContext="group" v:layerMember="0">
				<title>Sheet.1140</title>
				<g id="shape1141-123" v:mID="1141" v:groupContext="shape" v:layerMember="0">
					<title>Sheet.1141</title>
					<path d="M20.38 358.83 C19.67 358.78 18.89 360.12 17.85 360.6 C16.81 361.08 15.69 362.03 12.7 360.6 C9.7 359.16
								 9.23 357.94 6.67 357.94 C4.15 357.94 0.08 362.43 0 368.94 L25.48 368.94 C25.43 368.94 25.19 364.46
								 23.79 362.01 C22.01 358.91 21.06 358.87 20.38 358.83 Z" class="st6"/>
				</g>
			</g>
			<g id="shape1137-125" v:mID="1137" v:groupContext="groupContent" v:layerMember="0">
				<v:textBlock v:margins="rect(4,4,4,4)"/>
				<v:textRect cx="12.7395" cy="383.741" width="46.2" height="29.6036"/>
				<text x="-1.22" y="381.04" class="st4" v:langID="1033"><v:paragraph v:horizAlign="1"/><v:tabList/>Hosting<v:newlineChar/><tspan
							x="-5.34" dy="1.2em" class="st5">Employee</tspan></text>			</g>
		</g>
		<g id="shape1142-128" v:mID="1142" v:groupContext="shape" v:layerMember="1" transform="translate(249,-302.881)">
			<title>Dynamic connector.2114</title>
			<path d="M-5.8 377.89 L-6.16 377.89 L-13.5 377.89 L-13.5 377.98 L-108.72 377.98" class="st7"/>
		</g>
		<g id="group1143-135" transform="translate(249,-281.186)" v:mID="1143" v:groupContext="group">
			<title>Teams.2115</title>
			<desc>Teams</desc>
			<g id="group1144-136" v:mID="1144" v:groupContext="group">
				<v:userDefs>
					<v:ud v:nameU="msvDisableCustomConnectionPoints" v:prompt="" v:val="VT0(1):5"/>
				</v:userDefs>
				<title>Sheet.1144</title>
				<g id="shape1145-137" v:mID="1145" v:groupContext="shape" transform="translate(17.469,-3.2412)">
					<title>Sheet.1145</title>
					<v:userDefs>
						<v:ud v:nameU="msvDisableCustomConnectionPoints" v:prompt="" v:val="VT0(1):5"/>
					</v:userDefs>
					<path d="M6.78 356.53 L1.48 356.53 L0 357.86 L0 364.49 C0 366.95 1.79 368.94 4 368.93 C6.19 368.93 7.97 366.94
								 7.98 364.49 L7.98 357.86 C7.98 357.13 7.44 356.53 6.78 356.53 Z" class="st9"/>
				</g>
				<g id="shape1146-139" v:mID="1146" v:groupContext="shape" transform="translate(20.3832,-17.0773)">
					<title>Sheet.1146</title>
					<v:userDefs>
						<v:ud v:nameU="msvDisableCustomConnectionPoints" v:prompt="" v:val="VT0(1):5"/>
					</v:userDefs>
					<ellipse cx="2.5479" cy="366.094" rx="2.5479" ry="2.84494" class="st9"/>
				</g>
				<g id="shape1147-141" v:mID="1147" v:groupContext="shape" transform="translate(8.90992,-5.68434E-14)">
					<title>Sheet.1147</title>
					<v:userDefs>
						<v:ud v:nameU="msvDisableCustomConnectionPoints" v:prompt="" v:val="VT0(1):5"/>
					</v:userDefs>
					<path d="M1.14 353.29 L10.32 353.29 C10.95 353.29 11.47 353.86 11.47 354.57 L11.47 362.67 C11.47 366.13 8.95
								 368.94 5.85 368.94 L5.62 368.94 C2.52 368.94 0 366.13 0 362.67 L0 354.57 C0 353.86 0.51 353.29 1.14
								 353.29 Z" class="st10"/>
				</g>
				<g id="shape1148-143" v:mID="1148" v:groupContext="shape" transform="translate(11.5848,-17.2104)">
					<title>Sheet.1148</title>
					<v:userDefs>
						<v:ud v:nameU="msvDisableCustomConnectionPoints" v:prompt="" v:val="VT0(1):5"/>
					</v:userDefs>
					<ellipse cx="3.70264" cy="364.804" rx="3.70264" ry="4.13431" class="st10"/>
				</g>
				<g id="shape1149-145" v:mID="1149" v:groupContext="shape" transform="translate(8.91037,-2.85256)">
					<title>Sheet.1149</title>
					<v:userDefs>
						<v:ud v:nameU="msvDisableCustomConnectionPoints" v:prompt="" v:val="VT0(1):5"/>
					</v:userDefs>
					<path d="M7.65 353.29 L7.65 354.26 C5.77 355.08 3.65 354.03 2.92 351.93 C2.91 351.91 2.91 351.89 2.9 351.87 L6.31
								 351.87 C7.03 351.85 7.63 352.49 7.65 353.29 ZM1.14 356.14 C0.51 356.14 0 356.72 0 357.42 L0 365.52
								 C0 366.73 0.32 367.92 0.92 368.94 L6.05 368.94 C6.88 368.9 7.55 368.2 7.65 367.29 L7.65 356.14 L1.14
								 356.14 Z" class="st11"/>
				</g>
				<g id="shape1150-147" v:mID="1150" v:groupContext="shape" transform="translate(8.91037,-2.85256)">
					<title>Sheet.1150</title>
					<v:userDefs>
						<v:ud v:nameU="msvDisableCustomConnectionPoints" v:prompt="" v:val="VT0(1):5"/>
					</v:userDefs>
					<path d="M7.65 353.29 L7.65 354.26 C5.77 355.08 3.65 354.03 2.92 351.93 C2.91 351.91 2.91 351.89 2.9 351.87 L6.31
								 351.87 C7.03 351.85 7.63 352.49 7.65 353.29 ZM1.14 356.14 C0.51 356.14 0 356.72 0 357.42 L0 365.52
								 C0 366.73 0.32 367.92 0.92 368.94 L6.05 368.94 C6.88 368.9 7.55 368.2 7.65 367.29 L7.65 356.14 L1.14
								 356.14 Z" class="st12"/>
				</g>
				<g id="shape1151-149" v:mID="1151" v:groupContext="shape" transform="translate(0,-4.27453)">
					<title>Sheet.1151</title>
					<v:userDefs>
						<v:ud v:nameU="msvDisableCustomConnectionPoints" v:prompt="" v:val="VT0(1):5"/>
					</v:userDefs>
					<path d="M1.27 351.87 L14.01 351.87 C14.72 351.87 15.29 352.51 15.29 353.29 L15.29 367.52 C15.29 368.3 14.72
								 368.94 14.01 368.94 L1.27 368.94 C0.57 368.94 0 368.3 0 367.52 L0 353.29 C0 352.51 0.57 351.87 1.27
								 351.87 Z" class="st13"/>
				</g>
				<g id="shape1152-151" v:mID="1152" v:groupContext="shape" transform="translate(3.33456,-7.6534)">
					<title>Sheet.1152</title>
					<v:userDefs>
						<v:ud v:nameU="msvDisableCustomConnectionPoints" v:prompt="" v:val="VT0(1):5"/>
					</v:userDefs>
					<path d="M7.34 360.66 L4.59 360.66 L4.59 368.94 L2.77 368.94 L2.77 360.66 L0 360.66 L0 358.63 L7.34 358.63 L7.34
								 360.66 Z" class="st14"/>
				</g>
			</g>
			<g id="shape1143-153" v:mID="1143" v:groupContext="groupContent">
				<v:textBlock v:margins="rect(0,0,0,0)"/>
				<v:textRect cx="12.7395" cy="374.341" width="50.96" height="10.8036"/>
				<text x="0.8" y="377.04" class="st4" v:langID="1033"><v:paragraph v:horizAlign="1"/><v:tabList/>Teams</text>			</g>
		</g>
		<g id="group1153-155" transform="translate(108.637,-281.096)" v:mID="1153" v:groupContext="group">
			<title>Teams.2125</title>
			<desc>Teams</desc>
			<g id="group1154-156" v:mID="1154" v:groupContext="group">
				<v:userDefs>
					<v:ud v:nameU="msvDisableCustomConnectionPoints" v:prompt="" v:val="VT0(1):5"/>
				</v:userDefs>
				<title>Sheet.1154</title>
				<g id="shape1155-157" v:mID="1155" v:groupContext="shape" transform="translate(17.469,-3.2412)">
					<title>Sheet.1155</title>
					<v:userDefs>
						<v:ud v:nameU="msvDisableCustomConnectionPoints" v:prompt="" v:val="VT0(1):5"/>
					</v:userDefs>
					<path d="M6.78 356.53 L1.48 356.53 L0 357.86 L0 364.49 C0 366.95 1.79 368.94 4 368.93 C6.19 368.93 7.97 366.94
								 7.98 364.49 L7.98 357.86 C7.98 357.13 7.44 356.53 6.78 356.53 Z" class="st9"/>
				</g>
				<g id="shape1156-159" v:mID="1156" v:groupContext="shape" transform="translate(20.3832,-17.0773)">
					<title>Sheet.1156</title>
					<v:userDefs>
						<v:ud v:nameU="msvDisableCustomConnectionPoints" v:prompt="" v:val="VT0(1):5"/>
					</v:userDefs>
					<ellipse cx="2.5479" cy="366.094" rx="2.5479" ry="2.84494" class="st9"/>
				</g>
				<g id="shape1157-161" v:mID="1157" v:groupContext="shape" transform="translate(8.90992,-5.68434E-14)">
					<title>Sheet.1157</title>
					<v:userDefs>
						<v:ud v:nameU="msvDisableCustomConnectionPoints" v:prompt="" v:val="VT0(1):5"/>
					</v:userDefs>
					<path d="M1.14 353.29 L10.32 353.29 C10.95 353.29 11.47 353.86 11.47 354.57 L11.47 362.67 C11.47 366.13 8.95
								 368.94 5.85 368.94 L5.62 368.94 C2.52 368.94 0 366.13 0 362.67 L0 354.57 C0 353.86 0.51 353.29 1.14
								 353.29 Z" class="st10"/>
				</g>
				<g id="shape1158-163" v:mID="1158" v:groupContext="shape" transform="translate(11.5848,-17.2104)">
					<title>Sheet.1158</title>
					<v:userDefs>
						<v:ud v:nameU="msvDisableCustomConnectionPoints" v:prompt="" v:val="VT0(1):5"/>
					</v:userDefs>
					<ellipse cx="3.70264" cy="364.804" rx="3.70264" ry="4.13431" class="st10"/>
				</g>
				<g id="shape1159-165" v:mID="1159" v:groupContext="shape" transform="translate(8.91037,-2.85256)">
					<title>Sheet.1159</title>
					<v:userDefs>
						<v:ud v:nameU="msvDisableCustomConnectionPoints" v:prompt="" v:val="VT0(1):5"/>
					</v:userDefs>
					<path d="M7.65 353.29 L7.65 354.26 C5.77 355.08 3.65 354.03 2.92 351.93 C2.91 351.91 2.91 351.89 2.9 351.87 L6.31
								 351.87 C7.03 351.85 7.63 352.49 7.65 353.29 ZM1.14 356.14 C0.51 356.14 0 356.72 0 357.42 L0 365.52
								 C0 366.73 0.32 367.92 0.92 368.94 L6.05 368.94 C6.88 368.9 7.55 368.2 7.65 367.29 L7.65 356.14 L1.14
								 356.14 Z" class="st11"/>
				</g>
				<g id="shape1160-167" v:mID="1160" v:groupContext="shape" transform="translate(8.91037,-2.85256)">
					<title>Sheet.1160</title>
					<v:userDefs>
						<v:ud v:nameU="msvDisableCustomConnectionPoints" v:prompt="" v:val="VT0(1):5"/>
					</v:userDefs>
					<path d="M7.65 353.29 L7.65 354.26 C5.77 355.08 3.65 354.03 2.92 351.93 C2.91 351.91 2.91 351.89 2.9 351.87 L6.31
								 351.87 C7.03 351.85 7.63 352.49 7.65 353.29 ZM1.14 356.14 C0.51 356.14 0 356.72 0 357.42 L0 365.52
								 C0 366.73 0.32 367.92 0.92 368.94 L6.05 368.94 C6.88 368.9 7.55 368.2 7.65 367.29 L7.65 356.14 L1.14
								 356.14 Z" class="st12"/>
				</g>
				<g id="shape1161-169" v:mID="1161" v:groupContext="shape" transform="translate(0,-4.27453)">
					<title>Sheet.1161</title>
					<v:userDefs>
						<v:ud v:nameU="msvDisableCustomConnectionPoints" v:prompt="" v:val="VT0(1):5"/>
					</v:userDefs>
					<path d="M1.27 351.87 L14.01 351.87 C14.72 351.87 15.29 352.51 15.29 353.29 L15.29 367.52 C15.29 368.3 14.72
								 368.94 14.01 368.94 L1.27 368.94 C0.57 368.94 0 368.3 0 367.52 L0 353.29 C0 352.51 0.57 351.87 1.27
								 351.87 Z" class="st13"/>
				</g>
				<g id="shape1162-171" v:mID="1162" v:groupContext="shape" transform="translate(3.33456,-7.6534)">
					<title>Sheet.1162</title>
					<v:userDefs>
						<v:ud v:nameU="msvDisableCustomConnectionPoints" v:prompt="" v:val="VT0(1):5"/>
					</v:userDefs>
					<path d="M7.34 360.66 L4.59 360.66 L4.59 368.94 L2.77 368.94 L2.77 360.66 L0 360.66 L0 358.63 L7.34 358.63 L7.34
								 360.66 Z" class="st14"/>
				</g>
			</g>
			<g id="shape1153-173" v:mID="1153" v:groupContext="groupContent">
				<v:textBlock v:margins="rect(0,0,0,0)"/>
				<v:textRect cx="12.7395" cy="374.341" width="50.96" height="10.8036"/>
				<text x="0.8" y="377.04" class="st4" v:langID="1033"><v:paragraph v:horizAlign="1"/><v:tabList/>Teams</text>			</g>
		</g>
		<g id="group1163-175" transform="translate(50.6355,-78.7784)" v:mID="1163" v:groupContext="group" v:layerMember="0">
			<title>User.2135</title>
			<desc>External User</desc>
			<g id="group1164-176" transform="translate(6.43969,-10.292)" v:mID="1164" v:groupContext="group" v:layerMember="0">
				<title>Sheet.1164</title>
				<g id="shape1165-177" v:mID="1165" v:groupContext="shape" v:layerMember="0">
					<title>Sheet.1165</title>
					<path d="M5.91 352.95 C2.18 353.87 0 357.99 1.04 362.16 C2.07 366.32 5.93 368.94 9.66 368.02 C13.38 367.09 15.56
								 362.96 14.53 358.8 C13.49 354.64 9.63 352.02 5.91 352.95 Z" class="st3"/>
				</g>
			</g>
			<g id="group1166-179" v:mID="1166" v:groupContext="group" v:layerMember="0">
				<title>Sheet.1166</title>
				<g id="shape1167-180" v:mID="1167" v:groupContext="shape" v:layerMember="0">
					<title>Sheet.1167</title>
					<path d="M20.38 358.83 C19.67 358.78 18.89 360.12 17.85 360.6 C16.81 361.08 15.69 362.03 12.7 360.6 C9.7 359.16
								 9.23 357.94 6.67 357.94 C4.15 357.94 0.08 362.43 0 368.94 L25.48 368.94 C25.43 368.94 25.19 364.46
								 23.79 362.01 C22.01 358.91 21.06 358.87 20.38 358.83 Z" class="st3"/>
				</g>
			</g>
			<g id="shape1163-182" v:mID="1163" v:groupContext="groupContent" v:layerMember="0">
				<v:textBlock v:margins="rect(4,4,4,4)"/>
				<v:textRect cx="12.7395" cy="383.741" width="42.11" height="29.6036"/>
				<text x="-2.27" y="381.04" class="st4" v:langID="1033"><v:paragraph v:horizAlign="1"/><v:tabList/>External <v:newlineChar/><tspan
							x="4.28" dy="1.2em" class="st5">User</tspan></text>			</g>
		</g>
		<g id="group1168-185" transform="translate(85.8355,-77.6217)" v:mID="1168" v:groupContext="group" v:layerMember="0">
			<title>Web App (Was Websites).2140</title>
			<desc>Custom Azure App</desc>
			<g id="group1169-186" v:mID="1169" v:groupContext="group" v:layerMember="0">
				<title>Sheet.1169</title>
				<g id="shape1170-187" v:mID="1170" v:groupContext="shape" v:layerMember="0">
					<title>Sheet.1170</title>
					<path d="M23.51 364.55 C21.28 366.26 18.64 367.1 16.03 367.1 C12.31 367.1 8.65 365.43 6.22 362.26 C2.08 356.84
								 3.1 349.11 8.52 344.96 C10.76 343.24 13.39 342.42 16.01 342.42 C19.72 342.42 23.39 344.09 25.82
								 347.26 C29.96 352.67 28.93 360.41 23.51 364.55 ZM27.28 346.13 C24.49 342.48 20.27 340.57 16.01 340.57
								 C13.01 340.57 9.96 341.52 7.39 343.49 C1.18 348.26 -0 357.16 4.76 363.38 C7.55 367.03 11.77 368.94
								 16.03 368.94 C19.04 368.94 22.07 367.99 24.64 366.02 C30.86 361.25 32.04 352.35 27.28 346.13 Z"
							class="st6"/>
				</g>
			</g>
			<g id="group1171-189" transform="translate(5.09156,-4.39894)" v:mID="1171" v:groupContext="group" v:layerMember="0">
				<title>Sheet.1171</title>
				<g id="group1172-190" transform="translate(0.351188,-0.176625)" v:mID="1172" v:groupContext="group"
						v:layerMember="0">
					<title>Sheet.1172</title>
					<g id="group1173-191" transform="translate(0.44925,3.97904E-13)" v:mID="1173" v:groupContext="group"
							v:layerMember="0">
						<title>Sheet.1173</title>
						<g id="shape1174-192" v:mID="1174" v:groupContext="shape" v:layerMember="0">
							<title>Sheet.1174</title>
							<path d="M3.72 361.91 C2.9 361.09 2.24 360.32 1.71 359.55 C0.52 361.97 0.1 364.46 0 366.44 C0.12 366.6
										 0.12 366.73 0.23 366.89 C0.83 367.64 1.57 368.36 2.29 368.94 C2.18 367.31 2.34 364.66 3.72
										 361.91 Z" class="st6"/>
						</g>
					</g>
					<g id="shape1175-194" v:mID="1175" v:groupContext="shape" v:layerMember="0"
							transform="translate(3.3825,-8.98425)">
						<title>Sheet.1175</title>
						<path d="M5.07 361.44 C3.96 362.21 2.81 363.19 1.66 364.42 C1.02 365.09 0.48 365.77 0 366.47 C0.49 367.26
									 1.14 368.08 1.95 368.94 C2.56 368.08 3.31 367.21 4.21 366.37 C5.35 365.31 6.42 364.45 7.43 363.77
									 C6.6 363 5.81 362.23 5.07 361.44 Z" class="st6"/>
					</g>
					<g id="group1176-196" transform="translate(10.2079,-15.2081)" v:mID="1176" v:groupContext="group"
							v:layerMember="0">
						<title>Sheet.1176</title>
						<g id="shape1177-197" v:mID="1177" v:groupContext="shape" v:layerMember="0">
							<title>Sheet.1177</title>
							<path d="M10.04 366.86 C9.5 366.18 8.9 365.58 8.26 365.04 C6.35 364.74 3.39 364.78 0 366.58 C0.78 367.41
										 1.55 368.2 2.3 368.94 C6.82 366.5 10.04 366.86 10.04 366.86 Z" class="st6"/>
						</g>
					</g>
					<g id="group1178-199" transform="translate(1.1291E-13,-9.38775)" v:mID="1178" v:groupContext="group"
							v:layerMember="0">
						<title>Sheet.1178</title>
						<g id="shape1179-200" v:mID="1179" v:groupContext="shape" v:layerMember="0">
							<title>Sheet.1179</title>
							<path d="M2.16 368.94 C2.5 368.25 2.91 367.56 3.38 366.87 C1.44 363.8 1.53 361.26 1.74 360.07 C1.26 360.58
										 0.8 361.11 0.41 361.68 C0.02 363.29 0 365.85 2.16 368.94 Z" class="st6"/>
						</g>
					</g>
					<g id="group1180-202" transform="translate(4.16269,-0.740812)" v:mID="1180" v:groupContext="group"
							v:layerMember="0">
						<title>Sheet.1180</title>
						<g id="shape1181-203" v:mID="1181" v:groupContext="shape" v:layerMember="0">
							<title>Sheet.1181</title>
							<path d="M3.51 362.83 C2.6 362.11 1.83 361.39 1.17 360.69 C0.7 361.35 0.32 362 0 362.64 C0.62 363.27
										 1.33 363.9 2.14 364.55 C7.2 368.56 12.23 368.94 15.05 368.94 C15.24 368.94 16.12 367.74
										 16.63 367 C15.37 367.26 9.97 367.94 3.51 362.83 Z" class="st6"/>
						</g>
					</g>
					<g id="group1182-205" transform="translate(2.16112,-7.03612)" v:mID="1182" v:groupContext="group"
							v:layerMember="0">
						<title>Sheet.1182</title>
						<g id="shape1183-206" v:mID="1183" v:groupContext="shape" v:layerMember="0">
							<title>Sheet.1183</title>
							<path d="M0 366.59 C0.53 367.35 1.18 368.13 2 368.94 C2.32 368.29 2.71 367.64 3.17 366.99 C2.36 366.13
										 1.72 365.31 1.22 364.52 C0.74 365.21 0.34 365.9 0 366.59 Z" class="st6"/>
						</g>
					</g>
					<g id="group1184-208" transform="translate(10.8082,-5.32762)" v:mID="1184" v:groupContext="group"
							v:layerMember="0">
						<title>Sheet.1184</title>
						<g id="shape1185-209" v:mID="1185" v:groupContext="shape" v:layerMember="0">
							<title>Sheet.1185</title>
							<path d="M0 360.11 C4.61 364.37 10.07 367.99 11.46 368.94 C11.6 368.59 11.69 368.24 11.79 367.88 C10.3
										 366.78 6.39 363.72 1.7 359.06 C1.16 359.35 0.59 359.7 0 360.11 Z" class="st6"/>
						</g>
					</g>
					<g id="group1186-211" transform="translate(5.12419,-16.4848)" v:mID="1186" v:groupContext="group"
							v:layerMember="0">
						<title>Sheet.1186</title>
						<g id="shape1187-212" v:mID="1187" v:groupContext="shape" v:layerMember="0">
							<title>Sheet.1187</title>
							<path d="M5.08 367.85 C3.95 366.67 2.81 365.41 1.63 364.05 C1.07 364.23 0.53 364.45 0 364.71 C0.86 366.13
										 2.03 367.55 3.33 368.94 C3.93 368.52 4.5 368.16 5.08 367.85 Z" class="st6"/>
						</g>
					</g>
					<g id="shape1188-214" v:mID="1188" v:groupContext="shape" v:layerMember="0"
							transform="translate(8.361,-14.0617)">
						<title>Sheet.1188</title>
						<path d="M1.92 365.39 C1.34 365.7 0.59 366.16 0 366.58 C0.74 367.37 1.49 368.18 2.31 368.94 C2.9 368.54 3.69
									 368.05 4.23 367.75 C3.48 367.02 2.7 366.23 1.92 365.39 Z" class="st6"/>
					</g>
					<g id="shape1189-216" v:mID="1189" v:groupContext="shape" v:layerMember="0"
							transform="translate(8.36025,-14.0152)">
						<title>Sheet.1189</title>
						<path d="M1.71 365.24 C1.13 365.55 0.59 365.95 0 366.37 C0.74 367.15 1.79 368.18 2.61 368.94 C3.2 368.54
									 3.69 368.13 4.23 367.83 C3.48 367.1 2.49 366.08 1.71 365.24 Z" class="st6"/>
					</g>
				</g>
				<g id="group1190-218" transform="translate(15.2696,-6.24169)" v:mID="1190" v:groupContext="group" v:layerMember="0">
					<title>Sheet.1190</title>
					<g id="shape1191-219" v:mID="1191" v:groupContext="shape" v:layerMember="0">
						<title>Sheet.1191</title>
						<path d="M1.38 363.85 C0.23 364.74 0 366.4 0.89 367.56 C1.78 368.73 3.45 368.94 4.61 368.06 C5.77 367.17
									 5.99 365.51 5.11 364.34 C4.21 363.19 2.55 362.95 1.38 363.85 Z" class="st6"/>
					</g>
				</g>
				<g id="group1192-221" transform="translate(9.9159,-1.7053E-13)" v:mID="1192" v:groupContext="group"
						v:layerMember="0">
					<title>Sheet.1192</title>
					<g id="shape1193-222" v:mID="1193" v:groupContext="shape" v:layerMember="0">
						<title>Sheet.1193</title>
						<path d="M1.27 364.23 C0.2 365.05 0 366.6 0.81 367.67 C1.64 368.74 3.18 368.94 4.26 368.12 C5.33 367.3 5.53
									 365.76 4.71 364.69 C3.89 363.61 2.35 363.41 1.27 364.23 Z" class="st6"/>
					</g>
				</g>
				<g id="group1194-224" transform="translate(0,-5.36869)" v:mID="1194" v:groupContext="group" v:layerMember="0">
					<title>Sheet.1194</title>
					<g id="shape1195-225" v:mID="1195" v:groupContext="shape" v:layerMember="0">
						<title>Sheet.1195</title>
						<path d="M1.94 361.77 C0.31 363.03 0 365.36 1.25 366.99 C2.5 368.63 4.85 368.94 6.48 367.68 C8.11 366.44
									 8.42 364.1 7.17 362.45 C5.92 360.84 3.57 360.52 1.94 361.77 Z" class="st6"/>
					</g>
				</g>
			</g>
			<g id="shape1168-227" v:mID="1168" v:groupContext="groupContent" v:layerMember="0">
				<v:textBlock v:margins="rect(4,4,4,4)"/>
				<v:textRect cx="38.2895" cy="391.135" width="63.22" height="29.6036"/>
				<text x="12.72" y="388.43" class="st4" v:langID="1033"><v:paragraph v:horizAlign="1"/><v:tabList/>Custom Azure <v:newlineChar/><tspan
							x="30.96" dy="1.2em" class="st5">App</tspan></text>			</g>
		</g>
		<g id="group1196-230" transform="translate(120.269,-75.5198)" v:mID="1196" v:groupContext="group" v:layerMember="0">
			<title>Mobile App (Was Mobile Services).2168</title>
			<g id="shape1197-231" v:mID="1197" v:groupContext="shape" v:layerMember="0">
				<title>Sheet.1197</title>
				<path d="M18.5 335.49 L18.5 335.48 L1.5 335.48 L1.51 335.49 C0.02 335.54 0 335.88 0 337.69 L0 366.75 C0 368.55 0.03
							 368.88 1.5 368.93 C1.5 368.93 1.94 368.94 2.02 368.94 L17.98 368.94 C18.06 368.94 18.5 368.93 18.5 368.93
							 C19.98 368.88 20 368.55 20 366.75 L20 337.69 C20.01 335.88 19.98 335.54 18.5 335.49 ZM7.65 336.62 L12.36
							 336.62 C12.45 336.62 12.51 336.71 12.51 336.8 C12.52 336.89 12.45 336.98 12.36 336.98 L7.65 336.98 C7.57
							 336.98 7.49 336.89 7.49 336.8 C7.49 336.71 7.57 336.62 7.65 336.62 ZM7.78 367.21 L6.63 367.21 C6.44
							 367.21 6.28 367.13 6.28 366.94 C6.28 366.75 6.44 366.68 6.63 366.68 L7.78 366.68 C7.97 366.68 8.12 366.75
							 8.12 366.94 C8.12 367.13 7.97 367.21 7.78 367.21 ZM10.79 367.4 L9.22 367.4 C8.96 367.4 8.75 367.3 8.75
							 367.04 C8.75 366.78 8.96 366.68 9.22 366.68 L10.79 366.68 C11.05 366.68 11.26 366.78 11.26 367.04 C11.26
							 367.3 11.05 367.4 10.79 367.4 ZM13.4 367.2 L12.25 367.2 C12.07 367.2 11.91 367.13 11.91 366.94 C11.91
							 366.75 12.07 366.68 12.25 366.68 L13.4 366.68 C13.59 366.68 13.74 366.75 13.74 366.94 C13.74 367.13
							 13.59 367.2 13.4 367.2 ZM18.57 363.81 C18.57 365.35 18.42 365.68 16.99 365.7 L9.25 365.7 L3.02 365.7
							 C1.59 365.68 1.44 365.35 1.44 363.81 L1.44 339.63 C1.44 338.03 1.6 338.03 3.2 338.03 L9.25 338.02 L16.81
							 338.03 C18.41 338.03 18.57 338.03 18.57 339.63 L18.57 363.81 Z" class="st6"/>
			</g>
			<g id="shape1198-233" v:mID="1198" v:groupContext="shape" v:layerMember="0" transform="translate(2.415,-4.33275)">
				<title>Sheet.1198</title>
				<path d="M15.18 344.95 C15.18 343.4 14.98 343.39 13.43 343.39 L1.7 343.39 C0.15 343.39 0 343.4 0 344.95 L0 367.11
							 C0 368.66 0.16 368.94 1.71 368.94 L13.44 368.94 C14.98 368.94 15.18 368.66 15.18 367.11 L15.18 344.95
							 ZM7.14 361.32 L2.33 358.54 L2.33 352.97 L7.14 355.75 L7.14 361.32 ZM2.8 352.2 L7.59 349.44 L12.42 352.22
							 L7.62 354.99 L2.8 352.2 ZM12.85 358.54 L8.04 361.32 L8.04 355.78 L12.85 353.01 L12.85 358.54 Z"
						class="st6"/>
			</g>
		</g>
		<g id="group1199-235" transform="translate(312.396,-81.9235)" v:mID="1199" v:groupContext="group" v:layerMember="0">
			<title>User.2171</title>
			<desc>Hosting Employee</desc>
			<g id="group1200-236" transform="translate(6.43969,-10.292)" v:mID="1200" v:groupContext="group" v:layerMember="0">
				<title>Sheet.1200</title>
				<g id="shape1201-237" v:mID="1201" v:groupContext="shape" v:layerMember="0">
					<title>Sheet.1201</title>
					<path d="M5.91 352.95 C2.18 353.87 0 357.99 1.04 362.16 C2.07 366.32 5.93 368.94 9.66 368.02 C13.38 367.09 15.56
								 362.96 14.53 358.8 C13.49 354.64 9.63 352.02 5.91 352.95 Z" class="st6"/>
				</g>
			</g>
			<g id="group1202-239" v:mID="1202" v:groupContext="group" v:layerMember="0">
				<title>Sheet.1202</title>
				<g id="shape1203-240" v:mID="1203" v:groupContext="shape" v:layerMember="0">
					<title>Sheet.1203</title>
					<path d="M20.38 358.83 C19.67 358.78 18.89 360.12 17.85 360.6 C16.81 361.08 15.69 362.03 12.7 360.6 C9.7 359.16
								 9.23 357.94 6.67 357.94 C4.15 357.94 0.08 362.43 0 368.94 L25.48 368.94 C25.43 368.94 25.19 364.46
								 23.79 362.01 C22.01 358.91 21.06 358.87 20.38 358.83 Z" class="st6"/>
				</g>
			</g>
			<g id="shape1199-242" v:mID="1199" v:groupContext="groupContent" v:layerMember="0">
				<v:textBlock v:margins="rect(4,4,4,4)"/>
				<v:textRect cx="12.7395" cy="383.741" width="46.2" height="29.6036"/>
				<text x="-1.22" y="381.04" class="st4" v:langID="1033"><v:paragraph v:horizAlign="1"/><v:tabList/>Hosting<v:newlineChar/><tspan
							x="-5.34" dy="1.2em" class="st5">Employee</tspan></text>			</g>
		</g>
		<g id="group1204-245" transform="translate(236.206,-78.0653)" v:mID="1204" v:groupContext="group" v:layerMember="0">
			<title>Web App (Was Websites).2218</title>
			<desc>Custom Azure App</desc>
			<g id="group1205-246" v:mID="1205" v:groupContext="group" v:layerMember="0">
				<title>Sheet.1205</title>
				<g id="shape1206-247" v:mID="1206" v:groupContext="shape" v:layerMember="0">
					<title>Sheet.1206</title>
					<path d="M23.51 364.55 C21.28 366.26 18.64 367.1 16.03 367.1 C12.31 367.1 8.65 365.43 6.22 362.26 C2.08 356.84
								 3.1 349.11 8.52 344.96 C10.76 343.24 13.39 342.42 16.01 342.42 C19.72 342.42 23.39 344.09 25.82
								 347.26 C29.96 352.67 28.93 360.41 23.51 364.55 ZM27.28 346.13 C24.49 342.48 20.27 340.57 16.01 340.57
								 C13.01 340.57 9.96 341.52 7.39 343.49 C1.18 348.26 -0 357.16 4.76 363.38 C7.55 367.03 11.77 368.94
								 16.03 368.94 C19.04 368.94 22.07 367.99 24.64 366.02 C30.86 361.25 32.04 352.35 27.28 346.13 Z"
							class="st6"/>
				</g>
			</g>
			<g id="group1207-249" transform="translate(5.09156,-4.39894)" v:mID="1207" v:groupContext="group" v:layerMember="0">
				<title>Sheet.1207</title>
				<g id="group1208-250" transform="translate(0.351188,-0.176625)" v:mID="1208" v:groupContext="group"
						v:layerMember="0">
					<title>Sheet.1208</title>
					<g id="group1209-251" transform="translate(0.44925,3.97904E-13)" v:mID="1209" v:groupContext="group"
							v:layerMember="0">
						<title>Sheet.1209</title>
						<g id="shape1210-252" v:mID="1210" v:groupContext="shape" v:layerMember="0">
							<title>Sheet.1210</title>
							<path d="M3.72 361.91 C2.9 361.09 2.24 360.32 1.71 359.55 C0.52 361.97 0.1 364.46 0 366.44 C0.12 366.6
										 0.12 366.73 0.23 366.89 C0.83 367.64 1.57 368.36 2.29 368.94 C2.18 367.31 2.34 364.66 3.72
										 361.91 Z" class="st6"/>
						</g>
					</g>
					<g id="shape1211-254" v:mID="1211" v:groupContext="shape" v:layerMember="0"
							transform="translate(3.3825,-8.98425)">
						<title>Sheet.1211</title>
						<path d="M5.07 361.44 C3.96 362.21 2.81 363.19 1.66 364.42 C1.02 365.09 0.48 365.77 0 366.47 C0.49 367.26
									 1.14 368.08 1.95 368.94 C2.56 368.08 3.31 367.21 4.21 366.37 C5.35 365.31 6.42 364.45 7.43 363.77
									 C6.6 363 5.81 362.23 5.07 361.44 Z" class="st6"/>
					</g>
					<g id="group1212-256" transform="translate(10.2079,-15.2081)" v:mID="1212" v:groupContext="group"
							v:layerMember="0">
						<title>Sheet.1212</title>
						<g id="shape1213-257" v:mID="1213" v:groupContext="shape" v:layerMember="0">
							<title>Sheet.1213</title>
							<path d="M10.04 366.86 C9.5 366.18 8.9 365.58 8.26 365.04 C6.35 364.74 3.39 364.78 0 366.58 C0.78 367.41
										 1.55 368.2 2.3 368.94 C6.82 366.5 10.04 366.86 10.04 366.86 Z" class="st6"/>
						</g>
					</g>
					<g id="group1214-259" transform="translate(1.1291E-13,-9.38775)" v:mID="1214" v:groupContext="group"
							v:layerMember="0">
						<title>Sheet.1214</title>
						<g id="shape1215-260" v:mID="1215" v:groupContext="shape" v:layerMember="0">
							<title>Sheet.1215</title>
							<path d="M2.16 368.94 C2.5 368.25 2.91 367.56 3.38 366.87 C1.44 363.8 1.53 361.26 1.74 360.07 C1.26 360.58
										 0.8 361.11 0.41 361.68 C0.02 363.29 0 365.85 2.16 368.94 Z" class="st6"/>
						</g>
					</g>
					<g id="group1216-262" transform="translate(4.16269,-0.740812)" v:mID="1216" v:groupContext="group"
							v:layerMember="0">
						<title>Sheet.1216</title>
						<g id="shape1217-263" v:mID="1217" v:groupContext="shape" v:layerMember="0">
							<title>Sheet.1217</title>
							<path d="M3.51 362.83 C2.6 362.11 1.83 361.39 1.17 360.69 C0.7 361.35 0.32 362 0 362.64 C0.62 363.27
										 1.33 363.9 2.14 364.55 C7.2 368.56 12.23 368.94 15.05 368.94 C15.24 368.94 16.12 367.74
										 16.63 367 C15.37 367.26 9.97 367.94 3.51 362.83 Z" class="st6"/>
						</g>
					</g>
					<g id="group1218-265" transform="translate(2.16112,-7.03612)" v:mID="1218" v:groupContext="group"
							v:layerMember="0">
						<title>Sheet.1218</title>
						<g id="shape1219-266" v:mID="1219" v:groupContext="shape" v:layerMember="0">
							<title>Sheet.1219</title>
							<path d="M0 366.59 C0.53 367.35 1.18 368.13 2 368.94 C2.32 368.29 2.71 367.64 3.17 366.99 C2.36 366.13
										 1.72 365.31 1.22 364.52 C0.74 365.21 0.34 365.9 0 366.59 Z" class="st6"/>
						</g>
					</g>
					<g id="group1220-268" transform="translate(10.8082,-5.32762)" v:mID="1220" v:groupContext="group"
							v:layerMember="0">
						<title>Sheet.1220</title>
						<g id="shape1221-269" v:mID="1221" v:groupContext="shape" v:layerMember="0">
							<title>Sheet.1221</title>
							<path d="M0 360.11 C4.61 364.37 10.07 367.99 11.46 368.94 C11.6 368.59 11.69 368.24 11.79 367.88 C10.3
										 366.78 6.39 363.72 1.7 359.06 C1.16 359.35 0.59 359.7 0 360.11 Z" class="st6"/>
						</g>
					</g>
					<g id="group1222-271" transform="translate(5.12419,-16.4848)" v:mID="1222" v:groupContext="group"
							v:layerMember="0">
						<title>Sheet.1222</title>
						<g id="shape1223-272" v:mID="1223" v:groupContext="shape" v:layerMember="0">
							<title>Sheet.1223</title>
							<path d="M5.08 367.85 C3.95 366.67 2.81 365.41 1.63 364.05 C1.07 364.23 0.53 364.45 0 364.71 C0.86 366.13
										 2.03 367.55 3.33 368.94 C3.93 368.52 4.5 368.16 5.08 367.85 Z" class="st6"/>
						</g>
					</g>
					<g id="shape1224-274" v:mID="1224" v:groupContext="shape" v:layerMember="0"
							transform="translate(8.361,-14.0617)">
						<title>Sheet.1224</title>
						<path d="M1.92 365.39 C1.34 365.7 0.59 366.16 0 366.58 C0.74 367.37 1.49 368.18 2.31 368.94 C2.9 368.54 3.69
									 368.05 4.23 367.75 C3.48 367.02 2.7 366.23 1.92 365.39 Z" class="st6"/>
					</g>
					<g id="shape1225-276" v:mID="1225" v:groupContext="shape" v:layerMember="0"
							transform="translate(8.36025,-14.0152)">
						<title>Sheet.1225</title>
						<path d="M1.71 365.24 C1.13 365.55 0.59 365.95 0 366.37 C0.74 367.15 1.79 368.18 2.61 368.94 C3.2 368.54
									 3.69 368.13 4.23 367.83 C3.48 367.1 2.49 366.08 1.71 365.24 Z" class="st6"/>
					</g>
				</g>
				<g id="group1226-278" transform="translate(15.2696,-6.24169)" v:mID="1226" v:groupContext="group" v:layerMember="0">
					<title>Sheet.1226</title>
					<g id="shape1227-279" v:mID="1227" v:groupContext="shape" v:layerMember="0">
						<title>Sheet.1227</title>
						<path d="M1.38 363.85 C0.23 364.74 0 366.4 0.89 367.56 C1.78 368.73 3.45 368.94 4.61 368.06 C5.77 367.17
									 5.99 365.51 5.11 364.34 C4.21 363.19 2.55 362.95 1.38 363.85 Z" class="st6"/>
					</g>
				</g>
				<g id="group1228-281" transform="translate(9.9159,-1.7053E-13)" v:mID="1228" v:groupContext="group"
						v:layerMember="0">
					<title>Sheet.1228</title>
					<g id="shape1229-282" v:mID="1229" v:groupContext="shape" v:layerMember="0">
						<title>Sheet.1229</title>
						<path d="M1.27 364.23 C0.2 365.05 0 366.6 0.81 367.67 C1.64 368.74 3.18 368.94 4.26 368.12 C5.33 367.3 5.53
									 365.76 4.71 364.69 C3.89 363.61 2.35 363.41 1.27 364.23 Z" class="st6"/>
					</g>
				</g>
				<g id="group1230-284" transform="translate(0,-5.36869)" v:mID="1230" v:groupContext="group" v:layerMember="0">
					<title>Sheet.1230</title>
					<g id="shape1231-285" v:mID="1231" v:groupContext="shape" v:layerMember="0">
						<title>Sheet.1231</title>
						<path d="M1.94 361.77 C0.31 363.03 0 365.36 1.25 366.99 C2.5 368.63 4.85 368.94 6.48 367.68 C8.11 366.44
									 8.42 364.1 7.17 362.45 C5.92 360.84 3.57 360.52 1.94 361.77 Z" class="st6"/>
					</g>
				</g>
			</g>
			<g id="shape1204-287" v:mID="1204" v:groupContext="groupContent" v:layerMember="0">
				<v:textBlock v:margins="rect(4,4,4,4)"/>
				<v:textRect cx="25.1687" cy="391.439" width="63.22" height="29.6036"/>
				<text x="-0.4" y="388.74" class="st4" v:langID="1033"><v:paragraph v:horizAlign="1"/><v:tabList/>Custom Azure <v:newlineChar/><tspan
							x="17.84" dy="1.2em" class="st5">App</tspan></text>			</g>
		</g>
		<g id="group1232-290" transform="translate(270.64,-75.6758)" v:mID="1232" v:groupContext="group" v:layerMember="0">
			<title>Mobile App (Was Mobile Services).2246</title>
			<g id="shape1233-291" v:mID="1233" v:groupContext="shape" v:layerMember="0">
				<title>Sheet.1233</title>
				<path d="M18.5 335.49 L18.5 335.48 L1.5 335.48 L1.51 335.49 C0.02 335.54 0 335.88 0 337.69 L0 366.75 C0 368.55 0.03
							 368.88 1.5 368.93 C1.5 368.93 1.94 368.94 2.02 368.94 L17.98 368.94 C18.06 368.94 18.5 368.93 18.5 368.93
							 C19.98 368.88 20 368.55 20 366.75 L20 337.69 C20.01 335.88 19.98 335.54 18.5 335.49 ZM7.65 336.62 L12.36
							 336.62 C12.45 336.62 12.51 336.71 12.51 336.8 C12.52 336.89 12.45 336.98 12.36 336.98 L7.65 336.98 C7.57
							 336.98 7.49 336.89 7.49 336.8 C7.49 336.71 7.57 336.62 7.65 336.62 ZM7.78 367.21 L6.63 367.21 C6.44
							 367.21 6.28 367.13 6.28 366.94 C6.28 366.75 6.44 366.68 6.63 366.68 L7.78 366.68 C7.97 366.68 8.12 366.75
							 8.12 366.94 C8.12 367.13 7.97 367.21 7.78 367.21 ZM10.79 367.4 L9.22 367.4 C8.96 367.4 8.75 367.3 8.75
							 367.04 C8.75 366.78 8.96 366.68 9.22 366.68 L10.79 366.68 C11.05 366.68 11.26 366.78 11.26 367.04 C11.26
							 367.3 11.05 367.4 10.79 367.4 ZM13.4 367.2 L12.25 367.2 C12.07 367.2 11.91 367.13 11.91 366.94 C11.91
							 366.75 12.07 366.68 12.25 366.68 L13.4 366.68 C13.59 366.68 13.74 366.75 13.74 366.94 C13.74 367.13
							 13.59 367.2 13.4 367.2 ZM18.57 363.81 C18.57 365.35 18.42 365.68 16.99 365.7 L9.25 365.7 L3.02 365.7
							 C1.59 365.68 1.44 365.35 1.44 363.81 L1.44 339.63 C1.44 338.03 1.6 338.03 3.2 338.03 L9.25 338.02 L16.81
							 338.03 C18.41 338.03 18.57 338.03 18.57 339.63 L18.57 363.81 Z" class="st6"/>
			</g>
			<g id="shape1234-293" v:mID="1234" v:groupContext="shape" v:layerMember="0" transform="translate(2.415,-4.33275)">
				<title>Sheet.1234</title>
				<path d="M15.18 344.95 C15.18 343.4 14.98 343.39 13.43 343.39 L1.7 343.39 C0.15 343.39 0 343.4 0 344.95 L0 367.11
							 C0 368.66 0.16 368.94 1.71 368.94 L13.44 368.94 C14.98 368.94 15.18 368.66 15.18 367.11 L15.18 344.95
							 ZM7.14 361.32 L2.33 358.54 L2.33 352.97 L7.14 355.75 L7.14 361.32 ZM2.8 352.2 L7.59 349.44 L12.42 352.22
							 L7.62 354.99 L2.8 352.2 ZM12.85 358.54 L8.04 361.32 L8.04 355.78 L12.85 353.01 L12.85 358.54 Z"
						class="st6"/>
			</g>
		</g>
		<g id="shape1235-295" v:mID="1235" v:groupContext="shape" v:layerMember="1" transform="translate(236.475,-83.2501)">
			<title>Dynamic connector.2249</title>
			<path d="M-5.8 359.94 L-6.16 359.94 L-88.79 359.94" class="st7"/>
		</g>
		<g id="shape1236-302" v:mID="1236" v:groupContext="shape" transform="translate(33.1368,-318.926)">
			<title>Sheet.1236</title>
			<desc>Microsoft 365</desc>
			<v:textBlock v:margins="rect(4,4,4,4)"/>
			<v:textRect cx="76" cy="358.939" width="152" height="20"/>
			<rect x="0" y="348.939" width="152" height="20" class="st15"/>
			<text x="4" y="361.94" class="st16" v:langID="1033"><v:paragraph/><v:tabList/>Microsoft 365</text>		</g>
		<g id="shape1237-305" v:mID="1237" v:groupContext="shape" transform="translate(31.25,-222.176)">
			<title>Sheet.1237</title>
			<desc>Microsoft 365 &#38; Azure Hybrid</desc>
			<v:textBlock v:margins="rect(4,4,4,4)"/>
			<v:textRect cx="76" cy="358.939" width="152" height="20"/>
			<rect x="0" y="348.939" width="152" height="20" class="st15"/>
			<text x="4" y="361.94" class="st16" v:langID="1033"><v:paragraph/><v:tabList/>Microsoft 365 &#38; Azure Hybrid</text>		</g>
		<g id="shape1238-308" v:mID="1238" v:groupContext="shape" transform="translate(31.875,-114.176)">
			<title>Sheet.1238</title>
			<desc>Azure Custom</desc>
			<v:textBlock v:margins="rect(4,4,4,4)"/>
			<v:textRect cx="76" cy="358.939" width="152" height="20"/>
			<rect x="0" y="348.939" width="152" height="20" class="st15"/>
			<text x="4" y="361.94" class="st16" v:langID="1033"><v:paragraph/><v:tabList/>Azure Custom</text>		</g>
	</g>
</svg>
