<?xml version="1.0" encoding="UTF-8"?>
<svg xmlns="http://www.w3.org/2000/svg" width="633.6" height="182.2178" xmlns:xlink="http://www.w3.org/1999/xlink" viewBox="0 0 633.6 182.2178">
  <defs>
    <filter id="drop-shadow-1" filterUnits="userSpaceOnUse">
      <feOffset dx="1" dy="1"/>
      <feGaussianBlur result="blur" stdDeviation="0"/>
      <feFlood flood-color="#000" flood-opacity=".23"/>
      <feComposite in2="blur" operator="in"/>
      <feComposite in="SourceGraphic"/>
    </filter>
    <linearGradient id="Cool_gray_gradient_1" data-name="Cool gray gradient 1" x1="140.8" y1="92.1301" x2="294.8" y2="92.1301" gradientUnits="userSpaceOnUse">
      <stop offset="0" stop-color="#f5f5f4"/>
      <stop offset="1" stop-color="#ececea"/>
    </linearGradient>
    <linearGradient id="Cool_gray_gradient_1-2" data-name="Cool gray gradient 1" x1="303.6" x2="457.6" xlink:href="#Cool_gray_gradient_1"/>
    <linearGradient id="Cool_gray_gradient_1-3" data-name="Cool gray gradient 1" x1="466.4" x2="620.4" xlink:href="#Cool_gray_gradient_1"/>
    <filter id="drop-shadow-1-1" x="149.6" y="74.8" width="300.2" height="67" filterUnits="userSpaceOnUse">
      <feOffset dx="1" dy="1"/>
      <feGaussianBlur result="blur-2" stdDeviation="0"/>
      <feFlood flood-color="#000" flood-opacity=".23"/>
      <feComposite in2="blur-2" operator="in"/>
      <feComposite in="SourceGraphic"/>
    </filter>
    <linearGradient id="linear-gradient" x1="-358.8572" y1="1965.0819" x2="-358.8572" y2="1982.4" gradientTransform="translate(564 2084) scale(1 -1)" gradientUnits="userSpaceOnUse">
      <stop offset="0" stop-color="#0078d4"/>
      <stop offset=".82" stop-color="#5ea0ef"/>
    </linearGradient>
    <linearGradient id="linear-gradient-2" x1="-358.8572" y1="1958.4" x2="-358.8572" y2="1965.0819" gradientTransform="translate(564 2084) scale(1 -1)" gradientUnits="userSpaceOnUse">
      <stop offset=".15" stop-color="#ccc"/>
      <stop offset="1" stop-color="#707070"/>
    </linearGradient>
    <linearGradient id="linear-gradient-3" x1="-192.9295" x2="-192.9295" xlink:href="#linear-gradient"/>
    <linearGradient id="linear-gradient-4" x1="-192.9295" x2="-192.9295" xlink:href="#linear-gradient-2"/>
    <linearGradient id="linear-gradient-5" x1="-483.9" y1="1944.3716" x2="-483.9" y2="1971.9716" gradientTransform="translate(564 2084) scale(1 -1)" gradientUnits="userSpaceOnUse">
      <stop offset="0" stop-color="#198ab3"/>
      <stop offset=".09" stop-color="#1f9dc4"/>
      <stop offset=".24" stop-color="#28b5d9"/>
      <stop offset=".4" stop-color="#2dc6e9"/>
      <stop offset=".57" stop-color="#31d1f2"/>
      <stop offset=".78" stop-color="#32d4f5"/>
    </linearGradient>
    <linearGradient id="linear-gradient-6" x1="-485.0294" y1="1954.051" x2="-485.0294" y2="1948.5628" gradientTransform="translate(564 2084) scale(1 -1)" gradientUnits="userSpaceOnUse">
      <stop offset="0" stop-color="#c69aeb"/>
      <stop offset="1" stop-color="#6f4bb2"/>
    </linearGradient>
  </defs>
  <g isolation="isolate">
    <g id="Shapes">
      <rect width="633.6" height="182.2178" fill="#fff"/>
      <g>
        <g mix-blend-mode="multiply" opacity=".65">
          <rect x="141.8" y="13.6602" width="154" height="158.9398" rx="8" ry="8" fill="#2b436f"/>
          <rect x="141.8" y="13.6602" width="154" height="158.9398" rx="8" ry="8" fill="#2b436f" opacity=".4"/>
        </g>
        <g>
          <rect x="140.8" y="12.6602" width="154" height="158.9398" rx="8" ry="8" fill="url(#Cool_gray_gradient_1)"/>
          <rect x="140.8" y="12.6602" width="154" height="158.9398" rx="8" ry="8" fill="#8ec8e7" opacity=".4"/>
        </g>
      </g>
      <g>
        <g mix-blend-mode="multiply" opacity=".65">
          <rect x="304.6" y="13.6602" width="154" height="158.9398" rx="8" ry="8" fill="#2b436f"/>
          <rect x="304.6" y="13.6602" width="154" height="158.9398" rx="8" ry="8" fill="#2b436f" opacity=".4"/>
        </g>
        <g>
          <rect x="303.6" y="12.6602" width="154" height="158.9398" rx="8" ry="8" fill="url(#Cool_gray_gradient_1-2)"/>
          <rect x="303.6" y="12.6602" width="154" height="158.9398" rx="8" ry="8" fill="#8ec8e7" opacity=".4"/>
        </g>
      </g>
      <g>
        <g mix-blend-mode="multiply" opacity=".65">
          <rect x="467.4" y="13.6602" width="154" height="158.9398" rx="8" ry="8" fill="#2b436f"/>
          <rect x="467.4" y="13.6602" width="154" height="158.9398" rx="8" ry="8" fill="#2b436f" opacity=".4"/>
        </g>
        <g>
          <rect x="466.4" y="12.6602" width="154" height="158.9398" rx="8" ry="8" fill="url(#Cool_gray_gradient_1-3)"/>
          <rect x="466.4" y="12.6602" width="154" height="158.9398" rx="8" ry="8" fill="#8ec8e7" opacity=".4"/>
        </g>
      </g>
      <g>
        <rect x="13.2" y="61.6" width="607.2" height="92.4" fill="#fff"/>
        <rect x="13.2" y="61.6" width="607.2" height="92.4" fill="#b2aaa1" opacity=".4"/>
        <rect x="13.2" y="61.6" width="607.2" height="92.4" fill="none" stroke="#8e8278" stroke-width=".35"/>
      </g>
      <rect x="149.6" y="74.8" width="299.2" height="66" fill="#fff" filter="url(#drop-shadow-1-1)"/>
      <g>
        <rect x="192.1542" y="101.6" width="25.9771" height="17.3181" rx=".8659" ry=".8659" fill="url(#linear-gradient)"/>
        <polygon points="209.4723 107.7335 209.4723 112.7702 205.1428 115.3102 205.1428 110.259 209.4723 107.7335" fill="#50e6ff"/>
        <polygon points="209.4723 107.7335 205.1428 110.2735 200.8133 107.7335 205.1428 105.2079 209.4723 107.7335" fill="#c3f1ff"/>
        <polygon points="205.1428 110.2735 205.1428 115.3102 200.8133 112.7702 200.8133 107.7335 205.1428 110.2735" fill="#9cebff"/>
        <polygon points="200.8133 112.7702 205.1428 110.259 205.1428 115.3102 200.8133 112.7702" fill="#c3f1ff"/>
        <polygon points="209.4723 112.7702 205.1428 110.259 205.1428 115.3102 209.4723 112.7702" fill="#9cebff"/>
        <path d="M210.3527,124.1568c-2.5689-.4041-2.6699-2.2514-2.6699-5.2387h-5.0944c0,2.9874-.0866,4.8346-2.6554,5.2387-.7345.0813-1.2889.7042-1.2844,1.4432h12.9886c.0045-.739-.5499-1.3619-1.2844-1.4432Z" fill="url(#linear-gradient-2)"/>
      </g>
      <g>
        <rect x="358.0819" y="101.6" width="25.9771" height="17.3181" rx=".8659" ry=".8659" fill="url(#linear-gradient-3)"/>
        <polygon points="375.4 107.7335 375.4 112.7702 371.0705 115.3102 371.0705 110.259 375.4 107.7335" fill="#50e6ff"/>
        <polygon points="375.4 107.7335 371.0705 110.2735 366.741 107.7335 371.0705 105.2079 375.4 107.7335" fill="#c3f1ff"/>
        <polygon points="371.0705 110.2735 371.0705 115.3102 366.741 112.7702 366.741 107.7335 371.0705 110.2735" fill="#9cebff"/>
        <polygon points="366.741 112.7702 371.0705 110.259 371.0705 115.3102 366.741 112.7702" fill="#c3f1ff"/>
        <polygon points="375.4 112.7702 371.0705 110.259 371.0705 115.3102 375.4 112.7702" fill="#9cebff"/>
        <path d="M376.2803,124.1568c-2.5689-.4041-2.6699-2.2514-2.6699-5.2387h-5.0944c0,2.9874-.0866,4.8346-2.6554,5.2387-.7345.0813-1.2889.7042-1.2844,1.4432h12.9886c.0045-.739-.5499-1.3619-1.2844-1.4432Z" fill="url(#linear-gradient-4)"/>
      </g>
      <g>
        <path d="M89.2412,120.3137c-.1347-4.6995-4.0349-8.4106-8.7353-8.3118-3.7427-.0385-7.1025,2.2886-8.3824,5.8059-4.001.5518-6.9913,3.9554-7.0235,7.9941.163,4.5173,3.9343,8.0603,8.4529,7.9412.2468.0173.4944.0173.7412,0h2.1176c-.1286-.3136-.1946-.6493-.1941-.9882h0c.0064-.4524.1278-.8958.3529-1.2882h-3.0176c-3.2649.1109-6.022-2.4034-6.2118-5.6647.0295-2.9364,2.2221-5.4004,5.1353-5.7706l1.3412-.2118.4412-1.2882c.9684-2.6048,3.4683-4.3209,6.2471-4.2882,3.4623-.0799,6.3507,2.628,6.4941,6.0882v1.9412l1.9235.2647c2.2288.2852,3.9197,2.1482,3.9882,4.3941-.0854,2.4942-2.1279,4.4743-4.6235,4.4824h-2.1706c-.6287-3.2707-3.4988-5.6292-6.8294-5.6118-.6189-.0778-1.1837.3608-1.2615.9797-.0778.6189.3608,1.1837.9797,1.2615.0936.0118.1882.0118.2818,0,2.5779.1586,4.5391,2.3769,4.3805,4.9548-.145,2.3566-2.0239,4.2355-4.3805,4.3805-.6189-.0778-1.1837.3608-1.2615.9797s.3608,1.1837.9797,1.2615c.0936.0118.1882.0118.2818,0,3.4206-.006,6.3233-2.5111,6.8294-5.8941h1.8529c.1169.0185.236.0185.3529,0,3.7216-.0662,6.7199-3.0723,6.7765-6.7941-.0625-3.3455-2.5456-6.1501-5.8588-6.6176Z" fill="url(#linear-gradient-5)"/>
        <rect x="76.2176" y="129.949" width="5.5059" height="5.5059" rx="2.7176" ry="2.7176" fill="url(#linear-gradient-6)"/>
      </g>
    </g>
    <g id="Text">
      <g>
        <rect x="29.6047" y="79.2" width="100.9905" height="30.8" fill="none"/>
        <path d="M39.5272,89.4014h-2.0625l-.5977-1.8691h-2.9883l-.5918,1.8691h-2.0508l3.0586-8.4023h2.2441l2.9883,8.4023ZM36.4335,86.0791l-.9023-2.8242c-.0664-.2109-.1133-.4629-.1406-.7559h-.0469c-.0195.2461-.0684.4902-.1465.7324l-.9141,2.8477h2.1504Z" fill="#2f2f2f"/>
        <path d="M42.3749,86.5068v2.8945h-1.8926v-8.4023h2.9648c2.1172,0,3.1758.8926,3.1758,2.6777,0,.8438-.3037,1.5264-.9111,2.0479s-1.4189.7822-2.4346.7822h-.9023ZM42.3749,82.4521v2.6191h.7441c1.0078,0,1.5117-.4414,1.5117-1.3242,0-.8633-.5039-1.2949-1.5117-1.2949h-.7441Z" fill="#2f2f2f"/>
        <path d="M49.5878,89.4014h-1.8926v-8.4023h1.8926v8.4023Z" fill="#2f2f2f"/>
        <path d="M64.3827,89.4014h-1.8691v-5.0273c0-.543.0234-1.1426.0703-1.7988h-.0469c-.0977.5156-.1855.8867-.2637,1.1133l-1.9688,5.7129h-1.5469l-2.0039-5.6543c-.0547-.1523-.1426-.543-.2637-1.1719h-.0527c.0508.8281.0762,1.5547.0762,2.1797v4.6465h-1.7051v-8.4023h2.7715l1.7168,4.9805c.1367.3984.2363.7988.2988,1.2012h.0352c.1055-.4648.2168-.8691.334-1.2129l1.7168-4.9688h2.7012v8.4023Z" fill="#2f2f2f"/>
        <path d="M71.0937,89.4014h-1.752v-.8613h-.0234c-.4023.6719-.998,1.0078-1.7871,1.0078-.582,0-1.04-.165-1.374-.4951s-.501-.7705-.501-1.3213c0-1.1641.6895-1.8359,2.0684-2.0156l1.6289-.2168c0-.6562-.3555-.9844-1.0664-.9844-.7148,0-1.3945.2129-2.0391.6387v-1.3945c.2578-.1328.6104-.25,1.0576-.3516s.8545-.1523,1.2217-.1523c1.7109,0,2.5664.8535,2.5664,2.5605v3.5859ZM69.3534,86.9639v-.4043l-1.0898.1406c-.6016.0781-.9023.3496-.9023.8145,0,.2109.0732.3838.2197.5186s.3447.2021.5947.2021c.3477,0,.6309-.1201.8496-.3604s.3281-.5439.3281-.9111Z" fill="#2f2f2f"/>
        <path d="M78.3534,89.4014h-1.8457v-3.334c0-.9297-.332-1.3945-.9961-1.3945-.3203,0-.584.123-.791.3691s-.3105.5586-.3105.9375v3.4219h-1.8516v-6h1.8516v.9492h.0234c.4414-.7305,1.084-1.0957,1.9277-1.0957,1.3281,0,1.9922.8242,1.9922,2.4727v3.6738Z" fill="#2f2f2f"/>
        <path d="M84.8476,89.4014h-1.752v-.8613h-.0234c-.4023.6719-.998,1.0078-1.7871,1.0078-.582,0-1.04-.165-1.374-.4951s-.501-.7705-.501-1.3213c0-1.1641.6895-1.8359,2.0684-2.0156l1.6289-.2168c0-.6562-.3555-.9844-1.0664-.9844-.7148,0-1.3945.2129-2.0391.6387v-1.3945c.2578-.1328.6104-.25,1.0576-.3516s.8545-.1523,1.2217-.1523c1.7109,0,2.5664.8535,2.5664,2.5605v3.5859ZM83.1073,86.9639v-.4043l-1.0898.1406c-.6016.0781-.9023.3496-.9023.8145,0,.2109.0732.3838.2197.5186s.3447.2021.5947.2021c.3477,0,.6309-.1201.8496-.3604s.3281-.5439.3281-.9111Z" fill="#2f2f2f"/>
        <path d="M92.224,88.7158c0,1.1133-.3223,1.9756-.9668,2.5869s-1.5781.917-2.8008.917c-.8086,0-1.4492-.1152-1.9219-.3457v-1.5586c.6172.3594,1.2402.5391,1.8691.5391.625,0,1.1094-.165,1.4531-.4951s.5156-.7783.5156-1.3447v-.4746h-.0234c-.4219.6719-1.0449,1.0078-1.8691,1.0078-.7656,0-1.373-.2695-1.8223-.8086s-.6738-1.2617-.6738-2.168c0-1.0156.25-1.8223.75-2.4199s1.1582-.8965,1.9746-.8965c.7305,0,1.2773.2812,1.6406.8438h.0234v-.6973h1.8516v5.3145ZM90.3959,86.5186v-.4746c0-.3789-.1123-.7021-.3369-.9697s-.5166-.4014-.876-.4014c-.4102,0-.7324.1602-.9668.4805s-.3516.7715-.3516,1.3535c0,.5.1113.8955.334,1.1865s.5273.4365.9141.4365c.3828,0,.6924-.1475.9287-.4424s.3545-.6846.3545-1.1689Z" fill="#2f2f2f"/>
        <path d="M99.1728,86.9287h-3.9141c.0625.8711.6113,1.3066,1.6465,1.3066.6602,0,1.2402-.1562,1.7402-.4688v1.3359c-.5547.2969-1.2754.4453-2.1621.4453-.9688,0-1.7207-.2686-2.2559-.8057s-.8027-1.2861-.8027-2.2471c0-.9961.2891-1.7852.8672-2.3672s1.2891-.873,2.1328-.873c.875,0,1.5518.2598,2.0303.7793s.7178,1.2246.7178,2.1152v.7793ZM97.456,85.792c0-.8594-.3477-1.2891-1.043-1.2891-.2969,0-.5537.123-.7705.3691s-.3486.5527-.3955.9199h2.209Z" fill="#2f2f2f"/>
        <path d="M109.8783,89.4014h-1.8457v-3.4219c0-.8711-.3203-1.3066-.9609-1.3066-.3047,0-.5527.1309-.7441.3926s-.2871.5879-.2871.9785v3.3574h-1.8516v-3.457c0-.8477-.3145-1.2715-.9434-1.2715-.3164,0-.5693.125-.7588.375s-.2842.5898-.2842,1.0195v3.334h-1.8516v-6h1.8516v.9375h.0234c.1914-.3203.46-.5811.8057-.7822s.7236-.3018,1.1338-.3018c.8477,0,1.4277.373,1.7402,1.1191.457-.7461,1.1289-1.1191,2.0156-1.1191,1.3047,0,1.957.8047,1.957,2.4141v3.7324Z" fill="#2f2f2f"/>
        <path d="M116.7626,86.9287h-3.9141c.0625.8711.6113,1.3066,1.6465,1.3066.6602,0,1.2402-.1562,1.7402-.4688v1.3359c-.5547.2969-1.2754.4453-2.1621.4453-.9688,0-1.7207-.2686-2.2559-.8057s-.8027-1.2861-.8027-2.2471c0-.9961.2891-1.7852.8672-2.3672s1.2891-.873,2.1328-.873c.875,0,1.5518.2598,2.0303.7793s.7178,1.2246.7178,2.1152v.7793ZM115.0458,85.792c0-.8594-.3477-1.2891-1.043-1.2891-.2969,0-.5537.123-.7705.3691s-.3486.5527-.3955.9199h2.209Z" fill="#2f2f2f"/>
        <path d="M123.7357,89.4014h-1.8457v-3.334c0-.9297-.332-1.3945-.9961-1.3945-.3203,0-.584.123-.791.3691s-.3105.5586-.3105.9375v3.4219h-1.8516v-6h1.8516v.9492h.0234c.4414-.7305,1.084-1.0957,1.9277-1.0957,1.3281,0,1.9922.8242,1.9922,2.4727v3.6738Z" fill="#2f2f2f"/>
        <path d="M128.7592,89.3311c-.2734.1445-.6855.2168-1.2363.2168-1.3047,0-1.957-.6777-1.957-2.0332v-2.748h-.9727v-1.3652h.9727v-1.2949l1.8457-.5273v1.8223h1.3477v1.3652h-1.3477v2.4258c0,.625.248.9375.7441.9375.1953,0,.3965-.0566.6035-.1699v1.3711Z" fill="#2f2f2f"/>
        <path d="M58.411,96.8521c-.3125,0-.5684-.0928-.7676-.2783s-.2988-.4131-.2988-.6826c0-.2773.0996-.5039.2988-.6797s.4551-.2637.7676-.2637c.3164,0,.5732.0879.7705.2637s.2959.4023.2959.6797c0,.2812-.0986.5117-.2959.6914s-.4541.2695-.7705.2695ZM59.3251,103.8013h-1.8516v-6h1.8516v6Z" fill="#2f2f2f"/>
        <path d="M66.6571,103.8013h-1.8457v-3.334c0-.9297-.332-1.3945-.9961-1.3945-.3203,0-.584.123-.791.3691s-.3105.5586-.3105.9375v3.4219h-1.8516v-6h1.8516v.9492h.0234c.4414-.7305,1.084-1.0957,1.9277-1.0957,1.3281,0,1.9922.8242,1.9922,2.4727v3.6738Z" fill="#2f2f2f"/>
        <path d="M67.8446,103.6431v-1.5c.3047.1836.6084.3203.9111.4102s.5889.1348.8584.1348c.3281,0,.5869-.0449.7764-.1348s.2842-.2266.2842-.4102c0-.1172-.043-.2148-.1289-.293s-.1963-.1465-.3311-.2051-.2822-.1113-.4424-.1582-.3145-.0996-.4629-.1582c-.2383-.0898-.4482-.1865-.6299-.29s-.334-.2236-.457-.3604-.2168-.2949-.2812-.4746-.0967-.3926-.0967-.6387c0-.3359.0732-.625.2197-.8672s.3418-.4404.5859-.5947.5234-.2676.8379-.3398.6416-.1084.9814-.1084c.2656,0,.5352.0205.8086.0615s.543.1006.8086.1787v1.4297c-.2344-.1367-.4854-.2393-.7529-.3076s-.5303-.1025-.7881-.1025c-.1211,0-.2354.0107-.3428.0322s-.2021.0527-.2842.0938-.1465.0938-.1934.1582-.0703.1377-.0703.2197c0,.1094.0352.2031.1055.2812s.1621.1455.2754.2021.2393.1074.3779.1523.2764.0908.4131.1377c.2461.0859.4688.1797.668.2812s.3701.2207.5127.3574.252.2969.3281.4805.1143.4023.1143.6562c0,.3555-.0771.6592-.2314.9111s-.3594.457-.6152.6152-.5508.2734-.8848.3457-.6807.1084-1.04.1084c-.6602,0-1.2715-.1016-1.834-.3047Z" fill="#2f2f2f"/>
        <path d="M77.1171,103.731c-.2734.1445-.6855.2168-1.2363.2168-1.3047,0-1.957-.6777-1.957-2.0332v-2.748h-.9727v-1.3652h.9727v-1.2949l1.8457-.5273v1.8223h1.3477v1.3652h-1.3477v2.4258c0,.625.248.9375.7441.9375.1953,0,.3965-.0566.6035-.1699v1.3711Z" fill="#2f2f2f"/>
        <path d="M83.2807,103.8013h-1.752v-.8613h-.0234c-.4023.6719-.998,1.0078-1.7871,1.0078-.582,0-1.04-.165-1.374-.4951s-.501-.7705-.501-1.3213c0-1.1641.6895-1.8359,2.0684-2.0156l1.6289-.2168c0-.6562-.3555-.9844-1.0664-.9844-.7148,0-1.3945.2129-2.0391.6387v-1.3945c.2578-.1328.6104-.25,1.0576-.3516s.8545-.1523,1.2217-.1523c1.7109,0,2.5664.8535,2.5664,2.5605v3.5859ZM81.5404,101.3638v-.4043l-1.0898.1406c-.6016.0781-.9023.3496-.9023.8145,0,.2109.0732.3838.2197.5186s.3447.2021.5947.2021c.3477,0,.6309-.1201.8496-.3604s.3281-.5439.3281-.9111Z" fill="#2f2f2f"/>
        <path d="M90.5404,103.8013h-1.8457v-3.334c0-.9297-.332-1.3945-.9961-1.3945-.3203,0-.584.123-.791.3691s-.3105.5586-.3105.9375v3.4219h-1.8516v-6h1.8516v.9492h.0234c.4414-.7305,1.084-1.0957,1.9277-1.0957,1.3281,0,1.9922.8242,1.9922,2.4727v3.6738Z" fill="#2f2f2f"/>
        <path d="M96.5614,103.5845c-.418.2422-1.0215.3633-1.8105.3633-.9219,0-1.668-.2793-2.2383-.8379s-.8555-1.2793-.8555-2.1621c0-1.0195.3057-1.8232.917-2.4111s1.4287-.8818,2.4521-.8818c.707,0,1.2188.0938,1.5352.2812v1.5703c-.3867-.2891-.8184-.4336-1.2949-.4336-.5312,0-.9521.1553-1.2627.4658s-.4658.7393-.4658,1.2861c0,.5312.1484.9482.4453,1.251s.7051.4541,1.2246.4541c.4609,0,.9121-.1445,1.3535-.4336v1.4883Z" fill="#2f2f2f"/>
        <path d="M103.1845,101.3286h-3.9141c.0625.8711.6113,1.3066,1.6465,1.3066.6602,0,1.2402-.1562,1.7402-.4688v1.3359c-.5547.2969-1.2754.4453-2.1621.4453-.9688,0-1.7207-.2686-2.2559-.8057s-.8027-1.2861-.8027-2.2471c0-.9961.2891-1.7852.8672-2.3672s1.2891-.873,2.1328-.873c.875,0,1.5518.2598,2.0303.7793s.7178,1.2246.7178,2.1152v.7793ZM101.4677,100.1919c0-.8594-.3477-1.2891-1.043-1.2891-.2969,0-.5537.123-.7705.3691s-.3486.5527-.3955.9199h2.209Z" fill="#2f2f2f"/>
      </g>
      <g>
        <path d="M336.8456,39.6001h-2.0625l-.5977-1.8691h-2.9883l-.5918,1.8691h-2.0508l3.0586-8.4023h2.2441l2.9883,8.4023ZM333.7519,36.2778l-.9023-2.8242c-.0664-.2109-.1133-.4629-.1406-.7559h-.0469c-.0195.2461-.0684.4902-.1465.7324l-.9141,2.8477h2.1504Z" fill="#2f2f2f"/>
        <path d="M343.1679,33.6001l-2.2324,6h-2.1094l-2.127-6h1.9805l1.043,3.6973c.1172.418.1855.7734.2051,1.0664h.0234c.0273-.2773.0996-.6211.2168-1.0312l1.0664-3.7324h1.9336Z" fill="#2f2f2f"/>
        <path d="M348.8832,39.6001h-1.752v-.8613h-.0234c-.4023.6719-.998,1.0078-1.7876,1.0078-.582,0-1.04-.165-1.374-.4951s-.501-.7705-.501-1.3213c0-1.1641.6895-1.8359,2.0684-2.0156l1.6294-.2168c0-.6562-.3555-.9844-1.0669-.9844-.7148,0-1.3945.2129-2.0391.6387v-1.3945c.2578-.1328.6104-.25,1.0576-.3516s.8545-.1523,1.2222-.1523c1.7109,0,2.5664.8535,2.5664,2.5605v3.5859ZM347.143,37.1626v-.4043l-1.0903.1406c-.6016.0781-.9023.3496-.9023.8145,0,.2109.0732.3838.2197.5186s.3447.2021.5947.2021c.3481,0,.6313-.1201.8501-.3604s.3281-.5439.3281-.9111Z" fill="#2f2f2f"/>
        <path d="M351.267,32.6509c-.3125,0-.5684-.0928-.7676-.2783s-.2988-.4131-.2988-.6826c0-.2773.0996-.5039.2988-.6797s.4551-.2637.7676-.2637c.3164,0,.5732.0879.7705.2637s.2959.4023.2959.6797c0,.2812-.0986.5117-.2959.6914s-.4541.2695-.7705.2695ZM352.1811,39.6001h-1.8516v-6h1.8516v6Z" fill="#2f2f2f"/>
        <path d="M355.5639,39.6001h-1.8516v-8.8828h1.8516v8.8828Z" fill="#2f2f2f"/>
        <path d="M362.143,39.6001h-1.752v-.8613h-.0234c-.4023.6719-.998,1.0078-1.7871,1.0078-.582,0-1.04-.165-1.374-.4951s-.501-.7705-.501-1.3213c0-1.1641.6895-1.8359,2.0684-2.0156l1.6289-.2168c0-.6562-.3555-.9844-1.0664-.9844-.7148,0-1.3945.2129-2.0391.6387v-1.3945c.2578-.1328.6104-.25,1.0576-.3516s.8545-.1523,1.2217-.1523c1.7109,0,2.5664.8535,2.5664,2.5605v3.5859ZM360.4027,37.1626v-.4043l-1.0898.1406c-.6016.0781-.9023.3496-.9023.8145,0,.2109.0732.3838.2197.5186s.3447.2021.5947.2021c.3477,0,.6309-.1201.8496-.3604s.3281-.5439.3281-.9111Z" fill="#2f2f2f"/>
        <path d="M365.4828,38.9028h-.0234v.6973h-1.8516v-8.8828h1.8516v3.7852h.0234c.457-.6992,1.1074-1.0488,1.9512-1.0488.7734,0,1.3691.2656,1.7871.7969s.627,1.2578.627,2.1797c0,1-.2441,1.8027-.7324,2.4082s-1.1406.9082-1.957.9082c-.7383,0-1.2969-.2812-1.6758-.8438ZM365.4301,36.3716v.6152c0,.3867.1113.707.334.9609s.5078.3809.8555.3809c.4219,0,.749-.1631.9814-.4893s.3486-.7881.3486-1.3857c0-.4961-.1064-.8838-.3193-1.1631s-.5166-.4189-.9111-.4189c-.3711,0-.6787.1387-.9229.416s-.3662.6387-.3662,1.084Z" fill="#2f2f2f"/>
        <path d="M371.9926,32.6509c-.3125,0-.5684-.0928-.7676-.2783s-.2988-.4131-.2988-.6826c0-.2773.0996-.5039.2988-.6797s.4551-.2637.7676-.2637c.3164,0,.5732.0879.7705.2637s.2959.4023.2959.6797c0,.2812-.0986.5117-.2959.6914s-.4541.2695-.7705.2695ZM372.9066,39.6001h-1.8516v-6h1.8516v6Z" fill="#2f2f2f"/>
        <path d="M376.2895,39.6001h-1.8516v-8.8828h1.8516v8.8828Z" fill="#2f2f2f"/>
        <path d="M378.7582,32.6509c-.3125,0-.5684-.0928-.7676-.2783s-.2988-.4131-.2988-.6826c0-.2773.0996-.5039.2988-.6797s.4551-.2637.7676-.2637c.3164,0,.5732.0879.7705.2637s.2959.4023.2959.6797c0,.2812-.0986.5117-.2959.6914s-.4541.2695-.7705.2695ZM379.6723,39.6001h-1.8516v-6h1.8516v6Z" fill="#2f2f2f"/>
        <path d="M384.7699,39.5298c-.2734.1445-.6855.2168-1.2363.2168-1.3047,0-1.957-.6777-1.957-2.0332v-2.748h-.9727v-1.3652h.9727v-1.2949l1.8457-.5273v1.8223h1.3477v1.3652h-1.3477v2.4258c0,.625.248.9375.7441.9375.1953,0,.3965-.0566.6035-.1699v1.3711Z" fill="#2f2f2f"/>
        <path d="M391.8285,33.6001l-2.4375,6.4805c-.5859,1.5586-1.4688,2.3379-2.6484,2.3379-.4492,0-.8184-.0508-1.1074-.1523v-1.4766c.2461.1445.5137.2168.8027.2168.4766,0,.8086-.2246.9961-.6738l.3164-.7441-2.4375-5.9883h2.0508l1.1191,3.6504c.0703.2266.125.4941.1641.8027h.0234c.0352-.2266.0996-.4902.1934-.791l1.1309-3.6621h1.834Z" fill="#2f2f2f"/>
        <path d="M402.1117,39.6001h-6.7676v-1.0898l4.3066-5.7715h-3.9961v-1.541h6.4453v1.0605l-4.2129,5.8066h4.2246v1.5352Z" fill="#2f2f2f"/>
        <path d="M405.9936,39.7466c-1,0-1.7861-.2803-2.3584-.8408s-.8584-1.3213-.8584-2.2822c0-.9922.2969-1.7686.8906-2.3291s1.3965-.8408,2.4082-.8408c.9961,0,1.7773.2803,2.3438.8408s.8496,1.3018.8496,2.2236c0,.9961-.292,1.7832-.876,2.3613s-1.3838.8672-2.3994.8672ZM406.0404,34.8716c-.4375,0-.7773.1504-1.0195.4512s-.3633.7266-.3633,1.2773c0,1.1523.4648,1.7285,1.3945,1.7285.8867,0,1.3301-.5918,1.3301-1.7754,0-1.1211-.4473-1.6816-1.3418-1.6816Z" fill="#2f2f2f"/>
        <path d="M416.2563,39.6001h-1.8457v-3.334c0-.9297-.332-1.3945-.9961-1.3945-.3203,0-.584.123-.791.3691s-.3105.5586-.3105.9375v3.4219h-1.8516v-6h1.8516v.9492h.0234c.4414-.7305,1.084-1.0957,1.9277-1.0957,1.3281,0,1.9922.8242,1.9922,2.4727v3.6738Z" fill="#2f2f2f"/>
        <path d="M423.142,37.1274h-3.9141c.0625.8711.6113,1.3066,1.6465,1.3066.6602,0,1.2402-.1562,1.7402-.4688v1.3359c-.5547.2969-1.2754.4453-2.1621.4453-.9688,0-1.7207-.2686-2.2559-.8057s-.8027-1.2861-.8027-2.2471c0-.9961.2891-1.7852.8672-2.3672s1.2891-.873,2.1328-.873c.875,0,1.5518.2598,2.0303.7793s.7178,1.2246.7178,2.1152v.7793ZM421.4252,35.9907c0-.8594-.3477-1.2891-1.043-1.2891-.2969,0-.5537.123-.7705.3691s-.3486.5527-.3955.9199h2.209Z" fill="#2f2f2f"/>
        <path d="M429.2885,38.0649h3.5625v1.5352h-5.5898v-.6328c0-.4297.0723-.8154.2168-1.1572s.3262-.6484.5449-.9199.458-.5117.7178-.7207.5068-.3975.7412-.5654c.2461-.1758.4619-.3438.6475-.5039s.3418-.3193.4688-.4775.2217-.3184.2842-.4805.0938-.335.0938-.5186c0-.3594-.1016-.6309-.3047-.8145s-.5137-.2754-.9316-.2754c-.7227,0-1.4141.2871-2.0742.8613v-1.6289c.7305-.4727,1.5547-.709,2.4727-.709.4258,0,.8076.0557,1.1455.167s.624.2705.8584.4775.4131.458.5361.7529.1846.624.1846.9873c0,.3867-.0596.7305-.1787,1.0312s-.2773.5742-.4746.8203-.4248.4717-.6826.6768-.5254.4033-.8027.5947c-.1875.1328-.3682.2646-.542.3955s-.3271.2598-.46.3867-.2383.251-.3164.3721-.1172.2363-.1172.3457Z" fill="#2f2f2f"/>
      </g>
      <g>
        <path d="M174.0453,39.6001h-2.0625l-.5977-1.8691h-2.9883l-.5918,1.8691h-2.0508l3.0586-8.4023h2.2441l2.9883,8.4023ZM170.9516,36.2778l-.9023-2.8242c-.0664-.2109-.1133-.4629-.1406-.7559h-.0469c-.0195.2461-.0684.4902-.1465.7324l-.9141,2.8477h2.1504Z" fill="#2f2f2f"/>
        <path d="M180.3676,33.6001l-2.2324,6h-2.1094l-2.127-6h1.9805l1.043,3.6973c.1172.418.1855.7734.2051,1.0664h.0234c.0273-.2773.0996-.6211.2168-1.0312l1.0664-3.7324h1.9336Z" fill="#2f2f2f"/>
        <path d="M186.0824,39.6001h-1.752v-.8613h-.0234c-.4023.6719-.998,1.0078-1.7871,1.0078-.582,0-1.04-.165-1.374-.4951s-.501-.7705-.501-1.3213c0-1.1641.6895-1.8359,2.0684-2.0156l1.6289-.2168c0-.6562-.3555-.9844-1.0664-.9844-.7148,0-1.3945.2129-2.0391.6387v-1.3945c.2578-.1328.6104-.25,1.0576-.3516s.8545-.1523,1.2217-.1523c1.7109,0,2.5664.8535,2.5664,2.5605v3.5859ZM184.3422,37.1626v-.4043l-1.0898.1406c-.6016.0781-.9023.3496-.9023.8145,0,.2109.0732.3838.2197.5186s.3447.2021.5947.2021c.3477,0,.6309-.1201.8496-.3604s.3281-.5439.3281-.9111Z" fill="#2f2f2f"/>
        <path d="M188.4667,32.6509c-.3125,0-.5684-.0928-.7676-.2783s-.2988-.4131-.2988-.6826c0-.2773.0996-.5039.2988-.6797s.4551-.2637.7676-.2637c.3164,0,.5732.0879.7705.2637s.2959.4023.2959.6797c0,.2812-.0986.5117-.2959.6914s-.4541.2695-.7705.2695ZM189.3808,39.6001h-1.8516v-6h1.8516v6Z" fill="#2f2f2f"/>
        <path d="M192.7631,39.6001h-1.8516v-8.8828h1.8516v8.8828Z" fill="#2f2f2f"/>
        <path d="M199.3427,39.6001h-1.752v-.8613h-.0234c-.4023.6719-.998,1.0078-1.7871,1.0078-.582,0-1.04-.165-1.374-.4951s-.501-.7705-.501-1.3213c0-1.1641.6895-1.8359,2.0684-2.0156l1.6289-.2168c0-.6562-.3555-.9844-1.0664-.9844-.7148,0-1.3945.2129-2.0391.6387v-1.3945c.2578-.1328.6104-.25,1.0576-.3516s.8545-.1523,1.2217-.1523c1.7109,0,2.5664.8535,2.5664,2.5605v3.5859ZM197.6024,37.1626v-.4043l-1.0898.1406c-.6016.0781-.9023.3496-.9023.8145,0,.2109.0732.3838.2197.5186s.3447.2021.5947.2021c.3477,0,.6309-.1201.8496-.3604s.3281-.5439.3281-.9111Z" fill="#2f2f2f"/>
        <path d="M202.6825,38.9028h-.0234v.6973h-1.8516v-8.8828h1.8516v3.7852h.0234c.457-.6992,1.1074-1.0488,1.9512-1.0488.7734,0,1.3691.2656,1.7871.7969s.627,1.2578.627,2.1797c0,1-.2441,1.8027-.7324,2.4082s-1.1406.9082-1.957.9082c-.7383,0-1.2969-.2812-1.6758-.8438ZM202.6298,36.3716v.6152c0,.3867.1113.707.334.9609s.5078.3809.8555.3809c.4219,0,.749-.1631.9814-.4893s.3486-.7881.3486-1.3857c0-.4961-.1064-.8838-.3193-1.1631s-.5166-.4189-.9111-.4189c-.3711,0-.6787.1387-.9229.416s-.3662.6387-.3662,1.084Z" fill="#2f2f2f"/>
        <path d="M209.1923,32.6509c-.3125,0-.5684-.0928-.7676-.2783s-.2988-.4131-.2988-.6826c0-.2773.0996-.5039.2988-.6797s.4551-.2637.7676-.2637c.3164,0,.5732.0879.7705.2637s.2959.4023.2959.6797c0,.2812-.0986.5117-.2959.6914s-.4541.2695-.7705.2695ZM210.1063,39.6001h-1.8516v-6h1.8516v6Z" fill="#2f2f2f"/>
        <path d="M213.4892,39.6001h-1.8516v-8.8828h1.8516v8.8828Z" fill="#2f2f2f"/>
        <path d="M215.9574,32.6509c-.3125,0-.5684-.0928-.7676-.2783s-.2988-.4131-.2988-.6826c0-.2773.0996-.5039.2988-.6797s.4551-.2637.7676-.2637c.3164,0,.5732.0879.7705.2637s.2959.4023.2959.6797c0,.2812-.0986.5117-.2959.6914s-.4541.2695-.7705.2695ZM216.8715,39.6001h-1.8516v-6h1.8516v6Z" fill="#2f2f2f"/>
        <path d="M221.9696,39.5298c-.2734.1445-.6855.2168-1.2363.2168-1.3047,0-1.957-.6777-1.957-2.0332v-2.748h-.9727v-1.3652h.9727v-1.2949l1.8457-.5273v1.8223h1.3477v1.3652h-1.3477v2.4258c0,.625.248.9375.7441.9375.1953,0,.3965-.0566.6035-.1699v1.3711Z" fill="#2f2f2f"/>
        <path d="M229.0277,33.6001l-2.4375,6.4805c-.5859,1.5586-1.4688,2.3379-2.6484,2.3379-.4492,0-.8184-.0508-1.1074-.1523v-1.4766c.2461.1445.5137.2168.8027.2168.4766,0,.8086-.2246.9961-.6738l.3164-.7441-2.4375-5.9883h2.0508l1.1191,3.6504c.0703.2266.125.4941.1641.8027h.0234c.0352-.2266.0996-.4902.1934-.791l1.1309-3.6621h1.834Z" fill="#2f2f2f"/>
        <path d="M239.3109,39.6001h-6.7676v-1.0898l4.3066-5.7715h-3.9961v-1.541h6.4453v1.0605l-4.2129,5.8066h4.2246v1.5352Z" fill="#2f2f2f"/>
        <path d="M243.1928,39.7466c-1,0-1.7861-.2803-2.3584-.8408s-.8584-1.3213-.8584-2.2822c0-.9922.2969-1.7686.8906-2.3291s1.3965-.8408,2.4082-.8408c.9961,0,1.7773.2803,2.3438.8408s.8496,1.3018.8496,2.2236c0,.9961-.292,1.7832-.876,2.3613s-1.3838.8672-2.3994.8672ZM243.2396,34.8716c-.4375,0-.7773.1504-1.0195.4512s-.3633.7266-.3633,1.2773c0,1.1523.4648,1.7285,1.3945,1.7285.8867,0,1.3301-.5918,1.3301-1.7754,0-1.1211-.4473-1.6816-1.3418-1.6816Z" fill="#2f2f2f"/>
        <path d="M253.456,39.6001h-1.8457v-3.334c0-.9297-.332-1.3945-.9961-1.3945-.3203,0-.584.123-.791.3691s-.3105.5586-.3105.9375v3.4219h-1.8516v-6h1.8516v.9492h.0234c.4414-.7305,1.084-1.0957,1.9277-1.0957,1.3281,0,1.9922.8242,1.9922,2.4727v3.6738Z" fill="#2f2f2f"/>
        <path d="M260.3412,37.1274h-3.9141c.0625.8711.6113,1.3066,1.6465,1.3066.6602,0,1.2402-.1562,1.7402-.4688v1.3359c-.5547.2969-1.2754.4453-2.1621.4453-.9688,0-1.7207-.2686-2.2559-.8057s-.8027-1.2861-.8027-2.2471c0-.9961.2891-1.7852.8672-2.3672s1.2891-.873,2.1328-.873c.875,0,1.5518.2598,2.0303.7793s.7178,1.2246.7178,2.1152v.7793ZM258.6244,35.9907c0-.8594-.3477-1.2891-1.043-1.2891-.2969,0-.5537.123-.7705.3691s-.3486.5527-.3955.9199h2.209Z" fill="#2f2f2f"/>
        <path d="M268.849,31.0103v8.5898h-1.8457v-6.5039c-.1016.0898-.2217.1748-.3604.2549s-.2861.1523-.4424.2168-.3184.1191-.4863.1641-.334.0771-.498.0967v-1.5586c.4805-.1406.9336-.3203,1.3594-.5391s.8105-.459,1.1543-.7207h1.1191Z" fill="#2f2f2f"/>
      </g>
      <g>
        <path d="M499.6459,39.6001h-2.0625l-.5977-1.8691h-2.9883l-.5918,1.8691h-2.0508l3.0586-8.4023h2.2441l2.9883,8.4023ZM496.5521,36.2778l-.9023-2.8242c-.0664-.2109-.1133-.4629-.1406-.7559h-.0469c-.0195.2461-.0684.4902-.1465.7324l-.9141,2.8477h2.1504Z" fill="#2f2f2f"/>
        <path d="M505.9682,33.6001l-2.2324,6h-2.1094l-2.127-6h1.9805l1.043,3.6973c.1172.418.1855.7734.2051,1.0664h.0234c.0273-.2773.0996-.6211.2168-1.0312l1.0664-3.7324h1.9336Z" fill="#2f2f2f"/>
        <path d="M511.683,39.6001h-1.752v-.8613h-.0234c-.4023.6719-.998,1.0078-1.7871,1.0078-.582,0-1.04-.165-1.374-.4951s-.501-.7705-.501-1.3213c0-1.1641.6895-1.8359,2.0684-2.0156l1.6289-.2168c0-.6562-.3555-.9844-1.0664-.9844-.7148,0-1.3945.2129-2.0391.6387v-1.3945c.2578-.1328.6104-.25,1.0576-.3516s.8545-.1523,1.2217-.1523c1.7109,0,2.5664.8535,2.5664,2.5605v3.5859ZM509.9428,37.1626v-.4043l-1.0898.1406c-.6016.0781-.9023.3496-.9023.8145,0,.2109.0732.3838.2197.5186s.3447.2021.5947.2021c.3477,0,.6309-.1201.8496-.3604s.3281-.5439.3281-.9111Z" fill="#2f2f2f"/>
        <path d="M514.0668,32.6509c-.3125,0-.5684-.0928-.7676-.2783s-.2988-.4131-.2988-.6826c0-.2773.0996-.5039.2988-.6797s.4551-.2637.7676-.2637c.3164,0,.5732.0879.7705.2637s.2959.4023.2959.6797c0,.2812-.0986.5117-.2959.6914s-.4541.2695-.7705.2695ZM514.9809,39.6001h-1.8516v-6h1.8516v6Z" fill="#2f2f2f"/>
        <path d="M518.3637,39.6001h-1.8516v-8.8828h1.8516v8.8828Z" fill="#2f2f2f"/>
        <path d="M524.9428,39.6001h-1.752v-.8613h-.0234c-.4023.6719-.998,1.0078-1.7871,1.0078-.582,0-1.04-.165-1.374-.4951s-.501-.7705-.501-1.3213c0-1.1641.6895-1.8359,2.0684-2.0156l1.6289-.2168c0-.6562-.3555-.9844-1.0664-.9844-.7148,0-1.3945.2129-2.0391.6387v-1.3945c.2578-.1328.6104-.25,1.0576-.3516s.8545-.1523,1.2217-.1523c1.7109,0,2.5664.8535,2.5664,2.5605v3.5859ZM523.2025,37.1626v-.4043l-1.0898.1406c-.6016.0781-.9023.3496-.9023.8145,0,.2109.0732.3838.2197.5186s.3447.2021.5947.2021c.3477,0,.6309-.1201.8496-.3604s.3281-.5439.3281-.9111Z" fill="#2f2f2f"/>
        <path d="M528.2826,38.9028h-.0234v.6973h-1.8516v-8.8828h1.8516v3.7852h.0234c.457-.6992,1.1074-1.0488,1.9512-1.0488.7734,0,1.3691.2656,1.7871.7969s.627,1.2578.627,2.1797c0,1-.2441,1.8027-.7324,2.4082s-1.1406.9082-1.957.9082c-.7383,0-1.2969-.2812-1.6758-.8438ZM528.2299,36.3716v.6152c0,.3867.1113.707.334.9609s.5078.3809.8555.3809c.4219,0,.749-.1631.9814-.4893s.3486-.7881.3486-1.3857c0-.4961-.1064-.8838-.3193-1.1631s-.5166-.4189-.9111-.4189c-.3711,0-.6787.1387-.9229.416s-.3662.6387-.3662,1.084Z" fill="#2f2f2f"/>
        <path d="M534.7924,32.6509c-.3125,0-.5684-.0928-.7676-.2783s-.2988-.4131-.2988-.6826c0-.2773.0996-.5039.2988-.6797s.4551-.2637.7676-.2637c.3164,0,.5732.0879.7705.2637s.2959.4023.2959.6797c0,.2812-.0986.5117-.2959.6914s-.4541.2695-.7705.2695ZM535.7064,39.6001h-1.8516v-6h1.8516v6Z" fill="#2f2f2f"/>
        <path d="M539.0893,39.6001h-1.8516v-8.8828h1.8516v8.8828Z" fill="#2f2f2f"/>
        <path d="M541.558,32.6509c-.3125,0-.5684-.0928-.7676-.2783s-.2988-.4131-.2988-.6826c0-.2773.0996-.5039.2988-.6797s.4551-.2637.7676-.2637c.3164,0,.5732.0879.7705.2637s.2959.4023.2959.6797c0,.2812-.0986.5117-.2959.6914s-.4541.2695-.7705.2695ZM542.4721,39.6001h-1.8516v-6h1.8516v6Z" fill="#2f2f2f"/>
        <path d="M547.5697,39.5298c-.2734.1445-.6855.2168-1.2363.2168-1.3047,0-1.957-.6777-1.957-2.0332v-2.748h-.9727v-1.3652h.9727v-1.2949l1.8457-.5273v1.8223h1.3477v1.3652h-1.3477v2.4258c0,.625.248.9375.7441.9375.1953,0,.3965-.0566.6035-.1699v1.3711Z" fill="#2f2f2f"/>
        <path d="M554.6283,33.6001l-2.4375,6.4805c-.5859,1.5586-1.4688,2.3379-2.6484,2.3379-.4492,0-.8184-.0508-1.1074-.1523v-1.4766c.2461.1445.5137.2168.8027.2168.4766,0,.8086-.2246.9961-.6738l.3164-.7441-2.4375-5.9883h2.0508l1.1191,3.6504c.0703.2266.125.4941.1641.8027h.0234c.0352-.2266.0996-.4902.1934-.791l1.1309-3.6621h1.834Z" fill="#2f2f2f"/>
        <path d="M564.9115,39.6001h-6.7676v-1.0898l4.3066-5.7715h-3.9961v-1.541h6.4453v1.0605l-4.2129,5.8066h4.2246v1.5352Z" fill="#2f2f2f"/>
        <path d="M568.7934,39.7466c-1,0-1.7861-.2803-2.3584-.8408s-.8584-1.3213-.8584-2.2822c0-.9922.2969-1.7686.8906-2.3291s1.3965-.8408,2.4082-.8408c.9961,0,1.7773.2803,2.3438.8408s.8496,1.3018.8496,2.2236c0,.9961-.292,1.7832-.876,2.3613s-1.3838.8672-2.3994.8672ZM568.8402,34.8716c-.4375,0-.7773.1504-1.0195.4512s-.3633.7266-.3633,1.2773c0,1.1523.4648,1.7285,1.3945,1.7285.8867,0,1.3301-.5918,1.3301-1.7754,0-1.1211-.4473-1.6816-1.3418-1.6816Z" fill="#2f2f2f"/>
        <path d="M579.0561,39.6001h-1.8457v-3.334c0-.9297-.332-1.3945-.9961-1.3945-.3203,0-.584.123-.791.3691s-.3105.5586-.3105.9375v3.4219h-1.8516v-6h1.8516v.9492h.0234c.4414-.7305,1.084-1.0957,1.9277-1.0957,1.3281,0,1.9922.8242,1.9922,2.4727v3.6738Z" fill="#2f2f2f"/>
        <path d="M585.9418,37.1274h-3.9141c.0625.8711.6113,1.3066,1.6465,1.3066.6602,0,1.2402-.1562,1.7402-.4688v1.3359c-.5547.2969-1.2754.4453-2.1621.4453-.9688,0-1.7207-.2686-2.2559-.8057s-.8027-1.2861-.8027-2.2471c0-.9961.2891-1.7852.8672-2.3672s1.2891-.873,2.1328-.873c.875,0,1.5518.2598,2.0303.7793s.7178,1.2246.7178,2.1152v.7793ZM584.225,35.9907c0-.8594-.3477-1.2891-1.043-1.2891-.2969,0-.5537.123-.7705.3691s-.3486.5527-.3955.9199h2.209Z" fill="#2f2f2f"/>
        <path d="M590.2602,39.3247v-1.6113c.5625.4102,1.2188.6152,1.9688.6152.4727,0,.8408-.1016,1.1045-.3047s.3955-.4863.3955-.8496c0-.375-.1631-.6641-.4893-.8672s-.7744-.3047-1.3447-.3047h-.7793v-1.418h.7207c1.0938,0,1.6406-.3633,1.6406-1.0898,0-.6836-.4199-1.0254-1.2598-1.0254-.5625,0-1.1094.1816-1.6406.5449v-1.5117c.5898-.2969,1.2773-.4453,2.0625-.4453.8594,0,1.5283.1934,2.0068.5801s.7178.8887.7178,1.5059c0,1.0977-.5566,1.7852-1.6699,2.0625v.0293c.5938.0742,1.0625.29,1.4062.6475s.5156.7959.5156,1.3154c0,.7852-.2871,1.4062-.8613,1.8633s-1.3672.6855-2.3789.6855c-.8672,0-1.5723-.1406-2.1152-.4219Z" fill="#2f2f2f"/>
      </g>
      <g>
        <path d="M290.6884,87.0015c0,2.3594-1.0645,3.5391-3.1934,3.5391-2.0391,0-3.0586-1.1348-3.0586-3.4043v-5.1387h.9844v5.0742c0,1.7227.7266,2.584,2.1797,2.584,1.4023,0,2.1035-.832,2.1035-2.4961v-5.1621h.9844v5.0039Z" fill="#2f2f2f"/>
        <path d="M297.5199,90.3999h-.9609v-3.4219c0-1.2734-.4648-1.9102-1.3945-1.9102-.4805,0-.8779.1807-1.1924.542s-.4717.8174-.4717,1.3682v3.4219h-.9609v-6h.9609v.9961h.0234c.4531-.7578,1.1094-1.1367,1.9688-1.1367.6562,0,1.1582.2119,1.5059.6357s.5215,1.0361.5215,1.8369v3.668Z" fill="#2f2f2f"/>
        <path d="M299.7445,82.8765c-.1719,0-.3184-.0586-.4395-.1758s-.1816-.2656-.1816-.4453.0605-.3291.1816-.4482.2676-.1787.4395-.1787c.1758,0,.3252.0596.4482.1787s.1846.2686.1846.4482c0,.1719-.0615.3184-.1846.4395s-.2725.1816-.4482.1816ZM300.2133,90.3999h-.9609v-6h.9609v6Z" fill="#2f2f2f"/>
        <path d="M304.893,90.3413c-.2266.125-.5254.1875-.8965.1875-1.0508,0-1.5762-.5859-1.5762-1.7578v-3.5508h-1.0312v-.8203h1.0312v-1.4648l.9609-.3105v1.7754h1.5117v.8203h-1.5117v3.3809c0,.4023.0684.6895.2051.8613s.3633.2578.6797.2578c.2422,0,.4512-.0664.627-.1992v.8203Z" fill="#2f2f2f"/>
        <path d="M312.7328,90.3999h-.9609v-7.2598c-.0742.0742-.1826.1592-.3252.2549s-.3027.1904-.4805.2842-.3652.1816-.5625.2637-.3896.1465-.5771.1934v-.9727c.2109-.0586.4346-.1377.6709-.2373s.4688-.2109.6973-.334.4443-.252.6475-.3867.3789-.2666.5273-.3955h.3633v8.5898Z" fill="#2f2f2f"/>
      </g>
      <g>
        <path d="M395.7406,107.4614l-3.1113,8.4023h-1.084l-3.0469-8.4023h1.0957l2.3262,6.6621c.0742.2148.1309.4629.1699.7441h.0234c.0312-.2344.0957-.4863.1934-.7559l2.373-6.6504h1.0605Z" fill="#2f2f2f"/>
        <path d="M405.4584,115.8638h-.9785v-5.6367c0-.4453.0273-.9902.082-1.6348h-.0234c-.0938.3789-.1777.6504-.252.8145l-2.8711,6.457h-.4805l-2.8652-6.4102c-.082-.1875-.166-.4746-.252-.8613h-.0234c.0312.3359.0469.8848.0469,1.6465v5.625h-.9492v-8.4023h1.3008l2.5781,5.8594c.1992.4492.3281.7852.3867,1.0078h.0352c.168-.4609.3027-.8047.4043-1.0312l2.6309-5.8359h1.2305v8.4023Z" fill="#2f2f2f"/>
      </g>
      <g>
        <path d="M231.7475,107.4614l-3.1113,8.4023h-1.084l-3.0469-8.4023h1.0957l2.3262,6.6621c.0742.2148.1309.4629.1699.7441h.0234c.0312-.2344.0957-.4863.1934-.7559l2.373-6.6504h1.0605Z" fill="#2f2f2f"/>
        <path d="M241.4657,115.8638h-.9785v-5.6367c0-.4453.0273-.9902.082-1.6348h-.0234c-.0938.3789-.1777.6504-.252.8145l-2.8711,6.457h-.4805l-2.8652-6.4102c-.082-.1875-.166-.4746-.252-.8613h-.0234c.0312.3359.0469.8848.0469,1.6465v5.625h-.9492v-8.4023h1.3008l2.5781,5.8594c.1992.4492.3281.7852.3867,1.0078h.0352c.168-.4609.3027-.8047.4043-1.0312l2.6309-5.8359h1.2305v8.4023Z" fill="#2f2f2f"/>
      </g>
    </g>
  </g>
</svg>