<?xml version="1.0" encoding="UTF-8"?>
<svg xmlns="http://www.w3.org/2000/svg" width="646.8" height="180.4" xmlns:xlink="http://www.w3.org/1999/xlink" viewBox="0 0 646.8 180.4">
  <defs>
    <linearGradient id="Cool_gray_gradient_1" data-name="Cool gray gradient 1" x1="8.7289" y1="88" x2="211.1289" y2="88" gradientUnits="userSpaceOnUse">
      <stop offset="0" stop-color="#f5f5f4"/>
      <stop offset="1" stop-color="#ececea"/>
    </linearGradient>
    <linearGradient id="Cool_gray_gradient_1-2" data-name="Cool gray gradient 1" x1="220" x2="422.4" xlink:href="#Cool_gray_gradient_1"/>
    <linearGradient id="Cool_gray_gradient_1-3" data-name="Cool gray gradient 1" x1="431.2" x2="633.6" xlink:href="#Cool_gray_gradient_1"/>
  </defs>
  <g isolation="isolate">
    <g id="Shapes">
      <rect width="646.8" height="180.4" fill="#fff"/>
      <g>
        <g mix-blend-mode="multiply" opacity=".65">
          <rect x="9.7289" y="9.8" width="202.4" height="158.4" rx="8" ry="8" fill="#2b436f"/>
          <rect x="9.7289" y="9.8" width="202.4" height="158.4" rx="8" ry="8" fill="#2b436f" opacity=".4"/>
        </g>
        <g>
          <rect x="8.7289" y="8.8" width="202.4" height="158.4" rx="8" ry="8" fill="url(#Cool_gray_gradient_1)"/>
          <rect x="8.7289" y="8.8" width="202.4" height="158.4" rx="8" ry="8" fill="#8ec8e7" opacity=".4"/>
        </g>
      </g>
      <g>
        <rect x="17.9372" y="54.6296" width="87.6628" height="35.2" fill="#fff"/>
        <rect x="17.9372" y="54.6296" width="87.6628" height="35.2" fill="#f5f3f2" opacity=".8"/>
        <rect x="17.9372" y="54.6296" width="87.6628" height="35.2" fill="none" stroke="#9d9f9f" stroke-width=".25"/>
      </g>
      <g>
        <rect x="114.4" y="54.6296" width="87.6628" height="35.2" fill="#fff"/>
        <rect x="114.4" y="54.6296" width="87.6628" height="35.2" fill="#f5f3f2" opacity=".8"/>
        <rect x="114.4" y="54.6296" width="87.6628" height="35.2" fill="none" stroke="#9d9f9f" stroke-width=".25"/>
      </g>
      <g>
        <g mix-blend-mode="multiply" opacity=".65">
          <rect x="221" y="9.8" width="202.4" height="158.4" rx="8" ry="8" fill="#2b436f"/>
          <rect x="221" y="9.8" width="202.4" height="158.4" rx="8" ry="8" fill="#2b436f" opacity=".4"/>
        </g>
        <g>
          <rect x="220" y="8.8" width="202.4" height="158.4" rx="8" ry="8" fill="url(#Cool_gray_gradient_1-2)"/>
          <rect x="220" y="8.8" width="202.4" height="158.4" rx="8" ry="8" fill="#8ec8e7" opacity=".4"/>
        </g>
      </g>
      <g>
        <rect x="228.8" y="54.6296" width="87.6628" height="35.2" fill="#fff"/>
        <rect x="228.8" y="54.6296" width="87.6628" height="35.2" fill="#f5f3f2" opacity=".8"/>
        <rect x="228.8" y="54.6296" width="87.6628" height="35.2" fill="none" stroke="#9d9f9f" stroke-width=".25"/>
      </g>
      <g>
        <rect x="325.6711" y="54.6296" width="87.6628" height="35.2" fill="#fff"/>
        <rect x="325.6711" y="54.6296" width="87.6628" height="35.2" fill="#f5f3f2" opacity=".8"/>
        <rect x="325.6711" y="54.6296" width="87.6628" height="35.2" fill="none" stroke="#9d9f9f" stroke-width=".25"/>
      </g>
      <g>
        <g mix-blend-mode="multiply" opacity=".65">
          <rect x="432.2" y="9.8" width="202.4" height="158.4" rx="8" ry="8" fill="#2b436f"/>
          <rect x="432.2" y="9.8" width="202.4" height="158.4" rx="8" ry="8" fill="#2b436f" opacity=".4"/>
        </g>
        <g>
          <rect x="431.2" y="8.8" width="202.4" height="158.4" rx="8" ry="8" fill="url(#Cool_gray_gradient_1-3)"/>
          <rect x="431.2" y="8.8" width="202.4" height="158.4" rx="8" ry="8" fill="#8ec8e7" opacity=".4"/>
        </g>
      </g>
      <g>
        <rect x="440.4083" y="54.6296" width="87.6628" height="35.2" fill="#fff"/>
        <rect x="440.4083" y="54.6296" width="87.6628" height="35.2" fill="#f5f3f2" opacity=".8"/>
        <rect x="440.4083" y="54.6296" width="87.6628" height="35.2" fill="none" stroke="#9d9f9f" stroke-width=".25"/>
      </g>
      <g>
        <rect x="17.9372" y="96.8" width="87.6628" height="35.2" fill="#fff"/>
        <rect x="17.9372" y="96.8" width="87.6628" height="35.2" fill="#f5f3f2" opacity=".8"/>
        <rect x="17.9372" y="96.8" width="87.6628" height="35.2" fill="none" stroke="#9d9f9f" stroke-width=".25"/>
      </g>
      <g>
        <rect x="228.8" y="96.8" width="87.6628" height="35.2" fill="#fff"/>
        <rect x="228.8" y="96.8" width="87.6628" height="35.2" fill="#f5f3f2" opacity=".8"/>
        <rect x="228.8" y="96.8" width="87.6628" height="35.2" fill="none" stroke="#9d9f9f" stroke-width=".25"/>
      </g>
      <g>
        <rect x="440.4083" y="96.8" width="87.6628" height="35.2" fill="#fff"/>
        <rect x="440.4083" y="96.8" width="87.6628" height="35.2" fill="#f5f3f2" opacity=".8"/>
        <rect x="440.4083" y="96.8" width="87.6628" height="35.2" fill="none" stroke="#9d9f9f" stroke-width=".25"/>
      </g>
      <g>
        <rect x="536.8711" y="54.6296" width="87.6628" height="35.2" fill="#fff"/>
        <rect x="536.8711" y="54.6296" width="87.6628" height="35.2" fill="#f5f3f2" opacity=".8"/>
        <rect x="536.8711" y="54.6296" width="87.6628" height="35.2" fill="none" stroke="#9d9f9f" stroke-width=".25"/>
      </g>
      <g>
        <rect x="17.6" y="132" width="61.6" height="22" fill="#fff"/>
        <rect x="17.6" y="132" width="61.6" height="22" fill="#fcb24f" opacity=".3"/>
        <rect x="17.6" y="132" width="61.6" height="22" fill="none" opacity=".6" stroke="#ed7323" stroke-width=".25"/>
      </g>
      <g>
        <rect x="228.8" y="132" width="61.6" height="22" fill="#fff"/>
        <rect x="228.8" y="132" width="61.6" height="22" fill="#fcb24f" opacity=".3"/>
        <rect x="228.8" y="132" width="61.6" height="22" fill="none" opacity=".6" stroke="#ed7323" stroke-width=".25"/>
      </g>
      <g>
        <rect x="440" y="132" width="61.6" height="22" fill="#fff"/>
        <rect x="440" y="132" width="61.6" height="22" fill="#fcb24f" opacity=".3"/>
        <rect x="440" y="132" width="61.6" height="22" fill="none" opacity=".6" stroke="#ed7323" stroke-width=".25"/>
      </g>
    </g>
    <g id="Text">
      <g>
        <path d="M95.5975,32.6297h-7.8955v-1.2715l5.0244-6.7344h-4.6621v-1.7969h7.5195v1.2363l-4.915,6.7754h4.9287v1.791Z" fill="#2f2f2f"/>
        <path d="M100.1639,32.7996c-1.1665,0-2.084-.3262-2.7515-.9805s-1.0015-1.541-1.0015-2.6621c0-1.1582.3462-2.0645,1.0391-2.7178s1.6294-.9814,2.8096-.9814c1.1621,0,2.0737.3281,2.7344.9814s.9912,1.5186.9912,2.5947c0,1.1621-.3408,2.0801-1.022,2.7539-.6812.6748-1.6143,1.0117-2.7993,1.0117ZM100.2186,27.1121c-.5103,0-.9067.1758-1.1895.5273-.2827.3506-.4238.8477-.4238,1.4902,0,1.3438.5425,2.0156,1.627,2.0156,1.0347,0,1.5518-.6895,1.5518-2.0703,0-1.3086-.522-1.9629-1.5654-1.9629Z" fill="#2f2f2f"/>
        <path d="M112.1473,32.6297h-2.1533v-3.8906c0-1.084-.3872-1.627-1.1621-1.627-.3735,0-.6812.1445-.9229.4316s-.3623.6514-.3623,1.0938v3.9922h-2.1602v-7h2.1602v1.1074h.0273c.5151-.8525,1.2646-1.2793,2.249-1.2793,1.5493,0,2.3242.9619,2.3242,2.8848v4.2871Z" fill="#2f2f2f"/>
        <path d="M120.1453,29.7449h-4.5664c.0728,1.0156.7134,1.5234,1.9209,1.5234.77,0,1.4468-.1816,2.0303-.5469v1.5586c-.647.3467-1.4878.5195-2.5225.5195-1.1304,0-2.0073-.3125-2.6318-.9395s-.9365-1.5-.9365-2.6211c0-1.1621.3374-2.083,1.0117-2.7617.6743-.6797,1.5039-1.0195,2.4883-1.0195,1.021,0,1.8105.3037,2.3687.9102.5581.6055.8374,1.4277.8374,2.4668v.9102ZM118.1424,28.4188c0-1.0029-.4058-1.5039-1.2168-1.5039-.3462,0-.646.1426-.8989.4297s-.4067.6455-.4614,1.0742h2.5771Z" fill="#2f2f2f"/>
        <path d="M130.0711,22.6082v10.0215h-2.1533v-7.5879c-.1187.1045-.2588.2031-.4204.2969s-.334.1777-.5161.2529-.3716.1396-.5674.1914-.3896.0898-.5811.1123v-1.8184c.5605-.1641,1.0894-.373,1.5859-.6289.4966-.2549.9458-.5352,1.3467-.8398h1.3057Z" fill="#2f2f2f"/>
      </g>
      <g>
        <path d="M38.783,76.6297h-1.1484v-9.8027h1.1484v9.8027Z" fill="#2f2f2f"/>
        <path d="M46.8577,76.6297h-1.1211v-3.9922c0-1.4863-.5425-2.2285-1.627-2.2285-.5605,0-1.0244.2109-1.3911.6328-.3667.4209-.5503.9531-.5503,1.5957v3.9922h-1.1211v-7h1.1211v1.1621h.0273c.5288-.8848,1.2944-1.3262,2.2969-1.3262.7656,0,1.3511.2471,1.7568.7422.4058.4941.6084,1.209.6084,2.1426v4.2793Z" fill="#2f2f2f"/>
        <path d="M48.5057,76.3768v-1.2031c.6108.4512,1.2827.6768,2.0166.6768.9844,0,1.4766-.3281,1.4766-.9844,0-.1875-.042-.3457-.1265-.4746-.0845-.1309-.1982-.2461-.3418-.3457s-.312-.1904-.5059-.2695c-.1938-.0801-.4023-.1641-.6255-.25-.3101-.123-.582-.2471-.8169-.373-.2349-.125-.4307-.2656-.5879-.4238-.1572-.1562-.2759-.3359-.3555-.5361s-.1196-.4346-.1196-.7041c0-.3281.0752-.6191.2256-.8711.1504-.2539.3511-.4648.6016-.6367.2505-.1699.5366-.2988.8579-.3857s.6528-.1299.9946-.1299c.606,0,1.1484.1055,1.627.3145v1.1348c-.5151-.3379-1.1074-.5059-1.7773-.5059-.2095,0-.3989.0234-.5674.0723-.1685.0469-.3135.1152-.4341.2012s-.2144.1904-.2803.3105c-.0659.1211-.0991.2539-.0991.4004,0,.1816.0332.335.0991.458s.1631.2324.2905.3281.2827.1826.4648.2598.3896.1611.6221.2529c.3101.1191.5879.2402.834.3652.2461.126.4556.2676.6289.4238.1733.1582.3066.3389.3999.5439s.1401.4482.1401.7314c0,.3457-.0762.6465-.229.9023s-.3564.4668-.6118.6357-.5493.2939-.8818.376-.6812.123-1.0459.123c-.7202,0-1.3442-.1387-1.873-.417Z" fill="#2f2f2f"/>
        <path d="M58.159,76.5613c-.2642.1465-.6128.2188-1.0459.2188-1.2261,0-1.8389-.6836-1.8389-2.0508v-4.1426h-1.2031v-.957h1.2031v-1.709l1.1211-.3623v2.0713h1.7637v.957h-1.7637v3.9443c0,.4697.0796.8037.2393,1.0049s.4238.3008.793.3008c.2827,0,.5264-.0781.7314-.2324v.957Z" fill="#2f2f2f"/>
        <path d="M64.7762,76.6297h-1.1211v-1.0938h-.0273c-.4878.8379-1.2056,1.2578-2.1533,1.2578-.6973,0-1.2432-.1846-1.6372-.5537s-.5913-.8584-.5913-1.4697c0-1.3086.77-2.0684,2.3105-2.2832l2.0986-.2939c0-1.1895-.481-1.7842-1.4424-1.7842-.8433,0-1.604.2871-2.2832.8613v-1.1484c.688-.4375,1.481-.6562,2.3789-.6562,1.645,0,2.4678.8711,2.4678,2.6113v4.5527ZM63.6551,73.0887l-1.6885.2324c-.5195.0723-.9116.2012-1.1758.3867-.2642.1836-.3965.5117-.3965.9805,0,.3418.1221.6211.3657.8379.2437.2158.5684.3242.9741.3242.5562,0,1.0151-.1953,1.3774-.584.3623-.3906.5435-.8828.5435-1.4805v-.6973Z" fill="#2f2f2f"/>
        <path d="M72.6082,76.6297h-1.1211v-3.9922c0-1.4863-.5425-2.2285-1.627-2.2285-.5605,0-1.0244.2109-1.3911.6328-.3667.4209-.5503.9531-.5503,1.5957v3.9922h-1.1211v-7h1.1211v1.1621h.0273c.5288-.8848,1.2944-1.3262,2.2969-1.3262.7656,0,1.3511.2471,1.7568.7422.4058.4941.6084,1.209.6084,2.1426v4.2793Z" fill="#2f2f2f"/>
        <path d="M79.4568,76.3084c-.5376.3232-1.1758.4854-1.9141.4854-.998,0-1.8037-.3242-2.4165-.9746-.6128-.6484-.9194-1.4902-.9194-2.5254,0-1.1523.3306-2.0791.9912-2.7793.6606-.6992,1.5425-1.0488,2.6455-1.0488.6152,0,1.1577.1133,1.627.3418v1.1484c-.5195-.3652-1.0757-.5469-1.668-.5469-.7153,0-1.3022.2559-1.7603.7695-.458.5117-.687,1.1855-.687,2.0195,0,.8203.2153,1.4668.646,1.9414s1.0083.7109,1.7329.7109c.6108,0,1.1851-.2031,1.7227-.6084v1.0664Z" fill="#2f2f2f"/>
        <path d="M86.6268,73.41h-4.9424c.0181.7793.228,1.3809.6289,1.8047s.9526.6357,1.6543.6357c.7886,0,1.5132-.2598,2.1738-.7793v1.0527c-.6152.4473-1.4287.6699-2.4404.6699-.9888,0-1.7661-.3184-2.3311-.9531-.5649-.6367-.8477-1.5312-.8477-2.6836,0-1.0898.3086-1.9766.9263-2.6621.6177-.6865,1.3843-1.0293,2.3003-1.0293s1.6245.2969,2.126.8887.752,1.415.752,2.4678v.5879ZM85.4783,72.4598c-.0044-.6465-.1606-1.1504-.4683-1.5107s-.7349-.54-1.2817-.54c-.5288,0-.9775.1895-1.3467.5674s-.5972.8721-.6836,1.4834h3.7803Z" fill="#2f2f2f"/>
      </g>
      <g>
        <path d="M135.2459,76.6297h-1.1484v-9.8027h1.1484v9.8027Z" fill="#2f2f2f"/>
        <path d="M143.3206,76.6297h-1.1211v-3.9922c0-1.4863-.5425-2.2285-1.627-2.2285-.5605,0-1.0244.2109-1.3911.6328-.3667.4209-.5503.9531-.5503,1.5957v3.9922h-1.1211v-7h1.1211v1.1621h.0273c.5288-.8848,1.2944-1.3262,2.2969-1.3262.7656,0,1.3511.2471,1.7568.7422.4058.4941.6084,1.209.6084,2.1426v4.2793Z" fill="#2f2f2f"/>
        <path d="M144.9686,76.3768v-1.2031c.6108.4512,1.2827.6768,2.0166.6768.9844,0,1.4766-.3281,1.4766-.9844,0-.1875-.042-.3457-.1265-.4746-.0845-.1309-.1982-.2461-.3418-.3457s-.312-.1904-.5059-.2695c-.1938-.0801-.4023-.1641-.6255-.25-.3101-.123-.582-.2471-.8169-.373-.2349-.125-.4307-.2656-.5879-.4238-.1572-.1562-.2759-.3359-.3555-.5361s-.1196-.4346-.1196-.7041c0-.3281.0752-.6191.2256-.8711.1504-.2539.3511-.4648.6016-.6367.2505-.1699.5366-.2988.8579-.3857s.6528-.1299.9946-.1299c.606,0,1.1484.1055,1.627.3145v1.1348c-.5151-.3379-1.1074-.5059-1.7773-.5059-.2095,0-.3989.0234-.5674.0723-.1685.0469-.3135.1152-.4341.2012s-.2144.1904-.2803.3105c-.0659.1211-.0991.2539-.0991.4004,0,.1816.0332.335.0991.458s.1631.2324.2905.3281.2827.1826.4648.2598.3896.1611.6221.2529c.3101.1191.5879.2402.834.3652.2461.126.4556.2676.6289.4238.1733.1582.3066.3389.3999.5439s.1401.4482.1401.7314c0,.3457-.0762.6465-.229.9023s-.3564.4668-.6118.6357-.5493.2939-.8818.376-.6812.123-1.0459.123c-.7202,0-1.3442-.1387-1.873-.417Z" fill="#2f2f2f"/>
        <path d="M154.6219,76.5613c-.2642.1465-.6128.2188-1.0459.2188-1.2261,0-1.8389-.6836-1.8389-2.0508v-4.1426h-1.2031v-.957h1.2031v-1.709l1.1211-.3623v2.0713h1.7637v.957h-1.7637v3.9443c0,.4697.0796.8037.2393,1.0049s.4238.3008.793.3008c.2827,0,.5264-.0781.7314-.2324v.957Z" fill="#2f2f2f"/>
        <path d="M161.2391,76.6297h-1.1211v-1.0938h-.0273c-.4878.8379-1.2056,1.2578-2.1533,1.2578-.6973,0-1.2432-.1846-1.6372-.5537s-.5913-.8584-.5913-1.4697c0-1.3086.77-2.0684,2.3105-2.2832l2.0986-.2939c0-1.1895-.481-1.7842-1.4424-1.7842-.8433,0-1.604.2871-2.2832.8613v-1.1484c.688-.4375,1.481-.6562,2.3789-.6562,1.645,0,2.4678.8711,2.4678,2.6113v4.5527ZM160.118,73.0887l-1.6885.2324c-.5195.0723-.9116.2012-1.1758.3867-.2642.1836-.3965.5117-.3965.9805,0,.3418.1221.6211.3657.8379.2437.2158.5684.3242.9741.3242.5562,0,1.0151-.1953,1.3774-.584.3623-.3906.5435-.8828.5435-1.4805v-.6973Z" fill="#2f2f2f"/>
        <path d="M169.0711,76.6297h-1.1211v-3.9922c0-1.4863-.5425-2.2285-1.627-2.2285-.5605,0-1.0244.2109-1.3911.6328-.3667.4209-.5503.9531-.5503,1.5957v3.9922h-1.1211v-7h1.1211v1.1621h.0273c.5288-.8848,1.2944-1.3262,2.2969-1.3262.7656,0,1.3511.2471,1.7568.7422.4058.4941.6084,1.209.6084,2.1426v4.2793Z" fill="#2f2f2f"/>
        <path d="M175.9197,76.3084c-.5376.3232-1.1758.4854-1.9141.4854-.998,0-1.8037-.3242-2.4165-.9746-.6128-.6484-.9194-1.4902-.9194-2.5254,0-1.1523.3306-2.0791.9912-2.7793.6606-.6992,1.5425-1.0488,2.6455-1.0488.6152,0,1.1577.1133,1.627.3418v1.1484c-.5195-.3652-1.0757-.5469-1.668-.5469-.7153,0-1.3022.2559-1.7603.7695-.458.5117-.687,1.1855-.687,2.0195,0,.8203.2153,1.4668.646,1.9414s1.0083.7109,1.7329.7109c.6108,0,1.1851-.2031,1.7227-.6084v1.0664Z" fill="#2f2f2f"/>
        <path d="M183.0896,73.41h-4.9424c.0181.7793.228,1.3809.6289,1.8047s.9526.6357,1.6543.6357c.7886,0,1.5132-.2598,2.1738-.7793v1.0527c-.6152.4473-1.4287.6699-2.4404.6699-.9888,0-1.7661-.3184-2.3311-.9531-.5649-.6367-.8477-1.5312-.8477-2.6836,0-1.0898.3086-1.9766.9263-2.6621.6177-.6865,1.3843-1.0293,2.3003-1.0293s1.6245.2969,2.126.8887.752,1.415.752,2.4678v.5879ZM181.9412,72.4598c-.0044-.6465-.1606-1.1504-.4683-1.5107s-.7349-.54-1.2817-.54c-.5288,0-.9775.1895-1.3467.5674s-.5972.8721-.6836,1.4834h3.7803Z" fill="#2f2f2f"/>
      </g>
      <g>
        <path d="M306.8685,32.6297h-7.8955v-1.2715l5.0244-6.7344h-4.6621v-1.7969h7.5195v1.2363l-4.915,6.7754h4.9287v1.791Z" fill="#2f2f2f"/>
        <path d="M311.4349,32.7996c-1.1665,0-2.084-.3262-2.7515-.9805s-1.0015-1.541-1.0015-2.6621c0-1.1582.3462-2.0645,1.0391-2.7178s1.6294-.9814,2.8096-.9814c1.1621,0,2.0737.3281,2.7344.9814s.9912,1.5186.9912,2.5947c0,1.1621-.3408,2.0801-1.022,2.7539-.6812.6748-1.6143,1.0117-2.7993,1.0117ZM311.4896,27.1121c-.5103,0-.9067.1758-1.1895.5273-.2827.3506-.4238.8477-.4238,1.4902,0,1.3438.5425,2.0156,1.627,2.0156,1.0347,0,1.5518-.6895,1.5518-2.0703,0-1.3086-.522-1.9629-1.5654-1.9629Z" fill="#2f2f2f"/>
        <path d="M323.4183,32.6297h-2.1533v-3.8906c0-1.084-.3872-1.627-1.1621-1.627-.3735,0-.6812.1445-.9229.4316s-.3623.6514-.3623,1.0938v3.9922h-2.1602v-7h2.1602v1.1074h.0273c.5151-.8525,1.2646-1.2793,2.249-1.2793,1.5493,0,2.3242.9619,2.3242,2.8848v4.2871Z" fill="#2f2f2f"/>
        <path d="M331.4163,29.7449h-4.5664c.0728,1.0156.7134,1.5234,1.9209,1.5234.77,0,1.4468-.1816,2.0303-.5469v1.5586c-.647.3467-1.4878.5195-2.5225.5195-1.1304,0-2.0073-.3125-2.6318-.9395s-.9365-1.5-.9365-2.6211c0-1.1621.3374-2.083,1.0117-2.7617.6743-.6797,1.5039-1.0195,2.4883-1.0195,1.021,0,1.8105.3037,2.3687.9102.5581.6055.8374,1.4277.8374,2.4668v.9102ZM329.4134,28.4188c0-1.0029-.4058-1.5039-1.2168-1.5039-.3462,0-.646.1426-.8989.4297s-.4067.6455-.4614,1.0742h2.5771Z" fill="#2f2f2f"/>
        <path d="M338.5872,30.8387h4.1562v1.791h-6.5215v-.7383c0-.502.0845-.9512.2529-1.3506s.3804-.7568.6357-1.0732.5342-.5977.8374-.8408.5913-.4639.8647-.6592c.2871-.2051.5391-.4014.7554-.5879.2163-.1875.3989-.373.5469-.5576s.2588-.3721.3315-.5605.1094-.3906.1094-.6045c0-.4199-.1187-.7363-.3555-.9512-.2368-.2139-.5991-.3203-1.0869-.3203-.8433,0-1.6499.334-2.4199,1.0039v-1.9004c.8521-.5508,1.814-.8262,2.8848-.8262.4966,0,.9424.0645,1.3364.1943s.728.3154,1.0015.5576c.2734.2412.4819.5332.6255.8779s.2153.7275.2153,1.1514c0,.4512-.0693.8525-.2085,1.2031-.1392.3516-.3237.6699-.5537.957s-.4956.5508-.7964.79-.6128.4707-.9365.6943c-.2188.1543-.4297.3086-.6323.4609s-.3818.3027-.5366.4512-.2778.293-.3691.4336c-.0913.1416-.1367.2764-.1367.4043Z" fill="#2f2f2f"/>
      </g>
      <g>
        <path d="M250.0545,76.6297h-1.1484v-9.8027h1.1484v9.8027Z" fill="#2f2f2f"/>
        <path d="M258.1292,76.6297h-1.1211v-3.9922c0-1.4863-.5425-2.2285-1.627-2.2285-.5605,0-1.0244.2109-1.3911.6328-.3667.4209-.5503.9531-.5503,1.5957v3.9922h-1.1211v-7h1.1211v1.1621h.0273c.5288-.8848,1.2944-1.3262,2.2969-1.3262.7656,0,1.3511.2471,1.7568.7422.4058.4941.6084,1.209.6084,2.1426v4.2793Z" fill="#2f2f2f"/>
        <path d="M259.7771,76.3768v-1.2031c.6108.4512,1.2827.6768,2.0166.6768.9844,0,1.4766-.3281,1.4766-.9844,0-.1875-.042-.3457-.1265-.4746-.0845-.1309-.1982-.2461-.3418-.3457s-.312-.1904-.5059-.2695c-.1938-.0801-.4023-.1641-.6255-.25-.3101-.123-.582-.2471-.8169-.373-.2349-.125-.4307-.2656-.5879-.4238-.1572-.1562-.2759-.3359-.3555-.5361s-.1196-.4346-.1196-.7041c0-.3281.0752-.6191.2256-.8711.1504-.2539.3511-.4648.6016-.6367.2505-.1699.5366-.2988.8579-.3857s.6528-.1299.9946-.1299c.606,0,1.1484.1055,1.627.3145v1.1348c-.5151-.3379-1.1074-.5059-1.7773-.5059-.2095,0-.3989.0234-.5674.0723-.1685.0469-.3135.1152-.4341.2012s-.2144.1904-.2803.3105c-.0659.1211-.0991.2539-.0991.4004,0,.1816.0332.335.0991.458s.1631.2324.2905.3281.2827.1826.4648.2598.3896.1611.6221.2529c.3101.1191.5879.2402.834.3652.2461.126.4556.2676.6289.4238.1733.1582.3066.3389.3999.5439s.1401.4482.1401.7314c0,.3457-.0762.6465-.229.9023s-.3564.4668-.6118.6357-.5493.2939-.8818.376-.6812.123-1.0459.123c-.7202,0-1.3442-.1387-1.873-.417Z" fill="#2f2f2f"/>
        <path d="M269.4305,76.5613c-.2642.1465-.6128.2188-1.0459.2188-1.2261,0-1.8389-.6836-1.8389-2.0508v-4.1426h-1.2031v-.957h1.2031v-1.709l1.1211-.3623v2.0713h1.7637v.957h-1.7637v3.9443c0,.4697.0796.8037.2393,1.0049s.4238.3008.793.3008c.2827,0,.5264-.0781.7314-.2324v.957Z" fill="#2f2f2f"/>
        <path d="M276.0477,76.6297h-1.1211v-1.0938h-.0273c-.4878.8379-1.2056,1.2578-2.1533,1.2578-.6973,0-1.2432-.1846-1.6372-.5537s-.5913-.8584-.5913-1.4697c0-1.3086.77-2.0684,2.3105-2.2832l2.0986-.2939c0-1.1895-.481-1.7842-1.4424-1.7842-.8433,0-1.604.2871-2.2832.8613v-1.1484c.688-.4375,1.481-.6562,2.3789-.6562,1.645,0,2.4678.8711,2.4678,2.6113v4.5527ZM274.9266,73.0887l-1.6885.2324c-.5195.0723-.9116.2012-1.1758.3867-.2642.1836-.3965.5117-.3965.9805,0,.3418.1221.6211.3657.8379.2437.2158.5684.3242.9741.3242.5562,0,1.0151-.1953,1.3774-.584.3623-.3906.5435-.8828.5435-1.4805v-.6973Z" fill="#2f2f2f"/>
        <path d="M283.8797,76.6297h-1.1211v-3.9922c0-1.4863-.5425-2.2285-1.627-2.2285-.5605,0-1.0244.2109-1.3911.6328-.3667.4209-.5503.9531-.5503,1.5957v3.9922h-1.1211v-7h1.1211v1.1621h.0273c.5288-.8848,1.2944-1.3262,2.2969-1.3262.7656,0,1.3511.2471,1.7568.7422.4058.4941.6084,1.209.6084,2.1426v4.2793Z" fill="#2f2f2f"/>
        <path d="M290.7283,76.3084c-.5376.3232-1.1758.4854-1.9141.4854-.998,0-1.8037-.3242-2.4165-.9746-.6128-.6484-.9194-1.4902-.9194-2.5254,0-1.1523.3306-2.0791.9912-2.7793.6606-.6992,1.5425-1.0488,2.6455-1.0488.6152,0,1.1577.1133,1.627.3418v1.1484c-.5195-.3652-1.0757-.5469-1.668-.5469-.7153,0-1.3022.2559-1.7603.7695-.458.5117-.687,1.1855-.687,2.0195,0,.8203.2153,1.4668.646,1.9414s1.0083.7109,1.7329.7109c.6108,0,1.1851-.2031,1.7227-.6084v1.0664Z" fill="#2f2f2f"/>
        <path d="M297.8982,73.41h-4.9424c.0181.7793.228,1.3809.6289,1.8047s.9526.6357,1.6543.6357c.7886,0,1.5132-.2598,2.1738-.7793v1.0527c-.6152.4473-1.4287.6699-2.4404.6699-.9888,0-1.7661-.3184-2.3311-.9531-.5649-.6367-.8477-1.5312-.8477-2.6836,0-1.0898.3086-1.9766.9263-2.6621.6177-.6865,1.3843-1.0293,2.3003-1.0293s1.6245.2969,2.126.8887.752,1.415.752,2.4678v.5879ZM296.7498,72.4598c-.0044-.6465-.1606-1.1504-.4683-1.5107s-.7349-.54-1.2817-.54c-.5288,0-.9775.1895-1.3467.5674s-.5972.8721-.6836,1.4834h3.7803Z" fill="#2f2f2f"/>
      </g>
      <g>
        <path d="M346.5174,76.6297h-1.1484v-9.8027h1.1484v9.8027Z" fill="#2f2f2f"/>
        <path d="M354.5921,76.6297h-1.1211v-3.9922c0-1.4863-.5425-2.2285-1.627-2.2285-.5605,0-1.0244.2109-1.3911.6328-.3667.4209-.5503.9531-.5503,1.5957v3.9922h-1.1211v-7h1.1211v1.1621h.0273c.5288-.8848,1.2944-1.3262,2.2969-1.3262.7656,0,1.3511.2471,1.7568.7422.4058.4941.6084,1.209.6084,2.1426v4.2793Z" fill="#2f2f2f"/>
        <path d="M356.24,76.3768v-1.2031c.6108.4512,1.2827.6768,2.0166.6768.9844,0,1.4766-.3281,1.4766-.9844,0-.1875-.042-.3457-.1265-.4746-.0845-.1309-.1982-.2461-.3418-.3457s-.312-.1904-.5059-.2695c-.1938-.0801-.4023-.1641-.6255-.25-.3101-.123-.582-.2471-.8169-.373-.2349-.125-.4307-.2656-.5879-.4238-.1572-.1562-.2759-.3359-.3555-.5361s-.1196-.4346-.1196-.7041c0-.3281.0752-.6191.2256-.8711.1504-.2539.3511-.4648.6016-.6367.2505-.1699.5366-.2988.8579-.3857s.6528-.1299.9946-.1299c.606,0,1.1484.1055,1.627.3145v1.1348c-.5151-.3379-1.1074-.5059-1.7773-.5059-.2095,0-.3989.0234-.5674.0723-.1685.0469-.3135.1152-.4341.2012s-.2144.1904-.2803.3105c-.0659.1211-.0991.2539-.0991.4004,0,.1816.0332.335.0991.458s.1631.2324.2905.3281.2827.1826.4648.2598.3896.1611.6221.2529c.3101.1191.5879.2402.834.3652.2461.126.4556.2676.6289.4238.1733.1582.3066.3389.3999.5439s.1401.4482.1401.7314c0,.3457-.0762.6465-.229.9023s-.3564.4668-.6118.6357-.5493.2939-.8818.376-.6812.123-1.0459.123c-.7202,0-1.3442-.1387-1.873-.417Z" fill="#2f2f2f"/>
        <path d="M365.8934,76.5613c-.2642.1465-.6128.2188-1.0459.2188-1.2261,0-1.8389-.6836-1.8389-2.0508v-4.1426h-1.2031v-.957h1.2031v-1.709l1.1211-.3623v2.0713h1.7637v.957h-1.7637v3.9443c0,.4697.0796.8037.2393,1.0049s.4238.3008.793.3008c.2827,0,.5264-.0781.7314-.2324v.957Z" fill="#2f2f2f"/>
        <path d="M372.5105,76.6297h-1.1211v-1.0938h-.0273c-.4878.8379-1.2056,1.2578-2.1533,1.2578-.6973,0-1.2432-.1846-1.6372-.5537s-.5913-.8584-.5913-1.4697c0-1.3086.77-2.0684,2.3105-2.2832l2.0986-.2939c0-1.1895-.481-1.7842-1.4424-1.7842-.8433,0-1.604.2871-2.2832.8613v-1.1484c.688-.4375,1.481-.6562,2.3789-.6562,1.645,0,2.4678.8711,2.4678,2.6113v4.5527ZM371.3895,73.0887l-1.6885.2324c-.5195.0723-.9116.2012-1.1758.3867-.2642.1836-.3965.5117-.3965.9805,0,.3418.1221.6211.3657.8379.2437.2158.5684.3242.9741.3242.5562,0,1.0151-.1953,1.3774-.584.3623-.3906.5435-.8828.5435-1.4805v-.6973Z" fill="#2f2f2f"/>
        <path d="M380.3426,76.6297h-1.1211v-3.9922c0-1.4863-.5425-2.2285-1.627-2.2285-.5605,0-1.0244.2109-1.3911.6328-.3667.4209-.5503.9531-.5503,1.5957v3.9922h-1.1211v-7h1.1211v1.1621h.0273c.5288-.8848,1.2944-1.3262,2.2969-1.3262.7656,0,1.3511.2471,1.7568.7422.4058.4941.6084,1.209.6084,2.1426v4.2793Z" fill="#2f2f2f"/>
        <path d="M387.1912,76.3084c-.5376.3232-1.1758.4854-1.9141.4854-.998,0-1.8037-.3242-2.4165-.9746-.6128-.6484-.9194-1.4902-.9194-2.5254,0-1.1523.3306-2.0791.9912-2.7793.6606-.6992,1.5425-1.0488,2.6455-1.0488.6152,0,1.1577.1133,1.627.3418v1.1484c-.5195-.3652-1.0757-.5469-1.668-.5469-.7153,0-1.3022.2559-1.7603.7695-.458.5117-.687,1.1855-.687,2.0195,0,.8203.2153,1.4668.646,1.9414s1.0083.7109,1.7329.7109c.6108,0,1.1851-.2031,1.7227-.6084v1.0664Z" fill="#2f2f2f"/>
        <path d="M394.3611,73.41h-4.9424c.0181.7793.228,1.3809.6289,1.8047s.9526.6357,1.6543.6357c.7886,0,1.5132-.2598,2.1738-.7793v1.0527c-.6152.4473-1.4287.6699-2.4404.6699-.9888,0-1.7661-.3184-2.3311-.9531-.5649-.6367-.8477-1.5312-.8477-2.6836,0-1.0898.3086-1.9766.9263-2.6621.6177-.6865,1.3843-1.0293,2.3003-1.0293s1.6245.2969,2.126.8887.752,1.415.752,2.4678v.5879ZM393.2127,72.4598c-.0044-.6465-.1606-1.1504-.4683-1.5107s-.7349-.54-1.2817-.54c-.5288,0-.9775.1895-1.3467.5674s-.5972.8721-.6836,1.4834h3.7803Z" fill="#2f2f2f"/>
      </g>
      <g>
        <path d="M518.0687,32.6297h-7.8955v-1.2715l5.0244-6.7344h-4.6621v-1.7969h7.5195v1.2363l-4.915,6.7754h4.9287v1.791Z" fill="#2f2f2f"/>
        <path d="M522.6351,32.7996c-1.1665,0-2.084-.3262-2.7515-.9805s-1.0015-1.541-1.0015-2.6621c0-1.1582.3462-2.0645,1.0391-2.7178s1.6294-.9814,2.8096-.9814c1.1621,0,2.0737.3281,2.7344.9814s.9912,1.5186.9912,2.5947c0,1.1621-.3408,2.0801-1.022,2.7539-.6812.6748-1.6143,1.0117-2.7993,1.0117ZM522.6897,27.1121c-.5103,0-.9067.1758-1.1895.5273-.2827.3506-.4238.8477-.4238,1.4902,0,1.3438.5425,2.0156,1.627,2.0156,1.0347,0,1.5518-.6895,1.5518-2.0703,0-1.3086-.522-1.9629-1.5654-1.9629Z" fill="#2f2f2f"/>
        <path d="M534.6185,32.6297h-2.1533v-3.8906c0-1.084-.3872-1.627-1.1621-1.627-.3735,0-.6812.1445-.9229.4316s-.3623.6514-.3623,1.0938v3.9922h-2.1602v-7h2.1602v1.1074h.0273c.5151-.8525,1.2646-1.2793,2.249-1.2793,1.5493,0,2.3242.9619,2.3242,2.8848v4.2871Z" fill="#2f2f2f"/>
        <path d="M542.6165,29.7449h-4.5664c.0728,1.0156.7134,1.5234,1.9209,1.5234.77,0,1.4468-.1816,2.0303-.5469v1.5586c-.647.3467-1.4878.5195-2.5225.5195-1.1304,0-2.0073-.3125-2.6318-.9395s-.9365-1.5-.9365-2.6211c0-1.1621.3374-2.083,1.0117-2.7617.6743-.6797,1.5039-1.0195,2.4883-1.0195,1.021,0,1.8105.3037,2.3687.9102.5581.6055.8374,1.4277.8374,2.4668v.9102ZM540.6136,28.4188c0-1.0029-.4058-1.5039-1.2168-1.5039-.3462,0-.646.1426-.8989.4297s-.4067.6455-.4614,1.0742h2.5771Z" fill="#2f2f2f"/>
        <path d="M547.6546,32.3074v-1.8789c.6562.4785,1.4219.7168,2.2969.7168.5513,0,.981-.1182,1.2886-.3555.3076-.2363.4614-.5664.4614-.9902,0-.4375-.1904-.7754-.5708-1.0117-.3804-.2373-.9033-.3555-1.5688-.3555h-.9092v-1.6543h.8408c1.2759,0,1.9141-.4238,1.9141-1.2715,0-.7979-.4897-1.1973-1.4697-1.1973-.6562,0-1.2944.2129-1.9141.6367v-1.7637c.688-.3467,1.4902-.5195,2.4062-.5195,1.0024,0,1.7832.2246,2.3413.6758s.8374,1.0371.8374,1.7578c0,1.2803-.6494,2.082-1.9482,2.4062v.0332c.6929.0869,1.2397.3389,1.6406.7559s.6016.9287.6016,1.5352c0,.916-.335,1.6406-1.0049,2.1738s-1.5952.7988-2.7754.7988c-1.0117,0-1.8345-.1641-2.4678-.4922Z" fill="#2f2f2f"/>
      </g>
      <g>
        <path d="M461.2542,76.6297h-1.1484v-9.8027h1.1484v9.8027Z" fill="#2f2f2f"/>
        <path d="M469.3289,76.6297h-1.1211v-3.9922c0-1.4863-.5425-2.2285-1.627-2.2285-.5605,0-1.0244.2109-1.3911.6328-.3667.4209-.5503.9531-.5503,1.5957v3.9922h-1.1211v-7h1.1211v1.1621h.0273c.5288-.8848,1.2944-1.3262,2.2969-1.3262.7656,0,1.3511.2471,1.7568.7422.4058.4941.6084,1.209.6084,2.1426v4.2793Z" fill="#2f2f2f"/>
        <path d="M470.9769,76.3768v-1.2031c.6108.4512,1.2827.6768,2.0166.6768.9844,0,1.4766-.3281,1.4766-.9844,0-.1875-.042-.3457-.1265-.4746-.0845-.1309-.1982-.2461-.3418-.3457s-.312-.1904-.5059-.2695c-.1938-.0801-.4023-.1641-.6255-.25-.3101-.123-.582-.2471-.8169-.373-.2349-.125-.4307-.2656-.5879-.4238-.1572-.1562-.2759-.3359-.3555-.5361s-.1196-.4346-.1196-.7041c0-.3281.0752-.6191.2256-.8711.1504-.2539.3511-.4648.6016-.6367.2505-.1699.5366-.2988.8579-.3857s.6528-.1299.9946-.1299c.606,0,1.1484.1055,1.627.3145v1.1348c-.5151-.3379-1.1074-.5059-1.7773-.5059-.2095,0-.3989.0234-.5674.0723-.1685.0469-.3135.1152-.4341.2012s-.2144.1904-.2803.3105c-.0659.1211-.0991.2539-.0991.4004,0,.1816.0332.335.0991.458s.1631.2324.2905.3281.2827.1826.4648.2598.3896.1611.6221.2529c.3101.1191.5879.2402.834.3652.2461.126.4556.2676.6289.4238.1733.1582.3066.3389.3999.5439s.1401.4482.1401.7314c0,.3457-.0762.6465-.229.9023s-.3564.4668-.6118.6357-.5493.2939-.8818.376-.6812.123-1.0459.123c-.7202,0-1.3442-.1387-1.873-.417Z" fill="#2f2f2f"/>
        <path d="M480.6302,76.5613c-.2642.1465-.6128.2188-1.0459.2188-1.2261,0-1.8389-.6836-1.8389-2.0508v-4.1426h-1.2031v-.957h1.2031v-1.709l1.1211-.3623v2.0713h1.7637v.957h-1.7637v3.9443c0,.4697.0796.8037.2393,1.0049s.4238.3008.793.3008c.2827,0,.5264-.0781.7314-.2324v.957Z" fill="#2f2f2f"/>
        <path d="M487.2474,76.6297h-1.1211v-1.0938h-.0273c-.4878.8379-1.2056,1.2578-2.1533,1.2578-.6973,0-1.2432-.1846-1.6372-.5537s-.5913-.8584-.5913-1.4697c0-1.3086.77-2.0684,2.3105-2.2832l2.0986-.2939c0-1.1895-.481-1.7842-1.4424-1.7842-.8433,0-1.604.2871-2.2832.8613v-1.1484c.688-.4375,1.481-.6562,2.3789-.6562,1.645,0,2.4678.8711,2.4678,2.6113v4.5527ZM486.1263,73.0887l-1.6885.2324c-.5195.0723-.9116.2012-1.1758.3867-.2642.1836-.3965.5117-.3965.9805,0,.3418.1221.6211.3657.8379.2437.2158.5684.3242.9741.3242.5562,0,1.0151-.1953,1.3774-.584.3623-.3906.5435-.8828.5435-1.4805v-.6973Z" fill="#2f2f2f"/>
        <path d="M495.0794,76.6297h-1.1211v-3.9922c0-1.4863-.5425-2.2285-1.627-2.2285-.5605,0-1.0244.2109-1.3911.6328-.3667.4209-.5503.9531-.5503,1.5957v3.9922h-1.1211v-7h1.1211v1.1621h.0273c.5288-.8848,1.2944-1.3262,2.2969-1.3262.7656,0,1.3511.2471,1.7568.7422.4058.4941.6084,1.209.6084,2.1426v4.2793Z" fill="#2f2f2f"/>
        <path d="M501.928,76.3084c-.5376.3232-1.1758.4854-1.9141.4854-.998,0-1.8037-.3242-2.4165-.9746-.6128-.6484-.9194-1.4902-.9194-2.5254,0-1.1523.3306-2.0791.9912-2.7793.6606-.6992,1.5425-1.0488,2.6455-1.0488.6152,0,1.1577.1133,1.627.3418v1.1484c-.5195-.3652-1.0757-.5469-1.668-.5469-.7153,0-1.3022.2559-1.7603.7695-.458.5117-.687,1.1855-.687,2.0195,0,.8203.2153,1.4668.646,1.9414s1.0083.7109,1.7329.7109c.6108,0,1.1851-.2031,1.7227-.6084v1.0664Z" fill="#2f2f2f"/>
        <path d="M509.0979,73.41h-4.9424c.0181.7793.228,1.3809.6289,1.8047s.9526.6357,1.6543.6357c.7886,0,1.5132-.2598,2.1738-.7793v1.0527c-.6152.4473-1.4287.6699-2.4404.6699-.9888,0-1.7661-.3184-2.3311-.9531-.5649-.6367-.8477-1.5312-.8477-2.6836,0-1.0898.3086-1.9766.9263-2.6621.6177-.6865,1.3843-1.0293,2.3003-1.0293s1.6245.2969,2.126.8887.752,1.415.752,2.4678v.5879ZM507.9495,72.4598c-.0044-.6465-.1606-1.1504-.4683-1.5107s-.7349-.54-1.2817-.54c-.5288,0-.9775.1895-1.3467.5674s-.5972.8721-.6836,1.4834h3.7803Z" fill="#2f2f2f"/>
      </g>
      <g>
        <path d="M38.783,118.7996h-1.1484v-9.8027h1.1484v9.8027Z" fill="#2f2f2f"/>
        <path d="M46.8577,118.7996h-1.1211v-3.9922c0-1.4854-.5425-2.2285-1.627-2.2285-.5605,0-1.0244.2109-1.3911.6328s-.5503.9531-.5503,1.5957v3.9922h-1.1211v-7h1.1211v1.1621h.0273c.5288-.8838,1.2944-1.3262,2.2969-1.3262.7656,0,1.3511.248,1.7568.7422s.6084,1.209.6084,2.1426v4.2793Z" fill="#2f2f2f"/>
        <path d="M48.5057,118.5477v-1.2031c.6108.4512,1.2827.6758,2.0166.6758.9844,0,1.4766-.3281,1.4766-.9844,0-.1865-.042-.3447-.1265-.4746s-.1982-.2451-.3418-.3457c-.1436-.0996-.312-.1895-.5059-.2695s-.4023-.1631-.6255-.25c-.3101-.123-.582-.2461-.8169-.3721s-.4307-.2666-.5879-.4238-.2759-.3359-.3555-.5361c-.0796-.2012-.1196-.4355-.1196-.7051,0-.3281.0752-.6182.2256-.8711s.3511-.4648.6016-.6357.5366-.2998.8579-.3857c.3213-.0869.6528-.1309.9946-.1309.606,0,1.1484.1055,1.627.3145v1.1348c-.5151-.3369-1.1074-.5059-1.7773-.5059-.2095,0-.3989.0244-.5674.0723s-.3135.1152-.4341.2012c-.1206.0869-.2144.1914-.2803.3115s-.0991.2539-.0991.3994c0,.1826.0332.3359.0991.459s.1631.2324.2905.3281.2827.1816.4648.2598c.1821.0771.3896.1611.6221.252.3101.1191.5879.2402.834.3662s.4556.2666.6289.4238.3066.3389.3999.5439.1401.4482.1401.7305c0,.3467-.0762.6475-.229.9023-.1528.2559-.3564.4678-.6118.6367-.2554.168-.5493.293-.8818.375s-.6812.123-1.0459.123c-.7202,0-1.3442-.1387-1.873-.416Z" fill="#2f2f2f"/>
        <path d="M58.159,118.7313c-.2642.1465-.6128.2188-1.0459.2188-1.2261,0-1.8389-.6836-1.8389-2.0508v-4.1426h-1.2031v-.957h1.2031v-1.709l1.1211-.3613v2.0703h1.7637v.957h-1.7637v3.9453c0,.4688.0796.8037.2393,1.0039.1597.2012.4238.3008.793.3008.2827,0,.5264-.0771.7314-.2324v.957Z" fill="#2f2f2f"/>
        <path d="M64.7762,118.7996h-1.1211v-1.0938h-.0273c-.4878.8389-1.2056,1.2578-2.1533,1.2578-.6973,0-1.2432-.1836-1.6372-.5527s-.5913-.8594-.5913-1.4707c0-1.3076.77-2.0684,2.3105-2.2832l2.0986-.293c0-1.1895-.481-1.7852-1.4424-1.7852-.8433,0-1.604.2871-2.2832.8613v-1.1484c.688-.4375,1.481-.6562,2.3789-.6562,1.645,0,2.4678.8711,2.4678,2.6113v4.5527ZM63.6551,115.2586l-1.6885.2324c-.5195.0732-.9116.2021-1.1758.3867s-.3965.5117-.3965.9805c0,.3418.1221.6211.3657.8379s.5684.3242.9741.3242c.5562,0,1.0151-.1943,1.3774-.584s.5435-.8828.5435-1.4805v-.6973Z" fill="#2f2f2f"/>
        <path d="M72.6082,118.7996h-1.1211v-3.9922c0-1.4854-.5425-2.2285-1.627-2.2285-.5605,0-1.0244.2109-1.3911.6328s-.5503.9531-.5503,1.5957v3.9922h-1.1211v-7h1.1211v1.1621h.0273c.5288-.8838,1.2944-1.3262,2.2969-1.3262.7656,0,1.3511.248,1.7568.7422s.6084,1.209.6084,2.1426v4.2793Z" fill="#2f2f2f"/>
        <path d="M79.4568,118.4793c-.5376.3232-1.1758.4844-1.9141.4844-.998,0-1.8037-.3242-2.4165-.9736s-.9194-1.4912-.9194-2.5264c0-1.1523.3306-2.0781.9912-2.7783s1.5425-1.0498,2.6455-1.0498c.6152,0,1.1577.1143,1.627.3418v1.1484c-.5195-.3643-1.0757-.5469-1.668-.5469-.7153,0-1.3022.2568-1.7603.7695s-.687,1.1855-.687,2.0195c0,.8203.2153,1.4678.646,1.9414.4307.4746,1.0083.7109,1.7329.7109.6108,0,1.1851-.2021,1.7227-.6074v1.0664Z" fill="#2f2f2f"/>
        <path d="M86.6268,115.5809h-4.9424c.0181.7793.228,1.3809.6289,1.8047s.9526.6348,1.6543.6348c.7886,0,1.5132-.2598,2.1738-.7793v1.0527c-.6152.4473-1.4287.6699-2.4404.6699-.9888,0-1.7661-.3174-2.3311-.9531s-.8477-1.5303-.8477-2.6836c0-1.0889.3086-1.9766.9263-2.6621s1.3843-1.0293,2.3003-1.0293,1.6245.2969,2.126.8887c.5015.5928.752,1.416.752,2.4688v.5879ZM85.4783,114.6297c-.0044-.6465-.1606-1.1504-.4683-1.5098-.3076-.3604-.7349-.541-1.2817-.541-.5288,0-.9775.1895-1.3467.5684-.3691.3779-.5972.8721-.6836,1.4824h3.7803Z" fill="#2f2f2f"/>
      </g>
      <g>
        <path d="M250.0545,118.7996h-1.1484v-9.8027h1.1484v9.8027Z" fill="#2f2f2f"/>
        <path d="M258.1292,118.7996h-1.1211v-3.9922c0-1.4854-.5425-2.2285-1.627-2.2285-.5605,0-1.0244.2109-1.3911.6328s-.5503.9531-.5503,1.5957v3.9922h-1.1211v-7h1.1211v1.1621h.0273c.5288-.8838,1.2944-1.3262,2.2969-1.3262.7656,0,1.3511.248,1.7568.7422s.6084,1.209.6084,2.1426v4.2793Z" fill="#2f2f2f"/>
        <path d="M259.7771,118.5477v-1.2031c.6108.4512,1.2827.6758,2.0166.6758.9844,0,1.4766-.3281,1.4766-.9844,0-.1865-.042-.3447-.1265-.4746s-.1982-.2451-.3418-.3457c-.1436-.0996-.312-.1895-.5059-.2695s-.4023-.1631-.6255-.25c-.3101-.123-.582-.2461-.8169-.3721s-.4307-.2666-.5879-.4238-.2759-.3359-.3555-.5361c-.0796-.2012-.1196-.4355-.1196-.7051,0-.3281.0752-.6182.2256-.8711s.3511-.4648.6016-.6357.5366-.2998.8579-.3857c.3213-.0869.6528-.1309.9946-.1309.606,0,1.1484.1055,1.627.3145v1.1348c-.5151-.3369-1.1074-.5059-1.7773-.5059-.2095,0-.3989.0244-.5674.0723s-.3135.1152-.4341.2012c-.1206.0869-.2144.1914-.2803.3115s-.0991.2539-.0991.3994c0,.1826.0332.3359.0991.459s.1631.2324.2905.3281.2827.1816.4648.2598c.1821.0771.3896.1611.6221.252.3101.1191.5879.2402.834.3662s.4556.2666.6289.4238.3066.3389.3999.5439.1401.4482.1401.7305c0,.3467-.0762.6475-.229.9023-.1528.2559-.3564.4678-.6118.6367-.2554.168-.5493.293-.8818.375s-.6812.123-1.0459.123c-.7202,0-1.3442-.1387-1.873-.416Z" fill="#2f2f2f"/>
        <path d="M269.4305,118.7313c-.2642.1465-.6128.2188-1.0459.2188-1.2261,0-1.8389-.6836-1.8389-2.0508v-4.1426h-1.2031v-.957h1.2031v-1.709l1.1211-.3613v2.0703h1.7637v.957h-1.7637v3.9453c0,.4688.0796.8037.2393,1.0039.1597.2012.4238.3008.793.3008.2827,0,.5264-.0771.7314-.2324v.957Z" fill="#2f2f2f"/>
        <path d="M276.0477,118.7996h-1.1211v-1.0938h-.0273c-.4878.8389-1.2056,1.2578-2.1533,1.2578-.6973,0-1.2432-.1836-1.6372-.5527s-.5913-.8594-.5913-1.4707c0-1.3076.77-2.0684,2.3105-2.2832l2.0986-.293c0-1.1895-.481-1.7852-1.4424-1.7852-.8433,0-1.604.2871-2.2832.8613v-1.1484c.688-.4375,1.481-.6562,2.3789-.6562,1.645,0,2.4678.8711,2.4678,2.6113v4.5527ZM274.9266,115.2586l-1.6885.2324c-.5195.0732-.9116.2021-1.1758.3867s-.3965.5117-.3965.9805c0,.3418.1221.6211.3657.8379s.5684.3242.9741.3242c.5562,0,1.0151-.1943,1.3774-.584s.5435-.8828.5435-1.4805v-.6973Z" fill="#2f2f2f"/>
        <path d="M283.8797,118.7996h-1.1211v-3.9922c0-1.4854-.5425-2.2285-1.627-2.2285-.5605,0-1.0244.2109-1.3911.6328s-.5503.9531-.5503,1.5957v3.9922h-1.1211v-7h1.1211v1.1621h.0273c.5288-.8838,1.2944-1.3262,2.2969-1.3262.7656,0,1.3511.248,1.7568.7422s.6084,1.209.6084,2.1426v4.2793Z" fill="#2f2f2f"/>
        <path d="M290.7283,118.4793c-.5376.3232-1.1758.4844-1.9141.4844-.998,0-1.8037-.3242-2.4165-.9736s-.9194-1.4912-.9194-2.5264c0-1.1523.3306-2.0781.9912-2.7783s1.5425-1.0498,2.6455-1.0498c.6152,0,1.1577.1143,1.627.3418v1.1484c-.5195-.3643-1.0757-.5469-1.668-.5469-.7153,0-1.3022.2568-1.7603.7695s-.687,1.1855-.687,2.0195c0,.8203.2153,1.4678.646,1.9414.4307.4746,1.0083.7109,1.7329.7109.6108,0,1.1851-.2021,1.7227-.6074v1.0664Z" fill="#2f2f2f"/>
        <path d="M297.8982,115.5809h-4.9424c.0181.7793.228,1.3809.6289,1.8047s.9526.6348,1.6543.6348c.7886,0,1.5132-.2598,2.1738-.7793v1.0527c-.6152.4473-1.4287.6699-2.4404.6699-.9888,0-1.7661-.3174-2.3311-.9531s-.8477-1.5303-.8477-2.6836c0-1.0889.3086-1.9766.9263-2.6621s1.3843-1.0293,2.3003-1.0293,1.6245.2969,2.126.8887c.5015.5928.752,1.416.752,2.4688v.5879ZM296.7498,114.6297c-.0044-.6465-.1606-1.1504-.4683-1.5098-.3076-.3604-.7349-.541-1.2817-.541-.5288,0-.9775.1895-1.3467.5684-.3691.3779-.5972.8721-.6836,1.4824h3.7803Z" fill="#2f2f2f"/>
      </g>
      <g>
        <path d="M461.2542,118.7996h-1.1484v-9.8027h1.1484v9.8027Z" fill="#2f2f2f"/>
        <path d="M469.3289,118.7996h-1.1211v-3.9922c0-1.4854-.5425-2.2285-1.627-2.2285-.5605,0-1.0244.2109-1.3911.6328s-.5503.9531-.5503,1.5957v3.9922h-1.1211v-7h1.1211v1.1621h.0273c.5288-.8838,1.2944-1.3262,2.2969-1.3262.7656,0,1.3511.248,1.7568.7422s.6084,1.209.6084,2.1426v4.2793Z" fill="#2f2f2f"/>
        <path d="M470.9769,118.5477v-1.2031c.6108.4512,1.2827.6758,2.0166.6758.9844,0,1.4766-.3281,1.4766-.9844,0-.1865-.042-.3447-.1265-.4746s-.1982-.2451-.3418-.3457c-.1436-.0996-.312-.1895-.5059-.2695s-.4023-.1631-.6255-.25c-.3101-.123-.582-.2461-.8169-.3721s-.4307-.2666-.5879-.4238-.2759-.3359-.3555-.5361c-.0796-.2012-.1196-.4355-.1196-.7051,0-.3281.0752-.6182.2256-.8711s.3511-.4648.6016-.6357.5366-.2998.8579-.3857c.3213-.0869.6528-.1309.9946-.1309.606,0,1.1484.1055,1.627.3145v1.1348c-.5151-.3369-1.1074-.5059-1.7773-.5059-.2095,0-.3989.0244-.5674.0723s-.3135.1152-.4341.2012c-.1206.0869-.2144.1914-.2803.3115s-.0991.2539-.0991.3994c0,.1826.0332.3359.0991.459s.1631.2324.2905.3281.2827.1816.4648.2598c.1821.0771.3896.1611.6221.252.3101.1191.5879.2402.834.3662s.4556.2666.6289.4238.3066.3389.3999.5439.1401.4482.1401.7305c0,.3467-.0762.6475-.229.9023-.1528.2559-.3564.4678-.6118.6367-.2554.168-.5493.293-.8818.375s-.6812.123-1.0459.123c-.7202,0-1.3442-.1387-1.873-.416Z" fill="#2f2f2f"/>
        <path d="M480.6302,118.7313c-.2642.1465-.6128.2188-1.0459.2188-1.2261,0-1.8389-.6836-1.8389-2.0508v-4.1426h-1.2031v-.957h1.2031v-1.709l1.1211-.3613v2.0703h1.7637v.957h-1.7637v3.9453c0,.4688.0796.8037.2393,1.0039.1597.2012.4238.3008.793.3008.2827,0,.5264-.0771.7314-.2324v.957Z" fill="#2f2f2f"/>
        <path d="M487.2474,118.7996h-1.1211v-1.0938h-.0273c-.4878.8389-1.2056,1.2578-2.1533,1.2578-.6973,0-1.2432-.1836-1.6372-.5527s-.5913-.8594-.5913-1.4707c0-1.3076.77-2.0684,2.3105-2.2832l2.0986-.293c0-1.1895-.481-1.7852-1.4424-1.7852-.8433,0-1.604.2871-2.2832.8613v-1.1484c.688-.4375,1.481-.6562,2.3789-.6562,1.645,0,2.4678.8711,2.4678,2.6113v4.5527ZM486.1263,115.2586l-1.6885.2324c-.5195.0732-.9116.2021-1.1758.3867s-.3965.5117-.3965.9805c0,.3418.1221.6211.3657.8379s.5684.3242.9741.3242c.5562,0,1.0151-.1943,1.3774-.584s.5435-.8828.5435-1.4805v-.6973Z" fill="#2f2f2f"/>
        <path d="M495.0794,118.7996h-1.1211v-3.9922c0-1.4854-.5425-2.2285-1.627-2.2285-.5605,0-1.0244.2109-1.3911.6328s-.5503.9531-.5503,1.5957v3.9922h-1.1211v-7h1.1211v1.1621h.0273c.5288-.8838,1.2944-1.3262,2.2969-1.3262.7656,0,1.3511.248,1.7568.7422s.6084,1.209.6084,2.1426v4.2793Z" fill="#2f2f2f"/>
        <path d="M501.928,118.4793c-.5376.3232-1.1758.4844-1.9141.4844-.998,0-1.8037-.3242-2.4165-.9736s-.9194-1.4912-.9194-2.5264c0-1.1523.3306-2.0781.9912-2.7783s1.5425-1.0498,2.6455-1.0498c.6152,0,1.1577.1143,1.627.3418v1.1484c-.5195-.3643-1.0757-.5469-1.668-.5469-.7153,0-1.3022.2568-1.7603.7695s-.687,1.1855-.687,2.0195c0,.8203.2153,1.4678.646,1.9414.4307.4746,1.0083.7109,1.7329.7109.6108,0,1.1851-.2021,1.7227-.6074v1.0664Z" fill="#2f2f2f"/>
        <path d="M509.0979,115.5809h-4.9424c.0181.7793.228,1.3809.6289,1.8047s.9526.6348,1.6543.6348c.7886,0,1.5132-.2598,2.1738-.7793v1.0527c-.6152.4473-1.4287.6699-2.4404.6699-.9888,0-1.7661-.3174-2.3311-.9531s-.8477-1.5303-.8477-2.6836c0-1.0889.3086-1.9766.9263-2.6621s1.3843-1.0293,2.3003-1.0293,1.6245.2969,2.126.8887c.5015.5928.752,1.416.752,2.4688v.5879ZM507.9495,114.6297c-.0044-.6465-.1606-1.1504-.4683-1.5098-.3076-.3604-.7349-.541-1.2817-.541-.5288,0-.9775.1895-1.3467.5684-.3691.3779-.5972.8721-.6836,1.4824h3.7803Z" fill="#2f2f2f"/>
      </g>
      <g>
        <path d="M557.7171,76.6297h-1.1484v-9.8027h1.1484v9.8027Z" fill="#2f2f2f"/>
        <path d="M565.7918,76.6297h-1.1211v-3.9922c0-1.4863-.5425-2.2285-1.627-2.2285-.5605,0-1.0244.2109-1.3911.6328-.3667.4209-.5503.9531-.5503,1.5957v3.9922h-1.1211v-7h1.1211v1.1621h.0273c.5288-.8848,1.2944-1.3262,2.2969-1.3262.7656,0,1.3511.2471,1.7568.7422.4058.4941.6084,1.209.6084,2.1426v4.2793Z" fill="#2f2f2f"/>
        <path d="M567.4397,76.3768v-1.2031c.6108.4512,1.2827.6768,2.0166.6768.9844,0,1.4766-.3281,1.4766-.9844,0-.1875-.042-.3457-.1265-.4746-.0845-.1309-.1982-.2461-.3418-.3457s-.312-.1904-.5059-.2695c-.1938-.0801-.4023-.1641-.6255-.25-.3101-.123-.582-.2471-.8169-.373-.2349-.125-.4307-.2656-.5879-.4238-.1572-.1562-.2759-.3359-.3555-.5361s-.1196-.4346-.1196-.7041c0-.3281.0752-.6191.2256-.8711.1504-.2539.3511-.4648.6016-.6367.2505-.1699.5366-.2988.8579-.3857s.6528-.1299.9946-.1299c.606,0,1.1484.1055,1.627.3145v1.1348c-.5151-.3379-1.1074-.5059-1.7773-.5059-.2095,0-.3989.0234-.5674.0723-.1685.0469-.3135.1152-.4341.2012s-.2144.1904-.2803.3105c-.0659.1211-.0991.2539-.0991.4004,0,.1816.0332.335.0991.458s.1631.2324.2905.3281.2827.1826.4648.2598.3896.1611.6221.2529c.3101.1191.5879.2402.834.3652.2461.126.4556.2676.6289.4238.1733.1582.3066.3389.3999.5439s.1401.4482.1401.7314c0,.3457-.0762.6465-.229.9023s-.3564.4668-.6118.6357-.5493.2939-.8818.376-.6812.123-1.0459.123c-.7202,0-1.3442-.1387-1.873-.417Z" fill="#2f2f2f"/>
        <path d="M577.0931,76.5613c-.2642.1465-.6128.2188-1.0459.2188-1.2261,0-1.8389-.6836-1.8389-2.0508v-4.1426h-1.2031v-.957h1.2031v-1.709l1.1211-.3623v2.0713h1.7637v.957h-1.7637v3.9443c0,.4697.0796.8037.2393,1.0049s.4238.3008.793.3008c.2827,0,.5264-.0781.7314-.2324v.957Z" fill="#2f2f2f"/>
        <path d="M583.7103,76.6297h-1.1211v-1.0938h-.0273c-.4878.8379-1.2056,1.2578-2.1533,1.2578-.6973,0-1.2432-.1846-1.6372-.5537s-.5913-.8584-.5913-1.4697c0-1.3086.77-2.0684,2.3105-2.2832l2.0986-.2939c0-1.1895-.481-1.7842-1.4424-1.7842-.8433,0-1.604.2871-2.2832.8613v-1.1484c.688-.4375,1.481-.6562,2.3789-.6562,1.645,0,2.4678.8711,2.4678,2.6113v4.5527ZM582.5892,73.0887l-1.6885.2324c-.5195.0723-.9116.2012-1.1758.3867-.2642.1836-.3965.5117-.3965.9805,0,.3418.1221.6211.3657.8379.2437.2158.5684.3242.9741.3242.5562,0,1.0151-.1953,1.3774-.584.3623-.3906.5435-.8828.5435-1.4805v-.6973Z" fill="#2f2f2f"/>
        <path d="M591.5423,76.6297h-1.1211v-3.9922c0-1.4863-.5425-2.2285-1.627-2.2285-.5605,0-1.0244.2109-1.3911.6328-.3667.4209-.5503.9531-.5503,1.5957v3.9922h-1.1211v-7h1.1211v1.1621h.0273c.5288-.8848,1.2944-1.3262,2.2969-1.3262.7656,0,1.3511.2471,1.7568.7422.4058.4941.6084,1.209.6084,2.1426v4.2793Z" fill="#2f2f2f"/>
        <path d="M598.3909,76.3084c-.5376.3232-1.1758.4854-1.9141.4854-.998,0-1.8037-.3242-2.4165-.9746-.6128-.6484-.9194-1.4902-.9194-2.5254,0-1.1523.3306-2.0791.9912-2.7793.6606-.6992,1.5425-1.0488,2.6455-1.0488.6152,0,1.1577.1133,1.627.3418v1.1484c-.5195-.3652-1.0757-.5469-1.668-.5469-.7153,0-1.3022.2559-1.7603.7695-.458.5117-.687,1.1855-.687,2.0195,0,.8203.2153,1.4668.646,1.9414s1.0083.7109,1.7329.7109c.6108,0,1.1851-.2031,1.7227-.6084v1.0664Z" fill="#2f2f2f"/>
        <path d="M605.5608,73.41h-4.9424c.0181.7793.228,1.3809.6289,1.8047s.9526.6357,1.6543.6357c.7886,0,1.5132-.2598,2.1738-.7793v1.0527c-.6152.4473-1.4287.6699-2.4404.6699-.9888,0-1.7661-.3184-2.3311-.9531-.5649-.6367-.8477-1.5312-.8477-2.6836,0-1.0898.3086-1.9766.9263-2.6621.6177-.6865,1.3843-1.0293,2.3003-1.0293s1.6245.2969,2.126.8887.752,1.415.752,2.4678v.5879ZM604.4124,72.4598c-.0044-.6465-.1606-1.1504-.4683-1.5107s-.7349-.54-1.2817-.54c-.5288,0-.9775.1895-1.3467.5674s-.5972.8721-.6836,1.4834h3.7803Z" fill="#2f2f2f"/>
      </g>
      <g>
        <path d="M39.5174,147.2h-5.1953v-9.8027h4.9766v1.0391h-3.8281v3.2607h3.541v1.0322h-3.541v3.4316h4.0469v1.0391Z" fill="#2f2f2f"/>
        <path d="M46.6092,140.2l-2.3516,3.541,2.3105,3.459h-1.3057l-1.374-2.2695c-.0864-.1406-.189-.3184-.3076-.5332h-.0273c-.0229.041-.1299.2188-.3213.5332l-1.4014,2.2695h-1.292l2.3857-3.4316-2.2832-3.5684h1.3057l1.3535,2.3926c.1001.1777.1982.3594.2939.5469h.0273l1.75-2.9395h1.2373Z" fill="#2f2f2f"/>
        <path d="M51.5789,147.1316c-.2642.1465-.6128.2188-1.0459.2188-1.2261,0-1.8389-.6836-1.8389-2.0508v-4.1426h-1.2031v-.957h1.2031v-1.709l1.1211-.3623v2.0713h1.7637v.957h-1.7637v3.9443c0,.4697.0796.8037.2393,1.0049s.4238.3008.793.3008c.2827,0,.5264-.0781.7314-.2324v.957Z" fill="#2f2f2f"/>
        <path d="M56.6102,141.3348c-.1958-.1504-.4785-.2256-.8477-.2256-.4785,0-.8784.2256-1.1997.6768s-.4819,1.0664-.4819,1.8457v3.5684h-1.1211v-7h1.1211v1.4424h.0273c.1597-.4922.4033-.876.7314-1.1514.3281-.2764.6948-.4141,1.1006-.4141.2915,0,.5151.0312.6699.0957v1.1621Z" fill="#2f2f2f"/>
        <path d="M62.7859,147.2h-1.1211v-1.0938h-.0273c-.4878.8379-1.2056,1.2578-2.1533,1.2578-.6973,0-1.2432-.1846-1.6372-.5537s-.5913-.8584-.5913-1.4697c0-1.3086.77-2.0684,2.3105-2.2832l2.0986-.2939c0-1.1895-.481-1.7842-1.4424-1.7842-.8433,0-1.604.2871-2.2832.8613v-1.1484c.688-.4375,1.481-.6562,2.3789-.6562,1.645,0,2.4678.8711,2.4678,2.6113v4.5527ZM61.6648,143.659l-1.6885.2324c-.5195.0723-.9116.2012-1.1758.3867-.2642.1836-.3965.5117-.3965.9805,0,.3418.1221.6211.3657.8379.2437.2158.5684.3242.9741.3242.5562,0,1.0151-.1953,1.3774-.584.3623-.3906.5435-.8828.5435-1.4805v-.6973Z" fill="#2f2f2f"/>
      </g>
      <g>
        <path d="M250.7171,147.2h-5.1953v-9.8027h4.9766v1.0391h-3.8281v3.2607h3.541v1.0322h-3.541v3.4316h4.0469v1.0391Z" fill="#2f2f2f"/>
        <path d="M257.8089,140.2l-2.3516,3.541,2.3105,3.459h-1.3057l-1.374-2.2695c-.0864-.1406-.189-.3184-.3076-.5332h-.0273c-.0229.041-.1299.2188-.3213.5332l-1.4014,2.2695h-1.292l2.3857-3.4316-2.2832-3.5684h1.3057l1.3535,2.3926c.1001.1777.1982.3594.2939.5469h.0273l1.75-2.9395h1.2373Z" fill="#2f2f2f"/>
        <path d="M262.7786,147.1316c-.2642.1465-.6128.2188-1.0459.2188-1.2261,0-1.8389-.6836-1.8389-2.0508v-4.1426h-1.2031v-.957h1.2031v-1.709l1.1211-.3623v2.0713h1.7637v.957h-1.7637v3.9443c0,.4697.0796.8037.2393,1.0049s.4238.3008.793.3008c.2827,0,.5264-.0781.7314-.2324v.957Z" fill="#2f2f2f"/>
        <path d="M267.8099,141.3348c-.1958-.1504-.4785-.2256-.8477-.2256-.4785,0-.8784.2256-1.1997.6768s-.4819,1.0664-.4819,1.8457v3.5684h-1.1211v-7h1.1211v1.4424h.0273c.1597-.4922.4033-.876.7314-1.1514.3281-.2764.6948-.4141,1.1006-.4141.2915,0,.5151.0312.6699.0957v1.1621Z" fill="#2f2f2f"/>
        <path d="M273.9856,147.2h-1.1211v-1.0938h-.0273c-.4878.8379-1.2056,1.2578-2.1533,1.2578-.6973,0-1.2432-.1846-1.6372-.5537s-.5913-.8584-.5913-1.4697c0-1.3086.77-2.0684,2.3105-2.2832l2.0986-.2939c0-1.1895-.481-1.7842-1.4424-1.7842-.8433,0-1.604.2871-2.2832.8613v-1.1484c.688-.4375,1.481-.6562,2.3789-.6562,1.645,0,2.4678.8711,2.4678,2.6113v4.5527ZM272.8646,143.659l-1.6885.2324c-.5195.0723-.9116.2012-1.1758.3867-.2642.1836-.3965.5117-.3965.9805,0,.3418.1221.6211.3657.8379.2437.2158.5684.3242.9741.3242.5562,0,1.0151-.1953,1.3774-.584.3623-.3906.5435-.8828.5435-1.4805v-.6973Z" fill="#2f2f2f"/>
      </g>
      <g>
        <path d="M461.9173,147.2h-5.1953v-9.8027h4.9766v1.0391h-3.8281v3.2607h3.541v1.0322h-3.541v3.4316h4.0469v1.0391Z" fill="#2f2f2f"/>
        <path d="M469.0091,140.2l-2.3516,3.541,2.3105,3.459h-1.3057l-1.374-2.2695c-.0864-.1406-.189-.3184-.3076-.5332h-.0273c-.0229.041-.1299.2188-.3213.5332l-1.4014,2.2695h-1.292l2.3857-3.4316-2.2832-3.5684h1.3057l1.3535,2.3926c.1001.1777.1982.3594.2939.5469h.0273l1.75-2.9395h1.2373Z" fill="#2f2f2f"/>
        <path d="M473.9788,147.1316c-.2642.1465-.6128.2188-1.0459.2188-1.2261,0-1.8389-.6836-1.8389-2.0508v-4.1426h-1.2031v-.957h1.2031v-1.709l1.1211-.3623v2.0713h1.7637v.957h-1.7637v3.9443c0,.4697.0796.8037.2393,1.0049s.4238.3008.793.3008c.2827,0,.5264-.0781.7314-.2324v.957Z" fill="#2f2f2f"/>
        <path d="M479.0101,141.3348c-.1958-.1504-.4785-.2256-.8477-.2256-.4785,0-.8784.2256-1.1997.6768s-.4819,1.0664-.4819,1.8457v3.5684h-1.1211v-7h1.1211v1.4424h.0273c.1597-.4922.4033-.876.7314-1.1514.3281-.2764.6948-.4141,1.1006-.4141.2915,0,.5151.0312.6699.0957v1.1621Z" fill="#2f2f2f"/>
        <path d="M485.1858,147.2h-1.1211v-1.0938h-.0273c-.4878.8379-1.2056,1.2578-2.1533,1.2578-.6973,0-1.2432-.1846-1.6372-.5537s-.5913-.8584-.5913-1.4697c0-1.3086.77-2.0684,2.3105-2.2832l2.0986-.2939c0-1.1895-.481-1.7842-1.4424-1.7842-.8433,0-1.604.2871-2.2832.8613v-1.1484c.688-.4375,1.481-.6562,2.3789-.6562,1.645,0,2.4678.8711,2.4678,2.6113v4.5527ZM484.0647,143.659l-1.6885.2324c-.5195.0723-.9116.2012-1.1758.3867-.2642.1836-.3965.5117-.3965.9805,0,.3418.1221.6211.3657.8379.2437.2158.5684.3242.9741.3242.5562,0,1.0151-.1953,1.3774-.584.3623-.3906.5435-.8828.5435-1.4805v-.6973Z" fill="#2f2f2f"/>
      </g>
    </g>
  </g>
</svg>