<?xml version="1.0" encoding="UTF-8"?>
<svg xmlns="http://www.w3.org/2000/svg" xmlns:xlink="http://www.w3.org/1999/xlink" viewBox="0 0 369.6 156.2">
  <defs>
    <symbol id="Failed" viewBox="0 0 22 22">
      <g>
        <circle cx="11" cy="11" r="11" fill="#a4262c"/>
        <path d="M17.4543,6.501l-1.9552-1.9553-4.499,4.499-4.499-4.499-1.9553,1.9553,4.499,4.499-4.499,4.499,1.9553,1.9552,4.499-4.499,4.499,4.499,1.9552-1.9552-4.499-4.499,4.499-4.499Z" fill="#fff"/>
      </g>
    </symbol>
    <linearGradient id="linear-gradient" x1="-376.9203" y1="-3339.2803" x2="-376.9203" y2="-3304.5029" gradientTransform="translate(564 -3270.8) scale(1 -1)" gradientUnits="userSpaceOnUse">
      <stop offset="0" stop-color="#5e9624"/>
      <stop offset=".02" stop-color="#5f9724"/>
      <stop offset="1" stop-color="#76bc2d"/>
    </linearGradient>
  </defs>
  <g id="Shapes">
    <rect width="369.6" height="156.2" fill="#fff"/>
    <g>
      <rect x="13.2" y="109.9" width="110" height="35.2" fill="#fff"/>
      <rect x="13.2" y="109.9" width="110" height="35.2" fill="#f5f3f2" opacity=".8"/>
      <rect x="13.2" y="109.9" width="110" height="35.2" fill="none" stroke="#9d9f9f" stroke-width=".25"/>
    </g>
    <rect x="132.0797" y="109.9" width="110" height="35.2" fill="rgba(240, 64, 73, .1)" stroke="#ef404a" stroke-width=".25"/>
    <g>
      <rect x="250.8" y="109.9" width="110" height="35.2" fill="#fff"/>
      <rect x="250.8" y="109.9" width="110" height="35.2" fill="#f5f3f2" opacity=".8"/>
      <rect x="250.8" y="109.9" width="110" height="35.2" fill="none" stroke="#9d9f9f" stroke-width=".25"/>
    </g>
    <g>
      <path d="M68.5149,104.5177v-42.4177c0-2.75,2.25-5,5-5h227.1297c2.75,0,5,2.25,5,5v42.4177" fill="none" stroke="#3c3c41" stroke-miterlimit="10"/>
      <polygon points="72.2546 103.4235 68.5149 109.8998 64.7751 103.4235 72.2546 103.4235" fill="#3c3c41"/>
      <polygon points="301.9049 103.4235 305.6446 109.8998 309.3844 103.4235 301.9049 103.4235" fill="#3c3c41"/>
    </g>
    <g>
      <path d="M172.3822,49.6835l13.981-13.981c.3851-.3957,1.0181-.4044,1.4138-.0192.0065.0063.0129.0127.0192.0192l13.981,13.981c.3957.3851.4044,1.0181.0192,1.4138-.0063.0065-.0127.0129-.0192.0192l-13.9976,13.9976c-.3888.3811-1.011.3811-1.3998,0l-13.9976-13.9976c-.3957-.3851-.4044-1.0181-.0192-1.4138.0063-.0065.0127-.0129.0192-.0192Z" fill="url(#linear-gradient)"/>
      <path d="M190.7458,42.0681l-3.5327-3.5161c-.0759-.0679-.1907-.0679-.2666,0l-3.5327,3.5161c-.0764.0514-.0966.1549-.0452.2313.0391.0582.1105.0856.1785.0687h2.0663c.1012,0,.1833.0821.1833.1833v3.3328c0,.1012.0821.1833.1833.1833h2.1996c.1012,0,.1833-.0821.1833-.1833v-3.3328c0-.1012.0821-.1833.1833-.1833h2.0663c.0893.0222.1797-.0321.202-.1214.0169-.068-.0105-.1394-.0687-.1785Z" fill="#b4ec36"/>
      <path d="M178.7478,46.4174l-3.4994,3.5494c-.0656.0704-.0656.1796,0,.25l3.4994,3.5161c.0694.0737.1854.0772.2591.0078.0387-.0365.0597-.088.0575-.1411v-2.0497c0-.1012.0821-.1833.1833-.1833h3.3328c.092.0005.167-.0738.1675-.1658,0-.0058-.0002-.0117-.0008-.0175v-2.1996c.0472-.079.0214-.1813-.0576-.2285-.0181-.0108-.0382-.0181-.059-.0215h-3.3328c-.0916.0092-.1733-.0576-.1825-.1491-.0006-.0058-.0009-.0117-.0008-.0175v-2.0163c.0368-.1012-.0154-.2131-.1166-.25-.1012-.0368-.2131.0154-.25.1166Z" fill="#b4ec36"/>
      <path d="M195.545,53.7328l3.5494-3.5327c.0656-.0704.0656-.1796,0-.25l-3.5494-3.5327c-.078-.0645-.1936-.0536-.2581.0244-.0254.0308-.0401.069-.0419.1089v2.083c.0005.092-.0738.167-.1658.1675-.0058,0-.0117-.0002-.0175-.0008h-3.3328c-.092-.0005-.167.0738-.1675.1658,0,.0058.0002.0117.0008.0175v2.1996c-.0092.0916.0576.1733.1491.1825.0058.0006.0117.0009.0175.0008h3.3328c.1012,0,.1833.0821.1833.1833v2.0663c.013.1004.1049.1713.2053.1583.0349-.0045.0678-.019.0947-.0417Z" fill="#b4ec36"/>
      <path d="M191.729,50.4c.0159-2.5676-2.0527-4.662-4.6203-4.6779-2.5676-.0159-4.662,2.0527-4.6779,4.6203-.013,2.097,1.3794,3.9431,3.3992,4.5069v1.5831c-1.3981.7224-1.9459,2.4415-1.2234,3.8396.7224,1.3981,2.4415,1.9459,3.8396,1.2234,1.3981-.7224,1.9459-2.4415,1.2234-3.8396-.2711-.5247-.6987-.9523-1.2234-1.2234v-1.6664c1.9303-.5822,3.2595-2.3498,3.2828-4.3659Z" fill="#fff"/>
      <circle id="e99c3387-15c3-4f28-bd4b-cb209b430e06" cx="187.0964" cy="50.3834" r="2.6995" fill="#5ea0ef"/>
    </g>
    <use width="22" height="22" transform="translate(178.0797 139.9772) scale(.8182)" xlink:href="#Failed"/>
  </g>
  <g id="Text">
    <g>
      <path d="M45.2143,131.8998h-1.1484v-9.8027h1.1484v9.8027Z" fill="#2f2f2f"/>
      <path d="M53.2895,131.8998h-1.1211v-3.9922c0-1.4854-.543-2.2285-1.627-2.2285-.5605,0-1.0244.2109-1.3916.6318-.3662.4219-.5498.9541-.5498,1.5967v3.9922h-1.1211v-7h1.1211v1.1621h.0273c.5283-.8838,1.2939-1.3262,2.2969-1.3262.7656,0,1.3506.2471,1.7568.7412.4053.4951.6084,1.209.6084,2.1436v4.2793Z" fill="#2f2f2f"/>
      <path d="M54.9369,131.6469v-1.2031c.6113.4512,1.2832.6768,2.0166.6768.9844,0,1.4766-.3281,1.4766-.9844,0-.1865-.042-.3447-.126-.4756-.085-.1289-.1982-.2441-.3418-.3447s-.3125-.1904-.5059-.2705c-.1943-.0791-.4023-.1621-.626-.249-.3096-.123-.582-.2471-.8164-.3721-.2354-.126-.4307-.2676-.5879-.4238-.1572-.1582-.2764-.3359-.3555-.5371-.0801-.2012-.1201-.4355-.1201-.7041,0-.3281.0752-.6182.2256-.8721.1504-.252.3516-.4648.6016-.6348.251-.1719.5371-.3008.8584-.3867s.6523-.1299.9941-.1299c.6064,0,1.1484.1045,1.627.3145v1.1348c-.5146-.3369-1.1074-.5059-1.7773-.5059-.209,0-.3984.0244-.5674.0713-.168.0488-.3135.1152-.4336.2021-.1211.0869-.2148.1904-.2803.3115-.0664.1201-.0996.2539-.0996.3994,0,.1826.0332.335.0996.458.0654.123.1631.2324.29.3281.1279.0957.2832.1816.4648.2598.1826.0781.3896.1621.6221.2529.3105.1182.5879.2402.834.3662.2461.125.4561.2656.6289.4238.1738.1562.3066.3379.4004.543.0928.2051.1396.4492.1396.7314,0,.3467-.0762.6475-.2285.9023-.1533.2549-.3564.4678-.6123.6357-.2549.168-.5488.2939-.8818.376-.332.082-.6807.123-1.0459.123-.7197,0-1.3438-.1396-1.873-.417Z" fill="#2f2f2f"/>
      <path d="M64.5902,131.8314c-.2637.1455-.6123.2188-1.0459.2188-1.2256,0-1.8389-.6836-1.8389-2.0508v-4.1426h-1.2031v-.957h1.2031v-1.709l1.1211-.3623v2.0713h1.7637v.957h-1.7637v3.9443c0,.4688.0801.8047.2393,1.0049.1602.2002.4238.3008.793.3008.2832,0,.5264-.0771.7314-.2324v.957Z" fill="#2f2f2f"/>
      <path d="M71.2074,131.8998h-1.1211v-1.0938h-.0273c-.4873.8389-1.2051,1.2578-2.1533,1.2578-.6973,0-1.2432-.1846-1.6367-.5537-.3945-.3691-.5918-.8594-.5918-1.4697,0-1.3076.7705-2.0693,2.3105-2.2832l2.0986-.2939c0-1.1895-.4805-1.7842-1.4424-1.7842-.8428,0-1.6035.2871-2.2832.8613v-1.1484c.6885-.4375,1.4814-.6562,2.3789-.6562,1.6455,0,2.4678.8701,2.4678,2.6113v4.5527ZM70.0863,128.3588l-1.6885.2324c-.5195.0732-.9111.2021-1.1758.3857-.2637.1855-.3965.5117-.3965.9814,0,.3418.1221.6211.3662.8369.2432.2168.5684.3252.9736.3252.5566,0,1.0156-.1943,1.3779-.585.3623-.3887.543-.8828.543-1.4795v-.6973Z" fill="#2f2f2f"/>
      <path d="M79.0395,131.8998h-1.1211v-3.9922c0-1.4854-.542-2.2285-1.627-2.2285-.5605,0-1.0244.2109-1.3906.6318-.3672.4219-.5508.9541-.5508,1.5967v3.9922h-1.1211v-7h1.1211v1.1621h.0273c.5293-.8838,1.2949-1.3262,2.2969-1.3262.7656,0,1.3516.2471,1.7568.7412.4062.4951.6084,1.209.6084,2.1436v4.2793Z" fill="#2f2f2f"/>
      <path d="M85.8881,131.5785c-.5371.3242-1.1758.4854-1.9141.4854-.998,0-1.8037-.3252-2.416-.9736-.6133-.6504-.9199-1.4922-.9199-2.5264,0-1.1533.3311-2.0791.9912-2.7783.6611-.7002,1.543-1.0498,2.6455-1.0498.6152,0,1.1582.1143,1.627.3418v1.1484c-.5195-.3643-1.0752-.5469-1.668-.5469-.7148,0-1.3018.2568-1.7598.7686-.458.5137-.6875,1.1865-.6875,2.0205,0,.8203.2158,1.4678.6465,1.9414s1.0078.7109,1.7324.7109c.6113,0,1.1855-.2021,1.7227-.6084v1.0664Z" fill="#2f2f2f"/>
      <path d="M93.058,128.6801h-4.9424c.0186.7793.2285,1.3809.6289,1.8047.4014.4238.9531.6357,1.6543.6357.7891,0,1.5137-.2598,2.1738-.7793v1.0527c-.6152.4463-1.4287.6699-2.4404.6699-.9883,0-1.7656-.3174-2.3311-.9541-.5645-.6348-.8477-1.5293-.8477-2.6826,0-1.0889.3086-1.9766.9268-2.6631.6172-.6855,1.3838-1.0283,2.2998-1.0283s1.625.2959,2.126.8887c.502.5928.752,1.415.752,2.4678v.5879ZM91.9096,127.7299c-.0039-.6475-.1602-1.1514-.4678-1.5107s-.7354-.54-1.2822-.54c-.5283,0-.9775.1885-1.3467.5674s-.5967.873-.6836,1.4834h3.7803Z" fill="#2f2f2f"/>
    </g>
    <g>
      <path d="M148.3612,123.1361h-3.8281v3.3906h3.541v1.0322h-3.541v4.3408h-1.1484v-9.8027h4.9766v1.0391Z" fill="#2f2f2f"/>
      <path d="M154.6327,131.8998h-1.1211v-1.0938h-.0273c-.4878.8389-1.2056,1.2578-2.1533,1.2578-.6973,0-1.2432-.1846-1.6372-.5537s-.5913-.8594-.5913-1.4697c0-1.3076.77-2.0693,2.3105-2.2832l2.0986-.2939c0-1.1895-.481-1.7842-1.4424-1.7842-.8433,0-1.604.2871-2.2832.8613v-1.1484c.688-.4375,1.481-.6562,2.3789-.6562,1.645,0,2.4678.8701,2.4678,2.6113v4.5527ZM153.5116,128.3588l-1.6885.2324c-.5195.0732-.9116.2021-1.1758.3857-.2642.1855-.3965.5117-.3965.9814,0,.3418.1221.6211.3657.8369.2437.2168.5684.3252.9741.3252.5562,0,1.0151-.1943,1.3774-.585.3623-.3887.5435-.8828.5435-1.4795v-.6973Z" fill="#2f2f2f"/>
      <path d="M157.2118,123.1225c-.2007,0-.3716-.0684-.5127-.2051s-.2119-.3096-.2119-.5195.0708-.3838.2119-.5225c.1411-.1396.312-.209.5127-.209.2051,0,.3794.0693.5229.209.1436.1387.2153.3125.2153.5225,0,.2002-.0718.3721-.2153.5127s-.3179.2119-.5229.2119ZM157.7587,131.8998h-1.1211v-7h1.1211v7Z" fill="#2f2f2f"/>
      <path d="M161.0062,131.8998h-1.1211v-10.3633h1.1211v10.3633Z" fill="#2f2f2f"/>
      <path d="M168.8446,128.6801h-4.9424c.0181.7793.228,1.3809.6289,1.8047s.9526.6357,1.6543.6357c.7886,0,1.5132-.2598,2.1738-.7793v1.0527c-.6152.4463-1.4287.6699-2.4404.6699-.9888,0-1.7661-.3174-2.3311-.9541-.5649-.6348-.8477-1.5293-.8477-2.6826,0-1.0889.3086-1.9766.9263-2.6631.6177-.6855,1.3843-1.0283,2.3003-1.0283s1.6245.2959,2.126.8887.752,1.415.752,2.4678v.5879ZM167.6962,127.7299c-.0044-.6475-.1606-1.1514-.4683-1.5107s-.7349-.54-1.2817-.54c-.5288,0-.9775.1885-1.3467.5674s-.5972.873-.6836,1.4834h3.7803Z" fill="#2f2f2f"/>
      <path d="M176.5761,131.8998h-1.1211v-1.1895h-.0273c-.5195.9023-1.3218,1.3535-2.4062,1.3535-.8794,0-1.5825-.3135-2.1089-.9404-.5264-.626-.7896-1.4795-.7896-2.5596,0-1.1572.2915-2.085.875-2.7822s1.3604-1.0459,2.3311-1.0459c.9614,0,1.6611.3779,2.0986,1.1348h.0273v-4.334h1.1211v10.3633ZM175.455,128.7348v-1.0322c0-.5654-.187-1.0439-.5605-1.4355s-.8477-.5879-1.4219-.5879c-.6836,0-1.2212.251-1.6133.752s-.5879,1.1943-.5879,2.0781c0,.8066.188,1.4434.564,1.9111.376.4668.8809.7002,1.5142.7002.6245,0,1.1313-.2256,1.521-.6768s.5845-1.0215.5845-1.709Z" fill="#2f2f2f"/>
      <path d="M183.2548,123.1225c-.2007,0-.3716-.0684-.5127-.2051s-.2119-.3096-.2119-.5195.0708-.3838.2119-.5225c.1411-.1396.312-.209.5127-.209.2051,0,.3794.0693.5229.209.1436.1387.2153.3125.2153.5225,0,.2002-.0718.3721-.2153.5127s-.3179.2119-.5229.2119ZM183.8017,131.8998h-1.1211v-7h1.1211v7Z" fill="#2f2f2f"/>
      <path d="M191.7304,131.8998h-1.1211v-3.9922c0-1.4854-.5425-2.2285-1.627-2.2285-.5605,0-1.0244.2109-1.3911.6318-.3667.4219-.5503.9541-.5503,1.5967v3.9922h-1.1211v-7h1.1211v1.1621h.0273c.5288-.8838,1.2944-1.3262,2.2969-1.3262.7656,0,1.3511.2471,1.7568.7412.4058.4951.6084,1.209.6084,2.1436v4.2793Z" fill="#2f2f2f"/>
      <path d="M193.3783,131.6469v-1.2031c.6108.4512,1.2827.6768,2.0166.6768.9844,0,1.4766-.3281,1.4766-.9844,0-.1865-.042-.3447-.1265-.4756-.0845-.1289-.1982-.2441-.3418-.3447s-.312-.1904-.5059-.2705c-.1938-.0791-.4023-.1621-.6255-.249-.3101-.123-.582-.2471-.8169-.3721-.2349-.126-.4307-.2676-.5879-.4238-.1572-.1582-.2759-.3359-.3555-.5371s-.1196-.4355-.1196-.7041c0-.3281.0752-.6182.2256-.8721.1504-.252.3511-.4648.6016-.6348.2505-.1719.5366-.3008.8579-.3867s.6528-.1299.9946-.1299c.606,0,1.1484.1045,1.627.3145v1.1348c-.5151-.3369-1.1074-.5059-1.7773-.5059-.2095,0-.3989.0244-.5674.0713-.1685.0488-.3135.1152-.4341.2021s-.2144.1904-.2803.3115c-.0659.1201-.0991.2539-.0991.3994,0,.1826.0332.335.0991.458s.1631.2324.2905.3281.2827.1816.4648.2598.3896.1621.6221.2529c.3101.1182.5879.2402.834.3662.2461.125.4556.2656.6289.4238.1733.1562.3066.3379.3999.543s.1401.4492.1401.7314c0,.3467-.0762.6475-.229.9023s-.3564.4678-.6118.6357-.5493.2939-.8818.376-.6812.123-1.0459.123c-.7202,0-1.3442-.1396-1.873-.417Z" fill="#2f2f2f"/>
      <path d="M203.0316,131.8314c-.2642.1455-.6128.2188-1.0459.2188-1.2261,0-1.8389-.6836-1.8389-2.0508v-4.1426h-1.2031v-.957h1.2031v-1.709l1.1211-.3623v2.0713h1.7637v.957h-1.7637v3.9443c0,.4688.0796.8047.2393,1.0049s.4238.3008.793.3008c.2827,0,.5264-.0771.7314-.2324v.957Z" fill="#2f2f2f"/>
      <path d="M209.6488,131.8998h-1.1211v-1.0938h-.0273c-.4878.8389-1.2056,1.2578-2.1533,1.2578-.6973,0-1.2432-.1846-1.6372-.5537s-.5913-.8594-.5913-1.4697c0-1.3076.77-2.0693,2.3105-2.2832l2.0986-.2939c0-1.1895-.481-1.7842-1.4424-1.7842-.8433,0-1.604.2871-2.2832.8613v-1.1484c.688-.4375,1.481-.6562,2.3789-.6562,1.645,0,2.4678.8701,2.4678,2.6113v4.5527ZM208.5277,128.3588l-1.6885.2324c-.5195.0732-.9116.2021-1.1758.3857-.2642.1855-.3965.5117-.3965.9814,0,.3418.1221.6211.3657.8369.2437.2168.5684.3252.9741.3252.5562,0,1.0151-.1943,1.3774-.585.3623-.3887.5435-.8828.5435-1.4795v-.6973Z" fill="#2f2f2f"/>
      <path d="M217.4804,131.8998h-1.1211v-3.9922c0-1.4854-.5425-2.2285-1.627-2.2285-.5605,0-1.0244.2109-1.3911.6318-.3667.4219-.5503.9541-.5503,1.5967v3.9922h-1.1211v-7h1.1211v1.1621h.0273c.5288-.8838,1.2944-1.3262,2.2969-1.3262.7656,0,1.3511.2471,1.7568.7412.4058.4951.6084,1.209.6084,2.1436v4.2793Z" fill="#2f2f2f"/>
      <path d="M224.3295,131.5785c-.5376.3242-1.1758.4854-1.9141.4854-.998,0-1.8037-.3252-2.4165-.9736-.6128-.6504-.9194-1.4922-.9194-2.5264,0-1.1533.3306-2.0791.9912-2.7783.6606-.7002,1.5425-1.0498,2.6455-1.0498.6152,0,1.1577.1143,1.627.3418v1.1484c-.5195-.3643-1.0757-.5469-1.668-.5469-.7153,0-1.3022.2568-1.7603.7686-.458.5137-.687,1.1865-.687,2.0205,0,.8203.2153,1.4678.646,1.9414s1.0083.7109,1.7329.7109c.6108,0,1.1851-.2021,1.7227-.6084v1.0664Z" fill="#2f2f2f"/>
      <path d="M231.4994,128.6801h-4.9424c.0181.7793.228,1.3809.6289,1.8047s.9526.6357,1.6543.6357c.7886,0,1.5132-.2598,2.1738-.7793v1.0527c-.6152.4463-1.4287.6699-2.4404.6699-.9888,0-1.7661-.3174-2.3311-.9541-.5649-.6348-.8477-1.5293-.8477-2.6826,0-1.0889.3086-1.9766.9263-2.6631.6177-.6855,1.3843-1.0283,2.3003-1.0283s1.6245.2959,2.126.8887.752,1.415.752,2.4678v.5879ZM230.351,127.7299c-.0044-.6475-.1606-1.1514-.4683-1.5107s-.7349-.54-1.2817-.54c-.5288,0-.9775.1885-1.3467.5674s-.5972.873-.6836,1.4834h3.7803Z" fill="#2f2f2f"/>
    </g>
    <g>
      <path d="M282.8144,131.8998h-1.1484v-9.8027h1.1484v9.8027Z" fill="#2f2f2f"/>
      <path d="M290.8891,131.8998h-1.1211v-3.9922c0-1.4854-.5425-2.2285-1.627-2.2285-.5605,0-1.0244.2109-1.3911.6318-.3667.4219-.5503.9541-.5503,1.5967v3.9922h-1.1211v-7h1.1211v1.1621h.0273c.5288-.8838,1.2944-1.3262,2.2969-1.3262.7656,0,1.3511.2471,1.7568.7412.4058.4951.6084,1.209.6084,2.1436v4.2793Z" fill="#2f2f2f"/>
      <path d="M292.537,131.6469v-1.2031c.6108.4512,1.2827.6768,2.0166.6768.9844,0,1.4766-.3281,1.4766-.9844,0-.1865-.042-.3447-.1265-.4756-.0845-.1289-.1982-.2441-.3418-.3447s-.312-.1904-.5059-.2705c-.1938-.0791-.4023-.1621-.6255-.249-.3101-.123-.582-.2471-.8169-.3721-.2349-.126-.4307-.2676-.5879-.4238-.1572-.1582-.2759-.3359-.3555-.5371s-.1196-.4355-.1196-.7041c0-.3281.0752-.6182.2256-.8721.1504-.252.3511-.4648.6016-.6348.2505-.1719.5366-.3008.8579-.3867s.6528-.1299.9946-.1299c.606,0,1.1484.1045,1.627.3145v1.1348c-.5151-.3369-1.1074-.5059-1.7773-.5059-.2095,0-.3989.0244-.5674.0713-.1685.0488-.3135.1152-.4341.2021s-.2144.1904-.2803.3115c-.0659.1201-.0991.2539-.0991.3994,0,.1826.0332.335.0991.458s.1631.2324.2905.3281.2827.1816.4648.2598.3896.1621.6221.2529c.3101.1182.5879.2402.834.3662.2461.125.4556.2656.6289.4238.1733.1562.3066.3379.3999.543s.1401.4492.1401.7314c0,.3467-.0762.6475-.229.9023s-.3564.4678-.6118.6357-.5493.2939-.8818.376-.6812.123-1.0459.123c-.7202,0-1.3442-.1396-1.873-.417Z" fill="#2f2f2f"/>
      <path d="M302.1903,131.8314c-.2642.1455-.6128.2188-1.0459.2188-1.2261,0-1.8389-.6836-1.8389-2.0508v-4.1426h-1.2031v-.957h1.2031v-1.709l1.1211-.3623v2.0713h1.7637v.957h-1.7637v3.9443c0,.4688.0796.8047.2393,1.0049s.4238.3008.793.3008c.2827,0,.5264-.0771.7314-.2324v.957Z" fill="#2f2f2f"/>
      <path d="M308.8075,131.8998h-1.1211v-1.0938h-.0273c-.4878.8389-1.2056,1.2578-2.1533,1.2578-.6973,0-1.2432-.1846-1.6372-.5537s-.5913-.8594-.5913-1.4697c0-1.3076.77-2.0693,2.3105-2.2832l2.0986-.2939c0-1.1895-.481-1.7842-1.4424-1.7842-.8433,0-1.604.2871-2.2832.8613v-1.1484c.688-.4375,1.481-.6562,2.3789-.6562,1.645,0,2.4678.8701,2.4678,2.6113v4.5527ZM307.6864,128.3588l-1.6885.2324c-.5195.0732-.9116.2021-1.1758.3857-.2642.1855-.3965.5117-.3965.9814,0,.3418.1221.6211.3657.8369.2437.2168.5684.3252.9741.3252.5562,0,1.0151-.1943,1.3774-.585.3623-.3887.5435-.8828.5435-1.4795v-.6973Z" fill="#2f2f2f"/>
      <path d="M316.6396,131.8998h-1.1211v-3.9922c0-1.4854-.5425-2.2285-1.627-2.2285-.5605,0-1.0244.2109-1.3911.6318-.3667.4219-.5503.9541-.5503,1.5967v3.9922h-1.1211v-7h1.1211v1.1621h.0273c.5288-.8838,1.2944-1.3262,2.2969-1.3262.7656,0,1.3511.2471,1.7568.7412.4058.4951.6084,1.209.6084,2.1436v4.2793Z" fill="#2f2f2f"/>
      <path d="M323.4882,131.5785c-.5376.3242-1.1758.4854-1.9141.4854-.998,0-1.8037-.3252-2.4165-.9736-.6128-.6504-.9194-1.4922-.9194-2.5264,0-1.1533.3306-2.0791.9912-2.7783.6606-.7002,1.5425-1.0498,2.6455-1.0498.6152,0,1.1577.1143,1.627.3418v1.1484c-.5195-.3643-1.0757-.5469-1.668-.5469-.7153,0-1.3022.2568-1.7603.7686-.458.5137-.687,1.1865-.687,2.0205,0,.8203.2153,1.4678.646,1.9414s1.0083.7109,1.7329.7109c.6108,0,1.1851-.2021,1.7227-.6084v1.0664Z" fill="#2f2f2f"/>
      <path d="M330.6581,128.6801h-4.9424c.0181.7793.228,1.3809.6289,1.8047s.9526.6357,1.6543.6357c.7886,0,1.5132-.2598,2.1738-.7793v1.0527c-.6152.4463-1.4287.6699-2.4404.6699-.9888,0-1.7661-.3174-2.3311-.9541-.5649-.6348-.8477-1.5293-.8477-2.6826,0-1.0889.3086-1.9766.9263-2.6631.6177-.6855,1.3843-1.0283,2.3003-1.0283s1.6245.2959,2.126.8887.752,1.415.752,2.4678v.5879ZM329.5097,127.7299c-.0044-.6475-.1606-1.1514-.4683-1.5107s-.7349-.54-1.2817-.54c-.5288,0-.9775.1885-1.3467.5674s-.5972.873-.6836,1.4834h3.7803Z" fill="#2f2f2f"/>
    </g>
    <g>
      <path d="M147.8456,24.1996h-5.8379v-9.8027h2.208v8.0117h3.6299v1.791Z" fill="#2f2f2f"/>
      <path d="M152.3085,24.3715c-1.1665,0-2.084-.3281-2.7515-.9814s-1.0015-1.542-1.0015-2.6631c0-1.1572.3462-2.0625,1.0391-2.7168s1.6294-.9805,2.8096-.9805c1.1621,0,2.0737.3262,2.7344.9805s.9912,1.5186.9912,2.5938c0,1.1621-.3408,2.0811-1.022,2.7559-.6812.6738-1.6143,1.0117-2.7993,1.0117ZM152.3632,18.684c-.5103,0-.9067.1748-1.1895.5254-.2827.3516-.4238.8477-.4238,1.4902,0,1.3447.5425,2.0176,1.627,2.0176,1.0347,0,1.5518-.6914,1.5518-2.0723,0-1.3076-.522-1.9609-1.5654-1.9609Z" fill="#2f2f2f"/>
      <path d="M163.3456,24.1996h-2.0439v-1.0039h-.0273c-.4692.7832-1.1646,1.1758-2.085,1.1758-.6792,0-1.2134-.1934-1.603-.5781s-.5845-.8984-.5845-1.541c0-1.3584.8042-2.1426,2.4131-2.3516l1.9004-.2539c0-.7656-.4146-1.1484-1.2441-1.1484-.834,0-1.627.249-2.3789.7461v-1.627c.3008-.1553.7119-.292,1.2339-.4102.522-.1191.9971-.1777,1.4253-.1777,1.9961,0,2.9941.9951,2.9941,2.9863v4.1836ZM161.3153,21.3559v-.4707l-1.2715.1641c-.7017.0908-1.0527.4072-1.0527.9492,0,.2461.0854.4482.2563.6055s.4023.2363.6938.2363c.4058,0,.7358-.1406.9912-.4209s.3828-.6348.3828-1.0635Z" fill="#2f2f2f"/>
      <path d="M171.9267,24.1996h-2.1602v-.9629h-.0273c-.4922.7559-1.2144,1.1348-2.167,1.1348-.875,0-1.5791-.3086-2.1123-.9268s-.7998-1.4795-.7998-2.5869c0-1.1582.2939-2.0859.8818-2.7832s1.3579-1.0449,2.3105-1.0449c.9023,0,1.5312.3232,1.8867.9707h.0273v-4.1641h2.1602v10.3633ZM169.8075,20.7953v-.5254c0-.4561-.1323-.834-.3965-1.1348s-.6084-.4512-1.0322-.4512c-.4785,0-.8521.1875-1.1211.5635s-.4033.8916-.4033,1.5479c0,.6152.1299,1.0898.3896,1.4219.2598.333.6196.5,1.0801.5.4375,0,.7939-.1758,1.0698-.5273.2759-.3506.4136-.8154.4136-1.3945Z" fill="#2f2f2f"/>
      <path d="M177.8192,24.1996v-9.8027h3.5684c1.0938,0,1.9346.2012,2.5225.6016.5879.4014.8818.9668.8818,1.6953,0,.5293-.1787.9922-.5366,1.3887s-.8145.6719-1.3706.8262v.0273c.6973.0869,1.2544.3447,1.6714.7734.417.4277.6255.9492.6255,1.5645,0,.8984-.3213,1.6104-.9639,2.1367s-1.52.7891-2.6318.7891h-3.7666ZM180.0272,16.0238v2.3242h.9707c.4556,0,.8145-.1094,1.0767-.3311s.3931-.5254.3931-.9131c0-.7197-.5376-1.0801-1.6133-1.0801h-.8271ZM180.0272,19.9887v2.584h1.1963c.5103,0,.9102-.1182,1.1997-.3555.2896-.2363.4341-.5605.4341-.9707,0-.3916-.1426-.6992-.4272-.9219-.2847-.2236-.6826-.3359-1.1929-.3359h-1.21Z" fill="#2f2f2f"/>
      <path d="M192.4574,24.1996h-2.0439v-1.0039h-.0273c-.4692.7832-1.1646,1.1758-2.085,1.1758-.6792,0-1.2134-.1934-1.603-.5781s-.5845-.8984-.5845-1.541c0-1.3584.8042-2.1426,2.4131-2.3516l1.9004-.2539c0-.7656-.4146-1.1484-1.2441-1.1484-.834,0-1.627.249-2.3789.7461v-1.627c.3008-.1553.7119-.292,1.2339-.4102.522-.1191.9971-.1777,1.4253-.1777,1.9961,0,2.9941.9951,2.9941,2.9863v4.1836ZM190.4271,21.3559v-.4707l-1.2715.1641c-.7017.0908-1.0527.4072-1.0527.9492,0,.2461.0854.4482.2563.6055s.4023.2363.6938.2363c.4058,0,.7358-.1406.9912-.4209s.3828-.6348.3828-1.0635Z" fill="#2f2f2f"/>
      <path d="M196.3153,24.1996h-2.1602v-10.3633h2.1602v10.3633Z" fill="#2f2f2f"/>
      <path d="M203.9804,24.1996h-2.0439v-1.0039h-.0273c-.4692.7832-1.1646,1.1758-2.085,1.1758-.6792,0-1.2134-.1934-1.603-.5781s-.5845-.8984-.5845-1.541c0-1.3584.8042-2.1426,2.4131-2.3516l1.9004-.2539c0-.7656-.4146-1.1484-1.2441-1.1484-.834,0-1.627.249-2.3789.7461v-1.627c.3008-.1553.7119-.292,1.2339-.4102.522-.1191.9971-.1777,1.4253-.1777,1.9961,0,2.9941.9951,2.9941,2.9863v4.1836ZM201.9501,21.3559v-.4707l-1.2715.1641c-.7017.0908-1.0527.4072-1.0527.9492,0,.2461.0854.4482.2563.6055s.4023.2363.6938.2363c.4058,0,.7358-.1406.9912-.4209s.3828-.6348.3828-1.0635Z" fill="#2f2f2f"/>
      <path d="M212.4374,24.1996h-2.1533v-3.8887c0-1.085-.3872-1.627-1.1621-1.627-.3735,0-.6812.1426-.9229.4297s-.3623.6523-.3623,1.0938v3.9922h-2.1602v-7h2.1602v1.1074h.0273c.5151-.8516,1.2646-1.2773,2.249-1.2773,1.5493,0,2.3242.9609,2.3242,2.8848v4.2852Z" fill="#2f2f2f"/>
      <path d="M219.4511,23.9477c-.4878.2822-1.1919.4238-2.1123.4238-1.0757,0-1.9458-.3262-2.6113-.9785-.6655-.6514-.998-1.4922-.998-2.5215,0-1.1895.3564-2.127,1.0698-2.8135s1.667-1.0283,2.8608-1.0283c.8247,0,1.4219.1094,1.791.3281v1.832c-.4512-.3379-.9546-.5059-1.5107-.5059-.6196,0-1.1108.1807-1.4731.543s-.5435.8623-.5435,1.5c0,.6201.1733,1.1074.5195,1.46s.8228.5303,1.4287.5303c.5376,0,1.064-.1689,1.5791-.5059v1.7363Z" fill="#2f2f2f"/>
      <path d="M227.1664,21.3148h-4.5664c.0728,1.0166.7134,1.5254,1.9209,1.5254.77,0,1.4468-.1826,2.0303-.5469v1.5586c-.647.3457-1.4878.5195-2.5225.5195-1.1304,0-2.0073-.3145-2.6318-.9404s-.9365-1.501-.9365-2.6221c0-1.1621.3374-2.082,1.0117-2.7617.6743-.6787,1.5039-1.0176,2.4883-1.0176,1.021,0,1.8105.3027,2.3687.9082.5581.6064.8374,1.4297.8374,2.4688v.9082ZM225.1635,19.9887c0-1.002-.4058-1.5039-1.2168-1.5039-.3462,0-.646.1445-.8989.4316s-.4067.6445-.4614,1.0723h2.5771Z" fill="#2f2f2f"/>
      <path d="M233.098,19.1488c-.2598-.1416-.563-.2129-.9092-.2129-.4692,0-.8364.1719-1.1006.5166s-.3965.8125-.3965,1.4053v3.3418h-2.1602v-7h2.1602v1.2988h.0273c.3418-.9473.957-1.4219,1.8457-1.4219.228,0,.4058.0273.5332.082v1.9902Z" fill="#2f2f2f"/>
    </g>
  </g>
</svg>