<?xml version="1.0" encoding="utf-8"?>
<!-- Generator: Adobe Illustrator 26.5.0, SVG Export Plug-In . SVG Version: 6.00 Build 0)  -->
<svg version="1.1" xmlns="http://www.w3.org/2000/svg" xmlns:xlink="http://www.w3.org/1999/xlink" x="0px" y="0px"
	 viewBox="0 0 710.997 287.257" enable-background="new 0 0 710.997 287.257" xml:space="preserve">
<symbol  id="New_Symbol_41" viewBox="-10.5 -10.403 21 20.403">
	<circle fill="#505150" cx="0" cy="0" r="10"/>
	<text transform="matrix(1 0 0 -1 -2.8169 -4.4282)" fill="#FFFFFF" font-family="'SegoeUI-Semibold'" font-size="14px">1</text>
	<rect x="-10.5" y="-10" display="none" fill="none" width="21" height="20"/>
</symbol>
<symbol  id="New_Symbol_42" viewBox="-10.5 -10.403 21 20.403">
	<circle fill="#505150" cx="0" cy="0" r="10"/>
	<text transform="matrix(1 0 0 -1 -3.8867 -4.4282)" fill="#FFFFFF" font-family="'SegoeUI-Semibold'" font-size="14px">2</text>
	<rect x="-10.5" y="-10" display="none" fill="none" width="21" height="20"/>
</symbol>
<symbol  id="New_Symbol_43" viewBox="-10.5 -10.403 21 20.403">
	<circle fill="#505150" cx="0" cy="0" r="10"/>
	<text transform="matrix(1 0 0 -1 -3.8867 -4.4282)" fill="#FFFFFF" font-family="'SegoeUI-Semibold'" font-size="14px">3</text>
	<rect x="-10.5" y="-10" display="none" fill="none" width="21" height="20"/>
</symbol>
<symbol  id="PIPELINE" viewBox="-32 -12.266 64 24.531">
	<linearGradient id="SVGID_1_" gradientUnits="userSpaceOnUse" x1="0" y1="-12.2655" x2="1.502093e-15" y2="12.2655">
		<stop  offset="0" style="stop-color:#1B89B2"/>
		<stop  offset="1" style="stop-color:#51C8E8"/>
	</linearGradient>
	<path fill="url(#SVGID_1_)" d="M26.096,12.266h-51.448v0h0C-29.08,12.265-32,6.878-32,0s2.92-12.265,6.648-12.265h0v0h51.448
		C29.356-12.266,32-6.363,32,0S29.356,12.266,26.096,12.266z"/>
	<g>
		
			<linearGradient id="SVGID_00000049919136349155901610000006055658632111581614_" gradientUnits="userSpaceOnUse" x1="-31.461" y1="-6.1136" x2="-19.2338" y2="6.1136">
			<stop  offset="0" style="stop-color:#B3B4B4"/>
			<stop  offset="1" style="stop-color:#4F4F4F"/>
		</linearGradient>
		<ellipse fill="url(#SVGID_00000049919136349155901610000006055658632111581614_)" cx="-25.347" cy="0" rx="5.575" ry="10.879"/>
	</g>
</symbol>
<g id="Shapes">
	<rect fill="#FFFFFF" width="710.997" height="287.257"/>
	<g id="Wrench_tool_x28_s_x29_">
	</g>
	<g id="user2">
	</g>
	<g id="user2_1_">
	</g>
	<g id="user2_4_">
	</g>
	<g id="user2_3_">
	</g>
	<g id="user2_2_">
	</g>
	<g id="Internet_2">
	</g>
	<g id="Enterprise">
	</g>
	<g id="Tunnel__x28_stackable_x29_">
	</g>
	<g id="New_Symbol">
	</g>
	<g id="New_Symbol_1">
	</g>
	<g id="Files">
	</g>
	<g id="BlobBlock">
	</g>
	<g id="E_x5F_Enterprise">
	</g>
	<g id="E_x5F_AD_FS">
	</g>
	<g id="C_x5F_Azure_Active_Directory">
	</g>
	<g id="Success_Checked">
		<g>
			<rect x="253.133" y="45.607" opacity="0.25" fill="#F2F2F2" width="218.623" height="210"/>
			
				<rect x="253.133" y="45.607" fill="none" stroke="#CCCCCB" stroke-width="0.5" stroke-miterlimit="10" width="218.623" height="210"/>
		</g>
		<circle fill="none" stroke="#A3A3A3" stroke-width="1.5" stroke-miterlimit="10" cx="362.942" cy="154.2" r="72.146"/>
		<g>
			<g opacity="0.3">
				<circle fill="#212121" cx="362.166" cy="83.054" r="18.869"/>
				<circle opacity="0.35" fill="#212121" cx="362.166" cy="83.054" r="18.869"/>
			</g>
			<g>
				<circle fill="#FFFFFF" cx="361.166" cy="82.054" r="18.869"/>
				<circle opacity="0.35" fill="#1B93EB" cx="361.166" cy="82.054" r="18.869"/>
			</g>
		</g>
		<g>
			<g opacity="0.3">
				<circle fill="#212121" cx="318.591" cy="99.033" r="18.869"/>
				<circle opacity="0.35" fill="#212121" cx="318.591" cy="99.033" r="18.869"/>
			</g>
			<g>
				<circle fill="#FFFFFF" cx="317.591" cy="98.033" r="18.869"/>
				<circle opacity="0.35" fill="#1B93EB" cx="317.591" cy="98.033" r="18.869"/>
			</g>
		</g>
		<g>
			<g opacity="0.3">
				<circle fill="#212121" cx="292.045" cy="160.528" r="18.869"/>
				<circle opacity="0.35" fill="#212121" cx="292.045" cy="160.528" r="18.869"/>
			</g>
			<g>
				<circle fill="#FFFFFF" cx="291.045" cy="159.528" r="18.869"/>
				<circle opacity="0.35" fill="#1B93EB" cx="291.045" cy="159.528" r="18.869"/>
			</g>
		</g>
		<g>
			<g>
				<g opacity="0.3">
					<circle fill="#212121" cx="417.219" cy="110.3" r="18.869"/>
					<circle opacity="0.35" fill="#212121" cx="417.219" cy="110.3" r="18.869"/>
				</g>
				<g>
					<circle fill="#FFFFFF" cx="416.219" cy="109.3" r="18.869"/>
					<circle opacity="0.35" fill="#1B93EB" cx="416.219" cy="109.3" r="18.869"/>
				</g>
			</g>
			<path fill="#1F56A3" d="M407.527,111.46l-0.638-0.691c-0.166-0.183-0.166-0.472,0.026-0.647l1.844-1.705
				c0.088-0.079,0.192-0.121,0.307-0.121c0.13,0,0.245,0.053,0.332,0.148l5.071,5.438l8.726-11.176
				c0.088-0.113,0.219-0.174,0.358-0.174c0.106,0,0.201,0.035,0.28,0.097l1.995,1.539c0.097,0.071,0.156,0.174,0.174,0.298
				c0.008,0.121-0.018,0.245-0.097,0.332l-11.209,14.349L407.527,111.46z"/>
		</g>
		<g>
			<g opacity="0.3">
				<circle fill="#212121" cx="431.397" cy="183.229" r="18.869"/>
				<circle opacity="0.35" fill="#212121" cx="431.397" cy="183.229" r="18.869"/>
			</g>
			<g>
				<circle fill="#FFFFFF" cx="430.397" cy="182.229" r="18.869"/>
				<circle opacity="0.35" fill="#1B93EB" cx="430.397" cy="182.229" r="18.869"/>
			</g>
		</g>
		<path fill="#1F56A3" d="M308.732,98.655l-0.638-0.691c-0.166-0.183-0.166-0.472,0.026-0.647l1.844-1.705
			c0.088-0.079,0.192-0.121,0.307-0.121c0.13,0,0.245,0.053,0.332,0.148l5.071,5.438L324.4,89.9
			c0.088-0.113,0.219-0.174,0.358-0.174c0.106,0,0.201,0.035,0.28,0.097l1.995,1.539c0.097,0.071,0.156,0.174,0.174,0.298
			c0.008,0.121-0.018,0.245-0.097,0.332l-11.209,14.349L308.732,98.655z"/>
		<g>
			<g>
				<g opacity="0.3">
					<circle fill="#212121" cx="358.822" cy="224.164" r="18.869"/>
					<circle opacity="0.35" fill="#212121" cx="358.822" cy="224.164" r="18.869"/>
				</g>
				<g>
					<circle fill="#FFFFFF" cx="357.822" cy="223.164" r="18.869"/>
					<circle opacity="0.35" fill="#1B93EB" cx="357.822" cy="223.164" r="18.869"/>
				</g>
			</g>
			<path fill="#1F56A3" d="M349.204,223.785l-0.638-0.691c-0.166-0.183-0.166-0.472,0.026-0.647l1.844-1.705
				c0.088-0.079,0.192-0.121,0.307-0.121c0.13,0,0.245,0.053,0.332,0.148l5.071,5.438l8.726-11.176
				c0.088-0.113,0.219-0.174,0.358-0.174c0.106,0,0.201,0.035,0.28,0.097l1.995,1.539c0.097,0.071,0.156,0.174,0.174,0.298
				c0.008,0.121-0.018,0.245-0.097,0.332l-11.209,14.349L349.204,223.785z"/>
		</g>
		<g>
			<rect x="486.431" y="45.607" opacity="0.25" fill="#F2F2F2" width="218.623" height="210"/>
			
				<rect x="486.431" y="45.607" fill="none" stroke="#CCCCCB" stroke-width="0.5" stroke-miterlimit="10" width="218.623" height="210"/>
		</g>
		<circle fill="none" stroke="#A3A3A3" stroke-width="1.5" stroke-miterlimit="10" cx="596.24" cy="154.2" r="72.146"/>
		<g>
			<g opacity="0.3">
				<circle fill="#212121" cx="595.464" cy="83.054" r="18.869"/>
				<circle opacity="0.35" fill="#212121" cx="595.464" cy="83.054" r="18.869"/>
			</g>
			<g>
				<circle fill="#FFFFFF" cx="594.464" cy="82.054" r="18.869"/>
				<circle opacity="0.35" fill="#1B93EB" cx="594.464" cy="82.054" r="18.869"/>
			</g>
		</g>
		<g>
			<g opacity="0.3">
				<circle fill="#212121" cx="551.889" cy="99.033" r="18.869"/>
				<circle opacity="0.35" fill="#212121" cx="551.889" cy="99.033" r="18.869"/>
			</g>
			<g>
				<circle fill="#FFFFFF" cx="550.889" cy="98.033" r="18.869"/>
				<circle opacity="0.35" fill="#1B93EB" cx="550.889" cy="98.033" r="18.869"/>
			</g>
		</g>
		<g>
			<g opacity="0.3">
				<circle fill="#212121" cx="525.343" cy="160.528" r="18.869"/>
				<circle opacity="0.35" fill="#212121" cx="525.343" cy="160.528" r="18.869"/>
			</g>
			<g>
				<circle fill="#FFFFFF" cx="524.343" cy="159.528" r="18.869"/>
				<circle opacity="0.35" fill="#1B93EB" cx="524.343" cy="159.528" r="18.869"/>
			</g>
		</g>
		<g>
			<g>
				<g opacity="0.3">
					<circle fill="#212121" cx="650.517" cy="110.3" r="18.869"/>
					<circle opacity="0.35" fill="#212121" cx="650.517" cy="110.3" r="18.869"/>
				</g>
				<g>
					<circle fill="#FFFFFF" cx="649.517" cy="109.3" r="18.869"/>
					<circle opacity="0.35" fill="#1B93EB" cx="649.517" cy="109.3" r="18.869"/>
				</g>
			</g>
		</g>
		<g>
			<g>
				<g opacity="0.3">
					<circle fill="#212121" cx="664.695" cy="183.229" r="18.869"/>
					<circle opacity="0.35" fill="#212121" cx="664.695" cy="183.229" r="18.869"/>
				</g>
				<g>
					<circle fill="#FFFFFF" cx="663.695" cy="182.229" r="18.869"/>
					<circle opacity="0.35" fill="#1B93EB" cx="663.695" cy="182.229" r="18.869"/>
				</g>
			</g>
		</g>
		<g>
			<g>
				<g opacity="0.3">
					<circle fill="#212121" cx="592.119" cy="224.164" r="18.869"/>
					<circle opacity="0.35" fill="#212121" cx="592.119" cy="224.164" r="18.869"/>
				</g>
				<g>
					<circle fill="#FFFFFF" cx="591.119" cy="223.164" r="18.869"/>
					<circle opacity="0.35" fill="#1B93EB" cx="591.119" cy="223.164" r="18.869"/>
				</g>
			</g>
		</g>
		<path fill="#1F56A3" d="M542.03,98.655l-0.638-0.691c-0.166-0.183-0.166-0.472,0.026-0.647l1.844-1.705
			c0.088-0.079,0.192-0.121,0.307-0.121c0.13,0,0.245,0.053,0.332,0.148l5.071,5.438l8.726-11.176
			c0.088-0.113,0.219-0.174,0.358-0.174c0.106,0,0.201,0.035,0.28,0.097l1.995,1.539c0.097,0.071,0.156,0.174,0.174,0.298
			c0.008,0.121-0.018,0.245-0.097,0.332l-11.209,14.349L542.03,98.655z"/>
		<path fill="#1F56A3" d="M640.658,109.921l-0.638-0.691c-0.166-0.183-0.166-0.472,0.026-0.647l1.844-1.705
			c0.088-0.079,0.192-0.121,0.307-0.121c0.13,0,0.245,0.053,0.332,0.148l5.071,5.438l8.726-11.176
			c0.088-0.113,0.219-0.174,0.358-0.174c0.106,0,0.201,0.035,0.28,0.097l1.995,1.539c0.097,0.071,0.156,0.174,0.174,0.298
			c0.008,0.121-0.018,0.245-0.097,0.332l-11.209,14.349L640.658,109.921z"/>
		<path fill="#1F56A3" d="M582.261,223.785l-0.638-0.691c-0.166-0.183-0.166-0.472,0.026-0.647l1.844-1.705
			c0.088-0.079,0.192-0.121,0.307-0.121c0.13,0,0.245,0.053,0.332,0.148l5.071,5.438l8.726-11.176
			c0.088-0.113,0.219-0.174,0.358-0.174c0.106,0,0.201,0.035,0.28,0.097l1.995,1.539c0.097,0.071,0.156,0.174,0.174,0.298
			c0.008,0.121-0.018,0.245-0.097,0.332l-11.209,14.349L582.261,223.785z"/>
	</g>
	<polygon fill="#B32025" points="439.227,176.512 436.123,173.391 430.405,179.109 424.688,173.391 421.568,176.512 
		427.269,182.228 421.568,187.93 424.688,191.05 430.39,185.349 436.107,191.067 439.227,187.946 433.509,182.228 	"/>
	
		<use xlink:href="#New_Symbol_41"  width="21" height="20.403" x="-10.5" y="-10.403" transform="matrix(1 0 0 -1 200.9086 158.5168)" overflow="visible"/>
	
		<use xlink:href="#New_Symbol_42"  width="21" height="20.403" x="-10.5" y="-10.403" transform="matrix(1 0 0 -1 223.3763 32.517)" overflow="visible"/>
	
		<use xlink:href="#New_Symbol_43"  width="21" height="20.403" x="-10.5" y="-10.403" transform="matrix(1 0 0 -1 186.8004 193.1163)" overflow="visible"/>
	<g>
		<rect x="215.465" y="157.848" fill="#3C3C41" width="1.5" height="1"/>
		<path fill="#3C3C41" d="M226.565,158.848h-2.4v-1h2.4V158.848z M221.765,158.848h-2.4v-1h2.4V158.848z"/>
		<rect x="228.965" y="157.848" fill="#3C3C41" width="1.5" height="1"/>
	</g>
	<g>
		<rect x="240.465" y="31.848" fill="#3C3C41" width="1.5" height="1"/>
		<path fill="#3C3C41" d="M276.118,32.848h-2.846v-1h2.846V32.848z M270.426,32.848h-2.846v-1h2.846V32.848z M264.733,32.848h-2.846
			v-1h2.846V32.848z M259.041,32.848h-2.846v-1h2.846V32.848z M253.348,32.848h-2.846v-1h2.846V32.848z M247.656,32.848h-2.846v-1
			h2.846V32.848z"/>
		<rect x="278.965" y="31.848" fill="#3C3C41" width="1.5" height="1"/>
	</g>
	<g>
		<rect x="201.465" y="192.848" fill="#3C3C41" width="1.5" height="1"/>
		<path fill="#3C3C41" d="M212.565,193.848h-2.4v-1h2.4V193.848z M207.765,193.848h-2.4v-1h2.4V193.848z"/>
		<rect x="214.965" y="192.848" fill="#3C3C41" width="1.5" height="1"/>
	</g>
	<g>
		<g>
			<line fill="none" stroke="#3C3C41" stroke-miterlimit="10" x1="233.68" y1="158.719" x2="262.608" y2="158.719"/>
			<g>
				<polygon fill="#3C3C41" points="261.513,162.458 267.99,158.719 261.513,154.979 				"/>
			</g>
		</g>
	</g>
	<g>
		<g>
			<path fill="none" stroke="#3C3C41" stroke-miterlimit="10" d="M224.197,193.116h15.602c2.75,0,7.003-1.025,9.451-2.279
				l23.84-12.205"/>
			<g>
				<polygon fill="#3C3C41" points="225.291,196.856 218.815,193.116 225.291,189.377 				"/>
			</g>
		</g>
	</g>
	<g>
		<g>
			<path fill="none" stroke="#3C3C41" stroke-miterlimit="10" d="M283.228,133.859V27.608c0-2.75,2.25-5,5-5h255.66
				c2.75,0,5,2.25,5,5v41.305"/>
			<g>
				<polygon fill="#3C3C41" points="545.149,67.819 548.889,74.295 552.628,67.819 				"/>
			</g>
		</g>
	</g>
</g>
<g id="Text">
	<g>
		<rect x="93.676" y="151.382" fill="none" width="89.238" height="14.674"/>
		<path fill="#2F2F2F" d="M110.39,163.283h-1.367l-1.641-2.748c-0.15-0.256-0.297-0.473-0.438-0.653
			c-0.142-0.18-0.286-0.327-0.435-0.44c-0.147-0.114-0.308-0.197-0.479-0.25c-0.171-0.052-0.363-0.078-0.577-0.078h-0.943v4.17
			h-1.148v-9.803h2.926c0.428,0,0.823,0.054,1.186,0.16c0.362,0.107,0.677,0.271,0.943,0.489s0.476,0.491,0.626,0.816
			c0.15,0.326,0.226,0.708,0.226,1.146c0,0.342-0.052,0.655-0.154,0.939c-0.103,0.285-0.248,0.539-0.438,0.763
			c-0.188,0.223-0.417,0.413-0.684,0.57s-0.566,0.279-0.898,0.366v0.027c0.164,0.072,0.307,0.156,0.427,0.249
			c0.121,0.094,0.236,0.204,0.346,0.332c0.109,0.127,0.218,0.272,0.324,0.434c0.107,0.162,0.227,0.35,0.359,0.564L110.39,163.283z
			 M104.512,154.52v3.555h1.559c0.287,0,0.553-0.044,0.796-0.13c0.244-0.087,0.455-0.211,0.633-0.373
			c0.178-0.161,0.316-0.359,0.417-0.595c0.1-0.234,0.15-0.498,0.15-0.789c0-0.524-0.17-0.934-0.51-1.228
			c-0.339-0.294-0.83-0.44-1.473-0.44H104.512z"/>
		<path fill="#2F2F2F" d="M117.003,160.064h-4.942c0.018,0.779,0.228,1.381,0.629,1.805c0.4,0.424,0.952,0.636,1.654,0.636
			c0.788,0,1.513-0.26,2.174-0.779v1.053c-0.615,0.446-1.429,0.67-2.44,0.67c-0.989,0-1.767-0.318-2.331-0.954
			c-0.565-0.636-0.848-1.53-0.848-2.683c0-1.09,0.309-1.977,0.926-2.663c0.618-0.686,1.385-1.028,2.301-1.028
			s1.624,0.296,2.126,0.889c0.501,0.592,0.752,1.415,0.752,2.468V160.064z M115.854,159.113c-0.005-0.647-0.161-1.151-0.469-1.511
			c-0.308-0.36-0.734-0.54-1.281-0.54c-0.529,0-0.978,0.188-1.347,0.567c-0.369,0.378-0.598,0.872-0.684,1.483H115.854z"/>
		<path fill="#2F2F2F" d="M123.641,163.283h-1.121v-1.094h-0.027c-0.488,0.838-1.206,1.258-2.153,1.258
			c-0.697,0-1.243-0.185-1.638-0.554c-0.394-0.369-0.591-0.859-0.591-1.47c0-1.309,0.77-2.069,2.311-2.283l2.099-0.294
			c0-1.189-0.481-1.784-1.442-1.784c-0.844,0-1.604,0.287-2.283,0.861v-1.148c0.688-0.438,1.48-0.656,2.379-0.656
			c1.645,0,2.468,0.87,2.468,2.611V163.283z M122.52,159.742l-1.688,0.232c-0.52,0.072-0.912,0.201-1.176,0.386
			c-0.265,0.185-0.396,0.512-0.396,0.981c0,0.342,0.122,0.621,0.365,0.837c0.244,0.217,0.568,0.325,0.975,0.325
			c0.556,0,1.015-0.195,1.377-0.585s0.544-0.883,0.544-1.479V159.742z"/>
		<path fill="#2F2F2F" d="M131.71,163.283h-1.121v-1.189h-0.027c-0.52,0.902-1.321,1.354-2.406,1.354
			c-0.879,0-1.582-0.313-2.108-0.94c-0.526-0.626-0.79-1.479-0.79-2.56c0-1.158,0.292-2.085,0.875-2.782
			c0.584-0.697,1.36-1.046,2.331-1.046c0.962,0,1.661,0.378,2.099,1.135h0.027v-4.334h1.121V163.283z M130.589,160.118v-1.032
			c0-0.565-0.187-1.044-0.561-1.436c-0.373-0.393-0.848-0.588-1.422-0.588c-0.684,0-1.221,0.25-1.613,0.752
			c-0.392,0.501-0.588,1.193-0.588,2.078c0,0.807,0.188,1.443,0.564,1.91c0.376,0.468,0.881,0.701,1.514,0.701
			c0.625,0,1.132-0.226,1.521-0.677S130.589,160.806,130.589,160.118z"/>
		<path fill="#2F2F2F" d="M141.465,157.418c-0.195-0.15-0.479-0.226-0.848-0.226c-0.479,0-0.878,0.226-1.199,0.677
			s-0.482,1.066-0.482,1.846v3.568h-1.121v-7h1.121v1.442h0.027c0.16-0.492,0.403-0.876,0.731-1.152
			c0.328-0.275,0.695-0.413,1.101-0.413c0.292,0,0.516,0.031,0.67,0.096V157.418z"/>
		<path fill="#2F2F2F" d="M148.307,160.064h-4.942c0.019,0.779,0.229,1.381,0.629,1.805c0.401,0.424,0.953,0.636,1.654,0.636
			c0.789,0,1.514-0.26,2.174-0.779v1.053c-0.615,0.446-1.429,0.67-2.44,0.67c-0.988,0-1.766-0.318-2.331-0.954
			c-0.564-0.636-0.848-1.53-0.848-2.683c0-1.09,0.309-1.977,0.927-2.663c0.617-0.686,1.384-1.028,2.3-1.028s1.625,0.296,2.126,0.889
			c0.502,0.592,0.752,1.415,0.752,2.468V160.064z M147.159,159.113c-0.004-0.647-0.16-1.151-0.468-1.511
			c-0.308-0.36-0.735-0.54-1.282-0.54c-0.528,0-0.978,0.188-1.347,0.567c-0.369,0.378-0.597,0.872-0.684,1.483H147.159z"/>
		<path fill="#2F2F2F" d="M156.009,166.503h-1.121v-4.423h-0.027c-0.488,0.911-1.285,1.367-2.393,1.367
			c-0.88,0-1.585-0.313-2.116-0.94c-0.53-0.626-0.796-1.479-0.796-2.56c0-1.162,0.291-2.091,0.875-2.786
			c0.583-0.694,1.367-1.042,2.352-1.042c0.957,0,1.649,0.378,2.078,1.135h0.027v-0.971h1.121V166.503z M154.887,160.132v-1.019
			c0-0.574-0.188-1.06-0.564-1.456s-0.854-0.595-1.432-0.595c-0.675,0-1.208,0.249-1.6,0.748c-0.393,0.499-0.588,1.202-0.588,2.109
			c0,0.807,0.188,1.438,0.567,1.896c0.378,0.458,0.865,0.688,1.463,0.688c0.656,0,1.179-0.225,1.568-0.674
			C154.692,161.382,154.887,160.816,154.887,160.132z"/>
		<path fill="#2F2F2F" d="M163.836,163.283h-1.121v-1.107h-0.027c-0.465,0.848-1.185,1.271-2.16,1.271
			c-1.668,0-2.502-0.994-2.502-2.98v-4.184h1.114v4.006c0,1.477,0.565,2.215,1.695,2.215c0.547,0,0.997-0.202,1.351-0.605
			c0.353-0.403,0.529-0.931,0.529-1.582v-4.033h1.121V163.283z"/>
		<path fill="#2F2F2F" d="M171.656,160.064h-4.942c0.018,0.779,0.228,1.381,0.629,1.805c0.4,0.424,0.952,0.636,1.654,0.636
			c0.788,0,1.513-0.26,2.174-0.779v1.053c-0.615,0.446-1.429,0.67-2.44,0.67c-0.989,0-1.767-0.318-2.331-0.954
			c-0.565-0.636-0.848-1.53-0.848-2.683c0-1.09,0.309-1.977,0.926-2.663c0.618-0.686,1.385-1.028,2.301-1.028
			s1.624,0.296,2.126,0.889c0.501,0.592,0.752,1.415,0.752,2.468V160.064z M170.508,159.113c-0.005-0.647-0.161-1.151-0.469-1.511
			c-0.308-0.36-0.734-0.54-1.281-0.54c-0.529,0-0.978,0.188-1.347,0.567c-0.369,0.378-0.598,0.872-0.684,1.483H170.508z"/>
		<path fill="#2F2F2F" d="M172.898,163.03v-1.203c0.61,0.451,1.282,0.677,2.017,0.677c0.984,0,1.477-0.328,1.477-0.984
			c0-0.188-0.042-0.346-0.127-0.476c-0.084-0.13-0.198-0.245-0.342-0.345c-0.144-0.101-0.312-0.19-0.506-0.271
			c-0.193-0.079-0.402-0.163-0.625-0.249c-0.311-0.123-0.582-0.247-0.817-0.373c-0.234-0.125-0.431-0.267-0.588-0.424
			s-0.275-0.336-0.355-0.536c-0.079-0.201-0.119-0.436-0.119-0.704c0-0.328,0.075-0.619,0.226-0.872s0.351-0.465,0.602-0.636
			c0.25-0.171,0.536-0.3,0.857-0.386c0.321-0.087,0.653-0.13,0.995-0.13c0.605,0,1.148,0.104,1.627,0.314v1.135
			c-0.516-0.338-1.107-0.506-1.777-0.506c-0.21,0-0.399,0.023-0.567,0.071c-0.169,0.048-0.313,0.115-0.435,0.202
			c-0.12,0.086-0.214,0.19-0.28,0.311c-0.065,0.121-0.099,0.254-0.099,0.4c0,0.182,0.033,0.335,0.099,0.458
			c0.066,0.123,0.163,0.232,0.291,0.328c0.127,0.096,0.282,0.182,0.465,0.26c0.182,0.077,0.39,0.161,0.622,0.253
			c0.31,0.118,0.588,0.24,0.834,0.365c0.246,0.126,0.455,0.267,0.629,0.424c0.173,0.157,0.307,0.339,0.399,0.544
			c0.094,0.205,0.141,0.448,0.141,0.731c0,0.346-0.076,0.646-0.229,0.902c-0.152,0.255-0.356,0.467-0.611,0.636
			c-0.256,0.168-0.55,0.294-0.882,0.376c-0.333,0.082-0.682,0.123-1.046,0.123C174.051,163.447,173.427,163.308,172.898,163.03z"/>
		<path fill="#2F2F2F" d="M182.552,163.215c-0.265,0.146-0.613,0.219-1.046,0.219c-1.227,0-1.839-0.684-1.839-2.051v-4.143h-1.203
			v-0.957h1.203v-1.709l1.121-0.362v2.071h1.764v0.957h-1.764v3.944c0,0.469,0.079,0.804,0.239,1.005
			c0.159,0.2,0.424,0.301,0.793,0.301c0.282,0,0.526-0.078,0.731-0.232V163.215z"/>
	</g>
	<g>
		<rect y="7.72" fill="none" width="202.686" height="62.575"/>
		<path fill="#2F2F2F" d="M15.164,19.621h-1.367l-1.641-2.748c-0.15-0.256-0.296-0.473-0.438-0.653
			c-0.141-0.18-0.286-0.327-0.434-0.44c-0.148-0.114-0.308-0.197-0.479-0.25c-0.171-0.052-0.363-0.078-0.578-0.078H9.285v4.17H8.137
			V9.818h2.926c0.429,0,0.824,0.054,1.187,0.16c0.362,0.107,0.677,0.271,0.943,0.489s0.475,0.491,0.625,0.816
			c0.15,0.326,0.226,0.708,0.226,1.146c0,0.342-0.051,0.655-0.153,0.939c-0.103,0.285-0.249,0.539-0.438,0.763
			c-0.189,0.223-0.417,0.413-0.684,0.57s-0.566,0.279-0.899,0.366v0.027c0.164,0.072,0.307,0.156,0.428,0.249
			c0.12,0.094,0.235,0.204,0.345,0.332c0.109,0.127,0.218,0.272,0.325,0.434c0.106,0.162,0.227,0.35,0.358,0.564L15.164,19.621z
			 M9.285,10.858v3.555h1.559c0.287,0,0.553-0.044,0.797-0.13c0.243-0.087,0.454-0.211,0.632-0.373
			c0.178-0.161,0.317-0.359,0.417-0.595c0.101-0.234,0.15-0.498,0.15-0.789c0-0.524-0.17-0.934-0.509-1.228
			c-0.34-0.294-0.831-0.44-1.474-0.44H9.285z"/>
		<path fill="#2F2F2F" d="M21.776,16.401h-4.942c0.019,0.779,0.229,1.381,0.629,1.805c0.401,0.424,0.953,0.636,1.654,0.636
			c0.789,0,1.514-0.26,2.174-0.779v1.053c-0.615,0.446-1.429,0.67-2.44,0.67c-0.988,0-1.766-0.318-2.331-0.954
			c-0.564-0.636-0.848-1.53-0.848-2.683c0-1.09,0.309-1.977,0.927-2.663c0.617-0.686,1.384-1.028,2.3-1.028s1.625,0.296,2.126,0.889
			c0.502,0.592,0.752,1.415,0.752,2.468V16.401z M20.628,15.451c-0.004-0.647-0.16-1.151-0.468-1.511
			c-0.308-0.36-0.735-0.54-1.282-0.54c-0.528,0-0.978,0.188-1.347,0.567c-0.369,0.378-0.597,0.872-0.684,1.483H20.628z"/>
		<path fill="#2F2F2F" d="M28.415,19.621h-1.121v-1.094h-0.027c-0.487,0.838-1.205,1.258-2.153,1.258
			c-0.697,0-1.243-0.185-1.637-0.554c-0.395-0.369-0.592-0.859-0.592-1.47c0-1.309,0.771-2.069,2.311-2.283l2.099-0.294
			c0-1.189-0.48-1.784-1.442-1.784c-0.843,0-1.604,0.287-2.283,0.861v-1.148c0.688-0.438,1.481-0.656,2.379-0.656
			c1.646,0,2.468,0.87,2.468,2.611V19.621z M27.294,16.08l-1.688,0.232c-0.52,0.072-0.911,0.201-1.176,0.386
			c-0.264,0.185-0.396,0.512-0.396,0.981c0,0.342,0.122,0.621,0.366,0.837c0.243,0.217,0.568,0.325,0.974,0.325
			c0.557,0,1.016-0.195,1.378-0.585s0.543-0.883,0.543-1.479V16.08z"/>
		<path fill="#2F2F2F" d="M36.484,19.621h-1.121v-1.189h-0.027c-0.52,0.902-1.322,1.354-2.406,1.354c-0.88,0-1.583-0.313-2.109-0.94
			c-0.526-0.626-0.789-1.479-0.789-2.56c0-1.158,0.291-2.085,0.875-2.782c0.583-0.697,1.36-1.046,2.331-1.046
			c0.961,0,1.661,0.378,2.099,1.135h0.027V9.258h1.121V19.621z M35.363,16.456v-1.032c0-0.565-0.188-1.044-0.561-1.436
			c-0.374-0.393-0.848-0.588-1.422-0.588c-0.684,0-1.222,0.25-1.613,0.752c-0.393,0.501-0.588,1.193-0.588,2.078
			c0,0.807,0.188,1.443,0.563,1.91c0.376,0.468,0.881,0.701,1.515,0.701c0.624,0,1.131-0.226,1.521-0.677
			S35.363,17.144,35.363,16.456z"/>
		<path fill="#2F2F2F" d="M46.048,10.242c-0.219-0.123-0.468-0.185-0.745-0.185c-0.784,0-1.176,0.494-1.176,1.483v1.08h1.641v0.957
			h-1.641v6.043h-1.114v-6.043h-1.196v-0.957h1.196v-1.135c0-0.734,0.212-1.313,0.636-1.74c0.424-0.426,0.952-0.639,1.586-0.639
			c0.342,0,0.612,0.041,0.813,0.123V10.242z"/>
		<path fill="#2F2F2F" d="M50.658,13.756c-0.195-0.15-0.479-0.226-0.848-0.226c-0.479,0-0.878,0.226-1.199,0.677
			s-0.482,1.066-0.482,1.846v3.568h-1.121v-7h1.121v1.442h0.027c0.16-0.492,0.403-0.876,0.731-1.152
			c0.328-0.275,0.695-0.413,1.101-0.413c0.292,0,0.516,0.031,0.67,0.096V13.756z"/>
		<path fill="#2F2F2F" d="M54.801,19.785c-1.034,0-1.86-0.327-2.478-0.981c-0.618-0.653-0.927-1.521-0.927-2.601
			c0-1.176,0.321-2.095,0.964-2.755c0.643-0.661,1.511-0.991,2.604-0.991c1.044,0,1.858,0.321,2.444,0.964
			c0.585,0.643,0.878,1.533,0.878,2.673c0,1.116-0.315,2.011-0.946,2.683C56.709,19.449,55.863,19.785,54.801,19.785z
			 M54.883,13.401c-0.72,0-1.289,0.245-1.709,0.734c-0.419,0.49-0.629,1.166-0.629,2.027c0,0.829,0.212,1.483,0.636,1.962
			s0.991,0.718,1.702,0.718c0.725,0,1.282-0.235,1.672-0.704c0.39-0.47,0.584-1.138,0.584-2.003c0-0.875-0.194-1.55-0.584-2.023
			C56.165,13.637,55.607,13.401,54.883,13.401z"/>
		<path fill="#2F2F2F" d="M69.942,19.621h-1.121v-4.02c0-0.775-0.119-1.336-0.358-1.682c-0.239-0.347-0.642-0.52-1.207-0.52
			c-0.479,0-0.885,0.219-1.22,0.656s-0.503,0.961-0.503,1.572v3.992h-1.121v-4.156c0-1.377-0.53-2.064-1.593-2.064
			c-0.492,0-0.897,0.206-1.217,0.618c-0.318,0.413-0.479,0.949-0.479,1.61v3.992h-1.121v-7h1.121v1.107h0.027
			c0.497-0.848,1.222-1.271,2.174-1.271c0.479,0,0.896,0.133,1.251,0.399s0.6,0.616,0.731,1.05c0.52-0.967,1.295-1.449,2.324-1.449
			c1.541,0,2.311,0.95,2.311,2.851V19.621z"/>
		<path fill="#2F2F2F" d="M80.907,19.621h-1.121v-1.094h-0.027c-0.487,0.838-1.205,1.258-2.153,1.258
			c-0.697,0-1.243-0.185-1.637-0.554c-0.395-0.369-0.592-0.859-0.592-1.47c0-1.309,0.771-2.069,2.311-2.283l2.099-0.294
			c0-1.189-0.48-1.784-1.442-1.784c-0.843,0-1.604,0.287-2.283,0.861v-1.148c0.688-0.438,1.481-0.656,2.379-0.656
			c1.646,0,2.468,0.87,2.468,2.611V19.621z M79.786,16.08l-1.688,0.232c-0.52,0.072-0.911,0.201-1.176,0.386
			c-0.264,0.185-0.396,0.512-0.396,0.981c0,0.342,0.122,0.621,0.366,0.837c0.243,0.217,0.568,0.325,0.974,0.325
			c0.557,0,1.016-0.195,1.378-0.585s0.543-0.883,0.543-1.479V16.08z"/>
		<path fill="#2F2F2F" d="M92.829,22.841h-1.121v-4.423H91.68c-0.487,0.911-1.285,1.367-2.393,1.367
			c-0.879,0-1.585-0.313-2.115-0.94c-0.531-0.626-0.797-1.479-0.797-2.56c0-1.162,0.292-2.091,0.875-2.786
			c0.584-0.694,1.367-1.042,2.352-1.042c0.957,0,1.65,0.378,2.078,1.135h0.027v-0.971h1.121V22.841z M91.708,16.47v-1.019
			c0-0.574-0.188-1.06-0.563-1.456s-0.854-0.595-1.433-0.595c-0.674,0-1.207,0.249-1.6,0.748c-0.392,0.499-0.588,1.202-0.588,2.109
			c0,0.807,0.189,1.438,0.567,1.896c0.379,0.458,0.866,0.688,1.463,0.688c0.656,0,1.18-0.225,1.569-0.674
			C91.513,17.72,91.708,17.153,91.708,16.47z"/>
		<path fill="#2F2F2F" d="M100.656,19.621h-1.121v-1.107h-0.027c-0.465,0.848-1.185,1.271-2.16,1.271
			c-1.668,0-2.502-0.994-2.502-2.98v-4.184h1.114v4.006c0,1.477,0.565,2.215,1.695,2.215c0.547,0,0.997-0.202,1.351-0.605
			c0.353-0.403,0.529-0.931,0.529-1.582v-4.033h1.121V19.621z"/>
		<path fill="#2F2F2F" d="M105.754,19.785c-1.034,0-1.86-0.327-2.478-0.981c-0.618-0.653-0.927-1.521-0.927-2.601
			c0-1.176,0.321-2.095,0.964-2.755c0.643-0.661,1.511-0.991,2.604-0.991c1.044,0,1.858,0.321,2.444,0.964
			c0.585,0.643,0.878,1.533,0.878,2.673c0,1.116-0.315,2.011-0.946,2.683C107.662,19.449,106.816,19.785,105.754,19.785z
			 M105.836,13.401c-0.72,0-1.289,0.245-1.709,0.734c-0.419,0.49-0.629,1.166-0.629,2.027c0,0.829,0.212,1.483,0.636,1.962
			s0.991,0.718,1.702,0.718c0.725,0,1.282-0.235,1.672-0.704c0.39-0.47,0.584-1.138,0.584-2.003c0-0.875-0.194-1.55-0.584-2.023
			C107.118,13.637,106.56,13.401,105.836,13.401z"/>
		<path fill="#2F2F2F" d="M114.606,13.756c-0.196-0.15-0.479-0.226-0.848-0.226c-0.479,0-0.879,0.226-1.2,0.677
			s-0.481,1.066-0.481,1.846v3.568h-1.121v-7h1.121v1.442h0.027c0.159-0.492,0.403-0.876,0.731-1.152
			c0.328-0.275,0.694-0.413,1.101-0.413c0.291,0,0.515,0.031,0.67,0.096V13.756z"/>
		<path fill="#2F2F2F" d="M121.587,19.621h-1.121v-1.107h-0.027c-0.465,0.848-1.186,1.271-2.16,1.271
			c-1.668,0-2.502-0.994-2.502-2.98v-4.184h1.114v4.006c0,1.477,0.564,2.215,1.695,2.215c0.547,0,0.997-0.202,1.35-0.605
			c0.354-0.403,0.53-0.931,0.53-1.582v-4.033h1.121V19.621z"/>
		<path fill="#2F2F2F" d="M133.634,19.621h-1.121v-4.02c0-0.775-0.12-1.336-0.359-1.682c-0.239-0.347-0.642-0.52-1.206-0.52
			c-0.479,0-0.886,0.219-1.221,0.656s-0.502,0.961-0.502,1.572v3.992h-1.121v-4.156c0-1.377-0.531-2.064-1.593-2.064
			c-0.492,0-0.898,0.206-1.217,0.618c-0.319,0.413-0.479,0.949-0.479,1.61v3.992h-1.121v-7h1.121v1.107h0.027
			c0.496-0.848,1.221-1.271,2.174-1.271c0.479,0,0.896,0.133,1.251,0.399s0.599,0.616,0.731,1.05
			c0.52-0.967,1.294-1.449,2.324-1.449c1.54,0,2.311,0.95,2.311,2.851V19.621z"/>
		<path fill="#2F2F2F" d="M145.398,19.621h-1.121v-3.992c0-1.486-0.543-2.229-1.627-2.229c-0.561,0-1.024,0.211-1.392,0.632
			c-0.366,0.422-0.55,0.954-0.55,1.597v3.992h-1.121v-7h1.121v1.162h0.027c0.528-0.885,1.294-1.326,2.297-1.326
			c0.766,0,1.351,0.247,1.757,0.741c0.405,0.495,0.608,1.209,0.608,2.144V19.621z"/>
		<path fill="#2F2F2F" d="M153.112,19.621h-1.121v-1.107h-0.027c-0.465,0.848-1.186,1.271-2.16,1.271
			c-1.668,0-2.502-0.994-2.502-2.98v-4.184h1.114v4.006c0,1.477,0.564,2.215,1.695,2.215c0.547,0,0.997-0.202,1.35-0.605
			c0.354-0.403,0.53-0.931,0.53-1.582v-4.033h1.121V19.621z"/>
		<path fill="#2F2F2F" d="M165.158,19.621h-1.121v-4.02c0-0.775-0.119-1.336-0.358-1.682c-0.239-0.347-0.642-0.52-1.207-0.52
			c-0.479,0-0.885,0.219-1.22,0.656s-0.503,0.961-0.503,1.572v3.992h-1.121v-4.156c0-1.377-0.53-2.064-1.593-2.064
			c-0.492,0-0.897,0.206-1.217,0.618c-0.318,0.413-0.479,0.949-0.479,1.61v3.992h-1.121v-7h1.121v1.107h0.027
			c0.497-0.848,1.222-1.271,2.174-1.271c0.479,0,0.896,0.133,1.251,0.399s0.6,0.616,0.731,1.05c0.52-0.967,1.295-1.449,2.324-1.449
			c1.541,0,2.311,0.95,2.311,2.851V19.621z"/>
		<path fill="#2F2F2F" d="M168.334,18.609h-0.027v1.012h-1.121V9.258h1.121v4.594h0.027c0.551-0.93,1.357-1.395,2.42-1.395
			c0.897,0,1.601,0.313,2.108,0.939c0.509,0.627,0.763,1.467,0.763,2.52c0,1.171-0.285,2.108-0.854,2.813
			c-0.57,0.704-1.35,1.057-2.338,1.057C169.507,19.785,168.807,19.393,168.334,18.609z M168.306,15.786v0.978
			c0,0.578,0.188,1.069,0.563,1.473s0.854,0.605,1.433,0.605c0.679,0,1.211-0.26,1.596-0.779c0.386-0.52,0.578-1.242,0.578-2.167
			c0-0.779-0.181-1.391-0.54-1.832c-0.36-0.442-0.848-0.663-1.463-0.663c-0.652,0-1.176,0.227-1.572,0.68
			C168.505,14.534,168.306,15.103,168.306,15.786z"/>
		<path fill="#2F2F2F" d="M181.03,16.401h-4.942c0.019,0.779,0.229,1.381,0.629,1.805c0.401,0.424,0.953,0.636,1.654,0.636
			c0.789,0,1.514-0.26,2.174-0.779v1.053c-0.615,0.446-1.429,0.67-2.44,0.67c-0.988,0-1.766-0.318-2.331-0.954
			c-0.564-0.636-0.848-1.53-0.848-2.683c0-1.09,0.309-1.977,0.927-2.663c0.617-0.686,1.384-1.028,2.3-1.028s1.625,0.296,2.126,0.889
			c0.502,0.592,0.752,1.415,0.752,2.468V16.401z M179.882,15.451c-0.004-0.647-0.16-1.151-0.468-1.511
			c-0.308-0.36-0.735-0.54-1.282-0.54c-0.528,0-0.978,0.188-1.347,0.567c-0.369,0.378-0.597,0.872-0.684,1.483H179.882z"/>
		<path fill="#2F2F2F" d="M186.365,13.756c-0.196-0.15-0.479-0.226-0.848-0.226c-0.479,0-0.879,0.226-1.2,0.677
			s-0.481,1.066-0.481,1.846v3.568h-1.121v-7h1.121v1.442h0.027c0.159-0.492,0.403-0.876,0.731-1.152
			c0.328-0.275,0.694-0.413,1.101-0.413c0.291,0,0.515,0.031,0.67,0.096V13.756z"/>
		<path fill="#2F2F2F" d="M194.343,19.785c-1.035,0-1.86-0.327-2.479-0.981c-0.617-0.653-0.926-1.521-0.926-2.601
			c0-1.176,0.321-2.095,0.964-2.755c0.643-0.661,1.511-0.991,2.604-0.991c1.043,0,1.858,0.321,2.443,0.964
			c0.586,0.643,0.879,1.533,0.879,2.673c0,1.116-0.315,2.011-0.947,2.683C196.251,19.449,195.404,19.785,194.343,19.785z
			 M194.425,13.401c-0.721,0-1.29,0.245-1.709,0.734c-0.42,0.49-0.629,1.166-0.629,2.027c0,0.829,0.212,1.483,0.636,1.962
			s0.991,0.718,1.702,0.718c0.725,0,1.281-0.235,1.671-0.704c0.39-0.47,0.585-1.138,0.585-2.003c0-0.875-0.195-1.55-0.585-2.023
			C195.706,13.637,195.149,13.401,194.425,13.401z"/>
		<path fill="#2F2F2F" d="M202.898,10.242c-0.219-0.123-0.468-0.185-0.745-0.185c-0.784,0-1.176,0.494-1.176,1.483v1.08h1.641v0.957
			h-1.641v6.043h-1.114v-6.043h-1.196v-0.957h1.196v-1.135c0-0.734,0.212-1.313,0.636-1.74c0.424-0.426,0.952-0.639,1.586-0.639
			c0.342,0,0.612,0.041,0.813,0.123V10.242z"/>
		<path fill="#2F2F2F" d="M21.992,36.421h-1.121v-3.992c0-1.486-0.542-2.229-1.627-2.229c-0.561,0-1.024,0.211-1.391,0.632
			c-0.367,0.422-0.551,0.954-0.551,1.597v3.992h-1.121v-7h1.121v1.162h0.027c0.529-0.885,1.295-1.326,2.297-1.326
			c0.766,0,1.352,0.247,1.757,0.741c0.406,0.495,0.608,1.209,0.608,2.144V36.421z"/>
		<path fill="#2F2F2F" d="M26.995,36.585c-1.034,0-1.86-0.327-2.478-0.981c-0.618-0.653-0.927-1.521-0.927-2.601
			c0-1.176,0.321-2.095,0.964-2.755c0.643-0.661,1.511-0.991,2.604-0.991c1.044,0,1.858,0.321,2.444,0.964
			c0.585,0.643,0.878,1.533,0.878,2.673c0,1.116-0.315,2.011-0.946,2.683C28.903,36.249,28.057,36.585,26.995,36.585z M27.077,30.2
			c-0.72,0-1.289,0.245-1.709,0.734c-0.419,0.49-0.629,1.166-0.629,2.027c0,0.829,0.212,1.483,0.636,1.962s0.991,0.718,1.702,0.718
			c0.725,0,1.282-0.235,1.672-0.704c0.39-0.47,0.584-1.138,0.584-2.003c0-0.875-0.194-1.55-0.584-2.023
			C28.359,30.437,27.802,30.2,27.077,30.2z"/>
		<path fill="#2F2F2F" d="M38.236,36.421h-1.121v-1.189h-0.027c-0.52,0.902-1.322,1.354-2.406,1.354c-0.88,0-1.583-0.313-2.109-0.94
			c-0.526-0.626-0.789-1.479-0.789-2.56c0-1.158,0.291-2.085,0.875-2.782c0.583-0.697,1.36-1.046,2.331-1.046
			c0.961,0,1.661,0.378,2.099,1.135h0.027v-4.334h1.121V36.421z M37.115,33.256v-1.032c0-0.565-0.188-1.044-0.561-1.436
			c-0.374-0.393-0.848-0.588-1.422-0.588c-0.684,0-1.222,0.25-1.613,0.752c-0.393,0.501-0.588,1.193-0.588,2.078
			c0,0.807,0.188,1.443,0.563,1.91c0.376,0.468,0.881,0.701,1.515,0.701c0.624,0,1.131-0.226,1.521-0.677
			S37.115,33.943,37.115,33.256z"/>
		<path fill="#2F2F2F" d="M46.057,33.201h-4.942c0.018,0.779,0.228,1.381,0.629,1.805c0.4,0.424,0.952,0.636,1.654,0.636
			c0.788,0,1.513-0.26,2.174-0.779v1.053c-0.615,0.446-1.429,0.67-2.44,0.67c-0.989,0-1.767-0.318-2.331-0.954
			c-0.565-0.636-0.848-1.53-0.848-2.683c0-1.09,0.309-1.977,0.926-2.663c0.618-0.686,1.385-1.028,2.301-1.028
			s1.624,0.296,2.126,0.889c0.501,0.592,0.752,1.415,0.752,2.468V33.201z M44.909,32.251c-0.005-0.647-0.161-1.151-0.469-1.511
			c-0.308-0.36-0.734-0.54-1.281-0.54c-0.529,0-0.978,0.188-1.347,0.567c-0.369,0.378-0.598,0.872-0.684,1.483H44.909z"/>
		<path fill="#2F2F2F" d="M47.3,36.168v-1.203c0.61,0.451,1.282,0.677,2.017,0.677c0.984,0,1.477-0.328,1.477-0.984
			c0-0.188-0.042-0.346-0.127-0.476c-0.084-0.13-0.198-0.245-0.342-0.345c-0.144-0.101-0.312-0.19-0.506-0.271
			c-0.193-0.079-0.402-0.163-0.625-0.249c-0.311-0.123-0.582-0.247-0.817-0.373c-0.234-0.125-0.431-0.267-0.588-0.424
			s-0.275-0.336-0.355-0.536c-0.079-0.201-0.119-0.436-0.119-0.704c0-0.328,0.075-0.619,0.226-0.872s0.351-0.465,0.602-0.636
			c0.25-0.171,0.536-0.3,0.857-0.386c0.321-0.087,0.653-0.13,0.995-0.13c0.605,0,1.148,0.104,1.627,0.314v1.135
			c-0.516-0.338-1.107-0.506-1.777-0.506c-0.21,0-0.399,0.023-0.567,0.071c-0.169,0.048-0.313,0.115-0.435,0.202
			c-0.12,0.086-0.214,0.19-0.28,0.311c-0.065,0.121-0.099,0.254-0.099,0.4c0,0.182,0.033,0.335,0.099,0.458
			c0.066,0.123,0.163,0.232,0.291,0.328c0.127,0.096,0.282,0.182,0.465,0.26c0.182,0.077,0.39,0.161,0.622,0.253
			c0.31,0.118,0.588,0.24,0.834,0.365c0.246,0.126,0.455,0.267,0.629,0.424c0.173,0.157,0.307,0.339,0.399,0.544
			c0.094,0.205,0.141,0.448,0.141,0.731c0,0.346-0.076,0.646-0.229,0.902c-0.152,0.255-0.356,0.467-0.611,0.636
			c-0.256,0.168-0.55,0.294-0.882,0.376c-0.333,0.082-0.682,0.123-1.046,0.123C48.452,36.585,47.828,36.445,47.3,36.168z"/>
		<path fill="#2F2F2F" d="M58.073,27.644c-0.201,0-0.372-0.068-0.513-0.205c-0.142-0.137-0.212-0.311-0.212-0.52
			c0-0.21,0.07-0.384,0.212-0.523c0.141-0.139,0.312-0.208,0.513-0.208c0.205,0,0.379,0.069,0.522,0.208
			c0.144,0.14,0.216,0.313,0.216,0.523c0,0.2-0.072,0.371-0.216,0.513C58.452,27.572,58.278,27.644,58.073,27.644z M58.62,36.421
			h-1.121v-7h1.121V36.421z"/>
		<path fill="#2F2F2F" d="M66.549,36.421h-1.121v-3.992c0-1.486-0.542-2.229-1.627-2.229c-0.561,0-1.024,0.211-1.391,0.632
			c-0.367,0.422-0.551,0.954-0.551,1.597v3.992h-1.121v-7h1.121v1.162h0.027c0.529-0.885,1.295-1.326,2.297-1.326
			c0.766,0,1.352,0.247,1.757,0.741c0.406,0.495,0.608,1.209,0.608,2.144V36.421z"/>
		<path fill="#2F2F2F" d="M78.122,33.201h-4.942c0.019,0.779,0.229,1.381,0.629,1.805c0.401,0.424,0.953,0.636,1.654,0.636
			c0.789,0,1.514-0.26,2.174-0.779v1.053c-0.615,0.446-1.429,0.67-2.44,0.67c-0.988,0-1.766-0.318-2.331-0.954
			c-0.564-0.636-0.848-1.53-0.848-2.683c0-1.09,0.309-1.977,0.927-2.663c0.617-0.686,1.384-1.028,2.3-1.028s1.625,0.296,2.126,0.889
			c0.502,0.592,0.752,1.415,0.752,2.468V33.201z M76.973,32.251c-0.004-0.647-0.16-1.151-0.468-1.511
			c-0.308-0.36-0.735-0.54-1.282-0.54c-0.528,0-0.978,0.188-1.347,0.567c-0.369,0.378-0.597,0.872-0.684,1.483H76.973z"/>
		<path fill="#2F2F2F" d="M84.761,36.421h-1.121v-1.094h-0.027c-0.487,0.838-1.205,1.258-2.153,1.258
			c-0.697,0-1.243-0.185-1.637-0.554c-0.395-0.369-0.592-0.859-0.592-1.47c0-1.309,0.771-2.069,2.311-2.283l2.099-0.294
			c0-1.189-0.48-1.784-1.442-1.784c-0.843,0-1.604,0.287-2.283,0.861v-1.148c0.688-0.438,1.481-0.656,2.379-0.656
			c1.646,0,2.468,0.87,2.468,2.611V36.421z M83.639,32.88l-1.688,0.232c-0.52,0.072-0.911,0.201-1.176,0.386
			c-0.264,0.185-0.396,0.512-0.396,0.981c0,0.342,0.122,0.621,0.366,0.837c0.243,0.217,0.568,0.325,0.974,0.325
			c0.557,0,1.016-0.195,1.378-0.585s0.543-0.883,0.543-1.479V32.88z"/>
		<path fill="#2F2F2F" d="M91.604,36.1c-0.538,0.323-1.176,0.485-1.914,0.485c-0.998,0-1.804-0.325-2.417-0.975
			c-0.612-0.649-0.919-1.491-0.919-2.525c0-1.153,0.33-2.079,0.991-2.779c0.66-0.699,1.542-1.049,2.646-1.049
			c0.615,0,1.157,0.113,1.627,0.342v1.148c-0.52-0.365-1.076-0.547-1.668-0.547c-0.716,0-1.303,0.256-1.761,0.769
			s-0.687,1.187-0.687,2.021c0,0.82,0.215,1.467,0.646,1.941c0.431,0.474,1.009,0.711,1.733,0.711c0.61,0,1.185-0.203,1.723-0.608
			V36.1z"/>
		<path fill="#2F2F2F" d="M98.902,36.421h-1.121v-4.033c0-1.459-0.542-2.187-1.627-2.187c-0.547,0-1.007,0.211-1.381,0.632
			c-0.373,0.422-0.561,0.963-0.561,1.624v3.965h-1.121V26.058h1.121v4.525h0.027c0.538-0.885,1.304-1.326,2.297-1.326
			c1.577,0,2.365,0.95,2.365,2.851V36.421z"/>
		<path fill="#2F2F2F" d="M110.824,36.421h-1.121v-1.189h-0.027c-0.52,0.902-1.321,1.354-2.406,1.354
			c-0.879,0-1.582-0.313-2.108-0.94c-0.526-0.626-0.79-1.479-0.79-2.56c0-1.158,0.292-2.085,0.875-2.782
			c0.584-0.697,1.36-1.046,2.331-1.046c0.962,0,1.661,0.378,2.099,1.135h0.027v-4.334h1.121V36.421z M109.703,33.256v-1.032
			c0-0.565-0.187-1.044-0.561-1.436c-0.373-0.393-0.848-0.588-1.422-0.588c-0.684,0-1.221,0.25-1.613,0.752
			c-0.392,0.501-0.588,1.193-0.588,2.078c0,0.807,0.188,1.443,0.564,1.91c0.376,0.468,0.881,0.701,1.514,0.701
			c0.625,0,1.132-0.226,1.521-0.677S109.703,33.943,109.703,33.256z"/>
		<path fill="#2F2F2F" d="M117.981,36.421h-1.121v-1.094h-0.027c-0.487,0.838-1.205,1.258-2.153,1.258
			c-0.697,0-1.243-0.185-1.637-0.554c-0.395-0.369-0.592-0.859-0.592-1.47c0-1.309,0.771-2.069,2.311-2.283l2.099-0.294
			c0-1.189-0.48-1.784-1.442-1.784c-0.843,0-1.604,0.287-2.283,0.861v-1.148c0.688-0.438,1.481-0.656,2.379-0.656
			c1.646,0,2.468,0.87,2.468,2.611V36.421z M116.86,32.88l-1.688,0.232c-0.52,0.072-0.911,0.201-1.176,0.386
			c-0.264,0.185-0.396,0.512-0.396,0.981c0,0.342,0.122,0.621,0.366,0.837c0.243,0.217,0.568,0.325,0.974,0.325
			c0.557,0,1.016-0.195,1.378-0.585s0.543-0.883,0.543-1.479V32.88z"/>
		<path fill="#2F2F2F" d="M123.24,36.353c-0.264,0.146-0.612,0.219-1.046,0.219c-1.226,0-1.839-0.684-1.839-2.051v-4.143h-1.203
			v-0.957h1.203v-1.709l1.121-0.362v2.071h1.764v0.957h-1.764v3.944c0,0.469,0.08,0.804,0.239,1.005
			c0.16,0.2,0.424,0.301,0.793,0.301c0.283,0,0.526-0.078,0.731-0.232V36.353z"/>
		<path fill="#2F2F2F" d="M129.857,36.421h-1.121v-1.094h-0.027c-0.488,0.838-1.206,1.258-2.153,1.258
			c-0.697,0-1.243-0.185-1.638-0.554c-0.394-0.369-0.591-0.859-0.591-1.47c0-1.309,0.77-2.069,2.311-2.283l2.099-0.294
			c0-1.189-0.481-1.784-1.442-1.784c-0.844,0-1.604,0.287-2.283,0.861v-1.148c0.688-0.438,1.48-0.656,2.379-0.656
			c1.645,0,2.468,0.87,2.468,2.611V36.421z M128.736,32.88l-1.688,0.232c-0.52,0.072-0.912,0.201-1.176,0.386
			c-0.265,0.185-0.396,0.512-0.396,0.981c0,0.342,0.122,0.621,0.365,0.837c0.244,0.217,0.568,0.325,0.975,0.325
			c0.556,0,1.015-0.195,1.377-0.585s0.544-0.883,0.544-1.479V32.88z"/>
		<path fill="#2F2F2F" d="M140.576,36.1c-0.538,0.323-1.176,0.485-1.914,0.485c-0.998,0-1.804-0.325-2.417-0.975
			c-0.612-0.649-0.919-1.491-0.919-2.525c0-1.153,0.33-2.079,0.991-2.779c0.66-0.699,1.542-1.049,2.646-1.049
			c0.615,0,1.157,0.113,1.627,0.342v1.148c-0.52-0.365-1.076-0.547-1.668-0.547c-0.716,0-1.303,0.256-1.761,0.769
			s-0.687,1.187-0.687,2.021c0,0.82,0.215,1.467,0.646,1.941c0.431,0.474,1.009,0.711,1.733,0.711c0.61,0,1.185-0.203,1.723-0.608
			V36.1z"/>
		<path fill="#2F2F2F" d="M147.746,33.201h-4.942c0.019,0.779,0.229,1.381,0.629,1.805c0.401,0.424,0.953,0.636,1.654,0.636
			c0.789,0,1.514-0.26,2.174-0.779v1.053c-0.615,0.446-1.429,0.67-2.44,0.67c-0.988,0-1.766-0.318-2.331-0.954
			c-0.564-0.636-0.848-1.53-0.848-2.683c0-1.09,0.309-1.977,0.927-2.663c0.617-0.686,1.384-1.028,2.3-1.028s1.625,0.296,2.126,0.889
			c0.502,0.592,0.752,1.415,0.752,2.468V33.201z M146.597,32.251c-0.004-0.647-0.16-1.151-0.468-1.511
			c-0.308-0.36-0.735-0.54-1.282-0.54c-0.528,0-0.978,0.188-1.347,0.567c-0.369,0.378-0.597,0.872-0.684,1.483H146.597z"/>
		<path fill="#2F2F2F" d="M155.239,36.421h-1.121v-3.992c0-1.486-0.542-2.229-1.627-2.229c-0.561,0-1.024,0.211-1.391,0.632
			c-0.367,0.422-0.551,0.954-0.551,1.597v3.992h-1.121v-7h1.121v1.162h0.027c0.529-0.885,1.295-1.326,2.297-1.326
			c0.766,0,1.352,0.247,1.757,0.741c0.406,0.495,0.608,1.209,0.608,2.144V36.421z"/>
		<path fill="#2F2F2F" d="M160.469,36.353c-0.265,0.146-0.613,0.219-1.046,0.219c-1.227,0-1.839-0.684-1.839-2.051v-4.143h-1.203
			v-0.957h1.203v-1.709l1.121-0.362v2.071h1.764v0.957h-1.764v3.944c0,0.469,0.079,0.804,0.239,1.005
			c0.159,0.2,0.424,0.301,0.793,0.301c0.282,0,0.526-0.078,0.731-0.232V36.353z"/>
		<path fill="#2F2F2F" d="M167.462,33.201h-4.942c0.018,0.779,0.228,1.381,0.629,1.805c0.4,0.424,0.952,0.636,1.654,0.636
			c0.788,0,1.513-0.26,2.174-0.779v1.053c-0.615,0.446-1.429,0.67-2.44,0.67c-0.989,0-1.767-0.318-2.331-0.954
			c-0.565-0.636-0.848-1.53-0.848-2.683c0-1.09,0.309-1.977,0.926-2.663c0.618-0.686,1.385-1.028,2.301-1.028
			s1.624,0.296,2.126,0.889c0.501,0.592,0.752,1.415,0.752,2.468V33.201z M166.313,32.251c-0.005-0.647-0.161-1.151-0.469-1.511
			c-0.308-0.36-0.734-0.54-1.281-0.54c-0.529,0-0.978,0.188-1.347,0.567c-0.369,0.378-0.598,0.872-0.684,1.483H166.313z"/>
		<path fill="#2F2F2F" d="M172.795,30.556c-0.196-0.15-0.479-0.226-0.848-0.226c-0.479,0-0.879,0.226-1.2,0.677
			s-0.481,1.066-0.481,1.846v3.568h-1.121v-7h1.121v1.442h0.027c0.159-0.492,0.403-0.876,0.731-1.152
			c0.328-0.275,0.694-0.413,1.101-0.413c0.291,0,0.515,0.031,0.67,0.096V30.556z"/>
		<path fill="#2F2F2F" d="M186.665,29.421l-2.099,7h-1.162l-1.442-5.011c-0.055-0.191-0.092-0.408-0.109-0.649h-0.027
			c-0.014,0.164-0.062,0.376-0.144,0.636l-1.565,5.024h-1.121l-2.119-7h1.176l1.449,5.264c0.045,0.159,0.077,0.369,0.096,0.629
			h0.055c0.014-0.201,0.055-0.415,0.123-0.643l1.613-5.25h1.025l1.449,5.277c0.045,0.168,0.079,0.378,0.103,0.629h0.055
			c0.009-0.178,0.048-0.388,0.116-0.629l1.422-5.277H186.665z"/>
		<path fill="#2F2F2F" d="M188.522,27.644c-0.201,0-0.372-0.068-0.513-0.205c-0.142-0.137-0.212-0.311-0.212-0.52
			c0-0.21,0.07-0.384,0.212-0.523c0.141-0.139,0.312-0.208,0.513-0.208c0.205,0,0.379,0.069,0.522,0.208
			c0.144,0.14,0.216,0.313,0.216,0.523c0,0.2-0.072,0.371-0.216,0.513C188.901,27.572,188.727,27.644,188.522,27.644z
			 M189.069,36.421h-1.121v-7h1.121V36.421z"/>
		<path fill="#2F2F2F" d="M194.517,36.353c-0.265,0.146-0.613,0.219-1.046,0.219c-1.227,0-1.839-0.684-1.839-2.051v-4.143h-1.203
			v-0.957h1.203v-1.709l1.121-0.362v2.071h1.764v0.957h-1.764v3.944c0,0.469,0.079,0.804,0.239,1.005
			c0.159,0.2,0.424,0.301,0.793,0.301c0.282,0,0.526-0.078,0.731-0.232V36.353z"/>
		<path fill="#2F2F2F" d="M201.709,36.421h-1.121v-4.033c0-1.459-0.543-2.187-1.627-2.187c-0.547,0-1.008,0.211-1.381,0.632
			c-0.374,0.422-0.561,0.963-0.561,1.624v3.965h-1.121V26.058h1.121v4.525h0.027c0.537-0.885,1.303-1.326,2.297-1.326
			c1.576,0,2.365,0.95,2.365,2.851V36.421z"/>
		<path fill="#2F2F2F" d="M108.45,53.221h-5.195v-9.803h4.977v1.039h-3.828v3.261h3.541v1.032h-3.541v3.432h4.047V53.221z"/>
		<path fill="#2F2F2F" d="M118.174,53.221h-1.271l-1.039-2.748h-4.156l-0.978,2.748h-1.278l3.76-9.803h1.189L118.174,53.221z
			 M115.487,49.441l-1.538-4.177c-0.051-0.137-0.101-0.355-0.15-0.656h-0.027c-0.046,0.278-0.099,0.497-0.157,0.656l-1.524,4.177
			H115.487z"/>
		<path fill="#2F2F2F" d="M125.884,52.811c-0.725,0.383-1.627,0.574-2.707,0.574c-1.395,0-2.512-0.448-3.35-1.347
			c-0.839-0.897-1.258-2.075-1.258-3.534c0-1.567,0.472-2.834,1.415-3.801c0.943-0.966,2.14-1.449,3.589-1.449
			c0.93,0,1.699,0.135,2.311,0.403v1.224c-0.702-0.392-1.477-0.588-2.324-0.588c-1.126,0-2.038,0.376-2.738,1.128
			c-0.699,0.752-1.049,1.757-1.049,3.015c0,1.194,0.327,2.146,0.98,2.854c0.654,0.708,1.512,1.062,2.574,1.062
			c0.984,0,1.836-0.219,2.557-0.656V52.811z"/>
		<path fill="#2F2F2F" d="M134.878,53.221h-1.148V48.75h-5.072v4.471h-1.148v-9.803h1.148v4.3h5.072v-4.3h1.148V53.221z"/>
		<path fill="#2F2F2F" d="M142.258,55.251h-5.811v-0.813h5.811V55.251z"/>
		<path fill="#2F2F2F" d="M147.24,53.385c-1.385,0-2.499-0.458-3.343-1.374c-0.834-0.916-1.251-2.107-1.251-3.575
			c0-1.581,0.427-2.839,1.278-3.773c0.857-0.938,2.017-1.408,3.479-1.408c1.35,0,2.438,0.456,3.268,1.367
			c0.83,0.912,1.244,2.104,1.244,3.575c0,1.6-0.424,2.864-1.271,3.794c-0.2,0.224-0.414,0.415-0.643,0.574l2.755,1.976h-2.085
			l-1.846-1.381C148.344,53.31,147.814,53.385,147.24,53.385z M147.322,44.293c-1.029,0-1.866,0.372-2.509,1.114
			c-0.643,0.743-0.964,1.719-0.964,2.926c0,1.203,0.312,2.177,0.937,2.919c0.629,0.734,1.447,1.101,2.454,1.101
			c1.076,0,1.924-0.351,2.543-1.053c0.62-0.701,0.93-1.684,0.93-2.946c0-1.299-0.301-2.299-0.902-3.001
			C149.209,44.647,148.38,44.293,147.322,44.293z"/>
		<path fill="#2F2F2F" d="M160.904,49.256c0,2.753-1.241,4.129-3.726,4.129c-2.379,0-3.568-1.323-3.568-3.972v-5.995h1.148v5.92
			c0,2.01,0.848,3.015,2.543,3.015c1.637,0,2.454-0.971,2.454-2.912v-6.022h1.148V49.256z"/>
		<path fill="#2F2F2F" d="M167.232,53.385c-1.39,0-2.503-0.458-3.339-1.374c-0.837-0.916-1.255-2.107-1.255-3.575
			c0-1.576,0.427-2.834,1.278-3.773c0.853-0.938,2.013-1.408,3.479-1.408c1.354,0,2.444,0.456,3.271,1.367
			c0.827,0.912,1.24,2.104,1.24,3.575c0,1.6-0.424,2.864-1.271,3.794S168.654,53.385,167.232,53.385z M167.314,44.293
			c-1.029,0-1.866,0.372-2.509,1.114c-0.643,0.743-0.964,1.719-0.964,2.926c0,1.208,0.313,2.18,0.94,2.916
			c0.626,0.735,1.443,1.104,2.45,1.104c1.076,0,1.924-0.351,2.543-1.053c0.62-0.701,0.93-1.684,0.93-2.946
			c0-1.294-0.301-2.294-0.902-3.001C169.201,44.647,168.372,44.293,167.314,44.293z"/>
		<path fill="#2F2F2F" d="M180.788,53.221h-1.367l-1.641-2.748c-0.15-0.255-0.297-0.473-0.438-0.652
			c-0.142-0.181-0.286-0.327-0.435-0.441c-0.147-0.113-0.308-0.197-0.479-0.249c-0.171-0.053-0.363-0.079-0.577-0.079h-0.943v4.17
			h-1.148v-9.803h2.926c0.428,0,0.823,0.054,1.186,0.161c0.362,0.106,0.677,0.27,0.943,0.488s0.476,0.491,0.626,0.817
			c0.15,0.325,0.226,0.707,0.226,1.145c0,0.342-0.052,0.655-0.154,0.94c-0.103,0.284-0.248,0.539-0.438,0.762
			c-0.188,0.224-0.417,0.414-0.684,0.571s-0.566,0.279-0.898,0.365v0.027c0.164,0.073,0.307,0.156,0.427,0.25
			c0.121,0.093,0.236,0.204,0.346,0.331c0.109,0.128,0.218,0.272,0.324,0.435c0.107,0.161,0.227,0.35,0.359,0.563L180.788,53.221z
			 M174.909,44.457v3.555h1.559c0.287,0,0.553-0.043,0.796-0.13c0.244-0.086,0.455-0.211,0.633-0.372
			c0.178-0.162,0.316-0.36,0.417-0.595c0.1-0.235,0.15-0.498,0.15-0.79c0-0.523-0.17-0.933-0.51-1.227
			c-0.339-0.294-0.83-0.441-1.473-0.441H174.909z"/>
		<path fill="#2F2F2F" d="M189.06,49.256c0,2.753-1.241,4.129-3.726,4.129c-2.379,0-3.568-1.323-3.568-3.972v-5.995h1.148v5.92
			c0,2.01,0.848,3.015,2.543,3.015c1.637,0,2.454-0.971,2.454-2.912v-6.022h1.148V49.256z"/>
		<path fill="#2F2F2F" d="M201.394,53.221h-1.142v-6.576c0-0.52,0.031-1.155,0.096-1.907h-0.027
			c-0.109,0.442-0.208,0.759-0.294,0.95l-3.35,7.533h-0.561l-3.343-7.479c-0.096-0.219-0.194-0.554-0.294-1.005h-0.027
			c0.036,0.393,0.055,1.032,0.055,1.921v6.562H191.4v-9.803h1.518l3.008,6.836c0.232,0.524,0.383,0.916,0.451,1.176h0.041
			c0.195-0.537,0.353-0.938,0.472-1.203l3.069-6.809h1.436V53.221z"/>
	</g>
	<g>
		<rect x="24.524" y="178.632" fill="none" width="147.196" height="38.393"/>
		<path fill="#2F2F2F" d="M36.127,188.996H34.76l-1.641-2.748c-0.15-0.256-0.297-0.473-0.438-0.653
			c-0.142-0.18-0.286-0.327-0.435-0.44c-0.147-0.114-0.308-0.197-0.479-0.25c-0.171-0.052-0.363-0.078-0.577-0.078h-0.943v4.17
			h-1.148v-9.803h2.926c0.428,0,0.823,0.054,1.186,0.16c0.362,0.107,0.677,0.271,0.943,0.489s0.476,0.491,0.626,0.816
			c0.15,0.326,0.226,0.708,0.226,1.146c0,0.342-0.052,0.655-0.154,0.939c-0.103,0.285-0.248,0.539-0.438,0.763
			c-0.188,0.223-0.417,0.413-0.684,0.57s-0.566,0.279-0.898,0.366v0.027c0.164,0.072,0.307,0.156,0.427,0.249
			c0.121,0.094,0.236,0.204,0.346,0.332c0.109,0.127,0.218,0.272,0.324,0.434c0.107,0.162,0.227,0.35,0.359,0.564L36.127,188.996z
			 M30.248,180.233v3.555h1.559c0.287,0,0.553-0.044,0.796-0.13c0.244-0.087,0.455-0.211,0.633-0.373
			c0.178-0.161,0.316-0.359,0.417-0.595c0.1-0.234,0.15-0.498,0.15-0.789c0-0.524-0.17-0.934-0.51-1.228
			c-0.339-0.294-0.83-0.44-1.473-0.44H30.248z"/>
		<path fill="#2F2F2F" d="M42.739,185.776h-4.942c0.018,0.779,0.228,1.381,0.629,1.805c0.4,0.424,0.952,0.636,1.654,0.636
			c0.788,0,1.513-0.26,2.174-0.779v1.053c-0.615,0.446-1.429,0.67-2.44,0.67c-0.989,0-1.767-0.318-2.331-0.954
			c-0.565-0.636-0.848-1.53-0.848-2.683c0-1.09,0.309-1.977,0.926-2.663c0.618-0.686,1.385-1.028,2.301-1.028
			s1.624,0.296,2.126,0.889c0.501,0.592,0.752,1.415,0.752,2.468V185.776z M41.591,184.826c-0.005-0.647-0.161-1.151-0.469-1.511
			c-0.308-0.36-0.734-0.54-1.281-0.54c-0.529,0-0.978,0.188-1.347,0.567c-0.369,0.378-0.598,0.872-0.684,1.483H41.591z"/>
		<path fill="#2F2F2F" d="M43.981,188.743v-1.203c0.61,0.451,1.282,0.677,2.017,0.677c0.984,0,1.477-0.328,1.477-0.984
			c0-0.188-0.042-0.346-0.127-0.476c-0.084-0.13-0.198-0.245-0.342-0.345c-0.144-0.101-0.312-0.19-0.506-0.271
			c-0.193-0.079-0.402-0.163-0.625-0.249c-0.311-0.123-0.582-0.247-0.817-0.373c-0.234-0.125-0.431-0.267-0.588-0.424
			s-0.275-0.336-0.355-0.536c-0.079-0.201-0.119-0.436-0.119-0.704c0-0.328,0.075-0.619,0.226-0.872s0.351-0.465,0.602-0.636
			c0.25-0.171,0.536-0.3,0.857-0.386c0.321-0.087,0.653-0.13,0.995-0.13c0.605,0,1.148,0.104,1.627,0.314v1.135
			c-0.516-0.338-1.107-0.506-1.777-0.506c-0.21,0-0.399,0.023-0.567,0.071c-0.169,0.048-0.313,0.115-0.435,0.202
			c-0.12,0.086-0.214,0.19-0.28,0.311c-0.065,0.121-0.099,0.254-0.099,0.4c0,0.182,0.033,0.335,0.099,0.458
			c0.066,0.123,0.163,0.232,0.291,0.328c0.127,0.096,0.282,0.182,0.465,0.26c0.182,0.077,0.39,0.161,0.622,0.253
			c0.31,0.118,0.588,0.24,0.834,0.365c0.246,0.126,0.455,0.267,0.629,0.424c0.173,0.157,0.307,0.339,0.399,0.544
			c0.094,0.205,0.141,0.448,0.141,0.731c0,0.346-0.076,0.646-0.229,0.902c-0.152,0.255-0.356,0.467-0.611,0.636
			c-0.256,0.168-0.55,0.294-0.882,0.376c-0.333,0.082-0.682,0.123-1.046,0.123C45.134,189.16,44.51,189.021,43.981,188.743z"/>
		<path fill="#2F2F2F" d="M51.355,187.984h-0.027v4.231h-1.121v-10.22h1.121v1.23h0.027c0.551-0.93,1.357-1.395,2.42-1.395
			c0.902,0,1.606,0.313,2.112,0.939c0.506,0.627,0.759,1.467,0.759,2.52c0,1.171-0.285,2.108-0.854,2.812
			c-0.57,0.704-1.35,1.057-2.338,1.057C52.547,189.16,51.847,188.768,51.355,187.984z M51.328,185.161v0.978
			c0,0.578,0.188,1.069,0.563,1.473s0.854,0.605,1.433,0.605c0.679,0,1.211-0.26,1.596-0.779c0.386-0.52,0.578-1.242,0.578-2.167
			c0-0.779-0.181-1.391-0.54-1.832c-0.36-0.442-0.848-0.663-1.463-0.663c-0.652,0-1.176,0.227-1.572,0.68
			C51.526,183.909,51.328,184.478,51.328,185.161z"/>
		<path fill="#2F2F2F" d="M61.351,189.16c-1.034,0-1.86-0.327-2.478-0.981c-0.618-0.653-0.927-1.521-0.927-2.601
			c0-1.176,0.321-2.095,0.964-2.755c0.643-0.661,1.511-0.991,2.604-0.991c1.044,0,1.858,0.321,2.444,0.964
			c0.585,0.643,0.878,1.533,0.878,2.673c0,1.116-0.315,2.011-0.946,2.683C63.26,188.824,62.414,189.16,61.351,189.16z
			 M61.433,182.776c-0.72,0-1.289,0.245-1.709,0.734c-0.419,0.49-0.629,1.166-0.629,2.027c0,0.829,0.212,1.483,0.636,1.962
			s0.991,0.718,1.702,0.718c0.725,0,1.282-0.235,1.672-0.704c0.39-0.47,0.584-1.138,0.584-2.003c0-0.875-0.194-1.55-0.584-2.023
			C62.716,183.012,62.158,182.776,61.433,182.776z"/>
		<path fill="#2F2F2F" d="M72.364,188.996h-1.121v-3.992c0-1.486-0.543-2.229-1.627-2.229c-0.561,0-1.024,0.211-1.392,0.632
			c-0.366,0.422-0.55,0.954-0.55,1.597v3.992h-1.121v-7h1.121v1.162h0.027c0.528-0.885,1.294-1.326,2.297-1.326
			c0.766,0,1.351,0.247,1.757,0.741c0.405,0.495,0.608,1.209,0.608,2.144V188.996z"/>
		<path fill="#2F2F2F" d="M74.012,188.743v-1.203c0.611,0.451,1.283,0.677,2.017,0.677c0.984,0,1.477-0.328,1.477-0.984
			c0-0.188-0.042-0.346-0.126-0.476c-0.085-0.13-0.198-0.245-0.342-0.345c-0.144-0.101-0.312-0.19-0.506-0.271
			c-0.194-0.079-0.402-0.163-0.626-0.249c-0.31-0.123-0.582-0.247-0.816-0.373c-0.235-0.125-0.431-0.267-0.588-0.424
			s-0.276-0.336-0.355-0.536c-0.08-0.201-0.12-0.436-0.12-0.704c0-0.328,0.075-0.619,0.226-0.872s0.352-0.465,0.602-0.636
			c0.251-0.171,0.537-0.3,0.858-0.386c0.321-0.087,0.652-0.13,0.994-0.13c0.606,0,1.148,0.104,1.627,0.314v1.135
			c-0.515-0.338-1.107-0.506-1.777-0.506c-0.209,0-0.398,0.023-0.567,0.071c-0.168,0.048-0.313,0.115-0.434,0.202
			c-0.121,0.086-0.215,0.19-0.28,0.311c-0.066,0.121-0.1,0.254-0.1,0.4c0,0.182,0.033,0.335,0.1,0.458
			c0.065,0.123,0.163,0.232,0.29,0.328c0.128,0.096,0.283,0.182,0.465,0.26c0.183,0.077,0.39,0.161,0.622,0.253
			c0.311,0.118,0.588,0.24,0.834,0.365c0.246,0.126,0.456,0.267,0.629,0.424c0.174,0.157,0.307,0.339,0.4,0.544
			c0.093,0.205,0.14,0.448,0.14,0.731c0,0.346-0.076,0.646-0.229,0.902c-0.153,0.255-0.356,0.467-0.612,0.636
			c-0.255,0.168-0.549,0.294-0.882,0.376c-0.332,0.082-0.681,0.123-1.046,0.123C75.165,189.16,74.541,189.021,74.012,188.743z"/>
		<path fill="#2F2F2F" d="M85.967,185.776h-4.942c0.019,0.779,0.229,1.381,0.629,1.805c0.401,0.424,0.953,0.636,1.654,0.636
			c0.789,0,1.514-0.26,2.174-0.779v1.053c-0.615,0.446-1.429,0.67-2.44,0.67c-0.988,0-1.766-0.318-2.331-0.954
			c-0.564-0.636-0.848-1.53-0.848-2.683c0-1.09,0.309-1.977,0.927-2.663c0.617-0.686,1.384-1.028,2.3-1.028s1.625,0.296,2.126,0.889
			c0.502,0.592,0.752,1.415,0.752,2.468V185.776z M84.818,184.826c-0.004-0.647-0.16-1.151-0.468-1.511
			c-0.308-0.36-0.735-0.54-1.282-0.54c-0.528,0-0.978,0.188-1.347,0.567c-0.369,0.378-0.597,0.872-0.684,1.483H84.818z"/>
		<path fill="#2F2F2F" d="M96.508,188.996h-1.121v-1.094h-0.027c-0.487,0.838-1.205,1.258-2.153,1.258
			c-0.697,0-1.243-0.185-1.637-0.554c-0.395-0.369-0.592-0.859-0.592-1.47c0-1.309,0.771-2.069,2.311-2.283l2.099-0.294
			c0-1.189-0.48-1.784-1.442-1.784c-0.843,0-1.604,0.287-2.283,0.861v-1.148c0.688-0.438,1.481-0.656,2.379-0.656
			c1.646,0,2.468,0.87,2.468,2.611V188.996z M95.387,185.455l-1.688,0.232c-0.52,0.072-0.911,0.201-1.176,0.386
			c-0.264,0.185-0.396,0.512-0.396,0.981c0,0.342,0.122,0.621,0.366,0.837c0.243,0.217,0.568,0.325,0.974,0.325
			c0.557,0,1.016-0.195,1.378-0.585s0.543-0.883,0.543-1.479V185.455z"/>
		<path fill="#2F2F2F" d="M101.943,179.617c-0.219-0.123-0.467-0.185-0.745-0.185c-0.783,0-1.176,0.494-1.176,1.483v1.08h1.641
			v0.957h-1.641v6.043h-1.114v-6.043h-1.196v-0.957h1.196v-1.135c0-0.734,0.212-1.313,0.636-1.74
			c0.424-0.426,0.953-0.639,1.586-0.639c0.342,0,0.613,0.041,0.813,0.123V179.617z"/>
		<path fill="#2F2F2F" d="M106.58,188.928c-0.265,0.146-0.613,0.219-1.046,0.219c-1.227,0-1.839-0.684-1.839-2.051v-4.143h-1.203
			v-0.957h1.203v-1.709l1.121-0.362v2.071h1.764v0.957h-1.764v3.944c0,0.469,0.079,0.804,0.239,1.005
			c0.159,0.2,0.424,0.301,0.793,0.301c0.282,0,0.526-0.078,0.731-0.232V188.928z"/>
		<path fill="#2F2F2F" d="M113.572,185.776h-4.942c0.019,0.779,0.229,1.381,0.629,1.805c0.401,0.424,0.953,0.636,1.654,0.636
			c0.789,0,1.514-0.26,2.174-0.779v1.053c-0.615,0.446-1.429,0.67-2.44,0.67c-0.988,0-1.766-0.318-2.331-0.954
			c-0.564-0.636-0.848-1.53-0.848-2.683c0-1.09,0.309-1.977,0.927-2.663c0.617-0.686,1.384-1.028,2.3-1.028s1.625,0.296,2.126,0.889
			c0.502,0.592,0.752,1.415,0.752,2.468V185.776z M112.424,184.826c-0.004-0.647-0.16-1.151-0.468-1.511
			c-0.308-0.36-0.735-0.54-1.282-0.54c-0.528,0-0.978,0.188-1.347,0.567c-0.369,0.378-0.597,0.872-0.684,1.483H112.424z"/>
		<path fill="#2F2F2F" d="M118.905,183.131c-0.195-0.15-0.479-0.226-0.848-0.226c-0.479,0-0.878,0.226-1.199,0.677
			s-0.482,1.066-0.482,1.846v3.568h-1.121v-7h1.121v1.442h0.027c0.16-0.492,0.403-0.876,0.731-1.152
			c0.328-0.275,0.695-0.413,1.101-0.413c0.292,0,0.516,0.031,0.67,0.096V183.131z"/>
		<path fill="#2F2F2F" d="M129.931,192.216h-1.121v-4.423h-0.027c-0.487,0.911-1.285,1.367-2.393,1.367
			c-0.879,0-1.585-0.313-2.115-0.94c-0.531-0.626-0.797-1.479-0.797-2.56c0-1.162,0.292-2.091,0.875-2.786
			c0.584-0.694,1.367-1.042,2.352-1.042c0.957,0,1.65,0.378,2.078,1.135h0.027v-0.971h1.121V192.216z M128.81,185.845v-1.019
			c0-0.574-0.188-1.06-0.563-1.456s-0.854-0.595-1.433-0.595c-0.674,0-1.207,0.249-1.6,0.748c-0.392,0.499-0.588,1.202-0.588,2.109
			c0,0.807,0.189,1.438,0.567,1.896c0.379,0.458,0.866,0.688,1.463,0.688c0.656,0,1.18-0.225,1.569-0.674
			C128.616,187.095,128.81,186.528,128.81,185.845z"/>
		<path fill="#2F2F2F" d="M137.76,188.996h-1.121v-1.107h-0.027c-0.465,0.848-1.186,1.271-2.16,1.271
			c-1.668,0-2.502-0.994-2.502-2.98v-4.184h1.114v4.006c0,1.477,0.564,2.215,1.695,2.215c0.547,0,0.997-0.202,1.35-0.605
			c0.354-0.403,0.53-0.931,0.53-1.582v-4.033h1.121V188.996z"/>
		<path fill="#2F2F2F" d="M142.857,189.16c-1.035,0-1.86-0.327-2.479-0.981c-0.617-0.653-0.926-1.521-0.926-2.601
			c0-1.176,0.321-2.095,0.964-2.755c0.643-0.661,1.511-0.991,2.604-0.991c1.043,0,1.858,0.321,2.443,0.964
			c0.586,0.643,0.879,1.533,0.879,2.673c0,1.116-0.315,2.011-0.947,2.683C144.765,188.824,143.919,189.16,142.857,189.16z
			 M142.939,182.776c-0.721,0-1.29,0.245-1.709,0.734c-0.42,0.49-0.629,1.166-0.629,2.027c0,0.829,0.212,1.483,0.636,1.962
			s0.991,0.718,1.702,0.718c0.725,0,1.281-0.235,1.671-0.704c0.39-0.47,0.585-1.138,0.585-2.003c0-0.875-0.195-1.55-0.585-2.023
			C144.221,183.012,143.664,182.776,142.939,182.776z"/>
		<path fill="#2F2F2F" d="M151.709,183.131c-0.195-0.15-0.479-0.226-0.848-0.226c-0.479,0-0.878,0.226-1.199,0.677
			s-0.482,1.066-0.482,1.846v3.568h-1.121v-7h1.121v1.442h0.027c0.16-0.492,0.403-0.876,0.731-1.152
			c0.328-0.275,0.695-0.413,1.101-0.413c0.292,0,0.516,0.031,0.67,0.096V183.131z"/>
		<path fill="#2F2F2F" d="M158.689,188.996h-1.121v-1.107h-0.027c-0.465,0.848-1.185,1.271-2.16,1.271
			c-1.668,0-2.502-0.994-2.502-2.98v-4.184h1.114v4.006c0,1.477,0.565,2.215,1.695,2.215c0.547,0,0.997-0.202,1.351-0.605
			c0.353-0.403,0.529-0.931,0.529-1.582v-4.033h1.121V188.996z"/>
		<path fill="#2F2F2F" d="M170.736,188.996h-1.121v-4.02c0-0.775-0.119-1.336-0.358-1.682c-0.239-0.347-0.642-0.52-1.207-0.52
			c-0.479,0-0.885,0.219-1.22,0.656s-0.503,0.961-0.503,1.572v3.992h-1.121v-4.156c0-1.377-0.53-2.064-1.593-2.064
			c-0.492,0-0.897,0.206-1.217,0.618c-0.318,0.413-0.479,0.949-0.479,1.61v3.992h-1.121v-7h1.121v1.107h0.027
			c0.497-0.848,1.222-1.271,2.174-1.271c0.479,0,0.896,0.133,1.251,0.399s0.6,0.616,0.731,1.05c0.52-0.967,1.295-1.449,2.324-1.449
			c1.541,0,2.311,0.95,2.311,2.851V188.996z"/>
		<path fill="#2F2F2F" d="M73.115,205.796h-1.121v-3.992c0-1.486-0.542-2.229-1.627-2.229c-0.561,0-1.024,0.211-1.391,0.632
			c-0.367,0.422-0.551,0.954-0.551,1.597v3.992h-1.121v-7h1.121v1.162h0.027c0.529-0.885,1.295-1.326,2.297-1.326
			c0.766,0,1.352,0.247,1.757,0.741c0.406,0.495,0.608,1.209,0.608,2.144V205.796z"/>
		<path fill="#2F2F2F" d="M80.829,205.796h-1.121v-1.107H79.68c-0.465,0.848-1.185,1.271-2.16,1.271
			c-1.668,0-2.502-0.994-2.502-2.98v-4.184h1.114v4.006c0,1.477,0.565,2.215,1.695,2.215c0.547,0,0.997-0.202,1.351-0.605
			c0.353-0.403,0.529-0.931,0.529-1.582v-4.033h1.121V205.796z"/>
		<path fill="#2F2F2F" d="M92.876,205.796h-1.121v-4.02c0-0.775-0.12-1.336-0.359-1.682c-0.239-0.347-0.642-0.52-1.206-0.52
			c-0.479,0-0.886,0.219-1.221,0.656s-0.502,0.961-0.502,1.572v3.992h-1.121v-4.156c0-1.377-0.531-2.064-1.593-2.064
			c-0.492,0-0.898,0.206-1.217,0.618c-0.319,0.413-0.479,0.949-0.479,1.61v3.992h-1.121v-7h1.121v1.107h0.027
			c0.496-0.848,1.221-1.271,2.174-1.271c0.479,0,0.896,0.133,1.251,0.399s0.599,0.616,0.731,1.05
			c0.52-0.967,1.294-1.449,2.324-1.449c1.54,0,2.311,0.95,2.311,2.851V205.796z"/>
		<path fill="#2F2F2F" d="M96.051,204.784h-0.027v1.012h-1.121v-10.363h1.121v4.594h0.027c0.552-0.93,1.358-1.395,2.42-1.395
			c0.898,0,1.601,0.313,2.109,0.939c0.508,0.627,0.762,1.467,0.762,2.52c0,1.171-0.284,2.108-0.854,2.812
			c-0.569,0.704-1.349,1.057-2.338,1.057C97.224,205.96,96.525,205.568,96.051,204.784z M96.023,201.961v0.978
			c0,0.578,0.188,1.069,0.564,1.473s0.854,0.605,1.432,0.605c0.68,0,1.211-0.26,1.597-0.779c0.385-0.52,0.577-1.242,0.577-2.167
			c0-0.779-0.18-1.391-0.54-1.832c-0.359-0.442-0.848-0.663-1.463-0.663c-0.651,0-1.176,0.227-1.572,0.68
			C96.221,200.709,96.023,201.277,96.023,201.961z"/>
		<path fill="#2F2F2F" d="M108.748,202.576h-4.942c0.018,0.779,0.228,1.381,0.629,1.805c0.4,0.424,0.952,0.636,1.654,0.636
			c0.788,0,1.513-0.26,2.174-0.779v1.053c-0.615,0.446-1.429,0.67-2.44,0.67c-0.989,0-1.767-0.318-2.331-0.954
			c-0.565-0.636-0.848-1.53-0.848-2.683c0-1.09,0.309-1.977,0.926-2.663c0.618-0.686,1.385-1.028,2.301-1.028
			s1.624,0.296,2.126,0.889c0.501,0.592,0.752,1.415,0.752,2.468V202.576z M107.599,201.626c-0.005-0.647-0.161-1.151-0.469-1.511
			c-0.308-0.36-0.734-0.54-1.281-0.54c-0.529,0-0.978,0.188-1.347,0.567c-0.369,0.378-0.598,0.872-0.684,1.483H107.599z"/>
		<path fill="#2F2F2F" d="M114.082,199.931c-0.195-0.15-0.479-0.226-0.848-0.226c-0.479,0-0.878,0.226-1.199,0.677
			s-0.482,1.066-0.482,1.846v3.568h-1.121v-7h1.121v1.442h0.027c0.16-0.492,0.403-0.876,0.731-1.152
			c0.328-0.275,0.695-0.413,1.101-0.413c0.292,0,0.516,0.031,0.67,0.096V199.931z"/>
		<path fill="#2F2F2F" d="M122.059,205.96c-1.034,0-1.86-0.327-2.478-0.981c-0.618-0.653-0.927-1.521-0.927-2.601
			c0-1.176,0.321-2.095,0.964-2.755c0.643-0.661,1.511-0.991,2.604-0.991c1.044,0,1.858,0.321,2.444,0.964
			c0.585,0.643,0.878,1.533,0.878,2.673c0,1.116-0.315,2.011-0.946,2.683C123.968,205.624,123.122,205.96,122.059,205.96z
			 M122.141,199.575c-0.72,0-1.289,0.245-1.709,0.734c-0.419,0.49-0.629,1.166-0.629,2.027c0,0.829,0.212,1.483,0.636,1.962
			s0.991,0.718,1.702,0.718c0.725,0,1.282-0.235,1.672-0.704c0.39-0.47,0.584-1.138,0.584-2.003c0-0.875-0.194-1.55-0.584-2.023
			C123.424,199.812,122.866,199.575,122.141,199.575z"/>
		<path fill="#2F2F2F" d="M130.615,196.417c-0.219-0.123-0.467-0.185-0.745-0.185c-0.783,0-1.176,0.494-1.176,1.483v1.08h1.641
			v0.957h-1.641v6.043h-1.114v-6.043h-1.196v-0.957h1.196v-1.135c0-0.734,0.212-1.313,0.636-1.74
			c0.424-0.426,0.953-0.639,1.586-0.639c0.342,0,0.613,0.041,0.813,0.123V196.417z"/>
		<path fill="#2F2F2F" d="M141.183,205.796h-1.121v-3.992c0-1.486-0.542-2.229-1.627-2.229c-0.561,0-1.024,0.211-1.391,0.632
			c-0.367,0.422-0.551,0.954-0.551,1.597v3.992h-1.121v-7h1.121v1.162h0.027c0.529-0.885,1.295-1.326,2.297-1.326
			c0.766,0,1.352,0.247,1.757,0.741c0.406,0.495,0.608,1.209,0.608,2.144V205.796z"/>
		<path fill="#2F2F2F" d="M146.187,205.96c-1.035,0-1.86-0.327-2.479-0.981c-0.617-0.653-0.926-1.521-0.926-2.601
			c0-1.176,0.321-2.095,0.964-2.755c0.643-0.661,1.511-0.991,2.604-0.991c1.043,0,1.858,0.321,2.443,0.964
			c0.586,0.643,0.879,1.533,0.879,2.673c0,1.116-0.315,2.011-0.947,2.683C148.096,205.624,147.249,205.96,146.187,205.96z
			 M146.269,199.575c-0.721,0-1.29,0.245-1.709,0.734c-0.42,0.49-0.629,1.166-0.629,2.027c0,0.829,0.212,1.483,0.636,1.962
			s0.991,0.718,1.702,0.718c0.725,0,1.281-0.235,1.671-0.704c0.39-0.47,0.585-1.138,0.585-2.003c0-0.875-0.195-1.55-0.585-2.023
			C147.551,199.812,146.994,199.575,146.269,199.575z"/>
		<path fill="#2F2F2F" d="M157.428,205.796h-1.121v-1.189h-0.027c-0.52,0.902-1.321,1.354-2.406,1.354
			c-0.879,0-1.582-0.313-2.108-0.94c-0.526-0.626-0.79-1.479-0.79-2.56c0-1.158,0.292-2.085,0.875-2.782
			c0.584-0.697,1.36-1.046,2.331-1.046c0.962,0,1.661,0.378,2.099,1.135h0.027v-4.334h1.121V205.796z M156.306,202.631v-1.032
			c0-0.565-0.187-1.044-0.561-1.436c-0.373-0.393-0.848-0.588-1.422-0.588c-0.684,0-1.221,0.25-1.613,0.752
			c-0.392,0.501-0.588,1.193-0.588,2.078c0,0.807,0.188,1.443,0.564,1.91c0.376,0.468,0.881,0.701,1.514,0.701
			c0.625,0,1.132-0.226,1.521-0.677S156.306,203.318,156.306,202.631z"/>
		<path fill="#2F2F2F" d="M165.249,202.576h-4.942c0.019,0.779,0.229,1.381,0.629,1.805c0.401,0.424,0.953,0.636,1.654,0.636
			c0.789,0,1.514-0.26,2.174-0.779v1.053c-0.615,0.446-1.429,0.67-2.44,0.67c-0.988,0-1.766-0.318-2.331-0.954
			c-0.564-0.636-0.848-1.53-0.848-2.683c0-1.09,0.309-1.977,0.927-2.663c0.617-0.686,1.384-1.028,2.3-1.028s1.625,0.296,2.126,0.889
			c0.502,0.592,0.752,1.415,0.752,2.468V202.576z M164.1,201.626c-0.004-0.647-0.16-1.151-0.468-1.511
			c-0.308-0.36-0.735-0.54-1.282-0.54c-0.528,0-0.978,0.188-1.347,0.567c-0.369,0.378-0.597,0.872-0.684,1.483H164.1z"/>
		<path fill="#2F2F2F" d="M166.491,205.543v-1.203c0.611,0.451,1.283,0.677,2.017,0.677c0.984,0,1.477-0.328,1.477-0.984
			c0-0.188-0.042-0.346-0.126-0.476c-0.085-0.13-0.198-0.245-0.342-0.345c-0.144-0.101-0.312-0.19-0.506-0.271
			c-0.194-0.079-0.402-0.163-0.626-0.249c-0.31-0.123-0.582-0.247-0.816-0.373c-0.235-0.125-0.431-0.267-0.588-0.424
			s-0.276-0.336-0.355-0.536c-0.08-0.201-0.12-0.436-0.12-0.704c0-0.328,0.075-0.619,0.226-0.872s0.352-0.465,0.602-0.636
			c0.251-0.171,0.537-0.3,0.858-0.386c0.321-0.087,0.652-0.13,0.994-0.13c0.606,0,1.148,0.104,1.627,0.314v1.135
			c-0.515-0.338-1.107-0.506-1.777-0.506c-0.209,0-0.398,0.023-0.567,0.071c-0.168,0.048-0.313,0.115-0.434,0.202
			c-0.121,0.086-0.215,0.19-0.28,0.311c-0.066,0.121-0.1,0.254-0.1,0.4c0,0.182,0.033,0.335,0.1,0.458
			c0.065,0.123,0.163,0.232,0.29,0.328c0.128,0.096,0.283,0.182,0.465,0.26c0.183,0.077,0.39,0.161,0.622,0.253
			c0.311,0.118,0.588,0.24,0.834,0.365c0.246,0.126,0.456,0.267,0.629,0.424c0.174,0.157,0.307,0.339,0.4,0.544
			c0.093,0.205,0.14,0.448,0.14,0.731c0,0.346-0.076,0.646-0.229,0.902c-0.153,0.255-0.356,0.467-0.612,0.636
			c-0.255,0.168-0.549,0.294-0.882,0.376c-0.332,0.082-0.681,0.123-1.046,0.123C167.644,205.96,167.02,205.82,166.491,205.543z"/>
	</g>
	<g>
		<path fill="#2F2F2F" d="M342.211,281.228h-2.536l-1.524-2.522c-0.113-0.191-0.223-0.362-0.328-0.513s-0.211-0.279-0.318-0.386
			c-0.106-0.107-0.219-0.189-0.334-0.246c-0.117-0.058-0.243-0.086-0.38-0.086h-0.595v3.753h-2.208v-9.803h3.5
			c2.379,0,3.568,0.889,3.568,2.666c0,0.342-0.052,0.657-0.157,0.946c-0.105,0.29-0.253,0.551-0.444,0.783s-0.423,0.434-0.694,0.602
			c-0.271,0.168-0.572,0.301-0.905,0.396v0.027c0.146,0.045,0.287,0.119,0.424,0.223c0.137,0.102,0.269,0.222,0.396,0.358
			s0.249,0.284,0.366,0.44c0.115,0.158,0.222,0.312,0.317,0.462L342.211,281.228z M336.195,273.079v2.728h0.957
			c0.475,0,0.854-0.137,1.142-0.41c0.292-0.277,0.438-0.622,0.438-1.032c0-0.856-0.513-1.285-1.538-1.285H336.195z"/>
		<path fill="#2F2F2F" d="M349.029,278.343h-4.566c0.072,1.017,0.713,1.524,1.921,1.524c0.771,0,1.446-0.182,2.03-0.547v1.559
			c-0.646,0.346-1.488,0.52-2.522,0.52c-1.13,0-2.007-0.313-2.632-0.939c-0.625-0.627-0.937-1.501-0.937-2.622
			c0-1.162,0.337-2.083,1.012-2.762s1.504-1.019,2.488-1.019c1.021,0,1.811,0.303,2.368,0.909c0.559,0.606,0.838,1.429,0.838,2.468
			V278.343z M347.026,277.017c0-1.003-0.405-1.504-1.217-1.504c-0.347,0-0.646,0.144-0.899,0.431
			c-0.252,0.287-0.406,0.645-0.461,1.073H347.026z"/>
		<path fill="#2F2F2F" d="M357.288,280.428c0,1.299-0.376,2.305-1.128,3.018c-0.752,0.714-1.842,1.07-3.268,1.07
			c-0.943,0-1.691-0.135-2.242-0.403v-1.818c0.721,0.419,1.447,0.629,2.181,0.629c0.729,0,1.294-0.192,1.695-0.577
			c0.401-0.386,0.602-0.908,0.602-1.569v-0.554H355.1c-0.492,0.783-1.22,1.176-2.181,1.176c-0.893,0-1.602-0.314-2.126-0.943
			s-0.786-1.473-0.786-2.529c0-1.186,0.291-2.126,0.875-2.823s1.352-1.046,2.304-1.046c0.853,0,1.49,0.328,1.914,0.984h0.027v-0.813
			h2.16V280.428z M355.155,277.864v-0.554c0-0.441-0.131-0.819-0.394-1.131c-0.262-0.312-0.602-0.469-1.021-0.469
			c-0.479,0-0.854,0.188-1.128,0.561s-0.41,0.9-0.41,1.579c0,0.583,0.13,1.045,0.39,1.384c0.26,0.34,0.615,0.51,1.066,0.51
			c0.447,0,0.808-0.172,1.084-0.516C355.017,278.884,355.155,278.43,355.155,277.864z"/>
		<path fill="#2F2F2F" d="M360.142,273.12c-0.364,0-0.662-0.108-0.895-0.325c-0.232-0.216-0.35-0.481-0.35-0.796
			c0-0.323,0.117-0.588,0.35-0.793s0.53-0.308,0.895-0.308c0.369,0,0.67,0.103,0.899,0.308s0.345,0.47,0.345,0.793
			c0,0.328-0.115,0.597-0.345,0.807S360.512,273.12,360.142,273.12z M361.209,281.228h-2.16v-7h2.16V281.228z"/>
		<path fill="#2F2F2F" d="M366.32,281.399c-1.166,0-2.084-0.327-2.752-0.98c-0.667-0.654-1.001-1.542-1.001-2.663
			c0-1.157,0.347-2.063,1.039-2.718c0.692-0.653,1.63-0.98,2.81-0.98c1.162,0,2.074,0.327,2.734,0.98
			c0.66,0.654,0.991,1.52,0.991,2.595c0,1.162-0.341,2.081-1.022,2.755C368.438,281.061,367.506,281.399,366.32,281.399z
			 M366.375,275.711c-0.51,0-0.906,0.176-1.189,0.526s-0.424,0.848-0.424,1.49c0,1.345,0.543,2.017,1.627,2.017
			c1.035,0,1.552-0.69,1.552-2.071C367.94,276.365,367.418,275.711,366.375,275.711z"/>
		<path fill="#2F2F2F" d="M378.283,281.228h-2.154v-3.89c0-1.084-0.387-1.627-1.162-1.627c-0.373,0-0.681,0.144-0.922,0.431
			c-0.242,0.287-0.363,0.651-0.363,1.094v3.992h-2.16v-7h2.16v1.107h0.027c0.516-0.853,1.266-1.278,2.25-1.278
			c1.549,0,2.324,0.961,2.324,2.885V281.228z"/>
		<path fill="#2F2F2F" d="M388.633,271.206v10.021h-2.154v-7.588c-0.118,0.104-0.258,0.204-0.42,0.298
			c-0.162,0.093-0.334,0.178-0.516,0.252c-0.183,0.076-0.372,0.14-0.568,0.191c-0.195,0.053-0.389,0.09-0.58,0.113v-1.818
			c0.561-0.164,1.089-0.373,1.586-0.629c0.496-0.256,0.945-0.535,1.346-0.841H388.633z"/>
	</g>
	<g>
		<path fill="#2F2F2F" d="M575.509,281.228h-2.536l-1.524-2.522c-0.114-0.191-0.224-0.362-0.328-0.513
			c-0.105-0.15-0.211-0.279-0.318-0.386c-0.106-0.107-0.219-0.189-0.335-0.246c-0.116-0.058-0.242-0.086-0.379-0.086h-0.595v3.753
			h-2.208v-9.803h3.5c2.379,0,3.568,0.889,3.568,2.666c0,0.342-0.053,0.657-0.157,0.946c-0.105,0.29-0.253,0.551-0.444,0.783
			s-0.423,0.434-0.694,0.602c-0.271,0.168-0.573,0.301-0.905,0.396v0.027c0.146,0.045,0.287,0.119,0.424,0.223
			c0.137,0.102,0.269,0.222,0.396,0.358c0.127,0.137,0.249,0.284,0.365,0.44c0.116,0.158,0.223,0.312,0.318,0.462L575.509,281.228z
			 M569.493,273.079v2.728h0.957c0.474,0,0.854-0.137,1.142-0.41c0.291-0.277,0.438-0.622,0.438-1.032
			c0-0.856-0.513-1.285-1.538-1.285H569.493z"/>
		<path fill="#2F2F2F" d="M582.327,278.343h-4.566c0.072,1.017,0.713,1.524,1.921,1.524c0.77,0,1.446-0.182,2.03-0.547v1.559
			c-0.647,0.346-1.488,0.52-2.522,0.52c-1.131,0-2.008-0.313-2.632-0.939c-0.625-0.627-0.937-1.501-0.937-2.622
			c0-1.162,0.337-2.083,1.012-2.762c0.674-0.679,1.504-1.019,2.488-1.019c1.021,0,1.811,0.303,2.368,0.909
			c0.559,0.606,0.838,1.429,0.838,2.468V278.343z M580.324,277.017c0-1.003-0.406-1.504-1.217-1.504
			c-0.347,0-0.646,0.144-0.899,0.431s-0.406,0.645-0.461,1.073H580.324z"/>
		<path fill="#2F2F2F" d="M590.586,280.428c0,1.299-0.376,2.305-1.128,3.018c-0.752,0.714-1.842,1.07-3.268,1.07
			c-0.943,0-1.691-0.135-2.242-0.403v-1.818c0.72,0.419,1.446,0.629,2.181,0.629c0.729,0,1.294-0.192,1.695-0.577
			c0.4-0.386,0.602-0.908,0.602-1.569v-0.554h-0.027c-0.492,0.783-1.22,1.176-2.181,1.176c-0.894,0-1.603-0.314-2.126-0.943
			c-0.524-0.629-0.786-1.473-0.786-2.529c0-1.186,0.291-2.126,0.875-2.823c0.583-0.697,1.351-1.046,2.304-1.046
			c0.852,0,1.49,0.328,1.914,0.984h0.027v-0.813h2.16V280.428z M588.453,277.864v-0.554c0-0.441-0.131-0.819-0.394-1.131
			c-0.262-0.312-0.603-0.469-1.021-0.469c-0.479,0-0.854,0.188-1.128,0.561s-0.41,0.9-0.41,1.579c0,0.583,0.13,1.045,0.39,1.384
			c0.26,0.34,0.615,0.51,1.066,0.51c0.446,0,0.808-0.172,1.083-0.516C588.315,278.884,588.453,278.43,588.453,277.864z"/>
		<path fill="#2F2F2F" d="M593.44,273.12c-0.364,0-0.663-0.108-0.896-0.325c-0.232-0.216-0.349-0.481-0.349-0.796
			c0-0.323,0.116-0.588,0.349-0.793s0.531-0.308,0.896-0.308c0.369,0,0.669,0.103,0.899,0.308c0.229,0.205,0.345,0.47,0.345,0.793
			c0,0.328-0.115,0.597-0.345,0.807C594.109,273.016,593.809,273.12,593.44,273.12z M594.507,281.228h-2.16v-7h2.16V281.228z"/>
		<path fill="#2F2F2F" d="M599.618,281.399c-1.167,0-2.084-0.327-2.752-0.98c-0.667-0.654-1.001-1.542-1.001-2.663
			c0-1.157,0.346-2.063,1.039-2.718c0.692-0.653,1.629-0.98,2.81-0.98c1.162,0,2.073,0.327,2.734,0.98
			c0.66,0.654,0.991,1.52,0.991,2.595c0,1.162-0.341,2.081-1.022,2.755C601.736,281.061,600.803,281.399,599.618,281.399z
			 M599.673,275.711c-0.511,0-0.907,0.176-1.189,0.526c-0.283,0.351-0.424,0.848-0.424,1.49c0,1.345,0.542,2.017,1.627,2.017
			c1.034,0,1.552-0.69,1.552-2.071C601.238,276.365,600.716,275.711,599.673,275.711z"/>
		<path fill="#2F2F2F" d="M611.58,281.228h-2.153v-3.89c0-1.084-0.387-1.627-1.162-1.627c-0.373,0-0.681,0.144-0.923,0.431
			c-0.241,0.287-0.362,0.651-0.362,1.094v3.992h-2.16v-7h2.16v1.107h0.027c0.516-0.853,1.265-1.278,2.249-1.278
			c1.55,0,2.324,0.961,2.324,2.885V281.228z"/>
		<path fill="#2F2F2F" d="M619.175,279.437h4.156v1.791h-6.521v-0.738c0-0.501,0.085-0.951,0.253-1.351
			c0.169-0.398,0.381-0.756,0.636-1.072c0.256-0.317,0.534-0.598,0.838-0.842c0.303-0.243,0.591-0.463,0.864-0.659
			c0.287-0.205,0.539-0.401,0.756-0.588c0.216-0.187,0.398-0.372,0.547-0.558c0.147-0.184,0.259-0.371,0.331-0.561
			c0.073-0.188,0.109-0.391,0.109-0.604c0-0.419-0.118-0.735-0.355-0.95c-0.236-0.215-0.599-0.321-1.087-0.321
			c-0.843,0-1.649,0.335-2.42,1.005v-1.9c0.853-0.551,1.814-0.827,2.885-0.827c0.497,0,0.942,0.065,1.337,0.194
			c0.394,0.131,0.728,0.316,1.001,0.558s0.482,0.534,0.626,0.878c0.144,0.345,0.215,0.729,0.215,1.152
			c0,0.451-0.069,0.852-0.208,1.203c-0.14,0.352-0.324,0.67-0.554,0.957c-0.23,0.287-0.496,0.551-0.797,0.789
			c-0.301,0.24-0.612,0.471-0.937,0.694c-0.219,0.155-0.43,0.309-0.632,0.462c-0.203,0.152-0.382,0.303-0.537,0.451
			c-0.154,0.147-0.277,0.293-0.369,0.434C619.221,279.174,619.175,279.309,619.175,279.437z"/>
	</g>
</g>
<g id="Layer_1">
</g>
</svg>
