<?xml version="1.0" encoding="utf-8"?>
<!-- Generator: Adobe Illustrator 26.5.0, SVG Export Plug-In . SVG Version: 6.00 Build 0)  -->
<svg version="1.1" xmlns="http://www.w3.org/2000/svg" xmlns:xlink="http://www.w3.org/1999/xlink" x="0px" y="0px"
	 viewBox="0 0 265 262" enable-background="new 0 0 265 262" xml:space="preserve">
<symbol  id="New_Symbol_41" viewBox="-10.5 -10.403 21 20.403">
	<circle fill="#505150" cx="0" cy="0" r="10"/>
	<text transform="matrix(1 0 0 -1 -2.8169 -4.4282)" fill="#FFFFFF" font-family="'SegoeUI-Semibold'" font-size="14px">1</text>
	<rect x="-10.5" y="-10" display="none" fill="none" width="21" height="20"/>
</symbol>
<symbol  id="New_Symbol_42" viewBox="-10.5 -10.403 21 20.403">
	<circle fill="#505150" cx="0" cy="0" r="10"/>
	<text transform="matrix(1 0 0 -1 -3.8867 -4.4282)" fill="#FFFFFF" font-family="'SegoeUI-Semibold'" font-size="14px">2</text>
	<rect x="-10.5" y="-10" display="none" fill="none" width="21" height="20"/>
</symbol>
<symbol  id="PIPELINE" viewBox="-32 -12.266 64 24.531">
	<linearGradient id="SVGID_1_" gradientUnits="userSpaceOnUse" x1="0" y1="-12.2655" x2="1.502093e-15" y2="12.2655">
		<stop  offset="0" style="stop-color:#1B89B2"/>
		<stop  offset="1" style="stop-color:#51C8E8"/>
	</linearGradient>
	<path fill="url(#SVGID_1_)" d="M26.096,12.266h-51.448v0h0C-29.08,12.265-32,6.878-32,0s2.92-12.265,6.648-12.265h0v0h51.448
		C29.356-12.266,32-6.363,32,0S29.356,12.266,26.096,12.266z"/>
	<g>
		
			<linearGradient id="SVGID_00000183951290613724699680000003158834457690445227_" gradientUnits="userSpaceOnUse" x1="-31.461" y1="-6.1136" x2="-19.2338" y2="6.1136">
			<stop  offset="0" style="stop-color:#B3B4B4"/>
			<stop  offset="1" style="stop-color:#4F4F4F"/>
		</linearGradient>
		<ellipse fill="url(#SVGID_00000183951290613724699680000003158834457690445227_)" cx="-25.347" cy="0" rx="5.575" ry="10.879"/>
	</g>
</symbol>
<g id="Shapes">
	<rect fill="#FFFFFF" width="265" height="262"/>
	<g>
		<rect x="22.889" y="75.503" opacity="0.25" fill="#F2F2F2" width="160.224" height="151.659"/>
		
			<rect x="22.889" y="75.503" fill="none" stroke="#CCCCCB" stroke-width="0.5" stroke-miterlimit="10" width="160.224" height="151.659"/>
	</g>
	<g>
		<g>
			<g opacity="0.3">
				<circle fill="#212121" cx="104.001" cy="151.655" r="61.866"/>
				<circle opacity="0.35" fill="#212121" cx="104.001" cy="151.655" r="61.866"/>
			</g>
			<g>
				<circle fill="#FFFFFF" cx="103.001" cy="150.655" r="61.866"/>
				<circle opacity="0.35" fill="#1B93EB" cx="103.001" cy="150.655" r="61.866"/>
			</g>
		</g>
		<g>
			<g>
				<g opacity="0.3">
					<rect x="88.535" y="113.21" fill="#212121" width="30.933" height="30.933"/>
				</g>
				<g>
					<rect x="87.535" y="112.21" fill="#FFFFFF" width="30.933" height="30.933"/>
				</g>
			</g>
			<g>
				<g opacity="0.3">
					<rect x="88.535" y="148.561" fill="#212121" width="30.933" height="30.933"/>
				</g>
				<g>
					<rect x="87.535" y="147.561" fill="#FFFFFF" width="30.933" height="30.933"/>
				</g>
			</g>
			<g>
				<g opacity="0.3">
					<rect x="123.886" y="148.561" fill="#212121" width="30.933" height="30.933"/>
				</g>
				<g>
					<rect x="122.886" y="147.561" fill="#FFFFFF" width="30.933" height="30.933"/>
				</g>
			</g>
			<g>
				<g opacity="0.3">
					<rect x="53.183" y="148.561" fill="#212121" width="30.933" height="30.933"/>
				</g>
				<g>
					<rect x="52.183" y="147.561" fill="#FFFFFF" width="30.933" height="30.933"/>
				</g>
			</g>
		</g>
	</g>
	<g id="Wrench_tool_x28_s_x29_">
	</g>
	<g id="user2">
	</g>
	<g id="user2_1_">
	</g>
	<g id="user2_4_">
	</g>
	<g id="user2_3_">
	</g>
	<g id="user2_2_">
	</g>
	<g id="Internet_2">
	</g>
	<g id="Enterprise">
	</g>
	<g id="Tunnel__x28_stackable_x29_">
	</g>
	<g id="New_Symbol">
	</g>
	<g id="New_Symbol_1">
	</g>
	<g id="Files">
	</g>
	<g id="BlobBlock">
	</g>
	<g id="E_x5F_Enterprise">
	</g>
	<g id="E_x5F_AD_FS">
	</g>
	<g id="C_x5F_Azure_Active_Directory">
	</g>
	<g id="Success_Checked">
		<path fill="#1F56A3" d="M95.249,134.901l-0.557-0.603c-0.145-0.16-0.145-0.412,0.023-0.565l1.61-1.488
			c0.077-0.069,0.168-0.106,0.268-0.106c0.113,0,0.214,0.046,0.29,0.129l4.427,4.747l7.617-9.756
			c0.077-0.099,0.191-0.152,0.313-0.152c0.092,0,0.175,0.03,0.245,0.085l1.741,1.343c0.085,0.062,0.136,0.152,0.152,0.26
			c0.007,0.106-0.016,0.214-0.085,0.29l-9.784,12.526L95.249,134.901z"/>
		<path fill="#1F56A3" d="M95.249,164.066l-0.557-0.603c-0.145-0.16-0.145-0.412,0.023-0.565l1.61-1.488
			c0.077-0.069,0.168-0.106,0.268-0.106c0.113,0,0.214,0.046,0.29,0.129l4.427,4.747l7.617-9.756
			c0.077-0.099,0.191-0.152,0.313-0.152c0.092,0,0.175,0.03,0.245,0.085l1.741,1.343c0.085,0.062,0.136,0.152,0.152,0.26
			c0.007,0.106-0.016,0.214-0.085,0.29l-9.784,12.526L95.249,164.066z"/>
		<path fill="#1F56A3" d="M130.799,164.066l-0.557-0.603c-0.145-0.16-0.145-0.412,0.023-0.565l1.61-1.488
			c0.077-0.069,0.168-0.106,0.268-0.106c0.113,0,0.214,0.046,0.29,0.129l4.427,4.747l7.617-9.756
			c0.077-0.099,0.191-0.152,0.313-0.152c0.092,0,0.175,0.03,0.245,0.085l1.741,1.343c0.085,0.062,0.136,0.152,0.152,0.26
			c0.007,0.106-0.016,0.214-0.085,0.29l-9.784,12.526L130.799,164.066z"/>
	</g>
	
		<use xlink:href="#New_Symbol_41"  width="21" height="20.403" x="-10.5" y="-10.403" transform="matrix(1 0 0 -1 103.001 15.174)" overflow="visible"/>
	<g>
		<g>
			<line fill="none" stroke="#3C3C41" stroke-miterlimit="10" x1="103.001" y1="55.773" x2="103.001" y2="101.486"/>
			<g>
				<polygon fill="#3C3C41" points="99.261,100.392 103.001,106.869 106.741,100.392 				"/>
			</g>
		</g>
	</g>
	<g>
		<rect x="102.155" y="49.389" fill="#3C3C41" width="1" height="1.5"/>
		<path fill="#3C3C41" d="M103.155,46.818h-1v-2.571h1V46.818z M103.155,41.675h-1v-2.571h1V41.675z M103.155,36.532h-1v-2.571h1
			V36.532z"/>
		<rect x="102.155" y="29.889" fill="#3C3C41" width="1" height="1.5"/>
	</g>
	
		<use xlink:href="#New_Symbol_42"  width="21" height="20.403" x="-10.5" y="-10.403" transform="matrix(1 0 0 -1 138.3527 34.4611)" overflow="visible"/>
	<g>
		<g>
			<line fill="none" stroke="#3C3C41" stroke-miterlimit="10" x1="138.353" y1="69.676" x2="138.353" y2="141.611"/>
			<g>
				<polygon fill="#3C3C41" points="134.613,70.77 138.353,64.293 142.092,70.77 				"/>
			</g>
		</g>
	</g>
	<g>
		<rect x="138.155" y="59.389" fill="#3C3C41" width="1" height="1.5"/>
		<rect x="138.155" y="52.056" fill="#3C3C41" width="1" height="3.667"/>
		<rect x="138.155" y="46.889" fill="#3C3C41" width="1" height="1.5"/>
	</g>
	<polygon fill="#B32025" points="75.626,157.806 72.521,154.686 66.804,160.404 61.087,154.686 57.966,157.806 63.668,163.523 
		57.966,169.225 61.087,172.345 66.788,166.644 72.505,172.362 75.626,169.241 69.908,163.523 	"/>
</g>
<g id="Text">
	<g>
		<path fill="#2F2F2F" d="M85.083,250.797h-2.536l-1.524-2.522c-0.114-0.191-0.224-0.362-0.328-0.513
			c-0.105-0.15-0.211-0.279-0.318-0.387c-0.106-0.106-0.219-0.188-0.335-0.246c-0.116-0.057-0.242-0.085-0.379-0.085h-0.595v3.753
			H76.86v-9.803h3.5c2.379,0,3.568,0.889,3.568,2.666c0,0.342-0.053,0.657-0.157,0.946c-0.105,0.29-0.253,0.551-0.444,0.783
			s-0.423,0.433-0.694,0.602c-0.271,0.168-0.573,0.301-0.905,0.396v0.027c0.146,0.045,0.287,0.119,0.424,0.222
			s0.269,0.223,0.396,0.359c0.127,0.137,0.249,0.283,0.365,0.44s0.223,0.312,0.318,0.462L85.083,250.797z M79.068,242.649v2.728
			h0.957c0.474,0,0.854-0.137,1.142-0.41c0.291-0.278,0.438-0.622,0.438-1.032c0-0.857-0.513-1.285-1.538-1.285H79.068z"/>
		<path fill="#2F2F2F" d="M91.902,247.912h-4.566c0.072,1.016,0.713,1.524,1.921,1.524c0.77,0,1.446-0.183,2.03-0.547v1.559
			c-0.647,0.346-1.488,0.52-2.522,0.52c-1.131,0-2.008-0.313-2.632-0.94c-0.625-0.626-0.937-1.5-0.937-2.621
			c0-1.162,0.337-2.083,1.012-2.762c0.674-0.68,1.504-1.019,2.488-1.019c1.021,0,1.811,0.303,2.368,0.909
			c0.559,0.605,0.838,1.429,0.838,2.468V247.912z M89.899,246.586c0-1.003-0.406-1.504-1.217-1.504
			c-0.347,0-0.646,0.144-0.899,0.431s-0.406,0.645-0.461,1.073H89.899z"/>
		<path fill="#2F2F2F" d="M100.161,249.997c0,1.299-0.376,2.305-1.128,3.018c-0.752,0.714-1.842,1.07-3.268,1.07
			c-0.943,0-1.691-0.135-2.242-0.403v-1.818c0.72,0.419,1.446,0.629,2.181,0.629c0.729,0,1.294-0.192,1.695-0.578
			c0.4-0.385,0.602-0.908,0.602-1.568v-0.554h-0.027c-0.492,0.783-1.22,1.176-2.181,1.176c-0.894,0-1.603-0.314-2.126-0.943
			c-0.524-0.629-0.786-1.473-0.786-2.529c0-1.186,0.291-2.126,0.875-2.823c0.583-0.697,1.351-1.046,2.304-1.046
			c0.852,0,1.49,0.328,1.914,0.984H98v-0.813h2.16V249.997z M98.028,247.434v-0.554c0-0.442-0.131-0.819-0.394-1.132
			c-0.262-0.312-0.603-0.468-1.021-0.468c-0.479,0-0.854,0.187-1.128,0.561c-0.273,0.373-0.41,0.899-0.41,1.579
			c0,0.583,0.13,1.045,0.39,1.384c0.26,0.34,0.615,0.51,1.066,0.51c0.446,0,0.808-0.172,1.083-0.517
			C97.89,248.453,98.028,247.998,98.028,247.434z"/>
		<path fill="#2F2F2F" d="M103.015,242.69c-0.364,0-0.663-0.108-0.896-0.325c-0.232-0.216-0.349-0.481-0.349-0.796
			c0-0.324,0.116-0.588,0.349-0.793s0.531-0.308,0.896-0.308c0.369,0,0.669,0.103,0.899,0.308c0.229,0.205,0.345,0.469,0.345,0.793
			c0,0.328-0.115,0.597-0.345,0.807C103.684,242.584,103.384,242.69,103.015,242.69z M104.081,250.797h-2.16v-7h2.16V250.797z"/>
		<path fill="#2F2F2F" d="M109.193,250.968c-1.167,0-2.084-0.327-2.752-0.981c-0.667-0.653-1.001-1.541-1.001-2.662
			c0-1.158,0.346-2.063,1.039-2.718c0.692-0.653,1.629-0.98,2.81-0.98c1.162,0,2.073,0.327,2.734,0.98
			c0.66,0.654,0.991,1.519,0.991,2.595c0,1.162-0.341,2.08-1.022,2.755C111.311,250.63,110.377,250.968,109.193,250.968z
			 M109.247,245.281c-0.511,0-0.907,0.175-1.189,0.526c-0.283,0.351-0.424,0.848-0.424,1.49c0,1.344,0.542,2.017,1.627,2.017
			c1.034,0,1.552-0.69,1.552-2.071C110.813,245.934,110.29,245.281,109.247,245.281z"/>
		<path fill="#2F2F2F" d="M121.155,250.797h-2.153v-3.89c0-1.085-0.387-1.627-1.162-1.627c-0.373,0-0.681,0.144-0.923,0.431
			c-0.241,0.287-0.362,0.651-0.362,1.094v3.992h-2.16v-7h2.16v1.107h0.027c0.516-0.853,1.265-1.278,2.249-1.278
			c1.55,0,2.324,0.961,2.324,2.885V250.797z"/>
		<path fill="#2F2F2F" d="M131.504,240.776v10.021h-2.153v-7.588c-0.118,0.104-0.259,0.204-0.42,0.297
			c-0.162,0.094-0.334,0.178-0.517,0.253c-0.182,0.075-0.371,0.14-0.567,0.191c-0.195,0.053-0.39,0.09-0.581,0.113v-1.818
			c0.561-0.164,1.09-0.374,1.586-0.629c0.497-0.256,0.946-0.536,1.347-0.841H131.504z"/>
	</g>
	<g>
		<path fill="#2F2F2F" d="M12.916,20.848h-1.367L9.909,18.1c-0.15-0.255-0.296-0.473-0.438-0.653s-0.286-0.327-0.434-0.441
			s-0.308-0.197-0.479-0.25s-0.363-0.079-0.578-0.079H7.037v4.17H5.889v-9.803h2.926c0.428,0,0.824,0.054,1.186,0.161
			s0.677,0.27,0.943,0.489s0.475,0.491,0.625,0.817s0.226,0.708,0.226,1.145c0,0.342-0.051,0.655-0.154,0.94
			s-0.249,0.539-0.438,0.762s-0.417,0.414-0.684,0.571s-0.566,0.279-0.899,0.366v0.027c0.164,0.073,0.307,0.156,0.427,0.25
			s0.236,0.204,0.345,0.332s0.218,0.272,0.325,0.434s0.227,0.35,0.359,0.564L12.916,20.848z M7.037,12.084v3.555h1.559
			c0.287,0,0.553-0.043,0.796-0.13s0.455-0.211,0.632-0.373s0.317-0.36,0.417-0.595s0.15-0.498,0.15-0.79
			c0-0.524-0.17-0.933-0.509-1.227s-0.831-0.441-1.473-0.441H7.037z"/>
		<path fill="#2F2F2F" d="M19.529,17.628h-4.942c0.018,0.779,0.228,1.381,0.629,1.805s0.953,0.636,1.654,0.636
			c0.789,0,1.513-0.26,2.174-0.779v1.053c-0.615,0.447-1.429,0.67-2.44,0.67c-0.989,0-1.766-0.318-2.331-0.954
			s-0.848-1.53-0.848-2.683c0-1.089,0.309-1.977,0.926-2.663s1.384-1.029,2.3-1.029c0.916,0,1.625,0.296,2.126,0.889
			s0.752,1.415,0.752,2.468V17.628z M18.38,16.678c-0.004-0.647-0.161-1.151-0.468-1.511s-0.735-0.54-1.282-0.54
			c-0.529,0-0.978,0.189-1.347,0.567s-0.597,0.873-0.684,1.483H18.38z"/>
		<path fill="#2F2F2F" d="M26.167,20.848h-1.121v-1.094h-0.027c-0.488,0.838-1.206,1.258-2.153,1.258
			c-0.697,0-1.243-0.185-1.637-0.554s-0.591-0.859-0.591-1.47c0-1.308,0.77-2.069,2.311-2.283l2.099-0.294
			c0-1.189-0.481-1.784-1.442-1.784c-0.843,0-1.604,0.287-2.283,0.861V14.34c0.688-0.438,1.481-0.656,2.379-0.656
			c1.645,0,2.468,0.871,2.468,2.611V20.848z M25.046,17.307l-1.688,0.232c-0.52,0.073-0.912,0.202-1.176,0.386
			s-0.396,0.512-0.396,0.981c0,0.342,0.122,0.621,0.366,0.837s0.568,0.325,0.974,0.325c0.556,0,1.015-0.195,1.377-0.584
			s0.543-0.883,0.543-1.48V17.307z"/>
		<path fill="#2F2F2F" d="M34.236,20.848h-1.121v-1.189h-0.027c-0.52,0.902-1.322,1.354-2.406,1.354
			c-0.879,0-1.583-0.313-2.109-0.94s-0.79-1.48-0.79-2.56c0-1.158,0.292-2.085,0.875-2.782s1.36-1.046,2.331-1.046
			c0.961,0,1.661,0.378,2.099,1.135h0.027v-4.334h1.121V20.848z M33.115,17.683v-1.032c0-0.565-0.187-1.043-0.561-1.436
			s-0.848-0.588-1.422-0.588c-0.684,0-1.221,0.25-1.613,0.752s-0.588,1.194-0.588,2.078c0,0.807,0.188,1.443,0.564,1.911
			s0.881,0.701,1.514,0.701c0.625,0,1.131-0.226,1.521-0.677S33.115,18.371,33.115,17.683z"/>
		<path fill="#2F2F2F" d="M43.991,14.983c-0.196-0.15-0.479-0.226-0.848-0.226c-0.479,0-0.878,0.226-1.2,0.677
			s-0.482,1.066-0.482,1.846v3.568h-1.121v-7h1.121v1.442h0.027c0.16-0.492,0.403-0.876,0.731-1.152s0.695-0.414,1.101-0.414
			c0.292,0,0.515,0.032,0.67,0.096V14.983z"/>
		<path fill="#2F2F2F" d="M50.834,17.628h-4.942c0.018,0.779,0.228,1.381,0.629,1.805s0.953,0.636,1.654,0.636
			c0.789,0,1.513-0.26,2.174-0.779v1.053c-0.615,0.447-1.429,0.67-2.44,0.67c-0.989,0-1.766-0.318-2.331-0.954
			s-0.848-1.53-0.848-2.683c0-1.089,0.309-1.977,0.926-2.663s1.384-1.029,2.3-1.029s1.625,0.296,2.126,0.889
			s0.752,1.415,0.752,2.468V17.628z M49.685,16.678c-0.004-0.647-0.161-1.151-0.468-1.511s-0.735-0.54-1.282-0.54
			c-0.529,0-0.978,0.189-1.347,0.567s-0.597,0.873-0.684,1.483H49.685z"/>
		<path fill="#2F2F2F" d="M58.535,24.068h-1.121v-4.423h-0.027c-0.488,0.912-1.285,1.367-2.393,1.367
			c-0.879,0-1.585-0.313-2.116-0.94s-0.796-1.48-0.796-2.56c0-1.162,0.292-2.091,0.875-2.786s1.367-1.042,2.352-1.042
			c0.957,0,1.65,0.378,2.078,1.135h0.027v-0.971h1.121V24.068z M57.413,17.697v-1.019c0-0.574-0.188-1.06-0.564-1.456
			s-0.854-0.595-1.432-0.595c-0.674,0-1.208,0.25-1.6,0.749s-0.588,1.202-0.588,2.109c0,0.807,0.189,1.439,0.567,1.897
			s0.866,0.687,1.463,0.687c0.656,0,1.179-0.225,1.569-0.673S57.413,18.38,57.413,17.697z"/>
		<path fill="#2F2F2F" d="M66.362,20.848h-1.121v-1.107h-0.027c-0.465,0.848-1.185,1.271-2.16,1.271
			c-1.668,0-2.502-0.994-2.502-2.98v-4.184h1.114v4.006c0,1.477,0.565,2.215,1.695,2.215c0.547,0,0.997-0.202,1.35-0.605
			s0.53-0.931,0.53-1.583v-4.033h1.121V20.848z"/>
		<path fill="#2F2F2F" d="M74.182,17.628H69.24c0.018,0.779,0.228,1.381,0.629,1.805s0.953,0.636,1.654,0.636
			c0.789,0,1.513-0.26,2.174-0.779v1.053c-0.615,0.447-1.429,0.67-2.44,0.67c-0.989,0-1.766-0.318-2.331-0.954
			s-0.848-1.53-0.848-2.683c0-1.089,0.309-1.977,0.926-2.663s1.384-1.029,2.3-1.029s1.625,0.296,2.126,0.889
			s0.752,1.415,0.752,2.468V17.628z M73.034,16.678c-0.004-0.647-0.161-1.151-0.468-1.511s-0.735-0.54-1.282-0.54
			c-0.529,0-0.978,0.189-1.347,0.567s-0.597,0.873-0.684,1.483H73.034z"/>
		<path fill="#2F2F2F" d="M75.424,20.595v-1.203c0.611,0.451,1.283,0.677,2.017,0.677c0.984,0,1.477-0.328,1.477-0.984
			c0-0.187-0.042-0.345-0.126-0.475s-0.198-0.245-0.342-0.345s-0.312-0.19-0.506-0.27s-0.402-0.163-0.625-0.25
			c-0.31-0.123-0.582-0.247-0.817-0.373s-0.431-0.267-0.588-0.424s-0.276-0.336-0.355-0.537s-0.12-0.435-0.12-0.704
			c0-0.328,0.075-0.619,0.226-0.872s0.351-0.465,0.602-0.636s0.537-0.3,0.858-0.386s0.653-0.13,0.995-0.13
			c0.606,0,1.148,0.105,1.627,0.314v1.135c-0.515-0.337-1.107-0.506-1.777-0.506c-0.209,0-0.399,0.024-0.567,0.072
			s-0.313,0.115-0.434,0.202s-0.214,0.19-0.28,0.311s-0.099,0.254-0.099,0.4c0,0.182,0.033,0.335,0.099,0.458
			s0.163,0.232,0.291,0.328s0.283,0.182,0.465,0.26s0.39,0.162,0.622,0.253c0.31,0.119,0.588,0.24,0.834,0.366
			s0.456,0.267,0.629,0.424s0.307,0.338,0.4,0.543s0.14,0.449,0.14,0.731c0,0.346-0.076,0.647-0.229,0.902s-0.356,0.467-0.612,0.636
			s-0.549,0.294-0.882,0.376s-0.681,0.123-1.046,0.123C76.577,21.012,75.953,20.873,75.424,20.595z"/>
		<path fill="#2F2F2F" d="M85.078,20.78c-0.264,0.146-0.613,0.219-1.046,0.219c-1.226,0-1.839-0.684-1.839-2.051v-4.143H80.99
			v-0.957h1.203v-1.709l1.121-0.362v2.071h1.764v0.957h-1.764v3.944c0,0.469,0.08,0.804,0.239,1.005s0.424,0.301,0.793,0.301
			c0.283,0,0.526-0.078,0.731-0.232V20.78z"/>
	</g>
	<g>
		<rect x="153.819" y="18.027" fill="none" width="106.577" height="35.797"/>
		<path fill="#2F2F2F" d="M162.131,29.928h-1.367l-1.641-2.748c-0.15-0.255-0.296-0.473-0.438-0.653
			c-0.141-0.18-0.286-0.327-0.434-0.441c-0.148-0.114-0.308-0.197-0.479-0.25s-0.363-0.079-0.578-0.079h-0.943v4.17h-1.148v-9.803
			h2.925c0.429,0,0.824,0.054,1.187,0.161s0.677,0.27,0.943,0.489s0.475,0.491,0.625,0.817s0.226,0.708,0.226,1.145
			c0,0.342-0.051,0.655-0.153,0.94s-0.249,0.539-0.438,0.762c-0.189,0.223-0.417,0.414-0.684,0.571s-0.566,0.279-0.899,0.366v0.027
			c0.164,0.073,0.307,0.156,0.428,0.25c0.12,0.093,0.235,0.204,0.345,0.332s0.218,0.272,0.325,0.434
			c0.106,0.162,0.227,0.35,0.358,0.564L162.131,29.928z M156.253,21.164v3.555h1.559c0.287,0,0.552-0.043,0.796-0.13
			c0.243-0.086,0.454-0.211,0.632-0.373s0.317-0.36,0.417-0.595c0.101-0.235,0.15-0.498,0.15-0.79c0-0.524-0.17-0.933-0.509-1.227
			c-0.34-0.294-0.831-0.441-1.473-0.441H156.253z"/>
		<path fill="#2F2F2F" d="M168.744,26.708h-4.942c0.019,0.779,0.229,1.381,0.629,1.805c0.401,0.424,0.953,0.636,1.654,0.636
			c0.789,0,1.514-0.26,2.174-0.779v1.053c-0.615,0.447-1.429,0.67-2.44,0.67c-0.988,0-1.766-0.318-2.331-0.954
			c-0.564-0.636-0.848-1.53-0.848-2.683c0-1.089,0.309-1.977,0.927-2.663c0.617-0.686,1.384-1.029,2.3-1.029
			s1.625,0.296,2.126,0.889c0.502,0.592,0.752,1.415,0.752,2.468V26.708z M167.595,25.758c-0.004-0.647-0.16-1.151-0.468-1.511
			s-0.735-0.54-1.282-0.54c-0.528,0-0.978,0.189-1.347,0.567s-0.597,0.873-0.684,1.483H167.595z"/>
		<path fill="#2F2F2F" d="M175.382,29.928h-1.121v-1.094h-0.027c-0.487,0.838-1.205,1.258-2.153,1.258
			c-0.697,0-1.243-0.185-1.637-0.554c-0.395-0.369-0.592-0.859-0.592-1.47c0-1.308,0.771-2.069,2.311-2.283l2.099-0.294
			c0-1.189-0.48-1.784-1.442-1.784c-0.843,0-1.604,0.287-2.283,0.861V23.42c0.688-0.438,1.481-0.656,2.379-0.656
			c1.646,0,2.468,0.871,2.468,2.611V29.928z M174.261,26.387l-1.688,0.232c-0.52,0.073-0.911,0.202-1.176,0.386
			C171.133,27.19,171,27.517,171,27.987c0,0.342,0.122,0.621,0.366,0.837c0.243,0.216,0.568,0.325,0.974,0.325
			c0.557,0,1.016-0.195,1.378-0.584s0.543-0.883,0.543-1.48V26.387z"/>
		<path fill="#2F2F2F" d="M183.452,29.928h-1.121v-1.189h-0.027c-0.52,0.902-1.322,1.354-2.406,1.354
			c-0.88,0-1.583-0.313-2.109-0.94s-0.789-1.48-0.789-2.56c0-1.158,0.291-2.085,0.875-2.782c0.583-0.697,1.36-1.046,2.331-1.046
			c0.961,0,1.661,0.378,2.099,1.135h0.027v-4.334h1.121V29.928z M182.33,26.763v-1.032c0-0.565-0.188-1.043-0.561-1.436
			c-0.374-0.392-0.848-0.588-1.422-0.588c-0.684,0-1.222,0.25-1.613,0.752c-0.393,0.501-0.588,1.194-0.588,2.078
			c0,0.807,0.188,1.443,0.563,1.911s0.881,0.701,1.515,0.701c0.624,0,1.131-0.226,1.521-0.677S182.33,27.451,182.33,26.763z"/>
		<path fill="#2F2F2F" d="M185.214,29.675v-1.203c0.611,0.451,1.283,0.677,2.017,0.677c0.984,0,1.477-0.328,1.477-0.984
			c0-0.187-0.042-0.345-0.126-0.475c-0.085-0.13-0.198-0.245-0.342-0.345s-0.312-0.19-0.506-0.27
			c-0.194-0.08-0.402-0.163-0.626-0.25c-0.31-0.123-0.582-0.247-0.816-0.373c-0.235-0.125-0.431-0.267-0.588-0.424
			s-0.276-0.336-0.355-0.537c-0.08-0.201-0.12-0.435-0.12-0.704c0-0.328,0.075-0.619,0.226-0.872s0.352-0.465,0.602-0.636
			c0.251-0.171,0.537-0.3,0.858-0.386s0.652-0.13,0.994-0.13c0.606,0,1.148,0.105,1.627,0.314v1.135
			c-0.515-0.337-1.107-0.506-1.777-0.506c-0.209,0-0.398,0.024-0.567,0.072c-0.168,0.048-0.313,0.115-0.434,0.202
			c-0.121,0.086-0.215,0.19-0.28,0.311c-0.066,0.121-0.1,0.254-0.1,0.4c0,0.182,0.033,0.335,0.1,0.458
			c0.065,0.123,0.163,0.232,0.29,0.328c0.128,0.096,0.283,0.182,0.465,0.26c0.183,0.078,0.39,0.162,0.622,0.253
			c0.311,0.119,0.588,0.24,0.834,0.366s0.456,0.267,0.629,0.424c0.174,0.157,0.307,0.338,0.4,0.543
			c0.093,0.205,0.14,0.449,0.14,0.731c0,0.346-0.076,0.647-0.229,0.902c-0.153,0.255-0.356,0.467-0.612,0.636
			c-0.255,0.168-0.549,0.294-0.882,0.376c-0.332,0.082-0.681,0.123-1.046,0.123C186.368,30.092,185.744,29.953,185.214,29.675z"/>
		<path fill="#2F2F2F" d="M201.388,29.928h-1.121v-1.189h-0.027c-0.52,0.902-1.321,1.354-2.406,1.354
			c-0.879,0-1.582-0.313-2.108-0.94s-0.79-1.48-0.79-2.56c0-1.158,0.292-2.085,0.875-2.782c0.584-0.697,1.36-1.046,2.331-1.046
			c0.962,0,1.661,0.378,2.099,1.135h0.027v-4.334h1.121V29.928z M200.267,26.763v-1.032c0-0.565-0.187-1.043-0.561-1.436
			c-0.373-0.392-0.848-0.588-1.422-0.588c-0.684,0-1.221,0.25-1.613,0.752c-0.392,0.501-0.588,1.194-0.588,2.078
			c0,0.807,0.188,1.443,0.564,1.911s0.881,0.701,1.514,0.701c0.625,0,1.132-0.226,1.521-0.677S200.267,27.451,200.267,26.763z"/>
		<path fill="#2F2F2F" d="M208.545,29.928h-1.121v-1.094h-0.027c-0.487,0.838-1.205,1.258-2.153,1.258
			c-0.697,0-1.243-0.185-1.637-0.554c-0.395-0.369-0.592-0.859-0.592-1.47c0-1.308,0.771-2.069,2.311-2.283l2.099-0.294
			c0-1.189-0.48-1.784-1.442-1.784c-0.843,0-1.604,0.287-2.283,0.861V23.42c0.688-0.438,1.481-0.656,2.379-0.656
			c1.646,0,2.468,0.871,2.468,2.611V29.928z M207.424,26.387l-1.688,0.232c-0.52,0.073-0.911,0.202-1.176,0.386
			c-0.264,0.185-0.396,0.512-0.396,0.981c0,0.342,0.122,0.621,0.366,0.837c0.243,0.216,0.568,0.325,0.974,0.325
			c0.557,0,1.016-0.195,1.378-0.584s0.543-0.883,0.543-1.48V26.387z"/>
		<path fill="#2F2F2F" d="M213.804,29.86c-0.265,0.146-0.613,0.219-1.046,0.219c-1.227,0-1.839-0.684-1.839-2.051v-4.143h-1.203
			v-0.957h1.203v-1.709l1.121-0.362v2.071h1.764v0.957h-1.764v3.944c0,0.469,0.079,0.804,0.239,1.005
			c0.159,0.201,0.424,0.301,0.793,0.301c0.282,0,0.526-0.078,0.731-0.232V29.86z"/>
		<path fill="#2F2F2F" d="M220.421,29.928H219.3v-1.094h-0.027c-0.488,0.838-1.206,1.258-2.153,1.258
			c-0.697,0-1.243-0.185-1.638-0.554c-0.394-0.369-0.591-0.859-0.591-1.47c0-1.308,0.77-2.069,2.311-2.283l2.099-0.294
			c0-1.189-0.481-1.784-1.442-1.784c-0.844,0-1.604,0.287-2.283,0.861V23.42c0.688-0.438,1.48-0.656,2.379-0.656
			c1.645,0,2.468,0.871,2.468,2.611V29.928z M219.3,26.387l-1.688,0.232c-0.52,0.073-0.912,0.202-1.176,0.386
			c-0.265,0.185-0.396,0.512-0.396,0.981c0,0.342,0.122,0.621,0.365,0.837c0.244,0.216,0.568,0.325,0.975,0.325
			c0.556,0,1.015-0.195,1.377-0.584s0.544-0.883,0.544-1.48V26.387z"/>
		<path fill="#2F2F2F" d="M229.828,20.549c-0.219-0.123-0.468-0.185-0.745-0.185c-0.784,0-1.176,0.495-1.176,1.483v1.08h1.641v0.957
			h-1.641v6.043h-1.114v-6.043h-1.196v-0.957h1.196v-1.135c0-0.734,0.212-1.313,0.636-1.74s0.952-0.639,1.586-0.639
			c0.342,0,0.612,0.041,0.813,0.123V20.549z"/>
		<path fill="#2F2F2F" d="M234.438,24.063c-0.195-0.15-0.479-0.226-0.848-0.226c-0.479,0-0.878,0.226-1.199,0.677
			s-0.482,1.066-0.482,1.846v3.568h-1.121v-7h1.121v1.442h0.027c0.16-0.492,0.403-0.876,0.731-1.152s0.695-0.414,1.101-0.414
			c0.292,0,0.516,0.032,0.67,0.096V24.063z"/>
		<path fill="#2F2F2F" d="M238.58,30.092c-1.034,0-1.86-0.327-2.478-0.981c-0.618-0.654-0.927-1.521-0.927-2.601
			c0-1.176,0.321-2.094,0.964-2.755s1.511-0.991,2.604-0.991c1.044,0,1.858,0.321,2.444,0.964c0.585,0.643,0.878,1.534,0.878,2.673
			c0,1.117-0.315,2.011-0.946,2.683C240.489,29.756,239.643,30.092,238.58,30.092z M238.662,23.707c-0.72,0-1.289,0.245-1.709,0.735
			c-0.419,0.49-0.629,1.166-0.629,2.027c0,0.83,0.212,1.483,0.636,1.962s0.991,0.718,1.702,0.718c0.725,0,1.282-0.235,1.672-0.704
			s0.584-1.137,0.584-2.003c0-0.875-0.194-1.549-0.584-2.023S239.387,23.707,238.662,23.707z"/>
		<path fill="#2F2F2F" d="M253.722,29.928h-1.121v-4.02c0-0.775-0.12-1.335-0.359-1.682s-0.642-0.52-1.206-0.52
			c-0.479,0-0.886,0.219-1.221,0.656s-0.502,0.961-0.502,1.572v3.992h-1.121v-4.156c0-1.376-0.531-2.064-1.593-2.064
			c-0.492,0-0.898,0.206-1.217,0.619c-0.319,0.413-0.479,0.949-0.479,1.61v3.992h-1.121v-7h1.121v1.107h0.027
			c0.496-0.848,1.221-1.271,2.174-1.271c0.479,0,0.896,0.133,1.251,0.4s0.599,0.616,0.731,1.049c0.52-0.966,1.294-1.449,2.324-1.449
			c1.54,0,2.311,0.95,2.311,2.851V29.928z"/>
		<path fill="#2F2F2F" d="M157.88,46.892c-1.035,0-1.86-0.327-2.478-0.981s-0.926-1.521-0.926-2.601
			c0-1.176,0.321-2.094,0.964-2.755s1.511-0.991,2.604-0.991c1.044,0,1.858,0.321,2.444,0.964c0.585,0.643,0.878,1.534,0.878,2.673
			c0,1.117-0.315,2.011-0.946,2.683C159.787,46.556,158.942,46.892,157.88,46.892z M157.962,40.507c-0.72,0-1.29,0.245-1.709,0.735
			s-0.629,1.166-0.629,2.027c0,0.83,0.212,1.483,0.636,1.962s0.991,0.718,1.702,0.718c0.724,0,1.282-0.235,1.671-0.704
			s0.584-1.137,0.584-2.003c0-0.875-0.194-1.549-0.584-2.023S158.686,40.507,157.962,40.507z"/>
		<path fill="#2F2F2F" d="M168.892,46.728h-1.121v-3.992c0-1.486-0.543-2.229-1.627-2.229c-0.561,0-1.024,0.211-1.392,0.632
			c-0.366,0.421-0.55,0.954-0.55,1.596v3.992h-1.121v-7h1.121v1.162h0.027c0.528-0.884,1.294-1.326,2.297-1.326
			c0.766,0,1.351,0.247,1.757,0.742c0.405,0.495,0.608,1.209,0.608,2.143V46.728z"/>
		<path fill="#2F2F2F" d="M172.037,46.728h-1.121V36.365h1.121V46.728z"/>
		<path fill="#2F2F2F" d="M179.908,39.728l-3.22,8.121c-0.574,1.449-1.381,2.174-2.42,2.174c-0.292,0-0.536-0.03-0.731-0.089v-1.005
			c0.241,0.082,0.462,0.123,0.663,0.123c0.564,0,0.988-0.337,1.271-1.012l0.561-1.326l-2.734-6.986h1.244l1.894,5.387
			c0.022,0.068,0.07,0.246,0.144,0.533h0.041c0.022-0.109,0.068-0.283,0.137-0.52l1.989-5.4H179.908z"/>
		<path fill="#2F2F2F" d="M188.76,46.728h-1.121v-8.47c-0.087,0.086-0.213,0.186-0.38,0.297c-0.166,0.112-0.353,0.222-0.561,0.332
			c-0.207,0.109-0.426,0.212-0.656,0.308c-0.229,0.096-0.454,0.171-0.673,0.226v-1.135c0.246-0.068,0.507-0.161,0.782-0.277
			c0.276-0.116,0.547-0.246,0.813-0.39s0.519-0.294,0.756-0.451c0.236-0.157,0.441-0.311,0.615-0.461h0.424V46.728z"/>
		<path fill="#2F2F2F" d="M199.978,40.863c-0.196-0.15-0.479-0.226-0.848-0.226c-0.479,0-0.879,0.226-1.2,0.677
			s-0.481,1.066-0.481,1.846v3.568h-1.121v-7h1.121v1.442h0.027c0.159-0.492,0.403-0.876,0.731-1.152s0.694-0.414,1.101-0.414
			c0.291,0,0.515,0.032,0.67,0.096V40.863z"/>
		<path fill="#2F2F2F" d="M206.821,43.508h-4.942c0.018,0.779,0.228,1.381,0.629,1.805c0.4,0.424,0.952,0.636,1.654,0.636
			c0.788,0,1.513-0.26,2.174-0.779v1.053c-0.615,0.447-1.429,0.67-2.44,0.67c-0.989,0-1.767-0.318-2.331-0.954
			c-0.565-0.636-0.848-1.53-0.848-2.683c0-1.089,0.309-1.977,0.926-2.663c0.618-0.686,1.385-1.029,2.301-1.029
			s1.624,0.296,2.126,0.889c0.501,0.592,0.752,1.415,0.752,2.468V43.508z M205.672,42.558c-0.005-0.647-0.161-1.151-0.469-1.511
			s-0.734-0.54-1.281-0.54c-0.529,0-0.978,0.189-1.347,0.567s-0.598,0.873-0.684,1.483H205.672z"/>
		<path fill="#2F2F2F" d="M209.652,45.716h-0.027v4.231h-1.121v-10.22h1.121v1.23h0.027c0.551-0.93,1.357-1.395,2.42-1.395
			c0.902,0,1.606,0.313,2.112,0.94s0.759,1.466,0.759,2.519c0,1.171-0.285,2.109-0.854,2.813c-0.57,0.704-1.35,1.056-2.338,1.056
			C210.843,46.892,210.144,46.5,209.652,45.716z M209.624,42.893v0.978c0,0.579,0.188,1.07,0.563,1.473s0.854,0.605,1.433,0.605
			c0.679,0,1.211-0.26,1.596-0.779c0.386-0.52,0.578-1.242,0.578-2.167c0-0.779-0.181-1.39-0.54-1.832
			c-0.36-0.442-0.848-0.663-1.463-0.663c-0.652,0-1.176,0.227-1.572,0.68S209.624,42.209,209.624,42.893z"/>
		<path fill="#2F2F2F" d="M217.793,46.728h-1.121V36.365h1.121V46.728z"/>
		<path fill="#2F2F2F" d="M220.48,37.951c-0.2,0-0.371-0.068-0.513-0.205c-0.141-0.137-0.212-0.31-0.212-0.52
			s0.071-0.384,0.212-0.523c0.142-0.139,0.312-0.208,0.513-0.208c0.205,0,0.38,0.069,0.523,0.208s0.215,0.313,0.215,0.523
			c0,0.201-0.071,0.372-0.215,0.513S220.685,37.951,220.48,37.951z M221.027,46.728h-1.121v-7h1.121V46.728z"/>
		<path fill="#2F2F2F" d="M227.939,46.407c-0.537,0.324-1.176,0.485-1.914,0.485c-0.998,0-1.804-0.325-2.416-0.974
			c-0.613-0.649-0.92-1.491-0.92-2.526c0-1.153,0.331-2.079,0.991-2.779c0.661-0.7,1.543-1.049,2.646-1.049
			c0.615,0,1.158,0.114,1.627,0.342v1.148c-0.52-0.365-1.075-0.547-1.668-0.547c-0.715,0-1.302,0.256-1.76,0.769
			s-0.688,1.186-0.688,2.02c0,0.82,0.216,1.467,0.646,1.941s1.008,0.711,1.732,0.711c0.611,0,1.186-0.203,1.723-0.608V46.407z"/>
		<path fill="#2F2F2F" d="M234.683,46.728h-1.121v-1.094h-0.027c-0.488,0.838-1.206,1.258-2.153,1.258
			c-0.697,0-1.243-0.185-1.638-0.554c-0.394-0.369-0.591-0.859-0.591-1.47c0-1.308,0.77-2.069,2.311-2.283l2.099-0.294
			c0-1.189-0.481-1.784-1.442-1.784c-0.844,0-1.604,0.287-2.283,0.861V40.22c0.688-0.438,1.48-0.656,2.379-0.656
			c1.645,0,2.468,0.871,2.468,2.611V46.728z M233.562,43.187l-1.688,0.232c-0.52,0.073-0.912,0.202-1.176,0.386
			c-0.265,0.185-0.396,0.512-0.396,0.981c0,0.342,0.122,0.621,0.365,0.837c0.244,0.216,0.568,0.325,0.975,0.325
			c0.556,0,1.015-0.195,1.377-0.584s0.544-0.883,0.544-1.48V43.187z"/>
	</g>
	<g>
		<path fill="#2F2F2F" d="M101.885,123.729v3.377h-2.208v-9.803h3.459c2.47,0,3.705,1.042,3.705,3.124
			c0,0.984-0.354,1.781-1.063,2.389s-1.655,0.913-2.84,0.913H101.885z M101.885,118.999v3.056h0.868
			c1.176,0,1.764-0.515,1.764-1.545c0-1.007-0.588-1.511-1.764-1.511H101.885z"/>
	</g>
</g>
<g id="Layer_1">
</g>
</svg>
