<?xml version="1.0" encoding="utf-8"?>
<!-- Generator: Adobe Illustrator 26.5.0, SVG Export Plug-In . SVG Version: 6.00 Build 0)  -->
<svg version="1.1" xmlns="http://www.w3.org/2000/svg" xmlns:xlink="http://www.w3.org/1999/xlink" x="0px" y="0px"
	 viewBox="0 0 370 261" enable-background="new 0 0 370 261" xml:space="preserve">
<symbol  id="New_Symbol_41" viewBox="-10.5 -10.403 21 20.403">
	<circle fill="#505150" cx="0" cy="0" r="10"/>
	<text transform="matrix(1 0 0 -1 -2.8169 -4.4282)" fill="#FFFFFF" font-family="'SegoeUI-Semibold'" font-size="14px">1</text>
	<rect x="-10.5" y="-10" display="none" fill="none" width="21" height="20"/>
</symbol>
<symbol  id="New_Symbol_42" viewBox="-10.5 -10.403 21 20.403">
	<circle fill="#505150" cx="0" cy="0" r="10"/>
	<text transform="matrix(1 0 0 -1 -3.8867 -4.4282)" fill="#FFFFFF" font-family="'SegoeUI-Semibold'" font-size="14px">2</text>
	<rect x="-10.5" y="-10" display="none" fill="none" width="21" height="20"/>
</symbol>
<symbol  id="PIPELINE" viewBox="-32 -12.266 64 24.531">
	<linearGradient id="SVGID_1_" gradientUnits="userSpaceOnUse" x1="0" y1="-12.2655" x2="1.502093e-15" y2="12.2655">
		<stop  offset="0" style="stop-color:#1B89B2"/>
		<stop  offset="1" style="stop-color:#51C8E8"/>
	</linearGradient>
	<path fill="url(#SVGID_1_)" d="M26.096,12.266h-51.448v0h0C-29.08,12.265-32,6.878-32,0s2.92-12.265,6.648-12.265h0v0h51.448
		C29.356-12.266,32-6.363,32,0S29.356,12.266,26.096,12.266z"/>
	<g>
		
			<linearGradient id="SVGID_00000047037338299075389730000001880051918837550741_" gradientUnits="userSpaceOnUse" x1="-31.461" y1="-6.1136" x2="-19.2338" y2="6.1136">
			<stop  offset="0" style="stop-color:#B3B4B4"/>
			<stop  offset="1" style="stop-color:#4F4F4F"/>
		</linearGradient>
		<ellipse fill="url(#SVGID_00000047037338299075389730000001880051918837550741_)" cx="-25.347" cy="0" rx="5.575" ry="10.879"/>
	</g>
</symbol>
<g id="Shapes">
	<rect fill="#FFFFFF" width="370" height="261"/>
	<g>
		<rect x="23.215" y="75.003" opacity="0.25" fill="#F2F2F2" width="160.224" height="151.659"/>
		
			<rect x="23.215" y="75.003" fill="none" stroke="#CCCCCB" stroke-width="0.5" stroke-miterlimit="10" width="160.224" height="151.659"/>
	</g>
	<g>
		<g>
			<g opacity="0.3">
				<circle fill="#212121" cx="104.326" cy="151.154" r="61.866"/>
				<circle opacity="0.35" fill="#212121" cx="104.326" cy="151.154" r="61.866"/>
			</g>
			<g>
				<circle fill="#FFFFFF" cx="103.326" cy="150.154" r="61.866"/>
				<circle opacity="0.35" fill="#1B93EB" cx="103.326" cy="150.154" r="61.866"/>
			</g>
		</g>
		<g>
			<g>
				<g opacity="0.3">
					<rect x="88.86" y="112.71" fill="#212121" width="30.933" height="30.933"/>
				</g>
				<g>
					<rect x="87.86" y="111.71" fill="#FFFFFF" width="30.933" height="30.933"/>
				</g>
			</g>
			<g>
				<g opacity="0.3">
					<rect x="88.86" y="148.061" fill="#212121" width="30.933" height="30.933"/>
				</g>
				<g>
					<rect x="87.86" y="147.061" fill="#FFFFFF" width="30.933" height="30.933"/>
				</g>
			</g>
			<g>
				<g opacity="0.3">
					<rect x="124.212" y="148.061" fill="#212121" width="30.933" height="30.933"/>
				</g>
				<g>
					<rect x="123.212" y="147.061" fill="#FFFFFF" width="30.933" height="30.933"/>
				</g>
			</g>
			<g>
				<g opacity="0.3">
					<rect x="53.508" y="148.061" fill="#212121" width="30.933" height="30.933"/>
				</g>
				<g>
					<rect x="52.508" y="147.061" fill="#FFFFFF" width="30.933" height="30.933"/>
				</g>
			</g>
		</g>
	</g>
	<g id="Wrench_tool_x28_s_x29_">
	</g>
	<g id="user2">
	</g>
	<g id="user2_1_">
	</g>
	<g id="user2_4_">
	</g>
	<g id="user2_3_">
	</g>
	<g id="user2_2_">
	</g>
	<g id="Internet_2">
	</g>
	<g id="Enterprise">
	</g>
	<g id="Tunnel__x28_stackable_x29_">
	</g>
	<g id="New_Symbol">
	</g>
	<g id="New_Symbol_1">
	</g>
	<g id="Files">
	</g>
	<g id="BlobBlock">
	</g>
	<g id="E_x5F_Enterprise">
	</g>
	<g id="E_x5F_AD_FS">
	</g>
	<g id="C_x5F_Azure_Active_Directory">
	</g>
	<g id="Success_Checked">
		<path fill="#1F56A3" d="M95.594,134.401l-0.557-0.603c-0.145-0.16-0.145-0.412,0.023-0.565l1.61-1.488
			c0.077-0.069,0.168-0.106,0.268-0.106c0.113,0,0.214,0.046,0.29,0.129l4.427,4.747l7.617-9.756
			c0.077-0.099,0.191-0.152,0.313-0.152c0.092,0,0.175,0.03,0.245,0.085l1.741,1.343c0.085,0.062,0.136,0.152,0.152,0.26
			c0.007,0.106-0.016,0.214-0.085,0.29l-9.784,12.526L95.594,134.401z"/>
		<path fill="#1F56A3" d="M60.033,163.566l-0.557-0.603c-0.145-0.16-0.145-0.412,0.023-0.565l1.61-1.488
			c0.077-0.069,0.168-0.106,0.268-0.106c0.113,0,0.214,0.046,0.29,0.129l4.427,4.747l7.617-9.756
			c0.077-0.099,0.191-0.152,0.313-0.152c0.092,0,0.175,0.03,0.245,0.085l1.741,1.343c0.085,0.062,0.136,0.152,0.152,0.26
			c0.007,0.106-0.016,0.214-0.085,0.29l-9.784,12.526L60.033,163.566z"/>
		<path fill="#1F56A3" d="M95.594,163.566l-0.557-0.603c-0.145-0.16-0.145-0.412,0.023-0.565l1.61-1.488
			c0.077-0.069,0.168-0.106,0.268-0.106c0.113,0,0.214,0.046,0.29,0.129l4.427,4.747l7.617-9.756
			c0.077-0.099,0.191-0.152,0.313-0.152c0.092,0,0.175,0.03,0.245,0.085l1.741,1.343c0.085,0.062,0.136,0.152,0.152,0.26
			c0.007,0.106-0.016,0.214-0.085,0.29l-9.784,12.526L95.594,163.566z"/>
		<path fill="#1F56A3" d="M269.169,134.401l-0.557-0.603c-0.145-0.16-0.145-0.412,0.023-0.565l1.61-1.488
			c0.077-0.069,0.168-0.106,0.268-0.106c0.113,0,0.214,0.046,0.29,0.129l4.427,4.747l7.617-9.756
			c0.077-0.099,0.191-0.152,0.313-0.152c0.092,0,0.175,0.03,0.245,0.085l1.741,1.343c0.085,0.062,0.136,0.152,0.152,0.26
			c0.007,0.106-0.016,0.214-0.085,0.29l-9.784,12.526L269.169,134.401z"/>
		<path fill="#1F56A3" d="M233.608,163.566l-0.557-0.603c-0.145-0.16-0.145-0.412,0.023-0.565l1.61-1.488
			c0.077-0.069,0.168-0.106,0.268-0.106c0.113,0,0.214,0.046,0.29,0.129l4.427,4.747l7.617-9.756
			c0.077-0.099,0.191-0.152,0.313-0.152c0.092,0,0.175,0.03,0.245,0.085l1.741,1.343c0.085,0.062,0.136,0.152,0.152,0.26
			c0.007,0.106-0.016,0.214-0.085,0.29l-9.784,12.526L233.608,163.566z"/>
		<path fill="#1F56A3" d="M269.169,163.566l-0.557-0.603c-0.145-0.16-0.145-0.412,0.023-0.565l1.61-1.488
			c0.077-0.069,0.168-0.106,0.268-0.106c0.113,0,0.214,0.046,0.29,0.129l4.427,4.747l7.617-9.756
			c0.077-0.099,0.191-0.152,0.313-0.152c0.092,0,0.175,0.03,0.245,0.085l1.741,1.343c0.085,0.062,0.136,0.152,0.152,0.26
			c0.007,0.106-0.016,0.214-0.085,0.29l-9.784,12.526L269.169,163.566z"/>
	</g>
	
		<use xlink:href="#New_Symbol_41"  width="21" height="20.403" x="-10.5" y="-10.403" transform="matrix(1 0 0 -1 103.3265 14.674)" overflow="visible"/>
	<g>
		<g>
			<line fill="none" stroke="#3C3C41" stroke-miterlimit="10" x1="103.326" y1="55.273" x2="103.326" y2="100.986"/>
			<g>
				<polygon fill="#3C3C41" points="99.587,99.892 103.326,106.369 107.066,99.892 				"/>
			</g>
		</g>
	</g>
	<g>
		<rect x="103" y="49" fill="#3C3C41" width="1" height="1.5"/>
		<path fill="#3C3C41" d="M104,46.429h-1v-2.571h1V46.429z M104,41.286h-1v-2.571h1V41.286z M104,36.143h-1v-2.571h1V36.143z"/>
		<rect x="103" y="29.5" fill="#3C3C41" width="1" height="1.5"/>
	</g>
	
		<use xlink:href="#New_Symbol_42"  width="21" height="20.403" x="-10.5" y="-10.403" transform="matrix(1 0 0 -1 138.6458 33.961)" overflow="visible"/>
	<g>
		<g>
			<line fill="none" stroke="#3C3C41" stroke-miterlimit="10" x1="138.646" y1="69.176" x2="138.646" y2="141.11"/>
			<g>
				<polygon fill="#3C3C41" points="134.906,70.27 138.646,63.793 142.385,70.27 				"/>
			</g>
		</g>
	</g>
	<g>
		<rect x="138" y="59" fill="#3C3C41" width="1" height="1.5"/>
		<rect x="138" y="51.666" fill="#3C3C41" width="1" height="3.667"/>
		<rect x="138" y="46.5" fill="#3C3C41" width="1" height="1.5"/>
	</g>
	<polygon fill="#B32025" points="147.405,157.306 144.301,154.186 138.583,159.904 132.866,154.186 129.745,157.306 
		135.447,163.023 129.745,168.724 132.866,171.845 138.568,166.144 144.284,171.862 147.405,168.741 141.687,163.023 	"/>
	<g>
		<rect x="196.79" y="75.003" opacity="0.25" fill="#F2F2F2" width="160.224" height="151.659"/>
		
			<rect x="196.79" y="75.003" fill="none" stroke="#CCCCCB" stroke-width="0.5" stroke-miterlimit="10" width="160.224" height="151.659"/>
	</g>
	<g>
		<g>
			<g opacity="0.3">
				<circle fill="#212121" cx="277.901" cy="151.154" r="61.866"/>
				<circle opacity="0.35" fill="#212121" cx="277.901" cy="151.154" r="61.866"/>
			</g>
			<g>
				<circle fill="#FFFFFF" cx="276.901" cy="150.154" r="61.866"/>
				<circle opacity="0.35" fill="#1B93EB" cx="276.901" cy="150.154" r="61.866"/>
			</g>
		</g>
		<g>
			<g>
				<g opacity="0.3">
					<rect x="262.435" y="112.71" fill="#212121" width="30.933" height="30.933"/>
				</g>
				<g>
					<rect x="261.435" y="111.71" fill="#FFFFFF" width="30.933" height="30.933"/>
				</g>
			</g>
			<g>
				<g opacity="0.3">
					<rect x="262.435" y="148.061" fill="#212121" width="30.933" height="30.933"/>
				</g>
				<g>
					<rect x="261.435" y="147.061" fill="#FFFFFF" width="30.933" height="30.933"/>
				</g>
			</g>
			<g>
				<g opacity="0.3">
					<rect x="297.787" y="148.061" fill="#212121" width="30.933" height="30.933"/>
				</g>
				<g>
					<rect x="296.787" y="147.061" fill="#FFFFFF" width="30.933" height="30.933"/>
				</g>
			</g>
			<g>
				<g opacity="0.3">
					<rect x="227.083" y="148.061" fill="#212121" width="30.933" height="30.933"/>
				</g>
				<g>
					<rect x="226.083" y="147.061" fill="#FFFFFF" width="30.933" height="30.933"/>
				</g>
			</g>
		</g>
	</g>
	<polygon fill="#B32025" points="320.98,157.306 317.876,154.186 312.158,159.904 306.441,154.186 303.32,157.306 309.022,163.023 
		303.32,168.724 306.441,171.845 312.143,166.144 317.859,171.862 320.98,168.741 315.262,163.023 	"/>
</g>
<g id="Text">
	<g>
		<path fill="#2F2F2F" d="M85.375,250.297h-2.536l-1.524-2.522c-0.114-0.191-0.223-0.362-0.328-0.513s-0.211-0.279-0.318-0.387
			c-0.107-0.106-0.219-0.188-0.335-0.246c-0.116-0.057-0.243-0.085-0.379-0.085H79.36v3.753h-2.208v-9.803h3.5
			c2.379,0,3.568,0.889,3.568,2.666c0,0.342-0.052,0.657-0.157,0.946c-0.105,0.29-0.253,0.551-0.444,0.783s-0.423,0.433-0.694,0.602
			c-0.271,0.168-0.573,0.301-0.906,0.396v0.027c0.146,0.045,0.287,0.119,0.424,0.222s0.269,0.223,0.396,0.359s0.25,0.283,0.366,0.44
			s0.222,0.312,0.318,0.462L85.375,250.297z M79.36,242.148v2.728h0.957c0.474,0,0.854-0.137,1.142-0.41
			c0.292-0.278,0.438-0.622,0.438-1.032c0-0.857-0.513-1.285-1.538-1.285H79.36z"/>
		<path fill="#2F2F2F" d="M92.194,247.412h-4.566c0.073,1.016,0.713,1.524,1.921,1.524c0.77,0,1.447-0.183,2.03-0.547v1.559
			c-0.647,0.346-1.488,0.52-2.522,0.52c-1.13,0-2.007-0.313-2.632-0.94c-0.625-0.626-0.937-1.5-0.937-2.621
			c0-1.162,0.337-2.083,1.012-2.762c0.674-0.68,1.504-1.019,2.488-1.019c1.021,0,1.811,0.303,2.369,0.909
			c0.558,0.605,0.837,1.429,0.837,2.468V247.412z M90.191,246.086c0-1.003-0.406-1.504-1.217-1.504
			c-0.346,0-0.646,0.144-0.899,0.431s-0.407,0.645-0.461,1.073H90.191z"/>
		<path fill="#2F2F2F" d="M100.453,249.497c0,1.299-0.376,2.305-1.128,3.018c-0.752,0.714-1.841,1.07-3.268,1.07
			c-0.943,0-1.691-0.135-2.242-0.403v-1.818c0.72,0.419,1.447,0.629,2.181,0.629c0.729,0,1.294-0.192,1.695-0.578
			c0.401-0.385,0.602-0.908,0.602-1.568v-0.554h-0.027c-0.492,0.783-1.219,1.176-2.181,1.176c-0.893,0-1.602-0.314-2.126-0.943
			s-0.786-1.473-0.786-2.529c0-1.186,0.292-2.126,0.875-2.823s1.351-1.046,2.304-1.046c0.852,0,1.49,0.328,1.914,0.984h0.027v-0.813
			h2.16V249.497z M98.32,246.934v-0.554c0-0.442-0.131-0.819-0.393-1.132c-0.262-0.312-0.603-0.468-1.022-0.468
			c-0.479,0-0.854,0.187-1.128,0.561c-0.273,0.373-0.41,0.899-0.41,1.579c0,0.583,0.13,1.045,0.39,1.384
			c0.26,0.34,0.615,0.51,1.066,0.51c0.447,0,0.808-0.172,1.083-0.517C98.182,247.953,98.32,247.498,98.32,246.934z"/>
		<path fill="#2F2F2F" d="M103.308,242.189c-0.365,0-0.663-0.108-0.896-0.325c-0.232-0.216-0.349-0.481-0.349-0.796
			c0-0.324,0.116-0.588,0.349-0.793s0.531-0.308,0.896-0.308c0.369,0,0.669,0.103,0.899,0.308s0.345,0.469,0.345,0.793
			c0,0.328-0.115,0.597-0.345,0.807C103.977,242.084,103.677,242.189,103.308,242.189z M104.374,250.297h-2.16v-7h2.16V250.297z"/>
		<path fill="#2F2F2F" d="M109.485,250.468c-1.167,0-2.084-0.327-2.751-0.981c-0.667-0.653-1.001-1.541-1.001-2.662
			c0-1.158,0.346-2.063,1.039-2.718c0.693-0.653,1.629-0.98,2.81-0.98c1.162,0,2.074,0.327,2.734,0.98
			c0.661,0.654,0.991,1.519,0.991,2.595c0,1.162-0.341,2.08-1.022,2.755C111.603,250.13,110.67,250.468,109.485,250.468z
			 M109.54,244.78c-0.51,0-0.907,0.175-1.189,0.526c-0.283,0.351-0.424,0.848-0.424,1.49c0,1.344,0.542,2.017,1.627,2.017
			c1.035,0,1.552-0.69,1.552-2.071C111.105,245.434,110.583,244.78,109.54,244.78z"/>
		<path fill="#2F2F2F" d="M121.447,250.297h-2.153v-3.89c0-1.085-0.387-1.627-1.162-1.627c-0.374,0-0.681,0.144-0.923,0.431
			s-0.362,0.651-0.362,1.094v3.992h-2.16v-7h2.16v1.107h0.027c0.515-0.853,1.265-1.278,2.249-1.278c1.549,0,2.324,0.961,2.324,2.885
			V250.297z"/>
		<path fill="#2F2F2F" d="M131.797,240.275v10.021h-2.153v-7.588c-0.119,0.104-0.259,0.204-0.42,0.297
			c-0.162,0.094-0.334,0.178-0.516,0.253s-0.372,0.14-0.567,0.191c-0.196,0.053-0.39,0.09-0.581,0.113v-1.818
			c0.561-0.164,1.089-0.374,1.586-0.629c0.497-0.256,0.946-0.536,1.347-0.841H131.797z"/>
	</g>
	<g>
		<path fill="#2F2F2F" d="M13.21,20.348h-1.367L10.202,17.6c-0.15-0.255-0.296-0.473-0.438-0.652s-0.286-0.327-0.434-0.441
			c-0.148-0.113-0.308-0.197-0.479-0.249s-0.363-0.079-0.578-0.079H7.331v4.17H6.183v-9.803h2.926c0.428,0,0.824,0.055,1.186,0.161
			s0.677,0.271,0.943,0.489s0.475,0.49,0.625,0.816s0.226,0.707,0.226,1.145c0,0.342-0.051,0.656-0.154,0.94
			s-0.249,0.539-0.438,0.763c-0.189,0.223-0.417,0.413-0.684,0.57s-0.566,0.279-0.899,0.365v0.027
			c0.164,0.073,0.307,0.156,0.427,0.25s0.236,0.204,0.345,0.332c0.109,0.127,0.218,0.271,0.325,0.434s0.227,0.35,0.359,0.564
			L13.21,20.348z M7.331,11.584v3.555H8.89c0.287,0,0.553-0.043,0.796-0.129c0.244-0.087,0.455-0.211,0.632-0.373
			s0.317-0.359,0.417-0.595s0.15-0.498,0.15-0.79c0-0.523-0.17-0.933-0.509-1.227s-0.831-0.441-1.473-0.441H7.331z"/>
		<path fill="#2F2F2F" d="M19.822,17.129H14.88c0.018,0.779,0.228,1.381,0.629,1.805s0.953,0.635,1.654,0.635
			c0.789,0,1.513-0.26,2.174-0.779v1.053c-0.615,0.447-1.429,0.67-2.44,0.67c-0.989,0-1.766-0.317-2.331-0.953
			s-0.848-1.53-0.848-2.684c0-1.089,0.309-1.977,0.926-2.662s1.384-1.029,2.3-1.029s1.625,0.297,2.126,0.889
			c0.501,0.593,0.752,1.416,0.752,2.469V17.129z M18.674,16.178c-0.004-0.646-0.161-1.15-0.468-1.51
			c-0.308-0.36-0.735-0.541-1.282-0.541c-0.529,0-0.978,0.189-1.347,0.568c-0.369,0.378-0.597,0.872-0.684,1.482H18.674z"/>
		<path fill="#2F2F2F" d="M26.461,20.348H25.34v-1.094h-0.027c-0.488,0.839-1.206,1.258-2.153,1.258
			c-0.697,0-1.243-0.184-1.637-0.553s-0.591-0.859-0.591-1.471c0-1.308,0.77-2.068,2.311-2.283l2.099-0.293
			c0-1.189-0.481-1.785-1.442-1.785c-0.843,0-1.604,0.287-2.283,0.861V13.84c0.688-0.438,1.481-0.656,2.379-0.656
			c1.645,0,2.468,0.871,2.468,2.611V20.348z M25.34,16.807l-1.688,0.232c-0.52,0.073-0.912,0.202-1.176,0.387
			s-0.396,0.512-0.396,0.98c0,0.342,0.122,0.621,0.366,0.838s0.568,0.324,0.974,0.324c0.556,0,1.015-0.194,1.377-0.584
			s0.543-0.883,0.543-1.48V16.807z"/>
		<path fill="#2F2F2F" d="M34.53,20.348h-1.121v-1.189h-0.027c-0.52,0.902-1.322,1.354-2.406,1.354
			c-0.879,0-1.583-0.312-2.109-0.939s-0.79-1.48-0.79-2.561c0-1.157,0.292-2.084,0.875-2.781s1.36-1.047,2.331-1.047
			c0.961,0,1.661,0.379,2.099,1.135h0.027V9.984h1.121V20.348z M33.409,17.184V16.15c0-0.564-0.187-1.043-0.561-1.436
			c-0.374-0.392-0.848-0.588-1.422-0.588c-0.684,0-1.221,0.251-1.613,0.752c-0.392,0.502-0.588,1.194-0.588,2.078
			c0,0.807,0.188,1.443,0.564,1.911s0.881,0.7,1.514,0.7c0.625,0,1.131-0.225,1.521-0.676S33.409,17.871,33.409,17.184z"/>
		<path fill="#2F2F2F" d="M44.285,14.482c-0.196-0.15-0.479-0.225-0.848-0.225c-0.479,0-0.878,0.225-1.2,0.676
			S41.755,16,41.755,16.779v3.568h-1.121v-7h1.121v1.443h0.027c0.16-0.492,0.403-0.877,0.731-1.152s0.695-0.414,1.101-0.414
			c0.292,0,0.515,0.032,0.67,0.096V14.482z"/>
		<path fill="#2F2F2F" d="M51.127,17.129h-4.942c0.018,0.779,0.228,1.381,0.629,1.805s0.953,0.635,1.654,0.635
			c0.789,0,1.513-0.26,2.174-0.779v1.053c-0.615,0.447-1.429,0.67-2.44,0.67c-0.989,0-1.766-0.317-2.331-0.953
			s-0.848-1.53-0.848-2.684c0-1.089,0.309-1.977,0.926-2.662s1.384-1.029,2.3-1.029s1.625,0.297,2.126,0.889
			c0.501,0.593,0.752,1.416,0.752,2.469V17.129z M49.979,16.178c-0.004-0.646-0.161-1.15-0.468-1.51
			c-0.308-0.36-0.735-0.541-1.282-0.541c-0.529,0-0.978,0.189-1.347,0.568c-0.369,0.378-0.597,0.872-0.684,1.482H49.979z"/>
		<path fill="#2F2F2F" d="M58.828,23.568h-1.121v-4.424H57.68c-0.488,0.912-1.285,1.367-2.393,1.367
			c-0.879,0-1.585-0.312-2.116-0.939s-0.796-1.48-0.796-2.561c0-1.162,0.292-2.09,0.875-2.785s1.367-1.043,2.352-1.043
			c0.957,0,1.65,0.379,2.078,1.135h0.027v-0.971h1.121V23.568z M57.707,17.197v-1.02c0-0.574-0.188-1.059-0.564-1.455
			s-0.854-0.596-1.432-0.596c-0.674,0-1.208,0.25-1.6,0.749s-0.588,1.202-0.588,2.108c0,0.807,0.189,1.439,0.567,1.897
			s0.866,0.687,1.463,0.687c0.656,0,1.179-0.225,1.569-0.673S57.707,17.881,57.707,17.197z"/>
		<path fill="#2F2F2F" d="M66.656,20.348h-1.121V19.24h-0.027c-0.465,0.848-1.185,1.271-2.16,1.271c-1.668,0-2.502-0.993-2.502-2.98
			v-4.184h1.114v4.006c0,1.477,0.565,2.215,1.695,2.215c0.547,0,0.997-0.201,1.35-0.604s0.53-0.931,0.53-1.583v-4.033h1.121V20.348z
			"/>
		<path fill="#2F2F2F" d="M74.476,17.129h-4.942c0.018,0.779,0.228,1.381,0.629,1.805s0.953,0.635,1.654,0.635
			c0.789,0,1.513-0.26,2.174-0.779v1.053c-0.615,0.447-1.429,0.67-2.44,0.67c-0.989,0-1.766-0.317-2.331-0.953
			s-0.848-1.53-0.848-2.684c0-1.089,0.309-1.977,0.926-2.662s1.384-1.029,2.3-1.029s1.625,0.297,2.126,0.889
			c0.501,0.593,0.752,1.416,0.752,2.469V17.129z M73.327,16.178c-0.004-0.646-0.161-1.15-0.468-1.51
			c-0.308-0.36-0.735-0.541-1.282-0.541c-0.529,0-0.978,0.189-1.347,0.568c-0.369,0.378-0.597,0.872-0.684,1.482H73.327z"/>
		<path fill="#2F2F2F" d="M75.718,20.096v-1.203c0.611,0.451,1.283,0.676,2.017,0.676c0.984,0,1.477-0.328,1.477-0.984
			c0-0.187-0.042-0.345-0.126-0.475s-0.198-0.245-0.342-0.346c-0.144-0.1-0.312-0.189-0.506-0.27s-0.402-0.163-0.625-0.25
			c-0.31-0.123-0.582-0.246-0.817-0.372s-0.431-0.267-0.588-0.424s-0.276-0.336-0.355-0.536c-0.08-0.201-0.12-0.436-0.12-0.705
			c0-0.328,0.075-0.618,0.226-0.871s0.351-0.465,0.602-0.636s0.537-0.3,0.858-0.386c0.321-0.087,0.653-0.131,0.995-0.131
			c0.606,0,1.148,0.105,1.627,0.314v1.135c-0.515-0.337-1.107-0.506-1.777-0.506c-0.209,0-0.399,0.024-0.567,0.072
			s-0.313,0.115-0.434,0.201c-0.121,0.087-0.214,0.191-0.28,0.312s-0.099,0.254-0.099,0.399c0,0.183,0.033,0.336,0.099,0.459
			s0.163,0.232,0.291,0.328s0.283,0.182,0.465,0.26c0.182,0.077,0.39,0.161,0.622,0.252c0.31,0.119,0.588,0.24,0.834,0.366
			s0.456,0.267,0.629,0.424s0.307,0.339,0.4,0.544s0.14,0.448,0.14,0.73c0,0.347-0.076,0.647-0.229,0.902
			c-0.153,0.256-0.356,0.468-0.612,0.637c-0.255,0.168-0.549,0.293-0.882,0.375s-0.681,0.123-1.046,0.123
			C76.871,20.512,76.247,20.373,75.718,20.096z"/>
		<path fill="#2F2F2F" d="M85.371,20.279c-0.264,0.146-0.613,0.219-1.046,0.219c-1.226,0-1.839-0.684-1.839-2.051v-4.143h-1.203
			v-0.957h1.203v-1.709l1.121-0.361v2.07h1.764v0.957h-1.764v3.945c0,0.469,0.08,0.804,0.239,1.004
			c0.16,0.201,0.424,0.301,0.793,0.301c0.283,0,0.526-0.077,0.731-0.232V20.279z"/>
	</g>
	<g>
		<rect x="154.112" y="17.527" fill="none" width="210.991" height="35.797"/>
		<path fill="#2F2F2F" d="M162.425,29.429h-1.367l-1.641-2.748c-0.15-0.256-0.296-0.473-0.438-0.653
			c-0.141-0.18-0.286-0.327-0.434-0.44c-0.148-0.114-0.308-0.197-0.479-0.25c-0.171-0.052-0.363-0.078-0.578-0.078h-0.943v4.17
			h-1.148v-9.803h2.926c0.428,0,0.824,0.054,1.186,0.16c0.362,0.107,0.677,0.271,0.943,0.489s0.475,0.491,0.625,0.816
			c0.15,0.326,0.226,0.708,0.226,1.146c0,0.342-0.051,0.655-0.154,0.939c-0.103,0.285-0.249,0.539-0.438,0.763
			c-0.189,0.223-0.417,0.413-0.684,0.57s-0.566,0.279-0.899,0.366v0.027c0.164,0.072,0.307,0.156,0.427,0.249
			c0.121,0.094,0.236,0.204,0.345,0.332c0.109,0.127,0.218,0.272,0.325,0.434c0.107,0.162,0.227,0.35,0.359,0.564L162.425,29.429z
			 M156.546,20.665v3.555h1.559c0.287,0,0.553-0.044,0.796-0.13c0.244-0.087,0.455-0.211,0.632-0.373
			c0.178-0.161,0.317-0.359,0.417-0.595c0.1-0.234,0.15-0.498,0.15-0.789c0-0.524-0.17-0.934-0.509-1.228s-0.831-0.44-1.473-0.44
			H156.546z"/>
		<path fill="#2F2F2F" d="M169.037,26.209h-4.942c0.018,0.779,0.228,1.381,0.629,1.805s0.953,0.636,1.654,0.636
			c0.789,0,1.513-0.26,2.174-0.779v1.053c-0.615,0.446-1.429,0.67-2.44,0.67c-0.989,0-1.766-0.318-2.331-0.954
			s-0.848-1.53-0.848-2.683c0-1.09,0.309-1.977,0.926-2.663c0.618-0.686,1.384-1.028,2.3-1.028s1.625,0.296,2.126,0.889
			c0.501,0.592,0.752,1.415,0.752,2.468V26.209z M167.889,25.259c-0.004-0.647-0.161-1.151-0.468-1.511
			c-0.308-0.36-0.735-0.54-1.282-0.54c-0.529,0-0.978,0.188-1.347,0.567c-0.369,0.378-0.597,0.872-0.684,1.483H167.889z"/>
		<path fill="#2F2F2F" d="M173.961,29.36c-0.264,0.146-0.613,0.219-1.046,0.219c-1.226,0-1.839-0.684-1.839-2.051v-4.143h-1.203
			v-0.957h1.203V20.72l1.121-0.362v2.071h1.764v0.957h-1.764v3.944c0,0.469,0.08,0.804,0.239,1.005
			c0.16,0.2,0.424,0.301,0.793,0.301c0.283,0,0.526-0.078,0.731-0.232V29.36z"/>
		<path fill="#2F2F2F" d="M181.079,29.429h-1.121v-1.107h-0.027c-0.465,0.848-1.185,1.271-2.16,1.271
			c-1.668,0-2.502-0.994-2.502-2.98v-4.184h1.114v4.006c0,1.477,0.565,2.215,1.695,2.215c0.547,0,0.997-0.202,1.35-0.605
			s0.53-0.931,0.53-1.582v-4.033h1.121V29.429z"/>
		<path fill="#2F2F2F" d="M186.837,23.563c-0.196-0.15-0.479-0.226-0.848-0.226c-0.479,0-0.878,0.226-1.2,0.677
			s-0.482,1.066-0.482,1.846v3.568h-1.121v-7h1.121v1.442h0.027c0.16-0.492,0.403-0.876,0.731-1.152
			c0.328-0.275,0.695-0.413,1.101-0.413c0.292,0,0.515,0.031,0.67,0.096V23.563z"/>
		<path fill="#2F2F2F" d="M193.891,29.429h-1.121v-3.992c0-1.486-0.542-2.229-1.627-2.229c-0.561,0-1.024,0.211-1.391,0.632
			c-0.367,0.422-0.55,0.954-0.55,1.597v3.992h-1.121v-7h1.121v1.162h0.027c0.529-0.885,1.294-1.326,2.297-1.326
			c0.766,0,1.351,0.247,1.757,0.741c0.406,0.495,0.608,1.209,0.608,2.144V29.429z"/>
		<path fill="#2F2F2F" d="M195.539,29.176v-1.203c0.611,0.451,1.283,0.677,2.017,0.677c0.984,0,1.477-0.328,1.477-0.984
			c0-0.188-0.042-0.346-0.126-0.476s-0.198-0.245-0.342-0.345c-0.144-0.101-0.312-0.19-0.506-0.271
			c-0.194-0.079-0.402-0.163-0.625-0.249c-0.31-0.123-0.582-0.247-0.817-0.373c-0.235-0.125-0.431-0.267-0.588-0.424
			s-0.276-0.336-0.355-0.536c-0.08-0.201-0.12-0.436-0.12-0.704c0-0.328,0.075-0.619,0.226-0.872s0.351-0.465,0.602-0.636
			s0.537-0.3,0.858-0.386c0.321-0.087,0.653-0.13,0.995-0.13c0.606,0,1.148,0.104,1.627,0.314v1.135
			c-0.515-0.338-1.107-0.506-1.777-0.506c-0.209,0-0.399,0.023-0.567,0.071s-0.313,0.115-0.434,0.202
			c-0.121,0.086-0.214,0.19-0.28,0.311c-0.066,0.121-0.099,0.254-0.099,0.4c0,0.182,0.033,0.335,0.099,0.458
			s0.163,0.232,0.291,0.328s0.283,0.182,0.465,0.26c0.182,0.077,0.39,0.161,0.622,0.253c0.31,0.118,0.588,0.24,0.834,0.365
			c0.246,0.126,0.456,0.267,0.629,0.424s0.307,0.339,0.4,0.544s0.14,0.448,0.14,0.731c0,0.346-0.076,0.646-0.229,0.902
			c-0.153,0.255-0.356,0.467-0.612,0.636c-0.255,0.168-0.549,0.294-0.882,0.376s-0.681,0.123-1.046,0.123
			C196.691,29.593,196.067,29.453,195.539,29.176z"/>
		<path fill="#2F2F2F" d="M211.712,29.429h-1.121v-1.189h-0.027c-0.52,0.902-1.322,1.354-2.406,1.354
			c-0.879,0-1.583-0.313-2.109-0.94c-0.526-0.626-0.79-1.479-0.79-2.56c0-1.158,0.292-2.085,0.875-2.782s1.36-1.046,2.331-1.046
			c0.961,0,1.661,0.378,2.099,1.135h0.027v-4.334h1.121V29.429z M210.591,26.264v-1.032c0-0.565-0.187-1.044-0.561-1.436
			c-0.374-0.393-0.848-0.588-1.422-0.588c-0.684,0-1.221,0.25-1.613,0.752c-0.392,0.501-0.588,1.193-0.588,2.078
			c0,0.807,0.188,1.443,0.564,1.91c0.376,0.468,0.881,0.701,1.514,0.701c0.625,0,1.131-0.226,1.521-0.677
			S210.591,26.951,210.591,26.264z"/>
		<path fill="#2F2F2F" d="M218.87,29.429h-1.121v-1.094h-0.027c-0.488,0.838-1.206,1.258-2.153,1.258
			c-0.697,0-1.243-0.185-1.637-0.554s-0.591-0.859-0.591-1.47c0-1.309,0.77-2.069,2.311-2.283l2.099-0.294
			c0-1.189-0.481-1.784-1.442-1.784c-0.843,0-1.604,0.287-2.283,0.861v-1.148c0.688-0.438,1.481-0.656,2.379-0.656
			c1.645,0,2.468,0.87,2.468,2.611V29.429z M217.749,25.888l-1.688,0.232c-0.52,0.072-0.912,0.201-1.176,0.386
			s-0.396,0.512-0.396,0.981c0,0.342,0.122,0.621,0.366,0.837c0.244,0.217,0.568,0.325,0.974,0.325c0.556,0,1.015-0.195,1.377-0.585
			s0.543-0.883,0.543-1.479V25.888z"/>
		<path fill="#2F2F2F" d="M224.128,29.36c-0.264,0.146-0.613,0.219-1.046,0.219c-1.226,0-1.839-0.684-1.839-2.051v-4.143h-1.203
			v-0.957h1.203V20.72l1.121-0.362v2.071h1.764v0.957h-1.764v3.944c0,0.469,0.08,0.804,0.239,1.005
			c0.16,0.2,0.424,0.301,0.793,0.301c0.283,0,0.526-0.078,0.731-0.232V29.36z"/>
		<path fill="#2F2F2F" d="M230.745,29.429h-1.121v-1.094h-0.027c-0.488,0.838-1.206,1.258-2.153,1.258
			c-0.697,0-1.243-0.185-1.637-0.554s-0.591-0.859-0.591-1.47c0-1.309,0.77-2.069,2.311-2.283l2.099-0.294
			c0-1.189-0.481-1.784-1.442-1.784c-0.843,0-1.604,0.287-2.283,0.861v-1.148c0.688-0.438,1.481-0.656,2.379-0.656
			c1.645,0,2.468,0.87,2.468,2.611V29.429z M229.624,25.888l-1.688,0.232c-0.52,0.072-0.912,0.201-1.176,0.386
			s-0.396,0.512-0.396,0.981c0,0.342,0.122,0.621,0.366,0.837c0.244,0.217,0.568,0.325,0.974,0.325c0.556,0,1.015-0.195,1.377-0.585
			s0.543-0.883,0.543-1.479V25.888z"/>
		<path fill="#2F2F2F" d="M241.703,29.429h-1.121v-1.094h-0.027c-0.488,0.838-1.206,1.258-2.153,1.258
			c-0.697,0-1.243-0.185-1.637-0.554s-0.591-0.859-0.591-1.47c0-1.309,0.77-2.069,2.311-2.283l2.099-0.294
			c0-1.189-0.481-1.784-1.442-1.784c-0.843,0-1.604,0.287-2.283,0.861v-1.148c0.688-0.438,1.481-0.656,2.379-0.656
			c1.645,0,2.468,0.87,2.468,2.611V29.429z M240.582,25.888l-1.688,0.232c-0.52,0.072-0.912,0.201-1.176,0.386
			s-0.396,0.512-0.396,0.981c0,0.342,0.122,0.621,0.366,0.837c0.244,0.217,0.568,0.325,0.974,0.325c0.556,0,1.015-0.195,1.377-0.585
			s0.543-0.883,0.543-1.479V25.888z"/>
		<path fill="#2F2F2F" d="M247.139,20.05c-0.219-0.123-0.467-0.185-0.745-0.185c-0.784,0-1.176,0.494-1.176,1.483v1.08h1.641v0.957
			h-1.641v6.043h-1.114v-6.043h-1.196v-0.957h1.196v-1.135c0-0.734,0.212-1.313,0.636-1.74c0.424-0.426,0.953-0.639,1.586-0.639
			c0.342,0,0.613,0.041,0.813,0.123V20.05z"/>
		<path fill="#2F2F2F" d="M251.775,29.36c-0.264,0.146-0.613,0.219-1.046,0.219c-1.226,0-1.839-0.684-1.839-2.051v-4.143h-1.203
			v-0.957h1.203V20.72l1.121-0.362v2.071h1.764v0.957h-1.764v3.944c0,0.469,0.08,0.804,0.239,1.005
			c0.16,0.2,0.424,0.301,0.793,0.301c0.283,0,0.526-0.078,0.731-0.232V29.36z"/>
		<path fill="#2F2F2F" d="M258.768,26.209h-4.942c0.018,0.779,0.228,1.381,0.629,1.805s0.953,0.636,1.654,0.636
			c0.789,0,1.513-0.26,2.174-0.779v1.053c-0.615,0.446-1.429,0.67-2.44,0.67c-0.989,0-1.766-0.318-2.331-0.954
			s-0.848-1.53-0.848-2.683c0-1.09,0.309-1.977,0.926-2.663c0.618-0.686,1.384-1.028,2.3-1.028s1.625,0.296,2.126,0.889
			c0.501,0.592,0.752,1.415,0.752,2.468V26.209z M257.619,25.259c-0.004-0.647-0.161-1.151-0.468-1.511
			c-0.308-0.36-0.735-0.54-1.282-0.54c-0.529,0-0.978,0.188-1.347,0.567c-0.369,0.378-0.597,0.872-0.684,1.483H257.619z"/>
		<path fill="#2F2F2F" d="M264.101,23.563c-0.196-0.15-0.479-0.226-0.848-0.226c-0.479,0-0.878,0.226-1.2,0.677
			s-0.482,1.066-0.482,1.846v3.568h-1.121v-7h1.121v1.442h0.027c0.16-0.492,0.403-0.876,0.731-1.152
			c0.328-0.275,0.695-0.413,1.101-0.413c0.292,0,0.515,0.031,0.67,0.096V23.563z"/>
		<path fill="#2F2F2F" d="M272.803,23.563c-0.196-0.15-0.479-0.226-0.848-0.226c-0.479,0-0.878,0.226-1.2,0.677
			s-0.482,1.066-0.482,1.846v3.568h-1.121v-7h1.121v1.442h0.027c0.16-0.492,0.403-0.876,0.731-1.152
			c0.328-0.275,0.695-0.413,1.101-0.413c0.292,0,0.515,0.031,0.67,0.096V23.563z"/>
		<path fill="#2F2F2F" d="M279.646,26.209h-4.942c0.018,0.779,0.228,1.381,0.629,1.805s0.953,0.636,1.654,0.636
			c0.789,0,1.513-0.26,2.174-0.779v1.053c-0.615,0.446-1.429,0.67-2.44,0.67c-0.989,0-1.766-0.318-2.331-0.954
			s-0.848-1.53-0.848-2.683c0-1.09,0.309-1.977,0.926-2.663c0.618-0.686,1.384-1.028,2.3-1.028s1.625,0.296,2.126,0.889
			c0.501,0.592,0.752,1.415,0.752,2.468V26.209z M278.498,25.259c-0.004-0.647-0.161-1.151-0.468-1.511
			c-0.308-0.36-0.735-0.54-1.282-0.54c-0.529,0-0.978,0.188-1.347,0.567c-0.369,0.378-0.597,0.872-0.684,1.483H278.498z"/>
		<path fill="#2F2F2F" d="M286.285,29.429h-1.121v-1.094h-0.027c-0.488,0.838-1.206,1.258-2.153,1.258
			c-0.697,0-1.243-0.185-1.638-0.554c-0.394-0.369-0.591-0.859-0.591-1.47c0-1.309,0.77-2.069,2.311-2.283l2.099-0.294
			c0-1.189-0.481-1.784-1.442-1.784c-0.844,0-1.604,0.287-2.283,0.861v-1.148c0.688-0.438,1.48-0.656,2.379-0.656
			c1.645,0,2.468,0.87,2.468,2.611V29.429z M285.164,25.888l-1.688,0.232c-0.52,0.072-0.912,0.201-1.176,0.386
			c-0.265,0.185-0.396,0.512-0.396,0.981c0,0.342,0.122,0.621,0.365,0.837c0.244,0.217,0.568,0.325,0.975,0.325
			c0.556,0,1.015-0.195,1.377-0.585s0.544-0.883,0.544-1.479V25.888z"/>
		<path fill="#2F2F2F" d="M294.354,29.429h-1.121v-1.189h-0.027c-0.52,0.902-1.321,1.354-2.406,1.354
			c-0.879,0-1.582-0.313-2.108-0.94c-0.526-0.626-0.79-1.479-0.79-2.56c0-1.158,0.292-2.085,0.875-2.782
			c0.584-0.697,1.36-1.046,2.331-1.046c0.962,0,1.661,0.378,2.099,1.135h0.027v-4.334h1.121V29.429z M293.232,26.264v-1.032
			c0-0.565-0.187-1.044-0.561-1.436c-0.373-0.393-0.848-0.588-1.422-0.588c-0.684,0-1.221,0.25-1.613,0.752
			c-0.392,0.501-0.588,1.193-0.588,2.078c0,0.807,0.188,1.443,0.564,1.91c0.376,0.468,0.881,0.701,1.514,0.701
			c0.625,0,1.132-0.226,1.521-0.677S293.232,26.951,293.232,26.264z"/>
		<path fill="#2F2F2F" d="M297.043,20.651c-0.2,0-0.371-0.068-0.513-0.205c-0.141-0.137-0.212-0.311-0.212-0.52
			c0-0.21,0.071-0.384,0.212-0.523c0.142-0.139,0.312-0.208,0.513-0.208c0.205,0,0.38,0.069,0.523,0.208
			c0.144,0.14,0.215,0.313,0.215,0.523c0,0.2-0.071,0.371-0.215,0.513C297.423,20.58,297.248,20.651,297.043,20.651z M297.59,29.429
			h-1.121v-7h1.121V29.429z"/>
		<path fill="#2F2F2F" d="M305.517,29.429h-1.121v-3.992c0-1.486-0.543-2.229-1.627-2.229c-0.561,0-1.024,0.211-1.392,0.632
			c-0.366,0.422-0.55,0.954-0.55,1.597v3.992h-1.121v-7h1.121v1.162h0.027c0.528-0.885,1.294-1.326,2.297-1.326
			c0.766,0,1.351,0.247,1.757,0.741c0.405,0.495,0.608,1.209,0.608,2.144V29.429z"/>
		<path fill="#2F2F2F" d="M313.591,28.868c0,2.57-1.23,3.855-3.691,3.855c-0.866,0-1.623-0.164-2.27-0.492V31.11
			c0.788,0.438,1.54,0.656,2.256,0.656c1.723,0,2.584-0.916,2.584-2.748v-0.766h-0.027c-0.533,0.893-1.336,1.34-2.406,1.34
			c-0.871,0-1.571-0.312-2.103-0.934c-0.53-0.622-0.796-1.457-0.796-2.505c0-1.189,0.286-2.136,0.857-2.837
			c0.572-0.702,1.354-1.053,2.349-1.053c0.943,0,1.643,0.378,2.099,1.135h0.027v-0.971h1.121V28.868z M312.47,26.264v-1.032
			c0-0.557-0.188-1.032-0.564-1.429s-0.844-0.595-1.404-0.595c-0.693,0-1.235,0.252-1.627,0.755
			c-0.393,0.504-0.588,1.209-0.588,2.116c0,0.779,0.188,1.402,0.563,1.869c0.376,0.468,0.874,0.701,1.494,0.701
			c0.629,0,1.141-0.224,1.534-0.67C312.272,27.532,312.47,26.961,312.47,26.264z"/>
		<path fill="#2F2F2F" d="M323.154,20.05c-0.219-0.123-0.468-0.185-0.745-0.185c-0.784,0-1.176,0.494-1.176,1.483v1.08h1.641v0.957
			h-1.641v6.043h-1.114v-6.043h-1.196v-0.957h1.196v-1.135c0-0.734,0.212-1.313,0.636-1.74c0.424-0.426,0.952-0.639,1.586-0.639
			c0.342,0,0.612,0.041,0.813,0.123V20.05z"/>
		<path fill="#2F2F2F" d="M327.765,23.563c-0.195-0.15-0.479-0.226-0.848-0.226c-0.479,0-0.878,0.226-1.199,0.677
			s-0.482,1.066-0.482,1.846v3.568h-1.121v-7h1.121v1.442h0.027c0.16-0.492,0.403-0.876,0.731-1.152
			c0.328-0.275,0.695-0.413,1.101-0.413c0.292,0,0.516,0.031,0.67,0.096V23.563z"/>
		<path fill="#2F2F2F" d="M331.907,29.593c-1.034,0-1.86-0.327-2.478-0.981c-0.618-0.653-0.927-1.521-0.927-2.601
			c0-1.176,0.321-2.095,0.964-2.755c0.643-0.661,1.511-0.991,2.604-0.991c1.044,0,1.858,0.321,2.444,0.964
			c0.585,0.643,0.878,1.533,0.878,2.673c0,1.116-0.315,2.011-0.946,2.683C333.815,29.257,332.97,29.593,331.907,29.593z
			 M331.989,23.208c-0.72,0-1.289,0.245-1.709,0.734c-0.419,0.49-0.629,1.166-0.629,2.027c0,0.829,0.212,1.483,0.636,1.962
			s0.991,0.718,1.702,0.718c0.725,0,1.282-0.235,1.672-0.704c0.39-0.47,0.584-1.138,0.584-2.003c0-0.875-0.194-1.55-0.584-2.023
			C333.271,23.444,332.714,23.208,331.989,23.208z"/>
		<path fill="#2F2F2F" d="M347.049,29.429h-1.121v-4.02c0-0.775-0.119-1.336-0.358-1.682c-0.239-0.347-0.642-0.52-1.207-0.52
			c-0.479,0-0.885,0.219-1.22,0.656s-0.503,0.961-0.503,1.572v3.992h-1.121v-4.156c0-1.377-0.53-2.064-1.593-2.064
			c-0.492,0-0.897,0.206-1.217,0.618c-0.318,0.413-0.479,0.949-0.479,1.61v3.992h-1.121v-7h1.121v1.107h0.027
			c0.497-0.848,1.222-1.271,2.174-1.271c0.479,0,0.896,0.133,1.251,0.399s0.6,0.616,0.731,1.05c0.52-0.967,1.295-1.449,2.324-1.449
			c1.541,0,2.311,0.95,2.311,2.851V29.429z"/>
		<path fill="#2F2F2F" d="M357.146,22.196c0-0.301-0.047-0.563-0.14-0.786c-0.094-0.224-0.222-0.409-0.383-0.558
			c-0.162-0.147-0.353-0.259-0.571-0.331c-0.219-0.073-0.455-0.109-0.711-0.109c-0.219,0-0.433,0.029-0.643,0.089
			c-0.209,0.059-0.413,0.141-0.611,0.246c-0.198,0.104-0.39,0.229-0.574,0.376c-0.185,0.146-0.356,0.308-0.517,0.485v-1.203
			c0.314-0.306,0.667-0.539,1.057-0.701c0.39-0.161,0.864-0.242,1.425-0.242c0.401,0,0.772,0.058,1.114,0.174
			s0.639,0.286,0.889,0.51c0.251,0.223,0.448,0.499,0.592,0.827s0.215,0.704,0.215,1.128c0,0.387-0.044,0.738-0.133,1.053
			s-0.224,0.61-0.403,0.889c-0.181,0.277-0.407,0.544-0.681,0.8c-0.273,0.255-0.595,0.515-0.964,0.779
			c-0.46,0.328-0.84,0.608-1.138,0.841c-0.299,0.232-0.536,0.45-0.711,0.652c-0.176,0.203-0.299,0.406-0.369,0.608
			c-0.071,0.203-0.106,0.437-0.106,0.701h4.881v1.005h-6.05v-0.485c0-0.42,0.046-0.789,0.137-1.107
			c0.092-0.319,0.242-0.622,0.451-0.909c0.21-0.287,0.484-0.574,0.824-0.861c0.339-0.287,0.755-0.611,1.247-0.971
			c0.355-0.256,0.653-0.499,0.893-0.731s0.432-0.465,0.577-0.697c0.146-0.232,0.25-0.469,0.312-0.708S357.146,22.465,357.146,22.196
			z"/>
		<path fill="#2F2F2F" d="M158.897,40.363c-0.196-0.15-0.479-0.226-0.848-0.226c-0.479,0-0.878,0.226-1.2,0.677
			s-0.482,1.066-0.482,1.846v3.568h-1.121v-7h1.121v1.442h0.027c0.16-0.492,0.403-0.876,0.731-1.152
			c0.328-0.275,0.695-0.413,1.101-0.413c0.292,0,0.515,0.031,0.67,0.096V40.363z"/>
		<path fill="#2F2F2F" d="M165.74,43.009h-4.942c0.018,0.779,0.228,1.381,0.629,1.805s0.953,0.636,1.654,0.636
			c0.789,0,1.513-0.26,2.174-0.779v1.053c-0.615,0.446-1.429,0.67-2.44,0.67c-0.989,0-1.766-0.318-2.331-0.954
			s-0.848-1.53-0.848-2.683c0-1.09,0.309-1.977,0.926-2.663c0.618-0.686,1.384-1.028,2.3-1.028s1.625,0.296,2.126,0.889
			c0.501,0.592,0.752,1.415,0.752,2.468V43.009z M164.592,42.059c-0.004-0.647-0.161-1.151-0.468-1.511
			c-0.308-0.36-0.735-0.54-1.282-0.54c-0.529,0-0.978,0.188-1.347,0.567c-0.369,0.378-0.597,0.872-0.684,1.483H164.592z"/>
		<path fill="#2F2F2F" d="M168.571,45.217h-0.027v4.231h-1.121v-10.22h1.121v1.23h0.027c0.551-0.93,1.358-1.395,2.42-1.395
			c0.902,0,1.606,0.313,2.112,0.939c0.506,0.627,0.759,1.467,0.759,2.52c0,1.171-0.285,2.108-0.854,2.812s-1.349,1.057-2.338,1.057
			C169.763,46.393,169.063,46,168.571,45.217z M168.544,42.394v0.978c0,0.578,0.188,1.069,0.564,1.473s0.854,0.605,1.432,0.605
			c0.679,0,1.211-0.26,1.596-0.779s0.578-1.242,0.578-2.167c0-0.779-0.18-1.391-0.54-1.832c-0.36-0.442-0.848-0.663-1.463-0.663
			c-0.652,0-1.176,0.227-1.572,0.68C168.742,41.142,168.544,41.71,168.544,42.394z"/>
		<path fill="#2F2F2F" d="M176.713,46.229h-1.121V35.865h1.121V46.229z"/>
		<path fill="#2F2F2F" d="M179.4,37.451c-0.201,0-0.372-0.068-0.513-0.205s-0.212-0.311-0.212-0.52c0-0.21,0.071-0.384,0.212-0.523
			c0.141-0.139,0.312-0.208,0.513-0.208c0.205,0,0.379,0.069,0.523,0.208c0.144,0.14,0.215,0.313,0.215,0.523
			c0,0.2-0.072,0.371-0.215,0.513C179.779,37.38,179.605,37.451,179.4,37.451z M179.947,46.229h-1.121v-7h1.121V46.229z"/>
		<path fill="#2F2F2F" d="M186.859,45.907c-0.538,0.323-1.176,0.485-1.914,0.485c-0.998,0-1.804-0.325-2.417-0.975
			s-0.919-1.491-0.919-2.525c0-1.153,0.331-2.079,0.991-2.779c0.661-0.699,1.542-1.049,2.646-1.049c0.615,0,1.158,0.113,1.627,0.342
			v1.148c-0.52-0.365-1.076-0.547-1.668-0.547c-0.715,0-1.302,0.256-1.76,0.769s-0.687,1.187-0.687,2.021
			c0,0.82,0.215,1.467,0.646,1.941c0.431,0.474,1.008,0.711,1.733,0.711c0.611,0,1.185-0.203,1.723-0.608V45.907z"/>
		<path fill="#2F2F2F" d="M193.603,46.229h-1.121v-1.094h-0.027c-0.488,0.838-1.206,1.258-2.153,1.258
			c-0.697,0-1.243-0.185-1.637-0.554s-0.591-0.859-0.591-1.47c0-1.309,0.77-2.069,2.311-2.283l2.099-0.294
			c0-1.189-0.481-1.784-1.442-1.784c-0.843,0-1.604,0.287-2.283,0.861v-1.148c0.688-0.438,1.481-0.656,2.379-0.656
			c1.645,0,2.468,0.87,2.468,2.611V46.229z M192.482,42.688l-1.688,0.232c-0.52,0.072-0.912,0.201-1.176,0.386
			s-0.396,0.512-0.396,0.981c0,0.342,0.122,0.621,0.366,0.837c0.244,0.217,0.568,0.325,0.974,0.325c0.556,0,1.015-0.195,1.377-0.585
			s0.543-0.883,0.543-1.479V42.688z"/>
		<path fill="#2F2F2F" d="M195.245,45.976v-1.203c0.611,0.451,1.283,0.677,2.017,0.677c0.984,0,1.477-0.328,1.477-0.984
			c0-0.188-0.042-0.346-0.126-0.476s-0.198-0.245-0.342-0.345c-0.144-0.101-0.312-0.19-0.506-0.271
			c-0.194-0.079-0.402-0.163-0.625-0.249c-0.31-0.123-0.582-0.247-0.817-0.373c-0.235-0.125-0.431-0.267-0.588-0.424
			s-0.276-0.336-0.355-0.536c-0.08-0.201-0.12-0.436-0.12-0.704c0-0.328,0.075-0.619,0.226-0.872s0.351-0.465,0.602-0.636
			s0.537-0.3,0.858-0.386c0.321-0.087,0.653-0.13,0.995-0.13c0.606,0,1.148,0.104,1.627,0.314v1.135
			c-0.515-0.338-1.107-0.506-1.777-0.506c-0.209,0-0.399,0.023-0.567,0.071s-0.313,0.115-0.434,0.202
			c-0.121,0.086-0.214,0.19-0.28,0.311c-0.066,0.121-0.099,0.254-0.099,0.4c0,0.182,0.033,0.335,0.099,0.458
			s0.163,0.232,0.291,0.328s0.283,0.182,0.465,0.26c0.182,0.077,0.39,0.161,0.622,0.253c0.31,0.118,0.588,0.24,0.834,0.365
			c0.246,0.126,0.456,0.267,0.629,0.424s0.307,0.339,0.4,0.544s0.14,0.448,0.14,0.731c0,0.346-0.076,0.646-0.229,0.902
			c-0.153,0.255-0.356,0.467-0.612,0.636c-0.255,0.168-0.549,0.294-0.882,0.376s-0.681,0.123-1.046,0.123
			C196.398,46.393,195.774,46.253,195.245,45.976z"/>
		<path fill="#2F2F2F" d="M206.019,37.451c-0.201,0-0.372-0.068-0.513-0.205s-0.212-0.311-0.212-0.52
			c0-0.21,0.071-0.384,0.212-0.523c0.141-0.139,0.312-0.208,0.513-0.208c0.205,0,0.379,0.069,0.523,0.208
			c0.144,0.14,0.215,0.313,0.215,0.523c0,0.2-0.072,0.371-0.215,0.513C206.398,37.38,206.224,37.451,206.019,37.451z
			 M206.565,46.229h-1.121v-7h1.121V46.229z"/>
		<path fill="#2F2F2F" d="M214.494,46.229h-1.121v-3.992c0-1.486-0.542-2.229-1.627-2.229c-0.561,0-1.024,0.211-1.391,0.632
			c-0.367,0.422-0.55,0.954-0.55,1.597v3.992h-1.121v-7h1.121v1.162h0.027c0.529-0.885,1.294-1.326,2.297-1.326
			c0.766,0,1.351,0.247,1.757,0.741c0.406,0.495,0.608,1.209,0.608,2.144V46.229z"/>
		<path fill="#2F2F2F" d="M223.688,46.16c-0.264,0.146-0.613,0.219-1.046,0.219c-1.226,0-1.839-0.684-1.839-2.051v-4.143h-1.203
			v-0.957h1.203V37.52l1.121-0.362v2.071h1.764v0.957h-1.764v3.944c0,0.469,0.08,0.804,0.239,1.005
			c0.16,0.2,0.424,0.301,0.793,0.301c0.283,0,0.526-0.078,0.731-0.232V46.16z"/>
		<path fill="#2F2F2F" d="M230.88,46.229h-1.121v-4.033c0-1.459-0.542-2.188-1.627-2.188c-0.547,0-1.007,0.211-1.381,0.632
			c-0.374,0.422-0.561,0.963-0.561,1.624v3.965h-1.121V35.865h1.121v4.525h0.027c0.538-0.885,1.303-1.326,2.297-1.326
			c1.577,0,2.365,0.95,2.365,2.851V46.229z"/>
		<path fill="#2F2F2F" d="M238.583,43.009h-4.942c0.018,0.779,0.228,1.381,0.629,1.805s0.953,0.636,1.654,0.636
			c0.789,0,1.513-0.26,2.174-0.779v1.053c-0.615,0.446-1.429,0.67-2.44,0.67c-0.989,0-1.766-0.318-2.331-0.954
			s-0.848-1.53-0.848-2.683c0-1.09,0.309-1.977,0.926-2.663c0.618-0.686,1.384-1.028,2.3-1.028s1.625,0.296,2.126,0.889
			c0.501,0.592,0.752,1.415,0.752,2.468V43.009z M237.435,42.059c-0.004-0.647-0.161-1.151-0.468-1.511
			c-0.308-0.36-0.735-0.54-1.282-0.54c-0.529,0-0.978,0.188-1.347,0.567c-0.369,0.378-0.597,0.872-0.684,1.483H237.435z"/>
		<path fill="#2F2F2F" d="M243.69,45.976v-1.203c0.611,0.451,1.283,0.677,2.017,0.677c0.984,0,1.477-0.328,1.477-0.984
			c0-0.188-0.042-0.346-0.126-0.476s-0.198-0.245-0.342-0.345c-0.144-0.101-0.312-0.19-0.506-0.271
			c-0.194-0.079-0.402-0.163-0.625-0.249c-0.31-0.123-0.582-0.247-0.817-0.373c-0.235-0.125-0.431-0.267-0.588-0.424
			s-0.276-0.336-0.355-0.536c-0.08-0.201-0.12-0.436-0.12-0.704c0-0.328,0.075-0.619,0.226-0.872s0.351-0.465,0.602-0.636
			s0.537-0.3,0.858-0.386c0.321-0.087,0.653-0.13,0.995-0.13c0.606,0,1.148,0.104,1.627,0.314v1.135
			c-0.515-0.338-1.107-0.506-1.777-0.506c-0.209,0-0.399,0.023-0.567,0.071s-0.313,0.115-0.434,0.202
			c-0.121,0.086-0.214,0.19-0.28,0.311c-0.066,0.121-0.099,0.254-0.099,0.4c0,0.182,0.033,0.335,0.099,0.458
			s0.163,0.232,0.291,0.328s0.283,0.182,0.465,0.26c0.182,0.077,0.39,0.161,0.622,0.253c0.31,0.118,0.588,0.24,0.834,0.365
			c0.246,0.126,0.456,0.267,0.629,0.424s0.307,0.339,0.4,0.544s0.14,0.448,0.14,0.731c0,0.346-0.076,0.646-0.229,0.902
			c-0.153,0.255-0.356,0.467-0.612,0.636c-0.255,0.168-0.549,0.294-0.882,0.376s-0.681,0.123-1.046,0.123
			C244.843,46.393,244.219,46.253,243.69,45.976z"/>
		<path fill="#2F2F2F" d="M251.064,45.217h-0.027v4.231h-1.121v-10.22h1.121v1.23h0.027c0.551-0.93,1.358-1.395,2.42-1.395
			c0.902,0,1.606,0.313,2.112,0.939c0.506,0.627,0.759,1.467,0.759,2.52c0,1.171-0.285,2.108-0.854,2.812s-1.349,1.057-2.338,1.057
			C252.256,46.393,251.556,46,251.064,45.217z M251.037,42.394v0.978c0,0.578,0.188,1.069,0.564,1.473s0.854,0.605,1.432,0.605
			c0.679,0,1.211-0.26,1.596-0.779s0.578-1.242,0.578-2.167c0-0.779-0.18-1.391-0.54-1.832c-0.36-0.442-0.848-0.663-1.463-0.663
			c-0.652,0-1.176,0.227-1.572,0.68C251.235,41.142,251.037,41.71,251.037,42.394z"/>
		<path fill="#2F2F2F" d="M263.761,43.009h-4.942c0.018,0.779,0.228,1.381,0.629,1.805s0.953,0.636,1.654,0.636
			c0.789,0,1.513-0.26,2.174-0.779v1.053c-0.615,0.446-1.429,0.67-2.44,0.67c-0.989,0-1.766-0.318-2.331-0.954
			s-0.848-1.53-0.848-2.683c0-1.09,0.309-1.977,0.926-2.663c0.618-0.686,1.384-1.028,2.3-1.028s1.625,0.296,2.126,0.889
			c0.501,0.592,0.752,1.415,0.752,2.468V43.009z M262.612,42.059c-0.004-0.647-0.161-1.151-0.468-1.511
			c-0.308-0.36-0.735-0.54-1.282-0.54c-0.529,0-0.978,0.188-1.347,0.567c-0.369,0.378-0.597,0.872-0.684,1.483H262.612z"/>
		<path fill="#2F2F2F" d="M270.258,45.907c-0.538,0.323-1.176,0.485-1.914,0.485c-0.998,0-1.804-0.325-2.417-0.975
			s-0.919-1.491-0.919-2.525c0-1.153,0.331-2.079,0.991-2.779c0.661-0.699,1.542-1.049,2.646-1.049c0.615,0,1.158,0.113,1.627,0.342
			v1.148c-0.52-0.365-1.076-0.547-1.668-0.547c-0.715,0-1.302,0.256-1.76,0.769s-0.687,1.187-0.687,2.021
			c0,0.82,0.215,1.467,0.646,1.941c0.431,0.474,1.008,0.711,1.733,0.711c0.611,0,1.185-0.203,1.723-0.608V45.907z"/>
		<path fill="#2F2F2F" d="M272.321,37.451c-0.201,0-0.372-0.068-0.513-0.205s-0.212-0.311-0.212-0.52
			c0-0.21,0.071-0.384,0.212-0.523c0.141-0.139,0.312-0.208,0.513-0.208c0.205,0,0.379,0.069,0.523,0.208
			c0.144,0.14,0.215,0.313,0.215,0.523c0,0.2-0.072,0.371-0.215,0.513C272.7,37.38,272.526,37.451,272.321,37.451z M272.868,46.229
			h-1.121v-7h1.121V46.229z"/>
		<path fill="#2F2F2F" d="M278.492,36.85c-0.219-0.123-0.467-0.185-0.745-0.185c-0.784,0-1.176,0.494-1.176,1.483v1.08h1.641v0.957
			h-1.641v6.043h-1.114v-6.043h-1.196v-0.957h1.196v-1.135c0-0.734,0.212-1.313,0.636-1.74c0.424-0.426,0.953-0.639,1.586-0.639
			c0.342,0,0.613,0.041,0.813,0.123V36.85z"/>
		<path fill="#2F2F2F" d="M280.246,37.451c-0.201,0-0.372-0.068-0.513-0.205s-0.212-0.311-0.212-0.52
			c0-0.21,0.071-0.384,0.212-0.523c0.141-0.139,0.312-0.208,0.513-0.208c0.205,0,0.379,0.069,0.523,0.208
			c0.144,0.14,0.216,0.313,0.216,0.523c0,0.2-0.072,0.371-0.216,0.513C280.625,37.38,280.451,37.451,280.246,37.451z
			 M280.793,46.229h-1.122v-7h1.122V46.229z"/>
		<path fill="#2F2F2F" d="M288.588,43.009h-4.942c0.018,0.779,0.228,1.381,0.629,1.805c0.4,0.424,0.952,0.636,1.654,0.636
			c0.788,0,1.513-0.26,2.174-0.779v1.053c-0.615,0.446-1.429,0.67-2.44,0.67c-0.989,0-1.767-0.318-2.331-0.954
			c-0.565-0.636-0.848-1.53-0.848-2.683c0-1.09,0.309-1.977,0.926-2.663c0.618-0.686,1.385-1.028,2.301-1.028
			s1.624,0.296,2.126,0.889c0.501,0.592,0.752,1.415,0.752,2.468V43.009z M287.439,42.059c-0.005-0.647-0.161-1.151-0.469-1.511
			c-0.308-0.36-0.734-0.54-1.281-0.54c-0.529,0-0.978,0.188-1.347,0.567c-0.369,0.378-0.598,0.872-0.684,1.483H287.439z"/>
		<path fill="#2F2F2F" d="M296.319,46.229h-1.121v-1.189h-0.027c-0.52,0.902-1.322,1.354-2.406,1.354
			c-0.88,0-1.583-0.313-2.109-0.94c-0.526-0.626-0.789-1.479-0.789-2.56c0-1.158,0.291-2.085,0.875-2.782
			c0.583-0.697,1.36-1.046,2.331-1.046c0.961,0,1.661,0.378,2.099,1.135h0.027v-4.334h1.121V46.229z M295.198,43.063v-1.032
			c0-0.565-0.188-1.044-0.561-1.436c-0.374-0.393-0.848-0.588-1.422-0.588c-0.684,0-1.222,0.25-1.613,0.752
			c-0.393,0.501-0.588,1.193-0.588,2.078c0,0.807,0.188,1.443,0.563,1.91c0.376,0.468,0.881,0.701,1.515,0.701
			c0.624,0,1.131-0.226,1.521-0.677S295.198,43.751,295.198,43.063z"/>
		<path fill="#2F2F2F" d="M306.074,40.363c-0.196-0.15-0.479-0.226-0.848-0.226c-0.479,0-0.879,0.226-1.2,0.677
			s-0.481,1.066-0.481,1.846v3.568h-1.121v-7h1.121v1.442h0.027c0.159-0.492,0.403-0.876,0.731-1.152
			c0.328-0.275,0.694-0.413,1.101-0.413c0.291,0,0.515,0.031,0.67,0.096V40.363z"/>
		<path fill="#2F2F2F" d="M312.917,43.009h-4.942c0.018,0.779,0.228,1.381,0.629,1.805c0.4,0.424,0.952,0.636,1.654,0.636
			c0.788,0,1.513-0.26,2.174-0.779v1.053c-0.615,0.446-1.429,0.67-2.44,0.67c-0.989,0-1.767-0.318-2.331-0.954
			c-0.565-0.636-0.848-1.53-0.848-2.683c0-1.09,0.309-1.977,0.926-2.663c0.618-0.686,1.385-1.028,2.301-1.028
			s1.624,0.296,2.126,0.889c0.501,0.592,0.752,1.415,0.752,2.468V43.009z M311.769,42.059c-0.005-0.647-0.161-1.151-0.469-1.511
			c-0.308-0.36-0.734-0.54-1.281-0.54c-0.529,0-0.978,0.188-1.347,0.567c-0.369,0.378-0.598,0.872-0.684,1.483H311.769z"/>
		<path fill="#2F2F2F" d="M320.617,45.668c0,2.57-1.23,3.855-3.691,3.855c-0.865,0-1.622-0.164-2.27-0.492V47.91
			c0.789,0.438,1.541,0.656,2.256,0.656c1.723,0,2.584-0.916,2.584-2.748v-0.766h-0.027c-0.533,0.893-1.335,1.34-2.406,1.34
			c-0.87,0-1.571-0.312-2.102-0.934c-0.531-0.622-0.797-1.457-0.797-2.505c0-1.189,0.286-2.136,0.858-2.837
			c0.571-0.702,1.354-1.053,2.348-1.053c0.943,0,1.644,0.378,2.099,1.135h0.027v-0.971h1.121V45.668z M319.496,43.063v-1.032
			c0-0.557-0.188-1.032-0.563-1.429s-0.845-0.595-1.405-0.595c-0.692,0-1.234,0.252-1.627,0.755
			c-0.392,0.504-0.588,1.209-0.588,2.116c0,0.779,0.188,1.402,0.564,1.869c0.376,0.468,0.874,0.701,1.493,0.701
			c0.629,0,1.141-0.224,1.535-0.67C319.299,44.332,319.496,43.761,319.496,43.063z"/>
		<path fill="#2F2F2F" d="M323.307,37.451c-0.2,0-0.371-0.068-0.513-0.205c-0.141-0.137-0.212-0.311-0.212-0.52
			c0-0.21,0.071-0.384,0.212-0.523c0.142-0.139,0.312-0.208,0.513-0.208c0.205,0,0.38,0.069,0.523,0.208
			c0.144,0.14,0.215,0.313,0.215,0.523c0,0.2-0.071,0.371-0.215,0.513C323.687,37.38,323.512,37.451,323.307,37.451z
			 M323.854,46.229h-1.121v-7h1.121V46.229z"/>
		<path fill="#2F2F2F" d="M328.948,46.393c-1.034,0-1.86-0.327-2.478-0.981c-0.618-0.653-0.927-1.521-0.927-2.601
			c0-1.176,0.321-2.095,0.964-2.755c0.643-0.661,1.511-0.991,2.604-0.991c1.044,0,1.858,0.321,2.444,0.964
			c0.585,0.643,0.878,1.533,0.878,2.673c0,1.116-0.315,2.011-0.946,2.683C330.856,46.057,330.011,46.393,328.948,46.393z
			 M329.03,40.008c-0.72,0-1.289,0.245-1.709,0.734c-0.419,0.49-0.629,1.166-0.629,2.027c0,0.829,0.212,1.483,0.636,1.962
			s0.991,0.718,1.702,0.718c0.725,0,1.282-0.235,1.672-0.704c0.39-0.47,0.584-1.138,0.584-2.003c0-0.875-0.194-1.55-0.584-2.023
			C330.312,40.244,329.755,40.008,329.03,40.008z"/>
		<path fill="#2F2F2F" d="M339.961,46.229h-1.121v-3.992c0-1.486-0.543-2.229-1.627-2.229c-0.561,0-1.024,0.211-1.392,0.632
			c-0.366,0.422-0.55,0.954-0.55,1.597v3.992h-1.121v-7h1.121v1.162h0.027c0.528-0.885,1.294-1.326,2.297-1.326
			c0.766,0,1.351,0.247,1.757,0.741c0.405,0.495,0.608,1.209,0.608,2.144V46.229z"/>
	</g>
	<g>
		<path fill="#2F2F2F" d="M101.952,123.229v3.377h-2.208v-9.803h3.459c2.47,0,3.705,1.042,3.705,3.124
			c0,0.984-0.354,1.781-1.063,2.389c-0.708,0.609-1.655,0.913-2.84,0.913H101.952z M101.952,118.499v3.056h0.868
			c1.176,0,1.764-0.516,1.764-1.545c0-1.008-0.588-1.511-1.764-1.511H101.952z"/>
	</g>
	<g>
		<path fill="#2F2F2F" d="M258.951,250.297h-2.536l-1.524-2.522c-0.114-0.191-0.223-0.362-0.328-0.513s-0.211-0.279-0.318-0.387
			c-0.107-0.106-0.219-0.188-0.335-0.246c-0.116-0.057-0.243-0.085-0.379-0.085h-0.595v3.753h-2.208v-9.803h3.5
			c2.379,0,3.568,0.889,3.568,2.666c0,0.342-0.052,0.657-0.157,0.946c-0.105,0.29-0.253,0.551-0.444,0.783s-0.423,0.433-0.694,0.602
			c-0.271,0.168-0.573,0.301-0.906,0.396v0.027c0.146,0.045,0.287,0.119,0.424,0.222s0.269,0.223,0.396,0.359s0.25,0.283,0.366,0.44
			s0.222,0.312,0.318,0.462L258.951,250.297z M252.935,242.148v2.728h0.957c0.474,0,0.854-0.137,1.142-0.41
			c0.292-0.278,0.438-0.622,0.438-1.032c0-0.857-0.513-1.285-1.538-1.285H252.935z"/>
		<path fill="#2F2F2F" d="M265.769,247.412h-4.566c0.073,1.016,0.713,1.524,1.921,1.524c0.77,0,1.447-0.183,2.03-0.547v1.559
			c-0.647,0.346-1.488,0.52-2.522,0.52c-1.13,0-2.007-0.313-2.632-0.94c-0.625-0.626-0.937-1.5-0.937-2.621
			c0-1.162,0.337-2.083,1.012-2.762c0.674-0.68,1.504-1.019,2.488-1.019c1.021,0,1.811,0.303,2.369,0.909
			c0.558,0.605,0.837,1.429,0.837,2.468V247.412z M263.766,246.086c0-1.003-0.406-1.504-1.217-1.504
			c-0.346,0-0.646,0.144-0.899,0.431s-0.407,0.645-0.461,1.073H263.766z"/>
		<path fill="#2F2F2F" d="M274.028,249.497c0,1.299-0.376,2.305-1.128,3.018c-0.752,0.714-1.841,1.07-3.268,1.07
			c-0.943,0-1.691-0.135-2.242-0.403v-1.818c0.72,0.419,1.447,0.629,2.181,0.629c0.729,0,1.294-0.192,1.695-0.578
			c0.401-0.385,0.602-0.908,0.602-1.568v-0.554h-0.027c-0.492,0.783-1.219,1.176-2.181,1.176c-0.893,0-1.602-0.314-2.126-0.943
			s-0.786-1.473-0.786-2.529c0-1.186,0.292-2.126,0.875-2.823s1.351-1.046,2.304-1.046c0.852,0,1.49,0.328,1.914,0.984h0.027v-0.813
			h2.16V249.497z M271.895,246.934v-0.554c0-0.442-0.131-0.819-0.393-1.132c-0.262-0.312-0.603-0.468-1.022-0.468
			c-0.479,0-0.854,0.187-1.128,0.561c-0.273,0.373-0.41,0.899-0.41,1.579c0,0.583,0.13,1.045,0.39,1.384
			c0.26,0.34,0.615,0.51,1.066,0.51c0.447,0,0.808-0.172,1.083-0.517C271.757,247.953,271.895,247.498,271.895,246.934z"/>
		<path fill="#2F2F2F" d="M276.883,242.189c-0.365,0-0.663-0.108-0.896-0.325c-0.232-0.216-0.349-0.481-0.349-0.796
			c0-0.324,0.116-0.588,0.349-0.793s0.531-0.308,0.896-0.308c0.369,0,0.669,0.103,0.899,0.308s0.345,0.469,0.345,0.793
			c0,0.328-0.115,0.597-0.345,0.807C277.552,242.084,277.252,242.189,276.883,242.189z M277.949,250.297h-2.16v-7h2.16V250.297z"/>
		<path fill="#2F2F2F" d="M283.06,250.468c-1.166,0-2.084-0.327-2.751-0.981c-0.667-0.653-1.001-1.541-1.001-2.662
			c0-1.158,0.346-2.063,1.039-2.718c0.693-0.653,1.629-0.98,2.809-0.98c1.162,0,2.074,0.327,2.734,0.98
			c0.661,0.654,0.991,1.519,0.991,2.595c0,1.162-0.341,2.08-1.021,2.755C285.178,250.13,284.245,250.468,283.06,250.468z
			 M283.114,244.78c-0.51,0-0.906,0.175-1.189,0.526c-0.282,0.351-0.424,0.848-0.424,1.49c0,1.344,0.543,2.017,1.627,2.017
			c1.035,0,1.552-0.69,1.552-2.071C284.68,245.434,284.158,244.78,283.114,244.78z"/>
		<path fill="#2F2F2F" d="M295.022,250.297h-2.153v-3.89c0-1.085-0.388-1.627-1.162-1.627c-0.374,0-0.682,0.144-0.923,0.431
			c-0.242,0.287-0.362,0.651-0.362,1.094v3.992h-2.16v-7h2.16v1.107h0.027c0.515-0.853,1.265-1.278,2.249-1.278
			c1.549,0,2.324,0.961,2.324,2.885V250.297z"/>
		<path fill="#2F2F2F" d="M302.617,248.506h4.156v1.791h-6.521v-0.738c0-0.502,0.084-0.951,0.253-1.351
			c0.168-0.398,0.38-0.756,0.636-1.073c0.255-0.316,0.534-0.597,0.837-0.841c0.304-0.243,0.592-0.464,0.865-0.659
			c0.287-0.205,0.539-0.401,0.755-0.588c0.217-0.188,0.399-0.373,0.547-0.558c0.148-0.185,0.259-0.371,0.332-0.561
			c0.072-0.188,0.109-0.391,0.109-0.604c0-0.42-0.119-0.736-0.355-0.95c-0.237-0.215-0.6-0.321-1.087-0.321
			c-0.844,0-1.65,0.335-2.42,1.005v-1.9c0.852-0.552,1.813-0.827,2.885-0.827c0.496,0,0.942,0.064,1.336,0.194
			c0.395,0.13,0.729,0.315,1.002,0.558c0.273,0.241,0.481,0.534,0.625,0.878c0.144,0.345,0.216,0.729,0.216,1.152
			c0,0.451-0.069,0.852-0.209,1.203c-0.139,0.351-0.323,0.67-0.554,0.957c-0.229,0.287-0.495,0.55-0.796,0.789
			s-0.613,0.471-0.937,0.694c-0.219,0.154-0.43,0.309-0.633,0.461c-0.202,0.153-0.382,0.304-0.536,0.451
			c-0.155,0.148-0.278,0.293-0.369,0.435C302.662,248.243,302.617,248.378,302.617,248.506z"/>
	</g>
	<g>
		<path fill="#2F2F2F" d="M275.527,128.784v3.377h-2.208v-9.803h3.459c2.47,0,3.705,1.041,3.705,3.124
			c0,0.984-0.354,1.78-1.063,2.389s-1.655,0.913-2.84,0.913H275.527z M275.527,124.054v3.056h0.868c1.176,0,1.764-0.516,1.764-1.545
			c0-1.008-0.588-1.511-1.764-1.511H275.527z"/>
	</g>
</g>
<g id="Layer_1">
</g>
</svg>
