<svg xmlns="http://www.w3.org/2000/svg" xmlns:xlink="http://www.w3.org/1999/xlink" viewBox="0 0 325.4863 212.8962">
  <defs>
    <linearGradient id="linear-gradient" x1="126.4864" y1="463.6105" x2="126.4864" y2="500.7064" gradientTransform="matrix(1, 0, 0, -1, 0, 589.7923)" gradientUnits="userSpaceOnUse">
      <stop offset="0" stop-color="#5e9624"/>
      <stop offset="0.02" stop-color="#5f9724"/>
      <stop offset="1" stop-color="#76bc2d"/>
    </linearGradient>
    <linearGradient id="linear-gradient-2" x1="26.5214" y1="120.205" x2="26.5214" y2="92.165" gradientUnits="userSpaceOnUse">
      <stop offset="0" stop-color="#d2ebff"/>
      <stop offset="1" stop-color="#f0fffd"/>
    </linearGradient>
    <linearGradient id="linear-gradient-3" x1="26.1346" y1="495.8422" x2="26.1346" y2="471.6499" gradientTransform="matrix(1, 0, 0, -1, 0, 589.7923)" gradientUnits="userSpaceOnUse">
      <stop offset="0.09" stop-color="#6cc6b9"/>
      <stop offset="0.46" stop-color="#6ac4b7"/>
      <stop offset="0.64" stop-color="#62bdb0"/>
      <stop offset="0.77" stop-color="#56b1a4"/>
      <stop offset="0.88" stop-color="#439f93"/>
      <stop offset="0.98" stop-color="#2c897d"/>
      <stop offset="1" stop-color="#258277"/>
    </linearGradient>
    <linearGradient id="linear-gradient-4" x1="26.1346" y1="126.4787" x2="26.1346" y2="123.658" gradientUnits="userSpaceOnUse">
      <stop offset="0" stop-color="#0078d4"/>
      <stop offset="0.17" stop-color="#1c84dc"/>
      <stop offset="0.38" stop-color="#3990e4"/>
      <stop offset="0.59" stop-color="#4d99ea"/>
      <stop offset="0.8" stop-color="#5a9eee"/>
      <stop offset="1" stop-color="#5ea0ef"/>
    </linearGradient>
    <linearGradient id="linear-gradient-5" x1="249.5573" y1="528.1349" x2="249.5573" y2="546.8962" gradientTransform="matrix(1, 0, 0, -1, 0, 589.7923)" gradientUnits="userSpaceOnUse">
      <stop offset="0" stop-color="#0078d4"/>
      <stop offset="0.82" stop-color="#5ea0ef"/>
    </linearGradient>
    <linearGradient id="linear-gradient-6" x1="249.5573" y1="520.8962" x2="249.5573" y2="528.1349" gradientTransform="matrix(1, 0, 0, -1, 0, 589.7923)" gradientUnits="userSpaceOnUse">
      <stop offset="0.15" stop-color="#ccc"/>
      <stop offset="1" stop-color="#707070"/>
    </linearGradient>
    <linearGradient id="linear-gradient-7" x1="249.5573" y1="474.1349" x2="249.5573" y2="492.8962" xlink:href="#linear-gradient-5"/>
    <linearGradient id="linear-gradient-8" x1="249.5573" y1="466.8962" x2="249.5573" y2="474.1349" xlink:href="#linear-gradient-6"/>
    <linearGradient id="linear-gradient-9" x1="249.5573" y1="415.6349" x2="249.5573" y2="434.3962" xlink:href="#linear-gradient-5"/>
    <linearGradient id="linear-gradient-10" x1="249.5573" y1="408.3962" x2="249.5573" y2="415.6349" xlink:href="#linear-gradient-6"/>
    <linearGradient id="linear-gradient-11" x1="220.6942" y1="564.6902" x2="220.6942" y2="594.4903" gradientTransform="matrix(1, 0, 0, -1, 0, 589.7923)" gradientUnits="userSpaceOnUse">
      <stop offset="0" stop-color="#0078d4"/>
      <stop offset="0.16" stop-color="#1380da"/>
      <stop offset="0.53" stop-color="#3c91e5"/>
      <stop offset="0.82" stop-color="#559cec"/>
      <stop offset="1" stop-color="#5ea0ef"/>
    </linearGradient>
  </defs>
  <title>load-balancer-distribution</title>
  <g id="Shapes">
    <rect width="325.4863" height="212.8962" fill="#fff"/>
    <g>
      <path d="M325.4863,187.8962h-105v-175h86.407a18.593,18.593,0,0,1,18.593,18.593Z" fill="#fff"/>
      <path d="M325.4863,187.8962h-105v-175h86.407a18.593,18.593,0,0,1,18.593,18.593Z" fill="#0072c6" opacity="0.12"/>
    </g>
    <g>
      <path d="M110.809,106.1319l14.913-14.913a1.0665,1.0665,0,0,1,1.5081-.0206l.0206.0206,14.913,14.913a1.0665,1.0665,0,0,1,.02,1.5081l-.02.02-14.9308,14.9308a1.0665,1.0665,0,0,1-1.4931,0L110.809,107.6605a1.0665,1.0665,0,0,1-.02-1.5081Z" fill="url(#linear-gradient)"/>
      <path d="M130.3968,98.0088l-3.7682-3.75a.2133.2133,0,0,0-.2844,0l-3.7683,3.75a.1778.1778,0,0,0,.1422.32h2.2041a.1955.1955,0,0,1,.1955.1955v3.5549a.1955.1955,0,0,0,.1955.1956H127.66a.1955.1955,0,0,0,.1955-.1956V98.5243a.1955.1955,0,0,1,.1955-.1955h2.2041a.1778.1778,0,0,0,.1422-.32Z" fill="#b4ec36"/>
      <path d="M117.599,102.648l-3.7327,3.786a.1956.1956,0,0,0,0,.2667l3.7327,3.75a.1955.1955,0,0,0,.3377-.1422v-2.1863a.1955.1955,0,0,1,.1955-.1955h3.555a.1778.1778,0,0,0,.1786-.1768.1661.1661,0,0,0-.0009-.0187v-2.3463a.1778.1778,0,0,0-.1244-.2666h-3.5549a.1778.1778,0,0,1-.1947-.1591q-.0009-.0093-.0009-.0186V102.79a.208.208,0,0,0-.391-.1422Z" fill="#b4ec36"/>
      <path d="M135.5159,110.4511l3.7861-3.7682a.1957.1957,0,0,0,0-.2666l-3.7861-3.7683a.1955.1955,0,0,0-.32.1422v2.2219a.1778.1778,0,0,1-.1769.1786q-.0093,0-.0186-.0009h-3.555a.1778.1778,0,0,0-.1786.1769.1448.1448,0,0,0,.0009.0186v2.3463a.1777.1777,0,0,0,.159.1946.1472.1472,0,0,0,.0187.0009h3.555a.1955.1955,0,0,1,.1955.1955v2.2041a.1954.1954,0,0,0,.32.1244Z" fill="#b4ec36"/>
      <path d="M131.4455,106.8962a4.9591,4.9591,0,1,0-6.2922,4.7459v1.6886a3.04,3.04,0,1,0,2.7906,0v-1.7775A4.9236,4.9236,0,0,0,131.4455,106.8962Z" fill="#fff"/>
      <circle id="e99c3387-15c3-4f28-bd4b-cb209b430e06" cx="126.5041" cy="106.8784" r="2.8795" fill="#5ea0ef"/>
    </g>
    <g>
      <rect x="4.0162" y="92.165" width="45.0102" height="28.0399" opacity="0.9" fill="url(#linear-gradient-2)" style="isolation: isolate"/>
      <g>
        <g>
          <path d="M13.8645,96.7187H38.4192a.7537.7537,0,0,1,.7827.71V114.49a.7537.7537,0,0,1-.7827.71H13.8645a.7682.7682,0,0,1-.7972-.71V97.458a.7682.7682,0,0,1,.7961-.7393Z" fill="url(#linear-gradient-3)"/>
          <path id="bd0aa3dd-0b00-4321-a08d-35d4016600a8" d="M23.9241,98.9075H35.6506a.2318.2318,0,0,1,.2319.2174v6.4793a.2318.2318,0,0,1-.2319.2174H23.9241a.2318.2318,0,0,1-.2319-.2174V99.11A.2318.2318,0,0,1,23.9241,98.9075Z" fill="#fff"/>
          <rect id="bda038fc-05f8-4c73-8191-dcc998cc8c65" x="16.3142" y="98.893" width="4.9428" height="13.9298" rx="0.2174" fill="#fff"/>
          <path id="f698805f-4654-42cb-b2bf-38f0a925cdbf" d="M31.0557,107.7784h4.5514a.2175.2175,0,0,1,.2175.2175V112.62a.2174.2174,0,0,1-.2175.2029H31.0557a.2173.2173,0,0,1-.2174-.2029v-4.6239a.2174.2174,0,0,1,.2174-.2175Z" fill="#fff"/>
          <path id="f83fd769-9efd-4d02-bd0d-a012d7e875a2" d="M23.8516,107.7784h4.421a.2174.2174,0,0,1,.2174.2175V112.62a.2028.2028,0,0,1-.2029.2029h-4.363a.2174.2174,0,0,1-.2174-.2174v-4.6094A.203.203,0,0,1,23.8516,107.7784Z" fill="#fff"/>
        </g>
        <g>
          <path d="M4.5906,93.7976A1.0007,1.0007,0,0,1,5.59,92.7952H46.68a1.0007,1.0007,0,0,1,1,1.0024v24.304a1.0006,1.0006,0,0,1-1,1.002H5.59a1.0006,1.0006,0,0,1-.9993-1.002ZM2.32,92.6315v26.5852A2.15,2.15,0,0,0,4.4675,121.37H47.8014a2.15,2.15,0,0,0,2.1475-2.1528V92.6315a2.15,2.15,0,0,0-2.1475-2.1528H4.4675A2.15,2.15,0,0,0,2.32,92.6315Z" fill="#0078d4" fill-rule="evenodd"/>
          <path d="M.57,123.658H51.7a.57.57,0,0,1,.5695.5711v1.679a.57.57,0,0,1-.5695.5706H.57a.57.57,0,0,1-.57-.5706v-1.679A.57.57,0,0,1,.57,123.658Z" fill-rule="evenodd" fill="url(#linear-gradient-4)"/>
          <path d="M20.3024,124.66h11.664a.165.165,0,0,1,.1647.1655v.4856a.165.165,0,0,1-.1647.1659H20.3024a.165.165,0,0,1-.1646-.1659v-.4856A.1649.1649,0,0,1,20.3024,124.66Z" fill="#fff" fill-rule="evenodd"/>
        </g>
      </g>
    </g>
    <line x1="115.4863" y1="94.0711" x2="58.1687" y2="94.0711" fill="none" stroke="#3c3c41" stroke-miterlimit="10"/>
    <line x1="105.4863" y1="105.9836" x2="58.1687" y2="105.9836" fill="none" stroke="#3c3c41" stroke-miterlimit="10"/>
    <line x1="230.4863" y1="105.9836" x2="147.1687" y2="105.9836" fill="none" stroke="#3c3c41" stroke-miterlimit="10"/>
    <line x1="115.4863" y1="117.8962" x2="58.1687" y2="117.8962" fill="none" stroke="#3c3c41" stroke-miterlimit="10"/>
    <g>
      <rect x="235.4863" y="42.8962" width="28.1419" height="18.7613" rx="0.9381" fill="url(#linear-gradient-5)"/>
      <polygon points="254.248 49.541 254.248 54.997 249.557 57.749 249.557 52.277 254.248 49.541" fill="#50e6ff"/>
      <polygon points="254.248 49.541 249.557 52.292 244.867 49.541 249.557 46.805 254.248 49.541" fill="#c3f1ff"/>
      <polygon points="249.557 52.292 249.557 57.749 244.867 54.997 244.867 49.541 249.557 52.292" fill="#9cebff"/>
      <polygon points="244.867 54.997 249.557 52.277 249.557 57.749 244.867 54.997" fill="#c3f1ff"/>
      <polygon points="254.248 54.997 249.557 52.277 249.557 57.749 254.248 54.997" fill="#9cebff"/>
      <path d="M255.2013,67.3327c-2.7829-.4377-2.8924-2.4389-2.8924-5.6753H246.79c0,3.2364-.0938,5.2376-2.8767,5.6753a1.5635,1.5635,0,0,0-1.3915,1.5635h14.071A1.5636,1.5636,0,0,0,255.2013,67.3327Z" fill="url(#linear-gradient-6)"/>
    </g>
    <g>
      <rect x="235.4863" y="96.8962" width="28.1419" height="18.7613" rx="0.9381" fill="url(#linear-gradient-7)"/>
      <polygon points="254.248 103.541 254.248 108.997 249.557 111.749 249.557 106.277 254.248 103.541" fill="#50e6ff"/>
      <polygon points="254.248 103.541 249.557 106.292 244.867 103.541 249.557 100.805 254.248 103.541" fill="#c3f1ff"/>
      <polygon points="249.557 106.292 249.557 111.749 244.867 108.997 244.867 103.541 249.557 106.292" fill="#9cebff"/>
      <polygon points="244.867 108.997 249.557 106.277 249.557 111.749 244.867 108.997" fill="#c3f1ff"/>
      <polygon points="254.248 108.997 249.557 106.277 249.557 111.749 254.248 108.997" fill="#9cebff"/>
      <path d="M255.2013,121.3327c-2.7829-.4377-2.8924-2.4389-2.8924-5.6753H246.79c0,3.2364-.0938,5.2376-2.8767,5.6753a1.5635,1.5635,0,0,0-1.3915,1.5635h14.071A1.5636,1.5636,0,0,0,255.2013,121.3327Z" fill="url(#linear-gradient-8)"/>
    </g>
    <g>
      <rect x="235.4863" y="155.3962" width="28.1419" height="18.7613" rx="0.9381" fill="url(#linear-gradient-9)"/>
      <polygon points="254.248 162.041 254.248 167.497 249.557 170.249 249.557 164.777 254.248 162.041" fill="#50e6ff"/>
      <polygon points="254.248 162.041 249.557 164.792 244.867 162.041 249.557 159.305 254.248 162.041" fill="#c3f1ff"/>
      <polygon points="249.557 164.792 249.557 170.249 244.867 167.497 244.867 162.041 249.557 164.792" fill="#9cebff"/>
      <polygon points="244.867 167.497 249.557 164.777 249.557 170.249 244.867 167.497" fill="#c3f1ff"/>
      <polygon points="254.248 167.497 249.557 164.777 249.557 170.249 254.248 167.497" fill="#9cebff"/>
      <path d="M255.2013,179.8327c-2.7829-.4377-2.8924-2.4389-2.8924-5.6753H246.79c0,3.2364-.0938,5.2376-2.8767,5.6753a1.5635,1.5635,0,0,0-1.3915,1.5635h14.071A1.5636,1.5636,0,0,0,255.2013,179.8327Z" fill="url(#linear-gradient-10)"/>
    </g>
    <g>
      <path d="M235.6942,15.0021a6.85,6.85,0,0,0-5.85-6.6667,8.5666,8.5666,0,0,0-8.75-8.3333,8.7666,8.7666,0,0,0-8.3333,5.7833,8.1167,8.1167,0,0,0-7.0667,8,8.2334,8.2334,0,0,0,8.45,8h14.4167a2.44,2.44,0,0,0,.3667,0A6.8833,6.8833,0,0,0,235.6942,15.0021Z" fill="url(#linear-gradient-11)"/>
      <circle cx="214.4276" cy="13.5021" r="1.1833" fill="#e3e3e3"/>
      <path d="M218.5942,13.9521v-.95h-.1333l-1.0167-.3334-.2666-.65.5166-1.1-.6666-.6666h-.1334l-.95.5-.65-.2667-.4166-1.15h-.95v.1333l-.3334,1.0167-.7.2667-1.0833-.5167-.6667.6667v.1333l.4834.95-.2667.65-1.1667.4167v1.0333h.1334l1.0166.3333.2667.65-.5167,1.1.6667.6667h.1333l.95-.4833.65.2666.4167,1.15h.95v-.1333l.3333-1.0167.65-.2666,1.1.5166.6667-.6666v-.1334l-.4833-.95.2666-.65Zm-4.1666,1.3833a1.8167,1.8167,0,1,1,.0334,0Z" fill="#fff"/>
      <circle cx="222.3609" cy="8.4021" r="1.4" fill="#e3e3e3"/>
      <path d="M227.3609,8.9354V7.8021h-.15l-1.2333-.3834-.2834-.85.6167-1.3333-.8-.8h-.15l-1.15.5833-.7667-.3166-.5-1.3834h-1.1833v.1667l-.4,1.2167-.7833.3166-1.3-.6166-.8.8.0833.15.4667,1.2333-.2667.8333-1.4.45V9.0854h.1667l1.2166.4.2834.75-.6167,1.3333.8333.85.1667-.0833,1.1333-.5833.7834.3166.5,1.3834h1.1333v-.1667l.4-1.2167.7833-.3166,1.3167.6166.8-.8-.0833-.15-.4834-1.2.3167-.7833Zm-5,1.6667a2.2,2.2,0,1,1,2.2-2.2h0a2.1834,2.1834,0,0,1-2.1665,2.2Z" fill="#fff"/>
    </g>
    <path d="M230.4863,52.8962H210.8275a8.3126,8.3126,0,0,0-5.1155,2.1271L168.9925,91.9439a8.3121,8.3121,0,0,1-5.1155,2.1272H138.1687" fill="none" stroke="#3c3c41" stroke-miterlimit="10"/>
    <path d="M138.1687,117.8962H163.877a7.5091,7.5091,0,0,1,4.9665,2.2655l37.0174,42.6438a7.51,7.51,0,0,0,4.9666,2.2656h19.6588" fill="none" stroke="#3c3c41" stroke-miterlimit="10"/>
  </g>
  <g id="Text">
    <g>
      <path d="M96.6641,139.2126a2.8281,2.8281,0,0,1-.211,1.1132,2.433,2.433,0,0,1-.6006.8555,2.6881,2.6881,0,0,1-.94.5508,3.6781,3.6781,0,0,1-1.2246.1934,3.3823,3.3823,0,0,1-1.74-.3516v-1.02a3.2,3.2,0,0,0,1.7519.5507,2.3725,2.3725,0,0,0,.8233-.1347,1.8316,1.8316,0,0,0,.624-.375,1.6055,1.6055,0,0,0,.3955-.58,1.9635,1.9635,0,0,0,.1377-.7441,1.5942,1.5942,0,0,0-.5508-1.2862,2.4157,2.4157,0,0,0-1.6-.4658q-.17,0-.3574.0059t-.375.0146q-.1875.0088-.3662.02t-.3252.0293l.2871-4.2129h3.8847v.8672H93.2246l-.17,2.4668q.1875-.0117.3984-.02t.375-.0088a3.77,3.77,0,0,1,1.1953.1758,2.5322,2.5322,0,0,1,.8936.501,2.1,2.1,0,0,1,.5566.7968A2.8022,2.8022,0,0,1,96.6641,139.2126Z" fill="#1e1e1e"/>
      <path d="M101.498,138.8141H98.2988v-.7558h3.1992Z" fill="#1e1e1e"/>
      <path d="M106.01,141.72a1.8529,1.8529,0,0,1-.8965.1875q-1.5762,0-1.5762-1.7578v-3.5508h-1.0312v-.82h1.0312v-1.4649l.9609-.31v1.7754H106.01v.82H104.498V139.98a1.4018,1.4018,0,0,0,.2051.8614.8186.8186,0,0,0,.68.2578,1.01,1.01,0,0,0,.627-.1992Z" fill="#1e1e1e"/>
      <path d="M112.1445,141.779h-.9609V140.83H111.16a1.9735,1.9735,0,0,1-1.8516,1.09q-2.1445,0-2.1445-2.5547V135.779h.955v3.4336q0,1.8984,1.4532,1.8984a1.47,1.47,0,0,0,1.1572-.5186,1.9841,1.9841,0,0,0,.4541-1.3564v-3.457h.9609Z" fill="#1e1e1e"/>
      <path d="M115.0684,140.9118h-.0235v3.6269h-.9609v-8.76h.9609v1.0547h.0235a2.2722,2.2722,0,0,1,2.0742-1.1954,2.1972,2.1972,0,0,1,1.8105.8057,3.3369,3.3369,0,0,1,.65,2.1592,3.7187,3.7187,0,0,1-.7324,2.4111,2.4387,2.4387,0,0,1-2.0039.9053A2.0071,2.0071,0,0,1,115.0684,140.9118Zm-.0235-2.42v.8379a1.7842,1.7842,0,0,0,.4834,1.2626,1.7244,1.7244,0,0,0,2.5957-.1494,3.0642,3.0642,0,0,0,.4951-1.8574,2.4189,2.4189,0,0,0-.4629-1.57,1.5317,1.5317,0,0,0-1.2539-.5684,1.7026,1.7026,0,0,0-1.3476.583A2.1406,2.1406,0,0,0,115.0449,138.4919Z" fill="#1e1e1e"/>
      <path d="M122.1,141.779h-.9609v-8.8828H122.1Z" fill="#1e1e1e"/>
      <path d="M128.8672,139.0192h-4.2363a2.2443,2.2443,0,0,0,.539,1.5469,1.8583,1.8583,0,0,0,1.418.5449,2.9482,2.9482,0,0,0,1.8633-.668v.9024a3.4826,3.4826,0,0,1-2.0918.5742,2.5361,2.5361,0,0,1-1.9981-.8174,3.3458,3.3458,0,0,1-.7265-2.3,3.2808,3.2808,0,0,1,.7939-2.2822,2.5457,2.5457,0,0,1,1.9717-.8819,2.256,2.256,0,0,1,1.8223.7618,3.1763,3.1763,0,0,1,.6445,2.1152Zm-.9844-.8144a1.9552,1.9552,0,0,0-.4014-1.295,1.3673,1.3673,0,0,0-1.0986-.4629,1.5524,1.5524,0,0,0-1.1543.4864,2.2067,2.2067,0,0,0-.5859,1.2715Z" fill="#1e1e1e"/>
      <path d="M138.5879,141.779h-.9609v-3.4571q0-1.875-1.3946-1.875a1.52,1.52,0,0,0-1.1836.542,2.02,2.02,0,0,0-.48,1.3916v3.3985h-.961v-8.8828h.961v3.8789h.0234a2.1823,2.1823,0,0,1,1.9687-1.1368q2.0274,0,2.0274,2.4434Z" fill="#1e1e1e"/>
      <path d="M144.6934,141.779h-.961v-.9375h-.0234a2.0118,2.0118,0,0,1-1.8457,1.0781,1.9724,1.9724,0,0,1-1.4033-.4746,1.6443,1.6443,0,0,1-.5069-1.26q0-1.6817,1.9805-1.957l1.7988-.252q0-1.5292-1.2363-1.5293a2.9535,2.9535,0,0,0-1.957.7383v-.9844a3.7181,3.7181,0,0,1,2.039-.5625q2.1153,0,2.1153,2.2383Zm-.961-3.0352-1.4472.1992a2.35,2.35,0,0,0-1.0079.3311.9549.9549,0,0,0-.34.8408.9159.9159,0,0,0,.3135.7178,1.2115,1.2115,0,0,0,.8349.2783,1.5423,1.5423,0,0,0,1.1807-.501,1.79,1.79,0,0,0,.4658-1.2685Z" fill="#1e1e1e"/>
      <path d="M146.1406,141.5622v-1.0313a2.844,2.844,0,0,0,1.7285.58q1.2657,0,1.2657-.8437a.733.733,0,0,0-.1084-.4073,1.0829,1.0829,0,0,0-.293-.2959,2.253,2.253,0,0,0-.4336-.2314q-.249-.1026-.5361-.2139a6.9022,6.9022,0,0,1-.7-.3193,2.1118,2.1118,0,0,1-.5039-.3633,1.3507,1.3507,0,0,1-.3047-.46,1.6259,1.6259,0,0,1-.1026-.6035,1.4333,1.4333,0,0,1,.1934-.747,1.7153,1.7153,0,0,1,.5156-.545,2.4043,2.4043,0,0,1,.7354-.331,3.2622,3.2622,0,0,1,.8525-.1114,3.4419,3.4419,0,0,1,1.3945.27v.9726a2.7181,2.7181,0,0,0-1.5234-.4336,1.7769,1.7769,0,0,0-.4863.0616,1.191,1.191,0,0,0-.3721.1728.7981.7981,0,0,0-.24.2666.7017.7017,0,0,0-.085.3428.8217.8217,0,0,0,.085.3926.8636.8636,0,0,0,.249.2812,1.9016,1.9016,0,0,0,.3984.2227q.2344.1.5332.2168a7.4113,7.4113,0,0,1,.7149.3134,2.4563,2.4563,0,0,1,.539.3633,1.42,1.42,0,0,1,.3428.4659,1.5015,1.5015,0,0,1,.12.6269,1.4784,1.4784,0,0,1-.1962.7734,1.6829,1.6829,0,0,1-.5245.545,2.402,2.402,0,0,1-.7558.3222,3.7331,3.7331,0,0,1-.8965.1055A3.4039,3.4039,0,0,1,146.1406,141.5622Z" fill="#1e1e1e"/>
      <path d="M156.5762,141.779h-.961v-3.4571q0-1.875-1.3945-1.875a1.52,1.52,0,0,0-1.1836.542,2.02,2.02,0,0,0-.4805,1.3916v3.3985h-.9609v-8.8828h.9609v3.8789h.0235a2.1823,2.1823,0,0,1,1.9687-1.1368q2.0274,0,2.0274,2.4434Z" fill="#1e1e1e"/>
      <path d="M93.4355,152.5885a1.4512,1.4512,0,0,1-1.0488-.4277,1.3933,1.3933,0,0,1-.4394-1.0371,1.5057,1.5057,0,0,1,1.4882-1.4883,1.3936,1.3936,0,0,1,1.0372.44,1.4513,1.4513,0,0,1,.4277,1.0488,1.46,1.46,0,0,1-1.4649,1.4648Z" fill="#1e1e1e"/>
      <path d="M103.1445,154.6393v-1.16a2.2534,2.2534,0,0,0,.4776.3164,3.8757,3.8757,0,0,0,.5859.2373,4.6783,4.6783,0,0,0,.6182.1494,3.4516,3.4516,0,0,0,.5742.0527,2.249,2.249,0,0,0,1.3564-.3369,1.2637,1.2637,0,0,0,.2989-1.5615,1.6828,1.6828,0,0,0-.4131-.46,4.1027,4.1027,0,0,0-.624-.3984q-.36-.19-.7764-.4014-.4395-.2226-.82-.4511a3.5572,3.5572,0,0,1-.6621-.504,2.1006,2.1006,0,0,1-.4424-.624,2.1267,2.1267,0,0,1,.0908-1.8164,2.1618,2.1618,0,0,1,.6621-.7,3,3,0,0,1,.9346-.41,4.2762,4.2762,0,0,1,1.0693-.1348,4.0985,4.0985,0,0,1,1.8106.2988v1.1074a3.2823,3.2823,0,0,0-1.91-.5156,3.1428,3.1428,0,0,0-.6445.0674,1.82,1.82,0,0,0-.5742.22,1.2732,1.2732,0,0,0-.41.3926,1.0419,1.0419,0,0,0-.1582.5859,1.2063,1.2063,0,0,0,.12.5567,1.3657,1.3657,0,0,0,.3545.4277,3.5344,3.5344,0,0,0,.5713.375q.3369.1817.7764.3985.4511.2226.8554.4687a3.91,3.91,0,0,1,.709.5449,2.4237,2.4237,0,0,1,.4834.6621,1.8608,1.8608,0,0,1,.1787.8321,2.11,2.11,0,0,1-.2431,1.0517,1.9958,1.9958,0,0,1-.6563.7,2.8669,2.8669,0,0,1-.9521.39,5.2137,5.2137,0,0,1-1.1368.12,4.6256,4.6256,0,0,1-.4921-.0322q-.2931-.0323-.5977-.0938a4.8812,4.8812,0,0,1-.5771-.1523A1.7986,1.7986,0,0,1,103.1445,154.6393Z" fill="#1e1e1e"/>
      <path d="M112.291,155.12a2.7832,2.7832,0,0,1-2.124-.8408,3.1145,3.1145,0,0,1-.794-2.23,3.2443,3.2443,0,0,1,.8262-2.3613,2.97,2.97,0,0,1,2.2324-.85,2.6911,2.6911,0,0,1,2.0948.8262,3.2761,3.2761,0,0,1,.7529,2.291,3.2232,3.2232,0,0,1-.8115,2.3A2.8435,2.8435,0,0,1,112.291,155.12Zm.07-5.4727a1.8278,1.8278,0,0,0-1.4648.63,2.5867,2.5867,0,0,0-.5391,1.7373,2.447,2.447,0,0,0,.5449,1.6817,1.8523,1.8523,0,0,0,1.459.6152,1.7567,1.7567,0,0,0,1.4326-.6035,2.619,2.619,0,0,0,.501-1.7168,2.664,2.664,0,0,0-.501-1.7344A1.749,1.749,0,0,0,112.3613,149.6471Z" fill="#1e1e1e"/>
      <path d="M121.666,154.9792h-.9609V154.03h-.0235a1.9732,1.9732,0,0,1-1.8515,1.09q-2.1445,0-2.1446-2.5547v-3.5859h.9551v3.4336q0,1.8984,1.4531,1.8984a1.47,1.47,0,0,0,1.1573-.5186,1.9841,1.9841,0,0,0,.4541-1.3564v-3.457h.9609Z" fill="#1e1e1e"/>
      <path d="M126.7344,149.9518a1.1753,1.1753,0,0,0-.7266-.1933,1.2263,1.2263,0,0,0-1.0283.58,2.6822,2.6822,0,0,0-.4131,1.5821v3.0586h-.9609v-6h.9609v1.2363h.0234a2.0951,2.0951,0,0,1,.627-.9873,1.43,1.43,0,0,1,.9434-.3545,1.5684,1.5684,0,0,1,.5742.082Z" fill="#1e1e1e"/>
      <path d="M131.8672,154.7038a3.1228,3.1228,0,0,1-1.6406.416,2.7161,2.7161,0,0,1-2.0713-.835,3.0258,3.0258,0,0,1-.7881-2.165,3.3263,3.3263,0,0,1,.85-2.3818,2.9719,2.9719,0,0,1,2.2676-.8995,3.1564,3.1564,0,0,1,1.3945.293v.9844a2.4434,2.4434,0,0,0-1.43-.4688,1.9323,1.9323,0,0,0-1.5088.6592,2.5018,2.5018,0,0,0-.5888,1.7315,2.3812,2.3812,0,0,0,.5537,1.664,1.9082,1.9082,0,0,0,1.4853.6094,2.4082,2.4082,0,0,0,1.4766-.5215Z" fill="#1e1e1e"/>
      <path d="M138.1426,152.2194h-4.2364a2.2448,2.2448,0,0,0,.5391,1.5469,1.8583,1.8583,0,0,0,1.418.5449,2.9482,2.9482,0,0,0,1.8633-.668v.9024a3.4826,3.4826,0,0,1-2.0918.5742,2.5361,2.5361,0,0,1-1.9981-.8174,3.3453,3.3453,0,0,1-.7265-2.3,3.2808,3.2808,0,0,1,.7939-2.2822,2.5457,2.5457,0,0,1,1.9717-.8819,2.2553,2.2553,0,0,1,1.8222.7618,3.1758,3.1758,0,0,1,.6446,2.1152Zm-.9844-.8145a1.9551,1.9551,0,0,0-.4014-1.2949,1.3673,1.3673,0,0,0-1.0986-.4629,1.5521,1.5521,0,0,0-1.1543.4864,2.2067,2.2067,0,0,0-.5859,1.2714Z" fill="#1e1e1e"/>
      <path d="M143.9961,154.9792h-.9844v-8.4024h.9844Z" fill="#1e1e1e"/>
      <path d="M147.19,151.8034v3.1758h-.9844v-8.4024h2.3086a3.0469,3.0469,0,0,1,2.0888.6563,2.3429,2.3429,0,0,1,.7412,1.8515,2.5467,2.5467,0,0,1-.8232,1.9571,3.1454,3.1454,0,0,1-2.2236.7617Zm0-4.336v3.4454h1.0312a2.3056,2.3056,0,0,0,1.5557-.4659,1.6491,1.6491,0,0,0,.5361-1.3154q0-1.6641-1.9688-1.6641Z" fill="#1e1e1e"/>
      <path d="M93.4355,165.7882a1.4512,1.4512,0,0,1-1.0488-.4277,1.3932,1.3932,0,0,1-.4394-1.0371,1.5057,1.5057,0,0,1,1.4882-1.4883,1.3936,1.3936,0,0,1,1.0372.4395,1.4515,1.4515,0,0,1,.4277,1.0488,1.46,1.46,0,0,1-1.4649,1.4648Z" fill="#1e1e1e"/>
      <path d="M103.1445,167.839v-1.16a2.2534,2.2534,0,0,0,.4776.3164,3.8757,3.8757,0,0,0,.5859.2373,4.6783,4.6783,0,0,0,.6182.1494,3.4409,3.4409,0,0,0,.5742.0527,2.249,2.249,0,0,0,1.3564-.3369,1.2637,1.2637,0,0,0,.2989-1.5615,1.6828,1.6828,0,0,0-.4131-.46,4.11,4.11,0,0,0-.624-.3984q-.36-.19-.7764-.4014-.4395-.2226-.82-.4511a3.5612,3.5612,0,0,1-.6621-.5039,2.101,2.101,0,0,1-.4424-.6241,2.1267,2.1267,0,0,1,.0908-1.8164,2.1618,2.1618,0,0,1,.6621-.7,3,3,0,0,1,.9346-.41,4.2762,4.2762,0,0,1,1.0693-.1348,4.0985,4.0985,0,0,1,1.8106.2988v1.1075a3.2816,3.2816,0,0,0-1.91-.5157,3.1428,3.1428,0,0,0-.6445.0674,1.82,1.82,0,0,0-.5742.22,1.2732,1.2732,0,0,0-.41.3926,1.042,1.042,0,0,0-.1582.586,1.2061,1.2061,0,0,0,.12.5566,1.3657,1.3657,0,0,0,.3545.4277,3.5344,3.5344,0,0,0,.5713.375q.3369.1817.7764.3985.4511.2226.8554.4687a3.91,3.91,0,0,1,.709.5449,2.4237,2.4237,0,0,1,.4834.6621,1.8608,1.8608,0,0,1,.1787.8321,2.11,2.11,0,0,1-.2431,1.0517,1.9958,1.9958,0,0,1-.6563.7,2.8669,2.8669,0,0,1-.9521.39,5.2137,5.2137,0,0,1-1.1368.12,4.6256,4.6256,0,0,1-.4921-.0322q-.2931-.0322-.5977-.0938a4.8812,4.8812,0,0,1-.5771-.1523A1.7986,1.7986,0,0,1,103.1445,167.839Z" fill="#1e1e1e"/>
      <path d="M112.291,168.32a2.7832,2.7832,0,0,1-2.124-.8408,3.1145,3.1145,0,0,1-.794-2.23,3.2443,3.2443,0,0,1,.8262-2.3613,2.97,2.97,0,0,1,2.2324-.85,2.6911,2.6911,0,0,1,2.0948.8262,3.2761,3.2761,0,0,1,.7529,2.291,3.2232,3.2232,0,0,1-.8115,2.3A2.8435,2.8435,0,0,1,112.291,168.32Zm.07-5.4727a1.8278,1.8278,0,0,0-1.4648.63,2.5867,2.5867,0,0,0-.5391,1.7373,2.447,2.447,0,0,0,.5449,1.6817,1.8523,1.8523,0,0,0,1.459.6152,1.7567,1.7567,0,0,0,1.4326-.6035,2.619,2.619,0,0,0,.501-1.7168,2.664,2.664,0,0,0-.501-1.7344A1.749,1.749,0,0,0,112.3613,162.8468Z" fill="#1e1e1e"/>
      <path d="M121.666,168.1789h-.9609V167.23h-.0235a1.9733,1.9733,0,0,1-1.8515,1.09q-2.1445,0-2.1446-2.5547v-3.5859h.9551v3.4336q0,1.8984,1.4531,1.8984a1.47,1.47,0,0,0,1.1573-.5185,1.9846,1.9846,0,0,0,.4541-1.3565v-3.457h.9609Z" fill="#1e1e1e"/>
      <path d="M126.7344,163.1515a1.1753,1.1753,0,0,0-.7266-.1933,1.2263,1.2263,0,0,0-1.0283.58,2.6822,2.6822,0,0,0-.4131,1.5821v3.0586h-.9609v-6h.9609v1.2363h.0234a2.0951,2.0951,0,0,1,.627-.9873,1.43,1.43,0,0,1,.9434-.3545,1.5684,1.5684,0,0,1,.5742.082Z" fill="#1e1e1e"/>
      <path d="M131.8672,167.9035a3.1228,3.1228,0,0,1-1.6406.416,2.7161,2.7161,0,0,1-2.0713-.835,3.0258,3.0258,0,0,1-.7881-2.165,3.3263,3.3263,0,0,1,.85-2.3818,2.9723,2.9723,0,0,1,2.2676-.9,3.1564,3.1564,0,0,1,1.3945.293v.9844a2.4434,2.4434,0,0,0-1.43-.4688,1.9323,1.9323,0,0,0-1.5088.6592,2.5018,2.5018,0,0,0-.5888,1.7315,2.3812,2.3812,0,0,0,.5537,1.664,1.9082,1.9082,0,0,0,1.4853.6094,2.4082,2.4082,0,0,0,1.4766-.5215Z" fill="#1e1e1e"/>
      <path d="M138.1426,165.4191h-4.2364a2.2448,2.2448,0,0,0,.5391,1.5469,1.8583,1.8583,0,0,0,1.418.5449,2.9482,2.9482,0,0,0,1.8633-.668v.9024a3.4826,3.4826,0,0,1-2.0918.5742,2.5361,2.5361,0,0,1-1.9981-.8174,3.3453,3.3453,0,0,1-.7265-2.3,3.2808,3.2808,0,0,1,.7939-2.2822,2.5457,2.5457,0,0,1,1.9717-.8819,2.2556,2.2556,0,0,1,1.8222.7618,3.1758,3.1758,0,0,1,.6446,2.1152Zm-.9844-.8144a1.9552,1.9552,0,0,0-.4014-1.295,1.3673,1.3673,0,0,0-1.0986-.4629,1.5524,1.5524,0,0,0-1.1543.4864,2.2067,2.2067,0,0,0-.5859,1.2715Z" fill="#1e1e1e"/>
      <path d="M143.9961,165.0031v3.1758h-.9844v-8.4024H145.32a3.0474,3.0474,0,0,1,2.0889.6563,2.3432,2.3432,0,0,1,.7412,1.8515,2.5464,2.5464,0,0,1-.8233,1.9571,3.1454,3.1454,0,0,1-2.2236.7617Zm0-4.3359v3.4453h1.0312a2.3054,2.3054,0,0,0,1.5557-.4659,1.6491,1.6491,0,0,0,.5361-1.3154q0-1.6641-1.9687-1.664Z" fill="#1e1e1e"/>
      <path d="M151.666,168.32a2.7832,2.7832,0,0,1-2.124-.8408,3.1145,3.1145,0,0,1-.794-2.23,3.2443,3.2443,0,0,1,.8262-2.3613,2.97,2.97,0,0,1,2.2324-.85,2.6911,2.6911,0,0,1,2.0948.8262,3.2761,3.2761,0,0,1,.7529,2.291,3.2232,3.2232,0,0,1-.8115,2.3A2.8435,2.8435,0,0,1,151.666,168.32Zm.07-5.4727a1.8278,1.8278,0,0,0-1.4648.63,2.5867,2.5867,0,0,0-.5391,1.7373,2.447,2.447,0,0,0,.5449,1.6817,1.8523,1.8523,0,0,0,1.459.6152,1.7567,1.7567,0,0,0,1.4326-.6035,2.619,2.619,0,0,0,.501-1.7168,2.664,2.664,0,0,0-.501-1.7344A1.749,1.749,0,0,0,151.7363,162.8468Z" fill="#1e1e1e"/>
      <path d="M159.3184,163.1515a1.1753,1.1753,0,0,0-.7266-.1933,1.2262,1.2262,0,0,0-1.0283.58,2.6822,2.6822,0,0,0-.4131,1.5821v3.0586H156.19v-6h.9609v1.2363h.0234a2.0944,2.0944,0,0,1,.627-.9873,1.43,1.43,0,0,1,.9433-.3545,1.5694,1.5694,0,0,1,.5743.082Z" fill="#1e1e1e"/>
      <path d="M163.1445,168.12a1.8526,1.8526,0,0,1-.8965.1875q-1.576,0-1.5761-1.7578v-3.5508h-1.0313v-.82h1.0313V160.714l.9609-.31v1.7754h1.5117v.82h-1.5117V166.38a1.4018,1.4018,0,0,0,.2051.8614.8186.8186,0,0,0,.68.2578,1.01,1.01,0,0,0,.6269-.1992Z" fill="#1e1e1e"/>
      <path d="M93.4355,178.9884a1.4512,1.4512,0,0,1-1.0488-.4277,1.3932,1.3932,0,0,1-.4394-1.0371,1.5057,1.5057,0,0,1,1.4882-1.4883,1.3936,1.3936,0,0,1,1.0372.4395,1.4515,1.4515,0,0,1,.4277,1.0488,1.46,1.46,0,0,1-1.4649,1.4648Z" fill="#1e1e1e"/>
      <path d="M103.5371,181.3791v-8.4024h2.32q4.4415,0,4.4414,4.0957a4.1272,4.1272,0,0,1-1.2334,3.126,4.5752,4.5752,0,0,1-3.3017,1.1807Zm.9844-7.5117v6.621h1.2539a3.5589,3.5589,0,0,0,2.5723-.8847,3.3171,3.3171,0,0,0,.92-2.5078q0-3.2286-3.4336-3.2285Z" fill="#1e1e1e"/>
      <path d="M116.6445,178.6193h-4.2363a2.2439,2.2439,0,0,0,.5391,1.5469,1.8581,1.8581,0,0,0,1.4179.5449,2.9482,2.9482,0,0,0,1.8633-.668v.9024a3.4824,3.4824,0,0,1-2.0918.5742,2.5359,2.5359,0,0,1-1.998-.8174,3.3454,3.3454,0,0,1-.7266-2.3,3.2808,3.2808,0,0,1,.794-2.2822,2.5457,2.5457,0,0,1,1.9716-.8819A2.2559,2.2559,0,0,1,116,176a3.1757,3.1757,0,0,1,.6445,2.1152Zm-.9843-.8144a1.9557,1.9557,0,0,0-.4014-1.295,1.3675,1.3675,0,0,0-1.0986-.4629,1.5519,1.5519,0,0,0-1.1543.4864,2.2068,2.2068,0,0,0-.586,1.2715Z" fill="#1e1e1e"/>
      <path d="M117.7344,181.1623V180.131a2.8438,2.8438,0,0,0,1.7285.58q1.2656,0,1.2656-.8437a.7321.7321,0,0,0-.1084-.4073,1.08,1.08,0,0,0-.293-.2959,2.252,2.252,0,0,0-.4335-.2314q-.2492-.1026-.5362-.2139a6.9225,6.9225,0,0,1-.7-.3193,2.1159,2.1159,0,0,1-.5039-.3633,1.3536,1.3536,0,0,1-.3047-.46,1.628,1.628,0,0,1-.1025-.6035,1.433,1.433,0,0,1,.1934-.7471,1.7149,1.7149,0,0,1,.5156-.5449,2.4026,2.4026,0,0,1,.7353-.331,3.263,3.263,0,0,1,.8526-.1114,3.4423,3.4423,0,0,1,1.3945.27v.9726a2.7181,2.7181,0,0,0-1.5234-.4336,1.7782,1.7782,0,0,0-.4864.0616,1.19,1.19,0,0,0-.372.1728.7985.7985,0,0,0-.24.2666.7027.7027,0,0,0-.0849.3428.8229.8229,0,0,0,.0849.3926.8651.8651,0,0,0,.2491.2812,1.901,1.901,0,0,0,.3984.2227q.2343.1.5332.2168a7.4089,7.4089,0,0,1,.7148.3134,2.4547,2.4547,0,0,1,.5391.3633,1.4216,1.4216,0,0,1,.3428.4658,1.5023,1.5023,0,0,1,.12.627,1.4775,1.4775,0,0,1-.1963.7734,1.6836,1.6836,0,0,1-.5244.545,2.4025,2.4025,0,0,1-.7559.3222,3.7325,3.7325,0,0,1-.8965.1055A3.4038,3.4038,0,0,1,117.7344,181.1623Z" fill="#1e1e1e"/>
      <path d="M125.9727,181.3205a1.8529,1.8529,0,0,1-.8965.1875q-1.5762,0-1.5762-1.7578v-3.5508h-1.0313v-.82H123.5v-1.4649l.9609-.31v1.7754h1.5118v.82h-1.5118V179.58a1.4018,1.4018,0,0,0,.2051.8614.8186.8186,0,0,0,.68.2578,1.01,1.01,0,0,0,.627-.1992Z" fill="#1e1e1e"/>
      <path d="M127.748,173.8556a.6091.6091,0,0,1-.4394-.1757.5934.5934,0,0,1-.1816-.4454.6153.6153,0,0,1,.621-.6269.6209.6209,0,0,1,.4483.1787.6259.6259,0,0,1,0,.8877A.6154.6154,0,0,1,127.748,173.8556Zm.4688,7.5235h-.9609v-6h.9609Z" fill="#1e1e1e"/>
      <path d="M135.1426,181.3791h-.961v-3.4219q0-1.91-1.3945-1.91a1.5128,1.5128,0,0,0-1.1924.542,2.0094,2.0094,0,0,0-.4717,1.3682v3.4219h-.9609v-6h.9609v.9961h.0235a2.1656,2.1656,0,0,1,1.9687-1.1368,1.8358,1.8358,0,0,1,1.5059.6358,2.832,2.832,0,0,1,.5215,1.8369Z" fill="#1e1e1e"/>
      <path d="M141.248,181.3791h-.9609v-.9375h-.0234a2.0118,2.0118,0,0,1-1.8457,1.0781,1.9727,1.9727,0,0,1-1.4034-.4746,1.6446,1.6446,0,0,1-.5068-1.26q0-1.6817,1.9805-1.957l1.7988-.252q0-1.5292-1.2363-1.5293a2.9539,2.9539,0,0,0-1.9571.7383v-.9844a3.7186,3.7186,0,0,1,2.0391-.5625q2.1153,0,2.1152,2.2383Zm-.9609-3.0352-1.4473.1992a2.35,2.35,0,0,0-1.0078.3311.9549.9549,0,0,0-.34.8408.9159.9159,0,0,0,.3135.7178,1.2113,1.2113,0,0,0,.8349.2783,1.5424,1.5424,0,0,0,1.1807-.501,1.79,1.79,0,0,0,.4658-1.2685Z" fill="#1e1e1e"/>
      <path d="M145.8418,181.3205a1.8529,1.8529,0,0,1-.8965.1875q-1.5762,0-1.5762-1.7578v-3.5508h-1.0312v-.82h1.0312v-1.4649l.961-.31v1.7754h1.5117v.82H144.33V179.58a1.4012,1.4012,0,0,0,.2051.8614.8184.8184,0,0,0,.68.2578,1.01,1.01,0,0,0,.627-.1992Z" fill="#1e1e1e"/>
      <path d="M147.6172,173.8556a.6092.6092,0,0,1-.44-.1757.5934.5934,0,0,1-.1816-.4454.6153.6153,0,0,1,.6211-.6269.62.62,0,0,1,.4482.1787.6259.6259,0,0,1,0,.8877A.615.615,0,0,1,147.6172,173.8556Zm.4687,7.5235h-.9609v-6h.9609Z" fill="#1e1e1e"/>
      <path d="M152.5391,181.52a2.7833,2.7833,0,0,1-2.1241-.8408,3.1145,3.1145,0,0,1-.7939-2.23,3.2443,3.2443,0,0,1,.8262-2.3613,2.97,2.97,0,0,1,2.2324-.85,2.6909,2.6909,0,0,1,2.0947.8262,3.2757,3.2757,0,0,1,.7529,2.291,3.2232,3.2232,0,0,1-.8115,2.3A2.8434,2.8434,0,0,1,152.5391,181.52Zm.07-5.4727a1.828,1.828,0,0,0-1.4649.63,2.5872,2.5872,0,0,0-.539,1.7373,2.4466,2.4466,0,0,0,.5449,1.6817,1.8521,1.8521,0,0,0,1.459.6152,1.7568,1.7568,0,0,0,1.4326-.6035,2.619,2.619,0,0,0,.501-1.7168,2.664,2.664,0,0,0-.501-1.7344A1.7491,1.7491,0,0,0,152.6094,176.047Z" fill="#1e1e1e"/>
      <path d="M162.043,181.3791h-.961v-3.4219q0-1.91-1.3945-1.91a1.5128,1.5128,0,0,0-1.1924.542,2.0094,2.0094,0,0,0-.4717,1.3682v3.4219h-.9609v-6h.9609v.9961h.0235a2.1655,2.1655,0,0,1,1.9687-1.1368,1.8358,1.8358,0,0,1,1.5059.6358,2.832,2.832,0,0,1,.5215,1.8369Z" fill="#1e1e1e"/>
      <path d="M168.2539,181.3791H167.27v-8.4024h.9844Z" fill="#1e1e1e"/>
      <path d="M171.4473,178.2033v3.1758h-.9844v-8.4024h2.3086a3.0474,3.0474,0,0,1,2.0889.6563,2.3432,2.3432,0,0,1,.7412,1.8515,2.5468,2.5468,0,0,1-.8233,1.9571,3.1454,3.1454,0,0,1-2.2236.7617Zm0-4.3359v3.4453h1.0312a2.3054,2.3054,0,0,0,1.5557-.4659,1.6491,1.6491,0,0,0,.5361-1.3154q0-1.6641-1.9687-1.664Z" fill="#1e1e1e"/>
      <path d="M93.4355,192.1882a1.4513,1.4513,0,0,1-1.0488-.4278,1.3932,1.3932,0,0,1-.4394-1.0371,1.5057,1.5057,0,0,1,1.4882-1.4883,1.3936,1.3936,0,0,1,1.0372.4395,1.4515,1.4515,0,0,1,.4277,1.0488,1.46,1.46,0,0,1-1.4649,1.4649Z" fill="#1e1e1e"/>
      <path d="M103.5371,194.5788v-8.4024h2.32q4.4415,0,4.4414,4.0957a4.1272,4.1272,0,0,1-1.2334,3.126,4.5752,4.5752,0,0,1-3.3017,1.1807Zm.9844-7.5117v6.6211h1.2539a3.5589,3.5589,0,0,0,2.5723-.8848,3.3171,3.3171,0,0,0,.92-2.5078q0-3.2286-3.4336-3.2285Z" fill="#1e1e1e"/>
      <path d="M116.6445,191.819h-4.2363a2.2439,2.2439,0,0,0,.5391,1.5469,1.8581,1.8581,0,0,0,1.4179.5449,2.9476,2.9476,0,0,0,1.8633-.668v.9024a3.4824,3.4824,0,0,1-2.0918.5742,2.5359,2.5359,0,0,1-1.998-.8174,3.3454,3.3454,0,0,1-.7266-2.3,3.2808,3.2808,0,0,1,.794-2.2822,2.5456,2.5456,0,0,1,1.9716-.8818A2.2558,2.2558,0,0,1,116,189.2a3.1757,3.1757,0,0,1,.6445,2.1152Zm-.9843-.8144a1.9557,1.9557,0,0,0-.4014-1.295,1.3675,1.3675,0,0,0-1.0986-.4629,1.5523,1.5523,0,0,0-1.1543.4864,2.2068,2.2068,0,0,0-.586,1.2715Z" fill="#1e1e1e"/>
      <path d="M117.7344,194.362v-1.0313a2.8438,2.8438,0,0,0,1.7285.58q1.2656,0,1.2656-.8437a.7321.7321,0,0,0-.1084-.4073,1.08,1.08,0,0,0-.293-.2959,2.252,2.252,0,0,0-.4335-.2314q-.2492-.1026-.5362-.2139a6.9,6.9,0,0,1-.7-.3193,2.1159,2.1159,0,0,1-.5039-.3633,1.3536,1.3536,0,0,1-.3047-.46,1.628,1.628,0,0,1-.1025-.6035,1.4326,1.4326,0,0,1,.1934-.747,1.7142,1.7142,0,0,1,.5156-.545,2.405,2.405,0,0,1,.7353-.331,3.2629,3.2629,0,0,1,.8526-.1113,3.4423,3.4423,0,0,1,1.3945.2695v.9726a2.7181,2.7181,0,0,0-1.5234-.4336,1.7821,1.7821,0,0,0-.4864.0616,1.19,1.19,0,0,0-.372.1728.7985.7985,0,0,0-.24.2666.7027.7027,0,0,0-.0849.3428.8229.8229,0,0,0,.0849.3926.8651.8651,0,0,0,.2491.2812,1.8965,1.8965,0,0,0,.3984.2227q.2343.1.5332.2168a7.3835,7.3835,0,0,1,.7148.3135,2.451,2.451,0,0,1,.5391.3632,1.4209,1.4209,0,0,1,.3428.4659,1.5015,1.5015,0,0,1,.12.6269,1.4775,1.4775,0,0,1-.1963.7734,1.6836,1.6836,0,0,1-.5244.545,2.4025,2.4025,0,0,1-.7559.3222,3.7325,3.7325,0,0,1-.8965.1055A3.4038,3.4038,0,0,1,117.7344,194.362Z" fill="#1e1e1e"/>
      <path d="M125.9727,194.52a1.8529,1.8529,0,0,1-.8965.1875q-1.5762,0-1.5762-1.7578v-3.5508h-1.0313v-.82H123.5v-1.4649l.9609-.31v1.7754h1.5118v.82h-1.5118V192.78a1.4018,1.4018,0,0,0,.2051.8614.8183.8183,0,0,0,.68.2578,1.01,1.01,0,0,0,.627-.1992Z" fill="#1e1e1e"/>
      <path d="M127.748,187.0553a.6091.6091,0,0,1-.4394-.1757.5934.5934,0,0,1-.1816-.4454.6153.6153,0,0,1,.621-.6269.6209.6209,0,0,1,.4483.1787.6259.6259,0,0,1,0,.8877A.6154.6154,0,0,1,127.748,187.0553Zm.4688,7.5235h-.9609v-6h.9609Z" fill="#1e1e1e"/>
      <path d="M135.1426,194.5788h-.961v-3.4219q0-1.91-1.3945-1.91a1.5128,1.5128,0,0,0-1.1924.542,2.0094,2.0094,0,0,0-.4717,1.3682v3.4219h-.9609v-6h.9609v.9961h.0235a2.1655,2.1655,0,0,1,1.9687-1.1367,1.8358,1.8358,0,0,1,1.5059.6357,2.832,2.832,0,0,1,.5215,1.8369Z" fill="#1e1e1e"/>
      <path d="M141.248,194.5788h-.9609v-.9375h-.0234a2.0118,2.0118,0,0,1-1.8457,1.0781,1.9727,1.9727,0,0,1-1.4034-.4746,1.6446,1.6446,0,0,1-.5068-1.26q0-1.6817,1.9805-1.957l1.7988-.252q0-1.5293-1.2363-1.5293a2.9539,2.9539,0,0,0-1.9571.7383v-.9843a3.7186,3.7186,0,0,1,2.0391-.5625q2.1153,0,2.1152,2.2382Zm-.9609-3.0352-1.4473.1992a2.35,2.35,0,0,0-1.0078.3311.9549.9549,0,0,0-.34.8408.9159.9159,0,0,0,.3135.7178,1.2113,1.2113,0,0,0,.8349.2783,1.5424,1.5424,0,0,0,1.1807-.501,1.79,1.79,0,0,0,.4658-1.2685Z" fill="#1e1e1e"/>
      <path d="M145.8418,194.52a1.8529,1.8529,0,0,1-.8965.1875q-1.5762,0-1.5762-1.7578v-3.5508h-1.0312v-.82h1.0312v-1.4649l.961-.31v1.7754h1.5117v.82H144.33V192.78a1.4012,1.4012,0,0,0,.2051.8614.8181.8181,0,0,0,.68.2578,1.01,1.01,0,0,0,.627-.1992Z" fill="#1e1e1e"/>
      <path d="M147.6172,187.0553a.6092.6092,0,0,1-.44-.1757.5934.5934,0,0,1-.1816-.4454.6153.6153,0,0,1,.6211-.6269.62.62,0,0,1,.4482.1787.6259.6259,0,0,1,0,.8877A.615.615,0,0,1,147.6172,187.0553Zm.4687,7.5235h-.9609v-6h.9609Z" fill="#1e1e1e"/>
      <path d="M152.5391,194.7194a2.7833,2.7833,0,0,1-2.1241-.8408,3.1145,3.1145,0,0,1-.7939-2.23,3.2443,3.2443,0,0,1,.8262-2.3613,2.97,2.97,0,0,1,2.2324-.85,2.6908,2.6908,0,0,1,2.0947.8261,3.2757,3.2757,0,0,1,.7529,2.291,3.2232,3.2232,0,0,1-.8115,2.3A2.8434,2.8434,0,0,1,152.5391,194.7194Zm.07-5.4727a1.828,1.828,0,0,0-1.4649.63,2.5876,2.5876,0,0,0-.539,1.7373,2.4466,2.4466,0,0,0,.5449,1.6817,1.8521,1.8521,0,0,0,1.459.6152,1.7568,1.7568,0,0,0,1.4326-.6035,2.619,2.619,0,0,0,.501-1.7168,2.664,2.664,0,0,0-.501-1.7344A1.7491,1.7491,0,0,0,152.6094,189.2467Z" fill="#1e1e1e"/>
      <path d="M162.043,194.5788h-.961v-3.4219q0-1.91-1.3945-1.91a1.5128,1.5128,0,0,0-1.1924.542,2.0094,2.0094,0,0,0-.4717,1.3682v3.4219h-.9609v-6h.9609v.9961h.0235a2.1654,2.1654,0,0,1,1.9687-1.1367,1.8358,1.8358,0,0,1,1.5059.6357,2.832,2.832,0,0,1,.5215,1.8369Z" fill="#1e1e1e"/>
      <path d="M168.2539,191.403v3.1758H167.27v-8.4024h2.3086a3.047,3.047,0,0,1,2.0889.6563,2.3432,2.3432,0,0,1,.7412,1.8515,2.5467,2.5467,0,0,1-.8232,1.9571,3.1458,3.1458,0,0,1-2.2237.7617Zm0-4.3359v3.4453h1.0313a2.3058,2.3058,0,0,0,1.5556-.4658,1.65,1.65,0,0,0,.5362-1.3155q0-1.6641-1.9688-1.664Z" fill="#1e1e1e"/>
      <path d="M175.9238,194.7194a2.7832,2.7832,0,0,1-2.124-.8408,3.1145,3.1145,0,0,1-.7939-2.23,3.2443,3.2443,0,0,1,.8261-2.3613,2.97,2.97,0,0,1,2.2325-.85,2.691,2.691,0,0,1,2.0947.8261,3.2761,3.2761,0,0,1,.7529,2.291,3.2232,3.2232,0,0,1-.8115,2.3A2.8435,2.8435,0,0,1,175.9238,194.7194Zm.07-5.4727a1.8279,1.8279,0,0,0-1.4648.63,2.5871,2.5871,0,0,0-.5391,1.7373,2.4466,2.4466,0,0,0,.545,1.6817,1.8519,1.8519,0,0,0,1.4589.6152,1.757,1.757,0,0,0,1.4327-.6035,2.62,2.62,0,0,0,.5009-1.7168,2.6645,2.6645,0,0,0-.5009-1.7344A1.7493,1.7493,0,0,0,175.9941,189.2467Z" fill="#1e1e1e"/>
      <path d="M183.5762,189.5514a1.1753,1.1753,0,0,0-.7266-.1933,1.2262,1.2262,0,0,0-1.0283.58,2.6816,2.6816,0,0,0-.4131,1.582v3.0586h-.9609v-6h.9609v1.2363h.0234a2.0951,2.0951,0,0,1,.627-.9873,1.43,1.43,0,0,1,.9434-.3545,1.5706,1.5706,0,0,1,.5742.082Z" fill="#1e1e1e"/>
      <path d="M187.4023,194.52a1.8522,1.8522,0,0,1-.8964.1875q-1.5762,0-1.5762-1.7578v-3.5508h-1.0313v-.82H184.93v-1.4649l.9609-.31v1.7754h1.5117v.82h-1.5117V192.78a1.4018,1.4018,0,0,0,.2051.8614.8183.8183,0,0,0,.68.2578,1.01,1.01,0,0,0,.6269-.1992Z" fill="#1e1e1e"/>
      <path d="M93.4355,205.3883a1.4512,1.4512,0,0,1-1.0488-.4277,1.3932,1.3932,0,0,1-.4394-1.0371,1.5057,1.5057,0,0,1,1.4882-1.4883,1.3936,1.3936,0,0,1,1.0372.4395,1.4515,1.4515,0,0,1,.4277,1.0488,1.46,1.46,0,0,1-1.4649,1.4648Z" fill="#1e1e1e"/>
      <path d="M104.5215,204.6032v3.1758h-.9844v-8.4024h2.3086a3.0474,3.0474,0,0,1,2.0889.6563,2.3432,2.3432,0,0,1,.7412,1.8515,2.5464,2.5464,0,0,1-.8233,1.9571,3.1454,3.1454,0,0,1-2.2236.7617Zm0-4.3359v3.4453h1.0312a2.3054,2.3054,0,0,0,1.5557-.4659,1.6491,1.6491,0,0,0,.5361-1.3154q0-1.6641-1.9687-1.664Z" fill="#1e1e1e"/>
      <path d="M113.2578,202.7516a1.1751,1.1751,0,0,0-.7266-.1933,1.2263,1.2263,0,0,0-1.0283.58,2.6822,2.6822,0,0,0-.4131,1.5821v3.0586h-.9609v-6h.9609v1.2363h.0235a2.095,2.095,0,0,1,.6269-.9873,1.43,1.43,0,0,1,.9434-.3545,1.5684,1.5684,0,0,1,.5742.082Z" fill="#1e1e1e"/>
      <path d="M116.8086,207.92a2.7832,2.7832,0,0,1-2.124-.8408,3.1145,3.1145,0,0,1-.794-2.23,3.2443,3.2443,0,0,1,.8262-2.3613,2.97,2.97,0,0,1,2.2324-.85,2.6909,2.6909,0,0,1,2.0947.8262,3.2757,3.2757,0,0,1,.753,2.291,3.2232,3.2232,0,0,1-.8115,2.3A2.8438,2.8438,0,0,1,116.8086,207.92Zm.07-5.4727a1.8276,1.8276,0,0,0-1.4648.63,2.5867,2.5867,0,0,0-.5391,1.7373,2.4466,2.4466,0,0,0,.5449,1.6817,1.8521,1.8521,0,0,0,1.459.6152,1.7568,1.7568,0,0,0,1.4326-.6035,2.619,2.619,0,0,0,.501-1.7168,2.664,2.664,0,0,0-.501-1.7344A1.7491,1.7491,0,0,0,116.8789,202.4469Z" fill="#1e1e1e"/>
      <path d="M124.1152,207.72a1.8526,1.8526,0,0,1-.8965.1875q-1.576,0-1.5761-1.7578v-3.5508h-1.0313v-.82h1.0313v-1.4649l.9609-.31v1.7754h1.5117v.82h-1.5117V205.98a1.4018,1.4018,0,0,0,.2051.8614.8186.8186,0,0,0,.68.2578,1.01,1.01,0,0,0,.6269-.1992Z" fill="#1e1e1e"/>
      <path d="M127.9062,207.92a2.7832,2.7832,0,0,1-2.124-.8408,3.1145,3.1145,0,0,1-.7939-2.23,3.2443,3.2443,0,0,1,.8262-2.3613,2.97,2.97,0,0,1,2.2324-.85,2.691,2.691,0,0,1,2.0947.8262,3.2757,3.2757,0,0,1,.7529,2.291,3.2232,3.2232,0,0,1-.8115,2.3A2.8435,2.8435,0,0,1,127.9062,207.92Zm.07-5.4727a1.828,1.828,0,0,0-1.4649.63,2.5867,2.5867,0,0,0-.539,1.7373,2.4466,2.4466,0,0,0,.5449,1.6817,1.8521,1.8521,0,0,0,1.459.6152,1.7568,1.7568,0,0,0,1.4326-.6035,2.619,2.619,0,0,0,.501-1.7168,2.664,2.664,0,0,0-.501-1.7344A1.7491,1.7491,0,0,0,127.9766,202.4469Z" fill="#1e1e1e"/>
      <path d="M136.52,207.5036a3.1226,3.1226,0,0,1-1.6406.416,2.7161,2.7161,0,0,1-2.0713-.835,3.0258,3.0258,0,0,1-.7881-2.165,3.3263,3.3263,0,0,1,.85-2.3818,2.9723,2.9723,0,0,1,2.2676-.9,3.1561,3.1561,0,0,1,1.3945.293v.9844a2.4431,2.4431,0,0,0-1.43-.4688,1.9323,1.9323,0,0,0-1.5088.6592,2.5014,2.5014,0,0,0-.5889,1.7315,2.3816,2.3816,0,0,0,.5537,1.664,1.9085,1.9085,0,0,0,1.4854.6094,2.4079,2.4079,0,0,0,1.4765-.5215Z" fill="#1e1e1e"/>
      <path d="M140.4805,207.92a2.7833,2.7833,0,0,1-2.1241-.8408,3.1145,3.1145,0,0,1-.7939-2.23,3.2443,3.2443,0,0,1,.8262-2.3613,2.97,2.97,0,0,1,2.2324-.85,2.6909,2.6909,0,0,1,2.0947.8262,3.2757,3.2757,0,0,1,.7529,2.291,3.2232,3.2232,0,0,1-.8115,2.3A2.8434,2.8434,0,0,1,140.4805,207.92Zm.07-5.4727a1.828,1.828,0,0,0-1.4649.63,2.5872,2.5872,0,0,0-.539,1.7373,2.4466,2.4466,0,0,0,.5449,1.6817,1.8521,1.8521,0,0,0,1.459.6152,1.7568,1.7568,0,0,0,1.4326-.6035,2.619,2.619,0,0,0,.501-1.7168,2.664,2.664,0,0,0-.501-1.7344A1.7491,1.7491,0,0,0,140.5508,202.4469Z" fill="#1e1e1e"/>
      <path d="M145.9648,207.779h-.9609v-8.8828h.9609Z" fill="#1e1e1e"/>
    </g>
    <g>
      <path d="M275.3223,49.6315l-3.1114,8.4024H271.127L268.08,49.6315h1.0957l2.3262,6.6621a3.9609,3.9609,0,0,1,.17.7442h.0234a3.65,3.65,0,0,1,.1934-.7559l2.373-6.65Z" fill="#1e1e1e"/>
      <path d="M285.0957,58.0339h-.9785V52.3971q0-.668.082-1.6347h-.0234a5.23,5.23,0,0,1-.252.8144l-2.8711,6.4571h-.48l-2.8653-6.41a5.0224,5.0224,0,0,1-.2519-.8613h-.0235q.0469.5038.0469,1.6465v5.625h-.9492V49.6315H277.83l2.5781,5.8594a7.5019,7.5019,0,0,1,.3867,1.0078h.0352q.2518-.6913.4043-1.0313l2.6308-5.8359h1.2305Z" fill="#1e1e1e"/>
    </g>
    <g>
      <path d="M237.5723,35.22v3.1758h-.9844V29.9938h2.3086a3.0474,3.0474,0,0,1,2.0889.6563,2.3432,2.3432,0,0,1,.7412,1.8515,2.5469,2.5469,0,0,1-.8233,1.9571,3.1454,3.1454,0,0,1-2.2236.7617Zm0-4.336V34.33h1.0312a2.3054,2.3054,0,0,0,1.5557-.4659,1.6491,1.6491,0,0,0,.5361-1.3154q0-1.6641-1.9687-1.6641Z" fill="#1e1e1e"/>
      <path d="M246.3086,33.3688a1.1753,1.1753,0,0,0-.7266-.1933,1.2263,1.2263,0,0,0-1.0283.58,2.6822,2.6822,0,0,0-.4131,1.5821v3.0586H243.18v-6h.9609v1.2363h.0235a2.095,2.095,0,0,1,.6269-.9873,1.43,1.43,0,0,1,.9434-.3545,1.5684,1.5684,0,0,1,.5742.082Z" fill="#1e1e1e"/>
      <path d="M247.8437,30.8727a.6088.6088,0,0,1-.4394-.1758.5931.5931,0,0,1-.1816-.4453.6153.6153,0,0,1,.621-.6269.62.62,0,0,1,.4483.1787.6259.6259,0,0,1,0,.8877A.6154.6154,0,0,1,247.8437,30.8727Zm.4688,7.5235h-.9609v-6h.9609Z" fill="#1e1e1e"/>
      <path d="M254.9746,32.3962l-2.3906,6h-.9434l-2.2734-6h1.0547l1.5234,4.3593a3.9083,3.9083,0,0,1,.2109.8379h.0235a3.9534,3.9534,0,0,1,.1875-.8144l1.5937-4.3828Z" fill="#1e1e1e"/>
      <path d="M260.3008,38.3962h-.961v-.9375h-.0234a2.0118,2.0118,0,0,1-1.8457,1.0781,1.9724,1.9724,0,0,1-1.4033-.4746,1.6445,1.6445,0,0,1-.5069-1.26q0-1.6816,1.9805-1.957l1.7988-.252q0-1.5293-1.2363-1.5293a2.9537,2.9537,0,0,0-1.957.7383V32.818a3.7181,3.7181,0,0,1,2.039-.5625q2.1153,0,2.1153,2.2383Zm-.961-3.0352-1.4472.1992a2.3494,2.3494,0,0,0-1.0078.3311.9547.9547,0,0,0-.34.8408.9159.9159,0,0,0,.3135.7178,1.2116,1.2116,0,0,0,.835.2783,1.5422,1.5422,0,0,0,1.1806-.501,1.79,1.79,0,0,0,.4658-1.2685Z" fill="#1e1e1e"/>
      <path d="M264.8945,38.3376a1.8526,1.8526,0,0,1-.8965.1875q-1.5761,0-1.5761-1.7578V33.2165h-1.0313v-.82h1.0313V30.9313l.9609-.3105v1.7754h1.5117v.82h-1.5117v3.3808a1.4018,1.4018,0,0,0,.2051.8614.8186.8186,0,0,0,.68.2578,1.01,1.01,0,0,0,.6269-.1992Z" fill="#1e1e1e"/>
      <path d="M271,35.6364h-4.2363a2.2443,2.2443,0,0,0,.539,1.5469,1.8583,1.8583,0,0,0,1.418.5449,2.9482,2.9482,0,0,0,1.8633-.668v.9024a3.4826,3.4826,0,0,1-2.0918.5742,2.5361,2.5361,0,0,1-1.9981-.8174,3.3458,3.3458,0,0,1-.7265-2.3,3.2808,3.2808,0,0,1,.7939-2.2822,2.5457,2.5457,0,0,1,1.9717-.8819,2.2555,2.2555,0,0,1,1.8223.7618A3.1756,3.1756,0,0,1,271,35.1325Zm-.9844-.8145a1.9556,1.9556,0,0,0-.4013-1.2949,1.3676,1.3676,0,0,0-1.0987-.4629,1.5521,1.5521,0,0,0-1.1543.4864,2.2067,2.2067,0,0,0-.5859,1.2714Z" fill="#1e1e1e"/>
      <path d="M276.8535,38.3962h-.9844V29.9938h.9844Z" fill="#1e1e1e"/>
      <path d="M280.0469,35.22v3.1758h-.9844V29.9938h2.3086a3.0474,3.0474,0,0,1,2.0889.6563,2.3432,2.3432,0,0,1,.7412,1.8515,2.5466,2.5466,0,0,1-.8233,1.9571,3.1454,3.1454,0,0,1-2.2236.7617Zm0-4.336V34.33h1.0312a2.3054,2.3054,0,0,0,1.5557-.4659,1.6491,1.6491,0,0,0,.5361-1.3154q0-1.6641-1.9687-1.6641Z" fill="#1e1e1e"/>
      <path d="M286.5332,37.06l-.9375,2.8828H284.91l.6855-2.8828Z" fill="#1e1e1e"/>
      <path d="M292.5273,37.529h-.0234v3.6269h-.9609v-8.76h.9609v1.0546h.0234a2.2725,2.2725,0,0,1,2.0743-1.1953,2.1972,2.1972,0,0,1,1.81.8057,3.3369,3.3369,0,0,1,.65,2.1592,3.7187,3.7187,0,0,1-.7324,2.4111,2.4387,2.4387,0,0,1-2.0039.9053A2.0076,2.0076,0,0,1,292.5273,37.529Zm-.0234-2.42v.8378a1.7838,1.7838,0,0,0,.4834,1.2627,1.7244,1.7244,0,0,0,2.5957-.1494,3.0642,3.0642,0,0,0,.4951-1.8574,2.4189,2.4189,0,0,0-.4629-1.57,1.5319,1.5319,0,0,0-1.2539-.5684,1.7026,1.7026,0,0,0-1.3476.583A2.1406,2.1406,0,0,0,292.5039,35.1091Z" fill="#1e1e1e"/>
      <path d="M301.1055,38.5368a2.7833,2.7833,0,0,1-2.1241-.8408,3.1145,3.1145,0,0,1-.7939-2.2295,3.2447,3.2447,0,0,1,.8262-2.3614,2.97,2.97,0,0,1,2.2324-.85,2.6909,2.6909,0,0,1,2.0947.8262,3.2757,3.2757,0,0,1,.7529,2.291,3.2232,3.2232,0,0,1-.8115,2.3A2.8434,2.8434,0,0,1,301.1055,38.5368Zm.07-5.4727a1.828,1.828,0,0,0-1.4649.63,2.5872,2.5872,0,0,0-.539,1.7373,2.4466,2.4466,0,0,0,.5449,1.6817,1.8521,1.8521,0,0,0,1.459.6152,1.7568,1.7568,0,0,0,1.4326-.6035,2.619,2.619,0,0,0,.501-1.7168,2.664,2.664,0,0,0-.501-1.7344A1.7491,1.7491,0,0,0,301.1758,33.0641Z" fill="#1e1e1e"/>
      <path d="M308.7578,33.3688a1.1751,1.1751,0,0,0-.7266-.1933,1.2263,1.2263,0,0,0-1.0283.58,2.6822,2.6822,0,0,0-.4131,1.5821v3.0586h-.9609v-6h.9609v1.2363h.0235a2.095,2.095,0,0,1,.6269-.9873,1.43,1.43,0,0,1,.9434-.3545,1.5684,1.5684,0,0,1,.5742.082Z" fill="#1e1e1e"/>
      <path d="M312.584,38.3376a1.8529,1.8529,0,0,1-.8965.1875q-1.5762,0-1.5762-1.7578V33.2165H309.08v-.82h1.0312V30.9313l.961-.3105v1.7754h1.5117v.82h-1.5117v3.3808a1.4019,1.4019,0,0,0,.205.8614.8187.8187,0,0,0,.68.2578,1.01,1.01,0,0,0,.627-.1992Z" fill="#1e1e1e"/>
    </g>
    <g>
      <path d="M275.3223,103.6315l-3.1114,8.4024H271.127l-3.0469-8.4024h1.0957l2.3262,6.6621a3.9609,3.9609,0,0,1,.17.7442h.0234a3.65,3.65,0,0,1,.1934-.7559l2.373-6.65Z" fill="#1e1e1e"/>
      <path d="M285.0957,112.0339h-.9785v-5.6368q0-.6679.082-1.6347h-.0234a5.23,5.23,0,0,1-.252.8144l-2.8711,6.4571h-.48l-2.8653-6.41a5.0224,5.0224,0,0,1-.2519-.8613h-.0235q.0469.5038.0469,1.6465v5.625h-.9492v-8.4024H277.83l2.5781,5.8594a7.5019,7.5019,0,0,1,.3867,1.0078h.0352q.2518-.6913.4043-1.0313l2.6308-5.8359h1.2305Z" fill="#1e1e1e"/>
    </g>
    <g>
      <path d="M237.5723,89.22v3.1758h-.9844V83.9938h2.3086a3.0474,3.0474,0,0,1,2.0889.6563,2.3432,2.3432,0,0,1,.7412,1.8515,2.5469,2.5469,0,0,1-.8233,1.9571,3.1454,3.1454,0,0,1-2.2236.7617Zm0-4.336V88.33h1.0312a2.3054,2.3054,0,0,0,1.5557-.4659,1.6491,1.6491,0,0,0,.5361-1.3154q0-1.6641-1.9687-1.6641Z" fill="#1e1e1e"/>
      <path d="M246.3086,87.3688a1.1753,1.1753,0,0,0-.7266-.1933,1.2263,1.2263,0,0,0-1.0283.58,2.6822,2.6822,0,0,0-.4131,1.5821v3.0586H243.18v-6h.9609v1.2363h.0235a2.095,2.095,0,0,1,.6269-.9873,1.43,1.43,0,0,1,.9434-.3545,1.5684,1.5684,0,0,1,.5742.082Z" fill="#1e1e1e"/>
      <path d="M247.8437,84.8727a.6088.6088,0,0,1-.4394-.1758.5931.5931,0,0,1-.1816-.4453.6153.6153,0,0,1,.621-.6269.62.62,0,0,1,.4483.1787.6259.6259,0,0,1,0,.8877A.6154.6154,0,0,1,247.8437,84.8727Zm.4688,7.5235h-.9609v-6h.9609Z" fill="#1e1e1e"/>
      <path d="M254.9746,86.3962l-2.3906,6h-.9434l-2.2734-6h1.0547l1.5234,4.3593a3.9083,3.9083,0,0,1,.2109.8379h.0235a3.9534,3.9534,0,0,1,.1875-.8144l1.5937-4.3828Z" fill="#1e1e1e"/>
      <path d="M260.3008,92.3962h-.961v-.9375h-.0234a2.0118,2.0118,0,0,1-1.8457,1.0781,1.9724,1.9724,0,0,1-1.4033-.4746,1.6445,1.6445,0,0,1-.5069-1.26q0-1.6817,1.9805-1.957l1.7988-.252q0-1.5293-1.2363-1.5293a2.9537,2.9537,0,0,0-1.957.7383V86.818a3.7181,3.7181,0,0,1,2.039-.5625q2.1153,0,2.1153,2.2383Zm-.961-3.0352-1.4472.1992a2.3494,2.3494,0,0,0-1.0078.3311.9547.9547,0,0,0-.34.8408.9159.9159,0,0,0,.3135.7178,1.2116,1.2116,0,0,0,.835.2783,1.5422,1.5422,0,0,0,1.1806-.501,1.79,1.79,0,0,0,.4658-1.2685Z" fill="#1e1e1e"/>
      <path d="M264.8945,92.3376a1.8526,1.8526,0,0,1-.8965.1875q-1.5761,0-1.5761-1.7578V87.2165h-1.0313v-.82h1.0313V84.9313l.9609-.31v1.7754h1.5117v.82h-1.5117v3.3808a1.4018,1.4018,0,0,0,.2051.8614.8186.8186,0,0,0,.68.2578,1.01,1.01,0,0,0,.6269-.1992Z" fill="#1e1e1e"/>
      <path d="M271,89.6364h-4.2363a2.2443,2.2443,0,0,0,.539,1.5469,1.8583,1.8583,0,0,0,1.418.5449,2.9482,2.9482,0,0,0,1.8633-.668v.9024a3.4826,3.4826,0,0,1-2.0918.5742,2.5361,2.5361,0,0,1-1.9981-.8174,3.3458,3.3458,0,0,1-.7265-2.3,3.2808,3.2808,0,0,1,.7939-2.2822,2.5457,2.5457,0,0,1,1.9717-.8819,2.2555,2.2555,0,0,1,1.8223.7618A3.1756,3.1756,0,0,1,271,89.1325Zm-.9844-.8145a1.9556,1.9556,0,0,0-.4013-1.2949,1.3676,1.3676,0,0,0-1.0987-.4629,1.5521,1.5521,0,0,0-1.1543.4864,2.2067,2.2067,0,0,0-.5859,1.2714Z" fill="#1e1e1e"/>
      <path d="M276.8535,92.3962h-.9844V83.9938h.9844Z" fill="#1e1e1e"/>
      <path d="M280.0469,89.22v3.1758h-.9844V83.9938h2.3086a3.0474,3.0474,0,0,1,2.0889.6563,2.3432,2.3432,0,0,1,.7412,1.8515,2.5466,2.5466,0,0,1-.8233,1.9571,3.1454,3.1454,0,0,1-2.2236.7617Zm0-4.336V88.33h1.0312a2.3054,2.3054,0,0,0,1.5557-.4659,1.6491,1.6491,0,0,0,.5361-1.3154q0-1.6641-1.9687-1.6641Z" fill="#1e1e1e"/>
      <path d="M286.5332,91.06l-.9375,2.8828H284.91l.6855-2.8828Z" fill="#1e1e1e"/>
      <path d="M292.5273,91.529h-.0234v3.6269h-.9609v-8.76h.9609v1.0546h.0234a2.2725,2.2725,0,0,1,2.0743-1.1953,2.1972,2.1972,0,0,1,1.81.8057,3.3369,3.3369,0,0,1,.65,2.1592,3.7187,3.7187,0,0,1-.7324,2.4111,2.4387,2.4387,0,0,1-2.0039.9053A2.0076,2.0076,0,0,1,292.5273,91.529Zm-.0234-2.42v.8378a1.7838,1.7838,0,0,0,.4834,1.2627,1.7244,1.7244,0,0,0,2.5957-.1494,3.0642,3.0642,0,0,0,.4951-1.8574,2.4189,2.4189,0,0,0-.4629-1.57,1.5319,1.5319,0,0,0-1.2539-.5684,1.7026,1.7026,0,0,0-1.3476.583A2.1406,2.1406,0,0,0,292.5039,89.1091Z" fill="#1e1e1e"/>
      <path d="M301.1055,92.5368a2.7833,2.7833,0,0,1-2.1241-.8408,3.1145,3.1145,0,0,1-.7939-2.23,3.2447,3.2447,0,0,1,.8262-2.3614,2.97,2.97,0,0,1,2.2324-.85,2.6909,2.6909,0,0,1,2.0947.8262,3.2757,3.2757,0,0,1,.7529,2.291,3.2232,3.2232,0,0,1-.8115,2.3A2.8434,2.8434,0,0,1,301.1055,92.5368Zm.07-5.4727a1.828,1.828,0,0,0-1.4649.63,2.5872,2.5872,0,0,0-.539,1.7373,2.4466,2.4466,0,0,0,.5449,1.6817,1.8521,1.8521,0,0,0,1.459.6152,1.7568,1.7568,0,0,0,1.4326-.6035,2.619,2.619,0,0,0,.501-1.7168,2.664,2.664,0,0,0-.501-1.7344A1.7491,1.7491,0,0,0,301.1758,87.0641Z" fill="#1e1e1e"/>
      <path d="M308.7578,87.3688a1.1751,1.1751,0,0,0-.7266-.1933,1.2263,1.2263,0,0,0-1.0283.58,2.6822,2.6822,0,0,0-.4131,1.5821v3.0586h-.9609v-6h.9609v1.2363h.0235a2.095,2.095,0,0,1,.6269-.9873,1.43,1.43,0,0,1,.9434-.3545,1.5684,1.5684,0,0,1,.5742.082Z" fill="#1e1e1e"/>
      <path d="M312.584,92.3376a1.8529,1.8529,0,0,1-.8965.1875q-1.5762,0-1.5762-1.7578V87.2165H309.08v-.82h1.0312V84.9313l.961-.31v1.7754h1.5117v.82h-1.5117v3.3808a1.4019,1.4019,0,0,0,.205.8614.8187.8187,0,0,0,.68.2578,1.01,1.01,0,0,0,.627-.1992Z" fill="#1e1e1e"/>
    </g>
    <g>
      <path d="M275.3223,162.1315l-3.1114,8.4024H271.127l-3.0469-8.4024h1.0957l2.3262,6.6621a3.9609,3.9609,0,0,1,.17.7442h.0234a3.65,3.65,0,0,1,.1934-.7559l2.373-6.65Z" fill="#1e1e1e"/>
      <path d="M285.0957,170.5339h-.9785v-5.6368q0-.6679.082-1.6347h-.0234a5.23,5.23,0,0,1-.252.8144l-2.8711,6.4571h-.48l-2.8653-6.41a5.0224,5.0224,0,0,1-.2519-.8613h-.0235q.0469.5038.0469,1.6465v5.625h-.9492v-8.4024H277.83l2.5781,5.8594a7.5019,7.5019,0,0,1,.3867,1.0078h.0352q.2518-.6914.4043-1.0313l2.6308-5.8359h1.2305Z" fill="#1e1e1e"/>
    </g>
    <g>
      <path d="M237.5723,147.72v3.1758h-.9844v-8.4024h2.3086a3.0474,3.0474,0,0,1,2.0889.6563,2.3432,2.3432,0,0,1,.7412,1.8515,2.5469,2.5469,0,0,1-.8233,1.9571,3.1454,3.1454,0,0,1-2.2236.7617Zm0-4.336V146.83h1.0312a2.3054,2.3054,0,0,0,1.5557-.4659,1.6491,1.6491,0,0,0,.5361-1.3154q0-1.6641-1.9687-1.6641Z" fill="#1e1e1e"/>
      <path d="M246.3086,145.8688a1.1753,1.1753,0,0,0-.7266-.1933,1.2263,1.2263,0,0,0-1.0283.58,2.6822,2.6822,0,0,0-.4131,1.5821v3.0586H243.18v-6h.9609v1.2363h.0235a2.095,2.095,0,0,1,.6269-.9873,1.43,1.43,0,0,1,.9434-.3545,1.5684,1.5684,0,0,1,.5742.082Z" fill="#1e1e1e"/>
      <path d="M247.8437,143.3727a.6088.6088,0,0,1-.4394-.1758.5931.5931,0,0,1-.1816-.4453.6153.6153,0,0,1,.621-.6269.62.62,0,0,1,.4483.1787.6259.6259,0,0,1,0,.8877A.6154.6154,0,0,1,247.8437,143.3727Zm.4688,7.5235h-.9609v-6h.9609Z" fill="#1e1e1e"/>
      <path d="M254.9746,144.8962l-2.3906,6h-.9434l-2.2734-6h1.0547l1.5234,4.3593a3.9083,3.9083,0,0,1,.2109.8379h.0235a3.9534,3.9534,0,0,1,.1875-.8144l1.5937-4.3828Z" fill="#1e1e1e"/>
      <path d="M260.3008,150.8962h-.961v-.9375h-.0234a2.0118,2.0118,0,0,1-1.8457,1.0781,1.9724,1.9724,0,0,1-1.4033-.4746,1.6445,1.6445,0,0,1-.5069-1.26q0-1.6817,1.9805-1.957l1.7988-.252q0-1.5292-1.2363-1.5293a2.9537,2.9537,0,0,0-1.957.7383v-.9844a3.7181,3.7181,0,0,1,2.039-.5625q2.1153,0,2.1153,2.2383Zm-.961-3.0352-1.4472.1992a2.3494,2.3494,0,0,0-1.0078.3311.9547.9547,0,0,0-.34.8408.9159.9159,0,0,0,.3135.7178,1.2116,1.2116,0,0,0,.835.2783,1.5422,1.5422,0,0,0,1.1806-.501,1.79,1.79,0,0,0,.4658-1.2685Z" fill="#1e1e1e"/>
      <path d="M264.8945,150.8376a1.8526,1.8526,0,0,1-.8965.1875q-1.5761,0-1.5761-1.7578v-3.5508h-1.0313v-.82h1.0313v-1.4649l.9609-.31v1.7754h1.5117v.82h-1.5117v3.3808a1.4018,1.4018,0,0,0,.2051.8614.8186.8186,0,0,0,.68.2578,1.01,1.01,0,0,0,.6269-.1992Z" fill="#1e1e1e"/>
      <path d="M271,148.1364h-4.2363a2.2443,2.2443,0,0,0,.539,1.5469,1.8583,1.8583,0,0,0,1.418.5449,2.9482,2.9482,0,0,0,1.8633-.668v.9024a3.4826,3.4826,0,0,1-2.0918.5742,2.5361,2.5361,0,0,1-1.9981-.8174,3.3458,3.3458,0,0,1-.7265-2.3,3.2808,3.2808,0,0,1,.7939-2.2822,2.5457,2.5457,0,0,1,1.9717-.8819,2.2555,2.2555,0,0,1,1.8223.7618A3.1756,3.1756,0,0,1,271,147.6325Zm-.9844-.8145a1.9556,1.9556,0,0,0-.4013-1.2949,1.3676,1.3676,0,0,0-1.0987-.4629,1.5521,1.5521,0,0,0-1.1543.4864,2.2067,2.2067,0,0,0-.5859,1.2714Z" fill="#1e1e1e"/>
      <path d="M276.8535,150.8962h-.9844v-8.4024h.9844Z" fill="#1e1e1e"/>
      <path d="M280.0469,147.72v3.1758h-.9844v-8.4024h2.3086a3.0474,3.0474,0,0,1,2.0889.6563,2.3432,2.3432,0,0,1,.7412,1.8515,2.5466,2.5466,0,0,1-.8233,1.9571,3.1454,3.1454,0,0,1-2.2236.7617Zm0-4.336V146.83h1.0312a2.3054,2.3054,0,0,0,1.5557-.4659,1.6491,1.6491,0,0,0,.5361-1.3154q0-1.6641-1.9687-1.6641Z" fill="#1e1e1e"/>
      <path d="M286.5332,149.56l-.9375,2.8828H284.91l.6855-2.8828Z" fill="#1e1e1e"/>
      <path d="M292.5273,150.029h-.0234v3.6269h-.9609v-8.76h.9609v1.0546h.0234a2.2725,2.2725,0,0,1,2.0743-1.1953,2.1972,2.1972,0,0,1,1.81.8057,3.3369,3.3369,0,0,1,.65,2.1592,3.7187,3.7187,0,0,1-.7324,2.4111,2.4387,2.4387,0,0,1-2.0039.9053A2.0076,2.0076,0,0,1,292.5273,150.029Zm-.0234-2.42v.8378a1.7838,1.7838,0,0,0,.4834,1.2627,1.7244,1.7244,0,0,0,2.5957-.1494,3.0642,3.0642,0,0,0,.4951-1.8574,2.4189,2.4189,0,0,0-.4629-1.57,1.5319,1.5319,0,0,0-1.2539-.5684,1.7026,1.7026,0,0,0-1.3476.583A2.1406,2.1406,0,0,0,292.5039,147.6091Z" fill="#1e1e1e"/>
      <path d="M301.1055,151.0368a2.7833,2.7833,0,0,1-2.1241-.8408,3.1145,3.1145,0,0,1-.7939-2.23,3.2447,3.2447,0,0,1,.8262-2.3614,2.97,2.97,0,0,1,2.2324-.85,2.6909,2.6909,0,0,1,2.0947.8262,3.2757,3.2757,0,0,1,.7529,2.291,3.2232,3.2232,0,0,1-.8115,2.3A2.8434,2.8434,0,0,1,301.1055,151.0368Zm.07-5.4727a1.828,1.828,0,0,0-1.4649.63,2.5872,2.5872,0,0,0-.539,1.7373,2.4466,2.4466,0,0,0,.5449,1.6817,1.8521,1.8521,0,0,0,1.459.6152,1.7568,1.7568,0,0,0,1.4326-.6035,2.619,2.619,0,0,0,.501-1.7168,2.664,2.664,0,0,0-.501-1.7344A1.7491,1.7491,0,0,0,301.1758,145.5641Z" fill="#1e1e1e"/>
      <path d="M308.7578,145.8688a1.1751,1.1751,0,0,0-.7266-.1933,1.2263,1.2263,0,0,0-1.0283.58,2.6822,2.6822,0,0,0-.4131,1.5821v3.0586h-.9609v-6h.9609v1.2363h.0235a2.095,2.095,0,0,1,.6269-.9873,1.43,1.43,0,0,1,.9434-.3545,1.5684,1.5684,0,0,1,.5742.082Z" fill="#1e1e1e"/>
      <path d="M312.584,150.8376a1.8529,1.8529,0,0,1-.8965.1875q-1.5762,0-1.5762-1.7578v-3.5508H309.08v-.82h1.0312v-1.4649l.961-.31v1.7754h1.5117v.82h-1.5117v3.3808a1.4019,1.4019,0,0,0,.205.8614.8187.8187,0,0,0,.68.2578,1.01,1.01,0,0,0,.627-.1992Z" fill="#1e1e1e"/>
    </g>
  </g>
</svg>
