<svg xmlns="http://www.w3.org/2000/svg" xmlns:xlink="http://www.w3.org/1999/xlink" viewBox="0 0 240.5 395.4739">
  <defs>
    <linearGradient id="linear-gradient" x1="21.9505" y1="153.2182" x2="24.3193" y2="150.8494" gradientTransform="matrix(1, -0.0014, -0.0014, -1, 2.9478, 521.7123)" gradientUnits="userSpaceOnUse">
      <stop offset="0" stop-color="#86d633"/>
      <stop offset="0.24" stop-color="#83d232"/>
      <stop offset="0.5" stop-color="#7cc52f"/>
      <stop offset="0.76" stop-color="#6fb02a"/>
      <stop offset="1" stop-color="#5e9624"/>
    </linearGradient>
    <linearGradient id="linear-gradient-2" x1="16.608" y1="153.2183" x2="18.9616" y2="150.8502" xlink:href="#linear-gradient"/>
    <linearGradient id="linear-gradient-3" x1="11.269" y1="153.222" x2="13.6227" y2="150.8539" xlink:href="#linear-gradient"/>
    <linearGradient id="linear-gradient-4" x1="149.1436" y1="526.7061" x2="149.1436" y2="490.942" gradientTransform="matrix(1, 0, 0, -1, 0, 522.6073)" gradientUnits="userSpaceOnUse">
      <stop offset="0.18" stop-color="#5ea0ef"/>
      <stop offset="1" stop-color="#0078d4"/>
    </linearGradient>
    <linearGradient id="linear-gradient-5" x1="149.1436" y1="411.0185" x2="149.1436" y2="448.1144" gradientTransform="matrix(1, 0, 0, -1, 0, 522.6073)" gradientUnits="userSpaceOnUse">
      <stop offset="0" stop-color="#5e9624"/>
      <stop offset="0.02" stop-color="#5f9724"/>
      <stop offset="1" stop-color="#76bc2d"/>
    </linearGradient>
    <linearGradient id="linear-gradient-6" x1="148.7359" y1="353.656" x2="148.7359" y2="375.3037" gradientTransform="matrix(1, 0, 0, -1, 0, 522.6073)" gradientUnits="userSpaceOnUse">
      <stop offset="0" stop-color="#0078d4"/>
      <stop offset="0.82" stop-color="#5ea0ef"/>
    </linearGradient>
    <linearGradient id="linear-gradient-7" x1="148.7359" y1="345.3037" x2="148.7359" y2="353.656" gradientTransform="matrix(1, 0, 0, -1, 0, 522.6073)" gradientUnits="userSpaceOnUse">
      <stop offset="0.15" stop-color="#ccc"/>
      <stop offset="1" stop-color="#707070"/>
    </linearGradient>
    <linearGradient id="linear-gradient-8" x1="96.2357" y1="353.656" x2="96.2357" y2="375.3037" xlink:href="#linear-gradient-6"/>
    <linearGradient id="linear-gradient-9" x1="96.2357" y1="345.3037" x2="96.2357" y2="353.656" xlink:href="#linear-gradient-7"/>
    <linearGradient id="linear-gradient-10" x1="201.2357" y1="353.656" x2="201.2357" y2="375.3037" xlink:href="#linear-gradient-6"/>
    <linearGradient id="linear-gradient-11" x1="201.2357" y1="345.3037" x2="201.2357" y2="353.656" xlink:href="#linear-gradient-7"/>
    <linearGradient id="linear-gradient-12" x1="149.1436" y1="258.7017" x2="149.1436" y2="295.7976" xlink:href="#linear-gradient-5"/>
    <linearGradient id="linear-gradient-13" x1="148.7359" y1="203.656" x2="148.7359" y2="225.3037" xlink:href="#linear-gradient-6"/>
    <linearGradient id="linear-gradient-14" x1="148.7359" y1="195.3037" x2="148.7359" y2="203.656" xlink:href="#linear-gradient-7"/>
    <linearGradient id="linear-gradient-15" x1="96.2357" y1="203.656" x2="96.2357" y2="225.3037" xlink:href="#linear-gradient-6"/>
    <linearGradient id="linear-gradient-16" x1="96.2357" y1="195.3037" x2="96.2357" y2="203.656" xlink:href="#linear-gradient-7"/>
    <linearGradient id="linear-gradient-17" x1="201.2357" y1="203.656" x2="201.2357" y2="225.3037" xlink:href="#linear-gradient-6"/>
    <linearGradient id="linear-gradient-18" x1="201.2357" y1="195.3037" x2="201.2357" y2="203.656" xlink:href="#linear-gradient-7"/>
  </defs>
  <title>IC744147</title>
  <g id="Shapes">
    <rect width="240.5" height="395.4739" fill="#fff"/>
    <g>
      <g>
        <rect x="0.5" y="64.8036" width="240" height="305" rx="5" fill="#fff"/>
        <rect x="0.5" y="64.8036" width="240" height="305" rx="5" fill="#3c3c41" opacity="0.05"/>
      </g>
      <path d="M234.3408,370.3036H233.34v-1h1.001Zm-3.0039,0h-1.001v-1h1.001Zm-3.0039,0h-1.001v-1h1.001Zm-3.0029,0h-1.002v-1h1.002Zm-3.0039,0h-1.001v-1h1.001Zm-3.0039,0h-1.001v-1h1.001Zm-3.0039,0h-1.001v-1h1.001Zm-3.0039,0h-1.001v-1h1.001Zm-3.004,0H209.31v-1h1.0009Zm-3.0029,0h-1.0019v-1h1.0019Zm-3.0039,0h-1.0019v-1h1.0019Zm-3.0039,0h-1.001v-1H201.3Zm-3.0039,0h-1.001v-1h1.001Zm-3.0039,0h-1.001v-1h1.001Zm-3.0039,0h-1.001v-1h1.001Zm-3.0029,0h-1.002v-1h1.002Zm-3.0039,0h-1.002v-1h1.002Zm-3.004,0h-1.0009v-1h1.0009Zm-3.0039,0h-1.0009v-1h1.0009Zm-3.0039,0h-1.0009v-1H177.27Zm-3.0039,0h-1.001v-1h1.001Zm-3.0029,0h-1.002v-1h1.002Zm-3.0039,0h-1.002v-1h1.002Zm-3.0039,0h-1.001v-1h1.001Zm-3.0039,0H161.25v-1h1.001Zm-3.0039,0h-1.001v-1h1.001Zm-3.0039,0h-1.001v-1h1.001Zm-3.003,0h-1.0019v-1H153.24Zm-3.0039,0h-1.0019v-1h1.0019Zm-3.0039,0h-1.001v-1h1.001Zm-3.0039,0h-1.001v-1h1.001Zm-3.0039,0h-1.001v-1h1.001Zm-3.0039,0H137.22v-1h1.001Zm-3.0039,0h-1.001v-1h1.001Zm-3.0029,0h-1.002v-1h1.002Zm-3.0039,0h-1.001v-1h1.001Zm-3.0039,0h-1.001v-1h1.001Zm-3.004,0h-1.0009v-1h1.0009Zm-3.0039,0h-1.0009v-1h1.0009Zm-3.0039,0h-1.0009v-1h1.0009Zm-3.0029,0H113.19v-1h1.0019Zm-3.0039,0h-1.002v-1h1.002Zm-3.0039,0h-1.001v-1h1.001Zm-3.0039,0h-1.001v-1h1.001Zm-3.0039,0h-1.001v-1h1.001Zm-3.0039,0h-1.001v-1h1.001Zm-3.003,0H95.167v-1h1.0019Zm-3.0039,0H92.1631v-1H93.165Zm-3.0039,0H89.16v-1h1.0009Zm-3.0039,0H86.1563v-1h1.0009Zm-3.0039,0h-1.001v-1h1.001Zm-3.0039,0h-1.001v-1h1.001Zm-3.0029,0h-1.002v-1h1.002Zm-3.0039,0h-1.002v-1h1.002Zm-3.0039,0h-1.001v-1h1.001Zm-3.0039,0h-1.001v-1h1.001Zm-3.0039,0H65.13v-1h1.001Zm-3.0039,0H62.126v-1h1.001Zm-3.004,0H59.1221v-1H60.123Zm-3.0029,0H56.1182v-1H57.12Zm-3.0039,0H53.1143v-1h1.0019Zm-3.0039,0h-1.001v-1h1.001Zm-3.0039,0h-1.001v-1h1.001Zm-3.0039,0h-1.001v-1h1.001Zm-3.0039,0H41.1v-1h1.001Zm-3.0029,0h-1.002v-1h1.002Zm-3.0039,0h-1.002v-1h1.002Zm-30.0381,0H5.5c-.1641,0-.3271-.0078-.4873-.0214l.0859-.9961q.1992.0176.4014.0175h.5557Zm230.3681-.0781-.1679-.9863a4.4026,4.4026,0,0,0,.8652-.2393l.3633.9317A5.4369,5.4369,0,0,1,236.4238,370.2255Zm-233.51-.5722a5.5525,5.5525,0,0,1-.9112-.6123L2.64,368.27a4.5961,4.5961,0,0,0,.7471.5029Zm236.4082-.9034-.6953-.7187a4.536,4.536,0,0,0,.581-.6865l.8242.5664A5.5473,5.5473,0,0,1,239.3223,368.75ZM.626,367.3447a5.394,5.394,0,0,1-.4112-1.0225l.961-.2754a4.3532,4.3532,0,0,0,.3349.8311ZM240.89,365.8994l-.98-.2012a4.4167,4.4167,0,0,0,.0908-.8946l1-.0585v.0585A5.47,5.47,0,0,1,240.89,365.8994ZM1,364.2H0v-1.0009H1Zm240-1.458h-1v-1.001h1ZM1,361.1962H0v-1.0009H1Zm240-1.458h-1v-1.001h1ZM1,358.1933H0v-1.002H1Zm240-1.458h-1v-1.002h1ZM1,355.1894H0v-1.001H1Zm240-1.458h-1v-1.002h1ZM1,352.1855H0v-1.001H1Zm240-1.458h-1v-1.001h1ZM1,349.1816H0v-1.001H1Zm240-1.458h-1v-1.001h1ZM1,346.1777H0v-1.001H1Zm240-1.458h-1v-1.001h1ZM1,343.1738H0v-1.001H1Zm240-1.458h-1v-1.001h1ZM1,340.1708H0v-1.0019H1Zm240-1.458h-1v-1.0019h1ZM1,337.1669H0V336.166H1Zm240-1.458h-1V334.707h1ZM1,334.163H0v-1.001H1Zm240-1.458h-1v-1.001h1ZM1,331.1591H0v-1.001H1Zm240-1.458h-1V328.7h1ZM1,328.1552H0v-1.001H1Zm240-1.458h-1v-1.001h1ZM1,325.1513H0V324.15H1Zm240-1.458h-1v-1.001h1ZM1,322.1484H0v-1.002H1Zm240-1.458h-1v-1.002h1ZM1,319.1445H0v-1.002H1Zm240-1.458h-1v-1.002h1ZM1,316.1406H0V315.14H1Zm240-1.458h-1v-1.001h1ZM1,313.1367H0v-1.001H1Zm240-1.4581h-1v-1.0009h1ZM1,310.1328H0v-1.001H1Zm240-1.4581h-1v-1.0009h1ZM1,307.1288H0v-1.0009H1Zm240-1.458h-1V304.67h1ZM1,304.1259H0V303.124H1Zm240-1.458h-1V301.666h1ZM1,301.122H0V300.12H1Zm240-1.458h-1v-1.002h1ZM1,298.1181H0v-1.001H1Zm240-1.458h-1v-1.001h1ZM1,295.1142H0v-1.001H1Zm240-1.458h-1v-1.001h1ZM1,292.11H0v-1.001H1Zm240-1.458h-1v-1.001h1ZM1,289.1064H0v-1.001H1Zm240-1.458h-1v-1.001h1ZM1,286.1035H0v-1.002H1Zm240-1.459h-1v-1.001h1ZM1,283.1H0v-1.0019H1Zm240-1.458h-1V280.64h1ZM1,280.0956H0v-1.0009H1Zm240-1.458h-1v-1.0009h1ZM1,277.0917H0v-1.0009H1Zm240-1.458h-1v-1.0009h1ZM1,274.0878H0v-1.0009H1Zm240-1.458h-1v-1.001h1ZM1,271.0839H0v-1.001H1Zm240-1.458h-1v-1.001h1ZM1,268.08H0v-1.001H1Zm240-1.458h-1v-1.001h1ZM1,265.0771H0v-1.002H1Zm240-1.458h-1v-1.002h1ZM1,262.0732H0v-1.0015H1Zm240-1.458h-1v-1.0015h1ZM1,259.0693H0v-1.0015H1Zm240-1.458h-1V256.61h1ZM1,256.0654H0v-1.001H1Zm240-1.458h-1v-1.001h1ZM1,253.062H0v-1.0015H1Zm240-1.4585h-1v-1.001h1ZM1,250.058H0v-1.0014H1ZM241,248.6h-1v-1.0014h1ZM1,247.0541H0v-1.0009H1Zm240-1.458h-1v-1.0009h1ZM1,244.0507H0v-1.0014H1Zm240-1.4585h-1v-1.001h1ZM1,241.0468H0v-1.0015H1Zm240-1.458h-1v-1.0015h1ZM1,238.0429H0v-1.001H1Zm240-1.458h-1v-1.001h1ZM1,235.039H0v-1.001H1Zm240-1.458h-1V232.58h1ZM1,232.0356H0v-1.0015H1Zm240-1.458h-1v-1.0015h1ZM1,229.0317H0v-1.001H1Zm240-1.458h-1v-1.0015h1ZM1,226.0278H0v-1.001H1Zm240-1.458h-1v-1.001h1ZM1,223.0244H0v-1.0015H1Zm240-1.4581h-1v-1.0014h1ZM1,220.02H0V219.02H1Zm240-1.458h-1V217.561h1ZM1,217.0165H0v-1.0009H1Zm240-1.458h-1v-1.0009h1ZM1,214.0131H0v-1.0014H1Zm240-1.458h-1v-1.0015h1ZM1,211.0092H0v-1.0014H1Zm240-1.458h-1V208.55h1ZM1,208.0053H0v-1.001H1Zm240-1.458h-1v-1.001h1ZM1,205.0019H0V204H1Zm240-1.458h-1v-1.0015h1ZM1,201.998H0v-1.0015H1Zm240-1.458h-1v-1.0015h1ZM1,198.9941H0v-1.001H1Zm240-1.458h-1v-1.001h1ZM1,195.9907H0v-1.0015H1Zm240-1.458h-1v-1.0015h1ZM1,192.9868H0v-1.0015H1Zm240-1.4581h-1v-1.0014h1ZM1,189.9828H0v-1.0009H1Zm240-1.458h-1v-1.0009h1ZM1,186.9794H0V185.978H1Zm240-1.458h-1V184.52h1ZM1,183.9755H0v-1.0014H1Zm240-1.458h-1v-1.0014h1ZM1,180.9716H0v-1.001H1Zm240-1.458h-1v-1.001h1ZM1,177.9682H0v-1.0015H1ZM241,176.51h-1v-1.001h1ZM1,174.9643H0v-1.0015H1Zm240-1.458h-1v-1.0015h1ZM1,171.96H0v-1.001H1Zm240-1.458h-1v-1.001h1ZM1,168.957H0v-1.0015H1Zm240-1.4585h-1v-1.001h1ZM1,165.9531H0v-1.0015H1Zm240-1.458h-1v-1.0015h1ZM1,162.9492H0v-1.001H1Zm240-1.4581h-1V160.49h1ZM1,159.9453H0v-1.001H1Zm240-1.4581h-1v-1.0009h1ZM1,156.9418H0V155.94H1Zm240-1.458h-1v-1.0014h1ZM1,153.9379H0V152.937H1Zm240-1.458h-1v-1.001h1ZM1,150.934H0v-1.001H1Zm240-1.458h-1v-1.001h1ZM1,147.9306H0v-1.0015H1Zm240-1.458h-1v-1.0015h1ZM1,144.9267H0v-1.001H1Zm240-1.458h-1v-1.0015h1ZM1,141.9228H0v-1.001H1Zm240-1.458h-1v-1.001h1ZM1,138.9194H0v-1.0015H1Zm240-1.458h-1V136.46h1ZM1,135.9155H0V134.914H1Zm240-1.458h-1V133.456h1ZM1,132.9116H0v-1.001H1Zm240-1.458h-1v-1.001h1ZM1,129.9081H0v-1.0014H1Zm240-1.458h-1v-1.0014h1ZM1,126.9042H0v-1.0014H1Zm240-1.458h-1v-1.0014h1ZM1,123.9H0v-1.0009H1Zm240-1.458h-1v-1.001h1ZM1,120.8969H0v-1.0015H1Zm240-1.458h-1v-1.0015h1ZM1,117.893H0v-1.0015H1Zm240-1.458h-1v-1.0015h1ZM1,114.8891H0v-1.001H1Zm240-1.458h-1V112.43h1ZM1,111.8857H0v-1.0015H1Zm240-1.458h-1v-1.0015h1ZM1,108.8818H0V107.88H1Zm240-1.458h-1v-1.0015h1ZM1,105.8779H0v-1.001H1Zm240-1.458h-1v-1.001h1ZM1,102.8745H0V101.873H1Zm240-1.4581h-1V100.415h1ZM1,99.8705H0V98.8691H1Zm240-1.458h-1V97.4111h1ZM1,96.8666H0V95.8657H1Zm240-1.458h-1V94.4077h1ZM1,93.8632H0V92.8618H1Zm240-1.4585h-1v-1.001h1ZM1,90.8593H0V89.8578H1Zm240-1.458h-1V88.4h1ZM1,87.8554H0v-1.001H1Zm240-1.458h-1v-1.001h1ZM1,84.8515H0v-1.001H1Zm240-1.458h-1v-1.001h1ZM1,81.8481H0V80.8466H1ZM241,80.39h-1V79.3886h1ZM1,78.8442H0v-1.001H1Zm240-1.458h-1v-1.001h1ZM1,75.84H0v-1.001H1Zm240-1.458h-1v-1.001h1ZM1,72.8369H0V71.8354H1Zm240-1.4581h-1V70.3774h1ZM0,69.8329v-.0293A5.4471,5.4471,0,0,1,.1045,68.74l.98.1958A4.4233,4.4233,0,0,0,1,69.8036ZM239.8164,68.537a4.5372,4.5372,0,0,0-.34-.8325l.8828-.4687a5.4892,5.4892,0,0,1,.416,1.0171ZM1.7754,67.2861l-.8262-.5635a5.6254,5.6254,0,0,1,.7041-.8423l.7012.7139A4.6084,4.6084,0,0,0,1.7754,67.2861Zm236.5654-.9649a4.6008,4.6008,0,0,0-.7519-.499l.4687-.8838a5.5872,5.5872,0,0,1,.9141.6074ZM3.8555,65.6171l-.3692-.93a5.5016,5.5016,0,0,1,1.0586-.3l.1739.9844A4.4453,4.4453,0,0,0,3.8555,65.6171Zm232.0166-.2978c-.1221-.01-.2471-.0157-.3721-.0157h-.585v-1h.585c.1543,0,.3066.0064.458.02Zm-2.96-.0157h-1.001v-1h1.001Zm-3.0039,0h-1.001v-1h1.001Zm-3.0039,0h-1.001v-1h1.001Zm-3.0029,0h-1.002v-1h1.002Zm-3.0039,0h-1.002v-1h1.002Zm-3.0039,0h-1.001v-1h1.001Zm-3.004,0h-1.0009v-1H214.89Zm-3.0039,0h-1.0009v-1h1.0009Zm-3.0039,0h-1.0009v-1h1.0009Zm-3.0029,0H204.877v-1h1.0019Zm-3.0039,0h-1.002v-1h1.002Zm-3.0039,0H198.87v-1h1.001Zm-3.0039,0h-1.001v-1h1.001Zm-3.0039,0h-1.001v-1h1.001Zm-3.0039,0h-1.001v-1h1.001Zm-3.0039,0h-1.001v-1h1.001Zm-3.003,0h-1.0019v-1h1.0019Zm-3.0039,0h-1.0019v-1h1.0019Zm-3.0039,0h-1.0009v-1h1.0009Zm-3.0039,0H174.84v-1h1.001Zm-3.0039,0h-1.001v-1h1.001Zm-3.0039,0h-1.001v-1h1.001Zm-3.0029,0h-1.002v-1h1.002Zm-3.0039,0h-1.002v-1h1.002Zm-3.0039,0h-1.001v-1h1.001Zm-3.0039,0h-1.001v-1h1.001Zm-3.0039,0h-1.001v-1h1.001Zm-3.004,0H150.81v-1h1.0009Zm-3.0039,0h-1.0009v-1h1.0009Zm-3.0029,0h-1.0019v-1h1.0019Zm-3.0039,0h-1.001v-1H142.8Zm-3.0039,0h-1.001v-1h1.001Zm-3.0039,0h-1.001v-1h1.001Zm-3.0039,0h-1.001v-1h1.001Zm-3.0039,0h-1.001v-1h1.001Zm-3.0029,0h-1.002v-1h1.002Zm-3.004,0h-1.0019v-1h1.0019Zm-3.0039,0h-1.0009v-1h1.0009Zm-3.0039,0h-1.0009v-1H118.77Zm-3.0039,0h-1.001v-1h1.001Zm-3.0039,0h-1.001v-1h1.001Zm-3.0029,0h-1.002v-1h1.002Zm-3.0039,0h-1.002v-1h1.002Zm-3.0039,0H102.75v-1h1.001Zm-3.0039,0h-1.001v-1h1.001Zm-3.0039,0h-1.001v-1h1.001Zm-3.0039,0h-1.001v-1h1.001Zm-3.003,0H90.7344v-1h1.0019Zm-3.0039,0H87.7305v-1h1.0019Zm-3.0039,0h-1.001v-1h1.001Zm-3.0039,0h-1.001v-1h1.001Zm-3.0039,0H78.72v-1h1.001Zm-3.0039,0h-1.001v-1h1.001Zm-3.0029,0h-1.002v-1h1.002Zm-3.0039,0H69.708v-1H70.71Zm-3.0039,0h-1.001v-1h1.001Zm-3.004,0H63.7012v-1h1.0009Zm-3.0039,0H60.6973v-1h1.0009Zm-3.0039,0H57.6934v-1h1.0009Zm-3.0029,0H54.69v-1h1.0019Zm-3.0039,0h-1.002v-1h1.002Zm-3.0039,0h-1.001v-1h1.001Zm-3.0039,0h-1.001v-1H46.68Zm-3.0039,0h-1.001v-1h1.001Zm-3.0039,0h-1.001v-1h1.001Zm-3.0039,0H36.667v-1h1.001Zm-3.003,0H33.6631v-1H34.665Zm-3.0039,0H30.66v-1h1.0009Zm-3.0039,0H27.6563v-1h1.0009Zm-3.0039,0h-1.001v-1h1.001Zm-3.0039,0h-1.001v-1h1.001Zm-3.0039,0h-1.001v-1h1.001Zm-3.0029,0h-1.002v-1h1.002Zm-3.0039,0h-1.002v-1h1.002Zm-3.0039,0H9.6338v-1h1.001Zm-3.0039,0H6.63v-1h1.001Z" fill="#3c3c41"/>
    </g>
    <g>
      <circle cx="25.8641" cy="369.64" r="1.675" fill="url(#linear-gradient)"/>
      <circle cx="20.5214" cy="369.6544" r="1.675" fill="url(#linear-gradient-2)"/>
      <circle cx="15.1788" cy="369.6544" r="1.675" fill="url(#linear-gradient-3)"/>
      <path d="M16.3948,376.3509l-.9585.9611a.4332.4332,0,0,1-.6126.0009h0l-7.0959-7.0761a.8664.8664,0,0,1-.0017-1.2252h0l.9585-.9612h0l7.7093,7.6879a.4332.4332,0,0,1,.0009.6126Z" fill="#50e6ff"/>
      <path d="M15.2913,362.0133l.9611.9584a.4332.4332,0,0,1,.0009.6126l-7.5757,7.5969h0l-.9611-.9584a.8664.8664,0,0,1-.0018-1.2253h0l6.964-6.9834A.4332.4332,0,0,1,15.2913,362.0133Z" fill="#1490df"/>
      <path d="M32.2416,368.0373l.9584.9611a.8663.8663,0,0,1-.0017,1.2252h0L26.1024,377.3a.4332.4332,0,0,1-.6126-.0008h0l-.9584-.9612a.4331.4331,0,0,1,.0008-.6126h0l7.7094-7.6878Z" fill="#50e6ff"/>
      <path d="M33.197,370.2133l-.9611.9585h0L24.66,363.5749a.4332.4332,0,0,1,.0009-.6126h0l.9713-.9687a.4332.4332,0,0,1,.6126.0009h0l6.9639,6.9834a.8663.8663,0,0,1-.0017,1.2252h0Z" fill="#1490df"/>
    </g>
    <g>
      <rect x="10" y="139.3036" width="220" height="65" fill="#fff"/>
      <rect x="10" y="139.3036" width="220" height="65" fill="#3c3c41" opacity="0.25"/>
    </g>
    <path d="M167.0381,17.8468a8.1521,8.1521,0,0,0-6.9838-7.9034A10.2644,10.2644,0,0,0,149.591.0021,10.513,10.513,0,0,0,139.65,6.961a9.668,9.668,0,0,0-8.4,9.4443,9.9414,9.9414,0,0,0,10.09,9.5935h17.6708A8.2514,8.2514,0,0,0,167.0381,17.8468Z" fill="url(#linear-gradient-4)"/>
    <g>
      <path d="M133.4663,91.5389l14.913-14.9131a1.0665,1.0665,0,0,1,1.5081-.02l.0206.02,14.913,14.9131a1.0665,1.0665,0,0,1,.02,1.5081l-.02.02L149.89,107.9983a1.0665,1.0665,0,0,1-1.4931,0L133.4663,93.0675a1.0665,1.0665,0,0,1-.02-1.5081Z" fill="url(#linear-gradient-5)"/>
      <path d="M153.0541,83.4158l-3.7683-3.7505a.2133.2133,0,0,0-.2844,0l-3.7682,3.7505a.1777.1777,0,0,0,.1422.32H147.58a.1956.1956,0,0,1,.1955.1956v3.5549a.1955.1955,0,0,0,.1955.1955h2.3463a.1955.1955,0,0,0,.1955-.1955V83.9313a.1955.1955,0,0,1,.1955-.1956h2.2041a.1777.1777,0,0,0,.1422-.32Z" fill="#b4ec36"/>
      <path d="M140.2563,88.055l-3.7327,3.786a.1956.1956,0,0,0,0,.2667l3.7327,3.75a.1955.1955,0,0,0,.3377-.1422V93.53a.1955.1955,0,0,1,.1955-.1955h3.555a.1778.1778,0,0,0,.1786-.1768c0-.0063,0-.0125-.0009-.0187V90.7923a.1778.1778,0,0,0-.1244-.2666h-3.555a.1778.1778,0,0,1-.1946-.1591q-.0009-.0093-.0009-.0186V88.1972a.208.208,0,0,0-.391-.1422Z" fill="#b4ec36"/>
      <path d="M158.1732,95.8581l3.786-3.7682a.1955.1955,0,0,0,0-.2666l-3.786-3.7683a.1955.1955,0,0,0-.32.1422v2.2219a.1778.1778,0,0,1-.1769.1786c-.0062,0-.0125,0-.0187-.0009h-3.5549a.1776.1776,0,0,0-.1786.1769.1653.1653,0,0,0,.0008.0186v2.3463a.1777.1777,0,0,0,.1591.1946c.0062.0006.0125.0009.0187.0009h3.5549a.1955.1955,0,0,1,.1956.1955v2.2041a.1954.1954,0,0,0,.32.1244Z" fill="#b4ec36"/>
      <path d="M154.1028,92.3032a4.9591,4.9591,0,1,0-6.2923,4.7458v1.6886a3.0394,3.0394,0,1,0,2.7907,0V96.96A4.9237,4.9237,0,0,0,154.1028,92.3032Z" fill="#fff"/>
      <circle id="e99c3387-15c3-4f28-bd4b-cb209b430e06" cx="149.1614" cy="92.2854" r="2.8795" fill="#5ea0ef"/>
    </g>
    <g>
      <rect x="132.5002" y="147.3036" width="32.4714" height="21.6476" rx="1.0824" fill="url(#linear-gradient-6)"/>
      <polygon points="154.148 154.97 154.148 161.266 148.736 164.441 148.736 158.127 154.148 154.97" fill="#50e6ff"/>
      <polygon points="154.148 154.97 148.736 158.145 143.324 154.97 148.736 151.814 154.148 154.97" fill="#c3f1ff"/>
      <polygon points="148.736 158.145 148.736 164.441 143.324 161.266 143.324 154.97 148.736 158.145" fill="#9cebff"/>
      <polygon points="143.324 161.266 148.736 158.127 148.736 164.441 143.324 161.266" fill="#c3f1ff"/>
      <polygon points="154.148 161.266 148.736 158.127 148.736 164.441 154.148 161.266" fill="#9cebff"/>
      <path d="M155.2482,175.5c-3.211-.5052-3.3373-2.8142-3.3373-6.5484h-6.368c0,3.7342-.1083,6.0432-3.3193,6.5484a1.804,1.804,0,0,0-1.6056,1.8039h16.2358A1.804,1.804,0,0,0,155.2482,175.5Z" fill="url(#linear-gradient-7)"/>
    </g>
    <g>
      <rect x="80" y="147.3036" width="32.4714" height="21.6476" rx="1.0824" fill="url(#linear-gradient-8)"/>
      <polygon points="101.648 154.97 101.648 161.266 96.236 164.441 96.236 158.127 101.648 154.97" fill="#50e6ff"/>
      <polygon points="101.648 154.97 96.236 158.145 90.824 154.97 96.236 151.814 101.648 154.97" fill="#c3f1ff"/>
      <polygon points="96.236 158.145 96.236 164.441 90.824 161.266 90.824 154.97 96.236 158.145" fill="#9cebff"/>
      <polygon points="90.824 161.266 96.236 158.127 96.236 164.441 90.824 161.266" fill="#c3f1ff"/>
      <polygon points="101.648 161.266 96.236 158.127 96.236 164.441 101.648 161.266" fill="#9cebff"/>
      <path d="M102.748,175.5c-3.211-.5052-3.3373-2.8142-3.3373-6.5484h-6.368c0,3.7342-.1082,6.0432-3.3193,6.5484a1.8039,1.8039,0,0,0-1.6055,1.8039h16.2357A1.804,1.804,0,0,0,102.748,175.5Z" fill="url(#linear-gradient-9)"/>
    </g>
    <g>
      <rect x="185" y="147.3036" width="32.4714" height="21.6476" rx="1.0824" fill="url(#linear-gradient-10)"/>
      <polygon points="206.648 154.97 206.648 161.266 201.236 164.441 201.236 158.127 206.648 154.97" fill="#50e6ff"/>
      <polygon points="206.648 154.97 201.236 158.145 195.824 154.97 201.236 151.814 206.648 154.97" fill="#c3f1ff"/>
      <polygon points="201.236 158.145 201.236 164.441 195.824 161.266 195.824 154.97 201.236 158.145" fill="#9cebff"/>
      <polygon points="195.824 161.266 201.236 158.127 201.236 164.441 195.824 161.266" fill="#c3f1ff"/>
      <polygon points="206.648 161.266 201.236 158.127 201.236 164.441 206.648 161.266" fill="#9cebff"/>
      <path d="M207.748,175.5c-3.211-.5052-3.3373-2.8142-3.3373-6.5484h-6.368c0,3.7342-.1082,6.0432-3.3193,6.5484a1.8039,1.8039,0,0,0-1.6055,1.8039h16.2357A1.804,1.804,0,0,0,207.748,175.5Z" fill="url(#linear-gradient-11)"/>
    </g>
    <line x1="149.1436" y1="29.3031" x2="149.1436" y2="41.8031" fill="none" stroke="#3c3c41" stroke-miterlimit="10"/>
    <line x1="149.1436" y1="59.3031" x2="149.1436" y2="73.3031" fill="none" stroke="#3c3c41" stroke-miterlimit="10"/>
    <g>
      <path d="M133.4663,243.8557l14.913-14.913a1.0665,1.0665,0,0,1,1.5081-.02l.0206.02,14.913,14.913a1.0665,1.0665,0,0,1,.02,1.5081l-.02.02L149.89,260.3151a1.0665,1.0665,0,0,1-1.4931,0l-14.9308-14.9308a1.0664,1.0664,0,0,1-.02-1.508Z" fill="url(#linear-gradient-12)"/>
      <path d="M153.0541,235.7327l-3.7683-3.75a.2133.2133,0,0,0-.2844,0l-3.7682,3.75a.1777.1777,0,0,0,.1422.32H147.58a.1955.1955,0,0,1,.1955.1955v3.555a.1955.1955,0,0,0,.1955.1955h2.3463a.1955.1955,0,0,0,.1955-.1955v-3.555a.1955.1955,0,0,1,.1955-.1955h2.2041a.1777.1777,0,0,0,.1422-.32Z" fill="#b4ec36"/>
      <path d="M140.2563,240.3719l-3.7327,3.786a.1955.1955,0,0,0,0,.2666l3.7327,3.7505a.1956.1956,0,0,0,.3377-.1422v-2.1863a.1955.1955,0,0,1,.1955-.1955h3.555a.1778.1778,0,0,0,.1786-.1769c0-.0062,0-.0124-.0009-.0187v-2.3462a.1776.1776,0,0,0-.1244-.2666h-3.555a.1778.1778,0,0,1-.1946-.1591c-.0006-.0062-.0009-.0125-.0009-.0187v-2.1507a.208.208,0,1,0-.391-.1422Z" fill="#b4ec36"/>
      <path d="M158.1732,248.175l3.786-3.7683a.1955.1955,0,0,0,0-.2666l-3.786-3.7682a.1954.1954,0,0,0-.32.1422v2.2218a.1776.1776,0,0,1-.1769.1786.1671.1671,0,0,1-.0187-.0008h-3.5549a.1776.1776,0,0,0-.1786.1768.1671.1671,0,0,0,.0008.0187v2.3462a.1778.1778,0,0,0,.1591.1947c.0062.0006.0125.0009.0187.0009h3.5549a.1955.1955,0,0,1,.1956.1955v2.2041a.1955.1955,0,0,0,.32.1244Z" fill="#b4ec36"/>
      <path d="M154.1028,244.62a4.9591,4.9591,0,1,0-6.2923,4.7459v1.6886a3.0394,3.0394,0,1,0,2.7907,0V249.277A4.9237,4.9237,0,0,0,154.1028,244.62Z" fill="#fff"/>
      <circle id="e99c3387-15c3-4f28-bd4b-cb209b430e06-2" data-name="e99c3387-15c3-4f28-bd4b-cb209b430e06" cx="149.1614" cy="244.6023" r="2.8795" fill="#5ea0ef"/>
    </g>
    <line x1="149.1436" y1="197.12" x2="149.1436" y2="226.4444" fill="none" stroke="#3c3c41" stroke-miterlimit="10"/>
    <line x1="149.1436" y1="132.6905" x2="149.1436" y2="144.8036" fill="none" stroke="#3c3c41" stroke-miterlimit="10"/>
    <line x1="149.1436" y1="112.9948" x2="149.1436" y2="121.6573" fill="none" stroke="#3c3c41" stroke-miterlimit="10"/>
    <g>
      <path d="M100.9074,128.0936l-2.4435,1.01a4.5965,4.5965,0,0,0-2.4435,4.01v11.6906" fill="none" stroke="#3c3c41" stroke-miterlimit="10"/>
      <line x1="143.9597" y1="110.3031" x2="115.9321" y2="121.8849" fill="none" stroke="#3c3c41" stroke-miterlimit="10"/>
    </g>
    <path d="M143.96,228.7926l-25.255-10.4361-5.5452-2.2914-9.4795-3.9172-5.2161-2.1554a4.5968,4.5968,0,0,1-2.4435-4.01V197.12" fill="none" stroke="#3c3c41" stroke-miterlimit="10"/>
    <path d="M156.0024,228.7926l25.2549-10.4361,5.5453-2.2914,9.48-3.9172,5.2161-2.1554a4.5968,4.5968,0,0,0,2.4435-4.01V197.12" fill="none" stroke="#3c3c41" stroke-miterlimit="10"/>
    <g>
      <path d="M199.0547,128.0936l2.4435,1.01a4.5965,4.5965,0,0,1,2.4435,4.01v11.6906" fill="none" stroke="#3c3c41" stroke-miterlimit="10"/>
      <line x1="156.0024" y1="110.3031" x2="184.0299" y2="121.8849" fill="none" stroke="#3c3c41" stroke-miterlimit="10"/>
    </g>
    <g>
      <rect x="10" y="289.3036" width="220" height="65" fill="#fff"/>
      <rect x="10" y="289.3036" width="220" height="65" fill="#3c3c41" opacity="0.25"/>
    </g>
    <g>
      <rect x="132.5002" y="297.3036" width="32.4714" height="21.6476" rx="1.0824" fill="url(#linear-gradient-13)"/>
      <polygon points="154.148 304.97 154.148 311.266 148.736 314.441 148.736 308.127 154.148 304.97" fill="#50e6ff"/>
      <polygon points="154.148 304.97 148.736 308.145 143.324 304.97 148.736 301.814 154.148 304.97" fill="#c3f1ff"/>
      <polygon points="148.736 308.145 148.736 314.441 143.324 311.266 143.324 304.97 148.736 308.145" fill="#9cebff"/>
      <polygon points="143.324 311.266 148.736 308.127 148.736 314.441 143.324 311.266" fill="#c3f1ff"/>
      <polygon points="154.148 311.266 148.736 308.127 148.736 314.441 154.148 311.266" fill="#9cebff"/>
      <path d="M155.2482,325.5c-3.211-.5052-3.3373-2.8142-3.3373-6.5484h-6.368c0,3.7342-.1083,6.0432-3.3193,6.5484a1.804,1.804,0,0,0-1.6056,1.8039h16.2358A1.804,1.804,0,0,0,155.2482,325.5Z" fill="url(#linear-gradient-14)"/>
    </g>
    <g>
      <rect x="80" y="297.3036" width="32.4714" height="21.6476" rx="1.0824" fill="url(#linear-gradient-15)"/>
      <polygon points="101.648 304.97 101.648 311.266 96.236 314.441 96.236 308.127 101.648 304.97" fill="#50e6ff"/>
      <polygon points="101.648 304.97 96.236 308.145 90.824 304.97 96.236 301.814 101.648 304.97" fill="#c3f1ff"/>
      <polygon points="96.236 308.145 96.236 314.441 90.824 311.266 90.824 304.97 96.236 308.145" fill="#9cebff"/>
      <polygon points="90.824 311.266 96.236 308.127 96.236 314.441 90.824 311.266" fill="#c3f1ff"/>
      <polygon points="101.648 311.266 96.236 308.127 96.236 314.441 101.648 311.266" fill="#9cebff"/>
      <path d="M102.748,325.5c-3.211-.5052-3.3373-2.8142-3.3373-6.5484h-6.368c0,3.7342-.1082,6.0432-3.3193,6.5484a1.8039,1.8039,0,0,0-1.6055,1.8039h16.2357A1.804,1.804,0,0,0,102.748,325.5Z" fill="url(#linear-gradient-16)"/>
    </g>
    <g>
      <rect x="185" y="297.3036" width="32.4714" height="21.6476" rx="1.0824" fill="url(#linear-gradient-17)"/>
      <polygon points="206.648 304.97 206.648 311.266 201.236 314.441 201.236 308.127 206.648 304.97" fill="#50e6ff"/>
      <polygon points="206.648 304.97 201.236 308.145 195.824 304.97 201.236 301.814 206.648 304.97" fill="#c3f1ff"/>
      <polygon points="201.236 308.145 201.236 314.441 195.824 311.266 195.824 304.97 201.236 308.145" fill="#9cebff"/>
      <polygon points="195.824 311.266 201.236 308.127 201.236 314.441 195.824 311.266" fill="#c3f1ff"/>
      <polygon points="206.648 311.266 201.236 308.127 201.236 314.441 206.648 311.266" fill="#9cebff"/>
      <path d="M207.748,325.5c-3.211-.5052-3.3373-2.8142-3.3373-6.5484h-6.368c0,3.7342-.1082,6.0432-3.3193,6.5484a1.8039,1.8039,0,0,0-1.6055,1.8039h16.2357A1.804,1.804,0,0,0,207.748,325.5Z" fill="url(#linear-gradient-18)"/>
    </g>
    <line x1="149.1436" y1="284.595" x2="149.1436" y2="296.7081" fill="none" stroke="#3c3c41" stroke-miterlimit="10"/>
    <line x1="149.1436" y1="262.095" x2="149.1436" y2="272.7081" fill="none" stroke="#3c3c41" stroke-miterlimit="10"/>
    <g>
      <path d="M100.9074,279.9981l-2.4435,1.01a4.5965,4.5965,0,0,0-2.4435,4.01v11.6906" fill="none" stroke="#3c3c41" stroke-miterlimit="10"/>
      <line x1="143.9597" y1="262.2076" x2="121.1818" y2="271.6201" fill="none" stroke="#3c3c41" stroke-miterlimit="10"/>
    </g>
    <g>
      <path d="M195.3183,279.9981l2.4436,1.01a4.5965,4.5965,0,0,1,2.4435,4.01v11.6906" fill="none" stroke="#3c3c41" stroke-miterlimit="10"/>
      <line x1="152.2661" y1="262.2076" x2="175.0439" y2="271.6201" fill="none" stroke="#3c3c41" stroke-miterlimit="10"/>
    </g>
  </g>
  <g id="Text">
    <g>
      <path d="M98.6641,86.1279v3.1757H97.68V80.9013h2.3086a3.0469,3.0469,0,0,1,2.0888.6563,2.3428,2.3428,0,0,1,.7413,1.8515,2.5465,2.5465,0,0,1-.8233,1.957,3.145,3.145,0,0,1-2.2236.7618Zm0-4.336v3.4453h1.0312a2.3054,2.3054,0,0,0,1.5557-.4658,1.6491,1.6491,0,0,0,.5361-1.3154q0-1.6641-1.9687-1.6641Z" fill="#1e1e1e"/>
      <path d="M109.123,89.3036h-.9609v-.9492h-.0234a1.9735,1.9735,0,0,1-1.8516,1.09q-2.1445,0-2.1445-2.5547v-3.586h.9551v3.4336q0,1.8986,1.4531,1.8985a1.47,1.47,0,0,0,1.1572-.5186,1.9841,1.9841,0,0,0,.4541-1.3564V83.3036h.9609Z" fill="#1e1e1e"/>
      <path d="M112.0469,88.4365h-.0235v.8671h-.9609V80.4208h.9609v3.9375h.0235a2.2723,2.2723,0,0,1,2.0742-1.1953,2.1991,2.1991,0,0,1,1.8076.8057,3.3263,3.3263,0,0,1,.6533,2.1592,3.7187,3.7187,0,0,1-.7324,2.4111,2.4386,2.4386,0,0,1-2.0039.9053A1.9735,1.9735,0,0,1,112.0469,88.4365Zm-.0235-2.42v.8379a1.7843,1.7843,0,0,0,.4834,1.2627,1.7244,1.7244,0,0,0,2.5957-.1494,3.0641,3.0641,0,0,0,.4952-1.8574,2.4189,2.4189,0,0,0-.4629-1.57,1.532,1.532,0,0,0-1.2539-.5684,1.7028,1.7028,0,0,0-1.3477.583A2.141,2.141,0,0,0,112.0234,86.0165Z" fill="#1e1e1e"/>
      <path d="M119.0781,89.3036h-.9609V80.4208h.9609Z" fill="#1e1e1e"/>
      <path d="M121.5156,81.78a.6088.6088,0,0,1-.4394-.1758.5933.5933,0,0,1-.1817-.4453.6155.6155,0,0,1,.6211-.6269.62.62,0,0,1,.4483.1787.6261.6261,0,0,1,0,.8877A.6154.6154,0,0,1,121.5156,81.78Zm.4688,7.5234h-.961v-6h.961Z" fill="#1e1e1e"/>
      <path d="M128.02,89.0283a3.1226,3.1226,0,0,1-1.6406.416,2.7161,2.7161,0,0,1-2.0713-.835,3.0258,3.0258,0,0,1-.7881-2.165,3.3266,3.3266,0,0,1,.85-2.3819,2.9722,2.9722,0,0,1,2.2676-.8994,3.1569,3.1569,0,0,1,1.3946.293V84.44a2.4436,2.4436,0,0,0-1.43-.4688,1.9319,1.9319,0,0,0-1.5088.6592,2.5013,2.5013,0,0,0-.5889,1.7314,2.3817,2.3817,0,0,0,.5537,1.6641,1.9085,1.9085,0,0,0,1.4854.6094,2.4079,2.4079,0,0,0,1.4765-.5215Z" fill="#1e1e1e"/>
      <path d="M60.0449,102.5038H55.6855V94.1015H56.67v7.5117h3.375Z" fill="#1e1e1e"/>
      <path d="M63.7129,102.6445a2.7829,2.7829,0,0,1-2.124-.8409,3.1143,3.1143,0,0,1-.794-2.2294,3.2444,3.2444,0,0,1,.8262-2.3614,2.97,2.97,0,0,1,2.2324-.85,2.6909,2.6909,0,0,1,2.0947.8262,3.2755,3.2755,0,0,1,.753,2.291,3.2232,3.2232,0,0,1-.8116,2.3A2.8434,2.8434,0,0,1,63.7129,102.6445Zm.07-5.4727a1.8276,1.8276,0,0,0-1.4648.63,2.5867,2.5867,0,0,0-.5391,1.7373,2.4463,2.4463,0,0,0,.5449,1.6816,1.8519,1.8519,0,0,0,1.459.6153,1.7568,1.7568,0,0,0,1.4326-.6035,2.619,2.619,0,0,0,.501-1.7168,2.6638,2.6638,0,0,0-.501-1.7344A1.7488,1.7488,0,0,0,63.7832,97.1718Z" fill="#1e1e1e"/>
      <path d="M72.5313,102.5038H71.57v-.9375h-.0234a2.0118,2.0118,0,0,1-1.8457,1.0782,1.9723,1.9723,0,0,1-1.4033-.4746,1.6445,1.6445,0,0,1-.5069-1.26q0-1.6816,1.9805-1.957l1.7988-.252q0-1.5292-1.2363-1.5293a2.9535,2.9535,0,0,0-1.957.7383v-.9844a3.7181,3.7181,0,0,1,2.039-.5625q2.1153,0,2.1153,2.2383Zm-.961-3.0351-1.4473.1992a2.35,2.35,0,0,0-1.0078.3311.9548.9548,0,0,0-.34.8408.9159.9159,0,0,0,.3135.7178,1.2115,1.2115,0,0,0,.8349.2783,1.5424,1.5424,0,0,0,1.1807-.501,1.79,1.79,0,0,0,.4658-1.2686Z" fill="#1e1e1e"/>
      <path d="M79.4629,102.5038H78.502v-1.0195h-.0235a2.2182,2.2182,0,0,1-2.0625,1.16,2.2411,2.2411,0,0,1-1.8076-.8057,3.3048,3.3048,0,0,1-.6768-2.1943,3.5959,3.5959,0,0,1,.75-2.3848,2.4737,2.4737,0,0,1,1.9981-.8965,1.9232,1.9232,0,0,1,1.7988.9727h.0235V93.621h.9609ZM78.502,99.791v-.8848a1.7167,1.7167,0,0,0-.48-1.23,1.6117,1.6117,0,0,0-1.2188-.5039,1.66,1.66,0,0,0-1.3828.6445,2.8248,2.8248,0,0,0-.5039,1.7813,2.54,2.54,0,0,0,.4834,1.6377,1.58,1.58,0,0,0,1.2979.6006,1.6414,1.6414,0,0,0,1.3037-.58A2.161,2.161,0,0,0,78.502,99.791Z" fill="#1e1e1e"/>
      <path d="M84.8242,102.5038V94.1015h2.3906a2.613,2.613,0,0,1,1.7286.5332,1.7236,1.7236,0,0,1,.6386,1.3887,2.0437,2.0437,0,0,1-.3867,1.2422,2.0861,2.0861,0,0,1-1.0664.75v.0234a2.138,2.138,0,0,1,1.3594.6416,1.9736,1.9736,0,0,1,.51,1.4092,2.1969,2.1969,0,0,1-.7734,1.7461,2.8786,2.8786,0,0,1-1.9512.6679Zm.9844-7.5117V97.705h1.0078a1.9141,1.9141,0,0,0,1.2715-.39,1.357,1.357,0,0,0,.4629-1.0987q0-1.2246-1.6113-1.2246Zm0,3.5977v3.0234h1.3359a2.0019,2.0019,0,0,0,1.3448-.41,1.4053,1.4053,0,0,0,.4775-1.125q0-1.4883-2.0273-1.4883Z" fill="#1e1e1e"/>
      <path d="M95.8691,102.5038h-.9609v-.9375h-.0234a2.0118,2.0118,0,0,1-1.8457,1.0782,1.9727,1.9727,0,0,1-1.4034-.4746,1.6447,1.6447,0,0,1-.5068-1.26q0-1.6816,1.98-1.957l1.7988-.252q0-1.5292-1.2363-1.5293a2.9539,2.9539,0,0,0-1.9571.7383v-.9844a3.7186,3.7186,0,0,1,2.0391-.5625q2.1153,0,2.1152,2.2383Zm-.9609-3.0351-1.4473.1992a2.35,2.35,0,0,0-1.0078.3311.9548.9548,0,0,0-.34.8408.9159.9159,0,0,0,.3135.7178,1.2113,1.2113,0,0,0,.8349.2783,1.5424,1.5424,0,0,0,1.1807-.501,1.79,1.79,0,0,0,.4658-1.2686Z" fill="#1e1e1e"/>
      <path d="M98.6406,102.5038H97.68V93.621h.9609Z" fill="#1e1e1e"/>
      <path d="M104.8809,102.5038h-.961v-.9375h-.0234a2.0118,2.0118,0,0,1-1.8457,1.0782,1.9724,1.9724,0,0,1-1.4033-.4746,1.6445,1.6445,0,0,1-.5069-1.26q0-1.6816,1.98-1.957l1.7988-.252q0-1.5292-1.2363-1.5293a2.9535,2.9535,0,0,0-1.957.7383v-.9844a3.7181,3.7181,0,0,1,2.039-.5625q2.1153,0,2.1153,2.2383Zm-.961-3.0351-1.4472.1992a2.35,2.35,0,0,0-1.0079.3311.9548.9548,0,0,0-.34.8408.9159.9159,0,0,0,.3135.7178,1.2115,1.2115,0,0,0,.8349.2783,1.5423,1.5423,0,0,0,1.1807-.501,1.79,1.79,0,0,0,.4658-1.2686Z" fill="#1e1e1e"/>
      <path d="M111.6719,102.5038h-.961V99.082q0-1.91-1.3945-1.91a1.5128,1.5128,0,0,0-1.1924.542,2.0092,2.0092,0,0,0-.4717,1.3682v3.4218h-.9609v-6h.9609V97.5h.0235a2.1655,2.1655,0,0,1,1.9687-1.1367,1.8355,1.8355,0,0,1,1.5059.6358,2.832,2.832,0,0,1,.5215,1.8369Z" fill="#1e1e1e"/>
      <path d="M117.5723,102.2285a3.123,3.123,0,0,1-1.6407.416,2.7162,2.7162,0,0,1-2.0712-.835,3.0258,3.0258,0,0,1-.7881-2.165,3.3266,3.3266,0,0,1,.85-2.3819,2.9721,2.9721,0,0,1,2.2676-.8994,3.1567,3.1567,0,0,1,1.3945.293v.9844a2.4434,2.4434,0,0,0-1.43-.4688,1.9319,1.9319,0,0,0-1.5088.6592,2.5011,2.5011,0,0,0-.5889,1.7314,2.3813,2.3813,0,0,0,.5538,1.6641,1.9082,1.9082,0,0,0,1.4853.6094,2.409,2.409,0,0,0,1.4766-.5215Z" fill="#1e1e1e"/>
      <path d="M123.8477,99.7441h-4.2364a2.2445,2.2445,0,0,0,.5391,1.5469,1.8586,1.8586,0,0,0,1.418.5449,2.9481,2.9481,0,0,0,1.8632-.668v.9024a3.4824,3.4824,0,0,1-2.0918.5742,2.536,2.536,0,0,1-1.998-.8174,3.3454,3.3454,0,0,1-.7266-2.3,3.2807,3.2807,0,0,1,.794-2.2822,2.5457,2.5457,0,0,1,1.9717-.8819,2.2557,2.2557,0,0,1,1.8222.7617,3.176,3.176,0,0,1,.6446,2.1153Zm-.9844-.8145a1.9549,1.9549,0,0,0-.4014-1.2949,1.3675,1.3675,0,0,0-1.0986-.4629,1.5523,1.5523,0,0,0-1.1543.4863,2.208,2.208,0,0,0-.586,1.2715Z" fill="#1e1e1e"/>
      <path d="M128.43,97.4765a1.1753,1.1753,0,0,0-.7266-.1934,1.2264,1.2264,0,0,0-1.0283.58,2.682,2.682,0,0,0-.4131,1.5821v3.0585h-.9609v-6h.9609V97.74h.0235a2.095,2.095,0,0,1,.6269-.9873,1.4294,1.4294,0,0,1,.9434-.3545,1.5684,1.5684,0,0,1,.5742.082Z" fill="#1e1e1e"/>
    </g>
    <g>
      <path d="M90.2852,241.6205h-.9844v-8.4023h.9844Z" fill="#1e1e1e"/>
      <path d="M97.3457,241.6205h-.9609v-3.4218q0-1.91-1.3946-1.91a1.5126,1.5126,0,0,0-1.1923.542,2.0087,2.0087,0,0,0-.4717,1.3682v3.4218h-.961v-6h.961v.9961H93.35a2.1656,2.1656,0,0,1,1.9688-1.1367,1.8353,1.8353,0,0,1,1.5058.6358,2.8315,2.8315,0,0,1,.5215,1.8369Z" fill="#1e1e1e"/>
      <path d="M101.94,241.562a1.8529,1.8529,0,0,1-.8965.1875q-1.5762,0-1.5762-1.7579v-3.5507H98.4355v-.82h1.0313v-1.4648l.9609-.31v1.7753H101.94v.82h-1.5118v3.3808a1.4013,1.4013,0,0,0,.2051.8613.8183.8183,0,0,0,.68.2579,1.01,1.01,0,0,0,.627-.1993Z" fill="#1e1e1e"/>
      <path d="M108.0449,238.8608h-4.2363a2.244,2.244,0,0,0,.5391,1.5469,1.8585,1.8585,0,0,0,1.4179.5449,2.9482,2.9482,0,0,0,1.8633-.668v.9024a3.4824,3.4824,0,0,1-2.0918.5742,2.5359,2.5359,0,0,1-1.998-.8174,3.3454,3.3454,0,0,1-.7266-2.3,3.2806,3.2806,0,0,1,.7939-2.2822,2.5459,2.5459,0,0,1,1.9717-.8819,2.2558,2.2558,0,0,1,1.8223.7617,3.176,3.176,0,0,1,.6445,2.1153Zm-.9844-.8145a1.9549,1.9549,0,0,0-.4013-1.2949,1.3676,1.3676,0,0,0-1.0987-.4629,1.5521,1.5521,0,0,0-1.1542.4863,2.2068,2.2068,0,0,0-.586,1.2715Z" fill="#1e1e1e"/>
      <path d="M112.627,236.5932A1.1753,1.1753,0,0,0,111.9,236.4a1.2263,1.2263,0,0,0-1.0283.58,2.682,2.682,0,0,0-.4131,1.5821v3.0585h-.961v-6h.961v1.2364h.0234a2.0944,2.0944,0,0,1,.627-.9873,1.4292,1.4292,0,0,1,.9433-.3545,1.5694,1.5694,0,0,1,.5743.082Z" fill="#1e1e1e"/>
      <path d="M118.65,241.6205H117.69v-3.4218q0-1.91-1.3946-1.91a1.5129,1.5129,0,0,0-1.1924.542,2.0091,2.0091,0,0,0-.4716,1.3682v3.4218h-.961v-6h.961v.9961h.0234a2.1655,2.1655,0,0,1,1.9687-1.1367,1.8354,1.8354,0,0,1,1.5059.6358,2.8315,2.8315,0,0,1,.5215,1.8369Z" fill="#1e1e1e"/>
      <path d="M124.7559,241.6205h-.961v-.9375h-.0234a2.0118,2.0118,0,0,1-1.8457,1.0782,1.9724,1.9724,0,0,1-1.4033-.4746,1.6445,1.6445,0,0,1-.5069-1.26q0-1.6817,1.98-1.957l1.7988-.252q0-1.5292-1.2363-1.5293a2.9535,2.9535,0,0,0-1.957.7383v-.9844a3.7181,3.7181,0,0,1,2.039-.5625q2.1153,0,2.1153,2.2383Zm-.961-3.0351-1.4472.1992a2.35,2.35,0,0,0-1.0079.3311.9548.9548,0,0,0-.34.8408.9159.9159,0,0,0,.3135.7178,1.2115,1.2115,0,0,0,.8349.2783,1.5423,1.5423,0,0,0,1.1807-.501,1.79,1.79,0,0,0,.4658-1.2686Z" fill="#1e1e1e"/>
      <path d="M127.5273,241.6205h-.9609v-8.8828h.9609Z" fill="#1e1e1e"/>
      <path d="M60.0449,254.8207H55.6855v-8.4023H56.67V253.93h3.375Z" fill="#1e1e1e"/>
      <path d="M63.7129,254.9614a2.7829,2.7829,0,0,1-2.124-.8409,3.1143,3.1143,0,0,1-.794-2.2294,3.2444,3.2444,0,0,1,.8262-2.3614,2.97,2.97,0,0,1,2.2324-.85,2.6909,2.6909,0,0,1,2.0947.8262,3.2755,3.2755,0,0,1,.753,2.291,3.2232,3.2232,0,0,1-.8116,2.3A2.8434,2.8434,0,0,1,63.7129,254.9614Zm.07-5.4727a1.8276,1.8276,0,0,0-1.4648.63,2.5867,2.5867,0,0,0-.5391,1.7373,2.4463,2.4463,0,0,0,.5449,1.6816,1.8519,1.8519,0,0,0,1.459.6153,1.7568,1.7568,0,0,0,1.4326-.6035,2.6192,2.6192,0,0,0,.501-1.7168,2.6638,2.6638,0,0,0-.501-1.7344A1.7488,1.7488,0,0,0,63.7832,249.4887Z" fill="#1e1e1e"/>
      <path d="M72.5313,254.8207H71.57v-.9375h-.0234a2.0118,2.0118,0,0,1-1.8457,1.0782,1.9723,1.9723,0,0,1-1.4033-.4746,1.6446,1.6446,0,0,1-.5069-1.26q0-1.6817,1.9805-1.957l1.7988-.252q0-1.5292-1.2363-1.5293a2.9535,2.9535,0,0,0-1.957.7383v-.9844a3.7181,3.7181,0,0,1,2.039-.5625q2.1153,0,2.1153,2.2383Zm-.961-3.0351-1.4473.1992a2.35,2.35,0,0,0-1.0078.3311.9548.9548,0,0,0-.34.8408.916.916,0,0,0,.3135.7178,1.2115,1.2115,0,0,0,.8349.2783,1.5424,1.5424,0,0,0,1.1807-.501,1.79,1.79,0,0,0,.4658-1.2686Z" fill="#1e1e1e"/>
      <path d="M79.4629,254.8207H78.502v-1.0195h-.0235a2.2184,2.2184,0,0,1-2.0625,1.16,2.2411,2.2411,0,0,1-1.8076-.8057,3.305,3.305,0,0,1-.6768-2.1943,3.5959,3.5959,0,0,1,.75-2.3848A2.4737,2.4737,0,0,1,76.68,248.68a1.9232,1.9232,0,0,1,1.7988.9727h.0235v-3.7149h.9609Zm-.9609-2.7129v-.8847a1.7167,1.7167,0,0,0-.48-1.23,1.6117,1.6117,0,0,0-1.2188-.5039,1.66,1.66,0,0,0-1.3828.6445,2.8248,2.8248,0,0,0-.5039,1.7813,2.54,2.54,0,0,0,.4834,1.6377,1.58,1.58,0,0,0,1.2979.6006,1.6414,1.6414,0,0,0,1.3037-.58A2.1611,2.1611,0,0,0,78.502,252.1078Z" fill="#1e1e1e"/>
      <path d="M84.8242,254.8207v-8.4023h2.3906a2.613,2.613,0,0,1,1.7286.5332,1.7236,1.7236,0,0,1,.6386,1.3887,2.0437,2.0437,0,0,1-.3867,1.2422,2.0861,2.0861,0,0,1-1.0664.75v.0234a2.138,2.138,0,0,1,1.3594.6416,1.9736,1.9736,0,0,1,.51,1.4092,2.1969,2.1969,0,0,1-.7734,1.7461,2.8786,2.8786,0,0,1-1.9512.6679Zm.9844-7.5117v2.7129h1.0078a1.9141,1.9141,0,0,0,1.2715-.39,1.357,1.357,0,0,0,.4629-1.0987q0-1.2246-1.6113-1.2246Zm0,3.5977V253.93h1.3359a2.0019,2.0019,0,0,0,1.3448-.41,1.4053,1.4053,0,0,0,.4775-1.125q0-1.4883-2.0273-1.4883Z" fill="#1e1e1e"/>
      <path d="M95.8691,254.8207h-.9609v-.9375h-.0234a2.0118,2.0118,0,0,1-1.8457,1.0782,1.9727,1.9727,0,0,1-1.4034-.4746,1.6449,1.6449,0,0,1-.5068-1.26q0-1.6817,1.98-1.957l1.7988-.252q0-1.5292-1.2363-1.5293a2.9539,2.9539,0,0,0-1.9571.7383v-.9844a3.7186,3.7186,0,0,1,2.0391-.5625q2.1153,0,2.1152,2.2383Zm-.9609-3.0351-1.4473.1992a2.35,2.35,0,0,0-1.0078.3311.9548.9548,0,0,0-.34.8408.916.916,0,0,0,.3135.7178,1.2113,1.2113,0,0,0,.8349.2783,1.5424,1.5424,0,0,0,1.1807-.501,1.79,1.79,0,0,0,.4658-1.2686Z" fill="#1e1e1e"/>
      <path d="M98.6406,254.8207H97.68v-8.8828h.9609Z" fill="#1e1e1e"/>
      <path d="M104.8809,254.8207h-.961v-.9375h-.0234a2.0118,2.0118,0,0,1-1.8457,1.0782,1.9724,1.9724,0,0,1-1.4033-.4746,1.6446,1.6446,0,0,1-.5069-1.26q0-1.6817,1.98-1.957l1.7988-.252q0-1.5292-1.2363-1.5293a2.9535,2.9535,0,0,0-1.957.7383v-.9844a3.7181,3.7181,0,0,1,2.039-.5625q2.1153,0,2.1153,2.2383Zm-.961-3.0351-1.4472.1992a2.35,2.35,0,0,0-1.0079.3311.9548.9548,0,0,0-.34.8408.916.916,0,0,0,.3135.7178,1.2115,1.2115,0,0,0,.8349.2783,1.5423,1.5423,0,0,0,1.1807-.501,1.79,1.79,0,0,0,.4658-1.2686Z" fill="#1e1e1e"/>
      <path d="M111.6719,254.8207h-.961v-3.4218q0-1.91-1.3945-1.91a1.5128,1.5128,0,0,0-1.1924.542,2.0092,2.0092,0,0,0-.4717,1.3682v3.4218h-.9609v-6h.9609v.9961h.0235a2.1655,2.1655,0,0,1,1.9687-1.1367,1.8355,1.8355,0,0,1,1.5059.6358,2.832,2.832,0,0,1,.5215,1.8369Z" fill="#1e1e1e"/>
      <path d="M117.5723,254.5453a3.1221,3.1221,0,0,1-1.6407.4161,2.7162,2.7162,0,0,1-2.0712-.835,3.0258,3.0258,0,0,1-.7881-2.165,3.3266,3.3266,0,0,1,.85-2.3819,2.9721,2.9721,0,0,1,2.2676-.8994,3.1567,3.1567,0,0,1,1.3945.293v.9844a2.4434,2.4434,0,0,0-1.43-.4688,1.9319,1.9319,0,0,0-1.5088.6592,2.5011,2.5011,0,0,0-.5889,1.7314,2.3815,2.3815,0,0,0,.5538,1.6641,1.9085,1.9085,0,0,0,1.4853.6094,2.409,2.409,0,0,0,1.4766-.5215Z" fill="#1e1e1e"/>
      <path d="M123.8477,252.061h-4.2364a2.2441,2.2441,0,0,0,.5391,1.5468,1.8583,1.8583,0,0,0,1.418.545,2.9481,2.9481,0,0,0,1.8632-.668v.9023a3.4817,3.4817,0,0,1-2.0918.5743,2.536,2.536,0,0,1-1.998-.8174,3.3454,3.3454,0,0,1-.7266-2.3,3.2807,3.2807,0,0,1,.794-2.2822,2.5457,2.5457,0,0,1,1.9717-.8819,2.2557,2.2557,0,0,1,1.8222.7617,3.1759,3.1759,0,0,1,.6446,2.1153Zm-.9844-.8145a1.9549,1.9549,0,0,0-.4014-1.2949,1.3675,1.3675,0,0,0-1.0986-.4629,1.5523,1.5523,0,0,0-1.1543.4863,2.208,2.208,0,0,0-.586,1.2715Z" fill="#1e1e1e"/>
      <path d="M128.43,249.7934a1.1753,1.1753,0,0,0-.7266-.1934,1.2264,1.2264,0,0,0-1.0283.58,2.6819,2.6819,0,0,0-.4131,1.582v3.0586h-.9609v-6h.9609v1.2364h.0235a2.095,2.095,0,0,1,.6269-.9873,1.4294,1.4294,0,0,1,.9434-.3545,1.5684,1.5684,0,0,1,.5742.082Z" fill="#1e1e1e"/>
    </g>
    <g>
      <path d="M30.0635,159.1747,27.69,167.5771H26.5361l-1.7285-6.1406a3.8448,3.8448,0,0,1-.1347-.8555h-.0235a4.3378,4.3378,0,0,1-.1523.8437l-1.74,6.1524H21.6143l-2.461-8.4024h1.084l1.7871,6.4454a4.228,4.228,0,0,1,.1406.8437h.0293a4.9839,4.9839,0,0,1,.1817-.8437l1.8574-6.4454h.9434l1.7812,6.4922a4.7453,4.7453,0,0,1,.1406.7852h.0235a4.6986,4.6986,0,0,1,.1582-.8086l1.7168-6.4688Z" fill="#1e1e1e"/>
      <path d="M35.5361,164.8173H31.3a2.2439,2.2439,0,0,0,.5391,1.5469,1.8581,1.8581,0,0,0,1.4179.5449,2.9476,2.9476,0,0,0,1.8633-.668v.9024a3.4824,3.4824,0,0,1-2.0918.5742A2.5356,2.5356,0,0,1,31.03,166.9a3.3454,3.3454,0,0,1-.7266-2.3,3.2808,3.2808,0,0,1,.794-2.2822,2.5456,2.5456,0,0,1,1.9716-.8818,2.2558,2.2558,0,0,1,1.8223.7617,3.1757,3.1757,0,0,1,.6445,2.1152Zm-.9843-.8144a1.9552,1.9552,0,0,0-.4014-1.295,1.3678,1.3678,0,0,0-1.0986-.4628,1.5522,1.5522,0,0,0-1.1543.4863,2.2068,2.2068,0,0,0-.586,1.2715Z" fill="#1e1e1e"/>
      <path d="M37.9736,166.71H37.95v.8672h-.9609v-8.8828H37.95v3.9375h.0234a2.2723,2.2723,0,0,1,2.0743-1.1953,2.1992,2.1992,0,0,1,1.8076.8056,3.327,3.327,0,0,1,.6533,2.1592,3.7192,3.7192,0,0,1-.7324,2.4111,2.4385,2.4385,0,0,1-2.0039.9053A1.9736,1.9736,0,0,1,37.9736,166.71Zm-.0234-2.42v.8379a1.7838,1.7838,0,0,0,.4834,1.2627,1.7245,1.7245,0,0,0,2.5957-.15,3.0642,3.0642,0,0,0,.4951-1.8574,2.4191,2.4191,0,0,0-.4629-1.57,1.5318,1.5318,0,0,0-1.2539-.5683,1.7023,1.7023,0,0,0-1.3476.583A2.14,2.14,0,0,0,37.95,164.29Z" fill="#1e1e1e"/>
      <path d="M52.4287,160.0654H50.0029v7.5117h-.9843v-7.5117h-2.42v-.8907h5.83Z" fill="#1e1e1e"/>
      <path d="M54.11,160.0536a.6088.6088,0,0,1-.4395-.1757.5934.5934,0,0,1-.1816-.4453.6153.6153,0,0,1,.6211-.627.6208.6208,0,0,1,.4482.1787.6259.6259,0,0,1,0,.8877A.6153.6153,0,0,1,54.11,160.0536Zm.4687,7.5235h-.9609v-6h.9609Z" fill="#1e1e1e"/>
      <path d="M61.3467,164.8173H57.11a2.2443,2.2443,0,0,0,.539,1.5469,1.8583,1.8583,0,0,0,1.418.5449,2.9476,2.9476,0,0,0,1.8633-.668v.9024a3.4826,3.4826,0,0,1-2.0918.5742,2.5358,2.5358,0,0,1-1.9981-.8174,3.3453,3.3453,0,0,1-.7265-2.3,3.2808,3.2808,0,0,1,.7939-2.2822,2.5456,2.5456,0,0,1,1.9717-.8818,2.2556,2.2556,0,0,1,1.8222.7617,3.1758,3.1758,0,0,1,.6446,2.1152Zm-.9844-.8144a1.9552,1.9552,0,0,0-.4014-1.295,1.3675,1.3675,0,0,0-1.0986-.4628,1.5523,1.5523,0,0,0-1.1543.4863,2.2067,2.2067,0,0,0-.5859,1.2715Z" fill="#1e1e1e"/>
      <path d="M65.9287,162.55a1.1751,1.1751,0,0,0-.7266-.1933,1.2262,1.2262,0,0,0-1.0283.58,2.6816,2.6816,0,0,0-.4131,1.582v3.0586H62.8v-6h.9609v1.2363h.0235a2.095,2.095,0,0,1,.6269-.9873,1.43,1.43,0,0,1,.9434-.3545,1.5706,1.5706,0,0,1,.5742.082Z" fill="#1e1e1e"/>
      <path d="M24.5322,180.4374v-1.16a2.2534,2.2534,0,0,0,.4776.3164,3.8757,3.8757,0,0,0,.5859.2373,4.6626,4.6626,0,0,0,.6182.1494,3.4409,3.4409,0,0,0,.5742.0527,2.249,2.249,0,0,0,1.3564-.3369,1.2637,1.2637,0,0,0,.2989-1.5615,1.6828,1.6828,0,0,0-.4131-.46,4.11,4.11,0,0,0-.624-.3984q-.36-.19-.7764-.4014-.4395-.2226-.82-.4511a3.5569,3.5569,0,0,1-.6621-.5039,2.101,2.101,0,0,1-.4424-.6241,2.1267,2.1267,0,0,1,.0908-1.8164,2.1618,2.1618,0,0,1,.6621-.7,3,3,0,0,1,.9346-.41,4.2762,4.2762,0,0,1,1.0693-.1348,4.0985,4.0985,0,0,1,1.8106.2988v1.1075a3.2818,3.2818,0,0,0-1.91-.5157,3.1428,3.1428,0,0,0-.6445.0674,1.82,1.82,0,0,0-.5742.22,1.2732,1.2732,0,0,0-.41.3926,1.042,1.042,0,0,0-.1582.586,1.2058,1.2058,0,0,0,.12.5566,1.3646,1.3646,0,0,0,.3545.4277,3.5344,3.5344,0,0,0,.5713.375q.3369.1817.7764.3985.451.2226.8554.4687a3.91,3.91,0,0,1,.709.5449,2.4227,2.4227,0,0,1,.4834.6622,1.86,1.86,0,0,1,.1787.832,2.11,2.11,0,0,1-.2431,1.0517,1.9941,1.9941,0,0,1-.6563.7,2.8669,2.8669,0,0,1-.9521.39,5.2137,5.2137,0,0,1-1.1368.12,4.6256,4.6256,0,0,1-.4921-.0322q-.2931-.0323-.5977-.0938a4.8812,4.8812,0,0,1-.5771-.1523A1.7948,1.7948,0,0,1,24.5322,180.4374Z" fill="#1e1e1e"/>
      <path d="M36.0225,180.7773h-.961v-.9492h-.0234a1.9734,1.9734,0,0,1-1.8516,1.09q-2.1446,0-2.1445-2.5547v-3.5859h.9551v3.4336q0,1.8984,1.4531,1.8984a1.47,1.47,0,0,0,1.1572-.5185,1.9839,1.9839,0,0,0,.4541-1.3565v-3.457h.961Z" fill="#1e1e1e"/>
      <path d="M38.9463,179.91h-.0234v.8672h-.961v-8.8828h.961v3.9375h.0234a2.2722,2.2722,0,0,1,2.0742-1.1953,2.1991,2.1991,0,0,1,1.8076.8056,3.3265,3.3265,0,0,1,.6533,2.1592,3.7187,3.7187,0,0,1-.7324,2.4111,2.4386,2.4386,0,0,1-2.0039.9053A1.9733,1.9733,0,0,1,38.9463,179.91Zm-.0234-2.42v.8379a1.7838,1.7838,0,0,0,.4834,1.2627,1.7245,1.7245,0,0,0,2.5957-.1495,3.0648,3.0648,0,0,0,.4951-1.8574,2.4191,2.4191,0,0,0-.4629-1.57,1.5319,1.5319,0,0,0-1.2539-.5683,1.7026,1.7026,0,0,0-1.3477.583A2.1406,2.1406,0,0,0,38.9229,177.49Z" fill="#1e1e1e"/>
      <path d="M49.9971,180.7773h-.961v-3.4219q0-1.91-1.3945-1.91a1.5127,1.5127,0,0,0-1.1924.5419,2.0094,2.0094,0,0,0-.4717,1.3682v3.4219h-.9609v-6h.9609v.9961h.0235a2.1655,2.1655,0,0,1,1.9687-1.1367,1.8358,1.8358,0,0,1,1.5059.6357,2.832,2.832,0,0,1,.5215,1.8369Z" fill="#1e1e1e"/>
      <path d="M56.63,178.0175H52.3936a2.2443,2.2443,0,0,0,.539,1.5469,1.8583,1.8583,0,0,0,1.418.5449,2.9476,2.9476,0,0,0,1.8633-.668v.9024a3.4826,3.4826,0,0,1-2.0918.5742,2.5361,2.5361,0,0,1-1.9981-.8174,3.3453,3.3453,0,0,1-.7265-2.3,3.2808,3.2808,0,0,1,.7939-2.2822,2.5456,2.5456,0,0,1,1.9717-.8818,2.2559,2.2559,0,0,1,1.8223.7617,3.1763,3.1763,0,0,1,.6445,2.1152Zm-.9844-.8144a1.9552,1.9552,0,0,0-.4014-1.295,1.3672,1.3672,0,0,0-1.0986-.4628,1.5523,1.5523,0,0,0-1.1543.4863,2.2067,2.2067,0,0,0-.5859,1.2715Z" fill="#1e1e1e"/>
      <path d="M60.8662,180.7187a1.8529,1.8529,0,0,1-.8965.1875q-1.5762,0-1.5761-1.7578v-3.5508H57.3623v-.82h1.0313v-1.4649l.9609-.31v1.7754h1.5117v.82H59.3545v3.3809a1.4017,1.4017,0,0,0,.2051.8613.8183.8183,0,0,0,.68.2578,1.01,1.01,0,0,0,.6269-.1992Z" fill="#1e1e1e"/>
    </g>
    <g>
      <path d="M124.7451,46.7914h-2.4258v7.5118h-.9843V46.7914h-2.42v-.8906h5.83Z" fill="#1e1e1e"/>
      <path d="M131.2256,53.9516a4.9283,4.9283,0,0,1-2.32.4922,3.742,3.742,0,0,1-2.8711-1.1543,4.259,4.259,0,0,1-1.0781-3.0293,4.4644,4.4644,0,0,1,1.2128-3.2578,4.1168,4.1168,0,0,1,3.0762-1.2422,4.9318,4.9318,0,0,1,1.98.3457v1.0488a4.0167,4.0167,0,0,0-1.9922-.5039,3.0572,3.0572,0,0,0-2.3467.9668,3.6423,3.6423,0,0,0-.8994,2.584,3.4657,3.4657,0,0,0,.8408,2.4463,2.8612,2.8612,0,0,0,2.2061.9111,4.1387,4.1387,0,0,0,2.1914-.5625Z" fill="#1e1e1e"/>
      <path d="M133.9209,51.1274v3.1758h-.9844V45.9008h2.3086a3.0472,3.0472,0,0,1,2.0889.6563,2.3432,2.3432,0,0,1,.7412,1.8515,2.5468,2.5468,0,0,1-.8232,1.9571,3.1458,3.1458,0,0,1-2.2237.7617Zm0-4.336v3.4454h1.0312a2.3054,2.3054,0,0,0,1.5557-.4659,1.6491,1.6491,0,0,0,.5361-1.3154q0-1.6641-1.9687-1.6641Z" fill="#1e1e1e"/>
      <path d="M143.9287,51.1274v3.1758h-.9844V45.9008h2.3086a3.047,3.047,0,0,1,2.0889.6563,2.3432,2.3432,0,0,1,.7412,1.8515,2.5468,2.5468,0,0,1-.8232,1.9571,3.1458,3.1458,0,0,1-2.2237.7617Zm0-4.336v3.4454H144.96a2.3053,2.3053,0,0,0,1.5556-.4659,1.6492,1.6492,0,0,0,.5362-1.3154q0-1.6641-1.9688-1.6641Z" fill="#1e1e1e"/>
      <path d="M151.5986,54.4438a2.7832,2.7832,0,0,1-2.124-.8408,3.1145,3.1145,0,0,1-.7939-2.23,3.2451,3.2451,0,0,1,.8261-2.3614,2.97,2.97,0,0,1,2.2325-.85,2.691,2.691,0,0,1,2.0947.8262,3.2761,3.2761,0,0,1,.7529,2.291,3.2232,3.2232,0,0,1-.8115,2.3A2.8435,2.8435,0,0,1,151.5986,54.4438Zm.07-5.4727a1.8279,1.8279,0,0,0-1.4648.63,2.5867,2.5867,0,0,0-.5391,1.7373,2.4466,2.4466,0,0,0,.545,1.6817,1.8519,1.8519,0,0,0,1.4589.6152,1.757,1.757,0,0,0,1.4327-.6035,2.62,2.62,0,0,0,.5009-1.7168,2.6645,2.6645,0,0,0-.5009-1.7344A1.7493,1.7493,0,0,0,151.6689,48.9711Z" fill="#1e1e1e"/>
      <path d="M159.251,49.2758a1.1753,1.1753,0,0,0-.7266-.1933,1.2263,1.2263,0,0,0-1.0283.58,2.6822,2.6822,0,0,0-.4131,1.5821v3.0586h-.9609v-6h.9609V49.54h.0234a2.0951,2.0951,0,0,1,.627-.9873,1.43,1.43,0,0,1,.9434-.3545,1.5684,1.5684,0,0,1,.5742.082Z" fill="#1e1e1e"/>
      <path d="M163.0771,54.2446a1.8522,1.8522,0,0,1-.8964.1875q-1.5762,0-1.5762-1.7578V49.1235h-1.0313v-.82h1.0313V46.8383l.9609-.31v1.7754h1.5117v.82h-1.5117v3.3808a1.4018,1.4018,0,0,0,.2051.8614.8186.8186,0,0,0,.68.2578,1.01,1.01,0,0,0,.6269-.1992Z" fill="#1e1e1e"/>
      <path d="M167.2021,51.9594a2.2363,2.2363,0,0,1,.1055-.6709,2.4286,2.4286,0,0,1,.3018-.63,2.4957,2.4957,0,0,1,.4863-.5332,2.3191,2.3191,0,0,1,.6592-.3808,2.4912,2.4912,0,0,1-.8672-.7823,1.85,1.85,0,0,1-.3223-1.0576,2.0389,2.0389,0,0,1,.6739-1.5351,2.2878,2.2878,0,0,1,.75-.4483,2.67,2.67,0,0,1,.9375-.1611,2.6436,2.6436,0,0,1,.9433.1641,2.3271,2.3271,0,0,1,.75.4511,2.0249,2.0249,0,0,1,.4922.68,2.0546,2.0546,0,0,1,.1758.85,1.8492,1.8492,0,0,1-.3223,1.0576,2.5228,2.5228,0,0,1-.8554.7823,2.2983,2.2983,0,0,1,.65.3808,2.5339,2.5339,0,0,1,.4834.5332,2.4286,2.4286,0,0,1,.3018.63,2.2363,2.2363,0,0,1,.1055.6709,2.4938,2.4938,0,0,1-.1993,1.0078,2.2523,2.2523,0,0,1-.56.7823,2.5863,2.5863,0,0,1-.8613.5068,3.22,3.22,0,0,1-1.1045.1816,3.176,3.176,0,0,1-1.0957-.1816,2.6243,2.6243,0,0,1-.8614-.5068,2.2676,2.2676,0,0,1-.5654-.7823A2.4635,2.4635,0,0,1,167.2021,51.9594Zm1.043-.082a1.987,1.987,0,0,0,.12.709,1.5284,1.5284,0,0,0,.34.539,1.4831,1.4831,0,0,0,.5332.3428,1.9257,1.9257,0,0,0,.6943.12,1.83,1.83,0,0,0,.68-.123,1.5859,1.5859,0,0,0,.5361-.3457,1.5556,1.5556,0,0,0,.3516-.5391,1.8849,1.8849,0,0,0,.126-.7031,1.7978,1.7978,0,0,0-.12-.6592,1.6514,1.6514,0,0,0-.3428-.542,1.6112,1.6112,0,0,0-.5332-.3691,1.7336,1.7336,0,0,0-.6973-.1348,1.7532,1.7532,0,0,0-.6709.126,1.6066,1.6066,0,0,0-.5332.3515,1.6292,1.6292,0,0,0-.3545.5391A1.7942,1.7942,0,0,0,168.2451,51.8774Zm.2988-3.8965a1.3948,1.3948,0,0,0,.85,1.2978,1.3847,1.3847,0,0,0,1.081-.0029,1.4013,1.4013,0,0,0,.4424-.3017,1.462,1.462,0,0,0,.2988-.4454,1.3536,1.3536,0,0,0,.1113-.5478,1.438,1.438,0,0,0-.1083-.5625,1.3811,1.3811,0,0,0-1.2862-.85,1.398,1.398,0,0,0-.5654.1113,1.3661,1.3661,0,0,0-.44.3018,1.3189,1.3189,0,0,0-.2841.4482A1.5132,1.5132,0,0,0,168.5439,47.9809Z" fill="#1e1e1e"/>
      <path d="M179.12,50.0668a8.2574,8.2574,0,0,1-.19,1.8692,4.3571,4.3571,0,0,1-.5508,1.374,2.4787,2.4787,0,0,1-.8848.85,2.4214,2.4214,0,0,1-1.1923.29,2.2615,2.2615,0,0,1-1.128-.2783,2.3632,2.3632,0,0,1-.8349-.8115,4.1129,4.1129,0,0,1-.5157-1.31,8.1023,8.1023,0,0,1-.1757-1.7783,9.1693,9.1693,0,0,1,.1845-1.9453,4.45,4.45,0,0,1,.542-1.415,2.4128,2.4128,0,0,1,.8877-.8614,2.493,2.493,0,0,1,1.2158-.29Q179.12,45.76,179.12,50.0668Zm-.9844.0938q0-3.5859-1.705-3.586-1.7989,0-1.7989,3.65,0,3.4044,1.7637,3.4043Q178.1358,53.6293,178.1357,50.1606Z" fill="#1e1e1e"/>
    </g>
    <g>
      <path d="M103.8154,128.9594a2.2363,2.2363,0,0,1,.1055-.6709,2.4286,2.4286,0,0,1,.3018-.63,2.4957,2.4957,0,0,1,.4863-.5332,2.3177,2.3177,0,0,1,.6592-.3808,2.4912,2.4912,0,0,1-.8672-.7823,1.8492,1.8492,0,0,1-.3223-1.0576,2.04,2.04,0,0,1,.1787-.8554,2.0611,2.0611,0,0,1,.4951-.68,2.29,2.29,0,0,1,.75-.4483,2.6711,2.6711,0,0,1,.9375-.1611,2.6441,2.6441,0,0,1,.9434.1641,2.3271,2.3271,0,0,1,.75.4511,2.0263,2.0263,0,0,1,.4922.68,2.0546,2.0546,0,0,1,.1758.85,1.85,1.85,0,0,1-.3223,1.0576,2.5222,2.5222,0,0,1-.8555.7823,2.2974,2.2974,0,0,1,.65.3808,2.5339,2.5339,0,0,1,.4834.5332,2.4286,2.4286,0,0,1,.3018.63,2.2362,2.2362,0,0,1,.1054.6709,2.4955,2.4955,0,0,1-.1992,1.0078,2.2523,2.2523,0,0,1-.5595.7823,2.5858,2.5858,0,0,1-.8614.5068,3.2192,3.2192,0,0,1-1.1045.1816,3.1769,3.1769,0,0,1-1.0957-.1816,2.6248,2.6248,0,0,1-.8613-.5068,2.2663,2.2663,0,0,1-.5654-.7823A2.4635,2.4635,0,0,1,103.8154,128.9594Zm1.043-.082a1.9848,1.9848,0,0,0,.12.709,1.5284,1.5284,0,0,0,.34.539,1.4822,1.4822,0,0,0,.5332.3428,1.9253,1.9253,0,0,0,.6943.12,1.83,1.83,0,0,0,.68-.123,1.5859,1.5859,0,0,0,.5361-.3457,1.5556,1.5556,0,0,0,.3516-.5391,1.8849,1.8849,0,0,0,.126-.7031,1.7958,1.7958,0,0,0-.12-.6592,1.65,1.65,0,0,0-.3427-.542,1.6112,1.6112,0,0,0-.5332-.3691,1.7339,1.7339,0,0,0-.6973-.1348,1.7532,1.7532,0,0,0-.6709.126,1.6066,1.6066,0,0,0-.5332.3515,1.6276,1.6276,0,0,0-.3545.5391A1.7942,1.7942,0,0,0,104.8584,128.8774Zm.2988-3.8965a1.395,1.395,0,0,0,.85,1.2978,1.3849,1.3849,0,0,0,1.0811-.0029,1.4013,1.4013,0,0,0,.4424-.3017,1.462,1.462,0,0,0,.2988-.4454,1.3536,1.3536,0,0,0,.1113-.5478,1.4362,1.4362,0,0,0-.1084-.5625,1.3809,1.3809,0,0,0-1.2861-.85,1.398,1.398,0,0,0-.5654.1113,1.365,1.365,0,0,0-.44.3018,1.3191,1.3191,0,0,0-.2842.4482A1.5153,1.5153,0,0,0,105.1572,124.9809Z" fill="#1e1e1e"/>
      <path d="M115.7334,127.0668a8.2574,8.2574,0,0,1-.19,1.8692,4.3571,4.3571,0,0,1-.5508,1.374,2.48,2.48,0,0,1-.8848.85,2.4215,2.4215,0,0,1-1.1924.29,2.2614,2.2614,0,0,1-1.1279-.2783,2.3635,2.3635,0,0,1-.835-.8115,4.1152,4.1152,0,0,1-.5156-1.31,8.0958,8.0958,0,0,1-.1758-1.7783,9.1688,9.1688,0,0,1,.1846-1.9453,4.45,4.45,0,0,1,.542-1.415,2.4128,2.4128,0,0,1,.8877-.8614,2.493,2.493,0,0,1,1.2158-.29Q115.7334,122.76,115.7334,127.0668Zm-.9844.0938q0-3.5859-1.7051-3.586-1.7988,0-1.7988,3.65,0,3.4044,1.7637,3.4043Q114.749,130.6293,114.749,127.1606Z" fill="#1e1e1e"/>
    </g>
    <g>
      <path d="M143.4854,128.9594a2.2362,2.2362,0,0,1,.1054-.6709,2.4286,2.4286,0,0,1,.3018-.63,2.4957,2.4957,0,0,1,.4863-.5332,2.3191,2.3191,0,0,1,.6592-.3808,2.4912,2.4912,0,0,1-.8672-.7823,1.85,1.85,0,0,1-.3223-1.0576,2.0389,2.0389,0,0,1,.6739-1.5351,2.2878,2.2878,0,0,1,.75-.4483,2.67,2.67,0,0,1,.9375-.1611,2.6436,2.6436,0,0,1,.9433.1641,2.3271,2.3271,0,0,1,.75.4511,2.0249,2.0249,0,0,1,.4922.68,2.0546,2.0546,0,0,1,.1758.85,1.8492,1.8492,0,0,1-.3223,1.0576,2.5228,2.5228,0,0,1-.8554.7823,2.2983,2.2983,0,0,1,.65.3808,2.5312,2.5312,0,0,1,.4834.5332,2.4286,2.4286,0,0,1,.3018.63,2.2363,2.2363,0,0,1,.1055.6709,2.4955,2.4955,0,0,1-.1992,1.0078,2.2539,2.2539,0,0,1-.56.7823,2.5863,2.5863,0,0,1-.8613.5068,3.22,3.22,0,0,1-1.1045.1816,3.176,3.176,0,0,1-1.0957-.1816,2.6243,2.6243,0,0,1-.8614-.5068,2.2676,2.2676,0,0,1-.5654-.7823A2.4634,2.4634,0,0,1,143.4854,128.9594Zm1.0429-.082a1.987,1.987,0,0,0,.12.709,1.5284,1.5284,0,0,0,.34.539,1.4831,1.4831,0,0,0,.5332.3428,1.9257,1.9257,0,0,0,.6943.12,1.83,1.83,0,0,0,.68-.123,1.5849,1.5849,0,0,0,.5361-.3457,1.5556,1.5556,0,0,0,.3516-.5391,1.8849,1.8849,0,0,0,.126-.7031,1.7978,1.7978,0,0,0-.12-.6592,1.6514,1.6514,0,0,0-.3428-.542,1.61,1.61,0,0,0-.5332-.3691,1.7336,1.7336,0,0,0-.6973-.1348,1.7532,1.7532,0,0,0-.6709.126,1.6066,1.6066,0,0,0-.5332.3515,1.6292,1.6292,0,0,0-.3545.5391A1.7942,1.7942,0,0,0,144.5283,128.8774Zm.2988-3.8965a1.3948,1.3948,0,0,0,.85,1.2978,1.3847,1.3847,0,0,0,1.081-.0029,1.4013,1.4013,0,0,0,.4424-.3017,1.462,1.462,0,0,0,.2988-.4454,1.3537,1.3537,0,0,0,.1114-.5478,1.438,1.438,0,0,0-.1084-.5625,1.3811,1.3811,0,0,0-1.2862-.85,1.398,1.398,0,0,0-.5654.1113,1.3661,1.3661,0,0,0-.4395.3018,1.3189,1.3189,0,0,0-.2841.4482A1.5153,1.5153,0,0,0,144.8271,124.9809Z" fill="#1e1e1e"/>
      <path d="M155.4033,127.0668a8.2574,8.2574,0,0,1-.19,1.8692,4.3571,4.3571,0,0,1-.5508,1.374,2.4787,2.4787,0,0,1-.8848.85,2.4214,2.4214,0,0,1-1.1923.29,2.2615,2.2615,0,0,1-1.128-.2783,2.3632,2.3632,0,0,1-.8349-.8115,4.1129,4.1129,0,0,1-.5157-1.31,8.1023,8.1023,0,0,1-.1757-1.7783,9.1693,9.1693,0,0,1,.1845-1.9453,4.45,4.45,0,0,1,.542-1.415,2.4128,2.4128,0,0,1,.8877-.8614,2.493,2.493,0,0,1,1.2158-.29Q155.4034,122.76,155.4033,127.0668Zm-.9844.0938q0-3.5859-1.705-3.586-1.7989,0-1.7989,3.65,0,3.4044,1.7637,3.4043Q154.419,130.6293,154.4189,127.1606Z" fill="#1e1e1e"/>
    </g>
    <g>
      <path d="M184.0586,128.9594a2.2363,2.2363,0,0,1,.1055-.6709,2.4315,2.4315,0,0,1,.3017-.63,2.501,2.501,0,0,1,.4863-.5332,2.3191,2.3191,0,0,1,.6592-.3808,2.4921,2.4921,0,0,1-.8672-.7823,1.85,1.85,0,0,1-.3222-1.0576,2.0389,2.0389,0,0,1,.1787-.8554,2.06,2.06,0,0,1,.4951-.68,2.2878,2.2878,0,0,1,.75-.4483,2.8011,2.8011,0,0,1,1.8809.003,2.3292,2.3292,0,0,1,.75.4511,2.0263,2.0263,0,0,1,.4922.68,2.0561,2.0561,0,0,1,.1757.85,1.85,1.85,0,0,1-.3222,1.0576,2.5231,2.5231,0,0,1-.8555.7823,2.2974,2.2974,0,0,1,.65.3808,2.5366,2.5366,0,0,1,.4834.5332,2.4315,2.4315,0,0,1,.3017.63,2.2332,2.2332,0,0,1,.1055.6709,2.4955,2.4955,0,0,1-.1992,1.0078,2.2513,2.2513,0,0,1-.56.7823,2.5843,2.5843,0,0,1-.8613.5068,3.22,3.22,0,0,1-1.1045.1816,3.1765,3.1765,0,0,1-1.0957-.1816,2.6248,2.6248,0,0,1-.8613-.5068,2.2679,2.2679,0,0,1-.5655-.7823A2.4651,2.4651,0,0,1,184.0586,128.9594Zm1.043-.082a1.9848,1.9848,0,0,0,.12.709,1.5282,1.5282,0,0,0,.34.539,1.4831,1.4831,0,0,0,.5332.3428,1.9262,1.9262,0,0,0,.6944.12,1.83,1.83,0,0,0,.68-.123,1.5859,1.5859,0,0,0,.5361-.3457,1.554,1.554,0,0,0,.3515-.5391,1.8849,1.8849,0,0,0,.126-.7031,1.7958,1.7958,0,0,0-.12-.6592,1.65,1.65,0,0,0-.3428-.542,1.6091,1.6091,0,0,0-.5332-.3691,1.7331,1.7331,0,0,0-.6972-.1348,1.7529,1.7529,0,0,0-.6709.126,1.6066,1.6066,0,0,0-.5332.3515,1.6276,1.6276,0,0,0-.3545.5391A1.7923,1.7923,0,0,0,185.1016,128.8774Zm.2988-3.8965a1.3946,1.3946,0,0,0,.85,1.2978,1.3849,1.3849,0,0,0,1.0811-.0029,1.4008,1.4008,0,0,0,.4423-.3017,1.4641,1.4641,0,0,0,.2989-.4454,1.3536,1.3536,0,0,0,.1113-.5478,1.4362,1.4362,0,0,0-.1084-.5625,1.3811,1.3811,0,0,0-1.2861-.85,1.3985,1.3985,0,0,0-.5655.1113,1.3646,1.3646,0,0,0-.4394.3018,1.3176,1.3176,0,0,0-.2842.4482A1.5153,1.5153,0,0,0,185.4,124.9809Z" fill="#1e1e1e"/>
      <path d="M195.9766,127.0668a8.2514,8.2514,0,0,1-.19,1.8692,4.3547,4.3547,0,0,1-.5507,1.374,2.48,2.48,0,0,1-.8848.85,2.4218,2.4218,0,0,1-1.1924.29,2.2611,2.2611,0,0,1-1.1279-.2783,2.3635,2.3635,0,0,1-.835-.8115,4.1152,4.1152,0,0,1-.5156-1.31,8.0958,8.0958,0,0,1-.1758-1.7783,9.1623,9.1623,0,0,1,.1846-1.9453,4.4472,4.4472,0,0,1,.542-1.415,2.4121,2.4121,0,0,1,.8877-.8614,2.493,2.493,0,0,1,1.2158-.29Q195.9765,122.76,195.9766,127.0668Zm-.9844.0938q0-3.5859-1.7051-3.586-1.7988,0-1.7988,3.65,0,3.4044,1.7637,3.4043Q194.9922,130.6293,194.9922,127.1606Z" fill="#1e1e1e"/>
    </g>
    <g>
      <path d="M147.0918,182.4013l-3.1113,8.4023h-1.084l-3.0469-8.4023h1.0957l2.3262,6.6621a3.9609,3.9609,0,0,1,.17.7442h.0234a3.65,3.65,0,0,1,.1934-.7559l2.3731-6.65Z" fill="#1e1e1e"/>
      <path d="M156.8652,190.8036h-.9785v-5.6367q0-.668.0821-1.6347h-.0235a5.2211,5.2211,0,0,1-.2519.8144l-2.8711,6.457h-.4805l-2.8652-6.41a5.0116,5.0116,0,0,1-.252-.8613h-.0234q.0468.5038.0468,1.6464v5.625h-.9492v-8.4023H149.6l2.5781,5.8594a7.4918,7.4918,0,0,1,.3868,1.0078H152.6q.252-.6913.4043-1.0313l2.6309-5.8359h1.23Z" fill="#1e1e1e"/>
    </g>
    <g>
      <path d="M94.47,182.4013l-3.1113,8.4023h-1.084l-3.0469-8.4023h1.0957l2.3262,6.6621a3.9531,3.9531,0,0,1,.17.7442h.0235a3.6493,3.6493,0,0,1,.1933-.7559l2.3731-6.65Z" fill="#1e1e1e"/>
      <path d="M104.2432,190.8036h-.9786v-5.6367q0-.668.0821-1.6347h-.0235a5.2211,5.2211,0,0,1-.2519.8144l-2.8711,6.457h-.48l-2.8652-6.41a5.03,5.03,0,0,1-.252-.8613h-.0234q.0469.5038.0469,1.6464v5.625h-.9492v-8.4023h1.3007l2.5782,5.8594a7.5019,7.5019,0,0,1,.3867,1.0078h.0351q.252-.6913.4043-1.0313l2.6309-5.8359h1.2305Z" fill="#1e1e1e"/>
    </g>
    <g>
      <path d="M199.47,182.4013l-3.1113,8.4023h-1.084l-3.0469-8.4023h1.0957l2.3262,6.6621a3.9531,3.9531,0,0,1,.17.7442h.0235a3.6493,3.6493,0,0,1,.1933-.7559l2.3731-6.65Z" fill="#1e1e1e"/>
      <path d="M209.2432,190.8036h-.9786v-5.6367q0-.668.0821-1.6347h-.0235a5.2211,5.2211,0,0,1-.2519.8144l-2.8711,6.457H204.72l-2.8652-6.41a5.03,5.03,0,0,1-.252-.8613h-.0234q.0469.5038.0469,1.6464v5.625h-.9492v-8.4023h1.3007l2.5782,5.8594a7.5019,7.5019,0,0,1,.3867,1.0078h.0351q.252-.6913.4043-1.0313l2.6309-5.8359h1.2305Z" fill="#1e1e1e"/>
    </g>
    <g>
      <path d="M21.1426,313.0771v-8.4024h2.3906a2.6132,2.6132,0,0,1,1.7285.5332,1.7233,1.7233,0,0,1,.6387,1.3887,2.0435,2.0435,0,0,1-.3867,1.2422,2.085,2.085,0,0,1-1.0664.75v.0234a2.1375,2.1375,0,0,1,1.3593.6416,1.9734,1.9734,0,0,1,.51,1.4092,2.1968,2.1968,0,0,1-.7734,1.7461,2.8789,2.8789,0,0,1-1.9512.668Zm.9844-7.5117v2.7129h1.0078a1.9138,1.9138,0,0,0,1.2715-.39,1.3572,1.3572,0,0,0,.4628-1.0986q0-1.2246-1.6113-1.2246Zm0,3.5976v3.0235h1.3359a2.0016,2.0016,0,0,0,1.3447-.41,1.4048,1.4048,0,0,0,.4776-1.125q0-1.4883-2.0274-1.4883Z" fill="#1e1e1e"/>
      <path d="M32.7441,313.0771h-.9609v-.9492H31.76a1.9735,1.9735,0,0,1-1.8516,1.09q-2.1446,0-2.1445-2.5547v-3.5859h.9551v3.4336q0,1.8984,1.4531,1.8984a1.47,1.47,0,0,0,1.1572-.5185,1.9844,1.9844,0,0,0,.4541-1.3565v-3.457h.9609Z" fill="#1e1e1e"/>
      <path d="M34.32,312.86V311.829a2.8434,2.8434,0,0,0,1.7285.58q1.2657,0,1.2657-.8437a.733.733,0,0,0-.1084-.4073,1.0829,1.0829,0,0,0-.293-.2959,2.2615,2.2615,0,0,0-.4336-.2314q-.249-.1026-.5361-.2139a6.88,6.88,0,0,1-.7-.3193,2.1118,2.1118,0,0,1-.5039-.3633,1.3513,1.3513,0,0,1-.3047-.46,1.6268,1.6268,0,0,1-.1026-.6036,1.4336,1.4336,0,0,1,.1934-.747,1.7153,1.7153,0,0,1,.5156-.545,2.4067,2.4067,0,0,1,.7354-.331,3.2622,3.2622,0,0,1,.8525-.1113,3.4419,3.4419,0,0,1,1.3945.2695v.9726a2.7181,2.7181,0,0,0-1.5234-.4335,1.7809,1.7809,0,0,0-.4863.0615,1.19,1.19,0,0,0-.3721.1728.7981.7981,0,0,0-.24.2666.7017.7017,0,0,0-.085.3428.8214.8214,0,0,0,.085.3926.8626.8626,0,0,0,.249.2812,1.9016,1.9016,0,0,0,.3984.2227q.2345.1.5332.2168a7.3859,7.3859,0,0,1,.7149.3135,2.4526,2.4526,0,0,1,.539.3632,1.42,1.42,0,0,1,.3428.4659,1.5015,1.5015,0,0,1,.12.6269,1.4781,1.4781,0,0,1-.1963.7735,1.6822,1.6822,0,0,1-.5244.5449,2.402,2.402,0,0,1-.7558.3222,3.728,3.728,0,0,1-.8965.1055A3.4039,3.4039,0,0,1,34.32,312.86Z" fill="#1e1e1e"/>
      <path d="M40.2676,305.5536a.6088.6088,0,0,1-.44-.1757.5934.5934,0,0,1-.1816-.4453.6153.6153,0,0,1,.6211-.627.62.62,0,0,1,.4482.1787.6259.6259,0,0,1,0,.8877A.615.615,0,0,1,40.2676,305.5536Zm.4687,7.5235h-.9609v-6h.9609Z" fill="#1e1e1e"/>
      <path d="M47.6621,313.0771h-.9609v-3.4219q0-1.91-1.3946-1.91a1.5125,1.5125,0,0,0-1.1923.5419,2.0089,2.0089,0,0,0-.4717,1.3682v3.4219h-.961v-6h.961v.9961h.0234a2.1656,2.1656,0,0,1,1.9688-1.1367,1.8356,1.8356,0,0,1,1.5058.6357,2.8315,2.8315,0,0,1,.5215,1.8369Z" fill="#1e1e1e"/>
      <path d="M54.2949,310.3173H50.0586a2.2439,2.2439,0,0,0,.5391,1.5469,1.8581,1.8581,0,0,0,1.4179.5449,2.9476,2.9476,0,0,0,1.8633-.668v.9024a3.4824,3.4824,0,0,1-2.0918.5742,2.5356,2.5356,0,0,1-1.998-.8174,3.3454,3.3454,0,0,1-.7266-2.3,3.2808,3.2808,0,0,1,.7939-2.2822,2.5458,2.5458,0,0,1,1.9717-.8818,2.2558,2.2558,0,0,1,1.8223.7617,3.1757,3.1757,0,0,1,.6445,2.1152Zm-.9844-.8144a1.9551,1.9551,0,0,0-.4013-1.295,1.3679,1.3679,0,0,0-1.0987-.4628,1.5521,1.5521,0,0,0-1.1542.4863,2.2062,2.2062,0,0,0-.586,1.2715Z" fill="#1e1e1e"/>
      <path d="M55.3848,312.86V311.829a2.8432,2.8432,0,0,0,1.7285.58q1.2655,0,1.2656-.8437a.7321.7321,0,0,0-.1084-.4073,1.0814,1.0814,0,0,0-.293-.2959,2.2555,2.2555,0,0,0-.4336-.2314q-.249-.1026-.5361-.2139a6.9,6.9,0,0,1-.7-.3193,2.1138,2.1138,0,0,1-.5039-.3633,1.3527,1.3527,0,0,1-.3047-.46,1.6289,1.6289,0,0,1-.1025-.6036,1.4335,1.4335,0,0,1,.1933-.747,1.7156,1.7156,0,0,1,.5157-.545,2.405,2.405,0,0,1,.7353-.331,3.2629,3.2629,0,0,1,.8526-.1113,3.4423,3.4423,0,0,1,1.3945.2695v.9726a2.7181,2.7181,0,0,0-1.5234-.4335,1.7822,1.7822,0,0,0-.4864.0615,1.19,1.19,0,0,0-.372.1728.7985.7985,0,0,0-.24.2666.7027.7027,0,0,0-.0849.3428.8226.8226,0,0,0,.0849.3926.8649.8649,0,0,0,.249.2812,1.9,1.9,0,0,0,.3985.2227q.2343.1.5332.2168a7.3835,7.3835,0,0,1,.7148.3135,2.451,2.451,0,0,1,.5391.3632,1.4209,1.4209,0,0,1,.3428.4659,1.503,1.503,0,0,1,.12.6269,1.4781,1.4781,0,0,1-.1963.7735,1.6843,1.6843,0,0,1-.5244.5449,2.4025,2.4025,0,0,1-.7559.3222,3.7274,3.7274,0,0,1-.8965.1055A3.4035,3.4035,0,0,1,55.3848,312.86Z" fill="#1e1e1e"/>
      <path d="M60.4766,312.86V311.829a2.8432,2.8432,0,0,0,1.7285.58q1.2655,0,1.2656-.8437a.7321.7321,0,0,0-.1084-.4073,1.0814,1.0814,0,0,0-.293-.2959,2.2555,2.2555,0,0,0-.4336-.2314q-.249-.1026-.5361-.2139a6.9,6.9,0,0,1-.7-.3193,2.1138,2.1138,0,0,1-.5039-.3633,1.3527,1.3527,0,0,1-.3047-.46,1.6289,1.6289,0,0,1-.1025-.6036,1.4335,1.4335,0,0,1,.1933-.747,1.7145,1.7145,0,0,1,.5157-.545,2.405,2.405,0,0,1,.7353-.331,3.2629,3.2629,0,0,1,.8526-.1113,3.4423,3.4423,0,0,1,1.3945.2695v.9726a2.7181,2.7181,0,0,0-1.5234-.4335,1.7822,1.7822,0,0,0-.4864.0615,1.19,1.19,0,0,0-.372.1728.7985.7985,0,0,0-.24.2666.7027.7027,0,0,0-.0849.3428.8226.8226,0,0,0,.0849.3926.8649.8649,0,0,0,.249.2812,1.9,1.9,0,0,0,.3985.2227q.2343.1.5332.2168a7.3835,7.3835,0,0,1,.7148.3135,2.451,2.451,0,0,1,.5391.3632,1.4209,1.4209,0,0,1,.3428.4659,1.503,1.503,0,0,1,.12.6269,1.4791,1.4791,0,0,1-.1963.7735,1.6843,1.6843,0,0,1-.5244.5449,2.4025,2.4025,0,0,1-.7559.3222,3.7274,3.7274,0,0,1-.8965.1055A3.4035,3.4035,0,0,1,60.4766,312.86Z" fill="#1e1e1e"/>
      <path d="M38.75,318.7656H36.3242v7.5117H35.34v-7.5117H32.92v-.8907h5.83Z" fill="#1e1e1e"/>
      <path d="M40.4316,318.7538a.6087.6087,0,0,1-.4394-.1757.5934.5934,0,0,1-.1817-.4453.6155.6155,0,0,1,.6211-.627.6209.6209,0,0,1,.4483.1787.6259.6259,0,0,1,0,.8877A.6154.6154,0,0,1,40.4316,318.7538Zm.4688,7.5235H39.94v-6H40.9Z" fill="#1e1e1e"/>
      <path d="M47.668,323.5175H43.4316a2.2448,2.2448,0,0,0,.5391,1.5469,1.8583,1.8583,0,0,0,1.418.5449,2.9478,2.9478,0,0,0,1.8633-.668v.9024a3.4828,3.4828,0,0,1-2.0918.5742,2.5361,2.5361,0,0,1-1.9981-.8174,3.3454,3.3454,0,0,1-.7266-2.3,3.2808,3.2808,0,0,1,.794-2.2822,2.5456,2.5456,0,0,1,1.9717-.8818,2.2556,2.2556,0,0,1,1.8222.7617,3.1758,3.1758,0,0,1,.6446,2.1152Zm-.9844-.8144a1.9552,1.9552,0,0,0-.4014-1.295,1.3673,1.3673,0,0,0-1.0986-.4628,1.5523,1.5523,0,0,0-1.1543.4863,2.2067,2.2067,0,0,0-.5859,1.2715Z" fill="#1e1e1e"/>
      <path d="M52.25,321.25a1.1753,1.1753,0,0,0-.7266-.1933,1.2262,1.2262,0,0,0-1.0283.58,2.6816,2.6816,0,0,0-.4131,1.582v3.0586h-.9609v-6h.9609v1.2363h.0235a2.095,2.095,0,0,1,.6269-.9873,1.43,1.43,0,0,1,.9434-.3545,1.5706,1.5706,0,0,1,.5742.082Z" fill="#1e1e1e"/>
      <path d="M24.5322,339.1367v-1.16a2.25,2.25,0,0,0,.4776.3164,3.855,3.855,0,0,0,.5859.2373,4.6471,4.6471,0,0,0,.6182.1494,3.4417,3.4417,0,0,0,.5742.0528,2.2483,2.2483,0,0,0,1.3564-.337,1.2637,1.2637,0,0,0,.2989-1.5615,1.6825,1.6825,0,0,0-.4131-.46,4.1028,4.1028,0,0,0-.624-.3985q-.36-.19-.7764-.4013-.4395-.2228-.82-.4512a3.5569,3.5569,0,0,1-.6621-.5039,2.1018,2.1018,0,0,1-.4424-.624,2.1269,2.1269,0,0,1,.0908-1.8165,2.16,2.16,0,0,1,.6621-.7,3,3,0,0,1,.9346-.41,4.2808,4.2808,0,0,1,1.0693-.1348,4.0968,4.0968,0,0,1,1.8106.2989V332.34a3.2818,3.2818,0,0,0-1.91-.5156,3.1426,3.1426,0,0,0-.6445.0673,1.82,1.82,0,0,0-.5742.22,1.2719,1.2719,0,0,0-.41.3925,1.042,1.042,0,0,0-.1582.586,1.2058,1.2058,0,0,0,.12.5566,1.3649,1.3649,0,0,0,.3545.4278,3.5344,3.5344,0,0,0,.5713.375q.3369.1816.7764.3984.451.2226.8554.4687a3.9054,3.9054,0,0,1,.709.545,2.4207,2.4207,0,0,1,.4834.6621,1.86,1.86,0,0,1,.1787.832,2.11,2.11,0,0,1-.2431,1.0518,1.9958,1.9958,0,0,1-.6563.7,2.8688,2.8688,0,0,1-.9521.39,5.2137,5.2137,0,0,1-1.1368.12,4.6256,4.6256,0,0,1-.4921-.0322q-.2931-.0323-.5977-.0938a4.8619,4.8619,0,0,1-.5771-.1523A1.795,1.795,0,0,1,24.5322,339.1367Z" fill="#1e1e1e"/>
      <path d="M36.0225,339.4765h-.961v-.9492h-.0234a1.9734,1.9734,0,0,1-1.8516,1.09q-2.1446,0-2.1445-2.5547v-3.5859h.9551V336.91q0,1.8984,1.4531,1.8984a1.47,1.47,0,0,0,1.1572-.5185,1.9839,1.9839,0,0,0,.4541-1.3565v-3.457h.961Z" fill="#1e1e1e"/>
      <path d="M38.9463,338.6093h-.0234v.8672h-.961v-8.8828h.961v3.9375h.0234a2.2722,2.2722,0,0,1,2.0742-1.1953,2.1991,2.1991,0,0,1,1.8076.8056,3.3265,3.3265,0,0,1,.6533,2.1592,3.7191,3.7191,0,0,1-.7324,2.4112,2.4385,2.4385,0,0,1-2.0039.9052A1.9733,1.9733,0,0,1,38.9463,338.6093Zm-.0234-2.42v.8379a1.7838,1.7838,0,0,0,.4834,1.2627,1.7246,1.7246,0,0,0,2.5957-.1494,3.0652,3.0652,0,0,0,.4951-1.8575,2.4191,2.4191,0,0,0-.4629-1.57,1.5319,1.5319,0,0,0-1.2539-.5683,1.7026,1.7026,0,0,0-1.3477.583A2.1407,2.1407,0,0,0,38.9229,336.1894Z" fill="#1e1e1e"/>
      <path d="M49.9971,339.4765h-.961v-3.4219q0-1.91-1.3945-1.91a1.5125,1.5125,0,0,0-1.1924.542,2.0089,2.0089,0,0,0-.4717,1.3681v3.4219h-.9609v-6h.9609v.9961h.0235a2.1655,2.1655,0,0,1,1.9687-1.1367,1.8358,1.8358,0,0,1,1.5059.6357,2.8322,2.8322,0,0,1,.5215,1.8369Z" fill="#1e1e1e"/>
      <path d="M56.63,336.7167H52.3936a2.2443,2.2443,0,0,0,.539,1.5469,1.8583,1.8583,0,0,0,1.418.5449,2.9481,2.9481,0,0,0,1.8633-.6679v.9023a3.4826,3.4826,0,0,1-2.0918.5742A2.5358,2.5358,0,0,1,52.124,338.8a3.3453,3.3453,0,0,1-.7265-2.3,3.2808,3.2808,0,0,1,.7939-2.2822,2.5456,2.5456,0,0,1,1.9717-.8818,2.2559,2.2559,0,0,1,1.8223.7617,3.1763,3.1763,0,0,1,.6445,2.1152Zm-.9844-.8144a1.9549,1.9549,0,0,0-.4014-1.2949,1.3673,1.3673,0,0,0-1.0986-.4629,1.5523,1.5523,0,0,0-1.1543.4863,2.2067,2.2067,0,0,0-.5859,1.2715Z" fill="#1e1e1e"/>
      <path d="M60.8662,339.4179a1.8529,1.8529,0,0,1-.8965.1875q-1.5762,0-1.5761-1.7578v-3.5508H57.3623v-.82h1.0313v-1.4648l.9609-.3106v1.7754h1.5117v.82H59.3545v3.3809a1.4017,1.4017,0,0,0,.2051.8613.8183.8183,0,0,0,.68.2578,1.01,1.01,0,0,0,.6269-.1992Z" fill="#1e1e1e"/>
    </g>
    <g>
      <path d="M103.7549,269.748v5.5488h1.0781v.8789h-1.0781V278.15h-.9492v-1.9746H98.8564v-.832q.5508-.6212,1.1133-1.3272t1.0752-1.4326q.5127-.7266.9492-1.45a13.233,13.233,0,0,0,.7354-1.3857ZM99.94,275.2968h2.8653v-4.1133q-.44.7677-.8321,1.3711t-.747,1.0957q-.3546.4923-.6768.8907T99.94,275.2968Z" fill="#1e1e1e"/>
      <path d="M110.2236,269.748v5.5488h1.0782v.8789h-1.0782V278.15h-.9492v-1.9746h-3.9492v-.832q.5508-.6212,1.1133-1.3272t1.0752-1.4326q.5127-.7266.9492-1.45a13.25,13.25,0,0,0,.7353-1.3857Zm-3.8144,5.5488h2.8652v-4.1133q-.44.7677-.832,1.3711t-.7471,1.0957q-.3544.4923-.6767.8907T106.4092,275.2968Z" fill="#1e1e1e"/>
      <path d="M117.2959,275.7714a2.4491,2.4491,0,0,1-.2139,1.0342,2.2825,2.2825,0,0,1-.6035.7969,2.785,2.785,0,0,1-.9346.5127,3.7794,3.7794,0,0,1-1.2011.1816,3.4906,3.4906,0,0,1-1.91-.457v-1.0313a3.0612,3.0612,0,0,0,1.9453.668,2.6448,2.6448,0,0,0,.794-.1113,1.7815,1.7815,0,0,0,.6094-.3223,1.4307,1.4307,0,0,0,.3925-.51,1.5918,1.5918,0,0,0,.1377-.6738q0-1.6464-2.3437-1.6465h-.6973v-.8144h.6621q2.0742,0,2.0742-1.5469,0-1.43-1.582-1.43a2.6934,2.6934,0,0,0-1.67.5977v-.9317a3.6507,3.6507,0,0,1,1.91-.48,2.9364,2.9364,0,0,1,.9551.1464,2.1881,2.1881,0,0,1,.7324.41,1.8164,1.8164,0,0,1,.4717.6328,1.9538,1.9538,0,0,1,.167.8145,2.051,2.051,0,0,1-1.6758,2.1328v.0234a2.6518,2.6518,0,0,1,.791.208,2.11,2.11,0,0,1,.627.419,1.8664,1.8664,0,0,1,.4131.6064A1.9364,1.9364,0,0,1,117.2959,275.7714Z" fill="#1e1e1e"/>
    </g>
    <g>
      <path d="M144.7041,274.8056v5.5488h1.0781v.8789h-1.0781v1.9746h-.9492v-1.9746h-3.9492v-.832q.5508-.6212,1.1132-1.3271t1.0752-1.4327q.5127-.7265.9493-1.45a13.25,13.25,0,0,0,.7353-1.3857Zm-3.8145,5.5488h2.8653v-4.1133q-.4395.7677-.832,1.3711t-.7471,1.0957q-.3545.4923-.6768.8907T140.89,280.3544Z" fill="#1e1e1e"/>
      <path d="M151.1729,274.8056v5.5488h1.0781v.8789h-1.0781v1.9746h-.9493v-1.9746h-3.9492v-.832q.5508-.6212,1.1133-1.3271t1.0752-1.4327q.5127-.7265.9492-1.45a13.2708,13.2708,0,0,0,.7354-1.3857Zm-3.8145,5.5488h2.8652v-4.1133q-.4394.7677-.832,1.3711t-.7471,1.0957q-.3544.4923-.6767.8907T147.3584,280.3544Z" fill="#1e1e1e"/>
      <path d="M158.2451,280.829a2.4505,2.4505,0,0,1-.2138,1.0342,2.283,2.283,0,0,1-.6036.7969,2.7855,2.7855,0,0,1-.9345.5127,3.78,3.78,0,0,1-1.2012.1816,3.4906,3.4906,0,0,1-1.91-.457v-1.0313a3.0607,3.0607,0,0,0,1.9453.668,2.6444,2.6444,0,0,0,.794-.1113,1.7815,1.7815,0,0,0,.6094-.3223,1.43,1.43,0,0,0,.3925-.51,1.5925,1.5925,0,0,0,.1377-.6739q0-1.6464-2.3437-1.6465H154.22v-.8144h.6621q2.0742,0,2.0743-1.5469,0-1.43-1.5821-1.43a2.6934,2.6934,0,0,0-1.67.5977v-.9317a3.6511,3.6511,0,0,1,1.91-.48,2.9334,2.9334,0,0,1,.955.1465,2.1877,2.1877,0,0,1,.7325.41,1.8174,1.8174,0,0,1,.4716.6328,1.9522,1.9522,0,0,1,.167.8145,2.0509,2.0509,0,0,1-1.6758,2.1328v.0234a2.6532,2.6532,0,0,1,.7911.208,2.1118,2.1118,0,0,1,.6269.419,1.8675,1.8675,0,0,1,.4131.6064A1.9367,1.9367,0,0,1,158.2451,280.829Z" fill="#1e1e1e"/>
    </g>
    <g>
      <path d="M181.6611,269.748v5.5488h1.0782v.8789h-1.0782V278.15h-.9492v-1.9746h-3.9492v-.832q.5508-.6212,1.1133-1.3272t1.0752-1.4326q.5127-.7266.9492-1.45a13.25,13.25,0,0,0,.7353-1.3857Zm-3.8144,5.5488h2.8652v-4.1133q-.44.7677-.832,1.3711t-.7471,1.0957q-.3545.4923-.6767.8907T177.8467,275.2968Z" fill="#1e1e1e"/>
      <path d="M188.13,269.748v5.5488h1.0781v.8789H188.13V278.15h-.9492v-1.9746h-3.9493v-.832q.5508-.6212,1.1133-1.3272t1.0752-1.4326q.5127-.7266.9492-1.45a13.233,13.233,0,0,0,.7354-1.3857Zm-3.8145,5.5488h2.8653v-4.1133q-.44.7677-.8321,1.3711t-.747,1.0957q-.3546.4923-.6768.8907T184.3154,275.2968Z" fill="#1e1e1e"/>
      <path d="M195.2021,275.7714a2.449,2.449,0,0,1-.2138,1.0342,2.2849,2.2849,0,0,1-.6035.7969,2.786,2.786,0,0,1-.9346.5127,3.78,3.78,0,0,1-1.2012.1816,3.49,3.49,0,0,1-1.91-.457v-1.0313a3.061,3.061,0,0,0,1.9453.668,2.6442,2.6442,0,0,0,.7939-.1113,1.78,1.78,0,0,0,.6094-.3223,1.431,1.431,0,0,0,.3926-.51,1.5918,1.5918,0,0,0,.1377-.6738q0-1.6464-2.3438-1.6465h-.6972v-.8144h.6621q2.0742,0,2.0742-1.5469,0-1.43-1.582-1.43a2.6937,2.6937,0,0,0-1.67.5977v-.9317a3.6511,3.6511,0,0,1,1.91-.48,2.9368,2.9368,0,0,1,.9551.1464,2.1891,2.1891,0,0,1,.7324.41,1.8189,1.8189,0,0,1,.4717.6328,1.9538,1.9538,0,0,1,.167.8145,2.051,2.051,0,0,1-1.6758,2.1328v.0234a2.6534,2.6534,0,0,1,.791.208,2.1086,2.1086,0,0,1,.6269.419,1.8664,1.8664,0,0,1,.4131.6064A1.9364,1.9364,0,0,1,195.2021,275.7714Z" fill="#1e1e1e"/>
    </g>
    <g>
      <path d="M147.0918,332.4013l-3.1113,8.4023h-1.084l-3.0469-8.4023h1.0957l2.3262,6.6621a3.9609,3.9609,0,0,1,.17.7442h.0234a3.65,3.65,0,0,1,.1934-.7559l2.3731-6.65Z" fill="#1e1e1e"/>
      <path d="M156.8652,340.8036h-.9785v-5.6367q0-.6679.0821-1.6347h-.0235a5.2211,5.2211,0,0,1-.2519.8144l-2.8711,6.457h-.4805l-2.8652-6.41a5.0116,5.0116,0,0,1-.252-.8613h-.0234q.0468.5039.0468,1.6464v5.625h-.9492v-8.4023H149.6l2.5781,5.8594a7.4918,7.4918,0,0,1,.3868,1.0078H152.6q.252-.6914.4043-1.0313l2.6309-5.8359h1.23Z" fill="#1e1e1e"/>
    </g>
    <g>
      <path d="M94.47,332.4013l-3.1113,8.4023h-1.084l-3.0469-8.4023h1.0957l2.3262,6.6621a3.9531,3.9531,0,0,1,.17.7442h.0235a3.6493,3.6493,0,0,1,.1933-.7559l2.3731-6.65Z" fill="#1e1e1e"/>
      <path d="M104.2432,340.8036h-.9786v-5.6367q0-.6679.0821-1.6347h-.0235a5.2211,5.2211,0,0,1-.2519.8144l-2.8711,6.457h-.48l-2.8652-6.41a5.03,5.03,0,0,1-.252-.8613h-.0234q.0469.5039.0469,1.6464v5.625h-.9492v-8.4023h1.3007l2.5782,5.8594a7.5019,7.5019,0,0,1,.3867,1.0078h.0351q.252-.6914.4043-1.0313l2.6309-5.8359h1.2305Z" fill="#1e1e1e"/>
    </g>
    <g>
      <path d="M199.47,332.4013l-3.1113,8.4023h-1.084l-3.0469-8.4023h1.0957l2.3262,6.6621a3.9531,3.9531,0,0,1,.17.7442h.0235a3.6493,3.6493,0,0,1,.1933-.7559l2.3731-6.65Z" fill="#1e1e1e"/>
      <path d="M209.2432,340.8036h-.9786v-5.6367q0-.6679.0821-1.6347h-.0235a5.2211,5.2211,0,0,1-.2519.8144l-2.8711,6.457H204.72l-2.8652-6.41a5.03,5.03,0,0,1-.252-.8613h-.0234q.0469.5039.0469,1.6464v5.625h-.9492v-8.4023h1.3007l2.5782,5.8594a7.5019,7.5019,0,0,1,.3867,1.0078h.0351q.252-.6914.4043-1.0313l2.6309-5.8359h1.2305Z" fill="#1e1e1e"/>
    </g>
    <g>
      <path d="M14.82,382.74l-3.1113,8.4023H10.625L7.5781,382.74H8.6738L11,389.4023a3.952,3.952,0,0,1,.17.7441h.0235a3.6485,3.6485,0,0,1,.1933-.7558l2.3731-6.65Z" fill="#1e1e1e"/>
      <path d="M16.4678,383.6191a.6089.6089,0,0,1-.4395-.1758.5932.5932,0,0,1-.1816-.4453.6153.6153,0,0,1,.6211-.627.62.62,0,0,1,.4482.1787.6259.6259,0,0,1,0,.8877A.6151.6151,0,0,1,16.4678,383.6191Zm.4687,7.5234h-.9609v-6h.9609Z" fill="#1e1e1e"/>
      <path d="M21.8916,386.1152a1.1753,1.1753,0,0,0-.7266-.1934,1.2264,1.2264,0,0,0-1.0283.58,2.6819,2.6819,0,0,0-.4131,1.582v3.0586h-.9609v-6h.9609v1.2363h.0235a2.096,2.096,0,0,1,.6269-.9873,1.43,1.43,0,0,1,.9434-.3545,1.5681,1.5681,0,0,1,.5742.0821Z" fill="#1e1e1e"/>
      <path d="M26.1152,391.0839a1.8524,1.8524,0,0,1-.8964.1875q-1.5762,0-1.5762-1.7578v-3.5508H22.6113v-.82h1.0313v-1.4648l.9609-.3106v1.7754h1.5117v.82H24.6035v3.3809a1.4017,1.4017,0,0,0,.2051.8613.8183.8183,0,0,0,.68.2578,1.01,1.01,0,0,0,.6269-.1992Z" fill="#1e1e1e"/>
      <path d="M32.2256,391.1425h-.961v-.9492h-.0234a1.9732,1.9732,0,0,1-1.8516,1.09q-2.1444,0-2.1445-2.5546v-3.586H28.2v3.4336q0,1.8984,1.4531,1.8984a1.47,1.47,0,0,0,1.1572-.5185,1.9839,1.9839,0,0,0,.4541-1.3565v-3.457h.961Z" fill="#1e1e1e"/>
      <path d="M38.37,391.1425h-.9609v-.9375h-.0235a2.0116,2.0116,0,0,1-1.8457,1.0781,1.9726,1.9726,0,0,1-1.4033-.4746,1.6442,1.6442,0,0,1-.5068-1.26q0-1.6816,1.98-1.9571l1.7988-.2519q0-1.5293-1.2363-1.5293a2.9539,2.9539,0,0,0-1.9571.7383v-.9844a3.7186,3.7186,0,0,1,2.0391-.5625q2.1152,0,2.1152,2.2383Zm-.9609-3.0351-1.4473.1992a2.35,2.35,0,0,0-1.0078.331.9547.9547,0,0,0-.34.8409.9159.9159,0,0,0,.3134.7177,1.2111,1.2111,0,0,0,.835.2783,1.5423,1.5423,0,0,0,1.1807-.5009,1.79,1.79,0,0,0,.4658-1.2686Z" fill="#1e1e1e"/>
      <path d="M41.0732,391.1425h-.9609V382.26h.9609Z" fill="#1e1e1e"/>
      <path d="M53.208,391.1425H52.001l-4.3242-6.6972a2.7978,2.7978,0,0,1-.27-.5274h-.0351a8.6648,8.6648,0,0,1,.0468,1.1543v6.07h-.9843V382.74h1.2773l4.207,6.5918q.2637.41.34.5625h.0234a8.9,8.9,0,0,1-.0586-1.2364V382.74h.9844Z" fill="#1e1e1e"/>
      <path d="M60.0566,388.3828H55.82a2.2438,2.2438,0,0,0,.5391,1.5468,1.8581,1.8581,0,0,0,1.4179.5449,2.9481,2.9481,0,0,0,1.8633-.6679v.9023a3.4824,3.4824,0,0,1-2.0918.5742,2.536,2.536,0,0,1-1.998-.8173,3.3457,3.3457,0,0,1-.7266-2.3,3.2811,3.2811,0,0,1,.794-2.2823,2.5456,2.5456,0,0,1,1.9716-.8818,2.2558,2.2558,0,0,1,1.8223.7617,3.1757,3.1757,0,0,1,.6445,2.1152Zm-.9843-.8145a1.9552,1.9552,0,0,0-.4-1.2949,1.37,1.37,0,0,0-1.1-.4629,1.5522,1.5522,0,0,0-1.1543.4863,2.2077,2.2077,0,0,0-.586,1.2715Z" fill="#1e1e1e"/>
      <path d="M64.2871,391.0839a1.8529,1.8529,0,0,1-.8965.1875q-1.5762,0-1.5761-1.7578v-3.5508H60.7832v-.82h1.0313v-1.4648l.9609-.3106v1.7754h1.5117v.82H62.7754v3.3809a1.4017,1.4017,0,0,0,.2051.8613.8183.8183,0,0,0,.68.2578,1.01,1.01,0,0,0,.6269-.1992Z" fill="#1e1e1e"/>
      <path d="M73.459,385.1425l-1.7988,6h-.9961l-1.2364-4.2949a2.8031,2.8031,0,0,1-.0937-.5566h-.0235a2.6274,2.6274,0,0,1-.123.5449l-1.3418,4.3066h-.9609l-1.8164-6h1.0078l1.2422,4.5117a2.7218,2.7218,0,0,1,.082.5391h.0469a2.5192,2.5192,0,0,1,.1054-.5508l1.3828-4.5h.879l1.2421,4.5235a3.2216,3.2216,0,0,1,.0879.539h.0469a2.4918,2.4918,0,0,1,.1-.539l1.2188-4.5235Z" fill="#1e1e1e"/>
      <path d="M76.9609,391.2831a2.7829,2.7829,0,0,1-2.124-.8408,3.1143,3.1143,0,0,1-.7939-2.2295,3.2447,3.2447,0,0,1,.8261-2.3613,2.97,2.97,0,0,1,2.2325-.85,2.691,2.691,0,0,1,2.0947.8262,3.2758,3.2758,0,0,1,.7529,2.291,3.2236,3.2236,0,0,1-.8115,2.3A2.8434,2.8434,0,0,1,76.9609,391.2831Zm.07-5.4726a1.8277,1.8277,0,0,0-1.4649.63,2.5867,2.5867,0,0,0-.5391,1.7373,2.4463,2.4463,0,0,0,.545,1.6816,1.8517,1.8517,0,0,0,1.459.6152,1.7566,1.7566,0,0,0,1.4326-.6035,2.6188,2.6188,0,0,0,.5009-1.7168,2.6635,2.6635,0,0,0-.5009-1.7343A1.7489,1.7489,0,0,0,77.0313,385.8105Z" fill="#1e1e1e"/>
      <path d="M84.56,386.1152a1.1753,1.1753,0,0,0-.7266-.1934,1.2264,1.2264,0,0,0-1.0283.58,2.6819,2.6819,0,0,0-.4131,1.582v3.0586h-.9609v-6h.9609v1.2363h.0234a2.0961,2.0961,0,0,1,.627-.9873,1.43,1.43,0,0,1,.9434-.3545,1.5681,1.5681,0,0,1,.5742.0821Z" fill="#1e1e1e"/>
      <path d="M90.6143,391.1425H89.2666L86.6182,388.26h-.0235v2.8828h-.9609V382.26h.9609v5.6309h.0235l2.5195-2.7481h1.26l-2.7832,2.8945Z" fill="#1e1e1e"/>
    </g>
  </g>
</svg>
