<?xml version="1.0" encoding="UTF-8"?>
<svg xmlns="http://www.w3.org/2000/svg" width="430.914" height="165.9865" xmlns:xlink="http://www.w3.org/1999/xlink" viewBox="0 0 430.914 165.9865">
  <defs>
    <linearGradient id="linear-gradient" x1="-486.6637" y1="2051.9152" x2="-486.6637" y2="2037.2915" gradientTransform="translate(564 2104.1754) scale(1 -1)" gradientUnits="userSpaceOnUse">
      <stop offset=".001" stop-color="#773adc"/>
      <stop offset=".528" stop-color="#6635bb"/>
      <stop offset="1" stop-color="#552f99"/>
    </linearGradient>
    <linearGradient id="linear-gradient-2" x1="-496.2453" y1="2035.8419" x2="-496.2453" y2="2053.1267" gradientTransform="translate(564 2104.1754) scale(1 -1)" gradientUnits="userSpaceOnUse">
      <stop offset=".001" stop-color="#773adc"/>
      <stop offset=".307" stop-color="#793ddd"/>
      <stop offset=".532" stop-color="#8046e1"/>
      <stop offset=".731" stop-color="#8c56e7"/>
      <stop offset=".915" stop-color="#9c6def"/>
      <stop offset="1" stop-color="#a67af4"/>
    </linearGradient>
    <linearGradient id="linear-gradient-3" x1="264.0802" y1="1831.8608" x2="271.4937" y2="1831.8608" gradientTransform="translate(0 1870.1754) scale(1 -1)" gradientUnits="userSpaceOnUse">
      <stop offset=".001" stop-color="#773adc"/>
      <stop offset="1" stop-color="#552f99"/>
    </linearGradient>
    <linearGradient id="linear-gradient-4" x1="260.2588" y1="1838.0673" x2="260.2588" y2="1825.4662" gradientTransform="translate(0 1870.1754) scale(1 -1)" gradientUnits="userSpaceOnUse">
      <stop offset="0" stop-color="#a67af4"/>
      <stop offset=".999" stop-color="#773adc"/>
    </linearGradient>
    <linearGradient id="linear-gradient-5" x1="199.7328" y1="1745.1334" x2="199.7328" y2="1760.0714" gradientTransform="translate(0 1870.1754) scale(1 -1)" gradientUnits="userSpaceOnUse">
      <stop offset="0" stop-color="#773adc"/>
      <stop offset="1" stop-color="#b77af4"/>
    </linearGradient>
    <linearGradient id="linear-gradient-6" x1="315.084" x2="315.084" xlink:href="#linear-gradient-5"/>
  </defs>
  <g id="Shapes">
    <rect width="430.914" height="165.9865" fill="#fff"/>
    <g>
      <rect x="6.5963" y="5.6877" width="418" height="154" fill="#fff"/>
      <rect x="6.5963" y="5.6877" width="418" height="154" fill="#326ce5" opacity=".1"/>
      <rect x="6.5963" y="5.6877" width="418" height="154" fill="none" stroke="#326ce5" stroke-width=".25"/>
    </g>
    <g>
      <rect x="138.5963" y="14.4877" width="277.2" height="136.4" fill="#fff"/>
      <rect x="138.5963" y="14.4877" width="277.2" height="136.4" fill="#f5f3f2" opacity=".8"/>
      <rect x="138.5963" y="14.4877" width="277.2" height="136.4" fill="none" stroke="#9d9f9f" stroke-width=".25"/>
    </g>
    <g>
      <rect x="156.1963" y="62.8877" width="242" height="70.4" fill="#fff"/>
      <rect x="156.1963" y="62.8877" width="242" height="70.4" fill="#326ce5" opacity=".35"/>
      <rect x="156.1963" y="62.8877" width="242" height="70.4" fill="none" stroke="#326ce5" stroke-width=".25"/>
    </g>
    <g id="ae82470d-7a6c-4dfe-8533-59d8ff948629">
      <g>
        <path d="M71.7912,58.9573h-14.1949v-12.2057c0-1.1323.9121-2.0532,2.0444-2.0639h12.1505v14.2696ZM59.3596,57.1941h10.6755v-10.7805h-10.3944c-.1553,0-.2811.1259-.2811.2811h0v10.4994Z" fill="#949494"/>
        <path d="M87.5963,58.9573h-14.1931v-14.2696h12.1487c1.1322.0107,2.0444.9317,2.0444,2.0639v12.2057ZM75.1647,57.1941h10.6755v-10.4424c.0324-.1508-.0636-.2994-.2144-.3318-.0015-.0003-.003-.0006-.0044-.0009-.0207-.0018-.0416-.0018-.0623,0h-10.3944v10.7752Z" fill="#949494"/>
        <path d="M71.7912,74.6877h-12.1505c-1.1215,0-2.0336-.9034-2.0444-2.0248v-12.2253h14.1949v14.25ZM59.3596,62.2009v10.462c0,.1553.1259.2811.2811.2811h10.3873v-10.7431h-10.6684Z" fill="#949494"/>
        <path d="M85.552,74.6877h-12.1487v-14.25h14.1931v12.2253c-.0107,1.1214-.9229,2.0248-2.0444,2.0248ZM75.1647,72.9244h10.3873c.1543.001.2801-.1233.2811-.2776,0-.0012,0-.0024,0-.0036v-10.4424h-10.6755l.0071,10.7236Z" fill="#949494"/>
        <path d="M82.4365,54.7761c-.0004-.2241-.1435-.423-.3559-.4946l-9.5297-3.2222c-.0254-.0075-.0519-.0105-.0783-.0089h0c-.1297-.001-.2357.1034-.2366.2331,0,.0012,0,.0024,0,.0036v16.8051c0,.1307.1059.2366.2366.2366h0c.0299-.0006.0594-.0066.0872-.0178l9.5457-3.8165c.1981-.0789.3279-.2707.3274-.484l.0036-9.2343Z" fill="url(#linear-gradient)"/>
        <path d="M72.4122,51.0503l-9.4176,1.7188c-.1344.0264-.2313.1442-.2313.2811v12.9992c-.0005.1343.0929.2508.2242.2793l9.4176,1.9981c.1531.0332.3045-.0627.3398-.2153.0017-.0213.0017-.0427,0-.0641v-16.7161c-.0017-.1511-.1213-.2745-.2722-.2811-.0201-.0021-.0404-.0021-.0605,0Z" fill="url(#linear-gradient-2)"/>
        <path d="M68.0601,53.6409v12.0989l3.2774.5338v-13.2038l-3.2774.5711ZM64.0355,54.2939v10.5955l2.8468.58v-11.6541l-2.8468.4786Z" fill="#b796f9" isolation="isolate" opacity=".5"/>
      </g>
    </g>
    <g id="b8a0486a-5501-4d92-b540-a766c4b3b548">
      <g>
        <g>
          <g>
            <path d="M274.3268,41.9353c-1.5188,4.2247-5.5254,7.042-10.0149,7.0419-.9934.0042-1.9821-.1359-2.9352-.4157.1449-.3298.222-.6854.2268-1.0456.0126,0,.0378.0126.0504.0126.8632.2532,1.7585.3805,2.658.3779,3.6684-.0073,7.0142-2.0978,8.6292-5.3917l.0126-.0126,1.3731-.5669Z" fill="#32bedd"/>
            <path d="M257.5094,45.072c-.3156.1754-.5904.4159-.8062.7055-.8734-.8954-1.5852-1.9354-2.1038-3.0738l1.3101.2897v.3275c-.0025.3563.2442.666.5921.7432l.1764.0378c.236.3264.4971.6339.781.9196l.0504.0504Z" fill="#32bedd"/>
            <path d="M268.5573,28.5569c-.1766.3157-.292.6619-.3401,1.0204-.0252-.0126-.063-.0252-.0882-.0378-1.2031-.5278-2.5032-.7981-3.817-.7936-2.8804.0048-5.6073,1.2989-7.4324,3.5273l-.3653.0756c-.3483.0711-.6.3752-.6047.7306v.5795l-1.2849.2393c1.7365-3.7867,5.5215-6.2132,9.6874-6.2105,1.4592.0009,2.9032.2965,4.2453.8692Z" fill="#32bedd"/>
            <path d="M274.2513,34.5306l-1.3731-.4787c-.251-.5171-.555-1.0069-.907-1.4613-.0252-.0378-.0504-.063-.063-.0882.338-.1247.6468-.3177.907-.5669.6071.7875,1.0913,1.6624,1.4361,2.5951Z" fill="#32bedd"/>
            <path d="M265.6851,42.351l3.1997.7055-4.9634,2.0559c-.0252,0-.0378.0126-.063.0126-.1032-.0026-.1863-.0857-.189-.189v-13.2423c.0026-.1032.0857-.1863.189-.189.0218-.002.0436.0024.063.0126l5.6184,1.9652-3.8422.718c-.3192.0723-.5479.353-.5543.6803v6.8026c-.0023.3234.2247.6032.5417.6677Z" fill="#fff"/>
            <g>
              <g id="e918f286-5032-4942-ad29-ea17e6f1cc90">
                <path d="M254.3827,34.4903l1.5243-.2897v8.2513l-1.5495-.3401-1.2471-.2771c-.0713-.0134-.1205-.079-.1134-.1512v-6.8026c-.0022-.0707.0449-.1335.1134-.1512l1.2723-.2393Z" fill="#a67af4"/>
              </g>
              <g>
                <g id="a47a99dd-4d47-4c70-8c42-c5ac274ce496">
                  <g>
                    <path d="M265.6851,42.351l3.1997.7055-4.9634,2.0559c-.0252,0-.0378.0126-.063.0126-.1032-.0026-.1863-.0857-.189-.189v-13.2423c.0026-.1032.0857-.1863.189-.189.0218-.002.0436.0024.063.0126l5.6184,1.9652-3.8422.718c-.3192.0723-.5479.353-.5543.6803v6.8026c-.0023.3234.2247.6032.5417.6677Z" fill="url(#linear-gradient-3)"/>
                    <path d="M263.8131,31.5072l-7.1906,1.358c-.1037.0222-.1775.1144-.1764.2205v10.2379c-.0009.1045.0708.1956.1726.2192l7.188,1.5696c.1201.0237.2367-.0546.2604-.1747.0029-.0147.0043-.0296.0042-.0445v-13.1617c.0021-.1217-.0949-.2221-.2166-.2242h0s-.0416,0-.0416,0Z" fill="url(#linear-gradient-4)"/>
                  </g>
                </g>
                <polygon points="260.4899 33.5492 260.4899 43.0753 262.9917 43.4923 262.9917 33.0995 260.4899 33.5492" fill="#b796f9" isolation="isolate" opacity=".5"/>
                <polygon points="257.4174 34.0632 257.4174 42.4089 259.5955 42.8662 259.5955 33.6878 257.4174 34.0632" fill="#b796f9" isolation="isolate" opacity=".5"/>
              </g>
            </g>
          </g>
          <path d="M273.1528,29.93c-.0035,1.221-.9961,2.208-2.2171,2.2045-1.221-.0035-2.208-.9961-2.2045-2.2171.0035-1.2161.9884-2.201,2.2045-2.2045,1.2217-.0028,2.2143.9853,2.2171,2.207,0,.0034,0,.0067,0,.0101Z" fill="#32bedd"/>
          <circle cx="258.8548" cy="47.4718" r="2.2159" fill="#32bedd"/>
        </g>
        <path d="M275.6722,35.7764v4.8424c-.0017.1096-.0672.208-.1675.2519l-.965.3981-3.8674,1.5973h-.0139c-.0159.0024-.032.0024-.0479,0-.0696,0-.126-.0564-.126-.126h0v-8.7967c.0004-.0467.0266-.0894.068-.1109h.0239c.0078-.0025.0162-.0025.0239,0,.015-.0014.03.0022.0428.0101h.029l3.8031,1.3177,1.0078.3552c.1139.0353.1909.1415.189.2608Z" fill="#773adc"/>
        <path d="M270.5816,33.8251l-4.787.9007c-.0692.015-.1182.0766-.1172.1474v6.8139c-.0007.0695.047.1302.1146.1461l4.787,1.0468c.0782.0168.1553-.0329.1721-.1111.0002-.0007.0003-.0015.0005-.0022.0013-.0109.0013-.0219,0-.0328v-8.7627c.0007-.0809-.064-.1473-.1449-.1486-.0085-.0002-.0169.0006-.0252.0025Z" fill="#a67af4"/>
      </g>
    </g>
    <g>
      <rect x="160.5963" y="67.2877" width="242" height="70.4" fill="#fff"/>
      <rect x="160.5963" y="67.2877" width="242" height="70.4" fill="#326ce5" opacity=".35"/>
      <rect x="160.5963" y="67.2877" width="242" height="70.4" fill="none" stroke="#326ce5" stroke-width=".25"/>
    </g>
    <g>
      <rect x="164.9963" y="71.6877" width="242" height="70.4" fill="#fff"/>
      <rect x="164.9963" y="71.6877" width="242" height="70.4" fill="#326ce5" opacity=".35"/>
      <rect x="164.9963" y="71.6877" width="242" height="70.4" fill="none" stroke="#326ce5" stroke-width=".25"/>
    </g>
    <rect x="173.7963" y="102.4877" width="110" height="30.2614" fill="#fff" stroke="#4e4f4f" stroke-width=".25"/>
    <g id="aba16c9a-61c6-4221-a819-a34ed0568d69">
      <g>
        <path d="M204.1408,113.327c0-.1932-.1231-.3649-.306-.427l-8.233-2.786c-.0213-.0067-.0436-.0101-.066-.01h-.006c-.1132,0-.205.0918-.205.205v14.528c0,.1132.0918.205.205.205h0c.026-.0001.0517-.0048.076-.014l8.252-3.3c.171-.0683.2831-.2339.283-.418v-7.983Z" fill="url(#linear-gradient-5)"/>
        <path d="M195.4828,110.108l-8.142,1.486c-.1162.0221-.2002.1237-.2.242v11.237c-.0002.1163.0812.2169.195.241l8.14,1.727c.1325.0298.2642-.0534.294-.186.0041-.0181.0061-.0365.006-.055v-14.45c.0003-.1359-.1096-.2462-.2455-.2465-.016,0-.0319.0015-.0475.0045Z" fill="#552f99"/>
        <polygon points="191.7208 112.346 191.7208 122.801 194.5528 123.259 194.5528 111.852 191.7208 112.346" fill="#b77af4" isolation="isolate" opacity=".75"/>
        <polygon points="188.2408 112.91 188.2408 122.07 190.7068 122.571 190.7068 112.497 188.2408 112.91" fill="#b77af4" isolation="isolate" opacity=".75"/>
      </g>
    </g>
    <rect x="289.1475" y="102.4877" width="109.0488" height="30.2614" fill="#fff" stroke="#4e4f4f" stroke-width=".25"/>
    <g id="aba16c9a-61c6-4221-a819-a34ed0568d69-2" data-name="aba16c9a-61c6-4221-a819-a34ed0568d69">
      <g>
        <path d="M319.492,113.327c0-.1932-.1231-.3649-.306-.427l-8.233-2.786c-.0213-.0067-.0436-.0101-.066-.01h-.006c-.1132,0-.205.0918-.205.205v14.528c0,.1132.0918.205.205.205h0c.026-.0001.0517-.0048.076-.014l8.252-3.3c.171-.0683.2831-.2339.283-.418v-7.983Z" fill="url(#linear-gradient-6)"/>
        <path d="M310.834,110.108l-8.142,1.486c-.1162.0221-.2002.1237-.2.242v11.237c-.0002.1163.0812.2169.195.241l8.14,1.727c.1325.0298.2642-.0534.294-.186.0041-.0181.0061-.0365.006-.055v-14.45c.0003-.1359-.1096-.2462-.2455-.2465-.016,0-.0319.0015-.0475.0045Z" fill="#552f99"/>
        <polygon points="307.072 112.346 307.072 122.801 309.904 123.259 309.904 111.852 307.072 112.346" fill="#b77af4" isolation="isolate" opacity=".75"/>
        <polygon points="303.592 112.91 303.592 122.07 306.058 122.571 306.058 112.497 303.592 112.91" fill="#b77af4" isolation="isolate" opacity=".75"/>
      </g>
    </g>
  </g>
  <g id="Text">
    <g>
      <rect x="6.5963" y="83.4877" width="132" height="35.2" fill="none"/>
      <path d="M29.9242,93.5022c-.7153.3462-1.6499.5195-2.8027.5195-1.5039,0-2.6865-.4419-3.5479-1.3262s-1.292-2.062-1.292-3.5342c0-1.5679.4844-2.8394,1.4526-3.8145s2.2251-1.4629,3.77-1.4629c.957,0,1.7637.1206,2.4199.3623v2.126c-.6562-.3921-1.4038-.5879-2.2422-.5879-.9204,0-1.6636.2896-2.2285.8682s-.8477,1.3628-.8477,2.3516c0,.9478.2666,1.7031.7998,2.2661s1.251.8442,2.1533.8442c.8613,0,1.6499-.2095,2.3652-.6289v2.0166Z" fill="#2f2f2f"/>
      <path d="M34.6664,94.0218c-1.1665,0-2.084-.3271-2.7515-.981s-1.0015-1.5415-1.0015-2.6626c0-1.1577.3462-2.0635,1.0391-2.7173s1.6294-.981,2.8096-.981c1.1621,0,2.0737.3271,2.7344.981s.9912,1.5186.9912,2.5942c0,1.1621-.3408,2.0806-1.022,2.7549s-1.6143,1.0117-2.7993,1.0117ZM34.721,88.3343c-.5103,0-.9067.1753-1.1895.5264s-.4238.8477-.4238,1.4902c0,1.3442.5425,2.0166,1.627,2.0166,1.0347,0,1.5518-.6904,1.5518-2.0713,0-1.3081-.522-1.9619-1.5654-1.9619Z" fill="#2f2f2f"/>
      <path d="M46.6288,93.8509h-2.1533v-3.8896c0-1.0845-.3872-1.627-1.1621-1.627-.3735,0-.6812.1436-.9229.4307s-.3623.6519-.3623,1.0938v3.9922h-2.1602v-7h2.1602v1.1074h.0273c.5151-.8521,1.2646-1.2783,2.249-1.2783,1.5493,0,2.3242.9614,2.3242,2.8848v4.2861Z" fill="#2f2f2f"/>
      <path d="M52.4779,93.7688c-.3188.1685-.7998.2529-1.4424.2529-1.522,0-2.2832-.7905-2.2832-2.3721v-3.2061h-1.1348v-1.5928h1.1348v-1.5107l2.1533-.6152v2.126h1.5723v1.5928h-1.5723v2.8301c0,.729.2896,1.0938.8682,1.0938.228,0,.4624-.0659.7041-.1982v1.5996Z" fill="#2f2f2f"/>
      <path d="M59.659,93.8509h-2.0439v-1.0049h-.0273c-.4692.7837-1.1646,1.1758-2.085,1.1758-.6792,0-1.2134-.1924-1.603-.5776s-.5845-.8989-.5845-1.5415c0-1.3579.8042-2.1421,2.4131-2.3516l1.9004-.2529c0-.7656-.4146-1.1484-1.2441-1.1484-.834,0-1.627.2485-2.3789.7451v-1.627c.3008-.1548.7119-.2915,1.2339-.4102s.9971-.1777,1.4253-.1777c1.9961,0,2.9941.9956,2.9941,2.9873v4.1836ZM57.6288,91.0071v-.4717l-1.2715.1641c-.7017.0913-1.0527.4077-1.0527.9502,0,.2461.0854.4478.2563.605s.4023.2358.6938.2358c.4058,0,.7358-.1401.9912-.4204s.3828-.6348.3828-1.063Z" fill="#2f2f2f"/>
      <path d="M62.4295,85.7434c-.3647,0-.6631-.1084-.8955-.3247s-.3486-.4819-.3486-.7964c0-.3237.1162-.5879.3486-.793s.5308-.3076.8955-.3076c.3691,0,.6689.1025.8989.3076s.3452.4692.3452.793c0,.3281-.1152.5972-.3452.8066s-.5298.3145-.8989.3145ZM63.4959,93.8509h-2.1602v-7h2.1602v7Z" fill="#2f2f2f"/>
      <path d="M72.0428,93.8509h-2.1533v-3.8896c0-1.0845-.3872-1.627-1.1621-1.627-.3735,0-.6812.1436-.9229.4307s-.3623.6519-.3623,1.0938v3.9922h-2.1602v-7h2.1602v1.1074h.0273c.5151-.8521,1.2646-1.2783,2.249-1.2783,1.5493,0,2.3242.9614,2.3242,2.8848v4.2861Z" fill="#2f2f2f"/>
      <path d="M80.0648,90.9661h-4.5664c.0728,1.0161.7134,1.5244,1.9209,1.5244.77,0,1.4468-.1821,2.0303-.5469v1.5586c-.647.3462-1.4878.5195-2.5225.5195-1.1304,0-2.0073-.3135-2.6318-.9399s-.9365-1.5005-.9365-2.6216c0-1.1621.3374-2.0825,1.0117-2.7617s1.5039-1.0186,2.4883-1.0186c1.021,0,1.8105.3032,2.3687.9092s.8374,1.4287.8374,2.4678v.9092ZM78.0619,89.6399c0-1.0024-.4058-1.5039-1.2168-1.5039-.3462,0-.646.1436-.8989.4307s-.4067.645-.4614,1.0732h2.5771Z" fill="#2f2f2f"/>
      <path d="M85.9959,88.7991c-.2598-.1411-.563-.2119-.9092-.2119-.4692,0-.8364.1719-1.1006.5161s-.3965.8125-.3965,1.4048v3.3428h-2.1602v-7h2.1602v1.2988h.0273c.3418-.9478.957-1.4219,1.8457-1.4219.228,0,.4058.0273.5332.082v1.9893Z" fill="#2f2f2f"/>
      <path d="M99.6952,93.8509h-2.4062l-.6973-2.1807h-3.4863l-.6904,2.1807h-2.3926l3.5684-9.8027h2.6182l3.4863,9.8027ZM96.0858,89.9749l-1.0527-3.2949c-.0776-.2461-.1323-.54-.1641-.8818h-.0547c-.0229.2871-.0796.5718-.1709.8545l-1.0664,3.3223h2.5088Z" fill="#2f2f2f"/>
      <path d="M102.8792,93.0374h-.0273v4.0332h-2.1602v-10.2197h2.1602v1.0527h.0273c.5332-.8159,1.2827-1.2236,2.249-1.2236.9067,0,1.6074.311,2.1021.9331s.7417,1.4688.7417,2.5396c0,1.1665-.2881,2.103-.8647,2.8096s-1.3433,1.0596-2.3003,1.0596c-.8433,0-1.4858-.3281-1.9277-.9844ZM102.8177,90.1663v.5605c0,.4829.1274.8774.3828,1.1826s.5903.458,1.0049.458c.4922,0,.874-.1904,1.145-.5708s.4067-.9194.4067-1.6167c0-1.2305-.4785-1.8457-1.4355-1.8457-.4419,0-.8032.1675-1.0835.5024s-.4204.7783-.4204,1.3296Z" fill="#2f2f2f"/>
      <path d="M111.576,93.0374h-.0273v4.0332h-2.1602v-10.2197h2.1602v1.0527h.0273c.5332-.8159,1.2827-1.2236,2.249-1.2236.9067,0,1.6074.311,2.1021.9331s.7417,1.4688.7417,2.5396c0,1.1665-.2881,2.103-.8647,2.8096s-1.3433,1.0596-2.3003,1.0596c-.8433,0-1.4858-.3281-1.9277-.9844ZM111.5145,90.1663v.5605c0,.4829.1274.8774.3828,1.1826s.5903.458,1.0049.458c.4922,0,.874-.1904,1.145-.5708s.4067-.9194.4067-1.6167c0-1.2305-.4785-1.8457-1.4355-1.8457-.4419,0-.8032.1675-1.0835.5024s-.4204.7783-.4204,1.3296Z" fill="#2f2f2f"/>
      <path d="M117.7088,93.6663v-1.75c.3555.2144.71.3735,1.063.4785s.687.1572,1.0015.1572c.3828,0,.6846-.0522.9058-.1572s.3315-.2642.3315-.4785c0-.1367-.0503-.2505-.1504-.3418s-.229-.1709-.3862-.2393-.3291-.1299-.5161-.1846-.3667-.1162-.54-.1846c-.2778-.105-.5229-.2178-.7349-.3384s-.3896-.2607-.5332-.4204-.2529-.3442-.3281-.5537-.1128-.458-.1128-.7451c0-.3921.0854-.729.2563-1.0117s.3989-.5137.6836-.6938.6108-.312.9775-.3965.7485-.1265,1.145-.1265c.3101,0,.6245.0239.9434.0718s.6333.1172.9434.2085v1.668c-.2734-.1597-.5664-.2793-.8784-.3589s-.6187-.1196-.9194-.1196c-.1411,0-.2744.0127-.3999.0376s-.2358.0615-.3315.1094-.1709.1094-.2256.1846-.082.1606-.082.2563c0,.1274.041.2368.123.3281s.189.1699.3213.2358.2793.1255.4409.1777.3223.106.4819.1606c.2871.1001.5469.2095.7793.3281s.4316.2573.5981.417.2939.3462.3828.5605.1333.4692.1333.7656c0,.4146-.0898.769-.27,1.063s-.4194.5332-.7178.7178-.6426.3188-1.0322.4033-.7939.1265-1.2134.1265c-.77,0-1.4834-.1187-2.1396-.3555Z" fill="#2f2f2f"/>
      <path d="M37.558,107.7659h-4.5664c.0728,1.0161.7134,1.5244,1.9209,1.5244.77,0,1.4468-.1821,2.0303-.5469v1.5586c-.647.3462-1.4878.5195-2.5225.5195-1.1304,0-2.0073-.3135-2.6318-.9399s-.9365-1.5005-.9365-2.6216c0-1.1621.3374-2.0825,1.0117-2.7617s1.5039-1.0186,2.4883-1.0186c1.021,0,1.8105.3032,2.3687.9092s.8374,1.4287.8374,2.4678v.9092ZM35.555,106.4397c0-1.0024-.4058-1.5039-1.2168-1.5039-.3462,0-.646.1436-.8989.4307s-.4067.645-.4614,1.0732h2.5771Z" fill="#2f2f2f"/>
      <path d="M45.6834,110.6507h-2.1533v-3.8896c0-1.0845-.3872-1.627-1.1621-1.627-.3735,0-.6812.1436-.9229.4307s-.3623.6519-.3623,1.0938v3.9922h-2.1602v-7h2.1602v1.1074h.0273c.5151-.8521,1.2646-1.2783,2.249-1.2783,1.5493,0,2.3242.9614,2.3242,2.8848v4.2861Z" fill="#2f2f2f"/>
      <path d="M53.867,103.6507l-2.6045,7h-2.4609l-2.4814-7h2.3105l1.2168,4.3135c.1367.4878.2163.9023.2393,1.2441h.0273c.0317-.3237.1162-.7246.2529-1.2031l1.2441-4.3545h2.2559Z" fill="#2f2f2f"/>
      <path d="M55.9134,102.5433c-.3647,0-.6631-.1084-.8955-.3247s-.3486-.4819-.3486-.7964c0-.3237.1162-.5879.3486-.793s.5308-.3076.8955-.3076c.3691,0,.6689.1025.8989.3076s.3452.4692.3452.793c0,.3281-.1152.5972-.3452.8066s-.5298.3145-.8989.3145ZM56.9798,110.6507h-2.1602v-7h2.1602v7Z" fill="#2f2f2f"/>
      <path d="M63.328,105.5989c-.2598-.1411-.563-.2119-.9092-.2119-.4692,0-.8364.1719-1.1006.5161s-.3965.8125-.3965,1.4048v3.3428h-2.1602v-7h2.1602v1.2988h.0273c.3418-.9478.957-1.4219,1.8457-1.4219.228,0,.4058.0273.5332.082v1.9893Z" fill="#2f2f2f"/>
      <path d="M67.7542,110.8216c-1.1665,0-2.084-.3271-2.7515-.981s-1.0015-1.5415-1.0015-2.6626c0-1.1577.3462-2.0635,1.0391-2.7173s1.6294-.981,2.8096-.981c1.1621,0,2.0737.3271,2.7344.981s.9912,1.5186.9912,2.5942c0,1.1621-.3408,2.0806-1.022,2.7549s-1.6143,1.0117-2.7993,1.0117ZM67.8089,105.1341c-.5103,0-.9067.1753-1.1895.5264s-.4238.8477-.4238,1.4902c0,1.3442.5425,2.0166,1.627,2.0166,1.0347,0,1.5518-.6904,1.5518-2.0713,0-1.3081-.522-1.9619-1.5654-1.9619Z" fill="#2f2f2f"/>
      <path d="M79.7166,110.6507h-2.1533v-3.8896c0-1.0845-.3872-1.627-1.1621-1.627-.3735,0-.6812.1436-.9229.4307s-.3623.6519-.3623,1.0938v3.9922h-2.1602v-7h2.1602v1.1074h.0273c.5151-.8521,1.2646-1.2783,2.249-1.2783,1.5493,0,2.3242.9614,2.3242,2.8848v4.2861Z" fill="#2f2f2f"/>
      <path d="M92.5296,110.6507h-2.1533v-3.9922c0-1.0161-.3735-1.5244-1.1211-1.5244-.3555,0-.645.1528-.8682.458s-.335.686-.335,1.1416v3.917h-2.1602v-4.0332c0-.9888-.3667-1.4834-1.1006-1.4834-.3691,0-.6641.146-.8853.4375s-.3315.688-.3315,1.1895v3.8896h-2.1602v-7h2.1602v1.0938h.0273c.2231-.3735.5366-.6777.9399-.9126s.8442-.3521,1.3228-.3521c.9888,0,1.6655.4351,2.0303,1.3057.5332-.8706,1.3169-1.3057,2.3516-1.3057,1.522,0,2.2832.939,2.2832,2.8164v4.3545Z" fill="#2f2f2f"/>
      <path d="M100.5501,107.7659h-4.5664c.0728,1.0161.7134,1.5244,1.9209,1.5244.77,0,1.4468-.1821,2.0303-.5469v1.5586c-.647.3462-1.4878.5195-2.5225.5195-1.1304,0-2.0073-.3135-2.6318-.9399s-.9365-1.5005-.9365-2.6216c0-1.1621.3374-2.0825,1.0117-2.7617s1.5039-1.0186,2.4883-1.0186c1.021,0,1.8105.3032,2.3687.9092s.8374,1.4287.8374,2.4678v.9092ZM98.5472,106.4397c0-1.0024-.4058-1.5039-1.2168-1.5039-.3462,0-.646.1436-.8989.4307s-.4067.645-.4614,1.0732h2.5771Z" fill="#2f2f2f"/>
      <path d="M108.6756,110.6507h-2.1533v-3.8896c0-1.0845-.3872-1.627-1.1621-1.627-.3735,0-.6812.1436-.9229.4307s-.3623.6519-.3623,1.0938v3.9922h-2.1602v-7h2.1602v1.1074h.0273c.5151-.8521,1.2646-1.2783,2.249-1.2783,1.5493,0,2.3242.9614,2.3242,2.8848v4.2861Z" fill="#2f2f2f"/>
      <path d="M114.5252,110.5686c-.3188.1685-.7998.2529-1.4424.2529-1.522,0-2.2832-.7905-2.2832-2.3721v-3.2061h-1.1348v-1.5928h1.1348v-1.5107l2.1533-.6152v2.126h1.5723v1.5928h-1.5723v2.8301c0,.729.2896,1.0938.8682,1.0938.228,0,.4624-.0659.7041-.1982v1.5996Z" fill="#2f2f2f"/>
    </g>
    <g>
      <path d="M291.2723,42.7898h-2.4062l-.6973-2.1807h-3.4863l-.6904,2.1807h-2.3926l3.5684-9.8027h2.6182l3.4863,9.8027ZM287.6629,38.9139l-1.0527-3.2949c-.0776-.2461-.1323-.54-.1641-.8818h-.0547c-.0229.2871-.0796.5718-.1709.8545l-1.0664,3.3223h2.5088Z" fill="#2f2f2f"/>
      <path d="M294.4559,41.9764h-.0273v4.0332h-2.1602v-10.2197h2.1602v1.0527h.0273c.5332-.8159,1.2827-1.2236,2.249-1.2236.9067,0,1.6074.311,2.1021.9331s.7417,1.4688.7417,2.5396c0,1.1665-.2881,2.103-.8647,2.8096s-1.3433,1.0596-2.3003,1.0596c-.8433,0-1.4858-.3281-1.9277-.9844ZM294.3944,39.1053v.5605c0,.4829.1274.8774.3828,1.1826s.5903.458,1.0049.458c.4922,0,.874-.1904,1.145-.5708s.4067-.9194.4067-1.6167c0-1.2305-.4785-1.8457-1.4355-1.8457-.4419,0-.8032.1675-1.0835.5024s-.4204.7783-.4204,1.3296Z" fill="#2f2f2f"/>
      <path d="M303.1532,41.9764h-.0273v4.0332h-2.1602v-10.2197h2.1602v1.0527h.0273c.5332-.8159,1.2827-1.2236,2.249-1.2236.9067,0,1.6074.311,2.1021.9331s.7417,1.4688.7417,2.5396c0,1.1665-.2881,2.103-.8647,2.8096s-1.3433,1.0596-2.3003,1.0596c-.8433,0-1.4858-.3281-1.9277-.9844ZM303.0916,39.1053v.5605c0,.4829.1274.8774.3828,1.1826s.5903.458,1.0049.458c.4922,0,.874-.1904,1.145-.5708s.4067-.9194.4067-1.6167c0-1.2305-.4785-1.8457-1.4355-1.8457-.4419,0-.8032.1675-1.0835.5024s-.4204.7783-.4204,1.3296Z" fill="#2f2f2f"/>
    </g>
    <g>
      <path d="M268.3778,92.949h-1.3672l-1.6406-2.748c-.1504-.2554-.2964-.4727-.4375-.6528s-.2861-.3271-.4341-.4409-.3076-.1973-.4785-.2495-.3633-.0786-.5776-.0786h-.9434v4.1699h-1.1484v-9.8027h2.9258c.4282,0,.8237.0537,1.186.1606s.6768.27.9434.4888.4751.4912.6255.8169.2256.7075.2256,1.145c0,.3418-.0513.6553-.1538.9399s-.2485.5391-.4375.7622-.417.4136-.6836.5708-.5664.2793-.8989.3657v.0273c.1641.0728.3066.1562.4272.2495s.2358.2041.3452.3315.2178.2725.3247.4341.2266.3496.3589.564l1.8389,2.9463ZM262.4989,84.1853v3.5547h1.5586c.2871,0,.5527-.0435.7964-.1299s.4546-.2109.6323-.3726.3169-.3599.417-.5947.1504-.498.1504-.7896c0-.5239-.1699-.9331-.5093-1.2271s-.8306-.4409-1.4731-.4409h-1.5723Z" fill="#2f2f2f"/>
      <path d="M274.9901,89.7293h-4.9424c.0181.7793.228,1.3809.6289,1.8047s.9526.6357,1.6543.6357c.7886,0,1.5132-.2598,2.1738-.7793v1.0527c-.6152.4468-1.4287.6699-2.4404.6699-.9888,0-1.7661-.3179-2.3311-.9536s-.8477-1.5303-.8477-2.6831c0-1.0894.3086-1.9766.9263-2.6626s1.3843-1.0288,2.3003-1.0288,1.6245.2964,2.126.8887.752,1.415.752,2.4678v.5879ZM273.8416,88.7791c-.0044-.647-.1606-1.1509-.4683-1.5107s-.7349-.54-1.2817-.54c-.5288,0-.9775.189-1.3467.5674s-.5972.8726-.6836,1.4834h3.7803Z" fill="#2f2f2f"/>
      <path d="M277.8211,91.9373h-.0273v4.2314h-1.1211v-10.2197h1.1211v1.2305h.0273c.5513-.9297,1.3579-1.3945,2.4199-1.3945.9023,0,1.6064.3135,2.1123.9399s.7588,1.4663.7588,2.519c0,1.1714-.2847,2.1089-.8545,2.813s-1.3491,1.0562-2.3379,1.0562c-.9067,0-1.6064-.3921-2.0986-1.1758ZM277.7938,89.1141v.9775c0,.5786.188,1.0698.564,1.4731s.8535.605,1.4321.605c.6792,0,1.2109-.2598,1.5962-.7793s.5776-1.2417.5776-2.167c0-.7793-.1802-1.3901-.54-1.832s-.8477-.6631-1.4629-.6631c-.6519,0-1.1758.2266-1.5723.6802s-.5947,1.022-.5947,1.7056Z" fill="#2f2f2f"/>
      <path d="M285.9627,92.949h-1.1211v-10.3633h1.1211v10.3633Z" fill="#2f2f2f"/>
      <path d="M288.6498,84.1717c-.2007,0-.3716-.0684-.5127-.2051s-.2119-.3101-.2119-.5195.0708-.3838.2119-.5229.312-.2085.5127-.2085c.2051,0,.3794.0693.5229.2085s.2153.3135.2153.5229c0,.2007-.0718.3716-.2153.5127s-.3179.2119-.5229.2119ZM289.1966,92.949h-1.1211v-7h1.1211v7Z" fill="#2f2f2f"/>
      <path d="M296.1087,92.6277c-.5376.3237-1.1758.4854-1.9141.4854-.998,0-1.8037-.3247-2.4165-.9741s-.9194-1.4912-.9194-2.5259c0-1.1528.3306-2.0791.9912-2.7788s1.5425-1.0493,2.6455-1.0493c.6152,0,1.1577.1138,1.627.3418v1.1484c-.5195-.3647-1.0757-.5469-1.668-.5469-.7153,0-1.3022.2563-1.7603.769s-.687,1.186-.687,2.02c0,.8203.2153,1.4673.646,1.9414s1.0083.7109,1.7329.7109c.6108,0,1.1851-.2026,1.7227-.6084v1.0664Z" fill="#2f2f2f"/>
      <path d="M302.8524,92.949h-1.1211v-1.0938h-.0273c-.4878.8384-1.2056,1.2578-2.1533,1.2578-.6973,0-1.2432-.1846-1.6372-.5537s-.5913-.8589-.5913-1.4697c0-1.3081.77-2.0688,2.3105-2.2832l2.0986-.2939c0-1.1895-.481-1.7842-1.4424-1.7842-.8433,0-1.604.2871-2.2832.8613v-1.1484c.688-.4375,1.481-.6562,2.3789-.6562,1.645,0,2.4678.8706,2.4678,2.6113v4.5527ZM301.7313,89.408l-1.6885.2324c-.5195.0728-.9116.2017-1.1758.3862s-.3965.5117-.3965.981c0,.3418.1221.6211.3657.8374s.5684.3247.9741.3247c.5562,0,1.0151-.1948,1.3774-.5845s.5435-.8828.5435-1.48v-.6973Z" fill="#2f2f2f"/>
    </g>
    <g>
      <path d="M217.0975,121.5652c-.7246.3828-1.627.5742-2.707.5742-1.3945,0-2.5112-.4487-3.3496-1.3467s-1.2578-2.0757-1.2578-3.5342c0-1.5679.4717-2.8345,1.415-3.8008s2.1396-1.4492,3.5889-1.4492c.9297,0,1.6997.1343,2.3105.4033v1.2236c-.7017-.3921-1.4766-.5879-2.3242-.5879-1.1255,0-2.0381.376-2.7378,1.1279s-1.0493,1.7568-1.0493,3.0146c0,1.1938.3271,2.1455.981,2.854s1.5117,1.063,2.5737,1.063c.9844,0,1.8364-.2188,2.5566-.6562v1.1143Z" fill="#2f2f2f"/>
      <path d="M221.6463,122.1394c-1.0347,0-1.8604-.3271-2.478-.981s-.9263-1.521-.9263-2.6011c0-1.1758.3213-2.0942.9639-2.7549s1.5107-.9912,2.6045-.9912c1.0435,0,1.8584.3213,2.4438.9639s.8784,1.5337.8784,2.6729c0,1.1167-.3154,2.0107-.9468,2.6831s-1.4775,1.0083-2.5396,1.0083ZM221.7284,115.7547c-.7202,0-1.2896.2451-1.709.7349s-.6289,1.1655-.6289,2.0269c0,.8296.2119,1.4834.6357,1.9619s.9912.7178,1.7021.7178c.7246,0,1.2817-.2349,1.6714-.7041s.5845-1.1372.5845-2.0029c0-.875-.1948-1.5493-.5845-2.0234s-.9468-.7109-1.6714-.7109Z" fill="#2f2f2f"/>
      <path d="M232.6585,121.9754h-1.1211v-3.9922c0-1.4858-.5425-2.2285-1.627-2.2285-.5605,0-1.0244.2109-1.3911.6323s-.5503.9536-.5503,1.5962v3.9922h-1.1211v-7h1.1211v1.1621h.0273c.5288-.8843,1.2944-1.3262,2.2969-1.3262.7656,0,1.3511.2471,1.7568.7417s.6084,1.209.6084,2.1431v4.2793Z" fill="#2f2f2f"/>
      <path d="M237.888,121.907c-.2642.146-.6128.2188-1.0459.2188-1.2261,0-1.8389-.6836-1.8389-2.0508v-4.1426h-1.2031v-.957h1.2031v-1.709l1.1211-.3623v2.0713h1.7637v.957h-1.7637v3.9443c0,.4692.0796.8042.2393,1.0049s.4238.3008.793.3008c.2827,0,.5264-.0776.7314-.2324v.957Z" fill="#2f2f2f"/>
      <path d="M244.5047,121.9754h-1.1211v-1.0938h-.0273c-.4878.8384-1.2056,1.2578-2.1533,1.2578-.6973,0-1.2432-.1846-1.6372-.5537s-.5913-.8589-.5913-1.4697c0-1.3081.77-2.0688,2.3105-2.2832l2.0986-.2939c0-1.1895-.481-1.7842-1.4424-1.7842-.8433,0-1.604.2871-2.2832.8613v-1.1484c.688-.4375,1.481-.6562,2.3789-.6562,1.645,0,2.4678.8706,2.4678,2.6113v4.5527ZM243.3836,118.4344l-1.6885.2324c-.5195.0728-.9116.2017-1.1758.3862s-.3965.5117-.3965.981c0,.3418.1221.6211.3657.8374s.5684.3247.9741.3247c.5562,0,1.0151-.1948,1.3774-.5845s.5435-.8828.5435-1.48v-.6973Z" fill="#2f2f2f"/>
      <path d="M247.0838,113.198c-.2007,0-.3716-.0684-.5127-.2051s-.2119-.3101-.2119-.5195.0708-.3838.2119-.5229.312-.2085.5127-.2085c.2051,0,.3794.0693.5229.2085s.2153.3135.2153.5229c0,.2007-.0718.3716-.2153.5127s-.3179.2119-.5229.2119ZM247.6307,121.9754h-1.1211v-7h1.1211v7Z" fill="#2f2f2f"/>
      <path d="M255.5594,121.9754h-1.1211v-3.9922c0-1.4858-.5425-2.2285-1.627-2.2285-.5605,0-1.0244.2109-1.3911.6323s-.5503.9536-.5503,1.5962v3.9922h-1.1211v-7h1.1211v1.1621h.0273c.5288-.8843,1.2944-1.3262,2.2969-1.3262.7656,0,1.3511.2471,1.7568.7417s.6084,1.209.6084,2.1431v4.2793Z" fill="#2f2f2f"/>
      <path d="M263.2625,118.7557h-4.9424c.0181.7793.228,1.3809.6289,1.8047s.9526.6357,1.6543.6357c.7886,0,1.5132-.2598,2.1738-.7793v1.0527c-.6152.4468-1.4287.6699-2.4404.6699-.9888,0-1.7661-.3179-2.3311-.9536s-.8477-1.5303-.8477-2.6831c0-1.0894.3086-1.9766.9263-2.6626s1.3843-1.0288,2.3003-1.0288,1.6245.2964,2.126.8887.752,1.415.752,2.4678v.5879ZM262.1141,117.8055c-.0044-.647-.1606-1.1509-.4683-1.5107s-.7349-.54-1.2817-.54c-.5288,0-.9775.189-1.3467.5674s-.5972.8726-.6836,1.4834h3.7803Z" fill="#2f2f2f"/>
      <path d="M268.5956,116.1101c-.1958-.1504-.4785-.2256-.8477-.2256-.4785,0-.8784.2256-1.1997.6768s-.4819,1.0664-.4819,1.8457v3.5684h-1.1211v-7h1.1211v1.4424h.0273c.1597-.4922.4033-.876.7314-1.1519s.6948-.4136,1.1006-.4136c.2915,0,.5151.0317.6699.0957v1.1621Z" fill="#2f2f2f"/>
    </g>
    <g>
      <path d="M331.4979,121.5652c-.7246.3828-1.627.5742-2.707.5742-1.3945,0-2.5112-.4487-3.3496-1.3467s-1.2578-2.0757-1.2578-3.5342c0-1.5679.4717-2.8345,1.415-3.8008s2.1396-1.4492,3.5889-1.4492c.9297,0,1.6997.1343,2.3105.4033v1.2236c-.7017-.3921-1.4766-.5879-2.3242-.5879-1.1255,0-2.0381.376-2.7378,1.1279s-1.0493,1.7568-1.0493,3.0146c0,1.1938.3271,2.1455.981,2.854s1.5117,1.063,2.5737,1.063c.9844,0,1.8364-.2188,2.5566-.6562v1.1143Z" fill="#2f2f2f"/>
      <path d="M336.0467,122.1394c-1.0347,0-1.8604-.3271-2.478-.981s-.9263-1.521-.9263-2.6011c0-1.1758.3213-2.0942.9639-2.7549s1.5107-.9912,2.6045-.9912c1.0435,0,1.8584.3213,2.4438.9639s.8784,1.5337.8784,2.6729c0,1.1167-.3154,2.0107-.9468,2.6831s-1.4775,1.0083-2.5396,1.0083ZM336.1288,115.7547c-.7202,0-1.2896.2451-1.709.7349s-.6289,1.1655-.6289,2.0269c0,.8296.2119,1.4834.6357,1.9619s.9912.7178,1.7021.7178c.7246,0,1.2817-.2349,1.6714-.7041s.5845-1.1372.5845-2.0029c0-.875-.1948-1.5493-.5845-2.0234s-.9468-.7109-1.6714-.7109Z" fill="#2f2f2f"/>
      <path d="M347.0589,121.9754h-1.1211v-3.9922c0-1.4858-.5425-2.2285-1.627-2.2285-.5605,0-1.0244.2109-1.3911.6323s-.5503.9536-.5503,1.5962v3.9922h-1.1211v-7h1.1211v1.1621h.0273c.5288-.8843,1.2944-1.3262,2.2969-1.3262.7656,0,1.3511.2471,1.7568.7417s.6084,1.209.6084,2.1431v4.2793Z" fill="#2f2f2f"/>
      <path d="M352.2884,121.907c-.2642.146-.6128.2188-1.0459.2188-1.2261,0-1.8389-.6836-1.8389-2.0508v-4.1426h-1.2031v-.957h1.2031v-1.709l1.1211-.3623v2.0713h1.7637v.957h-1.7637v3.9443c0,.4692.0796.8042.2393,1.0049s.4238.3008.793.3008c.2827,0,.5264-.0776.7314-.2324v.957Z" fill="#2f2f2f"/>
      <path d="M358.9051,121.9754h-1.1211v-1.0938h-.0273c-.4878.8384-1.2056,1.2578-2.1533,1.2578-.6973,0-1.2432-.1846-1.6372-.5537s-.5913-.8589-.5913-1.4697c0-1.3081.77-2.0688,2.3105-2.2832l2.0986-.2939c0-1.1895-.481-1.7842-1.4424-1.7842-.8433,0-1.604.2871-2.2832.8613v-1.1484c.688-.4375,1.481-.6562,2.3789-.6562,1.645,0,2.4678.8706,2.4678,2.6113v4.5527ZM357.784,118.4344l-1.6885.2324c-.5195.0728-.9116.2017-1.1758.3862s-.3965.5117-.3965.981c0,.3418.1221.6211.3657.8374s.5684.3247.9741.3247c.5562,0,1.0151-.1948,1.3774-.5845s.5435-.8828.5435-1.48v-.6973Z" fill="#2f2f2f"/>
      <path d="M361.4842,113.198c-.2007,0-.3716-.0684-.5127-.2051s-.2119-.3101-.2119-.5195.0708-.3838.2119-.5229.312-.2085.5127-.2085c.2051,0,.3794.0693.5229.2085s.2153.3135.2153.5229c0,.2007-.0718.3716-.2153.5127s-.3179.2119-.5229.2119ZM362.0311,121.9754h-1.1211v-7h1.1211v7Z" fill="#2f2f2f"/>
      <path d="M369.9598,121.9754h-1.1211v-3.9922c0-1.4858-.5425-2.2285-1.627-2.2285-.5605,0-1.0244.2109-1.3911.6323s-.5503.9536-.5503,1.5962v3.9922h-1.1211v-7h1.1211v1.1621h.0273c.5288-.8843,1.2944-1.3262,2.2969-1.3262.7656,0,1.3511.2471,1.7568.7417s.6084,1.209.6084,2.1431v4.2793Z" fill="#2f2f2f"/>
      <path d="M377.6629,118.7557h-4.9424c.0181.7793.228,1.3809.6289,1.8047s.9526.6357,1.6543.6357c.7886,0,1.5132-.2598,2.1738-.7793v1.0527c-.6152.4468-1.4287.6699-2.4404.6699-.9888,0-1.7661-.3179-2.3311-.9536s-.8477-1.5303-.8477-2.6831c0-1.0894.3086-1.9766.9263-2.6626s1.3843-1.0288,2.3003-1.0288,1.6245.2964,2.126.8887.752,1.415.752,2.4678v.5879ZM376.5145,117.8055c-.0044-.647-.1606-1.1509-.4683-1.5107s-.7349-.54-1.2817-.54c-.5288,0-.9775.189-1.3467.5674s-.5972.8726-.6836,1.4834h3.7803Z" fill="#2f2f2f"/>
      <path d="M382.9959,116.1101c-.1958-.1504-.4785-.2256-.8477-.2256-.4785,0-.8784.2256-1.1997.6768s-.4819,1.0664-.4819,1.8457v3.5684h-1.1211v-7h1.1211v1.4424h.0273c.1597-.4922.4033-.876.7314-1.1519s.6948-.4136,1.1006-.4136c.2915,0,.5151.0317.6699.0957v1.1621Z" fill="#2f2f2f"/>
    </g>
  </g>
</svg>