<?xml version="1.0" encoding="UTF-8"?>
<svg xmlns="http://www.w3.org/2000/svg" width="760.914" height="184.8" xmlns:xlink="http://www.w3.org/1999/xlink" viewBox="0 0 760.914 184.8">
  <defs>
    <linearGradient id="Cool_gray_gradient_1" data-name="Cool gray gradient 1" x1="344.9634" y1="91.5079" x2="542.8836" y2="91.5079" gradientUnits="userSpaceOnUse">
      <stop offset="0" stop-color="#f5f5f4"/>
      <stop offset="1" stop-color="#ececea"/>
    </linearGradient>
    <linearGradient id="Cool_gray_gradient_1-2" data-name="Cool gray gradient 1" x1="138.3808" x2="336.301" xlink:href="#Cool_gray_gradient_1"/>
    <linearGradient id="Cool_gray_gradient_1-3" data-name="Cool gray gradient 1" x1="552.0208" x2="749.941" xlink:href="#Cool_gray_gradient_1"/>
    <linearGradient id="linear-gradient" x1="-485.4739" y1="1570.0624" x2="-485.4739" y2="1555.4387" gradientTransform="translate(564 1644) scale(1 -1)" gradientUnits="userSpaceOnUse">
      <stop offset=".001" stop-color="#773adc"/>
      <stop offset=".528" stop-color="#6635bb"/>
      <stop offset="1" stop-color="#552f99"/>
    </linearGradient>
    <linearGradient id="linear-gradient-2" x1="-495.0554" y1="1553.9892" x2="-495.0554" y2="1571.2739" gradientTransform="translate(564 1644) scale(1 -1)" gradientUnits="userSpaceOnUse">
      <stop offset=".001" stop-color="#773adc"/>
      <stop offset=".307" stop-color="#793ddd"/>
      <stop offset=".532" stop-color="#8046e1"/>
      <stop offset=".731" stop-color="#8c56e7"/>
      <stop offset=".915" stop-color="#9c6def"/>
      <stop offset="1" stop-color="#a67af4"/>
    </linearGradient>
    <linearGradient id="linear-gradient-3" x1="425.9157" y1="1333.808" x2="433.3292" y2="1333.808" gradientTransform="translate(0 1410) scale(1 -1)" gradientUnits="userSpaceOnUse">
      <stop offset=".001" stop-color="#773adc"/>
      <stop offset="1" stop-color="#552f99"/>
    </linearGradient>
    <linearGradient id="linear-gradient-4" x1="422.0943" y1="1340.0145" x2="422.0943" y2="1327.4134" gradientTransform="translate(0 1410) scale(1 -1)" gradientUnits="userSpaceOnUse">
      <stop offset="0" stop-color="#a67af4"/>
      <stop offset=".999" stop-color="#773adc"/>
    </linearGradient>
  </defs>
  <g isolation="isolate">
    <g id="Shapes">
      <rect width="760.914" height="184.8" fill="#fff"/>
      <g>
        <g mix-blend-mode="multiply" opacity=".65">
          <rect x="345.9634" y="7.2508" width="197.9202" height="170.5143" rx="8" ry="8" fill="#2b436f"/>
          <rect x="345.9634" y="7.2508" width="197.9202" height="170.5143" rx="8" ry="8" fill="#2b436f" opacity=".6"/>
        </g>
        <g>
          <rect x="344.9634" y="6.2508" width="197.9202" height="170.5143" rx="8" ry="8" fill="url(#Cool_gray_gradient_1)"/>
          <rect x="344.9634" y="6.2508" width="197.9202" height="170.5143" rx="8" ry="8" fill="#8ec8e7" opacity=".6"/>
        </g>
      </g>
      <g>
        <g mix-blend-mode="multiply" opacity=".65">
          <rect x="139.3808" y="7.2508" width="197.9202" height="170.5143" rx="8" ry="8" fill="#2b436f"/>
          <rect x="139.3808" y="7.2508" width="197.9202" height="170.5143" rx="8" ry="8" fill="#2b436f" opacity=".6"/>
        </g>
        <g>
          <rect x="138.3808" y="6.2508" width="197.9202" height="170.5143" rx="8" ry="8" fill="url(#Cool_gray_gradient_1-2)"/>
          <rect x="138.3808" y="6.2508" width="197.9202" height="170.5143" rx="8" ry="8" fill="#8ec8e7" opacity=".6"/>
        </g>
      </g>
      <g>
        <g mix-blend-mode="multiply" opacity=".65">
          <rect x="553.0208" y="7.2508" width="197.9202" height="170.5143" rx="8" ry="8" fill="#2b436f"/>
          <rect x="553.0208" y="7.2508" width="197.9202" height="170.5143" rx="8" ry="8" fill="#2b436f" opacity=".6"/>
        </g>
        <g>
          <rect x="552.0208" y="6.2508" width="197.9202" height="170.5143" rx="8" ry="8" fill="url(#Cool_gray_gradient_1-3)"/>
          <rect x="552.0208" y="6.2508" width="197.9202" height="170.5143" rx="8" ry="8" fill="#8ec8e7" opacity=".6"/>
        </g>
      </g>
      <g>
        <rect x="6.9079" y="46.3615" width="743.0245" height="111.6603" fill="#fff"/>
        <rect x="6.9079" y="46.3615" width="743.0245" height="111.6603" fill="#326ce5" opacity=".1"/>
        <rect x="6.9079" y="46.3615" width="743.0245" height="111.6603" fill="none" stroke="#326ce5" stroke-width=".25"/>
      </g>
      <g>
        <rect x="143.3009" y="55.1615" width="606.6993" height="94.0603" fill="#fff"/>
        <rect x="143.3009" y="55.1615" width="606.6993" height="94.0603" fill="#f5f3f2" opacity=".8"/>
        <rect x="143.3009" y="55.1615" width="606.6993" height="94.0603" fill="none" stroke="#9d9f9f" stroke-width=".25"/>
      </g>
      <g id="ae82470d-7a6c-4dfe-8533-59d8ff948629">
        <g>
          <path d="M72.9811,80.6347h-14.1949v-12.2057c0-1.1323.9121-2.0532,2.0444-2.0639h12.1505v14.2696ZM60.5495,78.8715h10.6755v-10.7805h-10.3944c-.1553,0-.2811.1259-.2811.2811h0v10.4994Z" fill="#949494"/>
          <path d="M88.7862,80.6347h-14.1931v-14.2696h12.1487c1.1322.0107,2.0444.9317,2.0444,2.0639v12.2057ZM76.3546,78.8715h10.6755v-10.4424c.0324-.1508-.0636-.2994-.2144-.3318-.0015-.0003-.003-.0006-.0044-.0009-.0207-.0018-.0416-.0018-.0623,0h-10.3944v10.7752Z" fill="#949494"/>
          <path d="M72.9811,96.3651h-12.1505c-1.1215,0-2.0336-.9034-2.0444-2.0248v-12.2253h14.1949v14.25ZM60.5495,83.8783v10.462c0,.1553.1259.2811.2811.2811h10.3873v-10.7431h-10.6684Z" fill="#949494"/>
          <path d="M86.7419,96.3651h-12.1487v-14.25h14.1931v12.2253c-.0107,1.1214-.9229,2.0248-2.0444,2.0248ZM76.3546,94.6018h10.3873c.1543.001.2801-.1233.2811-.2776,0-.0012,0-.0024,0-.0036v-10.4424h-10.6755l.0071,10.7236Z" fill="#949494"/>
          <path d="M83.6264,76.4534c-.0004-.2241-.1435-.423-.3559-.4946l-9.5297-3.2222c-.0254-.0075-.0519-.0105-.0783-.0089h0c-.1297-.001-.2357.1034-.2366.2331,0,.0012,0,.0024,0,.0036v16.8051c0,.1307.1059.2366.2366.2366h0c.0299-.0006.0594-.0066.0872-.0178l9.5457-3.8165c.1981-.0789.3279-.2707.3274-.484l.0036-9.2343Z" fill="url(#linear-gradient)"/>
          <path d="M73.6021,72.7277l-9.4176,1.7188c-.1344.0264-.2313.1442-.2313.2811v12.9992c-.0005.1343.0929.2508.2242.2793l9.4176,1.9981c.1531.0332.3045-.0627.3398-.2153.0017-.0213.0017-.0427,0-.0641v-16.7161c-.0017-.1511-.1213-.2745-.2722-.2811-.0201-.0021-.0404-.0021-.0605,0Z" fill="url(#linear-gradient-2)"/>
          <path d="M69.25,75.3183v12.0989l3.2774.5338v-13.2038l-3.2774.5711ZM65.2253,75.9713v10.5955l2.8468.58v-11.6541l-2.8468.4786Z" fill="#b796f9" isolation="isolate" opacity=".5"/>
        </g>
      </g>
      <g id="b8a0486a-5501-4d92-b540-a766c4b3b548">
        <g>
          <g>
            <g>
              <path d="M436.1623,79.8127c-1.5188,4.2247-5.5254,7.042-10.0149,7.0419-.9934.0042-1.9821-.1359-2.9352-.4157.1449-.3298.222-.6854.2268-1.0456.0126,0,.0378.0126.0504.0126.8632.2532,1.7585.3805,2.658.3779,3.6684-.0073,7.0142-2.0978,8.6292-5.3917l.0126-.0126,1.3731-.5669Z" fill="#32bedd"/>
              <path d="M419.3449,82.9494c-.3156.1754-.5904.4159-.8062.7055-.8734-.8954-1.5852-1.9354-2.1038-3.0738l1.3101.2897v.3275c-.0025.3563.2442.666.5921.7432l.1764.0378c.236.3264.4971.6339.781.9196l.0504.0504Z" fill="#32bedd"/>
              <path d="M430.3928,66.4343c-.1766.3157-.292.6619-.3401,1.0204-.0252-.0126-.063-.0252-.0882-.0378-1.2031-.5278-2.5032-.7981-3.817-.7936-2.8804.0048-5.6073,1.2989-7.4324,3.5273l-.3653.0756c-.3483.0711-.6.3752-.6047.7306v.5795l-1.2849.2393c1.7365-3.7867,5.5215-6.2132,9.6874-6.2105,1.4592.0009,2.9032.2965,4.2453.8692Z" fill="#32bedd"/>
              <path d="M436.0868,72.408l-1.3731-.4787c-.251-.5171-.555-1.0069-.907-1.4613-.0252-.0378-.0504-.063-.063-.0882.338-.1247.6468-.3177.907-.5669.6071.7875,1.0913,1.6624,1.4361,2.5951Z" fill="#32bedd"/>
              <path d="M427.5206,80.2284l3.1997.7055-4.9634,2.0559c-.0252,0-.0378.0126-.063.0126-.1032-.0026-.1863-.0857-.189-.189v-13.2423c.0026-.1032.0857-.1863.189-.189.0218-.002.0436.0024.063.0126l5.6184,1.9652-3.8422.718c-.3192.0723-.5479.353-.5543.6803v6.8026c-.0023.3234.2247.6032.5417.6677Z" fill="#fff"/>
              <g>
                <g id="e918f286-5032-4942-ad29-ea17e6f1cc90">
                  <path d="M416.2182,72.3676l1.5243-.2897v8.2513l-1.5495-.3401-1.2471-.2771c-.0713-.0134-.1205-.079-.1134-.1512v-6.8026c-.0022-.0707.0449-.1335.1134-.1512l1.2723-.2393Z" fill="#a67af4"/>
                </g>
                <g>
                  <g id="a47a99dd-4d47-4c70-8c42-c5ac274ce496">
                    <g>
                      <path d="M427.5206,80.2284l3.1997.7055-4.9634,2.0559c-.0252,0-.0378.0126-.063.0126-.1032-.0026-.1863-.0857-.189-.189v-13.2423c.0026-.1032.0857-.1863.189-.189.0218-.002.0436.0024.063.0126l5.6184,1.9652-3.8422.718c-.3192.0723-.5479.353-.5543.6803v6.8026c-.0023.3234.2247.6032.5417.6677Z" fill="url(#linear-gradient-3)"/>
                      <path d="M425.6486,69.3846l-7.1906,1.358c-.1037.0222-.1775.1144-.1764.2205v10.2379c-.0009.1045.0708.1956.1726.2192l7.188,1.5696c.1201.0237.2367-.0546.2604-.1747.0029-.0147.0043-.0296.0042-.0445v-13.1617c.0021-.1217-.0949-.2221-.2166-.2242h0s-.0416,0-.0416,0Z" fill="url(#linear-gradient-4)"/>
                    </g>
                  </g>
                  <polygon points="422.3254 71.4266 422.3254 80.9527 424.8273 81.3697 424.8273 70.9769 422.3254 71.4266" fill="#b796f9" isolation="isolate" opacity=".5"/>
                  <polygon points="419.2529 71.9406 419.2529 80.2863 421.431 80.7436 421.431 71.5652 419.2529 71.9406" fill="#b796f9" isolation="isolate" opacity=".5"/>
                </g>
              </g>
            </g>
            <path d="M434.9883,67.8074c-.0035,1.221-.9961,2.208-2.2171,2.2045-1.221-.0035-2.208-.9961-2.2045-2.2171.0035-1.2161.9884-2.201,2.2045-2.2045,1.2217-.0028,2.2143.9853,2.2171,2.207,0,.0034,0,.0067,0,.0101Z" fill="#32bedd"/>
            <circle cx="420.6903" cy="85.3492" r="2.2159" fill="#32bedd"/>
          </g>
          <path d="M437.5077,73.6538v4.8424c-.0017.1096-.0672.208-.1675.2519l-.965.3981-3.8674,1.5973h-.0139c-.0159.0024-.032.0024-.0479,0-.0696,0-.126-.0564-.126-.126h0v-8.7967c.0004-.0467.0266-.0894.068-.1109h.0239c.0078-.0025.0162-.0025.0239,0,.015-.0014.03.0022.0428.0101h.029l3.8031,1.3177,1.0078.3552c.1139.0353.1909.1415.189.2608Z" fill="#773adc"/>
          <path d="M432.4172,71.7025l-4.787.9007c-.0692.015-.1182.0766-.1172.1474v6.8139c-.0007.0695.047.1302.1146.1461l4.787,1.0468c.0782.0168.1553-.0329.1721-.1111.0002-.0007.0003-.0015.0005-.0022.0013-.0109.0013-.0219,0-.0328v-8.7627c.0007-.0809-.064-.1473-.1449-.1486-.0085-.0002-.0169.0006-.0252.0025Z" fill="#a67af4"/>
        </g>
      </g>
      <g>
        <rect x="174.0409" y="100.7651" width="127.6" height="30.8" fill="#fff"/>
        <rect x="174.0409" y="100.7651" width="127.6" height="30.8" fill="#326ce5" opacity=".25"/>
        <rect x="174.0409" y="100.7651" width="127.6" height="30.8" fill="none" stroke="#326ce5" stroke-width=".25"/>
      </g>
      <g>
        <rect x="380.6235" y="100.7651" width="127.6" height="30.8" fill="#fff"/>
        <rect x="380.6235" y="100.7651" width="127.6" height="30.8" fill="#326ce5" opacity=".25"/>
        <rect x="380.6235" y="100.7651" width="127.6" height="30.8" fill="none" stroke="#326ce5" stroke-width=".25"/>
      </g>
      <g>
        <rect x="587.6809" y="100.7651" width="127.6" height="30.8" fill="#fff"/>
        <rect x="587.6809" y="100.7651" width="127.6" height="30.8" fill="#326ce5" opacity=".25"/>
        <rect x="587.6809" y="100.7651" width="127.6" height="30.8" fill="none" stroke="#326ce5" stroke-width=".25"/>
      </g>
    </g>
    <g id="Text">
      <g>
        <path d="M392.8852,29.3931h-2.4062l-.6973-2.1807h-3.4863l-.6904,2.1807h-2.3926l3.5684-9.8027h2.6182l3.4863,9.8027ZM389.2758,25.5171l-1.0527-3.2949c-.0776-.2461-.1323-.54-.1641-.8818h-.0547c-.0229.2871-.0796.5718-.1709.8545l-1.0664,3.3223h2.5088Z" fill="#2f2f2f"/>
        <path d="M400.2499,22.3931l-2.6045,7h-2.4609l-2.4814-7h2.3105l1.2168,4.3135c.1367.4878.2163.9023.2393,1.2441h.0273c.0317-.3237.1162-.7246.2529-1.2031l1.2441-4.3545h2.2559Z" fill="#2f2f2f"/>
        <path d="M406.9057,29.3931h-2.0439v-1.0049h-.0273c-.4692.7837-1.1646,1.1758-2.085,1.1758-.6792,0-1.2134-.1924-1.603-.5776s-.5845-.8989-.5845-1.5415c0-1.3579.8042-2.1421,2.4131-2.3516l1.9004-.2529c0-.7656-.4146-1.1484-1.2441-1.1484-.834,0-1.627.2485-2.3789.7451v-1.627c.3008-.1548.7119-.2915,1.2339-.4102s.9971-.1777,1.4253-.1777c1.9961,0,2.9941.9956,2.9941,2.9873v4.1836ZM404.8754,26.5493v-.4717l-1.2715.1641c-.7017.0913-1.0527.4077-1.0527.9502,0,.2461.0854.4478.2563.605s.4023.2358.6938.2358c.4058,0,.7358-.1401.9912-.4204s.3828-.6348.3828-1.063Z" fill="#2f2f2f"/>
        <path d="M409.6762,21.2856c-.3647,0-.6631-.1084-.8955-.3247s-.3486-.4819-.3486-.7964c0-.3237.1162-.5879.3486-.793s.5308-.3076.8955-.3076c.3691,0,.6689.1025.8989.3076s.3452.4692.3452.793c0,.3281-.1152.5972-.3452.8066s-.5298.3145-.8989.3145ZM410.7426,29.3931h-2.1602v-7h2.1602v7Z" fill="#2f2f2f"/>
        <path d="M414.6776,29.3931h-2.1602v-10.3633h2.1602v10.3633Z" fill="#2f2f2f"/>
        <path d="M422.3427,29.3931h-2.0439v-1.0049h-.0273c-.4692.7837-1.1646,1.1758-2.085,1.1758-.6792,0-1.2134-.1924-1.603-.5776s-.5845-.8989-.5845-1.5415c0-1.3579.8042-2.1421,2.4131-2.3516l1.9004-.2529c0-.7656-.4146-1.1484-1.2441-1.1484-.834,0-1.627.2485-2.3789.7451v-1.627c.3008-.1548.7119-.2915,1.2339-.4102s.9971-.1777,1.4253-.1777c1.9961,0,2.9941.9956,2.9941,2.9873v4.1836ZM420.3124,26.5493v-.4717l-1.2715.1641c-.7017.0913-1.0527.4077-1.0527.9502,0,.2461.0854.4478.2563.605s.4023.2358.6938.2358c.4058,0,.7358-.1401.9912-.4204s.3828-.6348.3828-1.063Z" fill="#2f2f2f"/>
        <path d="M426.2265,28.5796h-.0273v.8135h-2.1602v-10.3633h2.1602v4.416h.0273c.5332-.8159,1.292-1.2236,2.2764-1.2236.9023,0,1.5972.3101,2.085.9297s.7314,1.4673.7314,2.543c0,1.1665-.2847,2.103-.8545,2.8096s-1.3306,1.0596-2.2832,1.0596c-.8613,0-1.5132-.3281-1.9551-.9844ZM426.1649,25.6265v.7178c0,.4512.1299.8247.3896,1.1211s.5923.4443.998.4443c.4922,0,.874-.1904,1.145-.5708s.4067-.9194.4067-1.6167c0-.5786-.124-1.0312-.3726-1.3569s-.6025-.4888-1.063-.4888c-.4331,0-.792.1616-1.0767.4854s-.4272.7451-.4272,1.2646Z" fill="#2f2f2f"/>
        <path d="M433.8144,21.2856c-.3647,0-.6631-.1084-.8955-.3247s-.3486-.4819-.3486-.7964c0-.3237.1162-.5879.3486-.793s.5308-.3076.8955-.3076c.3691,0,.6689.1025.8989.3076s.3452.4692.3452.793c0,.3281-.1152.5972-.3452.8066s-.5298.3145-.8989.3145ZM434.8808,29.3931h-2.1602v-7h2.1602v7Z" fill="#2f2f2f"/>
        <path d="M438.8163,29.3931h-2.1602v-10.3633h2.1602v10.3633Z" fill="#2f2f2f"/>
        <path d="M441.685,21.2856c-.3647,0-.6631-.1084-.8955-.3247s-.3486-.4819-.3486-.7964c0-.3237.1162-.5879.3486-.793s.5308-.3076.8955-.3076c.3691,0,.6689.1025.8989.3076s.3452.4692.3452.793c0,.3281-.1152.5972-.3452.8066s-.5298.3145-.8989.3145ZM442.7514,29.3931h-2.1602v-7h2.1602v7Z" fill="#2f2f2f"/>
        <path d="M448.6874,29.311c-.3188.1685-.7998.2529-1.4424.2529-1.522,0-2.2832-.7905-2.2832-2.3721v-3.2061h-1.1348v-1.5928h1.1348v-1.5107l2.1533-.6152v2.126h1.5723v1.5928h-1.5723v2.8301c0,.729.2896,1.0938.8682,1.0938.228,0,.4624-.0659.7041-.1982v1.5996Z" fill="#2f2f2f"/>
        <path d="M456.9125,22.3931l-2.8438,7.5605c-.6836,1.8184-1.7134,2.7275-3.0898,2.7275-.5239,0-.9546-.0591-1.292-.1777v-1.7227c.2871.1685.5991.2529.9365.2529.5562,0,.9434-.2622,1.1621-.7861l.3691-.8682-2.8438-6.9863h2.3926l1.3057,4.2588c.082.2642.146.5767.1914.9365h.0273c.041-.2642.1162-.5718.2256-.9229l1.3193-4.2725h2.1396Z" fill="#2f2f2f"/>
        <path d="M468.9096,29.3931h-7.8955v-1.2715l5.0244-6.7334h-4.6621v-1.7979h7.5195v1.2373l-4.915,6.7744h4.9287v1.791Z" fill="#2f2f2f"/>
        <path d="M473.4281,29.564c-1.1665,0-2.084-.3271-2.7515-.981s-1.0015-1.5415-1.0015-2.6626c0-1.1577.3462-2.0635,1.0391-2.7173s1.6294-.981,2.8096-.981c1.1621,0,2.0737.3271,2.7344.981s.9912,1.5186.9912,2.5942c0,1.1621-.3408,2.0806-1.022,2.7549s-1.6143,1.0117-2.7993,1.0117ZM473.4828,23.8765c-.5103,0-.9067.1753-1.1895.5264s-.4238.8477-.4238,1.4902c0,1.3442.5425,2.0166,1.627,2.0166,1.0347,0,1.5518-.6904,1.5518-2.0713,0-1.3081-.522-1.9619-1.5654-1.9619Z" fill="#2f2f2f"/>
        <path d="M485.3905,29.3931h-2.1533v-3.8896c0-1.0845-.3872-1.627-1.1621-1.627-.3735,0-.6812.1436-.9229.4307s-.3623.6519-.3623,1.0938v3.9922h-2.1602v-7h2.1602v1.1074h.0273c.5151-.8521,1.2646-1.2783,2.249-1.2783,1.5493,0,2.3242.9614,2.3242,2.8848v4.2861Z" fill="#2f2f2f"/>
        <path d="M493.4125,26.5083h-4.5664c.0728,1.0161.7134,1.5244,1.9209,1.5244.77,0,1.4468-.1821,2.0303-.5469v1.5586c-.647.3462-1.4878.5195-2.5225.5195-1.1304,0-2.0073-.3135-2.6318-.9399s-.9365-1.5005-.9365-2.6216c0-1.1621.3374-2.0825,1.0117-2.7617s1.5039-1.0186,2.4883-1.0186c1.021,0,1.8105.3032,2.3687.9092s.8374,1.4287.8374,2.4678v.9092ZM491.4096,25.1821c0-1.0024-.4058-1.5039-1.2168-1.5039-.3462,0-.646.1436-.8989.4307s-.4067.645-.4614,1.0732h2.5771Z" fill="#2f2f2f"/>
        <path d="M500.5834,27.6021h4.1562v1.791h-6.5215v-.7383c0-.5015.0845-.9512.2529-1.3501s.3804-.7563.6357-1.0732.5342-.5972.8374-.8408.5913-.4639.8647-.6597c.2871-.2051.5391-.4009.7554-.5879s.3989-.3726.5469-.5571.2588-.3716.3315-.5605.1094-.3906.1094-.605c0-.4194-.1187-.7358-.3555-.9502s-.5991-.3213-1.0869-.3213c-.8433,0-1.6499.335-2.4199,1.0049v-1.9004c.8521-.5513,1.814-.8271,2.8848-.8271.4966,0,.9424.0649,1.3364.1948s.728.3154,1.0015.5571.4819.5342.6255.8784.2153.728.2153,1.1519c0,.4512-.0693.8521-.2085,1.2031s-.3237.6699-.5537.957-.4956.5503-.7964.7896-.6128.4707-.9365.6938c-.2188.1548-.4297.3086-.6323.4614s-.3818.3032-.5366.4512-.2778.293-.3691.4341-.1367.2759-.1367.4033Z" fill="#2f2f2f"/>
      </g>
      <g>
        <path d="M186.3026,29.3931h-2.4062l-.6973-2.1807h-3.4863l-.6904,2.1807h-2.3926l3.5684-9.8027h2.6182l3.4863,9.8027ZM182.6933,25.5171l-1.0527-3.2949c-.0776-.2461-.1323-.54-.1641-.8818h-.0547c-.0229.2871-.0796.5718-.1709.8545l-1.0664,3.3223h2.5088Z" fill="#2f2f2f"/>
        <path d="M193.6674,22.3931l-2.6045,7h-2.4609l-2.4814-7h2.3105l1.2168,4.3135c.1367.4878.2163.9023.2393,1.2441h.0273c.0317-.3237.1162-.7246.2529-1.2031l1.2441-4.3545h2.2559Z" fill="#2f2f2f"/>
        <path d="M200.3232,29.3931h-2.0439v-1.0049h-.0273c-.4692.7837-1.1646,1.1758-2.085,1.1758-.6792,0-1.2134-.1924-1.603-.5776s-.5845-.8989-.5845-1.5415c0-1.3579.8042-2.1421,2.4131-2.3516l1.9004-.2529c0-.7656-.4146-1.1484-1.2441-1.1484-.834,0-1.627.2485-2.3789.7451v-1.627c.3008-.1548.7119-.2915,1.2339-.4102s.9971-.1777,1.4253-.1777c1.9961,0,2.9941.9956,2.9941,2.9873v4.1836ZM198.2929,26.5493v-.4717l-1.2715.1641c-.7017.0913-1.0527.4077-1.0527.9502,0,.2461.0854.4478.2563.605s.4023.2358.6938.2358c.4058,0,.7358-.1401.9912-.4204s.3828-.6348.3828-1.063Z" fill="#2f2f2f"/>
        <path d="M203.0937,21.2856c-.3647,0-.6631-.1084-.8955-.3247s-.3486-.4819-.3486-.7964c0-.3237.1162-.5879.3486-.793s.5308-.3076.8955-.3076c.3691,0,.6689.1025.8989.3076s.3452.4692.3452.793c0,.3281-.1152.5972-.3452.8066s-.5298.3145-.8989.3145ZM204.1601,29.3931h-2.1602v-7h2.1602v7Z" fill="#2f2f2f"/>
        <path d="M208.0951,29.3931h-2.1602v-10.3633h2.1602v10.3633Z" fill="#2f2f2f"/>
        <path d="M215.7602,29.3931h-2.0439v-1.0049h-.0273c-.4692.7837-1.1646,1.1758-2.085,1.1758-.6792,0-1.2134-.1924-1.603-.5776s-.5845-.8989-.5845-1.5415c0-1.3579.8042-2.1421,2.4131-2.3516l1.9004-.2529c0-.7656-.4146-1.1484-1.2441-1.1484-.834,0-1.627.2485-2.3789.7451v-1.627c.3008-.1548.7119-.2915,1.2339-.4102s.9971-.1777,1.4253-.1777c1.9961,0,2.9941.9956,2.9941,2.9873v4.1836ZM213.7299,26.5493v-.4717l-1.2715.1641c-.7017.0913-1.0527.4077-1.0527.9502,0,.2461.0854.4478.2563.605s.4023.2358.6938.2358c.4058,0,.7358-.1401.9912-.4204s.3828-.6348.3828-1.063Z" fill="#2f2f2f"/>
        <path d="M219.644,28.5796h-.0273v.8135h-2.1602v-10.3633h2.1602v4.416h.0273c.5332-.8159,1.292-1.2236,2.2764-1.2236.9023,0,1.5972.3101,2.085.9297s.7314,1.4673.7314,2.543c0,1.1665-.2847,2.103-.8545,2.8096s-1.3306,1.0596-2.2832,1.0596c-.8613,0-1.5132-.3281-1.9551-.9844ZM219.5824,25.6265v.7178c0,.4512.1299.8247.3896,1.1211s.5923.4443.998.4443c.4922,0,.874-.1904,1.145-.5708s.4067-.9194.4067-1.6167c0-.5786-.124-1.0312-.3726-1.3569s-.6025-.4888-1.063-.4888c-.4331,0-.792.1616-1.0767.4854s-.4272.7451-.4272,1.2646Z" fill="#2f2f2f"/>
        <path d="M227.2318,21.2856c-.3647,0-.6631-.1084-.8955-.3247s-.3486-.4819-.3486-.7964c0-.3237.1162-.5879.3486-.793s.5308-.3076.8955-.3076c.3691,0,.6689.1025.8989.3076s.3452.4692.3452.793c0,.3281-.1152.5972-.3452.8066s-.5298.3145-.8989.3145ZM228.2982,29.3931h-2.1602v-7h2.1602v7Z" fill="#2f2f2f"/>
        <path d="M232.2338,29.3931h-2.1602v-10.3633h2.1602v10.3633Z" fill="#2f2f2f"/>
        <path d="M235.1024,21.2856c-.3647,0-.6631-.1084-.8955-.3247s-.3486-.4819-.3486-.7964c0-.3237.1162-.5879.3486-.793s.5308-.3076.8955-.3076c.3691,0,.6689.1025.8989.3076s.3452.4692.3452.793c0,.3281-.1152.5972-.3452.8066s-.5298.3145-.8989.3145ZM236.1689,29.3931h-2.1602v-7h2.1602v7Z" fill="#2f2f2f"/>
        <path d="M242.1049,29.311c-.3188.1685-.7998.2529-1.4424.2529-1.522,0-2.2832-.7905-2.2832-2.3721v-3.2061h-1.1348v-1.5928h1.1348v-1.5107l2.1533-.6152v2.126h1.5723v1.5928h-1.5723v2.8301c0,.729.2896,1.0938.8682,1.0938.228,0,.4624-.0659.7041-.1982v1.5996Z" fill="#2f2f2f"/>
        <path d="M250.33,22.3931l-2.8438,7.5605c-.6836,1.8184-1.7134,2.7275-3.0898,2.7275-.5239,0-.9546-.0591-1.292-.1777v-1.7227c.2871.1685.5991.2529.9365.2529.5562,0,.9434-.2622,1.1621-.7861l.3691-.8682-2.8438-6.9863h2.3926l1.3057,4.2588c.082.2642.146.5767.1914.9365h.0273c.041-.2642.1162-.5718.2256-.9229l1.3193-4.2725h2.1396Z" fill="#2f2f2f"/>
        <path d="M262.3271,29.3931h-7.8955v-1.2715l5.0244-6.7334h-4.6621v-1.7979h7.5195v1.2373l-4.915,6.7744h4.9287v1.791Z" fill="#2f2f2f"/>
        <path d="M266.8456,29.564c-1.1665,0-2.084-.3271-2.7515-.981s-1.0015-1.5415-1.0015-2.6626c0-1.1577.3462-2.0635,1.0391-2.7173s1.6294-.981,2.8096-.981c1.1621,0,2.0737.3271,2.7344.981s.9912,1.5186.9912,2.5942c0,1.1621-.3408,2.0806-1.022,2.7549s-1.6143,1.0117-2.7993,1.0117ZM266.9003,23.8765c-.5103,0-.9067.1753-1.1895.5264s-.4238.8477-.4238,1.4902c0,1.3442.5425,2.0166,1.627,2.0166,1.0347,0,1.5518-.6904,1.5518-2.0713,0-1.3081-.522-1.9619-1.5654-1.9619Z" fill="#2f2f2f"/>
        <path d="M278.808,29.3931h-2.1533v-3.8896c0-1.0845-.3872-1.627-1.1621-1.627-.3735,0-.6812.1436-.9229.4307s-.3623.6519-.3623,1.0938v3.9922h-2.1602v-7h2.1602v1.1074h.0273c.5151-.8521,1.2646-1.2783,2.249-1.2783,1.5493,0,2.3242.9614,2.3242,2.8848v4.2861Z" fill="#2f2f2f"/>
        <path d="M286.83,26.5083h-4.5664c.0728,1.0161.7134,1.5244,1.9209,1.5244.77,0,1.4468-.1821,2.0303-.5469v1.5586c-.647.3462-1.4878.5195-2.5225.5195-1.1304,0-2.0073-.3135-2.6318-.9399s-.9365-1.5005-.9365-2.6216c0-1.1621.3374-2.0825,1.0117-2.7617s1.5039-1.0186,2.4883-1.0186c1.021,0,1.8105.3032,2.3687.9092s.8374,1.4287.8374,2.4678v.9092ZM284.8271,25.1821c0-1.0024-.4058-1.5039-1.2168-1.5039-.3462,0-.646.1436-.8989.4307s-.4067.645-.4614,1.0732h2.5771Z" fill="#2f2f2f"/>
        <path d="M296.7558,19.3716v10.0215h-2.1533v-7.5879c-.1187.105-.2588.2041-.4204.2974s-.334.1777-.5161.2529-.3716.1392-.5674.1914-.3896.0898-.5811.1128v-1.8184c.5605-.1641,1.0894-.3735,1.5859-.6289s.9458-.5356,1.3467-.8408h1.3057Z" fill="#2f2f2f"/>
      </g>
      <g>
        <path d="M599.9423,29.3931h-2.4062l-.6973-2.1807h-3.4863l-.6904,2.1807h-2.3926l3.5684-9.8027h2.6182l3.4863,9.8027ZM596.3329,25.5171l-1.0527-3.2949c-.0771-.2461-.1318-.54-.1641-.8818h-.0547c-.0225.2871-.0791.5718-.1709.8545l-1.0664,3.3223h2.5088Z" fill="#2f2f2f"/>
        <path d="M607.3075,22.3931l-2.6045,7h-2.4609l-2.4814-7h2.3105l1.2168,4.3135c.1367.4878.2158.9023.2393,1.2441h.0273c.0312-.3237.1162-.7246.2529-1.2031l1.2441-4.3545h2.2559Z" fill="#2f2f2f"/>
        <path d="M613.9628,29.3931h-2.0439v-1.0049h-.0273c-.4688.7837-1.1641,1.1758-2.085,1.1758-.6787,0-1.2129-.1924-1.6025-.5776s-.585-.8989-.585-1.5415c0-1.3579.8047-2.1421,2.4131-2.3516l1.9004-.2529c0-.7656-.4141-1.1484-1.2441-1.1484-.834,0-1.627.2485-2.3789.7451v-1.627c.3008-.1548.7119-.2915,1.2344-.4102.5215-.1187.9971-.1777,1.4248-.1777,1.9961,0,2.9941.9956,2.9941,2.9873v4.1836ZM611.9325,26.5493v-.4717l-1.2715.1641c-.7012.0913-1.0527.4077-1.0527.9502,0,.2461.0859.4478.2568.605s.4023.2358.6934.2358c.4062,0,.7363-.1401.9912-.4204.2559-.2803.3828-.6348.3828-1.063Z" fill="#2f2f2f"/>
        <path d="M616.7333,21.2856c-.3643,0-.6631-.1084-.8955-.3247s-.3486-.4819-.3486-.7964c0-.3237.1162-.5879.3486-.793s.5312-.3076.8955-.3076c.3691,0,.6689.1025.8994.3076.2295.2051.3447.4692.3447.793,0,.3281-.1152.5972-.3447.8066-.2305.2095-.5303.3145-.8994.3145ZM617.7997,29.3931h-2.1602v-7h2.1602v7Z" fill="#2f2f2f"/>
        <path d="M621.7353,29.3931h-2.1602v-10.3633h2.1602v10.3633Z" fill="#2f2f2f"/>
        <path d="M629.4003,29.3931h-2.0439v-1.0049h-.0273c-.4697.7837-1.165,1.1758-2.085,1.1758-.6797,0-1.2139-.1924-1.6035-.5776s-.584-.8989-.584-1.5415c0-1.3579.8037-2.1421,2.4131-2.3516l1.9004-.2529c0-.7656-.415-1.1484-1.2441-1.1484-.834,0-1.627.2485-2.3789.7451v-1.627c.3008-.1548.7119-.2915,1.2334-.4102.5225-.1187.9971-.1777,1.4258-.1777,1.9961,0,2.9941.9956,2.9941,2.9873v4.1836ZM627.37,26.5493v-.4717l-1.2715.1641c-.7021.0913-1.0527.4077-1.0527.9502,0,.2461.085.4478.2559.605s.4023.2358.6943.2358c.4053,0,.7354-.1401.9912-.4204.2549-.2803.3828-.6348.3828-1.063Z" fill="#2f2f2f"/>
        <path d="M633.2841,28.5796h-.0273v.8135h-2.1602v-10.3633h2.1602v4.416h.0273c.5332-.8159,1.292-1.2236,2.2764-1.2236.9023,0,1.5967.3101,2.085.9297.4873.6196.7314,1.4673.7314,2.543,0,1.1665-.2852,2.103-.8545,2.8096-.5703.7065-1.3311,1.0596-2.2832,1.0596-.8613,0-1.5137-.3281-1.9551-.9844ZM633.2226,25.6265v.7178c0,.4512.1299.8247.3896,1.1211s.5918.4443.998.4443c.4922,0,.874-.1904,1.1445-.5708.2715-.3804.4072-.9194.4072-1.6167,0-.5786-.124-1.0312-.373-1.3569-.248-.3257-.6025-.4888-1.0625-.4888-.4336,0-.792.1616-1.0771.4854-.2842.3237-.4268.7451-.4268,1.2646Z" fill="#2f2f2f"/>
        <path d="M640.872,21.2856c-.3652,0-.6631-.1084-.8955-.3247s-.3486-.4819-.3486-.7964c0-.3237.1162-.5879.3486-.793s.5303-.3076.8955-.3076c.3691,0,.6689.1025.8984.3076.2305.2051.3457.4692.3457.793,0,.3281-.1152.5972-.3457.8066-.2295.2095-.5293.3145-.8984.3145ZM641.9384,29.3931h-2.1602v-7h2.1602v7Z" fill="#2f2f2f"/>
        <path d="M645.8739,29.3931h-2.1602v-10.3633h2.1602v10.3633Z" fill="#2f2f2f"/>
        <path d="M648.7421,21.2856c-.3643,0-.6631-.1084-.8955-.3247s-.3486-.4819-.3486-.7964c0-.3237.1162-.5879.3486-.793s.5312-.3076.8955-.3076c.3691,0,.6689.1025.8994.3076.2295.2051.3447.4692.3447.793,0,.3281-.1152.5972-.3447.8066-.2305.2095-.5303.3145-.8994.3145ZM649.8085,29.3931h-2.1602v-7h2.1602v7Z" fill="#2f2f2f"/>
        <path d="M655.745,29.311c-.3193.1685-.7998.2529-1.4424.2529-1.5225,0-2.2832-.7905-2.2832-2.3721v-3.2061h-1.1348v-1.5928h1.1348v-1.5107l2.1533-.6152v2.126h1.5723v1.5928h-1.5723v2.8301c0,.729.2891,1.0938.8682,1.0938.2275,0,.4619-.0659.7041-.1982v1.5996Z" fill="#2f2f2f"/>
        <path d="M663.9696,22.3931l-2.8438,7.5605c-.6836,1.8184-1.7129,2.7275-3.0898,2.7275-.5234,0-.9541-.0591-1.292-.1777v-1.7227c.2871.1685.5996.2529.9365.2529.5566,0,.9434-.2622,1.1621-.7861l.3691-.8682-2.8438-6.9863h2.3926l1.3057,4.2588c.082.2642.1465.5767.1914.9365h.0273c.041-.2642.1162-.5718.2256-.9229l1.3193-4.2725h2.1396Z" fill="#2f2f2f"/>
        <path d="M675.9667,29.3931h-7.8955v-1.2715l5.0244-6.7334h-4.6621v-1.7979h7.5195v1.2373l-4.915,6.7744h4.9287v1.791Z" fill="#2f2f2f"/>
        <path d="M680.4853,29.564c-1.166,0-2.084-.3271-2.751-.981-.668-.6538-1.002-1.5415-1.002-2.6626,0-1.1577.3467-2.0635,1.0391-2.7173.6934-.6538,1.6299-.981,2.8096-.981,1.1621,0,2.0742.3271,2.7344.981.6611.6538.9912,1.5186.9912,2.5942,0,1.1621-.3408,2.0806-1.0215,2.7549-.6816.6743-1.6143,1.0117-2.7998,1.0117ZM680.5399,23.8765c-.5098,0-.9062.1753-1.1895.5264-.2822.3511-.4238.8477-.4238,1.4902,0,1.3442.543,2.0166,1.627,2.0166,1.0352,0,1.5518-.6904,1.5518-2.0713,0-1.3081-.5215-1.9619-1.5654-1.9619Z" fill="#2f2f2f"/>
        <path d="M692.4482,29.3931h-2.1533v-3.8896c0-1.0845-.3877-1.627-1.1621-1.627-.374,0-.6816.1436-.9229.4307-.2422.2871-.3623.6519-.3623,1.0938v3.9922h-2.1602v-7h2.1602v1.1074h.0273c.5146-.8521,1.2646-1.2783,2.249-1.2783,1.5488,0,2.3242.9614,2.3242,2.8848v4.2861Z" fill="#2f2f2f"/>
        <path d="M700.4696,26.5083h-4.5664c.0732,1.0161.7139,1.5244,1.9209,1.5244.7705,0,1.4473-.1821,2.0303-.5469v1.5586c-.6465.3462-1.4873.5195-2.5225.5195-1.1299,0-2.0068-.3135-2.6318-.9399-.624-.6265-.9365-1.5005-.9365-2.6216,0-1.1621.3379-2.0825,1.0117-2.7617.6748-.6792,1.5039-1.0186,2.4883-1.0186,1.0215,0,1.8105.3032,2.3691.9092.5576.606.8369,1.4287.8369,2.4678v.9092ZM698.4667,25.1821c0-1.0024-.4053-1.5039-1.2168-1.5039-.3457,0-.6455.1436-.8984.4307s-.4072.645-.4619,1.0732h2.5771Z" fill="#2f2f2f"/>
        <path d="M705.5077,29.0718v-1.8799c.6562.4785,1.4219.7178,2.2969.7178.5518,0,.9814-.1187,1.2891-.3555s.4609-.5674.4609-.9912c0-.4375-.1904-.7749-.5703-1.0117-.3809-.2368-.9033-.3555-1.5693-.3555h-.9092v-1.6543h.8408c1.2764,0,1.9141-.4238,1.9141-1.2715,0-.7974-.4893-1.1963-1.4697-1.1963-.6562,0-1.2939.2119-1.9141.6357v-1.7637c.6885-.3462,1.4902-.5195,2.4062-.5195,1.0029,0,1.7832.2256,2.3418.6768.5576.4512.8369,1.0366.8369,1.7568,0,1.2808-.6494,2.0825-1.9482,2.4062v.0342c.6934.0864,1.2402.3384,1.6406.7554.4014.417.6016.9287.6016,1.5347,0,.916-.335,1.6406-1.0049,2.1738s-1.5947.7998-2.7754.7998c-1.0117,0-1.834-.1641-2.4678-.4922Z" fill="#2f2f2f"/>
      </g>
      <g>
        <rect x="7.7862" y="105.1651" width="132" height="35.2" fill="none"/>
        <path d="M31.1137,115.1797c-.7153.3462-1.6499.5195-2.8027.5195-1.5039,0-2.6865-.4419-3.5479-1.3262s-1.292-2.062-1.292-3.5342c0-1.5679.4844-2.8394,1.4526-3.8145s2.2251-1.4629,3.77-1.4629c.957,0,1.7637.1206,2.4199.3623v2.126c-.6562-.3921-1.4038-.5879-2.2422-.5879-.9204,0-1.6636.2896-2.2285.8682s-.8477,1.3628-.8477,2.3516c0,.9478.2666,1.7031.7998,2.2661s1.251.8442,2.1533.8442c.8613,0,1.6499-.2095,2.3652-.6289v2.0166Z" fill="#2f2f2f"/>
        <path d="M35.8559,115.6992c-1.1665,0-2.084-.3271-2.7515-.981s-1.0015-1.5415-1.0015-2.6626c0-1.1577.3462-2.0635,1.0391-2.7173s1.6294-.981,2.8096-.981c1.1621,0,2.0737.3271,2.7344.981s.9912,1.5186.9912,2.5942c0,1.1621-.3408,2.0806-1.022,2.7549s-1.6143,1.0117-2.7993,1.0117ZM35.9106,110.0117c-.5103,0-.9067.1753-1.1895.5264s-.4238.8477-.4238,1.4902c0,1.3442.5425,2.0166,1.627,2.0166,1.0347,0,1.5518-.6904,1.5518-2.0713,0-1.3081-.522-1.9619-1.5654-1.9619Z" fill="#2f2f2f"/>
        <path d="M47.8183,115.5283h-2.1533v-3.8896c0-1.0845-.3872-1.627-1.1621-1.627-.3735,0-.6812.1436-.9229.4307s-.3623.6519-.3623,1.0938v3.9922h-2.1602v-7h2.1602v1.1074h.0273c.5151-.8521,1.2646-1.2783,2.249-1.2783,1.5493,0,2.3242.9614,2.3242,2.8848v4.2861Z" fill="#2f2f2f"/>
        <path d="M53.6674,115.4463c-.3188.1685-.7998.2529-1.4424.2529-1.522,0-2.2832-.7905-2.2832-2.3721v-3.2061h-1.1348v-1.5928h1.1348v-1.5107l2.1533-.6152v2.126h1.5723v1.5928h-1.5723v2.8301c0,.729.2896,1.0938.8682,1.0938.228,0,.4624-.0659.7041-.1982v1.5996Z" fill="#2f2f2f"/>
        <path d="M60.8485,115.5283h-2.0439v-1.0049h-.0273c-.4692.7837-1.1646,1.1758-2.085,1.1758-.6792,0-1.2134-.1924-1.603-.5776s-.5845-.8989-.5845-1.5415c0-1.3579.8042-2.1421,2.4131-2.3516l1.9004-.2529c0-.7656-.4146-1.1484-1.2441-1.1484-.834,0-1.627.2485-2.3789.7451v-1.627c.3008-.1548.7119-.2915,1.2339-.4102s.9971-.1777,1.4253-.1777c1.9961,0,2.9941.9956,2.9941,2.9873v4.1836ZM58.8183,112.6846v-.4717l-1.2715.1641c-.7017.0913-1.0527.4077-1.0527.9502,0,.2461.0854.4478.2563.605s.4023.2358.6938.2358c.4058,0,.7358-.1401.9912-.4204s.3828-.6348.3828-1.063Z" fill="#2f2f2f"/>
        <path d="M63.619,107.4209c-.3647,0-.6631-.1084-.8955-.3247s-.3486-.4819-.3486-.7964c0-.3237.1162-.5879.3486-.793s.5308-.3076.8955-.3076c.3691,0,.6689.1025.8989.3076s.3452.4692.3452.793c0,.3281-.1152.5972-.3452.8066s-.5298.3145-.8989.3145ZM64.6855,115.5283h-2.1602v-7h2.1602v7Z" fill="#2f2f2f"/>
        <path d="M73.2323,115.5283h-2.1533v-3.8896c0-1.0845-.3872-1.627-1.1621-1.627-.3735,0-.6812.1436-.9229.4307s-.3623.6519-.3623,1.0938v3.9922h-2.1602v-7h2.1602v1.1074h.0273c.5151-.8521,1.2646-1.2783,2.249-1.2783,1.5493,0,2.3242.9614,2.3242,2.8848v4.2861Z" fill="#2f2f2f"/>
        <path d="M81.2543,112.6436h-4.5664c.0728,1.0161.7134,1.5244,1.9209,1.5244.77,0,1.4468-.1821,2.0303-.5469v1.5586c-.647.3462-1.4878.5195-2.5225.5195-1.1304,0-2.0073-.3135-2.6318-.9399s-.9365-1.5005-.9365-2.6216c0-1.1621.3374-2.0825,1.0117-2.7617s1.5039-1.0186,2.4883-1.0186c1.021,0,1.8105.3032,2.3687.9092s.8374,1.4287.8374,2.4678v.9092ZM79.2514,111.3174c0-1.0024-.4058-1.5039-1.2168-1.5039-.3462,0-.646.1436-.8989.4307s-.4067.645-.4614,1.0732h2.5771Z" fill="#2f2f2f"/>
        <path d="M87.1855,110.4766c-.2598-.1411-.563-.2119-.9092-.2119-.4692,0-.8364.1719-1.1006.5161s-.3965.8125-.3965,1.4048v3.3428h-2.1602v-7h2.1602v1.2988h.0273c.3418-.9478.957-1.4219,1.8457-1.4219.228,0,.4058.0273.5332.082v1.9893Z" fill="#2f2f2f"/>
        <path d="M100.8847,115.5283h-2.4062l-.6973-2.1807h-3.4863l-.6904,2.1807h-2.3926l3.5684-9.8027h2.6182l3.4863,9.8027ZM97.2753,111.6523l-1.0527-3.2949c-.0776-.2461-.1323-.54-.1641-.8818h-.0547c-.0229.2871-.0796.5718-.1709.8545l-1.0664,3.3223h2.5088Z" fill="#2f2f2f"/>
        <path d="M104.0688,114.7148h-.0273v4.0332h-2.1602v-10.2197h2.1602v1.0527h.0273c.5332-.8159,1.2827-1.2236,2.249-1.2236.9067,0,1.6074.311,2.1021.9331s.7417,1.4688.7417,2.5396c0,1.1665-.2881,2.103-.8647,2.8096s-1.3433,1.0596-2.3003,1.0596c-.8433,0-1.4858-.3281-1.9277-.9844ZM104.0072,111.8438v.5605c0,.4829.1274.8774.3828,1.1826s.5903.458,1.0049.458c.4922,0,.874-.1904,1.145-.5708s.4067-.9194.4067-1.6167c0-1.2305-.4785-1.8457-1.4355-1.8457-.4419,0-.8032.1675-1.0835.5024s-.4204.7783-.4204,1.3296Z" fill="#2f2f2f"/>
        <path d="M112.7655,114.7148h-.0273v4.0332h-2.1602v-10.2197h2.1602v1.0527h.0273c.5332-.8159,1.2827-1.2236,2.249-1.2236.9067,0,1.6074.311,2.1021.9331s.7417,1.4688.7417,2.5396c0,1.1665-.2881,2.103-.8647,2.8096s-1.3433,1.0596-2.3003,1.0596c-.8433,0-1.4858-.3281-1.9277-.9844ZM112.704,111.8438v.5605c0,.4829.1274.8774.3828,1.1826s.5903.458,1.0049.458c.4922,0,.874-.1904,1.145-.5708s.4067-.9194.4067-1.6167c0-1.2305-.4785-1.8457-1.4355-1.8457-.4419,0-.8032.1675-1.0835.5024s-.4204.7783-.4204,1.3296Z" fill="#2f2f2f"/>
        <path d="M118.8983,115.3438v-1.75c.3555.2144.71.3735,1.063.4785s.687.1572,1.0015.1572c.3828,0,.6846-.0522.9058-.1572s.3315-.2642.3315-.4785c0-.1367-.0503-.2505-.1504-.3418s-.229-.1709-.3862-.2393-.3291-.1299-.5161-.1846-.3667-.1162-.54-.1846c-.2778-.105-.5229-.2178-.7349-.3384s-.3896-.2607-.5332-.4204-.2529-.3442-.3281-.5537-.1128-.458-.1128-.7451c0-.3921.0854-.729.2563-1.0117s.3989-.5137.6836-.6938.6108-.312.9775-.3965.7485-.1265,1.145-.1265c.3101,0,.6245.0239.9434.0718s.6333.1172.9434.2085v1.668c-.2734-.1597-.5664-.2793-.8784-.3589s-.6187-.1196-.9194-.1196c-.1411,0-.2744.0127-.3999.0376s-.2358.0615-.3315.1094-.1709.1094-.2256.1846-.082.1606-.082.2563c0,.1274.041.2368.123.3281s.189.1699.3213.2358.2793.1255.4409.1777.3223.106.4819.1606c.2871.1001.5469.2095.7793.3281s.4316.2573.5981.417.2939.3462.3828.5605.1333.4692.1333.7656c0,.4146-.0898.769-.27,1.063s-.4194.5332-.7178.7178-.6426.3188-1.0322.4033-.7939.1265-1.2134.1265c-.77,0-1.4834-.1187-2.1396-.3555Z" fill="#2f2f2f"/>
        <path d="M38.7475,129.4434h-4.5664c.0728,1.0161.7134,1.5244,1.9209,1.5244.77,0,1.4468-.1821,2.0303-.5469v1.5586c-.647.3462-1.4878.5195-2.5225.5195-1.1304,0-2.0073-.3135-2.6318-.9399s-.9365-1.5005-.9365-2.6216c0-1.1621.3374-2.0825,1.0117-2.7617s1.5039-1.0186,2.4883-1.0186c1.021,0,1.8105.3032,2.3687.9092s.8374,1.4287.8374,2.4678v.9092ZM36.7445,128.1172c0-1.0024-.4058-1.5039-1.2168-1.5039-.3462,0-.646.1436-.8989.4307s-.4067.645-.4614,1.0732h2.5771Z" fill="#2f2f2f"/>
        <path d="M46.873,132.3281h-2.1533v-3.8896c0-1.0845-.3872-1.627-1.1621-1.627-.3735,0-.6812.1436-.9229.4307s-.3623.6519-.3623,1.0938v3.9922h-2.1602v-7h2.1602v1.1074h.0273c.5151-.8521,1.2646-1.2783,2.249-1.2783,1.5493,0,2.3242.9614,2.3242,2.8848v4.2861Z" fill="#2f2f2f"/>
        <path d="M55.0565,125.3281l-2.6045,7h-2.4609l-2.4814-7h2.3105l1.2168,4.3135c.1367.4878.2163.9023.2393,1.2441h.0273c.0317-.3237.1162-.7246.2529-1.2031l1.2441-4.3545h2.2559Z" fill="#2f2f2f"/>
        <path d="M57.1029,124.2207c-.3647,0-.6631-.1084-.8955-.3247s-.3486-.4819-.3486-.7964c0-.3237.1162-.5879.3486-.793s.5308-.3076.8955-.3076c.3691,0,.6689.1025.8989.3076s.3452.4692.3452.793c0,.3281-.1152.5972-.3452.8066s-.5298.3145-.8989.3145ZM58.1693,132.3281h-2.1602v-7h2.1602v7Z" fill="#2f2f2f"/>
        <path d="M64.5175,127.2764c-.2598-.1411-.563-.2119-.9092-.2119-.4692,0-.8364.1719-1.1006.5161s-.3965.8125-.3965,1.4048v3.3428h-2.1602v-7h2.1602v1.2988h.0273c.3418-.9478.957-1.4219,1.8457-1.4219.228,0,.4058.0273.5332.082v1.9893Z" fill="#2f2f2f"/>
        <path d="M68.9438,132.499c-1.1665,0-2.084-.3271-2.7515-.981s-1.0015-1.5415-1.0015-2.6626c0-1.1577.3462-2.0635,1.0391-2.7173s1.6294-.981,2.8096-.981c1.1621,0,2.0737.3271,2.7344.981s.9912,1.5186.9912,2.5942c0,1.1621-.3408,2.0806-1.022,2.7549s-1.6143,1.0117-2.7993,1.0117ZM68.9984,126.8115c-.5103,0-.9067.1753-1.1895.5264s-.4238.8477-.4238,1.4902c0,1.3442.5425,2.0166,1.627,2.0166,1.0347,0,1.5518-.6904,1.5518-2.0713,0-1.3081-.522-1.9619-1.5654-1.9619Z" fill="#2f2f2f"/>
        <path d="M80.9062,132.3281h-2.1533v-3.8896c0-1.0845-.3872-1.627-1.1621-1.627-.3735,0-.6812.1436-.9229.4307s-.3623.6519-.3623,1.0938v3.9922h-2.1602v-7h2.1602v1.1074h.0273c.5151-.8521,1.2646-1.2783,2.249-1.2783,1.5493,0,2.3242.9614,2.3242,2.8848v4.2861Z" fill="#2f2f2f"/>
        <path d="M93.7191,132.3281h-2.1533v-3.9922c0-1.0161-.3735-1.5244-1.1211-1.5244-.3555,0-.645.1528-.8682.458s-.335.686-.335,1.1416v3.917h-2.1602v-4.0332c0-.9888-.3667-1.4834-1.1006-1.4834-.3691,0-.6641.146-.8853.4375s-.3315.688-.3315,1.1895v3.8896h-2.1602v-7h2.1602v1.0938h.0273c.2231-.3735.5366-.6777.9399-.9126s.8442-.3521,1.3228-.3521c.9888,0,1.6655.4351,2.0303,1.3057.5332-.8706,1.3169-1.3057,2.3516-1.3057,1.522,0,2.2832.939,2.2832,2.8164v4.3545Z" fill="#2f2f2f"/>
        <path d="M101.7397,129.4434h-4.5664c.0728,1.0161.7134,1.5244,1.9209,1.5244.77,0,1.4468-.1821,2.0303-.5469v1.5586c-.647.3462-1.4878.5195-2.5225.5195-1.1304,0-2.0073-.3135-2.6318-.9399s-.9365-1.5005-.9365-2.6216c0-1.1621.3374-2.0825,1.0117-2.7617s1.5039-1.0186,2.4883-1.0186c1.021,0,1.8105.3032,2.3687.9092s.8374,1.4287.8374,2.4678v.9092ZM99.7367,128.1172c0-1.0024-.4058-1.5039-1.2168-1.5039-.3462,0-.646.1436-.8989.4307s-.4067.645-.4614,1.0732h2.5771Z" fill="#2f2f2f"/>
        <path d="M109.8651,132.3281h-2.1533v-3.8896c0-1.0845-.3872-1.627-1.1621-1.627-.3735,0-.6812.1436-.9229.4307s-.3623.6519-.3623,1.0938v3.9922h-2.1602v-7h2.1602v1.1074h.0273c.5151-.8521,1.2646-1.2783,2.249-1.2783,1.5493,0,2.3242.9614,2.3242,2.8848v4.2861Z" fill="#2f2f2f"/>
        <path d="M115.7148,132.2461c-.3188.1685-.7998.2529-1.4424.2529-1.522,0-2.2832-.7905-2.2832-2.3721v-3.2061h-1.1348v-1.5928h1.1348v-1.5107l2.1533-.6152v2.126h1.5723v1.5928h-1.5723v2.8301c0,.729.2896,1.0938.8682,1.0938.228,0,.4624-.0659.7041-.1982v1.5996Z" fill="#2f2f2f"/>
      </g>
      <g>
        <path d="M453.1078,80.6675h-2.4062l-.6973-2.1807h-3.4863l-.6904,2.1807h-2.3926l3.5684-9.8027h2.6182l3.4863,9.8027ZM449.4984,76.7915l-1.0527-3.2949c-.0776-.2461-.1323-.54-.1641-.8818h-.0547c-.0229.2871-.0796.5718-.1709.8545l-1.0664,3.3223h2.5088Z" fill="#2f2f2f"/>
        <path d="M456.2914,79.854h-.0273v4.0332h-2.1602v-10.2197h2.1602v1.0527h.0273c.5332-.8159,1.2827-1.2236,2.249-1.2236.9067,0,1.6074.311,2.1021.9331s.7417,1.4688.7417,2.5396c0,1.1665-.2881,2.103-.8647,2.8096s-1.3433,1.0596-2.3003,1.0596c-.8433,0-1.4858-.3281-1.9277-.9844ZM456.2299,76.9829v.5605c0,.4829.1274.8774.3828,1.1826s.5903.458,1.0049.458c.4922,0,.874-.1904,1.145-.5708s.4067-.9194.4067-1.6167c0-1.2305-.4785-1.8457-1.4355-1.8457-.4419,0-.8032.1675-1.0835.5024s-.4204.7783-.4204,1.3296Z" fill="#2f2f2f"/>
        <path d="M464.9887,79.854h-.0273v4.0332h-2.1602v-10.2197h2.1602v1.0527h.0273c.5332-.8159,1.2827-1.2236,2.249-1.2236.9067,0,1.6074.311,2.1021.9331s.7417,1.4688.7417,2.5396c0,1.1665-.2881,2.103-.8647,2.8096s-1.3433,1.0596-2.3003,1.0596c-.8433,0-1.4858-.3281-1.9277-.9844ZM464.9272,76.9829v.5605c0,.4829.1274.8774.3828,1.1826s.5903.458,1.0049.458c.4922,0,.874-.1904,1.145-.5708s.4067-.9194.4067-1.6167c0-1.2305-.4785-1.8457-1.4355-1.8457-.4419,0-.8032.1675-1.0835.5024s-.4204.7783-.4204,1.3296Z" fill="#2f2f2f"/>
      </g>
      <g>
        <path d="M218.5805,120.8267h-1.3672l-1.6406-2.748c-.1504-.2554-.2964-.4727-.4375-.6528s-.2861-.3271-.4341-.4409-.3076-.1973-.4785-.2495-.3633-.0786-.5776-.0786h-.9434v4.1699h-1.1484v-9.8027h2.9258c.4282,0,.8237.0537,1.186.1606s.6768.27.9434.4888.4751.4912.6255.8169.2256.7075.2256,1.145c0,.3418-.0513.6553-.1538.9399s-.2485.5391-.4375.7622-.417.4136-.6836.5708-.5664.2793-.8989.3657v.0273c.1641.0728.3066.1562.4272.2495s.2358.2041.3452.3315.2178.2725.3247.4341.2266.3496.3589.564l1.8389,2.9463ZM212.7016,112.063v3.5547h1.5586c.2871,0,.5527-.0435.7964-.1299s.4546-.2109.6323-.3726.3169-.3599.417-.5947.1504-.498.1504-.7896c0-.5239-.1699-.9331-.5093-1.2271s-.8306-.4409-1.4731-.4409h-1.5723Z" fill="#2f2f2f"/>
        <path d="M225.1928,117.6069h-4.9424c.0181.7793.228,1.3809.6289,1.8047s.9526.6357,1.6543.6357c.7886,0,1.5132-.2598,2.1738-.7793v1.0527c-.6152.4468-1.4287.6699-2.4404.6699-.9888,0-1.7661-.3179-2.3311-.9536s-.8477-1.5303-.8477-2.6831c0-1.0894.3086-1.9766.9263-2.6626s1.3843-1.0288,2.3003-1.0288,1.6245.2964,2.126.8887.752,1.415.752,2.4678v.5879ZM224.0443,116.6567c-.0044-.647-.1606-1.1509-.4683-1.5107s-.7349-.54-1.2817-.54c-.5288,0-.9775.189-1.3467.5674s-.5972.8726-.6836,1.4834h3.7803Z" fill="#2f2f2f"/>
        <path d="M228.0238,119.8149h-.0273v4.2314h-1.1211v-10.2197h1.1211v1.2305h.0273c.5513-.9297,1.3579-1.3945,2.4199-1.3945.9023,0,1.6064.3135,2.1123.9399s.7588,1.4663.7588,2.519c0,1.1714-.2847,2.1089-.8545,2.813s-1.3491,1.0562-2.3379,1.0562c-.9067,0-1.6064-.3921-2.0986-1.1758ZM227.9965,116.9917v.9775c0,.5786.188,1.0698.564,1.4731s.8535.605,1.4321.605c.6792,0,1.2109-.2598,1.5962-.7793s.5776-1.2417.5776-2.167c0-.7793-.1802-1.3901-.54-1.832s-.8477-.6631-1.4629-.6631c-.6519,0-1.1758.2266-1.5723.6802s-.5947,1.022-.5947,1.7056Z" fill="#2f2f2f"/>
        <path d="M236.1654,120.8267h-1.1211v-10.3633h1.1211v10.3633Z" fill="#2f2f2f"/>
        <path d="M238.8524,112.0493c-.2007,0-.3716-.0684-.5127-.2051s-.2119-.3101-.2119-.5195.0708-.3838.2119-.5229.312-.2085.5127-.2085c.2051,0,.3794.0693.5229.2085s.2153.3135.2153.5229c0,.2007-.0718.3716-.2153.5127s-.3179.2119-.5229.2119ZM239.3993,120.8267h-1.1211v-7h1.1211v7Z" fill="#2f2f2f"/>
        <path d="M246.3114,120.5054c-.5376.3237-1.1758.4854-1.9141.4854-.998,0-1.8037-.3247-2.4165-.9741s-.9194-1.4912-.9194-2.5259c0-1.1528.3306-2.0791.9912-2.7788s1.5425-1.0493,2.6455-1.0493c.6152,0,1.1577.1138,1.627.3418v1.1484c-.5195-.3647-1.0757-.5469-1.668-.5469-.7153,0-1.3022.2563-1.7603.769s-.687,1.186-.687,2.02c0,.8203.2153,1.4673.646,1.9414s1.0083.7109,1.7329.7109c.6108,0,1.1851-.2026,1.7227-.6084v1.0664Z" fill="#2f2f2f"/>
        <path d="M253.0551,120.8267h-1.1211v-1.0938h-.0273c-.4878.8384-1.2056,1.2578-2.1533,1.2578-.6973,0-1.2432-.1846-1.6372-.5537s-.5913-.8589-.5913-1.4697c0-1.3081.77-2.0688,2.3105-2.2832l2.0986-.2939c0-1.1895-.481-1.7842-1.4424-1.7842-.8433,0-1.604.2871-2.2832.8613v-1.1484c.688-.4375,1.481-.6562,2.3789-.6562,1.645,0,2.4678.8706,2.4678,2.6113v4.5527ZM251.934,117.2856l-1.6885.2324c-.5195.0728-.9116.2017-1.1758.3862s-.3965.5117-.3965.981c0,.3418.1221.6211.3657.8374s.5684.3247.9741.3247c.5562,0,1.0151-.1948,1.3774-.5845s.5435-.8828.5435-1.48v-.6973Z" fill="#2f2f2f"/>
        <path d="M262.8168,120.8267h-1.1211v-8.4697c-.0864.0864-.2129.1855-.3794.2974s-.353.2222-.5605.3315-.4263.2119-.6562.3076-.4546.1709-.6733.2256v-1.1348c.2461-.0684.5068-.1606.7827-.2769s.5469-.2461.8135-.3896.5186-.2939.7554-.4512.4419-.311.6152-.4614h.4238v10.0215Z" fill="#2f2f2f"/>
      </g>
      <g>
        <path d="M425.163,120.8267h-1.3672l-1.6406-2.748c-.1504-.2554-.2964-.4727-.4375-.6528s-.2861-.3271-.4341-.4409-.3076-.1973-.4785-.2495-.3633-.0786-.5776-.0786h-.9434v4.1699h-1.1484v-9.8027h2.9258c.4282,0,.8237.0537,1.186.1606s.6768.27.9434.4888.4751.4912.6255.8169.2256.7075.2256,1.145c0,.3418-.0513.6553-.1538.9399s-.2485.5391-.4375.7622-.417.4136-.6836.5708-.5664.2793-.8989.3657v.0273c.1641.0728.3066.1562.4272.2495s.2358.2041.3452.3315.2178.2725.3247.4341.2266.3496.3589.564l1.8389,2.9463ZM419.2841,112.063v3.5547h1.5586c.2871,0,.5527-.0435.7964-.1299s.4546-.2109.6323-.3726.3169-.3599.417-.5947.1504-.498.1504-.7896c0-.5239-.1699-.9331-.5093-1.2271s-.8306-.4409-1.4731-.4409h-1.5723Z" fill="#2f2f2f"/>
        <path d="M431.7753,117.6069h-4.9424c.0181.7793.228,1.3809.6289,1.8047s.9526.6357,1.6543.6357c.7886,0,1.5132-.2598,2.1738-.7793v1.0527c-.6152.4468-1.4287.6699-2.4404.6699-.9888,0-1.7661-.3179-2.3311-.9536s-.8477-1.5303-.8477-2.6831c0-1.0894.3086-1.9766.9263-2.6626s1.3843-1.0288,2.3003-1.0288,1.6245.2964,2.126.8887.752,1.415.752,2.4678v.5879ZM430.6269,116.6567c-.0044-.647-.1606-1.1509-.4683-1.5107s-.7349-.54-1.2817-.54c-.5288,0-.9775.189-1.3467.5674s-.5972.8726-.6836,1.4834h3.7803Z" fill="#2f2f2f"/>
        <path d="M434.6064,119.8149h-.0273v4.2314h-1.1211v-10.2197h1.1211v1.2305h.0273c.5513-.9297,1.3579-1.3945,2.4199-1.3945.9023,0,1.6064.3135,2.1123.9399s.7588,1.4663.7588,2.519c0,1.1714-.2847,2.1089-.8545,2.813s-1.3491,1.0562-2.3379,1.0562c-.9067,0-1.6064-.3921-2.0986-1.1758ZM434.579,116.9917v.9775c0,.5786.188,1.0698.564,1.4731s.8535.605,1.4321.605c.6792,0,1.2109-.2598,1.5962-.7793s.5776-1.2417.5776-2.167c0-.7793-.1802-1.3901-.54-1.832s-.8477-.6631-1.4629-.6631c-.6519,0-1.1758.2266-1.5723.6802s-.5947,1.022-.5947,1.7056Z" fill="#2f2f2f"/>
        <path d="M442.748,120.8267h-1.1211v-10.3633h1.1211v10.3633Z" fill="#2f2f2f"/>
        <path d="M445.435,112.0493c-.2007,0-.3716-.0684-.5127-.2051s-.2119-.3101-.2119-.5195.0708-.3838.2119-.5229.312-.2085.5127-.2085c.2051,0,.3794.0693.5229.2085s.2153.3135.2153.5229c0,.2007-.0718.3716-.2153.5127s-.3179.2119-.5229.2119ZM445.9818,120.8267h-1.1211v-7h1.1211v7Z" fill="#2f2f2f"/>
        <path d="M452.894,120.5054c-.5376.3237-1.1758.4854-1.9141.4854-.998,0-1.8037-.3247-2.4165-.9741s-.9194-1.4912-.9194-2.5259c0-1.1528.3306-2.0791.9912-2.7788s1.5425-1.0493,2.6455-1.0493c.6152,0,1.1577.1138,1.627.3418v1.1484c-.5195-.3647-1.0757-.5469-1.668-.5469-.7153,0-1.3022.2563-1.7603.769s-.687,1.186-.687,2.02c0,.8203.2153,1.4673.646,1.9414s1.0083.7109,1.7329.7109c.6108,0,1.1851-.2026,1.7227-.6084v1.0664Z" fill="#2f2f2f"/>
        <path d="M459.6376,120.8267h-1.1211v-1.0938h-.0273c-.4878.8384-1.2056,1.2578-2.1533,1.2578-.6973,0-1.2432-.1846-1.6372-.5537s-.5913-.8589-.5913-1.4697c0-1.3081.77-2.0688,2.3105-2.2832l2.0986-.2939c0-1.1895-.481-1.7842-1.4424-1.7842-.8433,0-1.604.2871-2.2832.8613v-1.1484c.688-.4375,1.481-.6562,2.3789-.6562,1.645,0,2.4678.8706,2.4678,2.6113v4.5527ZM458.5165,117.2856l-1.6885.2324c-.5195.0728-.9116.2017-1.1758.3862s-.3965.5117-.3965.981c0,.3418.1221.6211.3657.8374s.5684.3247.9741.3247c.5562,0,1.0151-.1948,1.3774-.5845s.5435-.8828.5435-1.48v-.6973Z" fill="#2f2f2f"/>
        <path d="M469.7274,113.5942c0-.3008-.0469-.563-.1401-.7861s-.2212-.4092-.3828-.5571-.3521-.2588-.5708-.3315-.4556-.1094-.7109-.1094c-.2188,0-.4331.0298-.6426.0889s-.4136.1411-.6118.2461-.3896.23-.5742.376-.3564.3076-.5161.4854v-1.2031c.3145-.3052.6665-.5391,1.0562-.7007s.8647-.2427,1.4253-.2427c.4009,0,.7725.0581,1.1143.1743s.6382.2861.8887.5093.4478.499.5913.8271.2153.7041.2153,1.1279c0,.3872-.0444.7383-.1333,1.0527s-.2231.6108-.4033.8887-.4067.5444-.6802.7998-.5947.5151-.9639.7793c-.4604.3281-.8398.6084-1.1382.8408s-.5356.4502-.7109.6528-.2983.4058-.3691.6084-.106.4365-.106.7007h4.8809v1.0049h-6.0498v-.4854c0-.4194.0454-.7886.1367-1.1074s.2417-.6221.4512-.9092.4844-.5742.8237-.8613.7554-.6108,1.2476-.9707c.3555-.2554.6528-.499.8921-.7314s.4316-.4648.5776-.6973.2495-.4683.311-.7075.0923-.4932.0923-.7622Z" fill="#2f2f2f"/>
      </g>
      <g>
        <path d="M632.2201,120.8267h-1.3672l-1.6406-2.748c-.1504-.2554-.2964-.4727-.4375-.6528s-.2861-.3271-.4341-.4409-.3076-.1973-.4785-.2495-.3633-.0786-.5776-.0786h-.9434v4.1699h-1.1484v-9.8027h2.9258c.4282,0,.8237.0537,1.186.1606s.6768.27.9434.4888.4751.4912.6255.8169.2256.7075.2256,1.145c0,.3418-.0513.6553-.1538.9399s-.2485.5391-.4375.7622-.417.4136-.6836.5708-.5664.2793-.8989.3657v.0273c.1641.0728.3066.1562.4272.2495s.2358.2041.3452.3315.2178.2725.3247.4341.2266.3496.3589.564l1.8389,2.9463ZM626.3412,112.063v3.5547h1.5586c.2871,0,.5527-.0435.7964-.1299s.4546-.2109.6323-.3726.3169-.3599.417-.5947.1504-.498.1504-.7896c0-.5239-.1699-.9331-.5093-1.2271s-.8306-.4409-1.4731-.4409h-1.5723Z" fill="#2f2f2f"/>
        <path d="M638.8324,117.6069h-4.9424c.0181.7793.228,1.3809.6289,1.8047s.9526.6357,1.6543.6357c.7886,0,1.5132-.2598,2.1738-.7793v1.0527c-.6152.4468-1.4287.6699-2.4404.6699-.9888,0-1.7661-.3179-2.3311-.9536s-.8477-1.5303-.8477-2.6831c0-1.0894.3086-1.9766.9263-2.6626s1.3843-1.0288,2.3003-1.0288,1.6245.2964,2.126.8887.752,1.415.752,2.4678v.5879ZM637.684,116.6567c-.0044-.647-.1606-1.1509-.4683-1.5107s-.7349-.54-1.2817-.54c-.5288,0-.9775.189-1.3467.5674s-.5972.8726-.6836,1.4834h3.7803Z" fill="#2f2f2f"/>
        <path d="M641.6635,119.8149h-.0273v4.2314h-1.1211v-10.2197h1.1211v1.2305h.0273c.5513-.9297,1.3579-1.3945,2.4199-1.3945.9023,0,1.6064.3135,2.1123.9399s.7588,1.4663.7588,2.519c0,1.1714-.2847,2.1089-.8545,2.813s-1.3491,1.0562-2.3379,1.0562c-.9067,0-1.6064-.3921-2.0986-1.1758ZM641.6361,116.9917v.9775c0,.5786.188,1.0698.564,1.4731s.8535.605,1.4321.605c.6792,0,1.2109-.2598,1.5962-.7793s.5776-1.2417.5776-2.167c0-.7793-.1802-1.3901-.54-1.832s-.8477-.6631-1.4629-.6631c-.6519,0-1.1758.2266-1.5723.6802s-.5947,1.022-.5947,1.7056Z" fill="#2f2f2f"/>
        <path d="M649.8051,120.8267h-1.1211v-10.3633h1.1211v10.3633Z" fill="#2f2f2f"/>
        <path d="M652.4921,112.0493c-.2007,0-.3716-.0684-.5127-.2051s-.2119-.3101-.2119-.5195.0708-.3838.2119-.5229.312-.2085.5127-.2085c.2051,0,.3794.0693.5229.2085s.2153.3135.2153.5229c0,.2007-.0718.3716-.2153.5127s-.3179.2119-.5229.2119ZM653.039,120.8267h-1.1211v-7h1.1211v7Z" fill="#2f2f2f"/>
        <path d="M659.9511,120.5054c-.5376.3237-1.1758.4854-1.9141.4854-.998,0-1.8037-.3247-2.4165-.9741s-.9194-1.4912-.9194-2.5259c0-1.1528.3306-2.0791.9912-2.7788s1.5425-1.0493,2.6455-1.0493c.6152,0,1.1577.1138,1.627.3418v1.1484c-.5195-.3647-1.0757-.5469-1.668-.5469-.7153,0-1.3022.2563-1.7603.769s-.687,1.186-.687,2.02c0,.8203.2153,1.4673.646,1.9414s1.0083.7109,1.7329.7109c.6108,0,1.1851-.2026,1.7227-.6084v1.0664Z" fill="#2f2f2f"/>
        <path d="M666.6947,120.8267h-1.1211v-1.0938h-.0273c-.4878.8384-1.2056,1.2578-2.1533,1.2578-.6973,0-1.2432-.1846-1.6372-.5537s-.5913-.8589-.5913-1.4697c0-1.3081.77-2.0688,2.3105-2.2832l2.0986-.2939c0-1.1895-.481-1.7842-1.4424-1.7842-.8433,0-1.604.2871-2.2832.8613v-1.1484c.688-.4375,1.481-.6562,2.3789-.6562,1.645,0,2.4678.8706,2.4678,2.6113v4.5527ZM665.5736,117.2856l-1.6885.2324c-.5195.0728-.9116.2017-1.1758.3862s-.3965.5117-.3965.981c0,.3418.1221.6211.3657.8374s.5684.3247.9741.3247c.5562,0,1.0151-.1948,1.3774-.5845s.5435-.8828.5435-1.48v-.6973Z" fill="#2f2f2f"/>
        <path d="M678.0219,118.0513c0,.4419-.083.8442-.2495,1.2065s-.4009.6724-.7041.9297-.6665.457-1.0903.5981-.8911.2119-1.4014.2119c-.9341,0-1.6772-.1777-2.2285-.5332v-1.2031c.6606.5195,1.4175.7793,2.2695.7793.3418,0,.6504-.0435.9263-.1299s.5127-.2119.7109-.376.3511-.3623.458-.5947.1606-.4946.1606-.7861c0-1.2808-.9116-1.9209-2.7344-1.9209h-.8135v-.9502h.7725c1.6133,0,2.4199-.6016,2.4199-1.8047,0-1.1118-.6152-1.668-1.8457-1.668-.6929,0-1.3423.2324-1.9482.6973v-1.0869c.6245-.3735,1.3672-.5605,2.2285-.5605.4102,0,.7817.0571,1.1143.1709s.6177.2734.8545.4785.4204.4512.5503.7383.1948.604.1948.9502c0,1.2896-.6519,2.1191-1.9551,2.4883v.0273c.3325.0366.6401.1172.9229.2427s.5264.2881.7314.4888.3657.4365.4819.7075.1743.5708.1743.8989Z" fill="#2f2f2f"/>
      </g>
    </g>
  </g>
</svg>