<svg xmlns="http://www.w3.org/2000/svg" xmlns:xlink="http://www.w3.org/1999/xlink" viewBox="0 0 146.1189 40">
  <defs>
    <linearGradient id="linear-gradient" x1="-536.4826" y1="1598.7442" x2="-536.4826" y2="1622.3895" gradientTransform="matrix(1, 0, 0, -1, 564, 1625.8895)" gradientUnits="userSpaceOnUse">
      <stop offset="0" stop-color="#198ab3"/>
      <stop offset="0.44" stop-color="#28b7db"/>
      <stop offset="0.78" stop-color="#32d4f5"/>
    </linearGradient>
    <linearGradient id="linear-gradient-2" x1="27.4618" y1="29.5009" x2="27.4618" y2="36.5" gradientUnits="userSpaceOnUse">
      <stop offset="0.22" stop-color="#32d4f5"/>
      <stop offset="0.56" stop-color="#28b7db"/>
      <stop offset="1" stop-color="#198ab3"/>
    </linearGradient>
  </defs>
  <g id="Shapes">
    <rect width="146.1189" height="40" rx="3" fill="#c6eaf8" opacity="0.7"/>
    <g>
      <path d="M44.1818,19.7244a7.5174,7.5174,0,0,0-6.4991-7.1286,9.4432,9.4432,0,0,0-9.721-9.0914,9.6838,9.6838,0,0,0-9.258,6.3139A8.9249,8.9249,0,0,0,10.8529,18.41a9.0729,9.0729,0,0,0,9.3876,8.7211H36.2569a1.448,1.448,0,0,0,.4074,0A7.5731,7.5731,0,0,0,44.1818,19.7244Z" fill="url(#linear-gradient)"/>
      <rect x="26.7397" y="19.0023" width="1.4443" height="11.4614" fill="#b3b3b3"/>
      <circle cx="27.4618" cy="15.5398" r="3.8513" fill="#f2f2f2"/>
      <rect x="23.9623" y="29.5009" width="6.9991" height="6.9991" rx="1.3517" fill="url(#linear-gradient-2)"/>
    </g>
  </g>
  <g id="Text">
    <g>
      <path d="M59.2,25.2846a4.5634,4.5634,0,0,1-3.4316-1.3706,4.922,4.922,0,0,1-1.3262-3.5718,5.2745,5.2745,0,0,1,1.3467-3.76,4.6614,4.6614,0,0,1,3.5683-1.4355,4.4475,4.4475,0,0,1,3.3936,1.374,5.0634,5.0634,0,0,1,1.2959,3.6231A5.1922,5.1922,0,0,1,62.7041,23.87,4.6126,4.6126,0,0,1,59.2,25.2846Zm.0957-8.2373a2.2233,2.2233,0,0,0-1.8457.8716,3.6317,3.6317,0,0,0-.6836,2.3071A3.5647,3.5647,0,0,0,57.45,22.53a2.3589,2.3589,0,0,0,3.6025.0239,3.53,3.53,0,0,0,.67-2.2866,3.8249,3.8249,0,0,0-.65-2.3721A2.1172,2.1172,0,0,0,59.2959,17.0473Z" fill="#2f2f2f"/>
      <path d="M72.2715,25.1137H70.1182v-3.89q0-1.6266-1.1621-1.6269a1.1522,1.1522,0,0,0-.9229.4307,1.6426,1.6426,0,0,0-.3623,1.0937v3.9922h-2.16v-7h2.16v1.1074h.0273a2.4756,2.4756,0,0,1,2.2491-1.2783q2.3247,0,2.3242,2.8848Z" fill="#2f2f2f"/>
      <path d="M82.0742,25.0317a3.1968,3.1968,0,0,1-1.4424.2529q-2.2836,0-2.2832-2.3721v-3.206H77.2139V18.1137h1.1347V16.603l2.1534-.6153v2.126h1.5722v1.5928H80.502v2.83q0,1.0937.8681,1.0938a1.4618,1.4618,0,0,0,.7041-.1982Z" fill="#2f2f2f"/>
      <path d="M90.1436,25.1137H87.99V21.1352q0-1.5381-1.1211-1.5381a1.148,1.148,0,0,0-.93.4307,1.659,1.659,0,0,0-.3555,1.0937v3.9922h-2.16V14.75h2.16v4.4024h.0273a2.4537,2.4537,0,0,1,2.1533-1.21q2.379,0,2.379,2.8711Z" fill="#2f2f2f"/>
      <path d="M98.1641,22.2289H93.5977q.11,1.5242,1.9209,1.5244a3.7474,3.7474,0,0,0,2.03-.5468v1.5586a5.3371,5.3371,0,0,1-2.5224.52,3.258,3.258,0,0,1-3.5684-3.5615A3.745,3.745,0,0,1,92.47,18.9614a3.37,3.37,0,0,1,2.4883-1.0186,3.0615,3.0615,0,0,1,2.3691.9092,3.5033,3.5033,0,0,1,.837,2.4678Zm-2.003-1.3261q0-1.5037-1.2168-1.5039a1.159,1.159,0,0,0-.8984.4306,1.9487,1.9487,0,0,0-.4619,1.0733Z" fill="#2f2f2f"/>
      <path d="M109.6006,22.2289h-4.5664q.11,1.5242,1.9209,1.5244a3.7479,3.7479,0,0,0,2.03-.5468v1.5586a5.3375,5.3375,0,0,1-2.5225.52,3.2581,3.2581,0,0,1-3.5684-3.5615,3.745,3.745,0,0,1,1.0117-2.7617,3.3708,3.3708,0,0,1,2.4883-1.0186,3.0619,3.0619,0,0,1,2.3692.9092,3.5037,3.5037,0,0,1,.8369,2.4678Zm-2.0029-1.3261q0-1.5037-1.2168-1.5039a1.159,1.159,0,0,0-.8985.4306,1.9487,1.9487,0,0,0-.4619,1.0733Z" fill="#2f2f2f"/>
      <path d="M117.8467,25.1137h-2.16V24.15h-.0273a2.4228,2.4228,0,0,1-2.167,1.1348,2.6534,2.6534,0,0,1-2.1123-.9263,3.8346,3.8346,0,0,1-.8-2.5874,4.1731,4.1731,0,0,1,.8818-2.7822,2.8767,2.8767,0,0,1,2.3106-1.0459,1.9657,1.9657,0,0,1,1.8867.9707h.0273V14.75h2.16Zm-2.1192-3.4043V21.183a1.6551,1.6551,0,0,0-.3964-1.1347,1.401,1.401,0,0,0-2.1534.1128,2.6215,2.6215,0,0,0-.4033,1.5483,2.2658,2.2658,0,0,0,.39,1.4219,1.3839,1.3839,0,0,0,2.15-.0274A2.1967,2.1967,0,0,0,115.7275,21.7094Z" fill="#2f2f2f"/>
      <path d="M126.543,24.3139a3.9606,3.9606,0,0,1-1.128,3.0181,4.57,4.57,0,0,1-3.2675,1.07,5.1784,5.1784,0,0,1-2.2422-.4033V26.18a4.2922,4.2922,0,0,0,2.1806.6289,2.3481,2.3481,0,0,0,1.6953-.5776,2.0721,2.0721,0,0,0,.6016-1.5689v-.5537h-.0273a2.4124,2.4124,0,0,1-2.1807,1.1758,2.623,2.623,0,0,1-2.126-.9434,3.824,3.824,0,0,1-.7861-2.5293,4.2626,4.2626,0,0,1,.875-2.8232,2.8565,2.8565,0,0,1,2.3037-1.0459,2.1255,2.1255,0,0,1,1.9141.9844h.0273v-.8135h2.16ZM124.41,21.75v-.5537a1.6984,1.6984,0,0,0-.3936-1.1313,1.2706,1.2706,0,0,0-1.0215-.4683,1.3217,1.3217,0,0,0-1.1279.56,2.6356,2.6356,0,0,0-.41,1.5791,2.2239,2.2239,0,0,0,.39,1.3843,1.27,1.27,0,0,0,1.0664.5093,1.3238,1.3238,0,0,0,1.084-.5161A2.1185,2.1185,0,0,0,124.41,21.75Z" fill="#2f2f2f"/>
      <path d="M134.6367,22.2289H130.07q.11,1.5242,1.9209,1.5244a3.7477,3.7477,0,0,0,2.03-.5468v1.5586a5.3375,5.3375,0,0,1-2.5225.52,3.258,3.258,0,0,1-3.5683-3.5615,3.745,3.745,0,0,1,1.0117-2.7617,3.37,3.37,0,0,1,2.4883-1.0186,3.0616,3.0616,0,0,1,2.3691.9092,3.5037,3.5037,0,0,1,.8369,2.4678Zm-2.0029-1.3261q0-1.5037-1.2168-1.5039a1.1587,1.1587,0,0,0-.8984.4306,1.9481,1.9481,0,0,0-.462,1.0733Z" fill="#2f2f2f"/>
    </g>
  </g>
</svg>
