<?xml version="1.0" encoding="utf-8"?>
<!-- Generator: Adobe Illustrator 27.0.0, SVG Export Plug-In . SVG Version: 6.00 Build 0)  -->
<svg version="1.1" xmlns="http://www.w3.org/2000/svg" xmlns:xlink="http://www.w3.org/1999/xlink" x="0px" y="0px"
	 viewBox="0 0 794 201" enable-background="new 0 0 794 201" xml:space="preserve">
<symbol  id="PIPELINE" viewBox="-32 -12.266 64 24.531">
	<linearGradient id="SVGID_1_" gradientUnits="userSpaceOnUse" x1="0" y1="-12.2655" x2="1.502093e-15" y2="12.2655">
		<stop  offset="0" style="stop-color:#1B89B2"/>
		<stop  offset="1" style="stop-color:#51C8E8"/>
	</linearGradient>
	<path fill="url(#SVGID_1_)" d="M26.096,12.266h-51.448v0h0C-29.08,12.265-32,6.878-32,0s2.92-12.265,6.648-12.265h0v0h51.448
		C29.356-12.266,32-6.363,32,0S29.356,12.266,26.096,12.266z"/>
	<g>
		
			<linearGradient id="SVGID_00000026151940468751839510000002992963254945886900_" gradientUnits="userSpaceOnUse" x1="-31.461" y1="-6.1136" x2="-19.2338" y2="6.1136">
			<stop  offset="0" style="stop-color:#B3B4B4"/>
			<stop  offset="1" style="stop-color:#4F4F4F"/>
		</linearGradient>
		<ellipse fill="url(#SVGID_00000026151940468751839510000002992963254945886900_)" cx="-25.347" cy="0" rx="5.575" ry="10.879"/>
	</g>
</symbol>
<g id="Shapes">
	<rect fill="#FFFFFF" width="794" height="201"/>
	<g>
		<g opacity="0.3">
			<rect x="10.945" y="44.845" fill="#212121" width="66" height="149.6"/>
			<rect x="10.945" y="44.845" opacity="0.15" fill="#212121" width="66" height="149.6"/>
		</g>
		<g>
			<rect x="9.328" y="43.228" fill="#FFFFFF" width="66" height="149.6"/>
			<rect x="9.328" y="43.228" opacity="0.15" fill="#1B93EB" width="66" height="149.6"/>
		</g>
	</g>
	<g id="Wrench_tool_x28_s_x29_">
	</g>
	<g id="user2">
	</g>
	<g id="user2_1_">
	</g>
	<g id="user2_4_">
	</g>
	<g id="user2_3_">
	</g>
	<g id="user2_2_">
	</g>
	<g id="Internet_2">
	</g>
	<g id="Enterprise">
	</g>
	<g id="Tunnel__x28_stackable_x29_">
	</g>
	<g id="New_Symbol">
	</g>
	<g id="New_Symbol_1">
	</g>
	<g id="Files">
	</g>
	<g id="BlobBlock">
	</g>
	<g id="E_x5F_Enterprise">
	</g>
	<g id="E_x5F_AD_FS">
	</g>
	<g id="C_x5F_Azure_Active_Directory">
	</g>
	<g>
		<g>
			<line fill="none" stroke="#3C3C41" stroke-miterlimit="10" x1="189.611" y1="165.857" x2="214.506" y2="165.857"/>
			<g>
				<polygon fill="#3C3C41" points="213.412,169.596 219.888,165.857 213.412,162.117 				"/>
			</g>
		</g>
	</g>
	<g>
		<g id="a53a4de8-371c-49da-a662-c4631299fc03_00000005981740280818131450000014509912123725612443_">
			<path fill="#76BC2D" d="M45.955,115.82c0.011,0.277-0.199,0.514-0.476,0.535h-4.141c-0.277,0.011-0.514-0.199-0.535-0.476v-3.091
				c-0.011-0.277,0.199-0.514,0.476-0.535h4.141c0.277-0.011,0.514,0.199,0.535,0.476V115.82z"/>
			<path fill="#76BC2D" d="M53.306,118.951c0.011,0.277-0.199,0.514-0.476,0.535h-4.141c-0.277,0.011-0.514-0.199-0.535-0.476
				v-3.071c-0.011-0.277,0.199-0.514,0.476-0.535h4.141c0.277-0.011,0.514,0.199,0.535,0.476V118.951z"/>
			<path fill="#76BC2D" d="M45.955,122.121c0.011,0.277-0.199,0.514-0.476,0.535h-4.141c-0.277,0.011-0.514-0.199-0.535-0.476
				v-3.091c-0.011-0.277,0.199-0.514,0.476-0.535h4.141c0.277-0.011,0.514,0.199,0.535,0.476V122.121z"/>
			<path fill="#86D633" d="M38.603,112.689c0.012,0.266-0.19,0.494-0.456,0.515h-4.26c-0.27,0.012-0.504-0.187-0.535-0.456v-3.21
				c0.009-0.262,0.214-0.475,0.476-0.495h4.141c0.436,0,0.634,0.218,0.634,0.535L38.603,112.689z"/>
			<path fill="#76BC2D" d="M38.603,118.951c0.023,0.273-0.18,0.512-0.453,0.535c-0.001,0-0.002,0-0.003,0h-4.26
				c-0.284,0.011-0.524-0.21-0.535-0.495c-0.001-0.013-0.001-0.027,0-0.04v-3.131c-0.001-0.27,0.207-0.494,0.476-0.515h4.141
				c0.436,0,0.634,0.218,0.634,0.515L38.603,118.951z"/>
			<path fill="#76BC2D" d="M38.603,125.272c0.023,0.273-0.18,0.512-0.453,0.535c-0.001,0-0.002,0-0.003,0h-4.26
				c-0.277,0.011-0.514-0.199-0.535-0.476v-3.21c-0.011-0.273,0.201-0.504,0.475-0.515c0,0,0.001,0,0.001,0h4.141
				c0.436,0,0.634,0.198,0.634,0.515L38.603,125.272z"/>
			<g>
				<path fill="#999999" d="M26.615,102.128h2.556l0,0v7.133c0,0.317-0.257,0.575-0.575,0.575H26.06
					c-0.317,0-0.575-0.257-0.575-0.575v-5.945c-0.033-0.623,0.446-1.155,1.068-1.187C26.574,102.128,26.595,102.128,26.615,102.128z
					"/>
				<path opacity="0.5" fill="#999999" enable-background="new    " d="M26.615,102.128h2.556l0,0v7.133
					c0,0.317-0.257,0.575-0.575,0.575H26.06c-0.317,0-0.575-0.257-0.575-0.575v-5.945c-0.033-0.623,0.446-1.155,1.068-1.187
					C26.574,102.128,26.595,102.128,26.615,102.128z"/>
			</g>
			<g>
				<path fill="#999999" d="M55.486,102.128h2.556c0.624,0,1.129,0.506,1.129,1.129v5.945c0,0.317-0.257,0.575-0.575,0.575l0,0
					H56.04c-0.317,0-0.575-0.257-0.575-0.575v-7.074H55.486z"/>
				<path opacity="0.5" fill="#999999" enable-background="new    " d="M55.486,102.128h2.556c0.624,0,1.129,0.506,1.129,1.129
					v5.945c0,0.317-0.257,0.575-0.575,0.575l0,0H56.04c-0.317,0-0.575-0.257-0.575-0.575v-7.074H55.486z"/>
			</g>
			<path fill="#949494" d="M59.171,103.257v2.477l0,0H25.486l0,0v-2.477c0-0.624,0.506-1.129,1.129-1.129h31.446
				C58.678,102.138,59.171,102.641,59.171,103.257z"/>
			<g>
				<path fill="#999999" d="M26.06,124.42h2.556c0.317,0,0.575,0.257,0.575,0.575v7.133l0,0h-2.576
					c-0.624,0-1.129-0.506-1.129-1.129v-6.103C25.534,124.617,25.778,124.415,26.06,124.42z"/>
				<path opacity="0.5" fill="#999999" enable-background="new    " d="M26.06,124.42h2.556c0.317,0,0.575,0.257,0.575,0.575v7.133
					l0,0h-2.576c-0.624,0-1.129-0.506-1.129-1.129v-6.103C25.534,124.617,25.778,124.415,26.06,124.42z"/>
			</g>
			<g>
				<path fill="#999999" d="M56.04,124.42h2.556c0.317,0,0.575,0.257,0.575,0.575l0,0v5.945c0,0.624-0.506,1.129-1.129,1.129h-2.556
					l0,0v-7.173C55.533,124.624,55.766,124.425,56.04,124.42z"/>
				<path opacity="0.5" fill="#999999" enable-background="new    " d="M56.04,124.42h2.556c0.317,0,0.575,0.257,0.575,0.575l0,0
					v5.945c0,0.624-0.506,1.129-1.129,1.129h-2.556l0,0v-7.173C55.533,124.624,55.766,124.425,56.04,124.42z"/>
			</g>
			<path fill="#949494" d="M25.486,130.998v-2.477l0,0h33.686l0,0v2.477c0,0.624-0.506,1.129-1.129,1.129H26.615
				C25.991,132.128,25.486,131.622,25.486,130.998z"/>
		</g>
	</g>
	<g>
		<g opacity="0.3">
			<rect x="221.506" y="138.874" fill="#212121" width="66" height="57.2"/>
			<rect x="221.506" y="138.874" opacity="0.15" fill="#212121" width="66" height="57.2"/>
		</g>
		<g>
			<rect x="219.888" y="137.257" fill="#FFFFFF" width="66" height="57.2"/>
			<rect x="219.888" y="137.257" opacity="0.15" fill="#1B93EB" width="66" height="57.2"/>
		</g>
	</g>
	<g>
		<g opacity="0.3">
			<rect x="274.306" y="44.33" fill="#212121" width="66" height="57.2"/>
			<rect x="274.306" y="44.33" opacity="0.15" fill="#212121" width="66" height="57.2"/>
		</g>
		<g>
			<rect x="272.688" y="42.713" fill="#FFFFFF" width="66" height="57.2"/>
			<rect x="272.688" y="42.713" opacity="0.15" fill="#1B93EB" width="66" height="57.2"/>
		</g>
	</g>
	<g>
		
			<linearGradient id="SVGID_00000125595290740930648230000007334776087408366480_" gradientUnits="userSpaceOnUse" x1="252.8884" y1="1351.1434" x2="252.8884" y2="1371.7286" gradientTransform="matrix(1 0 0 -1 0 1531)">
			<stop  offset="0" style="stop-color:#B3B4B4"/>
			<stop  offset="0.26" style="stop-color:#C2C1C0"/>
			<stop  offset="1" style="stop-color:#E6E6E6"/>
		</linearGradient>
		<path fill="url(#SVGID_00000125595290740930648230000007334776087408366480_)" d="M235.478,159.271h34.821l0,0v19.418
			c0,0.645-0.523,1.168-1.168,1.168h-32.486c-0.645,0-1.168-0.523-1.168-1.168V159.271z"/>
		<path fill="#40BEAF" d="M236.646,151.857h32.486c0.645,0,1.168,0.523,1.168,1.168v6.247l0,0h-34.821l0,0v-6.268
			C235.489,152.367,236.009,151.856,236.646,151.857z"/>
		<path fill="#FFFFFF" d="M240.21,161.524h25.337c0.297,0.011,0.533,0.255,0.533,0.553v2.868c0,0.298-0.235,0.542-0.533,0.553
			H240.21c-0.297-0.011-0.533-0.255-0.533-0.553v-2.868C239.677,161.78,239.912,161.535,240.21,161.524z"/>
		<path fill="#40BEAF" d="M240.23,167.239h25.337c0.297,0.011,0.533,0.255,0.533,0.553v2.888c0,0.298-0.235,0.542-0.533,0.553
			H240.23c-0.297-0.011-0.533-0.255-0.533-0.553v-2.786c-0.057-0.3,0.141-0.589,0.441-0.646
			C240.169,167.243,240.199,167.24,240.23,167.239z"/>
		<path fill="#258378" d="M240.23,173.015h25.337c0.297,0.011,0.533,0.255,0.533,0.553v2.888c0,0.298-0.235,0.542-0.533,0.553
			H240.23c-0.297-0.011-0.533-0.255-0.533-0.553v-2.888C239.697,173.271,239.933,173.026,240.23,173.015z"/>
	</g>
	<line fill="none" stroke="#3C3C41" stroke-miterlimit="10" x1="76.583" y1="165.857" x2="109.888" y2="165.857"/>
	<g>
		<g>
			<circle fill="#505150" cx="99.888" cy="165.655" r="10"/>
			<g>
				<path fill="#FFFFFF" d="M101.275,160.062v10.021h-1.586v-8.08c-0.287,0.205-0.596,0.379-0.926,0.523
					c-0.331,0.144-0.708,0.27-1.132,0.379v-1.354c0.265-0.086,0.52-0.178,0.766-0.273s0.489-0.203,0.729-0.321
					s0.48-0.25,0.725-0.396c0.243-0.146,0.495-0.312,0.755-0.499H101.275z"/>
			</g>
		</g>
	</g>
	<g>
		<g>
			<line fill="none" stroke="#3C3C41" stroke-miterlimit="10" x1="233.088" y1="71.313" x2="267.306" y2="71.313"/>
			<g>
				<polygon fill="#3C3C41" points="266.212,75.053 272.688,71.313 266.212,67.573 				"/>
			</g>
		</g>
	</g>
	<line fill="none" stroke="#3C3C41" stroke-miterlimit="10" x1="76.583" y1="71.313" x2="136.288" y2="71.313"/>
	<g>
		<g>
			<circle fill="#505150" cx="126.288" cy="71.111" r="10"/>
			<g>
				<path fill="#FFFFFF" d="M129.224,75.54h-6.152v-0.759c0-0.31,0.043-0.601,0.13-0.872s0.203-0.526,0.349-0.766
					s0.317-0.465,0.513-0.677s0.406-0.417,0.629-0.615s0.451-0.39,0.684-0.574s0.46-0.37,0.684-0.557
					c0.209-0.178,0.401-0.352,0.574-0.523s0.321-0.348,0.444-0.53s0.219-0.375,0.287-0.578s0.103-0.423,0.103-0.66
					c0-0.26-0.04-0.486-0.12-0.68s-0.191-0.355-0.335-0.485s-0.313-0.228-0.509-0.294s-0.41-0.099-0.643-0.099
					c-0.401,0-0.809,0.093-1.224,0.28s-0.813,0.467-1.196,0.841v-1.524c0.201-0.15,0.403-0.281,0.608-0.393s0.417-0.205,0.636-0.28
					s0.449-0.131,0.69-0.167s0.499-0.055,0.772-0.055c0.442,0,0.843,0.058,1.203,0.174s0.667,0.287,0.923,0.513
					s0.452,0.507,0.591,0.844s0.208,0.725,0.208,1.162c0,0.396-0.049,0.753-0.147,1.07s-0.237,0.612-0.417,0.885
					s-0.397,0.533-0.653,0.779s-0.54,0.499-0.854,0.759c-0.264,0.214-0.527,0.423-0.79,0.625s-0.498,0.401-0.708,0.595
					s-0.379,0.387-0.509,0.581s-0.195,0.389-0.195,0.584v0.034h4.423V75.54z"/>
			</g>
		</g>
	</g>
	<g>
		<g opacity="0.3">
			<rect x="485.506" y="44.33" fill="#212121" width="66" height="57.2"/>
			<rect x="485.506" y="44.33" opacity="0.15" fill="#212121" width="66" height="57.2"/>
		</g>
		<g>
			<rect x="483.888" y="42.713" fill="#FFFFFF" width="66" height="57.2"/>
			<rect x="483.888" y="42.713" opacity="0.15" fill="#1B93EB" width="66" height="57.2"/>
		</g>
	</g>
	<g>
		<g opacity="0.3">
			<rect x="723.106" y="44.33" fill="#212121" width="66" height="57.2"/>
			<rect x="723.106" y="44.33" opacity="0.15" fill="#212121" width="66" height="57.2"/>
		</g>
		<g>
			<rect x="721.488" y="42.713" fill="#FFFFFF" width="66" height="57.2"/>
			<rect x="721.488" y="42.713" opacity="0.15" fill="#1B93EB" width="66" height="57.2"/>
		</g>
	</g>
	<g>
		<g>
			<line fill="none" stroke="#3C3C41" stroke-miterlimit="10" x1="439.888" y1="71.313" x2="478.506" y2="71.313"/>
			<g>
				<polygon fill="#3C3C41" points="477.412,75.053 483.888,71.313 477.412,67.573 				"/>
			</g>
		</g>
	</g>
	<g>
		<g>
			<line fill="none" stroke="#3C3C41" stroke-miterlimit="10" x1="688.288" y1="71.313" x2="716.106" y2="71.313"/>
			<g>
				<polygon fill="#3C3C41" points="715.012,75.053 721.488,71.313 715.012,67.573 				"/>
			</g>
		</g>
	</g>
	<line fill="none" stroke="#3C3C41" stroke-miterlimit="10" x1="340.834" y1="71.428" x2="373.888" y2="71.428"/>
	<g>
		<g>
			<circle fill="#505150" cx="368.288" cy="71.111" r="10"/>
			<g>
				<path fill="#FFFFFF" d="M365.243,75.177v-1.49c0.638,0.506,1.358,0.759,2.16,0.759c0.652,0,1.172-0.148,1.562-0.444
					s0.584-0.697,0.584-1.203c0-1.112-0.85-1.668-2.55-1.668h-0.759v-1.271h0.725c1.508,0,2.263-0.524,2.263-1.572
					c0-0.966-0.588-1.449-1.764-1.449c-0.656,0-1.274,0.235-1.853,0.704v-1.408c0.666-0.374,1.452-0.561,2.358-0.561
					c0.871,0,1.568,0.219,2.092,0.656s0.786,0.998,0.786,1.682c0,1.29-0.656,2.119-1.969,2.488v0.027
					c0.707,0.068,1.265,0.315,1.675,0.742s0.615,0.958,0.615,1.596c0,0.879-0.331,1.589-0.991,2.129s-1.531,0.81-2.611,0.81
					C366.596,75.704,365.821,75.528,365.243,75.177z"/>
			</g>
		</g>
	</g>
	<line fill="none" stroke="#3C3C41" stroke-miterlimit="10" x1="551.44" y1="71.428" x2="580.688" y2="71.428"/>
	<g>
		<g>
			<circle fill="#505150" cx="575.088" cy="71.111" r="10"/>
			<g>
				<path fill="#FFFFFF" d="M572.261,75.314V73.79c0.643,0.433,1.294,0.649,1.955,0.649c0.666,0,1.201-0.17,1.606-0.509
					s0.608-0.792,0.608-1.357c0-0.556-0.206-0.989-0.619-1.299s-1.004-0.465-1.774-0.465c-0.264,0-0.8,0.027-1.606,0.082
					l0.349-5.154h4.826v1.354H574.1l-0.164,2.454c0.314-0.018,0.599-0.027,0.854-0.027c1.039,0,1.842,0.267,2.41,0.8
					s0.851,1.262,0.851,2.188c0,0.971-0.325,1.749-0.974,2.334s-1.542,0.878-2.676,0.878
					C573.444,75.717,572.73,75.583,572.261,75.314z"/>
			</g>
		</g>
	</g>
	<g>
		<g>
			<line fill="none" stroke="#3C3C41" stroke-miterlimit="10" x1="293.302" y1="165.857" x2="365.088" y2="165.857"/>
			<g>
				<polygon fill="#3C3C41" points="294.396,169.596 287.92,165.857 294.396,162.117 				"/>
			</g>
		</g>
	</g>
	<g>
		<g>
			<circle fill="#505150" cx="361.888" cy="165.655" r="10"/>
			<g>
				<path fill="#FFFFFF" d="M364.185,160.281v6.33h1.456v1.319h-1.456v2.153h-1.538v-2.153h-4.437v-1.333
					c0.401-0.451,0.812-0.94,1.234-1.466s0.827-1.064,1.217-1.613s0.751-1.1,1.083-1.651s0.613-1.08,0.841-1.586H364.185z
					 M362.646,166.611v-4.115c-0.497,0.893-0.988,1.672-1.473,2.338s-0.94,1.258-1.364,1.777H362.646z"/>
			</g>
		</g>
	</g>
	<g>
		<g id="b30b0bd5-e4d2-456b-8d49-c2df20200912">
			<path id="b51878b5-8d50-4b8b-bc48-74f5f7315a99" fill="#32BEDD" d="M314.466,69.629V68.44h-8.956l-4.201,4.181h-3.091
				l7.173-7.252h4.894v-1.129h-5.39l-8.362,8.382h-1.189v1.189h3.587l4.24,4.181h10.106v-1.189h-9.67l-2.992-2.992h7.272v-1.189
				h-4.875l2.972-2.992H314.466z"/>
			<circle id="ad0ed4eb-cd5f-4cc0-bd19-2830d27ec806" fill="#FFFFFF" cx="309.076" cy="73.215" r="1.724"/>
			<circle id="a2746b4a-0ae4-4308-876e-5b82657e1872" fill="#FFFFFF" cx="310.879" cy="64.853" r="1.724"/>
			<circle id="fc3316e0-7094-4ce0-99ed-43f1e6e4350c" fill="#FFFFFF" cx="315.06" cy="69.034" r="1.724"/>
			<circle id="b5d18443-d50e-4590-8e8f-80b6a7f6d348" fill="#FFFFFF" cx="313.277" cy="77.396" r="1.724"/>
			<circle fill="#50E6FF" cx="310.82" cy="64.853" r="2.081"/>
			
				<linearGradient id="SVGID_00000029764134939413752700000002381897484080761784_" gradientUnits="userSpaceOnUse" x1="4415.1221" y1="5674.833" x2="4415.1221" y2="5683.1353" gradientTransform="matrix(0.5 0 0 0.5 -1892.5601 -2782.5701)">
				<stop  offset="0" style="stop-color:#C69AEB"/>
				<stop  offset="1" style="stop-color:#6F4BB2"/>
			</linearGradient>
			<circle fill="url(#SVGID_00000029764134939413752700000002381897484080761784_)" cx="315.001" cy="69.034" r="2.081"/>
			<circle fill="none" cx="313.277" cy="77.396" r="2.081"/>
			<circle fill="#50E6FF" cx="309.076" cy="73.215" r="2.081"/>
			<g>
				<path fill="#999999" d="M291.421,56.313h2.556l0,0v7.074c0,0.317-0.257,0.575-0.575,0.575h-2.536
					c-0.317,0-0.575-0.257-0.575-0.575l0,0v-5.945C290.292,56.819,290.797,56.313,291.421,56.313L291.421,56.313z"/>
				<path opacity="0.5" fill="#999999" enable-background="new    " d="M291.421,56.313h2.556l0,0v7.074
					c0,0.317-0.257,0.575-0.575,0.575h-2.536c-0.317,0-0.575-0.257-0.575-0.575l0,0v-5.945
					C290.292,56.819,290.797,56.313,291.421,56.313L291.421,56.313z"/>
			</g>
			<g>
				<path fill="#999999" d="M320.292,56.313h2.556c0.624,0,1.129,0.506,1.129,1.129v5.945c0,0.317-0.257,0.575-0.575,0.575l0,0
					h-2.556c-0.31-0.011-0.555-0.265-0.555-0.575V56.313L320.292,56.313z"/>
				<path opacity="0.5" fill="#999999" enable-background="new    " d="M320.292,56.313h2.556c0.624,0,1.129,0.506,1.129,1.129
					v5.945c0,0.317-0.257,0.575-0.575,0.575l0,0h-2.556c-0.31-0.011-0.555-0.265-0.555-0.575V56.313L320.292,56.313z"/>
			</g>
			<path fill="#949494" d="M323.977,57.442v2.477l0,0h-33.686l0,0v-2.477c0-0.624,0.506-1.129,1.129-1.129h31.447
				C323.484,56.324,323.977,56.826,323.977,57.442z"/>
			<g>
				<path fill="#999999" d="M290.866,78.605h2.556c0.317,0,0.575,0.257,0.575,0.575v7.133l0,0h-2.576
					c-0.624,0-1.129-0.506-1.129-1.129v-5.945c-0.033-0.316,0.196-0.598,0.512-0.631C290.824,78.606,290.845,78.605,290.866,78.605z
					"/>
				<path opacity="0.5" fill="#999999" enable-background="new    " d="M290.866,78.605h2.556c0.317,0,0.575,0.257,0.575,0.575
					v7.133l0,0h-2.576c-0.624,0-1.129-0.506-1.129-1.129v-5.945c-0.033-0.316,0.196-0.598,0.512-0.631
					C290.824,78.606,290.845,78.605,290.866,78.605z"/>
			</g>
			<g>
				<path fill="#999999" d="M320.846,78.605h2.556c0.317,0,0.575,0.257,0.575,0.575l0,0v5.945c0,0.624-0.506,1.129-1.129,1.129l0,0
					h-2.556l0,0v-7.015c-0.033-0.316,0.196-0.598,0.512-0.631C320.818,78.606,320.832,78.605,320.846,78.605z"/>
				<path opacity="0.5" fill="#999999" enable-background="new    " d="M320.846,78.605h2.556c0.317,0,0.575,0.257,0.575,0.575l0,0
					v5.945c0,0.624-0.506,1.129-1.129,1.129l0,0h-2.556l0,0v-7.015c-0.033-0.316,0.196-0.598,0.512-0.631
					C320.818,78.606,320.832,78.605,320.846,78.605z"/>
			</g>
			<path fill="#949494" d="M290.292,85.183v-2.477l0,0h33.686l0,0v2.477c0,0.624-0.506,1.129-1.129,1.129h-31.427
				C290.797,86.313,290.292,85.807,290.292,85.183z"/>
		</g>
	</g>
	<g>
		<g>
			<path fill="#50E6FF" d="M510.384,79.031l-1.102,1.105c-0.196,0.196-0.514,0.197-0.71,0.001l0,0l-8.187-8.163
				c-0.392-0.391-0.393-1.025-0.002-1.417l1.107-1.111l0,0l8.898,8.873c0.196,0.196,0.197,0.514,0.001,0.71c0,0,0,0,0,0
				L510.384,79.031z"/>
			<path fill="#1490DF" d="M509.111,62.483l1.109,1.106c0.196,0.196,0.197,0.514,0.001,0.71l-8.741,8.766l0,0l-1.111-1.107
				c-0.392-0.391-0.393-1.025-0.002-1.417l8.036-8.059C508.599,62.287,508.915,62.288,509.111,62.483z"/>
		</g>
		<g>
			<path fill="#50E6FF" d="M532.29,69.454l1.106,1.109c0.391,0.392,0.39,1.027-0.002,1.417l-8.187,8.163
				c-0.196,0.196-0.514,0.195-0.71-0.001l0,0l-1.101-1.104c-0.196-0.196-0.195-0.514,0.001-0.71l0,0l8.896-8.871l0,0L532.29,69.454z
				"/>
			<path fill="#1490DF" d="M533.404,71.953l-1.109,1.106l0,0l-8.741-8.766c-0.196-0.196-0.195-0.514,0.001-0.71l0,0l1.109-1.106
				c0.196-0.196,0.514-0.195,0.71,0.001l0,0l8.036,8.059c0.391,0.392,0.39,1.027-0.002,1.417L533.404,71.953z"/>
		</g>
		
			<linearGradient id="SVGID_00000029046202907481988890000007750616121578757515_" gradientUnits="userSpaceOnUse" x1="-273.2885" y1="2028.4943" x2="-273.2885" y2="2057.6487" gradientTransform="matrix(1.156 0 0 -1.029 833.123 2173.4075)">
			<stop  offset="0" style="stop-color:#FEA11B"/>
			<stop  offset="0.284" style="stop-color:#FEA51A"/>
			<stop  offset="0.547" style="stop-color:#FEB018"/>
			<stop  offset="0.8" style="stop-color:#FFC314"/>
			<stop  offset="1" style="stop-color:#FFD70F"/>
		</linearGradient>
		<path fill="url(#SVGID_00000029046202907481988890000007750616121578757515_)" d="M515.872,73.004h-6.749
			c-0.197,0.008-0.364-0.144-0.376-0.34c0-0.049,0.012-0.097,0.034-0.141l8.092-16.01c0.07-0.127,0.205-0.203,0.35-0.199h7.983
			c0.197-0.008,0.364,0.144,0.376,0.34c-0.001,0.068-0.024,0.134-0.066,0.188l-9.502,12.526h9.267
			c0.197-0.008,0.364,0.144,0.376,0.34c-0.001,0.086-0.036,0.169-0.098,0.229l-15.399,16.02c-0.145,0.087-1.173,0.94-0.669-0.355
			l0,0L515.872,73.004z"/>
	</g>
	<g>
		<g>
			<path fill="none" stroke="#3C3C41" stroke-miterlimit="10" d="M457.488,165.857h52.2c2.75,0,5-2.25,5-5V107.06"/>
			<g>
				<polygon fill="#3C3C41" points="518.428,108.154 514.688,101.678 510.949,108.154 				"/>
			</g>
		</g>
	</g>
	<g>
		<path fill="#0078D4" d="M754.488,56.313l-13.083,7.483v14.95l13.083,7.567l13.083-7.483v-15L754.488,56.313z M765.155,77.263
			l-10.667,6.167l-10.667-6.102V65.28l10.667-6.167l10.667,6.183V77.263z"/>
		
			<linearGradient id="SVGID_00000067954708432562291470000011351673463645733544_" gradientUnits="userSpaceOnUse" x1="190.4884" y1="1699.7205" x2="190.4884" y2="1708.6871" gradientTransform="matrix(1 0 0 -1 564 1765)">
			<stop  offset="0.199" style="stop-color:#005BA1"/>
			<stop  offset="1" style="stop-color:#0078D4"/>
		</linearGradient>
		<polygon fill="url(#SVGID_00000067954708432562291470000011351673463645733544_)" points="754.488,56.313 754.488,56.313 
			741.405,63.796 743.822,65.28 754.488,59.113 754.488,59.113 765.155,65.28 767.572,63.796 		"/>
		<path fill="#50E6FF" d="M760.722,73.771c-0.127-0.21-0.315-0.376-0.538-0.477c-1.378-3.007-4.189-5.108-7.463-5.577l10.795-6.238
			l-2.51-1.44l-12.293,7.107c-0.598,0.344-0.804,1.109-0.46,1.707c0.224,0.388,0.638,0.627,1.086,0.626
			c0.051-0.009,0.101-0.022,0.15-0.038l0.208,0.872c3.225-0.761,6.553,0.779,8.062,3.73l-12.248,7.078l2.5,1.443l12.255-7.085
			c0.163-0.098,0.302-0.232,0.403-0.393l0.125-0.03c-0.012-0.048-0.03-0.092-0.042-0.14
			C760.932,74.553,760.921,74.124,760.722,73.771z"/>
		
			<linearGradient id="SVGID_00000095314435748090747130000015599492819708084903_" gradientUnits="userSpaceOnUse" x1="190.4884" y1="1687.4988" x2="190.4884" y2="1699.8755" gradientTransform="matrix(1 0 0 -1 564 1765)">
			<stop  offset="0" style="stop-color:#198AB3"/>
			<stop  offset="0.172" style="stop-color:#32BEDD"/>
			<stop  offset="0.5" style="stop-color:#50E6FF"/>
			<stop  offset="0.5" style="stop-color:#4FE4FD"/>
			<stop  offset="0.5" style="stop-color:#4BDDF8"/>
			<stop  offset="0.5" style="stop-color:#44D2EE"/>
			<stop  offset="0.5" style="stop-color:#3AC1E0"/>
			<stop  offset="0.5" style="stop-color:#2DABCE"/>
			<stop  offset="0.5" style="stop-color:#1D90B8"/>
			<stop  offset="0.5" style="stop-color:#198AB3"/>
			<stop  offset="0.662" style="stop-color:#32BEDD"/>
			<stop  offset="0.975" style="stop-color:#50E6FF"/>
		</linearGradient>
		<path fill="url(#SVGID_00000095314435748090747130000015599492819708084903_)" d="M759.64,71.335c-1.703,0-3.083,1.38-3.083,3.083
			c0,1.703,1.38,3.083,3.083,3.083s3.083-1.38,3.083-3.083C762.723,72.715,761.343,71.335,759.64,71.335
			C759.64,71.335,759.64,71.335,759.64,71.335z M749.337,65.091c-1.703,0-3.083,1.38-3.083,3.083c0,1.703,1.38,3.083,3.083,3.083
			s3.083-1.38,3.083-3.083l0,0C752.42,66.472,751.04,65.091,749.337,65.091z"/>
	</g>
</g>
<g id="Text">
	<g>
		<path fill="#2F2F2F" d="M11.895,34.428H6.016v-9.803h5.653v1.798H8.224v2.181h3.206v1.791H8.224v2.242h3.671V34.428z"/>
		<path fill="#2F2F2F" d="M19.8,27.428l-2.604,7h-2.461l-2.481-7h2.311l1.217,4.313c0.137,0.488,0.217,0.902,0.239,1.244h0.027
			c0.032-0.324,0.116-0.725,0.253-1.203l1.244-4.354H19.8z"/>
		<path fill="#2F2F2F" d="M26.787,31.543h-4.566c0.073,1.016,0.713,1.524,1.921,1.524c0.771,0,1.447-0.182,2.03-0.547v1.559
			c-0.647,0.346-1.488,0.52-2.522,0.52c-1.13,0-2.008-0.313-2.632-0.94s-0.937-1.5-0.937-2.622c0-1.162,0.337-2.083,1.012-2.762
			s1.504-1.019,2.488-1.019c1.021,0,1.811,0.303,2.369,0.909c0.558,0.606,0.837,1.429,0.837,2.468V31.543z M24.784,30.217
			c0-1.002-0.405-1.504-1.217-1.504c-0.347,0-0.646,0.144-0.898,0.431c-0.254,0.287-0.407,0.645-0.462,1.073H24.784z"/>
		<path fill="#2F2F2F" d="M34.913,34.428H32.76v-3.89c0-1.084-0.388-1.627-1.162-1.627c-0.374,0-0.682,0.144-0.923,0.431
			s-0.362,0.652-0.362,1.094v3.992h-2.16v-7h2.16v1.107h0.027c0.515-0.852,1.265-1.278,2.249-1.278c1.55,0,2.324,0.961,2.324,2.885
			V34.428z"/>
		<path fill="#2F2F2F" d="M40.763,34.346c-0.319,0.168-0.8,0.253-1.442,0.253c-1.522,0-2.283-0.791-2.283-2.372v-3.206h-1.135
			v-1.593h1.135v-1.511l2.153-0.615v2.126h1.572v1.593H39.19v2.83c0,0.729,0.289,1.094,0.868,1.094c0.228,0,0.463-0.066,0.704-0.198
			V34.346z"/>
		<path fill="#2F2F2F" d="M54.537,34.428h-2.215v-3.992h-4.061v3.992h-2.208v-9.803h2.208v3.91h4.061v-3.91h2.215V34.428z"/>
		<path fill="#2F2F2F" d="M63.178,34.428h-2.153v-1.066H60.99c-0.533,0.825-1.246,1.237-2.14,1.237
			c-1.622,0-2.434-0.982-2.434-2.946v-4.225h2.153v4.033c0,0.989,0.392,1.483,1.176,1.483c0.388,0,0.697-0.136,0.93-0.407
			s0.349-0.639,0.349-1.104v-4.006h2.153V34.428z"/>
		<path fill="#2F2F2F" d="M67.134,33.614h-0.027v0.813h-2.16V24.064h2.16v4.416h0.027c0.533-0.816,1.292-1.224,2.276-1.224
			c0.902,0,1.598,0.31,2.085,0.93s0.731,1.467,0.731,2.543c0,1.167-0.285,2.103-0.854,2.81s-1.331,1.06-2.283,1.06
			C68.228,34.599,67.576,34.271,67.134,33.614z M67.072,30.661v0.718c0,0.451,0.13,0.825,0.39,1.121s0.593,0.444,0.998,0.444
			c0.492,0,0.874-0.19,1.146-0.571c0.271-0.38,0.406-0.919,0.406-1.617c0-0.579-0.124-1.031-0.373-1.357
			c-0.248-0.326-0.603-0.489-1.062-0.489c-0.433,0-0.792,0.162-1.076,0.485C67.215,29.72,67.072,30.142,67.072,30.661z"/>
		<path fill="#2F2F2F" d="M73.267,34.243v-1.75c0.355,0.214,0.71,0.374,1.062,0.479c0.354,0.105,0.688,0.157,1.002,0.157
			c0.383,0,0.685-0.052,0.906-0.157c0.221-0.105,0.331-0.264,0.331-0.479c0-0.137-0.05-0.25-0.15-0.342s-0.229-0.171-0.386-0.239
			c-0.158-0.068-0.33-0.13-0.517-0.185s-0.367-0.116-0.54-0.185c-0.278-0.105-0.523-0.218-0.734-0.338
			c-0.213-0.121-0.391-0.261-0.533-0.42c-0.145-0.16-0.254-0.344-0.328-0.554c-0.076-0.209-0.113-0.458-0.113-0.745
			c0-0.392,0.086-0.729,0.256-1.012c0.172-0.283,0.399-0.514,0.684-0.694c0.285-0.18,0.611-0.312,0.979-0.396
			c0.366-0.084,0.748-0.126,1.145-0.126c0.31,0,0.624,0.024,0.943,0.072s0.634,0.117,0.943,0.208v1.668
			c-0.273-0.16-0.566-0.279-0.879-0.359c-0.312-0.08-0.618-0.12-0.919-0.12c-0.142,0-0.274,0.013-0.399,0.038
			c-0.126,0.025-0.236,0.062-0.332,0.109s-0.171,0.109-0.226,0.185s-0.082,0.161-0.082,0.256c0,0.127,0.041,0.237,0.123,0.328
			s0.189,0.17,0.321,0.236s0.279,0.125,0.441,0.178c0.161,0.052,0.322,0.106,0.481,0.161c0.287,0.1,0.547,0.209,0.779,0.328
			s0.432,0.257,0.599,0.417c0.166,0.16,0.293,0.346,0.383,0.561c0.088,0.214,0.133,0.469,0.133,0.766c0,0.415-0.09,0.769-0.27,1.063
			c-0.181,0.294-0.42,0.533-0.719,0.718c-0.298,0.185-0.643,0.319-1.031,0.403c-0.391,0.084-0.795,0.126-1.214,0.126
			C74.636,34.599,73.923,34.48,73.267,34.243z"/>
	</g>
	<g>
		<path fill="#2F2F2F" d="M229.324,126.452v-2.188c0.396,0.333,0.827,0.582,1.292,0.749s0.935,0.25,1.408,0.25
			c0.278,0,0.521-0.025,0.728-0.075c0.208-0.05,0.381-0.12,0.52-0.208c0.14-0.089,0.243-0.194,0.312-0.314s0.103-0.252,0.103-0.393
			c0-0.191-0.055-0.362-0.164-0.513s-0.259-0.29-0.447-0.417c-0.189-0.127-0.414-0.25-0.674-0.369s-0.54-0.239-0.841-0.362
			c-0.766-0.319-1.337-0.708-1.712-1.169c-0.377-0.46-0.564-1.016-0.564-1.668c0-0.51,0.103-0.949,0.308-1.316
			s0.484-0.669,0.837-0.906c0.354-0.237,0.763-0.411,1.228-0.523s0.957-0.167,1.477-0.167c0.511,0,0.963,0.031,1.356,0.092
			c0.395,0.062,0.758,0.156,1.091,0.284v2.044c-0.164-0.114-0.343-0.214-0.536-0.301c-0.194-0.086-0.394-0.158-0.599-0.215
			s-0.409-0.099-0.612-0.126c-0.202-0.027-0.395-0.041-0.577-0.041c-0.251,0-0.479,0.024-0.684,0.072s-0.378,0.115-0.52,0.202
			s-0.251,0.19-0.328,0.311s-0.116,0.256-0.116,0.407c0,0.164,0.043,0.311,0.13,0.441s0.21,0.253,0.369,0.369
			s0.354,0.23,0.581,0.342s0.485,0.227,0.772,0.345c0.392,0.164,0.744,0.338,1.056,0.523c0.312,0.185,0.58,0.393,0.804,0.625
			s0.395,0.498,0.513,0.796s0.178,0.646,0.178,1.042c0,0.547-0.104,1.006-0.311,1.377c-0.208,0.372-0.489,0.672-0.845,0.902
			s-0.769,0.396-1.241,0.496c-0.471,0.1-0.969,0.15-1.493,0.15c-0.538,0-1.05-0.045-1.534-0.137
			C230.1,126.771,229.68,126.634,229.324,126.452z"/>
		<path fill="#2F2F2F" d="M241.421,126.746c-0.319,0.168-0.8,0.253-1.442,0.253c-1.522,0-2.283-0.791-2.283-2.372v-3.206h-1.135
			v-1.593h1.135v-1.511l2.153-0.615v2.126h1.572v1.593h-1.572v2.83c0,0.729,0.289,1.094,0.868,1.094
			c0.228,0,0.463-0.066,0.704-0.198V126.746z"/>
		<path fill="#2F2F2F" d="M245.954,126.999c-1.167,0-2.084-0.327-2.751-0.981c-0.668-0.654-1.002-1.542-1.002-2.663
			c0-1.158,0.347-2.063,1.039-2.717s1.629-0.981,2.81-0.981c1.162,0,2.073,0.327,2.734,0.981s0.991,1.519,0.991,2.594
			c0,1.162-0.341,2.081-1.021,2.755C248.072,126.661,247.139,126.999,245.954,126.999z M246.009,121.311
			c-0.511,0-0.907,0.175-1.189,0.526s-0.424,0.848-0.424,1.49c0,1.344,0.542,2.017,1.627,2.017c1.034,0,1.552-0.69,1.552-2.071
			C247.574,121.965,247.053,121.311,246.009,121.311z"/>
		<path fill="#2F2F2F" d="M255.724,121.776c-0.26-0.141-0.562-0.212-0.909-0.212c-0.47,0-0.836,0.172-1.101,0.516
			s-0.396,0.812-0.396,1.405v3.343h-2.16v-7h2.16v1.299h0.027c0.342-0.948,0.957-1.422,1.846-1.422c0.228,0,0.405,0.027,0.533,0.082
			V121.776z"/>
		<path fill="#2F2F2F" d="M262.448,126.828h-2.044v-1.005h-0.027c-0.47,0.784-1.164,1.176-2.085,1.176
			c-0.679,0-1.214-0.192-1.603-0.578c-0.391-0.385-0.585-0.899-0.585-1.542c0-1.358,0.805-2.142,2.413-2.352l1.9-0.253
			c0-0.766-0.415-1.148-1.244-1.148c-0.834,0-1.627,0.249-2.379,0.745v-1.627c0.301-0.155,0.712-0.292,1.234-0.41
			c0.521-0.119,0.996-0.178,1.425-0.178c1.996,0,2.994,0.996,2.994,2.987V126.828z M260.418,123.984v-0.472l-1.271,0.164
			c-0.702,0.091-1.053,0.408-1.053,0.95c0,0.246,0.086,0.448,0.256,0.605c0.172,0.157,0.402,0.236,0.694,0.236
			c0.405,0,0.736-0.14,0.991-0.42S260.418,124.412,260.418,123.984z"/>
		<path fill="#2F2F2F" d="M271.043,126.028c0,1.299-0.376,2.305-1.128,3.018s-1.841,1.07-3.268,1.07
			c-0.943,0-1.69-0.134-2.242-0.403v-1.818c0.72,0.419,1.447,0.629,2.181,0.629c0.729,0,1.294-0.192,1.695-0.578
			s0.602-0.908,0.602-1.569v-0.554h-0.027c-0.492,0.784-1.219,1.176-2.181,1.176c-0.894,0-1.602-0.314-2.126-0.943
			s-0.786-1.472-0.786-2.529c0-1.185,0.292-2.126,0.875-2.823s1.352-1.046,2.304-1.046c0.853,0,1.49,0.328,1.914,0.984h0.027v-0.813
			h2.16V126.028z M268.91,123.464v-0.554c0-0.442-0.131-0.819-0.394-1.131c-0.262-0.312-0.603-0.468-1.021-0.468
			c-0.479,0-0.854,0.187-1.128,0.561s-0.41,0.9-0.41,1.579c0,0.583,0.13,1.045,0.39,1.384s0.615,0.509,1.066,0.509
			c0.446,0,0.808-0.172,1.084-0.516C268.772,124.484,268.91,124.029,268.91,123.464z"/>
		<path fill="#2F2F2F" d="M279.137,123.943h-4.566c0.073,1.016,0.713,1.524,1.921,1.524c0.771,0,1.447-0.182,2.03-0.547v1.559
			c-0.647,0.346-1.488,0.52-2.522,0.52c-1.13,0-2.008-0.313-2.632-0.94s-0.937-1.5-0.937-2.622c0-1.162,0.337-2.083,1.012-2.762
			s1.504-1.019,2.488-1.019c1.021,0,1.811,0.303,2.369,0.909c0.558,0.606,0.837,1.429,0.837,2.468V123.943z M277.134,122.617
			c0-1.002-0.405-1.504-1.217-1.504c-0.347,0-0.646,0.144-0.898,0.431c-0.254,0.287-0.407,0.645-0.462,1.073H277.134z"/>
	</g>
	<g>
		<path fill="#2F2F2F" d="M279.758,34.428h-5.879v-9.803h5.653v1.798h-3.445v2.181h3.206v1.791h-3.206v2.242h3.671V34.428z"/>
		<path fill="#2F2F2F" d="M287.664,27.428l-2.604,7h-2.461l-2.481-7h2.311l1.217,4.313c0.137,0.488,0.217,0.902,0.239,1.244h0.027
			c0.032-0.324,0.116-0.725,0.253-1.203l1.244-4.354H287.664z"/>
		<path fill="#2F2F2F" d="M294.651,31.543h-4.566c0.073,1.016,0.713,1.524,1.921,1.524c0.771,0,1.447-0.182,2.03-0.547v1.559
			c-0.647,0.346-1.488,0.52-2.522,0.52c-1.13,0-2.008-0.313-2.632-0.94s-0.937-1.5-0.937-2.622c0-1.162,0.337-2.083,1.012-2.762
			s1.504-1.019,2.488-1.019c1.021,0,1.811,0.303,2.369,0.909c0.558,0.606,0.837,1.429,0.837,2.468V31.543z M292.648,30.217
			c0-1.002-0.405-1.504-1.217-1.504c-0.347,0-0.646,0.144-0.898,0.431c-0.254,0.287-0.407,0.645-0.462,1.073H292.648z"/>
		<path fill="#2F2F2F" d="M302.777,34.428h-2.153v-3.89c0-1.084-0.388-1.627-1.162-1.627c-0.374,0-0.682,0.144-0.923,0.431
			s-0.362,0.652-0.362,1.094v3.992h-2.16v-7h2.16v1.107h0.027c0.515-0.852,1.265-1.278,2.249-1.278c1.55,0,2.324,0.961,2.324,2.885
			V34.428z"/>
		<path fill="#2F2F2F" d="M308.626,34.346c-0.319,0.168-0.8,0.253-1.442,0.253c-1.522,0-2.283-0.791-2.283-2.372v-3.206h-1.135
			v-1.593h1.135v-1.511l2.153-0.615v2.126h1.572v1.593h-1.572v2.83c0,0.729,0.289,1.094,0.868,1.094
			c0.228,0,0.463-0.066,0.704-0.198V34.346z"/>
		<path fill="#2F2F2F" d="M321.963,33.771c-0.957,0.551-2.146,0.827-3.568,0.827c-1.577,0-2.819-0.437-3.729-1.309
			c-0.908-0.873-1.363-2.075-1.363-3.606c0-1.541,0.497-2.796,1.49-3.767s2.315-1.456,3.965-1.456c1.039,0,1.955,0.144,2.748,0.431
			v2.071c-0.757-0.438-1.682-0.656-2.775-0.656c-0.916,0-1.662,0.297-2.238,0.892c-0.577,0.595-0.865,1.389-0.865,2.382
			c0,1.007,0.259,1.787,0.775,2.338c0.518,0.551,1.216,0.827,2.096,0.827c0.528,0,0.948-0.075,1.258-0.226v-1.914h-1.962v-1.764
			h4.17V33.771z"/>
		<path fill="#2F2F2F" d="M328.292,29.376c-0.26-0.141-0.562-0.212-0.909-0.212c-0.47,0-0.836,0.172-1.101,0.516
			s-0.396,0.812-0.396,1.405v3.343h-2.16v-7h2.16v1.299h0.027c0.342-0.948,0.957-1.422,1.846-1.422c0.228,0,0.405,0.027,0.533,0.082
			V29.376z"/>
		<path fill="#2F2F2F" d="M330.378,26.32c-0.364,0-0.663-0.108-0.896-0.325s-0.349-0.482-0.349-0.796
			c0-0.324,0.116-0.588,0.349-0.793s0.531-0.308,0.896-0.308c0.369,0,0.669,0.103,0.899,0.308c0.229,0.205,0.345,0.469,0.345,0.793
			c0,0.328-0.115,0.597-0.345,0.807C331.047,26.215,330.748,26.32,330.378,26.32z M331.445,34.428h-2.16v-7h2.16V34.428z"/>
		<path fill="#2F2F2F" d="M340.1,34.428h-2.16v-0.964h-0.027c-0.492,0.756-1.215,1.135-2.167,1.135
			c-0.875,0-1.579-0.309-2.112-0.926s-0.8-1.48-0.8-2.587c0-1.158,0.294-2.085,0.882-2.782s1.358-1.046,2.311-1.046
			c0.902,0,1.531,0.324,1.887,0.971h0.027v-4.163h2.16V34.428z M337.981,31.023v-0.526c0-0.456-0.132-0.834-0.396-1.135
			s-0.608-0.451-1.032-0.451c-0.479,0-0.853,0.188-1.121,0.564s-0.403,0.892-0.403,1.548c0,0.615,0.13,1.089,0.39,1.422
			s0.62,0.499,1.08,0.499c0.438,0,0.794-0.175,1.07-0.526C337.843,32.067,337.981,31.602,337.981,31.023z"/>
	</g>
	<g>
		<g>
			<path fill="#2F2F2F" d="M122.246,169.154c-0.725,0.383-1.627,0.574-2.707,0.574c-1.395,0-2.511-0.449-3.35-1.347
				s-1.258-2.076-1.258-3.534c0-1.568,0.472-2.834,1.415-3.801s2.14-1.449,3.589-1.449c0.93,0,1.7,0.134,2.311,0.403v1.224
				c-0.702-0.392-1.477-0.588-2.324-0.588c-1.125,0-2.038,0.376-2.738,1.128s-1.049,1.757-1.049,3.015
				c0,1.194,0.327,2.146,0.981,2.854s1.512,1.063,2.574,1.063c0.984,0,1.836-0.219,2.557-0.656V169.154z"/>
			<path fill="#2F2F2F" d="M129.068,169.564h-1.121v-1.094h-0.027c-0.488,0.838-1.206,1.258-2.153,1.258
				c-0.697,0-1.243-0.185-1.637-0.554s-0.591-0.859-0.591-1.47c0-1.308,0.77-2.069,2.311-2.283l2.099-0.294
				c0-1.189-0.481-1.784-1.442-1.784c-0.843,0-1.604,0.287-2.283,0.861v-1.148c0.688-0.438,1.481-0.656,2.379-0.656
				c1.645,0,2.468,0.871,2.468,2.611V169.564z M127.947,166.023l-1.688,0.232c-0.52,0.073-0.912,0.202-1.176,0.386
				s-0.396,0.512-0.396,0.981c0,0.342,0.122,0.621,0.366,0.837s0.568,0.325,0.974,0.325c0.556,0,1.015-0.195,1.377-0.584
				s0.543-0.883,0.543-1.48V166.023z"/>
			<path fill="#2F2F2F" d="M132.238,168.552h-0.027v4.231h-1.121v-10.22h1.121v1.23h0.027c0.551-0.93,1.358-1.395,2.42-1.395
				c0.902,0,1.606,0.313,2.112,0.94s0.759,1.466,0.759,2.519c0,1.171-0.285,2.109-0.854,2.813s-1.349,1.056-2.338,1.056
				C133.43,169.728,132.73,169.336,132.238,168.552z M132.211,165.729v0.978c0,0.579,0.188,1.07,0.564,1.473
				s0.854,0.605,1.432,0.605c0.679,0,1.211-0.26,1.596-0.779s0.578-1.242,0.578-2.167c0-0.779-0.18-1.39-0.54-1.832
				s-0.848-0.663-1.463-0.663c-0.652,0-1.176,0.227-1.572,0.68S132.211,165.045,132.211,165.729z"/>
			<path fill="#2F2F2F" d="M142.476,169.496c-0.264,0.146-0.613,0.219-1.046,0.219c-1.226,0-1.839-0.684-1.839-2.051v-4.143h-1.203
				v-0.957h1.203v-1.709l1.121-0.362v2.071h1.764v0.957h-1.764v3.944c0,0.469,0.08,0.804,0.239,1.005s0.424,0.301,0.793,0.301
				c0.283,0,0.526-0.078,0.731-0.232V169.496z"/>
			<path fill="#2F2F2F" d="M149.594,169.564h-1.121v-1.107h-0.027c-0.465,0.848-1.185,1.271-2.16,1.271
				c-1.668,0-2.502-0.994-2.502-2.98v-4.184h1.114v4.006c0,1.477,0.565,2.215,1.695,2.215c0.547,0,0.997-0.202,1.35-0.605
				s0.53-0.931,0.53-1.583v-4.033h1.121V169.564z"/>
			<path fill="#2F2F2F" d="M155.352,163.699c-0.196-0.15-0.479-0.226-0.848-0.226c-0.479,0-0.878,0.226-1.2,0.677
				s-0.482,1.066-0.482,1.846v3.568h-1.121v-7h1.121v1.442h0.027c0.16-0.492,0.403-0.876,0.731-1.152s0.695-0.414,1.101-0.414
				c0.292,0,0.515,0.032,0.67,0.096V163.699z"/>
			<path fill="#2F2F2F" d="M162.195,166.344h-4.942c0.018,0.779,0.228,1.381,0.629,1.805s0.953,0.636,1.654,0.636
				c0.789,0,1.513-0.26,2.174-0.779v1.053c-0.615,0.447-1.429,0.67-2.44,0.67c-0.989,0-1.766-0.318-2.331-0.954
				s-0.848-1.53-0.848-2.683c0-1.089,0.309-1.977,0.926-2.663s1.384-1.029,2.3-1.029s1.625,0.296,2.126,0.889
				s0.752,1.415,0.752,2.468V166.344z M161.046,165.394c-0.004-0.647-0.161-1.151-0.468-1.511s-0.735-0.54-1.282-0.54
				c-0.529,0-0.978,0.189-1.347,0.567s-0.597,0.873-0.684,1.483H161.046z"/>
			<path fill="#2F2F2F" d="M171.184,160.185c-0.219-0.123-0.467-0.185-0.745-0.185c-0.784,0-1.176,0.495-1.176,1.483v1.08h1.641
				v0.957h-1.641v6.043h-1.114v-6.043h-1.196v-0.957h1.196v-1.135c0-0.734,0.212-1.313,0.636-1.74s0.953-0.639,1.586-0.639
				c0.342,0,0.613,0.041,0.813,0.123V160.185z"/>
			<path fill="#2F2F2F" d="M172.938,160.787c-0.201,0-0.372-0.068-0.513-0.205s-0.212-0.31-0.212-0.52s0.071-0.384,0.212-0.523
				s0.312-0.208,0.513-0.208c0.205,0,0.379,0.069,0.523,0.208s0.215,0.313,0.215,0.523c0,0.201-0.072,0.372-0.215,0.513
				S173.143,160.787,172.938,160.787z M173.484,169.564h-1.121v-7h1.121V169.564z"/>
			<path fill="#2F2F2F" d="M176.732,169.564h-1.121v-10.363h1.121V169.564z"/>
			<path fill="#2F2F2F" d="M184.57,166.344h-4.942c0.018,0.779,0.228,1.381,0.629,1.805s0.953,0.636,1.654,0.636
				c0.789,0,1.513-0.26,2.174-0.779v1.053c-0.615,0.447-1.429,0.67-2.44,0.67c-0.989,0-1.766-0.318-2.331-0.954
				s-0.848-1.53-0.848-2.683c0-1.089,0.309-1.977,0.926-2.663s1.384-1.029,2.3-1.029s1.625,0.296,2.126,0.889
				s0.752,1.415,0.752,2.468V166.344z M183.422,165.394c-0.004-0.647-0.161-1.151-0.468-1.511s-0.735-0.54-1.282-0.54
				c-0.529,0-0.978,0.189-1.347,0.567s-0.597,0.873-0.684,1.483H183.422z"/>
		</g>
	</g>
	<g>
		<g>
			<path fill="#2F2F2F" d="M148.646,75.262c-0.725,0.383-1.627,0.574-2.707,0.574c-1.395,0-2.511-0.449-3.35-1.347
				s-1.258-2.076-1.258-3.534c0-1.568,0.472-2.834,1.415-3.801s2.14-1.449,3.589-1.449c0.93,0,1.7,0.134,2.311,0.403v1.224
				c-0.702-0.392-1.477-0.588-2.324-0.588c-1.125,0-2.038,0.376-2.738,1.128s-1.049,1.757-1.049,3.015
				c0,1.194,0.327,2.146,0.981,2.854s1.512,1.063,2.574,1.063c0.984,0,1.836-0.219,2.557-0.656V75.262z"/>
			<path fill="#2F2F2F" d="M155.468,75.672h-1.121v-1.094h-0.027c-0.488,0.838-1.206,1.258-2.153,1.258
				c-0.697,0-1.243-0.185-1.637-0.554s-0.591-0.859-0.591-1.47c0-1.308,0.77-2.069,2.311-2.283l2.099-0.294
				c0-1.189-0.481-1.784-1.442-1.784c-0.843,0-1.604,0.287-2.283,0.861v-1.148c0.688-0.438,1.481-0.656,2.379-0.656
				c1.645,0,2.468,0.871,2.468,2.611V75.672z M154.347,72.131l-1.688,0.232c-0.52,0.073-0.912,0.202-1.176,0.386
				s-0.396,0.512-0.396,0.981c0,0.342,0.122,0.621,0.366,0.837s0.568,0.325,0.974,0.325c0.556,0,1.015-0.195,1.377-0.584
				s0.543-0.883,0.543-1.48V72.131z"/>
			<path fill="#2F2F2F" d="M158.638,74.66h-0.027v4.231h-1.121v-10.22h1.121v1.23h0.027c0.551-0.93,1.358-1.395,2.42-1.395
				c0.902,0,1.606,0.313,2.112,0.94s0.759,1.466,0.759,2.519c0,1.171-0.285,2.109-0.854,2.813s-1.349,1.056-2.338,1.056
				C159.83,75.836,159.13,75.444,158.638,74.66z M158.611,71.837v0.978c0,0.579,0.188,1.07,0.564,1.473s0.854,0.605,1.432,0.605
				c0.679,0,1.211-0.26,1.596-0.779s0.578-1.242,0.578-2.167c0-0.779-0.18-1.39-0.54-1.832s-0.848-0.663-1.463-0.663
				c-0.652,0-1.176,0.227-1.572,0.68S158.611,71.153,158.611,71.837z"/>
			<path fill="#2F2F2F" d="M168.876,75.604c-0.264,0.146-0.613,0.219-1.046,0.219c-1.226,0-1.839-0.684-1.839-2.051v-4.143h-1.203
				v-0.957h1.203v-1.709l1.121-0.362v2.071h1.764v0.957h-1.764v3.944c0,0.469,0.08,0.804,0.239,1.005s0.424,0.301,0.793,0.301
				c0.283,0,0.526-0.078,0.731-0.232V75.604z"/>
			<path fill="#2F2F2F" d="M175.994,75.672h-1.121v-1.107h-0.027c-0.465,0.848-1.185,1.271-2.16,1.271
				c-1.668,0-2.502-0.994-2.502-2.98v-4.184h1.114v4.006c0,1.477,0.565,2.215,1.695,2.215c0.547,0,0.997-0.202,1.35-0.605
				s0.53-0.931,0.53-1.583v-4.033h1.121V75.672z"/>
			<path fill="#2F2F2F" d="M181.752,69.807c-0.196-0.15-0.479-0.226-0.848-0.226c-0.479,0-0.878,0.226-1.2,0.677
				s-0.482,1.066-0.482,1.846v3.568h-1.121v-7h1.121v1.442h0.027c0.16-0.492,0.403-0.876,0.731-1.152s0.695-0.414,1.101-0.414
				c0.292,0,0.515,0.032,0.67,0.096V69.807z"/>
			<path fill="#2F2F2F" d="M188.595,72.452h-4.942c0.018,0.779,0.228,1.381,0.629,1.805s0.953,0.636,1.654,0.636
				c0.789,0,1.513-0.26,2.174-0.779v1.053c-0.615,0.447-1.429,0.67-2.44,0.67c-0.989,0-1.766-0.318-2.331-0.954
				s-0.848-1.53-0.848-2.683c0-1.089,0.309-1.977,0.926-2.663s1.384-1.029,2.3-1.029s1.625,0.296,2.126,0.889
				s0.752,1.415,0.752,2.468V72.452z M187.446,71.502c-0.004-0.647-0.161-1.151-0.468-1.511s-0.735-0.54-1.282-0.54
				c-0.529,0-0.978,0.189-1.347,0.567s-0.597,0.873-0.684,1.483H187.446z"/>
			<path fill="#2F2F2F" d="M199.751,72.452h-4.942c0.018,0.779,0.228,1.381,0.629,1.805s0.953,0.636,1.654,0.636
				c0.789,0,1.513-0.26,2.174-0.779v1.053c-0.615,0.447-1.429,0.67-2.44,0.67c-0.989,0-1.766-0.318-2.331-0.954
				s-0.848-1.53-0.848-2.683c0-1.089,0.309-1.977,0.926-2.663s1.384-1.029,2.3-1.029s1.625,0.296,2.126,0.889
				s0.752,1.415,0.752,2.468V72.452z M198.603,71.502c-0.004-0.647-0.161-1.151-0.468-1.511s-0.735-0.54-1.282-0.54
				c-0.529,0-0.978,0.189-1.347,0.567s-0.597,0.873-0.684,1.483H198.603z"/>
			<path fill="#2F2F2F" d="M206.889,68.672l-2.789,7H203l-2.652-7h1.23l1.777,5.086c0.132,0.374,0.214,0.7,0.246,0.978h0.027
				c0.045-0.351,0.119-0.667,0.219-0.95l1.859-5.113H206.889z"/>
			<path fill="#2F2F2F" d="M213.53,72.452h-4.942c0.018,0.779,0.228,1.381,0.629,1.805s0.953,0.636,1.654,0.636
				c0.789,0,1.513-0.26,2.174-0.779v1.053c-0.615,0.447-1.429,0.67-2.44,0.67c-0.989,0-1.766-0.318-2.331-0.954
				s-0.848-1.53-0.848-2.683c0-1.089,0.309-1.977,0.926-2.663s1.384-1.029,2.3-1.029s1.625,0.296,2.126,0.889
				s0.752,1.415,0.752,2.468V72.452z M212.382,71.502c-0.004-0.647-0.161-1.151-0.468-1.511s-0.735-0.54-1.282-0.54
				c-0.529,0-0.978,0.189-1.347,0.567s-0.597,0.873-0.684,1.483H212.382z"/>
			<path fill="#2F2F2F" d="M221.024,75.672h-1.121V71.68c0-1.486-0.542-2.229-1.627-2.229c-0.561,0-1.024,0.211-1.391,0.632
				s-0.55,0.954-0.55,1.596v3.992h-1.121v-7h1.121v1.162h0.027c0.529-0.884,1.294-1.326,2.297-1.326
				c0.766,0,1.351,0.247,1.757,0.742s0.608,1.209,0.608,2.143V75.672z"/>
			<path fill="#2F2F2F" d="M226.253,75.604c-0.264,0.146-0.613,0.219-1.046,0.219c-1.226,0-1.839-0.684-1.839-2.051v-4.143h-1.203
				v-0.957h1.203v-1.709l1.121-0.362v2.071h1.764v0.957h-1.764v3.944c0,0.469,0.08,0.804,0.239,1.005s0.424,0.301,0.793,0.301
				c0.283,0,0.526-0.078,0.731-0.232V75.604z"/>
		</g>
	</g>
	<g>
		<path fill="#2F2F2F" d="M507.009,16.828h-2.406l-0.697-2.181h-3.486l-0.69,2.181h-2.393l3.568-9.803h2.618L507.009,16.828z
			 M503.4,12.952l-1.053-3.295c-0.077-0.246-0.132-0.54-0.164-0.882h-0.055c-0.022,0.287-0.08,0.572-0.171,0.854l-1.066,3.322H503.4
			z"/>
		<path fill="#2F2F2F" d="M513.915,16.828h-6.282v-0.896l3.514-4.512h-3.165V9.828h5.906v1.066l-3.329,4.341h3.356V16.828z"/>
		<path fill="#2F2F2F" d="M521.797,16.828h-2.153v-1.066h-0.034c-0.533,0.825-1.246,1.237-2.14,1.237
			c-1.622,0-2.434-0.982-2.434-2.946V9.828h2.153v4.033c0,0.989,0.392,1.483,1.176,1.483c0.388,0,0.697-0.136,0.93-0.407
			s0.349-0.639,0.349-1.104V9.828h2.153V16.828z"/>
		<path fill="#2F2F2F" d="M528.131,11.776c-0.26-0.141-0.562-0.212-0.909-0.212c-0.47,0-0.836,0.172-1.101,0.516
			s-0.396,0.812-0.396,1.405v3.343h-2.16v-7h2.16v1.299h0.027c0.342-0.948,0.957-1.422,1.846-1.422c0.228,0,0.405,0.027,0.533,0.082
			V11.776z"/>
		<path fill="#2F2F2F" d="M535.503,13.943h-4.566c0.073,1.016,0.713,1.524,1.921,1.524c0.771,0,1.447-0.182,2.03-0.547v1.559
			c-0.647,0.346-1.488,0.52-2.522,0.52c-1.13,0-2.008-0.313-2.632-0.94s-0.937-1.5-0.937-2.622c0-1.162,0.337-2.083,1.012-2.762
			s1.504-1.019,2.488-1.019c1.021,0,1.811,0.303,2.369,0.909c0.558,0.606,0.837,1.429,0.837,2.468V13.943z M533.5,12.617
			c0-1.002-0.405-1.504-1.217-1.504c-0.347,0-0.646,0.144-0.898,0.431c-0.254,0.287-0.407,0.645-0.462,1.073H533.5z"/>
		<path fill="#2F2F2F" d="M479.262,25.623h-3.459v2.406h3.179v1.791h-3.179v3.808h-2.208v-9.803h5.667V25.623z"/>
		<path fill="#2F2F2F" d="M487.012,33.627h-2.153v-1.066h-0.034c-0.533,0.825-1.246,1.237-2.14,1.237
			c-1.622,0-2.434-0.982-2.434-2.946v-4.225h2.153v4.033c0,0.989,0.392,1.483,1.176,1.483c0.388,0,0.697-0.136,0.93-0.407
			s0.349-0.639,0.349-1.104v-4.006h2.153V33.627z"/>
		<path fill="#2F2F2F" d="M495.542,33.627h-2.153v-3.89c0-1.084-0.388-1.627-1.162-1.627c-0.374,0-0.682,0.144-0.923,0.431
			s-0.362,0.652-0.362,1.094v3.992h-2.16v-7h2.16v1.107h0.027c0.515-0.852,1.265-1.278,2.249-1.278c1.55,0,2.324,0.961,2.324,2.885
			V33.627z"/>
		<path fill="#2F2F2F" d="M502.555,33.375c-0.487,0.283-1.191,0.424-2.112,0.424c-1.075,0-1.946-0.326-2.611-0.978
			s-0.998-1.493-0.998-2.522c0-1.189,0.356-2.127,1.07-2.813c0.713-0.686,1.666-1.029,2.86-1.029c0.825,0,1.422,0.109,1.791,0.328
			v1.832c-0.451-0.337-0.955-0.506-1.511-0.506c-0.62,0-1.111,0.181-1.473,0.543c-0.363,0.362-0.544,0.862-0.544,1.5
			c0,0.62,0.173,1.106,0.52,1.459s0.822,0.53,1.429,0.53c0.538,0,1.064-0.168,1.579-0.506V33.375z"/>
		<path fill="#2F2F2F" d="M508.287,33.545c-0.319,0.168-0.8,0.253-1.442,0.253c-1.522,0-2.283-0.791-2.283-2.372V28.22h-1.135
			v-1.593h1.135v-1.511l2.153-0.615v2.126h1.572v1.593h-1.572v2.83c0,0.729,0.289,1.094,0.868,1.094
			c0.228,0,0.463-0.066,0.704-0.198V33.545z"/>
		<path fill="#2F2F2F" d="M510.665,25.52c-0.364,0-0.663-0.108-0.896-0.325s-0.349-0.482-0.349-0.796
			c0-0.324,0.116-0.588,0.349-0.793s0.531-0.308,0.896-0.308c0.369,0,0.669,0.103,0.899,0.308c0.229,0.205,0.345,0.469,0.345,0.793
			c0,0.328-0.115,0.597-0.345,0.807C511.333,25.415,511.034,25.52,510.665,25.52z M511.731,33.627h-2.16v-7h2.16V33.627z"/>
		<path fill="#2F2F2F" d="M516.842,33.798c-1.167,0-2.084-0.327-2.751-0.981c-0.668-0.654-1.002-1.542-1.002-2.663
			c0-1.158,0.347-2.063,1.039-2.717s1.629-0.981,2.81-0.981c1.162,0,2.073,0.327,2.734,0.981s0.991,1.519,0.991,2.594
			c0,1.162-0.341,2.081-1.021,2.755C518.96,33.461,518.027,33.798,516.842,33.798z M516.897,28.111
			c-0.511,0-0.907,0.175-1.189,0.526s-0.424,0.848-0.424,1.49c0,1.344,0.542,2.017,1.627,2.017c1.034,0,1.552-0.69,1.552-2.071
			C518.462,28.765,517.941,28.111,516.897,28.111z"/>
		<path fill="#2F2F2F" d="M528.804,33.627h-2.153v-3.89c0-1.084-0.388-1.627-1.162-1.627c-0.374,0-0.682,0.144-0.923,0.431
			s-0.362,0.652-0.362,1.094v3.992h-2.16v-7h2.16v1.107h0.027c0.515-0.852,1.265-1.278,2.249-1.278c1.55,0,2.324,0.961,2.324,2.885
			V33.627z"/>
		<path fill="#2F2F2F" d="M543.208,33.627h-2.406l-0.697-2.181h-3.486l-0.69,2.181h-2.393l3.568-9.803h2.618L543.208,33.627z
			 M539.598,29.751l-1.053-3.295c-0.077-0.246-0.132-0.54-0.164-0.882h-0.055c-0.022,0.287-0.08,0.572-0.171,0.854l-1.066,3.322
			H539.598z"/>
		<path fill="#2F2F2F" d="M546.391,32.814h-0.027v4.033h-2.16v-10.22h2.16v1.053h0.027c0.533-0.816,1.283-1.224,2.249-1.224
			c0.907,0,1.607,0.311,2.102,0.933c0.495,0.622,0.742,1.469,0.742,2.54c0,1.167-0.288,2.103-0.865,2.81
			c-0.576,0.707-1.343,1.06-2.3,1.06C547.476,33.798,546.833,33.47,546.391,32.814z M546.33,29.943v0.561
			c0,0.483,0.128,0.877,0.383,1.183s0.59,0.458,1.005,0.458c0.492,0,0.874-0.19,1.146-0.571c0.271-0.38,0.406-0.919,0.406-1.617
			c0-1.23-0.479-1.846-1.436-1.846c-0.442,0-0.803,0.167-1.084,0.502C546.47,28.948,546.33,29.392,546.33,29.943z"/>
		<path fill="#2F2F2F" d="M555.088,32.814h-0.027v4.033h-2.16v-10.22h2.16v1.053h0.027c0.533-0.816,1.283-1.224,2.249-1.224
			c0.907,0,1.607,0.311,2.102,0.933c0.495,0.622,0.742,1.469,0.742,2.54c0,1.167-0.288,2.103-0.865,2.81
			c-0.576,0.707-1.343,1.06-2.3,1.06C556.173,33.798,555.531,33.47,555.088,32.814z M555.027,29.943v0.561
			c0,0.483,0.128,0.877,0.383,1.183s0.59,0.458,1.005,0.458c0.492,0,0.874-0.19,1.146-0.571c0.271-0.38,0.406-0.919,0.406-1.617
			c0-1.23-0.479-1.846-1.436-1.846c-0.442,0-0.803,0.167-1.084,0.502C555.167,28.948,555.027,29.392,555.027,29.943z"/>
	</g>
	<g>
		<path fill="#2F2F2F" d="M728.477,16.452v-2.188c0.396,0.333,0.827,0.582,1.292,0.749s0.935,0.25,1.408,0.25
			c0.278,0,0.521-0.025,0.728-0.075c0.208-0.05,0.381-0.12,0.52-0.208c0.14-0.089,0.243-0.194,0.312-0.314s0.103-0.252,0.103-0.393
			c0-0.191-0.055-0.362-0.164-0.513s-0.259-0.29-0.447-0.417c-0.189-0.127-0.414-0.25-0.674-0.369s-0.54-0.239-0.841-0.362
			c-0.766-0.319-1.337-0.708-1.712-1.169c-0.377-0.46-0.564-1.016-0.564-1.668c0-0.51,0.103-0.949,0.308-1.316
			s0.484-0.669,0.837-0.906c0.354-0.237,0.763-0.411,1.228-0.523s0.957-0.167,1.477-0.167c0.511,0,0.963,0.031,1.356,0.092
			c0.395,0.062,0.758,0.156,1.091,0.284v2.044c-0.164-0.114-0.343-0.214-0.536-0.301c-0.194-0.086-0.394-0.158-0.599-0.215
			s-0.409-0.099-0.612-0.126c-0.202-0.027-0.395-0.041-0.577-0.041c-0.251,0-0.479,0.024-0.684,0.072s-0.378,0.115-0.52,0.202
			s-0.251,0.19-0.328,0.311s-0.116,0.256-0.116,0.407c0,0.164,0.043,0.311,0.13,0.441s0.21,0.253,0.369,0.369
			s0.354,0.23,0.581,0.342s0.485,0.227,0.772,0.345c0.392,0.164,0.744,0.338,1.056,0.523c0.312,0.185,0.58,0.393,0.804,0.625
			s0.395,0.498,0.513,0.796s0.178,0.646,0.178,1.042c0,0.547-0.104,1.006-0.311,1.377c-0.208,0.372-0.489,0.672-0.845,0.902
			s-0.769,0.396-1.241,0.496c-0.471,0.1-0.969,0.15-1.493,0.15c-0.538,0-1.05-0.045-1.534-0.137
			C729.252,16.771,728.832,16.634,728.477,16.452z"/>
		<path fill="#2F2F2F" d="M743.015,9.828l-2.844,7.561c-0.684,1.818-1.714,2.728-3.09,2.728c-0.524,0-0.955-0.059-1.292-0.178
			v-1.723c0.287,0.168,0.6,0.253,0.937,0.253c0.556,0,0.943-0.262,1.162-0.786l0.369-0.868l-2.844-6.986h2.393l1.306,4.259
			c0.082,0.264,0.146,0.577,0.191,0.937h0.027c0.041-0.264,0.116-0.572,0.226-0.923l1.319-4.272H743.015z"/>
		<path fill="#2F2F2F" d="M750.699,16.828h-2.153v-3.89c0-1.084-0.388-1.627-1.162-1.627c-0.374,0-0.682,0.144-0.923,0.431
			s-0.362,0.652-0.362,1.094v3.992h-2.16v-7h2.16v1.107h0.027c0.515-0.852,1.265-1.278,2.249-1.278c1.55,0,2.324,0.961,2.324,2.885
			V16.828z"/>
		<path fill="#2F2F2F" d="M758.265,16.828h-2.044v-1.005h-0.027c-0.47,0.784-1.164,1.176-2.085,1.176
			c-0.679,0-1.214-0.192-1.603-0.578c-0.391-0.385-0.585-0.899-0.585-1.542c0-1.358,0.805-2.142,2.413-2.352l1.9-0.253
			c0-0.766-0.415-1.148-1.244-1.148c-0.834,0-1.627,0.249-2.379,0.745v-1.627c0.301-0.155,0.712-0.292,1.234-0.41
			c0.521-0.119,0.996-0.178,1.425-0.178c1.996,0,2.994,0.996,2.994,2.987V16.828z M756.234,13.984v-0.472l-1.271,0.164
			c-0.702,0.091-1.053,0.408-1.053,0.95c0,0.246,0.086,0.448,0.256,0.605c0.172,0.157,0.402,0.236,0.694,0.236
			c0.405,0,0.736-0.14,0.991-0.42S756.234,14.412,756.234,13.984z"/>
		<path fill="#2F2F2F" d="M762.148,16.014h-0.027v4.033h-2.16V9.828h2.16v1.053h0.027c0.533-0.816,1.283-1.224,2.249-1.224
			c0.907,0,1.607,0.311,2.102,0.933c0.495,0.622,0.742,1.469,0.742,2.54c0,1.167-0.288,2.103-0.865,2.81
			c-0.576,0.707-1.343,1.06-2.3,1.06C763.233,16.999,762.591,16.67,762.148,16.014z M762.087,13.143v0.561
			c0,0.483,0.128,0.877,0.383,1.183s0.59,0.458,1.005,0.458c0.492,0,0.874-0.19,1.146-0.571c0.271-0.38,0.406-0.919,0.406-1.617
			c0-1.23-0.479-1.846-1.436-1.846c-0.442,0-0.803,0.167-1.084,0.502C762.228,12.148,762.087,12.592,762.087,13.143z"/>
		<path fill="#2F2F2F" d="M768.281,16.643v-1.75c0.355,0.214,0.71,0.374,1.062,0.479c0.354,0.105,0.688,0.157,1.002,0.157
			c0.383,0,0.685-0.052,0.906-0.157c0.221-0.105,0.331-0.264,0.331-0.479c0-0.137-0.05-0.25-0.15-0.342s-0.229-0.171-0.386-0.239
			c-0.158-0.068-0.33-0.13-0.517-0.185s-0.367-0.116-0.54-0.185c-0.278-0.105-0.523-0.218-0.734-0.338
			c-0.213-0.121-0.391-0.261-0.533-0.42c-0.145-0.16-0.254-0.344-0.328-0.554c-0.076-0.209-0.113-0.458-0.113-0.745
			c0-0.392,0.086-0.729,0.256-1.012c0.172-0.283,0.399-0.514,0.684-0.694c0.285-0.18,0.611-0.312,0.979-0.396
			c0.366-0.084,0.748-0.126,1.145-0.126c0.31,0,0.624,0.024,0.943,0.072s0.634,0.117,0.943,0.208v1.668
			c-0.273-0.16-0.566-0.279-0.879-0.359c-0.312-0.08-0.618-0.12-0.919-0.12c-0.142,0-0.274,0.013-0.399,0.038
			c-0.126,0.025-0.236,0.062-0.332,0.109s-0.171,0.109-0.226,0.185s-0.082,0.161-0.082,0.256c0,0.127,0.041,0.237,0.123,0.328
			s0.189,0.17,0.321,0.236s0.279,0.125,0.441,0.178c0.161,0.052,0.322,0.106,0.481,0.161c0.287,0.1,0.547,0.209,0.779,0.328
			s0.432,0.257,0.599,0.417c0.166,0.16,0.293,0.346,0.383,0.561c0.088,0.214,0.133,0.469,0.133,0.766c0,0.415-0.09,0.769-0.27,1.063
			c-0.181,0.294-0.42,0.533-0.719,0.718c-0.298,0.185-0.643,0.319-1.031,0.403c-0.391,0.084-0.795,0.126-1.214,0.126
			C769.65,16.999,768.938,16.88,768.281,16.643z"/>
		<path fill="#2F2F2F" d="M781.23,13.943h-4.566c0.073,1.016,0.713,1.524,1.921,1.524c0.771,0,1.447-0.182,2.03-0.547v1.559
			c-0.647,0.346-1.488,0.52-2.522,0.52c-1.13,0-2.008-0.313-2.632-0.94s-0.937-1.5-0.937-2.622c0-1.162,0.337-2.083,1.012-2.762
			s1.504-1.019,2.488-1.019c1.021,0,1.811,0.303,2.369,0.909c0.558,0.606,0.837,1.429,0.837,2.468V13.943z M779.228,12.617
			c0-1.002-0.405-1.504-1.217-1.504c-0.347,0-0.646,0.144-0.898,0.431c-0.254,0.287-0.407,0.645-0.462,1.073H779.228z"/>
		<path fill="#2F2F2F" d="M734.291,33.627h-2.406l-0.697-2.181h-3.486l-0.69,2.181h-2.393l3.568-9.803h2.618L734.291,33.627z
			 M730.682,29.751l-1.053-3.295c-0.077-0.246-0.132-0.54-0.164-0.882h-0.055c-0.022,0.287-0.08,0.572-0.171,0.854l-1.066,3.322
			H730.682z"/>
		<path fill="#2F2F2F" d="M742.048,33.627h-2.153v-3.89c0-1.084-0.388-1.627-1.162-1.627c-0.374,0-0.682,0.144-0.923,0.431
			s-0.362,0.652-0.362,1.094v3.992h-2.16v-7h2.16v1.107h0.027c0.515-0.852,1.265-1.278,2.249-1.278c1.55,0,2.324,0.961,2.324,2.885
			V33.627z"/>
		<path fill="#2F2F2F" d="M749.613,33.627h-2.044v-1.005h-0.027c-0.47,0.784-1.164,1.176-2.085,1.176
			c-0.679,0-1.214-0.192-1.603-0.578c-0.391-0.385-0.585-0.899-0.585-1.542c0-1.358,0.805-2.142,2.413-2.352l1.9-0.253
			c0-0.766-0.415-1.148-1.244-1.148c-0.834,0-1.627,0.249-2.379,0.745v-1.627c0.301-0.155,0.712-0.292,1.234-0.41
			c0.521-0.119,0.996-0.178,1.425-0.178c1.996,0,2.994,0.996,2.994,2.987V33.627z M747.583,30.784v-0.472l-1.271,0.164
			c-0.702,0.091-1.053,0.408-1.053,0.95c0,0.246,0.086,0.448,0.256,0.605c0.172,0.157,0.402,0.236,0.694,0.236
			c0.405,0,0.736-0.14,0.991-0.42S747.583,31.212,747.583,30.784z"/>
		<path fill="#2F2F2F" d="M753.472,33.627h-2.16V23.264h2.16V33.627z"/>
		<path fill="#2F2F2F" d="M761.995,26.627l-2.844,7.561c-0.684,1.818-1.714,2.728-3.09,2.728c-0.524,0-0.955-0.059-1.292-0.178
			v-1.723c0.287,0.168,0.6,0.253,0.937,0.253c0.556,0,0.943-0.262,1.162-0.786l0.369-0.868l-2.844-6.986h2.393l1.306,4.259
			c0.082,0.264,0.146,0.577,0.191,0.937h0.027c0.041-0.264,0.116-0.572,0.226-0.923l1.319-4.272H761.995z"/>
		<path fill="#2F2F2F" d="M767.46,33.545c-0.319,0.168-0.8,0.253-1.442,0.253c-1.522,0-2.283-0.791-2.283-2.372V28.22H762.6v-1.593
			h1.135v-1.511l2.153-0.615v2.126h1.572v1.593h-1.572v2.83c0,0.729,0.289,1.094,0.868,1.094c0.228,0,0.463-0.066,0.704-0.198
			V33.545z"/>
		<path fill="#2F2F2F" d="M769.838,25.52c-0.364,0-0.663-0.108-0.896-0.325s-0.349-0.482-0.349-0.796
			c0-0.324,0.116-0.588,0.349-0.793s0.531-0.308,0.896-0.308c0.369,0,0.669,0.103,0.899,0.308c0.229,0.205,0.345,0.469,0.345,0.793
			c0,0.328-0.115,0.597-0.345,0.807C770.507,25.415,770.207,25.52,769.838,25.52z M770.904,33.627h-2.16v-7h2.16V33.627z"/>
		<path fill="#2F2F2F" d="M777.984,33.375c-0.487,0.283-1.191,0.424-2.112,0.424c-1.075,0-1.946-0.326-2.611-0.978
			s-0.998-1.493-0.998-2.522c0-1.189,0.356-2.127,1.07-2.813c0.713-0.686,1.666-1.029,2.86-1.029c0.825,0,1.422,0.109,1.791,0.328
			v1.832c-0.451-0.337-0.955-0.506-1.511-0.506c-0.62,0-1.111,0.181-1.473,0.543c-0.363,0.362-0.544,0.862-0.544,1.5
			c0,0.62,0.173,1.106,0.52,1.459s0.822,0.53,1.429,0.53c0.538,0,1.064-0.168,1.579-0.506V33.375z"/>
		<path fill="#2F2F2F" d="M779.155,33.443v-1.75c0.355,0.214,0.71,0.374,1.062,0.479c0.354,0.105,0.688,0.157,1.002,0.157
			c0.383,0,0.685-0.052,0.906-0.157c0.221-0.105,0.331-0.264,0.331-0.479c0-0.137-0.05-0.25-0.15-0.342s-0.229-0.171-0.386-0.239
			c-0.158-0.068-0.33-0.13-0.517-0.185s-0.367-0.116-0.54-0.185c-0.278-0.105-0.523-0.218-0.734-0.338
			c-0.213-0.121-0.391-0.261-0.533-0.42c-0.145-0.16-0.254-0.344-0.328-0.554c-0.076-0.209-0.113-0.458-0.113-0.745
			c0-0.392,0.086-0.729,0.256-1.012c0.172-0.283,0.399-0.514,0.684-0.694c0.285-0.18,0.611-0.312,0.979-0.396
			c0.366-0.084,0.748-0.126,1.145-0.126c0.31,0,0.624,0.024,0.943,0.072s0.634,0.117,0.943,0.208v1.668
			c-0.273-0.16-0.566-0.279-0.879-0.359c-0.312-0.08-0.618-0.12-0.919-0.12c-0.142,0-0.274,0.013-0.399,0.038
			c-0.126,0.025-0.236,0.062-0.332,0.109s-0.171,0.109-0.226,0.185s-0.082,0.161-0.082,0.256c0,0.127,0.041,0.237,0.123,0.328
			s0.189,0.17,0.321,0.236s0.279,0.125,0.441,0.178c0.161,0.052,0.322,0.106,0.481,0.161c0.287,0.1,0.547,0.209,0.779,0.328
			s0.432,0.257,0.599,0.417c0.166,0.16,0.293,0.346,0.383,0.561c0.088,0.214,0.133,0.469,0.133,0.766c0,0.415-0.09,0.769-0.27,1.063
			c-0.181,0.294-0.42,0.533-0.719,0.718c-0.298,0.185-0.643,0.319-1.031,0.403c-0.391,0.084-0.795,0.126-1.214,0.126
			C780.524,33.798,779.812,33.68,779.155,33.443z"/>
	</g>
	<g>
		<g>
			<path fill="#2F2F2F" d="M392.439,75.352c-0.725,0.383-1.627,0.574-2.707,0.574c-1.395,0-2.511-0.449-3.35-1.347
				s-1.258-2.076-1.258-3.534c0-1.568,0.472-2.834,1.415-3.801s2.14-1.449,3.589-1.449c0.93,0,1.7,0.134,2.311,0.403v1.224
				c-0.702-0.392-1.477-0.588-2.324-0.588c-1.125,0-2.038,0.376-2.738,1.128s-1.049,1.757-1.049,3.015
				c0,1.194,0.327,2.146,0.981,2.854s1.512,1.063,2.574,1.063c0.984,0,1.836-0.219,2.557-0.656V75.352z"/>
			<path fill="#2F2F2F" d="M399.262,75.762h-1.121v-1.094h-0.027c-0.488,0.838-1.206,1.258-2.153,1.258
				c-0.697,0-1.243-0.185-1.637-0.554s-0.591-0.859-0.591-1.47c0-1.308,0.77-2.069,2.311-2.283l2.099-0.294
				c0-1.189-0.481-1.784-1.442-1.784c-0.843,0-1.604,0.287-2.283,0.861v-1.148c0.688-0.438,1.481-0.656,2.379-0.656
				c1.645,0,2.468,0.871,2.468,2.611V75.762z M398.141,72.221l-1.688,0.232c-0.52,0.073-0.912,0.202-1.176,0.386
				s-0.396,0.512-0.396,0.981c0,0.342,0.122,0.621,0.366,0.837s0.568,0.325,0.974,0.325c0.556,0,1.015-0.195,1.377-0.584
				s0.543-0.883,0.543-1.48V72.221z"/>
			<path fill="#2F2F2F" d="M402.432,74.75h-0.027v4.231h-1.121v-10.22h1.121v1.23h0.027c0.551-0.93,1.358-1.395,2.42-1.395
				c0.902,0,1.606,0.313,2.112,0.94s0.759,1.466,0.759,2.519c0,1.171-0.285,2.109-0.854,2.813s-1.349,1.056-2.338,1.056
				C403.624,75.926,402.924,75.534,402.432,74.75z M402.404,71.927v0.978c0,0.579,0.188,1.07,0.564,1.473s0.854,0.605,1.432,0.605
				c0.679,0,1.211-0.26,1.596-0.779s0.578-1.242,0.578-2.167c0-0.779-0.18-1.39-0.54-1.832s-0.848-0.663-1.463-0.663
				c-0.652,0-1.176,0.227-1.572,0.68S402.404,71.243,402.404,71.927z"/>
			<path fill="#2F2F2F" d="M412.669,75.693c-0.264,0.146-0.613,0.219-1.046,0.219c-1.226,0-1.839-0.684-1.839-2.051v-4.143h-1.203
				v-0.957h1.203v-1.709l1.121-0.362v2.071h1.764v0.957h-1.764v3.944c0,0.469,0.08,0.804,0.239,1.005s0.424,0.301,0.793,0.301
				c0.283,0,0.526-0.078,0.731-0.232V75.693z"/>
			<path fill="#2F2F2F" d="M419.788,75.762h-1.121v-1.107h-0.027c-0.465,0.848-1.185,1.271-2.16,1.271
				c-1.668,0-2.502-0.994-2.502-2.98v-4.184h1.114v4.006c0,1.477,0.565,2.215,1.695,2.215c0.547,0,0.997-0.202,1.35-0.605
				s0.53-0.931,0.53-1.583v-4.033h1.121V75.762z"/>
			<path fill="#2F2F2F" d="M425.545,69.896c-0.196-0.15-0.479-0.226-0.848-0.226c-0.479,0-0.878,0.226-1.2,0.677
				s-0.482,1.066-0.482,1.846v3.568h-1.121v-7h1.121v1.442h0.027c0.16-0.492,0.403-0.876,0.731-1.152s0.695-0.414,1.101-0.414
				c0.292,0,0.515,0.032,0.67,0.096V69.896z"/>
			<path fill="#2F2F2F" d="M432.388,72.542h-4.942c0.018,0.779,0.228,1.381,0.629,1.805s0.953,0.636,1.654,0.636
				c0.789,0,1.513-0.26,2.174-0.779v1.053c-0.615,0.447-1.429,0.67-2.44,0.67c-0.989,0-1.766-0.318-2.331-0.954
				s-0.848-1.53-0.848-2.683c0-1.089,0.309-1.977,0.926-2.663s1.384-1.029,2.3-1.029s1.625,0.296,2.126,0.889
				s0.752,1.415,0.752,2.468V72.542z M431.24,71.592c-0.004-0.647-0.161-1.151-0.468-1.511s-0.735-0.54-1.282-0.54
				c-0.529,0-0.978,0.189-1.347,0.567s-0.597,0.873-0.684,1.483H431.24z"/>
			<path fill="#2F2F2F" d="M391.243,89.342H386.3c0.018,0.779,0.228,1.381,0.629,1.805s0.953,0.636,1.654,0.636
				c0.789,0,1.513-0.26,2.174-0.779v1.053c-0.615,0.447-1.429,0.67-2.44,0.67c-0.989,0-1.766-0.318-2.331-0.954
				s-0.848-1.53-0.848-2.683c0-1.089,0.309-1.977,0.926-2.663s1.384-1.029,2.3-1.029s1.625,0.296,2.126,0.889
				s0.752,1.415,0.752,2.468V89.342z M390.094,88.392c-0.004-0.647-0.161-1.151-0.468-1.511s-0.735-0.54-1.282-0.54
				c-0.529,0-0.978,0.189-1.347,0.567s-0.597,0.873-0.684,1.483H390.094z"/>
			<path fill="#2F2F2F" d="M398.381,85.562l-2.789,7h-1.101l-2.652-7h1.23l1.777,5.086c0.132,0.374,0.214,0.7,0.246,0.978h0.027
				c0.045-0.351,0.119-0.667,0.219-0.95l1.859-5.113H398.381z"/>
			<path fill="#2F2F2F" d="M405.022,89.342h-4.942c0.018,0.779,0.228,1.381,0.629,1.805s0.953,0.636,1.654,0.636
				c0.789,0,1.513-0.26,2.174-0.779v1.053c-0.615,0.447-1.429,0.67-2.44,0.67c-0.989,0-1.766-0.318-2.331-0.954
				s-0.848-1.53-0.848-2.683c0-1.089,0.309-1.977,0.926-2.663s1.384-1.029,2.3-1.029s1.625,0.296,2.126,0.889
				s0.752,1.415,0.752,2.468V89.342z M403.874,88.392c-0.004-0.647-0.161-1.151-0.468-1.511s-0.735-0.54-1.282-0.54
				c-0.529,0-0.978,0.189-1.347,0.567s-0.597,0.873-0.684,1.483H403.874z"/>
			<path fill="#2F2F2F" d="M412.516,92.562h-1.121v-3.992c0-1.486-0.542-2.229-1.627-2.229c-0.561,0-1.024,0.211-1.391,0.632
				s-0.55,0.954-0.55,1.596v3.992h-1.121v-7h1.121v1.162h0.027c0.529-0.884,1.294-1.326,2.297-1.326
				c0.766,0,1.351,0.247,1.757,0.742s0.608,1.209,0.608,2.143V92.562z"/>
			<path fill="#2F2F2F" d="M417.745,92.493c-0.264,0.146-0.613,0.219-1.046,0.219c-1.226,0-1.839-0.684-1.839-2.051v-4.143h-1.203
				v-0.957h1.203v-1.709l1.121-0.362v2.071h1.764v0.957h-1.764v3.944c0,0.469,0.08,0.804,0.239,1.005s0.424,0.301,0.793,0.301
				c0.283,0,0.526-0.078,0.731-0.232V92.493z"/>
			<path fill="#2F2F2F" d="M429.051,92.562h-1.121v-1.189h-0.027c-0.52,0.902-1.322,1.354-2.406,1.354
				c-0.879,0-1.583-0.313-2.109-0.94s-0.79-1.48-0.79-2.56c0-1.158,0.292-2.085,0.875-2.782s1.36-1.046,2.331-1.046
				c0.961,0,1.661,0.378,2.099,1.135h0.027v-4.334h1.121V92.562z M427.93,89.396v-1.032c0-0.565-0.187-1.043-0.561-1.436
				s-0.848-0.588-1.422-0.588c-0.684,0-1.221,0.25-1.613,0.752s-0.588,1.194-0.588,2.078c0,0.807,0.188,1.443,0.564,1.911
				s0.881,0.701,1.514,0.701c0.625,0,1.131-0.226,1.521-0.677S427.93,90.084,427.93,89.396z"/>
			<path fill="#2F2F2F" d="M436.208,92.562h-1.121v-1.094h-0.027c-0.488,0.838-1.206,1.258-2.153,1.258
				c-0.697,0-1.243-0.185-1.637-0.554s-0.591-0.859-0.591-1.47c0-1.308,0.77-2.069,2.311-2.283l2.099-0.294
				c0-1.189-0.481-1.784-1.442-1.784c-0.843,0-1.604,0.287-2.283,0.861v-1.148c0.688-0.438,1.481-0.656,2.379-0.656
				c1.645,0,2.468,0.871,2.468,2.611V92.562z M435.087,89.021l-1.688,0.232c-0.52,0.073-0.912,0.202-1.176,0.386
				s-0.396,0.512-0.396,0.981c0,0.342,0.122,0.621,0.366,0.837s0.568,0.325,0.974,0.325c0.556,0,1.015-0.195,1.377-0.584
				s0.543-0.883,0.543-1.48V89.021z"/>
			<path fill="#2F2F2F" d="M441.467,92.493c-0.264,0.146-0.613,0.219-1.046,0.219c-1.226,0-1.839-0.684-1.839-2.051v-4.143h-1.203
				v-0.957h1.203v-1.709l1.121-0.362v2.071h1.764v0.957h-1.764v3.944c0,0.469,0.08,0.804,0.239,1.005s0.424,0.301,0.793,0.301
				c0.283,0,0.526-0.078,0.731-0.232V92.493z"/>
			<path fill="#2F2F2F" d="M448.084,92.562h-1.121v-1.094h-0.027c-0.488,0.838-1.206,1.258-2.153,1.258
				c-0.697,0-1.243-0.185-1.637-0.554s-0.591-0.859-0.591-1.47c0-1.308,0.77-2.069,2.311-2.283l2.099-0.294
				c0-1.189-0.481-1.784-1.442-1.784c-0.843,0-1.604,0.287-2.283,0.861v-1.148c0.688-0.438,1.481-0.656,2.379-0.656
				c1.645,0,2.468,0.871,2.468,2.611V92.562z M446.963,89.021l-1.688,0.232c-0.52,0.073-0.912,0.202-1.176,0.386
				s-0.396,0.512-0.396,0.981c0,0.342,0.122,0.621,0.366,0.837s0.568,0.325,0.974,0.325c0.556,0,1.015-0.195,1.377-0.584
				s0.543-0.883,0.543-1.48V89.021z"/>
		</g>
	</g>
	<g>
		<g>
			<path fill="#2F2F2F" d="M591.748,75.762v-9.803h2.707c3.454,0,5.182,1.593,5.182,4.778c0,1.513-0.479,2.729-1.439,3.647
				c-0.959,0.918-2.243,1.377-3.852,1.377H591.748z M592.896,66.998v7.725h1.463c1.285,0,2.286-0.344,3.001-1.032
				c0.715-0.688,1.073-1.664,1.073-2.926c0-2.511-1.335-3.767-4.006-3.767H592.896z"/>
			<path fill="#2F2F2F" d="M606.268,75.762h-1.121v-1.094h-0.027c-0.487,0.838-1.205,1.258-2.153,1.258
				c-0.697,0-1.243-0.185-1.637-0.554c-0.395-0.369-0.592-0.859-0.592-1.47c0-1.308,0.771-2.069,2.311-2.283l2.099-0.294
				c0-1.189-0.48-1.784-1.442-1.784c-0.843,0-1.604,0.287-2.283,0.861v-1.148c0.688-0.438,1.481-0.656,2.379-0.656
				c1.646,0,2.468,0.871,2.468,2.611V75.762z M605.146,72.221l-1.688,0.232c-0.52,0.073-0.911,0.202-1.176,0.386
				c-0.264,0.185-0.396,0.512-0.396,0.981c0,0.342,0.122,0.621,0.366,0.837c0.243,0.216,0.568,0.325,0.974,0.325
				c0.557,0,1.016-0.195,1.378-0.584s0.543-0.883,0.543-1.48V72.221z"/>
			<path fill="#2F2F2F" d="M611.526,75.693c-0.265,0.146-0.613,0.219-1.046,0.219c-1.227,0-1.839-0.684-1.839-2.051v-4.143h-1.203
				v-0.957h1.203v-1.709l1.121-0.362v2.071h1.764v0.957h-1.764v3.944c0,0.469,0.079,0.804,0.239,1.005
				c0.159,0.201,0.424,0.301,0.793,0.301c0.282,0,0.526-0.078,0.731-0.232V75.693z"/>
			<path fill="#2F2F2F" d="M618.144,75.762h-1.121v-1.094h-0.027c-0.488,0.838-1.206,1.258-2.153,1.258
				c-0.697,0-1.243-0.185-1.638-0.554c-0.394-0.369-0.591-0.859-0.591-1.47c0-1.308,0.77-2.069,2.311-2.283l2.099-0.294
				c0-1.189-0.481-1.784-1.442-1.784c-0.844,0-1.604,0.287-2.283,0.861v-1.148c0.688-0.438,1.48-0.656,2.379-0.656
				c1.645,0,2.468,0.871,2.468,2.611V75.762z M617.022,72.221l-1.688,0.232c-0.52,0.073-0.912,0.202-1.176,0.386
				c-0.265,0.185-0.396,0.512-0.396,0.981c0,0.342,0.122,0.621,0.365,0.837c0.244,0.216,0.568,0.325,0.975,0.325
				c0.556,0,1.015-0.195,1.377-0.584s0.544-0.883,0.544-1.48V72.221z"/>
			<path fill="#2F2F2F" d="M634.03,75.762h-1.121v-4.02c0-0.775-0.12-1.335-0.359-1.682s-0.642-0.52-1.206-0.52
				c-0.479,0-0.886,0.219-1.221,0.656s-0.502,0.961-0.502,1.572v3.992H628.5v-4.156c0-1.376-0.531-2.064-1.593-2.064
				c-0.492,0-0.898,0.206-1.217,0.619c-0.319,0.413-0.479,0.949-0.479,1.61v3.992h-1.121v-7h1.121v1.107h0.027
				c0.496-0.848,1.221-1.271,2.174-1.271c0.479,0,0.896,0.133,1.251,0.4s0.599,0.616,0.731,1.049
				c0.52-0.966,1.294-1.449,2.324-1.449c1.54,0,2.311,0.95,2.311,2.851V75.762z"/>
			<path fill="#2F2F2F" d="M636.618,66.984c-0.2,0-0.371-0.068-0.513-0.205c-0.141-0.137-0.212-0.31-0.212-0.52
				s0.071-0.384,0.212-0.523c0.142-0.139,0.312-0.208,0.513-0.208c0.205,0,0.38,0.069,0.523,0.208s0.215,0.313,0.215,0.523
				c0,0.201-0.071,0.372-0.215,0.513S636.823,66.984,636.618,66.984z M637.165,75.762h-1.121v-7h1.121V75.762z"/>
			<path fill="#2F2F2F" d="M645.305,75.201c0,2.57-1.23,3.855-3.691,3.855c-0.866,0-1.623-0.164-2.27-0.492v-1.121
				c0.788,0.438,1.54,0.656,2.256,0.656c1.723,0,2.584-0.916,2.584-2.748v-0.766h-0.027c-0.533,0.893-1.336,1.34-2.406,1.34
				c-0.871,0-1.571-0.311-2.103-0.933c-0.53-0.622-0.796-1.457-0.796-2.505c0-1.189,0.286-2.135,0.857-2.837
				c0.572-0.702,1.354-1.053,2.349-1.053c0.943,0,1.643,0.378,2.099,1.135h0.027v-0.971h1.121V75.201z M644.184,72.597v-1.032
				c0-0.556-0.188-1.032-0.564-1.429s-0.844-0.595-1.404-0.595c-0.693,0-1.235,0.252-1.627,0.755
				C640.195,70.8,640,71.505,640,72.412c0,0.779,0.188,1.402,0.563,1.87s0.874,0.701,1.494,0.701c0.629,0,1.141-0.223,1.534-0.67
				C643.986,73.866,644.184,73.294,644.184,72.597z"/>
			<path fill="#2F2F2F" d="M651.062,69.896c-0.195-0.15-0.479-0.226-0.848-0.226c-0.479,0-0.878,0.226-1.199,0.677
				s-0.482,1.066-0.482,1.846v3.568h-1.121v-7h1.121v1.442h0.027c0.16-0.492,0.403-0.876,0.731-1.152s0.695-0.414,1.101-0.414
				c0.292,0,0.516,0.032,0.67,0.096V69.896z"/>
			<path fill="#2F2F2F" d="M657.237,75.762h-1.121v-1.094h-0.027c-0.487,0.838-1.205,1.258-2.153,1.258
				c-0.697,0-1.243-0.185-1.637-0.554c-0.395-0.369-0.592-0.859-0.592-1.47c0-1.308,0.771-2.069,2.311-2.283l2.099-0.294
				c0-1.189-0.48-1.784-1.442-1.784c-0.843,0-1.604,0.287-2.283,0.861v-1.148c0.688-0.438,1.481-0.656,2.379-0.656
				c1.646,0,2.468,0.871,2.468,2.611V75.762z M656.116,72.221l-1.688,0.232c-0.52,0.073-0.911,0.202-1.176,0.386
				c-0.264,0.185-0.396,0.512-0.396,0.981c0,0.342,0.122,0.621,0.366,0.837c0.243,0.216,0.568,0.325,0.974,0.325
				c0.557,0,1.016-0.195,1.378-0.584s0.543-0.883,0.543-1.48V72.221z"/>
			<path fill="#2F2F2F" d="M662.496,75.693c-0.264,0.146-0.612,0.219-1.046,0.219c-1.226,0-1.839-0.684-1.839-2.051v-4.143h-1.203
				v-0.957h1.203v-1.709l1.121-0.362v2.071h1.764v0.957h-1.764v3.944c0,0.469,0.08,0.804,0.239,1.005
				c0.16,0.201,0.424,0.301,0.793,0.301c0.283,0,0.526-0.078,0.731-0.232V75.693z"/>
			<path fill="#2F2F2F" d="M664.451,66.984c-0.2,0-0.371-0.068-0.513-0.205c-0.141-0.137-0.212-0.31-0.212-0.52
				s0.071-0.384,0.212-0.523c0.142-0.139,0.312-0.208,0.513-0.208c0.205,0,0.38,0.069,0.523,0.208s0.215,0.313,0.215,0.523
				c0,0.201-0.071,0.372-0.215,0.513S664.656,66.984,664.451,66.984z M664.998,75.762h-1.121v-7h1.121V75.762z"/>
			<path fill="#2F2F2F" d="M670.093,75.926c-1.035,0-1.86-0.327-2.479-0.981c-0.617-0.654-0.926-1.521-0.926-2.601
				c0-1.176,0.321-2.094,0.964-2.755s1.511-0.991,2.604-0.991c1.043,0,1.858,0.321,2.443,0.964c0.586,0.643,0.879,1.534,0.879,2.673
				c0,1.117-0.315,2.011-0.947,2.683C672.001,75.59,671.154,75.926,670.093,75.926z M670.175,69.541
				c-0.721,0-1.29,0.245-1.709,0.735c-0.42,0.49-0.629,1.166-0.629,2.027c0,0.83,0.212,1.483,0.636,1.962s0.991,0.718,1.702,0.718
				c0.725,0,1.281-0.235,1.671-0.704s0.585-1.137,0.585-2.003c0-0.875-0.195-1.549-0.585-2.023S670.899,69.541,670.175,69.541z"/>
			<path fill="#2F2F2F" d="M681.105,75.762h-1.121V71.77c0-1.486-0.543-2.229-1.627-2.229c-0.561,0-1.024,0.211-1.392,0.632
				c-0.366,0.421-0.55,0.954-0.55,1.596v3.992h-1.121v-7h1.121v1.162h0.027c0.528-0.884,1.294-1.326,2.297-1.326
				c0.766,0,1.351,0.247,1.757,0.742c0.405,0.495,0.608,1.209,0.608,2.143V75.762z"/>
		</g>
	</g>
	<g>
		<g>
			<path fill="#2F2F2F" d="M386.601,169.564h-1.367l-1.641-2.748c-0.15-0.255-0.296-0.473-0.438-0.653s-0.286-0.327-0.434-0.441
				s-0.308-0.197-0.479-0.25s-0.363-0.079-0.578-0.079h-0.943v4.17h-1.148v-9.803h2.926c0.428,0,0.824,0.054,1.186,0.161
				s0.677,0.27,0.943,0.489s0.475,0.491,0.625,0.817s0.226,0.708,0.226,1.145c0,0.342-0.051,0.655-0.154,0.94
				s-0.249,0.539-0.438,0.762s-0.417,0.414-0.684,0.571s-0.566,0.279-0.899,0.366v0.027c0.164,0.073,0.307,0.156,0.427,0.25
				s0.236,0.204,0.345,0.332s0.218,0.272,0.325,0.434s0.227,0.35,0.359,0.564L386.601,169.564z M380.722,160.8v3.555h1.559
				c0.287,0,0.553-0.043,0.796-0.13s0.455-0.211,0.632-0.373s0.317-0.36,0.417-0.595s0.15-0.498,0.15-0.79
				c0-0.524-0.17-0.933-0.509-1.227s-0.831-0.441-1.473-0.441H380.722z"/>
			<path fill="#2F2F2F" d="M393.213,166.344h-4.942c0.018,0.779,0.228,1.381,0.629,1.805s0.953,0.636,1.654,0.636
				c0.789,0,1.513-0.26,2.174-0.779v1.053c-0.615,0.447-1.429,0.67-2.44,0.67c-0.989,0-1.766-0.318-2.331-0.954
				s-0.848-1.53-0.848-2.683c0-1.089,0.309-1.977,0.926-2.663s1.384-1.029,2.3-1.029s1.625,0.296,2.126,0.889
				s0.752,1.415,0.752,2.468V166.344z M392.065,165.394c-0.004-0.647-0.161-1.151-0.468-1.511s-0.735-0.54-1.282-0.54
				c-0.529,0-0.978,0.189-1.347,0.567s-0.597,0.873-0.684,1.483H392.065z"/>
			<path fill="#2F2F2F" d="M398.138,169.496c-0.264,0.146-0.613,0.219-1.046,0.219c-1.226,0-1.839-0.684-1.839-2.051v-4.143h-1.203
				v-0.957h1.203v-1.709l1.121-0.362v2.071h1.764v0.957h-1.764v3.944c0,0.469,0.08,0.804,0.239,1.005s0.424,0.301,0.793,0.301
				c0.283,0,0.526-0.078,0.731-0.232V169.496z"/>
			<path fill="#2F2F2F" d="M403.169,163.699c-0.196-0.15-0.479-0.226-0.848-0.226c-0.479,0-0.878,0.226-1.2,0.677
				s-0.482,1.066-0.482,1.846v3.568h-1.121v-7h1.121v1.442h0.027c0.16-0.492,0.403-0.876,0.731-1.152s0.695-0.414,1.101-0.414
				c0.292,0,0.515,0.032,0.67,0.096V163.699z"/>
			<path fill="#2F2F2F" d="M404.986,160.787c-0.201,0-0.372-0.068-0.513-0.205s-0.212-0.31-0.212-0.52s0.071-0.384,0.212-0.523
				s0.312-0.208,0.513-0.208c0.205,0,0.379,0.069,0.523,0.208s0.215,0.313,0.215,0.523c0,0.201-0.072,0.372-0.215,0.513
				S405.191,160.787,404.986,160.787z M405.533,169.564h-1.121v-7h1.121V169.564z"/>
			<path fill="#2F2F2F" d="M413.328,166.344h-4.942c0.018,0.779,0.228,1.381,0.629,1.805s0.953,0.636,1.654,0.636
				c0.789,0,1.513-0.26,2.174-0.779v1.053c-0.615,0.447-1.429,0.67-2.44,0.67c-0.989,0-1.766-0.318-2.331-0.954
				s-0.848-1.53-0.848-2.683c0-1.089,0.309-1.977,0.926-2.663s1.384-1.029,2.3-1.029s1.625,0.296,2.126,0.889
				s0.752,1.415,0.752,2.468V166.344z M412.18,165.394c-0.004-0.647-0.161-1.151-0.468-1.511s-0.735-0.54-1.282-0.54
				c-0.529,0-0.978,0.189-1.347,0.567s-0.597,0.873-0.684,1.483H412.18z"/>
			<path fill="#2F2F2F" d="M420.466,162.564l-2.789,7h-1.101l-2.652-7h1.23l1.777,5.086c0.132,0.374,0.214,0.7,0.246,0.978h0.027
				c0.045-0.351,0.119-0.667,0.219-0.95l1.859-5.113H420.466z"/>
			<path fill="#2F2F2F" d="M427.107,166.344h-4.942c0.018,0.779,0.228,1.381,0.629,1.805s0.953,0.636,1.654,0.636
				c0.789,0,1.513-0.26,2.174-0.779v1.053c-0.615,0.447-1.429,0.67-2.44,0.67c-0.989,0-1.766-0.318-2.331-0.954
				s-0.848-1.53-0.848-2.683c0-1.089,0.309-1.977,0.926-2.663s1.384-1.029,2.3-1.029s1.625,0.296,2.126,0.889
				s0.752,1.415,0.752,2.468V166.344z M425.959,165.394c-0.004-0.647-0.161-1.151-0.468-1.511s-0.735-0.54-1.282-0.54
				c-0.529,0-0.978,0.189-1.347,0.567s-0.597,0.873-0.684,1.483H425.959z"/>
			<path fill="#2F2F2F" d="M436.097,160.185c-0.219-0.123-0.467-0.185-0.745-0.185c-0.784,0-1.176,0.495-1.176,1.483v1.08h1.641
				v0.957h-1.641v6.043h-1.114v-6.043h-1.196v-0.957h1.196v-1.135c0-0.734,0.212-1.313,0.636-1.74s0.953-0.639,1.586-0.639
				c0.342,0,0.613,0.041,0.813,0.123V160.185z"/>
			<path fill="#2F2F2F" d="M437.85,160.787c-0.201,0-0.372-0.068-0.513-0.205s-0.212-0.31-0.212-0.52s0.071-0.384,0.212-0.523
				s0.312-0.208,0.513-0.208c0.205,0,0.379,0.069,0.523,0.208s0.215,0.313,0.215,0.523c0,0.201-0.072,0.372-0.215,0.513
				S438.055,160.787,437.85,160.787z M438.397,169.564h-1.121v-7h1.121V169.564z"/>
			<path fill="#2F2F2F" d="M441.645,169.564h-1.121v-10.363h1.121V169.564z"/>
			<path fill="#2F2F2F" d="M449.483,166.344h-4.942c0.018,0.779,0.228,1.381,0.629,1.805s0.953,0.636,1.654,0.636
				c0.789,0,1.513-0.26,2.174-0.779v1.053c-0.615,0.447-1.429,0.67-2.44,0.67c-0.989,0-1.766-0.318-2.331-0.954
				s-0.848-1.53-0.848-2.683c0-1.089,0.309-1.977,0.926-2.663s1.384-1.029,2.3-1.029s1.625,0.296,2.126,0.889
				s0.752,1.415,0.752,2.468V166.344z M448.334,165.394c-0.004-0.647-0.161-1.151-0.468-1.511s-0.735-0.54-1.282-0.54
				c-0.529,0-0.978,0.189-1.347,0.567s-0.597,0.873-0.684,1.483H448.334z"/>
		</g>
	</g>
	<g>
	</g>
	<g>
	</g>
	<g>
	</g>
	<g>
	</g>
	<g>
	</g>
	<g>
	</g>
	<g>
	</g>
	<g>
	</g>
	<g>
	</g>
	<g>
	</g>
	<g>
	</g>
	<g>
	</g>
	<g>
	</g>
	<g>
	</g>
	<g>
	</g>
	<g>
	</g>
	<g>
	</g>
	<g>
	</g>
	<g>
	</g>
	<g>
	</g>
	<g>
	</g>
	<g>
	</g>
	<g>
	</g>
	<g>
	</g>
	<g>
	</g>
	<g>
	</g>
	<g>
	</g>
	<g>
	</g>
	<g>
	</g>
	<g>
	</g>
	<g>
	</g>
	<g>
	</g>
	<g>
	</g>
	<g>
	</g>
	<g>
	</g>
	<g>
	</g>
	<g>
	</g>
</g>
</svg>
