<?xml version="1.0" encoding="utf-8"?>
<!-- Generator: Adobe Illustrator 23.0.4, SVG Export Plug-In . SVG Version: 6.00 Build 0)  -->
<svg version="1.1" id="Layer_1" xmlns="http://www.w3.org/2000/svg" xmlns:xlink="http://www.w3.org/1999/xlink" x="0px" y="0px"
	 viewBox="0 0 319 241" style="enable-background:new 0 0 319 241;" xml:space="preserve">
<style type="text/css">
	.st0{fill:none;}
	.st1{fill:#549FD7;}
	.st2{fill:#737374;}
	.st3{fill:#8BB83F;}
	.st4{fill:#DBE7F5;}
	.st5{fill:url(#SVGID_1_);}
	.st6{fill:url(#SVGID_2_);}
	.st7{fill:url(#SVGID_3_);}
	.st8{fill:url(#New_Pattern_Swatch_6);}
	.st9{fill:#FFFFFF;stroke:url(#New_Pattern_Swatch_5);stroke-width:0.7189;stroke-miterlimit:10;}
	.st10{fill:url(#SVGID_4_);}
	.st11{fill:url(#SVGID_5_);}
	.st12{fill:url(#SVGID_6_);}
	.st13{fill:url(#SVGID_7_);}
	.st14{fill:url(#SVGID_8_);}
	.st15{fill:url(#SVGID_9_);}
	.st16{fill:url(#SVGID_10_);}
	.st17{fill:url(#SVGID_11_);}
	.st18{fill:url(#SVGID_12_);}
	.st19{fill:url(#SVGID_13_);}
	.st20{fill:url(#SVGID_14_);}
	.st21{fill:url(#SVGID_15_);}
	.st22{fill:url(#SVGID_16_);}
	.st23{fill:url(#SVGID_17_);}
	.st24{fill:url(#SVGID_18_);}
	.st25{fill:#FFFFFF;stroke:url(#New_Pattern_Swatch_2);stroke-width:0.7189;stroke-miterlimit:10;}
	.st26{fill:url(#New_Pattern_Swatch_2);}
	.st27{fill:none;stroke:url(#New_Pattern_Swatch_7);stroke-width:3;stroke-miterlimit:10;}
	.st28{fill:#FFFFFF;}
	.st29{fill:#EDAD2C;}
</style>
<pattern  x="-161" y="706" width="4.5" height="4.4" patternUnits="userSpaceOnUse" id="New_Pattern_Swatch_2" viewBox="0 -4.4 4.5 4.4" style="overflow:visible;">
	<g>
		<rect y="-4.4" class="st0" width="4.5" height="4.4"/>
		<rect y="-4.4" class="st1" width="4.5" height="4.4"/>
	</g>
</pattern>
<pattern  x="-161" y="706" width="25.3" height="22.7" patternUnits="userSpaceOnUse" id="New_Pattern_Swatch_5" viewBox="0 -22.7 25.3 22.7" style="overflow:visible;">
	<g>
		<rect y="-22.7" class="st0" width="25.3" height="22.7"/>
		<rect x="0" y="-22.7" class="st2" width="25.3" height="22.7"/>
	</g>
</pattern>
<pattern  x="-161" y="706" width="5.7" height="5.1" patternUnits="userSpaceOnUse" id="New_Pattern_Swatch_6" viewBox="0 -5.1 5.7 5.1" style="overflow:visible;">
	<g>
		<rect y="-5.1" class="st0" width="5.7" height="5.1"/>
		<rect y="-5.1" class="st2" width="5.7" height="5.1"/>
	</g>
</pattern>
<pattern  x="-161" y="706" width="4.2" height="4.2" patternUnits="userSpaceOnUse" id="New_Pattern_Swatch_7" viewBox="0 -4.2 4.2 4.2" style="overflow:visible;">
	<g>
		<rect y="-4.2" class="st0" width="4.2" height="4.2"/>
		<rect y="-4.2" class="st3" width="4.2" height="4.2"/>
	</g>
</pattern>
<path class="st4" d="M146.1,194.2H65.3c-1.2,0-2.2-1.3-2.2-3v-120h85.2v120C148.3,192.8,147.3,194.2,146.1,194.2z"/>
<path class="st4" d="M263,194.2h-80.9c-1.2,0-2.2-1.3-2.2-3V72.3h85.2v118.8C265.2,192.8,264.2,194.2,263,194.2z"/>
<g>
	<g>
		<pattern  id="SVGID_1_" xlink:href="#New_Pattern_Swatch_5" patternTransform="matrix(1 0 0 1 -1 -22.3333)">
		</pattern>
		<circle class="st5" cx="116.7" cy="125.1" r="0.7"/>
		<pattern  id="SVGID_2_" xlink:href="#New_Pattern_Swatch_5" patternTransform="matrix(1 0 0 1 -1 -22.3333)">
		</pattern>
		<circle class="st6" cx="116.7" cy="131.9" r="0.7"/>
		<pattern  id="SVGID_3_" xlink:href="#New_Pattern_Swatch_5" patternTransform="matrix(1 0 0 1 -1 -22.3333)">
		</pattern>
		<circle class="st7" cx="116.7" cy="138.5" r="0.7"/>
	</g>
</g>
<g>
	<g>
		<path class="st8" d="M76.3,145.3c0.4,0,0.6,0.1,0.9,0.2c0.2,0.1,0.4,0.3,0.5,0.5c0.1,0.2,0.2,0.5,0.2,0.8c0,0.3,0.1,0.6,0.1,1
			c0,0.5,0,0.8-0.1,1.2s-0.1,0.6-0.3,0.8s-0.3,0.4-0.5,0.5s-0.5,0.2-0.9,0.2h-1.6v-5.1H76.3z M76.1,149.7c0.2,0,0.3,0,0.4-0.1
			c0.1-0.1,0.2-0.2,0.3-0.3c0.1-0.1,0.1-0.3,0.1-0.6s0-0.5,0-0.9c0-0.3,0-0.5,0-0.8c0-0.2-0.1-0.4-0.1-0.5s-0.1-0.3-0.3-0.3
			c-0.1-0.1-0.3-0.1-0.5-0.1h-0.4v3.6H76.1z"/>
		<path class="st8" d="M79.5,149c0,0.1,0,0.2,0,0.3c0,0.1,0,0.2,0.1,0.3c0,0.1,0.1,0.2,0.2,0.2c0.1,0,0.1,0.1,0.2,0.1
			c0.2,0,0.3-0.1,0.4-0.2s0.1-0.3,0.2-0.5h0.9c0,0.5-0.1,0.8-0.4,1c-0.2,0.2-0.6,0.4-1,0.4c-0.4,0-0.6-0.1-0.8-0.2
			c-0.2-0.1-0.4-0.3-0.4-0.5c-0.1-0.2-0.2-0.4-0.2-0.7s0-0.5,0-0.7c0-0.3,0-0.5,0.1-0.7c0-0.2,0.1-0.5,0.2-0.6
			c0.1-0.2,0.3-0.3,0.5-0.4c0.2-0.1,0.5-0.2,0.8-0.2c0.3,0,0.5,0,0.7,0.1c0.2,0.1,0.3,0.2,0.4,0.4s0.2,0.4,0.2,0.6
			c0,0.2,0.1,0.5,0.1,0.8v0.2h-2V149z M80.5,147.7c0-0.1,0-0.2-0.1-0.3c0-0.1-0.1-0.1-0.2-0.2c-0.1,0-0.1-0.1-0.2-0.1
			s-0.2,0-0.2,0.1c-0.1,0-0.1,0.1-0.2,0.2c0,0.1-0.1,0.2-0.1,0.2c0,0.1,0,0.2,0,0.3v0.2h1C80.6,147.9,80.5,147.8,80.5,147.7z"/>
		<path class="st8" d="M84.9,146.6l-1,3.9h-1.2l-1-3.9h1l0.6,2.8h0l0.5-2.8H84.9z"/>
		<path class="st8" d="M86.1,149c0,0.1,0,0.2,0,0.3c0,0.1,0,0.2,0.1,0.3c0,0.1,0.1,0.2,0.2,0.2c0.1,0,0.1,0.1,0.2,0.1
			c0.2,0,0.3-0.1,0.4-0.2s0.1-0.3,0.2-0.5H88c0,0.5-0.1,0.8-0.4,1c-0.2,0.2-0.6,0.4-1,0.4c-0.4,0-0.6-0.1-0.8-0.2
			c-0.2-0.1-0.4-0.3-0.4-0.5c-0.1-0.2-0.2-0.4-0.2-0.7s0-0.5,0-0.7c0-0.3,0-0.5,0.1-0.7c0-0.2,0.1-0.5,0.2-0.6
			c0.1-0.2,0.3-0.3,0.5-0.4c0.2-0.1,0.5-0.2,0.8-0.2c0.3,0,0.5,0,0.7,0.1c0.2,0.1,0.3,0.2,0.4,0.4s0.2,0.4,0.2,0.6
			c0,0.2,0.1,0.5,0.1,0.8v0.2h-2V149z M87.1,147.7c0-0.1,0-0.2-0.1-0.3c0-0.1-0.1-0.1-0.2-0.2c-0.1,0-0.1-0.1-0.2-0.1
			s-0.2,0-0.2,0.1c-0.1,0-0.1,0.1-0.2,0.2c0,0.1-0.1,0.2-0.1,0.2c0,0.1,0,0.2,0,0.3v0.2h1C87.1,147.9,87.1,147.8,87.1,147.7z"/>
		<path class="st8" d="M89.6,145.3v5.1h-1v-5.1H89.6z"/>
		<path class="st8" d="M90.2,147.6c0.1-0.3,0.1-0.5,0.3-0.6c0.1-0.2,0.3-0.3,0.5-0.4c0.2-0.1,0.4-0.1,0.7-0.1c0.3,0,0.5,0,0.7,0.1
			c0.2,0.1,0.4,0.2,0.5,0.4c0.1,0.2,0.2,0.4,0.2,0.6s0.1,0.6,0.1,0.9c0,0.3,0,0.6-0.1,0.9c-0.1,0.3-0.1,0.5-0.3,0.6
			c-0.1,0.2-0.3,0.3-0.5,0.4c-0.2,0.1-0.4,0.1-0.7,0.1c-0.3,0-0.5,0-0.7-0.1c-0.2-0.1-0.4-0.2-0.5-0.4s-0.2-0.4-0.2-0.6
			s-0.1-0.6-0.1-0.9C90.1,148.2,90.2,147.9,90.2,147.6z M91.1,149.1c0,0.2,0,0.3,0.1,0.4c0,0.1,0.1,0.2,0.2,0.3
			c0.1,0.1,0.2,0.1,0.3,0.1c0.2,0,0.3-0.1,0.4-0.3s0.1-0.6,0.1-1s0-0.8-0.1-1c-0.1-0.2-0.2-0.3-0.4-0.3c-0.1,0-0.2,0-0.3,0.1
			c-0.1,0.1-0.1,0.2-0.2,0.3c0,0.1-0.1,0.3-0.1,0.4c0,0.2,0,0.4,0,0.5S91.1,148.9,91.1,149.1z"/>
		<path class="st8" d="M94.7,146.6v0.4h0c0.1-0.2,0.2-0.3,0.4-0.4s0.3-0.1,0.5-0.1c0.4,0,0.7,0.2,0.9,0.5c0.2,0.3,0.3,0.8,0.3,1.6
			s-0.1,1.2-0.3,1.5c-0.2,0.3-0.5,0.5-0.9,0.5c-0.2,0-0.3,0-0.5-0.1s-0.3-0.2-0.4-0.3h0v1.6h-1v-5.1H94.7z M94.8,149.5
			c0.1,0.2,0.2,0.3,0.4,0.3c0.2,0,0.4-0.1,0.4-0.3c0.1-0.2,0.1-0.5,0.1-1s0-0.7-0.1-1c-0.1-0.2-0.2-0.3-0.4-0.3
			c-0.2,0-0.4,0.1-0.4,0.3c-0.1,0.2-0.1,0.5-0.1,1S94.7,149.2,94.8,149.5z"/>
		<path class="st8" d="M98.3,146.6v0.4h0c0.1-0.2,0.3-0.3,0.4-0.4c0.2-0.1,0.3-0.1,0.6-0.1c0.2,0,0.4,0.1,0.6,0.2s0.3,0.3,0.3,0.5h0
			c0.1-0.2,0.2-0.4,0.4-0.5c0.2-0.1,0.4-0.2,0.6-0.2c0.3,0,0.6,0.1,0.7,0.3c0.2,0.2,0.2,0.5,0.2,0.9v2.8h-1v-2.7
			c0-0.2,0-0.3-0.1-0.4c-0.1-0.1-0.2-0.1-0.3-0.1c-0.2,0-0.3,0.1-0.4,0.2c-0.1,0.1-0.1,0.3-0.1,0.5v2.5h-1v-2.7c0-0.2,0-0.3-0.1-0.4
			c-0.1-0.1-0.2-0.1-0.3-0.1c-0.2,0-0.3,0.1-0.4,0.2s-0.1,0.3-0.1,0.5v2.5h-1v-3.9H98.3z"/>
		<path class="st8" d="M103.6,149c0,0.1,0,0.2,0,0.3c0,0.1,0,0.2,0.1,0.3c0,0.1,0.1,0.2,0.2,0.2c0.1,0,0.1,0.1,0.2,0.1
			c0.2,0,0.3-0.1,0.4-0.2s0.1-0.3,0.2-0.5h0.9c0,0.5-0.1,0.8-0.4,1c-0.2,0.2-0.6,0.4-1,0.4c-0.4,0-0.6-0.1-0.8-0.2
			c-0.2-0.1-0.4-0.3-0.4-0.5c-0.1-0.2-0.2-0.4-0.2-0.7s0-0.5,0-0.7c0-0.3,0-0.5,0.1-0.7c0-0.2,0.1-0.5,0.2-0.6
			c0.1-0.2,0.3-0.3,0.5-0.4c0.2-0.1,0.5-0.2,0.8-0.2c0.3,0,0.5,0,0.7,0.1c0.2,0.1,0.3,0.2,0.4,0.4s0.2,0.4,0.2,0.6
			c0,0.2,0.1,0.5,0.1,0.8v0.2h-2V149z M104.6,147.7c0-0.1,0-0.2-0.1-0.3c0-0.1-0.1-0.1-0.2-0.2c-0.1,0-0.1-0.1-0.2-0.1
			s-0.2,0-0.2,0.1c-0.1,0-0.1,0.1-0.2,0.2c0,0.1-0.1,0.2-0.1,0.2c0,0.1,0,0.2,0,0.3v0.2h1C104.6,147.9,104.6,147.8,104.6,147.7z"/>
		<path class="st8" d="M107,146.6v0.5h0c0.1-0.2,0.2-0.3,0.4-0.4c0.2-0.1,0.4-0.1,0.6-0.1c0.3,0,0.6,0.1,0.7,0.3
			c0.2,0.2,0.3,0.5,0.3,0.8v2.9h-1v-2.7c0-0.2,0-0.3-0.1-0.4s-0.2-0.1-0.3-0.1c-0.4,0-0.5,0.2-0.5,0.6v2.6h-1v-3.9H107z"/>
		<path class="st8" d="M110.9,145.5v1.1h0.6v0.7h-0.6v2.1c0,0.2,0,0.3,0.1,0.3c0,0.1,0.1,0.1,0.3,0.1c0,0,0.1,0,0.1,0
			c0,0,0.1,0,0.1,0v0.7c-0.1,0-0.2,0-0.3,0s-0.2,0-0.3,0c-0.2,0-0.3,0-0.5,0s-0.2-0.1-0.3-0.2c-0.1-0.1-0.1-0.2-0.1-0.3
			c0-0.1,0-0.3,0-0.5v-2.2h-0.5v-0.7h0.5v-1.1H110.9z"/>
		<path class="st8" d="M115.4,147.7c0-0.1,0-0.2-0.1-0.2s-0.1-0.1-0.1-0.2c-0.1,0-0.1-0.1-0.2-0.1c-0.1,0-0.2,0-0.3,0.1
			c-0.1,0.1-0.1,0.1-0.2,0.2c0,0.1-0.1,0.2-0.1,0.4c0,0.2,0,0.4,0,0.6c0,0.2,0,0.4,0,0.6c0,0.2,0,0.3,0.1,0.4c0,0.1,0.1,0.2,0.2,0.2
			c0.1,0,0.2,0.1,0.3,0.1c0.2,0,0.3-0.1,0.4-0.2s0.1-0.4,0.1-0.7h0.9c0,0.5-0.1,0.9-0.3,1.2c-0.2,0.3-0.6,0.4-1.1,0.4
			c-0.2,0-0.5,0-0.7-0.1s-0.3-0.2-0.5-0.3c-0.1-0.2-0.2-0.4-0.3-0.6c-0.1-0.3-0.1-0.6-0.1-1c0-0.4,0-0.7,0.1-1
			c0.1-0.3,0.2-0.5,0.3-0.6c0.1-0.2,0.3-0.3,0.5-0.3c0.2-0.1,0.4-0.1,0.6-0.1c0.5,0,0.8,0.1,1,0.4c0.2,0.3,0.3,0.6,0.3,1.1h-0.9
			C115.4,147.9,115.4,147.8,115.4,147.7z"/>
		<path class="st8" d="M117.8,145.3v5.1h-1v-5.1H117.8z"/>
		<path class="st8" d="M120.4,150c-0.1,0.2-0.2,0.3-0.4,0.4c-0.2,0.1-0.4,0.1-0.6,0.1c-0.3,0-0.6-0.1-0.7-0.2
			c-0.2-0.2-0.3-0.4-0.3-0.8v-2.9h1v2.7c0,0.2,0,0.3,0.1,0.4c0.1,0.1,0.2,0.1,0.3,0.1c0.3,0,0.5-0.2,0.5-0.6v-2.6h1v3.9h-0.9
			L120.4,150L120.4,150z"/>
		<path class="st8" d="M122.8,149.3c0,0.2,0,0.3,0.1,0.4c0.1,0.1,0.2,0.2,0.4,0.2c0.2,0,0.3,0,0.4-0.1c0.1-0.1,0.1-0.2,0.1-0.3
			c0-0.1,0-0.2-0.1-0.3s-0.2-0.1-0.3-0.2l-0.7-0.3c-0.3-0.1-0.5-0.2-0.6-0.4c-0.1-0.2-0.2-0.4-0.2-0.7c0-0.2,0-0.3,0.1-0.4
			s0.1-0.3,0.3-0.4c0.1-0.1,0.3-0.2,0.4-0.3c0.2-0.1,0.4-0.1,0.7-0.1c0.5,0,0.8,0.1,1,0.3s0.3,0.5,0.3,0.8v0.2h-0.9
			c0-0.2,0-0.3-0.1-0.4c-0.1-0.1-0.2-0.1-0.3-0.1c-0.1,0-0.2,0-0.3,0.1c-0.1,0.1-0.1,0.2-0.1,0.3c0,0.1,0,0.2,0.1,0.3
			c0.1,0.1,0.2,0.1,0.3,0.2l0.6,0.2c0.3,0.1,0.5,0.2,0.7,0.4s0.2,0.4,0.2,0.7c0,0.2,0,0.4-0.1,0.5c-0.1,0.2-0.2,0.3-0.3,0.4
			s-0.3,0.2-0.5,0.2c-0.2,0-0.4,0.1-0.6,0.1c-0.3,0-0.5,0-0.7-0.1s-0.3-0.1-0.4-0.2s-0.2-0.2-0.2-0.4c0-0.2-0.1-0.3-0.1-0.5v-0.1
			h0.9V149.3z"/>
		<path class="st8" d="M126.4,145.5v1.1h0.6v0.7h-0.6v2.1c0,0.2,0,0.3,0.1,0.3c0,0.1,0.1,0.1,0.3,0.1c0,0,0.1,0,0.1,0
			c0,0,0.1,0,0.1,0v0.7c-0.1,0-0.2,0-0.3,0s-0.2,0-0.3,0c-0.2,0-0.3,0-0.5,0s-0.2-0.1-0.3-0.2c-0.1-0.1-0.1-0.2-0.1-0.3
			c0-0.1,0-0.3,0-0.5v-2.2H125v-0.7h0.5v-1.1H126.4z"/>
		<path class="st8" d="M128.2,149c0,0.1,0,0.2,0,0.3c0,0.1,0,0.2,0.1,0.3c0,0.1,0.1,0.2,0.2,0.2c0.1,0,0.1,0.1,0.2,0.1
			c0.2,0,0.3-0.1,0.4-0.2s0.1-0.3,0.2-0.5h0.9c0,0.5-0.1,0.8-0.4,1c-0.2,0.2-0.6,0.4-1,0.4c-0.4,0-0.6-0.1-0.8-0.2
			c-0.2-0.1-0.4-0.3-0.4-0.5c-0.1-0.2-0.2-0.4-0.2-0.7s0-0.5,0-0.7c0-0.3,0-0.5,0.1-0.7c0-0.2,0.1-0.5,0.2-0.6
			c0.1-0.2,0.3-0.3,0.5-0.4c0.2-0.1,0.5-0.2,0.8-0.2c0.3,0,0.5,0,0.7,0.1c0.2,0.1,0.3,0.2,0.4,0.4s0.2,0.4,0.2,0.6
			c0,0.2,0.1,0.5,0.1,0.8v0.2h-2V149z M129.2,147.7c0-0.1,0-0.2-0.1-0.3c0-0.1-0.1-0.1-0.2-0.2c-0.1,0-0.1-0.1-0.2-0.1
			s-0.2,0-0.2,0.1c-0.1,0-0.1,0.1-0.2,0.2c0,0.1-0.1,0.2-0.1,0.2c0,0.1,0,0.2,0,0.3v0.2h1C129.2,147.9,129.2,147.8,129.2,147.7z"/>
		<path class="st8" d="M131.6,146.6v0.5h0c0.1-0.2,0.2-0.3,0.4-0.4c0.1-0.1,0.3-0.2,0.5-0.2c0,0,0.1,0,0.1,0c0,0,0.1,0,0.1,0v0.9
			c-0.1,0-0.1,0-0.2,0c-0.1,0-0.1,0-0.2,0c-0.1,0-0.2,0-0.3,0c-0.1,0-0.2,0.1-0.2,0.1c-0.1,0.1-0.1,0.1-0.2,0.2
			c0,0.1-0.1,0.2-0.1,0.3v2.3h-1v-3.9H131.6z"/>
		<path class="st8" d="M133.8,149.3c0,0.2,0,0.3,0.1,0.4c0.1,0.1,0.2,0.2,0.4,0.2c0.2,0,0.3,0,0.4-0.1c0.1-0.1,0.1-0.2,0.1-0.3
			c0-0.1,0-0.2-0.1-0.3s-0.2-0.1-0.3-0.2l-0.7-0.3c-0.3-0.1-0.5-0.2-0.6-0.4c-0.1-0.2-0.2-0.4-0.2-0.7c0-0.2,0-0.3,0.1-0.4
			s0.1-0.3,0.3-0.4c0.1-0.1,0.3-0.2,0.4-0.3c0.2-0.1,0.4-0.1,0.7-0.1c0.5,0,0.8,0.1,1,0.3s0.3,0.5,0.3,0.8v0.2h-0.9
			c0-0.2,0-0.3-0.1-0.4c-0.1-0.1-0.2-0.1-0.3-0.1c-0.1,0-0.2,0-0.3,0.1c-0.1,0.1-0.1,0.2-0.1,0.3c0,0.1,0,0.2,0.1,0.3
			c0.1,0.1,0.2,0.1,0.3,0.2l0.6,0.2c0.3,0.1,0.5,0.2,0.7,0.4s0.2,0.4,0.2,0.7c0,0.2,0,0.4-0.1,0.5c-0.1,0.2-0.2,0.3-0.3,0.4
			s-0.3,0.2-0.5,0.2c-0.2,0-0.4,0.1-0.6,0.1c-0.3,0-0.5,0-0.7-0.1s-0.3-0.1-0.4-0.2s-0.2-0.2-0.2-0.4c0-0.2-0.1-0.3-0.1-0.5v-0.1
			h0.9V149.3z"/>
		<path class="st8" d="M77.7,154c-0.1,0.2-0.2,0.4-0.2,0.6c-0.1,0.2-0.1,0.4-0.1,0.7c0,0.2,0,0.5,0,0.7s0,0.5,0,0.7
			c0,0.2,0.1,0.4,0.1,0.7c0.1,0.2,0.1,0.4,0.2,0.6s0.2,0.4,0.3,0.7h-0.6c-0.3-0.5-0.5-0.9-0.6-1.4c-0.1-0.4-0.2-0.9-0.2-1.3
			s0.1-0.9,0.2-1.3c0.1-0.4,0.3-0.9,0.6-1.4H78C77.9,153.6,77.8,153.8,77.7,154z"/>
		<path class="st8" d="M80.2,154.4c0-0.1,0-0.2-0.1-0.2c0-0.1-0.1-0.1-0.2-0.2s-0.1-0.1-0.2-0.1c-0.2,0-0.4,0.1-0.5,0.3
			c-0.1,0.2-0.1,0.6-0.1,1.2c0,0.3,0,0.5,0,0.7s0,0.4,0.1,0.5c0,0.1,0.1,0.3,0.2,0.3s0.2,0.1,0.3,0.1c0.1,0,0.1,0,0.2,0
			c0.1,0,0.1-0.1,0.2-0.1c0.1-0.1,0.1-0.1,0.1-0.2c0-0.1,0.1-0.2,0.1-0.3V156h-0.6v-0.6h1.4v2.3h-0.6v-0.4h0
			c-0.1,0.2-0.2,0.3-0.4,0.4s-0.3,0.1-0.5,0.1c-0.3,0-0.5,0-0.6-0.1s-0.3-0.2-0.4-0.4c-0.1-0.2-0.2-0.4-0.2-0.7c0-0.3,0-0.6,0-1
			c0-0.4,0-0.7,0.1-0.9c0-0.3,0.1-0.5,0.2-0.7c0.1-0.2,0.3-0.3,0.4-0.4c0.2-0.1,0.4-0.1,0.7-0.1c0.5,0,0.8,0.1,1,0.4
			c0.2,0.2,0.3,0.6,0.3,1h-0.8C80.2,154.5,80.2,154.5,80.2,154.4z"/>
		<path class="st8" d="M82.3,156.4c0,0.1,0,0.2,0,0.3s0,0.2,0.1,0.2c0,0.1,0.1,0.1,0.1,0.2c0.1,0,0.1,0.1,0.2,0.1
			c0.1,0,0.2,0,0.3-0.1c0.1-0.1,0.1-0.3,0.1-0.5h0.7c0,0.4-0.1,0.7-0.3,0.9c-0.2,0.2-0.5,0.3-0.9,0.3c-0.3,0-0.5-0.1-0.7-0.2
			s-0.3-0.2-0.4-0.4c-0.1-0.2-0.1-0.3-0.1-0.6s0-0.4,0-0.6c0-0.2,0-0.4,0-0.6c0-0.2,0.1-0.4,0.2-0.5c0.1-0.2,0.2-0.3,0.4-0.4
			s0.4-0.1,0.7-0.1c0.2,0,0.4,0,0.6,0.1c0.2,0.1,0.3,0.2,0.4,0.3c0.1,0.1,0.1,0.3,0.2,0.5c0,0.2,0,0.4,0,0.7v0.2h-1.6V156.4z
			 M83.1,155.3c0-0.1,0-0.2-0.1-0.2c0-0.1-0.1-0.1-0.1-0.2c-0.1,0-0.1-0.1-0.2-0.1s-0.2,0-0.2,0.1c-0.1,0-0.1,0.1-0.1,0.2
			c0,0.1-0.1,0.1-0.1,0.2s0,0.2,0,0.2v0.1h0.8C83.2,155.5,83.2,155.4,83.1,155.3z"/>
		<path class="st8" d="M85.2,154.4v0.4h0c0.1-0.2,0.2-0.3,0.3-0.4s0.3-0.1,0.5-0.1c0.3,0,0.5,0.1,0.6,0.2c0.1,0.1,0.2,0.4,0.2,0.7
			v2.4H86v-2.2c0-0.2,0-0.3-0.1-0.4c-0.1-0.1-0.1-0.1-0.3-0.1c-0.3,0-0.4,0.2-0.4,0.5v2.1h-0.8v-3.2H85.2z"/>
		<path class="st8" d="M88.1,156.4c0,0.1,0,0.2,0,0.3s0,0.2,0.1,0.2c0,0.1,0.1,0.1,0.1,0.2c0.1,0,0.1,0.1,0.2,0.1
			c0.1,0,0.2,0,0.3-0.1c0.1-0.1,0.1-0.3,0.1-0.5h0.7c0,0.4-0.1,0.7-0.3,0.9c-0.2,0.2-0.5,0.3-0.9,0.3c-0.3,0-0.5-0.1-0.7-0.2
			s-0.3-0.2-0.4-0.4c-0.1-0.2-0.1-0.3-0.1-0.6s0-0.4,0-0.6c0-0.2,0-0.4,0-0.6c0-0.2,0.1-0.4,0.2-0.5c0.1-0.2,0.2-0.3,0.4-0.4
			s0.4-0.1,0.7-0.1c0.2,0,0.4,0,0.6,0.1c0.2,0.1,0.3,0.2,0.4,0.3c0.1,0.1,0.1,0.3,0.2,0.5c0,0.2,0,0.4,0,0.7v0.2h-1.6V156.4z
			 M88.9,155.3c0-0.1,0-0.2-0.1-0.2c0-0.1-0.1-0.1-0.1-0.2c-0.1,0-0.1-0.1-0.2-0.1s-0.2,0-0.2,0.1c-0.1,0-0.1,0.1-0.1,0.2
			c0,0.1-0.1,0.1-0.1,0.2s0,0.2,0,0.2v0.1h0.8C88.9,155.5,88.9,155.4,88.9,155.3z"/>
		<path class="st8" d="M91,154.4v0.4h0c0.1-0.2,0.2-0.3,0.3-0.4c0.1-0.1,0.3-0.1,0.4-0.1c0,0,0,0,0.1,0s0.1,0,0.1,0v0.8
			c0,0-0.1,0-0.1,0s-0.1,0-0.1,0c-0.1,0-0.1,0-0.2,0c-0.1,0-0.1,0.1-0.2,0.1c-0.1,0-0.1,0.1-0.1,0.2c0,0.1-0.1,0.2-0.1,0.3v1.9h-0.8
			v-3.2H91z"/>
		<path class="st8" d="M92.2,155.3c0-0.2,0-0.3,0.1-0.5s0.1-0.2,0.2-0.3s0.2-0.1,0.4-0.2c0.1,0,0.3-0.1,0.4-0.1c0.2,0,0.4,0,0.6,0.1
			s0.3,0.1,0.4,0.2s0.1,0.2,0.2,0.3c0,0.1,0,0.3,0,0.4v1.7c0,0.2,0,0.3,0,0.4c0,0.1,0,0.2,0.1,0.3h-0.8c0-0.1,0-0.1-0.1-0.2
			c0-0.1,0-0.1,0-0.2h0c-0.1,0.2-0.2,0.3-0.3,0.3s-0.3,0.1-0.5,0.1c-0.1,0-0.3,0-0.4-0.1s-0.2-0.1-0.2-0.2c-0.1-0.1-0.1-0.2-0.1-0.3
			c0-0.1,0-0.2,0-0.3c0-0.2,0-0.3,0-0.4c0-0.1,0.1-0.2,0.1-0.3c0.1-0.1,0.2-0.1,0.3-0.2c0.1-0.1,0.2-0.1,0.4-0.1l0.5-0.1
			c0.1,0,0.2-0.1,0.3-0.1c0-0.1,0.1-0.1,0.1-0.2c0-0.1,0-0.2-0.1-0.3c-0.1-0.1-0.2-0.1-0.3-0.1c-0.1,0-0.2,0-0.3,0.1
			s-0.1,0.2-0.1,0.3v0.1L92.2,155.3L92.2,155.3z M93.5,156.1c-0.1,0-0.1,0-0.2,0.1c-0.2,0-0.3,0.1-0.4,0.2c-0.1,0.1-0.1,0.2-0.1,0.3
			c0,0.1,0,0.2,0.1,0.3c0,0.1,0.1,0.1,0.2,0.1c0.1,0,0.1,0,0.2,0c0.1,0,0.1,0,0.2-0.1c0.1,0,0.1-0.1,0.1-0.2c0-0.1,0-0.1,0-0.2V156
			C93.6,156.1,93.6,156.1,93.5,156.1z"/>
		<path class="st8" d="M95.9,153.4v4.3h-0.8v-4.3H95.9z"/>
		<path class="st8" d="M98.2,156.3h-1.7v-0.7h1.7V156.3z"/>
		<path class="st8" d="M99.5,154.4v0.3h0c0.1-0.2,0.2-0.3,0.3-0.3c0.1-0.1,0.3-0.1,0.4-0.1c0.3,0,0.6,0.1,0.8,0.4
			c0.2,0.3,0.2,0.7,0.2,1.3c0,0.6-0.1,1-0.2,1.3c-0.2,0.3-0.4,0.4-0.8,0.4c-0.2,0-0.3,0-0.4-0.1c-0.1-0.1-0.2-0.2-0.3-0.3h0v1.3
			h-0.8v-4.3H99.5z M99.6,156.8c0.1,0.2,0.2,0.3,0.4,0.3c0.2,0,0.3-0.1,0.4-0.3c0.1-0.2,0.1-0.4,0.1-0.8c0-0.4,0-0.6-0.1-0.8
			c-0.1-0.2-0.2-0.3-0.4-0.3c-0.2,0-0.3,0.1-0.4,0.3c-0.1,0.2-0.1,0.4-0.1,0.8C99.5,156.4,99.6,156.6,99.6,156.8z"/>
		<path class="st8" d="M103.4,157.3c-0.1,0.2-0.2,0.3-0.3,0.3c-0.1,0.1-0.3,0.1-0.5,0.1c-0.3,0-0.5-0.1-0.6-0.2
			c-0.1-0.1-0.2-0.4-0.2-0.7v-2.4h0.8v2.2c0,0.2,0,0.3,0.1,0.4c0.1,0.1,0.1,0.1,0.3,0.1c0.3,0,0.4-0.2,0.4-0.5v-2.1h0.8v3.2h-0.8
			L103.4,157.3L103.4,157.3z"/>
		<path class="st8" d="M105.5,154.4v0.4h0c0.1-0.2,0.2-0.3,0.3-0.4c0.1-0.1,0.3-0.1,0.4-0.1c0,0,0,0,0.1,0s0.1,0,0.1,0v0.8
			c0,0-0.1,0-0.1,0s-0.1,0-0.1,0c-0.1,0-0.1,0-0.2,0c-0.1,0-0.1,0.1-0.2,0.1c-0.1,0-0.1,0.1-0.1,0.2c0,0.1-0.1,0.2-0.1,0.3v1.9h-0.8
			v-3.2H105.5z"/>
		<path class="st8" d="M107.5,154.4v0.3h0c0.1-0.2,0.2-0.3,0.3-0.3c0.1-0.1,0.3-0.1,0.4-0.1c0.3,0,0.6,0.1,0.8,0.4
			c0.2,0.3,0.2,0.7,0.2,1.3c0,0.6-0.1,1-0.2,1.3c-0.2,0.3-0.4,0.4-0.8,0.4c-0.2,0-0.3,0-0.4-0.1c-0.1-0.1-0.2-0.2-0.3-0.3h0v1.3
			h-0.8v-4.3H107.5z M107.6,156.8c0.1,0.2,0.2,0.3,0.4,0.3c0.2,0,0.3-0.1,0.4-0.3c0.1-0.2,0.1-0.4,0.1-0.8c0-0.4,0-0.6-0.1-0.8
			c-0.1-0.2-0.2-0.3-0.4-0.3c-0.2,0-0.3,0.1-0.4,0.3c-0.1,0.2-0.1,0.4-0.1,0.8C107.5,156.4,107.6,156.6,107.6,156.8z"/>
		<path class="st8" d="M109.7,155.3c0-0.2,0.1-0.4,0.2-0.5c0.1-0.1,0.2-0.2,0.4-0.3c0.2-0.1,0.4-0.1,0.6-0.1c0.2,0,0.5,0,0.6,0.1
			s0.3,0.2,0.4,0.3c0.1,0.1,0.2,0.3,0.2,0.5c0,0.2,0.1,0.5,0.1,0.7c0,0.3,0,0.5-0.1,0.7s-0.1,0.4-0.2,0.5c-0.1,0.1-0.2,0.2-0.4,0.3
			c-0.2,0.1-0.4,0.1-0.6,0.1c-0.2,0-0.5,0-0.6-0.1c-0.2-0.1-0.3-0.2-0.4-0.3c-0.1-0.1-0.2-0.3-0.2-0.5s-0.1-0.5-0.1-0.7
			C109.6,155.7,109.6,155.5,109.7,155.3z M110.4,156.5c0,0.1,0,0.3,0.1,0.4c0,0.1,0.1,0.2,0.1,0.2c0.1,0.1,0.1,0.1,0.2,0.1
			c0.2,0,0.3-0.1,0.3-0.3s0.1-0.5,0.1-0.9c0-0.4,0-0.7-0.1-0.9c-0.1-0.2-0.2-0.3-0.3-0.3c-0.1,0-0.2,0-0.2,0.1
			c-0.1,0.1-0.1,0.1-0.1,0.2c0,0.1,0,0.2-0.1,0.4c0,0.1,0,0.3,0,0.5S110.4,156.3,110.4,156.5z"/>
		<path class="st8" d="M113.2,156.7c0,0.1,0,0.3,0.1,0.3c0.1,0.1,0.2,0.1,0.3,0.1c0.1,0,0.2,0,0.3-0.1c0.1-0.1,0.1-0.2,0.1-0.3
			c0-0.1,0-0.2-0.1-0.2c-0.1-0.1-0.1-0.1-0.2-0.1l-0.6-0.2c-0.2-0.1-0.4-0.2-0.5-0.3c-0.1-0.1-0.2-0.3-0.2-0.6c0-0.1,0-0.3,0.1-0.4
			s0.1-0.2,0.2-0.3c0.1-0.1,0.2-0.2,0.4-0.2c0.1-0.1,0.3-0.1,0.5-0.1c0.4,0,0.7,0.1,0.8,0.2c0.2,0.2,0.3,0.4,0.3,0.7v0.1H114
			c0-0.2,0-0.3-0.1-0.4c-0.1-0.1-0.1-0.1-0.3-0.1c-0.1,0-0.2,0-0.3,0.1c-0.1,0.1-0.1,0.1-0.1,0.3c0,0.1,0,0.2,0.1,0.2
			c0.1,0.1,0.1,0.1,0.3,0.2l0.5,0.2c0.3,0.1,0.4,0.2,0.6,0.3c0.1,0.1,0.2,0.3,0.2,0.6c0,0.2,0,0.3-0.1,0.4s-0.1,0.2-0.2,0.3
			s-0.2,0.1-0.4,0.2s-0.3,0.1-0.5,0.1c-0.2,0-0.4,0-0.6-0.1c-0.2,0-0.3-0.1-0.4-0.2c-0.1-0.1-0.2-0.2-0.2-0.3s-0.1-0.3-0.1-0.4v-0.1
			h0.7V156.7z"/>
		<path class="st8" d="M116,156.4c0,0.1,0,0.2,0,0.3s0,0.2,0.1,0.2c0,0.1,0.1,0.1,0.1,0.2c0.1,0,0.1,0.1,0.2,0.1
			c0.1,0,0.2,0,0.3-0.1c0.1-0.1,0.1-0.3,0.1-0.5h0.7c0,0.4-0.1,0.7-0.3,0.9c-0.2,0.2-0.5,0.3-0.9,0.3c-0.3,0-0.5-0.1-0.7-0.2
			s-0.3-0.2-0.4-0.4c-0.1-0.2-0.1-0.3-0.1-0.6s0-0.4,0-0.6c0-0.2,0-0.4,0-0.6c0-0.2,0.1-0.4,0.2-0.5c0.1-0.2,0.2-0.3,0.4-0.4
			s0.4-0.1,0.7-0.1c0.2,0,0.4,0,0.6,0.1c0.2,0.1,0.3,0.2,0.4,0.3c0.1,0.1,0.1,0.3,0.2,0.5c0,0.2,0,0.4,0,0.7v0.2H116V156.4z
			 M116.8,155.3c0-0.1,0-0.2-0.1-0.2c0-0.1-0.1-0.1-0.1-0.2c-0.1,0-0.1-0.1-0.2-0.1s-0.2,0-0.2,0.1c-0.1,0-0.1,0.1-0.1,0.2
			c0,0.1-0.1,0.1-0.1,0.2s0,0.2,0,0.2v0.1h0.8C116.8,155.5,116.8,155.4,116.8,155.3z"/>
		<path class="st8" d="M120.3,153.4v1.4h0c0.2-0.3,0.4-0.4,0.8-0.4c0.3,0,0.5,0.1,0.6,0.2c0.1,0.1,0.2,0.4,0.2,0.7v2.4h-0.8v-2.2
			c0-0.2,0-0.3-0.1-0.4c-0.1-0.1-0.1-0.1-0.3-0.1c-0.3,0-0.4,0.2-0.4,0.5v2.1h-0.8v-4.3H120.3z"/>
		<path class="st8" d="M122.4,155.3c0-0.2,0.1-0.4,0.2-0.5c0.1-0.1,0.2-0.2,0.4-0.3c0.2-0.1,0.4-0.1,0.6-0.1c0.2,0,0.5,0,0.6,0.1
			s0.3,0.2,0.4,0.3c0.1,0.1,0.2,0.3,0.2,0.5c0,0.2,0.1,0.5,0.1,0.7c0,0.3,0,0.5-0.1,0.7s-0.1,0.4-0.2,0.5c-0.1,0.1-0.2,0.2-0.4,0.3
			c-0.2,0.1-0.4,0.1-0.6,0.1c-0.2,0-0.5,0-0.6-0.1c-0.2-0.1-0.3-0.2-0.4-0.3c-0.1-0.1-0.2-0.3-0.2-0.5s-0.1-0.5-0.1-0.7
			C122.4,155.7,122.4,155.5,122.4,155.3z M123.2,156.5c0,0.1,0,0.3,0.1,0.4c0,0.1,0.1,0.2,0.1,0.2c0.1,0.1,0.1,0.1,0.2,0.1
			c0.2,0,0.3-0.1,0.3-0.3s0.1-0.5,0.1-0.9c0-0.4,0-0.7-0.1-0.9c-0.1-0.2-0.2-0.3-0.3-0.3c-0.1,0-0.2,0-0.2,0.1
			c-0.1,0.1-0.1,0.1-0.1,0.2c0,0.1,0,0.2-0.1,0.4c0,0.1,0,0.3,0,0.5S123.2,156.3,123.2,156.5z"/>
		<path class="st8" d="M126,156.7c0,0.1,0,0.3,0.1,0.3c0.1,0.1,0.2,0.1,0.3,0.1c0.1,0,0.2,0,0.3-0.1c0.1-0.1,0.1-0.2,0.1-0.3
			c0-0.1,0-0.2-0.1-0.2c-0.1-0.1-0.1-0.1-0.2-0.1l-0.6-0.2c-0.2-0.1-0.4-0.2-0.5-0.3c-0.1-0.1-0.2-0.3-0.2-0.6c0-0.1,0-0.3,0.1-0.4
			s0.1-0.2,0.2-0.3c0.1-0.1,0.2-0.2,0.4-0.2c0.1-0.1,0.3-0.1,0.5-0.1c0.4,0,0.7,0.1,0.8,0.2c0.2,0.2,0.3,0.4,0.3,0.7v0.1h-0.7
			c0-0.2,0-0.3-0.1-0.4c-0.1-0.1-0.1-0.1-0.3-0.1c-0.1,0-0.2,0-0.3,0.1c-0.1,0.1-0.1,0.1-0.1,0.3c0,0.1,0,0.2,0.1,0.2
			c0.1,0.1,0.1,0.1,0.3,0.2l0.5,0.2c0.3,0.1,0.4,0.2,0.6,0.3c0.1,0.1,0.2,0.3,0.2,0.6c0,0.2,0,0.3-0.1,0.4s-0.1,0.2-0.2,0.3
			s-0.2,0.1-0.4,0.2s-0.3,0.1-0.5,0.1c-0.2,0-0.4,0-0.6-0.1c-0.2,0-0.3-0.1-0.4-0.2c-0.1-0.1-0.2-0.2-0.2-0.3s-0.1-0.3-0.1-0.4v-0.1
			h0.7V156.7z"/>
		<path class="st8" d="M129,153.5v0.9h0.5v0.6H129v1.7c0,0.1,0,0.2,0.1,0.3c0,0.1,0.1,0.1,0.2,0.1c0,0,0.1,0,0.1,0c0,0,0.1,0,0.1,0
			v0.6c-0.1,0-0.2,0-0.3,0s-0.2,0-0.3,0c-0.2,0-0.3,0-0.4,0c-0.1,0-0.2-0.1-0.2-0.1c-0.1-0.1-0.1-0.2-0.1-0.3c0-0.1,0-0.2,0-0.4V155
			h-0.4v-0.6h0.4v-0.9H129z"/>
		<path class="st8" d="M130.4,156.7c0,0.1,0,0.3,0.1,0.3c0.1,0.1,0.2,0.1,0.3,0.1c0.1,0,0.2,0,0.3-0.1c0.1-0.1,0.1-0.2,0.1-0.3
			c0-0.1,0-0.2-0.1-0.2c-0.1-0.1-0.1-0.1-0.2-0.1l-0.6-0.2c-0.2-0.1-0.4-0.2-0.5-0.3c-0.1-0.1-0.2-0.3-0.2-0.6c0-0.1,0-0.3,0.1-0.4
			s0.1-0.2,0.2-0.3c0.1-0.1,0.2-0.2,0.4-0.2c0.1-0.1,0.3-0.1,0.5-0.1c0.4,0,0.7,0.1,0.8,0.2c0.2,0.2,0.3,0.4,0.3,0.7v0.1h-0.7
			c0-0.2,0-0.3-0.1-0.4c-0.1-0.1-0.1-0.1-0.3-0.1c-0.1,0-0.2,0-0.3,0.1c-0.1,0.1-0.1,0.1-0.1,0.3c0,0.1,0,0.2,0.1,0.2
			c0.1,0.1,0.1,0.1,0.3,0.2l0.5,0.2c0.3,0.1,0.4,0.2,0.6,0.3c0.1,0.1,0.2,0.3,0.2,0.6c0,0.2,0,0.3-0.1,0.4s-0.1,0.2-0.2,0.3
			s-0.2,0.1-0.4,0.2s-0.3,0.1-0.5,0.1c-0.2,0-0.4,0-0.6-0.1c-0.2,0-0.3-0.1-0.4-0.2c-0.1-0.1-0.2-0.2-0.2-0.3s-0.1-0.3-0.1-0.4v-0.1
			h0.7V156.7z"/>
		<path class="st8" d="M133.5,154.7c0.1,0.5,0.2,0.9,0.2,1.3s-0.1,0.9-0.2,1.3c-0.1,0.4-0.3,0.9-0.6,1.4h-0.6
			c0.1-0.2,0.2-0.4,0.3-0.7s0.2-0.4,0.2-0.6c0.1-0.2,0.1-0.4,0.1-0.7c0-0.2,0-0.5,0-0.7s0-0.5,0-0.7c0-0.2-0.1-0.4-0.1-0.7
			c-0.1-0.2-0.1-0.4-0.2-0.6s-0.2-0.4-0.3-0.7h0.6C133.1,153.8,133.3,154.3,133.5,154.7z"/>
	</g>
</g>
<g>
	<g>
		<path class="st9" d="M133.7,128.4h-19.9c-1.1,0-2.1-0.9-2.1-2.1v-2.5c0-1.1,0.9-2.1,2.1-2.1h19.9c1.1,0,2.1,0.9,2.1,2.1v2.5
			C135.7,127.5,134.8,128.4,133.7,128.4z"/>
		<path class="st9" d="M133.7,135.2h-19.9c-1.1,0-2.1-0.9-2.1-2.1v-2.5c0-1.1,0.9-2.1,2.1-2.1h19.9c1.1,0,2.1,0.9,2.1,2.1v2.5
			C135.7,134.2,134.8,135.2,133.7,135.2z"/>
		<path class="st9" d="M133.7,141.8h-19.9c-1.1,0-2.1-0.9-2.1-2.1v-2.5c0-1.1,0.9-2.1,2.1-2.1h19.9c1.1,0,2.1,0.9,2.1,2.1v2.5
			C135.7,140.9,134.8,141.8,133.7,141.8z"/>
		<pattern  id="SVGID_4_" xlink:href="#New_Pattern_Swatch_5" patternTransform="matrix(1 0 0 1 -1 -22.3333)">
		</pattern>
		<rect x="114.7" y="124.5" class="st10" width="14.6" height="1.2"/>
		<pattern  id="SVGID_5_" xlink:href="#New_Pattern_Swatch_5" patternTransform="matrix(1 0 0 1 -1 -22.3333)">
		</pattern>
		<rect x="114.7" y="131.2" class="st11" width="14.6" height="1.2"/>
		<pattern  id="SVGID_6_" xlink:href="#New_Pattern_Swatch_5" patternTransform="matrix(1 0 0 1 -1 -22.3333)">
		</pattern>
		<rect x="114.7" y="137.8" class="st12" width="14.6" height="1.2"/>
		<pattern  id="SVGID_7_" xlink:href="#New_Pattern_Swatch_5" patternTransform="matrix(1 0 0 1 -1 -22.3333)">
		</pattern>
		<circle class="st13" cx="132.5" cy="125.1" r="0.7"/>
		<pattern  id="SVGID_8_" xlink:href="#New_Pattern_Swatch_5" patternTransform="matrix(1 0 0 1 -1 -22.3333)">
		</pattern>
		<circle class="st14" cx="132.5" cy="131.9" r="0.7"/>
		<pattern  id="SVGID_9_" xlink:href="#New_Pattern_Swatch_5" patternTransform="matrix(1 0 0 1 -1 -22.3333)">
		</pattern>
		<circle class="st15" cx="132.5" cy="138.5" r="0.7"/>
	</g>
</g>
<g>
	<g>
		<pattern  id="SVGID_10_" xlink:href="#New_Pattern_Swatch_5" patternTransform="matrix(1 0 0 1 -1 -22.3333)">
		</pattern>
		<circle class="st16" cx="79.9" cy="125.1" r="0.7"/>
		<pattern  id="SVGID_11_" xlink:href="#New_Pattern_Swatch_5" patternTransform="matrix(1 0 0 1 -1 -22.3333)">
		</pattern>
		<circle class="st17" cx="79.9" cy="131.9" r="0.7"/>
		<pattern  id="SVGID_12_" xlink:href="#New_Pattern_Swatch_5" patternTransform="matrix(1 0 0 1 -1 -22.3333)">
		</pattern>
		<circle class="st18" cx="79.9" cy="138.5" r="0.7"/>
	</g>
</g>
<g>
	<g>
		<path class="st9" d="M96.9,128.4H77c-1.1,0-2.1-0.9-2.1-2.1v-2.5c0-1.1,0.9-2.1,2.1-2.1h19.9c1.1,0,2.1,0.9,2.1,2.1v2.5
			C99,127.5,98,128.4,96.9,128.4z"/>
		<path class="st9" d="M96.9,135.2H77c-1.1,0-2.1-0.9-2.1-2.1v-2.5c0-1.1,0.9-2.1,2.1-2.1h19.9c1.1,0,2.1,0.9,2.1,2.1v2.5
			C99,134.2,98,135.2,96.9,135.2z"/>
		<path class="st9" d="M96.9,141.8H77c-1.1,0-2.1-0.9-2.1-2.1v-2.5c0-1.1,0.9-2.1,2.1-2.1h19.9c1.1,0,2.1,0.9,2.1,2.1v2.5
			C99,140.9,98,141.8,96.9,141.8z"/>
		<pattern  id="SVGID_13_" xlink:href="#New_Pattern_Swatch_5" patternTransform="matrix(1 0 0 1 -1 -22.3333)">
		</pattern>
		<rect x="77.9" y="124.5" class="st19" width="14.6" height="1.2"/>
		<pattern  id="SVGID_14_" xlink:href="#New_Pattern_Swatch_5" patternTransform="matrix(1 0 0 1 -1 -22.3333)">
		</pattern>
		<rect x="77.9" y="131.2" class="st20" width="14.6" height="1.2"/>
		<pattern  id="SVGID_15_" xlink:href="#New_Pattern_Swatch_5" patternTransform="matrix(1 0 0 1 -1 -22.3333)">
		</pattern>
		<rect x="77.9" y="137.8" class="st21" width="14.6" height="1.2"/>
		<pattern  id="SVGID_16_" xlink:href="#New_Pattern_Swatch_5" patternTransform="matrix(1 0 0 1 -1 -22.3333)">
		</pattern>
		<circle class="st22" cx="95.7" cy="125.1" r="0.7"/>
		<pattern  id="SVGID_17_" xlink:href="#New_Pattern_Swatch_5" patternTransform="matrix(1 0 0 1 -1 -22.3333)">
		</pattern>
		<circle class="st23" cx="95.7" cy="131.9" r="0.7"/>
		<pattern  id="SVGID_18_" xlink:href="#New_Pattern_Swatch_5" patternTransform="matrix(1 0 0 1 -1 -22.3333)">
		</pattern>
		<circle class="st24" cx="95.7" cy="138.5" r="0.7"/>
	</g>
</g>
<g>
	<g>
		<path class="st25" d="M212.2,142.2h-19.9c-1.1,0-2.1-0.9-2.1-2.1v-2.5c0-1.1,0.9-2.1,2.1-2.1h19.9c1.1,0,2.1,0.9,2.1,2.1v2.5
			C214.2,141.3,213.3,142.2,212.2,142.2z"/>
		<path class="st25" d="M212.2,149h-19.9c-1.1,0-2.1-0.9-2.1-2.1v-2.5c0-1.1,0.9-2.1,2.1-2.1h19.9c1.1,0,2.1,0.9,2.1,2.1v2.5
			C214.2,148,213.3,149,212.2,149z"/>
		<path class="st25" d="M212.2,155.6h-19.9c-1.1,0-2.1-0.9-2.1-2.1V151c0-1.1,0.9-2.1,2.1-2.1h19.9c1.1,0,2.1,0.9,2.1,2.1v2.5
			C214.2,154.7,213.3,155.6,212.2,155.6z"/>
		<rect x="193.2" y="138.4" class="st26" width="14.6" height="1.2"/>
		<rect x="193.2" y="145" class="st26" width="14.6" height="1.2"/>
		<rect x="193.2" y="151.6" class="st26" width="14.6" height="1.2"/>
		<circle class="st26" cx="211" cy="138.9" r="0.7"/>
		<circle class="st26" cx="211" cy="145.7" r="0.7"/>
		<circle class="st26" cx="211" cy="152.3" r="0.7"/>
	</g>
	<g>
		<path class="st25" d="M212.2,162.4h-19.9c-1.1,0-2.1-0.9-2.1-2.1v-2.5c0-1.1,0.9-2.1,2.1-2.1h19.9c1.1,0,2.1,0.9,2.1,2.1v2.5
			C214.2,161.5,213.3,162.4,212.2,162.4z"/>
		<path class="st25" d="M212.2,169.1h-19.9c-1.1,0-2.1-0.9-2.1-2.1v-2.5c0-1.1,0.9-2.1,2.1-2.1h19.9c1.1,0,2.1,0.9,2.1,2.1v2.5
			C214.2,168.2,213.3,169.1,212.2,169.1z"/>
		<path class="st25" d="M212.2,175.8h-19.9c-1.1,0-2.1-0.9-2.1-2.1v-2.5c0-1.1,0.9-2.1,2.1-2.1h19.9c1.1,0,2.1,0.9,2.1,2.1v2.5
			C214.2,174.8,213.3,175.8,212.2,175.8z"/>
		<rect x="193.2" y="158.5" class="st26" width="14.6" height="1.2"/>
		<rect x="193.2" y="165.2" class="st26" width="14.6" height="1.2"/>
		<rect x="193.2" y="171.8" class="st26" width="14.6" height="1.2"/>
		<circle class="st26" cx="211" cy="159.1" r="0.7"/>
		<circle class="st26" cx="211" cy="165.9" r="0.7"/>
		<circle class="st26" cx="211" cy="172.5" r="0.7"/>
	</g>
</g>
<g>
	<g>
		<path class="st25" d="M212.2,102.1h-19.9c-1.1,0-2.1-0.9-2.1-2.1v-2.5c0-1.1,0.9-2.1,2.1-2.1h19.9c1.1,0,2.1,0.9,2.1,2.1v2.5
			C214.2,101.2,213.3,102.1,212.2,102.1z"/>
		<path class="st25" d="M212.2,108.9h-19.9c-1.1,0-2.1-0.9-2.1-2.1v-2.5c0-1.1,0.9-2.1,2.1-2.1h19.9c1.1,0,2.1,0.9,2.1,2.1v2.5
			C214.2,107.9,213.3,108.9,212.2,108.9z"/>
		<path class="st25" d="M212.2,115.5h-19.9c-1.1,0-2.1-0.9-2.1-2.1v-2.5c0-1.1,0.9-2.1,2.1-2.1h19.9c1.1,0,2.1,0.9,2.1,2.1v2.5
			C214.2,114.6,213.3,115.5,212.2,115.5z"/>
		<rect x="193.2" y="98.3" class="st26" width="14.6" height="1.2"/>
		<rect x="193.2" y="104.9" class="st26" width="14.6" height="1.2"/>
		<rect x="193.2" y="111.6" class="st26" width="14.6" height="1.2"/>
		<circle class="st26" cx="211" cy="98.8" r="0.7"/>
		<circle class="st26" cx="211" cy="105.6" r="0.7"/>
		<circle class="st26" cx="211" cy="112.2" r="0.7"/>
	</g>
	<g>
		<path class="st25" d="M212.2,122.3h-19.9c-1.1,0-2.1-0.9-2.1-2.1v-2.5c0-1.1,0.9-2.1,2.1-2.1h19.9c1.1,0,2.1,0.9,2.1,2.1v2.5
			C214.2,121.4,213.3,122.3,212.2,122.3z"/>
		<path class="st25" d="M212.2,129.1h-19.9c-1.1,0-2.1-0.9-2.1-2.1v-2.5c0-1.1,0.9-2.1,2.1-2.1h19.9c1.1,0,2.1,0.9,2.1,2.1v2.5
			C214.2,128.1,213.3,129.1,212.2,129.1z"/>
		<path class="st25" d="M212.2,135.7h-19.9c-1.1,0-2.1-0.9-2.1-2.1v-2.5c0-1.1,0.9-2.1,2.1-2.1h19.9c1.1,0,2.1,0.9,2.1,2.1v2.5
			C214.2,134.8,213.3,135.7,212.2,135.7z"/>
		<rect x="193.2" y="118.4" class="st26" width="14.6" height="1.2"/>
		<rect x="193.2" y="125.1" class="st26" width="14.6" height="1.2"/>
		<rect x="193.2" y="131.7" class="st26" width="14.6" height="1.2"/>
		<circle class="st26" cx="211" cy="119" r="0.7"/>
		<circle class="st26" cx="211" cy="125.8" r="0.7"/>
		<circle class="st26" cx="211" cy="132.4" r="0.7"/>
	</g>
</g>
<g>
	<g>
		<path class="st1" d="M195.5,178.9c0.3,0,0.5,0,0.7,0.1c0.2,0.1,0.3,0.2,0.4,0.3c0.1,0.1,0.2,0.3,0.2,0.5s0.1,0.4,0.1,0.6
			c0,0.3,0,0.5-0.1,0.7s-0.2,0.4-0.3,0.5c-0.1,0.1-0.3,0.2-0.5,0.3c-0.2,0.1-0.4,0.1-0.7,0.1h-0.6v2h-1v-5.1H195.5z M195.1,181.2
			c0.2,0,0.4-0.1,0.5-0.2c0.1-0.1,0.2-0.3,0.2-0.6c0-0.3-0.1-0.5-0.2-0.6c-0.1-0.1-0.3-0.2-0.6-0.2h-0.4v1.6H195.1z"/>
		<path class="st1" d="M198.3,180.2v0.5h0c0.1-0.2,0.2-0.3,0.4-0.4c0.1-0.1,0.3-0.2,0.5-0.2c0,0,0.1,0,0.1,0c0,0,0.1,0,0.1,0v0.9
			c-0.1,0-0.1,0-0.2,0c0,0-0.1,0-0.2,0c-0.1,0-0.2,0-0.3,0c-0.1,0-0.2,0.1-0.2,0.1c-0.1,0.1-0.1,0.1-0.2,0.2c0,0.1-0.1,0.2-0.1,0.3
			v2.3h-1v-3.9H198.3z"/>
		<path class="st1" d="M199.7,181.2c0.1-0.3,0.1-0.5,0.3-0.6c0.1-0.2,0.3-0.3,0.5-0.4s0.4-0.1,0.7-0.1c0.3,0,0.5,0,0.7,0.1
			c0.2,0.1,0.4,0.2,0.5,0.4s0.2,0.4,0.2,0.6s0.1,0.6,0.1,0.9c0,0.3,0,0.6-0.1,0.9s-0.1,0.5-0.3,0.6c-0.1,0.2-0.3,0.3-0.5,0.4
			c-0.2,0.1-0.4,0.1-0.7,0.1c-0.3,0-0.5,0-0.7-0.1s-0.4-0.2-0.5-0.4s-0.2-0.4-0.2-0.6s-0.1-0.6-0.1-0.9
			C199.6,181.8,199.6,181.5,199.7,181.2z M200.6,182.6c0,0.2,0,0.3,0.1,0.4c0,0.1,0.1,0.2,0.2,0.3s0.2,0.1,0.3,0.1
			c0.2,0,0.3-0.1,0.4-0.3c0.1-0.2,0.1-0.6,0.1-1s0-0.8-0.1-1c-0.1-0.2-0.2-0.3-0.4-0.3c-0.1,0-0.2,0-0.3,0.1
			c-0.1,0.1-0.1,0.2-0.2,0.3c0,0.1-0.1,0.3-0.1,0.4c0,0.2,0,0.4,0,0.5S200.6,182.5,200.6,182.6z"/>
		<path class="st1" d="M205.2,183.6c-0.1,0.2-0.2,0.3-0.4,0.4c-0.1,0.1-0.3,0.1-0.5,0.1c-0.4,0-0.7-0.2-0.9-0.5
			c-0.2-0.3-0.3-0.8-0.3-1.5s0.1-1.2,0.3-1.6c0.2-0.3,0.5-0.5,0.9-0.5c0.2,0,0.3,0,0.5,0.1c0.1,0.1,0.3,0.2,0.4,0.3h0v-1.6h1v5.1
			h-0.9L205.2,183.6L205.2,183.6z M204.2,183c0.1,0.2,0.2,0.3,0.4,0.3c0.2,0,0.4-0.1,0.4-0.3c0.1-0.2,0.1-0.5,0.1-1s0-0.7-0.1-1
			c-0.1-0.2-0.2-0.3-0.4-0.3c-0.2,0-0.4,0.1-0.4,0.3c-0.1,0.2-0.1,0.5-0.1,1S204.1,182.8,204.2,183z"/>
		<path class="st1" d="M208.8,183.6c-0.1,0.2-0.2,0.3-0.4,0.4c-0.2,0.1-0.4,0.1-0.6,0.1c-0.3,0-0.6-0.1-0.7-0.2
			c-0.2-0.2-0.3-0.4-0.3-0.8v-2.9h1v2.7c0,0.2,0,0.3,0.1,0.4s0.2,0.1,0.3,0.1c0.3,0,0.5-0.2,0.5-0.6v-2.6h1v3.9h-0.9L208.8,183.6
			L208.8,183.6z"/>
		<path class="st1" d="M212.2,181.3c0-0.1,0-0.2-0.1-0.2s-0.1-0.1-0.1-0.2c-0.1,0-0.1-0.1-0.2-0.1c-0.1,0-0.2,0-0.3,0.1
			c-0.1,0.1-0.1,0.1-0.2,0.2c0,0.1-0.1,0.2-0.1,0.4c0,0.2,0,0.4,0,0.6c0,0.2,0,0.4,0,0.6c0,0.2,0,0.3,0.1,0.4c0,0.1,0.1,0.2,0.2,0.2
			c0.1,0,0.2,0.1,0.3,0.1c0.2,0,0.3-0.1,0.4-0.2c0.1-0.1,0.1-0.4,0.1-0.7h0.9c0,0.5-0.1,0.9-0.3,1.2c-0.2,0.3-0.6,0.4-1.1,0.4
			c-0.2,0-0.5,0-0.7-0.1s-0.3-0.2-0.5-0.3c-0.1-0.2-0.2-0.4-0.3-0.6c-0.1-0.3-0.1-0.6-0.1-1c0-0.4,0-0.7,0.1-1
			c0.1-0.3,0.2-0.5,0.3-0.6c0.1-0.2,0.3-0.3,0.5-0.3c0.2-0.1,0.4-0.1,0.6-0.1c0.5,0,0.8,0.1,1,0.4s0.3,0.6,0.3,1.1h-0.9
			C212.2,181.5,212.2,181.4,212.2,181.3z"/>
		<path class="st1" d="M214.9,179v1.1h0.6v0.7h-0.6v2.1c0,0.2,0,0.3,0.1,0.3c0,0.1,0.1,0.1,0.3,0.1c0,0,0.1,0,0.1,0c0,0,0.1,0,0.1,0
			v0.7c-0.1,0-0.2,0-0.3,0c-0.1,0-0.2,0-0.3,0c-0.2,0-0.3,0-0.5,0s-0.2-0.1-0.3-0.2s-0.1-0.2-0.1-0.3c0-0.1,0-0.3,0-0.5v-2.2h-0.5
			v-0.7h0.5V179H214.9z"/>
		<path class="st1" d="M216.9,178.8v0.8h-1v-0.8H216.9z M216.9,180.2v3.9h-1v-3.9H216.9z"/>
		<path class="st1" d="M217.5,181.2c0.1-0.3,0.1-0.5,0.3-0.6c0.1-0.2,0.3-0.3,0.5-0.4s0.4-0.1,0.7-0.1c0.3,0,0.5,0,0.7,0.1
			c0.2,0.1,0.4,0.2,0.5,0.4s0.2,0.4,0.2,0.6s0.1,0.6,0.1,0.9c0,0.3,0,0.6-0.1,0.9s-0.1,0.5-0.3,0.6c-0.1,0.2-0.3,0.3-0.5,0.4
			c-0.2,0.1-0.4,0.1-0.7,0.1c-0.3,0-0.5,0-0.7-0.1s-0.4-0.2-0.5-0.4s-0.2-0.4-0.2-0.6s-0.1-0.6-0.1-0.9
			C217.4,181.8,217.5,181.5,217.5,181.2z M218.4,182.6c0,0.2,0,0.3,0.1,0.4c0,0.1,0.1,0.2,0.2,0.3s0.2,0.1,0.3,0.1
			c0.2,0,0.3-0.1,0.4-0.3c0.1-0.2,0.1-0.6,0.1-1s0-0.8-0.1-1c-0.1-0.2-0.2-0.3-0.4-0.3c-0.1,0-0.2,0-0.3,0.1
			c-0.1,0.1-0.1,0.2-0.2,0.3c0,0.1-0.1,0.3-0.1,0.4c0,0.2,0,0.4,0,0.5S218.4,182.5,218.4,182.6z"/>
		<path class="st1" d="M222,180.2v0.5h0c0.1-0.2,0.2-0.3,0.4-0.4s0.4-0.1,0.6-0.1c0.3,0,0.6,0.1,0.7,0.3c0.2,0.2,0.3,0.5,0.3,0.8
			v2.9h-1v-2.7c0-0.2,0-0.3-0.1-0.4c-0.1-0.1-0.2-0.1-0.3-0.1c-0.3,0-0.5,0.2-0.5,0.6v2.6h-1v-3.9H222z"/>
		<path class="st1" d="M228.2,181.3c0-0.1,0-0.2-0.1-0.2s-0.1-0.1-0.1-0.2c-0.1,0-0.1-0.1-0.2-0.1c-0.1,0-0.2,0-0.3,0.1
			c-0.1,0.1-0.1,0.1-0.2,0.2c0,0.1-0.1,0.2-0.1,0.4c0,0.2,0,0.4,0,0.6c0,0.2,0,0.4,0,0.6c0,0.2,0,0.3,0.1,0.4s0.1,0.2,0.2,0.2
			c0.1,0,0.2,0.1,0.3,0.1c0.2,0,0.3-0.1,0.4-0.2c0.1-0.1,0.1-0.4,0.1-0.7h0.9c0,0.5-0.1,0.9-0.3,1.2c-0.2,0.3-0.6,0.4-1.1,0.4
			c-0.2,0-0.5,0-0.7-0.1s-0.3-0.2-0.5-0.3c-0.1-0.2-0.2-0.4-0.3-0.6c-0.1-0.3-0.1-0.6-0.1-1c0-0.4,0-0.7,0.1-1
			c0.1-0.3,0.2-0.5,0.3-0.6c0.1-0.2,0.3-0.3,0.5-0.3c0.2-0.1,0.4-0.1,0.6-0.1c0.5,0,0.8,0.1,1,0.4c0.2,0.3,0.3,0.6,0.3,1.1h-0.9
			C228.2,181.5,228.2,181.4,228.2,181.3z"/>
		<path class="st1" d="M230.6,178.9v5.1h-1v-5.1H230.6z"/>
		<path class="st1" d="M233.2,183.6c-0.1,0.2-0.2,0.3-0.4,0.4c-0.2,0.1-0.4,0.1-0.6,0.1c-0.3,0-0.6-0.1-0.7-0.2s-0.3-0.4-0.3-0.8
			v-2.9h1v2.7c0,0.2,0,0.3,0.1,0.4c0.1,0.1,0.2,0.1,0.3,0.1c0.3,0,0.5-0.2,0.5-0.6v-2.6h1v3.9h-0.9L233.2,183.6L233.2,183.6z"/>
		<path class="st1" d="M235.6,182.9c0,0.2,0,0.3,0.1,0.4c0.1,0.1,0.2,0.2,0.4,0.2c0.2,0,0.3,0,0.4-0.1c0.1-0.1,0.1-0.2,0.1-0.3
			c0-0.1,0-0.2-0.1-0.3c-0.1-0.1-0.2-0.1-0.3-0.2l-0.7-0.3c-0.3-0.1-0.5-0.2-0.6-0.4c-0.1-0.2-0.2-0.4-0.2-0.7c0-0.2,0-0.3,0.1-0.4
			s0.1-0.3,0.3-0.4s0.3-0.2,0.4-0.3c0.2-0.1,0.4-0.1,0.7-0.1c0.5,0,0.8,0.1,1,0.3s0.3,0.5,0.3,0.8v0.2h-0.9c0-0.2,0-0.3-0.1-0.4
			c-0.1-0.1-0.2-0.1-0.3-0.1c-0.1,0-0.2,0-0.3,0.1c-0.1,0.1-0.1,0.2-0.1,0.3c0,0.1,0,0.2,0.1,0.3c0.1,0.1,0.2,0.1,0.3,0.2l0.6,0.2
			c0.3,0.1,0.5,0.2,0.7,0.4c0.1,0.2,0.2,0.4,0.2,0.7c0,0.2,0,0.4-0.1,0.5c-0.1,0.2-0.2,0.3-0.3,0.4s-0.3,0.2-0.5,0.2
			s-0.4,0.1-0.6,0.1c-0.3,0-0.5,0-0.7-0.1s-0.3-0.1-0.4-0.2c-0.1-0.1-0.2-0.2-0.2-0.4c0-0.2-0.1-0.3-0.1-0.5v-0.1h0.9V182.9z"/>
		<path class="st1" d="M239.2,179v1.1h0.6v0.7h-0.6v2.1c0,0.2,0,0.3,0.1,0.3c0,0.1,0.1,0.1,0.3,0.1c0,0,0.1,0,0.1,0c0,0,0.1,0,0.1,0
			v0.7c-0.1,0-0.2,0-0.3,0c-0.1,0-0.2,0-0.3,0c-0.2,0-0.3,0-0.5,0s-0.2-0.1-0.3-0.2s-0.1-0.2-0.1-0.3c0-0.1,0-0.3,0-0.5v-2.2h-0.5
			v-0.7h0.5V179H239.2z"/>
		<path class="st1" d="M241,182.5c0,0.1,0,0.2,0,0.3c0,0.1,0,0.2,0.1,0.3c0,0.1,0.1,0.2,0.2,0.2c0.1,0,0.1,0.1,0.2,0.1
			c0.2,0,0.3-0.1,0.4-0.2c0.1-0.1,0.1-0.3,0.2-0.5h0.9c0,0.5-0.1,0.8-0.4,1c-0.2,0.2-0.6,0.4-1,0.4c-0.4,0-0.6-0.1-0.8-0.2
			s-0.3-0.3-0.4-0.5c-0.1-0.2-0.2-0.4-0.2-0.7s0-0.5,0-0.7c0-0.3,0-0.5,0.1-0.7c0-0.2,0.1-0.5,0.2-0.6c0.1-0.2,0.3-0.3,0.5-0.4
			s0.5-0.2,0.8-0.2c0.3,0,0.5,0,0.7,0.1c0.2,0.1,0.3,0.2,0.4,0.4s0.2,0.4,0.2,0.6c0,0.2,0.1,0.5,0.1,0.8v0.2h-2V182.5z M242,181.3
			c0-0.1,0-0.2-0.1-0.3s-0.1-0.1-0.2-0.2c-0.1,0-0.1-0.1-0.2-0.1s-0.2,0-0.2,0.1c-0.1,0-0.1,0.1-0.2,0.2c0,0.1-0.1,0.2-0.1,0.2
			c0,0.1,0,0.2,0,0.3v0.2h1C242,181.5,242,181.4,242,181.3z"/>
		<path class="st1" d="M244.4,180.2v0.5h0c0.1-0.2,0.2-0.3,0.4-0.4c0.1-0.1,0.3-0.2,0.5-0.2c0,0,0.1,0,0.1,0c0,0,0.1,0,0.1,0v0.9
			c-0.1,0-0.1,0-0.2,0c-0.1,0-0.1,0-0.2,0c-0.1,0-0.2,0-0.3,0c-0.1,0-0.2,0.1-0.2,0.1c-0.1,0.1-0.1,0.1-0.2,0.2
			c0,0.1-0.1,0.2-0.1,0.3v2.3h-1v-3.9H244.4z"/>
		<path class="st1" d="M246.6,182.9c0,0.2,0,0.3,0.1,0.4c0.1,0.1,0.2,0.2,0.4,0.2c0.2,0,0.3,0,0.4-0.1c0.1-0.1,0.1-0.2,0.1-0.3
			c0-0.1,0-0.2-0.1-0.3c-0.1-0.1-0.2-0.1-0.3-0.2l-0.7-0.3c-0.3-0.1-0.5-0.2-0.6-0.4c-0.1-0.2-0.2-0.4-0.2-0.7c0-0.2,0-0.3,0.1-0.4
			s0.1-0.3,0.3-0.4c0.1-0.1,0.3-0.2,0.4-0.3c0.2-0.1,0.4-0.1,0.7-0.1c0.5,0,0.8,0.1,1,0.3s0.3,0.5,0.3,0.8v0.2h-0.9
			c0-0.2,0-0.3-0.1-0.4s-0.2-0.1-0.3-0.1c-0.1,0-0.2,0-0.3,0.1c-0.1,0.1-0.1,0.2-0.1,0.3c0,0.1,0,0.2,0.1,0.3
			c0.1,0.1,0.2,0.1,0.3,0.2l0.6,0.2c0.3,0.1,0.5,0.2,0.7,0.4c0.1,0.2,0.2,0.4,0.2,0.7c0,0.2,0,0.4-0.1,0.5c-0.1,0.2-0.2,0.3-0.3,0.4
			s-0.3,0.2-0.5,0.2c-0.2,0-0.4,0.1-0.6,0.1c-0.3,0-0.5,0-0.7-0.1s-0.3-0.1-0.4-0.2c-0.1-0.1-0.2-0.2-0.2-0.4c0-0.2-0.1-0.3-0.1-0.5
			v-0.1h0.9V182.9z"/>
		<path class="st1" d="M202.6,187.6c-0.1,0.2-0.2,0.4-0.2,0.6c-0.1,0.2-0.1,0.4-0.1,0.7c0,0.2,0,0.5,0,0.7s0,0.5,0,0.7
			c0,0.2,0.1,0.4,0.1,0.7s0.1,0.4,0.2,0.6s0.2,0.4,0.3,0.7h-0.6c-0.3-0.5-0.5-0.9-0.6-1.4s-0.2-0.9-0.2-1.3s0.1-0.9,0.2-1.3
			c0.1-0.4,0.3-0.9,0.6-1.4h0.6C202.8,187.2,202.7,187.4,202.6,187.6z"/>
		<path class="st1" d="M204.1,186.9v1.6h1v-1.6h0.9v4.3h-0.9v-1.9h-1v1.9h-0.9v-4.3H204.1z"/>
		<path class="st1" d="M207.4,186.9v0.7h-0.8v-0.7H207.4z M207.4,188v3.2h-0.8V188H207.4z"/>
		<path class="st1" d="M210.4,191.1c0,0.4-0.1,0.7-0.3,0.9s-0.6,0.3-1,0.3c-0.4,0-0.6-0.1-0.8-0.2c-0.2-0.2-0.3-0.4-0.3-0.6h0.8
			c0,0.1,0,0.2,0.1,0.2c0,0,0.1,0,0.1,0.1c0,0,0.1,0,0.1,0c0.2,0,0.3-0.1,0.4-0.2c0.1-0.1,0.1-0.2,0.1-0.4v-0.4h0
			c-0.1,0.1-0.2,0.2-0.3,0.3c-0.1,0.1-0.2,0.1-0.4,0.1c-0.3,0-0.6-0.1-0.7-0.4s-0.2-0.7-0.2-1.3c0-0.2,0-0.4,0-0.6
			c0-0.2,0.1-0.4,0.1-0.5c0.1-0.2,0.2-0.3,0.3-0.4c0.1-0.1,0.3-0.1,0.5-0.1c0.1,0,0.2,0,0.4,0.1c0.1,0.1,0.2,0.2,0.3,0.3h0V188h0.8
			V191.1z M208.8,190c0,0.1,0,0.2,0.1,0.3s0.1,0.1,0.1,0.2s0.1,0.1,0.2,0.1s0.2,0,0.2-0.1c0.1,0,0.1-0.1,0.1-0.2
			c0-0.1,0.1-0.2,0.1-0.3c0-0.1,0-0.2,0-0.4c0-0.4,0-0.7-0.1-0.8c-0.1-0.2-0.2-0.2-0.3-0.2c-0.1,0-0.2,0-0.2,0.1
			c-0.1,0-0.1,0.1-0.1,0.2s-0.1,0.2-0.1,0.4c0,0.1,0,0.3,0,0.5C208.7,189.8,208.7,189.9,208.8,190z"/>
		<path class="st1" d="M211.8,186.9v1.4h0c0.2-0.3,0.4-0.4,0.8-0.4c0.3,0,0.5,0.1,0.6,0.2c0.1,0.1,0.2,0.4,0.2,0.7v2.4h-0.8V189
			c0-0.2,0-0.3-0.1-0.4c-0.1-0.1-0.1-0.1-0.3-0.1c-0.3,0-0.4,0.2-0.4,0.5v2.1H211v-4.3H211.8z"/>
		<path class="st1" d="M215.7,189.8H214v-0.7h1.7V189.8z"/>
		<path class="st1" d="M216.9,190c0,0.1,0,0.2,0,0.3c0,0.1,0,0.2,0.1,0.2c0,0.1,0.1,0.1,0.1,0.2c0.1,0,0.1,0.1,0.2,0.1
			c0.1,0,0.2,0,0.3-0.1c0.1-0.1,0.1-0.3,0.1-0.5h0.7c0,0.4-0.1,0.7-0.3,0.9c-0.2,0.2-0.5,0.3-0.9,0.3c-0.3,0-0.5-0.1-0.7-0.2
			s-0.3-0.2-0.4-0.4c-0.1-0.2-0.1-0.3-0.1-0.6c0-0.2,0-0.4,0-0.6c0-0.2,0-0.4,0-0.6c0-0.2,0.1-0.4,0.2-0.5c0.1-0.2,0.2-0.3,0.4-0.4
			s0.4-0.1,0.7-0.1c0.2,0,0.4,0,0.6,0.1c0.2,0.1,0.3,0.2,0.4,0.3c0.1,0.1,0.1,0.3,0.2,0.5c0,0.2,0,0.4,0,0.7v0.2h-1.6V190z
			 M217.7,188.9c0-0.1,0-0.2-0.1-0.2c0-0.1-0.1-0.1-0.1-0.2c-0.1,0-0.1-0.1-0.2-0.1s-0.2,0-0.2,0.1c-0.1,0-0.1,0.1-0.1,0.2
			c0,0.1-0.1,0.1-0.1,0.2c0,0.1,0,0.2,0,0.2v0.1h0.8C217.7,189.1,217.7,189,217.7,188.9z"/>
		<path class="st1" d="M219.8,188v0.4h0c0.1-0.2,0.2-0.3,0.3-0.4c0.1-0.1,0.3-0.1,0.5-0.1c0.3,0,0.5,0.1,0.6,0.2
			c0.1,0.1,0.2,0.4,0.2,0.7v2.4h-0.8V189c0-0.2,0-0.3-0.1-0.4c-0.1-0.1-0.1-0.1-0.3-0.1c-0.3,0-0.4,0.2-0.4,0.5v2.1H219V188H219.8z"
			/>
		<path class="st1" d="M223.6,190.9c-0.1,0.2-0.2,0.3-0.3,0.3c-0.1,0.1-0.3,0.1-0.4,0.1c-0.3,0-0.6-0.1-0.8-0.4
			c-0.2-0.3-0.2-0.7-0.2-1.3c0-0.6,0.1-1,0.2-1.3c0.2-0.3,0.4-0.4,0.8-0.4c0.2,0,0.3,0,0.4,0.1c0.1,0.1,0.2,0.2,0.3,0.3h0v-1.4h0.8
			v4.3h-0.8L223.6,190.9L223.6,190.9z M222.8,190.4c0.1,0.2,0.2,0.3,0.4,0.3c0.2,0,0.3-0.1,0.4-0.3c0.1-0.2,0.1-0.4,0.1-0.8
			c0-0.4,0-0.6-0.1-0.8s-0.2-0.3-0.4-0.3c-0.2,0-0.3,0.1-0.4,0.3s-0.1,0.4-0.1,0.8C222.7,190,222.7,190.2,222.8,190.4z"/>
		<path class="st1" d="M227.2,186.9v1.4h0c0.2-0.3,0.4-0.4,0.8-0.4c0.3,0,0.5,0.1,0.6,0.2c0.1,0.1,0.2,0.4,0.2,0.7v2.4H228V189
			c0-0.2,0-0.3-0.1-0.4c-0.1-0.1-0.1-0.1-0.3-0.1c-0.3,0-0.4,0.2-0.4,0.5v2.1h-0.8v-4.3H227.2z"/>
		<path class="st1" d="M229.4,188.9c0-0.2,0.1-0.4,0.2-0.5c0.1-0.1,0.2-0.2,0.4-0.3s0.4-0.1,0.6-0.1c0.2,0,0.5,0,0.6,0.1
			s0.3,0.2,0.4,0.3c0.1,0.1,0.2,0.3,0.2,0.5c0,0.2,0.1,0.5,0.1,0.7c0,0.3,0,0.5-0.1,0.7s-0.1,0.4-0.2,0.5c-0.1,0.1-0.2,0.2-0.4,0.3
			c-0.2,0.1-0.4,0.1-0.6,0.1c-0.2,0-0.5,0-0.6-0.1c-0.2-0.1-0.3-0.2-0.4-0.3s-0.2-0.3-0.2-0.5s-0.1-0.5-0.1-0.7
			C229.3,189.3,229.3,189.1,229.4,188.9z M230.1,190.1c0,0.1,0,0.3,0.1,0.4c0,0.1,0.1,0.2,0.1,0.2c0.1,0.1,0.1,0.1,0.2,0.1
			c0.2,0,0.3-0.1,0.3-0.3c0.1-0.2,0.1-0.5,0.1-0.9c0-0.4,0-0.7-0.1-0.9c-0.1-0.2-0.2-0.3-0.3-0.3c-0.1,0-0.2,0-0.2,0.1
			c-0.1,0.1-0.1,0.1-0.1,0.2c0,0.1,0,0.2-0.1,0.4c0,0.1,0,0.3,0,0.5S230.1,189.9,230.1,190.1z"/>
		<path class="st1" d="M232.9,190.3c0,0.1,0,0.3,0.1,0.3c0.1,0.1,0.2,0.1,0.3,0.1c0.1,0,0.2,0,0.3-0.1c0.1-0.1,0.1-0.2,0.1-0.3
			c0-0.1,0-0.2-0.1-0.2c-0.1-0.1-0.1-0.1-0.2-0.1l-0.6-0.2c-0.2-0.1-0.4-0.2-0.5-0.3c-0.1-0.1-0.2-0.3-0.2-0.6c0-0.1,0-0.3,0.1-0.4
			s0.1-0.2,0.2-0.3c0.1-0.1,0.2-0.2,0.4-0.2c0.2-0.1,0.3-0.1,0.5-0.1c0.4,0,0.7,0.1,0.8,0.2s0.3,0.4,0.3,0.7v0.1h-0.7
			c0-0.2,0-0.3-0.1-0.4s-0.1-0.1-0.3-0.1c-0.1,0-0.2,0-0.3,0.1c-0.1,0.1-0.1,0.1-0.1,0.3c0,0.1,0,0.2,0.1,0.2
			c0.1,0.1,0.1,0.1,0.3,0.2l0.5,0.2c0.3,0.1,0.4,0.2,0.6,0.3c0.1,0.1,0.2,0.3,0.2,0.6c0,0.2,0,0.3-0.1,0.4c-0.1,0.1-0.1,0.2-0.2,0.3
			c-0.1,0.1-0.2,0.1-0.4,0.2c-0.1,0-0.3,0.1-0.5,0.1c-0.2,0-0.4,0-0.6-0.1c-0.2,0-0.3-0.1-0.4-0.2s-0.2-0.2-0.2-0.3
			s-0.1-0.3-0.1-0.4v-0.1h0.7V190.3z"/>
		<path class="st1" d="M236,187.1v0.9h0.5v0.6H236v1.7c0,0.1,0,0.2,0.1,0.3c0,0.1,0.1,0.1,0.2,0.1c0,0,0.1,0,0.1,0c0,0,0.1,0,0.1,0
			v0.6c-0.1,0-0.2,0-0.3,0s-0.2,0-0.3,0c-0.2,0-0.3,0-0.4,0c-0.1,0-0.2-0.1-0.2-0.1c-0.1-0.1-0.1-0.2-0.1-0.3c0-0.1,0-0.2,0-0.4
			v-1.8h-0.4V188h0.4v-0.9H236z"/>
		<path class="st1" d="M237.3,190.3c0,0.1,0,0.3,0.1,0.3c0.1,0.1,0.2,0.1,0.3,0.1c0.1,0,0.2,0,0.3-0.1c0.1-0.1,0.1-0.2,0.1-0.3
			c0-0.1,0-0.2-0.1-0.2c-0.1-0.1-0.1-0.1-0.2-0.1l-0.6-0.2c-0.2-0.1-0.4-0.2-0.5-0.3c-0.1-0.1-0.2-0.3-0.2-0.6c0-0.1,0-0.3,0.1-0.4
			s0.1-0.2,0.2-0.3c0.1-0.1,0.2-0.2,0.4-0.2c0.1-0.1,0.3-0.1,0.5-0.1c0.4,0,0.7,0.1,0.8,0.2c0.2,0.2,0.3,0.4,0.3,0.7v0.1h-0.7
			c0-0.2,0-0.3-0.1-0.4c-0.1-0.1-0.1-0.1-0.3-0.1c-0.1,0-0.2,0-0.3,0.1c-0.1,0.1-0.1,0.1-0.1,0.3c0,0.1,0,0.2,0.1,0.2
			c0,0.1,0.1,0.1,0.3,0.2l0.5,0.2c0.3,0.1,0.4,0.2,0.6,0.3c0.1,0.1,0.2,0.3,0.2,0.6c0,0.2,0,0.3-0.1,0.4c-0.1,0.1-0.1,0.2-0.2,0.3
			c-0.1,0.1-0.2,0.1-0.4,0.2c-0.1,0-0.3,0.1-0.5,0.1c-0.2,0-0.4,0-0.6-0.1s-0.3-0.1-0.4-0.2c-0.1-0.1-0.2-0.2-0.2-0.3
			s-0.1-0.3-0.1-0.4v-0.1h0.7V190.3z"/>
		<path class="st1" d="M240.4,188.3c0.1,0.5,0.2,0.9,0.2,1.3s-0.1,0.9-0.2,1.3s-0.3,0.9-0.6,1.4h-0.6c0.1-0.2,0.2-0.4,0.3-0.7
			s0.2-0.4,0.2-0.6s0.1-0.4,0.1-0.7c0-0.2,0-0.5,0-0.7s0-0.5,0-0.7c0-0.2-0.1-0.4-0.1-0.7c-0.1-0.2-0.1-0.4-0.2-0.6
			s-0.2-0.4-0.3-0.7h0.6C240.1,187.4,240.3,187.9,240.4,188.3z"/>
	</g>
</g>
<g>
	<g>
		<path class="st25" d="M249.7,142.2h-19.9c-1.1,0-2.1-0.9-2.1-2.1v-2.5c0-1.1,0.9-2.1,2.1-2.1h19.9c1.1,0,2.1,0.9,2.1,2.1v2.5
			C251.8,141.3,250.9,142.2,249.7,142.2z"/>
		<path class="st25" d="M249.7,149h-19.9c-1.1,0-2.1-0.9-2.1-2.1v-2.5c0-1.1,0.9-2.1,2.1-2.1h19.9c1.1,0,2.1,0.9,2.1,2.1v2.5
			C251.8,148,250.9,149,249.7,149z"/>
		<path class="st25" d="M249.7,155.6h-19.9c-1.1,0-2.1-0.9-2.1-2.1V151c0-1.1,0.9-2.1,2.1-2.1h19.9c1.1,0,2.1,0.9,2.1,2.1v2.5
			C251.8,154.7,250.9,155.6,249.7,155.6z"/>
		<rect x="230.8" y="138.4" class="st26" width="14.6" height="1.2"/>
		<rect x="230.8" y="145" class="st26" width="14.6" height="1.2"/>
		<rect x="230.8" y="151.6" class="st26" width="14.6" height="1.2"/>
		<circle class="st26" cx="248.5" cy="138.9" r="0.7"/>
		<circle class="st26" cx="248.5" cy="145.7" r="0.7"/>
		<circle class="st26" cx="248.5" cy="152.3" r="0.7"/>
	</g>
	<g>
		<path class="st25" d="M249.7,162.4h-19.9c-1.1,0-2.1-0.9-2.1-2.1v-2.5c0-1.1,0.9-2.1,2.1-2.1h19.9c1.1,0,2.1,0.9,2.1,2.1v2.5
			C251.8,161.5,250.9,162.4,249.7,162.4z"/>
		<path class="st25" d="M249.7,169.1h-19.9c-1.1,0-2.1-0.9-2.1-2.1v-2.5c0-1.1,0.9-2.1,2.1-2.1h19.9c1.1,0,2.1,0.9,2.1,2.1v2.5
			C251.8,168.2,250.9,169.1,249.7,169.1z"/>
		<path class="st25" d="M249.7,175.8h-19.9c-1.1,0-2.1-0.9-2.1-2.1v-2.5c0-1.1,0.9-2.1,2.1-2.1h19.9c1.1,0,2.1,0.9,2.1,2.1v2.5
			C251.8,174.8,250.9,175.8,249.7,175.8z"/>
		<rect x="230.8" y="158.5" class="st26" width="14.6" height="1.2"/>
		<rect x="230.8" y="165.2" class="st26" width="14.6" height="1.2"/>
		<rect x="230.8" y="171.8" class="st26" width="14.6" height="1.2"/>
		<circle class="st26" cx="248.5" cy="159.1" r="0.7"/>
		<circle class="st26" cx="248.5" cy="165.9" r="0.7"/>
		<circle class="st26" cx="248.5" cy="172.5" r="0.7"/>
	</g>
</g>
<g>
	<g>
		<path class="st25" d="M249.7,129.1h-19.9c-1.1,0-2.1-0.9-2.1-2.1v-2.5c0-1.1,0.9-2.1,2.1-2.1h19.9c1.1,0,2.1,0.9,2.1,2.1v2.5
			C251.8,128.1,250.9,129.1,249.7,129.1z"/>
		<path class="st25" d="M249.7,135.7h-19.9c-1.1,0-2.1-0.9-2.1-2.1v-2.5c0-1.1,0.9-2.1,2.1-2.1h19.9c1.1,0,2.1,0.9,2.1,2.1v2.5
			C251.8,134.8,250.9,135.7,249.7,135.7z"/>
		<rect x="230.8" y="125.1" class="st26" width="14.6" height="1.2"/>
		<rect x="230.8" y="131.7" class="st26" width="14.6" height="1.2"/>
		<circle class="st26" cx="248.5" cy="125.8" r="0.7"/>
		<circle class="st26" cx="248.5" cy="132.4" r="0.7"/>
	</g>
</g>
<g>
	<g>
		<path class="st1" d="M77.3,82.3c0.4,0,0.7,0.1,1,0.2s0.5,0.3,0.7,0.5c0.2,0.2,0.3,0.5,0.4,0.8c0.1,0.3,0.1,0.6,0.1,0.9
			c0,0.4-0.1,0.8-0.2,1.1c-0.1,0.3-0.3,0.5-0.5,0.7s-0.5,0.3-0.8,0.4C77.7,87,77.3,87,77,87h-0.8v3.1h-1.6v-7.9H77.3z M76.8,85.9
			c0.3,0,0.6-0.1,0.8-0.3s0.3-0.5,0.3-0.9c0-0.4-0.1-0.7-0.3-0.9c-0.2-0.2-0.5-0.3-0.8-0.3h-0.7v2.4H76.8z"/>
		<path class="st1" d="M81.6,84.2V85h0c0.2-0.3,0.3-0.5,0.6-0.7c0.2-0.2,0.5-0.3,0.8-0.3c0,0,0.1,0,0.1,0s0.1,0,0.1,0v1.5
			c-0.1,0-0.2,0-0.2,0c-0.1,0-0.2,0-0.2,0c-0.1,0-0.3,0-0.4,0.1c-0.1,0-0.3,0.1-0.4,0.2c-0.1,0.1-0.2,0.2-0.3,0.3s-0.1,0.3-0.1,0.5
			v3.6h-1.5v-5.9H81.6z"/>
		<path class="st1" d="M85.4,82.2v1.3h-1.5v-1.3H85.4z M85.4,84.2v5.9h-1.5v-5.9H85.4z"/>
		<path class="st1" d="M90.8,84.2l-1.5,5.9h-1.8L86,84.2h1.6l0.8,4.2h0l0.8-4.2H90.8z"/>
		<path class="st1" d="M91.4,85.9c0-0.3,0.1-0.6,0.2-0.9c0.1-0.2,0.3-0.4,0.4-0.6c0.2-0.1,0.4-0.2,0.7-0.3s0.5-0.1,0.8-0.1
			c0.5,0,0.8,0,1.1,0.1c0.3,0.1,0.5,0.2,0.6,0.4c0.2,0.2,0.3,0.4,0.3,0.6c0.1,0.2,0.1,0.5,0.1,0.7V89c0,0.3,0,0.5,0,0.6
			c0,0.2,0.1,0.3,0.1,0.5h-1.5c-0.1-0.1-0.1-0.2-0.1-0.3s0-0.2-0.1-0.3h0c-0.2,0.3-0.4,0.5-0.6,0.6c-0.2,0.1-0.5,0.1-0.9,0.1
			c-0.3,0-0.5,0-0.7-0.1s-0.3-0.2-0.4-0.4c-0.1-0.2-0.2-0.3-0.2-0.5s-0.1-0.4-0.1-0.6c0-0.3,0-0.5,0.1-0.7c0.1-0.2,0.1-0.4,0.3-0.5
			c0.1-0.1,0.3-0.3,0.5-0.4c0.2-0.1,0.4-0.2,0.7-0.3l0.9-0.2c0.2-0.1,0.4-0.1,0.5-0.2c0.1-0.1,0.1-0.3,0.1-0.5
			c0-0.2-0.1-0.4-0.2-0.5c-0.1-0.1-0.3-0.2-0.5-0.2c-0.2,0-0.4,0.1-0.5,0.2c-0.1,0.1-0.2,0.3-0.2,0.6v0.2h-1.4V85.9z M93.8,87.4
			c-0.1,0-0.2,0.1-0.3,0.1c-0.3,0.1-0.5,0.2-0.7,0.3s-0.2,0.4-0.2,0.6c0,0.2,0,0.4,0.1,0.6s0.2,0.2,0.4,0.2c0.1,0,0.2,0,0.3,0
			c0.1,0,0.2-0.1,0.3-0.2c0.1-0.1,0.2-0.2,0.2-0.3c0.1-0.1,0.1-0.3,0.1-0.4v-1.2C94,87.3,93.9,87.3,93.8,87.4z"/>
		<path class="st1" d="M98.5,82.5v1.7h0.9v1h-0.9v3.2c0,0.2,0,0.4,0.1,0.5s0.2,0.1,0.4,0.1c0.1,0,0.1,0,0.2,0c0.1,0,0.1,0,0.2,0v1.1
			c-0.2,0-0.3,0-0.5,0s-0.3,0-0.5,0c-0.3,0-0.5,0-0.7-0.1s-0.3-0.1-0.4-0.2c-0.1-0.1-0.2-0.3-0.2-0.5c0-0.2-0.1-0.4-0.1-0.7v-3.4
			h-0.8v-1H97v-1.7H98.5z"/>
		<path class="st1" d="M101.2,87.9c0,0.2,0,0.3,0,0.5c0,0.2,0.1,0.3,0.1,0.4c0.1,0.1,0.1,0.2,0.2,0.3c0.1,0.1,0.2,0.1,0.4,0.1
			c0.3,0,0.4-0.1,0.6-0.3c0.1-0.2,0.2-0.5,0.2-0.8h1.4c0,0.7-0.2,1.2-0.6,1.6s-0.9,0.5-1.6,0.5c-0.6,0-1-0.1-1.3-0.3
			c-0.3-0.2-0.5-0.4-0.7-0.7c-0.1-0.3-0.2-0.6-0.3-1c0-0.4,0-0.7,0-1.1c0-0.4,0-0.8,0.1-1.1c0.1-0.4,0.2-0.7,0.3-1
			c0.2-0.3,0.4-0.5,0.7-0.7c0.3-0.2,0.7-0.3,1.2-0.3c0.4,0,0.8,0.1,1.1,0.2c0.3,0.1,0.5,0.3,0.7,0.6c0.2,0.3,0.3,0.6,0.3,0.9
			c0.1,0.4,0.1,0.8,0.1,1.2v0.3h-3V87.9z M102.7,85.9c0-0.2-0.1-0.3-0.1-0.4c-0.1-0.1-0.1-0.2-0.2-0.3c-0.1-0.1-0.2-0.1-0.4-0.1
			s-0.3,0-0.4,0.1c-0.1,0.1-0.2,0.2-0.2,0.3c-0.1,0.1-0.1,0.2-0.1,0.4c0,0.1,0,0.3,0,0.4v0.2h1.6C102.8,86.3,102.7,86.1,102.7,85.9z
			"/>
		<path class="st1" d="M110.5,85.9c0-0.1-0.1-0.3-0.1-0.4c0-0.1-0.1-0.2-0.2-0.3c-0.1-0.1-0.2-0.1-0.4-0.1c-0.2,0-0.3,0-0.5,0.1
			c-0.1,0.1-0.2,0.2-0.3,0.4s-0.1,0.4-0.1,0.6s0,0.6,0,0.9c0,0.4,0,0.7,0,0.9c0,0.3,0.1,0.5,0.1,0.6c0.1,0.2,0.1,0.3,0.2,0.4
			c0.1,0.1,0.2,0.1,0.4,0.1c0.3,0,0.4-0.1,0.6-0.3c0.1-0.2,0.2-0.6,0.2-1.1h1.5c0,0.8-0.2,1.4-0.5,1.8c-0.3,0.4-0.9,0.6-1.7,0.6
			c-0.4,0-0.7,0-1-0.1c-0.3-0.1-0.5-0.3-0.7-0.5s-0.3-0.6-0.4-1c-0.1-0.4-0.1-0.9-0.1-1.5c0-0.6,0.1-1.1,0.2-1.5
			c0.1-0.4,0.3-0.7,0.5-1c0.2-0.2,0.5-0.4,0.8-0.5c0.3-0.1,0.6-0.1,1-0.1c0.7,0,1.2,0.2,1.6,0.6c0.4,0.4,0.5,1,0.5,1.7h-1.5
			C110.5,86.2,110.5,86.1,110.5,85.9z"/>
		<path class="st1" d="M114.1,82.3v7.9h-1.5v-7.9H114.1z"/>
		<path class="st1" d="M115.1,85.9c0.1-0.4,0.2-0.7,0.4-1c0.2-0.3,0.4-0.5,0.7-0.6s0.7-0.2,1.1-0.2c0.5,0,0.8,0.1,1.1,0.2
			c0.3,0.1,0.5,0.3,0.7,0.6c0.2,0.3,0.3,0.6,0.4,1s0.1,0.8,0.1,1.4c0,0.5,0,1-0.1,1.3c-0.1,0.4-0.2,0.7-0.4,1
			c-0.2,0.3-0.4,0.5-0.7,0.6c-0.3,0.1-0.7,0.2-1.1,0.2c-0.5,0-0.8,0-1.1-0.2s-0.5-0.3-0.7-0.6c-0.2-0.3-0.3-0.6-0.4-1
			s-0.1-0.8-0.1-1.4C115,86.7,115,86.2,115.1,85.9z M116.5,88c0,0.3,0,0.5,0.1,0.7c0.1,0.2,0.1,0.3,0.2,0.4c0.1,0.1,0.3,0.2,0.4,0.2
			c0.3,0,0.5-0.2,0.6-0.5c0.1-0.3,0.2-0.9,0.2-1.6c0-0.7-0.1-1.3-0.2-1.6c-0.1-0.3-0.3-0.5-0.6-0.5c-0.2,0-0.3,0.1-0.4,0.2
			c-0.1,0.1-0.2,0.2-0.2,0.4c-0.1,0.2-0.1,0.4-0.1,0.7c0,0.3,0,0.5,0,0.8S116.5,87.8,116.5,88z"/>
		<path class="st1" d="M123.5,89.5c-0.2,0.3-0.4,0.5-0.6,0.6c-0.3,0.1-0.6,0.2-0.9,0.2c-0.5,0-0.9-0.1-1.1-0.4s-0.4-0.7-0.4-1.3
			v-4.4h1.5v4.1c0,0.3,0.1,0.5,0.2,0.6c0.1,0.1,0.3,0.2,0.5,0.2c0.5,0,0.8-0.3,0.8-1v-3.9h1.5v5.9h-1.5L123.5,89.5L123.5,89.5z"/>
		<path class="st1" d="M129,89.5c-0.2,0.3-0.4,0.5-0.6,0.6s-0.5,0.2-0.8,0.2c-0.6,0-1.1-0.2-1.4-0.7c-0.3-0.5-0.4-1.3-0.4-2.4
			s0.1-1.9,0.4-2.4c0.3-0.5,0.8-0.7,1.4-0.7c0.3,0,0.5,0.1,0.7,0.2c0.2,0.1,0.4,0.3,0.5,0.5h0v-2.5h1.5v7.9H129L129,89.5L129,89.5z
			 M127.5,88.7c0.1,0.3,0.3,0.5,0.6,0.5c0.3,0,0.6-0.2,0.7-0.5c0.1-0.3,0.1-0.8,0.1-1.5s0-1.1-0.1-1.5c-0.1-0.3-0.3-0.5-0.7-0.5
			c-0.3,0-0.5,0.2-0.6,0.5c-0.1,0.3-0.1,0.8-0.1,1.5S127.4,88.3,127.5,88.7z"/>
	</g>
</g>
<g>
	<g>
		<path class="st1" d="M66.4,48.8c0,0.2,0,0.3,0,0.5s0.1,0.3,0.2,0.4c0.1,0.1,0.2,0.2,0.3,0.2s0.3,0.1,0.5,0.1
			c0.2,0,0.5-0.1,0.7-0.2c0.2-0.2,0.3-0.4,0.3-0.7c0-0.2,0-0.3-0.1-0.5c0-0.1-0.1-0.2-0.2-0.3c-0.1-0.1-0.3-0.2-0.4-0.3
			c-0.2-0.1-0.4-0.2-0.7-0.3c-0.4-0.1-0.7-0.2-0.9-0.4c-0.3-0.1-0.5-0.3-0.6-0.5c-0.2-0.2-0.3-0.4-0.4-0.6c-0.1-0.2-0.1-0.5-0.1-0.9
			c0-0.8,0.2-1.4,0.6-1.7c0.4-0.4,1-0.6,1.8-0.6c0.4,0,0.7,0,1,0.1c0.3,0.1,0.6,0.2,0.8,0.4c0.2,0.2,0.4,0.4,0.5,0.7
			c0.1,0.3,0.2,0.6,0.2,1v0.2h-1.5c0-0.4-0.1-0.7-0.2-0.9c-0.1-0.2-0.4-0.3-0.7-0.3c-0.2,0-0.3,0-0.4,0.1c-0.1,0.1-0.2,0.1-0.3,0.2
			c-0.1,0.1-0.1,0.2-0.1,0.3c0,0.1,0,0.2,0,0.3c0,0.2,0.1,0.4,0.2,0.6s0.3,0.3,0.7,0.5l1.2,0.5c0.3,0.1,0.5,0.3,0.7,0.4
			c0.2,0.1,0.3,0.3,0.5,0.5c0.1,0.2,0.2,0.3,0.2,0.5s0.1,0.4,0.1,0.7c0,0.8-0.2,1.4-0.7,1.8c-0.5,0.4-1.1,0.6-2,0.6
			c-0.9,0-1.5-0.2-1.9-0.6c-0.4-0.4-0.6-0.9-0.6-1.7v-0.3h1.6V48.8z"/>
		<path class="st1" d="M73.8,50.3c-0.2,0.3-0.4,0.5-0.6,0.6c-0.3,0.1-0.6,0.2-0.9,0.2c-0.5,0-0.9-0.1-1.1-0.4s-0.4-0.7-0.4-1.3v-4.4
			h1.5v4.1c0,0.3,0.1,0.5,0.2,0.6c0.1,0.1,0.3,0.2,0.5,0.2c0.5,0,0.8-0.3,0.8-1v-3.9h1.5V51h-1.5L73.8,50.3L73.8,50.3z"/>
		<path class="st1" d="M77.8,43.1v2.5h0c0.2-0.2,0.3-0.4,0.5-0.5c0.2-0.1,0.4-0.2,0.7-0.2c0.6,0,1.1,0.2,1.4,0.7
			c0.3,0.5,0.4,1.3,0.4,2.4s-0.1,1.9-0.4,2.4c-0.3,0.5-0.8,0.7-1.4,0.7c-0.3,0-0.6-0.1-0.8-0.2s-0.4-0.3-0.6-0.6h0V51h-1.5v-7.9
			H77.8z M78,49.5c0.1,0.3,0.3,0.5,0.7,0.5c0.3,0,0.5-0.2,0.6-0.5c0.1-0.3,0.1-0.8,0.1-1.5s0-1.1-0.1-1.5c-0.1-0.3-0.3-0.5-0.6-0.5
			c-0.3,0-0.6,0.2-0.7,0.5c-0.1,0.3-0.1,0.8-0.1,1.5S77.9,49.2,78,49.5z"/>
		<path class="st1" d="M82.9,49.2c0,0.3,0.1,0.5,0.2,0.6c0.1,0.2,0.3,0.2,0.6,0.2c0.2,0,0.4-0.1,0.6-0.2c0.1-0.1,0.2-0.3,0.2-0.5
			c0-0.2-0.1-0.3-0.2-0.4c-0.1-0.1-0.2-0.2-0.4-0.2l-1.1-0.4c-0.4-0.1-0.7-0.4-0.9-0.6c-0.2-0.3-0.3-0.6-0.3-1c0-0.2,0-0.5,0.1-0.7
			c0.1-0.2,0.2-0.4,0.4-0.6c0.2-0.2,0.4-0.3,0.7-0.4c0.3-0.1,0.6-0.1,1-0.1c0.7,0,1.2,0.1,1.5,0.4s0.5,0.7,0.5,1.2v0.2h-1.4
			c0-0.3,0-0.5-0.1-0.7c-0.1-0.1-0.3-0.2-0.5-0.2c-0.2,0-0.4,0.1-0.5,0.2c-0.1,0.1-0.2,0.3-0.2,0.5c0,0.1,0,0.3,0.1,0.4
			c0.1,0.1,0.3,0.2,0.5,0.3l0.9,0.3c0.5,0.2,0.8,0.4,1,0.6c0.2,0.3,0.3,0.6,0.3,1.1c0,0.3-0.1,0.6-0.2,0.8c-0.1,0.2-0.3,0.4-0.5,0.6
			c-0.2,0.2-0.4,0.3-0.7,0.3c-0.3,0.1-0.6,0.1-0.9,0.1c-0.4,0-0.8,0-1.1-0.1c-0.3-0.1-0.5-0.2-0.7-0.4c-0.2-0.2-0.3-0.4-0.3-0.6
			c-0.1-0.2-0.1-0.5-0.1-0.8V49h1.4V49.2z"/>
		<path class="st1" d="M89.5,46.8c0-0.1-0.1-0.3-0.1-0.4c0-0.1-0.1-0.2-0.2-0.3C89.1,46,89,46,88.8,46c-0.2,0-0.3,0-0.5,0.1
			c-0.1,0.1-0.2,0.2-0.3,0.4S88,46.9,88,47.1s0,0.6,0,0.9c0,0.4,0,0.7,0,0.9c0,0.3,0.1,0.5,0.1,0.6c0.1,0.2,0.1,0.3,0.2,0.4
			c0.1,0.1,0.2,0.1,0.4,0.1c0.3,0,0.4-0.1,0.6-0.3c0.1-0.2,0.2-0.6,0.2-1.1H91c0,0.8-0.2,1.4-0.5,1.8c-0.3,0.4-0.9,0.6-1.7,0.6
			c-0.4,0-0.7,0-1-0.1c-0.3-0.1-0.5-0.3-0.7-0.5s-0.3-0.6-0.4-1c-0.1-0.4-0.1-0.9-0.1-1.5c0-0.6,0.1-1.1,0.2-1.5
			c0.1-0.4,0.3-0.7,0.5-1c0.2-0.2,0.5-0.4,0.8-0.5c0.3-0.1,0.6-0.1,1-0.1c0.7,0,1.2,0.2,1.6,0.6c0.4,0.4,0.5,1,0.5,1.7h-1.5
			C89.5,47,89.5,46.9,89.5,46.8z"/>
		<path class="st1" d="M93.2,45.1v0.8h0c0.2-0.3,0.3-0.5,0.6-0.7c0.2-0.2,0.5-0.3,0.8-0.3c0,0,0.1,0,0.1,0s0.1,0,0.1,0v1.5
			c-0.1,0-0.2,0-0.2,0c-0.1,0-0.2,0-0.2,0c-0.1,0-0.3,0-0.4,0.1c-0.1,0-0.3,0.1-0.4,0.2c-0.1,0.1-0.2,0.2-0.3,0.3s-0.1,0.3-0.1,0.5
			V51h-1.5v-5.9H93.2z"/>
		<path class="st1" d="M97,43v1.3h-1.5V43H97z M97,45.1V51h-1.5v-5.9H97z"/>
		<path class="st1" d="M99.5,45.1v0.6h0c0.2-0.3,0.4-0.5,0.6-0.6s0.5-0.2,0.8-0.2c0.6,0,1.1,0.2,1.4,0.7c0.3,0.5,0.4,1.3,0.4,2.4
			s-0.1,1.9-0.4,2.4c-0.3,0.5-0.8,0.7-1.4,0.7c-0.3,0-0.5-0.1-0.7-0.2c-0.2-0.1-0.4-0.3-0.5-0.5h0v2.5h-1.5v-7.8H99.5z M99.7,49.5
			c0.1,0.3,0.3,0.5,0.7,0.5c0.3,0,0.5-0.2,0.6-0.5c0.1-0.3,0.1-0.8,0.1-1.5s0-1.1-0.1-1.5c-0.1-0.3-0.3-0.5-0.6-0.5
			c-0.3,0-0.6,0.2-0.7,0.5c-0.1,0.3-0.1,0.8-0.1,1.5S99.6,49.2,99.7,49.5z"/>
		<path class="st1" d="M105.4,43.4v1.7h0.9v1h-0.9v3.2c0,0.2,0,0.4,0.1,0.5s0.2,0.1,0.4,0.1c0.1,0,0.1,0,0.2,0c0.1,0,0.1,0,0.2,0V51
			c-0.2,0-0.3,0-0.5,0s-0.3,0-0.5,0c-0.3,0-0.5,0-0.7-0.1s-0.3-0.1-0.4-0.2c-0.1-0.1-0.2-0.3-0.2-0.5c0-0.2-0.1-0.4-0.1-0.7v-3.4
			h-0.8v-1h0.8v-1.7H105.4z"/>
		<path class="st1" d="M108.4,43v1.3h-1.5V43H108.4z M108.4,45.1V51h-1.5v-5.9H108.4z"/>
		<path class="st1" d="M109.4,46.7c0.1-0.4,0.2-0.7,0.4-1c0.2-0.3,0.4-0.5,0.7-0.6s0.7-0.2,1.1-0.2c0.5,0,0.8,0.1,1.1,0.2
			c0.3,0.1,0.5,0.3,0.7,0.6c0.2,0.3,0.3,0.6,0.4,1s0.1,0.8,0.1,1.4c0,0.5,0,1-0.1,1.3c-0.1,0.4-0.2,0.7-0.4,1
			c-0.2,0.3-0.4,0.5-0.7,0.6c-0.3,0.1-0.7,0.2-1.1,0.2c-0.5,0-0.8,0-1.1-0.2s-0.5-0.3-0.7-0.6c-0.2-0.3-0.3-0.6-0.4-1
			s-0.1-0.8-0.1-1.4C109.3,47.5,109.3,47.1,109.4,46.7z M110.8,48.9c0,0.3,0,0.5,0.1,0.7c0.1,0.2,0.1,0.3,0.2,0.4
			c0.1,0.1,0.3,0.2,0.4,0.2c0.3,0,0.5-0.2,0.6-0.5c0.1-0.3,0.2-0.9,0.2-1.6c0-0.7-0.1-1.3-0.2-1.6c-0.1-0.3-0.3-0.5-0.6-0.5
			c-0.2,0-0.3,0.1-0.4,0.2c-0.1,0.1-0.2,0.2-0.2,0.4c-0.1,0.2-0.1,0.4-0.1,0.7c0,0.3,0,0.5,0,0.8S110.8,48.6,110.8,48.9z"/>
		<path class="st1" d="M116.2,45.1v0.7h0c0.2-0.3,0.4-0.5,0.6-0.6s0.6-0.2,0.9-0.2c0.5,0,0.9,0.1,1.1,0.4c0.3,0.3,0.4,0.7,0.4,1.3
			V51h-1.5v-4.1c0-0.3-0.1-0.5-0.2-0.6c-0.1-0.1-0.3-0.2-0.5-0.2c-0.5,0-0.8,0.3-0.8,1V51h-1.5v-5.9H116.2z"/>
	</g>
</g>
<g>
	<g>
		<path class="st1" d="M193.8,82.3c0.4,0,0.7,0.1,1,0.2c0.3,0.1,0.5,0.3,0.7,0.5c0.2,0.2,0.3,0.5,0.4,0.8s0.1,0.6,0.1,0.9
			c0,0.4-0.1,0.8-0.2,1.1c-0.1,0.3-0.3,0.5-0.5,0.7c-0.2,0.2-0.5,0.3-0.8,0.4c-0.3,0.1-0.6,0.1-1,0.1h-0.8v3.1h-1.6v-7.9H193.8z
			 M193.3,85.9c0.3,0,0.6-0.1,0.8-0.3s0.3-0.5,0.3-0.9c0-0.4-0.1-0.7-0.3-0.9c-0.2-0.2-0.5-0.3-0.8-0.3h-0.7v2.4H193.3z"/>
		<path class="st1" d="M198.2,84.2V85h0c0.2-0.3,0.3-0.5,0.6-0.7c0.2-0.2,0.5-0.3,0.8-0.3c0,0,0.1,0,0.1,0s0.1,0,0.1,0v1.5
			c-0.1,0-0.2,0-0.2,0s-0.2,0-0.2,0c-0.1,0-0.3,0-0.4,0.1c-0.1,0-0.3,0.1-0.4,0.2c-0.1,0.1-0.2,0.2-0.3,0.3
			c-0.1,0.1-0.1,0.3-0.1,0.5v3.6h-1.5v-5.9H198.2z"/>
		<path class="st1" d="M202,82.2v1.3h-1.5v-1.3H202z M202,84.2v5.9h-1.5v-5.9H202z"/>
		<path class="st1" d="M207.3,84.2l-1.5,5.9h-1.8l-1.5-5.9h1.6l0.8,4.2h0l0.8-4.2H207.3z"/>
		<path class="st1" d="M207.9,85.9c0-0.3,0.1-0.6,0.2-0.9c0.1-0.2,0.3-0.4,0.4-0.6c0.2-0.1,0.4-0.2,0.7-0.3s0.5-0.1,0.8-0.1
			c0.5,0,0.8,0,1.1,0.1c0.3,0.1,0.5,0.2,0.6,0.4c0.2,0.2,0.3,0.4,0.3,0.6s0.1,0.5,0.1,0.7V89c0,0.3,0,0.5,0,0.6s0.1,0.3,0.1,0.5
			h-1.5c-0.1-0.1-0.1-0.2-0.1-0.3c0-0.1,0-0.2-0.1-0.3h0c-0.2,0.3-0.4,0.5-0.6,0.6s-0.5,0.1-0.9,0.1c-0.3,0-0.5,0-0.7-0.1
			c-0.2-0.1-0.3-0.2-0.4-0.4c-0.1-0.2-0.2-0.3-0.2-0.5c-0.1-0.2-0.1-0.4-0.1-0.6c0-0.3,0-0.5,0.1-0.7c0.1-0.2,0.1-0.4,0.3-0.5
			c0.1-0.1,0.3-0.3,0.5-0.4c0.2-0.1,0.4-0.2,0.7-0.3l0.9-0.2c0.2-0.1,0.4-0.1,0.5-0.2c0.1-0.1,0.1-0.3,0.1-0.5
			c0-0.2-0.1-0.4-0.2-0.5c-0.1-0.1-0.3-0.2-0.5-0.2c-0.2,0-0.4,0.1-0.5,0.2c-0.1,0.1-0.2,0.3-0.2,0.6v0.2h-1.4V85.9z M210.3,87.4
			c-0.1,0-0.2,0.1-0.3,0.1c-0.3,0.1-0.5,0.2-0.7,0.3s-0.2,0.4-0.2,0.6c0,0.2,0,0.4,0.1,0.6s0.2,0.2,0.4,0.2c0.1,0,0.2,0,0.3,0
			s0.2-0.1,0.3-0.2c0.1-0.1,0.2-0.2,0.2-0.3c0.1-0.1,0.1-0.3,0.1-0.4v-1.2C210.6,87.3,210.5,87.3,210.3,87.4z"/>
		<path class="st1" d="M215,82.5v1.7h0.9v1H215v3.2c0,0.2,0,0.4,0.1,0.5c0.1,0.1,0.2,0.1,0.4,0.1c0.1,0,0.1,0,0.2,0
			c0.1,0,0.1,0,0.2,0v1.1c-0.2,0-0.3,0-0.5,0c-0.2,0-0.3,0-0.5,0c-0.3,0-0.5,0-0.7-0.1c-0.2,0-0.3-0.1-0.4-0.2s-0.2-0.3-0.2-0.5
			c0-0.2-0.1-0.4-0.1-0.7v-3.4h-0.8v-1h0.8v-1.7H215z"/>
		<path class="st1" d="M217.7,87.9c0,0.2,0,0.3,0,0.5s0.1,0.3,0.1,0.4c0.1,0.1,0.1,0.2,0.2,0.3c0.1,0.1,0.2,0.1,0.4,0.1
			c0.3,0,0.4-0.1,0.6-0.3c0.1-0.2,0.2-0.5,0.2-0.8h1.4c0,0.7-0.2,1.2-0.6,1.6c-0.3,0.4-0.9,0.5-1.6,0.5c-0.5,0-1-0.1-1.3-0.3
			c-0.3-0.2-0.5-0.4-0.7-0.7c-0.1-0.3-0.2-0.6-0.3-1s0-0.7,0-1.1c0-0.4,0-0.8,0.1-1.1c0.1-0.4,0.2-0.7,0.3-1
			c0.2-0.3,0.4-0.5,0.7-0.7c0.3-0.2,0.7-0.3,1.2-0.3c0.4,0,0.8,0.1,1.1,0.2c0.3,0.1,0.5,0.3,0.7,0.6c0.2,0.3,0.3,0.6,0.3,0.9
			c0.1,0.4,0.1,0.8,0.1,1.2v0.3h-3V87.9z M219.3,85.9c0-0.2-0.1-0.3-0.1-0.4c-0.1-0.1-0.1-0.2-0.2-0.3s-0.2-0.1-0.4-0.1
			c-0.2,0-0.3,0-0.4,0.1c-0.1,0.1-0.2,0.2-0.2,0.3c-0.1,0.1-0.1,0.2-0.1,0.4c0,0.1,0,0.3,0,0.4v0.2h1.6
			C219.3,86.3,219.3,86.1,219.3,85.9z"/>
		<path class="st1" d="M227,85.9c0-0.1-0.1-0.3-0.1-0.4c0-0.1-0.1-0.2-0.2-0.3c-0.1-0.1-0.2-0.1-0.4-0.1c-0.2,0-0.3,0-0.5,0.1
			c-0.1,0.1-0.2,0.2-0.3,0.4s-0.1,0.4-0.1,0.6c0,0.3,0,0.6,0,0.9c0,0.4,0,0.7,0,0.9c0,0.3,0.1,0.5,0.1,0.6c0.1,0.2,0.1,0.3,0.2,0.4
			c0.1,0.1,0.2,0.1,0.4,0.1c0.3,0,0.4-0.1,0.6-0.3s0.2-0.6,0.2-1.1h1.5c0,0.8-0.2,1.4-0.5,1.8s-0.9,0.6-1.7,0.6c-0.4,0-0.7,0-1-0.1
			c-0.3-0.1-0.5-0.3-0.7-0.5c-0.2-0.2-0.3-0.6-0.4-1c-0.1-0.4-0.1-0.9-0.1-1.5c0-0.6,0.1-1.1,0.2-1.5c0.1-0.4,0.3-0.7,0.5-1
			c0.2-0.2,0.5-0.4,0.8-0.5c0.3-0.1,0.6-0.1,1-0.1c0.7,0,1.2,0.2,1.6,0.6c0.4,0.4,0.5,1,0.5,1.7H227C227,86.2,227,86.1,227,85.9z"/>
		<path class="st1" d="M230.6,82.3v7.9h-1.5v-7.9H230.6z"/>
		<path class="st1" d="M231.6,85.9c0.1-0.4,0.2-0.7,0.4-1c0.2-0.3,0.4-0.5,0.7-0.6s0.7-0.2,1.1-0.2c0.5,0,0.8,0.1,1.1,0.2
			c0.3,0.1,0.5,0.3,0.7,0.6c0.2,0.3,0.3,0.6,0.4,1s0.1,0.8,0.1,1.4c0,0.5,0,1-0.1,1.3s-0.2,0.7-0.4,1c-0.2,0.3-0.4,0.5-0.7,0.6
			c-0.3,0.1-0.7,0.2-1.1,0.2c-0.5,0-0.8,0-1.1-0.2s-0.5-0.3-0.7-0.6c-0.2-0.3-0.3-0.6-0.4-1s-0.1-0.8-0.1-1.4
			C231.5,86.7,231.5,86.2,231.6,85.9z M233,88c0,0.3,0,0.5,0.1,0.7s0.1,0.3,0.2,0.4c0.1,0.1,0.3,0.2,0.4,0.2c0.3,0,0.5-0.2,0.6-0.5
			c0.1-0.3,0.2-0.9,0.2-1.6c0-0.7-0.1-1.3-0.2-1.6c-0.1-0.3-0.3-0.5-0.6-0.5c-0.2,0-0.3,0.1-0.4,0.2c-0.1,0.1-0.2,0.2-0.2,0.4
			s-0.1,0.4-0.1,0.7s0,0.5,0,0.8S233,87.8,233,88z"/>
		<path class="st1" d="M240,89.5c-0.2,0.3-0.4,0.5-0.6,0.6c-0.3,0.1-0.5,0.2-0.9,0.2c-0.5,0-0.9-0.1-1.1-0.4
			c-0.3-0.3-0.4-0.7-0.4-1.3v-4.4h1.5v4.1c0,0.3,0.1,0.5,0.2,0.6s0.3,0.2,0.5,0.2c0.5,0,0.8-0.3,0.8-1v-3.9h1.5v5.9H240L240,89.5
			L240,89.5z"/>
		<path class="st1" d="M245.5,89.5c-0.2,0.3-0.4,0.5-0.6,0.6s-0.5,0.2-0.8,0.2c-0.6,0-1.1-0.2-1.4-0.7s-0.4-1.3-0.4-2.4
			s0.1-1.9,0.4-2.4c0.3-0.5,0.8-0.7,1.4-0.7c0.3,0,0.5,0.1,0.7,0.2c0.2,0.1,0.4,0.3,0.5,0.5h0v-2.5h1.5v7.9h-1.5L245.5,89.5
			L245.5,89.5z M244,88.7c0.1,0.3,0.3,0.5,0.6,0.5c0.3,0,0.6-0.2,0.7-0.5c0.1-0.3,0.1-0.8,0.1-1.5s0-1.1-0.1-1.5
			c-0.1-0.3-0.3-0.5-0.7-0.5c-0.3,0-0.5,0.2-0.6,0.5c-0.1,0.3-0.1,0.8-0.1,1.5S243.9,88.3,244,88.7z"/>
	</g>
</g>
<path class="st27" d="M286.1,215H42.2c-6.3,0-11.5-5.2-11.5-11.5V41.6c0-6.3,5.2-11.5,11.5-11.5h243.9c6.3,0,11.5,5.2,11.5,11.5
	v161.9C297.6,209.8,292.4,215,286.1,215z"/>
<g>
	<path class="st1" d="M74.3,74.2c0-0.8,0-1.7,0-2.5c0-0.7,0.4-1.3,1-1.5c0.5-0.3,1.2-0.2,1.7,0.2c0.4,0.3,0.6,0.8,0.6,1.3
		c0,1.6,0,3.3,0,4.9c0.1,0.9-0.6,1.7-1.5,1.7c-0.3,0-0.7-0.1-1-0.2c-0.5-0.3-0.8-0.9-0.8-1.6C74.3,75.8,74.3,75,74.3,74.2L74.3,74.2
		z"/>
	<path class="st1" d="M97.8,71.2c0,0.8,0,1.6,0,2.3c0,1.1-0.6,1.8-1.6,1.8c-0.8,0-1.4-0.5-1.6-1.2c0-0.2-0.1-0.4-0.1-0.6
		c0-1.6,0-3.1,0-4.6c-0.1-0.6,0.2-1.3,0.7-1.6c0.7-0.5,1.7-0.3,2.2,0.5c0.1,0.2,0.2,0.4,0.2,0.6c0,0.1,0.1,0.2,0.1,0.3
		C97.8,69.5,97.8,70.4,97.8,71.2L97.8,71.2z"/>
	<path class="st1" d="M102.8,71.9c0-0.8,0-1.7,0-2.5c0-0.9,0.6-1.6,1.5-1.7c0,0,0,0,0,0c0.9,0,1.6,0.6,1.6,1.5c0,0,0,0.1,0,0.1
		c0,1.8,0,3.5,0,5.2c0,0.9-0.7,1.6-1.6,1.6c0,0,0,0,0,0c-0.9,0-1.5-0.7-1.5-1.6c0,0,0-0.1,0-0.1L102.8,71.9L102.8,71.9z"/>
	<path class="st1" d="M78.4,72.1c0-0.9,0-1.7,0-2.6c0-0.9,0.6-1.6,1.5-1.6c0.9,0,1.6,0.6,1.6,1.5c0,1.8,0,3.6,0,5.4
		c-0.1,0.9-0.8,1.5-1.7,1.5c-0.9-0.1-1.5-0.8-1.5-1.7L78.4,72.1z"/>
	<path class="st1" d="M86.5,71.1c0-0.8,0-1.6,0-2.5c-0.1-0.9,0.6-1.6,1.4-1.7c0.9-0.1,1.6,0.6,1.7,1.4c0,0.1,0,0.2,0,0.3
		c0,1.6,0,3.3,0,4.9c0.1,0.8-0.5,1.6-1.3,1.7c-0.1,0-0.2,0-0.2,0c-0.9,0-1.6-0.7-1.6-1.5c0-0.1,0-0.1,0-0.2L86.5,71.1L86.5,71.1z"/>
	<path class="st1" d="M98.7,74.2c0-0.9,0-1.7,0-2.6c0-0.8,0.6-1.5,1.4-1.6c0.8-0.1,1.6,0.5,1.7,1.3c0,0.1,0,0.2,0,0.3
		c0,1.7,0,3.4,0,5.1c0,0.9-0.6,1.6-1.5,1.6c-0.9,0-1.6-0.6-1.6-1.5l0,0c0,0,0-0.1,0-0.1L98.7,74.2z"/>
	<path class="st1" d="M106.8,70.1c0-0.8,0-1.6,0-2.5c-0.1-0.8,0.6-1.6,1.4-1.6c0,0,0.1,0,0.1,0c0.9,0,1.6,0.6,1.6,1.5
		c0,0,0,0.1,0,0.1c0,1.7,0,3.4,0,5.1c0,0.9-0.7,1.6-1.5,1.6c0,0-0.1,0-0.1,0c-0.8,0-1.5-0.7-1.6-1.5c0,0,0-0.1,0-0.1
		C106.8,71.8,106.8,70.9,106.8,70.1z"/>
	<path class="st1" d="M82.5,69.3c0-0.8,0-1.7,0-2.5c0-0.8,0.6-1.5,1.4-1.6c0.8-0.1,1.6,0.5,1.7,1.3c0,0.1,0,0.1,0,0.2
		c0.1,1.8,0,3.6,0,5.4c0,0.9-0.8,1.5-1.6,1.5c-0.9,0-1.5-0.8-1.5-1.6l0,0L82.5,69.3L82.5,69.3z"/>
	<path class="st1" d="M93.7,67.9c0,0.8,0,1.7,0,2.5c0.1,0.9-0.6,1.6-1.5,1.6c0,0-0.1,0-0.1,0c-0.9,0-1.6-0.7-1.6-1.6c0,0,0,0,0,0
		c0-1.7,0-3.4,0-5.1c0-0.9,0.6-1.6,1.5-1.6c0.9,0,1.6,0.6,1.6,1.5c0,0.1,0,0.1,0,0.2C93.7,66.2,93.7,67.1,93.7,67.9z"/>
</g>
<g>
	<path class="st1" d="M191,74.2c0-0.8,0-1.7,0-2.5c0-0.7,0.4-1.3,1-1.5c0.5-0.3,1.2-0.2,1.7,0.2c0.4,0.3,0.6,0.8,0.6,1.3
		c0,1.6,0,3.3,0,4.9c0.1,0.9-0.6,1.7-1.5,1.7c-0.3,0-0.7-0.1-1-0.2c-0.5-0.3-0.8-0.9-0.8-1.6C191,75.8,191,75,191,74.2L191,74.2z"/>
	<path class="st1" d="M214.5,71.2c0,0.8,0,1.6,0,2.3c0,1.1-0.6,1.8-1.6,1.8c-0.8,0-1.4-0.5-1.6-1.2c0-0.2-0.1-0.4-0.1-0.6
		c0-1.6,0-3.1,0-4.6c-0.1-0.6,0.2-1.3,0.7-1.6c0.7-0.5,1.7-0.3,2.2,0.5c0.1,0.2,0.2,0.4,0.2,0.6c0,0.1,0.1,0.2,0.1,0.3
		C214.5,69.5,214.5,70.4,214.5,71.2L214.5,71.2z"/>
	<path class="st1" d="M219.5,71.9c0-0.8,0-1.7,0-2.5c0-0.9,0.6-1.6,1.5-1.7c0,0,0,0,0,0c0.9,0,1.6,0.6,1.6,1.5c0,0,0,0.1,0,0.1
		c0,1.8,0,3.5,0,5.2c0,0.9-0.7,1.6-1.6,1.6c0,0,0,0,0,0c-0.9,0-1.5-0.7-1.5-1.6c0,0,0-0.1,0-0.1L219.5,71.9L219.5,71.9z"/>
	<path class="st1" d="M195.1,72.1c0-0.9,0-1.7,0-2.6c0-0.9,0.6-1.6,1.5-1.6c0.9,0,1.6,0.6,1.6,1.5c0,1.8,0,3.6,0,5.4
		c-0.1,0.9-0.8,1.5-1.7,1.5c-0.9-0.1-1.5-0.8-1.5-1.7V72.1z"/>
	<path class="st1" d="M203.2,71.1c0-0.8,0-1.6,0-2.5c-0.1-0.9,0.6-1.6,1.4-1.7c0.9-0.1,1.6,0.6,1.7,1.4c0,0.1,0,0.2,0,0.3
		c0,1.6,0,3.3,0,4.9c0.1,0.8-0.5,1.6-1.3,1.7c-0.1,0-0.2,0-0.2,0c-0.9,0-1.6-0.7-1.6-1.5c0-0.1,0-0.1,0-0.2L203.2,71.1L203.2,71.1z"
		/>
	<path class="st1" d="M215.4,74.2c0-0.9,0-1.7,0-2.6c0-0.8,0.6-1.5,1.4-1.6c0.8-0.1,1.6,0.5,1.7,1.3c0,0.1,0,0.2,0,0.3
		c0,1.7,0,3.4,0,5.1c0,0.9-0.6,1.6-1.5,1.6c-0.9,0-1.6-0.6-1.6-1.5l0,0c0,0,0-0.1,0-0.1L215.4,74.2z"/>
	<path class="st1" d="M223.5,70.1c0-0.8,0-1.6,0-2.5c-0.1-0.8,0.6-1.6,1.4-1.6c0,0,0.1,0,0.1,0c0.9,0,1.6,0.6,1.6,1.5
		c0,0,0,0.1,0,0.1c0,1.7,0,3.4,0,5.1c0,0.9-0.7,1.6-1.5,1.6c0,0-0.1,0-0.1,0c-0.8,0-1.5-0.7-1.6-1.5c0,0,0-0.1,0-0.1
		C223.5,71.8,223.5,70.9,223.5,70.1z"/>
	<path class="st1" d="M199.2,69.3c0-0.8,0-1.7,0-2.5c0-0.8,0.6-1.5,1.4-1.6c0.8-0.1,1.6,0.5,1.7,1.3c0,0.1,0,0.1,0,0.2
		c0.1,1.8,0,3.6,0,5.4c0,0.9-0.8,1.5-1.6,1.5c-0.9,0-1.5-0.8-1.5-1.6l0,0L199.2,69.3L199.2,69.3z"/>
	<path class="st1" d="M210.4,67.9c0,0.8,0,1.7,0,2.5c0.1,0.9-0.6,1.6-1.5,1.6c0,0-0.1,0-0.1,0c-0.9,0-1.6-0.7-1.6-1.6c0,0,0,0,0,0
		c0-1.7,0-3.4,0-5.1c0-0.9,0.6-1.6,1.5-1.6s1.6,0.6,1.6,1.5c0,0.1,0,0.1,0,0.2C210.4,66.2,210.4,67.1,210.4,67.9z"/>
</g>
<circle class="st28" cx="58.2" cy="28.8" r="8.5"/>
<path class="st29" d="M64.4,28.6c0-3.3-2.7-6.1-6.1-6.1c-3.3,0-6.1,2.7-6.1,6.1c0,2.5,1.6,4.7,3.8,5.6c-0.4,0.1-0.7,0.3-0.7,0.5
	c0,0.2,0.3,0.4,0.8,0.5v13.2l2.6,2.6h0.7l1.5-1.8v-1.5l-1.5-1.1l1.5-0.9v-2.3L59.5,42l1.5-1.5v-5.3c0.5-0.1,0.8-0.3,0.8-0.6
	c0-0.2-0.3-0.4-0.8-0.6V34C63,33,64.4,31,64.4,28.6z M58.5,24.4c0.9,0,1.6,0.7,1.6,1.6c0,0.9-0.7,1.6-1.6,1.6
	c-0.9,0-1.6-0.7-1.6-1.6C57,25.1,57.7,24.4,58.5,24.4z"/>
</svg>
