<?xml version="1.0" encoding="UTF-8"?>
<svg xmlns="http://www.w3.org/2000/svg" xmlns:xlink="http://www.w3.org/1999/xlink" viewBox="0 0 853.6 202.4" width="853.6" height="202.4">
  <defs>
    <linearGradient id="Cool_gray_gradient_1" data-name="Cool gray gradient 1" x1="123.9612" y1="100.0574" x2="357.1612" y2="100.0574" gradientUnits="userSpaceOnUse">
      <stop offset="0" stop-color="#f5f5f4"/>
      <stop offset="1" stop-color="#ececea"/>
    </linearGradient>
    <linearGradient id="Cool_gray_gradient_1-2" data-name="Cool gray gradient 1" x1="365.9612" x2="599.1612" xlink:href="#Cool_gray_gradient_1"/>
    <linearGradient id="Cool_gray_gradient_1-3" data-name="Cool gray gradient 1" x1="607.9612" x2="841.1612" xlink:href="#Cool_gray_gradient_1"/>
    <linearGradient id="linear-gradient" x1="-497.7043" y1="182.0902" x2="-497.7043" y2="151.9424" gradientTransform="translate(564 253.6) scale(1 -1)" gradientUnits="userSpaceOnUse">
      <stop offset=".18" stop-color="#5ea0ef"/>
      <stop offset="1" stop-color="#0078d4"/>
    </linearGradient>
    <linearGradient id="linear-gradient-2" x1="-379.0686" y1="128.0105" x2="-379.0686" y2="145.3286" gradientTransform="translate(564 253.6) scale(1 -1)" gradientUnits="userSpaceOnUse">
      <stop offset="0" stop-color="#0078d4"/>
      <stop offset=".82" stop-color="#5ea0ef"/>
    </linearGradient>
    <linearGradient id="linear-gradient-3" x1="-379.0686" y1="121.3286" x2="-379.0686" y2="128.0105" gradientTransform="translate(564 253.6) scale(1 -1)" gradientUnits="userSpaceOnUse">
      <stop offset=".15" stop-color="#ccc"/>
      <stop offset="1" stop-color="#707070"/>
    </linearGradient>
    <linearGradient id="linear-gradient-4" x1="-267.7842" x2="-267.7842" xlink:href="#linear-gradient-2"/>
    <linearGradient id="linear-gradient-5" x1="-267.7842" x2="-267.7842" xlink:href="#linear-gradient-3"/>
    <linearGradient id="linear-gradient-6" x1="-81.8789" x2="-81.8789" xlink:href="#linear-gradient-2"/>
    <linearGradient id="linear-gradient-7" x1="-81.8789" x2="-81.8789" xlink:href="#linear-gradient-3"/>
    <linearGradient id="linear-gradient-8" x1="159.2412" x2="159.2412" xlink:href="#linear-gradient-2"/>
    <linearGradient id="linear-gradient-9" x1="159.2412" x2="159.2412" xlink:href="#linear-gradient-3"/>
  </defs>
  <g isolation="isolate">
    <g id="Shapes">
      <rect width="853.6" height="202.4" fill="#fff"/>
      <g>
        <g mix-blend-mode="multiply" opacity=".65">
          <rect x="124.9612" y="16.3148" width="233.2" height="169.4852" rx="8" ry="8" fill="#2b436f"/>
          <rect x="124.9612" y="16.3148" width="233.2" height="169.4852" rx="8" ry="8" fill="#2b436f" opacity=".6"/>
        </g>
        <g>
          <rect x="123.9612" y="15.3148" width="233.2" height="169.4852" rx="8" ry="8" fill="url(#Cool_gray_gradient_1)"/>
          <rect x="123.9612" y="15.3148" width="233.2" height="169.4852" rx="8" ry="8" fill="#8ec8e7" opacity=".6"/>
        </g>
      </g>
      <g>
        <g mix-blend-mode="multiply" opacity=".65">
          <rect x="366.9612" y="16.3148" width="233.2" height="169.4852" rx="8" ry="8" fill="#2b436f"/>
          <rect x="366.9612" y="16.3148" width="233.2" height="169.4852" rx="8" ry="8" fill="#2b436f" opacity=".6"/>
        </g>
        <g>
          <rect x="365.9612" y="15.3148" width="233.2" height="169.4852" rx="8" ry="8" fill="url(#Cool_gray_gradient_1-2)"/>
          <rect x="365.9612" y="15.3148" width="233.2" height="169.4852" rx="8" ry="8" fill="#8ec8e7" opacity=".6"/>
        </g>
      </g>
      <g>
        <g mix-blend-mode="multiply" opacity=".65">
          <rect x="608.9612" y="16.3148" width="233.2" height="169.4852" rx="8" ry="8" fill="#2b436f"/>
          <rect x="608.9612" y="16.3148" width="233.2" height="169.4852" rx="8" ry="8" fill="#2b436f" opacity=".6"/>
        </g>
        <g>
          <rect x="607.9612" y="15.3148" width="233.2" height="169.4852" rx="8" ry="8" fill="url(#Cool_gray_gradient_1-3)"/>
          <rect x="607.9612" y="15.3148" width="233.2" height="169.4852" rx="8" ry="8" fill="#8ec8e7" opacity=".6"/>
        </g>
      </g>
      <g>
        <g mix-blend-mode="multiply" opacity=".23">
          <rect x="14.2" y="55.0482" width="827.9612" height="108.7518"/>
          <rect x="14.2" y="55.0482" width="827.9612" height="108.7518" opacity=".2"/>
        </g>
        <g>
          <rect x="13.2" y="54.0482" width="827.9612" height="108.7518" fill="#fff"/>
          <rect x="13.2" y="54.0482" width="827.9612" height="108.7518" fill="#83b9f9" opacity=".2"/>
        </g>
      </g>
      <rect x="132.7859" y="71.6482" width="104.2909" height="73.5518" fill="#fff" stroke="#8e8278" stroke-width=".35"/>
      <g>
        <path d="M81.4116,89.9176c-.0613-3.3784-2.5534-6.2184-5.8952-6.7182-.1373-4.7444-4.0722-8.4918-8.8176-8.3977-3.7633-.0385-7.1362,2.3158-8.3977,5.8616-4.0465.5203-7.0874,3.9485-7.1212,8.0282.164,4.5654,3.9474,8.1623,8.5153,8.0954h14.528c.1225.0175.247.0175.3695,0,3.7589-.0635,6.7831-3.11,6.8189-6.8693Z" fill="url(#linear-gradient)"/>
        <path d="M71.8886,81.9734c-1.4701-2.4389-4.639-3.2242-7.0778-1.754-1.173.7071-2.0165,1.8518-2.3444,3.1817-.2993,1.2954-.1015,2.656.5542,3.8126l-3.9301,3.9805c-.5194.5169-.5215,1.357-.0047,1.8764.0015.0016.0031.0031.0047.0047.2487.2501.5878.3894.9405.3863.3535.007.6941-.1328.9405-.3863l3.9133-3.9637c.4254.2473.8833.4339,1.3604.5542,2.778.6671,5.5708-1.044,6.2379-3.822.3166-1.3182.103-2.708-.5947-3.8703ZM70.9816,85.5004c-.3938,1.6209-1.8422,2.7643-3.5102,2.7712-.2897.0023-.5782-.0373-.8566-.1176-.4249-.0957-.8253-.2787-1.1757-.5375-.3696-.252-.6886-.571-.9405-.9405-.5756-.8518-.7646-1.907-.5207-2.9056.3748-1.6284,1.8224-2.7838,3.4934-2.788.294.0004.587.0342.8734.1008.9311.2464,1.7277.8499,2.217,1.6795.5019.8192.6532,1.8057.4199,2.7377Z" fill="#f2f2f2"/>
        <ellipse cx="67.4546" cy="84.6438" rx="3.611" ry="3.6278" fill="#83b9f9"/>
      </g>
      <g>
        <rect x="171.9428" y="108.2714" width="25.9771" height="17.3181" rx=".8659" ry=".8659" fill="url(#linear-gradient-2)"/>
        <polygon points="189.2609 114.4049 189.2609 119.4416 184.9314 121.9816 184.9314 116.9304 189.2609 114.4049" fill="#50e6ff"/>
        <polygon points="189.2609 114.4049 184.9314 116.9449 180.6019 114.4049 184.9314 111.8793 189.2609 114.4049" fill="#c3f1ff"/>
        <polygon points="184.9314 116.9449 184.9314 121.9816 180.6019 119.4416 180.6019 114.4049 184.9314 116.9449" fill="#9cebff"/>
        <polygon points="180.6019 119.4416 184.9314 116.9304 184.9314 121.9816 180.6019 119.4416" fill="#c3f1ff"/>
        <polygon points="189.2609 119.4416 184.9314 116.9304 184.9314 121.9816 189.2609 119.4416" fill="#9cebff"/>
        <path d="M190.1412,130.8282c-2.5689-.4041-2.6699-2.2514-2.6699-5.2387h-5.0944c0,2.9874-.0866,4.8346-2.6554,5.2387-.7345.0813-1.2889.7042-1.2844,1.4432h12.9886c.0045-.739-.5499-1.3619-1.2844-1.4432Z" fill="url(#linear-gradient-3)"/>
      </g>
      <rect x="244.0704" y="71.6482" width="104.2909" height="73.5518" fill="#fff" stroke="#8e8278" stroke-width=".35"/>
      <g>
        <rect x="283.2272" y="108.2714" width="25.9771" height="17.3181" rx=".8659" ry=".8659" fill="url(#linear-gradient-4)"/>
        <polygon points="300.5453 114.4049 300.5453 119.4416 296.2158 121.9816 296.2158 116.9304 300.5453 114.4049" fill="#50e6ff"/>
        <polygon points="300.5453 114.4049 296.2158 116.9449 291.8863 114.4049 296.2158 111.8793 300.5453 114.4049" fill="#c3f1ff"/>
        <polygon points="296.2158 116.9449 296.2158 121.9816 291.8863 119.4416 291.8863 114.4049 296.2158 116.9449" fill="#9cebff"/>
        <polygon points="291.8863 119.4416 296.2158 116.9304 296.2158 121.9816 291.8863 119.4416" fill="#c3f1ff"/>
        <polygon points="300.5453 119.4416 296.2158 116.9304 296.2158 121.9816 300.5453 119.4416" fill="#9cebff"/>
        <path d="M301.4257,130.8282c-2.5689-.4041-2.6699-2.2514-2.6699-5.2387h-5.0944c0,2.9874-.0866,4.8346-2.6554,5.2387-.7345.0813-1.2889.7042-1.2844,1.4432h12.9886c.0045-.739-.5499-1.3619-1.2844-1.4432Z" fill="url(#linear-gradient-5)"/>
      </g>
      <rect x="429.9756" y="71.6482" width="104.2909" height="73.5518" fill="#fff" stroke="#8e8278" stroke-width=".35"/>
      <g>
        <rect x="469.1325" y="108.2714" width="25.9771" height="17.3181" rx=".8659" ry=".8659" fill="url(#linear-gradient-6)"/>
        <polygon points="486.4506 114.4049 486.4506 119.4416 482.1211 121.9816 482.1211 116.9304 486.4506 114.4049" fill="#50e6ff"/>
        <polygon points="486.4506 114.4049 482.1211 116.9449 477.7915 114.4049 482.1211 111.8793 486.4506 114.4049" fill="#c3f1ff"/>
        <polygon points="482.1211 116.9449 482.1211 121.9816 477.7915 119.4416 477.7915 114.4049 482.1211 116.9449" fill="#9cebff"/>
        <polygon points="477.7915 119.4416 482.1211 116.9304 482.1211 121.9816 477.7915 119.4416" fill="#c3f1ff"/>
        <polygon points="486.4506 119.4416 482.1211 116.9304 482.1211 121.9816 486.4506 119.4416" fill="#9cebff"/>
        <path d="M487.3309,130.8282c-2.5689-.4041-2.6699-2.2514-2.6699-5.2387h-5.0944c0,2.9874-.0866,4.8346-2.6554,5.2387-.7345.0813-1.2889.7042-1.2844,1.4432h12.9886c.0045-.739-.5499-1.3619-1.2844-1.4432Z" fill="url(#linear-gradient-7)"/>
      </g>
      <rect x="671.0957" y="71.6482" width="104.2909" height="73.5518" fill="#fff" stroke="#8e8278" stroke-width=".35"/>
      <g>
        <rect x="710.2526" y="108.2714" width="25.9771" height="17.3181" rx=".8659" ry=".8659" fill="url(#linear-gradient-8)"/>
        <polygon points="727.5707 114.4049 727.5707 119.4416 723.2412 121.9816 723.2412 116.9304 727.5707 114.4049" fill="#50e6ff"/>
        <polygon points="727.5707 114.4049 723.2412 116.9449 718.9117 114.4049 723.2412 111.8793 727.5707 114.4049" fill="#c3f1ff"/>
        <polygon points="723.2412 116.9449 723.2412 121.9816 718.9117 119.4416 718.9117 114.4049 723.2412 116.9449" fill="#9cebff"/>
        <polygon points="718.9117 119.4416 723.2412 116.9304 723.2412 121.9816 718.9117 119.4416" fill="#c3f1ff"/>
        <polygon points="727.5707 119.4416 723.2412 116.9304 723.2412 121.9816 727.5707 119.4416" fill="#9cebff"/>
        <path d="M728.451,130.8282c-2.5689-.4041-2.6699-2.2514-2.6699-5.2387h-5.0944c0,2.9874-.0866,4.8346-2.6554,5.2387-.7345.0813-1.2889.7042-1.2844,1.4432h12.9886c.0045-.739-.5499-1.3619-1.2844-1.4432Z" fill="url(#linear-gradient-9)"/>
      </g>
    </g>
    <g id="Text">
      <g>
        <rect x="36.3486" y="104.6586" width="59.8942" height="31.7414" fill="none"/>
        <path d="M45.0229,116.1838v-2.1875c.3965.332.8271.582,1.292.748.4648.167.9346.25,1.4082.25.2783,0,.5205-.0254.7275-.0752.208-.0508.3809-.1201.5195-.209.1396-.0889.2432-.1934.3115-.3145.0684-.1201.1025-.252.1025-.3926,0-.1914-.0547-.3623-.1641-.5127s-.2588-.29-.4473-.417c-.1895-.1279-.4141-.251-.6738-.3691-.2598-.1191-.54-.2393-.8408-.3623-.7656-.3193-1.3369-.709-1.7119-1.1689-.377-.4609-.5645-1.0166-.5645-1.668,0-.5107.1025-.9492.3076-1.3164.2051-.3662.4844-.6689.8369-.9053.3535-.2373.7627-.4111,1.2275-.5234.4648-.1113.957-.167,1.4766-.167.5107,0,.9629.0303,1.3564.0918.3945.0615.7578.1562,1.0908.2842v2.0439c-.1641-.1143-.3428-.2148-.5361-.3008-.1943-.0869-.3936-.1582-.5986-.2158-.2051-.0566-.4092-.0986-.6123-.126-.2021-.0273-.3945-.041-.5771-.041-.251,0-.4785.0234-.6836.0713s-.3779.1152-.5195.2021c-.1416.0859-.251.1904-.3281.3105-.0771.1211-.1162.2568-.1162.4072,0,.1641.043.3105.1299.4404s.21.2529.3691.3691.3535.2305.5811.3418c.2275.1123.4854.2266.7725.3457.3916.1641.7441.3379,1.0557.5225.3125.1846.5801.3936.8037.626s.3945.498.5127.7959c.1182.2988.1777.6465.1777,1.043,0,.5469-.1035,1.0059-.3105,1.377-.208.3721-.4893.6729-.8447.9023-.3555.2305-.7686.3955-1.2412.4961-.4707.0996-.9688.1504-1.4932.1504-.5381,0-1.0498-.0459-1.5342-.1367-.4863-.0918-.9062-.2285-1.2617-.4102Z" fill="#2f2f2f"/>
        <path d="M59.3988,113.675h-4.5664c.0732,1.0156.7129,1.5244,1.9209,1.5244.7705,0,1.4473-.1826,2.0303-.5469v1.5586c-.6475.3457-1.4883.5195-2.5225.5195-1.1299,0-2.0078-.3135-2.6318-.9404-.624-.626-.9365-1.5-.9365-2.6211,0-1.1621.3369-2.083,1.0117-2.7617.6748-.6797,1.5039-1.0186,2.4883-1.0186,1.0205,0,1.8105.3027,2.3691.9092.5576.6055.8369,1.4287.8369,2.4678v.9092ZM57.3959,112.3488c0-1.0029-.4053-1.5039-1.2168-1.5039-.3467,0-.6465.1436-.8984.4307-.2539.2871-.4072.6445-.4619,1.0732h2.5771Z" fill="#2f2f2f"/>
        <path d="M66.5639,116.5598h-2.0439v-1.0049h-.0273c-.4697.7832-1.1641,1.1758-2.085,1.1758-.6787,0-1.2139-.1924-1.6025-.5781-.3906-.3848-.585-.8984-.585-1.541,0-1.3584.8047-2.1426,2.4131-2.3516l1.9004-.2529c0-.7656-.415-1.1484-1.2441-1.1484-.834,0-1.627.248-2.3789.7451v-1.627c.3008-.1553.7119-.292,1.2344-.4102.5215-.1191.9961-.1777,1.4248-.1777,1.9961,0,2.9941.9951,2.9941,2.9873v4.1836ZM64.5336,113.716v-.4717l-1.2715.1641c-.7021.0908-1.0527.4072-1.0527.9502,0,.2461.0859.4473.2559.6045.1719.1572.4023.2363.6943.2363.4053,0,.7363-.1406.9912-.4209s.3828-.6348.3828-1.0625Z" fill="#2f2f2f"/>
        <path d="M72.8266,111.508c-.2598-.1416-.5625-.2119-.9092-.2119-.4697,0-.8359.1719-1.1006.5156-.2646.3447-.3965.8125-.3965,1.4053v3.3428h-2.1602v-7h2.1602v1.2988h.0273c.3418-.9482.957-1.4219,1.8457-1.4219.2275,0,.4053.0273.5332.082v1.9893Z" fill="#2f2f2f"/>
        <path d="M79.2006,116.3068c-.4873.2822-1.1914.4238-2.1123.4238-1.0752,0-1.9463-.3262-2.6113-.9775-.665-.6523-.998-1.4932-.998-2.5225,0-1.1895.3564-2.127,1.0703-2.8135.7129-.6855,1.666-1.0283,2.8604-1.0283.8252,0,1.4219.1094,1.791.3281v1.832c-.4512-.3379-.9551-.5059-1.5107-.5059-.6201,0-1.1113.1807-1.4727.543-.3633.3623-.5439.8623-.5439,1.501,0,.6191.1729,1.1064.5195,1.459.3467.3535.8223.5303,1.4287.5303.5381,0,1.0645-.1689,1.5791-.5059v1.7363Z" fill="#2f2f2f"/>
        <path d="M87.4379,116.5598h-2.1533v-3.9785c0-1.0254-.374-1.5381-1.1211-1.5381-.3828,0-.6924.1436-.9297.4307s-.3555.6514-.3555,1.0938v3.9922h-2.1602v-10.3633h2.1602v4.4023h.0273c.5283-.8066,1.2461-1.21,2.1533-1.21,1.5859,0,2.3789.957,2.3789,2.8711v4.2998Z" fill="#2f2f2f"/>
        <path d="M43.89,131.3752v-1.75c.3555.2139.71.374,1.0625.4785.3535.1045.6875.1572,1.002.1572.3828,0,.6846-.0527.9062-.1572.2207-.1045.3311-.2646.3311-.4785,0-.1367-.0498-.251-.1504-.3418-.1006-.0918-.2295-.1709-.3857-.2393-.1582-.0684-.3301-.1299-.5166-.1846s-.3672-.1162-.54-.1846c-.2783-.1055-.5234-.2178-.7344-.3389-.2129-.1201-.3906-.2607-.5332-.4199-.1445-.1602-.2539-.3447-.3281-.5537-.0762-.21-.1133-.458-.1133-.7451,0-.3926.0859-.7295.2559-1.0117.1719-.2832.3994-.5137.6836-.6943.2852-.1797.6113-.3115.9785-.3965.3662-.084.748-.126,1.1445-.126.3096,0,.624.0234.9434.0713s.6338.1172.9434.209v1.668c-.2734-.1602-.5664-.2793-.8789-.3594-.3115-.0791-.6182-.1191-.9189-.1191-.1416,0-.2744.0127-.3994.0371-.126.0254-.2363.0615-.332.1094s-.1709.1094-.2256.1846-.082.1611-.082.2568c0,.127.041.2363.123.3281.082.0908.1895.1699.3213.2354.1318.0664.2793.126.4414.1777.1611.0527.3223.1064.4814.1611.2871.0996.5469.209.7793.3281.2324.1182.4316.2568.5986.417.166.1592.293.3457.3828.5605.0879.2139.1328.4688.1328.7656,0,.4141-.0898.7686-.2695,1.0635-.1807.293-.4199.5332-.7188.7168-.2979.1855-.6426.3193-1.0312.4043-.3906.084-.7949.126-1.2139.126-.7705,0-1.4834-.1182-2.1396-.3555Z" fill="#2f2f2f"/>
        <path d="M56.8393,128.675h-4.5664c.0732,1.0156.7129,1.5244,1.9209,1.5244.7705,0,1.4473-.1826,2.0303-.5469v1.5586c-.6475.3467-1.4883.5195-2.5225.5195-1.1299,0-2.0078-.3135-2.6318-.9404-.624-.626-.9365-1.5-.9365-2.6211,0-1.1621.3369-2.083,1.0117-2.7617.6748-.6797,1.5039-1.0186,2.4883-1.0186,1.0205,0,1.8105.3027,2.3691.9092.5576.6055.8369,1.4287.8369,2.4678v.9092ZM54.8363,127.3488c0-1.0029-.4053-1.5039-1.2168-1.5039-.3467,0-.6465.1436-.8984.4307-.2539.2871-.4072.6445-.4619,1.0732h2.5771Z" fill="#2f2f2f"/>
        <path d="M62.7709,126.508c-.2598-.1416-.5625-.2119-.9092-.2119-.4697,0-.8359.1719-1.1006.5156-.2646.3447-.3965.8125-.3965,1.4053v3.3428h-2.1602v-7h2.1602v1.2988h.0273c.3418-.9482.957-1.4219,1.8457-1.4219.2275,0,.4053.0273.5332.082v1.9893Z" fill="#2f2f2f"/>
        <path d="M70.8695,124.5598l-2.6045,7h-2.4609l-2.4814-7h2.3105l1.2168,4.3135c.1367.4873.2168.9023.2393,1.2441h.0273c.0322-.3242.1162-.7246.2529-1.2031l1.2441-4.3545h2.2559Z" fill="#2f2f2f"/>
        <path d="M72.9154,123.4523c-.3643,0-.6631-.1084-.8955-.3252-.2324-.2158-.3486-.4814-.3486-.7959,0-.3242.1162-.5879.3486-.793s.5312-.3076.8955-.3076c.3691,0,.6689.1025.8994.3076.2295.2051.3447.4688.3447.793,0,.3281-.1152.5967-.3447.8066-.2305.209-.5303.3145-.8994.3145ZM73.9818,131.5598h-2.1602v-7h2.1602v7Z" fill="#2f2f2f"/>
        <path d="M81.0619,131.3068c-.4873.2822-1.1914.4238-2.1123.4238-1.0752,0-1.9463-.3262-2.6113-.9775-.665-.6523-.998-1.4932-.998-2.5225,0-1.1895.3564-2.127,1.0703-2.8135.7129-.6855,1.666-1.0283,2.8604-1.0283.8252,0,1.4219.1094,1.791.3281v1.832c-.4512-.3379-.9551-.5059-1.5107-.5059-.6201,0-1.1113.1807-1.4727.543-.3633.3623-.5439.8623-.5439,1.501,0,.6191.1729,1.1064.5195,1.459.3467.3535.8223.5303,1.4287.5303.5381,0,1.0645-.1689,1.5791-.5059v1.7363Z" fill="#2f2f2f"/>
        <path d="M88.7768,128.675h-4.5664c.0732,1.0156.7129,1.5244,1.9209,1.5244.7705,0,1.4473-.1826,2.0303-.5469v1.5586c-.6475.3467-1.4883.5195-2.5225.5195-1.1299,0-2.0078-.3135-2.6318-.9404-.624-.626-.9365-1.5-.9365-2.6211,0-1.1621.3369-2.083,1.0117-2.7617.6748-.6797,1.5039-1.0186,2.4883-1.0186,1.0205,0,1.8105.3027,2.3691.9092.5576.6055.8369,1.4287.8369,2.4678v.9092ZM86.7738,127.3488c0-1.0029-.4053-1.5039-1.2168-1.5039-.3467,0-.6465.1436-.8984.4307-.2539.2871-.4072.6445-.4619,1.0732h2.5771Z" fill="#2f2f2f"/>
      </g>
      <g>
        <path d="M165.6703,94.2346h-1.3672l-1.6406-2.748c-.1504-.2549-.2959-.4727-.4375-.6523-.1416-.1807-.2861-.3271-.4336-.4414-.1484-.1133-.3086-.1973-.4785-.249-.1719-.0527-.3643-.0791-.5781-.0791h-.9434v4.1699h-1.1484v-9.8027h2.9258c.4287,0,.8242.0537,1.1855.1611.3633.1064.6777.2695.9434.4883.2676.2188.4756.4912.626.8174.1504.3252.2256.707.2256,1.1445,0,.3418-.0508.6553-.1543.9404-.1016.2842-.248.5391-.4375.7617-.1885.2236-.416.4141-.6836.5713-.2656.1572-.5654.2793-.8984.3652v.0273c.1641.0732.3066.1562.4277.25.1201.0928.2354.2041.3447.3311.1094.1279.2178.2725.3252.4346.1064.1611.2266.3496.3584.5635l1.8389,2.9463ZM159.7914,85.4709v3.5547h1.5586c.2871,0,.5527-.043.7969-.1299.2432-.0859.4541-.2109.6318-.3721.1777-.1621.3164-.3604.417-.5947.1006-.2354.1504-.498.1504-.79,0-.5234-.1699-.9326-.5098-1.2266-.3389-.2939-.8301-.4414-1.4727-.4414h-1.5723Z" fill="#2f2f2f"/>
        <path d="M172.2826,91.0148h-4.9424c.0186.7793.2275,1.3809.6289,1.8047s.9521.6357,1.6543.6357c.7881,0,1.5127-.2598,2.1738-.7793v1.0527c-.6152.4473-1.4287.6699-2.4404.6699-.9893,0-1.7656-.3174-2.3311-.9531s-.8477-1.5303-.8477-2.6836c0-1.0889.3086-1.9766.9258-2.6621.6182-.6865,1.3848-1.0293,2.3008-1.0293s1.625.2969,2.126.8887c.501.5928.752,1.415.752,2.4678v.5879ZM171.1342,90.0646c-.0049-.6465-.1611-1.1504-.4678-1.5107-.3086-.3594-.7354-.54-1.2822-.54-.5283,0-.9775.1895-1.3467.5674-.3691.3789-.5967.873-.6836,1.4834h3.7803Z" fill="#2f2f2f"/>
        <path d="M175.1137,93.2229h-.0273v4.2314h-1.1211v-10.2197h1.1211v1.2305h.0273c.5518-.9297,1.3584-1.3945,2.4199-1.3945.9023,0,1.6064.3135,2.1123.9404.5059.626.7588,1.4658.7588,2.5186,0,1.1719-.2852,2.1094-.8545,2.8135s-1.3486,1.0557-2.3379,1.0557c-.9072,0-1.6064-.3916-2.0986-1.1758ZM175.0863,90.3996v.9775c0,.5791.1875,1.0703.5645,1.4736.375.4033.8525.6045,1.4316.6045.6787,0,1.2109-.2598,1.5957-.7793.3857-.5195.5781-1.2412.5781-2.167,0-.7793-.1797-1.3896-.54-1.832-.3604-.4414-.8477-.6631-1.4629-.6631-.6514,0-1.1758.2266-1.5723.6807-.3965.4531-.5947,1.0215-.5947,1.7051Z" fill="#2f2f2f"/>
        <path d="M183.2553,94.2346h-1.1211v-10.3633h1.1211v10.3633Z" fill="#2f2f2f"/>
        <path d="M185.9418,85.4572c-.2002,0-.3711-.0684-.5127-.2051s-.2119-.3096-.2119-.5195c0-.209.0703-.3838.2119-.5225.1416-.1396.3125-.209.5127-.209.2051,0,.3789.0693.5234.209.1426.1387.2148.3135.2148.5225,0,.2012-.0723.3721-.2148.5127-.1445.1416-.3184.2119-.5234.2119ZM186.4887,94.2346h-1.1211v-7h1.1211v7Z" fill="#2f2f2f"/>
        <path d="M193.4018,93.9133c-.5381.3242-1.1758.4854-1.9141.4854-.998,0-1.8037-.3242-2.416-.9736-.6133-.6494-.9199-1.4912-.9199-2.5264,0-1.1523.3301-2.0791.9912-2.7783.6611-.7002,1.543-1.0498,2.6455-1.0498.6152,0,1.1572.1143,1.627.3418v1.1484c-.5195-.3643-1.0752-.5469-1.668-.5469-.7158,0-1.3027.2568-1.7598.7695-.459.5127-.6875,1.1855-.6875,2.0195,0,.8203.2148,1.4678.6465,1.9414.4297.4746,1.0078.7109,1.7324.7109.6104,0,1.1846-.2021,1.7227-.6084v1.0664Z" fill="#2f2f2f"/>
        <path d="M200.1449,94.2346h-1.1211v-1.0938h-.0273c-.4873.8389-1.2051,1.2578-2.1533,1.2578-.6973,0-1.2432-.1846-1.6367-.5537-.3945-.3691-.5918-.8584-.5918-1.4697,0-1.3076.7705-2.0684,2.3105-2.2832l2.0986-.2939c0-1.1895-.4805-1.7842-1.4424-1.7842-.8428,0-1.6045.2871-2.2832.8613v-1.1484c.6885-.4375,1.4814-.6562,2.3789-.6562,1.6455,0,2.4678.8711,2.4678,2.6113v4.5527ZM199.0238,90.6936l-1.6885.2324c-.5195.0732-.9111.2021-1.1758.3867s-.3965.5117-.3965.9805c0,.3418.1221.6211.3652.8379.2441.2158.5693.3242.9746.3242.5557,0,1.0156-.1943,1.377-.584.3633-.3896.5439-.8828.5439-1.4805v-.6973Z" fill="#2f2f2f"/>
        <path d="M209.9066,94.2346h-1.1211v-8.4697c-.0869.0869-.2129.1855-.3789.2979-.167.1113-.3535.2217-.5605.3311-.208.1094-.4268.2119-.6562.3076-.2305.0957-.4551.1709-.6738.2256v-1.1348c.2461-.0684.5068-.1602.7832-.2764.2754-.1162.5469-.2461.8125-.3896.2676-.1436.5186-.2939.7559-.4512s.4424-.3115.6152-.4619h.4238v10.0215Z" fill="#2f2f2f"/>
      </g>
      <g>
        <path d="M276.9545,94.2346h-1.3672l-1.6406-2.748c-.1504-.2549-.2959-.4727-.4375-.6523-.1416-.1807-.2861-.3271-.4336-.4414-.1484-.1133-.3086-.1973-.4785-.249-.1719-.0527-.3643-.0791-.5781-.0791h-.9434v4.1699h-1.1484v-9.8027h2.9258c.4287,0,.8242.0537,1.1855.1611.3633.1064.6777.2695.9434.4883.2676.2188.4756.4912.626.8174.1504.3252.2256.707.2256,1.1445,0,.3418-.0508.6553-.1543.9404-.1016.2842-.248.5391-.4375.7617-.1885.2236-.416.4141-.6836.5713-.2656.1572-.5654.2793-.8984.3652v.0273c.1641.0732.3066.1562.4277.25.1201.0928.2354.2041.3447.3311.1094.1279.2178.2725.3252.4346.1064.1611.2266.3496.3584.5635l1.8389,2.9463ZM271.0756,85.4709v3.5547h1.5586c.2871,0,.5527-.043.7969-.1299.2432-.0859.4541-.2109.6318-.3721.1777-.1621.3164-.3604.417-.5947.1006-.2354.1504-.498.1504-.79,0-.5234-.1699-.9326-.5098-1.2266-.3389-.2939-.8301-.4414-1.4727-.4414h-1.5723Z" fill="#2f2f2f"/>
        <path d="M283.5668,91.0148h-4.9424c.0186.7793.2275,1.3809.6289,1.8047s.9521.6357,1.6543.6357c.7881,0,1.5127-.2598,2.1738-.7793v1.0527c-.6152.4473-1.4287.6699-2.4404.6699-.9893,0-1.7656-.3174-2.3311-.9531s-.8477-1.5303-.8477-2.6836c0-1.0889.3086-1.9766.9258-2.6621.6182-.6865,1.3848-1.0293,2.3008-1.0293s1.625.2969,2.126.8887c.501.5928.752,1.415.752,2.4678v.5879ZM282.4184,90.0646c-.0049-.6465-.1611-1.1504-.4678-1.5107-.3086-.3594-.7354-.54-1.2822-.54-.5283,0-.9775.1895-1.3467.5674-.3691.3789-.5967.873-.6836,1.4834h3.7803Z" fill="#2f2f2f"/>
        <path d="M286.3979,93.2229h-.0273v4.2314h-1.1211v-10.2197h1.1211v1.2305h.0273c.5518-.9297,1.3584-1.3945,2.4199-1.3945.9023,0,1.6064.3135,2.1123.9404.5059.626.7588,1.4658.7588,2.5186,0,1.1719-.2852,2.1094-.8545,2.8135s-1.3486,1.0557-2.3379,1.0557c-.9072,0-1.6064-.3916-2.0986-1.1758ZM286.3705,90.3996v.9775c0,.5791.1875,1.0703.5645,1.4736.375.4033.8525.6045,1.4316.6045.6787,0,1.2109-.2598,1.5957-.7793.3857-.5195.5781-1.2412.5781-2.167,0-.7793-.1797-1.3896-.54-1.832-.3604-.4414-.8477-.6631-1.4629-.6631-.6514,0-1.1758.2266-1.5723.6807-.3965.4531-.5947,1.0215-.5947,1.7051Z" fill="#2f2f2f"/>
        <path d="M294.5395,94.2346h-1.1211v-10.3633h1.1211v10.3633Z" fill="#2f2f2f"/>
        <path d="M297.226,85.4572c-.2002,0-.3711-.0684-.5127-.2051s-.2119-.3096-.2119-.5195c0-.209.0703-.3838.2119-.5225.1416-.1396.3125-.209.5127-.209.2051,0,.3789.0693.5234.209.1426.1387.2148.3135.2148.5225,0,.2012-.0723.3721-.2148.5127-.1445.1416-.3184.2119-.5234.2119ZM297.7729,94.2346h-1.1211v-7h1.1211v7Z" fill="#2f2f2f"/>
        <path d="M304.6859,93.9133c-.5381.3242-1.1758.4854-1.9141.4854-.998,0-1.8037-.3242-2.416-.9736-.6133-.6494-.9199-1.4912-.9199-2.5264,0-1.1523.3301-2.0791.9912-2.7783.6611-.7002,1.543-1.0498,2.6455-1.0498.6152,0,1.1572.1143,1.627.3418v1.1484c-.5195-.3643-1.0752-.5469-1.668-.5469-.7158,0-1.3027.2568-1.7598.7695-.459.5127-.6875,1.1855-.6875,2.0195,0,.8203.2148,1.4678.6465,1.9414.4297.4746,1.0078.7109,1.7324.7109.6104,0,1.1846-.2021,1.7227-.6084v1.0664Z" fill="#2f2f2f"/>
        <path d="M311.4291,94.2346h-1.1211v-1.0938h-.0273c-.4873.8389-1.2051,1.2578-2.1533,1.2578-.6973,0-1.2432-.1846-1.6367-.5537-.3945-.3691-.5918-.8584-.5918-1.4697,0-1.3076.7705-2.0684,2.3105-2.2832l2.0986-.2939c0-1.1895-.4805-1.7842-1.4424-1.7842-.8428,0-1.6045.2871-2.2832.8613v-1.1484c.6885-.4375,1.4814-.6562,2.3789-.6562,1.6455,0,2.4678.8711,2.4678,2.6113v4.5527ZM310.308,90.6936l-1.6885.2324c-.5195.0732-.9111.2021-1.1758.3867s-.3965.5117-.3965.9805c0,.3418.1221.6211.3652.8379.2441.2158.5693.3242.9746.3242.5557,0,1.0156-.1943,1.377-.584.3633-.3896.5439-.8828.5439-1.4805v-.6973Z" fill="#2f2f2f"/>
        <path d="M322.0521,84.4318v6.4736h1.2578v1.0254h-1.2578v2.3037h-1.1074v-2.3037h-4.6074v-.9707c.4287-.4824.8613-.999,1.2988-1.5479.4375-.5498.8555-1.1064,1.2539-1.6719.3994-.5645.7686-1.1289,1.1074-1.6914.3398-.5635.626-1.1016.8584-1.6172h1.1963ZM317.602,90.9055h3.3428v-4.7988c-.3418.5977-.665,1.1309-.9707,1.5996-.3057.4697-.5957.8955-.8711,1.2783-.2764.3828-.5391.7295-.79,1.0391-.251.3105-.4873.6045-.7109.8818Z" fill="#2f2f2f"/>
      </g>
      <g>
        <path d="M462.8607,94.2346h-1.3672l-1.6406-2.748c-.1504-.2549-.2959-.4727-.4375-.6523-.1416-.1807-.2861-.3271-.4336-.4414-.1484-.1133-.3086-.1973-.4785-.249-.1719-.0527-.3643-.0791-.5781-.0791h-.9434v4.1699h-1.1484v-9.8027h2.9258c.4287,0,.8242.0537,1.1855.1611.3633.1064.6777.2695.9434.4883.2676.2188.4756.4912.626.8174.1504.3252.2256.707.2256,1.1445,0,.3418-.0508.6553-.1543.9404-.1016.2842-.248.5391-.4375.7617-.1885.2236-.416.4141-.6836.5713-.2656.1572-.5654.2793-.8984.3652v.0273c.1641.0732.3066.1562.4277.25.1201.0928.2354.2041.3447.3311.1094.1279.2178.2725.3252.4346.1064.1611.2266.3496.3584.5635l1.8389,2.9463ZM456.9818,85.4709v3.5547h1.5586c.2871,0,.5527-.043.7969-.1299.2432-.0859.4541-.2109.6318-.3721.1777-.1621.3164-.3604.417-.5947.1006-.2354.1504-.498.1504-.79,0-.5234-.1699-.9326-.5098-1.2266-.3389-.2939-.8301-.4414-1.4727-.4414h-1.5723Z" fill="#2f2f2f"/>
        <path d="M469.473,91.0148h-4.9424c.0186.7793.2275,1.3809.6289,1.8047s.9521.6357,1.6543.6357c.7881,0,1.5127-.2598,2.1738-.7793v1.0527c-.6152.4473-1.4287.6699-2.4404.6699-.9893,0-1.7656-.3174-2.3311-.9531s-.8477-1.5303-.8477-2.6836c0-1.0889.3086-1.9766.9258-2.6621.6182-.6865,1.3848-1.0293,2.3008-1.0293s1.625.2969,2.126.8887c.501.5928.752,1.415.752,2.4678v.5879ZM468.3246,90.0646c-.0049-.6465-.1611-1.1504-.4678-1.5107-.3086-.3594-.7354-.54-1.2822-.54-.5283,0-.9775.1895-1.3467.5674-.3691.3789-.5967.873-.6836,1.4834h3.7803Z" fill="#2f2f2f"/>
        <path d="M472.3041,93.2229h-.0273v4.2314h-1.1211v-10.2197h1.1211v1.2305h.0273c.5518-.9297,1.3584-1.3945,2.4199-1.3945.9023,0,1.6064.3135,2.1123.9404.5059.626.7588,1.4658.7588,2.5186,0,1.1719-.2852,2.1094-.8545,2.8135s-1.3486,1.0557-2.3379,1.0557c-.9072,0-1.6064-.3916-2.0986-1.1758ZM472.2768,90.3996v.9775c0,.5791.1875,1.0703.5645,1.4736.375.4033.8525.6045,1.4316.6045.6787,0,1.2109-.2598,1.5957-.7793.3857-.5195.5781-1.2412.5781-2.167,0-.7793-.1797-1.3896-.54-1.832-.3604-.4414-.8477-.6631-1.4629-.6631-.6514,0-1.1758.2266-1.5723.6807-.3965.4531-.5947,1.0215-.5947,1.7051Z" fill="#2f2f2f"/>
        <path d="M480.4457,94.2346h-1.1211v-10.3633h1.1211v10.3633Z" fill="#2f2f2f"/>
        <path d="M483.1322,85.4572c-.2002,0-.3711-.0684-.5127-.2051s-.2119-.3096-.2119-.5195c0-.209.0703-.3838.2119-.5225.1416-.1396.3125-.209.5127-.209.2051,0,.3789.0693.5234.209.1426.1387.2148.3135.2148.5225,0,.2012-.0723.3721-.2148.5127-.1445.1416-.3184.2119-.5234.2119ZM483.6791,94.2346h-1.1211v-7h1.1211v7Z" fill="#2f2f2f"/>
        <path d="M490.5922,93.9133c-.5381.3242-1.1758.4854-1.9141.4854-.998,0-1.8037-.3242-2.416-.9736-.6133-.6494-.9199-1.4912-.9199-2.5264,0-1.1523.3301-2.0791.9912-2.7783.6611-.7002,1.543-1.0498,2.6455-1.0498.6152,0,1.1572.1143,1.627.3418v1.1484c-.5195-.3643-1.0752-.5469-1.668-.5469-.7158,0-1.3027.2568-1.7598.7695-.459.5127-.6875,1.1855-.6875,2.0195,0,.8203.2148,1.4678.6465,1.9414.4297.4746,1.0078.7109,1.7324.7109.6104,0,1.1846-.2021,1.7227-.6084v1.0664Z" fill="#2f2f2f"/>
        <path d="M497.3354,94.2346h-1.1211v-1.0938h-.0273c-.4873.8389-1.2051,1.2578-2.1533,1.2578-.6973,0-1.2432-.1846-1.6367-.5537-.3945-.3691-.5918-.8584-.5918-1.4697,0-1.3076.7705-2.0684,2.3105-2.2832l2.0986-.2939c0-1.1895-.4805-1.7842-1.4424-1.7842-.8428,0-1.6045.2871-2.2832.8613v-1.1484c.6885-.4375,1.4814-.6562,2.3789-.6562,1.6455,0,2.4678.8711,2.4678,2.6113v4.5527ZM496.2143,90.6936l-1.6885.2324c-.5195.0732-.9111.2021-1.1758.3867s-.3965.5117-.3965.9805c0,.3418.1221.6211.3652.8379.2441.2158.5693.3242.9746.3242.5557,0,1.0156-.1943,1.377-.584.3633-.3896.5439-.8828.5439-1.4805v-.6973Z" fill="#2f2f2f"/>
        <path d="M507.4252,87.0021c0-.3008-.0469-.5625-.1406-.7861-.0928-.2227-.2207-.4092-.3828-.5566-.1611-.1484-.3516-.2588-.5703-.332-.2188-.0723-.4561-.1094-.7109-.1094-.2188,0-.4326.0303-.6426.0889-.21.0596-.4141.1416-.6113.2461-.1992.1055-.3906.2305-.5742.376-.1855.1465-.3574.3076-.5166.4854v-1.2031c.3145-.3047.667-.5391,1.0557-.7002.3906-.1621.8652-.2432,1.4258-.2432.4014,0,.7725.0586,1.1143.1748s.6377.2861.8887.5088c.251.2236.4482.499.5908.8271.1445.3281.2158.7041.2158,1.1279,0,.3877-.0439.7383-.1338,1.0527-.0879.3145-.2227.6113-.4023.8887-.1807.2783-.4072.5449-.6807.7998-.2734.2559-.5947.5156-.9639.7793-.46.3281-.8398.6084-1.1387.8408-.2979.2324-.5352.4502-.7109.6533-.1748.2021-.2979.4053-.3691.6084-.0703.2021-.1055.4365-.1055.7002h4.8809v1.0049h-6.0498v-.4854c0-.4189.0459-.7881.1367-1.1074.0908-.3184.2412-.6221.4512-.9092s.4844-.5742.8232-.8613c.3398-.2871.7559-.6104,1.248-.9707.3555-.2549.6523-.499.8926-.7314.2383-.2324.4316-.4648.5771-.6973s.249-.4678.3115-.707c.0605-.2393.0918-.4932.0918-.7627Z" fill="#2f2f2f"/>
      </g>
      <g>
        <path d="M703.9809,94.2346h-1.3672l-1.6406-2.748c-.1504-.2549-.2959-.4727-.4375-.6523-.1416-.1807-.2861-.3271-.4336-.4414-.1484-.1133-.3086-.1973-.4785-.249-.1719-.0527-.3643-.0791-.5781-.0791h-.9434v4.1699h-1.1484v-9.8027h2.9258c.4287,0,.8242.0537,1.1855.1611.3633.1064.6777.2695.9434.4883.2676.2188.4756.4912.626.8174.1504.3252.2256.707.2256,1.1445,0,.3418-.0508.6553-.1543.9404-.1016.2842-.248.5391-.4375.7617-.1885.2236-.416.4141-.6836.5713-.2656.1572-.5654.2793-.8984.3652v.0273c.1641.0732.3066.1562.4277.25.1201.0928.2354.2041.3447.3311.1094.1279.2178.2725.3252.4346.1064.1611.2266.3496.3584.5635l1.8389,2.9463ZM698.102,85.4709v3.5547h1.5586c.2871,0,.5527-.043.7969-.1299.2432-.0859.4541-.2109.6318-.3721.1777-.1621.3164-.3604.417-.5947.1006-.2354.1504-.498.1504-.79,0-.5234-.1699-.9326-.5098-1.2266-.3389-.2939-.8301-.4414-1.4727-.4414h-1.5723Z" fill="#2f2f2f"/>
        <path d="M710.5932,91.0148h-4.9424c.0186.7793.2275,1.3809.6289,1.8047s.9521.6357,1.6543.6357c.7881,0,1.5127-.2598,2.1738-.7793v1.0527c-.6152.4473-1.4287.6699-2.4404.6699-.9893,0-1.7656-.3174-2.3311-.9531s-.8477-1.5303-.8477-2.6836c0-1.0889.3086-1.9766.9258-2.6621.6182-.6865,1.3848-1.0293,2.3008-1.0293s1.625.2969,2.126.8887c.501.5928.752,1.415.752,2.4678v.5879ZM709.4447,90.0646c-.0049-.6465-.1611-1.1504-.4678-1.5107-.3086-.3594-.7354-.54-1.2822-.54-.5283,0-.9775.1895-1.3467.5674-.3691.3789-.5967.873-.6836,1.4834h3.7803Z" fill="#2f2f2f"/>
        <path d="M713.4242,93.2229h-.0273v4.2314h-1.1211v-10.2197h1.1211v1.2305h.0273c.5518-.9297,1.3584-1.3945,2.4199-1.3945.9023,0,1.6064.3135,2.1123.9404.5059.626.7588,1.4658.7588,2.5186,0,1.1719-.2852,2.1094-.8545,2.8135s-1.3486,1.0557-2.3379,1.0557c-.9072,0-1.6064-.3916-2.0986-1.1758ZM713.3969,90.3996v.9775c0,.5791.1875,1.0703.5645,1.4736.375.4033.8525.6045,1.4316.6045.6787,0,1.2109-.2598,1.5957-.7793.3857-.5195.5781-1.2412.5781-2.167,0-.7793-.1797-1.3896-.54-1.832-.3604-.4414-.8477-.6631-1.4629-.6631-.6514,0-1.1758.2266-1.5723.6807-.3965.4531-.5947,1.0215-.5947,1.7051Z" fill="#2f2f2f"/>
        <path d="M721.5658,94.2346h-1.1211v-10.3633h1.1211v10.3633Z" fill="#2f2f2f"/>
        <path d="M724.2523,85.4572c-.2002,0-.3711-.0684-.5127-.2051s-.2119-.3096-.2119-.5195c0-.209.0703-.3838.2119-.5225.1416-.1396.3125-.209.5127-.209.2051,0,.3789.0693.5234.209.1426.1387.2148.3135.2148.5225,0,.2012-.0723.3721-.2148.5127-.1445.1416-.3184.2119-.5234.2119ZM724.7992,94.2346h-1.1211v-7h1.1211v7Z" fill="#2f2f2f"/>
        <path d="M731.7123,93.9133c-.5381.3242-1.1758.4854-1.9141.4854-.998,0-1.8037-.3242-2.416-.9736-.6133-.6494-.9199-1.4912-.9199-2.5264,0-1.1523.3301-2.0791.9912-2.7783.6611-.7002,1.543-1.0498,2.6455-1.0498.6152,0,1.1572.1143,1.627.3418v1.1484c-.5195-.3643-1.0752-.5469-1.668-.5469-.7158,0-1.3027.2568-1.7598.7695-.459.5127-.6875,1.1855-.6875,2.0195,0,.8203.2148,1.4678.6465,1.9414.4297.4746,1.0078.7109,1.7324.7109.6104,0,1.1846-.2021,1.7227-.6084v1.0664Z" fill="#2f2f2f"/>
        <path d="M738.4555,94.2346h-1.1211v-1.0938h-.0273c-.4873.8389-1.2051,1.2578-2.1533,1.2578-.6973,0-1.2432-.1846-1.6367-.5537-.3945-.3691-.5918-.8584-.5918-1.4697,0-1.3076.7705-2.0684,2.3105-2.2832l2.0986-.2939c0-1.1895-.4805-1.7842-1.4424-1.7842-.8428,0-1.6045.2871-2.2832.8613v-1.1484c.6885-.4375,1.4814-.6562,2.3789-.6562,1.6455,0,2.4678.8711,2.4678,2.6113v4.5527ZM737.3344,90.6936l-1.6885.2324c-.5195.0732-.9111.2021-1.1758.3867s-.3965.5117-.3965.9805c0,.3418.1221.6211.3652.8379.2441.2158.5693.3242.9746.3242.5557,0,1.0156-.1943,1.377-.584.3633-.3896.5439-.8828.5439-1.4805v-.6973Z" fill="#2f2f2f"/>
        <path d="M749.7826,91.4592c0,.4424-.083.8447-.249,1.207-.167.3623-.4014.6719-.7051.9297-.3027.2568-.666.457-1.0898.5977-.4238.1416-.8906.2119-1.4014.2119-.9346,0-1.6768-.1777-2.2285-.5332v-1.2031c.6611.5195,1.417.7793,2.2695.7793.3418,0,.6504-.043.9268-.1299.2754-.0859.5117-.2119.7109-.376.1973-.1641.3506-.3623.457-.5947.1074-.2324.1611-.4941.1611-.7861,0-1.2803-.9111-1.9209-2.7344-1.9209h-.8135v-.9502h.7725c1.6133,0,2.4199-.6016,2.4199-1.8047,0-1.1113-.6152-1.668-1.8457-1.668-.6924,0-1.3418.2324-1.9482.6973v-1.0869c.624-.373,1.3672-.5605,2.2285-.5605.4102,0,.7812.0576,1.1143.1709.333.1143.6172.2734.8545.4785s.4199.4512.5508.7383c.1289.2871.1943.6045.1943.9502,0,1.29-.6514,2.1191-1.9551,2.4883v.0273c.333.0371.6406.1172.9229.2432.2822.125.5264.2881.7314.4883.2051.2012.3662.4365.4814.708.1172.2705.1748.5703.1748.8984Z" fill="#2f2f2f"/>
      </g>
      <g>
        <path d="M430.5824,39.5998h-2.4062l-.6973-2.1807h-3.4863l-.6904,2.1807h-2.3926l3.5684-9.8027h2.6182l3.4863,9.8027ZM426.973,35.7238l-1.0527-3.2949c-.0771-.2461-.1318-.54-.1641-.8818h-.0547c-.0225.2871-.0791.5723-.1709.8545l-1.0664,3.3223h2.5088Z" fill="#2f2f2f"/>
        <path d="M437.9477,32.5998l-2.6045,7h-2.4609l-2.4814-7h2.3105l1.2168,4.3135c.1367.4883.2158.9023.2393,1.2441h.0273c.0312-.3232.1162-.7246.2529-1.2031l1.2441-4.3545h2.2559Z" fill="#2f2f2f"/>
        <path d="M444.6029,39.5998h-2.0439v-1.0049h-.0273c-.4688.7842-1.1641,1.1758-2.085,1.1758-.6787,0-1.2129-.1924-1.6025-.5771-.3896-.3857-.585-.8994-.585-1.542,0-1.3574.8047-2.1416,2.4131-2.3516l1.9004-.2529c0-.7656-.4141-1.1484-1.2441-1.1484-.834,0-1.627.249-2.3789.7451v-1.627c.3008-.1543.7119-.291,1.2344-.4102.5215-.1182.9971-.1777,1.4248-.1777,1.9961,0,2.9941.9961,2.9941,2.9873v4.1836ZM442.5727,36.7561v-.4717l-1.2715.1641c-.7012.0918-1.0527.4082-1.0527.9502,0,.2461.0859.4482.2568.6055s.4023.2354.6934.2354c.4062,0,.7363-.1396.9912-.4199.2559-.2803.3828-.6348.3828-1.0635Z" fill="#2f2f2f"/>
        <path d="M447.3734,31.4924c-.3643,0-.6631-.1084-.8955-.3242-.2324-.2168-.3486-.4824-.3486-.7969,0-.3232.1162-.5879.3486-.793s.5312-.3076.8955-.3076c.3691,0,.6689.1025.8994.3076.2295.2051.3447.4697.3447.793,0,.3281-.1152.5977-.3447.8066-.2305.21-.5303.3145-.8994.3145ZM448.4398,39.5998h-2.1602v-7h2.1602v7Z" fill="#2f2f2f"/>
        <path d="M452.3754,39.5998h-2.1602v-10.3633h2.1602v10.3633Z" fill="#2f2f2f"/>
        <path d="M460.0404,39.5998h-2.0439v-1.0049h-.0273c-.4697.7842-1.165,1.1758-2.085,1.1758-.6797,0-1.2139-.1924-1.6035-.5771-.3896-.3857-.584-.8994-.584-1.542,0-1.3574.8037-2.1416,2.4131-2.3516l1.9004-.2529c0-.7656-.415-1.1484-1.2441-1.1484-.834,0-1.627.249-2.3789.7451v-1.627c.3008-.1543.7119-.291,1.2334-.4102.5225-.1182.9971-.1777,1.4258-.1777,1.9961,0,2.9941.9961,2.9941,2.9873v4.1836ZM458.0102,36.7561v-.4717l-1.2715.1641c-.7021.0918-1.0527.4082-1.0527.9502,0,.2461.085.4482.2559.6055s.4023.2354.6943.2354c.4053,0,.7354-.1396.9912-.4199.2549-.2803.3828-.6348.3828-1.0635Z" fill="#2f2f2f"/>
        <path d="M463.9242,38.7863h-.0273v.8135h-2.1602v-10.3633h2.1602v4.416h.0273c.5332-.8154,1.292-1.2236,2.2764-1.2236.9023,0,1.5967.3105,2.085.9297.4873.6201.7314,1.4678.7314,2.543,0,1.167-.2852,2.1035-.8545,2.8096-.5703.707-1.3311,1.0596-2.2832,1.0596-.8613,0-1.5137-.3281-1.9551-.9844ZM463.8627,35.8332v.7178c0,.4512.1299.8252.3896,1.1211.2598.2969.5918.4443.998.4443.4922,0,.874-.1904,1.1445-.5703.2715-.3809.4072-.9199.4072-1.6172,0-.5781-.124-1.0312-.373-1.3564-.248-.3262-.6025-.4893-1.0625-.4893-.4336,0-.792.1621-1.0771.4854-.2842.3242-.4268.7451-.4268,1.2646Z" fill="#2f2f2f"/>
        <path d="M471.5121,31.4924c-.3652,0-.6631-.1084-.8955-.3242-.2324-.2168-.3486-.4824-.3486-.7969,0-.3232.1162-.5879.3486-.793s.5303-.3076.8955-.3076c.3691,0,.6689.1025.8984.3076.2305.2051.3457.4697.3457.793,0,.3281-.1152.5977-.3457.8066-.2295.21-.5293.3145-.8984.3145ZM472.5785,39.5998h-2.1602v-7h2.1602v7Z" fill="#2f2f2f"/>
        <path d="M476.5141,39.5998h-2.1602v-10.3633h2.1602v10.3633Z" fill="#2f2f2f"/>
        <path d="M479.3822,31.4924c-.3643,0-.6631-.1084-.8955-.3242-.2324-.2168-.3486-.4824-.3486-.7969,0-.3232.1162-.5879.3486-.793s.5312-.3076.8955-.3076c.3691,0,.6689.1025.8994.3076.2295.2051.3447.4697.3447.793,0,.3281-.1152.5977-.3447.8066-.2305.21-.5303.3145-.8994.3145ZM480.4486,39.5998h-2.1602v-7h2.1602v7Z" fill="#2f2f2f"/>
        <path d="M486.3852,39.5178c-.3193.1689-.7998.2529-1.4424.2529-1.5225,0-2.2832-.79-2.2832-2.3721v-3.2061h-1.1348v-1.5928h1.1348v-1.5107l2.1533-.6152v2.126h1.5723v1.5928h-1.5723v2.8301c0,.7295.2891,1.0938.8682,1.0938.2275,0,.4619-.0654.7041-.1982v1.5996Z" fill="#2f2f2f"/>
        <path d="M494.6098,32.5998l-2.8438,7.5605c-.6836,1.8184-1.7129,2.7275-3.0898,2.7275-.5234,0-.9541-.0586-1.292-.1777v-1.7227c.2871.1689.5996.2529.9365.2529.5566,0,.9434-.2617,1.1621-.7861l.3691-.8682-2.8438-6.9863h2.3926l1.3057,4.2588c.082.2646.1465.5771.1914.9365h.0273c.041-.2637.1162-.5713.2256-.9229l1.3193-4.2725h2.1396Z" fill="#2f2f2f"/>
        <path d="M506.6068,39.5998h-7.8955v-1.2715l5.0244-6.7334h-4.6621v-1.7979h7.5195v1.2373l-4.915,6.7744h4.9287v1.791Z" fill="#2f2f2f"/>
        <path d="M511.1254,39.7707c-1.166,0-2.084-.3271-2.751-.9805-.668-.6543-1.002-1.542-1.002-2.6631,0-1.1572.3467-2.0635,1.0391-2.7168.6934-.6543,1.6299-.9814,2.8096-.9814,1.1621,0,2.0742.3271,2.7344.9814.6611.6533.9912,1.5186.9912,2.5938,0,1.1621-.3408,2.0811-1.0215,2.7549-.6816.6748-1.6143,1.0117-2.7998,1.0117ZM511.1801,34.0832c-.5098,0-.9062.1758-1.1895.5264-.2822.3516-.4238.8477-.4238,1.4902,0,1.3447.543,2.0166,1.627,2.0166,1.0352,0,1.5518-.6904,1.5518-2.0713,0-1.3076-.5215-1.9619-1.5654-1.9619Z" fill="#2f2f2f"/>
        <path d="M523.0883,39.5998h-2.1533v-3.8896c0-1.084-.3877-1.627-1.1621-1.627-.374,0-.6816.1436-.9229.4307-.2422.2871-.3623.6523-.3623,1.0938v3.9922h-2.1602v-7h2.1602v1.1074h.0273c.5146-.8516,1.2646-1.2783,2.249-1.2783,1.5488,0,2.3242.9619,2.3242,2.8848v4.2861Z" fill="#2f2f2f"/>
        <path d="M531.1098,36.715h-4.5664c.0732,1.0166.7139,1.5244,1.9209,1.5244.7705,0,1.4473-.1816,2.0303-.5469v1.5586c-.6465.3467-1.4873.5195-2.5225.5195-1.1299,0-2.0068-.3135-2.6318-.9395-.624-.627-.9365-1.501-.9365-2.6221,0-1.1621.3379-2.082,1.0117-2.7617.6748-.6787,1.5039-1.0186,2.4883-1.0186,1.0215,0,1.8105.3037,2.3691.9092.5576.6064.8369,1.4287.8369,2.4678v.9092ZM529.1068,35.3889c0-1.002-.4053-1.5039-1.2168-1.5039-.3457,0-.6455.1436-.8984.4307s-.4072.6455-.4619,1.0732h2.5771Z" fill="#2f2f2f"/>
        <path d="M538.2807,37.8088h4.1562v1.791h-6.5215v-.7383c0-.501.085-.9512.2529-1.3496.1689-.3994.3809-.7568.6357-1.0732.2559-.3174.5342-.5977.8379-.8408.3027-.2441.5908-.4639.8643-.6602.2871-.2051.5391-.4004.7559-.5879.2158-.1865.3984-.3721.5469-.5566.1475-.1846.2588-.3721.3311-.5605.0732-.1895.1094-.3906.1094-.6055,0-.4189-.1182-.7354-.3555-.9502-.2363-.2139-.5986-.3213-1.0869-.3213-.8428,0-1.6494.335-2.4199,1.0049v-1.9004c.8525-.5508,1.8145-.8271,2.8848-.8271.4971,0,.9424.0654,1.3369.1953.3936.1299.7275.3154,1.001.5566.2734.2422.4824.5342.626.8789.1436.3438.2148.7275.2148,1.1514,0,.4512-.0693.8525-.208,1.2031-.1396.3516-.3242.6699-.5537.957-.2305.2871-.4961.5508-.7969.79s-.6123.4707-.9365.6934c-.2188.1553-.4297.3086-.6318.4619-.2031.1523-.3818.3027-.5371.4512-.1543.1475-.2773.293-.3691.4336-.0908.1416-.1367.2764-.1367.4033Z" fill="#2f2f2f"/>
      </g>
      <g>
        <path d="M189.0229,39.5998h-2.4062l-.6973-2.1807h-3.4863l-.6904,2.1807h-2.3926l3.5684-9.8027h2.6182l3.4863,9.8027ZM185.4135,35.7238l-1.0527-3.2949c-.0771-.2461-.1318-.54-.1641-.8818h-.0547c-.0225.2871-.0791.5723-.1709.8545l-1.0664,3.3223h2.5088Z" fill="#2f2f2f"/>
        <path d="M196.3871,32.5998l-2.6035,7h-2.4609l-2.4824-7h2.3105l1.2168,4.3135c.1367.4883.2168.9023.2402,1.2441h.0273c.0312-.3232.1152-.7246.252-1.2031l1.2441-4.3545h2.2559Z" fill="#2f2f2f"/>
        <path d="M203.0434,39.5998h-2.0439v-1.0049h-.0273c-.4697.7842-1.165,1.1758-2.085,1.1758-.6797,0-1.2129-.1924-1.6035-.5771-.3887-.3857-.584-.8994-.584-1.542,0-1.3574.8047-2.1416,2.4131-2.3516l1.9004-.2529c0-.7656-.415-1.1484-1.2441-1.1484-.834,0-1.627.249-2.3789.7451v-1.627c.3008-.1543.7119-.291,1.2334-.4102.5225-.1182.998-.1777,1.4258-.1777,1.9961,0,2.9941.9961,2.9941,2.9873v4.1836ZM201.0131,36.7561v-.4717l-1.2715.1641c-.7021.0918-1.0527.4082-1.0527.9502,0,.2461.085.4482.2568.6055.1699.1572.4023.2354.6934.2354.4062,0,.7363-.1396.9912-.4199s.3828-.6348.3828-1.0635Z" fill="#2f2f2f"/>
        <path d="M205.8139,31.4924c-.3643,0-.6631-.1084-.8955-.3242-.2324-.2168-.3486-.4824-.3486-.7969,0-.3232.1162-.5879.3486-.793s.5312-.3076.8955-.3076c.3691,0,.6689.1025.8994.3076.2295.2051.3447.4697.3447.793,0,.3281-.1152.5977-.3447.8066-.2305.21-.5303.3145-.8994.3145ZM206.8803,39.5998h-2.1602v-7h2.1602v7Z" fill="#2f2f2f"/>
        <path d="M210.8148,39.5998h-2.1602v-10.3633h2.1602v10.3633Z" fill="#2f2f2f"/>
        <path d="M218.4809,39.5998h-2.0449v-1.0049h-.0273c-.4688.7842-1.1641,1.1758-2.084,1.1758-.6797,0-1.2139-.1924-1.6035-.5771-.3896-.3857-.584-.8994-.584-1.542,0-1.3574.8037-2.1416,2.4121-2.3516l1.9004-.2529c0-.7656-.4141-1.1484-1.2441-1.1484-.834,0-1.627.249-2.3789.7451v-1.627c.3008-.1543.7129-.291,1.2344-.4102.5215-.1182.9971-.1777,1.4258-.1777,1.9961,0,2.9941.9961,2.9941,2.9873v4.1836ZM216.4496,36.7561v-.4717l-1.2715.1641c-.7012.0918-1.0527.4082-1.0527.9502,0,.2461.0859.4482.2568.6055s.4023.2354.6943.2354c.4053,0,.7354-.1396.9902-.4199.2559-.2803.3828-.6348.3828-1.0635Z" fill="#2f2f2f"/>
        <path d="M222.3637,38.7863h-.0273v.8135h-2.1602v-10.3633h2.1602v4.416h.0273c.5332-.8154,1.293-1.2236,2.2773-1.2236.9023,0,1.5967.3105,2.084.9297.4883.6201.7324,1.4678.7324,2.543,0,1.167-.2852,2.1035-.8555,2.8096-.5693.707-1.3301,1.0596-2.2832,1.0596-.8613,0-1.5127-.3281-1.9551-.9844ZM222.3031,35.8332v.7178c0,.4512.1289.8252.3887,1.1211.2598.2969.5928.4443.998.4443.4922,0,.875-.1904,1.1455-.5703.2705-.3809.4072-.9199.4072-1.6172,0-.5781-.125-1.0312-.373-1.3564-.248-.3262-.6025-.4893-1.0625-.4893-.4336,0-.793.1621-1.0771.4854-.2842.3242-.4268.7451-.4268,1.2646Z" fill="#2f2f2f"/>
        <path d="M229.9516,31.4924c-.3643,0-.6621-.1084-.8945-.3242-.2324-.2168-.3496-.4824-.3496-.7969,0-.3232.1172-.5879.3496-.793s.5303-.3076.8945-.3076c.3691,0,.6699.1025.8994.3076s.3447.4697.3447.793c0,.3281-.1152.5977-.3447.8066-.2295.21-.5303.3145-.8994.3145ZM231.018,39.5998h-2.1602v-7h2.1602v7Z" fill="#2f2f2f"/>
        <path d="M234.9535,39.5998h-2.1602v-10.3633h2.1602v10.3633Z" fill="#2f2f2f"/>
        <path d="M237.8227,31.4924c-.3652,0-.6631-.1084-.8955-.3242-.2324-.2168-.3486-.4824-.3486-.7969,0-.3232.1162-.5879.3486-.793s.5303-.3076.8955-.3076c.3691,0,.6689.1025.8984.3076.2305.2051.3457.4697.3457.793,0,.3281-.1152.5977-.3457.8066-.2295.21-.5293.3145-.8984.3145ZM238.8891,39.5998h-2.1602v-7h2.1602v7Z" fill="#2f2f2f"/>
        <path d="M244.8246,39.5178c-.3184.1689-.7988.2529-1.4414.2529-1.5225,0-2.2832-.79-2.2832-2.3721v-3.2061h-1.1348v-1.5928h1.1348v-1.5107l2.1523-.6152v2.126h1.5723v1.5928h-1.5723v2.8301c0,.7295.29,1.0938.8691,1.0938.2275,0,.4619-.0654.7031-.1982v1.5996Z" fill="#2f2f2f"/>
        <path d="M253.0502,32.5998l-2.8438,7.5605c-.6836,1.8184-1.7139,2.7275-3.0898,2.7275-.5244,0-.9541-.0586-1.292-.1777v-1.7227c.2871.1689.5996.2529.9365.2529.5557,0,.9434-.2617,1.1621-.7861l.3691-.8682-2.8438-6.9863h2.3926l1.3057,4.2588c.082.2646.1465.5771.1914.9365h.0273c.041-.2637.1162-.5713.2256-.9229l1.3193-4.2725h2.1396Z" fill="#2f2f2f"/>
        <path d="M265.0473,39.5998h-7.8955v-1.2715l5.0244-6.7334h-4.6621v-1.7979h7.5195v1.2373l-4.915,6.7744h4.9287v1.791Z" fill="#2f2f2f"/>
        <path d="M269.5658,39.7707c-1.167,0-2.084-.3271-2.751-.9805-.668-.6543-1.002-1.542-1.002-2.6631,0-1.1572.3457-2.0635,1.0391-2.7168.6934-.6543,1.6289-.9814,2.8096-.9814,1.1621,0,2.0732.3271,2.7344.9814.6611.6533.9912,1.5186.9912,2.5938,0,1.1621-.3408,2.0811-1.0215,2.7549-.6816.6748-1.6152,1.0117-2.7998,1.0117ZM269.6205,34.0832c-.5107,0-.9072.1758-1.1895.5264-.2822.3516-.4238.8477-.4238,1.4902,0,1.3447.542,2.0166,1.627,2.0166,1.0342,0,1.5518-.6904,1.5518-2.0713,0-1.3076-.5215-1.9619-1.5654-1.9619Z" fill="#2f2f2f"/>
        <path d="M281.5277,39.5998h-2.1523v-3.8896c0-1.084-.3877-1.627-1.1621-1.627-.374,0-.6816.1436-.9238.4307-.2412.2871-.3613.6523-.3613,1.0938v3.9922h-2.1602v-7h2.1602v1.1074h.0273c.5146-.8516,1.2637-1.2783,2.248-1.2783,1.5498,0,2.3242.9619,2.3242,2.8848v4.2861Z" fill="#2f2f2f"/>
        <path d="M289.5502,36.715h-4.5664c.0732,1.0166.7139,1.5244,1.9209,1.5244.7695,0,1.4473-.1816,2.0303-.5469v1.5586c-.6475.3467-1.4873.5195-2.5225.5195-1.1309,0-2.0078-.3135-2.6318-.9395-.624-.627-.9365-1.501-.9365-2.6221,0-1.1621.3379-2.082,1.0117-2.7617.6738-.6787,1.5039-1.0186,2.4883-1.0186,1.0215,0,1.8105.3037,2.3691.9092.5576.6064.8369,1.4287.8369,2.4678v.9092ZM287.5473,35.3889c0-1.002-.4062-1.5039-1.2168-1.5039-.3457,0-.6465.1436-.8984.4307-.2539.2871-.4072.6455-.4619,1.0732h2.5771Z" fill="#2f2f2f"/>
        <path d="M299.476,29.5783v10.0215h-2.1533v-7.5879c-.1191.1055-.2588.2041-.4199.2979-.1621.0928-.334.1777-.5166.2529s-.3721.1387-.5674.1914c-.1953.0518-.3896.0898-.5811.1123v-1.8184c.5605-.1641,1.0889-.373,1.5859-.6289.4971-.2549.9463-.5352,1.3467-.8408h1.3057Z" fill="#2f2f2f"/>
      </g>
      <g>
        <path d="M671.7025,39.5998h-2.4062l-.6973-2.1807h-3.4863l-.6904,2.1807h-2.3926l3.5684-9.8027h2.6182l3.4863,9.8027ZM668.0932,35.7238l-1.0527-3.2949c-.0771-.2461-.1318-.54-.1641-.8818h-.0547c-.0225.2871-.0791.5723-.1709.8545l-1.0664,3.3223h2.5088Z" fill="#2f2f2f"/>
        <path d="M679.0668,32.5998l-2.6035,7h-2.4609l-2.4824-7h2.3105l1.2168,4.3135c.1367.4883.2168.9023.2402,1.2441h.0273c.0312-.3232.1152-.7246.252-1.2031l1.2441-4.3545h2.2559Z" fill="#2f2f2f"/>
        <path d="M685.723,39.5998h-2.0439v-1.0049h-.0273c-.4697.7842-1.165,1.1758-2.085,1.1758-.6797,0-1.2129-.1924-1.6035-.5771-.3887-.3857-.584-.8994-.584-1.542,0-1.3574.8047-2.1416,2.4131-2.3516l1.9004-.2529c0-.7656-.415-1.1484-1.2441-1.1484-.834,0-1.627.249-2.3789.7451v-1.627c.3008-.1543.7119-.291,1.2334-.4102.5225-.1182.998-.1777,1.4258-.1777,1.9961,0,2.9941.9961,2.9941,2.9873v4.1836ZM683.6928,36.7561v-.4717l-1.2715.1641c-.7021.0918-1.0527.4082-1.0527.9502,0,.2461.085.4482.2568.6055.1699.1572.4023.2354.6934.2354.4062,0,.7363-.1396.9912-.4199s.3828-.6348.3828-1.0635Z" fill="#2f2f2f"/>
        <path d="M688.4936,31.4924c-.3643,0-.6631-.1084-.8955-.3242-.2324-.2168-.3486-.4824-.3486-.7969,0-.3232.1162-.5879.3486-.793s.5312-.3076.8955-.3076c.3691,0,.6689.1025.8994.3076.2295.2051.3447.4697.3447.793,0,.3281-.1152.5977-.3447.8066-.2305.21-.5303.3145-.8994.3145ZM689.56,39.5998h-2.1602v-7h2.1602v7Z" fill="#2f2f2f"/>
        <path d="M693.4945,39.5998h-2.1602v-10.3633h2.1602v10.3633Z" fill="#2f2f2f"/>
        <path d="M701.1605,39.5998h-2.0449v-1.0049h-.0273c-.4688.7842-1.1641,1.1758-2.084,1.1758-.6797,0-1.2139-.1924-1.6035-.5771-.3896-.3857-.584-.8994-.584-1.542,0-1.3574.8037-2.1416,2.4121-2.3516l1.9004-.2529c0-.7656-.4141-1.1484-1.2441-1.1484-.834,0-1.627.249-2.3789.7451v-1.627c.3008-.1543.7129-.291,1.2344-.4102.5215-.1182.9971-.1777,1.4258-.1777,1.9961,0,2.9941.9961,2.9941,2.9873v4.1836ZM699.1293,36.7561v-.4717l-1.2715.1641c-.7012.0918-1.0527.4082-1.0527.9502,0,.2461.0859.4482.2568.6055s.4023.2354.6943.2354c.4053,0,.7354-.1396.9902-.4199.2559-.2803.3828-.6348.3828-1.0635Z" fill="#2f2f2f"/>
        <path d="M705.0434,38.7863h-.0273v.8135h-2.1602v-10.3633h2.1602v4.416h.0273c.5332-.8154,1.293-1.2236,2.2773-1.2236.9023,0,1.5967.3105,2.084.9297.4883.6201.7324,1.4678.7324,2.543,0,1.167-.2852,2.1035-.8555,2.8096-.5693.707-1.3301,1.0596-2.2832,1.0596-.8613,0-1.5127-.3281-1.9551-.9844ZM704.9828,35.8332v.7178c0,.4512.1289.8252.3887,1.1211.2598.2969.5928.4443.998.4443.4922,0,.875-.1904,1.1455-.5703.2705-.3809.4072-.9199.4072-1.6172,0-.5781-.125-1.0312-.373-1.3564-.248-.3262-.6025-.4893-1.0625-.4893-.4336,0-.793.1621-1.0771.4854-.2842.3242-.4268.7451-.4268,1.2646Z" fill="#2f2f2f"/>
        <path d="M712.6312,31.4924c-.3643,0-.6621-.1084-.8945-.3242-.2324-.2168-.3496-.4824-.3496-.7969,0-.3232.1172-.5879.3496-.793s.5303-.3076.8945-.3076c.3691,0,.6699.1025.8994.3076s.3447.4697.3447.793c0,.3281-.1152.5977-.3447.8066-.2295.21-.5303.3145-.8994.3145ZM713.6977,39.5998h-2.1602v-7h2.1602v7Z" fill="#2f2f2f"/>
        <path d="M717.6332,39.5998h-2.1602v-10.3633h2.1602v10.3633Z" fill="#2f2f2f"/>
        <path d="M720.5023,31.4924c-.3652,0-.6631-.1084-.8955-.3242-.2324-.2168-.3486-.4824-.3486-.7969,0-.3232.1162-.5879.3486-.793s.5303-.3076.8955-.3076c.3691,0,.6689.1025.8984.3076.2305.2051.3457.4697.3457.793,0,.3281-.1152.5977-.3457.8066-.2295.21-.5293.3145-.8984.3145ZM721.5687,39.5998h-2.1602v-7h2.1602v7Z" fill="#2f2f2f"/>
        <path d="M727.5043,39.5178c-.3184.1689-.7988.2529-1.4414.2529-1.5225,0-2.2832-.79-2.2832-2.3721v-3.2061h-1.1348v-1.5928h1.1348v-1.5107l2.1523-.6152v2.126h1.5723v1.5928h-1.5723v2.8301c0,.7295.29,1.0938.8691,1.0938.2275,0,.4619-.0654.7031-.1982v1.5996Z" fill="#2f2f2f"/>
        <path d="M735.7299,32.5998l-2.8438,7.5605c-.6836,1.8184-1.7139,2.7275-3.0898,2.7275-.5244,0-.9541-.0586-1.292-.1777v-1.7227c.2871.1689.5996.2529.9365.2529.5557,0,.9434-.2617,1.1621-.7861l.3691-.8682-2.8438-6.9863h2.3926l1.3057,4.2588c.082.2646.1465.5771.1914.9365h.0273c.041-.2637.1162-.5713.2256-.9229l1.3193-4.2725h2.1396Z" fill="#2f2f2f"/>
        <path d="M747.727,39.5998h-7.8955v-1.2715l5.0244-6.7334h-4.6621v-1.7979h7.5195v1.2373l-4.915,6.7744h4.9287v1.791Z" fill="#2f2f2f"/>
        <path d="M752.2455,39.7707c-1.167,0-2.084-.3271-2.751-.9805-.668-.6543-1.002-1.542-1.002-2.6631,0-1.1572.3457-2.0635,1.0391-2.7168.6934-.6543,1.6289-.9814,2.8096-.9814,1.1621,0,2.0732.3271,2.7344.9814.6611.6533.9912,1.5186.9912,2.5938,0,1.1621-.3408,2.0811-1.0215,2.7549-.6816.6748-1.6152,1.0117-2.7998,1.0117ZM752.3002,34.0832c-.5107,0-.9072.1758-1.1895.5264-.2822.3516-.4238.8477-.4238,1.4902,0,1.3447.542,2.0166,1.627,2.0166,1.0342,0,1.5518-.6904,1.5518-2.0713,0-1.3076-.5215-1.9619-1.5654-1.9619Z" fill="#2f2f2f"/>
        <path d="M764.2074,39.5998h-2.1523v-3.8896c0-1.084-.3877-1.627-1.1621-1.627-.374,0-.6816.1436-.9238.4307-.2412.2871-.3613.6523-.3613,1.0938v3.9922h-2.1602v-7h2.1602v1.1074h.0273c.5146-.8516,1.2637-1.2783,2.248-1.2783,1.5498,0,2.3242.9619,2.3242,2.8848v4.2861Z" fill="#2f2f2f"/>
        <path d="M772.2299,36.715h-4.5664c.0732,1.0166.7139,1.5244,1.9209,1.5244.7695,0,1.4473-.1816,2.0303-.5469v1.5586c-.6475.3467-1.4873.5195-2.5225.5195-1.1309,0-2.0078-.3135-2.6318-.9395-.624-.627-.9365-1.501-.9365-2.6221,0-1.1621.3379-2.082,1.0117-2.7617.6738-.6787,1.5039-1.0186,2.4883-1.0186,1.0215,0,1.8105.3037,2.3691.9092.5576.6064.8369,1.4287.8369,2.4678v.9092ZM770.227,35.3889c0-1.002-.4062-1.5039-1.2168-1.5039-.3457,0-.6465.1436-.8984.4307-.2539.2871-.4072.6455-.4619,1.0732h2.5771Z" fill="#2f2f2f"/>
        <path d="M777.268,39.2785v-1.8799c.6562.4785,1.4219.7178,2.2969.7178.5508,0,.9805-.1182,1.2891-.3555.3066-.2363.4609-.5674.4609-.9912,0-.4375-.1904-.7744-.5703-1.0117-.3809-.2363-.9043-.3555-1.5693-.3555h-.9092v-1.6543h.8408c1.2764,0,1.9141-.4238,1.9141-1.2715,0-.7969-.4893-1.1963-1.4697-1.1963-.6562,0-1.2949.2119-1.9141.6357v-1.7637c.6875-.3457,1.4902-.5195,2.4062-.5195,1.002,0,1.7832.2256,2.3418.6768.5576.4512.8369,1.0371.8369,1.7568,0,1.2812-.6494,2.083-1.9482,2.4062v.0342c.6934.0869,1.2402.3389,1.6406.7559s.6016.9287.6016,1.5342c0,.916-.335,1.6406-1.0049,2.1738s-1.5947.7998-2.7754.7998c-1.0117,0-1.835-.1641-2.4678-.4922Z" fill="#2f2f2f"/>
      </g>
    </g>
  </g>
</svg>