<?xml version="1.0" encoding="UTF-8"?>
<svg xmlns="http://www.w3.org/2000/svg" xmlns:xlink="http://www.w3.org/1999/xlink" viewBox="0 0 558.8 338.8" width="558.8" height="338.8">
  <defs>
    <linearGradient id="linear-gradient" x1="-352.2623" y1="1153.0351" x2="-352.2623" y2="1177.0351" gradientTransform="translate(564 1204) scale(1 -1)" gradientUnits="userSpaceOnUse">
      <stop offset="0" stop-color="#0078d4"/>
      <stop offset=".16" stop-color="#1380da"/>
      <stop offset=".53" stop-color="#3c91e5"/>
      <stop offset=".82" stop-color="#559cec"/>
      <stop offset="1" stop-color="#5ea0ef"/>
    </linearGradient>
    <linearGradient id="linear-gradient-2" x1="-497.7043" y1="1013.6298" x2="-497.7043" y2="983.482" gradientTransform="translate(564 1204) scale(1 -1)" gradientUnits="userSpaceOnUse">
      <stop offset=".18" stop-color="#5ea0ef"/>
      <stop offset="1" stop-color="#0078d4"/>
    </linearGradient>
    <linearGradient id="linear-gradient-3" x1="-382.1842" y1="973.9983" x2="-382.1842" y2="991.3164" gradientTransform="translate(564 1204) scale(1 -1)" gradientUnits="userSpaceOnUse">
      <stop offset="0" stop-color="#0078d4"/>
      <stop offset=".82" stop-color="#5ea0ef"/>
    </linearGradient>
    <linearGradient id="linear-gradient-4" x1="-382.1842" y1="967.3164" x2="-382.1842" y2="973.9983" gradientTransform="translate(564 1204) scale(1 -1)" gradientUnits="userSpaceOnUse">
      <stop offset=".15" stop-color="#ccc"/>
      <stop offset="1" stop-color="#707070"/>
    </linearGradient>
    <linearGradient id="linear-gradient-5" x1="-241.3842" x2="-241.3842" xlink:href="#linear-gradient-3"/>
    <linearGradient id="linear-gradient-6" x1="-241.3842" x2="-241.3842" xlink:href="#linear-gradient-4"/>
    <linearGradient id="linear-gradient-7" x1="-100.5842" x2="-100.5842" xlink:href="#linear-gradient-3"/>
    <linearGradient id="linear-gradient-8" x1="-100.5842" x2="-100.5842" xlink:href="#linear-gradient-4"/>
  </defs>
  <g isolation="isolate">
    <g id="Shapes">
      <rect width="558.8" height="338.8" fill="#fff"/>
      <g>
        <g mix-blend-mode="multiply" opacity=".3">
          <rect x="14.2" y="9.8" width="532.4" height="60.3299" fill="#212121"/>
          <rect x="14.2" y="9.8" width="532.4" height="60.3299" fill="#212121" opacity=".25"/>
        </g>
        <g>
          <rect x="13.2" y="8.8" width="532.4" height="60.3299" fill="#fff"/>
          <rect x="13.2" y="8.8" width="532.4" height="60.3299" fill="#cccccb" opacity=".25"/>
        </g>
      </g>
      <g>
        <g mix-blend-mode="multiply" opacity=".23">
          <rect x="14.2" y="155.0604" width="532.4" height="132"/>
          <rect x="14.2" y="155.0604" width="532.4" height="132" opacity=".2"/>
        </g>
        <g>
          <rect x="13.2" y="154.0604" width="532.4" height="132" fill="#fff"/>
          <rect x="13.2" y="154.0604" width="532.4" height="132" fill="#83b9f9" opacity=".2"/>
        </g>
      </g>
      <rect x="120.4801" y="176.0604" width="122.6714" height="92.4" fill="#fff" stroke="#8e8278" stroke-width=".35"/>
      <g>
        <line x1="179.651" y1="273.8426" x2="179.651" y2="279.8426" fill="none" stroke="#3c3c41" stroke-miterlimit="10"/>
        <path d="M179.651,283.7941v19.2663c0,2.75,2.25,5,5,5h273.7648c2.75,0,5-2.25,5-5v-21.2421" fill="none" stroke="#3c3c41" stroke-dasharray="11.8544 3.9515" stroke-miterlimit="10"/>
        <line x1="463.4159" y1="279.8426" x2="463.4159" y2="273.8426" fill="none" stroke="#3c3c41" stroke-miterlimit="10"/>
        <polygon points="175.9113 274.9368 179.651 268.4604 183.3908 274.9368 175.9113 274.9368" fill="#3c3c41"/>
        <polygon points="467.1556 274.9368 463.4159 268.4604 459.676 274.9368 467.1556 274.9368" fill="#3c3c41"/>
      </g>
      <path d="M208.1377,43.7649h7.2v7.2h-7.2v-7.2ZM199.7377,34.1649h7.2v-7.2h-6.195c-.555,0-1.005.45-1.005,1.005v6.195ZM200.7427,50.9649h6.195v-7.2h-7.2v6.195c0,.555.45,1.005,1.005,1.005h0ZM199.7377,42.5649h7.2v-7.2h-7.2v7.2ZM216.5377,50.9649h6.195c.555,0,1.005-.45,1.005-1.005h0v-6.195h-7.2v7.2ZM208.1377,42.5649h7.2v-7.2h-7.2v7.2ZM216.5377,42.5649h7.2v-7.2h-7.2v7.2ZM216.5377,26.9649v7.2h7.2v-6.195c0-.555-.45-1.005-1.005-1.005h-6.195ZM208.1377,34.1649h7.2v-7.2h-7.2v7.2Z" fill="url(#linear-gradient)"/>
      <g>
        <path d="M81.4116,208.778c-.0613-3.3784-2.5534-6.2184-5.8952-6.7182-.1373-4.7444-4.0722-8.4918-8.8176-8.3977-3.7633-.0385-7.1362,2.3158-8.3977,5.8616-4.0465.5203-7.0874,3.9485-7.1212,8.0282.164,4.5654,3.9474,8.1623,8.5153,8.0954h14.528c.1225.0175.247.0175.3695,0,3.7589-.0635,6.7831-3.11,6.8189-6.8693Z" fill="url(#linear-gradient-2)"/>
        <path d="M71.8886,200.8338c-1.4701-2.4389-4.639-3.2242-7.0778-1.754-1.173.7071-2.0165,1.8518-2.3444,3.1817-.2993,1.2954-.1015,2.656.5542,3.8126l-3.9301,3.9805c-.5194.5169-.5215,1.357-.0047,1.8764.0015.0016.0031.0031.0047.0047.2487.2501.5878.3894.9405.3863.3535.007.6941-.1328.9405-.3863l3.9133-3.9637c.4254.2473.8833.4339,1.3604.5542,2.778.6671,5.5708-1.044,6.2379-3.822.3166-1.3182.103-2.708-.5947-3.8703ZM70.9816,204.3608c-.3938,1.6209-1.8422,2.7643-3.5102,2.7712-.2897.0023-.5782-.0373-.8566-.1176-.4249-.0957-.8253-.2787-1.1757-.5375-.3696-.252-.6886-.571-.9405-.9405-.5756-.8518-.7646-1.907-.5207-2.9056.3748-1.6284,1.8224-2.7838,3.4934-2.788.294.0004.587.0342.8734.1008.9311.2464,1.7277.8499,2.217,1.6795.5019.8192.6532,1.8057.4199,2.7377Z" fill="#f2f2f2"/>
        <ellipse cx="67.4546" cy="203.5042" rx="3.611" ry="3.6278" fill="#83b9f9"/>
      </g>
      <g>
        <rect x="168.8272" y="212.6836" width="25.9771" height="17.3181" rx=".8659" ry=".8659" fill="url(#linear-gradient-3)"/>
        <polygon points="186.1453 218.8171 186.1453 223.8538 181.8158 226.3938 181.8158 221.3427 186.1453 218.8171" fill="#50e6ff"/>
        <polygon points="186.1453 218.8171 181.8158 221.3571 177.4863 218.8171 181.8158 216.2916 186.1453 218.8171" fill="#c3f1ff"/>
        <polygon points="181.8158 221.3571 181.8158 226.3938 177.4863 223.8538 177.4863 218.8171 181.8158 221.3571" fill="#9cebff"/>
        <polygon points="177.4863 223.8538 181.8158 221.3427 181.8158 226.3938 177.4863 223.8538" fill="#c3f1ff"/>
        <polygon points="186.1453 223.8538 181.8158 221.3427 181.8158 226.3938 186.1453 223.8538" fill="#9cebff"/>
        <path d="M187.0257,235.2404c-2.5689-.4041-2.6699-2.2514-2.6699-5.2387h-5.0944c0,2.9874-.0866,4.8346-2.6554,5.2387-.7345.0813-1.2889.7042-1.2844,1.4432h12.9886c.0045-.739-.5499-1.3619-1.2844-1.4432Z" fill="url(#linear-gradient-4)"/>
      </g>
      <rect x="261.2801" y="176.0604" width="122.6714" height="92.4" fill="#fff" stroke="#8e8278" stroke-width=".35"/>
      <g>
        <rect x="309.6272" y="212.6836" width="25.9771" height="17.3181" rx=".8659" ry=".8659" fill="url(#linear-gradient-5)"/>
        <polygon points="326.9453 218.8171 326.9453 223.8538 322.6158 226.3938 322.6158 221.3427 326.9453 218.8171" fill="#50e6ff"/>
        <polygon points="326.9453 218.8171 322.6158 221.3571 318.2863 218.8171 322.6158 216.2916 326.9453 218.8171" fill="#c3f1ff"/>
        <polygon points="322.6158 221.3571 322.6158 226.3938 318.2863 223.8538 318.2863 218.8171 322.6158 221.3571" fill="#9cebff"/>
        <polygon points="318.2863 223.8538 322.6158 221.3427 322.6158 226.3938 318.2863 223.8538" fill="#c3f1ff"/>
        <polygon points="326.9453 223.8538 322.6158 221.3427 322.6158 226.3938 326.9453 223.8538" fill="#9cebff"/>
        <path d="M327.8257,235.2404c-2.5689-.4041-2.6699-2.2514-2.6699-5.2387h-5.0944c0,2.9874-.0866,4.8346-2.6554,5.2387-.7345.0813-1.2889.7042-1.2844,1.4432h12.9886c.0045-.739-.5499-1.3619-1.2844-1.4432Z" fill="url(#linear-gradient-6)"/>
      </g>
      <rect x="402.0801" y="176.0604" width="122.6714" height="92.4" fill="#fff" stroke="#8e8278" stroke-width=".35"/>
      <g>
        <rect x="450.4272" y="212.6836" width="25.9771" height="17.3181" rx=".8659" ry=".8659" fill="url(#linear-gradient-7)"/>
        <polygon points="467.7453 218.8171 467.7453 223.8538 463.4158 226.3938 463.4158 221.3427 467.7453 218.8171" fill="#50e6ff"/>
        <polygon points="467.7453 218.8171 463.4158 221.3571 459.0863 218.8171 463.4158 216.2916 467.7453 218.8171" fill="#c3f1ff"/>
        <polygon points="463.4158 221.3571 463.4158 226.3938 459.0863 223.8538 459.0863 218.8171 463.4158 221.3571" fill="#9cebff"/>
        <polygon points="459.0863 223.8538 463.4158 221.3427 463.4158 226.3938 459.0863 223.8538" fill="#c3f1ff"/>
        <polygon points="467.7453 223.8538 463.4158 221.3427 463.4158 226.3938 467.7453 223.8538" fill="#9cebff"/>
        <path d="M468.6257,235.2404c-2.5689-.4041-2.6699-2.2514-2.6699-5.2387h-5.0944c0,2.9874-.0866,4.8346-2.6554,5.2387-.7345.0813-1.2889.7042-1.2844,1.4432h12.9886c.0045-.739-.5499-1.3619-1.2844-1.4432Z" fill="url(#linear-gradient-8)"/>
      </g>
      <line x1="142.4801" y1="70.4604" x2="142.4801" y2="88.0604" fill="none" stroke="#3c3c41" stroke-miterlimit="10"/>
      <g>
        <line x1="142.4801" y1="132.0604" x2="142.4801" y2="170.6782" fill="none" stroke="#3c3c41" stroke-miterlimit="10"/>
        <polygon points="138.7403 169.584 142.4801 176.0604 146.2198 169.584 138.7403 169.584" fill="#3c3c41"/>
      </g>
      <line x1="463.4158" y1="70.4604" x2="463.4158" y2="88.0604" fill="none" stroke="#3c3c41" stroke-miterlimit="10"/>
      <g>
        <line x1="463.4159" y1="127.6604" x2="463.4159" y2="170.6782" fill="none" stroke="#3c3c41" stroke-miterlimit="10"/>
        <polygon points="459.676 169.584 463.4159 176.0604 467.1556 169.584 459.676 169.584" fill="#3c3c41"/>
      </g>
      <g>
        <path d="M463.6801,136.4604h-237.0001c-2.75,0-5,2.25-5,5v29.2178" fill="none" stroke="#3c3c41" stroke-miterlimit="10"/>
        <polygon points="217.9403 169.584 221.6801 176.0604 225.4198 169.584 217.9403 169.584" fill="#3c3c41"/>
      </g>
      <g>
        <line x1="322.6158" y1="136.4604" x2="322.6158" y2="170.6782" fill="none" stroke="#3c3c41" stroke-miterlimit="10"/>
        <polygon points="318.8761 169.584 322.6158 176.0604 326.3556 169.584 318.8761 169.584" fill="#3c3c41"/>
      </g>
      <g>
        <line x1="322.8801" y1="308.0604" x2="322.8801" y2="273.8426" fill="none" stroke="#3c3c41" stroke-dasharray="12 4" stroke-miterlimit="10"/>
        <polygon points="326.6198 274.9368 322.8801 268.4604 319.1404 274.9368 326.6198 274.9368" fill="#3c3c41"/>
      </g>
    </g>
    <g id="Text">
      <g>
        <rect x="234.4979" y="32.9539" width="128" height="15.9014" fill="none"/>
        <path d="M242.6465,44.5068c-.7158.3462-1.6494.5195-2.8027.5195-1.5039,0-2.6865-.4419-3.5479-1.3262s-1.292-2.062-1.292-3.5342c0-1.5679.4844-2.8394,1.4531-3.8145.9678-.9751,2.2246-1.4629,3.7695-1.4629.957,0,1.7637.1206,2.4199.3623v2.126c-.6562-.3921-1.4033-.5879-2.2422-.5879-.9209,0-1.6631.2896-2.2285.8682s-.8477,1.3628-.8477,2.3516c0,.9478.2666,1.7031.7998,2.2661s1.251.8442,2.1533.8442c.8613,0,1.6494-.2095,2.3652-.6289v2.0166Z" fill="#2f2f2f"/>
        <path d="M246.3037,44.8555h-2.1602v-10.3633h2.1602v10.3633Z" fill="#2f2f2f"/>
        <path d="M249.2158,36.748c-.3643,0-.6631-.1084-.8955-.3247s-.3486-.4819-.3486-.7964c0-.3237.1162-.5879.3486-.793s.5312-.3076.8955-.3076c.3691,0,.6689.1025.8994.3076.2295.2051.3447.4692.3447.793,0,.3281-.1152.5972-.3447.8066-.2305.2095-.5303.3145-.8994.3145ZM250.2822,44.8555h-2.1602v-7h2.1602v7Z" fill="#2f2f2f"/>
        <path d="M258.3896,41.9707h-4.5664c.0732,1.0161.7129,1.5244,1.9209,1.5244.7705,0,1.4473-.1821,2.0303-.5469v1.5586c-.6475.3462-1.4883.5195-2.5225.5195-1.1299,0-2.0078-.3135-2.6318-.9399s-.9365-1.5005-.9365-2.6216c0-1.1621.3369-2.0825,1.0117-2.7617s1.5039-1.0186,2.4883-1.0186c1.0205,0,1.8105.3032,2.3691.9092.5576.606.8369,1.4287.8369,2.4678v.9092ZM256.3867,40.6445c0-1.0024-.4053-1.5039-1.2168-1.5039-.3467,0-.6465.1436-.8984.4307-.2539.2871-.4072.645-.4619,1.0732h2.5771Z" fill="#2f2f2f"/>
        <path d="M266.4355,44.8555h-2.1533v-3.8896c0-1.0845-.3877-1.627-1.1621-1.627-.374,0-.6816.1436-.9229.4307s-.3623.6519-.3623,1.0938v3.9922h-2.1602v-7h2.1602v1.1074h.0273c.5146-.8521,1.2646-1.2783,2.249-1.2783,1.5498,0,2.3242.9614,2.3242,2.8848v4.2861Z" fill="#2f2f2f"/>
        <path d="M272.376,44.7734c-.3193.1685-.7998.2529-1.4424.2529-1.5225,0-2.2832-.7905-2.2832-2.3721v-3.2061h-1.1348v-1.5928h1.1348v-1.5107l2.1533-.6152v2.126h1.5723v1.5928h-1.5723v2.8301c0,.729.2891,1.0938.8682,1.0938.2275,0,.4629-.0659.7041-.1982v1.5996Z" fill="#2f2f2f"/>
        <path d="M283.2793,44.8555h-2.0439v-1.0049h-.0273c-.4697.7837-1.1641,1.1758-2.085,1.1758-.6787,0-1.2139-.1924-1.6025-.5776-.3906-.3853-.585-.8989-.585-1.5415,0-1.3579.8047-2.1421,2.4131-2.3516l1.9004-.2529c0-.7656-.415-1.1484-1.2441-1.1484-.834,0-1.627.2485-2.3789.7451v-1.627c.3008-.1548.7119-.2915,1.2344-.4102.5215-.1187.9961-.1777,1.4248-.1777,1.9961,0,2.9941.9956,2.9941,2.9873v4.1836ZM281.249,42.0117v-.4717l-1.2715.1641c-.7021.0913-1.0527.4077-1.0527.9502,0,.2461.0859.4478.2559.605.1719.1572.4023.2358.6943.2358.4053,0,.7363-.1401.9912-.4204s.3828-.6348.3828-1.063Z" fill="#2f2f2f"/>
        <path d="M287.1758,44.042h-.0273v4.0332h-2.1602v-10.2197h2.1602v1.0527h.0273c.5332-.8159,1.2832-1.2236,2.249-1.2236.9072,0,1.6074.311,2.1016.9331.4951.6221.7422,1.4688.7422,2.5396,0,1.1665-.2881,2.103-.8652,2.8096-.5762.7065-1.3428,1.0596-2.2998,1.0596-.8428,0-1.4854-.3281-1.9277-.9844ZM287.1143,41.1709v.5605c0,.4829.1279.8774.3828,1.1826s.5898.458,1.0049.458c.4922,0,.874-.1904,1.1455-.5708.2705-.3804.4062-.9194.4062-1.6167,0-1.2305-.4785-1.8457-1.4355-1.8457-.4424,0-.8027.1675-1.084.5024-.2793.335-.4199.7783-.4199,1.3296Z" fill="#2f2f2f"/>
        <path d="M295.8574,44.042h-.0273v4.0332h-2.1602v-10.2197h2.1602v1.0527h.0273c.5332-.8159,1.2832-1.2236,2.249-1.2236.9072,0,1.6074.311,2.1016.9331.4951.6221.7422,1.4688.7422,2.5396,0,1.1665-.2881,2.103-.8652,2.8096-.5762.7065-1.3428,1.0596-2.2998,1.0596-.8428,0-1.4854-.3281-1.9277-.9844ZM295.7959,41.1709v.5605c0,.4829.1279.8774.3828,1.1826s.5898.458,1.0049.458c.4922,0,.874-.1904,1.1455-.5708.2705-.3804.4062-.9194.4062-1.6167,0-1.2305-.4785-1.8457-1.4355-1.8457-.4424,0-.8027.1675-1.084.5024-.2793.335-.4199.7783-.4199,1.3296Z" fill="#2f2f2f"/>
        <path d="M304.5117,44.8555h-2.1602v-10.3633h2.1602v10.3633Z" fill="#2f2f2f"/>
        <path d="M307.4238,36.748c-.3643,0-.6631-.1084-.8955-.3247s-.3486-.4819-.3486-.7964c0-.3237.1162-.5879.3486-.793s.5312-.3076.8955-.3076c.3691,0,.6689.1025.8994.3076.2295.2051.3447.4692.3447.793,0,.3281-.1152.5972-.3447.8066-.2305.2095-.5303.3145-.8994.3145ZM308.4902,44.8555h-2.1602v-7h2.1602v7Z" fill="#2f2f2f"/>
        <path d="M315.6133,44.6025c-.4873.2827-1.1914.4238-2.1123.4238-1.0752,0-1.9463-.3257-2.6113-.9775s-.998-1.4927-.998-2.5225c0-1.1895.3564-2.127,1.0703-2.813.7129-.686,1.666-1.0288,2.8604-1.0288.8252,0,1.4219.1094,1.791.3281v1.832c-.4512-.3374-.9551-.5059-1.5107-.5059-.6201,0-1.1113.1812-1.4727.5435-.3633.3623-.5439.8623-.5439,1.5005,0,.6196.1729,1.1064.5195,1.4595s.8223.5298,1.4287.5298c.5381,0,1.0645-.1685,1.5791-.5059v1.7363Z" fill="#2f2f2f"/>
        <path d="M322.8525,44.8555h-2.0439v-1.0049h-.0273c-.4697.7837-1.1641,1.1758-2.085,1.1758-.6787,0-1.2139-.1924-1.6025-.5776-.3906-.3853-.585-.8989-.585-1.5415,0-1.3579.8047-2.1421,2.4131-2.3516l1.9004-.2529c0-.7656-.415-1.1484-1.2441-1.1484-.834,0-1.627.2485-2.3789.7451v-1.627c.3008-.1548.7119-.2915,1.2344-.4102.5215-.1187.9961-.1777,1.4248-.1777,1.9961,0,2.9941.9956,2.9941,2.9873v4.1836ZM320.8223,42.0117v-.4717l-1.2715.1641c-.7021.0913-1.0527.4077-1.0527.9502,0,.2461.0859.4478.2559.605.1719.1572.4023.2358.6943.2358.4053,0,.7363-.1401.9912-.4204s.3828-.6348.3828-1.063Z" fill="#2f2f2f"/>
        <path d="M328.793,44.7734c-.3193.1685-.7998.2529-1.4424.2529-1.5225,0-2.2832-.7905-2.2832-2.3721v-3.2061h-1.1348v-1.5928h1.1348v-1.5107l2.1533-.6152v2.126h1.5723v1.5928h-1.5723v2.8301c0,.729.2891,1.0938.8682,1.0938.2275,0,.4629-.0659.7041-.1982v1.5996Z" fill="#2f2f2f"/>
        <path d="M331.1035,36.748c-.3643,0-.6631-.1084-.8955-.3247s-.3486-.4819-.3486-.7964c0-.3237.1162-.5879.3486-.793s.5312-.3076.8955-.3076c.3691,0,.6689.1025.8994.3076.2295.2051.3447.4692.3447.793,0,.3281-.1152.5972-.3447.8066-.2305.2095-.5303.3145-.8994.3145ZM332.1699,44.8555h-2.1602v-7h2.1602v7Z" fill="#2f2f2f"/>
        <path d="M337.3242,45.0264c-1.167,0-2.084-.3271-2.751-.981-.668-.6538-1.002-1.5415-1.002-2.6626,0-1.1577.3467-2.0635,1.0391-2.7173s1.6289-.981,2.8096-.981c1.1621,0,2.0732.3271,2.7344.981s.9912,1.5186.9912,2.5942c0,1.1621-.3408,2.0806-1.0215,2.7549-.6816.6743-1.6152,1.0117-2.7998,1.0117ZM337.3789,39.3389c-.5107,0-.9072.1753-1.1895.5264s-.4238.8477-.4238,1.4902c0,1.3442.542,2.0166,1.627,2.0166,1.0342,0,1.5518-.6904,1.5518-2.0713,0-1.3081-.5215-1.9619-1.5654-1.9619Z" fill="#2f2f2f"/>
        <path d="M349.3076,44.8555h-2.1533v-3.8896c0-1.0845-.3877-1.627-1.1621-1.627-.374,0-.6816.1436-.9229.4307s-.3623.6519-.3623,1.0938v3.9922h-2.1602v-7h2.1602v1.1074h.0273c.5146-.8521,1.2646-1.2783,2.249-1.2783,1.5498,0,2.3242.9614,2.3242,2.8848v4.2861Z" fill="#2f2f2f"/>
        <path d="M350.5586,44.6709v-1.75c.3555.2144.71.3735,1.0625.4785.3535.105.6875.1572,1.002.1572.3828,0,.6846-.0522.9062-.1572.2207-.105.3311-.2642.3311-.4785,0-.1367-.0498-.2505-.1504-.3418s-.2295-.1709-.3857-.2393c-.1582-.0684-.3301-.1299-.5166-.1846s-.3672-.1162-.54-.1846c-.2783-.105-.5234-.2178-.7344-.3384-.2129-.1206-.3906-.2607-.5332-.4204-.1445-.1597-.2539-.3442-.3281-.5537-.0762-.2095-.1133-.458-.1133-.7451,0-.3921.0859-.729.2559-1.0117.1719-.2827.3994-.5137.6836-.6938.2852-.1802.6113-.312.9785-.3965.3662-.0845.748-.1265,1.1445-.1265.3096,0,.624.0239.9434.0718s.6338.1172.9434.2085v1.668c-.2734-.1597-.5664-.2793-.8789-.3589-.3115-.0796-.6182-.1196-.9189-.1196-.1416,0-.2744.0127-.3994.0376-.126.0249-.2363.0615-.332.1094s-.1709.1094-.2256.1846-.082.1606-.082.2563c0,.1274.041.2368.123.3281s.1895.1699.3213.2358.2793.1255.4414.1777c.1611.0522.3223.106.4814.1606.2871.1001.5469.2095.7793.3281s.4316.2573.5986.417c.166.1597.293.3462.3828.5605.0879.2144.1328.4692.1328.7656,0,.4146-.0898.769-.2695,1.063-.1807.2939-.4199.5332-.7188.7178-.2979.1846-.6426.3188-1.0312.4033-.3906.0845-.7949.1265-1.2139.1265-.7705,0-1.4834-.1187-2.1396-.3555Z" fill="#2f2f2f"/>
      </g>
      <g>
        <rect x="36.3486" y="223.519" width="59.8942" height="31.7414" fill="none"/>
        <path d="M45.0225,235.0439v-2.1875c.3965.3325.8271.582,1.292.7485s.9346.2495,1.4082.2495c.2783,0,.5205-.0249.7275-.0752.208-.0503.3809-.1196.5195-.2085.1396-.0889.2432-.1938.3115-.3145s.1025-.252.1025-.3931c0-.1914-.0547-.3623-.1641-.5127s-.2588-.2896-.4473-.417c-.1895-.1274-.4141-.2505-.6738-.3691s-.54-.2393-.8408-.3623c-.7656-.3188-1.3369-.7085-1.7119-1.1689-.377-.4604-.5645-1.0161-.5645-1.668,0-.5103.1025-.9492.3076-1.3159s.4844-.6689.8369-.9058c.3535-.2368.7627-.4111,1.2275-.5229s.957-.1675,1.4766-.1675c.5107,0,.9629.0308,1.3564.0923.3945.0615.7578.1562,1.0908.2837v2.0439c-.1641-.1138-.3428-.2144-.5361-.3008-.1943-.0864-.3936-.1582-.5986-.2153s-.4092-.0991-.6123-.1265c-.2021-.0273-.3945-.041-.5771-.041-.251,0-.4785.0239-.6836.0718s-.3779.1152-.5195.2017-.251.1904-.3281.311-.1162.2563-.1162.4067c0,.1641.043.311.1299.4409s.21.2529.3691.3691.3535.23.5811.3418.4854.2266.7725.3452c.3916.1641.7441.3384,1.0557.5229.3125.1846.5801.3931.8037.6255s.3945.498.5127.7964.1777.646.1777,1.0425c0,.5469-.1035,1.0059-.3105,1.3774-.208.3716-.4893.6724-.8447.9023s-.7686.3955-1.2412.4956c-.4707.1001-.9688.1504-1.4932.1504-.5381,0-1.0498-.0454-1.5342-.1367-.4863-.0913-.9062-.228-1.2617-.4102Z" fill="#2f2f2f"/>
        <path d="M59.3984,232.5352h-4.5664c.0732,1.0161.7129,1.5244,1.9209,1.5244.7705,0,1.4473-.1821,2.0303-.5469v1.5586c-.6475.3462-1.4883.5195-2.5225.5195-1.1299,0-2.0078-.3135-2.6318-.9399s-.9365-1.5005-.9365-2.6216c0-1.1621.3369-2.0825,1.0117-2.7617s1.5039-1.0186,2.4883-1.0186c1.0205,0,1.8105.3032,2.3691.9092.5576.606.8369,1.4287.8369,2.4678v.9092ZM57.3955,231.209c0-1.0024-.4053-1.5039-1.2168-1.5039-.3467,0-.6465.1436-.8984.4307-.2539.2871-.4072.645-.4619,1.0732h2.5771Z" fill="#2f2f2f"/>
        <path d="M66.5635,235.4199h-2.0439v-1.0049h-.0273c-.4697.7837-1.1641,1.1758-2.085,1.1758-.6787,0-1.2139-.1924-1.6025-.5776-.3906-.3853-.585-.8989-.585-1.5415,0-1.3579.8047-2.1421,2.4131-2.3516l1.9004-.2529c0-.7656-.415-1.1484-1.2441-1.1484-.834,0-1.627.2485-2.3789.7451v-1.627c.3008-.1548.7119-.2915,1.2344-.4102.5215-.1187.9961-.1777,1.4248-.1777,1.9961,0,2.9941.9956,2.9941,2.9873v4.1836ZM64.5332,232.5762v-.4717l-1.2715.1641c-.7021.0913-1.0527.4077-1.0527.9502,0,.2461.0859.4478.2559.605.1719.1572.4023.2358.6943.2358.4053,0,.7363-.1401.9912-.4204s.3828-.6348.3828-1.063Z" fill="#2f2f2f"/>
        <path d="M72.8262,230.3682c-.2598-.1411-.5625-.2119-.9092-.2119-.4697,0-.8359.1719-1.1006.5161s-.3965.8125-.3965,1.4048v3.3428h-2.1602v-7h2.1602v1.2988h.0273c.3418-.9478.957-1.4219,1.8457-1.4219.2275,0,.4053.0273.5332.082v1.9893Z" fill="#2f2f2f"/>
        <path d="M79.2002,235.167c-.4873.2827-1.1914.4238-2.1123.4238-1.0752,0-1.9463-.3257-2.6113-.9775s-.998-1.4927-.998-2.5225c0-1.1895.3564-2.127,1.0703-2.813.7129-.686,1.666-1.0288,2.8604-1.0288.8252,0,1.4219.1094,1.791.3281v1.832c-.4512-.3374-.9551-.5059-1.5107-.5059-.6201,0-1.1113.1812-1.4727.5435-.3633.3623-.5439.8623-.5439,1.5005,0,.6196.1729,1.1064.5195,1.4595s.8223.5298,1.4287.5298c.5381,0,1.0645-.1685,1.5791-.5059v1.7363Z" fill="#2f2f2f"/>
        <path d="M87.4375,235.4199h-2.1533v-3.9785c0-1.0254-.374-1.5381-1.1211-1.5381-.3828,0-.6924.1436-.9297.4307s-.3555.6519-.3555,1.0938v3.9922h-2.1602v-10.3633h2.1602v4.4023h.0273c.5283-.8066,1.2461-1.21,2.1533-1.21,1.5859,0,2.3789.957,2.3789,2.8711v4.2998Z" fill="#2f2f2f"/>
        <path d="M43.8896,250.2354v-1.75c.3555.2144.71.374,1.0625.4785.3535.1045.6875.1572,1.002.1572.3828,0,.6846-.0527.9062-.1572.2207-.1045.3311-.2642.3311-.4785,0-.1367-.0498-.2505-.1504-.3418s-.2295-.1709-.3857-.2393c-.1582-.0684-.3301-.1299-.5166-.1846s-.3672-.1162-.54-.1846c-.2783-.105-.5234-.2178-.7344-.3384-.2129-.1206-.3906-.2607-.5332-.4204-.1445-.1597-.2539-.3442-.3281-.5537-.0762-.2095-.1133-.458-.1133-.7451,0-.3921.0859-.729.2559-1.0117.1719-.2827.3994-.5137.6836-.6938.2852-.1802.6113-.312.9785-.3965.3662-.0845.748-.1265,1.1445-.1265.3096,0,.624.0239.9434.0718s.6338.1172.9434.2085v1.668c-.2734-.1597-.5664-.2793-.8789-.3589-.3115-.0796-.6182-.1196-.9189-.1196-.1416,0-.2744.0127-.3994.0376-.126.0249-.2363.0615-.332.1094s-.1709.1094-.2256.1846-.082.1606-.082.2563c0,.1274.041.2368.123.3281s.1895.1699.3213.2358.2793.1255.4414.1777c.1611.0522.3223.106.4814.1606.2871.1001.5469.2095.7793.3281s.4316.2573.5986.417c.166.1597.293.3462.3828.5605.0879.2144.1328.4692.1328.7656,0,.4146-.0898.7686-.2695,1.0635-.1807.293-.4199.5332-.7188.7168-.2979.1855-.6426.3193-1.0312.4043-.3906.084-.7949.126-1.2139.126-.7705,0-1.4834-.1182-2.1396-.3555Z" fill="#2f2f2f"/>
        <path d="M56.8389,247.5352h-4.5664c.0732,1.0161.7129,1.5244,1.9209,1.5244.7705,0,1.4473-.1826,2.0303-.5469v1.5586c-.6475.3467-1.4883.5195-2.5225.5195-1.1299,0-2.0078-.3135-2.6318-.9404-.624-.626-.9365-1.5-.9365-2.6211,0-1.1621.3369-2.0825,1.0117-2.7617s1.5039-1.0186,2.4883-1.0186c1.0205,0,1.8105.3032,2.3691.9092.5576.606.8369,1.4287.8369,2.4678v.9092ZM54.8359,246.209c0-1.0024-.4053-1.5039-1.2168-1.5039-.3467,0-.6465.1436-.8984.4307-.2539.2871-.4072.645-.4619,1.0732h2.5771Z" fill="#2f2f2f"/>
        <path d="M62.7705,245.3682c-.2598-.1411-.5625-.2119-.9092-.2119-.4697,0-.8359.1719-1.1006.5161s-.3965.8125-.3965,1.4048v3.3428h-2.1602v-7h2.1602v1.2988h.0273c.3418-.9478.957-1.4219,1.8457-1.4219.2275,0,.4053.0273.5332.082v1.9893Z" fill="#2f2f2f"/>
        <path d="M70.8691,243.4199l-2.6045,7h-2.4609l-2.4814-7h2.3105l1.2168,4.3135c.1367.4878.2168.9023.2393,1.2441h.0273c.0322-.3237.1162-.7246.2529-1.2031l1.2441-4.3545h2.2559Z" fill="#2f2f2f"/>
        <path d="M72.915,242.3125c-.3643,0-.6631-.1084-.8955-.3247s-.3486-.4819-.3486-.7964c0-.3237.1162-.5879.3486-.793s.5312-.3076.8955-.3076c.3691,0,.6689.1025.8994.3076.2295.2051.3447.4692.3447.793,0,.3281-.1152.5972-.3447.8066-.2305.2095-.5303.3145-.8994.3145ZM73.9814,250.4199h-2.1602v-7h2.1602v7Z" fill="#2f2f2f"/>
        <path d="M81.0615,250.167c-.4873.2822-1.1914.4238-2.1123.4238-1.0752,0-1.9463-.3262-2.6113-.9775-.665-.6523-.998-1.4927-.998-2.5225,0-1.1895.3564-2.127,1.0703-2.813.7129-.686,1.666-1.0288,2.8604-1.0288.8252,0,1.4219.1094,1.791.3281v1.832c-.4512-.3374-.9551-.5059-1.5107-.5059-.6201,0-1.1113.1812-1.4727.5435-.3633.3623-.5439.8623-.5439,1.5005,0,.6196.1729,1.1064.5195,1.4595s.8223.5298,1.4287.5298c.5381,0,1.0645-.1689,1.5791-.5059v1.7363Z" fill="#2f2f2f"/>
        <path d="M88.7764,247.5352h-4.5664c.0732,1.0161.7129,1.5244,1.9209,1.5244.7705,0,1.4473-.1826,2.0303-.5469v1.5586c-.6475.3467-1.4883.5195-2.5225.5195-1.1299,0-2.0078-.3135-2.6318-.9404-.624-.626-.9365-1.5-.9365-2.6211,0-1.1621.3369-2.0825,1.0117-2.7617s1.5039-1.0186,2.4883-1.0186c1.0205,0,1.8105.3032,2.3691.9092.5576.606.8369,1.4287.8369,2.4678v.9092ZM86.7734,246.209c0-1.0024-.4053-1.5039-1.2168-1.5039-.3467,0-.6465.1436-.8984.4307-.2539.2871-.4072.645-.4619,1.0732h2.5771Z" fill="#2f2f2f"/>
      </g>
      <g>
        <rect x="179.651" y="318.4604" width="283.7648" height="16" fill="none"/>
        <path d="M252.4043,328.8237h-1.2715l-1.0391-2.748h-4.1562l-.9775,2.748h-1.2783l3.7598-9.8027h1.1895l3.7734,9.8027ZM249.7178,325.0435l-1.5381-4.1768c-.0498-.1367-.1006-.3555-.1504-.6562h-.0273c-.0459.2778-.0977.4966-.1572.6562l-1.5244,4.1768h3.3975Z" fill="#2f2f2f"/>
        <path d="M253.2725,328.5708v-1.2031c.6104.4512,1.2832.6768,2.0166.6768.9844,0,1.4766-.3281,1.4766-.9844,0-.187-.042-.3452-.126-.4751-.085-.1299-.1992-.2451-.3418-.3452-.1445-.1001-.3125-.1904-.5059-.27-.1943-.0796-.4023-.1631-.626-.2495-.3096-.123-.582-.2471-.8174-.3726-.2344-.1255-.4297-.2666-.5879-.4238-.1562-.1572-.2754-.3359-.3555-.5366-.0791-.2007-.1191-.4351-.1191-.7041,0-.3281.0752-.6187.2256-.8716s.3506-.4648.6016-.6357.5361-.2998.8584-.3862c.3203-.0864.6523-.1299.9941-.1299.6064,0,1.1484.105,1.627.3145v1.1348c-.5146-.3374-1.1074-.5059-1.7773-.5059-.21,0-.3984.0239-.5674.0718s-.3135.1152-.4346.2017c-.1201.0864-.2139.1904-.2793.311-.0664.1206-.0996.2539-.0996.3999,0,.1821.0332.335.0996.458.0654.123.1621.2324.29.3281s.2822.1821.4648.2598.3896.1616.6221.2529c.3096.1187.5879.2402.834.3657s.4561.2666.6289.4238.3066.3384.4004.5435c.0928.2051.1396.4487.1396.7314,0,.3462-.0762.647-.2295.9023-.1523.2554-.3564.4673-.6113.6357s-.5488.2939-.8818.376-.6816.123-1.0459.123c-.7197,0-1.3447-.1392-1.873-.417Z" fill="#2f2f2f"/>
        <path d="M265.208,321.8237l-3.2197,8.1211c-.5742,1.4492-1.3809,2.1738-2.4199,2.1738-.292,0-.5352-.0298-.7314-.0889v-1.0049c.2412.082.4629.123.6631.123.5654,0,.9893-.3374,1.2715-1.0117l.5605-1.3262-2.7344-6.9863h1.2441l1.8936,5.3867c.0225.0684.0703.2461.1436.5332h.041c.0225-.1094.0684-.2827.1367-.5195l1.9893-5.4004h1.1621Z" fill="#2f2f2f"/>
        <path d="M272.2217,328.8237h-1.1211v-3.9922c0-1.4858-.542-2.2285-1.627-2.2285-.5605,0-1.0244.2109-1.3906.6323-.3672.4214-.5508.9536-.5508,1.5962v3.9922h-1.1211v-7h1.1211v1.1621h.0273c.5283-.8843,1.2939-1.3262,2.2969-1.3262.7656,0,1.3516.2471,1.7568.7417s.6084,1.209.6084,2.1431v4.2793Z" fill="#2f2f2f"/>
        <path d="M279.1055,328.5024c-.5381.3237-1.1758.4854-1.9141.4854-.998,0-1.8037-.3247-2.416-.9741-.6133-.6494-.9199-1.4912-.9199-2.5259,0-1.1528.3301-2.0791.9912-2.7788s1.543-1.0493,2.6455-1.0493c.6152,0,1.1572.1138,1.627.3418v1.1484c-.5195-.3647-1.0752-.5469-1.668-.5469-.7158,0-1.3027.2563-1.7598.769-.459.5127-.6875,1.186-.6875,2.02,0,.8203.2148,1.4673.6465,1.9414.4297.4741,1.0078.7109,1.7324.7109.6104,0,1.1846-.2026,1.7227-.6084v1.0664Z" fill="#2f2f2f"/>
        <path d="M286.6113,328.8237h-1.1211v-4.0332c0-1.4585-.542-2.1875-1.627-2.1875-.5469,0-1.0068.2109-1.3809.6323s-.5605.9629-.5605,1.6235v3.9648h-1.1211v-10.3633h1.1211v4.5254h.0273c.5381-.8843,1.3037-1.3262,2.2969-1.3262,1.5771,0,2.3652.9502,2.3652,2.8506v4.3135Z" fill="#2f2f2f"/>
        <path d="M292.374,322.9585c-.1963-.1504-.4785-.2256-.8477-.2256-.4785,0-.8789.2256-1.1992.6768-.3223.4512-.4824,1.0664-.4824,1.8457v3.5684h-1.1211v-7h1.1211v1.4424h.0273c.1592-.4922.4033-.876.7314-1.1519s.6953-.4136,1.1006-.4136c.292,0,.5146.0317.6699.0957v1.1621Z" fill="#2f2f2f"/>
        <path d="M296.5166,328.9878c-1.0342,0-1.8604-.3271-2.4785-.981-.6172-.6538-.9258-1.521-.9258-2.6011,0-1.1758.3213-2.0942.9639-2.7549s1.5107-.9912,2.6045-.9912c1.0439,0,1.8584.3213,2.4434.9639.5859.6426.8789,1.5337.8789,2.6729,0,1.1167-.3154,2.0107-.9473,2.6831-.6309.6724-1.4775,1.0083-2.5391,1.0083ZM296.5986,322.603c-.7197,0-1.29.2451-1.709.7349s-.6289,1.1655-.6289,2.0269c0,.8296.2119,1.4834.6357,1.9619s.9912.7178,1.7021.7178c.7246,0,1.2812-.2349,1.6719-.7041.3887-.4692.584-1.1372.584-2.0029,0-.875-.1953-1.5493-.584-2.0234-.3906-.4741-.9473-.7109-1.6719-.7109Z" fill="#2f2f2f"/>
        <path d="M307.6045,328.8237h-1.1211v-3.9922c0-1.4858-.542-2.2285-1.627-2.2285-.5605,0-1.0244.2109-1.3906.6323-.3672.4214-.5508.9536-.5508,1.5962v3.9922h-1.1211v-7h1.1211v1.1621h.0273c.5283-.8843,1.2939-1.3262,2.2969-1.3262.7656,0,1.3516.2471,1.7568.7417s.6084,1.209.6084,2.1431v4.2793Z" fill="#2f2f2f"/>
        <path d="M312.6426,328.9878c-1.0342,0-1.8604-.3271-2.4785-.981-.6172-.6538-.9258-1.521-.9258-2.6011,0-1.1758.3213-2.0942.9639-2.7549s1.5107-.9912,2.6045-.9912c1.0439,0,1.8584.3213,2.4434.9639.5859.6426.8789,1.5337.8789,2.6729,0,1.1167-.3154,2.0107-.9473,2.6831-.6309.6724-1.4775,1.0083-2.5391,1.0083ZM312.7246,322.603c-.7197,0-1.29.2451-1.709.7349s-.6289,1.1655-.6289,2.0269c0,.8296.2119,1.4834.6357,1.9619s.9912.7178,1.7021.7178c.7246,0,1.2812-.2349,1.6719-.7041.3887-.4692.584-1.1372.584-2.0029,0-.875-.1953-1.5493-.584-2.0234-.3906-.4741-.9473-.7109-1.6719-.7109Z" fill="#2f2f2f"/>
        <path d="M323.5801,328.8237h-1.1211v-1.1074h-.0273c-.4648.8477-1.1846,1.2715-2.1602,1.2715-1.668,0-2.502-.9937-2.502-2.9805v-4.1836h1.1143v4.0059c0,1.4766.5654,2.2148,1.6953,2.2148.5469,0,.9971-.2017,1.3506-.605.3525-.4033.5293-.9307.5293-1.5825v-4.0332h1.1211v7Z" fill="#2f2f2f"/>
        <path d="M325.4189,328.5708v-1.2031c.6104.4512,1.2832.6768,2.0166.6768.9844,0,1.4766-.3281,1.4766-.9844,0-.187-.042-.3452-.126-.4751-.085-.1299-.1992-.2451-.3418-.3452-.1445-.1001-.3125-.1904-.5059-.27-.1943-.0796-.4023-.1631-.626-.2495-.3096-.123-.582-.2471-.8174-.3726-.2344-.1255-.4297-.2666-.5879-.4238-.1562-.1572-.2754-.3359-.3555-.5366-.0791-.2007-.1191-.4351-.1191-.7041,0-.3281.0752-.6187.2256-.8716s.3506-.4648.6016-.6357.5361-.2998.8584-.3862c.3203-.0864.6523-.1299.9941-.1299.6064,0,1.1484.105,1.627.3145v1.1348c-.5146-.3374-1.1074-.5059-1.7773-.5059-.21,0-.3984.0239-.5674.0718s-.3135.1152-.4346.2017c-.1201.0864-.2139.1904-.2793.311-.0664.1206-.0996.2539-.0996.3999,0,.1821.0332.335.0996.458.0654.123.1621.2324.29.3281s.2822.1821.4648.2598.3896.1616.6221.2529c.3096.1187.5879.2402.834.3657s.4561.2666.6289.4238.3066.3384.4004.5435c.0928.2051.1396.4487.1396.7314,0,.3462-.0762.647-.2295.9023-.1523.2554-.3564.4673-.6113.6357s-.5488.2939-.8818.376-.6816.123-1.0459.123c-.7197,0-1.3447-.1392-1.873-.417Z" fill="#2f2f2f"/>
        <path d="M339.2686,322.9585c-.1963-.1504-.4785-.2256-.8477-.2256-.4785,0-.8789.2256-1.1992.6768-.3223.4512-.4824,1.0664-.4824,1.8457v3.5684h-1.1211v-7h1.1211v1.4424h.0273c.1592-.4922.4033-.876.7314-1.1519s.6953-.4136,1.1006-.4136c.292,0,.5146.0317.6699.0957v1.1621Z" fill="#2f2f2f"/>
        <path d="M346.1113,325.604h-4.9424c.0186.7793.2275,1.3809.6289,1.8047s.9521.6357,1.6543.6357c.7881,0,1.5127-.2598,2.1738-.7793v1.0527c-.6152.4468-1.4287.6699-2.4404.6699-.9893,0-1.7656-.3179-2.3311-.9536s-.8477-1.5303-.8477-2.6831c0-1.0894.3086-1.9766.9258-2.6626.6182-.686,1.3848-1.0288,2.3008-1.0288s1.625.2964,2.126.8887.752,1.415.752,2.4678v.5879ZM344.9629,324.6538c-.0049-.647-.1611-1.1509-.4678-1.5107-.3086-.3599-.7354-.54-1.2822-.54-.5283,0-.9775.189-1.3467.5674s-.5967.8726-.6836,1.4834h3.7803Z" fill="#2f2f2f"/>
        <path d="M348.9551,327.812h-.0273v4.2314h-1.1211v-10.2197h1.1211v1.2305h.0273c.5518-.9297,1.3584-1.3945,2.4199-1.3945.9023,0,1.6064.3135,2.1123.9399s.7588,1.4663.7588,2.519c0,1.1714-.2852,2.1089-.8545,2.813s-1.3486,1.0562-2.3379,1.0562c-.9072,0-1.6064-.3921-2.0986-1.1758ZM348.9277,324.9888v.9775c0,.5786.1875,1.0698.5645,1.4731.375.4033.8525.605,1.4316.605.6787,0,1.2109-.2598,1.5957-.7793.3857-.5195.5781-1.2417.5781-2.167,0-.7793-.1797-1.3901-.54-1.832s-.8477-.6631-1.4629-.6631c-.6514,0-1.1758.2266-1.5723.6802s-.5947,1.022-.5947,1.7056Z" fill="#2f2f2f"/>
        <path d="M357.1582,328.8237h-1.1211v-10.3633h1.1211v10.3633Z" fill="#2f2f2f"/>
        <path d="M360.002,320.0464c-.2002,0-.3711-.0684-.5127-.2051s-.2119-.3101-.2119-.5195.0703-.3838.2119-.5229.3125-.2085.5127-.2085c.2051,0,.3789.0693.5234.2085.1426.1392.2148.3135.2148.5229,0,.2007-.0723.3716-.2148.5127-.1445.1411-.3184.2119-.5234.2119ZM360.5488,328.8237h-1.1211v-7h1.1211v7Z" fill="#2f2f2f"/>
        <path d="M367.5898,328.5024c-.5381.3237-1.1758.4854-1.9141.4854-.998,0-1.8037-.3247-2.416-.9741-.6133-.6494-.9199-1.4912-.9199-2.5259,0-1.1528.3301-2.0791.9912-2.7788s1.543-1.0493,2.6455-1.0493c.6152,0,1.1572.1138,1.627.3418v1.1484c-.5195-.3647-1.0752-.5469-1.668-.5469-.7158,0-1.3027.2563-1.7598.769-.459.5127-.6875,1.186-.6875,2.02,0,.8203.2148,1.4673.6465,1.9414.4297.4741,1.0078.7109,1.7324.7109.6104,0,1.1846-.2026,1.7227-.6084v1.0664Z" fill="#2f2f2f"/>
        <path d="M374.2959,328.8237h-1.1211v-1.0938h-.0273c-.4873.8384-1.2051,1.2578-2.1533,1.2578-.6973,0-1.2432-.1846-1.6367-.5537-.3945-.3691-.5918-.8589-.5918-1.4697,0-1.3081.7705-2.0688,2.3105-2.2832l2.0986-.2939c0-1.1895-.4805-1.7842-1.4424-1.7842-.8428,0-1.6045.2871-2.2832.8613v-1.1484c.6885-.4375,1.4814-.6562,2.3789-.6562,1.6455,0,2.4678.8706,2.4678,2.6113v4.5527ZM373.1748,325.2827l-1.6885.2324c-.5195.0728-.9111.2017-1.1758.3862s-.3965.5117-.3965.981c0,.3418.1221.6211.3652.8374.2441.2163.5693.3247.9746.3247.5557,0,1.0156-.1948,1.377-.5845.3633-.3896.5439-.8828.5439-1.48v-.6973Z" fill="#2f2f2f"/>
        <path d="M379.6553,328.7554c-.2646.146-.6133.2188-1.0459.2188-1.2256,0-1.8389-.6836-1.8389-2.0508v-4.1426h-1.2031v-.957h1.2031v-1.709l1.1211-.3623v2.0713h1.7637v.957h-1.7637v3.9443c0,.4692.0801.8042.2393,1.0049s.4238.3008.793.3008c.2822,0,.5264-.0776.7314-.2324v.957Z" fill="#2f2f2f"/>
        <path d="M381.7266,320.0464c-.2002,0-.3711-.0684-.5127-.2051s-.2119-.3101-.2119-.5195.0703-.3838.2119-.5229.3125-.2085.5127-.2085c.2051,0,.3789.0693.5234.2085.1426.1392.2148.3135.2148.5229,0,.2007-.0723.3716-.2148.5127-.1445.1411-.3184.2119-.5234.2119ZM382.2734,328.8237h-1.1211v-7h1.1211v7Z" fill="#2f2f2f"/>
        <path d="M387.4688,328.9878c-1.0342,0-1.8604-.3271-2.4785-.981-.6172-.6538-.9258-1.521-.9258-2.6011,0-1.1758.3213-2.0942.9639-2.7549s1.5107-.9912,2.6045-.9912c1.0439,0,1.8584.3213,2.4434.9639.5859.6426.8789,1.5337.8789,2.6729,0,1.1167-.3154,2.0107-.9473,2.6831-.6309.6724-1.4775,1.0083-2.5391,1.0083ZM387.5508,322.603c-.7197,0-1.29.2451-1.709.7349s-.6289,1.1655-.6289,2.0269c0,.8296.2119,1.4834.6357,1.9619s.9912.7178,1.7021.7178c.7246,0,1.2812-.2349,1.6719-.7041.3887-.4692.584-1.1372.584-2.0029,0-.875-.1953-1.5493-.584-2.0234-.3906-.4741-.9473-.7109-1.6719-.7109Z" fill="#2f2f2f"/>
        <path d="M398.5566,328.8237h-1.1211v-3.9922c0-1.4858-.542-2.2285-1.627-2.2285-.5605,0-1.0244.2109-1.3906.6323-.3672.4214-.5508.9536-.5508,1.5962v3.9922h-1.1211v-7h1.1211v1.1621h.0273c.5283-.8843,1.2939-1.3262,2.2969-1.3262.7656,0,1.3516.2471,1.7568.7417s.6084,1.209.6084,2.1431v4.2793Z" fill="#2f2f2f"/>
      </g>
      <g>
        <path d="M162.5557,198.647h-1.3672l-1.6406-2.748c-.1504-.2554-.2959-.4727-.4375-.6528s-.2861-.3271-.4336-.4409c-.1484-.1138-.3086-.1973-.4785-.2495-.1719-.0522-.3643-.0786-.5781-.0786h-.9434v4.1699h-1.1484v-9.8027h2.9258c.4287,0,.8242.0537,1.1855.1606.3633.1069.6777.27.9434.4888.2676.2188.4756.4912.626.8169s.2256.7075.2256,1.145c0,.3418-.0508.6553-.1543.9399-.1016.2847-.248.5391-.4375.7622-.1885.2231-.416.4136-.6836.5708-.2656.1572-.5654.2793-.8984.3657v.0273c.1641.0728.3066.1562.4277.2495.1201.0933.2354.2041.3447.3315s.2178.2725.3252.4341c.1064.1616.2266.3496.3584.564l1.8389,2.9463ZM156.6768,189.8833v3.5547h1.5586c.2871,0,.5527-.0435.7969-.1299.2432-.0864.4541-.2109.6318-.3726s.3164-.3599.417-.5947.1504-.498.1504-.7896c0-.5239-.1699-.9331-.5098-1.2271-.3389-.2939-.8301-.4409-1.4727-.4409h-1.5723Z" fill="#2f2f2f"/>
        <path d="M169.168,195.4272h-4.9424c.0186.7793.2275,1.3809.6289,1.8047s.9521.6357,1.6543.6357c.7881,0,1.5127-.2598,2.1738-.7793v1.0527c-.6152.4468-1.4287.6699-2.4404.6699-.9893,0-1.7656-.3179-2.3311-.9536s-.8477-1.5303-.8477-2.6831c0-1.0894.3086-1.9766.9258-2.6626.6182-.686,1.3848-1.0288,2.3008-1.0288s1.625.2964,2.126.8887.752,1.415.752,2.4678v.5879ZM168.0195,194.4771c-.0049-.647-.1611-1.1509-.4678-1.5107-.3086-.3599-.7354-.54-1.2822-.54-.5283,0-.9775.189-1.3467.5674s-.5967.8726-.6836,1.4834h3.7803Z" fill="#2f2f2f"/>
        <path d="M171.999,197.6353h-.0273v4.2314h-1.1211v-10.2197h1.1211v1.2305h.0273c.5518-.9297,1.3584-1.3945,2.4199-1.3945.9023,0,1.6064.3135,2.1123.9399s.7588,1.4663.7588,2.519c0,1.1714-.2852,2.1089-.8545,2.813s-1.3486,1.0562-2.3379,1.0562c-.9072,0-1.6064-.3921-2.0986-1.1758ZM171.9717,194.812v.9775c0,.5786.1875,1.0698.5645,1.4731.375.4033.8525.605,1.4316.605.6787,0,1.2109-.2598,1.5957-.7793.3857-.5195.5781-1.2417.5781-2.167,0-.7793-.1797-1.3901-.54-1.832s-.8477-.6631-1.4629-.6631c-.6514,0-1.1758.2266-1.5723.6802s-.5947,1.022-.5947,1.7056Z" fill="#2f2f2f"/>
        <path d="M180.1406,198.647h-1.1211v-10.3633h1.1211v10.3633Z" fill="#2f2f2f"/>
        <path d="M182.8271,189.8696c-.2002,0-.3711-.0684-.5127-.2051s-.2119-.3101-.2119-.5195.0703-.3838.2119-.5229.3125-.2085.5127-.2085c.2051,0,.3789.0693.5234.2085.1426.1392.2148.3135.2148.5229,0,.2007-.0723.3716-.2148.5127-.1445.1411-.3184.2119-.5234.2119ZM183.374,198.647h-1.1211v-7h1.1211v7Z" fill="#2f2f2f"/>
        <path d="M190.2871,198.3257c-.5381.3237-1.1758.4854-1.9141.4854-.998,0-1.8037-.3247-2.416-.9741-.6133-.6494-.9199-1.4912-.9199-2.5259,0-1.1528.3301-2.0791.9912-2.7788s1.543-1.0493,2.6455-1.0493c.6152,0,1.1572.1138,1.627.3418v1.1484c-.5195-.3647-1.0752-.5469-1.668-.5469-.7158,0-1.3027.2563-1.7598.769-.459.5127-.6875,1.186-.6875,2.02,0,.8203.2148,1.4673.6465,1.9414.4297.4741,1.0078.7109,1.7324.7109.6104,0,1.1846-.2026,1.7227-.6084v1.0664Z" fill="#2f2f2f"/>
        <path d="M197.0303,198.647h-1.1211v-1.0938h-.0273c-.4873.8384-1.2051,1.2578-2.1533,1.2578-.6973,0-1.2432-.1846-1.6367-.5537-.3945-.3691-.5918-.8589-.5918-1.4697,0-1.3081.7705-2.0688,2.3105-2.2832l2.0986-.2939c0-1.1895-.4805-1.7842-1.4424-1.7842-.8428,0-1.6045.2871-2.2832.8613v-1.1484c.6885-.4375,1.4814-.6562,2.3789-.6562,1.6455,0,2.4678.8706,2.4678,2.6113v4.5527ZM195.9092,195.106l-1.6885.2324c-.5195.0728-.9111.2017-1.1758.3862s-.3965.5117-.3965.981c0,.3418.1221.6211.3652.8374.2441.2163.5693.3247.9746.3247.5557,0,1.0156-.1948,1.377-.5845.3633-.3896.5439-.8828.5439-1.48v-.6973Z" fill="#2f2f2f"/>
        <path d="M206.792,198.647h-1.1211v-8.4697c-.0869.0864-.2129.1855-.3789.2974-.167.1118-.3535.2222-.5605.3315-.208.1094-.4268.2119-.6562.3076-.2305.0957-.4551.1709-.6738.2256v-1.1348c.2461-.0684.5068-.1606.7832-.2769.2754-.1162.5469-.2461.8125-.3896.2676-.1436.5186-.2939.7559-.4512s.4424-.311.6152-.4614h.4238v10.0215Z" fill="#2f2f2f"/>
      </g>
      <g>
        <path d="M135.7451,105.6606h-1.2168l-.6289-7.2666c-.0088-.1411-.0078-.3008.0039-.4785.0107-.1777.0234-.3442.0371-.499h-.0273c-.0459.146-.1025.3101-.1709.4922s-.1387.3394-.2119.4717l-3.7188,7.2803h-1.251l-.7793-9.8027h1.2168l.5059,7.4648c.0088.1548.0088.3213,0,.499s-.0254.3374-.0479.4785h.0273c.0225-.064.0498-.1367.082-.2188s.0664-.1675.1025-.2563.0742-.1768.1123-.2632c.0391-.0864.0771-.1665.1133-.2393l3.8076-7.4648h1.0527l.6152,7.5195c.0137.1274.0186.2778.0137.4512s-.0137.3306-.0273.4717h.0273c.0225-.0728.0488-.1514.0791-.2358.0293-.0845.0605-.1685.0957-.2529.0332-.0845.0684-.1665.1016-.2461.0352-.0796.0674-.1514.0996-.2153l3.5957-7.4922h1.2783l-4.8877,9.8027Z" fill="#2f2f2f"/>
        <path d="M144.3398,99.8501h-.0273c-.0908-.0547-.2109-.1084-.3594-.1606-.1475-.0522-.2949-.0786-.4404-.0786-.2646,0-.5176.0854-.7588.2563s-.4609.3965-.6602.6768c-.1973.2803-.3711.6006-.5195.9604-.1475.3599-.2627.729-.3447,1.1074l-.6562,3.0488h-1.1211l.9844-4.6484c.041-.1914.082-.3921.123-.6016s.0791-.4194.1123-.6289c.0352-.2095.0654-.4102.0928-.6016s.0479-.3647.0615-.5195h1.1074c-.0137.1367-.0293.2812-.0479.4341s-.0361.3008-.0547.4443-.0361.2734-.0547.3896-.0322.2061-.041.27h.0273c.1455-.2598.2939-.4946.4443-.7041s.3086-.3887.4746-.5366c.167-.1479.3438-.2632.5303-.3452s.3896-.123.6084-.123c.1279,0,.2539.0127.3789.0376.126.0249.2383.0513.3389.0786l-.1982,1.2441Z" fill="#2f2f2f"/>
        <path d="M146.8154,105.6333c-.1143.0366-.2422.0659-.3867.0889-.1426.0229-.2852.0342-.4268.0342-.46,0-.8047-.1152-1.0322-.3452s-.3418-.5391-.3418-.9263c0-.1138.0117-.2485.0342-.4033s.0596-.3462.1094-.5742l1.0186-4.8467h1.1348l-1.0254,4.874c-.041.1914-.0693.3394-.0859.4443-.0156.105-.0234.1938-.0234.2666,0,.187.0508.3291.1543.4272.1016.0981.2646.147.4883.147.1182,0,.2227-.0068.3105-.0205.0898-.0137.1729-.0342.25-.0615l-.1777.8955ZM147.6152,96.1655c0,.2051-.0693.3804-.208.5264-.1396.146-.3115.2188-.5166.2188-.2002,0-.375-.0718-.5225-.2153-.1484-.1436-.2227-.3203-.2227-.5298s.0742-.3804.2227-.5127c.1475-.1323.3223-.1982.5225-.1982s.3711.0674.5127.2017.2119.3042.2119.5093Z" fill="#2f2f2f"/>
        <path d="M152.1074,99.6108h-1.7637l-.7861,3.7119c-.0273.1411-.0547.2939-.082.458s-.041.2964-.041.3965c0,.2324.0518.3999.1533.5024.1035.1025.2656.1538.4893.1538.0547,0,.125-.0093.2119-.0273s.1758-.041.2666-.0684.1807-.0581.2705-.0923c.0879-.0342.167-.0649.2354-.0923l-.2119.9844c-.1592.0684-.3408.1265-.543.1743-.2031.0479-.3955.0718-.5781.0718-.2598,0-.4805-.0332-.6631-.0991s-.3311-.1606-.4482-.2837c-.1152-.123-.2002-.2725-.252-.4478-.0527-.1753-.0791-.3726-.0791-.5913,0-.1323.0127-.2861.0381-.4614.0244-.1753.0557-.3359.0918-.4819l.8066-3.8076h-1.1621l.2119-.9502h1.1484l.3623-1.709c.0186-.0093.0879-.0308.209-.0649.1201-.0342.252-.0728.3965-.1162.1426-.0435.2754-.083.3965-.1196.1201-.0366.1875-.0571.2012-.0615l-.4307,2.0713h1.7637l-.2119.9502Z" fill="#2f2f2f"/>
        <path d="M158.2607,100.3013c0,.3691-.082.7051-.2461,1.0083s-.4355.563-.8135.7793-.877.3838-1.4971.5024-1.3857.1802-2.2969.1846c-.0088.0503-.0137.1025-.0137.1572v.1367c0,.2461.0342.4785.1025.6973s.1748.4102.3174.5742c.1445.1641.3281.2939.5547.3896.2246.0957.4932.1436.8027.1436.3145,0,.6602-.0605,1.0352-.1812.377-.1206.7354-.293,1.0771-.5161l-.2119,1.1074c-.251.146-.5488.2734-.8955.3828s-.7334.1641-1.1621.1641c-.5146,0-.9492-.0796-1.3018-.2393-.3535-.1597-.6387-.3726-.8555-.6392-.2158-.2666-.3721-.5742-.4678-.9229s-.1436-.7144-.1436-1.0972c0-.4102.0459-.8057.1367-1.186s.2197-.7349.3867-1.063c.166-.3281.3652-.6279.5977-.8989s.4902-.5024.7725-.6938.5859-.3394.9092-.4443.6582-.1572,1.0049-.1572c.3604,0,.6777.0479.9541.1436.2754.0957.5059.2266.6895.3931.1855.1665.3252.3589.4209.5776s.1436.4512.1436.6973ZM157.1191,100.356c0-.2871-.1064-.5103-.3174-.6699-.2129-.1597-.4941-.2393-.8447-.2393-.2783,0-.5469.0605-.8066.1812s-.499.2871-.7178.499-.4082.4648-.5674.7588-.2754.6118-.3486.9536c.6514,0,1.2051-.0332,1.6611-.0991s.8271-.1631,1.1143-.2905.4971-.2837.6289-.4683.1982-.3931.1982-.6255Z" fill="#2f2f2f"/>
        <path d="M118.208,118.0513c0,.6196-.0879,1.2075-.2637,1.7637-.1748.5562-.4277,1.0425-.7578,1.4595-.3311.417-.7324.7476-1.2031.9912-.4727.2437-1.0039.3657-1.5967.3657-.4014,0-.7627-.064-1.083-.1914-.3223-.1274-.5957-.311-.8203-.5503-.2266-.2393-.3994-.5288-.5195-.8682-.1211-.3394-.1816-.7236-.1816-1.1519,0-.6426.0918-1.2432.2773-1.8013.1836-.5581.4434-1.0435.7793-1.4561.334-.4126.7354-.7358,1.2031-.9707.4668-.2349.9824-.3521,1.5479-.3521.3965,0,.7549.064,1.0771.1914.3203.1274.5957.311.8232.5503s.4043.5288.5303.8682c.125.3394.1875.7236.1875,1.1519ZM117.0596,118.106c0-.2964-.0361-.5596-.1094-.7896s-.1758-.4238-.3076-.5811-.292-.2778-.4785-.3623-.3965-.1265-.6289-.1265c-.4014,0-.7637.1025-1.0869.3076s-.5967.4751-.8203.8101-.3955.7153-.5156,1.1416c-.1211.4263-.1816.8623-.1816,1.3091,0,.2827.0352.5391.1055.769.0713.23.1719.4263.3008.5879.1309.1616.29.2861.4785.3726.1895.0864.4023.1299.6396.1299.4053,0,.7705-.1016,1.0938-.3042s.5967-.4717.8203-.8066.3945-.7168.5127-1.145.1777-.8657.1777-1.3125Z" fill="#2f2f2f"/>
        <path d="M125.7412,117.9077c0,.3374-.0361.687-.1094,1.0493s-.1846.7188-.335,1.0698-.3389.6836-.5635.998c-.2266.3145-.4912.5913-.7969.8306s-.6514.4282-1.0391.5674-.8154.2085-1.2852.2085c-.2686,0-.5342-.0249-.7969-.0752-.2617-.0503-.4902-.1094-.6865-.1777l-.6973,3.3291h-1.1348l1.709-8.0938c.0322-.146.0615-.3213.0889-.5264s.0508-.4111.0723-.6187c.0195-.2075.0371-.4023.0508-.5845s.0205-.3237.0205-.4238h1.1484c0,.0776-.0059.1821-.0166.3145-.0117.1323-.0264.27-.0449.4136s-.0361.2827-.0547.417-.0342.2427-.0479.3247h.0273c.3232-.5513.6885-.9629,1.0938-1.2339s.8477-.4067,1.3262-.4067c.3193,0,.6064.0547.8613.1641s.4727.2734.6533.4922c.1797.2188.3174.4922.4131.8203s.1436.7085.1436,1.1416ZM124.5928,117.9556c0-.2461-.0215-.4741-.0645-.6836-.0439-.2095-.1152-.3896-.2158-.54s-.2295-.269-.3857-.3555c-.1582-.0864-.3506-.1299-.5781-.1299-.2373,0-.459.0488-.666.147-.208.0981-.4004.229-.5781.3931s-.3398.3545-.4854.5708-.2754.4409-.3896.6733-.2109.4658-.291.7007c-.0791.2349-.1396.4546-.1807.6597l-.4307,2.0303c.082.0366.1797.0693.2939.0991s.2324.0557.3555.0786.248.041.376.0547.2461.0205.3555.0205c.3145,0,.6055-.0522.8711-.1572.2676-.105.5059-.2471.7188-.4272.2109-.1802.3984-.3921.5605-.6357.1611-.2437.2969-.5034.4062-.7793s.1914-.5605.2461-.8545.082-.582.082-.8647Z" fill="#2f2f2f"/>
        <path d="M132.7686,117.1011c0,.3691-.082.7051-.2461,1.0083s-.4355.563-.8135.7793-.877.3838-1.4971.5024-1.3857.1802-2.2969.1846c-.0088.0503-.0137.1025-.0137.1572v.1367c0,.2461.0342.4785.1025.6973s.1748.4102.3174.5742c.1445.1641.3281.2939.5547.3896.2246.0957.4932.1436.8027.1436.3145,0,.6602-.0605,1.0352-.1812.377-.1206.7354-.293,1.0771-.5161l-.2119,1.1074c-.251.146-.5488.2734-.8955.3828s-.7334.1641-1.1621.1641c-.5146,0-.9492-.0796-1.3018-.2393-.3535-.1597-.6387-.3726-.8555-.6392-.2158-.2666-.3721-.5742-.4678-.9229s-.1436-.7144-.1436-1.0972c0-.4102.0459-.8057.1367-1.186s.2197-.7349.3867-1.063c.166-.3281.3652-.6279.5977-.8989s.4902-.5024.7725-.6938.5859-.3394.9092-.4443.6582-.1572,1.0049-.1572c.3604,0,.6777.0479.9541.1436.2754.0957.5059.2266.6895.3931.1855.1665.3252.3589.4209.5776s.1436.4512.1436.6973ZM131.627,117.1558c0-.2871-.1064-.5103-.3174-.6699-.2129-.1597-.4941-.2393-.8447-.2393-.2783,0-.5469.0605-.8066.1812s-.499.2871-.7178.499-.4082.4648-.5674.7588-.2754.6118-.3486.9536c.6514,0,1.2051-.0332,1.6611-.0991s.8271-.1631,1.1143-.2905.4971-.2837.6289-.4683.1982-.3931.1982-.6255Z" fill="#2f2f2f"/>
        <path d="M138.1719,116.6499h-.0273c-.0908-.0547-.2109-.1084-.3594-.1606-.1475-.0522-.2949-.0786-.4404-.0786-.2646,0-.5176.0854-.7588.2563s-.4609.3965-.6602.6768c-.1973.2803-.3711.6006-.5195.9604-.1475.3599-.2627.729-.3447,1.1074l-.6562,3.0488h-1.1211l.9844-4.6484c.041-.1914.082-.3921.123-.6016s.0791-.4194.1123-.6289c.0352-.2095.0654-.4102.0928-.6016s.0479-.3647.0615-.5195h1.1074c-.0137.1367-.0293.2812-.0479.4341s-.0361.3008-.0547.4443-.0361.2734-.0547.3896-.0322.2061-.041.27h.0273c.1455-.2598.2939-.4946.4443-.7041s.3086-.3887.4746-.5366c.167-.1479.3438-.2632.5303-.3452s.3896-.123.6084-.123c.1279,0,.2539.0127.3789.0376.126.0249.2383.0513.3389.0786l-.1982,1.2441Z" fill="#2f2f2f"/>
        <path d="M143.9775,120.2183c-.0361.1733-.0713.3682-.1064.5845-.0332.2163-.0635.4307-.0879.6426-.0254.2119-.0459.4092-.0625.5913-.0156.1821-.0234.3237-.0234.4238h-1.1621c.0049-.0913.0117-.2007.0205-.3281s.0215-.2598.0381-.3965c.0156-.1367.0312-.271.0469-.4033.0166-.1323.0332-.2461.0518-.3418h-.0273c-.1416.2231-.2852.4341-.4307.6323s-.3076.3726-.4854.5229-.376.269-.5947.3555-.4766.1299-.7725.1299c-.3057,0-.585-.0547-.8369-.1641-.2539-.1094-.4707-.2725-.6533-.4888s-.3223-.4878-.4209-.8135c-.0977-.3257-.1465-.7051-.1465-1.1382,0-.2642.0273-.5649.082-.9023s.1465-.6812.2773-1.0322c.1289-.3511.3027-.6938.5195-1.0288.2158-.335.4844-.6348.8066-.8989.3203-.2642.7002-.4761,1.1377-.6357s.9434-.2393,1.5176-.2393c.3643,0,.7402.0273,1.1279.082s.7725.1206,1.1553.1982l-.9707,4.6484ZM143.6562,116.3833c-.1592-.0366-.3467-.0684-.5605-.0957s-.415-.041-.6016-.041c-.3965,0-.7461.0625-1.0488.188-.3037.1255-.5664.2896-.79.4922s-.4111.4365-.5635.7007c-.1533.2642-.2754.5342-.3662.8101s-.1562.5479-.1943.8169c-.0391.269-.0586.5127-.0586.7314,0,.2598.0225.4932.0684.7007s.1172.3838.2148.5298c.0986.146.2236.2588.377.3384.1523.0796.333.1196.543.1196.2275,0,.4414-.0469.6387-.1401.1992-.0933.3848-.2197.5576-.3794s.3301-.3442.4717-.5537.2686-.4316.3828-.6665.2109-.4741.291-.7178c.0791-.2437.1445-.4795.1943-.7075l.4443-2.126Z" fill="#2f2f2f"/>
        <path d="M150.0088,116.4106h-1.7637l-.7861,3.7119c-.0273.1411-.0547.2939-.082.458s-.041.2964-.041.3965c0,.2324.0518.3999.1533.5024.1035.1025.2656.1538.4893.1538.0547,0,.125-.0093.2119-.0273s.1758-.041.2666-.0684.1807-.0581.2705-.0923c.0879-.0342.167-.0649.2354-.0923l-.2119.9844c-.1592.0684-.3408.1265-.543.1743-.2031.0479-.3955.0718-.5781.0718-.2598,0-.4805-.0332-.6631-.0991s-.3311-.1606-.4482-.2837c-.1152-.123-.2002-.2725-.252-.4478-.0527-.1753-.0791-.3726-.0791-.5913,0-.1323.0127-.2861.0381-.4614.0244-.1753.0557-.3359.0918-.4819l.8066-3.8076h-1.1621l.2119-.9502h1.1484l.3623-1.709c.0186-.0093.0879-.0308.209-.0649.1201-.0342.252-.0728.3965-.1162.1426-.0435.2754-.083.3965-.1196.1201-.0366.1875-.0571.2012-.0615l-.4307,2.0713h1.7637l-.2119.9502Z" fill="#2f2f2f"/>
        <path d="M152.5098,122.4331c-.1143.0366-.2422.0659-.3867.0889-.1426.0229-.2852.0342-.4268.0342-.46,0-.8047-.1152-1.0322-.3452s-.3418-.5391-.3418-.9263c0-.1138.0117-.2485.0342-.4033s.0596-.3462.1094-.5742l1.0186-4.8467h1.1348l-1.0254,4.874c-.041.1914-.0693.3394-.0859.4443-.0156.105-.0234.1938-.0234.2666,0,.187.0508.3291.1543.4272.1016.0981.2646.147.4883.147.1182,0,.2227-.0068.3105-.0205.0898-.0137.1729-.0342.25-.0615l-.1777.8955ZM153.3096,112.9653c0,.2051-.0693.3804-.208.5264-.1396.146-.3115.2188-.5166.2188-.2002,0-.375-.0718-.5225-.2153-.1484-.1436-.2227-.3203-.2227-.5298s.0742-.3804.2227-.5127c.1475-.1323.3223-.1982.5225-.1982s.3711.0674.5127.2017.2119.3042.2119.5093Z" fill="#2f2f2f"/>
        <path d="M160.1064,118.0513c0,.6196-.0879,1.2075-.2637,1.7637-.1748.5562-.4277,1.0425-.7578,1.4595-.3311.417-.7324.7476-1.2031.9912-.4727.2437-1.0039.3657-1.5967.3657-.4014,0-.7627-.064-1.083-.1914-.3223-.1274-.5957-.311-.8203-.5503-.2266-.2393-.3994-.5288-.5195-.8682-.1211-.3394-.1816-.7236-.1816-1.1519,0-.6426.0918-1.2432.2773-1.8013.1836-.5581.4434-1.0435.7793-1.4561.334-.4126.7354-.7358,1.2031-.9707.4668-.2349.9824-.3521,1.5479-.3521.3965,0,.7549.064,1.0771.1914.3203.1274.5957.311.8232.5503s.4043.5288.5303.8682c.125.3394.1875.7236.1875,1.1519ZM158.958,118.106c0-.2964-.0361-.5596-.1094-.7896s-.1758-.4238-.3076-.5811-.292-.2778-.4785-.3623-.3965-.1265-.6289-.1265c-.4014,0-.7637.1025-1.0869.3076s-.5967.4751-.8203.8101-.3955.7153-.5156,1.1416c-.1211.4263-.1816.8623-.1816,1.3091,0,.2827.0352.5391.1055.769.0713.23.1719.4263.3008.5879.1309.1616.29.2861.4785.3726.1895.0864.4023.1299.6396.1299.4053,0,.7705-.1016,1.0938-.3042s.5967-.4717.8203-.8066.3945-.7168.5127-1.145.1777-.8657.1777-1.3125Z" fill="#2f2f2f"/>
        <path d="M167.6699,117.2104c0,.0684-.0078.1616-.0234.2803-.0166.1187-.0371.2461-.0625.3828-.0244.1367-.0498.2725-.0742.4067-.0254.1343-.0498.2495-.0723.3452l-.8135,3.835h-1.1348l.8545-4.1016c.0186-.0728.0361-.1572.0547-.2529s.0342-.1914.0479-.2871.0254-.1836.0342-.2632.0137-.1426.0137-.188c0-.3462-.083-.6196-.25-.8203-.166-.2007-.4131-.3008-.7412-.3008-.3008,0-.5996.0889-.8955.2666s-.5693.4033-.8203.6768-.4658.5742-.6465.9023c-.1797.3281-.3018.645-.3652.9502l-.7314,3.418h-1.1348l1.0801-4.9971c.0361-.1777.0732-.3633.1094-.5571s.0703-.3804.1025-.5605.0596-.3477.082-.5024.041-.2827.0547-.3828h1.0938c-.0225.1777-.0498.3633-.082.5571s-.0596.3726-.082.5366c-.0273.1914-.0566.3784-.0889.5605h.0273c.1592-.2505.3359-.4863.5303-.7075.1934-.2212.4023-.4146.6289-.5811.2246-.1665.4648-.2974.7168-.3931.2539-.0957.5186-.1436.7969-.1436.3096,0,.5762.0469.7998.1401s.4092.2246.5576.3931c.1475.1685.2568.3716.3281.6084.0703.2368.1055.4966.1055.7793Z" fill="#2f2f2f"/>
        <path d="M173.1377,116.6909c-.2051-.1323-.4355-.2393-.6904-.3213s-.5107-.123-.7656-.123c-.4287,0-.7598.0981-.9941.2939-.2354.1958-.3525.4556-.3525.7793,0,.1323.0215.2529.0654.3623.043.1094.1064.2129.1914.311.084.0981.1914.1924.3203.2837.1309.0913.2793.189.4482.2939.5107.2964.8779.6006,1.1045.9126.2246.312.3379.6641.3379,1.0562,0,.2642-.0488.5229-.1465.7759-.0986.2529-.2549.4761-.4688.6699s-.4912.3496-.8301.4683c-.3398.1187-.7539.1777-1.2412.1777-.1367,0-.2871-.0093-.4512-.0273s-.3291-.0454-.4951-.082c-.167-.0366-.3262-.0811-.4785-.1333-.1533-.0522-.2861-.1128-.4004-.1812l.2256-1.0664c.0908.064.2041.1274.3389.1914.1338.064.2793.1206.4375.1709.1562.0503.3203.0913.4922.123.1699.0317.3398.0479.5088.0479.4561,0,.7959-.0913,1.0225-.2734.2246-.1821.3379-.4351.3379-.7588,0-.1187-.0176-.228-.0508-.3281-.0352-.1001-.0947-.2007-.1816-.3008s-.2002-.2017-.3418-.3042-.3193-.2178-.5332-.3452c-.4648-.2827-.8076-.5776-1.0293-.8853-.2207-.3076-.3311-.6553-.3311-1.0425,0-.2827.0527-.5527.1572-.8101s.2607-.4854.4688-.6836c.207-.1982.4678-.3564.7822-.4751s.6816-.1777,1.1006-.1777c.3281,0,.6387.0317.9336.0957.293.064.543.146.748.2461l-.2393,1.0596Z" fill="#2f2f2f"/>
      </g>
      <g>
        <path d="M456.5303,98.2847c0,.4238-.0742.8066-.2217,1.1484-.1484.3418-.3525.6357-.6123.8818s-.5693.4434-.9297.5913-.752.2402-1.1758.2769v.0273c.2139.0684.4023.2119.5635.4307.1621.2188.293.5127.3936.8818l.8203,3.1377h-1.2578l-.7246-2.9258c-.1045-.4282-.2725-.7427-.5029-.9434-.2295-.2007-.5342-.3008-.9121-.3008h-.8545l-.8955,4.1699h-1.1758l2.0713-9.8027h2.7002c.4785,0,.8887.064,1.2305.1914s.6221.3018.8408.5229.3809.4785.4854.7725.1572.6074.1572.9399ZM455.3271,98.4077c0-.2188-.0342-.4204-.1025-.605s-.1729-.3442-.3145-.4785-.3213-.2393-.54-.3145-.4785-.1128-.7793-.1128h-1.5107l-.752,3.5547h1.3535c.4785,0,.8848-.0571,1.2207-.1709.334-.1138.6074-.2642.8203-.4512.2109-.187.3652-.4043.4609-.6528s.1436-.5049.1436-.769Z" fill="#2f2f2f"/>
        <path d="M463.1074,100.3013c0,.3691-.082.7051-.2461,1.0083s-.4355.563-.8135.7793-.877.3838-1.4971.5024-1.3857.1802-2.2969.1846c-.0088.0503-.0137.1025-.0137.1572v.1367c0,.2461.0342.4785.1025.6973s.1748.4102.3174.5742c.1445.1641.3281.2939.5547.3896.2246.0957.4932.1436.8027.1436.3145,0,.6602-.0605,1.0352-.1812.377-.1206.7354-.293,1.0771-.5161l-.2119,1.1074c-.251.146-.5488.2734-.8955.3828s-.7334.1641-1.1621.1641c-.5146,0-.9492-.0796-1.3018-.2393-.3535-.1597-.6387-.3726-.8555-.6392-.2158-.2666-.3721-.5742-.4678-.9229s-.1436-.7144-.1436-1.0972c0-.4102.0459-.8057.1367-1.186s.2197-.7349.3867-1.063c.166-.3281.3652-.6279.5977-.8989s.4902-.5024.7725-.6938.5859-.3394.9092-.4443.6582-.1572,1.0049-.1572c.3604,0,.6777.0479.9541.1436.2754.0957.5059.2266.6895.3931.1855.1665.3252.3589.4209.5776s.1436.4512.1436.6973ZM461.9658,100.356c0-.2871-.1064-.5103-.3174-.6699-.2129-.1597-.4941-.2393-.8447-.2393-.2783,0-.5469.0605-.8066.1812s-.499.2871-.7178.499-.4082.4648-.5674.7588-.2754.6118-.3486.9536c.6514,0,1.2051-.0332,1.6611-.0991s.8271-.1631,1.1143-.2905.4971-.2837.6289-.4683.1982-.3931.1982-.6255Z" fill="#2f2f2f"/>
        <path d="M469.4502,103.4185c-.0361.1733-.0713.3682-.1064.5845-.0332.2163-.0635.4307-.0879.6426-.0254.2119-.0459.4092-.0625.5913-.0156.1821-.0234.3237-.0234.4238h-1.1621c.0049-.0913.0117-.2007.0205-.3281s.0215-.2598.0381-.3965c.0156-.1367.0312-.271.0469-.4033.0166-.1323.0332-.2461.0518-.3418h-.0273c-.1416.2231-.2852.4341-.4307.6323s-.3076.3726-.4854.5229-.376.269-.5947.3555-.4766.1299-.7725.1299c-.3057,0-.585-.0547-.8369-.1641-.2539-.1094-.4707-.2725-.6533-.4888s-.3223-.4878-.4209-.8135c-.0977-.3257-.1465-.7051-.1465-1.1382,0-.2642.0273-.5649.082-.9023s.1465-.6812.2773-1.0322c.1289-.3511.3027-.6938.5195-1.0288.2158-.335.4844-.6348.8066-.8989.3203-.2642.7002-.4761,1.1377-.6357s.9434-.2393,1.5176-.2393c.3643,0,.7402.0273,1.1279.082s.7725.1206,1.1553.1982l-.9707,4.6484ZM469.1289,99.5835c-.1592-.0366-.3467-.0684-.5605-.0957s-.415-.041-.6016-.041c-.3965,0-.7461.0625-1.0488.188-.3037.1255-.5664.2896-.79.4922s-.4111.4365-.5635.7007c-.1533.2642-.2754.5342-.3662.8101s-.1562.5479-.1943.8169c-.0391.269-.0586.5127-.0586.7314,0,.2598.0225.4932.0684.7007s.1172.3838.2148.5298c.0986.146.2236.2588.377.3384.1523.0796.333.1196.543.1196.2275,0,.4414-.0469.6387-.1401.1992-.0933.3848-.2197.5576-.3794s.3301-.3442.4717-.5537.2686-.4316.3828-.6665.2109-.4741.291-.7178c.0791-.2437.1445-.4795.1943-.7075l.4443-2.126Z" fill="#2f2f2f"/>
        <path d="M476.8633,103.5073c-.0322.146-.0625.3213-.0928.5264-.0293.2051-.0557.4111-.0781.6187s-.042.4023-.0586.5845c-.0156.1821-.0234.3237-.0234.4238h-1.1621c0-.0776.0059-.1812.0176-.311.0107-.1299.0244-.2656.041-.4067.0156-.1411.0322-.2769.0508-.4067s.0342-.2358.0479-.3179h-.0273c-.1641.2642-.3281.498-.4922.7007s-.3369.3716-.5195.5059-.376.2358-.5811.3042-.4307.1025-.6768.1025c-.3193,0-.6064-.0571-.8613-.1709s-.4727-.2812-.6533-.5024c-.1797-.2212-.3174-.4946-.4131-.8203s-.1436-.7007-.1436-1.1245c0-.3374.0352-.688.1055-1.0527.0713-.3647.1807-.7222.3281-1.0732.1484-.3511.3369-.6836.5645-.998s.499-.5903.8135-.8271.6748-.4248,1.0801-.564.8594-.2085,1.3604-.2085c.2549,0,.4922.0171.7109.0513s.4082.0693.5674.106l.7109-3.3496h1.1074l-1.7227,8.21ZM476.5693,99.6108c-.1729-.0503-.3545-.0898-.543-.1196-.1895-.0298-.3916-.0444-.6055-.0444-.3965,0-.7461.0615-1.0488.1846-.3037.123-.5684.2871-.793.4922-.2266.2051-.415.4385-.5684.7007-.1523.2622-.2754.5308-.3691.8066-.0928.2759-.1592.5469-.1973.8135-.0391.2666-.0586.5068-.0586.7212,0,.2554.0215.4878.0645.6973.0439.2095.1143.3896.2129.54.0977.1504.2236.2666.3789.3486s.3418.123.5605.123c.2275,0,.4414-.0479.6387-.1436.1992-.0957.3848-.2256.5576-.3896s.3301-.353.4717-.5674.2686-.4419.3828-.6836.2109-.4863.291-.7349c.0791-.2485.1445-.4863.1943-.7144l.4307-2.0303Z" fill="#2f2f2f"/>
        <path d="M439.1436,118.0513c0,.6196-.0879,1.2075-.2637,1.7637-.1748.5562-.4277,1.0425-.7578,1.4595-.3311.417-.7324.7476-1.2031.9912-.4727.2437-1.0039.3657-1.5967.3657-.4014,0-.7627-.064-1.083-.1914-.3223-.1274-.5957-.311-.8203-.5503-.2266-.2393-.3994-.5288-.5195-.8682-.1211-.3394-.1816-.7236-.1816-1.1519,0-.6426.0918-1.2432.2773-1.8013.1836-.5581.4434-1.0435.7793-1.4561.334-.4126.7354-.7358,1.2031-.9707.4668-.2349.9824-.3521,1.5479-.3521.3965,0,.7549.064,1.0771.1914.3203.1274.5957.311.8232.5503s.4043.5288.5303.8682c.125.3394.1875.7236.1875,1.1519ZM437.9951,118.106c0-.2964-.0361-.5596-.1094-.7896s-.1758-.4238-.3076-.5811-.292-.2778-.4785-.3623-.3965-.1265-.6289-.1265c-.4014,0-.7637.1025-1.0869.3076s-.5967.4751-.8203.8101-.3955.7153-.5156,1.1416c-.1211.4263-.1816.8623-.1816,1.3091,0,.2827.0352.5391.1055.769.0713.23.1719.4263.3008.5879.1309.1616.29.2861.4785.3726.1895.0864.4023.1299.6396.1299.4053,0,.7705-.1016,1.0938-.3042s.5967-.4717.8203-.8066.3945-.7168.5127-1.145.1777-.8657.1777-1.3125Z" fill="#2f2f2f"/>
        <path d="M446.6768,117.9077c0,.3374-.0361.687-.1094,1.0493s-.1846.7188-.335,1.0698-.3389.6836-.5635.998c-.2266.3145-.4912.5913-.7969.8306s-.6514.4282-1.0391.5674-.8154.2085-1.2852.2085c-.2686,0-.5342-.0249-.7969-.0752-.2617-.0503-.4902-.1094-.6865-.1777l-.6973,3.3291h-1.1348l1.709-8.0938c.0322-.146.0615-.3213.0889-.5264s.0508-.4111.0723-.6187c.0195-.2075.0371-.4023.0508-.5845s.0205-.3237.0205-.4238h1.1484c0,.0776-.0059.1821-.0166.3145-.0117.1323-.0264.27-.0449.4136s-.0361.2827-.0547.417-.0342.2427-.0479.3247h.0273c.3232-.5513.6885-.9629,1.0938-1.2339s.8477-.4067,1.3262-.4067c.3193,0,.6064.0547.8613.1641s.4727.2734.6533.4922c.1797.2188.3174.4922.4131.8203s.1436.7085.1436,1.1416ZM445.5283,117.9556c0-.2461-.0215-.4741-.0645-.6836-.0439-.2095-.1152-.3896-.2158-.54s-.2295-.269-.3857-.3555c-.1582-.0864-.3506-.1299-.5781-.1299-.2373,0-.459.0488-.666.147-.208.0981-.4004.229-.5781.3931s-.3398.3545-.4854.5708-.2754.4409-.3896.6733-.2109.4658-.291.7007c-.0791.2349-.1396.4546-.1807.6597l-.4307,2.0303c.082.0366.1797.0693.2939.0991s.2324.0557.3555.0786.248.041.376.0547.2461.0205.3555.0205c.3145,0,.6055-.0522.8711-.1572.2676-.105.5059-.2471.7188-.4272.2109-.1802.3984-.3921.5605-.6357.1611-.2437.2969-.5034.4062-.7793s.1914-.5605.2461-.8545.082-.582.082-.8647Z" fill="#2f2f2f"/>
        <path d="M453.7041,117.1011c0,.3691-.082.7051-.2461,1.0083s-.4355.563-.8135.7793-.877.3838-1.4971.5024-1.3857.1802-2.2969.1846c-.0088.0503-.0137.1025-.0137.1572v.1367c0,.2461.0342.4785.1025.6973s.1748.4102.3174.5742c.1445.1641.3281.2939.5547.3896.2246.0957.4932.1436.8027.1436.3145,0,.6602-.0605,1.0352-.1812.377-.1206.7354-.293,1.0771-.5161l-.2119,1.1074c-.251.146-.5488.2734-.8955.3828s-.7334.1641-1.1621.1641c-.5146,0-.9492-.0796-1.3018-.2393-.3535-.1597-.6387-.3726-.8555-.6392-.2158-.2666-.3721-.5742-.4678-.9229s-.1436-.7144-.1436-1.0972c0-.4102.0459-.8057.1367-1.186s.2197-.7349.3867-1.063c.166-.3281.3652-.6279.5977-.8989s.4902-.5024.7725-.6938.5859-.3394.9092-.4443.6582-.1572,1.0049-.1572c.3604,0,.6777.0479.9541.1436.2754.0957.5059.2266.6895.3931.1855.1665.3252.3589.4209.5776s.1436.4512.1436.6973ZM452.5625,117.1558c0-.2871-.1064-.5103-.3174-.6699-.2129-.1597-.4941-.2393-.8447-.2393-.2783,0-.5469.0605-.8066.1812s-.499.2871-.7178.499-.4082.4648-.5674.7588-.2754.6118-.3486.9536c.6514,0,1.2051-.0332,1.6611-.0991s.8271-.1631,1.1143-.2905.4971-.2837.6289-.4683.1982-.3931.1982-.6255Z" fill="#2f2f2f"/>
        <path d="M459.1074,116.6499h-.0273c-.0908-.0547-.2109-.1084-.3594-.1606-.1475-.0522-.2949-.0786-.4404-.0786-.2646,0-.5176.0854-.7588.2563s-.4609.3965-.6602.6768c-.1973.2803-.3711.6006-.5195.9604-.1475.3599-.2627.729-.3447,1.1074l-.6562,3.0488h-1.1211l.9844-4.6484c.041-.1914.082-.3921.123-.6016s.0791-.4194.1123-.6289c.0352-.2095.0654-.4102.0928-.6016s.0479-.3647.0615-.5195h1.1074c-.0137.1367-.0293.2812-.0479.4341s-.0361.3008-.0547.4443-.0361.2734-.0547.3896-.0322.2061-.041.27h.0273c.1455-.2598.2939-.4946.4443-.7041s.3086-.3887.4746-.5366c.167-.1479.3438-.2632.5303-.3452s.3896-.123.6084-.123c.1279,0,.2539.0127.3789.0376.126.0249.2383.0513.3389.0786l-.1982,1.2441Z" fill="#2f2f2f"/>
        <path d="M464.9131,120.2183c-.0361.1733-.0713.3682-.1064.5845-.0332.2163-.0635.4307-.0879.6426-.0254.2119-.0459.4092-.0625.5913-.0156.1821-.0234.3237-.0234.4238h-1.1621c.0049-.0913.0117-.2007.0205-.3281s.0215-.2598.0381-.3965c.0156-.1367.0312-.271.0469-.4033.0166-.1323.0332-.2461.0518-.3418h-.0273c-.1416.2231-.2852.4341-.4307.6323s-.3076.3726-.4854.5229-.376.269-.5947.3555-.4766.1299-.7725.1299c-.3057,0-.585-.0547-.8369-.1641-.2539-.1094-.4707-.2725-.6533-.4888s-.3223-.4878-.4209-.8135c-.0977-.3257-.1465-.7051-.1465-1.1382,0-.2642.0273-.5649.082-.9023s.1465-.6812.2773-1.0322c.1289-.3511.3027-.6938.5195-1.0288.2158-.335.4844-.6348.8066-.8989.3203-.2642.7002-.4761,1.1377-.6357s.9434-.2393,1.5176-.2393c.3643,0,.7402.0273,1.1279.082s.7725.1206,1.1553.1982l-.9707,4.6484ZM464.5918,116.3833c-.1592-.0366-.3467-.0684-.5605-.0957s-.415-.041-.6016-.041c-.3965,0-.7461.0625-1.0488.188-.3037.1255-.5664.2896-.79.4922s-.4111.4365-.5635.7007c-.1533.2642-.2754.5342-.3662.8101s-.1562.5479-.1943.8169c-.0391.269-.0586.5127-.0586.7314,0,.2598.0225.4932.0684.7007s.1172.3838.2148.5298c.0986.146.2236.2588.377.3384.1523.0796.333.1196.543.1196.2275,0,.4414-.0469.6387-.1401.1992-.0933.3848-.2197.5576-.3794s.3301-.3442.4717-.5537.2686-.4316.3828-.6665.2109-.4741.291-.7178c.0791-.2437.1445-.4795.1943-.7075l.4443-2.126Z" fill="#2f2f2f"/>
        <path d="M470.9443,116.4106h-1.7637l-.7861,3.7119c-.0273.1411-.0547.2939-.082.458s-.041.2964-.041.3965c0,.2324.0518.3999.1533.5024.1035.1025.2656.1538.4893.1538.0547,0,.125-.0093.2119-.0273s.1758-.041.2666-.0684.1807-.0581.2705-.0923c.0879-.0342.167-.0649.2354-.0923l-.2119.9844c-.1592.0684-.3408.1265-.543.1743-.2031.0479-.3955.0718-.5781.0718-.2598,0-.4805-.0332-.6631-.0991s-.3311-.1606-.4482-.2837c-.1152-.123-.2002-.2725-.252-.4478-.0527-.1753-.0791-.3726-.0791-.5913,0-.1323.0127-.2861.0381-.4614.0244-.1753.0557-.3359.0918-.4819l.8066-3.8076h-1.1621l.2119-.9502h1.1484l.3623-1.709c.0186-.0093.0879-.0308.209-.0649.1201-.0342.252-.0728.3965-.1162.1426-.0435.2754-.083.3965-.1196.1201-.0366.1875-.0571.2012-.0615l-.4307,2.0713h1.7637l-.2119.9502Z" fill="#2f2f2f"/>
        <path d="M473.4453,122.4331c-.1143.0366-.2422.0659-.3867.0889-.1426.0229-.2852.0342-.4268.0342-.46,0-.8047-.1152-1.0322-.3452s-.3418-.5391-.3418-.9263c0-.1138.0117-.2485.0342-.4033s.0596-.3462.1094-.5742l1.0186-4.8467h1.1348l-1.0254,4.874c-.041.1914-.0693.3394-.0859.4443-.0156.105-.0234.1938-.0234.2666,0,.187.0508.3291.1543.4272.1016.0981.2646.147.4883.147.1182,0,.2227-.0068.3105-.0205.0898-.0137.1729-.0342.25-.0615l-.1777.8955ZM474.2451,112.9653c0,.2051-.0693.3804-.208.5264-.1396.146-.3115.2188-.5166.2188-.2002,0-.375-.0718-.5225-.2153-.1484-.1436-.2227-.3203-.2227-.5298s.0742-.3804.2227-.5127c.1475-.1323.3223-.1982.5225-.1982s.3711.0674.5127.2017.2119.3042.2119.5093Z" fill="#2f2f2f"/>
        <path d="M481.042,118.0513c0,.6196-.0879,1.2075-.2637,1.7637-.1748.5562-.4277,1.0425-.7578,1.4595-.3311.417-.7324.7476-1.2031.9912-.4727.2437-1.0039.3657-1.5967.3657-.4014,0-.7627-.064-1.083-.1914-.3223-.1274-.5957-.311-.8203-.5503-.2266-.2393-.3994-.5288-.5195-.8682-.1211-.3394-.1816-.7236-.1816-1.1519,0-.6426.0918-1.2432.2773-1.8013.1836-.5581.4434-1.0435.7793-1.4561.334-.4126.7354-.7358,1.2031-.9707.4668-.2349.9824-.3521,1.5479-.3521.3965,0,.7549.064,1.0771.1914.3203.1274.5957.311.8232.5503s.4043.5288.5303.8682c.125.3394.1875.7236.1875,1.1519ZM479.8936,118.106c0-.2964-.0361-.5596-.1094-.7896s-.1758-.4238-.3076-.5811-.292-.2778-.4785-.3623-.3965-.1265-.6289-.1265c-.4014,0-.7637.1025-1.0869.3076s-.5967.4751-.8203.8101-.3955.7153-.5156,1.1416c-.1211.4263-.1816.8623-.1816,1.3091,0,.2827.0352.5391.1055.769.0713.23.1719.4263.3008.5879.1309.1616.29.2861.4785.3726.1895.0864.4023.1299.6396.1299.4053,0,.7705-.1016,1.0938-.3042s.5967-.4717.8203-.8066.3945-.7168.5127-1.145.1777-.8657.1777-1.3125Z" fill="#2f2f2f"/>
        <path d="M488.6055,117.2104c0,.0684-.0078.1616-.0234.2803-.0166.1187-.0371.2461-.0625.3828-.0244.1367-.0498.2725-.0742.4067-.0254.1343-.0498.2495-.0723.3452l-.8135,3.835h-1.1348l.8545-4.1016c.0186-.0728.0361-.1572.0547-.2529s.0342-.1914.0479-.2871.0254-.1836.0342-.2632.0137-.1426.0137-.188c0-.3462-.083-.6196-.25-.8203-.166-.2007-.4131-.3008-.7412-.3008-.3008,0-.5996.0889-.8955.2666s-.5693.4033-.8203.6768-.4658.5742-.6465.9023c-.1797.3281-.3018.645-.3652.9502l-.7314,3.418h-1.1348l1.0801-4.9971c.0361-.1777.0732-.3633.1094-.5571s.0703-.3804.1025-.5605.0596-.3477.082-.5024.041-.2827.0547-.3828h1.0938c-.0225.1777-.0498.3633-.082.5571s-.0596.3726-.082.5366c-.0273.1914-.0566.3784-.0889.5605h.0273c.1592-.2505.3359-.4863.5303-.7075.1934-.2212.4023-.4146.6289-.5811.2246-.1665.4648-.2974.7168-.3931.2539-.0957.5186-.1436.7969-.1436.3096,0,.5762.0469.7998.1401s.4092.2246.5576.3931c.1475.1685.2568.3716.3281.6084.0703.2368.1055.4966.1055.7793Z" fill="#2f2f2f"/>
        <path d="M494.0732,116.6909c-.2051-.1323-.4355-.2393-.6904-.3213s-.5107-.123-.7656-.123c-.4287,0-.7598.0981-.9941.2939-.2354.1958-.3525.4556-.3525.7793,0,.1323.0215.2529.0654.3623.043.1094.1064.2129.1914.311.084.0981.1914.1924.3203.2837.1309.0913.2793.189.4482.2939.5107.2964.8779.6006,1.1045.9126.2246.312.3379.6641.3379,1.0562,0,.2642-.0488.5229-.1465.7759-.0986.2529-.2549.4761-.4688.6699s-.4912.3496-.8301.4683c-.3398.1187-.7539.1777-1.2412.1777-.1367,0-.2871-.0093-.4512-.0273s-.3291-.0454-.4951-.082c-.167-.0366-.3262-.0811-.4785-.1333-.1533-.0522-.2861-.1128-.4004-.1812l.2256-1.0664c.0908.064.2041.1274.3389.1914.1338.064.2793.1206.4375.1709.1562.0503.3203.0913.4922.123.1699.0317.3398.0479.5088.0479.4561,0,.7959-.0913,1.0225-.2734.2246-.1821.3379-.4351.3379-.7588,0-.1187-.0176-.228-.0508-.3281-.0352-.1001-.0947-.2007-.1816-.3008s-.2002-.2017-.3418-.3042-.3193-.2178-.5332-.3452c-.4648-.2827-.8076-.5776-1.0293-.8853-.2207-.3076-.3311-.6553-.3311-1.0425,0-.2827.0527-.5527.1572-.8101s.2607-.4854.4688-.6836c.207-.1982.4678-.3564.7822-.4751s.6816-.1777,1.1006-.1777c.3281,0,.6387.0317.9336.0957.293.064.543.146.748.2461l-.2393,1.0596Z" fill="#2f2f2f"/>
      </g>
      <g>
        <path d="M160.7773,254.9785v3.7051h-1.1484v-9.8027h2.6934c1.0479,0,1.8604.2554,2.4375.7656.5762.5103.8643,1.2305.8643,2.1602s-.3203,1.6909-.96,2.2832c-.6406.5923-1.5059.8887-2.5947.8887h-1.292ZM160.7773,249.9199v4.0195h1.2031c.793,0,1.3984-.1812,1.8145-.5435.418-.3623.626-.874.626-1.5347,0-1.2944-.7656-1.9414-2.2969-1.9414h-1.3467Z" fill="#2f2f2f"/>
        <path d="M170.7539,252.8184c-.1963-.1504-.4785-.2256-.8477-.2256-.4785,0-.8789.2256-1.1992.6768-.3223.4512-.4824,1.0664-.4824,1.8457v3.5684h-1.1211v-7h1.1211v1.4424h.0273c.1592-.4922.4033-.876.7314-1.1519s.6953-.4136,1.1006-.4136c.292,0,.5146.0317.6699.0957v1.1621Z" fill="#2f2f2f"/>
        <path d="M172.5713,249.9062c-.2002,0-.3711-.0684-.5127-.2051s-.2119-.3101-.2119-.5195.0703-.3838.2119-.5229.3125-.2085.5127-.2085c.2051,0,.3789.0693.5234.2085.1426.1392.2148.3135.2148.5229,0,.2007-.0723.3716-.2148.5127-.1445.1411-.3184.2119-.5234.2119ZM173.1182,258.6836h-1.1211v-7h1.1211v7Z" fill="#2f2f2f"/>
        <path d="M185.1768,258.6836h-1.1211v-4.0195c0-.7749-.1191-1.3354-.3594-1.6816-.2383-.3462-.6406-.5195-1.2061-.5195-.4785,0-.8857.2188-1.2197.6562-.3359.4375-.5029.9614-.5029,1.5723v3.9922h-1.1211v-4.1562c0-1.3765-.5312-2.0645-1.5928-2.0645-.4922,0-.8975.2061-1.2168.6187s-.4785.9492-.4785,1.6099v3.9922h-1.1211v-7h1.1211v1.1074h.0273c.4971-.8477,1.2217-1.2715,2.1738-1.2715.4785,0,.8955.1333,1.251.3999s.5996.6162.7314,1.0493c.5195-.9663,1.2939-1.4492,2.3242-1.4492,1.54,0,2.3105.9502,2.3105,2.8506v4.3135Z" fill="#2f2f2f"/>
        <path d="M192.2109,258.6836h-1.1211v-1.0938h-.0273c-.4873.8384-1.2051,1.2578-2.1533,1.2578-.6973,0-1.2432-.1846-1.6367-.5537-.3945-.3691-.5918-.8589-.5918-1.4697,0-1.3081.7705-2.0688,2.3105-2.2832l2.0986-.2939c0-1.1895-.4805-1.7842-1.4424-1.7842-.8428,0-1.6045.2871-2.2832.8613v-1.1484c.6885-.4375,1.4814-.6562,2.3789-.6562,1.6455,0,2.4678.8706,2.4678,2.6113v4.5527ZM191.0898,255.1426l-1.6885.2324c-.5195.0728-.9111.2017-1.1758.3862s-.3965.5117-.3965.981c0,.3418.1221.6211.3652.8374.2441.2163.5693.3247.9746.3247.5557,0,1.0156-.1948,1.377-.5845.3633-.3896.5439-.8828.5439-1.48v-.6973Z" fill="#2f2f2f"/>
        <path d="M197.8789,252.8184c-.1963-.1504-.4785-.2256-.8477-.2256-.4785,0-.8789.2256-1.1992.6768-.3223.4512-.4824,1.0664-.4824,1.8457v3.5684h-1.1211v-7h1.1211v1.4424h.0273c.1592-.4922.4033-.876.7314-1.1519s.6953-.4136,1.1006-.4136c.292,0,.5146.0317.6699.0957v1.1621Z" fill="#2f2f2f"/>
        <path d="M205.2197,251.6836l-3.2197,8.1211c-.5742,1.4492-1.3809,2.1738-2.4199,2.1738-.292,0-.5352-.0298-.7314-.0889v-1.0049c.2412.082.4629.123.6631.123.5654,0,.9893-.3374,1.2715-1.0117l.5605-1.3262-2.7344-6.9863h1.2441l1.8936,5.3867c.0225.0684.0703.2461.1436.5332h.041c.0225-.1094.0684-.2827.1367-.5195l1.9893-5.4004h1.1621Z" fill="#2f2f2f"/>
      </g>
      <g>
        <path d="M303.3555,198.647h-1.3672l-1.6406-2.748c-.1504-.2554-.2959-.4727-.4375-.6528s-.2861-.3271-.4336-.4409c-.1484-.1138-.3086-.1973-.4785-.2495-.1719-.0522-.3643-.0786-.5781-.0786h-.9434v4.1699h-1.1484v-9.8027h2.9258c.4287,0,.8242.0537,1.1855.1606.3633.1069.6777.27.9434.4888.2676.2188.4756.4912.626.8169s.2256.7075.2256,1.145c0,.3418-.0508.6553-.1543.9399-.1016.2847-.248.5391-.4375.7622-.1885.2231-.416.4136-.6836.5708-.2656.1572-.5654.2793-.8984.3657v.0273c.1641.0728.3066.1562.4277.2495.1201.0933.2354.2041.3447.3315s.2178.2725.3252.4341c.1064.1616.2266.3496.3584.564l1.8389,2.9463ZM297.4766,189.8833v3.5547h1.5586c.2871,0,.5527-.0435.7969-.1299.2432-.0864.4541-.2109.6318-.3726s.3164-.3599.417-.5947.1504-.498.1504-.7896c0-.5239-.1699-.9331-.5098-1.2271-.3389-.2939-.8301-.4409-1.4727-.4409h-1.5723Z" fill="#2f2f2f"/>
        <path d="M309.9678,195.4272h-4.9424c.0186.7793.2275,1.3809.6289,1.8047s.9521.6357,1.6543.6357c.7881,0,1.5127-.2598,2.1738-.7793v1.0527c-.6152.4468-1.4287.6699-2.4404.6699-.9893,0-1.7656-.3179-2.3311-.9536s-.8477-1.5303-.8477-2.6831c0-1.0894.3086-1.9766.9258-2.6626.6182-.686,1.3848-1.0288,2.3008-1.0288s1.625.2964,2.126.8887.752,1.415.752,2.4678v.5879ZM308.8193,194.4771c-.0049-.647-.1611-1.1509-.4678-1.5107-.3086-.3599-.7354-.54-1.2822-.54-.5283,0-.9775.189-1.3467.5674s-.5967.8726-.6836,1.4834h3.7803Z" fill="#2f2f2f"/>
        <path d="M312.7988,197.6353h-.0273v4.2314h-1.1211v-10.2197h1.1211v1.2305h.0273c.5518-.9297,1.3584-1.3945,2.4199-1.3945.9023,0,1.6064.3135,2.1123.9399s.7588,1.4663.7588,2.519c0,1.1714-.2852,2.1089-.8545,2.813s-1.3486,1.0562-2.3379,1.0562c-.9072,0-1.6064-.3921-2.0986-1.1758ZM312.7715,194.812v.9775c0,.5786.1875,1.0698.5645,1.4731.375.4033.8525.605,1.4316.605.6787,0,1.2109-.2598,1.5957-.7793.3857-.5195.5781-1.2417.5781-2.167,0-.7793-.1797-1.3901-.54-1.832s-.8477-.6631-1.4629-.6631c-.6514,0-1.1758.2266-1.5723.6802s-.5947,1.022-.5947,1.7056Z" fill="#2f2f2f"/>
        <path d="M320.9404,198.647h-1.1211v-10.3633h1.1211v10.3633Z" fill="#2f2f2f"/>
        <path d="M323.627,189.8696c-.2002,0-.3711-.0684-.5127-.2051s-.2119-.3101-.2119-.5195.0703-.3838.2119-.5229.3125-.2085.5127-.2085c.2051,0,.3789.0693.5234.2085.1426.1392.2148.3135.2148.5229,0,.2007-.0723.3716-.2148.5127-.1445.1411-.3184.2119-.5234.2119ZM324.1738,198.647h-1.1211v-7h1.1211v7Z" fill="#2f2f2f"/>
        <path d="M331.0869,198.3257c-.5381.3237-1.1758.4854-1.9141.4854-.998,0-1.8037-.3247-2.416-.9741-.6133-.6494-.9199-1.4912-.9199-2.5259,0-1.1528.3301-2.0791.9912-2.7788s1.543-1.0493,2.6455-1.0493c.6152,0,1.1572.1138,1.627.3418v1.1484c-.5195-.3647-1.0752-.5469-1.668-.5469-.7158,0-1.3027.2563-1.7598.769-.459.5127-.6875,1.186-.6875,2.02,0,.8203.2148,1.4673.6465,1.9414.4297.4741,1.0078.7109,1.7324.7109.6104,0,1.1846-.2026,1.7227-.6084v1.0664Z" fill="#2f2f2f"/>
        <path d="M337.8301,198.647h-1.1211v-1.0938h-.0273c-.4873.8384-1.2051,1.2578-2.1533,1.2578-.6973,0-1.2432-.1846-1.6367-.5537-.3945-.3691-.5918-.8589-.5918-1.4697,0-1.3081.7705-2.0688,2.3105-2.2832l2.0986-.2939c0-1.1895-.4805-1.7842-1.4424-1.7842-.8428,0-1.6045.2871-2.2832.8613v-1.1484c.6885-.4375,1.4814-.6562,2.3789-.6562,1.6455,0,2.4678.8706,2.4678,2.6113v4.5527ZM336.709,195.106l-1.6885.2324c-.5195.0728-.9111.2017-1.1758.3862s-.3965.5117-.3965.981c0,.3418.1221.6211.3652.8374.2441.2163.5693.3247.9746.3247.5557,0,1.0156-.1948,1.377-.5845.3633-.3896.5439-.8828.5439-1.48v-.6973Z" fill="#2f2f2f"/>
        <path d="M347.9199,191.4146c0-.3008-.0469-.563-.1406-.7861-.0928-.2231-.2207-.4092-.3828-.5571-.1611-.1479-.3516-.2588-.5703-.3315s-.4561-.1094-.7109-.1094c-.2188,0-.4326.0298-.6426.0889s-.4141.1411-.6113.2461c-.1992.105-.3906.23-.5742.376-.1855.146-.3574.3076-.5166.4854v-1.2031c.3145-.3052.667-.5391,1.0557-.7007.3906-.1616.8652-.2427,1.4258-.2427.4014,0,.7725.0581,1.1143.1743s.6377.2861.8887.5093.4482.499.5908.8271c.1445.3281.2158.7041.2158,1.1279,0,.3872-.0439.7383-.1338,1.0527-.0879.3145-.2227.6108-.4023.8887-.1807.2778-.4072.5444-.6807.7998s-.5947.5151-.9639.7793c-.46.3281-.8398.6084-1.1387.8408-.2979.2324-.5352.4502-.7109.6528-.1748.2026-.2979.4058-.3691.6084-.0703.2026-.1055.4365-.1055.7007h4.8809v1.0049h-6.0498v-.4854c0-.4194.0459-.7886.1367-1.1074s.2412-.6221.4512-.9092.4844-.5742.8232-.8613c.3398-.2871.7559-.6108,1.248-.9707.3555-.2554.6523-.499.8926-.7314.2383-.2324.4316-.4648.5771-.6973s.249-.4683.3115-.7075c.0605-.2393.0918-.4932.0918-.7622Z" fill="#2f2f2f"/>
      </g>
      <g>
        <path d="M291.2363,258.2871v-1.3535c.1553.1367.3408.2598.5576.3691.2158.1094.4434.2017.6836.2769.2383.0752.4795.1333.7207.1743s.4648.0615.6699.0615c.7061,0,1.2344-.1309,1.582-.3931.3496-.2622.5234-.6392.5234-1.1313,0-.2642-.0586-.4946-.1738-.6904-.1172-.1958-.2773-.375-.4824-.5366s-.4473-.3169-.7285-.4648c-.2793-.1479-.582-.3042-.9053-.4683-.3418-.1733-.6611-.3486-.957-.5264s-.5537-.3735-.7725-.5879-.3906-.457-.5156-.728c-.126-.271-.1885-.5889-.1885-.9536,0-.4468.0977-.835.2939-1.1655s.4531-.6025.7725-.8169.6826-.3735,1.0908-.4785c.4072-.105.8232-.1572,1.2471-.1572.9658,0,1.6699.1162,2.1123.3486v1.292c-.5791-.4009-1.3213-.6016-2.2285-.6016-.251,0-.501.0264-.752.0786s-.4736.1377-.6699.2563-.3555.271-.4785.458-.1846.4146-.1846.6836c0,.2505.0469.4673.1396.6494.0938.1821.2314.3486.4141.499s.4043.2964.666.4375c.2627.1411.5645.2964.9062.4648.3506.1733.6836.3555.998.5469s.5898.4033.8271.6357.4248.4897.5635.7725c.1396.2827.209.606.209.9707,0,.4829-.0947.8921-.2832,1.2271-.1895.335-.4453.6074-.7656.8169-.3223.2095-.6924.3613-1.1113.4546s-.8613.1401-1.3262.1401c-.1553,0-.3467-.0127-.5742-.0376s-.46-.0615-.6973-.1094-.4609-.1069-.6738-.1777c-.2109-.0708-.3809-.1494-.5088-.2358Z" fill="#2f2f2f"/>
        <path d="M304.5586,255.4639h-4.9424c.0186.7793.2275,1.3809.6289,1.8047s.9521.6357,1.6543.6357c.7881,0,1.5127-.2598,2.1738-.7793v1.0527c-.6152.4468-1.4287.6699-2.4404.6699-.9893,0-1.7656-.3179-2.3311-.9536s-.8477-1.5303-.8477-2.6831c0-1.0894.3086-1.9766.9258-2.6626.6182-.686,1.3848-1.0288,2.3008-1.0288s1.625.2964,2.126.8887.752,1.415.752,2.4678v.5879ZM303.4102,254.5137c-.0049-.647-.1611-1.1509-.4678-1.5107-.3086-.3599-.7354-.54-1.2822-.54-.5283,0-.9775.189-1.3467.5674s-.5967.8726-.6836,1.4834h3.7803Z" fill="#2f2f2f"/>
        <path d="M311.0557,258.3623c-.5381.3237-1.1758.4854-1.9141.4854-.998,0-1.8037-.3247-2.416-.9741-.6133-.6494-.9199-1.4912-.9199-2.5259,0-1.1528.3301-2.0791.9912-2.7788s1.543-1.0493,2.6455-1.0493c.6152,0,1.1572.1138,1.627.3418v1.1484c-.5195-.3647-1.0752-.5469-1.668-.5469-.7158,0-1.3027.2563-1.7598.769-.459.5127-.6875,1.186-.6875,2.02,0,.8203.2148,1.4673.6465,1.9414.4297.4741,1.0078.7109,1.7324.7109.6104,0,1.1846-.2026,1.7227-.6084v1.0664Z" fill="#2f2f2f"/>
        <path d="M315.4961,258.8477c-1.0342,0-1.8604-.3271-2.4785-.981-.6172-.6538-.9258-1.521-.9258-2.6011,0-1.1758.3213-2.0942.9639-2.7549s1.5107-.9912,2.6045-.9912c1.0439,0,1.8584.3213,2.4434.9639.5859.6426.8789,1.5337.8789,2.6729,0,1.1167-.3154,2.0107-.9473,2.6831-.6309.6724-1.4775,1.0083-2.5391,1.0083ZM315.5781,252.4629c-.7197,0-1.29.2451-1.709.7349s-.6289,1.1655-.6289,2.0269c0,.8296.2119,1.4834.6357,1.9619s.9912.7178,1.7021.7178c.7246,0,1.2812-.2349,1.6719-.7041.3887-.4692.584-1.1372.584-2.0029,0-.875-.1953-1.5493-.584-2.0234-.3906-.4741-.9473-.7109-1.6719-.7109Z" fill="#2f2f2f"/>
        <path d="M326.5088,258.6836h-1.1211v-3.9922c0-1.4858-.542-2.2285-1.627-2.2285-.5605,0-1.0244.2109-1.3906.6323-.3672.4214-.5508.9536-.5508,1.5962v3.9922h-1.1211v-7h1.1211v1.1621h.0273c.5283-.8843,1.2939-1.3262,2.2969-1.3262.7656,0,1.3516.2471,1.7568.7417s.6084,1.209.6084,2.1431v4.2793Z" fill="#2f2f2f"/>
        <path d="M334.583,258.6836h-1.1211v-1.1895h-.0273c-.5195.9023-1.3213,1.3535-2.4062,1.3535-.8799,0-1.582-.3135-2.1094-.9399-.5254-.6265-.7891-1.48-.7891-2.5601,0-1.1577.292-2.085.875-2.7822s1.3604-1.0459,2.3311-1.0459c.9619,0,1.6611.3784,2.0986,1.1348h.0273v-4.334h1.1211v10.3633ZM333.4619,255.5186v-1.0322c0-.5649-.1865-1.0435-.5605-1.4355s-.8477-.5879-1.4219-.5879c-.6836,0-1.2217.2505-1.6133.752s-.5879,1.1938-.5879,2.0781c0,.8066.1875,1.4434.5645,1.9106.375.4673.8799.7007,1.5137.7007.624,0,1.1309-.2256,1.5215-.6768.3887-.4512.584-1.021.584-1.709Z" fill="#2f2f2f"/>
        <path d="M341.7402,258.6836h-1.1211v-1.0938h-.0273c-.4873.8384-1.2051,1.2578-2.1533,1.2578-.6973,0-1.2432-.1846-1.6367-.5537-.3945-.3691-.5918-.8589-.5918-1.4697,0-1.3081.7705-2.0688,2.3105-2.2832l2.0986-.2939c0-1.1895-.4805-1.7842-1.4424-1.7842-.8428,0-1.6045.2871-2.2832.8613v-1.1484c.6885-.4375,1.4814-.6562,2.3789-.6562,1.6455,0,2.4678.8706,2.4678,2.6113v4.5527ZM340.6191,255.1426l-1.6885.2324c-.5195.0728-.9111.2017-1.1758.3862s-.3965.5117-.3965.981c0,.3418.1221.6211.3652.8374.2441.2163.5693.3247.9746.3247.5557,0,1.0156-.1948,1.377-.5845.3633-.3896.5439-.8828.5439-1.48v-.6973Z" fill="#2f2f2f"/>
        <path d="M347.4121,252.8184c-.1963-.1504-.4785-.2256-.8477-.2256-.4785,0-.8789.2256-1.1992.6768-.3223.4512-.4824,1.0664-.4824,1.8457v3.5684h-1.1211v-7h1.1211v1.4424h.0273c.1592-.4922.4033-.876.7314-1.1519s.6953-.4136,1.1006-.4136c.292,0,.5146.0317.6699.0957v1.1621Z" fill="#2f2f2f"/>
        <path d="M354.7529,251.6836l-3.2197,8.1211c-.5742,1.4492-1.3809,2.1738-2.4199,2.1738-.292,0-.5352-.0298-.7314-.0889v-1.0049c.2412.082.4629.123.6631.123.5654,0,.9893-.3374,1.2715-1.0117l.5605-1.3262-2.7344-6.9863h1.2441l1.8936,5.3867c.0225.0684.0703.2461.1436.5332h.041c.0225-.1094.0684-.2827.1367-.5195l1.9893-5.4004h1.1621Z" fill="#2f2f2f"/>
      </g>
      <g>
        <path d="M444.1543,198.647h-1.3672l-1.6406-2.748c-.1504-.2554-.2959-.4727-.4375-.6528s-.2861-.3271-.4336-.4409c-.1484-.1138-.3086-.1973-.4785-.2495-.1719-.0522-.3643-.0786-.5781-.0786h-.9434v4.1699h-1.1484v-9.8027h2.9258c.4287,0,.8242.0537,1.1855.1606.3633.1069.6777.27.9434.4888.2676.2188.4756.4912.626.8169s.2256.7075.2256,1.145c0,.3418-.0508.6553-.1543.9399-.1016.2847-.248.5391-.4375.7622-.1885.2231-.416.4136-.6836.5708-.2656.1572-.5654.2793-.8984.3657v.0273c.1641.0728.3066.1562.4277.2495.1201.0933.2354.2041.3447.3315s.2178.2725.3252.4341c.1064.1616.2266.3496.3584.564l1.8389,2.9463ZM438.2754,189.8833v3.5547h1.5586c.2871,0,.5527-.0435.7969-.1299.2432-.0864.4541-.2109.6318-.3726s.3164-.3599.417-.5947.1504-.498.1504-.7896c0-.5239-.1699-.9331-.5098-1.2271-.3389-.2939-.8301-.4409-1.4727-.4409h-1.5723Z" fill="#2f2f2f"/>
        <path d="M450.7666,195.4272h-4.9424c.0186.7793.2275,1.3809.6289,1.8047s.9521.6357,1.6543.6357c.7881,0,1.5127-.2598,2.1738-.7793v1.0527c-.6152.4468-1.4287.6699-2.4404.6699-.9893,0-1.7656-.3179-2.3311-.9536s-.8477-1.5303-.8477-2.6831c0-1.0894.3086-1.9766.9258-2.6626.6182-.686,1.3848-1.0288,2.3008-1.0288s1.625.2964,2.126.8887.752,1.415.752,2.4678v.5879ZM449.6182,194.4771c-.0049-.647-.1611-1.1509-.4678-1.5107-.3086-.3599-.7354-.54-1.2822-.54-.5283,0-.9775.189-1.3467.5674s-.5967.8726-.6836,1.4834h3.7803Z" fill="#2f2f2f"/>
        <path d="M453.5977,197.6353h-.0273v4.2314h-1.1211v-10.2197h1.1211v1.2305h.0273c.5518-.9297,1.3584-1.3945,2.4199-1.3945.9023,0,1.6064.3135,2.1123.9399s.7588,1.4663.7588,2.519c0,1.1714-.2852,2.1089-.8545,2.813s-1.3486,1.0562-2.3379,1.0562c-.9072,0-1.6064-.3921-2.0986-1.1758ZM453.5703,194.812v.9775c0,.5786.1875,1.0698.5645,1.4731.375.4033.8525.605,1.4316.605.6787,0,1.2109-.2598,1.5957-.7793.3857-.5195.5781-1.2417.5781-2.167,0-.7793-.1797-1.3901-.54-1.832s-.8477-.6631-1.4629-.6631c-.6514,0-1.1758.2266-1.5723.6802s-.5947,1.022-.5947,1.7056Z" fill="#2f2f2f"/>
        <path d="M461.7393,198.647h-1.1211v-10.3633h1.1211v10.3633Z" fill="#2f2f2f"/>
        <path d="M464.4258,189.8696c-.2002,0-.3711-.0684-.5127-.2051s-.2119-.3101-.2119-.5195.0703-.3838.2119-.5229.3125-.2085.5127-.2085c.2051,0,.3789.0693.5234.2085.1426.1392.2148.3135.2148.5229,0,.2007-.0723.3716-.2148.5127-.1445.1411-.3184.2119-.5234.2119ZM464.9727,198.647h-1.1211v-7h1.1211v7Z" fill="#2f2f2f"/>
        <path d="M471.8857,198.3257c-.5381.3237-1.1758.4854-1.9141.4854-.998,0-1.8037-.3247-2.416-.9741-.6133-.6494-.9199-1.4912-.9199-2.5259,0-1.1528.3301-2.0791.9912-2.7788s1.543-1.0493,2.6455-1.0493c.6152,0,1.1572.1138,1.627.3418v1.1484c-.5195-.3647-1.0752-.5469-1.668-.5469-.7158,0-1.3027.2563-1.7598.769-.459.5127-.6875,1.186-.6875,2.02,0,.8203.2148,1.4673.6465,1.9414.4297.4741,1.0078.7109,1.7324.7109.6104,0,1.1846-.2026,1.7227-.6084v1.0664Z" fill="#2f2f2f"/>
        <path d="M478.6289,198.647h-1.1211v-1.0938h-.0273c-.4873.8384-1.2051,1.2578-2.1533,1.2578-.6973,0-1.2432-.1846-1.6367-.5537-.3945-.3691-.5918-.8589-.5918-1.4697,0-1.3081.7705-2.0688,2.3105-2.2832l2.0986-.2939c0-1.1895-.4805-1.7842-1.4424-1.7842-.8428,0-1.6045.2871-2.2832.8613v-1.1484c.6885-.4375,1.4814-.6562,2.3789-.6562,1.6455,0,2.4678.8706,2.4678,2.6113v4.5527ZM477.5078,195.106l-1.6885.2324c-.5195.0728-.9111.2017-1.1758.3862s-.3965.5117-.3965.981c0,.3418.1221.6211.3652.8374.2441.2163.5693.3247.9746.3247.5557,0,1.0156-.1948,1.377-.5845.3633-.3896.5439-.8828.5439-1.48v-.6973Z" fill="#2f2f2f"/>
        <path d="M489.9561,195.8716c0,.4419-.083.8442-.249,1.2065-.167.3623-.4014.6724-.7051.9297-.3027.2573-.666.457-1.0898.5981s-.8906.2119-1.4014.2119c-.9346,0-1.6768-.1777-2.2285-.5332v-1.2031c.6611.5195,1.417.7793,2.2695.7793.3418,0,.6504-.0435.9268-.1299.2754-.0864.5117-.2119.7109-.376.1973-.1641.3506-.3623.457-.5947.1074-.2324.1611-.4946.1611-.7861,0-1.2808-.9111-1.9209-2.7344-1.9209h-.8135v-.9502h.7725c1.6133,0,2.4199-.6016,2.4199-1.8047,0-1.1118-.6152-1.668-1.8457-1.668-.6924,0-1.3418.2324-1.9482.6973v-1.0869c.624-.3735,1.3672-.5605,2.2285-.5605.4102,0,.7812.0571,1.1143.1709s.6172.2734.8545.4785.4199.4512.5508.7383c.1289.2871.1943.604.1943.9502,0,1.2896-.6514,2.1191-1.9551,2.4883v.0273c.333.0366.6406.1172.9229.2427s.5264.2881.7314.4888.3662.4365.4814.7075c.1172.271.1748.5708.1748.8989Z" fill="#2f2f2f"/>
      </g>
      <g>
        <path d="M432.0361,258.2871v-1.3535c.1553.1367.3408.2598.5576.3691.2158.1094.4434.2017.6836.2769.2383.0752.4795.1333.7207.1743s.4648.0615.6699.0615c.7061,0,1.2344-.1309,1.582-.3931.3496-.2622.5234-.6392.5234-1.1313,0-.2642-.0586-.4946-.1738-.6904-.1172-.1958-.2773-.375-.4824-.5366s-.4473-.3169-.7285-.4648c-.2793-.1479-.582-.3042-.9053-.4683-.3418-.1733-.6611-.3486-.957-.5264s-.5537-.3735-.7725-.5879-.3906-.457-.5156-.728c-.126-.271-.1885-.5889-.1885-.9536,0-.4468.0977-.835.2939-1.1655s.4531-.6025.7725-.8169.6826-.3735,1.0908-.4785c.4072-.105.8232-.1572,1.2471-.1572.9658,0,1.6699.1162,2.1123.3486v1.292c-.5791-.4009-1.3213-.6016-2.2285-.6016-.251,0-.501.0264-.752.0786s-.4736.1377-.6699.2563-.3555.271-.4785.458-.1846.4146-.1846.6836c0,.2505.0469.4673.1396.6494.0938.1821.2314.3486.4141.499s.4043.2964.666.4375c.2627.1411.5645.2964.9062.4648.3506.1733.6836.3555.998.5469s.5898.4033.8271.6357.4248.4897.5635.7725c.1396.2827.209.606.209.9707,0,.4829-.0947.8921-.2832,1.2271-.1895.335-.4453.6074-.7656.8169-.3223.2095-.6924.3613-1.1113.4546s-.8613.1401-1.3262.1401c-.1553,0-.3467-.0127-.5742-.0376s-.46-.0615-.6973-.1094-.4609-.1069-.6738-.1777c-.2109-.0708-.3809-.1494-.5088-.2358Z" fill="#2f2f2f"/>
        <path d="M445.3584,255.4639h-4.9424c.0186.7793.2275,1.3809.6289,1.8047s.9521.6357,1.6543.6357c.7881,0,1.5127-.2598,2.1738-.7793v1.0527c-.6152.4468-1.4287.6699-2.4404.6699-.9893,0-1.7656-.3179-2.3311-.9536s-.8477-1.5303-.8477-2.6831c0-1.0894.3086-1.9766.9258-2.6626.6182-.686,1.3848-1.0288,2.3008-1.0288s1.625.2964,2.126.8887.752,1.415.752,2.4678v.5879ZM444.21,254.5137c-.0049-.647-.1611-1.1509-.4678-1.5107-.3086-.3599-.7354-.54-1.2822-.54-.5283,0-.9775.189-1.3467.5674s-.5967.8726-.6836,1.4834h3.7803Z" fill="#2f2f2f"/>
        <path d="M451.8555,258.3623c-.5381.3237-1.1758.4854-1.9141.4854-.998,0-1.8037-.3247-2.416-.9741-.6133-.6494-.9199-1.4912-.9199-2.5259,0-1.1528.3301-2.0791.9912-2.7788s1.543-1.0493,2.6455-1.0493c.6152,0,1.1572.1138,1.627.3418v1.1484c-.5195-.3647-1.0752-.5469-1.668-.5469-.7158,0-1.3027.2563-1.7598.769-.459.5127-.6875,1.186-.6875,2.02,0,.8203.2148,1.4673.6465,1.9414.4297.4741,1.0078.7109,1.7324.7109.6104,0,1.1846-.2026,1.7227-.6084v1.0664Z" fill="#2f2f2f"/>
        <path d="M456.2959,258.8477c-1.0342,0-1.8604-.3271-2.4785-.981-.6172-.6538-.9258-1.521-.9258-2.6011,0-1.1758.3213-2.0942.9639-2.7549s1.5107-.9912,2.6045-.9912c1.0439,0,1.8584.3213,2.4434.9639.5859.6426.8789,1.5337.8789,2.6729,0,1.1167-.3154,2.0107-.9473,2.6831-.6309.6724-1.4775,1.0083-2.5391,1.0083ZM456.3779,252.4629c-.7197,0-1.29.2451-1.709.7349s-.6289,1.1655-.6289,2.0269c0,.8296.2119,1.4834.6357,1.9619s.9912.7178,1.7021.7178c.7246,0,1.2812-.2349,1.6719-.7041.3887-.4692.584-1.1372.584-2.0029,0-.875-.1953-1.5493-.584-2.0234-.3906-.4741-.9473-.7109-1.6719-.7109Z" fill="#2f2f2f"/>
        <path d="M467.3086,258.6836h-1.1211v-3.9922c0-1.4858-.542-2.2285-1.627-2.2285-.5605,0-1.0244.2109-1.3906.6323-.3672.4214-.5508.9536-.5508,1.5962v3.9922h-1.1211v-7h1.1211v1.1621h.0273c.5283-.8843,1.2939-1.3262,2.2969-1.3262.7656,0,1.3516.2471,1.7568.7417s.6084,1.209.6084,2.1431v4.2793Z" fill="#2f2f2f"/>
        <path d="M475.3828,258.6836h-1.1211v-1.1895h-.0273c-.5195.9023-1.3213,1.3535-2.4062,1.3535-.8799,0-1.582-.3135-2.1094-.9399-.5254-.6265-.7891-1.48-.7891-2.5601,0-1.1577.292-2.085.875-2.7822s1.3604-1.0459,2.3311-1.0459c.9619,0,1.6611.3784,2.0986,1.1348h.0273v-4.334h1.1211v10.3633ZM474.2617,255.5186v-1.0322c0-.5649-.1865-1.0435-.5605-1.4355s-.8477-.5879-1.4219-.5879c-.6836,0-1.2217.2505-1.6133.752s-.5879,1.1938-.5879,2.0781c0,.8066.1875,1.4434.5645,1.9106.375.4673.8799.7007,1.5137.7007.624,0,1.1309-.2256,1.5215-.6768.3887-.4512.584-1.021.584-1.709Z" fill="#2f2f2f"/>
        <path d="M482.54,258.6836h-1.1211v-1.0938h-.0273c-.4873.8384-1.2051,1.2578-2.1533,1.2578-.6973,0-1.2432-.1846-1.6367-.5537-.3945-.3691-.5918-.8589-.5918-1.4697,0-1.3081.7705-2.0688,2.3105-2.2832l2.0986-.2939c0-1.1895-.4805-1.7842-1.4424-1.7842-.8428,0-1.6045.2871-2.2832.8613v-1.1484c.6885-.4375,1.4814-.6562,2.3789-.6562,1.6455,0,2.4678.8706,2.4678,2.6113v4.5527ZM481.4189,255.1426l-1.6885.2324c-.5195.0728-.9111.2017-1.1758.3862s-.3965.5117-.3965.981c0,.3418.1221.6211.3652.8374.2441.2163.5693.3247.9746.3247.5557,0,1.0156-.1948,1.377-.5845.3633-.3896.5439-.8828.5439-1.48v-.6973Z" fill="#2f2f2f"/>
        <path d="M488.2119,252.8184c-.1963-.1504-.4785-.2256-.8477-.2256-.4785,0-.8789.2256-1.1992.6768-.3223.4512-.4824,1.0664-.4824,1.8457v3.5684h-1.1211v-7h1.1211v1.4424h.0273c.1592-.4922.4033-.876.7314-1.1519s.6953-.4136,1.1006-.4136c.292,0,.5146.0317.6699.0957v1.1621Z" fill="#2f2f2f"/>
        <path d="M495.5527,251.6836l-3.2197,8.1211c-.5742,1.4492-1.3809,2.1738-2.4199,2.1738-.292,0-.5352-.0298-.7314-.0889v-1.0049c.2412.082.4629.123.6631.123.5654,0,.9893-.3374,1.2715-1.0117l.5605-1.3262-2.7344-6.9863h1.2441l1.8936,5.3867c.0225.0684.0703.2461.1436.5332h.041c.0225-.1094.0684-.2827.1367-.5195l1.9893-5.4004h1.1621Z" fill="#2f2f2f"/>
      </g>
    </g>
  </g>
</svg>