<svg xmlns="http://www.w3.org/2000/svg" xmlns:xlink="http://www.w3.org/1999/xlink" viewBox="0 0 630.71 107.19">
  <defs>
    <symbol id="New_Symbol_43" data-name="New Symbol 43" viewBox="0 0 21 20">
      <circle cx="10.5" cy="10" r="10" fill="#505050"/>
      <path d="M7.89,14.12V12.84a2.92,2.92,0,0,0,1.85.65,2.18,2.18,0,0,0,1.34-.38,1.23,1.23,0,0,0,.5-1c0-.95-.73-1.43-2.18-1.43H8.74V9.56h.63c1.29,0,1.94-.45,1.94-1.35S10.8,7,9.79,7a2.46,2.46,0,0,0-1.58.6V6.37a4.05,4.05,0,0,1,2-.48A2.68,2.68,0,0,1,12,6.45a1.77,1.77,0,0,1,.67,1.44A2,2,0,0,1,11,10v0a2.18,2.18,0,0,1,1.43.63A1.91,1.91,0,0,1,13,12.05a2.22,2.22,0,0,1-.85,1.82,3.39,3.39,0,0,1-2.24.7A3.83,3.83,0,0,1,7.89,14.12Z" fill="#fff"/>
    </symbol>
    <symbol id="New_Symbol_44" data-name="New Symbol 44" viewBox="0 0 21 20">
      <circle cx="10.5" cy="10" r="10" fill="#505050"/>
      <path d="M12.47,6v5.42h1.25v1.13H12.47v1.85H11.15V12.58H7.35V11.44q.51-.58,1.05-1.26c.37-.45.71-.91,1-1.38s.64-.94.93-1.41.52-.93.72-1.36Zm-1.32,5.42V7.92a21,21,0,0,1-1.26,2c-.42.57-.81,1.08-1.17,1.52Z" fill="#fff"/>
    </symbol>
    <symbol id="New_Symbol_42" data-name="New Symbol 42" viewBox="0 0 21 20">
      <circle cx="10.5" cy="10" r="10" fill="#505050"/>
      <path d="M13,14.43H7.74v-.65A2.56,2.56,0,0,1,7.85,13a3.93,3.93,0,0,1,.3-.66,4.67,4.67,0,0,1,.44-.58c.17-.18.35-.35.54-.52l.59-.5c.2-.15.39-.31.58-.47s.35-.3.5-.45a5,5,0,0,0,.38-.45,2.55,2.55,0,0,0,.24-.5,1.7,1.7,0,0,0,.09-.57,1.5,1.5,0,0,0-.1-.58,1.22,1.22,0,0,0-.29-.41,1.14,1.14,0,0,0-.44-.26A1.87,1.87,0,0,0,10.13,7a2.58,2.58,0,0,0-1.05.24,3.67,3.67,0,0,0-1,.72V6.65a3.24,3.24,0,0,1,.52-.33,3,3,0,0,1,.55-.24,2.68,2.68,0,0,1,.59-.15,4.59,4.59,0,0,1,.66,0,3.66,3.66,0,0,1,1,.14,2.25,2.25,0,0,1,.79.44,2,2,0,0,1,.51.73,2.57,2.57,0,0,1,.18,1,2.92,2.92,0,0,1-.13.92,2.65,2.65,0,0,1-.36.76,3.83,3.83,0,0,1-.56.67c-.21.21-.46.43-.73.65l-.67.53c-.23.18-.43.35-.61.51a3.22,3.22,0,0,0-.44.5.89.89,0,0,0-.16.5v0H13Z" fill="#fff"/>
    </symbol>
    <symbol id="New_Symbol_41" data-name="New Symbol 41" viewBox="0 0 21 20">
      <circle cx="10.5" cy="10" r="10" fill="#505050"/>
      <path d="M11.69,5.84v8.59H10.33V7.5A4.13,4.13,0,0,1,9.54,8a8.43,8.43,0,0,1-1,.33V7.12l.65-.24.63-.27.62-.34c.21-.13.42-.27.64-.43Z" fill="#fff"/>
    </symbol>
  </defs>
  <title>windesktophowitworks</title>
  <g id="Shapes">
    <rect width="630.71" height="107.19" fill="#fff"/>
    <rect x="525.71" y="22.93" width="105" height="75.13" fill="#d2d2d2"/>
    <circle cx="315.82" cy="61.21" r="45" fill="#ebebeb"/>
    <rect x="0.71" y="22.93" width="105" height="75.13" fill="#0072c6"/>
    <g>
      <g>
        <path d="M291.88,46.41A1.11,1.11,0,0,1,293,45.3h45.66a1.11,1.11,0,0,1,1.11,1.11v27a1.11,1.11,0,0,1-1.11,1.11H293a1.11,1.11,0,0,1-1.11-1.11Zm-2.52-1.29V74.65a2.39,2.39,0,0,0,2.38,2.4h48.15a2.39,2.39,0,0,0,2.39-2.4V45.12a2.39,2.39,0,0,0-2.39-2.4H291.74A2.39,2.39,0,0,0,289.36,45.12Z" fill="#1a1a1f" fill-rule="evenodd"/>
        <path d="M287.41,79.59h56.81a.64.64,0,0,1,.64.63v1.87a.64.64,0,0,1-.64.63H287.41a.63.63,0,0,1-.63-.63V80.22A.63.63,0,0,1,287.41,79.59Z" fill="#1a1a1f" fill-rule="evenodd"/>
        <path d="M309.34,80.7h13a.18.18,0,0,1,.18.19v.54a.18.18,0,0,1-.18.18h-13a.19.19,0,0,1-.19-.18v-.54A.19.19,0,0,1,309.34,80.7Z" fill="#fff" fill-rule="evenodd"/>
      </g>
      <path d="M304.57,51.94l9.19-1.25v8.85l-9.2.05Zm9.19,8.62v8.85l-9.19-1.26V60.5Zm1.11-10,12.2-1.77V59.43l-12.2.09Zm12.2,10.11V71.26l-12.2-1.71V60.62Z" fill="#0078d4"/>
    </g>
    <g>
      <line x1="346.39" y1="43.69" x2="520.33" y2="43.69" fill="none" stroke="#000" stroke-miterlimit="10"/>
      <polygon points="519.23 47.43 525.71 43.69 519.23 39.95 519.23 47.43"/>
    </g>
    <g>
      <line x1="352.65" y1="78.51" x2="525.71" y2="78.51" fill="none" stroke="#000" stroke-miterlimit="10"/>
      <polygon points="353.75 82.25 347.27 78.51 353.75 74.77 353.75 82.25"/>
    </g>
    <g>
      <line x1="111.34" y1="43.69" x2="287.17" y2="43.69" fill="none" stroke="#000" stroke-miterlimit="10"/>
      <polygon points="112.43 47.43 105.95 43.69 112.43 39.95 112.43 47.43"/>
    </g>
    <g>
      <line x1="105.71" y1="78.51" x2="279.12" y2="78.51" fill="none" stroke="#000" stroke-miterlimit="10"/>
      <polygon points="278.02 82.25 284.5 78.51 278.02 74.77 278.02 82.25"/>
    </g>
    <use width="21" height="20" transform="translate(370.21 33.51)" xlink:href="#New_Symbol_43"/>
    <use width="21" height="20" transform="translate(370.21 68.51)" xlink:href="#New_Symbol_44"/>
    <use width="21" height="20" transform="translate(128.55 68.51)" xlink:href="#New_Symbol_42"/>
    <use width="21" height="20" transform="translate(128.55 33.51)" xlink:href="#New_Symbol_41"/>
    <polygon points="161.75 60.26 154.19 65.7 157.08 74.51 166.42 74.51 169.31 65.7 161.75 60.26" fill="#ebebeb" stroke="#000" stroke-miterlimit="10" stroke-width="0.75"/>
  </g>
  <g id="Text">
    <g>
      <path d="M561.23,55.57h-1.87v-5c0-.54,0-1.14.07-1.8h0a7.12,7.12,0,0,1-.26,1.11l-2,5.72h-1.54l-2-5.66c-.05-.15-.14-.54-.26-1.17h-.05c.05.83.07,1.56.07,2.18v4.65h-1.7v-8.4h2.77l1.71,5a6.2,6.2,0,0,1,.3,1.2h0c.1-.47.22-.87.33-1.22l1.72-5h2.7Z" fill="#0072c6"/>
      <path d="M563.84,48.62a1.07,1.07,0,0,1-.77-.28.9.9,0,0,1-.3-.68.85.85,0,0,1,.3-.68,1.11,1.11,0,0,1,.77-.27,1.1,1.1,0,0,1,.77.27.85.85,0,0,1,.3.68.89.89,0,0,1-.3.69A1.1,1.1,0,0,1,563.84,48.62Zm.91,7H562.9v-6h1.85Z" fill="#0072c6"/>
      <path d="M570.83,55.35a3.69,3.69,0,0,1-1.81.36,3.06,3.06,0,0,1-2.24-.83,2.9,2.9,0,0,1-.85-2.17,3.19,3.19,0,0,1,.91-2.41,3.44,3.44,0,0,1,2.46-.88,3.24,3.24,0,0,1,1.53.28v1.57a2.11,2.11,0,0,0-1.29-.43,1.68,1.68,0,0,0-1.27.47,2,2,0,0,0,0,2.53,1.63,1.63,0,0,0,1.23.46,2.43,2.43,0,0,0,1.35-.44Z" fill="#0072c6"/>
      <path d="M576.05,51.24a1.59,1.59,0,0,0-.77-.18,1.11,1.11,0,0,0-.95.44,1.94,1.94,0,0,0-.34,1.2v2.87h-1.85v-6H574v1.11h0a1.6,1.6,0,0,1,1.58-1.22,1.28,1.28,0,0,1,.45.07Z" fill="#0072c6"/>
      <path d="M579.86,55.71a3.23,3.23,0,0,1-2.36-.84,3.47,3.47,0,0,1,0-4.61,3.37,3.37,0,0,1,2.41-.84,3.16,3.16,0,0,1,2.34.84,3,3,0,0,1,.85,2.23,3.19,3.19,0,0,1-.87,2.36A3.27,3.27,0,0,1,579.86,55.71Zm0-4.87a1.26,1.26,0,0,0-1,.45,2,2,0,0,0-.36,1.28c0,1.15.47,1.73,1.4,1.73s1.33-.6,1.33-1.78S580.8,50.84,579.9,50.84Z" fill="#0072c6"/>
      <path d="M584,55.41v-1.5a4.06,4.06,0,0,0,.91.41,3,3,0,0,0,.86.13,1.81,1.81,0,0,0,.77-.13.44.44,0,0,0,.29-.41.35.35,0,0,0-.13-.29,1.33,1.33,0,0,0-.33-.21l-.44-.16c-.16,0-.32-.1-.47-.15a4.68,4.68,0,0,1-.63-.29,1.86,1.86,0,0,1-.45-.37,1.33,1.33,0,0,1-.29-.47,2,2,0,0,1-.09-.64,1.66,1.66,0,0,1,.22-.87,1.72,1.72,0,0,1,.58-.59,2.85,2.85,0,0,1,.84-.34,4.53,4.53,0,0,1,1-.11,5.52,5.52,0,0,1,.81.06,5.58,5.58,0,0,1,.81.18v1.43a2.76,2.76,0,0,0-.75-.31,3.64,3.64,0,0,0-.79-.1,1.79,1.79,0,0,0-.34,0,1.1,1.1,0,0,0-.29.1.49.49,0,0,0-.19.16.32.32,0,0,0-.07.22.42.42,0,0,0,.1.28,1.26,1.26,0,0,0,.28.2,1.88,1.88,0,0,0,.38.15L587,52a4.66,4.66,0,0,1,.67.28,1.94,1.94,0,0,1,.51.36,1.37,1.37,0,0,1,.33.48,1.61,1.61,0,0,1,.11.65,1.7,1.7,0,0,1-.23.92,1.87,1.87,0,0,1-.61.61,3,3,0,0,1-.89.35,5,5,0,0,1-1,.1A5.4,5.4,0,0,1,584,55.41Z" fill="#0072c6"/>
      <path d="M592.56,55.71a3.23,3.23,0,0,1-2.36-.84,3.47,3.47,0,0,1,0-4.61,3.38,3.38,0,0,1,2.41-.84,3.2,3.2,0,0,1,2.35.84,3,3,0,0,1,.85,2.23,3.2,3.2,0,0,1-.88,2.36A3.24,3.24,0,0,1,592.56,55.71Zm.05-4.87a1.23,1.23,0,0,0-1,.45,2,2,0,0,0-.37,1.28c0,1.15.47,1.73,1.4,1.73s1.33-.6,1.33-1.78S593.5,50.84,592.61,50.84Z" fill="#0072c6"/>
      <path d="M600.9,48.1a1.88,1.88,0,0,0-.68-.14c-.6,0-.89.32-.89,1v.64h1.37v1.36h-1.37v4.64h-1.85V50.93h-1V49.57h1v-.75a2.18,2.18,0,0,1,.67-1.65,2.55,2.55,0,0,1,1.82-.63,3.09,3.09,0,0,1,.93.12Z" fill="#0072c6"/>
      <path d="M605.46,55.5a2.78,2.78,0,0,1-1.23.21c-1.31,0-2-.67-2-2V50.93h-1V49.57h1v-1.3l1.85-.52v1.82h1.34v1.36h-1.34v2.43c0,.62.24.94.74.94a1.24,1.24,0,0,0,.6-.17Z" fill="#0072c6"/>
      <path d="M557.51,69.41a6.06,6.06,0,0,1-3,.7,4.41,4.41,0,0,1-3.2-1.12,4.08,4.08,0,0,1-1.17-3.09,4.32,4.32,0,0,1,1.28-3.23,4.66,4.66,0,0,1,3.4-1.25,7,7,0,0,1,2.35.37v1.78a4.63,4.63,0,0,0-2.38-.56,2.57,2.57,0,0,0-1.92.76,3.26,3.26,0,0,0-.07,4,2.34,2.34,0,0,0,1.79.71,2.45,2.45,0,0,0,1.08-.2V66.69h-1.68V65.18h3.57Z" fill="#0072c6"/>
      <path d="M563,65.64a1.61,1.61,0,0,0-.78-.18,1.1,1.1,0,0,0-.94.44,1.88,1.88,0,0,0-.34,1.2V70H559V64h1.86v1.11h0a1.6,1.6,0,0,1,1.58-1.22,1.35,1.35,0,0,1,.46.07Z" fill="#0072c6"/>
      <path d="M568.72,70H567v-.86h0a2,2,0,0,1-1.79,1,1.89,1.89,0,0,1-1.38-.49,1.79,1.79,0,0,1-.5-1.32c0-1.17.69-1.84,2.07-2l1.63-.21c0-.66-.36-1-1.07-1a3.64,3.64,0,0,0-2,.64V64.33a4.8,4.8,0,0,1,1.06-.36,5.7,5.7,0,0,1,1.22-.15,2.26,2.26,0,0,1,2.57,2.56ZM567,67.53v-.4l-1.09.14c-.6.07-.9.35-.9.81a.67.67,0,0,0,.22.52.84.84,0,0,0,.59.2,1.1,1.1,0,0,0,.85-.36A1.29,1.29,0,0,0,567,67.53Z" fill="#0072c6"/>
      <path d="M572.06,69.27h0v3.46h-1.85V64H572v.9h0a2.36,2.36,0,0,1,3.73-.25,3.43,3.43,0,0,1,.64,2.18,3.68,3.68,0,0,1-.75,2.41,2.42,2.42,0,0,1-2,.9A1.87,1.87,0,0,1,572.06,69.27Zm0-2.46v.48a1.52,1.52,0,0,0,.33,1,1,1,0,0,0,.86.4,1.15,1.15,0,0,0,1-.49,2.4,2.4,0,0,0,.35-1.39c0-1-.41-1.58-1.23-1.58a1.15,1.15,0,0,0-.93.43A1.73,1.73,0,0,0,572,66.81Z" fill="#0072c6"/>
      <path d="M583.41,70h-1.85V66.56q0-1.32-1-1.32a1,1,0,0,0-.79.37,1.38,1.38,0,0,0-.31.94V70h-1.85V61.08h1.85v3.78h0a2.09,2.09,0,0,1,1.84-1q2,0,2,2.46Z" fill="#0072c6"/>
      <path d="M595.76,70h-2.07l-.59-1.87h-3L589.52,70h-2.06l3.06-8.4h2.25Zm-3.1-3.32-.9-2.83a3.59,3.59,0,0,1-.14-.75h0a3.76,3.76,0,0,1-.14.73l-.92,2.85Z" fill="#0072c6"/>
      <path d="M598.6,67.07V70h-1.89v-8.4h3c2.11,0,3.17.89,3.17,2.67a2.55,2.55,0,0,1-.91,2.05,3.62,3.62,0,0,1-2.43.78Zm0-4v2.62h.75c1,0,1.51-.44,1.51-1.33s-.5-1.29-1.51-1.29Z" fill="#0072c6"/>
      <path d="M605.82,70h-1.9v-8.4h1.9Z" fill="#0072c6"/>
    </g>
    <g>
      <polygon points="408.71 24.96 401.15 30.41 404.04 39.21 413.38 39.21 416.27 30.41 408.71 24.96" fill="#ebebeb" stroke="#000" stroke-miterlimit="10" stroke-width="0.75"/>
      <g>
        <g>
          <path d="M429.1,38.41H428l-.89-2.36h-3.56l-.84,2.36h-1.1L424.85,30h1Zm-2.3-3.24-1.32-3.59a3.14,3.14,0,0,1-.13-.56h0a3,3,0,0,1-.14.56l-1.3,3.59Z" fill="#1e1e1e"/>
          <path d="M434.17,38.13a3.1,3.1,0,0,1-1.64.42,2.69,2.69,0,0,1-2.07-.84,3,3,0,0,1-.79-2.16,3.33,3.33,0,0,1,.85-2.39,3,3,0,0,1,2.27-.9,3.06,3.06,0,0,1,1.39.3v1a2.45,2.45,0,0,0-1.43-.47,2,2,0,0,0-1.51.66,2.51,2.51,0,0,0-.58,1.73,2.39,2.39,0,0,0,.55,1.67,1.92,1.92,0,0,0,1.48.61,2.45,2.45,0,0,0,1.48-.52Z" fill="#1e1e1e"/>
          <path d="M439.58,38.13a3.14,3.14,0,0,1-1.65.42,2.72,2.72,0,0,1-2.07-.84,3,3,0,0,1-.78-2.16,3.37,3.37,0,0,1,.84-2.39,3,3,0,0,1,2.27-.9,3.13,3.13,0,0,1,1.4.3v1a2.49,2.49,0,0,0-1.43-.47,1.92,1.92,0,0,0-1.51.66,2.52,2.52,0,0,0-.59,1.73,2.39,2.39,0,0,0,.55,1.67,1.94,1.94,0,0,0,1.49.61,2.49,2.49,0,0,0,1.48-.52Z" fill="#1e1e1e"/>
          <path d="M445.73,35.65H441.5a2.22,2.22,0,0,0,.53,1.54,1.85,1.85,0,0,0,1.42.55,3,3,0,0,0,1.87-.67V38a3.53,3.53,0,0,1-2.1.58,2.54,2.54,0,0,1-2-.82,3.33,3.33,0,0,1-.73-2.3,3.26,3.26,0,0,1,.79-2.28,2.55,2.55,0,0,1,2-.89,2.26,2.26,0,0,1,1.83.77,3.15,3.15,0,0,1,.64,2.11Zm-1-.82a2,2,0,0,0-.4-1.29,1.38,1.38,0,0,0-1.1-.47,1.58,1.58,0,0,0-1.16.49,2.21,2.21,0,0,0-.58,1.27Z" fill="#1e1e1e"/>
          <path d="M446.81,38.19v-1a2.87,2.87,0,0,0,1.72.58c.85,0,1.27-.28,1.27-.85a.72.72,0,0,0-.11-.4,1.17,1.17,0,0,0-.29-.3A2,2,0,0,0,449,36l-.53-.21c-.27-.11-.5-.22-.7-.32a2.23,2.23,0,0,1-.51-.37,1.41,1.41,0,0,1-.3-.46,1.57,1.57,0,0,1-.1-.6,1.44,1.44,0,0,1,.19-.75,1.67,1.67,0,0,1,.52-.54,2.21,2.21,0,0,1,.73-.33,3.06,3.06,0,0,1,.85-.12,3.46,3.46,0,0,1,1.4.27v1a2.71,2.71,0,0,0-1.52-.44,1.83,1.83,0,0,0-.49.06,1.16,1.16,0,0,0-.37.18.66.66,0,0,0-.24.26.7.7,0,0,0-.09.35.8.8,0,0,0,.09.39.74.74,0,0,0,.25.28,1.81,1.81,0,0,0,.39.22l.54.22c.26.1.5.21.71.31a2.44,2.44,0,0,1,.54.37,1.38,1.38,0,0,1,.34.46,1.54,1.54,0,0,1,.12.63,1.47,1.47,0,0,1-.19.77,1.74,1.74,0,0,1-.53.55,2.54,2.54,0,0,1-.75.32,3.82,3.82,0,0,1-.9.11A3.34,3.34,0,0,1,446.81,38.19Z" fill="#1e1e1e"/>
          <path d="M451.9,38.19v-1a2.88,2.88,0,0,0,1.73.58c.84,0,1.26-.28,1.26-.85a.65.65,0,0,0-.11-.4,1.17,1.17,0,0,0-.29-.3,2.18,2.18,0,0,0-.43-.23l-.54-.21c-.27-.11-.5-.22-.7-.32a2,2,0,0,1-.5-.37,1.29,1.29,0,0,1-.31-.46,1.57,1.57,0,0,1-.1-.6,1.44,1.44,0,0,1,.19-.75,1.67,1.67,0,0,1,.52-.54,2.21,2.21,0,0,1,.73-.33,3.08,3.08,0,0,1,.86-.12,3.41,3.41,0,0,1,1.39.27v1a2.71,2.71,0,0,0-1.52-.44,1.88,1.88,0,0,0-.49.06,1.28,1.28,0,0,0-.37.18.85.85,0,0,0-.24.26.7.7,0,0,0-.09.35.8.8,0,0,0,.09.39.83.83,0,0,0,.25.28,1.67,1.67,0,0,0,.4.22l.53.22c.26.1.5.21.71.31a2.44,2.44,0,0,1,.54.37,1.41,1.41,0,0,1,.35.46,1.54,1.54,0,0,1,.12.63,1.47,1.47,0,0,1-.2.77,1.82,1.82,0,0,1-.52.55,2.6,2.6,0,0,1-.76.32,3.76,3.76,0,0,1-.9.11A3.37,3.37,0,0,1,451.9,38.19Z" fill="#1e1e1e"/>
          <path d="M463.42,38.35a1.87,1.87,0,0,1-.89.18c-1,0-1.58-.58-1.58-1.75V33.23h-1v-.82h1V30.94l1-.31v1.78h1.51v.82h-1.51v3.38a1.37,1.37,0,0,0,.21.86.81.81,0,0,0,.68.26,1,1,0,0,0,.62-.2Z" fill="#1e1e1e"/>
          <path d="M467.08,38.55a2.77,2.77,0,0,1-2.12-.84,3.14,3.14,0,0,1-.8-2.23,3.27,3.27,0,0,1,.83-2.37,3,3,0,0,1,2.23-.85,2.71,2.71,0,0,1,2.1.83,3.29,3.29,0,0,1,.75,2.29,3.21,3.21,0,0,1-.81,2.3A2.84,2.84,0,0,1,467.08,38.55Zm.07-5.48a1.81,1.81,0,0,0-1.46.63,2.59,2.59,0,0,0-.54,1.74,2.46,2.46,0,0,0,.54,1.68,1.87,1.87,0,0,0,1.46.62,1.73,1.73,0,0,0,1.43-.61,2.57,2.57,0,0,0,.51-1.71,2.65,2.65,0,0,0-.51-1.74A1.76,1.76,0,0,0,467.15,33.07Z" fill="#1e1e1e"/>
          <path d="M476.53,38.41h-1.35l-2.64-2.89h0v2.89h-1V29.52h1v5.63h0l2.51-2.74h1.26l-2.78,2.89Z" fill="#1e1e1e"/>
          <path d="M482.05,35.65h-4.24a2.27,2.27,0,0,0,.54,1.54,1.85,1.85,0,0,0,1.42.55,3,3,0,0,0,1.86-.67V38a3.48,3.48,0,0,1-2.09.58,2.56,2.56,0,0,1-2-.82,3.37,3.37,0,0,1-.72-2.3,3.26,3.26,0,0,1,.79-2.28,2.55,2.55,0,0,1,2-.89,2.24,2.24,0,0,1,1.82.77,3.15,3.15,0,0,1,.65,2.11Zm-1-.82a1.88,1.88,0,0,0-.4-1.29,1.36,1.36,0,0,0-1.1-.47,1.57,1.57,0,0,0-1.15.49,2.22,2.22,0,0,0-.59,1.27Z" fill="#1e1e1e"/>
          <path d="M488.48,38.41h-1V35c0-1.27-.46-1.91-1.39-1.91a1.52,1.52,0,0,0-1.2.55,2,2,0,0,0-.47,1.36v3.43h-1v-6h1v1h0a2.16,2.16,0,0,1,2-1.14,1.85,1.85,0,0,1,1.5.64,2.82,2.82,0,0,1,.52,1.84Z" fill="#1e1e1e"/>
        </g>
        <g>
          <path d="M428.91,24.2h-1V20.37h-4.35V24.2h-1V15.8h1v3.68h4.35V15.8h1Z" fill="#1e1e1e"/>
          <path d="M436,16.69h-2.43V24.2h-1V16.69h-2.42V15.8H436Z" fill="#1e1e1e"/>
          <path d="M442.56,16.69h-2.43V24.2h-1V16.69h-2.42V15.8h5.83Z" fill="#1e1e1e"/>
          <path d="M444.75,21V24.2h-1V15.8h2.31a3.08,3.08,0,0,1,2.09.65,2.34,2.34,0,0,1,.74,1.86,2.54,2.54,0,0,1-.82,2,3.13,3.13,0,0,1-2.22.76Zm0-4.33v3.44h1a2.28,2.28,0,0,0,1.55-.46,1.65,1.65,0,0,0,.54-1.32c0-1.11-.66-1.66-2-1.66Z" fill="#1e1e1e"/>
          <path d="M460.05,23.63a5.67,5.67,0,0,1-2.81.71,3.86,3.86,0,0,1-2.91-1.16,4.26,4.26,0,0,1-1.11-3.07,4.37,4.37,0,0,1,1.23-3.2,4.2,4.2,0,0,1,3.13-1.25,5.42,5.42,0,0,1,2.3.44v1.09a4.4,4.4,0,0,0-2.41-.64,3,3,0,0,0-2.32,1,3.57,3.57,0,0,0-.9,2.52,3.53,3.53,0,0,0,.84,2.5,2.94,2.94,0,0,0,2.27.92,3.54,3.54,0,0,0,1.71-.4V20.71h-1.84v-.89h2.82Z" fill="#1e1e1e"/>
          <path d="M466.39,24.2h-4.45V15.8h4.27v.89h-3.28v2.79h3v.89h-3v2.94h3.46Z" fill="#1e1e1e"/>
          <path d="M473.05,16.69h-2.42V24.2h-1V16.69h-2.42V15.8h5.83Z" fill="#1e1e1e"/>
          <path d="M483.42,21.09h-2.36v2.37h-.78V21.09h-2.36v-.78h2.36V18h.78v2.36h2.36Z" fill="#1e1e1e"/>
        </g>
      </g>
    </g>
    <g>
      <path d="M161.36,38.4h-1.09l-.9-2.35h-3.56L155,38.4h-1.09L157.1,30h1Zm-2.31-3.24-1.32-3.58a3.36,3.36,0,0,1-.12-.56h0a3.13,3.13,0,0,1-.13.56l-1.31,3.58Z" fill="#1e1e1e"/>
      <path d="M166.42,38.13a3.08,3.08,0,0,1-1.64.42,2.72,2.72,0,0,1-2.07-.84,3.06,3.06,0,0,1-.79-2.16,3.37,3.37,0,0,1,.85-2.39,3,3,0,0,1,2.27-.9,3.13,3.13,0,0,1,1.4.3v1a2.49,2.49,0,0,0-1.43-.47,1.92,1.92,0,0,0-1.51.66,2.47,2.47,0,0,0-.59,1.73,2.39,2.39,0,0,0,.55,1.67,1.94,1.94,0,0,0,1.49.61,2.44,2.44,0,0,0,1.47-.52Z" fill="#1e1e1e"/>
      <path d="M172.89,41.16h-1V37.37h0a2.17,2.17,0,0,1-2,1.18,2.26,2.26,0,0,1-1.82-.81,3.32,3.32,0,0,1-.68-2.19,3.58,3.58,0,0,1,.75-2.39,2.48,2.48,0,0,1,2-.9,1.9,1.9,0,0,1,1.79,1h0V32.4h1Zm-1-5.46v-.87a1.76,1.76,0,0,0-.48-1.25,1.76,1.76,0,0,0-2.6.13,2.85,2.85,0,0,0-.51,1.81,2.51,2.51,0,0,0,.49,1.63,1.55,1.55,0,0,0,1.25.59,1.72,1.72,0,0,0,1.35-.58A2.17,2.17,0,0,0,171.93,35.7Z" fill="#1e1e1e"/>
      <path d="M179.61,38.4h-1v-.94h0a2,2,0,0,1-1.85,1.09c-1.43,0-2.14-.86-2.14-2.56V32.4h1v3.44c0,1.26.49,1.9,1.46,1.9a1.47,1.47,0,0,0,1.15-.52,2,2,0,0,0,.46-1.36V32.4h1Z" fill="#1e1e1e"/>
      <path d="M181.92,30.88a.64.64,0,0,1-.44-.17.65.65,0,0,1,0-.9.6.6,0,0,1,.44-.18.61.61,0,0,1,.45.18.62.62,0,0,1,0,.89A.61.61,0,0,1,181.92,30.88Zm.47,7.52h-1v-6h1Z" fill="#1e1e1e"/>
      <path d="M187.35,33.38a1.18,1.18,0,0,0-.73-.2,1.25,1.25,0,0,0-1,.58,2.75,2.75,0,0,0-.41,1.59v3h-1v-6h1v1.24h0a2.17,2.17,0,0,1,.63-1,1.46,1.46,0,0,1,.94-.35,1.71,1.71,0,0,1,.58.08Z" fill="#1e1e1e"/>
      <path d="M193.23,35.65H189a2.27,2.27,0,0,0,.54,1.54,1.84,1.84,0,0,0,1.42.55,3,3,0,0,0,1.86-.67V38a3.5,3.5,0,0,1-2.09.58,2.56,2.56,0,0,1-2-.82,3.37,3.37,0,0,1-.73-2.3,3.25,3.25,0,0,1,.8-2.28,2.54,2.54,0,0,1,2-.89,2.26,2.26,0,0,1,1.82.77,3.15,3.15,0,0,1,.65,2.11Zm-1-.82a1.93,1.93,0,0,0-.4-1.29,1.36,1.36,0,0,0-1.1-.47,1.52,1.52,0,0,0-1.15.49,2.22,2.22,0,0,0-.59,1.27Z" fill="#1e1e1e"/>
      <path d="M200.75,38.35a2,2,0,0,1-.9.18c-1,0-1.57-.58-1.57-1.75V33.23h-1V32.4h1V30.94l1-.31V32.4h1.51v.83h-1.51v3.38a1.45,1.45,0,0,0,.2.86.84.84,0,0,0,.68.26,1,1,0,0,0,.63-.2Z" fill="#1e1e1e"/>
      <path d="M204.41,38.55a2.73,2.73,0,0,1-2.12-.85,3.1,3.1,0,0,1-.8-2.22,3.27,3.27,0,0,1,.83-2.37,3,3,0,0,1,2.23-.85,2.69,2.69,0,0,1,2.09.83,3.23,3.23,0,0,1,.76,2.29,3.23,3.23,0,0,1-.81,2.3A2.85,2.85,0,0,1,204.41,38.55Zm.07-5.48a1.84,1.84,0,0,0-1.47.63,2.64,2.64,0,0,0-.53,1.74,2.46,2.46,0,0,0,.54,1.68,1.85,1.85,0,0,0,1.46.62,1.73,1.73,0,0,0,1.43-.61,2.57,2.57,0,0,0,.5-1.71,2.65,2.65,0,0,0-.5-1.74A1.76,1.76,0,0,0,204.48,33.07Z" fill="#1e1e1e"/>
      <path d="M213.86,38.4h-1.35l-2.65-2.88h0V38.4h-1V29.52h1v5.63h0l2.52-2.75h1.26l-2.78,2.9Z" fill="#1e1e1e"/>
      <path d="M219.38,35.65h-4.24a2.27,2.27,0,0,0,.54,1.54,1.84,1.84,0,0,0,1.42.55,3,3,0,0,0,1.86-.67V38a3.5,3.5,0,0,1-2.09.58,2.56,2.56,0,0,1-2-.82,3.37,3.37,0,0,1-.73-2.3,3.25,3.25,0,0,1,.8-2.28,2.54,2.54,0,0,1,2-.89,2.24,2.24,0,0,1,1.82.77,3.15,3.15,0,0,1,.65,2.11Zm-1-.82a1.93,1.93,0,0,0-.4-1.29,1.36,1.36,0,0,0-1.1-.47,1.52,1.52,0,0,0-1.15.49,2.22,2.22,0,0,0-.59,1.27Z" fill="#1e1e1e"/>
      <path d="M225.81,38.4h-1V35c0-1.27-.47-1.91-1.39-1.91a1.52,1.52,0,0,0-1.2.54,2.05,2.05,0,0,0-.47,1.37V38.4h-1v-6h1v1h0a2.17,2.17,0,0,1,2-1.14,1.86,1.86,0,0,1,1.51.64,2.82,2.82,0,0,1,.52,1.84Z" fill="#1e1e1e"/>
    </g>
    <g>
      <path d="M181.36,73.51h-1.09l-.9-2.36h-3.56L175,73.51h-1.09l3.22-8.4h1Zm-2.31-3.24-1.32-3.58a3.91,3.91,0,0,1-.12-.56h0a3.62,3.62,0,0,1-.13.56l-1.31,3.58Z" fill="#1e1e1e"/>
      <path d="M186.42,73.23a3.08,3.08,0,0,1-1.64.42,2.72,2.72,0,0,1-2.07-.84,3,3,0,0,1-.79-2.16,3.35,3.35,0,0,1,.85-2.38,3,3,0,0,1,2.27-.9,3.27,3.27,0,0,1,1.4.29v1a2.42,2.42,0,0,0-1.43-.47,1.92,1.92,0,0,0-1.51.66,2.46,2.46,0,0,0-.59,1.73,2.36,2.36,0,0,0,.55,1.66,1.91,1.91,0,0,0,1.49.61,2.38,2.38,0,0,0,1.47-.52Z" fill="#1e1e1e"/>
      <path d="M191.83,73.23a3.1,3.1,0,0,1-1.64.42,2.69,2.69,0,0,1-2.07-.84,3,3,0,0,1-.79-2.16,3.3,3.3,0,0,1,.85-2.38,3,3,0,0,1,2.27-.9,3.23,3.23,0,0,1,1.39.29v1a2.38,2.38,0,0,0-1.43-.47,1.93,1.93,0,0,0-1.51.66,2.5,2.5,0,0,0-.59,1.73,2.36,2.36,0,0,0,.56,1.66,1.89,1.89,0,0,0,1.48.61,2.39,2.39,0,0,0,1.48-.52Z" fill="#1e1e1e"/>
      <path d="M198,70.75h-4.23a2.21,2.21,0,0,0,.54,1.55,1.85,1.85,0,0,0,1.42.54,2.93,2.93,0,0,0,1.86-.67v.91a3.52,3.52,0,0,1-2.09.57,2.52,2.52,0,0,1-2-.82,3.81,3.81,0,0,1,.07-4.58,2.53,2.53,0,0,1,2-.88,2.25,2.25,0,0,1,1.82.76,3.18,3.18,0,0,1,.64,2.12Zm-1-.81a2,2,0,0,0-.4-1.3,1.37,1.37,0,0,0-1.1-.46,1.55,1.55,0,0,0-1.15.48,2.19,2.19,0,0,0-.59,1.28Z" fill="#1e1e1e"/>
      <path d="M199.06,73.29v-1a2.82,2.82,0,0,0,1.73.58q1.26,0,1.26-.84a.68.68,0,0,0-.11-.41,1.17,1.17,0,0,0-.29-.3,2.86,2.86,0,0,0-.43-.23l-.54-.21c-.26-.11-.5-.21-.7-.32a2.22,2.22,0,0,1-.5-.36,1.38,1.38,0,0,1-.31-.46,1.66,1.66,0,0,1-.1-.61,1.38,1.38,0,0,1,.19-.74,1.7,1.7,0,0,1,.52-.55,2.21,2.21,0,0,1,.73-.33,3.49,3.49,0,0,1,.86-.11,3.41,3.41,0,0,1,1.39.27v1a2.7,2.7,0,0,0-1.52-.43,1.88,1.88,0,0,0-.49.06,1.26,1.26,0,0,0-.37.17.88.88,0,0,0-.24.27.67.67,0,0,0-.09.34.75.75,0,0,0,.09.39.83.83,0,0,0,.25.28,1.68,1.68,0,0,0,.4.23l.53.21c.27.11.5.21.72.32a2.45,2.45,0,0,1,.53.36A1.37,1.37,0,0,1,203,71.9a1.51,1.51,0,0,1-.2.78,1.58,1.58,0,0,1-.52.54,2.26,2.26,0,0,1-.76.32,3.7,3.7,0,0,1-.9.11A3.37,3.37,0,0,1,199.06,73.29Z" fill="#1e1e1e"/>
      <path d="M204.15,73.29v-1a2.82,2.82,0,0,0,1.73.58q1.26,0,1.26-.84a.76.76,0,0,0-.1-.41,1.22,1.22,0,0,0-.3-.3,2.44,2.44,0,0,0-.43-.23l-.54-.21c-.26-.11-.5-.21-.7-.32a2.22,2.22,0,0,1-.5-.36,1.38,1.38,0,0,1-.31-.46,1.9,1.9,0,0,1-.1-.61,1.39,1.39,0,0,1,.2-.74,1.67,1.67,0,0,1,.51-.55,2.26,2.26,0,0,1,.74-.33,3.56,3.56,0,0,1,2.24.16v1a2.7,2.7,0,0,0-1.52-.43,1.88,1.88,0,0,0-.49.06,1.4,1.4,0,0,0-.37.17.88.88,0,0,0-.24.27.66.66,0,0,0-.08.34.75.75,0,0,0,.08.39.83.83,0,0,0,.25.28,1.68,1.68,0,0,0,.4.23l.53.21c.27.11.51.21.72.32a2.82,2.82,0,0,1,.54.36,1.57,1.57,0,0,1,.34.47,1.46,1.46,0,0,1,.12.62,1.51,1.51,0,0,1-.2.78,1.58,1.58,0,0,1-.52.54,2.26,2.26,0,0,1-.76.32,3.68,3.68,0,0,1-.89.11A3.39,3.39,0,0,1,204.15,73.29Z" fill="#1e1e1e"/>
      <path d="M215.68,73.45a1.82,1.82,0,0,1-.9.19c-1.05,0-1.58-.59-1.58-1.76V68.33h-1v-.82h1V66l1-.31v1.78h1.52v.82h-1.52v3.38a1.37,1.37,0,0,0,.21.86.83.83,0,0,0,.68.26,1.05,1.05,0,0,0,.63-.2Z" fill="#1e1e1e"/>
      <path d="M219.33,73.65a2.79,2.79,0,0,1-2.12-.84,3.1,3.1,0,0,1-.79-2.23,3.23,3.23,0,0,1,.82-2.36,3,3,0,0,1,2.24-.85,2.68,2.68,0,0,1,2.09.82,3.32,3.32,0,0,1,.75,2.3,3.25,3.25,0,0,1-.81,2.3A2.85,2.85,0,0,1,219.33,73.65Zm.08-5.47a1.84,1.84,0,0,0-1.47.63,2.58,2.58,0,0,0-.54,1.73,2.42,2.42,0,0,0,.55,1.69,1.85,1.85,0,0,0,1.46.61,1.77,1.77,0,0,0,1.43-.6,3.23,3.23,0,0,0,0-3.45A1.74,1.74,0,0,0,219.41,68.18Z" fill="#1e1e1e"/>
      <path d="M228.78,73.51h-1.34l-2.65-2.88h0v2.88h-1V64.63h1v5.63h0l2.52-2.75h1.26l-2.79,2.89Z" fill="#1e1e1e"/>
      <path d="M234.3,70.75h-4.23a2.25,2.25,0,0,0,.53,1.55,1.88,1.88,0,0,0,1.42.54,2.94,2.94,0,0,0,1.87-.67v.91a3.53,3.53,0,0,1-2.1.57,2.51,2.51,0,0,1-2-.82,3.83,3.83,0,0,1,.06-4.58,2.54,2.54,0,0,1,2-.88,2.26,2.26,0,0,1,1.83.76,3.18,3.18,0,0,1,.64,2.12Zm-1-.81a2,2,0,0,0-.4-1.3,1.37,1.37,0,0,0-1.1-.46,1.57,1.57,0,0,0-1.16.48,2.24,2.24,0,0,0-.58,1.28Z" fill="#1e1e1e"/>
      <path d="M240.74,73.51h-1V70.09c0-1.28-.46-1.91-1.39-1.91a1.5,1.5,0,0,0-1.19.54,2,2,0,0,0-.47,1.37v3.42h-1v-6h1v1h0a2.16,2.16,0,0,1,2-1.14,1.83,1.83,0,0,1,1.5.63,2.84,2.84,0,0,1,.53,1.84Z" fill="#1e1e1e"/>
    </g>
    <g>
      <path d="M408.13,73.51h-1V69.68H402.8v3.83h-1v-8.4h1v3.68h4.34V65.11h1Z" fill="#1e1e1e"/>
      <path d="M415.17,66h-2.42v7.51h-1V66h-2.42v-.89h5.83Z" fill="#1e1e1e"/>
      <path d="M421.77,66h-2.42v7.51h-1V66h-2.42v-.89h5.83Z" fill="#1e1e1e"/>
      <path d="M424,70.33v3.18h-1v-8.4h2.31a3.07,3.07,0,0,1,2.08.65,2.34,2.34,0,0,1,.75,1.85,2.55,2.55,0,0,1-.83,2,3.13,3.13,0,0,1-2.22.76ZM424,66v3.44h1a2.32,2.32,0,0,0,1.56-.46,1.64,1.64,0,0,0,.53-1.32c0-1.11-.65-1.66-2-1.66Z" fill="#1e1e1e"/>
      <path d="M436,68.48a1.18,1.18,0,0,0-.73-.19,1.23,1.23,0,0,0-1,.58,2.72,2.72,0,0,0-.41,1.58v3.06h-1v-6h1v1.24h0a2.07,2.07,0,0,1,.63-1,1.4,1.4,0,0,1,.94-.36,1.5,1.5,0,0,1,.58.09Z" fill="#1e1e1e"/>
      <path d="M441.86,70.75h-4.23a2.21,2.21,0,0,0,.54,1.55,1.85,1.85,0,0,0,1.41.54,2.94,2.94,0,0,0,1.87-.67v.91a3.52,3.52,0,0,1-2.09.57,2.52,2.52,0,0,1-2-.82,3.81,3.81,0,0,1,.07-4.58,2.53,2.53,0,0,1,2-.88,2.25,2.25,0,0,1,1.82.76,3.18,3.18,0,0,1,.64,2.12Zm-1-.81a2,2,0,0,0-.4-1.3,1.37,1.37,0,0,0-1.1-.46,1.55,1.55,0,0,0-1.15.48,2.19,2.19,0,0,0-.59,1.28Z" fill="#1e1e1e"/>
      <path d="M442.94,73.29v-1a2.82,2.82,0,0,0,1.73.58q1.26,0,1.26-.84a.68.68,0,0,0-.11-.41,1.17,1.17,0,0,0-.29-.3,2.86,2.86,0,0,0-.43-.23l-.54-.21c-.26-.11-.5-.21-.7-.32a2.22,2.22,0,0,1-.5-.36,1.38,1.38,0,0,1-.31-.46,1.66,1.66,0,0,1-.1-.61,1.38,1.38,0,0,1,.19-.74,1.7,1.7,0,0,1,.52-.55,2.21,2.21,0,0,1,.73-.33,3.49,3.49,0,0,1,.86-.11,3.41,3.41,0,0,1,1.39.27v1a2.7,2.7,0,0,0-1.52-.43,1.88,1.88,0,0,0-.49.06,1.26,1.26,0,0,0-.37.17.88.88,0,0,0-.24.27.67.67,0,0,0-.09.34.75.75,0,0,0,.09.39.83.83,0,0,0,.25.28,1.68,1.68,0,0,0,.4.23l.53.21c.27.11.5.21.71.32a2.3,2.3,0,0,1,.54.36,1.37,1.37,0,0,1,.47,1.09,1.51,1.51,0,0,1-.2.78,1.68,1.68,0,0,1-.52.54,2.26,2.26,0,0,1-.76.32,3.7,3.7,0,0,1-.9.11A3.37,3.37,0,0,1,442.94,73.29Z" fill="#1e1e1e"/>
      <path d="M449.27,72.64h0v3.63h-1V67.51h1v1h0a2.27,2.27,0,0,1,2.07-1.19,2.2,2.2,0,0,1,1.81.8,3.31,3.31,0,0,1,.65,2.16,3.69,3.69,0,0,1-.73,2.41,2.42,2.42,0,0,1-2,.91A2,2,0,0,1,449.27,72.64Zm0-2.42v.84a1.77,1.77,0,0,0,.48,1.26,1.59,1.59,0,0,0,1.23.52,1.6,1.6,0,0,0,1.37-.67,3,3,0,0,0,.49-1.85,2.39,2.39,0,0,0-.46-1.57,1.54,1.54,0,0,0-1.26-.57,1.68,1.68,0,0,0-1.34.58A2.15,2.15,0,0,0,449.25,70.22Z" fill="#1e1e1e"/>
      <path d="M457.85,73.65a2.79,2.79,0,0,1-2.13-.84,3.1,3.1,0,0,1-.79-2.23,3.23,3.23,0,0,1,.83-2.36,3,3,0,0,1,2.23-.85,2.68,2.68,0,0,1,2.09.82,3.32,3.32,0,0,1,.76,2.3,3.21,3.21,0,0,1-.82,2.3A2.85,2.85,0,0,1,457.85,73.65Zm.07-5.47a1.84,1.84,0,0,0-1.47.63,2.58,2.58,0,0,0-.54,1.73,2.47,2.47,0,0,0,.55,1.69,1.85,1.85,0,0,0,1.46.61,1.75,1.75,0,0,0,1.43-.6,3.23,3.23,0,0,0,0-3.45A1.73,1.73,0,0,0,457.92,68.18Z" fill="#1e1e1e"/>
      <path d="M467.3,73.51h-1V70.09c0-1.28-.47-1.91-1.4-1.91a1.5,1.5,0,0,0-1.19.54,2,2,0,0,0-.47,1.37v3.42h-1v-6h1v1h0a2.16,2.16,0,0,1,2-1.14,1.85,1.85,0,0,1,1.51.63,2.9,2.9,0,0,1,.52,1.84Z" fill="#1e1e1e"/>
      <path d="M468.72,73.29v-1a2.82,2.82,0,0,0,1.73.58q1.26,0,1.26-.84a.76.76,0,0,0-.1-.41,1.22,1.22,0,0,0-.3-.3,2.86,2.86,0,0,0-.43-.23l-.54-.21c-.26-.11-.5-.21-.7-.32a2.22,2.22,0,0,1-.5-.36,1.38,1.38,0,0,1-.31-.46,1.9,1.9,0,0,1-.1-.61,1.48,1.48,0,0,1,.19-.74,1.82,1.82,0,0,1,.52-.55,2.26,2.26,0,0,1,.74-.33,3.56,3.56,0,0,1,2.24.16v1a2.7,2.7,0,0,0-1.52-.43,1.88,1.88,0,0,0-.49.06,1.26,1.26,0,0,0-.37.17.88.88,0,0,0-.24.27.66.66,0,0,0-.08.34.75.75,0,0,0,.08.39.83.83,0,0,0,.25.28,1.68,1.68,0,0,0,.4.23l.53.21c.27.11.51.21.72.32a2.82,2.82,0,0,1,.54.36,1.57,1.57,0,0,1,.34.47,1.46,1.46,0,0,1,.12.62,1.51,1.51,0,0,1-.2.78,1.58,1.58,0,0,1-.52.54,2.26,2.26,0,0,1-.76.32,3.68,3.68,0,0,1-.89.11A3.39,3.39,0,0,1,468.72,73.29Z" fill="#1e1e1e"/>
      <path d="M479,70.75h-4.23a2.25,2.25,0,0,0,.53,1.55,1.88,1.88,0,0,0,1.42.54,2.94,2.94,0,0,0,1.87-.67v.91a3.53,3.53,0,0,1-2.1.57,2.51,2.51,0,0,1-2-.82,3.83,3.83,0,0,1,.06-4.58,2.54,2.54,0,0,1,2-.88,2.26,2.26,0,0,1,1.83.76,3.18,3.18,0,0,1,.64,2.12Zm-1-.81a2,2,0,0,0-.4-1.3,1.37,1.37,0,0,0-1.1-.46,1.57,1.57,0,0,0-1.16.48,2.24,2.24,0,0,0-.58,1.28Z" fill="#1e1e1e"/>
    </g>
    <g>
      <path d="M301.65,5.46l-2.22,8.41h-2.1l-1.4-5.39a4.54,4.54,0,0,1-.13-1h0a5.8,5.8,0,0,1-.16,1l-1.43,5.39H292L289.8,5.46h2.07l1.18,5.6a6.4,6.4,0,0,1,.11,1h0a4.12,4.12,0,0,1,.17-1l1.52-5.58h2l1.37,5.65a5.34,5.34,0,0,1,.14.9h0a6.24,6.24,0,0,1,.13-.94l1.16-5.61Z" fill="#1e1e1e"/>
      <path d="M303.51,6.92a1.12,1.12,0,0,1-.77-.28.9.9,0,0,1-.3-.68.85.85,0,0,1,.3-.68,1.23,1.23,0,0,1,1.54,0,.84.84,0,0,1,.29.68.88.88,0,0,1-.29.69A1.11,1.11,0,0,1,303.51,6.92Zm.91,7h-1.85v-6h1.85Z" fill="#1e1e1e"/>
      <path d="M311.75,13.87h-1.84V10.53c0-.93-.33-1.39-1-1.39a1,1,0,0,0-.79.37,1.38,1.38,0,0,0-.31.93v3.43H306v-6h1.85v1h0a2.12,2.12,0,0,1,1.93-1.1c1.33,0,2,.82,2,2.47Z" fill="#1e1e1e"/>
      <path d="M319.12,13.87h-1.85V13h0a2.09,2.09,0,0,1-1.86,1,2.26,2.26,0,0,1-1.81-.79,3.28,3.28,0,0,1-.69-2.22,3.52,3.52,0,0,1,.76-2.38,2.45,2.45,0,0,1,2-.9,1.7,1.7,0,0,1,1.62.83h0V5h1.85ZM317.3,11V10.5a1.43,1.43,0,0,0-.34-1,1.13,1.13,0,0,0-.88-.38,1.12,1.12,0,0,0-1,.48,2.26,2.26,0,0,0-.35,1.33,1.91,1.91,0,0,0,.34,1.22,1.19,1.19,0,0,0,1.84,0A1.85,1.85,0,0,0,317.3,11Z" fill="#1e1e1e"/>
      <path d="M323.52,14a3.2,3.2,0,0,1-2.35-.84,3,3,0,0,1-.86-2.28,3,3,0,0,1,.89-2.33,3.35,3.35,0,0,1,2.41-.84,3.19,3.19,0,0,1,2.34.84,3,3,0,0,1,.85,2.22,3.17,3.17,0,0,1-.88,2.37A3.28,3.28,0,0,1,323.52,14Zm.05-4.87a1.23,1.23,0,0,0-1,.45,2,2,0,0,0-.36,1.28c0,1.15.46,1.72,1.39,1.72s1.33-.59,1.33-1.77S324.47,9.14,323.57,9.14Z" fill="#1e1e1e"/>
      <path d="M336.56,7.87l-1.73,6h-1.94L332,10.35a4.36,4.36,0,0,1-.1-.77h0a4.91,4.91,0,0,1-.12.75l-.95,3.54h-1.92l-1.69-6h1.88l.83,3.91a5,5,0,0,1,.09.67h0a3.56,3.56,0,0,1,.11-.69l1-3.89h1.76l.93,3.91c0,.1,0,.32.08.68h0a5.31,5.31,0,0,1,.1-.68l.78-3.91Z" fill="#1e1e1e"/>
      <path d="M337.05,13.71v-1.5a4.06,4.06,0,0,0,.91.41,3,3,0,0,0,.86.13,1.78,1.78,0,0,0,.77-.13.44.44,0,0,0,.29-.41.35.35,0,0,0-.13-.29,1.33,1.33,0,0,0-.33-.21l-.44-.16-.47-.16a4.6,4.6,0,0,1-.63-.29,1.62,1.62,0,0,1-.45-.36,1.18,1.18,0,0,1-.28-.47,1.76,1.76,0,0,1-.1-.64,1.61,1.61,0,0,1,.22-.87,1.72,1.72,0,0,1,.58-.59,2.6,2.6,0,0,1,.84-.34,4.53,4.53,0,0,1,1-.11,5.52,5.52,0,0,1,.81.06,5.3,5.3,0,0,1,.81.18V9.39a2.76,2.76,0,0,0-.75-.31,3.11,3.11,0,0,0-.79-.1,1.79,1.79,0,0,0-.34,0,.91.91,0,0,0-.29.1.58.58,0,0,0-.19.15.36.36,0,0,0-.07.22.39.39,0,0,0,.1.28,1.21,1.21,0,0,0,.28.21l.38.15.41.14a4.66,4.66,0,0,1,.67.28,1.94,1.94,0,0,1,.51.36,1.37,1.37,0,0,1,.33.48,1.61,1.61,0,0,1,.11.65,1.64,1.64,0,0,1-.23.91,1.81,1.81,0,0,1-.61.62,2.7,2.7,0,0,1-.89.34,4.42,4.42,0,0,1-1,.11A5.4,5.4,0,0,1,337.05,13.71Z" fill="#1e1e1e"/>
      <path d="M279.84,28.27V19.86h3q4.49,0,4.48,4.1a4.14,4.14,0,0,1-1.22,3.13,4.49,4.49,0,0,1-3.26,1.18Zm1.89-6.86v5.32h.94A2.51,2.51,0,0,0,284.6,26a2.82,2.82,0,0,0,.7-2,2.52,2.52,0,0,0-.7-1.89,2.63,2.63,0,0,0-2-.68Z" fill="#1e1e1e"/>
      <path d="M293.89,25.79H290c.06.88.61,1.31,1.64,1.31a3.25,3.25,0,0,0,1.75-.47V28a4.7,4.7,0,0,1-2.17.44,2.79,2.79,0,0,1-3.06-3.05A3.22,3.22,0,0,1,289,23a2.9,2.9,0,0,1,2.13-.87,2.6,2.6,0,0,1,2,.78,3,3,0,0,1,.72,2.11Zm-1.71-1.13q0-1.29-1.05-1.29a1,1,0,0,0-.77.37,1.64,1.64,0,0,0-.39.92Z" fill="#1e1e1e"/>
      <path d="M294.75,28.11v-1.5a4.06,4.06,0,0,0,.91.41,3,3,0,0,0,.86.13,1.81,1.81,0,0,0,.77-.13.44.44,0,0,0,.29-.41.35.35,0,0,0-.13-.29,1.33,1.33,0,0,0-.33-.21l-.44-.16a5.76,5.76,0,0,1-1.1-.45,1.62,1.62,0,0,1-.45-.36,1.33,1.33,0,0,1-.29-.47,2,2,0,0,1-.09-.64,1.63,1.63,0,0,1,.22-.87,1.72,1.72,0,0,1,.58-.59,2.6,2.6,0,0,1,.84-.34,4.53,4.53,0,0,1,1-.11,5.52,5.52,0,0,1,.81.06,5.58,5.58,0,0,1,.81.18v1.43a2.9,2.9,0,0,0-.75-.31,3.11,3.11,0,0,0-.79-.1,1.79,1.79,0,0,0-.34,0,.83.83,0,0,0-.29.1.58.58,0,0,0-.19.15.36.36,0,0,0-.07.22.43.43,0,0,0,.1.29,1.26,1.26,0,0,0,.28.2l.38.15.41.14a4.66,4.66,0,0,1,.67.28,1.94,1.94,0,0,1,.51.36,1.37,1.37,0,0,1,.33.48,1.61,1.61,0,0,1,.11.65,1.64,1.64,0,0,1-.23.91,1.81,1.81,0,0,1-.61.62,2.7,2.7,0,0,1-.89.34,4.42,4.42,0,0,1-1,.11A5.4,5.4,0,0,1,294.75,28.11Z" fill="#1e1e1e"/>
      <path d="M306.49,28.27h-2.22l-1.92-3h0v3h-1.85V19.38h1.85V25h0l1.79-2.77h2.2l-2.15,2.81Z" fill="#1e1e1e"/>
      <path d="M311.08,28.2a2.78,2.78,0,0,1-1.23.21c-1.31,0-2-.67-2-2V23.63h-1V22.27h1V21l1.84-.53v1.83h1.35v1.36h-1.35v2.43c0,.62.25.94.75.94a1.31,1.31,0,0,0,.6-.17Z" fill="#1e1e1e"/>
      <path d="M315,28.41a3.23,3.23,0,0,1-2.36-.84,3,3,0,0,1-.86-2.28,3.07,3.07,0,0,1,.89-2.33,3.37,3.37,0,0,1,2.41-.84,3.19,3.19,0,0,1,2.34.84,3,3,0,0,1,.85,2.22,3.17,3.17,0,0,1-.88,2.37A3.27,3.27,0,0,1,315,28.41Zm0-4.87a1.24,1.24,0,0,0-1,.45,2,2,0,0,0-.36,1.28c0,1.15.46,1.73,1.39,1.73s1.33-.6,1.33-1.78S315.92,23.54,315,23.54Z" fill="#1e1e1e"/>
      <path d="M321.32,27.57h0V31h-1.86V22.27h1.86v.9h0a2.36,2.36,0,0,1,3.73-.25,3.43,3.43,0,0,1,.63,2.18,3.63,3.63,0,0,1-.74,2.4,2.4,2.4,0,0,1-2,.91A1.87,1.87,0,0,1,321.32,27.57Zm-.05-2.46v.48a1.57,1.57,0,0,0,.32,1,1.09,1.09,0,0,0,.87.4,1.15,1.15,0,0,0,1-.49,2.4,2.4,0,0,0,.35-1.39c0-1.05-.41-1.58-1.23-1.58a1.15,1.15,0,0,0-.93.43A1.73,1.73,0,0,0,321.27,25.11Z" fill="#1e1e1e"/>
      <path d="M337.77,28.27H335.7l-.59-1.87h-3l-.59,1.87h-2l3-8.41h2.25Zm-3.1-3.33-.9-2.82a3.57,3.57,0,0,1-.14-.76h-.05a3.86,3.86,0,0,1-.14.74l-.92,2.84Z" fill="#1e1e1e"/>
      <path d="M340.51,27.57h0V31h-1.86V22.27h1.86v.9h0a2.36,2.36,0,0,1,3.73-.25,3.43,3.43,0,0,1,.63,2.18,3.63,3.63,0,0,1-.74,2.4,2.4,2.4,0,0,1-2,.91A1.87,1.87,0,0,1,340.51,27.57Zm-.05-2.46v.48a1.57,1.57,0,0,0,.32,1,1.09,1.09,0,0,0,.87.4,1.16,1.16,0,0,0,1-.49,2.4,2.4,0,0,0,.35-1.39c0-1.05-.41-1.58-1.23-1.58a1.15,1.15,0,0,0-.93.43A1.73,1.73,0,0,0,340.46,25.11Z" fill="#1e1e1e"/>
      <path d="M348,27.57h0V31H346.1V22.27H348v.9h0a2.36,2.36,0,0,1,3.73-.25,3.37,3.37,0,0,1,.64,2.18,3.68,3.68,0,0,1-.74,2.4,2.42,2.42,0,0,1-2,.91A1.87,1.87,0,0,1,348,27.57Zm-.05-2.46v.48a1.52,1.52,0,0,0,.33,1,1.07,1.07,0,0,0,.86.4,1.15,1.15,0,0,0,1-.49,2.4,2.4,0,0,0,.35-1.39c0-1.05-.41-1.58-1.23-1.58a1.15,1.15,0,0,0-.93.43A1.73,1.73,0,0,0,347.92,25.11Z" fill="#1e1e1e"/>
    </g>
    <g>
      <path d="M36.23,50.35H34.36v-5c0-.55,0-1.15.07-1.8h0a7.42,7.42,0,0,1-.26,1.11l-2,5.71H30.6l-2-5.65c-.05-.15-.14-.54-.26-1.17h-.06c0,.83.08,1.55.08,2.18v4.64h-1.7V42h2.77l1.71,5a6.58,6.58,0,0,1,.3,1.2h0a10.27,10.27,0,0,1,.33-1.21l1.72-5h2.7Z" fill="#fff"/>
      <path d="M38.84,43.41a1.12,1.12,0,0,1-.77-.28.92.92,0,0,1-.3-.69.88.88,0,0,1,.3-.68,1.27,1.27,0,0,1,1.54,0,.87.87,0,0,1,.29.68.89.89,0,0,1-.29.7A1.11,1.11,0,0,1,38.84,43.41Zm.91,6.94H37.9v-6h1.85Z" fill="#fff"/>
      <path d="M45.83,50.14A3.69,3.69,0,0,1,44,50.5a3.06,3.06,0,0,1-2.24-.84,2.89,2.89,0,0,1-.85-2.16,3.19,3.19,0,0,1,.91-2.41,3.38,3.38,0,0,1,2.45-.88,3.14,3.14,0,0,1,1.54.28v1.57a2.11,2.11,0,0,0-1.29-.43,1.71,1.71,0,0,0-1.27.46,2,2,0,0,0,0,2.54,1.66,1.66,0,0,0,1.23.45,2.42,2.42,0,0,0,1.35-.43Z" fill="#fff"/>
      <path d="M51.05,46a1.61,1.61,0,0,0-.78-.18,1.12,1.12,0,0,0-.94.45,1.88,1.88,0,0,0-.34,1.2v2.86H47.14v-6H49v1.12h0a1.61,1.61,0,0,1,1.59-1.22,1.12,1.12,0,0,1,.45.07Z" fill="#fff"/>
      <path d="M54.86,50.5a3.23,3.23,0,0,1-2.36-.84,3.47,3.47,0,0,1,0-4.61,3.37,3.37,0,0,1,2.41-.84,3.18,3.18,0,0,1,2.34.84,3,3,0,0,1,.85,2.22,3.16,3.16,0,0,1-.87,2.36A3.27,3.27,0,0,1,54.86,50.5Zm0-4.87a1.26,1.26,0,0,0-1,.45,2,2,0,0,0-.36,1.27c0,1.16.47,1.73,1.39,1.73s1.34-.59,1.34-1.77S55.8,45.63,54.9,45.63Z" fill="#fff"/>
      <path d="M59,50.2V48.7a4.06,4.06,0,0,0,.91.41,3,3,0,0,0,.86.13,1.84,1.84,0,0,0,.77-.13.44.44,0,0,0,.29-.41.42.42,0,0,0-.13-.3,1.7,1.7,0,0,0-.33-.2,3.9,3.9,0,0,0-.45-.16l-.46-.16a3.71,3.71,0,0,1-.63-.29,1.62,1.62,0,0,1-.45-.36,1.42,1.42,0,0,1-.29-.47,2.06,2.06,0,0,1-.09-.64,1.61,1.61,0,0,1,.22-.87,1.72,1.72,0,0,1,.58-.59,2.6,2.6,0,0,1,.84-.34,4,4,0,0,1,1-.11,5.52,5.52,0,0,1,.81.06,5.88,5.88,0,0,1,.81.18v1.43a2.9,2.9,0,0,0-.75-.31,3.11,3.11,0,0,0-.79-.1,1.79,1.79,0,0,0-.34,0,1.1,1.1,0,0,0-.29.09.51.51,0,0,0-.19.16.36.36,0,0,0-.07.22.4.4,0,0,0,.1.28,1,1,0,0,0,.28.21l.38.15.41.14a3.75,3.75,0,0,1,.67.28,2.18,2.18,0,0,1,.51.35,1.58,1.58,0,0,1,.33.48,1.9,1.9,0,0,1,.11.66,1.64,1.64,0,0,1-.23.91,1.9,1.9,0,0,1-.61.62,2.7,2.7,0,0,1-.89.34,5,5,0,0,1-1,.11A5.4,5.4,0,0,1,59,50.2Z" fill="#fff"/>
      <path d="M67.56,50.5a3.23,3.23,0,0,1-2.36-.84,3.47,3.47,0,0,1,0-4.61,3.38,3.38,0,0,1,2.41-.84,3.2,3.2,0,0,1,2.35.84,3,3,0,0,1,.84,2.22A3.16,3.16,0,0,1,70,49.63,3.26,3.26,0,0,1,67.56,50.5Zm0-4.87a1.23,1.23,0,0,0-1,.45,1.92,1.92,0,0,0-.37,1.27c0,1.16.47,1.73,1.4,1.73S69,48.49,69,47.31,68.5,45.63,67.61,45.63Z" fill="#fff"/>
      <path d="M75.9,42.89a1.92,1.92,0,0,0-.68-.14c-.6,0-.89.32-.89,1v.63H75.7v1.37H74.33v4.63H72.48V45.72h-1V44.35h1v-.74A2.15,2.15,0,0,1,73.15,42,2.53,2.53,0,0,1,75,41.33a3.09,3.09,0,0,1,.93.12Z" fill="#fff"/>
      <path d="M80.46,50.28a2.62,2.62,0,0,1-1.23.22,1.76,1.76,0,0,1-2-2V45.72h-1V44.35h1V43.06l1.85-.53v1.82h1.34v1.37H79.12v2.43c0,.62.24.93.74.93a1.17,1.17,0,0,0,.6-.17Z" fill="#fff"/>
      <path d="M32.88,57.81a1.08,1.08,0,0,1-.76-.28.92.92,0,0,1-.3-.69.88.88,0,0,1,.3-.68,1.26,1.26,0,0,1,1.53,0,.88.88,0,0,1,.3.68.89.89,0,0,1-.3.7A1.08,1.08,0,0,1,32.88,57.81Zm.92,6.94H32v-6H33.8Z" fill="#fff"/>
      <path d="M41.23,64.75H39.37v-.82h0a2.07,2.07,0,0,1-1.86,1,2.27,2.27,0,0,1-1.81-.79A3.33,3.33,0,0,1,35,61.89a3.62,3.62,0,0,1,.75-2.39,2.5,2.5,0,0,1,2-.89,1.69,1.69,0,0,1,1.62.83h0V55.87h1.86Zm-1.82-2.91v-.45a1.41,1.41,0,0,0-.34-1,1.11,1.11,0,0,0-.88-.38,1.15,1.15,0,0,0-1,.48,2.24,2.24,0,0,0-.34,1.33,2,2,0,0,0,.33,1.22,1.2,1.2,0,0,0,1.85,0A1.91,1.91,0,0,0,39.41,61.84Z" fill="#fff"/>
      <path d="M48.18,62.28H44.26c.06.87.61,1.31,1.65,1.31a3.24,3.24,0,0,0,1.74-.47v1.34a4.68,4.68,0,0,1-2.16.44,2.78,2.78,0,0,1-3.06-3.05,3.24,3.24,0,0,1,.86-2.37,2.9,2.9,0,0,1,2.14-.87,2.63,2.63,0,0,1,2,.78,3,3,0,0,1,.72,2.11Zm-1.72-1.13c0-.86-.35-1.29-1-1.29a1,1,0,0,0-.77.37,1.65,1.65,0,0,0-.4.92Z" fill="#fff"/>
      <path d="M55.15,64.75H53.3V61.42c0-.93-.33-1.39-1-1.39a1,1,0,0,0-.79.37,1.36,1.36,0,0,0-.31.93v3.42H49.35v-6h1.86v1h0a2.11,2.11,0,0,1,1.93-1.09c1.33,0,2,.82,2,2.47Z" fill="#fff"/>
      <path d="M60.17,64.68a2.62,2.62,0,0,1-1.23.22,1.76,1.76,0,0,1-2-2V60.12H56V58.75h1V57.46l1.85-.53v1.82h1.34v1.37H58.83v2.43c0,.62.24.93.74.93a1.17,1.17,0,0,0,.6-.17Z" fill="#fff"/>
      <path d="M62.22,57.81a1.12,1.12,0,0,1-.77-.28.92.92,0,0,1-.3-.69.88.88,0,0,1,.3-.68,1.16,1.16,0,0,1,.77-.26,1.14,1.14,0,0,1,.77.26.88.88,0,0,1,.3.68.89.89,0,0,1-.3.7A1.1,1.1,0,0,1,62.22,57.81Zm.91,6.94H61.28v-6h1.85Z" fill="#fff"/>
      <path d="M68.23,64.68A2.62,2.62,0,0,1,67,64.9a1.76,1.76,0,0,1-2-2V60.12h-1V58.75h1V57.46l1.84-.53v1.82h1.35v1.37H66.88v2.43q0,.93.75.93a1.17,1.17,0,0,0,.6-.17Z" fill="#fff"/>
      <path d="M75.29,58.75l-2.44,6.48c-.58,1.56-1.47,2.34-2.65,2.34a3.39,3.39,0,0,1-1.1-.15V65.94a1.48,1.48,0,0,0,.8.22,1,1,0,0,0,1-.67l.31-.75-2.44-6h2.06l1.11,3.65a5,5,0,0,1,.17.81h0a5.38,5.38,0,0,1,.2-.79l1.13-3.67Z" fill="#fff"/>
      <path d="M31,78.46h0v3.45H29.07V73.15h1.85v.91h0a2.36,2.36,0,0,1,3.73-.25A3.42,3.42,0,0,1,35.31,76a3.65,3.65,0,0,1-.74,2.41,2.4,2.4,0,0,1-2,.91A1.87,1.87,0,0,1,31,78.46ZM30.89,76v.48a1.52,1.52,0,0,0,.33,1,1.08,1.08,0,0,0,.86.39,1.14,1.14,0,0,0,1-.49A2.34,2.34,0,0,0,33.41,76c0-1.06-.41-1.58-1.23-1.58a1.16,1.16,0,0,0-.93.43A1.69,1.69,0,0,0,30.89,76Z" fill="#fff"/>
      <path d="M38.4,79.15H36.55V70.27H38.4Z" fill="#fff"/>
      <path d="M45,79.15H43.23v-.86h0a2,2,0,0,1-1.79,1A1.89,1.89,0,0,1,40,78.81a1.8,1.8,0,0,1-.5-1.33q0-1.74,2.07-2l1.63-.22c0-.65-.36-1-1.07-1a3.64,3.64,0,0,0-2,.64v-1.4a4.85,4.85,0,0,1,1.06-.35A5.7,5.7,0,0,1,42.41,73,2.27,2.27,0,0,1,45,75.57Zm-1.74-2.43v-.41l-1.09.14c-.6.08-.9.35-.9.82a.67.67,0,0,0,.22.52.84.84,0,0,0,.59.2,1.1,1.1,0,0,0,.85-.36A1.31,1.31,0,0,0,43.24,76.72Z" fill="#fff"/>
      <path d="M50,79.08a2.7,2.7,0,0,1-1.24.22,1.76,1.76,0,0,1-2-2V74.52h-1V73.15h1V71.86l1.85-.53v1.82H50v1.37H48.64V77c0,.62.25.93.74.93a1.2,1.2,0,0,0,.61-.17Z" fill="#fff"/>
      <path d="M55.11,71.69a2,2,0,0,0-.69-.14c-.59,0-.89.32-.89,1v.63H54.9v1.37H53.53v4.63H51.68V74.52h-1V73.15h1v-.74a2.18,2.18,0,0,1,.67-1.65,2.55,2.55,0,0,1,1.82-.63,3.16,3.16,0,0,1,.94.12Z" fill="#fff"/>
      <path d="M58.67,79.3a3.23,3.23,0,0,1-2.36-.84,3.47,3.47,0,0,1,0-4.61A3.38,3.38,0,0,1,58.75,73a3.2,3.2,0,0,1,2.35.84A3,3,0,0,1,62,76.07a3.17,3.17,0,0,1-.88,2.36A3.24,3.24,0,0,1,58.67,79.3Zm0-4.87a1.23,1.23,0,0,0-1,.45,2,2,0,0,0-.37,1.27c0,1.16.47,1.73,1.4,1.73s1.33-.59,1.33-1.77S59.61,74.43,58.72,74.43Z" fill="#fff"/>
      <path d="M67.05,74.82a1.61,1.61,0,0,0-.78-.18,1.14,1.14,0,0,0-.94.44A1.93,1.93,0,0,0,65,76.29v2.86H63.14v-6H65v1.12h0a1.61,1.61,0,0,1,1.59-1.22,1.12,1.12,0,0,1,.45.07Z" fill="#fff"/>
      <path d="M77.44,79.15H75.6V75.73c0-.87-.32-1.3-1-1.3a.88.88,0,0,0-.74.39,1.63,1.63,0,0,0-.29,1v3.35H71.75V75.7c0-.85-.31-1.27-.94-1.27a.9.9,0,0,0-.76.37,1.65,1.65,0,0,0-.28,1v3.33H67.91v-6h1.86v.94h0a2.22,2.22,0,0,1,.8-.78,2.26,2.26,0,0,1,1.14-.3,1.72,1.72,0,0,1,1.74,1.12,2.21,2.21,0,0,1,2-1.12c1.31,0,2,.8,2,2.41Z" fill="#fff"/>
    </g>
  </g>
</svg>
