<svg xmlns="http://www.w3.org/2000/svg" x="0px" y="0px" width="27px" height="16px" viewBox="0 0 27 16">
  <circle fill="#008000" cx="16" cy="8" r="8" />
  <path fill="#FFFFFF" d="M 11.553,8.291 C 11.479,8.212 11.441,8.108 11.445,8 11.449,7.891 11.495,7.791 11.575,7.716 L 12.41,6.944 c 0.076,-0.069 0.173,-0.107 0.274,-0.107 0.112,0 0.22,0.047 0.296,0.129 l 2.136,2.292 3.807,-4.875 C 19,4.284 19.116,4.226 19.242,4.226 c 0.09,0 0.175,0.029 0.247,0.084 l 0.906,0.699 c 0.173,0.128 0.21,0.377 0.08,0.554 l -4.868,6.233 c -0.189,0.242 -0.55,0.258 -0.76,0.033 z" />
</svg>
