<?xml version="1.0" encoding="UTF-8" standalone="no"?>
<!DOCTYPE svg PUBLIC "-//W3C//DTD SVG 1.1//EN" "http://www.w3.org/Graphics/SVG/1.1/DTD/svg11.dtd">
<!-- Generated by Microsoft Visio, SVG Export analyze.svg Page-1 -->
<svg xmlns="http://www.w3.org/2000/svg" xmlns:xlink="http://www.w3.org/1999/xlink" xmlns:ev="http://www.w3.org/2001/xml-events"
		xmlns:v="http://schemas.microsoft.com/visio/2003/SVGExtensions/" width="13.6771in" height="2.32335in"
		viewBox="0 0 984.754 167.281" xml:space="preserve" color-interpolation-filters="sRGB" class="st22">
	<v:documentProperties v:langID="1033" v:viewMarkup="false">
		<v:userDefs>
			<v:ud v:nameU="Ifc__CustomPropsLevel" v:val="VT0(0):26"/>
			<v:ud v:nameU="visTLShowProps" v:prompt="" v:val="VT0(1):26"/>
		</v:userDefs>
	</v:documentProperties>

	<style type="text/css">
	<![CDATA[
		.st1 {fill:none;stroke:none;stroke-linecap:round;stroke-linejoin:round;stroke-width:0.5}
		.st2 {fill:#e6e6e6;stroke:#d8d8d8;stroke-linecap:round;stroke-linejoin:round;stroke-width:2.25}
		.st3 {fill:#000000;font-family:Segoe UI Semibold;font-size:1.75001em}
		.st4 {fill:none;stroke:none;stroke-linecap:round;stroke-linejoin:round;stroke-width:0.75}
		.st5 {fill:#000000;font-family:Segoe UI Semibold;font-size:1.5em;font-weight:bold}
		.st6 {font-size:1em}
		.st7 {fill:#b796f9;stroke:none;stroke-linecap:butt;stroke-width:0.75}
		.st8 {fill:url(#grad0-19);stroke:none;stroke-linecap:butt;stroke-width:0.75}
		.st9 {fill:#0078d4;stroke:none;stroke-linecap:butt;stroke-width:0.75}
		.st10 {fill:#005ba1;stroke:none;stroke-linecap:butt;stroke-width:0.75}
		.st11 {fill:#5ea0ef;stroke:none;stroke-linecap:butt;stroke-width:0.75}
		.st12 {fill:#76bc2d;stroke:none;stroke-linecap:butt;stroke-width:34}
		.st13 {fill:url(#grad0-49);stroke:none;stroke-linecap:butt;stroke-width:34}
		.st14 {fill:url(#grad0-53);stroke:none;stroke-linecap:butt;stroke-width:34}
		.st15 {fill:url(#grad0-57);stroke:none;stroke-linecap:butt;stroke-width:34}
		.st16 {fill:url(#grad0-61);stroke:none;stroke-linecap:butt;stroke-width:34}
		.st17 {fill:#0078d4;stroke:none;stroke-linecap:butt;stroke-width:34}
		.st18 {fill:#ffffff;stroke:none;stroke-linecap:butt;stroke-width:34}
		.st19 {fill:url(#grad0-77);stroke:none;stroke-linecap:butt;stroke-width:0.75}
		.st20 {fill:url(#grad0-81);stroke:none;stroke-linecap:butt;stroke-width:0.75}
		.st21 {fill:#ffffff;stroke:none;stroke-linecap:butt;stroke-width:0.75}
		.st22 {fill:none;fill-rule:evenodd;font-size:12px;overflow:visible;stroke-linecap:square;stroke-miterlimit:3}
	]]>
	</style>

	<defs id="Patterns_And_Gradients">
		<linearGradient id="grad0-19" x1="0" y1="0" x2="1" y2="0" gradientTransform="rotate(-90 0.5 0.5)">
			<stop offset="0" stop-color="#773adc" stop-opacity="1"/>
			<stop offset="1" stop-color="#b77af4" stop-opacity="1"/>
		</linearGradient>
		<linearGradient id="grad0-49" x1="0" y1="0" x2="1" y2="0" gradientTransform="rotate(-84.6 0.5 0.5)">
			<stop offset="0" stop-color="#5e9624" stop-opacity="1"/>
			<stop offset="0.82" stop-color="#86d633" stop-opacity="1"/>
		</linearGradient>
		<linearGradient id="grad0-53" x1="0" y1="0" x2="1" y2="0" gradientTransform="rotate(-89.369771843738 0.5 0.5)">
			<stop offset="0" stop-color="#5e9624" stop-opacity="1"/>
			<stop offset="0.82" stop-color="#86d633" stop-opacity="1"/>
		</linearGradient>
		<linearGradient id="grad0-57" x1="0" y1="0" x2="1" y2="0" gradientTransform="rotate(-84.784845544421 0.5 0.5)">
			<stop offset="0" stop-color="#5e9624" stop-opacity="1"/>
			<stop offset="0.82" stop-color="#86d633" stop-opacity="1"/>
		</linearGradient>
		<linearGradient id="grad0-61" x1="0" y1="0" x2="1" y2="0" gradientTransform="rotate(-84.784845544421 0.5 0.5)">
			<stop offset="0" stop-color="#5e9624" stop-opacity="1"/>
			<stop offset="0.82" stop-color="#86d633" stop-opacity="1"/>
		</linearGradient>
		<linearGradient id="grad0-77" x1="0" y1="0" x2="1" y2="0" gradientTransform="rotate(-90 0.5 0.5)">
			<stop offset="0" stop-color="#1988d9" stop-opacity="1"/>
			<stop offset="0.9" stop-color="#54aef0" stop-opacity="1"/>
		</linearGradient>
		<linearGradient id="grad0-81" x1="0" y1="0" x2="1" y2="0" gradientTransform="rotate(-90 0.5 0.5)">
			<stop offset="0" stop-color="#198ab3" stop-opacity="1"/>
			<stop offset="0.01" stop-color="#198bb4" stop-opacity="1"/>
			<stop offset="0.44" stop-color="#27b2d7" stop-opacity="1"/>
			<stop offset="0.79" stop-color="#2fcbed" stop-opacity="1"/>
			<stop offset="1" stop-color="#32d4f5" stop-opacity="1"/>
		</linearGradient>
	</defs>
	<g v:mID="0" v:index="1" v:groupContext="foregroundPage">
		<v:userDefs>
			<v:ud v:nameU="visNavType" v:val="VT0(1):26"/>
		</v:userDefs>
		<title>Page-1</title>
		<v:pageProperties v:drawingScale="1" v:pageScale="1" v:drawingUnits="19" v:shadowOffsetX="9" v:shadowOffsetY="-9"/>
		<v:layer v:name="Azure" v:index="0"/>
		<g id="shape10989-1" v:mID="10989" v:groupContext="shape" v:layerMember="0" transform="translate(0.25,-0.25)">
			<title>Sheet.10989</title>
			<v:userDefs>
				<v:ud v:nameU="visNavOrder" v:prompt="" v:val="VT0(5234000):26"/>
			</v:userDefs>
			<rect x="0" y="0.500008" width="984.254" height="166.781" class="st1"/>
		</g>
		<g id="group13029-3" transform="translate(5.75355,-18.443)" v:mID="13029" v:groupContext="group">
			<v:userDefs>
				<v:ud v:nameU="visNavOrder" v:val="VT0(5243000):26"/>
			</v:userDefs>
			<title>Sheet.13029</title>
			<g id="shape13030-4" v:mID="13030" v:groupContext="shape">
				<title>Sheet.13030</title>
				<desc>Analyze</desc>
				<v:userDefs>
					<v:ud v:nameU="visNavOrder" v:prompt="" v:val="VT0(4503000):26"/>
				</v:userDefs>
				<v:textBlock v:margins="rect(4,4,4,4)" v:verticalAlign="0"/>
				<v:textRect cx="240.75" cy="102.084" width="481.5" height="130.395"/>
				<rect x="0" y="36.886" width="481.5" height="130.395" rx="9" ry="9" class="st2"/>
				<text x="15.55" y="60.27" class="st3" v:langID="1033"><v:paragraph/><v:tabList/>Analyze</text>			</g>
			<g id="group13031-7" transform="translate(56.4236,-31.2527)" v:mID="13031" v:groupContext="group">
				<v:userDefs>
					<v:ud v:nameU="visNavOrder" v:prompt="" v:val="VT0(4517000):26"/>
				</v:userDefs>
				<title>Sheet.13031</title>
				<g id="group13032-8" v:mID="13032" v:groupContext="group">
					<title>Sheet.13032</title>
					<g id="shape13033-9" v:mID="13033" v:groupContext="shape" transform="translate(-23.2358,-2.55795E-13)">
						<title>Sheet.13033</title>
						<desc>Metric Explorer</desc>
						<v:textBlock v:margins="rect(4,4,4,4)" v:verticalAlign="0"/>
						<v:textRect cx="65.8125" cy="154.572" width="131.63" height="25.4189"/>
						<rect x="0" y="141.862" width="131.625" height="25.4189" class="st4"/>
						<text x="39.55" y="162.06" class="st5" v:langID="1033"><v:paragraph v:horizAlign="1"/><v:tabList/>Metric <v:newlineChar/><tspan
									x="32.05" dy="1.2em" class="st6">Explorer</tspan></text>					</g>
				</g>
				<g id="group13034-13" transform="translate(23.6705,-32.7512)" v:mID="13034" v:groupContext="group">
					<title>Icon-manage-319.10689</title>
					<g id="shape13035-14" v:mID="13035" v:groupContext="shape" transform="translate(2.21823,-15.2965)">
						<title>Sheet.13035</title>
						<path d="M29.02 145.88 L19.8 162.29 L10.05 152.35 L0 165.39 L2.36 167.24 L10.33 156.95 L20.45 167.28 L31.63
									 147.39 L29.02 145.88 Z" class="st7"/>
					</g>
					<g id="shape13036-16" v:mID="13036" v:groupContext="shape" transform="translate(8.59564,-24.1232)">
						<title>Sheet.13036</title>
						<ellipse cx="3.78947" cy="163.469" rx="3.78947" ry="3.81258" class="st8"/>
					</g>
					<g id="shape13037-20" v:mID="13037" v:groupContext="shape" transform="translate(18.878,-14.6727)">
						<title>Sheet.13037</title>
						<ellipse cx="3.78947" cy="163.469" rx="3.78947" ry="3.81258" class="st8"/>
					</g>
					<g id="shape13038-23" v:mID="13038" v:groupContext="shape" transform="translate(28.4211,-31.656)">
						<title>Sheet.13038</title>
						<ellipse cx="3.78947" cy="163.469" rx="3.78947" ry="3.81258" class="st8"/>
					</g>
					<g id="shape13039-26" v:mID="13039" v:groupContext="shape" transform="translate(1.80356E-13,-13.009)">
						<title>Sheet.13039</title>
						<ellipse cx="3.78947" cy="163.469" rx="3.78947" ry="3.81258" class="st8"/>
					</g>
					<g id="shape13040-29" v:mID="13040" v:groupContext="shape" transform="translate(10.3055,0)">
						<title>Sheet.13040</title>
						<path d="M0 166.63 a0.646998 0.646998 -180 0 0 0.646983 0.646983 L5.31 167.28 a0.646998 0.646998 -180 0 0
									 0.646983 -0.646983 L5.96 150.41 a0.646998 0.646998 -180 0 0 -0.646983 -0.646983 L0.65 149.77
									 a0.646998 0.646998 -180 0 0 -0.646983 0.646983 L0 166.63 Z" class="st9"/>
					</g>
					<g id="shape13041-31" v:mID="13041" v:groupContext="shape" transform="translate(19.8023,-1.98952E-13)">
						<title>Sheet.13041</title>
						<path d="M0 166.63 a0.646998 0.646998 -180 0 0 0.646983 0.646983 L5.31 167.28 a0.646998 0.646998 -180 0 0
									 0.646983 -0.646983 L5.96 156.47 a0.646998 0.646998 -180 0 0 -0.646983 -0.646983 L0.65 155.82
									 a0.646998 0.646998 -180 0 0 -0.646983 0.646983 L0 166.63 Z" class="st10"/>
					</g>
					<g id="shape13042-33" v:mID="13042" v:groupContext="shape" transform="translate(29.2991,0)">
						<title>Sheet.13042</title>
						<path d="M0 166.63 a0.646998 0.646998 -180 0 0 0.646983 0.646983 L5.31 167.28 a0.646998 0.646998 -180 0 0
									 0.646983 -0.646983 L5.96 144.54 a0.646998 0.646998 -180 0 0 -0.646983 -0.646983 L0.65 143.9
									 a0.646998 0.646998 -180 0 0 -0.646983 0.646983 L0 166.63 Z" class="st10"/>
					</g>
					<g id="shape13043-35" v:mID="13043" v:groupContext="shape" transform="translate(0.808729,-1.98952E-13)">
						<title>Sheet.13043</title>
						<path d="M0 166.63 a0.646998 0.646998 -180 0 0 0.646983 0.646983 L5.31 167.28 a0.646998 0.646998 -180 0 0
									 0.646983 -0.646983 L5.96 156.47 a0.646998 0.646998 -180 0 0 -0.646983 -0.646983 L0.65 155.82
									 a0.646998 0.646998 -180 0 0 -0.646983 0.646983 L0 166.63 Z" class="st11"/>
					</g>
				</g>
			</g>
			<g id="group13044-37" transform="translate(385.065,-64.6784)" v:mID="13044" v:groupContext="group">
				<v:userDefs>
					<v:ud v:nameU="visNavOrder" v:prompt="" v:val="VT0(4527000):26"/>
				</v:userDefs>
				<title>Sheet.13044</title>
			</g>
			<g id="group13045-38" transform="translate(321.674,-30.6337)" v:mID="13045" v:groupContext="group">
				<v:userDefs>
					<v:ud v:nameU="visNavOrder" v:val="VT0(4528000):26"/>
				</v:userDefs>
				<title>Sheet.13045</title>
				<g id="shape13046-39" v:mID="13046" v:groupContext="shape">
					<title>Sheet.13046</title>
					<desc>Change Analysis</desc>
					<v:userDefs>
						<v:ud v:nameU="visNavOrder" v:prompt="" v:val="VT0(1167000):26"/>
					</v:userDefs>
					<v:textBlock v:margins="rect(4,4,4,4)" v:verticalAlign="0"/>
					<v:textRect cx="76.2568" cy="154.572" width="152.52" height="25.4189"/>
					<rect x="0" y="141.862" width="152.514" height="25.4189" class="st4"/>
					<text x="45.28" y="162.06" class="st5" v:langID="1033"><v:paragraph v:horizAlign="1"/><v:tabList/>Change <v:newlineChar/><tspan
								x="43.23" dy="1.2em" class="st6">Analysis</tspan></text>				</g>
				<g id="group13047-43" transform="translate(52.0464,-29.061)" v:mID="13047" v:groupContext="group">
					<v:userDefs>
						<v:ud v:nameU="visNavOrder" v:val="VT0(1166000):26"/>
					</v:userDefs>
					<title>Sheet.13047</title>
					<g id="shape13048-44" v:mID="13048" v:groupContext="shape" transform="translate(2.92588,-2.70651)">
						<title>Sheet.13048</title>
						<path d="M3.02 167.28 L0 164.6 L14.76 148.08 L27.32 161.01 L39.17 148.45 L42.11 151.21 L27.35 166.85 L14.9
									 153.98 L3.02 167.28 Z" class="st12"/>
					</g>
					<g id="shape13049-46" v:mID="13049" v:groupContext="shape" transform="translate(12.9029,-14.0824)">
						<title>Sheet.13049</title>
						<ellipse cx="4.84322" cy="162.438" rx="4.84322" ry="4.84322" class="st13"/>
					</g>
					<g id="shape13050-50" v:mID="13050" v:groupContext="shape" transform="translate(25.4098,-1.60681)">
						<title>Sheet.13050</title>
						<ellipse cx="4.84322" cy="162.438" rx="4.84322" ry="4.84322" class="st14"/>
					</g>
					<g id="shape13051-54" v:mID="13051" v:groupContext="shape" transform="translate(38.7344,-15.7348)">
						<title>Sheet.13051</title>
						<ellipse cx="4.84322" cy="162.438" rx="4.84322" ry="4.84322" class="st15"/>
					</g>
					<g id="shape13052-58" v:mID="13052" v:groupContext="shape">
						<title>Sheet.13052</title>
						<ellipse cx="4.84322" cy="162.438" rx="4.84322" ry="4.84322" class="st16"/>
					</g>
					<g id="shape13053-62" v:mID="13053" v:groupContext="shape" transform="translate(16.9273,-17.0111)">
						<title>Sheet.13053</title>
						<path d="M22.04 158.1 L12.98 167.28 L3.84 158.1 A12.6778 12.6778 0 0 1 3.59 140.18 L3.84 139.93 A12.7348
									 12.7348 0 0 1 21.85 139.75 L22.04 139.93 A12.7377 12.7377 0 0 1 22.19 157.95 L22.04 158.1 Z"
								class="st17"/>
					</g>
					<g id="shape13054-64" v:mID="13054" v:groupContext="shape" transform="translate(19.5033,-27.4339)">
						<title>Sheet.13054</title>
						<path d="M2.6 156.92 A8.19929 8.19929 -180 0 0 3.43 163.3 A7.91439 7.91439 -180 0 0 4.91 165.11 A8.3161 8.3161
									 -180 0 0 6.78 166.45 A9.41864 9.41864 -180 0 0 8.95 167.19 A7.69217 7.69217 -180 0 0 11.29 167.19
									 L11.09 164.97 a0.475775 0.475775 -180 0 0 -0.447286 -0.415947 A5.52127 5.52127 0 0 1 9.45 164.55
									 A6.55259 6.55259 0 0 1 8 164.05 A5.53837 5.53837 0 0 1 6.72 163.15 A5.20219 5.20219 0 0 1 5.71
									 161.91 A4.96288 4.96288 0 0 1 5 159.89 A5.8546 5.8546 0 0 1 5 157.75 L5.77 159.03 a0.472926
									 0.472926 -180 0 0 0.623921 0 L7.44 158.76 a0.475775 0.475775 -180 0 0 0.148146 -0.623921 L5.02
									 153.95 a0.470077 0.470077 -180 0 0 -0.569791 -0.284895 L0.12 156.23 a0.472926 0.472926 -180
									 0 0 3.4972E-15 0.623921 L0.65 157.77 a0.475775 0.475775 -180 0 0 0.623921 0.176635 L2.6 156.92
									 ZM11.59 153.74 A4.97427 4.97427 0 0 1 13.05 154.25 A5.36458 5.36458 0 0 1 15.33 156.35 A5.3133
									 5.3133 0 0 1 16.04 158.4 A5.90018 5.90018 0 0 1 16.04 160.57 L15.3 159.29 a0.475775 0.475775
									 -180 0 0 -0.621072 -0.19088 L13.76 159.67 a0.447286 0.447286 -180 0 0 -0.193729 0.601129 L13.56
									 160.3 L16.15 164.6 a0.447286 0.447286 -180 0 0 0.59828 0.19088 L16.77 164.8 L21.07 162.21 a0.444437
									 0.444437 -180 0 0 1.42109E-14 -0.623921 L20.54 160.67 a0.478624 0.478624 -180 0 0 -0.623921
									 2.84217E-14 L18.43 161.56 A8.04544 8.04544 -180 0 0 18.66 158.29 A7.65229 7.65229 -180 0 0 17.6
									 155.15 A7.90015 7.90015 -180 0 0 16.14 153.31 A9.27049 9.27049 -180 0 0 14.24 152 A7.84032 7.84032
									 -180 0 0 12.07 151.26 A7.88021 7.88021 -180 0 0 10.23 150.98 a0.472926 0.472926 -180 0 0 -0.415947
									 0.504265 L9.82 153.23 a0.478624 0.478624 -180 0 0 0.447286 0.415947 A5.12812 5.12812 0 0 1 11.59
									 153.74 Z" class="st18"/>
					</g>
				</g>
			</g>
			<g id="group13055-66" transform="translate(169.916,-31.6403)" v:mID="13055" v:groupContext="group">
				<v:userDefs>
					<v:ud v:nameU="visNavOrder" v:val="VT0(4529000):26"/>
				</v:userDefs>
				<title>Sheet.13055</title>
				<g id="shape13056-67" v:mID="13056" v:groupContext="shape">
					<title>Sheet.13056</title>
					<desc>Log Analytics</desc>
					<v:userDefs>
						<v:ud v:nameU="visNavOrder" v:prompt="" v:val="VT0(1170000):26"/>
					</v:userDefs>
					<v:textBlock v:margins="rect(4,4,4,4)" v:verticalAlign="0"/>
					<v:textRect cx="76.2568" cy="154.572" width="152.52" height="25.4189"/>
					<rect x="0" y="141.862" width="152.514" height="25.4189" class="st4"/>
					<text x="61.06" y="162.06" class="st5" v:langID="1033"><v:paragraph v:horizAlign="1"/><v:tabList/>Log <v:newlineChar/><tspan
								x="39.62" dy="1.2em" class="st6">Analytics</tspan></text>				</g>
				<g id="group13057-71" transform="translate(63.9068,-28.9429)" v:mID="13057" v:groupContext="group">
					<v:userDefs>
						<v:ud v:nameU="visNavOrder" v:val="VT0(1195000):26"/>
					</v:userDefs>
					<title>Sheet.13057</title>
					<g id="group13058-72" transform="translate(0.830613,-4.09532)" v:mID="13058" v:groupContext="group">
						<v:userDefs>
							<v:ud v:nameU="visNavOrder" v:prompt="" v:val="VT0(1171000):26"/>
						</v:userDefs>
						<title>Sheet.13058</title>
					</g>
					<g id="group13059-73" v:mID="13059" v:groupContext="group">
						<v:userDefs>
							<v:ud v:nameU="visNavOrder" v:prompt="" v:val="VT0(1169000):26"/>
						</v:userDefs>
						<title>Icon-manage-307.10699</title>
						<g id="shape13060-74" v:mID="13060" v:groupContext="shape">
							<title>Sheet.13060</title>
							<path d="M14.44 154.9 L26.82 154.9 L26.82 167.28 L14.44 167.28 L14.44 154.9 ZM1.72 167.28 L12.38 167.28
										 L12.38 154.9 L0 154.9 L0 165.56 A1.71908 1.71908 -180 0 0 1.72 167.28 ZM0 152.96 L12.38
										 152.96 L12.38 140.46 L0 140.46 L0 152.96 Z" class="st19"/>
						</g>
						<g id="shape13061-78" v:mID="13061" v:groupContext="shape" transform="translate(14.3257,-14.1824)">
							<title>Sheet.13061</title>
							<path d="M17.05 133.04 A16.8757 16.8757 0 0 1 34.1 150.23 A16.8757 16.8757 0 0 1 17.05 167.28 L0 167.28
										 L0 150.09 A16.8757 16.8757 0 0 1 17.05 133.04 Z" class="st20"/>
						</g>
						<g id="shape13062-82" v:mID="13062" v:groupContext="shape" transform="translate(20.1706,-22.1189)">
							<title>Sheet.13062</title>
							<rect x="0" y="155.591" width="3.89659" height="11.6898" class="st21"/>
						</g>
						<g id="shape13063-84" v:mID="13063" v:groupContext="shape" transform="translate(27.9637,-22.1189)">
							<title>Sheet.13063</title>
							<rect x="0" y="159.488" width="3.89659" height="7.79317" class="st21"/>
						</g>
						<g id="shape13064-86" v:mID="13064" v:groupContext="shape" transform="translate(35.7569,-22.1189)">
							<title>Sheet.13064</title>
							<rect x="0" y="151.695" width="3.89659" height="15.5863" class="st21"/>
						</g>
					</g>
				</g>
			</g>
		</g>
	</g>
</svg>
