<?xml version="1.0" encoding="UTF-8" standalone="no"?>
<!DOCTYPE svg PUBLIC "-//W3C//DTD SVG 1.1//EN" "http://www.w3.org/Graphics/SVG/1.1/DTD/svg11.dtd">
<!-- Generated by Microsoft Visio, SVG Export integrate.svg Page-1 -->
<svg xmlns="http://www.w3.org/2000/svg" xmlns:xlink="http://www.w3.org/1999/xlink" xmlns:ev="http://www.w3.org/2001/xml-events"
		xmlns:v="http://schemas.microsoft.com/visio/2003/SVGExtensions/" width="13.2188in" height="2.00439in"
		viewBox="0 0 951.75 144.316" xml:space="preserve" color-interpolation-filters="sRGB" class="st43">
	<v:documentProperties v:langID="1033" v:viewMarkup="false">
		<v:userDefs>
			<v:ud v:nameU="Ifc__CustomPropsLevel" v:val="VT0(0):26"/>
			<v:ud v:nameU="visTLShowProps" v:prompt="" v:val="VT0(1):26"/>
		</v:userDefs>
	</v:documentProperties>

	<style type="text/css">
	<![CDATA[
		.st1 {fill:#e6e6e6;stroke:#d8d8d8;stroke-linecap:round;stroke-linejoin:round;stroke-width:2.25}
		.st2 {fill:#000000;font-family:Segoe UI Semibold;font-size:1.75001em}
		.st3 {fill:#76bc2d;stroke:none;stroke-width:34}
		.st4 {fill:#86d633;stroke:none;stroke-width:34}
		.st5 {fill:#999999;stroke:none;stroke-width:34}
		.st6 {fill:#999999;fill-opacity:0.5;stroke:none;stroke-width:34}
		.st7 {fill:#949494;stroke:none;stroke-width:34}
		.st8 {fill:none;stroke:none;stroke-linecap:round;stroke-linejoin:round;stroke-width:0.75}
		.st9 {fill:#0c0c0c;font-family:Segoe UI Semibold;font-size:1.5em}
		.st10 {font-size:1em}
		.st11 {fill:#000000;font-family:Segoe UI Semibold;font-size:1.5em}
		.st12 {fill:url(#grad0-54);stroke:none;stroke-linecap:butt;stroke-width:0.75}
		.st13 {fill:#e6e6e6}
		.st14 {stroke:none;stroke-linecap:butt;stroke-width:0.75}
		.st15 {fill:#50e6ff;stroke:none;stroke-linecap:butt;stroke-width:0.75}
		.st16 {fill:#198ab3;stroke:none;stroke-linecap:butt;stroke-width:0.75}
		.st17 {fill:#3e3e3e;stroke:none;stroke-linecap:butt;stroke-width:0.750002}
		.st18 {fill:#b8d432;stroke:none;stroke-linecap:butt;stroke-width:0.750002}
		.st19 {fill:#804998;stroke:none;stroke-linecap:butt;stroke-width:0.750002}
		.st20 {fill:#59b4d9;stroke:none;stroke-linecap:butt;stroke-width:0.750002}
		.st21 {fill:#ffffff;fill-opacity:0.25;stroke:none;stroke-linecap:butt;stroke-width:0.750002}
		.st22 {fill:#ffffff;fill-opacity:0.2;stroke:none;stroke-linecap:butt;stroke-width:0.750002}
		.st23 {fill:#ffffff;fill-opacity:0.4;stroke:none;stroke-linecap:butt;stroke-width:0.750002}
		.st24 {fill:#ffffff;fill-opacity:0.15;stroke:none;stroke-linecap:butt;stroke-width:0.750002}
		.st25 {fill:#000000;font-family:Segoe UI Semibold;font-size:1.5em;font-weight:bold}
		.st26 {fill:#50e6ff;stroke:none;stroke-linecap:butt;stroke-width:34}
		.st27 {fill:#9cebff;stroke:none;stroke-linecap:butt;stroke-width:34}
		.st28 {fill:#a3a3a3;stroke:none;stroke-linecap:butt;stroke-width:34}
		.st29 {fill:#767676;stroke:none;stroke-linecap:butt;stroke-width:34}
		.st30 {fill:#32bedd;stroke:none;stroke-linecap:butt;stroke-width:34}
		.st31 {fill:url(#grad0-98);stroke:none;stroke-linecap:butt;stroke-width:34}
		.st32 {fill:url(#grad0-105);stroke:none;stroke-width:34}
		.st33 {fill:url(#grad0-109);stroke:none;stroke-width:34}
		.st34 {fill:#000000;font-size:1em;font-weight:bold}
		.st35 {fill:#59b4d9;stroke:none;stroke-width:12.24}
		.st36 {fill:#57a300;stroke:none;stroke-width:12.24}
		.st37 {fill:#0072c6;stroke:none;stroke-width:12.24}
		.st38 {fill:#50e6ff;stroke:none;stroke-width:34}
		.st39 {fill:#1490df;stroke:none;stroke-width:34}
		.st40 {fill:url(#grad0-150);stroke:none;stroke-width:34}
		.st41 {fill:#0070c0;stroke:none;stroke-linecap:butt;stroke-width:15.3}
		.st42 {fill:#24292f;stroke:none;stroke-linecap:butt;stroke-width:0.75}
		.st43 {fill:none;fill-rule:evenodd;font-size:12px;overflow:visible;stroke-linecap:square;stroke-miterlimit:3}
	]]>
	</style>

	<defs id="Patterns_And_Gradients">
		<linearGradient id="grad0-54" x1="0" y1="0" x2="1" y2="0" gradientTransform="rotate(0.12781289921392 0.5 0.5)">
			<stop offset="0" stop-color="#005ba1" stop-opacity="1"/>
			<stop offset="0.07" stop-color="#0060a9" stop-opacity="1"/>
			<stop offset="0.355" stop-color="#0071c8" stop-opacity="1"/>
			<stop offset="0.515" stop-color="#0078d4" stop-opacity="1"/>
			<stop offset="0.64" stop-color="#0074cd" stop-opacity="1"/>
			<stop offset="0.82" stop-color="#006abb" stop-opacity="1"/>
			<stop offset="1" stop-color="#005ba1" stop-opacity="1"/>
		</linearGradient>
		<linearGradient id="grad0-98" x1="0" y1="0" x2="1" y2="0" gradientTransform="rotate(-90 0.5 0.5)">
			<stop offset="0" stop-color="#cccccc" stop-opacity="1"/>
			<stop offset="0.15" stop-color="#dadada" stop-opacity="1"/>
			<stop offset="0.44" stop-color="#eeeeee" stop-opacity="1"/>
			<stop offset="0.725" stop-color="#fbfbfb" stop-opacity="1"/>
			<stop offset="1" stop-color="#ffffff" stop-opacity="1"/>
		</linearGradient>
		<linearGradient id="grad0-105" x1="0" y1="0" x2="1" y2="0" gradientTransform="rotate(-90 0.5 0.5)">
			<stop offset="0" stop-color="#198ab3" stop-opacity="1"/>
			<stop offset="0.09" stop-color="#1f9dc4" stop-opacity="1"/>
			<stop offset="0.24" stop-color="#28b5d9" stop-opacity="1"/>
			<stop offset="0.4" stop-color="#2dc6e9" stop-opacity="1"/>
			<stop offset="0.57" stop-color="#31d1f2" stop-opacity="1"/>
			<stop offset="0.78" stop-color="#32d4f5" stop-opacity="1"/>
		</linearGradient>
		<linearGradient id="grad0-109" x1="0" y1="0" x2="1" y2="0" gradientTransform="rotate(90 0.5 0.5)">
			<stop offset="0" stop-color="#c69aeb" stop-opacity="1"/>
			<stop offset="1" stop-color="#6f4bb2" stop-opacity="1"/>
		</linearGradient>
		<linearGradient id="grad0-150" x1="0" y1="0" x2="1" y2="0" gradientTransform="rotate(-90 0.5 0.5)">
			<stop offset="0" stop-color="#fea11b" stop-opacity="1"/>
			<stop offset="0.285" stop-color="#fea51a" stop-opacity="1"/>
			<stop offset="0.545" stop-color="#feb018" stop-opacity="1"/>
			<stop offset="0.8" stop-color="#ffc314" stop-opacity="1"/>
			<stop offset="1" stop-color="#ffd70f" stop-opacity="1"/>
		</linearGradient>
	</defs>
	<g v:mID="0" v:index="1" v:groupContext="foregroundPage">
		<v:userDefs>
			<v:ud v:nameU="visNavType" v:val="VT0(1):26"/>
		</v:userDefs>
		<title>Page-1</title>
		<v:pageProperties v:drawingScale="1" v:pageScale="1" v:drawingUnits="19" v:shadowOffsetX="9" v:shadowOffsetY="-9"/>
		<g id="group25813-1" transform="translate(1.125,-1.125)" v:mID="25813" v:groupContext="group">
			<v:userDefs>
				<v:ud v:nameU="visNavOrder" v:val="VT0(6019000):26"/>
			</v:userDefs>
			<title>Sheet.25813</title>
			<g id="shape25814-2" v:mID="25814" v:groupContext="shape">
				<title>Sheet.25814</title>
				<desc>Integrate</desc>
				<v:userDefs>
					<v:ud v:nameU="visNavOrder" v:prompt="" v:val="VT0(5540000):26"/>
				</v:userDefs>
				<v:textBlock v:margins="rect(4,4,4,4)" v:verticalAlign="0"/>
				<v:textRect cx="474.75" cy="75.6551" width="949.5" height="137.322"/>
				<rect x="0" y="6.99392" width="949.5" height="137.322" rx="9" ry="9" class="st1"/>
				<text x="15.55" y="29.89" class="st2" v:langID="1033"><v:paragraph/><v:tabList/>Integrate</text>			</g>
			<g id="group25815-5" transform="translate(19.7616,-23.4781)" v:mID="25815" v:groupContext="group">
				<v:userDefs>
					<v:ud v:nameU="visNavOrder" v:val="VT0(5797000):26"/>
				</v:userDefs>
				<title>Sheet.25815</title>
				<g id="group25816-6" transform="translate(9.84028,-4.50431)" v:mID="25816" v:groupContext="group">
					<v:userDefs>
						<v:ud v:nameU="visNavOrder" v:val="VT0(5788000):26"/>
					</v:userDefs>
					<title>Sheet.25816</title>
					<g id="group25817-7" transform="translate(39.6144,-35.0176)" v:mID="25817" v:groupContext="group">
						<v:userDefs>
							<v:ud v:nameU="visNavOrder" v:prompt="" v:val="VT0(1214000):26"/>
						</v:userDefs>
						<title>Event Hubs.11150</title>
						<g id="group25818-8" v:mID="25818" v:groupContext="group">
							<title> Icon-analytics-144</title>
							<g id="shape25819-9" v:mID="25819" v:groupContext="shape" transform="translate(17.3931,-10.7554)">
								<title>Sheet.25819</title>
								<path d="M5.85 136.55 a0.585022 0.585022 0 0 1 -0.54002 0.607523 L0.61 137.16 a0.585022 0.585022
											 0 0 1 -0.607523 -0.54002 L0 133.11 a0.585022 0.585022 0 0 1 0.54002 -0.607523 L5.24
											 132.5 a0.585022 0.585022 0 0 1 0.607523 0.54002 L5.85 136.55 ZM14.2 140.11 a0.585022
											 0.585022 0 0 1 -0.54002 0.607523 L8.96 140.72 a0.585022 0.585022 0 0 1 -0.607523 -0.54002
											 L8.35 136.69 a0.585022 0.585022 0 0 1 0.54002 -0.607523 L13.59 136.08 a0.585022 0.585022
											 0 0 1 0.607523 0.54002 L14.2 140.11 ZM5.85 143.71 a0.585022 0.585022 0 0 1 -0.54002
											 0.607523 L0.61 144.32 a0.585022 0.585022 0 0 1 -0.607523 -0.54002 L0 140.27 a0.585022
											 0.585022 0 0 1 0.54002 -0.607523 L5.24 139.66 a0.585022 0.585022 0 0 1 0.607523 0.54002
											 L5.85 143.71 Z" class="st3"/>
							</g>
							<g id="shape25820-11" v:mID="25820" v:groupContext="shape" transform="translate(8.93283,-21.4883)">
								<title>Sheet.25820</title>
								<path d="M5.96 143.73 a0.562521 0.562521 0 0 1 -0.517519 0.585022 L0.61 144.32 a0.585022 0.585022
											 0 0 1 -0.607523 -0.517519 L0 140.15 a0.585022 0.585022 0 0 1 0.54002 -0.562521 L5.24
											 139.59 C5.74 139.59 5.96 139.84 5.96 140.2 L5.96 143.73 Z" class="st4"/>
							</g>
							<g id="shape25821-13" v:mID="25821" v:groupContext="shape" transform="translate(8.93283,-7.17777)">
								<title>Sheet.25821</title>
								<path d="M5.96 136.53 a0.562521 0.562521 0 0 1 -0.517519 0.607523 L0.61 137.14 a0.585022 0.585022
											 0 0 1 -0.607523 -0.607523 L0 132.98 a0.585022 0.585022 0 0 1 0.54002 -0.585022 L5.24
											 132.39 C5.74 132.39 5.96 132.64 5.96 132.98 L5.96 136.53 ZM5.96 143.71 a0.562521 0.562521
											 0 0 1 -0.517519 0.607523 L0.61 144.32 a0.585022 0.585022 0 0 1 -0.607523 -0.54002 L0
											 140.13 a0.562521 0.562521 0 0 1 0.54002 -0.585022 L5.24 139.55 C5.74 139.55 5.96 139.77
											 5.96 140.13 L5.96 143.71 Z" class="st3"/>
							</g>
							<g id="group25822-15" transform="translate(3.79696E-14,-25.3134)" v:mID="25822" v:groupContext="group">
								<title>Sheet.25822</title>
								<g id="shape25823-16" v:mID="25823" v:groupContext="shape">
									<title>Sheet.25823</title>
									<path d="M1.28 135.56 L4.19 135.56 L4.19 143.66 a0.652524 0.652524 0 0 1 -0.652524 0.652524 L0.65
												 144.32 a0.652524 0.652524 0 0 1 -0.652524 -0.652524 L0 136.91 A1.28255 1.28255 0
												 0 1 1.28 135.56 Z" class="st5"/>
								</g>
								<g id="shape25824-18" v:mID="25824" v:groupContext="shape">
									<title>Sheet.25824</title>
									<path d="M1.28 135.56 L4.19 135.56 L4.19 143.66 a0.652524 0.652524 0 0 1 -0.652524 0.652524 L0.65
												 144.32 a0.652524 0.652524 0 0 1 -0.652524 -0.652524 L0 136.91 A1.28255 1.28255 0
												 0 1 1.28 135.56 Z" class="st6"/>
								</g>
							</g>
							<g id="group25825-20" transform="translate(34.0438,-25.3809)" v:mID="25825" v:groupContext="group">
								<title>Sheet.25825</title>
								<g id="shape25826-21" v:mID="25826" v:groupContext="shape">
									<title>Sheet.25826</title>
									<path d="M0.02 135.63 L2.93 135.63 A1.28255 1.28255 0 0 1 4.21 136.91 L4.21 143.66 a0.652524
												 0.652524 0 0 1 -0.652524 0.652524 L0.65 144.32 a0.652524 0.652524 0 0 1 -0.652524
												 -0.652524 L0 135.63 L0.02 135.63 Z" class="st5"/>
								</g>
								<g id="shape25827-23" v:mID="25827" v:groupContext="shape">
									<title>Sheet.25827</title>
									<path d="M0.02 135.63 L2.93 135.63 A1.28255 1.28255 0 0 1 4.21 136.91 L4.21 143.66 a0.652524
												 0.652524 0 0 1 -0.652524 0.652524 L0.65 144.32 a0.652524 0.652524 0 0 1 -0.652524
												 -0.652524 L0 135.63 L0.02 135.63 Z" class="st6"/>
								</g>
							</g>
							<g id="shape25828-25" v:mID="25828" v:groupContext="shape" transform="translate(0,-29.9711)">
								<title>Sheet.25828</title>
								<path d="M38.25 141.5 L38.25 144.32 L0 144.32 L0 141.5 A1.28255 1.28255 0 0 1 1.28 140.22 L36.99
											 140.22 A1.28255 1.28255 0 0 1 38.25 141.5 Z" class="st7"/>
							</g>
							<g id="group25829-27" v:mID="25829" v:groupContext="group">
								<title>Sheet.25829</title>
								<g id="shape25830-28" v:mID="25830" v:groupContext="shape">
									<title>Sheet.25830</title>
									<path d="M0.65 135.56 L3.56 135.56 a0.652524 0.652524 0 0 1 0.652524 0.652524 L4.21 144.32 L1.28
												 144.32 A1.28255 1.28255 0 0 1 0 143.03 L0 136.1 a0.652524 0.652524 0 0 1 0.652524
												 -0.54002 Z" class="st5"/>
								</g>
								<g id="shape25831-30" v:mID="25831" v:groupContext="shape">
									<title>Sheet.25831</title>
									<path d="M0.65 135.56 L3.56 135.56 a0.652524 0.652524 0 0 1 0.652524 0.652524 L4.21 144.32 L1.28
												 144.32 A1.28255 1.28255 0 0 1 0 143.03 L0 136.1 a0.652524 0.652524 0 0 1 0.652524
												 -0.54002 Z" class="st6"/>
								</g>
							</g>
							<g id="group25832-32" transform="translate(34.0663,-0.0675025)" v:mID="25832" v:groupContext="group">
								<title>Sheet.25832</title>
								<g id="shape25833-33" v:mID="25833" v:groupContext="shape">
									<title>Sheet.25833</title>
									<path d="M0.63 135.63 L3.53 135.63 a0.652524 0.652524 0 0 1 0.652524 0.652524 L4.19 143.03 A1.28255
												 1.28255 0 0 1 2.9 144.32 L0 144.32 L0 136.17 a0.652524 0.652524 0 0 1 0.630023 -0.54002
												 Z" class="st5"/>
								</g>
								<g id="shape25834-35" v:mID="25834" v:groupContext="shape">
									<title>Sheet.25834</title>
									<path d="M0.63 135.63 L3.53 135.63 a0.652524 0.652524 0 0 1 0.652524 0.652524 L4.19 143.03 A1.28255
												 1.28255 0 0 1 2.9 144.32 L0 144.32 L0 136.17 a0.652524 0.652524 0 0 1 0.630023 -0.54002
												 Z" class="st6"/>
								</g>
							</g>
							<g id="shape25835-37" v:mID="25835" v:groupContext="shape">
								<title>Sheet.25835</title>
								<path d="M0 143.03 L0 140.22 L38.25 140.22 L38.25 143.03 A1.28255 1.28255 0 0 1 36.97 144.32 L1.28
											 144.32 A1.28255 1.28255 0 0 1 0 143.03 Z" class="st7"/>
							</g>
						</g>
					</g>
					<g id="shape25836-39" v:mID="25836" v:groupContext="shape">
						<title>Sheet.25836</title>
						<desc>Event Hubs</desc>
						<v:userDefs>
							<v:ud v:nameU="visNavOrder" v:prompt="" v:val="VT0(1215000):26"/>
						</v:userDefs>
						<v:textBlock v:margins="rect(4,4,4,4)" v:verticalAlign="0"/>
						<v:textRect cx="58.7401" cy="130.334" width="117.49" height="27.9643"/>
						<rect x="0" y="116.352" width="117.48" height="27.9643" class="st8"/>
						<text x="36.23" y="136.55" class="st9" v:langID="1033"><v:paragraph v:horizAlign="1"/><v:tabList/>Event<v:newlineChar/><tspan
									x="37.57" dy="1.2em" class="st10">Hubs</tspan></text>					</g>
				</g>
				<g id="group25837-43" transform="translate(93.7728,-4.50431)" v:mID="25837" v:groupContext="group">
					<v:userDefs>
						<v:ud v:nameU="visNavOrder" v:val="VT0(5789000):26"/>
					</v:userDefs>
					<title>Sheet.25837</title>
					<g id="shape25838-44" v:mID="25838" v:groupContext="shape">
						<title>Sheet.25838</title>
						<desc>Azure Storage</desc>
						<v:userDefs>
							<v:ud v:nameU="visNavOrder" v:val="VT0(4699000):26"/>
						</v:userDefs>
						<v:textBlock v:margins="rect(4,4,4,4)" v:verticalAlign="0"/>
						<v:textRect cx="82.5674" cy="130.334" width="165.14" height="27.9643"/>
						<rect x="0" y="116.352" width="165.135" height="27.9643" class="st8"/>
						<text x="58.98" y="136.55" class="st11" v:langID="1033"><v:paragraph v:horizAlign="1"/><v:tabList/>Azure<v:newlineChar/><tspan
									x="50.81" dy="1.2em" class="st10">Storage</tspan></text>					</g>
					<g id="group25839-48" transform="translate(66.4598,-35.0176)" v:mID="25839" v:groupContext="group">
						<v:userDefs>
							<v:ud v:nameU="visNavOrder" v:val="VT0(4700000):26"/>
						</v:userDefs>
						<title>Sheet.25839</title>
						<g id="group25840-49" v:mID="25840" v:groupContext="group">
							<v:userDefs>
								<v:ud v:nameU="visNavOrder" v:prompt="" v:val="VT0(4698000):26"/>
							</v:userDefs>
							<title>Sheet.25840</title>
							<g id="group25841-50" v:mID="25841" v:groupContext="group">
								<title>Sheet.25841</title>
								<g id="shape25842-51" v:mID="25842" v:groupContext="shape">
									<title>Sheet.25842</title>
									<path d="M16.13 113.16 C7.25 113.14 0.07 110.5 0.08 107.27 L0 138.4 C0 141.61 7.06 144.23 15.83
												 144.29 L16.05 144.29 C24.92 144.32 32.12 141.71 32.13 138.48 L32.21 107.35 C32.2
												 110.58 25 113.18 16.13 113.16 Z" class="st12"/>
								</g>
								<g id="shape25843-55" v:mID="25843" v:groupContext="shape"
										transform="translate(0.0715424,-31.1368)">
									<title>Sheet.25843</title>
									<path d="M32.14 138.49 C32.14 141.72 24.93 144.32 16.06 144.3 C7.19 144.28 0 141.64 0.01 138.4
												 C0.02 135.17 7.22 132.57 16.09 132.59 C24.96 132.62 32.14 135.24 32.13 138.49 L32.14
												 138.49 Z" class="st13"/>
									<path d="M32.14 138.49 C32.14 141.72 24.93 144.32 16.06 144.3 C7.19 144.28 0 141.64 0.01 138.4
												 C0.02 135.17 7.22 132.57 16.09 132.59 C24.96 132.62 32.14 135.24 32.13 138.49"
											class="st14"/>
								</g>
								<g id="shape25844-58" v:mID="25844" v:groupContext="shape" transform="translate(3.82354,-33.7389)">
									<title>Sheet.25844</title>
									<path d="M24.63 140.61 C24.63 142.66 19.11 144.32 12.31 144.3 C5.51 144.27 0 142.6 0.01 140.54
												 C0.01 138.49 5.53 136.83 12.33 136.85 C19.13 136.87 24.64 138.55 24.63 140.61 Z"
											class="st15"/>
								</g>
								<g id="shape25845-60" v:mID="25845" v:groupContext="shape" transform="translate(6.38317,-33.7601)">
									<title>Sheet.25845</title>
									<path d="M9.76 141.45 A29.6265 29.6265 -180 0 0 0 142.84 A28.617 28.617 -180 0 0 9.75 144.32
												 A28.6541 28.6541 -180 0 0 19.51 142.9 A29.6133 29.6133 -180 0 0 9.76 141.45 Z"
											class="st16"/>
								</g>
							</g>
						</g>
						<g id="group25846-62" transform="translate(4.35307,-4.74036)" v:mID="25846" v:groupContext="group">
							<v:userDefs>
								<v:ud v:nameU="visNavOrder" v:prompt="" v:val="VT0(1000):26"/>
							</v:userDefs>
							<title>Sheet.25846</title>
							<g id="shape25847-63" v:mID="25847" v:groupContext="shape">
								<title>Sheet.25847</title>
								<path d="M20.69 120.81 L2.82 120.81 C1.27 120.81 0 122.06 0 123.62 L0 127.38 L0 137.73 L0 141.5 C0
											 143.05 1.27 144.32 2.82 144.32 L20.69 144.32 C22.25 144.32 23.51 143.05 23.51 141.5
											 L23.51 137.73 L23.51 127.38 L23.51 123.62 C23.51 122.06 22.25 120.81 20.69 120.81 Z"
										class="st17"/>
							</g>
							<g id="shape25848-65" v:mID="25848" v:groupContext="shape" transform="translate(1.881,-8.93492)">
								<title>Sheet.25848</title>
								<rect x="0" y="139.144" width="19.7504" height="5.17274" class="st18"/>
							</g>
							<g id="shape25849-67" v:mID="25849" v:groupContext="shape" transform="translate(1.881,-1.88119)">
								<title>Sheet.25849</title>
								<rect x="0" y="139.144" width="19.7504" height="5.17274" class="st19"/>
							</g>
							<g id="shape25850-69" v:mID="25850" v:groupContext="shape" transform="translate(1.881,-15.9886)">
								<title>Sheet.25850</title>
								<rect x="0" y="139.144" width="19.7504" height="5.17274" class="st20"/>
							</g>
							<g id="shape25851-71" v:mID="25851" v:groupContext="shape" transform="translate(1.881,-13.1668)">
								<title>Sheet.25851</title>
								<rect x="0" y="143.376" width="19.7504" height="0.940495" class="st21"/>
							</g>
							<g id="shape25852-73" v:mID="25852" v:groupContext="shape" transform="translate(1.881,-20.2206)">
								<title>Sheet.25852</title>
								<rect x="0" y="143.376" width="19.7504" height="0.940495" class="st22"/>
							</g>
							<g id="shape25853-75" v:mID="25853" v:groupContext="shape" transform="translate(1.881,-6.11311)">
								<title>Sheet.25853</title>
								<rect x="0" y="143.376" width="19.7504" height="0.940495" class="st23"/>
							</g>
							<g id="shape25854-77" v:mID="25854" v:groupContext="shape">
								<title>Sheet.25854</title>
								<path d="M2.82 144.32 L4.18 144.32 L20.22 120.81 L2.82 120.81 C1.27 120.81 0 122.06 0 123.62 L0 127.38
											 L0 137.73 L0 141.5 C0 143.05 1.27 144.32 2.82 144.32 Z" class="st24"/>
							</g>
						</g>
					</g>
				</g>
				<g id="group25855-79" transform="translate(235.04,0)" v:mID="25855" v:groupContext="group">
					<v:userDefs>
						<v:ud v:nameU="visNavOrder" v:val="VT0(5790000):26"/>
					</v:userDefs>
					<title>Sheet.25855</title>
					<g id="shape25856-80" v:mID="25856" v:groupContext="shape">
						<title>Sheet.25856</title>
						<desc>Managed Partners</desc>
						<v:userDefs>
							<v:ud v:nameU="visNavOrder" v:prompt="" v:val="VT0(5459000):26"/>
						</v:userDefs>
						<v:textBlock v:margins="rect(4,4,4,4)" v:verticalAlign="0"/>
						<v:textRect cx="51.7951" cy="128.082" width="103.6" height="32.4686"/>
						<rect x="0" y="111.848" width="103.59" height="32.4686" class="st8"/>
						<text x="13.2" y="132.05" class="st25" v:langID="1033"><v:paragraph v:horizAlign="1"/><v:tabList/>Managed<v:newlineChar/><tspan
									x="18.01" dy="1.2em" class="st10">Partners</tspan></text>					</g>
					<g id="group25857-84" transform="translate(31.7857,-39.5219)" v:mID="25857" v:groupContext="group">
						<v:userDefs>
							<v:ud v:nameU="visNavOrder" v:val="VT0(5530000):26"/>
						</v:userDefs>
						<title>Sheet.25857</title>
						<g id="shape25858-85" v:mID="25858" v:groupContext="shape" transform="translate(33.8615,0)">
							<title>Sheet.25858</title>
							<path d="M2.8 109.55 L0 109.55 L0 144.32 L2.8 139.09 L2.8 109.55 Z" class="st26"/>
						</g>
						<g id="shape25859-87" v:mID="25859" v:groupContext="shape" transform="translate(33.8615,-0.0108644)">
							<title>Sheet.25859</title>
							<path d="M2.82 139.05 L2.8 139.09 L0 144.32 L2.8 142.16 L6.16 139.57 L2.82 139.05 Z" class="st27"/>
						</g>
						<g id="shape25860-89" v:mID="25860" v:groupContext="shape" transform="translate(16.7257,-34.7823)">
							<title>Sheet.25860</title>
							<path d="M2.12 139.16 A4.27513 4.27513 0 0 1 6.53 135.05 A4.2697 4.2697 0 0 1 10.94 139.16 L10.94 144.32
										 L13.07 144.32 L13.07 139.16 A6.54035 6.54035 -180 0 0 0 139.16 L0 144.32 L2.12 144.32 L2.12
										 139.16 Z" class="st28"/>
						</g>
						<g id="shape25861-91" v:mID="25861" v:groupContext="shape" transform="translate(10.2397,-34.7823)">
							<title>Sheet.25861</title>
							<path d="M2.12 139.16 A4.2697 4.2697 0 0 1 6.52 135.05 A4.2697 4.2697 0 0 1 10.93 139.16 L10.93 144.32
										 L13.05 144.32 L13.05 139.16 A6.39911 6.39911 -180 0 0 6.53 132.91 A6.39911 6.39911 -180
										 0 0 0 139.16 L0 144.32 L2.12 144.32 L2.12 139.16 Z" class="st29"/>
						</g>
						<g id="shape25862-93" v:mID="25862" v:groupContext="shape" transform="translate(0,-0.0108644)">
							<title>Sheet.25862</title>
							<path d="M33.86 109.56 L33.86 144.32 L0 141.64 L1.03 109.56 L33.86 109.56 ZM36.66 109.56 L36.66 139.09
										 L40.02 139.57 L38.99 109.56 L36.66 109.56 Z" class="st30"/>
						</g>
						<g id="shape25863-95" v:mID="25863" v:groupContext="shape" transform="translate(4.40279,-8.93323)">
							<title>Sheet.25863</title>
							<path d="M24.79 138.97 A6.24701 6.24701 -180 0 0 19.9 133.05 A7.73815 7.73815 -180 0 0 12.67 125.57 A6.72776
										 6.72776 -180 0 0 5.78 130.04 A6.24701 6.24701 -180 0 0 0 136.33 A7.42851 7.42851 -180 0
										 0 6.94 143.55 C7.14 143.55 7.35 143.57 7.55 143.55 L18.86 144.32 A1.08644 1.08644 -180 0
										 0 19.15 144.29 A5.33984 5.33984 -180 0 0 24.79 138.97 Z" class="st31"/>
						</g>
					</g>
				</g>
				<g id="group25864-99" transform="translate(324.412,-4.50431)" v:mID="25864" v:groupContext="group">
					<v:userDefs>
						<v:ud v:nameU="visNavOrder" v:val="VT0(5791000):26"/>
					</v:userDefs>
					<title>Sheet.25864</title>
					<g id="group25865-100" transform="translate(64.4036,-34.0022)" v:mID="25865" v:groupContext="group">
						<v:userDefs>
							<v:ud v:nameU="visNavOrder" v:prompt="" v:val="VT0(1212000):26"/>
						</v:userDefs>
						<title>API Management Services.11244</title>
						<g id="group25866-101" v:mID="25866" v:groupContext="group">
							<title>Sheet.25866</title>
							<g id="shape25867-102" v:mID="25867" v:groupContext="shape">
								<title>Sheet.25867</title>
								<path d="M32.2 118.56 A11.4172 11.4172 -180 0 0 20.55 107.48 A11.7703 11.7703 -180 0 0 9.37 115.22
											 A10.8522 10.8522 -180 0 0 0 125.88 A10.9934 10.9934 -180 0 0 11.28 136.48 A7.06216 7.06216
											 -180 0 0 12.26 136.48 L15.09 136.48 A3.46046 3.46046 0 0 1 14.83 135.16 A3.55462 3.55462
											 0 0 1 15.3 133.44 L11.28 133.44 A8.02732 8.02732 0 0 1 2.99 125.88 A7.839 7.839 0 0
											 1 9.84 118.19 L11.63 117.9 L12.22 116.19 A8.78062 8.78062 0 0 1 20.55 110.47 A8.47459
											 8.47459 0 0 1 29.21 118.59 L29.21 121.18 L31.78 121.53 A6.097 6.097 0 0 1 37.1 127.39
											 A6.19116 6.19116 0 0 1 30.93 133.37 L28.04 133.37 A9.22789 9.22789 -180 0 0 18.93 125.88
											 A1.50659 1.50659 -180 1 0 18.93 128.87 A6.23824 6.23824 0 0 1 18.93 141.33 A1.50659
											 1.50659 -180 1 0 18.93 144.32 A9.22789 9.22789 -180 0 0 28.04 136.45 L30.51 136.45 A1.50659
											 1.50659 -180 0 0 30.98 136.45 A9.20435 9.20435 -180 0 0 40.02 127.39 A9.08664 9.08664
											 -180 0 0 32.2 118.56 Z" class="st32"/>
							</g>
							<g id="shape25868-106" v:mID="25868" v:groupContext="shape" transform="translate(14.8305,-5.55557)">
								<title>Sheet.25868</title>
								<path d="M0 140.69 A3.62533 3.62533 -180 0 0 3.63 144.32 L3.72 144.32 A3.62533 3.62533 -180 0 0 7.34
											 140.69 L7.34 140.6 A3.62533 3.62533 -180 0 0 3.72 136.97 L3.63 136.97 A3.62533 3.62533
											 -180 0 0 -0 140.6 L0 140.69 Z" class="st33"/>
							</g>
						</g>
					</g>
					<g id="shape25869-110" v:mID="25869" v:groupContext="shape">
						<title>Sheet.25869</title>
						<desc>Import / Export APIs</desc>
						<v:userDefs>
							<v:ud v:nameU="visNavOrder" v:prompt="" v:val="VT0(1213000):26"/>
						</v:userDefs>
						<v:textBlock v:margins="rect(4,4,4,4)" v:verticalAlign="0"/>
						<v:textRect cx="84.4131" cy="130.334" width="168.83" height="27.9643"/>
						<rect x="0" y="116.352" width="168.826" height="27.9643" class="st8"/>
						<text x="50.24" y="136.55" class="st9" v:langID="1033"><v:paragraph v:horizAlign="1"/><v:tabList/>Import / <v:newlineChar/><tspan
									x="37.59" dy="1.2em" class="st10">Export </tspan><tspan class="st34">APIs</tspan></text>					</g>
				</g>
				<g id="group25870-115" transform="translate(471.245,-4.50431)" v:mID="25870" v:groupContext="group">
					<v:userDefs>
						<v:ud v:nameU="visNavOrder" v:val="VT0(5792000):26"/>
					</v:userDefs>
					<title>Sheet.25870</title>
					<g id="group25871-116" transform="translate(22.9816,-33.7869)" v:mID="25871" v:groupContext="group">
						<v:userDefs>
							<v:ud v:nameU="visNavOrder" v:prompt="" v:val="VT0(1204000):26"/>
						</v:userDefs>
						<title>Logic Apps.13970</title>
						<g id="group25872-117" v:mID="25872" v:groupContext="group">
							<title>Sheet.25872</title>
							<g id="shape25873-118" v:mID="25873" v:groupContext="shape" transform="translate(13.5446,-9.70213)">
								<title>Sheet.25873</title>
								<path d="M11.43 131.83 L11.43 127.03 L9.03 127.03 L9.03 131.83 C9.03 132.69 8.26 133.46 7.01 133.85
											 L3.75 134.52 C1.54 135.19 0 136.92 0 138.84 L0 144.32 L2.4 144.32 L2.4 138.84 C2.4 137.98
											 3.17 137.21 4.42 136.82 L7.68 136.06 C9.89 135.48 11.43 133.75 11.43 131.83 Z"
										class="st35"/>
							</g>
							<g id="shape25874-120" v:mID="25874" v:groupContext="shape" transform="translate(10.5667,-5.28334)">
								<title>Sheet.25874</title>
								<path d="M8.26 142.4 L8.26 137.98 C8.26 136.92 7.4 136.06 6.34 136.06 L1.92 136.06 C0.86 136.06 0
											 136.92 0 137.98 L0 142.4 C0 143.45 0.86 144.32 1.92 144.32 L6.34 144.32 C7.4 144.32
											 8.26 143.45 8.26 142.4 Z" class="st36"/>
							</g>
							<g id="shape25875-122" v:mID="25875" v:groupContext="shape" transform="translate(22.2861,-9.51001)">
								<title>Sheet.25875</title>
								<path d="M0 131.64 L0 126.83 L2.4 126.83 L2.4 131.64 C2.4 132.5 3.17 133.27 4.42 133.65 L8.45 134.52
											 C10.66 135.19 12.2 136.92 12.2 138.84 L12.2 144.32 L9.8 144.32 L9.8 138.84 C9.8 137.98
											 9.03 137.21 7.78 136.82 L3.75 135.96 C1.54 135.29 0 133.56 0 131.64 Z" class="st35"/>
							</g>
							<g id="shape25876-124" v:mID="25876" v:groupContext="shape" transform="translate(29.2025,-5.09122)">
								<title>Sheet.25876</title>
								<path d="M0 142.4 L0 137.98 C0 136.92 0.86 136.06 1.92 136.06 L6.34 136.06 C7.4 136.06 8.26 136.92
											 8.26 137.98 L8.26 142.4 C8.26 143.45 7.4 144.32 6.34 144.32 L1.92 144.32 C0.86 144.32
											 0 143.45 0 142.4 Z" class="st36"/>
							</g>
							<g id="shape25877-126" v:mID="25877" v:groupContext="shape" transform="translate(22.2861,-22.3821)">
								<title>Sheet.25877</title>
								<rect x="0" y="139.705" width="2.6897" height="4.61091" class="st35"/>
							</g>
							<g id="shape25878-128" v:mID="25878" v:groupContext="shape" transform="translate(19.2121,-25.1679)">
								<title>Sheet.25878</title>
								<path d="M6.24 138.07 L6.24 141.63 L2.69 141.63 L2.69 138.07 L6.24 138.07 ZM7.01 135.38 L1.92 135.38
											 C0.86 135.38 0 136.25 0 137.3 L0 142.4 C0 143.45 0.86 144.32 1.92 144.32 L7.01 144.32
											 C8.07 144.32 8.93 143.45 8.93 142.4 L8.93 137.3 C8.93 136.25 8.07 135.38 7.01 135.38
											 Z" class="st37"/>
							</g>
							<g id="shape25879-130" v:mID="25879" v:groupContext="shape">
								<title>Sheet.25879</title>
								<path d="M7.59 144.32 C5.57 144.32 4.13 143.93 3.27 143.26 C2.4 142.49 2.02 141.24 2.02 139.42 L2.02
											 129.43 C2.02 127.79 1.34 126.93 0 126.93 L0 124.43 C1.34 124.43 2.02 123.57 2.02 121.84
											 L2.02 112.04 C2.02 110.21 2.4 108.87 3.27 108.1 C4.13 107.33 5.57 107.04 7.59 107.04
											 L7.59 109.54 C6.15 109.54 5.38 110.31 5.38 111.94 L5.38 121.55 C5.38 123.76 4.71 125.1
											 3.27 125.68 C4.61 126.26 5.38 127.6 5.38 129.81 L5.38 139.32 C5.38 140.19 5.57 140.86
											 5.86 141.24 C6.24 141.63 6.72 141.82 7.49 141.82 L7.59 144.32 C7.49 144.32 7.59 144.32
											 7.59 144.32 ZM40.44 107.04 C42.46 107.04 43.9 107.43 44.76 108.1 C45.63 108.87 46.01
											 110.12 46.01 111.94 L46.01 121.93 C46.01 123.57 46.69 124.43 48.03 124.43 L48.03 126.93
											 C46.69 126.93 46.01 127.79 46.01 129.52 L46.01 139.23 C46.01 141.05 45.63 142.4 44.76
											 143.16 C43.9 143.93 42.46 144.32 40.44 144.32 L40.44 141.82 C41.88 141.82 42.65 141.05
											 42.65 139.42 L42.65 129.81 C42.65 127.6 43.32 126.26 44.76 125.68 C43.42 125.1 42.65
											 123.76 42.65 121.55 L42.65 112.04 C42.65 111.18 42.46 110.5 42.17 110.12 C41.79 109.73
											 41.31 109.54 40.54 109.54 L40.44 107.04 Z" class="st35"/>
							</g>
						</g>
					</g>
					<g id="shape25880-132" v:mID="25880" v:groupContext="shape">
						<title>Sheet.25880</title>
						<desc>Logic Apps</desc>
						<v:userDefs>
							<v:ud v:nameU="visNavOrder" v:val="VT0(1208000):26"/>
						</v:userDefs>
						<v:textBlock v:margins="rect(4,4,4,4)" v:verticalAlign="0"/>
						<v:textRect cx="46.9967" cy="130.334" width="94" height="27.9643"/>
						<rect x="0" y="116.352" width="93.9935" height="27.9643" class="st8"/>
						<text x="25.22" y="136.55" class="st9" v:langID="1033"><v:paragraph v:horizAlign="1"/><v:tabList/>Logic <v:newlineChar/><tspan
									x="26.23" dy="1.2em" class="st10">Apps</tspan></text>					</g>
				</g>
				<g id="group25881-136" transform="translate(544.912,-4.50431)" v:mID="25881" v:groupContext="group">
					<v:userDefs>
						<v:ud v:nameU="visNavOrder" v:val="VT0(5793000):26"/>
					</v:userDefs>
					<title>Sheet.25881</title>
					<g id="group25882-137" transform="translate(63.0274,-33.0598)" v:mID="25882" v:groupContext="group">
						<v:userDefs>
							<v:ud v:nameU="visNavOrder" v:prompt="" v:val="VT0(1205000):26"/>
						</v:userDefs>
						<title>Function App.13979</title>
						<g id="group25883-138" v:mID="25883" v:groupContext="group">
							<title>Sheet.25883</title>
							<g id="shape25884-139" v:mID="25884" v:groupContext="shape" transform="translate(0.00636057,-8.37142)">
								<title>Sheet.25884</title>
								<path d="M12.95 142.71 L11.52 144.13 a0.712743 0.712743 0 0 1 -0.950324 0 L0.36 133.92 A1.44449 1.44449
											 0 0 1 0.36 132.02 L1.54 130.59 L12.95 142 a0.446652 0.446652 0 0 1 0 0.712743 Z"
										class="st38"/>
							</g>
							<g id="shape25885-141" v:mID="25885" v:groupContext="shape" transform="translate(0,-17.581)">
								<title>Sheet.25885</title>
								<path d="M11.29 131.01 L12.72 132.44 a0.712743 0.712743 0 0 1 1.59872E-14 0.950324 L1.79 144.32 L0.36
											 142.89 A1.42549 1.42549 0 0 1 0.36 140.99 L10.58 130.77 a0.871922 0.871922 0 0 1 0.712743
											 0.237581 Z" class="st39"/>
							</g>
							<g id="shape25886-143" v:mID="25886" v:groupContext="shape" transform="translate(29.4039,-8.13384)">
								<title>Sheet.25886</title>
								<path d="M11.59 130.36 L13.01 131.78 A1.44449 1.44449 0 0 1 13.01 133.68 L2.56 144.13 a0.712743 0.712743
											 0 0 1 -0.950324 0 L0.18 142.71 a0.712743 0.712743 0 0 1 -6.88338E-15 -0.950324 L11.59
											 130.36 Z" class="st38"/>
							</g>
							<g id="shape25887-145" v:mID="25887" v:groupContext="shape" transform="translate(29.4039,-17.581)">
								<title>Sheet.25887</title>
								<path d="M12.77 142.89 L11.35 144.32 L0.18 133.15 a0.712743 0.712743 0 0 1 -9.65894E-15 -0.950324
											 L1.61 130.77 a0.712743 0.712743 0 0 1 0.950324 0 L12.77 140.99 A1.42549 1.42549 0 0
											 1 12.77 142.89 Z" class="st39"/>
							</g>
							<g id="shape25888-147" v:mID="25888" v:groupContext="shape" transform="translate(10.579,0)">
								<title>Sheet.25888</title>
								<path d="M9.03 126.74 L0.48 126.74 a0.510799 0.510799 0 0 1 -0.475162 -0.475162 L0 126.02 L10.22
											 105.83 C10.45 105.83 10.45 105.59 10.69 105.59 L20.67 105.59 a0.510799 0.510799 0 0
											 1 0.475162 0.475162 L21.14 106.3 L9.27 122.22 L20.91 122.22 a0.510799 0.510799 0 0 1
											 0.475162 0.475162 a0.237581 0.237581 0 0 1 -0.237581 0.237581 L1.66 143.13 C1.43 143.13
											 0.24 144.32 0.71 142.65 L9.03 126.74 Z" class="st40"/>
							</g>
						</g>
					</g>
					<g id="shape25889-151" v:mID="25889" v:groupContext="shape">
						<title>Sheet.25889</title>
						<desc>Functions</desc>
						<v:userDefs>
							<v:ud v:nameU="visNavOrder" v:val="VT0(1209000):26"/>
						</v:userDefs>
						<v:textBlock v:margins="rect(4,4,4,4)" v:verticalAlign="0"/>
						<v:textRect cx="84.4131" cy="130.334" width="168.83" height="27.9643"/>
						<rect x="0" y="116.352" width="168.826" height="27.9643" class="st8"/>
						<text x="45.05" y="136.55" class="st9" v:langID="1033"><v:paragraph v:horizAlign="1"/><v:tabList/>Functions</text>					</g>
				</g>
				<g id="group25890-154" transform="translate(678.115,-5.77872)" v:mID="25890" v:groupContext="group">
					<v:userDefs>
						<v:ud v:nameU="visNavOrder" v:val="VT0(5794000):26"/>
					</v:userDefs>
					<title>Sheet.25890</title>
					<g id="shape25891-155" v:mID="25891" v:groupContext="shape">
						<title>Sheet.25891</title>
						<desc>Azure Devops</desc>
						<v:userDefs>
							<v:ud v:nameU="visNavOrder" v:prompt="" v:val="VT0(1210000):26"/>
						</v:userDefs>
						<v:textBlock v:margins="rect(4,4,4,4)" v:verticalAlign="0"/>
						<v:textRect cx="61.8181" cy="130.971" width="123.64" height="26.6899"/>
						<rect x="0" y="117.626" width="123.636" height="26.6899" class="st8"/>
						<text x="38.23" y="137.83" class="st25" v:langID="1033"><v:paragraph v:horizAlign="1"/><v:tabList/>Azure <v:newlineChar/><tspan
									x="31.34" dy="1.2em" class="st10">Devops</tspan></text>					</g>
					<g id="group25892-159" transform="translate(40.4324,-29.7625)" v:mID="25892" v:groupContext="group">
						<v:userDefs>
							<v:ud v:nameU="visNavOrder" v:prompt="" v:val="VT0(1211000):26"/>
						</v:userDefs>
						<title>Sheet.25892</title>
						<g id="group25893-160" v:mID="25893" v:groupContext="group">
							<title>Sheet.25893</title>
							<g id="shape25894-161" v:mID="25894" v:groupContext="shape">
								<title>Sheet.25894</title>
								<path d="M42.77 109.39 L42.77 135.52 L31.96 144.32 L15.33 138.26 L15.33 144.32 L6.06 132.08 L33.5
											 134.22 L33.5 110.69 L42.77 109.39 ZM33.62 110.69 L18.3 101.54 L18.3 107.6 L4.16 111.76
											 L0 117.23 L0 129.58 L6.06 132.2 L6.06 116.4 L33.62 110.69 Z" class="st41"/>
							</g>
						</g>
					</g>
				</g>
				<g id="group25895-163" transform="translate(786.341,-5.77872)" v:mID="25895" v:groupContext="group">
					<v:userDefs>
						<v:ud v:nameU="visNavOrder" v:val="VT0(5795000):26"/>
					</v:userDefs>
					<title>Sheet.25895</title>
					<g id="shape25896-164" v:mID="25896" v:groupContext="shape">
						<title>Sheet.25896</title>
						<desc>GitHub</desc>
						<v:userDefs>
							<v:ud v:nameU="visNavOrder" v:val="VT0(1206000):26"/>
						</v:userDefs>
						<v:textBlock v:margins="rect(4,4,4,4)" v:verticalAlign="0"/>
						<v:textRect cx="61.8181" cy="130.971" width="123.64" height="26.6899"/>
						<rect x="0" y="117.626" width="123.636" height="26.6899" class="st8"/>
						<text x="32.65" y="137.83" class="st25" v:langID="1033"><v:paragraph v:horizAlign="1"/><v:tabList/>GitHub</text>					</g>
					<g id="group25897-167" transform="translate(38.7432,-28.3827)" v:mID="25897" v:groupContext="group">
						<v:userDefs>
							<v:ud v:nameU="visNavOrder" v:val="VT0(1207000):26"/>
						</v:userDefs>
						<title>Sheet.25897</title>
						<g id="shape25898-168" v:mID="25898" v:groupContext="shape">
							<title>Sheet.25898</title>
							<path d="M23.08 98.79 C10.32 98.79 0 109.18 0 122.03 C0 132.31 6.61 141.01 15.78 144.08 C16.92 144.32
										 17.34 143.58 17.34 142.97 C17.34 142.43 17.31 140.58 17.31 138.66 C10.89 140.04 9.55 135.89
										 9.55 135.89 C8.52 133.19 6.99 132.5 6.99 132.5 C4.89 131.08 7.14 131.08 7.14 131.08 C9.47
										 131.23 10.7 133.46 10.7 133.46 C12.76 137 16.08 136 17.42 135.39 C17.61 133.89 18.22 132.85
										 18.87 132.27 C13.75 131.73 8.37 129.73 8.37 120.8 C8.37 118.26 9.28 116.18 10.74 114.57
										 C10.51 113.99 9.7 111.6 10.96 108.41 C10.96 108.41 12.91 107.79 17.31 110.79 A22.1853 22.1853
										 0 0 1 23.08 110.02 C25.02 110.02 27.01 110.29 28.84 110.79 C33.24 107.79 35.19 108.41 35.19
										 108.41 C36.45 111.6 35.64 113.99 35.41 114.57 C36.9 116.18 37.78 118.26 37.78 120.8 C37.78
										 129.73 32.4 131.69 27.24 132.27 C28.08 133 28.81 134.39 28.81 136.58 C28.81 139.7 28.77
										 142.2 28.77 142.97 C28.77 143.58 29.19 144.32 30.33 144.09 C39.5 141.01 46.11 132.31 46.11
										 122.03 C46.15 109.18 35.8 98.79 23.08 98.79 Z" class="st42"/>
						</g>
					</g>
				</g>
			</g>
		</g>
	</g>
</svg>
