<svg xmlns="http://www.w3.org/2000/svg" xmlns:xlink="http://www.w3.org/1999/xlink" viewBox="0 0 475.66 152">
  <defs>
    <symbol id="New_Symbol_5" data-name="New Symbol 5" viewBox="0 0 21 20">
      <circle cx="10.5" cy="10" r="10" fill="#505050"/>
      <path d="M12.47,6v5.42h1.25v1.13H12.47v1.85H11.15V12.58H7.35V11.44q.51-.58,1.05-1.26c.37-.45.71-.91,1-1.38s.64-.94.93-1.41.52-.93.72-1.36Zm-1.32,5.42V7.92a21,21,0,0,1-1.26,2c-.42.57-.81,1.08-1.17,1.52Z" fill="#fff"/>
    </symbol>
    <symbol id="New_Symbol_4" data-name="New Symbol 4" viewBox="0 0 21 20">
      <circle cx="10.5" cy="10" r="10" fill="#505050"/>
      <path d="M7.89,14.12V12.84a2.92,2.92,0,0,0,1.85.65,2.18,2.18,0,0,0,1.34-.38,1.23,1.23,0,0,0,.5-1c0-.95-.73-1.43-2.18-1.43H8.74V9.56h.63c1.29,0,1.94-.45,1.94-1.35S10.8,7,9.79,7a2.46,2.46,0,0,0-1.58.6V6.37a4.05,4.05,0,0,1,2-.48A2.68,2.68,0,0,1,12,6.45a1.77,1.77,0,0,1,.67,1.44A2,2,0,0,1,11,10v0a2.18,2.18,0,0,1,1.43.63A1.91,1.91,0,0,1,13,12.05a2.22,2.22,0,0,1-.85,1.82,3.39,3.39,0,0,1-2.24.7A3.83,3.83,0,0,1,7.89,14.12Z" fill="#fff"/>
    </symbol>
    <symbol id="New_Symbol_3" data-name="New Symbol 3" viewBox="0 0 21 20">
      <circle cx="10.5" cy="10" r="10" fill="#505050"/>
      <path d="M13,14.43H7.74v-.65A2.56,2.56,0,0,1,7.85,13a3.93,3.93,0,0,1,.3-.66,4.67,4.67,0,0,1,.44-.58c.17-.18.35-.35.54-.52l.59-.5c.2-.15.39-.31.58-.47s.35-.3.5-.45a5,5,0,0,0,.38-.45,2.55,2.55,0,0,0,.24-.5,1.7,1.7,0,0,0,.09-.57,1.5,1.5,0,0,0-.1-.58,1.22,1.22,0,0,0-.29-.41,1.14,1.14,0,0,0-.44-.26A1.87,1.87,0,0,0,10.13,7a2.58,2.58,0,0,0-1.05.24,3.67,3.67,0,0,0-1,.72V6.65a3.24,3.24,0,0,1,.52-.33,3,3,0,0,1,.55-.24,2.68,2.68,0,0,1,.59-.15,4.59,4.59,0,0,1,.66,0,3.66,3.66,0,0,1,1,.14,2.25,2.25,0,0,1,.79.44,2,2,0,0,1,.51.73,2.57,2.57,0,0,1,.18,1,2.92,2.92,0,0,1-.13.92,2.65,2.65,0,0,1-.36.76,3.83,3.83,0,0,1-.56.67c-.21.21-.46.43-.73.65l-.67.53c-.23.18-.43.35-.61.51a3.22,3.22,0,0,0-.44.5.89.89,0,0,0-.16.5v0H13Z" fill="#fff"/>
    </symbol>
    <symbol id="New_Symbol_2" data-name="New Symbol 2" viewBox="0 0 21 20">
      <circle cx="10.5" cy="10" r="10" fill="#505050"/>
      <path d="M11.69,5.84v8.59H10.33V7.5A4.13,4.13,0,0,1,9.54,8a8.43,8.43,0,0,1-1,.33V7.12l.65-.24.63-.27.62-.34c.21-.13.42-.27.64-.43Z" fill="#fff"/>
    </symbol>
  </defs>
  <g id="Shapes">
    <rect width="475.66" height="152" fill="#fff"/>
    <rect y="0.63" width="475.66" height="151.37" fill="#fff"/>
    <rect y="1.37" width="105" height="150" fill="#ebebeb"/>
    <rect x="371" y="1.37" width="104.66" height="90" fill="#0072c6"/>
    <rect x="371" y="96.37" width="104.66" height="55" fill="#d2d2d2"/>
    <g>
      <line x1="104.91" y1="15.2" x2="365.49" y2="15.2" fill="none" stroke="#000" stroke-miterlimit="10"/>
      <polygon points="364.39 18.94 370.87 15.2 364.39 11.46 364.39 18.94"/>
    </g>
    <g>
      <line x1="110.29" y1="45.08" x2="370.87" y2="45.08" fill="none" stroke="#000" stroke-miterlimit="10"/>
      <polygon points="111.39 48.82 104.91 45.08 111.39 41.34 111.39 48.82"/>
    </g>
    <g>
      <line x1="104.91" y1="104.51" x2="365.49" y2="104.51" fill="none" stroke="#000" stroke-miterlimit="10"/>
      <polygon points="364.39 108.25 370.87 104.51 364.39 100.77 364.39 108.25"/>
    </g>
    <g>
      <line x1="110.34" y1="140.67" x2="370.91" y2="140.67" fill="none" stroke="#000" stroke-miterlimit="10"/>
      <polygon points="111.43 144.41 104.96 140.67 111.43 136.93 111.43 144.41"/>
    </g>
    <use width="21" height="20" transform="translate(153.64 130.2)" xlink:href="#New_Symbol_5"/>
    <use width="21" height="20" transform="translate(153.64 94.51)" xlink:href="#New_Symbol_4"/>
    <use width="21" height="20" transform="translate(153.64 35.08)" xlink:href="#New_Symbol_3"/>
    <use width="21" height="20" transform="translate(153.64 5.2)" xlink:href="#New_Symbol_2"/>
    <polygon points="187.08 27.21 179.53 32.66 182.41 41.46 191.75 41.46 194.64 32.66 187.08 27.21" fill="#ebebeb" stroke="#000" stroke-miterlimit="10" stroke-width="0.75"/>
    <g>
      <path d="M52.1,77.2c-7.08-.25-11.44-2.35-12.55-6l-.12-.41,0-7.19c0-8.21,0-8.36.44-9.68.81-2.4,2.67-3.94,5.64-4.61l.65-.15,8.12,0c5.8,0,8.21-.06,8.49-.12a7.88,7.88,0,0,0,3.69-1.44,7.73,7.73,0,0,0,2.64-4.09c.32-1.24.31-1.1.34-5.48l0-4.06H75.3l.58.16c3,.85,5.22,3.74,6.17,8.08.37,1.67.37,1.74.37,6s0,4.17-.29,5.54a14.2,14.2,0,0,1-1.22,3.55A8.47,8.47,0,0,1,76,61.73c-1.2.41-.2.38-12,.41l-10.61,0v1.93l7,0,7,0,0,3.46c0,1.9,0,3.63,0,3.82A4.34,4.34,0,0,1,67,73a7.82,7.82,0,0,1-1.86,1.86c-1.88,1.25-4.75,2-8.56,2.26-1.28.09-3.09.11-4.46.07Zm9.75-4.49A2.53,2.53,0,1,0,59,70.62h0a2.6,2.6,0,0,0,2.48,2.16,2.31,2.31,0,0,0,.46,0ZM31.63,62.49a7.38,7.38,0,0,1-4.28-2.67c-2.09-2.61-3.17-7-3-12.41A19.13,19.13,0,0,1,26,39.34a8.33,8.33,0,0,1,6-5c.58-.12.6-.12,11-.12,5.72,0,10.44,0,10.48,0s.1-.16.1-1v-1l-7.08,0-7,0,0-3.65c0-4,0-3.94.35-4.69,1.16-2.55,4.69-4.1,10.31-4.54.4,0,1.5-.1,2.43-.12,6.21-.12,10.77,1,13.16,3.29a8.61,8.61,0,0,1,.78.82,7.47,7.47,0,0,1,1,2l.14.46V33.3c0,7.05,0,7.58-.12,8.08a9.42,9.42,0,0,1-.66,2.07A7,7,0,0,1,62.2,47c-1.36.4-.75.38-9.75.41s-8.39,0-9.63.37a7.17,7.17,0,0,0-5,5.25c-.32,1.18-.31,1.08-.34,5.45l0,4.1H34.77A27.42,27.42,0,0,1,31.63,62.49Zm14.88-34a2.36,2.36,0,1,0-1.86.09,2.11,2.11,0,0,0,.9.11A1.89,1.89,0,0,0,46.51,28.52Z" fill="#fed243"/>
      <path d="M31.61,62.49a7.35,7.35,0,0,1-4.26-2.67c-2.09-2.61-3.17-7-3-12.41A19.13,19.13,0,0,1,26,39.34a8.33,8.33,0,0,1,6-5c.58-.12.6-.12,11-.12,5.72,0,10.44,0,10.48,0s.1-.16.1-1v-1l-7.08,0-7,0,0-3.65c0-4,0-3.94.35-4.69,1.16-2.55,4.69-4.1,10.31-4.54.4,0,1.5-.1,2.43-.12,6.21-.12,10.77,1,13.16,3.29a8.61,8.61,0,0,1,.78.82,7.47,7.47,0,0,1,1,2l.14.46V33.3c0,7.05,0,7.58-.12,8.08a9.42,9.42,0,0,1-.66,2.07A7,7,0,0,1,62.2,47c-1.36.4-.75.38-9.75.41s-8.39,0-9.63.37a7.17,7.17,0,0,0-5,5.25c-.32,1.18-.31,1.08-.34,5.45l0,4.1H34.77a27.42,27.42,0,0,1-3.14,0Zm14.9-34a2.36,2.36,0,1,0-1.86.09,2.11,2.11,0,0,0,.9.11A1.89,1.89,0,0,0,46.51,28.52Z" fill="#3671a4"/>
    </g>
  </g>
  <g id="Text">
    <g>
      <path d="M186.69,10.2H185.6l-.89-2.35h-3.57l-.83,2.35h-1.1l3.22-8.4h1ZM184.39,7l-1.32-3.58a2.59,2.59,0,0,1-.13-.56h0a2.59,2.59,0,0,1-.13.56L181.47,7Z" fill="#1e1e1e"/>
      <path d="M191.76,9.93a3.19,3.19,0,0,1-1.64.41,2.72,2.72,0,0,1-2.07-.83,3,3,0,0,1-.79-2.17A3.3,3.3,0,0,1,188.11,5a3,3,0,0,1,2.26-.9,3.24,3.24,0,0,1,1.4.29v1a2.47,2.47,0,0,0-1.43-.47,1.93,1.93,0,0,0-1.51.66,2.5,2.5,0,0,0-.59,1.73,2.36,2.36,0,0,0,.56,1.66,1.87,1.87,0,0,0,1.48.61A2.41,2.41,0,0,0,191.76,9Z" fill="#1e1e1e"/>
      <path d="M198.22,13h-1V9.17h0a2.15,2.15,0,0,1-2.05,1.17,2.29,2.29,0,0,1-1.82-.8,3.33,3.33,0,0,1-.68-2.2A3.62,3.62,0,0,1,193.44,5a2.51,2.51,0,0,1,2-.89,1.89,1.89,0,0,1,1.78,1h0V4.2h1Zm-1-5.46V6.63a1.74,1.74,0,0,0-.48-1.25,1.61,1.61,0,0,0-1.23-.51,1.64,1.64,0,0,0-1.37.64,2.85,2.85,0,0,0-.5,1.81,2.48,2.48,0,0,0,.48,1.62,1.54,1.54,0,0,0,1.26.59A1.69,1.69,0,0,0,196.76,9,2.12,2.12,0,0,0,197.26,7.5Z" fill="#1e1e1e"/>
      <path d="M204.94,10.2h-1V9.25h0a2,2,0,0,1-1.85,1.09c-1.43,0-2.15-.85-2.15-2.55V4.2h1V7.63c0,1.27.48,1.9,1.45,1.9A1.47,1.47,0,0,0,203.53,9,2,2,0,0,0,204,7.66V4.2h1Z" fill="#1e1e1e"/>
      <path d="M207.26,2.68a.61.61,0,0,1-.62-.62.61.61,0,0,1,.18-.45.59.59,0,0,1,.44-.18.6.6,0,0,1,.44.18.58.58,0,0,1,.19.45.58.58,0,0,1-.19.44A.6.6,0,0,1,207.26,2.68Zm.47,7.52h-1v-6h1Z" fill="#1e1e1e"/>
      <path d="M212.68,5.17A1.18,1.18,0,0,0,212,5a1.2,1.2,0,0,0-1,.58,2.64,2.64,0,0,0-.42,1.58V10.2h-1v-6h1V5.44h0a2.08,2.08,0,0,1,.62-1,1.42,1.42,0,0,1,1-.35,1.44,1.44,0,0,1,.57.08Z" fill="#1e1e1e"/>
      <path d="M218.56,7.44h-4.24A2.3,2.3,0,0,0,214.86,9a1.88,1.88,0,0,0,1.42.54,2.94,2.94,0,0,0,1.86-.66v.9a3.47,3.47,0,0,1-2.09.57,2.53,2.53,0,0,1-2-.82,3.35,3.35,0,0,1-.72-2.3,3.28,3.28,0,0,1,.79-2.28,2.54,2.54,0,0,1,2-.88,2.26,2.26,0,0,1,1.83.76,3.19,3.19,0,0,1,.64,2.12Zm-1-.81a2,2,0,0,0-.41-1.3,1.35,1.35,0,0,0-1.09-.46,1.54,1.54,0,0,0-1.16.49,2.12,2.12,0,0,0-.58,1.27Z" fill="#1e1e1e"/>
      <path d="M226.08,10.14a1.76,1.76,0,0,1-.89.19c-1.05,0-1.58-.59-1.58-1.76V5h-1V4.2h1V2.74l1-.31V4.2h1.51V5h-1.51V8.4a1.37,1.37,0,0,0,.21.86.78.78,0,0,0,.68.26.94.94,0,0,0,.62-.2Z" fill="#1e1e1e"/>
      <path d="M229.74,10.34a2.79,2.79,0,0,1-2.12-.84,3.11,3.11,0,0,1-.8-2.23,3.25,3.25,0,0,1,.83-2.36,3,3,0,0,1,2.23-.85,2.7,2.7,0,0,1,2.1.83,3.27,3.27,0,0,1,.75,2.29,3.25,3.25,0,0,1-.81,2.3A2.87,2.87,0,0,1,229.74,10.34Zm.07-5.47a1.83,1.83,0,0,0-1.46.63,2.59,2.59,0,0,0-.54,1.74,2.46,2.46,0,0,0,.54,1.68,1.86,1.86,0,0,0,1.46.61,1.79,1.79,0,0,0,1.44-.6,2.63,2.63,0,0,0,.5-1.72,2.66,2.66,0,0,0-.5-1.73A1.76,1.76,0,0,0,229.81,4.87Z" fill="#1e1e1e"/>
      <path d="M239.19,10.2h-1.34L235.2,7.32h0V10.2h-1V1.32h1V7h0l2.52-2.75H239l-2.79,2.9Z" fill="#1e1e1e"/>
      <path d="M244.71,7.44h-4.24A2.3,2.3,0,0,0,241,9a1.88,1.88,0,0,0,1.42.54,2.94,2.94,0,0,0,1.86-.66v.9a3.47,3.47,0,0,1-2.09.57,2.53,2.53,0,0,1-2-.82,3.35,3.35,0,0,1-.72-2.3,3.28,3.28,0,0,1,.79-2.28,2.54,2.54,0,0,1,2-.88,2.26,2.26,0,0,1,1.83.76,3.19,3.19,0,0,1,.64,2.12Zm-1-.81a2,2,0,0,0-.41-1.3,1.35,1.35,0,0,0-1.09-.46,1.54,1.54,0,0,0-1.16.49,2.18,2.18,0,0,0-.58,1.27Z" fill="#1e1e1e"/>
      <path d="M251.14,10.2h-1V6.78c0-1.27-.46-1.91-1.39-1.91a1.5,1.5,0,0,0-1.19.54,2,2,0,0,0-.48,1.37V10.2h-1v-6h1v1h0a2.16,2.16,0,0,1,2-1.14,1.82,1.82,0,0,1,1.5.64,2.79,2.79,0,0,1,.52,1.83Z" fill="#1e1e1e"/>
    </g>
    <g>
      <path d="M205.62,38.93h-1.09l-.89-2.36h-3.56l-.84,2.36h-1.1l3.23-8.41h1Zm-2.3-3.24L202,32.11a3.55,3.55,0,0,1-.13-.57h0a3.38,3.38,0,0,1-.14.57l-1.3,3.58Z" fill="#1e1e1e"/>
      <path d="M210.69,38.65a3.1,3.1,0,0,1-1.64.42,2.69,2.69,0,0,1-2.07-.84,3,3,0,0,1-.79-2.16,3.3,3.3,0,0,1,.85-2.38,3,3,0,0,1,2.27-.9,3.09,3.09,0,0,1,1.39.29v1a2.44,2.44,0,0,0-1.43-.46,1.94,1.94,0,0,0-1.51.65,2.53,2.53,0,0,0-.59,1.74,2.38,2.38,0,0,0,.56,1.66,1.89,1.89,0,0,0,1.48.61,2.39,2.39,0,0,0,1.48-.52Z" fill="#1e1e1e"/>
      <path d="M216.1,38.65a3.14,3.14,0,0,1-1.65.42,2.72,2.72,0,0,1-2.07-.84,3,3,0,0,1-.78-2.16,3.34,3.34,0,0,1,.84-2.38,3,3,0,0,1,2.27-.9,3.13,3.13,0,0,1,1.4.29v1a2.48,2.48,0,0,0-1.43-.46,1.91,1.91,0,0,0-1.51.65,2.53,2.53,0,0,0-.59,1.74,2.38,2.38,0,0,0,.55,1.66,1.91,1.91,0,0,0,1.49.61,2.43,2.43,0,0,0,1.48-.52Z" fill="#1e1e1e"/>
      <path d="M222.25,36.17H218a2.26,2.26,0,0,0,.54,1.54,1.85,1.85,0,0,0,1.42.55,2.89,2.89,0,0,0,1.86-.67v.9a3.41,3.41,0,0,1-2.09.58,2.53,2.53,0,0,1-2-.82A3.35,3.35,0,0,1,217,36a3.28,3.28,0,0,1,.79-2.28,2.54,2.54,0,0,1,2-.88,2.26,2.26,0,0,1,1.83.76,3.17,3.17,0,0,1,.64,2.11Zm-1-.82a2,2,0,0,0-.41-1.29,1.35,1.35,0,0,0-1.09-.46,1.57,1.57,0,0,0-1.16.48,2.24,2.24,0,0,0-.58,1.27Z" fill="#1e1e1e"/>
      <path d="M223.32,38.71v-1a2.84,2.84,0,0,0,1.73.58c.85,0,1.27-.28,1.27-.84a.76.76,0,0,0-.11-.41,1.17,1.17,0,0,0-.29-.3,3,3,0,0,0-.44-.23l-.53-.21a6.76,6.76,0,0,1-.7-.32,2.23,2.23,0,0,1-.51-.37,1.31,1.31,0,0,1-.3-.46,1.57,1.57,0,0,1-.1-.6,1.44,1.44,0,0,1,.19-.75,1.78,1.78,0,0,1,.52-.54,2.21,2.21,0,0,1,.73-.33,3.05,3.05,0,0,1,.85-.11,3.46,3.46,0,0,1,1.4.27v1a2.71,2.71,0,0,0-1.53-.43,1.75,1.75,0,0,0-.48.06,1.15,1.15,0,0,0-.37.17.62.62,0,0,0-.24.27.64.64,0,0,0-.09.34.75.75,0,0,0,.09.39.8.8,0,0,0,.24.28,2.48,2.48,0,0,0,.4.23l.54.21a6.81,6.81,0,0,1,.71.32,2.12,2.12,0,0,1,.54.36,1.38,1.38,0,0,1,.34.46,1.54,1.54,0,0,1,.12.63,1.5,1.5,0,0,1-.19.78,1.71,1.71,0,0,1-.53.54,2.54,2.54,0,0,1-.75.32,3.82,3.82,0,0,1-.9.11A3.41,3.41,0,0,1,223.32,38.71Z" fill="#1e1e1e"/>
      <path d="M228.42,38.71v-1a2.81,2.81,0,0,0,1.72.58c.85,0,1.27-.28,1.27-.84a.76.76,0,0,0-.11-.41,1.17,1.17,0,0,0-.29-.3,2.86,2.86,0,0,0-.43-.23l-.54-.21a6.76,6.76,0,0,1-.7-.32,2,2,0,0,1-.5-.37,1.21,1.21,0,0,1-.31-.46,1.57,1.57,0,0,1-.1-.6,1.44,1.44,0,0,1,.19-.75,1.78,1.78,0,0,1,.52-.54,2.21,2.21,0,0,1,.73-.33,3.07,3.07,0,0,1,.86-.11,3.45,3.45,0,0,1,1.39.27v1a2.7,2.7,0,0,0-1.52-.43,1.83,1.83,0,0,0-.49.06,1.26,1.26,0,0,0-.37.17.62.62,0,0,0-.24.27.64.64,0,0,0-.09.34.75.75,0,0,0,.09.39.74.74,0,0,0,.25.28,2.36,2.36,0,0,0,.39.23l.54.21a6.81,6.81,0,0,1,.71.32,2.12,2.12,0,0,1,.54.36,1.38,1.38,0,0,1,.34.46,1.54,1.54,0,0,1,.12.63,1.5,1.5,0,0,1-.19.78,1.71,1.71,0,0,1-.53.54,2.43,2.43,0,0,1-.75.32,3.82,3.82,0,0,1-.9.11A3.34,3.34,0,0,1,228.42,38.71Z" fill="#1e1e1e"/>
      <path d="M239.94,38.87a1.87,1.87,0,0,1-.89.19c-1.06,0-1.58-.59-1.58-1.76V33.75h-1v-.82h1V31.46l1-.31v1.78h1.51v.82h-1.51v3.38a1.37,1.37,0,0,0,.21.86.8.8,0,0,0,.67.26,1,1,0,0,0,.63-.2Z" fill="#1e1e1e"/>
      <path d="M243.6,39.07a2.77,2.77,0,0,1-2.12-.84,3.12,3.12,0,0,1-.8-2.23,3.23,3.23,0,0,1,.83-2.36,3,3,0,0,1,2.23-.85,2.71,2.71,0,0,1,2.1.82,3.29,3.29,0,0,1,.75,2.29,3.21,3.21,0,0,1-.81,2.3A2.84,2.84,0,0,1,243.6,39.07Zm.07-5.47a1.81,1.81,0,0,0-1.46.63,2.56,2.56,0,0,0-.54,1.73,2.46,2.46,0,0,0,.54,1.68,1.87,1.87,0,0,0,1.46.62,1.75,1.75,0,0,0,1.43-.6,2.61,2.61,0,0,0,.5-1.72,2.65,2.65,0,0,0-.5-1.74A1.75,1.75,0,0,0,243.67,33.6Z" fill="#1e1e1e"/>
      <path d="M253.05,38.93H251.7L249.05,36h0v2.89h-1V30h1v5.64h0l2.52-2.75h1.26l-2.78,2.89Z" fill="#1e1e1e"/>
      <path d="M258.57,36.17h-4.24a2.26,2.26,0,0,0,.54,1.54,1.84,1.84,0,0,0,1.42.55,2.91,2.91,0,0,0,1.86-.67v.9a3.43,3.43,0,0,1-2.09.58,2.53,2.53,0,0,1-2-.82,3.35,3.35,0,0,1-.72-2.3,3.28,3.28,0,0,1,.79-2.28,2.54,2.54,0,0,1,2-.88,2.24,2.24,0,0,1,1.82.76,3.17,3.17,0,0,1,.65,2.11Zm-1-.82a1.9,1.9,0,0,0-.4-1.29,1.36,1.36,0,0,0-1.1-.46,1.56,1.56,0,0,0-1.15.48,2.25,2.25,0,0,0-.59,1.27Z" fill="#1e1e1e"/>
      <path d="M265,38.93h-1V35.51c0-1.28-.46-1.91-1.39-1.91a1.54,1.54,0,0,0-1.2.54,2,2,0,0,0-.47,1.37v3.42h-1v-6h1v1h0a2.16,2.16,0,0,1,2-1.13,1.85,1.85,0,0,1,1.51.63,2.84,2.84,0,0,1,.52,1.84Z" fill="#1e1e1e"/>
    </g>
    <g>
      <path d="M186.5,135.16h-1v-3.84h-4.35v3.84h-1v-8.41h1v3.69h4.35v-3.69h1Z" fill="#1e1e1e"/>
      <path d="M193.55,127.64h-2.43v7.52h-1v-7.52h-2.42v-.89h5.83Z" fill="#1e1e1e"/>
      <path d="M200.15,127.64h-2.43v7.52h-1v-7.52h-2.42v-.89h5.83Z" fill="#1e1e1e"/>
      <path d="M202.33,132v3.18h-1v-8.41h2.31a3,3,0,0,1,2.09.66,2.35,2.35,0,0,1,.74,1.85,2.58,2.58,0,0,1-.82,2,3.14,3.14,0,0,1-2.23.76Zm0-4.34v3.45h1a2.3,2.3,0,0,0,1.55-.47,1.64,1.64,0,0,0,.54-1.31c0-1.11-.66-1.67-2-1.67Z" fill="#1e1e1e"/>
      <path d="M214.36,130.13a1.18,1.18,0,0,0-.73-.19,1.23,1.23,0,0,0-1,.58,2.7,2.7,0,0,0-.41,1.58v3.06h-1v-6h1v1.23h0a2.17,2.17,0,0,1,.63-1,1.46,1.46,0,0,1,.94-.35,1.71,1.71,0,0,1,.58.08Z" fill="#1e1e1e"/>
      <path d="M220.24,132.4H216a2.23,2.23,0,0,0,.54,1.54,1.82,1.82,0,0,0,1.42.55,2.93,2.93,0,0,0,1.86-.67v.9a3.5,3.5,0,0,1-2.09.58,2.55,2.55,0,0,1-2-.82,3.37,3.37,0,0,1-.73-2.3,3.27,3.27,0,0,1,.8-2.28,2.53,2.53,0,0,1,2-.88,2.25,2.25,0,0,1,1.82.76,3.15,3.15,0,0,1,.65,2.11Zm-1-.82a2,2,0,0,0-.4-1.29,1.36,1.36,0,0,0-1.1-.47,1.56,1.56,0,0,0-1.15.49,2.22,2.22,0,0,0-.59,1.27Z" fill="#1e1e1e"/>
      <path d="M221.31,134.94v-1a2.88,2.88,0,0,0,1.73.58c.84,0,1.27-.28,1.27-.85a.72.72,0,0,0-.11-.4,1.22,1.22,0,0,0-.3-.3,1.93,1.93,0,0,0-.43-.23l-.54-.21-.7-.32a2,2,0,0,1-.5-.37,1.26,1.26,0,0,1-.3-.46,1.57,1.57,0,0,1-.11-.6,1.45,1.45,0,0,1,.2-.75,1.64,1.64,0,0,1,.51-.54,2.26,2.26,0,0,1,.74-.33,3,3,0,0,1,.85-.11,3.41,3.41,0,0,1,1.39.26v1a2.71,2.71,0,0,0-1.52-.44,1.53,1.53,0,0,0-.49.07,1.14,1.14,0,0,0-.37.17.85.85,0,0,0-.24.26.82.82,0,0,0-.08.35.93.93,0,0,0,.08.39.83.83,0,0,0,.25.28,1.67,1.67,0,0,0,.4.22l.53.22c.27.1.51.21.72.31a2.44,2.44,0,0,1,.54.37,1.38,1.38,0,0,1,.34.46,1.54,1.54,0,0,1,.12.63,1.47,1.47,0,0,1-.2.77,1.7,1.7,0,0,1-.52.55,2.49,2.49,0,0,1-.76.32,3.68,3.68,0,0,1-.89.11A3.39,3.39,0,0,1,221.31,134.94Z" fill="#1e1e1e"/>
      <path d="M227.64,134.29h0v3.63h-1v-8.76h1v1.05h0a2.27,2.27,0,0,1,2.08-1.19,2.2,2.2,0,0,1,1.81.8,3.37,3.37,0,0,1,.65,2.16,3.71,3.71,0,0,1-.74,2.41,2.43,2.43,0,0,1-2,.91A2,2,0,0,1,227.64,134.29Zm0-2.42v.84a1.8,1.8,0,0,0,.48,1.26,1.62,1.62,0,0,0,1.23.52,1.6,1.6,0,0,0,1.37-.67,3.07,3.07,0,0,0,.49-1.86,2.41,2.41,0,0,0-.46-1.57,1.53,1.53,0,0,0-1.25-.57,1.71,1.71,0,0,0-1.35.59A2.13,2.13,0,0,0,227.62,131.87Z" fill="#1e1e1e"/>
      <path d="M236.22,135.3a2.77,2.77,0,0,1-2.12-.84,3.12,3.12,0,0,1-.8-2.23,3.27,3.27,0,0,1,.83-2.37,3,3,0,0,1,2.23-.84,2.71,2.71,0,0,1,2.1.82,3.29,3.29,0,0,1,.75,2.29,3.21,3.21,0,0,1-.81,2.3A2.84,2.84,0,0,1,236.22,135.3Zm.07-5.48a1.8,1.8,0,0,0-1.46.63,2.59,2.59,0,0,0-.54,1.74,2.46,2.46,0,0,0,.54,1.68,1.85,1.85,0,0,0,1.46.62,1.73,1.73,0,0,0,1.43-.61,2.57,2.57,0,0,0,.5-1.71,2.65,2.65,0,0,0-.5-1.74A1.76,1.76,0,0,0,236.29,129.82Z" fill="#1e1e1e"/>
      <path d="M245.67,135.16h-1v-3.43c0-1.27-.47-1.91-1.4-1.91a1.5,1.5,0,0,0-1.19.55,2,2,0,0,0-.47,1.36v3.43h-1v-6h1v1h0a2.16,2.16,0,0,1,2-1.13,1.85,1.85,0,0,1,1.51.63,2.82,2.82,0,0,1,.52,1.84Z" fill="#1e1e1e"/>
      <path d="M247.09,134.94v-1a2.9,2.9,0,0,0,1.73.58c.84,0,1.27-.28,1.27-.85a.72.72,0,0,0-.11-.4,1.07,1.07,0,0,0-.3-.3,1.93,1.93,0,0,0-.43-.23l-.53-.21c-.27-.11-.5-.22-.7-.32a2,2,0,0,1-.51-.37,1.26,1.26,0,0,1-.3-.46,1.57,1.57,0,0,1-.11-.6,1.45,1.45,0,0,1,.2-.75,1.75,1.75,0,0,1,.51-.54,2.26,2.26,0,0,1,.74-.33,3,3,0,0,1,.85-.11,3.46,3.46,0,0,1,1.4.26v1a2.74,2.74,0,0,0-1.53-.44,1.43,1.43,0,0,0-.48.07,1.1,1.1,0,0,0-.38.17.85.85,0,0,0-.24.26.82.82,0,0,0-.08.35.93.93,0,0,0,.08.39.83.83,0,0,0,.25.28,1.67,1.67,0,0,0,.4.22l.53.22c.27.1.51.21.72.31a2.44,2.44,0,0,1,.54.37,1.38,1.38,0,0,1,.34.46,1.54,1.54,0,0,1,.12.63,1.38,1.38,0,0,1-.2.77,1.7,1.7,0,0,1-.52.55,2.49,2.49,0,0,1-.76.32,3.68,3.68,0,0,1-.89.11A3.41,3.41,0,0,1,247.09,134.94Z" fill="#1e1e1e"/>
      <path d="M257.34,132.4h-4.23a2.18,2.18,0,0,0,.54,1.54,1.82,1.82,0,0,0,1.41.55,2.94,2.94,0,0,0,1.87-.67v.9a3.52,3.52,0,0,1-2.09.58,2.55,2.55,0,0,1-2-.82,3.33,3.33,0,0,1-.73-2.3,3.27,3.27,0,0,1,.8-2.28,2.51,2.51,0,0,1,2-.88,2.25,2.25,0,0,1,1.82.76,3.15,3.15,0,0,1,.64,2.11Zm-1-.82a2,2,0,0,0-.4-1.29,1.38,1.38,0,0,0-1.1-.47,1.56,1.56,0,0,0-1.15.49,2.16,2.16,0,0,0-.59,1.27Z" fill="#1e1e1e"/>
    </g>
    <g>
      <path d="M404.87,118.88H403v-5c0-.54,0-1.14.07-1.8h0a8.81,8.81,0,0,1-.27,1.12l-2,5.71h-1.54l-2-5.66c-.05-.15-.14-.54-.26-1.17h-.05c.05.83.07,1.56.07,2.18v4.65h-1.7v-8.4h2.77l1.72,5a7.23,7.23,0,0,1,.29,1.2h0c.11-.47.22-.87.33-1.22l1.72-5h2.7Z" fill="#0072c6"/>
      <path d="M407.48,111.93a1.07,1.07,0,0,1-.77-.28.88.88,0,0,1-.3-.68.85.85,0,0,1,.3-.68,1.11,1.11,0,0,1,.77-.27,1.1,1.1,0,0,1,.77.27.85.85,0,0,1,.3.68.89.89,0,0,1-.3.69A1.1,1.1,0,0,1,407.48,111.93Zm.91,6.95h-1.85v-6h1.85Z" fill="#0072c6"/>
      <path d="M414.47,118.66a3.69,3.69,0,0,1-1.81.36,3.06,3.06,0,0,1-2.24-.83,2.9,2.9,0,0,1-.85-2.17,3.2,3.2,0,0,1,.91-2.41,3.44,3.44,0,0,1,2.46-.88,3.22,3.22,0,0,1,1.53.28v1.57a2.09,2.09,0,0,0-1.29-.43,1.75,1.75,0,0,0-1.27.47,2,2,0,0,0,0,2.53,1.63,1.63,0,0,0,1.23.46,2.43,2.43,0,0,0,1.35-.44Z" fill="#0072c6"/>
      <path d="M419.7,114.55a1.66,1.66,0,0,0-.78-.18,1.11,1.11,0,0,0-.95.44,2,2,0,0,0-.34,1.2v2.87h-1.85v-6h1.85V114h0a1.6,1.6,0,0,1,1.58-1.22,1.39,1.39,0,0,1,.46.07Z" fill="#0072c6"/>
      <path d="M423.5,119a3.23,3.23,0,0,1-2.36-.84,3.47,3.47,0,0,1,0-4.61,3.38,3.38,0,0,1,2.41-.84,3.16,3.16,0,0,1,2.34.84,3,3,0,0,1,.85,2.23,3.19,3.19,0,0,1-.87,2.36A3.27,3.27,0,0,1,423.5,119Zm.05-4.87a1.23,1.23,0,0,0-1,.45,2,2,0,0,0-.37,1.28c0,1.15.47,1.73,1.4,1.73s1.33-.59,1.33-1.78S424.44,114.15,423.55,114.15Z" fill="#0072c6"/>
      <path d="M427.63,118.72v-1.5a4.06,4.06,0,0,0,.91.41,3,3,0,0,0,.86.14,1.84,1.84,0,0,0,.78-.14.45.45,0,0,0,.28-.41.36.36,0,0,0-.13-.29,1.33,1.33,0,0,0-.33-.21l-.44-.16c-.16,0-.32-.1-.47-.15a6.21,6.21,0,0,1-.63-.29,2.09,2.09,0,0,1-.45-.36,1.29,1.29,0,0,1-.28-.48,1.76,1.76,0,0,1-.1-.64,1.66,1.66,0,0,1,.22-.87,1.82,1.82,0,0,1,.58-.59,2.85,2.85,0,0,1,.84-.34,4.53,4.53,0,0,1,1-.11,5.52,5.52,0,0,1,.81.06,5.3,5.3,0,0,1,.81.18v1.43a3.12,3.12,0,0,0-.75-.31,3.64,3.64,0,0,0-.79-.1,1.87,1.87,0,0,0-.34,0l-.29.1a.49.49,0,0,0-.19.16.32.32,0,0,0-.07.22.43.43,0,0,0,.11.28,1.18,1.18,0,0,0,.27.2,1.88,1.88,0,0,0,.38.15l.41.14a4.66,4.66,0,0,1,.67.28,1.94,1.94,0,0,1,.51.36,1.37,1.37,0,0,1,.33.48,1.61,1.61,0,0,1,.11.65,1.7,1.7,0,0,1-.23.92,1.87,1.87,0,0,1-.61.61,3,3,0,0,1-.89.35,5,5,0,0,1-1,.1A5.4,5.4,0,0,1,427.63,118.72Z" fill="#0072c6"/>
      <path d="M436.2,119a3.24,3.24,0,0,1-2.36-.84,3.46,3.46,0,0,1,0-4.61,3.34,3.34,0,0,1,2.4-.84,3.2,3.2,0,0,1,2.35.84,3,3,0,0,1,.85,2.23,3.2,3.2,0,0,1-.88,2.36A3.24,3.24,0,0,1,436.2,119Zm.05-4.87a1.23,1.23,0,0,0-1,.45,2,2,0,0,0-.36,1.28c0,1.15.46,1.73,1.39,1.73s1.33-.59,1.33-1.78S437.14,114.15,436.25,114.15Z" fill="#0072c6"/>
      <path d="M444.55,111.41a2,2,0,0,0-.69-.14c-.59,0-.89.33-.89,1v.64h1.37v1.36H443v4.64h-1.85v-4.64h-1v-1.36h1v-.75a2.18,2.18,0,0,1,.67-1.65,2.55,2.55,0,0,1,1.82-.63,3.16,3.16,0,0,1,.94.12Z" fill="#0072c6"/>
      <path d="M449.1,118.81a2.78,2.78,0,0,1-1.23.21c-1.31,0-2-.67-2-2v-2.75h-1v-1.36h1v-1.3l1.85-.52v1.82h1.34v1.36h-1.34v2.43c0,.62.25.94.74.94a1.24,1.24,0,0,0,.6-.17Z" fill="#0072c6"/>
      <path d="M401.16,132.72a6.08,6.08,0,0,1-3.06.7,4.43,4.43,0,0,1-3.2-1.12,4.08,4.08,0,0,1-1.17-3.09A4.34,4.34,0,0,1,395,126a4.65,4.65,0,0,1,3.4-1.24,7,7,0,0,1,2.35.36v1.78a4.63,4.63,0,0,0-2.38-.56,2.53,2.53,0,0,0-1.91.76,2.79,2.79,0,0,0-.75,2,2.83,2.83,0,0,0,.67,2,2.34,2.34,0,0,0,1.79.71,2.45,2.45,0,0,0,1.08-.2V130h-1.68v-1.51h3.58Z" fill="#0072c6"/>
      <path d="M406.59,129a1.61,1.61,0,0,0-.78-.18,1.1,1.1,0,0,0-.94.44,1.9,1.9,0,0,0-.34,1.2v2.87h-1.85v-6h1.85v1.11h0a1.6,1.6,0,0,1,1.58-1.22,1.35,1.35,0,0,1,.46.07Z" fill="#0072c6"/>
      <path d="M412.36,133.28h-1.75v-.86h0a2,2,0,0,1-1.79,1,1.85,1.85,0,0,1-1.37-.49,1.76,1.76,0,0,1-.51-1.32c0-1.17.69-1.84,2.07-2l1.63-.21c0-.66-.35-1-1.06-1a3.59,3.59,0,0,0-2,.64v-1.39a4.52,4.52,0,0,1,1.05-.36,5.71,5.71,0,0,1,1.23-.15,2.26,2.26,0,0,1,2.56,2.56Zm-1.74-2.44v-.4l-1.09.14q-.9.12-.9.81a.66.66,0,0,0,.22.52.86.86,0,0,0,.59.2,1.1,1.1,0,0,0,.85-.36A1.29,1.29,0,0,0,410.62,130.84Z" fill="#0072c6"/>
      <path d="M415.7,132.58h0V136h-1.85v-8.76h1.85v.9h0a2.36,2.36,0,0,1,3.73-.25,3.43,3.43,0,0,1,.64,2.18,3.73,3.73,0,0,1-.74,2.41,2.45,2.45,0,0,1-2,.9A1.87,1.87,0,0,1,415.7,132.58Zm-.05-2.46v.48a1.52,1.52,0,0,0,.33,1,1,1,0,0,0,.86.4,1.15,1.15,0,0,0,1-.49,2.4,2.4,0,0,0,.35-1.39c0-1-.41-1.58-1.23-1.58a1.15,1.15,0,0,0-.93.43A1.73,1.73,0,0,0,415.65,130.12Z" fill="#0072c6"/>
      <path d="M427.05,133.28h-1.84v-3.41c0-.88-.32-1.32-1-1.32a1,1,0,0,0-.79.37,1.4,1.4,0,0,0-.31.94v3.42h-1.85V124.4h1.85v3.77h0a2.09,2.09,0,0,1,1.84-1q2,0,2,2.46Z" fill="#0072c6"/>
      <path d="M439.4,133.28h-2.07l-.59-1.87h-3l-.59,1.87h-2.05l3.05-8.4h2.25ZM436.3,130l-.9-2.83a3.59,3.59,0,0,1-.14-.75h-.05a3.76,3.76,0,0,1-.14.73l-.92,2.85Z" fill="#0072c6"/>
      <path d="M442.24,130.38v2.9h-1.89v-8.4h3c2.11,0,3.17.89,3.17,2.67a2.55,2.55,0,0,1-.91,2,3.62,3.62,0,0,1-2.43.78Zm0-4V129H443c1,0,1.51-.44,1.51-1.33s-.5-1.29-1.51-1.29Z" fill="#0072c6"/>
      <path d="M449.46,133.28h-1.9v-8.4h1.9Z" fill="#0072c6"/>
    </g>
    <g>
      <path d="M34.91,97v2.89H33v-8.4h3c2.12,0,3.17.89,3.17,2.68a2.55,2.55,0,0,1-.91,2,3.55,3.55,0,0,1-2.43.79Zm0-4.06v2.62h.74c1,0,1.51-.44,1.51-1.32s-.5-1.3-1.51-1.3Z" fill="#1e1e1e"/>
      <path d="M46.22,93.87l-2.44,6.48c-.59,1.56-1.47,2.34-2.65,2.34a3.46,3.46,0,0,1-1.11-.15v-1.48a1.64,1.64,0,0,0,.81.22,1,1,0,0,0,1-.68l.32-.74-2.44-6h2l1.12,3.65a4.19,4.19,0,0,1,.16.8h0a5.52,5.52,0,0,1,.19-.79l1.13-3.66Z" fill="#1e1e1e"/>
      <path d="M50.91,99.8a2.83,2.83,0,0,1-1.24.22c-1.3,0-2-.68-2-2V95.24h-1V93.87h1V92.58l1.85-.53v1.82h1.35v1.37H49.56v2.42c0,.63.25.94.74.94a1.31,1.31,0,0,0,.61-.17Z" fill="#1e1e1e"/>
      <path d="M57.83,99.87H56V96.46q0-1.32-1-1.32a1,1,0,0,0-.8.37,1.45,1.45,0,0,0-.3.94v3.42H52.07V91h1.86v3.77h0a2.11,2.11,0,0,1,1.84-1c1.36,0,2,.82,2,2.47Z" fill="#1e1e1e"/>
      <path d="M62.17,100a3.23,3.23,0,0,1-2.36-.84A3,3,0,0,1,59,96.89a3.08,3.08,0,0,1,.89-2.33,3.37,3.37,0,0,1,2.41-.84,3.19,3.19,0,0,1,2.34.84,3,3,0,0,1,.85,2.23,3.16,3.16,0,0,1-.88,2.36A3.23,3.23,0,0,1,62.17,100Zm0-4.88a1.23,1.23,0,0,0-1,.45,2,2,0,0,0-.36,1.28c0,1.15.46,1.73,1.39,1.73s1.33-.59,1.33-1.78S63.11,95.14,62.21,95.14Z" fill="#1e1e1e"/>
      <path d="M72.43,99.87H70.58V96.54c0-.93-.33-1.4-1-1.4a1,1,0,0,0-.79.37,1.4,1.4,0,0,0-.31.94v3.42H66.63v-6h1.86v.95h0a2.12,2.12,0,0,1,1.93-1.1c1.33,0,2,.83,2,2.48Z" fill="#1e1e1e"/>
      <path d="M37.22,114a5.46,5.46,0,0,1-2.4.45,4,4,0,0,1-3-1.14,4.16,4.16,0,0,1-1.11-3A4.45,4.45,0,0,1,31.91,107a4.38,4.38,0,0,1,3.23-1.25,6,6,0,0,1,2.08.31v1.82a3.62,3.62,0,0,0-1.92-.5,2.52,2.52,0,0,0-1.91.74,2.75,2.75,0,0,0-.73,2,2.69,2.69,0,0,0,.69,1.94,2.41,2.41,0,0,0,1.84.72,3.93,3.93,0,0,0,2-.54Z" fill="#1e1e1e"/>
      <path d="M41.29,114.42a3.24,3.24,0,0,1-2.36-.84,3.06,3.06,0,0,1-.85-2.29A3,3,0,0,1,39,109a3.31,3.31,0,0,1,2.4-.85,3.17,3.17,0,0,1,2.35.85,3,3,0,0,1,.85,2.22,3.15,3.15,0,0,1-.88,2.36A3.24,3.24,0,0,1,41.29,114.42Zm.05-4.88a1.23,1.23,0,0,0-1,.45,2,2,0,0,0-.36,1.28c0,1.15.46,1.73,1.39,1.73s1.33-.59,1.33-1.78S42.23,109.54,41.34,109.54Z" fill="#1e1e1e"/>
      <path d="M51.56,114.27H49.71v-3.33c0-.93-.33-1.4-1-1.4a1,1,0,0,0-.79.37,1.46,1.46,0,0,0-.31.94v3.42H45.76v-6h1.85v1h0a2.12,2.12,0,0,1,1.92-1.1c1.33,0,2,.83,2,2.48Z" fill="#1e1e1e"/>
      <path d="M52.74,114.11v-1.5a3.82,3.82,0,0,0,.91.41,3.08,3.08,0,0,0,.86.14,1.84,1.84,0,0,0,.78-.14.42.42,0,0,0,.28-.41.37.37,0,0,0-.13-.29,1,1,0,0,0-.33-.21,3.76,3.76,0,0,0-.44-.15l-.46-.16a4.68,4.68,0,0,1-.63-.29,2.16,2.16,0,0,1-.46-.36,1.44,1.44,0,0,1-.28-.48,1.76,1.76,0,0,1-.1-.64,1.69,1.69,0,0,1,.22-.86,1.88,1.88,0,0,1,.59-.6,2.9,2.9,0,0,1,.84-.34,4.46,4.46,0,0,1,1-.11,5.78,5.78,0,0,1,.81.07,7.1,7.1,0,0,1,.8.17v1.43a3.09,3.09,0,0,0-.75-.3,3.13,3.13,0,0,0-.79-.11,1.86,1.86,0,0,0-.34,0,1,1,0,0,0-.28.09.46.46,0,0,0-.2.16.4.4,0,0,0,0,.5,1,1,0,0,0,.27.2,2.15,2.15,0,0,0,.38.15l.42.14a6.9,6.9,0,0,1,.66.28,2.18,2.18,0,0,1,.52.36,1.39,1.39,0,0,1,.32.48,1.62,1.62,0,0,1,.12.66,1.76,1.76,0,0,1-.23.91,1.81,1.81,0,0,1-.62.61,2.66,2.66,0,0,1-.88.35,5.1,5.1,0,0,1-1,.11A5.27,5.27,0,0,1,52.74,114.11Z" fill="#1e1e1e"/>
      <path d="M61.31,114.42a3.2,3.2,0,0,1-2.35-.84A3.47,3.47,0,0,1,59,109a3.33,3.33,0,0,1,2.41-.85,3.16,3.16,0,0,1,2.34.85,3,3,0,0,1,.85,2.22,3.15,3.15,0,0,1-.88,2.36A3.24,3.24,0,0,1,61.31,114.42Zm0-4.88a1.23,1.23,0,0,0-1,.45,2,2,0,0,0-.36,1.28c0,1.15.46,1.73,1.39,1.73s1.33-.59,1.33-1.78S62.26,109.54,61.36,109.54Z" fill="#1e1e1e"/>
      <path d="M67.64,114.27H65.79v-8.88h1.85Z" fill="#1e1e1e"/>
      <path d="M74.61,111.8H70.69c.07.87.62,1.3,1.65,1.3a3.23,3.23,0,0,0,1.74-.46V114a4.5,4.5,0,0,1-2.16.45,2.8,2.8,0,0,1-3.06-3.06,3.19,3.19,0,0,1,.87-2.36,2.91,2.91,0,0,1,2.13-.88,2.62,2.62,0,0,1,2,.78,3,3,0,0,1,.72,2.12Zm-1.72-1.14c0-.86-.35-1.29-1-1.29a1,1,0,0,0-.77.37,1.68,1.68,0,0,0-.4.92Z" fill="#1e1e1e"/>
      <path d="M17.48,128.67v-8.4h3q4.47,0,4.47,4.09a4.16,4.16,0,0,1-1.22,3.14,4.5,4.5,0,0,1-3.25,1.17Zm1.89-6.86v5.33h.94a2.55,2.55,0,0,0,1.93-.74,2.81,2.81,0,0,0,.7-2,2.55,2.55,0,0,0-.69-1.89,2.67,2.67,0,0,0-1.95-.69Z" fill="#1e1e1e"/>
      <path d="M31.12,128.67H29.37v-.86h0a2,2,0,0,1-1.79,1,1.86,1.86,0,0,1-1.37-.5,1.75,1.75,0,0,1-.5-1.32c0-1.16.69-1.84,2.07-2l1.62-.21c0-.66-.35-1-1.06-1a3.67,3.67,0,0,0-2,.64V123a4.67,4.67,0,0,1,1.06-.35,5.05,5.05,0,0,1,1.22-.16,2.26,2.26,0,0,1,2.56,2.56Zm-1.74-2.44v-.4l-1.09.14q-.9.12-.9.81a.69.69,0,0,0,.22.52.84.84,0,0,0,.6.2,1.11,1.11,0,0,0,.85-.36A1.33,1.33,0,0,0,29.38,126.23Z" fill="#1e1e1e"/>
      <path d="M38,126.2H34.07c.07.87.62,1.3,1.65,1.3a3.23,3.23,0,0,0,1.74-.46v1.33a4.5,4.5,0,0,1-2.16.45,2.8,2.8,0,0,1-3.06-3.06,3.19,3.19,0,0,1,.87-2.36,2.87,2.87,0,0,1,2.13-.88,2.62,2.62,0,0,1,2,.78,3,3,0,0,1,.72,2.12Zm-1.72-1.14c0-.86-.35-1.29-1-1.29a1,1,0,0,0-.77.37,1.68,1.68,0,0,0-.4.92Z" fill="#1e1e1e"/>
      <path d="M48.69,128.67H46.85v-3.42c0-.87-.32-1.31-1-1.31a.9.9,0,0,0-.75.39,1.64,1.64,0,0,0-.28,1v3.36H43v-3.46c0-.84-.32-1.27-.95-1.27a.92.92,0,0,0-.76.38,1.65,1.65,0,0,0-.28,1v3.33H39.17v-6H41v.94h0a2.17,2.17,0,0,1,.81-.78,2.11,2.11,0,0,1,1.13-.31,1.73,1.73,0,0,1,1.74,1.12,2.24,2.24,0,0,1,2-1.12c1.3,0,1.95.81,1.95,2.42Z" fill="#1e1e1e"/>
      <path d="M53,128.82a3.23,3.23,0,0,1-2.36-.84,3.49,3.49,0,0,1,0-4.62,3.37,3.37,0,0,1,2.41-.84,3.18,3.18,0,0,1,2.34.84,3,3,0,0,1,.85,2.23,3.19,3.19,0,0,1-.87,2.36A3.27,3.27,0,0,1,53,128.82Zm0-4.88a1.26,1.26,0,0,0-1,.45,2,2,0,0,0-.36,1.28c0,1.15.47,1.73,1.4,1.73s1.33-.59,1.33-1.78S54,123.94,53.07,123.94Z" fill="#1e1e1e"/>
      <path d="M63.29,128.67H61.44v-3.33c0-.93-.33-1.4-1-1.4a1,1,0,0,0-.79.37,1.4,1.4,0,0,0-.31.94v3.42H57.5v-6h1.85v1h0a2.12,2.12,0,0,1,1.93-1.1c1.33,0,2,.83,2,2.48Z" fill="#1e1e1e"/>
      <path d="M73.06,128.67H71.31v-.86h0a2,2,0,0,1-1.78,1,1.88,1.88,0,0,1-1.38-.5,1.79,1.79,0,0,1-.5-1.32c0-1.16.69-1.84,2.07-2l1.63-.21c0-.66-.36-1-1.07-1a3.72,3.72,0,0,0-2,.64V123a4.67,4.67,0,0,1,1.06-.35,5.12,5.12,0,0,1,1.22-.16,2.27,2.27,0,0,1,2.57,2.56Zm-1.74-2.44v-.4l-1.09.14q-.9.12-.9.81a.66.66,0,0,0,.22.52.8.8,0,0,0,.59.2,1.1,1.1,0,0,0,.85-.36A1.29,1.29,0,0,0,71.32,126.23Z" fill="#1e1e1e"/>
      <path d="M76.4,128h0v3.46H74.52v-8.76h1.85v.9h0a2.17,2.17,0,0,1,1.93-1,2.19,2.19,0,0,1,1.8.8,3.45,3.45,0,0,1,.63,2.18,3.67,3.67,0,0,1-.74,2.41,2.43,2.43,0,0,1-2,.91A1.86,1.86,0,0,1,76.4,128Zm-.05-2.46V126a1.54,1.54,0,0,0,.32,1,1.08,1.08,0,0,0,.86.39,1.14,1.14,0,0,0,1-.49,2.4,2.4,0,0,0,.34-1.39c0-1-.41-1.58-1.23-1.58a1.17,1.17,0,0,0-.92.43A1.73,1.73,0,0,0,76.35,125.51Z" fill="#1e1e1e"/>
      <path d="M83.86,128h0v3.46H82v-8.76h1.85v.9h0a2.36,2.36,0,0,1,3.73-.25,3.39,3.39,0,0,1,.64,2.18,3.73,3.73,0,0,1-.74,2.41,2.46,2.46,0,0,1-2,.91A1.86,1.86,0,0,1,83.86,128Zm0-2.46V126a1.54,1.54,0,0,0,.33,1,1.06,1.06,0,0,0,.86.39,1.12,1.12,0,0,0,1-.49,2.4,2.4,0,0,0,.35-1.39c0-1-.41-1.58-1.23-1.58a1.18,1.18,0,0,0-.93.43A1.73,1.73,0,0,0,83.81,125.51Z" fill="#1e1e1e"/>
    </g>
    <g>
      <path d="M406.18,34.64h-1.87v-5c0-.55,0-1.15.07-1.8h-.05a9.45,9.45,0,0,1-.26,1.11l-2,5.71h-1.55l-2-5.65a11,11,0,0,1-.27-1.17h0c0,.83.08,1.55.08,2.18v4.64H396.6v-8.4h2.77l1.72,5a6.58,6.58,0,0,1,.3,1.2h0a10.27,10.27,0,0,1,.33-1.21l1.72-5h2.7Z" fill="#fff"/>
      <path d="M408.79,27.69a1.1,1.1,0,0,1-.77-.27.92.92,0,0,1-.3-.69.88.88,0,0,1,.3-.68,1.14,1.14,0,0,1,.77-.26,1.16,1.16,0,0,1,.77.26,1,1,0,0,1,0,1.37A1.11,1.11,0,0,1,408.79,27.69Zm.91,7h-1.85v-6h1.85Z" fill="#fff"/>
      <path d="M415.78,34.43a3.69,3.69,0,0,1-1.81.36,3.06,3.06,0,0,1-2.24-.84,2.9,2.9,0,0,1-.86-2.16,3.19,3.19,0,0,1,.92-2.41,3.38,3.38,0,0,1,2.45-.88,3.14,3.14,0,0,1,1.54.28v1.57a2.13,2.13,0,0,0-1.3-.44,1.71,1.71,0,0,0-1.26.47,1.75,1.75,0,0,0-.47,1.29,1.71,1.71,0,0,0,.45,1.25,1.64,1.64,0,0,0,1.22.45,2.43,2.43,0,0,0,1.36-.43Z" fill="#fff"/>
      <path d="M421,30.31a1.61,1.61,0,0,0-.78-.18,1.14,1.14,0,0,0-.94.44,1.93,1.93,0,0,0-.34,1.21v2.86h-1.85v-6h1.85v1.12h0a1.6,1.6,0,0,1,1.58-1.22,1.14,1.14,0,0,1,.46.07Z" fill="#fff"/>
      <path d="M424.8,34.79a3.2,3.2,0,0,1-2.35-.84,3,3,0,0,1-.86-2.28,3,3,0,0,1,.89-2.33,3.35,3.35,0,0,1,2.41-.84,3.19,3.19,0,0,1,2.34.84,3,3,0,0,1,.85,2.22,3.15,3.15,0,0,1-.88,2.36A3.24,3.24,0,0,1,424.8,34.79Zm.05-4.88a1.21,1.21,0,0,0-1,.46,2,2,0,0,0-.36,1.27c0,1.16.46,1.73,1.39,1.73s1.33-.59,1.33-1.77S425.75,29.91,424.85,29.91Z" fill="#fff"/>
      <path d="M428.93,34.48V33a3.76,3.76,0,0,0,.92.42,3.32,3.32,0,0,0,.85.13,2,2,0,0,0,.78-.13.45.45,0,0,0,.29-.42.41.41,0,0,0-.13-.29,1.32,1.32,0,0,0-.33-.2,4.72,4.72,0,0,0-.45-.16l-.46-.16a4.68,4.68,0,0,1-.63-.29,1.84,1.84,0,0,1-.46-.36,1.58,1.58,0,0,1-.28-.47,2,2,0,0,1-.1-.64,1.7,1.7,0,0,1,.22-.87,2,2,0,0,1,.59-.6,2.9,2.9,0,0,1,.84-.34,4.46,4.46,0,0,1,1-.1,5.52,5.52,0,0,1,.81.06,5.88,5.88,0,0,1,.81.18v1.43a3,3,0,0,0-.76-.31,3,3,0,0,0-.78-.1,2,2,0,0,0-.35,0,1.15,1.15,0,0,0-.28.09.51.51,0,0,0-.19.16.34.34,0,0,0-.07.22.4.4,0,0,0,.1.28.75.75,0,0,0,.28.2,3.17,3.17,0,0,0,.37.16l.42.13a7.13,7.13,0,0,1,.67.28,2.88,2.88,0,0,1,.51.36,1.58,1.58,0,0,1,.33.48,1.9,1.9,0,0,1,.11.66,1.76,1.76,0,0,1-.23.91,1.93,1.93,0,0,1-.62.62,2.88,2.88,0,0,1-.88.34,5,5,0,0,1-1,.11A5.27,5.27,0,0,1,428.93,34.48Z" fill="#fff"/>
      <path d="M437.51,34.79a3.23,3.23,0,0,1-2.36-.84,3.05,3.05,0,0,1-.86-2.28,3.05,3.05,0,0,1,.89-2.33,3.37,3.37,0,0,1,2.41-.84,3.16,3.16,0,0,1,2.34.84,3,3,0,0,1,.85,2.22,3.18,3.18,0,0,1-.87,2.36A3.27,3.27,0,0,1,437.51,34.79Zm0-4.88a1.24,1.24,0,0,0-1,.46,2,2,0,0,0-.36,1.27c0,1.16.47,1.73,1.4,1.73s1.33-.59,1.33-1.77S438.45,29.91,437.55,29.91Z" fill="#fff"/>
      <path d="M445.85,27.18a1.76,1.76,0,0,0-.68-.14q-.9,0-.9,1v.64h1.38V30h-1.38v4.63h-1.84V30h-1V28.64h1V27.9a2.13,2.13,0,0,1,.67-1.65,2.52,2.52,0,0,1,1.81-.63,3.11,3.11,0,0,1,.94.12Z" fill="#fff"/>
      <path d="M450.41,34.57a2.64,2.64,0,0,1-1.24.22c-1.3,0-1.95-.68-1.95-2V30h-1V28.64h1V27.35l1.84-.53v1.82h1.35V30h-1.35v2.42c0,.63.25.94.75.94a1.31,1.31,0,0,0,.6-.17Z" fill="#fff"/>
      <path d="M402.83,42.09a1.11,1.11,0,0,1-.77-.27.92.92,0,0,1-.3-.69.88.88,0,0,1,.3-.68,1.16,1.16,0,0,1,.77-.26,1.14,1.14,0,0,1,.77.26.93.93,0,0,1,0,1.37A1.1,1.1,0,0,1,402.83,42.09Zm.91,6.95h-1.85V43h1.85Z" fill="#fff"/>
      <path d="M411.17,49h-1.85v-.82h0a2.07,2.07,0,0,1-1.86,1,2.3,2.3,0,0,1-1.81-.79,3.28,3.28,0,0,1-.68-2.22,3.62,3.62,0,0,1,.75-2.39,2.5,2.5,0,0,1,2-.89,1.68,1.68,0,0,1,1.62.83h0V40.16h1.85Zm-1.81-2.92v-.45a1.45,1.45,0,0,0-.34-1,1.2,1.2,0,0,0-1.85.1,2.23,2.23,0,0,0-.34,1.32,2,2,0,0,0,.33,1.22,1.18,1.18,0,0,0,1.84,0A1.87,1.87,0,0,0,409.36,46.12Z" fill="#fff"/>
      <path d="M418.12,46.57h-3.91c.06.87.61,1.31,1.65,1.31a3.24,3.24,0,0,0,1.74-.47v1.33a4.57,4.57,0,0,1-2.17.45,2.79,2.79,0,0,1-3.05-3,3.2,3.2,0,0,1,.86-2.37,2.9,2.9,0,0,1,2.14-.87,2.63,2.63,0,0,1,2,.78,3,3,0,0,1,.71,2.11Zm-1.71-1.14q0-1.29-1.05-1.29a1,1,0,0,0-.77.37,1.71,1.71,0,0,0-.39.92Z" fill="#fff"/>
      <path d="M425.1,49h-1.85V45.71c0-.93-.33-1.4-1-1.4a1,1,0,0,0-.8.37,1.46,1.46,0,0,0-.31.94V49H419.3V43h1.85v1h0a2.11,2.11,0,0,1,1.92-1.09c1.33,0,2,.82,2,2.47Z" fill="#fff"/>
      <path d="M430.12,49a2.67,2.67,0,0,1-1.24.22c-1.3,0-1.95-.68-1.95-2V44.41h-1V43h1V41.75l1.84-.53V43h1.35v1.37h-1.35v2.42c0,.63.25.94.75.94a1.31,1.31,0,0,0,.6-.17Z" fill="#fff"/>
      <path d="M432.17,42.09a1.1,1.1,0,0,1-.77-.27.92.92,0,0,1-.3-.69.88.88,0,0,1,.3-.68,1.14,1.14,0,0,1,.77-.26,1.16,1.16,0,0,1,.77.26,1,1,0,0,1,0,1.37A1.11,1.11,0,0,1,432.17,42.09Zm.91,6.95h-1.85V43h1.85Z" fill="#fff"/>
      <path d="M438.18,49a2.67,2.67,0,0,1-1.24.22c-1.3,0-1.95-.68-1.95-2V44.41h-1V43h1V41.75l1.84-.53V43h1.35v1.37h-1.35v2.42c0,.63.25.94.75.94a1.31,1.31,0,0,0,.6-.17Z" fill="#fff"/>
      <path d="M445.24,43l-2.44,6.48c-.59,1.56-1.47,2.34-2.65,2.34a3.46,3.46,0,0,1-1.11-.15V50.23a1.54,1.54,0,0,0,.81.22,1,1,0,0,0,1-.67l.32-.75-2.44-6h2l1.12,3.65a5,5,0,0,1,.17.81h0a5.22,5.22,0,0,1,.19-.79L443.4,43Z" fill="#fff"/>
      <path d="M400.89,62.75h0V66.2H399V57.44h1.85v.91h0a2.18,2.18,0,0,1,1.93-1.05,2.14,2.14,0,0,1,1.8.8,3.34,3.34,0,0,1,.64,2.17,3.71,3.71,0,0,1-.74,2.41,2.41,2.41,0,0,1-2,.91A1.88,1.88,0,0,1,400.89,62.75Zm-.05-2.47v.49a1.52,1.52,0,0,0,.33,1,1.08,1.08,0,0,0,.86.39,1.12,1.12,0,0,0,1-.49,2.29,2.29,0,0,0,.35-1.38q0-1.59-1.23-1.59a1.16,1.16,0,0,0-.93.44A1.68,1.68,0,0,0,400.84,60.28Z" fill="#fff"/>
      <path d="M408.35,63.44h-1.86V54.56h1.86Z" fill="#fff"/>
      <path d="M414.93,63.44h-1.75v-.86h0a2,2,0,0,1-1.78,1,1.88,1.88,0,0,1-1.38-.5,1.79,1.79,0,0,1-.5-1.32q0-1.74,2.07-2l1.63-.22c0-.66-.36-1-1.07-1a3.7,3.7,0,0,0-2,.63V57.8a4.67,4.67,0,0,1,1.06-.35,5.63,5.63,0,0,1,1.22-.15,2.27,2.27,0,0,1,2.57,2.56ZM413.19,61V60.6l-1.09.14c-.6.08-.9.35-.9.82a.64.64,0,0,0,.22.51.8.8,0,0,0,.59.21,1.1,1.1,0,0,0,.85-.36A1.31,1.31,0,0,0,413.19,61Z" fill="#fff"/>
      <path d="M419.93,63.37a2.62,2.62,0,0,1-1.23.22,1.76,1.76,0,0,1-2-2V58.81h-1V57.44h1V56.15l1.85-.53v1.82h1.34v1.37h-1.34v2.42c0,.63.24.94.74.94a1.27,1.27,0,0,0,.6-.17Z" fill="#fff"/>
      <path d="M425.05,56a1.69,1.69,0,0,0-.68-.14c-.6,0-.89.32-.89,1v.64h1.37v1.37h-1.37v4.63h-1.85V58.81h-1V57.44h1V56.7a2.13,2.13,0,0,1,.67-1.65,2.55,2.55,0,0,1,1.82-.63,3.09,3.09,0,0,1,.93.12Z" fill="#fff"/>
      <path d="M428.62,63.59a3.23,3.23,0,0,1-2.36-.84,3.47,3.47,0,0,1,0-4.61,3.38,3.38,0,0,1,2.41-.84,3.16,3.16,0,0,1,2.34.84,3,3,0,0,1,.85,2.22,3.18,3.18,0,0,1-.87,2.36A3.27,3.27,0,0,1,428.62,63.59Zm.05-4.88a1.21,1.21,0,0,0-1,.46,1.92,1.92,0,0,0-.37,1.27c0,1.16.47,1.73,1.4,1.73S430,61.58,430,60.4,429.56,58.71,428.67,58.71Z" fill="#fff"/>
      <path d="M437,59.11a1.61,1.61,0,0,0-.78-.18,1.12,1.12,0,0,0-.94.44,1.93,1.93,0,0,0-.34,1.21v2.86h-1.85v-6h1.85v1.12h0a1.59,1.59,0,0,1,1.58-1.22,1.14,1.14,0,0,1,.46.07Z" fill="#fff"/>
      <path d="M447.39,63.44h-1.85V60c0-.87-.32-1.31-1-1.31a.89.89,0,0,0-.74.4,1.61,1.61,0,0,0-.29,1v3.35H441.7V60c0-.85-.31-1.28-.94-1.28a.91.91,0,0,0-.76.38,1.65,1.65,0,0,0-.29,1v3.33h-1.85v-6h1.85v.94h0a2.22,2.22,0,0,1,.8-.78,2.26,2.26,0,0,1,1.14-.3,1.74,1.74,0,0,1,1.74,1.12,2.2,2.2,0,0,1,2-1.12c1.31,0,2,.8,2,2.41Z" fill="#fff"/>
    </g>
    <g>
      <polygon points="187.08 85.76 179.53 91.21 182.41 100.02 191.75 100.02 194.64 91.21 187.08 85.76" fill="#ebebeb" stroke="#000" stroke-miterlimit="10" stroke-width="0.75"/>
      <g>
        <g>
          <path d="M207.47,99.21h-1.09l-.89-2.36h-3.56l-.84,2.36H200l3.22-8.4h1ZM205.17,96l-1.32-3.58a5.45,5.45,0,0,1-.13-.56h0a3.62,3.62,0,0,1-.13.56L202.26,96Z" fill="#1e1e1e"/>
          <path d="M212.54,98.93a3.08,3.08,0,0,1-1.64.42,2.72,2.72,0,0,1-2.07-.84,3,3,0,0,1-.79-2.16,3.35,3.35,0,0,1,.85-2.38,3,3,0,0,1,2.27-.9,3.27,3.27,0,0,1,1.4.29v1a2.48,2.48,0,0,0-1.43-.46,1.92,1.92,0,0,0-1.51.66,2.44,2.44,0,0,0-.59,1.73,2.38,2.38,0,0,0,.55,1.66,1.91,1.91,0,0,0,1.49.61,2.38,2.38,0,0,0,1.47-.52Z" fill="#1e1e1e"/>
          <path d="M218,98.93a3.1,3.1,0,0,1-1.64.42,2.69,2.69,0,0,1-2.07-.84,3,3,0,0,1-.79-2.16A3.3,3.3,0,0,1,214.3,94a3,3,0,0,1,2.26-.9,3.24,3.24,0,0,1,1.4.29v1a2.46,2.46,0,0,0-1.43-.46,1.93,1.93,0,0,0-1.51.66,2.49,2.49,0,0,0-.59,1.73,2.38,2.38,0,0,0,.56,1.66,1.87,1.87,0,0,0,1.48.61A2.41,2.41,0,0,0,218,98Z" fill="#1e1e1e"/>
          <path d="M224.1,96.45h-4.23a2.21,2.21,0,0,0,.54,1.55,1.85,1.85,0,0,0,1.41.54,2.94,2.94,0,0,0,1.87-.67v.9a3.45,3.45,0,0,1-2.09.58,2.52,2.52,0,0,1-2-.82,3.81,3.81,0,0,1,.07-4.58,2.51,2.51,0,0,1,2-.88,2.25,2.25,0,0,1,1.82.76,3.17,3.17,0,0,1,.64,2.11Zm-1-.82a2,2,0,0,0-.4-1.29,1.37,1.37,0,0,0-1.1-.46,1.55,1.55,0,0,0-1.15.48,2.19,2.19,0,0,0-.59,1.27Z" fill="#1e1e1e"/>
          <path d="M225.18,99V98a2.82,2.82,0,0,0,1.73.58q1.26,0,1.26-.84a.68.68,0,0,0-.11-.41,1.17,1.17,0,0,0-.29-.3,2.86,2.86,0,0,0-.43-.23l-.54-.21c-.26-.11-.5-.21-.7-.32a2.22,2.22,0,0,1-.5-.36,1.38,1.38,0,0,1-.31-.46,1.66,1.66,0,0,1-.1-.61,1.44,1.44,0,0,1,.19-.75,1.78,1.78,0,0,1,.52-.54,2.21,2.21,0,0,1,.73-.33,3.07,3.07,0,0,1,.86-.11,3.41,3.41,0,0,1,1.39.27v1a2.7,2.7,0,0,0-1.52-.43,1.88,1.88,0,0,0-.49.06,1.26,1.26,0,0,0-.37.17.78.78,0,0,0-.24.27.64.64,0,0,0-.09.34.75.75,0,0,0,.09.39.83.83,0,0,0,.25.28,1.68,1.68,0,0,0,.4.23l.53.21a6,6,0,0,1,.71.32,2,2,0,0,1,.54.36A1.35,1.35,0,0,1,229,97a1.46,1.46,0,0,1,.12.62,1.51,1.51,0,0,1-.2.78,1.78,1.78,0,0,1-.52.54,2.26,2.26,0,0,1-.76.32,3.76,3.76,0,0,1-.9.11A3.37,3.37,0,0,1,225.18,99Z" fill="#1e1e1e"/>
          <path d="M230.27,99V98a2.82,2.82,0,0,0,1.73.58q1.26,0,1.26-.84a.76.76,0,0,0-.1-.41,1.22,1.22,0,0,0-.3-.3,2.44,2.44,0,0,0-.43-.23l-.54-.21c-.26-.11-.5-.21-.7-.32a2.22,2.22,0,0,1-.5-.36,1.38,1.38,0,0,1-.31-.46,1.9,1.9,0,0,1-.1-.61,1.45,1.45,0,0,1,.2-.75,1.74,1.74,0,0,1,.51-.54,2.26,2.26,0,0,1,.74-.33,3,3,0,0,1,.85-.11,3.41,3.41,0,0,1,1.39.27v1a2.7,2.7,0,0,0-1.52-.43,1.88,1.88,0,0,0-.49.06,1.26,1.26,0,0,0-.37.17.78.78,0,0,0-.24.27.63.63,0,0,0-.08.34.75.75,0,0,0,.08.39.83.83,0,0,0,.25.28,1.68,1.68,0,0,0,.4.23l.53.21a6.17,6.17,0,0,1,.72.32,2.42,2.42,0,0,1,.54.36,1.4,1.4,0,0,1,.46,1.09,1.51,1.51,0,0,1-.2.78,1.67,1.67,0,0,1-.52.54,2.26,2.26,0,0,1-.76.32,3.68,3.68,0,0,1-.89.11A3.39,3.39,0,0,1,230.27,99Z" fill="#1e1e1e"/>
          <path d="M241.8,99.15a1.94,1.94,0,0,1-.9.19c-1.05,0-1.58-.59-1.58-1.76V94h-1v-.82h1V91.74l1-.31v1.78h1.52V94h-1.52v3.38a1.37,1.37,0,0,0,.21.86.83.83,0,0,0,.68.26,1.05,1.05,0,0,0,.63-.2Z" fill="#1e1e1e"/>
          <path d="M245.45,99.35a2.79,2.79,0,0,1-2.12-.84,3.12,3.12,0,0,1-.79-2.23,3.23,3.23,0,0,1,.82-2.36,3,3,0,0,1,2.24-.85,2.68,2.68,0,0,1,2.09.82,3.29,3.29,0,0,1,.75,2.29,3.21,3.21,0,0,1-.81,2.3A2.84,2.84,0,0,1,245.45,99.35Zm.07-5.47a1.83,1.83,0,0,0-1.46.63,2.56,2.56,0,0,0-.54,1.73,2.46,2.46,0,0,0,.54,1.68,1.87,1.87,0,0,0,1.46.62,1.77,1.77,0,0,0,1.44-.6,3.23,3.23,0,0,0,0-3.45A1.75,1.75,0,0,0,245.52,93.88Z" fill="#1e1e1e"/>
          <path d="M254.9,99.21h-1.34l-2.65-2.88h0v2.88h-1V90.33h1V96h0l2.52-2.75h1.26L251.9,96.1Z" fill="#1e1e1e"/>
          <path d="M260.42,96.45h-4.24a2.3,2.3,0,0,0,.54,1.55,1.88,1.88,0,0,0,1.42.54,2.94,2.94,0,0,0,1.87-.67v.9a3.46,3.46,0,0,1-2.1.58,2.51,2.51,0,0,1-2-.82A3.83,3.83,0,0,1,256,94a2.54,2.54,0,0,1,2-.88,2.26,2.26,0,0,1,1.83.76,3.17,3.17,0,0,1,.64,2.11Zm-1-.82a2,2,0,0,0-.4-1.29,1.37,1.37,0,0,0-1.1-.46,1.57,1.57,0,0,0-1.16.48,2.24,2.24,0,0,0-.58,1.27Z" fill="#1e1e1e"/>
          <path d="M266.85,99.21h-1V95.79c0-1.28-.46-1.91-1.39-1.91a1.5,1.5,0,0,0-1.19.54,2,2,0,0,0-.47,1.37v3.42h-1v-6h1v1h0a2.17,2.17,0,0,1,2-1.13,1.83,1.83,0,0,1,1.5.63,2.84,2.84,0,0,1,.52,1.84Z" fill="#1e1e1e"/>
        </g>
        <g>
          <path d="M207.29,85h-1V81.17H202V85h-1V76.6h1v3.69h4.35V76.6h1Z" fill="#1e1e1e"/>
          <path d="M214.33,77.49h-2.42V85h-1V77.49H208.5V76.6h5.83Z" fill="#1e1e1e"/>
          <path d="M220.93,77.49h-2.42V85h-1V77.49H215.1V76.6h5.83Z" fill="#1e1e1e"/>
          <path d="M223.12,81.83V85h-1V76.6h2.3a3,3,0,0,1,2.09.66,2.31,2.31,0,0,1,.74,1.85,2.52,2.52,0,0,1-.82,2,3.14,3.14,0,0,1-2.22.77Zm0-4.34v3.45h1a2.33,2.33,0,0,0,1.56-.47,1.67,1.67,0,0,0,.53-1.32c0-1.1-.65-1.66-2-1.66Z" fill="#1e1e1e"/>
          <path d="M238.43,84.43a5.73,5.73,0,0,1-2.82.71A3.82,3.82,0,0,1,232.7,84a4.24,4.24,0,0,1-1.11-3.07,4.33,4.33,0,0,1,1.24-3.2A4.2,4.2,0,0,1,236,76.46a5.47,5.47,0,0,1,2.31.44V78a4.44,4.44,0,0,0-2.42-.64,3,3,0,0,0-2.31,1,4.05,4.05,0,0,0-.07,5,3,3,0,0,0,2.28.91,3.53,3.53,0,0,0,1.7-.39V81.51H235.6v-.89h2.83Z" fill="#1e1e1e"/>
          <path d="M244.77,85h-4.46V76.6h4.27v.89H241.3v2.8h3v.88h-3v2.94h3.47Z" fill="#1e1e1e"/>
          <path d="M251.43,77.49H249V85h-1V77.49H245.6V76.6h5.83Z" fill="#1e1e1e"/>
          <path d="M261.8,81.9h-2.37v2.36h-.78V81.9h-2.36v-.79h2.36V78.75h.78v2.36h2.37Z" fill="#1e1e1e"/>
        </g>
      </g>
    </g>
  </g>
</svg>
