<svg width="132" height="34" xmlns="http://www.w3.org/2000/svg" xmlns:xlink="http://www.w3.org/1999/xlink" overflow="hidden"><defs><clipPath id="clip0"><rect x="442" y="197" width="132" height="34"/></clipPath></defs><g clip-path="url(#clip0)" transform="translate(-442 -197)"><path d="M443.5 203.333C443.5 200.664 445.664 198.5 448.333 198.5L567.667 198.5C570.336 198.5 572.5 200.664 572.5 203.333L572.5 222.667C572.5 225.336 570.336 227.5 567.667 227.5L448.333 227.5C445.664 227.5 443.5 225.336 443.5 222.667Z" stroke="#0065B3" stroke-width="1.33333" stroke-miterlimit="8" fill="#0065B3" fill-rule="evenodd"/><text fill="#FFFFFF" font-family="Calibri,Calibri_MSFontService,sans-serif" font-weight="400" font-size="15" transform="translate(484.713 218)">Browse code</text><path d="M461.774 202.071C456.708 202.582 452.633 206.363 452.082 210.962 451.421 216.072 454.835 220.467 459.682 221.898L459.682 219.547C459.682 219.547 459.241 219.649 458.69 219.649 457.148 219.649 456.488 218.423 456.377 217.708 456.267 217.299 456.047 216.992 455.717 216.686 455.386 216.583 455.276 216.583 455.276 216.481 455.276 216.277 455.606 216.277 455.717 216.277 456.377 216.277 456.928 216.992 457.148 217.299 457.699 218.116 458.36 218.321 458.69 218.321 459.131 218.321 459.461 218.219 459.682 218.116 459.792 217.401 460.122 216.686 460.783 216.277 458.25 215.766 456.377 214.437 456.377 212.189 456.377 211.065 456.928 209.94 457.699 209.123 457.589 208.918 457.479 208.407 457.479 207.692 457.479 207.283 457.479 206.67 457.809 206.057 457.809 206.057 459.351 206.057 460.893 207.385 461.444 207.181 462.215 207.079 462.986 207.079 463.757 207.079 464.528 207.181 465.189 207.385 466.621 206.057 468.273 206.057 468.273 206.057 468.493 206.67 468.493 207.283 468.493 207.692 468.493 208.509 468.383 208.918 468.273 209.123 469.044 209.94 469.594 210.962 469.594 212.189 469.594 214.437 467.722 215.766 465.189 216.277 465.85 216.788 466.29 217.708 466.29 218.627L466.29 222C470.806 220.671 474 216.788 474 212.291 474 206.159 468.383 201.355 461.774 202.071Z" fill-rule="evenodd"/></g></svg>