<svg width="1280" height="720" xmlns="http://www.w3.org/2000/svg" xmlns:xlink="http://www.w3.org/1999/xlink" overflow="hidden" style="background-color: white"><g><rect x="0" y="0" width="1280" height="720" fill="#FFFFFF"/><path d="M207.5 234.593C207.5 231.78 209.78 229.5 212.593 229.5L874.407 229.5C877.22 229.5 879.5 231.78 879.5 234.593L879.5 390.407C879.5 393.22 877.22 395.5 874.407 395.5L212.593 395.5C209.78 395.5 207.5 393.22 207.5 390.407Z" stroke="#000000" stroke-width="1.33333" stroke-miterlimit="8" fill="#DAE3F3" fill-rule="evenodd"/><text fill="#262626" font-family="Calibri,Calibri_MSFontService,sans-serif" font-weight="700" font-size="12" transform="translate(511.583 385)">Tacoma Site</text><path d="M188.5 210.562C188.5 207.766 190.766 205.5 193.562 205.5L856.438 205.5C859.234 205.5 861.5 207.766 861.5 210.562L861.5 365.438C861.5 368.234 859.234 370.5 856.438 370.5L193.562 370.5C190.766 370.5 188.5 368.234 188.5 365.438Z" stroke="#000000" stroke-width="1.33333" stroke-miterlimit="8" fill="#DAE3F3" fill-rule="evenodd"/><text fill="#262626" font-family="Calibri,Calibri_MSFontService,sans-serif" font-weight="700" font-size="12" transform="translate(488.125 361)">Redmond Site</text><text fill="#767676" font-family="Segoe Sans Text,Segoe Sans Text_MSFontService,sans-serif" font-weight="400" font-size="16" transform="translate(1173.6 693)">2</text><path d="M169.5 186.593C169.5 183.78 171.78 181.5 174.593 181.5L837.407 181.5C840.22 181.5 842.5 183.78 842.5 186.593L842.5 342.407C842.5 345.22 840.22 347.5 837.407 347.5L174.593 347.5C171.78 347.5 169.5 345.22 169.5 342.407Z" stroke="#000000" stroke-width="1.33333" stroke-miterlimit="8" fill="#DAE3F3" fill-rule="evenodd"/><text fill="#262626" font-family="Calibri,Calibri_MSFontService,sans-serif" font-weight="700" font-size="12" transform="translate(476.417 338)">Seattle Site</text><path d="M481 106.5C481 102.91 483.91 100 487.5 100L568.5 100C572.09 100 575 102.91 575 106.5L575 132.5C575 136.09 572.09 139 568.5 139L487.5 139C483.91 139 481 136.09 481 132.5Z" fill="#4472C4" fill-rule="evenodd"/><text fill="#FFFFFF" font-family="Calibri,Calibri_MSFontService,sans-serif" font-weight="700" font-size="11" transform="translate(496.708 123)">OPCUA Server</text><path d="M443 203.321C443 199.83 445.83 197 449.321 197L703.679 197C707.17 197 710 199.83 710 203.321L710 311.679C710 315.17 707.17 318 703.679 318L449.321 318C445.83 318 443 315.17 443 311.679Z" fill="#4472C4" fill-rule="evenodd"/><text fill="#FFFFFF" font-family="Calibri,Calibri_MSFontService,sans-serif" font-weight="700" font-size="11" transform="translate(565.206 308)">Oven</text><path d="M508 211.5C508 209.567 509.567 208 511.5 208L546.5 208C548.433 208 550 209.567 550 211.5L550 225.5C550 227.433 548.433 229 546.5 229L511.5 229C509.567 229 508 227.433 508 225.5Z" fill="#8497B0" fill-rule="evenodd"/><text fill="#FFFFFF" font-family="Calibri,Calibri_MSFontService,sans-serif" font-weight="400" font-size="8" transform="translate(521.026 221)">PLC4</text><path d="M555 211.5C555 209.567 556.567 208 558.5 208L593.5 208C595.433 208 597 209.567 597 211.5L597 225.5C597 227.433 595.433 229 593.5 229L558.5 229C556.567 229 555 227.433 555 225.5Z" fill="#8497B0" fill-rule="evenodd"/><text fill="#FFFFFF" font-family="Calibri,Calibri_MSFontService,sans-serif" font-weight="400" font-size="8" transform="translate(567.863 221)">PLC5</text><path d="M602 211.5C602 209.567 603.567 208 605.5 208L640.5 208C642.433 208 644 209.567 644 211.5L644 225.5C644 227.433 642.433 229 640.5 229L605.5 229C603.567 229 602 227.433 602 225.5Z" fill="#8497B0" fill-rule="evenodd"/><text fill="#FFFFFF" font-family="Calibri,Calibri_MSFontService,sans-serif" font-weight="400" font-size="8" transform="translate(614.701 221)">PLC6</text><path d="M464.5 254C464.5 252.067 466.067 250.5 468 250.5L519 250.5C520.933 250.5 522.5 252.067 522.5 254L522.5 268C522.5 269.933 520.933 271.5 519 271.5L468 271.5C466.067 271.5 464.5 269.933 464.5 268Z" stroke="#ADB9CA" stroke-width="1.33333" stroke-miterlimit="8" fill="#D6DCE5" fill-rule="evenodd"/><text font-family="Calibri,Calibri_MSFontService,sans-serif" font-weight="400" font-size="8" transform="translate(480.783 263)">Sensors</text><path d="M470.5 260C470.5 258.067 472.067 256.5 474 256.5L525 256.5C526.933 256.5 528.5 258.067 528.5 260L528.5 274C528.5 275.933 526.933 277.5 525 277.5L474 277.5C472.067 277.5 470.5 275.933 470.5 274Z" stroke="#ADB9CA" stroke-width="1.33333" stroke-miterlimit="8" fill="#D6DCE5" fill-rule="evenodd"/><text font-family="Calibri,Calibri_MSFontService,sans-serif" font-weight="400" font-size="8" transform="translate(486.729 269)">Sensors</text><path d="M478.5 267C478.5 265.067 480.067 263.5 482 263.5L533 263.5C534.933 263.5 536.5 265.067 536.5 267L536.5 281C536.5 282.933 534.933 284.5 533 284.5L482 284.5C480.067 284.5 478.5 282.933 478.5 281Z" stroke="#ADB9CA" stroke-width="1.33333" stroke-miterlimit="8" fill="#D6DCE5" fill-rule="evenodd"/><text font-family="Calibri,Calibri_MSFontService,sans-serif" font-weight="400" font-size="8" transform="translate(494.757 275)">Sensors</text><path d="M0.665862-0.746075 25.3222 21.2594 23.9904 22.7515-0.665862 0.746075ZM26.325 18.1333 29.6301 26.4445 20.9981 24.1019Z" fill="#ADB9CA" transform="matrix(-1 0 0 1 528.63 229)"/><path d="M547.5 254C547.5 252.067 549.067 250.5 551 250.5L602 250.5C603.933 250.5 605.5 252.067 605.5 254L605.5 268C605.5 269.933 603.933 271.5 602 271.5L551 271.5C549.067 271.5 547.5 269.933 547.5 268Z" stroke="#ADB9CA" stroke-width="1.33333" stroke-miterlimit="8" fill="#D6DCE5" fill-rule="evenodd"/><text font-family="Calibri,Calibri_MSFontService,sans-serif" font-weight="400" font-size="8" transform="translate(563.562 263)">Sensors</text><path d="M553.5 260C553.5 258.067 555.067 256.5 557 256.5L608 256.5C609.933 256.5 611.5 258.067 611.5 260L611.5 274C611.5 275.933 609.933 277.5 608 277.5L557 277.5C555.067 277.5 553.5 275.933 553.5 274Z" stroke="#ADB9CA" stroke-width="1.33333" stroke-miterlimit="8" fill="#D6DCE5" fill-rule="evenodd"/><text font-family="Calibri,Calibri_MSFontService,sans-serif" font-weight="400" font-size="8" transform="translate(569.508 269)">Sensors</text><path d="M561.5 267C561.5 265.067 563.067 263.5 565 263.5L616 263.5C617.933 263.5 619.5 265.067 619.5 267L619.5 281C619.5 282.933 617.933 284.5 616 284.5L565 284.5C563.067 284.5 561.5 282.933 561.5 281Z" stroke="#ADB9CA" stroke-width="1.33333" stroke-miterlimit="8" fill="#D6DCE5" fill-rule="evenodd"/><text font-family="Calibri,Calibri_MSFontService,sans-serif" font-weight="400" font-size="8" transform="translate(577.536 275)">Sensors</text><path d="M630.5 254C630.5 252.067 632.067 250.5 634 250.5L685 250.5C686.933 250.5 688.5 252.067 688.5 254L688.5 268C688.5 269.933 686.933 271.5 685 271.5L634 271.5C632.067 271.5 630.5 269.933 630.5 268Z" stroke="#ADB9CA" stroke-width="1.33333" stroke-miterlimit="8" fill="#D6DCE5" fill-rule="evenodd"/><text font-family="Calibri,Calibri_MSFontService,sans-serif" font-weight="400" font-size="8" transform="translate(646.34 263)">Sensors</text><path d="M636.5 260C636.5 258.067 638.067 256.5 640 256.5L691 256.5C692.933 256.5 694.5 258.067 694.5 260L694.5 274C694.5 275.933 692.933 277.5 691 277.5L640 277.5C638.067 277.5 636.5 275.933 636.5 274Z" stroke="#ADB9CA" stroke-width="1.33333" stroke-miterlimit="8" fill="#D6DCE5" fill-rule="evenodd"/><text font-family="Calibri,Calibri_MSFontService,sans-serif" font-weight="400" font-size="8" transform="translate(652.287 269)">Sensors</text><path d="M644.5 267C644.5 265.067 646.067 263.5 648 263.5L699 263.5C700.933 263.5 702.5 265.067 702.5 267L702.5 281C702.5 282.933 700.933 284.5 699 284.5L648 284.5C646.067 284.5 644.5 282.933 644.5 281Z" stroke="#ADB9CA" stroke-width="1.33333" stroke-miterlimit="8" fill="#D6DCE5" fill-rule="evenodd"/><text font-family="Calibri,Calibri_MSFontService,sans-serif" font-weight="400" font-size="8" transform="translate(660.314 275)">Sensors</text><path d="M577 228.982 577.248 243.099 575.248 243.134 575 229.018ZM580.224 241.713 576.365 249.782 572.225 241.854Z" fill="#ADB9CA"/><path d="M623.497 228.132 654.017 245.603 653.023 247.338 622.503 229.868ZM654.35 242.337 659.306 249.782 650.376 249.28Z" fill="#ADB9CA"/><path d="M533.975 142.122 623.166 207.212 621.987 208.827 532.796 143.738ZM532.104 146.947 528 139 536.82 140.485Z" fill="#ADB9CA"/><path d="M179 203.321C179 199.83 181.83 197 185.321 197L428.679 197C432.17 197 435 199.83 435 203.321L435 311.679C435 315.17 432.17 318 428.679 318L185.321 318C181.83 318 179 315.17 179 311.679Z" fill="#4472C4" fill-rule="evenodd"/><text fill="#FFFFFF" font-family="Calibri,Calibri_MSFontService,sans-serif" font-weight="700" font-size="11" transform="translate(293.807 308)">Mixer</text><path d="M237 211.5C237 209.567 238.567 208 240.5 208L275.5 208C277.433 208 279 209.567 279 211.5L279 225.5C279 227.433 277.433 229 275.5 229L240.5 229C238.567 229 237 227.433 237 225.5Z" fill="#8497B0" fill-rule="evenodd"/><text fill="#FFFFFF" font-family="Calibri,Calibri_MSFontService,sans-serif" font-weight="400" font-size="8" transform="translate(250.192 221)">PLC1</text><path d="M284 211.5C284 209.567 285.567 208 287.5 208L322.5 208C324.433 208 326 209.567 326 211.5L326 225.5C326 227.433 324.433 229 322.5 229L287.5 229C285.567 229 284 227.433 284 225.5Z" fill="#8497B0" fill-rule="evenodd"/><text fill="#FFFFFF" font-family="Calibri,Calibri_MSFontService,sans-serif" font-weight="400" font-size="8" transform="translate(297.03 221)">PLC2</text><path d="M331 211.5C331 209.567 332.567 208 334.5 208L369.5 208C371.433 208 373 209.567 373 211.5L373 225.5C373 227.433 371.433 229 369.5 229L334.5 229C332.567 229 331 227.433 331 225.5Z" fill="#8497B0" fill-rule="evenodd"/><text fill="#FFFFFF" font-family="Calibri,Calibri_MSFontService,sans-serif" font-weight="400" font-size="8" transform="translate(343.867 221)">PLC3</text><path d="M194.5 254C194.5 252.067 196.067 250.5 198 250.5L248 250.5C249.933 250.5 251.5 252.067 251.5 254L251.5 268C251.5 269.933 249.933 271.5 248 271.5L198 271.5C196.067 271.5 194.5 269.933 194.5 268Z" stroke="#ADB9CA" stroke-width="1.33333" stroke-miterlimit="8" fill="#D6DCE5" fill-rule="evenodd"/><text font-family="Calibri,Calibri_MSFontService,sans-serif" font-weight="400" font-size="8" transform="translate(209.949 263)">Sensors</text><path d="M200.5 260C200.5 258.067 202.067 256.5 204 256.5L254 256.5C255.933 256.5 257.5 258.067 257.5 260L257.5 274C257.5 275.933 255.933 277.5 254 277.5L204 277.5C202.067 277.5 200.5 275.933 200.5 274Z" stroke="#ADB9CA" stroke-width="1.33333" stroke-miterlimit="8" fill="#D6DCE5" fill-rule="evenodd"/><text font-family="Calibri,Calibri_MSFontService,sans-serif" font-weight="400" font-size="8" transform="translate(215.895 269)">Sensors</text><path d="M208.5 267C208.5 265.067 210.067 263.5 212 263.5L262 263.5C263.933 263.5 265.5 265.067 265.5 267L265.5 281C265.5 282.933 263.933 284.5 262 284.5L212 284.5C210.067 284.5 208.5 282.933 208.5 281Z" stroke="#ADB9CA" stroke-width="1.33333" stroke-miterlimit="8" fill="#D6DCE5" fill-rule="evenodd"/><text font-family="Calibri,Calibri_MSFontService,sans-serif" font-weight="400" font-size="8" transform="translate(223.923 275)">Sensors</text><path d="M0.665862-0.746075 25.3222 21.2594 23.9904 22.7515-0.665862 0.746075ZM26.325 18.1333 29.6301 26.4445 20.9981 24.1019Z" fill="#ADB9CA" transform="matrix(-1 0 0 1 257.63 229)"/><path d="M276.5 254C276.5 252.067 278.067 250.5 280 250.5L331 250.5C332.933 250.5 334.5 252.067 334.5 254L334.5 268C334.5 269.933 332.933 271.5 331 271.5L280 271.5C278.067 271.5 276.5 269.933 276.5 268Z" stroke="#ADB9CA" stroke-width="1.33333" stroke-miterlimit="8" fill="#D6DCE5" fill-rule="evenodd"/><text font-family="Calibri,Calibri_MSFontService,sans-serif" font-weight="400" font-size="8" transform="translate(292.728 263)">Sensors</text><path d="M282.5 260C282.5 258.067 284.067 256.5 286 256.5L337 256.5C338.933 256.5 340.5 258.067 340.5 260L340.5 274C340.5 275.933 338.933 277.5 337 277.5L286 277.5C284.067 277.5 282.5 275.933 282.5 274Z" stroke="#ADB9CA" stroke-width="1.33333" stroke-miterlimit="8" fill="#D6DCE5" fill-rule="evenodd"/><text font-family="Calibri,Calibri_MSFontService,sans-serif" font-weight="400" font-size="8" transform="translate(298.674 269)">Sensors</text><path d="M290.5 267C290.5 265.067 292.067 263.5 294 263.5L345 263.5C346.933 263.5 348.5 265.067 348.5 267L348.5 281C348.5 282.933 346.933 284.5 345 284.5L294 284.5C292.067 284.5 290.5 282.933 290.5 281Z" stroke="#ADB9CA" stroke-width="1.33333" stroke-miterlimit="8" fill="#D6DCE5" fill-rule="evenodd"/><text font-family="Calibri,Calibri_MSFontService,sans-serif" font-weight="400" font-size="8" transform="translate(306.702 275)">Sensors</text><path d="M359.5 254C359.5 252.067 361.067 250.5 363 250.5L414 250.5C415.933 250.5 417.5 252.067 417.5 254L417.5 268C417.5 269.933 415.933 271.5 414 271.5L363 271.5C361.067 271.5 359.5 269.933 359.5 268Z" stroke="#ADB9CA" stroke-width="1.33333" stroke-miterlimit="8" fill="#D6DCE5" fill-rule="evenodd"/><text font-family="Calibri,Calibri_MSFontService,sans-serif" font-weight="400" font-size="8" transform="translate(375.507 263)">Sensors</text><path d="M365.5 260C365.5 258.067 367.067 256.5 369 256.5L420 256.5C421.933 256.5 423.5 258.067 423.5 260L423.5 274C423.5 275.933 421.933 277.5 420 277.5L369 277.5C367.067 277.5 365.5 275.933 365.5 274Z" stroke="#ADB9CA" stroke-width="1.33333" stroke-miterlimit="8" fill="#D6DCE5" fill-rule="evenodd"/><text font-family="Calibri,Calibri_MSFontService,sans-serif" font-weight="400" font-size="8" transform="translate(381.453 269)">Sensors</text><path d="M373.5 267C373.5 265.067 375.067 263.5 377 263.5L428 263.5C429.933 263.5 431.5 265.067 431.5 267L431.5 281C431.5 282.933 429.933 284.5 428 284.5L377 284.5C375.067 284.5 373.5 282.933 373.5 281Z" stroke="#ADB9CA" stroke-width="1.33333" stroke-miterlimit="8" fill="#D6DCE5" fill-rule="evenodd"/><text font-family="Calibri,Calibri_MSFontService,sans-serif" font-weight="400" font-size="8" transform="translate(389.48 275)">Sensors</text><path d="M306 228.982 306.248 243.099 304.248 243.134 304 229.018ZM309.224 241.713 305.365 249.782 301.225 241.854Z" fill="#ADB9CA"/><path d="M352.497 228.132 383.017 245.603 382.023 247.338 351.503 229.868ZM383.35 242.337 388.306 249.782 379.376 249.28Z" fill="#ADB9CA"/><path d="M532.615 143.914 576.561 207.45 574.917 208.588 530.97 145.052ZM529.261 147.855 528 139 535.841 143.304Z" fill="#ADB9CA"/><path d="M529.087 145.653 529.901 208.006 527.901 208.032 527.087 145.679ZM524.105 147.052 528 139 532.104 146.947Z" fill="#ADB9CA"/><path d="M6.57275 1.49984 176.622 68.0882 175.893 69.9505 5.8435 3.36215ZM5.99074 6.64161 0 0 8.90773-0.807628Z" fill="#ADB9CA" transform="matrix(-1 0 0 1 528.257 139)"/><path d="M6.66387 1.01486 223.39 68.064 222.799 69.9746 6.07277 2.92551ZM6.46041 6.18572 0 0 8.82482-1.45689Z" fill="#ADB9CA" transform="matrix(-1 0 0 1 528.095 139)"/><path d="M6.70691 0.682727 270.18 68.0505 269.685 69.9881 6.21146 2.62039ZM6.75976 5.8571 0 0 8.74154-1.89355Z" fill="#ADB9CA" transform="matrix(-1 0 0 1 527.932 139)"/><path d="M718 203.112C718 199.736 720.736 197 724.112 197L828.888 197C832.264 197 835 199.736 835 203.112L835 311.888C835 315.264 832.264 318 828.888 318L724.112 318C720.736 318 718 315.264 718 311.888Z" fill="#4472C4" fill-rule="evenodd"/><text fill="#FFFFFF" font-family="Calibri,Calibri_MSFontService,sans-serif" font-weight="700" font-size="11" transform="translate(764.251 308)">Slicer</text><path d="M760 212.667C760 210.642 761.642 209 763.667 209L797.333 209C799.358 209 801 210.642 801 212.667L801 227.333C801 229.358 799.358 231 797.333 231L763.667 231C761.642 231 760 229.358 760 227.333Z" fill="#8497B0" fill-rule="evenodd"/><text fill="#FFFFFF" font-family="Calibri,Calibri_MSFontService,sans-serif" font-weight="400" font-size="8" transform="translate(772.506 222)">PLC7</text><path d="M752.5 253.167C752.5 251.142 754.142 249.5 756.167 249.5L806.833 249.5C808.858 249.5 810.5 251.142 810.5 253.167L810.5 267.833C810.5 269.858 808.858 271.5 806.833 271.5L756.167 271.5C754.142 271.5 752.5 269.858 752.5 267.833Z" stroke="#ADB9CA" stroke-width="1.33333" stroke-miterlimit="8" fill="#D6DCE5" fill-rule="evenodd"/><text font-family="Calibri,Calibri_MSFontService,sans-serif" font-weight="400" font-size="8" transform="translate(768.555 262)">Sensors</text><path d="M758.5 259C758.5 257.067 760.067 255.5 762 255.5L813 255.5C814.933 255.5 816.5 257.067 816.5 259L816.5 273C816.5 274.933 814.933 276.5 813 276.5L762 276.5C760.067 276.5 758.5 274.933 758.5 273Z" stroke="#ADB9CA" stroke-width="1.33333" stroke-miterlimit="8" fill="#D6DCE5" fill-rule="evenodd"/><text font-family="Calibri,Calibri_MSFontService,sans-serif" font-weight="400" font-size="8" transform="translate(774.501 268)">Sensors</text><path d="M766.5 266C766.5 264.067 768.067 262.5 770 262.5L821 262.5C822.933 262.5 824.5 264.067 824.5 266L824.5 280C824.5 281.933 822.933 283.5 821 283.5L770 283.5C768.067 283.5 766.5 281.933 766.5 280Z" stroke="#ADB9CA" stroke-width="1.33333" stroke-miterlimit="8" fill="#D6DCE5" fill-rule="evenodd"/><text font-family="Calibri,Calibri_MSFontService,sans-serif" font-weight="400" font-size="8" transform="translate(782.529 275)">Sensors</text><path d="M780.999 230.961 781.457 242.745 779.458 242.823 779.001 231.039ZM784.403 241.297 780.716 249.446 776.409 241.607Z" fill="#ADB9CA"/><path d="M534.689 139.831 780.651 208.577 780.112 210.503 534.151 141.757ZM534.628 145.006 528 139 536.781 137.301Z" fill="#ADB9CA"/><path d="M959.5 192.5C959.5 196.366 976.961 199.5 998.5 199.5 1020.04 199.5 1037.5 196.366 1037.5 192.5L1037.5 234.5C1037.5 238.366 1020.04 241.5 998.5 241.5 976.961 241.5 959.5 238.366 959.5 234.5Z" fill="#4472C4" fill-rule="evenodd"/><path d="M959.5 192.5C959.5 188.634 976.961 185.5 998.5 185.5 1020.04 185.5 1037.5 188.634 1037.5 192.5 1037.5 196.366 1020.04 199.5 998.5 199.5 976.961 199.5 959.5 196.366 959.5 192.5Z" fill="#8FAADC" fill-rule="evenodd"/><path d="M1037.5 192.5C1037.5 196.366 1020.04 199.5 998.5 199.5 976.961 199.5 959.5 196.366 959.5 192.5 959.5 188.634 976.961 185.5 998.5 185.5 1020.04 185.5 1037.5 188.634 1037.5 192.5L1037.5 234.5C1037.5 238.366 1020.04 241.5 998.5 241.5 976.961 241.5 959.5 238.366 959.5 234.5L959.5 192.5" stroke="#2F528F" stroke-width="1.33333" stroke-miterlimit="8" fill="none" fill-rule="evenodd"/><text fill="#FFFFFF" font-family="Calibri,Calibri_MSFontService,sans-serif" font-weight="700" font-size="9" transform="translate(981.739 219)">ERP data</text><text font-family="Aptos,Aptos_MSFontService,sans-serif" font-weight="700" font-size="11" transform="translate(958.263 261)">ERP application</text><text font-family="Aptos,Aptos_MSFontService,sans-serif" font-weight="700" font-size="11" transform="translate(958.016 274)">(HTTP endpoint)</text><text font-family="Aptos,Aptos_MSFontService,sans-serif" font-weight="400" font-size="11" transform="translate(923.849 286)">Asset ID</text><text font-family="Aptos,Aptos_MSFontService,sans-serif" font-weight="400" font-size="11" transform="translate(962.016 286)">, Name, Serial Number,</text><text font-family="Aptos,Aptos_MSFontService,sans-serif" font-weight="400" font-size="11" transform="translate(939.096 299)">Site</text><text font-family="Aptos,Aptos_MSFontService,sans-serif" font-weight="400" font-size="11" transform="translate(956.763 299)">, Maintenance Status</text></g></svg>