<svg xmlns="http://www.w3.org/2000/svg" width="18" height="18" viewBox="0 0 18 18">
  <defs>
    <linearGradient id="a7a54a60-b1f0-4526-ad31-c9837d9987d8" x1="18.131" y1="5.699" x2="9.615" y2="16.728" gradientUnits="userSpaceOnUse">
      <stop offset="0" stop-color="#83b9f9"/>
      <stop offset="0.09" stop-color="#79b4f6"/>
      <stop offset="0.243" stop-color="#5ea7ef"/>
      <stop offset="0.441" stop-color="#3391e2"/>
      <stop offset="0.638" stop-color="#0078d4"/>
    </linearGradient>
    <linearGradient id="b719af3d-3cb6-43dc-83c2-8a9b067df41f" x1="6.876" y1="-0.587" x2="6.507" y2="27.562" gradientUnits="userSpaceOnUse">
      <stop offset="0.176" stop-color="#83b9f9"/>
      <stop offset="0.194" stop-color="#7eb7f8"/>
      <stop offset="0.38" stop-color="#51a0eb"/>
      <stop offset="0.559" stop-color="#2e8fe1"/>
      <stop offset="0.726" stop-color="#1582da"/>
      <stop offset="0.878" stop-color="#057bd6"/>
      <stop offset="1" stop-color="#0078d4"/>
    </linearGradient>
  </defs>
  <g id="a12783d2-3ef0-4513-a70b-1c1c1264f36c">
    <g>
      <path d="M17.381,13.043l-6.019-2.8a.7.7,0,0,1-.428-.715V8.561a.705.705,0,0,1,.428-.715l6.019-2.8c.322-.083.619.26.619.715v6.567C18,12.782,17.7,13.125,17.381,13.043Z" fill="url(#a7a54a60-b1f0-4526-ad31-c9837d9987d8)"/>
      <rect y="3.102" width="13.501" height="11.796" rx="0.707" fill="url(#b719af3d-3cb6-43dc-83c2-8a9b067df41f)"/>
      <path d="M5.145,10.379a2.257,2.257,0,0,1-.54-1.4,1.921,1.921,0,0,1,.519-1.311.529.529,0,0,0-.72-.774,3,3,0,0,0-.857,2.08,3.316,3.316,0,0,0,.833,2.136.529.529,0,0,0,.765-.73Z" fill="#c3f1ff"/>
      <path d="M2.935,12.137a.528.528,0,0,1-.4-.18A4.817,4.817,0,0,1,1.47,9.005,5.14,5.14,0,0,1,2.524,6.07a.529.529,0,0,1,.823.664h0a4.108,4.108,0,0,0-.819,2.271,3.73,3.73,0,0,0,.805,2.255.529.529,0,0,1-.4.877Z" fill="#c3f1ff"/>
      <path d="M8.821,6.9a.525.525,0,0,0-.741.028.531.531,0,0,0,.021.746,1.918,1.918,0,0,1,.52,1.311,2.267,2.267,0,0,1-.54,1.4.529.529,0,0,0,.765.73A3.316,3.316,0,0,0,9.679,8.98,3,3,0,0,0,8.821,6.9Z" fill="#c3f1ff"/>
      <path d="M10.291,12.144a.529.529,0,0,1-.4-.877,3.8,3.8,0,0,0,.8-2.255,4.116,4.116,0,0,0-.819-2.271.529.529,0,0,1,.823-.664,5.142,5.142,0,0,1,1.053,2.935,4.82,4.82,0,0,1-1.066,2.952A.528.528,0,0,1,10.291,12.144Z" fill="#c3f1ff"/>
      <circle cx="6.625" cy="9.017" r="0.924" fill="#c3f1ff"/>
    </g>
  </g>
</svg>
