<svg id="Layer_1" data-name="Layer 1" xmlns="http://www.w3.org/2000/svg" xmlns:xlink="http://www.w3.org/1999/xlink" width="16" height="13.13" viewBox="0 0 16 13.13"><defs><style>.cls-1{fill:#0078d4;}.cls-2{fill:url(#linear-gradient);}.cls-3{fill:#50e6ff;}.cls-4{fill:#32b0e7;}</style><linearGradient id="linear-gradient" x1="7.82" y1="13.19" x2="2.57" y2="-0.36" gradientTransform="matrix(1, 0, 0, -1, 0, 14.13)" gradientUnits="userSpaceOnUse"><stop offset="0" stop-color="#4dc2eb"/><stop offset="1" stop-color="#0078d4"/></linearGradient></defs><path class="cls-1" d="M3.66,7.39l.49-.29L5,7.61l-.49.29ZM2.85,5.27A3.5,3.5,0,0,1,1.34,2.46a1.25,1.25,0,0,1,.51-1.14l-.48.27a1.29,1.29,0,0,0-.5,1.15A3.53,3.53,0,0,0,2.38,5.55l1.28.74L4.15,6Zm.81,1L4.15,6l.89.5-.49.29Z"/><path class="cls-1" d="M5.66,6.89,5,6.52a1,1,0,0,1,.42-.62L5,6.17a1,1,0,0,0-.43.64l.64.35a.94.94,0,0,0,1,.08L6.67,7A.92.92,0,0,1,5.66,6.89Zm3.62,4.56L6.47,9.83A3.4,3.4,0,0,1,5,7.62l-.49.29A3.48,3.48,0,0,0,6,10.12l2.81,1.62a.94.94,0,0,0,1,.08l.49-.29A.94.94,0,0,1,9.28,11.45Zm-2-3.34-.49.29A1.2,1.2,0,0,0,7,8.23a1.83,1.83,0,0,0,.52-1.1L8,6.86A1.83,1.83,0,0,1,7.46,8,.42.42,0,0,1,7.25,8.11Z"/><path class="cls-1" d="M6.62,6.61l.49-.27.89.5-.49.29ZM6.49,4.87A1.55,1.55,0,0,0,4.9,4.74L4.41,5A1.58,1.58,0,0,1,6,5.15l.64.37.49-.28Z"/><path class="cls-1" d="M6.64,5.52l.49-.28.88.5L7.52,6Z"/><path class="cls-2" d="M8.81,6.78,7.51,6A5.49,5.49,0,0,0,5.19,2.22L2.38.59C1.07-.16,0,.59,0,2.25a5.54,5.54,0,0,0,2.37,4.4l.93.53.36.21.89.51.62.36A1.45,1.45,0,0,0,7,8.23a1.86,1.86,0,0,0,.52-1.1l1.28.75a3.5,3.5,0,0,1,1.5,2.79c0,1.07-.69,1.55-1.51,1.07L6,10.12A3.48,3.48,0,0,1,4.55,7.91l-.89-.52A5.51,5.51,0,0,0,6,11.22l2.81,1.62c1.31.75,2.37,0,2.38-1.66A5.56,5.56,0,0,0,8.81,6.78ZM2.38,5.56A3.5,3.5,0,0,1,.87,2.75c0-1.06.69-1.54,1.51-1.06L5.19,3.3A3.37,3.37,0,0,1,6.62,5.52L6,5.15A1.45,1.45,0,0,0,3.66,6.29Zm2.81,1.6-.64-.35A.89.89,0,0,1,6,6.26l.64.37A.89.89,0,0,1,5.19,7.16Z"/><path class="cls-1" d="M9.29,6.49,8,5.74A5.46,5.46,0,0,0,5.68,1.93L2.87.3A1.55,1.55,0,0,0,1.28.16L.79.43A1.58,1.58,0,0,1,2.38.57L5.19,2.2A5.55,5.55,0,0,1,7.51,6l1.3.75a5.52,5.52,0,0,1,2.36,4.4,2,2,0,0,1-.78,1.8l.49-.28a2,2,0,0,0,.78-1.8A5.51,5.51,0,0,0,9.29,6.49Z"/><path class="cls-3" d="M12.67,9.94c0,.12-.08.18-.19.12a.41.41,0,0,1-.21-.32A3.84,3.84,0,0,0,12,8.64a5.62,5.62,0,0,0-.58-1.08,5.09,5.09,0,0,0-1.8-1.65.38.38,0,0,1-.21-.32c0-.12.07-.18.18-.12a5.45,5.45,0,0,1,1.63,1.31,6.44,6.44,0,0,1,1.13,1.86A4.25,4.25,0,0,1,12.67,9.94Z"/><path class="cls-4" d="M12.73,8.39A7,7,0,0,0,11.6,6.52,5.57,5.57,0,0,0,10,5.21a.12.12,0,0,0-.14,0l-.37.24a.12.12,0,0,1,.14,0,5.48,5.48,0,0,1,1.63,1.32,6.49,6.49,0,0,1,1.13,1.87A4.24,4.24,0,0,1,12.67,10a.15.15,0,0,1-.05.12L13,9.83a.1.1,0,0,0,0-.12A4.23,4.23,0,0,0,12.73,8.39Z"/><path class="cls-3" d="M10.16,4.1a6.7,6.7,0,0,1,2.08,1.66,8.46,8.46,0,0,1,1.43,2.35,5.52,5.52,0,0,1,.39,1.65c0,.12-.08.18-.19.12a.38.38,0,0,1-.21-.32,5.11,5.11,0,0,0-.34-1.45,6.54,6.54,0,0,0-.76-1.43,6.49,6.49,0,0,0-2.37-2.16A.44.44,0,0,1,10,4.2C10,4.1,10,4.05,10.16,4.1Z"/><path class="cls-4" d="M14,7.88a7.89,7.89,0,0,0-1.43-2.35,6.62,6.62,0,0,0-2.08-1.68.12.12,0,0,0-.14,0L10,4.1a.11.11,0,0,1,.13,0,6.48,6.48,0,0,1,2.08,1.68,8.32,8.32,0,0,1,1.43,2.35,5.53,5.53,0,0,1,.39,1.64.24.24,0,0,1-.05.14l.37-.24a.11.11,0,0,0,0-.13A5.64,5.64,0,0,0,14,7.88Zm.4-2.68a9.17,9.17,0,0,0-3.31-3,.12.12,0,0,0-.14,0l-.37.24a.12.12,0,0,1,.14,0,9.27,9.27,0,0,1,3.31,3,8.44,8.44,0,0,1,1.56,4.09.13.13,0,0,1-.05.12L16,9.41a.1.1,0,0,0,0-.12A8.59,8.59,0,0,0,14.44,5.2Z"/><path class="cls-3" d="M10.76,2.43a9.32,9.32,0,0,1,.92.55,9.76,9.76,0,0,1,2.38,2.46,8.52,8.52,0,0,1,1.55,4.09c0,.12-.07.18-.18.12a.38.38,0,0,1-.21-.32,6,6,0,0,0-.45-1.86,9.42,9.42,0,0,0-1-1.83,8.25,8.25,0,0,0-3-2.75.41.41,0,0,1-.21-.32C10.56,2.43,10.64,2.39,10.76,2.43Z"/></svg>