<svg xmlns="http://www.w3.org/2000/svg" width="18" height="18" viewBox="0 0 18 18">
  <defs>
    <linearGradient id="fd0757cc-1ad5-4163-a239-dfca92bc52a7" x1="6.517" y1="1.902" x2="6.517" y2="15.827" gradientUnits="userSpaceOnUse">
      <stop offset="0" stop-color="#5ea0ef"/>
      <stop offset="1" stop-color="#0078d4"/>
    </linearGradient>
    <linearGradient id="fe379522-6c6e-47a9-a43c-525295da91ea" x1="6.517" y1="791.516" x2="6.517" y2="788.197" gradientTransform="matrix(1, 0, 0, -1, 0, 791.516)" gradientUnits="userSpaceOnUse">
      <stop offset="0" stop-color="#5ea0ef"/>
      <stop offset="1" stop-color="#0078d4"/>
    </linearGradient>
    <linearGradient id="af746d61-cdc2-4cf9-ab58-fd7129805032" x1="13.626" y1="10.055" x2="13.626" y2="19.062" gradientUnits="userSpaceOnUse">
      <stop offset="0" stop-color="#5ea0ef"/>
      <stop offset="1" stop-color="#0078d4"/>
    </linearGradient>
    <linearGradient id="f6fda2b6-0659-430e-94ab-5bed1dd1283a" x1="13.627" y1="15.288" x2="13.627" y2="15.593" gradientUnits="userSpaceOnUse">
      <stop offset="0" stop-color="#5ea0ef"/>
      <stop offset="1" stop-color="#0078d4"/>
    </linearGradient>
  </defs>
  <path d="M10.112,15.231l-.077-.187-.83-.272-.139-.052-.382-.143V12.762l.39-.14.975-.349.076-.185-.386-.756-.07-.139-.19-.38.3-.3.7-.7.294-.294.376.179.9.429.184-.076.272-.83.053-.139L12.7,8.7h.318V2.516a.53.53,0,0,0-.53-.531H.551a.531.531,0,0,0-.531.531V15.38a.531.531,0,0,0,.531.531h9.24Z" fill="url(#fd0757cc-1ad5-4163-a239-dfca92bc52a7)"/>
  <path d="M10.035,15.044l-.83-.272-.139-.052-.382-.143V12.762l.39-.14.975-.349.076-.185-.386-.756-.07-.139-.19-.38.3-.3.7-.7.294-.294.376.179.9.429.177-.073V3.365a.53.53,0,0,0-.53-.53H1.344a.53.53,0,0,0-.531.53V14.53a.53.53,0,0,0,.531.53h8.7Z" fill="#5ea0ef"/>
  <path d="M7.529,1.021a1.021,1.021,0,0,0-2.042,0H3.6a.53.53,0,0,0-.531.53V3.319h6.9V1.551a.53.53,0,0,0-.53-.53H7.529ZM6.368.53a.51.51,0,0,1,.65.492H7.006a.506.506,0,0,1-.507.506.475.475,0,0,1-.193-.038A.511.511,0,0,1,6.015.884.5.5,0,0,1,6.368.53Z" fill="url(#fe379522-6c6e-47a9-a43c-525295da91ea)"/>
  <path d="M7.712,5H5.341a.267.267,0,0,0-.268.261V7.636a.261.261,0,0,0,.261.261H7.712a.262.262,0,0,0,.275-.247V5.264A.269.269,0,0,0,7.712,5ZM7.486,7.241a.176.176,0,0,1-.176.169H5.736a.176.176,0,0,1-.176-.169V5.667a.176.176,0,0,1,.176-.177H7.282a.176.176,0,0,1,.176.177Z" fill="#c3f1ff"/>
  <path d="M9,9.787v1.4h.629V11.1l-.146-.291.146-.145v-1.4a.255.255,0,0,0-.247-.254H6.992a.127.127,0,0,1-.127-.127V7.735H6.23V8.884a.127.127,0,0,1-.127.127H3.753a.254.254,0,0,0-.254.254v1.884h.635V9.787a.128.128,0,0,1,.12-.127H8.869A.127.127,0,0,1,9,9.787Z" fill="#9cebff"/>
  <rect x="2.751" y="11.118" width="2.075" height="2.075" rx="0.191" fill="#c3f1ff"/>
  <path d="M8.684,13.176v-.414l.39-.14.975-.349.076-.185-.386-.756-.07-.139-.031-.061H8.446a.191.191,0,0,0-.191.19v1.694a.192.192,0,0,0,.191.191h.238Z" fill="#c3f1ff"/>
  <path d="M17.98,14.116v-.992l-.14-.052-1.064-.349-.278-.677.539-1.149-.7-.7-.14.07-.99.5-.678-.279-.437-1.2H13.1l-.053.139L12.7,10.5l-.677.279-1.134-.542-.7.7.07.139.507.993-.279.677-1.221.437v.993l.14.052,1.064.348.278.677L10.213,16.4l.7.7.14-.069.992-.5.677.278.438,1.2h.992l.053-.139.348-1.065.677-.278,1.15.54.7-.7L17,16.222l-.5-.991.279-.677Zm-4.351,1.441h0a1.911,1.911,0,1,1,1.911-1.911A1.911,1.911,0,0,1,13.626,15.557Z" fill="url(#af746d61-cdc2-4cf9-ab58-fd7129805032)"/>
  <polygon points="13.626 15.263 13.626 15.263 13.626 15.557 13.627 15.263 13.626 15.263" fill="url(#f6fda2b6-0659-430e-94ab-5bed1dd1283a)"/>
</svg>
