<svg width="100" height="100" viewBox="0 0 100 100" xmlns="http://www.w3.org/2000/svg">
<path d="M70.6176 31.2099L81.715 37.6072L81.5844 82.2578L42.6783 59.9325L42.8089 3.27063L70.6176 19.3292V31.2099Z" fill="#1D4A79"/>
<path d="M42.8088 3.27088L47.9006 0.268066L75.7093 16.3266L70.6175 19.3294L42.8088 3.27088Z" fill="#185A97"/>
<path d="M81.7149 37.6074L86.8066 34.7351L86.6761 79.3857L81.5844 82.3885L81.7149 37.6074Z" fill="#185A97"/>
<path d="M70.6178 19.3296L75.7095 16.3268L86.8069 34.7354L81.7152 37.6076L70.6178 19.3296Z" fill="#0078D4"/>
<path d="M70.6178 19.3295L81.7152 37.6075L70.6178 31.2102V19.3295Z" fill="#156AB3"/>
<path d="M55.5488 39.8195L66.6461 46.2168L66.5156 90.8674L27.6095 68.5421L27.7401 11.8802L55.5488 27.9388V39.8195Z" fill="#0078D4"/>
<path d="M27.74 11.8806L32.8317 8.87781L60.6404 24.9363L55.5487 27.9392L27.74 11.8806Z" fill="#32B0E7"/>
<path d="M66.6468 46.2176L71.7385 43.3453L71.608 87.9959L66.5162 90.9987L66.6468 46.2176Z" fill="#32B0E7"/>
<path d="M55.5497 27.9397L60.6414 24.9369L71.7388 43.3455L66.647 46.2177L55.5497 27.9397Z" fill="#45CAF2"/>
<path d="M55.5497 27.9396L66.6471 46.2176L55.5497 39.8203V27.9396Z" fill="#32B0E7"/>
<path d="M41.1325 49.0895L52.2299 55.4868L52.0993 100.137L13.1932 77.8121L13.3238 21.1503L41.1325 37.2088V49.0895Z" fill="#45CAF2"/>
<path d="M13.3235 21.1495L18.4152 18.1467L46.2239 34.2053L41.1322 37.2081L13.3235 21.1495Z" fill="#50E6FF"/>
<path d="M52.2297 55.487L57.3214 52.6147L57.1908 97.2653L52.0991 100.268L52.2297 55.487Z" fill="#32B0E7"/>
<path d="M41.1327 37.2091L46.2244 34.2063L57.3218 52.6149L52.2301 55.4871L41.1327 37.2091Z" fill="#84ECFD"/>
<path d="M41.1327 37.209L52.2301 55.487L41.1327 49.0897V37.209Z" fill="#50E6FF"/>
<path d="M42.9898 66.8395V70.0443L28.8455 61.5067V58.3019L42.9898 66.8395Z" fill="#fff"/>
<path d="M42.9906 72.9156V76.1206L20.7766 63.1901V60.0956L42.9906 72.9156Z" fill="#fff"/>
<path d="M42.9906 78.8861V82.0911L20.7766 69.1606V65.9556L42.9906 78.8861Z" fill="#fff"/>
<path d="M21.6566 43.0623C21.8075 43.1377 21.9583 43.2634 22.084 43.4394L26.2824 48.6685L30.4807 53.8976C31.0589 54.6015 31.0589 55.5568 30.4807 55.6071L26.2572 55.959L22.0589 56.2859C21.9332 56.2859 21.7823 56.2607 21.6315 56.1853C21.179 55.9339 20.7767 55.2803 20.7767 54.702L20.8019 49.121V43.54C20.8019 42.9617 21.2293 42.7858 21.6566 43.0623Z" fill="#fff"/>
</svg>
