<svg width="100" height="100" viewBox="0 0 100 100" xmlns="http://www.w3.org/2000/svg">
<path d="M64.2379 38.1786L77.7514 45.9687L77.5924 100.341L30.2156 73.1548L30.3746 4.15625L64.2379 23.7111V38.1786Z" fill="#fff"/>
<path d="M30.3741 4.1566L36.5745 0.5L70.4378 20.0549L64.2375 23.7115L30.3741 4.1566Z" fill="#DCDCDC"/>
<path d="M77.7511 45.9691L83.9515 42.4714L83.7925 96.8435L77.5922 100.5L77.7511 45.9691Z" fill="#DCDCDC"/>
<path d="M64.2379 23.7113L70.4382 20.0547L83.9518 42.4713L77.7515 45.9689L64.2379 23.7113Z" fill="#E2E2E2"/>
<path d="M64.2379 23.7114L77.7515 45.969L64.2379 38.1789V23.7114Z" fill="#DCDCDC"/>
<path d="M66.5012 59.7945V63.6973L49.2764 53.3003V49.3975L66.5012 59.7945Z" fill="#45CAF2"/>
<path d="M66.5006 67.1935V71.0963L39.4501 55.3505V51.5823L66.5006 67.1935Z" fill="#50E6FF"/>
<path d="M66.5006 74.4624V78.3652L39.4501 62.6194V58.7166L66.5006 74.4624Z" fill="#84ECFD"/>
<path d="M40.5217 30.8392C40.7054 30.9311 40.8891 31.0842 41.0422 31.2985L46.1549 37.6664L51.2676 44.0343C51.9718 44.8916 51.9718 46.0549 51.2676 46.1162L46.1243 46.5448L41.0116 46.9428C40.8585 46.9428 40.6748 46.9122 40.4911 46.8203C39.94 46.5142 39.4502 45.7182 39.4502 45.014L39.4808 38.2175V31.4209C39.4808 30.7168 40.0013 30.5025 40.5217 30.8392Z" fill="#45CAF2"/>
<path d="M89.3632 60.5361L89.2893 75.8722V81.009L71.4521 70.7602L71.5261 50.2627L75.9361 52.8064L89.3632 60.5361Z" fill="#32B0E7"/>
<path d="M71.5266 50.2629L75.9366 52.8066L89.2898 60.561L91.6194 59.2465L78.1923 51.4179L73.7823 48.8743L71.5266 50.2629Z" fill="#2195DC"/>
<path d="M89.2894 81.0147L91.5436 79.6717L91.6175 59.2483L89.314 60.5365L89.2876 80.8294L89.2894 81.0147Z" fill="#2195DC"/>
<path d="M79.2284 58.2478L81.5867 59.5739V64.9428L86.2184 67.6841V70.321L81.5867 67.6539V72.9745L79.2284 71.6485V66.2849L74.5967 63.6177V60.8959L79.2284 63.5878V58.2478Z" fill="#fff"/>
<path d="M40.3261 87.8808L37.6587 89.4403C38.3509 88.956 38.902 88.2966 39.2555 87.5294C39.6091 86.7622 39.7525 85.9149 39.6711 85.0741C39.5152 82.8384 38.8943 80.6598 37.848 78.6778C36.8017 76.6959 35.3531 74.9542 33.595 73.5643L36.2623 72.0049C38.025 73.3905 39.4769 75.1312 40.5236 77.114C41.5703 79.0968 42.1886 81.2775 42.3384 83.5147C42.4206 84.3555 42.2776 85.2031 41.9239 85.9704C41.5703 86.7377 41.0188 87.3971 40.3261 87.8808V87.8808Z" fill="#156AB3"/>
<path d="M10.7386 60.2128L13.406 58.6534C14.176 58.2685 15.0251 58.0681 15.886 58.0681C16.7468 58.0681 17.5958 58.2685 18.3659 58.6534L15.6985 60.2128C14.9291 59.8259 14.0798 59.6244 13.2186 59.6244C12.3574 59.6244 11.5081 59.8259 10.7386 60.2128V60.2128Z" fill="#156AB3"/>
<path d="M17.7848 57.6011L20.4521 56.0416C22.137 55.0577 24.5242 55.2166 27.1595 56.7384C32.1765 59.6524 36.2347 66.4713 36.2625 72.0151L33.5952 73.5759C33.5603 68.0182 29.5119 61.2119 24.4922 58.2993C21.8583 56.7649 19.4697 56.6172 17.7848 57.6011Z" fill="#156AB3"/>
<path d="M32.5693 89.0437C36.5146 91.1341 39.6404 89.4047 39.6766 85.0747C39.5197 82.8392 38.8982 80.661 37.852 78.6792C36.8058 76.6974 35.3578 74.9556 33.6005 73.565C33.5657 68.0087 29.5172 61.2023 24.4989 58.2883C20.4421 55.9303 16.9427 56.8361 15.747 60.1933C11.5662 58.521 8.40837 60.6546 8.38049 65.4402C8.38049 70.7624 12.2937 77.3472 17.1602 80.1887C17.4123 80.3424 17.6765 80.4752 17.9503 80.5859L32.2166 88.8737C32.3326 88.9417 32.4574 88.9938 32.5874 89.0284" fill="url(#76e05969-c001-4d01-8676-54d279301685)"/>
<defs>
<linearGradient id="76e05969-c001-4d01-8676-54d279301685" x1="18.4146" y1="61.4362" x2="32.5238" y2="92.0061" gradientUnits="userSpaceOnUse">
<stop stop-color="#32B0E7"/>
<stop offset="1" stop-color="#0078D4"/>
</linearGradient>
</defs>
</svg>
