<svg id="Layer_1" data-name="Layer 1" xmlns="http://www.w3.org/2000/svg" xmlns:xlink="http://www.w3.org/1999/xlink" width="16" height="14.12" viewBox="0 0 16 14.12"><defs><style>.cls-1{fill:url(#linear-gradient);}.cls-2{fill:#45c6dc;}.cls-3{fill:#d2d2d2;}.cls-4{fill:#fff;}.cls-5{fill:#b4b4b4;}.cls-6{fill:#32b0e7;}.cls-7{fill:url(#linear-gradient-2);}.cls-8{fill:url(#linear-gradient-3);}.cls-9{fill:url(#linear-gradient-4);}</style><linearGradient id="linear-gradient" x1="8.75" y1="3.42" x2="9.85" y2="4.87" gradientTransform="matrix(1, 0, 0, -1, 0, 15.59)" gradientUnits="userSpaceOnUse"><stop offset="0" stop-color="#c9c9c9"/><stop offset="1" stop-color="#b4b4b4"/></linearGradient><linearGradient id="linear-gradient-2" x1="9.98" y1="10.27" x2="9.98" y2="6.97" gradientTransform="matrix(1, 0, 0, -1, 0, 15.59)" gradientUnits="userSpaceOnUse"><stop offset="0" stop-color="#50e6ff"/><stop offset="1" stop-color="#32b0e7"/></linearGradient><linearGradient id="linear-gradient-3" x1="1.31" y1="5.41" x2="4.13" y2="0.75" gradientTransform="matrix(1, 0, 0, -1, 0, 15.59)" gradientUnits="userSpaceOnUse"><stop offset="0" stop-color="#32b0e7"/><stop offset="1" stop-color="#156ab3"/></linearGradient><linearGradient id="linear-gradient-4" x1="1.96" y1="8.49" x2="3.61" y2="5.44" xlink:href="#linear-gradient-3"/></defs><path class="cls-1" d="M6.64,10.44c-.76.43,1.81.2,3.13,1s1,2.12,1.65,1.78c.45-.26.52-1.52-.8-2.28A5.26,5.26,0,0,0,6.64,10.44Z"/><path class="cls-2" d="M10.16,9.52,11,9l.86.48L11,10Z"/><path class="cls-3" d="M15.55,6.34l0,7.78L4.92,8.05,4.9.27Z"/><path class="cls-4" d="M5.38,7.77l0-6.7L15.1,6.69v6.69Z"/><path class="cls-5" d="M15.54,6.31,16,6.06v7.79l-.44.25Z"/><path class="cls-5" d="M4.9.27,5.35,0,16,6.09l-.45.25Z"/><path class="cls-6" d="M8.87,5.33l.22-.13h.07s.05,0,.07,0L9,5.34l-.07,0A.09.09,0,0,0,8.87,5.33Z"/><path class="cls-6" d="M9,5.34l.22-.12a.28.28,0,0,1,.1.09l-.21.13A.52.52,0,0,0,9,5.34Z"/><path class="cls-6" d="M9.12,5.44l.21-.13,1.95,2.53L11.06,8Z"/><path class="cls-6" d="M11.31,8.17l-.22.12c.08,0,.07-.2,0-.33l.22-.12C11.38,8,11.39,8.13,11.31,8.17Z"/><path class="cls-7" d="M9,5.34a.52.52,0,0,1,.11.1L11.06,8c.12.15.12.33,0,.34l-2,.32a.23.23,0,0,1-.11,0,.4.4,0,0,1-.13-.13.64.64,0,0,1-.06-.18V5.44C8.82,5.32,8.91,5.29,9,5.34Z"/><path class="cls-8" d="M5.09,12.23A2.55,2.55,0,0,0,2.57,10a2.52,2.52,0,0,0-1.69.63A2.54,2.54,0,0,0,0,12.2a1.23,1.23,0,0,0,0,.27,1.3,1.3,0,0,0,.75,1,4,4,0,0,0,3.61,0,1.3,1.3,0,0,0,.73-1,.49.49,0,0,0,0-.24Z"/><path class="cls-9" d="M2.56,9.72a1.52,1.52,0,0,0,.85-.26A1.49,1.49,0,0,0,4,8.77a1.47,1.47,0,0,0,.09-.88,1.53,1.53,0,0,0-.42-.78,1.61,1.61,0,0,0-.78-.42A1.68,1.68,0,0,0,2,6.78a1.56,1.56,0,0,0-.68.57A1.49,1.49,0,0,0,1,8.19a1.52,1.52,0,0,0,.12.59,1.81,1.81,0,0,0,.33.5,1.81,1.81,0,0,0,.5.33,1.71,1.71,0,0,0,.59.11Z"/></svg>