<svg id="a5e980e2-fe6c-4b4b-bd88-a9c235de5a4d" xmlns="http://www.w3.org/2000/svg" xmlns:xlink="http://www.w3.org/1999/xlink" width="17.64" height="17.6" viewBox="0 0 17.64 17.6"><defs><style>.cls-1{fill:url(#linear-gradient);}.cls-2{fill:#0078d4;}.cls-3{fill:#5ea0ef;}.cls-4{fill:url(#linear-gradient-2);}.cls-5{fill:#c3f1ff;}.cls-6{fill:url(#linear-gradient-3);}.cls-7{fill:#50e6ff;}</style><linearGradient id="linear-gradient" x1="-295.1" y1="1217.04" x2="-277.49" y2="1247.59" gradientTransform="matrix(0.5, 0.87, 0.87, -0.5, -919.28, 867.42)" gradientUnits="userSpaceOnUse"><stop offset="0" stop-color="#005ba1"/><stop offset="0.37" stop-color="#004e8f"/><stop offset="1" stop-color="#003067"/></linearGradient><linearGradient id="linear-gradient-2" x1="-2173.92" y1="-328.56" x2="-2152.53" y2="-291.06" gradientTransform="matrix(-0.5, -0.87, -0.87, 0.5, -1341.63, -1703.73)" gradientUnits="userSpaceOnUse"><stop offset="0" stop-color="#005ba1"/><stop offset="0.45" stop-color="#004685"/><stop offset="1" stop-color="#003067"/></linearGradient><linearGradient id="linear-gradient-3" x1="6" y1="5.55" x2="7.45" y2="13.8" gradientTransform="matrix(1, 0, 0, -1, -0.2, 19.8)" gradientUnits="userSpaceOnUse"><stop offset="0.26" stop-color="#50e6ff"/><stop offset="0.42" stop-color="#79eaff"/><stop offset="0.58" stop-color="#99edff"/><stop offset="0.73" stop-color="#b0efff"/><stop offset="0.88" stop-color="#bef1ff"/><stop offset="1" stop-color="#c3f1ff"/></linearGradient></defs><path class="cls-1" d="M9.24,3.93l4.37,2.51,3.05-1.76a8.79,8.79,0,0,0-12-3.35,8.9,8.9,0,0,0-2,1.49A10,10,0,0,1,9.24,3.93Z" transform="translate(-0.2 -0.2)"/><path class="cls-2" d="M13.56,6.44l-.07,6,3.17.85A8.77,8.77,0,0,0,11.41.54,10.38,10.38,0,0,1,13.56,6.44Z" transform="translate(-0.2 -0.2)"/><path class="cls-3" d="M13.55,11.65,9,14.28l.07,3.5A8.79,8.79,0,0,0,17.83,9a8.16,8.16,0,0,0-.28-2.09A9.61,9.61,0,0,1,13.55,11.65Z" transform="translate(-0.2 -0.2)"/><path class="cls-4" d="M9,14.28,4.45,11.65l-3,1.81a8.78,8.78,0,0,0,12,3.14,9.31,9.31,0,0,0,1.66-1.26A10,10,0,0,1,9,14.28Z" transform="translate(-0.2 -0.2)"/><path class="cls-2" d="M4.44,11.65l.07-6.24L1.39,4.59A8.79,8.79,0,0,0,6.73,17.5,10.21,10.21,0,0,1,4.44,11.65Z" transform="translate(-0.2 -0.2)"/><path class="cls-3" d="M4.6,6.3,9,3.76A10.59,10.59,0,0,0,3.06,2.51,8.77,8.77,0,0,0,.2,9a9.13,9.13,0,0,0,.31,2.32A10.29,10.29,0,0,1,4.6,6.3Z" transform="translate(-0.2 -0.2)"/><polygon class="cls-5" points="13.35 11.45 13.35 6.19 8.8 3.56 4.24 6.19 4.24 11.45 8.8 14.08 13.35 11.45"/><polygon class="cls-6" points="8.8 8.87 8.8 14.08 4.24 11.45 4.24 6.21 8.8 8.87"/><polygon class="cls-7" points="8.8 8.87 8.8 14.08 13.36 11.45 13.36 6.21 8.8 8.87"/></svg>