<svg width="16" height="16" viewBox="0 0 16 16" fill="none" xmlns="http://www.w3.org/2000/svg">
<path fill-rule="evenodd" clip-rule="evenodd" d="M8 14C8.31178 14 8.61801 13.9762 8.91698 13.9304C9.00789 13.7461 9.09787 13.5381 9.18499 13.3057C9.43336 12.6434 9.63903 11.8361 9.78163 10.9253C9.2087 10.9742 8.61238 11 8 11C7.38762 11 6.7913 10.9742 6.21837 10.9253C6.36097 11.8361 6.56664 12.6434 6.81501 13.3057C6.90213 13.5381 6.99211 13.7461 7.08303 13.9304C7.38199 13.9762 7.68822 14 8 14ZM6.09042 9.90958C6.69635 9.96825 7.33616 10 8 10C8.66384 10 9.30365 9.96825 9.90958 9.90957C9.96825 9.30365 10 8.66384 10 8C10 7.33616 9.96825 6.69635 9.90958 6.09043C9.30365 6.03175 8.66384 6 8 6C7.33616 6 6.69635 6.03175 6.09042 6.09043C6.03175 6.69635 6 7.33616 6 8C6 8.66384 6.03175 9.30365 6.09042 9.90958ZM5.07467 6.21837C5.0258 6.7913 5 7.38762 5 8C5 8.61238 5.0258 9.20869 5.07467 9.78163C4.16392 9.63903 3.35659 9.43336 2.69427 9.18499C2.46195 9.09787 2.25392 9.00789 2.06963 8.91698C2.02378 8.61802 2 8.31179 2 8C2 7.68821 2.02378 7.38198 2.06963 7.08302C2.25392 6.99211 2.46195 6.90213 2.69427 6.81501C3.35659 6.56664 4.16392 6.36097 5.07467 6.21837ZM6.21837 5.07467C6.36097 4.16392 6.56664 3.35659 6.81501 2.69427C6.90213 2.46195 6.99211 2.25392 7.08302 2.06963C7.38198 2.02378 7.68821 2 8 2C8.31178 2 8.61801 2.02378 8.91698 2.06963C9.00789 2.25391 9.09787 2.46195 9.18499 2.69427C9.43336 3.35659 9.63903 4.16392 9.78163 5.07467C9.2087 5.0258 8.61238 5 8 5C7.38762 5 6.7913 5.0258 6.21837 5.07467ZM10.9253 6.21837C10.9742 6.79131 11 7.38762 11 8C11 8.61238 10.9742 9.20869 10.9253 9.78163C11.8361 9.63903 12.6434 9.43336 13.3057 9.18499C13.5381 9.09787 13.7461 9.00789 13.9304 8.91698C13.9762 8.61802 14 8.31178 14 8C14 7.68821 13.9762 7.38198 13.9304 7.08302C13.7461 6.99211 13.5381 6.90213 13.3057 6.81501C12.6434 6.56664 11.8361 6.36097 10.9253 6.21837ZM13.6072 5.86023C12.8171 5.56905 11.8665 5.33893 10.8097 5.19025C10.6611 4.13347 10.4309 3.18286 10.1398 2.39279C11.7322 3.00084 12.9992 4.26778 13.6072 5.86023ZM16 8C16 3.58172 12.4183 0 8 0C3.58172 0 0 3.58172 0 8C0 12.4183 3.58172 16 8 16C12.4183 16 16 12.4183 16 8ZM13.6072 10.1398C12.8171 10.4309 11.8665 10.6611 10.8097 10.8097C10.6611 11.8665 10.431 12.8171 10.1398 13.6072C11.7322 12.9992 12.9992 11.7322 13.6072 10.1398ZM2.39279 5.86022C3.00084 4.26778 4.26778 3.00084 5.86023 2.39279C5.56905 3.18286 5.33893 4.13346 5.19025 5.19025C4.13347 5.33893 3.18286 5.56905 2.39279 5.86022ZM2.39279 10.1398C3.00084 11.7322 4.26778 12.9992 5.86023 13.6072C5.56905 12.8171 5.33893 11.8665 5.19025 10.8097C4.13347 10.6611 3.18286 10.4309 2.39279 10.1398Z" fill="#0078D4"/>
</svg>
