<svg width="15" height="14" viewBox="0 0 15 14" fill="none" xmlns="http://www.w3.org/2000/svg">
<path d="M6.4859 9H0.544336C0.241927 9 0 8.76307 0 8.4669L0 5.53309C0 5.23692 0.241927 4.99999 0.544336 4.99999H6.45566C6.75807 4.99999 7 5.23692 7 5.53309V8.43728C7.03024 8.76307 6.78831 9 6.4859 9Z" fill="#8661C5"/>
<path d="M14.4833 9H8.54434C8.24193 9 8 8.76307 8 8.4669V5.53309C8 5.23692 8.24193 4.99999 8.54434 4.99999H14.4531C14.7555 4.99999 14.9974 5.23692 14.9974 5.53309V8.43728C15.0277 8.76307 14.7858 9 14.4833 9Z" fill="#8661C5"/>
<path d="M10.4833 4H4.54434C4.24193 4 4 3.76307 4 3.4669V0.53309C4 0.236924 4.24193 -9.22313e-06 4.54434 -9.22313e-06H10.4531C10.7555 -9.22313e-06 10.9974 0.236924 10.9974 0.53309V3.43728C11.0277 3.76307 10.7858 4 10.4833 4Z" fill="#8661C5"/>
<path d="M14.4833 14H0.544336C0.241927 14 0 13.7631 0 13.4669V10.5331C0 10.2369 0.241927 10 0.544336 10H14.4531C14.7555 10 14.9974 10.2369 14.9974 10.5331V13.4373C15.0277 13.7631 14.7858 14 14.4833 14Z" fill="#8661C5"/>
</svg>
