<?xml version="1.0" encoding="utf-8"?>
<!-- Generator: Adobe Illustrator 17.1.0, SVG Export Plug-In . SVG Version: 6.00 Build 0)  -->
<!DOCTYPE svg PUBLIC "-//W3C//DTD SVG 1.1//EN" "http://www.w3.org/Graphics/SVG/1.1/DTD/svg11.dtd">
<svg version="1.1" id="Layer_1" xmlns="http://www.w3.org/2000/svg" xmlns:xlink="http://www.w3.org/1999/xlink" x="0px" y="0px"
	 viewBox="0 0 50 50" enable-background="new 0 0 50 50" xml:space="preserve">
<path fill="#7FBA00" d="M47.4,27.6c0-7.3-3.5-13.7-8.8-17.8c0,0.2,0,0.5,0,0.7c0,2.2-0.6,4.3-1.5,6.1c2.6,2.9,4.2,6.7,4.2,10.9
	c0,9-7.3,16.3-16.3,16.3S8.7,36.5,8.7,27.5c0-4.5,1.8-8.5,4.7-11.5c-0.8-1.7-1.3-3.6-1.3-5.6c0-0.4,0-0.9,0.1-1.3
	c-5.8,4-9.6,10.8-9.6,18.4C2.6,40,12.6,50,25,50S47.4,40,47.4,27.6z"/>
<g>
	<path fill="#FCD116" d="M25.3,0C19.6,0,15,4.6,15,10.3c0,4.7,3.1,8.6,7.4,9.9v10.2h-4.8v5.2h4.8v3.8h5.7V20.1
		c4.3-1.2,7.4-5.2,7.4-9.9C35.6,4.6,31,0,25.3,0z M25.3,5.4c2.7,0,4.9,2.2,4.9,4.9s-2.2,4.9-4.9,4.9s-4.9-2.2-4.9-4.9
		S22.6,5.4,25.3,5.4z"/>
</g>
</svg>
