<?xml version="1.0" encoding="utf-8"?>
<!-- Generator: Adobe Illustrator 17.1.0, SVG Export Plug-In . SVG Version: 6.00 Build 0)  -->
<!DOCTYPE svg PUBLIC "-//W3C//DTD SVG 1.1//EN" "http://www.w3.org/Graphics/SVG/1.1/DTD/svg11.dtd">
<svg version="1.1" id="Layer_1" xmlns="http://www.w3.org/2000/svg" xmlns:xlink="http://www.w3.org/1999/xlink" x="0px" y="0px"
	 viewBox="0 0 50 50" enable-background="new 0 0 50 50" xml:space="preserve">
<rect x="6.5" y="21" fill-rule="evenodd" clip-rule="evenodd" fill="#59B4D9" width="3.2" height="3.2"/>
<rect x="6.5" y="25.8" fill-rule="evenodd" clip-rule="evenodd" fill="#59B4D9" width="3.2" height="3.2"/>
<path fill-rule="evenodd" clip-rule="evenodd" fill="#59B4D9" d="M6.5,19.4h3.2v-2.9c-1.2,0.6-2.2,1.3-3.2,2.1V19.4z"/>
<rect x="11.3" y="35.5" fill-rule="evenodd" clip-rule="evenodd" fill="#59B4D9" width="3.2" height="3.2"/>
<rect x="11.3" y="40.3" fill-rule="evenodd" clip-rule="evenodd" fill="#59B4D9" width="3.2" height="3.2"/>
<rect x="11.3" y="45.2" fill-rule="evenodd" clip-rule="evenodd" fill="#59B4D9" width="3.2" height="3.2"/>
<rect x="11.3" y="30.7" fill-rule="evenodd" clip-rule="evenodd" fill="#59B4D9" width="3.2" height="3.2"/>
<rect x="1.6" y="25.8" fill-rule="evenodd" clip-rule="evenodd" fill="#59B4D9" width="3.2" height="3.2"/>
<rect x="6.5" y="40.3" fill-rule="evenodd" clip-rule="evenodd" fill="#59B4D9" width="3.2" height="3.2"/>
<rect x="1.6" y="35.5" fill-rule="evenodd" clip-rule="evenodd" fill="#59B4D9" width="3.2" height="3.2"/>
<rect x="1.6" y="30.7" fill-rule="evenodd" clip-rule="evenodd" fill="#59B4D9" width="3.2" height="3.2"/>
<path fill-rule="evenodd" clip-rule="evenodd" fill="#59B4D9" d="M6.5,45.9c1,0.8,2.1,1.5,3.2,2.1v-2.9H6.5V45.9z"/>
<path fill-rule="evenodd" clip-rule="evenodd" fill="#59B4D9" d="M2,24.2h2.9V21H4.1C3.2,22,2.5,23,2,24.2z"/>
<rect x="6.5" y="35.5" fill-rule="evenodd" clip-rule="evenodd" fill="#59B4D9" width="3.2" height="3.2"/>
<path fill-rule="evenodd" clip-rule="evenodd" fill="#59B4D9" d="M30.6,43.5h0.8c0.8-1,1.5-2.1,2.1-3.2h-2.9V43.5z"/>
<rect x="11.3" y="25.8" fill-rule="evenodd" clip-rule="evenodd" fill="#59B4D9" width="3.2" height="3.2"/>
<rect x="25.8" y="40.3" fill-rule="evenodd" clip-rule="evenodd" fill="#59B4D9" width="3.2" height="3.2"/>
<path fill="#7FBA00" d="M33.1,0c-9.3,0-16.9,7.6-16.9,16.9c0,5,0,16.9,0,16.9s12.6,0,16.9,0c9.3,0,16.9-7.6,16.9-16.9
	C50,7.6,42.4,0,33.1,0z"/>
<rect x="24.2" y="14.5" fill="#68217A" width="3.2" height="9.7"/>
<rect x="30.6" y="17.7" fill="#68217A" width="3.2" height="6.5"/>
<rect x="37.1" y="11.3" fill="#68217A" width="3.2" height="12.9"/>
<path fill-rule="evenodd" clip-rule="evenodd" fill="#59B4D9" d="M25.8,48c1.2-0.6,2.2-1.3,3.2-2.1v-0.8h-3.2V48z"/>
<rect x="30.6" y="35.5" fill-rule="evenodd" clip-rule="evenodd" fill="#59B4D9" width="3.2" height="3.2"/>
<rect x="25.8" y="35.5" fill-rule="evenodd" clip-rule="evenodd" fill="#59B4D9" width="3.2" height="3.2"/>
<rect x="16.1" y="40.3" fill-rule="evenodd" clip-rule="evenodd" fill="#59B4D9" width="3.2" height="3.2"/>
<polygon fill-rule="evenodd" clip-rule="evenodd" fill="#59B4D9" points="11.3,19.4 14.5,19.4 14.5,16.1 11.3,16.1 "/>
<rect x="21" y="40.3" fill-rule="evenodd" clip-rule="evenodd" fill="#59B4D9" width="3.2" height="3.2"/>
<rect x="21" y="45.2" fill-rule="evenodd" clip-rule="evenodd" fill="#59B4D9" width="3.2" height="3.2"/>
<rect x="16.1" y="35.5" fill-rule="evenodd" clip-rule="evenodd" fill="#59B4D9" width="3.2" height="3.2"/>
</svg>
