<?xml version="1.0" encoding="UTF-8"?>
<!DOCTYPE svg PUBLIC "-//W3C//DTD SVG 1.1//EN" "http://www.w3.org/Graphics/SVG/1.1/DTD/svg11.dtd">
<!-- Creator: CorelDRAW X7 -->
<svg xmlns="http://www.w3.org/2000/svg" xml:space="preserve" width="32px" height="32px" version="1.1" style="shape-rendering:geometricPrecision; text-rendering:geometricPrecision; image-rendering:optimizeQuality; fill-rule:evenodd; clip-rule:evenodd"
viewBox="0 0 13 13"
 xmlns:xlink="http://www.w3.org/1999/xlink">
 <defs>
  <style type="text/css">
   <![CDATA[
    .fil0 {fill:none}
    .fil5 {fill:#00BCF2}
    .fil2 {fill:#66D7F7}
    .fil4 {fill:#BAD80A}
    .fil3 {fill:#D6E86C}
    .fil1 {fill:white}
    .fil6 {fill:white;fill-rule:nonzero}
   ]]>
  </style>
 </defs>
 <g id="Layer_x0020_1">
  <metadata id="CorelCorpID_0Corel-Layer"/>
  <rect class="fil0" width="13.1282" height="13.1283"/>
  <g id="_2417048751856">
   <g>
    <path class="fil1" d="M11 10l0 -8c0,-1 -2,-2 -4,-2 -3,0 -5,1 -5,2l0 8c0,1 2,2 5,2 2,0 4,-1 4,-2z"/>
    <g>
     <path class="fil2" d="M7 13c-3,0 -5,-1 -5,-2l0 -9c0,1 2,2 5,2 2,0 4,-1 4,-2l0 9c0,1 -2,2 -4,2z"/>
     <g>
      <ellipse class="fil3" cx="7" cy="2" rx="4" ry="1"/>
      <path class="fil4" d="M3 3c1,-1 2,-1 4,-1 1,0 2,0 3,1 -1,0 -2,0 -3,0 -2,0 -3,0 -4,0z"/>
     </g>
     <path class="fil5" d="M7 4l0 9c-2,0 -5,0 -5,-2l0 -9c0,2 3,2 5,2z"/>
    </g>
   </g>
   <path class="fil6" d="M3 9l0 0c0,0 0,0 0,0 0,0 0,0 1,0 0,0 0,0 0,0 0,0 0,0 0,0 0,0 0,0 0,0 0,0 0,0 0,0 0,-1 0,-1 0,-1 0,0 0,0 0,0 0,0 0,0 0,0 0,0 -1,0 -1,0 0,0 0,0 0,0 0,0 0,-1 0,-1 0,0 0,0 0,0 0,0 0,0 0,-1 0,0 0,0 0,0 1,0 1,0 1,0 0,0 0,0 0,0 0,0 1,0 1,0l0 1c0,0 0,0 -1,0 0,0 0,0 0,0 0,0 0,0 0,0 0,0 0,0 0,0 0,0 0,0 0,0 0,0 0,0 0,0 0,0 -1,0 -1,0 0,0 0,0 0,0 0,0 0,0 0,0 0,0 1,0 1,0 0,0 0,0 0,0 0,0 0,1 0,1 0,0 0,0 0,0 0,0 1,0 1,0 0,0 0,0 0,0 0,0 0,0 0,0 0,1 0,1 0,1 0,0 0,0 -1,0 0,0 0,0 0,0 0,0 0,0 0,0 -1,0 -1,0 -1,0 0,0 0,0 0,0z"/>
   <path id="1" class="fil6" d="M7 9c-1,0 -1,0 -1,0 -1,0 -1,-1 -1,-1 0,-1 0,-1 1,-1 0,-1 0,-1 1,-1 0,0 0,0 1,1 0,0 0,0 0,1 0,0 0,1 0,1 0,0 0,0 0,0 0,0 0,0 0,0l0 1 -1 0 0 -1c0,0 0,0 0,0zm0 -2c-1,0 -1,0 -1,0 0,0 0,1 0,1 0,0 0,0 0,1 0,0 0,0 1,0 0,0 0,0 0,0 0,-1 0,-1 0,-1 0,0 0,-1 0,-1 0,0 0,0 0,0z"/>
   <polygon id="2" class="fil6" points="10,9 9,9 9,6 9,6 9,9 10,9 "/>
  </g>
 </g>
</svg>
