<?xml version="1.0" encoding="UTF-8"?>
<!DOCTYPE svg PUBLIC "-//W3C//DTD SVG 1.1//EN" "http://www.w3.org/Graphics/SVG/1.1/DTD/svg11.dtd">
<!-- Creator: CorelDRAW X7 -->
<svg xmlns="http://www.w3.org/2000/svg" xml:space="preserve" width="32px" height="32px" version="1.1" style="shape-rendering:geometricPrecision; text-rendering:geometricPrecision; image-rendering:optimizeQuality; fill-rule:evenodd; clip-rule:evenodd"
viewBox="0 0 32 32"
 xmlns:xlink="http://www.w3.org/1999/xlink">
 <defs>
  <style type="text/css">
   <![CDATA[
    .fil0 {fill:none}
    .fil7 {fill:black}
    .fil5 {fill:#00BCF2}
    .fil2 {fill:#66D7F7}
    .fil6 {fill:#777777}
    .fil4 {fill:#7FBA00}
    .fil11 {fill:#8F9CA8}
    .fil3 {fill:#B8D432}
    .fil10 {fill:#BAD80A}
    .fil8 {fill:#C0ECFC}
    .fil9 {fill:#CCCCCC}
    .fil1 {fill:white}
   ]]>
  </style>
 </defs>
 <g id="Layer_x0020_1">
  <metadata id="CorelCorpID_0Corel-Layer"/>
  <rect class="fil0" width="32" height="32"/>
  <g id="_2418637155008">
   <g>
    <path class="fil1" d="M18 11c0,3 -4,4 -9,4 -5,0 -9,-1 -9,-4 0,-2 4,-3 9,-3 5,0 9,1 9,3z"/>
    <path class="fil2" d="M0 28l0 -17c0,3 4,4 9,4 5,0 9,-1 9,-4l0 17c0,3 -4,4 -9,4 -5,0 -9,-1 -9,-4z"/>
    <ellipse class="fil3" cx="9" cy="11" rx="7" ry="2"/>
    <path class="fil4" d="M4 12c1,0 3,0 5,0 2,0 4,0 6,0 -2,1 -4,1 -6,1 -2,0 -4,0 -5,-1z"/>
    <path class="fil5" d="M9 32c-5,0 -9,-1 -9,-4l0 -17c0,3 4,4 9,4l0 17z"/>
   </g>
   <g>
    <path class="fil6" d="M17 22l13 0c1,0 2,-1 2,-2l0 -18c0,-1 -1,-2 -2,-2l-13 0c-1,0 -2,1 -2,2l0 18c0,1 1,2 2,2z"/>
    <g>
     <path class="fil7" d="M19 3c-1,0 -2,1 -2,2 0,1 1,2 2,2l9 0c1,0 2,-1 2,-2 0,-1 -1,-2 -2,-2l-9 0z"/>
     <circle class="fil3" cx="19" cy="5" r="1"/>
    </g>
    <g>
     <path class="fil7" d="M19 9c-1,0 -2,1 -2,2 0,1 1,2 2,2l9 0c1,0 2,-1 2,-2 0,-1 -1,-2 -2,-2l-9 0z"/>
     <circle class="fil3" cx="19" cy="11" r="1"/>
    </g>
   </g>
   <g>
    <path class="fil1" d="M26 23c2,0 3,-1 3,-3 0,-2 -1,-3 -3,-3 1,-5 -2,-9 -7,-9 -3,0 -6,2 -7,5 -3,-1 -7,1 -7,5 0,3 3,5 6,5l15 0z"/>
    <path class="fil8" d="M26 14c-1,-3 -4,-6 -7,-6 -3,0 -6,2 -7,5 0,0 -1,0 -1,0 -3,0 -6,2 -6,5 0,3 3,5 6,5l3 0c-2,0 -4,-2 -4,-4 0,-3 2,-5 4,-5 1,0 1,1 1,1 1,-3 3,-4 6,-4 2,0 4,1 5,3z"/>
   </g>
   <g>
    <rect class="fil9" x="24" y="19" width="3.00007" height="13.0002"/>
    <rect class="fil9" x="29" y="19" width="3.00007" height="13.0002"/>
    <rect class="fil9" x="19" y="19" width="3.00007" height="13.0002"/>
    <rect class="fil10" x="20" y="20" width="1.00031" height="10.9996"/>
    <rect class="fil10" x="25" y="20" width="1.00031" height="10.9996"/>
    <rect class="fil10" x="30" y="20" width="1.00031" height="10.9996"/>
    <rect class="fil11" x="24" y="28" width="3.00007" height="1.00031"/>
    <rect class="fil11" x="19" y="23" width="3.00007" height="1.00031"/>
    <rect class="fil11" x="29" y="23" width="3.00007" height="1.00031"/>
    <polygon class="fil4" points="30,31 31,31 31,24 30,24 "/>
    <polygon class="fil4" points="25,31 26,31 26,29 25,29 "/>
    <polygon class="fil4" points="20,31 21,31 21,24 20,24 "/>
   </g>
  </g>
 </g>
</svg>
