<?xml version="1.0" encoding="UTF-8"?>
<!DOCTYPE svg PUBLIC "-//W3C//DTD SVG 1.1//EN" "http://www.w3.org/Graphics/SVG/1.1/DTD/svg11.dtd">
<!-- Creator: CorelDRAW X7 -->
<svg xmlns="http://www.w3.org/2000/svg" xml:space="preserve" width="32px" height="32px" version="1.1" style="shape-rendering:geometricPrecision; text-rendering:geometricPrecision; image-rendering:optimizeQuality; fill-rule:evenodd; clip-rule:evenodd"
viewBox="0 0 102 102"
 xmlns:xlink="http://www.w3.org/1999/xlink">
 <defs>
  <style type="text/css">
   <![CDATA[
    .fil6 {fill:none}
    .fil1 {fill:black}
    .fil0 {fill:#777777}
    .fil5 {fill:#8BA208}
    .fil2 {fill:#B8D432}
    .fil4 {fill:#C0ECFC}
    .fil3 {fill:white}
   ]]>
  </style>
 </defs>
 <g id="Layer_x0020_1">
  <metadata id="CorelCorpID_0Corel-Layer"/>
  <g id="_2417059572336">
   <g>
    <path class="fil0" d="M29 102l48 0c3,0 6,-2 6,-6l0 -90c0,-3 -3,-6 -6,-6l-48 0c-4,0 -7,3 -7,6l0 90c0,4 3,6 7,6z"/>
    <g>
     <path class="fil1" d="M35 10c-3,0 -6,2 -6,6 0,4 3,6 6,6l35 0c4,0 7,-2 7,-6 0,-4 -3,-6 -7,-6l-35 0z"/>
     <circle class="fil2" cx="35" cy="16" r="3"/>
    </g>
    <g>
     <path class="fil1" d="M35 29c-3,0 -6,3 -6,6 0,4 3,7 6,7l35 0c4,0 7,-3 7,-7 0,-3 -3,-6 -7,-6l-35 0z"/>
     <circle class="fil2" cx="35" cy="35" r="3"/>
    </g>
    <g>
     <path class="fil1" d="M35 48c-3,0 -6,3 -6,6 0,4 3,7 6,7l35 0c4,0 7,-3 7,-7 0,-3 -3,-6 -7,-6l-35 0z"/>
     <circle class="fil2" cx="35" cy="54" r="3"/>
    </g>
   </g>
   <g>
    <g>
     <path class="fil3" d="M72 99c5,0 10,-4 10,-9 0,-6 -5,-11 -11,-10 3,-15 -8,-29 -24,-29 -10,0 -18,6 -22,15 -10,-2 -20,6 -20,16 0,10 7,17 17,17l50 0z"/>
     <path class="fil4" d="M71 70c-2,-11 -12,-19 -24,-19 -10,0 -18,6 -22,15 -1,0 -2,0 -3,0 -10,0 -17,7 -17,16 0,10 7,17 17,17l11 0c-8,0 -14,-6 -14,-13 0,-8 6,-14 14,-14 1,0 2,0 3,0 3,-7 10,-12 18,-12 7,0 14,4 17,10z"/>
    </g>
    <path class="fil5" d="M51 93c1,0 2,0 3,-1l0 1 4 0 0 -3 -1 -1c0,-1 1,-2 1,-3l0 -3c0,-3 -3,-6 -7,-6 -3,0 -6,3 -6,6l0 3c0,4 3,7 6,7zm-17 -16c-3,0 -5,2 -5,5 0,2 2,4 5,4l3 0c1,0 1,1 1,2 0,1 0,2 -1,2l-8 0 0 3 8 0c2,0 5,-2 5,-5 0,-3 -3,-5 -5,-5l-3 0c-1,0 -2,-1 -2,-1 0,-1 1,-2 2,-2l8 0 0 -3 -8 0zm27 0l3 0 0 13 6 0 0 3 -9 0 0 -16zm-7 9l-3 0 0 4c-2,0 -3,-2 -3,-4l0 -3c0,-2 1,-3 3,-3 2,0 3,1 3,3l0 3z"/>
   </g>
  </g>
  <rect class="fil6" width="102" height="102"/>
 </g>
</svg>
