<?xml version="1.0" encoding="UTF-8"?>
<!DOCTYPE svg PUBLIC "-//W3C//DTD SVG 1.1//EN" "http://www.w3.org/Graphics/SVG/1.1/DTD/svg11.dtd">
<!-- Creator: CorelDRAW X7 -->
<svg xmlns="http://www.w3.org/2000/svg" xml:space="preserve" width="32px" height="32px" version="1.1" style="shape-rendering:geometricPrecision; text-rendering:geometricPrecision; image-rendering:optimizeQuality; fill-rule:evenodd; clip-rule:evenodd"
viewBox="0 0 32 32"
 xmlns:xlink="http://www.w3.org/1999/xlink">
 <defs>
  <style type="text/css">
   <![CDATA[
    .fil0 {fill:none}
    .fil1 {fill:#777777}
    .fil2 {fill:#7FBA00}
    .fil3 {fill:#B8D432}
    .fil5 {fill:#DD5900}
    .fil6 {fill:#FCD116}
    .fil4 {fill:#FFB900}
    .fil8 {fill:darkorange;fill-rule:nonzero}
    .fil7 {fill:#FFB900;fill-rule:nonzero}
   ]]>
  </style>
 </defs>
 <g id="Layer_x0020_1">
  <metadata id="CorelCorpID_0Corel-Layer"/>
  <rect class="fil0" width="32" height="32"/>
  <g id="_2418311050848">
   <path class="fil1" d="M16 21c-1,0 -2,0 -2,-1l0 -2c0,1 0,1 1,1 0,0 1,0 1,0 0,1 0,1 0,2zm0 -2l0 -2c-1,-1 -2,-1 -2,-2 0,0 -1,-1 -1,-2 0,0 1,-1 1,-2 1,0 2,0 2,-1l0 -1 2 0 0 1c1,0 1,1 2,1l0 2c-1,0 -2,-1 -2,-1l0 3c1,0 1,1 2,1 -1,1 -1,1 -2,1 0,0 0,0 0,0l0 1c-1,0 -1,1 -2,1zm0 -4l0 -3c0,0 -1,1 -1,1 0,1 1,1 1,2z"/>
   <g>
    <path class="fil2" d="M5 5c-2,3 -3,6 -3,9l8 0c0,-1 1,-2 1,-3l-6 -6z"/>
    <path class="fil3" d="M16 0c-3,0 -6,1 -9,3l6 6c1,0 2,-1 3,-1l0 -8z"/>
    <path class="fil4" d="M27 3c-3,-2 -6,-3 -9,-3l0 8c1,0 2,1 3,1l6 -6z"/>
    <path class="fil5" d="M32 15l0 0c0,-4 -1,-7 -3,-10l-6 6c1,1 1,3 1,4l0 0 8 0z"/>
    <path class="fil2" d="M5 25c-2,-3 -3,-6 -3,-9l8 0c0,1 1,2 1,3l-6 6z"/>
   </g>
   <g>
    <path class="fil4" d="M8 32c3,0 6,-1 6,-1l0 -3 -12 0 0 3c0,0 3,1 6,1z"/>
    <ellipse class="fil6" cx="8" cy="28" rx="6" ry="2"/>
   </g>
   <g>
    <path class="fil4" d="M7 28c3,0 6,-1 6,-1l0 -3 -12 0 0 3c0,0 3,1 6,1z"/>
    <ellipse class="fil6" cx="7" cy="24" rx="6" ry="2"/>
   </g>
   <g>
    <path class="fil7" d="M22 22c-3,2 -6,5 -3,8 2,2 5,-1 8,-3 2,-2 5,-6 3,-8 -3,-3 -6,1 -8,3zm7 7c1,-1 1,-3 2,-5 -1,1 -2,3 -3,4 -2,1 -3,2 -4,3 2,-1 3,-1 5,-2zm-5 -12c-2,1 -3,2 -4,3 -2,1 -2,3 -3,5 1,-2 2,-3 4,-4 1,-1 2,-3 3,-4zm5 12c-2,2 -7,4 -10,3 0,0 -1,-1 -1,-1 -1,-1 -1,-2 -2,-2 -1,-3 1,-8 3,-10 2,-2 7,-4 10,-2 0,0 1,0 2,1 0,0 0,1 1,1 1,3 -1,8 -3,10z"/>
    <path class="fil8" d="M24 24c-2,1 -8,4 -5,6 2,2 4,-4 6,-5 1,-2 7,-4 5,-6 -3,-2 -5,3 -6,5zm-7 7c-4,-4 3,-6 6,-8 2,-3 4,-10 8,-6 4,4 -3,6 -5,9 -3,2 -5,9 -9,5z"/>
   </g>
   <g>
    <path class="fil4" d="M9 24c3,0 6,-1 6,-1l0 -3 -12 0 0 3c0,0 3,1 6,1z"/>
    <ellipse class="fil6" cx="9" cy="20" rx="6" ry="2"/>
   </g>
  </g>
 </g>
</svg>
