<svg xmlns="http://www.w3.org/2000/svg" xmlns:xlink="http://www.w3.org/1999/xlink" viewBox="0 0 572 145.2">
  <defs>
    <linearGradient id="linear-gradient" x1="286.183" y1="48.4" x2="286.183" y2="127.6" gradientUnits="userSpaceOnUse">
      <stop offset="0" stop-color="#5ea0ef"/>
      <stop offset="0.18" stop-color="#559cec"/>
      <stop offset="0.47" stop-color="#3c91e5"/>
      <stop offset="0.84" stop-color="#1380da"/>
      <stop offset="1" stop-color="#0078d4"/>
    </linearGradient>
    <linearGradient id="linear-gradient-2" x1="535.231" y1="1449.288" x2="535.231" y2="1465.052" gradientTransform="matrix(1, 0, 0, -1, 0, 1542)" gradientUnits="userSpaceOnUse">
      <stop offset="0" stop-color="#198ab3"/>
      <stop offset="0.44" stop-color="#28b7db"/>
      <stop offset="0.78" stop-color="#32d4f5"/>
    </linearGradient>
    <linearGradient id="linear-gradient-3" x1="535.194" y1="1443.052" x2="535.194" y2="1447.718" xlink:href="#linear-gradient-2"/>
    <linearGradient id="linear-gradient-4" x1="57.114" y1="2.821" x2="57.114" y2="30.821" gradientUnits="userSpaceOnUse">
      <stop offset="0.131" stop-color="#32d4f5"/>
      <stop offset="0.404" stop-color="#28b7db"/>
      <stop offset="1" stop-color="#198ab3"/>
    </linearGradient>
    <linearGradient id="linear-gradient-5" x1="66.417" y1="24.962" x2="66.417" y2="26.217" xlink:href="#linear-gradient-4"/>
    <linearGradient id="linear-gradient-6" x1="66.417" y1="27.128" x2="66.417" y2="28.384" xlink:href="#linear-gradient-4"/>
    <linearGradient id="linear-gradient-7" x1="85.754" y1="1510.905" x2="85.754" y2="1484.289" gradientTransform="matrix(1, 0, 0, -1, 0, 1542)" gradientUnits="userSpaceOnUse">
      <stop offset="0.117" stop-color="#5ea0ef"/>
      <stop offset="0.271" stop-color="#4595e8"/>
      <stop offset="0.531" stop-color="#1f85dd"/>
      <stop offset="0.741" stop-color="#087cd6"/>
      <stop offset="0.873" stop-color="#0078d4"/>
    </linearGradient>
  </defs>
  <g id="Shapes">
    <rect width="572" height="145.2" fill="#fff"/>
    <g>
      <rect x="57.2" y="22" width="510.4" height="118.8" fill="#fff"/>
      <rect x="57.2" y="22" width="510.4" height="118.8" fill="#198ab3" opacity="0.12"/>
    </g>
    <g>
      <rect x="70.766" y="48.4" width="430.834" height="79.2" fill="#fff"/>
      <rect x="70.766" y="48.4" width="430.834" height="79.2" opacity="0.4" fill="url(#linear-gradient)"/>
    </g>
    <g>
      <rect x="83.6" y="70.4" width="105.6" height="35.097" fill="#fff"/>
      <g opacity="0.65">
        <path d="M189.05,70.55v34.8H83.75V70.55h105.3m.15-.15H83.6v35.1H189.2V70.4Z" fill="#505150"/>
      </g>
    </g>
    <g>
      <rect x="233.2" y="70.4" width="105.6" height="35.097" fill="#fff"/>
      <g opacity="0.65">
        <path d="M338.65,70.55v34.8H233.35V70.55h105.3m.15-.15H233.2v35.1H338.8V70.4Z" fill="#505150"/>
      </g>
    </g>
    <g>
      <rect x="382.8" y="70.4" width="105.6" height="35.097" fill="#fff"/>
      <g opacity="0.65">
        <path d="M488.25,70.55v34.8H382.95V70.55h105.3m.15-.15H382.8v35.1H488.4V70.4Z" fill="#505150"/>
      </g>
    </g>
    <g>
      <line x1="47.146" y1="87.948" x2="78.218" y2="87.948" fill="none" stroke="#3c3c41" stroke-miterlimit="10"/>
      <polygon points="77.124 91.688 83.6 87.948 77.124 84.209 77.124 91.688" fill="#3c3c41"/>
    </g>
    <g>
      <line x1="189.2" y1="87.948" x2="227.818" y2="87.948" fill="none" stroke="#3c3c41" stroke-miterlimit="10"/>
      <polygon points="226.724 91.688 233.2 87.948 226.724 84.209 226.724 91.688" fill="#3c3c41"/>
    </g>
    <g>
      <line x1="338.8" y1="87.948" x2="377.418" y2="87.948" fill="none" stroke="#3c3c41" stroke-miterlimit="10"/>
      <polygon points="376.324 91.688 382.8 87.948 376.324 84.209 376.324 91.688" fill="#3c3c41"/>
    </g>
    <g>
      <line x1="488.4" y1="87.948" x2="516.055" y2="87.948" fill="none" stroke="#3c3c41" stroke-miterlimit="10"/>
      <polygon points="514.96 91.688 521.437 87.948 514.96 84.209 514.96 91.688" fill="#3c3c41"/>
    </g>
    <g>
      <path d="M546.341,87.765a5.014,5.014,0,0,0-4.333-4.753,6.3,6.3,0,0,0-6.481-6.061,6.458,6.458,0,0,0-6.172,4.21,5.949,5.949,0,0,0-5.234,5.727A6.049,6.049,0,0,0,530.38,92.7h10.677a.953.953,0,0,0,.272,0A5.049,5.049,0,0,0,546.341,87.765Z" fill="url(#linear-gradient-2)"/>
      <rect x="534.713" y="87.283" width="0.963" height="7.641" fill="#b3b3b3"/>
      <circle cx="535.194" cy="84.975" r="2.568" fill="#f2f2f2"/>
      <rect x="532.861" y="94.282" width="4.666" height="4.666" rx="0.901" fill="url(#linear-gradient-3)"/>
    </g>
    <g>
      <path d="M68.827,22.585H56.848l.281-1.128H64.6a5.617,5.617,0,0,0,2.469-10.666,6.523,6.523,0,0,0,.146-1.371A6.65,6.65,0,0,0,54.9,5.987,5.05,5.05,0,0,0,47,10.094a5.138,5.138,0,0,0,.058.763,5.607,5.607,0,0,0,2.57,10.6H56.5l-.281,1.128H45.4a.908.908,0,0,0-.905.91v6.417a.908.908,0,0,0,.905.91H68.827a.908.908,0,0,0,.9-.91V23.494A.907.907,0,0,0,68.827,22.585Zm-19.2-2.674a4.061,4.061,0,0,1-1.415-7.877l.674-.253-.207-.7a3.529,3.529,0,0,1-.142-.992,3.509,3.509,0,0,1,6.05-2.356L55.4,8.6l.455-1.1A5.112,5.112,0,0,1,65.679,9.42,5.01,5.01,0,0,1,65.419,11l-.245.737.734.244a4.043,4.043,0,0,1,2.782,3.849A4.086,4.086,0,0,1,64.6,19.909H57.514l1.063-4.264.051-.3.3-.067a2.363,2.363,0,0,0,.835-.368l.308-.215,2.376,2.3-.062.256a1.473,1.473,0,0,0,1.427,1.819,1.431,1.431,0,0,0,.533-.1,1.481,1.481,0,0,0,.834-1.913,1.463,1.463,0,0,0-1.9-.838.631.631,0,0,0-.06.032c-.023.014-.048.027-.071.039l-.291.15-2.365-2.288.121-.29a2.4,2.4,0,0,0-2.2-3.316,2.365,2.365,0,0,0-1.642.663l-.257.248-1.572-.984.025-.281a1.461,1.461,0,0,0-1.457-1.6,1.448,1.448,0,0,0-.534.1,1.482,1.482,0,0,0-.833,1.914,1.458,1.458,0,0,0,1.368.938,1.436,1.436,0,0,0,.534-.1,1.453,1.453,0,0,0,.322-.184l.249-.181,1.561.978-.078.324a2.334,2.334,0,0,0,.048,1.314l.112.341-2.528,1.6-.239-.141a1.172,1.172,0,0,0-1.029-.082,1.2,1.2,0,0,0-.673,1.547,1.183,1.183,0,0,0,1.537.676,1.2,1.2,0,0,0,.748-1.143l-.007-.261,2.584-1.634.254.21a2.371,2.371,0,0,0,.735.408l.366.127-.062.377L56.89,19.911Zm18.57,9.365H46.034V24.132h9.8l-.156.623a1.951,1.951,0,1,0,.6.087l.177-.71H68.194Z" fill="url(#linear-gradient-4)"/>
      <path d="M67.042,24.962H65.793v1.255h1.249Z" fill="url(#linear-gradient-5)"/>
      <path d="M67.042,27.128H65.793v1.256h1.249Z" fill="url(#linear-gradient-6)"/>
    </g>
    <g id="a3857c27-3253-4155-b620-22ae9cf301a7">
      <g>
        <path d="M95.2,43.563A8.852,8.852,0,0,0,86.117,35.2a9.107,9.107,0,0,0-8.541,5.814,8.53,8.53,0,0,0-7.269,8A8.384,8.384,0,0,0,78.884,57.2H94.3a6.907,6.907,0,0,0,6.9-6.912A7.005,7.005,0,0,0,95.2,43.563Z" fill="url(#linear-gradient-7)"/>
        <g>
          <polygon points="93.968 48.256 86.267 45.395 86.068 45.889 86.193 45.436 79.355 43.931 79.027 45.077 84.798 46.328 77.394 49.388 77.963 50.405 85.608 47.229 86.976 53.254 88.158 53.108 86.764 46.89 93.515 49.358 93.968 48.256" fill="#83b9f9"/>
          <path d="M78.169,45.513a1.512,1.512,0,1,0,.268-2.121h0l-.034.027A1.5,1.5,0,0,0,78.169,45.513Zm-1.716,5.35a1.521,1.521,0,1,0,.258-2.137,1.52,1.52,0,0,0-.258,2.137Zm15.9-1.322a1.505,1.505,0,1,0,.276-2.11l-.006,0h0a1.488,1.488,0,0,0-.278,2.084Z" fill="#9cebff"/>
          <path d="M86.373,54.185a1.505,1.505,0,1,0,.269-2.111h0a1.488,1.488,0,0,0-.29,2.085l0,0Z" fill="#9cebff"/>
        </g>
        <path d="M90.449,46.265a.452.452,0,0,0,0-.786l-3.322-1.922-3.333-1.921a.454.454,0,0,0-.687.393v7.686a.454.454,0,0,0,.687.393l3.333-1.921Z" fill="#c3f1ff"/>
      </g>
    </g>
    <g>
      <g>
        <polygon points="6.1 96.911 14.988 92.437 14.988 83.377 6.1 79.5 6.1 96.911" fill="#fff"/>
        <polygon points="6.1 96.911 14.988 92.437 14.988 83.377 6.1 79.5 6.1 96.911" fill="#3c3c41" opacity="0.85"/>
      </g>
      <g>
        <rect x="17.195" y="78.948" width="31.205" height="18" fill="#fff"/>
        <rect x="17.195" y="78.948" width="31.205" height="18" fill="#3c3c41" opacity="0.85"/>
      </g>
    </g>
  </g>
  <g id="Text">
    <g>
      <path d="M513.475,57.2h-1.892V48.8h1.892Z" fill="#1e1e1e"/>
      <path d="M518.063,57.346a3.222,3.222,0,0,1-2.358-.841,3.475,3.475,0,0,1,.032-4.611,3.364,3.364,0,0,1,2.408-.841,3.185,3.185,0,0,1,2.344.841,2.992,2.992,0,0,1,.85,2.224,3.172,3.172,0,0,1-.876,2.361A3.262,3.262,0,0,1,518.063,57.346Zm.047-4.875a1.236,1.236,0,0,0-1.019.451,1.987,1.987,0,0,0-.364,1.278q0,1.728,1.395,1.728,1.331,0,1.33-1.775Q519.452,52.471,518.11,52.471Z" fill="#1e1e1e"/>
      <path d="M528.622,50.338h-2.4V57.2h-1.9V50.338h-2.385V48.8h6.68Z" fill="#1e1e1e"/>
      <path d="M538.1,57.2h-5.039V48.8h4.846v1.541h-2.953v1.87H537.7v1.535h-2.748v1.922H538.1Z" fill="#1e1e1e"/>
      <path d="M545.139,57.2h-1.851v-.826h-.024a2.075,2.075,0,0,1-1.857.972,2.275,2.275,0,0,1-1.811-.794,3.285,3.285,0,0,1-.685-2.218,3.574,3.574,0,0,1,.756-2.384,2.465,2.465,0,0,1,1.98-.9,1.684,1.684,0,0,1,1.617.832h.024V48.317h1.851Zm-1.816-2.918v-.451a1.418,1.418,0,0,0-.34-.973,1.2,1.2,0,0,0-1.845.1,2.239,2.239,0,0,0-.346,1.327,1.938,1.938,0,0,0,.334,1.218,1.186,1.186,0,0,0,1.843-.023A1.882,1.882,0,0,0,543.323,54.282Z" fill="#1e1e1e"/>
      <path d="M552.581,56.514a3.393,3.393,0,0,1-.967,2.587,3.919,3.919,0,0,1-2.8.917,4.435,4.435,0,0,1-1.922-.346V58.114a3.689,3.689,0,0,0,1.87.539,2.014,2.014,0,0,0,1.453-.495,1.78,1.78,0,0,0,.515-1.345v-.475h-.023a2.068,2.068,0,0,1-1.869,1.008,2.25,2.25,0,0,1-1.823-.808,3.28,3.28,0,0,1-.673-2.168,3.651,3.651,0,0,1,.75-2.42,2.447,2.447,0,0,1,1.974-.9,1.821,1.821,0,0,1,1.641.844h.023v-.7h1.852Zm-1.828-2.2v-.475a1.458,1.458,0,0,0-.337-.969,1.09,1.09,0,0,0-.876-.4,1.131,1.131,0,0,0-.967.481,2.26,2.26,0,0,0-.352,1.353,1.913,1.913,0,0,0,.334,1.187,1.09,1.09,0,0,0,.915.436,1.132,1.132,0,0,0,.928-.442A1.811,1.811,0,0,0,550.753,54.317Z" fill="#1e1e1e"/>
      <path d="M559.518,54.727H555.6q.094,1.307,1.647,1.307a3.219,3.219,0,0,0,1.74-.469V56.9a4.57,4.57,0,0,1-2.162.445,2.792,2.792,0,0,1-3.059-3.053,3.208,3.208,0,0,1,.868-2.367,2.888,2.888,0,0,1,2.132-.873,2.623,2.623,0,0,1,2.031.78,3,3,0,0,1,.717,2.115ZM557.8,53.59q0-1.288-1.043-1.289a1,1,0,0,0-.771.369,1.671,1.671,0,0,0-.4.92Z" fill="#1e1e1e"/>
      <path d="M531.516,70.4h-1.9V66.978h-3.48V70.4h-1.893V62h1.893v3.351h3.48V62h1.9Z" fill="#1e1e1e"/>
      <path d="M538.958,70.4h-1.846v-.914h-.029a2.094,2.094,0,0,1-1.834,1.06q-2.087,0-2.086-2.525V64.4h1.846v3.457q0,1.272,1.007,1.271a1,1,0,0,0,.8-.348,1.4,1.4,0,0,0,.3-.947V64.4h1.846Z" fill="#1e1e1e"/>
      <path d="M542.391,69.7h-.023v.7h-1.852V61.517h1.852V65.3h.023a2.2,2.2,0,0,1,1.952-1.049,2.142,2.142,0,0,1,1.787.8,3.438,3.438,0,0,1,.627,2.18,3.716,3.716,0,0,1-.733,2.408,2.383,2.383,0,0,1-1.957.908A1.892,1.892,0,0,1,542.391,69.7Zm-.052-2.532v.616a1.4,1.4,0,0,0,.334.961,1.086,1.086,0,0,0,.855.38,1.137,1.137,0,0,0,.982-.489,2.365,2.365,0,0,0,.348-1.386,1.88,1.88,0,0,0-.319-1.163,1.079,1.079,0,0,0-.911-.419,1.178,1.178,0,0,0-.923.416A1.583,1.583,0,0,0,542.339,67.171Z" fill="#1e1e1e"/>
    </g>
    <g>
      <path d="M252.883,91.767H251.9V87.935h-4.347v3.832h-.985v-8.4h.985V87.05H251.9V83.365h.985Z" fill="#1e1e1e"/>
      <path d="M260.054,84.255h-2.425v7.512h-.985V84.255h-2.42v-.89h5.83Z" fill="#1e1e1e"/>
      <path d="M266.576,84.255H264.15v7.512h-.984V84.255h-2.42v-.89h5.83Z" fill="#1e1e1e"/>
      <path d="M268.879,88.591v3.176h-.985v-8.4H270.2a3.045,3.045,0,0,1,2.089.656,2.344,2.344,0,0,1,.741,1.852,2.547,2.547,0,0,1-.823,1.957,3.149,3.149,0,0,1-2.224.761Zm0-4.336V87.7h1.031a2.31,2.31,0,0,0,1.556-.466A1.651,1.651,0,0,0,272,85.919q0-1.663-1.969-1.664Z" fill="#1e1e1e"/>
      <path d="M282.6,89.007h-4.237a2.245,2.245,0,0,0,.539,1.547,1.861,1.861,0,0,0,1.418.545,2.948,2.948,0,0,0,1.863-.668v.9a3.478,3.478,0,0,1-2.091.575,2.535,2.535,0,0,1-2-.818,3.341,3.341,0,0,1-.727-2.3,3.284,3.284,0,0,1,.794-2.283,2.546,2.546,0,0,1,1.972-.882,2.255,2.255,0,0,1,1.822.762A3.175,3.175,0,0,1,282.6,88.5Zm-.985-.814a1.96,1.96,0,0,0-.4-1.3,1.367,1.367,0,0,0-1.1-.463,1.552,1.552,0,0,0-1.154.486,2.2,2.2,0,0,0-.586,1.272Z" fill="#1e1e1e"/>
      <path d="M288.431,85.767,286.416,88.8l1.98,2.965h-1.119L286.1,89.822c-.074-.121-.162-.274-.263-.457h-.024q-.029.053-.275.457l-1.2,1.945h-1.108l2.045-2.941-1.957-3.059h1.119l1.161,2.051q.127.228.251.469h.024l1.5-2.52Z" fill="#1e1e1e"/>
      <path d="M292.34,91.708a1.856,1.856,0,0,1-.9.188q-1.577,0-1.576-1.758V86.587h-1.031v-.82h1.031V84.3l.961-.31v1.775h1.512v.82h-1.512v3.381a1.4,1.4,0,0,0,.205.862.821.821,0,0,0,.68.257,1.01,1.01,0,0,0,.627-.2Z" fill="#1e1e1e"/>
      <path d="M298.445,89.007h-4.236a2.24,2.24,0,0,0,.539,1.547,1.859,1.859,0,0,0,1.418.545,2.948,2.948,0,0,0,1.863-.668v.9a3.482,3.482,0,0,1-2.092.575,2.538,2.538,0,0,1-2-.818,3.346,3.346,0,0,1-.726-2.3,3.279,3.279,0,0,1,.794-2.283,2.544,2.544,0,0,1,1.971-.882,2.258,2.258,0,0,1,1.823.762,3.18,3.18,0,0,1,.644,2.115Zm-.984-.814a1.954,1.954,0,0,0-.4-1.3,1.365,1.365,0,0,0-1.1-.463,1.555,1.555,0,0,0-1.155.486,2.209,2.209,0,0,0-.585,1.272Z" fill="#1e1e1e"/>
      <path d="M304.879,91.767h-.961V88.345q0-1.909-1.395-1.91a1.513,1.513,0,0,0-1.192.542,2.005,2.005,0,0,0-.472,1.368v3.422H299.9v-6h.961v1h.024a2.165,2.165,0,0,1,1.968-1.137,1.834,1.834,0,0,1,1.506.636,2.83,2.83,0,0,1,.522,1.837Z" fill="#1e1e1e"/>
      <path d="M306.326,91.55V90.519a2.841,2.841,0,0,0,1.728.58q1.266,0,1.266-.844a.733.733,0,0,0-.108-.407,1.1,1.1,0,0,0-.293-.3,2.235,2.235,0,0,0-.434-.231q-.249-.1-.536-.214a7.061,7.061,0,0,1-.7-.319,2.135,2.135,0,0,1-.5-.364,1.35,1.35,0,0,1-.305-.46,1.634,1.634,0,0,1-.1-.6,1.433,1.433,0,0,1,.193-.747,1.708,1.708,0,0,1,.516-.545,2.391,2.391,0,0,1,.735-.331,3.273,3.273,0,0,1,.853-.112,3.436,3.436,0,0,1,1.394.27v.973a2.717,2.717,0,0,0-1.523-.434,1.787,1.787,0,0,0-.487.062,1.2,1.2,0,0,0-.372.172.821.821,0,0,0-.24.267.7.7,0,0,0-.085.343.815.815,0,0,0,.085.392.869.869,0,0,0,.249.282,1.879,1.879,0,0,0,.4.222c.157.067.334.139.534.217a7.461,7.461,0,0,1,.715.314,2.463,2.463,0,0,1,.539.363,1.423,1.423,0,0,1,.342.466,1.5,1.5,0,0,1,.12.627,1.478,1.478,0,0,1-.2.773,1.682,1.682,0,0,1-.524.545,2.388,2.388,0,0,1-.756.322,3.7,3.7,0,0,1-.9.106A3.394,3.394,0,0,1,306.326,91.55Z" fill="#1e1e1e"/>
      <path d="M312.273,84.244a.608.608,0,0,1-.439-.176.594.594,0,0,1-.182-.445.615.615,0,0,1,.621-.627.619.619,0,0,1,.448.178.625.625,0,0,1,0,.888A.615.615,0,0,1,312.273,84.244Zm.469,7.523h-.961v-6h.961Z" fill="#1e1e1e"/>
      <path d="M317.2,91.908a2.784,2.784,0,0,1-2.124-.841,3.117,3.117,0,0,1-.794-2.23,3.248,3.248,0,0,1,.826-2.361,2.973,2.973,0,0,1,2.233-.85,2.689,2.689,0,0,1,2.094.827,3.273,3.273,0,0,1,.753,2.291,3.221,3.221,0,0,1-.811,2.3A2.842,2.842,0,0,1,317.2,91.908Zm.07-5.473a1.826,1.826,0,0,0-1.464.63,2.583,2.583,0,0,0-.539,1.737,2.448,2.448,0,0,0,.544,1.682,1.854,1.854,0,0,0,1.459.615,1.757,1.757,0,0,0,1.433-.6,2.621,2.621,0,0,0,.5-1.717,2.667,2.667,0,0,0-.5-1.735A1.749,1.749,0,0,0,317.265,86.435Z" fill="#1e1e1e"/>
      <path d="M326.7,91.767h-.961V88.345q0-1.909-1.394-1.91a1.515,1.515,0,0,0-1.193.542,2.01,2.01,0,0,0-.472,1.368v3.422h-.96v-6h.96v1h.024a2.165,2.165,0,0,1,1.969-1.137,1.836,1.836,0,0,1,1.506.636A2.836,2.836,0,0,1,326.7,88.1Z" fill="#1e1e1e"/>
    </g>
    <g>
      <path d="M416.692,85.867h-.984v-8.4h.984Z" fill="#1e1e1e"/>
      <path d="M421.28,86.007a2.784,2.784,0,0,1-2.124-.84,3.117,3.117,0,0,1-.794-2.23,3.246,3.246,0,0,1,.826-2.361,2.969,2.969,0,0,1,2.233-.85,2.689,2.689,0,0,1,2.094.826,3.277,3.277,0,0,1,.753,2.291,3.223,3.223,0,0,1-.811,2.3A2.845,2.845,0,0,1,421.28,86.007Zm.07-5.472a1.826,1.826,0,0,0-1.464.63,2.582,2.582,0,0,0-.54,1.737,2.446,2.446,0,0,0,.545,1.681,1.851,1.851,0,0,0,1.459.616,1.756,1.756,0,0,0,1.433-.6,2.617,2.617,0,0,0,.5-1.717,2.662,2.662,0,0,0-.5-1.734A1.75,1.75,0,0,0,421.35,80.535Z" fill="#1e1e1e"/>
      <path d="M430.9,78.355h-2.426v7.512h-.984V78.355h-2.42v-.891h5.83Z" fill="#1e1e1e"/>
      <path d="M441.823,85.867h-.984V82.035h-4.348v3.832h-.984v-8.4h.984V81.15h4.348V77.464h.984Z" fill="#1e1e1e"/>
      <path d="M448.749,85.867h-.961v-.95h-.024a1.971,1.971,0,0,1-1.851,1.09q-2.145,0-2.145-2.554V79.867h.955V83.3q0,1.9,1.454,1.9a1.47,1.47,0,0,0,1.157-.519,1.983,1.983,0,0,0,.454-1.356V79.867h.961Z" fill="#1e1e1e"/>
      <path d="M451.673,85h-.024v.867h-.961V76.984h.961v3.937h.024a2.273,2.273,0,0,1,2.074-1.2,2.2,2.2,0,0,1,1.807.806,3.324,3.324,0,0,1,.654,2.159,3.713,3.713,0,0,1-.733,2.411,2.436,2.436,0,0,1-2,.905A1.974,1.974,0,0,1,451.673,85Zm-.024-2.42v.837a1.781,1.781,0,0,0,.484,1.263,1.723,1.723,0,0,0,2.6-.149,3.068,3.068,0,0,0,.5-1.858,2.422,2.422,0,0,0-.462-1.57,1.533,1.533,0,0,0-1.254-.568,1.7,1.7,0,0,0-1.348.583A2.139,2.139,0,0,0,451.649,82.58Z" fill="#1e1e1e"/>
      <path d="M410.039,99.067h-.961V95.622a2.6,2.6,0,0,0-.308-1.442,1.165,1.165,0,0,0-1.034-.445,1.28,1.28,0,0,0-1.046.562,2.154,2.154,0,0,0-.43,1.348v3.422H405.3V95.5q0-1.769-1.366-1.769a1.268,1.268,0,0,0-1.043.53,2.2,2.2,0,0,0-.41,1.38v3.422h-.961v-6h.961v.949h.024a2.039,2.039,0,0,1,1.863-1.09,1.734,1.734,0,0,1,1.7,1.242,2.142,2.142,0,0,1,1.992-1.242q1.982,0,1.981,2.444Z" fill="#1e1e1e"/>
      <path d="M416.678,96.307h-4.237a2.249,2.249,0,0,0,.539,1.547,1.861,1.861,0,0,0,1.418.545,2.953,2.953,0,0,0,1.864-.668v.9a3.484,3.484,0,0,1-2.092.575,2.535,2.535,0,0,1-2-.818,3.342,3.342,0,0,1-.727-2.3,3.283,3.283,0,0,1,.794-2.282,2.546,2.546,0,0,1,1.972-.882,2.255,2.255,0,0,1,1.822.762,3.175,3.175,0,0,1,.645,2.115Zm-.985-.814a1.958,1.958,0,0,0-.4-1.3,1.367,1.367,0,0,0-1.1-.463,1.552,1.552,0,0,0-1.154.486,2.2,2.2,0,0,0-.586,1.272Z" fill="#1e1e1e"/>
      <path d="M417.767,98.85V97.819a2.844,2.844,0,0,0,1.729.58q1.266,0,1.266-.844a.733.733,0,0,0-.109-.407,1.083,1.083,0,0,0-.293-.3,2.225,2.225,0,0,0-.433-.231q-.249-.1-.537-.214a6.93,6.93,0,0,1-.7-.32,2.105,2.105,0,0,1-.5-.363,1.357,1.357,0,0,1-.3-.46,1.613,1.613,0,0,1-.1-.6,1.438,1.438,0,0,1,.193-.747,1.708,1.708,0,0,1,.516-.545,2.391,2.391,0,0,1,.735-.331,3.236,3.236,0,0,1,.853-.112,3.441,3.441,0,0,1,1.395.27v.972a2.722,2.722,0,0,0-1.524-.433,1.775,1.775,0,0,0-.486.061,1.185,1.185,0,0,0-.372.173.794.794,0,0,0-.241.267.709.709,0,0,0-.085.343.827.827,0,0,0,.085.392.866.866,0,0,0,.249.281,1.914,1.914,0,0,0,.4.223q.234.1.533.217a7.36,7.36,0,0,1,.715.313,2.453,2.453,0,0,1,.539.364,1.422,1.422,0,0,1,.343.465,1.505,1.505,0,0,1,.12.627,1.489,1.489,0,0,1-.2.774,1.685,1.685,0,0,1-.525.545,2.411,2.411,0,0,1-.756.322,3.746,3.746,0,0,1-.9.106A3.413,3.413,0,0,1,417.767,98.85Z" fill="#1e1e1e"/>
      <path d="M422.859,98.85V97.819a2.844,2.844,0,0,0,1.729.58q1.264,0,1.265-.844a.733.733,0,0,0-.108-.407,1.083,1.083,0,0,0-.293-.3,2.235,2.235,0,0,0-.434-.231c-.166-.069-.344-.14-.536-.214a6.93,6.93,0,0,1-.7-.32,2.105,2.105,0,0,1-.5-.363,1.36,1.36,0,0,1-.305-.46,1.634,1.634,0,0,1-.1-.6,1.428,1.428,0,0,1,.193-.747,1.708,1.708,0,0,1,.516-.545,2.391,2.391,0,0,1,.735-.331,3.236,3.236,0,0,1,.853-.112,3.436,3.436,0,0,1,1.394.27v.972a2.716,2.716,0,0,0-1.523-.433,1.775,1.775,0,0,0-.486.061,1.2,1.2,0,0,0-.373.173.8.8,0,0,0-.24.267.709.709,0,0,0-.085.343.827.827,0,0,0,.085.392.866.866,0,0,0,.249.281,1.889,1.889,0,0,0,.4.223q.234.1.533.217a7.36,7.36,0,0,1,.715.313,2.477,2.477,0,0,1,.539.364,1.422,1.422,0,0,1,.343.465,1.505,1.505,0,0,1,.12.627,1.48,1.48,0,0,1-.2.774,1.672,1.672,0,0,1-.524.545,2.411,2.411,0,0,1-.756.322,3.746,3.746,0,0,1-.9.106A3.407,3.407,0,0,1,422.859,98.85Z" fill="#1e1e1e"/>
      <path d="M432.609,99.067h-.961v-.938h-.023a2.012,2.012,0,0,1-1.846,1.079,1.973,1.973,0,0,1-1.4-.475,1.643,1.643,0,0,1-.507-1.26q0-1.681,1.98-1.957l1.8-.252q0-1.528-1.236-1.529a2.954,2.954,0,0,0-1.957.738v-.984a3.718,3.718,0,0,1,2.039-.563q2.115,0,2.115,2.239Zm-.961-3.035-1.447.2a2.35,2.35,0,0,0-1.008.331.956.956,0,0,0-.34.841.917.917,0,0,0,.314.718A1.213,1.213,0,0,0,430,98.4a1.541,1.541,0,0,0,1.18-.5,1.789,1.789,0,0,0,.466-1.269Z" fill="#1e1e1e"/>
      <path d="M439.541,98.586q0,3.306-3.164,3.305a4.256,4.256,0,0,1-1.946-.422v-.961a4,4,0,0,0,1.934.563q2.215,0,2.215-2.356v-.656h-.024a2.427,2.427,0,0,1-3.864.349,3.2,3.2,0,0,1-.682-2.148,3.735,3.735,0,0,1,.735-2.431,2.456,2.456,0,0,1,2.013-.9,1.954,1.954,0,0,1,1.8.973h.024v-.832h.961Zm-.961-2.232v-.885a1.712,1.712,0,0,0-.484-1.224,1.59,1.59,0,0,0-1.2-.51,1.67,1.67,0,0,0-1.394.647,2.891,2.891,0,0,0-.5,1.814,2.48,2.48,0,0,0,.483,1.6,1.562,1.562,0,0,0,1.281.6,1.671,1.671,0,0,0,1.315-.574A2.14,2.14,0,0,0,438.58,96.354Z" fill="#1e1e1e"/>
      <path d="M446.308,96.307h-4.236a2.245,2.245,0,0,0,.539,1.547,1.861,1.861,0,0,0,1.418.545,2.948,2.948,0,0,0,1.863-.668v.9a3.478,3.478,0,0,1-2.091.575,2.535,2.535,0,0,1-2-.818,3.342,3.342,0,0,1-.727-2.3,3.283,3.283,0,0,1,.794-2.282,2.544,2.544,0,0,1,1.972-.882,2.255,2.255,0,0,1,1.822.762,3.174,3.174,0,0,1,.644,2.115Zm-.984-.814a1.958,1.958,0,0,0-.4-1.3,1.367,1.367,0,0,0-1.1-.463,1.552,1.552,0,0,0-1.154.486,2.2,2.2,0,0,0-.586,1.272Z" fill="#1e1e1e"/>
      <path d="M450.685,98.85V97.819a2.844,2.844,0,0,0,1.729.58q1.266,0,1.265-.844a.733.733,0,0,0-.108-.407,1.083,1.083,0,0,0-.293-.3,2.225,2.225,0,0,0-.433-.231q-.249-.1-.537-.214a6.93,6.93,0,0,1-.7-.32,2.105,2.105,0,0,1-.5-.363,1.357,1.357,0,0,1-.3-.46,1.613,1.613,0,0,1-.1-.6,1.438,1.438,0,0,1,.193-.747,1.708,1.708,0,0,1,.516-.545,2.391,2.391,0,0,1,.735-.331,3.236,3.236,0,0,1,.853-.112,3.436,3.436,0,0,1,1.394.27v.972a2.716,2.716,0,0,0-1.523-.433,1.775,1.775,0,0,0-.486.061,1.185,1.185,0,0,0-.372.173.794.794,0,0,0-.241.267.709.709,0,0,0-.085.343.827.827,0,0,0,.085.392.866.866,0,0,0,.249.281,1.914,1.914,0,0,0,.4.223q.234.1.533.217a7.36,7.36,0,0,1,.715.313,2.453,2.453,0,0,1,.539.364,1.422,1.422,0,0,1,.343.465,1.505,1.505,0,0,1,.12.627,1.489,1.489,0,0,1-.2.774,1.685,1.685,0,0,1-.525.545,2.411,2.411,0,0,1-.756.322,3.746,3.746,0,0,1-.9.106A3.41,3.41,0,0,1,450.685,98.85Z" fill="#1e1e1e"/>
      <path d="M456.633,91.543a.61.61,0,0,1-.44-.175.6.6,0,0,1-.181-.446.615.615,0,0,1,.621-.627.622.622,0,0,1,.448.179.628.628,0,0,1,0,.888A.616.616,0,0,1,456.633,91.543Zm.468,7.524h-.961v-6h.961Z" fill="#1e1e1e"/>
      <path d="M464.027,99.067h-.961V95.645q0-1.909-1.394-1.91a1.515,1.515,0,0,0-1.193.542,2.009,2.009,0,0,0-.471,1.368v3.422h-.961v-6h.961v1h.023A2.165,2.165,0,0,1,462,92.926a1.836,1.836,0,0,1,1.506.636,2.836,2.836,0,0,1,.521,1.837Z" fill="#1e1e1e"/>
      <path d="M470.818,99.067h-1.347l-2.649-2.883H466.8v2.883h-.961V90.184h.961v5.631h.023l2.52-2.748H470.6l-2.783,2.894Z" fill="#1e1e1e"/>
    </g>
    <g>
      <path d="M77.654,16.168H75.761v-8.4h1.893Z" fill="#1e1e1e"/>
      <path d="M82.242,16.315a3.225,3.225,0,0,1-2.359-.841,3.048,3.048,0,0,1-.858-2.282,3.05,3.05,0,0,1,.89-2.329,3.365,3.365,0,0,1,2.409-.841,3.182,3.182,0,0,1,2.343.841,2.986,2.986,0,0,1,.85,2.223,3.173,3.173,0,0,1-.876,2.362A3.262,3.262,0,0,1,82.242,16.315Zm.046-4.875a1.234,1.234,0,0,0-1.019.451,1.991,1.991,0,0,0-.363,1.277q0,1.73,1.394,1.729,1.331,0,1.33-1.775Q83.63,11.439,82.288,11.44Z" fill="#1e1e1e"/>
      <path d="M92.8,9.307H90.4v6.861h-1.9V9.307H86.12V7.766H92.8Z" fill="#1e1e1e"/>
      <path d="M102.281,16.168H97.242v-8.4h4.845V9.307H99.134v1.869h2.748v1.535H99.134v1.922h3.147Z" fill="#1e1e1e"/>
      <path d="M109.318,16.168h-1.852v-.826h-.023a2.076,2.076,0,0,1-1.858.973,2.275,2.275,0,0,1-1.81-.794,3.287,3.287,0,0,1-.686-2.218,3.578,3.578,0,0,1,.756-2.385,2.467,2.467,0,0,1,1.98-.9,1.685,1.685,0,0,1,1.618.832h.023V7.286h1.852ZM107.5,13.25V12.8a1.416,1.416,0,0,0-.34-.972,1.2,1.2,0,0,0-1.845.1,2.243,2.243,0,0,0-.346,1.327,1.939,1.939,0,0,0,.334,1.219,1.186,1.186,0,0,0,1.843-.023A1.883,1.883,0,0,0,107.5,13.25Z" fill="#1e1e1e"/>
      <path d="M116.759,15.483a3.4,3.4,0,0,1-.967,2.587,3.918,3.918,0,0,1-2.8.917,4.429,4.429,0,0,1-1.922-.346V17.083a3.683,3.683,0,0,0,1.869.539,2.01,2.01,0,0,0,1.453-.5,1.775,1.775,0,0,0,.516-1.344v-.475h-.024a2.068,2.068,0,0,1-1.869,1.008,2.247,2.247,0,0,1-1.822-.809,3.273,3.273,0,0,1-.674-2.168,3.654,3.654,0,0,1,.75-2.42,2.449,2.449,0,0,1,1.974-.9,1.821,1.821,0,0,1,1.641.844h.024v-.7h1.851Zm-1.828-2.2v-.475a1.458,1.458,0,0,0-.337-.97,1.092,1.092,0,0,0-.876-.4,1.134,1.134,0,0,0-.967.48,2.265,2.265,0,0,0-.351,1.354,1.9,1.9,0,0,0,.334,1.186,1.088,1.088,0,0,0,.914.437,1.13,1.13,0,0,0,.928-.442A1.811,1.811,0,0,0,114.931,13.286Z" fill="#1e1e1e"/>
      <path d="M123.7,13.7h-3.914Q119.876,15,121.429,15a3.218,3.218,0,0,0,1.74-.468V15.87a4.567,4.567,0,0,1-2.162.445,3.044,3.044,0,0,1-2.256-.806,3.044,3.044,0,0,1-.8-2.247,3.211,3.211,0,0,1,.867-2.367,2.889,2.889,0,0,1,2.133-.873,2.624,2.624,0,0,1,2.03.779,3.006,3.006,0,0,1,.718,2.116Zm-1.717-1.137q0-1.289-1.043-1.289a1,1,0,0,0-.771.369,1.682,1.682,0,0,0-.395.92Z" fill="#1e1e1e"/>
      <path d="M133.98,16.168h-1.852v-.826H132.1a2.076,2.076,0,0,1-1.858.973,2.275,2.275,0,0,1-1.81-.794,3.287,3.287,0,0,1-.686-2.218,3.578,3.578,0,0,1,.756-2.385,2.467,2.467,0,0,1,1.981-.9,1.685,1.685,0,0,1,1.617.832h.023V7.286h1.852Zm-1.817-2.918V12.8a1.42,1.42,0,0,0-.339-.972,1.2,1.2,0,0,0-1.846.1,2.243,2.243,0,0,0-.346,1.327,1.939,1.939,0,0,0,.334,1.219,1.186,1.186,0,0,0,1.843-.023A1.883,1.883,0,0,0,132.163,13.25Z" fill="#1e1e1e"/>
      <path d="M140.929,13.7h-3.914Q137.108,15,138.661,15a3.219,3.219,0,0,0,1.741-.468V15.87a4.573,4.573,0,0,1-2.162.445,3.044,3.044,0,0,1-2.256-.806,3.044,3.044,0,0,1-.8-2.247,3.211,3.211,0,0,1,.867-2.367,2.889,2.889,0,0,1,2.133-.873,2.623,2.623,0,0,1,2.03.779,3,3,0,0,1,.718,2.116Zm-1.717-1.137q0-1.289-1.043-1.289a1,1,0,0,0-.77.369,1.676,1.676,0,0,0-.4.92Z" fill="#1e1e1e"/>
      <path d="M147.743,10.168l-2.232,6H143.4l-2.127-6h1.98l1.043,3.7a5.37,5.37,0,0,1,.2,1.066h.024a6.025,6.025,0,0,1,.216-1.031l1.067-3.733Z" fill="#1e1e1e"/>
      <path d="M149.472,9.219a1.085,1.085,0,0,1-.768-.278.9.9,0,0,1-.3-.683.863.863,0,0,1,.3-.679,1.252,1.252,0,0,1,1.538,0,.864.864,0,0,1,.3.679.891.891,0,0,1-.3.692A1.1,1.1,0,0,1,149.472,9.219Zm.914,6.949h-1.852v-6h1.852Z" fill="#1e1e1e"/>
      <path d="M156.492,15.952a3.666,3.666,0,0,1-1.811.363,3.059,3.059,0,0,1-2.238-.838,2.892,2.892,0,0,1-.856-2.162A3.188,3.188,0,0,1,152.5,10.9a3.39,3.39,0,0,1,2.452-.882,3.158,3.158,0,0,1,1.536.281v1.571a2.107,2.107,0,0,0-1.295-.434,1.7,1.7,0,0,0-1.263.466,1.735,1.735,0,0,0-.466,1.286,1.714,1.714,0,0,0,.445,1.251,1.636,1.636,0,0,0,1.225.454,2.448,2.448,0,0,0,1.354-.434Z" fill="#1e1e1e"/>
      <path d="M163.1,13.7h-3.914Q159.274,15,160.827,15a3.219,3.219,0,0,0,1.741-.468V15.87a4.573,4.573,0,0,1-2.162.445,3.044,3.044,0,0,1-2.256-.806,3.044,3.044,0,0,1-.8-2.247,3.211,3.211,0,0,1,.867-2.367,2.889,2.889,0,0,1,2.133-.873,2.623,2.623,0,0,1,2.03.779,3,3,0,0,1,.718,2.116Zm-1.717-1.137q0-1.289-1.043-1.289a1,1,0,0,0-.77.369,1.676,1.676,0,0,0-.4.92Z" fill="#1e1e1e"/>
    </g>
    <g>
      <path d="M108.454,41.105V44h-1.893V35.6h2.965q3.176,0,3.176,2.677a2.57,2.57,0,0,1-.911,2.048,3.608,3.608,0,0,1-2.435.782Zm0-4.054V39.67h.744q1.512,0,1.512-1.324,0-1.3-1.512-1.295Z" fill="#1e1e1e"/>
      <path d="M114.688,37.051a1.079,1.079,0,0,1-.767-.279.893.893,0,0,1-.3-.682.863.863,0,0,1,.3-.68,1.252,1.252,0,0,1,1.538,0,.87.87,0,0,1,.3.68.893.893,0,0,1-.3.691A1.1,1.1,0,0,1,114.688,37.051ZM115.6,44h-1.851V38H115.6Z" fill="#1e1e1e"/>
      <path d="M119.036,43.3h-.023V46.76h-1.852V38h1.852v.9h.023a2.357,2.357,0,0,1,3.729-.249,3.407,3.407,0,0,1,.636,2.177,3.691,3.691,0,0,1-.741,2.408,2.415,2.415,0,0,1-1.972.908A1.869,1.869,0,0,1,119.036,43.3Zm-.053-2.461v.48a1.533,1.533,0,0,0,.328,1.014,1.069,1.069,0,0,0,.862.393,1.135,1.135,0,0,0,.981-.49,2.356,2.356,0,0,0,.349-1.385q0-1.582-1.231-1.583a1.154,1.154,0,0,0-.928.431A1.714,1.714,0,0,0,118.983,40.842Z" fill="#1e1e1e"/>
      <path d="M129.993,41.527h-3.914q.093,1.306,1.646,1.307a3.211,3.211,0,0,0,1.741-.469V43.7a4.573,4.573,0,0,1-2.162.445,2.792,2.792,0,0,1-3.059-3.052,3.211,3.211,0,0,1,.867-2.367,2.889,2.889,0,0,1,2.133-.873,2.619,2.619,0,0,1,2.03.779,3,3,0,0,1,.718,2.115Zm-1.717-1.136q0-1.29-1.043-1.289a.994.994,0,0,0-.77.369,1.673,1.673,0,0,0-.4.92Z" fill="#1e1e1e"/>
      <path d="M132.946,44H131.1V35.117h1.851Z" fill="#1e1e1e"/>
      <path d="M135.442,37.051a1.079,1.079,0,0,1-.767-.279.893.893,0,0,1-.3-.682.863.863,0,0,1,.3-.68,1.252,1.252,0,0,1,1.538,0,.87.87,0,0,1,.3.68.893.893,0,0,1-.3.691A1.1,1.1,0,0,1,135.442,37.051ZM136.356,44h-1.851V38h1.851Z" fill="#1e1e1e"/>
      <path d="M143.71,44h-1.846V40.666q0-1.395-1-1.395a.99.99,0,0,0-.791.37,1.405,1.405,0,0,0-.311.937V44h-1.851V38h1.851v.949h.024a2.122,2.122,0,0,1,1.928-1.095q1.992,0,1.992,2.472Z" fill="#1e1e1e"/>
      <path d="M150.565,41.527h-3.914q.094,1.306,1.647,1.307a3.21,3.21,0,0,0,1.74-.469V43.7a4.57,4.57,0,0,1-2.162.445,2.792,2.792,0,0,1-3.059-3.052,3.211,3.211,0,0,1,.867-2.367,2.891,2.891,0,0,1,2.133-.873,2.619,2.619,0,0,1,2.03.779,3,3,0,0,1,.718,2.115Zm-1.717-1.136q0-1.29-1.043-1.289a1,1,0,0,0-.77.369,1.673,1.673,0,0,0-.4.92Z" fill="#1e1e1e"/>
    </g>
    <g>
      <path d="M111.035,91.767h-1.171l-1.407-2.355a5.113,5.113,0,0,0-.375-.56,2.155,2.155,0,0,0-.372-.378,1.278,1.278,0,0,0-.41-.214,1.679,1.679,0,0,0-.495-.067H106v3.574h-.984v-8.4h2.508a3.6,3.6,0,0,1,1.016.137,2.28,2.28,0,0,1,.809.419,1.943,1.943,0,0,1,.536.7,2.317,2.317,0,0,1,.194.981,2.362,2.362,0,0,1-.132.806,2.1,2.1,0,0,1-.375.653,2.272,2.272,0,0,1-.586.489,2.989,2.989,0,0,1-.771.314v.023a1.773,1.773,0,0,1,.366.214,1.97,1.97,0,0,1,.3.284,3.916,3.916,0,0,1,.279.372c.091.139.194.3.307.484ZM106,84.255V87.3h1.336a2.034,2.034,0,0,0,.683-.111,1.583,1.583,0,0,0,.542-.319,1.458,1.458,0,0,0,.357-.51,1.706,1.706,0,0,0,.129-.677,1.318,1.318,0,0,0-.436-1.052,1.875,1.875,0,0,0-1.263-.378Z" fill="#1e1e1e"/>
      <path d="M116.619,84.255h-2.425v7.512h-.985V84.255h-2.42v-.89h5.83Z" fill="#1e1e1e"/>
      <path d="M117.311,91.427v-1.16a2.245,2.245,0,0,0,.477.316,3.926,3.926,0,0,0,.586.238,4.705,4.705,0,0,0,.618.149,3.481,3.481,0,0,0,.575.053,2.246,2.246,0,0,0,1.356-.337,1.264,1.264,0,0,0,.3-1.561,1.676,1.676,0,0,0-.413-.46,4.1,4.1,0,0,0-.624-.4q-.36-.191-.777-.4-.438-.224-.82-.451a3.623,3.623,0,0,1-.662-.5,2.113,2.113,0,0,1-.442-.624,2.129,2.129,0,0,1,.091-1.817,2.15,2.15,0,0,1,.662-.7,2.994,2.994,0,0,1,.934-.41,4.276,4.276,0,0,1,1.07-.135,4.1,4.1,0,0,1,1.81.3V84.63a3.287,3.287,0,0,0-1.91-.515,3.14,3.14,0,0,0-.645.067,1.819,1.819,0,0,0-.574.22,1.261,1.261,0,0,0-.41.392,1.049,1.049,0,0,0-.158.586,1.208,1.208,0,0,0,.12.557,1.369,1.369,0,0,0,.354.428,3.543,3.543,0,0,0,.572.375q.336.182.776.4t.856.469a3.967,3.967,0,0,1,.709.545,2.419,2.419,0,0,1,.483.662,1.861,1.861,0,0,1,.179.832,2.1,2.1,0,0,1-.244,1.052,1.991,1.991,0,0,1-.656.7,2.857,2.857,0,0,1-.952.39,5.216,5.216,0,0,1-1.137.12,4.53,4.53,0,0,1-.492-.033q-.292-.031-.6-.093a4.776,4.776,0,0,1-.578-.153A1.784,1.784,0,0,1,117.311,91.427Z" fill="#1e1e1e"/>
      <path d="M125.063,88.591v3.176h-.985v-8.4h2.309a3.045,3.045,0,0,1,2.089.656,2.344,2.344,0,0,1,.741,1.852,2.547,2.547,0,0,1-.823,1.957,3.149,3.149,0,0,1-2.224.761Zm0-4.336V87.7h1.031a2.31,2.31,0,0,0,1.556-.466,1.651,1.651,0,0,0,.536-1.316q0-1.663-1.969-1.664Z" fill="#1e1e1e"/>
      <path d="M133.594,91.55V90.519a2.842,2.842,0,0,0,1.729.58q1.264,0,1.265-.844a.733.733,0,0,0-.108-.407,1.083,1.083,0,0,0-.293-.3,2.235,2.235,0,0,0-.434-.231q-.249-.1-.536-.214a7.061,7.061,0,0,1-.7-.319,2.135,2.135,0,0,1-.5-.364,1.35,1.35,0,0,1-.305-.46,1.634,1.634,0,0,1-.1-.6,1.433,1.433,0,0,1,.193-.747,1.708,1.708,0,0,1,.516-.545,2.391,2.391,0,0,1,.735-.331,3.273,3.273,0,0,1,.853-.112,3.436,3.436,0,0,1,1.394.27v.973a2.717,2.717,0,0,0-1.523-.434,1.787,1.787,0,0,0-.487.062,1.2,1.2,0,0,0-.372.172.821.821,0,0,0-.24.267.7.7,0,0,0-.085.343.815.815,0,0,0,.085.392.869.869,0,0,0,.249.282,1.863,1.863,0,0,0,.4.222q.234.1.533.217a7.461,7.461,0,0,1,.715.314,2.44,2.44,0,0,1,.539.363,1.423,1.423,0,0,1,.342.466,1.645,1.645,0,0,1-.076,1.4,1.682,1.682,0,0,1-.524.545,2.388,2.388,0,0,1-.756.322,3.7,3.7,0,0,1-.9.106A3.4,3.4,0,0,1,133.594,91.55Z" fill="#1e1e1e"/>
      <path d="M141.557,91.908a2.784,2.784,0,0,1-2.124-.841,3.117,3.117,0,0,1-.794-2.23,3.243,3.243,0,0,1,.826-2.361,2.973,2.973,0,0,1,2.233-.85,2.69,2.69,0,0,1,2.094.827,3.273,3.273,0,0,1,.753,2.291,3.221,3.221,0,0,1-.811,2.3A2.842,2.842,0,0,1,141.557,91.908Zm.07-5.473a1.829,1.829,0,0,0-1.465.63,2.589,2.589,0,0,0-.539,1.737,2.449,2.449,0,0,0,.545,1.682,1.854,1.854,0,0,0,1.459.615,1.758,1.758,0,0,0,1.433-.6,2.621,2.621,0,0,0,.5-1.717,2.667,2.667,0,0,0-.5-1.735A1.75,1.75,0,0,0,141.627,86.435Z" fill="#1e1e1e"/>
      <path d="M150.932,91.767h-.961v-.949h-.023a1.976,1.976,0,0,1-1.852,1.09q-2.145,0-2.145-2.555V85.767h.956V89.2q0,1.9,1.453,1.9a1.473,1.473,0,0,0,1.157-.518,1.984,1.984,0,0,0,.454-1.357V85.767h.961Z" fill="#1e1e1e"/>
      <path d="M156,86.74a1.173,1.173,0,0,0-.726-.194,1.23,1.23,0,0,0-1.029.58,2.687,2.687,0,0,0-.413,1.582v3.059h-.961v-6h.961V87h.024a2.086,2.086,0,0,1,.627-.987,1.429,1.429,0,0,1,.943-.354,1.562,1.562,0,0,1,.574.082Z" fill="#1e1e1e"/>
      <path d="M161.133,91.492a3.127,3.127,0,0,1-1.641.416,2.72,2.72,0,0,1-2.071-.835,3.029,3.029,0,0,1-.788-2.165,3.322,3.322,0,0,1,.85-2.382,2.97,2.97,0,0,1,2.267-.9,3.163,3.163,0,0,1,1.4.293V86.9a2.44,2.44,0,0,0-1.43-.469,1.935,1.935,0,0,0-1.509.659,2.506,2.506,0,0,0-.589,1.732,2.384,2.384,0,0,0,.554,1.664,1.909,1.909,0,0,0,1.486.609,2.411,2.411,0,0,0,1.476-.521Z" fill="#1e1e1e"/>
      <path d="M167.408,89.007h-4.236a2.245,2.245,0,0,0,.539,1.547,1.861,1.861,0,0,0,1.418.545,2.948,2.948,0,0,0,1.863-.668v.9a3.478,3.478,0,0,1-2.091.575,2.535,2.535,0,0,1-2-.818,3.341,3.341,0,0,1-.727-2.3,3.284,3.284,0,0,1,.794-2.283,2.546,2.546,0,0,1,1.972-.882,2.255,2.255,0,0,1,1.822.762,3.174,3.174,0,0,1,.644,2.115Zm-.984-.814a1.96,1.96,0,0,0-.4-1.3,1.367,1.367,0,0,0-1.1-.463,1.552,1.552,0,0,0-1.154.486,2.2,2.2,0,0,0-.586,1.272Z" fill="#1e1e1e"/>
    </g>
  </g>
</svg>
