<svg xmlns="http://www.w3.org/2000/svg" viewBox="0 0 335.6 163.32">
  <g id="Shapes">
    <rect width="335.6" height="163.32" fill="#fff"/>
    <g>
      <rect x="3.42" y="38.58" width="125" height="80" fill="#fff"/>
      <rect x="3.42" y="38.58" width="125" height="80" fill="#50e6ff" opacity="0.05"/>
      <rect x="3.42" y="38.58" width="125" height="80" fill="none" stroke="#75757a" stroke-miterlimit="10" stroke-width="0.5" opacity="0.3"/>
    </g>
    <g>
      <rect x="8.42" y="63.58" width="100" height="24.5" fill="#fff"/>
      <rect x="8.42" y="63.58" width="100" height="24.5" fill="#ccc" opacity="0.7"/>
      <rect x="8.42" y="63.58" width="100" height="24.5" fill="none" stroke="#75757a" stroke-width="0.5" opacity="0.7"/>
    </g>
    <g>
      <rect x="23.42" y="84.08" width="100" height="24.5" fill="#fff"/>
      <rect x="23.42" y="84.08" width="100" height="24.5" fill="#0072c6" opacity="0.35"/>
      <rect x="23.42" y="84.08" width="100" height="24.5" fill="none" stroke="#0072c6" stroke-width="0.5"/>
    </g>
    <g>
      <rect x="207.42" y="3.58" width="125" height="115" fill="#fff"/>
      <rect x="207.42" y="3.58" width="125" height="115" fill="#50e6ff" opacity="0.05"/>
      <rect x="207.42" y="3.58" width="125" height="115" fill="none" stroke="#75757a" stroke-miterlimit="10" stroke-width="0.5" opacity="0.3"/>
    </g>
    <g>
      <rect x="212.42" y="28.58" width="100" height="24.5" fill="#fff"/>
      <rect x="212.42" y="28.58" width="100" height="24.5" fill="#ccc" opacity="0.7"/>
      <rect x="212.42" y="28.58" width="100" height="24.5" fill="none" stroke="#75757a" stroke-width="0.5" opacity="0.7"/>
    </g>
    <g>
      <rect x="227.42" y="49.08" width="100" height="24.5" fill="#fff"/>
      <rect x="227.42" y="49.08" width="100" height="24.5" fill="#ccc" opacity="0.7"/>
      <rect x="227.42" y="49.08" width="100" height="24.5" fill="none" stroke="#75757a" stroke-width="0.5" opacity="0.7"/>
    </g>
    <g>
      <rect x="214.92" y="83.58" width="110" height="25" fill="#fff"/>
      <g>
        <polyline points="214.92 85.58 214.92 83.58 216.92 83.58" fill="none" stroke="#0072c6" stroke-width="0.5"/>
        <line x1="219.86" y1="83.58" x2="321.45" y2="83.58" fill="none" stroke="#0072c6" stroke-width="0.5" stroke-dasharray="3.93 2.94"/>
        <polyline points="322.92 83.58 324.92 83.58 324.92 85.58" fill="none" stroke="#0072c6" stroke-width="0.5"/>
        <line x1="324.92" y1="88.2" x2="324.92" y2="105.26" fill="none" stroke="#0072c6" stroke-width="0.5" stroke-dasharray="3.5 2.63"/>
        <polyline points="324.92 106.58 324.92 108.58 322.92 108.58" fill="none" stroke="#0072c6" stroke-width="0.5"/>
        <line x1="319.98" y1="108.58" x2="218.39" y2="108.58" fill="none" stroke="#0072c6" stroke-width="0.5" stroke-dasharray="3.93 2.94"/>
        <polyline points="216.92 108.58 214.92 108.58 214.92 106.58" fill="none" stroke="#0072c6" stroke-width="0.5"/>
        <line x1="214.92" y1="103.95" x2="214.92" y2="86.89" fill="none" stroke="#0072c6" stroke-width="0.5" stroke-dasharray="3.5 2.63"/>
      </g>
    </g>
    <g>
      <line x1="123.42" y1="96.33" x2="209.54" y2="96.33" fill="none" stroke="#3c3c41" stroke-miterlimit="10"/>
      <polygon points="208.44 100.07 214.92 96.33 208.44 92.59 208.44 100.07" fill="#3c3c41"/>
    </g>
    <path d="M174.67,76.45h-1.13V89.39a1.65,1.65,0,0,1-.13.66,1.71,1.71,0,0,1-.89.89,1.66,1.66,0,0,1-.66.14h-9a1.59,1.59,0,0,1-.66-.14,1.42,1.42,0,0,1-.54-.36,1.77,1.77,0,0,1-.36-.53,1.65,1.65,0,0,1-.13-.66V76.45H160V75.33h4.5V74.2a1.08,1.08,0,0,1,.09-.44,1.21,1.21,0,0,1,.24-.35,1.23,1.23,0,0,1,.36-.25,1.27,1.27,0,0,1,.44-.08H169a1.23,1.23,0,0,1,.44.08,1,1,0,0,1,.36.25,1.21,1.21,0,0,1,.24.35,1.08,1.08,0,0,1,.09.44v1.13h4.5Zm-2.25,0H162.29V89.39a.54.54,0,0,0,.17.39.52.52,0,0,0,.4.17h9a.5.5,0,0,0,.39-.17.54.54,0,0,0,.17-.39ZM165.67,87.7h-1.13v-9h1.13Zm0-12.37H169V74.2h-3.37Zm2.25,12.37h-1.13v-9h1.13Zm2.25,0H169v-9h1.13Z" fill="#1e1e1e"/>
    <g>
      <rect x="3.42" y="126.08" width="30" height="15" fill="#fff"/>
      <rect x="3.42" y="126.08" width="30" height="15" fill="#0072c6" opacity="0.35"/>
      <rect x="3.42" y="126.08" width="30" height="15" fill="none" stroke="#0072c6" stroke-width="0.5"/>
    </g>
    <g>
      <rect x="3.42" y="146.08" width="30" height="15" fill="#fff"/>
      <rect x="3.42" y="146.08" width="30" height="15" fill="#ccc" opacity="0.7"/>
      <rect x="3.42" y="146.08" width="30" height="15" fill="none" stroke="#75757a" stroke-width="0.5" opacity="0.7"/>
    </g>
  </g>
  <g id="Text">
    <g>
      <path d="M33,71.67l-3.11,8.41H28.76l-3-8.41h1.09l2.33,6.67a4.27,4.27,0,0,1,.17.74h0a4.22,4.22,0,0,1,.19-.76l2.38-6.65Z" fill="#1e1e1e"/>
      <path d="M38.28,77.32H34a2.27,2.27,0,0,0,.54,1.54,1.85,1.85,0,0,0,1.42.55,2.89,2.89,0,0,0,1.86-.67v.9a3.41,3.41,0,0,1-2.09.58,2.56,2.56,0,0,1-2-.82,3.37,3.37,0,0,1-.72-2.3,3.28,3.28,0,0,1,.79-2.28,2.54,2.54,0,0,1,2-.88,2.26,2.26,0,0,1,1.83.76,3.2,3.2,0,0,1,.64,2.11Zm-1-.82a2,2,0,0,0-.41-1.29,1.36,1.36,0,0,0-1.09-.47,1.58,1.58,0,0,0-1.16.49,2.15,2.15,0,0,0-.58,1.27Z" fill="#1e1e1e"/>
      <path d="M42.86,75.05a1.16,1.16,0,0,0-.72-.19,1.21,1.21,0,0,0-1,.58A2.62,2.62,0,0,0,40.69,77v3.06h-1v-6h1v1.23h0a2,2,0,0,1,.62-1,1.45,1.45,0,0,1,.95-.36,1.65,1.65,0,0,1,.57.08Z" fill="#1e1e1e"/>
      <path d="M43.73,79.86v-1a2.88,2.88,0,0,0,1.73.58c.84,0,1.26-.28,1.26-.85a.65.65,0,0,0-.11-.4,1.17,1.17,0,0,0-.29-.3,2.86,2.86,0,0,0-.43-.23l-.54-.21-.7-.32a2,2,0,0,1-.5-.37,1.21,1.21,0,0,1-.31-.46,1.57,1.57,0,0,1-.1-.6,1.44,1.44,0,0,1,.19-.75,1.67,1.67,0,0,1,.52-.54,2.21,2.21,0,0,1,.73-.33,3.07,3.07,0,0,1,.86-.11,3.59,3.59,0,0,1,1.39.26v1a2.71,2.71,0,0,0-1.52-.44,1.53,1.53,0,0,0-.49.07,1.05,1.05,0,0,0-.37.17.78.78,0,0,0-.24.27.64.64,0,0,0-.09.34.8.8,0,0,0,.09.39.83.83,0,0,0,.25.28,1.67,1.67,0,0,0,.4.22l.53.22c.27.1.5.21.71.31a2,2,0,0,1,.54.37,1.41,1.41,0,0,1,.35.46,1.54,1.54,0,0,1,.12.63,1.45,1.45,0,0,1-.2.77,1.82,1.82,0,0,1-.52.55,2.49,2.49,0,0,1-.76.32,3.76,3.76,0,0,1-.9.11A3.37,3.37,0,0,1,43.73,79.86Z" fill="#1e1e1e"/>
      <path d="M49.56,72.55a.64.64,0,0,1-.44-.17.65.65,0,0,1,0-.9.6.6,0,0,1,.44-.18.64.64,0,0,1,.45.18.61.61,0,0,1,.18.45.6.6,0,0,1-.18.44A.64.64,0,0,1,49.56,72.55ZM50,80.08h-1v-6h1Z" fill="#1e1e1e"/>
      <path d="M54.4,80.22a2.79,2.79,0,0,1-2.12-.84,3.12,3.12,0,0,1-.79-2.23,3.23,3.23,0,0,1,.82-2.36,3,3,0,0,1,2.24-.85,2.68,2.68,0,0,1,2.09.82,3.29,3.29,0,0,1,.75,2.29,3.21,3.21,0,0,1-.81,2.3A2.84,2.84,0,0,1,54.4,80.22Zm.08-5.48a1.84,1.84,0,0,0-1.47.63,2.59,2.59,0,0,0-.54,1.74A2.41,2.41,0,0,0,53,78.79a1.85,1.85,0,0,0,1.46.62,1.74,1.74,0,0,0,1.43-.61,2.62,2.62,0,0,0,.5-1.71,2.71,2.71,0,0,0-.5-1.74A1.77,1.77,0,0,0,54.48,74.74Z" fill="#1e1e1e"/>
      <path d="M63.85,80.08h-1V76.65c0-1.27-.46-1.91-1.39-1.91a1.48,1.48,0,0,0-1.19.55,2,2,0,0,0-.48,1.36v3.43h-1v-6h1v1h0a2.15,2.15,0,0,1,2-1.13,1.84,1.84,0,0,1,1.5.63,2.84,2.84,0,0,1,.52,1.84Z" fill="#1e1e1e"/>
      <path d="M70.06,80.08h-1V71.67h1Z" fill="#1e1e1e"/>
      <path d="M72.15,80.08V71.67h2.32q4.44,0,4.44,4.1a4.14,4.14,0,0,1-1.23,3.13,4.6,4.6,0,0,1-3.3,1.18Zm1-7.52v6.63h1.25A3.55,3.55,0,0,0,77,78.3a3.3,3.3,0,0,0,.92-2.51q0-3.23-3.43-3.23Z" fill="#1e1e1e"/>
      <path d="M80.68,75.25a.63.63,0,0,1-.46-.2.6.6,0,0,1-.19-.46.62.62,0,0,1,.19-.46.65.65,0,0,1,.46-.18.67.67,0,0,1,.47.18.62.62,0,0,1,.19.46.6.6,0,0,1-.19.46A.65.65,0,0,1,80.68,75.25Zm0,5a.65.65,0,0,1-.65-.65.64.64,0,0,1,.19-.47.62.62,0,0,1,.46-.19.65.65,0,0,1,.66.66.62.62,0,0,1-.19.46A.64.64,0,0,1,80.68,80.2Z" fill="#1e1e1e"/>
      <path d="M89.5,80.08h-1V72.82a2,2,0,0,1-.32.25,5.06,5.06,0,0,1-.48.29l-.56.26a3.56,3.56,0,0,1-.58.19v-1a6.12,6.12,0,0,0,.67-.24c.24-.1.47-.21.7-.33a6.82,6.82,0,0,0,.64-.39,4.05,4.05,0,0,0,.53-.39h.36Z" fill="#1e1e1e"/>
    </g>
    <g>
      <path d="M48,92.17l-3.11,8.41H43.76l-3-8.41h1.09l2.33,6.67a4.27,4.27,0,0,1,.17.74h0a4.22,4.22,0,0,1,.19-.76l2.38-6.65Z" fill="#1e1e1e"/>
      <path d="M53.28,97.82H49a2.27,2.27,0,0,0,.54,1.54,1.85,1.85,0,0,0,1.42.55,2.89,2.89,0,0,0,1.86-.67v.9a3.41,3.41,0,0,1-2.09.58,2.56,2.56,0,0,1-2-.82,3.37,3.37,0,0,1-.72-2.3,3.28,3.28,0,0,1,.79-2.28,2.54,2.54,0,0,1,2-.88,2.26,2.26,0,0,1,1.83.76,3.2,3.2,0,0,1,.64,2.11Zm-1-.82a2,2,0,0,0-.41-1.29,1.36,1.36,0,0,0-1.09-.47,1.58,1.58,0,0,0-1.16.49A2.15,2.15,0,0,0,49.06,97Z" fill="#1e1e1e"/>
      <path d="M57.86,95.55a1.16,1.16,0,0,0-.72-.19,1.21,1.21,0,0,0-1,.58,2.62,2.62,0,0,0-.42,1.58v3.06h-1v-6h1v1.23h0a2,2,0,0,1,.62-1,1.45,1.45,0,0,1,.95-.36,1.65,1.65,0,0,1,.57.08Z" fill="#1e1e1e"/>
      <path d="M58.73,100.36v-1a2.88,2.88,0,0,0,1.73.58c.84,0,1.26-.28,1.26-.85a.65.65,0,0,0-.11-.4,1.17,1.17,0,0,0-.29-.3,2.86,2.86,0,0,0-.43-.23l-.54-.21-.7-.32a2,2,0,0,1-.5-.37,1.21,1.21,0,0,1-.31-.46,1.57,1.57,0,0,1-.1-.6,1.44,1.44,0,0,1,.19-.75,1.67,1.67,0,0,1,.52-.54,2.21,2.21,0,0,1,.73-.33,3.07,3.07,0,0,1,.86-.11,3.59,3.59,0,0,1,1.39.26v1a2.71,2.71,0,0,0-1.52-.44,1.53,1.53,0,0,0-.49.07,1.05,1.05,0,0,0-.37.17.78.78,0,0,0-.24.27.64.64,0,0,0-.09.34.8.8,0,0,0,.09.39.83.83,0,0,0,.25.28,1.67,1.67,0,0,0,.4.22l.53.22c.27.1.5.21.71.31a2,2,0,0,1,.54.37,1.41,1.41,0,0,1,.35.46,1.54,1.54,0,0,1,.12.63,1.45,1.45,0,0,1-.2.77,1.82,1.82,0,0,1-.52.55,2.49,2.49,0,0,1-.76.32,3.76,3.76,0,0,1-.9.11A3.37,3.37,0,0,1,58.73,100.36Z" fill="#1e1e1e"/>
      <path d="M64.56,93.05a.64.64,0,0,1-.44-.17.65.65,0,0,1,0-.9.6.6,0,0,1,.44-.18A.64.64,0,0,1,65,92a.61.61,0,0,1,.18.45.6.6,0,0,1-.18.44A.64.64,0,0,1,64.56,93.05Zm.47,7.53h-1v-6h1Z" fill="#1e1e1e"/>
      <path d="M69.4,100.72a2.79,2.79,0,0,1-2.12-.84,3.12,3.12,0,0,1-.79-2.23,3.23,3.23,0,0,1,.82-2.36,3,3,0,0,1,2.24-.85,2.68,2.68,0,0,1,2.09.82,3.29,3.29,0,0,1,.75,2.29,3.21,3.21,0,0,1-.81,2.3A2.84,2.84,0,0,1,69.4,100.72Zm.08-5.48a1.84,1.84,0,0,0-1.47.63,2.59,2.59,0,0,0-.54,1.74A2.41,2.41,0,0,0,68,99.29a1.85,1.85,0,0,0,1.46.62,1.74,1.74,0,0,0,1.43-.61,2.62,2.62,0,0,0,.5-1.71,2.71,2.71,0,0,0-.5-1.74A1.77,1.77,0,0,0,69.48,95.24Z" fill="#1e1e1e"/>
      <path d="M78.85,100.58h-1V97.15c0-1.27-.46-1.91-1.39-1.91a1.48,1.48,0,0,0-1.19.55,2,2,0,0,0-.48,1.36v3.43h-1v-6h1v1h0a2.15,2.15,0,0,1,2-1.13,1.84,1.84,0,0,1,1.5.63,2.84,2.84,0,0,1,.52,1.84Z" fill="#1e1e1e"/>
      <path d="M85.06,100.58h-1V92.17h1Z" fill="#1e1e1e"/>
      <path d="M87.15,100.58V92.17h2.32q4.44,0,4.44,4.1a4.14,4.14,0,0,1-1.23,3.13,4.6,4.6,0,0,1-3.3,1.18Zm1-7.52v6.63h1.25A3.55,3.55,0,0,0,92,98.8a3.3,3.3,0,0,0,.92-2.51q0-3.23-3.43-3.23Z" fill="#1e1e1e"/>
      <path d="M95.68,95.75a.63.63,0,0,1-.46-.2.6.6,0,0,1-.19-.46.62.62,0,0,1,.19-.46.65.65,0,0,1,.46-.18.67.67,0,0,1,.47.18.62.62,0,0,1,.19.46.6.6,0,0,1-.19.46A.65.65,0,0,1,95.68,95.75Zm0,5a.65.65,0,0,1-.65-.65.64.64,0,0,1,.19-.47.62.62,0,0,1,.46-.19.65.65,0,0,1,.66.66.62.62,0,0,1-.19.46A.64.64,0,0,1,95.68,100.7Z" fill="#1e1e1e"/>
      <path d="M104.79,94.38a1.76,1.76,0,0,0-.12-.68,1.25,1.25,0,0,0-.33-.47,1.28,1.28,0,0,0-.49-.29,2,2,0,0,0-.61-.09,2,2,0,0,0-.55.07,2.66,2.66,0,0,0-.53.21,3,3,0,0,0-.49.33,3.39,3.39,0,0,0-.44.41v-1a3,3,0,0,1,.9-.6,3.23,3.23,0,0,1,1.23-.21,2.91,2.91,0,0,1,1,.15,2.2,2.2,0,0,1,.76.44,1.93,1.93,0,0,1,.51.71,2.42,2.42,0,0,1,.18,1,3.2,3.2,0,0,1-.11.91,2.75,2.75,0,0,1-.35.76,3,3,0,0,1-.58.68,7.38,7.38,0,0,1-.82.67c-.4.28-.72.52-1,.72a4.34,4.34,0,0,0-.61.56,1.75,1.75,0,0,0-.32.52,1.89,1.89,0,0,0-.09.6h4.19v.87H100.9v-.42a3.38,3.38,0,0,1,.12-1,2.81,2.81,0,0,1,.38-.78,4.83,4.83,0,0,1,.71-.74c.29-.24.65-.52,1.07-.83a6.69,6.69,0,0,0,.76-.63,3,3,0,0,0,.5-.59,2.53,2.53,0,0,0,.27-.61A2.69,2.69,0,0,0,104.79,94.38Z" fill="#1e1e1e"/>
    </g>
    <g>
      <path d="M47.7,52.71h0v.87h-1V44.69h1v3.94h0a2.25,2.25,0,0,1,2.07-1.19,2.2,2.2,0,0,1,1.81.8,3.31,3.31,0,0,1,.65,2.16,3.71,3.71,0,0,1-.73,2.41,2.43,2.43,0,0,1-2,.91A2,2,0,0,1,47.7,52.71Zm0-2.42v.84a1.81,1.81,0,0,0,.49,1.26,1.72,1.72,0,0,0,2.59-.15,3,3,0,0,0,.5-1.86,2.49,2.49,0,0,0-.46-1.57,1.54,1.54,0,0,0-1.26-.57,1.71,1.71,0,0,0-1.35.59A2.13,2.13,0,0,0,47.67,50.29Z" fill="#1e1e1e"/>
      <path d="M54.69,53.58h-1V44.69h1Z" fill="#1e1e1e"/>
      <path d="M59.08,53.72A2.79,2.79,0,0,1,57,52.88a3.12,3.12,0,0,1-.79-2.23A3.23,3.23,0,0,1,57,48.29a3,3,0,0,1,2.23-.85,2.69,2.69,0,0,1,2.1.82,3.29,3.29,0,0,1,.75,2.29,3.21,3.21,0,0,1-.81,2.3A2.84,2.84,0,0,1,59.08,53.72Zm.07-5.48a1.83,1.83,0,0,0-1.46.63,2.59,2.59,0,0,0-.54,1.74,2.41,2.41,0,0,0,.55,1.68,1.83,1.83,0,0,0,1.45.62,1.77,1.77,0,0,0,1.44-.6,2.67,2.67,0,0,0,.5-1.72,2.71,2.71,0,0,0-.5-1.74A1.78,1.78,0,0,0,59.15,48.24Z" fill="#1e1e1e"/>
      <path d="M64.54,52.71h0v.87h-1V44.69h1v3.94h0a2.25,2.25,0,0,1,2.07-1.19,2.2,2.2,0,0,1,1.81.8,3.37,3.37,0,0,1,.65,2.16,3.71,3.71,0,0,1-.73,2.41,2.43,2.43,0,0,1-2,.91A2,2,0,0,1,64.54,52.71Zm0-2.42v.84A1.77,1.77,0,0,0,65,52.39a1.71,1.71,0,0,0,2.59-.15,3,3,0,0,0,.5-1.86,2.49,2.49,0,0,0-.46-1.57,1.54,1.54,0,0,0-1.26-.57,1.71,1.71,0,0,0-1.35.59A2.13,2.13,0,0,0,64.51,50.29Z" fill="#1e1e1e"/>
      <path d="M70.77,53.71a.63.63,0,0,1-.46-.2.62.62,0,0,1-.19-.46.64.64,0,0,1,.19-.47.62.62,0,0,1,.46-.19.65.65,0,0,1,.66.66.62.62,0,0,1-.19.46A.65.65,0,0,1,70.77,53.71Z" fill="#1e1e1e"/>
      <path d="M75.53,53.52a1.87,1.87,0,0,1-.89.19c-1.06,0-1.58-.59-1.58-1.76V48.4H72v-.82h1V46.11l1-.31v1.78h1.51v.82H74v3.38a1.37,1.37,0,0,0,.21.86.81.81,0,0,0,.68.26,1,1,0,0,0,.62-.2Z" fill="#1e1e1e"/>
      <path d="M81.52,47.58l-2,3,2,3H80.37l-1.18-1.95c-.07-.12-.16-.27-.26-.46h0l-.27.46-1.2,1.95H76.32l2-2.94-2-3.06h1.12l1.16,2.05.25.47h0l1.5-2.52Z" fill="#1e1e1e"/>
      <path d="M85.79,53.52a1.94,1.94,0,0,1-.9.19c-1,0-1.57-.59-1.57-1.76V48.4h-1v-.82h1V46.11l1-.31v1.78h1.51v.82H84.28v3.38a1.45,1.45,0,0,0,.2.86.84.84,0,0,0,.68.26,1,1,0,0,0,.63-.2Z" fill="#1e1e1e"/>
    </g>
    <g>
      <path d="M237,36.67l-3.11,8.41h-1.09l-3-8.41h1.09l2.33,6.67a4.27,4.27,0,0,1,.17.74h0a4.22,4.22,0,0,1,.19-.76l2.38-6.65Z" fill="#1e1e1e"/>
      <path d="M242.28,42.32H238a2.27,2.27,0,0,0,.54,1.54,1.85,1.85,0,0,0,1.42.55,2.89,2.89,0,0,0,1.86-.67v.9a3.41,3.41,0,0,1-2.09.58,2.56,2.56,0,0,1-2-.82,3.37,3.37,0,0,1-.72-2.3,3.28,3.28,0,0,1,.79-2.28,2.54,2.54,0,0,1,2-.88,2.26,2.26,0,0,1,1.83.76,3.2,3.2,0,0,1,.64,2.11Zm-1-.82a2,2,0,0,0-.41-1.29,1.36,1.36,0,0,0-1.09-.47,1.58,1.58,0,0,0-1.16.49,2.15,2.15,0,0,0-.58,1.27Z" fill="#1e1e1e"/>
      <path d="M246.86,40.05a1.16,1.16,0,0,0-.72-.19,1.21,1.21,0,0,0-1,.58,2.62,2.62,0,0,0-.42,1.58v3.06h-1v-6h1v1.23h0a2,2,0,0,1,.62-1,1.45,1.45,0,0,1,.95-.36,1.65,1.65,0,0,1,.57.08Z" fill="#1e1e1e"/>
      <path d="M247.73,44.86v-1a2.88,2.88,0,0,0,1.73.58c.84,0,1.26-.28,1.26-.85a.65.65,0,0,0-.11-.4,1.17,1.17,0,0,0-.29-.3,2.86,2.86,0,0,0-.43-.23l-.54-.21-.7-.32a2,2,0,0,1-.5-.37,1.21,1.21,0,0,1-.31-.46,1.57,1.57,0,0,1-.1-.6,1.44,1.44,0,0,1,.19-.75,1.67,1.67,0,0,1,.52-.54,2.21,2.21,0,0,1,.73-.33,3.07,3.07,0,0,1,.86-.11,3.59,3.59,0,0,1,1.39.26v1a2.71,2.71,0,0,0-1.52-.44,1.53,1.53,0,0,0-.49.07,1.05,1.05,0,0,0-.37.17.78.78,0,0,0-.24.27.64.64,0,0,0-.09.34.8.8,0,0,0,.09.39.83.83,0,0,0,.25.28,1.67,1.67,0,0,0,.4.22l.53.22c.27.1.5.21.71.31a2,2,0,0,1,.54.37,1.41,1.41,0,0,1,.35.46,1.54,1.54,0,0,1,.12.63,1.45,1.45,0,0,1-.2.77,1.82,1.82,0,0,1-.52.55,2.49,2.49,0,0,1-.76.32,3.76,3.76,0,0,1-.9.11A3.37,3.37,0,0,1,247.73,44.86Z" fill="#1e1e1e"/>
      <path d="M253.56,37.55a.64.64,0,0,1-.44-.17.65.65,0,0,1,0-.9.6.6,0,0,1,.44-.18.63.63,0,0,1,.45.18.61.61,0,0,1,.18.45.6.6,0,0,1-.18.44A.63.63,0,0,1,253.56,37.55Zm.47,7.53h-1v-6h1Z" fill="#1e1e1e"/>
      <path d="M258.41,45.22a2.79,2.79,0,0,1-2.13-.84,3.12,3.12,0,0,1-.79-2.23,3.23,3.23,0,0,1,.82-2.36,3,3,0,0,1,2.24-.85,2.68,2.68,0,0,1,2.09.82,3.29,3.29,0,0,1,.75,2.29,3.21,3.21,0,0,1-.81,2.3A2.82,2.82,0,0,1,258.41,45.22Zm.07-5.48a1.84,1.84,0,0,0-1.47.63,2.59,2.59,0,0,0-.54,1.74,2.41,2.41,0,0,0,.55,1.68,1.85,1.85,0,0,0,1.46.62,1.74,1.74,0,0,0,1.43-.61,2.62,2.62,0,0,0,.5-1.71,2.71,2.71,0,0,0-.5-1.74A1.77,1.77,0,0,0,258.48,39.74Z" fill="#1e1e1e"/>
      <path d="M267.85,45.08h-1V41.65c0-1.27-.46-1.91-1.39-1.91a1.48,1.48,0,0,0-1.19.55,2,2,0,0,0-.48,1.36v3.43h-1v-6h1v1h0a2.15,2.15,0,0,1,2-1.13,1.83,1.83,0,0,1,1.5.63,2.84,2.84,0,0,1,.52,1.84Z" fill="#1e1e1e"/>
      <path d="M274.07,45.08h-1V36.67h1Z" fill="#1e1e1e"/>
      <path d="M276.15,45.08V36.67h2.32q4.44,0,4.44,4.1a4.14,4.14,0,0,1-1.23,3.13,4.6,4.6,0,0,1-3.3,1.18Zm1-7.52v6.63h1.25A3.55,3.55,0,0,0,281,43.3a3.3,3.3,0,0,0,.92-2.51q0-3.23-3.43-3.23Z" fill="#1e1e1e"/>
      <path d="M284.68,40.25a.63.63,0,0,1-.46-.2.6.6,0,0,1-.19-.46.62.62,0,0,1,.19-.46.65.65,0,0,1,.46-.18.67.67,0,0,1,.47.18.62.62,0,0,1,.19.46.6.6,0,0,1-.19.46A.65.65,0,0,1,284.68,40.25Zm0,5a.65.65,0,0,1-.65-.65.64.64,0,0,1,.19-.47.62.62,0,0,1,.46-.19.65.65,0,0,1,.66.66.62.62,0,0,1-.19.46A.64.64,0,0,1,284.68,45.2Z" fill="#1e1e1e"/>
      <path d="M293.5,45.08h-1V37.82a2,2,0,0,1-.32.25,5.06,5.06,0,0,1-.48.29l-.56.26a3.56,3.56,0,0,1-.58.19v-1a6.12,6.12,0,0,0,.67-.24c.24-.1.47-.21.7-.33a5.73,5.73,0,0,0,.64-.39,4.05,4.05,0,0,0,.53-.39h.36Z" fill="#1e1e1e"/>
    </g>
    <g>
      <path d="M252,57.17l-3.11,8.41h-1.09l-3-8.41h1.09l2.33,6.67a4.27,4.27,0,0,1,.17.74h0a4.22,4.22,0,0,1,.19-.76l2.38-6.65Z" fill="#1e1e1e"/>
      <path d="M257.28,62.82H253a2.27,2.27,0,0,0,.54,1.54,1.85,1.85,0,0,0,1.42.55,2.89,2.89,0,0,0,1.86-.67v.9a3.41,3.41,0,0,1-2.09.58,2.56,2.56,0,0,1-2-.82,3.37,3.37,0,0,1-.72-2.3,3.28,3.28,0,0,1,.79-2.28,2.54,2.54,0,0,1,2-.88,2.26,2.26,0,0,1,1.83.76,3.15,3.15,0,0,1,.64,2.11Zm-1-.82a2,2,0,0,0-.41-1.29,1.36,1.36,0,0,0-1.09-.47,1.58,1.58,0,0,0-1.16.49,2.21,2.21,0,0,0-.58,1.27Z" fill="#1e1e1e"/>
      <path d="M261.86,60.55a1.16,1.16,0,0,0-.72-.19,1.21,1.21,0,0,0-1,.58,2.62,2.62,0,0,0-.42,1.58v3.06h-1v-6h1v1.23h0a2,2,0,0,1,.62-1,1.45,1.45,0,0,1,1-.36,1.65,1.65,0,0,1,.57.08Z" fill="#1e1e1e"/>
      <path d="M262.73,65.36v-1a2.88,2.88,0,0,0,1.73.58c.84,0,1.26-.28,1.26-.85a.65.65,0,0,0-.11-.4,1.17,1.17,0,0,0-.29-.3,2.86,2.86,0,0,0-.43-.23l-.54-.21-.7-.32a2,2,0,0,1-.5-.37,1.21,1.21,0,0,1-.31-.46,1.57,1.57,0,0,1-.1-.6,1.44,1.44,0,0,1,.19-.75,1.67,1.67,0,0,1,.52-.54,2.21,2.21,0,0,1,.73-.33,3.07,3.07,0,0,1,.86-.11,3.59,3.59,0,0,1,1.39.26v1a2.71,2.71,0,0,0-1.52-.44,1.53,1.53,0,0,0-.49.07,1.05,1.05,0,0,0-.37.17.78.78,0,0,0-.24.27.64.64,0,0,0-.09.34.8.8,0,0,0,.09.39.83.83,0,0,0,.25.28,1.67,1.67,0,0,0,.4.22l.53.22c.27.1.5.21.72.31a2.16,2.16,0,0,1,.53.37,1.41,1.41,0,0,1,.35.46,1.54,1.54,0,0,1,.12.63,1.45,1.45,0,0,1-.2.77,1.7,1.7,0,0,1-.52.55,2.49,2.49,0,0,1-.76.32,3.7,3.7,0,0,1-.9.11A3.37,3.37,0,0,1,262.73,65.36Z" fill="#1e1e1e"/>
      <path d="M268.56,58.05a.64.64,0,0,1-.44-.17.65.65,0,0,1,0-.9.6.6,0,0,1,.44-.18A.63.63,0,0,1,269,57a.61.61,0,0,1,.18.45.6.6,0,0,1-.18.44A.63.63,0,0,1,268.56,58.05Zm.47,7.53h-1v-6h1Z" fill="#1e1e1e"/>
      <path d="M273.41,65.72a2.79,2.79,0,0,1-2.13-.84,3.12,3.12,0,0,1-.79-2.23,3.23,3.23,0,0,1,.82-2.36,3,3,0,0,1,2.24-.85,2.68,2.68,0,0,1,2.09.82,3.29,3.29,0,0,1,.75,2.29,3.21,3.21,0,0,1-.81,2.3A2.82,2.82,0,0,1,273.41,65.72Zm.07-5.48a1.84,1.84,0,0,0-1.47.63,2.59,2.59,0,0,0-.54,1.74,2.41,2.41,0,0,0,.55,1.68,1.85,1.85,0,0,0,1.46.62,1.74,1.74,0,0,0,1.43-.61,2.62,2.62,0,0,0,.5-1.71,2.71,2.71,0,0,0-.5-1.74A1.77,1.77,0,0,0,273.48,60.24Z" fill="#1e1e1e"/>
      <path d="M282.85,65.58h-1V62.15c0-1.27-.46-1.91-1.39-1.91a1.48,1.48,0,0,0-1.19.55,2,2,0,0,0-.48,1.36v3.43h-1v-6h1v1h0a2.15,2.15,0,0,1,2-1.13,1.83,1.83,0,0,1,1.5.63,2.84,2.84,0,0,1,.52,1.84Z" fill="#1e1e1e"/>
      <path d="M289.07,65.58h-1V57.17h1Z" fill="#1e1e1e"/>
      <path d="M291.15,65.58V57.17h2.32q4.44,0,4.44,4.1a4.14,4.14,0,0,1-1.23,3.13,4.6,4.6,0,0,1-3.3,1.18Zm1-7.52v6.63h1.25A3.55,3.55,0,0,0,296,63.8a3.3,3.3,0,0,0,.92-2.51q0-3.23-3.43-3.23Z" fill="#1e1e1e"/>
      <path d="M299.68,60.75a.63.63,0,0,1-.46-.2.6.6,0,0,1-.19-.46.62.62,0,0,1,.19-.46.65.65,0,0,1,.46-.18.67.67,0,0,1,.47.18.62.62,0,0,1,.19.46.6.6,0,0,1-.19.46A.65.65,0,0,1,299.68,60.75Zm0,5a.65.65,0,0,1-.65-.65.64.64,0,0,1,.19-.47.62.62,0,0,1,.46-.19.65.65,0,0,1,.66.66.62.62,0,0,1-.19.46A.64.64,0,0,1,299.68,65.7Z" fill="#1e1e1e"/>
      <path d="M308.79,59.38a1.76,1.76,0,0,0-.12-.68,1.25,1.25,0,0,0-.33-.47,1.28,1.28,0,0,0-.49-.29,2,2,0,0,0-.61-.09,2,2,0,0,0-.55.07,2.66,2.66,0,0,0-.53.21,3,3,0,0,0-.49.33,3.39,3.39,0,0,0-.44.41v-1a3,3,0,0,1,.9-.6,3.23,3.23,0,0,1,1.23-.21,2.91,2.91,0,0,1,.95.15,2.2,2.2,0,0,1,.76.44,1.93,1.93,0,0,1,.51.71,2.42,2.42,0,0,1,.18,1,3.2,3.2,0,0,1-.11.91,2.75,2.75,0,0,1-.35.76,3,3,0,0,1-.58.68,7.38,7.38,0,0,1-.82.67c-.4.28-.72.52-1,.72a4.34,4.34,0,0,0-.61.56,1.75,1.75,0,0,0-.32.52,1.89,1.89,0,0,0-.09.6h4.19v.87H304.9v-.42a3.38,3.38,0,0,1,.12-1,2.59,2.59,0,0,1,.39-.78,4.3,4.3,0,0,1,.7-.74c.29-.24.65-.52,1.07-.83a6.87,6.87,0,0,0,.77-.63,2.89,2.89,0,0,0,.49-.59,2.19,2.19,0,0,0,.27-.61A2.69,2.69,0,0,0,308.79,59.38Z" fill="#1e1e1e"/>
    </g>
    <g>
      <path d="M251.7,17.71h0v.87h-1V9.69h1v3.94h0a2.25,2.25,0,0,1,2.07-1.19,2.2,2.2,0,0,1,1.81.8,3.31,3.31,0,0,1,.65,2.16,3.71,3.71,0,0,1-.73,2.41,2.43,2.43,0,0,1-2,.91A2,2,0,0,1,251.7,17.71Zm0-2.42v.84a1.81,1.81,0,0,0,.49,1.26,1.72,1.72,0,0,0,2.59-.15,3,3,0,0,0,.5-1.86,2.49,2.49,0,0,0-.46-1.57,1.54,1.54,0,0,0-1.26-.57,1.71,1.71,0,0,0-1.35.59A2.13,2.13,0,0,0,251.67,15.29Z" fill="#1e1e1e"/>
      <path d="M258.69,18.58h-1V9.69h1Z" fill="#1e1e1e"/>
      <path d="M263.08,18.72a2.79,2.79,0,0,1-2.12-.84,3.12,3.12,0,0,1-.79-2.23,3.23,3.23,0,0,1,.82-2.36,3,3,0,0,1,2.23-.85,2.69,2.69,0,0,1,2.1.82,3.29,3.29,0,0,1,.75,2.29,3.21,3.21,0,0,1-.81,2.3A2.84,2.84,0,0,1,263.08,18.72Zm.07-5.48a1.83,1.83,0,0,0-1.46.63,2.59,2.59,0,0,0-.54,1.74,2.41,2.41,0,0,0,.55,1.68,1.83,1.83,0,0,0,1.45.62,1.77,1.77,0,0,0,1.44-.6,2.67,2.67,0,0,0,.5-1.72,2.71,2.71,0,0,0-.5-1.74A1.78,1.78,0,0,0,263.15,13.24Z" fill="#1e1e1e"/>
      <path d="M268.54,17.71h0v.87h-1V9.69h1v3.94h0a2.25,2.25,0,0,1,2.07-1.19,2.2,2.2,0,0,1,1.81.8,3.37,3.37,0,0,1,.65,2.16,3.71,3.71,0,0,1-.73,2.41,2.43,2.43,0,0,1-2,.91A2,2,0,0,1,268.54,17.71Zm0-2.42v.84a1.77,1.77,0,0,0,.49,1.26,1.71,1.71,0,0,0,2.59-.15,3,3,0,0,0,.5-1.86,2.49,2.49,0,0,0-.46-1.57,1.54,1.54,0,0,0-1.26-.57,1.71,1.71,0,0,0-1.35.59A2.13,2.13,0,0,0,268.51,15.29Z" fill="#1e1e1e"/>
      <path d="M274.77,18.71a.63.63,0,0,1-.46-.2.62.62,0,0,1-.19-.46.64.64,0,0,1,.19-.47.62.62,0,0,1,.46-.19.65.65,0,0,1,.66.66.62.62,0,0,1-.19.46A.65.65,0,0,1,274.77,18.71Z" fill="#1e1e1e"/>
      <path d="M279.53,18.52a1.87,1.87,0,0,1-.89.19c-1.06,0-1.58-.59-1.58-1.76V13.4h-1v-.82h1V11.11l1-.31v1.78h1.51v.82H278v3.38a1.37,1.37,0,0,0,.21.86.81.81,0,0,0,.68.26,1,1,0,0,0,.62-.2Z" fill="#1e1e1e"/>
      <path d="M285.52,12.58l-2,3,2,3h-1.12l-1.18-1.95c-.07-.12-.16-.27-.26-.46h0l-.27.46-1.2,1.95h-1.11l2-2.94-1.95-3.06h1.12l1.16,2.05.25.47h0l1.5-2.52Z" fill="#1e1e1e"/>
      <path d="M289.79,18.52a1.94,1.94,0,0,1-.9.19c-1.05,0-1.57-.59-1.57-1.76V13.4h-1v-.82h1V11.11l1-.31v1.78h1.51v.82h-1.51v3.38a1.45,1.45,0,0,0,.2.86.84.84,0,0,0,.68.26,1,1,0,0,0,.63-.2Z" fill="#1e1e1e"/>
    </g>
    <g>
      <path d="M230,100.08h-1.09l-3.1-6.74a.28.28,0,0,1,0-.11.58.58,0,0,1-.05-.14.83.83,0,0,1,0-.15.81.81,0,0,0,0-.11h0l0,.14a1.1,1.1,0,0,1,0,.18,1.11,1.11,0,0,1,0,.17l0,.15-1.4,6.61h-1l1.77-8.41h1.18l3,6.6a.67.67,0,0,1,.06.12l.06.15a1.42,1.42,0,0,1,.05.16,1.12,1.12,0,0,1,.05.13h0s0-.1,0-.17,0-.12,0-.19l0-.2c0-.07,0-.13,0-.17l1.37-6.43h1Z" fill="#1e1e1e"/>
      <path d="M237.65,96.3a5,5,0,0,1-.23,1.51,3.72,3.72,0,0,1-.65,1.25,3,3,0,0,1-1,.85,2.91,2.91,0,0,1-1.37.31,2.52,2.52,0,0,1-.93-.16,2,2,0,0,1-.7-.47,2.16,2.16,0,0,1-.44-.75,2.76,2.76,0,0,1-.16-1,4.89,4.89,0,0,1,.24-1.55,3.94,3.94,0,0,1,.67-1.25,3.07,3.07,0,0,1,1-.83,2.91,2.91,0,0,1,1.32-.3,2.75,2.75,0,0,1,.93.16,1.9,1.9,0,0,1,.7.48,2.06,2.06,0,0,1,.46.74A3,3,0,0,1,237.65,96.3Zm-1,0a2.31,2.31,0,0,0-.09-.67,1.39,1.39,0,0,0-.26-.5,1.24,1.24,0,0,0-.41-.31,1.33,1.33,0,0,0-.54-.11,1.71,1.71,0,0,0-.93.26,2.37,2.37,0,0,0-.71.7,3.37,3.37,0,0,0-.44,1,4.21,4.21,0,0,0-.16,1.12,2,2,0,0,0,.1.66,1.47,1.47,0,0,0,.25.5,1.07,1.07,0,0,0,.41.32,1.26,1.26,0,0,0,.55.11,1.69,1.69,0,0,0,.94-.26,2.19,2.19,0,0,0,.7-.69,3.37,3.37,0,0,0,.44-1A4.28,4.28,0,0,0,236.66,96.34Z" fill="#1e1e1e"/>
      <path d="M246.47,95.27a2.25,2.25,0,0,0-.6-.37,1.92,1.92,0,0,0-.77-.15,1.9,1.9,0,0,0-.73.14,2.08,2.08,0,0,0-.58.38,2.32,2.32,0,0,0-.43.54,3.64,3.64,0,0,0-.3.63,3.89,3.89,0,0,0-.17.65,3.4,3.4,0,0,0-.06.61A1.94,1.94,0,0,0,243.2,99a1.25,1.25,0,0,0,1,.43,2.11,2.11,0,0,0,.8-.16,4,4,0,0,0,.79-.41l-.21,1a3.84,3.84,0,0,1-.76.32,2.58,2.58,0,0,1-.8.11,2.33,2.33,0,0,1-.95-.18,2,2,0,0,1-.68-.52,2.22,2.22,0,0,1-.4-.78,3.29,3.29,0,0,1-.14-1,4.57,4.57,0,0,1,.1-1,4.76,4.76,0,0,1,.3-.9,4.27,4.27,0,0,1,.48-.79,3,3,0,0,1,.66-.62,3.21,3.21,0,0,1,.83-.41,3.12,3.12,0,0,1,1-.15,2.45,2.45,0,0,1,.48,0,2.26,2.26,0,0,1,.41.09,2.2,2.2,0,0,1,.34.13.82.82,0,0,1,.23.13Z" fill="#1e1e1e"/>
      <path d="M251.88,98.37c0,.15-.07.31-.1.48l-.09.47c0,.15-.05.3-.07.43s0,.24,0,.33h-.94c0-.16,0-.31.07-.48s0-.32.07-.46.05-.32.08-.48h0a5.32,5.32,0,0,1-.45.61,4.12,4.12,0,0,1-.54.49,2.21,2.21,0,0,1-.62.34,1.89,1.89,0,0,1-.67.12,1.76,1.76,0,0,1-.68-.12,1.37,1.37,0,0,1-.48-.33,1.4,1.4,0,0,1-.29-.52,2.11,2.11,0,0,1-.1-.68c0-.06,0-.13,0-.23l.06-.33.06-.35.07-.3.69-3.28h1l-.75,3.51a2.25,2.25,0,0,1,0,.22c0,.08,0,.16,0,.25l0,.22a1,1,0,0,0,0,.16,1.06,1.06,0,0,0,.21.7.76.76,0,0,0,.64.26,1.37,1.37,0,0,0,.52-.1,2.32,2.32,0,0,0,.5-.29,3.47,3.47,0,0,0,.46-.41,4.91,4.91,0,0,0,.39-.51,3.2,3.2,0,0,0,.3-.54,3.42,3.42,0,0,0,.18-.54l.63-2.93h1Z" fill="#1e1e1e"/>
      <path d="M257.49,95.1h0a1.4,1.4,0,0,0-.3-.14,1.07,1.07,0,0,0-1,.15,2.42,2.42,0,0,0-.57.58,4,4,0,0,0-.44.82,5.5,5.5,0,0,0-.3.95l-.56,2.62h-1l.84-4c0-.16.07-.33.11-.51l.09-.54c0-.18.06-.35.08-.52a4,4,0,0,0,.05-.44h.95c0,.11,0,.24,0,.37s0,.26,0,.38,0,.23-.05.33,0,.18,0,.24h0a4.93,4.93,0,0,1,.38-.61,2.63,2.63,0,0,1,.41-.46,1.57,1.57,0,0,1,.45-.29,1.27,1.27,0,0,1,.52-.11,1.84,1.84,0,0,1,.33,0l.29.07Z" fill="#1e1e1e"/>
      <path d="M261.67,95.1h0a1.29,1.29,0,0,0-.31-.14,1,1,0,0,0-.38-.07,1.11,1.11,0,0,0-.65.22,2.59,2.59,0,0,0-.56.58,4.57,4.57,0,0,0-.45.82,6.49,6.49,0,0,0-.29.95l-.56,2.62h-1l.85-4c0-.16.07-.33.1-.51s.07-.36.1-.54.06-.35.08-.52,0-.31.05-.44h.95c0,.11,0,.24,0,.37s0,.26-.05.38,0,.23,0,.33,0,.18,0,.24h0a6.48,6.48,0,0,1,.39-.61,2.59,2.59,0,0,1,.4-.46,1.77,1.77,0,0,1,.46-.29,1.27,1.27,0,0,1,.52-.11,1.66,1.66,0,0,1,.32,0l.29.07Z" fill="#1e1e1e"/>
      <path d="M267,95.48a1.66,1.66,0,0,1-.91,1.54,4.54,4.54,0,0,1-1.28.43,11,11,0,0,1-2,.15.66.66,0,0,0,0,.14v.12a2.21,2.21,0,0,0,.08.59,1.3,1.3,0,0,0,.28.5,1.25,1.25,0,0,0,.47.33,1.78,1.78,0,0,0,.69.12,3.07,3.07,0,0,0,.89-.15,4.09,4.09,0,0,0,.92-.44l-.18.94a3.43,3.43,0,0,1-.77.33,3.14,3.14,0,0,1-1,.14,2.62,2.62,0,0,1-1.11-.2,2,2,0,0,1-.73-.55,2.2,2.2,0,0,1-.41-.79,3.61,3.61,0,0,1-.12-.94,4.31,4.31,0,0,1,.12-1,4.47,4.47,0,0,1,.33-.91,3.68,3.68,0,0,1,.51-.77,3.33,3.33,0,0,1,.66-.59,3.12,3.12,0,0,1,.78-.38,2.83,2.83,0,0,1,.87-.14,2.51,2.51,0,0,1,.81.12,1.76,1.76,0,0,1,.59.34,1.36,1.36,0,0,1,.36.5A1.31,1.31,0,0,1,267,95.48Zm-1,0a.66.66,0,0,0-.27-.57,1.19,1.19,0,0,0-.73-.21,1.52,1.52,0,0,0-.69.16,2.08,2.08,0,0,0-.61.42,2.92,2.92,0,0,0-.49.65,3,3,0,0,0-.3.82,11.55,11.55,0,0,0,1.43-.08,3.81,3.81,0,0,0,.95-.25,1.31,1.31,0,0,0,.54-.4A.94.94,0,0,0,266,95.53Z" fill="#1e1e1e"/>
      <path d="M273.28,95.58c0,.06,0,.14,0,.24s0,.21-.05.33,0,.23-.07.34,0,.22-.06.3l-.7,3.29h-1l.73-3.52c0-.06,0-.13.05-.22a2,2,0,0,0,0-.24l0-.23a1,1,0,0,0,0-.16,1.06,1.06,0,0,0-.21-.7.79.79,0,0,0-.64-.26,1.49,1.49,0,0,0-.76.23,3.23,3.23,0,0,0-.71.58,3.85,3.85,0,0,0-.55.77,3,3,0,0,0-.32.82l-.62,2.93h-1l.92-4.29.09-.47q.06-.25.09-.48c0-.16.05-.3.07-.43s0-.25,0-.33h.94c0,.15,0,.31-.07.47s-.05.32-.07.46-.05.33-.08.49h0a4.64,4.64,0,0,1,.46-.61,2.84,2.84,0,0,1,.54-.5,3.05,3.05,0,0,1,.61-.34,2,2,0,0,1,.69-.12,1.76,1.76,0,0,1,.68.12,1.27,1.27,0,0,1,.48.34,1.31,1.31,0,0,1,.28.52A2.31,2.31,0,0,1,273.28,95.58Z" fill="#1e1e1e"/>
      <path d="M277.77,94.89h-1.51l-.68,3.18c0,.12,0,.26-.07.4a2.47,2.47,0,0,0,0,.34.6.6,0,0,0,.13.43.62.62,0,0,0,.42.13l.18,0,.23,0,.23-.08.2-.08-.18.84a2.48,2.48,0,0,1-.46.15,2.27,2.27,0,0,1-.5.06,1.91,1.91,0,0,1-.57-.08,1,1,0,0,1-.38-.25,1,1,0,0,1-.22-.38,2,2,0,0,1-.06-.51,3,3,0,0,1,0-.39,3.73,3.73,0,0,1,.08-.41l.69-3.27h-1l.18-.81h1l.31-1.47.18,0,.34-.1.34-.11.17,0-.37,1.78H278Z" fill="#1e1e1e"/>
      <path d="M283.47,100.08h-.81l-1-6h1l.53,3.78c0,.07,0,.15,0,.25l0,.29a2.64,2.64,0,0,1,0,.28c0,.1,0,.18,0,.25h0l.11-.24a1.74,1.74,0,0,1,.14-.27l.15-.29q.07-.15.15-.27L286,94.08h1.1Z" fill="#1e1e1e"/>
      <path d="M292,95.48a1.71,1.71,0,0,1-.22.87,1.78,1.78,0,0,1-.69.67,4.62,4.62,0,0,1-1.29.43,10.77,10.77,0,0,1-2,.15.68.68,0,0,0,0,.14v.12a1.87,1.87,0,0,0,.09.59,1.42,1.42,0,0,0,.27.5,1.37,1.37,0,0,0,.48.33,1.78,1.78,0,0,0,.69.12,3,3,0,0,0,.88-.15,4.16,4.16,0,0,0,.93-.44l-.18.94a3.43,3.43,0,0,1-.77.33,3.14,3.14,0,0,1-1,.14,2.62,2.62,0,0,1-1.11-.2,2,2,0,0,1-.74-.55,2.19,2.19,0,0,1-.4-.79,3.61,3.61,0,0,1-.12-.94,4.31,4.31,0,0,1,.12-1,4,4,0,0,1,.33-.91,3.68,3.68,0,0,1,.51-.77,3.33,3.33,0,0,1,.66-.59,3,3,0,0,1,1.64-.52,2.57,2.57,0,0,1,.82.12,1.87,1.87,0,0,1,.59.34,1.36,1.36,0,0,1,.36.5A1.45,1.45,0,0,1,292,95.48Zm-1,0a.64.64,0,0,0-.28-.57,1.14,1.14,0,0,0-.72-.21,1.52,1.52,0,0,0-.69.16,2.27,2.27,0,0,0-.62.42,2.88,2.88,0,0,0-.48.65,3,3,0,0,0-.3.82,11.26,11.26,0,0,0,1.42-.08,3.9,3.9,0,0,0,1-.25,1.46,1.46,0,0,0,.54-.4A.94.94,0,0,0,291,95.53Z" fill="#1e1e1e"/>
      <path d="M296.66,95.1h0a1.29,1.29,0,0,0-.31-.14,1,1,0,0,0-.37-.07,1.06,1.06,0,0,0-.65.22,2.42,2.42,0,0,0-.57.58,4,4,0,0,0-.44.82,5.5,5.5,0,0,0-.3.95l-.56,2.62h-1l.84-4c0-.16.07-.33.11-.51l.09-.54c0-.18.06-.35.08-.52s0-.31.05-.44h.95c0,.11,0,.24,0,.37s0,.26-.05.38,0,.23,0,.33,0,.18,0,.24h0a4.93,4.93,0,0,1,.38-.61,3.07,3.07,0,0,1,.4-.46,1.77,1.77,0,0,1,.46-.29,1.27,1.27,0,0,1,.52-.11,1.84,1.84,0,0,1,.33,0l.29.07Z" fill="#1e1e1e"/>
      <path d="M300.78,95.13a2.46,2.46,0,0,0-.59-.27,2.16,2.16,0,0,0-.65-.11,1.3,1.3,0,0,0-.86.25.83.83,0,0,0-.3.67.78.78,0,0,0,.06.31.84.84,0,0,0,.16.27,1.39,1.39,0,0,0,.28.24l.38.25a3.15,3.15,0,0,1,.95.79,1.49,1.49,0,0,1,.29.9,2,2,0,0,1-.13.67,1.56,1.56,0,0,1-.4.57,1.94,1.94,0,0,1-.71.4,3.32,3.32,0,0,1-1.07.15,2.62,2.62,0,0,1-.38,0l-.43-.07L297,100a2.16,2.16,0,0,1-.34-.16l.19-.91a2.52,2.52,0,0,0,.29.16l.38.15.42.1a2.18,2.18,0,0,0,.44,0,1.33,1.33,0,0,0,.87-.23.77.77,0,0,0,.29-.65.82.82,0,0,0,0-.28.73.73,0,0,0-.16-.26,1.51,1.51,0,0,0-.29-.26,4.64,4.64,0,0,0-.46-.3,2.83,2.83,0,0,1-.88-.76,1.47,1.47,0,0,1-.28-.89,1.8,1.8,0,0,1,.13-.69,1.67,1.67,0,0,1,.4-.59,2,2,0,0,1,.67-.41,2.75,2.75,0,0,1,.95-.15,4.17,4.17,0,0,1,.8.08,3.7,3.7,0,0,1,.64.21Z" fill="#1e1e1e"/>
      <path d="M303.49,100.05l-.33.08a2.31,2.31,0,0,1-.37,0,1.17,1.17,0,0,1-.88-.3,1,1,0,0,1-.29-.79c0-.1,0-.21,0-.35s.06-.29.1-.49l.87-4.15h1l-.87,4.17c0,.17-.06.3-.08.39s0,.16,0,.22a.52.52,0,0,0,.13.37.62.62,0,0,0,.42.13l.27,0,.21,0Zm.69-8.11a.64.64,0,0,1-.18.45.62.62,0,0,1-.45.19.58.58,0,0,1-.44-.19.58.58,0,0,1-.19-.45.55.55,0,0,1,.19-.44.64.64,0,0,1,.44-.17.62.62,0,0,1,.44.17A.56.56,0,0,1,304.18,91.94Z" fill="#1e1e1e"/>
      <path d="M310,96.3a5,5,0,0,1-.22,1.51,3.93,3.93,0,0,1-.66,1.25,3,3,0,0,1-1,.85,2.9,2.9,0,0,1-1.36.31,2.45,2.45,0,0,1-.93-.16,2,2,0,0,1-.71-.47,2.16,2.16,0,0,1-.44-.75,2.76,2.76,0,0,1-.16-1,4.89,4.89,0,0,1,.24-1.55,3.94,3.94,0,0,1,.67-1.25,3.17,3.17,0,0,1,1-.83,2.92,2.92,0,0,1,1.33-.3,2.69,2.69,0,0,1,.92.16,2,2,0,0,1,.71.48,2.19,2.19,0,0,1,.45.74A2.78,2.78,0,0,1,310,96.3Zm-1,0a2,2,0,0,0-.1-.67,1.39,1.39,0,0,0-.26-.5,1.14,1.14,0,0,0-.41-.31,1.33,1.33,0,0,0-.54-.11,1.76,1.76,0,0,0-.93.26,2.49,2.49,0,0,0-.71.7,3.65,3.65,0,0,0-.44,1,4.2,4.2,0,0,0-.15,1.12,2.29,2.29,0,0,0,.09.66,1.32,1.32,0,0,0,.26.5,1,1,0,0,0,.41.32,1.19,1.19,0,0,0,.54.11,1.69,1.69,0,0,0,.94-.26,2.19,2.19,0,0,0,.7-.69,3.12,3.12,0,0,0,.44-1A3.91,3.91,0,0,0,309,96.34Z" fill="#1e1e1e"/>
      <path d="M316.5,95.58a1.15,1.15,0,0,1,0,.24c0,.1,0,.21-.05.33l-.06.34-.07.3-.69,3.29h-1l.74-3.52c0-.06,0-.13,0-.22a2,2,0,0,0,0-.24,1,1,0,0,0,0-.23,1.37,1.37,0,0,0,0-.16,1.07,1.07,0,0,0-.22-.7.77.77,0,0,0-.63-.26,1.49,1.49,0,0,0-.77.23,3.23,3.23,0,0,0-.71.58,4.29,4.29,0,0,0-.55.77,3,3,0,0,0-.31.82l-.63,2.93h-1l.92-4.29c0-.15.07-.31.1-.47s.06-.33.09-.48.05-.3.07-.43,0-.25,0-.33h.94c0,.15,0,.31-.07.47s-.05.32-.07.46-.05.33-.08.49h0a3.84,3.84,0,0,1,.45-.61,3.6,3.6,0,0,1,.54-.5,2.87,2.87,0,0,1,.62-.34,1.91,1.91,0,0,1,.68-.12,1.76,1.76,0,0,1,.68.12,1.27,1.27,0,0,1,.48.34,1.31,1.31,0,0,1,.28.52A2.31,2.31,0,0,1,316.5,95.58Z" fill="#1e1e1e"/>
    </g>
    <g>
      <path d="M150.5,110.52v-8.4h2.32q4.44,0,4.44,4.09a4.14,4.14,0,0,1-1.23,3.13,4.57,4.57,0,0,1-3.3,1.18Zm1-7.51v6.62h1.26a3.55,3.55,0,0,0,2.57-.88,3.34,3.34,0,0,0,.92-2.51c0-2.15-1.15-3.23-3.43-3.23Z" fill="#1e1e1e"/>
      <path d="M163.59,107.76h-4.23a2.19,2.19,0,0,0,.54,1.55,1.85,1.85,0,0,0,1.41.54,3,3,0,0,0,1.87-.66v.9a3.53,3.53,0,0,1-2.1.57,2.51,2.51,0,0,1-2-.82,3.83,3.83,0,0,1,.06-4.58,2.55,2.55,0,0,1,2-.88,2.25,2.25,0,0,1,1.82.76,3.19,3.19,0,0,1,.64,2.12Zm-1-.81a2,2,0,0,0-.4-1.3,1.37,1.37,0,0,0-1.1-.46,1.56,1.56,0,0,0-1.16.49,2.18,2.18,0,0,0-.58,1.27Z" fill="#1e1e1e"/>
      <path d="M166,110.52h-1v-8.88h1Z" fill="#1e1e1e"/>
      <path d="M172.73,107.76h-4.24a2.28,2.28,0,0,0,.54,1.55,1.88,1.88,0,0,0,1.42.54,2.94,2.94,0,0,0,1.86-.66v.9a3.47,3.47,0,0,1-2.09.57,2.53,2.53,0,0,1-2-.82,3.35,3.35,0,0,1-.72-2.3,3.28,3.28,0,0,1,.79-2.28,2.54,2.54,0,0,1,2-.88,2.22,2.22,0,0,1,1.82.76,3.2,3.2,0,0,1,.65,2.12Zm-1-.81a2,2,0,0,0-.41-1.3,1.35,1.35,0,0,0-1.09-.46,1.54,1.54,0,0,0-1.16.49,2.19,2.19,0,0,0-.59,1.27Z" fill="#1e1e1e"/>
      <path d="M177,110.46a1.82,1.82,0,0,1-.9.19c-1.05,0-1.57-.59-1.57-1.76v-3.55h-1v-.82h1v-1.46l1-.31v1.77H177v.82h-1.51v3.38a1.45,1.45,0,0,0,.2.86.81.81,0,0,0,.68.26,1,1,0,0,0,.63-.2Z" fill="#1e1e1e"/>
      <path d="M183,107.76h-4.23a2.19,2.19,0,0,0,.54,1.55,1.85,1.85,0,0,0,1.41.54,3,3,0,0,0,1.87-.66v.9a3.52,3.52,0,0,1-2.09.57,2.52,2.52,0,0,1-2-.82,3.83,3.83,0,0,1,.06-4.58,2.55,2.55,0,0,1,2-.88,2.25,2.25,0,0,1,1.82.76,3.19,3.19,0,0,1,.64,2.12Zm-1-.81a2,2,0,0,0-.4-1.3,1.37,1.37,0,0,0-1.1-.46,1.56,1.56,0,0,0-1.16.49,2.18,2.18,0,0,0-.58,1.27Z" fill="#1e1e1e"/>
      <path d="M147.29,124.86a1.76,1.76,0,0,1-.89.19c-1.05,0-1.58-.59-1.58-1.76v-3.55h-1v-.82h1v-1.46l1-.31v1.77h1.51v.82h-1.51v3.38a1.35,1.35,0,0,0,.21.86.78.78,0,0,0,.68.26.94.94,0,0,0,.62-.2Z" fill="#1e1e1e"/>
      <path d="M153.47,124.92h-1v-3.46c0-1.25-.47-1.87-1.4-1.87a1.51,1.51,0,0,0-1.18.54,2,2,0,0,0-.48,1.39v3.4h-1V116h1v3.88h0a2.18,2.18,0,0,1,2-1.14c1.35,0,2,.82,2,2.44Z" fill="#1e1e1e"/>
      <path d="M155.69,117.4a.6.6,0,0,1-.44-.18.57.57,0,0,1-.18-.44.61.61,0,0,1,.18-.45.6.6,0,0,1,.44-.18.62.62,0,0,1,.63.63.6.6,0,0,1-.18.44A.61.61,0,0,1,155.69,117.4Zm.47,7.52h-1v-6h1Z" fill="#1e1e1e"/>
      <path d="M157.64,124.7v-1a2.84,2.84,0,0,0,1.73.58c.84,0,1.27-.28,1.27-.84a.76.76,0,0,0-.11-.41.93.93,0,0,0-.3-.29,1.59,1.59,0,0,0-.43-.23l-.54-.22a6.6,6.6,0,0,1-.7-.32,2.47,2.47,0,0,1-.5-.36,1.35,1.35,0,0,1-.3-.46,1.57,1.57,0,0,1-.11-.6,1.42,1.42,0,0,1,.2-.75,1.78,1.78,0,0,1,.51-.55,2.77,2.77,0,0,1,.74-.33,3.56,3.56,0,0,1,2.24.16v1a2.68,2.68,0,0,0-1.52-.43,1.88,1.88,0,0,0-.49.06,1.4,1.4,0,0,0-.37.17,1,1,0,0,0-.24.27.77.77,0,0,0-.08.34,1,1,0,0,0,.08.4.94.94,0,0,0,.25.28,2.11,2.11,0,0,0,.4.22l.53.22a6.21,6.21,0,0,1,.72.31,2.82,2.82,0,0,1,.54.36,1.41,1.41,0,0,1,.34.47,1.64,1.64,0,0,1-.08,1.4,1.58,1.58,0,0,1-.52.54,2.28,2.28,0,0,1-.76.33,3.68,3.68,0,0,1-.89.1A3.39,3.39,0,0,1,157.64,124.7Z" fill="#1e1e1e"/>
      <path d="M167.37,124.05h0v.87h-1V116h1V120h0a2.26,2.26,0,0,1,2.07-1.2,2.2,2.2,0,0,1,1.81.81,3.28,3.28,0,0,1,.65,2.16,3.72,3.72,0,0,1-.73,2.41,2.45,2.45,0,0,1-2,.9A2,2,0,0,1,167.37,124.05Zm0-2.42v.84a1.82,1.82,0,0,0,.49,1.27,1.73,1.73,0,0,0,2.59-.15,3.09,3.09,0,0,0,.5-1.86,2.47,2.47,0,0,0-.46-1.57,1.54,1.54,0,0,0-1.26-.57,1.7,1.7,0,0,0-1.35.58A2.15,2.15,0,0,0,167.34,121.63Z" fill="#1e1e1e"/>
      <path d="M174.36,124.92h-1V116h1Z" fill="#1e1e1e"/>
      <path d="M178.75,125.06a2.79,2.79,0,0,1-2.12-.84,3.1,3.1,0,0,1-.79-2.23,3.24,3.24,0,0,1,.82-2.36,3,3,0,0,1,2.23-.85,2.7,2.7,0,0,1,2.1.83,3.27,3.27,0,0,1,.75,2.29,3.23,3.23,0,0,1-.81,2.3A2.87,2.87,0,0,1,178.75,125.06Zm.07-5.47a1.83,1.83,0,0,0-1.46.63,2.59,2.59,0,0,0-.54,1.74,2.41,2.41,0,0,0,.55,1.68,1.82,1.82,0,0,0,1.45.61,1.77,1.77,0,0,0,1.44-.6,2.63,2.63,0,0,0,.5-1.72,2.68,2.68,0,0,0-.5-1.73A1.75,1.75,0,0,0,178.82,119.59Z" fill="#1e1e1e"/>
      <path d="M184.21,124.05h0v.87h-1V116h1V120h0a2.26,2.26,0,0,1,2.07-1.2,2.2,2.2,0,0,1,1.81.81,3.33,3.33,0,0,1,.65,2.16,3.72,3.72,0,0,1-.73,2.41,2.46,2.46,0,0,1-2,.9A1.94,1.94,0,0,1,184.21,124.05Zm0-2.42v.84a1.77,1.77,0,0,0,.49,1.27,1.73,1.73,0,0,0,2.59-.15,3.09,3.09,0,0,0,.5-1.86,2.41,2.41,0,0,0-.47-1.57,1.51,1.51,0,0,0-1.25-.57,1.7,1.7,0,0,0-1.35.58A2.15,2.15,0,0,0,184.18,121.63Z" fill="#1e1e1e"/>
    </g>
    <g>
      <path d="M45.24,137.77a4.89,4.89,0,0,1-2.32.49,3.74,3.74,0,0,1-2.87-1.15,4.26,4.26,0,0,1-1.08-3,4.51,4.51,0,0,1,1.21-3.26,4.12,4.12,0,0,1,3.08-1.24,4.75,4.75,0,0,1,2,.35v1a4.05,4.05,0,0,0-2-.5,3,3,0,0,0-2.35,1A3.62,3.62,0,0,0,40,134a3.49,3.49,0,0,0,.84,2.45,2.89,2.89,0,0,0,2.21.91,4.2,4.2,0,0,0,2.19-.56Z" fill="#1e1e1e"/>
      <path d="M51.45,138.12h-1v-1h0a2,2,0,0,1-1.85,1.09c-1.43,0-2.15-.85-2.15-2.55v-3.59h1v3.44c0,1.26.48,1.89,1.45,1.89a1.5,1.5,0,0,0,1.16-.51,2,2,0,0,0,.45-1.36v-3.46h1Z" fill="#1e1e1e"/>
      <path d="M56.4,133.1a1.18,1.18,0,0,0-.73-.2,1.25,1.25,0,0,0-1,.58,2.74,2.74,0,0,0-.41,1.58v3.06h-1v-6h1v1.24h0a2.17,2.17,0,0,1,.63-1,1.44,1.44,0,0,1,.94-.35,1.52,1.52,0,0,1,.58.08Z" fill="#1e1e1e"/>
      <path d="M60.6,133.1a1.18,1.18,0,0,0-.73-.2,1.25,1.25,0,0,0-1,.58,2.74,2.74,0,0,0-.41,1.58v3.06h-1v-6h1v1.24h0a2.08,2.08,0,0,1,.62-1,1.47,1.47,0,0,1,1-.35,1.44,1.44,0,0,1,.57.08Z" fill="#1e1e1e"/>
      <path d="M66.48,135.36H62.24a2.28,2.28,0,0,0,.54,1.55,1.87,1.87,0,0,0,1.42.54,3,3,0,0,0,1.86-.66v.9a3.5,3.5,0,0,1-2.09.57,2.56,2.56,0,0,1-2-.81,3.39,3.39,0,0,1-.72-2.3,3.29,3.29,0,0,1,.79-2.29,2.58,2.58,0,0,1,2-.88,2.27,2.27,0,0,1,1.82.76,3.2,3.2,0,0,1,.65,2.12Zm-1-.81a1.91,1.91,0,0,0-.4-1.3,1.36,1.36,0,0,0-1.1-.46,1.54,1.54,0,0,0-1.15.49,2.19,2.19,0,0,0-.59,1.27Z" fill="#1e1e1e"/>
      <path d="M72.91,138.12H72V134.7c0-1.27-.46-1.91-1.39-1.91a1.54,1.54,0,0,0-1.2.54,2,2,0,0,0-.47,1.37v3.42h-1v-6h1v1h0a2.15,2.15,0,0,1,2-1.14,1.83,1.83,0,0,1,1.51.64,2.79,2.79,0,0,1,.52,1.83Z" fill="#1e1e1e"/>
      <path d="M77.4,138.06a1.76,1.76,0,0,1-.89.19c-1.05,0-1.58-.58-1.58-1.76v-3.55h-1v-.82h1v-1.46l1-.31v1.77H77.4v.82H75.89v3.38a1.35,1.35,0,0,0,.21.86.78.78,0,0,0,.68.26.94.94,0,0,0,.62-.2Z" fill="#1e1e1e"/>
      <path d="M86.69,132.12l-2.39,6h-.94l-2.28-6h1.06l1.52,4.36a4.27,4.27,0,0,1,.21.84h0a3.72,3.72,0,0,1,.18-.81l1.6-4.39Z" fill="#1e1e1e"/>
      <path d="M92.39,135.36H88.16a2.19,2.19,0,0,0,.54,1.55,1.85,1.85,0,0,0,1.41.54,3,3,0,0,0,1.87-.66v.9a3.53,3.53,0,0,1-2.1.57,2.53,2.53,0,0,1-2-.81,3.34,3.34,0,0,1-.73-2.3,3.29,3.29,0,0,1,.79-2.29,2.58,2.58,0,0,1,2-.88,2.28,2.28,0,0,1,1.82.76,3.19,3.19,0,0,1,.64,2.12Zm-1-.81a2,2,0,0,0-.4-1.3,1.37,1.37,0,0,0-1.1-.46,1.56,1.56,0,0,0-1.16.49,2.18,2.18,0,0,0-.58,1.27Z" fill="#1e1e1e"/>
      <path d="M97,133.1a1.14,1.14,0,0,0-.72-.2,1.25,1.25,0,0,0-1,.58,2.67,2.67,0,0,0-.41,1.58v3.06h-1v-6h1v1.24h0a2.17,2.17,0,0,1,.63-1A1.61,1.61,0,0,1,97,132.1Z" fill="#1e1e1e"/>
      <path d="M97.84,137.91v-1a2.84,2.84,0,0,0,1.73.58c.84,0,1.27-.28,1.27-.84a.76.76,0,0,0-.11-.41.93.93,0,0,0-.3-.29,1.59,1.59,0,0,0-.43-.23l-.54-.22a6.6,6.6,0,0,1-.7-.32,2.14,2.14,0,0,1-.5-.36,1.35,1.35,0,0,1-.3-.46,1.57,1.57,0,0,1-.11-.6,1.42,1.42,0,0,1,.2-.75,1.78,1.78,0,0,1,.51-.55,2.77,2.77,0,0,1,.74-.33,3.56,3.56,0,0,1,2.24.16v1a2.68,2.68,0,0,0-1.52-.43,1.75,1.75,0,0,0-.48.06,1.33,1.33,0,0,0-.38.17,1,1,0,0,0-.24.27.77.77,0,0,0-.08.34,1,1,0,0,0,.08.4.94.94,0,0,0,.25.28,2.11,2.11,0,0,0,.4.22l.53.22a6.21,6.21,0,0,1,.72.31,2.82,2.82,0,0,1,.54.36,1.41,1.41,0,0,1,.34.47,1.64,1.64,0,0,1-.08,1.4,1.7,1.7,0,0,1-.52.55,2.49,2.49,0,0,1-.76.32,3.68,3.68,0,0,1-.89.1A3.51,3.51,0,0,1,97.84,137.91Z" fill="#1e1e1e"/>
      <path d="M103.67,130.6a.6.6,0,0,1-.44-.18.57.57,0,0,1-.18-.44.61.61,0,0,1,.18-.45.6.6,0,0,1,.44-.18.61.61,0,0,1,.45.18.62.62,0,0,1,0,.89A.61.61,0,0,1,103.67,130.6Zm.47,7.52h-1v-6h1Z" fill="#1e1e1e"/>
      <path d="M108.52,138.26a2.79,2.79,0,0,1-2.13-.84,3.1,3.1,0,0,1-.79-2.23,3.25,3.25,0,0,1,.83-2.36,3,3,0,0,1,2.23-.85,2.69,2.69,0,0,1,2.09.83,3.28,3.28,0,0,1,.76,2.29,3.19,3.19,0,0,1-.82,2.3A2.81,2.81,0,0,1,108.52,138.26Zm.07-5.47a1.84,1.84,0,0,0-1.47.63,2.59,2.59,0,0,0-.54,1.74,2.46,2.46,0,0,0,.55,1.68,1.85,1.85,0,0,0,1.46.61,1.75,1.75,0,0,0,1.43-.6,2.63,2.63,0,0,0,.5-1.72,2.68,2.68,0,0,0-.5-1.73A1.73,1.73,0,0,0,108.59,132.79Z" fill="#1e1e1e"/>
      <path d="M118,138.12h-1V134.7c0-1.27-.47-1.91-1.4-1.91a1.5,1.5,0,0,0-1.19.54,2,2,0,0,0-.47,1.37v3.42h-1v-6h1v1h0a2.16,2.16,0,0,1,2-1.14,1.83,1.83,0,0,1,1.51.64,2.85,2.85,0,0,1,.52,1.83Z" fill="#1e1e1e"/>
    </g>
    <g>
      <path d="M40.51,154.33v3.18h-1v-8.4h2.31a3,3,0,0,1,2.09.65,2.37,2.37,0,0,1,.74,1.85,2.54,2.54,0,0,1-.82,2,3.14,3.14,0,0,1-2.23.76Zm0-4.33v3.44h1a2.28,2.28,0,0,0,1.55-.46,1.65,1.65,0,0,0,.54-1.32c0-1.11-.66-1.66-2-1.66Z" fill="#1e1e1e"/>
      <path d="M49.07,152.48a1.18,1.18,0,0,0-.73-.19,1.23,1.23,0,0,0-1,.58,2.7,2.7,0,0,0-.41,1.58v3.06h-1v-6h1v1.23h0a2.09,2.09,0,0,1,.63-1,1.42,1.42,0,0,1,.94-.36,1.71,1.71,0,0,1,.58.08Z" fill="#1e1e1e"/>
      <path d="M55,154.75H50.71a2.3,2.3,0,0,0,.54,1.55,1.87,1.87,0,0,0,1.42.54,2.93,2.93,0,0,0,1.86-.67v.9a3.43,3.43,0,0,1-2.09.58,2.52,2.52,0,0,1-2-.82,3.36,3.36,0,0,1-.73-2.3,3.29,3.29,0,0,1,.8-2.28,2.53,2.53,0,0,1,2-.88,2.25,2.25,0,0,1,1.82.76,3.17,3.17,0,0,1,.65,2.11Zm-1-.82a2,2,0,0,0-.4-1.29,1.36,1.36,0,0,0-1.1-.46,1.55,1.55,0,0,0-1.15.48,2.25,2.25,0,0,0-.59,1.27Z" fill="#1e1e1e"/>
      <path d="M61.07,151.51l-2.39,6h-.94l-2.27-6h1.05L58,155.87a3.75,3.75,0,0,1,.22.84h0a3.66,3.66,0,0,1,.19-.82l1.59-4.38Z" fill="#1e1e1e"/>
      <path d="M62.64,150a.6.6,0,0,1-.44-.17.61.61,0,0,1-.18-.45.57.57,0,0,1,.18-.44.6.6,0,0,1,.44-.18.64.64,0,0,1,.45.18.57.57,0,0,1,.18.44.59.59,0,0,1-.18.44A.64.64,0,0,1,62.64,150Zm.47,7.53h-1v-6h1Z" fill="#1e1e1e"/>
      <path d="M67.48,157.65a2.79,2.79,0,0,1-2.12-.84,3.12,3.12,0,0,1-.79-2.23,3.23,3.23,0,0,1,.82-2.36,3,3,0,0,1,2.23-.85,2.69,2.69,0,0,1,2.1.82,3.29,3.29,0,0,1,.75,2.29,3.21,3.21,0,0,1-.81,2.3A2.84,2.84,0,0,1,67.48,157.65Zm.07-5.47a1.83,1.83,0,0,0-1.46.63,2.58,2.58,0,0,0-.54,1.73,2.5,2.5,0,0,0,.54,1.69,1.86,1.86,0,0,0,1.46.61,1.79,1.79,0,0,0,1.44-.6,3.23,3.23,0,0,0,0-3.45A1.76,1.76,0,0,0,67.55,152.18Z" fill="#1e1e1e"/>
      <path d="M76.83,157.51h-1v-.95h0A2,2,0,0,1,74,157.65c-1.43,0-2.15-.85-2.15-2.56v-3.58h1v3.43c0,1.27.48,1.9,1.45,1.9a1.47,1.47,0,0,0,1.16-.52,2,2,0,0,0,.45-1.35v-3.46h1Z" fill="#1e1e1e"/>
      <path d="M78.35,157.29v-1a2.84,2.84,0,0,0,1.73.58c.85,0,1.27-.28,1.27-.84a.76.76,0,0,0-.11-.41,1.17,1.17,0,0,0-.29-.3,3,3,0,0,0-.44-.23l-.53-.21a6.76,6.76,0,0,1-.7-.32,2.55,2.55,0,0,1-.51-.36,1.52,1.52,0,0,1-.3-.46,1.66,1.66,0,0,1-.1-.61,1.44,1.44,0,0,1,.19-.75,1.87,1.87,0,0,1,.51-.54,2.26,2.26,0,0,1,.74-.33,3,3,0,0,1,.85-.11,3.46,3.46,0,0,1,1.4.27v1a2.71,2.71,0,0,0-1.53-.43,1.75,1.75,0,0,0-.48.06,1.33,1.33,0,0,0-.38.17.78.78,0,0,0-.24.27.74.74,0,0,0-.08.34.87.87,0,0,0,.08.39.83.83,0,0,0,.25.28,1.91,1.91,0,0,0,.4.23l.54.21a6.81,6.81,0,0,1,.71.32,2.42,2.42,0,0,1,.54.36,1.32,1.32,0,0,1,.34.47,1.46,1.46,0,0,1,.12.62,1.5,1.5,0,0,1-.19.78,1.82,1.82,0,0,1-.53.54,2.3,2.3,0,0,1-.75.32,3.82,3.82,0,0,1-.9.11A3.41,3.41,0,0,1,78.35,157.29Z" fill="#1e1e1e"/>
      <path d="M91.81,151.51l-2.39,6h-.94l-2.27-6h1.05l1.52,4.36a3.21,3.21,0,0,1,.21.84h0a3.66,3.66,0,0,1,.19-.82l1.59-4.38Z" fill="#1e1e1e"/>
      <path d="M97.51,154.75H93.28a2.21,2.21,0,0,0,.54,1.55,1.85,1.85,0,0,0,1.42.54,2.93,2.93,0,0,0,1.86-.67v.9a3.45,3.45,0,0,1-2.09.58,2.52,2.52,0,0,1-2-.82,3.81,3.81,0,0,1,.07-4.58,2.53,2.53,0,0,1,2-.88,2.25,2.25,0,0,1,1.82.76,3.17,3.17,0,0,1,.64,2.11Zm-1-.82a2,2,0,0,0-.4-1.29,1.36,1.36,0,0,0-1.1-.46,1.55,1.55,0,0,0-1.15.48,2.19,2.19,0,0,0-.59,1.27Z" fill="#1e1e1e"/>
      <path d="M102.1,152.48a1.18,1.18,0,0,0-.73-.19,1.23,1.23,0,0,0-1,.58,2.7,2.7,0,0,0-.41,1.58v3.06H99v-6h1v1.23h0a2.09,2.09,0,0,1,.63-1,1.4,1.4,0,0,1,.94-.36,1.75,1.75,0,0,1,.58.08Z" fill="#1e1e1e"/>
      <path d="M103,157.29v-1a2.84,2.84,0,0,0,1.73.58c.85,0,1.27-.28,1.27-.84a.76.76,0,0,0-.11-.41,1.17,1.17,0,0,0-.29-.3,3,3,0,0,0-.44-.23l-.53-.21a6.76,6.76,0,0,1-.7-.32,2.55,2.55,0,0,1-.51-.36,1.52,1.52,0,0,1-.3-.46,1.66,1.66,0,0,1-.1-.61,1.44,1.44,0,0,1,.19-.75,1.87,1.87,0,0,1,.51-.54,2.26,2.26,0,0,1,.74-.33,3.05,3.05,0,0,1,.85-.11,3.46,3.46,0,0,1,1.4.27v1a2.71,2.71,0,0,0-1.53-.43,1.75,1.75,0,0,0-.48.06,1.15,1.15,0,0,0-.37.17.72.72,0,0,0-.25.27.74.74,0,0,0-.08.34.87.87,0,0,0,.08.39.83.83,0,0,0,.25.28,1.91,1.91,0,0,0,.4.23l.54.21a6.81,6.81,0,0,1,.71.32,2.42,2.42,0,0,1,.54.36,1.32,1.32,0,0,1,.34.47,1.46,1.46,0,0,1,.12.62,1.5,1.5,0,0,1-.19.78,1.71,1.71,0,0,1-.53.54,2.3,2.3,0,0,1-.75.32,3.82,3.82,0,0,1-.9.11A3.41,3.41,0,0,1,103,157.29Z" fill="#1e1e1e"/>
      <path d="M108.79,150a.6.6,0,0,1-.62-.62.57.57,0,0,1,.18-.44.62.62,0,0,1,.44-.18.61.61,0,0,1,.45.18.55.55,0,0,1,.19.44.56.56,0,0,1-.19.44A.61.61,0,0,1,108.79,150Zm.47,7.53h-1v-6h1Z" fill="#1e1e1e"/>
      <path d="M113.64,157.65a2.76,2.76,0,0,1-2.12-.84,3.12,3.12,0,0,1-.8-2.23,3.23,3.23,0,0,1,.83-2.36,3,3,0,0,1,2.23-.85,2.72,2.72,0,0,1,2.1.82,3.29,3.29,0,0,1,.75,2.29,3.21,3.21,0,0,1-.81,2.3A2.84,2.84,0,0,1,113.64,157.65Zm.07-5.47a1.8,1.8,0,0,0-1.46.63,2.58,2.58,0,0,0-.54,1.73,2.5,2.5,0,0,0,.54,1.69,1.85,1.85,0,0,0,1.46.61,1.75,1.75,0,0,0,1.43-.6,3.23,3.23,0,0,0,0-3.45A1.73,1.73,0,0,0,113.71,152.18Z" fill="#1e1e1e"/>
      <path d="M123.09,157.51h-1v-3.42c0-1.28-.47-1.91-1.4-1.91a1.52,1.52,0,0,0-1.19.54,2,2,0,0,0-.47,1.37v3.42h-1v-6h1v1h0a2.18,2.18,0,0,1,2-1.13,1.85,1.85,0,0,1,1.51.63,2.84,2.84,0,0,1,.52,1.84Z" fill="#1e1e1e"/>
    </g>
  </g>
</svg>
