<?xml version="1.0" encoding="utf-8"?>
<!-- Generator: Adobe Illustrator 23.0.2, SVG Export Plug-In . SVG Version: 6.00 Build 0)  -->
<svg version="1.1" xmlns="http://www.w3.org/2000/svg" xmlns:xlink="http://www.w3.org/1999/xlink" x="0px" y="0px"
	 viewBox="0 0 454.64 213.01" enable-background="new 0 0 454.64 213.01" xml:space="preserve">
<symbol  id="Deleted_Symbol_6" viewBox="0 -32 32 32">
	<rect y="-10" width="32" height="2"/>
	<rect y="-26" width="32" height="2"/>
	<rect y="-17.99" width="32" height="1.99"/>
	<rect y="-32" fill="none" width="32" height="32"/>
	<rect y="-32" fill="none" width="32" height="32"/>
</symbol>
<symbol  id="Marketplace_store" viewBox="-15.25 -19.25 30.5 38.5">
	<path fill="#0078D7" d="M13.45,9.65l-2.2-1.2l-1,1.2h-2.7v4.9c0,2.8-2.2,4.7-5.3,4.7c-0.5,0-0.9-0.1-1.3-0.1
		c0.6-0.3,1.1-0.8,1.6-1.3c1.9-0.1,3.7-1.1,3.7-3.3v-5h-3.4v4.5c0,2.8-2.2,4.7-5.3,4.7s-5.3-1.9-5.3-4.7v-4.5h-1.2h-5.1l-1.2-26.9
		l24.7-1.8l0,0h0.4l1-0.1l4.4,3.5L13.45,9.65z M-6.55,14.05c0,2.3,2,3.3,3.9,3.3s3.9-1,3.9-3.3v-4.5h-3v4.9c0,0.6,0.2,1.2,0.4,1.6
		c-0.6,0.2-1.1,0.2-1.3,0.2h-0.1c-0.2-0.6-0.4-1.2-0.4-1.8v-4.9h-3.4V14.05z"/>
</symbol>
<symbol  id="New_Symbol_41" viewBox="-10.5 -10 21 20">
	<circle fill="#505050" cx="0" cy="0" r="10"/>
	<g>
		<path fill="#FFFFFF" d="M1.19,4.16v-8.59h-1.36V2.5c-0.25-0.18-0.51-0.33-0.79-0.45s-0.61-0.23-0.97-0.33v1.16
			c0.23,0.07,0.45,0.15,0.66,0.23s0.42,0.17,0.62,0.28s0.41,0.21,0.62,0.34S0.39,4,0.61,4.16H1.19z"/>
	</g>
	<rect x="-10.5" y="-10" display="none" fill="none" width="21" height="20"/>
</symbol>
<symbol  id="New_Symbol_42" viewBox="-10.5 -10 21 20">
	<circle fill="#505050" cx="0" cy="0" r="10"/>
	<g>
		<path fill="#FFFFFF" d="M2.52-4.43h-5.27v0.65c0,0.27,0.04,0.51,0.11,0.75s0.17,0.45,0.3,0.66s0.27,0.4,0.44,0.58
			s0.35,0.36,0.54,0.53s0.39,0.33,0.59,0.49S-0.39-0.46-0.2-0.3C-0.02-0.15,0.15,0,0.3,0.15s0.28,0.3,0.38,0.45s0.19,0.32,0.25,0.5
			s0.09,0.36,0.09,0.57c0,0.22-0.03,0.42-0.1,0.58s-0.16,0.3-0.29,0.42s-0.27,0.2-0.44,0.25S-0.17,3-0.37,3
			c-0.34,0-0.69-0.08-1.05-0.24s-0.7-0.4-1.03-0.72v1.31c0.17,0.13,0.35,0.24,0.52,0.34s0.36,0.18,0.54,0.24s0.38,0.11,0.59,0.14
			s0.43,0.05,0.66,0.05c0.38,0,0.72-0.05,1.03-0.15S1.48,3.72,1.7,3.53S2.09,3.09,2.21,2.8s0.18-0.62,0.18-1
			c0-0.34-0.04-0.65-0.13-0.92S2.06,0.36,1.9,0.13S1.56-0.33,1.34-0.54S0.88-0.97,0.61-1.19C0.39-1.37,0.16-1.55-0.06-1.72
			s-0.43-0.34-0.61-0.51S-1-2.57-1.11-2.73s-0.17-0.33-0.17-0.5v-0.03h3.79V-4.43z"/>
	</g>
	<rect x="-10.5" y="-10" display="none" fill="none" width="21" height="20"/>
</symbol>
<symbol  id="New_Symbol_43" viewBox="-10.5 -10 21 20">
	<circle fill="#505050" cx="0" cy="0" r="10"/>
	<g>
		<path fill="#FFFFFF" d="M-2.61-4.12v1.28c0.55-0.43,1.16-0.65,1.85-0.65c0.56,0,1,0.13,1.34,0.38s0.5,0.6,0.5,1.03
			c0,0.95-0.73,1.43-2.19,1.43h-0.65v1.09h0.62c1.29,0,1.94,0.45,1.94,1.35c0,0.83-0.5,1.24-1.51,1.24c-0.56,0-1.09-0.2-1.59-0.6
			v1.21c0.57,0.32,1.24,0.48,2.02,0.48c0.75,0,1.34-0.19,1.79-0.56S2.19,2.7,2.19,2.11c0-1.11-0.56-1.82-1.69-2.13v-0.02
			C1.11-0.1,1.59-0.32,1.94-0.68S2.47-1.5,2.47-2.05c0-0.75-0.28-1.36-0.85-1.83S0.31-4.57-0.62-4.57
			C-1.45-4.57-2.11-4.42-2.61-4.12z"/>
	</g>
	<rect x="-10.5" y="-10" display="none" fill="none" width="21" height="20"/>
</symbol>
<symbol  id="New_Symbol_44" viewBox="-10.5 -10 21 20">
	<circle fill="#505050" cx="0" cy="0" r="10"/>
	<g>
		<path fill="#FFFFFF" d="M1.97,3.97v-5.43h1.25v-1.13H1.97v-1.85H0.65v1.85h-3.8v1.14c0.34,0.39,0.7,0.81,1.06,1.26
			s0.71,0.91,1.04,1.38s0.64,0.94,0.93,1.42S0.4,3.54,0.6,3.97H1.97z M0.65-1.45v3.53c-0.43-0.77-0.85-1.43-1.26-2
			s-0.81-1.08-1.17-1.52H0.65z"/>
	</g>
	<rect x="-10.5" y="-10" display="none" fill="none" width="21" height="20"/>
</symbol>
<symbol  id="New_Symbol_45" viewBox="-10.5 -10 21 20">
	<circle fill="#505050" cx="0" cy="0" r="10"/>
	<g>
		<path fill="#FFFFFF" d="M-2.42-4.23v1.31c0.55-0.37,1.11-0.56,1.68-0.56c0.57,0,1.03,0.15,1.38,0.44s0.52,0.68,0.52,1.16
			c0,0.48-0.18,0.85-0.53,1.11s-0.86,0.4-1.52,0.4c-0.23,0-0.69-0.02-1.38-0.07l0.3,4.42h4.14V2.81h-3.01l-0.14-2.1
			c0.27,0.02,0.51,0.02,0.73,0.02c0.89,0,1.58-0.23,2.07-0.69s0.73-1.08,0.73-1.88c0-0.83-0.28-1.5-0.83-2S0.38-4.58-0.59-4.58
			C-1.41-4.58-2.02-4.47-2.42-4.23z"/>
	</g>
	<rect x="-10.5" y="-10" display="none" fill="none" width="21" height="20"/>
</symbol>
<symbol  id="Pencil-02" viewBox="0 -16 16 16">
	<polyline fill="none" stroke="#000000" stroke-miterlimit="10" points="14.88,-4.12 4.69,-14.31 0.69,-15.31 1.69,-11.31 
		11.88,-1.12 	"/>
	<path fill="none" stroke="#000000" stroke-miterlimit="10" d="M11.88-1.12c0.83,0.83,2.17,0.83,3,0c0.83-0.83,0.83-2.17,0-3"/>
	<path fill="none" stroke="#000000" stroke-miterlimit="10" d="M4.5-14.5c0,1.66-1.34,3-3,3"/>
	<rect y="-16" fill="none" width="16" height="16"/>
	<line fill="none" stroke="#000000" stroke-miterlimit="10" x1="11" y1="-2" x2="14" y2="-5"/>
</symbol>
<symbol  id="Play-01" viewBox="0 -16 16 16">
	<g>
		<path d="M4-2.92L11.26-8L4-13.08V-2.92 M3-1v-14l10,7L3-1L3-1z"/>
	</g>
	<rect y="-16" fill="none" width="16" height="16"/>
</symbol>
<symbol  id="Repairs_x5F_01" viewBox="6 -32 20 32">
	<g>
		<path fill="#FFFFFF" d="M26-16h-4v8.59l2,2V0h-6v-5.41l2-2V-16h-4v-2h2v-11c0-1.65,1.35-3,3-3s3,1.35,3,3v11h2V-16z M20-2h2v-2.59
			l-1-1l-1,1V-2z M22-29c0-0.55-0.45-1-1-1s-1,0.45-1,1v11h2V-29z"/>
		<path fill="#FFFFFF" d="M11,0C8.24,0,6-2.24,6-5c0-1.56,0.75-3.04,2-3.98V-29c0-1.65,1.35-3,3-3s3,1.35,3,3v20.02
			c1.25,0.94,2,2.42,2,3.98C16-2.24,13.76,0,11,0z M12.5-7.58L12-7.87V-29c0-0.55-0.45-1-1-1s-1,0.45-1,1v21.13L9.5-7.58
			C8.56-7.03,8-6.07,8-5c0,1.3,0.84,2.4,2,2.82V-5l1-1l1,1v2.82C13.16-2.6,14-3.7,14-5C14-6.07,13.44-7.03,12.5-7.58z"/>
	</g>
</symbol>
<symbol  id="Video_x5F_02" viewBox="0 -16 16 16">
	<rect x="0.5" y="-11.5" fill="none" stroke="#101010" stroke-miterlimit="10" width="11" height="7"/>
	<rect y="-16" fill="none" width="16" height="16"/>
	<polygon fill="none" stroke="#101010" stroke-miterlimit="10" points="11.5,-9.25 15.5,-11.25 15.5,-4.75 11.5,-6.75 	"/>
</symbol>
<symbol  id="Virtual_network" viewBox="-19.8 -10.7 39.6 21.4">
	<g>
		<polygon fill="#0078D7" points="19.8,0 17.4,2.4 9.1,10.7 7.7,9.3 17.1,0 7.7,-9.3 9.1,-10.7 17.4,-2.4 		"/>
		<polygon fill="#0078D7" points="-19.8,0 -17.3,2.4 -9.1,10.7 -7.7,9.3 -17.1,0 -7.7,-9.3 -9.1,-10.7 -17.3,-2.4 		"/>
		<path fill="#0078D7" d="M-4.8,0c0-1.3-1.1-2.4-2.4-2.4c-1.4,0-2.4,1.1-2.4,2.4s1.1,2.4,2.4,2.4C-5.8,2.4-4.8,1.3-4.8,0z"/>
		<path fill="#0078D7" d="M0,2.4c1.3,0,2.4-1.1,2.4-2.4S1.3-2.4,0-2.4S-2.4-1.3-2.4,0S-1.3,2.4,0,2.4z"/>
		<path fill="#0078D7" d="M7.2,2.4c1.3,0,2.4-1.1,2.4-2.4S8.5-2.4,7.2-2.4C5.8-2.4,4.8-1.3,4.8,0S5.8,2.4,7.2,2.4z"/>
	</g>
</symbol>
<symbol  id="W10_x5F_CheckboxIndeterminate_x5F_16" viewBox="-4 -4 8 8">
	<rect x="-4" y="-4" width="8" height="8"/>
</symbol>
<symbol  id="W10_x5F_Checkbox_x5F_16" viewBox="-8 -8 16 16">
	<g>
		<path d="M7,7V-7H-7V7H7 M8,8H-8V-8H8V8L8,8z"/>
	</g>
</symbol>
<symbol  id="W10_x5F_Undo" viewBox="-5.91 -7.91 11.82 15.82">
	<path fill="none" stroke="#FFFFFF" stroke-miterlimit="10" d="M-2.56-7.56l6.53,6.53c1.91,1.91,1.91,5.02,0,6.93L3.91,5.98
		c-1.91,1.91-5.02,1.91-6.93,0l-2.54-2.53"/>
</symbol>
<symbol  id="gripper_x5F_16" viewBox="0 -16 16 16">
	<polygon fill="none" stroke="#231F20" stroke-miterlimit="10" points="9.5,-15.5 15.5,-9.5 15.5,-15.5 	"/>
	<rect y="-16" fill="none" width="16" height="16"/>
</symbol>
<symbol  id="smallbox_x5F_32" viewBox="0 -32 32 32">
	<rect x="8" y="-24" width="16" height="16"/>
	<rect y="-32" fill="none" width="32" height="32"/>
</symbol>
<symbol  id="unlock" viewBox="0 -16 16 16">
	<rect x="2.5" y="-15.5" fill="none" stroke="#000000" stroke-miterlimit="10" width="11" height="8"/>
	<rect y="-16" fill="none" width="16" height="16"/>
	<path d="M8,0C5.72,0,4-1.74,4-4h1c0,1.71,1.29,3,3,3s3-1.29,3-3v-3H6v-1h6v4C12-1.74,10.28,0,8,0z"/>
</symbol>
<g id="Shapes">
	<g id="Wrench_tool_x28_s_x29_">
	</g>
	<g id="user2">
	</g>
	<g id="user2_1_">
	</g>
	<g id="user2_4_">
	</g>
	<g id="user2_3_">
	</g>
	<g id="user2_2_">
	</g>
	<g id="Internet_2">
	</g>
	<g id="Enterprise">
	</g>
	<g id="Tunnel__x28_stackable_x29_">
	</g>
	<g id="New_Symbol">
	</g>
	<g id="New_Symbol_1">
	</g>
	<g id="Files">
	</g>
	<g id="BlobBlock">
	</g>
	<g id="E_x5F_Enterprise">
	</g>
	<g id="E_x5F_AD_FS">
	</g>
	<g id="C_x5F_Azure_Active_Directory">
	</g>
	<rect fill="#FFFFFF" width="454.64" height="213.01"/>
	<rect y="11.54" fill="#EBEBEB" width="105" height="155"/>
	<rect x="329.66" y="71.54" fill="#0072C6" width="105" height="95"/>
	<rect x="329.66" y="12.54" fill="#FFB900" width="105" height="55"/>
	<g>
		<g>
			<line fill="none" stroke="#000000" stroke-miterlimit="10" x1="104.55" y1="26.54" x2="324.17" y2="26.54"/>
			<g>
				<polygon points="323.07,30.28 329.55,26.54 323.07,22.8 				"/>
			</g>
		</g>
	</g>
	<g>
		<g>
			<line fill="none" stroke="#000000" stroke-miterlimit="10" x1="109.93" y1="56.42" x2="329.55" y2="56.42"/>
			<g>
				<polygon points="111.03,60.16 104.55,56.42 111.03,52.68 				"/>
			</g>
		</g>
	</g>
	<g>
		<g>
			<line fill="none" stroke="#000000" stroke-miterlimit="10" x1="104.55" y1="99.54" x2="324.17" y2="99.54"/>
			<g>
				<polygon points="323.07,103.28 329.55,99.54 323.07,95.8 				"/>
			</g>
		</g>
	</g>
	<g>
		<g>
			<line fill="none" stroke="#000000" stroke-miterlimit="10" x1="109.93" y1="147.64" x2="329.55" y2="147.64"/>
			<g>
				<polygon points="111.03,151.38 104.55,147.64 111.03,143.9 				"/>
			</g>
		</g>
	</g>
	<g>
		<g>
			<path fill="none" stroke="#000000" stroke-miterlimit="10" d="M50.54,166.54c0,0,0,3.38,0,7.5s4.5,7.51,10,7.52l379.11,0.75
				c5.5,0.01,10-4.48,10-9.98V43.04c0-1.38-1.26-2.5-2.81-2.5h-6.65"/>
			<g>
				<polygon points="441.28,36.8 434.8,40.54 441.28,44.28 				"/>
			</g>
		</g>
	</g>
	
		<use xlink:href="#New_Symbol_45"  width="21" height="20" x="-10.5" y="-10" transform="matrix(1 0 0 -1 199.8218 181.5385)" overflow="visible"/>
	<g>
		<path fill="#107C10" d="M221,124.46c-0.72,0.64-1.6,1.04-2.64,1.04c-1.04,0-1.92-0.4-2.64-1.04l-0.4,8.08l3.04-3.04l3.04,3.04
			L221,124.46z"/>
		<path fill="#107C10" d="M218.36,116.54c-2.88,0-5.2,2.32-5.2,5.2c0,2.88,2.32,5.2,5.2,5.2s5.2-2.32,5.2-5.2
			C223.56,118.86,221.24,116.54,218.36,116.54z M218.36,125.26c-2,0-3.6-1.6-3.6-3.6c0-1.92,1.6-3.52,3.6-3.52s3.6,1.6,3.6,3.6
			C221.96,123.66,220.36,125.26,218.36,125.26z"/>
	</g>
	<g>
		<path fill="#107C10" d="M221,195.03c-0.72,0.64-1.6,1.04-2.64,1.04c-1.04,0-1.92-0.4-2.64-1.04l-0.4,8.08l3.04-3.04l3.04,3.04
			L221,195.03z"/>
		<path fill="#107C10" d="M218.36,187.11c-2.88,0-5.2,2.32-5.2,5.2c0,2.88,2.32,5.2,5.2,5.2s5.2-2.32,5.2-5.2
			C223.56,189.43,221.24,187.11,218.36,187.11z M218.36,195.83c-2,0-3.6-1.6-3.6-3.6c0-1.92,1.6-3.52,3.6-3.52s3.6,1.6,3.6,3.6
			C221.96,194.23,220.36,195.83,218.36,195.83z"/>
	</g>
	
		<use xlink:href="#New_Symbol_44"  width="21" height="20" x="-10.5" y="-10" transform="matrix(1 0 0 -1 199.8218 148.122)" overflow="visible"/>
	
		<use xlink:href="#New_Symbol_43"  width="21" height="20" x="-10.5" y="-10" transform="matrix(1 0 0 -1 199.8218 99.5385)" overflow="visible"/>
	<path d="M80.24,49.85c-6.85-9.05-17.4-13.67-27.73-13.67c-7.39,0-14.98,2.41-21.27,7.21c-15.34,11.82-18.32,33.66-6.46,49
		c6.85,9.05,17.19,13.67,27.73,13.67c7.39,0,14.99-2.41,21.27-7.21C89.12,87.2,92.07,65.19,80.24,49.85z M81.89,79.02
		c-1.23-0.93-3.04-2.31-5.3-4.13c0.79-2.06,0.58-4.47-0.77-6.4c-2.04-2.56-5.66-3.21-8.55-1.54c-3.05-2.74-6.41-5.89-9.95-9.44
		c10.74-5.88,18.59-5.16,19.05-5.12c0.11,0.14,0.22,0.27,0.33,0.41C82.63,60.55,84.22,70.26,81.89,79.02z M62.7,87.26
		c-0.19-0.82-0.54-1.63-1.09-2.38c-1.91-2.61-5.32-3.05-8.02-1.4c-2.61-1.42-5.34-3.19-8.15-5.42c-0.25-0.2-0.47-0.4-0.71-0.6
		c1.13-2.91,0.74-6.31-1.31-8.99c-0.05-0.07-0.11-0.13-0.16-0.19c0.6-0.64,1.22-1.27,1.89-1.89c2.77-2.59,5.36-4.79,7.95-6.46
		c0,0,0,0,0,0c0.03-0.02,0.05-0.03,0.08-0.05c-0.03,0.03-0.06,0.05-0.09,0.07c3.82,3.51,7.84,6.84,11.64,9.8
		c-1.01,2.14-0.87,4.73,0.58,6.68c2.24,2.95,6.29,3.34,9.23,1.28c0.15-0.12,0.28-0.24,0.42-0.37c2.72,1.93,4.88,3.39,6.13,4.24
		c-0.85,2.33-1.98,4.57-3.4,6.66C75.64,88.7,70.14,89.39,62.7,87.26z M72.07,47.94c-4.59-0.73-12.11-0.57-20.31,3.75
		c-2.74-2.92-5.65-6.18-8.6-9.48c3.04-0.98,6.18-1.46,9.31-1.46C59.59,40.76,66.48,43.19,72.07,47.94z M33.97,47.04
		c1.62-1.24,3.32-2.28,5.08-3.14c2.03,3.48,5.15,7.06,8.24,10.36c-2.73,1.84-5.46,4.22-8.41,7.3c-0.98,1.1-1.93,2.19-2.8,3.29
		c-1.47-0.01-2.94,0.33-4.27,1.04c-3.1-5.59-3.56-10.34-3.36-13.4C30.02,50.5,31.86,48.66,33.97,47.04z M24.91,58.3
		c-0.07,3.2,0.61,7.06,3.04,11.43c-1.69,3.11-1.48,7.02,0.83,10.03c0.01,0.01,0.02,0.02,0.03,0.03c-0.76,3.06-1.16,6-1.38,8.65
		C21.11,79.31,20.47,67.81,24.91,58.3z M52.47,101.62c-7.08,0-13.94-2.41-19.51-7.11c0.02-2.9,0.27-6.93,1.53-11.28
		c2.32,0.41,4.78-0.08,6.87-1.53c0.26,0.2,0.51,0.4,0.77,0.59c2.91,2.3,5.82,4.1,8.66,5.53c-0.21,1.56,0.16,3.19,1.19,4.49
		c2.02,2.59,5.93,3.16,8.52,1.1c0.59-0.46,1.07-1.01,1.45-1.62c4.6,1.02,8.65,1.22,11.72,1.23c-0.85,0.82-1.74,1.6-2.7,2.33
		C65.43,99.6,58.93,101.62,52.47,101.62z"/>
</g>
<g id="Text">
	<g id="Windows_Server_New">
	</g>
	<g>
		<path fill="#1E1E1E" d="M180.17,20.77h-0.96v-3.46c0-1.25-0.46-1.88-1.39-1.88c-0.47,0-0.86,0.18-1.18,0.54s-0.48,0.83-0.48,1.39
			v3.4h-0.96v-8.88h0.96v3.88h0.02c0.46-0.76,1.12-1.14,1.97-1.14c1.35,0,2.03,0.81,2.03,2.44V20.77z"/>
		<path fill="#1E1E1E" d="M184.67,20.71c-0.23,0.13-0.53,0.19-0.9,0.19c-1.05,0-1.58-0.59-1.58-1.76v-3.55h-1.03v-0.82h1.03V13.3
			l0.96-0.31v1.78h1.51v0.82h-1.51v3.38c0,0.4,0.07,0.69,0.21,0.86s0.36,0.26,0.68,0.26c0.24,0,0.45-0.07,0.63-0.2V20.71z"/>
		<path fill="#1E1E1E" d="M189.01,20.71c-0.23,0.13-0.53,0.19-0.9,0.19c-1.05,0-1.58-0.59-1.58-1.76v-3.55h-1.03v-0.82h1.03V13.3
			l0.96-0.31v1.78h1.51v0.82h-1.51v3.38c0,0.4,0.07,0.69,0.21,0.86s0.36,0.26,0.68,0.26c0.24,0,0.45-0.07,0.63-0.2V20.71z"/>
		<path fill="#1E1E1E" d="M191.19,19.9h-0.02v3.63h-0.96v-8.76h0.96v1.05h0.02c0.47-0.8,1.16-1.2,2.07-1.2
			c0.77,0,1.38,0.27,1.81,0.81s0.65,1.26,0.65,2.16c0,1-0.24,1.81-0.73,2.41s-1.16,0.91-2,0.91
			C192.21,20.91,191.61,20.57,191.19,19.9z M191.17,17.48v0.84c0,0.5,0.16,0.92,0.48,1.26s0.73,0.52,1.23,0.52
			c0.58,0,1.04-0.22,1.37-0.67s0.5-1.06,0.5-1.86c0-0.67-0.15-1.19-0.46-1.57s-0.73-0.57-1.25-0.57c-0.56,0-1.01,0.19-1.35,0.58
			S191.17,16.89,191.17,17.48z"/>
		<path fill="#1E1E1E" d="M196.83,20.55v-1.03c0.52,0.39,1.1,0.58,1.73,0.58c0.84,0,1.27-0.28,1.27-0.84c0-0.16-0.04-0.3-0.11-0.41
			s-0.17-0.21-0.29-0.3s-0.27-0.16-0.43-0.23s-0.34-0.14-0.54-0.21c-0.27-0.11-0.5-0.21-0.7-0.32s-0.37-0.23-0.5-0.36
			s-0.24-0.29-0.3-0.46s-0.1-0.37-0.1-0.6c0-0.28,0.06-0.53,0.19-0.75s0.3-0.4,0.52-0.54s0.46-0.26,0.74-0.33s0.56-0.11,0.85-0.11
			c0.52,0,0.98,0.09,1.39,0.27v0.97c-0.44-0.29-0.95-0.43-1.52-0.43c-0.18,0-0.34,0.02-0.49,0.06s-0.27,0.1-0.37,0.17
			s-0.18,0.16-0.24,0.27s-0.08,0.22-0.08,0.34c0,0.16,0.03,0.29,0.08,0.39s0.14,0.2,0.25,0.28s0.24,0.16,0.4,0.22
			s0.33,0.14,0.53,0.22c0.27,0.1,0.5,0.21,0.71,0.31s0.39,0.23,0.54,0.36s0.26,0.29,0.34,0.47s0.12,0.38,0.12,0.63
			c0,0.3-0.07,0.55-0.2,0.77s-0.31,0.4-0.52,0.54s-0.47,0.25-0.76,0.32s-0.58,0.11-0.9,0.11C197.82,20.91,197.28,20.79,196.83,20.55
			z"/>
		<path fill="#1E1E1E" d="M202.52,15.94c-0.18,0-0.33-0.06-0.46-0.19s-0.19-0.28-0.19-0.46s0.06-0.33,0.19-0.46s0.28-0.19,0.46-0.19
			c0.18,0,0.34,0.06,0.47,0.19s0.19,0.28,0.19,0.46s-0.06,0.33-0.19,0.46S202.7,15.94,202.52,15.94z M202.52,20.89
			c-0.18,0-0.33-0.06-0.46-0.19s-0.19-0.28-0.19-0.46s0.06-0.33,0.19-0.47s0.28-0.2,0.46-0.2c0.18,0,0.34,0.07,0.47,0.2
			s0.19,0.29,0.19,0.47s-0.06,0.33-0.19,0.46S202.7,20.89,202.52,20.89z"/>
		<path fill="#1E1E1E" d="M208.56,12.36l-4.03,9.8h-0.9l4.02-9.8H208.56z"/>
		<path fill="#1E1E1E" d="M212.25,12.36l-4.03,9.8h-0.9l4.02-9.8H212.25z"/>
		<path fill="#1E1E1E" d="M217.97,14.77l-2.76,6.96c-0.49,1.24-1.18,1.86-2.07,1.86c-0.25,0-0.46-0.03-0.63-0.08v-0.86
			c0.21,0.07,0.4,0.11,0.57,0.11c0.48,0,0.85-0.29,1.09-0.87l0.48-1.14l-2.34-5.99h1.07l1.62,4.62c0.02,0.06,0.06,0.21,0.12,0.46
			h0.04c0.02-0.09,0.06-0.24,0.12-0.45l1.71-4.63H217.97z"/>
		<path fill="#1E1E1E" d="M221.36,20.91c-0.89,0-1.59-0.28-2.12-0.84s-0.79-1.3-0.79-2.23c0-1.01,0.28-1.79,0.83-2.36
			s1.29-0.85,2.23-0.85c0.89,0,1.59,0.28,2.09,0.83s0.75,1.31,0.75,2.29c0,0.96-0.27,1.72-0.81,2.3S222.27,20.91,221.36,20.91z
			 M221.43,15.43c-0.62,0-1.11,0.21-1.46,0.63s-0.54,1-0.54,1.74c0,0.71,0.18,1.27,0.54,1.68s0.85,0.62,1.46,0.62
			c0.62,0,1.1-0.2,1.43-0.6s0.5-0.97,0.5-1.72c0-0.75-0.17-1.33-0.5-1.73S222.05,15.43,221.43,15.43z"/>
		<path fill="#1E1E1E" d="M230.71,20.77h-0.96v-0.95h-0.02c-0.4,0.73-1.02,1.09-1.85,1.09c-1.43,0-2.14-0.85-2.14-2.55v-3.59h0.96
			v3.43c0,1.27,0.48,1.9,1.45,1.9c0.47,0,0.85-0.17,1.16-0.52s0.45-0.8,0.45-1.36v-3.46h0.96V20.77z"/>
		<path fill="#1E1E1E" d="M235.65,15.74c-0.17-0.13-0.41-0.19-0.73-0.19c-0.41,0-0.75,0.19-1.03,0.58s-0.41,0.91-0.41,1.58v3.06
			h-0.96v-6h0.96V16h0.02c0.14-0.42,0.35-0.75,0.63-0.99s0.6-0.35,0.94-0.35c0.25,0,0.44,0.03,0.57,0.08V15.74z"/>
		<path fill="#1E1E1E" d="M236.52,20.55v-1.03c0.52,0.39,1.1,0.58,1.73,0.58c0.84,0,1.27-0.28,1.27-0.84c0-0.16-0.04-0.3-0.11-0.41
			s-0.17-0.21-0.29-0.3s-0.27-0.16-0.43-0.23s-0.34-0.14-0.54-0.21c-0.27-0.11-0.5-0.21-0.7-0.32s-0.37-0.23-0.5-0.36
			s-0.24-0.29-0.3-0.46s-0.1-0.37-0.1-0.6c0-0.28,0.06-0.53,0.19-0.75s0.3-0.4,0.52-0.54s0.46-0.26,0.74-0.33s0.56-0.11,0.85-0.11
			c0.52,0,0.98,0.09,1.39,0.27v0.97c-0.44-0.29-0.95-0.43-1.52-0.43c-0.18,0-0.34,0.02-0.49,0.06s-0.27,0.1-0.37,0.17
			s-0.18,0.16-0.24,0.27s-0.08,0.22-0.08,0.34c0,0.16,0.03,0.29,0.08,0.39s0.14,0.2,0.25,0.28s0.24,0.16,0.4,0.22
			s0.33,0.14,0.53,0.22c0.27,0.1,0.5,0.21,0.71,0.31s0.39,0.23,0.54,0.36s0.26,0.29,0.34,0.47s0.12,0.38,0.12,0.63
			c0,0.3-0.07,0.55-0.2,0.77s-0.31,0.4-0.52,0.54s-0.47,0.25-0.76,0.32s-0.58,0.11-0.9,0.11C237.51,20.91,236.97,20.79,236.52,20.55
			z"/>
		<path fill="#1E1E1E" d="M242.35,13.24c-0.17,0-0.32-0.06-0.44-0.18s-0.18-0.27-0.18-0.45s0.06-0.33,0.18-0.45s0.27-0.18,0.44-0.18
			c0.18,0,0.33,0.06,0.45,0.18s0.18,0.27,0.18,0.45c0,0.17-0.06,0.32-0.18,0.44S242.52,13.24,242.35,13.24z M242.82,20.77h-0.96v-6
			h0.96V20.77z"/>
		<path fill="#1E1E1E" d="M247.5,20.71c-0.23,0.13-0.53,0.19-0.9,0.19c-1.05,0-1.58-0.59-1.58-1.76v-3.55h-1.03v-0.82h1.03V13.3
			l0.96-0.31v1.78h1.51v0.82h-1.51v3.38c0,0.4,0.07,0.69,0.21,0.86s0.36,0.26,0.68,0.26c0.24,0,0.45-0.07,0.63-0.2V20.71z"/>
		<path fill="#1E1E1E" d="M253.5,18.01h-4.24c0.02,0.67,0.2,1.18,0.54,1.55s0.82,0.54,1.42,0.54c0.68,0,1.3-0.22,1.86-0.67v0.9
			c-0.53,0.38-1.22,0.57-2.09,0.57c-0.85,0-1.51-0.27-2-0.82s-0.73-1.31-0.73-2.3c0-0.93,0.26-1.69,0.79-2.28s1.19-0.88,1.97-0.88
			s1.39,0.25,1.82,0.76s0.64,1.21,0.64,2.12V18.01z M252.52,17.19c0-0.55-0.14-0.99-0.4-1.29s-0.63-0.46-1.1-0.46
			c-0.45,0-0.84,0.16-1.15,0.49s-0.51,0.75-0.59,1.27H252.52z"/>
		<path fill="#1E1E1E" d="M255.21,20.89c-0.18,0-0.33-0.06-0.46-0.19s-0.19-0.28-0.19-0.46s0.06-0.33,0.19-0.47s0.28-0.2,0.46-0.2
			c0.18,0,0.34,0.07,0.47,0.2s0.19,0.29,0.19,0.47s-0.06,0.33-0.19,0.46S255.4,20.89,255.21,20.89z"/>
		<path fill="#1E1E1E" d="M261.41,20.49c-0.46,0.28-1.01,0.42-1.64,0.42c-0.86,0-1.55-0.28-2.07-0.83s-0.79-1.28-0.79-2.17
			c0-0.99,0.28-1.78,0.85-2.38s1.32-0.9,2.27-0.9c0.53,0,0.99,0.1,1.39,0.29v0.98c-0.45-0.31-0.92-0.47-1.43-0.47
			c-0.61,0-1.12,0.22-1.51,0.66s-0.59,1.02-0.59,1.73c0,0.7,0.18,1.26,0.55,1.66s0.86,0.61,1.49,0.61c0.52,0,1.02-0.17,1.48-0.52
			V20.49z"/>
		<path fill="#1E1E1E" d="M265.23,20.91c-0.89,0-1.59-0.28-2.12-0.84s-0.79-1.3-0.79-2.23c0-1.01,0.28-1.79,0.83-2.36
			s1.29-0.85,2.23-0.85c0.89,0,1.59,0.28,2.09,0.83s0.75,1.31,0.75,2.29c0,0.96-0.27,1.72-0.81,2.3S266.14,20.91,265.23,20.91z
			 M265.3,15.43c-0.62,0-1.11,0.21-1.46,0.63s-0.54,1-0.54,1.74c0,0.71,0.18,1.27,0.54,1.68s0.85,0.62,1.46,0.62
			c0.62,0,1.1-0.2,1.43-0.6s0.5-0.97,0.5-1.72c0-0.75-0.17-1.33-0.5-1.73S265.92,15.43,265.3,15.43z"/>
		<path fill="#1E1E1E" d="M278.22,20.77h-0.96v-3.45c0-0.66-0.1-1.14-0.31-1.44s-0.55-0.45-1.03-0.45c-0.41,0-0.76,0.19-1.05,0.56
			s-0.43,0.82-0.43,1.35v3.42h-0.96V17.2c0-1.18-0.46-1.77-1.37-1.77c-0.42,0-0.77,0.18-1.04,0.53s-0.41,0.81-0.41,1.38v3.42h-0.96
			v-6h0.96v0.95h0.02c0.43-0.73,1.05-1.09,1.86-1.09c0.41,0,0.77,0.11,1.07,0.34s0.51,0.53,0.63,0.9c0.45-0.83,1.11-1.24,1.99-1.24
			c1.32,0,1.98,0.81,1.98,2.44V20.77z"/>
	</g>
	<g>
		<path fill="#1E1E1E" d="M201.28,51.28h-1.17l-1.41-2.36c-0.13-0.22-0.25-0.41-0.38-0.56s-0.25-0.28-0.37-0.38
			s-0.26-0.17-0.41-0.21s-0.31-0.07-0.5-0.07h-0.81v3.57h-0.98v-8.4h2.51c0.37,0,0.71,0.05,1.02,0.14s0.58,0.23,0.81,0.42
			s0.41,0.42,0.54,0.7s0.19,0.61,0.19,0.98c0,0.29-0.04,0.56-0.13,0.81s-0.21,0.46-0.38,0.65s-0.36,0.35-0.59,0.49
			s-0.49,0.24-0.77,0.31v0.02c0.14,0.06,0.26,0.13,0.37,0.21s0.2,0.17,0.3,0.28s0.19,0.23,0.28,0.37s0.19,0.3,0.31,0.48
			L201.28,51.28z M196.24,43.77v3.05h1.34c0.25,0,0.47-0.04,0.68-0.11s0.39-0.18,0.54-0.32s0.27-0.31,0.36-0.51s0.13-0.43,0.13-0.68
			c0-0.45-0.15-0.8-0.44-1.05s-0.71-0.38-1.26-0.38H196.24z"/>
		<path fill="#1E1E1E" d="M206.95,48.52h-4.24c0.02,0.67,0.2,1.18,0.54,1.55s0.82,0.54,1.42,0.54c0.68,0,1.3-0.22,1.86-0.67v0.9
			c-0.53,0.38-1.22,0.57-2.09,0.57c-0.85,0-1.51-0.27-2-0.82s-0.73-1.31-0.73-2.3c0-0.93,0.26-1.69,0.79-2.28s1.19-0.88,1.97-0.88
			s1.39,0.25,1.82,0.76s0.64,1.21,0.64,2.12V48.52z M205.97,47.7c0-0.55-0.14-0.99-0.4-1.29s-0.63-0.46-1.1-0.46
			c-0.45,0-0.84,0.16-1.15,0.49s-0.51,0.75-0.59,1.27H205.97z"/>
		<path fill="#1E1E1E" d="M213.59,51.28h-0.96v-1.02h-0.02c-0.45,0.77-1.13,1.16-2.06,1.16c-0.75,0-1.36-0.27-1.81-0.81
			s-0.68-1.27-0.68-2.19c0-0.99,0.25-1.79,0.75-2.38s1.17-0.9,2-0.9c0.82,0,1.42,0.32,1.8,0.97h0.02v-3.71h0.96V51.28z
			 M212.63,48.56v-0.88c0-0.48-0.16-0.89-0.48-1.23s-0.73-0.5-1.22-0.5c-0.59,0-1.05,0.21-1.38,0.64s-0.5,1.02-0.5,1.78
			c0,0.69,0.16,1.24,0.48,1.64s0.75,0.6,1.3,0.6c0.54,0,0.97-0.19,1.3-0.58S212.63,49.15,212.63,48.56z"/>
		<path fill="#1E1E1E" d="M215.9,43.75c-0.17,0-0.32-0.06-0.44-0.18s-0.18-0.27-0.18-0.45s0.06-0.33,0.18-0.45s0.27-0.18,0.44-0.18
			c0.18,0,0.33,0.06,0.45,0.18s0.18,0.27,0.18,0.45c0,0.17-0.06,0.32-0.18,0.44S216.08,43.75,215.9,43.75z M216.37,51.28h-0.96v-6
			h0.96V51.28z"/>
		<path fill="#1E1E1E" d="M221.32,46.25c-0.17-0.13-0.41-0.19-0.73-0.19c-0.41,0-0.75,0.19-1.03,0.58s-0.41,0.91-0.41,1.58v3.06
			h-0.96v-6h0.96v1.24h0.02c0.14-0.42,0.35-0.75,0.63-0.99s0.6-0.35,0.94-0.35c0.25,0,0.44,0.03,0.57,0.08V46.25z"/>
		<path fill="#1E1E1E" d="M227.2,48.52h-4.24c0.02,0.67,0.2,1.18,0.54,1.55s0.82,0.54,1.42,0.54c0.68,0,1.3-0.22,1.86-0.67v0.9
			c-0.53,0.38-1.22,0.57-2.09,0.57c-0.85,0-1.51-0.27-2-0.82s-0.73-1.31-0.73-2.3c0-0.93,0.26-1.69,0.79-2.28s1.19-0.88,1.97-0.88
			s1.39,0.25,1.82,0.76s0.64,1.21,0.64,2.12V48.52z M226.22,47.7c0-0.55-0.14-0.99-0.4-1.29s-0.63-0.46-1.1-0.46
			c-0.45,0-0.84,0.16-1.15,0.49s-0.51,0.75-0.59,1.27H226.22z"/>
		<path fill="#1E1E1E" d="M232.78,51c-0.46,0.28-1.01,0.42-1.64,0.42c-0.86,0-1.55-0.28-2.07-0.83s-0.79-1.28-0.79-2.17
			c0-0.99,0.28-1.78,0.85-2.38s1.32-0.9,2.27-0.9c0.53,0,0.99,0.1,1.39,0.29v0.98c-0.45-0.31-0.92-0.47-1.43-0.47
			c-0.61,0-1.12,0.22-1.51,0.66s-0.59,1.02-0.59,1.73c0,0.7,0.18,1.26,0.55,1.66s0.86,0.61,1.49,0.61c0.52,0,1.02-0.17,1.48-0.52V51
			z"/>
		<path fill="#1E1E1E" d="M237.21,51.22c-0.23,0.13-0.53,0.19-0.9,0.19c-1.05,0-1.58-0.59-1.58-1.76V46.1h-1.03v-0.82h1.03v-1.46
			l0.96-0.31v1.78h1.51v0.82h-1.51v3.38c0,0.4,0.07,0.69,0.21,0.86s0.36,0.26,0.68,0.26c0.24,0,0.45-0.07,0.63-0.2V51.22z"/>
	</g>
	<g>
		<rect x="342.93" y="98.94" fill="none" width="78.46" height="45.6"/>
		<path fill="#FFFFFF" d="M365.18,107.82h-1.87v-5.03c0-0.54,0.02-1.14,0.07-1.8h-0.05c-0.1,0.52-0.19,0.89-0.26,1.11l-1.97,5.71
			h-1.55l-2-5.65c-0.05-0.15-0.14-0.54-0.26-1.17h-0.05c0.05,0.83,0.08,1.55,0.08,2.18v4.65h-1.71v-8.4h2.77l1.72,4.98
			c0.14,0.4,0.24,0.8,0.3,1.2h0.04c0.11-0.46,0.22-0.87,0.33-1.21l1.72-4.97h2.7V107.82z"/>
		<path fill="#FFFFFF" d="M367.79,100.87c-0.31,0-0.57-0.09-0.77-0.28s-0.3-0.41-0.3-0.68c0-0.28,0.1-0.5,0.3-0.68
			s0.46-0.26,0.77-0.26c0.32,0,0.57,0.09,0.77,0.26s0.3,0.4,0.3,0.68c0,0.28-0.1,0.51-0.3,0.69S368.1,100.87,367.79,100.87z
			 M368.7,107.82h-1.85v-6h1.85V107.82z"/>
		<path fill="#FFFFFF" d="M374.78,107.6c-0.42,0.24-1.02,0.36-1.81,0.36c-0.92,0-1.67-0.28-2.24-0.84s-0.86-1.28-0.86-2.16
			c0-1.02,0.31-1.82,0.92-2.41s1.43-0.88,2.45-0.88c0.71,0,1.22,0.09,1.54,0.28v1.57c-0.39-0.29-0.82-0.43-1.29-0.43
			c-0.53,0-0.95,0.16-1.26,0.47s-0.47,0.74-0.47,1.29c0,0.53,0.15,0.95,0.45,1.25s0.71,0.45,1.22,0.45c0.46,0,0.91-0.14,1.35-0.43
			V107.6z"/>
		<path fill="#FFFFFF" d="M380,103.49c-0.22-0.12-0.48-0.18-0.78-0.18c-0.4,0-0.72,0.15-0.94,0.44s-0.34,0.7-0.34,1.2v2.87h-1.85v-6
			h1.85v1.11h0.02c0.29-0.81,0.82-1.22,1.58-1.22c0.2,0,0.35,0.02,0.46,0.07V103.49z"/>
		<path fill="#FFFFFF" d="M383.8,107.97c-1,0-1.79-0.28-2.36-0.84s-0.86-1.32-0.86-2.28c0-0.99,0.3-1.77,0.89-2.33
			s1.4-0.84,2.41-0.84c1,0,1.78,0.28,2.34,0.84s0.85,1.3,0.85,2.22c0,1-0.29,1.78-0.88,2.36S384.82,107.97,383.8,107.97z
			 M383.85,103.09c-0.44,0-0.78,0.15-1.02,0.45s-0.36,0.73-0.36,1.28c0,1.15,0.46,1.73,1.39,1.73c0.89,0,1.33-0.59,1.33-1.78
			C385.19,103.65,384.75,103.09,383.85,103.09z"/>
		<path fill="#FFFFFF" d="M387.94,107.66v-1.5c0.3,0.18,0.61,0.32,0.91,0.41s0.59,0.13,0.86,0.13c0.33,0,0.59-0.04,0.78-0.13
			s0.28-0.23,0.28-0.41c0-0.12-0.04-0.21-0.13-0.29s-0.2-0.15-0.33-0.21s-0.28-0.11-0.44-0.16s-0.31-0.1-0.46-0.16
			c-0.24-0.09-0.45-0.19-0.63-0.29s-0.33-0.22-0.46-0.36s-0.22-0.29-0.28-0.47s-0.1-0.39-0.1-0.64c0-0.34,0.07-0.63,0.22-0.87
			s0.34-0.44,0.59-0.59s0.52-0.27,0.84-0.34s0.64-0.11,0.98-0.11c0.27,0,0.54,0.02,0.81,0.06s0.54,0.1,0.81,0.18v1.43
			c-0.23-0.14-0.49-0.24-0.75-0.31s-0.53-0.1-0.79-0.1c-0.12,0-0.24,0.01-0.34,0.03s-0.2,0.05-0.28,0.09s-0.15,0.09-0.19,0.16
			s-0.07,0.14-0.07,0.22c0,0.11,0.04,0.2,0.11,0.28s0.16,0.15,0.28,0.2s0.24,0.11,0.38,0.15s0.28,0.09,0.41,0.14
			c0.25,0.09,0.47,0.18,0.67,0.28s0.37,0.22,0.51,0.36s0.25,0.3,0.33,0.48s0.11,0.4,0.11,0.66c0,0.36-0.08,0.66-0.23,0.91
			s-0.36,0.46-0.62,0.62s-0.55,0.27-0.88,0.35s-0.68,0.11-1.04,0.11C389.11,107.97,388.5,107.86,387.94,107.66z"/>
		<path fill="#FFFFFF" d="M396.51,107.97c-1,0-1.79-0.28-2.36-0.84s-0.86-1.32-0.86-2.28c0-0.99,0.3-1.77,0.89-2.33
			s1.4-0.84,2.41-0.84c1,0,1.78,0.28,2.34,0.84s0.85,1.3,0.85,2.22c0,1-0.29,1.78-0.88,2.36S397.52,107.97,396.51,107.97z
			 M396.55,103.09c-0.44,0-0.78,0.15-1.02,0.45s-0.36,0.73-0.36,1.28c0,1.15,0.46,1.73,1.39,1.73c0.89,0,1.33-0.59,1.33-1.78
			C397.9,103.65,397.45,103.09,396.55,103.09z"/>
		<path fill="#FFFFFF" d="M404.85,100.35c-0.24-0.09-0.47-0.14-0.69-0.14c-0.59,0-0.89,0.32-0.89,0.97v0.64h1.37v1.37h-1.37v4.63
			h-1.85v-4.63h-1.01v-1.37h1.01v-0.74c0-0.68,0.22-1.23,0.67-1.65s1.05-0.63,1.82-0.63c0.38,0,0.69,0.04,0.94,0.12V100.35z"/>
		<path fill="#FFFFFF" d="M409.41,107.75c-0.27,0.14-0.69,0.22-1.24,0.22c-1.3,0-1.96-0.68-1.96-2.03v-2.75h-0.97v-1.37h0.97v-1.29
			l1.85-0.53v1.82h1.35v1.37h-1.35v2.43c0,0.63,0.25,0.94,0.74,0.94c0.2,0,0.4-0.06,0.6-0.17V107.75z"/>
		<path fill="#FFFFFF" d="M361.83,115.27c-0.31,0-0.57-0.09-0.77-0.28s-0.3-0.41-0.3-0.68c0-0.28,0.1-0.5,0.3-0.68
			s0.46-0.26,0.77-0.26c0.32,0,0.57,0.09,0.77,0.26s0.3,0.4,0.3,0.68c0,0.28-0.1,0.51-0.3,0.69S362.15,115.27,361.83,115.27z
			 M362.75,122.22h-1.85v-6h1.85V122.22z"/>
		<path fill="#FFFFFF" d="M370.17,122.22h-1.85v-0.83h-0.02c-0.42,0.65-1.04,0.97-1.86,0.97c-0.75,0-1.35-0.26-1.81-0.79
			s-0.69-1.27-0.69-2.22c0-0.99,0.25-1.79,0.76-2.38s1.16-0.9,1.98-0.9c0.77,0,1.31,0.28,1.62,0.83h0.02v-3.57h1.85V122.22z
			 M368.36,119.3v-0.45c0-0.39-0.11-0.71-0.34-0.97s-0.52-0.39-0.88-0.39c-0.41,0-0.73,0.16-0.96,0.48s-0.35,0.76-0.35,1.33
			c0,0.53,0.11,0.93,0.33,1.22s0.53,0.43,0.93,0.43c0.38,0,0.68-0.15,0.92-0.45S368.36,119.8,368.36,119.3z"/>
		<path fill="#FFFFFF" d="M377.12,119.75h-3.91c0.06,0.87,0.61,1.31,1.65,1.31c0.66,0,1.24-0.16,1.74-0.47v1.34
			c-0.55,0.3-1.28,0.45-2.16,0.45c-0.97,0-1.72-0.27-2.26-0.81s-0.8-1.29-0.8-2.25c0-1,0.29-1.79,0.87-2.37s1.29-0.87,2.13-0.87
			c0.88,0,1.55,0.26,2.03,0.78s0.72,1.22,0.72,2.12V119.75z M375.41,118.61c0-0.86-0.35-1.29-1.04-1.29c-0.3,0-0.55,0.12-0.77,0.37
			s-0.35,0.55-0.4,0.92H375.41z"/>
		<path fill="#FFFFFF" d="M384.1,122.22h-1.85v-3.33c0-0.93-0.33-1.39-1-1.39c-0.32,0-0.58,0.12-0.79,0.37s-0.31,0.56-0.31,0.94
			v3.42h-1.85v-6h1.85v0.95h0.02c0.44-0.73,1.08-1.1,1.93-1.1c1.33,0,1.99,0.82,1.99,2.47V122.22z"/>
		<path fill="#FFFFFF" d="M389.12,122.15c-0.27,0.14-0.69,0.22-1.24,0.22c-1.3,0-1.96-0.68-1.96-2.03v-2.75h-0.97v-1.37h0.97v-1.29
			l1.85-0.53v1.82h1.35v1.37h-1.35v2.43c0,0.63,0.25,0.94,0.74,0.94c0.2,0,0.4-0.06,0.6-0.17V122.15z"/>
		<path fill="#FFFFFF" d="M391.17,115.27c-0.31,0-0.57-0.09-0.77-0.28s-0.3-0.41-0.3-0.68c0-0.28,0.1-0.5,0.3-0.68
			s0.46-0.26,0.77-0.26c0.32,0,0.57,0.09,0.77,0.26s0.3,0.4,0.3,0.68c0,0.28-0.1,0.51-0.3,0.69S391.48,115.27,391.17,115.27z
			 M392.08,122.22h-1.85v-6h1.85V122.22z"/>
		<path fill="#FFFFFF" d="M397.18,122.15c-0.27,0.14-0.69,0.22-1.24,0.22c-1.3,0-1.96-0.68-1.96-2.03v-2.75h-0.97v-1.37h0.97v-1.29
			l1.85-0.53v1.82h1.35v1.37h-1.35v2.43c0,0.63,0.25,0.94,0.74,0.94c0.2,0,0.4-0.06,0.6-0.17V122.15z"/>
		<path fill="#FFFFFF" d="M404.24,116.22l-2.44,6.48c-0.59,1.56-1.47,2.34-2.65,2.34c-0.45,0-0.82-0.05-1.11-0.15v-1.48
			c0.25,0.14,0.51,0.22,0.8,0.22c0.48,0,0.81-0.22,1-0.67l0.32-0.74l-2.44-5.99h2.05l1.12,3.65c0.07,0.23,0.13,0.49,0.16,0.8h0.02
			c0.04-0.23,0.1-0.49,0.19-0.79l1.13-3.66H404.24z"/>
		<path fill="#FFFFFF" d="M359.9,135.92h-0.02v3.46h-1.85v-8.76h1.85v0.9h0.02c0.46-0.7,1.1-1.05,1.93-1.05
			c0.78,0,1.38,0.27,1.8,0.8s0.64,1.26,0.64,2.18c0,1-0.25,1.8-0.74,2.41s-1.15,0.91-1.97,0.91
			C360.83,136.77,360.27,136.48,359.9,135.92z M359.84,133.46v0.48c0,0.41,0.11,0.75,0.33,1.01s0.51,0.39,0.86,0.39
			c0.42,0,0.75-0.16,0.98-0.49s0.35-0.79,0.35-1.39c0-1.05-0.41-1.58-1.23-1.58c-0.38,0-0.69,0.14-0.93,0.43
			S359.84,132.99,359.84,133.46z"/>
		<path fill="#FFFFFF" d="M367.35,136.62h-1.85v-8.88h1.85V136.62z"/>
		<path fill="#FFFFFF" d="M373.93,136.62h-1.75v-0.86h-0.02c-0.4,0.67-1,1.01-1.79,1.01c-0.58,0-1.04-0.17-1.37-0.5
			s-0.5-0.77-0.5-1.32c0-1.16,0.69-1.84,2.07-2.02l1.63-0.22c0-0.66-0.36-0.98-1.07-0.98c-0.71,0-1.39,0.21-2.04,0.64v-1.39
			c0.26-0.13,0.61-0.25,1.06-0.35s0.85-0.15,1.22-0.15c1.71,0,2.57,0.85,2.57,2.56V136.62z M372.19,134.18v-0.4l-1.09,0.14
			c-0.6,0.08-0.9,0.35-0.9,0.81c0,0.21,0.07,0.38,0.22,0.52s0.34,0.2,0.59,0.2c0.35,0,0.63-0.12,0.85-0.36
			S372.19,134.55,372.19,134.18z"/>
		<path fill="#FFFFFF" d="M378.93,136.55c-0.27,0.14-0.69,0.22-1.24,0.22c-1.3,0-1.96-0.68-1.96-2.03v-2.75h-0.97v-1.37h0.97v-1.29
			l1.85-0.53v1.82h1.35v1.37h-1.35v2.43c0,0.63,0.25,0.94,0.74,0.94c0.2,0,0.4-0.06,0.6-0.17V136.55z"/>
		<path fill="#FFFFFF" d="M384.05,129.15c-0.24-0.09-0.47-0.14-0.69-0.14c-0.59,0-0.89,0.32-0.89,0.97v0.64h1.37v1.37h-1.37v4.63
			h-1.85v-4.63h-1.01v-1.37h1.01v-0.74c0-0.68,0.22-1.23,0.67-1.65s1.05-0.63,1.82-0.63c0.38,0,0.69,0.04,0.94,0.12V129.15z"/>
		<path fill="#FFFFFF" d="M387.62,136.77c-1,0-1.79-0.28-2.36-0.84s-0.86-1.32-0.86-2.28c0-0.99,0.3-1.77,0.89-2.33
			s1.4-0.84,2.41-0.84c1,0,1.78,0.28,2.34,0.84s0.85,1.3,0.85,2.22c0,1-0.29,1.78-0.88,2.36S388.63,136.77,387.62,136.77z
			 M387.67,131.89c-0.44,0-0.78,0.15-1.02,0.45s-0.36,0.73-0.36,1.28c0,1.15,0.46,1.73,1.39,1.73c0.89,0,1.33-0.59,1.33-1.78
			C389.01,132.45,388.56,131.89,387.67,131.89z"/>
		<path fill="#FFFFFF" d="M396,132.29c-0.22-0.12-0.48-0.18-0.78-0.18c-0.4,0-0.72,0.15-0.94,0.44s-0.34,0.7-0.34,1.2v2.87h-1.85v-6
			h1.85v1.11h0.02c0.29-0.81,0.82-1.22,1.58-1.22c0.2,0,0.35,0.02,0.46,0.07V132.29z"/>
		<path fill="#FFFFFF" d="M406.39,136.62h-1.85v-3.42c0-0.87-0.32-1.31-0.96-1.31c-0.3,0-0.55,0.13-0.74,0.39s-0.29,0.59-0.29,0.98
			v3.36h-1.85v-3.46c0-0.85-0.31-1.27-0.94-1.27c-0.32,0-0.57,0.13-0.76,0.38s-0.28,0.59-0.28,1.02v3.33h-1.85v-6h1.85v0.94h0.02
			c0.19-0.32,0.46-0.58,0.81-0.78s0.72-0.3,1.13-0.3c0.85,0,1.43,0.37,1.74,1.12c0.46-0.75,1.13-1.12,2.02-1.12
			c1.3,0,1.96,0.8,1.96,2.41V136.62z"/>
	</g>
	<g>
		<rect x="329.66" y="27.47" fill="none" width="105" height="27.13"/>
		<path d="M366.74,36.35h-2.06l-0.6-1.87h-2.99l-0.59,1.87h-2.05l3.06-8.4h2.24L366.74,36.35z M363.64,33.03l-0.9-2.82
			c-0.07-0.21-0.11-0.46-0.14-0.76h-0.05c-0.02,0.25-0.07,0.49-0.15,0.73l-0.91,2.85H363.64z"/>
		<path d="M367.48,36.03v-1.88c0.34,0.29,0.71,0.5,1.11,0.64s0.8,0.21,1.21,0.21c0.24,0,0.45-0.02,0.62-0.06s0.33-0.1,0.45-0.18
			s0.21-0.17,0.27-0.27s0.09-0.22,0.09-0.34c0-0.16-0.05-0.31-0.14-0.44s-0.22-0.25-0.38-0.36s-0.35-0.21-0.58-0.32
			s-0.46-0.21-0.72-0.31c-0.66-0.27-1.15-0.61-1.47-1s-0.48-0.87-0.48-1.43c0-0.44,0.09-0.81,0.26-1.13s0.42-0.57,0.72-0.78
			s0.65-0.35,1.05-0.45s0.82-0.14,1.27-0.14c0.44,0,0.83,0.03,1.16,0.08s0.65,0.13,0.93,0.24v1.75c-0.14-0.1-0.29-0.18-0.46-0.26
			s-0.34-0.14-0.51-0.18s-0.35-0.08-0.52-0.11s-0.34-0.04-0.5-0.04c-0.21,0-0.41,0.02-0.59,0.06s-0.32,0.1-0.45,0.17
			s-0.21,0.16-0.28,0.27s-0.1,0.22-0.1,0.35c0,0.14,0.04,0.27,0.11,0.38s0.18,0.22,0.32,0.32s0.3,0.2,0.5,0.29s0.42,0.19,0.66,0.3
			c0.34,0.14,0.64,0.29,0.91,0.45s0.5,0.34,0.69,0.54s0.34,0.43,0.44,0.68s0.15,0.55,0.15,0.89c0,0.47-0.09,0.86-0.27,1.18
			s-0.42,0.58-0.72,0.77s-0.66,0.34-1.06,0.42s-0.83,0.13-1.28,0.13c-0.46,0-0.9-0.04-1.32-0.12S367.79,36.19,367.48,36.03z"/>
		<path d="M376.48,33.46v2.89h-1.89v-8.4h2.96c2.12,0,3.18,0.89,3.18,2.68c0,0.84-0.3,1.53-0.91,2.05s-1.42,0.78-2.43,0.78H376.48z
			 M376.48,29.41v2.62h0.74c1.01,0,1.51-0.44,1.51-1.32c0-0.86-0.5-1.29-1.51-1.29H376.48z"/>
		<path d="M381.38,36.5c-0.3,0-0.56-0.09-0.76-0.28s-0.3-0.42-0.3-0.69c0-0.28,0.1-0.51,0.31-0.69s0.47-0.27,0.78-0.27
			c0.32,0,0.58,0.09,0.78,0.27s0.3,0.41,0.3,0.69c0,0.29-0.1,0.52-0.31,0.7S381.71,36.5,381.38,36.5z"/>
		<path d="M391.6,36.35h-1.91l-3.46-5.28c-0.2-0.31-0.34-0.54-0.42-0.7h-0.02c0.03,0.3,0.05,0.75,0.05,1.36v4.62h-1.79v-8.4h2.04
			l3.33,5.12c0.15,0.23,0.29,0.46,0.42,0.69h0.02c-0.03-0.2-0.05-0.58-0.05-1.15v-4.65h1.79V36.35z"/>
		<path d="M398.46,36.35h-5.04v-8.4h4.85v1.54h-2.95v1.87h2.75v1.54h-2.75v1.92h3.15V36.35z"/>
		<path d="M405.76,29.49h-2.4v6.86h-1.9v-6.86h-2.38v-1.54h6.68V29.49z"/>
		<path d="M361.52,42.35l-2.22,8.4h-2.1l-1.39-5.39c-0.07-0.28-0.12-0.6-0.13-0.94h-0.02c-0.04,0.38-0.09,0.7-0.15,0.94l-1.43,5.39
			h-2.19l-2.21-8.4h2.07l1.18,5.6c0.05,0.24,0.09,0.56,0.11,0.96h0.04c0.02-0.3,0.07-0.63,0.17-0.98l1.52-5.57h2.03l1.38,5.64
			c0.05,0.21,0.1,0.51,0.13,0.9h0.02c0.02-0.31,0.06-0.62,0.12-0.94l1.16-5.61H361.52z"/>
		<path d="M367.47,48.28h-3.91c0.06,0.87,0.61,1.31,1.65,1.31c0.66,0,1.24-0.16,1.74-0.47v1.34c-0.55,0.3-1.28,0.45-2.16,0.45
			c-0.97,0-1.72-0.27-2.26-0.81s-0.8-1.29-0.8-2.25c0-1,0.29-1.79,0.87-2.37s1.29-0.87,2.13-0.87c0.88,0,1.55,0.26,2.03,0.78
			s0.72,1.22,0.72,2.12V48.28z M365.76,47.15c0-0.86-0.35-1.29-1.04-1.29c-0.3,0-0.55,0.12-0.77,0.37s-0.35,0.55-0.4,0.92H365.76z"
			/>
		<path d="M370.53,50.06h-0.02v0.7h-1.85v-8.88h1.85v3.79h0.02c0.46-0.7,1.11-1.05,1.95-1.05c0.77,0,1.37,0.27,1.79,0.8
			s0.63,1.26,0.63,2.18c0,1-0.24,1.8-0.73,2.41s-1.14,0.91-1.96,0.91C371.47,50.9,370.91,50.62,370.53,50.06z M370.48,47.53v0.62
			c0,0.39,0.11,0.71,0.33,0.96s0.51,0.38,0.86,0.38c0.42,0,0.75-0.16,0.98-0.49s0.35-0.79,0.35-1.39c0-0.5-0.11-0.88-0.32-1.16
			s-0.52-0.42-0.91-0.42c-0.37,0-0.68,0.14-0.92,0.42S370.48,47.08,370.48,47.53z"/>
		<path d="M379.2,50.43v-1.88c0.34,0.29,0.71,0.5,1.11,0.64s0.8,0.21,1.21,0.21c0.24,0,0.45-0.02,0.62-0.06s0.33-0.1,0.45-0.18
			s0.21-0.17,0.27-0.27s0.09-0.22,0.09-0.34c0-0.16-0.05-0.31-0.14-0.44s-0.22-0.25-0.38-0.36s-0.35-0.21-0.58-0.32
			s-0.46-0.21-0.72-0.31c-0.66-0.27-1.15-0.61-1.47-1s-0.48-0.87-0.48-1.43c0-0.44,0.09-0.81,0.26-1.13s0.42-0.57,0.72-0.78
			s0.65-0.35,1.05-0.45s0.82-0.14,1.27-0.14c0.44,0,0.83,0.03,1.16,0.08s0.65,0.13,0.93,0.24v1.75c-0.14-0.1-0.29-0.18-0.46-0.26
			s-0.34-0.14-0.51-0.18s-0.35-0.08-0.52-0.11s-0.34-0.04-0.5-0.04c-0.21,0-0.41,0.02-0.59,0.06s-0.32,0.1-0.45,0.17
			s-0.21,0.16-0.28,0.27s-0.1,0.22-0.1,0.35c0,0.14,0.04,0.27,0.11,0.38s0.18,0.22,0.32,0.32s0.3,0.2,0.5,0.29s0.42,0.19,0.66,0.3
			c0.34,0.14,0.64,0.29,0.91,0.45s0.5,0.34,0.69,0.54s0.34,0.43,0.44,0.68s0.15,0.55,0.15,0.89c0,0.47-0.09,0.86-0.27,1.18
			s-0.42,0.58-0.72,0.77s-0.66,0.34-1.06,0.42s-0.83,0.13-1.28,0.13c-0.46,0-0.9-0.04-1.32-0.12S379.5,50.59,379.2,50.43z"/>
		<path d="M391.53,48.28h-3.91c0.06,0.87,0.61,1.31,1.65,1.31c0.66,0,1.24-0.16,1.74-0.47v1.34c-0.55,0.3-1.28,0.45-2.16,0.45
			c-0.97,0-1.72-0.27-2.26-0.81s-0.8-1.29-0.8-2.25c0-1,0.29-1.79,0.87-2.37s1.29-0.87,2.13-0.87c0.88,0,1.55,0.26,2.03,0.78
			s0.72,1.22,0.72,2.12V48.28z M389.81,47.15c0-0.86-0.35-1.29-1.04-1.29c-0.3,0-0.55,0.12-0.77,0.37s-0.35,0.55-0.4,0.92H389.81z"
			/>
		<path d="M396.62,46.42c-0.22-0.12-0.48-0.18-0.78-0.18c-0.4,0-0.72,0.15-0.94,0.44s-0.34,0.7-0.34,1.2v2.87h-1.85v-6h1.85v1.11
			h0.02c0.29-0.81,0.82-1.22,1.58-1.22c0.2,0,0.35,0.02,0.46,0.07V46.42z"/>
		<path d="M403.57,44.75l-2.23,6h-2.11l-2.13-6h1.98l1.04,3.7c0.12,0.42,0.19,0.77,0.21,1.07h0.02c0.03-0.28,0.1-0.62,0.22-1.03
			l1.07-3.73H403.57z"/>
		<path d="M409.57,48.28h-3.91c0.06,0.87,0.61,1.31,1.65,1.31c0.66,0,1.24-0.16,1.74-0.47v1.34c-0.55,0.3-1.28,0.45-2.16,0.45
			c-0.97,0-1.72-0.27-2.26-0.81s-0.8-1.29-0.8-2.25c0-1,0.29-1.79,0.87-2.37s1.29-0.87,2.13-0.87c0.88,0,1.55,0.26,2.03,0.78
			s0.72,1.22,0.72,2.12V48.28z M407.86,47.15c0-0.86-0.35-1.29-1.04-1.29c-0.3,0-0.55,0.12-0.77,0.37s-0.35,0.55-0.4,0.92H407.86z"
			/>
		<path d="M414.67,46.42c-0.22-0.12-0.48-0.18-0.78-0.18c-0.4,0-0.72,0.15-0.94,0.44s-0.34,0.7-0.34,1.2v2.87h-1.85v-6h1.85v1.11
			h0.02c0.29-0.81,0.82-1.22,1.58-1.22c0.2,0,0.35,0.02,0.46,0.07V46.42z"/>
	</g>
	
		<use xlink:href="#New_Symbol_41"  width="21" height="20" x="-10.5" y="-10" transform="matrix(1 0 0 -1 159.5504 26.5385)" overflow="visible"/>
	
		<use xlink:href="#New_Symbol_42"  width="21" height="20" x="-10.5" y="-10" transform="matrix(1 0 0 -1 179.5504 56.4203)" overflow="visible"/>
	<g>
		<path fill="#1E1E1E" d="M215.25,78.36v3.18h-0.98v-8.4h2.31c0.9,0,1.59,0.22,2.09,0.66s0.74,1.05,0.74,1.85s-0.27,1.45-0.82,1.96
			s-1.29,0.76-2.22,0.76H215.25z M215.25,74.03v3.45h1.03c0.68,0,1.2-0.16,1.56-0.47s0.54-0.75,0.54-1.32
			c0-1.11-0.66-1.66-1.97-1.66H215.25z"/>
		<path fill="#1E1E1E" d="M223.81,76.51c-0.17-0.13-0.41-0.19-0.73-0.19c-0.41,0-0.75,0.19-1.03,0.58s-0.41,0.91-0.41,1.58v3.06
			h-0.96v-6h0.96v1.24h0.02c0.14-0.42,0.35-0.75,0.63-0.99s0.6-0.35,0.94-0.35c0.25,0,0.44,0.03,0.57,0.08V76.51z"/>
		<path fill="#1E1E1E" d="M227.37,81.68c-0.89,0-1.59-0.28-2.12-0.84s-0.79-1.3-0.79-2.23c0-1.01,0.28-1.79,0.83-2.36
			s1.29-0.85,2.23-0.85c0.89,0,1.59,0.28,2.09,0.83s0.75,1.31,0.75,2.29c0,0.96-0.27,1.72-0.81,2.3S228.28,81.68,227.37,81.68z
			 M227.44,76.21c-0.62,0-1.11,0.21-1.46,0.63s-0.54,1-0.54,1.74c0,0.71,0.18,1.27,0.54,1.68s0.85,0.62,1.46,0.62
			c0.62,0,1.1-0.2,1.43-0.6s0.5-0.97,0.5-1.72c0-0.75-0.17-1.33-0.5-1.73S228.06,76.21,227.44,76.21z"/>
		<path fill="#1E1E1E" d="M240.36,81.54h-0.96v-3.45c0-0.66-0.1-1.14-0.31-1.44s-0.55-0.45-1.03-0.45c-0.41,0-0.76,0.19-1.05,0.56
			s-0.43,0.82-0.43,1.35v3.42h-0.96v-3.56c0-1.18-0.46-1.77-1.37-1.77c-0.42,0-0.77,0.18-1.04,0.53s-0.41,0.81-0.41,1.38v3.42h-0.96
			v-6h0.96v0.95h0.02c0.43-0.73,1.05-1.09,1.86-1.09c0.41,0,0.77,0.11,1.07,0.34s0.51,0.53,0.63,0.9c0.45-0.83,1.11-1.24,1.99-1.24
			c1.32,0,1.98,0.81,1.98,2.44V81.54z"/>
		<path fill="#1E1E1E" d="M243.09,80.67h-0.02v3.63h-0.96v-8.76h0.96v1.05h0.02c0.47-0.8,1.16-1.2,2.07-1.2
			c0.77,0,1.38,0.27,1.81,0.81s0.65,1.26,0.65,2.16c0,1-0.24,1.81-0.73,2.41s-1.16,0.91-2,0.91
			C244.11,81.68,243.51,81.34,243.09,80.67z M243.07,78.25v0.84c0,0.5,0.16,0.92,0.48,1.26s0.73,0.52,1.23,0.52
			c0.58,0,1.04-0.22,1.37-0.67s0.5-1.06,0.5-1.86c0-0.67-0.15-1.19-0.46-1.57s-0.73-0.57-1.25-0.57c-0.56,0-1.01,0.19-1.35,0.58
			S243.07,77.67,243.07,78.25z"/>
		<path fill="#1E1E1E" d="M251.88,81.48c-0.23,0.13-0.53,0.19-0.9,0.19c-1.05,0-1.58-0.59-1.58-1.76v-3.55h-1.03v-0.82h1.03v-1.46
			l0.96-0.31v1.78h1.51v0.82h-1.51v3.38c0,0.4,0.07,0.69,0.21,0.86s0.36,0.26,0.68,0.26c0.24,0,0.45-0.07,0.63-0.2V81.48z"/>
		<path fill="#1E1E1E" d="M218.22,94.26c-0.46,0.28-1.01,0.42-1.64,0.42c-0.86,0-1.55-0.28-2.07-0.83s-0.79-1.28-0.79-2.17
			c0-0.99,0.28-1.78,0.85-2.38s1.32-0.9,2.27-0.9c0.53,0,0.99,0.1,1.39,0.29v0.98c-0.45-0.31-0.92-0.47-1.43-0.47
			c-0.61,0-1.12,0.22-1.51,0.66s-0.59,1.02-0.59,1.73c0,0.7,0.18,1.26,0.55,1.66s0.86,0.61,1.49,0.61c0.52,0,1.02-0.17,1.48-0.52
			V94.26z"/>
		<path fill="#1E1E1E" d="M222.64,89.51c-0.17-0.13-0.41-0.19-0.73-0.19c-0.41,0-0.75,0.19-1.03,0.58s-0.41,0.91-0.41,1.58v3.06
			h-0.96v-6h0.96v1.24h0.02c0.14-0.42,0.35-0.75,0.63-0.99s0.6-0.35,0.94-0.35c0.25,0,0.44,0.03,0.57,0.08V89.51z"/>
		<path fill="#1E1E1E" d="M228.51,91.78h-4.24c0.02,0.67,0.2,1.18,0.54,1.55s0.82,0.54,1.42,0.54c0.68,0,1.3-0.22,1.86-0.67v0.9
			c-0.53,0.38-1.22,0.57-2.09,0.57c-0.85,0-1.51-0.27-2-0.82s-0.73-1.31-0.73-2.3c0-0.93,0.26-1.69,0.79-2.28s1.19-0.88,1.97-0.88
			s1.39,0.25,1.82,0.76s0.64,1.21,0.64,2.12V91.78z M227.53,90.96c0-0.55-0.14-0.99-0.4-1.29s-0.63-0.46-1.1-0.46
			c-0.45,0-0.84,0.16-1.15,0.49s-0.51,0.75-0.59,1.27H227.53z"/>
		<path fill="#1E1E1E" d="M235.15,94.54h-0.96v-1.02h-0.02c-0.45,0.77-1.13,1.16-2.06,1.16c-0.75,0-1.36-0.27-1.81-0.81
			s-0.68-1.27-0.68-2.19c0-0.99,0.25-1.79,0.75-2.38s1.17-0.9,2-0.9c0.82,0,1.42,0.32,1.8,0.97h0.02v-3.71h0.96V94.54z
			 M234.19,91.83v-0.88c0-0.48-0.16-0.89-0.48-1.23s-0.73-0.5-1.22-0.5c-0.59,0-1.05,0.21-1.38,0.64s-0.5,1.02-0.5,1.78
			c0,0.69,0.16,1.24,0.48,1.64s0.75,0.6,1.3,0.6c0.54,0,0.97-0.19,1.3-0.58S234.19,92.42,234.19,91.83z"/>
		<path fill="#1E1E1E" d="M241.86,91.78h-4.24c0.02,0.67,0.2,1.18,0.54,1.55s0.82,0.54,1.42,0.54c0.68,0,1.3-0.22,1.86-0.67v0.9
			c-0.53,0.38-1.22,0.57-2.09,0.57c-0.85,0-1.51-0.27-2-0.82s-0.73-1.31-0.73-2.3c0-0.93,0.26-1.69,0.79-2.28s1.19-0.88,1.97-0.88
			s1.39,0.25,1.82,0.76s0.64,1.21,0.64,2.12V91.78z M240.88,90.96c0-0.55-0.14-0.99-0.4-1.29s-0.63-0.46-1.1-0.46
			c-0.45,0-0.84,0.16-1.15,0.49s-0.51,0.75-0.59,1.27H240.88z"/>
		<path fill="#1E1E1E" d="M248.3,94.54h-0.96v-3.42c0-1.27-0.46-1.91-1.39-1.91c-0.48,0-0.88,0.18-1.19,0.54s-0.47,0.82-0.47,1.37
			v3.42h-0.96v-6h0.96v1h0.02c0.45-0.76,1.11-1.14,1.97-1.14c0.66,0,1.16,0.21,1.51,0.64s0.52,1.04,0.52,1.84V94.54z"/>
		<path fill="#1E1E1E" d="M252.79,94.48c-0.23,0.13-0.53,0.19-0.9,0.19c-1.05,0-1.58-0.59-1.58-1.76v-3.55h-1.03v-0.82h1.03v-1.46
			l0.96-0.31v1.78h1.51v0.82h-1.51v3.38c0,0.4,0.07,0.69,0.21,0.86s0.36,0.26,0.68,0.26c0.24,0,0.45-0.07,0.63-0.2V94.48z"/>
		<path fill="#1E1E1E" d="M254.48,87.02c-0.17,0-0.32-0.06-0.44-0.18s-0.18-0.27-0.18-0.45s0.06-0.33,0.18-0.45s0.27-0.18,0.44-0.18
			c0.18,0,0.33,0.06,0.45,0.18s0.18,0.27,0.18,0.45c0,0.17-0.06,0.32-0.18,0.44S254.65,87.02,254.48,87.02z M254.94,94.54h-0.96v-6
			h0.96V94.54z"/>
		<path fill="#1E1E1E" d="M261.08,94.54h-0.96V93.6h-0.02c-0.42,0.72-1.03,1.08-1.85,1.08c-0.6,0-1.07-0.16-1.4-0.47
			s-0.51-0.74-0.51-1.26c0-1.12,0.66-1.77,1.98-1.96l1.8-0.25c0-1.02-0.41-1.53-1.24-1.53c-0.72,0-1.38,0.25-1.96,0.74v-0.98
			c0.59-0.38,1.27-0.56,2.04-0.56c1.41,0,2.12,0.75,2.12,2.24V94.54z M260.11,91.5l-1.45,0.2c-0.45,0.06-0.78,0.17-1.01,0.33
			s-0.34,0.44-0.34,0.84c0,0.29,0.1,0.53,0.31,0.72s0.49,0.28,0.83,0.28c0.48,0,0.87-0.17,1.18-0.5s0.47-0.76,0.47-1.27V91.5z"/>
		<path fill="#1E1E1E" d="M263.78,94.54h-0.96v-8.88h0.96V94.54z"/>
		<path fill="#1E1E1E" d="M265.31,94.32v-1.03c0.52,0.39,1.1,0.58,1.73,0.58c0.84,0,1.27-0.28,1.27-0.84c0-0.16-0.04-0.3-0.11-0.41
			s-0.17-0.21-0.29-0.3s-0.27-0.16-0.43-0.23s-0.34-0.14-0.54-0.21c-0.27-0.11-0.5-0.21-0.7-0.32s-0.37-0.23-0.5-0.36
			s-0.24-0.29-0.3-0.46s-0.1-0.37-0.1-0.6c0-0.28,0.06-0.53,0.19-0.75s0.3-0.4,0.52-0.54s0.46-0.26,0.74-0.33s0.56-0.11,0.85-0.11
			c0.52,0,0.98,0.09,1.39,0.27v0.97c-0.44-0.29-0.95-0.43-1.52-0.43c-0.18,0-0.34,0.02-0.49,0.06s-0.27,0.1-0.37,0.17
			s-0.18,0.16-0.24,0.27s-0.08,0.22-0.08,0.34c0,0.16,0.03,0.29,0.08,0.39s0.14,0.2,0.25,0.28s0.24,0.16,0.4,0.22
			s0.33,0.14,0.53,0.22c0.27,0.1,0.5,0.21,0.71,0.31s0.39,0.23,0.54,0.36s0.26,0.29,0.34,0.47s0.12,0.38,0.12,0.63
			c0,0.3-0.07,0.55-0.2,0.77s-0.31,0.4-0.52,0.54s-0.47,0.25-0.76,0.32s-0.58,0.11-0.9,0.11C266.3,94.68,265.77,94.56,265.31,94.32z
			"/>
	</g>
	<g>
		<path fill="#1E1E1E" d="M232.71,121.74h-2.43v7.51h-0.98v-7.51h-2.42v-0.89h5.83V121.74z"/>
		<path fill="#1E1E1E" d="M235.55,129.39c-0.89,0-1.59-0.28-2.12-0.84s-0.79-1.3-0.79-2.23c0-1.01,0.28-1.79,0.83-2.36
			s1.29-0.85,2.23-0.85c0.89,0,1.59,0.28,2.09,0.83s0.75,1.31,0.75,2.29c0,0.96-0.27,1.72-0.81,2.3S236.46,129.39,235.55,129.39z
			 M235.63,123.92c-0.62,0-1.11,0.21-1.46,0.63s-0.54,1-0.54,1.74c0,0.71,0.18,1.27,0.54,1.68s0.85,0.62,1.46,0.62
			c0.62,0,1.1-0.2,1.43-0.6s0.5-0.97,0.5-1.72c0-0.75-0.17-1.33-0.5-1.73S236.25,123.92,235.63,123.92z"/>
		<path fill="#1E1E1E" d="M245,129.25h-1.35l-2.65-2.88h-0.02v2.88h-0.96v-8.88h0.96V126h0.02l2.52-2.75h1.26l-2.78,2.89L245,129.25
			z"/>
		<path fill="#1E1E1E" d="M250.52,126.49h-4.24c0.02,0.67,0.2,1.18,0.54,1.55s0.82,0.54,1.42,0.54c0.68,0,1.3-0.22,1.86-0.67v0.9
			c-0.53,0.38-1.22,0.57-2.09,0.57c-0.85,0-1.51-0.27-2-0.82s-0.73-1.31-0.73-2.3c0-0.93,0.26-1.69,0.79-2.28s1.19-0.88,1.97-0.88
			s1.39,0.25,1.82,0.76s0.64,1.21,0.64,2.12V126.49z M249.54,125.67c0-0.55-0.14-0.99-0.4-1.29s-0.63-0.46-1.1-0.46
			c-0.45,0-0.84,0.16-1.15,0.49s-0.51,0.75-0.59,1.27H249.54z"/>
		<path fill="#1E1E1E" d="M256.96,129.25h-0.96v-3.42c0-1.27-0.46-1.91-1.39-1.91c-0.48,0-0.88,0.18-1.19,0.54s-0.47,0.82-0.47,1.37
			v3.42h-0.96v-6h0.96v1h0.02c0.45-0.76,1.11-1.14,1.97-1.14c0.66,0,1.16,0.21,1.51,0.64s0.52,1.04,0.52,1.84V129.25z"/>
	</g>
	<g>
		<path fill="#1E1E1E" d="M232.71,192.31h-2.43v7.51h-0.98v-7.51h-2.42v-0.89h5.83V192.31z"/>
		<path fill="#1E1E1E" d="M235.55,199.96c-0.89,0-1.59-0.28-2.12-0.84s-0.79-1.3-0.79-2.23c0-1.01,0.28-1.79,0.83-2.36
			s1.29-0.85,2.23-0.85c0.89,0,1.59,0.28,2.09,0.83s0.75,1.31,0.75,2.29c0,0.96-0.27,1.72-0.81,2.3S236.46,199.96,235.55,199.96z
			 M235.63,194.49c-0.62,0-1.11,0.21-1.46,0.63s-0.54,1-0.54,1.74c0,0.71,0.18,1.27,0.54,1.68s0.85,0.62,1.46,0.62
			c0.62,0,1.1-0.2,1.43-0.6s0.5-0.97,0.5-1.72c0-0.75-0.17-1.33-0.5-1.73S236.25,194.49,235.63,194.49z"/>
		<path fill="#1E1E1E" d="M245,199.82h-1.35l-2.65-2.88h-0.02v2.88h-0.96v-8.88h0.96v5.63h0.02l2.52-2.75h1.26l-2.78,2.89
			L245,199.82z"/>
		<path fill="#1E1E1E" d="M250.52,197.06h-4.24c0.02,0.67,0.2,1.18,0.54,1.55s0.82,0.54,1.42,0.54c0.68,0,1.3-0.22,1.86-0.67v0.9
			c-0.53,0.38-1.22,0.57-2.09,0.57c-0.85,0-1.51-0.27-2-0.82s-0.73-1.31-0.73-2.3c0-0.93,0.26-1.69,0.79-2.28s1.19-0.88,1.97-0.88
			s1.39,0.25,1.82,0.76s0.64,1.21,0.64,2.12V197.06z M249.54,196.25c0-0.55-0.14-0.99-0.4-1.29s-0.63-0.46-1.1-0.46
			c-0.45,0-0.84,0.16-1.15,0.49s-0.51,0.75-0.59,1.27H249.54z"/>
		<path fill="#1E1E1E" d="M256.96,199.82h-0.96v-3.42c0-1.27-0.46-1.91-1.39-1.91c-0.48,0-0.88,0.18-1.19,0.54s-0.47,0.82-0.47,1.37
			v3.42h-0.96v-6h0.96v1h0.02c0.45-0.76,1.11-1.14,1.97-1.14c0.66,0,1.16,0.21,1.51,0.64s0.52,1.04,0.52,1.84V199.82z"/>
	</g>
	<g>
		<g>
			<path fill="#1E1E1E" d="M220.03,140.02h-2.37v2.36h-0.78v-2.36h-2.36v-0.79h2.36v-2.36h0.78v2.36h2.37V140.02z"/>
			<path fill="#1E1E1E" d="M228.76,138.09c-0.17-0.13-0.41-0.19-0.73-0.19c-0.41,0-0.75,0.19-1.03,0.58s-0.41,0.91-0.41,1.58v3.06
				h-0.96v-6h0.96v1.24h0.02c0.14-0.42,0.35-0.75,0.63-0.99s0.6-0.35,0.94-0.35c0.25,0,0.44,0.03,0.57,0.08V138.09z"/>
			<path fill="#1E1E1E" d="M234.64,140.36h-4.24c0.02,0.67,0.2,1.18,0.54,1.55s0.82,0.54,1.42,0.54c0.68,0,1.3-0.22,1.86-0.67v0.9
				c-0.53,0.38-1.22,0.57-2.09,0.57c-0.85,0-1.51-0.27-2-0.82s-0.73-1.31-0.73-2.3c0-0.93,0.26-1.69,0.79-2.28s1.19-0.88,1.97-0.88
				s1.39,0.25,1.82,0.76s0.64,1.21,0.64,2.12V140.36z M233.65,139.55c0-0.55-0.14-0.99-0.4-1.29s-0.63-0.46-1.1-0.46
				c-0.45,0-0.84,0.16-1.15,0.49s-0.51,0.75-0.59,1.27H233.65z"/>
			<path fill="#1E1E1E" d="M241.27,143.12h-0.96v-1.02h-0.02c-0.45,0.77-1.13,1.16-2.06,1.16c-0.75,0-1.36-0.27-1.81-0.81
				s-0.68-1.27-0.68-2.19c0-0.99,0.25-1.79,0.75-2.38s1.17-0.9,2-0.9c0.82,0,1.42,0.32,1.8,0.97h0.02v-3.71h0.96V143.12z
				 M240.31,140.41v-0.88c0-0.48-0.16-0.89-0.48-1.23s-0.73-0.5-1.22-0.5c-0.59,0-1.05,0.21-1.38,0.64s-0.5,1.02-0.5,1.78
				c0,0.69,0.16,1.24,0.48,1.64s0.75,0.6,1.3,0.6c0.54,0,0.97-0.19,1.3-0.58S240.31,141,240.31,140.41z"/>
			<path fill="#1E1E1E" d="M243.59,135.6c-0.17,0-0.32-0.06-0.44-0.18s-0.18-0.27-0.18-0.45s0.06-0.33,0.18-0.45
				s0.27-0.18,0.44-0.18c0.18,0,0.33,0.06,0.45,0.18s0.18,0.27,0.18,0.45c0,0.17-0.06,0.32-0.18,0.44S243.76,135.6,243.59,135.6z
				 M244.05,143.12h-0.96v-6h0.96V143.12z"/>
			<path fill="#1E1E1E" d="M249,138.09c-0.17-0.13-0.41-0.19-0.73-0.19c-0.41,0-0.75,0.19-1.03,0.58s-0.41,0.91-0.41,1.58v3.06
				h-0.96v-6h0.96v1.24h0.02c0.14-0.42,0.35-0.75,0.63-0.99s0.6-0.35,0.94-0.35c0.25,0,0.44,0.03,0.57,0.08V138.09z"/>
			<path fill="#1E1E1E" d="M254.88,140.36h-4.24c0.02,0.67,0.2,1.18,0.54,1.55s0.82,0.54,1.42,0.54c0.68,0,1.3-0.22,1.86-0.67v0.9
				c-0.53,0.38-1.22,0.57-2.09,0.57c-0.85,0-1.51-0.27-2-0.82s-0.73-1.31-0.73-2.3c0-0.93,0.26-1.69,0.79-2.28s1.19-0.88,1.97-0.88
				s1.39,0.25,1.82,0.76s0.64,1.21,0.64,2.12V140.36z M253.9,139.55c0-0.55-0.14-0.99-0.4-1.29s-0.63-0.46-1.1-0.46
				c-0.45,0-0.84,0.16-1.15,0.49s-0.51,0.75-0.59,1.27H253.9z"/>
			<path fill="#1E1E1E" d="M260.46,142.85c-0.46,0.28-1.01,0.42-1.64,0.42c-0.86,0-1.55-0.28-2.07-0.83s-0.79-1.28-0.79-2.17
				c0-0.99,0.28-1.78,0.85-2.38s1.32-0.9,2.27-0.9c0.53,0,0.99,0.1,1.39,0.29v0.98c-0.45-0.31-0.92-0.47-1.43-0.47
				c-0.61,0-1.12,0.22-1.51,0.66s-0.59,1.02-0.59,1.73c0,0.7,0.18,1.26,0.55,1.66s0.86,0.61,1.49,0.61c0.52,0,1.02-0.17,1.48-0.52
				V142.85z"/>
			<path fill="#1E1E1E" d="M264.9,143.06c-0.23,0.13-0.53,0.19-0.9,0.19c-1.05,0-1.58-0.59-1.58-1.76v-3.55h-1.03v-0.82h1.03v-1.46
				l0.96-0.31v1.78h1.51v0.82h-1.51v3.38c0,0.4,0.07,0.69,0.21,0.86s0.36,0.26,0.68,0.26c0.24,0,0.45-0.07,0.63-0.2V143.06z"/>
			<path fill="#1E1E1E" d="M275.74,139.72c0,2.36-1.06,3.54-3.19,3.54c-2.04,0-3.06-1.13-3.06-3.4v-5.14h0.98v5.07
				c0,1.72,0.73,2.58,2.18,2.58c1.4,0,2.1-0.83,2.1-2.5v-5.16h0.98V139.72z"/>
			<path fill="#1E1E1E" d="M283.78,143.12h-1.17l-1.41-2.36c-0.13-0.22-0.25-0.41-0.38-0.56s-0.25-0.28-0.37-0.38
				s-0.26-0.17-0.41-0.21s-0.31-0.07-0.5-0.07h-0.81v3.57h-0.98v-8.4h2.51c0.37,0,0.71,0.05,1.02,0.14s0.58,0.23,0.81,0.42
				s0.41,0.42,0.54,0.7s0.19,0.61,0.19,0.98c0,0.29-0.04,0.56-0.13,0.81s-0.21,0.46-0.38,0.65s-0.36,0.35-0.59,0.49
				s-0.49,0.24-0.77,0.31v0.02c0.14,0.06,0.26,0.13,0.37,0.21s0.2,0.17,0.3,0.28s0.19,0.23,0.28,0.37s0.19,0.3,0.31,0.48
				L283.78,143.12z M278.74,135.61v3.05h1.34c0.25,0,0.47-0.04,0.68-0.11s0.39-0.18,0.54-0.32s0.27-0.31,0.36-0.51
				s0.13-0.43,0.13-0.68c0-0.45-0.15-0.8-0.44-1.05s-0.71-0.38-1.26-0.38H278.74z"/>
			<path fill="#1E1E1E" d="M289.26,143.12h-4.36v-8.4h0.98v7.51h3.38V143.12z"/>
		</g>
	</g>
	<g>
		<rect x="16.5" y="117.39" fill="none" width="72" height="26.45"/>
		<path fill="#1E1E1E" d="M51.58,117.87l-2.22,8.4h-2.1l-1.39-5.39c-0.07-0.28-0.12-0.6-0.13-0.94h-0.02
			c-0.04,0.38-0.09,0.7-0.15,0.94l-1.43,5.39h-2.19l-2.21-8.4h2.07l1.18,5.6c0.05,0.24,0.09,0.56,0.11,0.96h0.04
			c0.02-0.3,0.07-0.63,0.17-0.98l1.52-5.57h2.03l1.38,5.64c0.05,0.21,0.1,0.51,0.13,0.9h0.02c0.02-0.31,0.06-0.62,0.12-0.94
			l1.16-5.61H51.58z"/>
		<path fill="#1E1E1E" d="M57.53,123.8h-3.91c0.06,0.87,0.61,1.31,1.65,1.31c0.66,0,1.24-0.16,1.74-0.47v1.34
			c-0.55,0.3-1.28,0.45-2.16,0.45c-0.97,0-1.72-0.27-2.26-0.81s-0.8-1.29-0.8-2.25c0-1,0.29-1.79,0.87-2.37s1.29-0.87,2.13-0.87
			c0.88,0,1.55,0.26,2.03,0.78s0.72,1.22,0.72,2.12V123.8z M55.81,122.66c0-0.86-0.35-1.29-1.04-1.29c-0.3,0-0.55,0.12-0.77,0.37
			s-0.35,0.55-0.4,0.92H55.81z"/>
		<path fill="#1E1E1E" d="M60.59,125.57h-0.02v0.7h-1.85v-8.88h1.85v3.79h0.02c0.46-0.7,1.11-1.05,1.95-1.05
			c0.77,0,1.37,0.27,1.79,0.8s0.63,1.26,0.63,2.18c0,1-0.24,1.8-0.73,2.41s-1.14,0.91-1.96,0.91
			C61.52,126.42,60.96,126.14,60.59,125.57z M60.53,123.04v0.62c0,0.39,0.11,0.71,0.33,0.96s0.51,0.38,0.86,0.38
			c0.42,0,0.75-0.16,0.98-0.49s0.35-0.79,0.35-1.39c0-0.5-0.11-0.88-0.32-1.16s-0.52-0.42-0.91-0.42c-0.37,0-0.68,0.14-0.92,0.42
			S60.53,122.6,60.53,123.04z"/>
		<path fill="#1E1E1E" d="M32.27,139.97h-0.02v0.7H30.4v-8.88h1.85v3.79h0.02c0.46-0.7,1.11-1.05,1.95-1.05
			c0.77,0,1.37,0.27,1.79,0.8s0.63,1.26,0.63,2.18c0,1-0.24,1.8-0.73,2.41s-1.14,0.91-1.96,0.91
			C33.21,140.82,32.65,140.54,32.27,139.97z M32.22,137.44v0.62c0,0.39,0.11,0.71,0.33,0.96s0.51,0.38,0.86,0.38
			c0.42,0,0.75-0.16,0.98-0.49s0.35-0.79,0.35-1.39c0-0.5-0.11-0.88-0.32-1.16s-0.52-0.42-0.91-0.42c-0.37,0-0.68,0.14-0.92,0.42
			S32.22,137,32.22,137.44z"/>
		<path fill="#1E1E1E" d="M41.77,136.34c-0.22-0.12-0.48-0.18-0.78-0.18c-0.4,0-0.72,0.15-0.94,0.44s-0.34,0.7-0.34,1.2v2.87h-1.85
			v-6h1.85v1.11h0.02c0.29-0.81,0.82-1.22,1.58-1.22c0.2,0,0.35,0.02,0.46,0.07V136.34z"/>
		<path fill="#1E1E1E" d="M45.58,140.82c-1,0-1.79-0.28-2.36-0.84s-0.86-1.32-0.86-2.28c0-0.99,0.3-1.77,0.89-2.33
			s1.4-0.84,2.41-0.84c1,0,1.78,0.28,2.34,0.84s0.85,1.3,0.85,2.22c0,1-0.29,1.78-0.88,2.36S46.59,140.82,45.58,140.82z
			 M45.62,135.94c-0.44,0-0.78,0.15-1.02,0.45s-0.36,0.73-0.36,1.28c0,1.15,0.46,1.73,1.39,1.73c0.89,0,1.33-0.59,1.33-1.78
			C46.97,136.5,46.52,135.94,45.62,135.94z"/>
		<path fill="#1E1E1E" d="M58.61,134.67l-1.73,6h-1.95l-0.88-3.52c-0.06-0.23-0.09-0.49-0.1-0.77h-0.04
			c-0.03,0.3-0.07,0.55-0.12,0.74l-0.95,3.54h-1.92l-1.69-6h1.89l0.83,3.91c0.04,0.18,0.07,0.41,0.09,0.67h0.04
			c0.02-0.27,0.05-0.5,0.11-0.69l1.03-3.89h1.76l0.93,3.91c0.02,0.1,0.05,0.32,0.08,0.68h0.04c0.02-0.23,0.05-0.45,0.09-0.68
			l0.78-3.91H58.61z"/>
		<path fill="#1E1E1E" d="M59.1,140.51v-1.5c0.3,0.18,0.61,0.32,0.91,0.41s0.59,0.13,0.86,0.13c0.33,0,0.59-0.04,0.78-0.13
			s0.28-0.23,0.28-0.41c0-0.12-0.04-0.21-0.13-0.29s-0.2-0.15-0.33-0.21s-0.28-0.11-0.44-0.16s-0.31-0.1-0.46-0.16
			c-0.24-0.09-0.45-0.19-0.63-0.29s-0.33-0.22-0.46-0.36s-0.22-0.29-0.28-0.47s-0.1-0.39-0.1-0.64c0-0.34,0.07-0.63,0.22-0.87
			s0.34-0.44,0.59-0.59s0.52-0.27,0.84-0.34s0.64-0.11,0.98-0.11c0.27,0,0.54,0.02,0.81,0.06s0.54,0.1,0.81,0.18v1.43
			c-0.23-0.14-0.49-0.24-0.75-0.31s-0.53-0.1-0.79-0.1c-0.12,0-0.24,0.01-0.34,0.03s-0.2,0.05-0.28,0.09s-0.15,0.09-0.19,0.16
			s-0.07,0.14-0.07,0.22c0,0.11,0.04,0.2,0.11,0.28s0.16,0.15,0.28,0.2s0.24,0.11,0.38,0.15s0.28,0.09,0.41,0.14
			c0.25,0.09,0.47,0.18,0.67,0.28s0.37,0.22,0.51,0.36s0.25,0.3,0.33,0.48s0.11,0.4,0.11,0.66c0,0.36-0.08,0.66-0.23,0.91
			s-0.36,0.46-0.62,0.62s-0.55,0.27-0.88,0.35s-0.68,0.11-1.04,0.11C60.27,140.82,59.66,140.72,59.1,140.51z"/>
		<path fill="#1E1E1E" d="M70.21,138.2h-3.91c0.06,0.87,0.61,1.31,1.65,1.31c0.66,0,1.24-0.16,1.74-0.47v1.34
			c-0.55,0.3-1.28,0.45-2.16,0.45c-0.97,0-1.72-0.27-2.26-0.81s-0.8-1.29-0.8-2.25c0-1,0.29-1.79,0.87-2.37s1.29-0.87,2.13-0.87
			c0.88,0,1.55,0.26,2.03,0.78s0.72,1.22,0.72,2.12V138.2z M68.49,137.06c0-0.86-0.35-1.29-1.04-1.29c-0.3,0-0.55,0.12-0.77,0.37
			s-0.35,0.55-0.4,0.92H68.49z"/>
		<path fill="#1E1E1E" d="M75.3,136.34c-0.22-0.12-0.48-0.18-0.78-0.18c-0.4,0-0.72,0.15-0.94,0.44s-0.34,0.7-0.34,1.2v2.87h-1.85
			v-6h1.85v1.11h0.02c0.29-0.81,0.82-1.22,1.58-1.22c0.2,0,0.35,0.02,0.46,0.07V136.34z"/>
	</g>
	<g>
	</g>
	<g>
	</g>
	<g>
	</g>
	<g>
	</g>
	<g>
	</g>
	<g>
	</g>
	<g>
	</g>
	<g>
	</g>
	<g>
	</g>
	<g>
	</g>
	<g>
	</g>
	<g>
	</g>
	<g>
	</g>
	<g>
	</g>
	<g>
	</g>
	<g>
	</g>
	<g>
	</g>
	<g>
	</g>
	<g>
	</g>
	<g>
	</g>
	<g>
	</g>
	<g>
	</g>
	<g>
	</g>
	<g>
	</g>
	<g>
	</g>
	<g>
	</g>
	<g>
	</g>
	<g>
	</g>
	<g>
	</g>
	<g>
	</g>
	<g>
	</g>
	<g>
	</g>
	<g>
	</g>
	<g>
	</g>
	<g>
	</g>
	<g>
	</g>
	<g>
	</g>
	<g>
	</g>
	<g>
	</g>
	<g>
	</g>
	<g>
	</g>
	<g>
	</g>
	<g>
	</g>
	<g>
	</g>
	<g>
	</g>
	<g>
	</g>
	<g>
	</g>
	<g>
	</g>
	<g>
	</g>
	<g>
	</g>
	<g>
	</g>
	<g>
	</g>
	<g>
	</g>
	<g>
	</g>
	<g>
	</g>
	<g>
	</g>
	<g>
	</g>
	<g>
	</g>
	<g>
	</g>
	<g>
	</g>
	<g>
	</g>
	<g>
	</g>
	<g>
	</g>
	<g>
	</g>
	<g>
	</g>
	<g>
	</g>
	<g>
	</g>
	<g>
	</g>
	<g>
	</g>
	<g>
	</g>
	<g>
	</g>
	<g>
	</g>
	<g>
	</g>
	<g>
	</g>
	<g>
	</g>
	<g>
	</g>
	<g>
	</g>
	<g>
	</g>
	<g>
	</g>
	<g>
	</g>
	<g>
	</g>
	<g>
	</g>
	<g>
	</g>
	<g>
	</g>
	<g>
	</g>
	<g>
	</g>
	<g>
	</g>
	<g>
	</g>
	<g>
	</g>
	<g>
	</g>
	<g>
	</g>
	<g>
	</g>
	<g>
	</g>
	<g>
	</g>
	<g>
	</g>
	<g>
	</g>
	<g>
	</g>
	<g>
	</g>
	<g>
	</g>
	<g>
	</g>
	<g>
	</g>
	<g>
	</g>
	<g>
	</g>
	<g>
	</g>
	<g>
	</g>
	<g>
	</g>
	<g>
	</g>
	<g>
	</g>
	<g>
	</g>
	<g>
	</g>
	<g>
	</g>
	<g>
	</g>
	<g>
	</g>
	<g>
	</g>
	<g>
	</g>
	<g>
	</g>
	<g>
	</g>
	<g>
	</g>
	<g>
	</g>
	<g>
	</g>
	<g>
	</g>
	<g>
	</g>
	<g>
	</g>
	<g>
	</g>
	<g>
	</g>
	<g>
	</g>
	<g>
	</g>
	<g>
	</g>
	<g>
	</g>
	<g>
	</g>
	<g>
	</g>
	<g>
	</g>
	<g>
	</g>
	<g>
	</g>
	<g>
	</g>
	<g>
	</g>
	<g>
	</g>
	<g>
	</g>
	<g>
	</g>
	<g>
	</g>
	<g>
	</g>
	<g>
	</g>
	<g>
	</g>
	<g>
	</g>
	<g>
	</g>
	<g>
	</g>
	<g>
	</g>
	<g>
	</g>
	<g>
	</g>
	<g>
	</g>
	<g>
	</g>
	<g>
	</g>
	<g>
	</g>
	<g>
	</g>
	<g>
	</g>
	<g>
	</g>
	<g>
	</g>
	<g>
	</g>
	<g>
	</g>
	<g>
	</g>
	<g>
	</g>
	<g>
	</g>
	<g>
	</g>
	<g>
	</g>
	<g>
	</g>
	<g>
	</g>
	<g>
	</g>
	<g>
	</g>
	<g>
	</g>
	<g>
	</g>
	<g>
	</g>
	<g>
	</g>
	<g>
	</g>
	<g>
	</g>
	<g>
	</g>
	<g>
	</g>
	<g>
	</g>
	<g>
	</g>
	<g>
	</g>
	<g>
	</g>
	<g>
	</g>
	<g>
	</g>
	<g>
	</g>
	<g>
	</g>
	<g>
	</g>
	<g>
	</g>
	<g>
	</g>
	<g>
	</g>
	<g>
	</g>
	<g>
	</g>
	<g>
	</g>
	<g>
	</g>
	<g>
	</g>
	<g>
	</g>
	<g>
	</g>
	<g>
	</g>
	<g>
	</g>
	<g>
	</g>
	<g>
	</g>
	<g>
	</g>
	<g>
	</g>
	<g>
	</g>
	<g>
	</g>
	<g>
	</g>
	<g>
	</g>
	<g>
	</g>
	<g>
	</g>
	<g>
	</g>
	<g>
	</g>
	<g>
	</g>
	<g>
	</g>
	<g>
	</g>
	<g>
	</g>
	<g>
	</g>
	<g>
	</g>
	<g>
	</g>
	<g>
	</g>
	<g>
	</g>
	<g>
	</g>
	<g>
	</g>
	<g>
	</g>
	<g>
	</g>
	<g>
	</g>
	<g>
	</g>
	<g>
	</g>
	<g>
	</g>
	<g>
	</g>
	<g>
	</g>
	<g>
	</g>
	<g>
	</g>
	<g>
	</g>
	<g>
	</g>
	<g>
	</g>
	<g>
	</g>
	<g>
	</g>
	<g>
	</g>
	<g>
	</g>
	<g>
	</g>
	<g>
	</g>
	<g>
	</g>
	<g>
	</g>
	<g>
	</g>
	<g>
	</g>
	<g>
	</g>
	<g>
	</g>
	<g>
	</g>
	<g>
	</g>
	<g>
	</g>
	<g>
	</g>
	<g>
	</g>
	<g>
	</g>
	<g>
	</g>
	<g>
	</g>
	<g>
	</g>
	<g>
	</g>
	<g>
	</g>
	<g>
	</g>
	<g>
	</g>
	<g>
	</g>
	<g>
	</g>
	<g>
	</g>
	<g>
	</g>
	<g>
	</g>
	<g>
	</g>
	<g>
	</g>
	<g>
	</g>
	<g>
	</g>
	<g>
	</g>
	<g>
	</g>
	<g>
	</g>
	<g>
	</g>
	<g>
	</g>
	<g>
	</g>
	<g>
	</g>
	<g>
	</g>
	<g>
	</g>
	<g>
	</g>
	<g>
	</g>
	<g>
	</g>
	<g>
	</g>
	<g>
	</g>
	<g>
	</g>
	<g>
	</g>
	<g>
	</g>
	<g>
	</g>
	<g>
	</g>
	<g>
	</g>
	<g>
	</g>
	<g>
	</g>
	<g>
	</g>
	<g>
	</g>
	<g>
	</g>
	<g>
	</g>
	<g>
	</g>
	<g>
	</g>
	<g>
	</g>
	<g>
	</g>
	<g>
	</g>
	<g>
	</g>
	<g>
	</g>
	<g>
	</g>
	<g>
	</g>
	<g>
	</g>
	<g>
	</g>
	<g>
	</g>
	<g>
	</g>
	<g>
	</g>
	<g>
	</g>
	<g>
	</g>
	<g>
	</g>
	<g>
	</g>
	<g>
	</g>
	<g>
	</g>
	<g>
	</g>
	<g>
	</g>
	<g>
	</g>
	<g>
	</g>
	<g>
	</g>
	<g>
	</g>
	<g>
	</g>
	<g>
	</g>
	<g>
	</g>
	<g>
	</g>
	<g>
	</g>
	<g>
	</g>
	<g>
	</g>
	<g>
	</g>
	<g>
	</g>
	<g>
	</g>
	<g>
	</g>
	<g>
	</g>
	<g>
	</g>
	<g>
	</g>
	<g>
	</g>
	<g>
	</g>
	<g>
	</g>
	<g>
	</g>
	<g>
	</g>
	<g>
	</g>
	<g>
	</g>
	<g>
	</g>
	<g>
	</g>
	<g>
	</g>
	<g>
	</g>
	<g>
	</g>
	<g>
	</g>
	<g>
	</g>
	<g>
	</g>
	<g>
	</g>
	<g>
	</g>
	<g>
	</g>
	<g>
	</g>
	<g>
	</g>
	<g>
	</g>
	<g>
	</g>
	<g>
	</g>
	<g>
	</g>
	<g>
	</g>
	<g>
	</g>
	<g>
	</g>
	<g>
	</g>
	<g>
	</g>
	<g>
	</g>
	<g>
	</g>
	<g>
	</g>
	<g>
	</g>
	<g>
	</g>
	<g>
	</g>
	<g>
	</g>
	<g>
	</g>
	<g>
	</g>
	<g>
	</g>
	<g>
	</g>
	<g>
	</g>
	<g>
	</g>
	<g>
	</g>
	<g>
	</g>
	<g>
	</g>
	<g>
	</g>
	<g>
	</g>
	<g>
	</g>
	<g>
	</g>
	<g>
	</g>
	<g>
	</g>
	<g>
	</g>
	<g>
	</g>
	<g>
	</g>
	<g>
	</g>
	<g>
	</g>
	<g>
	</g>
	<g>
	</g>
	<g>
	</g>
	<g>
	</g>
	<g>
	</g>
	<g>
	</g>
	<g>
	</g>
	<g>
	</g>
	<g>
	</g>
	<g>
	</g>
	<g>
	</g>
	<g>
	</g>
	<g>
	</g>
	<g>
	</g>
	<g>
	</g>
	<g>
	</g>
	<g>
	</g>
	<g>
	</g>
	<g>
	</g>
	<g>
	</g>
	<g>
	</g>
	<g>
	</g>
	<g>
	</g>
	<g>
	</g>
	<g>
	</g>
	<g>
	</g>
	<g>
	</g>
	<g>
	</g>
	<g>
	</g>
	<g>
	</g>
	<g>
	</g>
	<g>
	</g>
	<g>
	</g>
	<g>
	</g>
	<g>
	</g>
	<g>
	</g>
	<g>
	</g>
	<g>
	</g>
	<g>
	</g>
	<g>
	</g>
	<g>
	</g>
	<g>
	</g>
	<g>
	</g>
	<g>
	</g>
	<g>
	</g>
	<g>
	</g>
	<g>
	</g>
	<g>
	</g>
	<g>
	</g>
	<g>
	</g>
	<g>
	</g>
	<g>
	</g>
	<g>
	</g>
	<g>
	</g>
	<g>
	</g>
	<g>
	</g>
	<g>
	</g>
	<g>
	</g>
	<g>
	</g>
	<g>
	</g>
	<g>
	</g>
	<g>
	</g>
	<g>
	</g>
	<g>
	</g>
	<g>
	</g>
	<g>
	</g>
	<g>
	</g>
	<g>
	</g>
	<g>
	</g>
	<g>
	</g>
	<g>
	</g>
	<g>
	</g>
	<g>
	</g>
	<g>
	</g>
	<g>
	</g>
	<g>
	</g>
	<g>
	</g>
	<g>
	</g>
	<g>
	</g>
	<g>
	</g>
	<g>
	</g>
	<g>
	</g>
	<g>
	</g>
	<g>
	</g>
	<g>
	</g>
	<g>
	</g>
	<g>
	</g>
	<g>
	</g>
	<g>
	</g>
	<g>
	</g>
	<g>
	</g>
	<g>
	</g>
	<g>
	</g>
	<g>
	</g>
	<g>
	</g>
	<g>
	</g>
	<g>
	</g>
	<g>
	</g>
	<g>
	</g>
	<g>
	</g>
	<g>
	</g>
	<g>
	</g>
	<g>
	</g>
	<g>
	</g>
	<g>
	</g>
	<g>
	</g>
	<g>
	</g>
	<g>
	</g>
	<g>
	</g>
	<g>
	</g>
	<g>
	</g>
	<g>
	</g>
	<g>
	</g>
	<g>
	</g>
	<g>
	</g>
	<g>
	</g>
	<g>
	</g>
	<g>
	</g>
	<g>
	</g>
	<g>
	</g>
	<g>
	</g>
	<g>
	</g>
	<g>
	</g>
	<g>
	</g>
	<g>
	</g>
	<g>
	</g>
	<g>
	</g>
	<g>
	</g>
	<g>
	</g>
	<g>
	</g>
	<g>
	</g>
	<g>
	</g>
	<g>
	</g>
	<g>
	</g>
	<g>
	</g>
	<g>
	</g>
	<g>
	</g>
	<g>
	</g>
	<g>
	</g>
	<g>
	</g>
	<g>
	</g>
	<g>
	</g>
	<g>
	</g>
	<g>
	</g>
	<g>
	</g>
	<g>
	</g>
	<g>
	</g>
	<g>
	</g>
	<g>
	</g>
	<g>
	</g>
	<g>
	</g>
	<g>
	</g>
	<g>
	</g>
	<g>
	</g>
	<g>
	</g>
	<g>
	</g>
	<g>
	</g>
	<g>
	</g>
	<g>
	</g>
	<g>
	</g>
	<g>
	</g>
	<g>
	</g>
	<g>
	</g>
	<g>
	</g>
	<g>
	</g>
	<g>
	</g>
	<g>
	</g>
	<g>
	</g>
	<g>
	</g>
	<g>
	</g>
	<g>
	</g>
	<g>
	</g>
	<g>
	</g>
	<g>
	</g>
	<g>
	</g>
	<g>
	</g>
	<g>
	</g>
	<g>
	</g>
	<g>
	</g>
	<g>
	</g>
	<g>
	</g>
	<g>
	</g>
	<g>
	</g>
	<g>
	</g>
	<g>
	</g>
	<g>
	</g>
	<g>
	</g>
	<g>
	</g>
	<g>
	</g>
	<g>
	</g>
	<g>
	</g>
	<g>
	</g>
	<g>
	</g>
	<g>
	</g>
	<g>
	</g>
	<g>
	</g>
	<g>
	</g>
	<g>
	</g>
	<g>
	</g>
	<g>
	</g>
	<g>
	</g>
	<g>
	</g>
	<g>
	</g>
	<g>
	</g>
	<g>
	</g>
	<g>
	</g>
	<g>
	</g>
	<g>
	</g>
	<g>
	</g>
	<g>
	</g>
	<g>
	</g>
	<g>
	</g>
	<g>
	</g>
	<g>
	</g>
	<g>
	</g>
	<g>
	</g>
	<g>
	</g>
	<g>
	</g>
	<g>
	</g>
	<g>
	</g>
	<g>
	</g>
	<g>
	</g>
	<g>
	</g>
	<g>
	</g>
	<g>
	</g>
	<g>
	</g>
	<g>
	</g>
	<g>
	</g>
	<g>
	</g>
	<g>
	</g>
	<g>
	</g>
	<g>
	</g>
	<g>
	</g>
	<g>
	</g>
	<g>
	</g>
	<g>
	</g>
	<g>
	</g>
	<g>
	</g>
	<g>
	</g>
	<g>
	</g>
	<g>
	</g>
	<g>
	</g>
	<g>
	</g>
	<g>
	</g>
	<g>
	</g>
	<g>
	</g>
	<g>
	</g>
	<g>
	</g>
	<g>
	</g>
	<g>
	</g>
	<g>
	</g>
	<g>
	</g>
	<g>
	</g>
	<g>
	</g>
	<g>
	</g>
	<g>
	</g>
	<g>
	</g>
	<g>
	</g>
	<g>
	</g>
	<g>
	</g>
	<g>
	</g>
	<g>
	</g>
	<g>
	</g>
	<g>
	</g>
	<g>
	</g>
	<g>
	</g>
	<g>
	</g>
	<g>
	</g>
	<g>
	</g>
	<g>
	</g>
	<g>
	</g>
	<g>
	</g>
	<g>
	</g>
	<g>
	</g>
	<g>
	</g>
	<g>
	</g>
	<g>
	</g>
	<g>
	</g>
	<g>
	</g>
	<g>
	</g>
	<g>
	</g>
	<g>
	</g>
	<g>
	</g>
	<g>
	</g>
	<g>
	</g>
	<g>
	</g>
	<g>
	</g>
	<g>
	</g>
	<g>
	</g>
	<g>
	</g>
	<g>
	</g>
	<g>
	</g>
	<g>
	</g>
	<g>
	</g>
	<g>
	</g>
	<g>
	</g>
	<g>
	</g>
	<g>
	</g>
	<g>
	</g>
	<g>
	</g>
	<g>
	</g>
	<g>
	</g>
	<g>
	</g>
	<g>
	</g>
	<g>
	</g>
	<g>
	</g>
	<g>
	</g>
	<g>
	</g>
	<g>
	</g>
	<g>
	</g>
	<g>
	</g>
	<g>
	</g>
	<g>
	</g>
	<g>
	</g>
	<g>
	</g>
	<g>
	</g>
	<g>
	</g>
	<g>
	</g>
	<g>
	</g>
	<g>
	</g>
	<g>
	</g>
	<g>
	</g>
	<g>
	</g>
	<g>
	</g>
	<g>
	</g>
	<g>
	</g>
	<g>
	</g>
	<g>
	</g>
	<g>
	</g>
	<g>
	</g>
	<g>
	</g>
	<g>
	</g>
	<g>
	</g>
	<g>
	</g>
	<g>
	</g>
	<g>
	</g>
	<g>
	</g>
	<g>
	</g>
	<g>
	</g>
	<g>
	</g>
	<g>
	</g>
	<g>
	</g>
	<g>
	</g>
	<g>
	</g>
	<g>
	</g>
	<g>
	</g>
	<g>
	</g>
	<g>
	</g>
	<g>
	</g>
	<g>
	</g>
	<g>
	</g>
	<g>
	</g>
	<g>
	</g>
	<g>
	</g>
	<g>
	</g>
	<g>
	</g>
	<g>
	</g>
	<g>
	</g>
	<g>
	</g>
	<g>
	</g>
	<g>
	</g>
	<g>
	</g>
	<g>
	</g>
	<g>
	</g>
	<g>
	</g>
	<g>
	</g>
	<g>
	</g>
	<g>
	</g>
	<g>
	</g>
	<g>
	</g>
	<g>
	</g>
	<g>
	</g>
	<g>
	</g>
	<g>
	</g>
	<g>
	</g>
	<g>
	</g>
	<g>
	</g>
	<g>
	</g>
	<g>
	</g>
	<g>
	</g>
	<g>
	</g>
	<g>
	</g>
	<g>
	</g>
	<g>
	</g>
	<g>
	</g>
	<g>
	</g>
	<g>
	</g>
	<g>
	</g>
	<g>
	</g>
	<g>
	</g>
	<g>
	</g>
	<g>
	</g>
	<g>
	</g>
	<g>
	</g>
	<g>
	</g>
	<g>
	</g>
	<g>
	</g>
	<g>
	</g>
	<g>
	</g>
	<g>
	</g>
	<g>
	</g>
	<g>
	</g>
	<g>
	</g>
	<g>
	</g>
	<g>
	</g>
	<g>
	</g>
	<g>
	</g>
	<g>
	</g>
	<g>
	</g>
	<g>
	</g>
	<g>
	</g>
	<g>
	</g>
	<g>
	</g>
	<g>
	</g>
	<g>
	</g>
	<g>
	</g>
	<g>
	</g>
	<g>
	</g>
	<g>
	</g>
	<g>
	</g>
	<g>
	</g>
	<g>
	</g>
	<g>
	</g>
	<g>
	</g>
	<g>
	</g>
	<g>
	</g>
	<g>
	</g>
	<g>
	</g>
	<g>
	</g>
	<g>
	</g>
	<g>
	</g>
	<g>
	</g>
	<g>
	</g>
	<g>
	</g>
	<g>
	</g>
	<g>
	</g>
	<g>
	</g>
	<g>
	</g>
	<g>
	</g>
	<g>
	</g>
	<g>
	</g>
	<g>
	</g>
	<g>
	</g>
	<g>
	</g>
	<g>
	</g>
	<g>
	</g>
	<g>
	</g>
	<g>
	</g>
	<g>
	</g>
	<g>
	</g>
	<g>
	</g>
	<g>
	</g>
	<g>
	</g>
	<g>
	</g>
	<g>
	</g>
	<g>
	</g>
	<g>
	</g>
	<g>
	</g>
	<g>
	</g>
	<g>
	</g>
	<g>
	</g>
	<g>
	</g>
	<g>
	</g>
	<g>
	</g>
	<g>
	</g>
	<g>
	</g>
	<g>
	</g>
	<g>
	</g>
	<g>
	</g>
	<g>
	</g>
	<g>
	</g>
	<g>
	</g>
	<g>
	</g>
	<g>
	</g>
	<g>
	</g>
	<g>
	</g>
	<g>
	</g>
	<g>
	</g>
	<g>
	</g>
	<g>
	</g>
	<g>
	</g>
	<g>
	</g>
	<g>
	</g>
	<g>
	</g>
	<g>
	</g>
	<g>
	</g>
	<g>
	</g>
	<g>
	</g>
	<g>
	</g>
	<g>
	</g>
	<g>
	</g>
	<g>
	</g>
	<g>
	</g>
	<g>
	</g>
	<g>
	</g>
	<g>
	</g>
	<g>
	</g>
	<g>
	</g>
	<g>
	</g>
	<g>
	</g>
	<g>
	</g>
	<g>
	</g>
	<g>
	</g>
	<g>
	</g>
	<g>
	</g>
	<g>
	</g>
	<g>
	</g>
	<g>
	</g>
	<g>
	</g>
	<g>
	</g>
	<g>
	</g>
	<g>
	</g>
	<g>
	</g>
	<g>
	</g>
	<g>
	</g>
	<g>
	</g>
	<g>
	</g>
	<g>
	</g>
	<g>
	</g>
	<g>
	</g>
	<g>
	</g>
	<g>
	</g>
	<g>
	</g>
	<g>
	</g>
	<g>
	</g>
	<g>
	</g>
	<g>
	</g>
	<g>
	</g>
	<g>
	</g>
	<g>
	</g>
	<g>
	</g>
	<g>
	</g>
	<g>
	</g>
	<g>
	</g>
	<g>
	</g>
	<g>
	</g>
	<g>
	</g>
	<g>
	</g>
	<g>
	</g>
	<g>
	</g>
	<g>
	</g>
	<g>
	</g>
	<g>
	</g>
	<g>
	</g>
	<g>
	</g>
	<g>
	</g>
	<g>
	</g>
	<g>
	</g>
	<g>
	</g>
	<g>
	</g>
	<g>
	</g>
	<g>
	</g>
	<g>
	</g>
	<g>
	</g>
	<g>
	</g>
	<g>
	</g>
	<g>
	</g>
	<g>
	</g>
	<g>
	</g>
	<g>
	</g>
	<g>
	</g>
	<g>
	</g>
	<g>
	</g>
	<g>
	</g>
	<g>
	</g>
	<g>
	</g>
	<g>
	</g>
	<g>
	</g>
	<g>
	</g>
	<g>
	</g>
	<g>
	</g>
	<g>
	</g>
	<g>
	</g>
	<g>
	</g>
</g>
</svg>
