<?xml version="1.0" encoding="utf-8"?>
<!-- Generator: Adobe Illustrator 17.0.1, SVG Export Plug-In . SVG Version: 6.00 Build 0)  -->
<!DOCTYPE svg PUBLIC "-//W3C//DTD SVG 1.1//EN" "http://www.w3.org/Graphics/SVG/1.1/DTD/svg11.dtd">
<svg version="1.1" id="Layer_1" xmlns="http://www.w3.org/2000/svg" xmlns:xlink="http://www.w3.org/1999/xlink" x="0px" y="0px"
	viewBox="0 0 50 50" enable-background="new 0 0 50 50" xml:space="preserve">


<path fill="#a0a1a2" d="M 0 44.4 c 0 1 0.7 1.9 1.9 1.9 h 46.2 c 1 0 1.9 -0.7 1.9 -1.9 V 11.3 H 0 V 44.4 Z" /> <path fill="#7a7a7a" d="M 48.1 3.7 H 1.9 C 0.7 3.7 0 4.6 0 5.6 v 5.7 h 50 V 5.6 C 50 4.6 49.3 3.7 48.1 3.7" /> <rect fill="#ffffff" x="18.8" y="14.6" width="12.6" height="7.6" /> <rect fill="#fcd116" x="18.8" y="24.9" width="12.6" height="7.6" /> <rect fill="#fcd116" x="33.8" y="24.9" width="12.6" height="7.6" /> <rect fill="#ffffff" x="33.8" y="14.6" width="12.6" height="7.6" /> <rect fill="#ffffff" x="3.8" y="14.6" width="12.6" height="7.6" /> <rect fill="#ffffff" x="3.8" y="24.9" width="12.6" height="7.6" /> <rect fill="#fcd116" x="3.8" y="35.1" width="12.6" height="7.6" /> <rect fill="#fcd116" x="18.8" y="35.1" width="12.6" height="7.6" /> <rect fill="#fcd116" x="33.8" y="35.1" width="12.6" height="7.6" /> <path opacity="0.2" fill="#ffffff" enable-background="new" d="M 1.9 3.7 C 1 3.7 0 4.6 0 5.6 V 13 v 3.3 v 28.1 c 0 1 1 1.9 1.9 1.9 H 4 L 43.6 3.7 H 1.9 Z" /></svg>