<svg xmlns="http://www.w3.org/2000/svg" xmlns:xlink="http://www.w3.org/1999/xlink" viewBox="0 0 834.353 412">
  <defs>
    <linearGradient id="linear-gradient" x1="406.903" y1="101.609" x2="406.903" y2="268.809" gradientUnits="userSpaceOnUse">
      <stop offset="0" stop-color="#5ea0ef"/>
      <stop offset="0.18" stop-color="#559cec"/>
      <stop offset="0.47" stop-color="#3c91e5"/>
      <stop offset="0.84" stop-color="#1380da"/>
      <stop offset="1" stop-color="#0078d4"/>
    </linearGradient>
    <linearGradient id="linear-gradient-2" x1="787.633" y1="1407.845" x2="787.633" y2="1423.609" gradientTransform="matrix(1, 0, 0, -1, 0, 1586.817)" gradientUnits="userSpaceOnUse">
      <stop offset="0" stop-color="#198ab3"/>
      <stop offset="0.44" stop-color="#28b7db"/>
      <stop offset="0.78" stop-color="#32d4f5"/>
    </linearGradient>
    <linearGradient id="linear-gradient-3" x1="787.596" y1="1401.609" x2="787.596" y2="1406.275" xlink:href="#linear-gradient-2"/>
    <linearGradient id="linear-gradient-4" x1="57.286" y1="53.209" x2="57.286" y2="81.209" gradientUnits="userSpaceOnUse">
      <stop offset="0.131" stop-color="#32d4f5"/>
      <stop offset="0.404" stop-color="#28b7db"/>
      <stop offset="1" stop-color="#198ab3"/>
    </linearGradient>
    <linearGradient id="linear-gradient-5" x1="66.59" y1="75.349" x2="66.59" y2="76.605" xlink:href="#linear-gradient-4"/>
    <linearGradient id="linear-gradient-6" x1="66.59" y1="77.516" x2="66.59" y2="78.772" xlink:href="#linear-gradient-4"/>
    <linearGradient id="linear-gradient-7" x1="81.354" y1="1502.514" x2="81.354" y2="1475.898" gradientTransform="matrix(1, 0, 0, -1, 0, 1586.817)" gradientUnits="userSpaceOnUse">
      <stop offset="0.117" stop-color="#5ea0ef"/>
      <stop offset="0.271" stop-color="#4595e8"/>
      <stop offset="0.531" stop-color="#1f85dd"/>
      <stop offset="0.741" stop-color="#087cd6"/>
      <stop offset="0.873" stop-color="#0078d4"/>
    </linearGradient>
  </defs>
  <g id="Shapes">
    <rect width="834.353" height="412" fill="#fff"/>
    <g>
      <rect x="52.241" y="75.209" width="779.359" height="206.8" fill="#fff"/>
      <rect x="52.241" y="75.209" width="779.359" height="206.8" fill="#198ab3" opacity="0.12"/>
    </g>
    <g>
      <rect x="65.807" y="101.609" width="682.193" height="167.2" fill="#fff"/>
      <rect x="65.807" y="101.609" width="682.193" height="167.2" opacity="0.4" fill="url(#linear-gradient)"/>
    </g>
    <g>
      <rect x="321.237" y="2.391" width="158.363" height="35.2" fill="#fff"/>
      <rect x="321.237" y="2.391" width="158.363" height="35.2" fill="#cccccb"/>
    </g>
    <g>
      <path d="M319.079,24.217a1.641,1.641,0,0,0-.315.031,3.7,3.7,0,0,0,.026-.437,3.771,3.771,0,0,0-7.324-1.262,2.566,2.566,0,1,0-.862,4.982h8.475a1.657,1.657,0,0,0,0-3.314Z" fill="#999" fill-rule="evenodd"/>
      <path d="M334.437,18.345a1.633,1.633,0,0,0-.315.031,3.93,3.93,0,0,0,.026-.437,3.77,3.77,0,0,0-7.324-1.261,2.566,2.566,0,1,0-.863,4.982h8.476a1.658,1.658,0,0,0,0-3.315Z" fill="#999" fill-rule="evenodd"/>
      <path d="M316.054,13.685l4.14-2.428,1.9,1.205,2.014-1.261,4.046,2.54-.038,2.88,2.466,1.411V22.4l-2.447,1.317v2.409l-4.347,2.5-1.713-1.242-1.6,1.242L316.11,26.05l-.038-2.315-2.333-1.43-.094-4.2,2.427-1.506Z" fill="#fff" fill-rule="evenodd"/>
      <path d="M320.162,25.65a.425.425,0,1,1-.372-.692.317.317,0,0,1,.043,0,.425.425,0,0,1,.329.694Zm-.286-10.82a.425.425,0,0,1-.086-.846.317.317,0,0,1,.043,0,.425.425,0,0,1,.043.848Zm.349,9.944h.077V22.6a.113.113,0,0,0-.05-.093L318.7,21.439V19.051l1.555-1.036a.113.113,0,0,0,.051-.094V14.96a.723.723,0,1,0-.47.173.623.623,0,0,0,.074,0,.727.727,0,0,0,.17-.04V17.86L318.52,18.9a.115.115,0,0,0-.05.094V21.5a.112.112,0,0,0,.049.093l1.557,1.063V24.7a.742.742,0,0,0-.316-.041.726.726,0,0,0,.073,1.449.6.6,0,0,0,.073,0,.723.723,0,0,0,.319-1.329Z" fill="#2f2f2f" fill-rule="evenodd"/>
      <path d="M324.363,24.956l.043,0a.425.425,0,1,1-.372.691.421.421,0,0,1-.094-.311A.426.426,0,0,1,324.363,24.956Zm-.423-10.592a.426.426,0,0,1,.423-.382.317.317,0,0,1,.043,0,.426.426,0,0,1,.38.466.422.422,0,0,1-.154.286.417.417,0,0,1-.312.093A.425.425,0,0,1,323.94,14.364Zm.538,3.7V15.123a.727.727,0,0,0,.608-.643.726.726,0,1,0-.834.642v3.006a.116.116,0,0,0,.049.093l1.2.828v2.39L323.944,22.5a.112.112,0,0,0-.049.093v2.166h.1a.725.725,0,0,0-.349.547.726.726,0,0,0,.649.8.623.623,0,0,0,.074,0,.726.726,0,0,0,.072-1.449.707.707,0,0,0-.315.041V22.655l1.556-1.063a.113.113,0,0,0,.05-.093V18.99a.115.115,0,0,0-.049-.093Z" fill="#2f2f2f" fill-rule="evenodd"/>
      <path d="M328.586,20.092a.425.425,0,1,1-.425-.425A.425.425,0,0,1,328.586,20.092ZM326.859,17.6a.425.425,0,1,1-.425-.425A.425.425,0,0,1,326.859,17.6ZM323.5,20.092a.425.425,0,1,1,.425.425A.426.426,0,0,1,323.5,20.092Zm2.939,3.023a.425.425,0,1,1,.425-.425A.426.426,0,0,1,326.434,23.115Zm1.576.462-.944-.537a.715.715,0,0,0,.094-.35.726.726,0,1,0-.726.726.716.716,0,0,0,.492-.2l.974.554v2.147l-4.139,2.5L322.336,27.4V20.165h.865a.717.717,0,1,0,.01-.226h-.875V12.523l1.723-1.038,3.841,2.306V16.52l-.335.2-.608.385a.725.725,0,1,0,.2.5.717.717,0,0,0-.075-.316l.6-.378.318-.187,2.308,1.359v1.867h-1.437a.735.735,0,1,0,.007.226h1.43v2ZM320.7,20.092a.425.425,0,1,1-.424-.425A.424.424,0,0,1,320.7,20.092Zm-2.939-2.914a.425.425,0,1,1-.425.425A.426.426,0,0,1,317.762,17.178Zm-2.152,2.914a.426.426,0,1,1,.425.425A.426.426,0,0,1,315.61,20.092Zm1.727,2.6a.425.425,0,1,1,.425.425A.425.425,0,0,1,317.337,22.69Zm3.1,5.728-4.139-2.5V23.765l.945-.571a.72.72,0,0,0,.52.222.726.726,0,1,0-.726-.726.707.707,0,0,0,.077.318l-.935.564-2.291-1.395v-2h1.431a.714.714,0,1,0,.006-.226h-1.437V18.081l2.3-1.356.923.558a.725.725,0,1,0,1.374.32.725.725,0,0,0-1.245-.506l-.946-.572V13.791l3.841-2.306,1.723,1.038v7.416h-.875a.737.737,0,1,0,.009.226h.866V27.4ZM328.351,16.4V13.535l-4.293-2.577-1.96,1.18-1.96-1.18-4.293,2.577V16.4l-2.409,1.419V22.43l2.409,1.468v2.278l4.612,2.782,1.641-1.172,1.642,1.172,4.611-2.782V23.9l2.41-1.468V17.823Z" fill="#2f2f2f" fill-rule="evenodd"/>
    </g>
    <g>
      <rect x="294.837" y="321.609" width="158.363" height="35.2" fill="#fff"/>
      <rect x="294.837" y="321.609" width="158.363" height="35.2" fill="#cccccb"/>
    </g>
    <g>
      <path d="M292.679,343.435a1.641,1.641,0,0,0-.315.031,3.716,3.716,0,0,0,.026-.437,3.771,3.771,0,0,0-7.324-1.262,2.566,2.566,0,1,0-.862,4.982h8.475a1.657,1.657,0,1,0,0-3.314Z" fill="#999" fill-rule="evenodd"/>
      <path d="M308.037,337.563a1.633,1.633,0,0,0-.315.031,3.944,3.944,0,0,0,.026-.437,3.771,3.771,0,0,0-7.324-1.262,2.566,2.566,0,1,0-.863,4.982h8.476a1.657,1.657,0,0,0,0-3.314Z" fill="#999" fill-rule="evenodd"/>
      <path d="M289.654,332.9l4.14-2.427,1.9,1.2,2.014-1.261,4.046,2.541-.038,2.879,2.466,1.412v4.366l-2.447,1.318v2.409l-4.347,2.5-1.713-1.243-1.6,1.243-4.366-2.579-.038-2.315-2.333-1.43-.094-4.2,2.427-1.506Z" fill="#fff" fill-rule="evenodd"/>
      <path d="M293.762,344.867a.42.42,0,0,1-.286.154.425.425,0,0,1-.086-.846l.043,0a.425.425,0,0,1,.329.694Zm-.286-10.82a.425.425,0,0,1-.372-.692.428.428,0,0,1,.286-.154l.043,0a.425.425,0,0,1,.043.848Zm.349,9.944h.077v-2.178a.114.114,0,0,0-.05-.094l-1.556-1.062v-2.389l1.555-1.036a.112.112,0,0,0,.051-.094v-2.96a.727.727,0,1,0-.47.172l.074,0a.682.682,0,0,0,.17-.041v2.772l-1.556,1.036a.114.114,0,0,0-.05.094v2.509a.112.112,0,0,0,.049.093l1.557,1.062v2.045a.712.712,0,0,0-.316-.041.726.726,0,0,0,.073,1.448c.024,0,.049,0,.073,0a.724.724,0,0,0,.319-1.33Z" fill="#2f2f2f" fill-rule="evenodd"/>
      <path d="M297.963,344.173l.043,0a.425.425,0,1,1-.086.845.42.42,0,0,1-.286-.154.425.425,0,0,1,.329-.694Zm-.423-10.592a.427.427,0,0,1,.423-.382l.043,0a.425.425,0,0,1-.086.846A.427.427,0,0,1,297.54,333.581Zm.538,3.7v-2.945a.733.733,0,1,0-.226,0v3.006a.115.115,0,0,0,.049.093l1.2.829v2.39l-1.557,1.062a.114.114,0,0,0-.049.094v2.166h.095a.725.725,0,0,0,.3,1.342l.074,0a.726.726,0,0,0,.072-1.448.707.707,0,0,0-.315.04v-2.044l1.556-1.062a.113.113,0,0,0,.05-.093v-2.509a.115.115,0,0,0-.049-.093Z" fill="#2f2f2f" fill-rule="evenodd"/>
      <path d="M302.186,339.31a.425.425,0,1,1-.425-.425A.425.425,0,0,1,302.186,339.31Zm-1.727-2.489a.425.425,0,1,1-.425-.425A.425.425,0,0,1,300.459,336.821ZM297.1,339.31a.425.425,0,1,1,.425.424A.425.425,0,0,1,297.1,339.31Zm2.939,3.022a.425.425,0,1,1,.425-.425A.425.425,0,0,1,300.034,342.332Zm1.576.463-.944-.537a.724.724,0,1,0-.14.18l.974.554v2.146l-4.139,2.5-1.425-1.017v-7.236h.865a.716.716,0,1,0,.01-.226h-.875V331.74l1.723-1.038,3.841,2.306v2.729l-.335.2-.608.386a.749.749,0,1,0,.128.186l.6-.379.318-.186,2.308,1.359v1.866h-1.437a.736.736,0,1,0,.007.226h1.43v2ZM294.3,339.31a.425.425,0,1,1-.424-.425A.424.424,0,0,1,294.3,339.31Zm-2.939-2.914a.425.425,0,1,1-.425.425A.425.425,0,0,1,291.362,336.4Zm-2.152,2.914a.426.426,0,1,1,.425.424A.425.425,0,0,1,289.21,339.31Zm1.727,2.6a.425.425,0,1,1,.425.425A.426.426,0,0,1,290.937,341.907Zm3.1,5.728-4.139-2.5v-2.156l.945-.57a.725.725,0,1,0-.206-.5.715.715,0,0,0,.077.319l-.935.564-2.291-1.4v-2h1.431a.713.713,0,1,0,.006-.226h-1.437V337.3l2.3-1.356.923.557a.718.718,0,1,0,.129-.185l-.946-.572v-2.735l3.841-2.306,1.723,1.038v7.416h-.875a.738.738,0,1,0,.009.226h.866v7.236Zm7.915-12.013v-2.869l-4.293-2.578-1.96,1.181-1.96-1.181-4.293,2.578v2.869l-2.409,1.419v4.607l2.409,1.468v2.277l4.612,2.782L295.7,347l1.642,1.172,4.611-2.782v-2.277l2.41-1.468v-4.607Z" fill="#2f2f2f" fill-rule="evenodd"/>
    </g>
    <g>
      <line x1="730.4" y1="172.645" x2="768.554" y2="172.645" fill="none" stroke="#3c3c41" stroke-miterlimit="10"/>
      <polygon points="767.46 176.384 773.936 172.645 767.46 168.905 767.46 176.384" fill="#3c3c41"/>
    </g>
    <g>
      <path d="M798.743,174.025a5.012,5.012,0,0,0-4.333-4.752,6.3,6.3,0,0,0-6.481-6.061,6.455,6.455,0,0,0-6.172,4.209,5.95,5.95,0,0,0-5.234,5.728,6.05,6.05,0,0,0,6.259,5.814h10.677a1.032,1.032,0,0,0,.272,0A5.049,5.049,0,0,0,798.743,174.025Z" fill="url(#linear-gradient-2)"/>
      <rect x="787.115" y="173.544" width="0.963" height="7.641" fill="#b3b3b3"/>
      <circle cx="787.596" cy="171.235" r="2.568" fill="#f2f2f2"/>
      <rect x="785.263" y="180.543" width="4.666" height="4.666" rx="0.901" fill="url(#linear-gradient-3)"/>
    </g>
    <g>
      <line x1="43.799" y1="172.06" x2="74.871" y2="172.06" fill="none" stroke="#3c3c41" stroke-miterlimit="10"/>
      <polygon points="73.777 175.8 80.253 172.06 73.777 168.321 73.777 175.8" fill="#3c3c41"/>
    </g>
    <g>
      <line x1="175.806" y1="172.06" x2="197.018" y2="172.06" fill="none" stroke="#3c3c41" stroke-miterlimit="10"/>
      <polygon points="195.924 175.8 202.4 172.06 195.924 168.321 195.924 175.8" fill="#3c3c41"/>
    </g>
    <g>
      <path d="M69,72.973H57.021l.28-1.128h7.474a5.617,5.617,0,0,0,2.468-10.666,6.466,6.466,0,0,0,.147-1.371,6.651,6.651,0,0,0-12.315-3.433,5.05,5.05,0,0,0-7.907,4.107,5.138,5.138,0,0,0,.058.763,5.607,5.607,0,0,0,2.57,10.6h6.881L56.4,72.972H45.573a.908.908,0,0,0-.905.91V80.3a.909.909,0,0,0,.905.91H69a.908.908,0,0,0,.9-.91V73.882A.907.907,0,0,0,69,72.973ZM49.8,70.3a4.062,4.062,0,0,1-1.415-7.878l.674-.253-.206-.694a3.529,3.529,0,0,1-.142-.992,3.509,3.509,0,0,1,6.05-2.356l.812.864.456-1.1a5.112,5.112,0,0,1,9.826,1.916,5.014,5.014,0,0,1-.259,1.583l-.245.736.733.244a4.045,4.045,0,0,1,2.783,3.85A4.086,4.086,0,0,1,64.775,70.3H57.687l1.062-4.264.052-.305.3-.067a2.352,2.352,0,0,0,.836-.369l.307-.214,2.376,2.3-.061.256a1.473,1.473,0,0,0,1.426,1.819,1.423,1.423,0,0,0,.533-.1,1.482,1.482,0,0,0,.834-1.914,1.463,1.463,0,0,0-1.9-.837.634.634,0,0,0-.059.032c-.024.014-.048.026-.072.039l-.29.15-2.366-2.288.122-.291a2.4,2.4,0,0,0-2.2-3.316,2.364,2.364,0,0,0-1.641.664l-.257.248-1.572-.984.024-.282a1.486,1.486,0,0,0-.088-.663,1.463,1.463,0,0,0-1.9-.838,1.483,1.483,0,0,0-.833,1.914,1.463,1.463,0,0,0,1.9.836,1.431,1.431,0,0,0,.322-.184l.249-.181,1.562.978-.079.324a2.364,2.364,0,0,0-.071.569,2.407,2.407,0,0,0,.119.744l.112.342-2.528,1.6-.239-.14a1.172,1.172,0,0,0-1.029-.083,1.2,1.2,0,0,0-.673,1.547,1.181,1.181,0,0,0,1.1.758,1.177,1.177,0,0,0,1.18-1.224l-.006-.262,2.583-1.633.254.209a2.376,2.376,0,0,0,.735.409l.367.126-.063.378L57.062,70.3Zm18.57,9.365H46.207V74.52h9.8l-.156.623a1.951,1.951,0,1,0,.6.087l.177-.71H68.366Z" fill="url(#linear-gradient-4)"/>
      <path d="M67.214,75.349H65.965v1.256h1.249Z" fill="url(#linear-gradient-5)"/>
      <path d="M67.214,77.516H65.965v1.256h1.249Z" fill="url(#linear-gradient-6)"/>
    </g>
    <g id="a3857c27-3253-4155-b620-22ae9cf301a7">
      <g>
        <path d="M90.8,96.772a8.853,8.853,0,0,0-9.086-8.36,9.109,9.109,0,0,0-8.542,5.815,8.53,8.53,0,0,0-7.269,8,8.382,8.382,0,0,0,8.577,8.183H89.9a6.906,6.906,0,0,0,6.9-6.911A7,7,0,0,0,90.8,96.772Z" fill="url(#linear-gradient-7)"/>
        <g>
          <polygon points="89.568 101.465 81.867 98.603 81.668 99.098 81.793 98.645 74.956 97.139 74.628 98.286 80.398 99.537 72.994 102.597 73.564 103.613 81.208 100.438 82.576 106.462 83.758 106.316 82.365 100.098 89.115 102.566 89.568 101.465" fill="#83b9f9"/>
          <path d="M73.77,98.722a1.512,1.512,0,1,0,.268-2.122h0L74,96.628A1.5,1.5,0,0,0,73.77,98.722Zm-1.717,5.35a1.521,1.521,0,1,0,.258-2.137,1.522,1.522,0,0,0-.258,2.137Zm15.9-1.322a1.505,1.505,0,1,0,.276-2.111l-.006.005h0a1.488,1.488,0,0,0-.278,2.084Z" fill="#9cebff"/>
          <path d="M81.973,107.394a1.505,1.505,0,1,0,.269-2.111h0a1.489,1.489,0,0,0-.29,2.084l0,0Z" fill="#9cebff"/>
        </g>
        <path d="M86.05,99.474a.453.453,0,0,0,0-.786l-3.323-1.923-3.333-1.92a.454.454,0,0,0-.687.393v7.685a.453.453,0,0,0,.449.458.444.444,0,0,0,.238-.065l3.333-1.92Z" fill="#c3f1ff"/>
      </g>
    </g>
    <g>
      <g>
        <polygon points="2.753 181.023 11.641 176.549 11.641 167.489 2.753 163.612 2.753 181.023" fill="#fff"/>
        <polygon points="2.753 181.023 11.641 176.549 11.641 167.489 2.753 163.612 2.753 181.023" fill="#3c3c41" opacity="0.85"/>
      </g>
      <g>
        <rect x="13.848" y="163.06" width="31.205" height="18" fill="#fff"/>
        <rect x="13.848" y="163.06" width="31.205" height="18" fill="#3c3c41" opacity="0.85"/>
      </g>
    </g>
    <g>
      <rect x="202.4" y="154.512" width="101.2" height="35.097" fill="#fff"/>
      <g opacity="0.65">
        <path d="M303.45,154.662v34.8H202.55v-34.8h100.9m.15-.15H202.4v35.1H303.6v-35.1Z" fill="#505150"/>
      </g>
    </g>
    <g>
      <rect x="79.2" y="154.512" width="101.2" height="35.097" fill="#fff"/>
      <g opacity="0.65">
        <path d="M180.25,154.662v34.8H79.35v-34.8h100.9m.15-.15H79.2v35.1H180.4v-35.1Z" fill="#505150"/>
      </g>
    </g>
    <g>
      <line x1="602.8" y1="172.06" x2="624.011" y2="172.06" fill="none" stroke="#3c3c41" stroke-miterlimit="10"/>
      <polygon points="622.917 175.8 629.394 172.06 622.917 168.321 622.917 175.8" fill="#3c3c41"/>
    </g>
    <g>
      <rect x="629.394" y="154.512" width="101.2" height="35.097" fill="#fff"/>
      <g opacity="0.65">
        <path d="M730.444,154.662v34.8h-100.9v-34.8h100.9m.15-.15h-101.2v35.1h101.2v-35.1Z" fill="#505150"/>
      </g>
    </g>
    <line x1="303.6" y1="174.253" x2="316.8" y2="174.253" fill="none" stroke="#3c3c41" stroke-miterlimit="10"/>
    <g>
      <path d="M338.931,207.209H321.8a5.015,5.015,0,0,1-5-5V137.855a5.015,5.015,0,0,1,5-5h17.131" fill="none" stroke="#3c3c41" stroke-miterlimit="10"/>
      <polygon points="337.837 203.469 344.313 207.209 337.837 210.948 337.837 203.469" fill="#3c3c41"/>
      <polygon points="337.837 136.595 344.313 132.855 337.837 129.115 337.837 136.595" fill="#3c3c41"/>
    </g>
    <g>
      <rect x="344.89" y="189.609" width="110" height="35.097" fill="#fff"/>
      <g opacity="0.65">
        <path d="M454.74,189.759v34.8H345.04v-34.8h109.7m.15-.15h-110v35.1h110v-35.1Z" fill="#505150"/>
      </g>
    </g>
    <line x1="455.91" y1="207.209" x2="469.11" y2="207.209" fill="none" stroke="#3c3c41" stroke-miterlimit="10"/>
    <g>
      <path d="M487.418,238.455H474.11a5.015,5.015,0,0,1-5-5V177.009a5.015,5.015,0,0,1,5-5h13.308" fill="none" stroke="#3c3c41" stroke-miterlimit="10"/>
      <polygon points="486.324 234.715 492.8 238.455 486.324 242.195 486.324 234.715" fill="#3c3c41"/>
      <polygon points="486.324 175.749 492.8 172.009 486.324 168.269 486.324 175.749" fill="#3c3c41"/>
    </g>
    <g>
      <rect x="493.377" y="154.512" width="110" height="35.097" fill="#fff"/>
      <g opacity="0.65">
        <path d="M603.227,154.662v34.8h-109.7v-34.8h109.7m.15-.15h-110v35.1h110v-35.1Z" fill="#505150"/>
      </g>
    </g>
    <g>
      <line x1="399.89" y1="70.809" x2="399.89" y2="107.686" fill="none" stroke="#3c3c41" stroke-miterlimit="10"/>
      <polygon points="396.151 106.591 399.89 113.068 403.63 106.591 396.151 106.591" fill="#3c3c41"/>
    </g>
    <g>
      <line x1="399.89" y1="42.973" x2="399.89" y2="55.609" fill="none" stroke="#3c3c41" stroke-miterlimit="10"/>
      <polygon points="396.151 44.068 399.89 37.591 403.63 44.068 396.151 44.068" fill="#3c3c41"/>
    </g>
    <g>
      <line x1="399.89" y1="304.009" x2="399.89" y2="316.227" fill="none" stroke="#3c3c41" stroke-miterlimit="10"/>
      <polygon points="396.151 315.132 399.89 321.609 403.63 315.132 396.151 315.132" fill="#3c3c41"/>
    </g>
    <g>
      <line x1="399.89" y1="230.191" x2="399.89" y2="286.409" fill="none" stroke="#3c3c41" stroke-miterlimit="10"/>
      <polygon points="396.151 231.285 399.89 224.809 403.63 231.285 396.151 231.285" fill="#3c3c41"/>
    </g>
    <g>
      <line x1="541.2" y1="306.426" x2="541.2" y2="316.227" fill="none" stroke="#3c3c41" stroke-miterlimit="10"/>
      <polygon points="537.46 315.132 541.2 321.609 544.94 315.132 537.46 315.132" fill="#3c3c41"/>
    </g>
    <g>
      <line x1="541.2" y1="260.991" x2="541.2" y2="286.409" fill="none" stroke="#3c3c41" stroke-miterlimit="10"/>
      <polygon points="537.46 262.085 541.2 255.609 544.94 262.085 537.46 262.085" fill="#3c3c41"/>
    </g>
    <g>
      <line x1="580.8" y1="306.426" x2="580.8" y2="369.027" fill="none" stroke="#3c3c41" stroke-miterlimit="10"/>
      <polygon points="577.06 367.932 580.8 374.409 584.54 367.932 577.06 367.932" fill="#3c3c41"/>
    </g>
    <g>
      <line x1="580.8" y1="194.991" x2="580.8" y2="286.409" fill="none" stroke="#3c3c41" stroke-miterlimit="10"/>
      <polygon points="577.06 196.085 580.8 189.609 584.54 196.085 577.06 196.085" fill="#3c3c41"/>
    </g>
    <g>
      <rect x="492.8" y="374.409" width="158.363" height="35.2" fill="#fff"/>
      <rect x="492.8" y="374.409" width="158.363" height="35.2" fill="#cccccb"/>
    </g>
    <g>
      <path d="M490.642,396.235a1.633,1.633,0,0,0-.315.031,3.716,3.716,0,0,0,.026-.437,3.771,3.771,0,0,0-7.324-1.262,2.566,2.566,0,1,0-.862,4.982h8.475a1.657,1.657,0,0,0,0-3.314Z" fill="#999" fill-rule="evenodd"/>
      <path d="M506,390.363a1.631,1.631,0,0,0-.314.031,3.945,3.945,0,0,0,.025-.437,3.771,3.771,0,0,0-7.324-1.262,2.566,2.566,0,1,0-.862,4.982H506a1.657,1.657,0,0,0,0-3.314Z" fill="#999" fill-rule="evenodd"/>
      <path d="M487.616,385.7l4.141-2.427,1.9,1.2,2.013-1.261,4.047,2.541-.038,2.879,2.465,1.412v4.366l-2.446,1.318v2.409l-4.348,2.5-1.712-1.243-1.6,1.243-4.366-2.579-.038-2.315-2.334-1.43-.094-4.2,2.428-1.506Z" fill="#fff" fill-rule="evenodd"/>
      <path d="M491.725,397.667a.42.42,0,0,1-.286.154.425.425,0,1,1-.086-.846l.043,0a.425.425,0,0,1,.329.694Zm-.286-10.82a.425.425,0,0,1-.086-.846l.043,0a.425.425,0,0,1,.043.848Zm.349,9.944h.076v-2.178a.113.113,0,0,0-.049-.094l-1.557-1.062v-2.389l1.556-1.036a.111.111,0,0,0,.05-.094v-2.96a.725.725,0,1,0-.47.172q.037,0,.075,0a.685.685,0,0,0,.169-.041v2.772l-1.555,1.036a.111.111,0,0,0-.05.094v2.509a.112.112,0,0,0,.049.093l1.556,1.062v2.045a.705.705,0,0,0-.315-.041.726.726,0,0,0,.072,1.448c.025,0,.049,0,.074,0a.724.724,0,0,0,.319-1.33Z" fill="#2f2f2f" fill-rule="evenodd"/>
      <path d="M495.926,396.973l.043,0a.425.425,0,1,1-.086.845.417.417,0,0,1-.286-.154.425.425,0,0,1,.329-.694Zm-.423-10.592a.426.426,0,0,1,.423-.382l.043,0a.425.425,0,0,1-.086.846A.427.427,0,0,1,495.5,386.381Zm.538,3.705v-2.945a.733.733,0,1,0-.226,0v3.006a.112.112,0,0,0,.049.093l1.2.829v2.39l-1.556,1.062a.114.114,0,0,0-.049.094v2.166h.094a.725.725,0,0,0,.3,1.342c.025,0,.049,0,.074,0a.726.726,0,0,0,.072-1.448.711.711,0,0,0-.316.04v-2.044l1.557-1.062a.112.112,0,0,0,.049-.093v-2.509a.112.112,0,0,0-.049-.093Z" fill="#2f2f2f" fill-rule="evenodd"/>
      <path d="M500.149,392.11a.425.425,0,1,1-.425-.425A.425.425,0,0,1,500.149,392.11Zm-1.727-2.489A.425.425,0,1,1,498,389.2.425.425,0,0,1,498.422,389.621Zm-3.364,2.489a.425.425,0,1,1,.425.424A.425.425,0,0,1,495.058,392.11ZM498,395.132a.425.425,0,1,1,.425-.425A.425.425,0,0,1,498,395.132Zm1.576.463-.944-.537a.724.724,0,1,0-.14.18l.974.554v2.146l-4.14,2.5-1.424-1.017v-7.236h.865a.716.716,0,1,0,.01-.226H493.9V384.54l1.722-1.038,3.842,2.306v2.729l-.335.2-.608.386a.725.725,0,1,0,.2.5.714.714,0,0,0-.075-.316l.6-.379.318-.186,2.308,1.359v1.866h-1.437a.739.739,0,1,0,.006.226h1.431v2Zm-7.309-3.485a.425.425,0,1,1-.425-.425A.424.424,0,0,1,492.264,392.11Zm-2.939-2.914a.425.425,0,1,1-.425.425A.425.425,0,0,1,489.325,389.2Zm-2.152,2.914a.425.425,0,1,1,.425.424A.425.425,0,0,1,487.173,392.11Zm1.727,2.6a.425.425,0,1,1,.425.425A.425.425,0,0,1,488.9,394.707Zm3.1,5.728-4.139-2.5v-2.156l.946-.57a.725.725,0,1,0-.206-.5.715.715,0,0,0,.077.319l-.935.564-2.291-1.4v-2h1.43a.716.716,0,1,0,.007-.226H485.45V390.1l2.3-1.356.924.557a.708.708,0,0,0-.078.321.729.729,0,1,0,.207-.506l-.947-.572v-2.735L491.7,383.5l1.722,1.038v7.416h-.875a.735.735,0,1,0,.01.226h.865v7.236Zm7.916-12.013v-2.869l-4.293-2.578-1.96,1.181-1.96-1.181-4.293,2.578v2.869L485,389.841v4.607l2.41,1.468v2.277l4.611,2.782,1.642-1.172,1.641,1.172,4.612-2.782v-2.277l2.41-1.468v-4.607Z" fill="#2f2f2f" fill-rule="evenodd"/>
    </g>
    <g>
      <path d="M453.2,132.409H676.423a5.015,5.015,0,0,1,5,5v11.618" fill="none" stroke="#3c3c41" stroke-miterlimit="10"/>
      <polygon points="677.683 147.932 681.423 154.409 685.163 147.932 677.683 147.932" fill="#3c3c41"/>
    </g>
    <g>
      <rect x="344.89" y="114.912" width="110" height="35.097" fill="#fff"/>
      <g opacity="0.65">
        <path d="M454.74,115.062v34.8H345.04v-34.8h109.7m.15-.15h-110v35.1h110v-35.1Z" fill="#505150"/>
      </g>
    </g>
    <g>
      <rect x="492.8" y="321.609" width="158.363" height="35.2" fill="#fff"/>
      <rect x="492.8" y="321.609" width="158.363" height="35.2" fill="#cccccb"/>
    </g>
    <g>
      <path d="M490.642,343.435a1.633,1.633,0,0,0-.315.031,3.716,3.716,0,0,0,.026-.437,3.771,3.771,0,0,0-7.324-1.262,2.566,2.566,0,1,0-.862,4.982h8.475a1.657,1.657,0,0,0,0-3.314Z" fill="#999" fill-rule="evenodd"/>
      <path d="M506,337.563a1.631,1.631,0,0,0-.314.031,3.945,3.945,0,0,0,.025-.437,3.771,3.771,0,0,0-7.324-1.262,2.566,2.566,0,1,0-.862,4.982H506a1.657,1.657,0,0,0,0-3.314Z" fill="#999" fill-rule="evenodd"/>
      <path d="M487.616,332.9l4.141-2.427,1.9,1.2,2.013-1.261,4.047,2.541-.038,2.879,2.465,1.412v4.366l-2.446,1.318v2.409l-4.348,2.5-1.712-1.243-1.6,1.243-4.366-2.579-.038-2.315-2.334-1.43-.094-4.2,2.428-1.506Z" fill="#fff" fill-rule="evenodd"/>
      <path d="M491.725,344.867a.42.42,0,0,1-.286.154.425.425,0,0,1-.086-.846l.043,0a.425.425,0,0,1,.329.694Zm-.286-10.82a.425.425,0,0,1-.086-.846l.043,0a.425.425,0,0,1,.043.848Zm.349,9.944h.076v-2.178a.113.113,0,0,0-.049-.094l-1.557-1.062v-2.389l1.556-1.036a.111.111,0,0,0,.05-.094v-2.96a.725.725,0,1,0-.47.172q.037,0,.075,0a.685.685,0,0,0,.169-.041v2.772l-1.555,1.036a.111.111,0,0,0-.05.094v2.509a.112.112,0,0,0,.049.093l1.556,1.062v2.045a.705.705,0,0,0-.315-.041.726.726,0,0,0,.072,1.448c.025,0,.049,0,.074,0a.724.724,0,0,0,.319-1.33Z" fill="#2f2f2f" fill-rule="evenodd"/>
      <path d="M495.926,344.173l.043,0a.425.425,0,1,1-.086.845.417.417,0,0,1-.286-.154.425.425,0,0,1,.329-.694Zm-.423-10.592a.426.426,0,0,1,.423-.382l.043,0a.425.425,0,0,1-.086.846A.427.427,0,0,1,495.5,333.581Zm.538,3.7v-2.945a.733.733,0,1,0-.226,0v3.006a.112.112,0,0,0,.049.093l1.2.829v2.39l-1.556,1.062a.114.114,0,0,0-.049.094v2.166h.094a.725.725,0,0,0,.3,1.342c.025,0,.049,0,.074,0a.726.726,0,0,0,.072-1.448.711.711,0,0,0-.316.04v-2.044l1.557-1.062a.112.112,0,0,0,.049-.093v-2.509a.112.112,0,0,0-.049-.093Z" fill="#2f2f2f" fill-rule="evenodd"/>
      <path d="M500.149,339.31a.425.425,0,1,1-.425-.425A.425.425,0,0,1,500.149,339.31Zm-1.727-2.489A.425.425,0,1,1,498,336.4.425.425,0,0,1,498.422,336.821Zm-3.364,2.489a.425.425,0,1,1,.425.424A.425.425,0,0,1,495.058,339.31ZM498,342.332a.425.425,0,1,1,.425-.425A.425.425,0,0,1,498,342.332Zm1.576.463-.944-.537a.724.724,0,1,0-.14.18l.974.554v2.146l-4.14,2.5-1.424-1.017v-7.236h.865a.716.716,0,1,0,.01-.226H493.9V331.74l1.722-1.038,3.842,2.306v2.729l-.335.2-.608.386a.725.725,0,1,0,.2.5.714.714,0,0,0-.075-.316l.6-.379.318-.186,2.308,1.359v1.866h-1.437a.739.739,0,1,0,.006.226h1.431v2Zm-7.309-3.485a.425.425,0,1,1-.425-.425A.424.424,0,0,1,492.264,339.31Zm-2.939-2.914a.425.425,0,1,1-.425.425A.425.425,0,0,1,489.325,336.4Zm-2.152,2.914a.425.425,0,1,1,.425.424A.425.425,0,0,1,487.173,339.31Zm1.727,2.6a.425.425,0,1,1,.425.425A.425.425,0,0,1,488.9,341.907Zm3.1,5.728-4.139-2.5v-2.156l.946-.57a.725.725,0,1,0-.206-.5.715.715,0,0,0,.077.319l-.935.564-2.291-1.4v-2h1.43a.716.716,0,1,0,.007-.226H485.45V337.3l2.3-1.356.924.557a.708.708,0,0,0-.078.321.729.729,0,1,0,.207-.506l-.947-.572v-2.735L491.7,330.7l1.722,1.038v7.416h-.875a.735.735,0,1,0,.01.226h.865v7.236Zm7.916-12.013v-2.869l-4.293-2.578-1.96,1.181-1.96-1.181-4.293,2.578v2.869L485,337.041v4.607l2.41,1.468v2.277l4.611,2.782L493.661,347l1.641,1.172,4.612-2.782v-2.277l2.41-1.468v-4.607Z" fill="#2f2f2f" fill-rule="evenodd"/>
    </g>
    <g>
      <path d="M602.8,238.009H677a5.015,5.015,0,0,0,5-5V194.991" fill="none" stroke="#3c3c41" stroke-miterlimit="10"/>
      <polygon points="685.74 196.085 682 189.609 678.26 196.085 685.74 196.085" fill="#3c3c41"/>
    </g>
    <g>
      <rect x="493.377" y="220.512" width="110" height="35.097" fill="#fff"/>
      <g opacity="0.65">
        <path d="M603.227,220.662v34.8h-109.7v-34.8h109.7m.15-.15h-110v35.1h110v-35.1Z" fill="#505150"/>
      </g>
    </g>
  </g>
  <g id="Text">
    <g>
      <path d="M352.964,23.944h-2.077l-.6-1.882h-3.01l-.6,1.882h-2.065l3.08-8.462h2.26ZM349.847,20.6l-.908-2.845a3.658,3.658,0,0,1-.141-.761h-.047a3.288,3.288,0,0,1-.149.738l-.92,2.868Z" fill="#1e1e1e"/>
      <path d="M355.926,23.944H354.02V15.482h1.906Z" fill="#1e1e1e"/>
      <path d="M363.09,23.944h-1.907V15.482h1.907Z" fill="#1e1e1e"/>
      <path d="M370.667,23.944h-1.86V20.587q0-1.405-1-1.405a1,1,0,0,0-.8.372,1.42,1.42,0,0,0-.313.944v3.446H364.83V17.9H366.7v.956h.024a2.135,2.135,0,0,1,1.941-1.1q2.007,0,2.007,2.491Z" fill="#1e1e1e"/>
      <path d="M376.084,16.427a1.877,1.877,0,0,0-.691-.142q-.9,0-.9.974V17.9h1.381v1.375H374.5v4.667h-1.859V19.277h-1.014V17.9h1.014v-.75a2.178,2.178,0,0,1,.673-1.664,2.565,2.565,0,0,1,1.829-.631,3.241,3.241,0,0,1,.945.118Z" fill="#1e1e1e"/>
      <path d="M382.2,21.454h-3.942q.094,1.317,1.658,1.316a3.237,3.237,0,0,0,1.753-.472v1.346a4.62,4.62,0,0,1-2.178.448,2.813,2.813,0,0,1-3.08-3.074,3.237,3.237,0,0,1,.873-2.385,2.909,2.909,0,0,1,2.148-.879,2.639,2.639,0,0,1,2.044.785,3.02,3.02,0,0,1,.724,2.13Zm-1.73-1.144q0-1.3-1.049-1.3a1,1,0,0,0-.777.372,1.689,1.689,0,0,0-.4.927Z" fill="#1e1e1e"/>
      <path d="M387.254,19.584a1.6,1.6,0,0,0-.784-.184,1.132,1.132,0,0,0-.951.446,1.945,1.945,0,0,0-.342,1.213v2.885h-1.865V17.9h1.865v1.121h.024a1.613,1.613,0,0,1,1.593-1.228,1.2,1.2,0,0,1,.46.071Z" fill="#1e1e1e"/>
      <path d="M393.5,21.454h-3.942q.095,1.317,1.659,1.316a3.228,3.228,0,0,0,1.751-.472v1.346a4.611,4.611,0,0,1-2.176.448,2.813,2.813,0,0,1-3.081-3.074,3.233,3.233,0,0,1,.874-2.385,2.909,2.909,0,0,1,2.147-.879,2.643,2.643,0,0,1,2.045.785,3.024,3.024,0,0,1,.723,2.13Zm-1.729-1.144q0-1.3-1.051-1.3a1,1,0,0,0-.776.372,1.681,1.681,0,0,0-.4.927Z" fill="#1e1e1e"/>
      <path d="M400.449,23.944H398.59V20.587q0-1.405-1-1.405a1,1,0,0,0-.8.372,1.42,1.42,0,0,0-.313.944v3.446h-1.865V17.9h1.865v.956h.024a2.136,2.136,0,0,1,1.941-1.1q2.007,0,2.007,2.491Z" fill="#1e1e1e"/>
      <path d="M406.5,23.726a3.69,3.69,0,0,1-1.824.366,3.079,3.079,0,0,1-2.253-.844,2.908,2.908,0,0,1-.863-2.177,3.207,3.207,0,0,1,.924-2.428,3.409,3.409,0,0,1,2.47-.889,3.166,3.166,0,0,1,1.546.284v1.581a2.127,2.127,0,0,0-1.3-.437,1.722,1.722,0,0,0-1.272.469,1.751,1.751,0,0,0-.469,1.3,1.722,1.722,0,0,0,.448,1.26,1.651,1.651,0,0,0,1.233.457,2.459,2.459,0,0,0,1.364-.437Z" fill="#1e1e1e"/>
      <path d="M413.153,21.454h-3.941q.093,1.317,1.658,1.316a3.233,3.233,0,0,0,1.752-.472v1.346a4.615,4.615,0,0,1-2.177.448,2.814,2.814,0,0,1-3.081-3.074,3.233,3.233,0,0,1,.874-2.385,2.909,2.909,0,0,1,2.148-.879,2.642,2.642,0,0,1,2.044.785,3.024,3.024,0,0,1,.723,2.13Zm-1.728-1.144q0-1.3-1.051-1.3a1.006,1.006,0,0,0-.777.372,1.7,1.7,0,0,0-.4.927Z" fill="#1e1e1e"/>
      <path d="M417.2,23.785V22.274a3.935,3.935,0,0,0,.918.414,3.057,3.057,0,0,0,.864.135,1.866,1.866,0,0,0,.782-.135.44.44,0,0,0,.287-.414.381.381,0,0,0-.13-.294,1.221,1.221,0,0,0-.334-.207,3.911,3.911,0,0,0-.446-.16q-.242-.071-.465-.159a4.353,4.353,0,0,1-.635-.292,1.82,1.82,0,0,1-.46-.363,1.4,1.4,0,0,1-.283-.478,1.878,1.878,0,0,1-.1-.643,1.649,1.649,0,0,1,.222-.873,1.794,1.794,0,0,1,.589-.6,2.707,2.707,0,0,1,.844-.343,4.454,4.454,0,0,1,.989-.109,5.523,5.523,0,0,1,.814.062,6.127,6.127,0,0,1,.814.18v1.44a2.942,2.942,0,0,0-.758-.31,3.24,3.24,0,0,0-.793-.1,1.816,1.816,0,0,0-.346.032,1.13,1.13,0,0,0-.286.095.514.514,0,0,0-.194.159.363.363,0,0,0-.072.221.405.405,0,0,0,.107.284.889.889,0,0,0,.277.2,2.7,2.7,0,0,0,.381.154c.14.045.278.091.416.139a5.242,5.242,0,0,1,.673.283,2.127,2.127,0,0,1,.515.36,1.406,1.406,0,0,1,.331.484,1.925,1.925,0,0,1-.118,1.578,1.866,1.866,0,0,1-.62.62,2.832,2.832,0,0,1-.89.348,4.928,4.928,0,0,1-1.048.109A5.391,5.391,0,0,1,417.2,23.785Z" fill="#1e1e1e"/>
      <path d="M428.343,21.454H424.4q.1,1.317,1.658,1.316a3.237,3.237,0,0,0,1.753-.472v1.346a4.615,4.615,0,0,1-2.177.448,2.813,2.813,0,0,1-3.08-3.074,3.237,3.237,0,0,1,.873-2.385,2.908,2.908,0,0,1,2.148-.879,2.641,2.641,0,0,1,2.044.785,3.025,3.025,0,0,1,.724,2.13Zm-1.73-1.144q0-1.3-1.05-1.3a1,1,0,0,0-.776.372,1.683,1.683,0,0,0-.4.927Z" fill="#1e1e1e"/>
      <path d="M433.393,19.584a1.606,1.606,0,0,0-.785-.184,1.132,1.132,0,0,0-.95.446,1.945,1.945,0,0,0-.342,1.213v2.885h-1.865V17.9h1.865v1.121h.024a1.614,1.614,0,0,1,1.593-1.228,1.2,1.2,0,0,1,.46.071Z" fill="#1e1e1e"/>
      <path d="M440.5,17.9l-2.248,6.042h-2.124L433.983,17.9h2l1.05,3.724a5.377,5.377,0,0,1,.207,1.073h.024a6.039,6.039,0,0,1,.218-1.038l1.074-3.759Z" fill="#1e1e1e"/>
      <path d="M442.239,16.946a1.088,1.088,0,0,1-.773-.28.9.9,0,0,1-.3-.688.869.869,0,0,1,.3-.684,1.259,1.259,0,0,1,1.548,0,.87.87,0,0,1,.3.684.893.893,0,0,1-.3.7A1.1,1.1,0,0,1,442.239,16.946Zm.92,7H441.3V17.9h1.864Z" fill="#1e1e1e"/>
      <path d="M449.308,23.726a3.686,3.686,0,0,1-1.823.366,3.08,3.08,0,0,1-2.254-.844,2.911,2.911,0,0,1-.862-2.177,3.207,3.207,0,0,1,.924-2.428,3.407,3.407,0,0,1,2.469-.889,3.164,3.164,0,0,1,1.546.284v1.581a2.125,2.125,0,0,0-1.3-.437,1.726,1.726,0,0,0-1.273.469,1.755,1.755,0,0,0-.469,1.3,1.723,1.723,0,0,0,.449,1.26,1.651,1.651,0,0,0,1.233.457,2.453,2.453,0,0,0,1.363-.437Z" fill="#1e1e1e"/>
      <path d="M455.959,21.454h-3.943q.1,1.317,1.659,1.316a3.237,3.237,0,0,0,1.753-.472v1.346a4.623,4.623,0,0,1-2.178.448,2.813,2.813,0,0,1-3.08-3.074,3.237,3.237,0,0,1,.873-2.385,2.909,2.909,0,0,1,2.148-.879,2.639,2.639,0,0,1,2.044.785,3.02,3.02,0,0,1,.724,2.13Zm-1.73-1.144q0-1.3-1.05-1.3a1,1,0,0,0-.776.372,1.682,1.682,0,0,0-.4.927Z" fill="#1e1e1e"/>
    </g>
    <g>
      <path d="M326.563,343.162h-2.077l-.6-1.882h-3.01l-.6,1.882h-2.065l3.08-8.462h2.26Zm-3.115-3.346-.909-2.844a3.72,3.72,0,0,1-.142-.761h-.047a3.21,3.21,0,0,1-.147.737l-.921,2.868Z" fill="#1e1e1e"/>
      <path d="M329.526,343.162H327.62V334.7h1.906Z" fill="#1e1e1e"/>
      <path d="M336.689,343.162h-1.905V334.7h1.905Z" fill="#1e1e1e"/>
      <path d="M344.266,343.162h-1.858v-3.357q0-1.406-1-1.405a.994.994,0,0,0-.8.372,1.415,1.415,0,0,0-.313.944v3.446H338.43V337.12H340.3v.956h.024a2.136,2.136,0,0,1,1.942-1.1q2,0,2,2.49Z" fill="#1e1e1e"/>
      <path d="M349.683,335.645a1.864,1.864,0,0,0-.69-.142q-.9,0-.9.974v.643h1.381V338.5H348.1v4.667h-1.859V338.5h-1.015V337.12h1.015v-.75a2.178,2.178,0,0,1,.673-1.664,2.568,2.568,0,0,1,1.83-.631,3.2,3.2,0,0,1,.943.118Z" fill="#1e1e1e"/>
      <path d="M355.8,340.672h-3.942q.094,1.315,1.658,1.316a3.233,3.233,0,0,0,1.752-.472v1.345a4.6,4.6,0,0,1-2.176.449,2.814,2.814,0,0,1-3.082-3.075,3.233,3.233,0,0,1,.874-2.384,2.911,2.911,0,0,1,2.148-.879,2.644,2.644,0,0,1,2.045.785,3.026,3.026,0,0,1,.723,2.13Zm-1.729-1.145q0-1.3-1.051-1.3a1,1,0,0,0-.776.372,1.686,1.686,0,0,0-.4.926Z" fill="#1e1e1e"/>
      <path d="M360.854,338.8a1.617,1.617,0,0,0-.785-.183,1.131,1.131,0,0,0-.95.446,1.943,1.943,0,0,0-.342,1.212v2.886h-1.865V337.12h1.865v1.121h.024a1.613,1.613,0,0,1,1.593-1.228,1.2,1.2,0,0,1,.46.071Z" fill="#1e1e1e"/>
      <path d="M367.1,340.672h-3.942q.094,1.315,1.658,1.316a3.237,3.237,0,0,0,1.753-.472v1.345a4.607,4.607,0,0,1-2.178.449,2.814,2.814,0,0,1-3.08-3.075,3.236,3.236,0,0,1,.873-2.384,2.91,2.91,0,0,1,2.149-.879,2.641,2.641,0,0,1,2.044.785,3.021,3.021,0,0,1,.723,2.13Zm-1.729-1.145q0-1.3-1.05-1.3a1,1,0,0,0-.776.372,1.68,1.68,0,0,0-.4.926Z" fill="#1e1e1e"/>
      <path d="M374.049,343.162H372.19v-3.357q0-1.406-1-1.405a.994.994,0,0,0-.8.372,1.415,1.415,0,0,0-.313.944v3.446h-1.864V337.12h1.864v.956h.024a2.137,2.137,0,0,1,1.942-1.1q2.005,0,2.006,2.49Z" fill="#1e1e1e"/>
      <path d="M380.1,342.944a3.683,3.683,0,0,1-1.823.366,3.086,3.086,0,0,1-2.254-.844,2.917,2.917,0,0,1-.861-2.177,3.21,3.21,0,0,1,.923-2.429,3.413,3.413,0,0,1,2.469-.888,3.165,3.165,0,0,1,1.546.283v1.582a2.116,2.116,0,0,0-1.3-.437,1.721,1.721,0,0,0-1.272.469,1.756,1.756,0,0,0-.47,1.3,1.719,1.719,0,0,0,.45,1.259,1.646,1.646,0,0,0,1.233.458,2.458,2.458,0,0,0,1.362-.437Z" fill="#1e1e1e"/>
      <path d="M386.754,340.672h-3.943q.1,1.315,1.659,1.316a3.231,3.231,0,0,0,1.752-.472v1.345a4.6,4.6,0,0,1-2.177.449,2.813,2.813,0,0,1-3.08-3.075,3.236,3.236,0,0,1,.873-2.384,2.909,2.909,0,0,1,2.148-.879,2.639,2.639,0,0,1,2.044.785,3.021,3.021,0,0,1,.724,2.13Zm-1.73-1.145q0-1.3-1.05-1.3a1,1,0,0,0-.776.372,1.672,1.672,0,0,0-.4.926Z" fill="#1e1e1e"/>
      <path d="M390.8,343v-1.511a3.924,3.924,0,0,0,.917.413,3.014,3.014,0,0,0,.864.136,1.842,1.842,0,0,0,.782-.136.439.439,0,0,0,.286-.413.381.381,0,0,0-.13-.3,1.207,1.207,0,0,0-.333-.206,3.71,3.71,0,0,0-.445-.16c-.162-.047-.317-.1-.467-.159a4.438,4.438,0,0,1-.634-.292,1.848,1.848,0,0,1-.461-.363,1.446,1.446,0,0,1-.283-.478,1.93,1.93,0,0,1-.1-.643,1.658,1.658,0,0,1,.22-.873,1.819,1.819,0,0,1,.59-.6,2.71,2.71,0,0,1,.844-.342,4.39,4.39,0,0,1,.989-.109,5.547,5.547,0,0,1,.815.062,6.026,6.026,0,0,1,.813.18v1.44a2.913,2.913,0,0,0-.758-.31,3.188,3.188,0,0,0-.794-.1,1.787,1.787,0,0,0-.344.032,1.112,1.112,0,0,0-.287.095.525.525,0,0,0-.195.159.368.368,0,0,0-.07.221.41.41,0,0,0,.105.283.937.937,0,0,0,.278.2,2.862,2.862,0,0,0,.38.154c.14.045.279.091.416.138a5.261,5.261,0,0,1,.673.284,2.145,2.145,0,0,1,.517.359,1.413,1.413,0,0,1,.33.484,1.938,1.938,0,0,1-.118,1.579,1.872,1.872,0,0,1-.619.62,2.825,2.825,0,0,1-.892.348,4.984,4.984,0,0,1-1.047.109A5.381,5.381,0,0,1,390.8,343Z" fill="#1e1e1e"/>
      <path d="M401.942,340.672H398q.093,1.315,1.658,1.316a3.233,3.233,0,0,0,1.752-.472v1.345a4.6,4.6,0,0,1-2.177.449,2.814,2.814,0,0,1-3.081-3.075,3.233,3.233,0,0,1,.874-2.384,2.909,2.909,0,0,1,2.148-.879,2.646,2.646,0,0,1,2.045.785,3.025,3.025,0,0,1,.722,2.13Zm-1.728-1.145q0-1.3-1.051-1.3a1,1,0,0,0-.776.372,1.686,1.686,0,0,0-.4.926Z" fill="#1e1e1e"/>
      <path d="M406.993,338.8a1.613,1.613,0,0,0-.784-.183,1.13,1.13,0,0,0-.95.446,1.937,1.937,0,0,0-.343,1.212v2.886h-1.864V337.12h1.864v1.121h.024a1.612,1.612,0,0,1,1.593-1.228,1.2,1.2,0,0,1,.46.071Z" fill="#1e1e1e"/>
      <path d="M414.1,337.12l-2.248,6.042h-2.125l-2.141-6.042h1.994l1.051,3.723a5.459,5.459,0,0,1,.206,1.074h.024a6.165,6.165,0,0,1,.218-1.039l1.074-3.758Z" fill="#1e1e1e"/>
      <path d="M415.839,336.164a1.087,1.087,0,0,1-.773-.281.9.9,0,0,1-.3-.687.874.874,0,0,1,.3-.685,1.264,1.264,0,0,1,1.549,0,.88.88,0,0,1,.3.685.9.9,0,0,1-.3.7A1.108,1.108,0,0,1,415.839,336.164Zm.921,7h-1.866V337.12h1.866Z" fill="#1e1e1e"/>
      <path d="M422.908,342.944a3.683,3.683,0,0,1-1.823.366,3.086,3.086,0,0,1-2.254-.844,2.917,2.917,0,0,1-.861-2.177,3.213,3.213,0,0,1,.922-2.429,3.418,3.418,0,0,1,2.47-.888,3.165,3.165,0,0,1,1.546.283v1.582a2.119,2.119,0,0,0-1.3-.437,1.719,1.719,0,0,0-1.271.469,1.752,1.752,0,0,0-.47,1.3,1.719,1.719,0,0,0,.449,1.259,1.649,1.649,0,0,0,1.234.458,2.458,2.458,0,0,0,1.362-.437Z" fill="#1e1e1e"/>
      <path d="M429.558,340.672h-3.941q.093,1.315,1.658,1.316a3.233,3.233,0,0,0,1.752-.472v1.345a4.6,4.6,0,0,1-2.177.449,2.814,2.814,0,0,1-3.081-3.075,3.233,3.233,0,0,1,.874-2.384,2.909,2.909,0,0,1,2.148-.879,2.644,2.644,0,0,1,2.045.785,3.025,3.025,0,0,1,.722,2.13Zm-1.728-1.145q0-1.3-1.051-1.3a1,1,0,0,0-.776.372,1.686,1.686,0,0,0-.4.926Z" fill="#1e1e1e"/>
    </g>
    <g>
      <path d="M765.878,143.392h-1.893v-8.4h1.893Z" fill="#1e1e1e"/>
      <path d="M770.466,143.539a3.229,3.229,0,0,1-2.359-.841,3.479,3.479,0,0,1,.032-4.612,3.369,3.369,0,0,1,2.409-.84,3.186,3.186,0,0,1,2.343.84,2.988,2.988,0,0,1,.85,2.224,3.172,3.172,0,0,1-.876,2.361A3.258,3.258,0,0,1,770.466,143.539Zm.046-4.875a1.234,1.234,0,0,0-1.019.451,1.99,1.99,0,0,0-.363,1.277q0,1.728,1.394,1.729,1.33,0,1.33-1.776Q771.854,138.664,770.512,138.664Z" fill="#1e1e1e"/>
      <path d="M781.024,136.531h-2.4v6.861h-1.9v-6.861h-2.384V134.99h6.679Z" fill="#1e1e1e"/>
      <path d="M790.505,143.392h-5.039v-8.4h4.845v1.541h-2.953V138.4h2.748v1.535h-2.748v1.922h3.147Z" fill="#1e1e1e"/>
      <path d="M797.542,143.392H795.69v-.826h-.023a2.078,2.078,0,0,1-1.858.973,2.275,2.275,0,0,1-1.81-.794,3.289,3.289,0,0,1-.686-2.218,3.578,3.578,0,0,1,.756-2.385,2.464,2.464,0,0,1,1.981-.9,1.685,1.685,0,0,1,1.617.832h.023v-3.569h1.852Zm-1.817-2.918v-.451a1.422,1.422,0,0,0-.339-.973,1.2,1.2,0,0,0-1.846.1,2.241,2.241,0,0,0-.346,1.327,1.939,1.939,0,0,0,.334,1.219,1.185,1.185,0,0,0,1.843-.024A1.88,1.88,0,0,0,795.725,140.474Z" fill="#1e1e1e"/>
      <path d="M804.983,142.707a3.4,3.4,0,0,1-.967,2.587,3.918,3.918,0,0,1-2.8.917,4.443,4.443,0,0,1-1.922-.346v-1.559a3.673,3.673,0,0,0,1.869.539,2.014,2.014,0,0,0,1.453-.5,1.776,1.776,0,0,0,.516-1.345v-.474h-.024a2.068,2.068,0,0,1-1.869,1.008,2.247,2.247,0,0,1-1.822-.809,3.281,3.281,0,0,1-.674-2.168,3.652,3.652,0,0,1,.75-2.42,2.447,2.447,0,0,1,1.975-.9,1.822,1.822,0,0,1,1.64.843h.024v-.7h1.851Zm-1.828-2.2v-.474a1.458,1.458,0,0,0-.337-.97,1.087,1.087,0,0,0-.876-.4,1.134,1.134,0,0,0-.967.48,2.263,2.263,0,0,0-.351,1.354,1.9,1.9,0,0,0,.334,1.186,1.088,1.088,0,0,0,.914.437,1.135,1.135,0,0,0,.929-.443A1.815,1.815,0,0,0,803.155,140.509Z" fill="#1e1e1e"/>
      <path d="M811.921,140.919h-3.914q.093,1.308,1.646,1.307a3.21,3.21,0,0,0,1.74-.469v1.336a4.567,4.567,0,0,1-2.162.446,2.792,2.792,0,0,1-3.058-3.053,3.211,3.211,0,0,1,.867-2.367,2.889,2.889,0,0,1,2.133-.873,2.62,2.62,0,0,1,2.03.779,3,3,0,0,1,.718,2.115Zm-1.717-1.136q0-1.29-1.043-1.289a1,1,0,0,0-.771.369,1.682,1.682,0,0,0-.395.92Z" fill="#1e1e1e"/>
      <path d="M783.919,156.592h-1.9V153.17h-3.48v3.422h-1.893v-8.4h1.893v3.352h3.48V148.19h1.9Z" fill="#1e1e1e"/>
      <path d="M791.36,156.592h-1.846v-.914h-.029a2.094,2.094,0,0,1-1.834,1.061q-2.085,0-2.086-2.526v-3.621h1.846v3.457q0,1.272,1.008,1.272a1,1,0,0,0,.8-.349,1.406,1.406,0,0,0,.3-.946v-3.434h1.846Z" fill="#1e1e1e"/>
      <path d="M794.794,155.9h-.024v.7h-1.851V147.71h1.851V151.5h.024a2.195,2.195,0,0,1,1.951-1.049,2.139,2.139,0,0,1,1.787.8,3.435,3.435,0,0,1,.627,2.179,3.726,3.726,0,0,1-.732,2.409,2.388,2.388,0,0,1-1.957.908A1.889,1.889,0,0,1,794.794,155.9Zm-.053-2.531v.615a1.4,1.4,0,0,0,.334.961,1.087,1.087,0,0,0,.855.381,1.137,1.137,0,0,0,.982-.489,2.367,2.367,0,0,0,.349-1.386,1.878,1.878,0,0,0-.32-1.163,1.075,1.075,0,0,0-.911-.419,1.175,1.175,0,0,0-.923.416A1.581,1.581,0,0,0,794.741,153.364Z" fill="#1e1e1e"/>
    </g>
    <g>
      <path d="M82.054,70.809H80.161v-8.4h1.893Z" fill="#1e1e1e"/>
      <path d="M86.642,70.956a3.23,3.23,0,0,1-2.359-.841,3.478,3.478,0,0,1,.033-4.612,3.365,3.365,0,0,1,2.408-.84,3.19,3.19,0,0,1,2.344.84,2.991,2.991,0,0,1,.849,2.224,3.172,3.172,0,0,1-.876,2.361A3.256,3.256,0,0,1,86.642,70.956Zm.047-4.875a1.234,1.234,0,0,0-1.02.451,1.99,1.99,0,0,0-.363,1.277q0,1.728,1.394,1.729,1.331,0,1.331-1.776Q88.031,66.081,86.689,66.081Z" fill="#1e1e1e"/>
      <path d="M97.2,63.948H94.8v6.861h-1.9V63.948H90.521V62.407H97.2Z" fill="#1e1e1e"/>
      <path d="M106.681,70.809h-5.039v-8.4h4.846v1.541h-2.954v1.869h2.749v1.535h-2.749v1.922h3.147Z" fill="#1e1e1e"/>
      <path d="M113.718,70.809h-1.851v-.826h-.024a2.077,2.077,0,0,1-1.857.973,2.277,2.277,0,0,1-1.811-.794,3.289,3.289,0,0,1-.685-2.218,3.583,3.583,0,0,1,.755-2.385,2.464,2.464,0,0,1,1.981-.9,1.685,1.685,0,0,1,1.617.832h.024V61.926h1.851ZM111.9,67.891V67.44a1.423,1.423,0,0,0-.34-.973,1.2,1.2,0,0,0-1.846.1,2.248,2.248,0,0,0-.346,1.327,1.946,1.946,0,0,0,.334,1.219,1.185,1.185,0,0,0,1.843-.024A1.88,1.88,0,0,0,111.9,67.891Z" fill="#1e1e1e"/>
      <path d="M121.159,70.124a3.4,3.4,0,0,1-.966,2.587,3.92,3.92,0,0,1-2.8.916,4.448,4.448,0,0,1-1.922-.345V71.723a3.673,3.673,0,0,0,1.869.539,2.012,2.012,0,0,0,1.453-.5,1.776,1.776,0,0,0,.516-1.345v-.474h-.024a2.066,2.066,0,0,1-1.869,1.008,2.249,2.249,0,0,1-1.822-.809,3.281,3.281,0,0,1-.674-2.168,3.652,3.652,0,0,1,.75-2.42,2.447,2.447,0,0,1,1.975-.9,1.822,1.822,0,0,1,1.64.843h.024v-.7h1.851Zm-1.828-2.2v-.474a1.458,1.458,0,0,0-.337-.97,1.087,1.087,0,0,0-.876-.4,1.131,1.131,0,0,0-.966.48,2.256,2.256,0,0,0-.352,1.354,1.9,1.9,0,0,0,.334,1.186,1.089,1.089,0,0,0,.914.437,1.133,1.133,0,0,0,.929-.443A1.815,1.815,0,0,0,119.331,67.926Z" fill="#1e1e1e"/>
      <path d="M128.1,68.336h-3.914q.093,1.308,1.646,1.307a3.211,3.211,0,0,0,1.741-.469V70.51a4.572,4.572,0,0,1-2.162.446,2.793,2.793,0,0,1-3.059-3.053,3.211,3.211,0,0,1,.867-2.367,2.889,2.889,0,0,1,2.133-.873,2.619,2.619,0,0,1,2.03.779,3,3,0,0,1,.718,2.115ZM126.38,67.2q0-1.29-1.043-1.289a.994.994,0,0,0-.77.369,1.676,1.676,0,0,0-.4.92Z" fill="#1e1e1e"/>
      <path d="M138.38,70.809h-1.851v-.826h-.024a2.077,2.077,0,0,1-1.857.973,2.277,2.277,0,0,1-1.811-.794,3.289,3.289,0,0,1-.685-2.218,3.578,3.578,0,0,1,.756-2.385,2.462,2.462,0,0,1,1.98-.9,1.685,1.685,0,0,1,1.617.832h.024V61.926h1.851Zm-1.816-2.918V67.44a1.423,1.423,0,0,0-.34-.973,1.2,1.2,0,0,0-1.846.1,2.248,2.248,0,0,0-.345,1.327,1.939,1.939,0,0,0,.334,1.219,1.184,1.184,0,0,0,1.842-.024A1.874,1.874,0,0,0,136.564,67.891Z" fill="#1e1e1e"/>
      <path d="M145.329,68.336h-3.914q.095,1.308,1.647,1.307a3.21,3.21,0,0,0,1.74-.469V70.51a4.569,4.569,0,0,1-2.162.446,2.793,2.793,0,0,1-3.059-3.053,3.208,3.208,0,0,1,.868-2.367,2.888,2.888,0,0,1,2.132-.873,2.623,2.623,0,0,1,2.031.779,3,3,0,0,1,.717,2.115ZM143.613,67.2q0-1.29-1.043-1.289a1,1,0,0,0-.771.369,1.668,1.668,0,0,0-.4.92Z" fill="#1e1e1e"/>
      <path d="M152.144,64.809l-2.233,6H147.8l-2.127-6h1.981l1.043,3.7a5.452,5.452,0,0,1,.2,1.067h.023a6.022,6.022,0,0,1,.217-1.031l1.066-3.733Z" fill="#1e1e1e"/>
      <path d="M153.872,63.86a1.083,1.083,0,0,1-.767-.278.9.9,0,0,1-.3-.683.867.867,0,0,1,.3-.68,1.256,1.256,0,0,1,1.538,0,.871.871,0,0,1,.3.68.893.893,0,0,1-.3.691A1.1,1.1,0,0,1,153.872,63.86Zm.914,6.949h-1.851v-6h1.851Z" fill="#1e1e1e"/>
      <path d="M160.892,70.592a3.653,3.653,0,0,1-1.811.364,3.063,3.063,0,0,1-2.238-.838,2.9,2.9,0,0,1-.855-2.162,3.187,3.187,0,0,1,.917-2.412,3.39,3.39,0,0,1,2.452-.881,3.142,3.142,0,0,1,1.535.281v1.57a2.11,2.11,0,0,0-1.295-.433,1.71,1.71,0,0,0-1.263.465,1.743,1.743,0,0,0-.466,1.287,1.711,1.711,0,0,0,.446,1.251,1.639,1.639,0,0,0,1.224.454,2.448,2.448,0,0,0,1.354-.434Z" fill="#1e1e1e"/>
      <path d="M167.5,68.336h-3.914q.095,1.308,1.647,1.307a3.21,3.21,0,0,0,1.74-.469V70.51a4.569,4.569,0,0,1-2.162.446,2.793,2.793,0,0,1-3.059-3.053,3.208,3.208,0,0,1,.868-2.367,2.888,2.888,0,0,1,2.132-.873,2.623,2.623,0,0,1,2.031.779,3,3,0,0,1,.717,2.115ZM165.779,67.2q0-1.29-1.043-1.289a1,1,0,0,0-.771.369,1.675,1.675,0,0,0-.4.92Z" fill="#1e1e1e"/>
    </g>
    <g>
      <path d="M104.054,94.314v2.9h-1.893v-8.4h2.965q3.175,0,3.176,2.678a2.569,2.569,0,0,1-.912,2.048,3.611,3.611,0,0,1-2.434.782Zm0-4.055v2.619h.744q1.511,0,1.511-1.324,0-1.294-1.511-1.3Z" fill="#1e1e1e"/>
      <path d="M110.288,90.259a1.081,1.081,0,0,1-.768-.278.9.9,0,0,1-.3-.683.864.864,0,0,1,.3-.679,1.252,1.252,0,0,1,1.538,0,.864.864,0,0,1,.3.679.891.891,0,0,1-.3.692A1.1,1.1,0,0,1,110.288,90.259Zm.914,6.95H109.35v-6H111.2Z" fill="#1e1e1e"/>
      <path d="M114.636,96.511h-.024v3.457h-1.851V91.209h1.851v.9h.024a2.355,2.355,0,0,1,3.729-.249A3.4,3.4,0,0,1,119,94.039a3.692,3.692,0,0,1-.741,2.408,2.42,2.42,0,0,1-1.972.908A1.865,1.865,0,0,1,114.636,96.511Zm-.053-2.461v.481a1.523,1.523,0,0,0,.328,1.013,1.068,1.068,0,0,0,.861.393,1.137,1.137,0,0,0,.982-.489,2.365,2.365,0,0,0,.348-1.386q0-1.582-1.23-1.582a1.156,1.156,0,0,0-.929.431A1.718,1.718,0,0,0,114.583,94.05Z" fill="#1e1e1e"/>
      <path d="M125.593,94.736h-3.914q.093,1.306,1.646,1.307a3.219,3.219,0,0,0,1.74-.469V96.91a4.567,4.567,0,0,1-2.162.445,2.792,2.792,0,0,1-3.058-3.053,3.211,3.211,0,0,1,.867-2.367,2.889,2.889,0,0,1,2.133-.873,2.624,2.624,0,0,1,2.03.779,3.006,3.006,0,0,1,.718,2.116ZM123.876,93.6q0-1.289-1.043-1.289a1,1,0,0,0-.771.369,1.682,1.682,0,0,0-.395.92Z" fill="#1e1e1e"/>
      <path d="M128.546,97.209h-1.852V88.326h1.852Z" fill="#1e1e1e"/>
      <path d="M131.042,90.259a1.079,1.079,0,0,1-.768-.278.9.9,0,0,1-.3-.683.864.864,0,0,1,.3-.679,1.252,1.252,0,0,1,1.538,0,.864.864,0,0,1,.3.679.891.891,0,0,1-.3.692A1.1,1.1,0,0,1,131.042,90.259Zm.914,6.95H130.1v-6h1.852Z" fill="#1e1e1e"/>
      <path d="M139.309,97.209h-1.845V93.875q0-1.4-1-1.395a.987.987,0,0,0-.791.369,1.408,1.408,0,0,0-.311.938v3.422h-1.852v-6h1.852v.949h.023a2.122,2.122,0,0,1,1.928-1.1q1.992,0,1.992,2.473Z" fill="#1e1e1e"/>
      <path d="M146.165,94.736h-3.914q.093,1.306,1.646,1.307a3.219,3.219,0,0,0,1.74-.469V96.91a4.567,4.567,0,0,1-2.162.445,2.793,2.793,0,0,1-3.058-3.053,3.211,3.211,0,0,1,.867-2.367,2.889,2.889,0,0,1,2.133-.873,2.623,2.623,0,0,1,2.03.779,3,3,0,0,1,.718,2.116ZM144.448,93.6q0-1.289-1.043-1.289a.994.994,0,0,0-.77.369,1.676,1.676,0,0,0-.4.92Z" fill="#1e1e1e"/>
    </g>
    <g>
      <path d="M104.936,176.478h-1.172l-1.406-2.355a5.113,5.113,0,0,0-.375-.56,2.155,2.155,0,0,0-.372-.378,1.283,1.283,0,0,0-.411-.214,1.679,1.679,0,0,0-.5-.067H99.9v3.574h-.985v-8.4h2.508a3.609,3.609,0,0,1,1.017.137,2.284,2.284,0,0,1,.808.419,1.946,1.946,0,0,1,.537.7,2.333,2.333,0,0,1,.193.981,2.362,2.362,0,0,1-.132.806,2.1,2.1,0,0,1-.375.653,2.275,2.275,0,0,1-.586.489,2.967,2.967,0,0,1-.77.314v.023a1.827,1.827,0,0,1,.366.214,2.069,2.069,0,0,1,.3.284,4.092,4.092,0,0,1,.278.372c.092.139.194.3.308.484ZM99.9,168.966v3.047h1.336a2.028,2.028,0,0,0,.682-.111,1.583,1.583,0,0,0,.542-.319,1.447,1.447,0,0,0,.358-.51,1.706,1.706,0,0,0,.129-.677,1.318,1.318,0,0,0-.437-1.052,1.875,1.875,0,0,0-1.263-.378Z" fill="#1e1e1e"/>
      <path d="M110.52,168.966h-2.426v7.512h-.984v-7.512h-2.42v-.89h5.83Z" fill="#1e1e1e"/>
      <path d="M111.211,176.138v-1.16a2.228,2.228,0,0,0,.478.316,3.883,3.883,0,0,0,.586.238,4.705,4.705,0,0,0,.618.149,3.46,3.46,0,0,0,.574.053,2.248,2.248,0,0,0,1.357-.337,1.262,1.262,0,0,0,.3-1.561,1.66,1.66,0,0,0-.413-.46,4.1,4.1,0,0,0-.624-.4q-.36-.191-.776-.4-.439-.224-.82-.451a3.631,3.631,0,0,1-.663-.5,2.131,2.131,0,0,1-.442-.624,1.941,1.941,0,0,1-.161-.818,1.921,1.921,0,0,1,.252-1,2.171,2.171,0,0,1,.662-.7,2.99,2.99,0,0,1,.935-.41,4.268,4.268,0,0,1,1.069-.135,4.1,4.1,0,0,1,1.81.3v1.107a3.285,3.285,0,0,0-1.91-.515,3.13,3.13,0,0,0-.644.067,1.81,1.81,0,0,0-.574.22,1.274,1.274,0,0,0-.411.392,1.049,1.049,0,0,0-.158.586,1.208,1.208,0,0,0,.12.557,1.373,1.373,0,0,0,.355.428,3.487,3.487,0,0,0,.571.375c.225.121.483.254.776.4s.586.305.856.469a3.932,3.932,0,0,1,.709.545,2.419,2.419,0,0,1,.483.662,1.861,1.861,0,0,1,.179.832,2.112,2.112,0,0,1-.243,1.052,2,2,0,0,1-.656.7,2.863,2.863,0,0,1-.953.39,5.213,5.213,0,0,1-1.136.12,4.514,4.514,0,0,1-.492-.033q-.294-.032-.6-.093a4.759,4.759,0,0,1-.577-.153A1.793,1.793,0,0,1,111.211,176.138Z" fill="#1e1e1e"/>
      <path d="M118.963,173.3v3.176h-.984v-8.4h2.308a3.044,3.044,0,0,1,2.089.656,2.344,2.344,0,0,1,.741,1.852,2.547,2.547,0,0,1-.823,1.957,3.148,3.148,0,0,1-2.223.761Zm0-4.336v3.446h1.031a2.308,2.308,0,0,0,1.556-.466,1.648,1.648,0,0,0,.536-1.316q0-1.663-1.969-1.664Z" fill="#1e1e1e"/>
      <path d="M127.494,176.261V175.23a2.844,2.844,0,0,0,1.729.58q1.266,0,1.266-.844a.733.733,0,0,0-.109-.407,1.083,1.083,0,0,0-.293-.3,2.225,2.225,0,0,0-.433-.231q-.249-.1-.537-.214a7.168,7.168,0,0,1-.7-.319,2.135,2.135,0,0,1-.5-.364,1.347,1.347,0,0,1-.3-.46,1.613,1.613,0,0,1-.1-.6,1.434,1.434,0,0,1,.194-.747,1.694,1.694,0,0,1,.515-.545,2.391,2.391,0,0,1,.735-.331,3.278,3.278,0,0,1,.853-.112,3.441,3.441,0,0,1,1.4.27v.973a2.722,2.722,0,0,0-1.524-.434,1.774,1.774,0,0,0-.486.062,1.183,1.183,0,0,0-.372.172.813.813,0,0,0-.241.267.711.711,0,0,0-.084.343.827.827,0,0,0,.084.392.861.861,0,0,0,.25.282,1.879,1.879,0,0,0,.4.222q.234.1.533.217a7.352,7.352,0,0,1,.715.314,2.416,2.416,0,0,1,.539.363,1.426,1.426,0,0,1,.343.466,1.5,1.5,0,0,1,.12.627,1.478,1.478,0,0,1-.2.773,1.685,1.685,0,0,1-.525.545,2.379,2.379,0,0,1-.756.322,3.7,3.7,0,0,1-.9.106A3.4,3.4,0,0,1,127.494,176.261Z" fill="#1e1e1e"/>
      <path d="M135.457,176.619a2.787,2.787,0,0,1-2.124-.841,3.117,3.117,0,0,1-.794-2.23,3.244,3.244,0,0,1,.827-2.361,2.969,2.969,0,0,1,2.232-.85,2.692,2.692,0,0,1,2.095.827,3.273,3.273,0,0,1,.753,2.291,3.221,3.221,0,0,1-.812,2.3A2.842,2.842,0,0,1,135.457,176.619Zm.071-5.473a1.826,1.826,0,0,0-1.465.63,2.583,2.583,0,0,0-.539,1.737,2.444,2.444,0,0,0,.545,1.682,1.851,1.851,0,0,0,1.459.615,1.756,1.756,0,0,0,1.432-.6,2.621,2.621,0,0,0,.5-1.717,2.667,2.667,0,0,0-.5-1.735A1.748,1.748,0,0,0,135.528,171.146Z" fill="#1e1e1e"/>
      <path d="M144.832,176.478h-.961v-.949h-.023a1.975,1.975,0,0,1-1.852,1.09q-2.143,0-2.144-2.555v-3.586h.955v3.434q0,1.9,1.453,1.9a1.47,1.47,0,0,0,1.157-.518,1.984,1.984,0,0,0,.454-1.357v-3.457h.961Z" fill="#1e1e1e"/>
      <path d="M149.9,171.451a1.175,1.175,0,0,0-.727-.194,1.227,1.227,0,0,0-1.028.58,2.68,2.68,0,0,0-.413,1.582v3.059h-.961v-6h.961v1.236h.023a2.1,2.1,0,0,1,.627-.987,1.431,1.431,0,0,1,.943-.354,1.568,1.568,0,0,1,.575.082Z" fill="#1e1e1e"/>
      <path d="M155.033,176.2a3.12,3.12,0,0,1-1.64.416,2.717,2.717,0,0,1-2.071-.835,3.026,3.026,0,0,1-.789-2.165,3.327,3.327,0,0,1,.85-2.382,2.972,2.972,0,0,1,2.268-.9,3.158,3.158,0,0,1,1.394.293v.985a2.439,2.439,0,0,0-1.429-.469,1.932,1.932,0,0,0-1.509.659,2.5,2.5,0,0,0-.589,1.732,2.379,2.379,0,0,0,.554,1.664,1.908,1.908,0,0,0,1.485.609,2.409,2.409,0,0,0,1.476-.521Z" fill="#1e1e1e"/>
      <path d="M161.309,173.718h-4.236a2.24,2.24,0,0,0,.539,1.547,1.858,1.858,0,0,0,1.418.545,2.952,2.952,0,0,0,1.863-.668v.9a3.482,3.482,0,0,1-2.092.575,2.535,2.535,0,0,1-2-.818,3.346,3.346,0,0,1-.727-2.3,3.284,3.284,0,0,1,.794-2.283,2.547,2.547,0,0,1,1.972-.882,2.254,2.254,0,0,1,1.822.762,3.175,3.175,0,0,1,.645,2.115Zm-.984-.814a1.954,1.954,0,0,0-.4-1.295,1.367,1.367,0,0,0-1.1-.463,1.554,1.554,0,0,0-1.155.486,2.21,2.21,0,0,0-.586,1.272Z" fill="#1e1e1e"/>
    </g>
    <g>
      <path d="M243.367,169.608h-.979v-5.636c0-.446.028-.99.083-1.635h-.024a5.262,5.262,0,0,1-.252.814l-2.871,6.457h-.48l-2.866-6.41a5,5,0,0,1-.252-.861H235.7q.047.5.047,1.646v5.625H234.8v-8.4h1.3l2.578,5.859a7.4,7.4,0,0,1,.387,1.008h.035q.252-.692.405-1.031l2.631-5.836h1.23Z" fill="#1e1e1e"/>
      <path d="M247.955,169.749a2.781,2.781,0,0,1-2.124-.841,3.113,3.113,0,0,1-.794-2.229,3.246,3.246,0,0,1,.826-2.362,2.972,2.972,0,0,1,2.233-.849,2.689,2.689,0,0,1,2.094.826,3.275,3.275,0,0,1,.753,2.291,3.223,3.223,0,0,1-.811,2.3A2.845,2.845,0,0,1,247.955,169.749Zm.07-5.473a1.829,1.829,0,0,0-1.465.63,2.59,2.59,0,0,0-.539,1.738,2.446,2.446,0,0,0,.545,1.681,1.852,1.852,0,0,0,1.459.615,1.758,1.758,0,0,0,1.433-.6,2.619,2.619,0,0,0,.5-1.717,2.662,2.662,0,0,0-.5-1.734A1.751,1.751,0,0,0,248.025,164.276Z" fill="#1e1e1e"/>
      <path d="M255.262,169.55a1.857,1.857,0,0,1-.9.187q-1.577,0-1.576-1.757v-3.551h-1.031v-.821h1.031v-1.464l.961-.311v1.775h1.512v.821H253.75v3.381a1.4,1.4,0,0,0,.205.861.818.818,0,0,0,.68.258,1.016,1.016,0,0,0,.627-.2Z" fill="#1e1e1e"/>
      <path d="M257.037,162.085a.612.612,0,0,1-.44-.176.592.592,0,0,1-.181-.445.615.615,0,0,1,.621-.627.62.62,0,0,1,.448.179.624.624,0,0,1,0,.887A.615.615,0,0,1,257.037,162.085Zm.469,7.523h-.961v-6h.961Z" fill="#1e1e1e"/>
      <path d="M261.959,169.749a2.781,2.781,0,0,1-2.124-.841,3.109,3.109,0,0,1-.794-2.229,3.246,3.246,0,0,1,.826-2.362,2.971,2.971,0,0,1,2.232-.849,2.69,2.69,0,0,1,2.1.826,3.275,3.275,0,0,1,.753,2.291,3.223,3.223,0,0,1-.811,2.3A2.845,2.845,0,0,1,261.959,169.749Zm.07-5.473a1.829,1.829,0,0,0-1.465.63,2.59,2.59,0,0,0-.539,1.738,2.446,2.446,0,0,0,.545,1.681,1.852,1.852,0,0,0,1.459.615,1.758,1.758,0,0,0,1.433-.6,2.619,2.619,0,0,0,.5-1.717,2.662,2.662,0,0,0-.5-1.734A1.751,1.751,0,0,0,262.029,164.276Z" fill="#1e1e1e"/>
      <path d="M271.463,169.608H270.5v-3.421q0-1.911-1.395-1.911a1.513,1.513,0,0,0-1.192.542,2.009,2.009,0,0,0-.472,1.369v3.421h-.961v-6h.961v1h.024a2.165,2.165,0,0,1,1.968-1.137,1.834,1.834,0,0,1,1.506.636,2.827,2.827,0,0,1,.522,1.836Z" fill="#1e1e1e"/>
      <path d="M236.846,182.809h-.961v-1.02h-.024a2.217,2.217,0,0,1-2.062,1.16,2.241,2.241,0,0,1-1.808-.805,3.307,3.307,0,0,1-.676-2.195,3.6,3.6,0,0,1,.749-2.384,2.473,2.473,0,0,1,2-.9,1.922,1.922,0,0,1,1.8.973h.024v-3.715h.961Zm-.961-2.713v-.885a1.716,1.716,0,0,0-.481-1.23,1.61,1.61,0,0,0-1.219-.5,1.655,1.655,0,0,0-1.382.644,2.825,2.825,0,0,0-.5,1.781,2.541,2.541,0,0,0,.483,1.638,1.581,1.581,0,0,0,1.3.6,1.644,1.644,0,0,0,1.3-.58A2.162,2.162,0,0,0,235.885,180.1Z" fill="#1e1e1e"/>
      <path d="M243.613,180.049h-4.236a2.242,2.242,0,0,0,.539,1.547,1.859,1.859,0,0,0,1.418.545,2.948,2.948,0,0,0,1.863-.668v.9a3.481,3.481,0,0,1-2.092.574,2.537,2.537,0,0,1-2-.817,3.348,3.348,0,0,1-.726-2.3,3.277,3.277,0,0,1,.794-2.282,2.544,2.544,0,0,1,1.971-.882,2.258,2.258,0,0,1,1.823.762,3.18,3.18,0,0,1,.644,2.115Zm-.984-.815a1.952,1.952,0,0,0-.4-1.294,1.365,1.365,0,0,0-1.1-.463,1.555,1.555,0,0,0-1.155.486,2.214,2.214,0,0,0-.586,1.271Z" fill="#1e1e1e"/>
      <path d="M247.849,182.75a1.849,1.849,0,0,1-.9.188q-1.577,0-1.576-1.758v-3.551h-1.031v-.82h1.031v-1.465l.961-.311v1.776h1.511v.82h-1.511v3.381a1.4,1.4,0,0,0,.205.861.816.816,0,0,0,.679.258,1.006,1.006,0,0,0,.627-.2Z" fill="#1e1e1e"/>
      <path d="M253.955,180.049h-4.236a2.242,2.242,0,0,0,.539,1.547,1.858,1.858,0,0,0,1.418.545,2.952,2.952,0,0,0,1.863-.668v.9a3.481,3.481,0,0,1-2.092.574,2.534,2.534,0,0,1-2-.817,3.349,3.349,0,0,1-.727-2.3,3.281,3.281,0,0,1,.794-2.282,2.547,2.547,0,0,1,1.972-.882,2.254,2.254,0,0,1,1.822.762,3.175,3.175,0,0,1,.645,2.115Zm-.984-.815a1.952,1.952,0,0,0-.4-1.294,1.367,1.367,0,0,0-1.1-.463,1.554,1.554,0,0,0-1.155.486,2.207,2.207,0,0,0-.586,1.271Z" fill="#1e1e1e"/>
      <path d="M259.5,182.533a3.117,3.117,0,0,1-1.641.416,2.714,2.714,0,0,1-2.071-.835,3.026,3.026,0,0,1-.788-2.165,3.329,3.329,0,0,1,.849-2.382,2.976,2.976,0,0,1,2.268-.9,3.166,3.166,0,0,1,1.395.293v.984a2.448,2.448,0,0,0-1.43-.468,1.932,1.932,0,0,0-1.509.659,2.5,2.5,0,0,0-.589,1.731,2.382,2.382,0,0,0,.554,1.664,1.906,1.906,0,0,0,1.485.61,2.407,2.407,0,0,0,1.477-.522Z" fill="#1e1e1e"/>
      <path d="M263.734,182.75a1.849,1.849,0,0,1-.9.188q-1.577,0-1.576-1.758v-3.551H260.23v-.82h1.032v-1.465l.96-.311v1.776h1.512v.82h-1.512v3.381a1.4,1.4,0,0,0,.206.861.816.816,0,0,0,.679.258,1.01,1.01,0,0,0,.627-.2Z" fill="#1e1e1e"/>
      <path d="M267.525,182.949a2.781,2.781,0,0,1-2.124-.841,3.113,3.113,0,0,1-.794-2.229,3.246,3.246,0,0,1,.826-2.361,2.969,2.969,0,0,1,2.233-.85,2.692,2.692,0,0,1,2.1.826,3.281,3.281,0,0,1,.752,2.291,3.223,3.223,0,0,1-.811,2.3A2.845,2.845,0,0,1,267.525,182.949Zm.071-5.472a1.826,1.826,0,0,0-1.465.63,2.582,2.582,0,0,0-.539,1.737,2.441,2.441,0,0,0,.545,1.681,1.849,1.849,0,0,0,1.459.616,1.754,1.754,0,0,0,1.432-.6,2.617,2.617,0,0,0,.5-1.717,2.662,2.662,0,0,0-.5-1.734A1.748,1.748,0,0,0,267.6,177.477Z" fill="#1e1e1e"/>
      <path d="M275.178,177.781a1.177,1.177,0,0,0-.727-.193,1.225,1.225,0,0,0-1.028.58,2.678,2.678,0,0,0-.413,1.582v3.059h-.961v-6h.961v1.236h.023a2.1,2.1,0,0,1,.627-.987,1.427,1.427,0,0,1,.943-.355,1.589,1.589,0,0,1,.575.082Z" fill="#1e1e1e"/>
    </g>
    <g>
      <path d="M664.209,176.409h-.985v-3.832h-4.347v3.832h-.985v-8.4h.985v3.686h4.347v-3.686h.985Z" fill="#1e1e1e"/>
      <path d="M671.135,176.409h-.961v-.949h-.024a1.972,1.972,0,0,1-1.851,1.089q-2.145,0-2.145-2.554v-3.586h.955v3.433q0,1.9,1.453,1.9a1.471,1.471,0,0,0,1.158-.519,1.986,1.986,0,0,0,.454-1.356v-3.457h.961Z" fill="#1e1e1e"/>
      <path d="M674.058,175.542h-.023v.867h-.961v-8.883h.961v3.937h.023a2.274,2.274,0,0,1,2.075-1.195,2.2,2.2,0,0,1,1.807.806,3.324,3.324,0,0,1,.654,2.159,3.719,3.719,0,0,1-.733,2.411,2.436,2.436,0,0,1-2,.905A1.976,1.976,0,0,1,674.058,175.542Zm-.023-2.42v.838a1.782,1.782,0,0,0,.483,1.262,1.724,1.724,0,0,0,2.6-.149,3.068,3.068,0,0,0,.5-1.858,2.416,2.416,0,0,0-.463-1.57,1.53,1.53,0,0,0-1.254-.568,1.7,1.7,0,0,0-1.347.583A2.139,2.139,0,0,0,674.035,173.122Z" fill="#1e1e1e"/>
      <path d="M683.053,176.192v-1.031a2.846,2.846,0,0,0,1.728.58q1.266,0,1.266-.844a.725.725,0,0,0-.109-.407,1.069,1.069,0,0,0-.293-.3,2.281,2.281,0,0,0-.433-.232q-.249-.1-.536-.213a6.954,6.954,0,0,1-.7-.32,2.105,2.105,0,0,1-.5-.363,1.357,1.357,0,0,1-.3-.46,1.615,1.615,0,0,1-.1-.6,1.434,1.434,0,0,1,.194-.747,1.712,1.712,0,0,1,.515-.544,2.411,2.411,0,0,1,.736-.332,3.264,3.264,0,0,1,.852-.111,3.437,3.437,0,0,1,1.395.27v.972a2.722,2.722,0,0,0-1.524-.433,1.78,1.78,0,0,0-.486.061,1.185,1.185,0,0,0-.372.173.781.781,0,0,0-.24.267.694.694,0,0,0-.085.342.816.816,0,0,0,.085.393.844.844,0,0,0,.249.281,1.88,1.88,0,0,0,.4.223c.156.066.334.139.533.217a7.36,7.36,0,0,1,.715.313,2.453,2.453,0,0,1,.539.364,1.408,1.408,0,0,1,.343.465,1.505,1.505,0,0,1,.12.627,1.479,1.479,0,0,1-.2.774,1.7,1.7,0,0,1-.525.545,2.392,2.392,0,0,1-.756.322,3.74,3.74,0,0,1-.9.105A3.406,3.406,0,0,1,683.053,176.192Z" fill="#1e1e1e"/>
      <path d="M689,168.885a.61.61,0,0,1-.44-.175.6.6,0,0,1-.181-.446.615.615,0,0,1,.621-.627.62.62,0,0,1,.448.179.625.625,0,0,1,0,.888A.614.614,0,0,1,689,168.885Zm.469,7.524h-.961v-6h.961Z" fill="#1e1e1e"/>
      <path d="M696.394,176.409h-.961v-3.422q0-1.911-1.394-1.91a1.512,1.512,0,0,0-1.193.542,2.009,2.009,0,0,0-.471,1.368v3.422h-.961v-6h.961v1h.023a2.166,2.166,0,0,1,1.969-1.137,1.836,1.836,0,0,1,1.506.636,2.83,2.83,0,0,1,.521,1.837Z" fill="#1e1e1e"/>
      <path d="M703.185,176.409h-1.347l-2.649-2.883h-.023v2.883h-.961v-8.883h.961v5.631h.023l2.52-2.748h1.26l-2.784,2.894Z" fill="#1e1e1e"/>
    </g>
    <g>
      <path d="M391.1,129.739a5.628,5.628,0,0,1-2.813.715,3.844,3.844,0,0,1-2.909-1.16,4.258,4.258,0,0,1-1.111-3.071,4.37,4.37,0,0,1,1.234-3.2,4.2,4.2,0,0,1,3.126-1.251,5.337,5.337,0,0,1,2.3.445v1.09a4.43,4.43,0,0,0-2.414-.644,3.018,3.018,0,0,0-2.315.972,4.064,4.064,0,0,0-.064,5.025,2.936,2.936,0,0,0,2.273.911,3.509,3.509,0,0,0,1.7-.393v-2.355h-1.84v-.891H391.1Z" fill="#1e1e1e"/>
      <path d="M396.047,125.286a1.175,1.175,0,0,0-.727-.194,1.227,1.227,0,0,0-1.028.58,2.678,2.678,0,0,0-.413,1.582v3.059h-.961v-6h.961v1.236h.023a2.1,2.1,0,0,1,.627-.987,1.431,1.431,0,0,1,.943-.354,1.568,1.568,0,0,1,.575.082Z" fill="#1e1e1e"/>
      <path d="M401.385,130.313h-.961v-.937H400.4a2.013,2.013,0,0,1-1.846,1.078,1.975,1.975,0,0,1-1.4-.475,1.643,1.643,0,0,1-.507-1.26q0-1.681,1.981-1.957l1.8-.252q0-1.529-1.237-1.529a2.955,2.955,0,0,0-1.957.738v-.984a3.72,3.72,0,0,1,2.039-.563q2.115,0,2.116,2.239Zm-.961-3.035-1.448.2a2.354,2.354,0,0,0-1.007.331.954.954,0,0,0-.34.841.916.916,0,0,0,.313.718,1.213,1.213,0,0,0,.835.278,1.543,1.543,0,0,0,1.181-.5,1.792,1.792,0,0,0,.466-1.268Z" fill="#1e1e1e"/>
      <path d="M404.179,129.446h-.023v3.627H403.2v-8.76h.961v1.055h.023a2.274,2.274,0,0,1,2.075-1.2,2.2,2.2,0,0,1,1.81.806,3.335,3.335,0,0,1,.651,2.159,3.713,3.713,0,0,1-.733,2.411,2.437,2.437,0,0,1-2,.906A2.008,2.008,0,0,1,404.179,129.446Zm-.023-2.42v.838a1.786,1.786,0,0,0,.483,1.263,1.725,1.725,0,0,0,2.6-.15,3.063,3.063,0,0,0,.5-1.857,2.419,2.419,0,0,0-.463-1.571,1.53,1.53,0,0,0-1.254-.568,1.7,1.7,0,0,0-1.347.583A2.141,2.141,0,0,0,404.156,127.026Z" fill="#1e1e1e"/>
      <path d="M415.23,130.313h-.961v-3.457q0-1.875-1.394-1.875a1.523,1.523,0,0,0-1.184.542,2.02,2.02,0,0,0-.48,1.392v3.4h-.961V121.43h.961v3.879h.023a2.182,2.182,0,0,1,1.969-1.137q2.026,0,2.027,2.444Z" fill="#1e1e1e"/>
      <path d="M380.317,140.753h-4.236a2.24,2.24,0,0,0,.539,1.547,1.856,1.856,0,0,0,1.418.545,2.942,2.942,0,0,0,1.863-.668v.9a3.486,3.486,0,0,1-2.092.574,2.538,2.538,0,0,1-2-.818,3.344,3.344,0,0,1-.726-2.3,3.279,3.279,0,0,1,.794-2.283,2.546,2.546,0,0,1,1.971-.881,2.259,2.259,0,0,1,1.823.761,3.181,3.181,0,0,1,.644,2.116Zm-.984-.814a1.954,1.954,0,0,0-.4-1.295,1.367,1.367,0,0,0-1.1-.463,1.549,1.549,0,0,0-1.154.487,2.2,2.2,0,0,0-.586,1.271Z" fill="#1e1e1e"/>
      <path d="M386.153,137.513l-2.016,3.035,1.981,2.965H385l-1.178-1.945c-.074-.121-.162-.274-.264-.457h-.023c-.02.035-.111.187-.275.457l-1.2,1.945H380.95L383,140.572l-1.957-3.059h1.119l1.16,2.051c.086.152.17.309.252.469h.024l1.5-2.52Z" fill="#1e1e1e"/>
      <path d="M390.061,143.455a1.85,1.85,0,0,1-.9.187q-1.577,0-1.576-1.758v-3.55h-1.032v-.821h1.032v-1.465l.961-.31v1.775h1.511v.821H388.55v3.38a1.4,1.4,0,0,0,.2.862.816.816,0,0,0,.679.258,1.007,1.007,0,0,0,.627-.2Z" fill="#1e1e1e"/>
      <path d="M396.167,140.753H391.93a2.245,2.245,0,0,0,.54,1.547,1.853,1.853,0,0,0,1.417.545,2.947,2.947,0,0,0,1.864-.668v.9a3.49,3.49,0,0,1-2.092.574,2.535,2.535,0,0,1-2-.818,3.344,3.344,0,0,1-.727-2.3,3.284,3.284,0,0,1,.794-2.283,2.55,2.55,0,0,1,1.972-.881,2.256,2.256,0,0,1,1.822.761,3.176,3.176,0,0,1,.645,2.116Zm-.985-.814a1.949,1.949,0,0,0-.4-1.295,1.37,1.37,0,0,0-1.1-.463,1.55,1.55,0,0,0-1.154.487,2.207,2.207,0,0,0-.586,1.271Z" fill="#1e1e1e"/>
      <path d="M402.6,143.513h-.961v-3.422q0-1.909-1.394-1.91a1.512,1.512,0,0,0-1.192.542,2.009,2.009,0,0,0-.472,1.368v3.422h-.961v-6h.961v1h.023a2.167,2.167,0,0,1,1.969-1.136,1.839,1.839,0,0,1,1.506.635,2.83,2.83,0,0,1,.521,1.837Z" fill="#1e1e1e"/>
      <path d="M404.048,143.3v-1.031a2.839,2.839,0,0,0,1.728.58q1.266,0,1.266-.843a.729.729,0,0,0-.109-.408,1.083,1.083,0,0,0-.293-.3,2.225,2.225,0,0,0-.433-.231c-.166-.068-.345-.14-.536-.214a6.838,6.838,0,0,1-.7-.319,2.1,2.1,0,0,1-.5-.364,1.341,1.341,0,0,1-.305-.459,1.639,1.639,0,0,1-.1-.6,1.434,1.434,0,0,1,.194-.747,1.716,1.716,0,0,1,.515-.545,2.409,2.409,0,0,1,.736-.331,3.264,3.264,0,0,1,.852-.111,3.437,3.437,0,0,1,1.395.269v.973a2.72,2.72,0,0,0-1.524-.434,1.784,1.784,0,0,0-.486.062,1.163,1.163,0,0,0-.372.173.787.787,0,0,0-.24.266.7.7,0,0,0-.085.343.822.822,0,0,0,.085.393.853.853,0,0,0,.249.281,1.879,1.879,0,0,0,.4.222q.234.1.533.217a7.352,7.352,0,0,1,.715.314,2.416,2.416,0,0,1,.539.363,1.412,1.412,0,0,1,.343.466,1.505,1.505,0,0,1,.12.627,1.475,1.475,0,0,1-.2.773,1.676,1.676,0,0,1-.525.545,2.373,2.373,0,0,1-.755.322,3.7,3.7,0,0,1-.9.106A3.394,3.394,0,0,1,404.048,143.3Z" fill="#1e1e1e"/>
      <path d="M410,135.99a.612.612,0,0,1-.44-.176.593.593,0,0,1-.181-.445.613.613,0,0,1,.621-.627.619.619,0,0,1,.448.178.6.6,0,0,1,.185.449.593.593,0,0,1-.185.439A.615.615,0,0,1,410,135.99Zm.469,7.523H409.5v-6h.961Z" fill="#1e1e1e"/>
      <path d="M414.917,143.654a2.781,2.781,0,0,1-2.124-.841,3.112,3.112,0,0,1-.794-2.229,3.246,3.246,0,0,1,.826-2.362,2.971,2.971,0,0,1,2.232-.849,2.69,2.69,0,0,1,2.095.826,3.275,3.275,0,0,1,.753,2.291,3.225,3.225,0,0,1-.811,2.3A2.845,2.845,0,0,1,414.917,143.654Zm.07-5.473a1.829,1.829,0,0,0-1.465.63,2.589,2.589,0,0,0-.539,1.737,2.449,2.449,0,0,0,.545,1.682,1.852,1.852,0,0,0,1.459.615,1.758,1.758,0,0,0,1.433-.6,2.621,2.621,0,0,0,.5-1.717,2.662,2.662,0,0,0-.5-1.734A1.748,1.748,0,0,0,414.987,138.181Z" fill="#1e1e1e"/>
      <path d="M424.421,143.513h-.961v-3.422q0-1.909-1.395-1.91a1.513,1.513,0,0,0-1.192.542,2.009,2.009,0,0,0-.472,1.368v3.422h-.961v-6h.961v1h.024a2.166,2.166,0,0,1,1.968-1.136,1.836,1.836,0,0,1,1.506.635,2.83,2.83,0,0,1,.522,1.837Z" fill="#1e1e1e"/>
    </g>
    <g>
      <path d="M391.1,203.532a5.618,5.618,0,0,1-2.813.715,3.844,3.844,0,0,1-2.909-1.16,4.256,4.256,0,0,1-1.111-3.07,4.368,4.368,0,0,1,1.234-3.2,4.2,4.2,0,0,1,3.126-1.251,5.322,5.322,0,0,1,2.3.445v1.09a4.422,4.422,0,0,0-2.414-.645,3.015,3.015,0,0,0-2.315.973,4.063,4.063,0,0,0-.064,5.024,2.933,2.933,0,0,0,2.273.911,3.508,3.508,0,0,0,1.7-.392v-2.356h-1.84v-.89H391.1Z" fill="#1e1e1e"/>
      <path d="M396.047,199.079a1.175,1.175,0,0,0-.727-.193,1.225,1.225,0,0,0-1.028.58,2.678,2.678,0,0,0-.413,1.582v3.059h-.961v-6h.961v1.236h.023a2.1,2.1,0,0,1,.627-.987,1.427,1.427,0,0,1,.943-.355,1.568,1.568,0,0,1,.575.082Z" fill="#1e1e1e"/>
      <path d="M401.385,204.107h-.961v-.938H400.4a2.011,2.011,0,0,1-1.846,1.078,1.975,1.975,0,0,1-1.4-.474,1.646,1.646,0,0,1-.507-1.26q0-1.681,1.981-1.957l1.8-.252q0-1.53-1.237-1.53a2.957,2.957,0,0,0-1.957.739v-.985a3.719,3.719,0,0,1,2.039-.562q2.115,0,2.116,2.238Zm-.961-3.036-1.448.2a2.327,2.327,0,0,0-1.007.331.952.952,0,0,0-.34.84.915.915,0,0,0,.313.718,1.209,1.209,0,0,0,.835.279,1.543,1.543,0,0,0,1.181-.5,1.793,1.793,0,0,0,.466-1.269Z" fill="#1e1e1e"/>
      <path d="M404.179,203.239h-.023v3.627H403.2v-8.759h.961v1.054h.023a2.273,2.273,0,0,1,2.075-1.195,2.194,2.194,0,0,1,1.81.806,3.333,3.333,0,0,1,.651,2.159,3.715,3.715,0,0,1-.733,2.411,2.439,2.439,0,0,1-2,.905A2.008,2.008,0,0,1,404.179,203.239Zm-.023-2.42v.838a1.786,1.786,0,0,0,.483,1.263,1.724,1.724,0,0,0,2.6-.149,3.068,3.068,0,0,0,.5-1.858,2.416,2.416,0,0,0-.463-1.57,1.531,1.531,0,0,0-1.254-.569,1.7,1.7,0,0,0-1.347.583A2.141,2.141,0,0,0,404.156,200.819Z" fill="#1e1e1e"/>
      <path d="M415.23,204.107h-.961v-3.458q0-1.875-1.394-1.875a1.523,1.523,0,0,0-1.184.542,2.024,2.024,0,0,0-.48,1.392v3.4h-.961v-8.883h.961V199.1h.023a2.182,2.182,0,0,1,1.969-1.137q2.026,0,2.027,2.443Z" fill="#1e1e1e"/>
      <path d="M380.317,214.547h-4.236a2.24,2.24,0,0,0,.539,1.547,1.859,1.859,0,0,0,1.418.545,2.948,2.948,0,0,0,1.863-.668v.9a3.479,3.479,0,0,1-2.092.574,2.537,2.537,0,0,1-2-.817,3.348,3.348,0,0,1-.726-2.3,3.278,3.278,0,0,1,.794-2.282,2.544,2.544,0,0,1,1.971-.882,2.256,2.256,0,0,1,1.823.762,3.18,3.18,0,0,1,.644,2.115Zm-.984-.815a1.952,1.952,0,0,0-.4-1.294,1.364,1.364,0,0,0-1.1-.463,1.552,1.552,0,0,0-1.154.486,2.2,2.2,0,0,0-.586,1.271Z" fill="#1e1e1e"/>
      <path d="M386.153,211.307l-2.016,3.035,1.981,2.965H385l-1.178-1.946q-.111-.181-.264-.457h-.023c-.02.036-.111.188-.275.457l-1.2,1.946H380.95L383,214.365l-1.957-3.058h1.119l1.16,2.05q.129.23.252.469h.024l1.5-2.519Z" fill="#1e1e1e"/>
      <path d="M390.061,217.248a1.849,1.849,0,0,1-.9.188q-1.577,0-1.576-1.758v-3.551h-1.032v-.82h1.032v-1.465l.961-.311v1.776h1.511v.82H388.55v3.381a1.4,1.4,0,0,0,.2.861.816.816,0,0,0,.679.258,1.006,1.006,0,0,0,.627-.2Z" fill="#1e1e1e"/>
      <path d="M396.167,214.547H391.93a2.245,2.245,0,0,0,.54,1.547,1.857,1.857,0,0,0,1.417.545,2.953,2.953,0,0,0,1.864-.668v.9a3.483,3.483,0,0,1-2.092.574,2.534,2.534,0,0,1-2-.817,3.349,3.349,0,0,1-.727-2.3,3.283,3.283,0,0,1,.794-2.282,2.547,2.547,0,0,1,1.972-.882,2.254,2.254,0,0,1,1.822.762,3.175,3.175,0,0,1,.645,2.115Zm-.985-.815a1.946,1.946,0,0,0-.4-1.294,1.367,1.367,0,0,0-1.1-.463,1.553,1.553,0,0,0-1.154.486,2.207,2.207,0,0,0-.586,1.271Z" fill="#1e1e1e"/>
      <path d="M402.6,217.307h-.961v-3.422q0-1.911-1.394-1.91a1.508,1.508,0,0,0-1.192.542,2.005,2.005,0,0,0-.472,1.368v3.422h-.961v-6h.961v1h.023a2.166,2.166,0,0,1,1.969-1.137,1.836,1.836,0,0,1,1.506.636,2.83,2.83,0,0,1,.521,1.837Z" fill="#1e1e1e"/>
      <path d="M404.048,217.09v-1.031a2.846,2.846,0,0,0,1.728.58q1.266,0,1.266-.844a.725.725,0,0,0-.109-.407,1.069,1.069,0,0,0-.293-.3,2.281,2.281,0,0,0-.433-.232q-.249-.1-.536-.213a6.83,6.83,0,0,1-.7-.32,2.066,2.066,0,0,1-.5-.363,1.345,1.345,0,0,1-.305-.46,1.635,1.635,0,0,1-.1-.6,1.434,1.434,0,0,1,.194-.747,1.737,1.737,0,0,1,.515-.545,2.434,2.434,0,0,1,.736-.331,3.264,3.264,0,0,1,.852-.111,3.437,3.437,0,0,1,1.395.27v.972a2.719,2.719,0,0,0-1.524-.433,1.786,1.786,0,0,0-.486.061,1.185,1.185,0,0,0-.372.173.781.781,0,0,0-.24.267.694.694,0,0,0-.085.342.816.816,0,0,0,.085.393.853.853,0,0,0,.249.281,1.925,1.925,0,0,0,.4.223c.156.066.334.139.533.217a7.36,7.36,0,0,1,.715.313,2.486,2.486,0,0,1,.539.363,1.412,1.412,0,0,1,.343.466,1.505,1.505,0,0,1,.12.627,1.479,1.479,0,0,1-.2.774,1.7,1.7,0,0,1-.525.545,2.4,2.4,0,0,1-.755.322,3.754,3.754,0,0,1-.9.1A3.406,3.406,0,0,1,404.048,217.09Z" fill="#1e1e1e"/>
      <path d="M410,209.783a.608.608,0,0,1-.44-.176.592.592,0,0,1-.181-.445.615.615,0,0,1,.621-.627.62.62,0,0,1,.448.179.625.625,0,0,1,0,.888A.614.614,0,0,1,410,209.783Zm.469,7.524H409.5v-6h.961Z" fill="#1e1e1e"/>
      <path d="M414.917,217.447a2.784,2.784,0,0,1-2.124-.84,3.113,3.113,0,0,1-.794-2.23,3.242,3.242,0,0,1,.826-2.361,2.968,2.968,0,0,1,2.232-.85,2.69,2.69,0,0,1,2.095.826,3.277,3.277,0,0,1,.753,2.291,3.223,3.223,0,0,1-.811,2.3A2.845,2.845,0,0,1,414.917,217.447Zm.07-5.472a1.829,1.829,0,0,0-1.465.63,2.587,2.587,0,0,0-.539,1.737,2.446,2.446,0,0,0,.545,1.681,1.85,1.85,0,0,0,1.459.616,1.756,1.756,0,0,0,1.433-.6,2.617,2.617,0,0,0,.5-1.717,2.662,2.662,0,0,0-.5-1.734A1.75,1.75,0,0,0,414.987,211.975Z" fill="#1e1e1e"/>
      <path d="M424.421,217.307h-.961v-3.422q0-1.911-1.395-1.91a1.51,1.51,0,0,0-1.192.542,2.005,2.005,0,0,0-.472,1.368v3.422h-.961v-6h.961v1h.024a2.165,2.165,0,0,1,1.968-1.137,1.834,1.834,0,0,1,1.506.636,2.83,2.83,0,0,1,.522,1.837Z" fill="#1e1e1e"/>
    </g>
    <g>
      <path d="M539.583,169.339a5.625,5.625,0,0,1-2.813.715,3.844,3.844,0,0,1-2.909-1.16,4.258,4.258,0,0,1-1.11-3.071,4.371,4.371,0,0,1,1.233-3.2,4.2,4.2,0,0,1,3.126-1.251,5.334,5.334,0,0,1,2.3.445v1.09a4.428,4.428,0,0,0-2.414-.644,3.018,3.018,0,0,0-2.315.972,4.064,4.064,0,0,0-.064,5.025,2.938,2.938,0,0,0,2.273.911,3.506,3.506,0,0,0,1.7-.393v-2.355h-1.839v-.891h2.824Z" fill="#1e1e1e"/>
      <path d="M544.534,164.886a1.175,1.175,0,0,0-.727-.194,1.226,1.226,0,0,0-1.028.581,2.683,2.683,0,0,0-.413,1.582v3.058h-.961v-6h.961v1.236h.023a2.1,2.1,0,0,1,.627-.987,1.433,1.433,0,0,1,.944-.354,1.562,1.562,0,0,1,.574.082Z" fill="#1e1e1e"/>
      <path d="M549.872,169.913h-.961v-.937h-.024a2.011,2.011,0,0,1-1.845,1.078,1.971,1.971,0,0,1-1.4-.475,1.646,1.646,0,0,1-.506-1.26q0-1.681,1.98-1.957l1.8-.252q0-1.529-1.236-1.529a2.954,2.954,0,0,0-1.957.738v-.984a3.715,3.715,0,0,1,2.039-.562q2.115,0,2.115,2.238Zm-.961-3.035-1.447.2a2.354,2.354,0,0,0-1.008.331.954.954,0,0,0-.34.841.92.92,0,0,0,.313.718,1.215,1.215,0,0,0,.835.278,1.542,1.542,0,0,0,1.181-.5,1.788,1.788,0,0,0,.466-1.268Z" fill="#1e1e1e"/>
      <path d="M552.667,169.046h-.024v3.627h-.961v-8.76h.961v1.055h.024a2.271,2.271,0,0,1,2.074-1.195,2.2,2.2,0,0,1,1.811.805,3.34,3.34,0,0,1,.65,2.159,3.719,3.719,0,0,1-.732,2.411,2.44,2.44,0,0,1-2,.906A2.007,2.007,0,0,1,552.667,169.046Zm-.024-2.42v.838a1.783,1.783,0,0,0,.484,1.263,1.724,1.724,0,0,0,2.6-.15,3.056,3.056,0,0,0,.5-1.857,2.425,2.425,0,0,0-.463-1.571,1.535,1.535,0,0,0-1.254-.568,1.7,1.7,0,0,0-1.348.583A2.141,2.141,0,0,0,552.643,166.626Z" fill="#1e1e1e"/>
      <path d="M563.718,169.913h-.961v-3.457q0-1.875-1.395-1.875a1.519,1.519,0,0,0-1.183.542,2.016,2.016,0,0,0-.481,1.392v3.4h-.961V161.03h.961v3.879h.023a2.182,2.182,0,0,1,1.969-1.136q2.028,0,2.028,2.443Z" fill="#1e1e1e"/>
      <path d="M528.8,180.354h-4.236a2.242,2.242,0,0,0,.539,1.546,1.857,1.857,0,0,0,1.418.545,2.942,2.942,0,0,0,1.863-.668v.9a3.478,3.478,0,0,1-2.091.574,2.534,2.534,0,0,1-2-.817,3.344,3.344,0,0,1-.727-2.3,3.279,3.279,0,0,1,.794-2.282,2.546,2.546,0,0,1,1.972-.882,2.258,2.258,0,0,1,1.822.761,3.175,3.175,0,0,1,.644,2.116Zm-.984-.815a1.96,1.96,0,0,0-.4-1.295,1.37,1.37,0,0,0-1.1-.463,1.549,1.549,0,0,0-1.154.487,2.2,2.2,0,0,0-.586,1.271Z" fill="#1e1e1e"/>
      <path d="M534.64,177.113l-2.015,3.035,1.98,2.965h-1.119l-1.178-1.945q-.111-.182-.263-.457h-.024q-.029.053-.275.457l-1.2,1.945h-1.108l2.045-2.941-1.957-3.059h1.119l1.16,2.051c.086.152.17.309.252.469h.024l1.5-2.52Z" fill="#1e1e1e"/>
      <path d="M538.549,183.055a1.857,1.857,0,0,1-.9.187q-1.577,0-1.576-1.758v-3.55h-1.031v-.821h1.031v-1.465l.961-.31v1.775h1.512v.821h-1.512v3.381a1.4,1.4,0,0,0,.2.861.818.818,0,0,0,.68.258,1.011,1.011,0,0,0,.627-.2Z" fill="#1e1e1e"/>
      <path d="M544.654,180.354h-4.236a2.237,2.237,0,0,0,.539,1.546,1.856,1.856,0,0,0,1.418.545,2.942,2.942,0,0,0,1.863-.668v.9a3.481,3.481,0,0,1-2.092.574,2.537,2.537,0,0,1-2-.817,3.348,3.348,0,0,1-.726-2.3,3.275,3.275,0,0,1,.794-2.282,2.544,2.544,0,0,1,1.971-.882,2.26,2.26,0,0,1,1.823.761,3.181,3.181,0,0,1,.644,2.116Zm-.984-.815a1.954,1.954,0,0,0-.4-1.295,1.368,1.368,0,0,0-1.1-.463,1.553,1.553,0,0,0-1.155.487,2.214,2.214,0,0,0-.586,1.271Z" fill="#1e1e1e"/>
      <path d="M551.088,183.113h-.961v-3.422q0-1.91-1.395-1.91a1.513,1.513,0,0,0-1.192.542,2.009,2.009,0,0,0-.472,1.368v3.422h-.961v-6h.961v1h.024a2.166,2.166,0,0,1,1.968-1.136,1.836,1.836,0,0,1,1.506.635,2.832,2.832,0,0,1,.522,1.837Z" fill="#1e1e1e"/>
      <path d="M552.535,182.9v-1.032a2.841,2.841,0,0,0,1.728.58q1.266,0,1.266-.843a.736.736,0,0,0-.108-.408,1.1,1.1,0,0,0-.293-.3,2.29,2.29,0,0,0-.434-.231c-.166-.068-.345-.14-.536-.214a6.838,6.838,0,0,1-.7-.319,2.162,2.162,0,0,1-.5-.363,1.37,1.37,0,0,1-.3-.46,1.636,1.636,0,0,1-.1-.6,1.433,1.433,0,0,1,.193-.747,1.719,1.719,0,0,1,.516-.545,2.415,2.415,0,0,1,.735-.331,3.272,3.272,0,0,1,.853-.111,3.453,3.453,0,0,1,1.394.269v.973a2.717,2.717,0,0,0-1.523-.434,1.787,1.787,0,0,0-.487.062,1.183,1.183,0,0,0-.372.173.808.808,0,0,0-.24.266.7.7,0,0,0-.085.343.822.822,0,0,0,.085.393.877.877,0,0,0,.249.281,1.925,1.925,0,0,0,.4.223c.157.066.334.138.534.216a7.461,7.461,0,0,1,.715.314,2.463,2.463,0,0,1,.539.363,1.423,1.423,0,0,1,.342.466,1.505,1.505,0,0,1,.12.627,1.473,1.473,0,0,1-.2.773,1.672,1.672,0,0,1-.524.545,2.388,2.388,0,0,1-.756.322,3.7,3.7,0,0,1-.9.106A3.406,3.406,0,0,1,552.535,182.9Z" fill="#1e1e1e"/>
      <path d="M558.482,175.59a.608.608,0,0,1-.439-.176.594.594,0,0,1-.182-.445.616.616,0,0,1,.621-.627.616.616,0,0,1,.448.179.624.624,0,0,1,0,.887A.615.615,0,0,1,558.482,175.59Zm.469,7.523h-.961v-6h.961Z" fill="#1e1e1e"/>
      <path d="M563.4,183.254a2.781,2.781,0,0,1-2.124-.841,3.115,3.115,0,0,1-.794-2.229,3.25,3.25,0,0,1,.826-2.362,2.972,2.972,0,0,1,2.233-.849,2.689,2.689,0,0,1,2.094.826,3.275,3.275,0,0,1,.753,2.291,3.223,3.223,0,0,1-.811,2.3A2.845,2.845,0,0,1,563.4,183.254Zm.07-5.473a1.826,1.826,0,0,0-1.464.63,2.583,2.583,0,0,0-.539,1.737,2.448,2.448,0,0,0,.544,1.682,1.854,1.854,0,0,0,1.459.615,1.757,1.757,0,0,0,1.433-.6,2.619,2.619,0,0,0,.5-1.717,2.662,2.662,0,0,0-.5-1.734A1.747,1.747,0,0,0,563.474,177.781Z" fill="#1e1e1e"/>
      <path d="M572.908,183.113h-.961v-3.422q0-1.91-1.394-1.91a1.515,1.515,0,0,0-1.193.542,2.013,2.013,0,0,0-.472,1.368v3.422h-.96v-6h.96v1h.024a2.166,2.166,0,0,1,1.969-1.136,1.839,1.839,0,0,1,1.506.635,2.838,2.838,0,0,1,.521,1.837Z" fill="#1e1e1e"/>
    </g>
    <g>
      <path d="M539.582,234.436a5.625,5.625,0,0,1-2.813.714,3.841,3.841,0,0,1-2.909-1.16,4.255,4.255,0,0,1-1.11-3.07,4.369,4.369,0,0,1,1.233-3.2,4.2,4.2,0,0,1,3.126-1.251,5.319,5.319,0,0,1,2.3.445V228a4.42,4.42,0,0,0-2.414-.645,3.019,3.019,0,0,0-2.315.973,4.064,4.064,0,0,0-.064,5.025,2.938,2.938,0,0,0,2.273.911,3.506,3.506,0,0,0,1.7-.393v-2.355h-1.839v-.891h2.824Z" fill="#1e1e1e"/>
      <path d="M544.533,229.982a1.181,1.181,0,0,0-.727-.193,1.226,1.226,0,0,0-1.028.58,2.685,2.685,0,0,0-.413,1.582v3.059H541.4v-6h.961v1.236h.023a2.1,2.1,0,0,1,.627-.987,1.434,1.434,0,0,1,.944-.355,1.583,1.583,0,0,1,.574.082Z" fill="#1e1e1e"/>
      <path d="M549.871,235.01h-.961v-.938h-.023a2.012,2.012,0,0,1-1.846,1.078,1.975,1.975,0,0,1-1.4-.474,1.647,1.647,0,0,1-.506-1.26q0-1.682,1.98-1.957l1.8-.252q0-1.529-1.236-1.529a2.954,2.954,0,0,0-1.957.738v-.984a3.715,3.715,0,0,1,2.039-.563q2.115,0,2.115,2.238Zm-.961-3.035-1.447.2a2.341,2.341,0,0,0-1.008.331.953.953,0,0,0-.34.841.917.917,0,0,0,.314.718,1.211,1.211,0,0,0,.834.278,1.542,1.542,0,0,0,1.181-.5,1.789,1.789,0,0,0,.466-1.269Z" fill="#1e1e1e"/>
      <path d="M552.666,234.143h-.024v3.627h-.961v-8.76h.961v1.055h.024a2.272,2.272,0,0,1,2.074-1.2,2.2,2.2,0,0,1,1.811.806,3.34,3.34,0,0,1,.65,2.159,3.719,3.719,0,0,1-.732,2.411,2.439,2.439,0,0,1-2,.905A2.006,2.006,0,0,1,552.666,234.143Zm-.024-2.42v.838a1.783,1.783,0,0,0,.484,1.262,1.723,1.723,0,0,0,2.6-.149,3.059,3.059,0,0,0,.5-1.858,2.422,2.422,0,0,0-.463-1.57,1.533,1.533,0,0,0-1.254-.568,1.7,1.7,0,0,0-1.348.583A2.139,2.139,0,0,0,552.642,231.723Z" fill="#1e1e1e"/>
      <path d="M563.717,235.01h-.961v-3.457q0-1.875-1.395-1.875a1.516,1.516,0,0,0-1.183.542,2.015,2.015,0,0,0-.481,1.391v3.4h-.961v-8.883h.961v3.879h.024a2.181,2.181,0,0,1,1.968-1.137q2.028,0,2.028,2.444Z" fill="#1e1e1e"/>
      <path d="M528.8,245.45h-4.237a2.245,2.245,0,0,0,.539,1.547,1.861,1.861,0,0,0,1.418.545,2.948,2.948,0,0,0,1.863-.668v.9a3.478,3.478,0,0,1-2.091.575,2.535,2.535,0,0,1-2-.818,3.342,3.342,0,0,1-.727-2.3,3.283,3.283,0,0,1,.794-2.282,2.546,2.546,0,0,1,1.972-.882,2.255,2.255,0,0,1,1.822.762,3.175,3.175,0,0,1,.645,2.115Zm-.985-.814a1.958,1.958,0,0,0-.4-1.295,1.367,1.367,0,0,0-1.1-.463,1.552,1.552,0,0,0-1.154.486,2.2,2.2,0,0,0-.586,1.272Z" fill="#1e1e1e"/>
      <path d="M534.639,242.21l-2.015,3.035,1.98,2.965h-1.119l-1.178-1.945c-.074-.121-.162-.274-.263-.457h-.024q-.029.053-.275.457l-1.2,1.945h-1.108l2.045-2.941-1.957-3.059h1.119l1.161,2.051q.128.228.251.469h.024l1.5-2.52Z" fill="#1e1e1e"/>
      <path d="M538.548,248.151a1.856,1.856,0,0,1-.9.188q-1.576,0-1.576-1.758V243.03h-1.031v-.82h1.031v-1.465l.961-.31v1.775h1.512v.82h-1.512v3.381a1.4,1.4,0,0,0,.205.862.821.821,0,0,0,.68.257,1.01,1.01,0,0,0,.627-.2Z" fill="#1e1e1e"/>
      <path d="M544.653,245.45h-4.236a2.24,2.24,0,0,0,.539,1.547,1.859,1.859,0,0,0,1.418.545,2.948,2.948,0,0,0,1.863-.668v.9a3.482,3.482,0,0,1-2.092.575,2.538,2.538,0,0,1-2-.818,3.347,3.347,0,0,1-.726-2.3,3.278,3.278,0,0,1,.794-2.282,2.544,2.544,0,0,1,1.971-.882,2.258,2.258,0,0,1,1.823.762,3.18,3.18,0,0,1,.644,2.115Zm-.984-.814a1.953,1.953,0,0,0-.4-1.295,1.365,1.365,0,0,0-1.1-.463,1.555,1.555,0,0,0-1.155.486,2.209,2.209,0,0,0-.585,1.272Z" fill="#1e1e1e"/>
      <path d="M551.087,248.21h-.961v-3.422q0-1.91-1.395-1.91a1.513,1.513,0,0,0-1.192.542,2.005,2.005,0,0,0-.472,1.368v3.422h-.961v-6h.961v1h.024a2.165,2.165,0,0,1,1.968-1.137,1.834,1.834,0,0,1,1.506.636,2.83,2.83,0,0,1,.522,1.837Z" fill="#1e1e1e"/>
      <path d="M552.534,247.993v-1.031a2.841,2.841,0,0,0,1.728.58q1.266,0,1.266-.844a.733.733,0,0,0-.108-.407,1.1,1.1,0,0,0-.293-.3,2.235,2.235,0,0,0-.434-.231q-.249-.1-.536-.214a7.061,7.061,0,0,1-.7-.319,2.135,2.135,0,0,1-.5-.364,1.36,1.36,0,0,1-.3-.46,1.634,1.634,0,0,1-.1-.6,1.431,1.431,0,0,1,.193-.747,1.708,1.708,0,0,1,.516-.545,2.391,2.391,0,0,1,.735-.331,3.273,3.273,0,0,1,.853-.112,3.436,3.436,0,0,1,1.394.27v.973a2.717,2.717,0,0,0-1.523-.434,1.748,1.748,0,0,0-.487.062,1.2,1.2,0,0,0-.372.172.811.811,0,0,0-.24.267.7.7,0,0,0-.085.343.815.815,0,0,0,.085.392.869.869,0,0,0,.249.282,1.879,1.879,0,0,0,.4.222c.157.067.334.139.534.217a7.729,7.729,0,0,1,.715.313,2.5,2.5,0,0,1,.539.364,1.423,1.423,0,0,1,.342.466,1.5,1.5,0,0,1,.12.627,1.478,1.478,0,0,1-.2.773,1.682,1.682,0,0,1-.524.545,2.411,2.411,0,0,1-.756.322,3.748,3.748,0,0,1-.9.106A3.394,3.394,0,0,1,552.534,247.993Z" fill="#1e1e1e"/>
      <path d="M558.481,240.687a.608.608,0,0,1-.439-.176.6.6,0,0,1-.182-.446.615.615,0,0,1,.621-.626.619.619,0,0,1,.448.178.625.625,0,0,1,0,.888A.615.615,0,0,1,558.481,240.687Zm.469,7.523h-.961v-6h.961Z" fill="#1e1e1e"/>
      <path d="M563.4,248.351a2.784,2.784,0,0,1-2.124-.841,3.117,3.117,0,0,1-.794-2.23,3.248,3.248,0,0,1,.826-2.361,2.973,2.973,0,0,1,2.233-.85,2.689,2.689,0,0,1,2.094.827,3.273,3.273,0,0,1,.753,2.291,3.221,3.221,0,0,1-.811,2.3A2.842,2.842,0,0,1,563.4,248.351Zm.07-5.473a1.826,1.826,0,0,0-1.464.63,2.583,2.583,0,0,0-.539,1.737,2.448,2.448,0,0,0,.544,1.682,1.854,1.854,0,0,0,1.459.615,1.757,1.757,0,0,0,1.433-.6,2.621,2.621,0,0,0,.5-1.717,2.667,2.667,0,0,0-.5-1.735A1.749,1.749,0,0,0,563.473,242.878Z" fill="#1e1e1e"/>
      <path d="M572.907,248.21h-.961v-3.422q0-1.91-1.394-1.91a1.515,1.515,0,0,0-1.193.542,2.01,2.01,0,0,0-.472,1.368v3.422h-.96v-6h.96v1h.024a2.165,2.165,0,0,1,1.969-1.137,1.836,1.836,0,0,1,1.506.636,2.836,2.836,0,0,1,.521,1.837Z" fill="#1e1e1e"/>
    </g>
    <g>
      <path d="M391.787,66.928q0,3.3-3.164,3.305a4.249,4.249,0,0,1-1.945-.422V68.85a3.993,3.993,0,0,0,1.933.563q2.216,0,2.215-2.356V66.4H390.8a2.429,2.429,0,0,1-3.865.349,3.2,3.2,0,0,1-.682-2.148,3.74,3.74,0,0,1,.735-2.432,2.458,2.458,0,0,1,2.013-.9,1.956,1.956,0,0,1,1.8.973h.023v-.832h.961Zm-.961-2.232v-.885a1.719,1.719,0,0,0-.483-1.225,1.6,1.6,0,0,0-1.205-.509,1.67,1.67,0,0,0-1.394.647,2.891,2.891,0,0,0-.5,1.814,2.48,2.48,0,0,0,.483,1.6,1.562,1.562,0,0,0,1.281.6,1.674,1.674,0,0,0,1.315-.574A2.14,2.14,0,0,0,390.826,64.7Z" fill="#1e1e1e"/>
      <path d="M399.885,67.409h-1.172l-1.407-2.356a4.911,4.911,0,0,0-.375-.559,2.088,2.088,0,0,0-.372-.378,1.278,1.278,0,0,0-.41-.214,1.679,1.679,0,0,0-.5-.067h-.808v3.574h-.985v-8.4h2.508a3.573,3.573,0,0,1,1.017.138,2.284,2.284,0,0,1,.808.419,1.948,1.948,0,0,1,.536.7,2.325,2.325,0,0,1,.194.982,2.356,2.356,0,0,1-.132.8,2.12,2.12,0,0,1-.375.654,2.292,2.292,0,0,1-.586.489,2.973,2.973,0,0,1-.771.313v.024a1.763,1.763,0,0,1,.367.214,2.013,2.013,0,0,1,.295.284A3.676,3.676,0,0,1,398,64.4q.138.208.307.483ZM394.846,59.9v3.047h1.335a2.03,2.03,0,0,0,.683-.111,1.586,1.586,0,0,0,.542-.32,1.427,1.427,0,0,0,.357-.51,1.7,1.7,0,0,0,.129-.676,1.316,1.316,0,0,0-.436-1.052,1.875,1.875,0,0,0-1.263-.378Z" fill="#1e1e1e"/>
      <path d="M402.023,64.233v3.176h-.984v-8.4h2.308a3.044,3.044,0,0,1,2.089.657,2.342,2.342,0,0,1,.742,1.851,2.547,2.547,0,0,1-.824,1.957,3.144,3.144,0,0,1-2.223.762Zm0-4.336v3.445h1.031a2.308,2.308,0,0,0,1.556-.465,1.65,1.65,0,0,0,.536-1.316q0-1.664-1.968-1.664Z" fill="#1e1e1e"/>
      <path d="M413.478,67.057a4.927,4.927,0,0,1-2.32.492,3.741,3.741,0,0,1-2.871-1.154,4.256,4.256,0,0,1-1.078-3.029,4.462,4.462,0,0,1,1.213-3.258,4.116,4.116,0,0,1,3.076-1.242,4.937,4.937,0,0,1,1.98.345V60.26a4.012,4.012,0,0,0-1.992-.5,3.06,3.06,0,0,0-2.347.967,3.646,3.646,0,0,0-.9,2.584,3.461,3.461,0,0,0,.841,2.446,2.859,2.859,0,0,0,2.206.912,4.136,4.136,0,0,0,2.191-.563Z" fill="#1e1e1e"/>
    </g>
    <g>
      <path d="M391.787,301.407q0,3.3-3.164,3.3a4.249,4.249,0,0,1-1.945-.421v-.961a3.991,3.991,0,0,0,1.933.562q2.216,0,2.215-2.355v-.657H390.8a2.428,2.428,0,0,1-3.865.349,3.2,3.2,0,0,1-.682-2.147,3.738,3.738,0,0,1,.735-2.432,2.455,2.455,0,0,1,2.013-.9,1.957,1.957,0,0,1,1.8.972h.023v-.832h.961Zm-.961-2.233v-.884a1.718,1.718,0,0,0-.483-1.225,1.593,1.593,0,0,0-1.205-.51,1.668,1.668,0,0,0-1.394.648,2.887,2.887,0,0,0-.5,1.813,2.485,2.485,0,0,0,.483,1.6,1.564,1.564,0,0,0,1.281.6,1.671,1.671,0,0,0,1.315-.574A2.14,2.14,0,0,0,390.826,299.174Z" fill="#1e1e1e"/>
      <path d="M399.885,301.887h-1.172l-1.407-2.355a4.93,4.93,0,0,0-.375-.56,2.155,2.155,0,0,0-.372-.378,1.3,1.3,0,0,0-.41-.214,1.713,1.713,0,0,0-.5-.067h-.808v3.574h-.985v-8.4h2.508a3.573,3.573,0,0,1,1.017.138,2.252,2.252,0,0,1,.808.419,1.931,1.931,0,0,1,.536.7,2.317,2.317,0,0,1,.194.981,2.362,2.362,0,0,1-.132.806,2.1,2.1,0,0,1-.375.653,2.252,2.252,0,0,1-.586.489,2.974,2.974,0,0,1-.771.314v.023a1.809,1.809,0,0,1,.367.214,2.013,2.013,0,0,1,.295.284,3.916,3.916,0,0,1,.279.372q.138.209.307.484Zm-5.039-7.511v3.046h1.335a2.03,2.03,0,0,0,.683-.111,1.583,1.583,0,0,0,.542-.319,1.445,1.445,0,0,0,.357-.51,1.706,1.706,0,0,0,.129-.677,1.318,1.318,0,0,0-.436-1.052,1.881,1.881,0,0,0-1.263-.377Z" fill="#1e1e1e"/>
      <path d="M402.023,298.711v3.176h-.984v-8.4h2.308a3.049,3.049,0,0,1,2.089.656,2.346,2.346,0,0,1,.742,1.852,2.547,2.547,0,0,1-.824,1.957,3.144,3.144,0,0,1-2.223.761Zm0-4.335v3.445h1.031a2.3,2.3,0,0,0,1.556-.466,1.648,1.648,0,0,0,.536-1.315q0-1.665-1.968-1.664Z" fill="#1e1e1e"/>
      <path d="M413.478,301.536a4.927,4.927,0,0,1-2.32.492,3.744,3.744,0,0,1-2.871-1.154,4.261,4.261,0,0,1-1.078-3.03,4.466,4.466,0,0,1,1.213-3.258,4.116,4.116,0,0,1,3.076-1.242,4.936,4.936,0,0,1,1.98.346v1.049a4.012,4.012,0,0,0-1.992-.5,3.057,3.057,0,0,0-2.347.967,3.644,3.644,0,0,0-.9,2.584,3.463,3.463,0,0,0,.841,2.446,2.862,2.862,0,0,0,2.206.911,4.136,4.136,0,0,0,2.191-.562Z" fill="#1e1e1e"/>
    </g>
    <g>
      <path d="M533.1,301.407q0,3.3-3.164,3.3a4.252,4.252,0,0,1-1.945-.421v-.961a3.994,3.994,0,0,0,1.934.562q2.214,0,2.215-2.355v-.657h-.024a2.427,2.427,0,0,1-3.864.349,3.2,3.2,0,0,1-.683-2.147,3.732,3.732,0,0,1,.736-2.432,2.454,2.454,0,0,1,2.012-.9,1.956,1.956,0,0,1,1.8.972h.024v-.832h.96Zm-.96-2.233v-.884a1.719,1.719,0,0,0-.484-1.225,1.59,1.59,0,0,0-1.2-.51,1.666,1.666,0,0,0-1.394.648,2.887,2.887,0,0,0-.5,1.813,2.485,2.485,0,0,0,.483,1.6,1.562,1.562,0,0,0,1.28.6,1.673,1.673,0,0,0,1.316-.574A2.14,2.14,0,0,0,532.136,299.174Z" fill="#1e1e1e"/>
      <path d="M541.194,301.887h-1.172l-1.406-2.355a5.212,5.212,0,0,0-.375-.56,2.155,2.155,0,0,0-.372-.378,1.309,1.309,0,0,0-.41-.214,1.723,1.723,0,0,0-.495-.067h-.809v3.574h-.984v-8.4h2.508a3.561,3.561,0,0,1,1.016.138,2.256,2.256,0,0,1,.809.419,1.942,1.942,0,0,1,.536.7,2.317,2.317,0,0,1,.193.981,2.362,2.362,0,0,1-.132.806,2.1,2.1,0,0,1-.375.653,2.236,2.236,0,0,1-.586.489,2.967,2.967,0,0,1-.77.314v.023a1.773,1.773,0,0,1,.366.214,2.018,2.018,0,0,1,.3.284,3.751,3.751,0,0,1,.278.372q.138.209.308.484Zm-5.039-7.511v3.046h1.336a2.034,2.034,0,0,0,.683-.111,1.593,1.593,0,0,0,.542-.319,1.458,1.458,0,0,0,.357-.51,1.706,1.706,0,0,0,.129-.677,1.318,1.318,0,0,0-.437-1.052,1.878,1.878,0,0,0-1.262-.377Z" fill="#1e1e1e"/>
      <path d="M543.333,298.711v3.176h-.985v-8.4h2.309a3.05,3.05,0,0,1,2.089.656,2.345,2.345,0,0,1,.741,1.852,2.546,2.546,0,0,1-.823,1.957,3.145,3.145,0,0,1-2.224.761Zm0-4.335v3.445h1.031a2.3,2.3,0,0,0,1.556-.466,1.651,1.651,0,0,0,.536-1.315q0-1.665-1.969-1.664Z" fill="#1e1e1e"/>
      <path d="M554.788,301.536a4.93,4.93,0,0,1-2.32.492,3.745,3.745,0,0,1-2.872-1.154,4.265,4.265,0,0,1-1.078-3.03,4.47,4.47,0,0,1,1.213-3.258,4.117,4.117,0,0,1,3.076-1.242,4.944,4.944,0,0,1,1.981.346v1.049a4.018,4.018,0,0,0-1.992-.5,3.057,3.057,0,0,0-2.347.967,3.64,3.64,0,0,0-.9,2.584,3.467,3.467,0,0,0,.84,2.446,2.863,2.863,0,0,0,2.206.911,4.139,4.139,0,0,0,2.192-.562Z" fill="#1e1e1e"/>
    </g>
    <g>
      <path d="M572.7,301.407q0,3.3-3.164,3.3a4.249,4.249,0,0,1-1.945-.421v-.961a3.991,3.991,0,0,0,1.933.562q2.216,0,2.215-2.355v-.657h-.023a2.428,2.428,0,0,1-3.865.349,3.2,3.2,0,0,1-.682-2.147,3.738,3.738,0,0,1,.735-2.432,2.455,2.455,0,0,1,2.013-.9,1.957,1.957,0,0,1,1.8.972h.023v-.832h.961Zm-.961-2.233v-.884a1.718,1.718,0,0,0-.483-1.225,1.593,1.593,0,0,0-1.2-.51,1.669,1.669,0,0,0-1.395.648,2.887,2.887,0,0,0-.5,1.813,2.479,2.479,0,0,0,.484,1.6,1.562,1.562,0,0,0,1.28.6,1.671,1.671,0,0,0,1.315-.574A2.14,2.14,0,0,0,571.735,299.174Z" fill="#1e1e1e"/>
      <path d="M580.794,301.887h-1.172l-1.406-2.355a5.212,5.212,0,0,0-.375-.56,2.155,2.155,0,0,0-.372-.378,1.3,1.3,0,0,0-.411-.214,1.713,1.713,0,0,0-.5-.067h-.808v3.574h-.985v-8.4h2.508a3.573,3.573,0,0,1,1.017.138,2.252,2.252,0,0,1,.808.419,1.92,1.92,0,0,1,.536.7,2.317,2.317,0,0,1,.194.981,2.362,2.362,0,0,1-.132.806,2.1,2.1,0,0,1-.375.653,2.236,2.236,0,0,1-.586.489,2.967,2.967,0,0,1-.77.314v.023a1.827,1.827,0,0,1,.366.214,2.069,2.069,0,0,1,.3.284,4.092,4.092,0,0,1,.278.372c.092.139.194.3.308.484Zm-5.039-7.511v3.046h1.336a2.028,2.028,0,0,0,.682-.111,1.583,1.583,0,0,0,.542-.319,1.447,1.447,0,0,0,.358-.51,1.706,1.706,0,0,0,.129-.677,1.318,1.318,0,0,0-.437-1.052,1.881,1.881,0,0,0-1.263-.377Z" fill="#1e1e1e"/>
      <path d="M582.932,298.711v3.176h-.984v-8.4h2.309a3.052,3.052,0,0,1,2.089.656,2.345,2.345,0,0,1,.741,1.852,2.547,2.547,0,0,1-.824,1.957,3.142,3.142,0,0,1-2.223.761Zm0-4.335v3.445h1.032a2.3,2.3,0,0,0,1.555-.466,1.648,1.648,0,0,0,.536-1.315q0-1.665-1.968-1.664Z" fill="#1e1e1e"/>
      <path d="M594.387,301.536a4.927,4.927,0,0,1-2.32.492,3.744,3.744,0,0,1-2.871-1.154,4.261,4.261,0,0,1-1.078-3.03,4.466,4.466,0,0,1,1.213-3.258,4.116,4.116,0,0,1,3.076-1.242,4.936,4.936,0,0,1,1.98.346v1.049a4.012,4.012,0,0,0-1.992-.5,3.053,3.053,0,0,0-2.346.967,3.64,3.64,0,0,0-.9,2.584,3.463,3.463,0,0,0,.841,2.446,2.863,2.863,0,0,0,2.206.911,4.136,4.136,0,0,0,2.191-.562Z" fill="#1e1e1e"/>
    </g>
    <g>
      <path d="M524.526,395.962h-2.077l-.6-1.882h-3.009l-.6,1.882h-2.065l3.08-8.462h2.26Zm-3.115-3.346-.909-2.844a3.654,3.654,0,0,1-.142-.761h-.047a3.232,3.232,0,0,1-.147.737l-.921,2.868Z" fill="#1e1e1e"/>
      <path d="M527.489,395.962h-1.906V387.5h1.906Z" fill="#1e1e1e"/>
      <path d="M534.652,395.962h-1.905V387.5h1.905Z" fill="#1e1e1e"/>
      <path d="M542.229,395.962h-1.858v-3.357q0-1.406-1-1.405a.994.994,0,0,0-.8.372,1.411,1.411,0,0,0-.313.944v3.446h-1.865v-6.043h1.865v.957h.024a2.135,2.135,0,0,1,1.941-1.1q2.005,0,2.006,2.49Z" fill="#1e1e1e"/>
      <path d="M547.646,388.444a1.882,1.882,0,0,0-.69-.141q-.9,0-.9.973v.643h1.381v1.375h-1.381v4.668H544.2v-4.668h-1.015v-1.375H544.2v-.749a2.178,2.178,0,0,1,.673-1.664,2.566,2.566,0,0,1,1.83-.631,3.2,3.2,0,0,1,.943.118Z" fill="#1e1e1e"/>
      <path d="M553.765,393.472h-3.941q.095,1.316,1.658,1.316a3.234,3.234,0,0,0,1.752-.473v1.346a4.6,4.6,0,0,1-2.177.448,2.813,2.813,0,0,1-3.081-3.074,3.231,3.231,0,0,1,.874-2.384,2.909,2.909,0,0,1,2.148-.879,2.644,2.644,0,0,1,2.045.785,3.025,3.025,0,0,1,.722,2.13Zm-1.728-1.145q0-1.3-1.051-1.3a1.006,1.006,0,0,0-.776.371,1.689,1.689,0,0,0-.4.927Z" fill="#1e1e1e"/>
      <path d="M558.817,391.6a1.617,1.617,0,0,0-.785-.183,1.131,1.131,0,0,0-.95.446,1.943,1.943,0,0,0-.342,1.212v2.886h-1.865v-6.043h1.865v1.122h.023a1.614,1.614,0,0,1,1.594-1.228,1.2,1.2,0,0,1,.46.071Z" fill="#1e1e1e"/>
      <path d="M565.066,393.472h-3.942q.094,1.316,1.658,1.316a3.238,3.238,0,0,0,1.753-.473v1.346a4.608,4.608,0,0,1-2.178.448,2.813,2.813,0,0,1-3.08-3.074,3.234,3.234,0,0,1,.873-2.384,2.91,2.91,0,0,1,2.149-.879,2.642,2.642,0,0,1,2.044.785,3.021,3.021,0,0,1,.723,2.13Zm-1.729-1.145q0-1.3-1.05-1.3a1,1,0,0,0-.776.371,1.683,1.683,0,0,0-.4.927Z" fill="#1e1e1e"/>
      <path d="M572.012,395.962h-1.859v-3.357q0-1.406-1-1.405a.994.994,0,0,0-.8.372,1.411,1.411,0,0,0-.313.944v3.446h-1.864v-6.043h1.864v.957h.024a2.137,2.137,0,0,1,1.942-1.1q2.005,0,2.006,2.49Z" fill="#1e1e1e"/>
      <path d="M578.065,395.744a3.7,3.7,0,0,1-1.823.365,3.085,3.085,0,0,1-2.254-.843,2.917,2.917,0,0,1-.861-2.178,3.209,3.209,0,0,1,.923-2.428,3.413,3.413,0,0,1,2.469-.888,3.165,3.165,0,0,1,1.546.283v1.582a2.116,2.116,0,0,0-1.3-.437,1.721,1.721,0,0,0-1.272.469,1.755,1.755,0,0,0-.47,1.3,1.722,1.722,0,0,0,.45,1.26,1.645,1.645,0,0,0,1.233.458,2.458,2.458,0,0,0,1.362-.437Z" fill="#1e1e1e"/>
      <path d="M584.717,393.472h-3.943q.1,1.316,1.658,1.316a3.238,3.238,0,0,0,1.753-.473v1.346a4.6,4.6,0,0,1-2.177.448,2.811,2.811,0,0,1-3.08-3.074,3.234,3.234,0,0,1,.873-2.384,2.908,2.908,0,0,1,2.148-.879,2.639,2.639,0,0,1,2.044.785,3.021,3.021,0,0,1,.724,2.13Zm-1.73-1.145q0-1.3-1.05-1.3a1,1,0,0,0-.776.371,1.683,1.683,0,0,0-.4.927Z" fill="#1e1e1e"/>
      <path d="M588.764,395.8v-1.511a3.961,3.961,0,0,0,.917.413,3.061,3.061,0,0,0,.865.136,1.861,1.861,0,0,0,.782-.136.439.439,0,0,0,.286-.413.381.381,0,0,0-.13-.295,1.207,1.207,0,0,0-.333-.206,3.774,3.774,0,0,0-.445-.16q-.243-.07-.467-.159a4.551,4.551,0,0,1-.634-.292,1.848,1.848,0,0,1-.461-.363,1.446,1.446,0,0,1-.283-.478,1.935,1.935,0,0,1-.1-.644,1.66,1.66,0,0,1,.221-.873,1.825,1.825,0,0,1,.59-.6,2.71,2.71,0,0,1,.844-.342,4.39,4.39,0,0,1,.989-.109,5.523,5.523,0,0,1,.814.062,6.007,6.007,0,0,1,.814.18v1.44a2.913,2.913,0,0,0-.758-.31,3.188,3.188,0,0,0-.794-.1,1.728,1.728,0,0,0-.345.032,1.117,1.117,0,0,0-.286.1.525.525,0,0,0-.195.159.366.366,0,0,0-.07.221.412.412,0,0,0,.105.283.924.924,0,0,0,.278.2,2.862,2.862,0,0,0,.38.154c.14.044.279.091.416.138a5.476,5.476,0,0,1,.673.283,2.168,2.168,0,0,1,.517.36,1.413,1.413,0,0,1,.33.484,1.938,1.938,0,0,1-.118,1.579,1.878,1.878,0,0,1-.619.619,2.8,2.8,0,0,1-.892.349,4.991,4.991,0,0,1-1.047.108A5.415,5.415,0,0,1,588.764,395.8Z" fill="#1e1e1e"/>
      <path d="M599.905,393.472h-3.941q.093,1.316,1.658,1.316a3.234,3.234,0,0,0,1.752-.473v1.346a4.6,4.6,0,0,1-2.177.448,2.813,2.813,0,0,1-3.081-3.074,3.231,3.231,0,0,1,.874-2.384,2.909,2.909,0,0,1,2.147-.879,2.643,2.643,0,0,1,2.045.785,3.021,3.021,0,0,1,.723,2.13Zm-1.728-1.145q0-1.3-1.051-1.3a1.008,1.008,0,0,0-.777.371,1.7,1.7,0,0,0-.4.927Z" fill="#1e1e1e"/>
      <path d="M604.956,391.6a1.613,1.613,0,0,0-.784-.183,1.132,1.132,0,0,0-.951.446,1.943,1.943,0,0,0-.342,1.212v2.886h-1.865v-6.043h1.865v1.122h.024a1.612,1.612,0,0,1,1.593-1.228,1.2,1.2,0,0,1,.46.071Z" fill="#1e1e1e"/>
      <path d="M612.061,389.919l-2.248,6.043h-2.125l-2.141-6.043h1.994l1.051,3.724a5.459,5.459,0,0,1,.206,1.074h.024a6.048,6.048,0,0,1,.218-1.039l1.074-3.759Z" fill="#1e1e1e"/>
      <path d="M613.8,388.963a1.087,1.087,0,0,1-.773-.28.9.9,0,0,1-.3-.687.871.871,0,0,1,.3-.685,1.261,1.261,0,0,1,1.549,0,.877.877,0,0,1,.3.685.9.9,0,0,1-.3.7A1.107,1.107,0,0,1,613.8,388.963Zm.92,7h-1.865v-6.043h1.865Z" fill="#1e1e1e"/>
      <path d="M620.871,395.744a3.7,3.7,0,0,1-1.823.365,3.085,3.085,0,0,1-2.254-.843,2.918,2.918,0,0,1-.862-2.178,3.213,3.213,0,0,1,.923-2.428,3.416,3.416,0,0,1,2.47-.888,3.165,3.165,0,0,1,1.546.283v1.582a2.119,2.119,0,0,0-1.3-.437,1.719,1.719,0,0,0-1.271.469,1.751,1.751,0,0,0-.47,1.3,1.721,1.721,0,0,0,.449,1.26,1.649,1.649,0,0,0,1.234.458,2.461,2.461,0,0,0,1.362-.437Z" fill="#1e1e1e"/>
      <path d="M627.521,393.472H623.58q.093,1.316,1.658,1.316a3.234,3.234,0,0,0,1.752-.473v1.346a4.6,4.6,0,0,1-2.177.448,2.813,2.813,0,0,1-3.081-3.074,3.231,3.231,0,0,1,.874-2.384,2.909,2.909,0,0,1,2.148-.879,2.644,2.644,0,0,1,2.045.785,3.025,3.025,0,0,1,.722,2.13Zm-1.728-1.145q0-1.3-1.051-1.3a1,1,0,0,0-.776.371,1.689,1.689,0,0,0-.4.927Z" fill="#1e1e1e"/>
    </g>
    <g>
      <path d="M524.526,343.162h-2.077l-.6-1.882h-3.009l-.6,1.882h-2.065l3.08-8.462h2.26Zm-3.115-3.346-.909-2.844a3.654,3.654,0,0,1-.142-.761h-.047a3.21,3.21,0,0,1-.147.737l-.921,2.868Z" fill="#1e1e1e"/>
      <path d="M527.489,343.162h-1.906V334.7h1.906Z" fill="#1e1e1e"/>
      <path d="M534.652,343.162h-1.905V334.7h1.905Z" fill="#1e1e1e"/>
      <path d="M542.229,343.162h-1.858v-3.357q0-1.406-1-1.405a.994.994,0,0,0-.8.372,1.415,1.415,0,0,0-.313.944v3.446h-1.865V337.12h1.865v.956h.024a2.135,2.135,0,0,1,1.941-1.1q2.005,0,2.006,2.49Z" fill="#1e1e1e"/>
      <path d="M547.646,335.645a1.864,1.864,0,0,0-.69-.142q-.9,0-.9.974v.643h1.381V338.5h-1.381v4.667H544.2V338.5h-1.015V337.12H544.2v-.75a2.178,2.178,0,0,1,.673-1.664,2.566,2.566,0,0,1,1.83-.631,3.2,3.2,0,0,1,.943.118Z" fill="#1e1e1e"/>
      <path d="M553.765,340.672h-3.941q.095,1.315,1.658,1.316a3.233,3.233,0,0,0,1.752-.472v1.345a4.6,4.6,0,0,1-2.177.449,2.814,2.814,0,0,1-3.081-3.075,3.233,3.233,0,0,1,.874-2.384,2.909,2.909,0,0,1,2.148-.879,2.644,2.644,0,0,1,2.045.785,3.025,3.025,0,0,1,.722,2.13Zm-1.728-1.145q0-1.3-1.051-1.3a1,1,0,0,0-.776.372,1.686,1.686,0,0,0-.4.926Z" fill="#1e1e1e"/>
      <path d="M558.817,338.8a1.617,1.617,0,0,0-.785-.183,1.131,1.131,0,0,0-.95.446,1.943,1.943,0,0,0-.342,1.212v2.886h-1.865V337.12h1.865v1.121h.023a1.614,1.614,0,0,1,1.594-1.228,1.2,1.2,0,0,1,.46.071Z" fill="#1e1e1e"/>
      <path d="M565.066,340.672h-3.942q.094,1.315,1.658,1.316a3.237,3.237,0,0,0,1.753-.472v1.345a4.607,4.607,0,0,1-2.178.449,2.814,2.814,0,0,1-3.08-3.075,3.236,3.236,0,0,1,.873-2.384,2.91,2.91,0,0,1,2.149-.879,2.642,2.642,0,0,1,2.044.785,3.021,3.021,0,0,1,.723,2.13Zm-1.729-1.145q0-1.3-1.05-1.3a1,1,0,0,0-.776.372,1.68,1.68,0,0,0-.4.926Z" fill="#1e1e1e"/>
      <path d="M572.012,343.162h-1.859v-3.357q0-1.406-1-1.405a.994.994,0,0,0-.8.372,1.415,1.415,0,0,0-.313.944v3.446h-1.864V337.12h1.864v.956h.024a2.137,2.137,0,0,1,1.942-1.1q2.005,0,2.006,2.49Z" fill="#1e1e1e"/>
      <path d="M578.065,342.944a3.683,3.683,0,0,1-1.823.366,3.086,3.086,0,0,1-2.254-.844,2.917,2.917,0,0,1-.861-2.177,3.21,3.21,0,0,1,.923-2.429,3.413,3.413,0,0,1,2.469-.888,3.165,3.165,0,0,1,1.546.283v1.582a2.116,2.116,0,0,0-1.3-.437,1.721,1.721,0,0,0-1.272.469,1.756,1.756,0,0,0-.47,1.3,1.719,1.719,0,0,0,.45,1.259,1.645,1.645,0,0,0,1.233.458,2.458,2.458,0,0,0,1.362-.437Z" fill="#1e1e1e"/>
      <path d="M584.717,340.672h-3.943q.1,1.315,1.658,1.316a3.237,3.237,0,0,0,1.753-.472v1.345a4.6,4.6,0,0,1-2.177.449,2.813,2.813,0,0,1-3.08-3.075,3.236,3.236,0,0,1,.873-2.384,2.908,2.908,0,0,1,2.148-.879,2.639,2.639,0,0,1,2.044.785,3.021,3.021,0,0,1,.724,2.13Zm-1.73-1.145q0-1.3-1.05-1.3a1,1,0,0,0-.776.372,1.68,1.68,0,0,0-.4.926Z" fill="#1e1e1e"/>
      <path d="M588.764,343v-1.511a3.961,3.961,0,0,0,.917.413,3.026,3.026,0,0,0,.865.136,1.845,1.845,0,0,0,.782-.136.439.439,0,0,0,.286-.413.381.381,0,0,0-.13-.3,1.207,1.207,0,0,0-.333-.206,3.774,3.774,0,0,0-.445-.16q-.243-.071-.467-.159a4.438,4.438,0,0,1-.634-.292,1.848,1.848,0,0,1-.461-.363,1.446,1.446,0,0,1-.283-.478,1.929,1.929,0,0,1-.1-.643,1.658,1.658,0,0,1,.221-.873,1.819,1.819,0,0,1,.59-.6,2.71,2.71,0,0,1,.844-.342,4.39,4.39,0,0,1,.989-.109,5.523,5.523,0,0,1,.814.062,6.007,6.007,0,0,1,.814.18v1.44a2.913,2.913,0,0,0-.758-.31,3.188,3.188,0,0,0-.794-.1,1.805,1.805,0,0,0-.345.032,1.117,1.117,0,0,0-.286.095.525.525,0,0,0-.195.159.368.368,0,0,0-.07.221.41.41,0,0,0,.105.283.924.924,0,0,0,.278.2,2.862,2.862,0,0,0,.38.154c.14.045.279.091.416.138a5.323,5.323,0,0,1,.673.284,2.165,2.165,0,0,1,.517.359,1.413,1.413,0,0,1,.33.484,1.938,1.938,0,0,1-.118,1.579,1.891,1.891,0,0,1-.619.62,2.825,2.825,0,0,1-.892.348,4.991,4.991,0,0,1-1.047.109A5.391,5.391,0,0,1,588.764,343Z" fill="#1e1e1e"/>
      <path d="M599.905,340.672h-3.941q.093,1.315,1.658,1.316a3.233,3.233,0,0,0,1.752-.472v1.345a4.6,4.6,0,0,1-2.177.449,2.814,2.814,0,0,1-3.081-3.075,3.233,3.233,0,0,1,.874-2.384,2.909,2.909,0,0,1,2.147-.879,2.643,2.643,0,0,1,2.045.785,3.021,3.021,0,0,1,.723,2.13Zm-1.728-1.145q0-1.3-1.051-1.3a1.006,1.006,0,0,0-.777.372,1.693,1.693,0,0,0-.4.926Z" fill="#1e1e1e"/>
      <path d="M604.956,338.8a1.613,1.613,0,0,0-.784-.183,1.132,1.132,0,0,0-.951.446,1.943,1.943,0,0,0-.342,1.212v2.886h-1.865V337.12h1.865v1.121h.024a1.612,1.612,0,0,1,1.593-1.228,1.2,1.2,0,0,1,.46.071Z" fill="#1e1e1e"/>
      <path d="M612.061,337.12l-2.248,6.042h-2.125l-2.141-6.042h1.994l1.051,3.723a5.459,5.459,0,0,1,.206,1.074h.024a6.067,6.067,0,0,1,.218-1.039l1.074-3.758Z" fill="#1e1e1e"/>
      <path d="M613.8,336.164a1.087,1.087,0,0,1-.773-.281.9.9,0,0,1-.3-.687.874.874,0,0,1,.3-.685,1.264,1.264,0,0,1,1.549,0,.88.88,0,0,1,.3.685.9.9,0,0,1-.3.7A1.108,1.108,0,0,1,613.8,336.164Zm.92,7h-1.865V337.12h1.865Z" fill="#1e1e1e"/>
      <path d="M620.871,342.944a3.683,3.683,0,0,1-1.823.366,3.086,3.086,0,0,1-2.254-.844,2.917,2.917,0,0,1-.862-2.177,3.214,3.214,0,0,1,.923-2.429,3.416,3.416,0,0,1,2.47-.888,3.165,3.165,0,0,1,1.546.283v1.582a2.119,2.119,0,0,0-1.3-.437,1.719,1.719,0,0,0-1.271.469,1.752,1.752,0,0,0-.47,1.3,1.719,1.719,0,0,0,.449,1.259,1.649,1.649,0,0,0,1.234.458,2.461,2.461,0,0,0,1.362-.437Z" fill="#1e1e1e"/>
      <path d="M627.521,340.672H623.58q.093,1.315,1.658,1.316a3.233,3.233,0,0,0,1.752-.472v1.345a4.6,4.6,0,0,1-2.177.449,2.814,2.814,0,0,1-3.081-3.075,3.233,3.233,0,0,1,.874-2.384,2.909,2.909,0,0,1,2.148-.879,2.644,2.644,0,0,1,2.045.785,3.025,3.025,0,0,1,.722,2.13Zm-1.728-1.145q0-1.3-1.051-1.3a1,1,0,0,0-.776.372,1.686,1.686,0,0,0-.4.926Z" fill="#1e1e1e"/>
    </g>
  </g>
</svg>
