<?xml version="1.0" encoding="utf-8"?>
<!-- Generator: Adobe Illustrator 20.1.0, SVG Export Plug-In . SVG Version: 6.00 Build 0)  -->
<svg version="1.1" id="Layer_1" xmlns="http://www.w3.org/2000/svg" xmlns:xlink="http://www.w3.org/1999/xlink" x="0px" y="0px"
	 viewBox="0 0 328.529 385.094" style="enable-background:new 0 0 328.529 385.094;" xml:space="preserve">
<style type="text/css">
	.st0{fill:#FFFFFF;}
	.st1{fill:#A4C439;}
</style>
<g>
	<path class="st0" d="M31.106,276.569c-17.157,0.01-31.095-13.946-31.097-31.101L0,150.251
		c-0.006-17.137,13.93-31.089,31.063-31.092c8.332-0.008,16.13,3.225,22.012,9.095c5.88,5.874,9.114,13.686,9.12,21.989
		l-0.008,95.225c0.021,8.291-3.203,16.103-9.078,21.969C47.243,273.327,39.422,276.566,31.106,276.569"/>
	<path class="st0" d="M31.081,127.515c-12.556-0.006-22.732,10.19-22.735,22.735l0.017,95.213
		c0.003,12.588,10.198,22.747,22.738,22.759c12.567-0.015,22.745-10.178,22.732-22.758l0.001-95.227
		C53.829,137.696,43.639,127.506,31.081,127.515"/>
	<path class="st0" d="M274.982,132.229l-8.359-0.003l-204.813,0.028l-8.362,0.002l-0.003-8.361
		c-0.02-34.32,18.68-66.241,49.304-85.102L90.843,17.06c-1.457-2.548-1.822-5.772-0.975-8.723c0.861-2.949,2.895-5.482,5.621-6.933
		c1.576-0.893,3.501-1.391,5.449-1.388c4.217,0,8.083,2.289,10.117,5.989l12.462,22.701c12.897-4.732,26.512-7.144,40.576-7.139
		c14.268-0.007,27.951,2.409,40.902,7.158l12.442-22.739c2.003-3.691,5.895-5.99,10.105-5.987c1.896-0.002,3.786,0.461,5.455,1.36
		c2.8,1.535,4.751,3.984,5.61,6.954c0.855,2.952,0.512,6.069-0.988,8.774l-11.899,21.723c30.578,18.898,49.254,50.796,49.251,85.057
		L274.982,132.229z"/>
	<path class="st0" d="M214.436,42.014l15.869-28.981c0.847-1.514,0.293-3.454-1.237-4.293c-1.553-0.835-3.468-0.265-4.285,1.257
		l-16.035,29.271c-13.486-5.985-28.585-9.356-44.547-9.34c-15.929-0.014-31.001,3.34-44.448,9.308L103.706,10.03
		c-0.828-1.541-2.762-2.104-4.271-1.255c-1.543,0.823-2.107,2.759-1.252,4.27l15.878,28.956
		C82.865,58.093,61.79,88.728,61.806,123.899l204.81-0.021C266.622,88.711,245.584,58.141,214.436,42.014 M117.618,86.795
		c-4.716-0.01-8.559-3.844-8.56-8.581c0.002-4.718,3.842-8.596,8.567-8.596c4.749-0.004,8.59,3.878,8.596,8.594
		C126.223,82.945,122.374,86.792,117.618,86.795 M210.875,86.779c-4.734,0.005-8.597-3.828-8.588-8.586
		c0-4.707,3.848-8.588,8.592-8.604c4.709,0.014,8.572,3.896,8.568,8.609C219.45,82.939,215.608,86.78,210.875,86.779"/>
	<path class="st0" d="M126.2,385.094c-17.14-0.002-31.089-13.944-31.093-31.095l-0.008-42.023l-8.167,0.007
		c-8.728,0.002-16.918-3.389-23.074-9.549c-6.164-6.154-9.56-14.35-9.548-23.084l-0.03-147.53l-0.002-8.366l8.361,0.001
		l203.275-0.032l8.363-0.006l0.001,8.361l0.022,147.549c0.003,17.992-14.635,32.635-32.625,32.631l-8.223,0.01l0.012,42.008
		c-0.002,17.141-13.946,31.097-31.079,31.096c-8.305,0.02-16.103-3.21-21.987-9.097c-5.891-5.871-9.133-13.678-9.129-21.979
		l-0.001-42.029l-13.973-0.001v42.021C157.292,371.134,143.347,385.097,126.2,385.094"/>
	<path class="st0" d="M62.679,279.35c-0.012,13.435,10.833,24.282,24.257,24.277l16.52,0.001l0.019,50.379
		c-0.003,12.541,10.187,22.737,22.72,22.739c12.564,0,22.742-10.206,22.731-22.757l0.002-50.367l30.696-0.006l-0.002,50.377
		c0.011,12.543,10.214,22.749,22.743,22.729c12.563,0.008,22.747-10.198,22.745-22.749l-0.014-50.363l16.58-0.005
		c13.378,0.005,24.261-10.867,24.26-24.273l-0.025-147.56l-203.269,0.037L62.679,279.35z"/>
	<path class="st0" d="M297.449,276.531c-17.148,0.002-31.098-13.933-31.093-31.087l-0.023-95.217
		c0.004-17.151,13.932-31.102,31.072-31.103c17.162-0.002,31.118,13.945,31.115,31.093l0.009,95.212
		C328.533,262.569,314.597,276.534,297.449,276.531"/>
	<path class="st0" d="M297.423,127.484c-12.555-0.01-22.731,10.186-22.728,22.743l0.009,95.213
		c0.006,12.572,10.177,22.743,22.743,22.735c12.555-0.002,22.719-10.165,22.729-22.743l-0.025-95.211
		C320.148,137.661,309.979,127.481,297.423,127.484"/>
	<path class="st1" d="M31.081,127.515c-12.556-0.006-22.732,10.19-22.735,22.735l0.017,95.213
		c0.003,12.588,10.184,22.745,22.74,22.743c12.564,0.001,22.742-10.162,22.729-22.742l0.001-95.227
		C53.829,137.696,43.639,127.506,31.081,127.515 M214.436,42.014l15.869-28.981c0.847-1.514,0.291-3.443-1.244-4.298
		c-1.548-0.819-3.46-0.263-4.278,1.262L208.753,39.28c-13.491-6.001-28.582-9.37-44.553-9.351
		c-15.929-0.014-31.016,3.341-44.448,9.308L103.706,10.03c-0.835-1.542-2.754-2.099-4.27-1.259
		c-1.544,0.831-2.108,2.763-1.253,4.274l15.877,28.959c-31.195,16.089-52.27,46.724-52.254,81.896l204.81-0.021
		C266.622,88.711,245.584,58.141,214.436,42.014 M117.618,86.795c-4.716-0.01-8.559-3.844-8.56-8.581
		c0.002-4.718,3.835-8.597,8.567-8.596c4.749-0.004,8.59,3.878,8.596,8.594C126.223,82.945,122.374,86.792,117.618,86.795
		 M210.875,86.779c-4.734,0.005-8.589-3.835-8.588-8.586c0.016-4.704,3.848-8.588,8.592-8.604c4.709,0.014,8.572,3.896,8.568,8.609
		C219.458,82.94,215.608,86.78,210.875,86.779 M62.642,131.808l0.035,147.555c-0.01,13.422,10.845,24.255,24.26,24.258l16.519,0.007
		l0.019,50.379c-0.003,12.541,10.193,22.739,22.72,22.739c12.564,0,22.742-10.206,22.746-22.755l-0.013-50.369l30.696-0.006
		l0.013,50.377c-0.003,12.535,10.199,22.749,22.729,22.729c12.563,0.008,22.747-10.198,22.745-22.749l-0.014-50.363l16.576-0.013
		c13.383,0.005,24.269-10.844,24.271-24.266l-0.025-147.558L62.642,131.808z M320.159,150.216
		c-0.002-12.557-10.18-22.734-22.736-22.731c-12.555-0.01-22.731,10.186-22.728,22.743l0.016,95.215
		c-0.001,12.57,10.172,22.73,22.736,22.733c12.555-0.002,22.727-10.163,22.729-22.743L320.159,150.216z"/>
</g>
</svg>
