<svg width="16" height="16" viewBox="0 0 16 16" fill="none" xmlns="http://www.w3.org/2000/svg">
<path d="M0 6V2H4V3H1V6H0ZM12 3H15V6H16V2H12V3ZM15 9V12H12V13H16V9H15ZM4 12H1V9H0V13H4V12Z" fill="#60AAFF"/>
<path d="M12.379 7.391C12.475 7.282 12.594 7.195 12.734 7.129C12.875 7.064 13.035 7.031 13.218 7.031C13.359 7.031 13.495 7.056 13.628 7.105C13.761 7.155 13.884 7.221 13.999 7.304V6.562C13.862 6.505 13.726 6.463 13.585 6.437C13.444 6.411 13.3 6.398 13.155 6.398C12.862 6.398 12.6 6.444 12.37 6.535C12.138 6.626 11.94 6.757 11.776 6.926C11.612 7.095 11.485 7.297 11.397 7.531C11.307 7.765 11.264 8.026 11.264 8.312C11.264 8.573 11.305 8.81 11.389 9.023C11.471 9.237 11.588 9.42 11.741 9.574C11.891 9.728 12.073 9.847 12.288 9.933C12.502 10.02 12.738 10.062 13 10.062C13.172 10.062 13.344 10.044 13.516 10.007C13.688 9.972 13.848 9.909 14 9.82V9.133C13.879 9.227 13.752 9.301 13.617 9.356C13.48 9.411 13.338 9.438 13.187 9.438C12.832 9.438 12.558 9.329 12.367 9.11C12.174 8.891 12.078 8.61 12.078 8.266C12.078 8.094 12.103 7.933 12.156 7.782C12.207 7.63 12.281 7.5 12.379 7.391ZM2.211 9.984L4.047 5.078H4.961L6.79 9.984H5.891L5.453 8.734H3.523L3.101 9.984H2.211ZM3.734 8.07H5.242L4.555 6.117C4.539 6.07 4.527 6.02 4.52 5.965C4.513 5.91 4.503 5.857 4.493 5.805H4.477C4.466 5.857 4.457 5.909 4.45 5.961C4.441 6.013 4.43 6.065 4.414 6.117L3.734 8.07ZM8.071 4.797V7.094H8.079C8.213 6.87 8.379 6.698 8.575 6.578C8.77 6.458 9 6.398 9.266 6.398C9.516 6.398 9.731 6.446 9.911 6.543C10.091 6.64 10.237 6.769 10.352 6.93C10.465 7.092 10.549 7.277 10.602 7.485C10.653 7.693 10.68 7.91 10.68 8.133C10.68 8.383 10.649 8.624 10.59 8.856C10.529 9.088 10.438 9.294 10.313 9.473C10.188 9.652 10.026 9.796 9.829 9.903C9.63 10.01 9.391 10.063 9.11 10.063C8.661 10.063 8.318 9.868 8.079 9.477H8.071V9.985H7.274V4.797H8.071ZM8.063 8.086V8.516C8.063 8.641 8.083 8.76 8.125 8.871C8.166 8.983 8.223 9.081 8.297 9.164C8.369 9.248 8.459 9.314 8.567 9.363C8.672 9.413 8.792 9.437 8.922 9.437C9.103 9.437 9.254 9.398 9.375 9.32C9.494 9.242 9.59 9.14 9.664 9.015C9.736 8.891 9.789 8.75 9.82 8.594C9.851 8.438 9.867 8.284 9.867 8.133C9.867 7.998 9.851 7.863 9.82 7.731C9.789 7.599 9.738 7.479 9.672 7.375C9.604 7.271 9.514 7.187 9.402 7.125C9.289 7.062 9.156 7.031 9 7.031C8.848 7.031 8.715 7.06 8.598 7.117C8.481 7.175 8.383 7.251 8.305 7.347C8.227 7.444 8.166 7.555 8.125 7.683C8.083 7.812 8.063 7.945 8.063 8.086Z" fill="#60AAFF"/>
</svg>
