<?xml version="1.0" encoding="UTF-8" standalone="no"?>
<!DOCTYPE svg PUBLIC "-//W3C//DTD SVG 1.1//EN" "http://www.w3.org/Graphics/SVG/1.1/DTD/svg11.dtd">
<!-- Generated by Microsoft Visio, SVG Export Application Insights.svg Page-1 -->
<svg xmlns="http://www.w3.org/2000/svg" xmlns:xlink="http://www.w3.org/1999/xlink" xmlns:ev="http://www.w3.org/2001/xml-events"
		width="1.4993in" height="1.73186in" viewBox="0 0 107.95 124.694" xml:space="preserve" color-interpolation-filters="sRGB"
		class="st5">
	<style type="text/css">
	<![CDATA[
		.st1 {fill:#cecece;stroke:none;stroke-linecap:butt;stroke-width:34}
		.st2 {fill:url(#grad3-8);stroke:none;stroke-linecap:butt;stroke-width:34}
		.st3 {fill:url(#grad0-12);stroke:none;stroke-linecap:butt;stroke-width:34}
		.st4 {fill:#999999;stroke:none;stroke-linecap:butt;stroke-width:34}
		.st5 {fill:none;fill-rule:evenodd;font-size:12px;overflow:visible;stroke-linecap:square;stroke-miterlimit:3}
	]]>
	</style>

	<defs id="Patterns_And_Gradients">
		<radialGradient id="grad3-8" cx="0.5" cy="0.5" r="0.73">
			<stop offset="0" stop-color="#b77af4" stop-opacity="1"/>
			<stop offset="0.21" stop-color="#b378f2" stop-opacity="1"/>
			<stop offset="0.43" stop-color="#a672ed" stop-opacity="1"/>
			<stop offset="0.65" stop-color="#9267e4" stop-opacity="1"/>
			<stop offset="0.88" stop-color="#7559d8" stop-opacity="1"/>
			<stop offset="1" stop-color="#624fd0" stop-opacity="1"/>
		</radialGradient>
		<linearGradient id="grad0-12" x1="0" y1="0" x2="1" y2="0" gradientTransform="rotate(89.445837686356 0.5 0.5)">
			<stop offset="0" stop-color="#f2f2f2" stop-opacity="1"/>
			<stop offset="0.23" stop-color="#f1f1f2" stop-opacity="1"/>
			<stop offset="0.37" stop-color="#ededf1" stop-opacity="1"/>
			<stop offset="0.48" stop-color="#e7e5f0" stop-opacity="1"/>
			<stop offset="0.58" stop-color="#dedbee" stop-opacity="1"/>
			<stop offset="0.67" stop-color="#d3ceeb" stop-opacity="1"/>
			<stop offset="0.76" stop-color="#c4bee8" stop-opacity="1"/>
			<stop offset="0.84" stop-color="#b4abe5" stop-opacity="1"/>
			<stop offset="0.92" stop-color="#a095e1" stop-opacity="1"/>
			<stop offset="0.99" stop-color="#8b7ddc" stop-opacity="1"/>
			<stop offset="1" stop-color="#897bdc" stop-opacity="1"/>
		</linearGradient>
	</defs>
	<g>
		<title>Page-1</title>
		<g id="group3501-1" transform="translate(34.1323,-34)">
			<title>Application Insights</title>
			<g id="group3502-2">
				<title>Sheet.3502</title>
				<g id="shape3503-3" transform="translate(13.1276,-1.13687E-13)">
					<title>Sheet.3503</title>
					<path d="M10.84 124.33 L13.56 121.43 L13.56 113.69 L0 113.69 L0 121.43 L2.72 124.33 A1.07438 1.06716 -180 0 0
								 3.36 124.69 L10.07 124.69 A1.07438 1.06716 -180 0 0 10.84 124.33 Z" class="st1"/>
				</g>
				<g id="shape3504-5" transform="translate(0,-11.0051)">
					<title>Sheet.3504</title>
					<path d="M19.84 79.01 A19.7754 19.6424 -180 0 0 0 100.92 C0.91 109.15 8.8 112.99 11.05 123.43 A1.64515 1.63409
								 -180 0 0 12.62 124.69 L27.06 124.69 A1.64515 1.63409 -180 0 0 28.64 123.43 C30.89 112.99 38.71 109.15
								 39.69 100.92 A19.7754 19.6424 -180 0 0 19.84 79.01 Z" class="st2"/>
				</g>
				<g id="shape3505-9" transform="translate(7.21851,-14.8736)">
					<title>Sheet.3505</title>
					<path d="M20.88 93.85 A4.70043 4.66883 -180 0 0 16.35 98.65 L16.35 101.22 L9.27 101.22 L9.27 98.65 A4.734 4.70218
								 -180 0 0 4.53 93.85 A4.70043 4.66883 -180 0 0 -0 98.65 A4.734 4.70218 -180 0 0 4.53 103.48 L6.68
								 103.48 L6.68 123.49 A1.20868 1.20056 -180 0 0 9.1 123.49 L9.1 103.48 L16.35 103.48 L16.35 123.49
								 A1.20868 1.20056 -180 1 0 18.77 123.49 L18.77 103.48 L20.88 103.48 A4.70043 4.66883 -180 0 0 25.42
								 98.65 A4.70043 4.66883 -180 0 0 20.88 93.85 ZM6.68 101.22 L4.4 101.22 A2.48451 2.46781 0 0 1 2.12
								 98.65 A2.48451 2.46781 0 0 1 4.4 96.08 A2.48451 2.46781 0 0 1 6.68 98.65 L6.68 101.22 ZM21.05 101.22
								 L18.77 101.22 L18.77 98.52 A2.28306 2.26772 0 1 1 23.3 98.52 A2.45094 2.43446 0 0 1 21.05 101.22
								 Z" class="st3"/>
				</g>
				<g id="shape3506-13" transform="translate(12.9933,-2.13432)">
					<title>Sheet.3506</title>
					<path d="M0 121.16 L13.7 118.52 L13.7 117.02 L0 119.69 L0 121.16 ZM13.7 122.19 L13.7 120.73 L0 123.43 L0 123.56
								 L1.04 124.69 L13.7 122.19 Z" class="st4"/>
				</g>
			</g>
		</g>
	</g>
</svg>
