<?xml version="1.0" encoding="UTF-8" standalone="no"?>
<!DOCTYPE svg PUBLIC "-//W3C//DTD SVG 1.1//EN" "http://www.w3.org/Graphics/SVG/1.1/DTD/svg11.dtd">
<!-- Generated by Microsoft Visio, SVG Export Function App.svg Page-1 -->
<svg xmlns="http://www.w3.org/2000/svg" xmlns:xlink="http://www.w3.org/1999/xlink" xmlns:ev="http://www.w3.org/2001/xml-events"
		width="1.73185in" height="1.63889in" viewBox="0 0 124.693 118" xml:space="preserve" color-interpolation-filters="sRGB"
		class="st4">
	<style type="text/css">
	<![CDATA[
		.st1 {fill:#50e6ff;stroke:none;stroke-linecap:butt;stroke-width:34}
		.st2 {fill:#1490df;stroke:none;stroke-linecap:butt;stroke-width:34}
		.st3 {fill:url(#grad0-14);stroke:none;stroke-linecap:butt;stroke-width:34}
		.st4 {fill:none;fill-rule:evenodd;font-size:12px;overflow:visible;stroke-linecap:square;stroke-miterlimit:3}
	]]>
	</style>

	<defs id="Patterns_And_Gradients">
		<linearGradient id="grad0-14" x1="0" y1="0" x2="1" y2="0" gradientTransform="rotate(-90 0.5 0.5)">
			<stop offset="0" stop-color="#fea11b" stop-opacity="1"/>
			<stop offset="0.285" stop-color="#fea51a" stop-opacity="1"/>
			<stop offset="0.545" stop-color="#feb018" stop-opacity="1"/>
			<stop offset="0.8" stop-color="#ffc314" stop-opacity="1"/>
			<stop offset="1" stop-color="#ffd70f" stop-opacity="1"/>
		</linearGradient>
	</defs>
	<g>
		<title>Page-1</title>
		<g id="group1878-1" transform="translate(34,-32.9764)">
			<title>Function App</title>
			<g id="group1879-2">
				<title>Sheet.1879</title>
				<g id="shape1880-3" transform="translate(0.00843084,-11.0299)">
					<title>Sheet.1880</title>
					<path d="M17.16 115.88 L15.27 117.76 a0.94473 0.939085 0 0 1 -1.25964 0 L0.47 104.3 A1.91465 1.90321 0 0 1 0.47
								 101.8 L2.05 99.92 L17.16 114.94 a0.592031 0.588493 0 0 1 7.10543E-15 0.939085 Z" class="st1"/>
				</g>
				<g id="shape1881-5" transform="translate(0,-23.1641)">
					<title>Sheet.1881</title>
					<path d="M14.97 100.47 L16.86 102.35 a0.94473 0.939085 0 0 1 -1.77636E-14 1.25211 L2.37 118 L0.48 116.12 A1.88946
								 1.87817 0 0 1 0.48 113.62 L14.02 100.16 A1.15572 1.14881 0 0 1 14.97 100.47 Z" class="st2"/>
				</g>
				<g id="shape1882-7" transform="translate(38.9745,-10.7169)">
					<title>Sheet.1882</title>
					<path d="M15.36 99.61 L17.25 101.48 A1.91465 1.90321 0 0 1 17.25 103.99 L3.39 117.76 a0.94473 0.939085 0 0 1
								 -1.25964 0 L0.24 115.88 a0.94473 0.939085 0 0 1 -8.88178E-15 -1.25211 L15.36 99.61 Z" class="st1"/>
				</g>
				<g id="shape1883-9" transform="translate(38.9745,-23.1641)">
					<title>Sheet.1883</title>
					<path d="M16.93 116.12 L15.04 118 L0.24 103.29 a0.94473 0.939085 0 0 1 -1.77636E-15 -1.25211 L2.13 100.16 a0.94473
								 0.939085 0 0 1 1.25964 -2.84217E-14 L16.93 113.62 A1.88946 1.87817 0 0 1 16.93 116.12 Z"
							class="st2"/>
				</g>
				<g id="shape1884-11" transform="translate(14.0223,1.42109E-14)">
					<title>Sheet.1884</title>
					<path d="M11.97 94.84 L0.63 94.84 a0.677056 0.673011 0 0 1 -0.62982 -0.626057 L0 93.9 L13.54 67.29 C13.86 67.29
								 13.86 66.98 14.17 66.98 L27.4 66.98 a0.677056 0.673011 0 0 1 0.62982 0.626057 L28.03 67.92 L12.28
								 88.89 L27.71 88.89 a0.677056 0.673011 0 0 1 0.62982 0.626057 a0.31491 0.313028 0 0 1 -0.31491 0.313028
								 L2.2 116.43 C1.89 116.43 0.31 118 0.94 115.81 L11.97 94.84 Z" class="st3"/>
				</g>
			</g>
		</g>
	</g>
</svg>
