<?xml version="1.0" encoding="utf-8"?>
<!-- Generator: Adobe Illustrator 24.1.3, SVG Export Plug-In . SVG Version: 6.00 Build 0)  -->
<svg version="1.1" id="Layer_1" xmlns:ev="http://www.w3.org/2001/xml-events"
	 xmlns="http://www.w3.org/2000/svg" xmlns:xlink="http://www.w3.org/1999/xlink" x="0px" y="0px" viewBox="0 0 56.7 48.2"
	 style="enable-background:new 0 0 56.7 48.2;" xml:space="preserve">
<style type="text/css">
	.st0{fill-rule:evenodd;clip-rule:evenodd;fill:#A0A1A2;}
	.st1{fill-rule:evenodd;clip-rule:evenodd;fill:#7A7A7A;}
	.st2{fill-rule:evenodd;clip-rule:evenodd;fill:#804998;}
	.st3{fill-rule:evenodd;clip-rule:evenodd;fill:#FFFFFF;fill-opacity:0.2;}
</style>
<g>
	<g id="group462-1" transform="translate(12.24,-28.3465)">
		<g id="group463-2">
			<g id="shape464-3">
				<path class="st0" d="M-12.2,74.4c0,1.1,0.9,2.2,2,2.2h52.5c1.1,0,2.1-0.9,2.1-2.2V37h-56.7V74.4z"/>
			</g>
			<g id="shape465-5" transform="translate(0,-39.612)">
				<path class="st1" d="M42.3,68h-52.5c-1.1,0-2,1-2,2.1v6.4h56.7v-6.4C44.4,69,43.5,68,42.3,68z"/>
			</g>
			<g id="shape466-7" transform="translate(4.19528,-4.28848)">
				<path class="st2" d="M-12.2,45.2H1.4v31.4h-13.6V45.2z M5.1,45.2h13.6v31.4H5.1V45.2z M22.5,45.2h13.6v31.4H22.5V45.2z"/>
			</g>
			<g id="shape467-9" transform="translate(0,-0.112855)">
				<path class="st3" d="M-10,28.5c-1.3,0-2.3,1-2.3,2.3v43.6c0,1.2,1,2.3,2.3,2.3h2.5l44.7-48.1H-10z"/>
			</g>
		</g>
	</g>
</g>
</svg>
