<?xml version="1.0" encoding="utf-8"?>
<!-- Generator: Adobe Illustrator 22.1.0, SVG Export Plug-In . SVG Version: 6.00 Build 0)  -->
<svg version="1.1" id="Layer_1" xmlns="http://www.w3.org/2000/svg" xmlns:xlink="http://www.w3.org/1999/xlink" x="0px" y="0px"
	 width="50px" height="50px" viewBox="0 0 50 50" enable-background="new 0 0 50 50" xml:space="preserve">
<path fill="#3E3E3E" d="M47.778,28.222H2.222C0.995,28.222,0,29.217,0,30.444v14.333C0,46.005,0.995,47,2.222,47h45.556
	C49.005,47,50,46.005,50,44.778V30.444C50,29.222,49,28.222,47.778,28.222z"/>
<path opacity="0.2" fill="#FFFFFF" d="M38.778,28.222H2.222C0.995,28.222,0,29.217,0,30.444v14.333C0,46.005,0.995,47,2.222,47
	h8.556L38.778,28.222z"/>
<rect x="43" y="32" fill="#B8D432" width="3" height="3"/>
<rect x="37" y="32" fill="#B8D432" width="3" height="3"/>
<rect x="31" y="32" fill="#B8D432" width="3" height="3"/>
<path fill="#FCD116" d="M34.9,11.5c0-5.744-4.656-10.4-10.4-10.4S14.1,5.756,14.1,11.5c0,4.88,3.366,8.964,7.9,10.085V34h-5v5h5v4h5
	V21.585C31.534,20.464,34.9,16.38,34.9,11.5z M24.5,16.948c-3.004,0-5.448-2.444-5.448-5.448s2.444-5.448,5.448-5.448
	s5.448,2.444,5.448,5.448S27.504,16.948,24.5,16.948z"/>
</svg>
