<svg id="Layer_1" data-name="Layer 1" xmlns="http://www.w3.org/2000/svg" viewBox="0 0 64 64"><defs><style>.cls-1{fill:#0078d7;}.cls-2{fill:#fff;}.cls-3{opacity:0.25;}</style></defs><title>logo_powershell</title><path class="cls-1" d="M52.09,51.53H3.49c-2.24,0-3.78-1.62-3.45-3.61L7.26,4.61A4.72,4.72,0,0,1,11.91,1H60.51C62.74,1,64.29,2.62,64,4.61L56.74,47.92A4.72,4.72,0,0,1,52.09,51.53Z"/><path class="cls-2" d="M17,45.84a2.47,2.47,0,0,1-1.48-4.45L36.38,26,21.3,11.88a2.46,2.46,0,0,1-.1-3.49,2.49,2.49,0,0,1,3.51-.1L41.94,24.47a2.46,2.46,0,0,1-.23,3.78L18.46,45.36A2.48,2.48,0,0,1,17,45.84Z"/><path class="cls-2" d="M43.57,45.69H32.06a2.47,2.47,0,1,1,0-4.93H43.57a2.47,2.47,0,1,1,0,4.93Z"/><g class="cls-3"><path class="cls-2" d="M60.51,1H11.91A5,5,0,0,0,7.82,3.2c12.09,11.53,36.41,35.34,48,46.66a4.1,4.1,0,0,0,1-2L64,4.63C64.29,2.63,62.74,1,60.51,1Z"/></g></svg>