<?xml version="1.0" encoding="utf-8"?>
<!-- Generator: Adobe Illustrator 22.1.0, SVG Export Plug-In . SVG Version: 6.00 Build 0)  -->
<svg version="1.1" id="Layer_1" xmlns="http://www.w3.org/2000/svg" xmlns:xlink="http://www.w3.org/1999/xlink" x="0px" y="0px"
	 width="50px" height="50px" viewBox="0 0 50 50" enable-background="new 0 0 50 50" xml:space="preserve">
<path fill="#0072C6" d="M31,0L3,0l0,36h28V0L31,0z"/>
<path fill="#0072C6" d="M18,9l0,37h25.901L44,9H18z M41.915,11v15H19.986V11H41.915z M19.986,44V28h21.929v16H19.986z"/>
<circle fill="#7FBA00" cx="19" cy="45" r="4.9"/>
<path fill="#FFFFFF" d="M19,46.9c-1.048,0-1.9-0.853-1.9-1.9s0.853-1.9,1.9-1.9s1.9,0.852,1.9,1.9S20.048,46.9,19,46.9z"/>
<circle fill="#7FBA00" cx="43" cy="45" r="4.9"/>
<path fill="#FFFFFF" d="M43,46.9c-1.048,0-1.9-0.853-1.9-1.9s0.853-1.9,1.9-1.9s1.9,0.852,1.9,1.9S44.048,46.9,43,46.9z"/>
<circle fill="#7FBA00" cx="43" cy="10" r="4.9"/>
<circle fill="#FFFFFF" cx="43" cy="10" r="1.9"/>
<circle fill="#7FBA00" cx="43" cy="27" r="4.9"/>
<circle fill="#FFFFFF" cx="43" cy="27" r="1.9"/>
<rect x="5.901" y="2.9" opacity="0.3" fill="#FFFFFF" width="22.257" height="29.999"/>
<path opacity="0.6" fill="#00188F" d="M22.854,11H31V9h-8.146c-0.445-1.664-1.951-2.9-3.754-2.9c-2.151,0-3.9,1.75-3.9,3.9
	c0,1.766,1.188,3.245,2.801,3.723l0,9.554c-1.613,0.478-2.801,1.957-2.801,3.723s1.188,3.245,2.801,3.723L18,36h1.986v-5.211
	c1.398-0.328,2.498-1.407,2.868-2.789H31v-2h-8.146c-0.369-1.382-1.469-2.461-2.868-2.789v-9.422
	C21.384,13.461,22.484,12.382,22.854,11z"/>
</svg>
