<svg id="ICONS-64x" xmlns="http://www.w3.org/2000/svg" viewBox="0 0 64 64">
  <defs>
    <style>
      .cls-1 {
        fill: #ff9f2b;
      }

      .cls-2 {
        fill: #ff8c00;
      }

      .cls-3 {
        fill: #556a8a;
      }

      .cls-4, .cls-8 {
        fill: #fff;
      }

      .cls-5 {
        fill: #e5e5e5;
      }

      .cls-6 {
        fill: #2bc7f4;
      }

      .cls-7 {
        fill: none;
      }

      .cls-7, .cls-8 {
        stroke: #556a8a;
        stroke-miterlimit: 10;
        stroke-width: 2px;
      }
    </style>
  </defs>
  <title>i_get-started</title>
  <g>
    <g>
      <path class="cls-1" d="M6.91,60.27c-.76.25-1.57.48-2.41.71,5.06-21,15-17.21,15-17.21l1.63,1.54.06.2C21.57,46.9,22.92,55.19,6.91,60.27Z"/>
      <path class="cls-2" d="M6.91,60.27c5-17.3,13.45-15,14.31-14.76C21.57,46.9,22.92,55.19,6.91,60.27Z"/>
      <polygon class="cls-3" points="22.01 49.48 14.94 42.41 20.59 40.99 23.25 43.66 22.01 49.48"/>
    </g>
    <polygon class="cls-3" points="23.42 33.81 4.33 33.11 1.5 30.28 17.76 22.5 24.56 25.05 23.42 33.81"/>
    <polygon class="cls-3" points="31.5 39.58 32.21 58.67 35.04 61.5 42.81 45.24 40.26 38.44 31.5 39.58"/>
    <g>
      <path class="cls-4" d="M27.69,48h-.21l-.17-.15L17.24,37.34l0-.25A41.74,41.74,0,0,1,28.73,16.81C37.87,7.71,59.2,3.89,60.1,3.73l.7-.12-.12.7s-.37,2.22-1.14,5.45c-2.08,8.74-5.8,20.4-11.73,26.36C38.58,45.41,28.54,48,27.69,48Z"/>
      <path class="cls-5" d="M59,11c-1.69,7.11-5.36,19.43-11.6,25.7C38.18,46,28.15,47.9,27.63,48L22,42.38s1.79-10.32,11.32-19.8C39.59,16.35,51.88,12.68,59,11Z"/>
      <path class="cls-6" d="M61,3.3A92,92,0,0,0,42.7,8.75l13.4,13.4A123.08,123.08,0,0,0,61,3.3Z"/>
      <path class="cls-7" d="M27.69,48h-.21l-.17-.15L17.24,37.34l0-.25A41.74,41.74,0,0,1,28.73,16.81C37.87,7.71,59.2,3.89,60.1,3.73l.7-.12-.12.7s-.37,2.22-1.14,5.45c-2.08,8.74-5.8,20.4-11.73,26.36C38.58,45.41,28.54,48,27.69,48Z"/>
    </g>
  </g>
  <circle class="cls-8" cx="37.5" cy="26.5" r="5"/>
</svg>
