<?xml version="1.0" encoding="utf-8"?>
<!-- Generator: Adobe Illustrator 21.1.0, SVG Export Plug-In . SVG Version: 6.00 Build 0)  -->
<svg version="1.1" id="Layer_1" xmlns="http://www.w3.org/2000/svg" xmlns:xlink="http://www.w3.org/1999/xlink" x="0px" y="0px"
	 viewBox="0 0 331 344.9" style="enable-background:new 0 0 331 344.9;" xml:space="preserve">
<g>
	<g>
		<circle fill="#0072C6" cx="131.5" cy="69.5" r="25"/>
	</g>
</g>
<g>
	<g>
		<circle fill="#0072C6" cx="188.6" cy="150" r="29.8"/>
	</g>
</g>
<g>
	<g>
		<circle fill="#0072C6" cx="238.5" cy="238.6" r="23.3"/>
	</g>
</g>
<g>
	<g>
		<circle fill="#0072C6" cx="146" cy="222.5" r="20.1"/>
	</g>
</g>
<g>
	<g>
		<circle fill="#0072C6" cx="64.6" cy="161.3" r="20.1"/>
	</g>
</g>
<rect x="150" y="56.8" transform="matrix(0.8181 -0.5751 0.5751 0.8181 -33.697 111.2614)" fill="#0072C6" width="18.1" height="104.2"/>
<rect x="204.2" y="139.7" transform="matrix(0.8679 -0.4968 0.4968 0.8679 -67.6886 131.4286)" fill="#0072C6" width="18.1" height="106.6"/>
<rect x="61.7" y="145.6" transform="matrix(0.9966 -8.274276e-02 8.274276e-02 0.9966 -12.3649 10.9482)" fill="#0072C6" width="128.4" height="18.1"/>
<rect x="121.7" y="176.5" transform="matrix(0.5161 -0.8565 0.8565 0.5161 -78.506 232.1336)" fill="#0072C6" width="88.9" height="18.1"/>
<g>
	<circle fill="#0072C6" cx="37.2" cy="88.2" r="24"/>
</g>
<g>
	<g>
		<circle fill="#0072C6" cx="293.2" cy="88.2" r="24"/>
	</g>
</g>
<g>
	<g>
		<circle fill="#0072C6" cx="171.6" cy="316.2" r="24"/>
	</g>
</g>
<g>
	<path fill="#0072C6" d="M63.5,67.1c25.7-26.9,61.9-43.6,102-43.6c39.9,0,76,16.6,101.7,43.3c4.5-5.5,10.8-9.6,17.9-11.4
		c-1.6-1.8-3.3-3.6-5.1-5.3c-14.9-14.9-32.2-26.5-51.5-34.7c-20-8.5-41.2-12.7-63.1-12.7S122.3,7,102.3,15.4
		C83,23.6,65.7,35.2,50.8,50.1c-1.8,1.8-3.5,3.6-5.2,5.4C52.9,57.4,59,61.5,63.5,67.1z"/>
	<path fill="#0072C6" d="M318.3,110.8c-4.8,5.3-11.2,9-18.5,10.5c4.4,13.7,6.8,28.2,6.8,43.4c0,65.4-44.5,120.4-104.9,136.4
		c2.3,4.6,3.6,9.7,3.6,15.2c0,1.9-0.2,3.8-0.5,5.6c8.1-2,16-4.7,23.7-7.9c19.3-8.2,36.6-19.8,51.5-34.7
		c14.9-14.9,26.5-32.2,34.7-51.5c8.5-20,12.7-41.2,12.7-63.1C327.4,146.1,324.4,128,318.3,110.8z"/>
	<path fill="#0072C6" d="M140.3,303.5C74.4,291.6,24.4,234,24.4,164.6c0-15.1,2.4-29.6,6.8-43.3c-7.3-1.3-13.7-5-18.6-10.1
		c-6,17.1-9,35-9,53.4c0,21.9,4.3,43.1,12.7,63.1c8.2,19.3,19.8,36.6,34.7,51.5s32.2,26.5,51.5,34.7c11.7,5,23.9,8.5,36.4,10.5
		c-0.7-2.6-1-5.4-1-8.2C137.8,311.7,138.7,307.4,140.3,303.5z"/>
</g>
</svg>
