<svg xmlns="http://www.w3.org/2000/svg" xmlns:xlink="http://www.w3.org/1999/xlink" viewBox="0 0 543.9 191.273">
  <defs>
    <linearGradient id="linear-gradient" x1="266.2" y1="45.579" x2="266.2" y2="129.179" gradientUnits="userSpaceOnUse">
      <stop offset="0" stop-color="#5ea0ef"/>
      <stop offset="0.18" stop-color="#559cec"/>
      <stop offset="0.47" stop-color="#3c91e5"/>
      <stop offset="0.84" stop-color="#1380da"/>
      <stop offset="1" stop-color="#0078d4"/>
    </linearGradient>
    <linearGradient id="linear-gradient-2" x1="505.567" y1="470.841" x2="505.567" y2="486.604" gradientTransform="matrix(1, 0, 0, -1, 0, 565.2)" gradientUnits="userSpaceOnUse">
      <stop offset="0" stop-color="#198ab3"/>
      <stop offset="0.44" stop-color="#28b7db"/>
      <stop offset="0.78" stop-color="#32d4f5"/>
    </linearGradient>
    <linearGradient id="linear-gradient-3" x1="505.53" y1="464.604" x2="505.53" y2="469.27" xlink:href="#linear-gradient-2"/>
    <linearGradient id="linear-gradient-4" x1="55.414" x2="55.414" y2="28" gradientUnits="userSpaceOnUse">
      <stop offset="0.131" stop-color="#32d4f5"/>
      <stop offset="0.404" stop-color="#28b7db"/>
      <stop offset="1" stop-color="#198ab3"/>
    </linearGradient>
    <linearGradient id="linear-gradient-5" x1="64.718" y1="22.141" x2="64.718" y2="23.396" xlink:href="#linear-gradient-4"/>
    <linearGradient id="linear-gradient-6" x1="64.718" y1="24.307" x2="64.718" y2="25.563" xlink:href="#linear-gradient-4"/>
    <linearGradient id="linear-gradient-7" x1="79.575" y1="536.926" x2="79.575" y2="510.31" gradientTransform="matrix(1, 0, 0, -1, 0, 565.2)" gradientUnits="userSpaceOnUse">
      <stop offset="0.117" stop-color="#5ea0ef"/>
      <stop offset="0.271" stop-color="#4595e8"/>
      <stop offset="0.531" stop-color="#1f85dd"/>
      <stop offset="0.741" stop-color="#087cd6"/>
      <stop offset="0.873" stop-color="#0078d4"/>
    </linearGradient>
  </defs>
  <g id="Shapes">
    <rect width="543.9" height="191.273" fill="#fff"/>
    <g>
      <rect x="52.285" y="19.179" width="491.615" height="172.094" fill="#fff"/>
      <rect x="52.285" y="19.179" width="491.615" height="172.094" fill="#198ab3" opacity="0.12"/>
    </g>
    <g>
      <rect x="64.3" y="45.579" width="403.8" height="83.6" fill="#fff"/>
      <rect x="64.3" y="45.579" width="403.8" height="83.6" opacity="0.4" fill="url(#linear-gradient)"/>
    </g>
    <g>
      <rect x="211.676" y="142.379" width="184.516" height="40.094" fill="#fff"/>
      <rect x="211.676" y="142.379" width="184.516" height="40.094" fill="#ccc"/>
    </g>
    <g>
      <g>
        <polygon points="0 98.558 8.888 94.084 8.888 85.025 0 81.147 0 98.558" fill="#fff"/>
        <polygon points="0 98.558 8.888 94.084 8.888 85.025 0 81.147 0 98.558" fill="#3c3c41" opacity="0.85"/>
      </g>
      <g>
        <rect x="11.095" y="80.596" width="31.205" height="18" fill="#fff"/>
        <rect x="11.095" y="80.596" width="31.205" height="18" fill="#3c3c41" opacity="0.85"/>
      </g>
    </g>
    <g>
      <rect x="75.476" y="72.116" width="70.059" height="34.959" fill="#fff"/>
      <g opacity="0.65">
        <path d="M145.385,72.266v34.659H75.626V72.266h69.759m.15-.15H75.476v34.959h70.059V72.116Z" fill="#505050"/>
      </g>
    </g>
    <g>
      <rect x="171.935" y="72.116" width="70.059" height="34.959" fill="#fff"/>
      <g opacity="0.65">
        <path d="M241.843,72.266v34.659H172.085V72.266h69.758m.15-.15H171.935v34.959h70.058V72.116Z" fill="#505050"/>
      </g>
    </g>
    <g>
      <line x1="303.935" y1="112.561" x2="303.935" y2="137.491" fill="none" stroke="#3c3c41" stroke-miterlimit="10"/>
      <polygon points="300.195 113.655 303.935 107.179 307.674 113.655 300.195 113.655" fill="#3c3c41"/>
      <polygon points="300.195 136.397 303.935 142.873 307.674 136.397 300.195 136.397" fill="#3c3c41"/>
    </g>
    <g>
      <line x1="41.77" y1="89.596" x2="69.752" y2="89.596" fill="none" stroke="#3c3c41" stroke-miterlimit="10"/>
      <polygon points="68.658 93.335 75.135 89.596 68.658 85.856 68.658 93.335" fill="#3c3c41"/>
    </g>
    <g>
      <line x1="145.535" y1="89.596" x2="166.552" y2="89.596" fill="none" stroke="#3c3c41" stroke-miterlimit="10"/>
      <polygon points="165.458 93.335 171.935 89.596 165.458 85.856 165.458 93.335" fill="#3c3c41"/>
    </g>
    <g>
      <line x1="242.335" y1="89.596" x2="263.352" y2="89.596" fill="none" stroke="#3c3c41" stroke-miterlimit="10"/>
      <polygon points="262.258 93.335 268.735 89.596 262.258 85.856 262.258 93.335" fill="#3c3c41"/>
    </g>
    <g>
      <rect x="365.329" y="72.116" width="91.141" height="34.959" fill="#fff"/>
      <g opacity="0.65">
        <path d="M456.321,72.266v34.659H365.479V72.266h90.842m.15-.15H365.329v34.959h91.142V72.116Z" fill="#505050"/>
      </g>
    </g>
    <g>
      <line x1="338.335" y1="89.596" x2="359.352" y2="89.596" fill="none" stroke="#3c3c41" stroke-miterlimit="10"/>
      <polygon points="358.258 93.335 364.735 89.596 358.258 85.856 358.258 93.335" fill="#3c3c41"/>
    </g>
    <g>
      <line x1="456.471" y1="89.596" x2="485.825" y2="89.596" fill="none" stroke="#3c3c41" stroke-miterlimit="10"/>
      <polygon points="484.731 93.335 491.207 89.596 484.731 85.856 484.731 93.335" fill="#3c3c41"/>
    </g>
    <g>
      <path d="M516.676,89.412a5.01,5.01,0,0,0-4.332-4.752,6.3,6.3,0,0,0-6.481-6.061,6.455,6.455,0,0,0-6.172,4.209,5.95,5.95,0,0,0-5.234,5.728,6.049,6.049,0,0,0,6.259,5.814h10.677a1.032,1.032,0,0,0,.272,0A5.049,5.049,0,0,0,516.676,89.412Z" fill="url(#linear-gradient-2)"/>
      <rect x="505.048" y="88.931" width="0.963" height="7.641" fill="#b3b3b3"/>
      <circle cx="505.53" cy="86.622" r="2.568" fill="#f2f2f2"/>
      <rect x="503.197" y="95.93" width="4.666" height="4.666" rx="0.901" fill="url(#linear-gradient-3)"/>
    </g>
    <g>
      <rect x="268.735" y="72.116" width="70.059" height="34.959" fill="#fff"/>
      <g opacity="0.65">
        <path d="M338.643,72.266v34.659H268.885V72.266h69.758m.15-.15H268.735v34.959h70.058V72.116Z" fill="#505050"/>
      </g>
    </g>
    <g>
      <path d="M67.128,19.764H55.149l.28-1.128H62.9A5.616,5.616,0,0,0,65.371,7.971,6.475,6.475,0,0,0,65.518,6.6,6.651,6.651,0,0,0,53.2,3.166,5.049,5.049,0,0,0,45.3,7.273a5.137,5.137,0,0,0,.057.763,5.607,5.607,0,0,0,2.57,10.6h6.881l-.281,1.128H43.7a.908.908,0,0,0-.905.91V27.09A.909.909,0,0,0,43.7,28H67.128a.908.908,0,0,0,.9-.91V20.673A.907.907,0,0,0,67.128,19.764Zm-19.2-2.674a4.061,4.061,0,0,1-1.415-7.877l.674-.253-.206-.7a3.529,3.529,0,0,1-.142-.992,3.508,3.508,0,0,1,6.05-2.355l.812.863.456-1.1A5.112,5.112,0,0,1,63.98,6.6a5.021,5.021,0,0,1-.26,1.584l-.245.736.733.244a4.045,4.045,0,0,1,2.783,3.849A4.086,4.086,0,0,1,62.9,17.088H55.815l1.062-4.264.052-.3.3-.067a2.367,2.367,0,0,0,.836-.368l.307-.215,2.376,2.3-.061.256a1.473,1.473,0,0,0,1.426,1.819,1.4,1.4,0,0,0,.533-.1,1.481,1.481,0,0,0,.834-1.913,1.463,1.463,0,0,0-1.9-.838c-.01.005-.04.02-.059.032s-.048.027-.072.039l-.29.151-2.366-2.289.122-.29a2.4,2.4,0,0,0-2.2-3.316,2.363,2.363,0,0,0-1.641.663l-.257.249-1.572-.985.024-.281a1.488,1.488,0,0,0-.088-.664,1.464,1.464,0,0,0-1.369-.94,1.447,1.447,0,0,0-.533.1,1.483,1.483,0,0,0-.834,1.914,1.459,1.459,0,0,0,1.368.938,1.432,1.432,0,0,0,.534-.1,1.41,1.41,0,0,0,.322-.184l.249-.181,1.562.979-.079.323a2.364,2.364,0,0,0-.071.569,2.413,2.413,0,0,0,.119.745l.112.341-2.528,1.6-.239-.14a1.169,1.169,0,0,0-1.029-.083,1.2,1.2,0,0,0-.673,1.547,1.182,1.182,0,0,0,1.1.758,1.18,1.18,0,0,0,1.18-1.225l-.006-.261,2.583-1.634.254.21a2.394,2.394,0,0,0,.735.408l.367.127-.063.377L55.19,17.09Zm18.57,9.365H44.335V21.311h9.8l-.156.623a1.951,1.951,0,1,0,.6.087l.177-.71H66.494Z" fill="url(#linear-gradient-4)"/>
      <path d="M65.342,22.141H64.093V23.4h1.249Z" fill="url(#linear-gradient-5)"/>
      <path d="M65.342,24.307H64.093v1.256h1.249Z" fill="url(#linear-gradient-6)"/>
    </g>
    <g id="a3857c27-3253-4155-b620-22ae9cf301a7">
      <g>
        <path d="M89.025,40.743a8.852,8.852,0,0,0-9.086-8.36A9.109,9.109,0,0,0,71.4,38.2a8.531,8.531,0,0,0-7.269,8,8.383,8.383,0,0,0,8.577,8.184H88.122a6.907,6.907,0,0,0,6.9-6.912A7,7,0,0,0,89.025,40.743Z" fill="url(#linear-gradient-7)"/>
        <g>
          <polygon points="87.789 45.435 80.088 42.574 79.889 43.068 80.014 42.615 73.177 41.11 72.849 42.256 78.619 43.507 71.215 46.568 71.785 47.584 79.429 44.408 80.797 50.433 81.979 50.287 80.586 44.069 87.336 46.537 87.789 45.435" fill="#83b9f9"/>
          <path d="M71.991,42.692a1.512,1.512,0,1,0,.268-2.121h0l-.034.027A1.5,1.5,0,0,0,71.991,42.692Zm-1.717,5.35a1.521,1.521,0,1,0,.258-2.137,1.522,1.522,0,0,0-.258,2.137Zm15.9-1.322a1.505,1.505,0,1,0,.276-2.11l-.006,0h0a1.489,1.489,0,0,0-.278,2.084Z" fill="#9cebff"/>
          <path d="M80.194,51.365a1.506,1.506,0,1,0,.269-2.112h0a1.488,1.488,0,0,0-.29,2.084l0,0Z" fill="#9cebff"/>
        </g>
        <path d="M84.271,43.444a.453.453,0,0,0,.167-.619.461.461,0,0,0-.167-.167l-3.323-1.922-3.333-1.921a.454.454,0,0,0-.687.393v7.686a.454.454,0,0,0,.687.393l3.333-1.921Z" fill="#c3f1ff"/>
      </g>
    </g>
  </g>
  <g id="Text">
    <g>
      <path d="M273.541,159.5a5.541,5.541,0,0,1-2.4.446,4.05,4.05,0,0,1-3.041-1.137,4.157,4.157,0,0,1-1.107-3.029,4.44,4.44,0,0,1,1.245-3.27,4.355,4.355,0,0,1,3.232-1.254,6.045,6.045,0,0,1,2.074.311v1.822a3.676,3.676,0,0,0-1.922-.5,2.549,2.549,0,0,0-1.91.744,2.759,2.759,0,0,0-.727,2.016,2.708,2.708,0,0,0,.686,1.942,2.419,2.419,0,0,0,1.845.724,3.943,3.943,0,0,0,2.028-.539Z" fill="#1e1e1e"/>
      <path d="M280.525,159.8h-1.846v-.914h-.029a2.094,2.094,0,0,1-1.834,1.061q-2.086,0-2.086-2.526V153.8h1.846v3.457q0,1.272,1.008,1.272a1,1,0,0,0,.8-.349,1.406,1.406,0,0,0,.3-.946V153.8h1.846Z" fill="#1e1e1e"/>
      <path d="M281.691,159.643v-1.5a3.95,3.95,0,0,0,.911.41,3.019,3.019,0,0,0,.859.135,1.835,1.835,0,0,0,.776-.135.435.435,0,0,0,.284-.41.38.38,0,0,0-.129-.293,1.208,1.208,0,0,0-.331-.2,3.725,3.725,0,0,0-.442-.158c-.16-.047-.315-.1-.463-.158a4.432,4.432,0,0,1-.63-.291,1.8,1.8,0,0,1-.457-.36,1.416,1.416,0,0,1-.281-.474,1.884,1.884,0,0,1-.1-.639,1.638,1.638,0,0,1,.22-.867,1.782,1.782,0,0,1,.586-.595,2.672,2.672,0,0,1,.838-.34,4.376,4.376,0,0,1,.981-.108,5.454,5.454,0,0,1,.809.061,6.038,6.038,0,0,1,.808.179v1.43a2.889,2.889,0,0,0-.753-.308,3.189,3.189,0,0,0-.788-.1,1.7,1.7,0,0,0-.342.033,1.109,1.109,0,0,0-.285.093.518.518,0,0,0-.193.159.36.36,0,0,0-.07.219.409.409,0,0,0,.105.282.914.914,0,0,0,.276.2,2.817,2.817,0,0,0,.377.152q.209.067.414.138a5.371,5.371,0,0,1,.668.281,2.156,2.156,0,0,1,.512.357,1.4,1.4,0,0,1,.328.481,1.691,1.691,0,0,1,.115.656,1.713,1.713,0,0,1-.232.911,1.857,1.857,0,0,1-.615.616,2.79,2.79,0,0,1-.885.345,4.86,4.86,0,0,1-1.04.109A5.367,5.367,0,0,1,281.691,159.643Z" fill="#1e1e1e"/>
      <path d="M290.99,159.731a2.743,2.743,0,0,1-1.236.217q-1.957,0-1.957-2.034v-2.748h-.973V153.8h.973v-1.295l1.845-.527V153.8h1.348v1.365h-1.348v2.426q0,.938.744.938a1.257,1.257,0,0,0,.6-.17Z" fill="#1e1e1e"/>
      <path d="M294.845,159.948a3.226,3.226,0,0,1-2.358-.841,3.478,3.478,0,0,1,.032-4.611,3.364,3.364,0,0,1,2.408-.841,3.183,3.183,0,0,1,2.344.841,2.984,2.984,0,0,1,.85,2.223,3.172,3.172,0,0,1-.876,2.361A3.259,3.259,0,0,1,294.845,159.948Zm.047-4.875a1.234,1.234,0,0,0-1.019.451,1.99,1.99,0,0,0-.364,1.277q0,1.73,1.395,1.729,1.331,0,1.33-1.776Q296.234,155.073,294.892,155.073Z" fill="#1e1e1e"/>
      <path d="M308.849,159.8H307v-3.422q0-1.306-.961-1.306a.883.883,0,0,0-.744.392,1.611,1.611,0,0,0-.288.979V159.8H303.16v-3.457q0-1.272-.943-1.271a.9.9,0,0,0-.759.375,1.646,1.646,0,0,0-.284,1.019V159.8h-1.852v-6h1.852v.938h.023a2.27,2.27,0,0,1,1.939-1.084,1.729,1.729,0,0,1,1.741,1.119,2.219,2.219,0,0,1,2.015-1.119q1.958,0,1.957,2.414Z" fill="#1e1e1e"/>
      <path d="M319.338,153.8l-2.233,6H315l-2.127-6h1.98l1.043,3.7a5.378,5.378,0,0,1,.2,1.067h.024a5.946,5.946,0,0,1,.217-1.031L317.4,153.8Z" fill="#1e1e1e"/>
      <path d="M321.066,152.852a1.083,1.083,0,0,1-.767-.278.9.9,0,0,1-.3-.683.864.864,0,0,1,.3-.68,1.256,1.256,0,0,1,1.538,0,.871.871,0,0,1,.3.68.893.893,0,0,1-.3.691A1.1,1.1,0,0,1,321.066,152.852Zm.914,6.949h-1.851v-6h1.851Z" fill="#1e1e1e"/>
      <path d="M323.146,159.643v-1.5a3.95,3.95,0,0,0,.911.41,3.019,3.019,0,0,0,.859.135,1.835,1.835,0,0,0,.776-.135.434.434,0,0,0,.284-.41.38.38,0,0,0-.129-.293,1.208,1.208,0,0,0-.331-.2,3.663,3.663,0,0,0-.442-.158c-.16-.047-.315-.1-.463-.158a4.432,4.432,0,0,1-.63-.291,1.812,1.812,0,0,1-.457-.36,1.416,1.416,0,0,1-.281-.474,1.884,1.884,0,0,1-.1-.639,1.638,1.638,0,0,1,.22-.867,1.782,1.782,0,0,1,.586-.595,2.672,2.672,0,0,1,.838-.34,4.376,4.376,0,0,1,.981-.108,5.454,5.454,0,0,1,.809.061,6.038,6.038,0,0,1,.808.179v1.43a2.889,2.889,0,0,0-.753-.308,3.189,3.189,0,0,0-.788-.1,1.7,1.7,0,0,0-.342.033,1.109,1.109,0,0,0-.285.093.518.518,0,0,0-.193.159.36.36,0,0,0-.07.219.409.409,0,0,0,.105.282.927.927,0,0,0,.276.2,2.78,2.78,0,0,0,.378.152c.138.045.276.091.413.138a5.371,5.371,0,0,1,.668.281,2.156,2.156,0,0,1,.512.357,1.4,1.4,0,0,1,.328.481,1.914,1.914,0,0,1-.117,1.567,1.857,1.857,0,0,1-.615.616,2.79,2.79,0,0,1-.885.345,4.853,4.853,0,0,1-1.04.109A5.367,5.367,0,0,1,323.146,159.643Z" fill="#1e1e1e"/>
      <path d="M329.756,152.852a1.083,1.083,0,0,1-.768-.278.9.9,0,0,1-.3-.683.867.867,0,0,1,.3-.68,1.256,1.256,0,0,1,1.538,0,.871.871,0,0,1,.3.68.893.893,0,0,1-.3.691A1.1,1.1,0,0,1,329.756,152.852Zm.914,6.949h-1.852v-6h1.852Z" fill="#1e1e1e"/>
      <path d="M335.088,159.948a3.229,3.229,0,0,1-2.359-.841,3.478,3.478,0,0,1,.032-4.611,3.365,3.365,0,0,1,2.409-.841,3.182,3.182,0,0,1,2.343.841,2.984,2.984,0,0,1,.85,2.223,3.172,3.172,0,0,1-.876,2.361A3.258,3.258,0,0,1,335.088,159.948Zm.046-4.875a1.234,1.234,0,0,0-1.019.451,1.99,1.99,0,0,0-.363,1.277q0,1.73,1.394,1.729,1.33,0,1.33-1.776Q336.476,155.073,335.134,155.073Z" fill="#1e1e1e"/>
      <path d="M345.359,159.8h-1.846v-3.334q0-1.393-1-1.394a.989.989,0,0,0-.791.369,1.4,1.4,0,0,0-.31.937V159.8h-1.852v-6h1.852v.949h.023a2.123,2.123,0,0,1,1.928-1.095q1.992,0,1.992,2.472Z" fill="#1e1e1e"/>
      <path d="M248.931,173h-5.039v-8.4h4.846v1.541h-2.953v1.869h2.748v1.535h-2.748v1.922h3.146Z" fill="#1e1e1e"/>
      <path d="M250.924,173.148a1.082,1.082,0,0,1-.762-.281.906.906,0,0,1-.305-.692.87.87,0,0,1,.314-.691,1.155,1.155,0,0,1,.782-.27,1.112,1.112,0,0,1,.776.273.942.942,0,0,1-.006,1.388A1.158,1.158,0,0,1,250.924,173.148Z" fill="#1e1e1e"/>
      <path d="M259.232,172.316a3.4,3.4,0,0,1-.967,2.587,3.918,3.918,0,0,1-2.8.917,4.443,4.443,0,0,1-1.922-.346v-1.559a3.673,3.673,0,0,0,1.869.539,2.014,2.014,0,0,0,1.453-.5,1.775,1.775,0,0,0,.516-1.344v-.475h-.024a2.068,2.068,0,0,1-1.869,1.008,2.247,2.247,0,0,1-1.822-.809,3.279,3.279,0,0,1-.674-2.168,3.654,3.654,0,0,1,.75-2.42,2.45,2.45,0,0,1,1.975-.9,1.82,1.82,0,0,1,1.64.844h.024V167h1.851Zm-1.828-2.2v-.475a1.458,1.458,0,0,0-.337-.97,1.092,1.092,0,0,0-.876-.4,1.134,1.134,0,0,0-.967.48,2.265,2.265,0,0,0-.351,1.354,1.9,1.9,0,0,0,.334,1.186,1.088,1.088,0,0,0,.914.437,1.136,1.136,0,0,0,.929-.442A1.817,1.817,0,0,0,257.4,170.119Z" fill="#1e1e1e"/>
      <path d="M261.605,173.148a1.084,1.084,0,0,1-.762-.281.905.905,0,0,1-.3-.692.869.869,0,0,1,.313-.691,1.157,1.157,0,0,1,.782-.27,1.113,1.113,0,0,1,.777.273.942.942,0,0,1-.006,1.388A1.161,1.161,0,0,1,261.605,173.148Z" fill="#1e1e1e"/>
      <path d="M273.424,166.14h-2.4V173h-1.9V166.14h-2.385V164.6h6.68Z" fill="#1e1e1e"/>
      <path d="M276.154,173.148a3.222,3.222,0,0,1-2.358-.841,3.475,3.475,0,0,1,.032-4.611,3.363,3.363,0,0,1,2.408-.841,3.186,3.186,0,0,1,2.344.841,2.987,2.987,0,0,1,.849,2.223,3.174,3.174,0,0,1-.876,2.362A3.26,3.26,0,0,1,276.154,173.148Zm.047-4.875a1.236,1.236,0,0,0-1.02.451,1.991,1.991,0,0,0-.363,1.277q0,1.73,1.4,1.729,1.329,0,1.33-1.776Q277.543,168.272,276.2,168.273Z" fill="#1e1e1e"/>
      <path d="M286.343,167l-2.437,6.481q-.879,2.337-2.648,2.338a3.38,3.38,0,0,1-1.108-.153v-1.476a1.563,1.563,0,0,0,.8.217,1,1,0,0,0,1-.674l.316-.744L279.828,167h2.051L283,170.652a4.76,4.76,0,0,1,.164.8h.023a5.578,5.578,0,0,1,.194-.791l1.13-3.662Z" fill="#1e1e1e"/>
      <path d="M294.025,172.931a2.727,2.727,0,0,1-1.236.217q-1.957,0-1.957-2.033v-2.748h-.973V167h.973v-1.3l1.845-.527V167h1.348v1.366h-1.348v2.425q0,.938.745.938a1.257,1.257,0,0,0,.6-.17Z" fill="#1e1e1e"/>
      <path d="M298.982,168.671a1.606,1.606,0,0,0-.779-.181,1.123,1.123,0,0,0-.944.442,1.933,1.933,0,0,0-.339,1.2V173h-1.852v-6h1.852v1.114h.023a1.6,1.6,0,0,1,1.582-1.219,1.19,1.19,0,0,1,.457.07Z" fill="#1e1e1e"/>
      <path d="M305.58,173h-1.846v-.914h-.029a2.1,2.1,0,0,1-1.834,1.061q-2.086,0-2.086-2.526V167h1.846v3.457q0,1.272,1.007,1.272a1,1,0,0,0,.8-.349,1.406,1.406,0,0,0,.3-.946V167h1.846Z" fill="#1e1e1e"/>
      <path d="M311.685,172.785a3.661,3.661,0,0,1-1.81.363,3.063,3.063,0,0,1-2.239-.838,2.9,2.9,0,0,1-.855-2.162,3.188,3.188,0,0,1,.917-2.411,3.388,3.388,0,0,1,2.452-.882,3.151,3.151,0,0,1,1.535.281v1.57a2.108,2.108,0,0,0-1.3-.433,1.7,1.7,0,0,0-1.262.466,1.735,1.735,0,0,0-.466,1.286,1.71,1.71,0,0,0,.445,1.251,1.636,1.636,0,0,0,1.225.454,2.442,2.442,0,0,0,1.353-.434Z" fill="#1e1e1e"/>
      <path d="M318.91,173h-2.221l-1.916-2.976h-.023V173H312.9v-8.882h1.852v5.654h.023L316.56,167h2.2l-2.151,2.819Z" fill="#1e1e1e"/>
      <path d="M328.789,173h-1.852v-.826h-.023a2.076,2.076,0,0,1-1.858.973,2.275,2.275,0,0,1-1.81-.794,3.287,3.287,0,0,1-.686-2.218,3.578,3.578,0,0,1,.756-2.385,2.467,2.467,0,0,1,1.981-.9,1.685,1.685,0,0,1,1.617.832h.023v-3.568h1.852Zm-1.817-2.918v-.451a1.42,1.42,0,0,0-.339-.972,1.2,1.2,0,0,0-1.846.1,2.243,2.243,0,0,0-.346,1.327,1.939,1.939,0,0,0,.334,1.219,1.186,1.186,0,0,0,1.843-.023A1.885,1.885,0,0,0,326.972,170.083Z" fill="#1e1e1e"/>
      <path d="M335.738,170.529h-3.914q.093,1.307,1.646,1.306a3.219,3.219,0,0,0,1.741-.468V172.7a4.585,4.585,0,0,1-2.162.445,2.793,2.793,0,0,1-3.059-3.053,3.211,3.211,0,0,1,.867-2.367,2.889,2.889,0,0,1,2.133-.873,2.623,2.623,0,0,1,2.03.779,3,3,0,0,1,.718,2.115Zm-1.717-1.137q0-1.288-1.043-1.289a1,1,0,0,0-.77.369,1.676,1.676,0,0,0-.4.92Z" fill="#1e1e1e"/>
      <path d="M340.467,172.931a2.734,2.734,0,0,1-1.237.217q-1.957,0-1.957-2.033v-2.748H336.3V167h.973v-1.3l1.846-.527V167h1.348v1.366h-1.348v2.425q0,.938.744.938a1.263,1.263,0,0,0,.6-.17Z" fill="#1e1e1e"/>
      <path d="M346.853,170.529h-3.914q.094,1.307,1.647,1.306a3.218,3.218,0,0,0,1.74-.468V172.7a4.585,4.585,0,0,1-2.162.445,2.793,2.793,0,0,1-3.059-3.053,3.211,3.211,0,0,1,.867-2.367,2.889,2.889,0,0,1,2.133-.873,2.623,2.623,0,0,1,2.03.779,3,3,0,0,1,.718,2.115Zm-1.717-1.137q0-1.288-1.043-1.289a1,1,0,0,0-.77.369,1.676,1.676,0,0,0-.4.92Z" fill="#1e1e1e"/>
      <path d="M352.5,172.785a3.666,3.666,0,0,1-1.811.363,3.059,3.059,0,0,1-2.238-.838,2.9,2.9,0,0,1-.856-2.162,3.188,3.188,0,0,1,.917-2.411,3.391,3.391,0,0,1,2.453-.882,3.154,3.154,0,0,1,1.535.281v1.57a2.113,2.113,0,0,0-1.3-.433,1.7,1.7,0,0,0-1.263.466,1.739,1.739,0,0,0-.466,1.286,1.711,1.711,0,0,0,.446,1.251,1.634,1.634,0,0,0,1.224.454,2.448,2.448,0,0,0,1.354-.434Z" fill="#1e1e1e"/>
      <path d="M357.342,172.931a2.734,2.734,0,0,1-1.237.217q-1.957,0-1.957-2.033v-2.748h-.973V167h.973v-1.3l1.846-.527V167h1.348v1.366h-1.348v2.425q0,.938.744.938a1.263,1.263,0,0,0,.6-.17Z" fill="#1e1e1e"/>
      <path d="M361.2,173.148a3.222,3.222,0,0,1-2.358-.841,3.475,3.475,0,0,1,.032-4.611,3.363,3.363,0,0,1,2.408-.841,3.186,3.186,0,0,1,2.344.841,2.987,2.987,0,0,1,.849,2.223,3.174,3.174,0,0,1-.876,2.362A3.26,3.26,0,0,1,361.2,173.148Zm.047-4.875a1.236,1.236,0,0,0-1.02.451,1.991,1.991,0,0,0-.363,1.277q0,1.73,1.395,1.729,1.329,0,1.33-1.776Q362.586,168.272,361.244,168.273Z" fill="#1e1e1e"/>
      <path d="M369.588,168.671a1.61,1.61,0,0,0-.78-.181,1.123,1.123,0,0,0-.943.442,1.927,1.927,0,0,0-.34,1.2V173h-1.851v-6h1.851v1.114h.024a1.6,1.6,0,0,1,1.582-1.219,1.194,1.194,0,0,1,.457.07Z" fill="#1e1e1e"/>
    </g>
    <g>
      <path d="M483.811,58.779h-1.892v-8.4h1.892Z" fill="#1e1e1e"/>
      <path d="M488.4,58.925a3.222,3.222,0,0,1-2.358-.841,3.475,3.475,0,0,1,.032-4.611,3.367,3.367,0,0,1,2.408-.841,3.189,3.189,0,0,1,2.344.841,2.992,2.992,0,0,1,.85,2.224,3.172,3.172,0,0,1-.876,2.361A3.262,3.262,0,0,1,488.4,58.925Zm.047-4.875a1.24,1.24,0,0,0-1.02.451,1.993,1.993,0,0,0-.363,1.278q0,1.728,1.4,1.728,1.329,0,1.33-1.775Q489.788,54.051,488.446,54.05Z" fill="#1e1e1e"/>
      <path d="M498.958,51.917h-2.4v6.862h-1.9V51.917h-2.385V50.376h6.68Z" fill="#1e1e1e"/>
      <path d="M508.438,58.779H503.4v-8.4h4.846v1.541h-2.953v1.87h2.748v1.535h-2.748v1.922h3.146Z" fill="#1e1e1e"/>
      <path d="M515.475,58.779h-1.851v-.826H513.6a2.076,2.076,0,0,1-1.857.972,2.274,2.274,0,0,1-1.811-.794,3.285,3.285,0,0,1-.685-2.218A3.574,3.574,0,0,1,510,53.529a2.465,2.465,0,0,1,1.98-.9,1.684,1.684,0,0,1,1.617.832h.024V49.9h1.851Zm-1.816-2.918V55.41a1.418,1.418,0,0,0-.34-.973,1.2,1.2,0,0,0-1.846.1,2.246,2.246,0,0,0-.345,1.327,1.938,1.938,0,0,0,.334,1.218,1.185,1.185,0,0,0,1.842-.023A1.876,1.876,0,0,0,513.659,55.861Z" fill="#1e1e1e"/>
      <path d="M522.917,58.093a3.4,3.4,0,0,1-.967,2.587,3.92,3.92,0,0,1-2.8.917,4.435,4.435,0,0,1-1.922-.346V59.693a3.683,3.683,0,0,0,1.869.539,2.016,2.016,0,0,0,1.454-.495,1.78,1.78,0,0,0,.515-1.345v-.475h-.023a2.068,2.068,0,0,1-1.869,1.008,2.25,2.25,0,0,1-1.823-.808,3.281,3.281,0,0,1-.674-2.168,3.651,3.651,0,0,1,.75-2.42,2.449,2.449,0,0,1,1.975-.9,1.822,1.822,0,0,1,1.641.844h.023v-.7h1.852Zm-1.828-2.2v-.475a1.458,1.458,0,0,0-.337-.969,1.09,1.09,0,0,0-.876-.4,1.131,1.131,0,0,0-.967.481,2.26,2.26,0,0,0-.352,1.353,1.913,1.913,0,0,0,.334,1.187,1.089,1.089,0,0,0,.914.436,1.132,1.132,0,0,0,.929-.442A1.817,1.817,0,0,0,521.089,55.9Z" fill="#1e1e1e"/>
      <path d="M529.854,56.306H525.94q.094,1.306,1.647,1.307a3.219,3.219,0,0,0,1.74-.469V58.48a4.573,4.573,0,0,1-2.162.445,2.792,2.792,0,0,1-3.059-3.053,3.211,3.211,0,0,1,.867-2.367,2.889,2.889,0,0,1,2.133-.873,2.62,2.62,0,0,1,2.03.78,3,3,0,0,1,.718,2.115Zm-1.717-1.137q0-1.288-1.043-1.289a1,1,0,0,0-.77.369,1.679,1.679,0,0,0-.4.92Z" fill="#1e1e1e"/>
      <path d="M501.852,71.979h-1.9V68.557h-3.481v3.422h-1.892v-8.4h1.892v3.351h3.481V63.577h1.9Z" fill="#1e1e1e"/>
      <path d="M509.294,71.979h-1.846v-.914h-.029a2.094,2.094,0,0,1-1.834,1.06q-2.086,0-2.086-2.525V65.979h1.845v3.457q0,1.272,1.008,1.271a1,1,0,0,0,.8-.348,1.408,1.408,0,0,0,.3-.946V65.979h1.846Z" fill="#1e1e1e"/>
      <path d="M512.727,71.282H512.7v.7h-1.852V63.1H512.7v3.785h.023a2.2,2.2,0,0,1,1.951-1.049,2.143,2.143,0,0,1,1.788.8,3.438,3.438,0,0,1,.626,2.18,3.721,3.721,0,0,1-.732,2.408,2.384,2.384,0,0,1-1.957.908A1.892,1.892,0,0,1,512.727,71.282Zm-.052-2.532v.616a1.4,1.4,0,0,0,.334.961,1.086,1.086,0,0,0,.855.38,1.134,1.134,0,0,0,.981-.489,2.358,2.358,0,0,0,.349-1.386,1.88,1.88,0,0,0-.319-1.163,1.079,1.079,0,0,0-.911-.419,1.177,1.177,0,0,0-.923.416A1.583,1.583,0,0,0,512.675,68.75Z" fill="#1e1e1e"/>
    </g>
    <g>
      <path d="M103.093,87.492h-1.172l-1.406-2.356a5.092,5.092,0,0,0-.375-.559,2.088,2.088,0,0,0-.372-.378,1.289,1.289,0,0,0-.41-.214,1.688,1.688,0,0,0-.5-.068h-.809v3.575H97.07v-8.4h2.507a3.568,3.568,0,0,1,1.017.138,2.272,2.272,0,0,1,.809.419,1.951,1.951,0,0,1,.536.7,2.322,2.322,0,0,1,.193.982,2.356,2.356,0,0,1-.132.8,2.12,2.12,0,0,1-.375.654,2.275,2.275,0,0,1-.586.489,2.966,2.966,0,0,1-.77.313v.024a1.737,1.737,0,0,1,.366.214,2.016,2.016,0,0,1,.3.284,3.674,3.674,0,0,1,.278.372c.092.138.195.3.308.483ZM98.054,79.98v3.047H99.39a2,2,0,0,0,.682-.112,1.568,1.568,0,0,0,.542-.319,1.438,1.438,0,0,0,.358-.51,1.7,1.7,0,0,0,.129-.676,1.317,1.317,0,0,0-.437-1.052A1.874,1.874,0,0,0,99.4,79.98Z" fill="#1e1e1e"/>
      <path d="M108.677,79.98h-2.426v7.512h-.984V79.98h-2.42v-.891h5.83Z" fill="#1e1e1e"/>
      <path d="M109.369,87.152v-1.16a2.284,2.284,0,0,0,.477.316,3.819,3.819,0,0,0,.586.237,4.556,4.556,0,0,0,.618.15,3.474,3.474,0,0,0,.575.052,2.254,2.254,0,0,0,1.356-.336,1.266,1.266,0,0,0,.3-1.562,1.69,1.69,0,0,0-.413-.46,4.1,4.1,0,0,0-.624-.4q-.36-.191-.776-.4-.439-.222-.821-.451a3.535,3.535,0,0,1-.662-.5,2.087,2.087,0,0,1-.442-.624,2.127,2.127,0,0,1,.091-1.816,2.14,2.14,0,0,1,.662-.7,3,3,0,0,1,.934-.411,4.321,4.321,0,0,1,1.07-.134,4.1,4.1,0,0,1,1.81.3v1.108a3.28,3.28,0,0,0-1.91-.516,3.141,3.141,0,0,0-.645.068,1.842,1.842,0,0,0-.574.219,1.274,1.274,0,0,0-.41.393,1.044,1.044,0,0,0-.158.586,1.211,1.211,0,0,0,.12.557,1.366,1.366,0,0,0,.354.427,3.543,3.543,0,0,0,.572.375q.336.181.776.4t.856.468a4.014,4.014,0,0,1,.709.545,2.434,2.434,0,0,1,.483.662,1.868,1.868,0,0,1,.179.833,2.1,2.1,0,0,1-.244,1.051,1.983,1.983,0,0,1-.656.7,2.857,2.857,0,0,1-.952.39,5.216,5.216,0,0,1-1.137.12,4.761,4.761,0,0,1-.492-.032c-.2-.021-.394-.053-.6-.094a4.969,4.969,0,0,1-.578-.152A1.822,1.822,0,0,1,109.369,87.152Z" fill="#1e1e1e"/>
      <path d="M117.121,84.316v3.176h-.985v-8.4h2.309a3.046,3.046,0,0,1,2.089.657,2.341,2.341,0,0,1,.741,1.851,2.546,2.546,0,0,1-.823,1.957,3.145,3.145,0,0,1-2.224.762Zm0-4.336v3.445h1.031a2.3,2.3,0,0,0,1.556-.466,1.649,1.649,0,0,0,.536-1.315q0-1.664-1.969-1.664Z" fill="#1e1e1e"/>
      <path d="M93.662,100.475V99.444a2.851,2.851,0,0,0,1.729.58q1.266,0,1.265-.844a.733.733,0,0,0-.108-.407,1.083,1.083,0,0,0-.293-.3,2.206,2.206,0,0,0-.434-.231c-.166-.069-.344-.14-.536-.214a6.93,6.93,0,0,1-.7-.32,2.105,2.105,0,0,1-.5-.363,1.342,1.342,0,0,1-.3-.46,1.613,1.613,0,0,1-.1-.6,1.435,1.435,0,0,1,.193-.748,1.715,1.715,0,0,1,.516-.544,2.391,2.391,0,0,1,.735-.331,3.236,3.236,0,0,1,.853-.112,3.436,3.436,0,0,1,1.394.27v.972a2.716,2.716,0,0,0-1.523-.433,1.775,1.775,0,0,0-.486.061,1.185,1.185,0,0,0-.372.173.794.794,0,0,0-.241.267.709.709,0,0,0-.085.343.827.827,0,0,0,.085.392.866.866,0,0,0,.249.281,1.914,1.914,0,0,0,.4.223c.156.066.334.139.533.217a7.36,7.36,0,0,1,.715.313,2.453,2.453,0,0,1,.539.364,1.422,1.422,0,0,1,.343.465,1.505,1.505,0,0,1,.12.627,1.489,1.489,0,0,1-.2.774,1.685,1.685,0,0,1-.525.545,2.411,2.411,0,0,1-.756.322,3.746,3.746,0,0,1-.9.1A3.41,3.41,0,0,1,93.662,100.475Z" fill="#1e1e1e"/>
      <path d="M101.625,100.832a2.784,2.784,0,0,1-2.124-.84,3.117,3.117,0,0,1-.794-2.23,3.246,3.246,0,0,1,.826-2.361,2.969,2.969,0,0,1,2.233-.85,2.7,2.7,0,0,1,2.095.826,3.277,3.277,0,0,1,.752,2.291,3.223,3.223,0,0,1-.811,2.3A2.845,2.845,0,0,1,101.625,100.832Zm.071-5.472a1.826,1.826,0,0,0-1.465.63,2.583,2.583,0,0,0-.539,1.737,2.445,2.445,0,0,0,.545,1.682,1.851,1.851,0,0,0,1.459.615,1.754,1.754,0,0,0,1.432-.6,2.616,2.616,0,0,0,.5-1.716,2.665,2.665,0,0,0-.5-1.735A1.748,1.748,0,0,0,101.7,95.36Z" fill="#1e1e1e"/>
      <path d="M111,100.692h-.961v-.949h-.024a1.972,1.972,0,0,1-1.851,1.089q-2.145,0-2.145-2.554V94.692h.955v3.433q0,1.9,1.453,1.9a1.471,1.471,0,0,0,1.158-.519,1.986,1.986,0,0,0,.454-1.356V94.692H111Z" fill="#1e1e1e"/>
      <path d="M116.069,95.664a1.181,1.181,0,0,0-.727-.193,1.226,1.226,0,0,0-1.028.58,2.685,2.685,0,0,0-.413,1.582v3.059h-.961v-6h.961v1.236h.024a2.087,2.087,0,0,1,.626-.987,1.429,1.429,0,0,1,.944-.355,1.583,1.583,0,0,1,.574.082Z" fill="#1e1e1e"/>
      <path d="M121.2,100.416a3.117,3.117,0,0,1-1.641.416A2.714,2.714,0,0,1,117.49,100a3.026,3.026,0,0,1-.788-2.165,3.325,3.325,0,0,1,.849-2.381,2.973,2.973,0,0,1,2.268-.9,3.166,3.166,0,0,1,1.395.293v.985a2.442,2.442,0,0,0-1.43-.469,1.932,1.932,0,0,0-1.509.659,2.5,2.5,0,0,0-.589,1.731,2.38,2.38,0,0,0,.554,1.664,1.906,1.906,0,0,0,1.485.61A2.407,2.407,0,0,0,121.2,99.5Z" fill="#1e1e1e"/>
      <path d="M127.477,97.932h-4.236a2.245,2.245,0,0,0,.539,1.547,1.859,1.859,0,0,0,1.418.545,2.948,2.948,0,0,0,1.863-.668v.9a3.479,3.479,0,0,1-2.092.574,2.537,2.537,0,0,1-2-.817,3.347,3.347,0,0,1-.726-2.3,3.278,3.278,0,0,1,.794-2.282,2.544,2.544,0,0,1,1.971-.882,2.256,2.256,0,0,1,1.823.762,3.18,3.18,0,0,1,.644,2.115Zm-.984-.814a1.958,1.958,0,0,0-.4-1.3,1.367,1.367,0,0,0-1.1-.463,1.552,1.552,0,0,0-1.154.486,2.2,2.2,0,0,0-.586,1.272Z" fill="#1e1e1e"/>
    </g>
    <g>
      <path d="M184,79.98h-3.282v2.906h3.036v.885h-3.036v3.721h-.984v-8.4H184Z" fill="#1e1e1e"/>
      <path d="M188.6,82.464a1.174,1.174,0,0,0-.726-.193,1.228,1.228,0,0,0-1.029.58,2.685,2.685,0,0,0-.413,1.582v3.059h-.961v-6h.961v1.236h.024a2.1,2.1,0,0,1,.627-.987,1.425,1.425,0,0,1,.943-.355,1.558,1.558,0,0,1,.574.082Z" fill="#1e1e1e"/>
      <path d="M193.935,87.492h-.961v-.938h-.023a2.011,2.011,0,0,1-1.846,1.078,1.975,1.975,0,0,1-1.4-.474,1.646,1.646,0,0,1-.507-1.26q0-1.681,1.98-1.957l1.8-.252q0-1.53-1.236-1.529a2.954,2.954,0,0,0-1.957.738v-.985a3.717,3.717,0,0,1,2.039-.562q2.115,0,2.115,2.238Zm-.961-3.036-1.447.2a2.35,2.35,0,0,0-1.008.331.956.956,0,0,0-.34.841.914.914,0,0,0,.314.717,1.209,1.209,0,0,0,.835.279,1.545,1.545,0,0,0,1.181-.5,1.792,1.792,0,0,0,.465-1.269Z" fill="#1e1e1e"/>
      <path d="M204.265,87.492H203.3V84.046A2.6,2.6,0,0,0,203,82.605a1.166,1.166,0,0,0-1.034-.445,1.279,1.279,0,0,0-1.046.562,2.153,2.153,0,0,0-.431,1.348v3.422h-.961V83.929q0-1.77-1.365-1.769a1.262,1.262,0,0,0-1.043.53,2.187,2.187,0,0,0-.41,1.38v3.422h-.961v-6h.961v.949h.023a2.038,2.038,0,0,1,1.863-1.09,1.734,1.734,0,0,1,1.7,1.242,2.14,2.14,0,0,1,1.992-1.242q1.98,0,1.98,2.443Z" fill="#1e1e1e"/>
      <path d="M210.9,84.732h-4.236a2.242,2.242,0,0,0,.539,1.547,1.858,1.858,0,0,0,1.418.545,2.95,2.95,0,0,0,1.863-.668v.9a3.481,3.481,0,0,1-2.092.574,2.537,2.537,0,0,1-2-.817,3.348,3.348,0,0,1-.726-2.3,3.277,3.277,0,0,1,.794-2.282,2.544,2.544,0,0,1,1.971-.882,2.254,2.254,0,0,1,1.822.762,3.175,3.175,0,0,1,.645,2.115Zm-.984-.815a1.956,1.956,0,0,0-.4-1.3,1.368,1.368,0,0,0-1.1-.462,1.555,1.555,0,0,0-1.155.486,2.214,2.214,0,0,0-.586,1.271Z" fill="#1e1e1e"/>
      <path d="M218.773,82.464a1.174,1.174,0,0,0-.726-.193,1.226,1.226,0,0,0-1.029.58,2.685,2.685,0,0,0-.413,1.582v3.059h-.961v-6h.961v1.236h.024a2.081,2.081,0,0,1,.627-.987,1.425,1.425,0,0,1,.943-.355,1.562,1.562,0,0,1,.574.082Z" fill="#1e1e1e"/>
      <path d="M224.111,87.492h-.961v-.938h-.023a2.012,2.012,0,0,1-1.846,1.078,1.973,1.973,0,0,1-1.4-.474,1.646,1.646,0,0,1-.507-1.26q0-1.681,1.98-1.957l1.8-.252q0-1.53-1.236-1.529a2.954,2.954,0,0,0-1.957.738v-.985A3.717,3.717,0,0,1,222,81.351q2.115,0,2.115,2.238Zm-.961-3.036-1.447.2a2.35,2.35,0,0,0-1.008.331.953.953,0,0,0-.34.841.914.914,0,0,0,.314.717,1.209,1.209,0,0,0,.835.279,1.541,1.541,0,0,0,1.18-.5,1.789,1.789,0,0,0,.466-1.269Z" fill="#1e1e1e"/>
      <path d="M228.705,87.433a1.856,1.856,0,0,1-.9.188q-1.575,0-1.576-1.758V82.312H225.2v-.82h1.031V80.027l.961-.311v1.776h1.512v.82h-1.512v3.381a1.4,1.4,0,0,0,.2.861.818.818,0,0,0,.68.258,1.01,1.01,0,0,0,.627-.2Z" fill="#1e1e1e"/>
      <path d="M234.81,84.732h-4.236a2.246,2.246,0,0,0,.539,1.547,1.859,1.859,0,0,0,1.418.545,2.948,2.948,0,0,0,1.863-.668v.9a3.479,3.479,0,0,1-2.092.574,2.537,2.537,0,0,1-2-.817,3.348,3.348,0,0,1-.726-2.3,3.277,3.277,0,0,1,.794-2.282,2.544,2.544,0,0,1,1.971-.882,2.256,2.256,0,0,1,1.823.762,3.18,3.18,0,0,1,.644,2.115Zm-.984-.815a1.961,1.961,0,0,0-.4-1.3,1.37,1.37,0,0,0-1.1-.462,1.552,1.552,0,0,0-1.154.486,2.2,2.2,0,0,0-.586,1.271Z" fill="#1e1e1e"/>
      <path d="M198.86,92.653a1.272,1.272,0,0,0-.639-.158q-1.006,0-1.007,1.271v.926h1.406v.82h-1.406v5.18h-.955v-5.18h-1.026v-.82h1.026v-.973a2.021,2.021,0,0,1,.544-1.491,1.843,1.843,0,0,1,1.36-.548,1.866,1.866,0,0,1,.7.106Z" fill="#1e1e1e"/>
      <path d="M200.143,93.168a.607.607,0,0,1-.439-.175.6.6,0,0,1-.182-.446.616.616,0,0,1,.621-.627.624.624,0,0,1,.449.179.628.628,0,0,1,0,.888A.618.618,0,0,1,200.143,93.168Zm.469,7.524h-.961v-6h.961Z" fill="#1e1e1e"/>
      <path d="M203.518,100.692h-.961V91.809h.961Z" fill="#1e1e1e"/>
      <path d="M208.247,100.633a1.856,1.856,0,0,1-.9.188q-1.575,0-1.576-1.758V95.512h-1.031v-.82h1.031V93.227l.961-.311v1.776h1.512v.82h-1.512v3.381a1.4,1.4,0,0,0,.2.861.818.818,0,0,0,.68.258,1.01,1.01,0,0,0,.627-.2Z" fill="#1e1e1e"/>
      <path d="M214.352,97.932h-4.236a2.245,2.245,0,0,0,.539,1.547,1.859,1.859,0,0,0,1.418.545,2.948,2.948,0,0,0,1.863-.668v.9a3.479,3.479,0,0,1-2.092.574,2.537,2.537,0,0,1-2-.817,3.347,3.347,0,0,1-.726-2.3,3.278,3.278,0,0,1,.794-2.282,2.544,2.544,0,0,1,1.971-.882,2.256,2.256,0,0,1,1.823.762,3.18,3.18,0,0,1,.644,2.115Zm-.984-.814a1.958,1.958,0,0,0-.4-1.3,1.367,1.367,0,0,0-1.1-.463,1.552,1.552,0,0,0-1.154.486,2.2,2.2,0,0,0-.586,1.272Z" fill="#1e1e1e"/>
      <path d="M218.934,95.664a1.18,1.18,0,0,0-.726-.193,1.228,1.228,0,0,0-1.029.58,2.685,2.685,0,0,0-.413,1.582v3.059h-.961v-6h.961v1.236h.024a2.081,2.081,0,0,1,.627-.987,1.425,1.425,0,0,1,.943-.355,1.583,1.583,0,0,1,.574.082Z" fill="#1e1e1e"/>
    </g>
    <g>
      <path d="M297.158,87.492h-.984V83.66h-4.348v3.832h-.984v-8.4h.984v3.686h4.348V79.089h.984Z" fill="#1e1e1e"/>
      <path d="M304.33,79.98H301.9v7.512h-.984V79.98H298.5v-.891h5.83Z" fill="#1e1e1e"/>
      <path d="M310.851,79.98h-2.426v7.512h-.984V79.98h-2.42v-.891h5.83Z" fill="#1e1e1e"/>
      <path d="M313.154,84.316v3.176h-.984v-8.4h2.308a3.044,3.044,0,0,1,2.089.657,2.341,2.341,0,0,1,.741,1.851,2.546,2.546,0,0,1-.823,1.957,3.145,3.145,0,0,1-2.224.762Zm0-4.336v3.445h1.031a2.3,2.3,0,0,0,1.556-.466,1.649,1.649,0,0,0,.536-1.315q0-1.664-1.969-1.664Z" fill="#1e1e1e"/>
      <path d="M284.191,97.932h-4.236a2.24,2.24,0,0,0,.539,1.547,1.859,1.859,0,0,0,1.418.545,2.948,2.948,0,0,0,1.863-.668v.9a3.481,3.481,0,0,1-2.092.574,2.537,2.537,0,0,1-2-.817,3.347,3.347,0,0,1-.726-2.3,3.278,3.278,0,0,1,.794-2.282,2.544,2.544,0,0,1,1.971-.882,2.258,2.258,0,0,1,1.823.762,3.18,3.18,0,0,1,.644,2.115Zm-.984-.814a1.953,1.953,0,0,0-.4-1.3,1.365,1.365,0,0,0-1.1-.463,1.555,1.555,0,0,0-1.155.486,2.206,2.206,0,0,0-.585,1.272Z" fill="#1e1e1e"/>
      <path d="M290.027,94.692l-2.016,3.035,1.981,2.965h-1.119L287.7,98.746q-.111-.181-.264-.457h-.023c-.02.036-.111.188-.275.457l-1.2,1.946h-1.107l2.045-2.942-1.957-3.058h1.119l1.16,2.051q.129.228.252.468h.024l1.5-2.519Z" fill="#1e1e1e"/>
      <path d="M293.935,100.633a1.849,1.849,0,0,1-.9.188q-1.577,0-1.576-1.758V95.512h-1.032v-.82h1.032V93.227l.961-.311v1.776h1.511v.82h-1.511v3.381a1.4,1.4,0,0,0,.205.861.816.816,0,0,0,.679.258,1.01,1.01,0,0,0,.627-.2Z" fill="#1e1e1e"/>
      <path d="M300.041,97.932H295.8a2.249,2.249,0,0,0,.539,1.547,1.861,1.861,0,0,0,1.418.545,2.953,2.953,0,0,0,1.864-.668v.9a3.483,3.483,0,0,1-2.092.574,2.534,2.534,0,0,1-2-.817,3.342,3.342,0,0,1-.727-2.3,3.283,3.283,0,0,1,.794-2.282,2.547,2.547,0,0,1,1.972-.882,2.254,2.254,0,0,1,1.822.762,3.175,3.175,0,0,1,.645,2.115Zm-.985-.814a1.952,1.952,0,0,0-.4-1.3,1.367,1.367,0,0,0-1.1-.463,1.552,1.552,0,0,0-1.154.486,2.207,2.207,0,0,0-.586,1.272Z" fill="#1e1e1e"/>
      <path d="M306.474,100.692h-.961V97.27q0-1.911-1.394-1.91a1.512,1.512,0,0,0-1.193.542,2.009,2.009,0,0,0-.471,1.368v3.422h-.961v-6h.961v1h.023a2.166,2.166,0,0,1,1.969-1.137,1.836,1.836,0,0,1,1.506.636,2.836,2.836,0,0,1,.521,1.837Z" fill="#1e1e1e"/>
      <path d="M307.922,100.475V99.444a2.846,2.846,0,0,0,1.728.58q1.266,0,1.266-.844a.725.725,0,0,0-.109-.407,1.083,1.083,0,0,0-.293-.3,2.225,2.225,0,0,0-.433-.231q-.249-.1-.536-.214a6.954,6.954,0,0,1-.7-.32,2.079,2.079,0,0,1-.5-.363,1.345,1.345,0,0,1-.305-.46,1.613,1.613,0,0,1-.1-.6,1.435,1.435,0,0,1,.194-.748,1.712,1.712,0,0,1,.515-.544,2.386,2.386,0,0,1,.736-.331,3.223,3.223,0,0,1,.852-.112,3.437,3.437,0,0,1,1.395.27v.972a2.722,2.722,0,0,0-1.524-.433,1.78,1.78,0,0,0-.486.061,1.185,1.185,0,0,0-.372.173.781.781,0,0,0-.24.267.7.7,0,0,0-.085.343A.815.815,0,0,0,309,96.6a.844.844,0,0,0,.249.281,1.88,1.88,0,0,0,.4.223c.156.066.334.139.533.217a7.36,7.36,0,0,1,.715.313,2.453,2.453,0,0,1,.539.364,1.408,1.408,0,0,1,.343.465,1.505,1.505,0,0,1,.12.627,1.479,1.479,0,0,1-.2.774,1.685,1.685,0,0,1-.525.545,2.4,2.4,0,0,1-.755.322,3.754,3.754,0,0,1-.9.1A3.406,3.406,0,0,1,307.922,100.475Z" fill="#1e1e1e"/>
      <path d="M313.869,93.168a.61.61,0,0,1-.44-.175.6.6,0,0,1-.181-.446.615.615,0,0,1,.621-.627.62.62,0,0,1,.448.179.625.625,0,0,1,0,.888A.614.614,0,0,1,313.869,93.168Zm.469,7.524h-.961v-6h.961Z" fill="#1e1e1e"/>
      <path d="M318.791,100.832a2.784,2.784,0,0,1-2.124-.84,3.113,3.113,0,0,1-.794-2.23A3.242,3.242,0,0,1,316.7,95.4a2.968,2.968,0,0,1,2.232-.85,2.694,2.694,0,0,1,2.1.826,3.277,3.277,0,0,1,.753,2.291,3.22,3.22,0,0,1-.812,2.3A2.843,2.843,0,0,1,318.791,100.832Zm.07-5.472a1.829,1.829,0,0,0-1.465.63,2.589,2.589,0,0,0-.539,1.737,2.45,2.45,0,0,0,.545,1.682,1.852,1.852,0,0,0,1.459.615,1.756,1.756,0,0,0,1.433-.6,2.616,2.616,0,0,0,.5-1.716,2.665,2.665,0,0,0-.5-1.735A1.75,1.75,0,0,0,318.861,95.36Z" fill="#1e1e1e"/>
      <path d="M328.3,100.692h-.961V97.27q0-1.911-1.395-1.91a1.51,1.51,0,0,0-1.192.542,2.005,2.005,0,0,0-.472,1.368v3.422h-.961v-6h.961v1h.024a2.165,2.165,0,0,1,1.968-1.137,1.835,1.835,0,0,1,1.506.636,2.83,2.83,0,0,1,.522,1.837Z" fill="#1e1e1e"/>
    </g>
    <g>
      <path d="M392.474,87.492h-.984v-8.4h.984Z" fill="#1e1e1e"/>
      <path d="M397.062,87.632a2.784,2.784,0,0,1-2.125-.841,3.113,3.113,0,0,1-.793-2.229,3.246,3.246,0,0,1,.826-2.361,2.969,2.969,0,0,1,2.233-.85,2.689,2.689,0,0,1,2.094.826,3.277,3.277,0,0,1,.753,2.291,3.224,3.224,0,0,1-.812,2.3A2.843,2.843,0,0,1,397.062,87.632Zm.071-5.472a1.829,1.829,0,0,0-1.465.629,2.584,2.584,0,0,0-.539,1.738,2.441,2.441,0,0,0,.545,1.681,1.849,1.849,0,0,0,1.459.616,1.755,1.755,0,0,0,1.431-.6,2.617,2.617,0,0,0,.5-1.717,2.662,2.662,0,0,0-.5-1.734A1.746,1.746,0,0,0,397.133,82.16Z" fill="#1e1e1e"/>
      <path d="M406.683,79.98h-2.425v7.512h-.985V79.98h-2.42v-.891h5.83Z" fill="#1e1e1e"/>
      <path d="M417.605,87.492h-.984V83.66h-4.348v3.832h-.984v-8.4h.984v3.686h4.348V79.089h.984Z" fill="#1e1e1e"/>
      <path d="M424.531,87.492h-.961v-.95h-.023a1.974,1.974,0,0,1-1.852,1.09q-2.145,0-2.145-2.554V81.492h.956v3.433q0,1.9,1.453,1.9a1.468,1.468,0,0,0,1.156-.519,1.984,1.984,0,0,0,.455-1.356V81.492h.961Z" fill="#1e1e1e"/>
      <path d="M427.455,86.624h-.024v.868h-.961V78.609h.961v3.937h.024a2.271,2.271,0,0,1,2.074-1.2,2.2,2.2,0,0,1,1.807.806,3.328,3.328,0,0,1,.654,2.159,3.721,3.721,0,0,1-.732,2.411,2.442,2.442,0,0,1-2,.905A1.973,1.973,0,0,1,427.455,86.624Zm-.024-2.42v.838a1.786,1.786,0,0,0,.483,1.263,1.723,1.723,0,0,0,2.6-.149,3.061,3.061,0,0,0,.5-1.858,2.422,2.422,0,0,0-.463-1.57,1.533,1.533,0,0,0-1.254-.568,1.7,1.7,0,0,0-1.348.583A2.138,2.138,0,0,0,427.431,84.2Z" fill="#1e1e1e"/>
      <path d="M385.82,100.692h-.961V97.246a2.591,2.591,0,0,0-.307-1.441,1.167,1.167,0,0,0-1.035-.445,1.279,1.279,0,0,0-1.045.562,2.153,2.153,0,0,0-.431,1.348v3.422h-.961V97.129q0-1.769-1.365-1.769a1.265,1.265,0,0,0-1.043.53,2.191,2.191,0,0,0-.411,1.38v3.422H377.3v-6h.961v.949h.024a2.038,2.038,0,0,1,1.863-1.09,1.734,1.734,0,0,1,1.7,1.242,2.143,2.143,0,0,1,1.993-1.242q1.98,0,1.98,2.444Z" fill="#1e1e1e"/>
      <path d="M392.459,97.932h-4.237a2.249,2.249,0,0,0,.539,1.547,1.861,1.861,0,0,0,1.418.545,2.953,2.953,0,0,0,1.864-.668v.9a3.483,3.483,0,0,1-2.092.574,2.534,2.534,0,0,1-2-.817,3.342,3.342,0,0,1-.727-2.3,3.284,3.284,0,0,1,.8-2.282,2.544,2.544,0,0,1,1.971-.882,2.255,2.255,0,0,1,1.822.762,3.175,3.175,0,0,1,.645,2.115Zm-.985-.814a1.952,1.952,0,0,0-.4-1.3,1.369,1.369,0,0,0-1.1-.463,1.552,1.552,0,0,0-1.154.486,2.207,2.207,0,0,0-.586,1.272Z" fill="#1e1e1e"/>
      <path d="M393.549,100.475V99.444a2.846,2.846,0,0,0,1.728.58q1.266,0,1.266-.844a.725.725,0,0,0-.108-.407,1.083,1.083,0,0,0-.293-.3,2.225,2.225,0,0,0-.433-.231c-.166-.069-.346-.14-.537-.214a6.93,6.93,0,0,1-.7-.32,2.105,2.105,0,0,1-.5-.363,1.357,1.357,0,0,1-.3-.46,1.613,1.613,0,0,1-.1-.6,1.435,1.435,0,0,1,.194-.748,1.712,1.712,0,0,1,.515-.544,2.392,2.392,0,0,1,.737-.331,3.216,3.216,0,0,1,.851-.112,3.437,3.437,0,0,1,1.395.27v.972a2.722,2.722,0,0,0-1.524-.433,1.78,1.78,0,0,0-.486.061,1.179,1.179,0,0,0-.371.173.781.781,0,0,0-.24.267.7.7,0,0,0-.086.343.815.815,0,0,0,.086.392.84.84,0,0,0,.248.281,1.88,1.88,0,0,0,.4.223c.156.066.334.139.533.217a7.36,7.36,0,0,1,.715.313,2.453,2.453,0,0,1,.539.364,1.411,1.411,0,0,1,.344.465,1.506,1.506,0,0,1,.119.627,1.479,1.479,0,0,1-.195.774,1.689,1.689,0,0,1-.526.545,2.392,2.392,0,0,1-.756.322,3.74,3.74,0,0,1-.9.1A3.406,3.406,0,0,1,393.549,100.475Z" fill="#1e1e1e"/>
      <path d="M398.64,100.475V99.444a2.851,2.851,0,0,0,1.729.58q1.266,0,1.265-.844a.733.733,0,0,0-.107-.407,1.083,1.083,0,0,0-.293-.3,2.206,2.206,0,0,0-.434-.231q-.249-.1-.537-.214a6.906,6.906,0,0,1-.7-.32,2.105,2.105,0,0,1-.5-.363,1.342,1.342,0,0,1-.3-.46,1.613,1.613,0,0,1-.1-.6,1.444,1.444,0,0,1,.193-.748,1.715,1.715,0,0,1,.516-.544,2.4,2.4,0,0,1,.736-.331,3.229,3.229,0,0,1,.852-.112,3.436,3.436,0,0,1,1.394.27v.972a2.716,2.716,0,0,0-1.523-.433,1.775,1.775,0,0,0-.486.061,1.179,1.179,0,0,0-.371.173.794.794,0,0,0-.241.267.71.71,0,0,0-.086.343.826.826,0,0,0,.086.392.863.863,0,0,0,.248.281,1.914,1.914,0,0,0,.4.223c.156.066.334.139.533.217a7.36,7.36,0,0,1,.715.313,2.453,2.453,0,0,1,.539.364,1.425,1.425,0,0,1,.344.465,1.506,1.506,0,0,1,.119.627,1.488,1.488,0,0,1-.2.774,1.689,1.689,0,0,1-.526.545,2.411,2.411,0,0,1-.756.322,3.746,3.746,0,0,1-.9.1A3.41,3.41,0,0,1,398.64,100.475Z" fill="#1e1e1e"/>
      <path d="M408.39,100.692h-.961v-.938h-.023a2.011,2.011,0,0,1-1.846,1.078,1.972,1.972,0,0,1-1.4-.474,1.647,1.647,0,0,1-.508-1.26q0-1.681,1.981-1.957l1.8-.252q0-1.528-1.236-1.529a2.954,2.954,0,0,0-1.957.738v-.984a3.72,3.72,0,0,1,2.039-.563q2.115,0,2.115,2.238Zm-.961-3.035-1.447.2a2.35,2.35,0,0,0-1.008.331.956.956,0,0,0-.34.841.918.918,0,0,0,.315.718,1.211,1.211,0,0,0,.834.278,1.547,1.547,0,0,0,1.182-.5,1.792,1.792,0,0,0,.464-1.269Z" fill="#1e1e1e"/>
      <path d="M415.322,100.211q0,3.3-3.164,3.305a4.249,4.249,0,0,1-1.945-.422v-.961a3.993,3.993,0,0,0,1.933.563q2.215,0,2.215-2.356v-.656h-.023a2.428,2.428,0,0,1-3.864.349,3.2,3.2,0,0,1-.683-2.148,3.735,3.735,0,0,1,.736-2.431,2.454,2.454,0,0,1,2.012-.9,1.956,1.956,0,0,1,1.8.973h.023v-.832h.961Zm-.961-2.232v-.885a1.715,1.715,0,0,0-.482-1.224,1.6,1.6,0,0,0-1.205-.51,1.671,1.671,0,0,0-1.395.647,2.891,2.891,0,0,0-.5,1.814,2.48,2.48,0,0,0,.484,1.6,1.561,1.561,0,0,0,1.28.6,1.676,1.676,0,0,0,1.316-.574A2.14,2.14,0,0,0,414.361,97.979Z" fill="#1e1e1e"/>
      <path d="M422.09,97.932h-4.237a2.249,2.249,0,0,0,.539,1.547,1.861,1.861,0,0,0,1.418.545,2.953,2.953,0,0,0,1.864-.668v.9a3.483,3.483,0,0,1-2.092.574,2.534,2.534,0,0,1-2-.817,3.342,3.342,0,0,1-.727-2.3,3.284,3.284,0,0,1,.795-2.282,2.544,2.544,0,0,1,1.971-.882,2.255,2.255,0,0,1,1.822.762,3.175,3.175,0,0,1,.645,2.115Zm-.985-.814a1.958,1.958,0,0,0-.4-1.3,1.369,1.369,0,0,0-1.1-.463,1.552,1.552,0,0,0-1.154.486,2.2,2.2,0,0,0-.586,1.272Z" fill="#1e1e1e"/>
      <path d="M426.467,100.475V99.444a2.846,2.846,0,0,0,1.728.58q1.266,0,1.266-.844a.733.733,0,0,0-.108-.407,1.083,1.083,0,0,0-.293-.3,2.225,2.225,0,0,0-.433-.231c-.166-.069-.346-.14-.537-.214a6.93,6.93,0,0,1-.7-.32,2.105,2.105,0,0,1-.5-.363,1.357,1.357,0,0,1-.3-.46,1.613,1.613,0,0,1-.1-.6,1.435,1.435,0,0,1,.194-.748,1.7,1.7,0,0,1,.515-.544,2.392,2.392,0,0,1,.737-.331,3.216,3.216,0,0,1,.851-.112,3.441,3.441,0,0,1,1.4.27v.972a2.722,2.722,0,0,0-1.524-.433,1.78,1.78,0,0,0-.486.061,1.179,1.179,0,0,0-.371.173.781.781,0,0,0-.24.267.7.7,0,0,0-.086.343.815.815,0,0,0,.086.392.84.84,0,0,0,.248.281,1.88,1.88,0,0,0,.4.223c.156.066.334.139.533.217a7.36,7.36,0,0,1,.715.313,2.453,2.453,0,0,1,.539.364,1.411,1.411,0,0,1,.344.465,1.506,1.506,0,0,1,.119.627,1.479,1.479,0,0,1-.195.774,1.689,1.689,0,0,1-.526.545,2.392,2.392,0,0,1-.756.322,3.746,3.746,0,0,1-.9.1A3.406,3.406,0,0,1,426.467,100.475Z" fill="#1e1e1e"/>
      <path d="M432.414,93.168a.61.61,0,0,1-.44-.175.6.6,0,0,1-.181-.446.615.615,0,0,1,.621-.627.623.623,0,0,1,.449.179.628.628,0,0,1,0,.888A.616.616,0,0,1,432.414,93.168Zm.469,7.524h-.961v-6h.961Z" fill="#1e1e1e"/>
      <path d="M439.808,100.692h-.961V97.27q0-1.911-1.394-1.91a1.51,1.51,0,0,0-1.192.542,2.01,2.01,0,0,0-.472,1.368v3.422h-.961v-6h.961v1h.023a2.166,2.166,0,0,1,1.969-1.137,1.836,1.836,0,0,1,1.506.636,2.836,2.836,0,0,1,.521,1.837Z" fill="#1e1e1e"/>
      <path d="M446.6,100.692h-1.347L442.6,97.809h-.023v2.883h-.961V91.809h.961V97.44h.023l2.52-2.748h1.26L443.6,97.586Z" fill="#1e1e1e"/>
    </g>
    <g>
      <path d="M76.782,13.348H74.889v-8.4h1.893Z" fill="#1e1e1e"/>
      <path d="M81.37,13.494a3.226,3.226,0,0,1-2.359-.841,3.048,3.048,0,0,1-.858-2.282,3.047,3.047,0,0,1,.891-2.329A3.361,3.361,0,0,1,81.452,7.2a3.186,3.186,0,0,1,2.344.841,2.99,2.99,0,0,1,.849,2.224,3.172,3.172,0,0,1-.876,2.361A3.262,3.262,0,0,1,81.37,13.494Zm.047-4.875a1.234,1.234,0,0,0-1.02.451,1.993,1.993,0,0,0-.363,1.278q0,1.728,1.394,1.728,1.331,0,1.331-1.775Q82.759,8.619,81.417,8.619Z" fill="#1e1e1e"/>
      <path d="M91.928,6.486h-2.4v6.862h-1.9V6.486H85.249V4.945h6.679Z" fill="#1e1e1e"/>
      <path d="M101.409,13.348H96.37v-8.4h4.846V6.486H98.262V8.355h2.748V9.891H98.262v1.921h3.147Z" fill="#1e1e1e"/>
      <path d="M108.446,13.348h-1.852v-.827h-.023a2.075,2.075,0,0,1-1.857.973A2.277,2.277,0,0,1,102.9,12.7a3.286,3.286,0,0,1-.686-2.218,3.574,3.574,0,0,1,.756-2.384,2.465,2.465,0,0,1,1.981-.9,1.685,1.685,0,0,1,1.617.832h.023V4.465h1.852ZM106.63,10.43V9.978a1.422,1.422,0,0,0-.34-.972,1.2,1.2,0,0,0-1.846.1,2.252,2.252,0,0,0-.346,1.328,1.945,1.945,0,0,0,.334,1.218,1.186,1.186,0,0,0,1.843-.023A1.882,1.882,0,0,0,106.63,10.43Z" fill="#1e1e1e"/>
      <path d="M115.887,12.662a3.4,3.4,0,0,1-.966,2.587,3.922,3.922,0,0,1-2.8.917,4.432,4.432,0,0,1-1.922-.346V14.262a3.683,3.683,0,0,0,1.869.539,2.014,2.014,0,0,0,1.453-.5,1.779,1.779,0,0,0,.516-1.345v-.475h-.024a2.067,2.067,0,0,1-1.869,1.008,2.246,2.246,0,0,1-1.822-.809,3.279,3.279,0,0,1-.674-2.168A3.65,3.65,0,0,1,110.4,8.1a2.448,2.448,0,0,1,1.975-.9,1.82,1.82,0,0,1,1.64.844h.024v-.7h1.851Zm-1.828-2.2V9.99a1.458,1.458,0,0,0-.337-.97,1.089,1.089,0,0,0-.876-.4,1.13,1.13,0,0,0-.966.481,2.253,2.253,0,0,0-.352,1.353,1.906,1.906,0,0,0,.334,1.187,1.088,1.088,0,0,0,.914.436,1.134,1.134,0,0,0,.929-.442A1.817,1.817,0,0,0,114.059,10.465Z" fill="#1e1e1e"/>
      <path d="M122.825,10.875h-3.914q.093,1.306,1.646,1.307a3.222,3.222,0,0,0,1.741-.469v1.336a4.574,4.574,0,0,1-2.163.445,3.043,3.043,0,0,1-2.255-.806,3.04,3.04,0,0,1-.8-2.247,3.211,3.211,0,0,1,.867-2.367,2.889,2.889,0,0,1,2.133-.873,2.623,2.623,0,0,1,2.03.779,3,3,0,0,1,.718,2.116Zm-1.717-1.137q0-1.288-1.043-1.289a.994.994,0,0,0-.77.369,1.676,1.676,0,0,0-.4.92Z" fill="#1e1e1e"/>
      <path d="M133.108,13.348h-1.851v-.827h-.024a2.075,2.075,0,0,1-1.857.973,2.277,2.277,0,0,1-1.811-.794,3.285,3.285,0,0,1-.685-2.218,3.579,3.579,0,0,1,.755-2.384,2.467,2.467,0,0,1,1.981-.9,1.685,1.685,0,0,1,1.617.832h.024V4.465h1.851Zm-1.816-2.918V9.978a1.422,1.422,0,0,0-.34-.972,1.2,1.2,0,0,0-1.846.1,2.252,2.252,0,0,0-.346,1.328,1.945,1.945,0,0,0,.334,1.218,1.186,1.186,0,0,0,1.843-.023A1.876,1.876,0,0,0,131.292,10.43Z" fill="#1e1e1e"/>
      <path d="M140.057,10.875h-3.914q.094,1.306,1.647,1.307a3.219,3.219,0,0,0,1.74-.469v1.336a4.57,4.57,0,0,1-2.162.445,3.044,3.044,0,0,1-2.256-.806,3.044,3.044,0,0,1-.8-2.247,3.211,3.211,0,0,1,.867-2.367,2.892,2.892,0,0,1,2.133-.873,2.626,2.626,0,0,1,2.031.779,3.005,3.005,0,0,1,.717,2.116Zm-1.716-1.137q0-1.288-1.043-1.289a1,1,0,0,0-.771.369,1.668,1.668,0,0,0-.395.92Z" fill="#1e1e1e"/>
      <path d="M146.872,7.348l-2.233,6H142.53l-2.127-6h1.981l1.042,3.7a5.382,5.382,0,0,1,.206,1.066h.023a6.041,6.041,0,0,1,.217-1.031l1.066-3.732Z" fill="#1e1e1e"/>
      <path d="M148.6,6.4a1.078,1.078,0,0,1-.767-.278.9.9,0,0,1-.3-.683.864.864,0,0,1,.3-.679,1.252,1.252,0,0,1,1.538,0,.868.868,0,0,1,.3.679.9.9,0,0,1-.3.692A1.1,1.1,0,0,1,148.6,6.4Zm.914,6.95h-1.851v-6h1.851Z" fill="#1e1e1e"/>
      <path d="M155.62,13.131a3.666,3.666,0,0,1-1.811.363,3.059,3.059,0,0,1-2.238-.838,2.893,2.893,0,0,1-.855-2.162,3.186,3.186,0,0,1,.917-2.411,3.387,3.387,0,0,1,2.452-.882,3.154,3.154,0,0,1,1.535.281V9.053a2.114,2.114,0,0,0-1.3-.434,1.706,1.706,0,0,0-1.263.466,1.739,1.739,0,0,0-.466,1.286,1.711,1.711,0,0,0,.446,1.251,1.635,1.635,0,0,0,1.224.454,2.44,2.44,0,0,0,1.354-.434Z" fill="#1e1e1e"/>
      <path d="M162.223,10.875h-3.914q.095,1.306,1.647,1.307a3.219,3.219,0,0,0,1.74-.469v1.336a4.57,4.57,0,0,1-2.162.445,3.044,3.044,0,0,1-2.256-.806,3.044,3.044,0,0,1-.8-2.247,3.211,3.211,0,0,1,.867-2.367,2.892,2.892,0,0,1,2.133-.873,2.626,2.626,0,0,1,2.031.779,3.005,3.005,0,0,1,.717,2.116Zm-1.716-1.137q0-1.288-1.043-1.289a1,1,0,0,0-.771.369,1.668,1.668,0,0,0-.4.92Z" fill="#1e1e1e"/>
    </g>
    <g>
      <path d="M107.549,40.253H105.68V35.226q0-.814.07-1.8H105.7a8.736,8.736,0,0,1-.263,1.113l-1.969,5.713h-1.547l-2-5.654a11.106,11.106,0,0,1-.264-1.172H99.6q.076,1.242.076,2.18v4.646H97.975v-8.4h2.771l1.717,4.98a7.04,7.04,0,0,1,.3,1.2h.035a12.224,12.224,0,0,1,.334-1.213l1.717-4.969h2.7Z" fill="#1e1e1e"/>
      <path d="M114.668,37.781h-3.914q.093,1.307,1.646,1.306a3.218,3.218,0,0,0,1.74-.468v1.335a4.567,4.567,0,0,1-2.162.446,2.792,2.792,0,0,1-3.058-3.053,3.211,3.211,0,0,1,.867-2.367,2.889,2.889,0,0,1,2.133-.873,2.624,2.624,0,0,1,2.03.779A3,3,0,0,1,114.668,37Zm-1.717-1.137q0-1.289-1.043-1.289a1,1,0,0,0-.771.369,1.682,1.682,0,0,0-.395.92Z" fill="#1e1e1e"/>
      <path d="M121.64,40.253h-1.851v-.826h-.024a2.075,2.075,0,0,1-1.857.973,2.277,2.277,0,0,1-1.811-.794,3.287,3.287,0,0,1-.685-2.218A3.578,3.578,0,0,1,116.168,35a2.467,2.467,0,0,1,1.98-.9,1.683,1.683,0,0,1,1.617.832h.024V31.371h1.851Zm-1.816-2.918v-.451a1.416,1.416,0,0,0-.34-.972,1.2,1.2,0,0,0-1.846.1,2.248,2.248,0,0,0-.345,1.327,1.939,1.939,0,0,0,.334,1.219,1.185,1.185,0,0,0,1.842-.023A1.879,1.879,0,0,0,119.824,37.335Z" fill="#1e1e1e"/>
      <path d="M124.136,33.3a1.083,1.083,0,0,1-.767-.278.9.9,0,0,1-.3-.683.867.867,0,0,1,.3-.68,1.256,1.256,0,0,1,1.538,0,.871.871,0,0,1,.3.68.9.9,0,0,1-.3.692A1.1,1.1,0,0,1,124.136,33.3Zm.914,6.949H123.2v-6h1.851Z" fill="#1e1e1e"/>
      <path d="M131.6,40.253h-1.752v-.861h-.023a1.955,1.955,0,0,1-1.787,1.008,1.87,1.87,0,0,1-1.374-.495,1.775,1.775,0,0,1-.5-1.322q0-1.746,2.068-2.015l1.629-.217q0-.984-1.066-.984a3.636,3.636,0,0,0-2.039.638V34.611a4.582,4.582,0,0,1,1.057-.352,5.594,5.594,0,0,1,1.222-.152,2.265,2.265,0,0,1,2.566,2.56Zm-1.74-2.437v-.4l-1.09.14q-.9.117-.9.815a.671.671,0,0,0,.22.518.84.84,0,0,0,.594.2,1.1,1.1,0,0,0,.85-.36A1.3,1.3,0,0,0,129.861,37.816Z" fill="#1e1e1e"/>
      <path d="M143.455,39.691a6.056,6.056,0,0,1-3.059.709,4.423,4.423,0,0,1-3.2-1.122,4.084,4.084,0,0,1-1.169-3.091,4.318,4.318,0,0,1,1.277-3.229,4.656,4.656,0,0,1,3.4-1.248,6.9,6.9,0,0,1,2.355.369v1.776a4.68,4.68,0,0,0-2.379-.563,2.555,2.555,0,0,0-1.919.765,3.264,3.264,0,0,0-.076,4.046,2.344,2.344,0,0,0,1.8.709,2.512,2.512,0,0,0,1.078-.193V36.978h-1.681V35.466h3.574Z" fill="#1e1e1e"/>
      <path d="M148.822,35.923a1.606,1.606,0,0,0-.779-.181,1.123,1.123,0,0,0-.944.442,1.933,1.933,0,0,0-.34,1.2v2.865h-1.851v-6h1.851v1.114h.024a1.6,1.6,0,0,1,1.582-1.219,1.19,1.19,0,0,1,.457.07Z" fill="#1e1e1e"/>
      <path d="M154.675,40.253h-1.751v-.861H152.9a1.955,1.955,0,0,1-1.787,1.008,1.87,1.87,0,0,1-1.374-.495,1.775,1.775,0,0,1-.5-1.322q0-1.746,2.068-2.015l1.629-.217q0-.984-1.066-.984a3.636,3.636,0,0,0-2.039.638V34.611a4.6,4.6,0,0,1,1.057-.352,5.6,5.6,0,0,1,1.222-.152,2.265,2.265,0,0,1,2.566,2.56Zm-1.74-2.437v-.4l-1.09.14q-.9.117-.9.815a.671.671,0,0,0,.22.518.843.843,0,0,0,.595.2,1.1,1.1,0,0,0,.849-.36A1.3,1.3,0,0,0,152.935,37.816Z" fill="#1e1e1e"/>
      <path d="M158.015,39.556h-.023v3.457H156.14v-8.76h1.852v.9h.023a2.356,2.356,0,0,1,3.73-.249,3.4,3.4,0,0,1,.636,2.176,3.69,3.69,0,0,1-.742,2.409,2.417,2.417,0,0,1-1.971.908A1.868,1.868,0,0,1,158.015,39.556Zm-.052-2.461v.481a1.523,1.523,0,0,0,.328,1.013,1.067,1.067,0,0,0,.861.393,1.137,1.137,0,0,0,.982-.489,2.37,2.37,0,0,0,.348-1.386q0-1.582-1.23-1.582a1.155,1.155,0,0,0-.929.43A1.721,1.721,0,0,0,157.963,37.1Z" fill="#1e1e1e"/>
      <path d="M169.342,40.253H167.5v-3.41q0-1.319-.961-1.318a.984.984,0,0,0-.8.369,1.425,1.425,0,0,0-.305.937v3.422h-1.851V31.371h1.851v3.773h.024a2.1,2.1,0,0,1,1.845-1.037q2.04,0,2.04,2.461Z" fill="#1e1e1e"/>
    </g>
  </g>
</svg>
