<svg xmlns="http://www.w3.org/2000/svg" xmlns:xlink="http://www.w3.org/1999/xlink" viewBox="0 0 583 194">
  <defs>
    <linearGradient id="linear-gradient" x1="17.921" y1="5" x2="17.921" y2="33" gradientUnits="userSpaceOnUse">
      <stop offset="0.131" stop-color="#32d4f5"/>
      <stop offset="0.404" stop-color="#28b7db"/>
      <stop offset="1" stop-color="#198ab3"/>
    </linearGradient>
    <linearGradient id="linear-gradient-2" x1="27.224" y1="27.141" x2="27.224" y2="28.396" xlink:href="#linear-gradient"/>
    <linearGradient id="linear-gradient-3" x1="27.224" y1="29.307" x2="27.224" y2="30.563" xlink:href="#linear-gradient"/>
    <linearGradient id="linear-gradient-4" x1="502.614" y1="88.133" x2="502.614" y2="131.633" gradientUnits="userSpaceOnUse">
      <stop offset="0" stop-color="#5ea0ef"/>
      <stop offset="0.18" stop-color="#559cec"/>
      <stop offset="0.47" stop-color="#3c91e5"/>
      <stop offset="0.84" stop-color="#1380da"/>
      <stop offset="1" stop-color="#0078d4"/>
    </linearGradient>
  </defs>
  <g id="Shapes">
    <rect width="583" height="194" fill="#fff"/>
    <g>
      <rect x="17.835" y="26.2" width="387.2" height="162.8" fill="#fff"/>
      <rect x="17.835" y="26.2" width="387.2" height="162.8" fill="#198ab3" opacity="0.3"/>
    </g>
    <g>
      <path d="M29.634,24.764H17.655l.281-1.128h7.473a5.616,5.616,0,0,0,2.468-10.665,6.475,6.475,0,0,0,.147-1.372A6.65,6.65,0,0,0,15.71,8.166,5.05,5.05,0,0,0,7.8,12.273a5.138,5.138,0,0,0,.058.763,5.607,5.607,0,0,0,2.57,10.6h6.88l-.281,1.128H6.208a.908.908,0,0,0-.905.91V32.09a.908.908,0,0,0,.905.91H29.634a.908.908,0,0,0,.9-.91V25.673A.907.907,0,0,0,29.634,24.764Zm-19.2-2.674a4.061,4.061,0,0,1-1.416-7.877l.674-.253-.206-.7a3.529,3.529,0,0,1-.142-.992,3.508,3.508,0,0,1,6.05-2.355l.813.863.455-1.1A5.112,5.112,0,0,1,26.486,11.6a5.021,5.021,0,0,1-.26,1.584l-.245.736.734.244A4.044,4.044,0,0,1,29.5,18.012a4.086,4.086,0,0,1-4.088,4.076H18.321l1.062-4.264.052-.305.3-.067a2.371,2.371,0,0,0,.835-.368l.308-.215,2.376,2.3-.062.256a1.474,1.474,0,0,0,.059.88,1.459,1.459,0,0,0,1.367.939,1.4,1.4,0,0,0,.533-.1,1.481,1.481,0,0,0,.835-1.913,1.463,1.463,0,0,0-1.9-.838.631.631,0,0,0-.06.032l-.072.039-.29.151-2.365-2.289.121-.29a2.4,2.4,0,0,0-2.2-3.316,2.364,2.364,0,0,0-1.641.663l-.257.249-1.572-.985.025-.281a1.488,1.488,0,0,0-.089-.664,1.463,1.463,0,0,0-1.368-.94,1.448,1.448,0,0,0-.534.1,1.483,1.483,0,0,0-.834,1.914,1.461,1.461,0,0,0,1.369.938,1.4,1.4,0,0,0,.856-.286l.248-.181,1.562.979-.078.323a2.334,2.334,0,0,0,.048,1.314l.112.341-2.529,1.6-.238-.14a1.17,1.17,0,0,0-1.029-.083,1.2,1.2,0,0,0-.673,1.547,1.181,1.181,0,0,0,1.1.758,1.18,1.18,0,0,0,1.18-1.225l-.006-.261,2.583-1.634.255.21a2.377,2.377,0,0,0,.734.408l.367.127-.063.377L17.7,22.09ZM29,31.455H6.841V26.311h9.8l-.155.623a1.952,1.952,0,1,0,.6.087l.178-.71H29Z" fill="url(#linear-gradient)"/>
      <path d="M27.848,27.141H26.6V28.4h1.248Z" fill="url(#linear-gradient-2)"/>
      <path d="M27.848,29.307H26.6v1.256h1.248Z" fill="url(#linear-gradient-3)"/>
    </g>
    <g>
      <line x1="171.915" y1="109.8" x2="223.733" y2="109.8" fill="none" stroke="#3c3c41" stroke-miterlimit="10"/>
      <polygon points="222.639 113.54 229.115 109.8 222.639 106.06 222.639 113.54" fill="#3c3c41"/>
    </g>
    <g>
      <line x1="369.835" y1="109.883" x2="421.652" y2="109.883" fill="none" stroke="#3c3c41" stroke-miterlimit="10"/>
      <polygon points="420.558 113.623 427.035 109.883 420.558 106.144 420.558 113.623" fill="#3c3c41"/>
    </g>
    <g>
      <rect x="25.789" y="43.8" width="151.399" height="35.2" fill="#fff"/>
      <g opacity="0.65">
        <path d="M177.038,43.95v34.9H25.939V43.95h151.1m.15-.15H25.789V79h151.4V43.8Z" fill="#505150"/>
      </g>
    </g>
    <g>
      <rect x="25.789" y="92.2" width="151.399" height="35.2" fill="#fff"/>
      <g opacity="0.65">
        <path d="M177.038,92.35v34.9H25.939V92.35h151.1m.15-.15H25.789v35.2h151.4V92.2Z" fill="#505150"/>
      </g>
    </g>
    <g>
      <rect x="229.035" y="87.883" width="162.72" height="44" fill="#fff"/>
      <g opacity="0.65">
        <path d="M391.6,88.033v43.7H229.185v-43.7H391.6m.15-.15H229.035v44H391.754v-44Z" fill="#505150"/>
      </g>
    </g>
    <g>
      <rect x="25.789" y="140.6" width="151.399" height="35.2" fill="#fff"/>
      <g opacity="0.65">
        <path d="M177.038,140.75v34.9H25.939v-34.9h151.1m.15-.15H25.789v35.2h151.4V140.6Z" fill="#505150"/>
      </g>
    </g>
    <path d="M177.188,61.4h16.671a5.015,5.015,0,0,1,5,5v86.8a5.015,5.015,0,0,1-5,5H177.188" fill="none" stroke="#3c3c41" stroke-miterlimit="10"/>
    <g>
      <rect x="427.035" y="88.133" width="151.159" height="43.5" fill="#fff"/>
      <rect x="427.035" y="88.133" width="151.159" height="43.5" opacity="0.4" fill="url(#linear-gradient-4)"/>
    </g>
  </g>
  <g id="Text">
    <g>
      <path d="M42.894,66.3H41.773V65.2h-.028a2.348,2.348,0,0,1-2.153,1.258,2.3,2.3,0,0,1-1.637-.554,1.92,1.92,0,0,1-.592-1.47q0-1.962,2.311-2.283l2.1-.294q0-1.783-1.443-1.784a3.446,3.446,0,0,0-2.283.861V59.79a4.334,4.334,0,0,1,2.379-.657q2.467,0,2.468,2.612Zm-1.121-3.541-1.689.232a2.757,2.757,0,0,0-1.176.386,1.116,1.116,0,0,0-.4.981,1.07,1.07,0,0,0,.366.838,1.413,1.413,0,0,0,.974.324,1.8,1.8,0,0,0,1.377-.584,2.091,2.091,0,0,0,.544-1.48Z" fill="#1e1e1e"/>
      <path d="M49.887,59.619l-4.143,5.722h4.1V66.3H44.1v-.349l4.142-5.694H44.486V59.3h5.4Z" fill="#1e1e1e"/>
      <path d="M57,66.3H55.875V65.19h-.027a2.3,2.3,0,0,1-2.16,1.272q-2.5,0-2.5-2.981V59.3H52.3v4q0,2.216,1.7,2.215a1.712,1.712,0,0,0,1.35-.605,2.313,2.313,0,0,0,.53-1.582V59.3H57Z" fill="#1e1e1e"/>
      <path d="M62.909,60.432a1.37,1.37,0,0,0-.847-.225,1.43,1.43,0,0,0-1.2.676,3.134,3.134,0,0,0-.482,1.846V66.3H59.259v-7H60.38V60.74h.027a2.453,2.453,0,0,1,.732-1.152,1.665,1.665,0,0,1,1.1-.413,1.824,1.824,0,0,1,.67.1Z" fill="#1e1e1e"/>
      <path d="M69.752,63.078H64.81a2.619,2.619,0,0,0,.629,1.8,2.17,2.17,0,0,0,1.654.635,3.442,3.442,0,0,0,2.174-.779v1.053a4.068,4.068,0,0,1-2.441.67,2.959,2.959,0,0,1-2.331-.954,3.9,3.9,0,0,1-.847-2.683,3.827,3.827,0,0,1,.926-2.663,2.97,2.97,0,0,1,2.3-1.029A2.633,2.633,0,0,1,69,60.022a3.7,3.7,0,0,1,.752,2.468Zm-1.148-.95a2.282,2.282,0,0,0-.469-1.511,1.593,1.593,0,0,0-1.281-.54,1.811,1.811,0,0,0-1.347.567,2.582,2.582,0,0,0-.684,1.484Z" fill="#1e1e1e"/>
      <path d="M75.029,62.839H71.3v-.882h3.732Z" fill="#1e1e1e"/>
      <path d="M82.549,59.3l-2.789,7h-1.1l-2.652-7h1.23l1.778,5.085a4.587,4.587,0,0,1,.246.978h.027a4.671,4.671,0,0,1,.219-.95L81.366,59.3Z" fill="#1e1e1e"/>
      <path d="M84.326,57.52a.708.708,0,0,1-.512-.205A.693.693,0,0,1,83.6,56.8a.719.719,0,0,1,.724-.732.72.72,0,0,1,.523.209.728.728,0,0,1,0,1.035A.718.718,0,0,1,84.326,57.52Zm.547,8.778H83.752v-7h1.121Z" fill="#1e1e1e"/>
      <path d="M93.117,66.3H92v-1.19h-.027a2.824,2.824,0,0,1-4.515.414,3.853,3.853,0,0,1-.79-2.56,4.2,4.2,0,0,1,.875-2.783,2.889,2.889,0,0,1,2.331-1.046,2.246,2.246,0,0,1,2.1,1.135H92V55.934h1.121ZM92,63.133V62.1a2,2,0,0,0-.56-1.435,1.881,1.881,0,0,0-1.422-.588,1.933,1.933,0,0,0-1.613.752,3.288,3.288,0,0,0-.588,2.078,2.965,2.965,0,0,0,.564,1.911,1.842,1.842,0,0,0,1.514.7,1.916,1.916,0,0,0,1.521-.676A2.526,2.526,0,0,0,92,63.133Z" fill="#1e1e1e"/>
      <path d="M101.013,63.078H96.07a2.629,2.629,0,0,0,.629,1.8,2.172,2.172,0,0,0,1.655.635,3.444,3.444,0,0,0,2.174-.779v1.053a4.07,4.07,0,0,1-2.441.67,2.958,2.958,0,0,1-2.331-.954,3.9,3.9,0,0,1-.848-2.683,3.827,3.827,0,0,1,.927-2.663,2.968,2.968,0,0,1,2.3-1.029,2.634,2.634,0,0,1,2.126.889,3.706,3.706,0,0,1,.752,2.468Zm-1.149-.95a2.277,2.277,0,0,0-.468-1.511,1.6,1.6,0,0,0-1.282-.54,1.811,1.811,0,0,0-1.346.567,2.582,2.582,0,0,0-.684,1.484Z" fill="#1e1e1e"/>
      <path d="M105.634,66.462a3.25,3.25,0,0,1-2.478-.981,3.631,3.631,0,0,1-.926-2.6,3.782,3.782,0,0,1,.964-2.755,3.463,3.463,0,0,1,2.6-.992,3.143,3.143,0,0,1,2.444.964,3.826,3.826,0,0,1,.878,2.673,3.76,3.76,0,0,1-.946,2.683A3.317,3.317,0,0,1,105.634,66.462Zm.082-6.385a2.132,2.132,0,0,0-1.709.735,3.017,3.017,0,0,0-.629,2.027,2.851,2.851,0,0,0,.636,1.961,2.159,2.159,0,0,0,1.7.718,2.048,2.048,0,0,0,1.671-.7,3.053,3.053,0,0,0,.585-2,3.1,3.1,0,0,0-.585-2.023A2.038,2.038,0,0,0,105.716,60.077Z" fill="#1e1e1e"/>
      <path d="M114.493,62.839h-3.732v-.882h3.732Z" fill="#1e1e1e"/>
      <path d="M121.521,66.3H120.4V65.2h-.028a2.348,2.348,0,0,1-2.153,1.258,2.3,2.3,0,0,1-1.637-.554,1.92,1.92,0,0,1-.592-1.47q0-1.962,2.311-2.283l2.1-.294q0-1.783-1.443-1.784a3.446,3.446,0,0,0-2.283.861V59.79a4.334,4.334,0,0,1,2.379-.657q2.468,0,2.468,2.612ZM120.4,62.757l-1.689.232a2.753,2.753,0,0,0-1.176.386,1.116,1.116,0,0,0-.4.981,1.07,1.07,0,0,0,.366.838,1.413,1.413,0,0,0,.974.324,1.8,1.8,0,0,0,1.377-.584,2.091,2.091,0,0,0,.544-1.48Z" fill="#1e1e1e"/>
      <path d="M129.444,66.3h-1.122V62.305q0-2.227-1.627-2.228a1.767,1.767,0,0,0-1.391.632,2.349,2.349,0,0,0-.55,1.6V66.3h-1.121v-7h1.121V60.46h.027a2.527,2.527,0,0,1,2.3-1.327,2.144,2.144,0,0,1,1.757.742,3.3,3.3,0,0,1,.609,2.143Z" fill="#1e1e1e"/>
      <path d="M136.567,66.3h-1.122V65.2h-.027a2.348,2.348,0,0,1-2.153,1.258,2.3,2.3,0,0,1-1.637-.554,1.92,1.92,0,0,1-.592-1.47q0-1.962,2.311-2.283l2.1-.294q0-1.783-1.442-1.784a3.446,3.446,0,0,0-2.283.861V59.79a4.334,4.334,0,0,1,2.379-.657q2.468,0,2.468,2.612Zm-1.122-3.541-1.688.232a2.748,2.748,0,0,0-1.176.386,1.116,1.116,0,0,0-.4.981,1.072,1.072,0,0,0,.365.838,1.417,1.417,0,0,0,.975.324,1.8,1.8,0,0,0,1.377-.584,2.09,2.09,0,0,0,.543-1.48Z" fill="#1e1e1e"/>
      <path d="M139.8,66.3h-1.121V55.934H139.8Z" fill="#1e1e1e"/>
      <path d="M147.641,59.3l-3.22,8.121q-.861,2.174-2.42,2.173a2.572,2.572,0,0,1-.731-.088V68.5a2.073,2.073,0,0,0,.663.123A1.374,1.374,0,0,0,143.2,67.61l.561-1.326L141.03,59.3h1.245l1.893,5.386c.023.069.071.246.144.533h.041q.034-.163.136-.519l1.99-5.4Z" fill="#1e1e1e"/>
      <path d="M153.725,59.619l-4.143,5.722h4.1V66.3h-5.749v-.349l4.142-5.694h-3.753V59.3h5.4Z" fill="#1e1e1e"/>
      <path d="M160.8,63.078h-4.942a2.623,2.623,0,0,0,.628,1.8,2.172,2.172,0,0,0,1.655.635,3.444,3.444,0,0,0,2.174-.779v1.053a4.07,4.07,0,0,1-2.441.67,2.958,2.958,0,0,1-2.331-.954,3.9,3.9,0,0,1-.848-2.683,3.827,3.827,0,0,1,.927-2.663,2.968,2.968,0,0,1,2.3-1.029,2.633,2.633,0,0,1,2.126.889,3.706,3.706,0,0,1,.752,2.468Zm-1.148-.95a2.282,2.282,0,0,0-.469-1.511,1.594,1.594,0,0,0-1.281-.54,1.811,1.811,0,0,0-1.347.567,2.582,2.582,0,0,0-.684,1.484Z" fill="#1e1e1e"/>
      <path d="M166.146,60.432a1.375,1.375,0,0,0-.848-.225,1.432,1.432,0,0,0-1.2.676,3.134,3.134,0,0,0-.482,1.846V66.3H162.5v-7h1.121V60.74h.028a2.444,2.444,0,0,1,.731-1.152,1.666,1.666,0,0,1,1.1-.413,1.831,1.831,0,0,1,.67.1Z" fill="#1e1e1e"/>
    </g>
    <g>
      <path d="M79.637,112.093H74.695a2.622,2.622,0,0,0,.628,1.8,2.169,2.169,0,0,0,1.655.636,3.444,3.444,0,0,0,2.174-.779v1.052a4.063,4.063,0,0,1-2.441.67,2.96,2.96,0,0,1-2.331-.953,3.906,3.906,0,0,1-.848-2.683,3.826,3.826,0,0,1,.927-2.663,2.968,2.968,0,0,1,2.3-1.029,2.634,2.634,0,0,1,2.126.889,3.706,3.706,0,0,1,.752,2.468Zm-1.149-.95a2.272,2.272,0,0,0-.468-1.51,1.6,1.6,0,0,0-1.282-.541,1.808,1.808,0,0,0-1.346.568,2.576,2.576,0,0,0-.684,1.483Z" fill="#1e1e1e"/>
      <path d="M87.307,115.313H86.186v-1.189h-.028a2.587,2.587,0,0,1-2.406,1.353,2.615,2.615,0,0,1-2.109-.94,3.857,3.857,0,0,1-.789-2.56,4.191,4.191,0,0,1,.875-2.782,2.886,2.886,0,0,1,2.331-1.046,2.244,2.244,0,0,1,2.1,1.135h.028V104.95h1.121Zm-1.121-3.165v-1.032a2,2,0,0,0-.561-1.436,1.878,1.878,0,0,0-1.422-.588,1.937,1.937,0,0,0-1.613.752A3.3,3.3,0,0,0,82,111.923a2.963,2.963,0,0,0,.564,1.91,1.844,1.844,0,0,0,1.514.7,1.914,1.914,0,0,0,1.521-.677A2.52,2.52,0,0,0,86.186,112.148Z" fill="#1e1e1e"/>
      <path d="M95.551,114.753q0,3.855-3.691,3.855a4.959,4.959,0,0,1-2.27-.492V117a4.67,4.67,0,0,0,2.256.656q2.584,0,2.584-2.748v-.766H94.4a2.833,2.833,0,0,1-4.509.407,3.729,3.729,0,0,1-.8-2.5,4.357,4.357,0,0,1,.858-2.837,2.865,2.865,0,0,1,2.348-1.053,2.284,2.284,0,0,1,2.1,1.135h.027v-.971h1.121Zm-1.121-2.605v-1.032a2,2,0,0,0-.564-1.429,1.858,1.858,0,0,0-1.405-.595,1.946,1.946,0,0,0-1.627.756,3.371,3.371,0,0,0-.588,2.116,2.893,2.893,0,0,0,.564,1.869,1.823,1.823,0,0,0,1.494.7,1.95,1.95,0,0,0,1.535-.67A2.5,2.5,0,0,0,94.43,112.148Z" fill="#1e1e1e"/>
      <path d="M103.446,112.093H98.5a2.617,2.617,0,0,0,.629,1.8,2.168,2.168,0,0,0,1.654.636,3.442,3.442,0,0,0,2.174-.779v1.052a4.06,4.06,0,0,1-2.44.67,2.96,2.96,0,0,1-2.331-.953,3.906,3.906,0,0,1-.848-2.683,3.83,3.83,0,0,1,.926-2.663,2.972,2.972,0,0,1,2.3-1.029,2.634,2.634,0,0,1,2.126.889,3.706,3.706,0,0,1,.751,2.468Zm-1.148-.95a2.277,2.277,0,0,0-.468-1.51,1.6,1.6,0,0,0-1.282-.541,1.809,1.809,0,0,0-1.347.568,2.569,2.569,0,0,0-.683,1.483Z" fill="#1e1e1e"/>
      <path d="M112.661,115.313h-1.148v-4.471h-5.072v4.471h-1.149v-9.8h1.149v4.3h5.072v-4.3h1.148Z" fill="#1e1e1e"/>
      <path d="M120.741,115.313H119.62v-1.107h-.027a2.3,2.3,0,0,1-2.16,1.271q-2.5,0-2.5-2.98v-4.184h1.114v4.006q0,2.216,1.695,2.215a1.715,1.715,0,0,0,1.35-.605,2.311,2.311,0,0,0,.53-1.583v-4.033h1.121Z" fill="#1e1e1e"/>
      <path d="M124.153,114.3h-.028v1.012H123V104.95h1.121v4.594h.028a2.649,2.649,0,0,1,2.419-1.395,2.567,2.567,0,0,1,2.109.94,3.877,3.877,0,0,1,.763,2.519,4.337,4.337,0,0,1-.855,2.813,2.846,2.846,0,0,1-2.338,1.056A2.3,2.3,0,0,1,124.153,114.3Zm-.028-2.823v.978a2.082,2.082,0,0,0,.564,1.473,2.012,2.012,0,0,0,3.028-.174,3.57,3.57,0,0,0,.578-2.167,2.819,2.819,0,0,0-.54-1.832,1.789,1.789,0,0,0-1.463-.664,1.984,1.984,0,0,0-1.572.681A2.494,2.494,0,0,0,124.125,111.478Z" fill="#1e1e1e"/>
    </g>
    <g>
      <path d="M248.03,107.5h-1.121v-1.094h-.027a2.348,2.348,0,0,1-2.154,1.258,2.3,2.3,0,0,1-1.637-.553,1.92,1.92,0,0,1-.591-1.47q0-1.962,2.31-2.283l2.1-.294q0-1.785-1.443-1.785a3.451,3.451,0,0,0-2.283.862v-1.149a4.346,4.346,0,0,1,2.379-.656q2.469,0,2.468,2.611Zm-1.121-3.541-1.689.233a2.721,2.721,0,0,0-1.175.386,1.115,1.115,0,0,0-.4.981,1.066,1.066,0,0,0,.366.837,1.415,1.415,0,0,0,.974.325,1.8,1.8,0,0,0,1.378-.585,2.087,2.087,0,0,0,.543-1.48Z" fill="#1e1e1e"/>
      <path d="M255.023,100.822l-4.142,5.722h4.1v.957h-5.749v-.348l4.143-5.7h-3.753V100.5h5.4Z" fill="#1e1e1e"/>
      <path d="M262.132,107.5h-1.121v-1.107h-.027a2.3,2.3,0,0,1-2.16,1.271q-2.5,0-2.5-2.98V100.5h1.114v4.006q0,2.215,1.7,2.215a1.717,1.717,0,0,0,1.35-.6,2.315,2.315,0,0,0,.529-1.583V100.5h1.121Z" fill="#1e1e1e"/>
      <path d="M268.046,101.636a1.375,1.375,0,0,0-.848-.226,1.429,1.429,0,0,0-1.2.677,3.125,3.125,0,0,0-.483,1.846V107.5H264.4v-7h1.121v1.443h.028a2.446,2.446,0,0,1,.731-1.152,1.667,1.667,0,0,1,1.1-.414,1.824,1.824,0,0,1,.67.1Z" fill="#1e1e1e"/>
      <path d="M274.888,104.281h-4.942a2.622,2.622,0,0,0,.629,1.8,2.168,2.168,0,0,0,1.654.636,3.44,3.44,0,0,0,2.174-.779V107a4.06,4.06,0,0,1-2.44.67,2.96,2.96,0,0,1-2.331-.953,3.906,3.906,0,0,1-.848-2.683,3.821,3.821,0,0,1,.927-2.663,2.966,2.966,0,0,1,2.3-1.029,2.63,2.63,0,0,1,2.126.889,3.7,3.7,0,0,1,.752,2.468Zm-1.148-.95a2.272,2.272,0,0,0-.468-1.51,1.6,1.6,0,0,0-1.282-.541,1.81,1.81,0,0,0-1.347.568,2.575,2.575,0,0,0-.683,1.483Z" fill="#1e1e1e"/>
      <path d="M277.158,98.724a.716.716,0,0,1-.513-.2.7.7,0,0,1-.212-.52.717.717,0,0,1,.725-.731.723.723,0,0,1,.523.208.731.731,0,0,1,0,1.036A.718.718,0,0,1,277.158,98.724Zm.547,8.777h-1.121v-7h1.121Z" fill="#1e1e1e"/>
      <path d="M282.9,107.665a3.245,3.245,0,0,1-2.477-.981,3.627,3.627,0,0,1-.927-2.6,3.784,3.784,0,0,1,.964-2.755,3.466,3.466,0,0,1,2.6-.991,3.137,3.137,0,0,1,2.444.964,3.826,3.826,0,0,1,.878,2.673,3.76,3.76,0,0,1-.946,2.683A3.319,3.319,0,0,1,282.9,107.665Zm.082-6.385a2.136,2.136,0,0,0-1.709.735,3.021,3.021,0,0,0-.629,2.027A2.852,2.852,0,0,0,281.28,106a2.159,2.159,0,0,0,1.7.718,2.052,2.052,0,0,0,1.672-.7,3.053,3.053,0,0,0,.584-2,3.109,3.109,0,0,0-.584-2.024A2.042,2.042,0,0,0,282.982,101.28Z" fill="#1e1e1e"/>
      <path d="M291.424,107.433a2.152,2.152,0,0,1-1.045.219q-1.839,0-1.839-2.051v-4.143h-1.2V100.5h1.2V98.792l1.121-.362V100.5h1.763v.957h-1.763V105.4a1.636,1.636,0,0,0,.239,1,.954.954,0,0,0,.793.3,1.176,1.176,0,0,0,.731-.232Z" fill="#1e1e1e"/>
      <path d="M298.548,104.281h-4.943a2.627,2.627,0,0,0,.629,1.8,2.168,2.168,0,0,0,1.654.636,3.44,3.44,0,0,0,2.174-.779V107a4.06,4.06,0,0,1-2.44.67,2.96,2.96,0,0,1-2.331-.953,3.906,3.906,0,0,1-.848-2.683,3.826,3.826,0,0,1,.927-2.663,2.968,2.968,0,0,1,2.3-1.029,2.63,2.63,0,0,1,2.126.889,3.7,3.7,0,0,1,.752,2.468Zm-1.149-.95a2.272,2.272,0,0,0-.468-1.51,1.6,1.6,0,0,0-1.282-.541,1.812,1.812,0,0,0-1.347.568,2.575,2.575,0,0,0-.683,1.483Z" fill="#1e1e1e"/>
      <path d="M306.217,107.5H305.1v-1.189h-.027a2.588,2.588,0,0,1-2.406,1.353,2.615,2.615,0,0,1-2.109-.94,3.857,3.857,0,0,1-.79-2.56,4.2,4.2,0,0,1,.875-2.782,2.889,2.889,0,0,1,2.331-1.046,2.245,2.245,0,0,1,2.1,1.135h.027V97.138h1.121Zm-1.121-3.165V103.3a2,2,0,0,0-.56-1.436,1.879,1.879,0,0,0-1.422-.588,1.936,1.936,0,0,0-1.613.752,3.3,3.3,0,0,0-.588,2.079,2.963,2.963,0,0,0,.564,1.91,1.844,1.844,0,0,0,1.514.7,1.914,1.914,0,0,0,1.521-.677A2.519,2.519,0,0,0,305.1,104.336Z" fill="#1e1e1e"/>
      <path d="M314.462,106.941q0,3.855-3.692,3.855a4.958,4.958,0,0,1-2.269-.492v-1.121a4.67,4.67,0,0,0,2.256.656q2.583,0,2.583-2.748v-.766h-.027a2.832,2.832,0,0,1-4.508.407,3.729,3.729,0,0,1-.8-2.5,4.358,4.358,0,0,1,.859-2.837,2.863,2.863,0,0,1,2.348-1.053,2.281,2.281,0,0,1,2.1,1.135h.027V100.5h1.122Zm-1.122-2.605V103.3a2,2,0,0,0-.563-1.429,1.86,1.86,0,0,0-1.4-.595,1.946,1.946,0,0,0-1.627.756,3.371,3.371,0,0,0-.588,2.116,2.893,2.893,0,0,0,.564,1.869,1.823,1.823,0,0,0,1.494.7,1.953,1.953,0,0,0,1.535-.67A2.5,2.5,0,0,0,313.34,104.336Z" fill="#1e1e1e"/>
      <path d="M322.357,104.281h-4.942a2.617,2.617,0,0,0,.629,1.8,2.168,2.168,0,0,0,1.654.636,3.44,3.44,0,0,0,2.174-.779V107a4.061,4.061,0,0,1-2.441.67,2.963,2.963,0,0,1-2.331-.953,3.91,3.91,0,0,1-.847-2.683,3.825,3.825,0,0,1,.926-2.663,2.97,2.97,0,0,1,2.3-1.029,2.63,2.63,0,0,1,2.126.889,3.7,3.7,0,0,1,.752,2.468Zm-1.148-.95a2.272,2.272,0,0,0-.468-1.51,1.6,1.6,0,0,0-1.282-.541,1.809,1.809,0,0,0-1.347.568,2.576,2.576,0,0,0-.684,1.483Z" fill="#1e1e1e"/>
      <path d="M327.634,104.042H323.9v-.882h3.732Z" fill="#1e1e1e"/>
      <path d="M339.59,107.5h-1.121v-4.019a3.036,3.036,0,0,0-.358-1.682,1.363,1.363,0,0,0-1.207-.52,1.493,1.493,0,0,0-1.22.657,2.508,2.508,0,0,0-.5,1.572V107.5H334.06v-4.156q0-2.065-1.593-2.065a1.476,1.476,0,0,0-1.216.619,2.559,2.559,0,0,0-.479,1.61V107.5h-1.121v-7h1.121v1.108h.027a2.38,2.38,0,0,1,2.174-1.272,2.024,2.024,0,0,1,1.983,1.449,2.5,2.5,0,0,1,2.324-1.449q2.312,0,2.31,2.851Z" fill="#1e1e1e"/>
      <path d="M347.336,104.281h-4.943a2.627,2.627,0,0,0,.629,1.8,2.17,2.17,0,0,0,1.654.636,3.44,3.44,0,0,0,2.174-.779V107a4.058,4.058,0,0,1-2.44.67,2.962,2.962,0,0,1-2.331-.953,3.906,3.906,0,0,1-.848-2.683,3.826,3.826,0,0,1,.927-2.663,2.968,2.968,0,0,1,2.3-1.029,2.63,2.63,0,0,1,2.126.889,3.7,3.7,0,0,1,.752,2.468Zm-1.149-.95a2.272,2.272,0,0,0-.468-1.51,1.6,1.6,0,0,0-1.282-.541,1.812,1.812,0,0,0-1.347.568,2.575,2.575,0,0,0-.683,1.483Z" fill="#1e1e1e"/>
      <path d="M352.278,107.433a2.156,2.156,0,0,1-1.046.219q-1.838,0-1.839-2.051v-4.143h-1.2V100.5h1.2V98.792l1.121-.362V100.5h1.764v.957h-1.764V105.4a1.628,1.628,0,0,0,.24,1,.953.953,0,0,0,.793.3,1.176,1.176,0,0,0,.731-.232Z" fill="#1e1e1e"/>
      <path d="M357.425,101.636a1.37,1.37,0,0,0-.847-.226,1.429,1.429,0,0,0-1.2.677,3.125,3.125,0,0,0-.483,1.846V107.5h-1.121v-7H354.9v1.443h.028a2.446,2.446,0,0,1,.731-1.152,1.667,1.667,0,0,1,1.1-.414,1.815,1.815,0,0,1,.669.1Z" fill="#1e1e1e"/>
      <path d="M359.216,98.724a.712.712,0,0,1-.512-.2.694.694,0,0,1-.212-.52.717.717,0,0,1,.724-.731.725.725,0,0,1,.524.208.731.731,0,0,1,0,1.036A.721.721,0,0,1,359.216,98.724Zm.547,8.777h-1.121v-7h1.121Z" fill="#1e1e1e"/>
      <path d="M366.8,107.18a3.635,3.635,0,0,1-1.914.485,3.166,3.166,0,0,1-2.416-.974,3.529,3.529,0,0,1-.92-2.526,3.882,3.882,0,0,1,.992-2.779,3.47,3.47,0,0,1,2.645-1.049,3.68,3.68,0,0,1,1.627.342v1.148a2.852,2.852,0,0,0-1.668-.547,2.254,2.254,0,0,0-1.76.77,2.917,2.917,0,0,0-.687,2.02,2.781,2.781,0,0,0,.646,1.941,2.227,2.227,0,0,0,1.733.711,2.8,2.8,0,0,0,1.722-.609Z" fill="#1e1e1e"/>
      <path d="M368.076,107.248v-1.2a3.32,3.32,0,0,0,2.016.677q1.478,0,1.477-.984a.857.857,0,0,0-.126-.476,1.273,1.273,0,0,0-.342-.345,2.634,2.634,0,0,0-.506-.27c-.194-.079-.4-.163-.626-.249a7.9,7.9,0,0,1-.816-.373,2.456,2.456,0,0,1-.588-.424,1.568,1.568,0,0,1-.355-.536,1.894,1.894,0,0,1-.12-.7,1.675,1.675,0,0,1,.225-.872,2.006,2.006,0,0,1,.6-.636,2.8,2.8,0,0,1,.858-.386,3.823,3.823,0,0,1,.994-.13,4.006,4.006,0,0,1,1.627.315v1.134a3.169,3.169,0,0,0-1.777-.506,2.081,2.081,0,0,0-.568.072,1.376,1.376,0,0,0-.433.2.909.909,0,0,0-.28.311.811.811,0,0,0-.1.4.949.949,0,0,0,.1.458,1,1,0,0,0,.29.328,2.268,2.268,0,0,0,.464.26c.183.077.39.161.623.253a8.711,8.711,0,0,1,.834.365,2.859,2.859,0,0,1,.628.424,1.656,1.656,0,0,1,.4.544,1.756,1.756,0,0,1,.139.731,1.73,1.73,0,0,1-.228.9,1.956,1.956,0,0,1-.612.636,2.789,2.789,0,0,1-.882.376,4.35,4.35,0,0,1-1.046.123A3.972,3.972,0,0,1,368.076,107.248Z" fill="#1e1e1e"/>
      <path d="M378.022,104.042H374.29v-.882h3.732Z" fill="#1e1e1e"/>
      <path d="M264.942,122.18a3.637,3.637,0,0,1-1.914.485,3.164,3.164,0,0,1-2.416-.974,3.529,3.529,0,0,1-.92-2.526,3.885,3.885,0,0,1,.991-2.779,3.47,3.47,0,0,1,2.646-1.049,3.68,3.68,0,0,1,1.627.342v1.148a2.855,2.855,0,0,0-1.668-.547,2.254,2.254,0,0,0-1.76.77,2.918,2.918,0,0,0-.688,2.02,2.777,2.777,0,0,0,.647,1.941,2.226,2.226,0,0,0,1.732.711,2.8,2.8,0,0,0,1.723-.609Z" fill="#1e1e1e"/>
      <path d="M269.563,122.665a3.245,3.245,0,0,1-2.477-.981,3.627,3.627,0,0,1-.927-2.6,3.784,3.784,0,0,1,.964-2.755,3.466,3.466,0,0,1,2.6-.991,3.141,3.141,0,0,1,2.445.964,3.826,3.826,0,0,1,.877,2.673,3.76,3.76,0,0,1-.946,2.683A3.319,3.319,0,0,1,269.563,122.665Zm.082-6.385a2.136,2.136,0,0,0-1.709.735,3.021,3.021,0,0,0-.629,2.027,2.852,2.852,0,0,0,.636,1.962,2.159,2.159,0,0,0,1.7.718,2.052,2.052,0,0,0,1.672-.7,3.053,3.053,0,0,0,.584-2,3.109,3.109,0,0,0-.584-2.024A2.042,2.042,0,0,0,269.645,116.28Z" fill="#1e1e1e"/>
      <path d="M275.962,122.5H274.84V112.138h1.122Z" fill="#1e1e1e"/>
      <path d="M279.352,122.5h-1.121V112.138h1.121Z" fill="#1e1e1e"/>
      <path d="M287.248,119.281h-4.943a2.627,2.627,0,0,0,.629,1.8,2.17,2.17,0,0,0,1.655.636,3.437,3.437,0,0,0,2.173-.779V122a4.058,4.058,0,0,1-2.44.67,2.962,2.962,0,0,1-2.331-.953,3.906,3.906,0,0,1-.848-2.683,3.826,3.826,0,0,1,.927-2.663,2.968,2.968,0,0,1,2.3-1.029,2.63,2.63,0,0,1,2.126.889,3.7,3.7,0,0,1,.752,2.468Zm-1.149-.95a2.277,2.277,0,0,0-.467-1.51,1.6,1.6,0,0,0-1.283-.541,1.808,1.808,0,0,0-1.346.568,2.57,2.57,0,0,0-.684,1.483Z" fill="#1e1e1e"/>
      <path d="M293.715,122.18a3.641,3.641,0,0,1-1.915.485,3.166,3.166,0,0,1-2.416-.974,3.529,3.529,0,0,1-.919-2.526,3.885,3.885,0,0,1,.991-2.779,3.47,3.47,0,0,1,2.645-1.049,3.68,3.68,0,0,1,1.627.342v1.148a2.852,2.852,0,0,0-1.668-.547,2.254,2.254,0,0,0-1.76.77,2.917,2.917,0,0,0-.687,2.02,2.781,2.781,0,0,0,.646,1.941,2.227,2.227,0,0,0,1.733.711,2.809,2.809,0,0,0,1.723-.609Z" fill="#1e1e1e"/>
      <path d="M298.657,122.433a2.156,2.156,0,0,1-1.046.219q-1.839,0-1.839-2.051v-4.143h-1.2V115.5h1.2v-1.709l1.121-.362V115.5h1.764v.957h-1.764V120.4a1.636,1.636,0,0,0,.239,1,.956.956,0,0,0,.793.3,1.177,1.177,0,0,0,.732-.232Z" fill="#1e1e1e"/>
      <path d="M303.08,122.665a3.247,3.247,0,0,1-2.478-.981,3.632,3.632,0,0,1-.927-2.6,3.788,3.788,0,0,1,.964-2.755,3.47,3.47,0,0,1,2.605-.991,3.139,3.139,0,0,1,2.444.964,3.826,3.826,0,0,1,.878,2.673,3.76,3.76,0,0,1-.946,2.683A3.32,3.32,0,0,1,303.08,122.665Zm.082-6.385a2.136,2.136,0,0,0-1.709.735,3.021,3.021,0,0,0-.629,2.027A2.852,2.852,0,0,0,301.46,121a2.158,2.158,0,0,0,1.7.718,2.053,2.053,0,0,0,1.672-.7,3.058,3.058,0,0,0,.584-2,3.115,3.115,0,0,0-.584-2.024A2.043,2.043,0,0,0,303.162,116.28Z" fill="#1e1e1e"/>
      <path d="M312.007,116.636a1.37,1.37,0,0,0-.847-.226,1.429,1.429,0,0,0-1.2.677,3.125,3.125,0,0,0-.483,1.846V122.5h-1.121v-7h1.121v1.443h.028a2.446,2.446,0,0,1,.731-1.152,1.667,1.667,0,0,1,1.1-.414,1.815,1.815,0,0,1,.669.1Z" fill="#1e1e1e"/>
      <path d="M316.806,119.042h-3.732v-.882h3.732Z" fill="#1e1e1e"/>
      <path d="M318.4,122.248v-1.2a3.32,3.32,0,0,0,2.017.677q1.476,0,1.476-.984a.857.857,0,0,0-.126-.476,1.273,1.273,0,0,0-.342-.345,2.655,2.655,0,0,0-.5-.27c-.195-.079-.4-.163-.626-.249a7.918,7.918,0,0,1-.817-.373,2.476,2.476,0,0,1-.588-.424,1.568,1.568,0,0,1-.355-.536,1.894,1.894,0,0,1-.12-.7,1.675,1.675,0,0,1,.225-.872,2.017,2.017,0,0,1,.6-.636,2.8,2.8,0,0,1,.858-.386,3.834,3.834,0,0,1,.994-.13,4.006,4.006,0,0,1,1.627.315v1.134a3.169,3.169,0,0,0-1.777-.506,2.074,2.074,0,0,0-.567.072,1.382,1.382,0,0,0-.434.2.909.909,0,0,0-.28.311.811.811,0,0,0-.1.4.949.949,0,0,0,.1.458,1,1,0,0,0,.29.328,2.25,2.25,0,0,0,.465.26q.273.115.622.253a8.6,8.6,0,0,1,.834.365,2.891,2.891,0,0,1,.629.424,1.668,1.668,0,0,1,.4.544,1.756,1.756,0,0,1,.14.731,1.721,1.721,0,0,1-.229.9,1.945,1.945,0,0,1-.612.636,2.789,2.789,0,0,1-.882.376,4.35,4.35,0,0,1-1.046.123A3.972,3.972,0,0,1,318.4,122.248Z" fill="#1e1e1e"/>
      <path d="M329.774,122.5h-1.121v-1.094h-.027a2.347,2.347,0,0,1-2.154,1.258,2.3,2.3,0,0,1-1.636-.553,1.917,1.917,0,0,1-.592-1.47q0-1.962,2.31-2.283l2.1-.294q0-1.785-1.442-1.785a3.452,3.452,0,0,0-2.284.862v-1.149a4.346,4.346,0,0,1,2.379-.656q2.469,0,2.468,2.611Zm-1.121-3.541-1.688.233a2.721,2.721,0,0,0-1.176.386,1.115,1.115,0,0,0-.4.981,1.066,1.066,0,0,0,.366.837,1.417,1.417,0,0,0,.974.325,1.8,1.8,0,0,0,1.378-.585,2.087,2.087,0,0,0,.543-1.48Z" fill="#1e1e1e"/>
      <path d="M341.826,122.5h-1.121v-4.019a3.026,3.026,0,0,0-.359-1.682,1.362,1.362,0,0,0-1.207-.52,1.492,1.492,0,0,0-1.219.657,2.508,2.508,0,0,0-.5,1.572V122.5H336.3v-4.156q0-2.065-1.593-2.065a1.478,1.478,0,0,0-1.217.619,2.565,2.565,0,0,0-.479,1.61V122.5h-1.121v-7h1.121v1.108h.028a2.379,2.379,0,0,1,2.174-1.272,2.021,2.021,0,0,1,1.982,1.449,2.5,2.5,0,0,1,2.324-1.449q2.312,0,2.311,2.851Z" fill="#1e1e1e"/>
      <path d="M345.093,121.489h-.027v4.232h-1.121V115.5h1.121v1.231h.027a2.652,2.652,0,0,1,2.42-1.395,2.566,2.566,0,0,1,2.113.94,3.892,3.892,0,0,1,.758,2.519,4.337,4.337,0,0,1-.854,2.813,2.844,2.844,0,0,1-2.338,1.056A2.344,2.344,0,0,1,345.093,121.489Zm-.027-2.823v.978a2.083,2.083,0,0,0,.565,1.473,2.012,2.012,0,0,0,3.028-.174,3.577,3.577,0,0,0,.577-2.167,2.819,2.819,0,0,0-.54-1.832,1.787,1.787,0,0,0-1.463-.664,1.985,1.985,0,0,0-1.572.681A2.494,2.494,0,0,0,345.066,118.666Z" fill="#1e1e1e"/>
      <path d="M353.3,122.5h-1.122V112.138H353.3Z" fill="#1e1e1e"/>
      <path d="M361.192,119.281H356.25a2.617,2.617,0,0,0,.629,1.8,2.168,2.168,0,0,0,1.654.636,3.44,3.44,0,0,0,2.174-.779V122a4.063,4.063,0,0,1-2.441.67,2.963,2.963,0,0,1-2.331-.953,3.91,3.91,0,0,1-.847-2.683,3.825,3.825,0,0,1,.926-2.663,2.97,2.97,0,0,1,2.3-1.029,2.63,2.63,0,0,1,2.126.889,3.7,3.7,0,0,1,.752,2.468Zm-1.148-.95a2.277,2.277,0,0,0-.468-1.51,1.6,1.6,0,0,0-1.282-.541,1.809,1.809,0,0,0-1.347.568,2.576,2.576,0,0,0-.684,1.483Z" fill="#1e1e1e"/>
    </g>
    <g>
      <path d="M74.052,160.493H69.11a2.622,2.622,0,0,0,.628,1.805,2.169,2.169,0,0,0,1.655.636,3.439,3.439,0,0,0,2.174-.78v1.053a4.063,4.063,0,0,1-2.441.67,2.957,2.957,0,0,1-2.331-.953,3.9,3.9,0,0,1-.848-2.684,3.827,3.827,0,0,1,.927-2.662,2.968,2.968,0,0,1,2.3-1.029,2.633,2.633,0,0,1,2.126.889,3.705,3.705,0,0,1,.752,2.467Zm-1.149-.95a2.28,2.28,0,0,0-.468-1.511,1.6,1.6,0,0,0-1.282-.54,1.812,1.812,0,0,0-1.346.568,2.582,2.582,0,0,0-.684,1.483Z" fill="#1e1e1e"/>
      <path d="M81.722,163.713H80.6v-1.189h-.028a2.587,2.587,0,0,1-2.406,1.353,2.618,2.618,0,0,1-2.109-.939,3.861,3.861,0,0,1-.789-2.561,4.191,4.191,0,0,1,.875-2.782,2.886,2.886,0,0,1,2.331-1.046,2.244,2.244,0,0,1,2.1,1.135H80.6V153.35h1.121ZM80.6,160.548v-1.032a2,2,0,0,0-.561-1.436,1.882,1.882,0,0,0-1.422-.588,1.937,1.937,0,0,0-1.613.752,3.3,3.3,0,0,0-.588,2.078,2.968,2.968,0,0,0,.564,1.912,1.846,1.846,0,0,0,1.514.7,1.914,1.914,0,0,0,1.521-.677A2.518,2.518,0,0,0,80.6,160.548Z" fill="#1e1e1e"/>
      <path d="M89.966,163.153q0,3.855-3.691,3.855a4.959,4.959,0,0,1-2.27-.492V165.4a4.67,4.67,0,0,0,2.256.656q2.584,0,2.584-2.748v-.766h-.027a2.834,2.834,0,0,1-4.509.408,3.731,3.731,0,0,1-.8-2.506,4.357,4.357,0,0,1,.858-2.837,2.868,2.868,0,0,1,2.348-1.053,2.284,2.284,0,0,1,2.1,1.135h.027v-.971h1.121Zm-1.121-2.6v-1.032a2,2,0,0,0-.564-1.429,1.858,1.858,0,0,0-1.405-.595,1.946,1.946,0,0,0-1.627.756,3.37,3.37,0,0,0-.588,2.115,2.9,2.9,0,0,0,.564,1.871,1.825,1.825,0,0,0,1.494.7,1.95,1.95,0,0,0,1.535-.67A2.5,2.5,0,0,0,88.845,160.548Z" fill="#1e1e1e"/>
      <path d="M97.861,160.493H92.919a2.617,2.617,0,0,0,.629,1.805,2.168,2.168,0,0,0,1.654.636,3.437,3.437,0,0,0,2.174-.78v1.053a4.06,4.06,0,0,1-2.44.67,2.957,2.957,0,0,1-2.331-.953,3.9,3.9,0,0,1-.848-2.684,3.831,3.831,0,0,1,.926-2.662,2.972,2.972,0,0,1,2.3-1.029,2.634,2.634,0,0,1,2.126.889,3.7,3.7,0,0,1,.751,2.467Zm-1.148-.95a2.286,2.286,0,0,0-.468-1.511,1.6,1.6,0,0,0-1.282-.54,1.814,1.814,0,0,0-1.347.568,2.575,2.575,0,0,0-.683,1.483Z" fill="#1e1e1e"/>
      <path d="M107.3,163.713h-1.271l-1.039-2.748h-4.157l-.977,2.748H98.572l3.76-9.8h1.19Zm-2.686-3.78-1.539-4.177a4.005,4.005,0,0,1-.15-.656h-.027a3.708,3.708,0,0,1-.157.656l-1.525,4.177Z" fill="#1e1e1e"/>
      <path d="M114.562,163.153q0,3.855-3.692,3.855a4.958,4.958,0,0,1-2.269-.492V165.4a4.664,4.664,0,0,0,2.256.656q2.583,0,2.584-2.748v-.766h-.028a2.833,2.833,0,0,1-4.508.408,3.731,3.731,0,0,1-.8-2.506,4.363,4.363,0,0,1,.857-2.837,2.87,2.87,0,0,1,2.349-1.053,2.281,2.281,0,0,1,2.1,1.135h.028v-.971h1.121Zm-1.121-2.6v-1.032a2,2,0,0,0-.564-1.429,1.86,1.86,0,0,0-1.405-.595,1.946,1.946,0,0,0-1.627.756,3.37,3.37,0,0,0-.588,2.115,2.9,2.9,0,0,0,.564,1.871,1.825,1.825,0,0,0,1.494.7,1.948,1.948,0,0,0,1.534-.67A2.5,2.5,0,0,0,113.441,160.548Z" fill="#1e1e1e"/>
      <path d="M122.457,160.493h-4.942a2.617,2.617,0,0,0,.629,1.805,2.167,2.167,0,0,0,1.654.636,3.437,3.437,0,0,0,2.174-.78v1.053a4.061,4.061,0,0,1-2.441.67,2.958,2.958,0,0,1-2.331-.953,3.9,3.9,0,0,1-.847-2.684,3.826,3.826,0,0,1,.926-2.662,2.97,2.97,0,0,1,2.3-1.029,2.633,2.633,0,0,1,2.126.889,3.7,3.7,0,0,1,.752,2.467Zm-1.148-.95a2.286,2.286,0,0,0-.469-1.511,1.6,1.6,0,0,0-1.281-.54,1.812,1.812,0,0,0-1.347.568,2.582,2.582,0,0,0-.684,1.483Z" fill="#1e1e1e"/>
      <path d="M129.963,163.713h-1.121v-3.992q0-2.228-1.627-2.229a1.763,1.763,0,0,0-1.391.633,2.341,2.341,0,0,0-.55,1.6v3.992h-1.121v-7h1.121v1.162h.027a2.527,2.527,0,0,1,2.3-1.326,2.142,2.142,0,0,1,1.757.742,3.307,3.307,0,0,1,.608,2.143Z" fill="#1e1e1e"/>
      <path d="M135.322,163.645a2.155,2.155,0,0,1-1.045.218q-1.84,0-1.839-2.05V157.67h-1.2v-.957h1.2V155l1.121-.362v2.071h1.763v.957h-1.763v3.944a1.63,1.63,0,0,0,.239,1,.951.951,0,0,0,.793.3,1.176,1.176,0,0,0,.731-.232Z" fill="#1e1e1e"/>
    </g>
    <g>
      <path d="M467.205,106.753h-5.838v-9.8h2.208v8.012h3.63Z" fill="#2f2f2f"/>
      <path d="M471.668,106.924a3.764,3.764,0,0,1-2.752-.981,4.057,4.057,0,0,1,.038-5.38,3.924,3.924,0,0,1,2.809-.981,3.719,3.719,0,0,1,2.735.981,3.49,3.49,0,0,1,.991,2.594,3.7,3.7,0,0,1-1.023,2.755A3.8,3.8,0,0,1,471.668,106.924Zm.054-5.687a1.439,1.439,0,0,0-1.189.526,2.319,2.319,0,0,0-.424,1.49q0,2.016,1.627,2.017,1.551,0,1.552-2.072Q473.288,101.236,471.722,101.237Z" fill="#2f2f2f"/>
      <path d="M483.773,105.953a3.959,3.959,0,0,1-1.128,3.018,4.569,4.569,0,0,1-3.267,1.07,5.179,5.179,0,0,1-2.243-.4V107.82a4.3,4.3,0,0,0,2.181.628,2.348,2.348,0,0,0,1.7-.577,2.073,2.073,0,0,0,.6-1.569v-.554h-.027a2.414,2.414,0,0,1-2.181,1.176,2.62,2.62,0,0,1-2.126-.943,3.829,3.829,0,0,1-.786-2.53,4.256,4.256,0,0,1,.875-2.823,2.855,2.855,0,0,1,2.3-1.046,2.126,2.126,0,0,1,1.914.985h.027v-.814h2.16Zm-2.133-2.563v-.554a1.7,1.7,0,0,0-.393-1.131,1.272,1.272,0,0,0-1.022-.468,1.324,1.324,0,0,0-1.128.56,2.639,2.639,0,0,0-.41,1.579,2.22,2.22,0,0,0,.39,1.384,1.269,1.269,0,0,0,1.066.51,1.32,1.32,0,0,0,1.083-.516A2.112,2.112,0,0,0,481.64,103.39Z" fill="#2f2f2f"/>
      <path d="M494.41,106.753H492l-.7-2.181H487.82l-.69,2.181h-2.393l3.568-9.8h2.619Zm-3.61-3.876-1.052-3.3a4.2,4.2,0,0,1-.164-.882h-.055a3.758,3.758,0,0,1-.171.855l-1.066,3.322Z" fill="#2f2f2f"/>
      <path d="M502.167,106.753h-2.154v-3.89q0-1.626-1.162-1.626a1.156,1.156,0,0,0-.923.43,1.644,1.644,0,0,0-.362,1.094v3.992h-2.16v-7h2.16v1.108h.027a2.476,2.476,0,0,1,2.249-1.279q2.325,0,2.325,2.885Z" fill="#2f2f2f"/>
      <path d="M509.732,106.753h-2.044v-1h-.027a2.28,2.28,0,0,1-2.085,1.176,2.178,2.178,0,0,1-1.6-.578,2.072,2.072,0,0,1-.585-1.541q0-2.037,2.413-2.352l1.9-.253q0-1.147-1.244-1.148a4.245,4.245,0,0,0-2.379.745V100.17a5.376,5.376,0,0,1,1.234-.41,6.459,6.459,0,0,1,1.425-.178,2.644,2.644,0,0,1,2.994,2.988Zm-2.03-2.844v-.471l-1.272.164q-1.052.136-1.052.95a.788.788,0,0,0,.256.6.988.988,0,0,0,.694.236,1.276,1.276,0,0,0,.991-.421A1.514,1.514,0,0,0,507.7,103.909Z" fill="#2f2f2f"/>
      <path d="M513.59,106.753h-2.16V96.39h2.16Z" fill="#2f2f2f"/>
      <path d="M522.114,99.753l-2.844,7.561q-1.024,2.727-3.09,2.727a3.952,3.952,0,0,1-1.292-.178v-1.722a1.825,1.825,0,0,0,.937.253,1.169,1.169,0,0,0,1.162-.786l.369-.869-2.844-6.986h2.393l1.306,4.259a5.492,5.492,0,0,1,.191.936h.027a6.593,6.593,0,0,1,.226-.922l1.319-4.273Z" fill="#2f2f2f"/>
      <path d="M527.579,106.671a3.189,3.189,0,0,1-1.443.253q-2.281,0-2.283-2.372v-3.206h-1.135V99.753h1.135V98.242l2.154-.615v2.126h1.572v1.593h-1.572v2.83q0,1.093.868,1.094a1.453,1.453,0,0,0,.7-.2Z" fill="#2f2f2f"/>
      <path d="M529.957,98.646a1.265,1.265,0,0,1-.9-.325,1.046,1.046,0,0,1-.348-.8,1.009,1.009,0,0,1,.348-.793,1.462,1.462,0,0,1,1.795,0,1.013,1.013,0,0,1,.345.793,1.04,1.04,0,0,1-.345.806A1.282,1.282,0,0,1,529.957,98.646Zm1.066,8.107h-2.16v-7h2.16Z" fill="#2f2f2f"/>
      <path d="M538.1,106.5a4.267,4.267,0,0,1-2.112.424,3.569,3.569,0,0,1-2.611-.978,3.372,3.372,0,0,1-1-2.522,3.72,3.72,0,0,1,1.069-2.813,3.955,3.955,0,0,1,2.861-1.029,3.682,3.682,0,0,1,1.791.328v1.832a2.464,2.464,0,0,0-1.511-.505,1.99,1.99,0,0,0-1.473.543,2.027,2.027,0,0,0-.543,1.5,2,2,0,0,0,.519,1.46,1.911,1.911,0,0,0,1.429.53,2.855,2.855,0,0,0,1.579-.506Z" fill="#2f2f2f"/>
      <path d="M539.274,106.569v-1.75a4.614,4.614,0,0,0,1.064.478,3.505,3.505,0,0,0,1,.157,2.152,2.152,0,0,0,.906-.157.509.509,0,0,0,.331-.478.441.441,0,0,0-.151-.342,1.347,1.347,0,0,0-.385-.239,4.315,4.315,0,0,0-.517-.185c-.186-.055-.366-.116-.54-.185a5.213,5.213,0,0,1-.734-.338,2.151,2.151,0,0,1-.534-.42,1.688,1.688,0,0,1-.328-.554,2.215,2.215,0,0,1-.113-.745,1.919,1.919,0,0,1,.257-1.012,2.081,2.081,0,0,1,.684-.694,3.1,3.1,0,0,1,.977-.4,5.048,5.048,0,0,1,1.145-.127,6.318,6.318,0,0,1,.943.072,6.9,6.9,0,0,1,.943.209v1.667a3.391,3.391,0,0,0-.878-.358,3.7,3.7,0,0,0-.92-.12,2.039,2.039,0,0,0-.4.038,1.269,1.269,0,0,0-.332.109.613.613,0,0,0-.226.184.432.432,0,0,0-.082.257.474.474,0,0,0,.123.328,1.075,1.075,0,0,0,.322.236,3.291,3.291,0,0,0,.441.178c.161.052.322.106.482.16a6.341,6.341,0,0,1,.779.328,2.549,2.549,0,0,1,.6.417,1.641,1.641,0,0,1,.382.561,2.248,2.248,0,0,1-.136,1.828,2.171,2.171,0,0,1-.718.718,3.272,3.272,0,0,1-1.032.4,5.746,5.746,0,0,1-1.214.126A6.281,6.281,0,0,1,539.274,106.569Z" fill="#2f2f2f"/>
      <path d="M480.262,113.75l-2.59,9.8h-2.448l-1.627-6.289a5.2,5.2,0,0,1-.157-1.1h-.027a6.729,6.729,0,0,1-.178,1.1l-1.668,6.289h-2.55l-2.577-9.8h2.413l1.381,6.529a7.746,7.746,0,0,1,.13,1.121h.041a5.413,5.413,0,0,1,.2-1.149l1.778-6.5h2.365l1.606,6.583a8.01,8.01,0,0,1,.157,1.053h.028a6.851,6.851,0,0,1,.143-1.094l1.354-6.542Z" fill="#2f2f2f"/>
      <path d="M484.186,123.724a3.762,3.762,0,0,1-2.751-.981,4.056,4.056,0,0,1,.037-5.38,3.93,3.93,0,0,1,2.81-.981,3.715,3.715,0,0,1,2.734.981,3.486,3.486,0,0,1,.991,2.594,3.7,3.7,0,0,1-1.021,2.755A3.808,3.808,0,0,1,484.186,123.724Zm.055-5.688a1.445,1.445,0,0,0-1.19.527,2.323,2.323,0,0,0-.423,1.49q0,2.016,1.627,2.017,1.553,0,1.551-2.072Q485.806,118.036,484.241,118.036Z" fill="#2f2f2f"/>
      <path d="M493.955,118.5a1.881,1.881,0,0,0-.909-.212,1.31,1.31,0,0,0-1.1.516,2.251,2.251,0,0,0-.4,1.4v3.343h-2.161v-7h2.161v1.3h.027a1.869,1.869,0,0,1,1.846-1.422,1.388,1.388,0,0,1,.533.082Z" fill="#2f2f2f"/>
      <path d="M501.959,123.553h-2.591l-2.236-3.473h-.027v3.473h-2.16V113.19h2.16v6.6h.027l2.085-3.233h2.564l-2.509,3.288Z" fill="#2f2f2f"/>
      <path d="M502.617,123.368v-1.75a4.57,4.57,0,0,0,1.063.479,3.516,3.516,0,0,0,1,.157,2.154,2.154,0,0,0,.907-.157.509.509,0,0,0,.331-.479.44.44,0,0,0-.151-.341,1.363,1.363,0,0,0-.386-.24,4.3,4.3,0,0,0-.516-.184c-.187-.055-.366-.116-.54-.185a5.344,5.344,0,0,1-.735-.338,2.143,2.143,0,0,1-.533-.421,1.656,1.656,0,0,1-.328-.553,2.215,2.215,0,0,1-.113-.745,1.917,1.917,0,0,1,.257-1.012,2.088,2.088,0,0,1,.683-.694,3.134,3.134,0,0,1,.978-.4,5.1,5.1,0,0,1,1.144-.126,6.331,6.331,0,0,1,.944.072,7.05,7.05,0,0,1,.943.208v1.668a3.429,3.429,0,0,0-.878-.359,3.742,3.742,0,0,0-.92-.119,2.041,2.041,0,0,0-.4.037,1.294,1.294,0,0,0-.332.11.613.613,0,0,0-.226.184.43.43,0,0,0-.082.257.476.476,0,0,0,.123.328,1.075,1.075,0,0,0,.322.236,3.115,3.115,0,0,0,.441.177c.161.053.322.106.481.161a6.206,6.206,0,0,1,.78.328,2.513,2.513,0,0,1,.6.417,1.643,1.643,0,0,1,.383.561,2.243,2.243,0,0,1-.137,1.828,2.178,2.178,0,0,1-.717.718,3.243,3.243,0,0,1-1.033.4,5.672,5.672,0,0,1-1.213.127A6.257,6.257,0,0,1,502.617,123.368Z" fill="#2f2f2f"/>
      <path d="M511.48,122.739h-.027v4.034h-2.16v-10.22h2.16v1.053h.027a2.75,2.75,0,0,1,4.352-.291,3.977,3.977,0,0,1,.741,2.54,4.308,4.308,0,0,1-.864,2.809,2.82,2.82,0,0,1-2.3,1.06A2.18,2.18,0,0,1,511.48,122.739Zm-.061-2.871v.561a1.79,1.79,0,0,0,.382,1.183,1.249,1.249,0,0,0,1.005.458,1.328,1.328,0,0,0,1.146-.571,2.767,2.767,0,0,0,.406-1.617q0-1.845-1.435-1.846a1.347,1.347,0,0,0-1.083.5A2,2,0,0,0,511.419,119.868Z" fill="#2f2f2f"/>
      <path d="M523.8,123.553h-2.044v-1h-.027a2.28,2.28,0,0,1-2.085,1.176,2.178,2.178,0,0,1-1.6-.578,2.068,2.068,0,0,1-.585-1.541q0-2.037,2.413-2.352l1.9-.253q0-1.148-1.244-1.148a4.245,4.245,0,0,0-2.379.745V116.97a5.328,5.328,0,0,1,1.234-.41,6.459,6.459,0,0,1,1.425-.178,2.643,2.643,0,0,1,2.994,2.987Zm-2.03-2.844v-.471l-1.271.164q-1.053.136-1.053.95a.785.785,0,0,0,.257.6.985.985,0,0,0,.693.236,1.279,1.279,0,0,0,.991-.421A1.515,1.515,0,0,0,521.775,120.709Z" fill="#2f2f2f"/>
      <path d="M530.819,123.3a4.262,4.262,0,0,1-2.112.424,3.575,3.575,0,0,1-2.612-.978,3.377,3.377,0,0,1-1-2.522,3.716,3.716,0,0,1,1.071-2.813,3.952,3.952,0,0,1,2.86-1.029,3.667,3.667,0,0,1,1.791.328v1.832a2.462,2.462,0,0,0-1.511-.506,1.986,1.986,0,0,0-1.472.544,2.024,2.024,0,0,0-.544,1.5,2,2,0,0,0,.519,1.46,1.912,1.912,0,0,0,1.429.53,2.852,2.852,0,0,0,1.579-.506Z" fill="#2f2f2f"/>
      <path d="M538.535,120.668h-4.567q.11,1.524,1.921,1.525a3.76,3.76,0,0,0,2.031-.547V123.2a5.344,5.344,0,0,1-2.523.52,3.258,3.258,0,0,1-3.568-3.562,3.746,3.746,0,0,1,1.011-2.761,3.367,3.367,0,0,1,2.489-1.019,3.059,3.059,0,0,1,2.368.909,3.5,3.5,0,0,1,.838,2.468Zm-2-1.326q0-1.5-1.217-1.5a1.162,1.162,0,0,0-.9.431,1.949,1.949,0,0,0-.461,1.073Z" fill="#2f2f2f"/>
    </g>
    <g>
      <path d="M39.072,20.4H37.179V12h1.893Z" fill="#1e1e1e"/>
      <path d="M43.66,20.547a3.23,3.23,0,0,1-2.359-.841,3.051,3.051,0,0,1-.858-2.282,3.049,3.049,0,0,1,.891-2.33,3.365,3.365,0,0,1,2.408-.84,3.19,3.19,0,0,1,2.344.84,2.991,2.991,0,0,1,.849,2.224,3.172,3.172,0,0,1-.876,2.361A3.258,3.258,0,0,1,43.66,20.547Zm.047-4.875a1.234,1.234,0,0,0-1.02.451,1.99,1.99,0,0,0-.363,1.277q0,1.728,1.394,1.729,1.33,0,1.331-1.776Q45.049,15.671,43.707,15.672Z" fill="#1e1e1e"/>
      <path d="M54.218,13.539h-2.4V20.4h-1.9V13.539H47.539V12h6.679Z" fill="#1e1e1e"/>
      <path d="M63.7,20.4H58.66V12h4.846v1.541H60.552v1.869H63.3v1.535H60.552v1.922H63.7Z" fill="#1e1e1e"/>
      <path d="M70.736,20.4H68.884v-.826h-.023A2.077,2.077,0,0,1,67,20.547a2.277,2.277,0,0,1-1.811-.794,3.289,3.289,0,0,1-.686-2.218,3.578,3.578,0,0,1,.756-2.385,2.464,2.464,0,0,1,1.981-.9,1.685,1.685,0,0,1,1.617.832h.023V11.517h1.852ZM68.92,17.482v-.451a1.423,1.423,0,0,0-.34-.973,1.2,1.2,0,0,0-1.846.1,2.248,2.248,0,0,0-.346,1.327,1.948,1.948,0,0,0,.334,1.219,1.185,1.185,0,0,0,1.843-.024A1.88,1.88,0,0,0,68.92,17.482Z" fill="#1e1e1e"/>
      <path d="M78.177,19.715a3.394,3.394,0,0,1-.966,2.586,3.918,3.918,0,0,1-2.8.917,4.448,4.448,0,0,1-1.922-.345V21.314a3.673,3.673,0,0,0,1.869.539,2.014,2.014,0,0,0,1.453-.5,1.776,1.776,0,0,0,.516-1.345v-.474H76.3a2.067,2.067,0,0,1-1.869,1.008,2.249,2.249,0,0,1-1.822-.809,3.281,3.281,0,0,1-.674-2.168,3.652,3.652,0,0,1,.75-2.42,2.447,2.447,0,0,1,1.975-.9,1.822,1.822,0,0,1,1.64.843h.024v-.7h1.851Zm-1.828-2.2v-.474a1.458,1.458,0,0,0-.337-.97,1.087,1.087,0,0,0-.876-.4,1.131,1.131,0,0,0-.966.48,2.256,2.256,0,0,0-.352,1.354,1.9,1.9,0,0,0,.334,1.186,1.089,1.089,0,0,0,.914.437A1.135,1.135,0,0,0,76,18.686,1.815,1.815,0,0,0,76.349,17.517Z" fill="#1e1e1e"/>
      <path d="M85.115,17.927H81.2q.093,1.308,1.646,1.307a3.213,3.213,0,0,0,1.741-.469V20.1a4.574,4.574,0,0,1-2.163.446,2.793,2.793,0,0,1-3.058-3.053,3.211,3.211,0,0,1,.867-2.367,2.889,2.889,0,0,1,2.133-.873,2.619,2.619,0,0,1,2.03.779,3,3,0,0,1,.718,2.115ZM83.4,16.791q0-1.29-1.043-1.289a.994.994,0,0,0-.77.369,1.676,1.676,0,0,0-.4.92Z" fill="#1e1e1e"/>
      <path d="M95.4,20.4H93.547v-.826h-.024a2.077,2.077,0,0,1-1.857.973,2.277,2.277,0,0,1-1.811-.794,3.289,3.289,0,0,1-.685-2.218,3.583,3.583,0,0,1,.755-2.385,2.466,2.466,0,0,1,1.981-.9,1.685,1.685,0,0,1,1.617.832h.024V11.517H95.4Zm-1.816-2.918v-.451a1.423,1.423,0,0,0-.34-.973,1.2,1.2,0,0,0-1.846.1,2.248,2.248,0,0,0-.346,1.327,1.948,1.948,0,0,0,.334,1.219,1.185,1.185,0,0,0,1.843-.024A1.874,1.874,0,0,0,93.582,17.482Z" fill="#1e1e1e"/>
      <path d="M102.347,17.927H98.433q.094,1.308,1.647,1.307a3.21,3.21,0,0,0,1.74-.469V20.1a4.569,4.569,0,0,1-2.162.446A2.793,2.793,0,0,1,96.6,17.494a3.211,3.211,0,0,1,.867-2.367,2.892,2.892,0,0,1,2.133-.873,2.623,2.623,0,0,1,2.031.779,3,3,0,0,1,.717,2.115Zm-1.716-1.136q0-1.29-1.043-1.289a1,1,0,0,0-.771.369,1.668,1.668,0,0,0-.395.92Z" fill="#1e1e1e"/>
      <path d="M109.162,14.4l-2.233,6H104.82l-2.127-6h1.981l1.042,3.7a5.39,5.39,0,0,1,.206,1.067h.023a6.022,6.022,0,0,1,.217-1.031l1.066-3.733Z" fill="#1e1e1e"/>
      <path d="M110.89,13.451a1.083,1.083,0,0,1-.767-.278.9.9,0,0,1-.3-.683.867.867,0,0,1,.3-.68,1.256,1.256,0,0,1,1.538,0,.871.871,0,0,1,.3.68.893.893,0,0,1-.3.691A1.1,1.1,0,0,1,110.89,13.451ZM111.8,20.4h-1.851v-6H111.8Z" fill="#1e1e1e"/>
      <path d="M117.91,20.183a3.665,3.665,0,0,1-1.811.364,3.063,3.063,0,0,1-2.238-.838,2.9,2.9,0,0,1-.855-2.162,3.187,3.187,0,0,1,.917-2.412,3.39,3.39,0,0,1,2.452-.881,3.142,3.142,0,0,1,1.535.281v1.57a2.113,2.113,0,0,0-1.3-.433,1.71,1.71,0,0,0-1.263.465,1.743,1.743,0,0,0-.466,1.287,1.711,1.711,0,0,0,.446,1.251,1.639,1.639,0,0,0,1.224.454,2.448,2.448,0,0,0,1.354-.434Z" fill="#1e1e1e"/>
      <path d="M124.513,17.927H120.6q.094,1.308,1.647,1.307a3.21,3.21,0,0,0,1.74-.469V20.1a4.569,4.569,0,0,1-2.162.446,2.793,2.793,0,0,1-3.059-3.053,3.211,3.211,0,0,1,.867-2.367,2.892,2.892,0,0,1,2.133-.873,2.623,2.623,0,0,1,2.031.779,3,3,0,0,1,.717,2.115ZM122.8,16.791q0-1.29-1.043-1.289a1,1,0,0,0-.771.369,1.668,1.668,0,0,0-.4.92Z" fill="#1e1e1e"/>
    </g>
  </g>
</svg>
