<?xml version="1.0" encoding="utf-8"?>
<!-- Generator: Adobe Illustrator 19.1.0, SVG Export Plug-In . SVG Version: 6.00 Build 0)  -->
<svg version="1.1" id="Layer_1" xmlns="http://www.w3.org/2000/svg" xmlns:xlink="http://www.w3.org/1999/xlink" x="0px" y="0px"
	 width="100%" height="100%" viewBox="0 0 50 50" style="enable-background:new 0 0 50 50;" xml:space="preserve">
<style type="text/css">
	.st0{fill:#7A7A7A;}
	.st1{fill:#3999C6;}
	.st2{opacity:0.2;fill:#FFFFFF;enable-background:new    ;}
</style>
<path class="st0" d="M34.9,16.8H8.3c-1.1,0-2-0.9-2-2v0c0-1.1,0.9-2,2-2h26.6c1.1,0,2,0.9,2,2v0C36.9,15.9,36,16.8,34.9,16.8z"/>
<path class="st0" d="M29.5,33.5H4.9c-1.1,0-2-0.9-2-2v0c0-1.1,0.9-2,2-2h24.6c1.1,0,2,0.9,2,2v0C31.5,32.6,30.6,33.5,29.5,33.5z"/>
<path class="st0" d="M26.6,25.4H2c-1.1,0-2-0.9-2-2v0c0-1.1,0.9-2,2-2h24.6c1.1,0,2,0.9,2,2v0C28.6,24.5,27.7,25.4,26.6,25.4z"/>
<path class="st1" d="M50,29.2c0-2.4-1.9-4.3-4.2-4.3c-0.2,0-0.3,0-0.6,0c0.2-0.9,0.4-1.9,0.4-3c0-6.2-5.1-11.2-11.2-11.2
	c-4.9,0-9.1,3.3-10.6,7.6c-0.8-0.2-1.6-0.4-2.5-0.4c-4.3,0-7.6,3.5-7.6,7.8s3.4,7.8,7.6,7.8l0,0l0,0H46l0,0
	C48.3,33.2,50,31.4,50,29.2"/>
<path class="st2" d="M25.3,33.4c-1-1-1.8-2.2-2.1-3.8c-0.9-4.2,1.6-8.3,5.7-9.2c0.9-0.2,1.7-0.2,2.6-0.1c0.3-3.9,2.7-7.3,6.3-9
	c-1.1-0.3-2.2-0.6-3.4-0.6c-4.9,0-9.1,3.3-10.6,7.6c-0.8-0.2-1.6-0.4-2.5-0.4c-4.3,0-7.6,3.5-7.6,7.8s3.4,7.8,7.6,7.8l0,0l0,0
	L25.3,33.4L25.3,33.4z"/>
</svg>
