<svg xmlns="http://www.w3.org/2000/svg" viewBox="0 0 128 128"><title>retail-dark</title><g id="Layer_2" data-name="Layer 2"><g id="New_Icons" data-name="New Icons"><rect width="8" height="28" fill="#0078d4"/><rect x="10" y="-10" width="8" height="28" transform="translate(10 18) rotate(-90)" fill="#0078d4"/><rect x="10" y="110" width="8" height="28" transform="translate(-110 138) rotate(-90)" fill="#0078d4"/><rect y="100" width="8" height="28" transform="translate(8 228) rotate(180)" fill="#0078d4"/><rect x="120" width="8" height="28" transform="translate(248 28) rotate(180)" fill="#0078d4"/><rect x="110" y="-10" width="8" height="28" transform="translate(110 118) rotate(-90)" fill="#0078d4"/><rect x="110" y="110" width="8" height="28" transform="translate(-10 238) rotate(-90)" fill="#0078d4"/><rect x="120" y="100" width="8" height="28" fill="#0078d4"/><rect x="20" y="40" width="20" height="52" fill="#50e6ff"/><rect x="44" y="40" width="8" height="52" fill="#50e6ff"/><rect x="56" y="40" width="4" height="52" fill="#50e6ff"/><rect x="64" y="40" width="4" height="52" fill="#50e6ff"/><rect x="72" y="40" width="12" height="52" fill="#50e6ff"/><rect x="88" y="40" width="4" height="52" fill="#50e6ff"/><rect x="96" y="40" width="12" height="52" fill="#50e6ff"/></g></g></svg>