<svg xmlns="http://www.w3.org/2000/svg" xmlns:xlink="http://www.w3.org/1999/xlink" viewBox="0 0 475.66 151.37">
  <defs>
    <symbol id="New_Symbol_44" data-name="New Symbol 44" viewBox="0 0 21 20">
      <circle cx="10.5" cy="10" r="10" fill="#505050"/>
      <path d="M12.47,6v5.42h1.25v1.13H12.47v1.85H11.15V12.58H7.35V11.44q.51-.58,1.05-1.26c.37-.45.71-.91,1-1.38s.64-.94.93-1.41.52-.93.72-1.36Zm-1.32,5.42V7.92a21,21,0,0,1-1.26,2c-.42.57-.81,1.08-1.17,1.52Z" fill="#fff"/>
    </symbol>
    <symbol id="New_Symbol_43" data-name="New Symbol 43" viewBox="0 0 21 20">
      <circle cx="10.5" cy="10" r="10" fill="#505050"/>
      <path d="M7.89,14.12V12.84a2.92,2.92,0,0,0,1.85.65,2.18,2.18,0,0,0,1.34-.38,1.23,1.23,0,0,0,.5-1c0-.95-.73-1.43-2.18-1.43H8.74V9.56h.63c1.29,0,1.94-.45,1.94-1.35S10.8,7,9.79,7a2.46,2.46,0,0,0-1.58.6V6.37a4.05,4.05,0,0,1,2-.48A2.68,2.68,0,0,1,12,6.45a1.77,1.77,0,0,1,.67,1.44A2,2,0,0,1,11,10v0a2.18,2.18,0,0,1,1.43.63A1.91,1.91,0,0,1,13,12.05a2.22,2.22,0,0,1-.85,1.82,3.39,3.39,0,0,1-2.24.7A3.83,3.83,0,0,1,7.89,14.12Z" fill="#fff"/>
    </symbol>
    <symbol id="New_Symbol_42" data-name="New Symbol 42" viewBox="0 0 21 20">
      <circle cx="10.5" cy="10" r="10" fill="#505050"/>
      <path d="M13,14.43H7.74v-.65A2.56,2.56,0,0,1,7.85,13a3.93,3.93,0,0,1,.3-.66,4.67,4.67,0,0,1,.44-.58c.17-.18.35-.35.54-.52l.59-.5c.2-.15.39-.31.58-.47s.35-.3.5-.45a5,5,0,0,0,.38-.45,2.55,2.55,0,0,0,.24-.5,1.7,1.7,0,0,0,.09-.57,1.5,1.5,0,0,0-.1-.58,1.22,1.22,0,0,0-.29-.41,1.14,1.14,0,0,0-.44-.26A1.87,1.87,0,0,0,10.13,7a2.58,2.58,0,0,0-1.05.24,3.67,3.67,0,0,0-1,.72V6.65a3.24,3.24,0,0,1,.52-.33,3,3,0,0,1,.55-.24,2.68,2.68,0,0,1,.59-.15,4.59,4.59,0,0,1,.66,0,3.66,3.66,0,0,1,1,.14,2.25,2.25,0,0,1,.79.44,2,2,0,0,1,.51.73,2.57,2.57,0,0,1,.18,1,2.92,2.92,0,0,1-.13.92,2.65,2.65,0,0,1-.36.76,3.83,3.83,0,0,1-.56.67c-.21.21-.46.43-.73.65l-.67.53c-.23.18-.43.35-.61.51a3.22,3.22,0,0,0-.44.5.89.89,0,0,0-.16.5v0H13Z" fill="#fff"/>
    </symbol>
    <symbol id="New_Symbol_41" data-name="New Symbol 41" viewBox="0 0 21 20">
      <circle cx="10.5" cy="10" r="10" fill="#505050"/>
      <path d="M11.69,5.84v8.59H10.33V7.5A4.13,4.13,0,0,1,9.54,8a8.43,8.43,0,0,1-1,.33V7.12l.65-.24.63-.27.62-.34c.21-.13.42-.27.64-.43Z" fill="#fff"/>
    </symbol>
  </defs>
  <title>netcore-daemon-intro</title>
  <g id="Shapes">
    <rect width="475.66" height="151.37" fill="#fff"/>
    <rect y="0.74" width="105" height="150" fill="#ebebeb"/>
    <rect x="371" y="0.74" width="104.66" height="90" fill="#0072c6"/>
    <rect x="371" y="95.74" width="104.66" height="55" fill="#d2d2d2"/>
    <g>
      <g>
        <path d="M18.54,29.21a1.53,1.53,0,0,1,1.53-1.54H83a1.54,1.54,0,0,1,1.53,1.54v37.2A1.54,1.54,0,0,1,83,67.94H20.07a1.53,1.53,0,0,1-1.53-1.53Zm-3.47-1.79V68.11a3.29,3.29,0,0,0,3.28,3.3H84.68A3.29,3.29,0,0,0,88,68.11V27.42a3.28,3.28,0,0,0-3.28-3.29H18.35A3.28,3.28,0,0,0,15.07,27.42Z" fill="#1a1a1f" fill-rule="evenodd"/>
        <path d="M12.39,74.91H90.64a.87.87,0,0,1,.87.87v2.57a.87.87,0,0,1-.87.88H12.39a.87.87,0,0,1-.88-.88V75.78A.87.87,0,0,1,12.39,74.91Z" fill="#1a1a1f" fill-rule="evenodd"/>
        <path d="M42.59,76.44H60.44a.26.26,0,0,1,.25.26v.74a.25.25,0,0,1-.25.25H42.59a.25.25,0,0,1-.25-.25V76.7A.26.26,0,0,1,42.59,76.44Z" fill="#fff" fill-rule="evenodd"/>
      </g>
      <g>
        <path d="M58.39,51.55l.69-1.64-.2-.17-1.51-1.31V47.1l1.71-1.53-.67-1.65-.26,0-2,.14-.94-.94.13-2.29-1.64-.69-.18.2-1.31,1.51H50.88l-1.52-1.7-1.65.67,0,.26.14,2-.95.94-2.28-.13L44,45.54l.2.17L45.66,47v1.33L44,49.88l.67,1.65.26,0,2-.14.93,1-.12,2.28,1.64.69.17-.2,1.31-1.51h1.33l1.53,1.7,1.65-.67,0-.26-.14-2,1-.93Zm-8.29-.47a3.64,3.64,0,1,1,4.77-1.94h0a3.65,3.65,0,0,1-4.77,1.94h0" fill="#009ee1"/>
        <path d="M51.51,65A17.32,17.32,0,1,1,68.83,47.73,17.31,17.31,0,0,1,51.51,65Zm0-30.45A13.14,13.14,0,1,0,64.65,47.73,13.13,13.13,0,0,0,51.51,34.59Z" fill="#009ee1"/>
        <path d="M51.51,65A17.32,17.32,0,1,1,68.83,47.73,17.31,17.31,0,0,1,51.51,65Zm0-30.45A13.14,13.14,0,1,0,64.65,47.73,13.13,13.13,0,0,0,51.51,34.59Z" fill="#009ee1"/>
        <path d="M51.51,65A17.32,17.32,0,1,1,68.83,47.73,17.31,17.31,0,0,1,51.51,65Zm0-30.45A13.14,13.14,0,1,0,64.65,47.73,13.13,13.13,0,0,0,51.51,34.59Z" fill="#009ee1"/>
        <path d="M51.51,65.88A18.15,18.15,0,1,1,69.67,47.73,18.16,18.16,0,0,1,51.51,65.88Zm0-35.61A17.46,17.46,0,1,0,69,47.73,17.46,17.46,0,0,0,51.51,30.27Z" fill="#0078db"/>
        <path d="M51.51,65.88A18.15,18.15,0,1,1,69.67,47.73,18.16,18.16,0,0,1,51.51,65.88Zm0-35.61A17.46,17.46,0,1,0,69,47.73,17.46,17.46,0,0,0,51.51,30.27Z" fill="#0078db"/>
        <path d="M51.51,66.23A18.5,18.5,0,1,1,70,47.73,18.51,18.51,0,0,1,51.51,66.23Zm0-35.61A17.11,17.11,0,1,0,68.62,47.73,17.11,17.11,0,0,0,51.51,30.62Z" fill="#0078db"/>
      </g>
    </g>
    <g>
      <line x1="104.91" y1="14.57" x2="365.49" y2="14.57" fill="none" stroke="#000" stroke-miterlimit="10"/>
      <polygon points="364.39 18.31 370.87 14.57 364.39 10.83 364.39 18.31"/>
    </g>
    <g>
      <line x1="110.29" y1="44.45" x2="370.87" y2="44.45" fill="none" stroke="#000" stroke-miterlimit="10"/>
      <polygon points="111.39 48.19 104.91 44.45 111.39 40.71 111.39 48.19"/>
    </g>
    <g>
      <line x1="104.91" y1="103.88" x2="365.49" y2="103.88" fill="none" stroke="#000" stroke-miterlimit="10"/>
      <polygon points="364.39 107.62 370.87 103.88 364.39 100.14 364.39 107.62"/>
    </g>
    <g>
      <line x1="110.34" y1="140.04" x2="370.91" y2="140.04" fill="none" stroke="#000" stroke-miterlimit="10"/>
      <polygon points="111.43 143.78 104.96 140.04 111.43 136.3 111.43 143.78"/>
    </g>
    <use width="21" height="20" transform="translate(153.64 129.57)" xlink:href="#New_Symbol_44"/>
    <use width="21" height="20" transform="translate(153.64 93.88)" xlink:href="#New_Symbol_43"/>
    <use width="21" height="20" transform="translate(153.64 34.45)" xlink:href="#New_Symbol_42"/>
    <use width="21" height="20" transform="translate(153.64 4.57)" xlink:href="#New_Symbol_41"/>
    <polygon points="187.08 26.58 179.53 32.02 182.41 40.83 191.75 40.83 194.64 32.02 187.08 26.58" fill="#ebebeb" stroke="#000" stroke-miterlimit="10" stroke-width="0.75"/>
  </g>
  <g id="Text">
    <g>
      <path d="M186.69,9.57H185.6l-.89-2.36h-3.56l-.84,2.36h-1.1l3.22-8.4h1Zm-2.3-3.24-1.32-3.58a2.75,2.75,0,0,1-.13-.56h0a2.74,2.74,0,0,1-.13.56l-1.31,3.58Z" fill="#1e1e1e"/>
      <path d="M191.76,9.29a3.1,3.1,0,0,1-1.64.42,2.69,2.69,0,0,1-2.07-.84,3,3,0,0,1-.79-2.16,3.3,3.3,0,0,1,.85-2.38,3,3,0,0,1,2.26-.9,3.24,3.24,0,0,1,1.4.29v1a2.4,2.4,0,0,0-1.43-.47,1.93,1.93,0,0,0-1.51.66,2.5,2.5,0,0,0-.59,1.73,2.36,2.36,0,0,0,.56,1.66,1.87,1.87,0,0,0,1.48.61,2.41,2.41,0,0,0,1.48-.52Z" fill="#1e1e1e"/>
      <path d="M198.22,12.33h-1V8.54h0a2.15,2.15,0,0,1-2.05,1.17,2.26,2.26,0,0,1-1.82-.81,3.28,3.28,0,0,1-.68-2.19,3.6,3.6,0,0,1,.75-2.39,2.51,2.51,0,0,1,2-.89,1.89,1.89,0,0,1,1.78,1h0V3.57h1Zm-1-5.46V6a1.74,1.74,0,0,0-.48-1.24,1.61,1.61,0,0,0-1.23-.51,1.64,1.64,0,0,0-1.37.64,2.85,2.85,0,0,0-.5,1.81,2.48,2.48,0,0,0,.48,1.62,1.58,1.58,0,0,0,1.26.59,1.66,1.66,0,0,0,1.34-.58A2.1,2.1,0,0,0,197.26,6.87Z" fill="#1e1e1e"/>
      <path d="M204.94,9.57h-1v-1h0a2,2,0,0,1-1.85,1.09c-1.43,0-2.15-.85-2.15-2.56V3.57h1V7c0,1.27.48,1.9,1.45,1.9a1.47,1.47,0,0,0,1.16-.52A2,2,0,0,0,204,7V3.57h1Z" fill="#1e1e1e"/>
      <path d="M207.26,2.05a.59.59,0,0,1-.44-.18.61.61,0,0,1-.18-.45.59.59,0,0,1,.18-.44.59.59,0,0,1,.44-.18.6.6,0,0,1,.44.18.56.56,0,0,1,.19.44.56.56,0,0,1-.19.44A.61.61,0,0,1,207.26,2.05Zm.46,7.52h-1v-6h1Z" fill="#1e1e1e"/>
      <path d="M212.68,4.54a1.18,1.18,0,0,0-.73-.19,1.2,1.2,0,0,0-1,.58,2.62,2.62,0,0,0-.42,1.58V9.57h-1v-6h1V4.81h0a2,2,0,0,1,.62-1,1.45,1.45,0,0,1,1-.36,1.41,1.41,0,0,1,.57.09Z" fill="#1e1e1e"/>
      <path d="M218.56,6.81h-4.24a2.3,2.3,0,0,0,.54,1.55,1.88,1.88,0,0,0,1.42.54,2.89,2.89,0,0,0,1.86-.67v.91a3.47,3.47,0,0,1-2.09.57,2.53,2.53,0,0,1-2-.82,3.35,3.35,0,0,1-.72-2.3,3.28,3.28,0,0,1,.79-2.28,2.54,2.54,0,0,1,2-.88,2.26,2.26,0,0,1,1.83.76,3.18,3.18,0,0,1,.64,2.12Zm-1-.82a2,2,0,0,0-.41-1.29,1.35,1.35,0,0,0-1.09-.46,1.57,1.57,0,0,0-1.16.48A2.18,2.18,0,0,0,214.34,6Z" fill="#1e1e1e"/>
      <path d="M226.08,9.51a1.76,1.76,0,0,1-.89.19c-1.05,0-1.58-.59-1.58-1.76V4.39h-1V3.57h1V2.1l1-.31V3.57h1.51v.82h-1.51V7.77a1.37,1.37,0,0,0,.21.86.81.81,0,0,0,.68.26,1,1,0,0,0,.62-.2Z" fill="#1e1e1e"/>
      <path d="M229.74,9.71a2.79,2.79,0,0,1-2.12-.84,3.12,3.12,0,0,1-.8-2.23,3.23,3.23,0,0,1,.83-2.36,3,3,0,0,1,2.23-.85,2.69,2.69,0,0,1,2.1.82,3.32,3.32,0,0,1,.75,2.3,3.25,3.25,0,0,1-.81,2.3A2.87,2.87,0,0,1,229.74,9.71Zm.07-5.47a1.83,1.83,0,0,0-1.46.63,2.58,2.58,0,0,0-.54,1.73,2.49,2.49,0,0,0,.54,1.69,1.86,1.86,0,0,0,1.46.61,1.79,1.79,0,0,0,1.44-.6,2.65,2.65,0,0,0,.5-1.72,2.66,2.66,0,0,0-.5-1.73A1.76,1.76,0,0,0,229.81,4.24Z" fill="#1e1e1e"/>
      <path d="M239.19,9.57h-1.34L235.2,6.69h0V9.57h-1V.69h1V6.32h0l2.52-2.75H239l-2.79,2.89Z" fill="#1e1e1e"/>
      <path d="M244.71,6.81h-4.24A2.3,2.3,0,0,0,241,8.36a1.88,1.88,0,0,0,1.42.54,2.89,2.89,0,0,0,1.86-.67v.91a3.47,3.47,0,0,1-2.09.57,2.53,2.53,0,0,1-2-.82,3.35,3.35,0,0,1-.72-2.3,3.28,3.28,0,0,1,.79-2.28,2.54,2.54,0,0,1,2-.88,2.26,2.26,0,0,1,1.83.76,3.18,3.18,0,0,1,.64,2.12Zm-1-.82a2,2,0,0,0-.41-1.29,1.35,1.35,0,0,0-1.09-.46,1.57,1.57,0,0,0-1.16.48A2.24,2.24,0,0,0,240.49,6Z" fill="#1e1e1e"/>
      <path d="M251.14,9.57h-1V6.15c0-1.28-.46-1.91-1.39-1.91a1.5,1.5,0,0,0-1.19.54,2,2,0,0,0-.48,1.37V9.57h-1v-6h1v1h0a2.17,2.17,0,0,1,2-1.13,1.84,1.84,0,0,1,1.5.63,2.84,2.84,0,0,1,.52,1.84Z" fill="#1e1e1e"/>
    </g>
    <g>
      <path d="M205.62,38.3h-1.09l-.89-2.36h-3.56l-.84,2.36h-1.1l3.23-8.41h1Zm-2.3-3.24L202,31.48a3.55,3.55,0,0,1-.13-.57h0a3.38,3.38,0,0,1-.14.57l-1.3,3.58Z" fill="#1e1e1e"/>
      <path d="M210.69,38a3.1,3.1,0,0,1-1.64.42A2.69,2.69,0,0,1,207,37.6a3,3,0,0,1-.79-2.16,3.33,3.33,0,0,1,.85-2.39,3,3,0,0,1,2.27-.9,3.09,3.09,0,0,1,1.39.3v1a2.45,2.45,0,0,0-1.43-.47,2,2,0,0,0-1.51.66,2.52,2.52,0,0,0-.59,1.73,2.39,2.39,0,0,0,.56,1.67,1.92,1.92,0,0,0,1.48.61,2.45,2.45,0,0,0,1.48-.52Z" fill="#1e1e1e"/>
      <path d="M216.1,38a3.14,3.14,0,0,1-1.65.42,2.72,2.72,0,0,1-2.07-.84,3,3,0,0,1-.78-2.16,3.37,3.37,0,0,1,.84-2.39,3,3,0,0,1,2.27-.9,3.13,3.13,0,0,1,1.4.3v1a2.49,2.49,0,0,0-1.43-.47,1.92,1.92,0,0,0-1.51.66,2.52,2.52,0,0,0-.59,1.73,2.39,2.39,0,0,0,.55,1.67,1.94,1.94,0,0,0,1.49.61,2.49,2.49,0,0,0,1.48-.52Z" fill="#1e1e1e"/>
      <path d="M222.25,35.54H218a2.27,2.27,0,0,0,.54,1.54,1.85,1.85,0,0,0,1.42.55,3,3,0,0,0,1.86-.67v.9a3.48,3.48,0,0,1-2.09.58,2.58,2.58,0,0,1-2-.82,3.37,3.37,0,0,1-.72-2.3,3.26,3.26,0,0,1,.79-2.28,2.55,2.55,0,0,1,2-.89,2.26,2.26,0,0,1,1.83.77,3.15,3.15,0,0,1,.64,2.11Zm-1-.82a2,2,0,0,0-.4-1.29,1.38,1.38,0,0,0-1.1-.47,1.58,1.58,0,0,0-1.16.49,2.21,2.21,0,0,0-.58,1.27Z" fill="#1e1e1e"/>
      <path d="M223.33,38.08v-1a2.85,2.85,0,0,0,1.72.58c.85,0,1.27-.28,1.27-.85a.72.72,0,0,0-.11-.4,1.17,1.17,0,0,0-.29-.3,2.27,2.27,0,0,0-.44-.23l-.53-.21c-.27-.11-.5-.22-.7-.32a2.23,2.23,0,0,1-.51-.37,1.41,1.41,0,0,1-.3-.46,1.57,1.57,0,0,1-.1-.6,1.44,1.44,0,0,1,.19-.75,1.67,1.67,0,0,1,.52-.54,2.21,2.21,0,0,1,.73-.33,3.06,3.06,0,0,1,.85-.12,3.46,3.46,0,0,1,1.4.27v1A2.72,2.72,0,0,0,225.5,33,1.8,1.8,0,0,0,225,33a1.16,1.16,0,0,0-.37.18.66.66,0,0,0-.24.26.7.7,0,0,0-.09.35.8.8,0,0,0,.09.39.74.74,0,0,0,.25.28,1.59,1.59,0,0,0,.39.22l.54.22c.26.1.5.21.71.31a2.44,2.44,0,0,1,.54.37,1.38,1.38,0,0,1,.34.46,1.54,1.54,0,0,1,.12.63,1.47,1.47,0,0,1-.19.77,1.74,1.74,0,0,1-.53.55,2.54,2.54,0,0,1-.75.32,3.82,3.82,0,0,1-.9.11A3.34,3.34,0,0,1,223.33,38.08Z" fill="#1e1e1e"/>
      <path d="M228.42,38.08v-1a2.88,2.88,0,0,0,1.73.58c.84,0,1.26-.28,1.26-.85a.72.72,0,0,0-.11-.4,1.17,1.17,0,0,0-.29-.3,2.18,2.18,0,0,0-.43-.23l-.54-.21c-.27-.11-.5-.22-.7-.32a2,2,0,0,1-.5-.37,1.29,1.29,0,0,1-.31-.46,1.57,1.57,0,0,1-.1-.6,1.44,1.44,0,0,1,.19-.75,1.67,1.67,0,0,1,.52-.54,2.21,2.21,0,0,1,.73-.33,3.08,3.08,0,0,1,.86-.12,3.45,3.45,0,0,1,1.39.27v1A2.71,2.71,0,0,0,230.6,33a1.83,1.83,0,0,0-.49.06,1.28,1.28,0,0,0-.37.18.66.66,0,0,0-.24.26.7.7,0,0,0-.09.35.8.8,0,0,0,.09.39.74.74,0,0,0,.25.28,1.67,1.67,0,0,0,.4.22l.53.22c.26.1.5.21.71.31a2.44,2.44,0,0,1,.54.37,1.41,1.41,0,0,1,.35.46,1.54,1.54,0,0,1,.12.63,1.47,1.47,0,0,1-.2.77,1.74,1.74,0,0,1-.53.55,2.43,2.43,0,0,1-.75.32,3.82,3.82,0,0,1-.9.11A3.37,3.37,0,0,1,228.42,38.08Z" fill="#1e1e1e"/>
      <path d="M239.94,38.24a1.87,1.87,0,0,1-.89.18c-1.06,0-1.58-.58-1.58-1.75V33.12h-1V32.3h1V30.83l1-.31V32.3h1.51v.82h-1.51V36.5a1.37,1.37,0,0,0,.21.86.81.81,0,0,0,.68.26,1,1,0,0,0,.62-.2Z" fill="#1e1e1e"/>
      <path d="M243.6,38.44a2.77,2.77,0,0,1-2.12-.84,3.14,3.14,0,0,1-.8-2.23,3.27,3.27,0,0,1,.83-2.37,3,3,0,0,1,2.23-.85,2.71,2.71,0,0,1,2.1.83,3.29,3.29,0,0,1,.75,2.29,3.21,3.21,0,0,1-.81,2.3A2.84,2.84,0,0,1,243.6,38.44Zm.07-5.48a1.81,1.81,0,0,0-1.46.63,2.59,2.59,0,0,0-.54,1.74,2.46,2.46,0,0,0,.54,1.68,1.87,1.87,0,0,0,1.46.62A1.73,1.73,0,0,0,245.1,37a2.57,2.57,0,0,0,.51-1.71,2.65,2.65,0,0,0-.51-1.74A1.76,1.76,0,0,0,243.67,33Z" fill="#1e1e1e"/>
      <path d="M253.05,38.3H251.7l-2.65-2.89h0V38.3h-1V29.41h1V35h0l2.52-2.74h1.26l-2.78,2.89Z" fill="#1e1e1e"/>
      <path d="M258.57,35.54h-4.24a2.27,2.27,0,0,0,.54,1.54,1.84,1.84,0,0,0,1.42.55,3,3,0,0,0,1.86-.67v.9a3.5,3.5,0,0,1-2.09.58,2.56,2.56,0,0,1-2-.82,3.37,3.37,0,0,1-.72-2.3,3.26,3.26,0,0,1,.79-2.28,2.55,2.55,0,0,1,2-.89,2.24,2.24,0,0,1,1.82.77,3.15,3.15,0,0,1,.65,2.11Zm-1-.82a1.88,1.88,0,0,0-.4-1.29,1.36,1.36,0,0,0-1.1-.47,1.57,1.57,0,0,0-1.15.49,2.22,2.22,0,0,0-.59,1.27Z" fill="#1e1e1e"/>
      <path d="M265,38.3h-1V34.87c0-1.27-.46-1.91-1.39-1.91a1.52,1.52,0,0,0-1.2.55,2,2,0,0,0-.47,1.36V38.3h-1v-6h1v1h0a2.16,2.16,0,0,1,2-1.14,1.86,1.86,0,0,1,1.51.64,2.82,2.82,0,0,1,.52,1.84Z" fill="#1e1e1e"/>
    </g>
    <g>
      <path d="M186.5,134.52h-1v-3.83h-4.35v3.83h-1v-8.4h1v3.69h4.35v-3.69h1Z" fill="#1e1e1e"/>
      <path d="M193.55,127h-2.43v7.51h-1V127h-2.42v-.89h5.83Z" fill="#1e1e1e"/>
      <path d="M200.15,127h-2.43v7.51h-1V127h-2.42v-.89h5.83Z" fill="#1e1e1e"/>
      <path d="M202.33,131.35v3.17h-1v-8.4h2.31a3,3,0,0,1,2.09.66,2.34,2.34,0,0,1,.74,1.85,2.58,2.58,0,0,1-.82,2,3.19,3.19,0,0,1-2.23.76Zm0-4.34v3.45h1a2.3,2.3,0,0,0,1.55-.47,1.64,1.64,0,0,0,.54-1.31c0-1.11-.66-1.67-2-1.67Z" fill="#1e1e1e"/>
      <path d="M214.36,129.5a1.18,1.18,0,0,0-.73-.2,1.25,1.25,0,0,0-1,.58,2.74,2.74,0,0,0-.41,1.58v3.06h-1v-6h1v1.24h0a2.17,2.17,0,0,1,.63-1,1.46,1.46,0,0,1,.94-.35,1.75,1.75,0,0,1,.58.08Z" fill="#1e1e1e"/>
      <path d="M220.24,131.76H216a2.28,2.28,0,0,0,.54,1.55,1.87,1.87,0,0,0,1.42.55,3,3,0,0,0,1.86-.67v.9a3.5,3.5,0,0,1-2.09.57,2.54,2.54,0,0,1-2-.81,3.37,3.37,0,0,1-.73-2.3,3.29,3.29,0,0,1,.8-2.29,2.56,2.56,0,0,1,2-.88,2.28,2.28,0,0,1,1.82.76,3.2,3.2,0,0,1,.65,2.12Zm-1-.81a2,2,0,0,0-.4-1.3,1.39,1.39,0,0,0-1.1-.46,1.52,1.52,0,0,0-1.15.49A2.22,2.22,0,0,0,216,131Z" fill="#1e1e1e"/>
      <path d="M221.31,134.31v-1a2.88,2.88,0,0,0,1.73.58c.84,0,1.26-.29,1.26-.85a.78.78,0,0,0-.1-.41,1,1,0,0,0-.3-.29,1.93,1.93,0,0,0-.43-.23l-.54-.22a5.79,5.79,0,0,1-.7-.32,1.74,1.74,0,0,1-.5-.36,1.26,1.26,0,0,1-.3-.46,1.57,1.57,0,0,1-.11-.6,1.45,1.45,0,0,1,.2-.75,1.55,1.55,0,0,1,.51-.54,2.51,2.51,0,0,1,.74-.34,3.56,3.56,0,0,1,2.24.16v1a2.71,2.71,0,0,0-1.52-.44,1.88,1.88,0,0,0-.49.06,1.16,1.16,0,0,0-.37.18.85.85,0,0,0-.24.26.82.82,0,0,0-.08.35.74.74,0,0,0,.33.67,1.67,1.67,0,0,0,.4.22l.53.22a6.21,6.21,0,0,1,.72.31,2.44,2.44,0,0,1,.54.37,1.36,1.36,0,0,1,.46,1.09,1.5,1.5,0,0,1-.2.77,1.7,1.7,0,0,1-.52.55,2.49,2.49,0,0,1-.76.32,3.68,3.68,0,0,1-.89.1A3.51,3.51,0,0,1,221.31,134.31Z" fill="#1e1e1e"/>
      <path d="M227.64,133.66h0v3.62h-1v-8.76h1v1.06h0a2.28,2.28,0,0,1,2.08-1.2,2.2,2.2,0,0,1,1.81.81,3.37,3.37,0,0,1,.65,2.16,3.71,3.71,0,0,1-.74,2.41,2.42,2.42,0,0,1-2,.9A2,2,0,0,1,227.64,133.66Zm0-2.42v.83a1.81,1.81,0,0,0,.48,1.27,1.73,1.73,0,0,0,2.6-.15,3.09,3.09,0,0,0,.49-1.86,2.41,2.41,0,0,0-.46-1.57,1.53,1.53,0,0,0-1.25-.57,1.73,1.73,0,0,0-1.35.58A2.16,2.16,0,0,0,227.62,131.24Z" fill="#1e1e1e"/>
      <path d="M236.22,134.66a2.77,2.77,0,0,1-2.12-.84,3.11,3.11,0,0,1-.8-2.23,3.26,3.26,0,0,1,.83-2.36,3,3,0,0,1,2.23-.85,2.71,2.71,0,0,1,2.1.83,3.27,3.27,0,0,1,.75,2.29,3.23,3.23,0,0,1-.81,2.3A2.83,2.83,0,0,1,236.22,134.66Zm.07-5.47a1.8,1.8,0,0,0-1.46.63,2.59,2.59,0,0,0-.54,1.74,2.46,2.46,0,0,0,.54,1.68,1.85,1.85,0,0,0,1.46.62,1.76,1.76,0,0,0,1.43-.61,2.57,2.57,0,0,0,.5-1.71,2.65,2.65,0,0,0-.5-1.74A1.73,1.73,0,0,0,236.29,129.19Z" fill="#1e1e1e"/>
      <path d="M245.67,134.52h-1V131.1c0-1.27-.47-1.91-1.4-1.91a1.52,1.52,0,0,0-1.19.54,2,2,0,0,0-.47,1.37v3.42h-1v-6h1v1h0a2.17,2.17,0,0,1,2-1.14,1.83,1.83,0,0,1,1.51.64,2.8,2.8,0,0,1,.52,1.84Z" fill="#1e1e1e"/>
      <path d="M247.09,134.31v-1a2.9,2.9,0,0,0,1.73.58c.84,0,1.27-.29,1.27-.85a.78.78,0,0,0-.11-.41.93.93,0,0,0-.3-.29,1.93,1.93,0,0,0-.43-.23l-.53-.22a6,6,0,0,1-.71-.32,1.88,1.88,0,0,1-.5-.36,1.26,1.26,0,0,1-.3-.46,1.57,1.57,0,0,1-.11-.6,1.45,1.45,0,0,1,.2-.75,1.65,1.65,0,0,1,.51-.54,2.51,2.51,0,0,1,.74-.34,3.41,3.41,0,0,1,.85-.11,3.46,3.46,0,0,1,1.4.27v1a2.74,2.74,0,0,0-1.53-.44,1.75,1.75,0,0,0-.48.06,1.11,1.11,0,0,0-.38.18.85.85,0,0,0-.24.26.82.82,0,0,0-.08.35.74.74,0,0,0,.33.67,1.67,1.67,0,0,0,.4.22l.53.22a6.21,6.21,0,0,1,.72.31,2.44,2.44,0,0,1,.54.37,1.38,1.38,0,0,1,.34.46,1.54,1.54,0,0,1,.12.63,1.41,1.41,0,0,1-.2.77,1.7,1.7,0,0,1-.52.55,2.49,2.49,0,0,1-.76.32,3.68,3.68,0,0,1-.89.1A3.54,3.54,0,0,1,247.09,134.31Z" fill="#1e1e1e"/>
      <path d="M257.34,131.76h-4.23a2.19,2.19,0,0,0,.54,1.55,1.85,1.85,0,0,0,1.41.55,3,3,0,0,0,1.87-.67v.9a3.52,3.52,0,0,1-2.09.57,2.54,2.54,0,0,1-2-.81,3.83,3.83,0,0,1,.07-4.59,2.55,2.55,0,0,1,2-.88,2.28,2.28,0,0,1,1.82.76,3.19,3.19,0,0,1,.64,2.12Zm-1-.81a2,2,0,0,0-.4-1.3,1.4,1.4,0,0,0-1.1-.46,1.52,1.52,0,0,0-1.15.49,2.16,2.16,0,0,0-.59,1.27Z" fill="#1e1e1e"/>
    </g>
    <g>
      <path d="M404.87,118.25H403v-5c0-.54,0-1.14.07-1.8h0a8.14,8.14,0,0,1-.27,1.11l-2,5.72h-1.54l-2-5.66c-.05-.15-.14-.54-.26-1.17h-.05c.05.83.07,1.55.07,2.18v4.65h-1.7v-8.41h2.77l1.72,5a7.34,7.34,0,0,1,.29,1.21h0c.1-.47.22-.87.33-1.22l1.72-5h2.7Z" fill="#0072c6"/>
      <path d="M407.48,111.3a1.12,1.12,0,0,1-.77-.28.9.9,0,0,1-.3-.68.85.85,0,0,1,.3-.68,1.11,1.11,0,0,1,.77-.27,1.1,1.1,0,0,1,.77.27.85.85,0,0,1,.3.68.89.89,0,0,1-.3.69A1.1,1.1,0,0,1,407.48,111.3Zm.91,7h-1.85v-6h1.85Z" fill="#0072c6"/>
      <path d="M414.47,118a3.69,3.69,0,0,1-1.81.36,3.06,3.06,0,0,1-2.24-.84,2.86,2.86,0,0,1-.85-2.16,3.19,3.19,0,0,1,.91-2.41,3.4,3.4,0,0,1,2.46-.88,3.1,3.1,0,0,1,1.53.28V114a2.09,2.09,0,0,0-1.29-.43,1.82,1.82,0,0,0-1.29,3,1.66,1.66,0,0,0,1.23.45,2.42,2.42,0,0,0,1.35-.43Z" fill="#0072c6"/>
      <path d="M419.7,113.92a1.55,1.55,0,0,0-.78-.19,1.12,1.12,0,0,0-.95.45,1.94,1.94,0,0,0-.34,1.2v2.87h-1.85v-6h1.85v1.11h0a1.6,1.6,0,0,1,1.58-1.22,1.17,1.17,0,0,1,.46.07Z" fill="#0072c6"/>
      <path d="M423.5,118.39a3.23,3.23,0,0,1-2.36-.84,3.47,3.47,0,0,1,0-4.61,3.38,3.38,0,0,1,2.41-.84,3.16,3.16,0,0,1,2.34.84,3,3,0,0,1,.85,2.22,3.2,3.2,0,0,1-.87,2.37A3.31,3.31,0,0,1,423.5,118.39Zm.05-4.87a1.23,1.23,0,0,0-1,.45,2,2,0,0,0-.37,1.28c0,1.15.47,1.72,1.4,1.72s1.33-.59,1.33-1.77S424.44,113.52,423.55,113.52Z" fill="#0072c6"/>
      <path d="M427.63,118.09v-1.5a4.06,4.06,0,0,0,.91.41,3,3,0,0,0,.86.13,1.86,1.86,0,0,0,.78-.13.45.45,0,0,0,.28-.41.38.38,0,0,0-.13-.3,1.7,1.7,0,0,0-.33-.2l-.44-.16-.47-.16a4.6,4.6,0,0,1-.63-.29,1.62,1.62,0,0,1-.45-.36,1.18,1.18,0,0,1-.28-.47,1.76,1.76,0,0,1-.1-.64,1.61,1.61,0,0,1,.22-.87,1.82,1.82,0,0,1,.58-.59,2.6,2.6,0,0,1,.84-.34,4.53,4.53,0,0,1,1-.11,5.52,5.52,0,0,1,.81.06,5.3,5.3,0,0,1,.81.18v1.43a2.76,2.76,0,0,0-.75-.31,3.11,3.11,0,0,0-.79-.1,1.87,1.87,0,0,0-.34,0,.91.91,0,0,0-.29.1.58.58,0,0,0-.19.15.36.36,0,0,0-.07.22.36.36,0,0,0,.11.28,1,1,0,0,0,.27.21l.38.15.41.14a4.66,4.66,0,0,1,.67.28,1.94,1.94,0,0,1,.51.36,1.37,1.37,0,0,1,.33.48,1.61,1.61,0,0,1,.11.65,1.64,1.64,0,0,1-.23.91,1.81,1.81,0,0,1-.61.62,2.7,2.7,0,0,1-.89.34,4.42,4.42,0,0,1-1,.11A5.4,5.4,0,0,1,427.63,118.09Z" fill="#0072c6"/>
      <path d="M436.2,118.39a3.24,3.24,0,0,1-2.36-.84,3.46,3.46,0,0,1,0-4.61,3.34,3.34,0,0,1,2.4-.84,3.2,3.2,0,0,1,2.35.84,3,3,0,0,1,.85,2.22,3.21,3.21,0,0,1-.88,2.37A3.28,3.28,0,0,1,436.2,118.39Zm.05-4.87a1.23,1.23,0,0,0-1,.45,2,2,0,0,0-.36,1.28c0,1.15.46,1.72,1.39,1.72s1.33-.59,1.33-1.77S437.14,113.52,436.25,113.52Z" fill="#0072c6"/>
      <path d="M444.55,110.78a2,2,0,0,0-.69-.14c-.59,0-.89.32-.89,1v.64h1.37v1.36H443v4.64h-1.85v-4.64h-1v-1.36h1v-.75a2.18,2.18,0,0,1,.67-1.65,2.55,2.55,0,0,1,1.82-.63,3.16,3.16,0,0,1,.94.12Z" fill="#0072c6"/>
      <path d="M449.1,118.18a2.78,2.78,0,0,1-1.23.21,1.76,1.76,0,0,1-2-2v-2.75h-1v-1.36h1V111l1.85-.53v1.83h1.34v1.36h-1.34V116c0,.62.25.93.74.93a1.14,1.14,0,0,0,.6-.17Z" fill="#0072c6"/>
      <path d="M401.16,132.08a6,6,0,0,1-3.06.71,4.43,4.43,0,0,1-3.2-1.12,4.08,4.08,0,0,1-1.17-3.09,4.32,4.32,0,0,1,1.28-3.23,4.66,4.66,0,0,1,3.4-1.25,7,7,0,0,1,2.35.37v1.78a4.63,4.63,0,0,0-2.38-.56,2.53,2.53,0,0,0-1.91.76,2.79,2.79,0,0,0-.75,2,2.85,2.85,0,0,0,.67,2,2.34,2.34,0,0,0,1.79.71,2.45,2.45,0,0,0,1.08-.2v-1.64h-1.68v-1.51h3.58Z" fill="#0072c6"/>
      <path d="M406.59,128.32a1.61,1.61,0,0,0-.78-.19,1.1,1.1,0,0,0-.94.45,1.88,1.88,0,0,0-.34,1.2v2.87h-1.85v-6h1.85v1.11h0a1.6,1.6,0,0,1,1.58-1.22,1.14,1.14,0,0,1,.46.07Z" fill="#0072c6"/>
      <path d="M412.36,132.65h-1.75v-.86h0a2,2,0,0,1-1.79,1,1.85,1.85,0,0,1-1.37-.49,1.76,1.76,0,0,1-.51-1.32c0-1.17.69-1.84,2.07-2l1.63-.22c0-.65-.35-1-1.07-1a3.58,3.58,0,0,0-2,.64V127a4.57,4.57,0,0,1,1.05-.35,5.71,5.71,0,0,1,1.23-.15,2.26,2.26,0,0,1,2.56,2.56Zm-1.74-2.44v-.41l-1.09.15q-.9.11-.9.81a.67.67,0,0,0,.22.52.86.86,0,0,0,.59.2,1.1,1.1,0,0,0,.85-.36A1.29,1.29,0,0,0,410.62,130.21Z" fill="#0072c6"/>
      <path d="M415.7,132h0v3.46h-1.85v-8.76h1.85v.9h0a2.36,2.36,0,0,1,3.73-.25,3.43,3.43,0,0,1,.64,2.18,3.68,3.68,0,0,1-.74,2.4,2.43,2.43,0,0,1-2,.91A1.87,1.87,0,0,1,415.7,132Zm-.05-2.46V130a1.52,1.52,0,0,0,.33,1,1.07,1.07,0,0,0,.86.4,1.15,1.15,0,0,0,1-.49,2.4,2.4,0,0,0,.35-1.39c0-1.05-.41-1.58-1.23-1.58a1.15,1.15,0,0,0-.93.43A1.73,1.73,0,0,0,415.65,129.49Z" fill="#0072c6"/>
      <path d="M427.05,132.65h-1.84v-3.41c0-.88-.32-1.32-1-1.32a1,1,0,0,0-.79.37,1.38,1.38,0,0,0-.31.93v3.43h-1.85v-8.89h1.85v3.78h0a2.09,2.09,0,0,1,1.84-1q2,0,2,2.46Z" fill="#0072c6"/>
      <path d="M439.4,132.65h-2.07l-.59-1.87h-3l-.59,1.87h-2.05l3.05-8.41h2.25Zm-3.1-3.33-.9-2.82a3.57,3.57,0,0,1-.14-.76h-.05a3.86,3.86,0,0,1-.14.74l-.92,2.84Z" fill="#0072c6"/>
      <path d="M442.24,129.75v2.9h-1.89v-8.41h3c2.11,0,3.17.9,3.17,2.68a2.55,2.55,0,0,1-.91,2,3.62,3.62,0,0,1-2.43.78Zm0-4v2.62H443c1,0,1.51-.44,1.51-1.33s-.5-1.29-1.51-1.29Z" fill="#0072c6"/>
      <path d="M449.46,132.65h-1.9v-8.41h1.9Z" fill="#0072c6"/>
    </g>
    <g>
      <path d="M26.41,99.38a1.07,1.07,0,0,1-.76-.28.9.9,0,0,1-.31-.69.87.87,0,0,1,.32-.69,1.16,1.16,0,0,1,.78-.27,1.14,1.14,0,0,1,.78.27.9.9,0,0,1,.3.69.87.87,0,0,1-.31.7A1.16,1.16,0,0,1,26.41,99.38Z" fill="#1e1e1e"/>
      <path d="M36.63,99.24H34.72L31.25,94c-.2-.31-.34-.54-.42-.7h0c0,.3.05.75.05,1.36v4.62H29.07v-8.4h2L34.44,96q.23.35.42.69h0a9.13,9.13,0,0,1,0-1.16V90.84h1.79Z" fill="#1e1e1e"/>
      <path d="M43.49,99.24h-5v-8.4H43.3v1.54H40.35v1.87H43.1v1.53H40.35V97.7h3.14Z" fill="#1e1e1e"/>
      <path d="M50.79,92.38h-2.4v6.86H46.5V92.38H44.11V90.84h6.68Z" fill="#1e1e1e"/>
      <path d="M61.26,98.94a5.55,5.55,0,0,1-2.41.44,4,4,0,0,1-3-1.13,4.15,4.15,0,0,1-1.1-3A4.45,4.45,0,0,1,56,92a4.34,4.34,0,0,1,3.23-1.25,6,6,0,0,1,2.08.31v1.82a3.69,3.69,0,0,0-1.93-.51,2.56,2.56,0,0,0-1.91.75,3.15,3.15,0,0,0,0,4,2.45,2.45,0,0,0,1.85.72,4,4,0,0,0,2-.54Z" fill="#1e1e1e"/>
      <path d="M65.33,99.38A3.23,3.23,0,0,1,63,98.54a3.47,3.47,0,0,1,0-4.61,3.38,3.38,0,0,1,2.41-.84,3.2,3.2,0,0,1,2.35.84,3,3,0,0,1,.84,2.23,3.19,3.19,0,0,1-.87,2.36A3.25,3.25,0,0,1,65.33,99.38Zm0-4.87a1.23,1.23,0,0,0-1,.45A2,2,0,0,0,64,96.24c0,1.15.47,1.73,1.4,1.73s1.33-.59,1.33-1.78S66.27,94.51,65.38,94.51Z" fill="#1e1e1e"/>
      <path d="M73.71,94.91a1.61,1.61,0,0,0-.78-.18,1.11,1.11,0,0,0-.94.44,1.9,1.9,0,0,0-.34,1.2v2.87H69.8v-6h1.85v1.11h0a1.61,1.61,0,0,1,1.58-1.22,1.35,1.35,0,0,1,.46.07Z" fill="#1e1e1e"/>
      <path d="M80,96.77H76.12c.07.87.62,1.3,1.65,1.3a3.15,3.15,0,0,0,1.74-.47v1.34a4.51,4.51,0,0,1-2.16.44,3,3,0,0,1-2.26-.8,3.08,3.08,0,0,1-.8-2.25A3.23,3.23,0,0,1,75.16,94a2.9,2.9,0,0,1,2.13-.87,2.62,2.62,0,0,1,2,.78A3,3,0,0,1,80,96Zm-1.72-1.14c0-.86-.35-1.29-1-1.29a1,1,0,0,0-.77.37,1.68,1.68,0,0,0-.4.92Z" fill="#1e1e1e"/>
      <path d="M16.6,113.64v-8.4h3q4.47,0,4.47,4.09a4.13,4.13,0,0,1-1.22,3.14,4.5,4.5,0,0,1-3.25,1.17Zm1.89-6.86v5.32h.94a2.53,2.53,0,0,0,1.93-.73,2.81,2.81,0,0,0,.7-2,2.52,2.52,0,0,0-.69-1.89,2.64,2.64,0,0,0-1.95-.69Z" fill="#1e1e1e"/>
      <path d="M30.66,111.17H26.74c.07.87.62,1.3,1.65,1.3a3.15,3.15,0,0,0,1.74-.47v1.34a4.5,4.5,0,0,1-2.16.45,2.8,2.8,0,0,1-3.06-3.06,3.19,3.19,0,0,1,.87-2.36,2.87,2.87,0,0,1,2.13-.88,2.62,2.62,0,0,1,2,.78,3,3,0,0,1,.72,2.12ZM28.94,110c0-.86-.35-1.29-1-1.29a1,1,0,0,0-.77.37,1.68,1.68,0,0,0-.4.92Z" fill="#1e1e1e"/>
      <path d="M31.51,113.48V112a4.13,4.13,0,0,0,.92.41,3,3,0,0,0,.85.14,1.84,1.84,0,0,0,.78-.14.43.43,0,0,0,.28-.41.38.38,0,0,0-.12-.29,1.23,1.23,0,0,0-.34-.21,3.72,3.72,0,0,0-.44-.16c-.16,0-.31-.1-.46-.15a4.68,4.68,0,0,1-.63-.29,2.16,2.16,0,0,1-.46-.36,1.64,1.64,0,0,1-.28-.48,2,2,0,0,1-.1-.64,1.69,1.69,0,0,1,.22-.86,1.78,1.78,0,0,1,.59-.6,2.64,2.64,0,0,1,.84-.34,4.46,4.46,0,0,1,1-.11,5.73,5.73,0,0,1,.81.06,5.88,5.88,0,0,1,.81.18v1.43a3.37,3.37,0,0,0-.76-.31,3.55,3.55,0,0,0-.78-.1,1.9,1.9,0,0,0-.35,0,1.51,1.51,0,0,0-.28.1.53.53,0,0,0-.2.16.38.38,0,0,0-.07.22.41.41,0,0,0,.11.28.88.88,0,0,0,.28.2,1.79,1.79,0,0,0,.37.15l.42.14a6,6,0,0,1,.66.28,2.18,2.18,0,0,1,.52.36,1.37,1.37,0,0,1,.33.48,2,2,0,0,1-.12,1.57,1.9,1.9,0,0,1-.62.61,2.89,2.89,0,0,1-.88.35,5.1,5.1,0,0,1-1,.11A5.51,5.51,0,0,1,31.51,113.48Z" fill="#1e1e1e"/>
      <path d="M43.26,113.64H41l-1.92-3h0v3H37.25v-8.88H39.1v5.65h0l1.79-2.77h2.2L41,110.46Z" fill="#1e1e1e"/>
      <path d="M47.85,113.57a2.83,2.83,0,0,1-1.24.22c-1.3,0-2-.68-2-2V109h-1v-1.36h1v-1.3l1.85-.52v1.82h1.35V109H46.5v2.43c0,.62.25.94.74.94a1.31,1.31,0,0,0,.61-.17Z" fill="#1e1e1e"/>
      <path d="M51.74,113.79a3.25,3.25,0,0,1-2.36-.85,3.49,3.49,0,0,1,0-4.61,3.34,3.34,0,0,1,2.4-.84,3.2,3.2,0,0,1,2.35.84,3,3,0,0,1,.85,2.23,3.16,3.16,0,0,1-.88,2.36A3.24,3.24,0,0,1,51.74,113.79Zm0-4.88a1.23,1.23,0,0,0-1,.45,2,2,0,0,0-.36,1.28c0,1.15.46,1.73,1.39,1.73s1.33-.59,1.33-1.78S52.68,108.91,51.79,108.91Z" fill="#1e1e1e"/>
      <path d="M58.09,112.94h0v3.46H56.21v-8.76h1.85v.9h0a2.35,2.35,0,0,1,3.72-.25,3.39,3.39,0,0,1,.64,2.18,3.73,3.73,0,0,1-.74,2.41,2.43,2.43,0,0,1-2,.91A1.86,1.86,0,0,1,58.09,112.94ZM58,110.48V111a1.5,1.5,0,0,0,.33,1,1.06,1.06,0,0,0,.86.4,1.15,1.15,0,0,0,1-.49,2.32,2.32,0,0,0,.35-1.39c0-1-.41-1.58-1.23-1.58a1.15,1.15,0,0,0-.93.43A1.73,1.73,0,0,0,58,110.48Z" fill="#1e1e1e"/>
      <path d="M74.53,113.64H72.47l-.6-1.87h-3l-.59,1.87H66.24l3.06-8.4h2.24Zm-3.09-3.32-.9-2.83a3,3,0,0,1-.14-.75h-.05a3.16,3.16,0,0,1-.15.73l-.91,2.85Z" fill="#1e1e1e"/>
      <path d="M77.27,112.94h0v3.46H75.4v-8.76h1.85v.9h0a2.36,2.36,0,0,1,3.73-.25,3.39,3.39,0,0,1,.64,2.18,3.73,3.73,0,0,1-.74,2.41,2.44,2.44,0,0,1-2,.91A1.88,1.88,0,0,1,77.27,112.94Zm0-2.46V111a1.5,1.5,0,0,0,.33,1,1.06,1.06,0,0,0,.86.4,1.15,1.15,0,0,0,1-.49,2.32,2.32,0,0,0,.35-1.39c0-1-.41-1.58-1.23-1.58a1.15,1.15,0,0,0-.93.43A1.73,1.73,0,0,0,77.22,110.48Z" fill="#1e1e1e"/>
      <path d="M84.74,112.94h0v3.46H82.86v-8.76h1.86v.9h0a2.36,2.36,0,0,1,3.73-.25,3.45,3.45,0,0,1,.63,2.18,3.67,3.67,0,0,1-.74,2.41,2.43,2.43,0,0,1-2,.91A1.88,1.88,0,0,1,84.74,112.94Zm0-2.46V111a1.55,1.55,0,0,0,.32,1,1.06,1.06,0,0,0,.87.4,1.16,1.16,0,0,0,1-.49,2.4,2.4,0,0,0,.35-1.39c0-1-.41-1.58-1.23-1.58a1.15,1.15,0,0,0-.93.43A1.73,1.73,0,0,0,84.69,110.48Z" fill="#1e1e1e"/>
      <path d="M8.53,130H7a7.36,7.36,0,0,1-1.89-5.13A7.81,7.81,0,0,1,7,119.64h1.5a8.41,8.41,0,0,0-1.77,5.18A8.14,8.14,0,0,0,8.53,130Z" fill="#1e1e1e"/>
      <path d="M17.05,128H15.14l-3.46-5.28a6.76,6.76,0,0,1-.43-.7h0c0,.3,0,.75,0,1.36V128H9.49v-8.4h2l3.33,5.11c.15.23.3.46.42.69h0a9.13,9.13,0,0,1-.05-1.16v-4.64h1.79Z" fill="#1e1e1e"/>
      <path d="M21.6,128.18a3.2,3.2,0,0,1-2.35-.84,3.47,3.47,0,0,1,0-4.61,3.35,3.35,0,0,1,2.41-.84,3.19,3.19,0,0,1,2.34.84,3,3,0,0,1,.85,2.23,3.16,3.16,0,0,1-.88,2.36A3.24,3.24,0,0,1,21.6,128.18Zm0-4.87a1.23,1.23,0,0,0-1,.45,2,2,0,0,0-.36,1.28c0,1.15.46,1.73,1.39,1.73S23,126.17,23,125,22.55,123.31,21.65,123.31Z" fill="#1e1e1e"/>
      <path d="M31.87,128H30V124.7c0-.93-.33-1.39-1-1.39a1,1,0,0,0-.8.37,1.44,1.44,0,0,0-.31.94V128H26.07v-6h1.85V123h0a2.12,2.12,0,0,1,1.93-1.1c1.32,0,2,.83,2,2.47Z" fill="#1e1e1e"/>
      <path d="M36.52,125.48H33.31v-1.29h3.21Z" fill="#1e1e1e"/>
      <path d="M38.87,121.09a1.05,1.05,0,0,1-.76-.28.88.88,0,0,1-.3-.68.85.85,0,0,1,.3-.68,1.22,1.22,0,0,1,1.53,0,.85.85,0,0,1,.3.68.89.89,0,0,1-.3.69A1.08,1.08,0,0,1,38.87,121.09Zm.92,6.95H37.94v-6h1.85Z" fill="#1e1e1e"/>
      <path d="M47.12,128H45.27V124.7c0-.93-.33-1.39-1-1.39a1,1,0,0,0-.79.37,1.38,1.38,0,0,0-.31.94V128H41.33v-6h1.85V123h0a2.12,2.12,0,0,1,1.93-1.1c1.33,0,2,.83,2,2.47Z" fill="#1e1e1e"/>
      <path d="M52.14,128a2.78,2.78,0,0,1-1.23.21c-1.31,0-2-.67-2-2V123.4H48V122h1v-1.3l1.85-.52V122h1.34v1.36H50.8v2.43c0,.62.24.94.74.94a1.24,1.24,0,0,0,.6-.17Z" fill="#1e1e1e"/>
      <path d="M58.57,125.57H54.65c.07.87.62,1.3,1.65,1.3A3.15,3.15,0,0,0,58,126.4v1.34a4.51,4.51,0,0,1-2.16.44,3,3,0,0,1-2.26-.8,3.08,3.08,0,0,1-.8-2.25,3.23,3.23,0,0,1,.87-2.37,2.9,2.9,0,0,1,2.13-.87,2.62,2.62,0,0,1,2,.78,3,3,0,0,1,.72,2.12Zm-1.72-1.14c0-.86-.35-1.29-1-1.29a1,1,0,0,0-.77.37,1.65,1.65,0,0,0-.4.92Z" fill="#1e1e1e"/>
      <path d="M63.66,123.71a1.61,1.61,0,0,0-.78-.18,1.11,1.11,0,0,0-.94.44,1.9,1.9,0,0,0-.34,1.2V128H59.75v-6H61.6v1.11h0a1.61,1.61,0,0,1,1.58-1.22,1.35,1.35,0,0,1,.46.07Z" fill="#1e1e1e"/>
      <path d="M69.43,128H67.68v-.86h0a2,2,0,0,1-1.79,1,1.85,1.85,0,0,1-1.37-.49,1.75,1.75,0,0,1-.5-1.32c0-1.17.69-1.84,2.07-2l1.62-.21c0-.66-.35-1-1.06-1a3.59,3.59,0,0,0-2,.64V122.4a4.62,4.62,0,0,1,1.06-.36,5.56,5.56,0,0,1,1.22-.15,2.26,2.26,0,0,1,2.56,2.56Zm-1.74-2.44v-.4l-1.09.14q-.9.12-.9.81a.69.69,0,0,0,.22.52.89.89,0,0,0,.6.2,1.11,1.11,0,0,0,.85-.36A1.33,1.33,0,0,0,67.69,125.6Z" fill="#1e1e1e"/>
      <path d="M75.45,127.82a3.66,3.66,0,0,1-1.81.36,3,3,0,0,1-2.23-.83,2.91,2.91,0,0,1-.86-2.17,3.21,3.21,0,0,1,.92-2.41,3.42,3.42,0,0,1,2.45-.88,3.19,3.19,0,0,1,1.53.28v1.57a2.07,2.07,0,0,0-1.29-.43,1.67,1.67,0,0,0-1.26.47,1.72,1.72,0,0,0-.47,1.28,1.69,1.69,0,0,0,.45,1.25,1.59,1.59,0,0,0,1.22.46,2.43,2.43,0,0,0,1.35-.44Z" fill="#1e1e1e"/>
      <path d="M80.38,128a2.85,2.85,0,0,1-1.24.21c-1.31,0-2-.67-2-2V123.4h-1V122h1v-1.3l1.85-.52V122h1.35v1.36H79v2.43c0,.62.25.94.74.94a1.31,1.31,0,0,0,.61-.17Z" fill="#1e1e1e"/>
      <path d="M82.42,121.09a1.05,1.05,0,0,1-.76-.28.88.88,0,0,1-.3-.68.85.85,0,0,1,.3-.68,1.22,1.22,0,0,1,1.53,0,.85.85,0,0,1,.3.68.89.89,0,0,1-.3.69A1.08,1.08,0,0,1,82.42,121.09Zm.92,6.95H81.49v-6h1.85Z" fill="#1e1e1e"/>
      <path d="M90.64,122l-2.24,6H86.29l-2.12-6h2l1,3.7a5.17,5.17,0,0,1,.21,1.06h0a6,6,0,0,1,.22-1L88.7,122Z" fill="#1e1e1e"/>
      <path d="M96.63,125.57H92.72c.06.87.61,1.3,1.65,1.3a3.15,3.15,0,0,0,1.74-.47v1.34a4.56,4.56,0,0,1-2.16.44,2.78,2.78,0,0,1-3.06-3.05,3.27,3.27,0,0,1,.86-2.37,2.9,2.9,0,0,1,2.14-.87,2.63,2.63,0,0,1,2,.78,3,3,0,0,1,.71,2.12Zm-1.71-1.14q0-1.29-1-1.29a1,1,0,0,0-.77.37,1.71,1.71,0,0,0-.39.92Z" fill="#1e1e1e"/>
      <path d="M98.14,130h-1.5a8.13,8.13,0,0,0,1.79-5.13,8.4,8.4,0,0,0-1.79-5.18h1.51a7.84,7.84,0,0,1,1.9,5.18A7.4,7.4,0,0,1,98.14,130Z" fill="#1e1e1e"/>
    </g>
    <g>
      <path d="M406.18,34h-1.87V29c0-.54,0-1.14.07-1.8h-.05a9.23,9.23,0,0,1-.26,1.12l-2,5.71h-1.55l-2-5.65c-.06-.16-.14-.55-.27-1.18h0c0,.83.08,1.56.08,2.18V34H396.6v-8.4h2.77l1.72,5a6.58,6.58,0,0,1,.3,1.2h0a10.27,10.27,0,0,1,.33-1.21l1.72-5h2.7Z" fill="#fff"/>
      <path d="M408.79,27.06a1.06,1.06,0,0,1-.77-.28.88.88,0,0,1-.3-.68.87.87,0,0,1,.3-.68,1.14,1.14,0,0,1,.77-.26,1.16,1.16,0,0,1,.77.26.89.89,0,0,1,.29.68.91.91,0,0,1-.29.69A1.11,1.11,0,0,1,408.79,27.06Zm.91,7h-1.85V28h1.85Z" fill="#fff"/>
      <path d="M415.78,33.79a3.57,3.57,0,0,1-1.81.37,3.06,3.06,0,0,1-2.24-.84,2.9,2.9,0,0,1-.86-2.16,3.18,3.18,0,0,1,.92-2.41,3.38,3.38,0,0,1,2.45-.89,3.13,3.13,0,0,1,1.54.29v1.57a2.13,2.13,0,0,0-1.3-.44,1.71,1.71,0,0,0-1.26.47,1.74,1.74,0,0,0-.47,1.28,1.72,1.72,0,0,0,.45,1.26,1.64,1.64,0,0,0,1.22.45,2.51,2.51,0,0,0,1.36-.43Z" fill="#fff"/>
      <path d="M421,29.68a1.61,1.61,0,0,0-.78-.18,1.14,1.14,0,0,0-.94.44,1.93,1.93,0,0,0-.34,1.21V34h-1.85V28h1.85v1.11h0a1.6,1.6,0,0,1,1.58-1.21A1.14,1.14,0,0,1,421,28Z" fill="#fff"/>
      <path d="M424.8,34.16a3.2,3.2,0,0,1-2.35-.84,3,3,0,0,1-.86-2.29,3,3,0,0,1,.89-2.32,3.31,3.31,0,0,1,2.41-.85,3.16,3.16,0,0,1,2.34.85,3,3,0,0,1,.85,2.22,3.16,3.16,0,0,1-.88,2.36A3.24,3.24,0,0,1,424.8,34.16Zm.05-4.88a1.23,1.23,0,0,0-1,.45,2,2,0,0,0-.36,1.28c0,1.15.46,1.73,1.39,1.73s1.33-.59,1.33-1.78S425.75,29.28,424.85,29.28Z" fill="#fff"/>
      <path d="M428.93,33.85v-1.5a3.72,3.72,0,0,0,.92.41,3,3,0,0,0,.85.14,1.84,1.84,0,0,0,.78-.14.42.42,0,0,0,.28-.41.4.4,0,0,0-.12-.29,1.23,1.23,0,0,0-.34-.21,3.76,3.76,0,0,0-.44-.15l-.46-.16a4.68,4.68,0,0,1-.63-.29,2.45,2.45,0,0,1-.46-.36,1.64,1.64,0,0,1-.28-.48,2,2,0,0,1-.1-.64,1.69,1.69,0,0,1,.22-.86,2,2,0,0,1,.59-.6,2.64,2.64,0,0,1,.84-.34,4.55,4.55,0,0,1,1.79,0,7.78,7.78,0,0,1,.81.17v1.43a2.94,2.94,0,0,0-.76-.3,3.06,3.06,0,0,0-.78-.11,1.29,1.29,0,0,0-.35,0,1.15,1.15,0,0,0-.28.09.43.43,0,0,0-.19.16.34.34,0,0,0-.07.22.4.4,0,0,0,.1.28.88.88,0,0,0,.28.2,2,2,0,0,0,.37.15l.42.14a7.13,7.13,0,0,1,.67.28,2.12,2.12,0,0,1,.51.36,1.58,1.58,0,0,1,.33.48,1.82,1.82,0,0,1,.11.66,1.76,1.76,0,0,1-.23.91,1.9,1.9,0,0,1-.62.61,2.66,2.66,0,0,1-.88.35,5.1,5.1,0,0,1-1,.11A5.27,5.27,0,0,1,428.93,33.85Z" fill="#fff"/>
      <path d="M437.51,34.16a3.23,3.23,0,0,1-2.36-.84,3.06,3.06,0,0,1-.86-2.29,3,3,0,0,1,.89-2.32,3.33,3.33,0,0,1,2.41-.85,3.13,3.13,0,0,1,2.34.85,3,3,0,0,1,.85,2.22,3.19,3.19,0,0,1-.87,2.36A3.27,3.27,0,0,1,437.51,34.16Zm0-4.88a1.26,1.26,0,0,0-1,.45,2,2,0,0,0-.36,1.28c0,1.15.47,1.73,1.4,1.73s1.33-.59,1.33-1.78S438.45,29.28,437.55,29.28Z" fill="#fff"/>
      <path d="M445.85,26.55a1.76,1.76,0,0,0-.68-.14q-.9,0-.9,1V28h1.38v1.37h-1.38V34h-1.84V29.38h-1V28h1v-.74a2.16,2.16,0,0,1,.67-1.66,2.56,2.56,0,0,1,1.81-.62,3.51,3.51,0,0,1,.94.11Z" fill="#fff"/>
      <path d="M450.41,33.94a2.8,2.8,0,0,1-1.24.22q-1.95,0-1.95-2V29.38h-1V28h1V26.72l1.84-.53V28h1.35v1.37h-1.35V31.8c0,.63.25.94.75.94a1.31,1.31,0,0,0,.6-.17Z" fill="#fff"/>
      <path d="M402.83,41.46a1.07,1.07,0,0,1-.77-.28.88.88,0,0,1-.3-.68.87.87,0,0,1,.3-.68,1.16,1.16,0,0,1,.77-.26,1.14,1.14,0,0,1,.77.26.87.87,0,0,1,.3.68.89.89,0,0,1-.3.69A1.1,1.1,0,0,1,402.83,41.46Zm.91,6.95h-1.85v-6h1.85Z" fill="#fff"/>
      <path d="M411.17,48.41h-1.85v-.83h0a2.08,2.08,0,0,1-1.86,1,2.28,2.28,0,0,1-1.81-.8,3.27,3.27,0,0,1-.68-2.21,3.6,3.6,0,0,1,.75-2.39,2.48,2.48,0,0,1,2-.9,1.68,1.68,0,0,1,1.62.84h0V39.53h1.85Zm-1.81-2.92V45a1.45,1.45,0,0,0-.34-1,1.12,1.12,0,0,0-.89-.39,1.1,1.1,0,0,0-1,.49,2.23,2.23,0,0,0-.34,1.32,2,2,0,0,0,.33,1.22,1.18,1.18,0,0,0,1.84,0A1.87,1.87,0,0,0,409.36,45.49Z" fill="#fff"/>
      <path d="M418.12,45.94h-3.91c.06.87.61,1.3,1.65,1.3a3.23,3.23,0,0,0,1.74-.46v1.33a4.57,4.57,0,0,1-2.17.45,2.79,2.79,0,0,1-3.05-3.06,3.19,3.19,0,0,1,.86-2.36,2.91,2.91,0,0,1,2.14-.88,2.63,2.63,0,0,1,2,.78,3.05,3.05,0,0,1,.71,2.12Zm-1.71-1.14q0-1.29-1.05-1.29a1,1,0,0,0-.77.37,1.67,1.67,0,0,0-.39.92Z" fill="#fff"/>
      <path d="M425.1,48.41h-1.85V45.08c0-.93-.33-1.4-1-1.4a1,1,0,0,0-.8.37,1.46,1.46,0,0,0-.31.94v3.42H419.3v-6h1.85v1h0a2.12,2.12,0,0,1,1.92-1.1c1.33,0,2,.83,2,2.48Z" fill="#fff"/>
      <path d="M430.12,48.34a2.8,2.8,0,0,1-1.24.22q-2,0-1.95-2V43.78h-1V42.41h1V41.12l1.84-.53v1.82h1.35v1.37h-1.35V46.2c0,.63.25.94.75.94a1.31,1.31,0,0,0,.6-.17Z" fill="#fff"/>
      <path d="M432.17,41.46a1.06,1.06,0,0,1-.77-.28.88.88,0,0,1-.3-.68.87.87,0,0,1,.3-.68,1.14,1.14,0,0,1,.77-.26,1.16,1.16,0,0,1,.77.26.86.86,0,0,1,.29.68.88.88,0,0,1-.29.69A1.11,1.11,0,0,1,432.17,41.46Zm.91,6.95h-1.85v-6h1.85Z" fill="#fff"/>
      <path d="M438.18,48.34a2.8,2.8,0,0,1-1.24.22q-1.95,0-1.95-2V43.78h-1V42.41h1V41.12l1.84-.53v1.82h1.35v1.37h-1.35V46.2c0,.63.25.94.75.94a1.31,1.31,0,0,0,.6-.17Z" fill="#fff"/>
      <path d="M445.24,42.41l-2.44,6.48c-.59,1.56-1.47,2.34-2.65,2.34a3.46,3.46,0,0,1-1.11-.15V49.6a1.64,1.64,0,0,0,.81.22,1,1,0,0,0,1-.68l.32-.74-2.44-6h2l1.12,3.65a5.07,5.07,0,0,1,.17.8h0a5.52,5.52,0,0,1,.19-.79l1.13-3.66Z" fill="#fff"/>
      <path d="M400.89,62.11h0v3.46H399V56.81h1.85v.9h0a2.36,2.36,0,0,1,3.73-.25,3.39,3.39,0,0,1,.64,2.18,3.73,3.73,0,0,1-.74,2.41,2.44,2.44,0,0,1-2,.91A1.86,1.86,0,0,1,400.89,62.11Zm-.05-2.46v.48a1.54,1.54,0,0,0,.33,1,1.08,1.08,0,0,0,.86.39,1.12,1.12,0,0,0,1-.49,2.32,2.32,0,0,0,.35-1.39c0-1-.41-1.58-1.23-1.58a1.18,1.18,0,0,0-.93.43A1.73,1.73,0,0,0,400.84,59.65Z" fill="#fff"/>
      <path d="M408.35,62.81h-1.86V53.93h1.86Z" fill="#fff"/>
      <path d="M414.93,62.81h-1.75V62h0a2,2,0,0,1-1.78,1,1.88,1.88,0,0,1-1.38-.5,1.79,1.79,0,0,1-.5-1.32c0-1.16.69-1.84,2.07-2l1.63-.22c0-.66-.36-1-1.07-1a3.72,3.72,0,0,0-2,.64V57.17a4.67,4.67,0,0,1,1.06-.35,5.12,5.12,0,0,1,1.22-.16,2.27,2.27,0,0,1,2.57,2.56Zm-1.74-2.44V60l-1.09.14q-.9.12-.9.81a.66.66,0,0,0,.22.52.8.8,0,0,0,.59.2,1.1,1.1,0,0,0,.85-.36A1.29,1.29,0,0,0,413.19,60.37Z" fill="#fff"/>
      <path d="M419.93,62.74a2.75,2.75,0,0,1-1.23.22c-1.31,0-2-.68-2-2V58.18h-1V56.81h1V55.52l1.85-.53v1.82h1.34v1.37h-1.34V60.6c0,.63.24.94.74.94a1.27,1.27,0,0,0,.6-.17Z" fill="#fff"/>
      <path d="M425.05,55.35a1.69,1.69,0,0,0-.68-.14c-.6,0-.89.32-.89,1v.64h1.37v1.37h-1.37v4.63h-1.85V58.18h-1V56.81h1v-.74a2.16,2.16,0,0,1,.67-1.66,2.59,2.59,0,0,1,1.82-.62,3.48,3.48,0,0,1,.93.11Z" fill="#fff"/>
      <path d="M428.62,63a3.23,3.23,0,0,1-2.36-.84,3.49,3.49,0,0,1,0-4.62,3.38,3.38,0,0,1,2.41-.84,3.16,3.16,0,0,1,2.34.84,3,3,0,0,1,.85,2.23,3.19,3.19,0,0,1-.87,2.36A3.27,3.27,0,0,1,428.62,63Zm.05-4.88a1.23,1.23,0,0,0-1,.45,2,2,0,0,0-.37,1.28c0,1.15.47,1.73,1.4,1.73S430,61,430,59.76,429.56,58.08,428.67,58.08Z" fill="#fff"/>
      <path d="M437,58.48a1.61,1.61,0,0,0-.78-.18,1.12,1.12,0,0,0-.94.44,1.93,1.93,0,0,0-.34,1.21v2.86h-1.85v-6h1.85v1.11h0a1.59,1.59,0,0,1,1.58-1.21,1.14,1.14,0,0,1,.46.07Z" fill="#fff"/>
      <path d="M447.39,62.81h-1.85V59.39c0-.87-.32-1.31-1-1.31a.88.88,0,0,0-.74.39,1.65,1.65,0,0,0-.29,1v3.36H441.7V59.35c0-.84-.31-1.27-.94-1.27a.91.91,0,0,0-.76.38,1.65,1.65,0,0,0-.29,1v3.33h-1.85v-6h1.85v.94h0a2.22,2.22,0,0,1,.8-.78,2.17,2.17,0,0,1,1.14-.31,1.75,1.75,0,0,1,1.74,1.12,2.22,2.22,0,0,1,2-1.12c1.31,0,2,.81,2,2.42Z" fill="#fff"/>
    </g>
    <g>
      <polygon points="187.08 85.13 179.53 90.58 182.41 99.38 191.75 99.38 194.64 90.58 187.08 85.13" fill="#ebebeb" stroke="#000" stroke-miterlimit="10" stroke-width="0.75"/>
      <g>
        <g>
          <path d="M207.47,98.58h-1.09l-.89-2.36h-3.56l-.84,2.36H200l3.22-8.41h1Zm-2.3-3.25-1.32-3.58a4.39,4.39,0,0,1-.13-.56h0a3.13,3.13,0,0,1-.13.56l-1.31,3.58Z" fill="#1e1e1e"/>
          <path d="M212.54,98.3a3.1,3.1,0,0,1-1.64.42,2.72,2.72,0,0,1-2.07-.84,3.06,3.06,0,0,1-.79-2.16,3.37,3.37,0,0,1,.85-2.39,3,3,0,0,1,2.27-.9,3.06,3.06,0,0,1,1.39.3v1a2.45,2.45,0,0,0-1.43-.47,1.91,1.91,0,0,0-1.5.66,2.47,2.47,0,0,0-.59,1.73,2.39,2.39,0,0,0,.55,1.67,1.94,1.94,0,0,0,1.49.61,2.44,2.44,0,0,0,1.47-.52Z" fill="#1e1e1e"/>
          <path d="M218,98.3a3.1,3.1,0,0,1-1.64.42,2.69,2.69,0,0,1-2.07-.84,3,3,0,0,1-.79-2.16,3.33,3.33,0,0,1,.85-2.39,3,3,0,0,1,2.26-.9,3.1,3.1,0,0,1,1.4.3v1a2.47,2.47,0,0,0-1.43-.47,1.93,1.93,0,0,0-1.51.66,2.52,2.52,0,0,0-.59,1.73A2.39,2.39,0,0,0,215,97.3a1.91,1.91,0,0,0,1.48.61,2.47,2.47,0,0,0,1.48-.52Z" fill="#1e1e1e"/>
          <path d="M224.1,95.82h-4.23a2.18,2.18,0,0,0,.54,1.54,1.82,1.82,0,0,0,1.41.55,3,3,0,0,0,1.87-.67v.9a3.52,3.52,0,0,1-2.09.58,2.55,2.55,0,0,1-2-.82,3.83,3.83,0,0,1,.06-4.58,2.56,2.56,0,0,1,2-.89,2.26,2.26,0,0,1,1.82.77,3.15,3.15,0,0,1,.64,2.11Zm-1-.82a1.93,1.93,0,0,0-.4-1.29,1.38,1.38,0,0,0-1.1-.47,1.6,1.6,0,0,0-1.16.49,2.21,2.21,0,0,0-.58,1.27Z" fill="#1e1e1e"/>
          <path d="M225.18,98.36v-1a2.88,2.88,0,0,0,1.73.58c.84,0,1.26-.28,1.26-.85a.65.65,0,0,0-.11-.4,1,1,0,0,0-.29-.3,2.18,2.18,0,0,0-.43-.23l-.54-.21c-.27-.11-.5-.22-.7-.32a2,2,0,0,1-.5-.37,1.29,1.29,0,0,1-.31-.46,1.57,1.57,0,0,1-.1-.6,1.44,1.44,0,0,1,.19-.75,1.67,1.67,0,0,1,.52-.54,2.21,2.21,0,0,1,.73-.33,3.08,3.08,0,0,1,.86-.12,3.41,3.41,0,0,1,1.39.27v1a2.71,2.71,0,0,0-1.52-.44,1.88,1.88,0,0,0-.49.06,1.28,1.28,0,0,0-.37.18.85.85,0,0,0-.24.26.7.7,0,0,0-.09.35.8.8,0,0,0,.09.39.94.94,0,0,0,.25.28,1.67,1.67,0,0,0,.4.22l.53.22c.26.1.5.21.71.31a2.23,2.23,0,0,1,.54.37,1.41,1.41,0,0,1,.35.46,1.54,1.54,0,0,1,.12.63,1.47,1.47,0,0,1-.2.77,1.82,1.82,0,0,1-.52.55,2.6,2.6,0,0,1-.76.32,3.76,3.76,0,0,1-.9.11A3.37,3.37,0,0,1,225.18,98.36Z" fill="#1e1e1e"/>
          <path d="M230.27,98.36v-1a2.88,2.88,0,0,0,1.73.58c.84,0,1.26-.28,1.26-.85a.72.72,0,0,0-.1-.4,1.07,1.07,0,0,0-.3-.3,2.18,2.18,0,0,0-.43-.23l-.54-.21-.7-.32a2,2,0,0,1-.5-.37,1.29,1.29,0,0,1-.31-.46,1.79,1.79,0,0,1-.1-.6,1.55,1.55,0,0,1,.19-.75,1.78,1.78,0,0,1,.52-.54,2.17,2.17,0,0,1,.74-.33,3,3,0,0,1,.85-.12,3.41,3.41,0,0,1,1.39.27v1a2.71,2.71,0,0,0-1.52-.44,1.88,1.88,0,0,0-.49.06,1.28,1.28,0,0,0-.37.18.85.85,0,0,0-.24.26.69.69,0,0,0-.08.35.8.8,0,0,0,.08.39.94.94,0,0,0,.25.28,1.67,1.67,0,0,0,.4.22l.53.22c.27.1.5.21.72.31a2.16,2.16,0,0,1,.53.37,1.41,1.41,0,0,1,.35.46,1.54,1.54,0,0,1,.12.63,1.47,1.47,0,0,1-.2.77,1.7,1.7,0,0,1-.52.55,2.49,2.49,0,0,1-.76.32,3.7,3.7,0,0,1-.9.11A3.37,3.37,0,0,1,230.27,98.36Z" fill="#1e1e1e"/>
          <path d="M241.79,98.52a1.87,1.87,0,0,1-.89.18c-1.05,0-1.58-.58-1.58-1.75V93.4h-1v-.82h1V91.11l1-.31v1.78h1.51v.82h-1.51v3.38a1.37,1.37,0,0,0,.21.86.81.81,0,0,0,.68.26,1,1,0,0,0,.62-.2Z" fill="#1e1e1e"/>
          <path d="M245.45,98.72a2.79,2.79,0,0,1-2.12-.84,3.14,3.14,0,0,1-.79-2.23,3.27,3.27,0,0,1,.82-2.37,3,3,0,0,1,2.23-.85,2.7,2.7,0,0,1,2.1.83,3.29,3.29,0,0,1,.75,2.29,3.21,3.21,0,0,1-.81,2.3A2.84,2.84,0,0,1,245.45,98.72Zm.07-5.48a1.83,1.83,0,0,0-1.46.63,2.59,2.59,0,0,0-.54,1.74,2.46,2.46,0,0,0,.54,1.68,1.87,1.87,0,0,0,1.46.62A1.75,1.75,0,0,0,247,97.3a2.62,2.62,0,0,0,.5-1.71,2.71,2.71,0,0,0-.5-1.74A1.78,1.78,0,0,0,245.52,93.24Z" fill="#1e1e1e"/>
          <path d="M254.9,98.58h-1.34l-2.65-2.89h0v2.89h-1V89.69h1v5.63h0l2.52-2.74h1.26l-2.79,2.89Z" fill="#1e1e1e"/>
          <path d="M260.42,95.82h-4.24a2.27,2.27,0,0,0,.54,1.54,1.85,1.85,0,0,0,1.42.55,3,3,0,0,0,1.86-.67v.9a3.48,3.48,0,0,1-2.09.58,2.58,2.58,0,0,1-2-.82,3.37,3.37,0,0,1-.72-2.3,3.26,3.26,0,0,1,.79-2.28,2.55,2.55,0,0,1,2-.89,2.26,2.26,0,0,1,1.83.77,3.15,3.15,0,0,1,.64,2.11Zm-1-.82a1.93,1.93,0,0,0-.41-1.29,1.34,1.34,0,0,0-1.09-.47,1.58,1.58,0,0,0-1.16.49A2.21,2.21,0,0,0,256.2,95Z" fill="#1e1e1e"/>
          <path d="M266.85,98.58h-1V95.15c0-1.27-.46-1.91-1.39-1.91a1.48,1.48,0,0,0-1.19.55,2,2,0,0,0-.48,1.36v3.43h-1v-6h1v1h0a2.16,2.16,0,0,1,2-1.14,1.84,1.84,0,0,1,1.5.64,2.82,2.82,0,0,1,.52,1.84Z" fill="#1e1e1e"/>
        </g>
        <g>
          <path d="M207.29,84.37h-1V80.54H202v3.83h-1V76h1v3.68h4.35V76h1Z" fill="#1e1e1e"/>
          <path d="M214.33,76.86h-2.42v7.51h-1V76.86H208.5V76h5.83Z" fill="#1e1e1e"/>
          <path d="M220.93,76.86h-2.42v7.51h-1V76.86H215.1V76h5.83Z" fill="#1e1e1e"/>
          <path d="M223.12,81.19v3.18h-1V76h2.31a3.07,3.07,0,0,1,2.08.65,2.35,2.35,0,0,1,.75,1.86,2.55,2.55,0,0,1-.83,2,3.13,3.13,0,0,1-2.22.76Zm0-4.33V80.3h1a2.32,2.32,0,0,0,1.56-.46,1.64,1.64,0,0,0,.53-1.32c0-1.11-.65-1.66-2-1.66Z" fill="#1e1e1e"/>
          <path d="M238.43,83.8a5.73,5.73,0,0,1-2.82.71,3.86,3.86,0,0,1-2.91-1.16,4.26,4.26,0,0,1-1.11-3.07,4.33,4.33,0,0,1,1.24-3.2A4.17,4.17,0,0,1,236,75.83a5.47,5.47,0,0,1,2.31.44v1.09a4.44,4.44,0,0,0-2.42-.64,3,3,0,0,0-2.31,1,3.57,3.57,0,0,0-.91,2.52,3.53,3.53,0,0,0,.84,2.5,3,3,0,0,0,2.28.92,3.42,3.42,0,0,0,1.7-.4V80.88H235.6V80h2.83Z" fill="#1e1e1e"/>
          <path d="M244.77,84.37h-4.46V76h4.27v.89H241.3v2.79h3v.89h-3v2.94h3.47Z" fill="#1e1e1e"/>
          <path d="M251.43,76.86H249v7.51h-1V76.86H245.6V76h5.83Z" fill="#1e1e1e"/>
          <path d="M261.8,81.26h-2.37v2.37h-.78V81.26h-2.36v-.78h2.36V78.12h.78v2.36h2.37Z" fill="#1e1e1e"/>
        </g>
      </g>
    </g>
  </g>
</svg>
