<?xml version="1.0" encoding="UTF-8" standalone="no"?>
<!DOCTYPE svg PUBLIC "-//W3C//DTD SVG 1.1//EN" "http://www.w3.org/Graphics/SVG/1.1/DTD/svg11.dtd">
<!-- Generated by Microsoft Visio, SVG Export data-plane-security.svg Page-1 -->
<svg xmlns="http://www.w3.org/2000/svg" xmlns:xlink="http://www.w3.org/1999/xlink" xmlns:ev="http://www.w3.org/2001/xml-events"
		xmlns:v="http://schemas.microsoft.com/visio/2003/SVGExtensions/" width="2.55055in" height="0.7905in"
		viewBox="0 0 183.64 56.916" xml:space="preserve" color-interpolation-filters="sRGB" class="st14">
	<v:documentProperties v:langID="1033" v:viewMarkup="false"/>

	<style type="text/css">
	<![CDATA[
		.st1 {fill:#000000;fill-opacity:0.18;stroke:none;stroke-linecap:butt;stroke-width:0.75}
		.st2 {fill:url(#grad7-7);stroke:none;stroke-linecap:butt;stroke-width:0.75}
		.st3 {fill:#ffffff;fill-opacity:0.6;stroke:none;stroke-linecap:butt;stroke-width:0.75}
		.st4 {fill:#f2f2f2;fill-opacity:0.55;stroke:none;stroke-linecap:butt;stroke-width:0.75}
		.st5 {fill:url(#grad0-15);stroke:none;stroke-linecap:butt;stroke-width:0.75}
		.st6 {fill:url(#grad0-21);stroke:none;stroke-linecap:butt;stroke-width:0.75}
		.st7 {fill:#f2f2f2;fill-opacity:0.7;stroke:none;stroke-linecap:butt;stroke-width:0.75}
		.st8 {fill:#000000;font-family:Calibri;font-size:0.75em}
		.st9 {font-size:1em}
		.st10 {marker-end:url(#mrkr4-137);stroke:#000000;stroke-linecap:round;stroke-linejoin:round;stroke-width:0.75}
		.st11 {fill:#000000;fill-opacity:1;stroke:#000000;stroke-opacity:1;stroke-width:0.22935779816514}
		.st12 {fill:url(#grad0-147);stroke:none;stroke-linecap:butt;stroke-width:0.75}
		.st13 {fill:url(#grad0-151);stroke:none;stroke-linecap:butt;stroke-width:0.75}
		.st14 {fill:none;fill-rule:evenodd;font-size:12px;overflow:visible;stroke-linecap:square;stroke-miterlimit:3}
	]]>
	</style>

	<defs id="Patterns_And_Gradients">
		<radialGradient id="grad7-7" cx="0" cy="0" r="1.4">
			<stop offset="0.18" stop-color="#5ea0ef" stop-opacity="1"/>
			<stop offset="1" stop-color="#0078d4" stop-opacity="1"/>
		</radialGradient>
		<linearGradient id="grad0-15" x1="0" y1="0" x2="1" y2="0" gradientTransform="rotate(-90.435226578092 0.5 0.5)">
			<stop offset="0" stop-color="#cccccc" stop-opacity="1"/>
			<stop offset="1" stop-color="#fcfcfc" stop-opacity="1"/>
		</linearGradient>
		<linearGradient id="grad0-21" x1="0" y1="0" x2="1" y2="0" gradientTransform="rotate(-90 0.5 0.5)">
			<stop offset="0" stop-color="#cccccc" stop-opacity="1"/>
			<stop offset="1" stop-color="#fcfcfc" stop-opacity="1"/>
		</linearGradient>
		<linearGradient id="grad0-147" x1="0" y1="0" x2="1" y2="0" gradientTransform="rotate(-90 0.5 0.5)">
			<stop offset="0" stop-color="#198ab3" stop-opacity="1"/>
			<stop offset="0.09" stop-color="#1f9dc4" stop-opacity="1"/>
			<stop offset="0.24" stop-color="#28b5d9" stop-opacity="1"/>
			<stop offset="0.4" stop-color="#2dc6e9" stop-opacity="1"/>
			<stop offset="0.57" stop-color="#31d1f2" stop-opacity="1"/>
			<stop offset="0.78" stop-color="#32d4f5" stop-opacity="1"/>
		</linearGradient>
		<linearGradient id="grad0-151" x1="0" y1="0" x2="1" y2="0" gradientTransform="rotate(90 0.5 0.5)">
			<stop offset="0" stop-color="#c69aeb" stop-opacity="1"/>
			<stop offset="1" stop-color="#6f4bb2" stop-opacity="1"/>
		</linearGradient>
	</defs>
	<defs id="Markers">
		<g id="lend4">
			<path d="M 2 1 L 0 0 L 2 -1 L 2 1 " style="stroke:none"/>
		</g>
		<marker id="mrkr4-137" class="st11" v:arrowType="4" v:arrowSize="2" v:setback="8.72" refX="-8.72" orient="auto"
				markerUnits="strokeWidth" overflow="visible">
			<use xlink:href="#lend4" transform="scale(-4.36,-4.36) "/>
		</marker>
	</defs>
	<g v:mID="0" v:index="1" v:groupContext="foregroundPage">
		<title>Page-1</title>
		<v:pageProperties v:drawingScale="0.0393701" v:pageScale="0.0393701" v:drawingUnits="24" v:shadowOffsetX="8.50394"
				v:shadowOffsetY="-8.50394"/>
		<v:layer v:name="Connector" v:index="0"/>
		<g id="shape1390-1" v:mID="1390" v:groupContext="shape" transform="translate(87.3474,-27.9609)">
			<title>Sheet.1390</title>
			<v:userDefs>
				<v:ud v:nameU="msvDisableCustomConnectionPoints" v:prompt="" v:val="VT0(1):5"/>
			</v:userDefs>
			<path d="M0 53.8 A3.1308 3.11747 -180 0 0 3.13 56.92 L3.21 56.92 A3.1308 3.11747 -180 0 0 6.34 53.8 L6.34 53.72 A3.1308
						 3.11747 -180 0 0 3.21 50.6 L3.13 50.6 A3.1308 3.11747 -180 0 0 -0 53.72 L0 53.8 Z" class="st1"/>
		</g>
		<g id="group1392-3" transform="translate(130.36,-21.7436)" v:mID="1392" v:groupContext="group">
			<v:userDefs>
				<v:ud v:nameU="msvDisableCustomConnectionPoints" v:prompt="" v:val="VT0(1):5"/>
			</v:userDefs>
			<title>Sheet.1392</title>
			<g id="shape1393-4" v:mID="1393" v:groupContext="shape">
				<title>Sheet.1393</title>
				<v:userDefs>
					<v:ud v:nameU="msvDisableCustomConnectionPoints" v:prompt="" v:val="VT0(1):5"/>
				</v:userDefs>
				<path d="M26.74 51.73 C20.04 56.92 10.39 55.7 5.2 49.01 C0 42.33 1.22 32.71 7.92 27.52 L8.09 27.41 C14.88 22.36 24.5
							 23.75 29.57 30.53 C34.56 37.19 33.3 46.6 26.74 51.73 Z" class="st2"/>
			</g>
			<g id="shape1394-8" v:mID="1394" v:groupContext="shape" transform="translate(4.06015,-6.77259)">
				<title>Sheet.1394</title>
				<v:userDefs>
					<v:ud v:nameU="msvDisableCustomConnectionPoints" v:prompt="" v:val="VT0(1):5"/>
				</v:userDefs>
				<path d="M9.1 43.21 C13.44 39.09 19.2 36.79 25.2 36.76 C24.41 35.79 23.5 34.92 22.5 34.17 C19.59 34.35 16.73 35.02
							 14.04 36.15 C11.26 37.34 8.76 39.07 6.66 41.23 C7.67 41.61 8.53 42.31 9.1 43.21 ZM1.5 49.37 C0.88 50.91
							 0.38 52.48 0 54.09 C0.33 54.67 0.71 55.22 1.12 55.75 C1.44 56.16 1.75 56.54 2.11 56.92 C2.55 54.77 3.2
							 52.68 4.06 50.67 C3.1 50.5 2.21 50.04 1.5 49.37 Z" class="st3"/>
			</g>
			<g id="shape1395-10" v:mID="1395" v:groupContext="shape" transform="translate(4.09627,-20.8905)">
				<title>Sheet.1395</title>
				<v:userDefs>
					<v:ud v:nameU="msvDisableCustomConnectionPoints" v:prompt="" v:val="VT0(1):5"/>
				</v:userDefs>
				<path d="M3.23 55.31 C2.6 53.61 2.18 51.83 1.99 50.02 C1.23 50.81 0.56 51.69 0 52.63 C0.2 54.09 0.55 55.52 1.03 56.92
							 C1.59 56.18 2.36 55.63 3.23 55.31 Z" class="st4"/>
			</g>
			<g id="shape1396-12" v:mID="1396" v:groupContext="shape" transform="translate(4.06015,-12.9472)">
				<title>Sheet.1396</title>
				<v:userDefs>
					<v:ud v:nameU="msvDisableCustomConnectionPoints" v:prompt="" v:val="VT0(1):5"/>
				</v:userDefs>
				<ellipse cx="4.93069" cy="51.9986" rx="4.93069" ry="4.91733" class="st5"/>
			</g>
			<g id="shape1397-16" v:mID="1397" v:groupContext="shape" transform="translate(9.89389,-6.09533)">
				<title>Sheet.1397</title>
				<v:userDefs>
					<v:ud v:nameU="msvDisableCustomConnectionPoints" v:prompt="" v:val="VT0(1):5"/>
				</v:userDefs>
				<path d="M6.29 54.13 C6.29 53.27 6.64 52.45 7.26 51.85 C5.6 50.93 4.06 49.81 2.69 48.5 C1.98 49.27 1.03 49.79 0 49.99
							 C0.81 50.82 1.69 51.6 2.62 52.3 C3.77 53.16 5.02 53.92 6.32 54.55 C6.3 54.41 6.29 54.27 6.29 54.13 ZM17.66
							 54.51 C15.98 54.51 14.32 54.32 12.68 53.94 C12.69 54 12.69 54.07 12.68 54.13 C12.68 54.97 12.35 55.77
							 11.76 56.37 C13.79 56.77 15.86 56.92 17.93 56.8 C18.73 56.08 19.46 55.26 20.08 54.39 C19.28 54.47 18.47
							 54.52 17.66 54.51 Z" class="st4"/>
			</g>
			<g id="shape1398-18" v:mID="1398" v:groupContext="shape" transform="translate(16.1611,-5.67024)">
				<title>Sheet.1398</title>
				<v:userDefs>
					<v:ud v:nameU="msvDisableCustomConnectionPoints" v:prompt="" v:val="VT0(1):5"/>
				</v:userDefs>
				<ellipse cx="3.21488" cy="53.7098" rx="3.21488" ry="3.20617" class="st6"/>
			</g>
			<g id="shape1399-22" v:mID="1399" v:groupContext="shape" transform="translate(10.797,-17.4142)">
				<title>Sheet.1399</title>
				<v:userDefs>
					<v:ud v:nameU="msvDisableCustomConnectionPoints" v:prompt="" v:val="VT0(1):5"/>
				</v:userDefs>
				<path d="M12.53 56.92 C12.69 56.21 13.08 55.58 13.63 55.11 C10.66 52.96 7.96 50.45 5.58 47.66 C4.2 46.03 2.98 44.27
							 1.97 42.4 C1.29 42.6 0.64 42.85 0 43.15 C1.09 45.2 2.39 47.12 3.88 48.88 C6.42 51.9 9.33 54.6 12.53
							 56.92 Z" class="st7"/>
			</g>
			<g id="shape1400-24" v:mID="1400" v:groupContext="shape" transform="translate(23.2772,-13.3975)">
				<title>Sheet.1400</title>
				<v:userDefs>
					<v:ud v:nameU="msvDisableCustomConnectionPoints" v:prompt="" v:val="VT0(1):5"/>
				</v:userDefs>
				<ellipse cx="3.41356" cy="53.5117" rx="3.41356" ry="3.4043" class="st6"/>
			</g>
			<g id="shape1401-27" v:mID="1401" v:groupContext="shape" transform="translate(28.8166,-12.5509)">
				<title>Sheet.1401</title>
				<v:userDefs>
					<v:ud v:nameU="msvDisableCustomConnectionPoints" v:prompt="" v:val="VT0(1):5"/>
				</v:userDefs>
				<path d="M3.6 54.95 L2.97 54.65 L2.43 54.36 L2.32 54.36 L1.85 53.98 L1.72 53.98 L1.16 53.62 C0.97 54.28 0.56 54.86
							 0 55.28 C0.22 55.42 0.45 55.55 0.69 55.67 L0.83 55.77 L1.46 56.11 L3.02 56.92 C3.24 56.26 3.41 55.6
							 3.54 54.92 L3.6 54.95 Z" class="st4"/>
			</g>
			<g id="shape1402-29" v:mID="1402" v:groupContext="shape" transform="translate(4.06015,-12.9472)">
				<title>Sheet.1402</title>
				<v:userDefs>
					<v:ud v:nameU="msvDisableCustomConnectionPoints" v:prompt="" v:val="VT0(1):5"/>
				</v:userDefs>
				<ellipse cx="4.93069" cy="51.9986" rx="4.93069" ry="4.91733" class="st5"/>
			</g>
			<g id="shape1403-32" v:mID="1403" v:groupContext="shape" transform="translate(16.1611,-5.67024)">
				<title>Sheet.1403</title>
				<v:userDefs>
					<v:ud v:nameU="msvDisableCustomConnectionPoints" v:prompt="" v:val="VT0(1):5"/>
				</v:userDefs>
				<ellipse cx="3.21488" cy="53.7098" rx="3.21488" ry="3.20617" class="st6"/>
			</g>
		</g>
		<g id="shape1391-35" v:mID="1391" v:groupContext="shape" transform="translate(130.36,-21.7436)">
			<title>App Services.1391</title>
			<desc>Backend API</desc>
			<v:textBlock v:margins="rect(0,0,0,0)" v:tabSpace="42.5197"/>
			<v:textRect cx="17.28" cy="62.3178" width="72" height="10.8036"/>
			<text x="-5.32" y="65.02" class="st8" v:langID="2057"><v:paragraph v:horizAlign="1"/><v:tabList/>Backend API</text>		</g>
		<g id="group1405-37" transform="translate(18.72,-21.7436)" v:mID="1405" v:groupContext="group">
			<v:userDefs>
				<v:ud v:nameU="msvDisableCustomConnectionPoints" v:prompt="" v:val="VT0(1):5"/>
			</v:userDefs>
			<title>Sheet.1405</title>
			<g id="shape1406-38" v:mID="1406" v:groupContext="shape">
				<title>Sheet.1406</title>
				<v:userDefs>
					<v:ud v:nameU="msvDisableCustomConnectionPoints" v:prompt="" v:val="VT0(1):5"/>
				</v:userDefs>
				<path d="M26.74 51.73 C20.04 56.92 10.39 55.7 5.2 49.01 C0 42.33 1.22 32.71 7.92 27.52 L8.09 27.41 C14.88 22.36 24.5
							 23.75 29.57 30.53 C34.56 37.19 33.3 46.6 26.74 51.73 Z" class="st2"/>
			</g>
			<g id="shape1407-41" v:mID="1407" v:groupContext="shape" transform="translate(4.06015,-6.77259)">
				<title>Sheet.1407</title>
				<v:userDefs>
					<v:ud v:nameU="msvDisableCustomConnectionPoints" v:prompt="" v:val="VT0(1):5"/>
				</v:userDefs>
				<path d="M9.1 43.21 C13.44 39.09 19.2 36.79 25.2 36.76 C24.41 35.79 23.5 34.92 22.5 34.17 C19.59 34.35 16.73 35.02
							 14.04 36.15 C11.26 37.34 8.76 39.07 6.66 41.23 C7.67 41.61 8.53 42.31 9.1 43.21 ZM1.5 49.37 C0.88 50.91
							 0.38 52.48 0 54.09 C0.33 54.67 0.71 55.22 1.12 55.75 C1.44 56.16 1.75 56.54 2.11 56.92 C2.55 54.77 3.2
							 52.68 4.06 50.67 C3.1 50.5 2.21 50.04 1.5 49.37 Z" class="st3"/>
			</g>
			<g id="shape1408-43" v:mID="1408" v:groupContext="shape" transform="translate(4.09627,-20.8905)">
				<title>Sheet.1408</title>
				<v:userDefs>
					<v:ud v:nameU="msvDisableCustomConnectionPoints" v:prompt="" v:val="VT0(1):5"/>
				</v:userDefs>
				<path d="M3.23 55.31 C2.6 53.61 2.18 51.83 1.99 50.02 C1.23 50.81 0.56 51.69 0 52.63 C0.2 54.09 0.55 55.52 1.03 56.92
							 C1.59 56.18 2.36 55.63 3.23 55.31 Z" class="st4"/>
			</g>
			<g id="shape1409-45" v:mID="1409" v:groupContext="shape" transform="translate(4.06015,-12.9472)">
				<title>Sheet.1409</title>
				<v:userDefs>
					<v:ud v:nameU="msvDisableCustomConnectionPoints" v:prompt="" v:val="VT0(1):5"/>
				</v:userDefs>
				<ellipse cx="4.93069" cy="51.9986" rx="4.93069" ry="4.91733" class="st5"/>
			</g>
			<g id="shape1410-48" v:mID="1410" v:groupContext="shape" transform="translate(9.89389,-6.09533)">
				<title>Sheet.1410</title>
				<v:userDefs>
					<v:ud v:nameU="msvDisableCustomConnectionPoints" v:prompt="" v:val="VT0(1):5"/>
				</v:userDefs>
				<path d="M6.29 54.13 C6.29 53.27 6.64 52.45 7.26 51.85 C5.6 50.93 4.06 49.81 2.69 48.5 C1.98 49.27 1.03 49.79 0 49.99
							 C0.81 50.82 1.69 51.6 2.62 52.3 C3.77 53.16 5.02 53.92 6.32 54.55 C6.3 54.41 6.29 54.27 6.29 54.13 ZM17.66
							 54.51 C15.98 54.51 14.32 54.32 12.68 53.94 C12.69 54 12.69 54.07 12.68 54.13 C12.68 54.97 12.35 55.77
							 11.76 56.37 C13.79 56.77 15.86 56.92 17.93 56.8 C18.73 56.08 19.46 55.26 20.08 54.39 C19.28 54.47 18.47
							 54.52 17.66 54.51 Z" class="st4"/>
			</g>
			<g id="shape1411-50" v:mID="1411" v:groupContext="shape" transform="translate(16.1611,-5.67024)">
				<title>Sheet.1411</title>
				<v:userDefs>
					<v:ud v:nameU="msvDisableCustomConnectionPoints" v:prompt="" v:val="VT0(1):5"/>
				</v:userDefs>
				<ellipse cx="3.21488" cy="53.7098" rx="3.21488" ry="3.20617" class="st6"/>
			</g>
			<g id="shape1412-53" v:mID="1412" v:groupContext="shape" transform="translate(10.797,-17.4142)">
				<title>Sheet.1412</title>
				<v:userDefs>
					<v:ud v:nameU="msvDisableCustomConnectionPoints" v:prompt="" v:val="VT0(1):5"/>
				</v:userDefs>
				<path d="M12.53 56.92 C12.69 56.21 13.08 55.58 13.63 55.11 C10.66 52.96 7.96 50.45 5.58 47.66 C4.2 46.03 2.98 44.27
							 1.97 42.4 C1.29 42.6 0.64 42.85 0 43.15 C1.09 45.2 2.39 47.12 3.88 48.88 C6.42 51.9 9.33 54.6 12.53
							 56.92 Z" class="st7"/>
			</g>
			<g id="shape1413-55" v:mID="1413" v:groupContext="shape" transform="translate(23.2772,-13.3975)">
				<title>Sheet.1413</title>
				<v:userDefs>
					<v:ud v:nameU="msvDisableCustomConnectionPoints" v:prompt="" v:val="VT0(1):5"/>
				</v:userDefs>
				<ellipse cx="3.41356" cy="53.5117" rx="3.41356" ry="3.4043" class="st6"/>
			</g>
			<g id="shape1414-58" v:mID="1414" v:groupContext="shape" transform="translate(28.8166,-12.5509)">
				<title>Sheet.1414</title>
				<v:userDefs>
					<v:ud v:nameU="msvDisableCustomConnectionPoints" v:prompt="" v:val="VT0(1):5"/>
				</v:userDefs>
				<path d="M3.6 54.95 L2.97 54.65 L2.43 54.36 L2.32 54.36 L1.85 53.98 L1.72 53.98 L1.16 53.62 C0.97 54.28 0.56 54.86
							 0 55.28 C0.22 55.42 0.45 55.55 0.69 55.67 L0.83 55.77 L1.46 56.11 L3.02 56.92 C3.24 56.26 3.41 55.6
							 3.54 54.92 L3.6 54.95 Z" class="st4"/>
			</g>
			<g id="shape1415-60" v:mID="1415" v:groupContext="shape" transform="translate(4.06015,-12.9472)">
				<title>Sheet.1415</title>
				<v:userDefs>
					<v:ud v:nameU="msvDisableCustomConnectionPoints" v:prompt="" v:val="VT0(1):5"/>
				</v:userDefs>
				<ellipse cx="4.93069" cy="51.9986" rx="4.93069" ry="4.91733" class="st5"/>
			</g>
			<g id="shape1416-63" v:mID="1416" v:groupContext="shape" transform="translate(16.1611,-5.67024)">
				<title>Sheet.1416</title>
				<v:userDefs>
					<v:ud v:nameU="msvDisableCustomConnectionPoints" v:prompt="" v:val="VT0(1):5"/>
				</v:userDefs>
				<ellipse cx="3.21488" cy="53.7098" rx="3.21488" ry="3.20617" class="st6"/>
			</g>
		</g>
		<g id="shape1404-66" v:mID="1404" v:groupContext="shape" transform="translate(18.72,-21.7436)">
			<title>App Services.1404</title>
			<desc>Client App</desc>
			<v:textBlock v:margins="rect(0,0,0,0)" v:tabSpace="42.5197"/>
			<v:textRect cx="17.28" cy="67.7178" width="72" height="21.6036"/>
			<text x="6.7" y="65.02" class="st8" v:langID="2057"><v:paragraph v:horizAlign="1"/><v:tabList/>Client <v:newlineChar/><tspan
						x="9.95" dy="1.2em" class="st9">App</tspan></text>		</g>
		<g id="group1423-69" transform="translate(130.36,-21.7436)" v:mID="1423" v:groupContext="group">
			<v:userDefs>
				<v:ud v:nameU="msvDisableCustomConnectionPoints" v:prompt="" v:val="VT0(1):5"/>
			</v:userDefs>
			<title>Sheet.1423</title>
			<g id="shape1424-70" v:mID="1424" v:groupContext="shape">
				<title>Sheet.1424</title>
				<v:userDefs>
					<v:ud v:nameU="msvDisableCustomConnectionPoints" v:prompt="" v:val="VT0(1):5"/>
				</v:userDefs>
				<path d="M26.74 51.73 C20.04 56.92 10.39 55.7 5.2 49.01 C0 42.33 1.22 32.71 7.92 27.52 L8.09 27.41 C14.88 22.36 24.5
							 23.75 29.57 30.53 C34.56 37.19 33.3 46.6 26.74 51.73 Z" class="st2"/>
			</g>
			<g id="shape1425-73" v:mID="1425" v:groupContext="shape" transform="translate(4.06015,-6.77259)">
				<title>Sheet.1425</title>
				<v:userDefs>
					<v:ud v:nameU="msvDisableCustomConnectionPoints" v:prompt="" v:val="VT0(1):5"/>
				</v:userDefs>
				<path d="M9.1 43.21 C13.44 39.09 19.2 36.79 25.2 36.76 C24.41 35.79 23.5 34.92 22.5 34.17 C19.59 34.35 16.73 35.02
							 14.04 36.15 C11.26 37.34 8.76 39.07 6.66 41.23 C7.67 41.61 8.53 42.31 9.1 43.21 ZM1.5 49.37 C0.88 50.91
							 0.38 52.48 0 54.09 C0.33 54.67 0.71 55.22 1.12 55.75 C1.44 56.16 1.75 56.54 2.11 56.92 C2.55 54.77 3.2
							 52.68 4.06 50.67 C3.1 50.5 2.21 50.04 1.5 49.37 Z" class="st3"/>
			</g>
			<g id="shape1426-75" v:mID="1426" v:groupContext="shape" transform="translate(4.09627,-20.8905)">
				<title>Sheet.1426</title>
				<v:userDefs>
					<v:ud v:nameU="msvDisableCustomConnectionPoints" v:prompt="" v:val="VT0(1):5"/>
				</v:userDefs>
				<path d="M3.23 55.31 C2.6 53.61 2.18 51.83 1.99 50.02 C1.23 50.81 0.56 51.69 0 52.63 C0.2 54.09 0.55 55.52 1.03 56.92
							 C1.59 56.18 2.36 55.63 3.23 55.31 Z" class="st4"/>
			</g>
			<g id="shape1427-77" v:mID="1427" v:groupContext="shape" transform="translate(4.06015,-12.9472)">
				<title>Sheet.1427</title>
				<v:userDefs>
					<v:ud v:nameU="msvDisableCustomConnectionPoints" v:prompt="" v:val="VT0(1):5"/>
				</v:userDefs>
				<ellipse cx="4.93069" cy="51.9986" rx="4.93069" ry="4.91733" class="st5"/>
			</g>
			<g id="shape1428-80" v:mID="1428" v:groupContext="shape" transform="translate(9.89389,-6.09533)">
				<title>Sheet.1428</title>
				<v:userDefs>
					<v:ud v:nameU="msvDisableCustomConnectionPoints" v:prompt="" v:val="VT0(1):5"/>
				</v:userDefs>
				<path d="M6.29 54.13 C6.29 53.27 6.64 52.45 7.26 51.85 C5.6 50.93 4.06 49.81 2.69 48.5 C1.98 49.27 1.03 49.79 0 49.99
							 C0.81 50.82 1.69 51.6 2.62 52.3 C3.77 53.16 5.02 53.92 6.32 54.55 C6.3 54.41 6.29 54.27 6.29 54.13 ZM17.66
							 54.51 C15.98 54.51 14.32 54.32 12.68 53.94 C12.69 54 12.69 54.07 12.68 54.13 C12.68 54.97 12.35 55.77
							 11.76 56.37 C13.79 56.77 15.86 56.92 17.93 56.8 C18.73 56.08 19.46 55.26 20.08 54.39 C19.28 54.47 18.47
							 54.52 17.66 54.51 Z" class="st4"/>
			</g>
			<g id="shape1429-82" v:mID="1429" v:groupContext="shape" transform="translate(16.1611,-5.67024)">
				<title>Sheet.1429</title>
				<v:userDefs>
					<v:ud v:nameU="msvDisableCustomConnectionPoints" v:prompt="" v:val="VT0(1):5"/>
				</v:userDefs>
				<ellipse cx="3.21488" cy="53.7098" rx="3.21488" ry="3.20617" class="st6"/>
			</g>
			<g id="shape1430-85" v:mID="1430" v:groupContext="shape" transform="translate(10.797,-17.4142)">
				<title>Sheet.1430</title>
				<v:userDefs>
					<v:ud v:nameU="msvDisableCustomConnectionPoints" v:prompt="" v:val="VT0(1):5"/>
				</v:userDefs>
				<path d="M12.53 56.92 C12.69 56.21 13.08 55.58 13.63 55.11 C10.66 52.96 7.96 50.45 5.58 47.66 C4.2 46.03 2.98 44.27
							 1.97 42.4 C1.29 42.6 0.64 42.85 0 43.15 C1.09 45.2 2.39 47.12 3.88 48.88 C6.42 51.9 9.33 54.6 12.53
							 56.92 Z" class="st7"/>
			</g>
			<g id="shape1431-87" v:mID="1431" v:groupContext="shape" transform="translate(23.2772,-13.3975)">
				<title>Sheet.1431</title>
				<v:userDefs>
					<v:ud v:nameU="msvDisableCustomConnectionPoints" v:prompt="" v:val="VT0(1):5"/>
				</v:userDefs>
				<ellipse cx="3.41356" cy="53.5117" rx="3.41356" ry="3.4043" class="st6"/>
			</g>
			<g id="shape1432-90" v:mID="1432" v:groupContext="shape" transform="translate(28.8166,-12.5509)">
				<title>Sheet.1432</title>
				<v:userDefs>
					<v:ud v:nameU="msvDisableCustomConnectionPoints" v:prompt="" v:val="VT0(1):5"/>
				</v:userDefs>
				<path d="M3.6 54.95 L2.97 54.65 L2.43 54.36 L2.32 54.36 L1.85 53.98 L1.72 53.98 L1.16 53.62 C0.97 54.28 0.56 54.86
							 0 55.28 C0.22 55.42 0.45 55.55 0.69 55.67 L0.83 55.77 L1.46 56.11 L3.02 56.92 C3.24 56.26 3.41 55.6
							 3.54 54.92 L3.6 54.95 Z" class="st4"/>
			</g>
			<g id="shape1433-92" v:mID="1433" v:groupContext="shape" transform="translate(4.06015,-12.9472)">
				<title>Sheet.1433</title>
				<v:userDefs>
					<v:ud v:nameU="msvDisableCustomConnectionPoints" v:prompt="" v:val="VT0(1):5"/>
				</v:userDefs>
				<ellipse cx="4.93069" cy="51.9986" rx="4.93069" ry="4.91733" class="st5"/>
			</g>
			<g id="shape1434-95" v:mID="1434" v:groupContext="shape" transform="translate(16.1611,-5.67024)">
				<title>Sheet.1434</title>
				<v:userDefs>
					<v:ud v:nameU="msvDisableCustomConnectionPoints" v:prompt="" v:val="VT0(1):5"/>
				</v:userDefs>
				<ellipse cx="3.21488" cy="53.7098" rx="3.21488" ry="3.20617" class="st6"/>
			</g>
		</g>
		<g id="shape1422-98" v:mID="1422" v:groupContext="shape" transform="translate(130.36,-21.7436)">
			<title>App Services.1422</title>
			<desc>Backend API</desc>
			<v:textBlock v:margins="rect(0,0,0,0)" v:tabSpace="42.5197"/>
			<v:textRect cx="17.28" cy="67.7178" width="72" height="21.6036"/>
			<text x="-5.32" y="65.02" class="st8" v:langID="2057"><v:paragraph v:horizAlign="1"/><v:tabList/>Backend API<v:newlineChar/></text>		</g>
		<g id="group1436-100" transform="translate(18.72,-21.7436)" v:mID="1436" v:groupContext="group">
			<v:userDefs>
				<v:ud v:nameU="msvDisableCustomConnectionPoints" v:prompt="" v:val="VT0(1):5"/>
			</v:userDefs>
			<title>Sheet.1436</title>
			<g id="shape1437-101" v:mID="1437" v:groupContext="shape">
				<title>Sheet.1437</title>
				<v:userDefs>
					<v:ud v:nameU="msvDisableCustomConnectionPoints" v:prompt="" v:val="VT0(1):5"/>
				</v:userDefs>
				<path d="M26.74 51.73 C20.04 56.92 10.39 55.7 5.2 49.01 C0 42.33 1.22 32.71 7.92 27.52 L8.09 27.41 C14.88 22.36 24.5
							 23.75 29.57 30.53 C34.56 37.19 33.3 46.6 26.74 51.73 Z" class="st2"/>
			</g>
			<g id="shape1438-104" v:mID="1438" v:groupContext="shape" transform="translate(4.06015,-6.77259)">
				<title>Sheet.1438</title>
				<v:userDefs>
					<v:ud v:nameU="msvDisableCustomConnectionPoints" v:prompt="" v:val="VT0(1):5"/>
				</v:userDefs>
				<path d="M9.1 43.21 C13.44 39.09 19.2 36.79 25.2 36.76 C24.41 35.79 23.5 34.92 22.5 34.17 C19.59 34.35 16.73 35.02
							 14.04 36.15 C11.26 37.34 8.76 39.07 6.66 41.23 C7.67 41.61 8.53 42.31 9.1 43.21 ZM1.5 49.37 C0.88 50.91
							 0.38 52.48 0 54.09 C0.33 54.67 0.71 55.22 1.12 55.75 C1.44 56.16 1.75 56.54 2.11 56.92 C2.55 54.77 3.2
							 52.68 4.06 50.67 C3.1 50.5 2.21 50.04 1.5 49.37 Z" class="st3"/>
			</g>
			<g id="shape1439-106" v:mID="1439" v:groupContext="shape" transform="translate(4.09627,-20.8905)">
				<title>Sheet.1439</title>
				<v:userDefs>
					<v:ud v:nameU="msvDisableCustomConnectionPoints" v:prompt="" v:val="VT0(1):5"/>
				</v:userDefs>
				<path d="M3.23 55.31 C2.6 53.61 2.18 51.83 1.99 50.02 C1.23 50.81 0.56 51.69 0 52.63 C0.2 54.09 0.55 55.52 1.03 56.92
							 C1.59 56.18 2.36 55.63 3.23 55.31 Z" class="st4"/>
			</g>
			<g id="shape1440-108" v:mID="1440" v:groupContext="shape" transform="translate(4.06015,-12.9472)">
				<title>Sheet.1440</title>
				<v:userDefs>
					<v:ud v:nameU="msvDisableCustomConnectionPoints" v:prompt="" v:val="VT0(1):5"/>
				</v:userDefs>
				<ellipse cx="4.93069" cy="51.9986" rx="4.93069" ry="4.91733" class="st5"/>
			</g>
			<g id="shape1441-111" v:mID="1441" v:groupContext="shape" transform="translate(9.89389,-6.09533)">
				<title>Sheet.1441</title>
				<v:userDefs>
					<v:ud v:nameU="msvDisableCustomConnectionPoints" v:prompt="" v:val="VT0(1):5"/>
				</v:userDefs>
				<path d="M6.29 54.13 C6.29 53.27 6.64 52.45 7.26 51.85 C5.6 50.93 4.06 49.81 2.69 48.5 C1.98 49.27 1.03 49.79 0 49.99
							 C0.81 50.82 1.69 51.6 2.62 52.3 C3.77 53.16 5.02 53.92 6.32 54.55 C6.3 54.41 6.29 54.27 6.29 54.13 ZM17.66
							 54.51 C15.98 54.51 14.32 54.32 12.68 53.94 C12.69 54 12.69 54.07 12.68 54.13 C12.68 54.97 12.35 55.77
							 11.76 56.37 C13.79 56.77 15.86 56.92 17.93 56.8 C18.73 56.08 19.46 55.26 20.08 54.39 C19.28 54.47 18.47
							 54.52 17.66 54.51 Z" class="st4"/>
			</g>
			<g id="shape1442-113" v:mID="1442" v:groupContext="shape" transform="translate(16.1611,-5.67024)">
				<title>Sheet.1442</title>
				<v:userDefs>
					<v:ud v:nameU="msvDisableCustomConnectionPoints" v:prompt="" v:val="VT0(1):5"/>
				</v:userDefs>
				<ellipse cx="3.21488" cy="53.7098" rx="3.21488" ry="3.20617" class="st6"/>
			</g>
			<g id="shape1443-116" v:mID="1443" v:groupContext="shape" transform="translate(10.797,-17.4142)">
				<title>Sheet.1443</title>
				<v:userDefs>
					<v:ud v:nameU="msvDisableCustomConnectionPoints" v:prompt="" v:val="VT0(1):5"/>
				</v:userDefs>
				<path d="M12.53 56.92 C12.69 56.21 13.08 55.58 13.63 55.11 C10.66 52.96 7.96 50.45 5.58 47.66 C4.2 46.03 2.98 44.27
							 1.97 42.4 C1.29 42.6 0.64 42.85 0 43.15 C1.09 45.2 2.39 47.12 3.88 48.88 C6.42 51.9 9.33 54.6 12.53
							 56.92 Z" class="st7"/>
			</g>
			<g id="shape1444-118" v:mID="1444" v:groupContext="shape" transform="translate(23.2772,-13.3975)">
				<title>Sheet.1444</title>
				<v:userDefs>
					<v:ud v:nameU="msvDisableCustomConnectionPoints" v:prompt="" v:val="VT0(1):5"/>
				</v:userDefs>
				<ellipse cx="3.41356" cy="53.5117" rx="3.41356" ry="3.4043" class="st6"/>
			</g>
			<g id="shape1445-121" v:mID="1445" v:groupContext="shape" transform="translate(28.8166,-12.5509)">
				<title>Sheet.1445</title>
				<v:userDefs>
					<v:ud v:nameU="msvDisableCustomConnectionPoints" v:prompt="" v:val="VT0(1):5"/>
				</v:userDefs>
				<path d="M3.6 54.95 L2.97 54.65 L2.43 54.36 L2.32 54.36 L1.85 53.98 L1.72 53.98 L1.16 53.62 C0.97 54.28 0.56 54.86
							 0 55.28 C0.22 55.42 0.45 55.55 0.69 55.67 L0.83 55.77 L1.46 56.11 L3.02 56.92 C3.24 56.26 3.41 55.6
							 3.54 54.92 L3.6 54.95 Z" class="st4"/>
			</g>
			<g id="shape1446-123" v:mID="1446" v:groupContext="shape" transform="translate(4.06015,-12.9472)">
				<title>Sheet.1446</title>
				<v:userDefs>
					<v:ud v:nameU="msvDisableCustomConnectionPoints" v:prompt="" v:val="VT0(1):5"/>
				</v:userDefs>
				<ellipse cx="4.93069" cy="51.9986" rx="4.93069" ry="4.91733" class="st5"/>
			</g>
			<g id="shape1447-126" v:mID="1447" v:groupContext="shape" transform="translate(16.1611,-5.67024)">
				<title>Sheet.1447</title>
				<v:userDefs>
					<v:ud v:nameU="msvDisableCustomConnectionPoints" v:prompt="" v:val="VT0(1):5"/>
				</v:userDefs>
				<ellipse cx="3.21488" cy="53.7098" rx="3.21488" ry="3.20617" class="st6"/>
			</g>
		</g>
		<g id="shape1435-129" v:mID="1435" v:groupContext="shape" transform="translate(18.72,-21.7436)">
			<title>App Services.1435</title>
			<desc>Client App</desc>
			<v:textBlock v:margins="rect(0,0,0,0)" v:tabSpace="42.5197"/>
			<v:textRect cx="17.28" cy="67.7178" width="72" height="21.6036"/>
			<text x="6.7" y="65.02" class="st8" v:langID="2057"><v:paragraph v:horizAlign="1"/><v:tabList/>Client <v:newlineChar/><tspan
						x="9.95" dy="1.2em" class="st9">App</tspan></text>		</g>
		<g id="shape1448-132" v:mID="1448" v:groupContext="shape" v:layerMember="0" transform="translate(53.28,-31.937)">
			<title>Dynamic connector.1448</title>
			<path d="M0 49.83 L14.72 49.83" class="st10"/>
		</g>
		<g id="shape1449-138" v:mID="1449" v:groupContext="shape" v:layerMember="0" transform="translate(109.1,-31.937)">
			<title>Dynamic connector.1449</title>
			<path d="M0 49.83 L14.72 49.83" class="st10"/>
		</g>
		<g id="group1450-143" transform="translate(74.8414,-21.6036)" v:mID="1450" v:groupContext="group">
			<title>API Management Services.1450</title>
			<desc>API Management</desc>
			<g id="shape1451-144" v:mID="1451" v:groupContext="shape">
				<title>Sheet.1451</title>
				<v:userDefs>
					<v:ud v:nameU="msvDisableCustomConnectionPoints" v:prompt="" v:val="VT0(1):5"/>
				</v:userDefs>
				<path d="M27.81 32.76 A9.85976 10.7103 -180 0 0 17.75 22.36 A10.1647 11.0415 -180 0 0 8.09 29.62 A9.37186 10.1803
							 -180 0 0 -0 39.62 A9.49384 10.3128 -180 0 0 9.74 49.56 A6.09882 6.62492 -180 0 0 10.59 49.56 L13.03
							 49.56 A2.98842 3.24621 0 0 1 12.81 48.33 A3.06974 3.33454 0 0 1 13.21 46.71 L9.74 46.71 A6.93233 7.53033
							 0 0 1 2.58 39.62 A6.76969 7.35366 0 0 1 8.5 32.4 L10.04 32.14 L10.55 30.53 A7.58287 8.23698 0 0 1 17.75
							 25.16 A7.31859 7.9499 0 0 1 25.23 32.78 L25.23 35.21 L27.44 35.54 A5.26532 5.71951 0 0 1 32.04 41.04
							 A5.34664 5.80785 0 0 1 26.71 46.65 L24.21 46.65 A7.96913 8.65656 -180 0 0 16.34 39.62 A1.30108 1.41332
							 -180 1 0 16.34 42.43 A5.38729 5.85201 0 0 1 16.34 54.11 A1.30108 1.41332 -180 1 0 16.34 56.92 A7.96913
							 8.65656 -180 0 0 24.21 49.54 L26.35 49.54 A1.30108 1.41332 -180 0 0 26.75 49.54 A7.9488 8.63448 -180
							 0 0 34.56 41.04 A7.84715 8.52406 -180 0 0 27.81 32.76 Z" class="st12"/>
			</g>
			<g id="shape1452-148" v:mID="1452" v:groupContext="shape" transform="translate(12.8075,-5.2116)">
				<title>Sheet.1452</title>
				<v:userDefs>
					<v:ud v:nameU="msvDisableCustomConnectionPoints" v:prompt="" v:val="VT0(1):5"/>
				</v:userDefs>
				<path d="M0 53.52 A3.1308 3.40087 -180 0 0 3.13 56.92 L3.21 56.92 A3.1308 3.40087 -180 0 0 6.34 53.52 L6.34 53.43
							 A3.1308 3.40087 -180 0 0 3.21 50.03 L3.13 50.03 A3.1308 3.40087 -180 0 0 -0 53.43 L0 53.52 Z"
						class="st13"/>
			</g>
			<g id="shape1450-152" v:mID="1450" v:groupContext="groupContent">
				<v:textBlock v:margins="rect(0,0,0,0)" v:tabSpace="42.5197"/>
				<v:textRect cx="17.28" cy="67.7178" width="72" height="21.6036"/>
				<text x="11.22" y="65.02" class="st8" v:langID="1033"><v:paragraph v:horizAlign="1"/><v:tabList/>API <v:lf/><tspan
							x="-7.31" dy="1.2em" class="st9">Management</tspan></text>			</g>
		</g>
	</g>
</svg>
